<?xml version="1.0" encoding="UTF-8" standalone="no"?>
<!DOCTYPE svg PUBLIC "-//W3C//DTD SVG 1.1//EN"
 "http://www.w3.org/Graphics/SVG/1.1/DTD/svg11.dtd">
<!-- Generated by graphviz version 5.0.0 (0)
 -->
<!-- Title: jngl/Achievement.hpp Pages: 1 -->
<svg width="145pt" height="82pt"
 viewBox="0.00 0.00 145.00 82.00" xmlns="http://www.w3.org/2000/svg" xmlns:xlink="http://www.w3.org/1999/xlink">
<g id="graph0" class="graph" transform="scale(1 1) rotate(0) translate(4 78)">
<title>jngl/Achievement.hpp</title>
<!-- Node1 -->
<g id="node1" class="node">
<title>Node1</title>
<g id="a_node1"><a xlink:title="Contains jngl::Achievement class.">
<polygon fill="#999999" stroke="#666666" points="137,-74 0,-74 0,-55 137,-55 137,-74"/>
<text text-anchor="middle" x="68.5" y="-62" font-family="ui-monospace,monospace" font-size="10.00">jngl/Achievement.hpp</text>
</a>
</g>
</g>
<!-- Node2 -->
<g id="node2" class="node">
<title>Node2</title>
<g id="a_node2"><a target="_parent" xlink:href="http://en.cppreference.com/w/cpp/header/future.html" xlink:title=" ">
<polygon fill="white" stroke="#666666" points="60,-19 7,-19 7,0 60,0 60,-19"/>
<text text-anchor="middle" x="33.5" y="-7" font-family="ui-monospace,monospace" font-size="10.00">future</text>
</a>
</g>
</g>
<!-- Node1&#45;&gt;Node2 -->
<g id="edge1" class="edge">
<title>Node1&#45;&gt;Node2</title>
<path fill="none" stroke="#63b8ff" d="M62.72,-54.75C57.88,-47.42 50.82,-36.73 44.86,-27.7"/>
<polygon fill="#63b8ff" stroke="#63b8ff" points="47.6,-25.5 39.17,-19.09 41.76,-29.36 47.6,-25.5"/>
</g>
<!-- Node3 -->
<g id="node3" class="node">
<title>Node3</title>
<g id="a_node3"><a target="_parent" xlink:href="http://en.cppreference.com/w/cpp/header/string.html" xlink:title=" ">
<polygon fill="white" stroke="#666666" points="131,-19 78,-19 78,0 131,0 131,-19"/>
<text text-anchor="middle" x="104.5" y="-7" font-family="ui-monospace,monospace" font-size="10.00">string</text>
</a>
</g>
</g>
<!-- Node1&#45;&gt;Node3 -->
<g id="edge2" class="edge">
<title>Node1&#45;&gt;Node3</title>
<path fill="none" stroke="#63b8ff" d="M74.44,-54.75C79.48,-47.34 86.84,-36.5 93.01,-27.41"/>
<polygon fill="#63b8ff" stroke="#63b8ff" points="95.94,-29.33 98.67,-19.09 90.15,-25.39 95.94,-29.33"/>
</g>
</g>
</svg>
