<?xml version="1.0" encoding="UTF-8" standalone="no"?>
<!DOCTYPE svg PUBLIC "-//W3C//DTD SVG 1.1//EN"
 "http://www.w3.org/Graphics/SVG/1.1/DTD/svg11.dtd">
<!-- Generated by graphviz version 12.1.0 (20240811.2233)
 -->
<!-- Title: jngl/Achievement.hpp Pages: 1 -->
<svg width="155pt" height="83pt"
 viewBox="0.00 0.00 155.00 82.50" xmlns="http://www.w3.org/2000/svg" xmlns:xlink="http://www.w3.org/1999/xlink">
<g id="graph0" class="graph" transform="scale(1 1) rotate(0) translate(4 78.5)">
<title>jngl/Achievement.hpp</title>
<!-- Node1 -->
<g id="Node000001" class="node">
<title>Node1</title>
<g id="a_Node000001"><a xlink:title="Contains jngl::Achievement class.">
<polygon fill="#999999" stroke="#666666" points="147,-74.5 11,-74.5 11,-55.25 147,-55.25 147,-74.5"/>
<text text-anchor="middle" x="79" y="-61" font-family="ui-monospace,monospace" font-size="10.00">jngl/Achievement.hpp</text>
</a>
</g>
</g>
<!-- Node2 -->
<g id="Node000002" class="node">
<title>Node2</title>
<g id="a_Node000002"><a target="_parent" xlink:href="http://en.cppreference.com/w/cpp/header/functional.html" xlink:title=" ">
<polygon fill="white" stroke="#666666" points="76,-19.25 0,-19.25 0,0 76,0 76,-19.25"/>
<text text-anchor="middle" x="38" y="-5.75" font-family="ui-monospace,monospace" font-size="10.00">functional</text>
</a>
</g>
</g>
<!-- Node1&#45;&gt;Node2 -->
<g id="edge1_Node000001_Node000002" class="edge">
<title>Node1&#45;&gt;Node2</title>
<g id="a_edge1_Node000001_Node000002"><a xlink:title=" ">
<path fill="none" stroke="#63b8ff" d="M72.23,-55.08C66.68,-47.88 58.66,-37.46 51.77,-28.51"/>
<polygon fill="#63b8ff" stroke="#63b8ff" points="54.71,-26.6 45.84,-20.81 49.17,-30.87 54.71,-26.6"/>
</a>
</g>
</g>
<!-- Node3 -->
<g id="Node000003" class="node">
<title>Node3</title>
<g id="a_Node000003"><a target="_parent" xlink:href="http://en.cppreference.com/w/cpp/header/string.html" xlink:title=" ">
<polygon fill="white" stroke="#666666" points="146,-19.25 94,-19.25 94,0 146,0 146,-19.25"/>
<text text-anchor="middle" x="120" y="-5.75" font-family="ui-monospace,monospace" font-size="10.00">string</text>
</a>
</g>
</g>
<!-- Node1&#45;&gt;Node3 -->
<g id="edge2_Node000001_Node000003" class="edge">
<title>Node1&#45;&gt;Node3</title>
<g id="a_edge2_Node000001_Node000003"><a xlink:title=" ">
<path fill="none" stroke="#63b8ff" d="M85.77,-55.08C91.32,-47.88 99.34,-37.46 106.23,-28.51"/>
<polygon fill="#63b8ff" stroke="#63b8ff" points="108.83,-30.87 112.16,-20.81 103.29,-26.6 108.83,-30.87"/>
</a>
</g>
</g>
</g>
</svg>
