<?xml version="1.0" encoding="UTF-8" standalone="no"?>
<!DOCTYPE svg PUBLIC "-//W3C//DTD SVG 1.1//EN"
 "http://www.w3.org/Graphics/SVG/1.1/DTD/svg11.dtd">
<!-- Generated by graphviz version 2.38.0 (20140413.2041)
 -->
<!-- Title: jngl/all.hpp Pages: 1 -->
<svg width="1834pt" height="308pt"
 viewBox="0.00 0.00 1834.00 308.00" xmlns="http://www.w3.org/2000/svg" xmlns:xlink="http://www.w3.org/1999/xlink">
<g id="graph0" class="graph" transform="scale(1 1) rotate(0) translate(4 304)">
<title>jngl/all.hpp</title>
<polygon fill="white" stroke="none" points="-4,4 -4,-304 1830,-304 1830,4 -4,4"/>
<!-- Node1 -->
<g id="node1" class="node"><title>Node1</title>
<polygon fill="#bfbfbf" stroke="black" points="1002,-280.5 1002,-299.5 1091,-299.5 1091,-280.5 1002,-280.5"/>
<text text-anchor="middle" x="1046.5" y="-287.5" font-family="'Consolas',monospace" font-size="10.00">jngl/all.hpp</text>
</g>
<!-- Node2 -->
<g id="node2" class="node"><title>Node2</title>
<g id="a_node2"><a xlink:href="App_8hpp_source.html" target="_top" xlink:title="App.hpp">
<polygon fill="white" stroke="black" points="958,-168.5 958,-187.5 1017,-187.5 1017,-168.5 958,-168.5"/>
<text text-anchor="middle" x="987.5" y="-175.5" font-family="'Consolas',monospace" font-size="10.00">App.hpp</text>
</a>
</g>
</g>
<!-- Node1&#45;&gt;Node2 -->
<g id="edge1" class="edge"><title>Node1&#45;&gt;Node2</title>
<path fill="none" stroke="midnightblue" d="M1051.45,-280.433C1058.25,-267.432 1068.57,-242.299 1058.5,-224 1050.61,-209.663 1036.01,-199.253 1022.1,-192.079"/>
<polygon fill="midnightblue" stroke="midnightblue" points="1023.2,-188.728 1012.66,-187.622 1020.21,-195.058 1023.2,-188.728"/>
</g>
<!-- Node5 -->
<g id="node5" class="node"><title>Node5</title>
<g id="a_node5"><a xlink:href="Shader_8hpp_source.html" target="_top" xlink:title="Shader.hpp">
<polygon fill="white" stroke="black" points="454,-112.5 454,-131.5 531,-131.5 531,-112.5 454,-112.5"/>
<text text-anchor="middle" x="492.5" y="-119.5" font-family="'Consolas',monospace" font-size="10.00">Shader.hpp</text>
</a>
</g>
</g>
<!-- Node1&#45;&gt;Node5 -->
<g id="edge4" class="edge"><title>Node1&#45;&gt;Node5</title>
<path fill="none" stroke="midnightblue" d="M1001.88,-287.824C897.042,-284.592 637.717,-273.753 556.5,-244 515.747,-229.071 496.543,-226.496 476.5,-188 468.726,-173.069 474.871,-154.226 481.673,-140.677"/>
<polygon fill="midnightblue" stroke="midnightblue" points="484.763,-142.322 486.553,-131.879 478.642,-138.927 484.763,-142.322"/>
</g>
<!-- Node7 -->
<g id="node7" class="node"><title>Node7</title>
<g id="a_node7"><a xlink:href="ShaderProgram_8hpp_source.html" target="_top" xlink:title="ShaderProgram.hpp">
<polygon fill="white" stroke="black" points="210,-112.5 210,-131.5 329,-131.5 329,-112.5 210,-112.5"/>
<text text-anchor="middle" x="269.5" y="-119.5" font-family="'Consolas',monospace" font-size="10.00">ShaderProgram.hpp</text>
</a>
</g>
</g>
<!-- Node1&#45;&gt;Node7 -->
<g id="edge7" class="edge"><title>Node1&#45;&gt;Node7</title>
<path fill="none" stroke="midnightblue" d="M1001.79,-288.138C884.484,-285.459 570.112,-275.468 471.5,-244 397.497,-220.385 322.06,-165.161 288.091,-138.264"/>
<polygon fill="midnightblue" stroke="midnightblue" points="289.997,-135.306 280.008,-131.775 285.615,-140.764 289.997,-135.306"/>
</g>
<!-- Node10 -->
<g id="node10" class="node"><title>Node10</title>
<g id="a_node10"><a xlink:href="Vertex_8hpp_source.html" target="_top" xlink:title="Vertex.hpp">
<polygon fill="white" stroke="black" points="604,-224.5 604,-243.5 681,-243.5 681,-224.5 604,-224.5"/>
<text text-anchor="middle" x="642.5" y="-231.5" font-family="'Consolas',monospace" font-size="10.00">Vertex.hpp</text>
</a>
</g>
</g>
<!-- Node1&#45;&gt;Node10 -->
<g id="edge12" class="edge"><title>Node1&#45;&gt;Node10</title>
<path fill="none" stroke="midnightblue" d="M1001.82,-283.862C935.049,-276.051 805.334,-260.359 695.5,-244 694.202,-243.807 692.886,-243.607 691.559,-243.403"/>
<polygon fill="midnightblue" stroke="midnightblue" points="691.683,-239.879 681.258,-241.769 690.586,-246.793 691.683,-239.879"/>
</g>
<!-- Node14 -->
<g id="node14" class="node"><title>Node14</title>
<g id="a_node14"><a xlink:href="color_8hpp.html" target="_top" xlink:title="color.hpp">
<polygon fill="white" stroke="black" points="1755,-112.5 1755,-131.5 1826,-131.5 1826,-112.5 1755,-112.5"/>
<text text-anchor="middle" x="1790.5" y="-119.5" font-family="'Consolas',monospace" font-size="10.00">color.hpp</text>
</a>
</g>
</g>
<!-- Node1&#45;&gt;Node14 -->
<g id="edge17" class="edge"><title>Node1&#45;&gt;Node14</title>
<path fill="none" stroke="midnightblue" d="M1091.14,-288.701C1240.13,-287.364 1714.1,-280.276 1771.5,-244 1802.34,-224.511 1807.24,-204.17 1802.5,-168 1801.34,-159.181 1798.97,-149.633 1796.63,-141.61"/>
<polygon fill="midnightblue" stroke="midnightblue" points="1799.9,-140.337 1793.59,-131.827 1793.21,-142.415 1799.9,-140.337"/>
</g>
<!-- Node15 -->
<g id="node15" class="node"><title>Node15</title>
<g id="a_node15"><a xlink:href="Controller_8hpp_source.html" target="_top" xlink:title="Controller.hpp">
<polygon fill="white" stroke="black" points="738,-224.5 738,-243.5 839,-243.5 839,-224.5 738,-224.5"/>
<text text-anchor="middle" x="788.5" y="-231.5" font-family="'Consolas',monospace" font-size="10.00">Controller.hpp</text>
</a>
</g>
</g>
<!-- Node1&#45;&gt;Node15 -->
<g id="edge19" class="edge"><title>Node1&#45;&gt;Node15</title>
<path fill="none" stroke="midnightblue" d="M1005.62,-280.444C960.517,-271.004 887.888,-255.802 839.198,-245.611"/>
<polygon fill="midnightblue" stroke="midnightblue" points="839.695,-242.139 829.19,-243.516 838.26,-248.991 839.695,-242.139"/>
</g>
<!-- Node16 -->
<g id="node16" class="node"><title>Node16</title>
<g id="a_node16"><a xlink:href="input_8hpp.html" target="_top" xlink:title="input.hpp">
<polygon fill="white" stroke="black" points="703,-168.5 703,-187.5 774,-187.5 774,-168.5 703,-168.5"/>
<text text-anchor="middle" x="738.5" y="-175.5" font-family="'Consolas',monospace" font-size="10.00">input.hpp</text>
</a>
</g>
</g>
<!-- Node1&#45;&gt;Node16 -->
<g id="edge41" class="edge"><title>Node1&#45;&gt;Node16</title>
<path fill="none" stroke="midnightblue" d="M1001.85,-289.545C922.829,-289.452 763.37,-284.152 728.5,-244 717.415,-231.236 722.498,-211.494 728.754,-197.115"/>
<polygon fill="midnightblue" stroke="midnightblue" points="732.074,-198.292 733.303,-187.769 725.78,-195.228 732.074,-198.292"/>
</g>
<!-- Node18 -->
<g id="node18" class="node"><title>Node18</title>
<g id="a_node18"><a xlink:href="debug_8hpp_source.html" target="_top" xlink:title="debug.hpp">
<polygon fill="white" stroke="black" points="1207,-224.5 1207,-243.5 1278,-243.5 1278,-224.5 1207,-224.5"/>
<text text-anchor="middle" x="1242.5" y="-231.5" font-family="'Consolas',monospace" font-size="10.00">debug.hpp</text>
</a>
</g>
</g>
<!-- Node1&#45;&gt;Node18 -->
<g id="edge25" class="edge"><title>Node1&#45;&gt;Node18</title>
<path fill="none" stroke="midnightblue" d="M1077.56,-280.444C1111.1,-271.201 1164.7,-256.436 1201.64,-246.257"/>
<polygon fill="midnightblue" stroke="midnightblue" points="1202.88,-249.547 1211.59,-243.516 1201.02,-242.798 1202.88,-249.547"/>
</g>
<!-- Node19 -->
<g id="node19" class="node"><title>Node19</title>
<g id="a_node19"><a xlink:href="message_8hpp_source.html" target="_top" xlink:title="message.hpp">
<polygon fill="white" stroke="black" points="1290,-168.5 1290,-187.5 1373,-187.5 1373,-168.5 1290,-168.5"/>
<text text-anchor="middle" x="1331.5" y="-175.5" font-family="'Consolas',monospace" font-size="10.00">message.hpp</text>
</a>
</g>
</g>
<!-- Node1&#45;&gt;Node19 -->
<g id="edge56" class="edge"><title>Node1&#45;&gt;Node19</title>
<path fill="none" stroke="midnightblue" d="M1091.2,-284.703C1151.47,-278.226 1254.89,-264.499 1286.5,-244 1303.9,-232.714 1316.44,-212.101 1323.79,-197.106"/>
<polygon fill="midnightblue" stroke="midnightblue" points="1327.07,-198.356 1328.05,-187.806 1320.71,-195.442 1327.07,-198.356"/>
</g>
<!-- Node21 -->
<g id="node21" class="node"><title>Node21</title>
<g id="a_node21"><a xlink:href="drawable_8hpp_source.html" target="_top" xlink:title="drawable.hpp">
<polygon fill="white" stroke="black" points="347,-112.5 347,-131.5 436,-131.5 436,-112.5 347,-112.5"/>
<text text-anchor="middle" x="391.5" y="-119.5" font-family="'Consolas',monospace" font-size="10.00">drawable.hpp</text>
</a>
</g>
</g>
<!-- Node1&#45;&gt;Node21 -->
<g id="edge30" class="edge"><title>Node1&#45;&gt;Node21</title>
<path fill="none" stroke="midnightblue" d="M1001.74,-289.376C888.201,-289.688 591.808,-286.304 504.5,-244 456.604,-220.792 418.876,-167.853 401.665,-140.334"/>
<polygon fill="midnightblue" stroke="midnightblue" points="404.634,-138.479 396.45,-131.75 398.651,-142.114 404.634,-138.479"/>
</g>
<!-- Node22 -->
<g id="node22" class="node"><title>Node22</title>
<g id="a_node22"><a xlink:href="types_8hpp_source.html" target="_top" xlink:title="types.hpp">
<polygon fill="white" stroke="black" points="70,-56.5 70,-75.5 141,-75.5 141,-56.5 70,-56.5"/>
<text text-anchor="middle" x="105.5" y="-63.5" font-family="'Consolas',monospace" font-size="10.00">types.hpp</text>
</a>
</g>
</g>
<!-- Node1&#45;&gt;Node22 -->
<g id="edge86" class="edge"><title>Node1&#45;&gt;Node22</title>
<path fill="none" stroke="midnightblue" d="M1001.71,-287.913C877.62,-284.562 531.328,-272.825 421.5,-244 308.814,-214.424 282.899,-194.375 184.5,-132 161.464,-117.398 137.638,-96.9252 122.259,-82.8794"/>
<polygon fill="midnightblue" stroke="midnightblue" points="124.355,-80.0495 114.643,-75.8154 119.595,-85.1819 124.355,-80.0495"/>
</g>
<!-- Node23 -->
<g id="node23" class="node"><title>Node23</title>
<g id="a_node23"><a xlink:href="font_8hpp.html" target="_top" xlink:title="font.hpp">
<polygon fill="white" stroke="black" points="1130,-168.5 1130,-187.5 1195,-187.5 1195,-168.5 1130,-168.5"/>
<text text-anchor="middle" x="1162.5" y="-175.5" font-family="'Consolas',monospace" font-size="10.00">font.hpp</text>
</a>
</g>
</g>
<!-- Node1&#45;&gt;Node23 -->
<g id="edge33" class="edge"><title>Node1&#45;&gt;Node23</title>
<path fill="none" stroke="midnightblue" d="M1060.31,-280.42C1073.39,-271.966 1093.26,-258.275 1108.5,-244 1124.49,-229.027 1140.19,-209.411 1150.51,-195.66"/>
<polygon fill="midnightblue" stroke="midnightblue" points="1153.35,-197.706 1156.46,-187.578 1147.71,-193.556 1153.35,-197.706"/>
</g>
<!-- Node24 -->
<g id="node24" class="node"><title>Node24</title>
<g id="a_node24"><a xlink:href="framebuffer_8hpp_source.html" target="_top" xlink:title="framebuffer.hpp">
<polygon fill="white" stroke="black" points="1458,-56.5 1458,-75.5 1565,-75.5 1565,-56.5 1458,-56.5"/>
<text text-anchor="middle" x="1511.5" y="-63.5" font-family="'Consolas',monospace" font-size="10.00">framebuffer.hpp</text>
</a>
</g>
</g>
<!-- Node1&#45;&gt;Node24 -->
<g id="edge39" class="edge"><title>Node1&#45;&gt;Node24</title>
<path fill="none" stroke="midnightblue" d="M1091.11,-288.369C1195.23,-286.335 1451.39,-277.93 1529.5,-244 1569.74,-226.521 1607.05,-209.392 1592.5,-168 1580.05,-132.588 1549.38,-100.399 1529.55,-82.296"/>
<polygon fill="midnightblue" stroke="midnightblue" points="1531.86,-79.6604 1522.05,-75.6441 1527.21,-84.8977 1531.86,-79.6604"/>
</g>
<!-- Node25 -->
<g id="node25" class="node"><title>Node25</title>
<g id="a_node25"><a xlink:href="job_8hpp.html" target="_top" xlink:title="job.hpp">
<polygon fill="white" stroke="black" points="1347,-112.5 1347,-131.5 1406,-131.5 1406,-112.5 1347,-112.5"/>
<text text-anchor="middle" x="1376.5" y="-119.5" font-family="'Consolas',monospace" font-size="10.00">job.hpp</text>
</a>
</g>
</g>
<!-- Node1&#45;&gt;Node25 -->
<g id="edge42" class="edge"><title>Node1&#45;&gt;Node25</title>
<path fill="none" stroke="midnightblue" d="M1091.1,-285.873C1191.43,-277.743 1429.35,-251.953 1470.5,-188 1487.24,-161.992 1448.74,-143.558 1416.07,-133.116"/>
<polygon fill="midnightblue" stroke="midnightblue" points="1416.77,-129.671 1406.18,-130.133 1414.75,-136.373 1416.77,-129.671"/>
</g>
<!-- Node26 -->
<g id="node26" class="node"><title>Node26</title>
<g id="a_node26"><a xlink:href="main_8hpp_source.html" target="_top" xlink:title="main.hpp">
<polygon fill="white" stroke="black" points="896,-224.5 896,-243.5 961,-243.5 961,-224.5 896,-224.5"/>
<text text-anchor="middle" x="928.5" y="-231.5" font-family="'Consolas',monospace" font-size="10.00">main.hpp</text>
</a>
</g>
</g>
<!-- Node1&#45;&gt;Node26 -->
<g id="edge45" class="edge"><title>Node1&#45;&gt;Node26</title>
<path fill="none" stroke="midnightblue" d="M1027.8,-280.444C1008.56,-271.636 978.348,-257.812 956.3,-247.722"/>
<polygon fill="midnightblue" stroke="midnightblue" points="957.66,-244.495 947.11,-243.516 954.747,-250.86 957.66,-244.495"/>
</g>
<!-- Node27 -->
<g id="node27" class="node"><title>Node27</title>
<g id="a_node27"><a xlink:href="other_8hpp.html" target="_top" xlink:title="other.hpp">
<polygon fill="white" stroke="black" points="792,-168.5 792,-187.5 863,-187.5 863,-168.5 792,-168.5"/>
<text text-anchor="middle" x="827.5" y="-175.5" font-family="'Consolas',monospace" font-size="10.00">other.hpp</text>
</a>
</g>
</g>
<!-- Node1&#45;&gt;Node27 -->
<g id="edge57" class="edge"><title>Node1&#45;&gt;Node27</title>
<path fill="none" stroke="midnightblue" d="M1001.71,-283.248C968.046,-277.365 921.838,-265.859 886.5,-244 866.536,-231.651 849.237,-210.631 838.623,-195.845"/>
<polygon fill="midnightblue" stroke="midnightblue" points="841.476,-193.817 832.914,-187.577 835.716,-197.795 841.476,-193.817"/>
</g>
<!-- Node28 -->
<g id="node28" class="node"><title>Node28</title>
<g id="a_node28"><a xlink:href="window_8hpp.html" target="_top" xlink:title="Functions related to the main window. ">
<polygon fill="white" stroke="black" points="1035,-168.5 1035,-187.5 1112,-187.5 1112,-168.5 1035,-168.5"/>
<text text-anchor="middle" x="1073.5" y="-175.5" font-family="'Consolas',monospace" font-size="10.00">window.hpp</text>
</a>
</g>
</g>
<!-- Node1&#45;&gt;Node28 -->
<g id="edge91" class="edge"><title>Node1&#45;&gt;Node28</title>
<path fill="none" stroke="midnightblue" d="M1060.29,-280.189C1071.33,-272.241 1086,-259.447 1092.5,-244 1099.1,-228.303 1092.15,-209.561 1084.87,-196.244"/>
<polygon fill="midnightblue" stroke="midnightblue" points="1087.85,-194.4 1079.7,-187.627 1081.84,-198.003 1087.85,-194.4"/>
</g>
<!-- Node29 -->
<g id="node29" class="node"><title>Node29</title>
<g id="a_node29"><a xlink:href="matrix_8hpp_source.html" target="_top" xlink:title="matrix.hpp">
<polygon fill="white" stroke="black" points="1583,-56.5 1583,-75.5 1660,-75.5 1660,-56.5 1583,-56.5"/>
<text text-anchor="middle" x="1621.5" y="-63.5" font-family="'Consolas',monospace" font-size="10.00">matrix.hpp</text>
</a>
</g>
</g>
<!-- Node1&#45;&gt;Node29 -->
<g id="edge54" class="edge"><title>Node1&#45;&gt;Node29</title>
<path fill="none" stroke="midnightblue" d="M1091.39,-289.539C1201.58,-290.164 1482.33,-287.331 1563.5,-244 1591.67,-228.964 1596.3,-217.507 1608.5,-188 1622.57,-153.951 1623.51,-110.144 1622.67,-85.672"/>
<polygon fill="midnightblue" stroke="midnightblue" points="1626.16,-85.4351 1622.18,-75.6154 1619.17,-85.7725 1626.16,-85.4351"/>
</g>
<!-- Node30 -->
<g id="node30" class="node"><title>Node30</title>
<g id="a_node30"><a xlink:href="screen_8hpp.html" target="_top" xlink:title="screen.hpp">
<polygon fill="white" stroke="black" points="0,-168.5 0,-187.5 77,-187.5 77,-168.5 0,-168.5"/>
<text text-anchor="middle" x="38.5" y="-175.5" font-family="'Consolas',monospace" font-size="10.00">screen.hpp</text>
</a>
</g>
</g>
<!-- Node1&#45;&gt;Node30 -->
<g id="edge58" class="edge"><title>Node1&#45;&gt;Node30</title>
<path fill="none" stroke="midnightblue" d="M1001.82,-289.021C824.135,-288.816 173.297,-285.233 91.5,-244 71.4484,-233.892 56.3216,-212.374 47.4629,-196.861"/>
<polygon fill="midnightblue" stroke="midnightblue" points="50.3684,-194.873 42.5579,-187.714 44.1994,-198.181 50.3684,-194.873"/>
</g>
<!-- Node31 -->
<g id="node31" class="node"><title>Node31</title>
<g id="a_node31"><a xlink:href="shapes_8hpp.html" target="_top" xlink:title="shapes.hpp">
<polygon fill="white" stroke="black" points="1717,-168.5 1717,-187.5 1794,-187.5 1794,-168.5 1717,-168.5"/>
<text text-anchor="middle" x="1755.5" y="-175.5" font-family="'Consolas',monospace" font-size="10.00">shapes.hpp</text>
</a>
</g>
</g>
<!-- Node1&#45;&gt;Node31 -->
<g id="edge62" class="edge"><title>Node1&#45;&gt;Node31</title>
<path fill="none" stroke="midnightblue" d="M1091.21,-289.528C1239.17,-290.822 1706.2,-291.114 1752.5,-244 1764.24,-232.057 1763.39,-212.154 1760.59,-197.513"/>
<polygon fill="midnightblue" stroke="midnightblue" points="1763.95,-196.494 1758.25,-187.56 1757.13,-198.096 1763.95,-196.494"/>
</g>
<!-- Node32 -->
<g id="node32" class="node"><title>Node32</title>
<g id="a_node32"><a xlink:href="sound_8hpp_source.html" target="_top" xlink:title="sound.hpp">
<polygon fill="white" stroke="black" points="1391,-168.5 1391,-187.5 1462,-187.5 1462,-168.5 1391,-168.5"/>
<text text-anchor="middle" x="1426.5" y="-175.5" font-family="'Consolas',monospace" font-size="10.00">sound.hpp</text>
</a>
</g>
</g>
<!-- Node1&#45;&gt;Node32 -->
<g id="edge66" class="edge"><title>Node1&#45;&gt;Node32</title>
<path fill="none" stroke="midnightblue" d="M1091.29,-286.128C1144.96,-281.62 1236.97,-270.477 1311.5,-244 1346.83,-231.45 1383.93,-208.422 1406.14,-193.416"/>
<polygon fill="midnightblue" stroke="midnightblue" points="1408.17,-196.269 1414.42,-187.719 1404.2,-190.501 1408.17,-196.269"/>
</g>
<!-- Node33 -->
<g id="node33" class="node"><title>Node33</title>
<g id="a_node33"><a xlink:href="sprite_8hpp_source.html" target="_top" xlink:title="sprite.hpp">
<polygon fill="white" stroke="black" points="486,-168.5 486,-187.5 563,-187.5 563,-168.5 486,-168.5"/>
<text text-anchor="middle" x="524.5" y="-175.5" font-family="'Consolas',monospace" font-size="10.00">sprite.hpp</text>
</a>
</g>
</g>
<!-- Node1&#45;&gt;Node33 -->
<g id="edge69" class="edge"><title>Node1&#45;&gt;Node33</title>
<path fill="none" stroke="midnightblue" d="M1001.85,-288.602C900.852,-287.071 658.016,-279.677 585.5,-244 563.881,-233.364 545.996,-211.624 535.3,-196.22"/>
<polygon fill="midnightblue" stroke="midnightblue" points="538.036,-194.012 529.6,-187.603 532.198,-197.875 538.036,-194.012"/>
</g>
<!-- Node34 -->
<g id="node34" class="node"><title>Node34</title>
<g id="a_node34"><a xlink:href="text_8hpp.html" target="_top" xlink:title="text.hpp">
<polygon fill="white" stroke="black" points="581,-168.5 581,-187.5 646,-187.5 646,-168.5 581,-168.5"/>
<text text-anchor="middle" x="613.5" y="-175.5" font-family="'Consolas',monospace" font-size="10.00">text.hpp</text>
</a>
</g>
</g>
<!-- Node1&#45;&gt;Node34 -->
<g id="edge78" class="edge"><title>Node1&#45;&gt;Node34</title>
<path fill="none" stroke="midnightblue" d="M1001.87,-287.886C893.155,-284.714 621.527,-273.851 594.5,-244 582.59,-230.845 591.329,-210.607 600.508,-196.211"/>
<polygon fill="midnightblue" stroke="midnightblue" points="603.569,-197.939 606.391,-187.727 597.816,-193.95 603.569,-197.939"/>
</g>
<!-- Node35 -->
<g id="node35" class="node"><title>Node35</title>
<g id="a_node35"><a xlink:href="time_8hpp_source.html" target="_top" xlink:title="time.hpp">
<polygon fill="white" stroke="black" points="1679,-224.5 1679,-243.5 1744,-243.5 1744,-224.5 1679,-224.5"/>
<text text-anchor="middle" x="1711.5" y="-231.5" font-family="'Consolas',monospace" font-size="10.00">time.hpp</text>
</a>
</g>
</g>
<!-- Node1&#45;&gt;Node35 -->
<g id="edge84" class="edge"><title>Node1&#45;&gt;Node35</title>
<path fill="none" stroke="midnightblue" d="M1091.27,-287.529C1193.34,-283.785 1450.92,-272.127 1664.5,-244 1665.97,-243.807 1667.46,-243.597 1668.96,-243.374"/>
<polygon fill="midnightblue" stroke="midnightblue" points="1669.66,-246.806 1678.96,-241.739 1668.53,-239.898 1669.66,-246.806"/>
</g>
<!-- Node36 -->
<g id="node36" class="node"><title>Node36</title>
<g id="a_node36"><a xlink:href="Video_8hpp_source.html" target="_top" xlink:title="Video.hpp">
<polygon fill="white" stroke="black" points="979,-224.5 979,-243.5 1050,-243.5 1050,-224.5 979,-224.5"/>
<text text-anchor="middle" x="1014.5" y="-231.5" font-family="'Consolas',monospace" font-size="10.00">Video.hpp</text>
</a>
</g>
</g>
<!-- Node1&#45;&gt;Node36 -->
<g id="edge87" class="edge"><title>Node1&#45;&gt;Node36</title>
<path fill="none" stroke="midnightblue" d="M1041.22,-280.083C1036.79,-272.613 1030.34,-261.724 1024.88,-252.52"/>
<polygon fill="midnightblue" stroke="midnightblue" points="1027.79,-250.57 1019.69,-243.751 1021.77,-254.138 1027.79,-250.57"/>
</g>
<!-- Node37 -->
<g id="node37" class="node"><title>Node37</title>
<g id="a_node37"><a xlink:href="work_8hpp.html" target="_top" xlink:title="work.hpp">
<polygon fill="white" stroke="black" points="1519,-168.5 1519,-187.5 1584,-187.5 1584,-168.5 1519,-168.5"/>
<text text-anchor="middle" x="1551.5" y="-175.5" font-family="'Consolas',monospace" font-size="10.00">work.hpp</text>
</a>
</g>
</g>
<!-- Node1&#45;&gt;Node37 -->
<g id="edge92" class="edge"><title>Node1&#45;&gt;Node37</title>
<path fill="none" stroke="midnightblue" d="M1091.2,-289.199C1192.24,-288.925 1434.87,-283.991 1504.5,-244 1522.95,-233.406 1536.11,-212.313 1543.73,-197.021"/>
<polygon fill="midnightblue" stroke="midnightblue" points="1547.09,-198.107 1548.12,-187.562 1540.74,-195.162 1547.09,-198.107"/>
</g>
<!-- Node3 -->
<g id="node3" class="node"><title>Node3</title>
<polygon fill="white" stroke="#bfbfbf" points="971,-56.5 971,-75.5 1024,-75.5 1024,-56.5 971,-56.5"/>
<text text-anchor="middle" x="997.5" y="-63.5" font-family="'Consolas',monospace" font-size="10.00">memory</text>
</g>
<!-- Node2&#45;&gt;Node3 -->
<g id="edge2" class="edge"><title>Node2&#45;&gt;Node3</title>
<path fill="none" stroke="midnightblue" d="M989.12,-168.409C990.756,-159.379 993.218,-144.744 994.5,-132 996.056,-116.526 996.806,-98.8964 997.167,-85.9052"/>
<polygon fill="midnightblue" stroke="midnightblue" points="1000.67,-85.9302 997.395,-75.8535 993.669,-85.7717 1000.67,-85.9302"/>
</g>
<!-- Node4 -->
<g id="node4" class="node"><title>Node4</title>
<polygon fill="white" stroke="#bfbfbf" points="1047,-112.5 1047,-131.5 1100,-131.5 1100,-112.5 1047,-112.5"/>
<text text-anchor="middle" x="1073.5" y="-119.5" font-family="'Consolas',monospace" font-size="10.00">string</text>
</g>
<!-- Node2&#45;&gt;Node4 -->
<g id="edge3" class="edge"><title>Node2&#45;&gt;Node4</title>
<path fill="none" stroke="midnightblue" d="M1001.32,-168.324C1014.73,-159.9 1035.32,-146.971 1051.09,-137.074"/>
<polygon fill="midnightblue" stroke="midnightblue" points="1053.11,-139.936 1059.72,-131.655 1049.39,-134.008 1053.11,-139.936"/>
</g>
<!-- Node5&#45;&gt;Node3 -->
<g id="edge6" class="edge"><title>Node5&#45;&gt;Node3</title>
<path fill="none" stroke="midnightblue" d="M531.288,-116.852C626.026,-106.722 868.202,-80.8259 960.767,-70.9278"/>
<polygon fill="midnightblue" stroke="midnightblue" points="961.215,-74.4 970.786,-69.8565 960.471,-67.4397 961.215,-74.4"/>
</g>
<!-- Node6 -->
<g id="node6" class="node"><title>Node6</title>
<g id="a_node6"><a xlink:href="dll_8hpp_source.html" target="_top" xlink:title="dll.hpp">
<polygon fill="white" stroke="black" points="1156,-0.5 1156,-19.5 1215,-19.5 1215,-0.5 1156,-0.5"/>
<text text-anchor="middle" x="1185.5" y="-7.5" font-family="'Consolas',monospace" font-size="10.00">dll.hpp</text>
</a>
</g>
</g>
<!-- Node5&#45;&gt;Node6 -->
<g id="edge5" class="edge"><title>Node5&#45;&gt;Node6</title>
<path fill="none" stroke="midnightblue" d="M496.588,-112.346C504.007,-97.7506 521.2,-68.6035 545.5,-56 598.689,-28.4125 1014.61,-15.4094 1145.92,-11.9636"/>
<polygon fill="midnightblue" stroke="midnightblue" points="1146.04,-15.4617 1155.95,-11.7045 1145.86,-8.46398 1146.04,-15.4617"/>
</g>
<!-- Node7&#45;&gt;Node3 -->
<g id="edge11" class="edge"><title>Node7&#45;&gt;Node3</title>
<path fill="none" stroke="midnightblue" d="M329.179,-112.883C331.99,-112.57 334.775,-112.273 337.5,-112 460.077,-99.722 840.687,-76.4215 960.795,-69.1939"/>
<polygon fill="midnightblue" stroke="midnightblue" points="961.172,-72.6777 970.944,-68.5841 960.752,-65.6903 961.172,-72.6777"/>
</g>
<!-- Node8 -->
<g id="node8" class="node"><title>Node8</title>
<g id="a_node8"><a xlink:href="Finally_8hpp_source.html" target="_top" xlink:title="Finally.hpp">
<polygon fill="white" stroke="black" points="194,-56.5 194,-75.5 277,-75.5 277,-56.5 194,-56.5"/>
<text text-anchor="middle" x="235.5" y="-63.5" font-family="'Consolas',monospace" font-size="10.00">Finally.hpp</text>
</a>
</g>
</g>
<!-- Node7&#45;&gt;Node8 -->
<g id="edge8" class="edge"><title>Node7&#45;&gt;Node8</title>
<path fill="none" stroke="midnightblue" d="M263.886,-112.083C259.133,-104.534 252.182,-93.4948 246.348,-84.2298"/>
<polygon fill="midnightblue" stroke="midnightblue" points="249.3,-82.3486 241.01,-75.7511 243.376,-86.0783 249.3,-82.3486"/>
</g>
<!-- Node8&#45;&gt;Node6 -->
<g id="edge9" class="edge"><title>Node8&#45;&gt;Node6</title>
<path fill="none" stroke="midnightblue" d="M277.238,-62.6275C434.61,-53.6822 990.943,-22.059 1145.44,-13.277"/>
<polygon fill="midnightblue" stroke="midnightblue" points="1146.07,-16.7468 1155.86,-12.6848 1145.68,-9.75808 1146.07,-16.7468"/>
</g>
<!-- Node9 -->
<g id="node9" class="node"><title>Node9</title>
<polygon fill="white" stroke="#bfbfbf" points="197,-0.5 197,-19.5 274,-19.5 274,-0.5 197,-0.5"/>
<text text-anchor="middle" x="235.5" y="-7.5" font-family="'Consolas',monospace" font-size="10.00">functional</text>
</g>
<!-- Node8&#45;&gt;Node9 -->
<g id="edge10" class="edge"><title>Node8&#45;&gt;Node9</title>
<path fill="none" stroke="midnightblue" d="M235.5,-56.083C235.5,-49.0059 235.5,-38.8611 235.5,-29.9865"/>
<polygon fill="midnightblue" stroke="midnightblue" points="239,-29.751 235.5,-19.7511 232,-29.7511 239,-29.751"/>
</g>
<!-- Node11 -->
<g id="node11" class="node"><title>Node11</title>
<g id="a_node11"><a xlink:href="Vec2_8hpp.html" target="_top" xlink:title="Vec2.hpp">
<polygon fill="white" stroke="black" points="735,-112.5 735,-131.5 800,-131.5 800,-112.5 735,-112.5"/>
<text text-anchor="middle" x="767.5" y="-119.5" font-family="'Consolas',monospace" font-size="10.00">Vec2.hpp</text>
</a>
</g>
</g>
<!-- Node10&#45;&gt;Node11 -->
<g id="edge13" class="edge"><title>Node10&#45;&gt;Node11</title>
<path fill="none" stroke="midnightblue" d="M647.927,-224.19C656.436,-210.872 673.976,-185.33 693.5,-168 707.614,-155.472 725.675,-144.412 740.421,-136.392"/>
<polygon fill="midnightblue" stroke="midnightblue" points="742.344,-139.335 749.558,-131.575 739.079,-133.143 742.344,-139.335"/>
</g>
<!-- Node11&#45;&gt;Node6 -->
<g id="edge14" class="edge"><title>Node11&#45;&gt;Node6</title>
<path fill="none" stroke="midnightblue" d="M777.593,-112.345C794.909,-98.0174 831.957,-69.6059 868.5,-56 963.541,-20.6136 1084.12,-12.8095 1145.57,-11.2462"/>
<polygon fill="midnightblue" stroke="midnightblue" points="1145.7,-14.7443 1155.62,-11.0334 1145.55,-7.74585 1145.7,-14.7443"/>
</g>
<!-- Node12 -->
<g id="node12" class="node"><title>Node12</title>
<polygon fill="white" stroke="#bfbfbf" points="626,-56.5 626,-75.5 745,-75.5 745,-56.5 626,-56.5"/>
<text text-anchor="middle" x="685.5" y="-63.5" font-family="'Consolas',monospace" font-size="10.00">boost/version.hpp</text>
</g>
<!-- Node11&#45;&gt;Node12 -->
<g id="edge15" class="edge"><title>Node11&#45;&gt;Node12</title>
<path fill="none" stroke="midnightblue" d="M754.325,-112.324C741.653,-103.979 722.267,-91.2122 707.294,-81.3524"/>
<polygon fill="midnightblue" stroke="midnightblue" points="708.919,-78.2313 698.642,-75.6545 705.069,-84.0776 708.919,-78.2313"/>
</g>
<!-- Node13 -->
<g id="node13" class="node"><title>Node13</title>
<polygon fill="white" stroke="#bfbfbf" points="763,-56.5 763,-75.5 816,-75.5 816,-56.5 763,-56.5"/>
<text text-anchor="middle" x="789.5" y="-63.5" font-family="'Consolas',monospace" font-size="10.00">iosfwd</text>
</g>
<!-- Node11&#45;&gt;Node13 -->
<g id="edge16" class="edge"><title>Node11&#45;&gt;Node13</title>
<path fill="none" stroke="midnightblue" d="M771.133,-112.083C774.112,-104.77 778.426,-94.1814 782.125,-85.1034"/>
<polygon fill="midnightblue" stroke="midnightblue" points="785.403,-86.3326 785.935,-75.7511 778.92,-83.6914 785.403,-86.3326"/>
</g>
<!-- Node14&#45;&gt;Node6 -->
<g id="edge18" class="edge"><title>Node14&#45;&gt;Node6</title>
<path fill="none" stroke="midnightblue" d="M1786.77,-112.384C1779.96,-97.8471 1764.01,-68.7853 1740.5,-56 1695.52,-31.543 1344.89,-16.7467 1225.3,-12.3711"/>
<polygon fill="midnightblue" stroke="midnightblue" points="1225.24,-8.86664 1215.12,-12.0034 1224.99,-15.8621 1225.24,-8.86664"/>
</g>
<!-- Node15&#45;&gt;Node16 -->
<g id="edge20" class="edge"><title>Node15&#45;&gt;Node16</title>
<path fill="none" stroke="midnightblue" d="M780.244,-224.083C773.035,-216.298 762.39,-204.801 753.654,-195.367"/>
<polygon fill="midnightblue" stroke="midnightblue" points="755.965,-192.711 746.603,-187.751 750.829,-197.467 755.965,-192.711"/>
</g>
<!-- Node16&#45;&gt;Node3 -->
<g id="edge24" class="edge"><title>Node16&#45;&gt;Node3</title>
<path fill="none" stroke="midnightblue" d="M771.893,-168.458C801.11,-160.507 844.402,-147.56 880.5,-132 915.008,-117.125 952.608,-95.1042 975.623,-80.9021"/>
<polygon fill="midnightblue" stroke="midnightblue" points="977.626,-83.778 984.259,-75.5163 973.921,-77.8384 977.626,-83.778"/>
</g>
<!-- Node16&#45;&gt;Node6 -->
<g id="edge21" class="edge"><title>Node16&#45;&gt;Node6</title>
<path fill="none" stroke="midnightblue" d="M751.841,-168.451C794.424,-141.176 924.604,-57.8954 929.5,-56 1002.53,-27.7283 1094.19,-17.1077 1145.66,-13.199"/>
<polygon fill="midnightblue" stroke="midnightblue" points="1145.98,-16.6851 1155.71,-12.4832 1145.49,-9.70285 1145.98,-16.6851"/>
</g>
<!-- Node16&#45;&gt;Node11 -->
<g id="edge22" class="edge"><title>Node16&#45;&gt;Node11</title>
<path fill="none" stroke="midnightblue" d="M743.289,-168.083C747.258,-160.691 753.025,-149.953 757.935,-140.811"/>
<polygon fill="midnightblue" stroke="midnightblue" points="761.153,-142.217 762.8,-131.751 754.986,-138.905 761.153,-142.217"/>
</g>
<!-- Node17 -->
<g id="node17" class="node"><title>Node17</title>
<polygon fill="white" stroke="#bfbfbf" points="664,-112.5 664,-131.5 717,-131.5 717,-112.5 664,-112.5"/>
<text text-anchor="middle" x="690.5" y="-119.5" font-family="'Consolas',monospace" font-size="10.00">vector</text>
</g>
<!-- Node16&#45;&gt;Node17 -->
<g id="edge23" class="edge"><title>Node16&#45;&gt;Node17</title>
<path fill="none" stroke="midnightblue" d="M730.574,-168.083C723.654,-160.298 713.435,-148.801 705.048,-139.367"/>
<polygon fill="midnightblue" stroke="midnightblue" points="707.538,-136.9 698.279,-131.751 702.306,-141.55 707.538,-136.9"/>
</g>
<!-- Node18&#45;&gt;Node19 -->
<g id="edge26" class="edge"><title>Node18&#45;&gt;Node19</title>
<path fill="none" stroke="midnightblue" d="M1256.8,-224.324C1270.68,-215.9 1291.99,-202.971 1308.3,-193.074"/>
<polygon fill="midnightblue" stroke="midnightblue" points="1310.5,-195.834 1317.24,-187.655 1306.87,-189.85 1310.5,-195.834"/>
</g>
<!-- Node20 -->
<g id="node20" class="node"><title>Node20</title>
<polygon fill="white" stroke="#bfbfbf" points="1213,-168.5 1213,-187.5 1272,-187.5 1272,-168.5 1213,-168.5"/>
<text text-anchor="middle" x="1242.5" y="-175.5" font-family="'Consolas',monospace" font-size="10.00">sstream</text>
</g>
<!-- Node18&#45;&gt;Node20 -->
<g id="edge29" class="edge"><title>Node18&#45;&gt;Node20</title>
<path fill="none" stroke="midnightblue" d="M1242.5,-224.083C1242.5,-217.006 1242.5,-206.861 1242.5,-197.986"/>
<polygon fill="midnightblue" stroke="midnightblue" points="1246,-197.751 1242.5,-187.751 1239,-197.751 1246,-197.751"/>
</g>
<!-- Node19&#45;&gt;Node4 -->
<g id="edge28" class="edge"><title>Node19&#45;&gt;Node4</title>
<path fill="none" stroke="midnightblue" d="M1290.62,-168.444C1240.85,-158.026 1157.55,-140.591 1109.9,-130.618"/>
<polygon fill="midnightblue" stroke="midnightblue" points="1110.52,-127.172 1100.01,-128.549 1109.08,-134.023 1110.52,-127.172"/>
</g>
<!-- Node19&#45;&gt;Node6 -->
<g id="edge27" class="edge"><title>Node19&#45;&gt;Node6</title>
<path fill="none" stroke="midnightblue" d="M1323.65,-168.075C1300.17,-141.38 1230.24,-61.865 1199.86,-27.3218"/>
<polygon fill="midnightblue" stroke="midnightblue" points="1202.27,-24.7656 1193.04,-19.5681 1197.01,-29.3886 1202.27,-24.7656"/>
</g>
<!-- Node21&#45;&gt;Node6 -->
<g id="edge32" class="edge"><title>Node21&#45;&gt;Node6</title>
<path fill="none" stroke="midnightblue" d="M404.012,-112.307C425.866,-97.6539 472.924,-68.4216 517.5,-56 636.77,-22.7644 1020.15,-13.6812 1145.46,-11.5686"/>
<polygon fill="midnightblue" stroke="midnightblue" points="1145.8,-15.0635 1155.74,-11.4012 1145.69,-8.06444 1145.8,-15.0635"/>
</g>
<!-- Node21&#45;&gt;Node22 -->
<g id="edge31" class="edge"><title>Node21&#45;&gt;Node22</title>
<path fill="none" stroke="midnightblue" d="M346.812,-112.562C293.532,-102.502 204.958,-85.7788 151.224,-75.6333"/>
<polygon fill="midnightblue" stroke="midnightblue" points="151.764,-72.1734 141.288,-73.7572 150.465,-79.0518 151.764,-72.1734"/>
</g>
<!-- Node23&#45;&gt;Node3 -->
<g id="edge37" class="edge"><title>Node23&#45;&gt;Node3</title>
<path fill="none" stroke="midnightblue" d="M1157.26,-168.248C1148.65,-154.542 1130.29,-127.933 1108.5,-112 1085.98,-95.535 1056.58,-83.9691 1033.7,-76.6891"/>
<polygon fill="midnightblue" stroke="midnightblue" points="1034.6,-73.3039 1024.01,-73.7368 1032.56,-79.9999 1034.6,-73.3039"/>
</g>
<!-- Node23&#45;&gt;Node4 -->
<g id="edge38" class="edge"><title>Node23&#45;&gt;Node4</title>
<path fill="none" stroke="midnightblue" d="M1148.2,-168.324C1134.32,-159.9 1113.01,-146.971 1096.7,-137.074"/>
<polygon fill="midnightblue" stroke="midnightblue" points="1098.13,-133.85 1087.76,-131.655 1094.5,-139.834 1098.13,-133.85"/>
</g>
<!-- Node23&#45;&gt;Node6 -->
<g id="edge35" class="edge"><title>Node23&#45;&gt;Node6</title>
<path fill="none" stroke="midnightblue" d="M1163.74,-168.075C1167.36,-141.945 1177.99,-65.2106 1182.93,-29.577"/>
<polygon fill="midnightblue" stroke="midnightblue" points="1186.41,-29.9539 1184.31,-19.5681 1179.47,-28.9931 1186.41,-29.9539"/>
</g>
<!-- Node23&#45;&gt;Node11 -->
<g id="edge36" class="edge"><title>Node23&#45;&gt;Node11</title>
<path fill="none" stroke="midnightblue" d="M1129.99,-169.751C1126.79,-169.123 1123.59,-168.527 1120.5,-168 1009.22,-149.019 876.954,-134.208 810.355,-127.284"/>
<polygon fill="midnightblue" stroke="midnightblue" points="810.55,-123.786 800.243,-126.242 809.831,-130.749 810.55,-123.786"/>
</g>
<!-- Node23&#45;&gt;Node14 -->
<g id="edge34" class="edge"><title>Node23&#45;&gt;Node14</title>
<path fill="none" stroke="midnightblue" d="M1195.1,-169.414C1197.93,-168.886 1200.76,-168.404 1203.5,-168 1403.75,-138.494 1645.45,-127.709 1744.64,-124.338"/>
<polygon fill="midnightblue" stroke="midnightblue" points="1745.03,-127.827 1754.91,-123.999 1744.8,-120.831 1745.03,-127.827"/>
</g>
<!-- Node24&#45;&gt;Node6 -->
<g id="edge40" class="edge"><title>Node24&#45;&gt;Node6</title>
<path fill="none" stroke="midnightblue" d="M1459.84,-56.4435C1394.64,-45.6424 1283.89,-27.2982 1225.03,-17.5475"/>
<polygon fill="midnightblue" stroke="midnightblue" points="1225.44,-14.0689 1215.01,-15.8876 1224.3,-20.9748 1225.44,-14.0689"/>
</g>
<!-- Node25&#45;&gt;Node3 -->
<g id="edge43" class="edge"><title>Node25&#45;&gt;Node3</title>
<path fill="none" stroke="midnightblue" d="M1346.76,-116.763C1278.24,-106.999 1109.37,-82.9399 1034.4,-72.2569"/>
<polygon fill="midnightblue" stroke="midnightblue" points="1034.43,-68.7267 1024.04,-70.7811 1033.44,-75.6567 1034.43,-68.7267"/>
</g>
<!-- Node25&#45;&gt;Node6 -->
<g id="edge44" class="edge"><title>Node25&#45;&gt;Node6</title>
<path fill="none" stroke="midnightblue" d="M1373,-112.457C1366.88,-98.5508 1352.88,-71.0634 1332.5,-56 1300.87,-32.6286 1256.96,-21.2534 1225.37,-15.8075"/>
<polygon fill="midnightblue" stroke="midnightblue" points="1225.6,-12.2991 1215.17,-14.1792 1224.49,-19.2116 1225.6,-12.2991"/>
</g>
<!-- Node26&#45;&gt;Node8 -->
<g id="edge46" class="edge"><title>Node26&#45;&gt;Node8</title>
<path fill="none" stroke="midnightblue" d="M895.8,-229.262C881.048,-227.602 863.403,-225.655 847.5,-224 701.305,-208.786 285.84,-245.543 192.5,-132 179.256,-115.89 197.548,-95.6163 214.202,-82.0328"/>
<polygon fill="midnightblue" stroke="midnightblue" points="216.785,-84.4623 222.586,-75.5967 212.522,-78.9097 216.785,-84.4623"/>
</g>
<!-- Node26&#45;&gt;Node27 -->
<g id="edge47" class="edge"><title>Node26&#45;&gt;Node27</title>
<path fill="none" stroke="midnightblue" d="M912.273,-224.324C896.149,-215.703 871.2,-202.364 852.536,-192.386"/>
<polygon fill="midnightblue" stroke="midnightblue" points="854.156,-189.283 843.687,-187.655 850.856,-195.456 854.156,-189.283"/>
</g>
<!-- Node26&#45;&gt;Node28 -->
<g id="edge51" class="edge"><title>Node26&#45;&gt;Node28</title>
<path fill="none" stroke="midnightblue" d="M951.476,-224.444C975.657,-215.438 1013.92,-201.189 1041.15,-191.049"/>
<polygon fill="midnightblue" stroke="midnightblue" points="1042.48,-194.286 1050.63,-187.516 1040.04,-187.727 1042.48,-194.286"/>
</g>
<!-- Node27&#45;&gt;Node4 -->
<g id="edge48" class="edge"><title>Node27&#45;&gt;Node4</title>
<path fill="none" stroke="midnightblue" d="M863.008,-169.206C909.272,-159.05 989.776,-141.378 1036.68,-131.083"/>
<polygon fill="midnightblue" stroke="midnightblue" points="1037.7,-134.443 1046.71,-128.88 1036.2,-127.605 1037.7,-134.443"/>
</g>
<!-- Node27&#45;&gt;Node6 -->
<g id="edge50" class="edge"><title>Node27&#45;&gt;Node6</title>
<path fill="none" stroke="midnightblue" d="M838.191,-168.188C848.991,-159.224 866.092,-144.861 880.5,-132 917.327,-99.1256 917.62,-78.6165 961.5,-56 1020.99,-25.3356 1099.38,-15.5445 1145.9,-12.4325"/>
<polygon fill="midnightblue" stroke="midnightblue" points="1146.12,-15.926 1155.89,-11.8349 1145.7,-8.93854 1146.12,-15.926"/>
</g>
<!-- Node27&#45;&gt;Node17 -->
<g id="edge49" class="edge"><title>Node27&#45;&gt;Node17</title>
<path fill="none" stroke="midnightblue" d="M805.792,-168.444C783.145,-159.517 747.428,-145.439 721.748,-135.317"/>
<polygon fill="midnightblue" stroke="midnightblue" points="722.693,-131.927 712.106,-131.516 720.126,-138.44 722.693,-131.927"/>
</g>
<!-- Node28&#45;&gt;Node4 -->
<g id="edge52" class="edge"><title>Node28&#45;&gt;Node4</title>
<path fill="none" stroke="midnightblue" d="M1073.5,-168.083C1073.5,-161.006 1073.5,-150.861 1073.5,-141.986"/>
<polygon fill="midnightblue" stroke="midnightblue" points="1077,-141.751 1073.5,-131.751 1070,-141.751 1077,-141.751"/>
</g>
<!-- Node28&#45;&gt;Node6 -->
<g id="edge53" class="edge"><title>Node28&#45;&gt;Node6</title>
<path fill="none" stroke="midnightblue" d="M1080.73,-168.223C1087.99,-159.286 1099.38,-144.944 1108.5,-132 1133.84,-96.0436 1160.87,-52.0914 1175.2,-28.3017"/>
<polygon fill="midnightblue" stroke="midnightblue" points="1178.22,-30.0676 1180.36,-19.6904 1172.22,-26.4701 1178.22,-30.0676"/>
</g>
<!-- Node29&#45;&gt;Node6 -->
<g id="edge55" class="edge"><title>Node29&#45;&gt;Node6</title>
<path fill="none" stroke="midnightblue" d="M1582.77,-57.4972C1579.64,-56.9641 1576.52,-56.4574 1573.5,-56 1446.91,-36.8153 1296,-21.4514 1225.49,-14.7079"/>
<polygon fill="midnightblue" stroke="midnightblue" points="1225.57,-11.1997 1215.29,-13.7382 1224.91,-18.1684 1225.57,-11.1997"/>
</g>
<!-- Node30&#45;&gt;Node6 -->
<g id="edge59" class="edge"><title>Node30&#45;&gt;Node6</title>
<path fill="none" stroke="midnightblue" d="M36.8906,-168.258C33.2863,-145.62 27.3014,-84.8518 60.5,-56 102.264,-19.7042 950.477,-12.4096 1145.68,-11.2094"/>
<polygon fill="midnightblue" stroke="midnightblue" points="1145.81,-14.7089 1155.79,-11.1492 1145.76,-7.70897 1145.81,-14.7089"/>
</g>
<!-- Node30&#45;&gt;Node11 -->
<g id="edge61" class="edge"><title>Node30&#45;&gt;Node11</title>
<path fill="none" stroke="midnightblue" d="M77.0584,-176.44C180.411,-174.521 472.312,-166.358 724.481,-131.926"/>
<polygon fill="midnightblue" stroke="midnightblue" points="725.139,-135.368 734.566,-130.532 724.181,-128.434 725.139,-135.368"/>
</g>
<!-- Node30&#45;&gt;Node22 -->
<g id="edge60" class="edge"><title>Node30&#45;&gt;Node22</title>
<path fill="none" stroke="midnightblue" d="M43.7574,-168.368C54.7654,-150.296 80.4198,-108.176 94.9582,-84.3074"/>
<polygon fill="midnightblue" stroke="midnightblue" points="98.0542,-85.9526 100.267,-75.5914 92.0759,-82.3112 98.0542,-85.9526"/>
</g>
<!-- Node31&#45;&gt;Node6 -->
<g id="edge63" class="edge"><title>Node31&#45;&gt;Node6</title>
<path fill="none" stroke="midnightblue" d="M1752.99,-168.406C1745.42,-143.159 1722.16,-70.1052 1702.5,-56 1663.99,-28.3683 1339.47,-15.7574 1225.15,-12.1434"/>
<polygon fill="midnightblue" stroke="midnightblue" points="1225.18,-8.64263 1215.08,-11.831 1224.96,-15.6393 1225.18,-8.64263"/>
</g>
<!-- Node31&#45;&gt;Node11 -->
<g id="edge65" class="edge"><title>Node31&#45;&gt;Node11</title>
<path fill="none" stroke="midnightblue" d="M1716.97,-174.865C1683.94,-173.037 1635.09,-170.337 1592.5,-168 1292.94,-151.56 932.175,-131.946 810.174,-125.318"/>
<polygon fill="midnightblue" stroke="midnightblue" points="810.297,-121.819 800.122,-124.772 809.917,-128.809 810.297,-121.819"/>
</g>
<!-- Node31&#45;&gt;Node14 -->
<g id="edge64" class="edge"><title>Node31&#45;&gt;Node14</title>
<path fill="none" stroke="midnightblue" d="M1761.28,-168.083C1766.17,-160.534 1773.33,-149.495 1779.33,-140.23"/>
<polygon fill="midnightblue" stroke="midnightblue" points="1782.33,-142.046 1784.83,-131.751 1776.45,-138.239 1782.33,-142.046"/>
</g>
<!-- Node32&#45;&gt;Node4 -->
<g id="edge68" class="edge"><title>Node32&#45;&gt;Node4</title>
<path fill="none" stroke="midnightblue" d="M1390.67,-169.658C1387.57,-169.077 1384.48,-168.516 1381.5,-168 1284,-151.139 1168.41,-135.377 1110.48,-127.767"/>
<polygon fill="midnightblue" stroke="midnightblue" points="1110.72,-124.269 1100.35,-126.442 1109.82,-131.21 1110.72,-124.269"/>
</g>
<!-- Node32&#45;&gt;Node6 -->
<g id="edge67" class="edge"><title>Node32&#45;&gt;Node6</title>
<path fill="none" stroke="midnightblue" d="M1406.32,-168.43C1387.79,-160.185 1359.88,-146.813 1337.5,-132 1293.84,-103.103 1288.71,-88.2869 1247.5,-56 1234.02,-45.4395 1218.42,-34.1192 1206.24,-25.4744"/>
<polygon fill="midnightblue" stroke="midnightblue" points="1208.24,-22.6047 1198.05,-19.7017 1204.21,-28.3253 1208.24,-22.6047"/>
</g>
<!-- Node33&#45;&gt;Node3 -->
<g id="edge74" class="edge"><title>Node33&#45;&gt;Node3</title>
<path fill="none" stroke="midnightblue" d="M537.908,-168.389C560.812,-154.128 609.38,-125.811 654.5,-112 762.262,-79.0136 896.331,-70.2072 960.245,-67.8562"/>
<polygon fill="midnightblue" stroke="midnightblue" points="960.737,-71.3418 970.614,-67.5096 960.503,-64.3457 960.737,-71.3418"/>
</g>
<!-- Node33&#45;&gt;Node4 -->
<g id="edge75" class="edge"><title>Node33&#45;&gt;Node4</title>
<path fill="none" stroke="midnightblue" d="M563.178,-169.277C565.989,-168.813 568.785,-168.381 571.5,-168 744.796,-143.702 953.686,-129.905 1036.8,-125.031"/>
<polygon fill="midnightblue" stroke="midnightblue" points="1037.21,-128.513 1047,-124.441 1036.81,-121.525 1037.21,-128.513"/>
</g>
<!-- Node33&#45;&gt;Node6 -->
<g id="edge77" class="edge"><title>Node33&#45;&gt;Node6</title>
<path fill="none" stroke="midnightblue" d="M527.026,-168.313C534.237,-145.265 557.304,-82.5213 601.5,-56 647.94,-28.1319 1021.53,-15.4826 1145.61,-12.022"/>
<polygon fill="midnightblue" stroke="midnightblue" points="1145.9,-15.5152 1155.81,-11.7427 1145.71,-8.51787 1145.9,-15.5152"/>
</g>
<!-- Node33&#45;&gt;Node7 -->
<g id="edge71" class="edge"><title>Node33&#45;&gt;Node7</title>
<path fill="none" stroke="midnightblue" d="M485.771,-168.799C441.415,-159.406 368.605,-143.987 319.874,-133.667"/>
<polygon fill="midnightblue" stroke="midnightblue" points="320.367,-130.194 309.859,-131.547 318.917,-137.043 320.367,-130.194"/>
</g>
<!-- Node33&#45;&gt;Node8 -->
<g id="edge70" class="edge"><title>Node33&#45;&gt;Node8</title>
<path fill="none" stroke="midnightblue" d="M485.916,-174.448C404.077,-168.642 219.03,-153.281 200.5,-132 187.505,-117.075 202.918,-96.5077 217.199,-82.534"/>
<polygon fill="midnightblue" stroke="midnightblue" points="219.83,-84.869 224.828,-75.5268 215.095,-79.7135 219.83,-84.869"/>
</g>
<!-- Node33&#45;&gt;Node11 -->
<g id="edge72" class="edge"><title>Node33&#45;&gt;Node11</title>
<path fill="none" stroke="midnightblue" d="M563.004,-168.444C607.048,-158.656 678.964,-142.675 724.721,-132.506"/>
<polygon fill="midnightblue" stroke="midnightblue" points="725.629,-135.89 734.631,-130.304 724.11,-129.057 725.629,-135.89"/>
</g>
<!-- Node33&#45;&gt;Node17 -->
<g id="edge76" class="edge"><title>Node33&#45;&gt;Node17</title>
<path fill="none" stroke="midnightblue" d="M550.803,-168.444C578.851,-159.32 623.444,-144.813 654.684,-134.651"/>
<polygon fill="midnightblue" stroke="midnightblue" points="655.893,-137.938 664.32,-131.516 653.728,-131.282 655.893,-137.938"/>
</g>
<!-- Node33&#45;&gt;Node21 -->
<g id="edge73" class="edge"><title>Node33&#45;&gt;Node21</title>
<path fill="none" stroke="midnightblue" d="M503.426,-168.444C481.44,-159.517 446.766,-145.439 421.836,-135.317"/>
<polygon fill="midnightblue" stroke="midnightblue" points="423.058,-132.035 412.476,-131.516 420.424,-138.521 423.058,-132.035"/>
</g>
<!-- Node34&#45;&gt;Node3 -->
<g id="edge81" class="edge"><title>Node34&#45;&gt;Node3</title>
<path fill="none" stroke="midnightblue" d="M646.199,-170.544C685.152,-162.603 752.054,-148.172 808.5,-132 864.297,-116.014 927.87,-93.1676 965.235,-79.251"/>
<polygon fill="midnightblue" stroke="midnightblue" points="966.913,-82.3601 975.051,-75.5757 964.458,-75.8046 966.913,-82.3601"/>
</g>
<!-- Node34&#45;&gt;Node4 -->
<g id="edge82" class="edge"><title>Node34&#45;&gt;Node4</title>
<path fill="none" stroke="midnightblue" d="M646.213,-173.16C729.546,-163.377 949.392,-137.569 1036.85,-127.302"/>
<polygon fill="midnightblue" stroke="midnightblue" points="1037.32,-130.771 1046.84,-126.129 1036.51,-123.819 1037.32,-130.771"/>
</g>
<!-- Node34&#45;&gt;Node6 -->
<g id="edge79" class="edge"><title>Node34&#45;&gt;Node6</title>
<path fill="none" stroke="midnightblue" d="M610.282,-168.23C602.773,-146.052 586.875,-87.2736 616.5,-56 652.795,-17.6846 1022.74,-11.9763 1145.87,-11.1394"/>
<polygon fill="midnightblue" stroke="midnightblue" points="1146.02,-14.6387 1156,-11.078 1145.98,-7.63883 1146.02,-14.6387"/>
</g>
<!-- Node34&#45;&gt;Node17 -->
<g id="edge83" class="edge"><title>Node34&#45;&gt;Node17</title>
<path fill="none" stroke="midnightblue" d="M625.871,-168.324C637.658,-160.058 655.632,-147.453 669.636,-137.632"/>
<polygon fill="midnightblue" stroke="midnightblue" points="671.982,-140.262 678.159,-131.655 667.962,-134.531 671.982,-140.262"/>
</g>
<!-- Node34&#45;&gt;Node21 -->
<g id="edge80" class="edge"><title>Node34&#45;&gt;Node21</title>
<path fill="none" stroke="midnightblue" d="M580.743,-169.032C542.556,-159.743 479.229,-144.34 436.459,-133.936"/>
<polygon fill="midnightblue" stroke="midnightblue" points="437.136,-130.499 426.592,-131.536 435.482,-137.3 437.136,-130.499"/>
</g>
<!-- Node35&#45;&gt;Node6 -->
<g id="edge85" class="edge"><title>Node35&#45;&gt;Node6</title>
<path fill="none" stroke="midnightblue" d="M1710.71,-224.395C1707.54,-192.078 1694.7,-78.6416 1668.5,-56 1635.24,-27.2554 1334.93,-15.4646 1225.32,-12.0938"/>
<polygon fill="midnightblue" stroke="midnightblue" points="1225.12,-8.58633 1215.02,-11.7847 1224.91,-15.5832 1225.12,-8.58633"/>
</g>
<!-- Node36&#45;&gt;Node3 -->
<g id="edge89" class="edge"><title>Node36&#45;&gt;Node3</title>
<path fill="none" stroke="midnightblue" d="M988.289,-224.414C971.65,-217.445 951.443,-205.809 941.5,-188 937.167,-180.239 939.274,-176.606 941.5,-168 945.979,-150.684 971.416,-108.446 986.422,-84.4348"/>
<polygon fill="midnightblue" stroke="midnightblue" points="989.58,-85.988 991.948,-75.6613 983.657,-82.2572 989.58,-85.988"/>
</g>
<!-- Node36&#45;&gt;Node4 -->
<g id="edge90" class="edge"><title>Node36&#45;&gt;Node4</title>
<path fill="none" stroke="midnightblue" d="M993.571,-224.312C968.682,-212.695 932.409,-190.894 948.5,-168 968.285,-139.849 1007.46,-129.226 1036.71,-125.262"/>
<polygon fill="midnightblue" stroke="midnightblue" points="1037.44,-128.701 1046.98,-124.083 1036.64,-121.747 1037.44,-128.701"/>
</g>
<!-- Node36&#45;&gt;Node33 -->
<g id="edge88" class="edge"><title>Node36&#45;&gt;Node33</title>
<path fill="none" stroke="midnightblue" d="M978.699,-225.48C975.595,-224.937 972.496,-224.434 969.5,-224 796.984,-199.02 749.145,-212.219 573.291,-188.128"/>
<polygon fill="midnightblue" stroke="midnightblue" points="573.565,-184.632 563.178,-186.721 572.6,-191.565 573.565,-184.632"/>
</g>
<!-- Node37&#45;&gt;Node3 -->
<g id="edge95" class="edge"><title>Node37&#45;&gt;Node3</title>
<path fill="none" stroke="midnightblue" d="M1518.91,-170.53C1421.93,-151.273 1135.59,-94.4188 1033.87,-74.2207"/>
<polygon fill="midnightblue" stroke="midnightblue" points="1034.54,-70.7871 1024.05,-72.2724 1033.18,-77.653 1034.54,-70.7871"/>
</g>
<!-- Node37&#45;&gt;Node6 -->
<g id="edge93" class="edge"><title>Node37&#45;&gt;Node6</title>
<path fill="none" stroke="midnightblue" d="M1540.3,-168.35C1511.44,-146.454 1431.53,-88.283 1356.5,-56 1313.25,-37.3917 1260.45,-24.929 1225.07,-17.9268"/>
<polygon fill="midnightblue" stroke="midnightblue" points="1225.6,-14.4659 1215.12,-16.0121 1224.28,-21.3397 1225.6,-14.4659"/>
</g>
<!-- Node37&#45;&gt;Node25 -->
<g id="edge94" class="edge"><title>Node37&#45;&gt;Node25</title>
<path fill="none" stroke="midnightblue" d="M1523.77,-168.444C1494.07,-159.28 1446.78,-144.688 1413.83,-134.519"/>
<polygon fill="midnightblue" stroke="midnightblue" points="1414.69,-131.121 1404.1,-131.516 1412.62,-137.809 1414.69,-131.121"/>
</g>
</g>
</svg>
