<?xml version="1.0" encoding="UTF-8" standalone="no"?>
<!DOCTYPE svg PUBLIC "-//W3C//DTD SVG 1.1//EN"
 "http://www.w3.org/Graphics/SVG/1.1/DTD/svg11.dtd">
<!-- Generated by graphviz version 2.42.4 (0)
 -->
<!-- Title: jngl/all.hpp Pages: 1 -->
<svg width="1769pt" height="308pt"
 viewBox="0.00 0.00 1769.00 308.00" xmlns="http://www.w3.org/2000/svg" xmlns:xlink="http://www.w3.org/1999/xlink">
<g id="graph0" class="graph" transform="scale(1 1) rotate(0) translate(4 304)">
<title>jngl/all.hpp</title>
<polygon fill="white" stroke="transparent" points="-4,4 -4,-304 1765,-304 1765,4 -4,4"/>
<!-- Node1 -->
<g id="node1" class="node">
<title>Node1</title>
<g id="a_node1"><a xlink:title="Includes all JNGL headers.">
<polygon fill="#bfbfbf" stroke="black" points="834,-280.5 834,-299.5 923,-299.5 923,-280.5 834,-280.5"/>
<text text-anchor="middle" x="878.5" y="-287.5" font-family="'Consolas',monospace" font-size="10.00">jngl/all.hpp</text>
</a>
</g>
</g>
<!-- Node2 -->
<g id="node2" class="node">
<title>Node2</title>
<g id="a_node2"><a xlink:href="App_8hpp.html" target="_top" xlink:title=" ">
<polygon fill="white" stroke="black" points="319,-168.5 319,-187.5 378,-187.5 378,-168.5 319,-168.5"/>
<text text-anchor="middle" x="348.5" y="-175.5" font-family="'Consolas',monospace" font-size="10.00">App.hpp</text>
</a>
</g>
</g>
<!-- Node1&#45;&gt;Node2 -->
<g id="edge1" class="edge">
<title>Node1&#45;&gt;Node2</title>
<path fill="none" stroke="midnightblue" d="M833.88,-287.18C764.27,-283.52 626.02,-272.97 512.5,-244 462.21,-231.17 406.63,-206.84 374.81,-191.86"/>
<polygon fill="midnightblue" stroke="midnightblue" points="376.26,-188.67 365.73,-187.53 373.25,-194.99 376.26,-188.67"/>
</g>
<!-- Node5 -->
<g id="node5" class="node">
<title>Node5</title>
<g id="a_node5"><a xlink:href="Color_8hpp.html" target="_top" xlink:title=" ">
<polygon fill="white" stroke="black" points="1397,-168.5 1397,-187.5 1468,-187.5 1468,-168.5 1397,-168.5"/>
<text text-anchor="middle" x="1432.5" y="-175.5" font-family="'Consolas',monospace" font-size="10.00">Color.hpp</text>
</a>
</g>
</g>
<!-- Node1&#45;&gt;Node5 -->
<g id="edge4" class="edge">
<title>Node1&#45;&gt;Node5</title>
<path fill="none" stroke="midnightblue" d="M923.32,-286.97C1021.13,-282.15 1250.84,-268.51 1324.5,-244 1342.42,-238.04 1385.29,-210.55 1411.31,-193.29"/>
<polygon fill="midnightblue" stroke="midnightblue" points="1413.36,-196.12 1419.74,-187.66 1409.48,-190.3 1413.36,-196.12"/>
</g>
<!-- Node6 -->
<g id="node6" class="node">
<title>Node6</title>
<g id="a_node6"><a xlink:href="Controller_8hpp.html" target="_top" xlink:title=" ">
<polygon fill="white" stroke="black" points="983,-224.5 983,-243.5 1084,-243.5 1084,-224.5 983,-224.5"/>
<text text-anchor="middle" x="1033.5" y="-231.5" font-family="'Consolas',monospace" font-size="10.00">Controller.hpp</text>
</a>
</g>
</g>
<!-- Node1&#45;&gt;Node6 -->
<g id="edge5" class="edge">
<title>Node1&#45;&gt;Node6</title>
<path fill="none" stroke="midnightblue" d="M903.06,-280.44C929.02,-271.4 970.17,-257.06 999.3,-246.92"/>
<polygon fill="midnightblue" stroke="midnightblue" points="1000.76,-250.11 1009.05,-243.52 998.46,-243.5 1000.76,-250.11"/>
</g>
<!-- Node7 -->
<g id="node7" class="node">
<title>Node7</title>
<g id="a_node7"><a xlink:href="input_8hpp.html" target="_top" xlink:title="Input related functions.">
<polygon fill="white" stroke="black" points="907,-168.5 907,-187.5 978,-187.5 978,-168.5 907,-168.5"/>
<text text-anchor="middle" x="942.5" y="-175.5" font-family="'Consolas',monospace" font-size="10.00">input.hpp</text>
</a>
</g>
</g>
<!-- Node1&#45;&gt;Node7 -->
<g id="edge42" class="edge">
<title>Node1&#45;&gt;Node7</title>
<path fill="none" stroke="midnightblue" d="M883.52,-280.37C894.04,-262.3 918.54,-220.18 932.43,-196.31"/>
<polygon fill="midnightblue" stroke="midnightblue" points="935.5,-198 937.5,-187.59 929.45,-194.47 935.5,-198"/>
</g>
<!-- Node14 -->
<g id="node14" class="node">
<title>Node14</title>
<g id="a_node14"><a xlink:href="Drawable_8hpp.html" target="_top" xlink:title="Contains Drawable class.">
<polygon fill="white" stroke="black" points="846,-112.5 846,-131.5 935,-131.5 935,-112.5 846,-112.5"/>
<text text-anchor="middle" x="890.5" y="-119.5" font-family="'Consolas',monospace" font-size="10.00">Drawable.hpp</text>
</a>
</g>
</g>
<!-- Node1&#45;&gt;Node14 -->
<g id="edge14" class="edge">
<title>Node1&#45;&gt;Node14</title>
<path fill="none" stroke="midnightblue" d="M879.15,-280.08C881.03,-253.95 886.58,-177.21 889.16,-141.58"/>
<polygon fill="midnightblue" stroke="midnightblue" points="892.65,-141.79 889.88,-131.57 885.67,-141.29 892.65,-141.79"/>
</g>
<!-- Node15 -->
<g id="node15" class="node">
<title>Node15</title>
<g id="a_node15"><a xlink:href="Shader_8hpp.html" target="_top" xlink:title=" ">
<polygon fill="white" stroke="black" points="0,-112.5 0,-131.5 77,-131.5 77,-112.5 0,-112.5"/>
<text text-anchor="middle" x="38.5" y="-119.5" font-family="'Consolas',monospace" font-size="10.00">Shader.hpp</text>
</a>
</g>
</g>
<!-- Node1&#45;&gt;Node15 -->
<g id="edge15" class="edge">
<title>Node1&#45;&gt;Node15</title>
<path fill="none" stroke="midnightblue" d="M833.77,-288.64C677.28,-287.08 160.35,-279.27 95.5,-244 58.04,-223.63 44.99,-170.23 40.61,-141.66"/>
<polygon fill="midnightblue" stroke="midnightblue" points="44.08,-141.18 39.29,-131.73 37.14,-142.11 44.08,-141.18"/>
</g>
<!-- Node16 -->
<g id="node16" class="node">
<title>Node16</title>
<g id="a_node16"><a xlink:href="ShaderProgram_8hpp.html" target="_top" xlink:title=" ">
<polygon fill="white" stroke="black" points="1030,-112.5 1030,-131.5 1149,-131.5 1149,-112.5 1030,-112.5"/>
<text text-anchor="middle" x="1089.5" y="-119.5" font-family="'Consolas',monospace" font-size="10.00">ShaderProgram.hpp</text>
</a>
</g>
</g>
<!-- Node1&#45;&gt;Node16 -->
<g id="edge17" class="edge">
<title>Node1&#45;&gt;Node16</title>
<path fill="none" stroke="midnightblue" d="M923.26,-286.65C968.46,-282.72 1039.17,-272.19 1093.5,-244 1131.7,-224.18 1173.33,-206.19 1153.5,-168 1146.35,-154.23 1132.83,-143.78 1120.05,-136.44"/>
<polygon fill="midnightblue" stroke="midnightblue" points="1121.46,-133.23 1110.98,-131.64 1118.18,-139.41 1121.46,-133.23"/>
</g>
<!-- Node18 -->
<g id="node18" class="node">
<title>Node18</title>
<g id="a_node18"><a xlink:href="Vertex_8hpp.html" target="_top" xlink:title=" ">
<polygon fill="white" stroke="black" points="1465,-112.5 1465,-131.5 1542,-131.5 1542,-112.5 1465,-112.5"/>
<text text-anchor="middle" x="1503.5" y="-119.5" font-family="'Consolas',monospace" font-size="10.00">Vertex.hpp</text>
</a>
</g>
</g>
<!-- Node1&#45;&gt;Node18 -->
<g id="edge21" class="edge">
<title>Node1&#45;&gt;Node18</title>
<path fill="none" stroke="midnightblue" d="M923.07,-289.47C1066.69,-290.5 1510.52,-289.94 1553.5,-244 1582.08,-213.45 1543.71,-164.27 1519.89,-139.05"/>
<polygon fill="midnightblue" stroke="midnightblue" points="1522.26,-136.47 1512.77,-131.76 1517.25,-141.36 1522.26,-136.47"/>
</g>
<!-- Node19 -->
<g id="node19" class="node">
<title>Node19</title>
<g id="a_node19"><a xlink:href="Video_8hpp.html" target="_top" xlink:title=" ">
<polygon fill="white" stroke="black" points="779,-224.5 779,-243.5 850,-243.5 850,-224.5 779,-224.5"/>
<text text-anchor="middle" x="814.5" y="-231.5" font-family="'Consolas',monospace" font-size="10.00">Video.hpp</text>
</a>
</g>
</g>
<!-- Node1&#45;&gt;Node19 -->
<g id="edge22" class="edge">
<title>Node1&#45;&gt;Node19</title>
<path fill="none" stroke="midnightblue" d="M868.22,-280.32C858.66,-272.26 844.22,-260.08 832.72,-250.37"/>
<polygon fill="midnightblue" stroke="midnightblue" points="834.87,-247.61 824.97,-243.83 830.36,-252.96 834.87,-247.61"/>
</g>
<!-- Node20 -->
<g id="node20" class="node">
<title>Node20</title>
<g id="a_node20"><a xlink:href="sprite_8hpp_source.html" target="_top" xlink:title=" ">
<polygon fill="white" stroke="black" points="996,-168.5 996,-187.5 1073,-187.5 1073,-168.5 996,-168.5"/>
<text text-anchor="middle" x="1034.5" y="-175.5" font-family="'Consolas',monospace" font-size="10.00">sprite.hpp</text>
</a>
</g>
</g>
<!-- Node1&#45;&gt;Node20 -->
<g id="edge63" class="edge">
<title>Node1&#45;&gt;Node20</title>
<path fill="none" stroke="midnightblue" d="M890.74,-280.37C917.4,-261.57 980.94,-216.77 1013.89,-193.53"/>
<polygon fill="midnightblue" stroke="midnightblue" points="1016.16,-196.21 1022.32,-187.59 1012.13,-190.49 1016.16,-196.21"/>
</g>
<!-- Node21 -->
<g id="node21" class="node">
<title>Node21</title>
<g id="a_node21"><a xlink:href="debug_8hpp_source.html" target="_top" xlink:title=" ">
<polygon fill="white" stroke="black" points="224,-224.5 224,-243.5 295,-243.5 295,-224.5 224,-224.5"/>
<text text-anchor="middle" x="259.5" y="-231.5" font-family="'Consolas',monospace" font-size="10.00">debug.hpp</text>
</a>
</g>
</g>
<!-- Node1&#45;&gt;Node21 -->
<g id="edge29" class="edge">
<title>Node1&#45;&gt;Node21</title>
<path fill="none" stroke="midnightblue" d="M833.97,-286.81C738.26,-281.8 505.94,-268.07 312.5,-244 310.12,-243.7 307.68,-243.38 305.22,-243.03"/>
<polygon fill="midnightblue" stroke="midnightblue" points="305.48,-239.53 295.07,-241.49 304.43,-246.45 305.48,-239.53"/>
</g>
<!-- Node22 -->
<g id="node22" class="node">
<title>Node22</title>
<g id="a_node22"><a xlink:href="message_8hpp.html" target="_top" xlink:title=" ">
<polygon fill="white" stroke="black" points="218,-168.5 218,-187.5 301,-187.5 301,-168.5 218,-168.5"/>
<text text-anchor="middle" x="259.5" y="-175.5" font-family="'Consolas',monospace" font-size="10.00">message.hpp</text>
</a>
</g>
</g>
<!-- Node1&#45;&gt;Node22 -->
<g id="edge54" class="edge">
<title>Node1&#45;&gt;Node22</title>
<path fill="none" stroke="midnightblue" d="M833.71,-287.65C754.93,-284.54 586.83,-274.61 448.5,-244 390.59,-231.19 325.75,-206.51 289.06,-191.52"/>
<polygon fill="midnightblue" stroke="midnightblue" points="290.06,-188.15 279.48,-187.57 287.39,-194.62 290.06,-188.15"/>
</g>
<!-- Node24 -->
<g id="node24" class="node">
<title>Node24</title>
<g id="a_node24"><a xlink:href="font_8hpp.html" target="_top" xlink:title=" ">
<polygon fill="white" stroke="black" points="1250,-224.5 1250,-243.5 1315,-243.5 1315,-224.5 1250,-224.5"/>
<text text-anchor="middle" x="1282.5" y="-231.5" font-family="'Consolas',monospace" font-size="10.00">font.hpp</text>
</a>
</g>
</g>
<!-- Node1&#45;&gt;Node24 -->
<g id="edge33" class="edge">
<title>Node1&#45;&gt;Node24</title>
<path fill="none" stroke="midnightblue" d="M923.04,-283.95C989.93,-276.21 1120.23,-260.58 1230.5,-244 1233.53,-243.54 1236.65,-243.05 1239.79,-242.55"/>
<polygon fill="midnightblue" stroke="midnightblue" points="1240.51,-245.98 1249.8,-240.89 1239.37,-239.07 1240.51,-245.98"/>
</g>
<!-- Node25 -->
<g id="node25" class="node">
<title>Node25</title>
<g id="a_node25"><a xlink:href="framebuffer_8hpp.html" target="_top" xlink:title="Contains FrameBuffer class.">
<polygon fill="white" stroke="black" points="1201,-168.5 1201,-187.5 1302,-187.5 1302,-168.5 1201,-168.5"/>
<text text-anchor="middle" x="1251.5" y="-175.5" font-family="'Consolas',monospace" font-size="10.00">framebuffer.hpp</text>
</a>
</g>
</g>
<!-- Node1&#45;&gt;Node25 -->
<g id="edge37" class="edge">
<title>Node1&#45;&gt;Node25</title>
<path fill="none" stroke="midnightblue" d="M923.13,-285.94C997.05,-280.3 1141.22,-266.73 1186.5,-244 1208.68,-232.87 1227.89,-211.28 1239.56,-196.04"/>
<polygon fill="midnightblue" stroke="midnightblue" points="1242.42,-198.06 1245.53,-187.93 1236.78,-193.92 1242.42,-198.06"/>
</g>
<!-- Node26 -->
<g id="node26" class="node">
<title>Node26</title>
<g id="a_node26"><a xlink:href="job_8hpp.html" target="_top" xlink:title=" ">
<polygon fill="white" stroke="black" points="64,-168.5 64,-187.5 123,-187.5 123,-168.5 64,-168.5"/>
<text text-anchor="middle" x="93.5" y="-175.5" font-family="'Consolas',monospace" font-size="10.00">job.hpp</text>
</a>
</g>
</g>
<!-- Node1&#45;&gt;Node26 -->
<g id="edge43" class="edge">
<title>Node1&#45;&gt;Node26</title>
<path fill="none" stroke="midnightblue" d="M833.98,-289.32C678.93,-290.05 168.97,-288.97 112.5,-244 98.87,-233.14 94.65,-213.07 93.52,-198.09"/>
<polygon fill="midnightblue" stroke="midnightblue" points="97.01,-197.73 93.15,-187.87 90.01,-197.99 97.01,-197.73"/>
</g>
<!-- Node27 -->
<g id="node27" class="node">
<title>Node27</title>
<g id="a_node27"><a xlink:href="main_8hpp_source.html" target="_top" xlink:title=" ">
<polygon fill="white" stroke="black" points="612,-224.5 612,-243.5 677,-243.5 677,-224.5 612,-224.5"/>
<text text-anchor="middle" x="644.5" y="-231.5" font-family="'Consolas',monospace" font-size="10.00">main.hpp</text>
</a>
</g>
</g>
<!-- Node1&#45;&gt;Node27 -->
<g id="edge45" class="edge">
<title>Node1&#45;&gt;Node27</title>
<path fill="none" stroke="midnightblue" d="M841.42,-280.44C799.46,-270.76 731.22,-255.01 687.1,-244.83"/>
<polygon fill="midnightblue" stroke="midnightblue" points="687.78,-241.4 677.25,-242.56 686.21,-248.22 687.78,-241.4"/>
</g>
<!-- Node28 -->
<g id="node28" class="node">
<title>Node28</title>
<g id="a_node28"><a xlink:href="other_8hpp.html" target="_top" xlink:title=" ">
<polygon fill="white" stroke="black" points="619,-168.5 619,-187.5 690,-187.5 690,-168.5 619,-168.5"/>
<text text-anchor="middle" x="654.5" y="-175.5" font-family="'Consolas',monospace" font-size="10.00">other.hpp</text>
</a>
</g>
</g>
<!-- Node1&#45;&gt;Node28 -->
<g id="edge55" class="edge">
<title>Node1&#45;&gt;Node28</title>
<path fill="none" stroke="midnightblue" d="M851.66,-280.36C827.34,-272.16 790.8,-258.91 760.5,-244 729.62,-228.81 696.1,-207.33 675.2,-193.29"/>
<polygon fill="midnightblue" stroke="midnightblue" points="677.03,-190.31 666.8,-187.59 673.1,-196.1 677.03,-190.31"/>
</g>
<!-- Node29 -->
<g id="node29" class="node">
<title>Node29</title>
<g id="a_node29"><a xlink:href="window_8hpp.html" target="_top" xlink:title="Functions related to the main window.">
<polygon fill="white" stroke="black" points="485,-168.5 485,-187.5 562,-187.5 562,-168.5 485,-168.5"/>
<text text-anchor="middle" x="523.5" y="-175.5" font-family="'Consolas',monospace" font-size="10.00">window.hpp</text>
</a>
</g>
</g>
<!-- Node1&#45;&gt;Node29 -->
<g id="edge70" class="edge">
<title>Node1&#45;&gt;Node29</title>
<path fill="none" stroke="midnightblue" d="M833.62,-288.66C777.45,-286.69 679.4,-278.1 603.5,-244 577.88,-232.49 553.61,-210.66 538.66,-195.5"/>
<polygon fill="midnightblue" stroke="midnightblue" points="540.8,-192.67 531.36,-187.86 535.74,-197.51 540.8,-192.67"/>
</g>
<!-- Node30 -->
<g id="node30" class="node">
<title>Node30</title>
<g id="a_node30"><a xlink:href="matrix_8hpp.html" target="_top" xlink:title="Functions related to the global ModelView matrix.">
<polygon fill="white" stroke="black" points="1601,-224.5 1601,-243.5 1678,-243.5 1678,-224.5 1601,-224.5"/>
<text text-anchor="middle" x="1639.5" y="-231.5" font-family="'Consolas',monospace" font-size="10.00">matrix.hpp</text>
</a>
</g>
</g>
<!-- Node1&#45;&gt;Node30 -->
<g id="edge53" class="edge">
<title>Node1&#45;&gt;Node30</title>
<path fill="none" stroke="midnightblue" d="M923.38,-287.78C1035.52,-284.37 1336.93,-273.04 1586.5,-244 1587.8,-243.85 1589.12,-243.69 1590.46,-243.52"/>
<polygon fill="midnightblue" stroke="midnightblue" points="1591.37,-246.92 1600.78,-242.06 1590.39,-239.99 1591.37,-246.92"/>
</g>
<!-- Node31 -->
<g id="node31" class="node">
<title>Node31</title>
<g id="a_node31"><a xlink:href="screen_8hpp.html" target="_top" xlink:title=" ">
<polygon fill="white" stroke="black" points="1467,-224.5 1467,-243.5 1544,-243.5 1544,-224.5 1467,-224.5"/>
<text text-anchor="middle" x="1505.5" y="-231.5" font-family="'Consolas',monospace" font-size="10.00">screen.hpp</text>
</a>
</g>
</g>
<!-- Node1&#45;&gt;Node31 -->
<g id="edge56" class="edge">
<title>Node1&#45;&gt;Node31</title>
<path fill="none" stroke="midnightblue" d="M923.06,-287.24C1018.96,-283.09 1252.13,-271.04 1456.8,-244.1"/>
<polygon fill="midnightblue" stroke="midnightblue" points="1457.38,-247.55 1466.83,-242.76 1456.45,-240.61 1457.38,-247.55"/>
</g>
<!-- Node32 -->
<g id="node32" class="node">
<title>Node32</title>
<g id="a_node32"><a xlink:href="shapes_8hpp.html" target="_top" xlink:title="Functions for drawing shapes.">
<polygon fill="white" stroke="black" points="1372,-224.5 1372,-243.5 1449,-243.5 1449,-224.5 1372,-224.5"/>
<text text-anchor="middle" x="1410.5" y="-231.5" font-family="'Consolas',monospace" font-size="10.00">shapes.hpp</text>
</a>
</g>
</g>
<!-- Node1&#45;&gt;Node32 -->
<g id="edge58" class="edge">
<title>Node1&#45;&gt;Node32</title>
<path fill="none" stroke="midnightblue" d="M923.2,-285.92C1008.07,-279.82 1198.3,-264.97 1357.5,-244 1358.8,-243.83 1360.12,-243.65 1361.45,-243.46"/>
<polygon fill="midnightblue" stroke="midnightblue" points="1362.39,-246.86 1371.76,-241.92 1361.36,-239.94 1362.39,-246.86"/>
</g>
<!-- Node33 -->
<g id="node33" class="node">
<title>Node33</title>
<g id="a_node33"><a xlink:href="sound_8hpp_source.html" target="_top" xlink:title=" ">
<polygon fill="white" stroke="black" points="396,-168.5 396,-187.5 467,-187.5 467,-168.5 396,-168.5"/>
<text text-anchor="middle" x="431.5" y="-175.5" font-family="'Consolas',monospace" font-size="10.00">sound.hpp</text>
</a>
</g>
</g>
<!-- Node1&#45;&gt;Node33 -->
<g id="edge61" class="edge">
<title>Node1&#45;&gt;Node33</title>
<path fill="none" stroke="midnightblue" d="M833.81,-286.77C772.56,-282.77 659.64,-271.97 567.5,-244 525.8,-231.34 480.79,-207.64 454.44,-192.62"/>
<polygon fill="midnightblue" stroke="midnightblue" points="456.02,-189.5 445.61,-187.52 452.51,-195.56 456.02,-189.5"/>
</g>
<!-- Node34 -->
<g id="node34" class="node">
<title>Node34</title>
<g id="a_node34"><a xlink:href="text_8hpp.html" target="_top" xlink:title=" ">
<polygon fill="white" stroke="black" points="747,-168.5 747,-187.5 812,-187.5 812,-168.5 747,-168.5"/>
<text text-anchor="middle" x="779.5" y="-175.5" font-family="'Consolas',monospace" font-size="10.00">text.hpp</text>
</a>
</g>
</g>
<!-- Node1&#45;&gt;Node34 -->
<g id="edge64" class="edge">
<title>Node1&#45;&gt;Node34</title>
<path fill="none" stroke="midnightblue" d="M833.94,-282.38C810.87,-276.44 784.64,-265.21 770.5,-244 761.33,-230.25 765.44,-211.22 770.73,-197.3"/>
<polygon fill="midnightblue" stroke="midnightblue" points="774.06,-198.4 774.8,-187.83 767.63,-195.64 774.06,-198.4"/>
</g>
<!-- Node35 -->
<g id="node35" class="node">
<title>Node35</title>
<g id="a_node35"><a xlink:href="time_8hpp.html" target="_top" xlink:title=" ">
<polygon fill="white" stroke="black" points="1696,-224.5 1696,-243.5 1761,-243.5 1761,-224.5 1696,-224.5"/>
<text text-anchor="middle" x="1728.5" y="-231.5" font-family="'Consolas',monospace" font-size="10.00">time.hpp</text>
</a>
</g>
</g>
<!-- Node1&#45;&gt;Node35 -->
<g id="edge69" class="edge">
<title>Node1&#45;&gt;Node35</title>
<path fill="none" stroke="midnightblue" d="M923.03,-289.02C1044.19,-288.56 1390.07,-283.68 1685.85,-244.01"/>
<polygon fill="midnightblue" stroke="midnightblue" points="1686.47,-247.46 1695.91,-242.65 1685.53,-240.52 1686.47,-247.46"/>
</g>
<!-- Node36 -->
<g id="node36" class="node">
<title>Node36</title>
<g id="a_node36"><a xlink:href="work_8hpp.html" target="_top" xlink:title=" ">
<polygon fill="white" stroke="black" points="122,-224.5 122,-243.5 187,-243.5 187,-224.5 122,-224.5"/>
<text text-anchor="middle" x="154.5" y="-231.5" font-family="'Consolas',monospace" font-size="10.00">work.hpp</text>
</a>
</g>
</g>
<!-- Node1&#45;&gt;Node36 -->
<g id="edge71" class="edge">
<title>Node1&#45;&gt;Node36</title>
<path fill="none" stroke="midnightblue" d="M833.7,-287.22C726.5,-282.69 446.82,-269.25 214.5,-244 208.94,-243.4 203.1,-242.65 197.34,-241.86"/>
<polygon fill="midnightblue" stroke="midnightblue" points="197.53,-238.35 187.13,-240.39 196.53,-245.28 197.53,-238.35"/>
</g>
<!-- Node3 -->
<g id="node3" class="node">
<title>Node3</title>
<g id="a_node3"><a xlink:href="http://en.cppreference.com/w/cpp/header/memory.html" xlink:title=" ">
<polygon fill="white" stroke="black" points="772,-56.5 772,-75.5 825,-75.5 825,-56.5 772,-56.5"/>
<text text-anchor="middle" x="798.5" y="-63.5" font-family="'Consolas',monospace" font-size="10.00">memory</text>
</a>
</g>
</g>
<!-- Node2&#45;&gt;Node3 -->
<g id="edge2" class="edge">
<title>Node2&#45;&gt;Node3</title>
<path fill="none" stroke="midnightblue" d="M352.52,-168.46C359.82,-154.03 376.71,-125.13 400.5,-112 462.16,-77.97 675.4,-69.62 761.76,-67.62"/>
<polygon fill="midnightblue" stroke="midnightblue" points="761.96,-71.11 771.88,-67.4 761.81,-64.11 761.96,-71.11"/>
</g>
<!-- Node4 -->
<g id="node4" class="node">
<title>Node4</title>
<g id="a_node4"><a xlink:href="http://en.cppreference.com/w/cpp/header/string.html" xlink:title=" ">
<polygon fill="white" stroke="black" points="497,-112.5 497,-131.5 550,-131.5 550,-112.5 497,-112.5"/>
<text text-anchor="middle" x="523.5" y="-119.5" font-family="'Consolas',monospace" font-size="10.00">string</text>
</a>
</g>
</g>
<!-- Node2&#45;&gt;Node4 -->
<g id="edge3" class="edge">
<title>Node2&#45;&gt;Node4</title>
<path fill="none" stroke="midnightblue" d="M376.23,-168.44C406.19,-159.2 454.05,-144.43 487.04,-134.25"/>
<polygon fill="midnightblue" stroke="midnightblue" points="488.24,-137.54 496.76,-131.25 486.17,-130.85 488.24,-137.54"/>
</g>
<!-- Node6&#45;&gt;Node7 -->
<g id="edge6" class="edge">
<title>Node6&#45;&gt;Node7</title>
<path fill="none" stroke="midnightblue" d="M1018.88,-224.32C1004.55,-215.82 982.49,-202.73 965.75,-192.8"/>
<polygon fill="midnightblue" stroke="midnightblue" points="967.47,-189.75 957.08,-187.65 963.9,-195.77 967.47,-189.75"/>
</g>
<!-- Node13 -->
<g id="node13" class="node">
<title>Node13</title>
<g id="a_node13"><a xlink:href="http://en.cppreference.com/w/cpp/header/chrono.html" xlink:title=" ">
<polygon fill="white" stroke="black" points="1091,-168.5 1091,-187.5 1144,-187.5 1144,-168.5 1091,-168.5"/>
<text text-anchor="middle" x="1117.5" y="-175.5" font-family="'Consolas',monospace" font-size="10.00">chrono</text>
</a>
</g>
</g>
<!-- Node6&#45;&gt;Node13 -->
<g id="edge13" class="edge">
<title>Node6&#45;&gt;Node13</title>
<path fill="none" stroke="midnightblue" d="M1047,-224.32C1060.1,-215.9 1080.21,-202.97 1095.61,-193.07"/>
<polygon fill="midnightblue" stroke="midnightblue" points="1097.52,-196.01 1104.04,-187.65 1093.73,-190.12 1097.52,-196.01"/>
</g>
<!-- Node7&#45;&gt;Node3 -->
<g id="edge11" class="edge">
<title>Node7&#45;&gt;Node3</title>
<path fill="none" stroke="midnightblue" d="M945.81,-168.43C950.41,-154.98 956.84,-128.71 944.5,-112 919.59,-78.25 869.74,-69.03 835.27,-66.91"/>
<polygon fill="midnightblue" stroke="midnightblue" points="835.26,-63.4 825.11,-66.46 834.95,-70.4 835.26,-63.4"/>
</g>
<!-- Node8 -->
<g id="node8" class="node">
<title>Node8</title>
<g id="a_node8"><a xlink:href="Vec2_8hpp.html" target="_top" xlink:title=" ">
<polygon fill="white" stroke="black" points="1246,-112.5 1246,-131.5 1311,-131.5 1311,-112.5 1246,-112.5"/>
<text text-anchor="middle" x="1278.5" y="-119.5" font-family="'Consolas',monospace" font-size="10.00">Vec2.hpp</text>
</a>
</g>
</g>
<!-- Node7&#45;&gt;Node8 -->
<g id="edge7" class="edge">
<title>Node7&#45;&gt;Node8</title>
<path fill="none" stroke="midnightblue" d="M978.33,-169.69C981.43,-169.1 984.52,-168.53 987.5,-168 1075.4,-152.42 1178.79,-137.16 1235.63,-129.03"/>
<polygon fill="midnightblue" stroke="midnightblue" points="1236.29,-132.47 1245.69,-127.59 1235.3,-125.54 1236.29,-132.47"/>
</g>
<!-- Node11 -->
<g id="node11" class="node">
<title>Node11</title>
<g id="a_node11"><a xlink:href="http://en.cppreference.com/w/cpp/header/functional.html" xlink:title=" ">
<polygon fill="white" stroke="black" points="1002,-0.5 1002,-19.5 1079,-19.5 1079,-0.5 1002,-0.5"/>
<text text-anchor="middle" x="1040.5" y="-7.5" font-family="'Consolas',monospace" font-size="10.00">functional</text>
</a>
</g>
</g>
<!-- Node7&#45;&gt;Node11 -->
<g id="edge10" class="edge">
<title>Node7&#45;&gt;Node11</title>
<path fill="none" stroke="midnightblue" d="M947.77,-168.08C963.4,-141.61 1009.68,-63.21 1030.34,-28.21"/>
<polygon fill="midnightblue" stroke="midnightblue" points="1033.37,-29.96 1035.44,-19.57 1027.34,-26.4 1033.37,-29.96"/>
</g>
<!-- Node12 -->
<g id="node12" class="node">
<title>Node12</title>
<g id="a_node12"><a xlink:href="http://en.cppreference.com/w/cpp/header/vector.html" xlink:title=" ">
<polygon fill="white" stroke="black" points="698,-112.5 698,-131.5 751,-131.5 751,-112.5 698,-112.5"/>
<text text-anchor="middle" x="724.5" y="-119.5" font-family="'Consolas',monospace" font-size="10.00">vector</text>
</a>
</g>
</g>
<!-- Node7&#45;&gt;Node12 -->
<g id="edge12" class="edge">
<title>Node7&#45;&gt;Node12</title>
<path fill="none" stroke="midnightblue" d="M907.96,-168.44C867.89,-158.52 802.12,-142.23 761.17,-132.08"/>
<polygon fill="midnightblue" stroke="midnightblue" points="761.87,-128.65 751.32,-129.64 760.19,-135.45 761.87,-128.65"/>
</g>
<!-- Node9 -->
<g id="node9" class="node">
<title>Node9</title>
<g id="a_node9"><a xlink:title=" ">
<polygon fill="white" stroke="#bfbfbf" points="1223,-56.5 1223,-75.5 1342,-75.5 1342,-56.5 1223,-56.5"/>
<text text-anchor="middle" x="1282.5" y="-63.5" font-family="'Consolas',monospace" font-size="10.00">boost/version.hpp</text>
</a>
</g>
</g>
<!-- Node8&#45;&gt;Node9 -->
<g id="edge8" class="edge">
<title>Node8&#45;&gt;Node9</title>
<path fill="none" stroke="midnightblue" d="M1279.16,-112.08C1279.68,-105.01 1280.44,-94.86 1281.09,-85.99"/>
<polygon fill="midnightblue" stroke="midnightblue" points="1284.6,-85.98 1281.85,-75.75 1277.62,-85.47 1284.6,-85.98"/>
</g>
<!-- Node10 -->
<g id="node10" class="node">
<title>Node10</title>
<g id="a_node10"><a xlink:href="http://en.cppreference.com/w/cpp/header/iosfwd.html" xlink:title=" ">
<polygon fill="white" stroke="black" points="1152,-56.5 1152,-75.5 1205,-75.5 1205,-56.5 1152,-56.5"/>
<text text-anchor="middle" x="1178.5" y="-63.5" font-family="'Consolas',monospace" font-size="10.00">iosfwd</text>
</a>
</g>
</g>
<!-- Node8&#45;&gt;Node10 -->
<g id="edge9" class="edge">
<title>Node8&#45;&gt;Node10</title>
<path fill="none" stroke="midnightblue" d="M1262.43,-112.32C1246.54,-103.74 1221.99,-90.49 1203.54,-80.52"/>
<polygon fill="midnightblue" stroke="midnightblue" points="1204.99,-77.33 1194.53,-75.65 1201.66,-83.49 1204.99,-77.33"/>
</g>
<!-- Node15&#45;&gt;Node3 -->
<g id="edge16" class="edge">
<title>Node15&#45;&gt;Node3</title>
<path fill="none" stroke="midnightblue" d="M77.12,-114.51C83.58,-113.57 90.22,-112.69 96.5,-112 350.31,-84.23 657.77,-71.8 761.96,-68.18"/>
<polygon fill="midnightblue" stroke="midnightblue" points="762.09,-71.68 771.97,-67.84 761.86,-64.68 762.09,-71.68"/>
</g>
<!-- Node16&#45;&gt;Node3 -->
<g id="edge20" class="edge">
<title>Node16&#45;&gt;Node3</title>
<path fill="none" stroke="midnightblue" d="M1043.39,-112.44C985.7,-101.74 888.06,-83.62 835.18,-73.81"/>
<polygon fill="midnightblue" stroke="midnightblue" points="835.7,-70.34 825.23,-71.96 834.42,-77.23 835.7,-70.34"/>
</g>
<!-- Node17 -->
<g id="node17" class="node">
<title>Node17</title>
<g id="a_node17"><a xlink:href="Finally_8hpp.html" target="_top" xlink:title=" ">
<polygon fill="white" stroke="black" points="1043,-56.5 1043,-75.5 1126,-75.5 1126,-56.5 1043,-56.5"/>
<text text-anchor="middle" x="1084.5" y="-63.5" font-family="'Consolas',monospace" font-size="10.00">Finally.hpp</text>
</a>
</g>
</g>
<!-- Node16&#45;&gt;Node17 -->
<g id="edge18" class="edge">
<title>Node16&#45;&gt;Node17</title>
<path fill="none" stroke="midnightblue" d="M1088.67,-112.08C1088.02,-105.01 1087.08,-94.86 1086.26,-85.99"/>
<polygon fill="midnightblue" stroke="midnightblue" points="1089.72,-85.39 1085.31,-75.75 1082.75,-86.03 1089.72,-85.39"/>
</g>
<!-- Node17&#45;&gt;Node11 -->
<g id="edge19" class="edge">
<title>Node17&#45;&gt;Node11</title>
<path fill="none" stroke="midnightblue" d="M1077.23,-56.08C1070.96,-48.38 1061.71,-37.03 1054.07,-27.65"/>
<polygon fill="midnightblue" stroke="midnightblue" points="1056.66,-25.29 1047.63,-19.75 1051.23,-29.71 1056.66,-25.29"/>
</g>
<!-- Node19&#45;&gt;Node3 -->
<g id="edge27" class="edge">
<title>Node19&#45;&gt;Node3</title>
<path fill="none" stroke="midnightblue" d="M816.24,-224.42C817.97,-215.4 820.51,-200.77 821.5,-188 824.35,-151.19 812.89,-108.99 805.13,-85.42"/>
<polygon fill="midnightblue" stroke="midnightblue" points="808.36,-84.03 801.79,-75.72 801.74,-86.31 808.36,-84.03"/>
</g>
<!-- Node19&#45;&gt;Node4 -->
<g id="edge28" class="edge">
<title>Node19&#45;&gt;Node4</title>
<path fill="none" stroke="midnightblue" d="M800.36,-224.38C774.4,-208.67 719.93,-176.22 699.5,-168 653.03,-149.31 596.48,-136.49 560.24,-129.45"/>
<polygon fill="midnightblue" stroke="midnightblue" points="560.61,-125.96 550.13,-127.53 559.3,-132.84 560.61,-125.96"/>
</g>
<!-- Node19&#45;&gt;Node20 -->
<g id="edge23" class="edge">
<title>Node19&#45;&gt;Node20</title>
<path fill="none" stroke="midnightblue" d="M849.36,-224.44C887.42,-215.1 948.46,-200.12 989.96,-189.93"/>
<polygon fill="midnightblue" stroke="midnightblue" points="990.93,-193.3 999.8,-187.52 989.26,-186.5 990.93,-193.3"/>
</g>
<!-- Node20&#45;&gt;Node8 -->
<g id="edge26" class="edge">
<title>Node20&#45;&gt;Node8</title>
<path fill="none" stroke="midnightblue" d="M1073.16,-168.44C1117.51,-158.63 1190.01,-142.58 1235.93,-132.42"/>
<polygon fill="midnightblue" stroke="midnightblue" points="1236.87,-135.8 1245.87,-130.22 1235.35,-128.96 1236.87,-135.8"/>
</g>
<!-- Node20&#45;&gt;Node14 -->
<g id="edge24" class="edge">
<title>Node20&#45;&gt;Node14</title>
<path fill="none" stroke="midnightblue" d="M1011.68,-168.44C987.67,-159.44 949.67,-145.19 922.63,-135.05"/>
<polygon fill="midnightblue" stroke="midnightblue" points="923.8,-131.75 913.21,-131.52 921.34,-138.3 923.8,-131.75"/>
</g>
<!-- Node20&#45;&gt;Node16 -->
<g id="edge25" class="edge">
<title>Node20&#45;&gt;Node16</title>
<path fill="none" stroke="midnightblue" d="M1043.58,-168.08C1051.67,-160.14 1063.7,-148.34 1073.41,-138.8"/>
<polygon fill="midnightblue" stroke="midnightblue" points="1075.9,-141.25 1080.59,-131.75 1071,-136.26 1075.9,-141.25"/>
</g>
<!-- Node21&#45;&gt;Node22 -->
<g id="edge30" class="edge">
<title>Node21&#45;&gt;Node22</title>
<path fill="none" stroke="midnightblue" d="M259.5,-224.08C259.5,-217.01 259.5,-206.86 259.5,-197.99"/>
<polygon fill="midnightblue" stroke="midnightblue" points="263,-197.75 259.5,-187.75 256,-197.75 263,-197.75"/>
</g>
<!-- Node23 -->
<g id="node23" class="node">
<title>Node23</title>
<g id="a_node23"><a xlink:href="http://en.cppreference.com/w/cpp/header/sstream.html" xlink:title=" ">
<polygon fill="white" stroke="black" points="409,-112.5 409,-131.5 468,-131.5 468,-112.5 409,-112.5"/>
<text text-anchor="middle" x="438.5" y="-119.5" font-family="'Consolas',monospace" font-size="10.00">sstream</text>
</a>
</g>
</g>
<!-- Node21&#45;&gt;Node23 -->
<g id="edge32" class="edge">
<title>Node21&#45;&gt;Node23</title>
<path fill="none" stroke="midnightblue" d="M244.35,-224.49C223.97,-211.97 192.09,-187.93 208.5,-168 232.16,-139.26 339.54,-128.61 398.84,-124.88"/>
<polygon fill="midnightblue" stroke="midnightblue" points="399.2,-128.36 408.98,-124.28 398.79,-121.38 399.2,-128.36"/>
</g>
<!-- Node22&#45;&gt;Node4 -->
<g id="edge31" class="edge">
<title>Node22&#45;&gt;Node4</title>
<path fill="none" stroke="midnightblue" d="M301.04,-168.5C352.15,-158.05 438.12,-140.46 486.86,-130.49"/>
<polygon fill="midnightblue" stroke="midnightblue" points="487.58,-133.92 496.68,-128.49 486.18,-127.06 487.58,-133.92"/>
</g>
<!-- Node24&#45;&gt;Node3 -->
<g id="edge36" class="edge">
<title>Node24&#45;&gt;Node3</title>
<path fill="none" stroke="midnightblue" d="M1295,-224.3C1305.37,-216.25 1319.39,-203.24 1325.5,-188 1332.54,-170.43 1332.84,-124.31 1320.5,-112 1303.3,-94.85 951.45,-75 835.33,-68.88"/>
<polygon fill="midnightblue" stroke="midnightblue" points="835.33,-65.38 825.16,-68.35 834.96,-72.37 835.33,-65.38"/>
</g>
<!-- Node24&#45;&gt;Node5 -->
<g id="edge34" class="edge">
<title>Node24&#45;&gt;Node5</title>
<path fill="none" stroke="midnightblue" d="M1306.27,-224.44C1331.39,-215.4 1371.21,-201.06 1399.4,-190.92"/>
<polygon fill="midnightblue" stroke="midnightblue" points="1400.62,-194.2 1408.84,-187.52 1398.25,-187.61 1400.62,-194.2"/>
</g>
<!-- Node24&#45;&gt;Node8 -->
<g id="edge35" class="edge">
<title>Node24&#45;&gt;Node8</title>
<path fill="none" stroke="midnightblue" d="M1290.84,-224.4C1301.65,-212.16 1318.34,-188.9 1311.5,-168 1308.01,-157.34 1300.93,-147.12 1294.21,-139.12"/>
<polygon fill="midnightblue" stroke="midnightblue" points="1296.8,-136.76 1287.52,-131.66 1291.6,-141.44 1296.8,-136.76"/>
</g>
<!-- Node25&#45;&gt;Node3 -->
<g id="edge41" class="edge">
<title>Node25&#45;&gt;Node3</title>
<path fill="none" stroke="midnightblue" d="M1240.6,-168.37C1220.09,-152.3 1176.24,-118.82 1158.5,-112 1099.92,-89.47 914.36,-74.74 835.03,-69.33"/>
<polygon fill="midnightblue" stroke="midnightblue" points="835.23,-65.83 825.01,-68.66 834.76,-72.82 835.23,-65.83"/>
</g>
<!-- Node25&#45;&gt;Node8 -->
<g id="edge39" class="edge">
<title>Node25&#45;&gt;Node8</title>
<path fill="none" stroke="midnightblue" d="M1255.96,-168.08C1259.65,-160.69 1265.02,-149.95 1269.59,-140.81"/>
<polygon fill="midnightblue" stroke="midnightblue" points="1272.78,-142.26 1274.12,-131.75 1266.52,-139.13 1272.78,-142.26"/>
</g>
<!-- Node25&#45;&gt;Node17 -->
<g id="edge38" class="edge">
<title>Node25&#45;&gt;Node17</title>
<path fill="none" stroke="midnightblue" d="M1245.56,-168.3C1235.87,-154.67 1215.42,-128.16 1192.5,-112 1171.87,-97.45 1145.8,-86.42 1124.45,-78.92"/>
<polygon fill="midnightblue" stroke="midnightblue" points="1125.3,-75.51 1114.7,-75.62 1123.05,-82.14 1125.3,-75.51"/>
</g>
<!-- Node25&#45;&gt;Node18 -->
<g id="edge40" class="edge">
<title>Node25&#45;&gt;Node18</title>
<path fill="none" stroke="midnightblue" d="M1291.43,-168.44C1335.78,-158.94 1407.38,-143.6 1454.94,-133.41"/>
<polygon fill="midnightblue" stroke="midnightblue" points="1455.95,-136.77 1465,-131.25 1454.48,-129.92 1455.95,-136.77"/>
</g>
<!-- Node26&#45;&gt;Node3 -->
<g id="edge44" class="edge">
<title>Node26&#45;&gt;Node3</title>
<path fill="none" stroke="midnightblue" d="M96.46,-168.38C101.97,-153.84 115.29,-124.77 137.5,-112 191.69,-80.84 630.49,-70.15 761.62,-67.64"/>
<polygon fill="midnightblue" stroke="midnightblue" points="762.01,-71.13 771.94,-67.44 761.87,-64.13 762.01,-71.13"/>
</g>
<!-- Node27&#45;&gt;Node17 -->
<g id="edge46" class="edge">
<title>Node27&#45;&gt;Node17</title>
<path fill="none" stroke="midnightblue" d="M634.06,-224.18C620.59,-211.7 600.09,-188.14 610.5,-168 630.26,-129.77 649.3,-127.36 689.5,-112 750.96,-88.51 939.96,-75.05 1032.44,-69.71"/>
<polygon fill="midnightblue" stroke="midnightblue" points="1032.9,-73.19 1042.69,-69.13 1032.51,-66.2 1032.9,-73.19"/>
</g>
<!-- Node27&#45;&gt;Node28 -->
<g id="edge47" class="edge">
<title>Node27&#45;&gt;Node28</title>
<path fill="none" stroke="midnightblue" d="M646.15,-224.08C647.48,-216.93 649.38,-206.64 651.04,-197.69"/>
<polygon fill="midnightblue" stroke="midnightblue" points="654.5,-198.22 652.88,-187.75 647.62,-196.95 654.5,-198.22"/>
</g>
<!-- Node27&#45;&gt;Node29 -->
<g id="edge51" class="edge">
<title>Node27&#45;&gt;Node29</title>
<path fill="none" stroke="midnightblue" d="M625.33,-224.44C605.59,-215.64 574.61,-201.81 552.01,-191.72"/>
<polygon fill="midnightblue" stroke="midnightblue" points="553.14,-188.4 542.58,-187.52 550.29,-194.79 553.14,-188.4"/>
</g>
<!-- Node28&#45;&gt;Node4 -->
<g id="edge49" class="edge">
<title>Node28&#45;&gt;Node4</title>
<path fill="none" stroke="midnightblue" d="M633.74,-168.44C612.18,-159.56 578.24,-145.56 553.71,-135.45"/>
<polygon fill="midnightblue" stroke="midnightblue" points="554.74,-132.09 544.16,-131.52 552.07,-138.56 554.74,-132.09"/>
</g>
<!-- Node28&#45;&gt;Node12 -->
<g id="edge50" class="edge">
<title>Node28&#45;&gt;Node12</title>
<path fill="none" stroke="midnightblue" d="M665.75,-168.32C676.3,-160.18 692.3,-147.84 704.94,-138.09"/>
<polygon fill="midnightblue" stroke="midnightblue" points="707.27,-140.71 713.05,-131.83 702.99,-135.17 707.27,-140.71"/>
</g>
<!-- Node28&#45;&gt;Node23 -->
<g id="edge48" class="edge">
<title>Node28&#45;&gt;Node23</title>
<path fill="none" stroke="midnightblue" d="M620.27,-168.44C581.56,-158.77 518.63,-143.03 477.9,-132.85"/>
<polygon fill="midnightblue" stroke="midnightblue" points="478.6,-129.42 468.05,-130.39 476.91,-136.21 478.6,-129.42"/>
</g>
<!-- Node29&#45;&gt;Node4 -->
<g id="edge52" class="edge">
<title>Node29&#45;&gt;Node4</title>
<path fill="none" stroke="midnightblue" d="M523.5,-168.08C523.5,-161.01 523.5,-150.86 523.5,-141.99"/>
<polygon fill="midnightblue" stroke="midnightblue" points="527,-141.75 523.5,-131.75 520,-141.75 527,-141.75"/>
</g>
<!-- Node31&#45;&gt;Node8 -->
<g id="edge57" class="edge">
<title>Node31&#45;&gt;Node8</title>
<path fill="none" stroke="midnightblue" d="M1506.69,-224.05C1508,-210.08 1508.25,-183.11 1493.5,-168 1470.03,-143.97 1377.07,-131.7 1321.36,-126.39"/>
<polygon fill="midnightblue" stroke="midnightblue" points="1321.36,-122.87 1311.08,-125.45 1320.72,-129.85 1321.36,-122.87"/>
</g>
<!-- Node32&#45;&gt;Node5 -->
<g id="edge59" class="edge">
<title>Node32&#45;&gt;Node5</title>
<path fill="none" stroke="midnightblue" d="M1414.13,-224.08C1417.11,-216.77 1421.43,-206.18 1425.12,-197.1"/>
<polygon fill="midnightblue" stroke="midnightblue" points="1428.4,-198.33 1428.93,-187.75 1421.92,-195.69 1428.4,-198.33"/>
</g>
<!-- Node32&#45;&gt;Node8 -->
<g id="edge60" class="edge">
<title>Node32&#45;&gt;Node8</title>
<path fill="none" stroke="midnightblue" d="M1431.26,-224.45C1456.96,-212.65 1495.31,-190.28 1477.5,-168 1458.32,-144 1373.79,-131.87 1321.26,-126.54"/>
<polygon fill="midnightblue" stroke="midnightblue" points="1321.5,-123.04 1311.21,-125.56 1320.82,-130.01 1321.5,-123.04"/>
</g>
<!-- Node33&#45;&gt;Node4 -->
<g id="edge62" class="edge">
<title>Node33&#45;&gt;Node4</title>
<path fill="none" stroke="midnightblue" d="M446.28,-168.32C460.77,-159.82 483.07,-146.73 499.99,-136.8"/>
<polygon fill="midnightblue" stroke="midnightblue" points="501.9,-139.74 508.76,-131.65 498.36,-133.7 501.9,-139.74"/>
</g>
<!-- Node34&#45;&gt;Node3 -->
<g id="edge66" class="edge">
<title>Node34&#45;&gt;Node3</title>
<path fill="none" stroke="midnightblue" d="M780.99,-168.37C784.06,-150.62 791.13,-109.67 795.29,-85.6"/>
<polygon fill="midnightblue" stroke="midnightblue" points="798.76,-86.04 797.02,-75.59 791.86,-84.85 798.76,-86.04"/>
</g>
<!-- Node34&#45;&gt;Node4 -->
<g id="edge67" class="edge">
<title>Node34&#45;&gt;Node4</title>
<path fill="none" stroke="midnightblue" d="M746.82,-170.11C699,-160.02 610.23,-141.29 560.22,-130.75"/>
<polygon fill="midnightblue" stroke="midnightblue" points="560.67,-127.26 550.16,-128.62 559.22,-134.11 560.67,-127.26"/>
</g>
<!-- Node34&#45;&gt;Node12 -->
<g id="edge68" class="edge">
<title>Node34&#45;&gt;Node12</title>
<path fill="none" stroke="midnightblue" d="M770.42,-168.08C762.33,-160.14 750.3,-148.34 740.59,-138.8"/>
<polygon fill="midnightblue" stroke="midnightblue" points="743,-136.26 733.41,-131.75 738.1,-141.25 743,-136.26"/>
</g>
<!-- Node34&#45;&gt;Node14 -->
<g id="edge65" class="edge">
<title>Node34&#45;&gt;Node14</title>
<path fill="none" stroke="midnightblue" d="M797.33,-168.32C815.22,-159.62 842.98,-146.12 863.55,-136.11"/>
<polygon fill="midnightblue" stroke="midnightblue" points="865.25,-139.18 872.71,-131.65 862.19,-132.88 865.25,-139.18"/>
</g>
<!-- Node36&#45;&gt;Node3 -->
<g id="edge73" class="edge">
<title>Node36&#45;&gt;Node3</title>
<path fill="none" stroke="midnightblue" d="M158.29,-224.49C164.89,-210.64 179.78,-183.23 200.5,-168 265.61,-120.13 294.45,-128.79 373.5,-112 514.97,-81.96 687.39,-71.57 761.62,-68.33"/>
<polygon fill="midnightblue" stroke="midnightblue" points="762,-71.82 771.84,-67.9 761.7,-64.83 762,-71.82"/>
</g>
<!-- Node36&#45;&gt;Node26 -->
<g id="edge72" class="edge">
<title>Node36&#45;&gt;Node26</title>
<path fill="none" stroke="midnightblue" d="M144.7,-224.32C135.68,-216.34 122.09,-204.31 111.18,-194.65"/>
<polygon fill="midnightblue" stroke="midnightblue" points="113.29,-191.84 103.48,-187.83 108.65,-197.08 113.29,-191.84"/>
</g>
</g>
</svg>
