<?xml version="1.0" encoding="UTF-8" standalone="no"?>
<!DOCTYPE svg PUBLIC "-//W3C//DTD SVG 1.1//EN"
 "http://www.w3.org/Graphics/SVG/1.1/DTD/svg11.dtd">
<!-- Generated by graphviz version 2.40.1 (0)
 -->
<!-- Title: jngl/all.hpp Pages: 1 -->
<svg width="1769pt" height="308pt"
 viewBox="0.00 0.00 1769.00 308.00" xmlns="http://www.w3.org/2000/svg" xmlns:xlink="http://www.w3.org/1999/xlink">
<g id="graph0" class="graph" transform="scale(1 1) rotate(0) translate(4 304)">
<title>jngl/all.hpp</title>
<polygon fill="#ffffff" stroke="transparent" points="-4,4 -4,-304 1765,-304 1765,4 -4,4"/>
<!-- Node0 -->
<g id="node1" class="node">
<title>Node0</title>
<g id="a_node1"><a xlink:title="Includes all JNGL headers.">
<polygon fill="#bfbfbf" stroke="#000000" points="834,-280.5 834,-299.5 923,-299.5 923,-280.5 834,-280.5"/>
<text text-anchor="middle" x="878.5" y="-287.5" font-family="'Consolas',monospace" font-size="10.00" fill="#000000">jngl/all.hpp</text>
</a>
</g>
</g>
<!-- Node1 -->
<g id="node2" class="node">
<title>Node1</title>
<g id="a_node2"><a xlink:href="App_8hpp.html" target="_top" xlink:title=" ">
<polygon fill="#ffffff" stroke="#000000" points="319,-168.5 319,-187.5 378,-187.5 378,-168.5 319,-168.5"/>
<text text-anchor="middle" x="348.5" y="-175.5" font-family="'Consolas',monospace" font-size="10.00" fill="#000000">App.hpp</text>
</a>
</g>
</g>
<!-- Node0&#45;&gt;Node1 -->
<g id="edge1" class="edge">
<title>Node0&#45;&gt;Node1</title>
<path fill="none" stroke="#191970" d="M833.8633,-288.0906C764.2235,-284.2892 625.9412,-273.428 512.5,-244 463.231,-231.219 408.9701,-207.2989 376.8623,-192.036"/>
<polygon fill="#191970" stroke="#191970" points="378.1678,-188.7802 367.639,-187.5991 375.1333,-195.0883 378.1678,-188.7802"/>
</g>
<!-- Node4 -->
<g id="node5" class="node">
<title>Node4</title>
<g id="a_node5"><a xlink:href="Color_8hpp.html" target="_top" xlink:title=" ">
<polygon fill="#ffffff" stroke="#000000" points="1397,-168.5 1397,-187.5 1468,-187.5 1468,-168.5 1397,-168.5"/>
<text text-anchor="middle" x="1432.5" y="-175.5" font-family="'Consolas',monospace" font-size="10.00" fill="#000000">Color.hpp</text>
</a>
</g>
</g>
<!-- Node0&#45;&gt;Node4 -->
<g id="edge4" class="edge">
<title>Node0&#45;&gt;Node4</title>
<path fill="none" stroke="#191970" d="M923.3343,-287.8972C1021.1703,-282.9014 1250.9345,-268.842 1324.5,-244 1342.1921,-238.0256 1383.9961,-210.8929 1410.0975,-193.3297"/>
<polygon fill="#191970" stroke="#191970" points="1412.2912,-196.0713 1418.6098,-187.5668 1408.3668,-190.2747 1412.2912,-196.0713"/>
</g>
<!-- Node5 -->
<g id="node6" class="node">
<title>Node5</title>
<g id="a_node6"><a xlink:href="Controller_8hpp.html" target="_top" xlink:title=" ">
<polygon fill="#ffffff" stroke="#000000" points="983,-224.5 983,-243.5 1084,-243.5 1084,-224.5 983,-224.5"/>
<text text-anchor="middle" x="1033.5" y="-231.5" font-family="'Consolas',monospace" font-size="10.00" fill="#000000">Controller.hpp</text>
</a>
</g>
</g>
<!-- Node0&#45;&gt;Node5 -->
<g id="edge5" class="edge">
<title>Node0&#45;&gt;Node5</title>
<path fill="none" stroke="#191970" d="M905.1454,-280.3733C930.6964,-271.1419 969.4512,-257.1402 997.6909,-246.9375"/>
<polygon fill="#191970" stroke="#191970" points="998.9865,-250.1909 1007.2022,-243.5011 996.6079,-243.6074 998.9865,-250.1909"/>
</g>
<!-- Node6 -->
<g id="node7" class="node">
<title>Node6</title>
<g id="a_node7"><a xlink:href="input_8hpp.html" target="_top" xlink:title=" ">
<polygon fill="#ffffff" stroke="#000000" points="907,-168.5 907,-187.5 978,-187.5 978,-168.5 907,-168.5"/>
<text text-anchor="middle" x="942.5" y="-175.5" font-family="'Consolas',monospace" font-size="10.00" fill="#000000">input.hpp</text>
</a>
</g>
</g>
<!-- Node0&#45;&gt;Node6 -->
<g id="edge42" class="edge">
<title>Node0&#45;&gt;Node6</title>
<path fill="none" stroke="#191970" d="M883.9566,-280.4509C894.5838,-261.8533 918.2189,-220.4919 931.9878,-196.3964"/>
<polygon fill="#191970" stroke="#191970" points="935.1346,-197.9438 937.0572,-187.5249 929.0569,-194.4708 935.1346,-197.9438"/>
</g>
<!-- Node13 -->
<g id="node14" class="node">
<title>Node13</title>
<g id="a_node14"><a xlink:href="Drawable_8hpp.html" target="_top" xlink:title="Contains Drawable class.">
<polygon fill="#ffffff" stroke="#000000" points="846,-112.5 846,-131.5 935,-131.5 935,-112.5 846,-112.5"/>
<text text-anchor="middle" x="890.5" y="-119.5" font-family="'Consolas',monospace" font-size="10.00" fill="#000000">Drawable.hpp</text>
</a>
</g>
</g>
<!-- Node0&#45;&gt;Node13 -->
<g id="edge14" class="edge">
<title>Node0&#45;&gt;Node13</title>
<path fill="none" stroke="#191970" d="M879.1796,-280.4862C881.0765,-253.9293 886.4596,-178.5651 889.0596,-142.1655"/>
<polygon fill="#191970" stroke="#191970" points="892.5766,-142.0519 889.798,-131.8279 885.5943,-141.5531 892.5766,-142.0519"/>
</g>
<!-- Node14 -->
<g id="node15" class="node">
<title>Node14</title>
<g id="a_node15"><a xlink:href="Shader_8hpp.html" target="_top" xlink:title=" ">
<polygon fill="#ffffff" stroke="#000000" points="0,-112.5 0,-131.5 77,-131.5 77,-112.5 0,-112.5"/>
<text text-anchor="middle" x="38.5" y="-119.5" font-family="'Consolas',monospace" font-size="10.00" fill="#000000">Shader.hpp</text>
</a>
</g>
</g>
<!-- Node0&#45;&gt;Node14 -->
<g id="edge15" class="edge">
<title>Node0&#45;&gt;Node14</title>
<path fill="none" stroke="#191970" d="M833.7665,-289.5797C677.2723,-287.8086 160.3367,-279.3154 95.5,-244 58.1637,-223.6635 45.1088,-170.6532 40.6787,-141.654"/>
<polygon fill="#191970" stroke="#191970" points="44.1175,-140.961 39.3338,-131.5076 37.1782,-141.8808 44.1175,-140.961"/>
</g>
<!-- Node15 -->
<g id="node16" class="node">
<title>Node15</title>
<g id="a_node16"><a xlink:href="ShaderProgram_8hpp.html" target="_top" xlink:title=" ">
<polygon fill="#ffffff" stroke="#000000" points="1030,-112.5 1030,-131.5 1149,-131.5 1149,-112.5 1030,-112.5"/>
<text text-anchor="middle" x="1089.5" y="-119.5" font-family="'Consolas',monospace" font-size="10.00" fill="#000000">ShaderProgram.hpp</text>
</a>
</g>
</g>
<!-- Node0&#45;&gt;Node15 -->
<g id="edge17" class="edge">
<title>Node0&#45;&gt;Node15</title>
<path fill="none" stroke="#191970" d="M923.2604,-287.402C968.4641,-283.2233 1039.1826,-272.3371 1093.5,-244 1131.6553,-224.0946 1173.1358,-206.2947 1153.5,-168 1146.567,-154.4789 1133.6064,-144.0326 1121.1519,-136.5377"/>
<polygon fill="#191970" stroke="#191970" points="1122.7072,-133.3979 1112.266,-131.6001 1119.3072,-139.5168 1122.7072,-133.3979"/>
</g>
<!-- Node17 -->
<g id="node18" class="node">
<title>Node17</title>
<g id="a_node18"><a xlink:href="Vertex_8hpp.html" target="_top" xlink:title=" ">
<polygon fill="#ffffff" stroke="#000000" points="1465,-112.5 1465,-131.5 1542,-131.5 1542,-112.5 1465,-112.5"/>
<text text-anchor="middle" x="1503.5" y="-119.5" font-family="'Consolas',monospace" font-size="10.00" fill="#000000">Vertex.hpp</text>
</a>
</g>
</g>
<!-- Node0&#45;&gt;Node17 -->
<g id="edge21" class="edge">
<title>Node0&#45;&gt;Node17</title>
<path fill="none" stroke="#191970" d="M923.2373,-288.6133C1070.4947,-283.8344 1531.9508,-267.0677 1553.5,-244 1581.841,-213.6618 1544.9267,-165.0744 1520.9956,-139.3243"/>
<polygon fill="#191970" stroke="#191970" points="1523.2343,-136.6027 1513.7812,-131.8184 1518.1876,-141.4535 1523.2343,-136.6027"/>
</g>
<!-- Node18 -->
<g id="node19" class="node">
<title>Node18</title>
<g id="a_node19"><a xlink:href="Video_8hpp.html" target="_top" xlink:title=" ">
<polygon fill="#ffffff" stroke="#000000" points="779,-224.5 779,-243.5 850,-243.5 850,-224.5 779,-224.5"/>
<text text-anchor="middle" x="814.5" y="-231.5" font-family="'Consolas',monospace" font-size="10.00" fill="#000000">Video.hpp</text>
</a>
</g>
</g>
<!-- Node0&#45;&gt;Node18 -->
<g id="edge22" class="edge">
<title>Node0&#45;&gt;Node18</title>
<path fill="none" stroke="#191970" d="M867.3521,-280.2455C857.9913,-272.0549 844.4142,-260.1749 833.3651,-250.5069"/>
<polygon fill="#191970" stroke="#191970" points="835.3508,-247.5937 825.5202,-243.6427 830.7412,-252.8618 835.3508,-247.5937"/>
</g>
<!-- Node19 -->
<g id="node20" class="node">
<title>Node19</title>
<g id="a_node20"><a xlink:href="sprite_8hpp_source.html" target="_top" xlink:title=" ">
<polygon fill="#ffffff" stroke="#000000" points="996,-168.5 996,-187.5 1073,-187.5 1073,-168.5 996,-168.5"/>
<text text-anchor="middle" x="1034.5" y="-175.5" font-family="'Consolas',monospace" font-size="10.00" fill="#000000">sprite.hpp</text>
</a>
</g>
</g>
<!-- Node0&#45;&gt;Node19 -->
<g id="edge63" class="edge">
<title>Node0&#45;&gt;Node19</title>
<path fill="none" stroke="#191970" d="M891.8005,-280.4509C918.7404,-261.1094 979.9745,-217.1465 1012.7848,-193.5904"/>
<polygon fill="#191970" stroke="#191970" points="1015.1512,-196.2001 1021.2332,-187.5249 1011.0687,-190.5139 1015.1512,-196.2001"/>
</g>
<!-- Node20 -->
<g id="node21" class="node">
<title>Node20</title>
<g id="a_node21"><a xlink:href="debug_8hpp_source.html" target="_top" xlink:title=" ">
<polygon fill="#ffffff" stroke="#000000" points="224,-224.5 224,-243.5 295,-243.5 295,-224.5 224,-224.5"/>
<text text-anchor="middle" x="259.5" y="-231.5" font-family="'Consolas',monospace" font-size="10.00" fill="#000000">debug.hpp</text>
</a>
</g>
</g>
<!-- Node0&#45;&gt;Node20 -->
<g id="edge29" class="edge">
<title>Node0&#45;&gt;Node20</title>
<path fill="none" stroke="#191970" d="M833.934,-287.9783C738.1579,-283.2826 505.7153,-270.0057 312.5,-244 310.0234,-243.6667 307.4871,-243.2941 304.9306,-242.8942"/>
<polygon fill="#191970" stroke="#191970" points="305.4935,-239.4398 295.0529,-241.241 304.3379,-246.3438 305.4935,-239.4398"/>
</g>
<!-- Node21 -->
<g id="node22" class="node">
<title>Node21</title>
<g id="a_node22"><a xlink:href="message_8hpp.html" target="_top" xlink:title=" ">
<polygon fill="#ffffff" stroke="#000000" points="218,-168.5 218,-187.5 301,-187.5 301,-168.5 218,-168.5"/>
<text text-anchor="middle" x="259.5" y="-175.5" font-family="'Consolas',monospace" font-size="10.00" fill="#000000">message.hpp</text>
</a>
</g>
</g>
<!-- Node0&#45;&gt;Node21 -->
<g id="edge54" class="edge">
<title>Node0&#45;&gt;Node21</title>
<path fill="none" stroke="#191970" d="M833.6916,-288.5833C754.8943,-285.3467 586.7561,-275.1011 448.5,-244 391.3824,-231.1512 327.6018,-206.636 290.6563,-191.3703"/>
<polygon fill="#191970" stroke="#191970" points="291.995,-188.1365 281.4185,-187.5143 289.2986,-194.5963 291.995,-188.1365"/>
</g>
<!-- Node23 -->
<g id="node24" class="node">
<title>Node23</title>
<g id="a_node24"><a xlink:href="font_8hpp.html" target="_top" xlink:title=" ">
<polygon fill="#ffffff" stroke="#000000" points="1250,-224.5 1250,-243.5 1315,-243.5 1315,-224.5 1250,-224.5"/>
<text text-anchor="middle" x="1282.5" y="-231.5" font-family="'Consolas',monospace" font-size="10.00" fill="#000000">font.hpp</text>
</a>
</g>
</g>
<!-- Node0&#45;&gt;Node23 -->
<g id="edge33" class="edge">
<title>Node0&#45;&gt;Node23</title>
<path fill="none" stroke="#191970" d="M923.0777,-285.044C990.0098,-277.4063 1120.3726,-261.7686 1230.5,-244 1233.5333,-243.5106 1236.6609,-242.9785 1239.8065,-242.4233"/>
<polygon fill="#191970" stroke="#191970" points="1240.6123,-245.8341 1249.821,-240.5948 1239.3549,-238.9479 1240.6123,-245.8341"/>
</g>
<!-- Node24 -->
<g id="node25" class="node">
<title>Node24</title>
<g id="a_node25"><a xlink:href="framebuffer_8hpp_source.html" target="_top" xlink:title=" ">
<polygon fill="#ffffff" stroke="#000000" points="1201,-168.5 1201,-187.5 1302,-187.5 1302,-168.5 1201,-168.5"/>
<text text-anchor="middle" x="1251.5" y="-175.5" font-family="'Consolas',monospace" font-size="10.00" fill="#000000">framebuffer.hpp</text>
</a>
</g>
</g>
<!-- Node0&#45;&gt;Node24 -->
<g id="edge37" class="edge">
<title>Node0&#45;&gt;Node24</title>
<path fill="none" stroke="#191970" d="M923.1518,-286.8189C997.1,-280.9764 1141.3246,-266.9842 1186.5,-244 1208.5471,-232.783 1227.5658,-211.2192 1239.2364,-195.7913"/>
<polygon fill="#191970" stroke="#191970" points="1242.1832,-197.6897 1245.226,-187.5412 1236.5187,-193.5772 1242.1832,-197.6897"/>
</g>
<!-- Node25 -->
<g id="node26" class="node">
<title>Node25</title>
<g id="a_node26"><a xlink:href="job_8hpp.html" target="_top" xlink:title=" ">
<polygon fill="#ffffff" stroke="#000000" points="64,-168.5 64,-187.5 123,-187.5 123,-168.5 64,-168.5"/>
<text text-anchor="middle" x="93.5" y="-175.5" font-family="'Consolas',monospace" font-size="10.00" fill="#000000">job.hpp</text>
</a>
</g>
</g>
<!-- Node0&#45;&gt;Node25 -->
<g id="edge43" class="edge">
<title>Node0&#45;&gt;Node25</title>
<path fill="none" stroke="#191970" d="M833.9297,-288.7361C674.5432,-284.0344 140.7886,-266.654 112.5,-244 99.0018,-233.1904 94.6997,-213.4457 93.5063,-198.3593"/>
<polygon fill="#191970" stroke="#191970" points="96.9876,-197.8111 93.0988,-187.9557 89.9929,-198.0851 96.9876,-197.8111"/>
</g>
<!-- Node26 -->
<g id="node27" class="node">
<title>Node26</title>
<g id="a_node27"><a xlink:href="main_8hpp_source.html" target="_top" xlink:title=" ">
<polygon fill="#ffffff" stroke="#000000" points="612,-224.5 612,-243.5 677,-243.5 677,-224.5 612,-224.5"/>
<text text-anchor="middle" x="644.5" y="-231.5" font-family="'Consolas',monospace" font-size="10.00" fill="#000000">main.hpp</text>
</a>
</g>
</g>
<!-- Node0&#45;&gt;Node26 -->
<g id="edge45" class="edge">
<title>Node0&#45;&gt;Node26</title>
<path fill="none" stroke="#191970" d="M838.5398,-280.4369C796.3648,-270.3437 730.1475,-254.4968 687.0268,-244.1774"/>
<polygon fill="#191970" stroke="#191970" points="687.6657,-240.7315 677.1256,-241.8078 686.0364,-247.5392 687.6657,-240.7315"/>
</g>
<!-- Node27 -->
<g id="node28" class="node">
<title>Node27</title>
<g id="a_node28"><a xlink:href="other_8hpp.html" target="_top" xlink:title=" ">
<polygon fill="#ffffff" stroke="#000000" points="619,-168.5 619,-187.5 690,-187.5 690,-168.5 619,-168.5"/>
<text text-anchor="middle" x="654.5" y="-175.5" font-family="'Consolas',monospace" font-size="10.00" fill="#000000">other.hpp</text>
</a>
</g>
</g>
<!-- Node0&#45;&gt;Node27 -->
<g id="edge55" class="edge">
<title>Node0&#45;&gt;Node27</title>
<path fill="none" stroke="#191970" d="M849.7291,-280.4677C825.4334,-272.0236 789.9899,-258.7692 760.5,-244 730.2762,-228.8633 697.5458,-207.6807 676.5748,-193.4326"/>
<polygon fill="#191970" stroke="#191970" points="678.3091,-190.3779 668.0836,-187.6048 674.3479,-196.1493 678.3091,-190.3779"/>
</g>
<!-- Node28 -->
<g id="node29" class="node">
<title>Node28</title>
<g id="a_node29"><a xlink:href="window_8hpp.html" target="_top" xlink:title="Functions related to the main window.">
<polygon fill="#ffffff" stroke="#000000" points="485,-168.5 485,-187.5 562,-187.5 562,-168.5 485,-168.5"/>
<text text-anchor="middle" x="523.5" y="-175.5" font-family="'Consolas',monospace" font-size="10.00" fill="#000000">window.hpp</text>
</a>
</g>
</g>
<!-- Node0&#45;&gt;Node28 -->
<g id="edge70" class="edge">
<title>Node0&#45;&gt;Node28</title>
<path fill="none" stroke="#191970" d="M833.9999,-285.3941C767.0095,-277.9851 643.8009,-262.3741 603.5,-244 578.1089,-232.4236 554.1403,-210.6739 539.178,-195.3118"/>
<polygon fill="#191970" stroke="#191970" points="541.6288,-192.8094 532.2149,-187.9484 536.5427,-197.619 541.6288,-192.8094"/>
</g>
<!-- Node29 -->
<g id="node30" class="node">
<title>Node29</title>
<g id="a_node30"><a xlink:href="matrix_8hpp_source.html" target="_top" xlink:title=" ">
<polygon fill="#ffffff" stroke="#000000" points="1601,-224.5 1601,-243.5 1678,-243.5 1678,-224.5 1601,-224.5"/>
<text text-anchor="middle" x="1639.5" y="-231.5" font-family="'Consolas',monospace" font-size="10.00" fill="#000000">matrix.hpp</text>
</a>
</g>
</g>
<!-- Node0&#45;&gt;Node29 -->
<g id="edge53" class="edge">
<title>Node0&#45;&gt;Node29</title>
<path fill="none" stroke="#191970" d="M923.4106,-288.9761C1035.6363,-286.0067 1337.2033,-275.4986 1586.5,-244 1587.9515,-243.8166 1589.4233,-243.6183 1590.9075,-243.4077"/>
<polygon fill="#191970" stroke="#191970" points="1591.4578,-246.8643 1600.7987,-241.8645 1590.3787,-239.9479 1591.4578,-246.8643"/>
</g>
<!-- Node30 -->
<g id="node31" class="node">
<title>Node30</title>
<g id="a_node31"><a xlink:href="screen_8hpp.html" target="_top" xlink:title=" ">
<polygon fill="#ffffff" stroke="#000000" points="1467,-224.5 1467,-243.5 1544,-243.5 1544,-224.5 1467,-224.5"/>
<text text-anchor="middle" x="1505.5" y="-231.5" font-family="'Consolas',monospace" font-size="10.00" fill="#000000">screen.hpp</text>
</a>
</g>
</g>
<!-- Node0&#45;&gt;Node30 -->
<g id="edge56" class="edge">
<title>Node0&#45;&gt;Node30</title>
<path fill="none" stroke="#191970" d="M923.1071,-288.447C1019.0807,-284.6787 1252.4013,-273.2282 1456.8237,-244.0885"/>
<polygon fill="#191970" stroke="#191970" points="1457.4458,-247.5351 1466.8433,-242.6426 1456.4459,-240.6069 1457.4458,-247.5351"/>
</g>
<!-- Node31 -->
<g id="node32" class="node">
<title>Node31</title>
<g id="a_node32"><a xlink:href="shapes_8hpp.html" target="_top" xlink:title="Functions for drawing shapes.">
<polygon fill="#ffffff" stroke="#000000" points="1372,-224.5 1372,-243.5 1449,-243.5 1449,-224.5 1372,-224.5"/>
<text text-anchor="middle" x="1410.5" y="-231.5" font-family="'Consolas',monospace" font-size="10.00" fill="#000000">shapes.hpp</text>
</a>
</g>
</g>
<!-- Node0&#45;&gt;Node31 -->
<g id="edge58" class="edge">
<title>Node0&#45;&gt;Node31</title>
<path fill="none" stroke="#191970" d="M923.2356,-287.0654C1008.1641,-281.1928 1198.4864,-266.5891 1357.5,-244 1358.9485,-243.7942 1360.4177,-243.5763 1361.8996,-243.3485"/>
<polygon fill="#191970" stroke="#191970" points="1362.4797,-246.8002 1371.78,-241.7255 1361.3449,-239.8928 1362.4797,-246.8002"/>
</g>
<!-- Node32 -->
<g id="node33" class="node">
<title>Node32</title>
<g id="a_node33"><a xlink:href="sound_8hpp_source.html" target="_top" xlink:title=" ">
<polygon fill="#ffffff" stroke="#000000" points="396,-168.5 396,-187.5 467,-187.5 467,-168.5 396,-168.5"/>
<text text-anchor="middle" x="431.5" y="-175.5" font-family="'Consolas',monospace" font-size="10.00" fill="#000000">sound.hpp</text>
</a>
</g>
</g>
<!-- Node0&#45;&gt;Node32 -->
<g id="edge61" class="edge">
<title>Node0&#45;&gt;Node32</title>
<path fill="none" stroke="#191970" d="M833.7823,-287.6654C772.5048,-283.5094 659.551,-272.4071 567.5,-244 526.6274,-231.3867 482.6732,-208.0821 456.1283,-192.8122"/>
<polygon fill="#191970" stroke="#191970" points="457.5749,-189.6039 447.1742,-187.5847 454.0456,-195.6491 457.5749,-189.6039"/>
</g>
<!-- Node33 -->
<g id="node34" class="node">
<title>Node33</title>
<g id="a_node34"><a xlink:href="text_8hpp.html" target="_top" xlink:title=" ">
<polygon fill="#ffffff" stroke="#000000" points="747,-168.5 747,-187.5 812,-187.5 812,-168.5 747,-168.5"/>
<text text-anchor="middle" x="779.5" y="-175.5" font-family="'Consolas',monospace" font-size="10.00" fill="#000000">text.hpp</text>
</a>
</g>
</g>
<!-- Node0&#45;&gt;Node33 -->
<g id="edge64" class="edge">
<title>Node0&#45;&gt;Node33</title>
<path fill="none" stroke="#191970" d="M833.9131,-282.9601C810.8347,-276.8087 784.6037,-265.3368 770.5,-244 761.3661,-230.1818 765.2707,-211.165 770.4828,-197.0929"/>
<polygon fill="#191970" stroke="#191970" points="773.7126,-198.4412 774.3414,-187.865 767.2544,-195.7407 773.7126,-198.4412"/>
</g>
<!-- Node34 -->
<g id="node35" class="node">
<title>Node34</title>
<g id="a_node35"><a xlink:href="time_8hpp.html" target="_top" xlink:title=" ">
<polygon fill="#ffffff" stroke="#000000" points="1696,-224.5 1696,-243.5 1761,-243.5 1761,-224.5 1696,-224.5"/>
<text text-anchor="middle" x="1728.5" y="-231.5" font-family="'Consolas',monospace" font-size="10.00" fill="#000000">time.hpp</text>
</a>
</g>
</g>
<!-- Node0&#45;&gt;Node34 -->
<g id="edge69" class="edge">
<title>Node0&#45;&gt;Node34</title>
<path fill="none" stroke="#191970" d="M923.1079,-288.537C1067.0475,-283.6514 1519.0366,-266.9799 1685.8361,-243.9651"/>
<polygon fill="#191970" stroke="#191970" points="1686.5336,-247.4008 1695.9326,-242.5112 1685.5358,-240.4723 1686.5336,-247.4008"/>
</g>
<!-- Node35 -->
<g id="node36" class="node">
<title>Node35</title>
<g id="a_node36"><a xlink:href="work_8hpp.html" target="_top" xlink:title=" ">
<polygon fill="#ffffff" stroke="#000000" points="122,-224.5 122,-243.5 187,-243.5 187,-224.5 122,-224.5"/>
<text text-anchor="middle" x="154.5" y="-231.5" font-family="'Consolas',monospace" font-size="10.00" fill="#000000">work.hpp</text>
</a>
</g>
</g>
<!-- Node0&#45;&gt;Node35 -->
<g id="edge71" class="edge">
<title>Node0&#45;&gt;Node35</title>
<path fill="none" stroke="#191970" d="M833.6734,-288.3808C726.4098,-284.1829 446.606,-271.3181 214.5,-244 208.9283,-243.3442 203.0852,-242.53 197.3233,-241.6513"/>
<polygon fill="#191970" stroke="#191970" points="197.5427,-238.142 187.1157,-240.0203 196.4382,-245.0543 197.5427,-238.142"/>
</g>
<!-- Node2 -->
<g id="node3" class="node">
<title>Node2</title>
<g id="a_node3"><a doxygen="/w/doc/cppreference-doxygen-web.tag.xml:http://en.cppreference.com/w/" xlink:href="http://en.cppreference.com/w/cpp/header/memory.html" xlink:title=" ">
<polygon fill="#ffffff" stroke="#000000" points="772,-56.5 772,-75.5 825,-75.5 825,-56.5 772,-56.5"/>
<text text-anchor="middle" x="798.5" y="-63.5" font-family="'Consolas',monospace" font-size="10.00" fill="#000000">memory</text>
</a>
</g>
</g>
<!-- Node1&#45;&gt;Node2 -->
<g id="edge2" class="edge">
<title>Node1&#45;&gt;Node2</title>
<path fill="none" stroke="#191970" d="M352.965,-168.38C360.4547,-153.4567 377.0653,-125.0862 400.5,-112 462.005,-77.6549 675.3405,-68.8615 761.7408,-66.6868"/>
<polygon fill="#191970" stroke="#191970" points="761.9545,-70.1829 771.8691,-66.4479 761.7893,-63.1848 761.9545,-70.1829"/>
</g>
<!-- Node3 -->
<g id="node4" class="node">
<title>Node3</title>
<g id="a_node4"><a doxygen="/w/doc/cppreference-doxygen-web.tag.xml:http://en.cppreference.com/w/" xlink:href="http://en.cppreference.com/w/cpp/header/string.html" xlink:title=" ">
<polygon fill="#ffffff" stroke="#000000" points="497,-112.5 497,-131.5 550,-131.5 550,-112.5 497,-112.5"/>
<text text-anchor="middle" x="523.5" y="-119.5" font-family="'Consolas',monospace" font-size="10.00" fill="#000000">string</text>
</a>
</g>
</g>
<!-- Node1&#45;&gt;Node3 -->
<g id="edge3" class="edge">
<title>Node1&#45;&gt;Node3</title>
<path fill="none" stroke="#191970" d="M378.1864,-168.5004C408.192,-158.8986 454.6154,-144.0431 486.8861,-133.7164"/>
<polygon fill="#191970" stroke="#191970" points="488.3701,-136.9165 496.8276,-130.5352 486.2366,-130.2495 488.3701,-136.9165"/>
</g>
<!-- Node5&#45;&gt;Node6 -->
<g id="edge6" class="edge">
<title>Node5&#45;&gt;Node6</title>
<path fill="none" stroke="#191970" d="M1017.649,-224.2455C1003.6868,-215.6534 983.1272,-203.0014 967.0404,-193.1018"/>
<polygon fill="#191970" stroke="#191970" points="968.5203,-189.9029 958.1693,-187.6427 964.8516,-195.8645 968.5203,-189.9029"/>
</g>
<!-- Node12 -->
<g id="node13" class="node">
<title>Node12</title>
<g id="a_node13"><a doxygen="/w/doc/cppreference-doxygen-web.tag.xml:http://en.cppreference.com/w/" xlink:href="http://en.cppreference.com/w/cpp/header/chrono.html" xlink:title=" ">
<polygon fill="#ffffff" stroke="#000000" points="1091,-168.5 1091,-187.5 1144,-187.5 1144,-168.5 1091,-168.5"/>
<text text-anchor="middle" x="1117.5" y="-175.5" font-family="'Consolas',monospace" font-size="10.00" fill="#000000">chrono</text>
</a>
</g>
</g>
<!-- Node5&#45;&gt;Node12 -->
<g id="edge13" class="edge">
<title>Node5&#45;&gt;Node12</title>
<path fill="none" stroke="#191970" d="M1048.1317,-224.2455C1060.8994,-215.7337 1079.6438,-203.2375 1094.4299,-193.3801"/>
<polygon fill="#191970" stroke="#191970" points="1096.6569,-196.1019 1103.036,-187.6427 1092.774,-190.2775 1096.6569,-196.1019"/>
</g>
<!-- Node6&#45;&gt;Node2 -->
<g id="edge11" class="edge">
<title>Node6&#45;&gt;Node2</title>
<path fill="none" stroke="#191970" d="M946.1507,-168.4026C950.7568,-154.509 956.7031,-128.6393 944.5,-112 931.4432,-94.1967 873.8335,-80.1261 835.0035,-72.4424"/>
<polygon fill="#191970" stroke="#191970" points="835.5697,-68.9872 825.0888,-70.5374 834.2488,-75.8615 835.5697,-68.9872"/>
</g>
<!-- Node7 -->
<g id="node8" class="node">
<title>Node7</title>
<g id="a_node8"><a xlink:href="Vec2_8hpp.html" target="_top" xlink:title=" ">
<polygon fill="#ffffff" stroke="#000000" points="1246,-112.5 1246,-131.5 1311,-131.5 1311,-112.5 1246,-112.5"/>
<text text-anchor="middle" x="1278.5" y="-119.5" font-family="'Consolas',monospace" font-size="10.00" fill="#000000">Vec2.hpp</text>
</a>
</g>
</g>
<!-- Node6&#45;&gt;Node7 -->
<g id="edge7" class="edge">
<title>Node6&#45;&gt;Node7</title>
<path fill="none" stroke="#191970" d="M978.32,-169.8303C981.42,-169.1869 984.5123,-168.5676 987.5,-168 1075.2512,-151.3307 1178.6945,-135.9982 1235.5877,-127.9354"/>
<polygon fill="#191970" stroke="#191970" points="1236.2416,-131.3779 1245.6549,-126.5158 1235.2641,-124.4465 1236.2416,-131.3779"/>
</g>
<!-- Node10 -->
<g id="node11" class="node">
<title>Node10</title>
<g id="a_node11"><a doxygen="/w/doc/cppreference-doxygen-web.tag.xml:http://en.cppreference.com/w/" xlink:href="http://en.cppreference.com/w/cpp/header/functional.html" xlink:title=" ">
<polygon fill="#ffffff" stroke="#000000" points="1002,-.5 1002,-19.5 1079,-19.5 1079,-.5 1002,-.5"/>
<text text-anchor="middle" x="1040.5" y="-7.5" font-family="'Consolas',monospace" font-size="10.00" fill="#000000">functional</text>
</a>
</g>
</g>
<!-- Node6&#45;&gt;Node10 -->
<g id="edge10" class="edge">
<title>Node6&#45;&gt;Node10</title>
<path fill="none" stroke="#191970" d="M948.0497,-168.4862C963.7424,-141.5845 1008.6503,-64.5994 1029.5524,-28.7673"/>
<polygon fill="#191970" stroke="#191970" points="1032.7515,-30.2293 1034.7671,-19.8279 1026.7051,-26.7021 1032.7515,-30.2293"/>
</g>
<!-- Node11 -->
<g id="node12" class="node">
<title>Node11</title>
<g id="a_node12"><a doxygen="/w/doc/cppreference-doxygen-web.tag.xml:http://en.cppreference.com/w/" xlink:href="http://en.cppreference.com/w/cpp/header/vector.html" xlink:title=" ">
<polygon fill="#ffffff" stroke="#000000" points="698,-112.5 698,-131.5 751,-131.5 751,-112.5 698,-112.5"/>
<text text-anchor="middle" x="724.5" y="-119.5" font-family="'Consolas',monospace" font-size="10.00" fill="#000000">vector</text>
</a>
</g>
</g>
<!-- Node6&#45;&gt;Node11 -->
<g id="edge12" class="edge">
<title>Node6&#45;&gt;Node11</title>
<path fill="none" stroke="#191970" d="M906.9893,-168.878C866.7261,-158.5352 801.4216,-141.7597 760.8245,-131.3311"/>
<polygon fill="#191970" stroke="#191970" points="761.6222,-127.9224 751.0659,-128.8243 759.8806,-134.7023 761.6222,-127.9224"/>
</g>
<!-- Node8 -->
<g id="node9" class="node">
<title>Node8</title>
<g id="a_node9"><a xlink:title=" ">
<polygon fill="#ffffff" stroke="#bfbfbf" points="1223,-56.5 1223,-75.5 1342,-75.5 1342,-56.5 1223,-56.5"/>
<text text-anchor="middle" x="1282.5" y="-63.5" font-family="'Consolas',monospace" font-size="10.00" fill="#000000">boost/version.hpp</text>
</a>
</g>
</g>
<!-- Node7&#45;&gt;Node8 -->
<g id="edge8" class="edge">
<title>Node7&#45;&gt;Node8</title>
<path fill="none" stroke="#191970" d="M1279.1967,-112.2455C1279.7187,-104.9382 1280.4504,-94.6944 1281.0925,-85.7046"/>
<polygon fill="#191970" stroke="#191970" points="1284.5898,-85.8667 1281.8112,-75.6427 1277.6076,-85.3679 1284.5898,-85.8667"/>
</g>
<!-- Node9 -->
<g id="node10" class="node">
<title>Node9</title>
<g id="a_node10"><a doxygen="/w/doc/cppreference-doxygen-web.tag.xml:http://en.cppreference.com/w/" xlink:href="http://en.cppreference.com/w/cpp/header/iosfwd.html" xlink:title=" ">
<polygon fill="#ffffff" stroke="#000000" points="1152,-56.5 1152,-75.5 1205,-75.5 1205,-56.5 1152,-56.5"/>
<text text-anchor="middle" x="1178.5" y="-63.5" font-family="'Consolas',monospace" font-size="10.00" fill="#000000">iosfwd</text>
</a>
</g>
</g>
<!-- Node7&#45;&gt;Node9 -->
<g id="edge9" class="edge">
<title>Node7&#45;&gt;Node9</title>
<path fill="none" stroke="#191970" d="M1261.0813,-112.2455C1245.4515,-103.4928 1222.2981,-90.527 1204.4815,-80.5496"/>
<polygon fill="#191970" stroke="#191970" points="1206.1543,-77.475 1195.7191,-75.6427 1202.734,-83.5825 1206.1543,-77.475"/>
</g>
<!-- Node14&#45;&gt;Node2 -->
<g id="edge16" class="edge">
<title>Node14&#45;&gt;Node2</title>
<path fill="none" stroke="#191970" d="M77.1034,-114.7614C83.5631,-113.7177 90.2089,-112.7463 96.5,-112 350.0721,-81.9171 657.6793,-70.29 761.9394,-67.038"/>
<polygon fill="#191970" stroke="#191970" points="762.0629,-70.5359 771.9513,-66.7321 761.8491,-63.5392 762.0629,-70.5359"/>
</g>
<!-- Node15&#45;&gt;Node2 -->
<g id="edge20" class="edge">
<title>Node15&#45;&gt;Node2</title>
<path fill="none" stroke="#191970" d="M1039.806,-112.4369C981.7926,-101.2728 887.1994,-83.0693 835.357,-73.0928"/>
<polygon fill="#191970" stroke="#191970" points="835.7582,-69.6058 825.2769,-71.1529 834.4353,-76.4797 835.7582,-69.6058"/>
</g>
<!-- Node16 -->
<g id="node17" class="node">
<title>Node16</title>
<g id="a_node17"><a xlink:href="Finally_8hpp.html" target="_top" xlink:title=" ">
<polygon fill="#ffffff" stroke="#000000" points="1043,-56.5 1043,-75.5 1126,-75.5 1126,-56.5 1043,-56.5"/>
<text text-anchor="middle" x="1084.5" y="-63.5" font-family="'Consolas',monospace" font-size="10.00" fill="#000000">Finally.hpp</text>
</a>
</g>
</g>
<!-- Node15&#45;&gt;Node16 -->
<g id="edge18" class="edge">
<title>Node15&#45;&gt;Node16</title>
<path fill="none" stroke="#191970" d="M1088.6291,-112.2455C1087.9766,-104.9382 1087.062,-94.6944 1086.2593,-85.7046"/>
<polygon fill="#191970" stroke="#191970" points="1089.7365,-85.2918 1085.361,-75.6427 1082.7642,-85.9143 1089.7365,-85.2918"/>
</g>
<!-- Node16&#45;&gt;Node10 -->
<g id="edge19" class="edge">
<title>Node16&#45;&gt;Node10</title>
<path fill="none" stroke="#191970" d="M1076.8358,-56.2455C1070.6527,-48.3761 1061.7937,-37.101 1054.3711,-27.6542"/>
<polygon fill="#191970" stroke="#191970" points="1057.0068,-25.3435 1048.0764,-19.6427 1051.5025,-29.6683 1057.0068,-25.3435"/>
</g>
<!-- Node18&#45;&gt;Node2 -->
<g id="edge27" class="edge">
<title>Node18&#45;&gt;Node2</title>
<path fill="none" stroke="#191970" d="M816.4347,-224.1787C818.158,-214.8986 820.5494,-200.5658 821.5,-188 824.2777,-151.2835 813.1056,-109.2411 805.3649,-85.3318"/>
<polygon fill="#191970" stroke="#191970" points="808.6296,-84.0599 802.1123,-75.7067 801.998,-86.301 808.6296,-84.0599"/>
</g>
<!-- Node18&#45;&gt;Node3 -->
<g id="edge28" class="edge">
<title>Node18&#45;&gt;Node3</title>
<path fill="none" stroke="#191970" d="M799.1291,-224.4966C772.7206,-208.2854 719.6339,-176.2369 699.5,-168 653.0756,-149.0075 596.5129,-135.8757 560.2601,-128.6428"/>
<polygon fill="#191970" stroke="#191970" points="560.6319,-125.1495 550.1473,-126.6733 559.2938,-132.0204 560.6319,-125.1495"/>
</g>
<!-- Node18&#45;&gt;Node19 -->
<g id="edge23" class="edge">
<title>Node18&#45;&gt;Node19</title>
<path fill="none" stroke="#191970" d="M850.3364,-224.878C887.5682,-215.4008 946.0177,-200.5228 987.0604,-190.0755"/>
<polygon fill="#191970" stroke="#191970" points="988.0084,-193.4459 996.836,-187.5872 986.2816,-186.6622 988.0084,-193.4459"/>
</g>
<!-- Node19&#45;&gt;Node7 -->
<g id="edge26" class="edge">
<title>Node19&#45;&gt;Node7</title>
<path fill="none" stroke="#191970" d="M1073.1625,-169.1266C1117.5124,-158.948 1190.0074,-142.3098 1235.9341,-131.7692"/>
<polygon fill="#191970" stroke="#191970" points="1236.9112,-135.136 1245.8749,-129.4877 1235.3453,-128.3134 1236.9112,-135.136"/>
</g>
<!-- Node19&#45;&gt;Node13 -->
<g id="edge24" class="edge">
<title>Node19&#45;&gt;Node13</title>
<path fill="none" stroke="#191970" d="M1009.7455,-168.3733C986.2151,-159.2226 950.6313,-145.3844 924.4574,-135.2057"/>
<polygon fill="#191970" stroke="#191970" points="925.5201,-131.8636 914.9315,-131.5011 922.9829,-138.3877 925.5201,-131.8636"/>
</g>
<!-- Node19&#45;&gt;Node15 -->
<g id="edge25" class="edge">
<title>Node19&#45;&gt;Node15</title>
<path fill="none" stroke="#191970" d="M1044.0803,-168.2455C1052.0458,-160.1352 1063.5641,-148.4075 1073.0079,-138.7919"/>
<polygon fill="#191970" stroke="#191970" points="1075.5195,-141.2297 1080.0295,-131.6427 1070.5253,-136.3247 1075.5195,-141.2297"/>
</g>
<!-- Node20&#45;&gt;Node21 -->
<g id="edge30" class="edge">
<title>Node20&#45;&gt;Node21</title>
<path fill="none" stroke="#191970" d="M259.5,-224.2455C259.5,-216.9382 259.5,-206.6944 259.5,-197.7046"/>
<polygon fill="#191970" stroke="#191970" points="263.0001,-197.6426 259.5,-187.6427 256.0001,-197.6427 263.0001,-197.6426"/>
</g>
<!-- Node22 -->
<g id="node23" class="node">
<title>Node22</title>
<g id="a_node23"><a doxygen="/w/doc/cppreference-doxygen-web.tag.xml:http://en.cppreference.com/w/" xlink:href="http://en.cppreference.com/w/cpp/header/sstream.html" xlink:title=" ">
<polygon fill="#ffffff" stroke="#000000" points="409,-112.5 409,-131.5 468,-131.5 468,-112.5 409,-112.5"/>
<text text-anchor="middle" x="438.5" y="-119.5" font-family="'Consolas',monospace" font-size="10.00" fill="#000000">sstream</text>
</a>
</g>
</g>
<!-- Node20&#45;&gt;Node22 -->
<g id="edge32" class="edge">
<title>Node20&#45;&gt;Node22</title>
<path fill="none" stroke="#191970" d="M242.9376,-224.4666C222.5068,-211.5137 192.3422,-187.7094 208.5,-168 232.124,-139.1834 339.5163,-128.0591 398.8333,-124.0582"/>
<polygon fill="#191970" stroke="#191970" points="399.2121,-127.5413 408.9693,-123.4123 398.7669,-120.5554 399.2121,-127.5413"/>
</g>
<!-- Node21&#45;&gt;Node3 -->
<g id="edge31" class="edge">
<title>Node21&#45;&gt;Node3</title>
<path fill="none" stroke="#191970" d="M301.3081,-169.2571C345.2044,-160.0591 416.2273,-145.1245 477.5,-132 480.5192,-131.3533 483.6492,-130.6796 486.7915,-130.0011"/>
<polygon fill="#191970" stroke="#191970" points="487.7171,-133.3819 496.7495,-127.8442 486.2352,-126.5405 487.7171,-133.3819"/>
</g>
<!-- Node23&#45;&gt;Node2 -->
<g id="edge36" class="edge">
<title>Node23&#45;&gt;Node2</title>
<path fill="none" stroke="#191970" d="M1295.831,-224.3825C1306.1173,-216.0729 1319.5611,-203.0499 1325.5,-188 1332.4612,-170.3594 1332.6116,-124.0976 1320.5,-112 1303.3154,-94.8353 951.4587,-74.2928 835.3293,-67.9565"/>
<polygon fill="#191970" stroke="#191970" points="835.3345,-64.4517 825.1597,-67.4051 834.9555,-71.4414 835.3345,-64.4517"/>
</g>
<!-- Node23&#45;&gt;Node4 -->
<g id="edge34" class="edge">
<title>Node23&#45;&gt;Node4</title>
<path fill="none" stroke="#191970" d="M1308.2859,-224.3733C1332.9047,-215.1822 1370.19,-201.2624 1397.4875,-191.0713"/>
<polygon fill="#191970" stroke="#191970" points="1398.9063,-194.2777 1407.0506,-187.5011 1396.458,-187.7198 1398.9063,-194.2777"/>
</g>
<!-- Node23&#45;&gt;Node7 -->
<g id="edge35" class="edge">
<title>Node23&#45;&gt;Node7</title>
<path fill="none" stroke="#191970" d="M1291.5723,-224.4044C1302.3739,-211.7715 1318.1672,-188.7315 1311.5,-168 1308.1054,-157.4445 1301.2942,-147.2592 1294.7369,-139.1676"/>
<polygon fill="#191970" stroke="#191970" points="1297.3431,-136.8307 1288.1492,-131.5654 1292.053,-141.4149 1297.3431,-136.8307"/>
</g>
<!-- Node24&#45;&gt;Node2 -->
<g id="edge41" class="edge">
<title>Node24&#45;&gt;Node2</title>
<path fill="none" stroke="#191970" d="M1239.6367,-168.4652C1218.7627,-151.8819 1176.0212,-118.839 1158.5,-112 1100.0096,-89.1696 914.3964,-74.0067 835.0471,-68.4101"/>
<polygon fill="#191970" stroke="#191970" points="835.2414,-64.9152 825.023,-67.7143 834.7566,-71.8984 835.2414,-64.9152"/>
</g>
<!-- Node24&#45;&gt;Node7 -->
<g id="edge39" class="edge">
<title>Node24&#45;&gt;Node7</title>
<path fill="none" stroke="#191970" d="M1256.203,-168.2455C1259.8424,-160.6973 1264.9924,-150.0158 1269.4262,-140.8197"/>
<polygon fill="#191970" stroke="#191970" points="1272.6605,-142.1704 1273.8509,-131.6427 1266.3551,-139.1303 1272.6605,-142.1704"/>
</g>
<!-- Node24&#45;&gt;Node16 -->
<g id="edge38" class="edge">
<title>Node24&#45;&gt;Node16</title>
<path fill="none" stroke="#191970" d="M1244.9324,-168.265C1235.0183,-154.2001 1214.9835,-128.1191 1192.5,-112 1172.482,-97.6485 1147.2937,-86.5952 1126.2786,-78.9246"/>
<polygon fill="#191970" stroke="#191970" points="1127.2401,-75.5526 1116.6453,-75.535 1124.9167,-82.1558 1127.2401,-75.5526"/>
</g>
<!-- Node24&#45;&gt;Node17 -->
<g id="edge40" class="edge">
<title>Node24&#45;&gt;Node17</title>
<path fill="none" stroke="#191970" d="M1294.534,-168.4369C1339.0621,-158.5418 1408.4757,-143.1165 1454.9399,-132.7911"/>
<polygon fill="#191970" stroke="#191970" points="1455.7758,-136.1909 1464.7783,-130.6048 1454.2572,-129.3575 1455.7758,-136.1909"/>
</g>
<!-- Node25&#45;&gt;Node2 -->
<g id="edge44" class="edge">
<title>Node25&#45;&gt;Node2</title>
<path fill="none" stroke="#191970" d="M96.7838,-168.2943C102.444,-153.2536 115.588,-124.7252 137.5,-112 191.5627,-80.6037 630.4534,-69.3588 761.6154,-66.681"/>
<polygon fill="#191970" stroke="#191970" points="762.0041,-70.174 771.9322,-66.4752 761.8644,-63.1754 762.0041,-70.174"/>
</g>
<!-- Node26&#45;&gt;Node16 -->
<g id="edge46" class="edge">
<title>Node26&#45;&gt;Node16</title>
<path fill="none" stroke="#191970" d="M633.0997,-224.1556C619.6098,-211.2537 600.2017,-187.9233 610.5,-168 630.2622,-129.7678 649.3173,-127.4142 689.5,-112 750.9471,-88.4288 939.9499,-74.4532 1032.4373,-68.8541"/>
<polygon fill="#191970" stroke="#191970" points="1032.9133,-72.3321 1042.6877,-68.244 1032.4974,-65.3444 1032.9133,-72.3321"/>
</g>
<!-- Node26&#45;&gt;Node27 -->
<g id="edge47" class="edge">
<title>Node26&#45;&gt;Node27</title>
<path fill="none" stroke="#191970" d="M646.2419,-224.2455C647.5467,-216.9382 649.376,-206.6944 650.9813,-197.7046"/>
<polygon fill="#191970" stroke="#191970" points="654.4656,-198.1022 652.7781,-187.6427 647.5746,-196.8717 654.4656,-198.1022"/>
</g>
<!-- Node26&#45;&gt;Node28 -->
<g id="edge51" class="edge">
<title>Node26&#45;&gt;Node28</title>
<path fill="none" stroke="#191970" d="M623.6994,-224.3733C604.2757,-215.3838 575.0776,-201.8706 553.2036,-191.7471"/>
<polygon fill="#191970" stroke="#191970" points="554.5745,-188.5249 544.0292,-187.5011 551.6344,-194.8776 554.5745,-188.5249"/>
</g>
<!-- Node27&#45;&gt;Node3 -->
<g id="edge49" class="edge">
<title>Node27&#45;&gt;Node3</title>
<path fill="none" stroke="#191970" d="M631.9803,-168.3733C610.7628,-159.3032 578.7724,-145.6279 555.0231,-135.4755"/>
<polygon fill="#191970" stroke="#191970" points="556.2967,-132.2136 545.7258,-131.5011 553.5452,-138.6502 556.2967,-132.2136"/>
</g>
<!-- Node27&#45;&gt;Node11 -->
<g id="edge50" class="edge">
<title>Node27&#45;&gt;Node11</title>
<path fill="none" stroke="#191970" d="M666.6931,-168.2455C677.1321,-159.8943 692.3655,-147.7076 704.574,-137.9408"/>
<polygon fill="#191970" stroke="#191970" points="706.8244,-140.6227 712.4467,-131.6427 702.4515,-135.1566 706.8244,-140.6227"/>
</g>
<!-- Node27&#45;&gt;Node22 -->
<g id="edge48" class="edge">
<title>Node27&#45;&gt;Node22</title>
<path fill="none" stroke="#191970" d="M618.832,-168.7527C580.0595,-158.7006 518.2682,-142.6806 478.0395,-132.251"/>
<polygon fill="#191970" stroke="#191970" points="478.8619,-128.8486 468.3036,-129.7268 477.1051,-135.6245 478.8619,-128.8486"/>
</g>
<!-- Node28&#45;&gt;Node3 -->
<g id="edge52" class="edge">
<title>Node28&#45;&gt;Node3</title>
<path fill="none" stroke="#191970" d="M523.5,-168.2455C523.5,-160.9382 523.5,-150.6944 523.5,-141.7046"/>
<polygon fill="#191970" stroke="#191970" points="527.0001,-141.6426 523.5,-131.6427 520.0001,-141.6427 527.0001,-141.6426"/>
</g>
<!-- Node30&#45;&gt;Node7 -->
<g id="edge57" class="edge">
<title>Node30&#45;&gt;Node7</title>
<path fill="none" stroke="#191970" d="M1506.7701,-224.4586C1508.0951,-210.1563 1508.2544,-183.2178 1493.5,-168 1470.0983,-143.8633 1377.1095,-131.1637 1321.3754,-125.5895"/>
<polygon fill="#191970" stroke="#191970" points="1321.3817,-122.074 1311.0923,-124.5994 1320.7108,-129.0418 1321.3817,-122.074"/>
</g>
<!-- Node31&#45;&gt;Node4 -->
<g id="edge59" class="edge">
<title>Node31&#45;&gt;Node4</title>
<path fill="none" stroke="#191970" d="M1414.3321,-224.2455C1417.2659,-216.7776 1421.4047,-206.2427 1424.991,-197.1137"/>
<polygon fill="#191970" stroke="#191970" points="1428.3129,-198.23 1428.7118,-187.6427 1421.7976,-195.6704 1428.3129,-198.23"/>
</g>
<!-- Node31&#45;&gt;Node7 -->
<g id="edge60" class="edge">
<title>Node31&#45;&gt;Node7</title>
<path fill="none" stroke="#191970" d="M1433.0528,-224.4452C1458.7261,-212.2185 1494.9795,-189.9809 1477.5,-168 1458.3609,-143.9321 1373.8153,-131.362 1321.2724,-125.7575"/>
<polygon fill="#191970" stroke="#191970" points="1321.524,-122.265 1311.2194,-124.7281 1320.8109,-129.2286 1321.524,-122.265"/>
</g>
<!-- Node32&#45;&gt;Node3 -->
<g id="edge62" class="edge">
<title>Node32&#45;&gt;Node3</title>
<path fill="none" stroke="#191970" d="M447.5252,-168.2455C461.6408,-159.6534 482.4263,-147.0014 498.6899,-137.1018"/>
<polygon fill="#191970" stroke="#191970" points="500.9363,-139.8319 507.6585,-131.6427 497.2966,-133.8525 500.9363,-139.8319"/>
</g>
<!-- Node33&#45;&gt;Node2 -->
<g id="edge66" class="edge">
<title>Node33&#45;&gt;Node2</title>
<path fill="none" stroke="#191970" d="M781.1199,-168.4509C784.2188,-150.184 791.0433,-109.9553 795.1584,-85.6976"/>
<polygon fill="#191970" stroke="#191970" points="798.6623,-85.9694 796.8842,-75.5249 791.7609,-84.7986 798.6623,-85.9694"/>
</g>
<!-- Node33&#45;&gt;Node3 -->
<g id="edge67" class="edge">
<title>Node33&#45;&gt;Node3</title>
<path fill="none" stroke="#191970" d="M746.8174,-170.8507C698.9972,-160.39 610.2289,-140.9719 560.2176,-130.032"/>
<polygon fill="#191970" stroke="#191970" points="560.6796,-126.5503 550.1626,-127.8325 559.1837,-133.3886 560.6796,-126.5503"/>
</g>
<!-- Node33&#45;&gt;Node11 -->
<g id="edge68" class="edge">
<title>Node33&#45;&gt;Node11</title>
<path fill="none" stroke="#191970" d="M769.9197,-168.2455C761.9542,-160.1352 750.4359,-148.4075 740.9921,-138.7919"/>
<polygon fill="#191970" stroke="#191970" points="743.4747,-136.3247 733.9705,-131.6427 738.4805,-141.2297 743.4747,-136.3247"/>
</g>
<!-- Node33&#45;&gt;Node13 -->
<g id="edge65" class="edge">
<title>Node33&#45;&gt;Node13</title>
<path fill="none" stroke="#191970" d="M798.5816,-168.3733C816.2402,-159.4644 842.7053,-146.1127 862.7098,-136.0203"/>
<polygon fill="#191970" stroke="#191970" points="864.3158,-139.1303 871.6674,-131.5011 861.1628,-132.8806 864.3158,-139.1303"/>
</g>
<!-- Node35&#45;&gt;Node2 -->
<g id="edge73" class="edge">
<title>Node35&#45;&gt;Node2</title>
<path fill="none" stroke="#191970" d="M158.6887,-224.4368C165.4416,-210.1062 180.0744,-183.1311 200.5,-168 265.4394,-119.8935 294.466,-128.8815 373.5,-112 514.9656,-81.7833 687.3865,-70.9132 761.6167,-67.4461"/>
<polygon fill="#191970" stroke="#191970" points="762.0081,-70.9321 771.8409,-66.9868 761.6939,-63.9392 762.0081,-70.9321"/>
</g>
<!-- Node35&#45;&gt;Node25 -->
<g id="edge72" class="edge">
<title>Node35&#45;&gt;Node25</title>
<path fill="none" stroke="#191970" d="M143.8746,-224.2455C134.9527,-216.0549 122.012,-204.1749 111.4808,-194.5069"/>
<polygon fill="#191970" stroke="#191970" points="113.7371,-191.8271 104.0036,-187.6427 109.0032,-196.9837 113.7371,-191.8271"/>
</g>
</g>
</svg>
