<?xml version="1.0" encoding="UTF-8" standalone="no"?>
<!DOCTYPE svg PUBLIC "-//W3C//DTD SVG 1.1//EN"
 "http://www.w3.org/Graphics/SVG/1.1/DTD/svg11.dtd">
<!-- Generated by graphviz version 2.40.1 (0)
 -->
<!-- Title: jngl/all.hpp Pages: 1 -->
<svg width="1650pt" height="308pt"
 viewBox="0.00 0.00 1650.00 308.00" xmlns="http://www.w3.org/2000/svg" xmlns:xlink="http://www.w3.org/1999/xlink">
<g id="graph0" class="graph" transform="scale(1 1) rotate(0) translate(4 304)">
<title>jngl/all.hpp</title>
<polygon fill="#ffffff" stroke="transparent" points="-4,4 -4,-304 1646,-304 1646,4 -4,4"/>
<!-- Node0 -->
<g id="node1" class="node">
<title>Node0</title>
<g id="a_node1"><a xlink:title="Includes all JNGL headers.">
<polygon fill="#bfbfbf" stroke="#000000" points="741,-280.5 741,-299.5 830,-299.5 830,-280.5 741,-280.5"/>
<text text-anchor="middle" x="785.5" y="-287.5" font-family="'Consolas',monospace" font-size="10.00" fill="#000000">jngl/all.hpp</text>
</a>
</g>
</g>
<!-- Node1 -->
<g id="node2" class="node">
<title>Node1</title>
<g id="a_node2"><a xlink:href="App_8hpp.html" target="_top" xlink:title=" ">
<polygon fill="#ffffff" stroke="#000000" points="527,-168.5 527,-187.5 586,-187.5 586,-168.5 527,-168.5"/>
<text text-anchor="middle" x="556.5" y="-175.5" font-family="'Consolas',monospace" font-size="10.00" fill="#000000">App.hpp</text>
</a>
</g>
</g>
<!-- Node0&#45;&gt;Node1 -->
<g id="edge1" class="edge">
<title>Node0&#45;&gt;Node1</title>
<path fill="none" stroke="#191970" d="M740.7469,-282.7393C707.8535,-276.0683 662.9086,-264.0912 627.5,-244 605.2306,-231.3641 584.354,-210.4365 571.08,-195.5357"/>
<polygon fill="#191970" stroke="#191970" points="573.3781,-192.8423 564.19,-187.567 568.083,-197.4207 573.3781,-192.8423"/>
</g>
<!-- Node4 -->
<g id="node5" class="node">
<title>Node4</title>
<g id="a_node5"><a xlink:href="Color_8hpp.html" target="_top" xlink:title=" ">
<polygon fill="#ffffff" stroke="#000000" points="1418,-168.5 1418,-187.5 1489,-187.5 1489,-168.5 1418,-168.5"/>
<text text-anchor="middle" x="1453.5" y="-175.5" font-family="'Consolas',monospace" font-size="10.00" fill="#000000">Color.hpp</text>
</a>
</g>
</g>
<!-- Node0&#45;&gt;Node4 -->
<g id="edge4" class="edge">
<title>Node0&#45;&gt;Node4</title>
<path fill="none" stroke="#191970" d="M830.2327,-289.7139C969.1379,-288.432 1386.5649,-281.4692 1433.5,-244 1447.0704,-233.1665 1451.6839,-213.4249 1453.1336,-198.3458"/>
<polygon fill="#191970" stroke="#191970" points="1456.6513,-198.1299 1453.7215,-187.9482 1449.6625,-197.7346 1456.6513,-198.1299"/>
</g>
<!-- Node5 -->
<g id="node6" class="node">
<title>Node5</title>
<g id="a_node6"><a xlink:href="Controller_8hpp.html" target="_top" xlink:title=" ">
<polygon fill="#ffffff" stroke="#000000" points="1012,-224.5 1012,-243.5 1113,-243.5 1113,-224.5 1012,-224.5"/>
<text text-anchor="middle" x="1062.5" y="-231.5" font-family="'Consolas',monospace" font-size="10.00" fill="#000000">Controller.hpp</text>
</a>
</g>
</g>
<!-- Node0&#45;&gt;Node5 -->
<g id="edge5" class="edge">
<title>Node0&#45;&gt;Node5</title>
<path fill="none" stroke="#191970" d="M830.0048,-281.0026C877.6051,-271.3795 953.2517,-256.0863 1005.2544,-245.5731"/>
<polygon fill="#191970" stroke="#191970" points="1006.2163,-248.9496 1015.3244,-243.5373 1004.8291,-242.0884 1006.2163,-248.9496"/>
</g>
<!-- Node6 -->
<g id="node7" class="node">
<title>Node6</title>
<g id="a_node7"><a xlink:href="input_8hpp.html" target="_top" xlink:title=" ">
<polygon fill="#ffffff" stroke="#000000" points="1203,-168.5 1203,-187.5 1274,-187.5 1274,-168.5 1203,-168.5"/>
<text text-anchor="middle" x="1238.5" y="-175.5" font-family="'Consolas',monospace" font-size="10.00" fill="#000000">input.hpp</text>
</a>
</g>
</g>
<!-- Node0&#45;&gt;Node6 -->
<g id="edge41" class="edge">
<title>Node0&#45;&gt;Node6</title>
<path fill="none" stroke="#191970" d="M830.2149,-287.9422C934.4165,-282.766 1186.8222,-267.8859 1216.5,-244 1230.1463,-233.0169 1235.3915,-213.2953 1237.3748,-198.2615"/>
<polygon fill="#191970" stroke="#191970" points="1240.8972,-198.1829 1238.3406,-187.9012 1233.9274,-197.5331 1240.8972,-198.1829"/>
</g>
<!-- Node13 -->
<g id="node14" class="node">
<title>Node13</title>
<g id="a_node14"><a xlink:href="Drawable_8hpp_source.html" target="_top" xlink:title=" ">
<polygon fill="#ffffff" stroke="#000000" points="707,-112.5 707,-131.5 796,-131.5 796,-112.5 707,-112.5"/>
<text text-anchor="middle" x="751.5" y="-119.5" font-family="'Consolas',monospace" font-size="10.00" fill="#000000">Drawable.hpp</text>
</a>
</g>
</g>
<!-- Node0&#45;&gt;Node13 -->
<g id="edge14" class="edge">
<title>Node0&#45;&gt;Node13</title>
<path fill="none" stroke="#191970" d="M781.6776,-280.3501C774.7976,-262.4708 760.4889,-222.8395 754.5,-188 751.8848,-172.7868 751.1902,-155.3291 751.1195,-142.1911"/>
<polygon fill="#191970" stroke="#191970" points="754.6211,-141.9448 751.1855,-131.9225 747.6212,-141.8997 754.6211,-141.9448"/>
</g>
<!-- Node14 -->
<g id="node15" class="node">
<title>Node14</title>
<g id="a_node15"><a xlink:href="Shader_8hpp.html" target="_top" xlink:title=" ">
<polygon fill="#ffffff" stroke="#000000" points="0,-112.5 0,-131.5 77,-131.5 77,-112.5 0,-112.5"/>
<text text-anchor="middle" x="38.5" y="-119.5" font-family="'Consolas',monospace" font-size="10.00" fill="#000000">Shader.hpp</text>
</a>
</g>
</g>
<!-- Node0&#45;&gt;Node14 -->
<g id="edge15" class="edge">
<title>Node0&#45;&gt;Node14</title>
<path fill="none" stroke="#191970" d="M740.6514,-289.5374C611.1378,-287.7845 238.4242,-279.691 122.5,-244 75.2915,-229.4653 51.1019,-230.8328 26.5,-188 18.1917,-173.5349 22.9371,-154.5952 28.7299,-140.7163"/>
<polygon fill="#191970" stroke="#191970" points="31.9075,-142.1835 32.9613,-131.6412 25.5632,-139.2253 31.9075,-142.1835"/>
</g>
<!-- Node15 -->
<g id="node16" class="node">
<title>Node15</title>
<g id="a_node16"><a xlink:href="ShaderProgram_8hpp.html" target="_top" xlink:title=" ">
<polygon fill="#ffffff" stroke="#000000" points="814,-112.5 814,-131.5 933,-131.5 933,-112.5 814,-112.5"/>
<text text-anchor="middle" x="873.5" y="-119.5" font-family="'Consolas',monospace" font-size="10.00" fill="#000000">ShaderProgram.hpp</text>
</a>
</g>
</g>
<!-- Node0&#45;&gt;Node15 -->
<g id="edge17" class="edge">
<title>Node0&#45;&gt;Node15</title>
<path fill="none" stroke="#191970" d="M830.3281,-281.1399C866.7659,-272.9298 913.957,-259.6468 925.5,-244 945.5542,-216.8161 940.5206,-198.7337 926.5,-168 920.8111,-155.5296 909.8869,-145.1361 899.4274,-137.4023"/>
<polygon fill="#191970" stroke="#191970" points="901.1037,-134.3082 890.8758,-131.5442 897.1477,-140.0832 901.1037,-134.3082"/>
</g>
<!-- Node17 -->
<g id="node18" class="node">
<title>Node17</title>
<g id="a_node18"><a xlink:href="Vertex_8hpp.html" target="_top" xlink:title=" ">
<polygon fill="#ffffff" stroke="#000000" points="476,-224.5 476,-243.5 553,-243.5 553,-224.5 476,-224.5"/>
<text text-anchor="middle" x="514.5" y="-231.5" font-family="'Consolas',monospace" font-size="10.00" fill="#000000">Vertex.hpp</text>
</a>
</g>
</g>
<!-- Node0&#45;&gt;Node17 -->
<g id="edge21" class="edge">
<title>Node0&#45;&gt;Node17</title>
<path fill="none" stroke="#191970" d="M740.7499,-280.7527C691.8052,-270.6387 613.6239,-254.4832 563.1783,-244.059"/>
<polygon fill="#191970" stroke="#191970" points="563.6671,-240.5861 553.1657,-241.99 562.2505,-247.4413 563.6671,-240.5861"/>
</g>
<!-- Node18 -->
<g id="node19" class="node">
<title>Node18</title>
<g id="a_node19"><a xlink:href="Video_8hpp.html" target="_top" xlink:title=" ">
<polygon fill="#ffffff" stroke="#000000" points="648,-224.5 648,-243.5 719,-243.5 719,-224.5 648,-224.5"/>
<text text-anchor="middle" x="683.5" y="-231.5" font-family="'Consolas',monospace" font-size="10.00" fill="#000000">Video.hpp</text>
</a>
</g>
</g>
<!-- Node0&#45;&gt;Node18 -->
<g id="edge22" class="edge">
<title>Node0&#45;&gt;Node18</title>
<path fill="none" stroke="#191970" d="M767.733,-280.2455C751.7905,-271.4928 728.1741,-258.527 710.0011,-248.5496"/>
<polygon fill="#191970" stroke="#191970" points="711.5137,-245.3873 701.0634,-243.6427 708.1448,-251.5233 711.5137,-245.3873"/>
</g>
<!-- Node19 -->
<g id="node20" class="node">
<title>Node19</title>
<g id="a_node20"><a xlink:href="sprite_8hpp_source.html" target="_top" xlink:title=" ">
<polygon fill="#ffffff" stroke="#000000" points="764,-168.5 764,-187.5 841,-187.5 841,-168.5 764,-168.5"/>
<text text-anchor="middle" x="802.5" y="-175.5" font-family="'Consolas',monospace" font-size="10.00" fill="#000000">sprite.hpp</text>
</a>
</g>
</g>
<!-- Node0&#45;&gt;Node19 -->
<g id="edge62" class="edge">
<title>Node0&#45;&gt;Node19</title>
<path fill="none" stroke="#191970" d="M786.9494,-280.4509C789.7221,-262.184 795.8282,-221.9553 799.5102,-197.6976"/>
<polygon fill="#191970" stroke="#191970" points="803.0139,-197.9369 801.0543,-187.5249 796.0931,-196.8864 803.0139,-197.9369"/>
</g>
<!-- Node20 -->
<g id="node21" class="node">
<title>Node20</title>
<g id="a_node21"><a xlink:href="debug_8hpp_source.html" target="_top" xlink:title=" ">
<polygon fill="#ffffff" stroke="#000000" points="170,-224.5 170,-243.5 241,-243.5 241,-224.5 170,-224.5"/>
<text text-anchor="middle" x="205.5" y="-231.5" font-family="'Consolas',monospace" font-size="10.00" fill="#000000">debug.hpp</text>
</a>
</g>
</g>
<!-- Node0&#45;&gt;Node20 -->
<g id="edge29" class="edge">
<title>Node0&#45;&gt;Node20</title>
<path fill="none" stroke="#191970" d="M740.7671,-287.2587C650.4853,-281.4598 440.1183,-266.5991 264.5,-244 260.2688,-243.4555 255.8771,-242.8284 251.4851,-242.1592"/>
<polygon fill="#191970" stroke="#191970" points="251.738,-238.6555 241.3122,-240.5404 250.6379,-245.5685 251.738,-238.6555"/>
</g>
<!-- Node21 -->
<g id="node22" class="node">
<title>Node21</title>
<g id="a_node22"><a xlink:href="message_8hpp.html" target="_top" xlink:title=" ">
<polygon fill="#ffffff" stroke="#000000" points="164,-168.5 164,-187.5 247,-187.5 247,-168.5 164,-168.5"/>
<text text-anchor="middle" x="205.5" y="-175.5" font-family="'Consolas',monospace" font-size="10.00" fill="#000000">message.hpp</text>
</a>
</g>
</g>
<!-- Node0&#45;&gt;Node21 -->
<g id="edge53" class="edge">
<title>Node0&#45;&gt;Node21</title>
<path fill="none" stroke="#191970" d="M740.7229,-287.6306C641.7951,-282.0452 407.3753,-266.7864 331.5,-244 292.9122,-232.4115 252.3309,-208.786 227.9711,-193.1736"/>
<polygon fill="#191970" stroke="#191970" points="229.7545,-190.1581 219.4672,-187.6241 225.929,-196.0203 229.7545,-190.1581"/>
</g>
<!-- Node23 -->
<g id="node24" class="node">
<title>Node23</title>
<g id="a_node24"><a xlink:href="font_8hpp.html" target="_top" xlink:title=" ">
<polygon fill="#ffffff" stroke="#000000" points="1360,-224.5 1360,-243.5 1425,-243.5 1425,-224.5 1360,-224.5"/>
<text text-anchor="middle" x="1392.5" y="-231.5" font-family="'Consolas',monospace" font-size="10.00" fill="#000000">font.hpp</text>
</a>
</g>
</g>
<!-- Node0&#45;&gt;Node23 -->
<g id="edge33" class="edge">
<title>Node0&#45;&gt;Node23</title>
<path fill="none" stroke="#191970" d="M830.0909,-288.68C924.3072,-285.394 1150.6146,-274.8805 1349.5299,-243.9249"/>
<polygon fill="#191970" stroke="#191970" points="1350.2474,-247.3551 1359.5799,-242.3396 1349.1566,-240.4406 1350.2474,-247.3551"/>
</g>
<!-- Node24 -->
<g id="node25" class="node">
<title>Node24</title>
<g id="a_node25"><a xlink:href="framebuffer_8hpp_source.html" target="_top" xlink:title=" ">
<polygon fill="#ffffff" stroke="#000000" points="1013,-168.5 1013,-187.5 1114,-187.5 1114,-168.5 1013,-168.5"/>
<text text-anchor="middle" x="1063.5" y="-175.5" font-family="'Consolas',monospace" font-size="10.00" fill="#000000">framebuffer.hpp</text>
</a>
</g>
</g>
<!-- Node0&#45;&gt;Node24 -->
<g id="edge37" class="edge">
<title>Node0&#45;&gt;Node24</title>
<path fill="none" stroke="#191970" d="M830.0145,-282.1601C865.9383,-274.9137 917.2679,-262.4543 959.5,-244 990.3956,-230.4994 1022.684,-208.5934 1042.9302,-193.7567"/>
<polygon fill="#191970" stroke="#191970" points="1045.154,-196.4645 1051.0837,-187.6845 1040.9729,-190.8503 1045.154,-196.4645"/>
</g>
<!-- Node25 -->
<g id="node26" class="node">
<title>Node25</title>
<g id="a_node26"><a xlink:href="job_8hpp.html" target="_top" xlink:title=" ">
<polygon fill="#ffffff" stroke="#000000" points="859,-168.5 859,-187.5 918,-187.5 918,-168.5 859,-168.5"/>
<text text-anchor="middle" x="888.5" y="-175.5" font-family="'Consolas',monospace" font-size="10.00" fill="#000000">job.hpp</text>
</a>
</g>
</g>
<!-- Node0&#45;&gt;Node25 -->
<g id="edge42" class="edge">
<title>Node0&#45;&gt;Node25</title>
<path fill="none" stroke="#191970" d="M793.4054,-280.4103C804.2202,-267.3936 824.3586,-243.5173 842.5,-224 851.6838,-214.1197 862.311,-203.4459 871.0358,-194.8696"/>
<polygon fill="#191970" stroke="#191970" points="873.705,-197.1552 878.4174,-187.6661 868.816,-192.1454 873.705,-197.1552"/>
</g>
<!-- Node26 -->
<g id="node27" class="node">
<title>Node26</title>
<g id="a_node27"><a xlink:href="main_8hpp_source.html" target="_top" xlink:title=" ">
<polygon fill="#ffffff" stroke="#000000" points="354,-224.5 354,-243.5 419,-243.5 419,-224.5 354,-224.5"/>
<text text-anchor="middle" x="386.5" y="-231.5" font-family="'Consolas',monospace" font-size="10.00" fill="#000000">main.hpp</text>
</a>
</g>
</g>
<!-- Node0&#45;&gt;Node26 -->
<g id="edge44" class="edge">
<title>Node0&#45;&gt;Node26</title>
<path fill="none" stroke="#191970" d="M740.876,-285.3224C673.8848,-278.0399 543.4475,-262.8498 433.5,-244 432.0354,-243.7489 430.547,-243.4843 429.0454,-243.2094"/>
<polygon fill="#191970" stroke="#191970" points="429.5339,-239.7391 419.0513,-241.2769 428.2049,-246.6118 429.5339,-239.7391"/>
</g>
<!-- Node27 -->
<g id="node28" class="node">
<title>Node27</title>
<g id="a_node28"><a xlink:href="other_8hpp.html" target="_top" xlink:title=" ">
<polygon fill="#ffffff" stroke="#000000" points="304,-168.5 304,-187.5 375,-187.5 375,-168.5 304,-168.5"/>
<text text-anchor="middle" x="339.5" y="-175.5" font-family="'Consolas',monospace" font-size="10.00" fill="#000000">other.hpp</text>
</a>
</g>
</g>
<!-- Node0&#45;&gt;Node27 -->
<g id="edge54" class="edge">
<title>Node0&#45;&gt;Node27</title>
<path fill="none" stroke="#191970" d="M740.9099,-288.5327C634.3644,-284.5852 371.7972,-272.0814 344.5,-244 332.8836,-232.0498 332.8244,-212.4569 334.9559,-197.7163"/>
<polygon fill="#191970" stroke="#191970" points="338.4503,-198.0714 336.8577,-187.5969 331.5708,-196.7784 338.4503,-198.0714"/>
</g>
<!-- Node28 -->
<g id="node29" class="node">
<title>Node28</title>
<g id="a_node29"><a xlink:href="window_8hpp.html" target="_top" xlink:title="Functions related to the main window.">
<polygon fill="#ffffff" stroke="#000000" points="393,-168.5 393,-187.5 470,-187.5 470,-168.5 393,-168.5"/>
<text text-anchor="middle" x="431.5" y="-175.5" font-family="'Consolas',monospace" font-size="10.00" fill="#000000">window.hpp</text>
</a>
</g>
</g>
<!-- Node0&#45;&gt;Node28 -->
<g id="edge69" class="edge">
<title>Node0&#45;&gt;Node28</title>
<path fill="none" stroke="#191970" d="M740.8837,-288.4771C663.8208,-285.057 509.8578,-274.511 466.5,-244 450.966,-233.0687 441.7507,-213.0442 436.7084,-197.9083"/>
<polygon fill="#191970" stroke="#191970" points="439.9519,-196.5362 433.7437,-187.9508 433.2429,-198.5338 439.9519,-196.5362"/>
</g>
<!-- Node29 -->
<g id="node30" class="node">
<title>Node29</title>
<g id="a_node30"><a xlink:href="matrix_8hpp_source.html" target="_top" xlink:title=" ">
<polygon fill="#ffffff" stroke="#000000" points="1131,-224.5 1131,-243.5 1208,-243.5 1208,-224.5 1131,-224.5"/>
<text text-anchor="middle" x="1169.5" y="-231.5" font-family="'Consolas',monospace" font-size="10.00" fill="#000000">matrix.hpp</text>
</a>
</g>
</g>
<!-- Node0&#45;&gt;Node29 -->
<g id="edge52" class="edge">
<title>Node0&#45;&gt;Node29</title>
<path fill="none" stroke="#191970" d="M830.219,-284.8785C892.8594,-277.4843 1010.491,-262.7989 1120.8049,-244.0202"/>
<polygon fill="#191970" stroke="#191970" points="1121.508,-247.4508 1130.7714,-242.3088 1120.3233,-240.5518 1121.508,-247.4508"/>
</g>
<!-- Node30 -->
<g id="node31" class="node">
<title>Node30</title>
<g id="a_node31"><a xlink:href="screen_8hpp.html" target="_top" xlink:title=" ">
<polygon fill="#ffffff" stroke="#000000" points="1265,-224.5 1265,-243.5 1342,-243.5 1342,-224.5 1265,-224.5"/>
<text text-anchor="middle" x="1303.5" y="-231.5" font-family="'Consolas',monospace" font-size="10.00" fill="#000000">screen.hpp</text>
</a>
</g>
</g>
<!-- Node0&#45;&gt;Node30 -->
<g id="edge55" class="edge">
<title>Node0&#45;&gt;Node30</title>
<path fill="none" stroke="#191970" d="M830.2207,-286.8904C913.2898,-280.8228 1096.9254,-266.0408 1250.5,-244 1251.9482,-243.7921 1253.4171,-243.5724 1254.8988,-243.343"/>
<polygon fill="#191970" stroke="#191970" points="1255.4816,-246.7943 1264.7782,-241.7126 1254.3417,-239.8877 1255.4816,-246.7943"/>
</g>
<!-- Node31 -->
<g id="node32" class="node">
<title>Node31</title>
<g id="a_node32"><a xlink:href="shapes_8hpp.html" target="_top" xlink:title=" ">
<polygon fill="#ffffff" stroke="#000000" points="1565,-224.5 1565,-243.5 1642,-243.5 1642,-224.5 1565,-224.5"/>
<text text-anchor="middle" x="1603.5" y="-231.5" font-family="'Consolas',monospace" font-size="10.00" fill="#000000">shapes.hpp</text>
</a>
</g>
</g>
<!-- Node0&#45;&gt;Node31 -->
<g id="edge57" class="edge">
<title>Node0&#45;&gt;Node31</title>
<path fill="none" stroke="#191970" d="M830.4181,-289.5988C947.8915,-288.0629 1273.9525,-280.6754 1554.8381,-243.8863"/>
<polygon fill="#191970" stroke="#191970" points="1555.3569,-247.3483 1564.8106,-242.5652 1554.4375,-240.4089 1555.3569,-247.3483"/>
</g>
<!-- Node32 -->
<g id="node33" class="node">
<title>Node32</title>
<g id="a_node33"><a xlink:href="sound_8hpp_source.html" target="_top" xlink:title=" ">
<polygon fill="#ffffff" stroke="#000000" points="36,-168.5 36,-187.5 107,-187.5 107,-168.5 36,-168.5"/>
<text text-anchor="middle" x="71.5" y="-175.5" font-family="'Consolas',monospace" font-size="10.00" fill="#000000">sound.hpp</text>
</a>
</g>
</g>
<!-- Node0&#45;&gt;Node32 -->
<g id="edge60" class="edge">
<title>Node0&#45;&gt;Node32</title>
<path fill="none" stroke="#191970" d="M740.7741,-288.1502C606.7734,-282.4075 214.4893,-264.0618 160.5,-244 131.9873,-233.405 104.7422,-210.718 88.0771,-194.9191"/>
<polygon fill="#191970" stroke="#191970" points="90.3866,-192.2824 80.7867,-187.7998 85.4959,-197.2906 90.3866,-192.2824"/>
</g>
<!-- Node33 -->
<g id="node34" class="node">
<title>Node33</title>
<g id="a_node34"><a xlink:href="text_8hpp.html" target="_top" xlink:title=" ">
<polygon fill="#ffffff" stroke="#000000" points="604,-168.5 604,-187.5 669,-187.5 669,-168.5 604,-168.5"/>
<text text-anchor="middle" x="636.5" y="-175.5" font-family="'Consolas',monospace" font-size="10.00" fill="#000000">text.hpp</text>
</a>
</g>
</g>
<!-- Node0&#45;&gt;Node33 -->
<g id="edge63" class="edge">
<title>Node0&#45;&gt;Node33</title>
<path fill="none" stroke="#191970" d="M740.7593,-281.88C702.2714,-273.8923 651.0241,-260.512 638.5,-244 628.5632,-230.8991 629.1337,-211.7591 631.5566,-197.4604"/>
<polygon fill="#191970" stroke="#191970" points="634.9866,-198.1572 633.6271,-187.65 628.1374,-196.7117 634.9866,-198.1572"/>
</g>
<!-- Node34 -->
<g id="node35" class="node">
<title>Node34</title>
<g id="a_node35"><a xlink:href="time_8hpp.html" target="_top" xlink:title=" ">
<polygon fill="#ffffff" stroke="#000000" points="1482,-224.5 1482,-243.5 1547,-243.5 1547,-224.5 1482,-224.5"/>
<text text-anchor="middle" x="1514.5" y="-231.5" font-family="'Consolas',monospace" font-size="10.00" fill="#000000">time.hpp</text>
</a>
</g>
</g>
<!-- Node0&#45;&gt;Node34 -->
<g id="edge68" class="edge">
<title>Node0&#45;&gt;Node34</title>
<path fill="none" stroke="#191970" d="M830.0079,-289.187C939.1527,-286.7185 1228.609,-277.298 1467.5,-244 1468.9718,-243.7949 1470.4662,-243.5699 1471.9732,-243.3287"/>
<polygon fill="#191970" stroke="#191970" points="1472.7594,-246.7439 1481.9901,-241.5435 1471.5311,-239.8524 1472.7594,-246.7439"/>
</g>
<!-- Node35 -->
<g id="node36" class="node">
<title>Node35</title>
<g id="a_node36"><a xlink:href="work_8hpp.html" target="_top" xlink:title=" ">
<polygon fill="#ffffff" stroke="#000000" points="852,-224.5 852,-243.5 917,-243.5 917,-224.5 852,-224.5"/>
<text text-anchor="middle" x="884.5" y="-231.5" font-family="'Consolas',monospace" font-size="10.00" fill="#000000">work.hpp</text>
</a>
</g>
</g>
<!-- Node0&#45;&gt;Node35 -->
<g id="edge70" class="edge">
<title>Node0&#45;&gt;Node35</title>
<path fill="none" stroke="#191970" d="M802.7445,-280.2455C818.0761,-271.5731 840.7199,-258.7645 858.2916,-248.825"/>
<polygon fill="#191970" stroke="#191970" points="860.4724,-251.6126 867.4531,-243.6427 857.0259,-245.5198 860.4724,-251.6126"/>
</g>
<!-- Node2 -->
<g id="node3" class="node">
<title>Node2</title>
<g id="a_node3"><a doxygen="/w/doc/cppreference-doxygen-web.tag.xml:http://en.cppreference.com/w/" xlink:href="http://en.cppreference.com/w/cpp/header/memory.html" xlink:title=" ">
<polygon fill="#ffffff" stroke="#000000" points="934,-56.5 934,-75.5 987,-75.5 987,-56.5 934,-56.5"/>
<text text-anchor="middle" x="960.5" y="-63.5" font-family="'Consolas',monospace" font-size="10.00" fill="#000000">memory</text>
</a>
</g>
</g>
<!-- Node1&#45;&gt;Node2 -->
<g id="edge2" class="edge">
<title>Node1&#45;&gt;Node2</title>
<path fill="none" stroke="#191970" d="M551.3277,-168.0619C544.6793,-153.7438 535.5525,-127.3506 549.5,-112 603.8728,-52.1574 826.2374,-88.5643 923.9884,-75.5291"/>
<polygon fill="#191970" stroke="#191970" points="924.5602,-78.9823 933.8853,-73.953 923.4593,-72.0694 924.5602,-78.9823"/>
</g>
<!-- Node3 -->
<g id="node4" class="node">
<title>Node3</title>
<g id="a_node4"><a doxygen="/w/doc/cppreference-doxygen-web.tag.xml:http://en.cppreference.com/w/" xlink:href="http://en.cppreference.com/w/cpp/header/string.html" xlink:title=" ">
<polygon fill="#ffffff" stroke="#000000" points="405,-112.5 405,-131.5 458,-131.5 458,-112.5 405,-112.5"/>
<text text-anchor="middle" x="431.5" y="-119.5" font-family="'Consolas',monospace" font-size="10.00" fill="#000000">string</text>
</a>
</g>
</g>
<!-- Node1&#45;&gt;Node3 -->
<g id="edge3" class="edge">
<title>Node1&#45;&gt;Node3</title>
<path fill="none" stroke="#191970" d="M535.0117,-168.3733C514.856,-159.3435 484.512,-145.7494 461.882,-135.6111"/>
<polygon fill="#191970" stroke="#191970" points="463.2649,-132.3955 452.7079,-131.5011 460.4029,-138.7838 463.2649,-132.3955"/>
</g>
<!-- Node5&#45;&gt;Node6 -->
<g id="edge6" class="edge">
<title>Node5&#45;&gt;Node6</title>
<path fill="none" stroke="#191970" d="M1092.7555,-224.3733C1122.1483,-215.021 1166.9292,-200.7725 1199.0934,-190.5385"/>
<polygon fill="#191970" stroke="#191970" points="1200.1713,-193.8685 1208.6393,-187.5011 1198.0488,-187.198 1200.1713,-193.8685"/>
</g>
<!-- Node12 -->
<g id="node13" class="node">
<title>Node12</title>
<g id="a_node13"><a doxygen="/w/doc/cppreference-doxygen-web.tag.xml:http://en.cppreference.com/w/" xlink:href="http://en.cppreference.com/w/cpp/header/chrono.html" xlink:title=" ">
<polygon fill="#ffffff" stroke="#000000" points="1132,-168.5 1132,-187.5 1185,-187.5 1185,-168.5 1132,-168.5"/>
<text text-anchor="middle" x="1158.5" y="-175.5" font-family="'Consolas',monospace" font-size="10.00" fill="#000000">chrono</text>
</a>
</g>
</g>
<!-- Node5&#45;&gt;Node12 -->
<g id="edge13" class="edge">
<title>Node5&#45;&gt;Node12</title>
<path fill="none" stroke="#191970" d="M1079.2219,-224.2455C1094.0889,-215.5731 1116.0466,-202.7645 1133.0858,-192.825"/>
<polygon fill="#191970" stroke="#191970" points="1135.0955,-195.7047 1141.9697,-187.6427 1131.5683,-189.6582 1135.0955,-195.7047"/>
</g>
<!-- Node6&#45;&gt;Node2 -->
<g id="edge11" class="edge">
<title>Node6&#45;&gt;Node2</title>
<path fill="none" stroke="#191970" d="M1214.7979,-168.4509C1165.2507,-148.4895 1050.6095,-102.3031 993.7352,-79.3897"/>
<polygon fill="#191970" stroke="#191970" points="994.7256,-76.0154 984.1421,-75.5249 992.1097,-82.5083 994.7256,-76.0154"/>
</g>
<!-- Node7 -->
<g id="node8" class="node">
<title>Node7</title>
<g id="a_node8"><a xlink:href="Vec2_8hpp.html" target="_top" xlink:title=" ">
<polygon fill="#ffffff" stroke="#000000" points="1263,-112.5 1263,-131.5 1328,-131.5 1328,-112.5 1263,-112.5"/>
<text text-anchor="middle" x="1295.5" y="-119.5" font-family="'Consolas',monospace" font-size="10.00" fill="#000000">Vec2.hpp</text>
</a>
</g>
</g>
<!-- Node6&#45;&gt;Node7 -->
<g id="edge7" class="edge">
<title>Node6&#45;&gt;Node7</title>
<path fill="none" stroke="#191970" d="M1248.4286,-168.2455C1256.6838,-160.1352 1268.6209,-148.4075 1278.4082,-138.7919"/>
<polygon fill="#191970" stroke="#191970" points="1281.0046,-141.1476 1285.6851,-131.6427 1276.0989,-136.1542 1281.0046,-141.1476"/>
</g>
<!-- Node10 -->
<g id="node11" class="node">
<title>Node10</title>
<g id="a_node11"><a doxygen="/w/doc/cppreference-doxygen-web.tag.xml:http://en.cppreference.com/w/" xlink:href="http://en.cppreference.com/w/cpp/header/functional.html" xlink:title=" ">
<polygon fill="#ffffff" stroke="#000000" points="1008,-.5 1008,-19.5 1085,-19.5 1085,-.5 1008,-.5"/>
<text text-anchor="middle" x="1046.5" y="-7.5" font-family="'Consolas',monospace" font-size="10.00" fill="#000000">functional</text>
</a>
</g>
</g>
<!-- Node6&#45;&gt;Node10 -->
<g id="edge10" class="edge">
<title>Node6&#45;&gt;Node10</title>
<path fill="none" stroke="#191970" d="M1227.6271,-168.4862C1196.2253,-141.0096 1105.1132,-61.2866 1065.3887,-26.5276"/>
<polygon fill="#191970" stroke="#191970" points="1067.5624,-23.7789 1057.7319,-19.8279 1062.9529,-29.047 1067.5624,-23.7789"/>
</g>
<!-- Node11 -->
<g id="node12" class="node">
<title>Node11</title>
<g id="a_node12"><a doxygen="/w/doc/cppreference-doxygen-web.tag.xml:http://en.cppreference.com/w/" xlink:href="http://en.cppreference.com/w/cpp/header/vector.html" xlink:title=" ">
<polygon fill="#ffffff" stroke="#000000" points="559,-112.5 559,-131.5 612,-131.5 612,-112.5 559,-112.5"/>
<text text-anchor="middle" x="585.5" y="-119.5" font-family="'Consolas',monospace" font-size="10.00" fill="#000000">vector</text>
</a>
</g>
</g>
<!-- Node6&#45;&gt;Node11 -->
<g id="edge12" class="edge">
<title>Node6&#45;&gt;Node11</title>
<path fill="none" stroke="#191970" d="M1202.7262,-169.5552C1199.6162,-168.9716 1196.509,-168.4411 1193.5,-168 974.8131,-135.9409 917.8041,-149.8287 697.5,-132 672.4172,-129.9701 644.1969,-127.449 622.3586,-125.446"/>
<polygon fill="#191970" stroke="#191970" points="622.4715,-121.9416 612.1924,-124.5087 621.8288,-128.9121 622.4715,-121.9416"/>
</g>
<!-- Node8 -->
<g id="node9" class="node">
<title>Node8</title>
<g id="a_node9"><a xlink:title=" ">
<polygon fill="#ffffff" stroke="#bfbfbf" points="1335,-56.5 1335,-75.5 1454,-75.5 1454,-56.5 1335,-56.5"/>
<text text-anchor="middle" x="1394.5" y="-63.5" font-family="'Consolas',monospace" font-size="10.00" fill="#000000">boost/version.hpp</text>
</a>
</g>
</g>
<!-- Node7&#45;&gt;Node8 -->
<g id="edge8" class="edge">
<title>Node7&#45;&gt;Node8</title>
<path fill="none" stroke="#191970" d="M1312.7445,-112.2455C1328.0761,-103.5731 1350.7199,-90.7645 1368.2916,-80.825"/>
<polygon fill="#191970" stroke="#191970" points="1370.4724,-83.6126 1377.4531,-75.6427 1367.0259,-77.5198 1370.4724,-83.6126"/>
</g>
<!-- Node9 -->
<g id="node10" class="node">
<title>Node9</title>
<g id="a_node10"><a doxygen="/w/doc/cppreference-doxygen-web.tag.xml:http://en.cppreference.com/w/" xlink:href="http://en.cppreference.com/w/cpp/header/iosfwd.html" xlink:title=" ">
<polygon fill="#ffffff" stroke="#000000" points="1264,-56.5 1264,-75.5 1317,-75.5 1317,-56.5 1264,-56.5"/>
<text text-anchor="middle" x="1290.5" y="-63.5" font-family="'Consolas',monospace" font-size="10.00" fill="#000000">iosfwd</text>
</a>
</g>
</g>
<!-- Node7&#45;&gt;Node9 -->
<g id="edge9" class="edge">
<title>Node7&#45;&gt;Node9</title>
<path fill="none" stroke="#191970" d="M1294.6291,-112.2455C1293.9766,-104.9382 1293.062,-94.6944 1292.2593,-85.7046"/>
<polygon fill="#191970" stroke="#191970" points="1295.7365,-85.2918 1291.361,-75.6427 1288.7642,-85.9143 1295.7365,-85.2918"/>
</g>
<!-- Node14&#45;&gt;Node2 -->
<g id="edge16" class="edge">
<title>Node14&#45;&gt;Node2</title>
<path fill="none" stroke="#191970" d="M77.0566,-118.0348C97.8961,-115.9997 124.0869,-113.6156 147.5,-112 489.0999,-88.4289 581.385,-129.8054 923.9618,-75.6904"/>
<polygon fill="#191970" stroke="#191970" points="924.5875,-79.1349 933.9112,-74.1031 923.4847,-72.2223 924.5875,-79.1349"/>
</g>
<!-- Node15&#45;&gt;Node2 -->
<g id="edge20" class="edge">
<title>Node15&#45;&gt;Node2</title>
<path fill="none" stroke="#191970" d="M888.6542,-112.2455C902.0027,-103.6534 921.6586,-91.0014 937.0383,-81.1018"/>
<polygon fill="#191970" stroke="#191970" points="939.0051,-83.9982 945.5194,-75.6427 935.2164,-78.1121 939.0051,-83.9982"/>
</g>
<!-- Node16 -->
<g id="node17" class="node">
<title>Node16</title>
<g id="a_node17"><a xlink:href="Finally_8hpp.html" target="_top" xlink:title=" ">
<polygon fill="#ffffff" stroke="#000000" points="833,-56.5 833,-75.5 916,-75.5 916,-56.5 833,-56.5"/>
<text text-anchor="middle" x="874.5" y="-63.5" font-family="'Consolas',monospace" font-size="10.00" fill="#000000">Finally.hpp</text>
</a>
</g>
</g>
<!-- Node15&#45;&gt;Node16 -->
<g id="edge18" class="edge">
<title>Node15&#45;&gt;Node16</title>
<path fill="none" stroke="#191970" d="M873.6742,-112.2455C873.8047,-104.9382 873.9876,-94.6944 874.1481,-85.7046"/>
<polygon fill="#191970" stroke="#191970" points="877.6486,-85.7036 874.3278,-75.6427 870.6497,-85.5786 877.6486,-85.7036"/>
</g>
<!-- Node16&#45;&gt;Node10 -->
<g id="edge19" class="edge">
<title>Node16&#45;&gt;Node10</title>
<path fill="none" stroke="#191970" d="M904.0679,-56.3733C932.6688,-47.0613 976.1788,-32.8953 1007.5819,-22.671"/>
<polygon fill="#191970" stroke="#191970" points="1008.8928,-25.9251 1017.318,-19.5011 1006.7257,-19.269 1008.8928,-25.9251"/>
</g>
<!-- Node18&#45;&gt;Node2 -->
<g id="edge27" class="edge">
<title>Node18&#45;&gt;Node2</title>
<path fill="none" stroke="#191970" d="M683.1744,-224.43C682.5063,-198.5435 682.1627,-128.0118 697.5,-112 730.967,-77.0611 859.936,-85.7498 923.8127,-75.6408"/>
<polygon fill="#191970" stroke="#191970" points="924.6602,-79.0431 933.8478,-73.7669 923.3753,-72.162 924.6602,-79.0431"/>
</g>
<!-- Node18&#45;&gt;Node3 -->
<g id="edge28" class="edge">
<title>Node18&#45;&gt;Node3</title>
<path fill="none" stroke="#191970" d="M647.7366,-228.2056C613.1092,-221.662 559.7876,-209.0804 517.5,-188 491.3948,-174.9865 465.3776,-153.5398 448.9099,-138.6405"/>
<polygon fill="#191970" stroke="#191970" points="450.9363,-135.7471 441.2189,-131.5254 446.1826,-140.8855 450.9363,-135.7471"/>
</g>
<!-- Node18&#45;&gt;Node19 -->
<g id="edge23" class="edge">
<title>Node18&#45;&gt;Node19</title>
<path fill="none" stroke="#191970" d="M703.9568,-224.3733C722.9738,-215.4241 751.5175,-201.9917 772.9976,-191.8835"/>
<polygon fill="#191970" stroke="#191970" points="774.7522,-194.926 782.3101,-187.5011 771.7716,-188.5923 774.7522,-194.926"/>
</g>
<!-- Node19&#45;&gt;Node7 -->
<g id="edge25" class="edge">
<title>Node19&#45;&gt;Node7</title>
<path fill="none" stroke="#191970" d="M841.1678,-169.4306C843.9812,-168.9123 846.7805,-168.4283 849.5,-168 996.679,-144.8207 1173.098,-130.5876 1252.7557,-124.8808"/>
<polygon fill="#191970" stroke="#191970" points="1253.1606,-128.3609 1262.8885,-124.1636 1252.6663,-121.3784 1253.1606,-128.3609"/>
</g>
<!-- Node19&#45;&gt;Node13 -->
<g id="edge26" class="edge">
<title>Node19&#45;&gt;Node13</title>
<path fill="none" stroke="#191970" d="M793.6165,-168.2455C786.3034,-160.2155 775.7609,-148.6394 767.0533,-139.0781"/>
<polygon fill="#191970" stroke="#191970" points="769.6028,-136.6795 760.2817,-131.6427 764.4273,-141.3928 769.6028,-136.6795"/>
</g>
<!-- Node19&#45;&gt;Node15 -->
<g id="edge24" class="edge">
<title>Node19&#45;&gt;Node15</title>
<path fill="none" stroke="#191970" d="M814.8673,-168.2455C825.4554,-159.8943 840.9064,-147.7076 853.2893,-137.9408"/>
<polygon fill="#191970" stroke="#191970" points="855.5903,-140.5837 861.2745,-131.6427 851.2553,-135.0875 855.5903,-140.5837"/>
</g>
<!-- Node20&#45;&gt;Node21 -->
<g id="edge30" class="edge">
<title>Node20&#45;&gt;Node21</title>
<path fill="none" stroke="#191970" d="M205.5,-224.2455C205.5,-216.9382 205.5,-206.6944 205.5,-197.7046"/>
<polygon fill="#191970" stroke="#191970" points="209.0001,-197.6426 205.5,-187.6427 202.0001,-197.6427 209.0001,-197.6426"/>
</g>
<!-- Node22 -->
<g id="node23" class="node">
<title>Node22</title>
<g id="a_node23"><a doxygen="/w/doc/cppreference-doxygen-web.tag.xml:http://en.cppreference.com/w/" xlink:href="http://en.cppreference.com/w/cpp/header/sstream.html" xlink:title=" ">
<polygon fill="#ffffff" stroke="#000000" points="157,-112.5 157,-131.5 216,-131.5 216,-112.5 157,-112.5"/>
<text text-anchor="middle" x="186.5" y="-119.5" font-family="'Consolas',monospace" font-size="10.00" fill="#000000">sstream</text>
</a>
</g>
</g>
<!-- Node20&#45;&gt;Node22 -->
<g id="edge32" class="edge">
<title>Node20&#45;&gt;Node22</title>
<path fill="none" stroke="#191970" d="M188.7627,-224.2988C176.7416,-216.2823 161.477,-203.6887 154.5,-188 147.044,-171.2341 158.1196,-152.4321 169.2274,-139.1979"/>
<polygon fill="#191970" stroke="#191970" points="171.86,-141.5051 175.9824,-131.7452 166.6734,-136.8041 171.86,-141.5051"/>
</g>
<!-- Node21&#45;&gt;Node3 -->
<g id="edge31" class="edge">
<title>Node21&#45;&gt;Node3</title>
<path fill="none" stroke="#191970" d="M244.094,-168.4369C286.2824,-157.9831 353.3799,-141.3572 394.8032,-131.093"/>
<polygon fill="#191970" stroke="#191970" points="395.8859,-134.4307 404.7506,-128.6282 394.2023,-127.6361 395.8859,-134.4307"/>
</g>
<!-- Node23&#45;&gt;Node2 -->
<g id="edge36" class="edge">
<title>Node23&#45;&gt;Node2</title>
<path fill="none" stroke="#191970" d="M1391.2583,-224.4161C1387.6545,-200.8673 1374.885,-140.052 1336.5,-112 1309.4261,-92.2143 1086.8249,-74.757 997.4406,-68.477"/>
<polygon fill="#191970" stroke="#191970" points="997.4412,-64.9687 987.2226,-67.7672 996.956,-71.9519 997.4412,-64.9687"/>
</g>
<!-- Node23&#45;&gt;Node4 -->
<g id="edge34" class="edge">
<title>Node23&#45;&gt;Node4</title>
<path fill="none" stroke="#191970" d="M1403.1254,-224.2455C1412.0473,-216.0549 1424.988,-204.1749 1435.5192,-194.5069"/>
<polygon fill="#191970" stroke="#191970" points="1437.9968,-196.9837 1442.9964,-187.6427 1433.2629,-191.8271 1437.9968,-196.9837"/>
</g>
<!-- Node23&#45;&gt;Node7 -->
<g id="edge35" class="edge">
<title>Node23&#45;&gt;Node7</title>
<path fill="none" stroke="#191970" d="M1384.2298,-224.4509C1367.8366,-205.5227 1331.0211,-163.014 1310.334,-139.1279"/>
<polygon fill="#191970" stroke="#191970" points="1312.9417,-136.7927 1303.7492,-131.5249 1307.6503,-141.3754 1312.9417,-136.7927"/>
</g>
<!-- Node24&#45;&gt;Node2 -->
<g id="edge40" class="edge">
<title>Node24&#45;&gt;Node2</title>
<path fill="none" stroke="#191970" d="M1064.271,-168.4446C1064.8789,-154.6032 1064.0411,-128.7981 1051.5,-112 1038.1529,-94.1223 1015.892,-82.6983 996.729,-75.7067"/>
<polygon fill="#191970" stroke="#191970" points="997.6481,-72.323 987.054,-72.4438 995.4111,-78.956 997.6481,-72.323"/>
</g>
<!-- Node24&#45;&gt;Node7 -->
<g id="edge39" class="edge">
<title>Node24&#45;&gt;Node7</title>
<path fill="none" stroke="#191970" d="M1103.1186,-168.4369C1144.8134,-158.3726 1210.2085,-142.5876 1252.9686,-132.2662"/>
<polygon fill="#191970" stroke="#191970" points="1253.8928,-135.6437 1262.7924,-129.8949 1252.2503,-128.8391 1253.8928,-135.6437"/>
</g>
<!-- Node24&#45;&gt;Node16 -->
<g id="edge38" class="edge">
<title>Node24&#45;&gt;Node16</title>
<path fill="none" stroke="#191970" d="M1047.386,-168.4509C1014.3287,-148.8615 938.6507,-104.0152 899.297,-80.6945"/>
<polygon fill="#191970" stroke="#191970" points="900.9605,-77.6119 890.5732,-75.5249 897.3919,-83.634 900.9605,-77.6119"/>
</g>
<!-- Node25&#45;&gt;Node2 -->
<g id="edge43" class="edge">
<title>Node25&#45;&gt;Node2</title>
<path fill="none" stroke="#191970" d="M903.6591,-168.4621C915.5995,-160.1988 931.7976,-147.1991 941.5,-132 950.5111,-117.8838 955.3537,-99.3904 957.8893,-85.572"/>
<polygon fill="#191970" stroke="#191970" points="961.3507,-86.0906 959.4638,-75.6651 954.4375,-84.9918 961.3507,-86.0906"/>
</g>
<!-- Node26&#45;&gt;Node16 -->
<g id="edge45" class="edge">
<title>Node26&#45;&gt;Node16</title>
<path fill="none" stroke="#191970" d="M353.9466,-225.5968C321.2776,-215.4037 277.99,-196.032 294.5,-168 320.548,-123.7736 346.4805,-127.2171 395.5,-112 474.1629,-87.5806 715.8288,-73.4882 822.7223,-68.3017"/>
<polygon fill="#191970" stroke="#191970" points="823.1201,-71.7868 832.9415,-67.8131 822.7858,-64.7948 823.1201,-71.7868"/>
</g>
<!-- Node26&#45;&gt;Node27 -->
<g id="edge46" class="edge">
<title>Node26&#45;&gt;Node27</title>
<path fill="none" stroke="#191970" d="M378.3132,-224.2455C371.6411,-216.2958 362.0521,-204.8706 354.0747,-195.3656"/>
<polygon fill="#191970" stroke="#191970" points="356.7026,-193.0524 347.593,-187.6427 351.3408,-197.5525 356.7026,-193.0524"/>
</g>
<!-- Node26&#45;&gt;Node28 -->
<g id="edge50" class="edge">
<title>Node26&#45;&gt;Node28</title>
<path fill="none" stroke="#191970" d="M394.3384,-224.2455C400.662,-216.3761 409.7224,-205.101 417.3136,-195.6542"/>
<polygon fill="#191970" stroke="#191970" points="420.2158,-197.6302 423.7514,-187.6427 414.7592,-193.2454 420.2158,-197.6302"/>
</g>
<!-- Node27&#45;&gt;Node3 -->
<g id="edge48" class="edge">
<title>Node27&#45;&gt;Node3</title>
<path fill="none" stroke="#191970" d="M355.5252,-168.2455C369.6408,-159.6534 390.4263,-147.0014 406.6899,-137.1018"/>
<polygon fill="#191970" stroke="#191970" points="408.9363,-139.8319 415.6585,-131.6427 405.2966,-133.8525 408.9363,-139.8319"/>
</g>
<!-- Node27&#45;&gt;Node11 -->
<g id="edge49" class="edge">
<title>Node27&#45;&gt;Node11</title>
<path fill="none" stroke="#191970" d="M375.0078,-169.9169C421.272,-159.3852 501.7757,-141.0592 548.6779,-130.3823"/>
<polygon fill="#191970" stroke="#191970" points="549.74,-133.7301 558.7137,-128.0977 548.1862,-126.9047 549.74,-133.7301"/>
</g>
<!-- Node27&#45;&gt;Node22 -->
<g id="edge47" class="edge">
<title>Node27&#45;&gt;Node22</title>
<path fill="none" stroke="#191970" d="M313.1984,-168.3733C288.0872,-159.1822 250.0562,-145.2624 222.2128,-135.0713"/>
<polygon fill="#191970" stroke="#191970" points="223.0522,-131.6516 212.4584,-131.5011 220.6462,-138.2251 223.0522,-131.6516"/>
</g>
<!-- Node28&#45;&gt;Node3 -->
<g id="edge51" class="edge">
<title>Node28&#45;&gt;Node3</title>
<path fill="none" stroke="#191970" d="M431.5,-168.2455C431.5,-160.9382 431.5,-150.6944 431.5,-141.7046"/>
<polygon fill="#191970" stroke="#191970" points="435.0001,-141.6426 431.5,-131.6427 428.0001,-141.6427 435.0001,-141.6426"/>
</g>
<!-- Node30&#45;&gt;Node7 -->
<g id="edge56" class="edge">
<title>Node30&#45;&gt;Node7</title>
<path fill="none" stroke="#191970" d="M1302.8179,-224.4509C1301.5131,-206.184 1298.6397,-165.9553 1296.907,-141.6976"/>
<polygon fill="#191970" stroke="#191970" points="1300.384,-141.2501 1296.1803,-131.5249 1293.4018,-141.7489 1300.384,-141.2501"/>
</g>
<!-- Node31&#45;&gt;Node4 -->
<g id="edge58" class="edge">
<title>Node31&#45;&gt;Node4</title>
<path fill="none" stroke="#191970" d="M1577.7141,-224.3733C1553.0953,-215.1822 1515.81,-201.2624 1488.5125,-191.0713"/>
<polygon fill="#191970" stroke="#191970" points="1489.542,-187.7198 1478.9494,-187.5011 1487.0937,-194.2777 1489.542,-187.7198"/>
</g>
<!-- Node31&#45;&gt;Node7 -->
<g id="edge59" class="edge">
<title>Node31&#45;&gt;Node7</title>
<path fill="none" stroke="#191970" d="M1591.1953,-224.4077C1572.1693,-210.039 1533.9861,-183.015 1497.5,-168 1444.9139,-146.3595 1380.2357,-133.9038 1338.4579,-127.542"/>
<polygon fill="#191970" stroke="#191970" points="1338.7544,-124.048 1328.3512,-126.054 1337.7347,-130.9733 1338.7544,-124.048"/>
</g>
<!-- Node32&#45;&gt;Node3 -->
<g id="edge61" class="edge">
<title>Node32&#45;&gt;Node3</title>
<path fill="none" stroke="#191970" d="M107.0034,-172.4772C175.5063,-161.8212 325.2763,-138.5237 394.7512,-127.7165"/>
<polygon fill="#191970" stroke="#191970" points="395.4509,-131.1498 404.794,-126.1543 394.3749,-124.233 395.4509,-131.1498"/>
</g>
<!-- Node33&#45;&gt;Node2 -->
<g id="edge65" class="edge">
<title>Node33&#45;&gt;Node2</title>
<path fill="none" stroke="#191970" d="M637.658,-168.0966C639.9505,-153.3215 646.5153,-125.7739 664.5,-112 708.6375,-78.1967 852.947,-86.8756 923.9389,-75.6365"/>
<polygon fill="#191970" stroke="#191970" points="924.6511,-79.0644 933.8604,-73.8263 923.3946,-72.1781 924.6511,-79.0644"/>
</g>
<!-- Node33&#45;&gt;Node3 -->
<g id="edge66" class="edge">
<title>Node33&#45;&gt;Node3</title>
<path fill="none" stroke="#191970" d="M603.5632,-169.0026C566.4721,-158.8704 506.3706,-142.4524 467.9108,-131.9464"/>
<polygon fill="#191970" stroke="#191970" points="468.7196,-128.5391 458.1507,-129.2802 466.8749,-135.2917 468.7196,-128.5391"/>
</g>
<!-- Node33&#45;&gt;Node11 -->
<g id="edge67" class="edge">
<title>Node33&#45;&gt;Node11</title>
<path fill="none" stroke="#191970" d="M627.6165,-168.2455C620.3034,-160.2155 609.7609,-148.6394 601.0533,-139.0781"/>
<polygon fill="#191970" stroke="#191970" points="603.6028,-136.6795 594.2817,-131.6427 598.4273,-141.3928 603.6028,-136.6795"/>
</g>
<!-- Node33&#45;&gt;Node13 -->
<g id="edge64" class="edge">
<title>Node33&#45;&gt;Node13</title>
<path fill="none" stroke="#191970" d="M656.2692,-168.3733C674.6469,-159.4241 702.2312,-145.9917 722.9893,-135.8835"/>
<polygon fill="#191970" stroke="#191970" points="724.5304,-139.026 731.9888,-131.5011 721.4657,-132.7325 724.5304,-139.026"/>
</g>
<!-- Node35&#45;&gt;Node2 -->
<g id="edge72" class="edge">
<title>Node35&#45;&gt;Node2</title>
<path fill="none" stroke="#191970" d="M895.6621,-224.4317C913.9492,-207.8634 949.3726,-171.7686 960.5,-132 964.7453,-116.8275 964.4302,-98.9135 963.2289,-85.58"/>
<polygon fill="#191970" stroke="#191970" points="966.7034,-85.1566 962.092,-75.6179 959.7485,-85.9503 966.7034,-85.1566"/>
</g>
<!-- Node35&#45;&gt;Node25 -->
<g id="edge71" class="edge">
<title>Node35&#45;&gt;Node25</title>
<path fill="none" stroke="#191970" d="M885.1967,-224.2455C885.7187,-216.9382 886.4504,-206.6944 887.0925,-197.7046"/>
<polygon fill="#191970" stroke="#191970" points="890.5898,-197.8667 887.8112,-187.6427 883.6076,-197.3679 890.5898,-197.8667"/>
</g>
</g>
</svg>
