<?xml version="1.0" encoding="UTF-8" standalone="no"?>
<!DOCTYPE svg PUBLIC "-//W3C//DTD SVG 1.1//EN"
 "http://www.w3.org/Graphics/SVG/1.1/DTD/svg11.dtd">
<!-- Generated by graphviz version 2.38.0 (20140413.2041)
 -->
<!-- Title: jngl/all.hpp Pages: 1 -->
<svg width="1880pt" height="308pt"
 viewBox="0.00 0.00 1880.00 308.00" xmlns="http://www.w3.org/2000/svg" xmlns:xlink="http://www.w3.org/1999/xlink">
<g id="graph0" class="graph" transform="scale(1 1) rotate(0) translate(4 304)">
<title>jngl/all.hpp</title>
<polygon fill="white" stroke="none" points="-4,4 -4,-304 1876,-304 1876,4 -4,4"/>
<!-- Node1 -->
<g id="node1" class="node"><title>Node1</title>
<polygon fill="#bfbfbf" stroke="black" points="956,-280.5 956,-299.5 1045,-299.5 1045,-280.5 956,-280.5"/>
<text text-anchor="middle" x="1000.5" y="-287.5" font-family="'Consolas',monospace" font-size="10.00">jngl/all.hpp</text>
</g>
<!-- Node2 -->
<g id="node2" class="node"><title>Node2</title>
<g id="a_node2"><a xlink:href="Shader_8hpp_source.html" target="_top" xlink:title="Shader.hpp">
<polygon fill="white" stroke="black" points="116,-112.5 116,-131.5 193,-131.5 193,-112.5 116,-112.5"/>
<text text-anchor="middle" x="154.5" y="-119.5" font-family="'Consolas',monospace" font-size="10.00">Shader.hpp</text>
</a>
</g>
</g>
<!-- Node1&#45;&gt;Node2 -->
<g id="edge1" class="edge"><title>Node1&#45;&gt;Node2</title>
<path fill="none" stroke="midnightblue" d="M955.995,-287.101C842.974,-281.999 547.077,-266.816 451.5,-244 346.404,-218.912 229.974,-162.328 179.788,-136.416"/>
<polygon fill="midnightblue" stroke="midnightblue" points="181.143,-133.175 170.657,-131.661 177.909,-139.384 181.143,-133.175"/>
</g>
<!-- Node5 -->
<g id="node5" class="node"><title>Node5</title>
<g id="a_node5"><a xlink:href="ShaderProgram_8hpp_source.html" target="_top" xlink:title="ShaderProgram.hpp">
<polygon fill="white" stroke="black" points="364,-112.5 364,-131.5 483,-131.5 483,-112.5 364,-112.5"/>
<text text-anchor="middle" x="423.5" y="-119.5" font-family="'Consolas',monospace" font-size="10.00">ShaderProgram.hpp</text>
</a>
</g>
</g>
<!-- Node1&#45;&gt;Node5 -->
<g id="edge4" class="edge"><title>Node1&#45;&gt;Node5</title>
<path fill="none" stroke="midnightblue" d="M955.635,-289.338C845.483,-289.502 564.72,-285.694 482.5,-244 453.004,-229.043 447.459,-217.981 433.5,-188 426.791,-173.59 424.421,-155.63 423.656,-142.242"/>
<polygon fill="midnightblue" stroke="midnightblue" points="427.142,-141.743 423.327,-131.859 420.145,-141.964 427.142,-141.743"/>
</g>
<!-- Node8 -->
<g id="node8" class="node"><title>Node8</title>
<g id="a_node8"><a xlink:href="Vertex_8hpp_source.html" target="_top" xlink:title="Vertex.hpp">
<polygon fill="white" stroke="black" points="1272,-224.5 1272,-243.5 1349,-243.5 1349,-224.5 1272,-224.5"/>
<text text-anchor="middle" x="1310.5" y="-231.5" font-family="'Consolas',monospace" font-size="10.00">Vertex.hpp</text>
</a>
</g>
</g>
<!-- Node1&#45;&gt;Node8 -->
<g id="edge9" class="edge"><title>Node1&#45;&gt;Node8</title>
<path fill="none" stroke="midnightblue" d="M1045.25,-281.206C1102.78,-271.183 1202.34,-253.84 1261.75,-243.491"/>
<polygon fill="midnightblue" stroke="midnightblue" points="1262.39,-246.932 1271.65,-241.768 1261.19,-240.036 1262.39,-246.932"/>
</g>
<!-- Node12 -->
<g id="node12" class="node"><title>Node12</title>
<g id="a_node12"><a xlink:href="color_8hpp.html" target="_top" xlink:title="color.hpp">
<polygon fill="white" stroke="black" points="1360,-112.5 1360,-131.5 1431,-131.5 1431,-112.5 1360,-112.5"/>
<text text-anchor="middle" x="1395.5" y="-119.5" font-family="'Consolas',monospace" font-size="10.00">color.hpp</text>
</a>
</g>
</g>
<!-- Node1&#45;&gt;Node12 -->
<g id="edge14" class="edge"><title>Node1&#45;&gt;Node12</title>
<path fill="none" stroke="midnightblue" d="M1045.32,-289.194C1130.42,-288.645 1311.06,-282.798 1357.5,-244 1387.96,-218.555 1394.36,-168.955 1395.49,-141.83"/>
<polygon fill="midnightblue" stroke="midnightblue" points="1398.99,-141.788 1395.7,-131.716 1391.99,-141.64 1398.99,-141.788"/>
</g>
<!-- Node13 -->
<g id="node13" class="node"><title>Node13</title>
<g id="a_node13"><a xlink:href="Controller_8hpp_source.html" target="_top" xlink:title="Controller.hpp">
<polygon fill="white" stroke="black" points="1067,-224.5 1067,-243.5 1168,-243.5 1168,-224.5 1067,-224.5"/>
<text text-anchor="middle" x="1117.5" y="-231.5" font-family="'Consolas',monospace" font-size="10.00">Controller.hpp</text>
</a>
</g>
</g>
<!-- Node1&#45;&gt;Node13 -->
<g id="edge16" class="edge"><title>Node1&#45;&gt;Node13</title>
<path fill="none" stroke="midnightblue" d="M1019.04,-280.444C1038.12,-271.636 1068.07,-257.812 1089.94,-247.722"/>
<polygon fill="midnightblue" stroke="midnightblue" points="1091.43,-250.885 1099.05,-243.516 1088.5,-244.529 1091.43,-250.885"/>
</g>
<!-- Node14 -->
<g id="node14" class="node"><title>Node14</title>
<g id="a_node14"><a xlink:href="input_8hpp.html" target="_top" xlink:title="input.hpp">
<polygon fill="white" stroke="black" points="1070,-168.5 1070,-187.5 1141,-187.5 1141,-168.5 1070,-168.5"/>
<text text-anchor="middle" x="1105.5" y="-175.5" font-family="'Consolas',monospace" font-size="10.00">input.hpp</text>
</a>
</g>
</g>
<!-- Node1&#45;&gt;Node14 -->
<g id="edge38" class="edge"><title>Node1&#45;&gt;Node14</title>
<path fill="none" stroke="midnightblue" d="M1007.62,-280.349C1018.17,-267.665 1038.72,-243.418 1057.5,-224 1067.33,-213.84 1078.87,-202.987 1088.17,-194.486"/>
<polygon fill="midnightblue" stroke="midnightblue" points="1090.61,-197.002 1095.67,-187.696 1085.91,-191.813 1090.61,-197.002"/>
</g>
<!-- Node16 -->
<g id="node16" class="node"><title>Node16</title>
<g id="a_node16"><a xlink:href="debug_8hpp_source.html" target="_top" xlink:title="debug.hpp">
<polygon fill="white" stroke="black" points="780,-224.5 780,-243.5 851,-243.5 851,-224.5 780,-224.5"/>
<text text-anchor="middle" x="815.5" y="-231.5" font-family="'Consolas',monospace" font-size="10.00">debug.hpp</text>
</a>
</g>
</g>
<!-- Node1&#45;&gt;Node16 -->
<g id="edge22" class="edge"><title>Node1&#45;&gt;Node16</title>
<path fill="none" stroke="midnightblue" d="M971.186,-280.444C939.658,-271.241 889.369,-256.562 854.514,-246.388"/>
<polygon fill="midnightblue" stroke="midnightblue" points="855.257,-242.959 844.677,-243.516 853.295,-249.678 855.257,-242.959"/>
</g>
<!-- Node17 -->
<g id="node17" class="node"><title>Node17</title>
<g id="a_node17"><a xlink:href="message_8hpp_source.html" target="_top" xlink:title="message.hpp">
<polygon fill="white" stroke="black" points="874,-168.5 874,-187.5 957,-187.5 957,-168.5 874,-168.5"/>
<text text-anchor="middle" x="915.5" y="-175.5" font-family="'Consolas',monospace" font-size="10.00">message.hpp</text>
</a>
</g>
</g>
<!-- Node1&#45;&gt;Node17 -->
<g id="edge53" class="edge"><title>Node1&#45;&gt;Node17</title>
<path fill="none" stroke="midnightblue" d="M993.83,-280.368C979.741,-262.135 946.738,-219.426 928.385,-195.675"/>
<polygon fill="midnightblue" stroke="midnightblue" points="931.023,-193.364 922.139,-187.591 925.484,-197.644 931.023,-193.364"/>
</g>
<!-- Node20 -->
<g id="node20" class="node"><title>Node20</title>
<g id="a_node20"><a xlink:href="drawable_8hpp_source.html" target="_top" xlink:title="drawable.hpp">
<polygon fill="white" stroke="black" points="578,-112.5 578,-131.5 667,-131.5 667,-112.5 578,-112.5"/>
<text text-anchor="middle" x="622.5" y="-119.5" font-family="'Consolas',monospace" font-size="10.00">drawable.hpp</text>
</a>
</g>
</g>
<!-- Node1&#45;&gt;Node20 -->
<g id="edge27" class="edge"><title>Node1&#45;&gt;Node20</title>
<path fill="none" stroke="midnightblue" d="M955.635,-289.103C832.112,-288.225 492.843,-277.579 442.5,-188 414.552,-138.27 505.056,-126.008 567.698,-123.325"/>
<polygon fill="midnightblue" stroke="midnightblue" points="568.007,-126.816 577.876,-122.961 567.757,-119.821 568.007,-126.816"/>
</g>
<!-- Node21 -->
<g id="node21" class="node"><title>Node21</title>
<g id="a_node21"><a xlink:href="types_8hpp_source.html" target="_top" xlink:title="types.hpp">
<polygon fill="white" stroke="black" points="1542,-56.5 1542,-75.5 1613,-75.5 1613,-56.5 1542,-56.5"/>
<text text-anchor="middle" x="1577.5" y="-63.5" font-family="'Consolas',monospace" font-size="10.00">types.hpp</text>
</a>
</g>
</g>
<!-- Node1&#45;&gt;Node21 -->
<g id="edge83" class="edge"><title>Node1&#45;&gt;Node21</title>
<path fill="none" stroke="midnightblue" d="M1045.34,-288.07C1166.13,-285.166 1491.69,-274.557 1528.5,-244 1553.05,-223.615 1569.17,-126.884 1575.03,-85.6688"/>
<polygon fill="midnightblue" stroke="midnightblue" points="1578.52,-86.0091 1576.41,-75.6259 1571.58,-85.0566 1578.52,-86.0091"/>
</g>
<!-- Node22 -->
<g id="node22" class="node"><title>Node22</title>
<g id="a_node22"><a xlink:href="font_8hpp.html" target="_top" xlink:title="font.hpp">
<polygon fill="white" stroke="black" points="1248,-168.5 1248,-187.5 1313,-187.5 1313,-168.5 1248,-168.5"/>
<text text-anchor="middle" x="1280.5" y="-175.5" font-family="'Consolas',monospace" font-size="10.00">font.hpp</text>
</a>
</g>
</g>
<!-- Node1&#45;&gt;Node22 -->
<g id="edge30" class="edge"><title>Node1&#45;&gt;Node22</title>
<path fill="none" stroke="midnightblue" d="M1045.37,-284.432C1086.54,-278.946 1148.41,-267.381 1197.5,-244 1223.67,-231.535 1249.23,-209.612 1264.92,-194.706"/>
<polygon fill="midnightblue" stroke="midnightblue" points="1267.45,-197.124 1272.17,-187.639 1262.57,-192.111 1267.45,-197.124"/>
</g>
<!-- Node23 -->
<g id="node23" class="node"><title>Node23</title>
<g id="a_node23"><a xlink:href="framebuffer_8hpp_source.html" target="_top" xlink:title="framebuffer.hpp">
<polygon fill="white" stroke="black" points="1670,-56.5 1670,-75.5 1777,-75.5 1777,-56.5 1670,-56.5"/>
<text text-anchor="middle" x="1723.5" y="-63.5" font-family="'Consolas',monospace" font-size="10.00">framebuffer.hpp</text>
</a>
</g>
</g>
<!-- Node1&#45;&gt;Node23 -->
<g id="edge36" class="edge"><title>Node1&#45;&gt;Node23</title>
<path fill="none" stroke="midnightblue" d="M1045,-288.881C1164.93,-288.047 1492.49,-282.23 1592.5,-244 1630.7,-229.399 1639.73,-219.752 1665.5,-188 1691.46,-156.013 1709.23,-110.482 1717.74,-85.3811"/>
<polygon fill="midnightblue" stroke="midnightblue" points="1721.13,-86.2822 1720.9,-75.6897 1714.47,-84.1087 1721.13,-86.2822"/>
</g>
<!-- Node24 -->
<g id="node24" class="node"><title>Node24</title>
<g id="a_node24"><a xlink:href="job_8hpp.html" target="_top" xlink:title="job.hpp">
<polygon fill="white" stroke="black" points="0,-112.5 0,-131.5 59,-131.5 59,-112.5 0,-112.5"/>
<text text-anchor="middle" x="29.5" y="-119.5" font-family="'Consolas',monospace" font-size="10.00">job.hpp</text>
</a>
</g>
</g>
<!-- Node1&#45;&gt;Node24 -->
<g id="edge39" class="edge"><title>Node1&#45;&gt;Node24</title>
<path fill="none" stroke="midnightblue" d="M955.805,-287.91C797.519,-283.857 269.233,-268.606 197.5,-244 133.135,-221.921 72.0928,-166.327 44.6581,-138.86"/>
<polygon fill="midnightblue" stroke="midnightblue" points="47.0462,-136.297 37.5452,-131.608 42.0486,-141.198 47.0462,-136.297"/>
</g>
<!-- Node25 -->
<g id="node25" class="node"><title>Node25</title>
<g id="a_node25"><a xlink:href="main_8hpp_source.html" target="_top" xlink:title="main.hpp">
<polygon fill="white" stroke="black" points="869,-224.5 869,-243.5 934,-243.5 934,-224.5 869,-224.5"/>
<text text-anchor="middle" x="901.5" y="-231.5" font-family="'Consolas',monospace" font-size="10.00">main.hpp</text>
</a>
</g>
</g>
<!-- Node1&#45;&gt;Node25 -->
<g id="edge42" class="edge"><title>Node1&#45;&gt;Node25</title>
<path fill="none" stroke="midnightblue" d="M984.594,-280.324C968.862,-271.743 944.558,-258.486 926.291,-248.522"/>
<polygon fill="midnightblue" stroke="midnightblue" points="927.822,-245.37 917.367,-243.655 924.47,-251.516 927.822,-245.37"/>
</g>
<!-- Node26 -->
<g id="node26" class="node"><title>Node26</title>
<g id="a_node26"><a xlink:href="other_8hpp.html" target="_top" xlink:title="other.hpp">
<polygon fill="white" stroke="black" points="785,-168.5 785,-187.5 856,-187.5 856,-168.5 785,-168.5"/>
<text text-anchor="middle" x="820.5" y="-175.5" font-family="'Consolas',monospace" font-size="10.00">other.hpp</text>
</a>
</g>
</g>
<!-- Node1&#45;&gt;Node26 -->
<g id="edge54" class="edge"><title>Node1&#45;&gt;Node26</title>
<path fill="none" stroke="midnightblue" d="M955.866,-286.799C895.721,-282.791 793.517,-271.956 770.5,-244 756.375,-226.843 778.064,-206.443 797.145,-193.133"/>
<polygon fill="midnightblue" stroke="midnightblue" points="799.175,-195.986 805.59,-187.554 795.317,-190.146 799.175,-195.986"/>
</g>
<!-- Node27 -->
<g id="node27" class="node"><title>Node27</title>
<g id="a_node27"><a xlink:href="window_8hpp.html" target="_top" xlink:title="Functions related to the main window. ">
<polygon fill="white" stroke="black" points="975,-168.5 975,-187.5 1052,-187.5 1052,-168.5 975,-168.5"/>
<text text-anchor="middle" x="1013.5" y="-175.5" font-family="'Consolas',monospace" font-size="10.00">window.hpp</text>
</a>
</g>
</g>
<!-- Node1&#45;&gt;Node27 -->
<g id="edge88" class="edge"><title>Node1&#45;&gt;Node27</title>
<path fill="none" stroke="midnightblue" d="M1001.52,-280.368C1003.62,-262.617 1008.46,-221.666 1011.3,-197.597"/>
<polygon fill="midnightblue" stroke="midnightblue" points="1014.79,-197.933 1012.48,-187.591 1007.84,-197.112 1014.79,-197.933"/>
</g>
<!-- Node28 -->
<g id="node28" class="node"><title>Node28</title>
<g id="a_node28"><a xlink:href="matrix_8hpp_source.html" target="_top" xlink:title="matrix.hpp">
<polygon fill="white" stroke="black" points="1795,-56.5 1795,-75.5 1872,-75.5 1872,-56.5 1795,-56.5"/>
<text text-anchor="middle" x="1833.5" y="-63.5" font-family="'Consolas',monospace" font-size="10.00">matrix.hpp</text>
</a>
</g>
</g>
<!-- Node1&#45;&gt;Node28 -->
<g id="edge51" class="edge"><title>Node1&#45;&gt;Node28</title>
<path fill="none" stroke="midnightblue" d="M1045.4,-289.38C1170.58,-289.873 1521.17,-287.247 1626.5,-244 1713.6,-208.239 1790.44,-121.021 1820.29,-84.0321"/>
<polygon fill="midnightblue" stroke="midnightblue" points="1823.37,-85.7817 1826.84,-75.7723 1817.88,-81.4312 1823.37,-85.7817"/>
</g>
<!-- Node29 -->
<g id="node29" class="node"><title>Node29</title>
<g id="a_node29"><a xlink:href="screen_8hpp.html" target="_top" xlink:title="screen.hpp">
<polygon fill="white" stroke="black" points="1580,-168.5 1580,-187.5 1657,-187.5 1657,-168.5 1580,-168.5"/>
<text text-anchor="middle" x="1618.5" y="-175.5" font-family="'Consolas',monospace" font-size="10.00">screen.hpp</text>
</a>
</g>
</g>
<!-- Node1&#45;&gt;Node29 -->
<g id="edge55" class="edge"><title>Node1&#45;&gt;Node29</title>
<path fill="none" stroke="midnightblue" d="M1045.13,-287.455C1170.53,-282.834 1519.86,-267.941 1565.5,-244 1585.39,-233.569 1600.55,-212.117 1609.46,-196.707"/>
<polygon fill="midnightblue" stroke="midnightblue" points="1612.69,-198.087 1614.4,-187.631 1606.54,-194.74 1612.69,-198.087"/>
</g>
<!-- Node30 -->
<g id="node30" class="node"><title>Node30</title>
<g id="a_node30"><a xlink:href="shapes_8hpp.html" target="_top" xlink:title="shapes.hpp">
<polygon fill="white" stroke="black" points="1408,-168.5 1408,-187.5 1485,-187.5 1485,-168.5 1408,-168.5"/>
<text text-anchor="middle" x="1446.5" y="-175.5" font-family="'Consolas',monospace" font-size="10.00">shapes.hpp</text>
</a>
</g>
</g>
<!-- Node1&#45;&gt;Node30 -->
<g id="edge59" class="edge"><title>Node1&#45;&gt;Node30</title>
<path fill="none" stroke="midnightblue" d="M1045.07,-288.074C1134.94,-285.537 1334.37,-276.329 1393.5,-244 1413.2,-233.227 1428.4,-211.845 1437.37,-196.545"/>
<polygon fill="midnightblue" stroke="midnightblue" points="1440.57,-197.987 1442.35,-187.542 1434.45,-194.598 1440.57,-197.987"/>
</g>
<!-- Node31 -->
<g id="node31" class="node"><title>Node31</title>
<g id="a_node31"><a xlink:href="sound_8hpp_source.html" target="_top" xlink:title="sound.hpp">
<polygon fill="white" stroke="black" points="1159,-168.5 1159,-187.5 1230,-187.5 1230,-168.5 1159,-168.5"/>
<text text-anchor="middle" x="1194.5" y="-175.5" font-family="'Consolas',monospace" font-size="10.00">sound.hpp</text>
</a>
</g>
</g>
<!-- Node1&#45;&gt;Node31 -->
<g id="edge63" class="edge"><title>Node1&#45;&gt;Node31</title>
<path fill="none" stroke="midnightblue" d="M1045.15,-289.475C1084.8,-287.44 1141.7,-278.112 1176.5,-244 1188.77,-231.969 1192.89,-212.369 1194.17,-197.833"/>
<polygon fill="midnightblue" stroke="midnightblue" points="1197.68,-197.665 1194.69,-187.502 1190.69,-197.314 1197.68,-197.665"/>
</g>
<!-- Node32 -->
<g id="node32" class="node"><title>Node32</title>
<g id="a_node32"><a xlink:href="sprite_8hpp_source.html" target="_top" xlink:title="sprite.hpp">
<polygon fill="white" stroke="black" points="535,-168.5 535,-187.5 612,-187.5 612,-168.5 535,-168.5"/>
<text text-anchor="middle" x="573.5" y="-175.5" font-family="'Consolas',monospace" font-size="10.00">sprite.hpp</text>
</a>
</g>
</g>
<!-- Node1&#45;&gt;Node32 -->
<g id="edge66" class="edge"><title>Node1&#45;&gt;Node32</title>
<path fill="none" stroke="midnightblue" d="M955.767,-282.519C907.608,-275.084 828.96,-261.613 762.5,-244 705.935,-229.01 641.875,-205.561 604.743,-191.304"/>
<polygon fill="midnightblue" stroke="midnightblue" points="605.602,-187.884 595.012,-187.541 603.077,-194.412 605.602,-187.884"/>
</g>
<!-- Node33 -->
<g id="node33" class="node"><title>Node33</title>
<g id="a_node33"><a xlink:href="text_8hpp.html" target="_top" xlink:title="text.hpp">
<polygon fill="white" stroke="black" points="452,-168.5 452,-187.5 517,-187.5 517,-168.5 452,-168.5"/>
<text text-anchor="middle" x="484.5" y="-175.5" font-family="'Consolas',monospace" font-size="10.00">text.hpp</text>
</a>
</g>
</g>
<!-- Node1&#45;&gt;Node33 -->
<g id="edge75" class="edge"><title>Node1&#45;&gt;Node33</title>
<path fill="none" stroke="midnightblue" d="M955.884,-287.273C860.878,-283.116 641.624,-270.848 572.5,-244 544.155,-232.991 516.847,-210.331 500.364,-194.897"/>
<polygon fill="midnightblue" stroke="midnightblue" points="502.41,-192.009 492.783,-187.586 497.551,-197.047 502.41,-192.009"/>
</g>
<!-- Node34 -->
<g id="node34" class="node"><title>Node34</title>
<g id="a_node34"><a xlink:href="time_8hpp_source.html" target="_top" xlink:title="time.hpp">
<polygon fill="white" stroke="black" points="1455,-224.5 1455,-243.5 1520,-243.5 1520,-224.5 1455,-224.5"/>
<text text-anchor="middle" x="1487.5" y="-231.5" font-family="'Consolas',monospace" font-size="10.00">time.hpp</text>
</a>
</g>
</g>
<!-- Node1&#45;&gt;Node34 -->
<g id="edge81" class="edge"><title>Node1&#45;&gt;Node34</title>
<path fill="none" stroke="midnightblue" d="M1045.29,-285.322C1124.14,-278.63 1292.84,-263.352 1434.5,-244 1437.78,-243.552 1441.17,-243.054 1444.58,-242.531"/>
<polygon fill="midnightblue" stroke="midnightblue" points="1445.43,-245.939 1454.76,-240.902 1444.33,-239.027 1445.43,-245.939"/>
</g>
<!-- Node35 -->
<g id="node35" class="node"><title>Node35</title>
<g id="a_node35"><a xlink:href="Video_8hpp_source.html" target="_top" xlink:title="Video.hpp">
<polygon fill="white" stroke="black" points="582,-224.5 582,-243.5 653,-243.5 653,-224.5 582,-224.5"/>
<text text-anchor="middle" x="617.5" y="-231.5" font-family="'Consolas',monospace" font-size="10.00">Video.hpp</text>
</a>
</g>
</g>
<!-- Node1&#45;&gt;Node35 -->
<g id="edge84" class="edge"><title>Node1&#45;&gt;Node35</title>
<path fill="none" stroke="midnightblue" d="M955.864,-283.384C892.375,-275.288 772.381,-259.592 670.5,-244 668.126,-243.637 665.693,-243.255 663.238,-242.864"/>
<polygon fill="midnightblue" stroke="midnightblue" points="663.544,-239.367 653.111,-241.211 662.417,-246.276 663.544,-239.367"/>
</g>
<!-- Node36 -->
<g id="node36" class="node"><title>Node36</title>
<g id="a_node36"><a xlink:href="work_8hpp.html" target="_top" xlink:title="work.hpp">
<polygon fill="white" stroke="black" points="126,-168.5 126,-187.5 191,-187.5 191,-168.5 126,-168.5"/>
<text text-anchor="middle" x="158.5" y="-175.5" font-family="'Consolas',monospace" font-size="10.00">work.hpp</text>
</a>
</g>
</g>
<!-- Node1&#45;&gt;Node36 -->
<g id="edge89" class="edge"><title>Node1&#45;&gt;Node36</title>
<path fill="none" stroke="midnightblue" d="M955.8,-288.072C801.84,-284.643 299.334,-271.444 232.5,-244 207.409,-233.697 185,-211.206 171.584,-195.587"/>
<polygon fill="midnightblue" stroke="midnightblue" points="174.164,-193.215 165.095,-187.737 168.769,-197.675 174.164,-193.215"/>
</g>
<!-- Node3 -->
<g id="node3" class="node"><title>Node3</title>
<g id="a_node3"><a xlink:href="dll_8hpp_source.html" target="_top" xlink:title="dll.hpp">
<polygon fill="white" stroke="black" points="1023,-0.5 1023,-19.5 1082,-19.5 1082,-0.5 1023,-0.5"/>
<text text-anchor="middle" x="1052.5" y="-7.5" font-family="'Consolas',monospace" font-size="10.00">dll.hpp</text>
</a>
</g>
</g>
<!-- Node2&#45;&gt;Node3 -->
<g id="edge2" class="edge"><title>Node2&#45;&gt;Node3</title>
<path fill="none" stroke="midnightblue" d="M163.062,-112.24C178.129,-97.4845 211.065,-68.1027 245.5,-56 318.14,-30.4699 859.413,-15.639 1012.36,-11.9273"/>
<polygon fill="midnightblue" stroke="midnightblue" points="1012.77,-15.4184 1022.69,-11.6793 1012.6,-8.42043 1012.77,-15.4184"/>
</g>
<!-- Node4 -->
<g id="node4" class="node"><title>Node4</title>
<polygon fill="white" stroke="#bfbfbf" points="309,-56.5 309,-75.5 362,-75.5 362,-56.5 309,-56.5"/>
<text text-anchor="middle" x="335.5" y="-63.5" font-family="'Consolas',monospace" font-size="10.00">memory</text>
</g>
<!-- Node2&#45;&gt;Node4 -->
<g id="edge3" class="edge"><title>Node2&#45;&gt;Node4</title>
<path fill="none" stroke="midnightblue" d="M183.18,-112.444C214.571,-103.078 264.971,-88.0419 299.12,-77.8536"/>
<polygon fill="midnightblue" stroke="midnightblue" points="300.142,-81.2012 308.724,-74.9883 298.141,-74.4934 300.142,-81.2012"/>
</g>
<!-- Node5&#45;&gt;Node4 -->
<g id="edge8" class="edge"><title>Node5&#45;&gt;Node4</title>
<path fill="none" stroke="midnightblue" d="M409.361,-112.324C395.634,-103.9 374.564,-90.9709 358.436,-81.0741"/>
<polygon fill="midnightblue" stroke="midnightblue" points="359.957,-77.9016 349.604,-75.6545 356.296,-83.8678 359.957,-77.9016"/>
</g>
<!-- Node6 -->
<g id="node6" class="node"><title>Node6</title>
<g id="a_node6"><a xlink:href="Finally_8hpp_source.html" target="_top" xlink:title="Finally.hpp">
<polygon fill="white" stroke="black" points="518,-56.5 518,-75.5 601,-75.5 601,-56.5 518,-56.5"/>
<text text-anchor="middle" x="559.5" y="-63.5" font-family="'Consolas',monospace" font-size="10.00">Finally.hpp</text>
</a>
</g>
</g>
<!-- Node5&#45;&gt;Node6 -->
<g id="edge5" class="edge"><title>Node5&#45;&gt;Node6</title>
<path fill="none" stroke="midnightblue" d="M445.05,-112.444C467.531,-103.517 502.988,-89.4387 528.48,-79.3168"/>
<polygon fill="midnightblue" stroke="midnightblue" points="530.049,-82.4598 538.051,-75.5164 527.465,-75.9539 530.049,-82.4598"/>
</g>
<!-- Node6&#45;&gt;Node3 -->
<g id="edge6" class="edge"><title>Node6&#45;&gt;Node3</title>
<path fill="none" stroke="midnightblue" d="M601.144,-59.9112C611.999,-58.6098 623.685,-57.231 634.5,-56 773.261,-40.2058 938.107,-22.8827 1012.53,-15.1394"/>
<polygon fill="midnightblue" stroke="midnightblue" points="1013.25,-18.583 1022.84,-14.0678 1012.53,-11.6205 1013.25,-18.583"/>
</g>
<!-- Node7 -->
<g id="node7" class="node"><title>Node7</title>
<polygon fill="white" stroke="#bfbfbf" points="521,-0.5 521,-19.5 598,-19.5 598,-0.5 521,-0.5"/>
<text text-anchor="middle" x="559.5" y="-7.5" font-family="'Consolas',monospace" font-size="10.00">functional</text>
</g>
<!-- Node6&#45;&gt;Node7 -->
<g id="edge7" class="edge"><title>Node6&#45;&gt;Node7</title>
<path fill="none" stroke="midnightblue" d="M559.5,-56.083C559.5,-49.0059 559.5,-38.8611 559.5,-29.9865"/>
<polygon fill="midnightblue" stroke="midnightblue" points="563,-29.751 559.5,-19.7511 556,-29.7511 563,-29.751"/>
</g>
<!-- Node9 -->
<g id="node9" class="node"><title>Node9</title>
<g id="a_node9"><a xlink:href="Vec2_8hpp.html" target="_top" xlink:title="Vec2.hpp">
<polygon fill="white" stroke="black" points="1248,-112.5 1248,-131.5 1313,-131.5 1313,-112.5 1248,-112.5"/>
<text text-anchor="middle" x="1280.5" y="-119.5" font-family="'Consolas',monospace" font-size="10.00">Vec2.hpp</text>
</a>
</g>
</g>
<!-- Node8&#45;&gt;Node9 -->
<g id="edge10" class="edge"><title>Node8&#45;&gt;Node9</title>
<path fill="none" stroke="midnightblue" d="M1314.8,-224.295C1320.48,-211.542 1328.94,-187.211 1321.5,-168 1317.05,-156.498 1308.13,-146.131 1299.75,-138.255"/>
<polygon fill="midnightblue" stroke="midnightblue" points="1301.87,-135.46 1292.04,-131.51 1297.26,-140.729 1301.87,-135.46"/>
</g>
<!-- Node9&#45;&gt;Node3 -->
<g id="edge11" class="edge"><title>Node9&#45;&gt;Node3</title>
<path fill="none" stroke="midnightblue" d="M1266.8,-112.34C1245.73,-99.2169 1203.89,-73.9266 1166.5,-56 1140.26,-43.4191 1109.52,-31.4374 1086.58,-23.0053"/>
<polygon fill="midnightblue" stroke="midnightblue" points="1087.54,-19.6306 1076.95,-19.5046 1085.15,-26.2096 1087.54,-19.6306"/>
</g>
<!-- Node10 -->
<g id="node10" class="node"><title>Node10</title>
<polygon fill="white" stroke="#bfbfbf" points="1219,-56.5 1219,-75.5 1338,-75.5 1338,-56.5 1219,-56.5"/>
<text text-anchor="middle" x="1278.5" y="-63.5" font-family="'Consolas',monospace" font-size="10.00">boost/version.hpp</text>
</g>
<!-- Node9&#45;&gt;Node10 -->
<g id="edge12" class="edge"><title>Node9&#45;&gt;Node10</title>
<path fill="none" stroke="midnightblue" d="M1280.17,-112.083C1279.91,-105.006 1279.53,-94.8611 1279.2,-85.9865"/>
<polygon fill="midnightblue" stroke="midnightblue" points="1282.69,-85.6147 1278.82,-75.7511 1275.7,-85.8738 1282.69,-85.6147"/>
</g>
<!-- Node11 -->
<g id="node11" class="node"><title>Node11</title>
<polygon fill="white" stroke="#bfbfbf" points="1356,-56.5 1356,-75.5 1409,-75.5 1409,-56.5 1356,-56.5"/>
<text text-anchor="middle" x="1382.5" y="-63.5" font-family="'Consolas',monospace" font-size="10.00">iosfwd</text>
</g>
<!-- Node9&#45;&gt;Node11 -->
<g id="edge13" class="edge"><title>Node9&#45;&gt;Node11</title>
<path fill="none" stroke="midnightblue" d="M1296.89,-112.324C1313.17,-103.703 1338.37,-90.3643 1357.22,-80.3855"/>
<polygon fill="midnightblue" stroke="midnightblue" points="1358.95,-83.4267 1366.15,-75.6545 1355.68,-77.2402 1358.95,-83.4267"/>
</g>
<!-- Node12&#45;&gt;Node3 -->
<g id="edge15" class="edge"><title>Node12&#45;&gt;Node3</title>
<path fill="none" stroke="midnightblue" d="M1403.19,-112.364C1414.3,-98.8162 1432.02,-72.4214 1417.5,-56 1396.19,-31.9033 1182.25,-17.8589 1092.16,-12.9726"/>
<polygon fill="midnightblue" stroke="midnightblue" points="1092.23,-9.4716 1082.06,-12.4352 1091.86,-16.4617 1092.23,-9.4716"/>
</g>
<!-- Node13&#45;&gt;Node14 -->
<g id="edge17" class="edge"><title>Node13&#45;&gt;Node14</title>
<path fill="none" stroke="midnightblue" d="M1115.52,-224.083C1113.93,-216.927 1111.64,-206.635 1109.65,-197.691"/>
<polygon fill="midnightblue" stroke="midnightblue" points="1113.03,-196.754 1107.44,-187.751 1106.2,-198.272 1113.03,-196.754"/>
</g>
<!-- Node14&#45;&gt;Node3 -->
<g id="edge18" class="edge"><title>Node14&#45;&gt;Node3</title>
<path fill="none" stroke="midnightblue" d="M1102.65,-168.075C1094.27,-141.832 1069.6,-64.5453 1058.28,-29.1165"/>
<polygon fill="midnightblue" stroke="midnightblue" points="1061.61,-28.0298 1055.24,-19.5681 1054.94,-30.1589 1061.61,-28.0298"/>
</g>
<!-- Node14&#45;&gt;Node4 -->
<g id="edge21" class="edge"><title>Node14&#45;&gt;Node4</title>
<path fill="none" stroke="midnightblue" d="M1087.94,-168.428C1057.39,-153.957 992.091,-124.992 933.5,-112 878.864,-99.8847 494.17,-76.377 372.381,-69.1597"/>
<polygon fill="midnightblue" stroke="midnightblue" points="372.277,-65.6476 362.088,-68.5515 371.864,-72.6354 372.277,-65.6476"/>
</g>
<!-- Node14&#45;&gt;Node9 -->
<g id="edge19" class="edge"><title>Node14&#45;&gt;Node9</title>
<path fill="none" stroke="midnightblue" d="M1133.23,-168.444C1162.93,-159.28 1210.22,-144.688 1243.17,-134.519"/>
<polygon fill="midnightblue" stroke="midnightblue" points="1244.38,-137.809 1252.9,-131.516 1242.31,-131.121 1244.38,-137.809"/>
</g>
<!-- Node15 -->
<g id="node15" class="node"><title>Node15</title>
<polygon fill="white" stroke="#bfbfbf" points="724,-112.5 724,-131.5 777,-131.5 777,-112.5 724,-112.5"/>
<text text-anchor="middle" x="750.5" y="-119.5" font-family="'Consolas',monospace" font-size="10.00">vector</text>
</g>
<!-- Node14&#45;&gt;Node15 -->
<g id="edge20" class="edge"><title>Node14&#45;&gt;Node15</title>
<path fill="none" stroke="midnightblue" d="M1069.67,-169.655C1066.57,-169.075 1063.48,-168.515 1060.5,-168 962.118,-151.034 845.427,-135.26 787.274,-127.693"/>
<polygon fill="midnightblue" stroke="midnightblue" points="787.481,-124.191 777.115,-126.378 786.582,-131.133 787.481,-124.191"/>
</g>
<!-- Node16&#45;&gt;Node17 -->
<g id="edge23" class="edge"><title>Node16&#45;&gt;Node17</title>
<path fill="none" stroke="midnightblue" d="M831.567,-224.324C847.458,-215.743 872.007,-202.486 890.458,-192.522"/>
<polygon fill="midnightblue" stroke="midnightblue" points="892.337,-195.486 899.473,-187.655 889.011,-189.326 892.337,-195.486"/>
</g>
<!-- Node19 -->
<g id="node19" class="node"><title>Node19</title>
<polygon fill="white" stroke="#bfbfbf" points="669,-168.5 669,-187.5 728,-187.5 728,-168.5 669,-168.5"/>
<text text-anchor="middle" x="698.5" y="-175.5" font-family="'Consolas',monospace" font-size="10.00">sstream</text>
</g>
<!-- Node16&#45;&gt;Node19 -->
<g id="edge26" class="edge"><title>Node16&#45;&gt;Node19</title>
<path fill="none" stroke="midnightblue" d="M796.961,-224.444C777.877,-215.636 747.925,-201.812 726.064,-191.722"/>
<polygon fill="midnightblue" stroke="midnightblue" points="727.499,-188.529 716.952,-187.516 724.565,-194.885 727.499,-188.529"/>
</g>
<!-- Node17&#45;&gt;Node3 -->
<g id="edge24" class="edge"><title>Node17&#45;&gt;Node3</title>
<path fill="none" stroke="midnightblue" d="M922.866,-168.075C944.897,-141.38 1010.52,-61.865 1039.03,-27.3218"/>
<polygon fill="midnightblue" stroke="midnightblue" points="1041.76,-29.5086 1045.43,-19.5681 1036.36,-25.0529 1041.76,-29.5086"/>
</g>
<!-- Node18 -->
<g id="node18" class="node"><title>Node18</title>
<polygon fill="white" stroke="#bfbfbf" points="872,-112.5 872,-131.5 925,-131.5 925,-112.5 872,-112.5"/>
<text text-anchor="middle" x="898.5" y="-119.5" font-family="'Consolas',monospace" font-size="10.00">string</text>
</g>
<!-- Node17&#45;&gt;Node18 -->
<g id="edge25" class="edge"><title>Node17&#45;&gt;Node18</title>
<path fill="none" stroke="midnightblue" d="M912.693,-168.083C910.415,-160.849 907.129,-150.409 904.292,-141.397"/>
<polygon fill="midnightblue" stroke="midnightblue" points="907.596,-140.239 901.255,-131.751 900.919,-142.341 907.596,-140.239"/>
</g>
<!-- Node20&#45;&gt;Node3 -->
<g id="edge29" class="edge"><title>Node20&#45;&gt;Node3</title>
<path fill="none" stroke="midnightblue" d="M627.39,-112.463C636.16,-98.0463 656.05,-69.1602 681.5,-56 738.565,-26.4922 929.346,-15.7088 1012.82,-12.3382"/>
<polygon fill="midnightblue" stroke="midnightblue" points="1013.07,-15.8313 1022.93,-11.9455 1012.8,-8.83659 1013.07,-15.8313"/>
</g>
<!-- Node20&#45;&gt;Node21 -->
<g id="edge28" class="edge"><title>Node20&#45;&gt;Node21</title>
<path fill="none" stroke="midnightblue" d="M667.386,-116.189C682.358,-114.696 699.136,-113.144 714.5,-112 1026.49,-88.7638 1105.1,-92.7852 1417.5,-76 1455.94,-73.9347 1499.56,-71.4729 1531.54,-69.6465"/>
<polygon fill="midnightblue" stroke="midnightblue" points="1532.13,-73.1186 1541.92,-69.053 1531.73,-66.13 1532.13,-73.1186"/>
</g>
<!-- Node22&#45;&gt;Node3 -->
<g id="edge32" class="edge"><title>Node22&#45;&gt;Node3</title>
<path fill="none" stroke="midnightblue" d="M1268.56,-168.309C1231.63,-141.416 1118.91,-59.3518 1072.64,-25.6665"/>
<polygon fill="midnightblue" stroke="midnightblue" points="1074.46,-22.6616 1064.32,-19.6051 1070.34,-28.3206 1074.46,-22.6616"/>
</g>
<!-- Node22&#45;&gt;Node4 -->
<g id="edge34" class="edge"><title>Node22&#45;&gt;Node4</title>
<path fill="none" stroke="midnightblue" d="M1248.26,-168.446C1193.46,-154.268 1078.48,-126.071 979.5,-112 860.748,-95.1173 490.382,-75.0082 372.161,-68.8698"/>
<polygon fill="midnightblue" stroke="midnightblue" points="372.327,-65.3738 362.16,-68.3527 371.966,-72.3645 372.327,-65.3738"/>
</g>
<!-- Node22&#45;&gt;Node9 -->
<g id="edge33" class="edge"><title>Node22&#45;&gt;Node9</title>
<path fill="none" stroke="midnightblue" d="M1280.5,-168.083C1280.5,-161.006 1280.5,-150.861 1280.5,-141.986"/>
<polygon fill="midnightblue" stroke="midnightblue" points="1284,-141.751 1280.5,-131.751 1277,-141.751 1284,-141.751"/>
</g>
<!-- Node22&#45;&gt;Node12 -->
<g id="edge31" class="edge"><title>Node22&#45;&gt;Node12</title>
<path fill="none" stroke="midnightblue" d="M1298.72,-168.444C1317.4,-159.675 1346.66,-145.935 1368.12,-135.858"/>
<polygon fill="midnightblue" stroke="midnightblue" points="1369.8,-138.935 1377.36,-131.516 1366.82,-132.599 1369.8,-138.935"/>
</g>
<!-- Node22&#45;&gt;Node18 -->
<g id="edge35" class="edge"><title>Node22&#45;&gt;Node18</title>
<path fill="none" stroke="midnightblue" d="M1247.99,-169.767C1244.79,-169.135 1241.59,-168.534 1238.5,-168 1128.69,-148.998 997.698,-133.727 935.202,-126.889"/>
<polygon fill="midnightblue" stroke="midnightblue" points="935.38,-123.388 925.06,-125.788 934.624,-130.347 935.38,-123.388"/>
</g>
<!-- Node23&#45;&gt;Node3 -->
<g id="edge37" class="edge"><title>Node23&#45;&gt;Node3</title>
<path fill="none" stroke="midnightblue" d="M1669.71,-57.5927C1664.91,-57.0187 1660.12,-56.4777 1655.5,-56 1443.63,-34.0921 1188.83,-18.6442 1092.23,-13.1778"/>
<polygon fill="midnightblue" stroke="midnightblue" points="1092.22,-9.67202 1082.04,-12.6053 1091.83,-16.661 1092.22,-9.67202"/>
</g>
<!-- Node24&#45;&gt;Node3 -->
<g id="edge41" class="edge"><title>Node24&#45;&gt;Node3</title>
<path fill="none" stroke="midnightblue" d="M32.4337,-112.329C37.8979,-97.7089 51.1516,-68.5251 73.5,-56 115.088,-32.6919 834.461,-15.6998 1012.76,-11.8335"/>
<polygon fill="midnightblue" stroke="midnightblue" points="1012.84,-15.3327 1022.77,-11.6182 1012.69,-8.33434 1012.84,-15.3327"/>
</g>
<!-- Node24&#45;&gt;Node4 -->
<g id="edge40" class="edge"><title>Node24&#45;&gt;Node4</title>
<path fill="none" stroke="midnightblue" d="M59.1186,-115.773C115.408,-105.84 237.67,-84.2642 298.948,-73.4504"/>
<polygon fill="midnightblue" stroke="midnightblue" points="299.706,-76.8707 308.946,-71.686 298.49,-69.9772 299.706,-76.8707"/>
</g>
<!-- Node25&#45;&gt;Node6 -->
<g id="edge43" class="edge"><title>Node25&#45;&gt;Node6</title>
<path fill="none" stroke="midnightblue" d="M868.935,-225.848C835.393,-217.744 786.506,-203.617 775.5,-188 755.875,-160.152 807.111,-138.338 785.5,-112 763.91,-85.6872 671.176,-74.4727 611.411,-69.9103"/>
<polygon fill="midnightblue" stroke="midnightblue" points="611.617,-66.4161 601.39,-69.1836 611.111,-73.3978 611.617,-66.4161"/>
</g>
<!-- Node25&#45;&gt;Node26 -->
<g id="edge44" class="edge"><title>Node25&#45;&gt;Node26</title>
<path fill="none" stroke="midnightblue" d="M888.486,-224.324C875.968,-215.979 856.818,-203.212 842.029,-193.352"/>
<polygon fill="midnightblue" stroke="midnightblue" points="843.744,-190.289 833.482,-187.655 839.861,-196.114 843.744,-190.289"/>
</g>
<!-- Node25&#45;&gt;Node27 -->
<g id="edge48" class="edge"><title>Node25&#45;&gt;Node27</title>
<path fill="none" stroke="midnightblue" d="M919.495,-224.324C937.538,-215.625 965.547,-202.12 986.303,-192.113"/>
<polygon fill="midnightblue" stroke="midnightblue" points="988.062,-195.15 995.55,-187.655 985.022,-188.845 988.062,-195.15"/>
</g>
<!-- Node26&#45;&gt;Node3 -->
<g id="edge47" class="edge"><title>Node26&#45;&gt;Node3</title>
<path fill="none" stroke="midnightblue" d="M824.277,-168.435C830.561,-154.985 844.292,-128.721 862.5,-112 909.144,-69.1647 977.329,-38.7712 1018.07,-23.1252"/>
<polygon fill="midnightblue" stroke="midnightblue" points="1019.43,-26.3522 1027.56,-19.5571 1016.97,-19.8 1019.43,-26.3522"/>
</g>
<!-- Node26&#45;&gt;Node15 -->
<g id="edge46" class="edge"><title>Node26&#45;&gt;Node15</title>
<path fill="none" stroke="midnightblue" d="M809.253,-168.324C798.703,-160.185 782.699,-147.839 770.058,-138.087"/>
<polygon fill="midnightblue" stroke="midnightblue" points="772.007,-135.171 761.951,-131.834 767.731,-140.713 772.007,-135.171"/>
</g>
<!-- Node26&#45;&gt;Node18 -->
<g id="edge45" class="edge"><title>Node26&#45;&gt;Node18</title>
<path fill="none" stroke="midnightblue" d="M833.032,-168.324C845.086,-159.979 863.527,-147.212 877.769,-137.352"/>
<polygon fill="midnightblue" stroke="midnightblue" points="879.769,-140.224 885.999,-131.655 875.785,-134.469 879.769,-140.224"/>
</g>
<!-- Node27&#45;&gt;Node3 -->
<g id="edge50" class="edge"><title>Node27&#45;&gt;Node3</title>
<path fill="none" stroke="midnightblue" d="M1015.6,-168.075C1021.74,-141.945 1039.76,-65.2106 1048.14,-29.577"/>
<polygon fill="midnightblue" stroke="midnightblue" points="1051.61,-30.1036 1050.49,-19.5681 1044.79,-28.5025 1051.61,-30.1036"/>
</g>
<!-- Node27&#45;&gt;Node18 -->
<g id="edge49" class="edge"><title>Node27&#45;&gt;Node18</title>
<path fill="none" stroke="midnightblue" d="M995.278,-168.444C976.604,-159.675 947.344,-145.935 925.883,-135.858"/>
<polygon fill="midnightblue" stroke="midnightblue" points="927.176,-132.599 916.637,-131.516 924.201,-138.935 927.176,-132.599"/>
</g>
<!-- Node28&#45;&gt;Node3 -->
<g id="edge52" class="edge"><title>Node28&#45;&gt;Node3</title>
<path fill="none" stroke="midnightblue" d="M1794.79,-57.3158C1791.66,-56.8233 1788.53,-56.3755 1785.5,-56 1522.27,-23.3702 1202.79,-14.0556 1092.33,-11.7107"/>
<polygon fill="midnightblue" stroke="midnightblue" points="1092.37,-8.21092 1082.3,-11.505 1092.22,-15.2095 1092.37,-8.21092"/>
</g>
<!-- Node29&#45;&gt;Node3 -->
<g id="edge56" class="edge"><title>Node29&#45;&gt;Node3</title>
<path fill="none" stroke="midnightblue" d="M1622.29,-168.274C1631.22,-146.197 1650.73,-87.6383 1621.5,-56 1585.68,-17.2377 1215.42,-11.8263 1092.17,-11.1017"/>
<polygon fill="midnightblue" stroke="midnightblue" points="1092.05,-7.60112 1082.03,-11.0495 1092.01,-14.601 1092.05,-7.60112"/>
</g>
<!-- Node29&#45;&gt;Node9 -->
<g id="edge58" class="edge"><title>Node29&#45;&gt;Node9</title>
<path fill="none" stroke="midnightblue" d="M1579.73,-170.806C1516.03,-160.629 1389.7,-140.446 1323.4,-129.854"/>
<polygon fill="midnightblue" stroke="midnightblue" points="1323.72,-126.361 1313.3,-128.24 1322.62,-133.274 1323.72,-126.361"/>
</g>
<!-- Node29&#45;&gt;Node21 -->
<g id="edge57" class="edge"><title>Node29&#45;&gt;Node21</title>
<path fill="none" stroke="midnightblue" d="M1615.28,-168.368C1608.64,-150.537 1593.26,-109.295 1584.31,-85.2717"/>
<polygon fill="midnightblue" stroke="midnightblue" points="1587.47,-83.7393 1580.7,-75.5914 1580.92,-86.1841 1587.47,-83.7393"/>
</g>
<!-- Node30&#45;&gt;Node3 -->
<g id="edge60" class="edge"><title>Node30&#45;&gt;Node3</title>
<path fill="none" stroke="midnightblue" d="M1448.87,-168.183C1454.27,-145.895 1464.82,-86.8808 1434.5,-56 1410.79,-31.8538 1185.16,-17.734 1092.21,-12.9003"/>
<polygon fill="midnightblue" stroke="midnightblue" points="1092.24,-9.39735 1082.08,-12.3828 1091.89,-16.3882 1092.24,-9.39735"/>
</g>
<!-- Node30&#45;&gt;Node9 -->
<g id="edge62" class="edge"><title>Node30&#45;&gt;Node9</title>
<path fill="none" stroke="midnightblue" d="M1420.2,-168.444C1392.15,-159.32 1347.56,-144.813 1316.32,-134.651"/>
<polygon fill="midnightblue" stroke="midnightblue" points="1317.27,-131.282 1306.68,-131.516 1315.11,-137.938 1317.27,-131.282"/>
</g>
<!-- Node30&#45;&gt;Node12 -->
<g id="edge61" class="edge"><title>Node30&#45;&gt;Node12</title>
<path fill="none" stroke="midnightblue" d="M1438.08,-168.083C1430.65,-160.22 1419.65,-148.569 1410.69,-139.081"/>
<polygon fill="midnightblue" stroke="midnightblue" points="1413.18,-136.618 1403.76,-131.751 1408.09,-141.424 1413.18,-136.618"/>
</g>
<!-- Node31&#45;&gt;Node3 -->
<g id="edge64" class="edge"><title>Node31&#45;&gt;Node3</title>
<path fill="none" stroke="midnightblue" d="M1186.87,-168.075C1164.03,-141.38 1096.01,-61.865 1066.46,-27.3218"/>
<polygon fill="midnightblue" stroke="midnightblue" points="1068.99,-24.892 1059.83,-19.5681 1063.67,-29.4423 1068.99,-24.892"/>
</g>
<!-- Node31&#45;&gt;Node18 -->
<g id="edge65" class="edge"><title>Node31&#45;&gt;Node18</title>
<path fill="none" stroke="midnightblue" d="M1158.65,-169.763C1155.56,-169.159 1152.47,-168.564 1149.5,-168 1073.52,-153.593 984.363,-137.895 935.389,-129.376"/>
<polygon fill="midnightblue" stroke="midnightblue" points="935.73,-125.883 925.278,-127.62 934.532,-132.779 935.73,-125.883"/>
</g>
<!-- Node32&#45;&gt;Node3 -->
<g id="edge74" class="edge"><title>Node32&#45;&gt;Node3</title>
<path fill="none" stroke="midnightblue" d="M593.979,-168.382C614.689,-159.569 647.543,-145.321 675.5,-132 693.085,-123.621 696.425,-119.264 714.5,-112 819.47,-69.8166 948.932,-35.924 1012.89,-20.3199"/>
<polygon fill="midnightblue" stroke="midnightblue" points="1014.05,-23.6399 1022.95,-17.8856 1012.41,-16.8364 1014.05,-23.6399"/>
</g>
<!-- Node32&#45;&gt;Node4 -->
<g id="edge71" class="edge"><title>Node32&#45;&gt;Node4</title>
<path fill="none" stroke="midnightblue" d="M564.742,-168.099C550.577,-154.187 521.217,-127.303 491.5,-112 453.058,-92.2038 404.674,-79.9744 372.064,-73.3514"/>
<polygon fill="midnightblue" stroke="midnightblue" points="372.55,-69.8801 362.064,-71.3956 371.206,-76.75 372.55,-69.8801"/>
</g>
<!-- Node32&#45;&gt;Node5 -->
<g id="edge68" class="edge"><title>Node32&#45;&gt;Node5</title>
<path fill="none" stroke="midnightblue" d="M549.732,-168.444C524.607,-159.399 484.789,-145.064 456.6,-134.916"/>
<polygon fill="midnightblue" stroke="midnightblue" points="457.751,-131.611 447.157,-131.516 455.38,-138.197 457.751,-131.611"/>
</g>
<!-- Node32&#45;&gt;Node6 -->
<g id="edge67" class="edge"><title>Node32&#45;&gt;Node6</title>
<path fill="none" stroke="midnightblue" d="M572.401,-168.368C570.142,-150.617 564.93,-109.666 561.867,-85.5974"/>
<polygon fill="midnightblue" stroke="midnightblue" points="565.328,-85.0695 560.593,-75.5914 558.384,-85.9533 565.328,-85.0695"/>
</g>
<!-- Node32&#45;&gt;Node9 -->
<g id="edge69" class="edge"><title>Node32&#45;&gt;Node9</title>
<path fill="none" stroke="midnightblue" d="M612.004,-172.705C626.839,-171.12 643.948,-169.377 659.5,-168 876.587,-148.78 1136.91,-131.923 1237.72,-125.628"/>
<polygon fill="midnightblue" stroke="midnightblue" points="1238.05,-129.114 1247.82,-124.999 1237.62,-122.127 1238.05,-129.114"/>
</g>
<!-- Node32&#45;&gt;Node15 -->
<g id="edge73" class="edge"><title>Node32&#45;&gt;Node15</title>
<path fill="none" stroke="midnightblue" d="M601.546,-168.444C631.935,-159.172 680.541,-144.343 713.913,-134.162"/>
<polygon fill="midnightblue" stroke="midnightblue" points="715.2,-137.429 723.744,-131.163 713.158,-130.733 715.2,-137.429"/>
</g>
<!-- Node32&#45;&gt;Node18 -->
<g id="edge72" class="edge"><title>Node32&#45;&gt;Node18</title>
<path fill="none" stroke="midnightblue" d="M612.284,-170.394C617.071,-169.585 621.898,-168.771 626.5,-168 710.63,-153.898 809.45,-137.621 861.731,-129.032"/>
<polygon fill="midnightblue" stroke="midnightblue" points="862.553,-132.444 871.854,-127.37 861.419,-125.537 862.553,-132.444"/>
</g>
<!-- Node32&#45;&gt;Node20 -->
<g id="edge70" class="edge"><title>Node32&#45;&gt;Node20</title>
<path fill="none" stroke="midnightblue" d="M581.591,-168.083C588.655,-160.298 599.088,-148.801 607.649,-139.367"/>
<polygon fill="midnightblue" stroke="midnightblue" points="610.431,-141.509 614.559,-131.751 605.247,-136.805 610.431,-141.509"/>
</g>
<!-- Node33&#45;&gt;Node3 -->
<g id="edge76" class="edge"><title>Node33&#45;&gt;Node3</title>
<path fill="none" stroke="midnightblue" d="M451.862,-172.989C420.577,-167.816 373.255,-156.392 339.5,-132 308.562,-109.644 273.327,-83.784 299.5,-56 324.137,-29.8469 860.025,-15.4612 1012.41,-11.8893"/>
<polygon fill="midnightblue" stroke="midnightblue" points="1012.79,-15.3815 1022.71,-11.6508 1012.63,-8.38336 1012.79,-15.3815"/>
</g>
<!-- Node33&#45;&gt;Node4 -->
<g id="edge78" class="edge"><title>Node33&#45;&gt;Node4</title>
<path fill="none" stroke="midnightblue" d="M451.967,-174.074C422.574,-169.72 380.112,-158.895 354.5,-132 342.728,-119.639 338.198,-100.392 336.481,-86.045"/>
<polygon fill="midnightblue" stroke="midnightblue" points="339.947,-85.4876 335.623,-75.8151 332.971,-86.0727 339.947,-85.4876"/>
</g>
<!-- Node33&#45;&gt;Node15 -->
<g id="edge80" class="edge"><title>Node33&#45;&gt;Node15</title>
<path fill="none" stroke="midnightblue" d="M517.162,-169.773C519.981,-169.166 522.79,-168.568 525.5,-168 591.733,-154.109 669.143,-138.837 713.73,-130.135"/>
<polygon fill="midnightblue" stroke="midnightblue" points="714.652,-133.521 723.798,-128.173 713.313,-126.651 714.652,-133.521"/>
</g>
<!-- Node33&#45;&gt;Node18 -->
<g id="edge79" class="edge"><title>Node33&#45;&gt;Node18</title>
<path fill="none" stroke="midnightblue" d="M517.118,-169.544C519.947,-168.987 522.77,-168.463 525.5,-168 647.889,-147.234 794.456,-132.473 861.608,-126.266"/>
<polygon fill="midnightblue" stroke="midnightblue" points="862.048,-129.74 871.688,-125.343 861.41,-122.769 862.048,-129.74"/>
</g>
<!-- Node33&#45;&gt;Node20 -->
<g id="edge77" class="edge"><title>Node33&#45;&gt;Node20</title>
<path fill="none" stroke="midnightblue" d="M506.367,-168.444C529.279,-159.478 565.475,-145.314 591.366,-135.183"/>
<polygon fill="midnightblue" stroke="midnightblue" points="592.699,-138.42 600.736,-131.516 590.148,-131.901 592.699,-138.42"/>
</g>
<!-- Node34&#45;&gt;Node3 -->
<g id="edge82" class="edge"><title>Node34&#45;&gt;Node3</title>
<path fill="none" stroke="midnightblue" d="M1489.25,-224.483C1494.71,-195.221 1508.06,-98.2789 1455.5,-56 1400.29,-11.5901 1182.77,-9.1963 1092.3,-10.202"/>
<polygon fill="midnightblue" stroke="midnightblue" points="1092.12,-6.70389 1082.17,-10.335 1092.21,-13.7033 1092.12,-6.70389"/>
</g>
<!-- Node35&#45;&gt;Node4 -->
<g id="edge86" class="edge"><title>Node35&#45;&gt;Node4</title>
<path fill="none" stroke="midnightblue" d="M581.552,-232.71C518.988,-229.983 391.776,-214.075 339.5,-132 330.864,-118.441 330.587,-99.8919 332.048,-86.0788"/>
<polygon fill="midnightblue" stroke="midnightblue" points="335.567,-86.2021 333.538,-75.8032 328.639,-85.1972 335.567,-86.2021"/>
</g>
<!-- Node35&#45;&gt;Node18 -->
<g id="edge87" class="edge"><title>Node35&#45;&gt;Node18</title>
<path fill="none" stroke="midnightblue" d="M620.551,-224.204C625.985,-209.935 638.757,-181.937 659.5,-168 691.998,-146.165 802.841,-132.35 861.461,-126.394"/>
<polygon fill="midnightblue" stroke="midnightblue" points="862.162,-129.842 871.768,-125.373 861.472,-122.876 862.162,-129.842"/>
</g>
<!-- Node35&#45;&gt;Node32 -->
<g id="edge85" class="edge"><title>Node35&#45;&gt;Node32</title>
<path fill="none" stroke="midnightblue" d="M610.234,-224.083C603.955,-216.377 594.712,-205.033 587.069,-195.653"/>
<polygon fill="midnightblue" stroke="midnightblue" points="589.661,-193.293 580.631,-187.751 584.234,-197.714 589.661,-193.293"/>
</g>
<!-- Node36&#45;&gt;Node3 -->
<g id="edge90" class="edge"><title>Node36&#45;&gt;Node3</title>
<path fill="none" stroke="midnightblue" d="M142.699,-168.369C123.099,-156.472 93.7337,-133.999 106.5,-112 131.679,-68.6116 156.374,-70.1564 204.5,-56 282.444,-33.0727 854.906,-16.2644 1012.46,-12.0367"/>
<polygon fill="midnightblue" stroke="midnightblue" points="1012.75,-15.5304 1022.65,-11.7653 1012.56,-8.53283 1012.75,-15.5304"/>
</g>
<!-- Node36&#45;&gt;Node4 -->
<g id="edge92" class="edge"><title>Node36&#45;&gt;Node4</title>
<path fill="none" stroke="midnightblue" d="M172.389,-168.368C202.891,-149.412 275.963,-104.001 313.065,-80.9424"/>
<polygon fill="midnightblue" stroke="midnightblue" points="315.03,-83.8426 321.676,-75.5914 311.335,-77.8972 315.03,-83.8426"/>
</g>
<!-- Node36&#45;&gt;Node24 -->
<g id="edge91" class="edge"><title>Node36&#45;&gt;Node24</title>
<path fill="none" stroke="midnightblue" d="M138.06,-168.444C116.83,-159.557 83.401,-145.563 59.245,-135.451"/>
<polygon fill="midnightblue" stroke="midnightblue" points="60.4207,-132.149 49.8448,-131.516 57.7177,-138.606 60.4207,-132.149"/>
</g>
</g>
</svg>
