<?xml version="1.0" encoding="UTF-8" standalone="no"?>
<!DOCTYPE svg PUBLIC "-//W3C//DTD SVG 1.1//EN"
 "http://www.w3.org/Graphics/SVG/1.1/DTD/svg11.dtd">
<!-- Generated by graphviz version 2.40.1 (20161225.0304)
 -->
<!-- Title: jngl/all.hpp Pages: 1 -->
<svg width="1924pt" height="308pt"
 viewBox="0.00 0.00 1924.00 308.00" xmlns="http://www.w3.org/2000/svg" xmlns:xlink="http://www.w3.org/1999/xlink">
<g id="graph0" class="graph" transform="scale(1 1) rotate(0) translate(4 304)">
<title>jngl/all.hpp</title>
<polygon fill="#ffffff" stroke="transparent" points="-4,4 -4,-304 1920,-304 1920,4 -4,4"/>
<!-- Node0 -->
<g id="node1" class="node">
<title>Node0</title>
<polygon fill="#bfbfbf" stroke="#000000" points="857,-280.5 857,-299.5 946,-299.5 946,-280.5 857,-280.5"/>
<text text-anchor="middle" x="901.5" y="-287.5" font-family="'Consolas',monospace" font-size="10.00" fill="#000000">jngl/all.hpp</text>
</g>
<!-- Node1 -->
<g id="node2" class="node">
<title>Node1</title>
<g id="a_node2"><a xlink:href="App_8hpp_source.html" target="_top" xlink:title="App.hpp">
<polygon fill="#ffffff" stroke="#000000" points="930,-168.5 930,-187.5 989,-187.5 989,-168.5 930,-168.5"/>
<text text-anchor="middle" x="959.5" y="-175.5" font-family="'Consolas',monospace" font-size="10.00" fill="#000000">App.hpp</text>
</a>
</g>
</g>
<!-- Node0&#45;&gt;Node1 -->
<g id="edge1" class="edge">
<title>Node0&#45;&gt;Node1</title>
<path fill="none" stroke="#191970" d="M906.445,-280.4509C916.0331,-261.936 937.3051,-220.8591 949.8064,-196.7187"/>
<polygon fill="#191970" stroke="#191970" points="953.0769,-198.0144 954.5675,-187.5249 946.8609,-194.7953 953.0769,-198.0144"/>
</g>
<!-- Node5 -->
<g id="node6" class="node">
<title>Node5</title>
<g id="a_node6"><a xlink:href="Shader_8hpp_source.html" target="_top" xlink:title="Shader.hpp">
<polygon fill="#ffffff" stroke="#000000" points="1369,-112.5 1369,-131.5 1446,-131.5 1446,-112.5 1369,-112.5"/>
<text text-anchor="middle" x="1407.5" y="-119.5" font-family="'Consolas',monospace" font-size="10.00" fill="#000000">Shader.hpp</text>
</a>
</g>
</g>
<!-- Node0&#45;&gt;Node5 -->
<g id="edge5" class="edge">
<title>Node0&#45;&gt;Node5</title>
<path fill="none" stroke="#191970" d="M946.1871,-287.3483C1031.3082,-281.8233 1213.4002,-267.5941 1271.5,-244 1325.8625,-221.9236 1372.6711,-168.0523 1394.4585,-139.8613"/>
<polygon fill="#191970" stroke="#191970" points="1397.4,-141.7738 1400.631,-131.6837 1391.8129,-137.5567 1397.4,-141.7738"/>
</g>
<!-- Node6 -->
<g id="node7" class="node">
<title>Node6</title>
<g id="a_node7"><a xlink:href="ShaderProgram_8hpp_source.html" target="_top" xlink:title="ShaderProgram.hpp">
<polygon fill="#ffffff" stroke="#000000" points="362,-112.5 362,-131.5 481,-131.5 481,-112.5 362,-112.5"/>
<text text-anchor="middle" x="421.5" y="-119.5" font-family="'Consolas',monospace" font-size="10.00" fill="#000000">ShaderProgram.hpp</text>
</a>
</g>
</g>
<!-- Node0&#45;&gt;Node6 -->
<g id="edge8" class="edge">
<title>Node0&#45;&gt;Node6</title>
<path fill="none" stroke="#191970" d="M856.7941,-288.7609C710.3727,-284.4751 251.0629,-269.1501 189.5,-244 154.2004,-229.5791 140.3898,-222.6632 124.5,-188 120.7959,-179.9196 118.7156,-174.7493 124.5,-168 139.1269,-150.9333 268.6221,-136.0009 351.7235,-128.0619"/>
<polygon fill="#191970" stroke="#191970" points="352.2407,-131.5288 361.8679,-127.1054 351.5835,-124.5597 352.2407,-131.5288"/>
</g>
<!-- Node9 -->
<g id="node10" class="node">
<title>Node9</title>
<g id="a_node10"><a xlink:href="Vertex_8hpp_source.html" target="_top" xlink:title="Vertex.hpp">
<polygon fill="#ffffff" stroke="#000000" points="1839,-224.5 1839,-243.5 1916,-243.5 1916,-224.5 1839,-224.5"/>
<text text-anchor="middle" x="1877.5" y="-231.5" font-family="'Consolas',monospace" font-size="10.00" fill="#000000">Vertex.hpp</text>
</a>
</g>
</g>
<!-- Node0&#45;&gt;Node9 -->
<g id="edge13" class="edge">
<title>Node0&#45;&gt;Node9</title>
<path fill="none" stroke="#191970" d="M946.092,-288.5871C1106.1306,-283.3902 1651.2356,-264.5655 1824.5,-244 1825.9529,-243.8276 1827.4259,-243.6389 1828.9111,-243.4367"/>
<polygon fill="#191970" stroke="#191970" points="1829.4465,-246.8956 1838.8071,-241.9326 1828.3946,-239.975 1829.4465,-246.8956"/>
</g>
<!-- Node10 -->
<g id="node11" class="node">
<title>Node10</title>
<g id="a_node11"><a xlink:href="color_8hpp.html" target="_top" xlink:title="color.hpp">
<polygon fill="#ffffff" stroke="#000000" points="1758,-112.5 1758,-131.5 1829,-131.5 1829,-112.5 1758,-112.5"/>
<text text-anchor="middle" x="1793.5" y="-119.5" font-family="'Consolas',monospace" font-size="10.00" fill="#000000">color.hpp</text>
</a>
</g>
</g>
<!-- Node0&#45;&gt;Node10 -->
<g id="edge14" class="edge">
<title>Node0&#45;&gt;Node10</title>
<path fill="none" stroke="#191970" d="M946.0715,-289.0015C1105.8293,-285.2146 1644.1266,-270.5905 1716.5,-244 1755.2145,-229.776 1771.3004,-224.5036 1790.5,-188 1797.9251,-173.8829 1798.1686,-155.6277 1796.8418,-141.8958"/>
<polygon fill="#191970" stroke="#191970" points="1800.263,-141.0693 1795.4811,-131.615 1793.3236,-141.9878 1800.263,-141.0693"/>
</g>
<!-- Node11 -->
<g id="node12" class="node">
<title>Node11</title>
<g id="a_node12"><a xlink:href="Controller_8hpp_source.html" target="_top" xlink:title="Controller.hpp">
<polygon fill="#ffffff" stroke="#000000" points="568,-224.5 568,-243.5 669,-243.5 669,-224.5 568,-224.5"/>
<text text-anchor="middle" x="618.5" y="-231.5" font-family="'Consolas',monospace" font-size="10.00" fill="#000000">Controller.hpp</text>
</a>
</g>
</g>
<!-- Node0&#45;&gt;Node11 -->
<g id="edge16" class="edge">
<title>Node0&#45;&gt;Node11</title>
<path fill="none" stroke="#191970" d="M856.9699,-281.1884C808.2743,-271.5525 730.0567,-256.0748 676.5734,-245.4916"/>
<polygon fill="#191970" stroke="#191970" points="677.0445,-242.017 666.5553,-243.5092 675.6856,-248.8838 677.0445,-242.017"/>
</g>
<!-- Node12 -->
<g id="node13" class="node">
<title>Node12</title>
<g id="a_node13"><a xlink:href="input_8hpp.html" target="_top" xlink:title="input.hpp">
<polygon fill="#ffffff" stroke="#000000" points="585,-168.5 585,-187.5 656,-187.5 656,-168.5 585,-168.5"/>
<text text-anchor="middle" x="620.5" y="-175.5" font-family="'Consolas',monospace" font-size="10.00" fill="#000000">input.hpp</text>
</a>
</g>
</g>
<!-- Node0&#45;&gt;Node12 -->
<g id="edge42" class="edge">
<title>Node0&#45;&gt;Node12</title>
<path fill="none" stroke="#191970" d="M856.662,-283.4858C818.2463,-276.8324 762.0704,-264.5145 716.5,-244 687.5231,-230.9554 657.9538,-209.0622 639.4342,-194.0954"/>
<polygon fill="#191970" stroke="#191970" points="641.4563,-191.2264 631.513,-187.5683 637.0048,-196.6287 641.4563,-191.2264"/>
</g>
<!-- Node17 -->
<g id="node18" class="node">
<title>Node17</title>
<g id="a_node18"><a xlink:href="debug_8hpp_source.html" target="_top" xlink:title="debug.hpp">
<polygon fill="#ffffff" stroke="#000000" points="413,-224.5 413,-243.5 484,-243.5 484,-224.5 413,-224.5"/>
<text text-anchor="middle" x="448.5" y="-231.5" font-family="'Consolas',monospace" font-size="10.00" fill="#000000">debug.hpp</text>
</a>
</g>
</g>
<!-- Node0&#45;&gt;Node17 -->
<g id="edge26" class="edge">
<title>Node0&#45;&gt;Node17</title>
<path fill="none" stroke="#191970" d="M856.7204,-284.8096C785.6337,-276.5181 642.6052,-259.624 521.5,-244 512.6509,-242.8584 503.2048,-241.5965 494.1438,-240.3646"/>
<polygon fill="#191970" stroke="#191970" points="494.5118,-236.8825 484.1297,-238.9946 493.5629,-243.8179 494.5118,-236.8825"/>
</g>
<!-- Node18 -->
<g id="node19" class="node">
<title>Node18</title>
<g id="a_node19"><a xlink:href="message_8hpp_source.html" target="_top" xlink:title="message.hpp">
<polygon fill="#ffffff" stroke="#000000" points="318,-168.5 318,-187.5 401,-187.5 401,-168.5 318,-168.5"/>
<text text-anchor="middle" x="359.5" y="-175.5" font-family="'Consolas',monospace" font-size="10.00" fill="#000000">message.hpp</text>
</a>
</g>
</g>
<!-- Node0&#45;&gt;Node18 -->
<g id="edge57" class="edge">
<title>Node0&#45;&gt;Node18</title>
<path fill="none" stroke="#191970" d="M856.7442,-288.0603C741.6967,-282.7666 441.958,-266.9198 403.5,-244 385.8146,-233.46 373.7795,-212.7219 366.8268,-197.2913"/>
<polygon fill="#191970" stroke="#191970" points="369.8884,-195.5379 362.8183,-187.6471 363.4244,-198.2246 369.8884,-195.5379"/>
</g>
<!-- Node20 -->
<g id="node21" class="node">
<title>Node20</title>
<g id="a_node21"><a xlink:href="drawable_8hpp_source.html" target="_top" xlink:title="drawable.hpp">
<polygon fill="#ffffff" stroke="#000000" points="795,-112.5 795,-131.5 884,-131.5 884,-112.5 795,-112.5"/>
<text text-anchor="middle" x="839.5" y="-119.5" font-family="'Consolas',monospace" font-size="10.00" fill="#000000">drawable.hpp</text>
</a>
</g>
</g>
<!-- Node0&#45;&gt;Node20 -->
<g id="edge31" class="edge">
<title>Node0&#45;&gt;Node20</title>
<path fill="none" stroke="#191970" d="M901.7371,-280.2652C901.8795,-258.8366 900.1256,-206.4369 881.5,-168 876.1395,-156.9377 867.2586,-146.6299 859.0405,-138.5876"/>
<polygon fill="#191970" stroke="#191970" points="861.2207,-135.8367 851.501,-131.6205 856.47,-140.9778 861.2207,-135.8367"/>
</g>
<!-- Node21 -->
<g id="node22" class="node">
<title>Node21</title>
<g id="a_node22"><a xlink:href="font_8hpp.html" target="_top" xlink:title="font.hpp">
<polygon fill="#ffffff" stroke="#000000" points="1055,-168.5 1055,-187.5 1120,-187.5 1120,-168.5 1055,-168.5"/>
<text text-anchor="middle" x="1087.5" y="-175.5" font-family="'Consolas',monospace" font-size="10.00" fill="#000000">font.hpp</text>
</a>
</g>
</g>
<!-- Node0&#45;&gt;Node21 -->
<g id="edge33" class="edge">
<title>Node0&#45;&gt;Node21</title>
<path fill="none" stroke="#191970" d="M917.3583,-280.4509C949.8908,-260.8615 1024.3676,-216.0152 1063.0966,-192.6945"/>
<polygon fill="#191970" stroke="#191970" points="1064.9206,-195.6818 1071.6819,-187.5249 1061.3096,-189.6851 1064.9206,-195.6818"/>
</g>
<!-- Node22 -->
<g id="node23" class="node">
<title>Node22</title>
<g id="a_node23"><a xlink:href="framebuffer_8hpp_source.html" target="_top" xlink:title="framebuffer.hpp">
<polygon fill="#ffffff" stroke="#000000" points="1503,-112.5 1503,-131.5 1610,-131.5 1610,-112.5 1503,-112.5"/>
<text text-anchor="middle" x="1556.5" y="-119.5" font-family="'Consolas',monospace" font-size="10.00" fill="#000000">framebuffer.hpp</text>
</a>
</g>
</g>
<!-- Node0&#45;&gt;Node22 -->
<g id="edge39" class="edge">
<title>Node0&#45;&gt;Node22</title>
<path fill="none" stroke="#191970" d="M946.1532,-286.7829C1036.3448,-279.9755 1237.2855,-263.1568 1303.5,-244 1392.5267,-218.2433 1488.8097,-163.4888 1532.5069,-136.9885"/>
<polygon fill="#191970" stroke="#191970" points="1534.5517,-139.8405 1541.2528,-131.6341 1530.8967,-133.8705 1534.5517,-139.8405"/>
</g>
<!-- Node23 -->
<g id="node24" class="node">
<title>Node23</title>
<g id="a_node24"><a xlink:href="job_8hpp.html" target="_top" xlink:title="job.hpp">
<polygon fill="#ffffff" stroke="#000000" points="1253,-112.5 1253,-131.5 1312,-131.5 1312,-112.5 1253,-112.5"/>
<text text-anchor="middle" x="1282.5" y="-119.5" font-family="'Consolas',monospace" font-size="10.00" fill="#000000">job.hpp</text>
</a>
</g>
</g>
<!-- Node0&#45;&gt;Node23 -->
<g id="edge43" class="edge">
<title>Node0&#45;&gt;Node23</title>
<path fill="none" stroke="#191970" d="M946.2347,-281.8476C1008.9739,-269.0059 1125.0941,-240.0091 1211.5,-188 1233.1961,-174.9408 1253.9161,-154.432 1267.3121,-139.7425"/>
<polygon fill="#191970" stroke="#191970" points="1270.283,-141.668 1274.3051,-131.8663 1265.0485,-137.0204 1270.283,-141.668"/>
</g>
<!-- Node24 -->
<g id="node25" class="node">
<title>Node24</title>
<g id="a_node25"><a xlink:href="main_8hpp_source.html" target="_top" xlink:title="main.hpp">
<polygon fill="#ffffff" stroke="#000000" points="221,-224.5 221,-243.5 286,-243.5 286,-224.5 221,-224.5"/>
<text text-anchor="middle" x="253.5" y="-231.5" font-family="'Consolas',monospace" font-size="10.00" fill="#000000">main.hpp</text>
</a>
</g>
</g>
<!-- Node0&#45;&gt;Node24 -->
<g id="edge46" class="edge">
<title>Node0&#45;&gt;Node24</title>
<path fill="none" stroke="#191970" d="M856.8333,-288.2786C757.4091,-284.0695 510.4414,-271.5251 305.5,-244 302.4548,-243.591 299.3184,-243.1184 296.1666,-242.6057"/>
<polygon fill="#191970" stroke="#191970" points="296.5918,-239.1271 286.1397,-240.8606 295.3915,-246.0235 296.5918,-239.1271"/>
</g>
<!-- Node25 -->
<g id="node26" class="node">
<title>Node25</title>
<g id="a_node26"><a xlink:href="other_8hpp.html" target="_top" xlink:title="other.hpp">
<polygon fill="#ffffff" stroke="#000000" points="229,-168.5 229,-187.5 300,-187.5 300,-168.5 229,-168.5"/>
<text text-anchor="middle" x="264.5" y="-175.5" font-family="'Consolas',monospace" font-size="10.00" fill="#000000">other.hpp</text>
</a>
</g>
</g>
<!-- Node0&#45;&gt;Node25 -->
<g id="edge58" class="edge">
<title>Node0&#45;&gt;Node25</title>
<path fill="none" stroke="#191970" d="M856.9972,-288.5352C747.6235,-284.5425 468.1365,-271.8519 379.5,-244 343.9849,-232.8403 307.4484,-209.4419 285.3537,-193.721"/>
<polygon fill="#191970" stroke="#191970" points="287.2314,-190.759 277.0841,-187.7123 283.1167,-196.422 287.2314,-190.759"/>
</g>
<!-- Node26 -->
<g id="node27" class="node">
<title>Node26</title>
<g id="a_node27"><a xlink:href="window_8hpp.html" target="_top" xlink:title="Functions related to the main window. ">
<polygon fill="#ffffff" stroke="#000000" points="134,-168.5 134,-187.5 211,-187.5 211,-168.5 134,-168.5"/>
<text text-anchor="middle" x="172.5" y="-175.5" font-family="'Consolas',monospace" font-size="10.00" fill="#000000">window.hpp</text>
</a>
</g>
</g>
<!-- Node0&#45;&gt;Node26 -->
<g id="edge89" class="edge">
<title>Node0&#45;&gt;Node26</title>
<path fill="none" stroke="#191970" d="M856.7995,-289.4186C712.6548,-287.2155 266.2608,-277.712 211.5,-244 194.556,-233.5689 184.1016,-212.8125 178.3357,-197.3478"/>
<polygon fill="#191970" stroke="#191970" points="181.5861,-196.0336 175.0708,-187.6789 174.954,-198.2731 181.5861,-196.0336"/>
</g>
<!-- Node27 -->
<g id="node28" class="node">
<title>Node27</title>
<g id="a_node28"><a xlink:href="matrix_8hpp_source.html" target="_top" xlink:title="matrix.hpp">
<polygon fill="#ffffff" stroke="#000000" points="1541,-56.5 1541,-75.5 1618,-75.5 1618,-56.5 1541,-56.5"/>
<text text-anchor="middle" x="1579.5" y="-63.5" font-family="'Consolas',monospace" font-size="10.00" fill="#000000">matrix.hpp</text>
</a>
</g>
</g>
<!-- Node0&#45;&gt;Node27 -->
<g id="edge55" class="edge">
<title>Node0&#45;&gt;Node27</title>
<path fill="none" stroke="#191970" d="M946.3472,-287.0076C1043.6604,-280.2472 1271.4674,-262.9039 1346.5,-244 1473.2746,-212.0601 1545.7532,-240.6271 1618.5,-132 1629.4976,-115.5781 1614.6132,-95.9998 1600.1733,-82.4528"/>
<polygon fill="#191970" stroke="#191970" points="1602.1905,-79.5667 1592.364,-75.6056 1597.5756,-84.83 1602.1905,-79.5667"/>
</g>
<!-- Node28 -->
<g id="node29" class="node">
<title>Node28</title>
<g id="a_node29"><a xlink:href="screen_8hpp.html" target="_top" xlink:title="screen.hpp">
<polygon fill="#ffffff" stroke="#000000" points="1260,-168.5 1260,-187.5 1337,-187.5 1337,-168.5 1260,-168.5"/>
<text text-anchor="middle" x="1298.5" y="-175.5" font-family="'Consolas',monospace" font-size="10.00" fill="#000000">screen.hpp</text>
</a>
</g>
</g>
<!-- Node0&#45;&gt;Node28 -->
<g id="edge59" class="edge">
<title>Node0&#45;&gt;Node28</title>
<path fill="none" stroke="#191970" d="M946.1203,-288.125C1027.2473,-284.0536 1195.184,-272.3811 1245.5,-244 1264.8196,-233.1026 1279.7818,-212.112 1288.8088,-196.7183"/>
<polygon fill="#191970" stroke="#191970" points="1292.0902,-198.0173 1293.87,-187.573 1285.9655,-194.6278 1292.0902,-198.0173"/>
</g>
<!-- Node29 -->
<g id="node30" class="node">
<title>Node29</title>
<g id="a_node30"><a xlink:href="shapes_8hpp.html" target="_top" xlink:title="shapes.hpp">
<polygon fill="#ffffff" stroke="#000000" points="1705,-168.5 1705,-187.5 1782,-187.5 1782,-168.5 1705,-168.5"/>
<text text-anchor="middle" x="1743.5" y="-175.5" font-family="'Consolas',monospace" font-size="10.00" fill="#000000">shapes.hpp</text>
</a>
</g>
</g>
<!-- Node0&#45;&gt;Node29 -->
<g id="edge62" class="edge">
<title>Node0&#45;&gt;Node29</title>
<path fill="none" stroke="#191970" d="M946.2494,-289.4984C1103.4303,-287.4491 1624.3451,-278.124 1690.5,-244 1710.4008,-233.7348 1725.388,-212.3071 1734.2604,-196.6418"/>
<polygon fill="#191970" stroke="#191970" points="1737.3668,-198.2546 1738.9838,-187.7839 1731.1901,-194.9609 1737.3668,-198.2546"/>
</g>
<!-- Node30 -->
<g id="node31" class="node">
<title>Node30</title>
<g id="a_node31"><a xlink:href="sound_8hpp_source.html" target="_top" xlink:title="sound.hpp">
<polygon fill="#ffffff" stroke="#000000" points="496,-168.5 496,-187.5 567,-187.5 567,-168.5 496,-168.5"/>
<text text-anchor="middle" x="531.5" y="-175.5" font-family="'Consolas',monospace" font-size="10.00" fill="#000000">sound.hpp</text>
</a>
</g>
</g>
<!-- Node0&#45;&gt;Node30 -->
<g id="edge66" class="edge">
<title>Node0&#45;&gt;Node30</title>
<path fill="none" stroke="#191970" d="M856.9772,-286.5154C769.5184,-279.3136 581.7359,-261.9553 558.5,-244 544.1533,-232.9137 537.3851,-212.9116 534.2197,-197.8231"/>
<polygon fill="#191970" stroke="#191970" points="537.6561,-197.1551 532.4947,-187.9026 530.7596,-198.3543 537.6561,-197.1551"/>
</g>
<!-- Node31 -->
<g id="node32" class="node">
<title>Node31</title>
<g id="a_node32"><a xlink:href="sprite_8hpp_source.html" target="_top" xlink:title="sprite.hpp">
<polygon fill="#ffffff" stroke="#000000" points="713,-168.5 713,-187.5 790,-187.5 790,-168.5 713,-168.5"/>
<text text-anchor="middle" x="751.5" y="-175.5" font-family="'Consolas',monospace" font-size="10.00" fill="#000000">sprite.hpp</text>
</a>
</g>
</g>
<!-- Node0&#45;&gt;Node31 -->
<g id="edge69" class="edge">
<title>Node0&#45;&gt;Node31</title>
<path fill="none" stroke="#191970" d="M888.7111,-280.4509C862.8073,-261.1094 803.9284,-217.1465 772.38,-193.5904"/>
<polygon fill="#191970" stroke="#191970" points="774.3634,-190.7033 764.2565,-187.5249 770.1753,-196.3123 774.3634,-190.7033"/>
</g>
<!-- Node32 -->
<g id="node33" class="node">
<title>Node32</title>
<g id="a_node33"><a xlink:href="text_8hpp.html" target="_top" xlink:title="text.hpp">
<polygon fill="#ffffff" stroke="#000000" points="808,-168.5 808,-187.5 873,-187.5 873,-168.5 808,-168.5"/>
<text text-anchor="middle" x="840.5" y="-175.5" font-family="'Consolas',monospace" font-size="10.00" fill="#000000">text.hpp</text>
</a>
</g>
</g>
<!-- Node0&#45;&gt;Node32 -->
<g id="edge77" class="edge">
<title>Node0&#45;&gt;Node32</title>
<path fill="none" stroke="#191970" d="M896.2992,-280.4509C886.1701,-261.8533 863.6429,-220.4919 850.5195,-196.3964"/>
<polygon fill="#191970" stroke="#191970" points="853.5444,-194.6328 845.6877,-187.5249 847.3971,-197.9809 853.5444,-194.6328"/>
</g>
<!-- Node33 -->
<g id="node34" class="node">
<title>Node33</title>
<g id="a_node34"><a xlink:href="time_8hpp_source.html" target="_top" xlink:title="time.hpp">
<polygon fill="#ffffff" stroke="#000000" points="1636,-56.5 1636,-75.5 1701,-75.5 1701,-56.5 1636,-56.5"/>
<text text-anchor="middle" x="1668.5" y="-63.5" font-family="'Consolas',monospace" font-size="10.00" fill="#000000">time.hpp</text>
</a>
</g>
</g>
<!-- Node0&#45;&gt;Node33 -->
<g id="edge83" class="edge">
<title>Node0&#45;&gt;Node33</title>
<path fill="none" stroke="#191970" d="M946.0567,-288.6736C1082.0503,-283.8329 1488.8694,-263.241 1593.5,-188 1629.6746,-161.9864 1651.9562,-112.6068 1662.0684,-85.3238"/>
<polygon fill="#191970" stroke="#191970" points="1665.4255,-86.3281 1665.4561,-75.7333 1658.8252,-83.9965 1665.4255,-86.3281"/>
</g>
<!-- Node34 -->
<g id="node35" class="node">
<title>Node34</title>
<g id="a_node35"><a xlink:href="Video_8hpp_source.html" target="_top" xlink:title="Video.hpp">
<polygon fill="#ffffff" stroke="#000000" points="726,-224.5 726,-243.5 797,-243.5 797,-224.5 726,-224.5"/>
<text text-anchor="middle" x="761.5" y="-231.5" font-family="'Consolas',monospace" font-size="10.00" fill="#000000">Video.hpp</text>
</a>
</g>
</g>
<!-- Node0&#45;&gt;Node34 -->
<g id="edge85" class="edge">
<title>Node0&#45;&gt;Node34</title>
<path fill="none" stroke="#191970" d="M877.4331,-280.3733C854.6572,-271.2629 820.2656,-257.5062 794.851,-247.3404"/>
<polygon fill="#191970" stroke="#191970" points="795.8375,-243.9654 785.2528,-243.5011 793.2377,-250.4648 795.8375,-243.9654"/>
</g>
<!-- Node35 -->
<g id="node36" class="node">
<title>Node35</title>
<g id="a_node36"><a xlink:href="work_8hpp.html" target="_top" xlink:title="work.hpp">
<polygon fill="#ffffff" stroke="#000000" points="1138,-168.5 1138,-187.5 1203,-187.5 1203,-168.5 1138,-168.5"/>
<text text-anchor="middle" x="1170.5" y="-175.5" font-family="'Consolas',monospace" font-size="10.00" fill="#000000">work.hpp</text>
</a>
</g>
</g>
<!-- Node0&#45;&gt;Node35 -->
<g id="edge90" class="edge">
<title>Node0&#45;&gt;Node35</title>
<path fill="none" stroke="#191970" d="M924.4348,-280.4509C972.3779,-260.4895 1083.3077,-214.3031 1138.3407,-191.3897"/>
<polygon fill="#191970" stroke="#191970" points="1139.7368,-194.5998 1147.6233,-187.5249 1137.0461,-188.1375 1139.7368,-194.5998"/>
</g>
<!-- Node2 -->
<g id="node3" class="node">
<title>Node2</title>
<g id="a_node3"><a xlink:href="dll_8hpp_source.html" target="_top" xlink:title="dll.hpp">
<polygon fill="#ffffff" stroke="#000000" points="1193,-.5 1193,-19.5 1252,-19.5 1252,-.5 1193,-.5"/>
<text text-anchor="middle" x="1222.5" y="-7.5" font-family="'Consolas',monospace" font-size="10.00" fill="#000000">dll.hpp</text>
</a>
</g>
</g>
<!-- Node1&#45;&gt;Node2 -->
<g id="edge2" class="edge">
<title>Node1&#45;&gt;Node2</title>
<path fill="none" stroke="#191970" d="M951.2268,-168.1909C933.274,-145.685 894.5978,-89.6887 923.5,-56 940.1778,-36.5602 1105.0556,-20.0367 1182.5894,-13.2729"/>
<polygon fill="#191970" stroke="#191970" points="1183.2623,-16.7281 1192.9256,-12.384 1182.6624,-9.7538 1183.2623,-16.7281"/>
</g>
<!-- Node3 -->
<g id="node4" class="node">
<title>Node3</title>
<polygon fill="#ffffff" stroke="#bfbfbf" points="933,-56.5 933,-75.5 986,-75.5 986,-56.5 933,-56.5"/>
<text text-anchor="middle" x="959.5" y="-63.5" font-family="'Consolas',monospace" font-size="10.00" fill="#000000">memory</text>
</g>
<!-- Node1&#45;&gt;Node3 -->
<g id="edge3" class="edge">
<title>Node1&#45;&gt;Node3</title>
<path fill="none" stroke="#191970" d="M961.0434,-168.1686C962.8832,-155.2807 965.5819,-131.9653 964.5,-112 964.0338,-103.3971 963.0807,-93.9288 962.1304,-85.8301"/>
<polygon fill="#191970" stroke="#191970" points="965.5957,-85.334 960.8824,-75.8453 958.6498,-86.2023 965.5957,-85.334"/>
</g>
<!-- Node4 -->
<g id="node5" class="node">
<title>Node4</title>
<polygon fill="#ffffff" stroke="#bfbfbf" points="609,-112.5 609,-131.5 662,-131.5 662,-112.5 609,-112.5"/>
<text text-anchor="middle" x="635.5" y="-119.5" font-family="'Consolas',monospace" font-size="10.00" fill="#000000">string</text>
</g>
<!-- Node1&#45;&gt;Node4 -->
<g id="edge4" class="edge">
<title>Node1&#45;&gt;Node4</title>
<path fill="none" stroke="#191970" d="M929.8882,-172.8819C870.5486,-162.6257 737.2208,-139.5814 672.3503,-128.3692"/>
<polygon fill="#191970" stroke="#191970" points="672.6273,-124.8652 662.1773,-126.6109 671.435,-131.763 672.6273,-124.8652"/>
</g>
<!-- Node5&#45;&gt;Node2 -->
<g id="edge6" class="edge">
<title>Node5&#45;&gt;Node2</title>
<path fill="none" stroke="#191970" d="M1401.9735,-112.037C1393.5326,-97.688 1376.1088,-71.2567 1354.5,-56 1326.6908,-36.3656 1289.7254,-24.4372 1261.9875,-17.6649"/>
<polygon fill="#191970" stroke="#191970" points="1262.7521,-14.2494 1252.2198,-15.3984 1261.1698,-21.0682 1262.7521,-14.2494"/>
</g>
<!-- Node5&#45;&gt;Node3 -->
<g id="edge7" class="edge">
<title>Node5&#45;&gt;Node3</title>
<path fill="none" stroke="#191970" d="M1368.9589,-117.5326C1353.8497,-115.7911 1336.3634,-113.7876 1320.5,-112 1178.9007,-96.0438 1139.2973,-103.7556 996.1725,-76.0764"/>
<polygon fill="#191970" stroke="#191970" points="996.6266,-72.5989 986.1404,-74.1116 995.2812,-79.4684 996.6266,-72.5989"/>
</g>
<!-- Node6&#45;&gt;Node3 -->
<g id="edge12" class="edge">
<title>Node6&#45;&gt;Node3</title>
<path fill="none" stroke="#191970" d="M481.2514,-113.7403C486.0696,-113.1307 490.8646,-112.5428 495.5,-112 654.0699,-93.4316 843.7087,-76.1715 922.4302,-69.2246"/>
<polygon fill="#191970" stroke="#191970" points="923.1323,-72.6765 932.7872,-68.3138 922.519,-65.7034 923.1323,-72.6765"/>
</g>
<!-- Node7 -->
<g id="node8" class="node">
<title>Node7</title>
<g id="a_node8"><a xlink:href="Finally_8hpp_source.html" target="_top" xlink:title="Finally.hpp">
<polygon fill="#ffffff" stroke="#000000" points="32,-56.5 32,-75.5 115,-75.5 115,-56.5 32,-56.5"/>
<text text-anchor="middle" x="73.5" y="-63.5" font-family="'Consolas',monospace" font-size="10.00" fill="#000000">Finally.hpp</text>
</a>
</g>
</g>
<!-- Node6&#45;&gt;Node7 -->
<g id="edge9" class="edge">
<title>Node6&#45;&gt;Node7</title>
<path fill="none" stroke="#191970" d="M362.0721,-112.4369C295.504,-101.7248 188.6614,-84.5317 125.3515,-74.3439"/>
<polygon fill="#191970" stroke="#191970" points="125.6264,-70.8432 115.1973,-72.7099 124.5142,-77.7543 125.6264,-70.8432"/>
</g>
<!-- Node7&#45;&gt;Node2 -->
<g id="edge10" class="edge">
<title>Node7&#45;&gt;Node2</title>
<path fill="none" stroke="#191970" d="M115.3044,-57.9007C120.0787,-57.1645 124.886,-56.5067 129.5,-56 339.8444,-32.8993 1012.1438,-15.1613 1182.8099,-10.953"/>
<polygon fill="#191970" stroke="#191970" points="1182.95,-14.4507 1192.8612,-10.7065 1182.7784,-7.4528 1182.95,-14.4507"/>
</g>
<!-- Node8 -->
<g id="node9" class="node">
<title>Node8</title>
<polygon fill="#ffffff" stroke="#bfbfbf" points="0,-.5 0,-19.5 77,-19.5 77,-.5 0,-.5"/>
<text text-anchor="middle" x="38.5" y="-7.5" font-family="'Consolas',monospace" font-size="10.00" fill="#000000">functional</text>
</g>
<!-- Node7&#45;&gt;Node8 -->
<g id="edge11" class="edge">
<title>Node7&#45;&gt;Node8</title>
<path fill="none" stroke="#191970" d="M67.4035,-56.2455C62.5855,-48.5367 55.7249,-37.5598 49.8968,-28.2348"/>
<polygon fill="#191970" stroke="#191970" points="52.7947,-26.2677 44.5267,-19.6427 46.8587,-29.9777 52.7947,-26.2677"/>
</g>
<!-- Node10&#45;&gt;Node2 -->
<g id="edge15" class="edge">
<title>Node10&#45;&gt;Node2</title>
<path fill="none" stroke="#191970" d="M1789.352,-112.3127C1782.3493,-97.2974 1766.6453,-68.803 1743.5,-56 1701.6995,-32.8777 1376.5917,-16.6872 1262.1744,-11.6558"/>
<polygon fill="#191970" stroke="#191970" points="1262.2323,-8.1551 1252.0896,-11.2173 1261.9281,-15.1485 1262.2323,-8.1551"/>
</g>
<!-- Node11&#45;&gt;Node12 -->
<g id="edge17" class="edge">
<title>Node11&#45;&gt;Node12</title>
<path fill="none" stroke="#191970" d="M618.8484,-224.2455C619.1093,-216.9382 619.4752,-206.6944 619.7963,-197.7046"/>
<polygon fill="#191970" stroke="#191970" points="623.2964,-197.7613 620.1556,-187.6427 616.3008,-197.5113 623.2964,-197.7613"/>
</g>
<!-- Node12&#45;&gt;Node2 -->
<g id="edge18" class="edge">
<title>Node12&#45;&gt;Node2</title>
<path fill="none" stroke="#191970" d="M584.6779,-169.8409C581.5784,-169.1953 578.4868,-168.5724 575.5,-168 475.1383,-148.7649 285.0689,-188.7823 352.5,-112 408.1027,-48.6865 1019.5241,-18.5486 1182.6802,-11.598"/>
<polygon fill="#191970" stroke="#191970" points="1182.9241,-15.0909 1192.7681,-11.1736 1182.6298,-8.0971 1182.9241,-15.0909"/>
</g>
<!-- Node12&#45;&gt;Node3 -->
<g id="edge25" class="edge">
<title>Node12&#45;&gt;Node3</title>
<path fill="none" stroke="#191970" d="M586.9153,-168.4674C552.3913,-157.0613 506.5537,-136.4132 528.5,-112 554.6809,-82.8761 823.2631,-70.7007 922.7211,-67.1675"/>
<polygon fill="#191970" stroke="#191970" points="923.0265,-70.6591 932.8994,-66.8153 922.7844,-63.6633 923.0265,-70.6591"/>
</g>
<!-- Node12&#45;&gt;Node8 -->
<g id="edge23" class="edge">
<title>Node12&#45;&gt;Node8</title>
<path fill="none" stroke="#191970" d="M584.6903,-169.7748C581.5881,-169.1435 578.4925,-168.542 575.5,-168 452.9168,-145.7963 102.0112,-171.9042 22.5,-76 11.3888,-62.598 18.4179,-42.6993 26.3578,-28.2569"/>
<polygon fill="#191970" stroke="#191970" points="29.3641,-30.0492 31.5254,-19.6771 23.3677,-26.4375 29.3641,-30.0492"/>
</g>
<!-- Node13 -->
<g id="node14" class="node">
<title>Node13</title>
<g id="a_node14"><a xlink:href="Vec2_8hpp.html" target="_top" xlink:title="Vec2.hpp">
<polygon fill="#ffffff" stroke="#000000" points="1131,-112.5 1131,-131.5 1196,-131.5 1196,-112.5 1131,-112.5"/>
<text text-anchor="middle" x="1163.5" y="-119.5" font-family="'Consolas',monospace" font-size="10.00" fill="#000000">Vec2.hpp</text>
</a>
</g>
</g>
<!-- Node12&#45;&gt;Node13 -->
<g id="edge19" class="edge">
<title>Node12&#45;&gt;Node13</title>
<path fill="none" stroke="#191970" d="M656.0249,-173.5597C670.7126,-171.7656 687.9193,-169.7175 703.5,-168 856.7693,-151.1052 1039.0705,-133.6605 1120.5023,-126.0069"/>
<polygon fill="#191970" stroke="#191970" points="1121.2196,-129.4551 1130.8489,-125.0362 1120.5656,-122.4857 1121.2196,-129.4551"/>
</g>
<!-- Node16 -->
<g id="node17" class="node">
<title>Node16</title>
<polygon fill="#ffffff" stroke="#bfbfbf" points="538,-112.5 538,-131.5 591,-131.5 591,-112.5 538,-112.5"/>
<text text-anchor="middle" x="564.5" y="-119.5" font-family="'Consolas',monospace" font-size="10.00" fill="#000000">vector</text>
</g>
<!-- Node12&#45;&gt;Node16 -->
<g id="edge24" class="edge">
<title>Node12&#45;&gt;Node16</title>
<path fill="none" stroke="#191970" d="M610.7455,-168.2455C602.6352,-160.1352 590.9075,-148.4075 581.2919,-138.7919"/>
<polygon fill="#191970" stroke="#191970" points="583.6887,-136.2389 574.1427,-131.6427 578.7389,-141.1887 583.6887,-136.2389"/>
</g>
<!-- Node13&#45;&gt;Node2 -->
<g id="edge20" class="edge">
<title>Node13&#45;&gt;Node2</title>
<path fill="none" stroke="#191970" d="M1173.811,-112.3127C1182.5661,-103.5722 1194.8879,-89.9759 1202.5,-76 1210.3743,-61.5426 1215.5596,-43.5755 1218.6729,-30.0397"/>
<polygon fill="#191970" stroke="#191970" points="1222.1752,-30.3931 1220.8142,-19.8861 1215.3259,-28.9486 1222.1752,-30.3931"/>
</g>
<!-- Node14 -->
<g id="node15" class="node">
<title>Node14</title>
<polygon fill="#ffffff" stroke="#bfbfbf" points="1004,-56.5 1004,-75.5 1123,-75.5 1123,-56.5 1004,-56.5"/>
<text text-anchor="middle" x="1063.5" y="-63.5" font-family="'Consolas',monospace" font-size="10.00" fill="#000000">boost/version.hpp</text>
</g>
<!-- Node13&#45;&gt;Node14 -->
<g id="edge21" class="edge">
<title>Node13&#45;&gt;Node14</title>
<path fill="none" stroke="#191970" d="M1146.0813,-112.2455C1130.4515,-103.4928 1107.2981,-90.527 1089.4815,-80.5496"/>
<polygon fill="#191970" stroke="#191970" points="1091.1543,-77.475 1080.7191,-75.6427 1087.734,-83.5825 1091.1543,-77.475"/>
</g>
<!-- Node15 -->
<g id="node16" class="node">
<title>Node15</title>
<polygon fill="#ffffff" stroke="#bfbfbf" points="1141,-56.5 1141,-75.5 1194,-75.5 1194,-56.5 1141,-56.5"/>
<text text-anchor="middle" x="1167.5" y="-63.5" font-family="'Consolas',monospace" font-size="10.00" fill="#000000">iosfwd</text>
</g>
<!-- Node13&#45;&gt;Node15 -->
<g id="edge22" class="edge">
<title>Node13&#45;&gt;Node15</title>
<path fill="none" stroke="#191970" d="M1164.1967,-112.2455C1164.7187,-104.9382 1165.4504,-94.6944 1166.0925,-85.7046"/>
<polygon fill="#191970" stroke="#191970" points="1169.5898,-85.8667 1166.8112,-75.6427 1162.6076,-85.3679 1169.5898,-85.8667"/>
</g>
<!-- Node17&#45;&gt;Node18 -->
<g id="edge27" class="edge">
<title>Node17&#45;&gt;Node18</title>
<path fill="none" stroke="#191970" d="M432.9974,-224.2455C419.342,-215.6534 399.2343,-203.0014 383.5011,-193.1018"/>
<polygon fill="#191970" stroke="#191970" points="385.1529,-190.006 374.825,-187.6427 381.4249,-195.9307 385.1529,-190.006"/>
</g>
<!-- Node19 -->
<g id="node20" class="node">
<title>Node19</title>
<polygon fill="#ffffff" stroke="#bfbfbf" points="419,-168.5 419,-187.5 478,-187.5 478,-168.5 419,-168.5"/>
<text text-anchor="middle" x="448.5" y="-175.5" font-family="'Consolas',monospace" font-size="10.00" fill="#000000">sstream</text>
</g>
<!-- Node17&#45;&gt;Node19 -->
<g id="edge30" class="edge">
<title>Node17&#45;&gt;Node19</title>
<path fill="none" stroke="#191970" d="M448.5,-224.2455C448.5,-216.9382 448.5,-206.6944 448.5,-197.7046"/>
<polygon fill="#191970" stroke="#191970" points="452.0001,-197.6426 448.5,-187.6427 445.0001,-197.6427 452.0001,-197.6426"/>
</g>
<!-- Node18&#45;&gt;Node2 -->
<g id="edge28" class="edge">
<title>Node18&#45;&gt;Node2</title>
<path fill="none" stroke="#191970" d="M350.7139,-168.2709C343.4314,-159.5036 333.6295,-145.8915 329.5,-132 318.5639,-95.2116 336.7524,-74.2781 370.5,-56 442.3612,-17.0792 1023.4457,-11.0778 1182.4233,-10.1626"/>
<polygon fill="#191970" stroke="#191970" points="1182.721,-13.6612 1192.7019,-10.1073 1182.6832,-6.6613 1182.721,-13.6612"/>
</g>
<!-- Node18&#45;&gt;Node4 -->
<g id="edge29" class="edge">
<title>Node18&#45;&gt;Node4</title>
<path fill="none" stroke="#191970" d="M401.2356,-169.62C404.0319,-169.0687 406.8063,-168.5245 409.5,-168 490.814,-152.1656 514.1321,-151.5439 599.0155,-131.9608"/>
<polygon fill="#191970" stroke="#191970" points="599.8815,-135.3529 608.8275,-129.6768 598.2944,-128.5352 599.8815,-135.3529"/>
</g>
<!-- Node20&#45;&gt;Node2 -->
<g id="edge32" class="edge">
<title>Node20&#45;&gt;Node2</title>
<path fill="none" stroke="#191970" d="M843.8629,-112.4452C851.1865,-97.6114 867.4479,-69.3613 890.5,-56 939.4241,-27.643 1105.4266,-15.8294 1182.5327,-11.7844"/>
<polygon fill="#191970" stroke="#191970" points="1182.9912,-15.2657 1192.8013,-11.2643 1182.637,-8.2747 1182.9912,-15.2657"/>
</g>
<!-- Node21&#45;&gt;Node2 -->
<g id="edge35" class="edge">
<title>Node21&#45;&gt;Node2</title>
<path fill="none" stroke="#191970" d="M1120.0942,-168.6835C1150.447,-159.4066 1192.7301,-144.7496 1204.5,-132 1230.1687,-104.1948 1228.973,-56.6281 1225.7728,-29.8423"/>
<polygon fill="#191970" stroke="#191970" points="1229.2123,-29.1669 1224.351,-19.7532 1222.2808,-30.1438 1229.2123,-29.1669"/>
</g>
<!-- Node21&#45;&gt;Node3 -->
<g id="edge37" class="edge">
<title>Node21&#45;&gt;Node3</title>
<path fill="none" stroke="#191970" d="M1082.5023,-168.4887C1074.8964,-154.7024 1059.2963,-128.965 1040.5,-112 1026.0844,-98.989 1007.3712,-88.0631 991.5636,-80.1289"/>
<polygon fill="#191970" stroke="#191970" points="992.6876,-76.7848 982.1611,-75.5835 989.6409,-83.087 992.6876,-76.7848"/>
</g>
<!-- Node21&#45;&gt;Node4 -->
<g id="edge38" class="edge">
<title>Node21&#45;&gt;Node4</title>
<path fill="none" stroke="#191970" d="M1054.9933,-173.9726C973.089,-163.8252 758.6478,-137.2573 672.3051,-126.5599"/>
<polygon fill="#191970" stroke="#191970" points="672.5432,-123.0627 662.1887,-125.3066 671.6825,-130.0096 672.5432,-123.0627"/>
</g>
<!-- Node21&#45;&gt;Node10 -->
<g id="edge34" class="edge">
<title>Node21&#45;&gt;Node10</title>
<path fill="none" stroke="#191970" d="M1120.073,-169.5256C1122.9111,-168.9484 1125.7489,-168.4275 1128.5,-168 1189.2322,-158.5634 1607.0903,-133.1125 1747.5539,-124.7233"/>
<polygon fill="#191970" stroke="#191970" points="1747.7942,-128.2153 1757.5681,-124.1261 1747.3774,-121.2277 1747.7942,-128.2153"/>
</g>
<!-- Node21&#45;&gt;Node13 -->
<g id="edge36" class="edge">
<title>Node21&#45;&gt;Node13</title>
<path fill="none" stroke="#191970" d="M1100.7382,-168.2455C1112.181,-159.814 1128.9296,-147.4729 1142.2475,-137.6598"/>
<polygon fill="#191970" stroke="#191970" points="1144.4391,-140.3924 1150.4135,-131.6427 1140.2867,-134.757 1144.4391,-140.3924"/>
</g>
<!-- Node22&#45;&gt;Node2 -->
<g id="edge40" class="edge">
<title>Node22&#45;&gt;Node2</title>
<path fill="none" stroke="#191970" d="M1549.4281,-112.0489C1538.2961,-97.2114 1515.1841,-69.5834 1488.5,-56 1449.6288,-36.2129 1326.6566,-20.8812 1262.4334,-13.9867"/>
<polygon fill="#191970" stroke="#191970" points="1262.5906,-10.484 1252.2783,-12.9144 1261.8554,-17.4453 1262.5906,-10.484"/>
</g>
<!-- Node22&#45;&gt;Node3 -->
<g id="edge41" class="edge">
<title>Node22&#45;&gt;Node3</title>
<path fill="none" stroke="#191970" d="M1502.7879,-116.5347C1487.2169,-115.0044 1470.1862,-113.3826 1454.5,-112 1253.514,-94.2848 1198.0982,-111.7683 996.164,-76.0018"/>
<polygon fill="#191970" stroke="#191970" points="996.5843,-72.5214 986.1235,-74.2013 995.3487,-79.4115 996.5843,-72.5214"/>
</g>
<!-- Node23&#45;&gt;Node2 -->
<g id="edge45" class="edge">
<title>Node23&#45;&gt;Node2</title>
<path fill="none" stroke="#191970" d="M1283.385,-112.4182C1284.1888,-98.9924 1284.0526,-74.1893 1274.5,-56 1268.1077,-43.8283 1257.0886,-33.371 1246.8347,-25.5167"/>
<polygon fill="#191970" stroke="#191970" points="1248.6852,-22.5367 1238.5197,-19.5509 1244.6044,-28.2243 1248.6852,-22.5367"/>
</g>
<!-- Node23&#45;&gt;Node3 -->
<g id="edge44" class="edge">
<title>Node23&#45;&gt;Node3</title>
<path fill="none" stroke="#191970" d="M1252.8639,-117.728C1193.0247,-109.0308 1058.7426,-89.1354 995.9635,-76.0884"/>
<polygon fill="#191970" stroke="#191970" points="996.6818,-72.6629 986.1687,-73.9761 995.2062,-79.5056 996.6818,-72.6629"/>
</g>
<!-- Node24&#45;&gt;Node7 -->
<g id="edge47" class="edge">
<title>Node24&#45;&gt;Node7</title>
<path fill="none" stroke="#191970" d="M220.7585,-229.8582C192.0906,-224.6456 150.988,-213.1094 124.5,-188 95.0523,-160.0849 81.9564,-112.5601 76.6703,-85.8107"/>
<polygon fill="#191970" stroke="#191970" points="80.0733,-84.9588 74.858,-75.7364 73.1839,-86.1981 80.0733,-84.9588"/>
</g>
<!-- Node24&#45;&gt;Node25 -->
<g id="edge48" class="edge">
<title>Node24&#45;&gt;Node25</title>
<path fill="none" stroke="#191970" d="M255.4161,-224.2455C256.8514,-216.9382 258.8636,-206.6944 260.6295,-197.7046"/>
<polygon fill="#191970" stroke="#191970" points="264.1127,-198.1298 262.6059,-187.6427 257.244,-196.7805 264.1127,-198.1298"/>
</g>
<!-- Node24&#45;&gt;Node26 -->
<g id="edge52" class="edge">
<title>Node24&#45;&gt;Node26</title>
<path fill="none" stroke="#191970" d="M239.3909,-224.2455C227.0791,-215.7337 209.0042,-203.2375 194.7462,-193.3801"/>
<polygon fill="#191970" stroke="#191970" points="196.6634,-190.4506 186.4474,-187.6427 192.6826,-196.2085 196.6634,-190.4506"/>
</g>
<!-- Node25&#45;&gt;Node2 -->
<g id="edge51" class="edge">
<title>Node25&#45;&gt;Node2</title>
<path fill="none" stroke="#191970" d="M267.1281,-168.1491C274.1571,-143.9911 295.8884,-81.8951 339.5,-56 376.1665,-34.2287 1014.6009,-15.5912 1182.3806,-11.0534"/>
<polygon fill="#191970" stroke="#191970" points="1182.6131,-14.5485 1192.5154,-10.781 1182.425,-7.5511 1182.6131,-14.5485"/>
</g>
<!-- Node25&#45;&gt;Node4 -->
<g id="edge49" class="edge">
<title>Node25&#45;&gt;Node4</title>
<path fill="none" stroke="#191970" d="M300.4589,-169.5183C303.1736,-168.9729 305.8764,-168.4592 308.5,-168 433.7337,-146.0795 469.9451,-156.9449 599.003,-131.8247"/>
<polygon fill="#191970" stroke="#191970" points="599.7402,-135.2468 608.8693,-129.8701 598.3798,-128.3802 599.7402,-135.2468"/>
</g>
<!-- Node25&#45;&gt;Node16 -->
<g id="edge50" class="edge">
<title>Node25&#45;&gt;Node16</title>
<path fill="none" stroke="#191970" d="M300.0115,-169.7828C302.88,-169.1637 305.7364,-168.562 308.5,-168 386.373,-152.163 478.1571,-136.3619 527.9267,-128.0312"/>
<polygon fill="#191970" stroke="#191970" points="528.6012,-131.4672 537.8892,-126.3696 527.4496,-124.5625 528.6012,-131.4672"/>
</g>
<!-- Node26&#45;&gt;Node2 -->
<g id="edge54" class="edge">
<title>Node26&#45;&gt;Node2</title>
<path fill="none" stroke="#191970" d="M179.6582,-168.3488C198.3062,-144.0893 251.2139,-80.7386 312.5,-56 393.8673,-23.1555 1017.774,-12.6897 1182.6463,-10.4833"/>
<polygon fill="#191970" stroke="#191970" points="1182.8785,-13.9807 1192.8317,-10.3498 1182.7866,-6.9813 1182.8785,-13.9807"/>
</g>
<!-- Node26&#45;&gt;Node4 -->
<g id="edge53" class="edge">
<title>Node26&#45;&gt;Node4</title>
<path fill="none" stroke="#191970" d="M211.1638,-169.4049C213.9781,-168.8926 216.7788,-168.417 219.5,-168 383.9946,-142.7945 430.9015,-162.0575 598.9599,-131.777"/>
<polygon fill="#191970" stroke="#191970" points="599.6813,-135.2031 608.886,-129.9568 598.4187,-128.3179 599.6813,-135.2031"/>
</g>
<!-- Node27&#45;&gt;Node2 -->
<g id="edge56" class="edge">
<title>Node27&#45;&gt;Node2</title>
<path fill="none" stroke="#191970" d="M1540.7419,-58.5191C1535.9502,-57.6438 1531.1157,-56.7844 1526.5,-56 1432.1251,-39.9619 1320.7874,-23.8197 1262.568,-15.5901"/>
<polygon fill="#191970" stroke="#191970" points="1262.722,-12.0772 1252.3314,-14.1473 1261.745,-19.0087 1262.722,-12.0772"/>
</g>
<!-- Node28&#45;&gt;Node2 -->
<g id="edge60" class="edge">
<title>Node28&#45;&gt;Node2</title>
<path fill="none" stroke="#191970" d="M1305.3118,-168.3189C1313.4298,-155.5936 1325.3285,-132.4538 1320.5,-112 1314.1068,-84.9178 1310.9847,-76.7999 1292.5,-56 1281.1194,-43.194 1265.3884,-32.4324 1251.7214,-24.5458"/>
<polygon fill="#191970" stroke="#191970" points="1253.1155,-21.3178 1242.6683,-19.5554 1249.7362,-27.4481 1253.1155,-21.3178"/>
</g>
<!-- Node28&#45;&gt;Node13 -->
<g id="edge61" class="edge">
<title>Node28&#45;&gt;Node13</title>
<path fill="none" stroke="#191970" d="M1275.2927,-168.3733C1253.3301,-159.2629 1220.1668,-145.5062 1195.6599,-135.3404"/>
<polygon fill="#191970" stroke="#191970" points="1196.9824,-132.0999 1186.4045,-131.5011 1194.3003,-138.5657 1196.9824,-132.0999"/>
</g>
<!-- Node29&#45;&gt;Node2 -->
<g id="edge63" class="edge">
<title>Node29&#45;&gt;Node2</title>
<path fill="none" stroke="#191970" d="M1744.1338,-168.1602C1745.0553,-144.5715 1743.7366,-84.6381 1709.5,-56 1675.4629,-27.5288 1372.385,-14.8853 1262.2639,-11.2029"/>
<polygon fill="#191970" stroke="#191970" points="1262.3341,-7.7034 1252.2249,-10.8743 1262.1051,-14.6996 1262.3341,-7.7034"/>
</g>
<!-- Node29&#45;&gt;Node10 -->
<g id="edge64" class="edge">
<title>Node29&#45;&gt;Node10</title>
<path fill="none" stroke="#191970" d="M1752.2093,-168.2455C1759.3073,-160.2958 1769.5084,-148.8706 1777.995,-139.3656"/>
<polygon fill="#191970" stroke="#191970" points="1780.8411,-141.4331 1784.8905,-131.6427 1775.6195,-136.771 1780.8411,-141.4331"/>
</g>
<!-- Node29&#45;&gt;Node13 -->
<g id="edge65" class="edge">
<title>Node29&#45;&gt;Node13</title>
<path fill="none" stroke="#191970" d="M1704.8762,-174.8786C1620.8748,-167.9952 1415.311,-150.6365 1243.5,-132 1231.4458,-130.6925 1218.3894,-129.1248 1206.3892,-127.6228"/>
<polygon fill="#191970" stroke="#191970" points="1206.5278,-124.1125 1196.1672,-126.3279 1205.648,-131.057 1206.5278,-124.1125"/>
</g>
<!-- Node30&#45;&gt;Node2 -->
<g id="edge67" class="edge">
<title>Node30&#45;&gt;Node2</title>
<path fill="none" stroke="#191970" d="M495.5637,-169.8153C439.5757,-157.0235 337.7514,-133.581 336.5,-132 330.9831,-125.0303 331.7872,-119.5367 336.5,-112 366.6405,-63.7988 396.5091,-70.4155 451.5,-56 591.8218,-19.2155 1045.6859,-11.7509 1182.8664,-10.3213"/>
<polygon fill="#191970" stroke="#191970" points="1182.9672,-13.8206 1192.932,-10.2214 1182.8977,-6.8209 1182.9672,-13.8206"/>
</g>
<!-- Node30&#45;&gt;Node4 -->
<g id="edge68" class="edge">
<title>Node30&#45;&gt;Node4</title>
<path fill="none" stroke="#191970" d="M549.6154,-168.2455C565.945,-159.4527 590.171,-146.4079 608.7339,-136.4125"/>
<polygon fill="#191970" stroke="#191970" points="610.4468,-139.4654 617.5922,-131.6427 607.1281,-133.3021 610.4468,-139.4654"/>
</g>
<!-- Node31&#45;&gt;Node2 -->
<g id="edge76" class="edge">
<title>Node31&#45;&gt;Node2</title>
<path fill="none" stroke="#191970" d="M752.0721,-168.1074C753.1763,-154.7473 756.3696,-130.4832 765.5,-112 780.0184,-82.6098 784.5317,-71.343 813.5,-56 876.9729,-22.3816 1092.9905,-13.1962 1182.8175,-10.8017"/>
<polygon fill="#191970" stroke="#191970" points="1182.9679,-14.2991 1192.8765,-10.5481 1182.7914,-7.3013 1182.9679,-14.2991"/>
</g>
<!-- Node31&#45;&gt;Node3 -->
<g id="edge73" class="edge">
<title>Node31&#45;&gt;Node3</title>
<path fill="none" stroke="#191970" d="M753.7961,-168.3267C757.7424,-153.8522 767.2117,-126.6918 785.5,-112 806.5171,-95.116 878.2581,-80.0933 922.7923,-72.094"/>
<polygon fill="#191970" stroke="#191970" points="923.4258,-75.5364 932.6671,-70.355 922.2116,-68.6425 923.4258,-75.5364"/>
</g>
<!-- Node31&#45;&gt;Node4 -->
<g id="edge74" class="edge">
<title>Node31&#45;&gt;Node4</title>
<path fill="none" stroke="#191970" d="M731.5589,-168.3733C713.0214,-159.4241 685.1972,-145.9917 664.2587,-135.8835"/>
<polygon fill="#191970" stroke="#191970" points="665.7081,-132.6967 655.1809,-131.5011 662.6648,-139.0006 665.7081,-132.6967"/>
</g>
<!-- Node31&#45;&gt;Node6 -->
<g id="edge70" class="edge">
<title>Node31&#45;&gt;Node6</title>
<path fill="none" stroke="#191970" d="M712.999,-171.4665C657.7721,-162.0947 555.2931,-144.7043 487.7463,-133.2418"/>
<polygon fill="#191970" stroke="#191970" points="488.0758,-129.7477 477.6311,-131.5253 486.9046,-136.6491 488.0758,-129.7477"/>
</g>
<!-- Node31&#45;&gt;Node13 -->
<g id="edge71" class="edge">
<title>Node31&#45;&gt;Node13</title>
<path fill="none" stroke="#191970" d="M790.1792,-169.5005C792.9899,-168.9658 795.7855,-168.459 798.5,-168 914.4073,-148.4015 1052.3167,-133.2067 1120.6796,-126.2139"/>
<polygon fill="#191970" stroke="#191970" points="1121.0502,-129.6943 1130.6456,-125.2023 1120.3433,-122.7301 1121.0502,-129.6943"/>
</g>
<!-- Node31&#45;&gt;Node16 -->
<g id="edge75" class="edge">
<title>Node31&#45;&gt;Node16</title>
<path fill="none" stroke="#191970" d="M719.3536,-168.3733C686.3733,-158.4968 635.1591,-143.16 600.7549,-132.8571"/>
<polygon fill="#191970" stroke="#191970" points="601.6754,-129.4792 591.0916,-129.9633 599.6672,-136.185 601.6754,-129.4792"/>
</g>
<!-- Node31&#45;&gt;Node20 -->
<g id="edge72" class="edge">
<title>Node31&#45;&gt;Node20</title>
<path fill="none" stroke="#191970" d="M766.8284,-168.2455C780.3303,-159.6534 800.2122,-147.0014 815.7686,-137.1018"/>
<polygon fill="#191970" stroke="#191970" points="817.7897,-139.9643 824.3472,-131.6427 814.0315,-134.0587 817.7897,-139.9643"/>
</g>
<!-- Node32&#45;&gt;Node2 -->
<g id="edge78" class="edge">
<title>Node32&#45;&gt;Node2</title>
<path fill="none" stroke="#191970" d="M822.4627,-168.497C802.2628,-156.494 773.7884,-134.6575 785.5,-112 805.2622,-73.7678 824.4094,-71.6521 864.5,-56 921.8309,-33.6169 1101.9572,-18.5003 1182.6811,-12.6771"/>
<polygon fill="#191970" stroke="#191970" points="1183.206,-16.1488 1192.9329,-11.9492 1182.7101,-9.1664 1183.206,-16.1488"/>
</g>
<!-- Node32&#45;&gt;Node3 -->
<g id="edge80" class="edge">
<title>Node32&#45;&gt;Node3</title>
<path fill="none" stroke="#191970" d="M851.8132,-168.3003C862.4527,-159.1061 878.7558,-144.8315 892.5,-132 910.0593,-115.6068 929.565,-96.2572 942.9803,-82.7637"/>
<polygon fill="#191970" stroke="#191970" points="945.563,-85.1298 950.1144,-75.5623 940.5901,-80.2033 945.563,-85.1298"/>
</g>
<!-- Node32&#45;&gt;Node4 -->
<g id="edge81" class="edge">
<title>Node32&#45;&gt;Node4</title>
<path fill="none" stroke="#191970" d="M807.5632,-169.0026C770.4721,-158.8704 710.3706,-142.4524 671.9108,-131.9464"/>
<polygon fill="#191970" stroke="#191970" points="672.7196,-128.5391 662.1507,-129.2802 670.8749,-135.2917 672.7196,-128.5391"/>
</g>
<!-- Node32&#45;&gt;Node16 -->
<g id="edge82" class="edge">
<title>Node32&#45;&gt;Node16</title>
<path fill="none" stroke="#191970" d="M807.9801,-170.0714C804.7821,-169.3476 801.5813,-168.645 798.5,-168 713.6197,-150.2315 688.7721,-152.2013 601.0295,-132.1952"/>
<polygon fill="#191970" stroke="#191970" points="601.7131,-128.761 591.1818,-129.9187 600.1365,-135.5811 601.7131,-128.761"/>
</g>
<!-- Node32&#45;&gt;Node20 -->
<g id="edge79" class="edge">
<title>Node32&#45;&gt;Node20</title>
<path fill="none" stroke="#191970" d="M840.3258,-168.2455C840.1953,-160.9382 840.0124,-150.6944 839.8519,-141.7046"/>
<polygon fill="#191970" stroke="#191970" points="843.3503,-141.5786 839.6722,-131.6427 836.3514,-141.7036 843.3503,-141.5786"/>
</g>
<!-- Node33&#45;&gt;Node2 -->
<g id="edge84" class="edge">
<title>Node33&#45;&gt;Node2</title>
<path fill="none" stroke="#191970" d="M1635.5629,-57.7619C1632.5088,-57.1178 1629.4532,-56.5178 1626.5,-56 1493.9555,-32.762 1334.7972,-18.6257 1262.1521,-12.9211"/>
<polygon fill="#191970" stroke="#191970" points="1262.3156,-9.4234 1252.0752,-12.1405 1261.775,-16.4024 1262.3156,-9.4234"/>
</g>
<!-- Node34&#45;&gt;Node3 -->
<g id="edge87" class="edge">
<title>Node34&#45;&gt;Node3</title>
<path fill="none" stroke="#191970" d="M797.3267,-232.3976C856.9684,-228.8965 972.5489,-218.284 997.5,-188 1022.8636,-157.2154 993.854,-109.4922 974.3373,-83.8097"/>
<polygon fill="#191970" stroke="#191970" points="976.8812,-81.3839 967.9346,-75.7086 971.3894,-85.7244 976.8812,-81.3839"/>
</g>
<!-- Node34&#45;&gt;Node4 -->
<g id="edge88" class="edge">
<title>Node34&#45;&gt;Node4</title>
<path fill="none" stroke="#191970" d="M748.7607,-224.4816C736.8082,-215.4155 718.5664,-201.2275 703.5,-188 685.3106,-172.0306 665.5688,-152.6177 652.0666,-138.9937"/>
<polygon fill="#191970" stroke="#191970" points="654.4065,-136.3815 644.8967,-131.7109 649.4182,-141.2925 654.4065,-136.3815"/>
</g>
<!-- Node34&#45;&gt;Node31 -->
<g id="edge86" class="edge">
<title>Node34&#45;&gt;Node31</title>
<path fill="none" stroke="#191970" d="M759.7581,-224.2455C758.4533,-216.9382 756.624,-206.6944 755.0187,-197.7046"/>
<polygon fill="#191970" stroke="#191970" points="758.4254,-196.8717 753.2219,-187.6427 751.5344,-198.1022 758.4254,-196.8717"/>
</g>
<!-- Node35&#45;&gt;Node2 -->
<g id="edge91" class="edge">
<title>Node35&#45;&gt;Node2</title>
<path fill="none" stroke="#191970" d="M1203.0675,-173.8659C1275.9275,-164.4641 1446.3665,-141.5569 1454.5,-132 1512.7177,-63.594 1343.2317,-28.1459 1262.5709,-15.4998"/>
<polygon fill="#191970" stroke="#191970" points="1262.6848,-11.9769 1252.2722,-13.9334 1261.6322,-18.8973 1262.6848,-11.9769"/>
</g>
<!-- Node35&#45;&gt;Node3 -->
<g id="edge93" class="edge">
<title>Node35&#45;&gt;Node3</title>
<path fill="none" stroke="#191970" d="M1156.3276,-168.3927C1136.1791,-154.9365 1097.8777,-130.0975 1063.5,-112 1040.4253,-99.8528 1013.4764,-87.995 992.7935,-79.3615"/>
<polygon fill="#191970" stroke="#191970" points="994.0574,-76.0968 983.4786,-75.5139 991.3849,-82.5666 994.0574,-76.0968"/>
</g>
<!-- Node35&#45;&gt;Node23 -->
<g id="edge92" class="edge">
<title>Node35&#45;&gt;Node23</title>
<path fill="none" stroke="#191970" d="M1189.7535,-168.3733C1207.5712,-159.4644 1234.2747,-146.1127 1254.4594,-136.0203"/>
<polygon fill="#191970" stroke="#191970" points="1256.1187,-139.1038 1263.4978,-131.5011 1252.9882,-132.8428 1256.1187,-139.1038"/>
</g>
</g>
</svg>
