<?xml version="1.0" encoding="UTF-8" standalone="no"?>
<!DOCTYPE svg PUBLIC "-//W3C//DTD SVG 1.1//EN"
 "http://www.w3.org/Graphics/SVG/1.1/DTD/svg11.dtd">
<!-- Generated by graphviz version 2.40.1 (20161225.0304)
 -->
<!-- Title: jngl/all.hpp Pages: 1 -->
<svg width="1842pt" height="308pt"
 viewBox="0.00 0.00 1842.00 308.00" xmlns="http://www.w3.org/2000/svg" xmlns:xlink="http://www.w3.org/1999/xlink">
<g id="graph0" class="graph" transform="scale(1 1) rotate(0) translate(4 304)">
<title>jngl/all.hpp</title>
<polygon fill="#ffffff" stroke="transparent" points="-4,4 -4,-304 1838,-304 1838,4 -4,4"/>
<!-- Node0 -->
<g id="node1" class="node">
<title>Node0</title>
<polygon fill="#bfbfbf" stroke="#000000" points="878,-280.5 878,-299.5 967,-299.5 967,-280.5 878,-280.5"/>
<text text-anchor="middle" x="922.5" y="-287.5" font-family="'Consolas',monospace" font-size="10.00" fill="#000000">jngl/all.hpp</text>
</g>
<!-- Node1 -->
<g id="node2" class="node">
<title>Node1</title>
<g id="a_node2"><a xlink:href="App_8hpp_source.html" target="_top" xlink:title="App.hpp">
<polygon fill="#ffffff" stroke="#000000" points="549,-168.5 549,-187.5 608,-187.5 608,-168.5 549,-168.5"/>
<text text-anchor="middle" x="578.5" y="-175.5" font-family="'Consolas',monospace" font-size="10.00" fill="#000000">App.hpp</text>
</a>
</g>
</g>
<!-- Node0&#45;&gt;Node1 -->
<g id="edge1" class="edge">
<title>Node0&#45;&gt;Node1</title>
<path fill="none" stroke="#191970" d="M877.9145,-287.3373C827.0113,-283.0407 742.0585,-271.9951 674.5,-244 645.1152,-231.8234 615.6045,-209.6999 597.212,-194.4459"/>
<polygon fill="#191970" stroke="#191970" points="599.0145,-191.3851 589.1253,-187.583 594.4851,-196.7222 599.0145,-191.3851"/>
</g>
<!-- Node5 -->
<g id="node6" class="node">
<title>Node5</title>
<g id="a_node6"><a xlink:href="Shader_8hpp_source.html" target="_top" xlink:title="Shader.hpp">
<polygon fill="#ffffff" stroke="#000000" points="1177,-112.5 1177,-131.5 1254,-131.5 1254,-112.5 1177,-112.5"/>
<text text-anchor="middle" x="1215.5" y="-119.5" font-family="'Consolas',monospace" font-size="10.00" fill="#000000">Shader.hpp</text>
</a>
</g>
</g>
<!-- Node0&#45;&gt;Node5 -->
<g id="edge5" class="edge">
<title>Node0&#45;&gt;Node5</title>
<path fill="none" stroke="#191970" d="M967.3171,-284.0392C1002.5974,-277.9041 1052.0595,-266.0226 1090.5,-244 1138.4889,-216.5071 1181.5451,-166.2655 1202.3398,-139.6433"/>
<polygon fill="#191970" stroke="#191970" points="1205.2087,-141.6537 1208.5135,-131.5874 1199.6526,-137.3958 1205.2087,-141.6537"/>
</g>
<!-- Node6 -->
<g id="node7" class="node">
<title>Node6</title>
<g id="a_node7"><a xlink:href="ShaderProgram_8hpp_source.html" target="_top" xlink:title="ShaderProgram.hpp">
<polygon fill="#ffffff" stroke="#000000" points="216,-112.5 216,-131.5 335,-131.5 335,-112.5 216,-112.5"/>
<text text-anchor="middle" x="275.5" y="-119.5" font-family="'Consolas',monospace" font-size="10.00" fill="#000000">ShaderProgram.hpp</text>
</a>
</g>
</g>
<!-- Node0&#45;&gt;Node6 -->
<g id="edge8" class="edge">
<title>Node0&#45;&gt;Node6</title>
<path fill="none" stroke="#191970" d="M877.7691,-289.4082C737.9477,-287.2187 310.4825,-277.8576 176.5,-244 119.048,-229.4818 87.4111,-237.9318 55.5,-188 50.7132,-180.5101 49.8946,-174.8987 55.5,-168 74.2444,-144.9309 148.597,-133.0278 205.7311,-127.1708"/>
<polygon fill="#191970" stroke="#191970" points="206.2102,-130.6407 215.8203,-126.1801 205.5261,-123.6742 206.2102,-130.6407"/>
</g>
<!-- Node9 -->
<g id="node10" class="node">
<title>Node9</title>
<g id="a_node10"><a xlink:href="Vertex_8hpp_source.html" target="_top" xlink:title="Vertex.hpp">
<polygon fill="#ffffff" stroke="#000000" points="1757,-224.5 1757,-243.5 1834,-243.5 1834,-224.5 1757,-224.5"/>
<text text-anchor="middle" x="1795.5" y="-231.5" font-family="'Consolas',monospace" font-size="10.00" fill="#000000">Vertex.hpp</text>
</a>
</g>
</g>
<!-- Node0&#45;&gt;Node9 -->
<g id="edge13" class="edge">
<title>Node0&#45;&gt;Node9</title>
<path fill="none" stroke="#191970" d="M967.124,-289.5386C1090.7723,-287.8206 1448.1012,-279.8757 1742.5,-244 1743.9523,-243.823 1745.4248,-243.6304 1746.9096,-243.4247"/>
<polygon fill="#191970" stroke="#191970" points="1747.4512,-246.8826 1756.8037,-241.9044 1746.3881,-239.9638 1747.4512,-246.8826"/>
</g>
<!-- Node10 -->
<g id="node11" class="node">
<title>Node10</title>
<g id="a_node11"><a xlink:href="color_8hpp.html" target="_top" xlink:title="color.hpp">
<polygon fill="#ffffff" stroke="#000000" points="1650,-112.5 1650,-131.5 1721,-131.5 1721,-112.5 1650,-112.5"/>
<text text-anchor="middle" x="1685.5" y="-119.5" font-family="'Consolas',monospace" font-size="10.00" fill="#000000">color.hpp</text>
</a>
</g>
</g>
<!-- Node0&#45;&gt;Node10 -->
<g id="edge14" class="edge">
<title>Node0&#45;&gt;Node10</title>
<path fill="none" stroke="#191970" d="M967.1463,-288.608C1113.3806,-283.8428 1572.1715,-267.1881 1634.5,-244 1673.1564,-229.6187 1690.1343,-224.9302 1708.5,-188 1716.2265,-172.4633 1708.1444,-153.6903 1699.5041,-140.1443"/>
<polygon fill="#191970" stroke="#191970" points="1702.2108,-137.9068 1693.6205,-131.7055 1696.4686,-141.9103 1702.2108,-137.9068"/>
</g>
<!-- Node11 -->
<g id="node12" class="node">
<title>Node11</title>
<g id="a_node12"><a xlink:href="Controller_8hpp_source.html" target="_top" xlink:title="Controller.hpp">
<polygon fill="#ffffff" stroke="#000000" points="704,-224.5 704,-243.5 805,-243.5 805,-224.5 704,-224.5"/>
<text text-anchor="middle" x="754.5" y="-231.5" font-family="'Consolas',monospace" font-size="10.00" fill="#000000">Controller.hpp</text>
</a>
</g>
</g>
<!-- Node0&#45;&gt;Node11 -->
<g id="edge16" class="edge">
<title>Node0&#45;&gt;Node11</title>
<path fill="none" stroke="#191970" d="M893.6198,-280.3733C865.6839,-271.0613 823.1858,-256.8953 792.5131,-246.671"/>
<polygon fill="#191970" stroke="#191970" points="793.597,-243.3431 783.0034,-243.5011 791.3834,-249.9839 793.597,-243.3431"/>
</g>
<!-- Node12 -->
<g id="node13" class="node">
<title>Node12</title>
<g id="a_node13"><a xlink:href="input_8hpp.html" target="_top" xlink:title="input.hpp">
<polygon fill="#ffffff" stroke="#000000" points="920,-168.5 920,-187.5 991,-187.5 991,-168.5 920,-168.5"/>
<text text-anchor="middle" x="955.5" y="-175.5" font-family="'Consolas',monospace" font-size="10.00" fill="#000000">input.hpp</text>
</a>
</g>
</g>
<!-- Node0&#45;&gt;Node12 -->
<g id="edge44" class="edge">
<title>Node0&#45;&gt;Node12</title>
<path fill="none" stroke="#191970" d="M925.4378,-280.4979C928.3001,-271.205 932.7554,-256.6468 936.5,-244 941.1018,-228.4582 946.1738,-210.8122 949.9191,-197.6789"/>
<polygon fill="#191970" stroke="#191970" points="953.3444,-198.4296 952.7137,-187.8535 946.6114,-196.5145 953.3444,-198.4296"/>
</g>
<!-- Node18 -->
<g id="node19" class="node">
<title>Node18</title>
<g id="a_node19"><a xlink:href="debug_8hpp_source.html" target="_top" xlink:title="debug.hpp">
<polygon fill="#ffffff" stroke="#000000" points="237,-224.5 237,-243.5 308,-243.5 308,-224.5 237,-224.5"/>
<text text-anchor="middle" x="272.5" y="-231.5" font-family="'Consolas',monospace" font-size="10.00" fill="#000000">debug.hpp</text>
</a>
</g>
</g>
<!-- Node0&#45;&gt;Node18 -->
<g id="edge27" class="edge">
<title>Node0&#45;&gt;Node18</title>
<path fill="none" stroke="#191970" d="M877.8471,-288.1746C778.4505,-283.757 531.5348,-270.8202 326.5,-244 323.8012,-243.647 321.0329,-243.2483 318.244,-242.8186"/>
<polygon fill="#191970" stroke="#191970" points="318.5792,-239.3267 308.143,-241.1528 317.4401,-246.2334 318.5792,-239.3267"/>
</g>
<!-- Node19 -->
<g id="node20" class="node">
<title>Node19</title>
<g id="a_node20"><a xlink:href="message_8hpp_source.html" target="_top" xlink:title="message.hpp">
<polygon fill="#ffffff" stroke="#000000" points="231,-168.5 231,-187.5 314,-187.5 314,-168.5 231,-168.5"/>
<text text-anchor="middle" x="272.5" y="-175.5" font-family="'Consolas',monospace" font-size="10.00" fill="#000000">message.hpp</text>
</a>
</g>
</g>
<!-- Node0&#45;&gt;Node19 -->
<g id="edge59" class="edge">
<title>Node0&#45;&gt;Node19</title>
<path fill="none" stroke="#191970" d="M877.6205,-288.6619C765.8869,-284.9294 477.697,-272.7313 386.5,-244 351.2253,-232.8868 315.0245,-209.4762 293.1445,-193.74"/>
<polygon fill="#191970" stroke="#191970" points="295.0875,-190.8244 284.9562,-187.7249 290.9433,-196.4659 295.0875,-190.8244"/>
</g>
<!-- Node21 -->
<g id="node22" class="node">
<title>Node21</title>
<g id="a_node22"><a xlink:href="drawable_8hpp_source.html" target="_top" xlink:title="drawable.hpp">
<polygon fill="#ffffff" stroke="#000000" points="1031,-112.5 1031,-131.5 1120,-131.5 1120,-112.5 1031,-112.5"/>
<text text-anchor="middle" x="1075.5" y="-119.5" font-family="'Consolas',monospace" font-size="10.00" fill="#000000">drawable.hpp</text>
</a>
</g>
</g>
<!-- Node0&#45;&gt;Node21 -->
<g id="edge32" class="edge">
<title>Node0&#45;&gt;Node21</title>
<path fill="none" stroke="#191970" d="M967.0912,-281.4028C1014.8808,-269.5381 1088.3349,-243.0301 1121.5,-188 1132.1822,-170.2752 1115.0885,-150.9582 1098.7935,-137.83"/>
<polygon fill="#191970" stroke="#191970" points="1100.5873,-134.7989 1090.4964,-131.5701 1096.3713,-140.3869 1100.5873,-134.7989"/>
</g>
<!-- Node22 -->
<g id="node23" class="node">
<title>Node22</title>
<g id="a_node23"><a xlink:href="font_8hpp.html" target="_top" xlink:title="font.hpp">
<polygon fill="#ffffff" stroke="#000000" points="1220,-168.5 1220,-187.5 1285,-187.5 1285,-168.5 1220,-168.5"/>
<text text-anchor="middle" x="1252.5" y="-175.5" font-family="'Consolas',monospace" font-size="10.00" fill="#000000">font.hpp</text>
</a>
</g>
</g>
<!-- Node0&#45;&gt;Node22 -->
<g id="edge34" class="edge">
<title>Node0&#45;&gt;Node22</title>
<path fill="none" stroke="#191970" d="M967.0912,-286.6241C1035.5542,-280.785 1162.7196,-267.149 1201.5,-244 1220.0634,-232.919 1234.3205,-212.3153 1242.9804,-197.0648"/>
<polygon fill="#191970" stroke="#191970" points="1246.2155,-198.4377 1247.852,-187.97 1240.045,-195.1324 1246.2155,-198.4377"/>
</g>
<!-- Node23 -->
<g id="node24" class="node">
<title>Node23</title>
<g id="a_node24"><a xlink:href="framebuffer_8hpp_source.html" target="_top" xlink:title="framebuffer.hpp">
<polygon fill="#ffffff" stroke="#000000" points="1305,-168.5 1305,-187.5 1412,-187.5 1412,-168.5 1305,-168.5"/>
<text text-anchor="middle" x="1358.5" y="-175.5" font-family="'Consolas',monospace" font-size="10.00" fill="#000000">framebuffer.hpp</text>
</a>
</g>
</g>
<!-- Node0&#45;&gt;Node23 -->
<g id="edge40" class="edge">
<title>Node0&#45;&gt;Node23</title>
<path fill="none" stroke="#191970" d="M967.1861,-287.6893C1027.5239,-283.5791 1137.8199,-272.5485 1227.5,-244 1267.0507,-231.4095 1309.3395,-208.0987 1334.8487,-192.8213"/>
<polygon fill="#191970" stroke="#191970" points="1336.7251,-195.7767 1343.4515,-187.5909 1333.0886,-189.7954 1336.7251,-195.7767"/>
</g>
<!-- Node24 -->
<g id="node25" class="node">
<title>Node24</title>
<g id="a_node25"><a xlink:href="job_8hpp.html" target="_top" xlink:title="job.hpp">
<polygon fill="#ffffff" stroke="#000000" points="353,-112.5 353,-131.5 412,-131.5 412,-112.5 353,-112.5"/>
<text text-anchor="middle" x="382.5" y="-119.5" font-family="'Consolas',monospace" font-size="10.00" fill="#000000">job.hpp</text>
</a>
</g>
</g>
<!-- Node0&#45;&gt;Node24 -->
<g id="edge45" class="edge">
<title>Node0&#45;&gt;Node24</title>
<path fill="none" stroke="#191970" d="M877.866,-288.5133C784.5474,-284.8502 572.0315,-273.4504 506.5,-244 455.765,-221.1993 413.849,-168.0581 394.3233,-140.0353"/>
<polygon fill="#191970" stroke="#191970" points="397.0922,-137.8825 388.5795,-131.575 391.3008,-141.8144 397.0922,-137.8825"/>
</g>
<!-- Node25 -->
<g id="node26" class="node">
<title>Node25</title>
<g id="a_node26"><a xlink:href="main_8hpp_source.html" target="_top" xlink:title="main.hpp">
<polygon fill="#ffffff" stroke="#000000" points="537,-224.5 537,-243.5 602,-243.5 602,-224.5 537,-224.5"/>
<text text-anchor="middle" x="569.5" y="-231.5" font-family="'Consolas',monospace" font-size="10.00" fill="#000000">main.hpp</text>
</a>
</g>
</g>
<!-- Node0&#45;&gt;Node25 -->
<g id="edge48" class="edge">
<title>Node0&#45;&gt;Node25</title>
<path fill="none" stroke="#191970" d="M877.8859,-283.8088C818.8722,-275.4811 711.6748,-259.8751 620.5,-244 617.7083,-243.5139 614.834,-242.9966 611.9394,-242.463"/>
<polygon fill="#191970" stroke="#191970" points="612.5856,-239.0233 602.11,-240.608 611.2874,-245.9018 612.5856,-239.0233"/>
</g>
<!-- Node26 -->
<g id="node27" class="node">
<title>Node26</title>
<g id="a_node27"><a xlink:href="other_8hpp.html" target="_top" xlink:title="other.hpp">
<polygon fill="#ffffff" stroke="#000000" points="626,-168.5 626,-187.5 697,-187.5 697,-168.5 626,-168.5"/>
<text text-anchor="middle" x="661.5" y="-175.5" font-family="'Consolas',monospace" font-size="10.00" fill="#000000">other.hpp</text>
</a>
</g>
</g>
<!-- Node0&#45;&gt;Node26 -->
<g id="edge60" class="edge">
<title>Node0&#45;&gt;Node26</title>
<path fill="none" stroke="#191970" d="M877.8873,-285.6573C819.9043,-279.2381 722.7219,-265.5934 694.5,-244 679.5995,-232.5991 670.9474,-212.6424 666.2712,-197.6503"/>
<polygon fill="#191970" stroke="#191970" points="669.5851,-196.503 663.5363,-187.8046 662.8404,-198.3765 669.5851,-196.503"/>
</g>
<!-- Node27 -->
<g id="node28" class="node">
<title>Node27</title>
<g id="a_node28"><a xlink:href="window_8hpp.html" target="_top" xlink:title="Functions related to the main window. ">
<polygon fill="#ffffff" stroke="#000000" points="454,-168.5 454,-187.5 531,-187.5 531,-168.5 454,-168.5"/>
<text text-anchor="middle" x="492.5" y="-175.5" font-family="'Consolas',monospace" font-size="10.00" fill="#000000">window.hpp</text>
</a>
</g>
</g>
<!-- Node0&#45;&gt;Node27 -->
<g id="edge91" class="edge">
<title>Node0&#45;&gt;Node27</title>
<path fill="none" stroke="#191970" d="M877.7917,-287.1312C780.4948,-280.5555 555.9633,-263.4547 527.5,-244 511.646,-233.1638 502.4231,-212.7845 497.4641,-197.5258"/>
<polygon fill="#191970" stroke="#191970" points="500.7137,-196.1636 494.573,-187.5298 493.9893,-198.1086 500.7137,-196.1636"/>
</g>
<!-- Node28 -->
<g id="node29" class="node">
<title>Node28</title>
<g id="a_node29"><a xlink:href="matrix_8hpp_source.html" target="_top" xlink:title="matrix.hpp">
<polygon fill="#ffffff" stroke="#000000" points="1547,-56.5 1547,-75.5 1624,-75.5 1624,-56.5 1547,-56.5"/>
<text text-anchor="middle" x="1585.5" y="-63.5" font-family="'Consolas',monospace" font-size="10.00" fill="#000000">matrix.hpp</text>
</a>
</g>
</g>
<!-- Node0&#45;&gt;Node28 -->
<g id="edge57" class="edge">
<title>Node0&#45;&gt;Node28</title>
<path fill="none" stroke="#191970" d="M967.2905,-287.6716C1090.2368,-280.4637 1429.5211,-254.8392 1515.5,-188 1549.8974,-161.2598 1570.3499,-112.5331 1579.5872,-85.4553"/>
<polygon fill="#191970" stroke="#191970" points="1583.0242,-86.202 1582.7737,-75.6101 1576.3644,-84.0464 1583.0242,-86.202"/>
</g>
<!-- Node29 -->
<g id="node30" class="node">
<title>Node29</title>
<g id="a_node30"><a xlink:href="screen_8hpp.html" target="_top" xlink:title="screen.hpp">
<polygon fill="#ffffff" stroke="#000000" points="1430,-168.5 1430,-187.5 1507,-187.5 1507,-168.5 1430,-168.5"/>
<text text-anchor="middle" x="1468.5" y="-175.5" font-family="'Consolas',monospace" font-size="10.00" fill="#000000">screen.hpp</text>
</a>
</g>
</g>
<!-- Node0&#45;&gt;Node29 -->
<g id="edge61" class="edge">
<title>Node0&#45;&gt;Node29</title>
<path fill="none" stroke="#191970" d="M967.2206,-286.6478C1033.2963,-281.105 1160.6147,-268.1638 1266.5,-244 1326.8495,-230.2278 1394.8612,-206.1582 1434.5688,-191.2047"/>
<polygon fill="#191970" stroke="#191970" points="1435.926,-194.4333 1444.0322,-187.6112 1433.441,-187.8892 1435.926,-194.4333"/>
</g>
<!-- Node30 -->
<g id="node31" class="node">
<title>Node30</title>
<g id="a_node31"><a xlink:href="shapes_8hpp.html" target="_top" xlink:title="shapes.hpp">
<polygon fill="#ffffff" stroke="#000000" points="1623,-168.5 1623,-187.5 1700,-187.5 1700,-168.5 1623,-168.5"/>
<text text-anchor="middle" x="1661.5" y="-175.5" font-family="'Consolas',monospace" font-size="10.00" fill="#000000">shapes.hpp</text>
</a>
</g>
</g>
<!-- Node0&#45;&gt;Node30 -->
<g id="edge64" class="edge">
<title>Node0&#45;&gt;Node30</title>
<path fill="none" stroke="#191970" d="M967.2629,-289.0757C1110.5485,-285.8314 1551.8736,-273.5223 1608.5,-244 1628.3559,-233.6481 1643.3516,-212.2369 1652.2383,-196.5992"/>
<polygon fill="#191970" stroke="#191970" points="1655.3367,-198.2271 1656.9709,-187.7591 1649.1654,-194.9233 1655.3367,-198.2271"/>
</g>
<!-- Node31 -->
<g id="node32" class="node">
<title>Node31</title>
<g id="a_node32"><a xlink:href="sound_8hpp_source.html" target="_top" xlink:title="sound.hpp">
<polygon fill="#ffffff" stroke="#000000" points="65,-168.5 65,-187.5 136,-187.5 136,-168.5 65,-168.5"/>
<text text-anchor="middle" x="100.5" y="-175.5" font-family="'Consolas',monospace" font-size="10.00" fill="#000000">sound.hpp</text>
</a>
</g>
</g>
<!-- Node0&#45;&gt;Node31 -->
<g id="edge68" class="edge">
<title>Node0&#45;&gt;Node31</title>
<path fill="none" stroke="#191970" d="M877.9636,-289.4352C744.6938,-287.3707 350.6521,-278.4391 227.5,-244 188.2443,-233.0223 147.15,-209.0128 122.6924,-193.1805"/>
<polygon fill="#191970" stroke="#191970" points="124.446,-190.1444 114.1719,-187.5573 120.5902,-195.9867 124.446,-190.1444"/>
</g>
<!-- Node32 -->
<g id="node33" class="node">
<title>Node32</title>
<g id="a_node33"><a xlink:href="sprite_8hpp_source.html" target="_top" xlink:title="sprite.hpp">
<polygon fill="#ffffff" stroke="#000000" points="825,-168.5 825,-187.5 902,-187.5 902,-168.5 825,-168.5"/>
<text text-anchor="middle" x="863.5" y="-175.5" font-family="'Consolas',monospace" font-size="10.00" fill="#000000">sprite.hpp</text>
</a>
</g>
</g>
<!-- Node0&#45;&gt;Node32 -->
<g id="edge71" class="edge">
<title>Node0&#45;&gt;Node32</title>
<path fill="none" stroke="#191970" d="M920.8142,-280.1139C918.2526,-266.7612 912.5791,-242.5054 902.5,-224 896.7909,-213.518 888.4327,-203.2496 880.9168,-195.0832"/>
<polygon fill="#191970" stroke="#191970" points="883.2632,-192.4735 873.811,-187.6873 878.2154,-197.3233 883.2632,-192.4735"/>
</g>
<!-- Node33 -->
<g id="node34" class="node">
<title>Node33</title>
<g id="a_node34"><a xlink:href="text_8hpp.html" target="_top" xlink:title="text.hpp">
<polygon fill="#ffffff" stroke="#000000" points="1048,-168.5 1048,-187.5 1113,-187.5 1113,-168.5 1048,-168.5"/>
<text text-anchor="middle" x="1080.5" y="-175.5" font-family="'Consolas',monospace" font-size="10.00" fill="#000000">text.hpp</text>
</a>
</g>
</g>
<!-- Node0&#45;&gt;Node33 -->
<g id="edge79" class="edge">
<title>Node0&#45;&gt;Node33</title>
<path fill="none" stroke="#191970" d="M935.971,-280.4509C963.2563,-261.1094 1025.2754,-217.1465 1058.5064,-193.5904"/>
<polygon fill="#191970" stroke="#191970" points="1060.929,-196.1633 1067.0631,-187.5249 1056.8808,-190.4526 1060.929,-196.1633"/>
</g>
<!-- Node34 -->
<g id="node35" class="node">
<title>Node34</title>
<g id="a_node35"><a xlink:href="time_8hpp_source.html" target="_top" xlink:title="time.hpp">
<polygon fill="#ffffff" stroke="#000000" points="1642,-56.5 1642,-75.5 1707,-75.5 1707,-56.5 1642,-56.5"/>
<text text-anchor="middle" x="1674.5" y="-63.5" font-family="'Consolas',monospace" font-size="10.00" fill="#000000">time.hpp</text>
</a>
</g>
</g>
<!-- Node0&#45;&gt;Node34 -->
<g id="edge85" class="edge">
<title>Node0&#45;&gt;Node34</title>
<path fill="none" stroke="#191970" d="M967.3687,-287.5813C1071.5452,-281.6735 1327.261,-265.4116 1410.5,-244 1471.032,-228.4293 1486.9537,-221.8445 1539.5,-188 1587.6685,-156.9752 1635.3467,-108.674 1659.0513,-83.1492"/>
<polygon fill="#191970" stroke="#191970" points="1661.6928,-85.4473 1665.8755,-75.713 1656.5354,-80.7143 1661.6928,-85.4473"/>
</g>
<!-- Node35 -->
<g id="node36" class="node">
<title>Node35</title>
<g id="a_node36"><a xlink:href="Video_8hpp_source.html" target="_top" xlink:title="Video.hpp">
<polygon fill="#ffffff" stroke="#000000" points="823,-224.5 823,-243.5 894,-243.5 894,-224.5 823,-224.5"/>
<text text-anchor="middle" x="858.5" y="-231.5" font-family="'Consolas',monospace" font-size="10.00" fill="#000000">Video.hpp</text>
</a>
</g>
</g>
<!-- Node0&#45;&gt;Node35 -->
<g id="edge87" class="edge">
<title>Node0&#45;&gt;Node35</title>
<path fill="none" stroke="#191970" d="M911.3521,-280.2455C901.9913,-272.0549 888.4142,-260.1749 877.3651,-250.5069"/>
<polygon fill="#191970" stroke="#191970" points="879.3508,-247.5937 869.5202,-243.6427 874.7412,-252.8618 879.3508,-247.5937"/>
</g>
<!-- Node36 -->
<g id="node37" class="node">
<title>Node36</title>
<g id="a_node37"><a xlink:href="work_8hpp.html" target="_top" xlink:title="work.hpp">
<polygon fill="#ffffff" stroke="#000000" points="332,-168.5 332,-187.5 397,-187.5 397,-168.5 332,-168.5"/>
<text text-anchor="middle" x="364.5" y="-175.5" font-family="'Consolas',monospace" font-size="10.00" fill="#000000">work.hpp</text>
</a>
</g>
</g>
<!-- Node0&#45;&gt;Node36 -->
<g id="edge92" class="edge">
<title>Node0&#45;&gt;Node36</title>
<path fill="none" stroke="#191970" d="M877.8976,-288.1106C760.9098,-282.8573 451.4827,-266.9393 411.5,-244 393.0837,-233.434 380.0454,-212.384 372.4454,-196.8857"/>
<polygon fill="#191970" stroke="#191970" points="375.5736,-195.3101 368.2345,-187.6689 369.2066,-198.219 375.5736,-195.3101"/>
</g>
<!-- Node2 -->
<g id="node3" class="node">
<title>Node2</title>
<g id="a_node3"><a xlink:href="dll_8hpp_source.html" target="_top" xlink:title="dll.hpp">
<polygon fill="#ffffff" stroke="#000000" points="1046,-.5 1046,-19.5 1105,-19.5 1105,-.5 1046,-.5"/>
<text text-anchor="middle" x="1075.5" y="-7.5" font-family="'Consolas',monospace" font-size="10.00" fill="#000000">dll.hpp</text>
</a>
</g>
</g>
<!-- Node1&#45;&gt;Node2 -->
<g id="edge2" class="edge">
<title>Node1&#45;&gt;Node2</title>
<path fill="none" stroke="#191970" d="M580.603,-168.355C583.875,-154.854 591.129,-129.9621 603.5,-112 624.7494,-81.1468 632.2828,-71.2526 666.5,-56 732.0251,-26.7917 946.3917,-15.1027 1035.7914,-11.4198"/>
<polygon fill="#191970" stroke="#191970" points="1035.9536,-14.9162 1045.8058,-11.0194 1035.6739,-7.9218 1035.9536,-14.9162"/>
</g>
<!-- Node3 -->
<g id="node4" class="node">
<title>Node3</title>
<polygon fill="#ffffff" stroke="#bfbfbf" points="862,-56.5 862,-75.5 915,-75.5 915,-56.5 862,-56.5"/>
<text text-anchor="middle" x="888.5" y="-63.5" font-family="'Consolas',monospace" font-size="10.00" fill="#000000">memory</text>
</g>
<!-- Node1&#45;&gt;Node3 -->
<g id="edge3" class="edge">
<title>Node1&#45;&gt;Node3</title>
<path fill="none" stroke="#191970" d="M580.4757,-168.1148C583.9757,-153.3635 592.7411,-125.8464 611.5,-112 649.0091,-84.3137 785.0952,-72.3205 851.5186,-68.0254"/>
<polygon fill="#191970" stroke="#191970" points="851.792,-71.5153 861.5553,-67.401 851.3572,-64.5288 851.792,-71.5153"/>
</g>
<!-- Node4 -->
<g id="node5" class="node">
<title>Node4</title>
<polygon fill="#ffffff" stroke="#bfbfbf" points="621,-112.5 621,-131.5 674,-131.5 674,-112.5 621,-112.5"/>
<text text-anchor="middle" x="647.5" y="-119.5" font-family="'Consolas',monospace" font-size="10.00" fill="#000000">string</text>
</g>
<!-- Node1&#45;&gt;Node4 -->
<g id="edge4" class="edge">
<title>Node1&#45;&gt;Node4</title>
<path fill="none" stroke="#191970" d="M590.5189,-168.2455C600.7098,-159.9746 615.5362,-147.9416 627.5107,-138.2232"/>
<polygon fill="#191970" stroke="#191970" points="630.0598,-140.662 635.6188,-131.6427 625.6486,-135.2268 630.0598,-140.662"/>
</g>
<!-- Node5&#45;&gt;Node2 -->
<g id="edge6" class="edge">
<title>Node5&#45;&gt;Node2</title>
<path fill="none" stroke="#191970" d="M1198.5552,-112.4926C1183.538,-103.7644 1161.2959,-90.0844 1143.5,-76 1124.3045,-60.8079 1104.4504,-40.979 1091.1882,-27.0359"/>
<polygon fill="#191970" stroke="#191970" points="1093.5918,-24.4824 1084.1962,-19.5861 1088.4876,-29.2729 1093.5918,-24.4824"/>
</g>
<!-- Node5&#45;&gt;Node3 -->
<g id="edge7" class="edge">
<title>Node5&#45;&gt;Node3</title>
<path fill="none" stroke="#191970" d="M1176.7293,-114.5915C1171.9397,-113.7038 1167.1092,-112.8216 1162.5,-112 1077.692,-96.8819 977.8604,-80.4698 925.2423,-71.927"/>
<polygon fill="#191970" stroke="#191970" points="925.7979,-68.4714 915.3667,-70.3261 924.6777,-75.3812 925.7979,-68.4714"/>
</g>
<!-- Node6&#45;&gt;Node3 -->
<g id="edge12" class="edge">
<title>Node6&#45;&gt;Node3</title>
<path fill="none" stroke="#191970" d="M335.1766,-113.011C337.9884,-112.6545 340.7737,-112.3152 343.5,-112 534.3004,-89.9398 763.8406,-74.0219 851.7779,-68.3126"/>
<polygon fill="#191970" stroke="#191970" points="852.0339,-71.8035 861.7879,-67.6672 851.5834,-64.818 852.0339,-71.8035"/>
</g>
<!-- Node7 -->
<g id="node8" class="node">
<title>Node7</title>
<g id="a_node8"><a xlink:href="Finally_8hpp_source.html" target="_top" xlink:title="Finally.hpp">
<polygon fill="#ffffff" stroke="#000000" points="0,-56.5 0,-75.5 83,-75.5 83,-56.5 0,-56.5"/>
<text text-anchor="middle" x="41.5" y="-63.5" font-family="'Consolas',monospace" font-size="10.00" fill="#000000">Finally.hpp</text>
</a>
</g>
</g>
<!-- Node6&#45;&gt;Node7 -->
<g id="edge9" class="edge">
<title>Node6&#45;&gt;Node7</title>
<path fill="none" stroke="#191970" d="M235.5398,-112.4369C195.6608,-102.8932 134.2861,-88.2052 91.2672,-77.9101"/>
<polygon fill="#191970" stroke="#191970" points="91.8354,-74.4473 81.2953,-75.5237 90.2061,-81.2551 91.8354,-74.4473"/>
</g>
<!-- Node7&#45;&gt;Node2 -->
<g id="edge10" class="edge">
<title>Node7&#45;&gt;Node2</title>
<path fill="none" stroke="#191970" d="M83.0023,-57.9708C87.8761,-57.2114 92.7891,-56.5291 97.5,-56 283.8827,-35.0649 875.6768,-16.0408 1035.4296,-11.1898"/>
<polygon fill="#191970" stroke="#191970" points="1035.8574,-14.6785 1045.7471,-10.878 1035.6459,-7.6817 1035.8574,-14.6785"/>
</g>
<!-- Node8 -->
<g id="node9" class="node">
<title>Node8</title>
<polygon fill="#ffffff" stroke="#bfbfbf" points="203,-.5 203,-19.5 280,-19.5 280,-.5 203,-.5"/>
<text text-anchor="middle" x="241.5" y="-7.5" font-family="'Consolas',monospace" font-size="10.00" fill="#000000">functional</text>
</g>
<!-- Node7&#45;&gt;Node8 -->
<g id="edge11" class="edge">
<title>Node7&#45;&gt;Node8</title>
<path fill="none" stroke="#191970" d="M75.8812,-56.3733C109.5701,-46.9404 161.0482,-32.5265 197.6618,-22.2747"/>
<polygon fill="#191970" stroke="#191970" points="198.8815,-25.5679 207.5674,-19.5011 196.994,-18.8271 198.8815,-25.5679"/>
</g>
<!-- Node10&#45;&gt;Node2 -->
<g id="edge15" class="edge">
<title>Node10&#45;&gt;Node2</title>
<path fill="none" stroke="#191970" d="M1695.9433,-112.3881C1709.833,-98.4763 1730.9351,-72.5843 1715.5,-56 1694.9741,-33.9459 1251.985,-16.3124 1115.3003,-11.3807"/>
<polygon fill="#191970" stroke="#191970" points="1115.3728,-7.8811 1105.2541,-11.0212 1115.1225,-14.8766 1115.3728,-7.8811"/>
</g>
<!-- Node11&#45;&gt;Node12 -->
<g id="edge17" class="edge">
<title>Node11&#45;&gt;Node12</title>
<path fill="none" stroke="#191970" d="M789.0531,-224.3733C822.9104,-214.9404 874.646,-200.5265 911.4426,-190.2747"/>
<polygon fill="#191970" stroke="#191970" points="912.704,-193.5566 921.3978,-187.5011 910.8253,-186.8135 912.704,-193.5566"/>
</g>
<!-- Node17 -->
<g id="node18" class="node">
<title>Node17</title>
<polygon fill="#ffffff" stroke="#bfbfbf" points="715,-168.5 715,-187.5 768,-187.5 768,-168.5 715,-168.5"/>
<text text-anchor="middle" x="741.5" y="-175.5" font-family="'Consolas',monospace" font-size="10.00" fill="#000000">chrono</text>
</g>
<!-- Node11&#45;&gt;Node17 -->
<g id="edge26" class="edge">
<title>Node11&#45;&gt;Node17</title>
<path fill="none" stroke="#191970" d="M752.2356,-224.2455C750.5206,-216.8579 748.1088,-206.4689 746.0056,-197.4087"/>
<polygon fill="#191970" stroke="#191970" points="749.4092,-196.5922 743.7385,-187.6427 742.5905,-198.1751 749.4092,-196.5922"/>
</g>
<!-- Node12&#45;&gt;Node2 -->
<g id="edge18" class="edge">
<title>Node12&#45;&gt;Node2</title>
<path fill="none" stroke="#191970" d="M962.2955,-168.4862C981.5932,-141.4695 1036.9711,-63.9405 1062.4213,-28.3102"/>
<polygon fill="#191970" stroke="#191970" points="1065.5157,-29.9996 1068.4801,-19.8279 1059.8196,-25.9309 1065.5157,-29.9996"/>
</g>
<!-- Node12&#45;&gt;Node3 -->
<g id="edge25" class="edge">
<title>Node12&#45;&gt;Node3</title>
<path fill="none" stroke="#191970" d="M944.2779,-168.4058C934.7187,-159.7251 921.1887,-146.164 912.5,-132 903.6463,-117.567 897.3357,-99.3704 893.4145,-85.741"/>
<polygon fill="#191970" stroke="#191970" points="896.7578,-84.6956 890.7792,-75.9488 889.9983,-86.5148 896.7578,-84.6956"/>
</g>
<!-- Node12&#45;&gt;Node8 -->
<g id="edge23" class="edge">
<title>Node12&#45;&gt;Node8</title>
<path fill="none" stroke="#191970" d="M941.173,-168.4964C918.6169,-153.9925 873.006,-126.4946 830.5,-112 637.0115,-46.0203 392.5515,-21.1868 290.1245,-13.2435"/>
<polygon fill="#191970" stroke="#191970" points="290.3173,-9.7482 280.0818,-12.4839 289.7893,-16.7282 290.3173,-9.7482"/>
</g>
<!-- Node13 -->
<g id="node14" class="node">
<title>Node13</title>
<g id="a_node14"><a xlink:href="Vec2_8hpp.html" target="_top" xlink:title="Vec2.hpp">
<polygon fill="#ffffff" stroke="#000000" points="1387,-112.5 1387,-131.5 1452,-131.5 1452,-112.5 1387,-112.5"/>
<text text-anchor="middle" x="1419.5" y="-119.5" font-family="'Consolas',monospace" font-size="10.00" fill="#000000">Vec2.hpp</text>
</a>
</g>
</g>
<!-- Node12&#45;&gt;Node13 -->
<g id="edge19" class="edge">
<title>Node12&#45;&gt;Node13</title>
<path fill="none" stroke="#191970" d="M991.1389,-173.6988C1075.3248,-163.5384 1286.2207,-138.0854 1376.9288,-127.1379"/>
<polygon fill="#191970" stroke="#191970" points="1377.3581,-130.6116 1386.8667,-125.9385 1376.5193,-123.662 1377.3581,-130.6116"/>
</g>
<!-- Node16 -->
<g id="node17" class="node">
<title>Node16</title>
<polygon fill="#ffffff" stroke="#bfbfbf" points="769,-112.5 769,-131.5 822,-131.5 822,-112.5 769,-112.5"/>
<text text-anchor="middle" x="795.5" y="-119.5" font-family="'Consolas',monospace" font-size="10.00" fill="#000000">vector</text>
</g>
<!-- Node12&#45;&gt;Node16 -->
<g id="edge24" class="edge">
<title>Node12&#45;&gt;Node16</title>
<path fill="none" stroke="#191970" d="M927.995,-168.3733C901.3441,-159.0454 860.777,-144.8469 831.5536,-134.6188"/>
<polygon fill="#191970" stroke="#191970" points="832.7092,-131.3151 822.1144,-131.315 830.3967,-137.9221 832.7092,-131.3151"/>
</g>
<!-- Node13&#45;&gt;Node2 -->
<g id="edge20" class="edge">
<title>Node13&#45;&gt;Node2</title>
<path fill="none" stroke="#191970" d="M1386.9838,-114.7438C1352.9582,-106.7582 1298.2297,-92.7999 1252.5,-76 1232.7157,-68.7317 1229.0499,-63.877 1209.5,-56 1178.1438,-43.3661 1141.8324,-31.0389 1114.9246,-22.3307"/>
<polygon fill="#191970" stroke="#191970" points="1115.6936,-18.9017 1105.1023,-19.1773 1113.5538,-25.5667 1115.6936,-18.9017"/>
</g>
<!-- Node14 -->
<g id="node15" class="node">
<title>Node14</title>
<polygon fill="#ffffff" stroke="#bfbfbf" points="1262,-56.5 1262,-75.5 1381,-75.5 1381,-56.5 1262,-56.5"/>
<text text-anchor="middle" x="1321.5" y="-63.5" font-family="'Consolas',monospace" font-size="10.00" fill="#000000">boost/version.hpp</text>
</g>
<!-- Node13&#45;&gt;Node14 -->
<g id="edge21" class="edge">
<title>Node13&#45;&gt;Node14</title>
<path fill="none" stroke="#191970" d="M1402.4297,-112.2455C1387.253,-103.5731 1364.8379,-90.7645 1347.4437,-80.825"/>
<polygon fill="#191970" stroke="#191970" points="1348.7936,-77.5653 1338.3747,-75.6427 1345.3206,-83.643 1348.7936,-77.5653"/>
</g>
<!-- Node15 -->
<g id="node16" class="node">
<title>Node15</title>
<polygon fill="#ffffff" stroke="#bfbfbf" points="1399,-56.5 1399,-75.5 1452,-75.5 1452,-56.5 1399,-56.5"/>
<text text-anchor="middle" x="1425.5" y="-63.5" font-family="'Consolas',monospace" font-size="10.00" fill="#000000">iosfwd</text>
</g>
<!-- Node13&#45;&gt;Node15 -->
<g id="edge22" class="edge">
<title>Node13&#45;&gt;Node15</title>
<path fill="none" stroke="#191970" d="M1420.5451,-112.2455C1421.328,-104.9382 1422.4256,-94.6944 1423.3888,-85.7046"/>
<polygon fill="#191970" stroke="#191970" points="1426.8815,-85.9587 1424.4669,-75.6427 1419.9214,-85.2129 1426.8815,-85.9587"/>
</g>
<!-- Node18&#45;&gt;Node19 -->
<g id="edge28" class="edge">
<title>Node18&#45;&gt;Node19</title>
<path fill="none" stroke="#191970" d="M272.5,-224.2455C272.5,-216.9382 272.5,-206.6944 272.5,-197.7046"/>
<polygon fill="#191970" stroke="#191970" points="276.0001,-197.6426 272.5,-187.6427 269.0001,-197.6427 276.0001,-197.6426"/>
</g>
<!-- Node20 -->
<g id="node21" class="node">
<title>Node20</title>
<polygon fill="#ffffff" stroke="#bfbfbf" points="154,-168.5 154,-187.5 213,-187.5 213,-168.5 154,-168.5"/>
<text text-anchor="middle" x="183.5" y="-175.5" font-family="'Consolas',monospace" font-size="10.00" fill="#000000">sstream</text>
</g>
<!-- Node18&#45;&gt;Node20 -->
<g id="edge31" class="edge">
<title>Node18&#45;&gt;Node20</title>
<path fill="none" stroke="#191970" d="M256.9974,-224.2455C243.342,-215.6534 223.2343,-203.0014 207.5011,-193.1018"/>
<polygon fill="#191970" stroke="#191970" points="209.1529,-190.006 198.825,-187.6427 205.4249,-195.9307 209.1529,-190.006"/>
</g>
<!-- Node19&#45;&gt;Node2 -->
<g id="edge29" class="edge">
<title>Node19&#45;&gt;Node2</title>
<path fill="none" stroke="#191970" d="M246.041,-168.3494C219.2772,-156.9805 183.7976,-136.504 198.5,-112 225.7111,-66.6482 252.5946,-70.3484 303.5,-56 374.1727,-36.0799 887.748,-16.6157 1035.7101,-11.3731"/>
<polygon fill="#191970" stroke="#191970" points="1035.8499,-14.8704 1045.7204,-11.0204 1035.6033,-7.8748 1035.8499,-14.8704"/>
</g>
<!-- Node19&#45;&gt;Node4 -->
<g id="edge30" class="edge">
<title>Node19&#45;&gt;Node4</title>
<path fill="none" stroke="#191970" d="M314.209,-169.4741C317.0116,-168.958 319.7948,-168.4616 322.5,-168 426.63,-150.2325 550.3638,-134.0771 610.7132,-126.515"/>
<polygon fill="#191970" stroke="#191970" points="611.39,-129.9578 620.8801,-125.2474 610.5239,-123.0116 611.39,-129.9578"/>
</g>
<!-- Node21&#45;&gt;Node2 -->
<g id="edge33" class="edge">
<title>Node21&#45;&gt;Node2</title>
<path fill="none" stroke="#191970" d="M1075.5,-112.4509C1075.5,-94.184 1075.5,-53.9553 1075.5,-29.6976"/>
<polygon fill="#191970" stroke="#191970" points="1079.0001,-29.5249 1075.5,-19.5249 1072.0001,-29.5249 1079.0001,-29.5249"/>
</g>
<!-- Node22&#45;&gt;Node2 -->
<g id="edge36" class="edge">
<title>Node22&#45;&gt;Node2</title>
<path fill="none" stroke="#191970" d="M1261.822,-168.1227C1273.2334,-154.78 1289.7359,-130.5355 1278.5,-112 1260.5694,-82.4206 1239.3978,-93.3944 1209.5,-76 1195.3277,-67.7546 1192.9166,-63.8103 1178.5,-56 1156.0069,-43.8141 1129.6512,-32.0875 1109.231,-23.5242"/>
<polygon fill="#191970" stroke="#191970" points="1110.3045,-20.1805 1099.7263,-19.5863 1107.6251,-26.6474 1110.3045,-20.1805"/>
</g>
<!-- Node22&#45;&gt;Node3 -->
<g id="edge38" class="edge">
<title>Node22&#45;&gt;Node3</title>
<path fill="none" stroke="#191970" d="M1234.9306,-168.4701C1202.0602,-150.6658 1134.0625,-113.9629 1128.5,-112 1058.947,-87.4556 973.177,-75.0332 925.2932,-69.588"/>
<polygon fill="#191970" stroke="#191970" points="925.4243,-66.0815 915.1023,-68.4701 924.6609,-73.0398 925.4243,-66.0815"/>
</g>
<!-- Node22&#45;&gt;Node4 -->
<g id="edge39" class="edge">
<title>Node22&#45;&gt;Node4</title>
<path fill="none" stroke="#191970" d="M1219.9726,-174.9892C1116.2911,-165.3922 793.9972,-135.5601 684.409,-125.4164"/>
<polygon fill="#191970" stroke="#191970" points="684.4648,-121.9067 674.1847,-124.47 683.8195,-128.8769 684.4648,-121.9067"/>
</g>
<!-- Node22&#45;&gt;Node10 -->
<g id="edge35" class="edge">
<title>Node22&#45;&gt;Node10</title>
<path fill="none" stroke="#191970" d="M1285.2911,-169.9787C1288.7276,-169.2566 1292.1779,-168.5804 1295.5,-168 1419.0439,-146.4173 1566.4107,-132.1002 1639.5732,-125.7511"/>
<polygon fill="#191970" stroke="#191970" points="1640.1534,-129.2143 1649.8176,-124.8723 1639.555,-122.2399 1640.1534,-129.2143"/>
</g>
<!-- Node22&#45;&gt;Node13 -->
<g id="edge37" class="edge">
<title>Node22&#45;&gt;Node13</title>
<path fill="none" stroke="#191970" d="M1281.2083,-168.3733C1308.8577,-159.1016 1350.8576,-145.0178 1381.3166,-134.804"/>
<polygon fill="#191970" stroke="#191970" points="1382.7979,-137.9989 1391.1663,-131.5011 1380.5724,-131.3621 1382.7979,-137.9989"/>
</g>
<!-- Node23&#45;&gt;Node2 -->
<g id="edge41" class="edge">
<title>Node23&#45;&gt;Node2</title>
<path fill="none" stroke="#191970" d="M1406.4762,-168.4988C1426.7528,-161.8558 1448.4305,-150.6832 1460.5,-132 1478.8288,-103.6276 1482.923,-81.2616 1460.5,-56 1437.8294,-30.4594 1209.1815,-16.5059 1115.3548,-11.8182"/>
<polygon fill="#191970" stroke="#191970" points="1115.2862,-8.3107 1105.1269,-11.3173 1114.9437,-15.3023 1115.2862,-8.3107"/>
</g>
<!-- Node23&#45;&gt;Node3 -->
<g id="edge43" class="edge">
<title>Node23&#45;&gt;Node3</title>
<path fill="none" stroke="#191970" d="M1348.2481,-168.4048C1331.668,-153.5157 1297.2987,-125.1911 1262.5,-112 1201.3218,-88.8092 1007.4278,-73.7759 925.5542,-68.3101"/>
<polygon fill="#191970" stroke="#191970" points="925.4338,-64.7947 915.2259,-67.6319 924.975,-71.7797 925.4338,-64.7947"/>
</g>
<!-- Node23&#45;&gt;Node13 -->
<g id="edge42" class="edge">
<title>Node23&#45;&gt;Node13</title>
<path fill="none" stroke="#191970" d="M1369.1254,-168.2455C1378.0473,-160.0549 1390.988,-148.1749 1401.5192,-138.5069"/>
<polygon fill="#191970" stroke="#191970" points="1403.9968,-140.9837 1408.9964,-131.6427 1399.2629,-135.8271 1403.9968,-140.9837"/>
</g>
<!-- Node24&#45;&gt;Node2 -->
<g id="edge47" class="edge">
<title>Node24&#45;&gt;Node2</title>
<path fill="none" stroke="#191970" d="M390.2405,-112.2086C402.878,-97.0505 429.5557,-68.3641 459.5,-56 512.5278,-34.1045 907.2989,-16.6732 1035.453,-11.5412"/>
<polygon fill="#191970" stroke="#191970" points="1035.7623,-15.0317 1045.6155,-11.1377 1035.4845,-8.0372 1035.7623,-15.0317"/>
</g>
<!-- Node24&#45;&gt;Node3 -->
<g id="edge46" class="edge">
<title>Node24&#45;&gt;Node3</title>
<path fill="none" stroke="#191970" d="M412.0936,-118.2948C427.6803,-116.3676 447.1183,-114.0027 464.5,-112 607.5213,-95.5217 777.8812,-77.5385 851.5461,-69.8423"/>
<polygon fill="#191970" stroke="#191970" points="852.1156,-73.3019 861.6983,-68.7828 851.389,-66.3398 852.1156,-73.3019"/>
</g>
<!-- Node25&#45;&gt;Node7 -->
<g id="edge49" class="edge">
<title>Node25&#45;&gt;Node7</title>
<path fill="none" stroke="#191970" d="M536.6597,-232.1973C426.0165,-225.9772 72.7974,-204.8703 55.5,-188 28.2691,-161.4414 32.1948,-112.6432 37.0752,-85.5053"/>
<polygon fill="#191970" stroke="#191970" points="40.5193,-86.1316 39.0678,-75.6367 33.6578,-84.7461 40.5193,-86.1316"/>
</g>
<!-- Node25&#45;&gt;Node26 -->
<g id="edge50" class="edge">
<title>Node25&#45;&gt;Node26</title>
<path fill="none" stroke="#191970" d="M585.5252,-224.2455C599.6408,-215.6534 620.4263,-203.0014 636.6899,-193.1018"/>
<polygon fill="#191970" stroke="#191970" points="638.9363,-195.8319 645.6585,-187.6427 635.2966,-189.8525 638.9363,-195.8319"/>
</g>
<!-- Node25&#45;&gt;Node27 -->
<g id="edge54" class="edge">
<title>Node25&#45;&gt;Node27</title>
<path fill="none" stroke="#191970" d="M556.0876,-224.2455C544.4943,-215.814 527.5252,-203.4729 514.0322,-193.6598"/>
<polygon fill="#191970" stroke="#191970" points="515.9047,-190.6938 505.7587,-187.6427 511.7874,-196.355 515.9047,-190.6938"/>
</g>
<!-- Node26&#45;&gt;Node2 -->
<g id="edge53" class="edge">
<title>Node26&#45;&gt;Node2</title>
<path fill="none" stroke="#191970" d="M645.1961,-168.4615C625.4792,-155.7 596.668,-132.3191 611.5,-112 661.6873,-43.2458 932.5939,-19.0526 1035.6635,-12.2596"/>
<polygon fill="#191970" stroke="#191970" points="1035.9166,-15.7507 1045.6732,-11.6202 1035.4703,-8.7649 1035.9166,-15.7507"/>
</g>
<!-- Node26&#45;&gt;Node4 -->
<g id="edge51" class="edge">
<title>Node26&#45;&gt;Node4</title>
<path fill="none" stroke="#191970" d="M659.0614,-168.2455C657.2145,-160.8579 654.6172,-150.4689 652.3522,-141.4087"/>
<polygon fill="#191970" stroke="#191970" points="655.7316,-140.4952 649.9107,-131.6427 648.9406,-142.193 655.7316,-140.4952"/>
</g>
<!-- Node26&#45;&gt;Node16 -->
<g id="edge52" class="edge">
<title>Node26&#45;&gt;Node16</title>
<path fill="none" stroke="#191970" d="M684.5354,-168.3733C706.2388,-159.3032 738.9618,-145.6279 763.255,-135.4755"/>
<polygon fill="#191970" stroke="#191970" points="764.8881,-138.5865 772.7652,-131.5011 762.1889,-132.1278 764.8881,-138.5865"/>
</g>
<!-- Node27&#45;&gt;Node2 -->
<g id="edge56" class="edge">
<title>Node27&#45;&gt;Node2</title>
<path fill="none" stroke="#191970" d="M499.8025,-168.1875C518.3514,-144.1171 570.0482,-82.2053 629.5,-56 701.9311,-24.0737 940.7626,-13.8423 1035.8916,-10.985"/>
<polygon fill="#191970" stroke="#191970" points="1036.073,-14.4813 1045.9678,-10.694 1035.8709,-7.4842 1036.073,-14.4813"/>
</g>
<!-- Node27&#45;&gt;Node4 -->
<g id="edge55" class="edge">
<title>Node27&#45;&gt;Node4</title>
<path fill="none" stroke="#191970" d="M519.1454,-168.3733C544.6964,-159.1419 583.4512,-145.1402 611.6909,-134.9375"/>
<polygon fill="#191970" stroke="#191970" points="612.9865,-138.1909 621.2022,-131.5011 610.6079,-131.6074 612.9865,-138.1909"/>
</g>
<!-- Node28&#45;&gt;Node2 -->
<g id="edge58" class="edge">
<title>Node28&#45;&gt;Node2</title>
<path fill="none" stroke="#191970" d="M1546.7771,-58.2952C1541.9793,-57.4583 1537.1338,-56.6691 1532.5,-56 1378.7935,-33.8057 1194.4611,-18.7576 1115.0608,-12.8278"/>
<polygon fill="#191970" stroke="#191970" points="1115.2439,-9.3318 1105.0129,-12.0844 1114.7274,-16.3128 1115.2439,-9.3318"/>
</g>
<!-- Node29&#45;&gt;Node2 -->
<g id="edge62" class="edge">
<title>Node29&#45;&gt;Node2</title>
<path fill="none" stroke="#191970" d="M1473.817,-168.2888C1485.4973,-145.4982 1510.1609,-88.0916 1481.5,-56 1457.3367,-28.9444 1212.5888,-15.757 1115.1818,-11.5489"/>
<polygon fill="#191970" stroke="#191970" points="1115.2776,-8.0499 1105.1387,-11.1244 1114.9819,-15.0437 1115.2776,-8.0499"/>
</g>
<!-- Node29&#45;&gt;Node13 -->
<g id="edge63" class="edge">
<title>Node29&#45;&gt;Node13</title>
<path fill="none" stroke="#191970" d="M1459.9649,-168.2455C1453.0088,-160.2958 1443.0117,-148.8706 1434.6949,-139.3656"/>
<polygon fill="#191970" stroke="#191970" points="1437.1564,-136.8637 1427.9373,-131.6427 1431.8884,-141.4732 1437.1564,-136.8637"/>
</g>
<!-- Node30&#45;&gt;Node2 -->
<g id="edge65" class="edge">
<title>Node30&#45;&gt;Node2</title>
<path fill="none" stroke="#191970" d="M1685.6879,-168.4393C1701.0875,-160.975 1719.8862,-148.996 1729.5,-132 1746.1432,-102.5769 1755.5532,-80.7238 1732.5,-56 1711.3632,-33.3316 1254.6167,-16.0603 1115.4129,-11.3079"/>
<polygon fill="#191970" stroke="#191970" points="1115.3058,-7.8024 1105.1931,-10.9621 1115.069,-14.7984 1115.3058,-7.8024"/>
</g>
<!-- Node30&#45;&gt;Node10 -->
<g id="edge66" class="edge">
<title>Node30&#45;&gt;Node10</title>
<path fill="none" stroke="#191970" d="M1665.6805,-168.2455C1668.881,-160.7776 1673.396,-150.2427 1677.3084,-141.1137"/>
<polygon fill="#191970" stroke="#191970" points="1680.6452,-142.2129 1681.3674,-131.6427 1674.2112,-139.4554 1680.6452,-142.2129"/>
</g>
<!-- Node30&#45;&gt;Node13 -->
<g id="edge67" class="edge">
<title>Node30&#45;&gt;Node13</title>
<path fill="none" stroke="#191970" d="M1622.8868,-169.0647C1578.9692,-158.902 1507.4757,-142.358 1462.0034,-131.8355"/>
<polygon fill="#191970" stroke="#191970" points="1462.6875,-128.4014 1452.1559,-129.5567 1461.1093,-135.2212 1462.6875,-128.4014"/>
</g>
<!-- Node31&#45;&gt;Node2 -->
<g id="edge69" class="edge">
<title>Node31&#45;&gt;Node2</title>
<path fill="none" stroke="#191970" d="M107.0454,-168.3723C124.1366,-144.1679 172.872,-80.9358 231.5,-56 305.918,-24.3483 877.9603,-13.0989 1035.4665,-10.5841"/>
<polygon fill="#191970" stroke="#191970" points="1035.7121,-14.0808 1045.656,-10.4244 1035.6024,-7.0816 1035.7121,-14.0808"/>
</g>
<!-- Node31&#45;&gt;Node4 -->
<g id="edge70" class="edge">
<title>Node31&#45;&gt;Node4</title>
<path fill="none" stroke="#191970" d="M136.4431,-169.4238C139.1615,-168.9002 141.8694,-168.4173 144.5,-168 317.7015,-140.5219 527.2553,-127.9032 610.6683,-123.6966"/>
<polygon fill="#191970" stroke="#191970" points="611.0812,-127.1805 620.8963,-123.1914 610.7357,-120.1891 611.0812,-127.1805"/>
</g>
<!-- Node32&#45;&gt;Node2 -->
<g id="edge78" class="edge">
<title>Node32&#45;&gt;Node2</title>
<path fill="none" stroke="#191970" d="M824.655,-171.2335C785.2241,-162.4495 732.4867,-144.2822 751.5,-112 777.548,-67.7736 804.3705,-73.8332 852.5,-56 914.4002,-33.0645 990.433,-20.4777 1035.8214,-14.4977"/>
<polygon fill="#191970" stroke="#191970" points="1036.3722,-17.9559 1045.849,-13.2188 1035.4865,-11.0122 1036.3722,-17.9559"/>
</g>
<!-- Node32&#45;&gt;Node3 -->
<g id="edge75" class="edge">
<title>Node32&#45;&gt;Node3</title>
<path fill="none" stroke="#191970" d="M824.6868,-169.5686C787.3619,-159.5713 739.3522,-140.5749 759.5,-112 770.3959,-96.5467 817.5451,-82.5396 851.6953,-74.1465"/>
<polygon fill="#191970" stroke="#191970" points="852.9092,-77.4551 861.8218,-71.7266 851.2821,-70.6468 852.9092,-77.4551"/>
</g>
<!-- Node32&#45;&gt;Node4 -->
<g id="edge76" class="edge">
<title>Node32&#45;&gt;Node4</title>
<path fill="none" stroke="#191970" d="M826.3683,-168.3733C786.5332,-158.0456 723.6682,-141.7473 684.0565,-131.4776"/>
<polygon fill="#191970" stroke="#191970" points="684.8295,-128.0624 674.2712,-128.9407 683.0727,-134.8384 684.8295,-128.0624"/>
</g>
<!-- Node32&#45;&gt;Node6 -->
<g id="edge72" class="edge">
<title>Node32&#45;&gt;Node6</title>
<path fill="none" stroke="#191970" d="M824.9827,-173.3087C809.8765,-171.5379 792.3861,-169.573 776.5,-168 587.6155,-149.2972 537.0606,-153.8922 345.3077,-132.1514"/>
<polygon fill="#191970" stroke="#191970" points="345.509,-128.6517 335.1761,-130.9932 344.7139,-135.6064 345.509,-128.6517"/>
</g>
<!-- Node32&#45;&gt;Node13 -->
<g id="edge73" class="edge">
<title>Node32&#45;&gt;Node13</title>
<path fill="none" stroke="#191970" d="M902.1617,-169.3915C904.9766,-168.8824 907.7779,-168.4111 910.5,-168 1000.182,-154.4565 1271.2461,-133.2075 1376.792,-125.1979"/>
<polygon fill="#191970" stroke="#191970" points="1377.0651,-128.6873 1386.7725,-124.4425 1376.5368,-121.7073 1377.0651,-128.6873"/>
</g>
<!-- Node32&#45;&gt;Node16 -->
<g id="edge77" class="edge">
<title>Node32&#45;&gt;Node16</title>
<path fill="none" stroke="#191970" d="M851.6553,-168.2455C841.612,-159.9746 827.0005,-147.9416 815.1996,-138.2232"/>
<polygon fill="#191970" stroke="#191970" points="817.1533,-135.298 807.209,-131.6427 812.7033,-140.7015 817.1533,-135.298"/>
</g>
<!-- Node32&#45;&gt;Node21 -->
<g id="edge74" class="edge">
<title>Node32&#45;&gt;Node21</title>
<path fill="none" stroke="#191970" d="M899.9441,-168.3733C935.8069,-158.9001 990.6878,-144.4032 1029.5282,-134.1435"/>
<polygon fill="#191970" stroke="#191970" points="1030.757,-137.439 1039.5315,-131.5011 1028.9692,-130.6712 1030.757,-137.439"/>
</g>
<!-- Node33&#45;&gt;Node2 -->
<g id="edge80" class="edge">
<title>Node33&#45;&gt;Node2</title>
<path fill="none" stroke="#191970" d="M1113.1528,-174.5091C1160.4398,-168.7044 1244.3286,-155.3356 1262.5,-132 1267.9613,-124.9867 1267.3437,-119.4533 1262.5,-112 1241.0329,-78.9672 1216.305,-94.4557 1181.5,-76 1151.8033,-60.253 1119.1939,-39.3692 1098.0944,-25.3479"/>
<polygon fill="#191970" stroke="#191970" points="1099.7868,-22.269 1089.5303,-19.6129 1095.8919,-28.0853 1099.7868,-22.269"/>
</g>
<!-- Node33&#45;&gt;Node3 -->
<g id="edge82" class="edge">
<title>Node33&#45;&gt;Node3</title>
<path fill="none" stroke="#191970" d="M1064.1302,-168.4509C1030.5482,-148.8615 953.669,-104.0152 913.6906,-80.6945"/>
<polygon fill="#191970" stroke="#191970" points="915.2297,-77.5404 904.8284,-75.5249 911.7026,-83.5869 915.2297,-77.5404"/>
</g>
<!-- Node33&#45;&gt;Node4 -->
<g id="edge83" class="edge">
<title>Node33&#45;&gt;Node4</title>
<path fill="none" stroke="#191970" d="M1047.9546,-173.7909C968.9266,-163.5702 767.2994,-137.4937 684.1767,-126.7434"/>
<polygon fill="#191970" stroke="#191970" points="684.5468,-123.2622 674.1804,-125.4506 683.6489,-130.2044 684.5468,-123.2622"/>
</g>
<!-- Node33&#45;&gt;Node16 -->
<g id="edge84" class="edge">
<title>Node33&#45;&gt;Node16</title>
<path fill="none" stroke="#191970" d="M1047.8069,-171.5761C994.2632,-161.0552 888.2384,-140.2223 832.1984,-129.2109"/>
<polygon fill="#191970" stroke="#191970" points="832.8274,-125.7677 822.3402,-127.2739 831.4777,-132.6363 832.8274,-125.7677"/>
</g>
<!-- Node33&#45;&gt;Node21 -->
<g id="edge81" class="edge">
<title>Node33&#45;&gt;Node21</title>
<path fill="none" stroke="#191970" d="M1079.6291,-168.2455C1078.9766,-160.9382 1078.062,-150.6944 1077.2593,-141.7046"/>
<polygon fill="#191970" stroke="#191970" points="1080.7365,-141.2918 1076.361,-131.6427 1073.7642,-141.9143 1080.7365,-141.2918"/>
</g>
<!-- Node34&#45;&gt;Node2 -->
<g id="edge86" class="edge">
<title>Node34&#45;&gt;Node2</title>
<path fill="none" stroke="#191970" d="M1641.5793,-57.6641C1638.5218,-57.0406 1635.4608,-56.472 1632.5,-56 1440.3225,-25.3668 1207.3926,-14.4984 1115.5164,-11.2277"/>
<polygon fill="#191970" stroke="#191970" points="1115.3927,-7.7214 1105.2779,-10.8742 1115.1511,-14.7173 1115.3927,-7.7214"/>
</g>
<!-- Node35&#45;&gt;Node3 -->
<g id="edge89" class="edge">
<title>Node35&#45;&gt;Node3</title>
<path fill="none" stroke="#191970" d="M894.2133,-227.2839C931.7225,-219.4184 986.9862,-205.2454 999.5,-188 1004.7205,-180.8056 1003.0743,-176.1386 999.5,-168 990.0176,-146.4085 938.88,-104.6701 909.4325,-81.8491"/>
<polygon fill="#191970" stroke="#191970" points="911.4688,-78.9999 901.407,-75.6816 907.2033,-84.5502 911.4688,-78.9999"/>
</g>
<!-- Node35&#45;&gt;Node4 -->
<g id="edge90" class="edge">
<title>Node35&#45;&gt;Node4</title>
<path fill="none" stroke="#191970" d="M848.7,-224.2499C834.0839,-210.166 805.2063,-184.0617 776.5,-168 747.061,-151.5284 710.6315,-139.1856 684.0016,-131.4543"/>
<polygon fill="#191970" stroke="#191970" points="684.885,-128.0669 674.3102,-128.718 682.9829,-134.8036 684.885,-128.0669"/>
</g>
<!-- Node35&#45;&gt;Node32 -->
<g id="edge88" class="edge">
<title>Node35&#45;&gt;Node32</title>
<path fill="none" stroke="#191970" d="M859.3709,-224.2455C860.0234,-216.9382 860.938,-206.6944 861.7407,-197.7046"/>
<polygon fill="#191970" stroke="#191970" points="865.2358,-197.9143 862.639,-187.6427 858.2635,-197.2918 865.2358,-197.9143"/>
</g>
<!-- Node36&#45;&gt;Node2 -->
<g id="edge93" class="edge">
<title>Node36&#45;&gt;Node2</title>
<path fill="none" stroke="#191970" d="M331.6357,-169.5054C286.4789,-157.6799 210.3474,-137.1273 206.5,-132 201.1649,-124.8902 201.0485,-119.0209 206.5,-112 258.1196,-45.52 871.7052,-17.6985 1035.5141,-11.4268"/>
<polygon fill="#191970" stroke="#191970" points="1035.7818,-14.9193 1045.6427,-11.0447 1035.5179,-7.9243 1035.7818,-14.9193"/>
</g>
<!-- Node36&#45;&gt;Node3 -->
<g id="edge95" class="edge">
<title>Node36&#45;&gt;Node3</title>
<path fill="none" stroke="#191970" d="M392.8606,-168.4674C435.5307,-154.4197 518.9776,-128.0884 591.5,-112 684.0989,-91.4579 794.9474,-76.8947 851.4361,-70.1772"/>
<polygon fill="#191970" stroke="#191970" points="852.1376,-73.619 861.6612,-68.9767 851.3213,-66.6668 852.1376,-73.619"/>
</g>
<!-- Node36&#45;&gt;Node24 -->
<g id="edge94" class="edge">
<title>Node36&#45;&gt;Node24</title>
<path fill="none" stroke="#191970" d="M367.6354,-168.2455C370.01,-160.8579 373.3493,-150.4689 376.2615,-141.4087"/>
<polygon fill="#191970" stroke="#191970" points="379.6725,-142.234 379.4006,-131.6427 373.0083,-140.0919 379.6725,-142.234"/>
</g>
</g>
</svg>
