<?xml version="1.0" encoding="UTF-8" standalone="no"?>
<!DOCTYPE svg PUBLIC "-//W3C//DTD SVG 1.1//EN"
 "http://www.w3.org/Graphics/SVG/1.1/DTD/svg11.dtd">
<!-- Generated by graphviz version 2.40.1 (0)
 -->
<!-- Title: jngl/all.hpp Pages: 1 -->
<svg width="1854pt" height="308pt"
 viewBox="0.00 0.00 1854.00 308.00" xmlns="http://www.w3.org/2000/svg" xmlns:xlink="http://www.w3.org/1999/xlink">
<g id="graph0" class="graph" transform="scale(1 1) rotate(0) translate(4 304)">
<title>jngl/all.hpp</title>
<polygon fill="#ffffff" stroke="transparent" points="-4,4 -4,-304 1850,-304 1850,4 -4,4"/>
<!-- Node0 -->
<g id="node1" class="node">
<title>Node0</title>
<g id="a_node1"><a xlink:title="Includes all JNGL headers.">
<polygon fill="#bfbfbf" stroke="#000000" points="882,-280.5 882,-299.5 971,-299.5 971,-280.5 882,-280.5"/>
<text text-anchor="middle" x="926.5" y="-287.5" font-family="'Consolas',monospace" font-size="10.00" fill="#000000">jngl/all.hpp</text>
</a>
</g>
</g>
<!-- Node1 -->
<g id="node2" class="node">
<title>Node1</title>
<g id="a_node2"><a xlink:href="App_8hpp.html" target="_top" xlink:title=" ">
<polygon fill="#ffffff" stroke="#000000" points="303,-168.5 303,-187.5 362,-187.5 362,-168.5 303,-168.5"/>
<text text-anchor="middle" x="332.5" y="-175.5" font-family="'Consolas',monospace" font-size="10.00" fill="#000000">App.hpp</text>
</a>
</g>
</g>
<!-- Node0&#45;&gt;Node1 -->
<g id="edge1" class="edge">
<title>Node0&#45;&gt;Node1</title>
<path fill="none" stroke="#191970" d="M881.657,-289.3256C772.9039,-287.1585 497.8743,-278.3446 413.5,-244 387.1748,-233.2843 362.7308,-210.9611 347.727,-195.2537"/>
<polygon fill="#191970" stroke="#191970" points="350.1395,-192.7073 340.7816,-187.7393 344.9989,-197.4586 350.1395,-192.7073"/>
</g>
<!-- Node4 -->
<g id="node5" class="node">
<title>Node4</title>
<g id="a_node5"><a xlink:href="Color_8hpp.html" target="_top" xlink:title=" ">
<polygon fill="#ffffff" stroke="#000000" points="1195,-168.5 1195,-187.5 1266,-187.5 1266,-168.5 1195,-168.5"/>
<text text-anchor="middle" x="1230.5" y="-175.5" font-family="'Consolas',monospace" font-size="10.00" fill="#000000">Color.hpp</text>
</a>
</g>
</g>
<!-- Node0&#45;&gt;Node4 -->
<g id="edge4" class="edge">
<title>Node0&#45;&gt;Node4</title>
<path fill="none" stroke="#191970" d="M971.1969,-284.3824C1030.0396,-276.4616 1129.8498,-261.0598 1162.5,-244 1184.6843,-232.4086 1204.5174,-211.2841 1216.9586,-196.0515"/>
<polygon fill="#191970" stroke="#191970" points="1219.9558,-197.9025 1223.3915,-187.8802 1214.4557,-193.5725 1219.9558,-197.9025"/>
</g>
<!-- Node6 -->
<g id="node7" class="node">
<title>Node6</title>
<g id="a_node7"><a xlink:href="Controller_8hpp.html" target="_top" xlink:title=" ">
<polygon fill="#ffffff" stroke="#000000" points="1472,-224.5 1472,-243.5 1573,-243.5 1573,-224.5 1472,-224.5"/>
<text text-anchor="middle" x="1522.5" y="-231.5" font-family="'Consolas',monospace" font-size="10.00" fill="#000000">Controller.hpp</text>
</a>
</g>
</g>
<!-- Node0&#45;&gt;Node6 -->
<g id="edge6" class="edge">
<title>Node0&#45;&gt;Node6</title>
<path fill="none" stroke="#191970" d="M971.0081,-287.1447C1062.3796,-281.0626 1277.6596,-265.5995 1457.5,-244 1458.8072,-243.843 1460.1285,-243.6799 1461.46,-243.5114"/>
<polygon fill="#191970" stroke="#191970" points="1462.3532,-246.9234 1471.8024,-242.1315 1461.4274,-239.9849 1462.3532,-246.9234"/>
</g>
<!-- Node7 -->
<g id="node8" class="node">
<title>Node7</title>
<g id="a_node8"><a xlink:href="input_8hpp.html" target="_top" xlink:title=" ">
<polygon fill="#ffffff" stroke="#000000" points="1480,-168.5 1480,-187.5 1551,-187.5 1551,-168.5 1480,-168.5"/>
<text text-anchor="middle" x="1515.5" y="-175.5" font-family="'Consolas',monospace" font-size="10.00" fill="#000000">input.hpp</text>
</a>
</g>
</g>
<!-- Node0&#45;&gt;Node7 -->
<g id="edge46" class="edge">
<title>Node0&#45;&gt;Node7</title>
<path fill="none" stroke="#191970" d="M971.3735,-288.6979C1076.825,-285.1767 1337.6707,-273.6534 1419.5,-244 1449.8415,-233.0048 1479.6551,-210.0756 1497.8113,-194.3606"/>
<polygon fill="#191970" stroke="#191970" points="1500.1398,-196.9737 1505.2932,-187.7166 1495.4918,-191.7396 1500.1398,-196.9737"/>
</g>
<!-- Node14 -->
<g id="node15" class="node">
<title>Node14</title>
<g id="a_node15"><a xlink:href="Shader_8hpp.html" target="_top" xlink:title=" ">
<polygon fill="#ffffff" stroke="#000000" points="116,-112.5 116,-131.5 193,-131.5 193,-112.5 116,-112.5"/>
<text text-anchor="middle" x="154.5" y="-119.5" font-family="'Consolas',monospace" font-size="10.00" fill="#000000">Shader.hpp</text>
</a>
</g>
</g>
<!-- Node0&#45;&gt;Node14 -->
<g id="edge15" class="edge">
<title>Node0&#45;&gt;Node14</title>
<path fill="none" stroke="#191970" d="M881.9482,-289.1554C739.3452,-286.1554 300.1782,-274.5097 244.5,-244 202.5421,-221.0086 174.7924,-169.1561 162.2284,-141.0214"/>
<polygon fill="#191970" stroke="#191970" points="165.3102,-139.3265 158.1587,-131.5095 158.8745,-142.0801 165.3102,-139.3265"/>
</g>
<!-- Node15 -->
<g id="node16" class="node">
<title>Node15</title>
<g id="a_node16"><a xlink:href="ShaderProgram_8hpp.html" target="_top" xlink:title=" ">
<polygon fill="#ffffff" stroke="#000000" points="997,-112.5 997,-131.5 1116,-131.5 1116,-112.5 997,-112.5"/>
<text text-anchor="middle" x="1056.5" y="-119.5" font-family="'Consolas',monospace" font-size="10.00" fill="#000000">ShaderProgram.hpp</text>
</a>
</g>
</g>
<!-- Node0&#45;&gt;Node15 -->
<g id="edge17" class="edge">
<title>Node0&#45;&gt;Node15</title>
<path fill="none" stroke="#191970" d="M971.1788,-287.6886C1060.3153,-282.6033 1257.0347,-268.8728 1319.5,-244 1358.1489,-228.6106 1375.8561,-225.1884 1394.5,-188 1398.4837,-180.0538 1400.3463,-174.6958 1394.5,-168 1377.1423,-148.12 1220.0796,-133.6224 1126.2832,-126.6502"/>
<polygon fill="#191970" stroke="#191970" points="1126.521,-123.1584 1116.2919,-125.9182 1126.0094,-130.1396 1126.521,-123.1584"/>
</g>
<!-- Node17 -->
<g id="node18" class="node">
<title>Node17</title>
<g id="a_node18"><a xlink:href="Vertex_8hpp.html" target="_top" xlink:title=" ">
<polygon fill="#ffffff" stroke="#000000" points="1686,-224.5 1686,-243.5 1763,-243.5 1763,-224.5 1686,-224.5"/>
<text text-anchor="middle" x="1724.5" y="-231.5" font-family="'Consolas',monospace" font-size="10.00" fill="#000000">Vertex.hpp</text>
</a>
</g>
</g>
<!-- Node0&#45;&gt;Node17 -->
<g id="edge21" class="edge">
<title>Node0&#45;&gt;Node17</title>
<path fill="none" stroke="#191970" d="M971.1657,-289.5724C1086.4214,-287.9768 1403.333,-280.468 1675.7717,-244.0613"/>
<polygon fill="#191970" stroke="#191970" points="1676.4104,-247.5069 1685.8512,-242.6983 1675.4723,-240.5701 1676.4104,-247.5069"/>
</g>
<!-- Node18 -->
<g id="node19" class="node">
<title>Node18</title>
<g id="a_node19"><a xlink:href="Video_8hpp.html" target="_top" xlink:title=" ">
<polygon fill="#ffffff" stroke="#000000" points="422,-224.5 422,-243.5 493,-243.5 493,-224.5 422,-224.5"/>
<text text-anchor="middle" x="457.5" y="-231.5" font-family="'Consolas',monospace" font-size="10.00" fill="#000000">Video.hpp</text>
</a>
</g>
</g>
<!-- Node0&#45;&gt;Node18 -->
<g id="edge22" class="edge">
<title>Node0&#45;&gt;Node18</title>
<path fill="none" stroke="#191970" d="M881.7435,-285.0591C808.4795,-276.9102 658.3964,-259.9616 531.5,-244 522.3374,-242.8475 512.5442,-241.5621 503.1809,-240.307"/>
<polygon fill="#191970" stroke="#191970" points="503.618,-236.8343 493.2396,-238.9647 502.6813,-243.7714 503.618,-236.8343"/>
</g>
<!-- Node19 -->
<g id="node20" class="node">
<title>Node19</title>
<g id="a_node20"><a xlink:href="sprite_8hpp_source.html" target="_top" xlink:title=" ">
<polygon fill="#ffffff" stroke="#000000" points="674,-168.5 674,-187.5 751,-187.5 751,-168.5 674,-168.5"/>
<text text-anchor="middle" x="712.5" y="-175.5" font-family="'Consolas',monospace" font-size="10.00" fill="#000000">sprite.hpp</text>
</a>
</g>
</g>
<!-- Node0&#45;&gt;Node19 -->
<g id="edge70" class="edge">
<title>Node0&#45;&gt;Node19</title>
<path fill="none" stroke="#191970" d="M896.5708,-280.4779C872.204,-272.2238 837.2585,-259.2287 808.5,-244 780.8796,-229.3739 751.6252,-208.3573 732.7732,-193.9943"/>
<polygon fill="#191970" stroke="#191970" points="734.7019,-191.0617 724.647,-187.7227 730.4251,-196.6033 734.7019,-191.0617"/>
</g>
<!-- Node20 -->
<g id="node21" class="node">
<title>Node20</title>
<g id="a_node21"><a xlink:href="drawable_8hpp_source.html" target="_top" xlink:title=" ">
<polygon fill="#ffffff" stroke="#000000" points="211,-112.5 211,-131.5 300,-131.5 300,-112.5 211,-112.5"/>
<text text-anchor="middle" x="255.5" y="-119.5" font-family="'Consolas',monospace" font-size="10.00" fill="#000000">drawable.hpp</text>
</a>
</g>
</g>
<!-- Node0&#45;&gt;Node20 -->
<g id="edge37" class="edge">
<title>Node0&#45;&gt;Node20</title>
<path fill="none" stroke="#191970" d="M881.7541,-288.7409C761.1231,-285.0018 431.2371,-272.4056 326.5,-244 271.6331,-229.1196 241.6405,-236.2012 211.5,-188 200.6194,-170.5995 217.3166,-151.0922 233.1714,-137.8275"/>
<polygon fill="#191970" stroke="#191970" points="235.5258,-140.429 241.2351,-131.5041 231.2063,-134.9207 235.5258,-140.429"/>
</g>
<!-- Node21 -->
<g id="node22" class="node">
<title>Node21</title>
<g id="a_node22"><a xlink:href="debug_8hpp_source.html" target="_top" xlink:title=" ">
<polygon fill="#ffffff" stroke="#000000" points="540,-224.5 540,-243.5 611,-243.5 611,-224.5 540,-224.5"/>
<text text-anchor="middle" x="575.5" y="-231.5" font-family="'Consolas',monospace" font-size="10.00" fill="#000000">debug.hpp</text>
</a>
</g>
</g>
<!-- Node0&#45;&gt;Node21 -->
<g id="edge33" class="edge">
<title>Node0&#45;&gt;Node21</title>
<path fill="none" stroke="#191970" d="M881.6891,-282.8507C814.537,-272.137 688.4921,-252.0272 620.9618,-241.2532"/>
<polygon fill="#191970" stroke="#191970" points="621.4669,-237.7896 611.0403,-239.6702 620.364,-244.7021 621.4669,-237.7896"/>
</g>
<!-- Node22 -->
<g id="node23" class="node">
<title>Node22</title>
<g id="a_node23"><a xlink:href="message_8hpp.html" target="_top" xlink:title=" ">
<polygon fill="#ffffff" stroke="#000000" points="534,-168.5 534,-187.5 617,-187.5 617,-168.5 534,-168.5"/>
<text text-anchor="middle" x="575.5" y="-175.5" font-family="'Consolas',monospace" font-size="10.00" fill="#000000">message.hpp</text>
</a>
</g>
</g>
<!-- Node0&#45;&gt;Node22 -->
<g id="edge60" class="edge">
<title>Node0&#45;&gt;Node22</title>
<path fill="none" stroke="#191970" d="M893.1339,-280.4774C861.6715,-271.4085 813.2461,-257.2185 771.5,-244 715.9217,-226.4017 651.9999,-204.5772 612.6754,-190.9665"/>
<polygon fill="#191970" stroke="#191970" points="613.5816,-187.5763 602.9868,-187.607 611.2883,-194.19 613.5816,-187.5763"/>
</g>
<!-- Node24 -->
<g id="node25" class="node">
<title>Node24</title>
<g id="a_node25"><a xlink:href="font_8hpp.html" target="_top" xlink:title=" ">
<polygon fill="#ffffff" stroke="#000000" points="1088,-224.5 1088,-243.5 1153,-243.5 1153,-224.5 1088,-224.5"/>
<text text-anchor="middle" x="1120.5" y="-231.5" font-family="'Consolas',monospace" font-size="10.00" fill="#000000">font.hpp</text>
</a>
</g>
</g>
<!-- Node0&#45;&gt;Node24 -->
<g id="edge38" class="edge">
<title>Node0&#45;&gt;Node24</title>
<path fill="none" stroke="#191970" d="M959.8498,-280.3733C992.627,-270.9118 1042.7646,-256.4391 1078.2994,-246.1816"/>
<polygon fill="#191970" stroke="#191970" points="1079.2713,-249.5441 1087.9083,-243.4079 1077.3299,-242.8186 1079.2713,-249.5441"/>
</g>
<!-- Node25 -->
<g id="node26" class="node">
<title>Node25</title>
<g id="a_node26"><a xlink:href="framebuffer_8hpp_source.html" target="_top" xlink:title=" ">
<polygon fill="#ffffff" stroke="#000000" points="1284,-168.5 1284,-187.5 1385,-187.5 1385,-168.5 1284,-168.5"/>
<text text-anchor="middle" x="1334.5" y="-175.5" font-family="'Consolas',monospace" font-size="10.00" fill="#000000">framebuffer.hpp</text>
</a>
</g>
</g>
<!-- Node0&#45;&gt;Node25 -->
<g id="edge43" class="edge">
<title>Node0&#45;&gt;Node25</title>
<path fill="none" stroke="#191970" d="M971.2207,-289.3391C1057.7209,-287.2812 1244.0536,-278.8159 1296.5,-244 1312.9683,-233.0677 1323.1616,-212.3955 1328.7925,-197.0876"/>
<polygon fill="#191970" stroke="#191970" points="1332.1357,-198.1262 1331.9831,-187.5325 1325.496,-195.9092 1332.1357,-198.1262"/>
</g>
<!-- Node26 -->
<g id="node27" class="node">
<title>Node26</title>
<g id="a_node27"><a xlink:href="job_8hpp.html" target="_top" xlink:title=" ">
<polygon fill="#ffffff" stroke="#000000" points="0,-112.5 0,-131.5 59,-131.5 59,-112.5 0,-112.5"/>
<text text-anchor="middle" x="29.5" y="-119.5" font-family="'Consolas',monospace" font-size="10.00" fill="#000000">job.hpp</text>
</a>
</g>
</g>
<!-- Node0&#45;&gt;Node26 -->
<g id="edge47" class="edge">
<title>Node0&#45;&gt;Node26</title>
<path fill="none" stroke="#191970" d="M881.7509,-289.1613C722.0098,-285.9352 185.578,-273.0269 114.5,-244 79.5093,-229.7105 71.2135,-219.6148 50.5,-188 41.2445,-173.8734 35.8237,-155.381 32.8159,-141.5657"/>
<polygon fill="#191970" stroke="#191970" points="36.2349,-140.8115 30.8938,-131.6615 29.3631,-142.1452 36.2349,-140.8115"/>
</g>
<!-- Node27 -->
<g id="node28" class="node">
<title>Node27</title>
<g id="a_node28"><a xlink:href="main_8hpp_source.html" target="_top" xlink:title=" ">
<polygon fill="#ffffff" stroke="#000000" points="833,-224.5 833,-243.5 898,-243.5 898,-224.5 833,-224.5"/>
<text text-anchor="middle" x="865.5" y="-231.5" font-family="'Consolas',monospace" font-size="10.00" fill="#000000">main.hpp</text>
</a>
</g>
</g>
<!-- Node0&#45;&gt;Node27 -->
<g id="edge49" class="edge">
<title>Node0&#45;&gt;Node27</title>
<path fill="none" stroke="#191970" d="M915.8746,-280.2455C906.9527,-272.0549 894.012,-260.1749 883.4808,-250.5069"/>
<polygon fill="#191970" stroke="#191970" points="885.7371,-247.8271 876.0036,-243.6427 881.0032,-252.9837 885.7371,-247.8271"/>
</g>
<!-- Node28 -->
<g id="node29" class="node">
<title>Node28</title>
<g id="a_node29"><a xlink:href="other_8hpp.html" target="_top" xlink:title=" ">
<polygon fill="#ffffff" stroke="#000000" points="769,-168.5 769,-187.5 840,-187.5 840,-168.5 769,-168.5"/>
<text text-anchor="middle" x="804.5" y="-175.5" font-family="'Consolas',monospace" font-size="10.00" fill="#000000">other.hpp</text>
</a>
</g>
</g>
<!-- Node0&#45;&gt;Node28 -->
<g id="edge61" class="edge">
<title>Node0&#45;&gt;Node28</title>
<path fill="none" stroke="#191970" d="M886.042,-280.4411C865.0206,-273.5483 840.4597,-262.1717 824.5,-244 813.2783,-231.223 808.3522,-212.3079 806.1901,-197.9986"/>
<polygon fill="#191970" stroke="#191970" points="809.6249,-197.2385 804.9812,-187.7155 802.6728,-198.0558 809.6249,-197.2385"/>
</g>
<!-- Node29 -->
<g id="node30" class="node">
<title>Node29</title>
<g id="a_node30"><a xlink:href="window_8hpp.html" target="_top" xlink:title="Functions related to the main window.">
<polygon fill="#ffffff" stroke="#000000" points="858,-168.5 858,-187.5 935,-187.5 935,-168.5 858,-168.5"/>
<text text-anchor="middle" x="896.5" y="-175.5" font-family="'Consolas',monospace" font-size="10.00" fill="#000000">window.hpp</text>
</a>
</g>
</g>
<!-- Node0&#45;&gt;Node29 -->
<g id="edge77" class="edge">
<title>Node0&#45;&gt;Node29</title>
<path fill="none" stroke="#191970" d="M923.9422,-280.4509C919.0271,-262.1013 908.1761,-221.5908 901.6882,-197.3693"/>
<polygon fill="#191970" stroke="#191970" points="905.0196,-196.2788 899.0513,-187.5249 898.2579,-198.09 905.0196,-196.2788"/>
</g>
<!-- Node30 -->
<g id="node31" class="node">
<title>Node30</title>
<g id="a_node31"><a xlink:href="matrix_8hpp_source.html" target="_top" xlink:title=" ">
<polygon fill="#ffffff" stroke="#000000" points="993,-224.5 993,-243.5 1070,-243.5 1070,-224.5 993,-224.5"/>
<text text-anchor="middle" x="1031.5" y="-231.5" font-family="'Consolas',monospace" font-size="10.00" fill="#000000">matrix.hpp</text>
</a>
</g>
</g>
<!-- Node0&#45;&gt;Node30 -->
<g id="edge58" class="edge">
<title>Node0&#45;&gt;Node30</title>
<path fill="none" stroke="#191970" d="M944.7896,-280.2455C961.2762,-271.4527 985.7352,-258.4079 1004.4765,-248.4125"/>
<polygon fill="#191970" stroke="#191970" points="1006.2435,-251.4368 1013.42,-243.6427 1002.9494,-245.2604 1006.2435,-251.4368"/>
</g>
<!-- Node31 -->
<g id="node32" class="node">
<title>Node31</title>
<g id="a_node32"><a xlink:href="screen_8hpp.html" target="_top" xlink:title=" ">
<polygon fill="#ffffff" stroke="#000000" points="1591,-224.5 1591,-243.5 1668,-243.5 1668,-224.5 1591,-224.5"/>
<text text-anchor="middle" x="1629.5" y="-231.5" font-family="'Consolas',monospace" font-size="10.00" fill="#000000">screen.hpp</text>
</a>
</g>
</g>
<!-- Node0&#45;&gt;Node31 -->
<g id="edge62" class="edge">
<title>Node0&#45;&gt;Node31</title>
<path fill="none" stroke="#191970" d="M971.2679,-289.0135C1076.2107,-286.2399 1346.3363,-276.4246 1580.7682,-244.0787"/>
<polygon fill="#191970" stroke="#191970" points="1581.4277,-247.5207 1590.8474,-242.6709 1580.4593,-240.588 1581.4277,-247.5207"/>
</g>
<!-- Node32 -->
<g id="node33" class="node">
<title>Node32</title>
<g id="a_node33"><a xlink:href="shapes_8hpp.html" target="_top" xlink:title=" ">
<polygon fill="#ffffff" stroke="#000000" points="1210,-224.5 1210,-243.5 1287,-243.5 1287,-224.5 1210,-224.5"/>
<text text-anchor="middle" x="1248.5" y="-231.5" font-family="'Consolas',monospace" font-size="10.00" fill="#000000">shapes.hpp</text>
</a>
</g>
</g>
<!-- Node0&#45;&gt;Node32 -->
<g id="edge64" class="edge">
<title>Node0&#45;&gt;Node32</title>
<path fill="none" stroke="#191970" d="M971.2819,-282.5831C1024.704,-273.6794 1116.6931,-258.1717 1195.5,-244 1196.94,-243.7411 1198.4016,-243.4765 1199.8769,-243.2079"/>
<polygon fill="#191970" stroke="#191970" points="1200.5257,-246.6474 1209.7269,-241.3949 1199.2585,-239.763 1200.5257,-246.6474"/>
</g>
<!-- Node33 -->
<g id="node34" class="node">
<title>Node33</title>
<g id="a_node34"><a xlink:href="sound_8hpp_source.html" target="_top" xlink:title=" ">
<polygon fill="#ffffff" stroke="#000000" points="953,-168.5 953,-187.5 1024,-187.5 1024,-168.5 953,-168.5"/>
<text text-anchor="middle" x="988.5" y="-175.5" font-family="'Consolas',monospace" font-size="10.00" fill="#000000">sound.hpp</text>
</a>
</g>
</g>
<!-- Node0&#45;&gt;Node33 -->
<g id="edge67" class="edge">
<title>Node0&#45;&gt;Node33</title>
<path fill="none" stroke="#191970" d="M931.7861,-280.4509C942.0812,-261.8533 964.9777,-220.4919 978.3163,-196.3964"/>
<polygon fill="#191970" stroke="#191970" points="981.4462,-197.969 983.2273,-187.5249 975.322,-194.5787 981.4462,-197.969"/>
</g>
<!-- Node34 -->
<g id="node35" class="node">
<title>Node34</title>
<g id="a_node35"><a xlink:href="text_8hpp.html" target="_top" xlink:title=" ">
<polygon fill="#ffffff" stroke="#000000" points="220,-168.5 220,-187.5 285,-187.5 285,-168.5 220,-168.5"/>
<text text-anchor="middle" x="252.5" y="-175.5" font-family="'Consolas',monospace" font-size="10.00" fill="#000000">text.hpp</text>
</a>
</g>
</g>
<!-- Node0&#45;&gt;Node34 -->
<g id="edge71" class="edge">
<title>Node0&#45;&gt;Node34</title>
<path fill="none" stroke="#191970" d="M881.8488,-288.5585C768.4785,-284.5316 471.8209,-271.6024 377.5,-244 339.0721,-232.7543 298.8531,-209.0346 274.735,-193.3088"/>
<polygon fill="#191970" stroke="#191970" points="276.5832,-190.3347 266.3171,-187.7159 272.7094,-196.1652 276.5832,-190.3347"/>
</g>
<!-- Node35 -->
<g id="node36" class="node">
<title>Node35</title>
<g id="a_node36"><a xlink:href="time_8hpp.html" target="_top" xlink:title=" ">
<polygon fill="#ffffff" stroke="#000000" points="1781,-224.5 1781,-243.5 1846,-243.5 1846,-224.5 1781,-224.5"/>
<text text-anchor="middle" x="1813.5" y="-231.5" font-family="'Consolas',monospace" font-size="10.00" fill="#000000">time.hpp</text>
</a>
</g>
</g>
<!-- Node0&#45;&gt;Node35 -->
<g id="edge76" class="edge">
<title>Node0&#45;&gt;Node35</title>
<path fill="none" stroke="#191970" d="M971.0227,-288.6672C1119.3008,-284.0613 1596.3926,-267.8564 1770.8719,-243.956"/>
<polygon fill="#191970" stroke="#191970" points="1771.5292,-247.3977 1780.9337,-242.5186 1770.5392,-240.4681 1771.5292,-247.3977"/>
</g>
<!-- Node36 -->
<g id="node37" class="node">
<title>Node36</title>
<g id="a_node37"><a xlink:href="work_8hpp.html" target="_top" xlink:title=" ">
<polygon fill="#ffffff" stroke="#000000" points="60,-168.5 60,-187.5 125,-187.5 125,-168.5 60,-168.5"/>
<text text-anchor="middle" x="92.5" y="-175.5" font-family="'Consolas',monospace" font-size="10.00" fill="#000000">work.hpp</text>
</a>
</g>
</g>
<!-- Node0&#45;&gt;Node36 -->
<g id="edge78" class="edge">
<title>Node0&#45;&gt;Node36</title>
<path fill="none" stroke="#191970" d="M881.7935,-289.6244C724.7731,-288.0007 204.4746,-279.9342 139.5,-244 120.9201,-233.7244 107.9111,-212.6223 100.3627,-197.0325"/>
<polygon fill="#191970" stroke="#191970" points="103.4824,-195.436 96.1872,-187.7529 97.0989,-198.3084 103.4824,-195.436"/>
</g>
<!-- Node2 -->
<g id="node3" class="node">
<title>Node2</title>
<g id="a_node3"><a doxygen="/w/doc/cppreference-doxygen-web.tag.xml:http://en.cppreference.com/w/" xlink:href="http://en.cppreference.com/w/cpp/header/memory.html" xlink:title=" ">
<polygon fill="#ffffff" stroke="#000000" points="378,-56.5 378,-75.5 431,-75.5 431,-56.5 378,-56.5"/>
<text text-anchor="middle" x="404.5" y="-63.5" font-family="'Consolas',monospace" font-size="10.00" fill="#000000">memory</text>
</a>
</g>
</g>
<!-- Node1&#45;&gt;Node2 -->
<g id="edge2" class="edge">
<title>Node1&#45;&gt;Node2</title>
<path fill="none" stroke="#191970" d="M338.6387,-168.4509C350.6474,-149.7707 377.4204,-108.1238 392.8796,-84.0761"/>
<polygon fill="#191970" stroke="#191970" points="395.9134,-85.8294 398.3769,-75.5249 390.0251,-82.044 395.9134,-85.8294"/>
</g>
<!-- Node3 -->
<g id="node4" class="node">
<title>Node3</title>
<g id="a_node4"><a doxygen="/w/doc/cppreference-doxygen-web.tag.xml:http://en.cppreference.com/w/" xlink:href="http://en.cppreference.com/w/cpp/header/string.html" xlink:title=" ">
<polygon fill="#ffffff" stroke="#000000" points="619,-112.5 619,-131.5 672,-131.5 672,-112.5 619,-112.5"/>
<text text-anchor="middle" x="645.5" y="-119.5" font-family="'Consolas',monospace" font-size="10.00" fill="#000000">string</text>
</a>
</g>
</g>
<!-- Node1&#45;&gt;Node3 -->
<g id="edge3" class="edge">
<title>Node1&#45;&gt;Node3</title>
<path fill="none" stroke="#191970" d="M362.2285,-172.6812C419.7596,-162.3881 546.158,-139.7737 608.8085,-128.5646"/>
<polygon fill="#191970" stroke="#191970" points="609.429,-132.0093 618.6563,-126.8027 608.1961,-125.1187 609.429,-132.0093"/>
</g>
<!-- Node5 -->
<g id="node6" class="node">
<title>Node5</title>
<g id="a_node6"><a xlink:href="dll_8hpp_source.html" target="_top" xlink:title=" ">
<polygon fill="#ffffff" stroke="#000000" points="843,-112.5 843,-131.5 902,-131.5 902,-112.5 843,-112.5"/>
<text text-anchor="middle" x="872.5" y="-119.5" font-family="'Consolas',monospace" font-size="10.00" fill="#000000">dll.hpp</text>
</a>
</g>
</g>
<!-- Node4&#45;&gt;Node5 -->
<g id="edge5" class="edge">
<title>Node4&#45;&gt;Node5</title>
<path fill="none" stroke="#191970" d="M1194.8648,-172.4258C1127.7436,-161.9264 983.0074,-139.2861 912.599,-128.2725"/>
<polygon fill="#191970" stroke="#191970" points="912.7848,-124.7591 902.364,-126.6715 911.7029,-131.675 912.7848,-124.7591"/>
</g>
<!-- Node6&#45;&gt;Node7 -->
<g id="edge7" class="edge">
<title>Node6&#45;&gt;Node7</title>
<path fill="none" stroke="#191970" d="M1521.2807,-224.2455C1520.3673,-216.9382 1519.0868,-206.6944 1517.9631,-197.7046"/>
<polygon fill="#191970" stroke="#191970" points="1521.4187,-197.1313 1516.7053,-187.6427 1514.4728,-197.9996 1521.4187,-197.1313"/>
</g>
<!-- Node13 -->
<g id="node14" class="node">
<title>Node13</title>
<g id="a_node14"><a doxygen="/w/doc/cppreference-doxygen-web.tag.xml:http://en.cppreference.com/w/" xlink:href="http://en.cppreference.com/w/cpp/header/chrono.html" xlink:title=" ">
<polygon fill="#ffffff" stroke="#000000" points="1569,-168.5 1569,-187.5 1622,-187.5 1622,-168.5 1569,-168.5"/>
<text text-anchor="middle" x="1595.5" y="-175.5" font-family="'Consolas',monospace" font-size="10.00" fill="#000000">chrono</text>
</a>
</g>
</g>
<!-- Node6&#45;&gt;Node13 -->
<g id="edge14" class="edge">
<title>Node6&#45;&gt;Node13</title>
<path fill="none" stroke="#191970" d="M1535.2156,-224.2455C1546.102,-215.8943 1561.9883,-203.7076 1574.72,-193.9408"/>
<polygon fill="#191970" stroke="#191970" points="1577.1261,-196.5063 1582.9301,-187.6427 1572.8654,-190.9523 1577.1261,-196.5063"/>
</g>
<!-- Node7&#45;&gt;Node2 -->
<g id="edge12" class="edge">
<title>Node7&#45;&gt;Node2</title>
<path fill="none" stroke="#191970" d="M1501.6151,-168.3454C1478.8165,-153.1004 1431.4776,-123.9582 1386.5,-112 1293.9519,-87.3943 608.9009,-70.5763 441.382,-66.8032"/>
<polygon fill="#191970" stroke="#191970" points="441.4047,-63.303 431.329,-66.5785 441.2482,-70.3012 441.4047,-63.303"/>
</g>
<!-- Node8 -->
<g id="node9" class="node">
<title>Node8</title>
<g id="a_node9"><a xlink:href="Vec2_8hpp.html" target="_top" xlink:title=" ">
<polygon fill="#ffffff" stroke="#000000" points="1312,-112.5 1312,-131.5 1377,-131.5 1377,-112.5 1312,-112.5"/>
<text text-anchor="middle" x="1344.5" y="-119.5" font-family="'Consolas',monospace" font-size="10.00" fill="#000000">Vec2.hpp</text>
</a>
</g>
</g>
<!-- Node7&#45;&gt;Node8 -->
<g id="edge8" class="edge">
<title>Node7&#45;&gt;Node8</title>
<path fill="none" stroke="#191970" d="M1486.1041,-168.3733C1457.6693,-159.0613 1414.4123,-144.8953 1383.1919,-134.671"/>
<polygon fill="#191970" stroke="#191970" points="1384.105,-131.2872 1373.5124,-131.5011 1381.9264,-137.9396 1384.105,-131.2872"/>
</g>
<!-- Node11 -->
<g id="node12" class="node">
<title>Node11</title>
<g id="a_node12"><a doxygen="/w/doc/cppreference-doxygen-web.tag.xml:http://en.cppreference.com/w/" xlink:href="http://en.cppreference.com/w/cpp/header/functional.html" xlink:title=" ">
<polygon fill="#ffffff" stroke="#000000" points="1289,-.5 1289,-19.5 1366,-19.5 1366,-.5 1289,-.5"/>
<text text-anchor="middle" x="1327.5" y="-7.5" font-family="'Consolas',monospace" font-size="10.00" fill="#000000">functional</text>
</a>
</g>
</g>
<!-- Node7&#45;&gt;Node11 -->
<g id="edge11" class="edge">
<title>Node7&#45;&gt;Node11</title>
<path fill="none" stroke="#191970" d="M1512.8203,-168.2755C1506.0519,-145.4564 1486.1436,-87.9923 1449.5,-56 1428.7432,-37.8779 1400.1417,-26.5893 1375.849,-19.7329"/>
<polygon fill="#191970" stroke="#191970" points="1376.6482,-16.324 1366.0852,-17.1451 1374.8548,-23.0903 1376.6482,-16.324"/>
</g>
<!-- Node12 -->
<g id="node13" class="node">
<title>Node12</title>
<g id="a_node13"><a doxygen="/w/doc/cppreference-doxygen-web.tag.xml:http://en.cppreference.com/w/" xlink:href="http://en.cppreference.com/w/cpp/header/vector.html" xlink:title=" ">
<polygon fill="#ffffff" stroke="#000000" points="762,-112.5 762,-131.5 815,-131.5 815,-112.5 762,-112.5"/>
<text text-anchor="middle" x="788.5" y="-119.5" font-family="'Consolas',monospace" font-size="10.00" fill="#000000">vector</text>
</a>
</g>
</g>
<!-- Node7&#45;&gt;Node12 -->
<g id="edge13" class="edge">
<title>Node7&#45;&gt;Node12</title>
<path fill="none" stroke="#191970" d="M1479.7753,-174.8752C1455.6904,-172.811 1423.1949,-170.1079 1394.5,-168 1145.7676,-149.7284 1081.4927,-166.5873 834.5,-132 831.4421,-131.5718 828.2849,-131.0522 825.1243,-130.4774"/>
<polygon fill="#191970" stroke="#191970" points="825.6243,-127.0086 815.1348,-128.4985 824.264,-133.8751 825.6243,-127.0086"/>
</g>
<!-- Node9 -->
<g id="node10" class="node">
<title>Node9</title>
<g id="a_node10"><a xlink:title=" ">
<polygon fill="#ffffff" stroke="#bfbfbf" points="1321,-56.5 1321,-75.5 1440,-75.5 1440,-56.5 1321,-56.5"/>
<text text-anchor="middle" x="1380.5" y="-63.5" font-family="'Consolas',monospace" font-size="10.00" fill="#000000">boost/version.hpp</text>
</a>
</g>
</g>
<!-- Node8&#45;&gt;Node9 -->
<g id="edge9" class="edge">
<title>Node8&#45;&gt;Node9</title>
<path fill="none" stroke="#191970" d="M1350.7707,-112.2455C1355.7264,-104.5367 1362.783,-93.5598 1368.7776,-84.2348"/>
<polygon fill="#191970" stroke="#191970" points="1371.8376,-85.9471 1374.3011,-75.6427 1365.9494,-82.1618 1371.8376,-85.9471"/>
</g>
<!-- Node10 -->
<g id="node11" class="node">
<title>Node10</title>
<g id="a_node11"><a doxygen="/w/doc/cppreference-doxygen-web.tag.xml:http://en.cppreference.com/w/" xlink:href="http://en.cppreference.com/w/cpp/header/iosfwd.html" xlink:title=" ">
<polygon fill="#ffffff" stroke="#000000" points="1250,-56.5 1250,-75.5 1303,-75.5 1303,-56.5 1250,-56.5"/>
<text text-anchor="middle" x="1276.5" y="-63.5" font-family="'Consolas',monospace" font-size="10.00" fill="#000000">iosfwd</text>
</a>
</g>
</g>
<!-- Node8&#45;&gt;Node10 -->
<g id="edge10" class="edge">
<title>Node8&#45;&gt;Node10</title>
<path fill="none" stroke="#191970" d="M1332.6553,-112.2455C1322.612,-103.9746 1308.0005,-91.9416 1296.1996,-82.2232"/>
<polygon fill="#191970" stroke="#191970" points="1298.1533,-79.298 1288.209,-75.6427 1293.7033,-84.7015 1298.1533,-79.298"/>
</g>
<!-- Node14&#45;&gt;Node2 -->
<g id="edge16" class="edge">
<title>Node14&#45;&gt;Node2</title>
<path fill="none" stroke="#191970" d="M193.0146,-113.3727C240.6384,-102.705 321.1132,-84.6786 367.8568,-74.2081"/>
<polygon fill="#191970" stroke="#191970" points="368.8617,-77.5698 377.8548,-71.9685 367.3316,-70.7391 368.8617,-77.5698"/>
</g>
<!-- Node15&#45;&gt;Node2 -->
<g id="edge20" class="edge">
<title>Node15&#45;&gt;Node2</title>
<path fill="none" stroke="#191970" d="M996.7597,-113.6406C991.9391,-113.0534 987.1404,-112.4978 982.5,-112 778.3903,-90.1035 532.6934,-73.9026 441.1822,-68.2177"/>
<polygon fill="#191970" stroke="#191970" points="441.2463,-64.7151 431.0497,-67.5922 440.815,-71.7018 441.2463,-64.7151"/>
</g>
<!-- Node16 -->
<g id="node17" class="node">
<title>Node16</title>
<g id="a_node17"><a xlink:href="Finally_8hpp.html" target="_top" xlink:title=" ">
<polygon fill="#ffffff" stroke="#000000" points="1103,-56.5 1103,-75.5 1186,-75.5 1186,-56.5 1103,-56.5"/>
<text text-anchor="middle" x="1144.5" y="-63.5" font-family="'Consolas',monospace" font-size="10.00" fill="#000000">Finally.hpp</text>
</a>
</g>
</g>
<!-- Node15&#45;&gt;Node16 -->
<g id="edge18" class="edge">
<title>Node15&#45;&gt;Node16</title>
<path fill="none" stroke="#191970" d="M1071.8284,-112.2455C1085.3303,-103.6534 1105.2122,-91.0014 1120.7686,-81.1018"/>
<polygon fill="#191970" stroke="#191970" points="1122.7897,-83.9643 1129.3472,-75.6427 1119.0315,-78.0587 1122.7897,-83.9643"/>
</g>
<!-- Node16&#45;&gt;Node11 -->
<g id="edge19" class="edge">
<title>Node16&#45;&gt;Node11</title>
<path fill="none" stroke="#191970" d="M1175.9588,-56.3733C1206.5207,-47.021 1253.0826,-32.7725 1286.5261,-22.5385"/>
<polygon fill="#191970" stroke="#191970" points="1287.9136,-25.7742 1296.4517,-19.5011 1285.8652,-19.0806 1287.9136,-25.7742"/>
</g>
<!-- Node18&#45;&gt;Node2 -->
<g id="edge31" class="edge">
<title>Node18&#45;&gt;Node2</title>
<path fill="none" stroke="#191970" d="M452.786,-224.2951C448.4376,-215.0973 441.9939,-200.8201 437.5,-188 425.0373,-152.4464 414.4471,-109.7027 408.824,-85.408"/>
<polygon fill="#191970" stroke="#191970" points="412.2321,-84.6104 406.6011,-75.6359 405.4065,-86.1632 412.2321,-84.6104"/>
</g>
<!-- Node18&#45;&gt;Node3 -->
<g id="edge32" class="edge">
<title>Node18&#45;&gt;Node3</title>
<path fill="none" stroke="#191970" d="M452.1705,-224.3147C445.2676,-210.3116 435.5622,-184.3069 448.5,-168 468.1054,-143.2893 557.1865,-130.6086 608.5945,-125.2417"/>
<polygon fill="#191970" stroke="#191970" points="609.0465,-128.714 618.648,-124.2351 608.349,-121.7489 609.0465,-128.714"/>
</g>
<!-- Node18&#45;&gt;Node19 -->
<g id="edge23" class="edge">
<title>Node18&#45;&gt;Node19</title>
<path fill="none" stroke="#191970" d="M493.2252,-226.1545C537.7227,-216.3825 613.9461,-199.6432 663.7746,-188.7005"/>
<polygon fill="#191970" stroke="#191970" points="664.6619,-192.0891 673.6784,-186.5255 663.1603,-185.252 664.6619,-192.0891"/>
</g>
<!-- Node19&#45;&gt;Node2 -->
<g id="edge27" class="edge">
<title>Node19&#45;&gt;Node2</title>
<path fill="none" stroke="#191970" d="M710.831,-168.1305C707.7873,-153.3997 699.8679,-125.909 681.5,-112 644.2412,-83.7858 507.4012,-72.0305 441.0531,-67.9068"/>
<polygon fill="#191970" stroke="#191970" points="441.2266,-64.411 431.0359,-67.3092 440.8097,-71.3986 441.2266,-64.411"/>
</g>
<!-- Node19&#45;&gt;Node3 -->
<g id="edge28" class="edge">
<title>Node19&#45;&gt;Node3</title>
<path fill="none" stroke="#191970" d="M700.8295,-168.2455C690.9339,-159.9746 676.5373,-147.9416 664.9099,-138.2232"/>
<polygon fill="#191970" stroke="#191970" points="666.9542,-135.3703 657.0368,-131.6427 662.465,-140.7413 666.9542,-135.3703"/>
</g>
<!-- Node19&#45;&gt;Node5 -->
<g id="edge30" class="edge">
<title>Node19&#45;&gt;Node5</title>
<path fill="none" stroke="#191970" d="M740.005,-168.3733C766.3802,-159.1419 806.3851,-145.1402 835.5358,-134.9375"/>
<polygon fill="#191970" stroke="#191970" points="837.0716,-138.1082 845.3539,-131.5011 834.7591,-131.5012 837.0716,-138.1082"/>
</g>
<!-- Node19&#45;&gt;Node8 -->
<g id="edge25" class="edge">
<title>Node19&#45;&gt;Node8</title>
<path fill="none" stroke="#191970" d="M751.1982,-169.4985C754.3368,-168.9432 757.4664,-168.4337 760.5,-168 961.6184,-139.2476 1204.4597,-127.358 1301.4493,-123.5217"/>
<polygon fill="#191970" stroke="#191970" points="1301.875,-127.008 1311.7322,-123.1238 1301.6043,-120.0132 1301.875,-127.008"/>
</g>
<!-- Node19&#45;&gt;Node12 -->
<g id="edge29" class="edge">
<title>Node19&#45;&gt;Node12</title>
<path fill="none" stroke="#191970" d="M725.7382,-168.2455C737.181,-159.814 753.9296,-147.4729 767.2475,-137.6598"/>
<polygon fill="#191970" stroke="#191970" points="769.4391,-140.3924 775.4135,-131.6427 765.2867,-134.757 769.4391,-140.3924"/>
</g>
<!-- Node19&#45;&gt;Node15 -->
<g id="edge24" class="edge">
<title>Node19&#45;&gt;Node15</title>
<path fill="none" stroke="#191970" d="M751.2393,-169.7517C754.3687,-169.1396 757.485,-168.548 760.5,-168 837.649,-153.9785 926.6001,-140.5166 986.6887,-131.8191"/>
<polygon fill="#191970" stroke="#191970" points="987.4216,-135.2497 996.8196,-130.3583 986.4225,-128.3214 987.4216,-135.2497"/>
</g>
<!-- Node19&#45;&gt;Node20 -->
<g id="edge26" class="edge">
<title>Node19&#45;&gt;Node20</title>
<path fill="none" stroke="#191970" d="M673.9303,-173.2737C592.728,-163.3233 403.9306,-140.1884 310.2465,-128.7085"/>
<polygon fill="#191970" stroke="#191970" points="310.4737,-125.2103 300.1222,-127.4679 309.6222,-132.1583 310.4737,-125.2103"/>
</g>
<!-- Node21&#45;&gt;Node22 -->
<g id="edge34" class="edge">
<title>Node21&#45;&gt;Node22</title>
<path fill="none" stroke="#191970" d="M575.5,-224.2455C575.5,-216.9382 575.5,-206.6944 575.5,-197.7046"/>
<polygon fill="#191970" stroke="#191970" points="579.0001,-197.6426 575.5,-187.6427 572.0001,-197.6427 579.0001,-197.6426"/>
</g>
<!-- Node23 -->
<g id="node24" class="node">
<title>Node23</title>
<g id="a_node24"><a doxygen="/w/doc/cppreference-doxygen-web.tag.xml:http://en.cppreference.com/w/" xlink:href="http://en.cppreference.com/w/cpp/header/sstream.html" xlink:title=" ">
<polygon fill="#ffffff" stroke="#000000" points="457,-168.5 457,-187.5 516,-187.5 516,-168.5 457,-168.5"/>
<text text-anchor="middle" x="486.5" y="-175.5" font-family="'Consolas',monospace" font-size="10.00" fill="#000000">sstream</text>
</a>
</g>
</g>
<!-- Node21&#45;&gt;Node23 -->
<g id="edge36" class="edge">
<title>Node21&#45;&gt;Node23</title>
<path fill="none" stroke="#191970" d="M559.9974,-224.2455C546.342,-215.6534 526.2343,-203.0014 510.5011,-193.1018"/>
<polygon fill="#191970" stroke="#191970" points="512.1529,-190.006 501.825,-187.6427 508.4249,-195.9307 512.1529,-190.006"/>
</g>
<!-- Node22&#45;&gt;Node3 -->
<g id="edge35" class="edge">
<title>Node22&#45;&gt;Node3</title>
<path fill="none" stroke="#191970" d="M587.6931,-168.2455C598.1321,-159.8943 613.3655,-147.7076 625.574,-137.9408"/>
<polygon fill="#191970" stroke="#191970" points="627.8244,-140.6227 633.4467,-131.6427 623.4515,-135.1566 627.8244,-140.6227"/>
</g>
<!-- Node24&#45;&gt;Node2 -->
<g id="edge41" class="edge">
<title>Node24&#45;&gt;Node2</title>
<path fill="none" stroke="#191970" d="M1112.4661,-224.1017C1100.4024,-209.8333 1076.2608,-183.5013 1050.5,-168 1007.8691,-142.3473 989.5966,-153.0179 944.5,-132 928.9553,-124.7552 927.7919,-117.3569 911.5,-112 823.9223,-83.2037 542.3922,-70.7926 441.1761,-67.1847"/>
<polygon fill="#191970" stroke="#191970" points="441.2402,-63.6849 431.1243,-66.8344 440.9963,-70.6807 441.2402,-63.6849"/>
</g>
<!-- Node24&#45;&gt;Node3 -->
<g id="edge42" class="edge">
<title>Node24&#45;&gt;Node3</title>
<path fill="none" stroke="#191970" d="M1087.9185,-225.5784C1085.0823,-224.9898 1082.2473,-224.4518 1079.5,-224 988.3767,-209.0153 737.2107,-246.1857 665.5,-188 652.0159,-177.0591 647.391,-157.3319 645.9151,-142.2853"/>
<polygon fill="#191970" stroke="#191970" points="649.3863,-141.6919 645.3056,-131.9144 642.3984,-142.1026 649.3863,-141.6919"/>
</g>
<!-- Node24&#45;&gt;Node4 -->
<g id="edge39" class="edge">
<title>Node24&#45;&gt;Node4</title>
<path fill="none" stroke="#191970" d="M1139.6605,-224.2455C1157.0111,-215.4125 1182.7901,-202.2887 1202.4583,-192.2758"/>
<polygon fill="#191970" stroke="#191970" points="1204.2353,-195.2986 1211.559,-187.6427 1201.0595,-189.0605 1204.2353,-195.2986"/>
</g>
<!-- Node24&#45;&gt;Node8 -->
<g id="edge40" class="edge">
<title>Node24&#45;&gt;Node8</title>
<path fill="none" stroke="#191970" d="M1127.4938,-224.409C1138.4681,-210.0419 1161.119,-183.0199 1186.5,-168 1222.3737,-146.7707 1268.6798,-134.7979 1301.8732,-128.4263"/>
<polygon fill="#191970" stroke="#191970" points="1302.5202,-131.8662 1311.7276,-126.6247 1301.2612,-124.9803 1302.5202,-131.8662"/>
</g>
<!-- Node25&#45;&gt;Node2 -->
<g id="edge45" class="edge">
<title>Node25&#45;&gt;Node2</title>
<path fill="none" stroke="#191970" d="M1283.9922,-169.2921C1281.1211,-168.843 1278.2751,-168.409 1275.5,-168 1148.3189,-149.2543 1112.2,-166.996 988.5,-132 967.8303,-126.1523 965.282,-117.4352 944.5,-112 848.9041,-86.9985 546.673,-72.0575 441.2268,-67.4983"/>
<polygon fill="#191970" stroke="#191970" points="441.2154,-63.9947 431.0753,-67.0653 440.9171,-70.9883 441.2154,-63.9947"/>
</g>
<!-- Node25&#45;&gt;Node8 -->
<g id="edge44" class="edge">
<title>Node25&#45;&gt;Node8</title>
<path fill="none" stroke="#191970" d="M1336.2419,-168.2455C1337.5467,-160.9382 1339.376,-150.6944 1340.9813,-141.7046"/>
<polygon fill="#191970" stroke="#191970" points="1344.4656,-142.1022 1342.7781,-131.6427 1337.5746,-140.8717 1344.4656,-142.1022"/>
</g>
<!-- Node26&#45;&gt;Node2 -->
<g id="edge48" class="edge">
<title>Node26&#45;&gt;Node2</title>
<path fill="none" stroke="#191970" d="M59.2512,-114.8766C64.0031,-113.8434 68.8764,-112.8451 73.5,-112 179.7833,-92.5737 306.5941,-77.0684 367.8241,-70.0594"/>
<polygon fill="#191970" stroke="#191970" points="368.2345,-73.5354 377.7756,-68.9292 367.4445,-66.5801 368.2345,-73.5354"/>
</g>
<!-- Node27&#45;&gt;Node16 -->
<g id="edge50" class="edge">
<title>Node27&#45;&gt;Node16</title>
<path fill="none" stroke="#191970" d="M898.1765,-231.6641C954.6721,-225.7209 1069.8821,-204.8356 1125.5,-132 1135.6639,-118.6897 1140.3942,-100.1179 1142.5938,-86.0646"/>
<polygon fill="#191970" stroke="#191970" points="1146.0906,-86.3092 1143.8707,-75.9496 1139.1457,-85.4325 1146.0906,-86.3092"/>
</g>
<!-- Node27&#45;&gt;Node28 -->
<g id="edge51" class="edge">
<title>Node27&#45;&gt;Node28</title>
<path fill="none" stroke="#191970" d="M854.8746,-224.2455C845.9527,-216.0549 833.012,-204.1749 822.4808,-194.5069"/>
<polygon fill="#191970" stroke="#191970" points="824.7371,-191.8271 815.0036,-187.6427 820.0032,-196.9837 824.7371,-191.8271"/>
</g>
<!-- Node27&#45;&gt;Node29 -->
<g id="edge55" class="edge">
<title>Node27&#45;&gt;Node29</title>
<path fill="none" stroke="#191970" d="M870.8998,-224.2455C875.1227,-216.617 881.1173,-205.7881 886.2441,-196.5267"/>
<polygon fill="#191970" stroke="#191970" points="889.381,-198.0867 891.1621,-187.6427 883.2568,-194.6965 889.381,-198.0867"/>
</g>
<!-- Node28&#45;&gt;Node3 -->
<g id="edge52" class="edge">
<title>Node28&#45;&gt;Node3</title>
<path fill="none" stroke="#191970" d="M777.1669,-168.3733C750.8771,-159.114 710.9606,-145.0553 681.9701,-134.8448"/>
<polygon fill="#191970" stroke="#191970" points="682.8066,-131.4287 672.2118,-131.4079 680.4811,-138.0312 682.8066,-131.4287"/>
</g>
<!-- Node28&#45;&gt;Node5 -->
<g id="edge54" class="edge">
<title>Node28&#45;&gt;Node5</title>
<path fill="none" stroke="#191970" d="M816.3447,-168.2455C826.388,-159.9746 840.9995,-147.9416 852.8004,-138.2232"/>
<polygon fill="#191970" stroke="#191970" points="855.2967,-140.7015 860.791,-131.6427 850.8467,-135.298 855.2967,-140.7015"/>
</g>
<!-- Node28&#45;&gt;Node12 -->
<g id="edge53" class="edge">
<title>Node28&#45;&gt;Node12</title>
<path fill="none" stroke="#191970" d="M801.713,-168.2455C799.6023,-160.8579 796.634,-150.4689 794.0453,-141.4087"/>
<polygon fill="#191970" stroke="#191970" points="797.3677,-140.2964 791.255,-131.6427 790.637,-142.2195 797.3677,-140.2964"/>
</g>
<!-- Node29&#45;&gt;Node3 -->
<g id="edge56" class="edge">
<title>Node29&#45;&gt;Node3</title>
<path fill="none" stroke="#191970" d="M857.8313,-169.3727C810.017,-158.705 729.2204,-140.6786 682.2898,-130.2081"/>
<polygon fill="#191970" stroke="#191970" points="682.774,-126.7301 672.2518,-127.9685 681.2496,-133.5621 682.774,-126.7301"/>
</g>
<!-- Node29&#45;&gt;Node5 -->
<g id="edge57" class="edge">
<title>Node29&#45;&gt;Node5</title>
<path fill="none" stroke="#191970" d="M892.3195,-168.2455C889.119,-160.7776 884.604,-150.2427 880.6916,-141.1137"/>
<polygon fill="#191970" stroke="#191970" points="883.7888,-139.4554 876.6326,-131.6427 877.3548,-142.2129 883.7888,-139.4554"/>
</g>
<!-- Node30&#45;&gt;Node5 -->
<g id="edge59" class="edge">
<title>Node30&#45;&gt;Node5</title>
<path fill="none" stroke="#191970" d="M1035.2096,-224.3588C1039.8892,-210.4105 1045.926,-184.4735 1033.5,-168 1029.7387,-163.0136 958.4453,-143.9852 912.0024,-132.0195"/>
<polygon fill="#191970" stroke="#191970" points="912.7732,-128.604 902.217,-129.508 911.0329,-135.3842 912.7732,-128.604"/>
</g>
<!-- Node31&#45;&gt;Node8 -->
<g id="edge63" class="edge">
<title>Node31&#45;&gt;Node8</title>
<path fill="none" stroke="#191970" d="M1633.4636,-224.155C1638.4595,-209.953 1644.8865,-183.7029 1631.5,-168 1615.8472,-149.6386 1463.3963,-133.0379 1387.2841,-125.8154"/>
<polygon fill="#191970" stroke="#191970" points="1387.3559,-122.3069 1377.0731,-124.8593 1386.7033,-129.2764 1387.3559,-122.3069"/>
</g>
<!-- Node32&#45;&gt;Node4 -->
<g id="edge65" class="edge">
<title>Node32&#45;&gt;Node4</title>
<path fill="none" stroke="#191970" d="M1245.3646,-224.2455C1242.99,-216.8579 1239.6507,-206.4689 1236.7385,-197.4087"/>
<polygon fill="#191970" stroke="#191970" points="1239.9917,-196.0919 1233.5994,-187.6427 1233.3275,-198.234 1239.9917,-196.0919"/>
</g>
<!-- Node32&#45;&gt;Node8 -->
<g id="edge66" class="edge">
<title>Node32&#45;&gt;Node8</title>
<path fill="none" stroke="#191970" d="M1287.2335,-227.1134C1326.0035,-219.3387 1381.691,-205.4655 1394.5,-188 1407.2853,-170.5669 1387.7931,-150.8389 1369.5348,-137.5288"/>
<polygon fill="#191970" stroke="#191970" points="1371.0436,-134.3195 1360.8176,-131.5485 1367.0836,-140.0917 1371.0436,-134.3195"/>
</g>
<!-- Node33&#45;&gt;Node3 -->
<g id="edge69" class="edge">
<title>Node33&#45;&gt;Node3</title>
<path fill="none" stroke="#191970" d="M952.5251,-169.6057C949.8141,-169.04 947.1165,-168.4979 944.5,-168 850.4672,-150.1044 738.7776,-134.3748 682.232,-126.7974"/>
<polygon fill="#191970" stroke="#191970" points="682.3802,-123.2863 672.0056,-125.4355 681.4561,-130.2251 682.3802,-123.2863"/>
</g>
<!-- Node33&#45;&gt;Node5 -->
<g id="edge68" class="edge">
<title>Node33&#45;&gt;Node5</title>
<path fill="none" stroke="#191970" d="M968.5589,-168.3733C950.0214,-159.4241 922.1972,-145.9917 901.2587,-135.8835"/>
<polygon fill="#191970" stroke="#191970" points="902.7081,-132.6967 892.1809,-131.5011 899.6648,-139.0006 902.7081,-132.6967"/>
</g>
<!-- Node34&#45;&gt;Node2 -->
<g id="edge73" class="edge">
<title>Node34&#45;&gt;Node2</title>
<path fill="none" stroke="#191970" d="M265.4594,-168.4509C291.7086,-149.1094 351.3726,-105.1465 383.3416,-81.5904"/>
<polygon fill="#191970" stroke="#191970" points="385.599,-84.2746 391.5734,-75.5249 381.4466,-78.6392 385.599,-84.2746"/>
</g>
<!-- Node34&#45;&gt;Node3 -->
<g id="edge74" class="edge">
<title>Node34&#45;&gt;Node3</title>
<path fill="none" stroke="#191970" d="M285.4467,-169.8153C288.4987,-169.16 291.5513,-168.5427 294.5,-168 408.439,-147.0278 544.8965,-131.9996 608.9303,-125.5331"/>
<polygon fill="#191970" stroke="#191970" points="609.3325,-129.0104 618.9348,-124.5332 608.6363,-122.0451 609.3325,-129.0104"/>
</g>
<!-- Node34&#45;&gt;Node12 -->
<g id="edge75" class="edge">
<title>Node34&#45;&gt;Node12</title>
<path fill="none" stroke="#191970" d="M285.426,-169.6968C288.4824,-169.0664 291.5417,-168.4873 294.5,-168 464.9459,-139.9249 509.5035,-148.0371 681.5,-132 704.7543,-129.8318 730.8509,-127.3929 751.4499,-125.4666"/>
<polygon fill="#191970" stroke="#191970" points="752.0459,-128.9262 761.6765,-124.5101 751.394,-121.9566 752.0459,-128.9262"/>
</g>
<!-- Node34&#45;&gt;Node20 -->
<g id="edge72" class="edge">
<title>Node34&#45;&gt;Node20</title>
<path fill="none" stroke="#191970" d="M253.0226,-168.2455C253.414,-160.9382 253.9628,-150.6944 254.4444,-141.7046"/>
<polygon fill="#191970" stroke="#191970" points="257.9434,-141.8156 254.9834,-131.6427 250.9534,-141.4411 257.9434,-141.8156"/>
</g>
<!-- Node36&#45;&gt;Node2 -->
<g id="edge81" class="edge">
<title>Node36&#45;&gt;Node2</title>
<path fill="none" stroke="#191970" d="M91.4504,-168.3156C90.4692,-153.8265 91.0106,-126.6473 106.5,-112 125.2765,-94.2442 292.3855,-76.5116 367.8269,-69.3304"/>
<polygon fill="#191970" stroke="#191970" points="368.2106,-72.8099 377.8386,-68.3883 367.5547,-65.8407 368.2106,-72.8099"/>
</g>
<!-- Node36&#45;&gt;Node5 -->
<g id="edge79" class="edge">
<title>Node36&#45;&gt;Node5</title>
<path fill="none" stroke="#191970" d="M125.0605,-175.0414C148.9678,-172.9233 182.2379,-170.0884 211.5,-168 483.7215,-148.5718 553.9613,-167.9276 824.5,-132 827.2147,-131.6395 830.0052,-131.2116 832.8095,-130.7391"/>
<polygon fill="#191970" stroke="#191970" points="833.7168,-134.1308 842.9147,-128.8726 832.4453,-127.2473 833.7168,-134.1308"/>
</g>
<!-- Node36&#45;&gt;Node26 -->
<g id="edge80" class="edge">
<title>Node36&#45;&gt;Node26</title>
<path fill="none" stroke="#191970" d="M81.5262,-168.2455C72.3118,-160.0549 58.9468,-148.1749 48.0703,-138.5069"/>
<polygon fill="#191970" stroke="#191970" points="50.1474,-135.6704 40.348,-131.6427 45.4968,-140.9023 50.1474,-135.6704"/>
</g>
</g>
</svg>
