<?xml version="1.0" encoding="UTF-8" standalone="no"?>
<!DOCTYPE svg PUBLIC "-//W3C//DTD SVG 1.1//EN"
 "http://www.w3.org/Graphics/SVG/1.1/DTD/svg11.dtd">
<!-- Generated by graphviz version 2.42.4 (0)
 -->
<!-- Title: jngl/all.hpp Pages: 1 -->
<svg width="1666pt" height="308pt"
 viewBox="0.00 0.00 1666.00 308.00" xmlns="http://www.w3.org/2000/svg" xmlns:xlink="http://www.w3.org/1999/xlink">
<g id="graph0" class="graph" transform="scale(1 1) rotate(0) translate(4 304)">
<title>jngl/all.hpp</title>
<polygon fill="white" stroke="transparent" points="-4,4 -4,-304 1662,-304 1662,4 -4,4"/>
<!-- Node1 -->
<g id="node1" class="node">
<title>Node1</title>
<g id="a_node1"><a xlink:title="Includes all JNGL headers.">
<polygon fill="#bfbfbf" stroke="black" points="767,-280.5 767,-299.5 856,-299.5 856,-280.5 767,-280.5"/>
<text text-anchor="middle" x="811.5" y="-287.5" font-family="'Consolas',monospace" font-size="10.00">jngl/all.hpp</text>
</a>
</g>
</g>
<!-- Node2 -->
<g id="node2" class="node">
<title>Node2</title>
<g id="a_node2"><a xlink:href="App_8hpp.html" target="_top" xlink:title=" ">
<polygon fill="white" stroke="black" points="771,-168.5 771,-187.5 830,-187.5 830,-168.5 771,-168.5"/>
<text text-anchor="middle" x="800.5" y="-175.5" font-family="'Consolas',monospace" font-size="10.00">App.hpp</text>
</a>
</g>
</g>
<!-- Node1&#45;&gt;Node2 -->
<g id="edge1" class="edge">
<title>Node1&#45;&gt;Node2</title>
<path fill="none" stroke="midnightblue" d="M810.64,-280.37C808.86,-262.62 804.77,-221.67 802.36,-197.6"/>
<polygon fill="midnightblue" stroke="midnightblue" points="805.84,-197.19 801.36,-187.59 798.87,-197.89 805.84,-197.19"/>
</g>
<!-- Node5 -->
<g id="node5" class="node">
<title>Node5</title>
<g id="a_node5"><a xlink:href="Color_8hpp.html" target="_top" xlink:title=" ">
<polygon fill="white" stroke="black" points="311,-168.5 311,-187.5 382,-187.5 382,-168.5 311,-168.5"/>
<text text-anchor="middle" x="346.5" y="-175.5" font-family="'Consolas',monospace" font-size="10.00">Color.hpp</text>
</a>
</g>
</g>
<!-- Node1&#45;&gt;Node5 -->
<g id="edge4" class="edge">
<title>Node1&#45;&gt;Node5</title>
<path fill="none" stroke="midnightblue" d="M766.84,-288.23C674.06,-285.96 463.93,-277.21 401.5,-244 381.37,-233.29 365.54,-211.9 356.12,-196.58"/>
<polygon fill="midnightblue" stroke="midnightblue" points="358.94,-194.45 350.89,-187.56 352.88,-197.96 358.94,-194.45"/>
</g>
<!-- Node6 -->
<g id="node6" class="node">
<title>Node6</title>
<g id="a_node6"><a xlink:href="Controller_8hpp.html" target="_top" xlink:title=" ">
<polygon fill="white" stroke="black" points="644,-224.5 644,-243.5 745,-243.5 745,-224.5 644,-224.5"/>
<text text-anchor="middle" x="694.5" y="-231.5" font-family="'Consolas',monospace" font-size="10.00">Controller.hpp</text>
</a>
</g>
</g>
<!-- Node1&#45;&gt;Node6 -->
<g id="edge5" class="edge">
<title>Node1&#45;&gt;Node6</title>
<path fill="none" stroke="midnightblue" d="M792.96,-280.44C773.88,-271.64 743.93,-257.81 722.06,-247.72"/>
<polygon fill="midnightblue" stroke="midnightblue" points="723.5,-244.53 712.95,-243.52 720.57,-250.88 723.5,-244.53"/>
</g>
<!-- Node7 -->
<g id="node7" class="node">
<title>Node7</title>
<g id="a_node7"><a xlink:href="input_8hpp.html" target="_top" xlink:title="Input related functions.">
<polygon fill="white" stroke="black" points="682,-168.5 682,-187.5 753,-187.5 753,-168.5 682,-168.5"/>
<text text-anchor="middle" x="717.5" y="-175.5" font-family="'Consolas',monospace" font-size="10.00">input.hpp</text>
</a>
</g>
</g>
<!-- Node1&#45;&gt;Node7 -->
<g id="edge43" class="edge">
<title>Node1&#45;&gt;Node7</title>
<path fill="none" stroke="midnightblue" d="M804.12,-280.37C788.47,-262.05 751.72,-219.05 731.48,-195.36"/>
<polygon fill="midnightblue" stroke="midnightblue" points="734,-192.92 724.84,-187.59 728.68,-197.47 734,-192.92"/>
</g>
<!-- Node14 -->
<g id="node14" class="node">
<title>Node14</title>
<g id="a_node14"><a xlink:href="Drawable_8hpp.html" target="_top" xlink:title="Contains Drawable class.">
<polygon fill="white" stroke="black" points="797,-112.5 797,-131.5 886,-131.5 886,-112.5 797,-112.5"/>
<text text-anchor="middle" x="841.5" y="-119.5" font-family="'Consolas',monospace" font-size="10.00">Drawable.hpp</text>
</a>
</g>
</g>
<!-- Node1&#45;&gt;Node14 -->
<g id="edge14" class="edge">
<title>Node1&#45;&gt;Node14</title>
<path fill="none" stroke="midnightblue" d="M814.7,-280.24C820.85,-262.91 834.2,-222.9 839.5,-188 841.83,-172.63 842.23,-155 842.11,-141.97"/>
<polygon fill="midnightblue" stroke="midnightblue" points="845.61,-141.82 841.9,-131.89 838.61,-141.96 845.61,-141.82"/>
</g>
<!-- Node15 -->
<g id="node15" class="node">
<title>Node15</title>
<g id="a_node15"><a xlink:href="Shader_8hpp.html" target="_top" xlink:title=" ">
<polygon fill="white" stroke="black" points="0,-112.5 0,-131.5 77,-131.5 77,-112.5 0,-112.5"/>
<text text-anchor="middle" x="38.5" y="-119.5" font-family="'Consolas',monospace" font-size="10.00">Shader.hpp</text>
</a>
</g>
</g>
<!-- Node1&#45;&gt;Node15 -->
<g id="edge16" class="edge">
<title>Node1&#45;&gt;Node15</title>
<path fill="none" stroke="midnightblue" d="M766.8,-289.04C616.49,-288.78 135.61,-284.75 80.5,-244 48.12,-220.05 40.53,-169.42 38.87,-141.85"/>
<polygon fill="midnightblue" stroke="midnightblue" points="42.35,-141.45 38.46,-131.59 35.36,-141.72 42.35,-141.45"/>
</g>
<!-- Node16 -->
<g id="node16" class="node">
<title>Node16</title>
<g id="a_node16"><a xlink:href="ShaderProgram_8hpp.html" target="_top" xlink:title=" ">
<polygon fill="white" stroke="black" points="273,-112.5 273,-131.5 392,-131.5 392,-112.5 273,-112.5"/>
<text text-anchor="middle" x="332.5" y="-119.5" font-family="'Consolas',monospace" font-size="10.00">ShaderProgram.hpp</text>
</a>
</g>
</g>
<!-- Node1&#45;&gt;Node16 -->
<g id="edge18" class="edge">
<title>Node1&#45;&gt;Node16</title>
<path fill="none" stroke="midnightblue" d="M766.86,-288.31C621.78,-285.76 169.68,-275.35 112.5,-244 78.85,-225.55 46.77,-197.35 71.5,-168 95.49,-139.53 193.56,-129.07 262.4,-125.23"/>
<polygon fill="midnightblue" stroke="midnightblue" points="262.95,-128.7 272.75,-124.69 262.59,-121.71 262.95,-128.7"/>
</g>
<!-- Node18 -->
<g id="node18" class="node">
<title>Node18</title>
<g id="a_node18"><a xlink:href="Vertex_8hpp.html" target="_top" xlink:title=" ">
<polygon fill="white" stroke="black" points="1106,-56.5 1106,-75.5 1183,-75.5 1183,-56.5 1106,-56.5"/>
<text text-anchor="middle" x="1144.5" y="-63.5" font-family="'Consolas',monospace" font-size="10.00">Vertex.hpp</text>
</a>
</g>
</g>
<!-- Node1&#45;&gt;Node18 -->
<g id="edge22" class="edge">
<title>Node1&#45;&gt;Node18</title>
<path fill="none" stroke="midnightblue" d="M856.21,-287.45C981.82,-282.82 1331.74,-267.9 1377.5,-244 1406.05,-229.09 1406.16,-215.14 1423.5,-188 1442.8,-157.79 1473.93,-139.13 1450.5,-112 1417.83,-74.18 1270.89,-67.57 1193.12,-66.77"/>
<polygon fill="midnightblue" stroke="midnightblue" points="1193.11,-63.27 1183.09,-66.7 1193.06,-70.27 1193.11,-63.27"/>
</g>
<!-- Node19 -->
<g id="node19" class="node">
<title>Node19</title>
<g id="a_node19"><a xlink:href="Video_8hpp.html" target="_top" xlink:title=" ">
<polygon fill="white" stroke="black" points="546,-224.5 546,-243.5 617,-243.5 617,-224.5 546,-224.5"/>
<text text-anchor="middle" x="581.5" y="-231.5" font-family="'Consolas',monospace" font-size="10.00">Video.hpp</text>
</a>
</g>
</g>
<!-- Node1&#45;&gt;Node19 -->
<g id="edge23" class="edge">
<title>Node1&#45;&gt;Node19</title>
<path fill="none" stroke="midnightblue" d="M775.06,-280.44C734.95,-271.03 670.43,-255.88 627.03,-245.69"/>
<polygon fill="midnightblue" stroke="midnightblue" points="627.55,-242.22 617.02,-243.34 625.95,-249.03 627.55,-242.22"/>
</g>
<!-- Node20 -->
<g id="node20" class="node">
<title>Node20</title>
<g id="a_node20"><a xlink:href="sprite_8hpp_source.html" target="_top" xlink:title=" ">
<polygon fill="white" stroke="black" points="477,-168.5 477,-187.5 554,-187.5 554,-168.5 477,-168.5"/>
<text text-anchor="middle" x="515.5" y="-175.5" font-family="'Consolas',monospace" font-size="10.00">sprite.hpp</text>
</a>
</g>
</g>
<!-- Node1&#45;&gt;Node20 -->
<g id="edge64" class="edge">
<title>Node1&#45;&gt;Node20</title>
<path fill="none" stroke="midnightblue" d="M766.97,-287.15C698.42,-283.42 571.36,-272.73 537.5,-244 524.04,-232.58 518.79,-212.59 516.76,-197.79"/>
<polygon fill="midnightblue" stroke="midnightblue" points="520.22,-197.31 515.75,-187.71 513.26,-198.01 520.22,-197.31"/>
</g>
<!-- Node21 -->
<g id="node21" class="node">
<title>Node21</title>
<g id="a_node21"><a xlink:href="debug_8hpp_source.html" target="_top" xlink:title=" ">
<polygon fill="white" stroke="black" points="1065,-224.5 1065,-243.5 1136,-243.5 1136,-224.5 1065,-224.5"/>
<text text-anchor="middle" x="1100.5" y="-231.5" font-family="'Consolas',monospace" font-size="10.00">debug.hpp</text>
</a>
</g>
</g>
<!-- Node1&#45;&gt;Node21 -->
<g id="edge30" class="edge">
<title>Node1&#45;&gt;Node21</title>
<path fill="none" stroke="midnightblue" d="M856.02,-280.68C909.87,-270.62 1000.05,-253.77 1054.53,-243.59"/>
<polygon fill="midnightblue" stroke="midnightblue" points="1055.42,-246.98 1064.6,-241.71 1054.13,-240.1 1055.42,-246.98"/>
</g>
<!-- Node22 -->
<g id="node22" class="node">
<title>Node22</title>
<g id="a_node22"><a xlink:href="message_8hpp.html" target="_top" xlink:title=" ">
<polygon fill="white" stroke="black" points="1059,-168.5 1059,-187.5 1142,-187.5 1142,-168.5 1059,-168.5"/>
<text text-anchor="middle" x="1100.5" y="-175.5" font-family="'Consolas',monospace" font-size="10.00">message.hpp</text>
</a>
</g>
</g>
<!-- Node1&#45;&gt;Node22 -->
<g id="edge55" class="edge">
<title>Node1&#45;&gt;Node22</title>
<path fill="none" stroke="midnightblue" d="M834.18,-280.37C885.25,-260.93 1009.4,-213.67 1068.37,-191.23"/>
<polygon fill="midnightblue" stroke="midnightblue" points="1069.83,-194.42 1077.93,-187.59 1067.34,-187.88 1069.83,-194.42"/>
</g>
<!-- Node24 -->
<g id="node24" class="node">
<title>Node24</title>
<g id="a_node24"><a xlink:href="font_8hpp.html" target="_top" xlink:title=" ">
<polygon fill="white" stroke="black" points="277,-224.5 277,-243.5 342,-243.5 342,-224.5 277,-224.5"/>
<text text-anchor="middle" x="309.5" y="-231.5" font-family="'Consolas',monospace" font-size="10.00">font.hpp</text>
</a>
</g>
</g>
<!-- Node1&#45;&gt;Node24 -->
<g id="edge34" class="edge">
<title>Node1&#45;&gt;Node24</title>
<path fill="none" stroke="midnightblue" d="M766.88,-285.49C686.19,-278.92 510.72,-263.64 363.5,-244 359.8,-243.51 355.96,-242.95 352.11,-242.37"/>
<polygon fill="midnightblue" stroke="midnightblue" points="352.43,-238.87 342,-240.77 351.33,-245.79 352.43,-238.87"/>
</g>
<!-- Node25 -->
<g id="node25" class="node">
<title>Node25</title>
<g id="a_node25"><a xlink:href="framebuffer_8hpp.html" target="_top" xlink:title="Contains FrameBuffer class.">
<polygon fill="white" stroke="black" points="487,-112.5 487,-131.5 588,-131.5 588,-112.5 487,-112.5"/>
<text text-anchor="middle" x="537.5" y="-119.5" font-family="'Consolas',monospace" font-size="10.00">framebuffer.hpp</text>
</a>
</g>
</g>
<!-- Node1&#45;&gt;Node25 -->
<g id="edge38" class="edge">
<title>Node1&#45;&gt;Node25</title>
<path fill="none" stroke="midnightblue" d="M766.62,-288.69C642.4,-287.37 301.04,-280.43 267.5,-244 257.55,-233.2 242.14,-198.58 268.5,-168 281.95,-152.39 401.47,-137.21 476.6,-129.08"/>
<polygon fill="midnightblue" stroke="midnightblue" points="477.32,-132.53 486.89,-127.98 476.58,-125.57 477.32,-132.53"/>
</g>
<!-- Node26 -->
<g id="node26" class="node">
<title>Node26</title>
<g id="a_node26"><a xlink:href="job_8hpp.html" target="_top" xlink:title=" ">
<polygon fill="white" stroke="black" points="81,-168.5 81,-187.5 140,-187.5 140,-168.5 81,-168.5"/>
<text text-anchor="middle" x="110.5" y="-175.5" font-family="'Consolas',monospace" font-size="10.00">job.hpp</text>
</a>
</g>
</g>
<!-- Node1&#45;&gt;Node26 -->
<g id="edge44" class="edge">
<title>Node1&#45;&gt;Node26</title>
<path fill="none" stroke="midnightblue" d="M766.95,-288.97C623.36,-288.49 179.07,-283.77 129.5,-244 115.91,-233.09 111.69,-213.03 110.54,-198.06"/>
<polygon fill="midnightblue" stroke="midnightblue" points="114.03,-197.72 110.16,-187.85 107.03,-197.98 114.03,-197.72"/>
</g>
<!-- Node27 -->
<g id="node27" class="node">
<title>Node27</title>
<g id="a_node27"><a xlink:href="main_8hpp_source.html" target="_top" xlink:title=" ">
<polygon fill="white" stroke="black" points="1271,-224.5 1271,-243.5 1336,-243.5 1336,-224.5 1271,-224.5"/>
<text text-anchor="middle" x="1303.5" y="-231.5" font-family="'Consolas',monospace" font-size="10.00">main.hpp</text>
</a>
</g>
</g>
<!-- Node1&#45;&gt;Node27 -->
<g id="edge46" class="edge">
<title>Node1&#45;&gt;Node27</title>
<path fill="none" stroke="midnightblue" d="M856.15,-285.07C934.77,-277.99 1103,-262.13 1244.5,-244 1249.7,-243.33 1255.15,-242.58 1260.54,-241.8"/>
<polygon fill="midnightblue" stroke="midnightblue" points="1261.39,-245.21 1270.77,-240.28 1260.37,-238.29 1261.39,-245.21"/>
</g>
<!-- Node28 -->
<g id="node28" class="node">
<title>Node28</title>
<g id="a_node28"><a xlink:href="other_8hpp.html" target="_top" xlink:title=" ">
<polygon fill="white" stroke="black" points="1160,-168.5 1160,-187.5 1231,-187.5 1231,-168.5 1160,-168.5"/>
<text text-anchor="middle" x="1195.5" y="-175.5" font-family="'Consolas',monospace" font-size="10.00">other.hpp</text>
</a>
</g>
</g>
<!-- Node1&#45;&gt;Node28 -->
<g id="edge56" class="edge">
<title>Node1&#45;&gt;Node28</title>
<path fill="none" stroke="midnightblue" d="M856.12,-287.17C935.44,-283.23 1097.2,-271.95 1145.5,-244 1164.3,-233.12 1178.45,-212.12 1186.82,-196.93"/>
<polygon fill="midnightblue" stroke="midnightblue" points="1189.98,-198.44 1191.47,-187.95 1183.76,-195.22 1189.98,-198.44"/>
</g>
<!-- Node29 -->
<g id="node29" class="node">
<title>Node29</title>
<g id="a_node29"><a xlink:href="window_8hpp.html" target="_top" xlink:title="Functions related to the main window.">
<polygon fill="white" stroke="black" points="1288,-168.5 1288,-187.5 1365,-187.5 1365,-168.5 1288,-168.5"/>
<text text-anchor="middle" x="1326.5" y="-175.5" font-family="'Consolas',monospace" font-size="10.00">window.hpp</text>
</a>
</g>
</g>
<!-- Node1&#45;&gt;Node29 -->
<g id="edge71" class="edge">
<title>Node1&#45;&gt;Node29</title>
<path fill="none" stroke="midnightblue" d="M856.04,-287.22C924.47,-283.64 1059.14,-273.22 1169.5,-244 1217.62,-231.26 1270.52,-207.08 1300.98,-192.07"/>
<polygon fill="midnightblue" stroke="midnightblue" points="1302.67,-195.14 1310.05,-187.54 1299.54,-188.88 1302.67,-195.14"/>
</g>
<!-- Node30 -->
<g id="node30" class="node">
<title>Node30</title>
<g id="a_node30"><a xlink:href="matrix_8hpp.html" target="_top" xlink:title="Functions related to the global ModelView matrix.">
<polygon fill="white" stroke="black" points="1498,-224.5 1498,-243.5 1575,-243.5 1575,-224.5 1498,-224.5"/>
<text text-anchor="middle" x="1536.5" y="-231.5" font-family="'Consolas',monospace" font-size="10.00">matrix.hpp</text>
</a>
</g>
</g>
<!-- Node1&#45;&gt;Node30 -->
<g id="edge54" class="edge">
<title>Node1&#45;&gt;Node30</title>
<path fill="none" stroke="midnightblue" d="M856.07,-287.58C964.04,-283.79 1248.06,-271.8 1483.5,-244 1484.8,-243.85 1486.12,-243.68 1487.45,-243.51"/>
<polygon fill="midnightblue" stroke="midnightblue" points="1488.37,-246.91 1497.78,-242.04 1487.38,-239.98 1488.37,-246.91"/>
</g>
<!-- Node31 -->
<g id="node31" class="node">
<title>Node31</title>
<g id="a_node31"><a xlink:href="screen_8hpp.html" target="_top" xlink:title=" ">
<polygon fill="white" stroke="black" points="1364,-112.5 1364,-131.5 1441,-131.5 1441,-112.5 1364,-112.5"/>
<text text-anchor="middle" x="1402.5" y="-119.5" font-family="'Consolas',monospace" font-size="10.00">screen.hpp</text>
</a>
</g>
</g>
<!-- Node1&#45;&gt;Node31 -->
<g id="edge57" class="edge">
<title>Node1&#45;&gt;Node31</title>
<path fill="none" stroke="midnightblue" d="M856.22,-288.87C968.22,-287.98 1258.02,-281.95 1345.5,-244 1379.56,-229.22 1392.42,-221.93 1407.5,-188 1413.96,-173.45 1411.82,-155.28 1408.57,-141.84"/>
<polygon fill="midnightblue" stroke="midnightblue" points="1411.84,-140.53 1405.75,-131.86 1405.1,-142.44 1411.84,-140.53"/>
</g>
<!-- Node32 -->
<g id="node32" class="node">
<title>Node32</title>
<g id="a_node32"><a xlink:href="shapes_8hpp.html" target="_top" xlink:title="Functions for drawing shapes.">
<polygon fill="white" stroke="black" points="410,-224.5 410,-243.5 487,-243.5 487,-224.5 410,-224.5"/>
<text text-anchor="middle" x="448.5" y="-231.5" font-family="'Consolas',monospace" font-size="10.00">shapes.hpp</text>
</a>
</g>
</g>
<!-- Node1&#45;&gt;Node32 -->
<g id="edge59" class="edge">
<title>Node1&#45;&gt;Node32</title>
<path fill="none" stroke="midnightblue" d="M766.94,-282.8C706.84,-274.38 596.5,-258.68 502.5,-244 500.79,-243.73 499.05,-243.46 497.29,-243.18"/>
<polygon fill="midnightblue" stroke="midnightblue" points="497.56,-239.68 487.13,-241.54 496.44,-246.59 497.56,-239.68"/>
</g>
<!-- Node33 -->
<g id="node33" class="node">
<title>Node33</title>
<g id="a_node33"><a xlink:href="sound_8hpp_source.html" target="_top" xlink:title=" ">
<polygon fill="white" stroke="black" points="970,-168.5 970,-187.5 1041,-187.5 1041,-168.5 970,-168.5"/>
<text text-anchor="middle" x="1005.5" y="-175.5" font-family="'Consolas',monospace" font-size="10.00">sound.hpp</text>
</a>
</g>
</g>
<!-- Node1&#45;&gt;Node33 -->
<g id="edge62" class="edge">
<title>Node1&#45;&gt;Node33</title>
<path fill="none" stroke="midnightblue" d="M827.81,-280.36C844.61,-271.42 871.51,-256.96 894.5,-244 925.14,-226.73 960.09,-206.11 982.46,-192.79"/>
<polygon fill="midnightblue" stroke="midnightblue" points="984.42,-195.69 991.22,-187.57 980.84,-189.68 984.42,-195.69"/>
</g>
<!-- Node34 -->
<g id="node34" class="node">
<title>Node34</title>
<g id="a_node34"><a xlink:href="text_8hpp.html" target="_top" xlink:title=" ">
<polygon fill="white" stroke="black" points="887,-168.5 887,-187.5 952,-187.5 952,-168.5 887,-168.5"/>
<text text-anchor="middle" x="919.5" y="-175.5" font-family="'Consolas',monospace" font-size="10.00">text.hpp</text>
</a>
</g>
</g>
<!-- Node1&#45;&gt;Node34 -->
<g id="edge65" class="edge">
<title>Node1&#45;&gt;Node34</title>
<path fill="none" stroke="midnightblue" d="M825.54,-280.44C838.56,-272.11 858.05,-258.59 872.5,-244 886.99,-229.37 900.42,-209.95 909.18,-196.16"/>
<polygon fill="midnightblue" stroke="midnightblue" points="912.17,-197.98 914.46,-187.64 906.22,-194.3 912.17,-197.98"/>
</g>
<!-- Node35 -->
<g id="node35" class="node">
<title>Node35</title>
<g id="a_node35"><a xlink:href="time_8hpp.html" target="_top" xlink:title="Timing functions.">
<polygon fill="white" stroke="black" points="1593,-224.5 1593,-243.5 1658,-243.5 1658,-224.5 1593,-224.5"/>
<text text-anchor="middle" x="1625.5" y="-231.5" font-family="'Consolas',monospace" font-size="10.00">time.hpp</text>
</a>
</g>
</g>
<!-- Node1&#45;&gt;Node35 -->
<g id="edge70" class="edge">
<title>Node1&#45;&gt;Node35</title>
<path fill="none" stroke="midnightblue" d="M856.18,-288.86C973.79,-287.96 1301.7,-282.08 1582.93,-244.01"/>
<polygon fill="midnightblue" stroke="midnightblue" points="1583.48,-247.47 1592.91,-242.64 1582.53,-240.53 1583.48,-247.47"/>
</g>
<!-- Node36 -->
<g id="node36" class="node">
<title>Node36</title>
<g id="a_node36"><a xlink:href="work_8hpp.html" target="_top" xlink:title=" ">
<polygon fill="white" stroke="black" points="139,-224.5 139,-243.5 204,-243.5 204,-224.5 139,-224.5"/>
<text text-anchor="middle" x="171.5" y="-231.5" font-family="'Consolas',monospace" font-size="10.00">work.hpp</text>
</a>
</g>
</g>
<!-- Node1&#45;&gt;Node36 -->
<g id="edge72" class="edge">
<title>Node1&#45;&gt;Node36</title>
<path fill="none" stroke="midnightblue" d="M766.93,-286.68C669.44,-281.35 430.01,-266.91 230.5,-244 225.29,-243.4 219.84,-242.69 214.44,-241.93"/>
<polygon fill="midnightblue" stroke="midnightblue" points="214.61,-238.42 204.21,-240.43 213.6,-245.34 214.61,-238.42"/>
</g>
<!-- Node3 -->
<g id="node3" class="node">
<title>Node3</title>
<g id="a_node3"><a xlink:href="http://en.cppreference.com/w/cpp/header/memory.html" xlink:title=" ">
<polygon fill="white" stroke="black" points="262,-56.5 262,-75.5 315,-75.5 315,-56.5 262,-56.5"/>
<text text-anchor="middle" x="288.5" y="-63.5" font-family="'Consolas',monospace" font-size="10.00">memory</text>
</a>
</g>
</g>
<!-- Node2&#45;&gt;Node3 -->
<g id="edge2" class="edge">
<title>Node2&#45;&gt;Node3</title>
<path fill="none" stroke="midnightblue" d="M770.69,-169.62C767.93,-169.04 765.17,-168.48 762.5,-168 637.31,-145.31 600.59,-167.8 478.5,-132 458.66,-126.18 455.78,-119.47 436.5,-112 399.15,-97.52 355.09,-84.64 324.81,-76.41"/>
<polygon fill="midnightblue" stroke="midnightblue" points="325.67,-73.02 315.1,-73.8 323.85,-79.78 325.67,-73.02"/>
</g>
<!-- Node4 -->
<g id="node4" class="node">
<title>Node4</title>
<g id="a_node4"><a xlink:href="http://en.cppreference.com/w/cpp/header/string.html" xlink:title=" ">
<polygon fill="white" stroke="black" points="1014,-112.5 1014,-131.5 1067,-131.5 1067,-112.5 1014,-112.5"/>
<text text-anchor="middle" x="1040.5" y="-119.5" font-family="'Consolas',monospace" font-size="10.00">string</text>
</a>
</g>
</g>
<!-- Node2&#45;&gt;Node4 -->
<g id="edge3" class="edge">
<title>Node2&#45;&gt;Node4</title>
<path fill="none" stroke="midnightblue" d="M830.11,-170.85C868.16,-162.86 936.5,-148.27 1003.85,-132.34"/>
<polygon fill="midnightblue" stroke="midnightblue" points="1004.85,-135.7 1013.77,-129.98 1003.23,-128.89 1004.85,-135.7"/>
</g>
<!-- Node6&#45;&gt;Node7 -->
<g id="edge6" class="edge">
<title>Node6&#45;&gt;Node7</title>
<path fill="none" stroke="midnightblue" d="M698.3,-224.08C701.41,-216.77 705.92,-206.18 709.79,-197.1"/>
<polygon fill="midnightblue" stroke="midnightblue" points="713.07,-198.32 713.77,-187.75 706.63,-195.58 713.07,-198.32"/>
</g>
<!-- Node13 -->
<g id="node13" class="node">
<title>Node13</title>
<g id="a_node13"><a xlink:href="http://en.cppreference.com/w/cpp/header/chrono.html" xlink:title=" ">
<polygon fill="white" stroke="black" points="611,-168.5 611,-187.5 664,-187.5 664,-168.5 611,-168.5"/>
<text text-anchor="middle" x="637.5" y="-175.5" font-family="'Consolas',monospace" font-size="10.00">chrono</text>
</a>
</g>
</g>
<!-- Node6&#45;&gt;Node13 -->
<g id="edge13" class="edge">
<title>Node6&#45;&gt;Node13</title>
<path fill="none" stroke="midnightblue" d="M685.34,-224.32C677,-216.42 664.47,-204.55 654.32,-194.94"/>
<polygon fill="midnightblue" stroke="midnightblue" points="656.49,-192.17 646.82,-187.83 651.68,-197.25 656.49,-192.17"/>
</g>
<!-- Node7&#45;&gt;Node3 -->
<g id="edge11" class="edge">
<title>Node7&#45;&gt;Node3</title>
<path fill="none" stroke="midnightblue" d="M681.99,-169.59C679.12,-169.04 676.26,-168.5 673.5,-168 572.12,-149.67 543.06,-162.02 444.5,-132 424.34,-125.86 420.85,-120.35 401.5,-112 374.48,-100.35 343.38,-88.04 320.66,-79.25"/>
<polygon fill="midnightblue" stroke="midnightblue" points="321.76,-75.92 311.17,-75.59 319.24,-82.45 321.76,-75.92"/>
</g>
<!-- Node8 -->
<g id="node8" class="node">
<title>Node8</title>
<g id="a_node8"><a xlink:href="Vec2_8hpp.html" target="_top" xlink:title=" ">
<polygon fill="white" stroke="black" points="698,-56.5 698,-75.5 763,-75.5 763,-56.5 698,-56.5"/>
<text text-anchor="middle" x="730.5" y="-63.5" font-family="'Consolas',monospace" font-size="10.00">Vec2.hpp</text>
</a>
</g>
</g>
<!-- Node7&#45;&gt;Node8 -->
<g id="edge7" class="edge">
<title>Node7&#45;&gt;Node8</title>
<path fill="none" stroke="midnightblue" d="M724.65,-168.36C731.27,-159.76 740.66,-145.87 744.5,-132 748.83,-116.38 744.19,-98.33 739.13,-85.22"/>
<polygon fill="midnightblue" stroke="midnightblue" points="742.29,-83.72 735.13,-75.91 735.86,-86.48 742.29,-83.72"/>
</g>
<!-- Node11 -->
<g id="node11" class="node">
<title>Node11</title>
<g id="a_node11"><a xlink:href="http://en.cppreference.com/w/cpp/header/functional.html" xlink:title=" ">
<polygon fill="white" stroke="black" points="554,-0.5 554,-19.5 631,-19.5 631,-0.5 554,-0.5"/>
<text text-anchor="middle" x="592.5" y="-7.5" font-family="'Consolas',monospace" font-size="10.00">functional</text>
</a>
</g>
</g>
<!-- Node7&#45;&gt;Node11 -->
<g id="edge10" class="edge">
<title>Node7&#45;&gt;Node11</title>
<path fill="none" stroke="midnightblue" d="M710.78,-168.08C690.76,-141.49 631.31,-62.54 605.12,-27.76"/>
<polygon fill="midnightblue" stroke="midnightblue" points="607.76,-25.45 598.95,-19.57 602.17,-29.66 607.76,-25.45"/>
</g>
<!-- Node12 -->
<g id="node12" class="node">
<title>Node12</title>
<g id="a_node12"><a xlink:href="http://en.cppreference.com/w/cpp/header/vector.html" xlink:title=" ">
<polygon fill="white" stroke="black" points="943,-112.5 943,-131.5 996,-131.5 996,-112.5 943,-112.5"/>
<text text-anchor="middle" x="969.5" y="-119.5" font-family="'Consolas',monospace" font-size="10.00">vector</text>
</a>
</g>
</g>
<!-- Node7&#45;&gt;Node12 -->
<g id="edge12" class="edge">
<title>Node7&#45;&gt;Node12</title>
<path fill="none" stroke="midnightblue" d="M753.07,-169.38C800.72,-159.17 884.85,-141.14 932.98,-130.83"/>
<polygon fill="midnightblue" stroke="midnightblue" points="933.92,-134.2 942.96,-128.69 932.45,-127.36 933.92,-134.2"/>
</g>
<!-- Node9 -->
<g id="node9" class="node">
<title>Node9</title>
<g id="a_node9"><a xlink:title=" ">
<polygon fill="white" stroke="#bfbfbf" points="723,-0.5 723,-19.5 842,-19.5 842,-0.5 723,-0.5"/>
<text text-anchor="middle" x="782.5" y="-7.5" font-family="'Consolas',monospace" font-size="10.00">boost/version.hpp</text>
</a>
</g>
</g>
<!-- Node8&#45;&gt;Node9 -->
<g id="edge8" class="edge">
<title>Node8&#45;&gt;Node9</title>
<path fill="none" stroke="midnightblue" d="M739.09,-56.08C746.66,-48.22 757.88,-36.57 767.01,-27.08"/>
<polygon fill="midnightblue" stroke="midnightblue" points="769.66,-29.38 774.07,-19.75 764.62,-24.53 769.66,-29.38"/>
</g>
<!-- Node10 -->
<g id="node10" class="node">
<title>Node10</title>
<g id="a_node10"><a xlink:href="http://en.cppreference.com/w/cpp/header/iosfwd.html" xlink:title=" ">
<polygon fill="white" stroke="black" points="652,-0.5 652,-19.5 705,-19.5 705,-0.5 652,-0.5"/>
<text text-anchor="middle" x="678.5" y="-7.5" font-family="'Consolas',monospace" font-size="10.00">iosfwd</text>
</a>
</g>
</g>
<!-- Node8&#45;&gt;Node10 -->
<g id="edge9" class="edge">
<title>Node8&#45;&gt;Node10</title>
<path fill="none" stroke="midnightblue" d="M721.91,-56.08C714.34,-48.22 703.12,-36.57 693.99,-27.08"/>
<polygon fill="midnightblue" stroke="midnightblue" points="696.38,-24.53 686.93,-19.75 691.34,-29.38 696.38,-24.53"/>
</g>
<!-- Node14&#45;&gt;Node8 -->
<g id="edge15" class="edge">
<title>Node14&#45;&gt;Node8</title>
<path fill="none" stroke="midnightblue" d="M823.67,-112.32C805.78,-103.62 778.02,-90.12 757.45,-80.11"/>
<polygon fill="midnightblue" stroke="midnightblue" points="758.81,-76.88 748.29,-75.65 755.75,-83.18 758.81,-76.88"/>
</g>
<!-- Node15&#45;&gt;Node3 -->
<g id="edge17" class="edge">
<title>Node15&#45;&gt;Node3</title>
<path fill="none" stroke="midnightblue" d="M77.01,-112.68C124.64,-102.39 205.11,-85.01 251.86,-74.91"/>
<polygon fill="midnightblue" stroke="midnightblue" points="252.82,-78.29 261.85,-72.76 251.34,-71.45 252.82,-78.29"/>
</g>
<!-- Node16&#45;&gt;Node3 -->
<g id="edge21" class="edge">
<title>Node16&#45;&gt;Node3</title>
<path fill="none" stroke="midnightblue" d="M325.23,-112.08C318.96,-104.38 309.71,-93.03 302.07,-83.65"/>
<polygon fill="midnightblue" stroke="midnightblue" points="304.66,-81.29 295.63,-75.75 299.23,-85.71 304.66,-81.29"/>
</g>
<!-- Node17 -->
<g id="node17" class="node">
<title>Node17</title>
<g id="a_node17"><a xlink:href="Finally_8hpp.html" target="_top" xlink:title=" ">
<polygon fill="white" stroke="black" points="519,-56.5 519,-75.5 602,-75.5 602,-56.5 519,-56.5"/>
<text text-anchor="middle" x="560.5" y="-63.5" font-family="'Consolas',monospace" font-size="10.00">Finally.hpp</text>
</a>
</g>
</g>
<!-- Node16&#45;&gt;Node17 -->
<g id="edge19" class="edge">
<title>Node16&#45;&gt;Node17</title>
<path fill="none" stroke="midnightblue" d="M368.63,-112.44C408.15,-103.08 471.6,-88.06 514.61,-77.87"/>
<polygon fill="midnightblue" stroke="midnightblue" points="515.62,-81.23 524.54,-75.52 514,-74.42 515.62,-81.23"/>
</g>
<!-- Node17&#45;&gt;Node11 -->
<g id="edge20" class="edge">
<title>Node17&#45;&gt;Node11</title>
<path fill="none" stroke="midnightblue" d="M565.78,-56.08C570.21,-48.61 576.66,-37.72 582.12,-28.52"/>
<polygon fill="midnightblue" stroke="midnightblue" points="585.23,-30.14 587.31,-19.75 579.21,-26.57 585.23,-30.14"/>
</g>
<!-- Node19&#45;&gt;Node3 -->
<g id="edge28" class="edge">
<title>Node19&#45;&gt;Node3</title>
<path fill="none" stroke="midnightblue" d="M557.94,-224.47C522.17,-211.62 451.91,-186.81 391.5,-168 335.08,-150.43 299.18,-179.11 263.5,-132 252.5,-117.47 263.11,-97.52 273.71,-83.57"/>
<polygon fill="midnightblue" stroke="midnightblue" points="276.48,-85.71 280.11,-75.76 271.06,-81.27 276.48,-85.71"/>
</g>
<!-- Node19&#45;&gt;Node4 -->
<g id="edge29" class="edge">
<title>Node19&#45;&gt;Node4</title>
<path fill="none" stroke="midnightblue" d="M581.49,-224.16C581.99,-209.84 585.26,-181.76 602.5,-168 670.43,-113.77 900.87,-145 1003.71,-131.85"/>
<polygon fill="midnightblue" stroke="midnightblue" points="1004.47,-135.27 1013.84,-130.33 1003.44,-128.35 1004.47,-135.27"/>
</g>
<!-- Node19&#45;&gt;Node20 -->
<g id="edge24" class="edge">
<title>Node19&#45;&gt;Node20</title>
<path fill="none" stroke="midnightblue" d="M570.9,-224.32C561.04,-216.26 546.15,-204.08 534.28,-194.37"/>
<polygon fill="midnightblue" stroke="midnightblue" points="536.25,-191.46 526.3,-187.83 531.82,-196.88 536.25,-191.46"/>
</g>
<!-- Node20&#45;&gt;Node8 -->
<g id="edge27" class="edge">
<title>Node20&#45;&gt;Node8</title>
<path fill="none" stroke="midnightblue" d="M554.29,-169.89C606.75,-159.98 695.11,-142.07 706.5,-132 719.85,-120.19 725.79,-100.26 728.42,-85.58"/>
<polygon fill="midnightblue" stroke="midnightblue" points="731.9,-85.99 729.86,-75.6 724.97,-85 731.9,-85.99"/>
</g>
<!-- Node20&#45;&gt;Node14 -->
<g id="edge25" class="edge">
<title>Node20&#45;&gt;Node14</title>
<path fill="none" stroke="midnightblue" d="M554.28,-170.39C559.07,-169.58 563.9,-168.77 568.5,-168 644.1,-155.35 731.52,-140.99 786.65,-131.96"/>
<polygon fill="midnightblue" stroke="midnightblue" points="787.26,-135.41 796.56,-130.34 786.13,-128.5 787.26,-135.41"/>
</g>
<!-- Node20&#45;&gt;Node16 -->
<g id="edge26" class="edge">
<title>Node20&#45;&gt;Node16</title>
<path fill="none" stroke="midnightblue" d="M486.5,-168.44C455.32,-159.24 405.57,-144.56 371.09,-134.39"/>
<polygon fill="midnightblue" stroke="midnightblue" points="371.94,-130.99 361.36,-131.52 369.96,-137.7 371.94,-130.99"/>
</g>
<!-- Node21&#45;&gt;Node22 -->
<g id="edge31" class="edge">
<title>Node21&#45;&gt;Node22</title>
<path fill="none" stroke="midnightblue" d="M1100.5,-224.08C1100.5,-217.01 1100.5,-206.86 1100.5,-197.99"/>
<polygon fill="midnightblue" stroke="midnightblue" points="1104,-197.75 1100.5,-187.75 1097,-197.75 1104,-197.75"/>
</g>
<!-- Node23 -->
<g id="node23" class="node">
<title>Node23</title>
<g id="a_node23"><a xlink:href="http://en.cppreference.com/w/cpp/header/sstream.html" xlink:title=" ">
<polygon fill="white" stroke="black" points="1198,-112.5 1198,-131.5 1257,-131.5 1257,-112.5 1198,-112.5"/>
<text text-anchor="middle" x="1227.5" y="-119.5" font-family="'Consolas',monospace" font-size="10.00">sstream</text>
</a>
</g>
</g>
<!-- Node21&#45;&gt;Node23 -->
<g id="edge33" class="edge">
<title>Node21&#45;&gt;Node23</title>
<path fill="none" stroke="midnightblue" d="M1136.21,-232.57C1169.28,-230.04 1216.81,-220.49 1240.5,-188 1250.43,-174.38 1244.74,-155.07 1238.06,-141.04"/>
<polygon fill="midnightblue" stroke="midnightblue" points="1241,-139.11 1233.22,-131.91 1234.81,-142.39 1241,-139.11"/>
</g>
<!-- Node22&#45;&gt;Node4 -->
<g id="edge32" class="edge">
<title>Node22&#45;&gt;Node4</title>
<path fill="none" stroke="midnightblue" d="M1090.86,-168.32C1081.99,-160.34 1068.63,-148.31 1057.89,-138.65"/>
<polygon fill="midnightblue" stroke="midnightblue" points="1060.09,-135.92 1050.32,-131.83 1055.41,-141.13 1060.09,-135.92"/>
</g>
<!-- Node24&#45;&gt;Node3 -->
<g id="edge37" class="edge">
<title>Node24&#45;&gt;Node3</title>
<path fill="none" stroke="midnightblue" d="M298.93,-224.38C280.42,-208.48 242.92,-172.43 230.5,-132 227.89,-123.5 226.59,-119.98 230.5,-112 237.02,-98.68 249.6,-88.18 261.37,-80.68"/>
<polygon fill="midnightblue" stroke="midnightblue" points="263.27,-83.62 270.11,-75.53 259.72,-77.59 263.27,-83.62"/>
</g>
<!-- Node24&#45;&gt;Node5 -->
<g id="edge35" class="edge">
<title>Node24&#45;&gt;Node5</title>
<path fill="none" stroke="midnightblue" d="M315.61,-224.08C320.78,-216.53 328.35,-205.49 334.69,-196.23"/>
<polygon fill="midnightblue" stroke="midnightblue" points="337.74,-197.98 340.5,-187.75 331.96,-194.02 337.74,-197.98"/>
</g>
<!-- Node24&#45;&gt;Node8 -->
<g id="edge36" class="edge">
<title>Node24&#45;&gt;Node8</title>
<path fill="none" stroke="midnightblue" d="M304.87,-224.18C298.33,-210.37 288.66,-183.64 302.5,-168 346.28,-118.55 535.09,-153.6 597.5,-132 613.71,-126.39 615.32,-119.98 630.5,-112 653.38,-99.97 680.12,-88.05 700.19,-79.5"/>
<polygon fill="midnightblue" stroke="midnightblue" points="701.61,-82.7 709.46,-75.58 698.89,-76.25 701.61,-82.7"/>
</g>
<!-- Node25&#45;&gt;Node3 -->
<g id="edge42" class="edge">
<title>Node25&#45;&gt;Node3</title>
<path fill="none" stroke="midnightblue" d="M498.05,-112.44C450.49,-102.13 371.23,-84.94 325.03,-74.92"/>
<polygon fill="midnightblue" stroke="midnightblue" points="325.65,-71.48 315.14,-72.78 324.17,-78.32 325.65,-71.48"/>
</g>
<!-- Node25&#45;&gt;Node8 -->
<g id="edge40" class="edge">
<title>Node25&#45;&gt;Node8</title>
<path fill="none" stroke="midnightblue" d="M568.08,-112.44C601.11,-103.2 653.89,-88.44 690.27,-78.26"/>
<polygon fill="midnightblue" stroke="midnightblue" points="691.37,-81.58 700.06,-75.52 689.49,-74.84 691.37,-81.58"/>
</g>
<!-- Node25&#45;&gt;Node17 -->
<g id="edge39" class="edge">
<title>Node25&#45;&gt;Node17</title>
<path fill="none" stroke="midnightblue" d="M541.3,-112.08C544.41,-104.77 548.92,-94.18 552.79,-85.1"/>
<polygon fill="midnightblue" stroke="midnightblue" points="556.07,-86.32 556.77,-75.75 549.63,-83.58 556.07,-86.32"/>
</g>
<!-- Node25&#45;&gt;Node18 -->
<g id="edge41" class="edge">
<title>Node25&#45;&gt;Node18</title>
<path fill="none" stroke="midnightblue" d="M588.21,-116.49C703.15,-106.26 982.31,-81.43 1095.55,-71.35"/>
<polygon fill="midnightblue" stroke="midnightblue" points="1096.01,-74.83 1105.66,-70.45 1095.39,-67.85 1096.01,-74.83"/>
</g>
<!-- Node26&#45;&gt;Node3 -->
<g id="edge45" class="edge">
<title>Node26&#45;&gt;Node3</title>
<path fill="none" stroke="midnightblue" d="M114.25,-168.07C120.54,-154.11 134.54,-127.17 154.5,-112 183.21,-90.18 223.12,-78.58 251.9,-72.66"/>
<polygon fill="midnightblue" stroke="midnightblue" points="252.8,-76.05 261.96,-70.73 251.48,-69.18 252.8,-76.05"/>
</g>
<!-- Node27&#45;&gt;Node17 -->
<g id="edge47" class="edge">
<title>Node27&#45;&gt;Node17</title>
<path fill="none" stroke="midnightblue" d="M1326.69,-224.34C1352.68,-213.22 1389.34,-192.42 1374.5,-168 1346.41,-121.8 1318.61,-126.44 1266.5,-112 1142.69,-77.69 817.69,-84.47 689.5,-76 664.03,-74.32 635.75,-72.35 612.17,-70.69"/>
<polygon fill="midnightblue" stroke="midnightblue" points="612.26,-67.19 602.03,-69.98 611.76,-74.17 612.26,-67.19"/>
</g>
<!-- Node27&#45;&gt;Node28 -->
<g id="edge48" class="edge">
<title>Node27&#45;&gt;Node28</title>
<path fill="none" stroke="midnightblue" d="M1286.15,-224.32C1268.83,-215.66 1241.98,-202.24 1222,-192.25"/>
<polygon fill="midnightblue" stroke="midnightblue" points="1223.32,-189 1212.81,-187.65 1220.19,-195.26 1223.32,-189"/>
</g>
<!-- Node27&#45;&gt;Node29 -->
<g id="edge52" class="edge">
<title>Node27&#45;&gt;Node29</title>
<path fill="none" stroke="midnightblue" d="M1307.3,-224.08C1310.41,-216.77 1314.92,-206.18 1318.79,-197.1"/>
<polygon fill="midnightblue" stroke="midnightblue" points="1322.07,-198.32 1322.77,-187.75 1315.63,-195.58 1322.07,-198.32"/>
</g>
<!-- Node28&#45;&gt;Node4 -->
<g id="edge50" class="edge">
<title>Node28&#45;&gt;Node4</title>
<path fill="none" stroke="midnightblue" d="M1170.94,-168.44C1144.98,-159.4 1103.83,-145.06 1074.7,-134.92"/>
<polygon fill="midnightblue" stroke="midnightblue" points="1075.54,-131.5 1064.95,-131.52 1073.24,-138.11 1075.54,-131.5"/>
</g>
<!-- Node28&#45;&gt;Node12 -->
<g id="edge51" class="edge">
<title>Node28&#45;&gt;Node12</title>
<path fill="none" stroke="midnightblue" d="M1159.75,-168.67C1123.55,-160.21 1065.7,-146.6 1006.18,-132.14"/>
<polygon fill="midnightblue" stroke="midnightblue" points="1006.77,-128.68 996.23,-129.72 1005.12,-135.49 1006.77,-128.68"/>
</g>
<!-- Node28&#45;&gt;Node23 -->
<g id="edge49" class="edge">
<title>Node28&#45;&gt;Node23</title>
<path fill="none" stroke="midnightblue" d="M1200.78,-168.08C1205.21,-160.61 1211.66,-149.72 1217.12,-140.52"/>
<polygon fill="midnightblue" stroke="midnightblue" points="1220.23,-142.14 1222.31,-131.75 1214.21,-138.57 1220.23,-142.14"/>
</g>
<!-- Node29&#45;&gt;Node4 -->
<g id="edge53" class="edge">
<title>Node29&#45;&gt;Node4</title>
<path fill="none" stroke="midnightblue" d="M1287.93,-169.72C1232.64,-159.28 1131.55,-140.19 1077.27,-129.94"/>
<polygon fill="midnightblue" stroke="midnightblue" points="1077.86,-126.49 1067.39,-128.08 1076.56,-133.37 1077.86,-126.49"/>
</g>
<!-- Node31&#45;&gt;Node8 -->
<g id="edge58" class="edge">
<title>Node31&#45;&gt;Node8</title>
<path fill="none" stroke="midnightblue" d="M1363.78,-113.98C1358.98,-113.25 1354.13,-112.56 1349.5,-112 1133.83,-85.91 873.93,-73 773.24,-68.7"/>
<polygon fill="midnightblue" stroke="midnightblue" points="773.29,-65.2 763.16,-68.27 773,-72.19 773.29,-65.2"/>
</g>
<!-- Node32&#45;&gt;Node5 -->
<g id="edge60" class="edge">
<title>Node32&#45;&gt;Node5</title>
<path fill="none" stroke="midnightblue" d="M432.11,-224.32C415.83,-215.7 390.63,-202.36 371.78,-192.39"/>
<polygon fill="midnightblue" stroke="midnightblue" points="373.32,-189.24 362.85,-187.65 370.05,-195.43 373.32,-189.24"/>
</g>
<!-- Node32&#45;&gt;Node8 -->
<g id="edge61" class="edge">
<title>Node32&#45;&gt;Node8</title>
<path fill="none" stroke="midnightblue" d="M448.55,-224.42C449.12,-210.46 452.36,-182.9 468.5,-168 522.69,-117.97 562.49,-160.55 630.5,-132 661.29,-119.07 692.98,-96.63 712.21,-81.8"/>
<polygon fill="midnightblue" stroke="midnightblue" points="714.42,-84.51 720.12,-75.58 710.1,-79.01 714.42,-84.51"/>
</g>
<!-- Node33&#45;&gt;Node4 -->
<g id="edge63" class="edge">
<title>Node33&#45;&gt;Node4</title>
<path fill="none" stroke="midnightblue" d="M1011.28,-168.08C1016.17,-160.53 1023.33,-149.49 1029.33,-140.23"/>
<polygon fill="midnightblue" stroke="midnightblue" points="1032.33,-142.05 1034.83,-131.75 1026.45,-138.24 1032.33,-142.05"/>
</g>
<!-- Node34&#45;&gt;Node3 -->
<g id="edge67" class="edge">
<title>Node34&#45;&gt;Node3</title>
<path fill="none" stroke="midnightblue" d="M919.11,-168.1C917.94,-153.67 913.37,-125.46 895.5,-112 872.64,-94.78 453.7,-74.48 325.48,-68.64"/>
<polygon fill="midnightblue" stroke="midnightblue" points="325.52,-65.14 315.37,-68.18 325.2,-72.13 325.52,-65.14"/>
</g>
<!-- Node34&#45;&gt;Node4 -->
<g id="edge68" class="edge">
<title>Node34&#45;&gt;Node4</title>
<path fill="none" stroke="midnightblue" d="M938.67,-168.44C958.41,-159.64 989.39,-145.81 1011.99,-135.72"/>
<polygon fill="midnightblue" stroke="midnightblue" points="1013.71,-138.79 1021.42,-131.52 1010.86,-132.4 1013.71,-138.79"/>
</g>
<!-- Node34&#45;&gt;Node12 -->
<g id="edge69" class="edge">
<title>Node34&#45;&gt;Node12</title>
<path fill="none" stroke="midnightblue" d="M927.76,-168.08C934.96,-160.3 945.61,-148.8 954.35,-139.37"/>
<polygon fill="midnightblue" stroke="midnightblue" points="957.17,-141.47 961.4,-131.75 952.03,-136.71 957.17,-141.47"/>
</g>
<!-- Node34&#45;&gt;Node14 -->
<g id="edge66" class="edge">
<title>Node34&#45;&gt;Node14</title>
<path fill="none" stroke="midnightblue" d="M906.97,-168.32C894.91,-159.98 876.47,-147.21 862.23,-137.35"/>
<polygon fill="midnightblue" stroke="midnightblue" points="864.22,-134.47 854,-131.65 860.23,-140.22 864.22,-134.47"/>
</g>
<!-- Node36&#45;&gt;Node3 -->
<g id="edge74" class="edge">
<title>Node36&#45;&gt;Node3</title>
<path fill="none" stroke="midnightblue" d="M173.59,-224.22C178.97,-203.01 195.03,-148.04 224.5,-112 234.88,-99.31 249.7,-88.58 262.46,-80.79"/>
<polygon fill="midnightblue" stroke="midnightblue" points="264.42,-83.7 271.3,-75.64 260.9,-77.65 264.42,-83.7"/>
</g>
<!-- Node36&#45;&gt;Node26 -->
<g id="edge73" class="edge">
<title>Node36&#45;&gt;Node26</title>
<path fill="none" stroke="midnightblue" d="M161.7,-224.32C152.68,-216.34 139.09,-204.31 128.18,-194.65"/>
<polygon fill="midnightblue" stroke="midnightblue" points="130.29,-191.84 120.48,-187.83 125.65,-197.08 130.29,-191.84"/>
</g>
</g>
</svg>
