<?xml version="1.0" encoding="UTF-8" standalone="no"?>
<!DOCTYPE svg PUBLIC "-//W3C//DTD SVG 1.1//EN"
 "http://www.w3.org/Graphics/SVG/1.1/DTD/svg11.dtd">
<!-- Generated by graphviz version 2.42.4 (0)
 -->
<!-- Title: jngl/all.hpp Pages: 1 -->
<svg width="1579pt" height="308pt"
 viewBox="0.00 0.00 1578.84 308.00" xmlns="http://www.w3.org/2000/svg" xmlns:xlink="http://www.w3.org/1999/xlink">
<g id="graph0" class="graph" transform="scale(1 1) rotate(0) translate(4 304)">
<title>jngl/all.hpp</title>
<polygon fill="white" stroke="transparent" points="-4,4 -4,-304 1574.84,-304 1574.84,4 -4,4"/>
<!-- Node1 -->
<g id="node1" class="node">
<title>Node1</title>
<g id="a_node1"><a xlink:title="Includes all JNGL headers.">
<polygon fill="#bfbfbf" stroke="black" points="827,-280.5 827,-299.5 916,-299.5 916,-280.5 827,-280.5"/>
<text text-anchor="middle" x="871.5" y="-287.5" font-family="'Consolas',monospace" font-size="10.00">jngl/all.hpp</text>
</a>
</g>
</g>
<!-- Node2 -->
<g id="node2" class="node">
<title>Node2</title>
<g id="a_node2"><a xlink:href="App_8hpp.html" target="_top" xlink:title=" ">
<polygon fill="white" stroke="black" points="406,-168.5 406,-187.5 465,-187.5 465,-168.5 406,-168.5"/>
<text text-anchor="middle" x="435.5" y="-175.5" font-family="'Consolas',monospace" font-size="10.00">App.hpp</text>
</a>
</g>
</g>
<!-- Node1&#45;&gt;Node2 -->
<g id="edge1" class="edge">
<title>Node1&#45;&gt;Node2</title>
<path fill="none" stroke="midnightblue" d="M826.8,-283.79C774.57,-277.11 685.82,-263.98 611.5,-244 558.39,-229.73 498.78,-206.01 464.35,-191.51"/>
<polygon fill="midnightblue" stroke="midnightblue" points="465.49,-188.19 454.92,-187.51 462.75,-194.64 465.49,-188.19"/>
</g>
<!-- Node5 -->
<g id="node5" class="node">
<title>Node5</title>
<g id="a_node5"><a xlink:href="Color_8hpp.html" target="_top" xlink:title=" ">
<polygon fill="white" stroke="black" points="1390,-56.5 1390,-75.5 1461,-75.5 1461,-56.5 1390,-56.5"/>
<text text-anchor="middle" x="1425.5" y="-63.5" font-family="'Consolas',monospace" font-size="10.00">Color.hpp</text>
</a>
</g>
</g>
<!-- Node1&#45;&gt;Node5 -->
<g id="edge4" class="edge">
<title>Node1&#45;&gt;Node5</title>
<path fill="none" stroke="midnightblue" d="M916.15,-288.76C1054.79,-287.64 1471.45,-281.17 1518.5,-244 1566.12,-206.37 1588.59,-161.53 1553.5,-112 1535.01,-85.89 1500.11,-74.82 1471.41,-70.18"/>
<polygon fill="midnightblue" stroke="midnightblue" points="1471.56,-66.67 1461.17,-68.75 1470.58,-73.6 1471.56,-66.67"/>
</g>
<!-- Node6 -->
<g id="node6" class="node">
<title>Node6</title>
<g id="a_node6"><a xlink:href="Controller_8hpp.html" target="_top" xlink:title=" ">
<polygon fill="white" stroke="black" points="302,-224.5 302,-243.5 403,-243.5 403,-224.5 302,-224.5"/>
<text text-anchor="middle" x="352.5" y="-231.5" font-family="'Consolas',monospace" font-size="10.00">Controller.hpp</text>
</a>
</g>
</g>
<!-- Node1&#45;&gt;Node6 -->
<g id="edge5" class="edge">
<title>Node1&#45;&gt;Node6</title>
<path fill="none" stroke="midnightblue" d="M826.8,-284.35C733.76,-274.67 519.18,-252.34 413.53,-241.35"/>
<polygon fill="midnightblue" stroke="midnightblue" points="413.65,-237.84 403.34,-240.29 412.93,-244.81 413.65,-237.84"/>
</g>
<!-- Node7 -->
<g id="node7" class="node">
<title>Node7</title>
<g id="a_node7"><a xlink:href="input_8hpp.html" target="_top" xlink:title="Input related functions.">
<polygon fill="white" stroke="black" points="317,-168.5 317,-187.5 388,-187.5 388,-168.5 317,-168.5"/>
<text text-anchor="middle" x="352.5" y="-175.5" font-family="'Consolas',monospace" font-size="10.00">input.hpp</text>
</a>
</g>
</g>
<!-- Node1&#45;&gt;Node7 -->
<g id="edge44" class="edge">
<title>Node1&#45;&gt;Node7</title>
<path fill="none" stroke="midnightblue" d="M826.74,-285.4C763.79,-279.76 645.79,-267 547.5,-244 488.17,-230.12 421.24,-205.84 383.24,-191.21"/>
<polygon fill="midnightblue" stroke="midnightblue" points="384.36,-187.89 373.77,-187.53 381.82,-194.41 384.36,-187.89"/>
</g>
<!-- Node14 -->
<g id="node14" class="node">
<title>Node14</title>
<g id="a_node14"><a xlink:href="Drawable_8hpp.html" target="_top" xlink:title="Contains Drawable class.">
<polygon fill="white" stroke="black" points="1143,-112.5 1143,-131.5 1232,-131.5 1232,-112.5 1143,-112.5"/>
<text text-anchor="middle" x="1187.5" y="-119.5" font-family="'Consolas',monospace" font-size="10.00">Drawable.hpp</text>
</a>
</g>
</g>
<!-- Node1&#45;&gt;Node14 -->
<g id="edge14" class="edge">
<title>Node1&#45;&gt;Node14</title>
<path fill="none" stroke="midnightblue" d="M916.17,-287.41C1017.59,-283.34 1258.36,-270.92 1282.5,-244 1315.7,-206.97 1250.33,-159.79 1212.23,-136.82"/>
<polygon fill="midnightblue" stroke="midnightblue" points="1213.6,-133.56 1203.2,-131.52 1210.06,-139.6 1213.6,-133.56"/>
</g>
<!-- Node15 -->
<g id="node15" class="node">
<title>Node15</title>
<g id="a_node15"><a xlink:href="Shader_8hpp.html" target="_top" xlink:title=" ">
<polygon fill="white" stroke="black" points="0,-224.5 0,-243.5 77,-243.5 77,-224.5 0,-224.5"/>
<text text-anchor="middle" x="38.5" y="-231.5" font-family="'Consolas',monospace" font-size="10.00">Shader.hpp</text>
</a>
</g>
</g>
<!-- Node1&#45;&gt;Node15 -->
<g id="edge16" class="edge">
<title>Node1&#45;&gt;Node15</title>
<path fill="none" stroke="midnightblue" d="M827,-288.51C708.3,-286.75 374.24,-278.95 87.35,-244.08"/>
<polygon fill="midnightblue" stroke="midnightblue" points="87.52,-240.57 77.16,-242.82 86.66,-247.52 87.52,-240.57"/>
</g>
<!-- Node16 -->
<g id="node16" class="node">
<title>Node16</title>
<g id="a_node16"><a xlink:href="ShaderProgram_8hpp.html" target="_top" xlink:title=" ">
<polygon fill="white" stroke="black" points="887,-112.5 887,-131.5 1006,-131.5 1006,-112.5 887,-112.5"/>
<text text-anchor="middle" x="946.5" y="-119.5" font-family="'Consolas',monospace" font-size="10.00">ShaderProgram.hpp</text>
</a>
</g>
</g>
<!-- Node1&#45;&gt;Node16 -->
<g id="edge18" class="edge">
<title>Node1&#45;&gt;Node16</title>
<path fill="none" stroke="midnightblue" d="M916.11,-284.19C966.93,-277.79 1045.67,-264.81 1066.5,-244 1090.75,-219.78 1099.47,-195.85 1079.5,-168 1069.62,-154.22 1031.2,-142.13 998.18,-133.96"/>
<polygon fill="midnightblue" stroke="midnightblue" points="998.69,-130.48 988.15,-131.55 997.05,-137.29 998.69,-130.48"/>
</g>
<!-- Node18 -->
<g id="node18" class="node">
<title>Node18</title>
<g id="a_node18"><a xlink:href="Vertex_8hpp.html" target="_top" xlink:title=" ">
<polygon fill="white" stroke="black" points="648,-56.5 648,-75.5 725,-75.5 725,-56.5 648,-56.5"/>
<text text-anchor="middle" x="686.5" y="-63.5" font-family="'Consolas',monospace" font-size="10.00">Vertex.hpp</text>
</a>
</g>
</g>
<!-- Node1&#45;&gt;Node18 -->
<g id="edge22" class="edge">
<title>Node1&#45;&gt;Node18</title>
<path fill="none" stroke="midnightblue" d="M826.91,-289.47C708.41,-290.11 388.24,-287.63 293.5,-244 261.53,-229.28 250.97,-220.52 237.5,-188 234.1,-179.79 232.19,-175.13 237.5,-168 261.58,-135.7 526.45,-91.6 637.72,-74.34"/>
<polygon fill="midnightblue" stroke="midnightblue" points="638.33,-77.79 647.68,-72.81 637.27,-70.87 638.33,-77.79"/>
</g>
<!-- Node19 -->
<g id="node19" class="node">
<title>Node19</title>
<g id="a_node19"><a xlink:href="Video_8hpp.html" target="_top" xlink:title=" ">
<polygon fill="white" stroke="black" points="986,-224.5 986,-243.5 1057,-243.5 1057,-224.5 986,-224.5"/>
<text text-anchor="middle" x="1021.5" y="-231.5" font-family="'Consolas',monospace" font-size="10.00">Video.hpp</text>
</a>
</g>
</g>
<!-- Node1&#45;&gt;Node19 -->
<g id="edge23" class="edge">
<title>Node1&#45;&gt;Node19</title>
<path fill="none" stroke="midnightblue" d="M895.27,-280.44C920.39,-271.4 960.21,-257.06 988.4,-246.92"/>
<polygon fill="midnightblue" stroke="midnightblue" points="989.62,-250.2 997.84,-243.52 987.25,-243.61 989.62,-250.2"/>
</g>
<!-- Node20 -->
<g id="node20" class="node">
<title>Node20</title>
<g id="a_node20"><a xlink:href="sprite_8hpp_source.html" target="_top" xlink:title=" ">
<polygon fill="white" stroke="black" points="1132,-168.5 1132,-187.5 1209,-187.5 1209,-168.5 1132,-168.5"/>
<text text-anchor="middle" x="1170.5" y="-175.5" font-family="'Consolas',monospace" font-size="10.00">sprite.hpp</text>
</a>
</g>
</g>
<!-- Node1&#45;&gt;Node20 -->
<g id="edge65" class="edge">
<title>Node1&#45;&gt;Node20</title>
<path fill="none" stroke="midnightblue" d="M916.32,-288.11C965.42,-285.43 1045.2,-275.99 1105.5,-244 1127.42,-232.37 1146.69,-210.89 1158.45,-195.82"/>
<polygon fill="midnightblue" stroke="midnightblue" points="1161.26,-197.9 1164.46,-187.8 1155.66,-193.7 1161.26,-197.9"/>
</g>
<!-- Node21 -->
<g id="node21" class="node">
<title>Node21</title>
<g id="a_node21"><a xlink:href="debug_8hpp_source.html" target="_top" xlink:title=" ">
<polygon fill="white" stroke="black" points="620,-224.5 620,-243.5 691,-243.5 691,-224.5 620,-224.5"/>
<text text-anchor="middle" x="655.5" y="-231.5" font-family="'Consolas',monospace" font-size="10.00">debug.hpp</text>
</a>
</g>
</g>
<!-- Node1&#45;&gt;Node21 -->
<g id="edge30" class="edge">
<title>Node1&#45;&gt;Node21</title>
<path fill="none" stroke="midnightblue" d="M837.27,-280.44C799.99,-271.12 740.23,-256.18 699.49,-246"/>
<polygon fill="midnightblue" stroke="midnightblue" points="700.12,-242.55 689.57,-243.52 698.42,-249.34 700.12,-242.55"/>
</g>
<!-- Node22 -->
<g id="node22" class="node">
<title>Node22</title>
<g id="a_node22"><a xlink:href="message_8hpp.html" target="_top" xlink:title=" ">
<polygon fill="white" stroke="black" points="694,-168.5 694,-187.5 777,-187.5 777,-168.5 694,-168.5"/>
<text text-anchor="middle" x="735.5" y="-175.5" font-family="'Consolas',monospace" font-size="10.00">message.hpp</text>
</a>
</g>
</g>
<!-- Node1&#45;&gt;Node22 -->
<g id="edge56" class="edge">
<title>Node1&#45;&gt;Node22</title>
<path fill="none" stroke="midnightblue" d="M860.83,-280.37C837.79,-261.73 783.14,-217.53 754.21,-194.13"/>
<polygon fill="midnightblue" stroke="midnightblue" points="756.1,-191.16 746.12,-187.59 751.7,-196.6 756.1,-191.16"/>
</g>
<!-- Node24 -->
<g id="node24" class="node">
<title>Node24</title>
<g id="a_node24"><a xlink:href="font_8hpp.html" target="_top" xlink:title=" ">
<polygon fill="white" stroke="black" points="1289,-112.5 1289,-131.5 1354,-131.5 1354,-112.5 1289,-112.5"/>
<text text-anchor="middle" x="1321.5" y="-119.5" font-family="'Consolas',monospace" font-size="10.00">font.hpp</text>
</a>
</g>
</g>
<!-- Node1&#45;&gt;Node24 -->
<g id="edge34" class="edge">
<title>Node1&#45;&gt;Node24</title>
<path fill="none" stroke="midnightblue" d="M916.25,-287.32C1020.5,-282.98 1272.81,-269.89 1300.5,-244 1328.57,-217.76 1327.53,-168.48 1324.45,-141.62"/>
<polygon fill="midnightblue" stroke="midnightblue" points="1327.9,-141.05 1323.08,-131.61 1320.96,-141.99 1327.9,-141.05"/>
</g>
<!-- Node25 -->
<g id="node25" class="node">
<title>Node25</title>
<g id="a_node25"><a xlink:href="framebuffer_8hpp.html" target="_top" xlink:title="Contains FrameBuffer class.">
<polygon fill="white" stroke="black" points="1024,-112.5 1024,-131.5 1125,-131.5 1125,-112.5 1024,-112.5"/>
<text text-anchor="middle" x="1074.5" y="-119.5" font-family="'Consolas',monospace" font-size="10.00">framebuffer.hpp</text>
</a>
</g>
</g>
<!-- Node1&#45;&gt;Node25 -->
<g id="edge38" class="edge">
<title>Node1&#45;&gt;Node25</title>
<path fill="none" stroke="midnightblue" d="M916.38,-286.78C969.59,-282.91 1060.16,-272.39 1132.5,-244 1174.96,-227.34 1196.76,-228.1 1218.5,-188 1222.74,-180.19 1223.77,-175.16 1218.5,-168 1207.83,-153.48 1167.04,-141.58 1131.59,-133.66"/>
<polygon fill="midnightblue" stroke="midnightblue" points="1132.28,-130.23 1121.76,-131.54 1130.8,-137.07 1132.28,-130.23"/>
</g>
<!-- Node26 -->
<g id="node26" class="node">
<title>Node26</title>
<g id="a_node26"><a xlink:href="job_8hpp.html" target="_top" xlink:title=" ">
<polygon fill="white" stroke="black" points="130,-168.5 130,-187.5 189,-187.5 189,-168.5 130,-168.5"/>
<text text-anchor="middle" x="159.5" y="-175.5" font-family="'Consolas',monospace" font-size="10.00">job.hpp</text>
</a>
</g>
</g>
<!-- Node1&#45;&gt;Node26 -->
<g id="edge45" class="edge">
<title>Node1&#45;&gt;Node26</title>
<path fill="none" stroke="midnightblue" d="M826.56,-287.99C686.93,-284.58 266.74,-272.06 212.5,-244 192.56,-233.68 177.41,-212.21 168.51,-196.76"/>
<polygon fill="midnightblue" stroke="midnightblue" points="171.43,-194.79 163.59,-187.66 165.27,-198.12 171.43,-194.79"/>
</g>
<!-- Node27 -->
<g id="node27" class="node">
<title>Node27</title>
<g id="a_node27"><a xlink:href="main_8hpp_source.html" target="_top" xlink:title=" ">
<polygon fill="white" stroke="black" points="900,-224.5 900,-243.5 965,-243.5 965,-224.5 900,-224.5"/>
<text text-anchor="middle" x="932.5" y="-231.5" font-family="'Consolas',monospace" font-size="10.00">main.hpp</text>
</a>
</g>
</g>
<!-- Node1&#45;&gt;Node27 -->
<g id="edge47" class="edge">
<title>Node1&#45;&gt;Node27</title>
<path fill="none" stroke="midnightblue" d="M881.3,-280.32C890.32,-272.34 903.91,-260.31 914.82,-250.65"/>
<polygon fill="midnightblue" stroke="midnightblue" points="917.35,-253.08 922.52,-243.83 912.71,-247.84 917.35,-253.08"/>
</g>
<!-- Node28 -->
<g id="node28" class="node">
<title>Node28</title>
<g id="a_node28"><a xlink:href="other_8hpp.html" target="_top" xlink:title=" ">
<polygon fill="white" stroke="black" points="522,-168.5 522,-187.5 593,-187.5 593,-168.5 522,-168.5"/>
<text text-anchor="middle" x="557.5" y="-175.5" font-family="'Consolas',monospace" font-size="10.00">other.hpp</text>
</a>
</g>
</g>
<!-- Node1&#45;&gt;Node28 -->
<g id="edge57" class="edge">
<title>Node1&#45;&gt;Node28</title>
<path fill="none" stroke="midnightblue" d="M838.07,-280.43C809.61,-272.58 767.97,-259.81 733.5,-244 717.91,-236.85 716.13,-231.07 700.5,-224 668.79,-209.65 631.18,-198.02 602.5,-190.17"/>
<polygon fill="midnightblue" stroke="midnightblue" points="603.31,-186.77 592.75,-187.56 601.5,-193.53 603.31,-186.77"/>
</g>
<!-- Node29 -->
<g id="node29" class="node">
<title>Node29</title>
<g id="a_node29"><a xlink:href="window_8hpp.html" target="_top" xlink:title="Functions related to the main window.">
<polygon fill="white" stroke="black" points="884,-168.5 884,-187.5 961,-187.5 961,-168.5 884,-168.5"/>
<text text-anchor="middle" x="922.5" y="-175.5" font-family="'Consolas',monospace" font-size="10.00">window.hpp</text>
</a>
</g>
</g>
<!-- Node1&#45;&gt;Node29 -->
<g id="edge72" class="edge">
<title>Node1&#45;&gt;Node29</title>
<path fill="none" stroke="midnightblue" d="M873.29,-280.27C876.11,-267.49 882.24,-243.13 891.5,-224 896.3,-214.09 903.11,-203.92 909.13,-195.76"/>
<polygon fill="midnightblue" stroke="midnightblue" points="911.93,-197.87 915.22,-187.8 906.37,-193.62 911.93,-197.87"/>
</g>
<!-- Node30 -->
<g id="node30" class="node">
<title>Node30</title>
<g id="a_node30"><a xlink:href="matrix_8hpp.html" target="_top" xlink:title="Functions related to the global ModelView matrix.">
<polygon fill="white" stroke="black" points="1196,-224.5 1196,-243.5 1273,-243.5 1273,-224.5 1196,-224.5"/>
<text text-anchor="middle" x="1234.5" y="-231.5" font-family="'Consolas',monospace" font-size="10.00">matrix.hpp</text>
</a>
</g>
</g>
<!-- Node1&#45;&gt;Node30 -->
<g id="edge55" class="edge">
<title>Node1&#45;&gt;Node30</title>
<path fill="none" stroke="midnightblue" d="M916.21,-282.85C976.51,-274.49 1087.22,-258.85 1181.5,-244 1182.8,-243.8 1184.11,-243.59 1185.44,-243.37"/>
<polygon fill="midnightblue" stroke="midnightblue" points="1186.42,-246.76 1195.73,-241.69 1185.3,-239.85 1186.42,-246.76"/>
</g>
<!-- Node31 -->
<g id="node31" class="node">
<title>Node31</title>
<g id="a_node31"><a xlink:href="screen_8hpp.html" target="_top" xlink:title=" ">
<polygon fill="white" stroke="black" points="1372,-112.5 1372,-131.5 1449,-131.5 1449,-112.5 1372,-112.5"/>
<text text-anchor="middle" x="1410.5" y="-119.5" font-family="'Consolas',monospace" font-size="10.00">screen.hpp</text>
</a>
</g>
</g>
<!-- Node1&#45;&gt;Node31 -->
<g id="edge58" class="edge">
<title>Node1&#45;&gt;Node31</title>
<path fill="none" stroke="midnightblue" d="M916.03,-289.03C1015.45,-288.39 1252.17,-282.72 1320.5,-244 1362.31,-220.31 1390.43,-168.39 1403,-140.9"/>
<polygon fill="midnightblue" stroke="midnightblue" points="1406.24,-142.23 1407.05,-131.67 1399.83,-139.41 1406.24,-142.23"/>
</g>
<!-- Node32 -->
<g id="node32" class="node">
<title>Node32</title>
<g id="a_node32"><a xlink:href="shapes_8hpp.html" target="_top" xlink:title="Functions for drawing shapes.">
<polygon fill="white" stroke="black" points="1467,-112.5 1467,-131.5 1544,-131.5 1544,-112.5 1467,-112.5"/>
<text text-anchor="middle" x="1505.5" y="-119.5" font-family="'Consolas',monospace" font-size="10.00">shapes.hpp</text>
</a>
</g>
</g>
<!-- Node1&#45;&gt;Node32 -->
<g id="edge60" class="edge">
<title>Node1&#45;&gt;Node32</title>
<path fill="none" stroke="midnightblue" d="M916.35,-287.88C1019.12,-284.81 1268.77,-274.37 1346.5,-244 1407.11,-220.32 1464.27,-166.37 1490.49,-139.23"/>
<polygon fill="midnightblue" stroke="midnightblue" points="1493.26,-141.39 1497.61,-131.73 1488.18,-136.58 1493.26,-141.39"/>
</g>
<!-- Node33 -->
<g id="node33" class="node">
<title>Node33</title>
<g id="a_node33"><a xlink:href="sound_8hpp_source.html" target="_top" xlink:title=" ">
<polygon fill="white" stroke="black" points="795,-168.5 795,-187.5 866,-187.5 866,-168.5 795,-168.5"/>
<text text-anchor="middle" x="830.5" y="-175.5" font-family="'Consolas',monospace" font-size="10.00">sound.hpp</text>
</a>
</g>
</g>
<!-- Node1&#45;&gt;Node33 -->
<g id="edge63" class="edge">
<title>Node1&#45;&gt;Node33</title>
<path fill="none" stroke="midnightblue" d="M868.28,-280.37C861.64,-262.54 846.26,-221.3 837.31,-197.27"/>
<polygon fill="midnightblue" stroke="midnightblue" points="840.47,-195.74 833.7,-187.59 833.92,-198.18 840.47,-195.74"/>
</g>
<!-- Node34 -->
<g id="node34" class="node">
<title>Node34</title>
<g id="a_node34"><a xlink:href="text_8hpp.html" target="_top" xlink:title=" ">
<polygon fill="white" stroke="black" points="611,-168.5 611,-187.5 676,-187.5 676,-168.5 611,-168.5"/>
<text text-anchor="middle" x="643.5" y="-175.5" font-family="'Consolas',monospace" font-size="10.00">text.hpp</text>
</a>
</g>
</g>
<!-- Node1&#45;&gt;Node34 -->
<g id="edge66" class="edge">
<title>Node1&#45;&gt;Node34</title>
<path fill="none" stroke="midnightblue" d="M853.61,-280.37C813.82,-261.17 717.79,-214.84 670.6,-192.07"/>
<polygon fill="midnightblue" stroke="midnightblue" points="671.84,-188.78 661.31,-187.59 668.79,-195.09 671.84,-188.78"/>
</g>
<!-- Node35 -->
<g id="node35" class="node">
<title>Node35</title>
<g id="a_node35"><a xlink:href="time_8hpp.html" target="_top" xlink:title="Timing functions.">
<polygon fill="white" stroke="black" points="1444,-224.5 1444,-243.5 1509,-243.5 1509,-224.5 1444,-224.5"/>
<text text-anchor="middle" x="1476.5" y="-231.5" font-family="'Consolas',monospace" font-size="10.00">time.hpp</text>
</a>
</g>
</g>
<!-- Node1&#45;&gt;Node35 -->
<g id="edge71" class="edge">
<title>Node1&#45;&gt;Node35</title>
<path fill="none" stroke="midnightblue" d="M916.16,-287.05C1011.03,-282.54 1239.53,-269.77 1429.5,-244 1430.97,-243.8 1432.46,-243.59 1433.96,-243.36"/>
<polygon fill="midnightblue" stroke="midnightblue" points="1434.66,-246.79 1443.96,-241.71 1433.52,-239.88 1434.66,-246.79"/>
</g>
<!-- Node36 -->
<g id="node36" class="node">
<title>Node36</title>
<g id="a_node36"><a xlink:href="work_8hpp.html" target="_top" xlink:title=" ">
<polygon fill="white" stroke="black" points="95,-224.5 95,-243.5 160,-243.5 160,-224.5 95,-224.5"/>
<text text-anchor="middle" x="127.5" y="-231.5" font-family="'Consolas',monospace" font-size="10.00">work.hpp</text>
</a>
</g>
</g>
<!-- Node1&#45;&gt;Node36 -->
<g id="edge73" class="edge">
<title>Node1&#45;&gt;Node36</title>
<path fill="none" stroke="midnightblue" d="M826.87,-288.05C716.06,-285.26 419.58,-275.25 174.5,-244 173.03,-243.81 171.54,-243.61 170.04,-243.39"/>
<polygon fill="midnightblue" stroke="midnightblue" points="170.46,-239.91 160.03,-241.77 169.35,-246.82 170.46,-239.91"/>
</g>
<!-- Node3 -->
<g id="node3" class="node">
<title>Node3</title>
<g id="a_node3"><a target="_parent" xlink:href="http://en.cppreference.com/w/cpp/header/memory.html" target="_top" xlink:title=" ">
<polygon fill="white" stroke="black" points="447,-56.5 447,-75.5 500,-75.5 500,-56.5 447,-56.5"/>
<text text-anchor="middle" x="473.5" y="-63.5" font-family="'Consolas',monospace" font-size="10.00">memory</text>
</a>
</g>
</g>
<!-- Node2&#45;&gt;Node3 -->
<g id="edge2" class="edge">
<title>Node2&#45;&gt;Node3</title>
<path fill="none" stroke="midnightblue" d="M438.48,-168.37C444.64,-150.54 458.89,-109.3 467.19,-85.27"/>
<polygon fill="midnightblue" stroke="midnightblue" points="470.57,-86.19 470.53,-75.59 463.96,-83.9 470.57,-86.19"/>
</g>
<!-- Node4 -->
<g id="node4" class="node">
<title>Node4</title>
<g id="a_node4"><a target="_parent" xlink:href="http://en.cppreference.com/w/cpp/header/string.html" target="_top" xlink:title=" ">
<polygon fill="white" stroke="black" points="709,-112.5 709,-131.5 762,-131.5 762,-112.5 709,-112.5"/>
<text text-anchor="middle" x="735.5" y="-119.5" font-family="'Consolas',monospace" font-size="10.00">string</text>
</a>
</g>
</g>
<!-- Node2&#45;&gt;Node4 -->
<g id="edge3" class="edge">
<title>Node2&#45;&gt;Node4</title>
<path fill="none" stroke="midnightblue" d="M465.09,-171.67C520.17,-161.76 638.31,-140.49 698.54,-129.65"/>
<polygon fill="midnightblue" stroke="midnightblue" points="699.52,-133.03 708.74,-127.82 698.28,-126.14 699.52,-133.03"/>
</g>
<!-- Node6&#45;&gt;Node7 -->
<g id="edge6" class="edge">
<title>Node6&#45;&gt;Node7</title>
<path fill="none" stroke="midnightblue" d="M352.5,-224.08C352.5,-217.01 352.5,-206.86 352.5,-197.99"/>
<polygon fill="midnightblue" stroke="midnightblue" points="356,-197.75 352.5,-187.75 349,-197.75 356,-197.75"/>
</g>
<!-- Node13 -->
<g id="node13" class="node">
<title>Node13</title>
<g id="a_node13"><a target="_parent" xlink:href="http://en.cppreference.com/w/cpp/header/chrono.html" target="_top" xlink:title=" ">
<polygon fill="white" stroke="black" points="246,-168.5 246,-187.5 299,-187.5 299,-168.5 246,-168.5"/>
<text text-anchor="middle" x="272.5" y="-175.5" font-family="'Consolas',monospace" font-size="10.00">chrono</text>
</a>
</g>
</g>
<!-- Node6&#45;&gt;Node13 -->
<g id="edge13" class="edge">
<title>Node6&#45;&gt;Node13</title>
<path fill="none" stroke="midnightblue" d="M339.65,-224.32C327.28,-215.98 308.37,-203.21 293.76,-193.35"/>
<polygon fill="midnightblue" stroke="midnightblue" points="295.57,-190.35 285.32,-187.65 291.65,-196.15 295.57,-190.35"/>
</g>
<!-- Node7&#45;&gt;Node3 -->
<g id="edge11" class="edge">
<title>Node7&#45;&gt;Node3</title>
<path fill="none" stroke="midnightblue" d="M361.99,-168.37C382.4,-149.81 430.7,-105.91 456.52,-82.44"/>
<polygon fill="midnightblue" stroke="midnightblue" points="459,-84.91 464.05,-75.59 454.3,-79.73 459,-84.91"/>
</g>
<!-- Node8 -->
<g id="node8" class="node">
<title>Node8</title>
<g id="a_node8"><a xlink:href="Vec2_8hpp.html" target="_top" xlink:title=" ">
<polygon fill="white" stroke="black" points="1228,-56.5 1228,-75.5 1293,-75.5 1293,-56.5 1228,-56.5"/>
<text text-anchor="middle" x="1260.5" y="-63.5" font-family="'Consolas',monospace" font-size="10.00">Vec2.hpp</text>
</a>
</g>
</g>
<!-- Node7&#45;&gt;Node8 -->
<g id="edge7" class="edge">
<title>Node7&#45;&gt;Node8</title>
<path fill="none" stroke="midnightblue" d="M364.98,-168.5C387.23,-153.86 435.72,-124.29 481.5,-112 552.57,-92.92 1064.2,-73.81 1217.32,-68.47"/>
<polygon fill="midnightblue" stroke="midnightblue" points="1217.84,-71.95 1227.71,-68.11 1217.6,-64.96 1217.84,-71.95"/>
</g>
<!-- Node11 -->
<g id="node11" class="node">
<title>Node11</title>
<g id="a_node11"><a target="_parent" xlink:href="http://en.cppreference.com/w/cpp/header/functional.html" target="_top" xlink:title=" ">
<polygon fill="white" stroke="black" points="579,-0.5 579,-19.5 656,-19.5 656,-0.5 579,-0.5"/>
<text text-anchor="middle" x="617.5" y="-7.5" font-family="'Consolas',monospace" font-size="10.00">functional</text>
</a>
</g>
</g>
<!-- Node7&#45;&gt;Node11 -->
<g id="edge10" class="edge">
<title>Node7&#45;&gt;Node11</title>
<path fill="none" stroke="midnightblue" d="M356.02,-168.35C365.61,-145.93 394.46,-85.65 438.5,-56 477.37,-29.83 530.25,-18.87 568.45,-14.29"/>
<polygon fill="midnightblue" stroke="midnightblue" points="569.24,-17.72 578.81,-13.16 568.48,-10.76 569.24,-17.72"/>
</g>
<!-- Node12 -->
<g id="node12" class="node">
<title>Node12</title>
<g id="a_node12"><a target="_parent" xlink:href="http://en.cppreference.com/w/cpp/header/vector.html" target="_top" xlink:title=" ">
<polygon fill="white" stroke="black" points="567,-112.5 567,-131.5 620,-131.5 620,-112.5 567,-112.5"/>
<text text-anchor="middle" x="593.5" y="-119.5" font-family="'Consolas',monospace" font-size="10.00">vector</text>
</a>
</g>
</g>
<!-- Node7&#45;&gt;Node12 -->
<g id="edge12" class="edge">
<title>Node7&#45;&gt;Node12</title>
<path fill="none" stroke="midnightblue" d="M388.32,-169.59C427.47,-161.4 492.3,-147.57 556.84,-132.34"/>
<polygon fill="midnightblue" stroke="midnightblue" points="557.85,-135.69 566.77,-129.98 556.23,-128.88 557.85,-135.69"/>
</g>
<!-- Node9 -->
<g id="node9" class="node">
<title>Node9</title>
<g id="a_node9"><a xlink:title=" ">
<polygon fill="white" stroke="#bfbfbf" points="1253,-0.5 1253,-19.5 1372,-19.5 1372,-0.5 1253,-0.5"/>
<text text-anchor="middle" x="1312.5" y="-7.5" font-family="'Consolas',monospace" font-size="10.00">boost/version.hpp</text>
</a>
</g>
</g>
<!-- Node8&#45;&gt;Node9 -->
<g id="edge8" class="edge">
<title>Node8&#45;&gt;Node9</title>
<path fill="none" stroke="midnightblue" d="M1269.09,-56.08C1276.66,-48.22 1287.88,-36.57 1297.01,-27.08"/>
<polygon fill="midnightblue" stroke="midnightblue" points="1299.66,-29.38 1304.07,-19.75 1294.62,-24.53 1299.66,-29.38"/>
</g>
<!-- Node10 -->
<g id="node10" class="node">
<title>Node10</title>
<g id="a_node10"><a target="_parent" xlink:href="http://en.cppreference.com/w/cpp/header/iosfwd.html" target="_top" xlink:title=" ">
<polygon fill="white" stroke="black" points="1182,-0.5 1182,-19.5 1235,-19.5 1235,-0.5 1182,-0.5"/>
<text text-anchor="middle" x="1208.5" y="-7.5" font-family="'Consolas',monospace" font-size="10.00">iosfwd</text>
</a>
</g>
</g>
<!-- Node8&#45;&gt;Node10 -->
<g id="edge9" class="edge">
<title>Node8&#45;&gt;Node10</title>
<path fill="none" stroke="midnightblue" d="M1251.91,-56.08C1244.34,-48.22 1233.12,-36.57 1223.99,-27.08"/>
<polygon fill="midnightblue" stroke="midnightblue" points="1226.38,-24.53 1216.93,-19.75 1221.34,-29.38 1226.38,-24.53"/>
</g>
<!-- Node14&#45;&gt;Node8 -->
<g id="edge15" class="edge">
<title>Node14&#45;&gt;Node8</title>
<path fill="none" stroke="midnightblue" d="M1199.23,-112.32C1210.34,-104.11 1227.24,-91.6 1240.48,-81.81"/>
<polygon fill="midnightblue" stroke="midnightblue" points="1242.6,-84.59 1248.56,-75.83 1238.44,-78.97 1242.6,-84.59"/>
</g>
<!-- Node15&#45;&gt;Node3 -->
<g id="edge17" class="edge">
<title>Node15&#45;&gt;Node3</title>
<path fill="none" stroke="midnightblue" d="M45.19,-224.39C63.51,-201.53 117.12,-139.22 177.5,-112 264.49,-72.78 378.93,-66.67 436.72,-66.35"/>
<polygon fill="midnightblue" stroke="midnightblue" points="436.83,-69.85 446.83,-66.35 436.83,-62.85 436.83,-69.85"/>
</g>
<!-- Node16&#45;&gt;Node3 -->
<g id="edge21" class="edge">
<title>Node16&#45;&gt;Node3</title>
<path fill="none" stroke="midnightblue" d="M886.73,-113.69C881.92,-113.11 877.13,-112.54 872.5,-112 739.14,-96.37 580.59,-78.79 510.25,-71.04"/>
<polygon fill="midnightblue" stroke="midnightblue" points="510.45,-67.54 500.12,-69.92 509.68,-74.5 510.45,-67.54"/>
</g>
<!-- Node17 -->
<g id="node17" class="node">
<title>Node17</title>
<g id="a_node17"><a xlink:href="Finally_8hpp.html" target="_top" xlink:title=" ">
<polygon fill="white" stroke="black" points="842,-56.5 842,-75.5 925,-75.5 925,-56.5 842,-56.5"/>
<text text-anchor="middle" x="883.5" y="-63.5" font-family="'Consolas',monospace" font-size="10.00">Finally.hpp</text>
</a>
</g>
</g>
<!-- Node16&#45;&gt;Node17 -->
<g id="edge19" class="edge">
<title>Node16&#45;&gt;Node17</title>
<path fill="none" stroke="midnightblue" d="M936.38,-112.32C926.97,-104.26 912.76,-92.08 901.43,-82.37"/>
<polygon fill="midnightblue" stroke="midnightblue" points="903.68,-79.68 893.81,-75.83 899.12,-85 903.68,-79.68"/>
</g>
<!-- Node17&#45;&gt;Node11 -->
<g id="edge20" class="edge">
<title>Node17&#45;&gt;Node11</title>
<path fill="none" stroke="midnightblue" d="M841.94,-56.56C794.37,-46.91 716.54,-31.11 666.18,-20.88"/>
<polygon fill="midnightblue" stroke="midnightblue" points="666.68,-17.41 656.18,-18.85 665.28,-24.27 666.68,-17.41"/>
</g>
<!-- Node19&#45;&gt;Node3 -->
<g id="edge28" class="edge">
<title>Node19&#45;&gt;Node3</title>
<path fill="none" stroke="midnightblue" d="M1020.41,-224.41C1018.17,-210.43 1011.71,-182.84 994.5,-168 975.15,-151.32 796.55,-117.02 771.5,-112 678.24,-93.29 567.17,-78.46 510.6,-71.44"/>
<polygon fill="midnightblue" stroke="midnightblue" points="510.72,-67.92 500.36,-70.18 509.86,-74.87 510.72,-67.92"/>
</g>
<!-- Node19&#45;&gt;Node4 -->
<g id="edge29" class="edge">
<title>Node19&#45;&gt;Node4</title>
<path fill="none" stroke="midnightblue" d="M1017.26,-224.19C1009.88,-209.91 993.28,-181.88 970.5,-168 937.69,-148 829.59,-133.41 772.14,-126.85"/>
<polygon fill="midnightblue" stroke="midnightblue" points="772.36,-123.35 762.04,-125.72 771.58,-130.31 772.36,-123.35"/>
</g>
<!-- Node19&#45;&gt;Node20 -->
<g id="edge24" class="edge">
<title>Node19&#45;&gt;Node20</title>
<path fill="none" stroke="midnightblue" d="M1045.11,-224.44C1069.96,-215.44 1109.27,-201.19 1137.25,-191.05"/>
<polygon fill="midnightblue" stroke="midnightblue" points="1138.79,-194.21 1147,-187.52 1136.41,-187.63 1138.79,-194.21"/>
</g>
<!-- Node20&#45;&gt;Node8 -->
<g id="edge27" class="edge">
<title>Node20&#45;&gt;Node8</title>
<path fill="none" stroke="midnightblue" d="M1191.79,-168.49C1207.69,-161.1 1228.78,-148.91 1241.5,-132 1251.55,-118.64 1256.3,-100.07 1258.53,-86.2"/>
<polygon fill="midnightblue" stroke="midnightblue" points="1262.06,-86.24 1259.88,-75.87 1255.12,-85.33 1262.06,-86.24"/>
</g>
<!-- Node20&#45;&gt;Node14 -->
<g id="edge25" class="edge">
<title>Node20&#45;&gt;Node14</title>
<path fill="none" stroke="midnightblue" d="M1173.31,-168.08C1175.58,-160.85 1178.87,-150.41 1181.71,-141.4"/>
<polygon fill="midnightblue" stroke="midnightblue" points="1185.08,-142.34 1184.75,-131.75 1178.4,-140.24 1185.08,-142.34"/>
</g>
<!-- Node20&#45;&gt;Node16 -->
<g id="edge26" class="edge">
<title>Node20&#45;&gt;Node16</title>
<path fill="none" stroke="midnightblue" d="M1135.01,-168.44C1096.18,-159.08 1033.84,-144.06 991.58,-133.87"/>
<polygon fill="midnightblue" stroke="midnightblue" points="992.37,-130.46 981.83,-131.52 990.73,-137.26 992.37,-130.46"/>
</g>
<!-- Node21&#45;&gt;Node22 -->
<g id="edge31" class="edge">
<title>Node21&#45;&gt;Node22</title>
<path fill="none" stroke="midnightblue" d="M668.35,-224.32C680.72,-215.98 699.63,-203.21 714.24,-193.35"/>
<polygon fill="midnightblue" stroke="midnightblue" points="716.35,-196.15 722.68,-187.65 712.43,-190.35 716.35,-196.15"/>
</g>
<!-- Node23 -->
<g id="node23" class="node">
<title>Node23</title>
<g id="a_node23"><a target="_parent" xlink:href="http://en.cppreference.com/w/cpp/header/sstream.html" target="_top" xlink:title=" ">
<polygon fill="white" stroke="black" points="490,-112.5 490,-131.5 549,-131.5 549,-112.5 490,-112.5"/>
<text text-anchor="middle" x="519.5" y="-119.5" font-family="'Consolas',monospace" font-size="10.00">sstream</text>
</a>
</g>
</g>
<!-- Node21&#45;&gt;Node23 -->
<g id="edge33" class="edge">
<title>Node21&#45;&gt;Node23</title>
<path fill="none" stroke="midnightblue" d="M619.89,-226.65C582.12,-219.1 526.18,-205.32 513.5,-188 503.68,-174.59 507.08,-155.22 511.77,-141.11"/>
<polygon fill="midnightblue" stroke="midnightblue" points="515.13,-142.13 515.42,-131.54 508.59,-139.64 515.13,-142.13"/>
</g>
<!-- Node22&#45;&gt;Node4 -->
<g id="edge32" class="edge">
<title>Node22&#45;&gt;Node4</title>
<path fill="none" stroke="midnightblue" d="M735.5,-168.08C735.5,-161.01 735.5,-150.86 735.5,-141.99"/>
<polygon fill="midnightblue" stroke="midnightblue" points="739,-141.75 735.5,-131.75 732,-141.75 739,-141.75"/>
</g>
<!-- Node24&#45;&gt;Node3 -->
<g id="edge37" class="edge">
<title>Node24&#45;&gt;Node3</title>
<path fill="none" stroke="midnightblue" d="M1288.84,-116.93C1274.36,-115.22 1257.1,-113.33 1241.5,-112 1168.31,-105.74 653.75,-77.01 510.46,-69.05"/>
<polygon fill="midnightblue" stroke="midnightblue" points="510.59,-65.55 500.41,-68.49 510.2,-72.54 510.59,-65.55"/>
</g>
<!-- Node24&#45;&gt;Node5 -->
<g id="edge35" class="edge">
<title>Node24&#45;&gt;Node5</title>
<path fill="none" stroke="midnightblue" d="M1338.21,-112.32C1354.81,-103.7 1380.5,-90.36 1399.72,-80.39"/>
<polygon fill="midnightblue" stroke="midnightblue" points="1401.57,-83.37 1408.83,-75.65 1398.34,-77.16 1401.57,-83.37"/>
</g>
<!-- Node24&#45;&gt;Node8 -->
<g id="edge36" class="edge">
<title>Node24&#45;&gt;Node8</title>
<path fill="none" stroke="midnightblue" d="M1311.7,-112.32C1302.68,-104.34 1289.09,-92.31 1278.18,-82.65"/>
<polygon fill="midnightblue" stroke="midnightblue" points="1280.29,-79.84 1270.48,-75.83 1275.65,-85.08 1280.29,-79.84"/>
</g>
<!-- Node25&#45;&gt;Node3 -->
<g id="edge43" class="edge">
<title>Node25&#45;&gt;Node3</title>
<path fill="none" stroke="midnightblue" d="M1023.68,-113.02C1020.92,-112.66 1018.18,-112.31 1015.5,-112 826.01,-89.71 597.96,-74.57 510.3,-69.18"/>
<polygon fill="midnightblue" stroke="midnightblue" points="510.27,-65.67 500.07,-68.56 509.84,-72.66 510.27,-65.67"/>
</g>
<!-- Node25&#45;&gt;Node5 -->
<g id="edge39" class="edge">
<title>Node25&#45;&gt;Node5</title>
<path fill="none" stroke="midnightblue" d="M1125.16,-113.21C1193.46,-102.7 1314.06,-84.14 1379.74,-74.04"/>
<polygon fill="midnightblue" stroke="midnightblue" points="1380.44,-77.47 1389.8,-72.49 1379.38,-70.55 1380.44,-77.47"/>
</g>
<!-- Node25&#45;&gt;Node8 -->
<g id="edge41" class="edge">
<title>Node25&#45;&gt;Node8</title>
<path fill="none" stroke="midnightblue" d="M1103.97,-112.44C1135.67,-103.24 1186.23,-88.56 1221.27,-78.39"/>
<polygon fill="midnightblue" stroke="midnightblue" points="1222.54,-81.67 1231.17,-75.52 1220.59,-74.94 1222.54,-81.67"/>
</g>
<!-- Node25&#45;&gt;Node17 -->
<g id="edge40" class="edge">
<title>Node25&#45;&gt;Node17</title>
<path fill="none" stroke="midnightblue" d="M1044.24,-112.44C1011.54,-103.2 959.32,-88.44 923.32,-78.26"/>
<polygon fill="midnightblue" stroke="midnightblue" points="924.2,-74.87 913.62,-75.52 922.29,-81.61 924.2,-74.87"/>
</g>
<!-- Node25&#45;&gt;Node18 -->
<g id="edge42" class="edge">
<title>Node25&#45;&gt;Node18</title>
<path fill="none" stroke="midnightblue" d="M1023.98,-113.24C1021.11,-112.82 1018.27,-112.4 1015.5,-112 916.05,-97.61 799.51,-81.96 735.26,-73.43"/>
<polygon fill="midnightblue" stroke="midnightblue" points="735.39,-69.92 725.02,-72.07 734.47,-76.86 735.39,-69.92"/>
</g>
<!-- Node26&#45;&gt;Node3 -->
<g id="edge46" class="edge">
<title>Node26&#45;&gt;Node3</title>
<path fill="none" stroke="midnightblue" d="M183.88,-168.46C239.41,-149.01 375.43,-101.36 439.31,-78.98"/>
<polygon fill="midnightblue" stroke="midnightblue" points="440.64,-82.22 448.92,-75.61 438.33,-75.61 440.64,-82.22"/>
</g>
<!-- Node27&#45;&gt;Node17 -->
<g id="edge48" class="edge">
<title>Node27&#45;&gt;Node17</title>
<path fill="none" stroke="midnightblue" d="M944.07,-224.35C959.59,-211.67 983.76,-187.43 970.5,-168 945.75,-131.73 903.25,-168.27 878.5,-132 869.25,-118.44 872.08,-99.38 876.28,-85.41"/>
<polygon fill="midnightblue" stroke="midnightblue" points="879.61,-86.48 879.58,-75.89 873,-84.19 879.61,-86.48"/>
</g>
<!-- Node27&#45;&gt;Node28 -->
<g id="edge49" class="edge">
<title>Node27&#45;&gt;Node28</title>
<path fill="none" stroke="midnightblue" d="M899.61,-229.2C841.83,-222.37 718.11,-207.1 603.34,-188.05"/>
<polygon fill="midnightblue" stroke="midnightblue" points="603.77,-184.57 593.32,-186.37 602.61,-191.48 603.77,-184.57"/>
</g>
<!-- Node27&#45;&gt;Node29 -->
<g id="edge53" class="edge">
<title>Node27&#45;&gt;Node29</title>
<path fill="none" stroke="midnightblue" d="M930.85,-224.08C929.52,-216.93 927.62,-206.64 925.96,-197.69"/>
<polygon fill="midnightblue" stroke="midnightblue" points="929.38,-196.95 924.12,-187.75 922.5,-198.22 929.38,-196.95"/>
</g>
<!-- Node28&#45;&gt;Node4 -->
<g id="edge51" class="edge">
<title>Node28&#45;&gt;Node4</title>
<path fill="none" stroke="midnightblue" d="M585.7,-168.44C616.35,-159.15 665.43,-144.26 699,-134.07"/>
<polygon fill="midnightblue" stroke="midnightblue" points="700.33,-137.33 708.88,-131.08 698.3,-130.63 700.33,-137.33"/>
</g>
<!-- Node28&#45;&gt;Node12 -->
<g id="edge52" class="edge">
<title>Node28&#45;&gt;Node12</title>
<path fill="none" stroke="midnightblue" d="M563.44,-168.08C568.48,-160.53 575.84,-149.49 582.01,-140.23"/>
<polygon fill="midnightblue" stroke="midnightblue" points="585.03,-142.01 587.67,-131.75 579.21,-138.13 585.03,-142.01"/>
</g>
<!-- Node28&#45;&gt;Node23 -->
<g id="edge50" class="edge">
<title>Node28&#45;&gt;Node23</title>
<path fill="none" stroke="midnightblue" d="M551.23,-168.08C545.86,-160.46 537.98,-149.26 531.42,-139.94"/>
<polygon fill="midnightblue" stroke="midnightblue" points="534.28,-137.91 525.66,-131.75 528.55,-141.94 534.28,-137.91"/>
</g>
<!-- Node29&#45;&gt;Node4 -->
<g id="edge54" class="edge">
<title>Node29&#45;&gt;Node4</title>
<path fill="none" stroke="midnightblue" d="M892.87,-168.44C860.16,-159 807.46,-143.78 772.17,-133.59"/>
<polygon fill="midnightblue" stroke="midnightblue" points="772.84,-130.14 762.27,-130.73 770.9,-136.87 772.84,-130.14"/>
</g>
<!-- Node31&#45;&gt;Node8 -->
<g id="edge59" class="edge">
<title>Node31&#45;&gt;Node8</title>
<path fill="none" stroke="midnightblue" d="M1386.73,-112.44C1361.61,-103.4 1321.79,-89.06 1293.6,-78.92"/>
<polygon fill="midnightblue" stroke="midnightblue" points="1294.75,-75.61 1284.16,-75.52 1292.38,-82.2 1294.75,-75.61"/>
</g>
<!-- Node32&#45;&gt;Node5 -->
<g id="edge61" class="edge">
<title>Node32&#45;&gt;Node5</title>
<path fill="none" stroke="midnightblue" d="M1492.65,-112.32C1480.28,-103.98 1461.37,-91.21 1446.76,-81.35"/>
<polygon fill="midnightblue" stroke="midnightblue" points="1448.57,-78.35 1438.32,-75.65 1444.65,-84.15 1448.57,-78.35"/>
</g>
<!-- Node32&#45;&gt;Node8 -->
<g id="edge62" class="edge">
<title>Node32&#45;&gt;Node8</title>
<path fill="none" stroke="midnightblue" d="M1466.95,-112.5C1422.47,-102.7 1349.55,-86.63 1303.34,-76.44"/>
<polygon fill="midnightblue" stroke="midnightblue" points="1303.86,-72.97 1293.34,-74.24 1302.35,-79.81 1303.86,-72.97"/>
</g>
<!-- Node33&#45;&gt;Node4 -->
<g id="edge64" class="edge">
<title>Node33&#45;&gt;Node4</title>
<path fill="none" stroke="midnightblue" d="M815.24,-168.32C800.28,-159.82 777.25,-146.73 759.77,-136.8"/>
<polygon fill="midnightblue" stroke="midnightblue" points="761.15,-133.55 750.73,-131.65 757.69,-139.64 761.15,-133.55"/>
</g>
<!-- Node34&#45;&gt;Node3 -->
<g id="edge68" class="edge">
<title>Node34&#45;&gt;Node3</title>
<path fill="none" stroke="midnightblue" d="M644.24,-168.15C644.89,-154.31 643.99,-127.53 629.5,-112 598.77,-79.09 545.66,-69.73 510.05,-67.34"/>
<polygon fill="midnightblue" stroke="midnightblue" points="510.23,-63.85 500.06,-66.82 509.87,-70.84 510.23,-63.85"/>
</g>
<!-- Node34&#45;&gt;Node4 -->
<g id="edge69" class="edge">
<title>Node34&#45;&gt;Node4</title>
<path fill="none" stroke="midnightblue" d="M658.28,-168.32C672.77,-159.82 695.07,-146.73 711.99,-136.8"/>
<polygon fill="midnightblue" stroke="midnightblue" points="713.9,-139.74 720.76,-131.65 710.36,-133.7 713.9,-139.74"/>
</g>
<!-- Node34&#45;&gt;Node12 -->
<g id="edge70" class="edge">
<title>Node34&#45;&gt;Node12</title>
<path fill="none" stroke="midnightblue" d="M635.24,-168.08C628.04,-160.3 617.39,-148.8 608.65,-139.37"/>
<polygon fill="midnightblue" stroke="midnightblue" points="610.97,-136.71 601.6,-131.75 605.83,-141.47 610.97,-136.71"/>
</g>
<!-- Node34&#45;&gt;Node14 -->
<g id="edge67" class="edge">
<title>Node34&#45;&gt;Node14</title>
<path fill="none" stroke="midnightblue" d="M676.44,-169.51C679.49,-168.95 682.55,-168.43 685.5,-168 880.29,-139.45 934.07,-156.2 1132.54,-132.14"/>
<polygon fill="midnightblue" stroke="midnightblue" points="1133.22,-135.59 1142.72,-130.89 1132.37,-128.64 1133.22,-135.59"/>
</g>
<!-- Node36&#45;&gt;Node3 -->
<g id="edge75" class="edge">
<title>Node36&#45;&gt;Node3</title>
<path fill="none" stroke="midnightblue" d="M123.47,-224.5C117.79,-211.13 109.4,-184.98 121.5,-168 158.6,-115.92 354.71,-83.33 437.05,-71.75"/>
<polygon fill="midnightblue" stroke="midnightblue" points="437.55,-75.22 446.97,-70.38 436.59,-68.28 437.55,-75.22"/>
</g>
<!-- Node36&#45;&gt;Node26 -->
<g id="edge74" class="edge">
<title>Node36&#45;&gt;Node26</title>
<path fill="none" stroke="midnightblue" d="M132.78,-224.08C137.21,-216.61 143.66,-205.72 149.12,-196.52"/>
<polygon fill="midnightblue" stroke="midnightblue" points="152.23,-198.14 154.31,-187.75 146.21,-194.57 152.23,-198.14"/>
</g>
</g>
</svg>
