<?xml version="1.0" encoding="UTF-8" standalone="no"?>
<!DOCTYPE svg PUBLIC "-//W3C//DTD SVG 1.1//EN"
 "http://www.w3.org/Graphics/SVG/1.1/DTD/svg11.dtd">
<!-- Generated by graphviz version 2.40.1 (0)
 -->
<!-- Title: jngl/all.hpp Pages: 1 -->
<svg width="1512pt" height="314pt"
 viewBox="0.00 0.00 1512.26 314.00" xmlns="http://www.w3.org/2000/svg" xmlns:xlink="http://www.w3.org/1999/xlink">
<g id="graph0" class="graph" transform="scale(1 1) rotate(0) translate(4 310)">
<title>jngl/all.hpp</title>
<polygon fill="#ffffff" stroke="transparent" points="-4,4 -4,-310 1508.2607,-310 1508.2607,4 -4,4"/>
<!-- Node0 -->
<g id="node1" class="node">
<title>Node0</title>
<polygon fill="#bfbfbf" stroke="#000000" points="769.7057,-285.5 769.7057,-305.5 831.5397,-305.5 831.5397,-285.5 769.7057,-285.5"/>
<text text-anchor="middle" x="800.6227" y="-292.5" font-family="Lato" font-size="10.00" fill="#000000">jngl/all.hpp</text>
</g>
<!-- Node1 -->
<g id="node2" class="node">
<title>Node1</title>
<g id="a_node2"><a xlink:href="Shader_8hpp_source.html" target="_top" xlink:title="Shader.hpp">
<polygon fill="#ffffff" stroke="#000000" points="1294.9897,-114.5 1294.9897,-134.5 1356.2557,-134.5 1356.2557,-114.5 1294.9897,-114.5"/>
<text text-anchor="middle" x="1325.6227" y="-121.5" font-family="Lato" font-size="10.00" fill="#000000">Shader.hpp</text>
</a>
</g>
</g>
<!-- Node0&#45;&gt;Node1 -->
<g id="edge1" class="edge">
<title>Node0&#45;&gt;Node1</title>
<path fill="none" stroke="#191970" d="M831.6475,-293.8671C929.4711,-288.5155 1227.1993,-270.6045 1264.6227,-249 1302.33,-227.2317 1317.2057,-174.065 1322.6887,-144.7411"/>
<polygon fill="#191970" stroke="#191970" points="1326.1562,-145.2262 1324.3583,-134.785 1319.2526,-144.0684 1326.1562,-145.2262"/>
</g>
<!-- Node4 -->
<g id="node5" class="node">
<title>Node4</title>
<g id="a_node5"><a xlink:href="ShaderProgram_8hpp_source.html" target="_top" xlink:title="ShaderProgram.hpp">
<polygon fill="#ffffff" stroke="#000000" points="360.7722,-114.5 360.7722,-134.5 456.4732,-134.5 456.4732,-114.5 360.7722,-114.5"/>
<text text-anchor="middle" x="408.6227" y="-121.5" font-family="Lato" font-size="10.00" fill="#000000">ShaderProgram.hpp</text>
</a>
</g>
</g>
<!-- Node0&#45;&gt;Node4 -->
<g id="edge4" class="edge">
<title>Node0&#45;&gt;Node4</title>
<path fill="none" stroke="#191970" d="M769.5243,-292.1333C709.2821,-285.2626 579.0448,-268.6075 538.6227,-249 487.1194,-224.0174 442.7626,-171.0444 421.6941,-142.9277"/>
<polygon fill="#191970" stroke="#191970" points="424.427,-140.7358 415.6924,-134.7393 418.7811,-144.8739 424.427,-140.7358"/>
</g>
<!-- Node7 -->
<g id="node8" class="node">
<title>Node7</title>
<g id="a_node8"><a xlink:href="Vertex_8hpp_source.html" target="_top" xlink:title="Vertex.hpp">
<polygon fill="#ffffff" stroke="#000000" points="205.2702,-228.5 205.2702,-248.5 265.9752,-248.5 265.9752,-228.5 205.2702,-228.5"/>
<text text-anchor="middle" x="235.6227" y="-235.5" font-family="Lato" font-size="10.00" fill="#000000">Vertex.hpp</text>
</a>
</g>
</g>
<!-- Node0&#45;&gt;Node7 -->
<g id="edge9" class="edge">
<title>Node0&#45;&gt;Node7</title>
<path fill="none" stroke="#191970" d="M769.5972,-294.3041C688.5579,-290.8412 464.0308,-279.0692 279.6227,-249 278.5376,-248.8231 277.4395,-248.6341 276.3332,-248.4349"/>
<polygon fill="#191970" stroke="#191970" points="276.773,-244.9534 266.2796,-246.4165 275.3951,-251.8165 276.773,-244.9534"/>
</g>
<!-- Node11 -->
<g id="node12" class="node">
<title>Node11</title>
<g id="a_node12"><a xlink:href="color_8hpp_source.html" target="_top" xlink:title="color.hpp">
<polygon fill="#ffffff" stroke="#000000" points="14.5992,-114.5 14.5992,-134.5 68.6462,-134.5 68.6462,-114.5 14.5992,-114.5"/>
<text text-anchor="middle" x="41.6227" y="-121.5" font-family="Lato" font-size="10.00" fill="#000000">color.hpp</text>
</a>
</g>
</g>
<!-- Node0&#45;&gt;Node11 -->
<g id="edge14" class="edge">
<title>Node0&#45;&gt;Node11</title>
<path fill="none" stroke="#191970" d="M769.5563,-294.2881C647.0463,-289.3756 201.19,-270.1936 141.6227,-249 100.1494,-234.2441 86.056,-227.9295 60.6227,-192 50.7436,-178.0437 45.9855,-159.0833 43.7029,-144.8107"/>
<polygon fill="#191970" stroke="#191970" points="47.1281,-144.012 42.3526,-134.5545 40.188,-144.9259 47.1281,-144.012"/>
</g>
<!-- Node12 -->
<g id="node13" class="node">
<title>Node12</title>
<g id="a_node13"><a xlink:href="Controller_8hpp_source.html" target="_top" xlink:title="Controller.hpp">
<polygon fill="#ffffff" stroke="#000000" points="584.3212,-228.5 584.3212,-248.5 658.9242,-248.5 658.9242,-228.5 584.3212,-228.5"/>
<text text-anchor="middle" x="621.6227" y="-235.5" font-family="Lato" font-size="10.00" fill="#000000">Controller.hpp</text>
</a>
</g>
</g>
<!-- Node0&#45;&gt;Node12 -->
<g id="edge16" class="edge">
<title>Node0&#45;&gt;Node12</title>
<path fill="none" stroke="#191970" d="M769.4433,-285.5714C739.8507,-276.148 695.1913,-261.9268 662.7061,-251.5824"/>
<polygon fill="#191970" stroke="#191970" points="663.636,-248.2054 653.0454,-248.5061 661.512,-254.8754 663.636,-248.2054"/>
</g>
<!-- Node13 -->
<g id="node14" class="node">
<title>Node13</title>
<g id="a_node14"><a xlink:href="input_8hpp.html" target="_top" xlink:title="input.hpp">
<polygon fill="#ffffff" stroke="#000000" points="557.5937,-171.5 557.5937,-191.5 611.6517,-191.5 611.6517,-171.5 557.5937,-171.5"/>
<text text-anchor="middle" x="584.6227" y="-178.5" font-family="Lato" font-size="10.00" fill="#000000">input.hpp</text>
</a>
</g>
</g>
<!-- Node0&#45;&gt;Node13 -->
<g id="edge38" class="edge">
<title>Node0&#45;&gt;Node13</title>
<path fill="none" stroke="#191970" d="M769.5641,-293.7715C713.6807,-289.9426 599.7418,-278.6134 575.6227,-249 564.825,-235.7426 569.0999,-215.9213 574.8633,-201.1837"/>
<polygon fill="#191970" stroke="#191970" points="578.108,-202.4995 578.9242,-191.9361 571.6988,-199.685 578.108,-202.4995"/>
</g>
<!-- Node15 -->
<g id="node16" class="node">
<title>Node15</title>
<g id="a_node16"><a xlink:href="debug_8hpp_source.html" target="_top" xlink:title="debug.hpp">
<polygon fill="#ffffff" stroke="#000000" points="944.6532,-228.5 944.6532,-248.5 1002.5922,-248.5 1002.5922,-228.5 944.6532,-228.5"/>
<text text-anchor="middle" x="973.6227" y="-235.5" font-family="Lato" font-size="10.00" fill="#000000">debug.hpp</text>
</a>
</g>
</g>
<!-- Node0&#45;&gt;Node15 -->
<g id="edge22" class="edge">
<title>Node0&#45;&gt;Node15</title>
<path fill="none" stroke="#191970" d="M831.1534,-285.4408C860.038,-275.9239 903.5142,-261.5993 934.8394,-251.2783"/>
<polygon fill="#191970" stroke="#191970" points="936.1466,-254.5328 944.5491,-248.0792 933.956,-247.8843 936.1466,-254.5328"/>
</g>
<!-- Node16 -->
<g id="node17" class="node">
<title>Node16</title>
<g id="a_node17"><a xlink:href="message_8hpp_source.html" target="_top" xlink:title="message.hpp">
<polygon fill="#ffffff" stroke="#000000" points="1098.9357,-171.5 1098.9357,-191.5 1166.3097,-191.5 1166.3097,-171.5 1098.9357,-171.5"/>
<text text-anchor="middle" x="1132.6227" y="-178.5" font-family="Lato" font-size="10.00" fill="#000000">message.hpp</text>
</a>
</g>
</g>
<!-- Node0&#45;&gt;Node16 -->
<g id="edge53" class="edge">
<title>Node0&#45;&gt;Node16</title>
<path fill="none" stroke="#191970" d="M831.706,-293.3428C877.6704,-289.2754 965.7525,-278.0901 1034.6227,-249 1064.4941,-236.3826 1094.5763,-213.8623 1113.3814,-198.3259"/>
<polygon fill="#191970" stroke="#191970" points="1115.8012,-200.8636 1121.1867,-191.7396 1111.2869,-195.5137 1115.8012,-200.8636"/>
</g>
<!-- Node19 -->
<g id="node20" class="node">
<title>Node19</title>
<g id="a_node20"><a xlink:href="drawable_8hpp_source.html" target="_top" xlink:title="drawable.hpp">
<polygon fill="#ffffff" stroke="#000000" points="272.5507,-114.5 272.5507,-134.5 342.6947,-134.5 342.6947,-114.5 272.5507,-114.5"/>
<text text-anchor="middle" x="307.6227" y="-121.5" font-family="Lato" font-size="10.00" fill="#000000">drawable.hpp</text>
</a>
</g>
</g>
<!-- Node0&#45;&gt;Node19 -->
<g id="edge27" class="edge">
<title>Node0&#45;&gt;Node19</title>
<path fill="none" stroke="#191970" d="M769.5634,-293.2018C719.6732,-288.8052 619.1183,-277.0213 538.6227,-249 457.7921,-220.862 371.1944,-166.9742 330.8244,-140.283"/>
<polygon fill="#191970" stroke="#191970" points="332.5175,-137.2051 322.2567,-134.5658 328.6321,-143.0278 332.5175,-137.2051"/>
</g>
<!-- Node20 -->
<g id="node21" class="node">
<title>Node20</title>
<g id="a_node21"><a xlink:href="types_8hpp_source.html" target="_top" xlink:title="types.hpp">
<polygon fill="#ffffff" stroke="#000000" points="329.3192,-57.5 329.3192,-77.5 383.9262,-77.5 383.9262,-57.5 329.3192,-57.5"/>
<text text-anchor="middle" x="356.6227" y="-64.5" font-family="Lato" font-size="10.00" fill="#000000">types.hpp</text>
</a>
</g>
</g>
<!-- Node0&#45;&gt;Node20 -->
<g id="edge83" class="edge">
<title>Node0&#45;&gt;Node20</title>
<path fill="none" stroke="#191970" d="M769.6658,-294.2028C712.6146,-291.0949 587.5782,-280.922 487.6227,-249 381.2107,-215.016 322.012,-230.2319 263.6227,-135 258.7442,-127.0432 258.7159,-121.9394 263.6227,-114 270.1414,-103.4526 296.4444,-90.8349 319.4213,-81.406"/>
<polygon fill="#191970" stroke="#191970" points="321.0125,-84.5392 328.9975,-77.5757 318.4128,-78.0399 321.0125,-84.5392"/>
</g>
<!-- Node21 -->
<g id="node22" class="node">
<title>Node21</title>
<g id="a_node22"><a xlink:href="font_8hpp_source.html" target="_top" xlink:title="font.hpp">
<polygon fill="#ffffff" stroke="#000000" points="667.8187,-171.5 667.8187,-191.5 717.4267,-191.5 717.4267,-171.5 667.8187,-171.5"/>
<text text-anchor="middle" x="692.6227" y="-178.5" font-family="Lato" font-size="10.00" fill="#000000">font.hpp</text>
</a>
</g>
</g>
<!-- Node0&#45;&gt;Node21 -->
<g id="edge30" class="edge">
<title>Node0&#45;&gt;Node21</title>
<path fill="none" stroke="#191970" d="M792.5218,-285.0781C781.8129,-271.5004 762.1321,-247.2267 743.6227,-228 733.7546,-217.7494 722.0677,-207.0031 712.3727,-198.4267"/>
<polygon fill="#191970" stroke="#191970" points="714.6137,-195.7369 704.781,-191.7913 710.007,-201.0075 714.6137,-195.7369"/>
</g>
<!-- Node22 -->
<g id="node23" class="node">
<title>Node22</title>
<g id="a_node23"><a xlink:href="framebuffer_8hpp_source.html" target="_top" xlink:title="framebuffer.hpp">
<polygon fill="#ffffff" stroke="#000000" points="1294.0022,-57.5 1294.0022,-77.5 1375.2432,-77.5 1375.2432,-57.5 1294.0022,-57.5"/>
<text text-anchor="middle" x="1334.6227" y="-64.5" font-family="Lato" font-size="10.00" fill="#000000">framebuffer.hpp</text>
</a>
</g>
</g>
<!-- Node0&#45;&gt;Node22 -->
<g id="edge36" class="edge">
<title>Node0&#45;&gt;Node22</title>
<path fill="none" stroke="#191970" d="M831.6278,-294.1097C933.1432,-289.3454 1251.3152,-272.6559 1290.6227,-249 1342.5866,-217.7274 1348.2249,-193.0994 1365.6227,-135 1368.3001,-126.0589 1368.3274,-122.9329 1365.6227,-114 1362.5256,-103.7708 1356.354,-93.735 1350.3272,-85.6202"/>
<polygon fill="#191970" stroke="#191970" points="1352.9572,-83.3039 1343.9968,-77.6505 1347.476,-87.6578 1352.9572,-83.3039"/>
</g>
<!-- Node23 -->
<g id="node24" class="node">
<title>Node23</title>
<g id="a_node24"><a xlink:href="job_8hpp_source.html" target="_top" xlink:title="job.hpp">
<polygon fill="#ffffff" stroke="#000000" points="1120.4832,-114.5 1120.4832,-134.5 1166.7622,-134.5 1166.7622,-114.5 1120.4832,-114.5"/>
<text text-anchor="middle" x="1143.6227" y="-121.5" font-family="Lato" font-size="10.00" fill="#000000">job.hpp</text>
</a>
</g>
</g>
<!-- Node0&#45;&gt;Node23 -->
<g id="edge39" class="edge">
<title>Node0&#45;&gt;Node23</title>
<path fill="none" stroke="#191970" d="M831.8343,-293.2441C882.4935,-288.8851 985.2461,-277.1263 1067.6227,-249 1118.9863,-231.4626 1147.5976,-238.4798 1175.6227,-192 1185.3631,-175.8456 1173.7046,-156.2576 1161.8194,-142.3529"/>
<polygon fill="#191970" stroke="#191970" points="1164.3017,-139.8816 1154.9555,-134.8916 1159.1501,-144.6208 1164.3017,-139.8816"/>
</g>
<!-- Node24 -->
<g id="node25" class="node">
<title>Node24</title>
<g id="a_node25"><a xlink:href="main_8hpp_source.html" target="_top" xlink:title="main.hpp">
<polygon fill="#ffffff" stroke="#000000" points="828.8742,-228.5 828.8742,-248.5 882.3712,-248.5 882.3712,-228.5 828.8742,-228.5"/>
<text text-anchor="middle" x="855.6227" y="-235.5" font-family="Lato" font-size="10.00" fill="#000000">main.hpp</text>
</a>
</g>
</g>
<!-- Node0&#45;&gt;Node24 -->
<g id="edge42" class="edge">
<title>Node0&#45;&gt;Node24</title>
<path fill="none" stroke="#191970" d="M810.4556,-285.3095C818.2768,-277.204 829.4042,-265.672 838.6571,-256.0826"/>
<polygon fill="#191970" stroke="#191970" points="841.4499,-258.2288 845.875,-248.6022 836.4126,-253.3681 841.4499,-258.2288"/>
</g>
<!-- Node25 -->
<g id="node26" class="node">
<title>Node25</title>
<g id="a_node26"><a xlink:href="other_8hpp.html" target="_top" xlink:title="other.hpp">
<polygon fill="#ffffff" stroke="#000000" points="773.5992,-171.5 773.5992,-191.5 827.6462,-191.5 827.6462,-171.5 773.5992,-171.5"/>
<text text-anchor="middle" x="800.6227" y="-178.5" font-family="Lato" font-size="10.00" fill="#000000">other.hpp</text>
</a>
</g>
</g>
<!-- Node0&#45;&gt;Node25 -->
<g id="edge54" class="edge">
<title>Node0&#45;&gt;Node25</title>
<path fill="none" stroke="#191970" d="M800.6227,-285.3833C800.6227,-266.6703 800.6227,-226.3266 800.6227,-201.7866"/>
<polygon fill="#191970" stroke="#191970" points="804.1228,-201.7579 800.6227,-191.7579 797.1228,-201.758 804.1228,-201.7579"/>
</g>
<!-- Node26 -->
<g id="node27" class="node">
<title>Node26</title>
<g id="a_node27"><a xlink:href="window_8hpp.html" target="_top" xlink:title="Functions related to the main window. ">
<polygon fill="#ffffff" stroke="#000000" points="1014.7642,-171.5 1014.7642,-191.5 1080.4812,-191.5 1080.4812,-171.5 1014.7642,-171.5"/>
<text text-anchor="middle" x="1047.6227" y="-178.5" font-family="Lato" font-size="10.00" fill="#000000">window.hpp</text>
</a>
</g>
</g>
<!-- Node0&#45;&gt;Node26 -->
<g id="edge88" class="edge">
<title>Node0&#45;&gt;Node26</title>
<path fill="none" stroke="#191970" d="M831.8412,-291.8583C883.4387,-285.317 983.6033,-270.2508 1011.6227,-249 1027.0989,-237.2624 1036.6417,-216.9058 1041.9795,-201.609"/>
<polygon fill="#191970" stroke="#191970" points="1045.3416,-202.5854 1045.0243,-191.9953 1038.6683,-200.4718 1045.3416,-202.5854"/>
</g>
<!-- Node27 -->
<g id="node28" class="node">
<title>Node27</title>
<g id="a_node28"><a xlink:href="matrix_8hpp_source.html" target="_top" xlink:title="matrix.hpp">
<polygon fill="#ffffff" stroke="#000000" points="1392.8202,-57.5 1392.8202,-77.5 1452.4252,-77.5 1452.4252,-57.5 1392.8202,-57.5"/>
<text text-anchor="middle" x="1422.6227" y="-64.5" font-family="Lato" font-size="10.00" fill="#000000">matrix.hpp</text>
</a>
</g>
</g>
<!-- Node0&#45;&gt;Node27 -->
<g id="edge51" class="edge">
<title>Node0&#45;&gt;Node27</title>
<path fill="none" stroke="#191970" d="M831.895,-294.1349C937.499,-289.3287 1276.7066,-272.219 1319.6227,-249 1381.9554,-215.276 1409.1677,-127.1206 1418.5377,-87.4055"/>
<polygon fill="#191970" stroke="#191970" points="1421.9698,-88.0949 1420.7218,-77.5738 1415.1364,-86.5768 1421.9698,-88.0949"/>
</g>
<!-- Node28 -->
<g id="node29" class="node">
<title>Node28</title>
<g id="a_node29"><a xlink:href="screen_8hpp.html" target="_top" xlink:title="screen.hpp">
<polygon fill="#ffffff" stroke="#000000" points="148.1052,-171.5 148.1052,-191.5 207.1402,-191.5 207.1402,-171.5 148.1052,-171.5"/>
<text text-anchor="middle" x="177.6227" y="-178.5" font-family="Lato" font-size="10.00" fill="#000000">screen.hpp</text>
</a>
</g>
</g>
<!-- Node0&#45;&gt;Node28 -->
<g id="edge55" class="edge">
<title>Node0&#45;&gt;Node28</title>
<path fill="none" stroke="#191970" d="M769.6112,-295.1596C652.4563,-293.5999 241.2064,-285.5442 196.6227,-249 182.8336,-237.6974 178.6032,-217.2355 177.5077,-201.7932"/>
<polygon fill="#191970" stroke="#191970" points="181.0006,-201.5176 177.1722,-191.6387 174.0044,-201.7489 181.0006,-201.5176"/>
</g>
<!-- Node29 -->
<g id="node30" class="node">
<title>Node29</title>
<g id="a_node30"><a xlink:href="shapes_8hpp_source.html" target="_top" xlink:title="shapes.hpp">
<polygon fill="#ffffff" stroke="#000000" points="69.5447,-171.5 69.5447,-191.5 129.7007,-191.5 129.7007,-171.5 69.5447,-171.5"/>
<text text-anchor="middle" x="99.6227" y="-178.5" font-family="Lato" font-size="10.00" fill="#000000">shapes.hpp</text>
</a>
</g>
</g>
<!-- Node0&#45;&gt;Node29 -->
<g id="edge59" class="edge">
<title>Node0&#45;&gt;Node29</title>
<path fill="none" stroke="#191970" d="M769.7,-294.3019C651.8262,-289.5829 234.545,-271.4348 179.6227,-249 153.2634,-238.2327 129.2017,-215.3592 114.4996,-199.2325"/>
<polygon fill="#191970" stroke="#191970" points="116.9379,-196.7054 107.702,-191.5142 111.6847,-201.3319 116.9379,-196.7054"/>
</g>
<!-- Node30 -->
<g id="node31" class="node">
<title>Node30</title>
<g id="a_node31"><a xlink:href="sound_8hpp_source.html" target="_top" xlink:title="sound.hpp">
<polygon fill="#ffffff" stroke="#000000" points="1222.9282,-171.5 1222.9282,-191.5 1280.3172,-191.5 1280.3172,-171.5 1222.9282,-171.5"/>
<text text-anchor="middle" x="1251.6227" y="-178.5" font-family="Lato" font-size="10.00" fill="#000000">sound.hpp</text>
</a>
</g>
</g>
<!-- Node0&#45;&gt;Node30 -->
<g id="edge63" class="edge">
<title>Node0&#45;&gt;Node30</title>
<path fill="none" stroke="#191970" d="M831.6917,-293.4996C921.4559,-287.5071 1176.8068,-268.8821 1208.6227,-249 1226.3111,-237.9463 1238.0407,-216.6458 1244.7176,-200.9167"/>
<polygon fill="#191970" stroke="#191970" points="1247.9987,-202.1364 1248.3874,-191.5487 1241.481,-199.5831 1247.9987,-202.1364"/>
</g>
<!-- Node31 -->
<g id="node32" class="node">
<title>Node31</title>
<g id="a_node32"><a xlink:href="sprite_8hpp_source.html" target="_top" xlink:title="sprite.hpp">
<polygon fill="#ffffff" stroke="#000000" points="483.7652,-171.5 483.7652,-191.5 539.4802,-191.5 539.4802,-171.5 483.7652,-171.5"/>
<text text-anchor="middle" x="511.6227" y="-178.5" font-family="Lato" font-size="10.00" fill="#000000">sprite.hpp</text>
</a>
</g>
</g>
<!-- Node0&#45;&gt;Node31 -->
<g id="edge66" class="edge">
<title>Node0&#45;&gt;Node31</title>
<path fill="none" stroke="#191970" d="M769.4319,-292.0159C713.6769,-285.3528 599.5723,-269.6144 565.6227,-249 546.289,-237.2604 531.003,-215.9472 521.7001,-200.4023"/>
<polygon fill="#191970" stroke="#191970" points="524.6838,-198.5688 516.6982,-191.6061 518.5988,-202.0291 524.6838,-198.5688"/>
</g>
<!-- Node32 -->
<g id="node33" class="node">
<title>Node32</title>
<g id="a_node33"><a xlink:href="text_8hpp.html" target="_top" xlink:title="text.hpp">
<polygon fill="#ffffff" stroke="#000000" points="883.3742,-171.5 883.3742,-191.5 931.8712,-191.5 931.8712,-171.5 883.3742,-171.5"/>
<text text-anchor="middle" x="907.6227" y="-178.5" font-family="Lato" font-size="10.00" fill="#000000">text.hpp</text>
</a>
</g>
</g>
<!-- Node0&#45;&gt;Node32 -->
<g id="edge75" class="edge">
<title>Node0&#45;&gt;Node32</title>
<path fill="none" stroke="#191970" d="M831.6023,-287.0914C851.6072,-280.0913 876.6135,-268.1184 891.6227,-249 902.1715,-235.5632 905.9427,-216.2938 907.2083,-201.7804"/>
<polygon fill="#191970" stroke="#191970" points="910.7036,-201.9616 907.7586,-191.7843 903.7141,-201.5768 910.7036,-201.9616"/>
</g>
<!-- Node33 -->
<g id="node34" class="node">
<title>Node33</title>
<g id="a_node34"><a xlink:href="time_8hpp_source.html" target="_top" xlink:title="time.hpp">
<polygon fill="#ffffff" stroke="#000000" points="1452.9847,-228.5 1452.9847,-248.5 1504.2607,-248.5 1504.2607,-228.5 1452.9847,-228.5"/>
<text text-anchor="middle" x="1478.6227" y="-235.5" font-family="Lato" font-size="10.00" fill="#000000">time.hpp</text>
</a>
</g>
</g>
<!-- Node0&#45;&gt;Node33 -->
<g id="edge81" class="edge">
<title>Node0&#45;&gt;Node33</title>
<path fill="none" stroke="#191970" d="M831.6167,-295.1174C924.1443,-293.5725 1206.2409,-285.9381 1436.6227,-249 1438.5708,-248.6877 1440.561,-248.329 1442.5642,-247.9367"/>
<polygon fill="#191970" stroke="#191970" points="1443.5304,-251.3083 1452.5532,-245.7551 1442.0367,-244.4695 1443.5304,-251.3083"/>
</g>
<!-- Node34 -->
<g id="node35" class="node">
<title>Node34</title>
<g id="a_node35"><a xlink:href="Video_8hpp_source.html" target="_top" xlink:title="Video.hpp">
<polygon fill="#ffffff" stroke="#000000" points="676.6542,-228.5 676.6542,-248.5 734.5912,-248.5 734.5912,-228.5 676.6542,-228.5"/>
<text text-anchor="middle" x="705.6227" y="-235.5" font-family="Lato" font-size="10.00" fill="#000000">Video.hpp</text>
</a>
</g>
</g>
<!-- Node0&#45;&gt;Node34 -->
<g id="edge84" class="edge">
<title>Node0&#45;&gt;Node34</title>
<path fill="none" stroke="#191970" d="M783.6386,-285.3095C769.0487,-276.5556 747.7976,-263.8049 731.158,-253.8211"/>
<polygon fill="#191970" stroke="#191970" points="732.8355,-250.746 722.4598,-248.6022 729.234,-256.7485 732.8355,-250.746"/>
</g>
<!-- Node35 -->
<g id="node36" class="node">
<title>Node35</title>
<g id="a_node36"><a xlink:href="work_8hpp.html" target="_top" xlink:title="work.hpp">
<polygon fill="#ffffff" stroke="#000000" points="1222.5987,-114.5 1222.5987,-134.5 1276.6467,-134.5 1276.6467,-114.5 1222.5987,-114.5"/>
<text text-anchor="middle" x="1249.6227" y="-121.5" font-family="Lato" font-size="10.00" fill="#000000">work.hpp</text>
</a>
</g>
</g>
<!-- Node0&#45;&gt;Node35 -->
<g id="edge89" class="edge">
<title>Node0&#45;&gt;Node35</title>
<path fill="none" stroke="#191970" d="M831.5451,-294.8609C918.322,-292.6499 1162.4161,-283.4506 1233.6227,-249 1265.5916,-233.5331 1276.1775,-224.8703 1289.6227,-192 1297.0377,-173.8722 1283.5057,-154.8146 1270.2172,-141.59"/>
<polygon fill="#191970" stroke="#191970" points="1272.2997,-138.7486 1262.5815,-134.5287 1267.547,-143.8879 1272.2997,-138.7486"/>
</g>
<!-- Node2 -->
<g id="node3" class="node">
<title>Node2</title>
<g id="a_node3"><a xlink:href="dll_8hpp_source.html" target="_top" xlink:title="dll.hpp">
<polygon fill="#ffffff" stroke="#000000" points="909.5937,-.5 909.5937,-20.5 953.6517,-20.5 953.6517,-.5 909.5937,-.5"/>
<text text-anchor="middle" x="931.6227" y="-7.5" font-family="Lato" font-size="10.00" fill="#000000">dll.hpp</text>
</a>
</g>
</g>
<!-- Node1&#45;&gt;Node2 -->
<g id="edge2" class="edge">
<title>Node1&#45;&gt;Node2</title>
<path fill="none" stroke="#191970" d="M1314.68,-114.3264C1297.6838,-99.1564 1263.2764,-70.9066 1228.6227,-57 1180.9057,-37.851 1030.707,-20.6332 964.0434,-13.717"/>
<polygon fill="#191970" stroke="#191970" points="964.0233,-10.1968 953.7186,-12.6592 963.3098,-17.1603 964.0233,-10.1968"/>
</g>
<!-- Node3 -->
<g id="node4" class="node">
<title>Node3</title>
<polygon fill="#ffffff" stroke="#bfbfbf" points="730.9597,-57.5 730.9597,-77.5 780.2857,-77.5 780.2857,-57.5 730.9597,-57.5"/>
<text text-anchor="middle" x="755.6227" y="-64.5" font-family="Lato" font-size="10.00" fill="#000000">memory</text>
</g>
<!-- Node1&#45;&gt;Node3 -->
<g id="edge3" class="edge">
<title>Node1&#45;&gt;Node3</title>
<path fill="none" stroke="#191970" d="M1294.7276,-115.8378C1291.6664,-115.146 1288.5937,-114.5164 1285.6227,-114 1100.8282,-81.8772 875.723,-71.4576 790.5309,-68.5219"/>
<polygon fill="#191970" stroke="#191970" points="790.4924,-65.0188 780.3818,-68.1852 790.2603,-72.015 790.4924,-65.0188"/>
</g>
<!-- Node4&#45;&gt;Node3 -->
<g id="edge8" class="edge">
<title>Node4&#45;&gt;Node3</title>
<path fill="none" stroke="#191970" d="M456.5073,-116.6342C527.3357,-104.9996 658.3621,-83.4765 720.7913,-73.2216"/>
<polygon fill="#191970" stroke="#191970" points="721.6121,-76.6338 730.9125,-71.559 720.4773,-69.7263 721.6121,-76.6338"/>
</g>
<!-- Node5 -->
<g id="node6" class="node">
<title>Node5</title>
<g id="a_node6"><a xlink:href="Finally_8hpp_source.html" target="_top" xlink:title="Finally.hpp">
<polygon fill="#ffffff" stroke="#000000" points="439.7052,-57.5 439.7052,-77.5 501.5402,-77.5 501.5402,-57.5 439.7052,-57.5"/>
<text text-anchor="middle" x="470.6227" y="-64.5" font-family="Lato" font-size="10.00" fill="#000000">Finally.hpp</text>
</a>
</g>
</g>
<!-- Node4&#45;&gt;Node5 -->
<g id="edge5" class="edge">
<title>Node4&#45;&gt;Node5</title>
<path fill="none" stroke="#191970" d="M419.7071,-114.3095C428.7,-106.0419 441.5705,-94.2093 452.1211,-84.5096"/>
<polygon fill="#191970" stroke="#191970" points="454.6414,-86.9469 459.6343,-77.6022 449.9038,-81.7937 454.6414,-86.9469"/>
</g>
<!-- Node5&#45;&gt;Node2 -->
<g id="edge6" class="edge">
<title>Node5&#45;&gt;Node2</title>
<path fill="none" stroke="#191970" d="M501.9978,-59.6814C506.5514,-58.6919 511.1952,-57.7613 515.6227,-57 657.6611,-32.578 829.2864,-18.0884 899.4151,-12.7987"/>
<polygon fill="#191970" stroke="#191970" points="899.6821,-16.2886 909.395,-12.0567 899.163,-9.3079 899.6821,-16.2886"/>
</g>
<!-- Node6 -->
<g id="node7" class="node">
<title>Node6</title>
<polygon fill="#ffffff" stroke="#bfbfbf" points="442.3507,-.5 442.3507,-20.5 498.8947,-20.5 498.8947,-.5 442.3507,-.5"/>
<text text-anchor="middle" x="470.6227" y="-7.5" font-family="Lato" font-size="10.00" fill="#000000">functional</text>
</g>
<!-- Node5&#45;&gt;Node6 -->
<g id="edge7" class="edge">
<title>Node5&#45;&gt;Node6</title>
<path fill="none" stroke="#191970" d="M470.6227,-57.3095C470.6227,-49.9335 470.6227,-39.72 470.6227,-30.715"/>
<polygon fill="#191970" stroke="#191970" points="474.1228,-30.6022 470.6227,-20.6022 467.1228,-30.6023 474.1228,-30.6022"/>
</g>
<!-- Node8 -->
<g id="node9" class="node">
<title>Node8</title>
<g id="a_node9"><a xlink:href="Vec2_8hpp.html" target="_top" xlink:title="Vec2.hpp">
<polygon fill="#ffffff" stroke="#000000" points="162.3242,-114.5 162.3242,-134.5 216.9212,-134.5 216.9212,-114.5 162.3242,-114.5"/>
<text text-anchor="middle" x="189.6227" y="-121.5" font-family="Lato" font-size="10.00" fill="#000000">Vec2.hpp</text>
</a>
</g>
</g>
<!-- Node7&#45;&gt;Node8 -->
<g id="edge10" class="edge">
<title>Node7&#45;&gt;Node8</title>
<path fill="none" stroke="#191970" d="M233.5638,-228.165C230.6876,-214.6813 224.8762,-190.509 216.6227,-171 212.6059,-161.5052 207.03,-151.5487 201.9877,-143.2958"/>
<polygon fill="#191970" stroke="#191970" points="204.9322,-141.4034 196.6331,-134.8173 199.0137,-145.1413 204.9322,-141.4034"/>
</g>
<!-- Node8&#45;&gt;Node2 -->
<g id="edge11" class="edge">
<title>Node8&#45;&gt;Node2</title>
<path fill="none" stroke="#191970" d="M177.1186,-114.312C161.1492,-100.1196 137.4126,-74.2079 153.6227,-57 179.5634,-29.4626 754.0918,-14.5476 898.7787,-11.2199"/>
<polygon fill="#191970" stroke="#191970" points="899.2764,-14.7096 909.1944,-10.9834 899.1175,-7.7114 899.2764,-14.7096"/>
</g>
<!-- Node9 -->
<g id="node10" class="node">
<title>Node9</title>
<polygon fill="#ffffff" stroke="#bfbfbf" points="223.9312,-57.5 223.9312,-77.5 311.3142,-77.5 311.3142,-57.5 223.9312,-57.5"/>
<text text-anchor="middle" x="267.6227" y="-64.5" font-family="Lato" font-size="10.00" fill="#000000">boost/version.hpp</text>
</g>
<!-- Node8&#45;&gt;Node9 -->
<g id="edge12" class="edge">
<title>Node8&#45;&gt;Node9</title>
<path fill="none" stroke="#191970" d="M203.5676,-114.3095C215.214,-105.7987 232.0299,-93.5102 245.5099,-83.6594"/>
<polygon fill="#191970" stroke="#191970" points="247.7898,-86.3283 253.7986,-77.6022 243.6596,-80.6766 247.7898,-86.3283"/>
</g>
<!-- Node10 -->
<g id="node11" class="node">
<title>Node10</title>
<polygon fill="#ffffff" stroke="#bfbfbf" points="163.0147,-57.5 163.0147,-77.5 206.2307,-77.5 206.2307,-57.5 163.0147,-57.5"/>
<text text-anchor="middle" x="184.6227" y="-64.5" font-family="Lato" font-size="10.00" fill="#000000">iosfwd</text>
</g>
<!-- Node8&#45;&gt;Node10 -->
<g id="edge13" class="edge">
<title>Node8&#45;&gt;Node10</title>
<path fill="none" stroke="#191970" d="M188.7288,-114.3095C188.0818,-106.9335 187.1859,-96.72 186.396,-87.715"/>
<polygon fill="#191970" stroke="#191970" points="189.8694,-87.2581 185.5089,-77.6022 182.8962,-87.8699 189.8694,-87.2581"/>
</g>
<!-- Node11&#45;&gt;Node2 -->
<g id="edge15" class="edge">
<title>Node11&#45;&gt;Node2</title>
<path fill="none" stroke="#191970" d="M44.4726,-114.3102C49.3967,-98.8478 61.0994,-69.8968 82.6227,-57 118.2544,-35.6495 747.7312,-15.8913 899.0914,-11.4348"/>
<polygon fill="#191970" stroke="#191970" points="899.6463,-14.9201 909.5397,-11.1292 899.4416,-7.9231 899.6463,-14.9201"/>
</g>
<!-- Node12&#45;&gt;Node13 -->
<g id="edge17" class="edge">
<title>Node12&#45;&gt;Node13</title>
<path fill="none" stroke="#191970" d="M615.0079,-228.3095C609.9568,-220.5282 602.856,-209.589 596.7888,-200.2423"/>
<polygon fill="#191970" stroke="#191970" points="599.5608,-198.0844 591.1803,-191.6022 593.6893,-201.8957 599.5608,-198.0844"/>
</g>
<!-- Node13&#45;&gt;Node2 -->
<g id="edge18" class="edge">
<title>Node13&#45;&gt;Node2</title>
<path fill="none" stroke="#191970" d="M589.0668,-171.3184C595.6461,-157.1336 609.1108,-131.2309 626.6227,-114 661.7206,-79.4655 675.8809,-75.2257 721.6227,-57 782.0632,-32.9177 857.5081,-20.0766 899.536,-14.3306"/>
<polygon fill="#191970" stroke="#191970" points="900.0152,-17.7978 909.4716,-13.02 899.0997,-10.8579 900.0152,-17.7978"/>
</g>
<!-- Node13&#45;&gt;Node3 -->
<g id="edge21" class="edge">
<title>Node13&#45;&gt;Node3</title>
<path fill="none" stroke="#191970" d="M593.4102,-171.2643C606.0471,-157.0151 630.5971,-131.0364 655.6227,-114 676.0247,-100.1112 701.2355,-88.4193 721.2393,-80.2335"/>
<polygon fill="#191970" stroke="#191970" points="722.6046,-83.4571 730.5972,-76.5023 720.012,-76.9549 722.6046,-83.4571"/>
</g>
<!-- Node13&#45;&gt;Node8 -->
<g id="edge19" class="edge">
<title>Node13&#45;&gt;Node8</title>
<path fill="none" stroke="#191970" d="M557.218,-173.022C554.3316,-172.2747 551.4275,-171.5824 548.6227,-171 423.6157,-145.0447 390.1633,-151.9686 263.6227,-135 251.6863,-133.3994 238.6783,-131.5792 226.9446,-129.9091"/>
<polygon fill="#191970" stroke="#191970" points="227.4151,-126.4409 217.0202,-128.4893 226.4237,-133.3703 227.4151,-126.4409"/>
</g>
<!-- Node14 -->
<g id="node15" class="node">
<title>Node14</title>
<polygon fill="#ffffff" stroke="#bfbfbf" points="664.1297,-114.5 664.1297,-134.5 705.1157,-134.5 705.1157,-114.5 664.1297,-114.5"/>
<text text-anchor="middle" x="684.6227" y="-121.5" font-family="Lato" font-size="10.00" fill="#000000">vector</text>
</g>
<!-- Node13&#45;&gt;Node14 -->
<g id="edge20" class="edge">
<title>Node13&#45;&gt;Node14</title>
<path fill="none" stroke="#191970" d="M602.5007,-171.3095C617.8586,-162.5556 640.2282,-149.8049 657.7435,-139.8211"/>
<polygon fill="#191970" stroke="#191970" points="659.945,-142.595 666.8995,-134.6022 656.4785,-136.5136 659.945,-142.595"/>
</g>
<!-- Node15&#45;&gt;Node16 -->
<g id="edge23" class="edge">
<title>Node15&#45;&gt;Node16</title>
<path fill="none" stroke="#191970" d="M1001.6827,-228.4408C1027.6012,-219.1492 1066.303,-205.275 1094.9144,-195.0181"/>
<polygon fill="#191970" stroke="#191970" points="1096.344,-198.2238 1104.5763,-191.5544 1093.9817,-191.6344 1096.344,-198.2238"/>
</g>
<!-- Node18 -->
<g id="node19" class="node">
<title>Node18</title>
<polygon fill="#ffffff" stroke="#bfbfbf" points="950.3512,-171.5 950.3512,-191.5 996.8942,-191.5 996.8942,-171.5 950.3512,-171.5"/>
<text text-anchor="middle" x="973.6227" y="-178.5" font-family="Lato" font-size="10.00" fill="#000000">sstream</text>
</g>
<!-- Node15&#45;&gt;Node18 -->
<g id="edge26" class="edge">
<title>Node15&#45;&gt;Node18</title>
<path fill="none" stroke="#191970" d="M973.6227,-228.3095C973.6227,-220.9335 973.6227,-210.72 973.6227,-201.715"/>
<polygon fill="#191970" stroke="#191970" points="977.1228,-201.6022 973.6227,-191.6022 970.1228,-201.6023 977.1228,-201.6022"/>
</g>
<!-- Node16&#45;&gt;Node2 -->
<g id="edge24" class="edge">
<title>Node16&#45;&gt;Node2</title>
<path fill="none" stroke="#191970" d="M1123.6067,-171.4249C1103.5123,-149.2764 1053.0018,-95.2778 1004.6227,-57 990.1229,-45.5276 972.6969,-34.341 958.5075,-25.8158"/>
<polygon fill="#191970" stroke="#191970" points="960.1039,-22.6938 949.7137,-20.6216 956.5439,-28.721 960.1039,-22.6938"/>
</g>
<!-- Node17 -->
<g id="node18" class="node">
<title>Node17</title>
<polygon fill="#ffffff" stroke="#bfbfbf" points="874.2347,-114.5 874.2347,-134.5 913.0107,-134.5 913.0107,-114.5 874.2347,-114.5"/>
<text text-anchor="middle" x="893.6227" y="-121.5" font-family="Lato" font-size="10.00" fill="#000000">string</text>
</g>
<!-- Node16&#45;&gt;Node17 -->
<g id="edge25" class="edge">
<title>Node16&#45;&gt;Node17</title>
<path fill="none" stroke="#191970" d="M1098.8267,-173.2253C1095.7156,-172.4703 1092.6112,-171.7194 1089.6227,-171 1030.5724,-156.7858 961.4363,-140.4567 923.0759,-131.4241"/>
<polygon fill="#191970" stroke="#191970" points="923.6423,-127.9618 913.1064,-129.0777 922.0386,-134.7756 923.6423,-127.9618"/>
</g>
<!-- Node19&#45;&gt;Node2 -->
<g id="edge29" class="edge">
<title>Node19&#45;&gt;Node2</title>
<path fill="none" stroke="#191970" d="M326.2064,-114.3633C343.4351,-104.9587 369.7763,-90.5619 392.6227,-78 409.5316,-68.7028 412.1809,-62.6786 430.6227,-57 518.9367,-29.8065 803.4633,-15.8009 899.5675,-11.7585"/>
<polygon fill="#191970" stroke="#191970" points="899.7139,-15.2555 909.5609,-11.3457 899.425,-8.2615 899.7139,-15.2555"/>
</g>
<!-- Node19&#45;&gt;Node20 -->
<g id="edge28" class="edge">
<title>Node19&#45;&gt;Node20</title>
<path fill="none" stroke="#191970" d="M316.3829,-114.3095C323.2812,-106.2851 333.0664,-94.9022 341.2601,-85.3708"/>
<polygon fill="#191970" stroke="#191970" points="344.0736,-87.467 347.9384,-77.6022 338.7653,-82.9038 344.0736,-87.467"/>
</g>
<!-- Node21&#45;&gt;Node2 -->
<g id="edge32" class="edge">
<title>Node21&#45;&gt;Node2</title>
<path fill="none" stroke="#191970" d="M708.8409,-171.4621C723.5691,-162.2439 745.8011,-148.0718 764.6227,-135 818.1083,-97.8538 878.9772,-51.3659 910.3794,-27.057"/>
<polygon fill="#191970" stroke="#191970" points="912.6692,-29.7104 918.4244,-20.815 908.3781,-24.1798 912.6692,-29.7104"/>
</g>
<!-- Node21&#45;&gt;Node3 -->
<g id="edge34" class="edge">
<title>Node21&#45;&gt;Node3</title>
<path fill="none" stroke="#191970" d="M709.9749,-171.4121C722.3372,-163.244 738.1996,-150.5579 746.6227,-135 754.4396,-120.5618 756.4241,-101.9242 756.6036,-87.8924"/>
<polygon fill="#191970" stroke="#191970" points="760.1016,-87.7359 756.4376,-77.7948 753.1026,-87.851 760.1016,-87.7359"/>
</g>
<!-- Node21&#45;&gt;Node8 -->
<g id="edge33" class="edge">
<title>Node21&#45;&gt;Node8</title>
<path fill="none" stroke="#191970" d="M667.6685,-177.5831C653.8278,-175.4806 636.2944,-172.9319 620.6227,-171 462.3495,-151.4888 421.9334,-154.2056 263.6227,-135 251.6671,-133.5496 238.6538,-131.7707 226.9212,-130.0922"/>
<polygon fill="#191970" stroke="#191970" points="227.3979,-126.6248 216.9992,-128.6538 226.3935,-133.5524 227.3979,-126.6248"/>
</g>
<!-- Node21&#45;&gt;Node11 -->
<g id="edge31" class="edge">
<title>Node21&#45;&gt;Node11</title>
<path fill="none" stroke="#191970" d="M667.6855,-177.438C653.85,-175.2915 636.3161,-172.7471 620.6227,-171 413.7296,-147.9665 361.0389,-152.716 153.6227,-135 128.7063,-132.8718 100.6949,-130.2457 78.9183,-128.1521"/>
<polygon fill="#191970" stroke="#191970" points="79.06,-124.6496 68.7697,-127.1717 78.3868,-131.6172 79.06,-124.6496"/>
</g>
<!-- Node21&#45;&gt;Node17 -->
<g id="edge35" class="edge">
<title>Node21&#45;&gt;Node17</title>
<path fill="none" stroke="#191970" d="M717.6731,-174.3962C754.8659,-163.8489 824.5477,-144.0884 864.1448,-132.8594"/>
<polygon fill="#191970" stroke="#191970" points="865.3291,-136.1617 873.9948,-130.0661 863.4192,-129.4272 865.3291,-136.1617"/>
</g>
<!-- Node22&#45;&gt;Node2 -->
<g id="edge37" class="edge">
<title>Node22&#45;&gt;Node2</title>
<path fill="none" stroke="#191970" d="M1293.8204,-59.448C1289.041,-58.5827 1284.2287,-57.7468 1279.6227,-57 1163.8324,-38.2263 1025.4713,-21.4007 963.9087,-14.2036"/>
<polygon fill="#191970" stroke="#191970" points="964.0093,-10.6918 953.6718,-13.013 963.2005,-17.6449 964.0093,-10.6918"/>
</g>
<!-- Node23&#45;&gt;Node2 -->
<g id="edge41" class="edge">
<title>Node23&#45;&gt;Node2</title>
<path fill="none" stroke="#191970" d="M1140.7827,-114.1073C1136.1582,-99.1791 1125.5587,-71.8347 1106.6227,-57 1084.5147,-39.6803 1008.0183,-23.8854 963.8242,-15.9238"/>
<polygon fill="#191970" stroke="#191970" points="964.3193,-12.4572 953.8627,-14.1633 963.101,-19.3503 964.3193,-12.4572"/>
</g>
<!-- Node23&#45;&gt;Node3 -->
<g id="edge40" class="edge">
<title>Node23&#45;&gt;Node3</title>
<path fill="none" stroke="#191970" d="M1120.2254,-121.0628C1054.5821,-111.4193 868.4089,-84.0691 790.5392,-72.6295"/>
<polygon fill="#191970" stroke="#191970" points="790.6966,-69.1151 780.2941,-71.1244 789.6792,-76.0408 790.6966,-69.1151"/>
</g>
<!-- Node24&#45;&gt;Node5 -->
<g id="edge43" class="edge">
<title>Node24&#45;&gt;Node5</title>
<path fill="none" stroke="#191970" d="M856.507,-228.0403C858.1276,-213.9887 862.5993,-188.7351 874.6227,-171 893.0479,-143.8221 943.6176,-138.3793 921.6227,-114 894.4182,-83.8464 617.972,-72.0899 511.8231,-68.6652"/>
<polygon fill="#191970" stroke="#191970" points="511.9059,-65.1662 501.8009,-68.3504 511.686,-72.1627 511.9059,-65.1662"/>
</g>
<!-- Node24&#45;&gt;Node25 -->
<g id="edge44" class="edge">
<title>Node24&#45;&gt;Node25</title>
<path fill="none" stroke="#191970" d="M845.7898,-228.3095C837.9687,-220.204 826.8413,-208.672 817.5884,-199.0826"/>
<polygon fill="#191970" stroke="#191970" points="819.8329,-196.3681 810.3705,-191.6022 814.7955,-201.2288 819.8329,-196.3681"/>
</g>
<!-- Node24&#45;&gt;Node26 -->
<g id="edge48" class="edge">
<title>Node24&#45;&gt;Node26</title>
<path fill="none" stroke="#191970" d="M882.7244,-230.4542C914.5124,-221.0171 967.6021,-205.2561 1004.9373,-194.1722"/>
<polygon fill="#191970" stroke="#191970" points="1005.9521,-197.522 1014.5425,-191.3207 1003.9599,-190.8115 1005.9521,-197.522"/>
</g>
<!-- Node25&#45;&gt;Node2 -->
<g id="edge47" class="edge">
<title>Node25&#45;&gt;Node2</title>
<path fill="none" stroke="#191970" d="M808.4251,-171.3153C829.8536,-143.3437 889.8447,-65.0347 917.4252,-29.0327"/>
<polygon fill="#191970" stroke="#191970" points="920.3926,-30.9144 923.6956,-20.8476 914.8358,-26.6574 920.3926,-30.9144"/>
</g>
<!-- Node25&#45;&gt;Node14 -->
<g id="edge46" class="edge">
<title>Node25&#45;&gt;Node14</title>
<path fill="none" stroke="#191970" d="M780.1513,-171.4408C761.8766,-162.461 734.8911,-149.2008 714.2584,-139.0624"/>
<polygon fill="#191970" stroke="#191970" points="715.7983,-135.9193 705.2797,-134.6504 712.7112,-142.2019 715.7983,-135.9193"/>
</g>
<!-- Node25&#45;&gt;Node17 -->
<g id="edge45" class="edge">
<title>Node25&#45;&gt;Node17</title>
<path fill="none" stroke="#191970" d="M817.2493,-171.3095C831.3998,-162.6366 851.9511,-150.0407 868.1714,-140.0992"/>
<polygon fill="#191970" stroke="#191970" points="870.4431,-142.812 877.1401,-134.6022 866.7851,-136.8438 870.4431,-142.812"/>
</g>
<!-- Node26&#45;&gt;Node2 -->
<g id="edge50" class="edge">
<title>Node26&#45;&gt;Node2</title>
<path fill="none" stroke="#191970" d="M1043.7942,-171.4492C1035.0853,-149.349 1012.2321,-95.4409 982.6227,-57 974.1686,-46.0243 962.9474,-35.4773 953.1833,-27.2108"/>
<polygon fill="#191970" stroke="#191970" points="955.3694,-24.4771 945.4169,-20.8439 950.9314,-29.8905 955.3694,-24.4771"/>
</g>
<!-- Node26&#45;&gt;Node17 -->
<g id="edge49" class="edge">
<title>Node26&#45;&gt;Node17</title>
<path fill="none" stroke="#191970" d="M1020.4451,-171.4408C993.0673,-161.3074 950.963,-145.7233 922.8703,-135.3254"/>
<polygon fill="#191970" stroke="#191970" points="923.8007,-131.9378 913.2075,-131.7489 921.3708,-138.5025 923.8007,-131.9378"/>
</g>
<!-- Node27&#45;&gt;Node2 -->
<g id="edge52" class="edge">
<title>Node27&#45;&gt;Node2</title>
<path fill="none" stroke="#191970" d="M1392.4466,-58.6714C1389.8133,-58.0503 1387.1788,-57.4808 1384.6227,-57 1228.7384,-27.6762 1038.9523,-15.7546 964.1509,-11.9695"/>
<polygon fill="#191970" stroke="#191970" points="964.1264,-8.4641 953.9666,-11.4689 963.7827,-15.4557 964.1264,-8.4641"/>
</g>
<!-- Node28&#45;&gt;Node2 -->
<g id="edge56" class="edge">
<title>Node28&#45;&gt;Node2</title>
<path fill="none" stroke="#191970" d="M167.6544,-171.4618C159.6872,-162.6804 149.1327,-149.1474 144.6227,-135 134.0937,-101.971 120.8436,-82.2256 144.6227,-57 170.9269,-29.0958 754.4748,-14.4083 899.3122,-11.1848"/>
<polygon fill="#191970" stroke="#191970" points="899.4253,-14.6832 909.346,-10.9643 899.2715,-7.6849 899.4253,-14.6832"/>
</g>
<!-- Node28&#45;&gt;Node8 -->
<g id="edge58" class="edge">
<title>Node28&#45;&gt;Node8</title>
<path fill="none" stroke="#191970" d="M179.7681,-171.3095C181.338,-163.8524 183.5185,-153.4951 185.4294,-144.4186"/>
<polygon fill="#191970" stroke="#191970" points="188.8607,-145.1088 187.4959,-134.6022 182.0108,-143.6667 188.8607,-145.1088"/>
</g>
<!-- Node28&#45;&gt;Node20 -->
<g id="edge57" class="edge">
<title>Node28&#45;&gt;Node20</title>
<path fill="none" stroke="#191970" d="M168.4231,-171.3168C156.7509,-157.13 139.7152,-131.225 153.6227,-114 199.3639,-57.3477 243.2674,-93.3892 319.2348,-77.9975"/>
<polygon fill="#191970" stroke="#191970" points="320.1918,-81.3691 329.1607,-75.7291 318.6323,-74.5451 320.1918,-81.3691"/>
</g>
<!-- Node29&#45;&gt;Node2 -->
<g id="edge60" class="edge">
<title>Node29&#45;&gt;Node2</title>
<path fill="none" stroke="#191970" d="M69.3315,-175.3763C47.4672,-169.2018 19.4539,-157.273 5.6227,-135 -18.4202,-96.2826 46.5337,-62.6541 58.6227,-57 97.3906,-38.868 745.723,-16.5842 899.226,-11.5453"/>
<polygon fill="#191970" stroke="#191970" points="899.5275,-15.0374 909.4079,-11.2126 899.2989,-8.0411 899.5275,-15.0374"/>
</g>
<!-- Node29&#45;&gt;Node8 -->
<g id="edge62" class="edge">
<title>Node29&#45;&gt;Node8</title>
<path fill="none" stroke="#191970" d="M115.7129,-171.3095C129.407,-162.6366 149.2953,-150.0407 164.9924,-140.0992"/>
<polygon fill="#191970" stroke="#191970" points="167.0963,-142.9097 173.6718,-134.6022 163.3509,-136.9959 167.0963,-142.9097"/>
</g>
<!-- Node29&#45;&gt;Node11 -->
<g id="edge61" class="edge">
<title>Node29&#45;&gt;Node11</title>
<path fill="none" stroke="#191970" d="M89.2535,-171.3095C80.9233,-163.1229 69.0363,-151.441 59.2216,-141.7955"/>
<polygon fill="#191970" stroke="#191970" points="61.4878,-139.1153 51.9022,-134.6022 56.5812,-144.1079 61.4878,-139.1153"/>
</g>
<!-- Node30&#45;&gt;Node2 -->
<g id="edge64" class="edge">
<title>Node30&#45;&gt;Node2</title>
<path fill="none" stroke="#191970" d="M1242.9241,-171.2523C1219.8354,-144.2869 1156.9108,-72.3752 1129.6227,-57 1076.5323,-27.0866 1005.0397,-16.3723 964.0832,-12.5658"/>
<polygon fill="#191970" stroke="#191970" points="964.1292,-9.0573 953.8698,-11.7021 963.5393,-16.0324 964.1292,-9.0573"/>
</g>
<!-- Node30&#45;&gt;Node17 -->
<g id="edge65" class="edge">
<title>Node30&#45;&gt;Node17</title>
<path fill="none" stroke="#191970" d="M1222.6293,-176.8837C1155.6344,-166.2169 990.669,-139.9515 923.1536,-129.2018"/>
<polygon fill="#191970" stroke="#191970" points="923.6104,-125.7306 913.1844,-127.6146 922.5097,-132.6435 923.6104,-125.7306"/>
</g>
<!-- Node31&#45;&gt;Node2 -->
<g id="edge74" class="edge">
<title>Node31&#45;&gt;Node2</title>
<path fill="none" stroke="#191970" d="M520.4111,-171.4449C542.6534,-146.7863 604.1543,-83.4064 670.6227,-57 748.9282,-25.891 848.7098,-15.4955 899.2083,-12.0971"/>
<polygon fill="#191970" stroke="#191970" points="899.7371,-15.5711 909.5004,-11.4567 899.3023,-8.5846 899.7371,-15.5711"/>
</g>
<!-- Node31&#45;&gt;Node3 -->
<g id="edge71" class="edge">
<title>Node31&#45;&gt;Node3</title>
<path fill="none" stroke="#191970" d="M526.7536,-171.3909C548.2883,-157.2922 589.3114,-131.4912 626.6227,-114 657.7778,-99.3948 694.8735,-86.459 721.2708,-77.9632"/>
<polygon fill="#191970" stroke="#191970" points="722.3561,-81.2909 730.8292,-74.9303 720.239,-74.6187 722.3561,-81.2909"/>
</g>
<!-- Node31&#45;&gt;Node4 -->
<g id="edge68" class="edge">
<title>Node31&#45;&gt;Node4</title>
<path fill="none" stroke="#191970" d="M493.2084,-171.3095C477.2433,-162.4745 453.9218,-149.5684 435.8085,-139.5445"/>
<polygon fill="#191970" stroke="#191970" points="437.3219,-136.3819 426.8776,-134.6022 433.9325,-142.5066 437.3219,-136.3819"/>
</g>
<!-- Node31&#45;&gt;Node5 -->
<g id="edge67" class="edge">
<title>Node31&#45;&gt;Node5</title>
<path fill="none" stroke="#191970" d="M507.9843,-171.3833C501.2238,-152.586 486.6137,-111.9627 477.7999,-87.4559"/>
<polygon fill="#191970" stroke="#191970" points="480.9898,-85.9834 474.312,-77.7579 474.4029,-88.3524 480.9898,-85.9834"/>
</g>
<!-- Node31&#45;&gt;Node8 -->
<g id="edge69" class="edge">
<title>Node31&#45;&gt;Node8</title>
<path fill="none" stroke="#191970" d="M483.6106,-176.5413C425.6603,-166.283 292.577,-142.7248 227.2258,-131.1564"/>
<polygon fill="#191970" stroke="#191970" points="227.7978,-127.7034 217.3408,-129.4066 226.5776,-134.5962 227.7978,-127.7034"/>
</g>
<!-- Node31&#45;&gt;Node14 -->
<g id="edge73" class="edge">
<title>Node31&#45;&gt;Node14</title>
<path fill="none" stroke="#191970" d="M539.8032,-172.2151C571.251,-161.8537 621.949,-145.1497 654.2569,-134.5049"/>
<polygon fill="#191970" stroke="#191970" points="655.6501,-137.7311 664.0526,-131.2775 653.4595,-131.0826 655.6501,-137.7311"/>
</g>
<!-- Node31&#45;&gt;Node17 -->
<g id="edge72" class="edge">
<title>Node31&#45;&gt;Node17</title>
<path fill="none" stroke="#191970" d="M539.8017,-173.0558C542.7658,-172.3019 545.7464,-171.5988 548.6227,-171 663.9258,-146.9967 803.5978,-132.5924 863.7264,-127.082"/>
<polygon fill="#191970" stroke="#191970" points="864.3586,-130.5393 874.0043,-126.1562 863.7306,-123.5675 864.3586,-130.5393"/>
</g>
<!-- Node31&#45;&gt;Node19 -->
<g id="edge70" class="edge">
<title>Node31&#45;&gt;Node19</title>
<path fill="none" stroke="#191970" d="M483.6851,-173.6939C449.8846,-164.2496 392.5423,-148.2275 352.5139,-137.0431"/>
<polygon fill="#191970" stroke="#191970" points="353.3081,-133.631 342.7351,-134.3108 351.4243,-140.3728 353.3081,-133.631"/>
</g>
<!-- Node32&#45;&gt;Node2 -->
<g id="edge76" class="edge">
<title>Node32&#45;&gt;Node2</title>
<path fill="none" stroke="#191970" d="M931.0369,-171.3974C945.6104,-163.7261 963.143,-151.6428 971.6227,-135 989.798,-99.3285 963.9533,-53.7253 946.11,-28.7995"/>
<polygon fill="#191970" stroke="#191970" points="948.7818,-26.5276 939.9946,-20.6085 943.1726,-30.7155 948.7818,-26.5276"/>
</g>
<!-- Node32&#45;&gt;Node3 -->
<g id="edge78" class="edge">
<title>Node32&#45;&gt;Node3</title>
<path fill="none" stroke="#191970" d="M923.4254,-171.3834C942.4874,-157.9317 970.1531,-133.5776 954.6227,-114 934.5101,-88.6459 842.0043,-75.8135 790.4973,-70.5319"/>
<polygon fill="#191970" stroke="#191970" points="790.7672,-67.0416 780.4727,-69.5461 790.0822,-74.008 790.7672,-67.0416"/>
</g>
<!-- Node32&#45;&gt;Node14 -->
<g id="edge80" class="edge">
<title>Node32&#45;&gt;Node14</title>
<path fill="none" stroke="#191970" d="M883.3333,-175.2915C842.3852,-164.8249 759.7165,-143.6944 714.9978,-132.264"/>
<polygon fill="#191970" stroke="#191970" points="715.8315,-128.8647 705.2762,-129.7791 714.098,-135.6466 715.8315,-128.8647"/>
</g>
<!-- Node32&#45;&gt;Node17 -->
<g id="edge79" class="edge">
<title>Node32&#45;&gt;Node17</title>
<path fill="none" stroke="#191970" d="M905.1198,-171.3095C903.2882,-163.8524 900.7443,-153.4951 898.515,-144.4186"/>
<polygon fill="#191970" stroke="#191970" points="901.8883,-143.4787 896.104,-134.6022 895.0903,-145.1485 901.8883,-143.4787"/>
</g>
<!-- Node32&#45;&gt;Node19 -->
<g id="edge77" class="edge">
<title>Node32&#45;&gt;Node19</title>
<path fill="none" stroke="#191970" d="M883.3627,-177.4658C869.6707,-175.3013 852.2272,-172.7307 836.6227,-171 625.0433,-147.534 566.9568,-167.5664 353.0422,-135.0122"/>
<polygon fill="#191970" stroke="#191970" points="353.4842,-131.5391 343.0675,-133.4736 352.417,-138.4572 353.4842,-131.5391"/>
</g>
<!-- Node33&#45;&gt;Node2 -->
<g id="edge82" class="edge">
<title>Node33&#45;&gt;Node2</title>
<path fill="none" stroke="#191970" d="M1481.5057,-228.4502C1489.6376,-197.7316 1509.205,-104.3033 1461.6227,-57 1426.2804,-21.8649 1073.8637,-12.9222 964.0908,-10.9804"/>
<polygon fill="#191970" stroke="#191970" points="964.0102,-7.4786 953.9524,-10.809 963.8918,-14.4776 964.0102,-7.4786"/>
</g>
<!-- Node34&#45;&gt;Node3 -->
<g id="edge86" class="edge">
<title>Node34&#45;&gt;Node3</title>
<path fill="none" stroke="#191970" d="M689.9898,-228.4455C672.1739,-215.6494 646.9421,-192.6058 658.6227,-171 672.5167,-145.3 693.203,-155.8941 713.6227,-135 727.5745,-120.7241 739.1671,-101.0351 746.6132,-86.6054"/>
<polygon fill="#191970" stroke="#191970" points="749.7782,-88.1011 751.0839,-77.587 743.5065,-84.9921 749.7782,-88.1011"/>
</g>
<!-- Node34&#45;&gt;Node17 -->
<g id="edge87" class="edge">
<title>Node34&#45;&gt;Node17</title>
<path fill="none" stroke="#191970" d="M712.0182,-228.3629C721.7178,-213.7529 741.4881,-186.8011 764.6227,-171 795.3025,-150.0455 836.5173,-137.3585 864.0207,-130.6464"/>
<polygon fill="#191970" stroke="#191970" points="864.8932,-134.0369 873.8398,-128.3616 863.3067,-127.2191 864.8932,-134.0369"/>
</g>
<!-- Node34&#45;&gt;Node31 -->
<g id="edge85" class="edge">
<title>Node34&#45;&gt;Node31</title>
<path fill="none" stroke="#191970" d="M676.579,-229.9665C642.7625,-220.0308 586.8018,-203.5887 549.5734,-192.6505"/>
<polygon fill="#191970" stroke="#191970" points="550.1849,-189.1822 539.6038,-189.7212 548.2116,-195.8984 550.1849,-189.1822"/>
</g>
<!-- Node35&#45;&gt;Node2 -->
<g id="edge90" class="edge">
<title>Node35&#45;&gt;Node2</title>
<path fill="none" stroke="#191970" d="M1245.7575,-114.3369C1239.4271,-99.1808 1225.3386,-70.9487 1203.6227,-57 1164.3757,-31.7905 1027.4487,-18.0272 964.1581,-12.8834"/>
<polygon fill="#191970" stroke="#191970" points="964.1909,-9.3752 953.9462,-12.0767 963.6395,-16.3535 964.1909,-9.3752"/>
</g>
<!-- Node35&#45;&gt;Node3 -->
<g id="edge91" class="edge">
<title>Node35&#45;&gt;Node3</title>
<path fill="none" stroke="#191970" d="M1222.5862,-120.4608C1208.5836,-118.4203 1191.1999,-115.967 1175.6227,-114 1033.3544,-96.0354 863.4846,-78.395 791.104,-71.057"/>
<polygon fill="#191970" stroke="#191970" points="791.0461,-67.5334 780.7447,-70.0097 790.3419,-74.4979 791.0461,-67.5334"/>
</g>
</g>
</svg>
