<?xml version="1.0" encoding="UTF-8" standalone="no"?>
<!DOCTYPE svg PUBLIC "-//W3C//DTD SVG 1.1//EN"
 "http://www.w3.org/Graphics/SVG/1.1/DTD/svg11.dtd">
<!-- Generated by graphviz version 2.40.1 (0)
 -->
<!-- Title: jngl/all.hpp Pages: 1 -->
<svg width="1647pt" height="308pt"
 viewBox="0.00 0.00 1646.57 308.00" xmlns="http://www.w3.org/2000/svg" xmlns:xlink="http://www.w3.org/1999/xlink">
<g id="graph0" class="graph" transform="scale(1 1) rotate(0) translate(4 304)">
<title>jngl/all.hpp</title>
<polygon fill="#ffffff" stroke="transparent" points="-4,4 -4,-304 1642.5657,-304 1642.5657,4 -4,4"/>
<!-- Node0 -->
<g id="node1" class="node">
<title>Node0</title>
<g id="a_node1"><a xlink:title="Includes all JNGL headers.">
<polygon fill="#bfbfbf" stroke="#000000" points="815.5657,-280.5 815.5657,-299.5 904.5657,-299.5 904.5657,-280.5 815.5657,-280.5"/>
<text text-anchor="middle" x="860.0657" y="-287.5" font-family="'Consolas',monospace" font-size="10.00" fill="#000000">jngl/all.hpp</text>
</a>
</g>
</g>
<!-- Node1 -->
<g id="node2" class="node">
<title>Node1</title>
<g id="a_node2"><a xlink:href="App_8hpp.html" target="_top" xlink:title=" ">
<polygon fill="#ffffff" stroke="#000000" points="465.5657,-168.5 465.5657,-187.5 524.5657,-187.5 524.5657,-168.5 465.5657,-168.5"/>
<text text-anchor="middle" x="495.0657" y="-175.5" font-family="'Consolas',monospace" font-size="10.00" fill="#000000">App.hpp</text>
</a>
</g>
</g>
<!-- Node0&#45;&gt;Node1 -->
<g id="edge1" class="edge">
<title>Node0&#45;&gt;Node1</title>
<path fill="none" stroke="#191970" d="M828.946,-280.4509C762.591,-260.09 607.3153,-212.4437 534.3105,-190.0422"/>
<polygon fill="#191970" stroke="#191970" points="535.1598,-186.6418 524.573,-187.0543 533.1063,-193.3339 535.1598,-186.6418"/>
</g>
<!-- Node4 -->
<g id="node5" class="node">
<title>Node4</title>
<g id="a_node5"><a xlink:href="Shader_8hpp.html" target="_top" xlink:title=" ">
<polygon fill="#ffffff" stroke="#000000" points="91.5657,-112.5 91.5657,-131.5 168.5657,-131.5 168.5657,-112.5 91.5657,-112.5"/>
<text text-anchor="middle" x="130.0657" y="-119.5" font-family="'Consolas',monospace" font-size="10.00" fill="#000000">Shader.hpp</text>
</a>
</g>
</g>
<!-- Node0&#45;&gt;Node4 -->
<g id="edge4" class="edge">
<title>Node0&#45;&gt;Node4</title>
<path fill="none" stroke="#191970" d="M815.466,-289.2495C645.1299,-286.1691 43.7663,-273.2515 16.0657,-244 -7.1598,-219.4742 -2.8288,-195.9988 16.0657,-168 30.6901,-146.3288 57.4219,-134.8646 81.3253,-128.8013"/>
<polygon fill="#191970" stroke="#191970" points="82.3788,-132.1511 91.3529,-126.5194 80.8255,-125.3256 82.3788,-132.1511"/>
</g>
<!-- Node5 -->
<g id="node6" class="node">
<title>Node5</title>
<g id="a_node6"><a xlink:href="ShaderProgram_8hpp.html" target="_top" xlink:title=" ">
<polygon fill="#ffffff" stroke="#000000" points="652.5657,-112.5 652.5657,-131.5 771.5657,-131.5 771.5657,-112.5 652.5657,-112.5"/>
<text text-anchor="middle" x="712.0657" y="-119.5" font-family="'Consolas',monospace" font-size="10.00" fill="#000000">ShaderProgram.hpp</text>
</a>
</g>
</g>
<!-- Node0&#45;&gt;Node5 -->
<g id="edge6" class="edge">
<title>Node0&#45;&gt;Node5</title>
<path fill="none" stroke="#191970" d="M815.3396,-285.6324C719.4728,-275.2372 499.3717,-245.493 456.0657,-188 450.7176,-180.8999 450.3631,-174.8186 456.0657,-168 462.0922,-160.7941 568.4722,-143.5169 642.1818,-132.3082"/>
<polygon fill="#191970" stroke="#191970" points="642.9885,-135.726 652.3519,-130.7685 641.9406,-128.8049 642.9885,-135.726"/>
</g>
<!-- Node8 -->
<g id="node9" class="node">
<title>Node8</title>
<g id="a_node9"><a xlink:href="Vertex_8hpp.html" target="_top" xlink:title=" ">
<polygon fill="#ffffff" stroke="#000000" points="183.5657,-224.5 183.5657,-243.5 260.5657,-243.5 260.5657,-224.5 183.5657,-224.5"/>
<text text-anchor="middle" x="222.0657" y="-231.5" font-family="'Consolas',monospace" font-size="10.00" fill="#000000">Vertex.hpp</text>
</a>
</g>
</g>
<!-- Node0&#45;&gt;Node8 -->
<g id="edge10" class="edge">
<title>Node0&#45;&gt;Node8</title>
<path fill="none" stroke="#191970" d="M815.4935,-288.1401C717.4403,-283.6888 475.77,-270.7458 275.0657,-244 273.6154,-243.8067 272.1448,-243.5998 270.6616,-243.3816"/>
<polygon fill="#191970" stroke="#191970" points="271.2017,-239.9236 260.7749,-241.8032 270.0981,-246.8361 271.2017,-239.9236"/>
</g>
<!-- Node9 -->
<g id="node10" class="node">
<title>Node9</title>
<g id="a_node10"><a xlink:href="Color_8hpp.html" target="_top" xlink:title=" ">
<polygon fill="#ffffff" stroke="#000000" points="828.5657,-112.5 828.5657,-131.5 899.5657,-131.5 899.5657,-112.5 828.5657,-112.5"/>
<text text-anchor="middle" x="864.0657" y="-119.5" font-family="'Consolas',monospace" font-size="10.00" fill="#000000">Color.hpp</text>
</a>
</g>
</g>
<!-- Node0&#45;&gt;Node9 -->
<g id="edge11" class="edge">
<title>Node0&#45;&gt;Node9</title>
<path fill="none" stroke="#191970" d="M860.2922,-280.4862C860.9245,-253.9293 862.7189,-178.5651 863.5856,-142.1655"/>
<polygon fill="#191970" stroke="#191970" points="867.0926,-141.9084 863.8317,-131.8279 860.0946,-141.7417 867.0926,-141.9084"/>
</g>
<!-- Node11 -->
<g id="node12" class="node">
<title>Node11</title>
<g id="a_node12"><a xlink:href="Controller_8hpp.html" target="_top" xlink:title=" ">
<polygon fill="#ffffff" stroke="#000000" points="25.5657,-224.5 25.5657,-243.5 126.5657,-243.5 126.5657,-224.5 25.5657,-224.5"/>
<text text-anchor="middle" x="76.0657" y="-231.5" font-family="'Consolas',monospace" font-size="10.00" fill="#000000">Controller.hpp</text>
</a>
</g>
</g>
<!-- Node0&#45;&gt;Node11 -->
<g id="edge13" class="edge">
<title>Node0&#45;&gt;Node11</title>
<path fill="none" stroke="#191970" d="M815.353,-288.52C702.1922,-284.4748 395.3598,-271.6405 141.0657,-244 139.7568,-243.8577 138.434,-243.708 137.1011,-243.5517"/>
<polygon fill="#191970" stroke="#191970" points="137.1108,-240.0252 126.7506,-242.2423 136.2322,-246.9698 137.1108,-240.0252"/>
</g>
<!-- Node12 -->
<g id="node13" class="node">
<title>Node12</title>
<g id="a_node13"><a xlink:href="input_8hpp.html" target="_top" xlink:title=" ">
<polygon fill="#ffffff" stroke="#000000" points="96.5657,-168.5 96.5657,-187.5 167.5657,-187.5 167.5657,-168.5 96.5657,-168.5"/>
<text text-anchor="middle" x="132.0657" y="-175.5" font-family="'Consolas',monospace" font-size="10.00" fill="#000000">input.hpp</text>
</a>
</g>
</g>
<!-- Node0&#45;&gt;Node12 -->
<g id="edge38" class="edge">
<title>Node0&#45;&gt;Node12</title>
<path fill="none" stroke="#191970" d="M815.165,-289.3231C671.4573,-286.8369 228.9859,-276.5866 174.0657,-244 156.6036,-233.639 145.2131,-212.8708 138.758,-197.3842"/>
<polygon fill="#191970" stroke="#191970" points="141.8979,-195.7952 135.0636,-187.6993 135.3576,-198.2901 141.8979,-195.7952"/>
</g>
<!-- Node18 -->
<g id="node19" class="node">
<title>Node18</title>
<g id="a_node19"><a xlink:href="debug_8hpp_source.html" target="_top" xlink:title=" ">
<polygon fill="#ffffff" stroke="#000000" points="1126.5657,-224.5 1126.5657,-243.5 1197.5657,-243.5 1197.5657,-224.5 1126.5657,-224.5"/>
<text text-anchor="middle" x="1162.0657" y="-231.5" font-family="'Consolas',monospace" font-size="10.00" fill="#000000">debug.hpp</text>
</a>
</g>
</g>
<!-- Node0&#45;&gt;Node18 -->
<g id="edge23" class="edge">
<title>Node0&#45;&gt;Node18</title>
<path fill="none" stroke="#191970" d="M904.6268,-281.737C961.4317,-271.2037 1059.126,-253.0882 1116.4375,-242.4609"/>
<polygon fill="#191970" stroke="#191970" points="1117.1121,-245.8955 1126.3063,-240.6309 1115.8358,-239.0128 1117.1121,-245.8955"/>
</g>
<!-- Node19 -->
<g id="node20" class="node">
<title>Node19</title>
<g id="a_node20"><a xlink:href="message_8hpp.html" target="_top" xlink:title=" ">
<polygon fill="#ffffff" stroke="#000000" points="1225.5657,-168.5 1225.5657,-187.5 1308.5657,-187.5 1308.5657,-168.5 1225.5657,-168.5"/>
<text text-anchor="middle" x="1267.0657" y="-175.5" font-family="'Consolas',monospace" font-size="10.00" fill="#000000">message.hpp</text>
</a>
</g>
</g>
<!-- Node0&#45;&gt;Node19 -->
<g id="edge53" class="edge">
<title>Node0&#45;&gt;Node19</title>
<path fill="none" stroke="#191970" d="M904.594,-287.8869C986.0371,-283.4067 1155.3835,-271.0634 1207.0657,-244 1227.9691,-233.0539 1245.2453,-211.7558 1255.8066,-196.3071"/>
<polygon fill="#191970" stroke="#191970" points="1258.9604,-197.8779 1261.4871,-187.5888 1253.0955,-194.0566 1258.9604,-197.8779"/>
</g>
<!-- Node21 -->
<g id="node22" class="node">
<title>Node21</title>
<g id="a_node22"><a xlink:href="drawable_8hpp_source.html" target="_top" xlink:title=" ">
<polygon fill="#ffffff" stroke="#000000" points="1104.5657,-112.5 1104.5657,-131.5 1193.5657,-131.5 1193.5657,-112.5 1104.5657,-112.5"/>
<text text-anchor="middle" x="1149.0657" y="-119.5" font-family="'Consolas',monospace" font-size="10.00" fill="#000000">drawable.hpp</text>
</a>
</g>
</g>
<!-- Node0&#45;&gt;Node21 -->
<g id="edge27" class="edge">
<title>Node0&#45;&gt;Node21</title>
<path fill="none" stroke="#191970" d="M904.7561,-283.9582C939.6199,-277.795 988.3019,-265.915 1026.0657,-244 1073.5104,-216.467 1115.7827,-166.2424 1136.1716,-139.6334"/>
<polygon fill="#191970" stroke="#191970" points="1139.0128,-141.6785 1142.2229,-131.5817 1133.417,-137.4729 1139.0128,-141.6785"/>
</g>
<!-- Node22 -->
<g id="node23" class="node">
<title>Node22</title>
<g id="a_node23"><a xlink:href="font_8hpp.html" target="_top" xlink:title=" ">
<polygon fill="#ffffff" stroke="#000000" points="771.5657,-168.5 771.5657,-187.5 836.5657,-187.5 836.5657,-168.5 771.5657,-168.5"/>
<text text-anchor="middle" x="804.0657" y="-175.5" font-family="'Consolas',monospace" font-size="10.00" fill="#000000">font.hpp</text>
</a>
</g>
</g>
<!-- Node0&#45;&gt;Node22 -->
<g id="edge29" class="edge">
<title>Node0&#45;&gt;Node22</title>
<path fill="none" stroke="#191970" d="M855.2912,-280.4509C846.0337,-261.936 825.4952,-220.8591 813.425,-196.7187"/>
<polygon fill="#191970" stroke="#191970" points="816.4308,-194.9039 808.8281,-187.5249 810.1698,-198.0344 816.4308,-194.9039"/>
</g>
<!-- Node23 -->
<g id="node24" class="node">
<title>Node23</title>
<g id="a_node24"><a xlink:href="framebuffer_8hpp_source.html" target="_top" xlink:title=" ">
<polygon fill="#ffffff" stroke="#000000" points="307.5657,-168.5 307.5657,-187.5 408.5657,-187.5 408.5657,-168.5 307.5657,-168.5"/>
<text text-anchor="middle" x="358.0657" y="-175.5" font-family="'Consolas',monospace" font-size="10.00" fill="#000000">framebuffer.hpp</text>
</a>
</g>
</g>
<!-- Node0&#45;&gt;Node23 -->
<g id="edge34" class="edge">
<title>Node0&#45;&gt;Node23</title>
<path fill="none" stroke="#191970" d="M815.256,-289.0837C718.1493,-286.4908 491.5352,-276.9863 423.0657,-244 400.7805,-233.2638 381.8098,-211.6031 370.2155,-196.0211"/>
<polygon fill="#191970" stroke="#191970" points="372.9247,-193.7918 364.2721,-187.6777 367.2234,-197.8532 372.9247,-193.7918"/>
</g>
<!-- Node24 -->
<g id="node25" class="node">
<title>Node24</title>
<g id="a_node25"><a xlink:href="job_8hpp.html" target="_top" xlink:title=" ">
<polygon fill="#ffffff" stroke="#000000" points="225.5657,-112.5 225.5657,-131.5 284.5657,-131.5 284.5657,-112.5 225.5657,-112.5"/>
<text text-anchor="middle" x="255.0657" y="-119.5" font-family="'Consolas',monospace" font-size="10.00" fill="#000000">job.hpp</text>
</a>
</g>
</g>
<!-- Node0&#45;&gt;Node24 -->
<g id="edge39" class="edge">
<title>Node0&#45;&gt;Node24</title>
<path fill="none" stroke="#191970" d="M815.3999,-287.9815C706.3049,-282.7427 428.6636,-267.464 339.0657,-244 309.8167,-236.3403 231.4656,-213.4011 215.0657,-188 204.2735,-171.2845 219.4616,-151.7532 234.1202,-138.2975"/>
<polygon fill="#191970" stroke="#191970" points="236.7293,-140.6707 242.0411,-131.5036 232.172,-135.3574 236.7293,-140.6707"/>
</g>
<!-- Node25 -->
<g id="node26" class="node">
<title>Node25</title>
<g id="a_node26"><a xlink:href="main_8hpp_source.html" target="_top" xlink:title=" ">
<polygon fill="#ffffff" stroke="#000000" points="1469.5657,-224.5 1469.5657,-243.5 1534.5657,-243.5 1534.5657,-224.5 1469.5657,-224.5"/>
<text text-anchor="middle" x="1502.0657" y="-231.5" font-family="'Consolas',monospace" font-size="10.00" fill="#000000">main.hpp</text>
</a>
</g>
</g>
<!-- Node0&#45;&gt;Node25 -->
<g id="edge42" class="edge">
<title>Node0&#45;&gt;Node25</title>
<path fill="none" stroke="#191970" d="M904.8187,-287.8324C1002.7017,-282.7928 1243.0594,-268.7901 1443.0657,-244 1448.2804,-243.3537 1453.7376,-242.5724 1459.1379,-241.7347"/>
<polygon fill="#191970" stroke="#191970" points="1460.0632,-245.1304 1469.3741,-240.0749 1458.9428,-238.2207 1460.0632,-245.1304"/>
</g>
<!-- Node26 -->
<g id="node27" class="node">
<title>Node26</title>
<g id="a_node27"><a xlink:href="other_8hpp.html" target="_top" xlink:title=" ">
<polygon fill="#ffffff" stroke="#000000" points="1326.5657,-168.5 1326.5657,-187.5 1397.5657,-187.5 1397.5657,-168.5 1326.5657,-168.5"/>
<text text-anchor="middle" x="1362.0657" y="-175.5" font-family="'Consolas',monospace" font-size="10.00" fill="#000000">other.hpp</text>
</a>
</g>
</g>
<!-- Node0&#45;&gt;Node26 -->
<g id="edge54" class="edge">
<title>Node0&#45;&gt;Node26</title>
<path fill="none" stroke="#191970" d="M904.786,-286.453C990.0241,-279.3687 1172.6394,-262.5469 1233.0657,-244 1272.304,-231.9565 1313.9251,-208.4559 1338.9537,-192.994"/>
<polygon fill="#191970" stroke="#191970" points="1341.0888,-195.7861 1347.6942,-187.5024 1337.3647,-189.8589 1341.0888,-195.7861"/>
</g>
<!-- Node27 -->
<g id="node28" class="node">
<title>Node27</title>
<g id="a_node28"><a xlink:href="window_8hpp.html" target="_top" xlink:title="Functions related to the main window.">
<polygon fill="#ffffff" stroke="#000000" points="1504.5657,-168.5 1504.5657,-187.5 1581.5657,-187.5 1581.5657,-168.5 1504.5657,-168.5"/>
<text text-anchor="middle" x="1543.0657" y="-175.5" font-family="'Consolas',monospace" font-size="10.00" fill="#000000">window.hpp</text>
</a>
</g>
</g>
<!-- Node0&#45;&gt;Node27 -->
<g id="edge82" class="edge">
<title>Node0&#45;&gt;Node27</title>
<path fill="none" stroke="#191970" d="M904.9237,-286.9589C1002.8563,-280.0671 1233.1038,-262.421 1309.0657,-244 1332.7272,-238.262 1336.8789,-231.4272 1360.0657,-224 1404.9794,-209.6131 1457.2516,-196.8599 1494.402,-188.4529"/>
<polygon fill="#191970" stroke="#191970" points="1495.4678,-191.8009 1504.4606,-186.1992 1493.9373,-184.9703 1495.4678,-191.8009"/>
</g>
<!-- Node28 -->
<g id="node29" class="node">
<title>Node28</title>
<g id="a_node29"><a xlink:href="matrix_8hpp_source.html" target="_top" xlink:title=" ">
<polygon fill="#ffffff" stroke="#000000" points="1561.5657,-224.5 1561.5657,-243.5 1638.5657,-243.5 1638.5657,-224.5 1561.5657,-224.5"/>
<text text-anchor="middle" x="1600.0657" y="-231.5" font-family="'Consolas',monospace" font-size="10.00" fill="#000000">matrix.hpp</text>
</a>
</g>
</g>
<!-- Node0&#45;&gt;Node28 -->
<g id="edge51" class="edge">
<title>Node0&#45;&gt;Node28</title>
<path fill="none" stroke="#191970" d="M904.6383,-288.6933C1013.9559,-285.1213 1303.9571,-273.4223 1544.0657,-244 1546.4229,-243.7111 1548.8314,-243.3883 1551.2608,-243.0405"/>
<polygon fill="#191970" stroke="#191970" points="1551.9384,-246.4774 1561.2872,-241.4923 1550.8701,-239.5594 1551.9384,-246.4774"/>
</g>
<!-- Node29 -->
<g id="node30" class="node">
<title>Node29</title>
<g id="a_node30"><a xlink:href="screen_8hpp.html" target="_top" xlink:title=" ">
<polygon fill="#ffffff" stroke="#000000" points="581.5657,-168.5 581.5657,-187.5 658.5657,-187.5 658.5657,-168.5 581.5657,-168.5"/>
<text text-anchor="middle" x="620.0657" y="-175.5" font-family="'Consolas',monospace" font-size="10.00" fill="#000000">screen.hpp</text>
</a>
</g>
</g>
<!-- Node0&#45;&gt;Node29 -->
<g id="edge55" class="edge">
<title>Node0&#45;&gt;Node29</title>
<path fill="none" stroke="#191970" d="M839.6034,-280.4509C797.0946,-260.6135 699.0853,-214.8758 649.6786,-191.8194"/>
<polygon fill="#191970" stroke="#191970" points="651.0181,-188.5822 640.4762,-187.5249 648.0579,-194.9254 651.0181,-188.5822"/>
</g>
<!-- Node30 -->
<g id="node31" class="node">
<title>Node30</title>
<g id="a_node31"><a xlink:href="shapes_8hpp.html" target="_top" xlink:title=" ">
<polygon fill="#ffffff" stroke="#000000" points="676.5657,-168.5 676.5657,-187.5 753.5657,-187.5 753.5657,-168.5 676.5657,-168.5"/>
<text text-anchor="middle" x="715.0657" y="-175.5" font-family="'Consolas',monospace" font-size="10.00" fill="#000000">shapes.hpp</text>
</a>
</g>
</g>
<!-- Node0&#45;&gt;Node30 -->
<g id="edge58" class="edge">
<title>Node0&#45;&gt;Node30</title>
<path fill="none" stroke="#191970" d="M847.7031,-280.4509C822.7697,-261.1921 766.2324,-217.5218 735.6421,-193.8935"/>
<polygon fill="#191970" stroke="#191970" points="737.4506,-190.8679 727.397,-187.5249 733.1716,-196.4078 737.4506,-190.8679"/>
</g>
<!-- Node31 -->
<g id="node32" class="node">
<title>Node31</title>
<g id="a_node32"><a xlink:href="sound_8hpp_source.html" target="_top" xlink:title=" ">
<polygon fill="#ffffff" stroke="#000000" points="1415.5657,-168.5 1415.5657,-187.5 1486.5657,-187.5 1486.5657,-168.5 1415.5657,-168.5"/>
<text text-anchor="middle" x="1451.0657" y="-175.5" font-family="'Consolas',monospace" font-size="10.00" fill="#000000">sound.hpp</text>
</a>
</g>
</g>
<!-- Node0&#45;&gt;Node31 -->
<g id="edge61" class="edge">
<title>Node0&#45;&gt;Node31</title>
<path fill="none" stroke="#191970" d="M904.6425,-288.4644C980.581,-285.0822 1139.497,-274.6672 1270.0657,-244 1273.7747,-243.1288 1363.9413,-210.0464 1415.5821,-191.0586"/>
<polygon fill="#191970" stroke="#191970" points="1416.8759,-194.312 1425.0532,-187.5754 1414.4597,-187.7422 1416.8759,-194.312"/>
</g>
<!-- Node32 -->
<g id="node33" class="node">
<title>Node32</title>
<g id="a_node33"><a xlink:href="sprite_8hpp_source.html" target="_top" xlink:title=" ">
<polygon fill="#ffffff" stroke="#000000" points="893.5657,-168.5 893.5657,-187.5 970.5657,-187.5 970.5657,-168.5 893.5657,-168.5"/>
<text text-anchor="middle" x="932.0657" y="-175.5" font-family="'Consolas',monospace" font-size="10.00" fill="#000000">sprite.hpp</text>
</a>
</g>
</g>
<!-- Node0&#45;&gt;Node32 -->
<g id="edge64" class="edge">
<title>Node0&#45;&gt;Node32</title>
<path fill="none" stroke="#191970" d="M866.2044,-280.4509C878.2131,-261.7707 904.9861,-220.1238 920.4453,-196.0761"/>
<polygon fill="#191970" stroke="#191970" points="923.4791,-197.8294 925.9425,-187.5249 917.5908,-194.044 923.4791,-197.8294"/>
</g>
<!-- Node33 -->
<g id="node34" class="node">
<title>Node33</title>
<g id="a_node34"><a xlink:href="text_8hpp.html" target="_top" xlink:title=" ">
<polygon fill="#ffffff" stroke="#000000" points="988.5657,-168.5 988.5657,-187.5 1053.5657,-187.5 1053.5657,-168.5 988.5657,-168.5"/>
<text text-anchor="middle" x="1021.0657" y="-175.5" font-family="'Consolas',monospace" font-size="10.00" fill="#000000">text.hpp</text>
</a>
</g>
</g>
<!-- Node0&#45;&gt;Node33 -->
<g id="edge72" class="edge">
<title>Node0&#45;&gt;Node33</title>
<path fill="none" stroke="#191970" d="M904.8793,-281.1646C942.8268,-272.7824 993.2079,-259.2295 1007.0657,-244 1018.2623,-231.6951 1021.3443,-212.7283 1021.8694,-198.2793"/>
<polygon fill="#191970" stroke="#191970" points="1025.3687,-197.8666 1021.8485,-187.8737 1018.3687,-197.8807 1025.3687,-197.8666"/>
</g>
<!-- Node34 -->
<g id="node35" class="node">
<title>Node34</title>
<g id="a_node35"><a xlink:href="time_8hpp.html" target="_top" xlink:title=" ">
<polygon fill="#ffffff" stroke="#000000" points="1368.5657,-224.5 1368.5657,-243.5 1433.5657,-243.5 1433.5657,-224.5 1368.5657,-224.5"/>
<text text-anchor="middle" x="1401.0657" y="-231.5" font-family="'Consolas',monospace" font-size="10.00" fill="#000000">time.hpp</text>
</a>
</g>
</g>
<!-- Node0&#45;&gt;Node34 -->
<g id="edge77" class="edge">
<title>Node0&#45;&gt;Node34</title>
<path fill="none" stroke="#191970" d="M904.8967,-287.5841C991.89,-282.5079 1189.5102,-269.0797 1354.0657,-244 1355.5347,-243.7761 1357.0268,-243.535 1358.5318,-243.28"/>
<polygon fill="#191970" stroke="#191970" points="1359.3404,-246.69 1368.54,-241.4347 1358.0711,-239.8061 1359.3404,-246.69"/>
</g>
<!-- Node35 -->
<g id="node36" class="node">
<title>Node35</title>
<g id="a_node36"><a xlink:href="Video_8hpp.html" target="_top" xlink:title=" ">
<polygon fill="#ffffff" stroke="#000000" points="926.5657,-224.5 926.5657,-243.5 997.5657,-243.5 997.5657,-224.5 926.5657,-224.5"/>
<text text-anchor="middle" x="962.0657" y="-231.5" font-family="'Consolas',monospace" font-size="10.00" fill="#000000">Video.hpp</text>
</a>
</g>
</g>
<!-- Node0&#45;&gt;Node35 -->
<g id="edge78" class="edge">
<title>Node0&#45;&gt;Node35</title>
<path fill="none" stroke="#191970" d="M877.8327,-280.2455C893.7752,-271.4928 917.3916,-258.527 935.5646,-248.5496"/>
<polygon fill="#191970" stroke="#191970" points="937.4209,-251.5233 944.5022,-243.6427 934.052,-245.3873 937.4209,-251.5233"/>
</g>
<!-- Node36 -->
<g id="node37" class="node">
<title>Node36</title>
<g id="a_node37"><a xlink:href="work_8hpp.html" target="_top" xlink:title=" ">
<polygon fill="#ffffff" stroke="#000000" points="224.5657,-168.5 224.5657,-187.5 289.5657,-187.5 289.5657,-168.5 224.5657,-168.5"/>
<text text-anchor="middle" x="257.0657" y="-175.5" font-family="'Consolas',monospace" font-size="10.00" fill="#000000">work.hpp</text>
</a>
</g>
</g>
<!-- Node0&#45;&gt;Node36 -->
<g id="edge83" class="edge">
<title>Node0&#45;&gt;Node36</title>
<path fill="none" stroke="#191970" d="M815.1958,-287.5999C714.2125,-281.8719 471.7673,-266.2055 393.0657,-244 351.6734,-232.3213 307.5452,-208.5494 281.1453,-192.9525"/>
<polygon fill="#191970" stroke="#191970" points="282.6334,-189.7635 272.259,-187.6137 279.0284,-195.7639 282.6334,-189.7635"/>
</g>
<!-- Node2 -->
<g id="node3" class="node">
<title>Node2</title>
<g id="a_node3"><a doxygen="/w/doc/cppreference-doxygen-web.tag.xml:http://en.cppreference.com/w/" xlink:href="http://en.cppreference.com/w/cpp/header/memory.html" xlink:title=" ">
<polygon fill="#ffffff" stroke="#000000" points="400.5657,-56.5 400.5657,-75.5 453.5657,-75.5 453.5657,-56.5 400.5657,-56.5"/>
<text text-anchor="middle" x="427.0657" y="-63.5" font-family="'Consolas',monospace" font-size="10.00" fill="#000000">memory</text>
</a>
</g>
</g>
<!-- Node1&#45;&gt;Node2 -->
<g id="edge2" class="edge">
<title>Node1&#45;&gt;Node2</title>
<path fill="none" stroke="#191970" d="M489.268,-168.4509C477.9265,-149.7707 452.6408,-108.1238 438.0405,-84.0761"/>
<polygon fill="#191970" stroke="#191970" points="441.0302,-82.2563 432.8487,-75.5249 435.0467,-85.8892 441.0302,-82.2563"/>
</g>
<!-- Node3 -->
<g id="node4" class="node">
<title>Node3</title>
<g id="a_node4"><a doxygen="/w/doc/cppreference-doxygen-web.tag.xml:http://en.cppreference.com/w/" xlink:href="http://en.cppreference.com/w/cpp/header/string.html" xlink:title=" ">
<polygon fill="#ffffff" stroke="#000000" points="1211.5657,-112.5 1211.5657,-131.5 1264.5657,-131.5 1264.5657,-112.5 1211.5657,-112.5"/>
<text text-anchor="middle" x="1238.0657" y="-119.5" font-family="'Consolas',monospace" font-size="10.00" fill="#000000">string</text>
</a>
</g>
</g>
<!-- Node1&#45;&gt;Node3 -->
<g id="edge3" class="edge">
<title>Node1&#45;&gt;Node3</title>
<path fill="none" stroke="#191970" d="M524.6424,-173.7096C539.1989,-171.7254 557.0243,-169.4848 573.0657,-168 849.0562,-142.4548 924.7754,-177.9592 1201.5223,-131.9324"/>
<polygon fill="#191970" stroke="#191970" points="1202.1725,-135.3723 1211.4526,-130.2605 1201.0102,-128.4695 1202.1725,-135.3723"/>
</g>
<!-- Node4&#45;&gt;Node2 -->
<g id="edge5" class="edge">
<title>Node4&#45;&gt;Node2</title>
<path fill="none" stroke="#191970" d="M168.8528,-114.681C173.6396,-113.7779 178.4649,-112.8677 183.0657,-112 256.6675,-98.1186 342.7595,-81.8901 390.4823,-72.8951"/>
<polygon fill="#191970" stroke="#191970" points="391.1688,-76.3274 400.3474,-71.0357 389.8722,-69.4486 391.1688,-76.3274"/>
</g>
<!-- Node5&#45;&gt;Node2 -->
<g id="edge9" class="edge">
<title>Node5&#45;&gt;Node2</title>
<path fill="none" stroke="#191970" d="M663.3963,-112.4369C606.7278,-101.302 514.421,-83.1646 463.5624,-73.1713"/>
<polygon fill="#191970" stroke="#191970" points="464.1535,-69.7206 453.6663,-71.2268 462.8038,-76.5892 464.1535,-69.7206"/>
</g>
<!-- Node6 -->
<g id="node7" class="node">
<title>Node6</title>
<g id="a_node7"><a xlink:href="Finally_8hpp.html" target="_top" xlink:title=" ">
<polygon fill="#ffffff" stroke="#000000" points="911.5657,-56.5 911.5657,-75.5 994.5657,-75.5 994.5657,-56.5 911.5657,-56.5"/>
<text text-anchor="middle" x="953.0657" y="-63.5" font-family="'Consolas',monospace" font-size="10.00" fill="#000000">Finally.hpp</text>
</a>
</g>
</g>
<!-- Node5&#45;&gt;Node6 -->
<g id="edge7" class="edge">
<title>Node5&#45;&gt;Node6</title>
<path fill="none" stroke="#191970" d="M753.2212,-112.4369C794.3799,-102.8731 857.7707,-88.1432 902.0899,-77.845"/>
<polygon fill="#191970" stroke="#191970" points="903.1316,-81.1963 912.0799,-75.5237 901.5472,-74.3779 903.1316,-81.1963"/>
</g>
<!-- Node7 -->
<g id="node8" class="node">
<title>Node7</title>
<g id="a_node8"><a doxygen="/w/doc/cppreference-doxygen-web.tag.xml:http://en.cppreference.com/w/" xlink:href="http://en.cppreference.com/w/cpp/header/functional.html" xlink:title=" ">
<polygon fill="#ffffff" stroke="#000000" points="469.5657,-.5 469.5657,-19.5 546.5657,-19.5 546.5657,-.5 469.5657,-.5"/>
<text text-anchor="middle" x="508.0657" y="-7.5" font-family="'Consolas',monospace" font-size="10.00" fill="#000000">functional</text>
</a>
</g>
</g>
<!-- Node6&#45;&gt;Node7 -->
<g id="edge8" class="edge">
<title>Node6&#45;&gt;Node7</title>
<path fill="none" stroke="#191970" d="M911.3694,-57.3967C908.5637,-56.8993 905.7763,-56.4282 903.0657,-56 778.8285,-36.3756 631.3736,-21.3862 556.665,-14.3735"/>
<polygon fill="#191970" stroke="#191970" points="556.8977,-10.8801 546.6161,-13.4372 556.2483,-17.8499 556.8977,-10.8801"/>
</g>
<!-- Node10 -->
<g id="node11" class="node">
<title>Node10</title>
<g id="a_node11"><a xlink:href="dll_8hpp_source.html" target="_top" xlink:title=" ">
<polygon fill="#ffffff" stroke="#000000" points="834.5657,-56.5 834.5657,-75.5 893.5657,-75.5 893.5657,-56.5 834.5657,-56.5"/>
<text text-anchor="middle" x="864.0657" y="-63.5" font-family="'Consolas',monospace" font-size="10.00" fill="#000000">dll.hpp</text>
</a>
</g>
</g>
<!-- Node9&#45;&gt;Node10 -->
<g id="edge12" class="edge">
<title>Node9&#45;&gt;Node10</title>
<path fill="none" stroke="#191970" d="M864.0657,-112.2455C864.0657,-104.9382 864.0657,-94.6944 864.0657,-85.7046"/>
<polygon fill="#191970" stroke="#191970" points="867.5658,-85.6426 864.0657,-75.6427 860.5658,-85.6427 867.5658,-85.6426"/>
</g>
<!-- Node11&#45;&gt;Node12 -->
<g id="edge14" class="edge">
<title>Node11&#45;&gt;Node12</title>
<path fill="none" stroke="#191970" d="M85.8201,-224.2455C93.9305,-216.1352 105.6582,-204.4075 115.2738,-194.7919"/>
<polygon fill="#191970" stroke="#191970" points="117.8268,-197.1887 122.423,-187.6427 112.877,-192.2389 117.8268,-197.1887"/>
</g>
<!-- Node17 -->
<g id="node18" class="node">
<title>Node17</title>
<g id="a_node18"><a doxygen="/w/doc/cppreference-doxygen-web.tag.xml:http://en.cppreference.com/w/" xlink:href="http://en.cppreference.com/w/cpp/header/chrono.html" xlink:title=" ">
<polygon fill="#ffffff" stroke="#000000" points="25.5657,-168.5 25.5657,-187.5 78.5657,-187.5 78.5657,-168.5 25.5657,-168.5"/>
<text text-anchor="middle" x="52.0657" y="-175.5" font-family="'Consolas',monospace" font-size="10.00" fill="#000000">chrono</text>
</a>
</g>
</g>
<!-- Node11&#45;&gt;Node17 -->
<g id="edge22" class="edge">
<title>Node11&#45;&gt;Node17</title>
<path fill="none" stroke="#191970" d="M71.8852,-224.2455C68.6847,-216.7776 64.1697,-206.2427 60.2573,-197.1137"/>
<polygon fill="#191970" stroke="#191970" points="63.3545,-195.4554 56.1983,-187.6427 56.9205,-198.2129 63.3545,-195.4554"/>
</g>
<!-- Node12&#45;&gt;Node2 -->
<g id="edge21" class="edge">
<title>Node12&#45;&gt;Node2</title>
<path fill="none" stroke="#191970" d="M141.4101,-168.2503C155.9564,-153.6759 185.5308,-126.3868 216.0657,-112 273.4048,-84.9841 347.0323,-73.589 390.428,-68.965"/>
<polygon fill="#191970" stroke="#191970" points="390.9182,-72.4336 400.5196,-67.9544 390.2206,-65.4684 390.9182,-72.4336"/>
</g>
<!-- Node12&#45;&gt;Node7 -->
<g id="edge19" class="edge">
<title>Node12&#45;&gt;Node7</title>
<path fill="none" stroke="#191970" d="M115.537,-168.291C95.5713,-155.3406 66.4854,-131.7511 82.0657,-112 128.6828,-52.9034 357.9178,-24.2124 459.4796,-14.2394"/>
<polygon fill="#191970" stroke="#191970" points="459.8603,-17.719 469.4793,-13.2777 459.1901,-10.7512 459.8603,-17.719"/>
</g>
<!-- Node13 -->
<g id="node14" class="node">
<title>Node13</title>
<g id="a_node14"><a xlink:href="Vec2_8hpp.html" target="_top" xlink:title=" ">
<polygon fill="#ffffff" stroke="#000000" points="569.5657,-112.5 569.5657,-131.5 634.5657,-131.5 634.5657,-112.5 569.5657,-112.5"/>
<text text-anchor="middle" x="602.0657" y="-119.5" font-family="'Consolas',monospace" font-size="10.00" fill="#000000">Vec2.hpp</text>
</a>
</g>
</g>
<!-- Node12&#45;&gt;Node13 -->
<g id="edge15" class="edge">
<title>Node12&#45;&gt;Node13</title>
<path fill="none" stroke="#191970" d="M167.6073,-173.7052C182.2976,-171.9334 199.5017,-169.8626 215.0657,-168 340.2482,-153.0191 488.2296,-135.4758 559.4985,-127.0372"/>
<polygon fill="#191970" stroke="#191970" points="559.926,-130.5111 569.4451,-125.8596 559.1029,-123.5596 559.926,-130.5111"/>
</g>
<!-- Node16 -->
<g id="node17" class="node">
<title>Node16</title>
<g id="a_node17"><a doxygen="/w/doc/cppreference-doxygen-web.tag.xml:http://en.cppreference.com/w/" xlink:href="http://en.cppreference.com/w/cpp/header/vector.html" xlink:title=" ">
<polygon fill="#ffffff" stroke="#000000" points="994.5657,-112.5 994.5657,-131.5 1047.5657,-131.5 1047.5657,-112.5 994.5657,-112.5"/>
<text text-anchor="middle" x="1021.0657" y="-119.5" font-family="'Consolas',monospace" font-size="10.00" fill="#000000">vector</text>
</a>
</g>
</g>
<!-- Node12&#45;&gt;Node16 -->
<g id="edge20" class="edge">
<title>Node12&#45;&gt;Node16</title>
<path fill="none" stroke="#191970" d="M167.9623,-173.1341C182.5546,-171.2973 199.593,-169.3318 215.0657,-168 522.787,-141.5123 600.9724,-153.7375 909.0657,-132 934.1681,-130.2289 962.3883,-127.7059 984.2216,-125.6373"/>
<polygon fill="#191970" stroke="#191970" points="984.7644,-129.1014 994.385,-124.6636 984.0968,-122.1333 984.7644,-129.1014"/>
</g>
<!-- Node13&#45;&gt;Node10 -->
<g id="edge16" class="edge">
<title>Node13&#45;&gt;Node10</title>
<path fill="none" stroke="#191970" d="M634.6045,-114.159C637.7987,-113.4174 640.9934,-112.6868 644.0657,-112 706.9945,-97.9324 780.3521,-82.8587 824.4528,-73.9397"/>
<polygon fill="#191970" stroke="#191970" points="825.3649,-77.3263 834.4747,-71.917 823.9799,-70.4647 825.3649,-77.3263"/>
</g>
<!-- Node14 -->
<g id="node15" class="node">
<title>Node14</title>
<g id="a_node15"><a xlink:title=" ">
<polygon fill="#ffffff" stroke="#bfbfbf" points="594.5657,-56.5 594.5657,-75.5 713.5657,-75.5 713.5657,-56.5 594.5657,-56.5"/>
<text text-anchor="middle" x="654.0657" y="-63.5" font-family="'Consolas',monospace" font-size="10.00" fill="#000000">boost/version.hpp</text>
</a>
</g>
</g>
<!-- Node13&#45;&gt;Node14 -->
<g id="edge17" class="edge">
<title>Node13&#45;&gt;Node14</title>
<path fill="none" stroke="#191970" d="M611.1234,-112.2455C618.5798,-104.2155 629.3291,-92.6394 638.2074,-83.0781"/>
<polygon fill="#191970" stroke="#191970" points="640.872,-85.3522 645.1118,-75.6427 635.7424,-80.589 640.872,-85.3522"/>
</g>
<!-- Node15 -->
<g id="node16" class="node">
<title>Node15</title>
<g id="a_node16"><a doxygen="/w/doc/cppreference-doxygen-web.tag.xml:http://en.cppreference.com/w/" xlink:href="http://en.cppreference.com/w/cpp/header/iosfwd.html" xlink:title=" ">
<polygon fill="#ffffff" stroke="#000000" points="523.5657,-56.5 523.5657,-75.5 576.5657,-75.5 576.5657,-56.5 523.5657,-56.5"/>
<text text-anchor="middle" x="550.0657" y="-63.5" font-family="'Consolas',monospace" font-size="10.00" fill="#000000">iosfwd</text>
</a>
</g>
</g>
<!-- Node13&#45;&gt;Node15 -->
<g id="edge18" class="edge">
<title>Node13&#45;&gt;Node15</title>
<path fill="none" stroke="#191970" d="M593.008,-112.2455C585.5515,-104.2155 574.8023,-92.6394 565.924,-83.0781"/>
<polygon fill="#191970" stroke="#191970" points="568.3889,-80.589 559.0196,-75.6427 563.2594,-85.3522 568.3889,-80.589"/>
</g>
<!-- Node18&#45;&gt;Node19 -->
<g id="edge24" class="edge">
<title>Node18&#45;&gt;Node19</title>
<path fill="none" stroke="#191970" d="M1180.3553,-224.2455C1196.8419,-215.4527 1221.3008,-202.4079 1240.0422,-192.4125"/>
<polygon fill="#191970" stroke="#191970" points="1241.8092,-195.4368 1248.9857,-187.6427 1238.5151,-189.2604 1241.8092,-195.4368"/>
</g>
<!-- Node20 -->
<g id="node21" class="node">
<title>Node20</title>
<g id="a_node21"><a doxygen="/w/doc/cppreference-doxygen-web.tag.xml:http://en.cppreference.com/w/" xlink:href="http://en.cppreference.com/w/cpp/header/sstream.html" xlink:title=" ">
<polygon fill="#ffffff" stroke="#000000" points="1148.5657,-168.5 1148.5657,-187.5 1207.5657,-187.5 1207.5657,-168.5 1148.5657,-168.5"/>
<text text-anchor="middle" x="1178.0657" y="-175.5" font-family="'Consolas',monospace" font-size="10.00" fill="#000000">sstream</text>
</a>
</g>
</g>
<!-- Node18&#45;&gt;Node20 -->
<g id="edge26" class="edge">
<title>Node18&#45;&gt;Node20</title>
<path fill="none" stroke="#191970" d="M1164.8527,-224.2455C1166.9634,-216.8579 1169.9317,-206.4689 1172.5204,-197.4087"/>
<polygon fill="#191970" stroke="#191970" points="1175.9287,-198.2195 1175.3106,-187.6427 1169.198,-196.2964 1175.9287,-198.2195"/>
</g>
<!-- Node19&#45;&gt;Node3 -->
<g id="edge25" class="edge">
<title>Node19&#45;&gt;Node3</title>
<path fill="none" stroke="#191970" d="M1262.0143,-168.2455C1258.0638,-160.617 1252.456,-149.7881 1247.6599,-140.5267"/>
<polygon fill="#191970" stroke="#191970" points="1250.7658,-138.9131 1243.0592,-131.6427 1244.5498,-142.1321 1250.7658,-138.9131"/>
</g>
<!-- Node21&#45;&gt;Node10 -->
<g id="edge28" class="edge">
<title>Node21&#45;&gt;Node10</title>
<path fill="none" stroke="#191970" d="M1104.4786,-114.0285C1048.407,-103.9447 954.295,-86.8103 903.8905,-76.0433"/>
<polygon fill="#191970" stroke="#191970" points="904.3439,-72.56 893.8276,-73.8472 902.8513,-79.399 904.3439,-72.56"/>
</g>
<!-- Node22&#45;&gt;Node2 -->
<g id="edge32" class="edge">
<title>Node22&#45;&gt;Node2</title>
<path fill="none" stroke="#191970" d="M771.4342,-169.8452C768.6088,-169.1986 765.7899,-168.5744 763.0657,-168 673.8351,-149.1864 647.714,-160.4274 561.0657,-132 550.2085,-128.438 490.7852,-98.4967 454.8153,-80.1876"/>
<polygon fill="#191970" stroke="#191970" points="456.2844,-77.008 445.7855,-75.5849 453.1055,-83.2445 456.2844,-77.008"/>
</g>
<!-- Node22&#45;&gt;Node3 -->
<g id="edge33" class="edge">
<title>Node22&#45;&gt;Node3</title>
<path fill="none" stroke="#191970" d="M836.7682,-173.8863C851.52,-172.0504 869.1654,-169.8815 885.0657,-168 1023.0058,-151.6777 1061.7375,-159.2548 1201.2053,-132.1186"/>
<polygon fill="#191970" stroke="#191970" points="1202.2897,-135.4722 1211.4238,-130.1039 1200.9356,-128.6044 1202.2897,-135.4722"/>
</g>
<!-- Node22&#45;&gt;Node9 -->
<g id="edge30" class="edge">
<title>Node22&#45;&gt;Node9</title>
<path fill="none" stroke="#191970" d="M814.5169,-168.2455C823.2926,-160.0549 836.0211,-148.1749 846.3797,-138.5069"/>
<polygon fill="#191970" stroke="#191970" points="848.8118,-141.0246 853.7343,-131.6427 844.0355,-135.9072 848.8118,-141.0246"/>
</g>
<!-- Node22&#45;&gt;Node13 -->
<g id="edge31" class="edge">
<title>Node22&#45;&gt;Node13</title>
<path fill="none" stroke="#191970" d="M771.1613,-168.878C736.5769,-159.2902 682.0533,-144.1748 644.3111,-133.7116"/>
<polygon fill="#191970" stroke="#191970" points="645.1929,-130.3241 634.6213,-131.0253 643.3228,-137.0697 645.1929,-130.3241"/>
</g>
<!-- Node23&#45;&gt;Node2 -->
<g id="edge37" class="edge">
<title>Node23&#45;&gt;Node2</title>
<path fill="none" stroke="#191970" d="M363.9486,-168.4509C375.457,-149.7707 401.1144,-108.1238 415.9295,-84.0761"/>
<polygon fill="#191970" stroke="#191970" points="418.9323,-85.8747 421.1977,-75.5249 412.9725,-82.203 418.9323,-85.8747"/>
</g>
<!-- Node23&#45;&gt;Node10 -->
<g id="edge35" class="edge">
<title>Node23&#45;&gt;Node10</title>
<path fill="none" stroke="#191970" d="M383.0062,-168.4223C420.9307,-154.1959 495.6135,-127.4982 561.0657,-112 654.162,-89.9561 765.961,-76.1851 824.2625,-69.9406"/>
<polygon fill="#191970" stroke="#191970" points="824.9309,-73.3897 834.5095,-68.8619 824.198,-66.4282 824.9309,-73.3897"/>
</g>
<!-- Node23&#45;&gt;Node13 -->
<g id="edge36" class="edge">
<title>Node23&#45;&gt;Node13</title>
<path fill="none" stroke="#191970" d="M399.7335,-168.4369C444.3089,-158.2065 514.6401,-142.0649 559.5419,-131.7596"/>
<polygon fill="#191970" stroke="#191970" points="560.584,-135.1115 569.5476,-129.4632 559.0181,-128.2889 560.584,-135.1115"/>
</g>
<!-- Node24&#45;&gt;Node2 -->
<g id="edge40" class="edge">
<title>Node24&#45;&gt;Node2</title>
<path fill="none" stroke="#191970" d="M284.6335,-112.3733C314.0146,-102.8073 359.1289,-88.119 390.6893,-77.8435"/>
<polygon fill="#191970" stroke="#191970" points="391.9977,-81.0984 400.4228,-74.6744 389.8305,-74.4423 391.9977,-81.0984"/>
</g>
<!-- Node24&#45;&gt;Node10 -->
<g id="edge41" class="edge">
<title>Node24&#45;&gt;Node10</title>
<path fill="none" stroke="#191970" d="M284.6428,-118.1447C300.225,-116.1764 319.6639,-113.82 337.0657,-112 518.7592,-92.9971 736.2698,-75.7529 824.2413,-69.0072"/>
<polygon fill="#191970" stroke="#191970" points="824.6121,-72.4892 834.3163,-68.2372 824.0786,-65.5095 824.6121,-72.4892"/>
</g>
<!-- Node25&#45;&gt;Node6 -->
<g id="edge43" class="edge">
<title>Node25&#45;&gt;Node6</title>
<path fill="none" stroke="#191970" d="M1534.7573,-224.6162C1567.4238,-213.5544 1610.2373,-193.4164 1591.0657,-168 1536.5086,-95.6721 1484.0151,-129.1989 1395.0657,-112 1255.5955,-85.0325 1088.1017,-73.0612 1005.044,-68.4647"/>
<polygon fill="#191970" stroke="#191970" points="1005.0332,-64.9591 994.8591,-67.9148 1004.6558,-71.949 1005.0332,-64.9591"/>
</g>
<!-- Node25&#45;&gt;Node26 -->
<g id="edge44" class="edge">
<title>Node25&#45;&gt;Node26</title>
<path fill="none" stroke="#191970" d="M1477.9988,-224.3733C1455.2229,-215.2629 1420.8313,-201.5062 1395.4167,-191.3404"/>
<polygon fill="#191970" stroke="#191970" points="1396.4032,-187.9654 1385.8185,-187.5011 1393.8034,-194.4648 1396.4032,-187.9654"/>
</g>
<!-- Node25&#45;&gt;Node27 -->
<g id="edge48" class="edge">
<title>Node25&#45;&gt;Node27</title>
<path fill="none" stroke="#191970" d="M1509.2073,-224.2455C1514.9101,-216.4564 1523.0557,-205.3308 1529.9282,-195.9439"/>
<polygon fill="#191970" stroke="#191970" points="1532.9225,-197.7789 1536.0059,-187.6427 1527.2744,-193.6437 1532.9225,-197.7789"/>
</g>
<!-- Node26&#45;&gt;Node3 -->
<g id="edge45" class="edge">
<title>Node26&#45;&gt;Node3</title>
<path fill="none" stroke="#191970" d="M1340.7493,-168.3733C1320.8441,-159.3838 1290.9221,-145.8706 1268.5057,-135.7471"/>
<polygon fill="#191970" stroke="#191970" points="1269.6582,-132.4272 1259.1039,-131.5011 1266.777,-138.8068 1269.6582,-132.4272"/>
</g>
<!-- Node26&#45;&gt;Node10 -->
<g id="edge47" class="edge">
<title>Node26&#45;&gt;Node10</title>
<path fill="none" stroke="#191970" d="M1352.8724,-168.2908C1337.9538,-153.2454 1306.8252,-124.7106 1274.0657,-112 1122.6367,-53.246 1068.3554,-102.6475 903.7436,-75.8164"/>
<polygon fill="#191970" stroke="#191970" points="904.2186,-72.347 893.7733,-74.1207 903.0449,-79.2479 904.2186,-72.347"/>
</g>
<!-- Node26&#45;&gt;Node16 -->
<g id="edge46" class="edge">
<title>Node26&#45;&gt;Node16</title>
<path fill="none" stroke="#191970" d="M1326.0903,-169.6087C1323.3794,-169.0423 1320.6819,-168.4993 1318.0657,-168 1224.897,-150.22 1114.2879,-134.4962 1057.9859,-126.8737"/>
<polygon fill="#191970" stroke="#191970" points="1058.1735,-123.3675 1047.796,-125.5025 1057.2399,-130.3049 1058.1735,-123.3675"/>
</g>
<!-- Node27&#45;&gt;Node3 -->
<g id="edge49" class="edge">
<title>Node27&#45;&gt;Node3</title>
<path fill="none" stroke="#191970" d="M1504.3578,-169.6579C1501.5538,-169.0863 1498.7675,-168.5281 1496.0657,-168 1417.4844,-152.6394 1325.0206,-136.6597 1274.8954,-128.1709"/>
<polygon fill="#191970" stroke="#191970" points="1275.3054,-124.6906 1264.8621,-126.4761 1274.1394,-131.5928 1275.3054,-124.6906"/>
</g>
<!-- Node27&#45;&gt;Node10 -->
<g id="edge50" class="edge">
<title>Node27&#45;&gt;Node10</title>
<path fill="none" stroke="#191970" d="M1520.3906,-168.4412C1484.0966,-153.6018 1410.388,-125.3442 1345.0657,-112 1155.1647,-73.2066 1099.295,-107.4182 903.7873,-75.8259"/>
<polygon fill="#191970" stroke="#191970" points="904.202,-72.347 893.765,-74.1689 903.0602,-79.2532 904.202,-72.347"/>
</g>
<!-- Node28&#45;&gt;Node10 -->
<g id="edge52" class="edge">
<title>Node28&#45;&gt;Node10</title>
<path fill="none" stroke="#191970" d="M1601.7613,-224.1625C1603.609,-209.9699 1604.6974,-183.7314 1591.0657,-168 1531.7364,-99.5322 1484.2683,-127.8334 1395.0657,-112 1182.4565,-74.2619 1121.2899,-110.2447 903.8962,-75.8317"/>
<polygon fill="#191970" stroke="#191970" points="904.1909,-72.334 893.7608,-74.1946 903.0747,-79.2445 904.1909,-72.334"/>
</g>
<!-- Node29&#45;&gt;Node10 -->
<g id="edge56" class="edge">
<title>Node29&#45;&gt;Node10</title>
<path fill="none" stroke="#191970" d="M658.9175,-168.7625C699.3884,-158.8112 759.8032,-142.936 781.0657,-132 806.4391,-118.9496 831.511,-97.5106 847.3467,-82.6233"/>
<polygon fill="#191970" stroke="#191970" points="849.9569,-84.969 854.7385,-75.5145 845.1046,-79.9236 849.9569,-84.969"/>
</g>
<!-- Node29&#45;&gt;Node13 -->
<g id="edge57" class="edge">
<title>Node29&#45;&gt;Node13</title>
<path fill="none" stroke="#191970" d="M616.9303,-168.2455C614.5557,-160.8579 611.2164,-150.4689 608.3042,-141.4087"/>
<polygon fill="#191970" stroke="#191970" points="611.5574,-140.0919 605.1651,-131.6427 604.8932,-142.234 611.5574,-140.0919"/>
</g>
<!-- Node30&#45;&gt;Node9 -->
<g id="edge59" class="edge">
<title>Node30&#45;&gt;Node9</title>
<path fill="none" stroke="#191970" d="M740.6797,-168.3733C765.1344,-159.1822 802.1711,-145.2624 829.2866,-135.0713"/>
<polygon fill="#191970" stroke="#191970" points="830.6566,-138.2956 838.7859,-131.5011 828.1938,-131.7431 830.6566,-138.2956"/>
</g>
<!-- Node30&#45;&gt;Node13 -->
<g id="edge60" class="edge">
<title>Node30&#45;&gt;Node13</title>
<path fill="none" stroke="#191970" d="M695.6403,-168.3733C677.6635,-159.4644 650.7216,-146.1127 630.3566,-136.0203"/>
<polygon fill="#191970" stroke="#191970" points="631.7518,-132.8055 621.2376,-131.5011 628.6435,-139.0776 631.7518,-132.8055"/>
</g>
<!-- Node31&#45;&gt;Node3 -->
<g id="edge63" class="edge">
<title>Node31&#45;&gt;Node3</title>
<path fill="none" stroke="#191970" d="M1415.4143,-168.6269C1376.3027,-158.344 1313.8601,-141.9272 1274.4572,-131.5677"/>
<polygon fill="#191970" stroke="#191970" points="1275.2829,-128.1659 1264.7215,-129.0081 1273.5029,-134.9359 1275.2829,-128.1659"/>
</g>
<!-- Node31&#45;&gt;Node10 -->
<g id="edge62" class="edge">
<title>Node31&#45;&gt;Node10</title>
<path fill="none" stroke="#191970" d="M1434.6627,-168.3611C1408.3348,-153.4119 1354.5684,-125.0066 1305.0657,-112 1134.707,-67.2391 1081.7651,-104.9602 903.725,-75.821"/>
<polygon fill="#191970" stroke="#191970" points="904.2118,-72.3538 893.7693,-74.1438 903.0488,-79.2565 904.2118,-72.3538"/>
</g>
<!-- Node32&#45;&gt;Node2 -->
<g id="edge68" class="edge">
<title>Node32&#45;&gt;Node2</title>
<path fill="none" stroke="#191970" d="M931.7734,-168.0524C930.7509,-153.2196 926.4673,-125.5976 909.0657,-112 839.7873,-57.866 602.5278,-84.9641 515.0657,-76 498.2879,-74.2804 479.7322,-72.1986 464.0023,-70.3806"/>
<polygon fill="#191970" stroke="#191970" points="463.958,-66.8519 453.6203,-69.1718 463.1484,-73.8049 463.958,-66.8519"/>
</g>
<!-- Node32&#45;&gt;Node3 -->
<g id="edge69" class="edge">
<title>Node32&#45;&gt;Node3</title>
<path fill="none" stroke="#191970" d="M970.8086,-169.7714C973.9372,-169.1548 977.0523,-168.5568 980.0657,-168 1075.6071,-150.3453 1103.3038,-153.5891 1201.361,-132.1926"/>
<polygon fill="#191970" stroke="#191970" points="1202.3887,-135.5499 1211.3959,-129.9715 1200.8758,-128.7154 1202.3887,-135.5499"/>
</g>
<!-- Node32&#45;&gt;Node5 -->
<g id="edge65" class="edge">
<title>Node32&#45;&gt;Node5</title>
<path fill="none" stroke="#191970" d="M894.2463,-168.3733C856.8719,-158.8598 799.5932,-144.2797 759.2586,-134.0127"/>
<polygon fill="#191970" stroke="#191970" points="759.9459,-130.5761 749.3915,-131.5011 758.2191,-137.3598 759.9459,-130.5761"/>
</g>
<!-- Node32&#45;&gt;Node10 -->
<g id="edge71" class="edge">
<title>Node32&#45;&gt;Node10</title>
<path fill="none" stroke="#191970" d="M937.1346,-168.3411C943.466,-154.8237 952.2973,-129.9124 942.0657,-112 933.4774,-96.9646 917.841,-86.352 902.811,-79.1396"/>
<polygon fill="#191970" stroke="#191970" points="904.1616,-75.91 893.5994,-75.0791 901.3381,-82.3154 904.1616,-75.91"/>
</g>
<!-- Node32&#45;&gt;Node13 -->
<g id="edge66" class="edge">
<title>Node32&#45;&gt;Node13</title>
<path fill="none" stroke="#191970" d="M893.2366,-172.7461C839.6561,-165.2888 739.8382,-150.6521 644.6574,-131.9913"/>
<polygon fill="#191970" stroke="#191970" points="645.0613,-128.5034 634.572,-129.9952 643.7021,-135.3702 645.0613,-128.5034"/>
</g>
<!-- Node32&#45;&gt;Node16 -->
<g id="edge70" class="edge">
<title>Node32&#45;&gt;Node16</title>
<path fill="none" stroke="#191970" d="M947.5683,-168.2455C961.2236,-159.6534 981.3314,-147.0014 997.0646,-137.1018"/>
<polygon fill="#191970" stroke="#191970" points="999.1408,-139.9307 1005.7407,-131.6427 995.4128,-134.006 999.1408,-139.9307"/>
</g>
<!-- Node32&#45;&gt;Node21 -->
<g id="edge67" class="edge">
<title>Node32&#45;&gt;Node21</title>
<path fill="none" stroke="#191970" d="M969.3693,-168.3733C1006.2342,-158.8598 1062.7317,-144.2797 1102.5163,-134.0127"/>
<polygon fill="#191970" stroke="#191970" points="1103.4407,-137.3889 1112.2488,-131.5011 1101.6915,-130.611 1103.4407,-137.3889"/>
</g>
<!-- Node33&#45;&gt;Node2 -->
<g id="edge74" class="edge">
<title>Node33&#45;&gt;Node2</title>
<path fill="none" stroke="#191970" d="M1033.2098,-168.3089C1049.068,-154.5299 1073.0291,-129.0589 1057.0657,-112 1015.8268,-67.9311 575.1778,-81.4088 515.0657,-76 498.2679,-74.4886 479.7093,-72.4365 463.9826,-70.5845"/>
<polygon fill="#191970" stroke="#191970" points="463.9487,-67.0556 453.6038,-69.3435 463.1175,-74.0061 463.9487,-67.0556"/>
</g>
<!-- Node33&#45;&gt;Node3 -->
<g id="edge75" class="edge">
<title>Node33&#45;&gt;Node3</title>
<path fill="none" stroke="#191970" d="M1053.6922,-170.0743C1088.18,-161.626 1144.4036,-147.6542 1201.4343,-132.3898"/>
<polygon fill="#191970" stroke="#191970" points="1202.5874,-135.7041 1211.3362,-129.7284 1200.7704,-128.944 1202.5874,-135.7041"/>
</g>
<!-- Node33&#45;&gt;Node16 -->
<g id="edge76" class="edge">
<title>Node33&#45;&gt;Node16</title>
<path fill="none" stroke="#191970" d="M1021.0657,-168.2455C1021.0657,-160.9382 1021.0657,-150.6944 1021.0657,-141.7046"/>
<polygon fill="#191970" stroke="#191970" points="1024.5658,-141.6426 1021.0657,-131.6427 1017.5658,-141.6427 1024.5658,-141.6426"/>
</g>
<!-- Node33&#45;&gt;Node21 -->
<g id="edge73" class="edge">
<title>Node33&#45;&gt;Node21</title>
<path fill="none" stroke="#191970" d="M1043.0697,-168.3733C1063.7091,-159.3435 1094.7814,-145.7494 1117.9546,-135.6111"/>
<polygon fill="#191970" stroke="#191970" points="1119.5901,-138.7159 1127.3488,-131.5011 1116.7844,-132.3028 1119.5901,-138.7159"/>
</g>
<!-- Node35&#45;&gt;Node2 -->
<g id="edge80" class="edge">
<title>Node35&#45;&gt;Node2</title>
<path fill="none" stroke="#191970" d="M926.4837,-232.383C842.8949,-228.1722 636.2993,-215.2502 573.0657,-188 543.9821,-175.4666 476.5558,-113.2624 444.5429,-82.8283"/>
<polygon fill="#191970" stroke="#191970" points="446.8605,-80.2018 437.212,-75.8249 442.0251,-85.2634 446.8605,-80.2018"/>
</g>
<!-- Node35&#45;&gt;Node3 -->
<g id="edge81" class="edge">
<title>Node35&#45;&gt;Node3</title>
<path fill="none" stroke="#191970" d="M985.5973,-224.4509C1034.788,-204.4895 1148.6045,-158.3031 1205.0696,-135.3897"/>
<polygon fill="#191970" stroke="#191970" points="1206.6436,-138.5283 1214.5936,-131.5249 1204.0114,-132.042 1206.6436,-138.5283"/>
</g>
<!-- Node35&#45;&gt;Node32 -->
<g id="edge79" class="edge">
<title>Node35&#45;&gt;Node32</title>
<path fill="none" stroke="#191970" d="M956.8401,-224.2455C952.7534,-216.617 946.9522,-205.7881 941.9907,-196.5267"/>
<polygon fill="#191970" stroke="#191970" points="945.0389,-194.8047 937.2314,-187.6427 938.8685,-198.1103 945.0389,-194.8047"/>
</g>
<!-- Node36&#45;&gt;Node2 -->
<g id="edge86" class="edge">
<title>Node36&#45;&gt;Node2</title>
<path fill="none" stroke="#191970" d="M267.3597,-168.2527C282.0649,-154.6301 310.2776,-129.5947 337.0657,-112 355.7522,-99.7265 378.1306,-88.276 395.8978,-79.8693"/>
<polygon fill="#191970" stroke="#191970" points="397.6484,-82.9153 405.2413,-75.5262 394.6977,-76.5675 397.6484,-82.9153"/>
</g>
<!-- Node36&#45;&gt;Node10 -->
<g id="edge84" class="edge">
<title>Node36&#45;&gt;Node10</title>
<path fill="none" stroke="#191970" d="M285.289,-168.4321C328.619,-154.0953 414.3648,-127.1122 489.0657,-112 609.8382,-87.5674 755.2928,-74.2225 824.1713,-68.8493"/>
<polygon fill="#191970" stroke="#191970" points="824.4563,-72.3378 834.1598,-68.0844 823.9218,-65.3582 824.4563,-72.3378"/>
</g>
<!-- Node36&#45;&gt;Node24 -->
<g id="edge85" class="edge">
<title>Node36&#45;&gt;Node24</title>
<path fill="none" stroke="#191970" d="M256.7173,-168.2455C256.4563,-160.9382 256.0905,-150.6944 255.7694,-141.7046"/>
<polygon fill="#191970" stroke="#191970" points="259.2649,-141.5113 255.4101,-131.6427 252.2693,-141.7613 259.2649,-141.5113"/>
</g>
</g>
</svg>
