<?xml version="1.0" encoding="UTF-8" standalone="no"?>
<!DOCTYPE svg PUBLIC "-//W3C//DTD SVG 1.1//EN"
 "http://www.w3.org/Graphics/SVG/1.1/DTD/svg11.dtd">
<!-- Generated by graphviz version 2.40.1 (0)
 -->
<!-- Title: jngl/all.hpp Pages: 1 -->
<svg width="1685pt" height="308pt"
 viewBox="0.00 0.00 1685.00 308.00" xmlns="http://www.w3.org/2000/svg" xmlns:xlink="http://www.w3.org/1999/xlink">
<g id="graph0" class="graph" transform="scale(1 1) rotate(0) translate(4 304)">
<title>jngl/all.hpp</title>
<polygon fill="#ffffff" stroke="transparent" points="-4,4 -4,-304 1681,-304 1681,4 -4,4"/>
<!-- Node0 -->
<g id="node1" class="node">
<title>Node0</title>
<g id="a_node1"><a xlink:title="Includes all JNGL headers.">
<polygon fill="#bfbfbf" stroke="#000000" points="794,-280.5 794,-299.5 883,-299.5 883,-280.5 794,-280.5"/>
<text text-anchor="middle" x="838.5" y="-287.5" font-family="'Consolas',monospace" font-size="10.00" fill="#000000">jngl/all.hpp</text>
</a>
</g>
</g>
<!-- Node1 -->
<g id="node2" class="node">
<title>Node1</title>
<g id="a_node2"><a xlink:href="App_8hpp.html" target="_top" xlink:title=" ">
<polygon fill="#ffffff" stroke="#000000" points="751,-168.5 751,-187.5 810,-187.5 810,-168.5 751,-168.5"/>
<text text-anchor="middle" x="780.5" y="-175.5" font-family="'Consolas',monospace" font-size="10.00" fill="#000000">App.hpp</text>
</a>
</g>
</g>
<!-- Node0&#45;&gt;Node1 -->
<g id="edge1" class="edge">
<title>Node0&#45;&gt;Node1</title>
<path fill="none" stroke="#191970" d="M833.555,-280.4509C823.9669,-261.936 802.6949,-220.8591 790.1936,-196.7187"/>
<polygon fill="#191970" stroke="#191970" points="793.1391,-194.7953 785.4325,-187.5249 786.9231,-198.0144 793.1391,-194.7953"/>
</g>
<!-- Node4 -->
<g id="node5" class="node">
<title>Node4</title>
<g id="a_node5"><a xlink:href="Shader_8hpp.html" target="_top" xlink:title=" ">
<polygon fill="#ffffff" stroke="#000000" points="138,-112.5 138,-131.5 215,-131.5 215,-112.5 138,-112.5"/>
<text text-anchor="middle" x="176.5" y="-119.5" font-family="'Consolas',monospace" font-size="10.00" fill="#000000">Shader.hpp</text>
</a>
</g>
</g>
<!-- Node0&#45;&gt;Node4 -->
<g id="edge4" class="edge">
<title>Node0&#45;&gt;Node4</title>
<path fill="none" stroke="#191970" d="M793.8036,-287.5134C687.3711,-281.3356 421.3375,-264.3131 334.5,-244 267.2323,-228.2647 233.9181,-240.911 189.5,-188 178.8351,-175.296 176.0026,-156.3729 175.5943,-142.042"/>
<polygon fill="#191970" stroke="#191970" points="179.0967,-141.7698 175.6833,-131.7399 172.097,-141.7093 179.0967,-141.7698"/>
</g>
<!-- Node5 -->
<g id="node6" class="node">
<title>Node5</title>
<g id="a_node6"><a xlink:href="ShaderProgram_8hpp.html" target="_top" xlink:title=" ">
<polygon fill="#ffffff" stroke="#000000" points="842,-112.5 842,-131.5 961,-131.5 961,-112.5 842,-112.5"/>
<text text-anchor="middle" x="901.5" y="-119.5" font-family="'Consolas',monospace" font-size="10.00" fill="#000000">ShaderProgram.hpp</text>
</a>
</g>
</g>
<!-- Node0&#45;&gt;Node5 -->
<g id="edge6" class="edge">
<title>Node0&#45;&gt;Node5</title>
<path fill="none" stroke="#191970" d="M840.8345,-280.4808C844.0988,-267.5439 850.4269,-243.7578 857.5,-224 868.1209,-194.3321 883.1086,-160.9835 892.562,-140.7387"/>
<polygon fill="#191970" stroke="#191970" points="895.7338,-142.2185 896.8318,-131.6807 889.402,-139.2337 895.7338,-142.2185"/>
</g>
<!-- Node8 -->
<g id="node9" class="node">
<title>Node8</title>
<g id="a_node9"><a xlink:href="Vertex_8hpp.html" target="_top" xlink:title=" ">
<polygon fill="#ffffff" stroke="#000000" points="344,-224.5 344,-243.5 421,-243.5 421,-224.5 344,-224.5"/>
<text text-anchor="middle" x="382.5" y="-231.5" font-family="'Consolas',monospace" font-size="10.00" fill="#000000">Vertex.hpp</text>
</a>
</g>
</g>
<!-- Node0&#45;&gt;Node8 -->
<g id="edge10" class="edge">
<title>Node0&#45;&gt;Node8</title>
<path fill="none" stroke="#191970" d="M793.9331,-285.9834C719.4799,-279.0337 565.1824,-263.6088 435.5,-244 434.0534,-243.7813 432.5859,-243.552 431.1055,-243.3142"/>
<polygon fill="#191970" stroke="#191970" points="431.6753,-239.861 421.2318,-241.6449 430.5083,-246.763 431.6753,-239.861"/>
</g>
<!-- Node9 -->
<g id="node10" class="node">
<title>Node9</title>
<g id="a_node10"><a xlink:href="Color_8hpp.html" target="_top" xlink:title=" ">
<polygon fill="#ffffff" stroke="#000000" points="484,-112.5 484,-131.5 555,-131.5 555,-112.5 484,-112.5"/>
<text text-anchor="middle" x="519.5" y="-119.5" font-family="'Consolas',monospace" font-size="10.00" fill="#000000">Color.hpp</text>
</a>
</g>
</g>
<!-- Node0&#45;&gt;Node9 -->
<g id="edge11" class="edge">
<title>Node0&#45;&gt;Node9</title>
<path fill="none" stroke="#191970" d="M795.9678,-280.4647C765.8632,-272.8228 725.0443,-260.624 691.5,-244 675.4221,-236.0321 583.0908,-168.7144 540.7316,-137.6248"/>
<polygon fill="#191970" stroke="#191970" points="542.6277,-134.6749 532.4965,-131.575 538.4833,-140.3162 542.6277,-134.6749"/>
</g>
<!-- Node11 -->
<g id="node12" class="node">
<title>Node11</title>
<g id="a_node12"><a xlink:href="Controller_8hpp.html" target="_top" xlink:title=" ">
<polygon fill="#ffffff" stroke="#000000" points="53,-224.5 53,-243.5 154,-243.5 154,-224.5 53,-224.5"/>
<text text-anchor="middle" x="103.5" y="-231.5" font-family="'Consolas',monospace" font-size="10.00" fill="#000000">Controller.hpp</text>
</a>
</g>
</g>
<!-- Node0&#45;&gt;Node11 -->
<g id="edge13" class="edge">
<title>Node0&#45;&gt;Node11</title>
<path fill="none" stroke="#191970" d="M793.6907,-288.227C685.8029,-283.6745 403.1588,-270.0594 168.5,-244 167.1915,-243.8547 165.8689,-243.7022 164.5363,-243.5434"/>
<polygon fill="#191970" stroke="#191970" points="164.5507,-240.0168 154.1874,-242.2194 163.6623,-246.9602 164.5507,-240.0168"/>
</g>
<!-- Node12 -->
<g id="node13" class="node">
<title>Node12</title>
<g id="a_node13"><a xlink:href="input_8hpp.html" target="_top" xlink:title=" ">
<polygon fill="#ffffff" stroke="#000000" points="0,-168.5 0,-187.5 71,-187.5 71,-168.5 0,-168.5"/>
<text text-anchor="middle" x="35.5" y="-175.5" font-family="'Consolas',monospace" font-size="10.00" fill="#000000">input.hpp</text>
</a>
</g>
</g>
<!-- Node0&#45;&gt;Node12 -->
<g id="edge37" class="edge">
<title>Node0&#45;&gt;Node12</title>
<path fill="none" stroke="#191970" d="M793.8123,-288.9852C630.0727,-285.0659 71.01,-269.8338 43.5,-244 31.2972,-232.5408 30.3533,-212.8825 31.8278,-197.9931"/>
<polygon fill="#191970" stroke="#191970" points="35.3413,-198.1438 33.2803,-187.7514 28.4107,-197.1608 35.3413,-198.1438"/>
</g>
<!-- Node18 -->
<g id="node19" class="node">
<title>Node18</title>
<g id="a_node19"><a xlink:href="debug_8hpp_source.html" target="_top" xlink:title=" ">
<polygon fill="#ffffff" stroke="#000000" points="1145,-224.5 1145,-243.5 1216,-243.5 1216,-224.5 1145,-224.5"/>
<text text-anchor="middle" x="1180.5" y="-231.5" font-family="'Consolas',monospace" font-size="10.00" fill="#000000">debug.hpp</text>
</a>
</g>
</g>
<!-- Node0&#45;&gt;Node18 -->
<g id="edge22" class="edge">
<title>Node0&#45;&gt;Node18</title>
<path fill="none" stroke="#191970" d="M883.2105,-282.679C948.3479,-272.0132 1068.723,-252.3027 1134.5519,-241.5237"/>
<polygon fill="#191970" stroke="#191970" points="1135.3289,-244.9431 1144.6319,-239.8731 1134.1977,-238.0351 1135.3289,-244.9431"/>
</g>
<!-- Node19 -->
<g id="node20" class="node">
<title>Node19</title>
<g id="a_node20"><a xlink:href="message_8hpp.html" target="_top" xlink:title=" ">
<polygon fill="#ffffff" stroke="#000000" points="1237,-168.5 1237,-187.5 1320,-187.5 1320,-168.5 1237,-168.5"/>
<text text-anchor="middle" x="1278.5" y="-175.5" font-family="'Consolas',monospace" font-size="10.00" fill="#000000">message.hpp</text>
</a>
</g>
</g>
<!-- Node0&#45;&gt;Node19 -->
<g id="edge52" class="edge">
<title>Node0&#45;&gt;Node19</title>
<path fill="none" stroke="#191970" d="M883.0942,-288.8915C971.9648,-286.0108 1167.584,-276.112 1225.5,-244 1244.8988,-233.2442 1259.8468,-212.2282 1268.8488,-196.7898"/>
<polygon fill="#191970" stroke="#191970" points="1272.1428,-198.0633 1273.8929,-187.614 1266.0085,-194.6912 1272.1428,-198.0633"/>
</g>
<!-- Node21 -->
<g id="node22" class="node">
<title>Node21</title>
<g id="a_node22"><a xlink:href="drawable_8hpp_source.html" target="_top" xlink:title=" ">
<polygon fill="#ffffff" stroke="#000000" points="1128,-112.5 1128,-131.5 1217,-131.5 1217,-112.5 1128,-112.5"/>
<text text-anchor="middle" x="1172.5" y="-119.5" font-family="'Consolas',monospace" font-size="10.00" fill="#000000">drawable.hpp</text>
</a>
</g>
</g>
<!-- Node0&#45;&gt;Node21 -->
<g id="edge26" class="edge">
<title>Node0&#45;&gt;Node21</title>
<path fill="none" stroke="#191970" d="M882.6591,-280.4686C913.9411,-272.8285 956.4094,-260.6303 991.5,-244 1054.7289,-214.0343 1120.9069,-163.8292 1152.8879,-138.1685"/>
<polygon fill="#191970" stroke="#191970" points="1155.4047,-140.634 1160.9705,-131.6189 1150.9976,-135.1954 1155.4047,-140.634"/>
</g>
<!-- Node22 -->
<g id="node23" class="node">
<title>Node22</title>
<g id="a_node23"><a xlink:href="font_8hpp.html" target="_top" xlink:title=" ">
<polygon fill="#ffffff" stroke="#000000" points="508,-168.5 508,-187.5 573,-187.5 573,-168.5 508,-168.5"/>
<text text-anchor="middle" x="540.5" y="-175.5" font-family="'Consolas',monospace" font-size="10.00" fill="#000000">font.hpp</text>
</a>
</g>
</g>
<!-- Node0&#45;&gt;Node22 -->
<g id="edge28" class="edge">
<title>Node0&#45;&gt;Node22</title>
<path fill="none" stroke="#191970" d="M793.903,-285.8766C731.2582,-279.4104 621.0941,-265.3728 587.5,-244 569.7808,-232.7269 556.7437,-212.1552 548.9541,-196.9647"/>
<polygon fill="#191970" stroke="#191970" points="552.0872,-195.4039 544.5965,-187.9112 545.7798,-198.4398 552.0872,-195.4039"/>
</g>
<!-- Node23 -->
<g id="node24" class="node">
<title>Node23</title>
<g id="a_node24"><a xlink:href="framebuffer_8hpp_source.html" target="_top" xlink:title=" ">
<polygon fill="#ffffff" stroke="#000000" points="199,-168.5 199,-187.5 300,-187.5 300,-168.5 199,-168.5"/>
<text text-anchor="middle" x="249.5" y="-175.5" font-family="'Consolas',monospace" font-size="10.00" fill="#000000">framebuffer.hpp</text>
</a>
</g>
</g>
<!-- Node0&#45;&gt;Node23 -->
<g id="edge33" class="edge">
<title>Node0&#45;&gt;Node23</title>
<path fill="none" stroke="#191970" d="M793.7702,-286.8075C708.041,-280.3125 523.7552,-264.4298 463.5,-244 446.8968,-238.3706 445.7087,-230.6809 429.5,-224 391.2308,-208.2262 346.0963,-196.7074 310.5966,-189.1414"/>
<polygon fill="#191970" stroke="#191970" points="310.8846,-185.6265 300.3813,-187.0161 309.4588,-192.4797 310.8846,-185.6265"/>
</g>
<!-- Node24 -->
<g id="node25" class="node">
<title>Node24</title>
<g id="a_node25"><a xlink:href="job_8hpp.html" target="_top" xlink:title=" ">
<polygon fill="#ffffff" stroke="#000000" points="612,-112.5 612,-131.5 671,-131.5 671,-112.5 612,-112.5"/>
<text text-anchor="middle" x="641.5" y="-119.5" font-family="'Consolas',monospace" font-size="10.00" fill="#000000">job.hpp</text>
</a>
</g>
</g>
<!-- Node0&#45;&gt;Node24 -->
<g id="edge38" class="edge">
<title>Node0&#45;&gt;Node24</title>
<path fill="none" stroke="#191970" d="M806.2743,-280.4618C765.6037,-266.7374 696.3964,-237.4722 658.5,-188 648.2804,-174.6588 644.1678,-155.8055 642.5316,-141.6631"/>
<polygon fill="#191970" stroke="#191970" points="646.005,-141.1986 641.6808,-131.5264 639.0295,-141.7841 646.005,-141.1986"/>
</g>
<!-- Node25 -->
<g id="node26" class="node">
<title>Node25</title>
<g id="a_node26"><a xlink:href="main_8hpp_source.html" target="_top" xlink:title=" ">
<polygon fill="#ffffff" stroke="#000000" points="1349,-224.5 1349,-243.5 1414,-243.5 1414,-224.5 1349,-224.5"/>
<text text-anchor="middle" x="1381.5" y="-231.5" font-family="'Consolas',monospace" font-size="10.00" fill="#000000">main.hpp</text>
</a>
</g>
</g>
<!-- Node0&#45;&gt;Node25 -->
<g id="edge41" class="edge">
<title>Node0&#45;&gt;Node25</title>
<path fill="none" stroke="#191970" d="M883.1742,-287.6163C970.3451,-282.5768 1169.0656,-269.1821 1334.5,-244 1335.9691,-243.7764 1337.4612,-243.5355 1338.9662,-243.2807"/>
<polygon fill="#191970" stroke="#191970" points="1339.7745,-246.6908 1348.9745,-241.4363 1338.5058,-239.8067 1339.7745,-246.6908"/>
</g>
<!-- Node26 -->
<g id="node27" class="node">
<title>Node26</title>
<g id="a_node27"><a xlink:href="other_8hpp.html" target="_top" xlink:title=" ">
<polygon fill="#ffffff" stroke="#000000" points="1338,-168.5 1338,-187.5 1409,-187.5 1409,-168.5 1338,-168.5"/>
<text text-anchor="middle" x="1373.5" y="-175.5" font-family="'Consolas',monospace" font-size="10.00" fill="#000000">other.hpp</text>
</a>
</g>
</g>
<!-- Node0&#45;&gt;Node26 -->
<g id="edge53" class="edge">
<title>Node0&#45;&gt;Node26</title>
<path fill="none" stroke="#191970" d="M883.2783,-287.1544C975.3227,-280.9543 1182.8123,-265.0746 1250.5,-244 1288.0857,-232.2976 1327.4955,-208.8733 1351.2819,-193.3143"/>
<polygon fill="#191970" stroke="#191970" points="1353.5067,-196.0377 1359.8876,-187.5798 1349.625,-190.2125 1353.5067,-196.0377"/>
</g>
<!-- Node27 -->
<g id="node28" class="node">
<title>Node27</title>
<g id="a_node28"><a xlink:href="window_8hpp.html" target="_top" xlink:title="Functions related to the main window.">
<polygon fill="#ffffff" stroke="#000000" points="1516,-168.5 1516,-187.5 1593,-187.5 1593,-168.5 1516,-168.5"/>
<text text-anchor="middle" x="1554.5" y="-175.5" font-family="'Consolas',monospace" font-size="10.00" fill="#000000">window.hpp</text>
</a>
</g>
</g>
<!-- Node0&#45;&gt;Node27 -->
<g id="edge81" class="edge">
<title>Node0&#45;&gt;Node27</title>
<path fill="none" stroke="#191970" d="M883.1307,-289.1013C1023.8599,-285.9683 1452.2096,-274.0392 1506.5,-244 1525.2118,-233.6467 1538.5448,-212.5585 1546.3369,-196.9932"/>
<polygon fill="#191970" stroke="#191970" points="1549.6022,-198.2725 1550.6582,-187.7304 1543.2586,-195.313 1549.6022,-198.2725"/>
</g>
<!-- Node28 -->
<g id="node29" class="node">
<title>Node28</title>
<g id="a_node29"><a xlink:href="matrix_8hpp_source.html" target="_top" xlink:title=" ">
<polygon fill="#ffffff" stroke="#000000" points="1600,-224.5 1600,-243.5 1677,-243.5 1677,-224.5 1600,-224.5"/>
<text text-anchor="middle" x="1638.5" y="-231.5" font-family="'Consolas',monospace" font-size="10.00" fill="#000000">matrix.hpp</text>
</a>
</g>
</g>
<!-- Node0&#45;&gt;Node28 -->
<g id="edge50" class="edge">
<title>Node0&#45;&gt;Node28</title>
<path fill="none" stroke="#191970" d="M883.1661,-288.0594C996.2191,-282.9484 1302.8222,-267.8468 1557.5,-244 1567.9771,-243.019 1579.1921,-241.7656 1589.8353,-240.4804"/>
<polygon fill="#191970" stroke="#191970" points="1590.3263,-243.9464 1599.8216,-239.2463 1589.4678,-236.9992 1590.3263,-243.9464"/>
</g>
<!-- Node29 -->
<g id="node30" class="node">
<title>Node29</title>
<g id="a_node30"><a xlink:href="screen_8hpp.html" target="_top" xlink:title=" ">
<polygon fill="#ffffff" stroke="#000000" points="318,-168.5 318,-187.5 395,-187.5 395,-168.5 318,-168.5"/>
<text text-anchor="middle" x="356.5" y="-175.5" font-family="'Consolas',monospace" font-size="10.00" fill="#000000">screen.hpp</text>
</a>
</g>
</g>
<!-- Node0&#45;&gt;Node29 -->
<g id="edge54" class="edge">
<title>Node0&#45;&gt;Node29</title>
<path fill="none" stroke="#191970" d="M793.8087,-287.0323C731.3071,-282.1061 614.6517,-270.0757 518.5,-244 492.8977,-237.0568 426.7983,-208.8552 387.3949,-191.6421"/>
<polygon fill="#191970" stroke="#191970" points="388.5571,-188.3302 377.9931,-187.5223 385.7476,-194.7416 388.5571,-188.3302"/>
</g>
<!-- Node30 -->
<g id="node31" class="node">
<title>Node30</title>
<g id="a_node31"><a xlink:href="shapes_8hpp.html" target="_top" xlink:title=" ">
<polygon fill="#ffffff" stroke="#000000" points="413,-168.5 413,-187.5 490,-187.5 490,-168.5 413,-168.5"/>
<text text-anchor="middle" x="451.5" y="-175.5" font-family="'Consolas',monospace" font-size="10.00" fill="#000000">shapes.hpp</text>
</a>
</g>
</g>
<!-- Node0&#45;&gt;Node30 -->
<g id="edge57" class="edge">
<title>Node0&#45;&gt;Node30</title>
<path fill="none" stroke="#191970" d="M793.8919,-287.5552C738.4167,-283.3916 641.5088,-272.3978 563.5,-244 529.3892,-231.5826 493.9302,-208.7158 472.2819,-193.4315"/>
<polygon fill="#191970" stroke="#191970" points="474.3228,-190.5881 464.1601,-187.593 470.2368,-196.2719 474.3228,-190.5881"/>
</g>
<!-- Node31 -->
<g id="node32" class="node">
<title>Node31</title>
<g id="a_node32"><a xlink:href="sound_8hpp_source.html" target="_top" xlink:title=" ">
<polygon fill="#ffffff" stroke="#000000" points="1427,-168.5 1427,-187.5 1498,-187.5 1498,-168.5 1427,-168.5"/>
<text text-anchor="middle" x="1462.5" y="-175.5" font-family="'Consolas',monospace" font-size="10.00" fill="#000000">sound.hpp</text>
</a>
</g>
</g>
<!-- Node0&#45;&gt;Node31 -->
<g id="edge60" class="edge">
<title>Node0&#45;&gt;Node31</title>
<path fill="none" stroke="#191970" d="M883.3185,-289.1821C964.6856,-286.8655 1141.6854,-277.9907 1286.5,-244 1288.3103,-243.5751 1376.8341,-210.2708 1427.6244,-191.1414"/>
<polygon fill="#191970" stroke="#191970" points="1429.1181,-194.3189 1437.2424,-187.5185 1426.6505,-187.7682 1429.1181,-194.3189"/>
</g>
<!-- Node32 -->
<g id="node33" class="node">
<title>Node32</title>
<g id="a_node33"><a xlink:href="sprite_8hpp_source.html" target="_top" xlink:title=" ">
<polygon fill="#ffffff" stroke="#000000" points="905,-168.5 905,-187.5 982,-187.5 982,-168.5 905,-168.5"/>
<text text-anchor="middle" x="943.5" y="-175.5" font-family="'Consolas',monospace" font-size="10.00" fill="#000000">sprite.hpp</text>
</a>
</g>
</g>
<!-- Node0&#45;&gt;Node32 -->
<g id="edge63" class="edge">
<title>Node0&#45;&gt;Node32</title>
<path fill="none" stroke="#191970" d="M883.0869,-282.9601C906.1653,-276.8087 932.3963,-265.3368 946.5,-244 955.4715,-230.4274 953.5802,-211.6332 950.1095,-197.5706"/>
<polygon fill="#191970" stroke="#191970" points="953.4521,-196.5306 947.3013,-187.904 946.73,-198.4834 953.4521,-196.5306"/>
</g>
<!-- Node33 -->
<g id="node34" class="node">
<title>Node33</title>
<g id="a_node34"><a xlink:href="text_8hpp.html" target="_top" xlink:title=" ">
<polygon fill="#ffffff" stroke="#000000" points="1000,-168.5 1000,-187.5 1065,-187.5 1065,-168.5 1000,-168.5"/>
<text text-anchor="middle" x="1032.5" y="-175.5" font-family="'Consolas',monospace" font-size="10.00" fill="#000000">text.hpp</text>
</a>
</g>
</g>
<!-- Node0&#45;&gt;Node33 -->
<g id="edge71" class="edge">
<title>Node0&#45;&gt;Node33</title>
<path fill="none" stroke="#191970" d="M877.0634,-280.4935C903.0392,-273.0231 937.3754,-261.0156 964.5,-244 985.4703,-230.8451 1005.2814,-210.3531 1018.0512,-195.6937"/>
<polygon fill="#191970" stroke="#191970" points="1020.9156,-197.7274 1024.7118,-187.836 1015.5758,-193.2011 1020.9156,-197.7274"/>
</g>
<!-- Node34 -->
<g id="node35" class="node">
<title>Node34</title>
<g id="a_node35"><a xlink:href="time_8hpp.html" target="_top" xlink:title=" ">
<polygon fill="#ffffff" stroke="#000000" points="1432,-224.5 1432,-243.5 1497,-243.5 1497,-224.5 1432,-224.5"/>
<text text-anchor="middle" x="1464.5" y="-231.5" font-family="'Consolas',monospace" font-size="10.00" fill="#000000">time.hpp</text>
</a>
</g>
</g>
<!-- Node0&#45;&gt;Node34 -->
<g id="edge76" class="edge">
<title>Node0&#45;&gt;Node34</title>
<path fill="none" stroke="#191970" d="M883.1885,-288.9328C979.8884,-286.0982 1215.8061,-276.35 1421.8253,-244.0514"/>
<polygon fill="#191970" stroke="#191970" points="1422.5961,-247.4729 1431.9226,-242.4463 1421.4971,-240.5597 1422.5961,-247.4729"/>
</g>
<!-- Node35 -->
<g id="node36" class="node">
<title>Node35</title>
<g id="a_node36"><a xlink:href="Video_8hpp.html" target="_top" xlink:title=" ">
<polygon fill="#ffffff" stroke="#000000" points="867,-224.5 867,-243.5 938,-243.5 938,-224.5 867,-224.5"/>
<text text-anchor="middle" x="902.5" y="-231.5" font-family="'Consolas',monospace" font-size="10.00" fill="#000000">Video.hpp</text>
</a>
</g>
</g>
<!-- Node0&#45;&gt;Node35 -->
<g id="edge77" class="edge">
<title>Node0&#45;&gt;Node35</title>
<path fill="none" stroke="#191970" d="M849.6479,-280.2455C859.0087,-272.0549 872.5858,-260.1749 883.6349,-250.5069"/>
<polygon fill="#191970" stroke="#191970" points="886.2588,-252.8618 891.4798,-243.6427 881.6492,-247.5937 886.2588,-252.8618"/>
</g>
<!-- Node36 -->
<g id="node37" class="node">
<title>Node36</title>
<g id="a_node37"><a xlink:href="work_8hpp.html" target="_top" xlink:title=" ">
<polygon fill="#ffffff" stroke="#000000" points="668,-168.5 668,-187.5 733,-187.5 733,-168.5 668,-168.5"/>
<text text-anchor="middle" x="700.5" y="-175.5" font-family="'Consolas',monospace" font-size="10.00" fill="#000000">work.hpp</text>
</a>
</g>
</g>
<!-- Node0&#45;&gt;Node36 -->
<g id="edge82" class="edge">
<title>Node0&#45;&gt;Node36</title>
<path fill="none" stroke="#191970" d="M826.7342,-280.4509C803.0045,-261.1921 749.1965,-217.5218 720.0831,-193.8935"/>
<polygon fill="#191970" stroke="#191970" points="722.2062,-191.109 712.236,-187.5249 717.795,-196.5442 722.2062,-191.109"/>
</g>
<!-- Node2 -->
<g id="node3" class="node">
<title>Node2</title>
<g id="a_node3"><a doxygen="/w/doc/cppreference-doxygen-web.tag.xml:http://en.cppreference.com/w/" xlink:href="http://en.cppreference.com/w/cpp/header/memory.html" xlink:title=" ">
<polygon fill="#ffffff" stroke="#000000" points="615,-56.5 615,-75.5 668,-75.5 668,-56.5 615,-56.5"/>
<text text-anchor="middle" x="641.5" y="-63.5" font-family="'Consolas',monospace" font-size="10.00" fill="#000000">memory</text>
</a>
</g>
</g>
<!-- Node1&#45;&gt;Node2 -->
<g id="edge2" class="edge">
<title>Node1&#45;&gt;Node2</title>
<path fill="none" stroke="#191970" d="M768.6489,-168.4509C744.7473,-149.1921 690.5494,-105.5218 661.225,-81.8935"/>
<polygon fill="#191970" stroke="#191970" points="663.3039,-79.0738 653.3211,-75.5249 658.9119,-84.5245 663.3039,-79.0738"/>
</g>
<!-- Node3 -->
<g id="node4" class="node">
<title>Node3</title>
<g id="a_node4"><a doxygen="/w/doc/cppreference-doxygen-web.tag.xml:http://en.cppreference.com/w/" xlink:href="http://en.cppreference.com/w/cpp/header/string.html" xlink:title=" ">
<polygon fill="#ffffff" stroke="#000000" points="1235,-112.5 1235,-131.5 1288,-131.5 1288,-112.5 1235,-112.5"/>
<text text-anchor="middle" x="1261.5" y="-119.5" font-family="'Consolas',monospace" font-size="10.00" fill="#000000">string</text>
</a>
</g>
</g>
<!-- Node1&#45;&gt;Node3 -->
<g id="edge3" class="edge">
<title>Node1&#45;&gt;Node3</title>
<path fill="none" stroke="#191970" d="M810.2492,-175.2376C898.3157,-167.0198 1155.4366,-142.7243 1224.7827,-131.8742"/>
<polygon fill="#191970" stroke="#191970" points="1225.6058,-135.284 1234.8636,-130.1319 1224.4136,-128.3862 1225.6058,-135.284"/>
</g>
<!-- Node4&#45;&gt;Node2 -->
<g id="edge5" class="edge">
<title>Node4&#45;&gt;Node2</title>
<path fill="none" stroke="#191970" d="M215.18,-115.3652C222.5796,-114.1793 230.2718,-113.0034 237.5,-112 372.5102,-93.2589 533.6902,-76.6197 604.7566,-69.5733"/>
<polygon fill="#191970" stroke="#191970" points="605.3651,-73.0304 614.9729,-68.565 604.6775,-66.0642 605.3651,-73.0304"/>
</g>
<!-- Node5&#45;&gt;Node2 -->
<g id="edge9" class="edge">
<title>Node5&#45;&gt;Node2</title>
<path fill="none" stroke="#191970" d="M857.0998,-112.4369C806.6699,-101.5751 725.3028,-84.0498 678.2755,-73.9209"/>
<polygon fill="#191970" stroke="#191970" points="678.7357,-70.4398 668.2229,-71.7557 677.2618,-77.2829 678.7357,-70.4398"/>
</g>
<!-- Node6 -->
<g id="node7" class="node">
<title>Node6</title>
<g id="a_node7"><a xlink:href="Finally_8hpp.html" target="_top" xlink:title=" ">
<polygon fill="#ffffff" stroke="#000000" points="948,-56.5 948,-75.5 1031,-75.5 1031,-56.5 948,-56.5"/>
<text text-anchor="middle" x="989.5" y="-63.5" font-family="'Consolas',monospace" font-size="10.00" fill="#000000">Finally.hpp</text>
</a>
</g>
</g>
<!-- Node5&#45;&gt;Node6 -->
<g id="edge7" class="edge">
<title>Node5&#45;&gt;Node6</title>
<path fill="none" stroke="#191970" d="M916.8284,-112.2455C930.3303,-103.6534 950.2122,-91.0014 965.7686,-81.1018"/>
<polygon fill="#191970" stroke="#191970" points="967.7897,-83.9643 974.3472,-75.6427 964.0315,-78.0587 967.7897,-83.9643"/>
</g>
<!-- Node7 -->
<g id="node8" class="node">
<title>Node7</title>
<g id="a_node8"><a doxygen="/w/doc/cppreference-doxygen-web.tag.xml:http://en.cppreference.com/w/" xlink:href="http://en.cppreference.com/w/cpp/header/functional.html" xlink:title=" ">
<polygon fill="#ffffff" stroke="#000000" points="429,-.5 429,-19.5 506,-19.5 506,-.5 429,-.5"/>
<text text-anchor="middle" x="467.5" y="-7.5" font-family="'Consolas',monospace" font-size="10.00" fill="#000000">functional</text>
</a>
</g>
</g>
<!-- Node6&#45;&gt;Node7 -->
<g id="edge8" class="edge">
<title>Node6&#45;&gt;Node7</title>
<path fill="none" stroke="#191970" d="M947.8077,-57.4857C944.664,-56.9478 941.5353,-56.4447 938.5,-56 785.1572,-33.5316 602.0692,-19.1994 516.3272,-13.2122"/>
<polygon fill="#191970" stroke="#191970" points="516.3333,-9.7043 506.1158,-12.5066 515.8507,-16.6877 516.3333,-9.7043"/>
</g>
<!-- Node10 -->
<g id="node11" class="node">
<title>Node10</title>
<g id="a_node11"><a xlink:href="dll_8hpp_source.html" target="_top" xlink:title=" ">
<polygon fill="#ffffff" stroke="#000000" points="871,-56.5 871,-75.5 930,-75.5 930,-56.5 871,-56.5"/>
<text text-anchor="middle" x="900.5" y="-63.5" font-family="'Consolas',monospace" font-size="10.00" fill="#000000">dll.hpp</text>
</a>
</g>
</g>
<!-- Node9&#45;&gt;Node10 -->
<g id="edge12" class="edge">
<title>Node9&#45;&gt;Node10</title>
<path fill="none" stroke="#191970" d="M555.0014,-116.7819C626.2809,-106.3052 786.3473,-82.7784 860.8957,-71.8211"/>
<polygon fill="#191970" stroke="#191970" points="861.4444,-75.2781 870.8291,-70.3611 860.4264,-68.3526 861.4444,-75.2781"/>
</g>
<!-- Node11&#45;&gt;Node12 -->
<g id="edge14" class="edge">
<title>Node11&#45;&gt;Node12</title>
<path fill="none" stroke="#191970" d="M91.6553,-224.2455C81.612,-215.9746 67.0005,-203.9416 55.1996,-194.2232"/>
<polygon fill="#191970" stroke="#191970" points="57.1533,-191.298 47.209,-187.6427 52.7033,-196.7015 57.1533,-191.298"/>
</g>
<!-- Node17 -->
<g id="node18" class="node">
<title>Node17</title>
<g id="a_node18"><a doxygen="/w/doc/cppreference-doxygen-web.tag.xml:http://en.cppreference.com/w/" xlink:href="http://en.cppreference.com/w/cpp/header/chrono.html" xlink:title=" ">
<polygon fill="#ffffff" stroke="#000000" points="89,-168.5 89,-187.5 142,-187.5 142,-168.5 89,-168.5"/>
<text text-anchor="middle" x="115.5" y="-175.5" font-family="'Consolas',monospace" font-size="10.00" fill="#000000">chrono</text>
</a>
</g>
</g>
<!-- Node11&#45;&gt;Node17 -->
<g id="edge21" class="edge">
<title>Node11&#45;&gt;Node17</title>
<path fill="none" stroke="#191970" d="M105.5902,-224.2455C107.1561,-216.9382 109.3512,-206.6944 111.2776,-197.7046"/>
<polygon fill="#191970" stroke="#191970" points="114.7607,-198.1541 113.4337,-187.6427 107.916,-196.6873 114.7607,-198.1541"/>
</g>
<!-- Node12&#45;&gt;Node2 -->
<g id="edge20" class="edge">
<title>Node12&#45;&gt;Node2</title>
<path fill="none" stroke="#191970" d="M45.3205,-168.2657C61.2303,-153.1859 94.3209,-124.6047 128.5,-112 172.9024,-95.6251 494.6845,-74.8755 604.7206,-68.1846"/>
<polygon fill="#191970" stroke="#191970" points="605.2201,-71.6609 614.9906,-67.5636 604.7976,-64.6737 605.2201,-71.6609"/>
</g>
<!-- Node12&#45;&gt;Node7 -->
<g id="edge18" class="edge">
<title>Node12&#45;&gt;Node7</title>
<path fill="none" stroke="#191970" d="M40.8309,-168.4249C49.2986,-154.0787 67.1726,-127.0835 89.5,-112 192.9187,-42.1344 342.4415,-20.0174 418.7307,-13.0958"/>
<polygon fill="#191970" stroke="#191970" points="419.3321,-16.5572 428.997,-12.2166 418.7348,-9.5827 419.3321,-16.5572"/>
</g>
<!-- Node13 -->
<g id="node14" class="node">
<title>Node13</title>
<g id="a_node14"><a xlink:href="Vec2_8hpp.html" target="_top" xlink:title=" ">
<polygon fill="#ffffff" stroke="#000000" points="324,-112.5 324,-131.5 389,-131.5 389,-112.5 324,-112.5"/>
<text text-anchor="middle" x="356.5" y="-119.5" font-family="'Consolas',monospace" font-size="10.00" fill="#000000">Vec2.hpp</text>
</a>
</g>
</g>
<!-- Node12&#45;&gt;Node13 -->
<g id="edge15" class="edge">
<title>Node12&#45;&gt;Node13</title>
<path fill="none" stroke="#191970" d="M71.0034,-169.7423C73.8737,-169.1323 76.7328,-168.5437 79.5,-168 162.1859,-151.7529 259.5024,-136.4738 313.9917,-128.2631"/>
<polygon fill="#191970" stroke="#191970" points="314.6078,-131.7099 323.978,-126.7653 313.5694,-124.7873 314.6078,-131.7099"/>
</g>
<!-- Node16 -->
<g id="node17" class="node">
<title>Node16</title>
<g id="a_node17"><a doxygen="/w/doc/cppreference-doxygen-web.tag.xml:http://en.cppreference.com/w/" xlink:href="http://en.cppreference.com/w/cpp/header/vector.html" xlink:title=" ">
<polygon fill="#ffffff" stroke="#000000" points="1018,-112.5 1018,-131.5 1071,-131.5 1071,-112.5 1018,-112.5"/>
<text text-anchor="middle" x="1044.5" y="-119.5" font-family="'Consolas',monospace" font-size="10.00" fill="#000000">vector</text>
</a>
</g>
</g>
<!-- Node12&#45;&gt;Node16 -->
<g id="edge19" class="edge">
<title>Node12&#45;&gt;Node16</title>
<path fill="none" stroke="#191970" d="M71.4212,-169.2729C74.1446,-168.7842 76.8597,-168.3504 79.5,-168 471.9376,-115.9144 575.1007,-166.1967 969.5,-132 981.95,-130.9205 995.504,-129.2624 1007.6223,-127.6047"/>
<polygon fill="#191970" stroke="#191970" points="1008.4256,-131.0261 1017.8382,-126.1627 1007.4471,-124.0948 1008.4256,-131.0261"/>
</g>
<!-- Node14 -->
<g id="node15" class="node">
<title>Node14</title>
<g id="a_node15"><a xlink:title=" ">
<polygon fill="#ffffff" stroke="#bfbfbf" points="349,-56.5 349,-75.5 468,-75.5 468,-56.5 349,-56.5"/>
<text text-anchor="middle" x="408.5" y="-63.5" font-family="'Consolas',monospace" font-size="10.00" fill="#000000">boost/version.hpp</text>
</a>
</g>
</g>
<!-- Node13&#45;&gt;Node14 -->
<g id="edge16" class="edge">
<title>Node13&#45;&gt;Node14</title>
<path fill="none" stroke="#191970" d="M365.5577,-112.2455C373.0142,-104.2155 383.7634,-92.6394 392.6417,-83.0781"/>
<polygon fill="#191970" stroke="#191970" points="395.3063,-85.3522 399.5461,-75.6427 390.1768,-80.589 395.3063,-85.3522"/>
</g>
<!-- Node15 -->
<g id="node16" class="node">
<title>Node15</title>
<g id="a_node16"><a doxygen="/w/doc/cppreference-doxygen-web.tag.xml:http://en.cppreference.com/w/" xlink:href="http://en.cppreference.com/w/cpp/header/iosfwd.html" xlink:title=" ">
<polygon fill="#ffffff" stroke="#000000" points="278,-56.5 278,-75.5 331,-75.5 331,-56.5 278,-56.5"/>
<text text-anchor="middle" x="304.5" y="-63.5" font-family="'Consolas',monospace" font-size="10.00" fill="#000000">iosfwd</text>
</a>
</g>
</g>
<!-- Node13&#45;&gt;Node15 -->
<g id="edge17" class="edge">
<title>Node13&#45;&gt;Node15</title>
<path fill="none" stroke="#191970" d="M347.4423,-112.2455C339.9858,-104.2155 329.2366,-92.6394 320.3583,-83.0781"/>
<polygon fill="#191970" stroke="#191970" points="322.8232,-80.589 313.4539,-75.6427 317.6937,-85.3522 322.8232,-80.589"/>
</g>
<!-- Node18&#45;&gt;Node19 -->
<g id="edge23" class="edge">
<title>Node18&#45;&gt;Node19</title>
<path fill="none" stroke="#191970" d="M1197.5703,-224.2455C1212.747,-215.5731 1235.1621,-202.7645 1252.5563,-192.825"/>
<polygon fill="#191970" stroke="#191970" points="1254.6794,-195.643 1261.6253,-187.6427 1251.2064,-189.5653 1254.6794,-195.643"/>
</g>
<!-- Node20 -->
<g id="node21" class="node">
<title>Node20</title>
<g id="a_node21"><a doxygen="/w/doc/cppreference-doxygen-web.tag.xml:http://en.cppreference.com/w/" xlink:href="http://en.cppreference.com/w/cpp/header/sstream.html" xlink:title=" ">
<polygon fill="#ffffff" stroke="#000000" points="1160,-168.5 1160,-187.5 1219,-187.5 1219,-168.5 1160,-168.5"/>
<text text-anchor="middle" x="1189.5" y="-175.5" font-family="'Consolas',monospace" font-size="10.00" fill="#000000">sstream</text>
</a>
</g>
</g>
<!-- Node18&#45;&gt;Node20 -->
<g id="edge25" class="edge">
<title>Node18&#45;&gt;Node20</title>
<path fill="none" stroke="#191970" d="M1182.0677,-224.2455C1183.2421,-216.9382 1184.8884,-206.6944 1186.3332,-197.7046"/>
<polygon fill="#191970" stroke="#191970" points="1189.8191,-198.0714 1187.9503,-187.6427 1182.9078,-196.9606 1189.8191,-198.0714"/>
</g>
<!-- Node19&#45;&gt;Node3 -->
<g id="edge24" class="edge">
<title>Node19&#45;&gt;Node3</title>
<path fill="none" stroke="#191970" d="M1275.5388,-168.2455C1273.2962,-160.8579 1270.1423,-150.4689 1267.3919,-141.4087"/>
<polygon fill="#191970" stroke="#191970" points="1270.6812,-140.1948 1264.4272,-131.6427 1263.983,-142.2282 1270.6812,-140.1948"/>
</g>
<!-- Node21&#45;&gt;Node10 -->
<g id="edge27" class="edge">
<title>Node21&#45;&gt;Node10</title>
<path fill="none" stroke="#191970" d="M1127.8986,-114.0994C1082.8047,-105.9183 1010.8962,-92.3459 940.2795,-76.3173"/>
<polygon fill="#191970" stroke="#191970" points="940.8555,-72.8587 930.3267,-74.0396 939.2938,-79.6823 940.8555,-72.8587"/>
</g>
<!-- Node22&#45;&gt;Node2 -->
<g id="edge31" class="edge">
<title>Node22&#45;&gt;Node2</title>
<path fill="none" stroke="#191970" d="M517.9498,-168.2935C492.7973,-156.0856 457.7082,-134.0424 474.5,-112 482.5053,-101.4915 558.1959,-83.7376 604.8861,-73.635"/>
<polygon fill="#191970" stroke="#191970" points="605.8955,-76.9983 614.9401,-71.4806 604.4287,-70.1536 605.8955,-76.9983"/>
</g>
<!-- Node22&#45;&gt;Node3 -->
<g id="edge32" class="edge">
<title>Node22&#45;&gt;Node3</title>
<path fill="none" stroke="#191970" d="M573.0409,-175.0552C596.7299,-172.9571 629.5902,-170.1409 658.5,-168 907.4345,-149.5652 975.4447,-174.3244 1224.7923,-131.9764"/>
<polygon fill="#191970" stroke="#191970" points="1225.6208,-135.3855 1234.8839,-130.243 1224.4357,-128.4865 1225.6208,-135.3855"/>
</g>
<!-- Node22&#45;&gt;Node9 -->
<g id="edge29" class="edge">
<title>Node22&#45;&gt;Node9</title>
<path fill="none" stroke="#191970" d="M536.8421,-168.2455C534.0416,-160.7776 530.091,-150.2427 526.6676,-141.1137"/>
<polygon fill="#191970" stroke="#191970" points="529.9045,-139.777 523.116,-131.6427 523.3501,-142.2349 529.9045,-139.777"/>
</g>
<!-- Node22&#45;&gt;Node13 -->
<g id="edge30" class="edge">
<title>Node22&#45;&gt;Node13</title>
<path fill="none" stroke="#191970" d="M508.8693,-168.3733C478.1404,-159.021 431.324,-144.7725 397.6978,-134.5385"/>
<polygon fill="#191970" stroke="#191970" points="398.3038,-131.0644 387.718,-131.5011 396.2656,-137.7612 398.3038,-131.0644"/>
</g>
<!-- Node23&#45;&gt;Node2 -->
<g id="edge36" class="edge">
<title>Node23&#45;&gt;Node2</title>
<path fill="none" stroke="#191970" d="M250.949,-168.0514C253.6774,-153.2172 261.0617,-125.5934 279.5,-112 305.3829,-92.9182 517.9073,-75.1699 604.7449,-68.6422"/>
<polygon fill="#191970" stroke="#191970" points="605.2192,-72.1167 614.9321,-67.8847 604.7,-65.136 605.2192,-72.1167"/>
</g>
<!-- Node23&#45;&gt;Node10 -->
<g id="edge34" class="edge">
<title>Node23&#45;&gt;Node10</title>
<path fill="none" stroke="#191970" d="M255.6665,-168.2381C265.8307,-153.1205 287.6731,-124.4885 314.5,-112 363.7741,-89.062 736.8664,-72.4447 860.6957,-67.5135"/>
<polygon fill="#191970" stroke="#191970" points="861.0192,-71.0036 870.8735,-67.1123 860.7434,-64.009 861.0192,-71.0036"/>
</g>
<!-- Node23&#45;&gt;Node13 -->
<g id="edge35" class="edge">
<title>Node23&#45;&gt;Node13</title>
<path fill="none" stroke="#191970" d="M268.138,-168.2455C284.9386,-159.4527 309.8634,-146.4079 328.9618,-136.4125"/>
<polygon fill="#191970" stroke="#191970" points="330.8386,-139.3807 338.0756,-131.6427 327.5927,-133.1787 330.8386,-139.3807"/>
</g>
<!-- Node24&#45;&gt;Node2 -->
<g id="edge39" class="edge">
<title>Node24&#45;&gt;Node2</title>
<path fill="none" stroke="#191970" d="M641.5,-112.2455C641.5,-104.9382 641.5,-94.6944 641.5,-85.7046"/>
<polygon fill="#191970" stroke="#191970" points="645.0001,-85.6426 641.5,-75.6427 638.0001,-85.6427 645.0001,-85.6426"/>
</g>
<!-- Node24&#45;&gt;Node10 -->
<g id="edge40" class="edge">
<title>Node24&#45;&gt;Node10</title>
<path fill="none" stroke="#191970" d="M671.2106,-115.5761C717.9237,-105.476 808.592,-85.872 860.8278,-74.5778"/>
<polygon fill="#191970" stroke="#191970" points="861.7036,-77.9694 870.7381,-72.435 860.2242,-71.1275 861.7036,-77.9694"/>
</g>
<!-- Node25&#45;&gt;Node6 -->
<g id="edge42" class="edge">
<title>Node25&#45;&gt;Node6</title>
<path fill="none" stroke="#191970" d="M1414.0334,-226.1343C1417.2287,-225.3978 1420.4251,-224.675 1423.5,-224 1504.919,-206.1257 1652.3726,-234.7928 1602.5,-168 1550.0836,-97.8004 1499.3969,-129.2389 1413.5,-112 1280.9742,-85.403 1121.8476,-73.3471 1041.4493,-68.6187"/>
<polygon fill="#191970" stroke="#191970" points="1041.2898,-65.1039 1031.1058,-68.0254 1040.889,-72.0924 1041.2898,-65.1039"/>
</g>
<!-- Node25&#45;&gt;Node26 -->
<g id="edge43" class="edge">
<title>Node25&#45;&gt;Node26</title>
<path fill="none" stroke="#191970" d="M1380.1065,-224.2455C1379.0626,-216.9382 1377.5992,-206.6944 1376.3149,-197.7046"/>
<polygon fill="#191970" stroke="#191970" points="1379.7566,-197.0472 1374.8775,-187.6427 1372.827,-198.0372 1379.7566,-197.0472"/>
</g>
<!-- Node25&#45;&gt;Node27 -->
<g id="edge47" class="edge">
<title>Node25&#45;&gt;Node27</title>
<path fill="none" stroke="#191970" d="M1411.2398,-224.3733C1440.007,-215.0613 1483.77,-200.8953 1515.3556,-190.671"/>
<polygon fill="#191970" stroke="#191970" points="1516.7122,-193.9107 1525.1483,-187.5011 1514.5564,-187.251 1516.7122,-193.9107"/>
</g>
<!-- Node26&#45;&gt;Node3 -->
<g id="edge44" class="edge">
<title>Node26&#45;&gt;Node3</title>
<path fill="none" stroke="#191970" d="M1354.2465,-168.3733C1336.4288,-159.4644 1309.7253,-146.1127 1289.5406,-136.0203"/>
<polygon fill="#191970" stroke="#191970" points="1291.0118,-132.8428 1280.5022,-131.5011 1287.8813,-139.1038 1291.0118,-132.8428"/>
</g>
<!-- Node26&#45;&gt;Node10 -->
<g id="edge46" class="edge">
<title>Node26&#45;&gt;Node10</title>
<path fill="none" stroke="#191970" d="M1365.852,-168.2987C1353.3675,-153.2641 1327.0214,-124.7439 1297.5,-112 1153.2954,-49.7493 1098.557,-102.2444 940.3469,-76.0584"/>
<polygon fill="#191970" stroke="#191970" points="940.7231,-72.5714 930.2716,-74.3083 939.5251,-79.4681 940.7231,-72.5714"/>
</g>
<!-- Node26&#45;&gt;Node16 -->
<g id="edge45" class="edge">
<title>Node26&#45;&gt;Node16</title>
<path fill="none" stroke="#191970" d="M1337.9993,-169.7284C1335.1284,-169.1215 1332.2684,-168.5375 1329.5,-168 1240.9383,-150.8071 1136.0168,-135.05 1081.5251,-127.2095"/>
<polygon fill="#191970" stroke="#191970" points="1081.7139,-123.701 1071.3189,-125.7489 1080.7222,-130.6304 1081.7139,-123.701"/>
</g>
<!-- Node27&#45;&gt;Node3 -->
<g id="edge48" class="edge">
<title>Node27&#45;&gt;Node3</title>
<path fill="none" stroke="#191970" d="M1515.787,-169.6838C1512.9842,-169.1061 1510.1996,-168.5395 1507.5,-168 1433.273,-153.166 1346.1448,-137.2182 1298.0514,-128.5427"/>
<polygon fill="#191970" stroke="#191970" points="1298.5777,-125.0812 1288.1157,-126.7537 1297.3372,-131.9704 1298.5777,-125.0812"/>
</g>
<!-- Node27&#45;&gt;Node10 -->
<g id="edge49" class="edge">
<title>Node27&#45;&gt;Node10</title>
<path fill="none" stroke="#191970" d="M1532.9011,-168.4386C1498.3192,-153.5958 1428.0449,-125.3335 1365.5,-112 1182.4178,-72.97 1128.0347,-107.145 940.1844,-76.0364"/>
<polygon fill="#191970" stroke="#191970" points="940.708,-72.5753 930.2636,-74.3538 939.5375,-79.4767 940.708,-72.5753"/>
</g>
<!-- Node28&#45;&gt;Node10 -->
<g id="edge51" class="edge">
<title>Node28&#45;&gt;Node10</title>
<path fill="none" stroke="#191970" d="M1635.8459,-224.387C1631.3763,-209.9912 1620.9747,-182.9322 1602.5,-168 1534.3635,-112.9285 1499.6651,-127.8442 1413.5,-112 1208.528,-74.3094 1149.138,-109.9354 940.3174,-76.045"/>
<polygon fill="#191970" stroke="#191970" points="940.6971,-72.5603 930.2594,-74.3781 939.5526,-79.4661 940.6971,-72.5603"/>
</g>
<!-- Node29&#45;&gt;Node10 -->
<g id="edge55" class="edge">
<title>Node29&#45;&gt;Node10</title>
<path fill="none" stroke="#191970" d="M369.4871,-168.3891C390.3955,-153.4784 433.3525,-125.1248 474.5,-112 545.9093,-89.2226 768.8726,-73.8007 860.5356,-68.2684"/>
<polygon fill="#191970" stroke="#191970" points="861.0142,-71.7462 870.7885,-67.658 860.5981,-64.7586 861.0142,-71.7462"/>
</g>
<!-- Node29&#45;&gt;Node13 -->
<g id="edge56" class="edge">
<title>Node29&#45;&gt;Node13</title>
<path fill="none" stroke="#191970" d="M356.5,-168.2455C356.5,-160.9382 356.5,-150.6944 356.5,-141.7046"/>
<polygon fill="#191970" stroke="#191970" points="360.0001,-141.6426 356.5,-131.6427 353.0001,-141.6427 360.0001,-141.6426"/>
</g>
<!-- Node30&#45;&gt;Node9 -->
<g id="edge58" class="edge">
<title>Node30&#45;&gt;Node9</title>
<path fill="none" stroke="#191970" d="M463.3447,-168.2455C473.388,-159.9746 487.9995,-147.9416 499.8004,-138.2232"/>
<polygon fill="#191970" stroke="#191970" points="502.2967,-140.7015 507.791,-131.6427 497.8467,-135.298 502.2967,-140.7015"/>
</g>
<!-- Node30&#45;&gt;Node13 -->
<g id="edge59" class="edge">
<title>Node30&#45;&gt;Node13</title>
<path fill="none" stroke="#191970" d="M434.9523,-168.2455C420.2401,-159.5731 398.5112,-146.7645 381.6495,-136.825"/>
<polygon fill="#191970" stroke="#191970" points="383.2502,-133.7057 372.8581,-131.6427 379.6954,-139.736 383.2502,-133.7057"/>
</g>
<!-- Node31&#45;&gt;Node3 -->
<g id="edge62" class="edge">
<title>Node31&#45;&gt;Node3</title>
<path fill="none" stroke="#191970" d="M1427.9469,-168.3733C1391.7298,-158.2829 1335.0556,-142.4931 1298.0923,-132.1949"/>
<polygon fill="#191970" stroke="#191970" points="1298.7954,-128.7575 1288.2229,-129.4452 1296.9166,-135.5007 1298.7954,-128.7575"/>
</g>
<!-- Node31&#45;&gt;Node10 -->
<g id="edge61" class="edge">
<title>Node31&#45;&gt;Node10</title>
<path fill="none" stroke="#191970" d="M1447.3155,-168.355C1422.9211,-153.3977 1373.0125,-124.9813 1326.5,-112 1162.8662,-66.3312 1111.0134,-104.6212 940.3433,-76.0691"/>
<polygon fill="#191970" stroke="#191970" points="940.7175,-72.582 930.2678,-74.3296 939.5265,-79.48 940.7175,-72.582"/>
</g>
<!-- Node32&#45;&gt;Node2 -->
<g id="edge67" class="edge">
<title>Node32&#45;&gt;Node2</title>
<path fill="none" stroke="#191970" d="M919.5577,-168.4205C896.9928,-159.3113 862.2911,-145.094 832.5,-132 813.2044,-123.519 809.1634,-119.5894 789.5,-112 752.0626,-97.5505 708.0146,-84.3246 677.7646,-75.8007"/>
<polygon fill="#191970" stroke="#191970" points="678.6371,-72.4105 668.0644,-73.0953 676.7565,-79.1532 678.6371,-72.4105"/>
</g>
<!-- Node32&#45;&gt;Node3 -->
<g id="edge68" class="edge">
<title>Node32&#45;&gt;Node3</title>
<path fill="none" stroke="#191970" d="M982.1933,-169.5808C985.0007,-169.0272 987.7917,-168.4942 990.5,-168 1091.7184,-149.5282 1121.0741,-154.2993 1224.8905,-132.1503"/>
<polygon fill="#191970" stroke="#191970" points="1225.8034,-135.5338 1234.8356,-129.9957 1224.3212,-128.6925 1225.8034,-135.5338"/>
</g>
<!-- Node32&#45;&gt;Node5 -->
<g id="edge64" class="edge">
<title>Node32&#45;&gt;Node5</title>
<path fill="none" stroke="#191970" d="M936.1842,-168.2455C930.2821,-160.3761 921.8258,-149.101 914.7406,-139.6542"/>
<polygon fill="#191970" stroke="#191970" points="917.5321,-137.5427 908.732,-131.6427 911.932,-141.7427 917.5321,-137.5427"/>
</g>
<!-- Node32&#45;&gt;Node10 -->
<g id="edge70" class="edge">
<title>Node32&#45;&gt;Node10</title>
<path fill="none" stroke="#191970" d="M952.5266,-168.2911C963.6032,-155.1393 979.7276,-131.1104 969.5,-112 962.0485,-98.0767 948.3151,-87.6399 935.051,-80.258"/>
<polygon fill="#191970" stroke="#191970" points="936.5215,-77.0787 926.0262,-75.6302 933.3274,-83.3075 936.5215,-77.0787"/>
</g>
<!-- Node32&#45;&gt;Node13 -->
<g id="edge65" class="edge">
<title>Node32&#45;&gt;Node13</title>
<path fill="none" stroke="#191970" d="M904.9853,-174.3257C799.9715,-164.3073 509.1774,-136.5655 399.2949,-126.0827"/>
<polygon fill="#191970" stroke="#191970" points="399.5255,-122.5888 389.2382,-125.1232 398.8606,-129.5572 399.5255,-122.5888"/>
</g>
<!-- Node32&#45;&gt;Node16 -->
<g id="edge69" class="edge">
<title>Node32&#45;&gt;Node16</title>
<path fill="none" stroke="#191970" d="M961.0929,-168.2455C976.879,-159.4928 1000.2639,-146.527 1018.2587,-136.5496"/>
<polygon fill="#191970" stroke="#191970" points="1020.0603,-139.5528 1027.1087,-131.6427 1016.6659,-133.4308 1020.0603,-139.5528"/>
</g>
<!-- Node32&#45;&gt;Node21 -->
<g id="edge66" class="edge">
<title>Node32&#45;&gt;Node21</title>
<path fill="none" stroke="#191970" d="M982.0878,-168.5637C1021.03,-159.0407 1081.2943,-144.3036 1123.5699,-133.9654"/>
<polygon fill="#191970" stroke="#191970" points="1124.488,-137.3441 1133.3703,-131.5688 1122.8251,-130.5445 1124.488,-137.3441"/>
</g>
<!-- Node33&#45;&gt;Node2 -->
<g id="edge73" class="edge">
<title>Node33&#45;&gt;Node2</title>
<path fill="none" stroke="#191970" d="M1048.1867,-168.347C1067.9123,-155.0513 1097.2832,-130.6337 1080.5,-112 1053.752,-82.3029 779.0675,-70.4591 678.3016,-67.0922"/>
<polygon fill="#191970" stroke="#191970" points="678.3841,-63.5931 668.2756,-66.7661 678.1565,-70.5894 678.3841,-63.5931"/>
</g>
<!-- Node33&#45;&gt;Node3 -->
<g id="edge74" class="edge">
<title>Node33&#45;&gt;Node3</title>
<path fill="none" stroke="#191970" d="M1065.2215,-170.719C1101.9142,-162.4497 1163.4174,-148.277 1224.9152,-132.3413"/>
<polygon fill="#191970" stroke="#191970" points="1225.9877,-135.6787 1234.7813,-129.7692 1224.2218,-128.9051 1225.9877,-135.6787"/>
</g>
<!-- Node33&#45;&gt;Node16 -->
<g id="edge75" class="edge">
<title>Node33&#45;&gt;Node16</title>
<path fill="none" stroke="#191970" d="M1034.5902,-168.2455C1036.1561,-160.9382 1038.3512,-150.6944 1040.2776,-141.7046"/>
<polygon fill="#191970" stroke="#191970" points="1043.7607,-142.1541 1042.4337,-131.6427 1036.916,-140.6873 1043.7607,-142.1541"/>
</g>
<!-- Node33&#45;&gt;Node21 -->
<g id="edge72" class="edge">
<title>Node33&#45;&gt;Node21</title>
<path fill="none" stroke="#191970" d="M1056.5669,-168.3733C1079.3428,-159.2629 1113.7344,-145.5062 1139.149,-135.3404"/>
<polygon fill="#191970" stroke="#191970" points="1140.7623,-138.4648 1148.7472,-131.5011 1138.1625,-131.9654 1140.7623,-138.4648"/>
</g>
<!-- Node35&#45;&gt;Node2 -->
<g id="edge79" class="edge">
<title>Node35&#45;&gt;Node2</title>
<path fill="none" stroke="#191970" d="M891.1582,-224.3498C875.3315,-211.0572 845.5193,-186.6433 818.5,-168 778.7878,-140.5985 767.3347,-136.0367 725.5,-112 706.6998,-101.1981 685.2563,-89.4647 668.7408,-80.5518"/>
<polygon fill="#191970" stroke="#191970" points="670.1083,-77.3132 659.6435,-75.6583 666.7922,-83.4779 670.1083,-77.3132"/>
</g>
<!-- Node35&#45;&gt;Node3 -->
<g id="edge80" class="edge">
<title>Node35&#45;&gt;Node3</title>
<path fill="none" stroke="#191970" d="M938.3089,-225.2894C973.263,-216.5835 1027.8471,-202.4473 1074.5,-188 1128.2371,-171.3589 1189.559,-149.0729 1226.8911,-135.1276"/>
<polygon fill="#191970" stroke="#191970" points="1228.1674,-138.387 1236.302,-131.5988 1225.7097,-131.8326 1228.1674,-138.387"/>
</g>
<!-- Node35&#45;&gt;Node32 -->
<g id="edge78" class="edge">
<title>Node35&#45;&gt;Node32</title>
<path fill="none" stroke="#191970" d="M909.6417,-224.2455C915.3444,-216.4564 923.49,-205.3308 930.3625,-195.9439"/>
<polygon fill="#191970" stroke="#191970" points="933.3568,-197.7789 936.4402,-187.6427 927.7087,-193.6437 933.3568,-197.7789"/>
</g>
<!-- Node36&#45;&gt;Node2 -->
<g id="edge85" class="edge">
<title>Node36&#45;&gt;Node2</title>
<path fill="none" stroke="#191970" d="M667.5422,-172.0336C644.9967,-166.0513 616.7107,-154.3686 602.5,-132 591.9017,-115.3175 606.7222,-95.781 621.038,-82.315"/>
<polygon fill="#191970" stroke="#191970" points="623.574,-84.7457 628.7746,-75.5151 618.9528,-79.4879 623.574,-84.7457"/>
</g>
<!-- Node36&#45;&gt;Node10 -->
<g id="edge83" class="edge">
<title>Node36&#45;&gt;Node10</title>
<path fill="none" stroke="#191970" d="M717.5519,-168.4509C752.6069,-148.8201 832.9538,-103.8259 874.5228,-80.5472"/>
<polygon fill="#191970" stroke="#191970" points="876.4763,-83.4647 883.4913,-75.5249 873.0561,-77.3572 876.4763,-83.4647"/>
</g>
<!-- Node36&#45;&gt;Node24 -->
<g id="edge84" class="edge">
<title>Node36&#45;&gt;Node24</title>
<path fill="none" stroke="#191970" d="M690.223,-168.2455C681.6782,-160.1352 669.3222,-148.4075 659.1915,-138.7919"/>
<polygon fill="#191970" stroke="#191970" points="661.3218,-135.9884 651.6592,-131.6427 656.5028,-141.0655 661.3218,-135.9884"/>
</g>
</g>
</svg>
