<?xml version="1.0" encoding="UTF-8" standalone="no"?>
<!DOCTYPE svg PUBLIC "-//W3C//DTD SVG 1.1//EN"
 "http://www.w3.org/Graphics/SVG/1.1/DTD/svg11.dtd">
<!-- Generated by graphviz version 2.40.1 (0)
 -->
<!-- Title: jngl/all.hpp Pages: 1 -->
<svg width="1669pt" height="308pt"
 viewBox="0.00 0.00 1669.00 308.00" xmlns="http://www.w3.org/2000/svg" xmlns:xlink="http://www.w3.org/1999/xlink">
<g id="graph0" class="graph" transform="scale(1 1) rotate(0) translate(4 304)">
<title>jngl/all.hpp</title>
<polygon fill="#ffffff" stroke="transparent" points="-4,4 -4,-304 1665,-304 1665,4 -4,4"/>
<!-- Node0 -->
<g id="node1" class="node">
<title>Node0</title>
<g id="a_node1"><a xlink:title="Includes all JNGL headers.">
<polygon fill="#bfbfbf" stroke="#000000" points="760,-280.5 760,-299.5 849,-299.5 849,-280.5 760,-280.5"/>
<text text-anchor="middle" x="804.5" y="-287.5" font-family="'Consolas',monospace" font-size="10.00" fill="#000000">jngl/all.hpp</text>
</a>
</g>
</g>
<!-- Node1 -->
<g id="node2" class="node">
<title>Node1</title>
<g id="a_node2"><a xlink:href="App_8hpp.html" target="_top" xlink:title=" ">
<polygon fill="#ffffff" stroke="#000000" points="218,-168.5 218,-187.5 277,-187.5 277,-168.5 218,-168.5"/>
<text text-anchor="middle" x="247.5" y="-175.5" font-family="'Consolas',monospace" font-size="10.00" fill="#000000">App.hpp</text>
</a>
</g>
</g>
<!-- Node0&#45;&gt;Node1 -->
<g id="edge1" class="edge">
<title>Node0&#45;&gt;Node1</title>
<path fill="none" stroke="#191970" d="M759.9479,-287.8792C662.1319,-282.8252 431.4246,-268.6196 357.5,-244 323.4807,-232.6703 288.7438,-209.4867 267.6473,-193.8404"/>
<polygon fill="#191970" stroke="#191970" points="269.5667,-190.9035 259.4829,-187.6528 265.3386,-196.4824 269.5667,-190.9035"/>
</g>
<!-- Node4 -->
<g id="node5" class="node">
<title>Node4</title>
<g id="a_node5"><a xlink:href="Color_8hpp.html" target="_top" xlink:title=" ">
<polygon fill="#ffffff" stroke="#000000" points="1155,-168.5 1155,-187.5 1226,-187.5 1226,-168.5 1155,-168.5"/>
<text text-anchor="middle" x="1190.5" y="-175.5" font-family="'Consolas',monospace" font-size="10.00" fill="#000000">Color.hpp</text>
</a>
</g>
</g>
<!-- Node0&#45;&gt;Node4 -->
<g id="edge4" class="edge">
<title>Node0&#45;&gt;Node4</title>
<path fill="none" stroke="#191970" d="M849.3265,-286.5404C902.5605,-281.4425 993.4624,-269.5932 1067.5,-244 1072.5639,-242.2495 1129.3441,-211.413 1163.9615,-192.5173"/>
<polygon fill="#191970" stroke="#191970" points="1165.9781,-195.4039 1173.0763,-187.5384 1162.6224,-189.2607 1165.9781,-195.4039"/>
</g>
<!-- Node5 -->
<g id="node6" class="node">
<title>Node5</title>
<g id="a_node6"><a xlink:href="Controller_8hpp.html" target="_top" xlink:title=" ">
<polygon fill="#ffffff" stroke="#000000" points="1382,-224.5 1382,-243.5 1483,-243.5 1483,-224.5 1382,-224.5"/>
<text text-anchor="middle" x="1432.5" y="-231.5" font-family="'Consolas',monospace" font-size="10.00" fill="#000000">Controller.hpp</text>
</a>
</g>
</g>
<!-- Node0&#45;&gt;Node5 -->
<g id="edge5" class="edge">
<title>Node0&#45;&gt;Node5</title>
<path fill="none" stroke="#191970" d="M849.1273,-287.4361C944.4947,-281.7196 1175.1403,-266.6263 1367.5,-244 1368.8076,-243.8462 1370.1292,-243.686 1371.461,-243.5202"/>
<polygon fill="#191970" stroke="#191970" points="1372.349,-246.9335 1381.8053,-242.1555 1371.4334,-239.9936 1372.349,-246.9335"/>
</g>
<!-- Node6 -->
<g id="node7" class="node">
<title>Node6</title>
<g id="a_node7"><a xlink:href="input_8hpp.html" target="_top" xlink:title=" ">
<polygon fill="#ffffff" stroke="#000000" points="1283,-168.5 1283,-187.5 1354,-187.5 1354,-168.5 1283,-168.5"/>
<text text-anchor="middle" x="1318.5" y="-175.5" font-family="'Consolas',monospace" font-size="10.00" fill="#000000">input.hpp</text>
</a>
</g>
</g>
<!-- Node0&#45;&gt;Node6 -->
<g id="edge41" class="edge">
<title>Node0&#45;&gt;Node6</title>
<path fill="none" stroke="#191970" d="M849.0965,-288.5802C963.6814,-284.5502 1261.8588,-271.5087 1296.5,-244 1310.2179,-233.1066 1315.4536,-213.373 1317.4152,-198.312"/>
<polygon fill="#191970" stroke="#191970" points="1320.9393,-198.2062 1318.3632,-187.9294 1313.9683,-197.5696 1320.9393,-198.2062"/>
</g>
<!-- Node13 -->
<g id="node14" class="node">
<title>Node13</title>
<g id="a_node14"><a xlink:href="Drawable_8hpp_source.html" target="_top" xlink:title=" ">
<polygon fill="#ffffff" stroke="#000000" points="233,-112.5 233,-131.5 322,-131.5 322,-112.5 233,-112.5"/>
<text text-anchor="middle" x="277.5" y="-119.5" font-family="'Consolas',monospace" font-size="10.00" fill="#000000">Drawable.hpp</text>
</a>
</g>
</g>
<!-- Node0&#45;&gt;Node13 -->
<g id="edge14" class="edge">
<title>Node0&#45;&gt;Node13</title>
<path fill="none" stroke="#191970" d="M759.8145,-288.1338C654.7746,-283.377 394.7638,-269.3476 311.5,-244 261.6524,-228.8252 235.1289,-232.788 208.5,-188 195.9355,-166.8674 221.0887,-148.0686 244.4735,-135.9925"/>
<polygon fill="#191970" stroke="#191970" points="246.1413,-139.0733 253.6002,-131.549 243.0771,-132.7796 246.1413,-139.0733"/>
</g>
<!-- Node14 -->
<g id="node15" class="node">
<title>Node14</title>
<g id="a_node15"><a xlink:href="Shader_8hpp.html" target="_top" xlink:title=" ">
<polygon fill="#ffffff" stroke="#000000" points="0,-112.5 0,-131.5 77,-131.5 77,-112.5 0,-112.5"/>
<text text-anchor="middle" x="38.5" y="-119.5" font-family="'Consolas',monospace" font-size="10.00" fill="#000000">Shader.hpp</text>
</a>
</g>
</g>
<!-- Node0&#45;&gt;Node14 -->
<g id="edge15" class="edge">
<title>Node0&#45;&gt;Node14</title>
<path fill="none" stroke="#191970" d="M759.8708,-289.5432C612.0651,-287.702 144.6494,-279.1315 87.5,-244 52.3094,-222.3673 42.3856,-170.3494 39.5914,-141.7186"/>
<polygon fill="#191970" stroke="#191970" points="43.0757,-141.3786 38.8132,-131.679 36.0966,-141.9197 43.0757,-141.3786"/>
</g>
<!-- Node15 -->
<g id="node16" class="node">
<title>Node15</title>
<g id="a_node16"><a xlink:href="ShaderProgram_8hpp.html" target="_top" xlink:title=" ">
<polygon fill="#ffffff" stroke="#000000" points="738,-112.5 738,-131.5 857,-131.5 857,-112.5 738,-112.5"/>
<text text-anchor="middle" x="797.5" y="-119.5" font-family="'Consolas',monospace" font-size="10.00" fill="#000000">ShaderProgram.hpp</text>
</a>
</g>
</g>
<!-- Node0&#45;&gt;Node15 -->
<g id="edge17" class="edge">
<title>Node0&#45;&gt;Node15</title>
<path fill="none" stroke="#191970" d="M836.6684,-280.4341C863.3793,-272.0635 902.103,-258.93 934.5,-244 957.105,-233.5826 1019.0548,-209.5551 1031.5,-188 1035.9445,-180.302 1037.1468,-174.8649 1031.5,-168 1010.9768,-143.0495 928.514,-131.4244 867.2576,-126.1503"/>
<polygon fill="#191970" stroke="#191970" points="867.4917,-122.6578 857.2387,-125.3273 866.9186,-129.6344 867.4917,-122.6578"/>
</g>
<!-- Node17 -->
<g id="node18" class="node">
<title>Node17</title>
<g id="a_node18"><a xlink:href="Vertex_8hpp.html" target="_top" xlink:title=" ">
<polygon fill="#ffffff" stroke="#000000" points="488,-224.5 488,-243.5 565,-243.5 565,-224.5 488,-224.5"/>
<text text-anchor="middle" x="526.5" y="-231.5" font-family="'Consolas',monospace" font-size="10.00" fill="#000000">Vertex.hpp</text>
</a>
</g>
</g>
<!-- Node0&#45;&gt;Node17 -->
<g id="edge21" class="edge">
<title>Node0&#45;&gt;Node17</title>
<path fill="none" stroke="#191970" d="M759.8345,-281.0026C709.3284,-270.8288 627.3609,-254.3173 575.2347,-243.8171"/>
<polygon fill="#191970" stroke="#191970" points="575.7198,-240.3445 565.2255,-241.8008 574.3374,-247.2067 575.7198,-240.3445"/>
</g>
<!-- Node18 -->
<g id="node19" class="node">
<title>Node18</title>
<g id="a_node19"><a xlink:href="Video_8hpp.html" target="_top" xlink:title=" ">
<polygon fill="#ffffff" stroke="#000000" points="395,-224.5 395,-243.5 466,-243.5 466,-224.5 395,-224.5"/>
<text text-anchor="middle" x="430.5" y="-231.5" font-family="'Consolas',monospace" font-size="10.00" fill="#000000">Video.hpp</text>
</a>
</g>
</g>
<!-- Node0&#45;&gt;Node18 -->
<g id="edge22" class="edge">
<title>Node0&#45;&gt;Node18</title>
<path fill="none" stroke="#191970" d="M759.9457,-284.5642C697.2036,-276.7116 579.3159,-261.2328 479.5,-244 478.4091,-243.8117 477.3054,-243.6173 476.1928,-243.4179"/>
<polygon fill="#191970" stroke="#191970" points="476.5199,-239.9184 466.0466,-241.5183 475.2316,-246.7989 476.5199,-239.9184"/>
</g>
<!-- Node19 -->
<g id="node20" class="node">
<title>Node19</title>
<g id="a_node20"><a xlink:href="sprite_8hpp_source.html" target="_top" xlink:title=" ">
<polygon fill="#ffffff" stroke="#000000" points="722,-168.5 722,-187.5 799,-187.5 799,-168.5 722,-168.5"/>
<text text-anchor="middle" x="760.5" y="-175.5" font-family="'Consolas',monospace" font-size="10.00" fill="#000000">sprite.hpp</text>
</a>
</g>
</g>
<!-- Node0&#45;&gt;Node19 -->
<g id="edge61" class="edge">
<title>Node0&#45;&gt;Node19</title>
<path fill="none" stroke="#191970" d="M800.7486,-280.4509C793.5073,-262.0186 777.4814,-221.2254 767.9812,-197.043"/>
<polygon fill="#191970" stroke="#191970" points="771.1561,-195.5526 764.2419,-187.5249 764.6409,-198.1122 771.1561,-195.5526"/>
</g>
<!-- Node20 -->
<g id="node21" class="node">
<title>Node20</title>
<g id="a_node21"><a xlink:href="debug_8hpp_source.html" target="_top" xlink:title=" ">
<polygon fill="#ffffff" stroke="#000000" points="622,-224.5 622,-243.5 693,-243.5 693,-224.5 622,-224.5"/>
<text text-anchor="middle" x="657.5" y="-231.5" font-family="'Consolas',monospace" font-size="10.00" fill="#000000">debug.hpp</text>
</a>
</g>
</g>
<!-- Node0&#45;&gt;Node20 -->
<g id="edge29" class="edge">
<title>Node0&#45;&gt;Node20</title>
<path fill="none" stroke="#191970" d="M779.2298,-280.3733C755.1034,-271.1822 718.5638,-257.2624 691.8123,-247.0713"/>
<polygon fill="#191970" stroke="#191970" points="693.0313,-243.7904 682.4404,-243.5011 690.5393,-250.3318 693.0313,-243.7904"/>
</g>
<!-- Node21 -->
<g id="node22" class="node">
<title>Node21</title>
<g id="a_node22"><a xlink:href="message_8hpp.html" target="_top" xlink:title=" ">
<polygon fill="#ffffff" stroke="#000000" points="455,-168.5 455,-187.5 538,-187.5 538,-168.5 455,-168.5"/>
<text text-anchor="middle" x="496.5" y="-175.5" font-family="'Consolas',monospace" font-size="10.00" fill="#000000">message.hpp</text>
</a>
</g>
</g>
<!-- Node0&#45;&gt;Node21 -->
<g id="edge52" class="edge">
<title>Node0&#45;&gt;Node21</title>
<path fill="none" stroke="#191970" d="M759.8181,-282.8644C720.4149,-275.7274 661.9004,-263.0501 613.5,-244 604.0194,-240.2685 552.964,-210.8776 521.5108,-192.5971"/>
<polygon fill="#191970" stroke="#191970" points="523.2315,-189.549 512.8282,-187.5438 519.7103,-195.599 523.2315,-189.549"/>
</g>
<!-- Node23 -->
<g id="node24" class="node">
<title>Node23</title>
<g id="a_node24"><a xlink:href="font_8hpp.html" target="_top" xlink:title=" ">
<polygon fill="#ffffff" stroke="#000000" points="993,-224.5 993,-243.5 1058,-243.5 1058,-224.5 993,-224.5"/>
<text text-anchor="middle" x="1025.5" y="-231.5" font-family="'Consolas',monospace" font-size="10.00" fill="#000000">font.hpp</text>
</a>
</g>
</g>
<!-- Node0&#45;&gt;Node23 -->
<g id="edge33" class="edge">
<title>Node0&#45;&gt;Node23</title>
<path fill="none" stroke="#191970" d="M842.2401,-280.4369C881.3359,-270.5303 942.3063,-255.0807 983.0552,-244.7552"/>
<polygon fill="#191970" stroke="#191970" points="984.1199,-248.0962 992.9538,-242.247 982.4004,-241.3106 984.1199,-248.0962"/>
</g>
<!-- Node24 -->
<g id="node25" class="node">
<title>Node24</title>
<g id="a_node25"><a xlink:href="framebuffer_8hpp_source.html" target="_top" xlink:title=" ">
<polygon fill="#ffffff" stroke="#000000" points="1372,-168.5 1372,-187.5 1473,-187.5 1473,-168.5 1372,-168.5"/>
<text text-anchor="middle" x="1422.5" y="-175.5" font-family="'Consolas',monospace" font-size="10.00" fill="#000000">framebuffer.hpp</text>
</a>
</g>
</g>
<!-- Node0&#45;&gt;Node24 -->
<g id="edge37" class="edge">
<title>Node0&#45;&gt;Node24</title>
<path fill="none" stroke="#191970" d="M849.0999,-288.6719C957.3022,-285.0231 1231.181,-273.1135 1317.5,-244 1350.2007,-232.9708 1383.1136,-209.8803 1403.1544,-194.1552"/>
<polygon fill="#191970" stroke="#191970" points="1405.5596,-196.7125 1411.1633,-187.7209 1401.1754,-191.2554 1405.5596,-196.7125"/>
</g>
<!-- Node25 -->
<g id="node26" class="node">
<title>Node25</title>
<g id="a_node26"><a xlink:href="job_8hpp.html" target="_top" xlink:title=" ">
<polygon fill="#ffffff" stroke="#000000" points="64,-168.5 64,-187.5 123,-187.5 123,-168.5 64,-168.5"/>
<text text-anchor="middle" x="93.5" y="-175.5" font-family="'Consolas',monospace" font-size="10.00" fill="#000000">job.hpp</text>
</a>
</g>
</g>
<!-- Node0&#45;&gt;Node25 -->
<g id="edge42" class="edge">
<title>Node0&#45;&gt;Node25</title>
<path fill="none" stroke="#191970" d="M759.8692,-288.6358C608.9117,-283.821 125.4738,-266.6838 101.5,-244 89.3406,-232.4948 88.3908,-212.8427 89.8522,-197.9672"/>
<polygon fill="#191970" stroke="#191970" points="93.3641,-198.1275 91.2939,-187.7369 86.4326,-197.1506 93.3641,-198.1275"/>
</g>
<!-- Node26 -->
<g id="node27" class="node">
<title>Node26</title>
<g id="a_node27"><a xlink:href="main_8hpp_source.html" target="_top" xlink:title=" ">
<polygon fill="#ffffff" stroke="#000000" points="833,-224.5 833,-243.5 898,-243.5 898,-224.5 833,-224.5"/>
<text text-anchor="middle" x="865.5" y="-231.5" font-family="'Consolas',monospace" font-size="10.00" fill="#000000">main.hpp</text>
</a>
</g>
</g>
<!-- Node0&#45;&gt;Node26 -->
<g id="edge44" class="edge">
<title>Node0&#45;&gt;Node26</title>
<path fill="none" stroke="#191970" d="M815.1254,-280.2455C824.0473,-272.0549 836.988,-260.1749 847.5192,-250.5069"/>
<polygon fill="#191970" stroke="#191970" points="849.9968,-252.9837 854.9964,-243.6427 845.2629,-247.8271 849.9968,-252.9837"/>
</g>
<!-- Node27 -->
<g id="node28" class="node">
<title>Node27</title>
<g id="a_node28"><a xlink:href="other_8hpp.html" target="_top" xlink:title=" ">
<polygon fill="#ffffff" stroke="#000000" points="951,-168.5 951,-187.5 1022,-187.5 1022,-168.5 951,-168.5"/>
<text text-anchor="middle" x="986.5" y="-175.5" font-family="'Consolas',monospace" font-size="10.00" fill="#000000">other.hpp</text>
</a>
</g>
</g>
<!-- Node0&#45;&gt;Node27 -->
<g id="edge53" class="edge">
<title>Node0&#45;&gt;Node27</title>
<path fill="none" stroke="#191970" d="M831.3351,-280.3739C852.7413,-272.1482 883.078,-259.2435 907.5,-244 930.2698,-229.7877 953.5132,-209.5353 968.8376,-195.2215"/>
<polygon fill="#191970" stroke="#191970" points="971.645,-197.382 976.4832,-187.9564 966.8231,-192.3076 971.645,-197.382"/>
</g>
<!-- Node28 -->
<g id="node29" class="node">
<title>Node28</title>
<g id="a_node29"><a xlink:href="window_8hpp.html" target="_top" xlink:title="Functions related to the main window.">
<polygon fill="#ffffff" stroke="#000000" points="817,-168.5 817,-187.5 894,-187.5 894,-168.5 817,-168.5"/>
<text text-anchor="middle" x="855.5" y="-175.5" font-family="'Consolas',monospace" font-size="10.00" fill="#000000">window.hpp</text>
</a>
</g>
</g>
<!-- Node0&#45;&gt;Node28 -->
<g id="edge68" class="edge">
<title>Node0&#45;&gt;Node28</title>
<path fill="none" stroke="#191970" d="M806.4889,-280.2683C809.3941,-267.0907 815.4556,-243.0326 824.5,-224 829.1747,-214.1629 835.7691,-204.0399 841.6748,-195.8033"/>
<polygon fill="#191970" stroke="#191970" points="844.5343,-197.8232 847.6893,-187.709 838.9157,-193.6482 844.5343,-197.8232"/>
</g>
<!-- Node29 -->
<g id="node30" class="node">
<title>Node29</title>
<g id="a_node30"><a xlink:href="matrix_8hpp_source.html" target="_top" xlink:title=" ">
<polygon fill="#ffffff" stroke="#000000" points="1115,-224.5 1115,-243.5 1192,-243.5 1192,-224.5 1115,-224.5"/>
<text text-anchor="middle" x="1153.5" y="-231.5" font-family="'Consolas',monospace" font-size="10.00" fill="#000000">matrix.hpp</text>
</a>
</g>
</g>
<!-- Node0&#45;&gt;Node29 -->
<g id="edge51" class="edge">
<title>Node0&#45;&gt;Node29</title>
<path fill="none" stroke="#191970" d="M849.204,-283.5124C907.2257,-274.9868 1011.5758,-259.2946 1100.5,-244 1101.9419,-243.752 1103.4052,-243.497 1104.882,-243.2368"/>
<polygon fill="#191970" stroke="#191970" points="1105.5169,-246.6789 1114.7388,-241.463 1104.277,-239.7896 1105.5169,-246.6789"/>
</g>
<!-- Node30 -->
<g id="node31" class="node">
<title>Node30</title>
<g id="a_node31"><a xlink:href="screen_8hpp.html" target="_top" xlink:title=" ">
<polygon fill="#ffffff" stroke="#000000" points="1584,-224.5 1584,-243.5 1661,-243.5 1661,-224.5 1584,-224.5"/>
<text text-anchor="middle" x="1622.5" y="-231.5" font-family="'Consolas',monospace" font-size="10.00" fill="#000000">screen.hpp</text>
</a>
</g>
</g>
<!-- Node0&#45;&gt;Node30 -->
<g id="edge54" class="edge">
<title>Node0&#45;&gt;Node30</title>
<path fill="none" stroke="#191970" d="M849.4649,-288.206C989.0829,-282.4984 1414.8187,-264.0285 1573.7734,-244.0231"/>
<polygon fill="#191970" stroke="#191970" points="1574.391,-247.4722 1583.8519,-242.7033 1573.482,-240.5314 1574.391,-247.4722"/>
</g>
<!-- Node31 -->
<g id="node32" class="node">
<title>Node31</title>
<g id="a_node32"><a xlink:href="shapes_8hpp.html" target="_top" xlink:title=" ">
<polygon fill="#ffffff" stroke="#000000" points="1210,-224.5 1210,-243.5 1287,-243.5 1287,-224.5 1210,-224.5"/>
<text text-anchor="middle" x="1248.5" y="-231.5" font-family="'Consolas',monospace" font-size="10.00" fill="#000000">shapes.hpp</text>
</a>
</g>
</g>
<!-- Node0&#45;&gt;Node31 -->
<g id="edge56" class="edge">
<title>Node0&#45;&gt;Node31</title>
<path fill="none" stroke="#191970" d="M849.0465,-286.2197C920.8893,-279.8215 1066.9584,-265.5692 1199.8735,-244.1518"/>
<polygon fill="#191970" stroke="#191970" points="1200.5189,-247.5929 1209.826,-242.5305 1199.3933,-240.684 1200.5189,-247.5929"/>
</g>
<!-- Node32 -->
<g id="node33" class="node">
<title>Node32</title>
<g id="a_node33"><a xlink:href="sound_8hpp_source.html" target="_top" xlink:title=" ">
<polygon fill="#ffffff" stroke="#000000" points="633,-168.5 633,-187.5 704,-187.5 704,-168.5 633,-168.5"/>
<text text-anchor="middle" x="668.5" y="-175.5" font-family="'Consolas',monospace" font-size="10.00" fill="#000000">sound.hpp</text>
</a>
</g>
</g>
<!-- Node0&#45;&gt;Node32 -->
<g id="edge59" class="edge">
<title>Node0&#45;&gt;Node32</title>
<path fill="none" stroke="#191970" d="M792.9047,-280.4509C769.519,-261.1921 716.4908,-217.5218 687.7992,-193.8935"/>
<polygon fill="#191970" stroke="#191970" points="690.0102,-191.1802 680.0659,-187.5249 685.5603,-196.5838 690.0102,-191.1802"/>
</g>
<!-- Node33 -->
<g id="node34" class="node">
<title>Node33</title>
<g id="a_node34"><a xlink:href="text_8hpp.html" target="_top" xlink:title=" ">
<polygon fill="#ffffff" stroke="#000000" points="295,-168.5 295,-187.5 360,-187.5 360,-168.5 295,-168.5"/>
<text text-anchor="middle" x="327.5" y="-175.5" font-family="'Consolas',monospace" font-size="10.00" fill="#000000">text.hpp</text>
</a>
</g>
</g>
<!-- Node0&#45;&gt;Node33 -->
<g id="edge62" class="edge">
<title>Node0&#45;&gt;Node33</title>
<path fill="none" stroke="#191970" d="M759.7493,-289.0812C665.6678,-286.5094 450.7602,-277.0857 386.5,-244 365.6788,-233.2798 348.7412,-211.9387 338.4406,-196.4181"/>
<polygon fill="#191970" stroke="#191970" points="341.2063,-194.2423 332.9093,-187.6535 335.2865,-197.9782 341.2063,-194.2423"/>
</g>
<!-- Node34 -->
<g id="node35" class="node">
<title>Node34</title>
<g id="a_node35"><a xlink:href="time_8hpp.html" target="_top" xlink:title=" ">
<polygon fill="#ffffff" stroke="#000000" points="1501,-224.5 1501,-243.5 1566,-243.5 1566,-224.5 1501,-224.5"/>
<text text-anchor="middle" x="1533.5" y="-231.5" font-family="'Consolas',monospace" font-size="10.00" fill="#000000">time.hpp</text>
</a>
</g>
</g>
<!-- Node0&#45;&gt;Node34 -->
<g id="edge67" class="edge">
<title>Node0&#45;&gt;Node34</title>
<path fill="none" stroke="#191970" d="M849.2315,-288.0198C978.0117,-282.1627 1348.9623,-264.1562 1490.7233,-243.9986"/>
<polygon fill="#191970" stroke="#191970" points="1491.5515,-247.414 1500.9281,-242.4813 1490.522,-240.4901 1491.5515,-247.414"/>
</g>
<!-- Node35 -->
<g id="node36" class="node">
<title>Node35</title>
<g id="a_node36"><a xlink:href="work_8hpp.html" target="_top" xlink:title=" ">
<polygon fill="#ffffff" stroke="#000000" points="111,-224.5 111,-243.5 176,-243.5 176,-224.5 111,-224.5"/>
<text text-anchor="middle" x="143.5" y="-231.5" font-family="'Consolas',monospace" font-size="10.00" fill="#000000">work.hpp</text>
</a>
</g>
</g>
<!-- Node0&#45;&gt;Node35 -->
<g id="edge69" class="edge">
<title>Node0&#45;&gt;Node35</title>
<path fill="none" stroke="#191970" d="M759.9734,-288.722C658.485,-285.3603 402.3983,-274.3387 190.5,-244 189.029,-243.7894 187.5352,-243.5597 186.0288,-243.3145"/>
<polygon fill="#191970" stroke="#191970" points="186.4763,-239.8389 176.0143,-241.5118 185.236,-246.7282 186.4763,-239.8389"/>
</g>
<!-- Node2 -->
<g id="node3" class="node">
<title>Node2</title>
<g id="a_node3"><a doxygen="/w/doc/cppreference-doxygen-web.tag.xml:http://en.cppreference.com/w/" xlink:href="http://en.cppreference.com/w/cpp/header/memory.html" xlink:title=" ">
<polygon fill="#ffffff" stroke="#000000" points="343,-56.5 343,-75.5 396,-75.5 396,-56.5 343,-56.5"/>
<text text-anchor="middle" x="369.5" y="-63.5" font-family="'Consolas',monospace" font-size="10.00" fill="#000000">memory</text>
</a>
</g>
</g>
<!-- Node1&#45;&gt;Node2 -->
<g id="edge2" class="edge">
<title>Node1&#45;&gt;Node2</title>
<path fill="none" stroke="#191970" d="M238.5991,-168.2264C227.2819,-154.5727 210.6653,-129.5005 223.5,-112 236.5568,-94.1967 294.1665,-80.1261 332.9965,-72.4424"/>
<polygon fill="#191970" stroke="#191970" points="333.7512,-75.8615 342.9112,-70.5374 332.4303,-68.9872 333.7512,-75.8615"/>
</g>
<!-- Node3 -->
<g id="node4" class="node">
<title>Node3</title>
<g id="a_node4"><a doxygen="/w/doc/cppreference-doxygen-web.tag.xml:http://en.cppreference.com/w/" xlink:href="http://en.cppreference.com/w/cpp/header/string.html" xlink:title=" ">
<polygon fill="#ffffff" stroke="#000000" points="470,-112.5 470,-131.5 523,-131.5 523,-112.5 470,-112.5"/>
<text text-anchor="middle" x="496.5" y="-119.5" font-family="'Consolas',monospace" font-size="10.00" fill="#000000">string</text>
</a>
</g>
</g>
<!-- Node1&#45;&gt;Node3 -->
<g id="edge3" class="edge">
<title>Node1&#45;&gt;Node3</title>
<path fill="none" stroke="#191970" d="M277.2837,-170.2477C280.3921,-169.4732 283.5078,-168.7111 286.5,-168 347.089,-153.601 417.9104,-138.4299 459.885,-129.6104"/>
<polygon fill="#191970" stroke="#191970" points="460.8417,-132.9861 469.9112,-127.5094 459.4059,-126.1349 460.8417,-132.9861"/>
</g>
<!-- Node5&#45;&gt;Node6 -->
<g id="edge6" class="edge">
<title>Node5&#45;&gt;Node6</title>
<path fill="none" stroke="#191970" d="M1412.9027,-224.3733C1394.7669,-215.4644 1367.5865,-202.1127 1347.0413,-192.0203"/>
<polygon fill="#191970" stroke="#191970" points="1348.3603,-188.7688 1337.8416,-187.5011 1345.2739,-195.0517 1348.3603,-188.7688"/>
</g>
<!-- Node12 -->
<g id="node13" class="node">
<title>Node12</title>
<g id="a_node13"><a doxygen="/w/doc/cppreference-doxygen-web.tag.xml:http://en.cppreference.com/w/" xlink:href="http://en.cppreference.com/w/cpp/header/chrono.html" xlink:title=" ">
<polygon fill="#ffffff" stroke="#000000" points="1491,-168.5 1491,-187.5 1544,-187.5 1544,-168.5 1491,-168.5"/>
<text text-anchor="middle" x="1517.5" y="-175.5" font-family="'Consolas',monospace" font-size="10.00" fill="#000000">chrono</text>
</a>
</g>
</g>
<!-- Node5&#45;&gt;Node12 -->
<g id="edge13" class="edge">
<title>Node5&#45;&gt;Node12</title>
<path fill="none" stroke="#191970" d="M1447.3059,-224.2455C1460.2256,-215.7337 1479.1931,-203.2375 1494.1552,-193.3801"/>
<polygon fill="#191970" stroke="#191970" points="1496.4387,-196.067 1502.8638,-187.6427 1492.5876,-190.2216 1496.4387,-196.067"/>
</g>
<!-- Node6&#45;&gt;Node2 -->
<g id="edge11" class="edge">
<title>Node6&#45;&gt;Node2</title>
<path fill="none" stroke="#191970" d="M1294.0215,-168.4551C1254.4547,-153.5006 1173.6815,-124.9242 1102.5,-112 966.5939,-87.324 535.7063,-71.4676 406.4826,-67.1769"/>
<polygon fill="#191970" stroke="#191970" points="406.4223,-63.6731 396.3126,-66.8425 406.1922,-70.6693 406.4223,-63.6731"/>
</g>
<!-- Node7 -->
<g id="node8" class="node">
<title>Node7</title>
<g id="a_node8"><a xlink:href="Vec2_8hpp.html" target="_top" xlink:title=" ">
<polygon fill="#ffffff" stroke="#000000" points="1210,-112.5 1210,-131.5 1275,-131.5 1275,-112.5 1210,-112.5"/>
<text text-anchor="middle" x="1242.5" y="-119.5" font-family="'Consolas',monospace" font-size="10.00" fill="#000000">Vec2.hpp</text>
</a>
</g>
</g>
<!-- Node6&#45;&gt;Node7 -->
<g id="edge7" class="edge">
<title>Node6&#45;&gt;Node7</title>
<path fill="none" stroke="#191970" d="M1305.2618,-168.2455C1293.819,-159.814 1277.0704,-147.4729 1263.7525,-137.6598"/>
<polygon fill="#191970" stroke="#191970" points="1265.7133,-134.757 1255.5865,-131.6427 1261.5609,-140.3924 1265.7133,-134.757"/>
</g>
<!-- Node10 -->
<g id="node11" class="node">
<title>Node10</title>
<g id="a_node11"><a doxygen="/w/doc/cppreference-doxygen-web.tag.xml:http://en.cppreference.com/w/" xlink:href="http://en.cppreference.com/w/cpp/header/functional.html" xlink:title=" ">
<polygon fill="#ffffff" stroke="#000000" points="1142,-.5 1142,-19.5 1219,-19.5 1219,-.5 1142,-.5"/>
<text text-anchor="middle" x="1180.5" y="-7.5" font-family="'Consolas',monospace" font-size="10.00" fill="#000000">functional</text>
</a>
</g>
</g>
<!-- Node6&#45;&gt;Node10 -->
<g id="edge10" class="edge">
<title>Node6&#45;&gt;Node10</title>
<path fill="none" stroke="#191970" d="M1320.2954,-168.1851C1323.8251,-145.667 1329.1742,-89.6469 1302.5,-56 1284.7474,-33.6069 1254.8356,-22.113 1229.0738,-16.2145"/>
<polygon fill="#191970" stroke="#191970" points="1229.5735,-12.7439 1219.0723,-14.1488 1228.1576,-19.5992 1229.5735,-12.7439"/>
</g>
<!-- Node11 -->
<g id="node12" class="node">
<title>Node11</title>
<g id="a_node12"><a doxygen="/w/doc/cppreference-doxygen-web.tag.xml:http://en.cppreference.com/w/" xlink:href="http://en.cppreference.com/w/cpp/header/vector.html" xlink:title=" ">
<polygon fill="#ffffff" stroke="#000000" points="960,-112.5 960,-131.5 1013,-131.5 1013,-112.5 960,-112.5"/>
<text text-anchor="middle" x="986.5" y="-119.5" font-family="'Consolas',monospace" font-size="10.00" fill="#000000">vector</text>
</a>
</g>
</g>
<!-- Node6&#45;&gt;Node11 -->
<g id="edge12" class="edge">
<title>Node6&#45;&gt;Node11</title>
<path fill="none" stroke="#191970" d="M1282.9702,-172.007C1219.5871,-161.3159 1087.6479,-139.0611 1023.3361,-128.2133"/>
<polygon fill="#191970" stroke="#191970" points="1023.6905,-124.7237 1013.2476,-126.5116 1022.5261,-131.6262 1023.6905,-124.7237"/>
</g>
<!-- Node8 -->
<g id="node9" class="node">
<title>Node8</title>
<g id="a_node9"><a xlink:title=" ">
<polygon fill="#ffffff" stroke="#bfbfbf" points="1174,-56.5 1174,-75.5 1293,-75.5 1293,-56.5 1174,-56.5"/>
<text text-anchor="middle" x="1233.5" y="-63.5" font-family="'Consolas',monospace" font-size="10.00" fill="#000000">boost/version.hpp</text>
</a>
</g>
</g>
<!-- Node7&#45;&gt;Node8 -->
<g id="edge8" class="edge">
<title>Node7&#45;&gt;Node8</title>
<path fill="none" stroke="#191970" d="M1240.9323,-112.2455C1239.7579,-104.9382 1238.1116,-94.6944 1236.6668,-85.7046"/>
<polygon fill="#191970" stroke="#191970" points="1240.0922,-84.9606 1235.0497,-75.6427 1233.1809,-86.0714 1240.0922,-84.9606"/>
</g>
<!-- Node9 -->
<g id="node10" class="node">
<title>Node9</title>
<g id="a_node10"><a doxygen="/w/doc/cppreference-doxygen-web.tag.xml:http://en.cppreference.com/w/" xlink:href="http://en.cppreference.com/w/cpp/header/iosfwd.html" xlink:title=" ">
<polygon fill="#ffffff" stroke="#000000" points="1103,-56.5 1103,-75.5 1156,-75.5 1156,-56.5 1103,-56.5"/>
<text text-anchor="middle" x="1129.5" y="-63.5" font-family="'Consolas',monospace" font-size="10.00" fill="#000000">iosfwd</text>
</a>
</g>
</g>
<!-- Node7&#45;&gt;Node9 -->
<g id="edge9" class="edge">
<title>Node7&#45;&gt;Node9</title>
<path fill="none" stroke="#191970" d="M1223.0746,-112.3733C1205.0979,-103.4644 1178.1559,-90.1127 1157.791,-80.0203"/>
<polygon fill="#191970" stroke="#191970" points="1159.1861,-76.8055 1148.6719,-75.5011 1156.0778,-83.0776 1159.1861,-76.8055"/>
</g>
<!-- Node14&#45;&gt;Node2 -->
<g id="edge16" class="edge">
<title>Node14&#45;&gt;Node2</title>
<path fill="none" stroke="#191970" d="M77.1826,-115.3095C83.6328,-114.1999 90.2549,-113.0645 96.5,-112 180.9424,-97.6063 280.1242,-80.9592 332.5967,-72.1724"/>
<polygon fill="#191970" stroke="#191970" points="333.4717,-75.5747 342.7566,-70.4715 332.3159,-68.6707 333.4717,-75.5747"/>
</g>
<!-- Node15&#45;&gt;Node2 -->
<g id="edge20" class="edge">
<title>Node15&#45;&gt;Node2</title>
<path fill="none" stroke="#191970" d="M737.9884,-114.2134C648.2288,-102.4692 480.8262,-80.566 406.5905,-70.853"/>
<polygon fill="#191970" stroke="#191970" points="406.7037,-67.338 396.3341,-69.511 405.7955,-74.2789 406.7037,-67.338"/>
</g>
<!-- Node16 -->
<g id="node17" class="node">
<title>Node16</title>
<g id="a_node17"><a xlink:href="Finally_8hpp.html" target="_top" xlink:title=" ">
<polygon fill="#ffffff" stroke="#000000" points="941,-56.5 941,-75.5 1024,-75.5 1024,-56.5 941,-56.5"/>
<text text-anchor="middle" x="982.5" y="-63.5" font-family="'Consolas',monospace" font-size="10.00" fill="#000000">Finally.hpp</text>
</a>
</g>
</g>
<!-- Node15&#45;&gt;Node16 -->
<g id="edge18" class="edge">
<title>Node15&#45;&gt;Node16</title>
<path fill="none" stroke="#191970" d="M829.3026,-112.3733C860.3317,-102.9807 907.6754,-88.6496 941.5147,-78.4064"/>
<polygon fill="#191970" stroke="#191970" points="942.5553,-81.7483 951.1124,-75.5011 940.5272,-75.0485 942.5553,-81.7483"/>
</g>
<!-- Node16&#45;&gt;Node10 -->
<g id="edge19" class="edge">
<title>Node16&#45;&gt;Node10</title>
<path fill="none" stroke="#191970" d="M1016.5374,-56.3733C1049.8894,-46.9404 1100.8527,-32.5265 1137.1002,-22.2747"/>
<polygon fill="#191970" stroke="#191970" points="1138.2368,-25.5906 1146.9067,-19.5011 1136.3316,-18.8548 1138.2368,-25.5906"/>
</g>
<!-- Node18&#45;&gt;Node2 -->
<g id="edge27" class="edge">
<title>Node18&#45;&gt;Node2</title>
<path fill="none" stroke="#191970" d="M427.0456,-224.4862C417.3194,-197.6994 389.5634,-121.2565 376.4819,-85.2289"/>
<polygon fill="#191970" stroke="#191970" points="379.7713,-84.0329 373.0685,-75.8279 373.1916,-86.422 379.7713,-84.0329"/>
</g>
<!-- Node18&#45;&gt;Node3 -->
<g id="edge28" class="edge">
<title>Node18&#45;&gt;Node3</title>
<path fill="none" stroke="#191970" d="M431.0839,-224.3882C432.2726,-210.9267 435.8465,-186.0815 446.5,-168 453.3541,-156.3671 464.0755,-145.9402 473.8354,-137.9667"/>
<polygon fill="#191970" stroke="#191970" points="476.2717,-140.5073 482.0433,-131.6226 471.9908,-134.9688 476.2717,-140.5073"/>
</g>
<!-- Node18&#45;&gt;Node19 -->
<g id="edge23" class="edge">
<title>Node18&#45;&gt;Node19</title>
<path fill="none" stroke="#191970" d="M466.0554,-226.5323C470.5744,-225.6454 475.1412,-224.7796 479.5,-224 579.9442,-206.0351 608.298,-206.8852 711.8805,-188.2215"/>
<polygon fill="#191970" stroke="#191970" points="712.5942,-191.6492 721.806,-186.4153 711.3409,-184.7623 712.5942,-191.6492"/>
</g>
<!-- Node19&#45;&gt;Node7 -->
<g id="edge25" class="edge">
<title>Node19&#45;&gt;Node7</title>
<path fill="none" stroke="#191970" d="M799.2118,-169.5891C802.3474,-169.0134 805.4726,-168.4746 808.5,-168 950.9487,-145.6695 1121.4364,-131.1194 1199.5629,-125.1219"/>
<polygon fill="#191970" stroke="#191970" points="1200.2551,-128.5795 1209.9614,-124.3324 1199.7251,-121.5996 1200.2551,-128.5795"/>
</g>
<!-- Node19&#45;&gt;Node13 -->
<g id="edge26" class="edge">
<title>Node19&#45;&gt;Node13</title>
<path fill="none" stroke="#191970" d="M721.8311,-169.4379C719.0179,-168.9179 716.219,-168.4315 713.5,-168 577.2487,-146.3783 415.3781,-132.3148 332.463,-125.9452"/>
<polygon fill="#191970" stroke="#191970" points="332.5022,-122.4382 322.2657,-125.1702 331.9716,-129.4181 332.5022,-122.4382"/>
</g>
<!-- Node19&#45;&gt;Node15 -->
<g id="edge24" class="edge">
<title>Node19&#45;&gt;Node15</title>
<path fill="none" stroke="#191970" d="M766.9449,-168.2455C772.0382,-160.5367 779.2908,-149.5598 785.452,-140.2348"/>
<polygon fill="#191970" stroke="#191970" points="788.5365,-141.9155 791.1289,-131.6427 782.6962,-138.0566 788.5365,-141.9155"/>
</g>
<!-- Node20&#45;&gt;Node21 -->
<g id="edge30" class="edge">
<title>Node20&#45;&gt;Node21</title>
<path fill="none" stroke="#191970" d="M629.8231,-224.3733C603.1672,-215.1016 562.6762,-201.0178 533.3116,-190.804"/>
<polygon fill="#191970" stroke="#191970" points="534.4105,-187.4807 523.8157,-187.5011 532.1109,-194.0921 534.4105,-187.4807"/>
</g>
<!-- Node22 -->
<g id="node23" class="node">
<title>Node22</title>
<g id="a_node23"><a doxygen="/w/doc/cppreference-doxygen-web.tag.xml:http://en.cppreference.com/w/" xlink:href="http://en.cppreference.com/w/cpp/header/sstream.html" xlink:title=" ">
<polygon fill="#ffffff" stroke="#000000" points="556,-168.5 556,-187.5 615,-187.5 615,-168.5 556,-168.5"/>
<text text-anchor="middle" x="585.5" y="-175.5" font-family="'Consolas',monospace" font-size="10.00" fill="#000000">sstream</text>
</a>
</g>
</g>
<!-- Node20&#45;&gt;Node22 -->
<g id="edge32" class="edge">
<title>Node20&#45;&gt;Node22</title>
<path fill="none" stroke="#191970" d="M644.9586,-224.2455C634.2213,-215.8943 618.5527,-203.7076 605.9953,-193.9408"/>
<polygon fill="#191970" stroke="#191970" points="607.9401,-191.0194 597.8977,-187.6427 603.6425,-196.5449 607.9401,-191.0194"/>
</g>
<!-- Node21&#45;&gt;Node3 -->
<g id="edge31" class="edge">
<title>Node21&#45;&gt;Node3</title>
<path fill="none" stroke="#191970" d="M496.5,-168.2455C496.5,-160.9382 496.5,-150.6944 496.5,-141.7046"/>
<polygon fill="#191970" stroke="#191970" points="500.0001,-141.6426 496.5,-131.6427 493.0001,-141.6427 500.0001,-141.6426"/>
</g>
<!-- Node23&#45;&gt;Node2 -->
<g id="edge36" class="edge">
<title>Node23&#45;&gt;Node2</title>
<path fill="none" stroke="#191970" d="M1031.4765,-224.2032C1036.6112,-215.1737 1043.6271,-201.2108 1046.5,-188 1054.0271,-153.387 1051.3679,-132.5271 1022.5,-112 972.2196,-76.2472 537.4136,-68.0509 406.5862,-66.3865"/>
<polygon fill="#191970" stroke="#191970" points="406.3305,-62.8832 396.2886,-66.2611 406.2452,-69.8827 406.3305,-62.8832"/>
</g>
<!-- Node23&#45;&gt;Node4 -->
<g id="edge34" class="edge">
<title>Node23&#45;&gt;Node4</title>
<path fill="none" stroke="#191970" d="M1053.8645,-224.3733C1081.1827,-215.1016 1122.6796,-201.0178 1152.7738,-190.804"/>
<polygon fill="#191970" stroke="#191970" points="1154.161,-194.0294 1162.5056,-187.5011 1151.9113,-187.4008 1154.161,-194.0294"/>
</g>
<!-- Node23&#45;&gt;Node7 -->
<g id="edge35" class="edge">
<title>Node23&#45;&gt;Node7</title>
<path fill="none" stroke="#191970" d="M1042.5809,-224.3142C1065.8781,-211.1886 1109.0112,-187.1892 1146.5,-168 1168.4548,-156.7621 1193.6079,-144.7402 1212.6585,-135.8055"/>
<polygon fill="#191970" stroke="#191970" points="1214.1679,-138.9635 1221.7468,-131.5601 1211.2053,-132.6214 1214.1679,-138.9635"/>
</g>
<!-- Node24&#45;&gt;Node2 -->
<g id="edge40" class="edge">
<title>Node24&#45;&gt;Node2</title>
<path fill="none" stroke="#191970" d="M1407.5334,-168.3707C1382.9856,-153.1613 1332.126,-124.068 1284.5,-112 1198.496,-90.2073 567.336,-71.459 406.6415,-67.0029"/>
<polygon fill="#191970" stroke="#191970" points="406.4148,-63.4954 396.3221,-66.7185 406.2219,-70.4927 406.4148,-63.4954"/>
</g>
<!-- Node24&#45;&gt;Node7 -->
<g id="edge39" class="edge">
<title>Node24&#45;&gt;Node7</title>
<path fill="none" stroke="#191970" d="M1391.5569,-168.3733C1361.4961,-159.021 1315.6974,-144.7725 1282.8022,-134.5385"/>
<polygon fill="#191970" stroke="#191970" points="1283.6277,-131.1299 1273.0393,-131.5011 1281.5481,-137.8139 1283.6277,-131.1299"/>
</g>
<!-- Node24&#45;&gt;Node16 -->
<g id="edge38" class="edge">
<title>Node24&#45;&gt;Node16</title>
<path fill="none" stroke="#191970" d="M1420.4316,-168.4635C1416.6742,-153.6548 1407.2211,-125.4384 1387.5,-112 1373.0863,-102.1782 1140.5968,-80.1958 1034.5285,-70.6133"/>
<polygon fill="#191970" stroke="#191970" points="1034.6392,-67.1092 1024.3656,-69.6982 1034.0114,-74.081 1034.6392,-67.1092"/>
</g>
<!-- Node25&#45;&gt;Node2 -->
<g id="edge43" class="edge">
<title>Node25&#45;&gt;Node2</title>
<path fill="none" stroke="#191970" d="M97.1809,-168.1355C103.2148,-153.4113 116.6634,-125.9291 137.5,-112 168.9938,-90.9466 275.6126,-76.3452 332.7006,-69.8324"/>
<polygon fill="#191970" stroke="#191970" points="333.2042,-73.298 342.7544,-68.7107 332.428,-66.3411 333.2042,-73.298"/>
</g>
<!-- Node26&#45;&gt;Node16 -->
<g id="edge45" class="edge">
<title>Node26&#45;&gt;Node16</title>
<path fill="none" stroke="#191970" d="M874.0257,-224.4172C881.9833,-215.3057 894.0205,-201.0869 903.5,-188 926.9359,-155.6456 929.6677,-145.4574 951.5,-112 957.5292,-102.7604 964.3704,-92.5782 970.0893,-84.1475"/>
<polygon fill="#191970" stroke="#191970" points="973.0283,-86.0499 975.7631,-75.8141 967.242,-82.1104 973.0283,-86.0499"/>
</g>
<!-- Node26&#45;&gt;Node27 -->
<g id="edge46" class="edge">
<title>Node26&#45;&gt;Node27</title>
<path fill="none" stroke="#191970" d="M886.3006,-224.3733C905.7243,-215.3838 934.9224,-201.8706 956.7964,-191.7471"/>
<polygon fill="#191970" stroke="#191970" points="958.3656,-194.8776 965.9708,-187.5011 955.4255,-188.5249 958.3656,-194.8776"/>
</g>
<!-- Node26&#45;&gt;Node28 -->
<g id="edge49" class="edge">
<title>Node26&#45;&gt;Node28</title>
<path fill="none" stroke="#191970" d="M863.7581,-224.2455C862.4533,-216.9382 860.624,-206.6944 859.0187,-197.7046"/>
<polygon fill="#191970" stroke="#191970" points="862.4254,-196.8717 857.2219,-187.6427 855.5344,-198.1022 862.4254,-196.8717"/>
</g>
<!-- Node27&#45;&gt;Node3 -->
<g id="edge47" class="edge">
<title>Node27&#45;&gt;Node3</title>
<path fill="none" stroke="#191970" d="M950.9637,-173.6603C936.2742,-171.8815 919.0693,-169.8177 903.5,-168 767.1223,-152.0778 604.931,-134.0052 533.4502,-126.0841"/>
<polygon fill="#191970" stroke="#191970" points="533.4993,-122.5682 523.1747,-124.9461 532.7287,-129.5256 533.4993,-122.5682"/>
</g>
<!-- Node27&#45;&gt;Node11 -->
<g id="edge48" class="edge">
<title>Node27&#45;&gt;Node11</title>
<path fill="none" stroke="#191970" d="M986.5,-168.2455C986.5,-160.9382 986.5,-150.6944 986.5,-141.7046"/>
<polygon fill="#191970" stroke="#191970" points="990.0001,-141.6426 986.5,-131.6427 983.0001,-141.6427 990.0001,-141.6426"/>
</g>
<!-- Node28&#45;&gt;Node3 -->
<g id="edge50" class="edge">
<title>Node28&#45;&gt;Node3</title>
<path fill="none" stroke="#191970" d="M816.8095,-169.5654C814.0014,-169.0154 811.2095,-168.4875 808.5,-168 709.5773,-150.2023 592.0923,-134.2758 533.534,-126.6887"/>
<polygon fill="#191970" stroke="#191970" points="533.6687,-123.1772 523.3034,-125.3704 532.7741,-130.1198 533.6687,-123.1772"/>
</g>
<!-- Node30&#45;&gt;Node7 -->
<g id="edge55" class="edge">
<title>Node30&#45;&gt;Node7</title>
<path fill="none" stroke="#191970" d="M1615.6978,-224.4555C1604.557,-209.6358 1580.8981,-181.4046 1553.5,-168 1507.1214,-145.3092 1359.4305,-131.0328 1285.5072,-125.127"/>
<polygon fill="#191970" stroke="#191970" points="1285.3994,-121.608 1275.1566,-124.3164 1284.8528,-128.5866 1285.3994,-121.608"/>
</g>
<!-- Node31&#45;&gt;Node4 -->
<g id="edge57" class="edge">
<title>Node31&#45;&gt;Node4</title>
<path fill="none" stroke="#191970" d="M1238.3972,-224.2455C1229.9972,-216.1352 1217.8506,-204.4075 1207.8916,-194.7919"/>
<polygon fill="#191970" stroke="#191970" points="1210.1122,-192.0707 1200.4871,-187.6427 1205.25,-197.1066 1210.1122,-192.0707"/>
</g>
<!-- Node31&#45;&gt;Node7 -->
<g id="edge58" class="edge">
<title>Node31&#45;&gt;Node7</title>
<path fill="none" stroke="#191970" d="M1247.9884,-224.4509C1247.0099,-206.184 1244.8547,-165.9553 1243.5552,-141.6976"/>
<polygon fill="#191970" stroke="#191970" points="1247.0403,-141.3233 1243.0103,-131.5249 1240.0503,-141.6978 1247.0403,-141.3233"/>
</g>
<!-- Node32&#45;&gt;Node3 -->
<g id="edge60" class="edge">
<title>Node32&#45;&gt;Node3</title>
<path fill="none" stroke="#191970" d="M638.9321,-168.3733C609.5511,-158.8073 564.4368,-144.119 532.8764,-133.8435"/>
<polygon fill="#191970" stroke="#191970" points="533.7352,-130.4423 523.1429,-130.6744 531.568,-137.0984 533.7352,-130.4423"/>
</g>
<!-- Node33&#45;&gt;Node2 -->
<g id="edge64" class="edge">
<title>Node33&#45;&gt;Node2</title>
<path fill="none" stroke="#191970" d="M331.0809,-168.4509C337.993,-150.0186 353.2905,-109.2254 362.3589,-85.043"/>
<polygon fill="#191970" stroke="#191970" points="365.694,-86.1171 365.9282,-75.5249 359.1397,-83.6592 365.694,-86.1171"/>
</g>
<!-- Node33&#45;&gt;Node3 -->
<g id="edge65" class="edge">
<title>Node33&#45;&gt;Node3</title>
<path fill="none" stroke="#191970" d="M356.5521,-168.3733C385.2504,-158.8638 429.2256,-144.2921 460.2079,-134.0258"/>
<polygon fill="#191970" stroke="#191970" points="461.3831,-137.3236 469.7746,-130.8557 459.1813,-130.6789 461.3831,-137.3236"/>
</g>
<!-- Node33&#45;&gt;Node11 -->
<g id="edge66" class="edge">
<title>Node33&#45;&gt;Node11</title>
<path fill="none" stroke="#191970" d="M360.1799,-175.223C471.1197,-165.7956 832.9043,-135.0521 949.7497,-125.1229"/>
<polygon fill="#191970" stroke="#191970" points="950.294,-128.5894 959.9617,-124.2552 949.7012,-121.6145 950.294,-128.5894"/>
</g>
<!-- Node33&#45;&gt;Node13 -->
<g id="edge63" class="edge">
<title>Node33&#45;&gt;Node13</title>
<path fill="none" stroke="#191970" d="M318.7907,-168.2455C311.6927,-160.2958 301.4916,-148.8706 293.005,-139.3656"/>
<polygon fill="#191970" stroke="#191970" points="295.3805,-136.771 286.1095,-131.6427 290.1589,-141.4331 295.3805,-136.771"/>
</g>
<!-- Node35&#45;&gt;Node2 -->
<g id="edge71" class="edge">
<title>Node35&#45;&gt;Node2</title>
<path fill="none" stroke="#191970" d="M146.257,-224.21C153.4065,-200.7318 174.8782,-141.0252 215.5,-112 250.6339,-86.8961 299.5656,-75.3335 332.775,-70.1142"/>
<polygon fill="#191970" stroke="#191970" points="333.5745,-73.5349 342.9673,-68.6334 332.568,-66.6076 333.5745,-73.5349"/>
</g>
<!-- Node35&#45;&gt;Node25 -->
<g id="edge70" class="edge">
<title>Node35&#45;&gt;Node25</title>
<path fill="none" stroke="#191970" d="M134.7907,-224.2455C127.6927,-216.2958 117.4916,-204.8706 109.005,-195.3656"/>
<polygon fill="#191970" stroke="#191970" points="111.3805,-192.771 102.1095,-187.6427 106.1589,-197.4331 111.3805,-192.771"/>
</g>
</g>
</svg>
