<?xml version="1.0" encoding="UTF-8" standalone="no"?>
<!DOCTYPE svg PUBLIC "-//W3C//DTD SVG 1.1//EN"
 "http://www.w3.org/Graphics/SVG/1.1/DTD/svg11.dtd">
<!-- Generated by graphviz version 2.40.1 (0)
 -->
<!-- Title: jngl/all.hpp Pages: 1 -->
<svg width="1542pt" height="308pt"
 viewBox="0.00 0.00 1542.11 308.00" xmlns="http://www.w3.org/2000/svg" xmlns:xlink="http://www.w3.org/1999/xlink">
<g id="graph0" class="graph" transform="scale(1 1) rotate(0) translate(4 304)">
<title>jngl/all.hpp</title>
<polygon fill="#ffffff" stroke="transparent" points="-4,4 -4,-304 1538.1077,-304 1538.1077,4 -4,4"/>
<!-- Node0 -->
<g id="node1" class="node">
<title>Node0</title>
<polygon fill="#bfbfbf" stroke="#000000" points="778.1077,-280.5 778.1077,-299.5 840.1077,-299.5 840.1077,-280.5 778.1077,-280.5"/>
<text text-anchor="middle" x="809.1077" y="-287.5" font-family="Lato" font-size="10.00" fill="#000000">jngl/all.hpp</text>
</g>
<!-- Node1 -->
<g id="node2" class="node">
<title>Node1</title>
<g id="a_node2"><a xlink:href="Shader_8hpp_source.html" target="_top" xlink:title="Shader.hpp">
<polygon fill="#ffffff" stroke="#000000" points="1320.6077,-112.5 1320.6077,-131.5 1383.6077,-131.5 1383.6077,-112.5 1320.6077,-112.5"/>
<text text-anchor="middle" x="1352.1077" y="-119.5" font-family="Lato" font-size="10.00" fill="#000000">Shader.hpp</text>
</a>
</g>
</g>
<!-- Node0&#45;&gt;Node1 -->
<g id="edge1" class="edge">
<title>Node0&#45;&gt;Node1</title>
<path fill="none" stroke="#191970" d="M840.2523,-288.4863C940.6945,-283.4045 1251.8392,-266.0282 1291.1077,-244 1328.4848,-223.0329 1343.5008,-170.7396 1349.0919,-141.8901"/>
<polygon fill="#191970" stroke="#191970" points="1352.5868,-142.2204 1350.8504,-131.7688 1345.6902,-141.022 1352.5868,-142.2204"/>
</g>
<!-- Node4 -->
<g id="node5" class="node">
<title>Node4</title>
<g id="a_node5"><a xlink:href="ShaderProgram_8hpp_source.html" target="_top" xlink:title="ShaderProgram.hpp">
<polygon fill="#ffffff" stroke="#000000" points="368.6077,-112.5 368.6077,-131.5 469.6077,-131.5 469.6077,-112.5 368.6077,-112.5"/>
<text text-anchor="middle" x="419.1077" y="-119.5" font-family="Lato" font-size="10.00" fill="#000000">ShaderProgram.hpp</text>
</a>
</g>
</g>
<!-- Node0&#45;&gt;Node4 -->
<g id="edge4" class="edge">
<title>Node0&#45;&gt;Node4</title>
<path fill="none" stroke="#191970" d="M777.861,-286.6231C716.6131,-279.6815 583.0909,-262.8677 541.1077,-244 490.787,-221.3853 449.7244,-168.1625 430.6449,-140.0792"/>
<polygon fill="#191970" stroke="#191970" points="433.472,-138.009 425.0357,-131.5997 427.6338,-141.871 433.472,-138.009"/>
</g>
<!-- Node7 -->
<g id="node8" class="node">
<title>Node7</title>
<g id="a_node8"><a xlink:href="Vertex_8hpp_source.html" target="_top" xlink:title="Vertex.hpp">
<polygon fill="#ffffff" stroke="#000000" points="213.6077,-224.5 213.6077,-243.5 276.6077,-243.5 276.6077,-224.5 213.6077,-224.5"/>
<text text-anchor="middle" x="245.1077" y="-231.5" font-family="Lato" font-size="10.00" fill="#000000">Vertex.hpp</text>
</a>
</g>
</g>
<!-- Node0&#45;&gt;Node7 -->
<g id="edge9" class="edge">
<title>Node0&#45;&gt;Node7</title>
<path fill="none" stroke="#191970" d="M778.0005,-288.6011C697.2606,-284.6756 474.5223,-271.9673 291.1077,-244 289.6434,-243.7767 288.1558,-243.5349 286.6556,-243.2783"/>
<polygon fill="#191970" stroke="#191970" points="287.158,-239.8117 276.6845,-241.4104 285.869,-246.692 287.158,-239.8117"/>
</g>
<!-- Node11 -->
<g id="node12" class="node">
<title>Node11</title>
<g id="a_node12"><a xlink:href="color_8hpp_source.html" target="_top" xlink:title="color.hpp">
<polygon fill="#ffffff" stroke="#000000" points="15.6077,-112.5 15.6077,-131.5 70.6077,-131.5 70.6077,-112.5 15.6077,-112.5"/>
<text text-anchor="middle" x="43.1077" y="-119.5" font-family="Lato" font-size="10.00" fill="#000000">color.hpp</text>
</a>
</g>
</g>
<!-- Node0&#45;&gt;Node11 -->
<g id="edge14" class="edge">
<title>Node0&#45;&gt;Node11</title>
<path fill="none" stroke="#191970" d="M777.7604,-289.8221C663.487,-288.8629 269.7599,-282.7559 151.1077,-244 106.6832,-229.4894 90.1945,-225.3528 62.1077,-188 52.0429,-174.6147 47.3029,-156.0502 45.0745,-142.0187"/>
<polygon fill="#191970" stroke="#191970" points="48.5228,-141.3931 43.772,-131.9231 41.5804,-142.2888 48.5228,-141.3931"/>
</g>
<!-- Node12 -->
<g id="node13" class="node">
<title>Node12</title>
<g id="a_node13"><a xlink:href="Controller_8hpp_source.html" target="_top" xlink:title="Controller.hpp">
<polygon fill="#ffffff" stroke="#000000" points="588.6077,-224.5 588.6077,-243.5 665.6077,-243.5 665.6077,-224.5 588.6077,-224.5"/>
<text text-anchor="middle" x="627.1077" y="-231.5" font-family="Lato" font-size="10.00" fill="#000000">Controller.hpp</text>
</a>
</g>
</g>
<!-- Node0&#45;&gt;Node12 -->
<g id="edge16" class="edge">
<title>Node0&#45;&gt;Node12</title>
<path fill="none" stroke="#191970" d="M777.8208,-280.3733C747.426,-271.021 701.1184,-256.7725 667.8577,-246.5385"/>
<polygon fill="#191970" stroke="#191970" points="668.5735,-243.0968 657.9864,-243.5011 666.5149,-249.7873 668.5735,-243.0968"/>
</g>
<!-- Node13 -->
<g id="node14" class="node">
<title>Node13</title>
<g id="a_node14"><a xlink:href="input_8hpp.html" target="_top" xlink:title="input.hpp">
<polygon fill="#ffffff" stroke="#000000" points="558.1077,-168.5 558.1077,-187.5 614.1077,-187.5 614.1077,-168.5 558.1077,-168.5"/>
<text text-anchor="middle" x="586.1077" y="-175.5" font-family="Lato" font-size="10.00" fill="#000000">input.hpp</text>
</a>
</g>
</g>
<!-- Node0&#45;&gt;Node13 -->
<g id="edge38" class="edge">
<title>Node0&#45;&gt;Node13</title>
<path fill="none" stroke="#191970" d="M777.8173,-288.481C720.8748,-284.9909 603.8919,-274.2319 579.1077,-244 568.5266,-231.0931 572.1599,-211.6633 577.3099,-197.2237"/>
<polygon fill="#191970" stroke="#191970" points="580.6346,-198.3384 581.1465,-187.756 574.147,-195.7095 580.6346,-198.3384"/>
</g>
<!-- Node15 -->
<g id="node16" class="node">
<title>Node15</title>
<g id="a_node16"><a xlink:href="debug_8hpp_source.html" target="_top" xlink:title="debug.hpp">
<polygon fill="#ffffff" stroke="#000000" points="959.6077,-224.5 959.6077,-243.5 1020.6077,-243.5 1020.6077,-224.5 959.6077,-224.5"/>
<text text-anchor="middle" x="990.1077" y="-231.5" font-family="Lato" font-size="10.00" fill="#000000">debug.hpp</text>
</a>
</g>
</g>
<!-- Node0&#45;&gt;Node15 -->
<g id="edge22" class="edge">
<title>Node0&#45;&gt;Node15</title>
<path fill="none" stroke="#191970" d="M840.2227,-280.3733C870.4506,-271.021 916.5037,-256.7725 949.5816,-246.5385"/>
<polygon fill="#191970" stroke="#191970" points="950.88,-249.8005 959.3987,-243.5011 948.811,-243.1133 950.88,-249.8005"/>
</g>
<!-- Node16 -->
<g id="node17" class="node">
<title>Node16</title>
<g id="a_node17"><a xlink:href="message_8hpp_source.html" target="_top" xlink:title="message.hpp">
<polygon fill="#ffffff" stroke="#000000" points="1120.1077,-168.5 1120.1077,-187.5 1192.1077,-187.5 1192.1077,-168.5 1120.1077,-168.5"/>
<text text-anchor="middle" x="1156.1077" y="-175.5" font-family="Lato" font-size="10.00" fill="#000000">message.hpp</text>
</a>
</g>
</g>
<!-- Node0&#45;&gt;Node16 -->
<g id="edge53" class="edge">
<title>Node0&#45;&gt;Node16</title>
<path fill="none" stroke="#191970" d="M840.2074,-287.9512C887.629,-283.9937 980.1939,-272.9623 1053.1077,-244 1084.5721,-231.502 1116.7893,-208.9774 1136.6214,-193.7593"/>
<polygon fill="#191970" stroke="#191970" points="1138.8513,-196.4587 1144.5696,-187.5395 1134.5373,-190.946 1138.8513,-196.4587"/>
</g>
<!-- Node19 -->
<g id="node20" class="node">
<title>Node19</title>
<g id="a_node20"><a xlink:href="drawable_8hpp_source.html" target="_top" xlink:title="drawable.hpp">
<polygon fill="#ffffff" stroke="#000000" points="277.6077,-112.5 277.6077,-131.5 350.6077,-131.5 350.6077,-112.5 277.6077,-112.5"/>
<text text-anchor="middle" x="314.1077" y="-119.5" font-family="Lato" font-size="10.00" fill="#000000">drawable.hpp</text>
</a>
</g>
</g>
<!-- Node0&#45;&gt;Node19 -->
<g id="edge27" class="edge">
<title>Node0&#45;&gt;Node19</title>
<path fill="none" stroke="#191970" d="M777.7546,-287.9082C726.871,-283.7924 623.686,-272.43 541.1077,-244 461.4086,-216.5613 376.0749,-163.4349 336.5637,-137.2896"/>
<polygon fill="#191970" stroke="#191970" points="338.2303,-134.1939 327.971,-131.5489 334.3416,-140.0144 338.2303,-134.1939"/>
</g>
<!-- Node20 -->
<g id="node21" class="node">
<title>Node20</title>
<g id="a_node21"><a xlink:href="types_8hpp_source.html" target="_top" xlink:title="types.hpp">
<polygon fill="#ffffff" stroke="#000000" points="341.6077,-56.5 341.6077,-75.5 400.6077,-75.5 400.6077,-56.5 341.6077,-56.5"/>
<text text-anchor="middle" x="371.1077" y="-63.5" font-family="Lato" font-size="10.00" fill="#000000">types.hpp</text>
</a>
</g>
</g>
<!-- Node0&#45;&gt;Node20 -->
<g id="edge83" class="edge">
<title>Node0&#45;&gt;Node20</title>
<path fill="none" stroke="#191970" d="M777.6737,-288.7884C719.7396,-285.8303 592.7502,-275.949 491.1077,-244 385.3024,-210.7425 326.3316,-226.3972 268.1077,-132 263.4413,-124.4345 263.2708,-119.4576 268.1077,-112 275.6202,-100.4172 306.0988,-87.6403 331.9684,-78.4977"/>
<polygon fill="#191970" stroke="#191970" points="333.2841,-81.7465 341.6,-75.1817 331.0053,-75.1277 333.2841,-81.7465"/>
</g>
<!-- Node21 -->
<g id="node22" class="node">
<title>Node21</title>
<g id="a_node22"><a xlink:href="font_8hpp_source.html" target="_top" xlink:title="font.hpp">
<polygon fill="#ffffff" stroke="#000000" points="670.6077,-168.5 670.6077,-187.5 723.6077,-187.5 723.6077,-168.5 670.6077,-168.5"/>
<text text-anchor="middle" x="697.1077" y="-175.5" font-family="Lato" font-size="10.00" fill="#000000">font.hpp</text>
</a>
</g>
</g>
<!-- Node0&#45;&gt;Node21 -->
<g id="edge30" class="edge">
<title>Node0&#45;&gt;Node21</title>
<path fill="none" stroke="#191970" d="M801.2599,-280.2111C790.4777,-266.9685 770.2372,-242.8371 751.1077,-224 740.4446,-213.4999 727.7376,-202.6036 717.3295,-194.0531"/>
<polygon fill="#191970" stroke="#191970" points="719.5299,-191.3312 709.5583,-187.751 715.1208,-196.7682 719.5299,-191.3312"/>
</g>
<!-- Node22 -->
<g id="node23" class="node">
<title>Node22</title>
<g id="a_node23"><a xlink:href="framebuffer_8hpp_source.html" target="_top" xlink:title="framebuffer.hpp">
<polygon fill="#ffffff" stroke="#000000" points="1315.1077,-56.5 1315.1077,-75.5 1401.1077,-75.5 1401.1077,-56.5 1315.1077,-56.5"/>
<text text-anchor="middle" x="1358.1077" y="-63.5" font-family="Lato" font-size="10.00" fill="#000000">framebuffer.hpp</text>
</a>
</g>
</g>
<!-- Node0&#45;&gt;Node22 -->
<g id="edge36" class="edge">
<title>Node0&#45;&gt;Node22</title>
<path fill="none" stroke="#191970" d="M840.1471,-288.7384C944.1456,-284.2997 1276.0777,-268.3454 1317.1077,-244 1368.6286,-213.4298 1374.6884,-189.3193 1392.1077,-132 1394.6923,-123.4952 1394.8891,-120.4425 1392.1077,-112 1388.6022,-101.3594 1381.5836,-91.164 1374.8291,-83.0877"/>
<polygon fill="#191970" stroke="#191970" points="1377.3217,-80.6247 1368.0439,-75.5087 1372.1063,-85.2937 1377.3217,-80.6247"/>
</g>
<!-- Node23 -->
<g id="node24" class="node">
<title>Node23</title>
<g id="a_node24"><a xlink:href="job_8hpp_source.html" target="_top" xlink:title="job.hpp">
<polygon fill="#ffffff" stroke="#000000" points="1142.6077,-112.5 1142.6077,-131.5 1189.6077,-131.5 1189.6077,-112.5 1142.6077,-112.5"/>
<text text-anchor="middle" x="1166.1077" y="-119.5" font-family="Lato" font-size="10.00" fill="#000000">job.hpp</text>
</a>
</g>
</g>
<!-- Node0&#45;&gt;Node23 -->
<g id="edge39" class="edge">
<title>Node0&#45;&gt;Node23</title>
<path fill="none" stroke="#191970" d="M840.2415,-287.8294C892.3908,-283.5398 1000.2287,-271.8579 1087.1077,-244 1140.8616,-226.7637 1171.2615,-235.9142 1201.1077,-188 1211.1967,-171.8035 1198.1292,-152.4244 1185.1893,-138.8704"/>
<polygon fill="#191970" stroke="#191970" points="1187.3656,-136.1042 1177.7613,-131.6313 1182.48,-141.1173 1187.3656,-136.1042"/>
</g>
<!-- Node24 -->
<g id="node25" class="node">
<title>Node24</title>
<g id="a_node25"><a xlink:href="main_8hpp_source.html" target="_top" xlink:title="main.hpp">
<polygon fill="#ffffff" stroke="#000000" points="837.6077,-224.5 837.6077,-243.5 892.6077,-243.5 892.6077,-224.5 837.6077,-224.5"/>
<text text-anchor="middle" x="865.1077" y="-231.5" font-family="Lato" font-size="10.00" fill="#000000">main.hpp</text>
</a>
</g>
</g>
<!-- Node0&#45;&gt;Node24 -->
<g id="edge42" class="edge">
<title>Node0&#45;&gt;Node24</title>
<path fill="none" stroke="#191970" d="M818.8622,-280.2455C826.9725,-272.1352 838.7002,-260.4075 848.3158,-250.7919"/>
<polygon fill="#191970" stroke="#191970" points="850.8688,-253.1887 855.4651,-243.6427 845.9191,-248.2389 850.8688,-253.1887"/>
</g>
<!-- Node25 -->
<g id="node26" class="node">
<title>Node25</title>
<g id="a_node26"><a xlink:href="other_8hpp.html" target="_top" xlink:title="other.hpp">
<polygon fill="#ffffff" stroke="#000000" points="780.6077,-168.5 780.6077,-187.5 837.6077,-187.5 837.6077,-168.5 780.6077,-168.5"/>
<text text-anchor="middle" x="809.1077" y="-175.5" font-family="Lato" font-size="10.00" fill="#000000">other.hpp</text>
</a>
</g>
</g>
<!-- Node0&#45;&gt;Node25 -->
<g id="edge54" class="edge">
<title>Node0&#45;&gt;Node25</title>
<path fill="none" stroke="#191970" d="M809.1077,-280.4509C809.1077,-262.184 809.1077,-221.9553 809.1077,-197.6976"/>
<polygon fill="#191970" stroke="#191970" points="812.6078,-197.5249 809.1077,-187.5249 805.6078,-197.5249 812.6078,-197.5249"/>
</g>
<!-- Node26 -->
<g id="node27" class="node">
<title>Node26</title>
<g id="a_node27"><a xlink:href="window_8hpp.html" target="_top" xlink:title="Functions related to the main window. ">
<polygon fill="#ffffff" stroke="#000000" points="1034.1077,-168.5 1034.1077,-187.5 1102.1077,-187.5 1102.1077,-168.5 1034.1077,-168.5"/>
<text text-anchor="middle" x="1068.1077" y="-175.5" font-family="Lato" font-size="10.00" fill="#000000">window.hpp</text>
</a>
</g>
</g>
<!-- Node0&#45;&gt;Node26 -->
<g id="edge88" class="edge">
<title>Node0&#45;&gt;Node26</title>
<path fill="none" stroke="#191970" d="M840.2678,-286.6093C893.5037,-280.3127 999.131,-265.4734 1029.1077,-244 1045.1074,-232.5389 1055.636,-212.2967 1061.6756,-197.2421"/>
<polygon fill="#191970" stroke="#191970" points="1064.9739,-198.4135 1065.1517,-187.8201 1058.4066,-195.9905 1064.9739,-198.4135"/>
</g>
<!-- Node27 -->
<g id="node28" class="node">
<title>Node27</title>
<g id="a_node28"><a xlink:href="matrix_8hpp_source.html" target="_top" xlink:title="matrix.hpp">
<polygon fill="#ffffff" stroke="#000000" points="1419.1077,-56.5 1419.1077,-75.5 1481.1077,-75.5 1481.1077,-56.5 1419.1077,-56.5"/>
<text text-anchor="middle" x="1450.1077" y="-63.5" font-family="Lato" font-size="10.00" fill="#000000">matrix.hpp</text>
</a>
</g>
</g>
<!-- Node0&#45;&gt;Node27 -->
<g id="edge51" class="edge">
<title>Node0&#45;&gt;Node27</title>
<path fill="none" stroke="#191970" d="M840.3243,-288.7538C948.2457,-284.2505 1301.414,-267.82 1346.1077,-244 1407.759,-211.1423 1435.8572,-124.9092 1445.7272,-85.7966"/>
<polygon fill="#191970" stroke="#191970" points="1449.1738,-86.4313 1448.0863,-75.8924 1442.3643,-84.8092 1449.1738,-86.4313"/>
</g>
<!-- Node28 -->
<g id="node29" class="node">
<title>Node28</title>
<g id="a_node29"><a xlink:href="screen_8hpp.html" target="_top" xlink:title="screen.hpp">
<polygon fill="#ffffff" stroke="#000000" points="153.6077,-168.5 153.6077,-187.5 216.6077,-187.5 216.6077,-168.5 153.6077,-168.5"/>
<text text-anchor="middle" x="185.1077" y="-175.5" font-family="Lato" font-size="10.00" fill="#000000">screen.hpp</text>
</a>
</g>
</g>
<!-- Node0&#45;&gt;Node28 -->
<g id="edge55" class="edge">
<title>Node0&#45;&gt;Node28</title>
<path fill="none" stroke="#191970" d="M778.0524,-289.6817C660.731,-288.2057 248.8874,-280.4486 204.1077,-244 190.6959,-233.0834 186.3823,-213.3529 185.1627,-198.2989"/>
<polygon fill="#191970" stroke="#191970" points="188.6439,-197.7689 184.7337,-187.9221 181.6499,-198.0581 188.6439,-197.7689"/>
</g>
<!-- Node29 -->
<g id="node30" class="node">
<title>Node29</title>
<g id="a_node30"><a xlink:href="shapes_8hpp_source.html" target="_top" xlink:title="shapes.hpp">
<polygon fill="#ffffff" stroke="#000000" points="71.1077,-168.5 71.1077,-187.5 135.1077,-187.5 135.1077,-168.5 71.1077,-168.5"/>
<text text-anchor="middle" x="103.1077" y="-175.5" font-family="Lato" font-size="10.00" fill="#000000">shapes.hpp</text>
</a>
</g>
</g>
<!-- Node0&#45;&gt;Node29 -->
<g id="edge59" class="edge">
<title>Node0&#45;&gt;Node29</title>
<path fill="none" stroke="#191970" d="M777.7547,-288.7548C659.2317,-283.9013 242.445,-265.4566 187.1077,-244 160.0134,-233.4944 134.6179,-211.1241 118.9917,-195.3486"/>
<polygon fill="#191970" stroke="#191970" points="121.2002,-192.5947 111.7534,-187.7979 116.147,-197.4388 121.2002,-192.5947"/>
</g>
<!-- Node30 -->
<g id="node31" class="node">
<title>Node30</title>
<g id="a_node31"><a xlink:href="sound_8hpp_source.html" target="_top" xlink:title="sound.hpp">
<polygon fill="#ffffff" stroke="#000000" points="1248.1077,-168.5 1248.1077,-187.5 1308.1077,-187.5 1308.1077,-168.5 1248.1077,-168.5"/>
<text text-anchor="middle" x="1278.1077" y="-175.5" font-family="Lato" font-size="10.00" fill="#000000">sound.hpp</text>
</a>
</g>
</g>
<!-- Node0&#45;&gt;Node30 -->
<g id="edge63" class="edge">
<title>Node0&#45;&gt;Node30</title>
<path fill="none" stroke="#191970" d="M840.1276,-288.1584C932.3558,-282.4739 1200.5574,-264.3537 1234.1077,-244 1251.7098,-233.3215 1263.7589,-212.6066 1270.7377,-197.2194"/>
<polygon fill="#191970" stroke="#191970" points="1274.129,-198.1823 1274.7651,-187.6066 1267.6727,-195.4774 1274.129,-198.1823"/>
</g>
<!-- Node31 -->
<g id="node32" class="node">
<title>Node31</title>
<g id="a_node32"><a xlink:href="sprite_8hpp_source.html" target="_top" xlink:title="sprite.hpp">
<polygon fill="#ffffff" stroke="#000000" points="480.6077,-168.5 480.6077,-187.5 539.6077,-187.5 539.6077,-168.5 480.6077,-168.5"/>
<text text-anchor="middle" x="510.1077" y="-175.5" font-family="Lato" font-size="10.00" fill="#000000">sprite.hpp</text>
</a>
</g>
</g>
<!-- Node0&#45;&gt;Node31 -->
<g id="edge66" class="edge">
<title>Node0&#45;&gt;Node31</title>
<path fill="none" stroke="#191970" d="M777.8103,-286.5239C721.2166,-279.8288 604.4537,-264.0203 569.1077,-244 548.952,-232.5836 532.0788,-211.7329 521.6094,-196.5139"/>
<polygon fill="#191970" stroke="#191970" points="524.3645,-194.3333 515.9462,-187.9004 518.5155,-198.179 524.3645,-194.3333"/>
</g>
<!-- Node32 -->
<g id="node33" class="node">
<title>Node32</title>
<g id="a_node33"><a xlink:href="text_8hpp.html" target="_top" xlink:title="text.hpp">
<polygon fill="#ffffff" stroke="#000000" points="894.1077,-168.5 894.1077,-187.5 946.1077,-187.5 946.1077,-168.5 894.1077,-168.5"/>
<text text-anchor="middle" x="920.1077" y="-175.5" font-family="Lato" font-size="10.00" fill="#000000">text.hpp</text>
</a>
</g>
</g>
<!-- Node0&#45;&gt;Node32 -->
<g id="edge75" class="edge">
<title>Node0&#45;&gt;Node32</title>
<path fill="none" stroke="#191970" d="M840.1238,-281.6153C860.2167,-274.6617 885.4648,-262.8102 901.1077,-244 911.9363,-230.9789 916.5977,-212.0906 918.602,-197.8535"/>
<polygon fill="#191970" stroke="#191970" points="922.1117,-197.952 919.7068,-187.6337 915.1522,-197.1996 922.1117,-197.952"/>
</g>
<!-- Node33 -->
<g id="node34" class="node">
<title>Node33</title>
<g id="a_node34"><a xlink:href="time_8hpp_source.html" target="_top" xlink:title="time.hpp">
<polygon fill="#ffffff" stroke="#000000" points="1480.1077,-224.5 1480.1077,-243.5 1534.1077,-243.5 1534.1077,-224.5 1480.1077,-224.5"/>
<text text-anchor="middle" x="1507.1077" y="-231.5" font-family="Lato" font-size="10.00" fill="#000000">time.hpp</text>
</a>
</g>
</g>
<!-- Node0&#45;&gt;Node33 -->
<g id="edge81" class="edge">
<title>Node0&#45;&gt;Node33</title>
<path fill="none" stroke="#191970" d="M840.3244,-289.5584C934.8327,-287.8471 1225.9717,-279.8215 1464.1077,-244 1466.0404,-243.7093 1468.0148,-243.3772 1470.0032,-243.015"/>
<polygon fill="#191970" stroke="#191970" points="1470.8298,-246.4188 1479.9363,-241.0038 1469.4406,-239.558 1470.8298,-246.4188"/>
</g>
<!-- Node34 -->
<g id="node35" class="node">
<title>Node34</title>
<g id="a_node35"><a xlink:href="Video_8hpp_source.html" target="_top" xlink:title="Video.hpp">
<polygon fill="#ffffff" stroke="#000000" points="683.6077,-224.5 683.6077,-243.5 742.6077,-243.5 742.6077,-224.5 683.6077,-224.5"/>
<text text-anchor="middle" x="713.1077" y="-231.5" font-family="Lato" font-size="10.00" fill="#000000">Video.hpp</text>
</a>
</g>
</g>
<!-- Node0&#45;&gt;Node34 -->
<g id="edge84" class="edge">
<title>Node0&#45;&gt;Node34</title>
<path fill="none" stroke="#191970" d="M792.3858,-280.2455C777.5188,-271.5731 755.5612,-258.7645 738.522,-248.825"/>
<polygon fill="#191970" stroke="#191970" points="740.0394,-245.6582 729.638,-243.6427 736.5123,-251.7047 740.0394,-245.6582"/>
</g>
<!-- Node35 -->
<g id="node36" class="node">
<title>Node35</title>
<g id="a_node36"><a xlink:href="work_8hpp.html" target="_top" xlink:title="work.hpp">
<polygon fill="#ffffff" stroke="#000000" points="1246.1077,-112.5 1246.1077,-131.5 1302.1077,-131.5 1302.1077,-112.5 1246.1077,-112.5"/>
<text text-anchor="middle" x="1274.1077" y="-119.5" font-family="Lato" font-size="10.00" fill="#000000">work.hpp</text>
</a>
</g>
</g>
<!-- Node0&#45;&gt;Node35 -->
<g id="edge89" class="edge">
<title>Node0&#45;&gt;Node35</title>
<path fill="none" stroke="#191970" d="M840.2307,-289.4429C929.4215,-287.4382 1184.3236,-278.7387 1259.1077,-244 1291.605,-228.9044 1303.1055,-220.9831 1317.1077,-188 1324.8633,-169.7313 1310.0068,-150.965 1295.6832,-138.1364"/>
<polygon fill="#191970" stroke="#191970" points="1297.8468,-135.3833 1287.9274,-131.6611 1293.3606,-140.7568 1297.8468,-135.3833"/>
</g>
<!-- Node2 -->
<g id="node3" class="node">
<title>Node2</title>
<g id="a_node3"><a xlink:href="dll_8hpp_source.html" target="_top" xlink:title="dll.hpp">
<polygon fill="#ffffff" stroke="#000000" points="929.1077,-.5 929.1077,-19.5 973.1077,-19.5 973.1077,-.5 929.1077,-.5"/>
<text text-anchor="middle" x="951.1077" y="-7.5" font-family="Lato" font-size="10.00" fill="#000000">dll.hpp</text>
</a>
</g>
</g>
<!-- Node1&#45;&gt;Node2 -->
<g id="edge2" class="edge">
<title>Node1&#45;&gt;Node2</title>
<path fill="none" stroke="#191970" d="M1340.7565,-112.3081C1322.805,-97.5524 1286.1846,-69.7228 1250.1077,-56 1201.6476,-37.5668 1050.0876,-20.2051 983.282,-13.2265"/>
<polygon fill="#191970" stroke="#191970" points="983.6233,-9.7432 973.3165,-12.197 982.9039,-16.7061 983.6233,-9.7432"/>
</g>
<!-- Node3 -->
<g id="node4" class="node">
<title>Node3</title>
<polygon fill="#ffffff" stroke="#bfbfbf" points="744.6077,-56.5 744.6077,-75.5 797.6077,-75.5 797.6077,-56.5 744.6077,-56.5"/>
<text text-anchor="middle" x="771.1077" y="-63.5" font-family="Lato" font-size="10.00" fill="#000000">memory</text>
</g>
<!-- Node1&#45;&gt;Node3 -->
<g id="edge3" class="edge">
<title>Node1&#45;&gt;Node3</title>
<path fill="none" stroke="#191970" d="M1320.4228,-113.7603C1317.2886,-113.0995 1314.1446,-112.4967 1311.1077,-112 1123.472,-81.3139 895.6005,-70.4106 807.9217,-67.1787"/>
<polygon fill="#191970" stroke="#191970" points="807.814,-63.6727 797.6954,-66.8134 807.5641,-70.6682 807.814,-63.6727"/>
</g>
<!-- Node4&#45;&gt;Node3 -->
<g id="edge8" class="edge">
<title>Node4&#45;&gt;Node3</title>
<path fill="none" stroke="#191970" d="M469.9156,-113.9169C541.6948,-102.4975 671.0749,-81.9143 734.3073,-71.8546"/>
<polygon fill="#191970" stroke="#191970" points="734.9055,-75.3035 744.2314,-70.2758 733.8057,-68.3905 734.9055,-75.3035"/>
</g>
<!-- Node5 -->
<g id="node6" class="node">
<title>Node5</title>
<g id="a_node6"><a xlink:href="Finally_8hpp_source.html" target="_top" xlink:title="Finally.hpp">
<polygon fill="#ffffff" stroke="#000000" points="457.1077,-56.5 457.1077,-75.5 519.1077,-75.5 519.1077,-56.5 457.1077,-56.5"/>
<text text-anchor="middle" x="488.1077" y="-63.5" font-family="Lato" font-size="10.00" fill="#000000">Finally.hpp</text>
</a>
</g>
</g>
<!-- Node4&#45;&gt;Node5 -->
<g id="edge5" class="edge">
<title>Node4&#45;&gt;Node5</title>
<path fill="none" stroke="#191970" d="M431.1266,-112.2455C441.3176,-103.9746 456.1439,-91.9416 468.1184,-82.2232"/>
<polygon fill="#191970" stroke="#191970" points="470.6676,-84.662 476.2266,-75.6427 466.2564,-79.2268 470.6676,-84.662"/>
</g>
<!-- Node5&#45;&gt;Node2 -->
<g id="edge6" class="edge">
<title>Node5&#45;&gt;Node2</title>
<path fill="none" stroke="#191970" d="M519.4939,-58.5671C524.0458,-57.6228 528.6862,-56.7323 533.1077,-56 675.9498,-32.3414 848.3338,-17.7324 918.7636,-12.3503"/>
<polygon fill="#191970" stroke="#191970" points="919.0779,-15.8366 928.7863,-11.5944 918.5514,-8.8564 919.0779,-15.8366"/>
</g>
<!-- Node6 -->
<g id="node7" class="node">
<title>Node6</title>
<polygon fill="#ffffff" stroke="#bfbfbf" points="458.6077,-.5 458.6077,-19.5 517.6077,-19.5 517.6077,-.5 458.6077,-.5"/>
<text text-anchor="middle" x="488.1077" y="-7.5" font-family="Lato" font-size="10.00" fill="#000000">functional</text>
</g>
<!-- Node5&#45;&gt;Node6 -->
<g id="edge7" class="edge">
<title>Node5&#45;&gt;Node6</title>
<path fill="none" stroke="#191970" d="M488.1077,-56.2455C488.1077,-48.9382 488.1077,-38.6944 488.1077,-29.7046"/>
<polygon fill="#191970" stroke="#191970" points="491.6078,-29.6426 488.1077,-19.6427 484.6078,-29.6427 491.6078,-29.6426"/>
</g>
<!-- Node8 -->
<g id="node9" class="node">
<title>Node8</title>
<g id="a_node9"><a xlink:href="Vec2_8hpp.html" target="_top" xlink:title="Vec2.hpp">
<polygon fill="#ffffff" stroke="#000000" points="165.1077,-112.5 165.1077,-131.5 221.1077,-131.5 221.1077,-112.5 165.1077,-112.5"/>
<text text-anchor="middle" x="193.1077" y="-119.5" font-family="Lato" font-size="10.00" fill="#000000">Vec2.hpp</text>
</a>
</g>
</g>
<!-- Node7&#45;&gt;Node8 -->
<g id="edge10" class="edge">
<title>Node7&#45;&gt;Node8</title>
<path fill="none" stroke="#191970" d="M243.16,-224.2486C240.3015,-211.0485 234.2928,-186.9651 225.1077,-168 220.3121,-158.0979 213.5084,-147.9673 207.4068,-139.7426"/>
<polygon fill="#191970" stroke="#191970" points="210.0633,-137.4557 201.1897,-131.6669 204.5166,-141.7258 210.0633,-137.4557"/>
</g>
<!-- Node8&#45;&gt;Node2 -->
<g id="edge11" class="edge">
<title>Node8&#45;&gt;Node2</title>
<path fill="none" stroke="#191970" d="M180.699,-112.3201C164.4885,-98.5546 139.9685,-73.1001 156.1077,-56 182.7235,-27.7997 773.4464,-13.6949 918.9455,-10.6411"/>
<polygon fill="#191970" stroke="#191970" points="919.0912,-14.139 929.0165,-10.4326 918.9462,-7.1405 919.0912,-14.139"/>
</g>
<!-- Node9 -->
<g id="node10" class="node">
<title>Node9</title>
<polygon fill="#ffffff" stroke="#bfbfbf" points="228.6077,-56.5 228.6077,-75.5 323.6077,-75.5 323.6077,-56.5 228.6077,-56.5"/>
<text text-anchor="middle" x="276.1077" y="-63.5" font-family="Lato" font-size="10.00" fill="#000000">boost/version.hpp</text>
</g>
<!-- Node8&#45;&gt;Node9 -->
<g id="edge12" class="edge">
<title>Node8&#45;&gt;Node9</title>
<path fill="none" stroke="#191970" d="M207.5652,-112.2455C220.181,-103.7337 238.7022,-91.2375 253.3123,-81.3801"/>
<polygon fill="#191970" stroke="#191970" points="255.4838,-84.1371 261.8159,-75.6427 251.5687,-78.3343 255.4838,-84.1371"/>
</g>
<!-- Node10 -->
<g id="node11" class="node">
<title>Node10</title>
<polygon fill="#ffffff" stroke="#bfbfbf" points="165.6077,-56.5 165.6077,-75.5 210.6077,-75.5 210.6077,-56.5 165.6077,-56.5"/>
<text text-anchor="middle" x="188.1077" y="-63.5" font-family="Lato" font-size="10.00" fill="#000000">iosfwd</text>
</g>
<!-- Node8&#45;&gt;Node10 -->
<g id="edge13" class="edge">
<title>Node8&#45;&gt;Node10</title>
<path fill="none" stroke="#191970" d="M192.2368,-112.2455C191.5844,-104.9382 190.6697,-94.6944 189.8671,-85.7046"/>
<polygon fill="#191970" stroke="#191970" points="193.3442,-85.2918 188.9687,-75.6427 186.372,-85.9143 193.3442,-85.2918"/>
</g>
<!-- Node11&#45;&gt;Node2 -->
<g id="edge15" class="edge">
<title>Node11&#45;&gt;Node2</title>
<path fill="none" stroke="#191970" d="M46.0848,-112.2652C51.2718,-97.1846 63.5279,-68.6025 85.1077,-56 121.769,-34.5901 766.2719,-15.1936 918.8947,-10.887"/>
<polygon fill="#191970" stroke="#191970" points="919.1204,-14.3821 929.0184,-10.6031 918.9242,-7.3849 919.1204,-14.3821"/>
</g>
<!-- Node12&#45;&gt;Node13 -->
<g id="edge17" class="edge">
<title>Node12&#45;&gt;Node13</title>
<path fill="none" stroke="#191970" d="M619.9661,-224.2455C614.2633,-216.4564 606.1178,-205.3308 599.2453,-195.9439"/>
<polygon fill="#191970" stroke="#191970" points="601.899,-193.6437 593.1676,-187.6427 596.251,-197.7789 601.899,-193.6437"/>
</g>
<!-- Node13&#45;&gt;Node2 -->
<g id="edge18" class="edge">
<title>Node13&#45;&gt;Node2</title>
<path fill="none" stroke="#191970" d="M592.0106,-168.0644C600.6016,-154.2183 617.6621,-128.9189 637.1077,-112 720.5285,-39.4187 856.5366,-18.305 918.5009,-12.3066"/>
<polygon fill="#191970" stroke="#191970" points="919.1858,-15.7594 928.834,-11.3818 918.5617,-8.7873 919.1858,-15.7594"/>
</g>
<!-- Node13&#45;&gt;Node3 -->
<g id="edge21" class="edge">
<title>Node13&#45;&gt;Node3</title>
<path fill="none" stroke="#191970" d="M596.4819,-168.3366C611.6046,-154.5912 640.9745,-129.161 669.1077,-112 690.2005,-99.1336 715.5117,-87.6975 735.6432,-79.4463"/>
<polygon fill="#191970" stroke="#191970" points="737.0945,-82.6352 745.0687,-75.6593 734.4847,-76.1399 737.0945,-82.6352"/>
</g>
<!-- Node13&#45;&gt;Node8 -->
<g id="edge19" class="edge">
<title>Node13&#45;&gt;Node8</title>
<path fill="none" stroke="#191970" d="M557.9797,-170.1641C554.6663,-169.3701 551.3217,-168.6268 548.1077,-168 424.9588,-143.9842 392.5144,-148.2913 268.1077,-132 256.1198,-130.4302 243.0573,-128.6965 231.2425,-127.1198"/>
<polygon fill="#191970" stroke="#191970" points="231.615,-123.6385 221.2394,-125.7826 230.6875,-130.5768 231.615,-123.6385"/>
</g>
<!-- Node14 -->
<g id="node15" class="node">
<title>Node14</title>
<polygon fill="#ffffff" stroke="#bfbfbf" points="678.1077,-112.5 678.1077,-131.5 722.1077,-131.5 722.1077,-112.5 678.1077,-112.5"/>
<text text-anchor="middle" x="700.1077" y="-119.5" font-family="Lato" font-size="10.00" fill="#000000">vector</text>
</g>
<!-- Node13&#45;&gt;Node14 -->
<g id="edge20" class="edge">
<title>Node13&#45;&gt;Node14</title>
<path fill="none" stroke="#191970" d="M605.705,-168.3733C623.8409,-159.4644 651.0212,-146.1127 671.5664,-136.0203"/>
<polygon fill="#191970" stroke="#191970" points="673.3338,-139.0517 680.7662,-131.5011 670.2474,-132.7688 673.3338,-139.0517"/>
</g>
<!-- Node15&#45;&gt;Node16 -->
<g id="edge23" class="edge">
<title>Node15&#45;&gt;Node16</title>
<path fill="none" stroke="#191970" d="M1018.6442,-224.3733C1046.1279,-215.1016 1087.8763,-201.0178 1118.1529,-190.804"/>
<polygon fill="#191970" stroke="#191970" points="1119.5871,-194.0141 1127.9437,-187.5011 1117.3495,-187.3813 1119.5871,-194.0141"/>
</g>
<!-- Node18 -->
<g id="node19" class="node">
<title>Node18</title>
<polygon fill="#ffffff" stroke="#bfbfbf" points="964.6077,-168.5 964.6077,-187.5 1015.6077,-187.5 1015.6077,-168.5 964.6077,-168.5"/>
<text text-anchor="middle" x="990.1077" y="-175.5" font-family="Lato" font-size="10.00" fill="#000000">sstream</text>
</g>
<!-- Node15&#45;&gt;Node18 -->
<g id="edge26" class="edge">
<title>Node15&#45;&gt;Node18</title>
<path fill="none" stroke="#191970" d="M990.1077,-224.2455C990.1077,-216.9382 990.1077,-206.6944 990.1077,-197.7046"/>
<polygon fill="#191970" stroke="#191970" points="993.6078,-197.6426 990.1077,-187.6427 986.6078,-197.6427 993.6078,-197.6426"/>
</g>
<!-- Node16&#45;&gt;Node2 -->
<g id="edge24" class="edge">
<title>Node16&#45;&gt;Node2</title>
<path fill="none" stroke="#191970" d="M1147.1317,-168.4617C1126.6626,-146.985 1074.4765,-93.7648 1025.1077,-56 1010.0281,-44.4648 991.9479,-33.1836 977.4338,-24.6801"/>
<polygon fill="#191970" stroke="#191970" points="978.89,-21.4797 968.4783,-19.5183 975.3944,-27.5444 978.89,-21.4797"/>
</g>
<!-- Node17 -->
<g id="node18" class="node">
<title>Node17</title>
<polygon fill="#ffffff" stroke="#bfbfbf" points="892.6077,-112.5 892.6077,-131.5 933.6077,-131.5 933.6077,-112.5 892.6077,-112.5"/>
<text text-anchor="middle" x="913.1077" y="-119.5" font-family="Lato" font-size="10.00" fill="#000000">string</text>
</g>
<!-- Node16&#45;&gt;Node17 -->
<g id="edge25" class="edge">
<title>Node16&#45;&gt;Node17</title>
<path fill="none" stroke="#191970" d="M1119.9906,-169.6767C1072.1326,-158.6477 988.537,-139.3829 943.6575,-129.0403"/>
<polygon fill="#191970" stroke="#191970" points="944.1792,-125.5688 933.6486,-126.7337 942.6072,-132.39 944.1792,-125.5688"/>
</g>
<!-- Node19&#45;&gt;Node2 -->
<g id="edge29" class="edge">
<title>Node19&#45;&gt;Node2</title>
<path fill="none" stroke="#191970" d="M334.1891,-112.4407C353.4619,-103.2276 383.359,-88.834 409.1077,-76 426.5418,-67.3103 429.4004,-61.4306 448.1077,-56 537.1933,-30.1394 822.5822,-15.6051 918.9624,-11.339"/>
<polygon fill="#191970" stroke="#191970" points="919.1462,-14.8344 928.9844,-10.9024 918.8415,-7.841 919.1462,-14.8344"/>
</g>
<!-- Node19&#45;&gt;Node20 -->
<g id="edge28" class="edge">
<title>Node19&#45;&gt;Node20</title>
<path fill="none" stroke="#191970" d="M324.0364,-112.2455C332.2915,-104.1352 344.2287,-92.4075 354.016,-82.7919"/>
<polygon fill="#191970" stroke="#191970" points="356.6124,-85.1476 361.2929,-75.6427 351.7066,-80.1542 356.6124,-85.1476"/>
</g>
<!-- Node21&#45;&gt;Node2 -->
<g id="edge32" class="edge">
<title>Node21&#45;&gt;Node2</title>
<path fill="none" stroke="#191970" d="M716.4141,-168.4553C733.9092,-159.5957 760.2236,-145.7403 782.1077,-132 837.8535,-96.9992 899.7027,-50.1435 930.8376,-25.9504"/>
<polygon fill="#191970" stroke="#191970" points="933.0442,-28.6681 938.7742,-19.7564 928.7374,-23.1497 933.0442,-28.6681"/>
</g>
<!-- Node21&#45;&gt;Node3 -->
<g id="edge34" class="edge">
<title>Node21&#45;&gt;Node3</title>
<path fill="none" stroke="#191970" d="M720.3368,-168.3512C735.4496,-160.7869 754.1403,-148.7266 764.1077,-132 772.3103,-118.2351 773.667,-99.9494 773.1949,-86.1162"/>
<polygon fill="#191970" stroke="#191970" points="776.6591,-85.4756 772.4783,-75.7406 769.6757,-85.958 776.6591,-85.4756"/>
</g>
<!-- Node21&#45;&gt;Node8 -->
<g id="edge33" class="edge">
<title>Node21&#45;&gt;Node8</title>
<path fill="none" stroke="#191970" d="M670.4183,-174.1752C656.3569,-172.2153 638.8144,-169.8571 623.1077,-168 465.6178,-149.3786 425.6141,-150.482 268.1077,-132 256.0998,-130.591 243.0317,-128.9025 231.218,-127.3177"/>
<polygon fill="#191970" stroke="#191970" points="231.5969,-123.8371 221.2172,-125.9613 230.6561,-130.7736 231.5969,-123.8371"/>
</g>
<!-- Node21&#45;&gt;Node11 -->
<g id="edge31" class="edge">
<title>Node21&#45;&gt;Node11</title>
<path fill="none" stroke="#191970" d="M670.4358,-174.0193C656.3792,-172.0168 638.8357,-169.6675 623.1077,-168 416.0966,-146.052 363.5693,-149.1755 156.1077,-132 131.1439,-129.9333 103.093,-127.4518 81.1844,-125.4778"/>
<polygon fill="#191970" stroke="#191970" points="81.2377,-121.9684 70.9631,-124.5536 80.6073,-128.94 81.2377,-121.9684"/>
</g>
<!-- Node21&#45;&gt;Node17 -->
<g id="edge35" class="edge">
<title>Node21&#45;&gt;Node17</title>
<path fill="none" stroke="#191970" d="M724.0275,-171.0208C764.3555,-160.5654 840.2281,-140.8947 882.5706,-129.917"/>
<polygon fill="#191970" stroke="#191970" points="883.5201,-133.2867 892.3217,-127.389 881.7633,-126.5107 883.5201,-133.2867"/>
</g>
<!-- Node22&#45;&gt;Node2 -->
<g id="edge37" class="edge">
<title>Node22&#45;&gt;Node2</title>
<path fill="none" stroke="#191970" d="M1314.8799,-58.2151C1310.2357,-57.4388 1305.5766,-56.6854 1301.1077,-56 1184.5278,-38.1212 1045.4341,-21.1276 983.5563,-13.7919"/>
<polygon fill="#191970" stroke="#191970" points="983.6088,-10.2739 973.2673,-12.5769 982.7878,-17.2256 983.6088,-10.2739"/>
</g>
<!-- Node23&#45;&gt;Node2 -->
<g id="edge41" class="edge">
<title>Node23&#45;&gt;Node2</title>
<path fill="none" stroke="#191970" d="M1163.2151,-112.3008C1158.378,-97.7925 1147.2451,-70.5885 1128.1077,-56 1105.4914,-38.7595 1027.8564,-23.1229 983.277,-15.2875"/>
<polygon fill="#191970" stroke="#191970" points="983.6874,-11.8067 973.2381,-13.5567 982.498,-18.7049 983.6874,-11.8067"/>
</g>
<!-- Node23&#45;&gt;Node3 -->
<g id="edge40" class="edge">
<title>Node23&#45;&gt;Node3</title>
<path fill="none" stroke="#191970" d="M1142.5816,-118.6646C1076.379,-109.279 888.1075,-82.5873 807.9591,-71.2245"/>
<polygon fill="#191970" stroke="#191970" points="808.2307,-67.7281 797.8383,-69.7897 807.248,-74.6588 808.2307,-67.7281"/>
</g>
<!-- Node24&#45;&gt;Node5 -->
<g id="edge43" class="edge">
<title>Node24&#45;&gt;Node5</title>
<path fill="none" stroke="#191970" d="M865.9503,-224.0744C867.5702,-210.2402 872.1956,-184.9548 885.1077,-168 906.6245,-139.7464 965.9205,-138.3474 942.1077,-112 914.6683,-81.6399 635.7759,-70.3221 529.2046,-67.0855"/>
<polygon fill="#191970" stroke="#191970" points="529.246,-63.5853 519.1471,-66.7886 529.0395,-70.5822 529.246,-63.5853"/>
</g>
<!-- Node24&#45;&gt;Node25 -->
<g id="edge44" class="edge">
<title>Node24&#45;&gt;Node25</title>
<path fill="none" stroke="#191970" d="M855.3533,-224.2455C847.243,-216.1352 835.5152,-204.4075 825.8997,-194.7919"/>
<polygon fill="#191970" stroke="#191970" points="828.2964,-192.2389 818.7504,-187.6427 823.3466,-197.1887 828.2964,-192.2389"/>
</g>
<!-- Node24&#45;&gt;Node26 -->
<g id="edge48" class="edge">
<title>Node24&#45;&gt;Node26</title>
<path fill="none" stroke="#191970" d="M892.9084,-226.3309C926.7434,-216.997 984.2846,-201.1236 1024.1461,-190.1274"/>
<polygon fill="#191970" stroke="#191970" points="1025.1651,-193.4771 1033.8742,-187.4437 1023.3035,-186.7291 1025.1651,-193.4771"/>
</g>
<!-- Node25&#45;&gt;Node2 -->
<g id="edge47" class="edge">
<title>Node25&#45;&gt;Node2</title>
<path fill="none" stroke="#191970" d="M817.1491,-168.4862C840.0819,-141.3545 906.0736,-63.2798 936.0138,-27.8576"/>
<polygon fill="#191970" stroke="#191970" points="939.0185,-29.7246 942.8008,-19.8279 933.6724,-25.2058 939.0185,-29.7246"/>
</g>
<!-- Node25&#45;&gt;Node14 -->
<g id="edge46" class="edge">
<title>Node25&#45;&gt;Node14</title>
<path fill="none" stroke="#191970" d="M790.1214,-168.2455C772.9285,-159.4125 747.384,-146.2887 727.8945,-136.2758"/>
<polygon fill="#191970" stroke="#191970" points="729.3707,-133.0993 718.8765,-131.6427 726.1719,-139.3257 729.3707,-133.0993"/>
</g>
<!-- Node25&#45;&gt;Node17 -->
<g id="edge45" class="edge">
<title>Node25&#45;&gt;Node17</title>
<path fill="none" stroke="#191970" d="M827.2232,-168.2455C843.5528,-159.4527 867.7787,-146.4079 886.3416,-136.4125"/>
<polygon fill="#191970" stroke="#191970" points="888.0546,-139.4654 895.1999,-131.6427 884.7358,-133.3021 888.0546,-139.4654"/>
</g>
<!-- Node26&#45;&gt;Node2 -->
<g id="edge50" class="edge">
<title>Node26&#45;&gt;Node2</title>
<path fill="none" stroke="#191970" d="M1064.4057,-168.4496C1055.7885,-146.9481 1032.8402,-93.6805 1003.1077,-56 994.3582,-44.9115 982.7226,-34.3356 972.6767,-26.1266"/>
<polygon fill="#191970" stroke="#191970" points="974.7255,-23.2847 964.7103,-19.8285 970.3842,-28.776 974.7255,-23.2847"/>
</g>
<!-- Node26&#45;&gt;Node17 -->
<g id="edge49" class="edge">
<title>Node26&#45;&gt;Node17</title>
<path fill="none" stroke="#191970" d="M1041.4623,-168.3733C1014.2079,-158.5265 971.9305,-143.2521 943.4161,-132.9501"/>
<polygon fill="#191970" stroke="#191970" points="944.5457,-129.6368 933.9514,-129.5306 942.1671,-136.2204 944.5457,-129.6368"/>
</g>
<!-- Node27&#45;&gt;Node2 -->
<g id="edge52" class="edge">
<title>Node27&#45;&gt;Node2</title>
<path fill="none" stroke="#191970" d="M1418.7568,-57.7054C1415.8444,-57.0732 1412.9285,-56.4913 1410.1077,-56 1251.4344,-28.3653 1058.7955,-15.7608 983.4804,-11.6261"/>
<polygon fill="#191970" stroke="#191970" points="983.4108,-8.1174 973.2377,-11.0767 983.0359,-15.1074 983.4108,-8.1174"/>
</g>
<!-- Node28&#45;&gt;Node2 -->
<g id="edge56" class="edge">
<title>Node28&#45;&gt;Node2</title>
<path fill="none" stroke="#191970" d="M174.024,-168.3055C165.1477,-159.7625 153.3449,-146.4539 148.1077,-132 136.5999,-100.2399 123.9134,-80.5593 147.1077,-56 174.033,-27.4902 771.4371,-13.6184 918.5817,-10.627"/>
<polygon fill="#191970" stroke="#191970" points="918.8389,-14.1226 928.7667,-10.4228 918.6985,-7.124 918.8389,-14.1226"/>
</g>
<!-- Node28&#45;&gt;Node8 -->
<g id="edge58" class="edge">
<title>Node28&#45;&gt;Node8</title>
<path fill="none" stroke="#191970" d="M186.5012,-168.2455C187.5451,-160.9382 189.0085,-150.6944 190.2928,-141.7046"/>
<polygon fill="#191970" stroke="#191970" points="193.7807,-142.0372 191.7302,-131.6427 186.8511,-141.0472 193.7807,-142.0372"/>
</g>
<!-- Node28&#45;&gt;Node20 -->
<g id="edge57" class="edge">
<title>Node28&#45;&gt;Node20</title>
<path fill="none" stroke="#191970" d="M174.7486,-168.1592C161.5442,-154.4257 142.0215,-129.2592 156.1077,-112 204.6196,-52.5608 250.5714,-90.662 331.3126,-75.8711"/>
<polygon fill="#191970" stroke="#191970" points="332.252,-79.2509 341.3341,-73.7951 330.832,-72.3965 332.252,-79.2509"/>
</g>
<!-- Node29&#45;&gt;Node2 -->
<g id="edge60" class="edge">
<title>Node29&#45;&gt;Node2</title>
<path fill="none" stroke="#191970" d="M70.9496,-172.0648C48.5528,-166.0739 20.2554,-154.3671 6.1077,-132 -18.8282,-92.577 44.3187,-63.9131 62.1077,-56 101.9685,-38.2687 763.3107,-16.0241 918.6371,-11.0273"/>
<polygon fill="#191970" stroke="#191970" points="919.0478,-14.516 928.9307,-10.6976 918.8237,-7.5196 919.0478,-14.516"/>
</g>
<!-- Node29&#45;&gt;Node8 -->
<g id="edge62" class="edge">
<title>Node29&#45;&gt;Node8</title>
<path fill="none" stroke="#191970" d="M118.7845,-168.2455C132.5933,-159.6534 152.927,-147.0014 168.837,-137.1018"/>
<polygon fill="#191970" stroke="#191970" points="170.9691,-139.8974 177.6106,-131.6427 167.2709,-133.954 170.9691,-139.8974"/>
</g>
<!-- Node29&#45;&gt;Node11 -->
<g id="edge61" class="edge">
<title>Node29&#45;&gt;Node11</title>
<path fill="none" stroke="#191970" d="M92.6565,-168.2455C83.8809,-160.0549 71.1523,-148.1749 60.7937,-138.5069"/>
<polygon fill="#191970" stroke="#191970" points="63.1379,-135.9072 53.4392,-131.6427 58.3616,-141.0246 63.1379,-135.9072"/>
</g>
<!-- Node30&#45;&gt;Node2 -->
<g id="edge64" class="edge">
<title>Node30&#45;&gt;Node2</title>
<path fill="none" stroke="#191970" d="M1269.3374,-168.3363C1245.4362,-142.2105 1179.0774,-71.1239 1151.1077,-56 1096.7617,-26.6138 1024.2753,-15.9321 983.159,-12.0984"/>
<polygon fill="#191970" stroke="#191970" points="983.429,-8.6088 973.1674,-11.2451 982.8333,-15.5834 983.429,-8.6088"/>
</g>
<!-- Node30&#45;&gt;Node17 -->
<g id="edge65" class="edge">
<title>Node30&#45;&gt;Node17</title>
<path fill="none" stroke="#191970" d="M1247.9277,-173.3696C1179.5105,-162.8728 1013.2065,-137.3576 944.0597,-126.7488"/>
<polygon fill="#191970" stroke="#191970" points="944.2412,-123.2358 933.8261,-125.1787 943.1796,-130.1548 944.2412,-123.2358"/>
</g>
<!-- Node31&#45;&gt;Node2 -->
<g id="edge74" class="edge">
<title>Node31&#45;&gt;Node2</title>
<path fill="none" stroke="#191970" d="M521.4008,-168.2785C537.1709,-154.9031 566.9179,-130.3937 594.1077,-112 635.3391,-84.1074 644.3348,-73.0387 691.1077,-56 769.7562,-27.3496 868.4892,-16.1673 918.6401,-12.1103"/>
<polygon fill="#191970" stroke="#191970" points="919.1637,-15.5805 928.8677,-11.3282 918.6299,-8.6009 919.1637,-15.5805"/>
</g>
<!-- Node31&#45;&gt;Node3 -->
<g id="edge71" class="edge">
<title>Node31&#45;&gt;Node3</title>
<path fill="none" stroke="#191970" d="M526.5695,-168.4352C550.4243,-154.8098 596.2272,-129.5243 637.1077,-112 669.3818,-98.1651 707.3321,-85.4552 734.591,-76.918"/>
<polygon fill="#191970" stroke="#191970" points="735.9628,-80.1573 744.4806,-73.8567 733.8929,-73.4703 735.9628,-80.1573"/>
</g>
<!-- Node31&#45;&gt;Node4 -->
<g id="edge68" class="edge">
<title>Node31&#45;&gt;Node4</title>
<path fill="none" stroke="#191970" d="M494.2567,-168.2455C480.2945,-159.6534 459.7349,-147.0014 443.6482,-137.1018"/>
<polygon fill="#191970" stroke="#191970" points="445.128,-133.9029 434.7771,-131.6427 441.4593,-139.8645 445.128,-133.9029"/>
</g>
<!-- Node31&#45;&gt;Node5 -->
<g id="edge67" class="edge">
<title>Node31&#45;&gt;Node5</title>
<path fill="none" stroke="#191970" d="M508.232,-168.4509C504.6276,-150.1013 496.6702,-109.5908 491.9124,-85.3693"/>
<polygon fill="#191970" stroke="#191970" points="495.3406,-84.6627 489.9787,-75.5249 488.4719,-86.012 495.3406,-84.6627"/>
</g>
<!-- Node31&#45;&gt;Node8 -->
<g id="edge69" class="edge">
<title>Node31&#45;&gt;Node8</title>
<path fill="none" stroke="#191970" d="M480.5698,-172.7819C422.9136,-162.5966 295.4381,-140.0773 231.3981,-128.7642"/>
<polygon fill="#191970" stroke="#191970" points="231.772,-125.2762 221.3155,-126.9831 230.5542,-132.1694 231.772,-125.2762"/>
</g>
<!-- Node31&#45;&gt;Node14 -->
<g id="edge73" class="edge">
<title>Node31&#45;&gt;Node14</title>
<path fill="none" stroke="#191970" d="M539.7952,-169.25C574.6577,-158.9747 632.2644,-141.9959 668.1005,-131.4337"/>
<polygon fill="#191970" stroke="#191970" points="669.4311,-134.6905 678.0337,-128.506 667.4521,-127.976 669.4311,-134.6905"/>
</g>
<!-- Node31&#45;&gt;Node17 -->
<g id="edge72" class="edge">
<title>Node31&#45;&gt;Node17</title>
<path fill="none" stroke="#191970" d="M539.8318,-169.9695C542.9519,-169.2492 546.0866,-168.5759 549.1077,-168 671.5455,-144.6616 819.4801,-130.1254 882.397,-124.571"/>
<polygon fill="#191970" stroke="#191970" points="882.7824,-128.0507 892.4414,-123.6972 882.1757,-121.0771 882.7824,-128.0507"/>
</g>
<!-- Node31&#45;&gt;Node19 -->
<g id="edge70" class="edge">
<title>Node31&#45;&gt;Node19</title>
<path fill="none" stroke="#191970" d="M480.3396,-169.4948C447.6451,-160.1535 394.8367,-145.0654 357.5261,-134.4053"/>
<polygon fill="#191970" stroke="#191970" points="358.02,-130.9064 347.4432,-131.5244 356.0969,-137.637 358.02,-130.9064"/>
</g>
<!-- Node32&#45;&gt;Node2 -->
<g id="edge76" class="edge">
<title>Node32&#45;&gt;Node2</title>
<path fill="none" stroke="#191970" d="M946.3368,-169.0694C962.9827,-161.8788 983.1922,-149.9682 993.1077,-132 1012.2897,-97.24 984.7805,-52.1345 966.0366,-27.6691"/>
<polygon fill="#191970" stroke="#191970" points="968.6054,-25.2769 959.6303,-19.6467 963.1355,-29.645 968.6054,-25.2769"/>
</g>
<!-- Node32&#45;&gt;Node3 -->
<g id="edge78" class="edge">
<title>Node32&#45;&gt;Node3</title>
<path fill="none" stroke="#191970" d="M938.6932,-168.3063C960.7049,-155.5673 992.4477,-132.4128 976.1077,-112 955.4327,-86.1716 861.1204,-73.8497 807.9141,-68.8619"/>
<polygon fill="#191970" stroke="#191970" points="808.1274,-65.3671 797.8549,-67.9603 807.5024,-72.3391 808.1274,-65.3671"/>
</g>
<!-- Node32&#45;&gt;Node14 -->
<g id="edge80" class="edge">
<title>Node32&#45;&gt;Node14</title>
<path fill="none" stroke="#191970" d="M894.0069,-171.3562C853.544,-161.0565 775.7915,-141.265 732.0397,-130.1281"/>
<polygon fill="#191970" stroke="#191970" points="732.7638,-126.7009 722.2095,-127.6259 731.037,-133.4846 732.7638,-126.7009"/>
</g>
<!-- Node32&#45;&gt;Node17 -->
<g id="edge79" class="edge">
<title>Node32&#45;&gt;Node17</title>
<path fill="none" stroke="#191970" d="M918.8884,-168.2455C917.975,-160.9382 916.6945,-150.6944 915.5708,-141.7046"/>
<polygon fill="#191970" stroke="#191970" points="919.0265,-141.1313 914.3131,-131.6427 912.0805,-141.9996 919.0265,-141.1313"/>
</g>
<!-- Node32&#45;&gt;Node19 -->
<g id="edge77" class="edge">
<title>Node32&#45;&gt;Node19</title>
<path fill="none" stroke="#191970" d="M893.7829,-174.0483C879.6696,-172.0294 861.9672,-169.6562 846.1077,-168 633.514,-145.7985 575.571,-163.0831 360.8754,-132.0869"/>
<polygon fill="#191970" stroke="#191970" points="361.2652,-128.6068 350.864,-130.6232 360.2525,-135.5331 361.2652,-128.6068"/>
</g>
<!-- Node33&#45;&gt;Node2 -->
<g id="edge82" class="edge">
<title>Node33&#45;&gt;Node2</title>
<path fill="none" stroke="#191970" d="M1509.9187,-224.136C1517.8434,-193.9868 1536.8778,-102.301 1490.1077,-56 1454.017,-20.2712 1094.1343,-12.0795 983.3751,-10.398"/>
<polygon fill="#191970" stroke="#191970" points="983.2096,-6.8953 973.1602,-10.2509 983.1088,-13.8946 983.2096,-6.8953"/>
</g>
<!-- Node34&#45;&gt;Node3 -->
<g id="edge86" class="edge">
<title>Node34&#45;&gt;Node3</title>
<path fill="none" stroke="#191970" d="M696.1084,-224.4788C676.3312,-212.1098 647.9624,-189.5423 661.1077,-168 679.3307,-138.1366 705.5214,-155.8587 731.1077,-132 745.3013,-118.7649 756.2385,-99.3782 763.0606,-85.038"/>
<polygon fill="#191970" stroke="#191970" points="766.3742,-86.2034 767.2885,-75.6481 759.9914,-83.3294 766.3742,-86.2034"/>
</g>
<!-- Node34&#45;&gt;Node17 -->
<g id="edge87" class="edge">
<title>Node34&#45;&gt;Node17</title>
<path fill="none" stroke="#191970" d="M719.0297,-224.4668C728.381,-210.1752 747.9091,-183.2505 771.1077,-168 805.5868,-145.3339 852.1091,-133.068 882.355,-127.0335"/>
<polygon fill="#191970" stroke="#191970" points="883.1502,-130.4453 892.328,-125.152 881.8525,-123.5666 883.1502,-130.4453"/>
</g>
<!-- Node34&#45;&gt;Node31 -->
<g id="edge85" class="edge">
<title>Node34&#45;&gt;Node31</title>
<path fill="none" stroke="#191970" d="M683.5898,-225.8571C648.1844,-216.0901 588.7041,-199.6817 549.4293,-188.8473"/>
<polygon fill="#191970" stroke="#191970" points="550.232,-185.4381 539.6613,-186.1527 548.3705,-192.186 550.232,-185.4381"/>
</g>
<!-- Node35&#45;&gt;Node2 -->
<g id="edge90" class="edge">
<title>Node35&#45;&gt;Node2</title>
<path fill="none" stroke="#191970" d="M1269.745,-112.0428C1262.6811,-97.1974 1247.2608,-69.5592 1225.1077,-56 1184.953,-31.4225 1046.7197,-17.5804 983.3309,-12.3922"/>
<polygon fill="#191970" stroke="#191970" points="983.3609,-8.8836 973.1144,-11.5783 982.8049,-15.8615 983.3609,-8.8836"/>
</g>
<!-- Node35&#45;&gt;Node3 -->
<g id="edge91" class="edge">
<title>Node35&#45;&gt;Node3</title>
<path fill="none" stroke="#191970" d="M1245.9754,-118.1381C1231.6547,-116.2129 1213.9645,-113.897 1198.1077,-112 1053.8071,-94.7363 881.7089,-77.0948 807.794,-69.6586"/>
<polygon fill="#191970" stroke="#191970" points="807.9156,-66.1533 797.616,-68.6368 807.2163,-73.1183 807.9156,-66.1533"/>
</g>
</g>
</svg>
