<?xml version="1.0" encoding="UTF-8" standalone="no"?>
<!DOCTYPE svg PUBLIC "-//W3C//DTD SVG 1.1//EN"
 "http://www.w3.org/Graphics/SVG/1.1/DTD/svg11.dtd">
<!-- Generated by graphviz version 2.40.1 (0)
 -->
<!-- Title: jngl/all.hpp Pages: 1 -->
<svg width="1826pt" height="308pt"
 viewBox="0.00 0.00 1826.00 308.00" xmlns="http://www.w3.org/2000/svg" xmlns:xlink="http://www.w3.org/1999/xlink">
<g id="graph0" class="graph" transform="scale(1 1) rotate(0) translate(4 304)">
<title>jngl/all.hpp</title>
<polygon fill="#ffffff" stroke="transparent" points="-4,4 -4,-304 1822,-304 1822,4 -4,4"/>
<!-- Node0 -->
<g id="node1" class="node">
<title>Node0</title>
<g id="a_node1"><a xlink:title="Includes all JNGL headers.">
<polygon fill="#bfbfbf" stroke="#000000" points="930,-280.5 930,-299.5 1019,-299.5 1019,-280.5 930,-280.5"/>
<text text-anchor="middle" x="974.5" y="-287.5" font-family="'Consolas',monospace" font-size="10.00" fill="#000000">jngl/all.hpp</text>
</a>
</g>
</g>
<!-- Node1 -->
<g id="node2" class="node">
<title>Node1</title>
<g id="a_node2"><a xlink:href="App_8hpp.html" target="_top" xlink:title=" ">
<polygon fill="#ffffff" stroke="#000000" points="294,-168.5 294,-187.5 353,-187.5 353,-168.5 294,-168.5"/>
<text text-anchor="middle" x="323.5" y="-175.5" font-family="'Consolas',monospace" font-size="10.00" fill="#000000">App.hpp</text>
</a>
</g>
</g>
<!-- Node0&#45;&gt;Node1 -->
<g id="edge1" class="edge">
<title>Node0&#45;&gt;Node1</title>
<path fill="none" stroke="#191970" d="M929.6373,-287.8298C822.8214,-282.3543 555.9064,-266.7733 469.5,-244 425.0338,-232.2805 377.1145,-208.1751 348.744,-192.5672"/>
<polygon fill="#191970" stroke="#191970" points="350.3426,-189.4511 339.9054,-187.63 346.9289,-195.5623 350.3426,-189.4511"/>
</g>
<!-- Node4 -->
<g id="node5" class="node">
<title>Node4</title>
<g id="a_node5"><a xlink:href="Color_8hpp.html" target="_top" xlink:title=" ">
<polygon fill="#ffffff" stroke="#000000" points="1409,-168.5 1409,-187.5 1480,-187.5 1480,-168.5 1409,-168.5"/>
<text text-anchor="middle" x="1444.5" y="-175.5" font-family="'Consolas',monospace" font-size="10.00" fill="#000000">Color.hpp</text>
</a>
</g>
</g>
<!-- Node0&#45;&gt;Node4 -->
<g id="edge4" class="edge">
<title>Node0&#45;&gt;Node4</title>
<path fill="none" stroke="#191970" d="M1019.1547,-286.247C1100.4857,-279.0651 1269.5373,-262.4429 1325.5,-244 1335.3024,-240.7696 1387.1722,-211.1957 1419.11,-192.7486"/>
<polygon fill="#191970" stroke="#191970" points="1421.0235,-195.6851 1427.9256,-187.647 1417.5173,-189.6264 1421.0235,-195.6851"/>
</g>
<!-- Node5 -->
<g id="node6" class="node">
<title>Node5</title>
<g id="a_node6"><a xlink:href="Controller_8hpp.html" target="_top" xlink:title=" ">
<polygon fill="#ffffff" stroke="#000000" points="831,-224.5 831,-243.5 932,-243.5 932,-224.5 831,-224.5"/>
<text text-anchor="middle" x="881.5" y="-231.5" font-family="'Consolas',monospace" font-size="10.00" fill="#000000">Controller.hpp</text>
</a>
</g>
</g>
<!-- Node0&#45;&gt;Node5 -->
<g id="edge5" class="edge">
<title>Node0&#45;&gt;Node5</title>
<path fill="none" stroke="#191970" d="M958.3006,-280.2455C943.8982,-271.5731 922.6268,-258.7645 906.1201,-248.825"/>
<polygon fill="#191970" stroke="#191970" points="907.886,-245.8028 897.5137,-243.6427 904.275,-251.7996 907.886,-245.8028"/>
</g>
<!-- Node6 -->
<g id="node7" class="node">
<title>Node6</title>
<g id="a_node7"><a xlink:href="input_8hpp.html" target="_top" xlink:title=" ">
<polygon fill="#ffffff" stroke="#000000" points="766,-168.5 766,-187.5 837,-187.5 837,-168.5 766,-168.5"/>
<text text-anchor="middle" x="801.5" y="-175.5" font-family="'Consolas',monospace" font-size="10.00" fill="#000000">input.hpp</text>
</a>
</g>
</g>
<!-- Node0&#45;&gt;Node6 -->
<g id="edge41" class="edge">
<title>Node0&#45;&gt;Node6</title>
<path fill="none" stroke="#191970" d="M929.6731,-281.2564C890.5674,-272.7887 837.7649,-259.0499 822.5,-244 810.0816,-231.7565 804.9939,-212.2026 802.9165,-197.551"/>
<polygon fill="#191970" stroke="#191970" points="806.3858,-197.0762 801.8432,-187.5047 799.4254,-197.8199 806.3858,-197.0762"/>
</g>
<!-- Node13 -->
<g id="node14" class="node">
<title>Node13</title>
<g id="a_node14"><a xlink:href="Shader_8hpp.html" target="_top" xlink:title=" ">
<polygon fill="#ffffff" stroke="#000000" points="944,-112.5 944,-131.5 1021,-131.5 1021,-112.5 944,-112.5"/>
<text text-anchor="middle" x="982.5" y="-119.5" font-family="'Consolas',monospace" font-size="10.00" fill="#000000">Shader.hpp</text>
</a>
</g>
</g>
<!-- Node0&#45;&gt;Node13 -->
<g id="edge14" class="edge">
<title>Node0&#45;&gt;Node13</title>
<path fill="none" stroke="#191970" d="M978.3624,-280.3228C981.8038,-271.1446 986.5833,-256.8807 988.5,-244 993.8351,-208.1472 989.3709,-165.7823 985.8148,-141.5852"/>
<polygon fill="#191970" stroke="#191970" points="989.2482,-140.8882 984.2361,-131.554 982.3333,-141.9765 989.2482,-140.8882"/>
</g>
<!-- Node14 -->
<g id="node15" class="node">
<title>Node14</title>
<g id="a_node15"><a xlink:href="ShaderProgram_8hpp.html" target="_top" xlink:title=" ">
<polygon fill="#ffffff" stroke="#000000" points="1078,-112.5 1078,-131.5 1197,-131.5 1197,-112.5 1078,-112.5"/>
<text text-anchor="middle" x="1137.5" y="-119.5" font-family="'Consolas',monospace" font-size="10.00" fill="#000000">ShaderProgram.hpp</text>
</a>
</g>
</g>
<!-- Node0&#45;&gt;Node14 -->
<g id="edge16" class="edge">
<title>Node0&#45;&gt;Node14</title>
<path fill="none" stroke="#191970" d="M1019.1364,-281.7759C1061.2103,-273.2763 1120.4249,-259.1473 1138.5,-244 1165.9742,-220.976 1175.1785,-202.5147 1165.5,-168 1162.7122,-158.0584 1157.1188,-148.1336 1151.6593,-140.0613"/>
<polygon fill="#191970" stroke="#191970" points="1154.4048,-137.8849 1145.7089,-131.8323 1148.7324,-141.9866 1154.4048,-137.8849"/>
</g>
<!-- Node16 -->
<g id="node17" class="node">
<title>Node16</title>
<g id="a_node17"><a xlink:href="Vertex_8hpp.html" target="_top" xlink:title=" ">
<polygon fill="#ffffff" stroke="#000000" points="1563,-224.5 1563,-243.5 1640,-243.5 1640,-224.5 1563,-224.5"/>
<text text-anchor="middle" x="1601.5" y="-231.5" font-family="'Consolas',monospace" font-size="10.00" fill="#000000">Vertex.hpp</text>
</a>
</g>
</g>
<!-- Node0&#45;&gt;Node16 -->
<g id="edge20" class="edge">
<title>Node0&#45;&gt;Node16</title>
<path fill="none" stroke="#191970" d="M1019.1071,-288.447C1115.0807,-284.6787 1348.4013,-273.2282 1552.8237,-244.0885"/>
<polygon fill="#191970" stroke="#191970" points="1553.4458,-247.5351 1562.8433,-242.6426 1552.4459,-240.6069 1553.4458,-247.5351"/>
</g>
<!-- Node17 -->
<g id="node18" class="node">
<title>Node17</title>
<g id="a_node18"><a xlink:href="Video_8hpp.html" target="_top" xlink:title=" ">
<polygon fill="#ffffff" stroke="#000000" points="1041,-224.5 1041,-243.5 1112,-243.5 1112,-224.5 1041,-224.5"/>
<text text-anchor="middle" x="1076.5" y="-231.5" font-family="'Consolas',monospace" font-size="10.00" fill="#000000">Video.hpp</text>
</a>
</g>
</g>
<!-- Node0&#45;&gt;Node17 -->
<g id="edge21" class="edge">
<title>Node0&#45;&gt;Node17</title>
<path fill="none" stroke="#191970" d="M992.267,-280.2455C1008.2095,-271.4928 1031.8259,-258.527 1049.9989,-248.5496"/>
<polygon fill="#191970" stroke="#191970" points="1051.8552,-251.5233 1058.9366,-243.6427 1048.4863,-245.3873 1051.8552,-251.5233"/>
</g>
<!-- Node18 -->
<g id="node19" class="node">
<title>Node18</title>
<g id="a_node19"><a xlink:href="sprite_8hpp_source.html" target="_top" xlink:title=" ">
<polygon fill="#ffffff" stroke="#000000" points="1079,-168.5 1079,-187.5 1156,-187.5 1156,-168.5 1079,-168.5"/>
<text text-anchor="middle" x="1117.5" y="-175.5" font-family="'Consolas',monospace" font-size="10.00" fill="#000000">sprite.hpp</text>
</a>
</g>
</g>
<!-- Node0&#45;&gt;Node18 -->
<g id="edge61" class="edge">
<title>Node0&#45;&gt;Node18</title>
<path fill="none" stroke="#191970" d="M1019.3582,-281.9676C1057.9271,-274.0405 1109.2274,-260.6998 1121.5,-244 1131.2507,-230.7318 1128.8189,-211.6121 1124.7953,-197.3634"/>
<polygon fill="#191970" stroke="#191970" points="1128.0318,-196.0011 1121.5836,-187.5945 1121.382,-198.1874 1128.0318,-196.0011"/>
</g>
<!-- Node19 -->
<g id="node20" class="node">
<title>Node19</title>
<g id="a_node20"><a xlink:href="drawable_8hpp_source.html" target="_top" xlink:title=" ">
<polygon fill="#ffffff" stroke="#000000" points="837,-112.5 837,-131.5 926,-131.5 926,-112.5 837,-112.5"/>
<text text-anchor="middle" x="881.5" y="-119.5" font-family="'Consolas',monospace" font-size="10.00" fill="#000000">drawable.hpp</text>
</a>
</g>
</g>
<!-- Node0&#45;&gt;Node19 -->
<g id="edge32" class="edge">
<title>Node0&#45;&gt;Node19</title>
<path fill="none" stroke="#191970" d="M970.9008,-280.4454C962.7815,-259.3759 941.8391,-207.6481 917.5,-168 911.4361,-158.1219 903.6107,-147.8949 896.8056,-139.5996"/>
<polygon fill="#191970" stroke="#191970" points="899.3166,-137.1476 890.1999,-131.7498 893.9607,-141.6547 899.3166,-137.1476"/>
</g>
<!-- Node20 -->
<g id="node21" class="node">
<title>Node20</title>
<g id="a_node21"><a xlink:href="debug_8hpp_source.html" target="_top" xlink:title=" ">
<polygon fill="#ffffff" stroke="#000000" points="83,-224.5 83,-243.5 154,-243.5 154,-224.5 83,-224.5"/>
<text text-anchor="middle" x="118.5" y="-231.5" font-family="'Consolas',monospace" font-size="10.00" fill="#000000">debug.hpp</text>
</a>
</g>
</g>
<!-- Node0&#45;&gt;Node20 -->
<g id="edge28" class="edge">
<title>Node0&#45;&gt;Node20</title>
<path fill="none" stroke="#191970" d="M929.8616,-289.5227C807.8029,-287.7701 458.397,-279.7576 170.5,-244 168.433,-243.7433 166.3247,-243.4537 164.1984,-243.139"/>
<polygon fill="#191970" stroke="#191970" points="164.6382,-239.6646 154.2059,-241.5132 163.514,-246.5738 164.6382,-239.6646"/>
</g>
<!-- Node21 -->
<g id="node22" class="node">
<title>Node21</title>
<g id="a_node22"><a xlink:href="message_8hpp.html" target="_top" xlink:title=" ">
<polygon fill="#ffffff" stroke="#000000" points="77,-168.5 77,-187.5 160,-187.5 160,-168.5 77,-168.5"/>
<text text-anchor="middle" x="118.5" y="-175.5" font-family="'Consolas',monospace" font-size="10.00" fill="#000000">message.hpp</text>
</a>
</g>
</g>
<!-- Node0&#45;&gt;Node21 -->
<g id="edge52" class="edge">
<title>Node0&#45;&gt;Node21</title>
<path fill="none" stroke="#191970" d="M929.7452,-288.8551C775.5898,-284.7014 272.3712,-269.324 204.5,-244 176.6176,-233.5966 150.3687,-210.8645 134.3732,-195.0031"/>
<polygon fill="#191970" stroke="#191970" points="136.8758,-192.5563 127.3823,-187.8527 131.8706,-197.4499 136.8758,-192.5563"/>
</g>
<!-- Node23 -->
<g id="node24" class="node">
<title>Node23</title>
<g id="a_node24"><a xlink:href="font_8hpp.html" target="_top" xlink:title=" ">
<polygon fill="#ffffff" stroke="#000000" points="1251,-224.5 1251,-243.5 1316,-243.5 1316,-224.5 1251,-224.5"/>
<text text-anchor="middle" x="1283.5" y="-231.5" font-family="'Consolas',monospace" font-size="10.00" fill="#000000">font.hpp</text>
</a>
</g>
</g>
<!-- Node0&#45;&gt;Node23 -->
<g id="edge33" class="edge">
<title>Node0&#45;&gt;Node23</title>
<path fill="none" stroke="#191970" d="M1019.0931,-282.671C1071.3033,-273.9744 1160.336,-258.7838 1236.5,-244 1237.9588,-243.7168 1239.4421,-243.4247 1240.9394,-243.1261"/>
<polygon fill="#191970" stroke="#191970" points="1241.8163,-246.5194 1250.9147,-241.091 1240.4169,-239.6607 1241.8163,-246.5194"/>
</g>
<!-- Node24 -->
<g id="node25" class="node">
<title>Node24</title>
<g id="a_node25"><a xlink:href="framebuffer_8hpp_source.html" target="_top" xlink:title=" ">
<polygon fill="#ffffff" stroke="#000000" points="1251,-168.5 1251,-187.5 1352,-187.5 1352,-168.5 1251,-168.5"/>
<text text-anchor="middle" x="1301.5" y="-175.5" font-family="'Consolas',monospace" font-size="10.00" fill="#000000">framebuffer.hpp</text>
</a>
</g>
</g>
<!-- Node0&#45;&gt;Node24 -->
<g id="edge37" class="edge">
<title>Node0&#45;&gt;Node24</title>
<path fill="none" stroke="#191970" d="M1019.2553,-285.6959C1065.5024,-280.1374 1139.1062,-268.1509 1198.5,-244 1229.6907,-231.3171 1261.752,-209.0305 1281.6432,-193.8994"/>
<polygon fill="#191970" stroke="#191970" points="1283.873,-196.5993 1289.6321,-187.7064 1279.5843,-191.067 1283.873,-196.5993"/>
</g>
<!-- Node25 -->
<g id="node26" class="node">
<title>Node25</title>
<g id="a_node26"><a xlink:href="job_8hpp.html" target="_top" xlink:title=" ">
<polygon fill="#ffffff" stroke="#000000" points="217,-168.5 217,-187.5 276,-187.5 276,-168.5 217,-168.5"/>
<text text-anchor="middle" x="246.5" y="-175.5" font-family="'Consolas',monospace" font-size="10.00" fill="#000000">job.hpp</text>
</a>
</g>
</g>
<!-- Node0&#45;&gt;Node25 -->
<g id="edge42" class="edge">
<title>Node0&#45;&gt;Node25</title>
<path fill="none" stroke="#191970" d="M929.7118,-288.068C814.464,-282.8204 509.8274,-267.128 411.5,-244 361.4202,-232.2205 306.575,-207.7841 274.4203,-192.1772"/>
<polygon fill="#191970" stroke="#191970" points="275.718,-188.9151 265.2001,-187.641 272.6278,-195.1961 275.718,-188.9151"/>
</g>
<!-- Node26 -->
<g id="node27" class="node">
<title>Node26</title>
<g id="a_node27"><a xlink:href="main_8hpp_source.html" target="_top" xlink:title=" ">
<polygon fill="#ffffff" stroke="#000000" points="547,-224.5 547,-243.5 612,-243.5 612,-224.5 547,-224.5"/>
<text text-anchor="middle" x="579.5" y="-231.5" font-family="'Consolas',monospace" font-size="10.00" fill="#000000">main.hpp</text>
</a>
</g>
</g>
<!-- Node0&#45;&gt;Node26 -->
<g id="edge44" class="edge">
<title>Node0&#45;&gt;Node26</title>
<path fill="none" stroke="#191970" d="M929.8772,-284.224C865.7781,-275.843 743.9588,-259.602 640.5,-244 634.5857,-243.1081 628.3553,-242.1306 622.2267,-241.147"/>
<polygon fill="#191970" stroke="#191970" points="622.5146,-237.6479 612.0828,-239.4999 621.3926,-244.5574 622.5146,-237.6479"/>
</g>
<!-- Node27 -->
<g id="node28" class="node">
<title>Node27</title>
<g id="a_node28"><a xlink:href="other_8hpp.html" target="_top" xlink:title=" ">
<polygon fill="#ffffff" stroke="#000000" points="594,-168.5 594,-187.5 665,-187.5 665,-168.5 594,-168.5"/>
<text text-anchor="middle" x="629.5" y="-175.5" font-family="'Consolas',monospace" font-size="10.00" fill="#000000">other.hpp</text>
</a>
</g>
</g>
<!-- Node0&#45;&gt;Node27 -->
<g id="edge53" class="edge">
<title>Node0&#45;&gt;Node27</title>
<path fill="none" stroke="#191970" d="M929.733,-282.8826C887.6707,-275.5132 823.3195,-262.4725 769.5,-244 728.3495,-229.8759 683.2501,-207.2172 655.6575,-192.4692"/>
<polygon fill="#191970" stroke="#191970" points="657.1246,-189.2838 646.6629,-187.6096 653.7972,-195.4424 657.1246,-189.2838"/>
</g>
<!-- Node28 -->
<g id="node29" class="node">
<title>Node28</title>
<g id="a_node29"><a xlink:href="window_8hpp.html" target="_top" xlink:title="Functions related to the main window.">
<polygon fill="#ffffff" stroke="#000000" points="460,-168.5 460,-187.5 537,-187.5 537,-168.5 460,-168.5"/>
<text text-anchor="middle" x="498.5" y="-175.5" font-family="'Consolas',monospace" font-size="10.00" fill="#000000">window.hpp</text>
</a>
</g>
</g>
<!-- Node0&#45;&gt;Node28 -->
<g id="edge68" class="edge">
<title>Node0&#45;&gt;Node28</title>
<path fill="none" stroke="#191970" d="M929.9825,-287.5406C825.533,-281.4542 571.0739,-264.6737 538.5,-244 521.5879,-233.2664 510.7871,-212.5608 504.7275,-197.1908"/>
<polygon fill="#191970" stroke="#191970" points="507.9521,-195.8148 501.2729,-187.5905 501.3656,-198.185 507.9521,-195.8148"/>
</g>
<!-- Node29 -->
<g id="node30" class="node">
<title>Node29</title>
<g id="a_node30"><a xlink:href="matrix_8hpp_source.html" target="_top" xlink:title=" ">
<polygon fill="#ffffff" stroke="#000000" points="1658,-224.5 1658,-243.5 1735,-243.5 1735,-224.5 1658,-224.5"/>
<text text-anchor="middle" x="1696.5" y="-231.5" font-family="'Consolas',monospace" font-size="10.00" fill="#000000">matrix.hpp</text>
</a>
</g>
</g>
<!-- Node0&#45;&gt;Node29 -->
<g id="edge51" class="edge">
<title>Node0&#45;&gt;Node29</title>
<path fill="none" stroke="#191970" d="M1019.3516,-289.1352C1126.4997,-286.6001 1405.8651,-277.2201 1647.8093,-244.0693"/>
<polygon fill="#191970" stroke="#191970" points="1648.4239,-247.5177 1657.8482,-242.677 1647.4622,-240.584 1648.4239,-247.5177"/>
</g>
<!-- Node30 -->
<g id="node31" class="node">
<title>Node30</title>
<g id="a_node31"><a xlink:href="screen_8hpp.html" target="_top" xlink:title=" ">
<polygon fill="#ffffff" stroke="#000000" points="1468,-224.5 1468,-243.5 1545,-243.5 1545,-224.5 1468,-224.5"/>
<text text-anchor="middle" x="1506.5" y="-231.5" font-family="'Consolas',monospace" font-size="10.00" fill="#000000">screen.hpp</text>
</a>
</g>
</g>
<!-- Node0&#45;&gt;Node30 -->
<g id="edge54" class="edge">
<title>Node0&#45;&gt;Node30</title>
<path fill="none" stroke="#191970" d="M1019.1784,-287.487C1103.2493,-282.385 1290.8408,-269.2284 1457.8793,-244.1102"/>
<polygon fill="#191970" stroke="#191970" points="1458.4767,-247.5596 1467.8362,-242.5948 1457.4234,-240.6393 1458.4767,-247.5596"/>
</g>
<!-- Node31 -->
<g id="node32" class="node">
<title>Node31</title>
<g id="a_node32"><a xlink:href="shapes_8hpp.html" target="_top" xlink:title=" ">
<polygon fill="#ffffff" stroke="#000000" points="1373,-224.5 1373,-243.5 1450,-243.5 1450,-224.5 1373,-224.5"/>
<text text-anchor="middle" x="1411.5" y="-231.5" font-family="'Consolas',monospace" font-size="10.00" fill="#000000">shapes.hpp</text>
</a>
</g>
</g>
<!-- Node0&#45;&gt;Node31 -->
<g id="edge56" class="edge">
<title>Node0&#45;&gt;Node31</title>
<path fill="none" stroke="#191970" d="M1019.2708,-285.6241C1091.048,-278.387 1236.2309,-262.8364 1358.5,-244 1359.946,-243.7772 1361.413,-243.5444 1362.8929,-243.3036"/>
<polygon fill="#191970" stroke="#191970" points="1363.4953,-246.7515 1372.7644,-241.6198 1362.3183,-239.8511 1363.4953,-246.7515"/>
</g>
<!-- Node32 -->
<g id="node33" class="node">
<title>Node32</title>
<g id="a_node33"><a xlink:href="sound_8hpp_source.html" target="_top" xlink:title=" ">
<polygon fill="#ffffff" stroke="#000000" points="371,-168.5 371,-187.5 442,-187.5 442,-168.5 371,-168.5"/>
<text text-anchor="middle" x="406.5" y="-175.5" font-family="'Consolas',monospace" font-size="10.00" fill="#000000">sound.hpp</text>
</a>
</g>
</g>
<!-- Node0&#45;&gt;Node32 -->
<g id="edge59" class="edge">
<title>Node0&#45;&gt;Node32</title>
<path fill="none" stroke="#191970" d="M929.7677,-288.0643C829.7379,-283.327 590.7709,-269.6237 514.5,-244 480.9639,-232.7333 446.8934,-209.5335 426.225,-193.8664"/>
<polygon fill="#191970" stroke="#191970" points="428.2767,-191.0285 418.2283,-187.6699 423.9891,-196.5617 428.2767,-191.0285"/>
</g>
<!-- Node33 -->
<g id="node34" class="node">
<title>Node33</title>
<g id="a_node34"><a xlink:href="text_8hpp.html" target="_top" xlink:title=" ">
<polygon fill="#ffffff" stroke="#000000" points="683,-168.5 683,-187.5 748,-187.5 748,-168.5 683,-168.5"/>
<text text-anchor="middle" x="715.5" y="-175.5" font-family="'Consolas',monospace" font-size="10.00" fill="#000000">text.hpp</text>
</a>
</g>
</g>
<!-- Node0&#45;&gt;Node33 -->
<g id="edge62" class="edge">
<title>Node0&#45;&gt;Node33</title>
<path fill="none" stroke="#191970" d="M929.857,-282.4989C894.8348,-275.5309 845.4901,-263.2804 805.5,-244 778.2017,-230.8386 750.6651,-209.1233 733.3712,-194.2192"/>
<polygon fill="#191970" stroke="#191970" points="735.5708,-191.4927 725.7502,-187.517 730.9481,-196.7492 735.5708,-191.4927"/>
</g>
<!-- Node34 -->
<g id="node35" class="node">
<title>Node34</title>
<g id="a_node35"><a xlink:href="time_8hpp.html" target="_top" xlink:title=" ">
<polygon fill="#ffffff" stroke="#000000" points="1753,-224.5 1753,-243.5 1818,-243.5 1818,-224.5 1753,-224.5"/>
<text text-anchor="middle" x="1785.5" y="-231.5" font-family="'Consolas',monospace" font-size="10.00" fill="#000000">time.hpp</text>
</a>
</g>
</g>
<!-- Node0&#45;&gt;Node34 -->
<g id="edge67" class="edge">
<title>Node0&#45;&gt;Node34</title>
<path fill="none" stroke="#191970" d="M1019.4314,-288.3775C1158.9413,-283.1761 1584.3181,-266.0438 1742.8789,-243.964"/>
<polygon fill="#191970" stroke="#191970" points="1743.5389,-247.4049 1752.9313,-242.5026 1742.5318,-240.4778 1743.5389,-247.4049"/>
</g>
<!-- Node35 -->
<g id="node36" class="node">
<title>Node35</title>
<g id="a_node36"><a xlink:href="work_8hpp.html" target="_top" xlink:title=" ">
<polygon fill="#ffffff" stroke="#000000" points="214,-224.5 214,-243.5 279,-243.5 279,-224.5 214,-224.5"/>
<text text-anchor="middle" x="246.5" y="-231.5" font-family="'Consolas',monospace" font-size="10.00" fill="#000000">work.hpp</text>
</a>
</g>
</g>
<!-- Node0&#45;&gt;Node35 -->
<g id="edge69" class="edge">
<title>Node0&#45;&gt;Node35</title>
<path fill="none" stroke="#191970" d="M929.6523,-288.0199C822.9852,-283.0596 545.8498,-268.6971 315.5,-244 306.9361,-243.0818 297.8021,-241.9015 289.0766,-240.6756"/>
<polygon fill="#191970" stroke="#191970" points="289.4781,-237.1974 279.0798,-239.2287 288.4753,-244.1252 289.4781,-237.1974"/>
</g>
<!-- Node2 -->
<g id="node3" class="node">
<title>Node2</title>
<g id="a_node3"><a doxygen="/w/doc/cppreference-doxygen-web.tag.xml:http://en.cppreference.com/w/" xlink:href="http://en.cppreference.com/w/cpp/header/memory.html" xlink:title=" ">
<polygon fill="#ffffff" stroke="#000000" points="878,-56.5 878,-75.5 931,-75.5 931,-56.5 878,-56.5"/>
<text text-anchor="middle" x="904.5" y="-63.5" font-family="'Consolas',monospace" font-size="10.00" fill="#000000">memory</text>
</a>
</g>
</g>
<!-- Node1&#45;&gt;Node2 -->
<g id="edge2" class="edge">
<title>Node1&#45;&gt;Node2</title>
<path fill="none" stroke="#191970" d="M339.1925,-168.4293C364.3884,-153.5737 415.8781,-125.2942 463.5,-112 539.3658,-90.8211 775.7559,-74.1071 867.5414,-68.2537"/>
<polygon fill="#191970" stroke="#191970" points="867.9851,-71.7328 877.7448,-67.6099 867.5442,-64.7467 867.9851,-71.7328"/>
</g>
<!-- Node3 -->
<g id="node4" class="node">
<title>Node3</title>
<g id="a_node4"><a doxygen="/w/doc/cppreference-doxygen-web.tag.xml:http://en.cppreference.com/w/" xlink:href="http://en.cppreference.com/w/cpp/header/string.html" xlink:title=" ">
<polygon fill="#ffffff" stroke="#000000" points="472,-112.5 472,-131.5 525,-131.5 525,-112.5 472,-112.5"/>
<text text-anchor="middle" x="498.5" y="-119.5" font-family="'Consolas',monospace" font-size="10.00" fill="#000000">string</text>
</a>
</g>
</g>
<!-- Node1&#45;&gt;Node3 -->
<g id="edge3" class="edge">
<title>Node1&#45;&gt;Node3</title>
<path fill="none" stroke="#191970" d="M353.1864,-168.5004C383.192,-158.8986 429.6154,-144.0431 461.8861,-133.7164"/>
<polygon fill="#191970" stroke="#191970" points="463.3701,-136.9165 471.8276,-130.5352 461.2366,-130.2495 463.3701,-136.9165"/>
</g>
<!-- Node5&#45;&gt;Node6 -->
<g id="edge6" class="edge">
<title>Node5&#45;&gt;Node6</title>
<path fill="none" stroke="#191970" d="M867.5651,-224.2455C855.4053,-215.7337 837.5536,-203.2375 823.4715,-193.3801"/>
<polygon fill="#191970" stroke="#191970" points="825.4747,-190.51 815.2752,-187.6427 821.4605,-196.2447 825.4747,-190.51"/>
</g>
<!-- Node12 -->
<g id="node13" class="node">
<title>Node12</title>
<g id="a_node13"><a doxygen="/w/doc/cppreference-doxygen-web.tag.xml:http://en.cppreference.com/w/" xlink:href="http://en.cppreference.com/w/cpp/header/chrono.html" xlink:title=" ">
<polygon fill="#ffffff" stroke="#000000" points="855,-168.5 855,-187.5 908,-187.5 908,-168.5 855,-168.5"/>
<text text-anchor="middle" x="881.5" y="-175.5" font-family="'Consolas',monospace" font-size="10.00" fill="#000000">chrono</text>
</a>
</g>
</g>
<!-- Node5&#45;&gt;Node12 -->
<g id="edge13" class="edge">
<title>Node5&#45;&gt;Node12</title>
<path fill="none" stroke="#191970" d="M881.5,-224.2455C881.5,-216.9382 881.5,-206.6944 881.5,-197.7046"/>
<polygon fill="#191970" stroke="#191970" points="885.0001,-197.6426 881.5,-187.6427 878.0001,-197.6427 885.0001,-197.6426"/>
</g>
<!-- Node6&#45;&gt;Node2 -->
<g id="edge11" class="edge">
<title>Node6&#45;&gt;Node2</title>
<path fill="none" stroke="#191970" d="M803.3969,-168.4813C806.553,-154.6857 814.0182,-128.9369 828.5,-112 840.0931,-98.4416 856.7246,-87.7447 871.4751,-80.0914"/>
<polygon fill="#191970" stroke="#191970" points="873.3902,-83.0503 880.8249,-75.502 870.3057,-76.7665 873.3902,-83.0503"/>
</g>
<!-- Node7 -->
<g id="node8" class="node">
<title>Node7</title>
<g id="a_node8"><a xlink:href="Vec2_8hpp.html" target="_top" xlink:title=" ">
<polygon fill="#ffffff" stroke="#000000" points="1339,-112.5 1339,-131.5 1404,-131.5 1404,-112.5 1339,-112.5"/>
<text text-anchor="middle" x="1371.5" y="-119.5" font-family="'Consolas',monospace" font-size="10.00" fill="#000000">Vec2.hpp</text>
</a>
</g>
</g>
<!-- Node6&#45;&gt;Node7 -->
<g id="edge7" class="edge">
<title>Node6&#45;&gt;Node7</title>
<path fill="none" stroke="#191970" d="M837.2811,-169.6041C840.3895,-169.0099 843.4944,-168.4636 846.5,-168 939.2624,-153.6925 1220.5468,-132.7722 1328.5945,-125.0284"/>
<polygon fill="#191970" stroke="#191970" points="1329.0736,-128.5032 1338.7988,-124.2993 1328.5747,-121.521 1329.0736,-128.5032"/>
</g>
<!-- Node10 -->
<g id="node11" class="node">
<title>Node10</title>
<g id="a_node11"><a doxygen="/w/doc/cppreference-doxygen-web.tag.xml:http://en.cppreference.com/w/" xlink:href="http://en.cppreference.com/w/cpp/header/functional.html" xlink:title=" ">
<polygon fill="#ffffff" stroke="#000000" points="915,-.5 915,-19.5 992,-19.5 992,-.5 915,-.5"/>
<text text-anchor="middle" x="953.5" y="-7.5" font-family="'Consolas',monospace" font-size="10.00" fill="#000000">functional</text>
</a>
</g>
</g>
<!-- Node6&#45;&gt;Node10 -->
<g id="edge10" class="edge">
<title>Node6&#45;&gt;Node10</title>
<path fill="none" stroke="#191970" d="M801.0834,-168.4572C800.8979,-155.0777 802.0354,-130.3292 811.5,-112 834.0317,-68.3651 884.8,-39.1439 919.1151,-23.5461"/>
<polygon fill="#191970" stroke="#191970" points="920.5692,-26.7302 928.3203,-19.5073 917.7567,-20.3201 920.5692,-26.7302"/>
</g>
<!-- Node11 -->
<g id="node12" class="node">
<title>Node11</title>
<g id="a_node12"><a doxygen="/w/doc/cppreference-doxygen-web.tag.xml:http://en.cppreference.com/w/" xlink:href="http://en.cppreference.com/w/cpp/header/vector.html" xlink:title=" ">
<polygon fill="#ffffff" stroke="#000000" points="689,-112.5 689,-131.5 742,-131.5 742,-112.5 689,-112.5"/>
<text text-anchor="middle" x="715.5" y="-119.5" font-family="'Consolas',monospace" font-size="10.00" fill="#000000">vector</text>
</a>
</g>
</g>
<!-- Node6&#45;&gt;Node11 -->
<g id="edge12" class="edge">
<title>Node6&#45;&gt;Node11</title>
<path fill="none" stroke="#191970" d="M786.5199,-168.2455C773.3249,-159.6534 753.8949,-147.0014 738.6921,-137.1018"/>
<polygon fill="#191970" stroke="#191970" points="740.5983,-134.1665 730.3084,-131.6427 736.7785,-140.0325 740.5983,-134.1665"/>
</g>
<!-- Node8 -->
<g id="node9" class="node">
<title>Node8</title>
<g id="a_node9"><a xlink:title=" ">
<polygon fill="#ffffff" stroke="#bfbfbf" points="1364,-56.5 1364,-75.5 1483,-75.5 1483,-56.5 1364,-56.5"/>
<text text-anchor="middle" x="1423.5" y="-63.5" font-family="'Consolas',monospace" font-size="10.00" fill="#000000">boost/version.hpp</text>
</a>
</g>
</g>
<!-- Node7&#45;&gt;Node8 -->
<g id="edge8" class="edge">
<title>Node7&#45;&gt;Node8</title>
<path fill="none" stroke="#191970" d="M1380.5577,-112.2455C1388.0142,-104.2155 1398.7634,-92.6394 1407.6417,-83.0781"/>
<polygon fill="#191970" stroke="#191970" points="1410.3063,-85.3522 1414.5461,-75.6427 1405.1768,-80.589 1410.3063,-85.3522"/>
</g>
<!-- Node9 -->
<g id="node10" class="node">
<title>Node9</title>
<g id="a_node10"><a doxygen="/w/doc/cppreference-doxygen-web.tag.xml:http://en.cppreference.com/w/" xlink:href="http://en.cppreference.com/w/cpp/header/iosfwd.html" xlink:title=" ">
<polygon fill="#ffffff" stroke="#000000" points="1293,-56.5 1293,-75.5 1346,-75.5 1346,-56.5 1293,-56.5"/>
<text text-anchor="middle" x="1319.5" y="-63.5" font-family="'Consolas',monospace" font-size="10.00" fill="#000000">iosfwd</text>
</a>
</g>
</g>
<!-- Node7&#45;&gt;Node9 -->
<g id="edge9" class="edge">
<title>Node7&#45;&gt;Node9</title>
<path fill="none" stroke="#191970" d="M1362.4423,-112.2455C1354.9858,-104.2155 1344.2366,-92.6394 1335.3583,-83.0781"/>
<polygon fill="#191970" stroke="#191970" points="1337.8232,-80.589 1328.4539,-75.6427 1332.6937,-85.3522 1337.8232,-80.589"/>
</g>
<!-- Node13&#45;&gt;Node2 -->
<g id="edge15" class="edge">
<title>Node13&#45;&gt;Node2</title>
<path fill="none" stroke="#191970" d="M968.9134,-112.2455C957.1695,-103.814 939.9801,-91.4729 926.3118,-81.6598"/>
<polygon fill="#191970" stroke="#191970" points="928.0954,-78.6316 917.9309,-75.6427 924.0129,-84.3179 928.0954,-78.6316"/>
</g>
<!-- Node14&#45;&gt;Node2 -->
<g id="edge19" class="edge">
<title>Node14&#45;&gt;Node2</title>
<path fill="none" stroke="#191970" d="M1097.7106,-112.4369C1053.7631,-101.8744 983.5981,-85.0107 941.0096,-74.7748"/>
<polygon fill="#191970" stroke="#191970" points="941.6086,-71.3192 931.0676,-72.3853 939.9728,-78.1254 941.6086,-71.3192"/>
</g>
<!-- Node15 -->
<g id="node16" class="node">
<title>Node15</title>
<g id="a_node16"><a xlink:href="Finally_8hpp.html" target="_top" xlink:title=" ">
<polygon fill="#ffffff" stroke="#000000" points="1023,-56.5 1023,-75.5 1106,-75.5 1106,-56.5 1023,-56.5"/>
<text text-anchor="middle" x="1064.5" y="-63.5" font-family="'Consolas',monospace" font-size="10.00" fill="#000000">Finally.hpp</text>
</a>
</g>
</g>
<!-- Node14&#45;&gt;Node15 -->
<g id="edge17" class="edge">
<title>Node14&#45;&gt;Node15</title>
<path fill="none" stroke="#191970" d="M1124.7844,-112.2455C1113.898,-103.8943 1098.0117,-91.7076 1085.28,-81.9408"/>
<polygon fill="#191970" stroke="#191970" points="1087.1346,-78.9523 1077.0699,-75.6427 1082.8739,-84.5063 1087.1346,-78.9523"/>
</g>
<!-- Node15&#45;&gt;Node10 -->
<g id="edge18" class="edge">
<title>Node15&#45;&gt;Node10</title>
<path fill="none" stroke="#191970" d="M1045.4184,-56.3733C1027.7598,-47.4644 1001.2947,-34.1127 981.2902,-24.0203"/>
<polygon fill="#191970" stroke="#191970" points="982.8372,-20.8806 972.3326,-19.5011 979.6842,-27.1303 982.8372,-20.8806"/>
</g>
<!-- Node17&#45;&gt;Node2 -->
<g id="edge26" class="edge">
<title>Node17&#45;&gt;Node2</title>
<path fill="none" stroke="#191970" d="M1075.5617,-224.2981C1072.8523,-201.5279 1063.0021,-144.1619 1030.5,-112 1006.4284,-88.1804 969.0464,-76.5789 941.2436,-71.0007"/>
<polygon fill="#191970" stroke="#191970" points="941.5714,-67.5026 931.1046,-69.1447 940.3109,-74.3882 941.5714,-67.5026"/>
</g>
<!-- Node17&#45;&gt;Node3 -->
<g id="edge27" class="edge">
<title>Node17&#45;&gt;Node3</title>
<path fill="none" stroke="#191970" d="M1058.0097,-224.2796C1028.9618,-209.4857 970.4755,-181.6058 917.5,-168 845.3875,-149.4792 623.2,-131.3392 535.0664,-124.6754"/>
<polygon fill="#191970" stroke="#191970" points="535.2359,-121.1784 525.002,-123.9204 534.7122,-128.1588 535.2359,-121.1784"/>
</g>
<!-- Node17&#45;&gt;Node18 -->
<g id="edge22" class="edge">
<title>Node17&#45;&gt;Node18</title>
<path fill="none" stroke="#191970" d="M1083.6417,-224.2455C1089.3444,-216.4564 1097.49,-205.3308 1104.3625,-195.9439"/>
<polygon fill="#191970" stroke="#191970" points="1107.3568,-197.7789 1110.4402,-187.6427 1101.7087,-193.6437 1107.3568,-197.7789"/>
</g>
<!-- Node18&#45;&gt;Node7 -->
<g id="edge24" class="edge">
<title>Node18&#45;&gt;Node7</title>
<path fill="none" stroke="#191970" d="M1156.0771,-169.4948C1202.5909,-159.2398 1280.5196,-142.0587 1328.8024,-131.4136"/>
<polygon fill="#191970" stroke="#191970" points="1329.6216,-134.8172 1338.6335,-129.2462 1328.1145,-127.9813 1329.6216,-134.8172"/>
</g>
<!-- Node18&#45;&gt;Node14 -->
<g id="edge23" class="edge">
<title>Node18&#45;&gt;Node14</title>
<path fill="none" stroke="#191970" d="M1120.9837,-168.2455C1123.6508,-160.7776 1127.4133,-150.2427 1130.6737,-141.1137"/>
<polygon fill="#191970" stroke="#191970" points="1133.9889,-142.2373 1134.0562,-131.6427 1127.3967,-139.8829 1133.9889,-142.2373"/>
</g>
<!-- Node18&#45;&gt;Node19 -->
<g id="edge25" class="edge">
<title>Node18&#45;&gt;Node19</title>
<path fill="none" stroke="#191970" d="M1078.7937,-168.8154C1038.6378,-159.2869 975.6799,-144.3478 931.7165,-133.9158"/>
<polygon fill="#191970" stroke="#191970" points="932.3464,-130.4681 921.8085,-131.5647 930.7302,-137.279 932.3464,-130.4681"/>
</g>
<!-- Node20&#45;&gt;Node21 -->
<g id="edge29" class="edge">
<title>Node20&#45;&gt;Node21</title>
<path fill="none" stroke="#191970" d="M118.5,-224.2455C118.5,-216.9382 118.5,-206.6944 118.5,-197.7046"/>
<polygon fill="#191970" stroke="#191970" points="122.0001,-197.6426 118.5,-187.6427 115.0001,-197.6427 122.0001,-197.6426"/>
</g>
<!-- Node22 -->
<g id="node23" class="node">
<title>Node22</title>
<g id="a_node23"><a doxygen="/w/doc/cppreference-doxygen-web.tag.xml:http://en.cppreference.com/w/" xlink:href="http://en.cppreference.com/w/cpp/header/sstream.html" xlink:title=" ">
<polygon fill="#ffffff" stroke="#000000" points="0,-168.5 0,-187.5 59,-187.5 59,-168.5 0,-168.5"/>
<text text-anchor="middle" x="29.5" y="-175.5" font-family="'Consolas',monospace" font-size="10.00" fill="#000000">sstream</text>
</a>
</g>
</g>
<!-- Node20&#45;&gt;Node22 -->
<g id="edge31" class="edge">
<title>Node20&#45;&gt;Node22</title>
<path fill="none" stroke="#191970" d="M102.9974,-224.2455C89.342,-215.6534 69.2343,-203.0014 53.5011,-193.1018"/>
<polygon fill="#191970" stroke="#191970" points="55.1529,-190.006 44.825,-187.6427 51.4249,-195.9307 55.1529,-190.006"/>
</g>
<!-- Node21&#45;&gt;Node3 -->
<g id="edge30" class="edge">
<title>Node21&#45;&gt;Node3</title>
<path fill="none" stroke="#191970" d="M160.2537,-171.8468C234.8918,-160.8475 390.0359,-137.9842 461.2732,-127.4861"/>
<polygon fill="#191970" stroke="#191970" points="462.1756,-130.891 471.5584,-125.9703 461.155,-123.9658 462.1756,-130.891"/>
</g>
<!-- Node23&#45;&gt;Node2 -->
<g id="edge36" class="edge">
<title>Node23&#45;&gt;Node2</title>
<path fill="none" stroke="#191970" d="M1273.4941,-224.4521C1264.5884,-215.5903 1251.5998,-201.7335 1242.5,-188 1221.8555,-156.8432 1236.4835,-134.3142 1206.5,-112 1185.4715,-96.3502 1016.8092,-77.4377 941.0809,-69.6354"/>
<polygon fill="#191970" stroke="#191970" points="941.341,-66.1439 931.0371,-68.6097 940.6297,-73.1077 941.341,-66.1439"/>
</g>
<!-- Node23&#45;&gt;Node4 -->
<g id="edge34" class="edge">
<title>Node23&#45;&gt;Node4</title>
<path fill="none" stroke="#191970" d="M1311.1769,-224.3733C1337.8328,-215.1016 1378.3238,-201.0178 1407.6884,-190.804"/>
<polygon fill="#191970" stroke="#191970" points="1408.8891,-194.0921 1417.1843,-187.5011 1406.5895,-187.4807 1408.8891,-194.0921"/>
</g>
<!-- Node23&#45;&gt;Node7 -->
<g id="edge35" class="edge">
<title>Node23&#45;&gt;Node7</title>
<path fill="none" stroke="#191970" d="M1312.1095,-224.3459C1329.1988,-217.0649 1349.7948,-205.3257 1361.5,-188 1370.6123,-174.5124 1372.7358,-155.9578 1372.7965,-141.9562"/>
<polygon fill="#191970" stroke="#191970" points="1376.2928,-141.7785 1372.4969,-131.887 1369.2959,-141.9867 1376.2928,-141.7785"/>
</g>
<!-- Node24&#45;&gt;Node2 -->
<g id="edge40" class="edge">
<title>Node24&#45;&gt;Node2</title>
<path fill="none" stroke="#191970" d="M1295.6455,-168.4234C1285.9878,-153.5596 1265.204,-125.2692 1239.5,-112 1213.3839,-98.518 1023.1298,-77.98 941.5164,-69.6753"/>
<polygon fill="#191970" stroke="#191970" points="941.5067,-66.1566 931.2053,-68.6325 940.8023,-73.1211 941.5067,-66.1566"/>
</g>
<!-- Node24&#45;&gt;Node7 -->
<g id="edge39" class="edge">
<title>Node24&#45;&gt;Node7</title>
<path fill="none" stroke="#191970" d="M1313.6931,-168.2455C1324.1321,-159.8943 1339.3655,-147.7076 1351.574,-137.9408"/>
<polygon fill="#191970" stroke="#191970" points="1353.8244,-140.6227 1359.4467,-131.6427 1349.4515,-135.1566 1353.8244,-140.6227"/>
</g>
<!-- Node24&#45;&gt;Node15 -->
<g id="edge38" class="edge">
<title>Node24&#45;&gt;Node15</title>
<path fill="none" stroke="#191970" d="M1300.8348,-168.3007C1299.2973,-153.7921 1294.2213,-126.5878 1277.5,-112 1253.816,-91.3378 1171.1453,-78.1189 1116.0366,-71.3855"/>
<polygon fill="#191970" stroke="#191970" points="1116.4309,-67.9078 1106.0878,-70.2033 1115.6049,-74.8589 1116.4309,-67.9078"/>
</g>
<!-- Node25&#45;&gt;Node2 -->
<g id="edge43" class="edge">
<title>Node25&#45;&gt;Node2</title>
<path fill="none" stroke="#191970" d="M264.7322,-168.4185C293.9621,-153.548 353.5177,-125.2486 407.5,-112 494.9903,-90.5277 768.2183,-73.5902 867.7558,-67.9858"/>
<polygon fill="#191970" stroke="#191970" points="868.1376,-71.47 877.9272,-67.4186 867.7479,-64.4809 868.1376,-71.47"/>
</g>
<!-- Node26&#45;&gt;Node15 -->
<g id="edge45" class="edge">
<title>Node26&#45;&gt;Node15</title>
<path fill="none" stroke="#191970" d="M577.7806,-224.1716C575.9235,-210.4527 574.545,-185.3036 585.5,-168 611.7172,-126.5895 634.0684,-127.6933 680.5,-112 711.2628,-101.6026 914.8101,-80.6515 1012.4396,-71.0343"/>
<polygon fill="#191970" stroke="#191970" points="1013.0662,-74.4897 1022.6763,-70.0292 1012.3821,-67.5232 1013.0662,-74.4897"/>
</g>
<!-- Node26&#45;&gt;Node27 -->
<g id="edge46" class="edge">
<title>Node26&#45;&gt;Node27</title>
<path fill="none" stroke="#191970" d="M588.2093,-224.2455C595.3073,-216.2958 605.5084,-204.8706 613.995,-195.3656"/>
<polygon fill="#191970" stroke="#191970" points="616.8411,-197.4331 620.8905,-187.6427 611.6195,-192.771 616.8411,-197.4331"/>
</g>
<!-- Node26&#45;&gt;Node28 -->
<g id="edge49" class="edge">
<title>Node26&#45;&gt;Node28</title>
<path fill="none" stroke="#191970" d="M565.3909,-224.2455C553.0791,-215.7337 535.0042,-203.2375 520.7462,-193.3801"/>
<polygon fill="#191970" stroke="#191970" points="522.6634,-190.4506 512.4474,-187.6427 518.6826,-196.2085 522.6634,-190.4506"/>
</g>
<!-- Node27&#45;&gt;Node3 -->
<g id="edge47" class="edge">
<title>Node27&#45;&gt;Node3</title>
<path fill="none" stroke="#191970" d="M606.9803,-168.3733C585.7628,-159.3032 553.7724,-145.6279 530.0231,-135.4755"/>
<polygon fill="#191970" stroke="#191970" points="531.2967,-132.2136 520.7258,-131.5011 528.5452,-138.6502 531.2967,-132.2136"/>
</g>
<!-- Node27&#45;&gt;Node11 -->
<g id="edge48" class="edge">
<title>Node27&#45;&gt;Node11</title>
<path fill="none" stroke="#191970" d="M644.4801,-168.2455C657.6751,-159.6534 677.1051,-147.0014 692.3079,-137.1018"/>
<polygon fill="#191970" stroke="#191970" points="694.2215,-140.0325 700.6916,-131.6427 690.4017,-134.1665 694.2215,-140.0325"/>
</g>
<!-- Node28&#45;&gt;Node3 -->
<g id="edge50" class="edge">
<title>Node28&#45;&gt;Node3</title>
<path fill="none" stroke="#191970" d="M498.5,-168.2455C498.5,-160.9382 498.5,-150.6944 498.5,-141.7046"/>
<polygon fill="#191970" stroke="#191970" points="502.0001,-141.6426 498.5,-131.6427 495.0001,-141.6427 502.0001,-141.6426"/>
</g>
<!-- Node30&#45;&gt;Node7 -->
<g id="edge55" class="edge">
<title>Node30&#45;&gt;Node7</title>
<path fill="none" stroke="#191970" d="M1509.4907,-224.4176C1513.1865,-210.5428 1517.613,-184.6962 1505.5,-168 1494.4901,-152.8244 1449.0722,-139.4101 1414.1315,-131.0411"/>
<polygon fill="#191970" stroke="#191970" points="1414.6669,-127.5722 1404.1338,-128.7134 1413.0796,-134.3899 1414.6669,-127.5722"/>
</g>
<!-- Node31&#45;&gt;Node4 -->
<g id="edge57" class="edge">
<title>Node31&#45;&gt;Node4</title>
<path fill="none" stroke="#191970" d="M1417.2482,-224.2455C1421.7435,-216.617 1428.1248,-205.7881 1433.5825,-196.5267"/>
<polygon fill="#191970" stroke="#191970" points="1436.7561,-198.035 1438.8177,-187.6427 1430.7253,-194.4811 1436.7561,-198.035"/>
</g>
<!-- Node31&#45;&gt;Node7 -->
<g id="edge58" class="edge">
<title>Node31&#45;&gt;Node7</title>
<path fill="none" stroke="#191970" d="M1439.2884,-224.4834C1467.9296,-213.092 1506.2158,-192.4574 1489.5,-168 1480.5268,-154.8711 1444.021,-141.8926 1413.961,-133.0862"/>
<polygon fill="#191970" stroke="#191970" points="1414.6393,-129.6402 1404.0629,-130.2654 1412.7208,-136.3722 1414.6393,-129.6402"/>
</g>
<!-- Node32&#45;&gt;Node3 -->
<g id="edge60" class="edge">
<title>Node32&#45;&gt;Node3</title>
<path fill="none" stroke="#191970" d="M422.5252,-168.2455C436.6408,-159.6534 457.4263,-147.0014 473.6899,-137.1018"/>
<polygon fill="#191970" stroke="#191970" points="475.9363,-139.8319 482.6585,-131.6427 472.2966,-133.8525 475.9363,-139.8319"/>
</g>
<!-- Node33&#45;&gt;Node2 -->
<g id="edge64" class="edge">
<title>Node33&#45;&gt;Node2</title>
<path fill="none" stroke="#191970" d="M703.6689,-168.3352C688.53,-154.8108 665.9096,-129.8912 680.5,-112 703.707,-83.5429 810.3378,-72.1931 867.7102,-68.086"/>
<polygon fill="#191970" stroke="#191970" points="868.078,-71.5692 877.8184,-67.4009 867.6046,-64.5852 868.078,-71.5692"/>
</g>
<!-- Node33&#45;&gt;Node3 -->
<g id="edge65" class="edge">
<title>Node33&#45;&gt;Node3</title>
<path fill="none" stroke="#191970" d="M682.5424,-169.4948C642.8658,-159.2557 576.4337,-142.1119 535.1698,-131.4632"/>
<polygon fill="#191970" stroke="#191970" points="535.8103,-128.0139 525.2529,-128.904 534.0611,-134.7918 535.8103,-128.0139"/>
</g>
<!-- Node33&#45;&gt;Node11 -->
<g id="edge66" class="edge">
<title>Node33&#45;&gt;Node11</title>
<path fill="none" stroke="#191970" d="M715.5,-168.2455C715.5,-160.9382 715.5,-150.6944 715.5,-141.7046"/>
<polygon fill="#191970" stroke="#191970" points="719.0001,-141.6426 715.5,-131.6427 712.0001,-141.6427 719.0001,-141.6426"/>
</g>
<!-- Node33&#45;&gt;Node19 -->
<g id="edge63" class="edge">
<title>Node33&#45;&gt;Node19</title>
<path fill="none" stroke="#191970" d="M744.0364,-168.3733C771.5202,-159.1016 813.2686,-145.0178 843.5452,-134.804"/>
<polygon fill="#191970" stroke="#191970" points="844.9794,-138.0141 853.336,-131.5011 842.7418,-131.3813 844.9794,-138.0141"/>
</g>
<!-- Node35&#45;&gt;Node2 -->
<g id="edge71" class="edge">
<title>Node35&#45;&gt;Node2</title>
<path fill="none" stroke="#191970" d="M233.6286,-224.3895C217.7715,-211.3492 194.4407,-187.4463 207.5,-168 244.1725,-113.3919 280.5287,-127.316 344.5,-112 444.5743,-88.0402 760.0391,-72.3299 867.9116,-67.5448"/>
<polygon fill="#191970" stroke="#191970" points="868.1448,-71.0381 877.9818,-67.1032 867.838,-64.0448 868.1448,-71.0381"/>
</g>
<!-- Node35&#45;&gt;Node25 -->
<g id="edge70" class="edge">
<title>Node35&#45;&gt;Node25</title>
<path fill="none" stroke="#191970" d="M246.5,-224.2455C246.5,-216.9382 246.5,-206.6944 246.5,-197.7046"/>
<polygon fill="#191970" stroke="#191970" points="250.0001,-197.6426 246.5,-187.6427 243.0001,-197.6427 250.0001,-197.6426"/>
</g>
</g>
</svg>
