<?xml version="1.0" encoding="UTF-8" standalone="no"?>
<!DOCTYPE svg PUBLIC "-//W3C//DTD SVG 1.1//EN"
 "http://www.w3.org/Graphics/SVG/1.1/DTD/svg11.dtd">
<!-- Generated by graphviz version 2.40.1 (0)
 -->
<!-- Title: jngl/all.hpp Pages: 1 -->
<svg width="1597pt" height="308pt"
 viewBox="0.00 0.00 1596.83 308.00" xmlns="http://www.w3.org/2000/svg" xmlns:xlink="http://www.w3.org/1999/xlink">
<g id="graph0" class="graph" transform="scale(1 1) rotate(0) translate(4 304)">
<title>jngl/all.hpp</title>
<polygon fill="#ffffff" stroke="transparent" points="-4,4 -4,-304 1592.8328,-304 1592.8328,4 -4,4"/>
<!-- Node0 -->
<g id="node1" class="node">
<title>Node0</title>
<g id="a_node1"><a xlink:title="Includes all JNGL headers.">
<polygon fill="#bfbfbf" stroke="#000000" points="657.8328,-280.5 657.8328,-299.5 746.8328,-299.5 746.8328,-280.5 657.8328,-280.5"/>
<text text-anchor="middle" x="702.3328" y="-287.5" font-family="'Consolas',monospace" font-size="10.00" fill="#000000">jngl/all.hpp</text>
</a>
</g>
</g>
<!-- Node1 -->
<g id="node2" class="node">
<title>Node1</title>
<g id="a_node2"><a xlink:href="App_8hpp.html" target="_top" xlink:title=" ">
<polygon fill="#ffffff" stroke="#000000" points="656.8328,-168.5 656.8328,-187.5 715.8328,-187.5 715.8328,-168.5 656.8328,-168.5"/>
<text text-anchor="middle" x="686.3328" y="-175.5" font-family="'Consolas',monospace" font-size="10.00" fill="#000000">App.hpp</text>
</a>
</g>
</g>
<!-- Node0&#45;&gt;Node1 -->
<g id="edge1" class="edge">
<title>Node0&#45;&gt;Node1</title>
<path fill="none" stroke="#191970" d="M700.9686,-280.4509C698.359,-262.184 692.6121,-221.9553 689.1467,-197.6976"/>
<polygon fill="#191970" stroke="#191970" points="692.5726,-196.9294 687.6934,-187.5249 685.6429,-197.9194 692.5726,-196.9294"/>
</g>
<!-- Node4 -->
<g id="node5" class="node">
<title>Node4</title>
<g id="a_node5"><a xlink:href="Color_8hpp.html" target="_top" xlink:title=" ">
<polygon fill="#ffffff" stroke="#000000" points="1103.8328,-168.5 1103.8328,-187.5 1174.8328,-187.5 1174.8328,-168.5 1103.8328,-168.5"/>
<text text-anchor="middle" x="1139.3328" y="-175.5" font-family="'Consolas',monospace" font-size="10.00" fill="#000000">Color.hpp</text>
</a>
</g>
</g>
<!-- Node0&#45;&gt;Node4 -->
<g id="edge4" class="edge">
<title>Node0&#45;&gt;Node4</title>
<path fill="none" stroke="#191970" d="M747.145,-289.0858C836.4335,-286.5611 1032.8855,-277.281 1090.3328,-244 1108.9712,-233.2022 1122.6649,-212.1937 1130.7656,-196.7686"/>
<polygon fill="#191970" stroke="#191970" points="1134.0015,-198.1196 1135.2769,-187.6018 1127.7209,-195.0286 1134.0015,-198.1196"/>
</g>
<!-- Node6 -->
<g id="node7" class="node">
<title>Node6</title>
<g id="a_node7"><a xlink:href="Controller_8hpp.html" target="_top" xlink:title=" ">
<polygon fill="#ffffff" stroke="#000000" points="1309.8328,-224.5 1309.8328,-243.5 1410.8328,-243.5 1410.8328,-224.5 1309.8328,-224.5"/>
<text text-anchor="middle" x="1360.3328" y="-231.5" font-family="'Consolas',monospace" font-size="10.00" fill="#000000">Controller.hpp</text>
</a>
</g>
</g>
<!-- Node0&#45;&gt;Node6 -->
<g id="edge6" class="edge">
<title>Node0&#45;&gt;Node6</title>
<path fill="none" stroke="#191970" d="M747.0768,-287.6819C846.1027,-282.2992 1091.2021,-267.5859 1295.3328,-244 1296.6406,-243.8489 1297.9626,-243.6911 1299.2946,-243.5275"/>
<polygon fill="#191970" stroke="#191970" points="1300.1782,-246.9419 1309.6404,-242.1757 1299.2712,-240.0009 1300.1782,-246.9419"/>
</g>
<!-- Node7 -->
<g id="node8" class="node">
<title>Node7</title>
<g id="a_node8"><a xlink:href="input_8hpp.html" target="_top" xlink:title=" ">
<polygon fill="#ffffff" stroke="#000000" points="1350.8328,-168.5 1350.8328,-187.5 1421.8328,-187.5 1421.8328,-168.5 1350.8328,-168.5"/>
<text text-anchor="middle" x="1386.3328" y="-175.5" font-family="'Consolas',monospace" font-size="10.00" fill="#000000">input.hpp</text>
</a>
</g>
</g>
<!-- Node0&#45;&gt;Node7 -->
<g id="edge45" class="edge">
<title>Node0&#45;&gt;Node7</title>
<path fill="none" stroke="#191970" d="M747.042,-288.66C862.0611,-284.8413 1165.9249,-272.3016 1262.3328,-244 1264.9372,-243.2354 1323.925,-211.5955 1359.5898,-192.4069"/>
<polygon fill="#191970" stroke="#191970" points="1361.3887,-195.4135 1368.5354,-187.592 1358.071,-189.2496 1361.3887,-195.4135"/>
</g>
<!-- Node14 -->
<g id="node15" class="node">
<title>Node14</title>
<g id="a_node15"><a xlink:href="Shader_8hpp.html" target="_top" xlink:title=" ">
<polygon fill="#ffffff" stroke="#000000" points="236.8328,-112.5 236.8328,-131.5 313.8328,-131.5 313.8328,-112.5 236.8328,-112.5"/>
<text text-anchor="middle" x="275.3328" y="-119.5" font-family="'Consolas',monospace" font-size="10.00" fill="#000000">Shader.hpp</text>
</a>
</g>
</g>
<!-- Node0&#45;&gt;Node14 -->
<g id="edge15" class="edge">
<title>Node0&#45;&gt;Node14</title>
<path fill="none" stroke="#191970" d="M657.5515,-288.7468C521.4517,-284.6635 118.7807,-270.4563 66.3328,-244 37.0649,-229.2364 29.7059,-218.7444 18.3328,-188 15.2488,-179.6632 12.6029,-174.7957 18.3328,-168 47.1245,-133.8525 167.0992,-140.04 226.5985,-131.9802"/>
<polygon fill="#191970" stroke="#191970" points="227.3137,-135.4102 236.6289,-130.3626 226.1991,-128.4995 227.3137,-135.4102"/>
</g>
<!-- Node15 -->
<g id="node16" class="node">
<title>Node15</title>
<g id="a_node16"><a xlink:href="ShaderProgram_8hpp.html" target="_top" xlink:title=" ">
<polygon fill="#ffffff" stroke="#000000" points="99.8328,-112.5 99.8328,-131.5 218.8328,-131.5 218.8328,-112.5 99.8328,-112.5"/>
<text text-anchor="middle" x="159.3328" y="-119.5" font-family="'Consolas',monospace" font-size="10.00" fill="#000000">ShaderProgram.hpp</text>
</a>
</g>
</g>
<!-- Node0&#45;&gt;Node15 -->
<g id="edge17" class="edge">
<title>Node0&#45;&gt;Node15</title>
<path fill="none" stroke="#191970" d="M657.804,-289.6286C516.3872,-288.082 83.7891,-280.3935 33.3328,-244 4.7106,-223.3553 -10.6201,-196.3973 10.3328,-168 20.9847,-153.5634 60.5457,-141.7453 96.2263,-133.704"/>
<polygon fill="#191970" stroke="#191970" points="97.1357,-137.088 106.1599,-131.537 95.6437,-130.2488 97.1357,-137.088"/>
</g>
<!-- Node17 -->
<g id="node18" class="node">
<title>Node17</title>
<g id="a_node18"><a xlink:href="Vertex_8hpp.html" target="_top" xlink:title=" ">
<polygon fill="#ffffff" stroke="#000000" points="360.8328,-224.5 360.8328,-243.5 437.8328,-243.5 437.8328,-224.5 360.8328,-224.5"/>
<text text-anchor="middle" x="399.3328" y="-231.5" font-family="'Consolas',monospace" font-size="10.00" fill="#000000">Vertex.hpp</text>
</a>
</g>
</g>
<!-- Node0&#45;&gt;Node17 -->
<g id="edge21" class="edge">
<title>Node0&#45;&gt;Node17</title>
<path fill="none" stroke="#191970" d="M657.6126,-281.8344C607.5842,-272.685 524.1343,-257.3794 452.3328,-244 450.8944,-243.732 449.4342,-243.4594 447.9602,-243.1839"/>
<polygon fill="#191970" stroke="#191970" points="448.5899,-239.741 438.1162,-241.3386 447.3001,-246.6212 448.5899,-239.741"/>
</g>
<!-- Node18 -->
<g id="node19" class="node">
<title>Node18</title>
<g id="a_node19"><a xlink:href="Video_8hpp.html" target="_top" xlink:title=" ">
<polygon fill="#ffffff" stroke="#000000" points="738.8328,-224.5 738.8328,-243.5 809.8328,-243.5 809.8328,-224.5 738.8328,-224.5"/>
<text text-anchor="middle" x="774.3328" y="-231.5" font-family="'Consolas',monospace" font-size="10.00" fill="#000000">Video.hpp</text>
</a>
</g>
</g>
<!-- Node0&#45;&gt;Node18 -->
<g id="edge22" class="edge">
<title>Node0&#45;&gt;Node18</title>
<path fill="none" stroke="#191970" d="M714.8742,-280.2455C725.6115,-271.8943 741.2801,-259.7076 753.8374,-249.9408"/>
<polygon fill="#191970" stroke="#191970" points="756.1903,-252.5449 761.935,-243.6427 751.8927,-247.0194 756.1903,-252.5449"/>
</g>
<!-- Node19 -->
<g id="node20" class="node">
<title>Node19</title>
<g id="a_node20"><a xlink:href="sprite_8hpp_source.html" target="_top" xlink:title=" ">
<polygon fill="#ffffff" stroke="#000000" points="810.8328,-168.5 810.8328,-187.5 887.8328,-187.5 887.8328,-168.5 810.8328,-168.5"/>
<text text-anchor="middle" x="849.3328" y="-175.5" font-family="'Consolas',monospace" font-size="10.00" fill="#000000">sprite.hpp</text>
</a>
</g>
</g>
<!-- Node0&#45;&gt;Node19 -->
<g id="edge69" class="edge">
<title>Node0&#45;&gt;Node19</title>
<path fill="none" stroke="#191970" d="M747.0591,-281.028C770.9601,-274.282 799.4667,-262.8585 819.3328,-244 832.4264,-231.5704 840.2654,-212.3495 844.6276,-197.8498"/>
<polygon fill="#191970" stroke="#191970" points="848.0936,-198.4389 847.315,-187.8728 841.3345,-196.6182 848.0936,-198.4389"/>
</g>
<!-- Node20 -->
<g id="node21" class="node">
<title>Node20</title>
<g id="a_node21"><a xlink:href="drawable_8hpp_source.html" target="_top" xlink:title=" ">
<polygon fill="#ffffff" stroke="#000000" points="887.8328,-112.5 887.8328,-131.5 976.8328,-131.5 976.8328,-112.5 887.8328,-112.5"/>
<text text-anchor="middle" x="932.3328" y="-119.5" font-family="'Consolas',monospace" font-size="10.00" fill="#000000">drawable.hpp</text>
</a>
</g>
</g>
<!-- Node0&#45;&gt;Node20 -->
<g id="edge37" class="edge">
<title>Node0&#45;&gt;Node20</title>
<path fill="none" stroke="#191970" d="M746.847,-280.6308C818.819,-264.4217 955.2436,-228.9259 980.3328,-188 991.4055,-169.938 973.1662,-150.4583 956.0799,-137.3796"/>
<polygon fill="#191970" stroke="#191970" points="958.0796,-134.5066 947.9181,-131.5075 953.9915,-140.1888 958.0796,-134.5066"/>
</g>
<!-- Node21 -->
<g id="node22" class="node">
<title>Node21</title>
<g id="a_node22"><a xlink:href="debug_8hpp_source.html" target="_top" xlink:title=" ">
<polygon fill="#ffffff" stroke="#000000" points="176.8328,-224.5 176.8328,-243.5 247.8328,-243.5 247.8328,-224.5 176.8328,-224.5"/>
<text text-anchor="middle" x="212.3328" y="-231.5" font-family="'Consolas',monospace" font-size="10.00" fill="#000000">debug.hpp</text>
</a>
</g>
</g>
<!-- Node0&#45;&gt;Node21 -->
<g id="edge33" class="edge">
<title>Node0&#45;&gt;Node21</title>
<path fill="none" stroke="#191970" d="M657.5785,-287.0943C578.836,-281.6082 410.253,-268.1943 258.1179,-243.957"/>
<polygon fill="#191970" stroke="#191970" points="258.5517,-240.4818 248.122,-242.3449 257.4371,-247.3925 258.5517,-240.4818"/>
</g>
<!-- Node22 -->
<g id="node23" class="node">
<title>Node22</title>
<g id="a_node23"><a xlink:href="message_8hpp.html" target="_top" xlink:title=" ">
<polygon fill="#ffffff" stroke="#000000" points="332.8328,-168.5 332.8328,-187.5 415.8328,-187.5 415.8328,-168.5 332.8328,-168.5"/>
<text text-anchor="middle" x="374.3328" y="-175.5" font-family="'Consolas',monospace" font-size="10.00" fill="#000000">message.hpp</text>
</a>
</g>
</g>
<!-- Node0&#45;&gt;Node22 -->
<g id="edge59" class="edge">
<title>Node0&#45;&gt;Node22</title>
<path fill="none" stroke="#191970" d="M658.0118,-280.4183C622.0792,-272.174 570.3589,-259.2221 526.3328,-244 505.2634,-236.7152 500.7803,-232.8818 480.3328,-224 455.2354,-213.0984 426.7906,-200.7551 405.69,-191.6011"/>
<polygon fill="#191970" stroke="#191970" points="406.8269,-188.2792 396.26,-187.5104 404.0411,-194.701 406.8269,-188.2792"/>
</g>
<!-- Node24 -->
<g id="node25" class="node">
<title>Node24</title>
<g id="a_node25"><a xlink:href="font_8hpp.html" target="_top" xlink:title=" ">
<polygon fill="#ffffff" stroke="#000000" points="1015.8328,-224.5 1015.8328,-243.5 1080.8328,-243.5 1080.8328,-224.5 1015.8328,-224.5"/>
<text text-anchor="middle" x="1048.3328" y="-231.5" font-family="'Consolas',monospace" font-size="10.00" fill="#000000">font.hpp</text>
</a>
</g>
</g>
<!-- Node0&#45;&gt;Node24 -->
<g id="edge38" class="edge">
<title>Node0&#45;&gt;Node24</title>
<path fill="none" stroke="#191970" d="M747.044,-283.9322C805.6162,-275.7979 911.4424,-260.4636 1001.3328,-244 1002.7944,-243.7323 1004.2802,-243.4534 1005.7797,-243.1662"/>
<polygon fill="#191970" stroke="#191970" points="1006.6392,-246.564 1015.7644,-241.1805 1005.2737,-239.6984 1006.6392,-246.564"/>
</g>
<!-- Node25 -->
<g id="node26" class="node">
<title>Node25</title>
<g id="a_node26"><a xlink:href="framebuffer_8hpp_source.html" target="_top" xlink:title=" ">
<polygon fill="#ffffff" stroke="#000000" points="1192.8328,-168.5 1192.8328,-187.5 1293.8328,-187.5 1293.8328,-168.5 1192.8328,-168.5"/>
<text text-anchor="middle" x="1243.3328" y="-175.5" font-family="'Consolas',monospace" font-size="10.00" fill="#000000">framebuffer.hpp</text>
</a>
</g>
</g>
<!-- Node0&#45;&gt;Node25 -->
<g id="edge42" class="edge">
<title>Node0&#45;&gt;Node25</title>
<path fill="none" stroke="#191970" d="M747.0787,-287.0487C839.0619,-280.6484 1046.442,-264.411 1114.3328,-244 1153.6397,-232.1826 1195.242,-208.6199 1220.2479,-193.0832"/>
<polygon fill="#191970" stroke="#191970" points="1222.3975,-195.8651 1228.9796,-187.5629 1218.6568,-189.9483 1222.3975,-195.8651"/>
</g>
<!-- Node26 -->
<g id="node27" class="node">
<title>Node26</title>
<g id="a_node27"><a xlink:href="job_8hpp.html" target="_top" xlink:title=" ">
<polygon fill="#ffffff" stroke="#000000" points="331.8328,-112.5 331.8328,-131.5 390.8328,-131.5 390.8328,-112.5 331.8328,-112.5"/>
<text text-anchor="middle" x="361.3328" y="-119.5" font-family="'Consolas',monospace" font-size="10.00" fill="#000000">job.hpp</text>
</a>
</g>
</g>
<!-- Node0&#45;&gt;Node26 -->
<g id="edge46" class="edge">
<title>Node0&#45;&gt;Node26</title>
<path fill="none" stroke="#191970" d="M657.6897,-289.0849C540.5492,-286.2616 226.6459,-275.859 128.3328,-244 82.7959,-229.2435 59.7845,-229.7297 36.3328,-188 -3.134,-117.7735 -55.7221,-203.9918 321.6934,-132.1306"/>
<polygon fill="#191970" stroke="#191970" points="322.3879,-135.5613 331.5479,-130.2372 321.0671,-128.687 322.3879,-135.5613"/>
</g>
<!-- Node27 -->
<g id="node28" class="node">
<title>Node27</title>
<g id="a_node28"><a xlink:href="main_8hpp_source.html" target="_top" xlink:title=" ">
<polygon fill="#ffffff" stroke="#000000" points="570.8328,-224.5 570.8328,-243.5 635.8328,-243.5 635.8328,-224.5 570.8328,-224.5"/>
<text text-anchor="middle" x="603.3328" y="-231.5" font-family="'Consolas',monospace" font-size="10.00" fill="#000000">main.hpp</text>
</a>
</g>
</g>
<!-- Node0&#45;&gt;Node27 -->
<g id="edge48" class="edge">
<title>Node0&#45;&gt;Node27</title>
<path fill="none" stroke="#191970" d="M685.0883,-280.2455C669.7567,-271.5731 647.1129,-258.7645 629.5412,-248.825"/>
<polygon fill="#191970" stroke="#191970" points="630.8069,-245.5198 620.3796,-243.6427 627.3604,-251.6126 630.8069,-245.5198"/>
</g>
<!-- Node28 -->
<g id="node29" class="node">
<title>Node28</title>
<g id="a_node29"><a xlink:href="other_8hpp.html" target="_top" xlink:title=" ">
<polygon fill="#ffffff" stroke="#000000" points="567.8328,-168.5 567.8328,-187.5 638.8328,-187.5 638.8328,-168.5 567.8328,-168.5"/>
<text text-anchor="middle" x="603.3328" y="-175.5" font-family="'Consolas',monospace" font-size="10.00" fill="#000000">other.hpp</text>
</a>
</g>
</g>
<!-- Node0&#45;&gt;Node28 -->
<g id="edge60" class="edge">
<title>Node0&#45;&gt;Node28</title>
<path fill="none" stroke="#191970" d="M693.9188,-280.0862C682.8714,-267.1093 662.8252,-243.6978 645.3328,-224 636.8438,-214.4408 627.2386,-203.9007 619.3583,-195.3242"/>
<polygon fill="#191970" stroke="#191970" points="621.7745,-192.7814 612.4242,-187.7992 616.6267,-197.5249 621.7745,-192.7814"/>
</g>
<!-- Node29 -->
<g id="node30" class="node">
<title>Node29</title>
<g id="a_node30"><a xlink:href="window_8hpp.html" target="_top" xlink:title="Functions related to the main window.">
<polygon fill="#ffffff" stroke="#000000" points="433.8328,-168.5 433.8328,-187.5 510.8328,-187.5 510.8328,-168.5 433.8328,-168.5"/>
<text text-anchor="middle" x="472.3328" y="-175.5" font-family="'Consolas',monospace" font-size="10.00" fill="#000000">window.hpp</text>
</a>
</g>
</g>
<!-- Node0&#45;&gt;Node29 -->
<g id="edge76" class="edge">
<title>Node0&#45;&gt;Node29</title>
<path fill="none" stroke="#191970" d="M662.38,-280.4815C633.6233,-272.7797 594.4108,-260.5011 562.3328,-244 535.5318,-230.2135 508.0731,-208.8144 490.6504,-194.1433"/>
<polygon fill="#191970" stroke="#191970" points="492.8212,-191.3942 482.9505,-187.5444 488.2661,-196.7094 492.8212,-191.3942"/>
</g>
<!-- Node30 -->
<g id="node31" class="node">
<title>Node30</title>
<g id="a_node31"><a xlink:href="matrix_8hpp_source.html" target="_top" xlink:title=" ">
<polygon fill="#ffffff" stroke="#000000" points="265.8328,-224.5 265.8328,-243.5 342.8328,-243.5 342.8328,-224.5 265.8328,-224.5"/>
<text text-anchor="middle" x="304.3328" y="-231.5" font-family="'Consolas',monospace" font-size="10.00" fill="#000000">matrix.hpp</text>
</a>
</g>
</g>
<!-- Node0&#45;&gt;Node30 -->
<g id="edge57" class="edge">
<title>Node0&#45;&gt;Node30</title>
<path fill="none" stroke="#191970" d="M657.6971,-285.2153C592.9072,-278.0327 468.8307,-263.387 353.15,-244.0312"/>
<polygon fill="#191970" stroke="#191970" points="353.5015,-240.5411 343.0583,-242.3268 352.3357,-247.4433 353.5015,-240.5411"/>
</g>
<!-- Node31 -->
<g id="node32" class="node">
<title>Node31</title>
<g id="a_node32"><a xlink:href="screen_8hpp.html" target="_top" xlink:title=" ">
<polygon fill="#ffffff" stroke="#000000" points="1511.8328,-224.5 1511.8328,-243.5 1588.8328,-243.5 1588.8328,-224.5 1511.8328,-224.5"/>
<text text-anchor="middle" x="1550.3328" y="-231.5" font-family="'Consolas',monospace" font-size="10.00" fill="#000000">screen.hpp</text>
</a>
</g>
</g>
<!-- Node0&#45;&gt;Node31 -->
<g id="edge61" class="edge">
<title>Node0&#45;&gt;Node31</title>
<path fill="none" stroke="#191970" d="M746.9846,-288.3331C889.984,-282.8565 1336.4436,-264.6526 1501.6819,-244.0099"/>
<polygon fill="#191970" stroke="#191970" points="1502.2199,-247.4695 1511.6855,-242.7102 1501.3179,-240.5278 1502.2199,-247.4695"/>
</g>
<!-- Node32 -->
<g id="node33" class="node">
<title>Node32</title>
<g id="a_node33"><a xlink:href="shapes_8hpp.html" target="_top" xlink:title=" ">
<polygon fill="#ffffff" stroke="#000000" points="1175.8328,-224.5 1175.8328,-243.5 1252.8328,-243.5 1252.8328,-224.5 1175.8328,-224.5"/>
<text text-anchor="middle" x="1214.3328" y="-231.5" font-family="'Consolas',monospace" font-size="10.00" fill="#000000">shapes.hpp</text>
</a>
</g>
</g>
<!-- Node0&#45;&gt;Node32 -->
<g id="edge63" class="edge">
<title>Node0&#45;&gt;Node32</title>
<path fill="none" stroke="#191970" d="M747.1205,-286.8067C829.4185,-280.6516 1010.1308,-265.7991 1161.3328,-244 1162.7809,-243.7912 1164.2496,-243.5707 1165.7312,-243.3406"/>
<polygon fill="#191970" stroke="#191970" points="1166.3152,-246.7916 1175.6101,-241.7068 1165.173,-239.8854 1166.3152,-246.7916"/>
</g>
<!-- Node33 -->
<g id="node34" class="node">
<title>Node33</title>
<g id="a_node34"><a xlink:href="sound_8hpp_source.html" target="_top" xlink:title=" ">
<polygon fill="#ffffff" stroke="#000000" points="243.8328,-168.5 243.8328,-187.5 314.8328,-187.5 314.8328,-168.5 243.8328,-168.5"/>
<text text-anchor="middle" x="279.3328" y="-175.5" font-family="'Consolas',monospace" font-size="10.00" fill="#000000">sound.hpp</text>
</a>
</g>
</g>
<!-- Node0&#45;&gt;Node33 -->
<g id="edge66" class="edge">
<title>Node0&#45;&gt;Node33</title>
<path fill="none" stroke="#191970" d="M657.6723,-285.2766C611.9101,-279.4028 539.3087,-267.1866 480.3328,-244 464.3719,-237.725 463.0882,-230.7742 447.3328,-224 425.4533,-214.5928 366.8975,-199.3474 325.0811,-189.0094"/>
<polygon fill="#191970" stroke="#191970" points="325.6552,-185.5464 315.1088,-186.5583 323.9844,-192.3441 325.6552,-185.5464"/>
</g>
<!-- Node34 -->
<g id="node35" class="node">
<title>Node34</title>
<g id="a_node35"><a xlink:href="text_8hpp.html" target="_top" xlink:title=" ">
<polygon fill="#ffffff" stroke="#000000" points="905.8328,-168.5 905.8328,-187.5 970.8328,-187.5 970.8328,-168.5 905.8328,-168.5"/>
<text text-anchor="middle" x="938.3328" y="-175.5" font-family="'Consolas',monospace" font-size="10.00" fill="#000000">text.hpp</text>
</a>
</g>
</g>
<!-- Node0&#45;&gt;Node34 -->
<g id="edge70" class="edge">
<title>Node0&#45;&gt;Node34</title>
<path fill="none" stroke="#191970" d="M740.0216,-280.4261C768.3916,-272.5149 807.8153,-259.9984 840.3328,-244 869.0627,-229.865 899.1918,-208.4296 918.3325,-193.8517"/>
<polygon fill="#191970" stroke="#191970" points="920.5369,-196.5715 926.3092,-187.6872 916.2564,-191.0328 920.5369,-196.5715"/>
</g>
<!-- Node35 -->
<g id="node36" class="node">
<title>Node35</title>
<g id="a_node36"><a xlink:href="time_8hpp.html" target="_top" xlink:title=" ">
<polygon fill="#ffffff" stroke="#000000" points="1428.8328,-224.5 1428.8328,-243.5 1493.8328,-243.5 1493.8328,-224.5 1428.8328,-224.5"/>
<text text-anchor="middle" x="1461.3328" y="-231.5" font-family="'Consolas',monospace" font-size="10.00" fill="#000000">time.hpp</text>
</a>
</g>
</g>
<!-- Node0&#45;&gt;Node35 -->
<g id="edge75" class="edge">
<title>Node0&#45;&gt;Node35</title>
<path fill="none" stroke="#191970" d="M747.0737,-288.1626C879.7589,-282.5547 1270.5423,-264.8528 1418.5332,-243.9966"/>
<polygon fill="#191970" stroke="#191970" points="1419.379,-247.4099 1428.7621,-242.4897 1418.3587,-240.4846 1419.379,-247.4099"/>
</g>
<!-- Node36 -->
<g id="node37" class="node">
<title>Node36</title>
<g id="a_node37"><a xlink:href="work_8hpp.html" target="_top" xlink:title=" ">
<polygon fill="#ffffff" stroke="#000000" points="44.8328,-168.5 44.8328,-187.5 109.8328,-187.5 109.8328,-168.5 44.8328,-168.5"/>
<text text-anchor="middle" x="77.3328" y="-175.5" font-family="'Consolas',monospace" font-size="10.00" fill="#000000">work.hpp</text>
</a>
</g>
</g>
<!-- Node0&#45;&gt;Node36 -->
<g id="edge77" class="edge">
<title>Node0&#45;&gt;Node36</title>
<path fill="none" stroke="#191970" d="M657.4293,-289.2069C545.6668,-286.7445 257.5978,-277.2647 168.3328,-244 139.4151,-233.2238 111.5023,-210.5795 94.3857,-194.8397"/>
<polygon fill="#191970" stroke="#191970" points="96.5624,-192.0808 86.8932,-187.7498 91.7511,-197.1653 96.5624,-192.0808"/>
</g>
<!-- Node2 -->
<g id="node3" class="node">
<title>Node2</title>
<g id="a_node3"><a doxygen="/w/doc/cppreference-doxygen-web.tag.xml:http://en.cppreference.com/w/" xlink:href="http://en.cppreference.com/w/cpp/header/memory.html" xlink:title=" ">
<polygon fill="#ffffff" stroke="#000000" points="723.8328,-56.5 723.8328,-75.5 776.8328,-75.5 776.8328,-56.5 723.8328,-56.5"/>
<text text-anchor="middle" x="750.3328" y="-63.5" font-family="'Consolas',monospace" font-size="10.00" fill="#000000">memory</text>
</a>
</g>
</g>
<!-- Node1&#45;&gt;Node2 -->
<g id="edge2" class="edge">
<title>Node1&#45;&gt;Node2</title>
<path fill="none" stroke="#191970" d="M691.7894,-168.4509C702.4166,-149.8533 726.0517,-108.4919 739.8205,-84.3964"/>
<polygon fill="#191970" stroke="#191970" points="742.9674,-85.9438 744.89,-75.5249 736.8897,-82.4708 742.9674,-85.9438"/>
</g>
<!-- Node3 -->
<g id="node4" class="node">
<title>Node3</title>
<g id="a_node4"><a doxygen="/w/doc/cppreference-doxygen-web.tag.xml:http://en.cppreference.com/w/" xlink:href="http://en.cppreference.com/w/cpp/header/string.html" xlink:title=" ">
<polygon fill="#ffffff" stroke="#000000" points="595.8328,-112.5 595.8328,-131.5 648.8328,-131.5 648.8328,-112.5 595.8328,-112.5"/>
<text text-anchor="middle" x="622.3328" y="-119.5" font-family="'Consolas',monospace" font-size="10.00" fill="#000000">string</text>
</a>
</g>
</g>
<!-- Node1&#45;&gt;Node3 -->
<g id="edge3" class="edge">
<title>Node1&#45;&gt;Node3</title>
<path fill="none" stroke="#191970" d="M675.1848,-168.2455C665.8241,-160.0549 652.247,-148.1749 641.1978,-138.5069"/>
<polygon fill="#191970" stroke="#191970" points="643.1835,-135.5937 633.353,-131.6427 638.574,-140.8618 643.1835,-135.5937"/>
</g>
<!-- Node5 -->
<g id="node6" class="node">
<title>Node5</title>
<g id="a_node6"><a xlink:href="dll_8hpp_source.html" target="_top" xlink:title=" ">
<polygon fill="#ffffff" stroke="#000000" points="447.8328,-112.5 447.8328,-131.5 506.8328,-131.5 506.8328,-112.5 447.8328,-112.5"/>
<text text-anchor="middle" x="477.3328" y="-119.5" font-family="'Consolas',monospace" font-size="10.00" fill="#000000">dll.hpp</text>
</a>
</g>
</g>
<!-- Node4&#45;&gt;Node5 -->
<g id="edge5" class="edge">
<title>Node4&#45;&gt;Node5</title>
<path fill="none" stroke="#191970" d="M1103.8064,-175.1326C1016.1054,-168.0338 782.2911,-148.9848 587.3328,-132 564.1263,-129.9783 538.1753,-127.6235 517.3096,-125.7071"/>
<polygon fill="#191970" stroke="#191970" points="517.4859,-122.2086 507.2071,-124.777 516.8441,-129.1791 517.4859,-122.2086"/>
</g>
<!-- Node6&#45;&gt;Node7 -->
<g id="edge7" class="edge">
<title>Node6&#45;&gt;Node7</title>
<path fill="none" stroke="#191970" d="M1364.8616,-224.2455C1368.3661,-216.6973 1373.3254,-206.0158 1377.595,-196.8197"/>
<polygon fill="#191970" stroke="#191970" points="1380.8192,-198.1867 1381.8558,-187.6427 1374.4701,-195.2389 1380.8192,-198.1867"/>
</g>
<!-- Node13 -->
<g id="node14" class="node">
<title>Node13</title>
<g id="a_node14"><a doxygen="/w/doc/cppreference-doxygen-web.tag.xml:http://en.cppreference.com/w/" xlink:href="http://en.cppreference.com/w/cpp/header/chrono.html" xlink:title=" ">
<polygon fill="#ffffff" stroke="#000000" points="1439.8328,-168.5 1439.8328,-187.5 1492.8328,-187.5 1492.8328,-168.5 1439.8328,-168.5"/>
<text text-anchor="middle" x="1466.3328" y="-175.5" font-family="'Consolas',monospace" font-size="10.00" fill="#000000">chrono</text>
</a>
</g>
</g>
<!-- Node6&#45;&gt;Node13 -->
<g id="edge14" class="edge">
<title>Node6&#45;&gt;Node13</title>
<path fill="none" stroke="#191970" d="M1378.7965,-224.2455C1395.4402,-215.4527 1420.132,-202.4079 1439.0519,-192.4125"/>
<polygon fill="#191970" stroke="#191970" points="1440.8735,-195.4086 1448.0805,-187.6427 1437.6037,-189.2193 1440.8735,-195.4086"/>
</g>
<!-- Node7&#45;&gt;Node2 -->
<g id="edge12" class="edge">
<title>Node7&#45;&gt;Node2</title>
<path fill="none" stroke="#191970" d="M1376.4054,-168.4949C1360.0085,-153.4598 1325.5624,-124.6062 1290.3328,-112 1197.2983,-78.7095 893.4256,-69.081 787.3073,-66.6966"/>
<polygon fill="#191970" stroke="#191970" points="787.1635,-63.1928 777.0902,-66.4759 787.0123,-70.1912 787.1635,-63.1928"/>
</g>
<!-- Node8 -->
<g id="node9" class="node">
<title>Node8</title>
<g id="a_node9"><a xlink:href="Vec2_8hpp.html" target="_top" xlink:title=" ">
<polygon fill="#ffffff" stroke="#000000" points="1215.8328,-112.5 1215.8328,-131.5 1280.8328,-131.5 1280.8328,-112.5 1215.8328,-112.5"/>
<text text-anchor="middle" x="1248.3328" y="-119.5" font-family="'Consolas',monospace" font-size="10.00" fill="#000000">Vec2.hpp</text>
</a>
</g>
</g>
<!-- Node7&#45;&gt;Node8 -->
<g id="edge8" class="edge">
<title>Node7&#45;&gt;Node8</title>
<path fill="none" stroke="#191970" d="M1362.6097,-168.3733C1340.1591,-159.2629 1306.2588,-145.5062 1281.2073,-135.3404"/>
<polygon fill="#191970" stroke="#191970" points="1282.3284,-132.0182 1271.7462,-131.5011 1279.6963,-138.5045 1282.3284,-132.0182"/>
</g>
<!-- Node11 -->
<g id="node12" class="node">
<title>Node11</title>
<g id="a_node12"><a doxygen="/w/doc/cppreference-doxygen-web.tag.xml:http://en.cppreference.com/w/" xlink:href="http://en.cppreference.com/w/cpp/header/functional.html" xlink:title=" ">
<polygon fill="#ffffff" stroke="#000000" points="901.8328,-.5 901.8328,-19.5 978.8328,-19.5 978.8328,-.5 901.8328,-.5"/>
<text text-anchor="middle" x="940.3328" y="-7.5" font-family="'Consolas',monospace" font-size="10.00" fill="#000000">functional</text>
</a>
</g>
</g>
<!-- Node7&#45;&gt;Node11 -->
<g id="edge11" class="edge">
<title>Node7&#45;&gt;Node11</title>
<path fill="none" stroke="#191970" d="M1384.4554,-168.3727C1379.2911,-144.725 1362.4994,-83.7016 1322.3328,-56 1295.4069,-37.4301 1086.0734,-20.3488 989.2105,-13.3484"/>
<polygon fill="#191970" stroke="#191970" points="989.3089,-9.8466 979.0845,-12.6237 988.8092,-16.8287 989.3089,-9.8466"/>
</g>
<!-- Node12 -->
<g id="node13" class="node">
<title>Node12</title>
<g id="a_node13"><a doxygen="/w/doc/cppreference-doxygen-web.tag.xml:http://en.cppreference.com/w/" xlink:href="http://en.cppreference.com/w/cpp/header/vector.html" xlink:title=" ">
<polygon fill="#ffffff" stroke="#000000" points="816.8328,-112.5 816.8328,-131.5 869.8328,-131.5 869.8328,-112.5 816.8328,-112.5"/>
<text text-anchor="middle" x="843.3328" y="-119.5" font-family="'Consolas',monospace" font-size="10.00" fill="#000000">vector</text>
</a>
</g>
</g>
<!-- Node7&#45;&gt;Node12 -->
<g id="edge13" class="edge">
<title>Node7&#45;&gt;Node12</title>
<path fill="none" stroke="#191970" d="M1350.8203,-173.4428C1336.1345,-171.6307 1318.9258,-169.6008 1303.3328,-168 1118.4143,-149.016 1067.213,-164.8911 879.8398,-131.7595"/>
<polygon fill="#191970" stroke="#191970" points="880.4018,-128.3045 869.9414,-129.9864 879.1675,-135.1948 880.4018,-128.3045"/>
</g>
<!-- Node9 -->
<g id="node10" class="node">
<title>Node9</title>
<g id="a_node10"><a xlink:title=" ">
<polygon fill="#ffffff" stroke="#bfbfbf" points="1122.8328,-56.5 1122.8328,-75.5 1241.8328,-75.5 1241.8328,-56.5 1122.8328,-56.5"/>
<text text-anchor="middle" x="1182.3328" y="-63.5" font-family="'Consolas',monospace" font-size="10.00" fill="#000000">boost/version.hpp</text>
</a>
</g>
</g>
<!-- Node8&#45;&gt;Node9 -->
<g id="edge9" class="edge">
<title>Node8&#45;&gt;Node9</title>
<path fill="none" stroke="#191970" d="M1236.8364,-112.2455C1227.0886,-103.9746 1212.9068,-91.9416 1201.453,-82.2232"/>
<polygon fill="#191970" stroke="#191970" points="1203.5869,-79.4437 1193.6973,-75.6427 1199.058,-84.7813 1203.5869,-79.4437"/>
</g>
<!-- Node10 -->
<g id="node11" class="node">
<title>Node10</title>
<g id="a_node11"><a doxygen="/w/doc/cppreference-doxygen-web.tag.xml:http://en.cppreference.com/w/" xlink:href="http://en.cppreference.com/w/cpp/header/iosfwd.html" xlink:title=" ">
<polygon fill="#ffffff" stroke="#000000" points="1259.8328,-56.5 1259.8328,-75.5 1312.8328,-75.5 1312.8328,-56.5 1259.8328,-56.5"/>
<text text-anchor="middle" x="1286.3328" y="-63.5" font-family="'Consolas',monospace" font-size="10.00" fill="#000000">iosfwd</text>
</a>
</g>
</g>
<!-- Node8&#45;&gt;Node10 -->
<g id="edge10" class="edge">
<title>Node8&#45;&gt;Node10</title>
<path fill="none" stroke="#191970" d="M1254.9518,-112.2455C1260.2373,-104.4564 1267.7869,-93.3308 1274.1565,-83.9439"/>
<polygon fill="#191970" stroke="#191970" points="1277.0706,-85.8827 1279.7895,-75.6427 1271.2783,-81.9522 1277.0706,-85.8827"/>
</g>
<!-- Node14&#45;&gt;Node2 -->
<g id="edge16" class="edge">
<title>Node14&#45;&gt;Node2</title>
<path fill="none" stroke="#191970" d="M314.0454,-113.5949C317.1808,-113.0179 320.3057,-112.4772 323.3328,-112 466.8896,-89.3695 639.3766,-74.5336 713.5194,-68.7419"/>
<polygon fill="#191970" stroke="#191970" points="714.0291,-72.213 723.7298,-67.9532 713.4899,-65.2338 714.0291,-72.213"/>
</g>
<!-- Node15&#45;&gt;Node2 -->
<g id="edge20" class="edge">
<title>Node15&#45;&gt;Node2</title>
<path fill="none" stroke="#191970" d="M219.145,-113.1223C222.2502,-112.727 225.327,-112.35 228.3328,-112 409.884,-90.8615 627.9752,-74.5703 713.436,-68.5373"/>
<polygon fill="#191970" stroke="#191970" points="713.9299,-72.0114 723.6603,-67.82 713.4399,-65.0285 713.9299,-72.0114"/>
</g>
<!-- Node16 -->
<g id="node17" class="node">
<title>Node16</title>
<g id="a_node17"><a xlink:href="Finally_8hpp.html" target="_top" xlink:title=" ">
<polygon fill="#ffffff" stroke="#000000" points="497.8328,-56.5 497.8328,-75.5 580.8328,-75.5 580.8328,-56.5 497.8328,-56.5"/>
<text text-anchor="middle" x="539.3328" y="-63.5" font-family="'Consolas',monospace" font-size="10.00" fill="#000000">Finally.hpp</text>
</a>
</g>
</g>
<!-- Node15&#45;&gt;Node16 -->
<g id="edge18" class="edge">
<title>Node15&#45;&gt;Node16</title>
<path fill="none" stroke="#191970" d="M219.1258,-113.1884C293.1334,-102.282 417.9244,-83.8918 487.8619,-73.5852"/>
<polygon fill="#191970" stroke="#191970" points="488.3871,-77.0457 497.7699,-72.125 487.3665,-70.1205 488.3871,-77.0457"/>
</g>
<!-- Node16&#45;&gt;Node11 -->
<g id="edge19" class="edge">
<title>Node16&#45;&gt;Node11</title>
<path fill="none" stroke="#191970" d="M581.112,-60.1655C655.7916,-49.7364 811.7902,-27.9511 891.3672,-16.8381"/>
<polygon fill="#191970" stroke="#191970" points="892.1896,-20.2573 901.6093,-15.4078 891.2213,-13.3246 892.1896,-20.2573"/>
</g>
<!-- Node18&#45;&gt;Node2 -->
<g id="edge31" class="edge">
<title>Node18&#45;&gt;Node2</title>
<path fill="none" stroke="#191970" d="M772.9736,-224.4862C769.1798,-197.9293 758.4135,-122.5651 753.2135,-86.1655"/>
<polygon fill="#191970" stroke="#191970" points="756.6159,-85.2324 751.7367,-75.8279 749.6862,-86.2224 756.6159,-85.2324"/>
</g>
<!-- Node18&#45;&gt;Node3 -->
<g id="edge32" class="edge">
<title>Node18&#45;&gt;Node3</title>
<path fill="none" stroke="#191970" d="M769.239,-224.2532C761.4546,-210.1734 745.3698,-184.0741 725.3328,-168 705.5513,-152.1309 679.4281,-140.5463 658.4401,-132.9719"/>
<polygon fill="#191970" stroke="#191970" points="659.4951,-129.6335 648.9004,-129.6739 657.2079,-136.2493 659.4951,-129.6335"/>
</g>
<!-- Node18&#45;&gt;Node19 -->
<g id="edge23" class="edge">
<title>Node18&#45;&gt;Node19</title>
<path fill="none" stroke="#191970" d="M787.3968,-224.2455C798.689,-215.814 815.2172,-203.4729 828.3599,-193.6598"/>
<polygon fill="#191970" stroke="#191970" points="830.4997,-196.4301 836.4185,-187.6427 826.3116,-190.8211 830.4997,-196.4301"/>
</g>
<!-- Node19&#45;&gt;Node2 -->
<g id="edge27" class="edge">
<title>Node19&#45;&gt;Node2</title>
<path fill="none" stroke="#191970" d="M840.5151,-168.1473C832.1985,-158.845 819.3931,-144.4972 808.3328,-132 793.9029,-115.6956 777.5335,-97.0551 765.8733,-83.752"/>
<polygon fill="#191970" stroke="#191970" points="768.1807,-81.0745 758.9585,-75.859 762.9154,-85.6872 768.1807,-81.0745"/>
</g>
<!-- Node19&#45;&gt;Node3 -->
<g id="edge28" class="edge">
<title>Node19&#45;&gt;Node3</title>
<path fill="none" stroke="#191970" d="M810.8253,-168.5004C768.2893,-158.0069 700.3181,-141.2387 658.6711,-130.9645"/>
<polygon fill="#191970" stroke="#191970" points="659.4826,-127.5598 648.9353,-128.5627 657.8059,-134.3561 659.4826,-127.5598"/>
</g>
<!-- Node19&#45;&gt;Node5 -->
<g id="edge30" class="edge">
<title>Node19&#45;&gt;Node5</title>
<path fill="none" stroke="#191970" d="M810.575,-172.1655C739.4505,-161.4586 588.8149,-138.7823 517.0108,-127.973"/>
<polygon fill="#191970" stroke="#191970" points="517.4172,-124.4949 507.0076,-126.4672 516.3751,-131.4169 517.4172,-124.4949"/>
</g>
<!-- Node19&#45;&gt;Node8 -->
<g id="edge25" class="edge">
<title>Node19&#45;&gt;Node8</title>
<path fill="none" stroke="#191970" d="M888.058,-169.6719C891.1906,-169.0777 894.3114,-168.512 897.3328,-168 1008.0544,-149.2385 1139.539,-133.8243 1205.738,-126.5374"/>
<polygon fill="#191970" stroke="#191970" points="1206.2285,-130.0047 1215.7888,-125.4384 1205.4676,-123.0462 1206.2285,-130.0047"/>
</g>
<!-- Node19&#45;&gt;Node12 -->
<g id="edge29" class="edge">
<title>Node19&#45;&gt;Node12</title>
<path fill="none" stroke="#191970" d="M848.2876,-168.2455C847.5047,-160.9382 846.4071,-150.6944 845.444,-141.7046"/>
<polygon fill="#191970" stroke="#191970" points="848.9114,-141.2129 844.3659,-131.6427 841.9512,-141.9587 848.9114,-141.2129"/>
</g>
<!-- Node19&#45;&gt;Node15 -->
<g id="edge24" class="edge">
<title>Node19&#45;&gt;Node15</title>
<path fill="none" stroke="#191970" d="M810.7991,-174.811C786.3243,-172.8056 753.9739,-170.1922 725.3328,-168 507.7457,-151.3462 450.1833,-155.7618 229.1077,-132.0129"/>
<polygon fill="#191970" stroke="#191970" points="229.457,-128.5304 219.1386,-130.9349 228.7043,-135.4898 229.457,-128.5304"/>
</g>
<!-- Node19&#45;&gt;Node20 -->
<g id="edge26" class="edge">
<title>Node19&#45;&gt;Node20</title>
<path fill="none" stroke="#191970" d="M863.7902,-168.2455C876.406,-159.7337 894.9272,-147.2375 909.5373,-137.3801"/>
<polygon fill="#191970" stroke="#191970" points="911.7088,-140.1371 918.0409,-131.6427 907.7937,-134.3343 911.7088,-140.1371"/>
</g>
<!-- Node21&#45;&gt;Node22 -->
<g id="edge34" class="edge">
<title>Node21&#45;&gt;Node22</title>
<path fill="none" stroke="#191970" d="M240.1815,-224.3733C267.0031,-215.1016 307.7455,-201.0178 337.2925,-190.804"/>
<polygon fill="#191970" stroke="#191970" points="338.5396,-194.0762 346.8474,-187.5011 336.2526,-187.4603 338.5396,-194.0762"/>
</g>
<!-- Node23 -->
<g id="node24" class="node">
<title>Node23</title>
<g id="a_node24"><a doxygen="/w/doc/cppreference-doxygen-web.tag.xml:http://en.cppreference.com/w/" xlink:href="http://en.cppreference.com/w/cpp/header/sstream.html" xlink:title=" ">
<polygon fill="#ffffff" stroke="#000000" points="127.8328,-168.5 127.8328,-187.5 186.8328,-187.5 186.8328,-168.5 127.8328,-168.5"/>
<text text-anchor="middle" x="157.3328" y="-175.5" font-family="'Consolas',monospace" font-size="10.00" fill="#000000">sstream</text>
</a>
</g>
</g>
<!-- Node21&#45;&gt;Node23 -->
<g id="edge36" class="edge">
<title>Node21&#45;&gt;Node23</title>
<path fill="none" stroke="#191970" d="M202.7525,-224.2455C194.787,-216.1352 183.2687,-204.4075 173.8248,-194.7919"/>
<polygon fill="#191970" stroke="#191970" points="176.3074,-192.3247 166.8032,-187.6427 171.3133,-197.2297 176.3074,-192.3247"/>
</g>
<!-- Node22&#45;&gt;Node3 -->
<g id="edge35" class="edge">
<title>Node22&#45;&gt;Node3</title>
<path fill="none" stroke="#191970" d="M415.8424,-168.6269C463.3026,-157.91 540.2688,-140.5306 585.6225,-130.2894"/>
<polygon fill="#191970" stroke="#191970" points="586.6332,-133.6494 595.6167,-128.0327 585.0913,-126.8213 586.6332,-133.6494"/>
</g>
<!-- Node24&#45;&gt;Node2 -->
<g id="edge41" class="edge">
<title>Node24&#45;&gt;Node2</title>
<path fill="none" stroke="#191970" d="M1047.7709,-224.2633C1045.8663,-200.9037 1037.6143,-141.4404 1002.3328,-112 970.2151,-85.1997 849.2249,-72.9478 787.3179,-68.3347"/>
<polygon fill="#191970" stroke="#191970" points="787.4202,-64.8331 777.1956,-67.6094 786.9199,-71.8152 787.4202,-64.8331"/>
</g>
<!-- Node24&#45;&gt;Node4 -->
<g id="edge39" class="edge">
<title>Node24&#45;&gt;Node4</title>
<path fill="none" stroke="#191970" d="M1064.1837,-224.2455C1078.1459,-215.6534 1098.7056,-203.0014 1114.7923,-193.1018"/>
<polygon fill="#191970" stroke="#191970" points="1116.9812,-195.8645 1123.6634,-187.6427 1113.3125,-189.9029 1116.9812,-195.8645"/>
</g>
<!-- Node24&#45;&gt;Node8 -->
<g id="edge40" class="edge">
<title>Node24&#45;&gt;Node8</title>
<path fill="none" stroke="#191970" d="M1052.6283,-224.3833C1059.5487,-209.9827 1074.5263,-182.9174 1095.3328,-168 1128.0812,-144.5206 1172.9336,-132.8758 1205.6058,-127.195"/>
<polygon fill="#191970" stroke="#191970" points="1206.4424,-130.6052 1215.7549,-125.5527 1205.3242,-123.6951 1206.4424,-130.6052"/>
</g>
<!-- Node25&#45;&gt;Node2 -->
<g id="edge44" class="edge">
<title>Node25&#45;&gt;Node2</title>
<path fill="none" stroke="#191970" d="M1220.8588,-168.4334C1186.3203,-154.0982 1117.8338,-127.1173 1057.3328,-112 961.349,-88.0167 845.1591,-74.7758 787.0983,-69.2034"/>
<polygon fill="#191970" stroke="#191970" points="787.2348,-65.7009 776.9515,-68.2512 786.5807,-72.6703 787.2348,-65.7009"/>
</g>
<!-- Node25&#45;&gt;Node8 -->
<g id="edge43" class="edge">
<title>Node25&#45;&gt;Node8</title>
<path fill="none" stroke="#191970" d="M1244.2037,-168.2455C1244.8561,-160.9382 1245.7708,-150.6944 1246.5734,-141.7046"/>
<polygon fill="#191970" stroke="#191970" points="1250.0685,-141.9143 1247.4718,-131.6427 1243.0963,-141.2918 1250.0685,-141.9143"/>
</g>
<!-- Node26&#45;&gt;Node2 -->
<g id="edge47" class="edge">
<title>Node26&#45;&gt;Node2</title>
<path fill="none" stroke="#191970" d="M391.0798,-114.8541C395.8323,-113.8238 400.7068,-112.8323 405.3328,-112 516.9268,-91.9222 650.2849,-76.5635 713.5454,-69.793"/>
<polygon fill="#191970" stroke="#191970" points="714.228,-73.2404 723.803,-68.705 713.4895,-66.2794 714.228,-73.2404"/>
</g>
<!-- Node27&#45;&gt;Node16 -->
<g id="edge49" class="edge">
<title>Node27&#45;&gt;Node16</title>
<path fill="none" stroke="#191970" d="M590.3462,-224.161C580.2004,-215.7229 566.6354,-202.6351 559.3328,-188 542.7952,-154.8576 539.4654,-110.9594 539.0515,-85.8668"/>
<polygon fill="#191970" stroke="#191970" points="542.5513,-85.7596 539.0295,-75.7673 535.5514,-85.7749 542.5513,-85.7596"/>
</g>
<!-- Node27&#45;&gt;Node28 -->
<g id="edge50" class="edge">
<title>Node27&#45;&gt;Node28</title>
<path fill="none" stroke="#191970" d="M603.3328,-224.2455C603.3328,-216.9382 603.3328,-206.6944 603.3328,-197.7046"/>
<polygon fill="#191970" stroke="#191970" points="606.8329,-197.6426 603.3328,-187.6427 599.8329,-197.6427 606.8329,-197.6426"/>
</g>
<!-- Node27&#45;&gt;Node29 -->
<g id="edge54" class="edge">
<title>Node27&#45;&gt;Node29</title>
<path fill="none" stroke="#191970" d="M580.813,-224.3733C559.5955,-215.3032 527.6051,-201.6279 503.8559,-191.4755"/>
<polygon fill="#191970" stroke="#191970" points="505.1294,-188.2136 494.5586,-187.5011 502.3779,-194.6502 505.1294,-188.2136"/>
</g>
<!-- Node28&#45;&gt;Node3 -->
<g id="edge51" class="edge">
<title>Node28&#45;&gt;Node3</title>
<path fill="none" stroke="#191970" d="M606.6423,-168.2455C609.1761,-160.7776 612.7504,-150.2427 615.8477,-141.1137"/>
<polygon fill="#191970" stroke="#191970" points="619.1625,-142.237 619.0611,-131.6427 612.5337,-139.9879 619.1625,-142.237"/>
</g>
<!-- Node28&#45;&gt;Node5 -->
<g id="edge53" class="edge">
<title>Node28&#45;&gt;Node5</title>
<path fill="none" stroke="#191970" d="M581.6726,-168.3733C561.3556,-159.3435 530.7688,-145.7494 507.9578,-135.6111"/>
<polygon fill="#191970" stroke="#191970" points="509.2699,-132.3642 498.7103,-131.5011 506.4269,-138.7609 509.2699,-132.3642"/>
</g>
<!-- Node28&#45;&gt;Node12 -->
<g id="edge52" class="edge">
<title>Node28&#45;&gt;Node12</title>
<path fill="none" stroke="#191970" d="M639.004,-169.6767C684.164,-159.1394 761.5437,-141.0841 807.0107,-130.4751"/>
<polygon fill="#191970" stroke="#191970" points="807.8083,-133.8831 816.7514,-128.2023 806.2177,-127.0662 807.8083,-133.8831"/>
</g>
<!-- Node29&#45;&gt;Node3 -->
<g id="edge55" class="edge">
<title>Node29&#45;&gt;Node3</title>
<path fill="none" stroke="#191970" d="M498.1187,-168.3733C522.7375,-159.1822 560.0228,-145.2624 587.3202,-135.0713"/>
<polygon fill="#191970" stroke="#191970" points="588.7391,-138.2777 596.8833,-131.5011 586.2907,-131.7198 588.7391,-138.2777"/>
</g>
<!-- Node29&#45;&gt;Node5 -->
<g id="edge56" class="edge">
<title>Node29&#45;&gt;Node5</title>
<path fill="none" stroke="#191970" d="M473.2037,-168.2455C473.8561,-160.9382 474.7708,-150.6944 475.5734,-141.7046"/>
<polygon fill="#191970" stroke="#191970" points="479.0685,-141.9143 476.4718,-131.6427 472.0963,-141.2918 479.0685,-141.9143"/>
</g>
<!-- Node30&#45;&gt;Node5 -->
<g id="edge58" class="edge">
<title>Node30&#45;&gt;Node5</title>
<path fill="none" stroke="#191970" d="M281.0202,-224.416C254.4913,-212.159 217.0636,-189.8904 235.3328,-168 263.9878,-133.6651 389.5177,-140.9577 433.3328,-132 434.7718,-131.7058 436.2361,-131.401 437.7142,-131.0889"/>
<polygon fill="#191970" stroke="#191970" points="438.5189,-134.4958 447.5488,-128.9539 437.0339,-127.6551 438.5189,-134.4958"/>
</g>
<!-- Node31&#45;&gt;Node8 -->
<g id="edge62" class="edge">
<title>Node31&#45;&gt;Node8</title>
<path fill="none" stroke="#191970" d="M1546.0938,-224.0806C1539.2194,-209.2846 1524.1722,-181.7099 1502.3328,-168 1467.8169,-146.3324 1354.1411,-132.2343 1291.2051,-125.8867"/>
<polygon fill="#191970" stroke="#191970" points="1291.4836,-122.3973 1281.1883,-124.8987 1290.7964,-129.3635 1291.4836,-122.3973"/>
</g>
<!-- Node32&#45;&gt;Node4 -->
<g id="edge64" class="edge">
<title>Node32&#45;&gt;Node4</title>
<path fill="none" stroke="#191970" d="M1201.2687,-224.2455C1189.9765,-215.814 1173.4483,-203.4729 1160.3056,-193.6598"/>
<polygon fill="#191970" stroke="#191970" points="1162.3539,-190.8211 1152.247,-187.6427 1158.1658,-196.4301 1162.3539,-190.8211"/>
</g>
<!-- Node32&#45;&gt;Node8 -->
<g id="edge65" class="edge">
<title>Node32&#45;&gt;Node8</title>
<path fill="none" stroke="#191970" d="M1252.4304,-224.4497C1271.2273,-217.6063 1292.2076,-206.2734 1303.3328,-188 1314.9018,-168.9975 1294.3188,-149.7332 1275.1225,-136.9629"/>
<polygon fill="#191970" stroke="#191970" points="1276.8537,-133.9175 1266.5207,-131.5768 1273.1387,-139.8504 1276.8537,-133.9175"/>
</g>
<!-- Node33&#45;&gt;Node3 -->
<g id="edge68" class="edge">
<title>Node33&#45;&gt;Node3</title>
<path fill="none" stroke="#191970" d="M315.1506,-169.8185C318.251,-169.1777 321.344,-168.5621 324.3328,-168 417.8549,-150.4101 528.8197,-134.6064 585.2982,-126.9216"/>
<polygon fill="#191970" stroke="#191970" points="586.0796,-130.3479 595.52,-125.5386 585.141,-123.4111 586.0796,-130.3479"/>
</g>
<!-- Node33&#45;&gt;Node5 -->
<g id="edge67" class="edge">
<title>Node33&#45;&gt;Node5</title>
<path fill="none" stroke="#191970" d="M313.3702,-168.3733C347.9349,-158.5974 401.4152,-143.4716 437.8273,-133.1733"/>
<polygon fill="#191970" stroke="#191970" points="438.9449,-136.4946 447.6148,-130.4051 437.0397,-129.7588 438.9449,-136.4946"/>
</g>
<!-- Node34&#45;&gt;Node2 -->
<g id="edge72" class="edge">
<title>Node34&#45;&gt;Node2</title>
<path fill="none" stroke="#191970" d="M954.111,-168.3307C973.5554,-155.2237 1002.1891,-131.2453 986.3328,-112 961.5429,-81.9117 847.2911,-71.2415 787.3226,-67.6712"/>
<polygon fill="#191970" stroke="#191970" points="787.3187,-64.1656 777.139,-67.1022 786.9281,-71.1547 787.3187,-64.1656"/>
</g>
<!-- Node34&#45;&gt;Node3 -->
<g id="edge73" class="edge">
<title>Node34&#45;&gt;Node3</title>
<path fill="none" stroke="#191970" d="M905.7078,-169.8137C902.881,-169.1739 900.06,-168.5599 897.3328,-168 812.4259,-150.5688 711.7542,-135.0171 658.9119,-127.2438"/>
<polygon fill="#191970" stroke="#191970" points="659.4013,-123.7783 649.0001,-125.7947 658.3885,-130.7046 659.4013,-123.7783"/>
</g>
<!-- Node34&#45;&gt;Node12 -->
<g id="edge74" class="edge">
<title>Node34&#45;&gt;Node12</title>
<path fill="none" stroke="#191970" d="M921.785,-168.2455C907.0729,-159.5731 885.344,-146.7645 868.4823,-136.825"/>
<polygon fill="#191970" stroke="#191970" points="870.0829,-133.7057 859.6909,-131.6427 866.5282,-139.736 870.0829,-133.7057"/>
</g>
<!-- Node34&#45;&gt;Node20 -->
<g id="edge71" class="edge">
<title>Node34&#45;&gt;Node20</title>
<path fill="none" stroke="#191970" d="M937.2876,-168.2455C936.5047,-160.9382 935.4071,-150.6944 934.444,-141.7046"/>
<polygon fill="#191970" stroke="#191970" points="937.9114,-141.2129 933.3659,-131.6427 930.9512,-141.9587 937.9114,-141.2129"/>
</g>
<!-- Node36&#45;&gt;Node2 -->
<g id="edge80" class="edge">
<title>Node36&#45;&gt;Node2</title>
<path fill="none" stroke="#191970" d="M110.2778,-169.8062C113.3302,-169.1528 116.3833,-168.5385 119.3328,-168 243.195,-145.3864 280.0704,-169.2853 400.3328,-132 418.9387,-126.2315 420.7837,-117.9489 439.3328,-112 534.9864,-81.3228 653.8459,-70.9795 713.1058,-67.5887"/>
<polygon fill="#191970" stroke="#191970" points="713.6602,-71.0641 723.4583,-67.0331 713.285,-64.0741 713.6602,-71.0641"/>
</g>
<!-- Node36&#45;&gt;Node5 -->
<g id="edge78" class="edge">
<title>Node36&#45;&gt;Node5</title>
<path fill="none" stroke="#191970" d="M110.2703,-169.7644C113.3243,-169.1198 116.3798,-168.5189 119.3328,-168 257.6827,-143.6887 294.8598,-155.6008 433.3328,-132 434.7807,-131.7532 436.2526,-131.4889 437.7371,-131.2111"/>
<polygon fill="#191970" stroke="#191970" points="438.4889,-134.63 447.5988,-129.2208 437.104,-127.7683 438.4889,-134.63"/>
</g>
<!-- Node36&#45;&gt;Node26 -->
<g id="edge79" class="edge">
<title>Node36&#45;&gt;Node26</title>
<path fill="none" stroke="#191970" d="M109.8497,-170.0575C113.0484,-169.3365 116.2501,-168.6384 119.3328,-168 206.4059,-149.9676 231.6922,-151.5925 321.7124,-132.231"/>
<polygon fill="#191970" stroke="#191970" points="322.4927,-135.6432 331.5185,-130.0948 321.0026,-128.8037 322.4927,-135.6432"/>
</g>
</g>
</svg>
