<?xml version="1.0" encoding="UTF-8" standalone="no"?>
<!DOCTYPE svg PUBLIC "-//W3C//DTD SVG 1.1//EN"
 "http://www.w3.org/Graphics/SVG/1.1/DTD/svg11.dtd">
<!-- Generated by graphviz version 2.36.0 (20140111.2315)
 -->
<!-- Title: jngl/all.hpp Pages: 1 -->
<svg width="1779pt" height="308pt"
 viewBox="0.00 0.00 1779.00 308.00" xmlns="http://www.w3.org/2000/svg" xmlns:xlink="http://www.w3.org/1999/xlink">
<g id="graph0" class="graph" transform="scale(1 1) rotate(0) translate(4 304)">
<title>jngl/all.hpp</title>
<polygon fill="white" stroke="none" points="-4,4 -4,-304 1775,-304 1775,4 -4,4"/>
<!-- Node1 -->
<g id="node1" class="node"><title>Node1</title>
<polygon fill="#bfbfbf" stroke="black" points="932,-280.5 932,-299.5 1000,-299.5 1000,-280.5 932,-280.5"/>
<text text-anchor="middle" x="966" y="-287.5" font-family="Lato" font-size="10.00">jngl/all.hpp</text>
</g>
<!-- Node2 -->
<g id="node2" class="node"><title>Node2</title>
<g id="a_node2"><a xlink:href="Shader_8hpp_source.html" target="_top" xlink:title="Shader.hpp">
<polygon fill="white" stroke="black" points="108.5,-112.5 108.5,-131.5 179.5,-131.5 179.5,-112.5 108.5,-112.5"/>
<text text-anchor="middle" x="144" y="-119.5" font-family="Lato" font-size="10.00">Shader.hpp</text>
</a>
</g>
</g>
<!-- Node1&#45;&gt;Node2 -->
<g id="edge1" class="edge"><title>Node1&#45;&gt;Node2</title>
<path fill="none" stroke="midnightblue" d="M931.926,-289.508C847.93,-290.02 624.711,-286.873 445,-244 338.464,-218.584 220.094,-161.959 169.345,-136.206"/>
<polygon fill="midnightblue" stroke="midnightblue" points="170.894,-133.067 160.397,-131.628 167.706,-139.299 170.894,-133.067"/>
</g>
<!-- Node5 -->
<g id="node5" class="node"><title>Node5</title>
<g id="a_node5"><a xlink:href="ShaderProgram_8hpp_source.html" target="_top" xlink:title="ShaderProgram.hpp">
<polygon fill="white" stroke="black" points="350.5,-112.5 350.5,-131.5 463.5,-131.5 463.5,-112.5 350.5,-112.5"/>
<text text-anchor="middle" x="407" y="-119.5" font-family="Lato" font-size="10.00">ShaderProgram.hpp</text>
</a>
</g>
</g>
<!-- Node1&#45;&gt;Node5 -->
<g id="edge4" class="edge"><title>Node1&#45;&gt;Node5</title>
<path fill="none" stroke="midnightblue" d="M931.68,-287.622C825.851,-283.135 509.327,-267.84 470,-244 433.153,-221.663 416.86,-169.962 410.516,-141.916"/>
<polygon fill="midnightblue" stroke="midnightblue" points="413.88,-140.896 408.433,-131.809 407.024,-142.309 413.88,-140.896"/>
</g>
<!-- Node8 -->
<g id="node8" class="node"><title>Node8</title>
<g id="a_node8"><a xlink:href="Vertex_8hpp_source.html" target="_top" xlink:title="Vertex.hpp">
<polygon fill="white" stroke="black" points="1219,-224.5 1219,-243.5 1287,-243.5 1287,-224.5 1219,-224.5"/>
<text text-anchor="middle" x="1253" y="-231.5" font-family="Lato" font-size="10.00">Vertex.hpp</text>
</a>
</g>
</g>
<!-- Node1&#45;&gt;Node8 -->
<g id="edge9" class="edge"><title>Node1&#45;&gt;Node8</title>
<path fill="none" stroke="midnightblue" d="M1000.05,-282.593C1052.16,-272.789 1151.67,-254.066 1209.12,-243.256"/>
<polygon fill="midnightblue" stroke="midnightblue" points="1209.81,-246.687 1218.99,-241.398 1208.52,-239.808 1209.81,-246.687"/>
</g>
<!-- Node12 -->
<g id="node12" class="node"><title>Node12</title>
<g id="a_node12"><a xlink:href="color_8hpp_source.html" target="_top" xlink:title="color.hpp">
<polygon fill="white" stroke="black" points="1302,-112.5 1302,-131.5 1362,-131.5 1362,-112.5 1302,-112.5"/>
<text text-anchor="middle" x="1332" y="-119.5" font-family="Lato" font-size="10.00">color.hpp</text>
</a>
</g>
</g>
<!-- Node1&#45;&gt;Node12 -->
<g id="edge14" class="edge"><title>Node1&#45;&gt;Node12</title>
<path fill="none" stroke="midnightblue" d="M1000.16,-288.884C1075.38,-287.928 1252.1,-281.628 1296,-244 1326,-218.292 1331.6,-168.799 1332.29,-141.76"/>
<polygon fill="midnightblue" stroke="midnightblue" points="1335.79,-141.7 1332.34,-131.682 1328.79,-141.664 1335.79,-141.7"/>
</g>
<!-- Node13 -->
<g id="node13" class="node"><title>Node13</title>
<g id="a_node13"><a xlink:href="Controller_8hpp_source.html" target="_top" xlink:title="Controller.hpp">
<polygon fill="white" stroke="black" points="1032.5,-224.5 1032.5,-243.5 1115.5,-243.5 1115.5,-224.5 1032.5,-224.5"/>
<text text-anchor="middle" x="1074" y="-231.5" font-family="Lato" font-size="10.00">Controller.hpp</text>
</a>
</g>
</g>
<!-- Node1&#45;&gt;Node13 -->
<g id="edge16" class="edge"><title>Node1&#45;&gt;Node13</title>
<path fill="none" stroke="midnightblue" d="M983.352,-280.324C1000.67,-271.664 1027.52,-258.242 1047.5,-248.249"/>
<polygon fill="midnightblue" stroke="midnightblue" points="1049.31,-251.257 1056.69,-243.655 1046.18,-244.996 1049.31,-251.257"/>
</g>
<!-- Node14 -->
<g id="node14" class="node"><title>Node14</title>
<g id="a_node14"><a xlink:href="input_8hpp.html" target="_top" xlink:title="input.hpp">
<polygon fill="white" stroke="black" points="1029,-168.5 1029,-187.5 1091,-187.5 1091,-168.5 1029,-168.5"/>
<text text-anchor="middle" x="1060" y="-175.5" font-family="Lato" font-size="10.00">input.hpp</text>
</a>
</g>
</g>
<!-- Node1&#45;&gt;Node14 -->
<g id="edge38" class="edge"><title>Node1&#45;&gt;Node14</title>
<path fill="none" stroke="midnightblue" d="M973.376,-280.368C989.026,-262.055 1025.78,-219.049 1046.02,-195.362"/>
<polygon fill="midnightblue" stroke="midnightblue" points="1048.82,-197.468 1052.66,-187.591 1043.5,-192.92 1048.82,-197.468"/>
</g>
<!-- Node16 -->
<g id="node16" class="node"><title>Node16</title>
<g id="a_node16"><a xlink:href="debug_8hpp_source.html" target="_top" xlink:title="debug.hpp">
<polygon fill="white" stroke="black" points="752,-224.5 752,-243.5 820,-243.5 820,-224.5 752,-224.5"/>
<text text-anchor="middle" x="786" y="-231.5" font-family="Lato" font-size="10.00">debug.hpp</text>
</a>
</g>
</g>
<!-- Node1&#45;&gt;Node16 -->
<g id="edge22" class="edge"><title>Node1&#45;&gt;Node16</title>
<path fill="none" stroke="midnightblue" d="M937.478,-280.444C906.934,-271.28 858.292,-256.688 824.397,-246.519"/>
<polygon fill="midnightblue" stroke="midnightblue" points="824.972,-243.038 814.388,-243.516 822.961,-249.742 824.972,-243.038"/>
</g>
<!-- Node17 -->
<g id="node17" class="node"><title>Node17</title>
<g id="a_node17"><a xlink:href="message_8hpp_source.html" target="_top" xlink:title="message.hpp">
<polygon fill="white" stroke="black" points="839,-168.5 839,-187.5 921,-187.5 921,-168.5 839,-168.5"/>
<text text-anchor="middle" x="880" y="-175.5" font-family="Lato" font-size="10.00">message.hpp</text>
</a>
</g>
</g>
<!-- Node1&#45;&gt;Node17 -->
<g id="edge53" class="edge"><title>Node1&#45;&gt;Node17</title>
<path fill="none" stroke="midnightblue" d="M959.252,-280.368C944.996,-262.135 911.606,-219.426 893.037,-195.675"/>
<polygon fill="midnightblue" stroke="midnightblue" points="895.634,-193.314 886.717,-187.591 890.119,-197.625 895.634,-193.314"/>
</g>
<!-- Node20 -->
<g id="node20" class="node"><title>Node20</title>
<g id="a_node20"><a xlink:href="drawable_8hpp_source.html" target="_top" xlink:title="drawable.hpp">
<polygon fill="white" stroke="black" points="558,-112.5 558,-131.5 638,-131.5 638,-112.5 558,-112.5"/>
<text text-anchor="middle" x="598" y="-119.5" font-family="Lato" font-size="10.00">drawable.hpp</text>
</a>
</g>
</g>
<!-- Node1&#45;&gt;Node20 -->
<g id="edge27" class="edge"><title>Node1&#45;&gt;Node20</title>
<path fill="none" stroke="midnightblue" d="M931.775,-287.726C841.384,-284.013 598.076,-271.666 523,-244 481.934,-228.867 462.325,-226.76 442,-188 419.023,-144.182 494.007,-129.887 547.864,-125.234"/>
<polygon fill="midnightblue" stroke="midnightblue" points="548.283,-128.712 557.982,-124.449 547.741,-121.733 548.283,-128.712"/>
</g>
<!-- Node21 -->
<g id="node21" class="node"><title>Node21</title>
<g id="a_node21"><a xlink:href="types_8hpp_source.html" target="_top" xlink:title="types.hpp">
<polygon fill="white" stroke="black" points="1471,-56.5 1471,-75.5 1535,-75.5 1535,-56.5 1471,-56.5"/>
<text text-anchor="middle" x="1503" y="-63.5" font-family="Lato" font-size="10.00">types.hpp</text>
</a>
</g>
</g>
<!-- Node1&#45;&gt;Node21 -->
<g id="edge83" class="edge"><title>Node1&#45;&gt;Node21</title>
<path fill="none" stroke="midnightblue" d="M1000.19,-288.153C1106.35,-285.214 1425.27,-273.95 1460,-244 1506.46,-203.933 1507.2,-122.942 1504.83,-86.0645"/>
<polygon fill="midnightblue" stroke="midnightblue" points="1508.29,-85.4388 1504.01,-75.7491 1501.31,-85.996 1508.29,-85.4388"/>
</g>
<!-- Node22 -->
<g id="node22" class="node"><title>Node22</title>
<g id="a_node22"><a xlink:href="font_8hpp_source.html" target="_top" xlink:title="font.hpp">
<polygon fill="white" stroke="black" points="1195,-168.5 1195,-187.5 1251,-187.5 1251,-168.5 1195,-168.5"/>
<text text-anchor="middle" x="1223" y="-175.5" font-family="Lato" font-size="10.00">font.hpp</text>
</a>
</g>
</g>
<!-- Node1&#45;&gt;Node22 -->
<g id="edge30" class="edge"><title>Node1&#45;&gt;Node22</title>
<path fill="none" stroke="midnightblue" d="M1000.25,-285.022C1037.5,-279.663 1098.02,-267.896 1145,-244 1169.66,-231.459 1193.4,-209.866 1208.08,-195.033"/>
<polygon fill="midnightblue" stroke="midnightblue" points="1210.83,-197.218 1215.25,-187.588 1205.79,-192.362 1210.83,-197.218"/>
</g>
<!-- Node23 -->
<g id="node23" class="node"><title>Node23</title>
<g id="a_node23"><a xlink:href="framebuffer_8hpp_source.html" target="_top" xlink:title="framebuffer.hpp">
<polygon fill="white" stroke="black" points="1591.5,-56.5 1591.5,-75.5 1684.5,-75.5 1684.5,-56.5 1591.5,-56.5"/>
<text text-anchor="middle" x="1638" y="-63.5" font-family="Lato" font-size="10.00">framebuffer.hpp</text>
</a>
</g>
</g>
<!-- Node1&#45;&gt;Node23 -->
<g id="edge36" class="edge"><title>Node1&#45;&gt;Node23</title>
<path fill="none" stroke="midnightblue" d="M1000.07,-288.892C1105.73,-288.147 1426.52,-282.674 1522,-244 1558.29,-229.302 1566.94,-219.641 1590,-188 1613.43,-155.848 1627.33,-110.698 1633.73,-85.6298"/>
<polygon fill="midnightblue" stroke="midnightblue" points="1637.2,-86.187 1636.15,-75.644 1630.4,-84.5385 1637.2,-86.187"/>
</g>
<!-- Node24 -->
<g id="node24" class="node"><title>Node24</title>
<g id="a_node24"><a xlink:href="job_8hpp.html" target="_top" xlink:title="job.hpp">
<polygon fill="white" stroke="black" points="0,-112.5 0,-131.5 52,-131.5 52,-112.5 0,-112.5"/>
<text text-anchor="middle" x="26" y="-119.5" font-family="Lato" font-size="10.00">job.hpp</text>
</a>
</g>
</g>
<!-- Node1&#45;&gt;Node24 -->
<g id="edge39" class="edge"><title>Node1&#45;&gt;Node24</title>
<path fill="none" stroke="midnightblue" d="M931.601,-288.183C789.93,-284.662 255.742,-269.779 185,-244 123.565,-221.612 66.396,-166.59 40.5196,-139.131"/>
<polygon fill="midnightblue" stroke="midnightblue" points="42.8811,-136.53 33.5235,-131.561 37.7402,-141.281 42.8811,-136.53"/>
</g>
<!-- Node25 -->
<g id="node25" class="node"><title>Node25</title>
<g id="a_node25"><a xlink:href="main_8hpp_source.html" target="_top" xlink:title="main.hpp">
<polygon fill="white" stroke="black" points="838,-224.5 838,-243.5 900,-243.5 900,-224.5 838,-224.5"/>
<text text-anchor="middle" x="869" y="-231.5" font-family="Lato" font-size="10.00">main.hpp</text>
</a>
</g>
</g>
<!-- Node1&#45;&gt;Node25 -->
<g id="edge42" class="edge"><title>Node1&#45;&gt;Node25</title>
<path fill="none" stroke="midnightblue" d="M950.415,-280.324C935.001,-271.743 911.188,-258.486 893.29,-248.522"/>
<polygon fill="midnightblue" stroke="midnightblue" points="894.986,-245.461 884.546,-243.655 891.581,-251.577 894.986,-245.461"/>
</g>
<!-- Node26 -->
<g id="node26" class="node"><title>Node26</title>
<g id="a_node26"><a xlink:href="other_8hpp.html" target="_top" xlink:title="other.hpp">
<polygon fill="white" stroke="black" points="759,-168.5 759,-187.5 821,-187.5 821,-168.5 759,-168.5"/>
<text text-anchor="middle" x="790" y="-175.5" font-family="Lato" font-size="10.00">other.hpp</text>
</a>
</g>
</g>
<!-- Node1&#45;&gt;Node26 -->
<g id="edge54" class="edge"><title>Node1&#45;&gt;Node26</title>
<path fill="none" stroke="midnightblue" d="M931.682,-287.213C875.176,-283.475 766.45,-272.655 743,-244 729.357,-227.329 749.362,-207.073 767.333,-193.65"/>
<polygon fill="midnightblue" stroke="midnightblue" points="769.679,-196.279 775.835,-187.656 765.645,-190.558 769.679,-196.279"/>
</g>
<!-- Node27 -->
<g id="node27" class="node"><title>Node27</title>
<g id="a_node27"><a xlink:href="window_8hpp.html" target="_top" xlink:title="Functions related to the main window. ">
<polygon fill="white" stroke="black" points="939.5,-168.5 939.5,-187.5 1010.5,-187.5 1010.5,-168.5 939.5,-168.5"/>
<text text-anchor="middle" x="975" y="-175.5" font-family="Lato" font-size="10.00">window.hpp</text>
</a>
</g>
</g>
<!-- Node1&#45;&gt;Node27 -->
<g id="edge88" class="edge"><title>Node1&#45;&gt;Node27</title>
<path fill="none" stroke="midnightblue" d="M966.706,-280.368C968.159,-262.617 971.509,-221.666 973.478,-197.597"/>
<polygon fill="midnightblue" stroke="midnightblue" points="976.97,-197.844 974.297,-187.591 969.993,-197.273 976.97,-197.844"/>
</g>
<!-- Node28 -->
<g id="node28" class="node"><title>Node28</title>
<g id="a_node28"><a xlink:href="matrix_8hpp_source.html" target="_top" xlink:title="matrix.hpp">
<polygon fill="white" stroke="black" points="1703,-56.5 1703,-75.5 1771,-75.5 1771,-56.5 1703,-56.5"/>
<text text-anchor="middle" x="1737" y="-63.5" font-family="Lato" font-size="10.00">matrix.hpp</text>
</a>
</g>
</g>
<!-- Node1&#45;&gt;Node28 -->
<g id="edge51" class="edge"><title>Node1&#45;&gt;Node28</title>
<path fill="none" stroke="midnightblue" d="M1000.28,-289.408C1110.59,-290.254 1454.98,-289.132 1555,-244 1634.66,-208.056 1700.1,-121.609 1725.56,-84.4541"/>
<polygon fill="midnightblue" stroke="midnightblue" points="1728.74,-85.9984 1731.41,-75.7456 1722.93,-82.0952 1728.74,-85.9984"/>
</g>
<!-- Node29 -->
<g id="node29" class="node"><title>Node29</title>
<g id="a_node29"><a xlink:href="screen_8hpp.html" target="_top" xlink:title="screen.hpp">
<polygon fill="white" stroke="black" points="1511,-168.5 1511,-187.5 1581,-187.5 1581,-168.5 1511,-168.5"/>
<text text-anchor="middle" x="1546" y="-175.5" font-family="Lato" font-size="10.00">screen.hpp</text>
</a>
</g>
</g>
<!-- Node1&#45;&gt;Node29 -->
<g id="edge55" class="edge"><title>Node1&#45;&gt;Node29</title>
<path fill="none" stroke="midnightblue" d="M1000.3,-287.712C1110.93,-283.335 1453.62,-267.962 1497,-244 1516.08,-233.462 1529.95,-212.031 1537.97,-196.657"/>
<polygon fill="midnightblue" stroke="midnightblue" points="1541.15,-198.125 1542.39,-187.603 1534.86,-195.055 1541.15,-198.125"/>
</g>
<!-- Node30 -->
<g id="node30" class="node"><title>Node30</title>
<g id="a_node30"><a xlink:href="shapes_8hpp_source.html" target="_top" xlink:title="shapes.hpp">
<polygon fill="white" stroke="black" points="1345,-168.5 1345,-187.5 1417,-187.5 1417,-168.5 1345,-168.5"/>
<text text-anchor="middle" x="1381" y="-175.5" font-family="Lato" font-size="10.00">shapes.hpp</text>
</a>
</g>
</g>
<!-- Node1&#45;&gt;Node30 -->
<g id="edge59" class="edge"><title>Node1&#45;&gt;Node30</title>
<path fill="none" stroke="midnightblue" d="M1000.1,-288.116C1079.64,-285.533 1274.93,-276.019 1331,-244 1350.07,-233.112 1364.31,-211.753 1372.62,-196.491"/>
<polygon fill="midnightblue" stroke="midnightblue" points="1375.77,-198.009 1377.21,-187.513 1369.54,-194.82 1375.77,-198.009"/>
</g>
<!-- Node31 -->
<g id="node31" class="node"><title>Node31</title>
<g id="a_node31"><a xlink:href="sound_8hpp_source.html" target="_top" xlink:title="sound.hpp">
<polygon fill="white" stroke="black" points="1109.5,-168.5 1109.5,-187.5 1176.5,-187.5 1176.5,-168.5 1109.5,-168.5"/>
<text text-anchor="middle" x="1143" y="-175.5" font-family="Lato" font-size="10.00">sound.hpp</text>
</a>
</g>
</g>
<!-- Node1&#45;&gt;Node31 -->
<g id="edge63" class="edge"><title>Node1&#45;&gt;Node31</title>
<path fill="none" stroke="midnightblue" d="M1000.02,-288.491C1035.64,-286.102 1090.91,-276.86 1124,-244 1136.11,-231.972 1140.6,-212.68 1142.21,-198.232"/>
<polygon fill="midnightblue" stroke="midnightblue" points="1145.73,-198.148 1142.98,-187.915 1138.75,-197.627 1145.73,-198.148"/>
</g>
<!-- Node32 -->
<g id="node32" class="node"><title>Node32</title>
<g id="a_node32"><a xlink:href="sprite_8hpp_source.html" target="_top" xlink:title="sprite.hpp">
<polygon fill="white" stroke="black" points="525.5,-168.5 525.5,-187.5 590.5,-187.5 590.5,-168.5 525.5,-168.5"/>
<text text-anchor="middle" x="558" y="-175.5" font-family="Lato" font-size="10.00">sprite.hpp</text>
</a>
</g>
</g>
<!-- Node1&#45;&gt;Node32 -->
<g id="edge66" class="edge"><title>Node1&#45;&gt;Node32</title>
<path fill="none" stroke="midnightblue" d="M931.94,-284.108C886.528,-277.192 803.87,-263.221 735,-244 682.052,-229.223 622.409,-205.864 587.635,-191.54"/>
<polygon fill="midnightblue" stroke="midnightblue" points="588.673,-188.181 578.095,-187.579 585.989,-194.646 588.673,-188.181"/>
</g>
<!-- Node33 -->
<g id="node33" class="node"><title>Node33</title>
<g id="a_node33"><a xlink:href="text_8hpp.html" target="_top" xlink:title="text.hpp">
<polygon fill="white" stroke="black" points="451,-168.5 451,-187.5 507,-187.5 507,-168.5 451,-168.5"/>
<text text-anchor="middle" x="479" y="-175.5" font-family="Lato" font-size="10.00">text.hpp</text>
</a>
</g>
</g>
<!-- Node1&#45;&gt;Node33 -->
<g id="edge75" class="edge"><title>Node1&#45;&gt;Node33</title>
<path fill="none" stroke="midnightblue" d="M931.793,-287.766C846.118,-284.275 624.38,-272.659 557,-244 531.27,-233.056 507.478,-210.718 493.102,-195.308"/>
<polygon fill="midnightblue" stroke="midnightblue" points="495.427,-192.66 486.132,-187.577 490.228,-197.347 495.427,-192.66"/>
</g>
<!-- Node34 -->
<g id="node34" class="node"><title>Node34</title>
<g id="a_node34"><a xlink:href="time_8hpp_source.html" target="_top" xlink:title="time.hpp">
<polygon fill="white" stroke="black" points="1392.5,-224.5 1392.5,-243.5 1451.5,-243.5 1451.5,-224.5 1392.5,-224.5"/>
<text text-anchor="middle" x="1422" y="-231.5" font-family="Lato" font-size="10.00">time.hpp</text>
</a>
</g>
</g>
<!-- Node1&#45;&gt;Node34 -->
<g id="edge81" class="edge"><title>Node1&#45;&gt;Node34</title>
<path fill="none" stroke="midnightblue" d="M1000.05,-286.011C1069.95,-279.703 1234.62,-263.954 1372,-244 1375.42,-243.503 1378.97,-242.948 1382.52,-242.363"/>
<polygon fill="midnightblue" stroke="midnightblue" points="1383.18,-245.801 1392.44,-240.662 1381.99,-238.901 1383.18,-245.801"/>
</g>
<!-- Node35 -->
<g id="node35" class="node"><title>Node35</title>
<g id="a_node35"><a xlink:href="Video_8hpp_source.html" target="_top" xlink:title="Video.hpp">
<polygon fill="white" stroke="black" points="566.5,-224.5 566.5,-243.5 631.5,-243.5 631.5,-224.5 566.5,-224.5"/>
<text text-anchor="middle" x="599" y="-231.5" font-family="Lato" font-size="10.00">Video.hpp</text>
</a>
</g>
</g>
<!-- Node1&#45;&gt;Node35 -->
<g id="edge84" class="edge"><title>Node1&#45;&gt;Node35</title>
<path fill="none" stroke="midnightblue" d="M931.578,-284.6C873.159,-277.028 750.918,-260.726 648,-244 645.932,-243.664 643.817,-243.311 641.683,-242.947"/>
<polygon fill="midnightblue" stroke="midnightblue" points="642.105,-239.468 631.651,-241.19 640.897,-246.363 642.105,-239.468"/>
</g>
<!-- Node36 -->
<g id="node36" class="node"><title>Node36</title>
<g id="a_node36"><a xlink:href="work_8hpp.html" target="_top" xlink:title="work.hpp">
<polygon fill="white" stroke="black" points="119.5,-168.5 119.5,-187.5 178.5,-187.5 178.5,-168.5 119.5,-168.5"/>
<text text-anchor="middle" x="149" y="-175.5" font-family="Lato" font-size="10.00">work.hpp</text>
</a>
</g>
</g>
<!-- Node1&#45;&gt;Node36 -->
<g id="edge89" class="edge"><title>Node1&#45;&gt;Node36</title>
<path fill="none" stroke="midnightblue" d="M931.63,-288.29C793.751,-285.257 284.996,-272.236 219,-244 195.038,-233.748 174.116,-211.587 161.531,-196.003"/>
<polygon fill="midnightblue" stroke="midnightblue" points="164.014,-193.492 155.126,-187.726 158.479,-197.777 164.014,-193.492"/>
</g>
<!-- Node3 -->
<g id="node3" class="node"><title>Node3</title>
<g id="a_node3"><a xlink:href="dll_8hpp_source.html" target="_top" xlink:title="dll.hpp">
<polygon fill="white" stroke="black" points="983,-0.5 983,-19.5 1031,-19.5 1031,-0.5 983,-0.5"/>
<text text-anchor="middle" x="1007" y="-7.5" font-family="Lato" font-size="10.00">dll.hpp</text>
</a>
</g>
</g>
<!-- Node2&#45;&gt;Node3 -->
<g id="edge2" class="edge"><title>Node2&#45;&gt;Node3</title>
<path fill="none" stroke="midnightblue" d="M152.221,-112.249C166.702,-97.5078 198.422,-68.1466 232,-56 302.175,-30.6151 831.009,-15.4717 972.353,-11.8493"/>
<polygon fill="midnightblue" stroke="midnightblue" points="972.688,-15.342 982.596,-11.5897 972.511,-8.34429 972.688,-15.342"/>
</g>
<!-- Node4 -->
<g id="node4" class="node"><title>Node4</title>
<polygon fill="white" stroke="#bfbfbf" points="293.5,-56.5 293.5,-75.5 350.5,-75.5 350.5,-56.5 293.5,-56.5"/>
<text text-anchor="middle" x="322" y="-63.5" font-family="Lato" font-size="10.00">memory</text>
</g>
<!-- Node2&#45;&gt;Node4 -->
<g id="edge3" class="edge"><title>Node2&#45;&gt;Node4</title>
<path fill="none" stroke="midnightblue" d="M172.205,-112.444C202.41,-103.28 250.511,-88.6876 284.029,-78.5192"/>
<polygon fill="midnightblue" stroke="midnightblue" points="285.374,-81.7688 293.927,-75.5164 283.342,-75.0703 285.374,-81.7688"/>
</g>
<!-- Node5&#45;&gt;Node4 -->
<g id="edge8" class="edge"><title>Node5&#45;&gt;Node4</title>
<path fill="none" stroke="midnightblue" d="M393.343,-112.324C380.084,-103.9 359.732,-90.9709 344.154,-81.0741"/>
<polygon fill="midnightblue" stroke="midnightblue" points="345.94,-78.0626 335.623,-75.6545 342.187,-83.9711 345.94,-78.0626"/>
</g>
<!-- Node6 -->
<g id="node6" class="node"><title>Node6</title>
<g id="a_node6"><a xlink:href="Finally_8hpp_source.html" target="_top" xlink:title="Finally.hpp">
<polygon fill="white" stroke="black" points="507.5,-56.5 507.5,-75.5 572.5,-75.5 572.5,-56.5 507.5,-56.5"/>
<text text-anchor="middle" x="540" y="-63.5" font-family="Lato" font-size="10.00">Finally.hpp</text>
</a>
</g>
</g>
<!-- Node5&#45;&gt;Node6 -->
<g id="edge5" class="edge"><title>Node5&#45;&gt;Node6</title>
<path fill="none" stroke="midnightblue" d="M428.074,-112.444C450.06,-103.517 484.734,-89.4387 509.664,-79.3168"/>
<polygon fill="midnightblue" stroke="midnightblue" points="511.076,-82.5213 519.024,-75.5164 508.442,-76.0355 511.076,-82.5213"/>
</g>
<!-- Node6&#45;&gt;Node3 -->
<g id="edge6" class="edge"><title>Node6&#45;&gt;Node3</title>
<path fill="none" stroke="midnightblue" d="M572.712,-60.3008C583.034,-58.8636 594.487,-57.316 605,-56 740.928,-38.9846 903.111,-21.7727 972.618,-14.5429"/>
<polygon fill="midnightblue" stroke="midnightblue" points="973.374,-17.9833 982.959,-13.4698 972.651,-11.0207 973.374,-17.9833"/>
</g>
<!-- Node7 -->
<g id="node7" class="node"><title>Node7</title>
<polygon fill="white" stroke="#bfbfbf" points="508.5,-0.5 508.5,-19.5 571.5,-19.5 571.5,-0.5 508.5,-0.5"/>
<text text-anchor="middle" x="540" y="-7.5" font-family="Lato" font-size="10.00">functional</text>
</g>
<!-- Node6&#45;&gt;Node7 -->
<g id="edge7" class="edge"><title>Node6&#45;&gt;Node7</title>
<path fill="none" stroke="midnightblue" d="M540,-56.083C540,-49.0059 540,-38.8611 540,-29.9865"/>
<polygon fill="midnightblue" stroke="midnightblue" points="543.5,-29.751 540,-19.7511 536.5,-29.7511 543.5,-29.751"/>
</g>
<!-- Node9 -->
<g id="node9" class="node"><title>Node9</title>
<g id="a_node9"><a xlink:href="Vec2_8hpp.html" target="_top" xlink:title="Vec2.hpp">
<polygon fill="white" stroke="black" points="1193.5,-112.5 1193.5,-131.5 1254.5,-131.5 1254.5,-112.5 1193.5,-112.5"/>
<text text-anchor="middle" x="1224" y="-119.5" font-family="Lato" font-size="10.00">Vec2.hpp</text>
</a>
</g>
</g>
<!-- Node8&#45;&gt;Node9 -->
<g id="edge10" class="edge"><title>Node8&#45;&gt;Node9</title>
<path fill="none" stroke="midnightblue" d="M1256.02,-224.317C1259.96,-211.591 1265.62,-187.295 1259,-168 1255.28,-157.161 1247.77,-146.922 1240.65,-138.957"/>
<polygon fill="midnightblue" stroke="midnightblue" points="1243,-136.35 1233.56,-131.55 1237.95,-141.192 1243,-136.35"/>
</g>
<!-- Node9&#45;&gt;Node3 -->
<g id="edge11" class="edge"><title>Node9&#45;&gt;Node3</title>
<path fill="none" stroke="midnightblue" d="M1212.07,-112.428C1193.31,-99.1989 1155.51,-73.5058 1121,-56 1094.88,-42.7513 1063.9,-30.7414 1040.83,-22.4677"/>
<polygon fill="midnightblue" stroke="midnightblue" points="1041.74,-19.0788 1031.15,-19.0481 1039.41,-25.6791 1041.74,-19.0788"/>
</g>
<!-- Node10 -->
<g id="node10" class="node"><title>Node10</title>
<polygon fill="white" stroke="#bfbfbf" points="1173,-56.5 1173,-75.5 1275,-75.5 1275,-56.5 1173,-56.5"/>
<text text-anchor="middle" x="1224" y="-63.5" font-family="Lato" font-size="10.00">boost/version.hpp</text>
</g>
<!-- Node9&#45;&gt;Node10 -->
<g id="edge12" class="edge"><title>Node9&#45;&gt;Node10</title>
<path fill="none" stroke="midnightblue" d="M1224,-112.083C1224,-105.006 1224,-94.8611 1224,-85.9865"/>
<polygon fill="midnightblue" stroke="midnightblue" points="1227.5,-85.751 1224,-75.7511 1220.5,-85.7511 1227.5,-85.751"/>
</g>
<!-- Node11 -->
<g id="node11" class="node"><title>Node11</title>
<polygon fill="white" stroke="#bfbfbf" points="1293,-56.5 1293,-75.5 1339,-75.5 1339,-56.5 1293,-56.5"/>
<text text-anchor="middle" x="1316" y="-63.5" font-family="Lato" font-size="10.00">iosfwd</text>
</g>
<!-- Node9&#45;&gt;Node11 -->
<g id="edge13" class="edge"><title>Node9&#45;&gt;Node11</title>
<path fill="none" stroke="midnightblue" d="M1238.78,-112.324C1253.27,-103.822 1275.57,-90.7288 1292.49,-80.7975"/>
<polygon fill="midnightblue" stroke="midnightblue" points="1294.4,-83.735 1301.26,-75.6545 1290.86,-77.6981 1294.4,-83.735"/>
</g>
<!-- Node12&#45;&gt;Node3 -->
<g id="edge15" class="edge"><title>Node12&#45;&gt;Node3</title>
<path fill="none" stroke="midnightblue" d="M1338.43,-112.283C1347.66,-98.6237 1362.1,-72.0793 1348,-56 1327.94,-33.1207 1123.67,-18.1485 1041.23,-12.9952"/>
<polygon fill="midnightblue" stroke="midnightblue" points="1041.31,-9.49373 1031.12,-12.3743 1040.88,-16.4806 1041.31,-9.49373"/>
</g>
<!-- Node13&#45;&gt;Node14 -->
<g id="edge17" class="edge"><title>Node13&#45;&gt;Node14</title>
<path fill="none" stroke="midnightblue" d="M1071.69,-224.083C1069.83,-216.927 1067.16,-206.635 1064.85,-197.691"/>
<polygon fill="midnightblue" stroke="midnightblue" points="1068.17,-196.553 1062.27,-187.751 1061.39,-198.309 1068.17,-196.553"/>
</g>
<!-- Node14&#45;&gt;Node3 -->
<g id="edge18" class="edge"><title>Node14&#45;&gt;Node3</title>
<path fill="none" stroke="midnightblue" d="M1057.15,-168.075C1048.77,-141.832 1024.1,-64.5453 1012.78,-29.1165"/>
<polygon fill="midnightblue" stroke="midnightblue" points="1016.11,-28.0298 1009.74,-19.5681 1009.44,-30.1589 1016.11,-28.0298"/>
</g>
<!-- Node14&#45;&gt;Node4 -->
<g id="edge21" class="edge"><title>Node14&#45;&gt;Node4</title>
<path fill="none" stroke="midnightblue" d="M1042.44,-168.454C1011.87,-154.023 946.563,-125.116 888,-112 836.878,-100.551 480.361,-77.0857 360.905,-69.4559"/>
<polygon fill="midnightblue" stroke="midnightblue" points="360.954,-65.9521 350.752,-68.8092 360.509,-72.9379 360.954,-65.9521"/>
</g>
<!-- Node14&#45;&gt;Node9 -->
<g id="edge19" class="edge"><title>Node14&#45;&gt;Node9</title>
<path fill="none" stroke="midnightblue" d="M1085.99,-168.444C1113.7,-159.32 1157.75,-144.813 1188.62,-134.651"/>
<polygon fill="midnightblue" stroke="midnightblue" points="1189.73,-137.968 1198.14,-131.516 1187.54,-131.32 1189.73,-137.968"/>
</g>
<!-- Node15 -->
<g id="node15" class="node"><title>Node15</title>
<polygon fill="white" stroke="#bfbfbf" points="694.5,-112.5 694.5,-131.5 741.5,-131.5 741.5,-112.5 694.5,-112.5"/>
<text text-anchor="middle" x="718" y="-119.5" font-family="Lato" font-size="10.00">vector</text>
</g>
<!-- Node14&#45;&gt;Node15 -->
<g id="edge20" class="edge"><title>Node14&#45;&gt;Node15</title>
<path fill="none" stroke="midnightblue" d="M1028.7,-169.902C1025.43,-169.228 1022.15,-168.581 1019,-168 922.343,-150.187 807.234,-134.502 751.518,-127.257"/>
<polygon fill="midnightblue" stroke="midnightblue" points="751.873,-123.774 741.507,-125.963 750.976,-130.716 751.873,-123.774"/>
</g>
<!-- Node16&#45;&gt;Node17 -->
<g id="edge23" class="edge"><title>Node16&#45;&gt;Node17</title>
<path fill="none" stroke="midnightblue" d="M801.103,-224.324C815.903,-215.822 838.694,-202.729 855.982,-192.797"/>
<polygon fill="midnightblue" stroke="midnightblue" points="858.007,-195.671 864.935,-187.655 854.52,-189.601 858.007,-195.671"/>
</g>
<!-- Node19 -->
<g id="node19" class="node"><title>Node19</title>
<polygon fill="white" stroke="#bfbfbf" points="647,-168.5 647,-187.5 703,-187.5 703,-168.5 647,-168.5"/>
<text text-anchor="middle" x="675" y="-175.5" font-family="Lato" font-size="10.00">sstream</text>
</g>
<!-- Node16&#45;&gt;Node19 -->
<g id="edge26" class="edge"><title>Node16&#45;&gt;Node19</title>
<path fill="none" stroke="midnightblue" d="M768.166,-224.324C750.284,-215.625 722.525,-202.12 701.954,-192.113"/>
<polygon fill="midnightblue" stroke="midnightblue" points="703.313,-188.882 692.79,-187.655 700.251,-195.177 703.313,-188.882"/>
</g>
<!-- Node17&#45;&gt;Node3 -->
<g id="edge24" class="edge"><title>Node17&#45;&gt;Node3</title>
<path fill="none" stroke="midnightblue" d="M886.828,-168.075C907.165,-141.493 967.57,-62.5379 994.175,-27.7633"/>
<polygon fill="midnightblue" stroke="midnightblue" points="997.148,-29.6371 1000.44,-19.5681 991.589,-25.3836 997.148,-29.6371"/>
</g>
<!-- Node18 -->
<g id="node18" class="node"><title>Node18</title>
<polygon fill="white" stroke="#bfbfbf" points="836,-112.5 836,-131.5 880,-131.5 880,-112.5 836,-112.5"/>
<text text-anchor="middle" x="858" y="-119.5" font-family="Lato" font-size="10.00">string</text>
</g>
<!-- Node17&#45;&gt;Node18 -->
<g id="edge25" class="edge"><title>Node17&#45;&gt;Node18</title>
<path fill="none" stroke="midnightblue" d="M876.367,-168.083C873.388,-160.77 869.074,-150.181 865.375,-141.103"/>
<polygon fill="midnightblue" stroke="midnightblue" points="868.58,-139.691 861.565,-131.751 862.097,-142.333 868.58,-139.691"/>
</g>
<!-- Node20&#45;&gt;Node3 -->
<g id="edge29" class="edge"><title>Node20&#45;&gt;Node3</title>
<path fill="none" stroke="midnightblue" d="M602.288,-112.486C610.031,-98.1033 627.819,-69.2675 652,-56 706.75,-25.9599 894.449,-15.3492 972.514,-12.1779"/>
<polygon fill="midnightblue" stroke="midnightblue" points="972.92,-15.6648 982.776,-11.7785 972.648,-8.67011 972.92,-15.6648"/>
</g>
<!-- Node20&#45;&gt;Node21 -->
<g id="edge28" class="edge"><title>Node20&#45;&gt;Node21</title>
<path fill="none" stroke="midnightblue" d="M638.245,-116.423C652.944,-114.86 669.711,-113.205 685,-112 979.188,-88.8103 1053.36,-92.5531 1348,-76 1386.2,-73.8537 1429.7,-71.3204 1460.87,-69.4892"/>
<polygon fill="midnightblue" stroke="midnightblue" points="1461.16,-72.9779 1470.94,-68.8967 1460.75,-65.99 1461.16,-72.9779"/>
</g>
<!-- Node22&#45;&gt;Node3 -->
<g id="edge32" class="edge"><title>Node22&#45;&gt;Node3</title>
<path fill="none" stroke="midnightblue" d="M1211.69,-168.309C1176.77,-141.472 1070.36,-59.6935 1026.36,-25.8776"/>
<polygon fill="midnightblue" stroke="midnightblue" points="1028.26,-22.9236 1018.2,-19.6051 1023.99,-28.4739 1028.26,-22.9236"/>
</g>
<!-- Node22&#45;&gt;Node4 -->
<g id="edge34" class="edge"><title>Node22&#45;&gt;Node4</title>
<path fill="none" stroke="midnightblue" d="M1194.96,-169.22C1143.63,-155.309 1030.92,-126.297 934,-112 822.596,-95.5667 477.85,-75.5878 361.109,-69.1252"/>
<polygon fill="midnightblue" stroke="midnightblue" points="361.034,-65.6159 350.857,-68.56 360.649,-72.6053 361.034,-65.6159"/>
</g>
<!-- Node22&#45;&gt;Node9 -->
<g id="edge33" class="edge"><title>Node22&#45;&gt;Node9</title>
<path fill="none" stroke="midnightblue" d="M1223.17,-168.083C1223.3,-161.006 1223.48,-150.861 1223.65,-141.986"/>
<polygon fill="midnightblue" stroke="midnightblue" points="1227.15,-141.814 1223.84,-131.751 1220.15,-141.685 1227.15,-141.814"/>
</g>
<!-- Node22&#45;&gt;Node12 -->
<g id="edge31" class="edge"><title>Node22&#45;&gt;Node12</title>
<path fill="none" stroke="midnightblue" d="M1240.51,-168.324C1258.07,-159.625 1285.33,-146.12 1305.53,-136.113"/>
<polygon fill="midnightblue" stroke="midnightblue" points="1307.12,-139.23 1314.53,-131.655 1304.02,-132.958 1307.12,-139.23"/>
</g>
<!-- Node22&#45;&gt;Node18 -->
<g id="edge35" class="edge"><title>Node22&#45;&gt;Node18</title>
<path fill="none" stroke="midnightblue" d="M1194.84,-170.014C1191.53,-169.287 1188.2,-168.598 1185,-168 1077.88,-147.991 949.466,-132.878 890.503,-126.428"/>
<polygon fill="midnightblue" stroke="midnightblue" points="890.641,-122.922 880.322,-125.325 889.887,-129.882 890.641,-122.922"/>
</g>
<!-- Node23&#45;&gt;Node3 -->
<g id="edge37" class="edge"><title>Node23&#45;&gt;Node3</title>
<path fill="none" stroke="midnightblue" d="M1591.42,-57.7954C1586.55,-57.1427 1581.68,-56.5294 1577,-56 1374.4,-33.0832 1129.97,-17.9717 1041.26,-12.8932"/>
<polygon fill="midnightblue" stroke="midnightblue" points="1041.41,-9.39616 1031.22,-12.3238 1041.01,-16.3849 1041.41,-9.39616"/>
</g>
<!-- Node24&#45;&gt;Node3 -->
<g id="edge41" class="edge"><title>Node24&#45;&gt;Node3</title>
<path fill="none" stroke="midnightblue" d="M28.4273,-112.359C33.0328,-97.7845 44.5507,-68.6675 66,-56 105.791,-32.5004 808.931,-15.4165 972.981,-11.7393"/>
<polygon fill="midnightblue" stroke="midnightblue" points="973.074,-15.2382 982.994,-11.5166 972.919,-8.23991 973.074,-15.2382"/>
</g>
<!-- Node24&#45;&gt;Node4 -->
<g id="edge40" class="edge"><title>Node24&#45;&gt;Node4</title>
<path fill="none" stroke="midnightblue" d="M52.0086,-116.255C104.152,-106.743 221.716,-85.295 283.071,-74.1019"/>
<polygon fill="midnightblue" stroke="midnightblue" points="283.922,-77.5045 293.132,-72.2665 282.666,-70.6181 283.922,-77.5045"/>
</g>
<!-- Node25&#45;&gt;Node6 -->
<g id="edge43" class="edge"><title>Node25&#45;&gt;Node6</title>
<path fill="none" stroke="midnightblue" d="M837.929,-225.515C806.238,-217.178 760.296,-202.901 750,-188 730.799,-160.211 771.235,-138.268 750,-112 729.41,-86.5302 638.185,-74.8255 582.966,-69.988"/>
<polygon fill="midnightblue" stroke="midnightblue" points="583.024,-66.4807 572.767,-69.1364 582.441,-73.4565 583.024,-66.4807"/>
</g>
<!-- Node25&#45;&gt;Node26 -->
<g id="edge44" class="edge"><title>Node25&#45;&gt;Node26</title>
<path fill="none" stroke="midnightblue" d="M856.307,-224.324C844.099,-215.979 825.422,-203.212 810.997,-193.352"/>
<polygon fill="midnightblue" stroke="midnightblue" points="812.892,-190.408 802.661,-187.655 808.942,-196.187 812.892,-190.408"/>
</g>
<!-- Node25&#45;&gt;Node27 -->
<g id="edge48" class="edge"><title>Node25&#45;&gt;Node27</title>
<path fill="none" stroke="midnightblue" d="M886.031,-224.324C903.03,-215.664 929.376,-202.242 948.993,-192.249"/>
<polygon fill="midnightblue" stroke="midnightblue" points="950.69,-195.312 958.012,-187.655 947.512,-189.075 950.69,-195.312"/>
</g>
<!-- Node26&#45;&gt;Node3 -->
<g id="edge47" class="edge"><title>Node26&#45;&gt;Node3</title>
<path fill="none" stroke="midnightblue" d="M793.113,-168.464C798.353,-155.053 810.054,-128.842 827,-112 869.994,-69.2693 934.765,-38.9093 973.759,-23.2295"/>
<polygon fill="midnightblue" stroke="midnightblue" points="975.063,-26.4776 983.089,-19.5607 972.501,-19.9632 975.063,-26.4776"/>
</g>
<!-- Node26&#45;&gt;Node15 -->
<g id="edge46" class="edge"><title>Node26&#45;&gt;Node15</title>
<path fill="none" stroke="midnightblue" d="M778.432,-168.324C767.58,-160.185 751.119,-147.839 738.117,-138.087"/>
<polygon fill="midnightblue" stroke="midnightblue" points="739.879,-135.034 729.779,-131.834 735.679,-140.634 739.879,-135.034"/>
</g>
<!-- Node26&#45;&gt;Node18 -->
<g id="edge45" class="edge"><title>Node26&#45;&gt;Node18</title>
<path fill="none" stroke="midnightblue" d="M800.925,-168.324C811.175,-160.185 826.721,-147.839 839.001,-138.087"/>
<polygon fill="midnightblue" stroke="midnightblue" points="841.221,-140.794 846.876,-131.834 836.868,-135.312 841.221,-140.794"/>
</g>
<!-- Node27&#45;&gt;Node3 -->
<g id="edge50" class="edge"><title>Node27&#45;&gt;Node3</title>
<path fill="none" stroke="midnightblue" d="M976.72,-168.075C981.758,-141.945 996.55,-65.2106 1003.42,-29.577"/>
<polygon fill="midnightblue" stroke="midnightblue" points="1006.89,-30.0499 1005.35,-19.5681 1000.02,-28.7248 1006.89,-30.0499"/>
</g>
<!-- Node27&#45;&gt;Node18 -->
<g id="edge49" class="edge"><title>Node27&#45;&gt;Node18</title>
<path fill="none" stroke="midnightblue" d="M956.461,-168.444C937.377,-159.636 907.425,-145.812 885.564,-135.722"/>
<polygon fill="midnightblue" stroke="midnightblue" points="886.999,-132.529 876.452,-131.516 884.065,-138.885 886.999,-132.529"/>
</g>
<!-- Node28&#45;&gt;Node3 -->
<g id="edge52" class="edge"><title>Node28&#45;&gt;Node3</title>
<path fill="none" stroke="midnightblue" d="M1702.97,-57.5619C1699.61,-56.9717 1696.25,-56.4363 1693,-56 1444.48,-22.5905 1141.84,-13.7098 1041.29,-11.5991"/>
<polygon fill="midnightblue" stroke="midnightblue" points="1041.19,-8.09641 1031.12,-11.3945 1041.04,-15.095 1041.19,-8.09641"/>
</g>
<!-- Node29&#45;&gt;Node3 -->
<g id="edge56" class="edge"><title>Node29&#45;&gt;Node3</title>
<path fill="none" stroke="midnightblue" d="M1549.3,-168.252C1557,-146.126 1573.42,-87.4593 1544,-56 1509.64,-19.2592 1154.03,-12.4908 1041.17,-11.2656"/>
<polygon fill="midnightblue" stroke="midnightblue" points="1041.06,-7.76439 1031.02,-11.1635 1040.99,-14.764 1041.06,-7.76439"/>
</g>
<!-- Node29&#45;&gt;Node9 -->
<g id="edge58" class="edge"><title>Node29&#45;&gt;Node9</title>
<path fill="none" stroke="midnightblue" d="M1510.93,-171.118C1450.86,-161.046 1328.64,-140.548 1264.84,-129.848"/>
<polygon fill="midnightblue" stroke="midnightblue" points="1265.18,-126.358 1254.74,-128.156 1264.03,-133.262 1265.18,-126.358"/>
</g>
<!-- Node29&#45;&gt;Node21 -->
<g id="edge57" class="edge"><title>Node29&#45;&gt;Node21</title>
<path fill="none" stroke="midnightblue" d="M1542.63,-168.368C1535.62,-150.456 1519.39,-108.923 1510.02,-84.9482"/>
<polygon fill="midnightblue" stroke="midnightblue" points="1513.26,-83.6308 1506.36,-75.5914 1506.74,-86.1794 1513.26,-83.6308"/>
</g>
<!-- Node30&#45;&gt;Node3 -->
<g id="edge60" class="edge"><title>Node30&#45;&gt;Node3</title>
<path fill="none" stroke="midnightblue" d="M1382.95,-168.477C1387.46,-146.368 1395.96,-86.7666 1365,-56 1319.97,-11.2627 1121.9,-9.15526 1041.3,-10.2197"/>
<polygon fill="midnightblue" stroke="midnightblue" points="1041.12,-6.72199 1031.17,-10.3787 1041.23,-13.7211 1041.12,-6.72199"/>
</g>
<!-- Node30&#45;&gt;Node9 -->
<g id="edge62" class="edge"><title>Node30&#45;&gt;Node9</title>
<path fill="none" stroke="midnightblue" d="M1356.12,-168.444C1329.71,-159.359 1287.78,-144.939 1258.26,-134.783"/>
<polygon fill="midnightblue" stroke="midnightblue" points="1259.36,-131.459 1248.76,-131.516 1257.08,-138.079 1259.36,-131.459"/>
</g>
<!-- Node30&#45;&gt;Node12 -->
<g id="edge61" class="edge"><title>Node30&#45;&gt;Node12</title>
<path fill="none" stroke="midnightblue" d="M1372.91,-168.083C1365.84,-160.298 1355.41,-148.801 1346.85,-139.367"/>
<polygon fill="midnightblue" stroke="midnightblue" points="1349.25,-136.805 1339.94,-131.751 1344.07,-141.509 1349.25,-136.805"/>
</g>
<!-- Node31&#45;&gt;Node3 -->
<g id="edge64" class="edge"><title>Node31&#45;&gt;Node3</title>
<path fill="none" stroke="midnightblue" d="M1135.69,-168.075C1113.82,-141.38 1048.67,-61.865 1020.37,-27.3218"/>
<polygon fill="midnightblue" stroke="midnightblue" points="1023.06,-25.0854 1014.02,-19.5681 1017.65,-29.5217 1023.06,-25.0854"/>
</g>
<!-- Node31&#45;&gt;Node18 -->
<g id="edge65" class="edge"><title>Node31&#45;&gt;Node18</title>
<path fill="none" stroke="midnightblue" d="M1109.38,-170.061C1105.88,-169.357 1102.37,-168.659 1099,-168 1024.4,-153.407 936.598,-137.275 890.319,-128.853"/>
<polygon fill="midnightblue" stroke="midnightblue" points="890.75,-125.374 880.286,-127.029 889.499,-132.261 890.75,-125.374"/>
</g>
<!-- Node32&#45;&gt;Node3 -->
<g id="edge74" class="edge"><title>Node32&#45;&gt;Node3</title>
<path fill="none" stroke="midnightblue" d="M575.104,-168.456C593.054,-159.465 622.073,-144.86 647,-132 663.961,-123.249 667.379,-119.33 685,-112 786.806,-69.65 912.952,-34.9818 972.629,-19.589"/>
<polygon fill="midnightblue" stroke="midnightblue" points="973.819,-22.8972 982.64,-17.0273 972.084,-16.1157 973.819,-22.8972"/>
</g>
<!-- Node32&#45;&gt;Node4 -->
<g id="edge71" class="edge"><title>Node32&#45;&gt;Node4</title>
<path fill="none" stroke="midnightblue" d="M548.707,-168.163C533.704,-154.34 502.713,-127.575 472,-112 436.163,-93.8258 391.71,-81.6379 360.534,-74.5817"/>
<polygon fill="midnightblue" stroke="midnightblue" points="361.019,-71.105 350.502,-72.3842 359.522,-77.9429 361.019,-71.105"/>
</g>
<!-- Node32&#45;&gt;Node5 -->
<g id="edge68" class="edge"><title>Node32&#45;&gt;Node5</title>
<path fill="none" stroke="midnightblue" d="M534.074,-168.444C508.781,-159.399 468.698,-145.064 440.32,-134.916"/>
<polygon fill="midnightblue" stroke="midnightblue" points="441.409,-131.588 430.814,-131.516 439.052,-138.179 441.409,-131.588"/>
</g>
<!-- Node32&#45;&gt;Node6 -->
<g id="edge67" class="edge"><title>Node32&#45;&gt;Node6</title>
<path fill="none" stroke="midnightblue" d="M556.121,-168.402C554.184,-159.366 551.152,-144.726 549,-132 546.385,-116.535 543.98,-98.9054 542.315,-85.9115"/>
<polygon fill="midnightblue" stroke="midnightblue" points="545.772,-85.3446 541.056,-75.857 538.826,-86.2145 545.772,-85.3446"/>
</g>
<!-- Node32&#45;&gt;Node9 -->
<g id="edge69" class="edge"><title>Node32&#45;&gt;Node9</title>
<path fill="none" stroke="midnightblue" d="M590.668,-173.06C605.155,-171.381 622.416,-169.475 638,-168 842.635,-148.638 1088.08,-131.883 1183.39,-125.622"/>
<polygon fill="midnightblue" stroke="midnightblue" points="1183.71,-129.108 1193.46,-124.962 1183.26,-122.123 1183.71,-129.108"/>
</g>
<!-- Node32&#45;&gt;Node15 -->
<g id="edge73" class="edge"><title>Node32&#45;&gt;Node15</title>
<path fill="none" stroke="midnightblue" d="M583.352,-168.444C610.744,-159.199 654.509,-144.428 684.668,-134.25"/>
<polygon fill="midnightblue" stroke="midnightblue" points="685.975,-137.502 694.331,-130.988 683.737,-130.87 685.975,-137.502"/>
</g>
<!-- Node32&#45;&gt;Node18 -->
<g id="edge72" class="edge"><title>Node32&#45;&gt;Node18</title>
<path fill="none" stroke="midnightblue" d="M590.606,-170.699C595.43,-169.783 600.343,-168.86 605,-168 684.33,-153.35 777.819,-136.945 825.885,-128.573"/>
<polygon fill="midnightblue" stroke="midnightblue" points="826.733,-131.978 835.985,-126.815 825.533,-125.081 826.733,-131.978"/>
</g>
<!-- Node32&#45;&gt;Node20 -->
<g id="edge70" class="edge"><title>Node32&#45;&gt;Node20</title>
<path fill="none" stroke="midnightblue" d="M564.605,-168.083C570.255,-160.455 578.545,-149.264 585.451,-139.941"/>
<polygon fill="midnightblue" stroke="midnightblue" points="588.378,-141.87 591.518,-131.751 582.753,-137.703 588.378,-141.87"/>
</g>
<!-- Node33&#45;&gt;Node3 -->
<g id="edge76" class="edge"><title>Node33&#45;&gt;Node3</title>
<path fill="none" stroke="midnightblue" d="M450.755,-171.275C384.448,-156.694 228.478,-115.085 284,-56 307.843,-30.627 831.592,-15.4749 972.407,-11.85"/>
<polygon fill="midnightblue" stroke="midnightblue" points="972.71,-15.3435 982.618,-11.5901 972.532,-8.34575 972.71,-15.3435"/>
</g>
<!-- Node33&#45;&gt;Node4 -->
<g id="edge78" class="edge"><title>Node33&#45;&gt;Node4</title>
<path fill="none" stroke="midnightblue" d="M450.902,-175.391C419.798,-172.098 370.208,-162.123 341,-132 329.117,-119.745 324.602,-100.484 322.919,-86.1049"/>
<polygon fill="midnightblue" stroke="midnightblue" points="326.384,-85.5327 322.09,-75.8472 319.407,-86.0966 326.384,-85.5327"/>
</g>
<!-- Node33&#45;&gt;Node15 -->
<g id="edge80" class="edge"><title>Node33&#45;&gt;Node15</title>
<path fill="none" stroke="midnightblue" d="M507.268,-170.064C510.215,-169.359 513.167,-168.66 516,-168 575.229,-154.2 644.444,-138.976 684.546,-130.244"/>
<polygon fill="midnightblue" stroke="midnightblue" points="685.303,-133.662 694.331,-128.117 683.816,-126.821 685.303,-133.662"/>
</g>
<!-- Node33&#45;&gt;Node18 -->
<g id="edge79" class="edge"><title>Node33&#45;&gt;Node18</title>
<path fill="none" stroke="midnightblue" d="M507.214,-169.805C510.171,-169.151 513.141,-168.534 516,-168 629.011,-146.884 764.851,-132.132 825.73,-126.074"/>
<polygon fill="midnightblue" stroke="midnightblue" points="826.254,-129.539 835.864,-125.077 825.569,-122.573 826.254,-129.539"/>
</g>
<!-- Node33&#45;&gt;Node20 -->
<g id="edge77" class="edge"><title>Node33&#45;&gt;Node20</title>
<path fill="none" stroke="midnightblue" d="M497.856,-168.444C517.266,-159.636 547.73,-145.812 569.965,-135.722"/>
<polygon fill="midnightblue" stroke="midnightblue" points="571.572,-138.836 579.232,-131.516 568.68,-132.462 571.572,-138.836"/>
</g>
<!-- Node34&#45;&gt;Node3 -->
<g id="edge82" class="edge"><title>Node34&#45;&gt;Node3</title>
<path fill="none" stroke="midnightblue" d="M1423.52,-224.479C1428.18,-195.202 1438.97,-98.2197 1386,-56 1333.2,-13.9105 1124.24,-10.3167 1041.24,-10.6005"/>
<polygon fill="midnightblue" stroke="midnightblue" points="1041.06,-7.10138 1031.08,-10.6573 1041.1,-14.1013 1041.06,-7.10138"/>
</g>
<!-- Node35&#45;&gt;Node4 -->
<g id="edge86" class="edge"><title>Node35&#45;&gt;Node4</title>
<path fill="none" stroke="midnightblue" d="M566.484,-232.323C506.604,-229.091 380.083,-212.557 326,-132 316.95,-118.52 316.795,-99.7086 318.403,-85.7897"/>
<polygon fill="midnightblue" stroke="midnightblue" points="321.867,-86.2883 319.934,-75.8713 314.949,-85.22 321.867,-86.2883"/>
</g>
<!-- Node35&#45;&gt;Node18 -->
<g id="edge87" class="edge"><title>Node35&#45;&gt;Node18</title>
<path fill="none" stroke="midnightblue" d="M601.672,-224.251C606.487,-210.048 618.022,-182.144 638,-168 667.904,-146.828 772.502,-132.487 825.983,-126.359"/>
<polygon fill="midnightblue" stroke="midnightblue" points="826.411,-129.833 835.961,-125.244 825.634,-122.877 826.411,-129.833"/>
</g>
<!-- Node35&#45;&gt;Node32 -->
<g id="edge85" class="edge"><title>Node35&#45;&gt;Node32</title>
<path fill="none" stroke="midnightblue" d="M592.23,-224.083C586.438,-216.455 577.942,-205.264 570.862,-195.941"/>
<polygon fill="midnightblue" stroke="midnightblue" points="573.479,-193.599 564.644,-187.751 567.904,-197.832 573.479,-193.599"/>
</g>
<!-- Node36&#45;&gt;Node3 -->
<g id="edge90" class="edge"><title>Node36&#45;&gt;Node3</title>
<path fill="none" stroke="midnightblue" d="M133.791,-168.315C114.927,-156.357 86.6715,-133.815 99,-112 122.739,-69.9955 145.886,-70.1928 192,-56 267.315,-32.8195 827.038,-15.9482 972.524,-11.9225"/>
<polygon fill="midnightblue" stroke="midnightblue" points="972.754,-15.4176 982.654,-11.6445 972.562,-8.42023 972.754,-15.4176"/>
</g>
<!-- Node36&#45;&gt;Node4 -->
<g id="edge92" class="edge"><title>Node36&#45;&gt;Node4</title>
<path fill="none" stroke="midnightblue" d="M162.575,-168.368C192.262,-149.492 263.204,-104.385 299.61,-81.2367"/>
<polygon fill="midnightblue" stroke="midnightblue" points="301.927,-83.9106 308.488,-75.5914 298.171,-78.0035 301.927,-83.9106"/>
</g>
<!-- Node36&#45;&gt;Node24 -->
<g id="edge91" class="edge"><title>Node36&#45;&gt;Node24</title>
<path fill="none" stroke="midnightblue" d="M129.51,-168.444C109.358,-159.596 77.6771,-145.687 54.6692,-135.586"/>
<polygon fill="midnightblue" stroke="midnightblue" points="55.962,-132.332 45.3985,-131.516 53.148,-138.741 55.962,-132.332"/>
</g>
</g>
</svg>
