<?xml version="1.0" encoding="UTF-8" standalone="no"?>
<!DOCTYPE svg PUBLIC "-//W3C//DTD SVG 1.1//EN"
 "http://www.w3.org/Graphics/SVG/1.1/DTD/svg11.dtd">
<!-- Generated by graphviz version 2.40.1 (20161225.0304)
 -->
<!-- Title: jngl/all.hpp Pages: 1 -->
<svg width="1987pt" height="308pt"
 viewBox="0.00 0.00 1987.31 308.00" xmlns="http://www.w3.org/2000/svg" xmlns:xlink="http://www.w3.org/1999/xlink">
<g id="graph0" class="graph" transform="scale(1 1) rotate(0) translate(4 304)">
<title>jngl/all.hpp</title>
<polygon fill="#ffffff" stroke="transparent" points="-4,4 -4,-304 1983.3091,-304 1983.3091,4 -4,4"/>
<!-- Node0 -->
<g id="node1" class="node">
<title>Node0</title>
<polygon fill="#bfbfbf" stroke="#000000" points="1016.3091,-280.5 1016.3091,-299.5 1105.3091,-299.5 1105.3091,-280.5 1016.3091,-280.5"/>
<text text-anchor="middle" x="1060.8091" y="-287.5" font-family="'Consolas',monospace" font-size="10.00" fill="#000000">jngl/all.hpp</text>
</g>
<!-- Node1 -->
<g id="node2" class="node">
<title>Node1</title>
<g id="a_node2"><a xlink:href="App_8hpp_source.html" target="_top" xlink:title="App.hpp">
<polygon fill="#ffffff" stroke="#000000" points="907.3091,-168.5 907.3091,-187.5 966.3091,-187.5 966.3091,-168.5 907.3091,-168.5"/>
<text text-anchor="middle" x="936.8091" y="-175.5" font-family="'Consolas',monospace" font-size="10.00" fill="#000000">App.hpp</text>
</a>
</g>
</g>
<!-- Node0&#45;&gt;Node1 -->
<g id="edge1" class="edge">
<title>Node0&#45;&gt;Node1</title>
<path fill="none" stroke="#191970" d="M1057.1007,-280.397C1051.3358,-266.4963 1039.065,-240.618 1021.8091,-224 1007.5635,-210.2812 988.4171,-199.4438 971.9025,-191.7428"/>
<polygon fill="#191970" stroke="#191970" points="973.0989,-188.4443 962.54,-187.5729 970.2509,-194.8387 973.0989,-188.4443"/>
</g>
<!-- Node5 -->
<g id="node6" class="node">
<title>Node5</title>
<g id="a_node6"><a xlink:href="Shader_8hpp_source.html" target="_top" xlink:title="Shader.hpp">
<polygon fill="#ffffff" stroke="#000000" points="451.3091,-112.5 451.3091,-131.5 528.3091,-131.5 528.3091,-112.5 451.3091,-112.5"/>
<text text-anchor="middle" x="489.8091" y="-119.5" font-family="'Consolas',monospace" font-size="10.00" fill="#000000">Shader.hpp</text>
</a>
</g>
</g>
<!-- Node0&#45;&gt;Node5 -->
<g id="edge5" class="edge">
<title>Node0&#45;&gt;Node5</title>
<path fill="none" stroke="#191970" d="M1016.0853,-288.0476C915.4537,-283.2548 673.988,-269.4093 596.8091,-244 550.6184,-228.7928 530.8264,-227.7475 502.8091,-188 493.3588,-174.5931 490.3651,-156.0307 489.5878,-142.0055"/>
<polygon fill="#191970" stroke="#191970" points="493.0849,-141.8334 489.3587,-131.9155 486.0867,-141.9924 493.0849,-141.8334"/>
</g>
<!-- Node6 -->
<g id="node7" class="node">
<title>Node6</title>
<g id="a_node7"><a xlink:href="ShaderProgram_8hpp_source.html" target="_top" xlink:title="ShaderProgram.hpp">
<polygon fill="#ffffff" stroke="#000000" points="14.3091,-112.5 14.3091,-131.5 133.3091,-131.5 133.3091,-112.5 14.3091,-112.5"/>
<text text-anchor="middle" x="73.8091" y="-119.5" font-family="'Consolas',monospace" font-size="10.00" fill="#000000">ShaderProgram.hpp</text>
</a>
</g>
</g>
<!-- Node0&#45;&gt;Node6 -->
<g id="edge8" class="edge">
<title>Node0&#45;&gt;Node6</title>
<path fill="none" stroke="#191970" d="M1016.1493,-288.6267C860.4766,-283.6682 347.394,-265.8248 276.8091,-244 202.5703,-221.0454 127.3119,-165.4957 92.9972,-137.9851"/>
<polygon fill="#191970" stroke="#191970" points="95.1484,-135.2233 85.1808,-131.6319 90.7332,-140.6553 95.1484,-135.2233"/>
</g>
<!-- Node9 -->
<g id="node10" class="node">
<title>Node9</title>
<g id="a_node10"><a xlink:href="Vertex_8hpp_source.html" target="_top" xlink:title="Vertex.hpp">
<polygon fill="#ffffff" stroke="#000000" points="1813.3091,-224.5 1813.3091,-243.5 1890.3091,-243.5 1890.3091,-224.5 1813.3091,-224.5"/>
<text text-anchor="middle" x="1851.8091" y="-231.5" font-family="'Consolas',monospace" font-size="10.00" fill="#000000">Vertex.hpp</text>
</a>
</g>
</g>
<!-- Node0&#45;&gt;Node9 -->
<g id="edge13" class="edge">
<title>Node0&#45;&gt;Node9</title>
<path fill="none" stroke="#191970" d="M1105.4947,-289.1469C1220.7496,-286.5286 1537.3573,-276.6851 1798.8091,-244 1800.2609,-243.8185 1801.7329,-243.6219 1803.2172,-243.4127"/>
<polygon fill="#191970" stroke="#191970" points="1803.7649,-246.8697 1813.1093,-241.8764 1802.6906,-239.9527 1803.7649,-246.8697"/>
</g>
<!-- Node10 -->
<g id="node11" class="node">
<title>Node10</title>
<g id="a_node11"><a xlink:href="color_8hpp.html" target="_top" xlink:title="color.hpp">
<polygon fill="#ffffff" stroke="#000000" points="1740.3091,-112.5 1740.3091,-131.5 1811.3091,-131.5 1811.3091,-112.5 1740.3091,-112.5"/>
<text text-anchor="middle" x="1775.8091" y="-119.5" font-family="'Consolas',monospace" font-size="10.00" fill="#000000">color.hpp</text>
</a>
</g>
</g>
<!-- Node0&#45;&gt;Node10 -->
<g id="edge14" class="edge">
<title>Node0&#45;&gt;Node10</title>
<path fill="none" stroke="#191970" d="M1105.4239,-288.2067C1240.0642,-282.5913 1636.419,-264.4942 1690.8091,-244 1729.4049,-229.457 1743.4599,-223.2895 1764.8091,-188 1773.1707,-174.1784 1775.6939,-155.8977 1776.2544,-142.0808"/>
<polygon fill="#191970" stroke="#191970" points="1779.7574,-141.7518 1776.3486,-131.7204 1772.7577,-141.6881 1779.7574,-141.7518"/>
</g>
<!-- Node11 -->
<g id="node12" class="node">
<title>Node11</title>
<g id="a_node12"><a xlink:href="Controller_8hpp_source.html" target="_top" xlink:title="Controller.hpp">
<polygon fill="#ffffff" stroke="#000000" points="662.3091,-224.5 662.3091,-243.5 763.3091,-243.5 763.3091,-224.5 662.3091,-224.5"/>
<text text-anchor="middle" x="712.8091" y="-231.5" font-family="'Consolas',monospace" font-size="10.00" fill="#000000">Controller.hpp</text>
</a>
</g>
</g>
<!-- Node0&#45;&gt;Node11 -->
<g id="edge16" class="edge">
<title>Node0&#45;&gt;Node11</title>
<path fill="none" stroke="#191970" d="M1016.0266,-282.7936C954.1755,-272.8406 842.42,-254.8569 773.2256,-243.7222"/>
<polygon fill="#191970" stroke="#191970" points="773.7655,-240.2641 763.3364,-242.1308 772.6533,-247.1752 773.7655,-240.2641"/>
</g>
<!-- Node12 -->
<g id="node13" class="node">
<title>Node12</title>
<g id="a_node13"><a xlink:href="input_8hpp.html" target="_top" xlink:title="input.hpp">
<polygon fill="#ffffff" stroke="#000000" points="690.3091,-168.5 690.3091,-187.5 761.3091,-187.5 761.3091,-168.5 690.3091,-168.5"/>
<text text-anchor="middle" x="725.8091" y="-175.5" font-family="'Consolas',monospace" font-size="10.00" fill="#000000">input.hpp</text>
</a>
</g>
</g>
<!-- Node0&#45;&gt;Node12 -->
<g id="edge42" class="edge">
<title>Node0&#45;&gt;Node12</title>
<path fill="none" stroke="#191970" d="M1016.0878,-284.3662C954.4192,-276.1571 846.8059,-260.1225 810.8091,-244 784.3826,-232.1639 758.7997,-210.4689 742.7247,-195.1905"/>
<polygon fill="#191970" stroke="#191970" points="744.8307,-192.355 735.231,-187.8719 739.9397,-197.3629 744.8307,-192.355"/>
</g>
<!-- Node17 -->
<g id="node18" class="node">
<title>Node17</title>
<g id="a_node18"><a xlink:href="debug_8hpp_source.html" target="_top" xlink:title="debug.hpp">
<polygon fill="#ffffff" stroke="#000000" points="1146.3091,-224.5 1146.3091,-243.5 1217.3091,-243.5 1217.3091,-224.5 1146.3091,-224.5"/>
<text text-anchor="middle" x="1181.8091" y="-231.5" font-family="'Consolas',monospace" font-size="10.00" fill="#000000">debug.hpp</text>
</a>
</g>
</g>
<!-- Node0&#45;&gt;Node17 -->
<g id="edge26" class="edge">
<title>Node0&#45;&gt;Node17</title>
<path fill="none" stroke="#191970" d="M1081.6097,-280.3733C1101.0334,-271.3838 1130.2314,-257.8706 1152.1055,-247.7471"/>
<polygon fill="#191970" stroke="#191970" points="1153.6747,-250.8776 1161.2799,-243.5011 1150.7346,-244.5249 1153.6747,-250.8776"/>
</g>
<!-- Node18 -->
<g id="node19" class="node">
<title>Node18</title>
<g id="a_node19"><a xlink:href="message_8hpp_source.html" target="_top" xlink:title="message.hpp">
<polygon fill="#ffffff" stroke="#000000" points="1118.3091,-168.5 1118.3091,-187.5 1201.3091,-187.5 1201.3091,-168.5 1118.3091,-168.5"/>
<text text-anchor="middle" x="1159.8091" y="-175.5" font-family="'Consolas',monospace" font-size="10.00" fill="#000000">message.hpp</text>
</a>
</g>
</g>
<!-- Node0&#45;&gt;Node18 -->
<g id="edge57" class="edge">
<title>Node0&#45;&gt;Node18</title>
<path fill="none" stroke="#191970" d="M1069.2498,-280.4509C1085.981,-261.5227 1123.5556,-219.014 1144.6692,-195.1279"/>
<polygon fill="#191970" stroke="#191970" points="1147.3893,-197.3354 1151.3898,-187.5249 1142.1445,-192.6994 1147.3893,-197.3354"/>
</g>
<!-- Node20 -->
<g id="node21" class="node">
<title>Node20</title>
<g id="a_node21"><a xlink:href="drawable_8hpp_source.html" target="_top" xlink:title="drawable.hpp">
<polygon fill="#ffffff" stroke="#000000" points="305.3091,-112.5 305.3091,-131.5 394.3091,-131.5 394.3091,-112.5 305.3091,-112.5"/>
<text text-anchor="middle" x="349.8091" y="-119.5" font-family="'Consolas',monospace" font-size="10.00" fill="#000000">drawable.hpp</text>
</a>
</g>
</g>
<!-- Node0&#45;&gt;Node20 -->
<g id="edge31" class="edge">
<title>Node0&#45;&gt;Node20</title>
<path fill="none" stroke="#191970" d="M1016.1237,-288.8367C906.3169,-285.537 625.8217,-274.3116 537.8091,-244 468.5794,-220.1573 399.5423,-165.4438 367.8237,-138.1289"/>
<polygon fill="#191970" stroke="#191970" points="370.0745,-135.4477 360.2409,-131.5041 365.4689,-140.7193 370.0745,-135.4477"/>
</g>
<!-- Node21 -->
<g id="node22" class="node">
<title>Node21</title>
<g id="a_node22"><a xlink:href="font_8hpp.html" target="_top" xlink:title="font.hpp">
<polygon fill="#ffffff" stroke="#000000" points="1424.3091,-168.5 1424.3091,-187.5 1489.3091,-187.5 1489.3091,-168.5 1424.3091,-168.5"/>
<text text-anchor="middle" x="1456.8091" y="-175.5" font-family="'Consolas',monospace" font-size="10.00" fill="#000000">font.hpp</text>
</a>
</g>
</g>
<!-- Node0&#45;&gt;Node21 -->
<g id="edge33" class="edge">
<title>Node0&#45;&gt;Node21</title>
<path fill="none" stroke="#191970" d="M1105.592,-288.4962C1187.9127,-285.0232 1359.4678,-274.2798 1409.8091,-244 1428.0034,-233.0562 1441.0815,-212.0739 1448.7516,-196.6949"/>
<polygon fill="#191970" stroke="#191970" points="1451.9572,-198.102 1453.0104,-187.5596 1445.6128,-195.1442 1451.9572,-198.102"/>
</g>
<!-- Node22 -->
<g id="node23" class="node">
<title>Node22</title>
<g id="a_node23"><a xlink:href="framebuffer_8hpp_source.html" target="_top" xlink:title="framebuffer.hpp">
<polygon fill="#ffffff" stroke="#000000" points="1147.3091,-112.5 1147.3091,-131.5 1254.3091,-131.5 1254.3091,-112.5 1147.3091,-112.5"/>
<text text-anchor="middle" x="1200.8091" y="-119.5" font-family="'Consolas',monospace" font-size="10.00" fill="#000000">framebuffer.hpp</text>
</a>
</g>
</g>
<!-- Node0&#45;&gt;Node22 -->
<g id="edge39" class="edge">
<title>Node0&#45;&gt;Node22</title>
<path fill="none" stroke="#191970" d="M1105.4467,-282.6508C1185.1812,-268.4541 1346.5086,-234.5079 1375.8091,-188 1380.5472,-180.4792 1381.237,-175.0391 1375.8091,-168 1368.444,-158.4488 1306.9352,-143.8024 1258.8956,-133.6114"/>
<polygon fill="#191970" stroke="#191970" points="1259.379,-130.1367 1248.8733,-131.5079 1257.9411,-136.9874 1259.379,-130.1367"/>
</g>
<!-- Node23 -->
<g id="node24" class="node">
<title>Node23</title>
<g id="a_node24"><a xlink:href="job_8hpp.html" target="_top" xlink:title="job.hpp">
<polygon fill="#ffffff" stroke="#000000" points="151.3091,-112.5 151.3091,-131.5 210.3091,-131.5 210.3091,-112.5 151.3091,-112.5"/>
<text text-anchor="middle" x="180.8091" y="-119.5" font-family="'Consolas',monospace" font-size="10.00" fill="#000000">job.hpp</text>
</a>
</g>
</g>
<!-- Node0&#45;&gt;Node23 -->
<g id="edge43" class="edge">
<title>Node0&#45;&gt;Node23</title>
<path fill="none" stroke="#191970" d="M1016.092,-289.2649C880.3301,-286.6957 474.4199,-276.4344 346.8091,-244 289.3771,-229.4027 271.0205,-226.307 225.8091,-188 210.3345,-174.8886 197.8541,-155.2175 189.9973,-140.7608"/>
<polygon fill="#191970" stroke="#191970" points="193.0258,-138.9979 185.3167,-131.7302 186.811,-142.2191 193.0258,-138.9979"/>
</g>
<!-- Node24 -->
<g id="node25" class="node">
<title>Node24</title>
<g id="a_node25"><a xlink:href="main_8hpp_source.html" target="_top" xlink:title="main.hpp">
<polygon fill="#ffffff" stroke="#000000" points="948.3091,-224.5 948.3091,-243.5 1013.3091,-243.5 1013.3091,-224.5 948.3091,-224.5"/>
<text text-anchor="middle" x="980.8091" y="-231.5" font-family="'Consolas',monospace" font-size="10.00" fill="#000000">main.hpp</text>
</a>
</g>
</g>
<!-- Node0&#45;&gt;Node24 -->
<g id="edge46" class="edge">
<title>Node0&#45;&gt;Node24</title>
<path fill="none" stroke="#191970" d="M1046.8741,-280.2455C1034.7144,-271.7337 1016.8626,-259.2375 1002.7806,-249.3801"/>
<polygon fill="#191970" stroke="#191970" points="1004.7838,-246.51 994.5843,-243.6427 1000.7695,-252.2447 1004.7838,-246.51"/>
</g>
<!-- Node25 -->
<g id="node26" class="node">
<title>Node25</title>
<g id="a_node26"><a xlink:href="other_8hpp.html" target="_top" xlink:title="other.hpp">
<polygon fill="#ffffff" stroke="#000000" points="818.3091,-168.5 818.3091,-187.5 889.3091,-187.5 889.3091,-168.5 818.3091,-168.5"/>
<text text-anchor="middle" x="853.8091" y="-175.5" font-family="'Consolas',monospace" font-size="10.00" fill="#000000">other.hpp</text>
</a>
</g>
</g>
<!-- Node0&#45;&gt;Node25 -->
<g id="edge58" class="edge">
<title>Node0&#45;&gt;Node25</title>
<path fill="none" stroke="#191970" d="M1027.5187,-280.4339C1002.2971,-272.4881 967.2507,-259.9239 938.8091,-244 913.8211,-230.0098 888.2834,-209.1115 871.8126,-194.5932"/>
<polygon fill="#191970" stroke="#191970" points="873.8576,-191.7258 864.0768,-187.653 869.183,-196.9362 873.8576,-191.7258"/>
</g>
<!-- Node26 -->
<g id="node27" class="node">
<title>Node26</title>
<g id="a_node27"><a xlink:href="window_8hpp.html" target="_top" xlink:title="Functions related to the main window. ">
<polygon fill="#ffffff" stroke="#000000" points="1023.3091,-168.5 1023.3091,-187.5 1100.3091,-187.5 1100.3091,-168.5 1023.3091,-168.5"/>
<text text-anchor="middle" x="1061.8091" y="-175.5" font-family="'Consolas',monospace" font-size="10.00" fill="#000000">window.hpp</text>
</a>
</g>
</g>
<!-- Node0&#45;&gt;Node26 -->
<g id="edge90" class="edge">
<title>Node0&#45;&gt;Node26</title>
<path fill="none" stroke="#191970" d="M1060.8943,-280.4509C1061.0574,-262.184 1061.4166,-221.9553 1061.6332,-197.6976"/>
<polygon fill="#191970" stroke="#191970" points="1065.1345,-197.5558 1061.724,-187.5249 1058.1348,-197.4932 1065.1345,-197.5558"/>
</g>
<!-- Node27 -->
<g id="node28" class="node">
<title>Node27</title>
<g id="a_node28"><a xlink:href="matrix_8hpp_source.html" target="_top" xlink:title="matrix.hpp">
<polygon fill="#ffffff" stroke="#000000" points="1523.3091,-56.5 1523.3091,-75.5 1600.3091,-75.5 1600.3091,-56.5 1523.3091,-56.5"/>
<text text-anchor="middle" x="1561.8091" y="-63.5" font-family="'Consolas',monospace" font-size="10.00" fill="#000000">matrix.hpp</text>
</a>
</g>
</g>
<!-- Node0&#45;&gt;Node27 -->
<g id="edge55" class="edge">
<title>Node0&#45;&gt;Node27</title>
<path fill="none" stroke="#191970" d="M1105.5062,-286.7573C1196.8598,-279.8381 1402.0551,-262.7237 1469.8091,-244 1527.7048,-228.0006 1560.3058,-238.5117 1592.8091,-188 1613.7811,-155.4085 1590.8195,-109.4245 1574.7297,-84.244"/>
<polygon fill="#191970" stroke="#191970" points="1577.4735,-82.0507 1569.0055,-75.6832 1571.6545,-85.9416 1577.4735,-82.0507"/>
</g>
<!-- Node28 -->
<g id="node29" class="node">
<title>Node28</title>
<g id="a_node29"><a xlink:href="screen_8hpp.html" target="_top" xlink:title="screen.hpp">
<polygon fill="#ffffff" stroke="#000000" points="1507.3091,-168.5 1507.3091,-187.5 1584.3091,-187.5 1584.3091,-168.5 1507.3091,-168.5"/>
<text text-anchor="middle" x="1545.8091" y="-175.5" font-family="'Consolas',monospace" font-size="10.00" fill="#000000">screen.hpp</text>
</a>
</g>
</g>
<!-- Node0&#45;&gt;Node28 -->
<g id="edge59" class="edge">
<title>Node0&#45;&gt;Node28</title>
<path fill="none" stroke="#191970" d="M1105.4282,-286.8246C1190.9439,-280.3598 1374.7637,-264.5273 1434.8091,-244 1468.9646,-232.3235 1504.0619,-209.2293 1525.4072,-193.6971"/>
<polygon fill="#191970" stroke="#191970" points="1527.73,-196.3316 1533.6703,-187.5587 1523.5557,-190.7124 1527.73,-196.3316"/>
</g>
<!-- Node29 -->
<g id="node30" class="node">
<title>Node29</title>
<g id="a_node30"><a xlink:href="shapes_8hpp.html" target="_top" xlink:title="shapes.hpp">
<polygon fill="#ffffff" stroke="#000000" points="1679.3091,-168.5 1679.3091,-187.5 1756.3091,-187.5 1756.3091,-168.5 1679.3091,-168.5"/>
<text text-anchor="middle" x="1717.8091" y="-175.5" font-family="'Consolas',monospace" font-size="10.00" fill="#000000">shapes.hpp</text>
</a>
</g>
</g>
<!-- Node0&#45;&gt;Node29 -->
<g id="edge62" class="edge">
<title>Node0&#45;&gt;Node29</title>
<path fill="none" stroke="#191970" d="M1105.6879,-288.6335C1237.2372,-284.3437 1615.7351,-269.8681 1664.8091,-244 1684.6178,-233.5583 1699.6225,-212.1642 1708.5242,-196.555"/>
<polygon fill="#191970" stroke="#191970" points="1711.6143,-198.1986 1713.2665,-187.7333 1705.4487,-194.8841 1711.6143,-198.1986"/>
</g>
<!-- Node30 -->
<g id="node31" class="node">
<title>Node30</title>
<g id="a_node31"><a xlink:href="sound_8hpp_source.html" target="_top" xlink:title="sound.hpp">
<polygon fill="#ffffff" stroke="#000000" points="1296.3091,-168.5 1296.3091,-187.5 1367.3091,-187.5 1367.3091,-168.5 1296.3091,-168.5"/>
<text text-anchor="middle" x="1331.8091" y="-175.5" font-family="'Consolas',monospace" font-size="10.00" fill="#000000">sound.hpp</text>
</a>
</g>
</g>
<!-- Node0&#45;&gt;Node30 -->
<g id="edge66" class="edge">
<title>Node0&#45;&gt;Node30</title>
<path fill="none" stroke="#191970" d="M1100.0209,-280.4395C1141.2988,-270.1322 1203.3516,-253.8782 1225.8091,-244 1257.0961,-230.238 1290.0524,-208.3925 1310.754,-193.6409"/>
<polygon fill="#191970" stroke="#191970" points="1313.0436,-196.3045 1319.0941,-187.6072 1308.9405,-190.633 1313.0436,-196.3045"/>
</g>
<!-- Node31 -->
<g id="node32" class="node">
<title>Node31</title>
<g id="a_node32"><a xlink:href="sprite_8hpp_source.html" target="_top" xlink:title="sprite.hpp">
<polygon fill="#ffffff" stroke="#000000" points="595.3091,-168.5 595.3091,-187.5 672.3091,-187.5 672.3091,-168.5 595.3091,-168.5"/>
<text text-anchor="middle" x="633.8091" y="-175.5" font-family="'Consolas',monospace" font-size="10.00" fill="#000000">sprite.hpp</text>
</a>
</g>
</g>
<!-- Node0&#45;&gt;Node31 -->
<g id="edge69" class="edge">
<title>Node0&#45;&gt;Node31</title>
<path fill="none" stroke="#191970" d="M1016.1931,-287.7431C916.087,-282.2891 680.1732,-267.1133 652.8091,-244 639.598,-232.8412 635.2577,-213.143 633.9772,-198.1624"/>
<polygon fill="#191970" stroke="#191970" points="637.4584,-197.6728 633.4982,-187.8459 630.4659,-197.9975 637.4584,-197.6728"/>
</g>
<!-- Node32 -->
<g id="node33" class="node">
<title>Node32</title>
<g id="a_node33"><a xlink:href="text_8hpp.html" target="_top" xlink:title="text.hpp">
<polygon fill="#ffffff" stroke="#000000" points="512.3091,-168.5 512.3091,-187.5 577.3091,-187.5 577.3091,-168.5 512.3091,-168.5"/>
<text text-anchor="middle" x="544.8091" y="-175.5" font-family="'Consolas',monospace" font-size="10.00" fill="#000000">text.hpp</text>
</a>
</g>
</g>
<!-- Node0&#45;&gt;Node32 -->
<g id="edge77" class="edge">
<title>Node0&#45;&gt;Node32</title>
<path fill="none" stroke="#191970" d="M1016.1641,-288.0702C921.6619,-283.5167 704.4592,-270.4416 635.8091,-244 607.0111,-232.908 579.0701,-210.338 561.9145,-194.7012"/>
<polygon fill="#191970" stroke="#191970" points="564.093,-191.946 554.4026,-187.6626 559.3067,-197.0541 564.093,-191.946"/>
</g>
<!-- Node33 -->
<g id="node34" class="node">
<title>Node33</title>
<g id="a_node34"><a xlink:href="time_8hpp_source.html" target="_top" xlink:title="time.hpp">
<polygon fill="#ffffff" stroke="#000000" points="1618.3091,-56.5 1618.3091,-75.5 1683.3091,-75.5 1683.3091,-56.5 1618.3091,-56.5"/>
<text text-anchor="middle" x="1650.8091" y="-63.5" font-family="'Consolas',monospace" font-size="10.00" fill="#000000">time.hpp</text>
</a>
</g>
</g>
<!-- Node0&#45;&gt;Node33 -->
<g id="edge83" class="edge">
<title>Node0&#45;&gt;Node33</title>
<path fill="none" stroke="#191970" d="M1105.3356,-288.3136C1206.1306,-284.0594 1448.9631,-271.2333 1525.8091,-244 1568.4501,-228.8885 1583.3395,-223.945 1610.8091,-188 1634.5066,-156.9909 1644.4997,-111.3296 1648.4493,-85.5641"/>
<polygon fill="#191970" stroke="#191970" points="1651.9321,-85.929 1649.8305,-75.5447 1644.9976,-84.973 1651.9321,-85.929"/>
</g>
<!-- Node34 -->
<g id="node35" class="node">
<title>Node34</title>
<g id="a_node35"><a xlink:href="types_8hpp_source.html" target="_top" xlink:title="types.hpp">
<polygon fill="#ffffff" stroke="#000000" points="1908.3091,-224.5 1908.3091,-243.5 1979.3091,-243.5 1979.3091,-224.5 1908.3091,-224.5"/>
<text text-anchor="middle" x="1943.8091" y="-231.5" font-family="'Consolas',monospace" font-size="10.00" fill="#000000">types.hpp</text>
</a>
</g>
</g>
<!-- Node0&#45;&gt;Node34 -->
<g id="edge85" class="edge">
<title>Node0&#45;&gt;Node34</title>
<path fill="none" stroke="#191970" d="M1105.4158,-288.5174C1252.836,-283.4692 1724.363,-266.0999 1898.0248,-243.8386"/>
<polygon fill="#191970" stroke="#191970" points="1898.594,-247.2938 1908.0435,-242.5025 1897.6685,-240.3552 1898.594,-247.2938"/>
</g>
<!-- Node35 -->
<g id="node36" class="node">
<title>Node35</title>
<g id="a_node36"><a xlink:href="Video_8hpp_source.html" target="_top" xlink:title="Video.hpp">
<polygon fill="#ffffff" stroke="#000000" points="820.3091,-224.5 820.3091,-243.5 891.3091,-243.5 891.3091,-224.5 820.3091,-224.5"/>
<text text-anchor="middle" x="855.8091" y="-231.5" font-family="'Consolas',monospace" font-size="10.00" fill="#000000">Video.hpp</text>
</a>
</g>
</g>
<!-- Node0&#45;&gt;Node35 -->
<g id="edge86" class="edge">
<title>Node0&#45;&gt;Node35</title>
<path fill="none" stroke="#191970" d="M1025.5683,-280.3733C990.8897,-270.9001 937.8208,-256.4032 900.2629,-246.1435"/>
<polygon fill="#191970" stroke="#191970" points="901.1589,-242.7601 890.59,-243.5011 899.3142,-249.5126 901.1589,-242.7601"/>
</g>
<!-- Node36 -->
<g id="node37" class="node">
<title>Node36</title>
<g id="a_node37"><a xlink:href="work_8hpp.html" target="_top" xlink:title="work.hpp">
<polygon fill="#ffffff" stroke="#000000" points="235.3091,-168.5 235.3091,-187.5 300.3091,-187.5 300.3091,-168.5 235.3091,-168.5"/>
<text text-anchor="middle" x="267.8091" y="-175.5" font-family="'Consolas',monospace" font-size="10.00" fill="#000000">work.hpp</text>
</a>
</g>
</g>
<!-- Node0&#45;&gt;Node36 -->
<g id="edge91" class="edge">
<title>Node0&#45;&gt;Node36</title>
<path fill="none" stroke="#191970" d="M1016.1276,-289.1909C887.0809,-286.492 515.5966,-276.075 398.8091,-244 358.3474,-232.8874 315.7037,-208.7394 290.4476,-192.9388"/>
<polygon fill="#191970" stroke="#191970" points="292.2801,-189.9564 281.9656,-187.5349 288.5187,-195.86 292.2801,-189.9564"/>
</g>
<!-- Node2 -->
<g id="node3" class="node">
<title>Node2</title>
<g id="a_node3"><a xlink:href="dll_8hpp_source.html" target="_top" xlink:title="dll.hpp">
<polygon fill="#ffffff" stroke="#000000" points="1028.3091,-.5 1028.3091,-19.5 1087.3091,-19.5 1087.3091,-.5 1028.3091,-.5"/>
<text text-anchor="middle" x="1057.8091" y="-7.5" font-family="'Consolas',monospace" font-size="10.00" fill="#000000">dll.hpp</text>
</a>
</g>
</g>
<!-- Node1&#45;&gt;Node2 -->
<g id="edge2" class="edge">
<title>Node1&#45;&gt;Node2</title>
<path fill="none" stroke="#191970" d="M943.6612,-168.4862C963.1197,-141.4695 1018.9591,-63.9405 1044.6214,-28.3102"/>
<polygon fill="#191970" stroke="#191970" points="1047.7264,-29.9879 1050.7307,-19.8279 1042.0462,-25.8968 1047.7264,-29.9879"/>
</g>
<!-- Node3 -->
<g id="node4" class="node">
<title>Node3</title>
<polygon fill="#ffffff" stroke="#bfbfbf" points="589.3091,-56.5 589.3091,-75.5 642.3091,-75.5 642.3091,-56.5 589.3091,-56.5"/>
<text text-anchor="middle" x="615.8091" y="-63.5" font-family="'Consolas',monospace" font-size="10.00" fill="#000000">memory</text>
</g>
<!-- Node1&#45;&gt;Node3 -->
<g id="edge3" class="edge">
<title>Node1&#45;&gt;Node3</title>
<path fill="none" stroke="#191970" d="M924.797,-168.3277C906.2089,-153.8544 868.8478,-126.6955 832.8091,-112 772.2295,-87.2975 696.4925,-75.1234 652.3917,-69.7281"/>
<polygon fill="#191970" stroke="#191970" points="652.759,-66.2473 642.4193,-68.5582 651.9434,-73.1996 652.759,-66.2473"/>
</g>
<!-- Node4 -->
<g id="node5" class="node">
<title>Node4</title>
<polygon fill="#ffffff" stroke="#bfbfbf" points="999.3091,-112.5 999.3091,-131.5 1052.3091,-131.5 1052.3091,-112.5 999.3091,-112.5"/>
<text text-anchor="middle" x="1025.8091" y="-119.5" font-family="'Consolas',monospace" font-size="10.00" fill="#000000">string</text>
</g>
<!-- Node1&#45;&gt;Node4 -->
<g id="edge4" class="edge">
<title>Node1&#45;&gt;Node4</title>
<path fill="none" stroke="#191970" d="M952.3117,-168.2455C965.967,-159.6534 986.0748,-147.0014 1001.808,-137.1018"/>
<polygon fill="#191970" stroke="#191970" points="1003.8842,-139.9307 1010.4841,-131.6427 1000.1562,-134.006 1003.8842,-139.9307"/>
</g>
<!-- Node5&#45;&gt;Node2 -->
<g id="edge6" class="edge">
<title>Node5&#45;&gt;Node2</title>
<path fill="none" stroke="#191970" d="M494.3713,-112.3037C502.0208,-97.276 518.972,-68.7649 542.8091,-56 584.3914,-33.7324 904.8631,-17.0208 1018.2297,-11.7528"/>
<polygon fill="#191970" stroke="#191970" points="1018.3982,-15.2488 1028.2268,-11.293 1018.0765,-8.2562 1018.3982,-15.2488"/>
</g>
<!-- Node5&#45;&gt;Node3 -->
<g id="edge7" class="edge">
<title>Node5&#45;&gt;Node3</title>
<path fill="none" stroke="#191970" d="M511.4692,-112.3733C531.7862,-103.3435 562.373,-89.7494 585.1841,-79.6111"/>
<polygon fill="#191970" stroke="#191970" points="586.7149,-82.7609 594.4315,-75.5011 583.8719,-76.3642 586.7149,-82.7609"/>
</g>
<!-- Node6&#45;&gt;Node3 -->
<g id="edge12" class="edge">
<title>Node6&#45;&gt;Node3</title>
<path fill="none" stroke="#191970" d="M133.4908,-113.0535C136.3011,-112.6856 139.0848,-112.3323 141.8091,-112 304.5906,-92.1443 499.6687,-75.443 579.2814,-68.9273"/>
<polygon fill="#191970" stroke="#191970" points="579.6103,-72.4122 589.2931,-68.1119 579.042,-65.4353 579.6103,-72.4122"/>
</g>
<!-- Node7 -->
<g id="node8" class="node">
<title>Node7</title>
<g id="a_node8"><a xlink:href="Finally_8hpp_source.html" target="_top" xlink:title="Finally.hpp">
<polygon fill="#ffffff" stroke="#000000" points="39.3091,-56.5 39.3091,-75.5 122.3091,-75.5 122.3091,-56.5 39.3091,-56.5"/>
<text text-anchor="middle" x="80.8091" y="-63.5" font-family="'Consolas',monospace" font-size="10.00" fill="#000000">Finally.hpp</text>
</a>
</g>
</g>
<!-- Node6&#45;&gt;Node7 -->
<g id="edge9" class="edge">
<title>Node6&#45;&gt;Node7</title>
<path fill="none" stroke="#191970" d="M75.0284,-112.2455C75.9418,-104.9382 77.2223,-94.6944 78.346,-85.7046"/>
<polygon fill="#191970" stroke="#191970" points="81.8363,-85.9996 79.6037,-75.6427 74.8903,-85.1313 81.8363,-85.9996"/>
</g>
<!-- Node7&#45;&gt;Node2 -->
<g id="edge10" class="edge">
<title>Node7&#45;&gt;Node2</title>
<path fill="none" stroke="#191970" d="M122.328,-63.4782C156.1163,-61.4346 205.0404,-58.4949 247.8091,-56 543.6577,-38.7417 900.3425,-18.7797 1018.0248,-12.2158"/>
<polygon fill="#191970" stroke="#191970" points="1018.2292,-15.71 1028.0188,-11.6586 1017.8394,-8.7208 1018.2292,-15.71"/>
</g>
<!-- Node8 -->
<g id="node9" class="node">
<title>Node8</title>
<polygon fill="#ffffff" stroke="#bfbfbf" points="180.3091,-.5 180.3091,-19.5 257.3091,-19.5 257.3091,-.5 180.3091,-.5"/>
<text text-anchor="middle" x="218.8091" y="-7.5" font-family="'Consolas',monospace" font-size="10.00" fill="#000000">functional</text>
</g>
<!-- Node7&#45;&gt;Node8 -->
<g id="edge11" class="edge">
<title>Node7&#45;&gt;Node8</title>
<path fill="none" stroke="#191970" d="M104.5321,-56.3733C126.9827,-47.2629 160.883,-33.5062 185.9345,-23.3404"/>
<polygon fill="#191970" stroke="#191970" points="187.4455,-26.5045 195.3956,-19.5011 184.8134,-20.0182 187.4455,-26.5045"/>
</g>
<!-- Node10&#45;&gt;Node2 -->
<g id="edge15" class="edge">
<title>Node10&#45;&gt;Node2</title>
<path fill="none" stroke="#191970" d="M1771.6901,-112.2596C1764.7273,-97.1713 1749.0769,-68.5789 1725.8091,-56 1670.6135,-26.1605 1233.3867,-13.9339 1097.7764,-10.8359"/>
<polygon fill="#191970" stroke="#191970" points="1097.5121,-7.3291 1087.4361,-10.6041 1097.3551,-14.3274 1097.5121,-7.3291"/>
</g>
<!-- Node11&#45;&gt;Node12 -->
<g id="edge17" class="edge">
<title>Node11&#45;&gt;Node12</title>
<path fill="none" stroke="#191970" d="M715.0735,-224.2455C716.7885,-216.8579 719.2002,-206.4689 721.3035,-197.4087"/>
<polygon fill="#191970" stroke="#191970" points="724.7186,-198.1751 723.5706,-187.6427 717.8999,-196.5922 724.7186,-198.1751"/>
</g>
<!-- Node12&#45;&gt;Node2 -->
<g id="edge18" class="edge">
<title>Node12&#45;&gt;Node2</title>
<path fill="none" stroke="#191970" d="M744.6101,-168.4862C800.1758,-140.3686 963.8639,-57.5385 1029.8072,-24.1696"/>
<polygon fill="#191970" stroke="#191970" points="1031.4604,-27.2557 1038.8028,-19.6177 1028.2998,-21.0099 1031.4604,-27.2557"/>
</g>
<!-- Node12&#45;&gt;Node3 -->
<g id="edge25" class="edge">
<title>Node12&#45;&gt;Node3</title>
<path fill="none" stroke="#191970" d="M737.8764,-168.089C752.692,-154.7081 774.2906,-130.4205 760.8091,-112 747.8869,-94.3437 690.9489,-80.2728 652.386,-72.5427"/>
<polygon fill="#191970" stroke="#191970" points="653.0172,-69.0999 642.5326,-70.6242 651.6794,-75.9709 653.0172,-69.0999"/>
</g>
<!-- Node12&#45;&gt;Node8 -->
<g id="edge23" class="edge">
<title>Node12&#45;&gt;Node8</title>
<path fill="none" stroke="#191970" d="M689.9935,-169.8066C686.8926,-169.1684 683.7989,-168.5567 680.8091,-168 575.2036,-148.3369 543.6043,-166.3057 441.8091,-132 431.3824,-128.4861 301.8278,-56.3859 245.1107,-24.7097"/>
<polygon fill="#191970" stroke="#191970" points="246.4726,-21.4615 236.0357,-19.6392 243.0582,-27.5723 246.4726,-21.4615"/>
</g>
<!-- Node13 -->
<g id="node14" class="node">
<title>Node13</title>
<g id="a_node14"><a xlink:href="Vec2_8hpp.html" target="_top" xlink:title="Vec2.hpp">
<polygon fill="#ffffff" stroke="#000000" points="1318.3091,-112.5 1318.3091,-131.5 1383.3091,-131.5 1383.3091,-112.5 1318.3091,-112.5"/>
<text text-anchor="middle" x="1350.8091" y="-119.5" font-family="'Consolas',monospace" font-size="10.00" fill="#000000">Vec2.hpp</text>
</a>
</g>
</g>
<!-- Node12&#45;&gt;Node13 -->
<g id="edge19" class="edge">
<title>Node12&#45;&gt;Node13</title>
<path fill="none" stroke="#191970" d="M761.3171,-173.3992C776.0023,-171.5805 793.2116,-169.5574 808.8091,-168 1010.2187,-147.8899 1061.3326,-151.4299 1262.8091,-132 1277.5881,-130.5748 1293.7383,-128.8019 1308.1226,-127.1465"/>
<polygon fill="#191970" stroke="#191970" points="1308.7116,-130.6017 1318.2397,-125.9685 1307.9019,-123.6486 1308.7116,-130.6017"/>
</g>
<!-- Node16 -->
<g id="node17" class="node">
<title>Node16</title>
<polygon fill="#ffffff" stroke="#bfbfbf" points="699.3091,-112.5 699.3091,-131.5 752.3091,-131.5 752.3091,-112.5 699.3091,-112.5"/>
<text text-anchor="middle" x="725.8091" y="-119.5" font-family="'Consolas',monospace" font-size="10.00" fill="#000000">vector</text>
</g>
<!-- Node12&#45;&gt;Node16 -->
<g id="edge24" class="edge">
<title>Node12&#45;&gt;Node16</title>
<path fill="none" stroke="#191970" d="M725.8091,-168.2455C725.8091,-160.9382 725.8091,-150.6944 725.8091,-141.7046"/>
<polygon fill="#191970" stroke="#191970" points="729.3092,-141.6426 725.8091,-131.6427 722.3092,-141.6427 729.3092,-141.6426"/>
</g>
<!-- Node13&#45;&gt;Node2 -->
<g id="edge20" class="edge">
<title>Node13&#45;&gt;Node2</title>
<path fill="none" stroke="#191970" d="M1318.0639,-114.4305C1285.3187,-106.4342 1233.7847,-92.6831 1190.8091,-76 1180.2485,-71.9004 1121.4774,-42.3098 1085.6862,-24.1698"/>
<polygon fill="#191970" stroke="#191970" points="1087.194,-21.0101 1076.6924,-19.6074 1084.0271,-27.2528 1087.194,-21.0101"/>
</g>
<!-- Node14 -->
<g id="node15" class="node">
<title>Node14</title>
<polygon fill="#ffffff" stroke="#bfbfbf" points="1200.3091,-56.5 1200.3091,-75.5 1319.3091,-75.5 1319.3091,-56.5 1200.3091,-56.5"/>
<text text-anchor="middle" x="1259.8091" y="-63.5" font-family="'Consolas',monospace" font-size="10.00" fill="#000000">boost/version.hpp</text>
</g>
<!-- Node13&#45;&gt;Node14 -->
<g id="edge21" class="edge">
<title>Node13&#45;&gt;Node14</title>
<path fill="none" stroke="#191970" d="M1334.9581,-112.2455C1320.9959,-103.6534 1300.4363,-91.0014 1284.3495,-81.1018"/>
<polygon fill="#191970" stroke="#191970" points="1285.8294,-77.9029 1275.4784,-75.6427 1282.1607,-83.8645 1285.8294,-77.9029"/>
</g>
<!-- Node15 -->
<g id="node16" class="node">
<title>Node15</title>
<polygon fill="#ffffff" stroke="#bfbfbf" points="1337.3091,-56.5 1337.3091,-75.5 1390.3091,-75.5 1390.3091,-56.5 1337.3091,-56.5"/>
<text text-anchor="middle" x="1363.8091" y="-63.5" font-family="'Consolas',monospace" font-size="10.00" fill="#000000">iosfwd</text>
</g>
<!-- Node13&#45;&gt;Node15 -->
<g id="edge22" class="edge">
<title>Node13&#45;&gt;Node15</title>
<path fill="none" stroke="#191970" d="M1353.0735,-112.2455C1354.7885,-104.8579 1357.2002,-94.4689 1359.3035,-85.4087"/>
<polygon fill="#191970" stroke="#191970" points="1362.7186,-86.1751 1361.5706,-75.6427 1355.8999,-84.5922 1362.7186,-86.1751"/>
</g>
<!-- Node17&#45;&gt;Node18 -->
<g id="edge27" class="edge">
<title>Node17&#45;&gt;Node18</title>
<path fill="none" stroke="#191970" d="M1177.977,-224.2455C1175.0431,-216.7776 1170.9044,-206.2427 1167.318,-197.1137"/>
<polygon fill="#191970" stroke="#191970" points="1170.5115,-195.6704 1163.5973,-187.6427 1163.9962,-198.23 1170.5115,-195.6704"/>
</g>
<!-- Node19 -->
<g id="node20" class="node">
<title>Node19</title>
<polygon fill="#ffffff" stroke="#bfbfbf" points="1219.3091,-168.5 1219.3091,-187.5 1278.3091,-187.5 1278.3091,-168.5 1219.3091,-168.5"/>
<text text-anchor="middle" x="1248.8091" y="-175.5" font-family="'Consolas',monospace" font-size="10.00" fill="#000000">sstream</text>
</g>
<!-- Node17&#45;&gt;Node19 -->
<g id="edge30" class="edge">
<title>Node17&#45;&gt;Node19</title>
<path fill="none" stroke="#191970" d="M1193.4796,-224.2455C1203.3751,-215.9746 1217.7718,-203.9416 1229.3991,-194.2232"/>
<polygon fill="#191970" stroke="#191970" points="1231.8441,-196.7413 1237.2723,-187.6427 1227.3549,-191.3703 1231.8441,-196.7413"/>
</g>
<!-- Node18&#45;&gt;Node2 -->
<g id="edge28" class="edge">
<title>Node18&#45;&gt;Node2</title>
<path fill="none" stroke="#191970" d="M1201.5496,-169.645C1204.3447,-169.0877 1207.1175,-168.5353 1209.8091,-168 1290.681,-151.9145 1335.6077,-192.3359 1391.8091,-132 1414.9292,-107.1791 1421.1339,-81.5386 1398.8091,-56 1379.2069,-33.576 1183.197,-18.1731 1097.5298,-12.4608"/>
<polygon fill="#191970" stroke="#191970" points="1097.6148,-8.959 1087.4072,-11.7969 1097.1566,-15.944 1097.6148,-8.959"/>
</g>
<!-- Node18&#45;&gt;Node4 -->
<g id="edge29" class="edge">
<title>Node18&#45;&gt;Node4</title>
<path fill="none" stroke="#191970" d="M1136.7737,-168.3733C1115.0702,-159.3032 1082.3472,-145.6279 1058.0541,-135.4755"/>
<polygon fill="#191970" stroke="#191970" points="1059.1202,-132.1278 1048.5439,-131.5011 1056.421,-138.5865 1059.1202,-132.1278"/>
</g>
<!-- Node20&#45;&gt;Node2 -->
<g id="edge32" class="edge">
<title>Node20&#45;&gt;Node2</title>
<path fill="none" stroke="#191970" d="M368.6351,-112.3822C398.8106,-97.462 460.2667,-69.0956 515.8091,-56 611.4337,-33.454 909.665,-17.1698 1017.9839,-11.8626"/>
<polygon fill="#191970" stroke="#191970" points="1018.3399,-15.3495 1028.1586,-11.3691 1018.0007,-8.3577 1018.3399,-15.3495"/>
</g>
<!-- Node21&#45;&gt;Node2 -->
<g id="edge35" class="edge">
<title>Node21&#45;&gt;Node2</title>
<path fill="none" stroke="#191970" d="M1424.1316,-168.9522C1393.9128,-160.3246 1347.9036,-146.5253 1308.8091,-132 1287.9116,-124.2357 1283.6889,-119.8116 1262.8091,-112 1213.0448,-93.382 1196.2603,-99.906 1148.8091,-76 1145.0313,-74.0967 1104.6216,-44.4919 1078.9376,-25.5853"/>
<polygon fill="#191970" stroke="#191970" points="1080.9931,-22.7524 1070.866,-19.6391 1076.8413,-28.3882 1080.9931,-22.7524"/>
</g>
<!-- Node21&#45;&gt;Node3 -->
<g id="edge37" class="edge">
<title>Node21&#45;&gt;Node3</title>
<path fill="none" stroke="#191970" d="M1424.2621,-173.7739C1354.4661,-164.6348 1192.3204,-142.9745 1137.8091,-132 1103.1468,-125.0216 1095.6047,-118.2802 1060.8091,-112 910.6113,-84.8912 728.7962,-72.2961 652.4027,-67.9061"/>
<polygon fill="#191970" stroke="#191970" points="652.5178,-64.4071 642.3372,-67.3404 652.125,-71.3961 652.5178,-64.4071"/>
</g>
<!-- Node21&#45;&gt;Node4 -->
<g id="edge38" class="edge">
<title>Node21&#45;&gt;Node4</title>
<path fill="none" stroke="#191970" d="M1424.1036,-173.9105C1409.3513,-172.0793 1391.7063,-169.9073 1375.8091,-168 1238.5314,-151.5295 1202.8963,-156.4274 1066.8091,-132 1065.3668,-131.7411 1063.8996,-131.4616 1062.4202,-131.1664"/>
<polygon fill="#191970" stroke="#191970" points="1063.1291,-127.7388 1052.6144,-129.0395 1061.6453,-134.5798 1063.1291,-127.7388"/>
</g>
<!-- Node21&#45;&gt;Node10 -->
<g id="edge34" class="edge">
<title>Node21&#45;&gt;Node10</title>
<path fill="none" stroke="#191970" d="M1489.4329,-169.8084C1492.26,-169.1698 1495.0813,-168.5575 1497.8091,-168 1579.0834,-151.3889 1674.6621,-136.6009 1729.9354,-128.5091"/>
<polygon fill="#191970" stroke="#191970" points="1730.7136,-131.9328 1740.1054,-127.0293 1729.7057,-125.0057 1730.7136,-131.9328"/>
</g>
<!-- Node21&#45;&gt;Node13 -->
<g id="edge36" class="edge">
<title>Node21&#45;&gt;Node13</title>
<path fill="none" stroke="#191970" d="M1438.3453,-168.2455C1421.7016,-159.4527 1397.0098,-146.4079 1378.0899,-136.4125"/>
<polygon fill="#191970" stroke="#191970" points="1379.5382,-133.2193 1369.0613,-131.6427 1376.2683,-139.4086 1379.5382,-133.2193"/>
</g>
<!-- Node22&#45;&gt;Node2 -->
<g id="edge40" class="edge">
<title>Node22&#45;&gt;Node2</title>
<path fill="none" stroke="#191970" d="M1180.112,-112.4175C1163.08,-104.0371 1138.7476,-90.8984 1119.8091,-76 1101.5954,-61.6719 1083.8006,-41.9617 1071.981,-27.8181"/>
<polygon fill="#191970" stroke="#191970" points="1074.4852,-25.3515 1065.4435,-19.8289 1069.0677,-29.7846 1074.4852,-25.3515"/>
</g>
<!-- Node22&#45;&gt;Node3 -->
<g id="edge41" class="edge">
<title>Node22&#45;&gt;Node3</title>
<path fill="none" stroke="#191970" d="M1147.0831,-116.857C1029.6238,-105.613 752.4989,-79.0848 652.5547,-69.5175"/>
<polygon fill="#191970" stroke="#191970" points="652.6397,-66.0098 642.3517,-68.5408 651.9726,-72.9779 652.6397,-66.0098"/>
</g>
<!-- Node23&#45;&gt;Node2 -->
<g id="edge45" class="edge">
<title>Node23&#45;&gt;Node2</title>
<path fill="none" stroke="#191970" d="M203.2867,-112.4602C239.6364,-97.513 313.9123,-68.9463 379.8091,-56 503.264,-31.7456 891.6228,-15.9762 1017.7891,-11.3889"/>
<polygon fill="#191970" stroke="#191970" points="1018.2719,-14.8739 1028.1395,-11.0164 1018.02,-7.8785 1018.2719,-14.8739"/>
</g>
<!-- Node23&#45;&gt;Node3 -->
<g id="edge44" class="edge">
<title>Node23&#45;&gt;Node3</title>
<path fill="none" stroke="#191970" d="M210.3664,-118.1949C287.4782,-108.2679 494.6268,-81.6005 579.1434,-70.7202"/>
<polygon fill="#191970" stroke="#191970" points="579.8237,-74.1616 589.295,-69.4133 578.9299,-67.2189 579.8237,-74.1616"/>
</g>
<!-- Node24&#45;&gt;Node7 -->
<g id="edge47" class="edge">
<title>Node24&#45;&gt;Node7</title>
<path fill="none" stroke="#191970" d="M948.1522,-229.4438C933.4093,-227.5222 915.7582,-225.4087 899.8091,-224 600.9899,-197.6062 522.3887,-233.056 225.8091,-188 125.632,-172.7812 67.0391,-211.9655 4.8091,-132 -11.4639,-111.0892 18.1996,-91.7961 45.0937,-79.5398"/>
<polygon fill="#191970" stroke="#191970" points="46.6242,-82.6912 54.4112,-75.5069 43.8436,-76.2671 46.6242,-82.6912"/>
</g>
<!-- Node24&#45;&gt;Node25 -->
<g id="edge48" class="edge">
<title>Node24&#45;&gt;Node25</title>
<path fill="none" stroke="#191970" d="M958.977,-224.3733C938.4988,-215.3435 907.6692,-201.7494 884.6771,-191.6111"/>
<polygon fill="#191970" stroke="#191970" points="885.9184,-188.3333 875.3563,-187.5011 883.0941,-194.7383 885.9184,-188.3333"/>
</g>
<!-- Node24&#45;&gt;Node26 -->
<g id="edge52" class="edge">
<title>Node24&#45;&gt;Node26</title>
<path fill="none" stroke="#191970" d="M994.9182,-224.2455C1007.2299,-215.7337 1025.3049,-203.2375 1039.5629,-193.3801"/>
<polygon fill="#191970" stroke="#191970" points="1041.6264,-196.2085 1047.8616,-187.6427 1037.6456,-190.4506 1041.6264,-196.2085"/>
</g>
<!-- Node25&#45;&gt;Node2 -->
<g id="edge51" class="edge">
<title>Node25&#45;&gt;Node2</title>
<path fill="none" stroke="#191970" d="M865.3615,-168.4862C898.7958,-140.9521 995.9378,-60.9528 1038.004,-26.31"/>
<polygon fill="#191970" stroke="#191970" points="1040.3809,-28.8868 1045.8752,-19.8279 1035.9309,-23.4832 1040.3809,-28.8868"/>
</g>
<!-- Node25&#45;&gt;Node4 -->
<g id="edge49" class="edge">
<title>Node25&#45;&gt;Node4</title>
<path fill="none" stroke="#191970" d="M883.3769,-168.3733C912.7579,-158.8073 957.8723,-144.119 989.4327,-133.8435"/>
<polygon fill="#191970" stroke="#191970" points="990.7411,-137.0984 999.1662,-130.6744 988.5739,-130.4423 990.7411,-137.0984"/>
</g>
<!-- Node25&#45;&gt;Node16 -->
<g id="edge50" class="edge">
<title>Node25&#45;&gt;Node16</title>
<path fill="none" stroke="#191970" d="M831.8051,-168.3733C811.1656,-159.3435 780.0933,-145.7494 756.9202,-135.6111"/>
<polygon fill="#191970" stroke="#191970" points="758.0904,-132.3028 747.5259,-131.5011 755.2846,-138.7159 758.0904,-132.3028"/>
</g>
<!-- Node26&#45;&gt;Node2 -->
<g id="edge54" class="edge">
<title>Node26&#45;&gt;Node2</title>
<path fill="none" stroke="#191970" d="M1061.7037,-168.1592C1061.5556,-155.2611 1061.2532,-131.9348 1060.8091,-112 1060.1727,-83.4401 1059.1478,-50.3902 1058.4762,-29.8379"/>
<polygon fill="#191970" stroke="#191970" points="1061.9651,-29.4399 1058.1358,-19.5613 1054.9689,-29.6718 1061.9651,-29.4399"/>
</g>
<!-- Node26&#45;&gt;Node4 -->
<g id="edge53" class="edge">
<title>Node26&#45;&gt;Node4</title>
<path fill="none" stroke="#191970" d="M1055.5384,-168.2455C1050.5827,-160.5367 1043.5261,-149.5598 1037.5314,-140.2348"/>
<polygon fill="#191970" stroke="#191970" points="1040.3597,-138.1618 1032.0079,-131.6427 1034.4714,-141.9471 1040.3597,-138.1618"/>
</g>
<!-- Node27&#45;&gt;Node2 -->
<g id="edge56" class="edge">
<title>Node27&#45;&gt;Node2</title>
<path fill="none" stroke="#191970" d="M1523.0853,-58.3011C1518.2877,-57.4632 1513.4424,-56.6722 1508.8091,-56 1357.7963,-34.0925 1176.8395,-18.9837 1097.9119,-12.9413"/>
<polygon fill="#191970" stroke="#191970" points="1097.7018,-9.4154 1087.4657,-12.1491 1097.1724,-16.3953 1097.7018,-9.4154"/>
</g>
<!-- Node28&#45;&gt;Node2 -->
<g id="edge60" class="edge">
<title>Node28&#45;&gt;Node2</title>
<path fill="none" stroke="#191970" d="M1540.6501,-168.2634C1527.4054,-144.3662 1489.6404,-82.8184 1438.8091,-56 1380.1903,-25.0729 1182.5703,-14.4335 1097.4044,-11.2274"/>
<polygon fill="#191970" stroke="#191970" points="1097.4729,-7.7277 1087.353,-10.8641 1097.22,-14.7232 1097.4729,-7.7277"/>
</g>
<!-- Node28&#45;&gt;Node13 -->
<g id="edge61" class="edge">
<title>Node28&#45;&gt;Node13</title>
<path fill="none" stroke="#191970" d="M1512.2874,-168.3733C1479.3412,-158.9118 1428.9452,-144.4391 1393.2272,-134.1816"/>
<polygon fill="#191970" stroke="#191970" points="1394.1464,-130.8042 1383.5688,-131.4079 1392.2142,-137.5322 1394.1464,-130.8042"/>
</g>
<!-- Node29&#45;&gt;Node2 -->
<g id="edge63" class="edge">
<title>Node29&#45;&gt;Node2</title>
<path fill="none" stroke="#191970" d="M1719.1897,-168.1908C1721.8834,-144.6701 1724.9577,-84.8762 1691.8091,-56 1669.3515,-36.4369 1233.8255,-17.153 1097.9448,-11.5922"/>
<polygon fill="#191970" stroke="#191970" points="1097.7127,-8.0799 1087.5788,-11.1709 1097.4284,-15.0742 1097.7127,-8.0799"/>
</g>
<!-- Node29&#45;&gt;Node10 -->
<g id="edge64" class="edge">
<title>Node29&#45;&gt;Node10</title>
<path fill="none" stroke="#191970" d="M1727.9119,-168.2455C1736.3119,-160.1352 1748.4584,-148.4075 1758.4174,-138.7919"/>
<polygon fill="#191970" stroke="#191970" points="1761.0591,-141.1066 1765.822,-131.6427 1756.1969,-136.0707 1761.0591,-141.1066"/>
</g>
<!-- Node29&#45;&gt;Node13 -->
<g id="edge65" class="edge">
<title>Node29&#45;&gt;Node13</title>
<path fill="none" stroke="#191970" d="M1679.2273,-172.1129C1610.1165,-161.5673 1465.7088,-139.5324 1393.6378,-128.5352"/>
<polygon fill="#191970" stroke="#191970" points="1393.9603,-125.044 1383.5468,-126.9954 1392.9044,-131.9639 1393.9603,-125.044"/>
</g>
<!-- Node30&#45;&gt;Node2 -->
<g id="edge67" class="edge">
<title>Node30&#45;&gt;Node2</title>
<path fill="none" stroke="#191970" d="M1363.4704,-168.4865C1381.3157,-161.3995 1402.2812,-149.8157 1413.8091,-132 1432.1986,-103.5799 1441.1813,-81.4039 1418.8091,-56 1397.7972,-32.1408 1186.6592,-17.3635 1097.3585,-12.1363"/>
<polygon fill="#191970" stroke="#191970" points="1097.5281,-8.6403 1087.3436,-11.5603 1097.1261,-15.6288 1097.5281,-8.6403"/>
</g>
<!-- Node30&#45;&gt;Node4 -->
<g id="edge68" class="edge">
<title>Node30&#45;&gt;Node4</title>
<path fill="none" stroke="#191970" d="M1295.9857,-169.8479C1292.8864,-169.2007 1289.7953,-168.5756 1286.8091,-168 1189.522,-149.246 1163.8982,-151.7532 1066.8091,-132 1065.3731,-131.7079 1063.9113,-131.4003 1062.4365,-131.0816"/>
<polygon fill="#191970" stroke="#191970" points="1063.1755,-127.6604 1052.6488,-128.8599 1061.626,-134.4867 1063.1755,-127.6604"/>
</g>
<!-- Node31&#45;&gt;Node2 -->
<g id="edge76" class="edge">
<title>Node31&#45;&gt;Node2</title>
<path fill="none" stroke="#191970" d="M639.3652,-168.3365C648.1829,-153.8747 666.7657,-126.7306 689.8091,-112 795.8074,-44.2401 946.8598,-20.8903 1017.9338,-13.3433"/>
<polygon fill="#191970" stroke="#191970" points="1018.6332,-16.7905 1028.2303,-12.3021 1017.9289,-9.826 1018.6332,-16.7905"/>
</g>
<!-- Node31&#45;&gt;Node3 -->
<g id="edge73" class="edge">
<title>Node31&#45;&gt;Node3</title>
<path fill="none" stroke="#191970" d="M632.2744,-168.4509C629.3386,-150.184 622.8733,-109.9553 618.9748,-85.6976"/>
<polygon fill="#191970" stroke="#191970" points="622.3824,-84.8428 617.3399,-75.5249 615.4711,-85.9536 622.3824,-84.8428"/>
</g>
<!-- Node31&#45;&gt;Node4 -->
<g id="edge74" class="edge">
<title>Node31&#45;&gt;Node4</title>
<path fill="none" stroke="#191970" d="M672.492,-169.5227C675.3019,-168.9828 678.0963,-168.4687 680.8091,-168 792.5394,-148.6947 925.8339,-132.9761 989.0509,-125.9583"/>
<polygon fill="#191970" stroke="#191970" points="989.7447,-129.4031 999.3011,-124.8287 988.9778,-122.4452 989.7447,-129.4031"/>
</g>
<!-- Node31&#45;&gt;Node6 -->
<g id="edge70" class="edge">
<title>Node31&#45;&gt;Node6</title>
<path fill="none" stroke="#191970" d="M595.1098,-169.5062C591.9714,-168.9491 588.8421,-168.4372 585.8091,-168 393.1064,-140.2247 340.2615,-153.9395 143.5703,-132.1352"/>
<polygon fill="#191970" stroke="#191970" points="143.8131,-128.6405 133.4844,-131.0002 143.0303,-135.5966 143.8131,-128.6405"/>
</g>
<!-- Node31&#45;&gt;Node13 -->
<g id="edge71" class="edge">
<title>Node31&#45;&gt;Node13</title>
<path fill="none" stroke="#191970" d="M672.4581,-169.3035C675.276,-168.8151 678.0814,-168.3725 680.8091,-168 937.5873,-132.9375 1004.6387,-154.6384 1262.8091,-132 1277.5999,-130.703 1293.753,-128.9617 1308.1364,-127.2958"/>
<polygon fill="#191970" stroke="#191970" points="1308.7306,-130.7501 1318.2521,-126.1035 1307.9111,-123.7982 1308.7306,-130.7501"/>
</g>
<!-- Node31&#45;&gt;Node16 -->
<g id="edge75" class="edge">
<title>Node31&#45;&gt;Node16</title>
<path fill="none" stroke="#191970" d="M649.8342,-168.2455C663.9499,-159.6534 684.7354,-147.0014 700.999,-137.1018"/>
<polygon fill="#191970" stroke="#191970" points="703.2454,-139.8319 709.9675,-131.6427 699.6057,-133.8525 703.2454,-139.8319"/>
</g>
<!-- Node31&#45;&gt;Node20 -->
<g id="edge72" class="edge">
<title>Node31&#45;&gt;Node20</title>
<path fill="none" stroke="#191970" d="M595.3056,-169.9329C592.0941,-169.2739 588.8965,-168.6225 585.8091,-168 523.7299,-155.4839 452.3477,-141.6474 404.4902,-132.4511"/>
<polygon fill="#191970" stroke="#191970" points="405.1274,-129.0096 394.6468,-130.5613 403.8075,-135.884 405.1274,-129.0096"/>
</g>
<!-- Node32&#45;&gt;Node2 -->
<g id="edge78" class="edge">
<title>Node32&#45;&gt;Node2</title>
<path fill="none" stroke="#191970" d="M544.2659,-168.1552C543.56,-144.5555 545.4154,-84.5995 579.8091,-56 613.2315,-28.208 909.439,-15.169 1018.084,-11.2906"/>
<polygon fill="#191970" stroke="#191970" points="1018.4255,-14.7809 1028.297,-10.9334 1018.1807,-7.7851 1018.4255,-14.7809"/>
</g>
<!-- Node32&#45;&gt;Node3 -->
<g id="edge80" class="edge">
<title>Node32&#45;&gt;Node3</title>
<path fill="none" stroke="#191970" d="M550.8625,-168.4509C562.7044,-149.7707 589.1056,-108.1238 604.3501,-84.0761"/>
<polygon fill="#191970" stroke="#191970" points="607.3729,-85.8448 609.771,-75.5249 601.4607,-82.0969 607.3729,-85.8448"/>
</g>
<!-- Node32&#45;&gt;Node4 -->
<g id="edge81" class="edge">
<title>Node32&#45;&gt;Node4</title>
<path fill="none" stroke="#191970" d="M577.3993,-169.6305C580.2337,-169.0305 583.0659,-168.4757 585.8091,-168 734.1563,-142.2756 913.3106,-128.9751 989.1067,-124.1553"/>
<polygon fill="#191970" stroke="#191970" points="989.3395,-127.6477 999.1019,-123.5311 988.9031,-120.6613 989.3395,-127.6477"/>
</g>
<!-- Node32&#45;&gt;Node16 -->
<g id="edge82" class="edge">
<title>Node32&#45;&gt;Node16</title>
<path fill="none" stroke="#191970" d="M575.9241,-168.3733C607.4343,-158.6242 656.141,-143.5547 689.4206,-133.2583"/>
<polygon fill="#191970" stroke="#191970" points="690.6987,-136.5267 699.2174,-130.2273 688.6296,-129.8394 690.6987,-136.5267"/>
</g>
<!-- Node32&#45;&gt;Node20 -->
<g id="edge79" class="edge">
<title>Node32&#45;&gt;Node20</title>
<path fill="none" stroke="#191970" d="M512.1705,-168.6269C479.4662,-159.2349 428.9431,-144.7257 392.9481,-134.3886"/>
<polygon fill="#191970" stroke="#191970" points="393.7854,-130.9877 383.2078,-131.5914 391.8532,-137.7158 393.7854,-130.9877"/>
</g>
<!-- Node33&#45;&gt;Node2 -->
<g id="edge84" class="edge">
<title>Node33&#45;&gt;Node2</title>
<path fill="none" stroke="#191970" d="M1617.8879,-57.6669C1614.8305,-57.0428 1611.7697,-56.4733 1608.8091,-56 1418.9291,-25.6461 1188.8332,-14.63 1097.7219,-11.2739"/>
<polygon fill="#191970" stroke="#191970" points="1097.6831,-7.7704 1087.5643,-10.9106 1097.4328,-14.7659 1097.6831,-7.7704"/>
</g>
<!-- Node35&#45;&gt;Node3 -->
<g id="edge88" class="edge">
<title>Node35&#45;&gt;Node3</title>
<path fill="none" stroke="#191970" d="M843.2215,-224.1824C832.8562,-215.5642 818.3619,-202.2145 808.8091,-188 788.461,-157.7226 804.9907,-136.3295 777.8091,-112 759.3439,-95.4724 694.2961,-80.6626 652.4565,-72.543"/>
<polygon fill="#191970" stroke="#191970" points="653.0972,-69.1022 642.6196,-70.6738 651.7904,-75.9792 653.0972,-69.1022"/>
</g>
<!-- Node35&#45;&gt;Node4 -->
<g id="edge89" class="edge">
<title>Node35&#45;&gt;Node4</title>
<path fill="none" stroke="#191970" d="M891.3879,-225.7211C916.456,-218.6456 949.8642,-206.6069 974.8091,-188 991.9479,-175.2158 1006.2825,-155.2223 1015.3461,-140.5889"/>
<polygon fill="#191970" stroke="#191970" points="1018.423,-142.2621 1020.5175,-131.8763 1012.4035,-138.6891 1018.423,-142.2621"/>
</g>
<!-- Node35&#45;&gt;Node31 -->
<g id="edge87" class="edge">
<title>Node35&#45;&gt;Node31</title>
<path fill="none" stroke="#191970" d="M820.1409,-225.0026C782.5483,-215.5198 723.129,-200.5311 681.5235,-190.0361"/>
<polygon fill="#191970" stroke="#191970" points="682.17,-186.5896 671.6177,-187.5373 680.4579,-193.377 682.17,-186.5896"/>
</g>
<!-- Node36&#45;&gt;Node2 -->
<g id="edge92" class="edge">
<title>Node36&#45;&gt;Node2</title>
<path fill="none" stroke="#191970" d="M266.1792,-168.2186C264.4134,-154.0958 263.426,-127.9435 276.8091,-112 289.9349,-96.363 431.7713,-59.9105 451.8091,-56 560.8929,-34.7117 900.8407,-17.3088 1017.8021,-11.8134"/>
<polygon fill="#191970" stroke="#191970" points="1018.2643,-15.2958 1028.0905,-11.3338 1017.9383,-8.3034 1018.2643,-15.2958"/>
</g>
<!-- Node36&#45;&gt;Node3 -->
<g id="edge94" class="edge">
<title>Node36&#45;&gt;Node3</title>
<path fill="none" stroke="#191970" d="M268.976,-168.1083C271.2802,-153.3485 277.8601,-125.8204 295.8091,-112 339.4672,-78.3839 504.3932,-69.2737 578.8886,-66.8533"/>
<polygon fill="#191970" stroke="#191970" points="579.3083,-70.3423 589.1983,-66.5426 579.0974,-63.3455 579.3083,-70.3423"/>
</g>
<!-- Node36&#45;&gt;Node23 -->
<g id="edge93" class="edge">
<title>Node36&#45;&gt;Node23</title>
<path fill="none" stroke="#191970" d="M252.6548,-168.2455C239.3064,-159.6534 219.6505,-147.0014 204.2708,-137.1018"/>
<polygon fill="#191970" stroke="#191970" points="206.0927,-134.1121 195.7897,-131.6427 202.3039,-139.9982 206.0927,-134.1121"/>
</g>
</g>
</svg>
