<?xml version="1.0" encoding="UTF-8" standalone="no"?>
<!DOCTYPE svg PUBLIC "-//W3C//DTD SVG 1.1//EN"
 "http://www.w3.org/Graphics/SVG/1.1/DTD/svg11.dtd">
<!-- Generated by graphviz version 2.42.4 (0)
 -->
<!-- Title: jngl/all.hpp Pages: 1 -->
<svg width="1745pt" height="308pt"
 viewBox="0.00 0.00 1744.63 308.00" xmlns="http://www.w3.org/2000/svg" xmlns:xlink="http://www.w3.org/1999/xlink">
<g id="graph0" class="graph" transform="scale(1 1) rotate(0) translate(4 304)">
<title>jngl/all.hpp</title>
<polygon fill="white" stroke="transparent" points="-4,4 -4,-304 1740.63,-304 1740.63,4 -4,4"/>
<!-- Node1 -->
<g id="node1" class="node">
<title>Node1</title>
<g id="a_node1"><a xlink:title="Includes all JNGL headers except for init.hpp.">
<polygon fill="#bfbfbf" stroke="black" points="895.22,-280.5 895.22,-299.5 984.22,-299.5 984.22,-280.5 895.22,-280.5"/>
<text text-anchor="middle" x="939.72" y="-287.5" font-family="'Consolas',monospace" font-size="10.00">jngl/all.hpp</text>
</a>
</g>
</g>
<!-- Node2 -->
<g id="node2" class="node">
<title>Node2</title>
<g id="a_node2"><a xlink:href="App_8hpp.html" target="_top" xlink:title=" ">
<polygon fill="white" stroke="black" points="1297.22,-112.5 1297.22,-131.5 1356.22,-131.5 1356.22,-112.5 1297.22,-112.5"/>
<text text-anchor="middle" x="1326.72" y="-119.5" font-family="'Consolas',monospace" font-size="10.00">App.hpp</text>
</a>
</g>
</g>
<!-- Node1&#45;&gt;Node2 -->
<g id="edge1" class="edge">
<title>Node1&#45;&gt;Node2</title>
<path fill="none" stroke="midnightblue" d="M984.47,-285.8C1054.29,-280.18 1185.33,-266.9 1225.72,-244 1269.42,-219.23 1302.38,-167.78 1317.53,-140.64"/>
<polygon fill="midnightblue" stroke="midnightblue" points="1320.78,-141.99 1322.46,-131.53 1314.62,-138.66 1320.78,-141.99"/>
</g>
<!-- Node5 -->
<g id="node5" class="node">
<title>Node5</title>
<g id="a_node5"><a xlink:href="Color_8hpp.html" target="_top" xlink:title=" ">
<polygon fill="white" stroke="black" points="112.22,-112.5 112.22,-131.5 183.22,-131.5 183.22,-112.5 112.22,-112.5"/>
<text text-anchor="middle" x="147.72" y="-119.5" font-family="'Consolas',monospace" font-size="10.00">Color.hpp</text>
</a>
</g>
</g>
<!-- Node1&#45;&gt;Node5 -->
<g id="edge4" class="edge">
<title>Node1&#45;&gt;Node5</title>
<path fill="none" stroke="midnightblue" d="M894.88,-288.2C775.63,-285.66 452.89,-275.95 351.72,-244 277.11,-220.44 200.87,-165.19 166.52,-138.27"/>
<polygon fill="midnightblue" stroke="midnightblue" points="168.36,-135.26 158.35,-131.78 164,-140.74 168.36,-135.26"/>
</g>
<!-- Node6 -->
<g id="node6" class="node">
<title>Node6</title>
<g id="a_node6"><a xlink:href="Controller_8hpp.html" target="_top" xlink:title=" ">
<polygon fill="white" stroke="black" points="642.22,-224.5 642.22,-243.5 743.22,-243.5 743.22,-224.5 642.22,-224.5"/>
<text text-anchor="middle" x="692.72" y="-231.5" font-family="'Consolas',monospace" font-size="10.00">Controller.hpp</text>
</a>
</g>
</g>
<!-- Node1&#45;&gt;Node6 -->
<g id="edge5" class="edge">
<title>Node1&#45;&gt;Node6</title>
<path fill="none" stroke="midnightblue" d="M900.59,-280.44C857.5,-271.02 788.17,-255.87 741.55,-245.68"/>
<polygon fill="midnightblue" stroke="midnightblue" points="742.2,-242.23 731.68,-243.52 740.7,-249.07 742.2,-242.23"/>
</g>
<!-- Node7 -->
<g id="node7" class="node">
<title>Node7</title>
<g id="a_node7"><a xlink:href="input_8hpp.html" target="_top" xlink:title="Input related functions.">
<polygon fill="white" stroke="black" points="710.22,-168.5 710.22,-187.5 781.22,-187.5 781.22,-168.5 710.22,-168.5"/>
<text text-anchor="middle" x="745.72" y="-175.5" font-family="'Consolas',monospace" font-size="10.00">input.hpp</text>
</a>
</g>
</g>
<!-- Node1&#45;&gt;Node7 -->
<g id="edge48" class="edge">
<title>Node1&#45;&gt;Node7</title>
<path fill="none" stroke="midnightblue" d="M895.04,-282.31C864.9,-276.14 825.37,-264.68 795.72,-244 778.08,-231.69 763.84,-211.26 755.14,-196.59"/>
<polygon fill="midnightblue" stroke="midnightblue" points="757.99,-194.51 750.02,-187.52 751.89,-197.95 757.99,-194.51"/>
</g>
<!-- Node14 -->
<g id="node14" class="node">
<title>Node14</title>
<g id="a_node14"><a xlink:href="Drawable_8hpp.html" target="_top" xlink:title="Contains jngl::Drawable class.">
<polygon fill="white" stroke="black" points="677.22,-112.5 677.22,-131.5 766.22,-131.5 766.22,-112.5 677.22,-112.5"/>
<text text-anchor="middle" x="721.72" y="-119.5" font-family="'Consolas',monospace" font-size="10.00">Drawable.hpp</text>
</a>
</g>
</g>
<!-- Node1&#45;&gt;Node14 -->
<g id="edge14" class="edge">
<title>Node1&#45;&gt;Node14</title>
<path fill="none" stroke="midnightblue" d="M895,-289.1C818.41,-288.23 667.07,-281.66 632.72,-244 609.95,-219.02 611.83,-196.68 629.72,-168 639.48,-152.36 656.42,-142.01 673.13,-135.23"/>
<polygon fill="midnightblue" stroke="midnightblue" points="674.71,-138.38 682.88,-131.64 672.29,-131.81 674.71,-138.38"/>
</g>
<!-- Node15 -->
<g id="node15" class="node">
<title>Node15</title>
<g id="a_node15"><a xlink:href="Shader_8hpp.html" target="_top" xlink:title=" ">
<polygon fill="white" stroke="black" points="1140.22,-224.5 1140.22,-243.5 1217.22,-243.5 1217.22,-224.5 1140.22,-224.5"/>
<text text-anchor="middle" x="1178.72" y="-231.5" font-family="'Consolas',monospace" font-size="10.00">Shader.hpp</text>
</a>
</g>
</g>
<!-- Node1&#45;&gt;Node15 -->
<g id="edge16" class="edge">
<title>Node1&#45;&gt;Node15</title>
<path fill="none" stroke="midnightblue" d="M977.6,-280.44C1019.2,-271.04 1086.09,-255.93 1131.19,-245.74"/>
<polygon fill="midnightblue" stroke="midnightblue" points="1132.05,-249.13 1141.03,-243.52 1130.51,-242.31 1132.05,-249.13"/>
</g>
<!-- Node16 -->
<g id="node16" class="node">
<title>Node16</title>
<g id="a_node16"><a xlink:href="ShaderProgram_8hpp.html" target="_top" xlink:title="Contains jngl::ShaderProgram class.">
<polygon fill="white" stroke="black" points="784.22,-112.5 784.22,-131.5 903.22,-131.5 903.22,-112.5 784.22,-112.5"/>
<text text-anchor="middle" x="843.72" y="-119.5" font-family="'Consolas',monospace" font-size="10.00">ShaderProgram.hpp</text>
</a>
</g>
</g>
<!-- Node1&#45;&gt;Node16 -->
<g id="edge18" class="edge">
<title>Node1&#45;&gt;Node16</title>
<path fill="none" stroke="midnightblue" d="M923.76,-280.42C898.04,-265.56 848.32,-232.32 828.72,-188 822.01,-172.81 827.53,-154.23 833.68,-140.84"/>
<polygon fill="midnightblue" stroke="midnightblue" points="836.89,-142.24 838.32,-131.74 830.65,-139.06 836.89,-142.24"/>
</g>
<!-- Node18 -->
<g id="node18" class="node">
<title>Node18</title>
<g id="a_node18"><a xlink:href="Vertex_8hpp.html" target="_top" xlink:title=" ">
<polygon fill="white" stroke="black" points="17.22,-112.5 17.22,-131.5 94.22,-131.5 94.22,-112.5 17.22,-112.5"/>
<text text-anchor="middle" x="55.72" y="-119.5" font-family="'Consolas',monospace" font-size="10.00">Vertex.hpp</text>
</a>
</g>
</g>
<!-- Node1&#45;&gt;Node18 -->
<g id="edge23" class="edge">
<title>Node1&#45;&gt;Node18</title>
<path fill="none" stroke="midnightblue" d="M895.07,-287.85C741.87,-283.7 243.28,-268.42 175.72,-244 136.27,-229.73 128.79,-218.25 99.72,-188 85.9,-173.61 73.49,-154.41 65.4,-140.62"/>
<polygon fill="midnightblue" stroke="midnightblue" points="68.31,-138.64 60.32,-131.67 62.22,-142.09 68.31,-138.64"/>
</g>
<!-- Node19 -->
<g id="node19" class="node">
<title>Node19</title>
<g id="a_node19"><a xlink:href="Video_8hpp.html" target="_top" xlink:title=" ">
<polygon fill="white" stroke="black" points="1051.22,-224.5 1051.22,-243.5 1122.22,-243.5 1122.22,-224.5 1051.22,-224.5"/>
<text text-anchor="middle" x="1086.72" y="-231.5" font-family="'Consolas',monospace" font-size="10.00">Video.hpp</text>
</a>
</g>
</g>
<!-- Node1&#45;&gt;Node19 -->
<g id="edge24" class="edge">
<title>Node1&#45;&gt;Node19</title>
<path fill="none" stroke="midnightblue" d="M963.02,-280.44C987.53,-271.44 1026.32,-257.19 1053.92,-247.05"/>
<polygon fill="midnightblue" stroke="midnightblue" points="1055.36,-250.25 1063.54,-243.52 1052.95,-243.68 1055.36,-250.25"/>
</g>
<!-- Node20 -->
<g id="node20" class="node">
<title>Node20</title>
<g id="a_node20"><a xlink:href="sprite_8hpp.html" target="_top" xlink:title="Contains jngl::Sprite class and related functions.">
<polygon fill="white" stroke="black" points="838.22,-168.5 838.22,-187.5 915.22,-187.5 915.22,-168.5 838.22,-168.5"/>
<text text-anchor="middle" x="876.72" y="-175.5" font-family="'Consolas',monospace" font-size="10.00">sprite.hpp</text>
</a>
</g>
</g>
<!-- Node1&#45;&gt;Node20 -->
<g id="edge69" class="edge">
<title>Node1&#45;&gt;Node20</title>
<path fill="none" stroke="midnightblue" d="M934.78,-280.37C924.43,-262.3 900.31,-220.18 886.64,-196.31"/>
<polygon fill="midnightblue" stroke="midnightblue" points="889.65,-194.53 881.65,-187.59 883.58,-198.01 889.65,-194.53"/>
</g>
<!-- Node21 -->
<g id="node21" class="node">
<title>Node21</title>
<g id="a_node21"><a xlink:href="debug_8hpp_source.html" target="_top" xlink:title=" ">
<polygon fill="white" stroke="black" points="1567.22,-224.5 1567.22,-243.5 1638.22,-243.5 1638.22,-224.5 1567.22,-224.5"/>
<text text-anchor="middle" x="1602.72" y="-231.5" font-family="'Consolas',monospace" font-size="10.00">debug.hpp</text>
</a>
</g>
</g>
<!-- Node1&#45;&gt;Node21 -->
<g id="edge32" class="edge">
<title>Node1&#45;&gt;Node21</title>
<path fill="none" stroke="midnightblue" d="M984.5,-287.32C1085.94,-283.17 1340.99,-270.75 1552.72,-244 1554.17,-243.82 1555.65,-243.62 1557.13,-243.41"/>
<polygon fill="midnightblue" stroke="midnightblue" points="1557.66,-246.87 1567.02,-241.9 1556.6,-239.95 1557.66,-246.87"/>
</g>
<!-- Node22 -->
<g id="node22" class="node">
<title>Node22</title>
<g id="a_node22"><a xlink:href="message_8hpp.html" target="_top" xlink:title=" ">
<polygon fill="white" stroke="black" points="1605.22,-168.5 1605.22,-187.5 1688.22,-187.5 1688.22,-168.5 1605.22,-168.5"/>
<text text-anchor="middle" x="1646.72" y="-175.5" font-family="'Consolas',monospace" font-size="10.00">message.hpp</text>
</a>
</g>
</g>
<!-- Node1&#45;&gt;Node22 -->
<g id="edge60" class="edge">
<title>Node1&#45;&gt;Node22</title>
<path fill="none" stroke="midnightblue" d="M984.29,-288.14C1147.57,-284.77 1704.94,-271.29 1730.72,-244 1750.61,-222.95 1714.5,-203.27 1683.61,-191.2"/>
<polygon fill="midnightblue" stroke="midnightblue" points="1684.43,-187.77 1673.84,-187.56 1681.99,-194.33 1684.43,-187.77"/>
</g>
<!-- Node24 -->
<g id="node24" class="node">
<title>Node24</title>
<g id="a_node24"><a xlink:href="font_8hpp.html" target="_top" xlink:title="Contains jngl::Font class and related functions.">
<polygon fill="white" stroke="black" points="426.22,-168.5 426.22,-187.5 491.22,-187.5 491.22,-168.5 426.22,-168.5"/>
<text text-anchor="middle" x="458.72" y="-175.5" font-family="'Consolas',monospace" font-size="10.00">font.hpp</text>
</a>
</g>
</g>
<!-- Node1&#45;&gt;Node24 -->
<g id="edge36" class="edge">
<title>Node1&#45;&gt;Node24</title>
<path fill="none" stroke="midnightblue" d="M894.96,-287.53C828.6,-284.37 700.75,-274.51 596.72,-244 554.4,-231.59 508.74,-207.81 482,-192.72"/>
<polygon fill="midnightblue" stroke="midnightblue" points="483.46,-189.52 473.04,-187.58 479.98,-195.59 483.46,-189.52"/>
</g>
<!-- Node25 -->
<g id="node25" class="node">
<title>Node25</title>
<g id="a_node25"><a xlink:href="framebuffer_8hpp.html" target="_top" xlink:title="Contains jngl::FrameBuffer class.">
<polygon fill="white" stroke="black" points="294.22,-168.5 294.22,-187.5 395.22,-187.5 395.22,-168.5 294.22,-168.5"/>
<text text-anchor="middle" x="344.72" y="-175.5" font-family="'Consolas',monospace" font-size="10.00">framebuffer.hpp</text>
</a>
</g>
</g>
<!-- Node1&#45;&gt;Node25 -->
<g id="edge41" class="edge">
<title>Node1&#45;&gt;Node25</title>
<path fill="none" stroke="midnightblue" d="M895.18,-286.92C821.23,-282.81 668.77,-271.53 542.72,-244 482.21,-230.78 414.08,-206.17 375.59,-191.32"/>
<polygon fill="midnightblue" stroke="midnightblue" points="376.59,-187.96 366.01,-187.59 374.05,-194.48 376.59,-187.96"/>
</g>
<!-- Node26 -->
<g id="node26" class="node">
<title>Node26</title>
<g id="a_node26"><a xlink:href="job_8hpp.html" target="_top" xlink:title=" ">
<polygon fill="white" stroke="black" points="1016.22,-168.5 1016.22,-187.5 1075.22,-187.5 1075.22,-168.5 1016.22,-168.5"/>
<text text-anchor="middle" x="1045.72" y="-175.5" font-family="'Consolas',monospace" font-size="10.00">job.hpp</text>
</a>
</g>
</g>
<!-- Node1&#45;&gt;Node26 -->
<g id="edge49" class="edge">
<title>Node1&#45;&gt;Node26</title>
<path fill="none" stroke="midnightblue" d="M940.12,-280.43C941.17,-266.97 944.97,-240.7 958.72,-224 971.01,-209.08 989.55,-198.53 1006.35,-191.42"/>
<polygon fill="midnightblue" stroke="midnightblue" points="1007.97,-194.55 1015.99,-187.63 1005.4,-188.04 1007.97,-194.55"/>
</g>
<!-- Node27 -->
<g id="node27" class="node">
<title>Node27</title>
<g id="a_node27"><a xlink:href="main_8hpp_source.html" target="_top" xlink:title=" ">
<polygon fill="white" stroke="black" points="1274.22,-224.5 1274.22,-243.5 1339.22,-243.5 1339.22,-224.5 1274.22,-224.5"/>
<text text-anchor="middle" x="1306.72" y="-231.5" font-family="'Consolas',monospace" font-size="10.00">main.hpp</text>
</a>
</g>
</g>
<!-- Node1&#45;&gt;Node27 -->
<g id="edge51" class="edge">
<title>Node1&#45;&gt;Node27</title>
<path fill="none" stroke="midnightblue" d="M984.35,-283.43C1046.29,-275.55 1161.76,-260.26 1259.72,-244 1261.18,-243.76 1262.67,-243.51 1264.17,-243.25"/>
<polygon fill="midnightblue" stroke="midnightblue" points="1264.92,-246.67 1274.15,-241.45 1263.69,-239.78 1264.92,-246.67"/>
</g>
<!-- Node28 -->
<g id="node28" class="node">
<title>Node28</title>
<g id="a_node28"><a xlink:href="other_8hpp.html" target="_top" xlink:title=" ">
<polygon fill="white" stroke="black" points="1340.22,-168.5 1340.22,-187.5 1411.22,-187.5 1411.22,-168.5 1340.22,-168.5"/>
<text text-anchor="middle" x="1375.72" y="-175.5" font-family="'Consolas',monospace" font-size="10.00">other.hpp</text>
</a>
</g>
</g>
<!-- Node1&#45;&gt;Node28 -->
<g id="edge61" class="edge">
<title>Node1&#45;&gt;Node28</title>
<path fill="none" stroke="midnightblue" d="M984.59,-288.37C1102.13,-286.24 1412.1,-277.48 1442.72,-244 1459.89,-225.23 1430.83,-205.04 1405.76,-192.23"/>
<polygon fill="midnightblue" stroke="midnightblue" points="1406.98,-188.93 1396.46,-187.7 1403.92,-195.23 1406.98,-188.93"/>
</g>
<!-- Node29 -->
<g id="node29" class="node">
<title>Node29</title>
<g id="a_node29"><a xlink:href="window_8hpp.html" target="_top" xlink:title="Functions related to the main window.">
<polygon fill="white" stroke="black" points="1429.22,-168.5 1429.22,-187.5 1506.22,-187.5 1506.22,-168.5 1429.22,-168.5"/>
<text text-anchor="middle" x="1467.72" y="-175.5" font-family="'Consolas',monospace" font-size="10.00">window.hpp</text>
</a>
</g>
</g>
<!-- Node1&#45;&gt;Node29 -->
<g id="edge76" class="edge">
<title>Node1&#45;&gt;Node29</title>
<path fill="none" stroke="midnightblue" d="M984.57,-288.29C1104.5,-285.95 1425.85,-276.67 1459.72,-244 1471.85,-232.3 1472.62,-212.36 1471.12,-197.64"/>
<polygon fill="midnightblue" stroke="midnightblue" points="1474.56,-197.03 1469.67,-187.63 1467.63,-198.03 1474.56,-197.03"/>
</g>
<!-- Node30 -->
<g id="node30" class="node">
<title>Node30</title>
<g id="a_node30"><a xlink:href="matrix_8hpp.html" target="_top" xlink:title="Functions related to the global ModelView matrix.">
<polygon fill="white" stroke="black" points="1357.22,-224.5 1357.22,-243.5 1434.22,-243.5 1434.22,-224.5 1357.22,-224.5"/>
<text text-anchor="middle" x="1395.72" y="-231.5" font-family="'Consolas',monospace" font-size="10.00">matrix.hpp</text>
</a>
</g>
</g>
<!-- Node1&#45;&gt;Node30 -->
<g id="edge59" class="edge">
<title>Node1&#45;&gt;Node30</title>
<path fill="none" stroke="midnightblue" d="M984.24,-285.2C1057.63,-278.69 1208.79,-264.27 1347.06,-243.99"/>
<polygon fill="midnightblue" stroke="midnightblue" points="1347.61,-247.45 1356.99,-242.52 1346.59,-240.52 1347.61,-247.45"/>
</g>
<!-- Node31 -->
<g id="node31" class="node">
<title>Node31</title>
<g id="a_node31"><a xlink:href="screen_8hpp.html" target="_top" xlink:title=" ">
<polygon fill="white" stroke="black" points="201.22,-112.5 201.22,-131.5 278.22,-131.5 278.22,-112.5 201.22,-112.5"/>
<text text-anchor="middle" x="239.72" y="-119.5" font-family="'Consolas',monospace" font-size="10.00">screen.hpp</text>
</a>
</g>
</g>
<!-- Node1&#45;&gt;Node31 -->
<g id="edge62" class="edge">
<title>Node1&#45;&gt;Node31</title>
<path fill="none" stroke="midnightblue" d="M895.04,-287.74C810.74,-284.7 622.75,-274.78 467.72,-244 384.3,-227.43 353.4,-238.19 284.72,-188 267.98,-175.76 255.32,-155.32 247.76,-140.63"/>
<polygon fill="midnightblue" stroke="midnightblue" points="250.87,-139.01 243.36,-131.54 244.57,-142.07 250.87,-139.01"/>
</g>
<!-- Node32 -->
<g id="node32" class="node">
<title>Node32</title>
<g id="a_node32"><a xlink:href="shapes_8hpp.html" target="_top" xlink:title="Functions for drawing shapes.">
<polygon fill="white" stroke="black" points="109.22,-168.5 109.22,-187.5 186.22,-187.5 186.22,-168.5 109.22,-168.5"/>
<text text-anchor="middle" x="147.72" y="-175.5" font-family="'Consolas',monospace" font-size="10.00">shapes.hpp</text>
</a>
</g>
</g>
<!-- Node1&#45;&gt;Node32 -->
<g id="edge64" class="edge">
<title>Node1&#45;&gt;Node32</title>
<path fill="none" stroke="midnightblue" d="M895,-288.25C745.13,-285.48 266.56,-274.33 204.72,-244 183.75,-233.71 167.2,-211.9 157.46,-196.38"/>
<polygon fill="midnightblue" stroke="midnightblue" points="160.41,-194.5 152.29,-187.69 154.39,-198.08 160.41,-194.5"/>
</g>
<!-- Node33 -->
<g id="node33" class="node">
<title>Node33</title>
<g id="a_node33"><a xlink:href="sound_8hpp_source.html" target="_top" xlink:title=" ">
<polygon fill="white" stroke="black" points="1528.22,-112.5 1528.22,-131.5 1599.22,-131.5 1599.22,-112.5 1528.22,-112.5"/>
<text text-anchor="middle" x="1563.72" y="-119.5" font-family="'Consolas',monospace" font-size="10.00">sound.hpp</text>
</a>
</g>
</g>
<!-- Node1&#45;&gt;Node33 -->
<g id="edge67" class="edge">
<title>Node1&#45;&gt;Node33</title>
<path fill="none" stroke="midnightblue" d="M984.65,-287.44C1106.56,-282.91 1437.31,-268.49 1479.72,-244 1520.2,-220.64 1545.69,-168.97 1556.97,-141.32"/>
<polygon fill="midnightblue" stroke="midnightblue" points="1560.35,-142.28 1560.71,-131.69 1553.82,-139.75 1560.35,-142.28"/>
</g>
<!-- Node34 -->
<g id="node34" class="node">
<title>Node34</title>
<g id="a_node34"><a xlink:href="text_8hpp.html" target="_top" xlink:title=" ">
<polygon fill="white" stroke="black" points="933.22,-168.5 933.22,-187.5 998.22,-187.5 998.22,-168.5 933.22,-168.5"/>
<text text-anchor="middle" x="965.72" y="-175.5" font-family="'Consolas',monospace" font-size="10.00">text.hpp</text>
</a>
</g>
</g>
<!-- Node1&#45;&gt;Node34 -->
<g id="edge70" class="edge">
<title>Node1&#45;&gt;Node34</title>
<path fill="none" stroke="midnightblue" d="M934.8,-280.35C928.26,-267.67 918.34,-243.42 925.72,-224 930.06,-212.6 938.76,-202.24 946.93,-194.34"/>
<polygon fill="midnightblue" stroke="midnightblue" points="949.37,-196.86 954.46,-187.57 944.68,-191.66 949.37,-196.86"/>
</g>
<!-- Node35 -->
<g id="node35" class="node">
<title>Node35</title>
<g id="a_node35"><a xlink:href="time_8hpp.html" target="_top" xlink:title="Timing functions.">
<polygon fill="white" stroke="black" points="1656.22,-224.5 1656.22,-243.5 1721.22,-243.5 1721.22,-224.5 1656.22,-224.5"/>
<text text-anchor="middle" x="1688.72" y="-231.5" font-family="'Consolas',monospace" font-size="10.00">time.hpp</text>
</a>
</g>
</g>
<!-- Node1&#45;&gt;Node35 -->
<g id="edge75" class="edge">
<title>Node1&#45;&gt;Node35</title>
<path fill="none" stroke="midnightblue" d="M984.62,-288.44C1095.32,-286.55 1390.27,-278.56 1645.58,-243.94"/>
<polygon fill="midnightblue" stroke="midnightblue" points="1646.36,-247.37 1655.79,-242.54 1645.41,-240.43 1646.36,-247.37"/>
</g>
<!-- Node36 -->
<g id="node36" class="node">
<title>Node36</title>
<g id="a_node36"><a xlink:href="work_8hpp.html" target="_top" xlink:title=" ">
<polygon fill="white" stroke="black" points="968.22,-224.5 968.22,-243.5 1033.22,-243.5 1033.22,-224.5 968.22,-224.5"/>
<text text-anchor="middle" x="1000.72" y="-231.5" font-family="'Consolas',monospace" font-size="10.00">work.hpp</text>
</a>
</g>
</g>
<!-- Node1&#45;&gt;Node36 -->
<g id="edge77" class="edge">
<title>Node1&#45;&gt;Node36</title>
<path fill="none" stroke="midnightblue" d="M949.53,-280.32C958.54,-272.34 972.13,-260.31 983.04,-250.65"/>
<polygon fill="midnightblue" stroke="midnightblue" points="985.58,-253.08 990.75,-243.83 980.94,-247.84 985.58,-253.08"/>
</g>
<!-- Node3 -->
<g id="node3" class="node">
<title>Node3</title>
<g id="a_node3"><a target="_parent" xlink:href="http://en.cppreference.com/w/cpp/header/memory.html" target="_top" xlink:title=" ">
<polygon fill="white" stroke="black" points="1014.22,-56.5 1014.22,-75.5 1067.22,-75.5 1067.22,-56.5 1014.22,-56.5"/>
<text text-anchor="middle" x="1040.72" y="-63.5" font-family="'Consolas',monospace" font-size="10.00">memory</text>
</a>
</g>
</g>
<!-- Node2&#45;&gt;Node3 -->
<g id="edge2" class="edge">
<title>Node2&#45;&gt;Node3</title>
<path fill="none" stroke="midnightblue" d="M1296.92,-114.83C1292.17,-113.87 1287.32,-112.9 1282.72,-112 1210,-97.8 1124.78,-82.19 1077.35,-73.6"/>
<polygon fill="midnightblue" stroke="midnightblue" points="1077.72,-70.11 1067.25,-71.77 1076.47,-77 1077.72,-70.11"/>
</g>
<!-- Node4 -->
<g id="node4" class="node">
<title>Node4</title>
<g id="a_node4"><a target="_parent" xlink:href="http://en.cppreference.com/w/cpp/header/string.html" target="_top" xlink:title=" ">
<polygon fill="white" stroke="black" points="1300.22,-56.5 1300.22,-75.5 1353.22,-75.5 1353.22,-56.5 1300.22,-56.5"/>
<text text-anchor="middle" x="1326.72" y="-63.5" font-family="'Consolas',monospace" font-size="10.00">string</text>
</a>
</g>
</g>
<!-- Node2&#45;&gt;Node4 -->
<g id="edge3" class="edge">
<title>Node2&#45;&gt;Node4</title>
<path fill="none" stroke="midnightblue" d="M1326.72,-112.08C1326.72,-105.01 1326.72,-94.86 1326.72,-85.99"/>
<polygon fill="midnightblue" stroke="midnightblue" points="1330.23,-85.75 1326.72,-75.75 1323.23,-85.75 1330.23,-85.75"/>
</g>
<!-- Node6&#45;&gt;Node7 -->
<g id="edge6" class="edge">
<title>Node6&#45;&gt;Node7</title>
<path fill="none" stroke="midnightblue" d="M701.48,-224.08C709.19,-216.22 720.63,-204.57 729.94,-195.08"/>
<polygon fill="midnightblue" stroke="midnightblue" points="732.63,-197.34 737.14,-187.75 727.63,-192.44 732.63,-197.34"/>
</g>
<!-- Node13 -->
<g id="node13" class="node">
<title>Node13</title>
<g id="a_node13"><a target="_parent" xlink:href="http://en.cppreference.com/w/cpp/header/chrono.html" target="_top" xlink:title=" ">
<polygon fill="white" stroke="black" points="639.22,-168.5 639.22,-187.5 692.22,-187.5 692.22,-168.5 639.22,-168.5"/>
<text text-anchor="middle" x="665.72" y="-175.5" font-family="'Consolas',monospace" font-size="10.00">chrono</text>
</a>
</g>
</g>
<!-- Node6&#45;&gt;Node13 -->
<g id="edge13" class="edge">
<title>Node6&#45;&gt;Node13</title>
<path fill="none" stroke="midnightblue" d="M688.27,-224.08C684.57,-216.69 679.2,-205.95 674.63,-196.81"/>
<polygon fill="midnightblue" stroke="midnightblue" points="677.7,-195.13 670.1,-187.75 671.44,-198.26 677.7,-195.13"/>
</g>
<!-- Node7&#45;&gt;Node3 -->
<g id="edge11" class="edge">
<title>Node7&#45;&gt;Node3</title>
<path fill="none" stroke="midnightblue" d="M720.84,-168.43C690.97,-156.86 647.32,-135.02 667.72,-112 689.84,-87.06 914.44,-73.26 1004.08,-68.71"/>
<polygon fill="midnightblue" stroke="midnightblue" points="1004.25,-72.2 1014.07,-68.21 1003.91,-65.21 1004.25,-72.2"/>
</g>
<!-- Node8 -->
<g id="node8" class="node">
<title>Node8</title>
<g id="a_node8"><a xlink:href="Vec2_8hpp.html" target="_top" xlink:title=" ">
<polygon fill="white" stroke="black" points="388.22,-56.5 388.22,-75.5 453.22,-75.5 453.22,-56.5 388.22,-56.5"/>
<text text-anchor="middle" x="420.72" y="-63.5" font-family="'Consolas',monospace" font-size="10.00">Vec2.hpp</text>
</a>
</g>
</g>
<!-- Node7&#45;&gt;Node8 -->
<g id="edge7" class="edge">
<title>Node7&#45;&gt;Node8</title>
<path fill="none" stroke="midnightblue" d="M710.08,-169.33C663.99,-159.26 586.37,-141.72 558.72,-132 517.78,-117.6 472.71,-95 445.57,-80.6"/>
<polygon fill="midnightblue" stroke="midnightblue" points="446.89,-77.34 436.42,-75.7 443.58,-83.51 446.89,-77.34"/>
</g>
<!-- Node11 -->
<g id="node11" class="node">
<title>Node11</title>
<g id="a_node11"><a target="_parent" xlink:href="http://en.cppreference.com/w/cpp/header/functional.html" target="_top" xlink:title=" ">
<polygon fill="white" stroke="black" points="678.22,-0.5 678.22,-19.5 755.22,-19.5 755.22,-0.5 678.22,-0.5"/>
<text text-anchor="middle" x="716.72" y="-7.5" font-family="'Consolas',monospace" font-size="10.00">functional</text>
</a>
</g>
</g>
<!-- Node7&#45;&gt;Node11 -->
<g id="edge10" class="edge">
<title>Node7&#45;&gt;Node11</title>
<path fill="none" stroke="midnightblue" d="M710.71,-168.45C691.79,-161.84 670.04,-150.59 658.72,-132 636.74,-95.88 675.08,-50.16 699.26,-26.61"/>
<polygon fill="midnightblue" stroke="midnightblue" points="701.91,-28.91 706.81,-19.51 697.12,-23.81 701.91,-28.91"/>
</g>
<!-- Node12 -->
<g id="node12" class="node">
<title>Node12</title>
<g id="a_node12"><a target="_parent" xlink:href="http://en.cppreference.com/w/cpp/header/vector.html" target="_top" xlink:title=" ">
<polygon fill="white" stroke="black" points="921.22,-112.5 921.22,-131.5 974.22,-131.5 974.22,-112.5 921.22,-112.5"/>
<text text-anchor="middle" x="947.72" y="-119.5" font-family="'Consolas',monospace" font-size="10.00">vector</text>
</a>
</g>
</g>
<!-- Node7&#45;&gt;Node12 -->
<g id="edge12" class="edge">
<title>Node7&#45;&gt;Node12</title>
<path fill="none" stroke="midnightblue" d="M777.73,-168.44C814.09,-158.72 873.29,-142.9 911.36,-132.72"/>
<polygon fill="midnightblue" stroke="midnightblue" points="912.27,-136.1 921.03,-130.14 910.46,-129.34 912.27,-136.1"/>
</g>
<!-- Node9 -->
<g id="node9" class="node">
<title>Node9</title>
<g id="a_node9"><a xlink:title=" ">
<polygon fill="white" stroke="#bfbfbf" points="344.22,-0.5 344.22,-19.5 463.22,-19.5 463.22,-0.5 344.22,-0.5"/>
<text text-anchor="middle" x="403.72" y="-7.5" font-family="'Consolas',monospace" font-size="10.00">boost/version.hpp</text>
</a>
</g>
</g>
<!-- Node8&#45;&gt;Node9 -->
<g id="edge8" class="edge">
<title>Node8&#45;&gt;Node9</title>
<path fill="none" stroke="midnightblue" d="M417.92,-56.08C415.64,-48.85 412.35,-38.41 409.52,-29.4"/>
<polygon fill="midnightblue" stroke="midnightblue" points="412.82,-28.24 406.48,-19.75 406.14,-30.34 412.82,-28.24"/>
</g>
<!-- Node10 -->
<g id="node10" class="node">
<title>Node10</title>
<g id="a_node10"><a target="_parent" xlink:href="http://en.cppreference.com/w/cpp/header/iosfwd.html" target="_top" xlink:title=" ">
<polygon fill="white" stroke="black" points="481.22,-0.5 481.22,-19.5 534.22,-19.5 534.22,-0.5 481.22,-0.5"/>
<text text-anchor="middle" x="507.72" y="-7.5" font-family="'Consolas',monospace" font-size="10.00">iosfwd</text>
</a>
</g>
</g>
<!-- Node8&#45;&gt;Node10 -->
<g id="edge9" class="edge">
<title>Node8&#45;&gt;Node10</title>
<path fill="none" stroke="midnightblue" d="M434.7,-56.32C448.27,-47.9 469.11,-34.97 485.05,-25.07"/>
<polygon fill="midnightblue" stroke="midnightblue" points="487.13,-27.9 493.78,-19.65 483.44,-21.95 487.13,-27.9"/>
</g>
<!-- Node14&#45;&gt;Node8 -->
<g id="edge15" class="edge">
<title>Node14&#45;&gt;Node8</title>
<path fill="none" stroke="midnightblue" d="M676.99,-112.97C619.48,-102.66 520.32,-84.87 463.69,-74.71"/>
<polygon fill="midnightblue" stroke="midnightblue" points="464.09,-71.22 453.63,-72.9 462.85,-78.11 464.09,-71.22"/>
</g>
<!-- Node15&#45;&gt;Node3 -->
<g id="edge17" class="edge">
<title>Node15&#45;&gt;Node3</title>
<path fill="none" stroke="midnightblue" d="M1175.9,-224.43C1168.55,-203.22 1147.09,-147.41 1113.72,-112 1101.25,-98.76 1084.04,-87.9 1069.47,-80.17"/>
<polygon fill="midnightblue" stroke="midnightblue" points="1070.85,-76.95 1060.35,-75.55 1067.69,-83.19 1070.85,-76.95"/>
</g>
<!-- Node16&#45;&gt;Node3 -->
<g id="edge21" class="edge">
<title>Node16&#45;&gt;Node3</title>
<path fill="none" stroke="midnightblue" d="M874.94,-112.44C910.05,-102.82 967,-87.21 1004.16,-77.02"/>
<polygon fill="midnightblue" stroke="midnightblue" points="1005.36,-80.32 1014.08,-74.3 1003.51,-73.57 1005.36,-80.32"/>
</g>
<!-- Node16&#45;&gt;Node4 -->
<g id="edge22" class="edge">
<title>Node16&#45;&gt;Node4</title>
<path fill="none" stroke="midnightblue" d="M903.42,-113.02C906.23,-112.67 909.01,-112.33 911.72,-112 1051.28,-95.2 1217.6,-78.03 1290.01,-70.69"/>
<polygon fill="midnightblue" stroke="midnightblue" points="1290.4,-74.17 1300,-69.68 1289.7,-67.2 1290.4,-74.17"/>
</g>
<!-- Node17 -->
<g id="node17" class="node">
<title>Node17</title>
<g id="a_node17"><a xlink:href="Finally_8hpp.html" target="_top" xlink:title=" ">
<polygon fill="white" stroke="black" points="739.22,-56.5 739.22,-75.5 822.22,-75.5 822.22,-56.5 739.22,-56.5"/>
<text text-anchor="middle" x="780.72" y="-63.5" font-family="'Consolas',monospace" font-size="10.00">Finally.hpp</text>
</a>
</g>
</g>
<!-- Node16&#45;&gt;Node17 -->
<g id="edge19" class="edge">
<title>Node16&#45;&gt;Node17</title>
<path fill="none" stroke="midnightblue" d="M833.6,-112.32C824.2,-104.26 809.98,-92.08 798.66,-82.37"/>
<polygon fill="midnightblue" stroke="midnightblue" points="800.9,-79.68 791.03,-75.83 796.35,-85 800.9,-79.68"/>
</g>
<!-- Node17&#45;&gt;Node11 -->
<g id="edge20" class="edge">
<title>Node17&#45;&gt;Node11</title>
<path fill="none" stroke="midnightblue" d="M770.44,-56.32C760.89,-48.26 746.45,-36.08 734.94,-26.37"/>
<polygon fill="midnightblue" stroke="midnightblue" points="737.09,-23.61 727.19,-19.83 732.58,-28.96 737.09,-23.61"/>
</g>
<!-- Node19&#45;&gt;Node3 -->
<g id="edge30" class="edge">
<title>Node19&#45;&gt;Node3</title>
<path fill="none" stroke="midnightblue" d="M1090.58,-224.25C1094.28,-215.33 1099.61,-201.01 1101.72,-188 1107.16,-154.52 1110.99,-141.76 1094.72,-112 1087.84,-99.41 1075.89,-88.89 1064.98,-81.2"/>
<polygon fill="midnightblue" stroke="midnightblue" points="1066.84,-78.24 1056.57,-75.65 1062.99,-84.08 1066.84,-78.24"/>
</g>
<!-- Node19&#45;&gt;Node4 -->
<g id="edge31" class="edge">
<title>Node19&#45;&gt;Node4</title>
<path fill="none" stroke="midnightblue" d="M1099.29,-224.31C1138.25,-197.36 1257.31,-115.01 1305.82,-81.46"/>
<polygon fill="midnightblue" stroke="midnightblue" points="1308.05,-84.17 1314.28,-75.61 1304.07,-78.42 1308.05,-84.17"/>
</g>
<!-- Node19&#45;&gt;Node20 -->
<g id="edge25" class="edge">
<title>Node19&#45;&gt;Node20</title>
<path fill="none" stroke="midnightblue" d="M1053.45,-224.44C1017.28,-215.14 959.35,-200.25 919.74,-190.06"/>
<polygon fill="midnightblue" stroke="midnightblue" points="920.4,-186.62 909.84,-187.52 918.66,-193.4 920.4,-186.62"/>
</g>
<!-- Node20&#45;&gt;Node8 -->
<g id="edge28" class="edge">
<title>Node20&#45;&gt;Node8</title>
<path fill="none" stroke="midnightblue" d="M838.09,-169.23C796.05,-160.64 726.93,-146.16 667.72,-132 594.65,-114.53 510.1,-91.71 461.28,-78.27"/>
<polygon fill="midnightblue" stroke="midnightblue" points="461.99,-74.84 451.42,-75.56 460.13,-81.59 461.99,-74.84"/>
</g>
<!-- Node20&#45;&gt;Node12 -->
<g id="edge29" class="edge">
<title>Node20&#45;&gt;Node12</title>
<path fill="none" stroke="midnightblue" d="M888.13,-168.32C898.83,-160.18 915.07,-147.84 927.89,-138.09"/>
<polygon fill="midnightblue" stroke="midnightblue" points="930.27,-140.67 936.11,-131.83 926.03,-135.1 930.27,-140.67"/>
</g>
<!-- Node20&#45;&gt;Node14 -->
<g id="edge26" class="edge">
<title>Node20&#45;&gt;Node14</title>
<path fill="none" stroke="midnightblue" d="M852.16,-168.44C826.2,-159.4 785.06,-145.06 755.93,-134.92"/>
<polygon fill="midnightblue" stroke="midnightblue" points="756.77,-131.5 746.17,-131.52 754.46,-138.11 756.77,-131.5"/>
</g>
<!-- Node20&#45;&gt;Node16 -->
<g id="edge27" class="edge">
<title>Node20&#45;&gt;Node16</title>
<path fill="none" stroke="midnightblue" d="M871.28,-168.08C866.71,-160.61 860.06,-149.72 854.43,-140.52"/>
<polygon fill="midnightblue" stroke="midnightblue" points="857.27,-138.46 849.07,-131.75 851.3,-142.11 857.27,-138.46"/>
</g>
<!-- Node21&#45;&gt;Node22 -->
<g id="edge33" class="edge">
<title>Node21&#45;&gt;Node22</title>
<path fill="none" stroke="midnightblue" d="M1609.99,-224.08C1616.27,-216.38 1625.51,-205.03 1633.16,-195.65"/>
<polygon fill="midnightblue" stroke="midnightblue" points="1635.99,-197.71 1639.59,-187.75 1630.56,-193.29 1635.99,-197.71"/>
</g>
<!-- Node23 -->
<g id="node23" class="node">
<title>Node23</title>
<g id="a_node23"><a target="_parent" xlink:href="http://en.cppreference.com/w/cpp/header/sstream.html" target="_top" xlink:title=" ">
<polygon fill="white" stroke="black" points="1451.22,-112.5 1451.22,-131.5 1510.22,-131.5 1510.22,-112.5 1451.22,-112.5"/>
<text text-anchor="middle" x="1480.72" y="-119.5" font-family="'Consolas',monospace" font-size="10.00">sstream</text>
</a>
</g>
</g>
<!-- Node21&#45;&gt;Node23 -->
<g id="edge35" class="edge">
<title>Node21&#45;&gt;Node23</title>
<path fill="none" stroke="midnightblue" d="M1593.15,-224.37C1572.57,-205.81 1523.88,-161.91 1497.85,-138.44"/>
<polygon fill="midnightblue" stroke="midnightblue" points="1500.02,-135.69 1490.25,-131.59 1495.34,-140.89 1500.02,-135.69"/>
</g>
<!-- Node22&#45;&gt;Node4 -->
<g id="edge34" class="edge">
<title>Node22&#45;&gt;Node4</title>
<path fill="none" stroke="midnightblue" d="M1644.12,-168.15C1639.4,-153.81 1628,-125.71 1607.72,-112 1568.49,-85.47 1430.39,-73.44 1363.53,-69.07"/>
<polygon fill="midnightblue" stroke="midnightblue" points="1363.64,-65.57 1353.44,-68.43 1363.2,-72.55 1363.64,-65.57"/>
</g>
<!-- Node24&#45;&gt;Node3 -->
<g id="edge39" class="edge">
<title>Node24&#45;&gt;Node3</title>
<path fill="none" stroke="midnightblue" d="M459.13,-168.11C460.31,-153.71 464.9,-125.52 482.72,-112 503.54,-96.22 883.01,-75.2 1003.99,-68.88"/>
<polygon fill="midnightblue" stroke="midnightblue" points="1004.42,-72.36 1014.22,-68.35 1004.05,-65.37 1004.42,-72.36"/>
</g>
<!-- Node24&#45;&gt;Node4 -->
<g id="edge40" class="edge">
<title>Node24&#45;&gt;Node4</title>
<path fill="none" stroke="midnightblue" d="M480.27,-168.46C517.7,-154.03 597.5,-125.13 667.72,-112 788.63,-89.39 1169.67,-73.07 1289.96,-68.38"/>
<polygon fill="midnightblue" stroke="midnightblue" points="1290.27,-71.87 1300.12,-67.99 1290,-64.88 1290.27,-71.87"/>
</g>
<!-- Node24&#45;&gt;Node5 -->
<g id="edge37" class="edge">
<title>Node24&#45;&gt;Node5</title>
<path fill="none" stroke="midnightblue" d="M425.8,-171.6C368.34,-162.15 251.04,-142.75 193.3,-132.23"/>
<polygon fill="midnightblue" stroke="midnightblue" points="193.71,-128.75 183.25,-130.38 192.44,-135.63 193.71,-128.75"/>
</g>
<!-- Node24&#45;&gt;Node8 -->
<g id="edge38" class="edge">
<title>Node24&#45;&gt;Node8</title>
<path fill="none" stroke="midnightblue" d="M455.74,-168.37C449.58,-150.54 435.34,-109.3 427.04,-85.27"/>
<polygon fill="midnightblue" stroke="midnightblue" points="430.27,-83.9 423.69,-75.59 423.65,-86.19 430.27,-83.9"/>
</g>
<!-- Node25&#45;&gt;Node3 -->
<g id="edge46" class="edge">
<title>Node25&#45;&gt;Node3</title>
<path fill="none" stroke="midnightblue" d="M356.59,-168.35C377.31,-153.76 422.01,-124.62 464.72,-112 516.26,-96.78 885.09,-75.51 1003.93,-68.98"/>
<polygon fill="midnightblue" stroke="midnightblue" points="1004.2,-72.47 1013.99,-68.43 1003.81,-65.48 1004.2,-72.47"/>
</g>
<!-- Node25&#45;&gt;Node5 -->
<g id="edge42" class="edge">
<title>Node25&#45;&gt;Node5</title>
<path fill="none" stroke="midnightblue" d="M313.51,-168.44C279.79,-159.2 225.93,-144.44 188.79,-134.26"/>
<polygon fill="midnightblue" stroke="midnightblue" points="189.36,-130.78 178.79,-131.52 187.51,-137.54 189.36,-130.78"/>
</g>
<!-- Node25&#45;&gt;Node8 -->
<g id="edge44" class="edge">
<title>Node25&#45;&gt;Node8</title>
<path fill="none" stroke="midnightblue" d="M339.12,-168.33C331.42,-155.19 319.68,-129.87 330.72,-112 341.26,-94.95 360.44,-84.14 378.39,-77.41"/>
<polygon fill="midnightblue" stroke="midnightblue" points="379.84,-80.61 388.17,-74.07 377.58,-73.99 379.84,-80.61"/>
</g>
<!-- Node25&#45;&gt;Node12 -->
<g id="edge47" class="edge">
<title>Node25&#45;&gt;Node12</title>
<path fill="none" stroke="midnightblue" d="M395.43,-170.33C402.57,-169.49 409.83,-168.68 416.72,-168 633.02,-146.63 692.19,-166.29 911.22,-131.78"/>
<polygon fill="midnightblue" stroke="midnightblue" points="911.77,-135.23 921.09,-130.2 910.67,-128.32 911.77,-135.23"/>
</g>
<!-- Node25&#45;&gt;Node17 -->
<g id="edge43" class="edge">
<title>Node25&#45;&gt;Node17</title>
<path fill="none" stroke="midnightblue" d="M345.17,-168.17C346.41,-153.84 351.09,-125.77 368.72,-112 423.58,-69.17 630.8,-65.37 728.78,-66.08"/>
<polygon fill="midnightblue" stroke="midnightblue" points="729.01,-69.58 739.04,-66.17 729.08,-62.58 729.01,-69.58"/>
</g>
<!-- Node25&#45;&gt;Node18 -->
<g id="edge45" class="edge">
<title>Node25&#45;&gt;Node18</title>
<path fill="none" stroke="midnightblue" d="M298.32,-168.45C251.69,-159.84 177.47,-146.08 104.3,-132.29"/>
<polygon fill="midnightblue" stroke="midnightblue" points="104.93,-128.85 94.45,-130.43 103.63,-135.73 104.93,-128.85"/>
</g>
<!-- Node26&#45;&gt;Node3 -->
<g id="edge50" class="edge">
<title>Node26&#45;&gt;Node3</title>
<path fill="none" stroke="midnightblue" d="M1045.33,-168.37C1044.53,-150.62 1042.66,-109.67 1041.57,-85.6"/>
<polygon fill="midnightblue" stroke="midnightblue" points="1045.07,-85.42 1041.12,-75.59 1038.07,-85.74 1045.07,-85.42"/>
</g>
<!-- Node27&#45;&gt;Node17 -->
<g id="edge52" class="edge">
<title>Node27&#45;&gt;Node17</title>
<path fill="none" stroke="midnightblue" d="M1286.59,-224.36C1236.18,-202.98 1100.16,-146.83 982.72,-112 932.39,-97.07 873.71,-84.53 832.61,-76.5"/>
<polygon fill="midnightblue" stroke="midnightblue" points="833.03,-73.02 822.55,-74.56 831.71,-79.9 833.03,-73.02"/>
</g>
<!-- Node27&#45;&gt;Node28 -->
<g id="edge53" class="edge">
<title>Node27&#45;&gt;Node28</title>
<path fill="none" stroke="midnightblue" d="M1317.81,-224.32C1328.21,-216.18 1343.99,-203.84 1356.45,-194.09"/>
<polygon fill="midnightblue" stroke="midnightblue" points="1358.72,-196.75 1364.44,-187.83 1354.41,-191.24 1358.72,-196.75"/>
</g>
<!-- Node27&#45;&gt;Node29 -->
<g id="edge57" class="edge">
<title>Node27&#45;&gt;Node29</title>
<path fill="none" stroke="midnightblue" d="M1332.24,-224.44C1359.32,-215.36 1402.31,-200.94 1432.59,-190.78"/>
<polygon fill="midnightblue" stroke="midnightblue" points="1433.97,-194.01 1442.33,-187.52 1431.74,-187.38 1433.97,-194.01"/>
</g>
<!-- Node28&#45;&gt;Node4 -->
<g id="edge55" class="edge">
<title>Node28&#45;&gt;Node4</title>
<path fill="none" stroke="midnightblue" d="M1375.68,-168.16C1375.31,-155.23 1373.4,-130.69 1364.72,-112 1359.69,-101.15 1351.32,-90.82 1343.71,-82.79"/>
<polygon fill="midnightblue" stroke="midnightblue" points="1346.07,-80.2 1336.52,-75.61 1341.12,-85.15 1346.07,-80.2"/>
</g>
<!-- Node28&#45;&gt;Node12 -->
<g id="edge56" class="edge">
<title>Node28&#45;&gt;Node12</title>
<path fill="none" stroke="midnightblue" d="M1339.97,-172.49C1259.69,-162.36 1065.83,-137.9 984.55,-127.65"/>
<polygon fill="midnightblue" stroke="midnightblue" points="984.67,-124.13 974.31,-126.35 983.79,-131.08 984.67,-124.13"/>
</g>
<!-- Node28&#45;&gt;Node23 -->
<g id="edge54" class="edge">
<title>Node28&#45;&gt;Node23</title>
<path fill="none" stroke="midnightblue" d="M1392.6,-168.32C1409.43,-159.66 1435.53,-146.24 1454.96,-136.25"/>
<polygon fill="midnightblue" stroke="midnightblue" points="1456.6,-139.34 1463.9,-131.65 1453.4,-133.12 1456.6,-139.34"/>
</g>
<!-- Node29&#45;&gt;Node4 -->
<g id="edge58" class="edge">
<title>Node29&#45;&gt;Node4</title>
<path fill="none" stroke="midnightblue" d="M1456.66,-168.37C1432.67,-149.65 1375.63,-105.15 1345.74,-81.83"/>
<polygon fill="midnightblue" stroke="midnightblue" points="1347.77,-78.98 1337.74,-75.59 1343.47,-84.5 1347.77,-78.98"/>
</g>
<!-- Node31&#45;&gt;Node8 -->
<g id="edge63" class="edge">
<title>Node31&#45;&gt;Node8</title>
<path fill="none" stroke="midnightblue" d="M268.4,-112.44C299.25,-103.24 348.45,-88.56 382.55,-78.39"/>
<polygon fill="midnightblue" stroke="midnightblue" points="383.6,-81.73 392.18,-75.52 381.6,-75.02 383.6,-81.73"/>
</g>
<!-- Node32&#45;&gt;Node5 -->
<g id="edge65" class="edge">
<title>Node32&#45;&gt;Node5</title>
<path fill="none" stroke="midnightblue" d="M147.72,-168.08C147.72,-161.01 147.72,-150.86 147.72,-141.99"/>
<polygon fill="midnightblue" stroke="midnightblue" points="151.23,-141.75 147.72,-131.75 144.23,-141.75 151.23,-141.75"/>
</g>
<!-- Node32&#45;&gt;Node8 -->
<g id="edge66" class="edge">
<title>Node32&#45;&gt;Node8</title>
<path fill="none" stroke="midnightblue" d="M109.09,-172.65C57.36,-165.36 -24.39,-147.81 7.72,-112 32.14,-84.78 277.11,-72.44 377.83,-68.49"/>
<polygon fill="midnightblue" stroke="midnightblue" points="378.1,-71.99 387.96,-68.11 377.84,-64.99 378.1,-71.99"/>
</g>
<!-- Node33&#45;&gt;Node4 -->
<g id="edge68" class="edge">
<title>Node33&#45;&gt;Node4</title>
<path fill="none" stroke="midnightblue" d="M1527.99,-112.86C1483.6,-102.74 1408.27,-85.58 1363.43,-75.36"/>
<polygon fill="midnightblue" stroke="midnightblue" points="1364.07,-71.92 1353.54,-73.11 1362.51,-78.74 1364.07,-71.92"/>
</g>
<!-- Node34&#45;&gt;Node3 -->
<g id="edge72" class="edge">
<title>Node34&#45;&gt;Node3</title>
<path fill="none" stroke="midnightblue" d="M971.61,-168.37C983.99,-150.22 1012.91,-107.8 1029.14,-83.99"/>
<polygon fill="midnightblue" stroke="midnightblue" points="1032.13,-85.83 1034.87,-75.59 1026.34,-81.88 1032.13,-85.83"/>
</g>
<!-- Node34&#45;&gt;Node4 -->
<g id="edge73" class="edge">
<title>Node34&#45;&gt;Node4</title>
<path fill="none" stroke="midnightblue" d="M993.63,-168.47C1034.33,-156.04 1112.34,-132.22 1178.72,-112 1216.81,-100.4 1260.41,-87.14 1290.38,-78.04"/>
<polygon fill="midnightblue" stroke="midnightblue" points="1291.44,-81.38 1299.99,-75.12 1289.4,-74.68 1291.44,-81.38"/>
</g>
<!-- Node34&#45;&gt;Node12 -->
<g id="edge74" class="edge">
<title>Node34&#45;&gt;Node12</title>
<path fill="none" stroke="midnightblue" d="M962.75,-168.08C960.34,-160.85 956.86,-150.41 953.86,-141.4"/>
<polygon fill="midnightblue" stroke="midnightblue" points="957.12,-140.13 950.64,-131.75 950.48,-142.34 957.12,-140.13"/>
</g>
<!-- Node34&#45;&gt;Node14 -->
<g id="edge71" class="edge">
<title>Node34&#45;&gt;Node14</title>
<path fill="none" stroke="midnightblue" d="M933.07,-169.77C891.24,-160.52 818.4,-144.4 770.12,-133.71"/>
<polygon fill="midnightblue" stroke="midnightblue" points="770.73,-130.26 760.21,-131.52 769.22,-137.1 770.73,-130.26"/>
</g>
<!-- Node36&#45;&gt;Node3 -->
<g id="edge79" class="edge">
<title>Node36&#45;&gt;Node3</title>
<path fill="none" stroke="midnightblue" d="M1032.91,-224.49C1051.26,-217.8 1072.74,-206.45 1083.72,-188 1104.24,-153.54 1074.69,-107.75 1055.3,-83.58"/>
<polygon fill="midnightblue" stroke="midnightblue" points="1057.83,-81.15 1048.73,-75.72 1052.46,-85.63 1057.83,-81.15"/>
</g>
<!-- Node36&#45;&gt;Node26 -->
<g id="edge78" class="edge">
<title>Node36&#45;&gt;Node26</title>
<path fill="none" stroke="midnightblue" d="M1008.16,-224.08C1014.58,-216.38 1024.03,-205.03 1031.85,-195.65"/>
<polygon fill="midnightblue" stroke="midnightblue" points="1034.72,-197.67 1038.43,-187.75 1029.34,-193.19 1034.72,-197.67"/>
</g>
</g>
</svg>
