<?xml version="1.0" encoding="UTF-8" standalone="no"?>
<!DOCTYPE svg PUBLIC "-//W3C//DTD SVG 1.1//EN"
 "http://www.w3.org/Graphics/SVG/1.1/DTD/svg11.dtd">
<!-- Generated by graphviz version 2.40.1 (0)
 -->
<!-- Title: jngl/all.hpp Pages: 1 -->
<svg width="1738pt" height="308pt"
 viewBox="0.00 0.00 1738.00 308.00" xmlns="http://www.w3.org/2000/svg" xmlns:xlink="http://www.w3.org/1999/xlink">
<g id="graph0" class="graph" transform="scale(1 1) rotate(0) translate(4 304)">
<title>jngl/all.hpp</title>
<polygon fill="#ffffff" stroke="transparent" points="-4,4 -4,-304 1734,-304 1734,4 -4,4"/>
<!-- Node0 -->
<g id="node1" class="node">
<title>Node0</title>
<g id="a_node1"><a xlink:title="Includes all JNGL headers.">
<polygon fill="#bfbfbf" stroke="#000000" points="801,-280.5 801,-299.5 890,-299.5 890,-280.5 801,-280.5"/>
<text text-anchor="middle" x="845.5" y="-287.5" font-family="'Consolas',monospace" font-size="10.00" fill="#000000">jngl/all.hpp</text>
</a>
</g>
</g>
<!-- Node1 -->
<g id="node2" class="node">
<title>Node1</title>
<g id="a_node2"><a xlink:href="App_8hpp.html" target="_top" xlink:title=" ">
<polygon fill="#ffffff" stroke="#000000" points="752,-168.5 752,-187.5 811,-187.5 811,-168.5 752,-168.5"/>
<text text-anchor="middle" x="781.5" y="-175.5" font-family="'Consolas',monospace" font-size="10.00" fill="#000000">App.hpp</text>
</a>
</g>
</g>
<!-- Node0&#45;&gt;Node1 -->
<g id="edge1" class="edge">
<title>Node0&#45;&gt;Node1</title>
<path fill="none" stroke="#191970" d="M833.0813,-280.3196C822.9335,-271.7851 808.9334,-258.4813 800.5,-244 792.1554,-229.6713 787.2701,-211.4344 784.5481,-197.7634"/>
<polygon fill="#191970" stroke="#191970" points="787.9284,-196.7782 782.742,-187.5396 781.0351,-197.996 787.9284,-196.7782"/>
</g>
<!-- Node4 -->
<g id="node5" class="node">
<title>Node4</title>
<g id="a_node5"><a xlink:href="Shader_8hpp.html" target="_top" xlink:title=" ">
<polygon fill="#ffffff" stroke="#000000" points="158,-112.5 158,-131.5 235,-131.5 235,-112.5 158,-112.5"/>
<text text-anchor="middle" x="196.5" y="-119.5" font-family="'Consolas',monospace" font-size="10.00" fill="#000000">Shader.hpp</text>
</a>
</g>
</g>
<!-- Node0&#45;&gt;Node4 -->
<g id="edge4" class="edge">
<title>Node0&#45;&gt;Node4</title>
<path fill="none" stroke="#191970" d="M800.9776,-287.5873C693.603,-281.5121 422.7633,-264.5889 334.5,-244 267.2226,-228.3064 228.5713,-244.9735 189.5,-188 180.2564,-174.521 183.4051,-155.7167 188.0514,-141.6264"/>
<polygon fill="#191970" stroke="#191970" points="191.4522,-142.5283 191.7159,-131.9367 184.9048,-140.0521 191.4522,-142.5283"/>
</g>
<!-- Node5 -->
<g id="node6" class="node">
<title>Node5</title>
<g id="a_node6"><a xlink:href="ShaderProgram_8hpp.html" target="_top" xlink:title=" ">
<polygon fill="#ffffff" stroke="#000000" points="901,-112.5 901,-131.5 1020,-131.5 1020,-112.5 901,-112.5"/>
<text text-anchor="middle" x="960.5" y="-119.5" font-family="'Consolas',monospace" font-size="10.00" fill="#000000">ShaderProgram.hpp</text>
</a>
</g>
</g>
<!-- Node0&#45;&gt;Node5 -->
<g id="edge6" class="edge">
<title>Node0&#45;&gt;Node5</title>
<path fill="none" stroke="#191970" d="M862.4464,-280.4911C888.0463,-265.0045 935.5001,-231.6293 953.5,-188 959.5424,-173.3539 961.1134,-155.4008 961.273,-141.9184"/>
<polygon fill="#191970" stroke="#191970" points="964.7715,-141.7692 961.1424,-131.8153 957.7721,-141.8598 964.7715,-141.7692"/>
</g>
<!-- Node8 -->
<g id="node9" class="node">
<title>Node8</title>
<g id="a_node9"><a xlink:href="Vertex_8hpp.html" target="_top" xlink:title=" ">
<polygon fill="#ffffff" stroke="#000000" points="344,-224.5 344,-243.5 421,-243.5 421,-224.5 344,-224.5"/>
<text text-anchor="middle" x="382.5" y="-231.5" font-family="'Consolas',monospace" font-size="10.00" fill="#000000">Vertex.hpp</text>
</a>
</g>
</g>
<!-- Node0&#45;&gt;Node8 -->
<g id="edge10" class="edge">
<title>Node0&#45;&gt;Node8</title>
<path fill="none" stroke="#191970" d="M800.7651,-286.0852C725.2504,-279.23 567.7795,-263.8713 435.5,-244 434.0531,-243.7827 432.5855,-243.5546 431.1049,-243.3179"/>
<polygon fill="#191970" stroke="#191970" points="431.6731,-239.8644 421.2305,-241.6535 430.5096,-246.767 431.6731,-239.8644"/>
</g>
<!-- Node9 -->
<g id="node10" class="node">
<title>Node9</title>
<g id="a_node10"><a xlink:href="Color_8hpp.html" target="_top" xlink:title=" ">
<polygon fill="#ffffff" stroke="#000000" points="505,-112.5 505,-131.5 576,-131.5 576,-112.5 505,-112.5"/>
<text text-anchor="middle" x="540.5" y="-119.5" font-family="'Consolas',monospace" font-size="10.00" fill="#000000">Color.hpp</text>
</a>
</g>
</g>
<!-- Node0&#45;&gt;Node9 -->
<g id="edge11" class="edge">
<title>Node0&#45;&gt;Node9</title>
<path fill="none" stroke="#191970" d="M800.7265,-282.0746C768.0267,-275.0944 723.3328,-263.0216 687.5,-244 633.8744,-215.5331 581.7743,-165.3941 556.4394,-139.1345"/>
<polygon fill="#191970" stroke="#191970" points="558.8924,-136.635 549.4641,-131.802 553.8207,-141.4597 558.8924,-136.635"/>
</g>
<!-- Node11 -->
<g id="node12" class="node">
<title>Node11</title>
<g id="a_node12"><a xlink:href="Controller_8hpp.html" target="_top" xlink:title=" ">
<polygon fill="#ffffff" stroke="#000000" points="53,-224.5 53,-243.5 154,-243.5 154,-224.5 53,-224.5"/>
<text text-anchor="middle" x="103.5" y="-231.5" font-family="'Consolas',monospace" font-size="10.00" fill="#000000">Controller.hpp</text>
</a>
</g>
</g>
<!-- Node0&#45;&gt;Node11 -->
<g id="edge13" class="edge">
<title>Node0&#45;&gt;Node11</title>
<path fill="none" stroke="#191970" d="M800.6252,-288.2682C691.9119,-283.7861 405.9011,-270.2791 168.5,-244 167.1914,-243.8551 165.8688,-243.7031 164.5362,-243.5447"/>
<polygon fill="#191970" stroke="#191970" points="164.5499,-240.0181 154.187,-242.2228 163.663,-246.9617 164.5499,-240.0181"/>
</g>
<!-- Node12 -->
<g id="node13" class="node">
<title>Node12</title>
<g id="a_node13"><a xlink:href="input_8hpp.html" target="_top" xlink:title=" ">
<polygon fill="#ffffff" stroke="#000000" points="0,-168.5 0,-187.5 71,-187.5 71,-168.5 0,-168.5"/>
<text text-anchor="middle" x="35.5" y="-175.5" font-family="'Consolas',monospace" font-size="10.00" fill="#000000">input.hpp</text>
</a>
</g>
</g>
<!-- Node0&#45;&gt;Node12 -->
<g id="edge38" class="edge">
<title>Node0&#45;&gt;Node12</title>
<path fill="none" stroke="#191970" d="M800.9849,-289.0127C636.5312,-285.165 71.2898,-270.0833 43.5,-244 31.2944,-232.5439 30.3508,-212.8852 31.8261,-197.9948"/>
<polygon fill="#191970" stroke="#191970" points="35.3398,-198.1449 33.2794,-187.7523 28.4092,-197.1615 35.3398,-198.1449"/>
</g>
<!-- Node18 -->
<g id="node19" class="node">
<title>Node18</title>
<g id="a_node19"><a xlink:href="debug_8hpp_source.html" target="_top" xlink:title=" ">
<polygon fill="#ffffff" stroke="#000000" points="1162,-224.5 1162,-243.5 1233,-243.5 1233,-224.5 1162,-224.5"/>
<text text-anchor="middle" x="1197.5" y="-231.5" font-family="'Consolas',monospace" font-size="10.00" fill="#000000">debug.hpp</text>
</a>
</g>
</g>
<!-- Node0&#45;&gt;Node18 -->
<g id="edge23" class="edge">
<title>Node0&#45;&gt;Node18</title>
<path fill="none" stroke="#191970" d="M890.1232,-283.8611C949.147,-275.5907 1056.3553,-260.0471 1147.5,-244 1148.944,-243.7458 1150.4104,-243.4826 1151.8903,-243.2126"/>
<polygon fill="#191970" stroke="#191970" points="1152.5776,-246.6448 1161.7585,-241.357 1151.2839,-239.7654 1152.5776,-246.6448"/>
</g>
<!-- Node19 -->
<g id="node20" class="node">
<title>Node19</title>
<g id="a_node20"><a xlink:href="message_8hpp.html" target="_top" xlink:title=" ">
<polygon fill="#ffffff" stroke="#000000" points="1239,-168.5 1239,-187.5 1322,-187.5 1322,-168.5 1239,-168.5"/>
<text text-anchor="middle" x="1280.5" y="-175.5" font-family="'Consolas',monospace" font-size="10.00" fill="#000000">message.hpp</text>
</a>
</g>
</g>
<!-- Node0&#45;&gt;Node19 -->
<g id="edge53" class="edge">
<title>Node0&#45;&gt;Node19</title>
<path fill="none" stroke="#191970" d="M890.0193,-287.0966C987.5103,-280.4178 1213.5168,-263.0666 1242.5,-244 1259.0137,-233.1365 1269.1994,-212.4527 1274.8161,-197.1233"/>
<polygon fill="#191970" stroke="#191970" points="1278.1644,-198.1461 1277.9963,-187.5526 1271.5215,-195.9387 1278.1644,-198.1461"/>
</g>
<!-- Node21 -->
<g id="node22" class="node">
<title>Node21</title>
<g id="a_node22"><a xlink:href="drawable_8hpp_source.html" target="_top" xlink:title=" ">
<polygon fill="#ffffff" stroke="#000000" points="1148,-112.5 1148,-131.5 1237,-131.5 1237,-112.5 1148,-112.5"/>
<text text-anchor="middle" x="1192.5" y="-119.5" font-family="'Consolas',monospace" font-size="10.00" fill="#000000">drawable.hpp</text>
</a>
</g>
</g>
<!-- Node0&#45;&gt;Node21 -->
<g id="edge27" class="edge">
<title>Node0&#45;&gt;Node21</title>
<path fill="none" stroke="#191970" d="M890.2035,-281.7128C924.4218,-274.4065 972.2512,-262.0814 1011.5,-244 1075.0507,-214.723 1141.0863,-164.2132 1172.963,-138.3291"/>
<polygon fill="#191970" stroke="#191970" points="1175.5073,-140.7688 1181.0175,-131.7195 1171.0668,-135.3574 1175.5073,-140.7688"/>
</g>
<!-- Node22 -->
<g id="node23" class="node">
<title>Node22</title>
<g id="a_node23"><a xlink:href="font_8hpp.html" target="_top" xlink:title=" ">
<polygon fill="#ffffff" stroke="#000000" points="508,-168.5 508,-187.5 573,-187.5 573,-168.5 508,-168.5"/>
<text text-anchor="middle" x="540.5" y="-175.5" font-family="'Consolas',monospace" font-size="10.00" fill="#000000">font.hpp</text>
</a>
</g>
</g>
<!-- Node0&#45;&gt;Node22 -->
<g id="edge29" class="edge">
<title>Node0&#45;&gt;Node22</title>
<path fill="none" stroke="#191970" d="M800.7353,-286.1125C736.5432,-279.8583 622.2459,-265.9883 587.5,-244 569.7537,-232.7696 556.7211,-212.1908 548.94,-196.9869"/>
<polygon fill="#191970" stroke="#191970" points="552.0721,-195.4238 544.5882,-187.9243 545.7619,-198.4539 552.0721,-195.4238"/>
</g>
<!-- Node23 -->
<g id="node24" class="node">
<title>Node23</title>
<g id="a_node24"><a xlink:href="framebuffer_8hpp_source.html" target="_top" xlink:title=" ">
<polygon fill="#ffffff" stroke="#000000" points="199,-168.5 199,-187.5 300,-187.5 300,-168.5 199,-168.5"/>
<text text-anchor="middle" x="249.5" y="-175.5" font-family="'Consolas',monospace" font-size="10.00" fill="#000000">framebuffer.hpp</text>
</a>
</g>
</g>
<!-- Node0&#45;&gt;Node23 -->
<g id="edge34" class="edge">
<title>Node0&#45;&gt;Node23</title>
<path fill="none" stroke="#191970" d="M800.9447,-286.9354C714.0623,-280.5831 525.1237,-264.8177 463.5,-244 446.8905,-238.389 445.7087,-230.6809 429.5,-224 391.2308,-208.2262 346.0963,-196.7074 310.5966,-189.1414"/>
<polygon fill="#191970" stroke="#191970" points="310.8846,-185.6265 300.3813,-187.0161 309.4588,-192.4797 310.8846,-185.6265"/>
</g>
<!-- Node24 -->
<g id="node25" class="node">
<title>Node24</title>
<g id="a_node25"><a xlink:href="job_8hpp.html" target="_top" xlink:title=" ">
<polygon fill="#ffffff" stroke="#000000" points="633,-112.5 633,-131.5 692,-131.5 692,-112.5 633,-112.5"/>
<text text-anchor="middle" x="662.5" y="-119.5" font-family="'Consolas',monospace" font-size="10.00" fill="#000000">job.hpp</text>
</a>
</g>
</g>
<!-- Node0&#45;&gt;Node24 -->
<g id="edge39" class="edge">
<title>Node0&#45;&gt;Node24</title>
<path fill="none" stroke="#191970" d="M833.0046,-280.4425C821.2754,-271.3488 803.3597,-257.1421 788.5,-244 747.9261,-208.1158 702.8996,-163.1928 679.2003,-139.1201"/>
<polygon fill="#191970" stroke="#191970" points="681.5195,-136.4863 672.018,-131.7988 676.5225,-141.3884 681.5195,-136.4863"/>
</g>
<!-- Node25 -->
<g id="node26" class="node">
<title>Node25</title>
<g id="a_node26"><a xlink:href="main_8hpp_source.html" target="_top" xlink:title=" ">
<polygon fill="#ffffff" stroke="#000000" points="1439,-224.5 1439,-243.5 1504,-243.5 1504,-224.5 1439,-224.5"/>
<text text-anchor="middle" x="1471.5" y="-231.5" font-family="'Consolas',monospace" font-size="10.00" fill="#000000">main.hpp</text>
</a>
</g>
</g>
<!-- Node0&#45;&gt;Node25 -->
<g id="edge42" class="edge">
<title>Node0&#45;&gt;Node25</title>
<path fill="none" stroke="#191970" d="M890.2771,-287.7997C986.5122,-282.7595 1220.0985,-268.8561 1414.5,-244 1419.0516,-243.418 1423.7933,-242.7254 1428.5125,-241.9802"/>
<polygon fill="#191970" stroke="#191970" points="1429.4322,-245.3756 1438.7251,-240.2872 1428.2873,-238.4699 1429.4322,-245.3756"/>
</g>
<!-- Node26 -->
<g id="node27" class="node">
<title>Node26</title>
<g id="a_node27"><a xlink:href="other_8hpp.html" target="_top" xlink:title=" ">
<polygon fill="#ffffff" stroke="#000000" points="1340,-168.5 1340,-187.5 1411,-187.5 1411,-168.5 1340,-168.5"/>
<text text-anchor="middle" x="1375.5" y="-175.5" font-family="'Consolas',monospace" font-size="10.00" fill="#000000">other.hpp</text>
</a>
</g>
</g>
<!-- Node0&#45;&gt;Node26 -->
<g id="edge54" class="edge">
<title>Node0&#45;&gt;Node26</title>
<path fill="none" stroke="#191970" d="M890.1633,-287.5334C983.6073,-281.9793 1196.7636,-267.1418 1265.5,-244 1299.4821,-232.5591 1334.2286,-209.4042 1355.3374,-193.7944"/>
<polygon fill="#191970" stroke="#191970" points="1357.6377,-196.4432 1363.507,-187.6226 1353.4182,-190.8578 1357.6377,-196.4432"/>
</g>
<!-- Node27 -->
<g id="node28" class="node">
<title>Node27</title>
<g id="a_node28"><a xlink:href="window_8hpp.html" target="_top" xlink:title="Functions related to the main window.">
<polygon fill="#ffffff" stroke="#000000" points="1518,-168.5 1518,-187.5 1595,-187.5 1595,-168.5 1518,-168.5"/>
<text text-anchor="middle" x="1556.5" y="-175.5" font-family="'Consolas',monospace" font-size="10.00" fill="#000000">window.hpp</text>
</a>
</g>
</g>
<!-- Node0&#45;&gt;Node27 -->
<g id="edge84" class="edge">
<title>Node0&#45;&gt;Node27</title>
<path fill="none" stroke="#191970" d="M890.196,-289.2157C1031.1219,-286.4279 1459.9987,-275.4232 1513.5,-244 1531.1293,-233.6457 1542.8327,-212.8764 1549.5193,-197.3877"/>
<polygon fill="#191970" stroke="#191970" points="1552.9275,-198.2874 1553.3581,-187.7013 1546.4199,-195.7083 1552.9275,-198.2874"/>
</g>
<!-- Node28 -->
<g id="node29" class="node">
<title>Node28</title>
<g id="a_node29"><a xlink:href="matrix_8hpp_source.html" target="_top" xlink:title=" ">
<polygon fill="#ffffff" stroke="#000000" points="1569,-224.5 1569,-243.5 1646,-243.5 1646,-224.5 1569,-224.5"/>
<text text-anchor="middle" x="1607.5" y="-231.5" font-family="'Consolas',monospace" font-size="10.00" fill="#000000">matrix.hpp</text>
</a>
</g>
</g>
<!-- Node0&#45;&gt;Node28 -->
<g id="edge51" class="edge">
<title>Node0&#45;&gt;Node28</title>
<path fill="none" stroke="#191970" d="M890.2651,-288.8174C1002.1312,-285.4861 1302.7568,-274.217 1551.5,-244 1553.8575,-243.7136 1556.2663,-243.3928 1558.6958,-243.0465"/>
<polygon fill="#191970" stroke="#191970" points="1559.3718,-246.4838 1568.7228,-241.5029 1558.3066,-239.5653 1559.3718,-246.4838"/>
</g>
<!-- Node29 -->
<g id="node30" class="node">
<title>Node29</title>
<g id="a_node30"><a xlink:href="screen_8hpp.html" target="_top" xlink:title=" ">
<polygon fill="#ffffff" stroke="#000000" points="318,-168.5 318,-187.5 395,-187.5 395,-168.5 318,-168.5"/>
<text text-anchor="middle" x="356.5" y="-175.5" font-family="'Consolas',monospace" font-size="10.00" fill="#000000">screen.hpp</text>
</a>
</g>
</g>
<!-- Node0&#45;&gt;Node29 -->
<g id="edge55" class="edge">
<title>Node0&#45;&gt;Node29</title>
<path fill="none" stroke="#191970" d="M800.9047,-287.2285C737.3049,-282.4914 617.3065,-270.6358 518.5,-244 492.8872,-237.0954 426.7917,-208.8797 387.3917,-191.6538"/>
<polygon fill="#191970" stroke="#191970" points="388.5546,-188.342 377.9909,-187.5307 385.743,-194.7526 388.5546,-188.342"/>
</g>
<!-- Node30 -->
<g id="node31" class="node">
<title>Node30</title>
<g id="a_node31"><a xlink:href="shapes_8hpp.html" target="_top" xlink:title=" ">
<polygon fill="#ffffff" stroke="#000000" points="413,-168.5 413,-187.5 490,-187.5 490,-168.5 413,-168.5"/>
<text text-anchor="middle" x="451.5" y="-175.5" font-family="'Consolas',monospace" font-size="10.00" fill="#000000">shapes.hpp</text>
</a>
</g>
</g>
<!-- Node0&#45;&gt;Node30 -->
<g id="edge58" class="edge">
<title>Node0&#45;&gt;Node30</title>
<path fill="none" stroke="#191970" d="M800.7489,-287.8013C744.0321,-283.8747 643.9662,-273.1083 563.5,-244 529.3642,-231.6515 493.9116,-208.767 472.2715,-193.4601"/>
<polygon fill="#191970" stroke="#191970" points="474.3129,-190.6171 464.1531,-187.6121 470.2215,-196.2969 474.3129,-190.6171"/>
</g>
<!-- Node31 -->
<g id="node32" class="node">
<title>Node31</title>
<g id="a_node32"><a xlink:href="sound_8hpp_source.html" target="_top" xlink:title=" ">
<polygon fill="#ffffff" stroke="#000000" points="1429,-168.5 1429,-187.5 1500,-187.5 1500,-168.5 1429,-168.5"/>
<text text-anchor="middle" x="1464.5" y="-175.5" font-family="'Consolas',monospace" font-size="10.00" fill="#000000">sound.hpp</text>
</a>
</g>
</g>
<!-- Node0&#45;&gt;Node31 -->
<g id="edge61" class="edge">
<title>Node0&#45;&gt;Node31</title>
<path fill="none" stroke="#191970" d="M890.1245,-287.071C988.7399,-280.3399 1222.5617,-262.8886 1299.5,-244 1349.4629,-231.734 1404.3435,-207.4449 1436.5371,-191.9998"/>
<polygon fill="#191970" stroke="#191970" points="1438.3047,-195.0323 1445.7693,-187.5136 1435.2452,-188.7363 1438.3047,-195.0323"/>
</g>
<!-- Node32 -->
<g id="node33" class="node">
<title>Node32</title>
<g id="a_node33"><a xlink:href="sprite_8hpp_source.html" target="_top" xlink:title=" ">
<polygon fill="#ffffff" stroke="#000000" points="868,-168.5 868,-187.5 945,-187.5 945,-168.5 868,-168.5"/>
<text text-anchor="middle" x="906.5" y="-175.5" font-family="'Consolas',monospace" font-size="10.00" fill="#000000">sprite.hpp</text>
</a>
</g>
</g>
<!-- Node0&#45;&gt;Node32 -->
<g id="edge64" class="edge">
<title>Node0&#45;&gt;Node32</title>
<path fill="none" stroke="#191970" d="M857.7393,-280.3223C867.7205,-271.7895 881.4417,-258.4865 889.5,-244 897.4987,-229.6206 901.8238,-211.3881 904.1061,-197.7316"/>
<polygon fill="#191970" stroke="#191970" points="907.6152,-197.9187 905.5786,-187.5215 900.6869,-196.9195 907.6152,-197.9187"/>
</g>
<!-- Node33 -->
<g id="node34" class="node">
<title>Node33</title>
<g id="a_node34"><a xlink:href="text_8hpp.html" target="_top" xlink:title=" ">
<polygon fill="#ffffff" stroke="#000000" points="1002,-168.5 1002,-187.5 1067,-187.5 1067,-168.5 1002,-168.5"/>
<text text-anchor="middle" x="1034.5" y="-175.5" font-family="'Consolas',monospace" font-size="10.00" fill="#000000">text.hpp</text>
</a>
</g>
</g>
<!-- Node0&#45;&gt;Node33 -->
<g id="edge72" class="edge">
<title>Node0&#45;&gt;Node33</title>
<path fill="none" stroke="#191970" d="M890.1385,-283.0984C919.9315,-276.7747 958.7638,-265.0679 987.5,-244 1004.2757,-231.7009 1017.3531,-211.5888 1025.4073,-196.7936"/>
<polygon fill="#191970" stroke="#191970" points="1028.6951,-198.054 1030.1645,-187.5616 1022.4726,-194.8476 1028.6951,-198.054"/>
</g>
<!-- Node34 -->
<g id="node35" class="node">
<title>Node34</title>
<g id="a_node35"><a xlink:href="time_8hpp_source.html" target="_top" xlink:title=" ">
<polygon fill="#ffffff" stroke="#000000" points="1665,-224.5 1665,-243.5 1730,-243.5 1730,-224.5 1665,-224.5"/>
<text text-anchor="middle" x="1697.5" y="-231.5" font-family="'Consolas',monospace" font-size="10.00" fill="#000000">time.hpp</text>
</a>
</g>
</g>
<!-- Node0&#45;&gt;Node34 -->
<g id="edge78" class="edge">
<title>Node0&#45;&gt;Node34</title>
<path fill="none" stroke="#191970" d="M890.1583,-288.5068C1034.2613,-283.5282 1486.7692,-266.6023 1654.4401,-243.8536"/>
<polygon fill="#191970" stroke="#191970" points="1655.1807,-247.2838 1664.5917,-242.4171 1654.1999,-240.3528 1655.1807,-247.2838"/>
</g>
<!-- Node35 -->
<g id="node36" class="node">
<title>Node35</title>
<g id="a_node36"><a xlink:href="Video_8hpp.html" target="_top" xlink:title=" ">
<polygon fill="#ffffff" stroke="#000000" points="810,-224.5 810,-243.5 881,-243.5 881,-224.5 810,-224.5"/>
<text text-anchor="middle" x="845.5" y="-231.5" font-family="'Consolas',monospace" font-size="10.00" fill="#000000">Video.hpp</text>
</a>
</g>
</g>
<!-- Node0&#45;&gt;Node35 -->
<g id="edge80" class="edge">
<title>Node0&#45;&gt;Node35</title>
<path fill="none" stroke="#191970" d="M845.5,-280.2455C845.5,-272.9382 845.5,-262.6944 845.5,-253.7046"/>
<polygon fill="#191970" stroke="#191970" points="849.0001,-253.6426 845.5,-243.6427 842.0001,-253.6427 849.0001,-253.6426"/>
</g>
<!-- Node36 -->
<g id="node37" class="node">
<title>Node36</title>
<g id="a_node37"><a xlink:href="work_8hpp.html" target="_top" xlink:title=" ">
<polygon fill="#ffffff" stroke="#000000" points="630,-168.5 630,-187.5 695,-187.5 695,-168.5 630,-168.5"/>
<text text-anchor="middle" x="662.5" y="-175.5" font-family="'Consolas',monospace" font-size="10.00" fill="#000000">work.hpp</text>
</a>
</g>
</g>
<!-- Node0&#45;&gt;Node36 -->
<g id="edge85" class="edge">
<title>Node0&#45;&gt;Node36</title>
<path fill="none" stroke="#191970" d="M800.8589,-282.2627C772.5827,-275.6777 736.4083,-263.9955 709.5,-244 692.8038,-231.5931 679.7141,-211.4977 671.6353,-196.7359"/>
<polygon fill="#191970" stroke="#191970" points="674.571,-194.7942 666.8601,-187.5283 668.357,-198.0169 674.571,-194.7942"/>
</g>
<!-- Node2 -->
<g id="node3" class="node">
<title>Node2</title>
<g id="a_node3"><a doxygen="/w/doc/cppreference-doxygen-web.tag.xml:http://en.cppreference.com/w/" xlink:href="http://en.cppreference.com/w/cpp/header/memory.html" xlink:title=" ">
<polygon fill="#ffffff" stroke="#000000" points="636,-56.5 636,-75.5 689,-75.5 689,-56.5 636,-56.5"/>
<text text-anchor="middle" x="662.5" y="-63.5" font-family="'Consolas',monospace" font-size="10.00" fill="#000000">memory</text>
</a>
</g>
</g>
<!-- Node1&#45;&gt;Node2 -->
<g id="edge2" class="edge">
<title>Node1&#45;&gt;Node2</title>
<path fill="none" stroke="#191970" d="M771.3541,-168.4509C751.0672,-149.3574 705.2866,-106.2697 680.038,-82.5063"/>
<polygon fill="#191970" stroke="#191970" points="682.301,-79.8299 672.6202,-75.5249 677.5034,-84.9273 682.301,-79.8299"/>
</g>
<!-- Node3 -->
<g id="node4" class="node">
<title>Node3</title>
<g id="a_node4"><a doxygen="/w/doc/cppreference-doxygen-web.tag.xml:http://en.cppreference.com/w/" xlink:href="http://en.cppreference.com/w/cpp/header/string.html" xlink:title=" ">
<polygon fill="#ffffff" stroke="#000000" points="1294,-112.5 1294,-131.5 1347,-131.5 1347,-112.5 1294,-112.5"/>
<text text-anchor="middle" x="1320.5" y="-119.5" font-family="'Consolas',monospace" font-size="10.00" fill="#000000">string</text>
</a>
</g>
</g>
<!-- Node1&#45;&gt;Node3 -->
<g id="edge3" class="edge">
<title>Node1&#45;&gt;Node3</title>
<path fill="none" stroke="#191970" d="M811.0868,-173.9C825.3941,-171.9832 842.8248,-169.7445 858.5,-168 1030.6225,-148.8447 1074.4276,-151.6006 1246.5,-132 1258.6541,-130.6155 1271.9021,-128.8931 1283.7862,-127.2699"/>
<polygon fill="#191970" stroke="#191970" points="1284.3921,-130.7195 1293.817,-125.88 1283.4312,-123.7857 1284.3921,-130.7195"/>
</g>
<!-- Node4&#45;&gt;Node2 -->
<g id="edge5" class="edge">
<title>Node4&#45;&gt;Node2</title>
<path fill="none" stroke="#191970" d="M235.1541,-115.4806C242.8774,-114.2584 250.939,-113.0396 258.5,-112 393.5342,-93.4328 554.702,-76.7052 625.7609,-69.6048"/>
<polygon fill="#191970" stroke="#191970" points="626.3718,-73.0614 635.9762,-68.5885 625.6788,-66.0958 626.3718,-73.0614"/>
</g>
<!-- Node5&#45;&gt;Node2 -->
<g id="edge9" class="edge">
<title>Node5&#45;&gt;Node2</title>
<path fill="none" stroke="#191970" d="M909.6106,-112.4369C849.766,-101.1909 751.9101,-82.8019 699.0826,-72.8746"/>
<polygon fill="#191970" stroke="#191970" points="699.6165,-69.4137 689.1421,-71.0066 698.3236,-76.2933 699.6165,-69.4137"/>
</g>
<!-- Node6 -->
<g id="node7" class="node">
<title>Node6</title>
<g id="a_node7"><a xlink:href="Finally_8hpp.html" target="_top" xlink:title=" ">
<polygon fill="#ffffff" stroke="#000000" points="920,-56.5 920,-75.5 1003,-75.5 1003,-56.5 920,-56.5"/>
<text text-anchor="middle" x="961.5" y="-63.5" font-family="'Consolas',monospace" font-size="10.00" fill="#000000">Finally.hpp</text>
</a>
</g>
</g>
<!-- Node5&#45;&gt;Node6 -->
<g id="edge7" class="edge">
<title>Node5&#45;&gt;Node6</title>
<path fill="none" stroke="#191970" d="M960.6742,-112.2455C960.8047,-104.9382 960.9876,-94.6944 961.1481,-85.7046"/>
<polygon fill="#191970" stroke="#191970" points="964.6486,-85.7036 961.3278,-75.6427 957.6497,-85.5786 964.6486,-85.7036"/>
</g>
<!-- Node7 -->
<g id="node8" class="node">
<title>Node7</title>
<g id="a_node8"><a doxygen="/w/doc/cppreference-doxygen-web.tag.xml:http://en.cppreference.com/w/" xlink:href="http://en.cppreference.com/w/cpp/header/functional.html" xlink:title=" ">
<polygon fill="#ffffff" stroke="#000000" points="427,-.5 427,-19.5 504,-19.5 504,-.5 427,-.5"/>
<text text-anchor="middle" x="465.5" y="-7.5" font-family="'Consolas',monospace" font-size="10.00" fill="#000000">functional</text>
</a>
</g>
</g>
<!-- Node6&#45;&gt;Node7 -->
<g id="edge8" class="edge">
<title>Node6&#45;&gt;Node7</title>
<path fill="none" stroke="#191970" d="M919.8048,-57.505C916.6618,-56.9626 913.5341,-56.4533 910.5,-56 767.0368,-34.5651 596.0562,-19.9229 514.0635,-13.5706"/>
<polygon fill="#191970" stroke="#191970" points="514.2791,-10.0769 504.0405,-12.8011 513.7432,-17.0564 514.2791,-10.0769"/>
</g>
<!-- Node10 -->
<g id="node11" class="node">
<title>Node10</title>
<g id="a_node11"><a xlink:href="dll_8hpp_source.html" target="_top" xlink:title=" ">
<polygon fill="#ffffff" stroke="#000000" points="843,-56.5 843,-75.5 902,-75.5 902,-56.5 843,-56.5"/>
<text text-anchor="middle" x="872.5" y="-63.5" font-family="'Consolas',monospace" font-size="10.00" fill="#000000">dll.hpp</text>
</a>
</g>
</g>
<!-- Node9&#45;&gt;Node10 -->
<g id="edge12" class="edge">
<title>Node9&#45;&gt;Node10</title>
<path fill="none" stroke="#191970" d="M576.0298,-116.007C638.4321,-105.4813 767.2852,-83.7471 832.6303,-72.725"/>
<polygon fill="#191970" stroke="#191970" points="833.2741,-76.1659 842.5526,-71.0514 832.1098,-69.2634 833.2741,-76.1659"/>
</g>
<!-- Node11&#45;&gt;Node12 -->
<g id="edge14" class="edge">
<title>Node11&#45;&gt;Node12</title>
<path fill="none" stroke="#191970" d="M91.6553,-224.2455C81.612,-215.9746 67.0005,-203.9416 55.1996,-194.2232"/>
<polygon fill="#191970" stroke="#191970" points="57.1533,-191.298 47.209,-187.6427 52.7033,-196.7015 57.1533,-191.298"/>
</g>
<!-- Node17 -->
<g id="node18" class="node">
<title>Node17</title>
<g id="a_node18"><a doxygen="/w/doc/cppreference-doxygen-web.tag.xml:http://en.cppreference.com/w/" xlink:href="http://en.cppreference.com/w/cpp/header/chrono.html" xlink:title=" ">
<polygon fill="#ffffff" stroke="#000000" points="89,-168.5 89,-187.5 142,-187.5 142,-168.5 89,-168.5"/>
<text text-anchor="middle" x="115.5" y="-175.5" font-family="'Consolas',monospace" font-size="10.00" fill="#000000">chrono</text>
</a>
</g>
</g>
<!-- Node11&#45;&gt;Node17 -->
<g id="edge22" class="edge">
<title>Node11&#45;&gt;Node17</title>
<path fill="none" stroke="#191970" d="M105.5902,-224.2455C107.1561,-216.9382 109.3512,-206.6944 111.2776,-197.7046"/>
<polygon fill="#191970" stroke="#191970" points="114.7607,-198.1541 113.4337,-187.6427 107.916,-196.6873 114.7607,-198.1541"/>
</g>
<!-- Node12&#45;&gt;Node2 -->
<g id="edge21" class="edge">
<title>Node12&#45;&gt;Node2</title>
<path fill="none" stroke="#191970" d="M47.8371,-168.2907C67.7229,-153.2452 108.6758,-124.7103 148.5,-112 193.6722,-97.5829 515.6348,-75.5531 625.7102,-68.3605"/>
<polygon fill="#191970" stroke="#191970" points="626.2321,-71.834 635.9838,-67.6921 625.7776,-64.8488 626.2321,-71.834"/>
</g>
<!-- Node12&#45;&gt;Node7 -->
<g id="edge19" class="edge">
<title>Node12&#45;&gt;Node7</title>
<path fill="none" stroke="#191970" d="M42.648,-168.4381C53.8517,-154.109 76.9271,-127.1359 102.5,-112 204.5169,-51.6189 343.8501,-25.6227 416.6542,-15.5792"/>
<polygon fill="#191970" stroke="#191970" points="417.452,-19.0039 426.9007,-14.211 416.5254,-12.0655 417.452,-19.0039"/>
</g>
<!-- Node13 -->
<g id="node14" class="node">
<title>Node13</title>
<g id="a_node14"><a xlink:href="Vec2_8hpp.html" target="_top" xlink:title=" ">
<polygon fill="#ffffff" stroke="#000000" points="345,-112.5 345,-131.5 410,-131.5 410,-112.5 345,-112.5"/>
<text text-anchor="middle" x="377.5" y="-119.5" font-family="'Consolas',monospace" font-size="10.00" fill="#000000">Vec2.hpp</text>
</a>
</g>
</g>
<!-- Node12&#45;&gt;Node13 -->
<g id="edge15" class="edge">
<title>Node12&#45;&gt;Node13</title>
<path fill="none" stroke="#191970" d="M71.4752,-169.6072C74.1861,-169.0412 76.8836,-168.4986 79.5,-168 169.7852,-150.7941 276.3977,-135.5522 334.4754,-127.6733"/>
<polygon fill="#191970" stroke="#191970" points="335.2976,-131.0942 344.74,-126.289 334.362,-124.157 335.2976,-131.0942"/>
</g>
<!-- Node16 -->
<g id="node17" class="node">
<title>Node16</title>
<g id="a_node17"><a doxygen="/w/doc/cppreference-doxygen-web.tag.xml:http://en.cppreference.com/w/" xlink:href="http://en.cppreference.com/w/cpp/header/vector.html" xlink:title=" ">
<polygon fill="#ffffff" stroke="#000000" points="1038,-112.5 1038,-131.5 1091,-131.5 1091,-112.5 1038,-112.5"/>
<text text-anchor="middle" x="1064.5" y="-119.5" font-family="'Consolas',monospace" font-size="10.00" fill="#000000">vector</text>
</a>
</g>
</g>
<!-- Node12&#45;&gt;Node16 -->
<g id="edge20" class="edge">
<title>Node12&#45;&gt;Node16</title>
<path fill="none" stroke="#191970" d="M71.4202,-169.2654C74.1438,-168.7784 76.8593,-168.3471 79.5,-168 494.712,-113.4221 609.6506,-195.621 1027.9768,-131.6667"/>
<polygon fill="#191970" stroke="#191970" points="1028.5682,-135.1169 1037.9152,-130.1286 1027.4976,-128.1993 1028.5682,-135.1169"/>
</g>
<!-- Node13&#45;&gt;Node10 -->
<g id="edge16" class="edge">
<title>Node13&#45;&gt;Node10</title>
<path fill="none" stroke="#191970" d="M410.032,-114.6056C414.8669,-113.6442 419.8026,-112.7387 424.5,-112 574.0643,-88.4799 753.6923,-74.2222 832.3277,-68.6718"/>
<polygon fill="#191970" stroke="#191970" points="833.0071,-72.133 842.7396,-67.9463 832.5205,-65.15 833.0071,-72.133"/>
</g>
<!-- Node14 -->
<g id="node15" class="node">
<title>Node14</title>
<g id="a_node15"><a xlink:title=" ">
<polygon fill="#ffffff" stroke="#bfbfbf" points="370,-56.5 370,-75.5 489,-75.5 489,-56.5 370,-56.5"/>
<text text-anchor="middle" x="429.5" y="-63.5" font-family="'Consolas',monospace" font-size="10.00" fill="#000000">boost/version.hpp</text>
</a>
</g>
</g>
<!-- Node13&#45;&gt;Node14 -->
<g id="edge17" class="edge">
<title>Node13&#45;&gt;Node14</title>
<path fill="none" stroke="#191970" d="M386.5577,-112.2455C394.0142,-104.2155 404.7634,-92.6394 413.6417,-83.0781"/>
<polygon fill="#191970" stroke="#191970" points="416.3063,-85.3522 420.5461,-75.6427 411.1768,-80.589 416.3063,-85.3522"/>
</g>
<!-- Node15 -->
<g id="node16" class="node">
<title>Node15</title>
<g id="a_node16"><a doxygen="/w/doc/cppreference-doxygen-web.tag.xml:http://en.cppreference.com/w/" xlink:href="http://en.cppreference.com/w/cpp/header/iosfwd.html" xlink:title=" ">
<polygon fill="#ffffff" stroke="#000000" points="299,-56.5 299,-75.5 352,-75.5 352,-56.5 299,-56.5"/>
<text text-anchor="middle" x="325.5" y="-63.5" font-family="'Consolas',monospace" font-size="10.00" fill="#000000">iosfwd</text>
</a>
</g>
</g>
<!-- Node13&#45;&gt;Node15 -->
<g id="edge18" class="edge">
<title>Node13&#45;&gt;Node15</title>
<path fill="none" stroke="#191970" d="M368.4423,-112.2455C360.9858,-104.2155 350.2366,-92.6394 341.3583,-83.0781"/>
<polygon fill="#191970" stroke="#191970" points="343.8232,-80.589 334.4539,-75.6427 338.6937,-85.3522 343.8232,-80.589"/>
</g>
<!-- Node18&#45;&gt;Node19 -->
<g id="edge24" class="edge">
<title>Node18&#45;&gt;Node19</title>
<path fill="none" stroke="#191970" d="M1211.9575,-224.2455C1224.5732,-215.7337 1243.0944,-203.2375 1257.7045,-193.3801"/>
<polygon fill="#191970" stroke="#191970" points="1259.8761,-196.1371 1266.2082,-187.6427 1255.9609,-190.3343 1259.8761,-196.1371"/>
</g>
<!-- Node20 -->
<g id="node21" class="node">
<title>Node20</title>
<g id="a_node21"><a doxygen="/w/doc/cppreference-doxygen-web.tag.xml:http://en.cppreference.com/w/" xlink:href="http://en.cppreference.com/w/cpp/header/sstream.html" xlink:title=" ">
<polygon fill="#ffffff" stroke="#000000" points="1162,-168.5 1162,-187.5 1221,-187.5 1221,-168.5 1162,-168.5"/>
<text text-anchor="middle" x="1191.5" y="-175.5" font-family="'Consolas',monospace" font-size="10.00" fill="#000000">sstream</text>
</a>
</g>
</g>
<!-- Node18&#45;&gt;Node20 -->
<g id="edge26" class="edge">
<title>Node18&#45;&gt;Node20</title>
<path fill="none" stroke="#191970" d="M1196.4549,-224.2455C1195.672,-216.9382 1194.5744,-206.6944 1193.6112,-197.7046"/>
<polygon fill="#191970" stroke="#191970" points="1197.0786,-197.2129 1192.5331,-187.6427 1190.1185,-197.9587 1197.0786,-197.2129"/>
</g>
<!-- Node19&#45;&gt;Node3 -->
<g id="edge25" class="edge">
<title>Node19&#45;&gt;Node3</title>
<path fill="none" stroke="#191970" d="M1287.4675,-168.2455C1293.0311,-160.4564 1300.978,-149.3308 1307.6829,-139.9439"/>
<polygon fill="#191970" stroke="#191970" points="1310.648,-141.8144 1313.6124,-131.6427 1304.9519,-137.7457 1310.648,-141.8144"/>
</g>
<!-- Node21&#45;&gt;Node10 -->
<g id="edge28" class="edge">
<title>Node21&#45;&gt;Node10</title>
<path fill="none" stroke="#191970" d="M1147.7283,-114.3737C1142.9263,-113.567 1138.1124,-112.7632 1133.5,-112 1037.6443,-96.1397 1010.451,-96.7411 912.3468,-76.2546"/>
<polygon fill="#191970" stroke="#191970" points="912.8124,-72.7758 902.3053,-74.1365 911.3676,-79.6251 912.8124,-72.7758"/>
</g>
<!-- Node22&#45;&gt;Node2 -->
<g id="edge32" class="edge">
<title>Node22&#45;&gt;Node2</title>
<path fill="none" stroke="#191970" d="M525.7297,-168.3807C507.5251,-155.3303 480.709,-131.416 495.5,-112 503.5053,-101.4915 579.1959,-83.7376 625.8861,-73.635"/>
<polygon fill="#191970" stroke="#191970" points="626.8955,-76.9983 635.9401,-71.4806 625.4287,-70.1536 626.8955,-76.9983"/>
</g>
<!-- Node22&#45;&gt;Node3 -->
<g id="edge33" class="edge">
<title>Node22&#45;&gt;Node3</title>
<path fill="none" stroke="#191970" d="M573.1418,-173.4182C587.6241,-171.515 604.8881,-169.423 620.5,-168 898.0314,-142.7027 969.0982,-158.68 1246.5,-132 1258.6766,-130.8289 1271.9304,-129.1625 1283.813,-127.5251"/>
<polygon fill="#191970" stroke="#191970" points="1284.4296,-130.9728 1293.8408,-126.1067 1283.4492,-124.0418 1284.4296,-130.9728"/>
</g>
<!-- Node22&#45;&gt;Node9 -->
<g id="edge30" class="edge">
<title>Node22&#45;&gt;Node9</title>
<path fill="none" stroke="#191970" d="M540.5,-168.2455C540.5,-160.9382 540.5,-150.6944 540.5,-141.7046"/>
<polygon fill="#191970" stroke="#191970" points="544.0001,-141.6426 540.5,-131.6427 537.0001,-141.6427 544.0001,-141.6426"/>
</g>
<!-- Node22&#45;&gt;Node13 -->
<g id="edge31" class="edge">
<title>Node22&#45;&gt;Node13</title>
<path fill="none" stroke="#191970" d="M512.4793,-168.3733C485.4922,-159.1016 444.4983,-145.0178 414.7689,-134.804"/>
<polygon fill="#191970" stroke="#191970" points="415.7497,-131.4403 405.1551,-131.5011 413.4752,-138.0605 415.7497,-131.4403"/>
</g>
<!-- Node23&#45;&gt;Node2 -->
<g id="edge37" class="edge">
<title>Node23&#45;&gt;Node2</title>
<path fill="none" stroke="#191970" d="M253.8451,-168.4143C261.1443,-153.5381 277.3728,-125.231 300.5,-112 328.3786,-96.0507 539.2474,-76.5046 625.6991,-69.0685"/>
<polygon fill="#191970" stroke="#191970" points="626.1789,-72.5403 635.8449,-68.2024 625.5834,-65.5657 626.1789,-72.5403"/>
</g>
<!-- Node23&#45;&gt;Node10 -->
<g id="edge35" class="edge">
<title>Node23&#45;&gt;Node10</title>
<path fill="none" stroke="#191970" d="M260.3772,-168.3907C279.5323,-151.6895 318.8305,-118.4657 335.5,-112 381.4996,-94.1578 716.2138,-74.4911 832.6809,-68.1174"/>
<polygon fill="#191970" stroke="#191970" points="833.14,-71.5977 842.9352,-67.5598 832.7599,-64.6081 833.14,-71.5977"/>
</g>
<!-- Node23&#45;&gt;Node13 -->
<g id="edge36" class="edge">
<title>Node23&#45;&gt;Node13</title>
<path fill="none" stroke="#191970" d="M271.504,-168.3733C292.1435,-159.3435 323.2158,-145.7494 346.3889,-135.6111"/>
<polygon fill="#191970" stroke="#191970" points="348.0245,-138.7159 355.7831,-131.5011 345.2187,-132.3028 348.0245,-138.7159"/>
</g>
<!-- Node24&#45;&gt;Node2 -->
<g id="edge40" class="edge">
<title>Node24&#45;&gt;Node2</title>
<path fill="none" stroke="#191970" d="M662.5,-112.2455C662.5,-104.9382 662.5,-94.6944 662.5,-85.7046"/>
<polygon fill="#191970" stroke="#191970" points="666.0001,-85.6426 662.5,-75.6427 659.0001,-85.6427 666.0001,-85.6426"/>
</g>
<!-- Node24&#45;&gt;Node10 -->
<g id="edge41" class="edge">
<title>Node24&#45;&gt;Node10</title>
<path fill="none" stroke="#191970" d="M692.1425,-114.0953C728.9346,-104.2841 791.8171,-87.5154 832.7614,-76.597"/>
<polygon fill="#191970" stroke="#191970" points="833.9086,-79.9134 842.6691,-73.9549 832.1049,-73.1498 833.9086,-79.9134"/>
</g>
<!-- Node25&#45;&gt;Node6 -->
<g id="edge43" class="edge">
<title>Node25&#45;&gt;Node6</title>
<path fill="none" stroke="#191970" d="M1504.008,-230.4263C1551.5803,-223.8229 1631.7162,-206.6865 1604.5,-168 1562.1141,-107.7505 1520.3992,-128.0337 1448.5,-112 1366.5954,-93.7351 1120.9234,-76.2569 1013.1422,-69.2356"/>
<polygon fill="#191970" stroke="#191970" points="1013.3576,-65.7423 1003.1524,-68.5891 1012.9055,-72.7277 1013.3576,-65.7423"/>
</g>
<!-- Node25&#45;&gt;Node26 -->
<g id="edge44" class="edge">
<title>Node25&#45;&gt;Node26</title>
<path fill="none" stroke="#191970" d="M1454.7781,-224.2455C1439.9111,-215.5731 1417.9534,-202.7645 1400.9142,-192.825"/>
<polygon fill="#191970" stroke="#191970" points="1402.4317,-189.6582 1392.0303,-187.6427 1398.9045,-195.7047 1402.4317,-189.6582"/>
</g>
<!-- Node25&#45;&gt;Node27 -->
<g id="edge48" class="edge">
<title>Node25&#45;&gt;Node27</title>
<path fill="none" stroke="#191970" d="M1486.3059,-224.2455C1499.2256,-215.7337 1518.1931,-203.2375 1533.1552,-193.3801"/>
<polygon fill="#191970" stroke="#191970" points="1535.4387,-196.067 1541.8638,-187.6427 1531.5876,-190.2216 1535.4387,-196.067"/>
</g>
<!-- Node26&#45;&gt;Node3 -->
<g id="edge45" class="edge">
<title>Node26&#45;&gt;Node3</title>
<path fill="none" stroke="#191970" d="M1365.9197,-168.2455C1357.9542,-160.1352 1346.4359,-148.4075 1336.9921,-138.7919"/>
<polygon fill="#191970" stroke="#191970" points="1339.4747,-136.3247 1329.9705,-131.6427 1334.4805,-141.2297 1339.4747,-136.3247"/>
</g>
<!-- Node26&#45;&gt;Node10 -->
<g id="edge47" class="edge">
<title>Node26&#45;&gt;Node10</title>
<path fill="none" stroke="#191970" d="M1375.866,-168.0877C1375.8149,-153.3011 1373.2986,-125.7384 1356.5,-112 1281.8597,-50.9568 1024.7491,-90.1717 912.3551,-75.8651"/>
<polygon fill="#191970" stroke="#191970" points="912.6679,-72.3732 902.2618,-74.364 911.6381,-79.297 912.6679,-72.3732"/>
</g>
<!-- Node26&#45;&gt;Node16 -->
<g id="edge46" class="edge">
<title>Node26&#45;&gt;Node16</title>
<path fill="none" stroke="#191970" d="M1339.9929,-169.7609C1337.1234,-169.1467 1334.2656,-168.5521 1331.5,-168 1249.5076,-151.6316 1152.6513,-135.8163 1101.103,-127.6777"/>
<polygon fill="#191970" stroke="#191970" points="1101.5361,-124.2028 1091.1138,-126.1072 1100.4489,-131.1179 1101.5361,-124.2028"/>
</g>
<!-- Node27&#45;&gt;Node3 -->
<g id="edge49" class="edge">
<title>Node27&#45;&gt;Node3</title>
<path fill="none" stroke="#191970" d="M1517.7937,-168.8154C1473.2431,-158.2441 1400.6263,-141.013 1357.0195,-130.6657"/>
<polygon fill="#191970" stroke="#191970" points="1357.6585,-127.2202 1347.1206,-128.3168 1356.0423,-134.031 1357.6585,-127.2202"/>
</g>
<!-- Node27&#45;&gt;Node10 -->
<g id="edge50" class="edge">
<title>Node27&#45;&gt;Node10</title>
<path fill="none" stroke="#191970" d="M1539.757,-168.2667C1512.8842,-153.1882 1458.0076,-124.6089 1407.5,-112 1195.8793,-59.1702 1130.9283,-110.7269 912.4417,-76.0484"/>
<polygon fill="#191970" stroke="#191970" points="912.6908,-72.5429 902.2578,-74.3877 911.5641,-79.4516 912.6908,-72.5429"/>
</g>
<!-- Node28&#45;&gt;Node10 -->
<g id="edge52" class="edge">
<title>Node28&#45;&gt;Node10</title>
<path fill="none" stroke="#191970" d="M1610.1054,-224.3954C1613.2625,-210.4928 1616.76,-184.6121 1604.5,-168 1560.7568,-108.7286 1520.6118,-127.0485 1448.5,-112 1217.1152,-63.7138 1148.8661,-113.2766 912.1949,-76.004"/>
<polygon fill="#191970" stroke="#191970" points="912.6845,-72.5378 902.2552,-74.4035 911.5716,-79.4488 912.6845,-72.5378"/>
</g>
<!-- Node29&#45;&gt;Node10 -->
<g id="edge56" class="edge">
<title>Node29&#45;&gt;Node10</title>
<path fill="none" stroke="#191970" d="M372.5086,-168.2832C397.6941,-153.4943 448.549,-125.6209 495.5,-112 558.2021,-93.8095 749.4895,-76.2359 832.9062,-69.2097"/>
<polygon fill="#191970" stroke="#191970" points="833.3249,-72.687 842.9989,-68.3669 832.7423,-65.7113 833.3249,-72.687"/>
</g>
<!-- Node29&#45;&gt;Node13 -->
<g id="edge57" class="edge">
<title>Node29&#45;&gt;Node13</title>
<path fill="none" stroke="#191970" d="M360.1579,-168.2455C362.9584,-160.7776 366.909,-150.2427 370.3324,-141.1137"/>
<polygon fill="#191970" stroke="#191970" points="373.6499,-142.2349 373.884,-131.6427 367.0955,-139.777 373.6499,-142.2349"/>
</g>
<!-- Node30&#45;&gt;Node9 -->
<g id="edge59" class="edge">
<title>Node30&#45;&gt;Node9</title>
<path fill="none" stroke="#191970" d="M467.0026,-168.2455C480.658,-159.6534 500.7657,-147.0014 516.4989,-137.1018"/>
<polygon fill="#191970" stroke="#191970" points="518.5751,-139.9307 525.175,-131.6427 514.8471,-134.006 518.5751,-139.9307"/>
</g>
<!-- Node30&#45;&gt;Node13 -->
<g id="edge60" class="edge">
<title>Node30&#45;&gt;Node13</title>
<path fill="none" stroke="#191970" d="M438.6102,-168.2455C427.5746,-159.8943 411.4708,-147.7076 398.5647,-137.9408"/>
<polygon fill="#191970" stroke="#191970" points="400.3283,-134.8862 390.2421,-131.6427 396.1041,-140.4681 400.3283,-134.8862"/>
</g>
<!-- Node31&#45;&gt;Node3 -->
<g id="edge63" class="edge">
<title>Node31&#45;&gt;Node3</title>
<path fill="none" stroke="#191970" d="M1439.7455,-168.3733C1416.2151,-159.2226 1380.6313,-145.3844 1354.4574,-135.2057"/>
<polygon fill="#191970" stroke="#191970" points="1355.5201,-131.8636 1344.9315,-131.5011 1352.9829,-138.3877 1355.5201,-131.8636"/>
</g>
<!-- Node31&#45;&gt;Node10 -->
<g id="edge62" class="edge">
<title>Node31&#45;&gt;Node10</title>
<path fill="none" stroke="#191970" d="M1455.3359,-168.2144C1440.4574,-153.0642 1409.3827,-124.3884 1376.5,-112 1185.1472,-39.9086 1117.449,-108.3644 912.1417,-75.9926"/>
<polygon fill="#191970" stroke="#191970" points="912.6944,-72.5366 902.2601,-74.3739 911.5628,-79.4445 912.6944,-72.5366"/>
</g>
<!-- Node32&#45;&gt;Node2 -->
<g id="edge68" class="edge">
<title>Node32&#45;&gt;Node2</title>
<path fill="none" stroke="#191970" d="M888.03,-168.4528C862.345,-155.2799 814.2819,-131.004 772.5,-112 747.1733,-100.4804 718.1173,-88.3763 696.2303,-79.4771"/>
<polygon fill="#191970" stroke="#191970" points="697.3005,-76.1345 686.7178,-75.6275 694.6745,-82.6233 697.3005,-76.1345"/>
</g>
<!-- Node32&#45;&gt;Node3 -->
<g id="edge69" class="edge">
<title>Node32&#45;&gt;Node3</title>
<path fill="none" stroke="#191970" d="M945.0763,-172.7819C1024.5427,-162.0329 1205.5661,-137.5466 1283.5898,-126.9927"/>
<polygon fill="#191970" stroke="#191970" points="1284.4538,-130.4078 1293.8944,-125.5988 1283.5155,-123.4709 1284.4538,-130.4078"/>
</g>
<!-- Node32&#45;&gt;Node5 -->
<g id="edge65" class="edge">
<title>Node32&#45;&gt;Node5</title>
<path fill="none" stroke="#191970" d="M915.9061,-168.2455C923.6493,-160.2155 934.812,-148.6394 944.0318,-139.0781"/>
<polygon fill="#191970" stroke="#191970" points="946.7798,-141.2706 951.2017,-131.6427 941.7409,-136.4117 946.7798,-141.2706"/>
</g>
<!-- Node32&#45;&gt;Node10 -->
<g id="edge71" class="edge">
<title>Node32&#45;&gt;Node10</title>
<path fill="none" stroke="#191970" d="M903.1815,-168.1611C900.0735,-158.8685 895.3444,-144.5274 891.5,-132 886.7447,-116.5045 881.6822,-98.8555 877.9796,-85.7094"/>
<polygon fill="#191970" stroke="#191970" points="881.292,-84.5581 875.2259,-75.8718 874.5511,-86.4451 881.292,-84.5581"/>
</g>
<!-- Node32&#45;&gt;Node13 -->
<g id="edge66" class="edge">
<title>Node32&#45;&gt;Node13</title>
<path fill="none" stroke="#191970" d="M867.9647,-173.4806C852.8562,-171.7322 835.3689,-169.7377 819.5,-168 673.0735,-151.9657 499.2044,-134.2617 420.2742,-126.2974"/>
<polygon fill="#191970" stroke="#191970" points="420.5286,-122.8054 410.228,-125.2846 419.8264,-129.7701 420.5286,-122.8054"/>
</g>
<!-- Node32&#45;&gt;Node16 -->
<g id="edge70" class="edge">
<title>Node32&#45;&gt;Node16</title>
<path fill="none" stroke="#191970" d="M933.6612,-168.3733C959.7856,-159.114 999.4511,-145.0553 1028.2593,-134.8448"/>
<polygon fill="#191970" stroke="#191970" points="1029.7,-138.0476 1037.9562,-131.4079 1027.3615,-131.4497 1029.7,-138.0476"/>
</g>
<!-- Node32&#45;&gt;Node21 -->
<g id="edge67" class="edge">
<title>Node32&#45;&gt;Node21</title>
<path fill="none" stroke="#191970" d="M945.0712,-170.4476C994.8385,-160.7029 1081.7101,-143.6931 1138.1516,-132.6416"/>
<polygon fill="#191970" stroke="#191970" points="1138.8333,-136.0747 1147.9744,-130.7183 1137.4882,-129.2052 1138.8333,-136.0747"/>
</g>
<!-- Node33&#45;&gt;Node2 -->
<g id="edge75" class="edge">
<title>Node33&#45;&gt;Node2</title>
<path fill="none" stroke="#191970" d="M1055.9975,-168.4246C1081.4659,-155.8134 1118.2227,-132.797 1099.5,-112 1086.1436,-97.1638 802.4097,-75.8318 699.4269,-68.5486"/>
<polygon fill="#191970" stroke="#191970" points="699.4135,-65.0391 689.1926,-67.8291 698.9225,-72.0219 699.4135,-65.0391"/>
</g>
<!-- Node33&#45;&gt;Node3 -->
<g id="edge76" class="edge">
<title>Node33&#45;&gt;Node3</title>
<path fill="none" stroke="#191970" d="M1067.0903,-170.9346C1071.9169,-169.9264 1076.8347,-168.9202 1081.5,-168 1169.252,-150.6912 1192.0137,-150.6052 1279.5,-132 1280.9333,-131.6952 1282.3929,-131.377 1283.8659,-131.0493"/>
<polygon fill="#191970" stroke="#191970" points="1284.6896,-134.4513 1293.646,-128.7915 1283.115,-127.6307 1284.6896,-134.4513"/>
</g>
<!-- Node33&#45;&gt;Node10 -->
<g id="edge73" class="edge">
<title>Node33&#45;&gt;Node10</title>
<path fill="none" stroke="#191970" d="M1067.0292,-171.0761C1126.2754,-158.4474 1245.789,-132.8819 1246.5,-132 1252.0793,-125.0802 1252.4412,-118.6117 1246.5,-112 1198.2202,-58.271 1000.2637,-87.1755 912.2023,-75.8331"/>
<polygon fill="#191970" stroke="#191970" points="912.6943,-72.3676 902.2751,-74.2889 911.6183,-79.2844 912.6943,-72.3676"/>
</g>
<!-- Node33&#45;&gt;Node16 -->
<g id="edge77" class="edge">
<title>Node33&#45;&gt;Node16</title>
<path fill="none" stroke="#191970" d="M1039.7256,-168.2455C1043.8123,-160.617 1049.6135,-149.7881 1054.575,-140.5267"/>
<polygon fill="#191970" stroke="#191970" points="1057.6972,-142.1103 1059.3343,-131.6427 1051.5268,-138.8047 1057.6972,-142.1103"/>
</g>
<!-- Node33&#45;&gt;Node21 -->
<g id="edge74" class="edge">
<title>Node33&#45;&gt;Node21</title>
<path fill="none" stroke="#191970" d="M1061.6612,-168.3733C1087.7067,-159.1419 1127.2116,-145.1402 1155.9979,-134.9375"/>
<polygon fill="#191970" stroke="#191970" points="1157.437,-138.1408 1165.6933,-131.5011 1155.0985,-131.5429 1157.437,-138.1408"/>
</g>
<!-- Node34&#45;&gt;Node10 -->
<g id="edge79" class="edge">
<title>Node34&#45;&gt;Node10</title>
<path fill="none" stroke="#191970" d="M1688.2688,-224.3018C1663.7274,-199.3455 1593.6594,-133.3704 1519.5,-112 1262.1432,-37.8378 1180.2512,-116.7378 912.2725,-75.9918"/>
<polygon fill="#191970" stroke="#191970" points="912.6721,-72.5118 902.2516,-74.4258 911.5913,-79.4279 912.6721,-72.5118"/>
</g>
<!-- Node35&#45;&gt;Node2 -->
<g id="edge82" class="edge">
<title>Node35&#45;&gt;Node2</title>
<path fill="none" stroke="#191970" d="M843.5509,-224.114C840.4307,-210.3267 833.2202,-185.0969 819.5,-168 809.9014,-156.0392 729.1284,-106.2784 687.339,-80.9514"/>
<polygon fill="#191970" stroke="#191970" points="688.9423,-77.8308 678.574,-75.6512 685.3201,-83.8208 688.9423,-77.8308"/>
</g>
<!-- Node35&#45;&gt;Node3 -->
<g id="edge83" class="edge">
<title>Node35&#45;&gt;Node3</title>
<path fill="none" stroke="#191970" d="M881.1177,-227.6279C926.4559,-219.3447 1007.1098,-204.0325 1075.5,-188 1115.2511,-178.6813 1225.8938,-148.2526 1283.9202,-132.1715"/>
<polygon fill="#191970" stroke="#191970" points="1285.0756,-135.4833 1293.7763,-129.4378 1283.2047,-128.7379 1285.0756,-135.4833"/>
</g>
<!-- Node35&#45;&gt;Node32 -->
<g id="edge81" class="edge">
<title>Node35&#45;&gt;Node32</title>
<path fill="none" stroke="#191970" d="M856.1254,-224.2455C865.0473,-216.0549 877.988,-204.1749 888.5192,-194.5069"/>
<polygon fill="#191970" stroke="#191970" points="890.9968,-196.9837 895.9964,-187.6427 886.2629,-191.8271 890.9968,-196.9837"/>
</g>
<!-- Node36&#45;&gt;Node2 -->
<g id="edge88" class="edge">
<title>Node36&#45;&gt;Node2</title>
<path fill="none" stroke="#191970" d="M650.76,-168.4549C641.369,-160.0029 628.9091,-146.7442 623.5,-132 616.9092,-114.0345 630.0242,-95.4301 642.7886,-82.5716"/>
<polygon fill="#191970" stroke="#191970" points="645.2056,-85.1032 650.112,-75.7129 640.4206,-79.994 645.2056,-85.1032"/>
</g>
<!-- Node36&#45;&gt;Node10 -->
<g id="edge86" class="edge">
<title>Node36&#45;&gt;Node10</title>
<path fill="none" stroke="#191970" d="M680.4045,-168.4509C717.3672,-148.7375 802.2877,-103.4465 845.7731,-80.2543"/>
<polygon fill="#191970" stroke="#191970" points="847.4644,-83.3191 854.6408,-75.5249 844.1702,-77.1426 847.4644,-83.3191"/>
</g>
<!-- Node36&#45;&gt;Node24 -->
<g id="edge87" class="edge">
<title>Node36&#45;&gt;Node24</title>
<path fill="none" stroke="#191970" d="M662.5,-168.2455C662.5,-160.9382 662.5,-150.6944 662.5,-141.7046"/>
<polygon fill="#191970" stroke="#191970" points="666.0001,-141.6426 662.5,-131.6427 659.0001,-141.6427 666.0001,-141.6426"/>
</g>
</g>
</svg>
