<?xml version="1.0" encoding="UTF-8" standalone="no"?>
<!DOCTYPE svg PUBLIC "-//W3C//DTD SVG 1.1//EN"
 "http://www.w3.org/Graphics/SVG/1.1/DTD/svg11.dtd">
<!-- Generated by graphviz version 2.40.1 (0)
 -->
<!-- Title: jngl/all.hpp Pages: 1 -->
<svg width="1750pt" height="308pt"
 viewBox="0.00 0.00 1750.00 308.00" xmlns="http://www.w3.org/2000/svg" xmlns:xlink="http://www.w3.org/1999/xlink">
<g id="graph0" class="graph" transform="scale(1 1) rotate(0) translate(4 304)">
<title>jngl/all.hpp</title>
<polygon fill="#ffffff" stroke="transparent" points="-4,4 -4,-304 1746,-304 1746,4 -4,4"/>
<!-- Node0 -->
<g id="node1" class="node">
<title>Node0</title>
<g id="a_node1"><a xlink:title="Includes all JNGL headers.">
<polygon fill="#bfbfbf" stroke="#000000" points="840,-280.5 840,-299.5 929,-299.5 929,-280.5 840,-280.5"/>
<text text-anchor="middle" x="884.5" y="-287.5" font-family="'Consolas',monospace" font-size="10.00" fill="#000000">jngl/all.hpp</text>
</a>
</g>
</g>
<!-- Node1 -->
<g id="node2" class="node">
<title>Node1</title>
<g id="a_node2"><a xlink:href="App_8hpp.html" target="_top" xlink:title=" ">
<polygon fill="#ffffff" stroke="#000000" points="211,-168.5 211,-187.5 270,-187.5 270,-168.5 211,-168.5"/>
<text text-anchor="middle" x="240.5" y="-175.5" font-family="'Consolas',monospace" font-size="10.00" fill="#000000">App.hpp</text>
</a>
</g>
</g>
<!-- Node0&#45;&gt;Node1 -->
<g id="edge1" class="edge">
<title>Node0&#45;&gt;Node1</title>
<path fill="none" stroke="#191970" d="M839.9808,-287.854C733.9847,-282.4322 469.1301,-266.9614 383.5,-244 340.0307,-232.3438 293.3451,-208.3933 265.5482,-192.776"/>
<polygon fill="#191970" stroke="#191970" points="266.9598,-189.5517 256.5401,-187.6333 263.4893,-195.6308 266.9598,-189.5517"/>
</g>
<!-- Node4 -->
<g id="node5" class="node">
<title>Node4</title>
<g id="a_node5"><a xlink:href="Color_8hpp.html" target="_top" xlink:title=" ">
<polygon fill="#ffffff" stroke="#000000" points="1467,-168.5 1467,-187.5 1538,-187.5 1538,-168.5 1467,-168.5"/>
<text text-anchor="middle" x="1502.5" y="-175.5" font-family="'Consolas',monospace" font-size="10.00" fill="#000000">Color.hpp</text>
</a>
</g>
</g>
<!-- Node0&#45;&gt;Node4 -->
<g id="edge4" class="edge">
<title>Node0&#45;&gt;Node4</title>
<path fill="none" stroke="#191970" d="M929.1432,-288.1198C1052.8443,-282.6559 1393.9168,-265.7764 1439.5,-244 1461.4848,-233.4972 1479.7941,-211.7894 1490.9082,-196.1327"/>
<polygon fill="#191970" stroke="#191970" points="1493.8806,-197.9855 1496.594,-187.744 1488.0862,-194.0581 1493.8806,-197.9855"/>
</g>
<!-- Node5 -->
<g id="node6" class="node">
<title>Node5</title>
<g id="a_node6"><a xlink:href="Controller_8hpp.html" target="_top" xlink:title=" ">
<polygon fill="#ffffff" stroke="#000000" points="1112,-224.5 1112,-243.5 1213,-243.5 1213,-224.5 1112,-224.5"/>
<text text-anchor="middle" x="1162.5" y="-231.5" font-family="'Consolas',monospace" font-size="10.00" fill="#000000">Controller.hpp</text>
</a>
</g>
</g>
<!-- Node0&#45;&gt;Node5 -->
<g id="edge5" class="edge">
<title>Node0&#45;&gt;Node5</title>
<path fill="none" stroke="#191970" d="M929.1655,-281.0026C976.9376,-271.3795 1052.8573,-256.0863 1105.0477,-245.5731"/>
<polygon fill="#191970" stroke="#191970" points="1106.0422,-248.9432 1115.1541,-243.5373 1104.6598,-242.081 1106.0422,-248.9432"/>
</g>
<!-- Node6 -->
<g id="node7" class="node">
<title>Node6</title>
<g id="a_node7"><a xlink:href="input_8hpp.html" target="_top" xlink:title=" ">
<polygon fill="#ffffff" stroke="#000000" points="1301,-168.5 1301,-187.5 1372,-187.5 1372,-168.5 1301,-168.5"/>
<text text-anchor="middle" x="1336.5" y="-175.5" font-family="'Consolas',monospace" font-size="10.00" fill="#000000">input.hpp</text>
</a>
</g>
</g>
<!-- Node0&#45;&gt;Node6 -->
<g id="edge40" class="edge">
<title>Node0&#45;&gt;Node6</title>
<path fill="none" stroke="#191970" d="M929.1002,-288.0543C1033.689,-283.1006 1288.1476,-268.6314 1317.5,-244 1330.7469,-232.8838 1335.0824,-213.1799 1336.352,-198.1864"/>
<polygon fill="#191970" stroke="#191970" points="1339.8637,-198.0081 1336.8221,-187.8593 1332.8709,-197.6897 1339.8637,-198.0081"/>
</g>
<!-- Node13 -->
<g id="node14" class="node">
<title>Node13</title>
<g id="a_node14"><a xlink:href="Shader_8hpp.html" target="_top" xlink:title=" ">
<polygon fill="#ffffff" stroke="#000000" points="0,-112.5 0,-131.5 77,-131.5 77,-112.5 0,-112.5"/>
<text text-anchor="middle" x="38.5" y="-119.5" font-family="'Consolas',monospace" font-size="10.00" fill="#000000">Shader.hpp</text>
</a>
</g>
</g>
<!-- Node0&#45;&gt;Node13 -->
<g id="edge14" class="edge">
<title>Node0&#45;&gt;Node13</title>
<path fill="none" stroke="#191970" d="M839.8039,-289.5843C685.8986,-287.8422 183.9105,-279.4696 121.5,-244 81.0147,-220.9911 56.1757,-169.146 45.1757,-141.017"/>
<polygon fill="#191970" stroke="#191970" points="48.404,-139.6566 41.6337,-131.5071 41.8442,-142.0999 48.404,-139.6566"/>
</g>
<!-- Node14 -->
<g id="node15" class="node">
<title>Node14</title>
<g id="a_node15"><a xlink:href="ShaderProgram_8hpp.html" target="_top" xlink:title=" ">
<polygon fill="#ffffff" stroke="#000000" points="1085,-112.5 1085,-131.5 1204,-131.5 1204,-112.5 1085,-112.5"/>
<text text-anchor="middle" x="1144.5" y="-119.5" font-family="'Consolas',monospace" font-size="10.00" fill="#000000">ShaderProgram.hpp</text>
</a>
</g>
</g>
<!-- Node0&#45;&gt;Node14 -->
<g id="edge16" class="edge">
<title>Node0&#45;&gt;Node14</title>
<path fill="none" stroke="#191970" d="M915.3884,-280.489C989.9759,-257.3817 1174.3987,-199.3493 1182.5,-188 1193.9721,-171.9284 1179.1268,-152.1469 1164.7656,-138.4535"/>
<polygon fill="#191970" stroke="#191970" points="1166.8001,-135.5782 1157.0072,-131.5347 1162.141,-140.8026 1166.8001,-135.5782"/>
</g>
<!-- Node16 -->
<g id="node17" class="node">
<title>Node16</title>
<g id="a_node17"><a xlink:href="Vertex_8hpp.html" target="_top" xlink:title=" ">
<polygon fill="#ffffff" stroke="#000000" points="457,-224.5 457,-243.5 534,-243.5 534,-224.5 457,-224.5"/>
<text text-anchor="middle" x="495.5" y="-231.5" font-family="'Consolas',monospace" font-size="10.00" fill="#000000">Vertex.hpp</text>
</a>
</g>
</g>
<!-- Node0&#45;&gt;Node16 -->
<g id="edge20" class="edge">
<title>Node0&#45;&gt;Node16</title>
<path fill="none" stroke="#191970" d="M839.9329,-285.016C776.5758,-277.7048 656.6271,-263.0316 544.3689,-244.0461"/>
<polygon fill="#191970" stroke="#191970" points="544.6737,-240.5476 534.2274,-242.3154 543.4961,-247.4479 544.6737,-240.5476"/>
</g>
<!-- Node17 -->
<g id="node18" class="node">
<title>Node17</title>
<g id="a_node18"><a xlink:href="Video_8hpp.html" target="_top" xlink:title=" ">
<polygon fill="#ffffff" stroke="#000000" points="849,-224.5 849,-243.5 920,-243.5 920,-224.5 849,-224.5"/>
<text text-anchor="middle" x="884.5" y="-231.5" font-family="'Consolas',monospace" font-size="10.00" fill="#000000">Video.hpp</text>
</a>
</g>
</g>
<!-- Node0&#45;&gt;Node17 -->
<g id="edge21" class="edge">
<title>Node0&#45;&gt;Node17</title>
<path fill="none" stroke="#191970" d="M884.5,-280.2455C884.5,-272.9382 884.5,-262.6944 884.5,-253.7046"/>
<polygon fill="#191970" stroke="#191970" points="888.0001,-253.6426 884.5,-243.6427 881.0001,-253.6427 888.0001,-253.6426"/>
</g>
<!-- Node18 -->
<g id="node19" class="node">
<title>Node18</title>
<g id="a_node19"><a xlink:href="sprite_8hpp_source.html" target="_top" xlink:title=" ">
<polygon fill="#ffffff" stroke="#000000" points="977,-168.5 977,-187.5 1054,-187.5 1054,-168.5 977,-168.5"/>
<text text-anchor="middle" x="1015.5" y="-175.5" font-family="'Consolas',monospace" font-size="10.00" fill="#000000">sprite.hpp</text>
</a>
</g>
</g>
<!-- Node0&#45;&gt;Node18 -->
<g id="edge60" class="edge">
<title>Node0&#45;&gt;Node18</title>
<path fill="none" stroke="#191970" d="M905.0411,-280.4778C921.5874,-272.2236 944.9086,-259.2286 962.5,-244 978.7233,-229.9558 993.6822,-210.4609 1003.5412,-196.3022"/>
<polygon fill="#191970" stroke="#191970" points="1006.5359,-198.1219 1009.2455,-187.8794 1000.74,-194.1966 1006.5359,-198.1219"/>
</g>
<!-- Node19 -->
<g id="node20" class="node">
<title>Node19</title>
<g id="a_node20"><a xlink:href="drawable_8hpp_source.html" target="_top" xlink:title=" ">
<polygon fill="#ffffff" stroke="#000000" points="939,-112.5 939,-131.5 1028,-131.5 1028,-112.5 939,-112.5"/>
<text text-anchor="middle" x="983.5" y="-119.5" font-family="'Consolas',monospace" font-size="10.00" fill="#000000">drawable.hpp</text>
</a>
</g>
</g>
<!-- Node0&#45;&gt;Node19 -->
<g id="edge32" class="edge">
<title>Node0&#45;&gt;Node19</title>
<path fill="none" stroke="#191970" d="M896.0295,-280.3532C905.8958,-271.6388 919.974,-258.0578 929.5,-244 952.0239,-210.7608 968.8041,-166.5976 977.2916,-141.5453"/>
<polygon fill="#191970" stroke="#191970" points="980.7051,-142.3692 980.5065,-131.7762 974.0559,-140.181 980.7051,-142.3692"/>
</g>
<!-- Node20 -->
<g id="node21" class="node">
<title>Node20</title>
<g id="a_node21"><a xlink:href="debug_8hpp_source.html" target="_top" xlink:title=" ">
<polygon fill="#ffffff" stroke="#000000" points="552,-224.5 552,-243.5 623,-243.5 623,-224.5 552,-224.5"/>
<text text-anchor="middle" x="587.5" y="-231.5" font-family="'Consolas',monospace" font-size="10.00" fill="#000000">debug.hpp</text>
</a>
</g>
</g>
<!-- Node0&#45;&gt;Node20 -->
<g id="edge28" class="edge">
<title>Node0&#45;&gt;Node20</title>
<path fill="none" stroke="#191970" d="M839.7145,-281.5556C784.032,-271.0565 689.4909,-253.2306 633.3283,-242.641"/>
<polygon fill="#191970" stroke="#191970" points="633.7815,-239.1649 623.3061,-240.7513 632.4844,-246.0437 633.7815,-239.1649"/>
</g>
<!-- Node21 -->
<g id="node22" class="node">
<title>Node21</title>
<g id="a_node22"><a xlink:href="message_8hpp.html" target="_top" xlink:title=" ">
<polygon fill="#ffffff" stroke="#000000" points="377,-168.5 377,-187.5 460,-187.5 460,-168.5 377,-168.5"/>
<text text-anchor="middle" x="418.5" y="-175.5" font-family="'Consolas',monospace" font-size="10.00" fill="#000000">message.hpp</text>
</a>
</g>
</g>
<!-- Node0&#45;&gt;Node21 -->
<g id="edge51" class="edge">
<title>Node0&#45;&gt;Node21</title>
<path fill="none" stroke="#191970" d="M839.8166,-287.7857C735.0011,-282.2398 479.7955,-266.5622 448.5,-244 433.3831,-233.1016 425.7172,-212.7321 421.9401,-197.4927"/>
<polygon fill="#191970" stroke="#191970" points="425.3223,-196.5693 419.8263,-187.5115 418.4742,-198.0197 425.3223,-196.5693"/>
</g>
<!-- Node23 -->
<g id="node24" class="node">
<title>Node23</title>
<g id="a_node24"><a xlink:href="font_8hpp.html" target="_top" xlink:title=" ">
<polygon fill="#ffffff" stroke="#000000" points="1365,-224.5 1365,-243.5 1430,-243.5 1430,-224.5 1365,-224.5"/>
<text text-anchor="middle" x="1397.5" y="-231.5" font-family="'Consolas',monospace" font-size="10.00" fill="#000000">font.hpp</text>
</a>
</g>
</g>
<!-- Node0&#45;&gt;Node23 -->
<g id="edge33" class="edge">
<title>Node0&#45;&gt;Node23</title>
<path fill="none" stroke="#191970" d="M929.0418,-287.2595C1012.218,-281.7752 1196.661,-267.8829 1350.5,-244 1351.9684,-243.772 1353.46,-243.5274 1354.9645,-243.2695"/>
<polygon fill="#191970" stroke="#191970" points="1355.7779,-246.6783 1364.9706,-241.4111 1354.4996,-239.796 1355.7779,-246.6783"/>
</g>
<!-- Node24 -->
<g id="node25" class="node">
<title>Node24</title>
<g id="a_node25"><a xlink:href="framebuffer_8hpp_source.html" target="_top" xlink:title=" ">
<polygon fill="#ffffff" stroke="#000000" points="1072,-168.5 1072,-187.5 1173,-187.5 1173,-168.5 1072,-168.5"/>
<text text-anchor="middle" x="1122.5" y="-175.5" font-family="'Consolas',monospace" font-size="10.00" fill="#000000">framebuffer.hpp</text>
</a>
</g>
</g>
<!-- Node0&#45;&gt;Node24 -->
<g id="edge37" class="edge">
<title>Node0&#45;&gt;Node24</title>
<path fill="none" stroke="#191970" d="M905.8417,-280.4409C926.326,-271.2278 958.1073,-256.8344 985.5,-244 1023.1384,-226.3652 1066.2975,-205.4588 1093.9516,-191.9745"/>
<polygon fill="#191970" stroke="#191970" points="1095.6011,-195.0641 1103.0521,-187.532 1092.5303,-188.7736 1095.6011,-195.0641"/>
</g>
<!-- Node25 -->
<g id="node26" class="node">
<title>Node25</title>
<g id="a_node26"><a xlink:href="job_8hpp.html" target="_top" xlink:title=" ">
<polygon fill="#ffffff" stroke="#000000" points="134,-168.5 134,-187.5 193,-187.5 193,-168.5 134,-168.5"/>
<text text-anchor="middle" x="163.5" y="-175.5" font-family="'Consolas',monospace" font-size="10.00" fill="#000000">job.hpp</text>
</a>
</g>
</g>
<!-- Node0&#45;&gt;Node25 -->
<g id="edge41" class="edge">
<title>Node0&#45;&gt;Node25</title>
<path fill="none" stroke="#191970" d="M839.687,-288.0531C725.1327,-282.7969 423.7847,-267.1371 326.5,-244 276.972,-232.2208 222.8083,-207.7844 191.0617,-192.1774"/>
<polygon fill="#191970" stroke="#191970" points="192.4703,-188.9688 181.959,-187.641 189.3481,-195.2339 192.4703,-188.9688"/>
</g>
<!-- Node26 -->
<g id="node27" class="node">
<title>Node26</title>
<g id="a_node27"><a xlink:href="main_8hpp_source.html" target="_top" xlink:title=" ">
<polygon fill="#ffffff" stroke="#000000" points="687,-224.5 687,-243.5 752,-243.5 752,-224.5 687,-224.5"/>
<text text-anchor="middle" x="719.5" y="-231.5" font-family="'Consolas',monospace" font-size="10.00" fill="#000000">main.hpp</text>
</a>
</g>
</g>
<!-- Node0&#45;&gt;Node26 -->
<g id="edge43" class="edge">
<title>Node0&#45;&gt;Node26</title>
<path fill="none" stroke="#191970" d="M856.1355,-280.3733C828.8173,-271.1016 787.3204,-257.0178 757.2262,-246.804"/>
<polygon fill="#191970" stroke="#191970" points="758.0887,-243.4008 747.4944,-243.5011 755.839,-250.0294 758.0887,-243.4008"/>
</g>
<!-- Node27 -->
<g id="node28" class="node">
<title>Node27</title>
<g id="a_node28"><a xlink:href="other_8hpp.html" target="_top" xlink:title=" ">
<polygon fill="#ffffff" stroke="#000000" points="689,-168.5 689,-187.5 760,-187.5 760,-168.5 689,-168.5"/>
<text text-anchor="middle" x="724.5" y="-175.5" font-family="'Consolas',monospace" font-size="10.00" fill="#000000">other.hpp</text>
</a>
</g>
</g>
<!-- Node0&#45;&gt;Node27 -->
<g id="edge52" class="edge">
<title>Node0&#45;&gt;Node27</title>
<path fill="none" stroke="#191970" d="M870.8585,-280.4509C843.1097,-261.0268 779.8862,-216.7703 746.3421,-193.2895"/>
<polygon fill="#191970" stroke="#191970" points="748.3065,-190.3922 738.107,-187.5249 744.2922,-196.1269 748.3065,-190.3922"/>
</g>
<!-- Node28 -->
<g id="node29" class="node">
<title>Node28</title>
<g id="a_node29"><a xlink:href="window_8hpp.html" target="_top" xlink:title="Functions related to the main window.">
<polygon fill="#ffffff" stroke="#000000" points="555,-168.5 555,-187.5 632,-187.5 632,-168.5 555,-168.5"/>
<text text-anchor="middle" x="593.5" y="-175.5" font-family="'Consolas',monospace" font-size="10.00" fill="#000000">window.hpp</text>
</a>
</g>
</g>
<!-- Node0&#45;&gt;Node28 -->
<g id="edge67" class="edge">
<title>Node0&#45;&gt;Node28</title>
<path fill="none" stroke="#191970" d="M839.6692,-285.7278C796.6579,-280.3277 730.719,-268.5813 678.5,-244 652.3016,-231.6675 626.6705,-210.0771 610.5221,-194.9586"/>
<polygon fill="#191970" stroke="#191970" points="612.6265,-192.127 602.9891,-187.7258 607.7784,-197.1764 612.6265,-192.127"/>
</g>
<!-- Node29 -->
<g id="node30" class="node">
<title>Node29</title>
<g id="a_node30"><a xlink:href="matrix_8hpp_source.html" target="_top" xlink:title=" ">
<polygon fill="#ffffff" stroke="#000000" points="1231,-224.5 1231,-243.5 1308,-243.5 1308,-224.5 1231,-224.5"/>
<text text-anchor="middle" x="1269.5" y="-231.5" font-family="'Consolas',monospace" font-size="10.00" fill="#000000">matrix.hpp</text>
</a>
</g>
</g>
<!-- Node0&#45;&gt;Node29 -->
<g id="edge50" class="edge">
<title>Node0&#45;&gt;Node29</title>
<path fill="none" stroke="#191970" d="M929.225,-284.9872C992.1804,-277.6951 1110.7145,-263.1034 1220.8667,-244.1929"/>
<polygon fill="#191970" stroke="#191970" points="1221.56,-247.625 1230.8156,-242.4689 1220.3648,-240.7278 1221.56,-247.625"/>
</g>
<!-- Node30 -->
<g id="node31" class="node">
<title>Node30</title>
<g id="a_node31"><a xlink:href="screen_8hpp.html" target="_top" xlink:title=" ">
<polygon fill="#ffffff" stroke="#000000" points="1665,-224.5 1665,-243.5 1742,-243.5 1742,-224.5 1665,-224.5"/>
<text text-anchor="middle" x="1703.5" y="-231.5" font-family="'Consolas',monospace" font-size="10.00" fill="#000000">screen.hpp</text>
</a>
</g>
</g>
<!-- Node0&#45;&gt;Node30 -->
<g id="edge53" class="edge">
<title>Node0&#45;&gt;Node30</title>
<path fill="none" stroke="#191970" d="M929.0226,-288.228C1068.298,-282.5491 1495.4072,-264.0707 1654.7494,-244.026"/>
<polygon fill="#191970" stroke="#191970" points="1655.3908,-247.4719 1664.8519,-242.7035 1654.4822,-240.5312 1655.3908,-247.4719"/>
</g>
<!-- Node31 -->
<g id="node32" class="node">
<title>Node31</title>
<g id="a_node32"><a xlink:href="shapes_8hpp.html" target="_top" xlink:title=" ">
<polygon fill="#ffffff" stroke="#000000" points="1487,-224.5 1487,-243.5 1564,-243.5 1564,-224.5 1487,-224.5"/>
<text text-anchor="middle" x="1525.5" y="-231.5" font-family="'Consolas',monospace" font-size="10.00" fill="#000000">shapes.hpp</text>
</a>
</g>
</g>
<!-- Node0&#45;&gt;Node31 -->
<g id="edge55" class="edge">
<title>Node0&#45;&gt;Node31</title>
<path fill="none" stroke="#191970" d="M929.3009,-288.1546C1027.8573,-283.7318 1270.7674,-270.8419 1472.5,-244 1473.9503,-243.807 1475.421,-243.6004 1476.9042,-243.3824"/>
<polygon fill="#191970" stroke="#191970" points="1477.4673,-246.8369 1486.791,-241.805 1476.3644,-239.9243 1477.4673,-246.8369"/>
</g>
<!-- Node32 -->
<g id="node33" class="node">
<title>Node32</title>
<g id="a_node33"><a xlink:href="sound_8hpp_source.html" target="_top" xlink:title=" ">
<polygon fill="#ffffff" stroke="#000000" points="288,-168.5 288,-187.5 359,-187.5 359,-168.5 288,-168.5"/>
<text text-anchor="middle" x="323.5" y="-175.5" font-family="'Consolas',monospace" font-size="10.00" fill="#000000">sound.hpp</text>
</a>
</g>
</g>
<!-- Node0&#45;&gt;Node32 -->
<g id="edge58" class="edge">
<title>Node0&#45;&gt;Node32</title>
<path fill="none" stroke="#191970" d="M839.6555,-288.1176C739.9937,-283.5102 502.9575,-270.0909 427.5,-244 395.1064,-232.7993 362.5081,-209.7521 342.6596,-194.0833"/>
<polygon fill="#191970" stroke="#191970" points="344.7055,-191.2366 334.7275,-187.6741 340.3061,-196.6814 344.7055,-191.2366"/>
</g>
<!-- Node33 -->
<g id="node34" class="node">
<title>Node33</title>
<g id="a_node34"><a xlink:href="text_8hpp.html" target="_top" xlink:title=" ">
<polygon fill="#ffffff" stroke="#000000" points="817,-168.5 817,-187.5 882,-187.5 882,-168.5 817,-168.5"/>
<text text-anchor="middle" x="849.5" y="-175.5" font-family="'Consolas',monospace" font-size="10.00" fill="#000000">text.hpp</text>
</a>
</g>
</g>
<!-- Node0&#45;&gt;Node33 -->
<g id="edge61" class="edge">
<title>Node0&#45;&gt;Node33</title>
<path fill="none" stroke="#191970" d="M870.8664,-280.4516C860.3452,-272.1822 846.5909,-259.1795 840.5,-244 834.5193,-229.0951 837.676,-210.9386 841.8164,-197.4447"/>
<polygon fill="#191970" stroke="#191970" points="845.201,-198.3685 845.192,-187.7736 838.592,-196.0616 845.201,-198.3685"/>
</g>
<!-- Node34 -->
<g id="node35" class="node">
<title>Node34</title>
<g id="a_node35"><a xlink:href="time_8hpp.html" target="_top" xlink:title=" ">
<polygon fill="#ffffff" stroke="#000000" points="1582,-224.5 1582,-243.5 1647,-243.5 1647,-224.5 1582,-224.5"/>
<text text-anchor="middle" x="1614.5" y="-231.5" font-family="'Consolas',monospace" font-size="10.00" fill="#000000">time.hpp</text>
</a>
</g>
</g>
<!-- Node0&#45;&gt;Node34 -->
<g id="edge66" class="edge">
<title>Node0&#45;&gt;Node34</title>
<path fill="none" stroke="#191970" d="M929.2965,-288.0218C1058.2639,-282.1703 1429.7535,-264.1774 1571.7094,-244.0004"/>
<polygon fill="#191970" stroke="#191970" points="1572.5513,-247.4138 1581.9281,-242.4816 1571.5222,-240.4898 1572.5513,-247.4138"/>
</g>
<!-- Node35 -->
<g id="node36" class="node">
<title>Node35</title>
<g id="a_node36"><a xlink:href="work_8hpp.html" target="_top" xlink:title=" ">
<polygon fill="#ffffff" stroke="#000000" points="131,-224.5 131,-243.5 196,-243.5 196,-224.5 131,-224.5"/>
<text text-anchor="middle" x="163.5" y="-231.5" font-family="'Consolas',monospace" font-size="10.00" fill="#000000">work.hpp</text>
</a>
</g>
</g>
<!-- Node0&#45;&gt;Node35 -->
<g id="edge68" class="edge">
<title>Node0&#45;&gt;Node35</title>
<path fill="none" stroke="#191970" d="M839.891,-287.5506C735.7025,-281.6634 468.2957,-265.591 245.5,-244 232.7866,-242.768 218.9943,-241.1828 206.4127,-239.6394"/>
<polygon fill="#191970" stroke="#191970" points="206.5357,-236.1277 196.179,-238.3614 205.6682,-243.0737 206.5357,-236.1277"/>
</g>
<!-- Node2 -->
<g id="node3" class="node">
<title>Node2</title>
<g id="a_node3"><a doxygen="/w/doc/cppreference-doxygen-web.tag.xml:http://en.cppreference.com/w/" xlink:href="http://en.cppreference.com/w/cpp/header/memory.html" xlink:title=" ">
<polygon fill="#ffffff" stroke="#000000" points="829,-56.5 829,-75.5 882,-75.5 882,-56.5 829,-56.5"/>
<text text-anchor="middle" x="855.5" y="-63.5" font-family="'Consolas',monospace" font-size="10.00" fill="#000000">memory</text>
</a>
</g>
</g>
<!-- Node1&#45;&gt;Node2 -->
<g id="edge2" class="edge">
<title>Node1&#45;&gt;Node2</title>
<path fill="none" stroke="#191970" d="M270.271,-170.1936C273.3819,-169.4296 276.5017,-168.6848 279.5,-168 402.7981,-139.8393 433.9778,-134.1287 558.5,-112 651.8869,-95.4043 762.4043,-79.1829 818.6348,-71.1723"/>
<polygon fill="#191970" stroke="#191970" points="819.4023,-74.5985 828.8112,-69.7279 818.4186,-67.668 819.4023,-74.5985"/>
</g>
<!-- Node3 -->
<g id="node4" class="node">
<title>Node3</title>
<g id="a_node4"><a doxygen="/w/doc/cppreference-doxygen-web.tag.xml:http://en.cppreference.com/w/" xlink:href="http://en.cppreference.com/w/cpp/header/string.html" xlink:title=" ">
<polygon fill="#ffffff" stroke="#000000" points="567,-112.5 567,-131.5 620,-131.5 620,-112.5 567,-112.5"/>
<text text-anchor="middle" x="593.5" y="-119.5" font-family="'Consolas',monospace" font-size="10.00" fill="#000000">string</text>
</a>
</g>
</g>
<!-- Node1&#45;&gt;Node3 -->
<g id="edge3" class="edge">
<title>Node1&#45;&gt;Node3</title>
<path fill="none" stroke="#191970" d="M270.2361,-170.0308C273.3538,-169.2986 276.4847,-168.6057 279.5,-168 378.9151,-148.0304 497.6782,-132.9989 556.5867,-126.1265"/>
<polygon fill="#191970" stroke="#191970" points="557.339,-129.563 566.8715,-124.9389 556.536,-122.6092 557.339,-129.563"/>
</g>
<!-- Node5&#45;&gt;Node6 -->
<g id="edge6" class="edge">
<title>Node5&#45;&gt;Node6</title>
<path fill="none" stroke="#191970" d="M1192.4117,-224.3733C1221.3452,-215.0613 1265.3611,-200.8953 1297.1293,-190.671"/>
<polygon fill="#191970" stroke="#191970" points="1298.5318,-193.8965 1306.9787,-187.5011 1296.3872,-187.2331 1298.5318,-193.8965"/>
</g>
<!-- Node12 -->
<g id="node13" class="node">
<title>Node12</title>
<g id="a_node13"><a doxygen="/w/doc/cppreference-doxygen-web.tag.xml:http://en.cppreference.com/w/" xlink:href="http://en.cppreference.com/w/cpp/header/chrono.html" xlink:title=" ">
<polygon fill="#ffffff" stroke="#000000" points="1230,-168.5 1230,-187.5 1283,-187.5 1283,-168.5 1230,-168.5"/>
<text text-anchor="middle" x="1256.5" y="-175.5" font-family="'Consolas',monospace" font-size="10.00" fill="#000000">chrono</text>
</a>
</g>
</g>
<!-- Node5&#45;&gt;Node12 -->
<g id="edge13" class="edge">
<title>Node5&#45;&gt;Node12</title>
<path fill="none" stroke="#191970" d="M1178.8736,-224.2455C1193.4308,-215.5731 1214.931,-202.7645 1231.6152,-192.825"/>
<polygon fill="#191970" stroke="#191970" points="1233.5144,-195.7676 1240.3141,-187.6427 1229.9317,-189.7539 1233.5144,-195.7676"/>
</g>
<!-- Node6&#45;&gt;Node2 -->
<g id="edge11" class="edge">
<title>Node6&#45;&gt;Node2</title>
<path fill="none" stroke="#191970" d="M1322.5015,-168.2622C1300.439,-153.4451 1255.7327,-125.5347 1213.5,-112 1154.177,-92.9881 971.0587,-75.7608 892.2202,-69.0138"/>
<polygon fill="#191970" stroke="#191970" points="892.5122,-65.5261 882.2524,-68.1692 891.9211,-72.5011 892.5122,-65.5261"/>
</g>
<!-- Node7 -->
<g id="node8" class="node">
<title>Node7</title>
<g id="a_node8"><a xlink:href="Vec2_8hpp.html" target="_top" xlink:title=" ">
<polygon fill="#ffffff" stroke="#000000" points="1429,-112.5 1429,-131.5 1494,-131.5 1494,-112.5 1429,-112.5"/>
<text text-anchor="middle" x="1461.5" y="-119.5" font-family="'Consolas',monospace" font-size="10.00" fill="#000000">Vec2.hpp</text>
</a>
</g>
</g>
<!-- Node6&#45;&gt;Node7 -->
<g id="edge7" class="edge">
<title>Node6&#45;&gt;Node7</title>
<path fill="none" stroke="#191970" d="M1357.9883,-168.3733C1378.144,-159.3435 1408.488,-145.7494 1431.118,-135.6111"/>
<polygon fill="#191970" stroke="#191970" points="1432.5971,-138.7838 1440.2921,-131.5011 1429.7351,-132.3955 1432.5971,-138.7838"/>
</g>
<!-- Node10 -->
<g id="node11" class="node">
<title>Node10</title>
<g id="a_node11"><a doxygen="/w/doc/cppreference-doxygen-web.tag.xml:http://en.cppreference.com/w/" xlink:href="http://en.cppreference.com/w/cpp/header/functional.html" xlink:title=" ">
<polygon fill="#ffffff" stroke="#000000" points="1181,-.5 1181,-19.5 1258,-19.5 1258,-.5 1181,-.5"/>
<text text-anchor="middle" x="1219.5" y="-7.5" font-family="'Consolas',monospace" font-size="10.00" fill="#000000">functional</text>
</a>
</g>
</g>
<!-- Node6&#45;&gt;Node10 -->
<g id="edge10" class="edge">
<title>Node6&#45;&gt;Node10</title>
<path fill="none" stroke="#191970" d="M1329.8743,-168.4862C1311.0591,-141.4695 1257.0657,-63.9405 1232.2517,-28.3102"/>
<polygon fill="#191970" stroke="#191970" points="1234.9315,-26.0337 1226.3444,-19.8279 1229.1873,-30.0342 1234.9315,-26.0337"/>
</g>
<!-- Node11 -->
<g id="node12" class="node">
<title>Node11</title>
<g id="a_node12"><a doxygen="/w/doc/cppreference-doxygen-web.tag.xml:http://en.cppreference.com/w/" xlink:href="http://en.cppreference.com/w/cpp/header/vector.html" xlink:title=" ">
<polygon fill="#ffffff" stroke="#000000" points="829,-112.5 829,-131.5 882,-131.5 882,-112.5 829,-112.5"/>
<text text-anchor="middle" x="855.5" y="-119.5" font-family="'Consolas',monospace" font-size="10.00" fill="#000000">vector</text>
</a>
</g>
</g>
<!-- Node6&#45;&gt;Node11 -->
<g id="edge12" class="edge">
<title>Node6&#45;&gt;Node11</title>
<path fill="none" stroke="#191970" d="M1300.5531,-169.4473C1297.8356,-168.9183 1295.1289,-168.4278 1292.5,-168 1132.9162,-142.0337 1091.099,-150.6869 930.5,-132 918.087,-130.5557 904.5425,-128.8038 892.4216,-127.1725"/>
<polygon fill="#191970" stroke="#191970" points="892.5814,-123.662 882.2006,-125.7807 891.6369,-130.598 892.5814,-123.662"/>
</g>
<!-- Node8 -->
<g id="node9" class="node">
<title>Node8</title>
<g id="a_node9"><a xlink:title=" ">
<polygon fill="#ffffff" stroke="#bfbfbf" points="1423,-56.5 1423,-75.5 1542,-75.5 1542,-56.5 1423,-56.5"/>
<text text-anchor="middle" x="1482.5" y="-63.5" font-family="'Consolas',monospace" font-size="10.00" fill="#000000">boost/version.hpp</text>
</a>
</g>
</g>
<!-- Node7&#45;&gt;Node8 -->
<g id="edge8" class="edge">
<title>Node7&#45;&gt;Node8</title>
<path fill="none" stroke="#191970" d="M1465.1579,-112.2455C1467.9584,-104.7776 1471.909,-94.2427 1475.3324,-85.1137"/>
<polygon fill="#191970" stroke="#191970" points="1478.6499,-86.2349 1478.884,-75.6427 1472.0955,-83.777 1478.6499,-86.2349"/>
</g>
<!-- Node9 -->
<g id="node10" class="node">
<title>Node9</title>
<g id="a_node10"><a doxygen="/w/doc/cppreference-doxygen-web.tag.xml:http://en.cppreference.com/w/" xlink:href="http://en.cppreference.com/w/cpp/header/iosfwd.html" xlink:title=" ">
<polygon fill="#ffffff" stroke="#000000" points="1352,-56.5 1352,-75.5 1405,-75.5 1405,-56.5 1352,-56.5"/>
<text text-anchor="middle" x="1378.5" y="-63.5" font-family="'Consolas',monospace" font-size="10.00" fill="#000000">iosfwd</text>
</a>
</g>
</g>
<!-- Node7&#45;&gt;Node9 -->
<g id="edge9" class="edge">
<title>Node7&#45;&gt;Node9</title>
<path fill="none" stroke="#191970" d="M1447.0425,-112.2455C1434.4268,-103.7337 1415.9056,-91.2375 1401.2955,-81.3801"/>
<polygon fill="#191970" stroke="#191970" points="1403.0391,-78.3343 1392.7918,-75.6427 1399.1239,-84.1371 1403.0391,-78.3343"/>
</g>
<!-- Node13&#45;&gt;Node2 -->
<g id="edge15" class="edge">
<title>Node13&#45;&gt;Node2</title>
<path fill="none" stroke="#191970" d="M77.1986,-114.1141C82.0005,-113.3083 86.8537,-112.5759 91.5,-112 369.7124,-77.5182 708.2525,-68.6287 818.7314,-66.5684"/>
<polygon fill="#191970" stroke="#191970" points="819.0631,-70.0631 828.9988,-66.3846 818.9377,-63.0642 819.0631,-70.0631"/>
</g>
<!-- Node14&#45;&gt;Node2 -->
<g id="edge19" class="edge">
<title>Node14&#45;&gt;Node2</title>
<path fill="none" stroke="#191970" d="M1095.1475,-112.4369C1037.5328,-101.2728 943.5898,-83.0693 892.1037,-73.0928"/>
<polygon fill="#191970" stroke="#191970" points="892.5761,-69.6193 882.0929,-71.1529 891.2444,-76.4914 892.5761,-69.6193"/>
</g>
<!-- Node15 -->
<g id="node16" class="node">
<title>Node15</title>
<g id="a_node16"><a xlink:href="Finally_8hpp.html" target="_top" xlink:title=" ">
<polygon fill="#ffffff" stroke="#000000" points="1103,-56.5 1103,-75.5 1186,-75.5 1186,-56.5 1103,-56.5"/>
<text text-anchor="middle" x="1144.5" y="-63.5" font-family="'Consolas',monospace" font-size="10.00" fill="#000000">Finally.hpp</text>
</a>
</g>
</g>
<!-- Node14&#45;&gt;Node15 -->
<g id="edge17" class="edge">
<title>Node14&#45;&gt;Node15</title>
<path fill="none" stroke="#191970" d="M1144.5,-112.2455C1144.5,-104.9382 1144.5,-94.6944 1144.5,-85.7046"/>
<polygon fill="#191970" stroke="#191970" points="1148.0001,-85.6426 1144.5,-75.6427 1141.0001,-85.6427 1148.0001,-85.6426"/>
</g>
<!-- Node15&#45;&gt;Node10 -->
<g id="edge18" class="edge">
<title>Node15&#45;&gt;Node10</title>
<path fill="none" stroke="#191970" d="M1157.564,-56.2455C1168.8562,-47.814 1185.3845,-35.4729 1198.5271,-25.6598"/>
<polygon fill="#191970" stroke="#191970" points="1200.6669,-28.4301 1206.5857,-19.6427 1196.4789,-22.8211 1200.6669,-28.4301"/>
</g>
<!-- Node17&#45;&gt;Node2 -->
<g id="edge26" class="edge">
<title>Node17&#45;&gt;Node2</title>
<path fill="none" stroke="#191970" d="M887.4333,-224.4848C893.3983,-203.4938 905.2614,-151.9129 891.5,-112 887.7813,-101.2144 880.3787,-91.0249 873.2481,-82.9904"/>
<polygon fill="#191970" stroke="#191970" points="875.7791,-80.5729 866.3548,-75.7321 870.7033,-85.3934 875.7791,-80.5729"/>
</g>
<!-- Node17&#45;&gt;Node3 -->
<g id="edge27" class="edge">
<title>Node17&#45;&gt;Node3</title>
<path fill="none" stroke="#191970" d="M869.1291,-224.4966C842.7206,-208.2854 789.6339,-176.2369 769.5,-168 723.0756,-149.0075 666.5129,-135.8757 630.2601,-128.6428"/>
<polygon fill="#191970" stroke="#191970" points="630.6319,-125.1495 620.1473,-126.6733 629.2938,-132.0204 630.6319,-125.1495"/>
</g>
<!-- Node17&#45;&gt;Node18 -->
<g id="edge22" class="edge">
<title>Node17&#45;&gt;Node18</title>
<path fill="none" stroke="#191970" d="M907.0197,-224.3733C928.2372,-215.3032 960.2276,-201.6279 983.9769,-191.4755"/>
<polygon fill="#191970" stroke="#191970" points="985.4548,-194.6502 993.2742,-187.5011 982.7033,-188.2136 985.4548,-194.6502"/>
</g>
<!-- Node18&#45;&gt;Node7 -->
<g id="edge24" class="edge">
<title>Node18&#45;&gt;Node7</title>
<path fill="none" stroke="#191970" d="M1054.2168,-169.6209C1057.3513,-169.0381 1060.4748,-168.4889 1063.5,-168 1192.1043,-147.2154 1345.559,-132.2219 1418.6696,-125.6706"/>
<polygon fill="#191970" stroke="#191970" points="1419.2097,-129.1366 1428.8609,-124.7656 1418.5905,-122.164 1419.2097,-129.1366"/>
</g>
<!-- Node18&#45;&gt;Node14 -->
<g id="edge23" class="edge">
<title>Node18&#45;&gt;Node14</title>
<path fill="none" stroke="#191970" d="M1037.6759,-168.3733C1058.4766,-159.3435 1089.7917,-145.7494 1113.1458,-135.6111"/>
<polygon fill="#191970" stroke="#191970" points="1114.8343,-138.6938 1122.6135,-131.5011 1112.0468,-132.2727 1114.8343,-138.6938"/>
</g>
<!-- Node18&#45;&gt;Node19 -->
<g id="edge25" class="edge">
<title>Node18&#45;&gt;Node19</title>
<path fill="none" stroke="#191970" d="M1009.926,-168.2455C1005.5669,-160.617 999.3789,-149.7881 994.0867,-140.5267"/>
<polygon fill="#191970" stroke="#191970" points="997.0104,-138.5886 989.0101,-131.6427 990.9327,-142.0616 997.0104,-138.5886"/>
</g>
<!-- Node20&#45;&gt;Node21 -->
<g id="edge29" class="edge">
<title>Node20&#45;&gt;Node21</title>
<path fill="none" stroke="#191970" d="M558.4479,-224.3733C530.3457,-215.0613 487.5946,-200.8953 456.7393,-190.671"/>
<polygon fill="#191970" stroke="#191970" points="457.7664,-187.3243 447.173,-187.5011 455.5645,-193.969 457.7664,-187.3243"/>
</g>
<!-- Node22 -->
<g id="node23" class="node">
<title>Node22</title>
<g id="a_node23"><a doxygen="/w/doc/cppreference-doxygen-web.tag.xml:http://en.cppreference.com/w/" xlink:href="http://en.cppreference.com/w/cpp/header/sstream.html" xlink:title=" ">
<polygon fill="#ffffff" stroke="#000000" points="478,-168.5 478,-187.5 537,-187.5 537,-168.5 478,-168.5"/>
<text text-anchor="middle" x="507.5" y="-175.5" font-family="'Consolas',monospace" font-size="10.00" fill="#000000">sstream</text>
</a>
</g>
</g>
<!-- Node20&#45;&gt;Node22 -->
<g id="edge31" class="edge">
<title>Node20&#45;&gt;Node22</title>
<path fill="none" stroke="#191970" d="M573.5651,-224.2455C561.4053,-215.7337 543.5536,-203.2375 529.4715,-193.3801"/>
<polygon fill="#191970" stroke="#191970" points="531.4747,-190.51 521.2752,-187.6427 527.4605,-196.2447 531.4747,-190.51"/>
</g>
<!-- Node21&#45;&gt;Node3 -->
<g id="edge30" class="edge">
<title>Node21&#45;&gt;Node3</title>
<path fill="none" stroke="#191970" d="M448.5836,-168.3733C478.6534,-158.7509 524.9204,-143.9455 557.056,-133.6621"/>
<polygon fill="#191970" stroke="#191970" points="558.4972,-136.8758 566.9547,-130.4945 556.3637,-130.2088 558.4972,-136.8758"/>
</g>
<!-- Node23&#45;&gt;Node2 -->
<g id="edge36" class="edge">
<title>Node23&#45;&gt;Node2</title>
<path fill="none" stroke="#191970" d="M1397.7376,-224.2814C1397.5634,-210.2369 1395.2318,-184.1811 1381.5,-168 1340.2653,-119.4106 1311.1067,-128.3048 1249.5,-112 1121.2679,-78.0622 962.9565,-69.1532 892.4201,-66.822"/>
<polygon fill="#191970" stroke="#191970" points="892.3691,-63.3189 882.267,-66.5125 892.1557,-70.3156 892.3691,-63.3189"/>
</g>
<!-- Node23&#45;&gt;Node4 -->
<g id="edge34" class="edge">
<title>Node23&#45;&gt;Node4</title>
<path fill="none" stroke="#191970" d="M1415.7896,-224.2455C1432.2762,-215.4527 1456.7352,-202.4079 1475.4765,-192.4125"/>
<polygon fill="#191970" stroke="#191970" points="1477.2435,-195.4368 1484.42,-187.6427 1473.9494,-189.2604 1477.2435,-195.4368"/>
</g>
<!-- Node23&#45;&gt;Node7 -->
<g id="edge35" class="edge">
<title>Node23&#45;&gt;Node7</title>
<path fill="none" stroke="#191970" d="M1402.9566,-224.4509C1413.5838,-205.8533 1437.2189,-164.4919 1450.9878,-140.3964"/>
<polygon fill="#191970" stroke="#191970" points="1454.1346,-141.9438 1456.0572,-131.5249 1448.0569,-138.4708 1454.1346,-141.9438"/>
</g>
<!-- Node24&#45;&gt;Node2 -->
<g id="edge39" class="edge">
<title>Node24&#45;&gt;Node2</title>
<path fill="none" stroke="#191970" d="M1112.9596,-168.3813C1098.1295,-153.978 1068.0604,-126.9095 1037.5,-112 990.2444,-88.9455 930.2677,-76.6799 892.3714,-70.761"/>
<polygon fill="#191970" stroke="#191970" points="892.7046,-67.272 882.2972,-69.2561 891.6704,-74.1952 892.7046,-67.272"/>
</g>
<!-- Node24&#45;&gt;Node7 -->
<g id="edge38" class="edge">
<title>Node24&#45;&gt;Node7</title>
<path fill="none" stroke="#191970" d="M1173.2517,-169.6162C1240.0887,-158.5753 1356.4301,-139.3567 1418.9168,-129.0344"/>
<polygon fill="#191970" stroke="#191970" points="1419.5384,-132.4792 1428.8342,-127.3961 1418.3974,-125.5728 1419.5384,-132.4792"/>
</g>
<!-- Node25&#45;&gt;Node2 -->
<g id="edge42" class="edge">
<title>Node25&#45;&gt;Node2</title>
<path fill="none" stroke="#191970" d="M193.1108,-169.8816C244.4966,-156.0723 353.683,-127.9586 447.5,-112 583.188,-88.9189 746.2989,-74.4866 818.2734,-68.787"/>
<polygon fill="#191970" stroke="#191970" points="818.9243,-72.2469 828.6212,-67.9783 818.3789,-65.2682 818.9243,-72.2469"/>
</g>
<!-- Node26&#45;&gt;Node15 -->
<g id="edge44" class="edge">
<title>Node26&#45;&gt;Node15</title>
<path fill="none" stroke="#191970" d="M706.6072,-224.3751C690.7259,-211.3184 667.3676,-187.397 680.5,-168 726.5173,-100.0309 981.4597,-76.0944 1092.6378,-68.8074"/>
<polygon fill="#191970" stroke="#191970" points="1092.8615,-72.3003 1102.6192,-68.1727 1092.4173,-65.3144 1092.8615,-72.3003"/>
</g>
<!-- Node26&#45;&gt;Node27 -->
<g id="edge45" class="edge">
<title>Node26&#45;&gt;Node27</title>
<path fill="none" stroke="#191970" d="M720.3709,-224.2455C721.0234,-216.9382 721.938,-206.6944 722.7407,-197.7046"/>
<polygon fill="#191970" stroke="#191970" points="726.2358,-197.9143 723.639,-187.6427 719.2635,-197.2918 726.2358,-197.9143"/>
</g>
<!-- Node26&#45;&gt;Node28 -->
<g id="edge48" class="edge">
<title>Node26&#45;&gt;Node28</title>
<path fill="none" stroke="#191970" d="M697.8398,-224.3733C677.5228,-215.3435 646.936,-201.7494 624.125,-191.6111"/>
<polygon fill="#191970" stroke="#191970" points="625.4372,-188.3642 614.8775,-187.5011 622.5941,-194.7609 625.4372,-188.3642"/>
</g>
<!-- Node27&#45;&gt;Node3 -->
<g id="edge46" class="edge">
<title>Node27&#45;&gt;Node3</title>
<path fill="none" stroke="#191970" d="M701.9803,-168.3733C680.7628,-159.3032 648.7724,-145.6279 625.0231,-135.4755"/>
<polygon fill="#191970" stroke="#191970" points="626.2967,-132.2136 615.7258,-131.5011 623.5452,-138.6502 626.2967,-132.2136"/>
</g>
<!-- Node27&#45;&gt;Node11 -->
<g id="edge47" class="edge">
<title>Node27&#45;&gt;Node11</title>
<path fill="none" stroke="#191970" d="M747.0197,-168.3733C768.2372,-159.3032 800.2276,-145.6279 823.9769,-135.4755"/>
<polygon fill="#191970" stroke="#191970" points="825.4548,-138.6502 833.2742,-131.5011 822.7033,-132.2136 825.4548,-138.6502"/>
</g>
<!-- Node28&#45;&gt;Node3 -->
<g id="edge49" class="edge">
<title>Node28&#45;&gt;Node3</title>
<path fill="none" stroke="#191970" d="M593.5,-168.2455C593.5,-160.9382 593.5,-150.6944 593.5,-141.7046"/>
<polygon fill="#191970" stroke="#191970" points="597.0001,-141.6426 593.5,-131.6427 590.0001,-141.6427 597.0001,-141.6426"/>
</g>
<!-- Node30&#45;&gt;Node7 -->
<g id="edge54" class="edge">
<title>Node30&#45;&gt;Node7</title>
<path fill="none" stroke="#191970" d="M1682.9822,-224.3142C1655.5639,-211.3897 1605.4424,-187.8287 1562.5,-168 1538.8983,-157.1019 1512.1199,-144.9138 1492.0691,-135.8227"/>
<polygon fill="#191970" stroke="#191970" points="1493.363,-132.5665 1482.8098,-131.6278 1490.4742,-138.9426 1493.363,-132.5665"/>
</g>
<!-- Node31&#45;&gt;Node4 -->
<g id="edge56" class="edge">
<title>Node31&#45;&gt;Node4</title>
<path fill="none" stroke="#191970" d="M1521.4937,-224.2455C1518.4265,-216.7776 1514.0997,-206.2427 1510.3503,-197.1137"/>
<polygon fill="#191970" stroke="#191970" points="1513.4972,-195.5631 1506.4604,-187.6427 1507.0221,-198.2226 1513.4972,-195.5631"/>
</g>
<!-- Node31&#45;&gt;Node7 -->
<g id="edge57" class="edge">
<title>Node31&#45;&gt;Node7</title>
<path fill="none" stroke="#191970" d="M1533.46,-224.4886C1543.5975,-211.1464 1558.5501,-186.442 1547.5,-168 1537.897,-151.9731 1520.5947,-141.2162 1504.0144,-134.1638"/>
<polygon fill="#191970" stroke="#191970" points="1504.9881,-130.7872 1494.3993,-130.4276 1502.4527,-137.3119 1504.9881,-130.7872"/>
</g>
<!-- Node32&#45;&gt;Node3 -->
<g id="edge59" class="edge">
<title>Node32&#45;&gt;Node3</title>
<path fill="none" stroke="#191970" d="M359.3494,-169.9758C362.443,-169.3009 365.5257,-168.6345 368.5,-168 434.742,-153.8694 512.1492,-138.2363 556.7329,-129.3173"/>
<polygon fill="#191970" stroke="#191970" points="557.6796,-132.6974 566.8,-127.3059 556.308,-125.8331 557.6796,-132.6974"/>
</g>
<!-- Node33&#45;&gt;Node2 -->
<g id="edge63" class="edge">
<title>Node33&#45;&gt;Node2</title>
<path fill="none" stroke="#191970" d="M840.3382,-168.3749C829.4398,-155.7101 813.542,-132.6358 820.5,-112 824.0695,-101.4138 831.1535,-91.3356 838.0202,-83.3256"/>
<polygon fill="#191970" stroke="#191970" points="840.753,-85.5244 844.941,-75.7924 835.5981,-80.7886 840.753,-85.5244"/>
</g>
<!-- Node33&#45;&gt;Node3 -->
<g id="edge64" class="edge">
<title>Node33&#45;&gt;Node3</title>
<path fill="none" stroke="#191970" d="M816.8174,-170.8507C768.9972,-160.39 680.2289,-140.9719 630.2176,-130.032"/>
<polygon fill="#191970" stroke="#191970" points="630.6796,-126.5503 620.1626,-127.8325 629.1837,-133.3886 630.6796,-126.5503"/>
</g>
<!-- Node33&#45;&gt;Node11 -->
<g id="edge65" class="edge">
<title>Node33&#45;&gt;Node11</title>
<path fill="none" stroke="#191970" d="M850.5451,-168.2455C851.328,-160.9382 852.4256,-150.6944 853.3888,-141.7046"/>
<polygon fill="#191970" stroke="#191970" points="856.8815,-141.9587 854.4669,-131.6427 849.9214,-141.2129 856.8815,-141.9587"/>
</g>
<!-- Node33&#45;&gt;Node19 -->
<g id="edge62" class="edge">
<title>Node33&#45;&gt;Node19</title>
<path fill="none" stroke="#191970" d="M872.5354,-168.3733C894.2388,-159.3032 926.9618,-145.6279 951.255,-135.4755"/>
<polygon fill="#191970" stroke="#191970" points="952.8881,-138.5865 960.7652,-131.5011 950.1889,-132.1278 952.8881,-138.5865"/>
</g>
<!-- Node35&#45;&gt;Node2 -->
<g id="edge70" class="edge">
<title>Node35&#45;&gt;Node2</title>
<path fill="none" stroke="#191970" d="M150.5085,-224.3283C134.196,-211.0108 110.0024,-186.5681 124.5,-168 167.8277,-112.5069 675.5178,-77.1196 818.3327,-68.2157"/>
<polygon fill="#191970" stroke="#191970" points="818.9716,-71.6831 828.737,-67.5739 818.5405,-64.6963 818.9716,-71.6831"/>
</g>
<!-- Node35&#45;&gt;Node25 -->
<g id="edge69" class="edge">
<title>Node35&#45;&gt;Node25</title>
<path fill="none" stroke="#191970" d="M163.5,-224.2455C163.5,-216.9382 163.5,-206.6944 163.5,-197.7046"/>
<polygon fill="#191970" stroke="#191970" points="167.0001,-197.6426 163.5,-187.6427 160.0001,-197.6427 167.0001,-197.6426"/>
</g>
</g>
</svg>
