<?xml version="1.0" encoding="UTF-8" standalone="no"?>
<!DOCTYPE svg PUBLIC "-//W3C//DTD SVG 1.1//EN"
 "http://www.w3.org/Graphics/SVG/1.1/DTD/svg11.dtd">
<!-- Generated by graphviz version 2.40.1 (0)
 -->
<!-- Title: jngl/all.hpp Pages: 1 -->
<svg width="1737pt" height="308pt"
 viewBox="0.00 0.00 1737.00 308.00" xmlns="http://www.w3.org/2000/svg" xmlns:xlink="http://www.w3.org/1999/xlink">
<g id="graph0" class="graph" transform="scale(1 1) rotate(0) translate(4 304)">
<title>jngl/all.hpp</title>
<polygon fill="#ffffff" stroke="transparent" points="-4,4 -4,-304 1733,-304 1733,4 -4,4"/>
<!-- Node0 -->
<g id="node1" class="node">
<title>Node0</title>
<g id="a_node1"><a xlink:title="Includes all JNGL headers.">
<polygon fill="#bfbfbf" stroke="#000000" points="889,-280.5 889,-299.5 978,-299.5 978,-280.5 889,-280.5"/>
<text text-anchor="middle" x="933.5" y="-287.5" font-family="'Consolas',monospace" font-size="10.00" fill="#000000">jngl/all.hpp</text>
</a>
</g>
</g>
<!-- Node1 -->
<g id="node2" class="node">
<title>Node1</title>
<g id="a_node2"><a xlink:href="App_8hpp.html" target="_top" xlink:title=" ">
<polygon fill="#ffffff" stroke="#000000" points="962,-168.5 962,-187.5 1021,-187.5 1021,-168.5 962,-168.5"/>
<text text-anchor="middle" x="991.5" y="-175.5" font-family="'Consolas',monospace" font-size="10.00" fill="#000000">App.hpp</text>
</a>
</g>
</g>
<!-- Node0&#45;&gt;Node1 -->
<g id="edge1" class="edge">
<title>Node0&#45;&gt;Node1</title>
<path fill="none" stroke="#191970" d="M938.445,-280.4509C948.0331,-261.936 969.3051,-220.8591 981.8064,-196.7187"/>
<polygon fill="#191970" stroke="#191970" points="985.0769,-198.0144 986.5675,-187.5249 978.8609,-194.7953 985.0769,-198.0144"/>
</g>
<!-- Node4 -->
<g id="node5" class="node">
<title>Node4</title>
<g id="a_node5"><a xlink:href="Shader_8hpp.html" target="_top" xlink:title=" ">
<polygon fill="#ffffff" stroke="#000000" points="0,-112.5 0,-131.5 77,-131.5 77,-112.5 0,-112.5"/>
<text text-anchor="middle" x="38.5" y="-119.5" font-family="'Consolas',monospace" font-size="10.00" fill="#000000">Shader.hpp</text>
</a>
</g>
</g>
<!-- Node0&#45;&gt;Node4 -->
<g id="edge4" class="edge">
<title>Node0&#45;&gt;Node4</title>
<path fill="none" stroke="#191970" d="M888.7637,-288.6548C722.0814,-283.4933 144.9654,-264.2308 111.5,-244 73.4589,-221.0031 52.8133,-169.9846 43.9145,-141.7516"/>
<polygon fill="#191970" stroke="#191970" points="47.1727,-140.4272 40.9785,-131.8317 40.4605,-142.4139 47.1727,-140.4272"/>
</g>
<!-- Node5 -->
<g id="node6" class="node">
<title>Node5</title>
<g id="a_node6"><a xlink:href="ShaderProgram_8hpp.html" target="_top" xlink:title=" ">
<polygon fill="#ffffff" stroke="#000000" points="210,-112.5 210,-131.5 329,-131.5 329,-112.5 210,-112.5"/>
<text text-anchor="middle" x="269.5" y="-119.5" font-family="'Consolas',monospace" font-size="10.00" fill="#000000">ShaderProgram.hpp</text>
</a>
</g>
</g>
<!-- Node0&#45;&gt;Node5 -->
<g id="edge6" class="edge">
<title>Node0&#45;&gt;Node5</title>
<path fill="none" stroke="#191970" d="M888.9233,-289.684C731.7371,-288.2593 209.2676,-280.7759 144.5,-244 111.66,-225.353 83.7094,-198.1125 106.5,-168 118.1469,-152.6114 160.7077,-140.9095 199.4166,-133.1596"/>
<polygon fill="#191970" stroke="#191970" points="200.5225,-136.5107 209.6768,-131.1768 199.1943,-129.6379 200.5225,-136.5107"/>
</g>
<!-- Node8 -->
<g id="node9" class="node">
<title>Node8</title>
<g id="a_node9"><a xlink:href="Vertex_8hpp.html" target="_top" xlink:title=" ">
<polygon fill="#ffffff" stroke="#000000" points="1652,-224.5 1652,-243.5 1729,-243.5 1729,-224.5 1652,-224.5"/>
<text text-anchor="middle" x="1690.5" y="-231.5" font-family="'Consolas',monospace" font-size="10.00" fill="#000000">Vertex.hpp</text>
</a>
</g>
</g>
<!-- Node0&#45;&gt;Node8 -->
<g id="edge10" class="edge">
<title>Node0&#45;&gt;Node8</title>
<path fill="none" stroke="#191970" d="M978.1715,-289.35C1089.0128,-287.2577 1385.6172,-278.7276 1641.6119,-244.0897"/>
<polygon fill="#191970" stroke="#191970" points="1642.4172,-247.5122 1651.8497,-242.6874 1641.4672,-240.5769 1642.4172,-247.5122"/>
</g>
<!-- Node9 -->
<g id="node10" class="node">
<title>Node9</title>
<g id="a_node10"><a xlink:href="Color_8hpp.html" target="_top" xlink:title=" ">
<polygon fill="#ffffff" stroke="#000000" points="813,-112.5 813,-131.5 884,-131.5 884,-112.5 813,-112.5"/>
<text text-anchor="middle" x="848.5" y="-119.5" font-family="'Consolas',monospace" font-size="10.00" fill="#000000">Color.hpp</text>
</a>
</g>
</g>
<!-- Node0&#45;&gt;Node9 -->
<g id="edge11" class="edge">
<title>Node0&#45;&gt;Node9</title>
<path fill="none" stroke="#191970" d="M934.4305,-280.2603C936.0328,-258.3712 937.2112,-204.3619 914.5,-168 906.1647,-154.6547 892.3843,-144.1468 879.5652,-136.5634"/>
<polygon fill="#191970" stroke="#191970" points="880.9394,-133.3243 870.4925,-131.5596 877.5588,-139.4539 880.9394,-133.3243"/>
</g>
<!-- Node11 -->
<g id="node12" class="node">
<title>Node11</title>
<g id="a_node12"><a xlink:href="Controller_8hpp.html" target="_top" xlink:title=" ">
<polygon fill="#ffffff" stroke="#000000" points="168,-224.5 168,-243.5 269,-243.5 269,-224.5 168,-224.5"/>
<text text-anchor="middle" x="218.5" y="-231.5" font-family="'Consolas',monospace" font-size="10.00" fill="#000000">Controller.hpp</text>
</a>
</g>
</g>
<!-- Node0&#45;&gt;Node11 -->
<g id="edge13" class="edge">
<title>Node0&#45;&gt;Node11</title>
<path fill="none" stroke="#191970" d="M888.8592,-288.1043C783.3333,-283.3476 510.3176,-269.43 283.5,-244 282.1916,-243.8533 280.8692,-243.6995 279.5367,-243.5396"/>
<polygon fill="#191970" stroke="#191970" points="279.5533,-240.013 269.1885,-242.209 278.6605,-246.9559 279.5533,-240.013"/>
</g>
<!-- Node12 -->
<g id="node13" class="node">
<title>Node12</title>
<g id="a_node13"><a xlink:href="input_8hpp.html" target="_top" xlink:title=" ">
<polygon fill="#ffffff" stroke="#000000" points="115,-168.5 115,-187.5 186,-187.5 186,-168.5 115,-168.5"/>
<text text-anchor="middle" x="150.5" y="-175.5" font-family="'Consolas',monospace" font-size="10.00" fill="#000000">input.hpp</text>
</a>
</g>
</g>
<!-- Node0&#45;&gt;Node12 -->
<g id="edge39" class="edge">
<title>Node0&#45;&gt;Node12</title>
<path fill="none" stroke="#191970" d="M888.9029,-288.9011C728.139,-284.7407 186.3913,-268.9173 159.5,-244 147.1975,-232.6006 145.9458,-212.9344 147.1723,-198.0268"/>
<polygon fill="#191970" stroke="#191970" points="150.6869,-198.1265 148.4513,-187.7702 143.7407,-197.2602 150.6869,-198.1265"/>
</g>
<!-- Node18 -->
<g id="node19" class="node">
<title>Node18</title>
<g id="a_node19"><a xlink:href="debug_8hpp_source.html" target="_top" xlink:title=" ">
<polygon fill="#ffffff" stroke="#000000" points="1186,-224.5 1186,-243.5 1257,-243.5 1257,-224.5 1186,-224.5"/>
<text text-anchor="middle" x="1221.5" y="-231.5" font-family="'Consolas',monospace" font-size="10.00" fill="#000000">debug.hpp</text>
</a>
</g>
</g>
<!-- Node0&#45;&gt;Node18 -->
<g id="edge23" class="edge">
<title>Node0&#45;&gt;Node18</title>
<path fill="none" stroke="#191970" d="M978.184,-281.3114C1031.9155,-270.8636 1121.6167,-253.4218 1175.7979,-242.8865"/>
<polygon fill="#191970" stroke="#191970" points="1176.6638,-246.2838 1185.8119,-240.9394 1175.3277,-239.4125 1176.6638,-246.2838"/>
</g>
<!-- Node19 -->
<g id="node20" class="node">
<title>Node19</title>
<g id="a_node20"><a xlink:href="message_8hpp_source.html" target="_top" xlink:title=" ">
<polygon fill="#ffffff" stroke="#000000" points="1366,-168.5 1366,-187.5 1449,-187.5 1449,-168.5 1366,-168.5"/>
<text text-anchor="middle" x="1407.5" y="-175.5" font-family="'Consolas',monospace" font-size="10.00" fill="#000000">message.hpp</text>
</a>
</g>
</g>
<!-- Node0&#45;&gt;Node19 -->
<g id="edge54" class="edge">
<title>Node0&#45;&gt;Node19</title>
<path fill="none" stroke="#191970" d="M978.1725,-288.5744C1043.0736,-285.4503 1166.5937,-275.5144 1266.5,-244 1285.0773,-238.14 1287.9491,-232.4512 1305.5,-224 1328.9642,-212.7014 1355.8255,-200.6214 1376.0912,-191.6769"/>
<polygon fill="#191970" stroke="#191970" points="1377.7205,-194.784 1385.4661,-187.5551 1374.9031,-188.376 1377.7205,-194.784"/>
</g>
<!-- Node21 -->
<g id="node22" class="node">
<title>Node21</title>
<g id="a_node22"><a xlink:href="drawable_8hpp_source.html" target="_top" xlink:title=" ">
<polygon fill="#ffffff" stroke="#000000" points="1012,-112.5 1012,-131.5 1101,-131.5 1101,-112.5 1012,-112.5"/>
<text text-anchor="middle" x="1056.5" y="-119.5" font-family="'Consolas',monospace" font-size="10.00" fill="#000000">drawable.hpp</text>
</a>
</g>
</g>
<!-- Node0&#45;&gt;Node21 -->
<g id="edge28" class="edge">
<title>Node0&#45;&gt;Node21</title>
<path fill="none" stroke="#191970" d="M945.1667,-280.4317C965.0624,-263.5866 1005.7943,-226.7337 1030.5,-188 1039.8018,-173.4166 1046.7231,-154.9687 1051.0761,-141.2865"/>
<polygon fill="#191970" stroke="#191970" points="1054.4908,-142.0843 1054.0129,-131.5003 1047.7862,-140.0723 1054.4908,-142.0843"/>
</g>
<!-- Node22 -->
<g id="node23" class="node">
<title>Node22</title>
<g id="a_node23"><a xlink:href="font_8hpp.html" target="_top" xlink:title=" ">
<polygon fill="#ffffff" stroke="#000000" points="840,-168.5 840,-187.5 905,-187.5 905,-168.5 840,-168.5"/>
<text text-anchor="middle" x="872.5" y="-175.5" font-family="'Consolas',monospace" font-size="10.00" fill="#000000">font.hpp</text>
</a>
</g>
</g>
<!-- Node0&#45;&gt;Node22 -->
<g id="edge30" class="edge">
<title>Node0&#45;&gt;Node22</title>
<path fill="none" stroke="#191970" d="M928.2992,-280.4509C918.1701,-261.8533 895.6429,-220.4919 882.5195,-196.3964"/>
<polygon fill="#191970" stroke="#191970" points="885.5444,-194.6328 877.6877,-187.5249 879.3971,-197.9809 885.5444,-194.6328"/>
</g>
<!-- Node23 -->
<g id="node24" class="node">
<title>Node23</title>
<g id="a_node24"><a xlink:href="framebuffer_8hpp_source.html" target="_top" xlink:title=" ">
<polygon fill="#ffffff" stroke="#000000" points="436,-168.5 436,-187.5 537,-187.5 537,-168.5 436,-168.5"/>
<text text-anchor="middle" x="486.5" y="-175.5" font-family="'Consolas',monospace" font-size="10.00" fill="#000000">framebuffer.hpp</text>
</a>
</g>
</g>
<!-- Node0&#45;&gt;Node23 -->
<g id="edge35" class="edge">
<title>Node0&#45;&gt;Node23</title>
<path fill="none" stroke="#191970" d="M888.9941,-286.4666C808.8566,-279.7058 643.5968,-263.8326 589.5,-244 557.5394,-232.2828 525.2239,-209.3659 505.5263,-193.8666"/>
<polygon fill="#191970" stroke="#191970" points="507.6385,-191.0739 497.6527,-187.5335 503.2511,-196.5283 507.6385,-191.0739"/>
</g>
<!-- Node24 -->
<g id="node25" class="node">
<title>Node24</title>
<g id="a_node25"><a xlink:href="job_8hpp.html" target="_top" xlink:title=" ">
<polygon fill="#ffffff" stroke="#000000" points="347,-112.5 347,-131.5 406,-131.5 406,-112.5 347,-112.5"/>
<text text-anchor="middle" x="376.5" y="-119.5" font-family="'Consolas',monospace" font-size="10.00" fill="#000000">job.hpp</text>
</a>
</g>
</g>
<!-- Node0&#45;&gt;Node24 -->
<g id="edge40" class="edge">
<title>Node0&#45;&gt;Node24</title>
<path fill="none" stroke="#191970" d="M888.7249,-289.0163C805.1859,-286.4237 620.282,-277.1079 468.5,-244 393.6592,-227.6751 350.0037,-250.3464 305.5,-188 290.8476,-167.4731 317.6784,-148.3623 342.4469,-136.0435"/>
<polygon fill="#191970" stroke="#191970" points="344.1904,-139.0913 351.748,-131.666 341.2095,-132.7577 344.1904,-139.0913"/>
</g>
<!-- Node25 -->
<g id="node26" class="node">
<title>Node25</title>
<g id="a_node26"><a xlink:href="main_8hpp_source.html" target="_top" xlink:title=" ">
<polygon fill="#ffffff" stroke="#000000" points="1314,-224.5 1314,-243.5 1379,-243.5 1379,-224.5 1314,-224.5"/>
<text text-anchor="middle" x="1346.5" y="-231.5" font-family="'Consolas',monospace" font-size="10.00" fill="#000000">main.hpp</text>
</a>
</g>
</g>
<!-- Node0&#45;&gt;Node25 -->
<g id="edge43" class="edge">
<title>Node0&#45;&gt;Node25</title>
<path fill="none" stroke="#191970" d="M978.1868,-285.6157C1047.3191,-278.5556 1184.2566,-263.4661 1299.5,-244 1300.9652,-243.7525 1302.4541,-243.491 1303.9562,-243.2187"/>
<polygon fill="#191970" stroke="#191970" points="1304.7925,-246.6222 1313.9523,-241.2978 1303.4714,-239.7479 1304.7925,-246.6222"/>
</g>
<!-- Node26 -->
<g id="node27" class="node">
<title>Node26</title>
<g id="a_node27"><a xlink:href="other_8hpp.html" target="_top" xlink:title=" ">
<polygon fill="#ffffff" stroke="#000000" points="1277,-168.5 1277,-187.5 1348,-187.5 1348,-168.5 1277,-168.5"/>
<text text-anchor="middle" x="1312.5" y="-175.5" font-family="'Consolas',monospace" font-size="10.00" fill="#000000">other.hpp</text>
</a>
</g>
</g>
<!-- Node0&#45;&gt;Node26 -->
<g id="edge55" class="edge">
<title>Node0&#45;&gt;Node26</title>
<path fill="none" stroke="#191970" d="M965.8133,-280.4509C1034.3404,-260.2002 1194.2017,-212.9589 1270.5112,-190.4083"/>
<polygon fill="#191970" stroke="#191970" points="1271.6704,-193.7155 1280.2685,-187.5249 1269.6865,-187.0024 1271.6704,-193.7155"/>
</g>
<!-- Node27 -->
<g id="node28" class="node">
<title>Node27</title>
<g id="a_node28"><a xlink:href="window_8hpp.html" target="_top" xlink:title="Functions related to the main window.">
<polygon fill="#ffffff" stroke="#000000" points="1506,-168.5 1506,-187.5 1583,-187.5 1583,-168.5 1506,-168.5"/>
<text text-anchor="middle" x="1544.5" y="-175.5" font-family="'Consolas',monospace" font-size="10.00" fill="#000000">window.hpp</text>
</a>
</g>
</g>
<!-- Node0&#45;&gt;Node27 -->
<g id="edge85" class="edge">
<title>Node0&#45;&gt;Node27</title>
<path fill="none" stroke="#191970" d="M978.3013,-287.3782C1077.2949,-281.2761 1311.9397,-265.0285 1388.5,-244 1408.8245,-238.4176 1412.1779,-232.4204 1431.5,-224 1457.8866,-212.501 1488.1003,-200.2483 1510.6431,-191.2822"/>
<polygon fill="#191970" stroke="#191970" points="1512.1025,-194.4687 1520.1096,-187.5307 1509.5235,-187.9611 1512.1025,-194.4687"/>
</g>
<!-- Node28 -->
<g id="node29" class="node">
<title>Node28</title>
<g id="a_node29"><a xlink:href="matrix_8hpp_source.html" target="_top" xlink:title=" ">
<polygon fill="#ffffff" stroke="#000000" points="1474,-224.5 1474,-243.5 1551,-243.5 1551,-224.5 1474,-224.5"/>
<text text-anchor="middle" x="1512.5" y="-231.5" font-family="'Consolas',monospace" font-size="10.00" fill="#000000">matrix.hpp</text>
</a>
</g>
</g>
<!-- Node0&#45;&gt;Node28 -->
<g id="edge52" class="edge">
<title>Node0&#45;&gt;Node28</title>
<path fill="none" stroke="#191970" d="M978.0008,-287.6036C1068.8265,-282.3834 1281.9648,-268.4501 1459.5,-244 1460.9494,-243.8004 1462.4193,-243.5879 1463.9018,-243.3648"/>
<polygon fill="#191970" stroke="#191970" points="1464.4738,-246.8179 1473.7854,-241.7638 1463.3544,-239.908 1464.4738,-246.8179"/>
</g>
<!-- Node29 -->
<g id="node30" class="node">
<title>Node29</title>
<g id="a_node30"><a xlink:href="screen_8hpp.html" target="_top" xlink:title=" ">
<polygon fill="#ffffff" stroke="#000000" points="650,-168.5 650,-187.5 727,-187.5 727,-168.5 650,-168.5"/>
<text text-anchor="middle" x="688.5" y="-175.5" font-family="'Consolas',monospace" font-size="10.00" fill="#000000">screen.hpp</text>
</a>
</g>
</g>
<!-- Node0&#45;&gt;Node29 -->
<g id="edge56" class="edge">
<title>Node0&#45;&gt;Node29</title>
<path fill="none" stroke="#191970" d="M912.6114,-280.4509C869.217,-260.6135 769.1659,-214.8758 718.7299,-191.8194"/>
<polygon fill="#191970" stroke="#191970" points="719.8856,-188.4994 709.3357,-187.5249 716.9753,-194.8657 719.8856,-188.4994"/>
</g>
<!-- Node30 -->
<g id="node31" class="node">
<title>Node30</title>
<g id="a_node31"><a xlink:href="shapes_8hpp.html" target="_top" xlink:title=" ">
<polygon fill="#ffffff" stroke="#000000" points="745,-168.5 745,-187.5 822,-187.5 822,-168.5 745,-168.5"/>
<text text-anchor="middle" x="783.5" y="-175.5" font-family="'Consolas',monospace" font-size="10.00" fill="#000000">shapes.hpp</text>
</a>
</g>
</g>
<!-- Node0&#45;&gt;Node30 -->
<g id="edge59" class="edge">
<title>Node0&#45;&gt;Node30</title>
<path fill="none" stroke="#191970" d="M920.7111,-280.4509C894.8073,-261.1094 835.9284,-217.1465 804.38,-193.5904"/>
<polygon fill="#191970" stroke="#191970" points="806.3634,-190.7033 796.2565,-187.5249 802.1753,-196.3123 806.3634,-190.7033"/>
</g>
<!-- Node31 -->
<g id="node32" class="node">
<title>Node31</title>
<g id="a_node32"><a xlink:href="sound_8hpp_source.html" target="_top" xlink:title=" ">
<polygon fill="#ffffff" stroke="#000000" points="1601,-168.5 1601,-187.5 1672,-187.5 1672,-168.5 1601,-168.5"/>
<text text-anchor="middle" x="1636.5" y="-175.5" font-family="'Consolas',monospace" font-size="10.00" fill="#000000">sound.hpp</text>
</a>
</g>
</g>
<!-- Node0&#45;&gt;Node31 -->
<g id="edge62" class="edge">
<title>Node0&#45;&gt;Node31</title>
<path fill="none" stroke="#191970" d="M978.2161,-287.8051C1082.6825,-282.3547 1340.2029,-266.9645 1423.5,-244 1443.4314,-238.505 1446.1041,-231.1593 1465.5,-224 1488.3955,-215.5489 1548.6665,-199.8867 1591.1455,-189.2088"/>
<polygon fill="#191970" stroke="#191970" points="1592.1405,-192.5677 1600.9905,-186.743 1590.4397,-185.7775 1592.1405,-192.5677"/>
</g>
<!-- Node32 -->
<g id="node33" class="node">
<title>Node32</title>
<g id="a_node33"><a xlink:href="sprite_8hpp_source.html" target="_top" xlink:title=" ">
<polygon fill="#ffffff" stroke="#000000" points="555,-168.5 555,-187.5 632,-187.5 632,-168.5 555,-168.5"/>
<text text-anchor="middle" x="593.5" y="-175.5" font-family="'Consolas',monospace" font-size="10.00" fill="#000000">sprite.hpp</text>
</a>
</g>
</g>
<!-- Node0&#45;&gt;Node32 -->
<g id="edge65" class="edge">
<title>Node0&#45;&gt;Node32</title>
<path fill="none" stroke="#191970" d="M903.8314,-280.4698C875.0871,-271.2174 830.2745,-256.7425 791.5,-244 735.807,-225.6975 671.4256,-204.1679 631.582,-190.8004"/>
<polygon fill="#191970" stroke="#191970" points="632.5952,-187.4486 622.0012,-187.5847 630.3677,-194.0848 632.5952,-187.4486"/>
</g>
<!-- Node33 -->
<g id="node34" class="node">
<title>Node33</title>
<g id="a_node34"><a xlink:href="text_8hpp.html" target="_top" xlink:title=" ">
<polygon fill="#ffffff" stroke="#000000" points="1078,-168.5 1078,-187.5 1143,-187.5 1143,-168.5 1078,-168.5"/>
<text text-anchor="middle" x="1110.5" y="-175.5" font-family="'Consolas',monospace" font-size="10.00" fill="#000000">text.hpp</text>
</a>
</g>
</g>
<!-- Node0&#45;&gt;Node33 -->
<g id="edge73" class="edge">
<title>Node0&#45;&gt;Node33</title>
<path fill="none" stroke="#191970" d="M978.3038,-281.3132C1005.0036,-274.4839 1038.458,-262.881 1063.5,-244 1079.9268,-231.6147 1092.9241,-211.84 1101.0492,-197.1612"/>
<polygon fill="#191970" stroke="#191970" points="1104.3271,-198.4472 1105.8781,-187.9665 1098.1298,-195.1924 1104.3271,-198.4472"/>
</g>
<!-- Node34 -->
<g id="node35" class="node">
<title>Node34</title>
<g id="a_node35"><a xlink:href="time_8hpp_source.html" target="_top" xlink:title=" ">
<polygon fill="#ffffff" stroke="#000000" points="1569,-224.5 1569,-243.5 1634,-243.5 1634,-224.5 1569,-224.5"/>
<text text-anchor="middle" x="1601.5" y="-231.5" font-family="'Consolas',monospace" font-size="10.00" fill="#000000">time.hpp</text>
</a>
</g>
</g>
<!-- Node0&#45;&gt;Node34 -->
<g id="edge79" class="edge">
<title>Node0&#45;&gt;Node34</title>
<path fill="none" stroke="#191970" d="M978.2633,-289.2611C1079.9959,-287.0363 1336.399,-278.353 1559.0195,-244.0107"/>
<polygon fill="#191970" stroke="#191970" points="1559.5857,-247.4647 1568.925,-242.462 1558.5044,-240.5488 1559.5857,-247.4647"/>
</g>
<!-- Node35 -->
<g id="node36" class="node">
<title>Node35</title>
<g id="a_node36"><a xlink:href="Video_8hpp.html" target="_top" xlink:title=" ">
<polygon fill="#ffffff" stroke="#000000" points="598,-224.5 598,-243.5 669,-243.5 669,-224.5 598,-224.5"/>
<text text-anchor="middle" x="633.5" y="-231.5" font-family="'Consolas',monospace" font-size="10.00" fill="#000000">Video.hpp</text>
</a>
</g>
</g>
<!-- Node0&#45;&gt;Node35 -->
<g id="edge81" class="edge">
<title>Node0&#45;&gt;Node35</title>
<path fill="none" stroke="#191970" d="M888.9109,-281.6767C832.6713,-271.1786 736.4568,-253.2186 679.5397,-242.5941"/>
<polygon fill="#191970" stroke="#191970" points="679.8603,-239.0935 669.3879,-240.6991 678.5758,-245.9747 679.8603,-239.0935"/>
</g>
<!-- Node36 -->
<g id="node37" class="node">
<title>Node36</title>
<g id="a_node37"><a xlink:href="work_8hpp.html" target="_top" xlink:title=" ">
<polygon fill="#ffffff" stroke="#000000" points="314,-168.5 314,-187.5 379,-187.5 379,-168.5 314,-168.5"/>
<text text-anchor="middle" x="346.5" y="-175.5" font-family="'Consolas',monospace" font-size="10.00" fill="#000000">work.hpp</text>
</a>
</g>
</g>
<!-- Node0&#45;&gt;Node36 -->
<g id="edge86" class="edge">
<title>Node0&#45;&gt;Node36</title>
<path fill="none" stroke="#191970" d="M888.7858,-287.6425C816.0698,-283.1537 667.9901,-271.2785 545.5,-244 485.8158,-230.7083 418.7714,-206.4409 379.7267,-191.3258"/>
<polygon fill="#191970" stroke="#191970" points="380.5435,-187.8873 369.9554,-187.5073 377.9955,-194.4071 380.5435,-187.8873"/>
</g>
<!-- Node2 -->
<g id="node3" class="node">
<title>Node2</title>
<g id="a_node3"><a doxygen="/w/doc/cppreference-doxygen-web.tag.xml:http://en.cppreference.com/w/" xlink:href="http://en.cppreference.com/w/cpp/header/memory.html" xlink:title=" ">
<polygon fill="#ffffff" stroke="#000000" points="408,-56.5 408,-75.5 461,-75.5 461,-56.5 408,-56.5"/>
<text text-anchor="middle" x="434.5" y="-63.5" font-family="'Consolas',monospace" font-size="10.00" fill="#000000">memory</text>
</a>
</g>
</g>
<!-- Node1&#45;&gt;Node2 -->
<g id="edge2" class="edge">
<title>Node1&#45;&gt;Node2</title>
<path fill="none" stroke="#191970" d="M990.66,-168.462C988.797,-153.6512 982.8979,-125.4319 964.5,-112 923.4515,-82.0312 559.0361,-81.4052 508.5,-76 496.3366,-74.699 483.0863,-72.9985 471.2028,-71.3697"/>
<polygon fill="#191970" stroke="#191970" points="471.5613,-67.8859 461.1732,-69.9687 470.5928,-74.8186 471.5613,-67.8859"/>
</g>
<!-- Node3 -->
<g id="node4" class="node">
<title>Node3</title>
<g id="a_node4"><a doxygen="/w/doc/cppreference-doxygen-web.tag.xml:http://en.cppreference.com/w/" xlink:href="http://en.cppreference.com/w/cpp/header/string.html" xlink:title=" ">
<polygon fill="#ffffff" stroke="#000000" points="1196,-112.5 1196,-131.5 1249,-131.5 1249,-112.5 1196,-112.5"/>
<text text-anchor="middle" x="1222.5" y="-119.5" font-family="'Consolas',monospace" font-size="10.00" fill="#000000">string</text>
</a>
</g>
</g>
<!-- Node1&#45;&gt;Node3 -->
<g id="edge3" class="edge">
<title>Node1&#45;&gt;Node3</title>
<path fill="none" stroke="#191970" d="M1021.2263,-170.7936C1063.3689,-160.5772 1140.4136,-141.8997 1185.981,-130.8531"/>
<polygon fill="#191970" stroke="#191970" points="1186.8571,-134.2422 1195.751,-128.4846 1185.2078,-127.4392 1186.8571,-134.2422"/>
</g>
<!-- Node4&#45;&gt;Node2 -->
<g id="edge5" class="edge">
<title>Node4&#45;&gt;Node2</title>
<path fill="none" stroke="#191970" d="M77.1912,-116.5285C153.5221,-105.7343 322.5817,-81.8268 397.5109,-71.2308"/>
<polygon fill="#191970" stroke="#191970" points="398.4494,-74.633 407.8608,-69.7672 397.4692,-67.7019 398.4494,-74.633"/>
</g>
<!-- Node5&#45;&gt;Node2 -->
<g id="edge9" class="edge">
<title>Node5&#45;&gt;Node2</title>
<path fill="none" stroke="#191970" d="M297.8645,-112.3733C325.5966,-102.9611 367.9404,-88.5899 398.1338,-78.3425"/>
<polygon fill="#191970" stroke="#191970" points="399.5243,-81.5667 407.8689,-75.0384 397.2745,-74.9381 399.5243,-81.5667"/>
</g>
<!-- Node6 -->
<g id="node7" class="node">
<title>Node6</title>
<g id="a_node7"><a xlink:href="Finally_8hpp.html" target="_top" xlink:title=" ">
<polygon fill="#ffffff" stroke="#000000" points="725,-56.5 725,-75.5 808,-75.5 808,-56.5 725,-56.5"/>
<text text-anchor="middle" x="766.5" y="-63.5" font-family="'Consolas',monospace" font-size="10.00" fill="#000000">Finally.hpp</text>
</a>
</g>
</g>
<!-- Node5&#45;&gt;Node6 -->
<g id="edge7" class="edge">
<title>Node5&#45;&gt;Node6</title>
<path fill="none" stroke="#191970" d="M329.3154,-113.1482C332.4197,-112.7461 335.4955,-112.3606 338.5,-112 502.7853,-92.2842 547.7937,-100.2521 714.6927,-76.1484"/>
<polygon fill="#191970" stroke="#191970" points="715.4251,-79.5787 724.8138,-74.6693 714.4128,-72.6522 715.4251,-79.5787"/>
</g>
<!-- Node7 -->
<g id="node8" class="node">
<title>Node7</title>
<g id="a_node8"><a doxygen="/w/doc/cppreference-doxygen-web.tag.xml:http://en.cppreference.com/w/" xlink:href="http://en.cppreference.com/w/cpp/header/functional.html" xlink:title=" ">
<polygon fill="#ffffff" stroke="#000000" points="397,-.5 397,-19.5 474,-19.5 474,-.5 397,-.5"/>
<text text-anchor="middle" x="435.5" y="-7.5" font-family="'Consolas',monospace" font-size="10.00" fill="#000000">functional</text>
</a>
</g>
</g>
<!-- Node6&#45;&gt;Node7 -->
<g id="edge8" class="edge">
<title>Node6&#45;&gt;Node7</title>
<path fill="none" stroke="#191970" d="M724.7791,-57.5419C721.9793,-57.0094 719.2,-56.4908 716.5,-56 635.2279,-41.2253 540.3308,-26.1397 484.2225,-17.444"/>
<polygon fill="#191970" stroke="#191970" points="484.6266,-13.965 474.2093,-15.8962 483.5572,-20.8828 484.6266,-13.965"/>
</g>
<!-- Node10 -->
<g id="node11" class="node">
<title>Node10</title>
<g id="a_node11"><a xlink:href="dll_8hpp_source.html" target="_top" xlink:title=" ">
<polygon fill="#ffffff" stroke="#000000" points="1027,-56.5 1027,-75.5 1086,-75.5 1086,-56.5 1027,-56.5"/>
<text text-anchor="middle" x="1056.5" y="-63.5" font-family="'Consolas',monospace" font-size="10.00" fill="#000000">dll.hpp</text>
</a>
</g>
</g>
<!-- Node9&#45;&gt;Node10 -->
<g id="edge12" class="edge">
<title>Node9&#45;&gt;Node10</title>
<path fill="none" stroke="#191970" d="M884.2565,-112.3733C921.2552,-102.412 978.8853,-86.8963 1017.155,-76.5929"/>
<polygon fill="#191970" stroke="#191970" points="1018.1759,-79.9427 1026.9222,-73.9633 1016.3561,-73.1834 1018.1759,-79.9427"/>
</g>
<!-- Node11&#45;&gt;Node12 -->
<g id="edge14" class="edge">
<title>Node11&#45;&gt;Node12</title>
<path fill="none" stroke="#191970" d="M206.6553,-224.2455C196.612,-215.9746 182.0005,-203.9416 170.1996,-194.2232"/>
<polygon fill="#191970" stroke="#191970" points="172.1533,-191.298 162.209,-187.6427 167.7033,-196.7015 172.1533,-191.298"/>
</g>
<!-- Node17 -->
<g id="node18" class="node">
<title>Node17</title>
<g id="a_node18"><a doxygen="/w/doc/cppreference-doxygen-web.tag.xml:http://en.cppreference.com/w/" xlink:href="http://en.cppreference.com/w/cpp/header/chrono.html" xlink:title=" ">
<polygon fill="#ffffff" stroke="#000000" points="204,-168.5 204,-187.5 257,-187.5 257,-168.5 204,-168.5"/>
<text text-anchor="middle" x="230.5" y="-175.5" font-family="'Consolas',monospace" font-size="10.00" fill="#000000">chrono</text>
</a>
</g>
</g>
<!-- Node11&#45;&gt;Node17 -->
<g id="edge22" class="edge">
<title>Node11&#45;&gt;Node17</title>
<path fill="none" stroke="#191970" d="M220.5902,-224.2455C222.1561,-216.9382 224.3512,-206.6944 226.2776,-197.7046"/>
<polygon fill="#191970" stroke="#191970" points="229.7607,-198.1541 228.4337,-187.6427 222.916,-196.6873 229.7607,-198.1541"/>
</g>
<!-- Node12&#45;&gt;Node2 -->
<g id="edge21" class="edge">
<title>Node12&#45;&gt;Node2</title>
<path fill="none" stroke="#191970" d="M153.5709,-168.1263C158.6964,-153.3899 170.4589,-125.8921 190.5,-112 223.5036,-89.1225 337.7085,-75.1799 397.439,-69.2844"/>
<polygon fill="#191970" stroke="#191970" points="397.9604,-72.7505 407.5794,-68.3093 397.2903,-65.7826 397.9604,-72.7505"/>
</g>
<!-- Node12&#45;&gt;Node7 -->
<g id="edge19" class="edge">
<title>Node12&#45;&gt;Node7</title>
<path fill="none" stroke="#191970" d="M150.3515,-168.2009C150.666,-154.056 153.303,-127.8764 167.5,-112 224.7504,-47.9772 326.5496,-23.9219 386.8543,-15.0413"/>
<polygon fill="#191970" stroke="#191970" points="387.4638,-18.4903 396.8871,-13.6476 386.5006,-11.5569 387.4638,-18.4903"/>
</g>
<!-- Node13 -->
<g id="node14" class="node">
<title>Node13</title>
<g id="a_node14"><a xlink:href="Vec2_8hpp.html" target="_top" xlink:title=" ">
<polygon fill="#ffffff" stroke="#000000" points="615,-112.5 615,-131.5 680,-131.5 680,-112.5 615,-112.5"/>
<text text-anchor="middle" x="647.5" y="-119.5" font-family="'Consolas',monospace" font-size="10.00" fill="#000000">Vec2.hpp</text>
</a>
</g>
</g>
<!-- Node12&#45;&gt;Node13 -->
<g id="edge15" class="edge">
<title>Node12&#45;&gt;Node13</title>
<path fill="none" stroke="#191970" d="M186.2884,-169.6499C189.3952,-169.0458 192.4977,-168.4846 195.5,-168 344.9197,-143.8799 524.2893,-130.0743 604.7631,-124.672"/>
<polygon fill="#191970" stroke="#191970" points="605.2457,-128.1478 614.9928,-123.995 604.7834,-121.1631 605.2457,-128.1478"/>
</g>
<!-- Node16 -->
<g id="node17" class="node">
<title>Node16</title>
<g id="a_node17"><a doxygen="/w/doc/cppreference-doxygen-web.tag.xml:http://en.cppreference.com/w/" xlink:href="http://en.cppreference.com/w/cpp/header/vector.html" xlink:title=" ">
<polygon fill="#ffffff" stroke="#000000" points="902,-112.5 902,-131.5 955,-131.5 955,-112.5 902,-112.5"/>
<text text-anchor="middle" x="928.5" y="-119.5" font-family="'Consolas',monospace" font-size="10.00" fill="#000000">vector</text>
</a>
</g>
</g>
<!-- Node12&#45;&gt;Node16 -->
<g id="edge20" class="edge">
<title>Node12&#45;&gt;Node16</title>
<path fill="none" stroke="#191970" d="M186.2641,-169.4867C189.3762,-168.918 192.4865,-168.4096 195.5,-168 499.9975,-126.6104 585.2543,-181.7867 891.8237,-131.9375"/>
<polygon fill="#191970" stroke="#191970" points="892.593,-135.3579 901.8895,-130.2762 891.453,-128.4514 892.593,-135.3579"/>
</g>
<!-- Node13&#45;&gt;Node10 -->
<g id="edge16" class="edge">
<title>Node13&#45;&gt;Node10</title>
<path fill="none" stroke="#191970" d="M680.0487,-114.708C684.8813,-113.732 689.8118,-112.7952 694.5,-112 811.0022,-92.2393 949.9079,-76.8545 1016.7246,-69.9591"/>
<polygon fill="#191970" stroke="#191970" points="1017.2234,-73.4264 1026.8149,-68.9259 1016.5103,-66.4628 1017.2234,-73.4264"/>
</g>
<!-- Node14 -->
<g id="node15" class="node">
<title>Node14</title>
<g id="a_node15"><a xlink:title=" ">
<polygon fill="#ffffff" stroke="#bfbfbf" points="588,-56.5 588,-75.5 707,-75.5 707,-56.5 588,-56.5"/>
<text text-anchor="middle" x="647.5" y="-63.5" font-family="'Consolas',monospace" font-size="10.00" fill="#000000">boost/version.hpp</text>
</a>
</g>
</g>
<!-- Node13&#45;&gt;Node14 -->
<g id="edge17" class="edge">
<title>Node13&#45;&gt;Node14</title>
<path fill="none" stroke="#191970" d="M647.5,-112.2455C647.5,-104.9382 647.5,-94.6944 647.5,-85.7046"/>
<polygon fill="#191970" stroke="#191970" points="651.0001,-85.6426 647.5,-75.6427 644.0001,-85.6427 651.0001,-85.6426"/>
</g>
<!-- Node15 -->
<g id="node16" class="node">
<title>Node15</title>
<g id="a_node16"><a doxygen="/w/doc/cppreference-doxygen-web.tag.xml:http://en.cppreference.com/w/" xlink:href="http://en.cppreference.com/w/cpp/header/iosfwd.html" xlink:title=" ">
<polygon fill="#ffffff" stroke="#000000" points="517,-56.5 517,-75.5 570,-75.5 570,-56.5 517,-56.5"/>
<text text-anchor="middle" x="543.5" y="-63.5" font-family="'Consolas',monospace" font-size="10.00" fill="#000000">iosfwd</text>
</a>
</g>
</g>
<!-- Node13&#45;&gt;Node15 -->
<g id="edge18" class="edge">
<title>Node13&#45;&gt;Node15</title>
<path fill="none" stroke="#191970" d="M629.3846,-112.2455C613.055,-103.4527 588.829,-90.4079 570.2661,-80.4125"/>
<polygon fill="#191970" stroke="#191970" points="571.8719,-77.3021 561.4078,-75.6427 568.5532,-83.4654 571.8719,-77.3021"/>
</g>
<!-- Node18&#45;&gt;Node19 -->
<g id="edge24" class="edge">
<title>Node18&#45;&gt;Node19</title>
<path fill="none" stroke="#191970" d="M1253.4745,-224.3733C1284.6713,-214.9807 1332.271,-200.6496 1366.2932,-190.4064"/>
<polygon fill="#191970" stroke="#191970" points="1367.3763,-193.7355 1375.9427,-187.5011 1365.3582,-187.0327 1367.3763,-193.7355"/>
</g>
<!-- Node20 -->
<g id="node21" class="node">
<title>Node20</title>
<g id="a_node21"><a doxygen="/w/doc/cppreference-doxygen-web.tag.xml:http://en.cppreference.com/w/" xlink:href="http://en.cppreference.com/w/cpp/header/sstream.html" xlink:title=" ">
<polygon fill="#ffffff" stroke="#000000" points="1200,-168.5 1200,-187.5 1259,-187.5 1259,-168.5 1200,-168.5"/>
<text text-anchor="middle" x="1229.5" y="-175.5" font-family="'Consolas',monospace" font-size="10.00" fill="#000000">sstream</text>
</a>
</g>
</g>
<!-- Node18&#45;&gt;Node20 -->
<g id="edge27" class="edge">
<title>Node18&#45;&gt;Node20</title>
<path fill="none" stroke="#191970" d="M1222.8935,-224.2455C1223.9374,-216.9382 1225.4008,-206.6944 1226.6851,-197.7046"/>
<polygon fill="#191970" stroke="#191970" points="1230.173,-198.0372 1228.1225,-187.6427 1223.2434,-197.0472 1230.173,-198.0372"/>
</g>
<!-- Node19&#45;&gt;Node3 -->
<g id="edge26" class="edge">
<title>Node19&#45;&gt;Node3</title>
<path fill="none" stroke="#191970" d="M1375.6974,-168.3733C1343.3035,-158.5676 1293.1282,-143.3793 1259.1009,-133.0792"/>
<polygon fill="#191970" stroke="#191970" points="1259.6819,-129.5983 1249.0967,-130.0509 1257.6538,-136.2981 1259.6819,-129.5983"/>
</g>
<!-- Node19&#45;&gt;Node10 -->
<g id="edge25" class="edge">
<title>Node19&#45;&gt;Node10</title>
<path fill="none" stroke="#191970" d="M1392.8789,-168.4017C1370.3257,-154.0252 1325.2765,-126.9911 1283.5,-112 1220.1216,-89.2573 1142.5293,-76.5853 1096.4368,-70.5401"/>
<polygon fill="#191970" stroke="#191970" points="1096.6223,-67.0356 1086.2607,-69.2465 1095.7394,-73.9797 1096.6223,-67.0356"/>
</g>
<!-- Node21&#45;&gt;Node10 -->
<g id="edge29" class="edge">
<title>Node21&#45;&gt;Node10</title>
<path fill="none" stroke="#191970" d="M1056.5,-112.2455C1056.5,-104.9382 1056.5,-94.6944 1056.5,-85.7046"/>
<polygon fill="#191970" stroke="#191970" points="1060.0001,-85.6426 1056.5,-75.6427 1053.0001,-85.6427 1060.0001,-85.6426"/>
</g>
<!-- Node22&#45;&gt;Node2 -->
<g id="edge33" class="edge">
<title>Node22&#45;&gt;Node2</title>
<path fill="none" stroke="#191970" d="M849.7846,-168.4064C815.5741,-154.281 748.5399,-127.8516 689.5,-112 648.924,-101.1057 531.8073,-81.6205 471.4436,-71.8804"/>
<polygon fill="#191970" stroke="#191970" points="471.6421,-68.3674 461.2133,-70.2353 470.5307,-75.2787 471.6421,-68.3674"/>
</g>
<!-- Node22&#45;&gt;Node3 -->
<g id="edge34" class="edge">
<title>Node22&#45;&gt;Node3</title>
<path fill="none" stroke="#191970" d="M905.1129,-172.7819C970.4863,-162.3222 1117.1577,-138.8548 1185.7837,-127.8746"/>
<polygon fill="#191970" stroke="#191970" points="1186.3924,-131.3218 1195.7138,-126.2858 1185.2864,-124.4097 1186.3924,-131.3218"/>
</g>
<!-- Node22&#45;&gt;Node9 -->
<g id="edge31" class="edge">
<title>Node22&#45;&gt;Node9</title>
<path fill="none" stroke="#191970" d="M868.3195,-168.2455C865.119,-160.7776 860.604,-150.2427 856.6916,-141.1137"/>
<polygon fill="#191970" stroke="#191970" points="859.7888,-139.4554 852.6326,-131.6427 853.3548,-142.2129 859.7888,-139.4554"/>
</g>
<!-- Node22&#45;&gt;Node13 -->
<g id="edge32" class="edge">
<title>Node22&#45;&gt;Node13</title>
<path fill="none" stroke="#191970" d="M839.7831,-169.8571C800.2074,-160.0072 733.4925,-143.4026 689.9788,-132.5725"/>
<polygon fill="#191970" stroke="#191970" points="690.8057,-129.1716 680.2564,-130.1527 689.115,-135.9644 690.8057,-129.1716"/>
</g>
<!-- Node23&#45;&gt;Node2 -->
<g id="edge38" class="edge">
<title>Node23&#45;&gt;Node2</title>
<path fill="none" stroke="#191970" d="M482.0665,-168.4509C473.4703,-149.936 454.3989,-108.8591 443.1908,-84.7187"/>
<polygon fill="#191970" stroke="#191970" points="446.308,-83.1211 438.9223,-75.5249 439.9589,-86.0689 446.308,-83.1211"/>
</g>
<!-- Node23&#45;&gt;Node10 -->
<g id="edge36" class="edge">
<title>Node23&#45;&gt;Node10</title>
<path fill="none" stroke="#191970" d="M499.7264,-168.3659C521.0155,-153.4234 564.7358,-125.0271 606.5,-112 682.6449,-88.2489 921.2847,-73.2274 1016.5976,-68.0362"/>
<polygon fill="#191970" stroke="#191970" points="1016.8985,-71.5252 1026.6964,-67.4939 1016.523,-64.5352 1016.8985,-71.5252"/>
</g>
<!-- Node23&#45;&gt;Node13 -->
<g id="edge37" class="edge">
<title>Node23&#45;&gt;Node13</title>
<path fill="none" stroke="#191970" d="M514.1769,-168.3733C540.8328,-159.1016 581.3238,-145.0178 610.6884,-134.804"/>
<polygon fill="#191970" stroke="#191970" points="611.8891,-138.0921 620.1843,-131.5011 609.5895,-131.4807 611.8891,-138.0921"/>
</g>
<!-- Node24&#45;&gt;Node2 -->
<g id="edge41" class="edge">
<title>Node24&#45;&gt;Node2</title>
<path fill="none" stroke="#191970" d="M386.6028,-112.2455C395.0028,-104.1352 407.1494,-92.4075 417.1084,-82.7919"/>
<polygon fill="#191970" stroke="#191970" points="419.75,-85.1066 424.5129,-75.6427 414.8878,-80.0707 419.75,-85.1066"/>
</g>
<!-- Node24&#45;&gt;Node10 -->
<g id="edge42" class="edge">
<title>Node24&#45;&gt;Node10</title>
<path fill="none" stroke="#191970" d="M406.0696,-118.071C421.6497,-116.0827 441.0891,-113.7304 458.5,-112 668.4803,-91.1306 920.752,-74.4762 1016.7736,-68.4414"/>
<polygon fill="#191970" stroke="#191970" points="1017.1413,-71.9253 1026.9032,-67.8078 1016.7042,-64.939 1017.1413,-71.9253"/>
</g>
<!-- Node25&#45;&gt;Node6 -->
<g id="edge44" class="edge">
<title>Node25&#45;&gt;Node6</title>
<path fill="none" stroke="#191970" d="M1379.1079,-225.0021C1408.7575,-216.0832 1449.2534,-201.7938 1458.5,-188 1463.4494,-180.6166 1463.8716,-175.0822 1458.5,-168 1451.5273,-158.8067 1269.8455,-114.1011 1258.5,-112 1099.8671,-82.6226 908.8016,-71.5833 818.5537,-67.7928"/>
<polygon fill="#191970" stroke="#191970" points="818.4504,-64.2858 808.3163,-67.3759 818.1656,-71.28 818.4504,-64.2858"/>
</g>
<!-- Node25&#45;&gt;Node26 -->
<g id="edge45" class="edge">
<title>Node25&#45;&gt;Node26</title>
<path fill="none" stroke="#191970" d="M1340.5777,-224.2455C1335.8973,-216.5367 1329.2327,-205.5598 1323.5711,-196.2348"/>
<polygon fill="#191970" stroke="#191970" points="1326.5361,-194.3741 1318.3545,-187.6427 1320.5525,-198.007 1326.5361,-194.3741"/>
</g>
<!-- Node25&#45;&gt;Node27 -->
<g id="edge49" class="edge">
<title>Node25&#45;&gt;Node27</title>
<path fill="none" stroke="#191970" d="M1379.1957,-224.7527C1412.428,-215.3537 1464.108,-200.7371 1500.8286,-190.3515"/>
<polygon fill="#191970" stroke="#191970" points="1502.0913,-193.6318 1510.7613,-187.5423 1500.1862,-186.896 1502.0913,-193.6318"/>
</g>
<!-- Node26&#45;&gt;Node3 -->
<g id="edge46" class="edge">
<title>Node26&#45;&gt;Node3</title>
<path fill="none" stroke="#191970" d="M1296.8232,-168.2455C1283.0144,-159.6534 1262.6807,-147.0014 1246.7708,-137.1018"/>
<polygon fill="#191970" stroke="#191970" points="1248.3368,-133.954 1237.9972,-131.6427 1244.6387,-139.8974 1248.3368,-133.954"/>
</g>
<!-- Node26&#45;&gt;Node10 -->
<g id="edge48" class="edge">
<title>Node26&#45;&gt;Node10</title>
<path fill="none" stroke="#191970" d="M1307.3146,-168.2001C1299.0369,-153.5602 1281.4077,-126.1866 1258.5,-112 1231.752,-95.4351 1147.2247,-80.0279 1096.3813,-71.9321"/>
<polygon fill="#191970" stroke="#191970" points="1096.8038,-68.4557 1086.3824,-70.365 1095.7199,-75.3713 1096.8038,-68.4557"/>
</g>
<!-- Node26&#45;&gt;Node16 -->
<g id="edge47" class="edge">
<title>Node26&#45;&gt;Node16</title>
<path fill="none" stroke="#191970" d="M1276.5351,-169.552C1273.8218,-168.9988 1271.1209,-168.4742 1268.5,-168 1261.0622,-166.6544 1051.5635,-138.5094 965.1883,-126.9201"/>
<polygon fill="#191970" stroke="#191970" points="965.4232,-123.4204 955.0465,-125.5596 964.4923,-130.3582 965.4232,-123.4204"/>
</g>
<!-- Node27&#45;&gt;Node3 -->
<g id="edge50" class="edge">
<title>Node27&#45;&gt;Node3</title>
<path fill="none" stroke="#191970" d="M1505.9791,-171.3007C1443.4892,-160.4329 1320.8388,-139.1024 1259.4044,-128.4181"/>
<polygon fill="#191970" stroke="#191970" points="1259.8322,-124.9401 1249.3803,-126.6748 1258.6327,-131.8366 1259.8322,-124.9401"/>
</g>
<!-- Node27&#45;&gt;Node10 -->
<g id="edge51" class="edge">
<title>Node27&#45;&gt;Node10</title>
<path fill="none" stroke="#191970" d="M1515.517,-168.4185C1472.776,-154.5447 1390.1548,-128.6995 1318.5,-112 1240.4459,-93.8091 1147.8147,-79.1421 1096.2404,-71.5809"/>
<polygon fill="#191970" stroke="#191970" points="1096.583,-68.094 1086.1838,-70.1205 1095.577,-75.0214 1096.583,-68.094"/>
</g>
<!-- Node28&#45;&gt;Node10 -->
<g id="edge53" class="edge">
<title>Node28&#45;&gt;Node10</title>
<path fill="none" stroke="#191970" d="M1551.3376,-224.686C1599.9704,-212.8403 1677.4611,-193.2851 1681.5,-188 1686.8973,-180.9373 1687.0678,-174.9291 1681.5,-168 1644.455,-121.898 1228.139,-81.235 1096.2922,-69.4377"/>
<polygon fill="#191970" stroke="#191970" points="1096.4899,-65.9416 1086.2195,-68.5432 1095.8707,-72.9141 1096.4899,-65.9416"/>
</g>
<!-- Node29&#45;&gt;Node10 -->
<g id="edge57" class="edge">
<title>Node29&#45;&gt;Node10</title>
<path fill="none" stroke="#191970" d="M701.6975,-168.4968C722.4987,-153.9936 764.6532,-126.4965 804.5,-112 876.6829,-85.7395 966.1713,-73.9751 1016.7583,-69.0999"/>
<polygon fill="#191970" stroke="#191970" points="1017.3057,-72.5644 1026.9423,-68.1614 1016.6633,-65.5939 1017.3057,-72.5644"/>
</g>
<!-- Node29&#45;&gt;Node13 -->
<g id="edge58" class="edge">
<title>Node29&#45;&gt;Node13</title>
<path fill="none" stroke="#191970" d="M681.3583,-168.2455C675.6556,-160.4564 667.51,-149.3308 660.6375,-139.9439"/>
<polygon fill="#191970" stroke="#191970" points="663.2913,-137.6437 654.5598,-131.6427 657.6432,-141.7789 663.2913,-137.6437"/>
</g>
<!-- Node30&#45;&gt;Node9 -->
<g id="edge60" class="edge">
<title>Node30&#45;&gt;Node9</title>
<path fill="none" stroke="#191970" d="M794.8221,-168.2455C804.4223,-159.9746 818.3892,-147.9416 829.6695,-138.2232"/>
<polygon fill="#191970" stroke="#191970" points="832.016,-140.8214 837.3076,-131.6427 827.447,-135.5182 832.016,-140.8214"/>
</g>
<!-- Node30&#45;&gt;Node13 -->
<g id="edge61" class="edge">
<title>Node30&#45;&gt;Node13</title>
<path fill="none" stroke="#191970" d="M760.1208,-168.3733C737.9955,-159.2629 704.5866,-145.5062 679.8981,-135.3404"/>
<polygon fill="#191970" stroke="#191970" points="681.1536,-132.0723 670.5742,-131.5011 678.4883,-138.5451 681.1536,-132.0723"/>
</g>
<!-- Node31&#45;&gt;Node3 -->
<g id="edge64" class="edge">
<title>Node31&#45;&gt;Node3</title>
<path fill="none" stroke="#191970" d="M1600.5408,-169.5201C1597.8261,-168.9742 1595.1234,-168.46 1592.5,-168 1471.157,-146.7228 1325.7391,-131.6581 1259.1074,-125.3285"/>
<polygon fill="#191970" stroke="#191970" points="1259.3894,-121.8397 1249.1056,-124.388 1258.734,-128.8089 1259.3894,-121.8397"/>
</g>
<!-- Node31&#45;&gt;Node10 -->
<g id="edge63" class="edge">
<title>Node31&#45;&gt;Node10</title>
<path fill="none" stroke="#191970" d="M1602.1746,-168.387C1551.5743,-154.474 1453.8344,-128.5804 1369.5,-112 1271.8875,-92.8091 1155.7178,-77.7472 1096.1132,-70.5783"/>
<polygon fill="#191970" stroke="#191970" points="1096.3491,-67.0817 1086.005,-69.3732 1095.5203,-74.0325 1096.3491,-67.0817"/>
</g>
<!-- Node32&#45;&gt;Node2 -->
<g id="edge69" class="edge">
<title>Node32&#45;&gt;Node2</title>
<path fill="none" stroke="#191970" d="M579.9437,-168.4509C552.3684,-149.0268 489.54,-104.7703 456.2056,-81.2895"/>
<polygon fill="#191970" stroke="#191970" points="458.2129,-78.4223 448.0219,-75.5249 454.1818,-84.1451 458.2129,-78.4223"/>
</g>
<!-- Node32&#45;&gt;Node3 -->
<g id="edge70" class="edge">
<title>Node32&#45;&gt;Node3</title>
<path fill="none" stroke="#191970" d="M632.1973,-169.4918C635.3361,-168.9379 638.466,-168.4307 641.5,-168 848.4829,-138.62 902.1591,-149.2963 1110.5,-132 1135.5785,-129.918 1163.7989,-127.3972 1185.6382,-125.4074"/>
<polygon fill="#191970" stroke="#191970" points="1186.1654,-128.8739 1195.8051,-124.4775 1185.5278,-121.903 1186.1654,-128.8739"/>
</g>
<!-- Node32&#45;&gt;Node5 -->
<g id="edge66" class="edge">
<title>Node32&#45;&gt;Node5</title>
<path fill="none" stroke="#191970" d="M554.7992,-169.6214C551.9935,-169.0583 549.2049,-168.5121 546.5,-168 476.1572,-154.683 395.3616,-141.5067 339.2558,-132.6922"/>
<polygon fill="#191970" stroke="#191970" points="339.4961,-129.1872 329.075,-131.098 338.4131,-136.103 339.4961,-129.1872"/>
</g>
<!-- Node32&#45;&gt;Node10 -->
<g id="edge72" class="edge">
<title>Node32&#45;&gt;Node10</title>
<path fill="none" stroke="#191970" d="M613.0557,-168.3382C643.1413,-153.8786 702.9247,-126.7374 756.5,-112 847.6125,-86.9369 958.2957,-74.4144 1016.4156,-69.162"/>
<polygon fill="#191970" stroke="#191970" points="1016.984,-72.6257 1026.6396,-68.2645 1016.3718,-65.6525 1016.984,-72.6257"/>
</g>
<!-- Node32&#45;&gt;Node13 -->
<g id="edge67" class="edge">
<title>Node32&#45;&gt;Node13</title>
<path fill="none" stroke="#191970" d="M602.9061,-168.2455C610.6493,-160.2155 621.812,-148.6394 631.0318,-139.0781"/>
<polygon fill="#191970" stroke="#191970" points="633.7798,-141.2706 638.2017,-131.6427 628.7409,-136.4117 633.7798,-141.2706"/>
</g>
<!-- Node32&#45;&gt;Node16 -->
<g id="edge71" class="edge">
<title>Node32&#45;&gt;Node16</title>
<path fill="none" stroke="#191970" d="M632.232,-169.7107C635.363,-169.1078 638.4817,-168.5295 641.5,-168 749.7798,-149.0063 781.091,-155.2123 891.9422,-132.1176"/>
<polygon fill="#191970" stroke="#191970" points="892.7829,-135.5173 901.8413,-130.0222 891.3333,-128.669 892.7829,-135.5173"/>
</g>
<!-- Node32&#45;&gt;Node21 -->
<g id="edge68" class="edge">
<title>Node32&#45;&gt;Node21</title>
<path fill="none" stroke="#191970" d="M632.2143,-169.6052C635.3493,-169.0259 638.4737,-168.4818 641.5,-168 650.3078,-166.5976 890.961,-140.152 1001.6905,-128.007"/>
<polygon fill="#191970" stroke="#191970" points="1002.1112,-131.482 1011.67,-126.9126 1001.348,-124.5237 1002.1112,-131.482"/>
</g>
<!-- Node33&#45;&gt;Node2 -->
<g id="edge76" class="edge">
<title>Node33&#45;&gt;Node2</title>
<path fill="none" stroke="#191970" d="M1114.0844,-168.4491C1118.7667,-154.1344 1124.7992,-127.1799 1110.5,-112 1064.5539,-63.2242 575.1932,-82.4913 508.5,-76 496.3248,-74.815 483.0713,-73.1449 471.1886,-71.5084"/>
<polygon fill="#191970" stroke="#191970" points="471.5519,-68.0251 461.1606,-70.0919 470.5728,-74.9563 471.5519,-68.0251"/>
</g>
<!-- Node33&#45;&gt;Node3 -->
<g id="edge77" class="edge">
<title>Node33&#45;&gt;Node3</title>
<path fill="none" stroke="#191970" d="M1129.7535,-168.3733C1147.5712,-159.4644 1174.2747,-146.1127 1194.4594,-136.0203"/>
<polygon fill="#191970" stroke="#191970" points="1196.1187,-139.1038 1203.4978,-131.5011 1192.9882,-132.8428 1196.1187,-139.1038"/>
</g>
<!-- Node33&#45;&gt;Node10 -->
<g id="edge74" class="edge">
<title>Node33&#45;&gt;Node10</title>
<path fill="none" stroke="#191970" d="M1121.5625,-168.3505C1135.1742,-155.266 1155.135,-131.3131 1143.5,-112 1133.0853,-94.7125 1113.7583,-83.5848 1095.9612,-76.613"/>
<polygon fill="#191970" stroke="#191970" points="1096.8922,-73.2289 1086.2977,-73.1546 1094.5335,-79.8195 1096.8922,-73.2289"/>
</g>
<!-- Node33&#45;&gt;Node16 -->
<g id="edge78" class="edge">
<title>Node33&#45;&gt;Node16</title>
<path fill="none" stroke="#191970" d="M1079.2131,-168.3733C1047.5288,-158.6242 998.5529,-143.5547 965.0895,-133.2583"/>
<polygon fill="#191970" stroke="#191970" points="965.8257,-129.823 955.2386,-130.2273 963.7671,-136.5134 965.8257,-129.823"/>
</g>
<!-- Node33&#45;&gt;Node21 -->
<g id="edge75" class="edge">
<title>Node33&#45;&gt;Node21</title>
<path fill="none" stroke="#191970" d="M1101.0939,-168.2455C1093.3507,-160.2155 1082.188,-148.6394 1072.9682,-139.0781"/>
<polygon fill="#191970" stroke="#191970" points="1075.2591,-136.4117 1065.7983,-131.6427 1070.2202,-141.2706 1075.2591,-136.4117"/>
</g>
<!-- Node34&#45;&gt;Node10 -->
<g id="edge80" class="edge">
<title>Node34&#45;&gt;Node10</title>
<path fill="none" stroke="#191970" d="M1634.1248,-225.9397C1669.1955,-215.6473 1717.4105,-195.7835 1697.5,-168 1652.3902,-105.0529 1608.2118,-128.2773 1532.5,-112 1373.2849,-77.7702 1178.6014,-68.9892 1096.2766,-66.7544"/>
<polygon fill="#191970" stroke="#191970" points="1096.1966,-63.2513 1086.111,-66.4966 1096.0191,-70.2491 1096.1966,-63.2513"/>
</g>
<!-- Node35&#45;&gt;Node2 -->
<g id="edge83" class="edge">
<title>Node35&#45;&gt;Node2</title>
<path fill="none" stroke="#191970" d="M597.9158,-231.2948C544.7241,-226.4286 448.4671,-214.1655 427.5,-188 415.2709,-172.739 424.2858,-116.1867 430.2891,-85.73"/>
<polygon fill="#191970" stroke="#191970" points="433.7422,-86.3135 432.3197,-75.8146 426.8845,-84.909 433.7422,-86.3135"/>
</g>
<!-- Node35&#45;&gt;Node3 -->
<g id="edge84" class="edge">
<title>Node35&#45;&gt;Node3</title>
<path fill="none" stroke="#191970" d="M669.1774,-232.1929C779.2225,-226.4314 1108.6127,-207.7147 1152.5,-188 1176.1541,-177.3743 1196.8627,-155.3632 1209.4989,-139.6838"/>
<polygon fill="#191970" stroke="#191970" points="1212.2981,-141.7856 1215.656,-131.737 1206.7646,-137.4983 1212.2981,-141.7856"/>
</g>
<!-- Node35&#45;&gt;Node32 -->
<g id="edge82" class="edge">
<title>Node35&#45;&gt;Node32</title>
<path fill="none" stroke="#191970" d="M626.5325,-224.2455C620.9689,-216.4564 613.022,-205.3308 606.3171,-195.9439"/>
<polygon fill="#191970" stroke="#191970" points="609.0481,-193.7457 600.3876,-187.6427 603.352,-197.8144 609.0481,-193.7457"/>
</g>
<!-- Node36&#45;&gt;Node2 -->
<g id="edge89" class="edge">
<title>Node36&#45;&gt;Node2</title>
<path fill="none" stroke="#191970" d="M313.8379,-174.9581C261.6622,-168.8461 168.5716,-152.0648 201.5,-112 225.8886,-82.3257 338.1918,-71.4795 397.5254,-67.7735"/>
<polygon fill="#191970" stroke="#191970" points="397.8322,-71.2616 407.6095,-67.1806 397.4213,-64.2736 397.8322,-71.2616"/>
</g>
<!-- Node36&#45;&gt;Node10 -->
<g id="edge87" class="edge">
<title>Node36&#45;&gt;Node10</title>
<path fill="none" stroke="#191970" d="M371.0668,-168.4438C409.9717,-153.7399 488.4384,-125.8227 557.5,-112 726.0253,-78.2697 931.6061,-69.2048 1016.6964,-66.8238"/>
<polygon fill="#191970" stroke="#191970" points="1017.0365,-70.3162 1026.9407,-66.5536 1016.8519,-63.3186 1017.0365,-70.3162"/>
</g>
<!-- Node36&#45;&gt;Node24 -->
<g id="edge88" class="edge">
<title>Node36&#45;&gt;Node24</title>
<path fill="none" stroke="#191970" d="M351.7256,-168.2455C355.8123,-160.617 361.6135,-149.7881 366.575,-140.5267"/>
<polygon fill="#191970" stroke="#191970" points="369.6972,-142.1103 371.3343,-131.6427 363.5268,-138.8047 369.6972,-142.1103"/>
</g>
</g>
</svg>
