<?xml version="1.0" encoding="UTF-8" standalone="no"?>
<!DOCTYPE svg PUBLIC "-//W3C//DTD SVG 1.1//EN"
 "http://www.w3.org/Graphics/SVG/1.1/DTD/svg11.dtd">
<!-- Generated by graphviz version 2.40.1 (0)
 -->
<!-- Title: jngl/all.hpp Pages: 1 -->
<svg width="1710pt" height="308pt"
 viewBox="0.00 0.00 1710.00 308.00" xmlns="http://www.w3.org/2000/svg" xmlns:xlink="http://www.w3.org/1999/xlink">
<g id="graph0" class="graph" transform="scale(1 1) rotate(0) translate(4 304)">
<title>jngl/all.hpp</title>
<polygon fill="#ffffff" stroke="transparent" points="-4,4 -4,-304 1706,-304 1706,4 -4,4"/>
<!-- Node0 -->
<g id="node1" class="node">
<title>Node0</title>
<g id="a_node1"><a xlink:title="Includes all JNGL headers.">
<polygon fill="#bfbfbf" stroke="#000000" points="807,-280.5 807,-299.5 896,-299.5 896,-280.5 807,-280.5"/>
<text text-anchor="middle" x="851.5" y="-287.5" font-family="'Consolas',monospace" font-size="10.00" fill="#000000">jngl/all.hpp</text>
</a>
</g>
</g>
<!-- Node1 -->
<g id="node2" class="node">
<title>Node1</title>
<g id="a_node2"><a xlink:href="App_8hpp.html" target="_top" xlink:title=" ">
<polygon fill="#ffffff" stroke="#000000" points="227,-168.5 227,-187.5 286,-187.5 286,-168.5 227,-168.5"/>
<text text-anchor="middle" x="256.5" y="-175.5" font-family="'Consolas',monospace" font-size="10.00" fill="#000000">App.hpp</text>
</a>
</g>
</g>
<!-- Node0&#45;&gt;Node1 -->
<g id="edge1" class="edge">
<title>Node0&#45;&gt;Node1</title>
<path fill="none" stroke="#191970" d="M806.9686,-287.7534C706.1325,-282.3209 463.0242,-267.1871 384.5,-244 345.377,-232.4475 304.1303,-208.8121 279.3583,-193.1878"/>
<polygon fill="#191970" stroke="#191970" points="281.0152,-190.0923 270.7095,-187.6338 277.2327,-195.9824 281.0152,-190.0923"/>
</g>
<!-- Node4 -->
<g id="node5" class="node">
<title>Node4</title>
<g id="a_node5"><a xlink:href="Color_8hpp.html" target="_top" xlink:title=" ">
<polygon fill="#ffffff" stroke="#000000" points="1559,-112.5 1559,-131.5 1630,-131.5 1630,-112.5 1559,-112.5"/>
<text text-anchor="middle" x="1594.5" y="-119.5" font-family="'Consolas',monospace" font-size="10.00" fill="#000000">Color.hpp</text>
</a>
</g>
</g>
<!-- Node0&#45;&gt;Node4 -->
<g id="edge4" class="edge">
<title>Node0&#45;&gt;Node4</title>
<path fill="none" stroke="#191970" d="M896.0543,-288.2852C1033.4976,-282.7957 1445.0361,-264.7928 1501.5,-244 1540.8723,-229.5012 1554.0198,-222.7718 1577.5,-188 1586.8003,-174.2272 1591.0127,-155.7004 1592.9206,-141.7819"/>
<polygon fill="#191970" stroke="#191970" points="1596.4058,-142.1067 1594.0097,-131.7864 1589.447,-141.3483 1596.4058,-142.1067"/>
</g>
<!-- Node6 -->
<g id="node7" class="node">
<title>Node6</title>
<g id="a_node7"><a xlink:href="Controller_8hpp.html" target="_top" xlink:title=" ">
<polygon fill="#ffffff" stroke="#000000" points="134,-224.5 134,-243.5 235,-243.5 235,-224.5 134,-224.5"/>
<text text-anchor="middle" x="184.5" y="-231.5" font-family="'Consolas',monospace" font-size="10.00" fill="#000000">Controller.hpp</text>
</a>
</g>
</g>
<!-- Node0&#45;&gt;Node6 -->
<g id="edge6" class="edge">
<title>Node0&#45;&gt;Node6</title>
<path fill="none" stroke="#191970" d="M806.6801,-286.5348C711.4337,-279.1261 481.8469,-261.0305 289.5,-244 275.2626,-242.7394 259.9459,-241.3179 245.5316,-239.9508"/>
<polygon fill="#191970" stroke="#191970" points="245.5107,-236.433 235.2237,-238.968 244.8463,-243.4014 245.5107,-236.433"/>
</g>
<!-- Node7 -->
<g id="node8" class="node">
<title>Node7</title>
<g id="a_node8"><a xlink:href="input_8hpp.html" target="_top" xlink:title=" ">
<polygon fill="#ffffff" stroke="#000000" points="67,-168.5 67,-187.5 138,-187.5 138,-168.5 67,-168.5"/>
<text text-anchor="middle" x="102.5" y="-175.5" font-family="'Consolas',monospace" font-size="10.00" fill="#000000">input.hpp</text>
</a>
</g>
</g>
<!-- Node0&#45;&gt;Node7 -->
<g id="edge48" class="edge">
<title>Node0&#45;&gt;Node7</title>
<path fill="none" stroke="#191970" d="M806.8539,-288.5437C652.8292,-283.343 151.619,-264.879 124.5,-244 110.3299,-233.0904 105.1917,-212.7227 103.3779,-197.4867"/>
<polygon fill="#191970" stroke="#191970" points="106.8654,-197.1901 102.563,-187.5082 99.8886,-197.7599 106.8654,-197.1901"/>
</g>
<!-- Node14 -->
<g id="node15" class="node">
<title>Node14</title>
<g id="a_node15"><a xlink:href="Shader_8hpp.html" target="_top" xlink:title=" ">
<polygon fill="#ffffff" stroke="#000000" points="0,-224.5 0,-243.5 77,-243.5 77,-224.5 0,-224.5"/>
<text text-anchor="middle" x="38.5" y="-231.5" font-family="'Consolas',monospace" font-size="10.00" fill="#000000">Shader.hpp</text>
</a>
</g>
</g>
<!-- Node0&#45;&gt;Node14 -->
<g id="edge15" class="edge">
<title>Node0&#45;&gt;Node14</title>
<path fill="none" stroke="#191970" d="M806.7752,-289.259C689.1753,-286.8859 361.73,-277.5358 91.5,-244 90.0481,-243.8198 88.5759,-243.6244 87.0914,-243.4162"/>
<polygon fill="#191970" stroke="#191970" points="87.6166,-239.9559 77.1988,-241.8845 86.5455,-246.8735 87.6166,-239.9559"/>
</g>
<!-- Node15 -->
<g id="node16" class="node">
<title>Node15</title>
<g id="a_node16"><a xlink:href="ShaderProgram_8hpp.html" target="_top" xlink:title=" ">
<polygon fill="#ffffff" stroke="#000000" points="491,-112.5 491,-131.5 610,-131.5 610,-112.5 491,-112.5"/>
<text text-anchor="middle" x="550.5" y="-119.5" font-family="'Consolas',monospace" font-size="10.00" fill="#000000">ShaderProgram.hpp</text>
</a>
</g>
</g>
<!-- Node0&#45;&gt;Node15 -->
<g id="edge17" class="edge">
<title>Node0&#45;&gt;Node15</title>
<path fill="none" stroke="#191970" d="M806.7187,-288.3073C705.0432,-284.0043 463.6727,-271.0218 439.5,-244 424.4997,-227.2317 437.8552,-189.9032 456.5,-168 469.3184,-152.9415 488.2292,-142.3724 505.7346,-135.1974"/>
<polygon fill="#191970" stroke="#191970" points="507.1764,-138.3933 515.2676,-131.5534 504.677,-131.8547 507.1764,-138.3933"/>
</g>
<!-- Node17 -->
<g id="node18" class="node">
<title>Node17</title>
<g id="a_node18"><a xlink:href="Vertex_8hpp.html" target="_top" xlink:title=" ">
<polygon fill="#ffffff" stroke="#000000" points="448,-224.5 448,-243.5 525,-243.5 525,-224.5 448,-224.5"/>
<text text-anchor="middle" x="486.5" y="-231.5" font-family="'Consolas',monospace" font-size="10.00" fill="#000000">Vertex.hpp</text>
</a>
</g>
</g>
<!-- Node0&#45;&gt;Node17 -->
<g id="edge21" class="edge">
<title>Node0&#45;&gt;Node17</title>
<path fill="none" stroke="#191970" d="M806.7389,-284.3839C747.1412,-276.7124 638.2362,-262.0204 535.1858,-244.0328"/>
<polygon fill="#191970" stroke="#191970" points="535.6885,-240.5676 525.2333,-242.2819 534.4756,-247.4617 535.6885,-240.5676"/>
</g>
<!-- Node18 -->
<g id="node19" class="node">
<title>Node18</title>
<g id="a_node19"><a xlink:href="Video_8hpp.html" target="_top" xlink:title=" ">
<polygon fill="#ffffff" stroke="#000000" points="543,-224.5 543,-243.5 614,-243.5 614,-224.5 543,-224.5"/>
<text text-anchor="middle" x="578.5" y="-231.5" font-family="'Consolas',monospace" font-size="10.00" fill="#000000">Video.hpp</text>
</a>
</g>
</g>
<!-- Node0&#45;&gt;Node18 -->
<g id="edge22" class="edge">
<title>Node0&#45;&gt;Node18</title>
<path fill="none" stroke="#191970" d="M806.7253,-280.8154C756.3447,-270.481 674.9362,-253.7818 624.1853,-243.3713"/>
<polygon fill="#191970" stroke="#191970" points="624.6521,-239.8943 614.1528,-241.3134 623.2455,-246.7515 624.6521,-239.8943"/>
</g>
<!-- Node19 -->
<g id="node20" class="node">
<title>Node19</title>
<g id="a_node20"><a xlink:href="sprite_8hpp_source.html" target="_top" xlink:title=" ">
<polygon fill="#ffffff" stroke="#000000" points="465,-168.5 465,-187.5 542,-187.5 542,-168.5 465,-168.5"/>
<text text-anchor="middle" x="503.5" y="-175.5" font-family="'Consolas',monospace" font-size="10.00" fill="#000000">sprite.hpp</text>
</a>
</g>
</g>
<!-- Node0&#45;&gt;Node19 -->
<g id="edge74" class="edge">
<title>Node0&#45;&gt;Node19</title>
<path fill="none" stroke="#191970" d="M808.2561,-280.4562C771.9326,-272.0524 718.8444,-258.8608 673.5,-244 650.7562,-236.5462 645.7859,-232.7281 623.5,-224 594.8328,-212.7727 562.2051,-200.284 538.2154,-191.1557"/>
<polygon fill="#191970" stroke="#191970" points="539.4157,-187.8677 528.8246,-187.5861 536.9285,-194.4109 539.4157,-187.8677"/>
</g>
<!-- Node20 -->
<g id="node21" class="node">
<title>Node20</title>
<g id="a_node21"><a xlink:href="drawable_8hpp_source.html" target="_top" xlink:title=" ">
<polygon fill="#ffffff" stroke="#000000" points="667,-112.5 667,-131.5 756,-131.5 756,-112.5 667,-112.5"/>
<text text-anchor="middle" x="711.5" y="-119.5" font-family="'Consolas',monospace" font-size="10.00" fill="#000000">drawable.hpp</text>
</a>
</g>
</g>
<!-- Node0&#45;&gt;Node20 -->
<g id="edge38" class="edge">
<title>Node0&#45;&gt;Node20</title>
<path fill="none" stroke="#191970" d="M846.3069,-280.449C834.3495,-258.9463 803.2207,-205.6763 768.5,-168 758.1643,-156.7845 745.0019,-145.9812 733.9301,-137.6656"/>
<polygon fill="#191970" stroke="#191970" points="735.7311,-134.6466 725.5929,-131.5696 731.5995,-140.2973 735.7311,-134.6466"/>
</g>
<!-- Node21 -->
<g id="node22" class="node">
<title>Node21</title>
<g id="a_node22"><a xlink:href="debug_8hpp_source.html" target="_top" xlink:title=" ">
<polygon fill="#ffffff" stroke="#000000" points="709,-224.5 709,-243.5 780,-243.5 780,-224.5 709,-224.5"/>
<text text-anchor="middle" x="744.5" y="-231.5" font-family="'Consolas',monospace" font-size="10.00" fill="#000000">debug.hpp</text>
</a>
</g>
</g>
<!-- Node0&#45;&gt;Node21 -->
<g id="edge34" class="edge">
<title>Node0&#45;&gt;Node21</title>
<path fill="none" stroke="#191970" d="M832.862,-280.2455C816.0614,-271.4527 791.1366,-258.4079 772.0382,-248.4125"/>
<polygon fill="#191970" stroke="#191970" points="773.4073,-245.1787 762.9244,-243.6427 770.1614,-251.3807 773.4073,-245.1787"/>
</g>
<!-- Node22 -->
<g id="node23" class="node">
<title>Node22</title>
<g id="a_node23"><a xlink:href="message_8hpp.html" target="_top" xlink:title=" ">
<polygon fill="#ffffff" stroke="#000000" points="599,-168.5 599,-187.5 682,-187.5 682,-168.5 599,-168.5"/>
<text text-anchor="middle" x="640.5" y="-175.5" font-family="'Consolas',monospace" font-size="10.00" fill="#000000">message.hpp</text>
</a>
</g>
</g>
<!-- Node0&#45;&gt;Node22 -->
<g id="edge63" class="edge">
<title>Node0&#45;&gt;Node22</title>
<path fill="none" stroke="#191970" d="M806.8914,-282.9346C775.3393,-276.4387 733.0333,-264.5941 700.5,-244 680.7795,-231.5166 663.4824,-210.8553 652.5908,-195.9725"/>
<polygon fill="#191970" stroke="#191970" points="655.295,-193.734 646.6725,-187.5774 649.5738,-197.7673 655.295,-193.734"/>
</g>
<!-- Node24 -->
<g id="node25" class="node">
<title>Node24</title>
<g id="a_node25"><a xlink:href="font_8hpp.html" target="_top" xlink:title=" ">
<polygon fill="#ffffff" stroke="#000000" points="1250,-168.5 1250,-187.5 1315,-187.5 1315,-168.5 1250,-168.5"/>
<text text-anchor="middle" x="1282.5" y="-175.5" font-family="'Consolas',monospace" font-size="10.00" fill="#000000">font.hpp</text>
</a>
</g>
</g>
<!-- Node0&#45;&gt;Node24 -->
<g id="edge39" class="edge">
<title>Node0&#45;&gt;Node24</title>
<path fill="none" stroke="#191970" d="M896.2607,-285.708C971.7026,-278.1144 1120.81,-261.4576 1170.5,-244 1204.7485,-231.9675 1240.1721,-209.002 1261.7752,-193.5911"/>
<polygon fill="#191970" stroke="#191970" points="1263.8481,-196.4113 1269.8781,-187.6998 1259.7317,-190.7495 1263.8481,-196.4113"/>
</g>
<!-- Node25 -->
<g id="node26" class="node">
<title>Node25</title>
<g id="a_node26"><a xlink:href="framebuffer_8hpp_source.html" target="_top" xlink:title=" ">
<polygon fill="#ffffff" stroke="#000000" points="1333,-168.5 1333,-187.5 1434,-187.5 1434,-168.5 1333,-168.5"/>
<text text-anchor="middle" x="1383.5" y="-175.5" font-family="'Consolas',monospace" font-size="10.00" fill="#000000">framebuffer.hpp</text>
</a>
</g>
</g>
<!-- Node0&#45;&gt;Node25 -->
<g id="edge44" class="edge">
<title>Node0&#45;&gt;Node25</title>
<path fill="none" stroke="#191970" d="M896.2462,-287.4331C963.9992,-282.821 1096.297,-270.9723 1205.5,-244 1258.794,-230.8368 1318.0882,-206.8639 1353.0152,-191.7194"/>
<polygon fill="#191970" stroke="#191970" points="1354.8627,-194.7311 1362.6169,-187.5114 1352.0529,-188.3198 1354.8627,-194.7311"/>
</g>
<!-- Node26 -->
<g id="node27" class="node">
<title>Node26</title>
<g id="a_node27"><a xlink:href="job_8hpp.html" target="_top" xlink:title=" ">
<polygon fill="#ffffff" stroke="#000000" points="1096,-112.5 1096,-131.5 1155,-131.5 1155,-112.5 1096,-112.5"/>
<text text-anchor="middle" x="1125.5" y="-119.5" font-family="'Consolas',monospace" font-size="10.00" fill="#000000">job.hpp</text>
</a>
</g>
</g>
<!-- Node0&#45;&gt;Node26 -->
<g id="edge49" class="edge">
<title>Node0&#45;&gt;Node26</title>
<path fill="none" stroke="#191970" d="M896.0327,-286.7389C956.2752,-279.7152 1062.0992,-257.5946 1113.5,-188 1123.3272,-174.6944 1125.9437,-155.8373 1126.3257,-141.6843"/>
<polygon fill="#191970" stroke="#191970" points="1129.8246,-141.5113 1126.2481,-131.5384 1122.8248,-141.5649 1129.8246,-141.5113"/>
</g>
<!-- Node27 -->
<g id="node28" class="node">
<title>Node27</title>
<g id="a_node28"><a xlink:href="main_8hpp_source.html" target="_top" xlink:title=" ">
<polygon fill="#ffffff" stroke="#000000" points="881,-224.5 881,-243.5 946,-243.5 946,-224.5 881,-224.5"/>
<text text-anchor="middle" x="913.5" y="-231.5" font-family="'Consolas',monospace" font-size="10.00" fill="#000000">main.hpp</text>
</a>
</g>
</g>
<!-- Node0&#45;&gt;Node27 -->
<g id="edge52" class="edge">
<title>Node0&#45;&gt;Node27</title>
<path fill="none" stroke="#191970" d="M862.2996,-280.2455C871.3678,-272.0549 884.5206,-260.1749 895.2245,-250.5069"/>
<polygon fill="#191970" stroke="#191970" points="897.7491,-252.9429 902.8242,-243.6427 893.0571,-247.7482 897.7491,-252.9429"/>
</g>
<!-- Node28 -->
<g id="node29" class="node">
<title>Node28</title>
<g id="a_node29"><a xlink:href="other_8hpp.html" target="_top" xlink:title=" ">
<polygon fill="#ffffff" stroke="#000000" points="816,-168.5 816,-187.5 887,-187.5 887,-168.5 816,-168.5"/>
<text text-anchor="middle" x="851.5" y="-175.5" font-family="'Consolas',monospace" font-size="10.00" fill="#000000">other.hpp</text>
</a>
</g>
</g>
<!-- Node0&#45;&gt;Node28 -->
<g id="edge64" class="edge">
<title>Node0&#45;&gt;Node28</title>
<path fill="none" stroke="#191970" d="M851.5,-280.4509C851.5,-262.184 851.5,-221.9553 851.5,-197.6976"/>
<polygon fill="#191970" stroke="#191970" points="855.0001,-197.5249 851.5,-187.5249 848.0001,-197.5249 855.0001,-197.5249"/>
</g>
<!-- Node29 -->
<g id="node30" class="node">
<title>Node29</title>
<g id="a_node30"><a xlink:href="window_8hpp.html" target="_top" xlink:title="Functions related to the main window.">
<polygon fill="#ffffff" stroke="#000000" points="944,-168.5 944,-187.5 1021,-187.5 1021,-168.5 944,-168.5"/>
<text text-anchor="middle" x="982.5" y="-175.5" font-family="'Consolas',monospace" font-size="10.00" fill="#000000">window.hpp</text>
</a>
</g>
</g>
<!-- Node0&#45;&gt;Node29 -->
<g id="edge81" class="edge">
<title>Node0&#45;&gt;Node29</title>
<path fill="none" stroke="#191970" d="M890.7948,-280.4248C912.2895,-273.4386 938.0214,-261.9771 955.5,-244 967.8788,-231.2681 974.8622,-212.0837 978.6101,-197.6745"/>
<polygon fill="#191970" stroke="#191970" points="982.057,-198.3018 980.8813,-187.7725 975.2342,-196.7369 982.057,-198.3018"/>
</g>
<!-- Node30 -->
<g id="node31" class="node">
<title>Node30</title>
<g id="a_node31"><a xlink:href="matrix_8hpp_source.html" target="_top" xlink:title=" ">
<polygon fill="#ffffff" stroke="#000000" points="1422,-112.5 1422,-131.5 1499,-131.5 1499,-112.5 1422,-112.5"/>
<text text-anchor="middle" x="1460.5" y="-119.5" font-family="'Consolas',monospace" font-size="10.00" fill="#000000">matrix.hpp</text>
</a>
</g>
</g>
<!-- Node0&#45;&gt;Node30 -->
<g id="edge61" class="edge">
<title>Node0&#45;&gt;Node30</title>
<path fill="none" stroke="#191970" d="M896.279,-287.3324C970.6445,-282.3496 1124.0517,-269.7217 1251.5,-244 1338.6321,-226.4149 1381.6501,-251.8422 1443.5,-188 1455.3093,-175.8103 1459.222,-156.5605 1460.3797,-141.9889"/>
<polygon fill="#191970" stroke="#191970" points="1463.8783,-142.0941 1460.8131,-131.9523 1456.8848,-141.792 1463.8783,-142.0941"/>
</g>
<!-- Node31 -->
<g id="node32" class="node">
<title>Node31</title>
<g id="a_node32"><a xlink:href="screen_8hpp.html" target="_top" xlink:title=" ">
<polygon fill="#ffffff" stroke="#000000" points="1491,-168.5 1491,-187.5 1568,-187.5 1568,-168.5 1491,-168.5"/>
<text text-anchor="middle" x="1529.5" y="-175.5" font-family="'Consolas',monospace" font-size="10.00" fill="#000000">screen.hpp</text>
</a>
</g>
</g>
<!-- Node0&#45;&gt;Node31 -->
<g id="edge65" class="edge">
<title>Node0&#45;&gt;Node31</title>
<path fill="none" stroke="#191970" d="M896.0189,-288.7677C1030.3338,-284.7672 1425.4547,-270.8243 1476.5,-244 1496.322,-233.5835 1511.3242,-212.1846 1520.2217,-196.5674"/>
<polygon fill="#191970" stroke="#191970" points="1523.3141,-198.2066 1524.9612,-187.7406 1517.1469,-194.8951 1523.3141,-198.2066"/>
</g>
<!-- Node32 -->
<g id="node33" class="node">
<title>Node32</title>
<g id="a_node33"><a xlink:href="shapes_8hpp.html" target="_top" xlink:title=" ">
<polygon fill="#ffffff" stroke="#000000" points="1625,-168.5 1625,-187.5 1702,-187.5 1702,-168.5 1625,-168.5"/>
<text text-anchor="middle" x="1663.5" y="-175.5" font-family="'Consolas',monospace" font-size="10.00" fill="#000000">shapes.hpp</text>
</a>
</g>
</g>
<!-- Node0&#45;&gt;Node32 -->
<g id="edge68" class="edge">
<title>Node0&#45;&gt;Node32</title>
<path fill="none" stroke="#191970" d="M896.2622,-289.0473C1061.6257,-285.323 1629.9641,-270.6245 1657.5,-244 1669.4961,-232.4009 1669.8257,-212.7613 1667.8573,-197.9142"/>
<polygon fill="#191970" stroke="#191970" points="1671.2412,-196.9486 1666.0594,-187.7074 1664.3474,-198.163 1671.2412,-196.9486"/>
</g>
<!-- Node33 -->
<g id="node34" class="node">
<title>Node33</title>
<g id="a_node34"><a xlink:href="sound_8hpp_source.html" target="_top" xlink:title=" ">
<polygon fill="#ffffff" stroke="#000000" points="1161,-168.5 1161,-187.5 1232,-187.5 1232,-168.5 1161,-168.5"/>
<text text-anchor="middle" x="1196.5" y="-175.5" font-family="'Consolas',monospace" font-size="10.00" fill="#000000">sound.hpp</text>
</a>
</g>
</g>
<!-- Node0&#45;&gt;Node33 -->
<g id="edge71" class="edge">
<title>Node0&#45;&gt;Node33</title>
<path fill="none" stroke="#191970" d="M896.0362,-287.1302C967.7725,-281.8399 1105.0626,-268.7586 1146.5,-244 1165.126,-232.871 1179.1696,-211.9219 1187.5595,-196.6013"/>
<polygon fill="#191970" stroke="#191970" points="1190.777,-197.9983 1192.2477,-187.506 1184.5549,-194.791 1190.777,-197.9983"/>
</g>
<!-- Node34 -->
<g id="node35" class="node">
<title>Node34</title>
<g id="a_node35"><a xlink:href="text_8hpp.html" target="_top" xlink:title=" ">
<polygon fill="#ffffff" stroke="#000000" points="343,-168.5 343,-187.5 408,-187.5 408,-168.5 343,-168.5"/>
<text text-anchor="middle" x="375.5" y="-175.5" font-family="'Consolas',monospace" font-size="10.00" fill="#000000">text.hpp</text>
</a>
</g>
</g>
<!-- Node0&#45;&gt;Node34 -->
<g id="edge75" class="edge">
<title>Node0&#45;&gt;Node34</title>
<path fill="none" stroke="#191970" d="M806.9777,-287.9069C700.5147,-282.551 437.6509,-267.1218 405.5,-244 390.3703,-233.1193 382.7064,-212.747 378.9333,-197.5021"/>
<polygon fill="#191970" stroke="#191970" points="382.3151,-196.5766 376.8225,-187.5167 375.4665,-198.0244 382.3151,-196.5766"/>
</g>
<!-- Node35 -->
<g id="node36" class="node">
<title>Node35</title>
<g id="a_node36"><a xlink:href="time_8hpp.html" target="_top" xlink:title=" ">
<polygon fill="#ffffff" stroke="#000000" points="1583,-224.5 1583,-243.5 1648,-243.5 1648,-224.5 1583,-224.5"/>
<text text-anchor="middle" x="1615.5" y="-231.5" font-family="'Consolas',monospace" font-size="10.00" fill="#000000">time.hpp</text>
</a>
</g>
</g>
<!-- Node0&#45;&gt;Node35 -->
<g id="edge80" class="edge">
<title>Node0&#45;&gt;Node35</title>
<path fill="none" stroke="#191970" d="M896.1962,-289.3893C1009.2918,-287.3555 1315.8018,-278.8003 1568.5,-244 1569.9721,-243.7973 1571.4669,-243.5743 1572.9741,-243.335"/>
<polygon fill="#191970" stroke="#191970" points="1573.7574,-246.7508 1582.9921,-241.5575 1572.5344,-239.8584 1573.7574,-246.7508"/>
</g>
<!-- Node36 -->
<g id="node37" class="node">
<title>Node36</title>
<g id="a_node37"><a xlink:href="work_8hpp.html" target="_top" xlink:title=" ">
<polygon fill="#ffffff" stroke="#000000" points="1039,-168.5 1039,-187.5 1104,-187.5 1104,-168.5 1039,-168.5"/>
<text text-anchor="middle" x="1071.5" y="-175.5" font-family="'Consolas',monospace" font-size="10.00" fill="#000000">work.hpp</text>
</a>
</g>
</g>
<!-- Node0&#45;&gt;Node36 -->
<g id="edge82" class="edge">
<title>Node0&#45;&gt;Node36</title>
<path fill="none" stroke="#191970" d="M883.765,-280.4572C909.3504,-272.3212 945.6437,-259.4965 975.5,-244 1003.3949,-229.5216 1032.7962,-208.3026 1051.5974,-193.8605"/>
<polygon fill="#191970" stroke="#191970" points="1053.9453,-196.4682 1059.6845,-187.5625 1049.6442,-190.9454 1053.9453,-196.4682"/>
</g>
<!-- Node2 -->
<g id="node3" class="node">
<title>Node2</title>
<g id="a_node3"><a doxygen="/w/doc/cppreference-doxygen-web.tag.xml:http://en.cppreference.com/w/" xlink:href="http://en.cppreference.com/w/cpp/header/memory.html" xlink:title=" ">
<polygon fill="#ffffff" stroke="#000000" points="436,-56.5 436,-75.5 489,-75.5 489,-56.5 436,-56.5"/>
<text text-anchor="middle" x="462.5" y="-63.5" font-family="'Consolas',monospace" font-size="10.00" fill="#000000">memory</text>
</a>
</g>
</g>
<!-- Node1&#45;&gt;Node2 -->
<g id="edge2" class="edge">
<title>Node1&#45;&gt;Node2</title>
<path fill="none" stroke="#191970" d="M260.3264,-168.344C266.5505,-153.892 280.244,-126.7606 300.5,-112 337.7597,-84.8488 390.5832,-73.693 425.66,-69.1289"/>
<polygon fill="#191970" stroke="#191970" points="426.4194,-72.5635 435.9393,-67.9136 425.5975,-65.612 426.4194,-72.5635"/>
</g>
<!-- Node3 -->
<g id="node4" class="node">
<title>Node3</title>
<g id="a_node4"><a doxygen="/w/doc/cppreference-doxygen-web.tag.xml:http://en.cppreference.com/w/" xlink:href="http://en.cppreference.com/w/cpp/header/string.html" xlink:title=" ">
<polygon fill="#ffffff" stroke="#000000" points="774,-112.5 774,-131.5 827,-131.5 827,-112.5 774,-112.5"/>
<text text-anchor="middle" x="800.5" y="-119.5" font-family="'Consolas',monospace" font-size="10.00" fill="#000000">string</text>
</a>
</g>
</g>
<!-- Node1&#45;&gt;Node3 -->
<g id="edge3" class="edge">
<title>Node1&#45;&gt;Node3</title>
<path fill="none" stroke="#191970" d="M286.0949,-173.8931C300.6557,-171.9523 318.4795,-169.6952 334.5,-168 522.3886,-148.1188 574.6353,-165.9369 763.8771,-132.0039"/>
<polygon fill="#191970" stroke="#191970" points="764.6612,-135.4188 773.8739,-130.1865 763.4091,-128.5317 764.6612,-135.4188"/>
</g>
<!-- Node5 -->
<g id="node6" class="node">
<title>Node5</title>
<g id="a_node6"><a xlink:href="dll_8hpp_source.html" target="_top" xlink:title=" ">
<polygon fill="#ffffff" stroke="#000000" points="1096,-56.5 1096,-75.5 1155,-75.5 1155,-56.5 1096,-56.5"/>
<text text-anchor="middle" x="1125.5" y="-63.5" font-family="'Consolas',monospace" font-size="10.00" fill="#000000">dll.hpp</text>
</a>
</g>
</g>
<!-- Node4&#45;&gt;Node5 -->
<g id="edge5" class="edge">
<title>Node4&#45;&gt;Node5</title>
<path fill="none" stroke="#191970" d="M1558.7597,-114.7366C1553.3247,-113.7453 1547.7722,-112.7964 1542.5,-112 1404.701,-91.1839 1239.9376,-75.7872 1165.4971,-69.3375"/>
<polygon fill="#191970" stroke="#191970" points="1165.4464,-65.8203 1155.1834,-68.4512 1164.847,-72.7946 1165.4464,-65.8203"/>
</g>
<!-- Node6&#45;&gt;Node7 -->
<g id="edge7" class="edge">
<title>Node6&#45;&gt;Node7</title>
<path fill="none" stroke="#191970" d="M170.2167,-224.2455C157.753,-215.7337 139.4549,-203.2375 125.0208,-193.3801"/>
<polygon fill="#191970" stroke="#191970" points="126.8515,-190.392 116.6196,-187.6427 122.9038,-196.1726 126.8515,-190.392"/>
</g>
<!-- Node13 -->
<g id="node14" class="node">
<title>Node13</title>
<g id="a_node14"><a doxygen="/w/doc/cppreference-doxygen-web.tag.xml:http://en.cppreference.com/w/" xlink:href="http://en.cppreference.com/w/cpp/header/chrono.html" xlink:title=" ">
<polygon fill="#ffffff" stroke="#000000" points="156,-168.5 156,-187.5 209,-187.5 209,-168.5 156,-168.5"/>
<text text-anchor="middle" x="182.5" y="-175.5" font-family="'Consolas',monospace" font-size="10.00" fill="#000000">chrono</text>
</a>
</g>
</g>
<!-- Node6&#45;&gt;Node13 -->
<g id="edge14" class="edge">
<title>Node6&#45;&gt;Node13</title>
<path fill="none" stroke="#191970" d="M184.1516,-224.2455C183.8907,-216.9382 183.5248,-206.6944 183.2037,-197.7046"/>
<polygon fill="#191970" stroke="#191970" points="186.6992,-197.5113 182.8444,-187.6427 179.7036,-197.7613 186.6992,-197.5113"/>
</g>
<!-- Node7&#45;&gt;Node2 -->
<g id="edge12" class="edge">
<title>Node7&#45;&gt;Node2</title>
<path fill="none" stroke="#191970" d="M124.9966,-168.4696C157.8677,-154.7738 221.1395,-129.2765 276.5,-112 327.5846,-96.0579 387.9173,-81.9866 425.701,-73.7305"/>
<polygon fill="#191970" stroke="#191970" points="426.7002,-77.0953 435.7336,-71.5593 425.2195,-70.2537 426.7002,-77.0953"/>
</g>
<!-- Node8 -->
<g id="node9" class="node">
<title>Node8</title>
<g id="a_node9"><a xlink:href="Vec2_8hpp.html" target="_top" xlink:title=" ">
<polygon fill="#ffffff" stroke="#000000" points="1337,-112.5 1337,-131.5 1402,-131.5 1402,-112.5 1337,-112.5"/>
<text text-anchor="middle" x="1369.5" y="-119.5" font-family="'Consolas',monospace" font-size="10.00" fill="#000000">Vec2.hpp</text>
</a>
</g>
</g>
<!-- Node7&#45;&gt;Node8 -->
<g id="edge8" class="edge">
<title>Node7&#45;&gt;Node8</title>
<path fill="none" stroke="#191970" d="M138.4192,-169.2578C141.1431,-168.7725 143.8588,-168.3437 146.5,-168 595.4415,-109.5748 712.1728,-151.0294 1164.5,-132 1220.6218,-129.639 1285.3597,-126.3938 1326.8216,-124.2487"/>
<polygon fill="#191970" stroke="#191970" points="1327.0369,-127.7423 1336.8418,-123.7282 1326.6737,-120.7517 1327.0369,-127.7423"/>
</g>
<!-- Node11 -->
<g id="node12" class="node">
<title>Node11</title>
<g id="a_node12"><a doxygen="/w/doc/cppreference-doxygen-web.tag.xml:http://en.cppreference.com/w/" xlink:href="http://en.cppreference.com/w/cpp/header/functional.html" xlink:title=" ">
<polygon fill="#ffffff" stroke="#000000" points="308,-.5 308,-19.5 385,-19.5 385,-.5 308,-.5"/>
<text text-anchor="middle" x="346.5" y="-7.5" font-family="'Consolas',monospace" font-size="10.00" fill="#000000">functional</text>
</a>
</g>
</g>
<!-- Node7&#45;&gt;Node11 -->
<g id="edge11" class="edge">
<title>Node7&#45;&gt;Node11</title>
<path fill="none" stroke="#191970" d="M116.3176,-168.4862C156.653,-140.7144 274.5097,-59.5671 324.1004,-25.4227"/>
<polygon fill="#191970" stroke="#191970" points="326.2799,-28.1715 332.5315,-19.6177 322.3101,-22.4059 326.2799,-28.1715"/>
</g>
<!-- Node12 -->
<g id="node13" class="node">
<title>Node12</title>
<g id="a_node13"><a doxygen="/w/doc/cppreference-doxygen-web.tag.xml:http://en.cppreference.com/w/" xlink:href="http://en.cppreference.com/w/cpp/header/vector.html" xlink:title=" ">
<polygon fill="#ffffff" stroke="#000000" points="381,-112.5 381,-131.5 434,-131.5 434,-112.5 381,-112.5"/>
<text text-anchor="middle" x="407.5" y="-119.5" font-family="'Consolas',monospace" font-size="10.00" fill="#000000">vector</text>
</a>
</g>
</g>
<!-- Node7&#45;&gt;Node12 -->
<g id="edge13" class="edge">
<title>Node7&#45;&gt;Node12</title>
<path fill="none" stroke="#191970" d="M138.0094,-169.7726C140.8784,-169.1558 143.7355,-168.5574 146.5,-168 226.0842,-151.9532 319.9546,-136.1738 370.6094,-127.9165"/>
<polygon fill="#191970" stroke="#191970" points="371.4322,-131.3288 380.7419,-126.2713 370.3102,-124.4193 371.4322,-131.3288"/>
</g>
<!-- Node9 -->
<g id="node10" class="node">
<title>Node9</title>
<g id="a_node10"><a xlink:title=" ">
<polygon fill="#ffffff" stroke="#bfbfbf" points="1258,-56.5 1258,-75.5 1377,-75.5 1377,-56.5 1258,-56.5"/>
<text text-anchor="middle" x="1317.5" y="-63.5" font-family="'Consolas',monospace" font-size="10.00" fill="#000000">boost/version.hpp</text>
</a>
</g>
</g>
<!-- Node8&#45;&gt;Node9 -->
<g id="edge9" class="edge">
<title>Node8&#45;&gt;Node9</title>
<path fill="none" stroke="#191970" d="M1360.4423,-112.2455C1352.9858,-104.2155 1342.2366,-92.6394 1333.3583,-83.0781"/>
<polygon fill="#191970" stroke="#191970" points="1335.8232,-80.589 1326.4539,-75.6427 1330.6937,-85.3522 1335.8232,-80.589"/>
</g>
<!-- Node10 -->
<g id="node11" class="node">
<title>Node10</title>
<g id="a_node11"><a doxygen="/w/doc/cppreference-doxygen-web.tag.xml:http://en.cppreference.com/w/" xlink:href="http://en.cppreference.com/w/cpp/header/iosfwd.html" xlink:title=" ">
<polygon fill="#ffffff" stroke="#000000" points="1395,-56.5 1395,-75.5 1448,-75.5 1448,-56.5 1395,-56.5"/>
<text text-anchor="middle" x="1421.5" y="-63.5" font-family="'Consolas',monospace" font-size="10.00" fill="#000000">iosfwd</text>
</a>
</g>
</g>
<!-- Node8&#45;&gt;Node10 -->
<g id="edge10" class="edge">
<title>Node8&#45;&gt;Node10</title>
<path fill="none" stroke="#191970" d="M1378.5577,-112.2455C1386.0142,-104.2155 1396.7634,-92.6394 1405.6417,-83.0781"/>
<polygon fill="#191970" stroke="#191970" points="1408.3063,-85.3522 1412.5461,-75.6427 1403.1768,-80.589 1408.3063,-85.3522"/>
</g>
<!-- Node14&#45;&gt;Node2 -->
<g id="edge16" class="edge">
<title>Node14&#45;&gt;Node2</title>
<path fill="none" stroke="#191970" d="M38.6479,-224.1428C39.3902,-209.9256 42.8197,-183.6567 57.5,-168 108.1879,-113.9408 336.1364,-81.1807 425.9574,-70.1717"/>
<polygon fill="#191970" stroke="#191970" points="426.448,-73.638 435.9573,-68.9664 425.6102,-66.6883 426.448,-73.638"/>
</g>
<!-- Node15&#45;&gt;Node2 -->
<g id="edge20" class="edge">
<title>Node15&#45;&gt;Node2</title>
<path fill="none" stroke="#191970" d="M535.1716,-112.2455C521.6697,-103.6534 501.7878,-91.0014 486.2314,-81.1018"/>
<polygon fill="#191970" stroke="#191970" points="487.9685,-78.0587 477.6528,-75.6427 484.2103,-83.9643 487.9685,-78.0587"/>
</g>
<!-- Node16 -->
<g id="node17" class="node">
<title>Node16</title>
<g id="a_node17"><a xlink:href="Finally_8hpp.html" target="_top" xlink:title=" ">
<polygon fill="#ffffff" stroke="#000000" points="509,-56.5 509,-75.5 592,-75.5 592,-56.5 509,-56.5"/>
<text text-anchor="middle" x="550.5" y="-63.5" font-family="'Consolas',monospace" font-size="10.00" fill="#000000">Finally.hpp</text>
</a>
</g>
</g>
<!-- Node15&#45;&gt;Node16 -->
<g id="edge18" class="edge">
<title>Node15&#45;&gt;Node16</title>
<path fill="none" stroke="#191970" d="M550.5,-112.2455C550.5,-104.9382 550.5,-94.6944 550.5,-85.7046"/>
<polygon fill="#191970" stroke="#191970" points="554.0001,-85.6426 550.5,-75.6427 547.0001,-85.6427 554.0001,-85.6426"/>
</g>
<!-- Node16&#45;&gt;Node11 -->
<g id="edge19" class="edge">
<title>Node16&#45;&gt;Node11</title>
<path fill="none" stroke="#191970" d="M515.4311,-56.3733C481.0685,-46.9404 428.5608,-32.5265 391.2149,-22.2747"/>
<polygon fill="#191970" stroke="#191970" points="391.681,-18.7732 381.1112,-19.5011 389.828,-25.5235 391.681,-18.7732"/>
</g>
<!-- Node18&#45;&gt;Node2 -->
<g id="edge32" class="edge">
<title>Node18&#45;&gt;Node2</title>
<path fill="none" stroke="#191970" d="M542.9883,-225.7838C540.1198,-225.1645 537.2635,-224.5624 534.5,-224 490.2485,-214.9936 363.4658,-222.6452 334.5,-188 315.6118,-165.4083 344.6791,-129.2508 362.5,-112 380.1995,-94.8667 405.4295,-83.3246 426.1183,-76.0871"/>
<polygon fill="#191970" stroke="#191970" points="427.457,-79.3311 435.857,-72.8743 425.2639,-72.6835 427.457,-79.3311"/>
</g>
<!-- Node18&#45;&gt;Node3 -->
<g id="edge33" class="edge">
<title>Node18&#45;&gt;Node3</title>
<path fill="none" stroke="#191970" d="M577.2149,-224.444C575.8703,-210.1226 575.6857,-183.1595 590.5,-168 643.8306,-113.4268 685.0496,-147.9655 763.9857,-132.0523"/>
<polygon fill="#191970" stroke="#191970" points="764.8099,-135.4545 773.8023,-129.8522 763.2789,-128.6239 764.8099,-135.4545"/>
</g>
<!-- Node18&#45;&gt;Node19 -->
<g id="edge23" class="edge">
<title>Node18&#45;&gt;Node19</title>
<path fill="none" stroke="#191970" d="M565.436,-224.2455C554.1438,-215.814 537.6155,-203.4729 524.4729,-193.6598"/>
<polygon fill="#191970" stroke="#191970" points="526.5211,-190.8211 516.4143,-187.6427 522.3331,-196.4301 526.5211,-190.8211"/>
</g>
<!-- Node19&#45;&gt;Node2 -->
<g id="edge28" class="edge">
<title>Node19&#45;&gt;Node2</title>
<path fill="none" stroke="#191970" d="M498.6061,-168.291C494.0797,-159.0903 487.3405,-144.8112 482.5,-132 476.6814,-116.5999 471.3435,-98.7027 467.6485,-85.4337"/>
<polygon fill="#191970" stroke="#191970" points="470.9577,-84.264 464.9567,-75.5326 464.2029,-86.1005 470.9577,-84.264"/>
</g>
<!-- Node19&#45;&gt;Node3 -->
<g id="edge29" class="edge">
<title>Node19&#45;&gt;Node3</title>
<path fill="none" stroke="#191970" d="M542.2741,-170.6105C547.0631,-169.7195 551.8925,-168.8314 556.5,-168 646.0882,-151.8336 671.8628,-152.8818 763.8077,-132.2191"/>
<polygon fill="#191970" stroke="#191970" points="764.8484,-135.5719 773.8236,-129.9421 763.2965,-128.7461 764.8484,-135.5719"/>
</g>
<!-- Node19&#45;&gt;Node5 -->
<g id="edge31" class="edge">
<title>Node19&#45;&gt;Node5</title>
<path fill="none" stroke="#191970" d="M529.5997,-168.473C553.3085,-159.6252 589.1142,-145.7774 619.5,-132 637.2412,-123.9559 639.8117,-117.4959 658.5,-112 738.3417,-88.5201 988.1839,-73.2193 1085.8301,-67.9973"/>
<polygon fill="#191970" stroke="#191970" points="1086.0806,-71.4891 1095.8822,-67.4667 1085.7115,-64.4988 1086.0806,-71.4891"/>
</g>
<!-- Node19&#45;&gt;Node8 -->
<g id="edge25" class="edge">
<title>Node19&#45;&gt;Node8</title>
<path fill="none" stroke="#191970" d="M542.431,-173.0585C557.4357,-171.2765 574.7476,-169.3693 590.5,-168 735.5065,-155.3947 1185.8995,-131.5427 1326.871,-124.2042"/>
<polygon fill="#191970" stroke="#191970" points="1327.0587,-127.6993 1336.8635,-123.6848 1326.6952,-120.7087 1327.0587,-127.6993"/>
</g>
<!-- Node19&#45;&gt;Node12 -->
<g id="edge30" class="edge">
<title>Node19&#45;&gt;Node12</title>
<path fill="none" stroke="#191970" d="M486.7781,-168.2455C471.9111,-159.5731 449.9534,-146.7645 432.9142,-136.825"/>
<polygon fill="#191970" stroke="#191970" points="434.4317,-133.6582 424.0303,-131.6427 430.9045,-139.7047 434.4317,-133.6582"/>
</g>
<!-- Node19&#45;&gt;Node15 -->
<g id="edge24" class="edge">
<title>Node19&#45;&gt;Node15</title>
<path fill="none" stroke="#191970" d="M511.6868,-168.2455C518.3589,-160.2958 527.9479,-148.8706 535.9253,-139.3656"/>
<polygon fill="#191970" stroke="#191970" points="538.6592,-141.5525 542.407,-131.6427 533.2974,-137.0524 538.6592,-141.5525"/>
</g>
<!-- Node19&#45;&gt;Node20 -->
<g id="edge26" class="edge">
<title>Node19&#45;&gt;Node20</title>
<path fill="none" stroke="#191970" d="M539.2565,-168.3733C574.4426,-158.9001 628.2881,-144.4032 666.3956,-134.1435"/>
<polygon fill="#191970" stroke="#191970" points="667.4639,-137.4806 676.2101,-131.5011 665.644,-130.7213 667.4639,-137.4806"/>
</g>
<!-- Node20&#45;&gt;Node5 -->
<g id="edge27" class="edge">
<title>Node20&#45;&gt;Node5</title>
<path fill="none" stroke="#191970" d="M756.256,-113.5122C759.3811,-112.9811 762.4856,-112.4713 765.5,-112 881.3176,-93.8913 1018.9326,-77.8081 1085.4926,-70.3706"/>
<polygon fill="#191970" stroke="#191970" points="1085.9988,-73.836 1095.5508,-69.2522 1085.2252,-66.8789 1085.9988,-73.836"/>
</g>
<!-- Node21&#45;&gt;Node22 -->
<g id="edge35" class="edge">
<title>Node21&#45;&gt;Node22</title>
<path fill="none" stroke="#191970" d="M726.3846,-224.2455C710.055,-215.4527 685.829,-202.4079 667.2661,-192.4125"/>
<polygon fill="#191970" stroke="#191970" points="668.8719,-189.3021 658.4078,-187.6427 665.5532,-195.4654 668.8719,-189.3021"/>
</g>
<!-- Node23 -->
<g id="node24" class="node">
<title>Node23</title>
<g id="a_node24"><a doxygen="/w/doc/cppreference-doxygen-web.tag.xml:http://en.cppreference.com/w/" xlink:href="http://en.cppreference.com/w/cpp/header/sstream.html" xlink:title=" ">
<polygon fill="#ffffff" stroke="#000000" points="700,-168.5 700,-187.5 759,-187.5 759,-168.5 700,-168.5"/>
<text text-anchor="middle" x="729.5" y="-175.5" font-family="'Consolas',monospace" font-size="10.00" fill="#000000">sstream</text>
</a>
</g>
</g>
<!-- Node21&#45;&gt;Node23 -->
<g id="edge37" class="edge">
<title>Node21&#45;&gt;Node23</title>
<path fill="none" stroke="#191970" d="M741.8872,-224.2455C739.9084,-216.8579 737.1256,-206.4689 734.6988,-197.4087"/>
<polygon fill="#191970" stroke="#191970" points="738.0511,-196.3966 732.0829,-187.6427 731.2895,-198.2078 738.0511,-196.3966"/>
</g>
<!-- Node22&#45;&gt;Node3 -->
<g id="edge36" class="edge">
<title>Node22&#45;&gt;Node3</title>
<path fill="none" stroke="#191970" d="M668.005,-168.3733C694.6559,-159.0454 735.223,-144.8469 764.4464,-134.6188"/>
<polygon fill="#191970" stroke="#191970" points="765.6033,-137.9221 773.8856,-131.315 763.2908,-131.3151 765.6033,-137.9221"/>
</g>
<!-- Node24&#45;&gt;Node2 -->
<g id="edge42" class="edge">
<title>Node24&#45;&gt;Node2</title>
<path fill="none" stroke="#191970" d="M1267.2855,-168.3391C1240.543,-151.556 1185.918,-118.2068 1164.5,-112 880.6348,-29.7374 792.4674,-121.8434 500.5,-76 500.1588,-75.9464 499.8163,-75.8911 499.4726,-75.834"/>
<polygon fill="#191970" stroke="#191970" points="499.8388,-72.3373 489.3434,-73.7856 498.4512,-79.1984 499.8388,-72.3373"/>
</g>
<!-- Node24&#45;&gt;Node3 -->
<g id="edge43" class="edge">
<title>Node24&#45;&gt;Node3</title>
<path fill="none" stroke="#191970" d="M1249.9099,-169.6298C1247.0755,-169.03 1244.2433,-168.4754 1241.5,-168 1092.6351,-142.2038 912.8169,-128.9239 837.0088,-124.1311"/>
<polygon fill="#191970" stroke="#191970" points="837.214,-120.6372 827.0163,-123.5107 836.7801,-127.6238 837.214,-120.6372"/>
</g>
<!-- Node24&#45;&gt;Node4 -->
<g id="edge40" class="edge">
<title>Node24&#45;&gt;Node4</title>
<path fill="none" stroke="#191970" d="M1315.013,-170.0384C1318.2125,-169.3212 1321.4154,-168.6293 1324.5,-168 1403.0669,-151.9717 1495.2825,-137.0998 1549.0746,-128.8157"/>
<polygon fill="#191970" stroke="#191970" points="1549.6279,-132.2718 1558.9824,-127.2975 1548.5676,-125.3526 1549.6279,-132.2718"/>
</g>
<!-- Node24&#45;&gt;Node8 -->
<g id="edge41" class="edge">
<title>Node24&#45;&gt;Node8</title>
<path fill="none" stroke="#191970" d="M1297.6542,-168.2455C1311.0027,-159.6534 1330.6586,-147.0014 1346.0383,-137.1018"/>
<polygon fill="#191970" stroke="#191970" points="1348.0051,-139.9982 1354.5194,-131.6427 1344.2164,-134.1121 1348.0051,-139.9982"/>
</g>
<!-- Node25&#45;&gt;Node2 -->
<g id="edge47" class="edge">
<title>Node25&#45;&gt;Node2</title>
<path fill="none" stroke="#191970" d="M1345.6822,-168.4298C1315.3431,-160.2357 1271.9547,-147.3462 1235.5,-132 1218.2712,-124.7473 1216.4981,-117.0498 1198.5,-112 1048.9574,-70.0422 653.969,-99.89 500.5,-76 500.1588,-75.9469 499.8161,-75.8919 499.4724,-75.8353"/>
<polygon fill="#191970" stroke="#191970" points="499.8363,-72.3384 489.342,-73.7945 498.4538,-79.2005 499.8363,-72.3384"/>
</g>
<!-- Node25&#45;&gt;Node5 -->
<g id="edge45" class="edge">
<title>Node25&#45;&gt;Node5</title>
<path fill="none" stroke="#191970" d="M1361.5031,-168.4509C1315.6157,-148.5308 1209.5671,-102.4942 1156.6727,-79.5323"/>
<polygon fill="#191970" stroke="#191970" points="1158.008,-76.2965 1147.4413,-75.5249 1155.2205,-82.7175 1158.008,-76.2965"/>
</g>
<!-- Node25&#45;&gt;Node8 -->
<g id="edge46" class="edge">
<title>Node25&#45;&gt;Node8</title>
<path fill="none" stroke="#191970" d="M1381.0614,-168.2455C1379.2145,-160.8579 1376.6172,-150.4689 1374.3522,-141.4087"/>
<polygon fill="#191970" stroke="#191970" points="1377.7316,-140.4952 1371.9107,-131.6427 1370.9406,-142.193 1377.7316,-140.4952"/>
</g>
<!-- Node26&#45;&gt;Node2 -->
<g id="edge50" class="edge">
<title>Node26&#45;&gt;Node2</title>
<path fill="none" stroke="#191970" d="M1095.7957,-120.1364C979.6319,-112.8043 559.5907,-85.8634 500.5,-76 500.1594,-75.9431 499.8173,-75.8846 499.4741,-75.8245"/>
<polygon fill="#191970" stroke="#191970" points="499.8572,-72.3294 489.354,-73.72 498.4319,-79.1828 499.8572,-72.3294"/>
</g>
<!-- Node26&#45;&gt;Node5 -->
<g id="edge51" class="edge">
<title>Node26&#45;&gt;Node5</title>
<path fill="none" stroke="#191970" d="M1125.5,-112.2455C1125.5,-104.9382 1125.5,-94.6944 1125.5,-85.7046"/>
<polygon fill="#191970" stroke="#191970" points="1129.0001,-85.6426 1125.5,-75.6427 1122.0001,-85.6427 1129.0001,-85.6426"/>
</g>
<!-- Node27&#45;&gt;Node16 -->
<g id="edge53" class="edge">
<title>Node27&#45;&gt;Node16</title>
<path fill="none" stroke="#191970" d="M912.7227,-224.3956C911.2731,-210.9429 907.2558,-186.108 896.5,-168 877.8718,-136.6383 869.2626,-128.0368 836.5,-112 796.192,-92.2698 673.0815,-77.6924 602.2123,-70.6726"/>
<polygon fill="#191970" stroke="#191970" points="602.4438,-67.1786 592.1514,-69.692 601.7647,-74.1456 602.4438,-67.1786"/>
</g>
<!-- Node27&#45;&gt;Node28 -->
<g id="edge54" class="edge">
<title>Node27&#45;&gt;Node28</title>
<path fill="none" stroke="#191970" d="M902.7004,-224.2455C893.6322,-216.0549 880.4794,-204.1749 869.7755,-194.5069"/>
<polygon fill="#191970" stroke="#191970" points="871.9429,-191.7482 862.1758,-187.6427 867.2509,-196.9429 871.9429,-191.7482"/>
</g>
<!-- Node27&#45;&gt;Node29 -->
<g id="edge58" class="edge">
<title>Node27&#45;&gt;Node29</title>
<path fill="none" stroke="#191970" d="M925.5189,-224.2455C935.7098,-215.9746 950.5362,-203.9416 962.5107,-194.2232"/>
<polygon fill="#191970" stroke="#191970" points="965.0598,-196.662 970.6188,-187.6427 960.6486,-191.2268 965.0598,-196.662"/>
</g>
<!-- Node28&#45;&gt;Node3 -->
<g id="edge55" class="edge">
<title>Node28&#45;&gt;Node3</title>
<path fill="none" stroke="#191970" d="M842.6165,-168.2455C835.3034,-160.2155 824.7609,-148.6394 816.0533,-139.0781"/>
<polygon fill="#191970" stroke="#191970" points="818.6028,-136.6795 809.2817,-131.6427 813.4273,-141.3928 818.6028,-136.6795"/>
</g>
<!-- Node28&#45;&gt;Node5 -->
<g id="edge57" class="edge">
<title>Node28&#45;&gt;Node5</title>
<path fill="none" stroke="#191970" d="M874.8611,-168.4509C923.6953,-148.4895 1036.687,-102.3031 1092.743,-79.3897"/>
<polygon fill="#191970" stroke="#191970" points="1094.2658,-82.5484 1102.198,-75.5249 1091.6172,-76.0689 1094.2658,-82.5484"/>
</g>
<!-- Node28&#45;&gt;Node12 -->
<g id="edge56" class="edge">
<title>Node28&#45;&gt;Node12</title>
<path fill="none" stroke="#191970" d="M815.8659,-173.6603C750.008,-165.617 604.7932,-147.7752 482.5,-132 470.106,-130.4012 456.5663,-128.6098 444.444,-126.9896"/>
<polygon fill="#191970" stroke="#191970" points="444.5968,-123.4788 434.2204,-125.619 443.6667,-130.4168 444.5968,-123.4788"/>
</g>
<!-- Node29&#45;&gt;Node3 -->
<g id="edge59" class="edge">
<title>Node29&#45;&gt;Node3</title>
<path fill="none" stroke="#191970" d="M951.2131,-168.3733C919.5288,-158.6242 870.5529,-143.5547 837.0895,-133.2583"/>
<polygon fill="#191970" stroke="#191970" points="837.8257,-129.823 827.2386,-130.2273 835.7671,-136.5134 837.8257,-129.823"/>
</g>
<!-- Node29&#45;&gt;Node5 -->
<g id="edge60" class="edge">
<title>Node29&#45;&gt;Node5</title>
<path fill="none" stroke="#191970" d="M994.6921,-168.4509C1019.2815,-149.1921 1075.0391,-105.5218 1105.2074,-81.8935"/>
<polygon fill="#191970" stroke="#191970" points="1107.6241,-84.4464 1113.3388,-75.5249 1103.3079,-78.9355 1107.6241,-84.4464"/>
</g>
<!-- Node30&#45;&gt;Node5 -->
<g id="edge62" class="edge">
<title>Node30&#45;&gt;Node5</title>
<path fill="none" stroke="#191970" d="M1421.7457,-113.9351C1418.2846,-113.262 1414.8311,-112.6075 1411.5,-112 1323.8865,-96.0212 1220.6311,-80.1374 1165.2983,-71.8632"/>
<polygon fill="#191970" stroke="#191970" points="1165.6208,-68.3727 1155.214,-70.3602 1164.5888,-75.2962 1165.6208,-68.3727"/>
</g>
<!-- Node31&#45;&gt;Node5 -->
<g id="edge66" class="edge">
<title>Node31&#45;&gt;Node5</title>
<path fill="none" stroke="#191970" d="M1529.4772,-168.1406C1528.8626,-153.423 1525.3624,-125.9494 1508.5,-112 1495.3661,-101.1349 1260.8288,-78.4527 1165.3961,-69.6251"/>
<polygon fill="#191970" stroke="#191970" points="1165.5479,-66.1243 1155.269,-68.6921 1164.9057,-73.0948 1165.5479,-66.1243"/>
</g>
<!-- Node31&#45;&gt;Node8 -->
<g id="edge67" class="edge">
<title>Node31&#45;&gt;Node8</title>
<path fill="none" stroke="#191970" d="M1501.995,-168.3733C1475.6198,-159.1419 1435.6149,-145.1402 1406.4642,-134.9375"/>
<polygon fill="#191970" stroke="#191970" points="1407.2409,-131.5012 1396.6461,-131.5011 1404.9284,-138.1082 1407.2409,-131.5012"/>
</g>
<!-- Node32&#45;&gt;Node4 -->
<g id="edge69" class="edge">
<title>Node32&#45;&gt;Node4</title>
<path fill="none" stroke="#191970" d="M1651.4811,-168.2455C1641.2902,-159.9746 1626.4638,-147.9416 1614.4893,-138.2232"/>
<polygon fill="#191970" stroke="#191970" points="1616.3514,-135.2268 1606.3812,-131.6427 1611.9402,-140.662 1616.3514,-135.2268"/>
</g>
<!-- Node32&#45;&gt;Node8 -->
<g id="edge70" class="edge">
<title>Node32&#45;&gt;Node8</title>
<path fill="none" stroke="#191970" d="M1624.8587,-171.4027C1575.6549,-162.8845 1488.0678,-147.327 1413.5,-132 1413.0396,-131.9054 1412.5766,-131.8097 1412.1114,-131.713"/>
<polygon fill="#191970" stroke="#191970" points="1412.6564,-128.2504 1402.145,-129.5778 1411.1899,-135.0951 1412.6564,-128.2504"/>
</g>
<!-- Node33&#45;&gt;Node3 -->
<g id="edge73" class="edge">
<title>Node33&#45;&gt;Node3</title>
<path fill="none" stroke="#191970" d="M1160.6592,-172.9316C1085.7428,-162.3374 913.2497,-137.9444 837.4126,-127.22"/>
<polygon fill="#191970" stroke="#191970" points="837.765,-123.7351 827.3734,-125.8003 836.7848,-130.6661 837.765,-123.7351"/>
</g>
<!-- Node33&#45;&gt;Node5 -->
<g id="edge72" class="edge">
<title>Node33&#45;&gt;Node5</title>
<path fill="none" stroke="#191970" d="M1192.6619,-168.1942C1187.2703,-154.9324 1176.7325,-130.7794 1164.5,-112 1157.8997,-101.8671 1149.3165,-91.514 1141.8831,-83.202"/>
<polygon fill="#191970" stroke="#191970" points="1144.2918,-80.6505 1134.9491,-75.6541 1139.1369,-85.3862 1144.2918,-80.6505"/>
</g>
<!-- Node34&#45;&gt;Node2 -->
<g id="edge77" class="edge">
<title>Node34&#45;&gt;Node2</title>
<path fill="none" stroke="#191970" d="M371.8662,-168.2026C367.4564,-154.5206 361.8432,-129.415 372.5,-112 384.1747,-92.9216 406.5358,-81.4378 426.0472,-74.7156"/>
<polygon fill="#191970" stroke="#191970" points="427.1381,-78.0416 435.6273,-71.7025 425.0378,-71.3641 427.1381,-78.0416"/>
</g>
<!-- Node34&#45;&gt;Node3 -->
<g id="edge78" class="edge">
<title>Node34&#45;&gt;Node3</title>
<path fill="none" stroke="#191970" d="M408.2054,-173.9105C422.9578,-172.0793 440.6027,-169.9073 456.5,-168 590.5603,-151.9155 628.1663,-158.7401 763.9105,-132.0735"/>
<polygon fill="#191970" stroke="#191970" points="764.7315,-135.4788 773.8563,-130.0948 763.3656,-128.6134 764.7315,-135.4788"/>
</g>
<!-- Node34&#45;&gt;Node12 -->
<g id="edge79" class="edge">
<title>Node34&#45;&gt;Node12</title>
<path fill="none" stroke="#191970" d="M381.074,-168.2455C385.4331,-160.617 391.6211,-149.7881 396.9133,-140.5267"/>
<polygon fill="#191970" stroke="#191970" points="400.0673,-142.0616 401.9899,-131.6427 393.9896,-138.5886 400.0673,-142.0616"/>
</g>
<!-- Node34&#45;&gt;Node20 -->
<g id="edge76" class="edge">
<title>Node34&#45;&gt;Node20</title>
<path fill="none" stroke="#191970" d="M408.0224,-172.5796C465.6317,-162.9781 586.1746,-142.8876 656.7695,-131.1218"/>
<polygon fill="#191970" stroke="#191970" points="657.5207,-134.5449 666.8092,-129.4485 656.3699,-127.6402 657.5207,-134.5449"/>
</g>
<!-- Node36&#45;&gt;Node2 -->
<g id="edge85" class="edge">
<title>Node36&#45;&gt;Node2</title>
<path fill="none" stroke="#191970" d="M1043.2893,-168.4195C999.5377,-153.9407 912.4426,-126.6263 836.5,-112 689.0223,-83.5963 648.2067,-103.188 500.5,-76 500.1604,-75.9375 499.8193,-75.8735 499.477,-75.8082"/>
<polygon fill="#191970" stroke="#191970" points="499.8897,-72.3161 489.3738,-73.6073 498.3996,-79.1557 499.8897,-72.3161"/>
</g>
<!-- Node36&#45;&gt;Node5 -->
<g id="edge83" class="edge">
<title>Node36&#45;&gt;Node5</title>
<path fill="none" stroke="#191970" d="M1072.4895,-168.1286C1074.1318,-154.7925 1078.2108,-130.5555 1087.5,-112 1092.7863,-101.4405 1100.9,-91.1636 1108.2747,-83.0116"/>
<polygon fill="#191970" stroke="#191970" points="1110.9281,-85.3 1115.2709,-75.6361 1105.8495,-80.4825 1110.9281,-85.3"/>
</g>
<!-- Node36&#45;&gt;Node26 -->
<g id="edge84" class="edge">
<title>Node36&#45;&gt;Node26</title>
<path fill="none" stroke="#191970" d="M1080.9061,-168.2455C1088.6493,-160.2155 1099.812,-148.6394 1109.0318,-139.0781"/>
<polygon fill="#191970" stroke="#191970" points="1111.7798,-141.2706 1116.2017,-131.6427 1106.7409,-136.4117 1111.7798,-141.2706"/>
</g>
</g>
</svg>
