<?xml version="1.0" encoding="UTF-8" standalone="no"?>
<!DOCTYPE svg PUBLIC "-//W3C//DTD SVG 1.1//EN"
 "http://www.w3.org/Graphics/SVG/1.1/DTD/svg11.dtd">
<!-- Generated by graphviz version 2.40.1 (0)
 -->
<!-- Title: jngl/all.hpp Pages: 1 -->
<svg width="1691pt" height="308pt"
 viewBox="0.00 0.00 1691.00 308.00" xmlns="http://www.w3.org/2000/svg" xmlns:xlink="http://www.w3.org/1999/xlink">
<g id="graph0" class="graph" transform="scale(1 1) rotate(0) translate(4 304)">
<title>jngl/all.hpp</title>
<polygon fill="#ffffff" stroke="transparent" points="-4,4 -4,-304 1687,-304 1687,4 -4,4"/>
<!-- Node0 -->
<g id="node1" class="node">
<title>Node0</title>
<g id="a_node1"><a xlink:title="Includes all JNGL headers.">
<polygon fill="#bfbfbf" stroke="#000000" points="754,-280.5 754,-299.5 843,-299.5 843,-280.5 754,-280.5"/>
<text text-anchor="middle" x="798.5" y="-287.5" font-family="'Consolas',monospace" font-size="10.00" fill="#000000">jngl/all.hpp</text>
</a>
</g>
</g>
<!-- Node1 -->
<g id="node2" class="node">
<title>Node1</title>
<g id="a_node2"><a xlink:href="App_8hpp.html" target="_top" xlink:title=" ">
<polygon fill="#ffffff" stroke="#000000" points="983,-168.5 983,-187.5 1042,-187.5 1042,-168.5 983,-168.5"/>
<text text-anchor="middle" x="1012.5" y="-175.5" font-family="'Consolas',monospace" font-size="10.00" fill="#000000">App.hpp</text>
</a>
</g>
</g>
<!-- Node0&#45;&gt;Node1 -->
<g id="edge1" class="edge">
<title>Node0&#45;&gt;Node1</title>
<path fill="none" stroke="#191970" d="M831.1302,-280.4573C856.5361,-272.4045 892.2732,-259.6901 921.5,-244 948.0989,-229.7206 975.7787,-208.6002 993.5214,-194.1197"/>
<polygon fill="#191970" stroke="#191970" points="995.9182,-196.6791 1001.3849,-187.6036 991.4518,-191.2892 995.9182,-196.6791"/>
</g>
<!-- Node4 -->
<g id="node5" class="node">
<title>Node4</title>
<g id="a_node5"><a xlink:href="Color_8hpp.html" target="_top" xlink:title=" ">
<polygon fill="#ffffff" stroke="#000000" points="1297,-168.5 1297,-187.5 1368,-187.5 1368,-168.5 1297,-168.5"/>
<text text-anchor="middle" x="1332.5" y="-175.5" font-family="'Consolas',monospace" font-size="10.00" fill="#000000">Color.hpp</text>
</a>
</g>
</g>
<!-- Node0&#45;&gt;Node4 -->
<g id="edge4" class="edge">
<title>Node0&#45;&gt;Node4</title>
<path fill="none" stroke="#191970" d="M843.0037,-288.5065C941.2763,-284.7147 1173.8458,-272.8881 1246.5,-244 1273.9028,-233.1043 1299.9785,-210.8215 1316.0859,-195.1725"/>
<polygon fill="#191970" stroke="#191970" points="1318.9677,-197.2396 1323.5547,-187.6892 1314.0132,-192.2946 1318.9677,-197.2396"/>
</g>
<!-- Node6 -->
<g id="node7" class="node">
<title>Node6</title>
<g id="a_node7"><a xlink:href="Controller_8hpp.html" target="_top" xlink:title=" ">
<polygon fill="#ffffff" stroke="#000000" points="1014,-224.5 1014,-243.5 1115,-243.5 1115,-224.5 1014,-224.5"/>
<text text-anchor="middle" x="1064.5" y="-231.5" font-family="'Consolas',monospace" font-size="10.00" fill="#000000">Controller.hpp</text>
</a>
</g>
</g>
<!-- Node0&#45;&gt;Node6 -->
<g id="edge6" class="edge">
<title>Node0&#45;&gt;Node6</title>
<path fill="none" stroke="#191970" d="M843.0224,-280.6269C888.683,-271.0141 959.8063,-256.0408 1009.0828,-245.6668"/>
<polygon fill="#191970" stroke="#191970" points="1009.8763,-249.0765 1018.9407,-243.5914 1008.4341,-242.2267 1009.8763,-249.0765"/>
</g>
<!-- Node7 -->
<g id="node8" class="node">
<title>Node7</title>
<g id="a_node8"><a xlink:href="input_8hpp.html" target="_top" xlink:title=" ">
<polygon fill="#ffffff" stroke="#000000" points="1131,-168.5 1131,-187.5 1202,-187.5 1202,-168.5 1131,-168.5"/>
<text text-anchor="middle" x="1166.5" y="-175.5" font-family="'Consolas',monospace" font-size="10.00" fill="#000000">input.hpp</text>
</a>
</g>
</g>
<!-- Node0&#45;&gt;Node7 -->
<g id="edge41" class="edge">
<title>Node0&#45;&gt;Node7</title>
<path fill="none" stroke="#191970" d="M843.229,-288.2663C921.3856,-284.4976 1078.8471,-273.399 1124.5,-244 1141.5712,-233.0067 1153.0273,-212.3448 1159.6047,-197.056"/>
<polygon fill="#191970" stroke="#191970" points="1162.9555,-198.1007 1163.3879,-187.5147 1156.4484,-195.5205 1162.9555,-198.1007"/>
</g>
<!-- Node14 -->
<g id="node15" class="node">
<title>Node14</title>
<g id="a_node15"><a xlink:href="Shader_8hpp.html" target="_top" xlink:title=" ">
<polygon fill="#ffffff" stroke="#000000" points="253,-112.5 253,-131.5 330,-131.5 330,-112.5 253,-112.5"/>
<text text-anchor="middle" x="291.5" y="-119.5" font-family="'Consolas',monospace" font-size="10.00" fill="#000000">Shader.hpp</text>
</a>
</g>
</g>
<!-- Node0&#45;&gt;Node14 -->
<g id="edge15" class="edge">
<title>Node0&#45;&gt;Node14</title>
<path fill="none" stroke="#191970" d="M753.904,-287.653C642.9798,-281.5373 360.8602,-264.1783 323.5,-244 295.4067,-228.8268 289.1014,-218.1175 278.5,-188 273.1149,-172.7016 277.3982,-154.5786 282.4447,-141.1976"/>
<polygon fill="#191970" stroke="#191970" points="285.82,-142.2014 286.4855,-131.6275 279.3713,-139.4786 285.82,-142.2014"/>
</g>
<!-- Node15 -->
<g id="node16" class="node">
<title>Node15</title>
<g id="a_node16"><a xlink:href="ShaderProgram_8hpp.html" target="_top" xlink:title=" ">
<polygon fill="#ffffff" stroke="#000000" points="77,-112.5 77,-131.5 196,-131.5 196,-112.5 77,-112.5"/>
<text text-anchor="middle" x="136.5" y="-119.5" font-family="'Consolas',monospace" font-size="10.00" fill="#000000">ShaderProgram.hpp</text>
</a>
</g>
</g>
<!-- Node0&#45;&gt;Node15 -->
<g id="edge17" class="edge">
<title>Node0&#45;&gt;Node15</title>
<path fill="none" stroke="#191970" d="M753.8724,-288.2993C621.1397,-283.0143 234.8011,-265.9084 182.5,-244 147.6389,-229.3971 134.118,-222.4183 118.5,-188 111.5495,-172.6826 117.7983,-154.1135 124.7694,-140.5784"/>
<polygon fill="#191970" stroke="#191970" points="127.8991,-142.1548 129.7947,-131.7309 121.8124,-138.6976 127.8991,-142.1548"/>
</g>
<!-- Node17 -->
<g id="node18" class="node">
<title>Node17</title>
<g id="a_node18"><a xlink:href="Vertex_8hpp.html" target="_top" xlink:title=" ">
<polygon fill="#ffffff" stroke="#000000" points="348,-224.5 348,-243.5 425,-243.5 425,-224.5 348,-224.5"/>
<text text-anchor="middle" x="386.5" y="-231.5" font-family="'Consolas',monospace" font-size="10.00" fill="#000000">Vertex.hpp</text>
</a>
</g>
</g>
<!-- Node0&#45;&gt;Node17 -->
<g id="edge21" class="edge">
<title>Node0&#45;&gt;Node17</title>
<path fill="none" stroke="#191970" d="M753.7855,-285.5098C686.8372,-278.5326 556.3855,-263.9564 435.4021,-244.0361"/>
<polygon fill="#191970" stroke="#191970" points="435.6614,-240.5313 425.2227,-242.3435 434.5131,-247.4365 435.6614,-240.5313"/>
</g>
<!-- Node18 -->
<g id="node19" class="node">
<title>Node18</title>
<g id="a_node19"><a xlink:href="Video_8hpp.html" target="_top" xlink:title=" ">
<polygon fill="#ffffff" stroke="#000000" points="443,-224.5 443,-243.5 514,-243.5 514,-224.5 443,-224.5"/>
<text text-anchor="middle" x="478.5" y="-231.5" font-family="'Consolas',monospace" font-size="10.00" fill="#000000">Video.hpp</text>
</a>
</g>
</g>
<!-- Node0&#45;&gt;Node18 -->
<g id="edge22" class="edge">
<title>Node0&#45;&gt;Node18</title>
<path fill="none" stroke="#191970" d="M753.9981,-282.8193C700.4214,-274.0816 607.7511,-258.673 528.5,-244 527.0583,-243.7331 525.5939,-243.4588 524.1157,-243.1793"/>
<polygon fill="#191970" stroke="#191970" points="524.7369,-239.7347 514.2554,-241.2803 523.413,-246.6084 524.7369,-239.7347"/>
</g>
<!-- Node19 -->
<g id="node20" class="node">
<title>Node19</title>
<g id="a_node20"><a xlink:href="sprite_8hpp_source.html" target="_top" xlink:title=" ">
<polygon fill="#ffffff" stroke="#000000" points="288,-168.5 288,-187.5 365,-187.5 365,-168.5 288,-168.5"/>
<text text-anchor="middle" x="326.5" y="-175.5" font-family="'Consolas',monospace" font-size="10.00" fill="#000000">sprite.hpp</text>
</a>
</g>
</g>
<!-- Node0&#45;&gt;Node19 -->
<g id="edge64" class="edge">
<title>Node0&#45;&gt;Node19</title>
<path fill="none" stroke="#191970" d="M753.9238,-288.5091C644.5864,-284.4387 369.7885,-271.5508 339.5,-244 326.9705,-232.6031 324.4653,-212.9365 324.6476,-198.0282"/>
<polygon fill="#191970" stroke="#191970" points="328.1569,-197.9417 325.1894,-187.771 321.1667,-197.5724 328.1569,-197.9417"/>
</g>
<!-- Node20 -->
<g id="node21" class="node">
<title>Node20</title>
<g id="a_node21"><a xlink:href="drawable_8hpp_source.html" target="_top" xlink:title=" ">
<polygon fill="#ffffff" stroke="#000000" points="348,-112.5 348,-131.5 437,-131.5 437,-112.5 348,-112.5"/>
<text text-anchor="middle" x="392.5" y="-119.5" font-family="'Consolas',monospace" font-size="10.00" fill="#000000">drawable.hpp</text>
</a>
</g>
</g>
<!-- Node0&#45;&gt;Node20 -->
<g id="edge33" class="edge">
<title>Node0&#45;&gt;Node20</title>
<path fill="none" stroke="#191970" d="M753.904,-287.653C642.9798,-281.5373 360.8602,-264.1783 323.5,-244 288.961,-225.3454 256.5418,-200.5388 278.5,-168 286.7497,-155.7752 319.3176,-143.343 347.5422,-134.4903"/>
<polygon fill="#191970" stroke="#191970" points="348.7539,-137.78 357.2975,-131.5145 346.7114,-131.0846 348.7539,-137.78"/>
</g>
<!-- Node21 -->
<g id="node22" class="node">
<title>Node21</title>
<g id="a_node22"><a xlink:href="debug_8hpp_source.html" target="_top" xlink:title=" ">
<polygon fill="#ffffff" stroke="#000000" points="571,-224.5 571,-243.5 642,-243.5 642,-224.5 571,-224.5"/>
<text text-anchor="middle" x="606.5" y="-231.5" font-family="'Consolas',monospace" font-size="10.00" fill="#000000">debug.hpp</text>
</a>
</g>
</g>
<!-- Node0&#45;&gt;Node21 -->
<g id="edge29" class="edge">
<title>Node0&#45;&gt;Node21</title>
<path fill="none" stroke="#191970" d="M765.494,-280.3733C733.2909,-270.9807 684.1558,-256.6496 649.0361,-246.4064"/>
<polygon fill="#191970" stroke="#191970" points="649.6553,-242.9412 639.0753,-243.5011 647.6953,-249.6612 649.6553,-242.9412"/>
</g>
<!-- Node22 -->
<g id="node23" class="node">
<title>Node22</title>
<g id="a_node23"><a xlink:href="message_8hpp.html" target="_top" xlink:title=" ">
<polygon fill="#ffffff" stroke="#000000" points="620,-168.5 620,-187.5 703,-187.5 703,-168.5 620,-168.5"/>
<text text-anchor="middle" x="661.5" y="-175.5" font-family="'Consolas',monospace" font-size="10.00" fill="#000000">message.hpp</text>
</a>
</g>
</g>
<!-- Node0&#45;&gt;Node22 -->
<g id="edge55" class="edge">
<title>Node0&#45;&gt;Node22</title>
<path fill="none" stroke="#191970" d="M757.361,-280.4281C735.2084,-273.4798 708.7603,-262.0543 690.5,-244 677.7341,-231.3781 670.1695,-212.1804 665.9853,-197.7383"/>
<polygon fill="#191970" stroke="#191970" points="669.3093,-196.6124 663.4144,-187.8089 662.5328,-198.367 669.3093,-196.6124"/>
</g>
<!-- Node24 -->
<g id="node25" class="node">
<title>Node24</title>
<g id="a_node25"><a xlink:href="font_8hpp.html" target="_top" xlink:title=" ">
<polygon fill="#ffffff" stroke="#000000" points="1172,-224.5 1172,-243.5 1237,-243.5 1237,-224.5 1172,-224.5"/>
<text text-anchor="middle" x="1204.5" y="-231.5" font-family="'Consolas',monospace" font-size="10.00" fill="#000000">font.hpp</text>
</a>
</g>
</g>
<!-- Node0&#45;&gt;Node24 -->
<g id="edge34" class="edge">
<title>Node0&#45;&gt;Node24</title>
<path fill="none" stroke="#191970" d="M843.1686,-285.4704C911.2392,-278.2986 1044.9138,-263.157 1157.5,-244 1158.9649,-243.7507 1160.4535,-243.4877 1161.9555,-243.2141"/>
<polygon fill="#191970" stroke="#191970" points="1162.7938,-246.6171 1171.9505,-241.2875 1161.4688,-239.7436 1162.7938,-246.6171"/>
</g>
<!-- Node25 -->
<g id="node26" class="node">
<title>Node25</title>
<g id="a_node26"><a xlink:href="framebuffer_8hpp_source.html" target="_top" xlink:title=" ">
<polygon fill="#ffffff" stroke="#000000" points="1463,-168.5 1463,-187.5 1564,-187.5 1564,-168.5 1463,-168.5"/>
<text text-anchor="middle" x="1513.5" y="-175.5" font-family="'Consolas',monospace" font-size="10.00" fill="#000000">framebuffer.hpp</text>
</a>
</g>
</g>
<!-- Node0&#45;&gt;Node25 -->
<g id="edge38" class="edge">
<title>Node0&#45;&gt;Node25</title>
<path fill="none" stroke="#191970" d="M843.1203,-289.383C985.3865,-287.0852 1422.0692,-277.3585 1475.5,-244 1492.2671,-233.5318 1502.4102,-212.7816 1507.9477,-197.3286"/>
<polygon fill="#191970" stroke="#191970" points="1511.3249,-198.2598 1511.0703,-187.668 1504.6642,-196.1068 1511.3249,-198.2598"/>
</g>
<!-- Node26 -->
<g id="node27" class="node">
<title>Node26</title>
<g id="a_node27"><a xlink:href="job_8hpp.html" target="_top" xlink:title=" ">
<polygon fill="#ffffff" stroke="#000000" points="0,-112.5 0,-131.5 59,-131.5 59,-112.5 0,-112.5"/>
<text text-anchor="middle" x="29.5" y="-119.5" font-family="'Consolas',monospace" font-size="10.00" fill="#000000">job.hpp</text>
</a>
</g>
</g>
<!-- Node0&#45;&gt;Node26 -->
<g id="edge42" class="edge">
<title>Node0&#45;&gt;Node26</title>
<path fill="none" stroke="#191970" d="M753.6879,-288.793C614.4529,-284.7769 195.3771,-270.5889 140.5,-244 93.2436,-221.1035 56.7327,-168.409 39.8209,-140.3552"/>
<polygon fill="#191970" stroke="#191970" points="42.7405,-138.4143 34.6709,-131.5491 36.698,-141.9482 42.7405,-138.4143"/>
</g>
<!-- Node27 -->
<g id="node28" class="node">
<title>Node27</title>
<g id="a_node28"><a xlink:href="main_8hpp_source.html" target="_top" xlink:title=" ">
<polygon fill="#ffffff" stroke="#000000" points="827,-224.5 827,-243.5 892,-243.5 892,-224.5 827,-224.5"/>
<text text-anchor="middle" x="859.5" y="-231.5" font-family="'Consolas',monospace" font-size="10.00" fill="#000000">main.hpp</text>
</a>
</g>
</g>
<!-- Node0&#45;&gt;Node27 -->
<g id="edge44" class="edge">
<title>Node0&#45;&gt;Node27</title>
<path fill="none" stroke="#191970" d="M809.1254,-280.2455C818.0473,-272.0549 830.988,-260.1749 841.5192,-250.5069"/>
<polygon fill="#191970" stroke="#191970" points="843.9968,-252.9837 848.9964,-243.6427 839.2629,-247.8271 843.9968,-252.9837"/>
</g>
<!-- Node28 -->
<g id="node29" class="node">
<title>Node28</title>
<g id="a_node29"><a xlink:href="other_8hpp.html" target="_top" xlink:title=" ">
<polygon fill="#ffffff" stroke="#000000" points="760,-168.5 760,-187.5 831,-187.5 831,-168.5 760,-168.5"/>
<text text-anchor="middle" x="795.5" y="-175.5" font-family="'Consolas',monospace" font-size="10.00" fill="#000000">other.hpp</text>
</a>
</g>
</g>
<!-- Node0&#45;&gt;Node28 -->
<g id="edge56" class="edge">
<title>Node0&#45;&gt;Node28</title>
<path fill="none" stroke="#191970" d="M798.2442,-280.4509C797.7549,-262.184 796.6774,-221.9553 796.0276,-197.6976"/>
<polygon fill="#191970" stroke="#191970" points="799.5217,-197.4276 795.7551,-187.5249 792.5242,-197.6151 799.5217,-197.4276"/>
</g>
<!-- Node29 -->
<g id="node30" class="node">
<title>Node29</title>
<g id="a_node30"><a xlink:href="window_8hpp.html" target="_top" xlink:title="Functions related to the main window.">
<polygon fill="#ffffff" stroke="#000000" points="888,-168.5 888,-187.5 965,-187.5 965,-168.5 888,-168.5"/>
<text text-anchor="middle" x="926.5" y="-175.5" font-family="'Consolas',monospace" font-size="10.00" fill="#000000">window.hpp</text>
</a>
</g>
</g>
<!-- Node0&#45;&gt;Node29 -->
<g id="edge71" class="edge">
<title>Node0&#45;&gt;Node29</title>
<path fill="none" stroke="#191970" d="M837.8522,-280.4278C859.1476,-273.4611 884.4969,-262.0179 901.5,-244 913.5623,-231.2178 919.956,-212.0394 923.2465,-197.6453"/>
<polygon fill="#191970" stroke="#191970" points="926.6957,-198.2445 925.2004,-187.7557 919.8285,-196.8877 926.6957,-198.2445"/>
</g>
<!-- Node30 -->
<g id="node31" class="node">
<title>Node30</title>
<g id="a_node31"><a xlink:href="matrix_8hpp_source.html" target="_top" xlink:title=" ">
<polygon fill="#ffffff" stroke="#000000" points="1389,-224.5 1389,-243.5 1466,-243.5 1466,-224.5 1389,-224.5"/>
<text text-anchor="middle" x="1427.5" y="-231.5" font-family="'Consolas',monospace" font-size="10.00" fill="#000000">matrix.hpp</text>
</a>
</g>
</g>
<!-- Node0&#45;&gt;Node30 -->
<g id="edge53" class="edge">
<title>Node0&#45;&gt;Node30</title>
<path fill="none" stroke="#191970" d="M843.2609,-288.4579C939.5656,-284.7107 1173.691,-273.2988 1378.7907,-244.0927"/>
<polygon fill="#191970" stroke="#191970" points="1379.4452,-247.5346 1388.8435,-242.6434 1378.4463,-240.6063 1379.4452,-247.5346"/>
</g>
<!-- Node31 -->
<g id="node32" class="node">
<title>Node31</title>
<g id="a_node32"><a xlink:href="screen_8hpp.html" target="_top" xlink:title=" ">
<polygon fill="#ffffff" stroke="#000000" points="1606,-224.5 1606,-243.5 1683,-243.5 1683,-224.5 1606,-224.5"/>
<text text-anchor="middle" x="1644.5" y="-231.5" font-family="'Consolas',monospace" font-size="10.00" fill="#000000">screen.hpp</text>
</a>
</g>
</g>
<!-- Node0&#45;&gt;Node31 -->
<g id="edge57" class="edge">
<title>Node0&#45;&gt;Node31</title>
<path fill="none" stroke="#191970" d="M843.0404,-288.33C985.6828,-282.8441 1431.0277,-264.6148 1595.8728,-244.0072"/>
<polygon fill="#191970" stroke="#191970" points="1596.3874,-247.4698 1605.8527,-242.7097 1595.4849,-240.5282 1596.3874,-247.4698"/>
</g>
<!-- Node32 -->
<g id="node33" class="node">
<title>Node32</title>
<g id="a_node33"><a xlink:href="shapes_8hpp.html" target="_top" xlink:title=" ">
<polygon fill="#ffffff" stroke="#000000" points="1294,-224.5 1294,-243.5 1371,-243.5 1371,-224.5 1294,-224.5"/>
<text text-anchor="middle" x="1332.5" y="-231.5" font-family="'Consolas',monospace" font-size="10.00" fill="#000000">shapes.hpp</text>
</a>
</g>
</g>
<!-- Node0&#45;&gt;Node32 -->
<g id="edge59" class="edge">
<title>Node0&#45;&gt;Node32</title>
<path fill="none" stroke="#191970" d="M843.0905,-287.0997C928.2092,-281.2615 1119.6164,-266.6804 1279.5,-244 1280.9486,-243.7945 1282.4178,-243.5769 1283.8997,-243.3493"/>
<polygon fill="#191970" stroke="#191970" points="1284.4794,-246.801 1293.7803,-241.7272 1283.3454,-239.8935 1284.4794,-246.801"/>
</g>
<!-- Node33 -->
<g id="node34" class="node">
<title>Node33</title>
<g id="a_node34"><a xlink:href="sound_8hpp_source.html" target="_top" xlink:title=" ">
<polygon fill="#ffffff" stroke="#000000" points="699,-224.5 699,-243.5 770,-243.5 770,-224.5 699,-224.5"/>
<text text-anchor="middle" x="734.5" y="-231.5" font-family="'Consolas',monospace" font-size="10.00" fill="#000000">sound.hpp</text>
</a>
</g>
</g>
<!-- Node0&#45;&gt;Node33 -->
<g id="edge62" class="edge">
<title>Node0&#45;&gt;Node33</title>
<path fill="none" stroke="#191970" d="M787.3521,-280.2455C777.9913,-272.0549 764.4142,-260.1749 753.3651,-250.5069"/>
<polygon fill="#191970" stroke="#191970" points="755.3508,-247.5937 745.5202,-243.6427 750.7412,-252.8618 755.3508,-247.5937"/>
</g>
<!-- Node34 -->
<g id="node35" class="node">
<title>Node34</title>
<g id="a_node35"><a xlink:href="text_8hpp.html" target="_top" xlink:title=" ">
<polygon fill="#ffffff" stroke="#000000" points="460,-168.5 460,-187.5 525,-187.5 525,-168.5 460,-168.5"/>
<text text-anchor="middle" x="492.5" y="-175.5" font-family="'Consolas',monospace" font-size="10.00" fill="#000000">text.hpp</text>
</a>
</g>
</g>
<!-- Node0&#45;&gt;Node34 -->
<g id="edge65" class="edge">
<title>Node0&#45;&gt;Node34</title>
<path fill="none" stroke="#191970" d="M753.8386,-284.3139C695.0366,-276.3146 595.2728,-260.823 562.5,-244 539.8928,-232.3952 519.4331,-211.2732 506.553,-196.0449"/>
<polygon fill="#191970" stroke="#191970" points="508.9208,-193.4106 499.8864,-187.8762 503.4976,-197.8366 508.9208,-193.4106"/>
</g>
<!-- Node35 -->
<g id="node36" class="node">
<title>Node35</title>
<g id="a_node36"><a xlink:href="time_8hpp.html" target="_top" xlink:title=" ">
<polygon fill="#ffffff" stroke="#000000" points="1523,-224.5 1523,-243.5 1588,-243.5 1588,-224.5 1523,-224.5"/>
<text text-anchor="middle" x="1555.5" y="-231.5" font-family="'Consolas',monospace" font-size="10.00" fill="#000000">time.hpp</text>
</a>
</g>
</g>
<!-- Node0&#45;&gt;Node35 -->
<g id="edge70" class="edge">
<title>Node0&#45;&gt;Node35</title>
<path fill="none" stroke="#191970" d="M843.1715,-289.35C955.4936,-287.2297 1258.5754,-278.4986 1508.5,-244 1509.972,-243.7968 1511.4668,-243.5735 1512.9739,-243.3338"/>
<polygon fill="#191970" stroke="#191970" points="1513.7577,-246.7494 1522.9917,-241.5548 1512.5338,-239.8573 1513.7577,-246.7494"/>
</g>
<!-- Node36 -->
<g id="node37" class="node">
<title>Node36</title>
<g id="a_node37"><a xlink:href="work_8hpp.html" target="_top" xlink:title=" ">
<polygon fill="#ffffff" stroke="#000000" points="128,-168.5 128,-187.5 193,-187.5 193,-168.5 128,-168.5"/>
<text text-anchor="middle" x="160.5" y="-175.5" font-family="'Consolas',monospace" font-size="10.00" fill="#000000">work.hpp</text>
</a>
</g>
</g>
<!-- Node0&#45;&gt;Node36 -->
<g id="edge72" class="edge">
<title>Node0&#45;&gt;Node36</title>
<path fill="none" stroke="#191970" d="M753.5954,-288.6844C623.8436,-284.5809 254.6385,-270.667 207.5,-244 189.0201,-233.5456 175.9932,-212.4756 168.4132,-196.9421"/>
<polygon fill="#191970" stroke="#191970" points="171.5382,-195.3587 164.2161,-187.7012 165.1648,-198.2534 171.5382,-195.3587"/>
</g>
<!-- Node2 -->
<g id="node3" class="node">
<title>Node2</title>
<g id="a_node3"><a doxygen="/w/doc/cppreference-doxygen-web.tag.xml:http://en.cppreference.com/w/" xlink:href="http://en.cppreference.com/w/cpp/header/memory.html" xlink:title=" ">
<polygon fill="#ffffff" stroke="#000000" points="477,-56.5 477,-75.5 530,-75.5 530,-56.5 477,-56.5"/>
<text text-anchor="middle" x="503.5" y="-63.5" font-family="'Consolas',monospace" font-size="10.00" fill="#000000">memory</text>
</a>
</g>
</g>
<!-- Node1&#45;&gt;Node2 -->
<g id="edge2" class="edge">
<title>Node1&#45;&gt;Node2</title>
<path fill="none" stroke="#191970" d="M1008.751,-168.3563C1002.3742,-153.4006 987.8892,-124.9865 965.5,-112 929.0093,-90.8341 643.2593,-73.5244 540.3101,-67.9179"/>
<polygon fill="#191970" stroke="#191970" points="540.2601,-64.4102 530.0862,-67.3669 539.8834,-71.4 540.2601,-64.4102"/>
</g>
<!-- Node3 -->
<g id="node4" class="node">
<title>Node3</title>
<g id="a_node4"><a doxygen="/w/doc/cppreference-doxygen-web.tag.xml:http://en.cppreference.com/w/" xlink:href="http://en.cppreference.com/w/cpp/header/string.html" xlink:title=" ">
<polygon fill="#ffffff" stroke="#000000" points="701,-112.5 701,-131.5 754,-131.5 754,-112.5 701,-112.5"/>
<text text-anchor="middle" x="727.5" y="-119.5" font-family="'Consolas',monospace" font-size="10.00" fill="#000000">string</text>
</a>
</g>
</g>
<!-- Node1&#45;&gt;Node3 -->
<g id="edge3" class="edge">
<title>Node1&#45;&gt;Node3</title>
<path fill="none" stroke="#191970" d="M982.6893,-169.889C979.9283,-169.2183 977.167,-168.5773 974.5,-168 884.6073,-148.5432 858.0875,-152.4612 764.0887,-131.9349"/>
<polygon fill="#191970" stroke="#191970" points="764.6807,-128.4812 754.1599,-129.7317 763.1642,-135.315 764.6807,-128.4812"/>
</g>
<!-- Node5 -->
<g id="node6" class="node">
<title>Node5</title>
<g id="a_node6"><a xlink:href="dll_8hpp_source.html" target="_top" xlink:title=" ">
<polygon fill="#ffffff" stroke="#000000" points="897,-112.5 897,-131.5 956,-131.5 956,-112.5 897,-112.5"/>
<text text-anchor="middle" x="926.5" y="-119.5" font-family="'Consolas',monospace" font-size="10.00" fill="#000000">dll.hpp</text>
</a>
</g>
</g>
<!-- Node4&#45;&gt;Node5 -->
<g id="edge5" class="edge">
<title>Node4&#45;&gt;Node5</title>
<path fill="none" stroke="#191970" d="M1296.826,-173.0795C1221.1781,-162.6453 1045.1411,-138.3643 966.1285,-127.466"/>
<polygon fill="#191970" stroke="#191970" points="966.475,-123.9807 956.0906,-126.0815 965.5185,-130.9151 966.475,-123.9807"/>
</g>
<!-- Node6&#45;&gt;Node7 -->
<g id="edge7" class="edge">
<title>Node6&#45;&gt;Node7</title>
<path fill="none" stroke="#191970" d="M1082.267,-224.2455C1098.2095,-215.4928 1121.8259,-202.527 1139.9989,-192.5496"/>
<polygon fill="#191970" stroke="#191970" points="1141.8552,-195.5233 1148.9366,-187.6427 1138.4863,-189.3873 1141.8552,-195.5233"/>
</g>
<!-- Node13 -->
<g id="node14" class="node">
<title>Node13</title>
<g id="a_node14"><a doxygen="/w/doc/cppreference-doxygen-web.tag.xml:http://en.cppreference.com/w/" xlink:href="http://en.cppreference.com/w/cpp/header/chrono.html" xlink:title=" ">
<polygon fill="#ffffff" stroke="#000000" points="1060,-168.5 1060,-187.5 1113,-187.5 1113,-168.5 1060,-168.5"/>
<text text-anchor="middle" x="1086.5" y="-175.5" font-family="'Consolas',monospace" font-size="10.00" fill="#000000">chrono</text>
</a>
</g>
</g>
<!-- Node6&#45;&gt;Node13 -->
<g id="edge14" class="edge">
<title>Node6&#45;&gt;Node13</title>
<path fill="none" stroke="#191970" d="M1068.3321,-224.2455C1071.2659,-216.7776 1075.4047,-206.2427 1078.991,-197.1137"/>
<polygon fill="#191970" stroke="#191970" points="1082.3129,-198.23 1082.7118,-187.6427 1075.7976,-195.6704 1082.3129,-198.23"/>
</g>
<!-- Node7&#45;&gt;Node2 -->
<g id="edge12" class="edge">
<title>Node7&#45;&gt;Node2</title>
<path fill="none" stroke="#191970" d="M1146.3297,-168.4784C1114.0219,-153.69 1048.3149,-125.5009 989.5,-112 903.8228,-92.3328 637.8822,-74.3347 540.0764,-68.2144"/>
<polygon fill="#191970" stroke="#191970" points="540.2694,-64.7198 530.0717,-67.5932 539.8355,-71.7063 540.2694,-64.7198"/>
</g>
<!-- Node8 -->
<g id="node9" class="node">
<title>Node8</title>
<g id="a_node9"><a xlink:href="Vec2_8hpp.html" target="_top" xlink:title=" ">
<polygon fill="#ffffff" stroke="#000000" points="1276,-112.5 1276,-131.5 1341,-131.5 1341,-112.5 1276,-112.5"/>
<text text-anchor="middle" x="1308.5" y="-119.5" font-family="'Consolas',monospace" font-size="10.00" fill="#000000">Vec2.hpp</text>
</a>
</g>
</g>
<!-- Node7&#45;&gt;Node8 -->
<g id="edge8" class="edge">
<title>Node7&#45;&gt;Node8</title>
<path fill="none" stroke="#191970" d="M1190.9107,-168.3733C1214.1142,-159.2226 1249.2038,-145.3844 1275.0142,-135.2057"/>
<polygon fill="#191970" stroke="#191970" points="1276.3892,-138.4258 1284.4079,-131.5011 1273.8211,-131.9139 1276.3892,-138.4258"/>
</g>
<!-- Node11 -->
<g id="node12" class="node">
<title>Node11</title>
<g id="a_node12"><a doxygen="/w/doc/cppreference-doxygen-web.tag.xml:http://en.cppreference.com/w/" xlink:href="http://en.cppreference.com/w/cpp/header/functional.html" xlink:title=" ">
<polygon fill="#ffffff" stroke="#000000" points="745,-.5 745,-19.5 822,-19.5 822,-.5 745,-.5"/>
<text text-anchor="middle" x="783.5" y="-7.5" font-family="'Consolas',monospace" font-size="10.00" fill="#000000">functional</text>
</a>
</g>
</g>
<!-- Node7&#45;&gt;Node11 -->
<g id="edge11" class="edge">
<title>Node7&#45;&gt;Node11</title>
<path fill="none" stroke="#191970" d="M1148.5027,-168.3409C1123.4613,-155.0381 1076.5535,-130.6123 1035.5,-112 959.2909,-77.4493 867.7785,-41.8348 818.7077,-23.2001"/>
<polygon fill="#191970" stroke="#191970" points="819.7804,-19.8639 809.1889,-19.5964 817.3019,-26.4104 819.7804,-19.8639"/>
</g>
<!-- Node12 -->
<g id="node13" class="node">
<title>Node12</title>
<g id="a_node13"><a doxygen="/w/doc/cppreference-doxygen-web.tag.xml:http://en.cppreference.com/w/" xlink:href="http://en.cppreference.com/w/cpp/header/vector.html" xlink:title=" ">
<polygon fill="#ffffff" stroke="#000000" points="772,-112.5 772,-131.5 825,-131.5 825,-112.5 772,-112.5"/>
<text text-anchor="middle" x="798.5" y="-119.5" font-family="'Consolas',monospace" font-size="10.00" fill="#000000">vector</text>
</a>
</g>
</g>
<!-- Node7&#45;&gt;Node12 -->
<g id="edge13" class="edge">
<title>Node7&#45;&gt;Node12</title>
<path fill="none" stroke="#191970" d="M1130.5316,-169.5714C1127.819,-169.0137 1125.1193,-168.4827 1122.5,-168 1018.928,-148.9117 895.4685,-133.3483 835.2279,-126.2134"/>
<polygon fill="#191970" stroke="#191970" points="835.4191,-122.7119 825.0788,-125.0205 834.6018,-129.664 835.4191,-122.7119"/>
</g>
<!-- Node9 -->
<g id="node10" class="node">
<title>Node9</title>
<g id="a_node10"><a xlink:title=" ">
<polygon fill="#ffffff" stroke="#bfbfbf" points="1269,-56.5 1269,-75.5 1388,-75.5 1388,-56.5 1269,-56.5"/>
<text text-anchor="middle" x="1328.5" y="-63.5" font-family="'Consolas',monospace" font-size="10.00" fill="#000000">boost/version.hpp</text>
</a>
</g>
</g>
<!-- Node8&#45;&gt;Node9 -->
<g id="edge9" class="edge">
<title>Node8&#45;&gt;Node9</title>
<path fill="none" stroke="#191970" d="M1311.9837,-112.2455C1314.6508,-104.7776 1318.4133,-94.2427 1321.6737,-85.1137"/>
<polygon fill="#191970" stroke="#191970" points="1324.9889,-86.2373 1325.0562,-75.6427 1318.3967,-83.8829 1324.9889,-86.2373"/>
</g>
<!-- Node10 -->
<g id="node11" class="node">
<title>Node10</title>
<g id="a_node11"><a doxygen="/w/doc/cppreference-doxygen-web.tag.xml:http://en.cppreference.com/w/" xlink:href="http://en.cppreference.com/w/cpp/header/iosfwd.html" xlink:title=" ">
<polygon fill="#ffffff" stroke="#000000" points="1198,-56.5 1198,-75.5 1251,-75.5 1251,-56.5 1198,-56.5"/>
<text text-anchor="middle" x="1224.5" y="-63.5" font-family="'Consolas',monospace" font-size="10.00" fill="#000000">iosfwd</text>
</a>
</g>
</g>
<!-- Node8&#45;&gt;Node10 -->
<g id="edge10" class="edge">
<title>Node8&#45;&gt;Node10</title>
<path fill="none" stroke="#191970" d="M1293.8683,-112.2455C1281.1006,-103.7337 1262.3562,-91.2375 1247.5701,-81.3801"/>
<polygon fill="#191970" stroke="#191970" points="1249.226,-78.2775 1238.964,-75.6427 1245.3431,-84.1019 1249.226,-78.2775"/>
</g>
<!-- Node14&#45;&gt;Node2 -->
<g id="edge16" class="edge">
<title>Node14&#45;&gt;Node2</title>
<path fill="none" stroke="#191970" d="M329.2057,-112.4804C362.9849,-103.8899 414.1288,-90.7311 466.8974,-76.3989"/>
<polygon fill="#191970" stroke="#191970" points="468.0375,-79.7159 476.7655,-73.7099 466.1971,-72.9622 468.0375,-79.7159"/>
</g>
<!-- Node15&#45;&gt;Node2 -->
<g id="edge20" class="edge">
<title>Node15&#45;&gt;Node2</title>
<path fill="none" stroke="#191970" d="M196.2876,-113.8244C280.007,-102.3628 425.8786,-82.3388 466.8859,-75.779"/>
<polygon fill="#191970" stroke="#191970" points="467.598,-79.2076 476.8438,-74.034 466.3898,-72.3127 467.598,-79.2076"/>
</g>
<!-- Node16 -->
<g id="node17" class="node">
<title>Node16</title>
<g id="a_node17"><a xlink:href="Finally_8hpp.html" target="_top" xlink:title=" ">
<polygon fill="#ffffff" stroke="#000000" points="376,-56.5 376,-75.5 459,-75.5 459,-56.5 376,-56.5"/>
<text text-anchor="middle" x="417.5" y="-63.5" font-family="'Consolas',monospace" font-size="10.00" fill="#000000">Finally.hpp</text>
</a>
</g>
</g>
<!-- Node15&#45;&gt;Node16 -->
<g id="edge18" class="edge">
<title>Node15&#45;&gt;Node16</title>
<path fill="none" stroke="#191970" d="M184.4863,-112.4369C234.8919,-102.3917 313.8948,-86.6473 365.6915,-76.3248"/>
<polygon fill="#191970" stroke="#191970" points="366.5485,-79.723 375.6715,-74.3359 365.1803,-72.8579 366.5485,-79.723"/>
</g>
<!-- Node16&#45;&gt;Node11 -->
<g id="edge19" class="edge">
<title>Node16&#45;&gt;Node11</title>
<path fill="none" stroke="#191970" d="M459.2182,-57.6485C462.3559,-57.073 465.4761,-56.5169 468.5,-56 562.2264,-39.9774 672.2472,-24.7146 734.3281,-16.4271"/>
<polygon fill="#191970" stroke="#191970" points="735.1574,-19.8477 744.6088,-15.06 734.2346,-12.9088 735.1574,-19.8477"/>
</g>
<!-- Node18&#45;&gt;Node2 -->
<g id="edge27" class="edge">
<title>Node18&#45;&gt;Node2</title>
<path fill="none" stroke="#191970" d="M467.3498,-224.3293C458.4329,-215.8007 446.6079,-202.5 441.5,-188 438.5466,-179.6161 439.1027,-176.5595 441.5,-168 450.6604,-135.2938 473.5046,-102.6574 488.7563,-83.4075"/>
<polygon fill="#191970" stroke="#191970" points="491.5523,-85.5169 495.1532,-75.5528 486.1245,-81.0966 491.5523,-85.5169"/>
</g>
<!-- Node18&#45;&gt;Node3 -->
<g id="edge28" class="edge">
<title>Node18&#45;&gt;Node3</title>
<path fill="none" stroke="#191970" d="M468.9655,-224.4988C456.2961,-210.7251 437.0961,-185.0032 451.5,-168 466.8064,-149.9314 618.9191,-132.7006 690.5525,-125.5139"/>
<polygon fill="#191970" stroke="#191970" points="691.3121,-128.9559 700.9187,-124.4878 690.6225,-121.99 691.3121,-128.9559"/>
</g>
<!-- Node18&#45;&gt;Node19 -->
<g id="edge23" class="edge">
<title>Node18&#45;&gt;Node19</title>
<path fill="none" stroke="#191970" d="M452.3703,-224.3733C427.4232,-215.1822 389.6408,-201.2624 361.9794,-191.0713"/>
<polygon fill="#191970" stroke="#191970" points="362.8822,-187.674 352.2888,-187.5011 360.4622,-194.2424 362.8822,-187.674"/>
</g>
<!-- Node19&#45;&gt;Node8 -->
<g id="edge25" class="edge">
<title>Node19&#45;&gt;Node8</title>
<path fill="none" stroke="#191970" d="M365.0537,-174.6533C389.7536,-172.5741 422.5008,-169.9379 451.5,-168 763.5271,-147.1484 1139.9631,-129.5679 1265.4634,-123.9105"/>
<polygon fill="#191970" stroke="#191970" points="1265.9567,-127.392 1275.7895,-123.4465 1265.6424,-120.399 1265.9567,-127.392"/>
</g>
<!-- Node19&#45;&gt;Node15 -->
<g id="edge24" class="edge">
<title>Node19&#45;&gt;Node15</title>
<path fill="none" stroke="#191970" d="M293.8378,-168.3733C261.9702,-158.9807 213.3469,-144.6496 178.593,-134.4064"/>
<polygon fill="#191970" stroke="#191970" points="179.3175,-130.9711 168.736,-131.5011 177.3385,-137.6855 179.3175,-130.9711"/>
</g>
<!-- Node19&#45;&gt;Node20 -->
<g id="edge26" class="edge">
<title>Node19&#45;&gt;Node20</title>
<path fill="none" stroke="#191970" d="M337.9963,-168.2455C347.7442,-159.9746 361.9259,-147.9416 373.3798,-138.2232"/>
<polygon fill="#191970" stroke="#191970" points="375.7747,-140.7813 381.1354,-131.6427 371.2459,-135.4437 375.7747,-140.7813"/>
</g>
<!-- Node21&#45;&gt;Node22 -->
<g id="edge30" class="edge">
<title>Node21&#45;&gt;Node22</title>
<path fill="none" stroke="#191970" d="M616.0803,-224.2455C624.0458,-216.1352 635.5641,-204.4075 645.0079,-194.7919"/>
<polygon fill="#191970" stroke="#191970" points="647.5195,-197.2297 652.0295,-187.6427 642.5253,-192.3247 647.5195,-197.2297"/>
</g>
<!-- Node23 -->
<g id="node24" class="node">
<title>Node23</title>
<g id="a_node24"><a doxygen="/w/doc/cppreference-doxygen-web.tag.xml:http://en.cppreference.com/w/" xlink:href="http://en.cppreference.com/w/cpp/header/sstream.html" xlink:title=" ">
<polygon fill="#ffffff" stroke="#000000" points="543,-168.5 543,-187.5 602,-187.5 602,-168.5 543,-168.5"/>
<text text-anchor="middle" x="572.5" y="-175.5" font-family="'Consolas',monospace" font-size="10.00" fill="#000000">sstream</text>
</a>
</g>
</g>
<!-- Node21&#45;&gt;Node23 -->
<g id="edge32" class="edge">
<title>Node21&#45;&gt;Node23</title>
<path fill="none" stroke="#191970" d="M600.5777,-224.2455C595.8973,-216.5367 589.2327,-205.5598 583.5711,-196.2348"/>
<polygon fill="#191970" stroke="#191970" points="586.5361,-194.3741 578.3545,-187.6427 580.5525,-198.007 586.5361,-194.3741"/>
</g>
<!-- Node22&#45;&gt;Node3 -->
<g id="edge31" class="edge">
<title>Node22&#45;&gt;Node3</title>
<path fill="none" stroke="#191970" d="M672.9963,-168.2455C682.7442,-159.9746 696.9259,-147.9416 708.3798,-138.2232"/>
<polygon fill="#191970" stroke="#191970" points="710.7747,-140.7813 716.1354,-131.6427 706.2459,-135.4437 710.7747,-140.7813"/>
</g>
<!-- Node24&#45;&gt;Node2 -->
<g id="edge37" class="edge">
<title>Node24&#45;&gt;Node2</title>
<path fill="none" stroke="#191970" d="M1209.2214,-224.4298C1215.3081,-210.5701 1223.7422,-184.7423 1211.5,-168 1163.0483,-101.7384 1115.9962,-128.0789 1035.5,-112 940.2477,-92.9736 644.4684,-74.2736 540.2758,-68.1143"/>
<polygon fill="#191970" stroke="#191970" points="540.4226,-64.617 530.2346,-67.5246 540.0121,-71.6049 540.4226,-64.617"/>
</g>
<!-- Node24&#45;&gt;Node4 -->
<g id="edge35" class="edge">
<title>Node24&#45;&gt;Node4</title>
<path fill="none" stroke="#191970" d="M1226.504,-224.3733C1247.1435,-215.3435 1278.2158,-201.7494 1301.3889,-191.6111"/>
<polygon fill="#191970" stroke="#191970" points="1303.0245,-194.7159 1310.7831,-187.5011 1300.2187,-188.3028 1303.0245,-194.7159"/>
</g>
<!-- Node24&#45;&gt;Node8 -->
<g id="edge36" class="edge">
<title>Node24&#45;&gt;Node8</title>
<path fill="none" stroke="#191970" d="M1213.367,-224.4509C1230.9432,-205.5227 1270.4155,-163.014 1292.5955,-139.1279"/>
<polygon fill="#191970" stroke="#191970" points="1295.4157,-141.2344 1299.6555,-131.5249 1290.2861,-136.4713 1295.4157,-141.2344"/>
</g>
<!-- Node25&#45;&gt;Node2 -->
<g id="edge40" class="edge">
<title>Node25&#45;&gt;Node2</title>
<path fill="none" stroke="#191970" d="M1495.5618,-168.4238C1466.2016,-153.2888 1405.6261,-124.2979 1350.5,-112 1192.7319,-76.8039 682.6839,-68.1447 540.5649,-66.3918"/>
<polygon fill="#191970" stroke="#191970" points="540.2603,-62.888 530.2193,-66.2685 540.1768,-69.8875 540.2603,-62.888"/>
</g>
<!-- Node25&#45;&gt;Node8 -->
<g id="edge39" class="edge">
<title>Node25&#45;&gt;Node8</title>
<path fill="none" stroke="#191970" d="M1478.2592,-168.3733C1442.9501,-158.7278 1388.5759,-143.8744 1350.9208,-133.5881"/>
<polygon fill="#191970" stroke="#191970" points="1351.821,-130.2059 1341.2521,-130.9469 1349.9763,-136.9584 1351.821,-130.2059"/>
</g>
<!-- Node26&#45;&gt;Node2 -->
<g id="edge43" class="edge">
<title>Node26&#45;&gt;Node2</title>
<path fill="none" stroke="#191970" d="M59.2663,-113.6618C62.0366,-113.0387 64.8122,-112.4709 67.5,-112 240.5704,-81.6799 290.7731,-107.7465 467.0133,-75.9818"/>
<polygon fill="#191970" stroke="#191970" points="467.6686,-79.4201 476.8706,-74.1691 466.4025,-72.5355 467.6686,-79.4201"/>
</g>
<!-- Node27&#45;&gt;Node16 -->
<g id="edge45" class="edge">
<title>Node27&#45;&gt;Node16</title>
<path fill="none" stroke="#191970" d="M860.9219,-224.2554C863.7214,-200.8781 867.1071,-141.3787 834.5,-112 775.9181,-59.2184 564.9359,-85.8314 469.1872,-75.7641"/>
<polygon fill="#191970" stroke="#191970" points="469.5502,-72.2823 459.1927,-74.5119 468.68,-79.228 469.5502,-72.2823"/>
</g>
<!-- Node27&#45;&gt;Node28 -->
<g id="edge46" class="edge">
<title>Node27&#45;&gt;Node28</title>
<path fill="none" stroke="#191970" d="M848.3521,-224.2455C838.9913,-216.0549 825.4142,-204.1749 814.3651,-194.5069"/>
<polygon fill="#191970" stroke="#191970" points="816.3508,-191.5937 806.5202,-187.6427 811.7412,-196.8618 816.3508,-191.5937"/>
</g>
<!-- Node27&#45;&gt;Node29 -->
<g id="edge50" class="edge">
<title>Node27&#45;&gt;Node29</title>
<path fill="none" stroke="#191970" d="M871.1705,-224.2455C881.0661,-215.9746 895.4627,-203.9416 907.0901,-194.2232"/>
<polygon fill="#191970" stroke="#191970" points="909.535,-196.7413 914.9632,-187.6427 905.0458,-191.3703 909.535,-196.7413"/>
</g>
<!-- Node28&#45;&gt;Node3 -->
<g id="edge47" class="edge">
<title>Node28&#45;&gt;Node3</title>
<path fill="none" stroke="#191970" d="M783.6553,-168.2455C773.612,-159.9746 759.0005,-147.9416 747.1996,-138.2232"/>
<polygon fill="#191970" stroke="#191970" points="749.1533,-135.298 739.209,-131.6427 744.7033,-140.7015 749.1533,-135.298"/>
</g>
<!-- Node28&#45;&gt;Node5 -->
<g id="edge49" class="edge">
<title>Node28&#45;&gt;Node5</title>
<path fill="none" stroke="#191970" d="M818.0197,-168.3733C839.2372,-159.3032 871.2276,-145.6279 894.9769,-135.4755"/>
<polygon fill="#191970" stroke="#191970" points="896.4548,-138.6502 904.2742,-131.5011 893.7033,-132.2136 896.4548,-138.6502"/>
</g>
<!-- Node28&#45;&gt;Node12 -->
<g id="edge48" class="edge">
<title>Node28&#45;&gt;Node12</title>
<path fill="none" stroke="#191970" d="M796.0226,-168.2455C796.414,-160.9382 796.9628,-150.6944 797.4444,-141.7046"/>
<polygon fill="#191970" stroke="#191970" points="800.9434,-141.8156 797.9834,-131.6427 793.9534,-141.4411 800.9434,-141.8156"/>
</g>
<!-- Node29&#45;&gt;Node3 -->
<g id="edge51" class="edge">
<title>Node29&#45;&gt;Node3</title>
<path fill="none" stroke="#191970" d="M892.2907,-168.3733C856.5356,-158.3115 800.6414,-142.5825 764.0397,-132.2825"/>
<polygon fill="#191970" stroke="#191970" points="764.8348,-128.8704 754.2605,-129.5306 762.9385,-135.6087 764.8348,-128.8704"/>
</g>
<!-- Node29&#45;&gt;Node5 -->
<g id="edge52" class="edge">
<title>Node29&#45;&gt;Node5</title>
<path fill="none" stroke="#191970" d="M926.5,-168.2455C926.5,-160.9382 926.5,-150.6944 926.5,-141.7046"/>
<polygon fill="#191970" stroke="#191970" points="930.0001,-141.6426 926.5,-131.6427 923.0001,-141.6427 930.0001,-141.6426"/>
</g>
<!-- Node30&#45;&gt;Node5 -->
<g id="edge54" class="edge">
<title>Node30&#45;&gt;Node5</title>
<path fill="none" stroke="#191970" d="M1423.3312,-224.35C1416.3001,-209.3856 1400.5578,-180.9598 1377.5,-168 1342.0538,-148.0772 1069.9483,-130.3442 966.362,-124.2479"/>
<polygon fill="#191970" stroke="#191970" points="966.489,-120.7495 956.3022,-123.6614 966.0815,-127.7376 966.489,-120.7495"/>
</g>
<!-- Node31&#45;&gt;Node8 -->
<g id="edge58" class="edge">
<title>Node31&#45;&gt;Node8</title>
<path fill="none" stroke="#191970" d="M1637.0106,-224.0553C1625.2497,-209.2261 1600.9405,-181.6089 1573.5,-168 1535.2601,-149.0352 1416.4857,-133.6974 1351.7068,-126.4783"/>
<polygon fill="#191970" stroke="#191970" points="1351.7354,-122.9606 1341.4133,-125.349 1350.9719,-129.9188 1351.7354,-122.9606"/>
</g>
<!-- Node32&#45;&gt;Node4 -->
<g id="edge60" class="edge">
<title>Node32&#45;&gt;Node4</title>
<path fill="none" stroke="#191970" d="M1332.5,-224.2455C1332.5,-216.9382 1332.5,-206.6944 1332.5,-197.7046"/>
<polygon fill="#191970" stroke="#191970" points="1336.0001,-197.6426 1332.5,-187.6427 1329.0001,-197.6427 1336.0001,-197.6426"/>
</g>
<!-- Node32&#45;&gt;Node8 -->
<g id="edge61" class="edge">
<title>Node32&#45;&gt;Node8</title>
<path fill="none" stroke="#191970" d="M1347.1937,-224.3561C1364.2903,-211.8574 1388.8209,-189.1532 1377.5,-168 1370.0485,-154.0767 1356.3151,-143.6399 1343.051,-136.258"/>
<polygon fill="#191970" stroke="#191970" points="1344.5215,-133.0787 1334.0262,-131.6302 1341.3274,-139.3075 1344.5215,-133.0787"/>
</g>
<!-- Node33&#45;&gt;Node3 -->
<g id="edge63" class="edge">
<title>Node33&#45;&gt;Node3</title>
<path fill="none" stroke="#191970" d="M733.9032,-224.4509C732.7615,-206.184 730.2472,-165.9553 728.7311,-141.6976"/>
<polygon fill="#191970" stroke="#191970" points="732.2124,-141.2871 728.0953,-131.5249 725.226,-141.7238 732.2124,-141.2871"/>
</g>
<!-- Node34&#45;&gt;Node2 -->
<g id="edge67" class="edge">
<title>Node34&#45;&gt;Node2</title>
<path fill="none" stroke="#191970" d="M493.4379,-168.4509C495.2319,-150.184 499.183,-109.9553 501.5654,-85.6976"/>
<polygon fill="#191970" stroke="#191970" points="505.0702,-85.8191 502.5645,-75.5249 498.1038,-85.1349 505.0702,-85.8191"/>
</g>
<!-- Node34&#45;&gt;Node3 -->
<g id="edge68" class="edge">
<title>Node34&#45;&gt;Node3</title>
<path fill="none" stroke="#191970" d="M525.1757,-170.2134C568.7007,-159.8415 645.4756,-141.5462 690.9001,-130.7217"/>
<polygon fill="#191970" stroke="#191970" points="691.9976,-134.0582 700.9139,-128.3354 690.3749,-127.2489 691.9976,-134.0582"/>
</g>
<!-- Node34&#45;&gt;Node12 -->
<g id="edge69" class="edge">
<title>Node34&#45;&gt;Node12</title>
<path fill="none" stroke="#191970" d="M525.0047,-169.9969C528.2058,-169.2882 531.4115,-168.6095 534.5,-168 632.4197,-148.6766 661.112,-153.8352 761.8539,-132.1655"/>
<polygon fill="#191970" stroke="#191970" points="762.8116,-135.5389 771.8328,-129.983 761.3159,-128.7005 762.8116,-135.5389"/>
</g>
<!-- Node34&#45;&gt;Node20 -->
<g id="edge66" class="edge">
<title>Node34&#45;&gt;Node20</title>
<path fill="none" stroke="#191970" d="M475.0813,-168.2455C459.4515,-159.4928 436.2981,-146.527 418.4815,-136.5496"/>
<polygon fill="#191970" stroke="#191970" points="420.1543,-133.475 409.7191,-131.6427 416.734,-139.5825 420.1543,-133.475"/>
</g>
<!-- Node36&#45;&gt;Node2 -->
<g id="edge75" class="edge">
<title>Node36&#45;&gt;Node2</title>
<path fill="none" stroke="#191970" d="M169.6109,-168.0321C183.8242,-153.1727 212.8407,-125.5164 243.5,-112 333.2706,-72.4239 367.4858,-96.3409 466.9935,-76.0779"/>
<polygon fill="#191970" stroke="#191970" points="467.7835,-79.4881 476.8311,-73.9754 466.3204,-72.6427 467.7835,-79.4881"/>
</g>
<!-- Node36&#45;&gt;Node5 -->
<g id="edge73" class="edge">
<title>Node36&#45;&gt;Node5</title>
<path fill="none" stroke="#191970" d="M193.0417,-175.0671C216.7312,-172.9748 249.5917,-170.1606 278.5,-168 525.4398,-149.5438 587.7965,-153.3844 834.5,-132 851.5692,-130.5204 870.382,-128.5383 886.5237,-126.729"/>
<polygon fill="#191970" stroke="#191970" points="887.1597,-130.1793 896.7003,-125.572 886.3689,-123.2241 887.1597,-130.1793"/>
</g>
<!-- Node36&#45;&gt;Node26 -->
<g id="edge74" class="edge">
<title>Node36&#45;&gt;Node26</title>
<path fill="none" stroke="#191970" d="M137.9803,-168.3733C116.7628,-159.3032 84.7724,-145.6279 61.0231,-135.4755"/>
<polygon fill="#191970" stroke="#191970" points="62.2967,-132.2136 51.7258,-131.5011 59.5452,-138.6502 62.2967,-132.2136"/>
</g>
</g>
</svg>
