<?xml version="1.0" encoding="UTF-8" standalone="no"?>
<!DOCTYPE svg PUBLIC "-//W3C//DTD SVG 1.1//EN"
 "http://www.w3.org/Graphics/SVG/1.1/DTD/svg11.dtd">
<!-- Generated by graphviz version 2.42.4 (0)
 -->
<!-- Title: jngl/all.hpp Pages: 1 -->
<svg width="2025pt" height="308pt"
 viewBox="0.00 0.00 2025.00 308.00" xmlns="http://www.w3.org/2000/svg" xmlns:xlink="http://www.w3.org/1999/xlink">
<g id="graph0" class="graph" transform="scale(1 1) rotate(0) translate(4 304)">
<title>jngl/all.hpp</title>
<polygon fill="white" stroke="transparent" points="-4,4 -4,-304 2021,-304 2021,4 -4,4"/>
<!-- Node1 -->
<g id="node1" class="node">
<title>Node1</title>
<g id="a_node1"><a xlink:title="Includes all JNGL headers except for init.hpp.">
<polygon fill="#bfbfbf" stroke="black" points="993,-280.5 993,-299.5 1082,-299.5 1082,-280.5 993,-280.5"/>
<text text-anchor="middle" x="1037.5" y="-287.5" font-family="'Consolas',monospace" font-size="10.00">jngl/all.hpp</text>
</a>
</g>
</g>
<!-- Node2 -->
<g id="node2" class="node">
<title>Node2</title>
<g id="a_node2"><a xlink:href="App_8hpp.html" target="_top" xlink:title=" ">
<polygon fill="white" stroke="black" points="243,-112.5 243,-131.5 302,-131.5 302,-112.5 243,-112.5"/>
<text text-anchor="middle" x="272.5" y="-119.5" font-family="'Consolas',monospace" font-size="10.00">App.hpp</text>
</a>
</g>
</g>
<!-- Node1&#45;&gt;Node2 -->
<g id="edge1" class="edge">
<title>Node1&#45;&gt;Node2</title>
<path fill="none" stroke="midnightblue" d="M992.94,-288.86C845.4,-288.05 379.02,-282.43 324.5,-244 290.65,-220.14 278.67,-169.47 274.56,-141.87"/>
<polygon fill="midnightblue" stroke="midnightblue" points="277.98,-141.08 273.23,-131.61 271.04,-141.97 277.98,-141.08"/>
</g>
<!-- Node5 -->
<g id="node5" class="node">
<title>Node5</title>
<g id="a_node5"><a xlink:href="Color_8hpp.html" target="_top" xlink:title=" ">
<polygon fill="white" stroke="black" points="1553,-56.5 1553,-75.5 1624,-75.5 1624,-56.5 1553,-56.5"/>
<text text-anchor="middle" x="1588.5" y="-63.5" font-family="'Consolas',monospace" font-size="10.00">Color.hpp</text>
</a>
</g>
</g>
<!-- Node1&#45;&gt;Node5 -->
<g id="edge4" class="edge">
<title>Node1&#45;&gt;Node5</title>
<path fill="none" stroke="midnightblue" d="M1082.14,-288.48C1223.92,-286.51 1657.8,-277.74 1710.5,-244 1764.93,-209.16 1811.37,-162.86 1771.5,-112 1754.73,-90.61 1682.62,-78.02 1634.08,-71.83"/>
<polygon fill="midnightblue" stroke="midnightblue" points="1634.46,-68.35 1624.11,-70.6 1633.61,-75.3 1634.46,-68.35"/>
</g>
<!-- Node6 -->
<g id="node6" class="node">
<title>Node6</title>
<g id="a_node6"><a xlink:href="Controller_8hpp.html" target="_top" xlink:title=" ">
<polygon fill="white" stroke="black" points="1222,-168.5 1222,-187.5 1323,-187.5 1323,-168.5 1222,-168.5"/>
<text text-anchor="middle" x="1272.5" y="-175.5" font-family="'Consolas',monospace" font-size="10.00">Controller.hpp</text>
</a>
</g>
</g>
<!-- Node1&#45;&gt;Node6 -->
<g id="edge5" class="edge">
<title>Node1&#45;&gt;Node6</title>
<path fill="none" stroke="midnightblue" d="M1082.09,-280.46C1113.31,-273.38 1155.38,-261.6 1189.5,-244 1214.99,-230.86 1240.37,-209.45 1256.23,-194.82"/>
<polygon fill="midnightblue" stroke="midnightblue" points="1258.73,-197.28 1263.6,-187.87 1253.92,-192.18 1258.73,-197.28"/>
</g>
<!-- Node7 -->
<g id="node7" class="node">
<title>Node7</title>
<g id="a_node7"><a xlink:href="input_8hpp.html" target="_top" xlink:title="Input related functions.">
<polygon fill="white" stroke="black" points="1317,-112.5 1317,-131.5 1388,-131.5 1388,-112.5 1317,-112.5"/>
<text text-anchor="middle" x="1352.5" y="-119.5" font-family="'Consolas',monospace" font-size="10.00">input.hpp</text>
</a>
</g>
</g>
<!-- Node1&#45;&gt;Node7 -->
<g id="edge54" class="edge">
<title>Node1&#45;&gt;Node7</title>
<path fill="none" stroke="midnightblue" d="M1082.22,-287.24C1147.69,-282.1 1268.78,-262.43 1332.5,-188 1343.65,-174.98 1348.58,-155.82 1350.77,-141.67"/>
<polygon fill="midnightblue" stroke="midnightblue" points="1354.26,-141.97 1352,-131.62 1347.31,-141.12 1354.26,-141.97"/>
</g>
<!-- Node14 -->
<g id="node14" class="node">
<title>Node14</title>
<g id="a_node14"><a xlink:href="Drawable_8hpp.html" target="_top" xlink:title="Contains jngl::Drawable class.">
<polygon fill="white" stroke="black" points="1139,-112.5 1139,-131.5 1228,-131.5 1228,-112.5 1139,-112.5"/>
<text text-anchor="middle" x="1183.5" y="-119.5" font-family="'Consolas',monospace" font-size="10.00">Drawable.hpp</text>
</a>
</g>
</g>
<!-- Node1&#45;&gt;Node14 -->
<g id="edge14" class="edge">
<title>Node1&#45;&gt;Node14</title>
<path fill="none" stroke="midnightblue" d="M1050.42,-280.35C1073.45,-264.4 1122.04,-228.27 1152.5,-188 1163.33,-173.68 1171.77,-154.97 1177.08,-141.3"/>
<polygon fill="midnightblue" stroke="midnightblue" points="1180.49,-142.2 1180.67,-131.6 1173.92,-139.77 1180.49,-142.2"/>
</g>
<!-- Node15 -->
<g id="node15" class="node">
<title>Node15</title>
<g id="a_node15"><a xlink:href="Shader_8hpp.html" target="_top" xlink:title=" ">
<polygon fill="white" stroke="black" points="145,-224.5 145,-243.5 222,-243.5 222,-224.5 145,-224.5"/>
<text text-anchor="middle" x="183.5" y="-231.5" font-family="'Consolas',monospace" font-size="10.00">Shader.hpp</text>
</a>
</g>
</g>
<!-- Node1&#45;&gt;Node15 -->
<g id="edge16" class="edge">
<title>Node1&#45;&gt;Node15</title>
<path fill="none" stroke="midnightblue" d="M992.75,-288.14C871.18,-285.45 524.73,-275.39 238.5,-244 236.43,-243.77 234.33,-243.52 232.2,-243.25"/>
<polygon fill="midnightblue" stroke="midnightblue" points="232.58,-239.77 222.19,-241.86 231.61,-246.7 232.58,-239.77"/>
</g>
<!-- Node16 -->
<g id="node16" class="node">
<title>Node16</title>
<g id="a_node16"><a xlink:href="ShaderProgram_8hpp.html" target="_top" xlink:title="Contains jngl::ShaderProgram class.">
<polygon fill="white" stroke="black" points="759,-112.5 759,-131.5 878,-131.5 878,-112.5 759,-112.5"/>
<text text-anchor="middle" x="818.5" y="-119.5" font-family="'Consolas',monospace" font-size="10.00">ShaderProgram.hpp</text>
</a>
</g>
</g>
<!-- Node1&#45;&gt;Node16 -->
<g id="edge18" class="edge">
<title>Node1&#45;&gt;Node16</title>
<path fill="none" stroke="midnightblue" d="M1010.95,-280.41C971.78,-266.56 898.24,-235.9 852.5,-188 839.6,-174.5 830.33,-155.14 824.75,-141.06"/>
<polygon fill="midnightblue" stroke="midnightblue" points="827.97,-139.67 821.22,-131.51 821.41,-142.1 827.97,-139.67"/>
</g>
<!-- Node18 -->
<g id="node18" class="node">
<title>Node18</title>
<g id="a_node18"><a xlink:href="SoundFile_8hpp.html" target="_top" xlink:title="Contains jngl::SoundFile class.">
<polygon fill="white" stroke="black" points="607,-112.5 607,-131.5 702,-131.5 702,-112.5 607,-112.5"/>
<text text-anchor="middle" x="654.5" y="-119.5" font-family="'Consolas',monospace" font-size="10.00">SoundFile.hpp</text>
</a>
</g>
</g>
<!-- Node1&#45;&gt;Node18 -->
<g id="edge23" class="edge">
<title>Node1&#45;&gt;Node18</title>
<path fill="none" stroke="midnightblue" d="M1004.41,-280.45C974.65,-272.37 929.99,-259.22 892.5,-244 811.22,-211 720.04,-160.66 678.02,-136.66"/>
<polygon fill="midnightblue" stroke="midnightblue" points="679.54,-133.49 669.13,-131.55 676.05,-139.56 679.54,-133.49"/>
</g>
<!-- Node19 -->
<g id="node19" class="node">
<title>Node19</title>
<g id="a_node19"><a xlink:href="Vertex_8hpp.html" target="_top" xlink:title=" ">
<polygon fill="white" stroke="black" points="1740,-56.5 1740,-75.5 1817,-75.5 1817,-56.5 1740,-56.5"/>
<text text-anchor="middle" x="1778.5" y="-63.5" font-family="'Consolas',monospace" font-size="10.00">Vertex.hpp</text>
</a>
</g>
</g>
<!-- Node1&#45;&gt;Node19 -->
<g id="edge27" class="edge">
<title>Node1&#45;&gt;Node19</title>
<path fill="none" stroke="midnightblue" d="M1082.04,-287.98C1226.81,-284.41 1678.12,-271.18 1737.5,-244 1769.22,-229.48 1779.3,-220.29 1792.5,-188 1806.58,-153.56 1794.69,-109.3 1785.88,-84.99"/>
<polygon fill="midnightblue" stroke="midnightblue" points="1789.13,-83.68 1782.26,-75.6 1782.59,-86.19 1789.13,-83.68"/>
</g>
<!-- Node20 -->
<g id="node20" class="node">
<title>Node20</title>
<g id="a_node20"><a xlink:href="Video_8hpp.html" target="_top" xlink:title=" ">
<polygon fill="white" stroke="black" points="333,-224.5 333,-243.5 404,-243.5 404,-224.5 333,-224.5"/>
<text text-anchor="middle" x="368.5" y="-231.5" font-family="'Consolas',monospace" font-size="10.00">Video.hpp</text>
</a>
</g>
</g>
<!-- Node1&#45;&gt;Node20 -->
<g id="edge28" class="edge">
<title>Node1&#45;&gt;Node20</title>
<path fill="none" stroke="midnightblue" d="M992.67,-287.36C890.49,-283.28 632.57,-270.97 418.5,-244 417.05,-243.82 415.58,-243.62 414.1,-243.41"/>
<polygon fill="midnightblue" stroke="midnightblue" points="414.62,-239.95 404.21,-241.9 413.56,-246.87 414.62,-239.95"/>
</g>
<!-- Node21 -->
<g id="node21" class="node">
<title>Node21</title>
<g id="a_node21"><a xlink:href="sprite_8hpp.html" target="_top" xlink:title="Contains jngl::Sprite class and related functions.">
<polygon fill="white" stroke="black" points="1066,-168.5 1066,-187.5 1143,-187.5 1143,-168.5 1066,-168.5"/>
<text text-anchor="middle" x="1104.5" y="-175.5" font-family="'Consolas',monospace" font-size="10.00">sprite.hpp</text>
</a>
</g>
</g>
<!-- Node1&#45;&gt;Node21 -->
<g id="edge76" class="edge">
<title>Node1&#45;&gt;Node21</title>
<path fill="none" stroke="midnightblue" d="M1042.76,-280.37C1053.77,-262.3 1079.42,-220.18 1093.96,-196.31"/>
<polygon fill="midnightblue" stroke="midnightblue" points="1097.05,-197.95 1099.27,-187.59 1091.08,-194.31 1097.05,-197.95"/>
</g>
<!-- Node22 -->
<g id="node22" class="node">
<title>Node22</title>
<g id="a_node22"><a xlink:href="Widget_8hpp_source.html" target="_top" xlink:title=" ">
<polygon fill="white" stroke="black" points="1541,-168.5 1541,-187.5 1618,-187.5 1618,-168.5 1541,-168.5"/>
<text text-anchor="middle" x="1579.5" y="-175.5" font-family="'Consolas',monospace" font-size="10.00">Widget.hpp</text>
</a>
</g>
</g>
<!-- Node1&#45;&gt;Node22 -->
<g id="edge36" class="edge">
<title>Node1&#45;&gt;Node22</title>
<path fill="none" stroke="midnightblue" d="M1082.36,-287.78C1182.64,-284.55 1421.99,-273.85 1496.5,-244 1523.7,-233.1 1549.34,-210.41 1564.73,-194.94"/>
<polygon fill="midnightblue" stroke="midnightblue" points="1567.38,-197.24 1571.8,-187.61 1562.34,-192.38 1567.38,-197.24"/>
</g>
<!-- Node23 -->
<g id="node23" class="node">
<title>Node23</title>
<g id="a_node23"><a xlink:href="debug_8hpp_source.html" target="_top" xlink:title=" ">
<polygon fill="white" stroke="black" points="537,-224.5 537,-243.5 608,-243.5 608,-224.5 537,-224.5"/>
<text text-anchor="middle" x="572.5" y="-231.5" font-family="'Consolas',monospace" font-size="10.00">debug.hpp</text>
</a>
</g>
</g>
<!-- Node1&#45;&gt;Node23 -->
<g id="edge38" class="edge">
<title>Node1&#45;&gt;Node23</title>
<path fill="none" stroke="midnightblue" d="M992.91,-283.82C904.47,-273.55 707.65,-250.69 618.26,-240.31"/>
<polygon fill="midnightblue" stroke="midnightblue" points="618.49,-236.82 608.16,-239.14 617.69,-243.77 618.49,-236.82"/>
</g>
<!-- Node24 -->
<g id="node24" class="node">
<title>Node24</title>
<g id="a_node24"><a xlink:href="message_8hpp.html" target="_top" xlink:title=" ">
<polygon fill="white" stroke="black" points="461,-168.5 461,-187.5 544,-187.5 544,-168.5 461,-168.5"/>
<text text-anchor="middle" x="502.5" y="-175.5" font-family="'Consolas',monospace" font-size="10.00">message.hpp</text>
</a>
</g>
</g>
<!-- Node1&#45;&gt;Node24 -->
<g id="edge66" class="edge">
<title>Node1&#45;&gt;Node24</title>
<path fill="none" stroke="midnightblue" d="M992.74,-287.7C875.4,-283.91 565.34,-271.39 528.5,-244 514.04,-233.25 507.61,-213.16 504.76,-198.15"/>
<polygon fill="midnightblue" stroke="midnightblue" points="508.16,-197.26 503.2,-187.9 501.24,-198.31 508.16,-197.26"/>
</g>
<!-- Node26 -->
<g id="node26" class="node">
<title>Node26</title>
<g id="a_node26"><a xlink:href="font_8hpp.html" target="_top" xlink:title="Contains jngl::Font class and related functions.">
<polygon fill="white" stroke="black" points="1406,-112.5 1406,-131.5 1471,-131.5 1471,-112.5 1406,-112.5"/>
<text text-anchor="middle" x="1438.5" y="-119.5" font-family="'Consolas',monospace" font-size="10.00">font.hpp</text>
</a>
</g>
</g>
<!-- Node1&#45;&gt;Node26 -->
<g id="edge42" class="edge">
<title>Node1&#45;&gt;Node26</title>
<path fill="none" stroke="midnightblue" d="M1082.1,-287.65C1133.88,-284.61 1220.84,-274.88 1288.5,-244 1345.08,-218.18 1398.58,-166.06 1423.64,-139.45"/>
<polygon fill="midnightblue" stroke="midnightblue" points="1426.52,-141.49 1430.74,-131.77 1421.38,-136.73 1426.52,-141.49"/>
</g>
<!-- Node27 -->
<g id="node27" class="node">
<title>Node27</title>
<g id="a_node27"><a xlink:href="framebuffer_8hpp.html" target="_top" xlink:title="Contains jngl::FrameBuffer class.">
<polygon fill="white" stroke="black" points="1489,-112.5 1489,-131.5 1590,-131.5 1590,-112.5 1489,-112.5"/>
<text text-anchor="middle" x="1539.5" y="-119.5" font-family="'Consolas',monospace" font-size="10.00">framebuffer.hpp</text>
</a>
</g>
</g>
<!-- Node1&#45;&gt;Node27 -->
<g id="edge47" class="edge">
<title>Node1&#45;&gt;Node27</title>
<path fill="none" stroke="midnightblue" d="M1082.28,-286.67C1139.07,-282.64 1239.35,-271.91 1320.5,-244 1398.51,-217.17 1481.3,-163.56 1518.84,-137.67"/>
<polygon fill="midnightblue" stroke="midnightblue" points="1521.18,-140.3 1527.38,-131.71 1517.18,-134.56 1521.18,-140.3"/>
</g>
<!-- Node28 -->
<g id="node28" class="node">
<title>Node28</title>
<g id="a_node28"><a xlink:href="job_8hpp.html" target="_top" xlink:title=" ">
<polygon fill="white" stroke="black" points="0,-168.5 0,-187.5 59,-187.5 59,-168.5 0,-168.5"/>
<text text-anchor="middle" x="29.5" y="-175.5" font-family="'Consolas',monospace" font-size="10.00">job.hpp</text>
</a>
</g>
</g>
<!-- Node1&#45;&gt;Node28 -->
<g id="edge55" class="edge">
<title>Node1&#45;&gt;Node28</title>
<path fill="none" stroke="midnightblue" d="M992.74,-288.4C804.63,-285.71 86.07,-273.52 48.5,-244 34.8,-233.23 30.59,-213.15 29.48,-198.14"/>
<polygon fill="midnightblue" stroke="midnightblue" points="32.97,-197.77 29.13,-187.89 25.97,-198.01 32.97,-197.77"/>
</g>
<!-- Node29 -->
<g id="node29" class="node">
<title>Node29</title>
<g id="a_node29"><a xlink:href="main_8hpp_source.html" target="_top" xlink:title=" ">
<polygon fill="white" stroke="black" points="861,-168.5 861,-187.5 926,-187.5 926,-168.5 861,-168.5"/>
<text text-anchor="middle" x="893.5" y="-175.5" font-family="'Consolas',monospace" font-size="10.00">main.hpp</text>
</a>
</g>
</g>
<!-- Node1&#45;&gt;Node29 -->
<g id="edge57" class="edge">
<title>Node1&#45;&gt;Node29</title>
<path fill="none" stroke="midnightblue" d="M1026.2,-280.37C1001.7,-261.65 943.44,-217.15 912.92,-193.83"/>
<polygon fill="midnightblue" stroke="midnightblue" points="914.82,-190.88 904.75,-187.59 910.57,-196.44 914.82,-190.88"/>
</g>
<!-- Node30 -->
<g id="node30" class="node">
<title>Node30</title>
<g id="a_node30"><a xlink:href="other_8hpp.html" target="_top" xlink:title=" ">
<polygon fill="white" stroke="black" points="935,-112.5 935,-131.5 1006,-131.5 1006,-112.5 935,-112.5"/>
<text text-anchor="middle" x="970.5" y="-119.5" font-family="'Consolas',monospace" font-size="10.00">other.hpp</text>
</a>
</g>
</g>
<!-- Node1&#45;&gt;Node30 -->
<g id="edge67" class="edge">
<title>Node1&#45;&gt;Node30</title>
<path fill="none" stroke="midnightblue" d="M1037.99,-280.49C1038.81,-259.88 1038.69,-206.15 1018.5,-168 1012.22,-156.13 1001.58,-145.67 991.92,-137.83"/>
<polygon fill="midnightblue" stroke="midnightblue" points="993.88,-134.93 983.81,-131.65 989.64,-140.49 993.88,-134.93"/>
</g>
<!-- Node31 -->
<g id="node31" class="node">
<title>Node31</title>
<g id="a_node31"><a xlink:href="window_8hpp.html" target="_top" xlink:title="Functions related to the main window.">
<polygon fill="white" stroke="black" points="435,-112.5 435,-131.5 512,-131.5 512,-112.5 435,-112.5"/>
<text text-anchor="middle" x="473.5" y="-119.5" font-family="'Consolas',monospace" font-size="10.00">window.hpp</text>
</a>
</g>
</g>
<!-- Node1&#45;&gt;Node31 -->
<g id="edge83" class="edge">
<title>Node1&#45;&gt;Node31</title>
<path fill="none" stroke="midnightblue" d="M992.67,-289.09C881.16,-288.71 594.07,-283.78 508.5,-244 476.58,-229.16 465.97,-220.52 452.5,-188 445.93,-172.13 453.51,-153.41 461.34,-140.15"/>
<polygon fill="midnightblue" stroke="midnightblue" points="464.4,-141.87 466.89,-131.57 458.52,-138.07 464.4,-141.87"/>
</g>
<!-- Node32 -->
<g id="node32" class="node">
<title>Node32</title>
<g id="a_node32"><a xlink:href="matrix_8hpp.html" target="_top" xlink:title="Functions related to the global ModelView matrix.">
<polygon fill="white" stroke="black" points="1857,-224.5 1857,-243.5 1934,-243.5 1934,-224.5 1857,-224.5"/>
<text text-anchor="middle" x="1895.5" y="-231.5" font-family="'Consolas',monospace" font-size="10.00">matrix.hpp</text>
</a>
</g>
</g>
<!-- Node1&#45;&gt;Node32 -->
<g id="edge65" class="edge">
<title>Node1&#45;&gt;Node32</title>
<path fill="none" stroke="midnightblue" d="M1082.15,-288.26C1204.26,-285.87 1553.87,-276.47 1842.5,-244 1843.8,-243.85 1845.13,-243.7 1846.46,-243.53"/>
<polygon fill="midnightblue" stroke="midnightblue" points="1847.36,-246.94 1856.78,-242.09 1846.4,-240 1847.36,-246.94"/>
</g>
<!-- Node33 -->
<g id="node33" class="node">
<title>Node33</title>
<g id="a_node33"><a xlink:href="screen_8hpp.html" target="_top" xlink:title=" ">
<polygon fill="white" stroke="black" points="1602,-224.5 1602,-243.5 1679,-243.5 1679,-224.5 1602,-224.5"/>
<text text-anchor="middle" x="1640.5" y="-231.5" font-family="'Consolas',monospace" font-size="10.00">screen.hpp</text>
</a>
</g>
</g>
<!-- Node1&#45;&gt;Node33 -->
<g id="edge68" class="edge">
<title>Node1&#45;&gt;Node33</title>
<path fill="none" stroke="midnightblue" d="M1082.04,-286.01C1174.02,-279.68 1391.55,-263.85 1573.5,-244 1579.4,-243.36 1585.59,-242.61 1591.72,-241.84"/>
<polygon fill="midnightblue" stroke="midnightblue" points="1592.46,-245.27 1601.92,-240.52 1591.55,-238.33 1592.46,-245.27"/>
</g>
<!-- Node34 -->
<g id="node34" class="node">
<title>Node34</title>
<g id="a_node34"><a xlink:href="shapes_8hpp.html" target="_top" xlink:title="Functions for drawing shapes.">
<polygon fill="white" stroke="black" points="1685,-112.5 1685,-131.5 1762,-131.5 1762,-112.5 1685,-112.5"/>
<text text-anchor="middle" x="1723.5" y="-119.5" font-family="'Consolas',monospace" font-size="10.00">shapes.hpp</text>
</a>
</g>
</g>
<!-- Node1&#45;&gt;Node34 -->
<g id="edge70" class="edge">
<title>Node1&#45;&gt;Node34</title>
<path fill="none" stroke="midnightblue" d="M1082.46,-288.82C1222.06,-287.88 1641.56,-281.89 1688.5,-244 1719.17,-219.24 1724,-169.36 1724.18,-142.01"/>
<polygon fill="midnightblue" stroke="midnightblue" points="1727.67,-141.75 1724.03,-131.81 1720.67,-141.86 1727.67,-141.75"/>
</g>
<!-- Node35 -->
<g id="node35" class="node">
<title>Node35</title>
<g id="a_node35"><a xlink:href="sound_8hpp.html" target="_top" xlink:title="Sound related functions.">
<polygon fill="white" stroke="black" points="154,-112.5 154,-131.5 225,-131.5 225,-112.5 154,-112.5"/>
<text text-anchor="middle" x="189.5" y="-119.5" font-family="'Consolas',monospace" font-size="10.00">sound.hpp</text>
</a>
</g>
</g>
<!-- Node1&#45;&gt;Node35 -->
<g id="edge73" class="edge">
<title>Node1&#45;&gt;Node35</title>
<path fill="none" stroke="midnightblue" d="M992.94,-288.21C843.04,-285.3 362.88,-273.73 300.5,-244 252.85,-221.29 216.06,-168.13 199.35,-140.45"/>
<polygon fill="midnightblue" stroke="midnightblue" points="202.36,-138.67 194.29,-131.81 196.32,-142.21 202.36,-138.67"/>
</g>
<!-- Node36 -->
<g id="node36" class="node">
<title>Node36</title>
<g id="a_node36"><a xlink:href="text_8hpp.html" target="_top" xlink:title=" ">
<polygon fill="white" stroke="black" points="944,-168.5 944,-187.5 1009,-187.5 1009,-168.5 944,-168.5"/>
<text text-anchor="middle" x="976.5" y="-175.5" font-family="'Consolas',monospace" font-size="10.00">text.hpp</text>
</a>
</g>
</g>
<!-- Node1&#45;&gt;Node36 -->
<g id="edge77" class="edge">
<title>Node1&#45;&gt;Node36</title>
<path fill="none" stroke="midnightblue" d="M1032.71,-280.37C1022.74,-262.38 999.54,-220.55 986.27,-196.63"/>
<polygon fill="midnightblue" stroke="midnightblue" points="989.17,-194.64 981.26,-187.59 983.05,-198.03 989.17,-194.64"/>
</g>
<!-- Node37 -->
<g id="node37" class="node">
<title>Node37</title>
<g id="a_node37"><a xlink:href="time_8hpp.html" target="_top" xlink:title="Timing functions.">
<polygon fill="white" stroke="black" points="1952,-224.5 1952,-243.5 2017,-243.5 2017,-224.5 1952,-224.5"/>
<text text-anchor="middle" x="1984.5" y="-231.5" font-family="'Consolas',monospace" font-size="10.00">time.hpp</text>
</a>
</g>
</g>
<!-- Node1&#45;&gt;Node37 -->
<g id="edge82" class="edge">
<title>Node1&#45;&gt;Node37</title>
<path fill="none" stroke="midnightblue" d="M1082.05,-289.4C1212.78,-290.03 1606.72,-287.96 1941.53,-244.04"/>
<polygon fill="midnightblue" stroke="midnightblue" points="1942.46,-247.45 1951.91,-242.67 1941.54,-240.51 1942.46,-247.45"/>
</g>
<!-- Node38 -->
<g id="node38" class="node">
<title>Node38</title>
<g id="a_node38"><a xlink:href="work_8hpp.html" target="_top" xlink:title=" ">
<polygon fill="white" stroke="black" points="58,-224.5 58,-243.5 123,-243.5 123,-224.5 58,-224.5"/>
<text text-anchor="middle" x="90.5" y="-231.5" font-family="'Consolas',monospace" font-size="10.00">work.hpp</text>
</a>
</g>
</g>
<!-- Node1&#45;&gt;Node38 -->
<g id="edge84" class="edge">
<title>Node1&#45;&gt;Node38</title>
<path fill="none" stroke="midnightblue" d="M992.78,-289.03C861.07,-288.62 463.36,-283.93 136.5,-244 135.41,-243.87 134.31,-243.72 133.19,-243.57"/>
<polygon fill="midnightblue" stroke="midnightblue" points="133.5,-240.07 123.08,-241.97 132.41,-246.99 133.5,-240.07"/>
</g>
<!-- Node3 -->
<g id="node3" class="node">
<title>Node3</title>
<g id="a_node3"><a target="_parent" xlink:href="http://en.cppreference.com/w/cpp/header/memory.html" target="_top" xlink:title=" ">
<polygon fill="white" stroke="black" points="418,-56.5 418,-75.5 471,-75.5 471,-56.5 418,-56.5"/>
<text text-anchor="middle" x="444.5" y="-63.5" font-family="'Consolas',monospace" font-size="10.00">memory</text>
</a>
</g>
</g>
<!-- Node2&#45;&gt;Node3 -->
<g id="edge2" class="edge">
<title>Node2&#45;&gt;Node3</title>
<path fill="none" stroke="midnightblue" d="M299.75,-112.44C329.11,-103.23 375.97,-88.52 408.38,-78.34"/>
<polygon fill="midnightblue" stroke="midnightblue" points="409.45,-81.67 417.94,-75.34 407.35,-75 409.45,-81.67"/>
</g>
<!-- Node4 -->
<g id="node4" class="node">
<title>Node4</title>
<g id="a_node4"><a target="_parent" xlink:href="http://en.cppreference.com/w/cpp/header/string.html" target="_top" xlink:title=" ">
<polygon fill="white" stroke="black" points="525,-56.5 525,-75.5 578,-75.5 578,-56.5 525,-56.5"/>
<text text-anchor="middle" x="551.5" y="-63.5" font-family="'Consolas',monospace" font-size="10.00">string</text>
</a>
</g>
</g>
<!-- Node2&#45;&gt;Node4 -->
<g id="edge3" class="edge">
<title>Node2&#45;&gt;Node4</title>
<path fill="none" stroke="midnightblue" d="M302.09,-115.27C353.45,-105.33 458.93,-84.92 514.84,-74.1"/>
<polygon fill="midnightblue" stroke="midnightblue" points="515.53,-77.53 524.68,-72.19 514.2,-70.66 515.53,-77.53"/>
</g>
<!-- Node6&#45;&gt;Node7 -->
<g id="edge6" class="edge">
<title>Node6&#45;&gt;Node7</title>
<path fill="none" stroke="midnightblue" d="M1285.35,-168.32C1297.72,-159.98 1316.63,-147.21 1331.24,-137.35"/>
<polygon fill="midnightblue" stroke="midnightblue" points="1333.35,-140.15 1339.68,-131.65 1329.43,-134.35 1333.35,-140.15"/>
</g>
<!-- Node13 -->
<g id="node13" class="node">
<title>Node13</title>
<g id="a_node13"><a target="_parent" xlink:href="http://en.cppreference.com/w/cpp/header/chrono.html" target="_top" xlink:title=" ">
<polygon fill="white" stroke="black" points="1246,-112.5 1246,-131.5 1299,-131.5 1299,-112.5 1246,-112.5"/>
<text text-anchor="middle" x="1272.5" y="-119.5" font-family="'Consolas',monospace" font-size="10.00">chrono</text>
</a>
</g>
</g>
<!-- Node6&#45;&gt;Node13 -->
<g id="edge13" class="edge">
<title>Node6&#45;&gt;Node13</title>
<path fill="none" stroke="midnightblue" d="M1272.5,-168.08C1272.5,-161.01 1272.5,-150.86 1272.5,-141.99"/>
<polygon fill="midnightblue" stroke="midnightblue" points="1276,-141.75 1272.5,-131.75 1269,-141.75 1276,-141.75"/>
</g>
<!-- Node7&#45;&gt;Node3 -->
<g id="edge11" class="edge">
<title>Node7&#45;&gt;Node3</title>
<path fill="none" stroke="midnightblue" d="M1316.56,-113.17C1313.84,-112.73 1311.13,-112.33 1308.5,-112 958.82,-68.56 867.59,-105.88 516.5,-76 504.97,-75.02 492.44,-73.58 481.12,-72.14"/>
<polygon fill="midnightblue" stroke="midnightblue" points="481.49,-68.66 471.12,-70.84 480.58,-75.6 481.49,-68.66"/>
</g>
<!-- Node8 -->
<g id="node8" class="node">
<title>Node8</title>
<g id="a_node8"><a xlink:href="Vec2_8hpp.html" target="_top" xlink:title=" ">
<polygon fill="white" stroke="black" points="1438,-56.5 1438,-75.5 1503,-75.5 1503,-56.5 1438,-56.5"/>
<text text-anchor="middle" x="1470.5" y="-63.5" font-family="'Consolas',monospace" font-size="10.00">Vec2.hpp</text>
</a>
</g>
</g>
<!-- Node7&#45;&gt;Node8 -->
<g id="edge7" class="edge">
<title>Node7&#45;&gt;Node8</title>
<path fill="none" stroke="midnightblue" d="M1371.2,-112.44C1390.44,-103.64 1420.65,-89.81 1442.7,-79.72"/>
<polygon fill="midnightblue" stroke="midnightblue" points="1444.25,-82.86 1451.89,-75.52 1441.34,-76.5 1444.25,-82.86"/>
</g>
<!-- Node11 -->
<g id="node11" class="node">
<title>Node11</title>
<g id="a_node11"><a target="_parent" xlink:href="http://en.cppreference.com/w/cpp/header/functional.html" target="_top" xlink:title=" ">
<polygon fill="white" stroke="black" points="1108,-0.5 1108,-19.5 1185,-19.5 1185,-0.5 1108,-0.5"/>
<text text-anchor="middle" x="1146.5" y="-7.5" font-family="'Consolas',monospace" font-size="10.00">functional</text>
</a>
</g>
</g>
<!-- Node7&#45;&gt;Node11 -->
<g id="edge10" class="edge">
<title>Node7&#45;&gt;Node11</title>
<path fill="none" stroke="midnightblue" d="M1336.34,-112.37C1300.53,-93.25 1214.35,-47.23 1171.52,-24.36"/>
<polygon fill="midnightblue" stroke="midnightblue" points="1173.06,-21.21 1162.59,-19.59 1169.76,-27.39 1173.06,-21.21"/>
</g>
<!-- Node12 -->
<g id="node12" class="node">
<title>Node12</title>
<g id="a_node12"><a target="_parent" xlink:href="http://en.cppreference.com/w/cpp/header/vector.html" target="_top" xlink:title=" ">
<polygon fill="white" stroke="black" points="1027,-56.5 1027,-75.5 1080,-75.5 1080,-56.5 1027,-56.5"/>
<text text-anchor="middle" x="1053.5" y="-63.5" font-family="'Consolas',monospace" font-size="10.00">vector</text>
</a>
</g>
</g>
<!-- Node7&#45;&gt;Node12 -->
<g id="edge12" class="edge">
<title>Node7&#45;&gt;Node12</title>
<path fill="none" stroke="midnightblue" d="M1316.97,-113.65C1314.11,-113.08 1311.26,-112.53 1308.5,-112 1230.99,-97.24 1139.9,-81.56 1090.28,-73.17"/>
<polygon fill="midnightblue" stroke="midnightblue" points="1090.79,-69.71 1080.34,-71.49 1089.62,-76.61 1090.79,-69.71"/>
</g>
<!-- Node9 -->
<g id="node9" class="node">
<title>Node9</title>
<g id="a_node9"><a xlink:title=" ">
<polygon fill="white" stroke="#bfbfbf" points="1359,-0.5 1359,-19.5 1478,-19.5 1478,-0.5 1359,-0.5"/>
<text text-anchor="middle" x="1418.5" y="-7.5" font-family="'Consolas',monospace" font-size="10.00">boost/version.hpp</text>
</a>
</g>
</g>
<!-- Node8&#45;&gt;Node9 -->
<g id="edge8" class="edge">
<title>Node8&#45;&gt;Node9</title>
<path fill="none" stroke="midnightblue" d="M1461.91,-56.08C1454.34,-48.22 1443.12,-36.57 1433.99,-27.08"/>
<polygon fill="midnightblue" stroke="midnightblue" points="1436.38,-24.53 1426.93,-19.75 1431.34,-29.38 1436.38,-24.53"/>
</g>
<!-- Node10 -->
<g id="node10" class="node">
<title>Node10</title>
<g id="a_node10"><a target="_parent" xlink:href="http://en.cppreference.com/w/cpp/header/iosfwd.html" target="_top" xlink:title=" ">
<polygon fill="white" stroke="black" points="1496,-0.5 1496,-19.5 1549,-19.5 1549,-0.5 1496,-0.5"/>
<text text-anchor="middle" x="1522.5" y="-7.5" font-family="'Consolas',monospace" font-size="10.00">iosfwd</text>
</a>
</g>
</g>
<!-- Node8&#45;&gt;Node10 -->
<g id="edge9" class="edge">
<title>Node8&#45;&gt;Node10</title>
<path fill="none" stroke="midnightblue" d="M1479.09,-56.08C1486.66,-48.22 1497.88,-36.57 1507.01,-27.08"/>
<polygon fill="midnightblue" stroke="midnightblue" points="1509.66,-29.38 1514.07,-19.75 1504.62,-24.53 1509.66,-29.38"/>
</g>
<!-- Node14&#45;&gt;Node8 -->
<g id="edge15" class="edge">
<title>Node14&#45;&gt;Node8</title>
<path fill="none" stroke="midnightblue" d="M1228.03,-112.62C1282.61,-102.35 1374.43,-85.08 1428.05,-74.99"/>
<polygon fill="midnightblue" stroke="midnightblue" points="1428.74,-78.42 1437.92,-73.13 1427.44,-71.54 1428.74,-78.42"/>
</g>
<!-- Node15&#45;&gt;Node3 -->
<g id="edge17" class="edge">
<title>Node15&#45;&gt;Node3</title>
<path fill="none" stroke="midnightblue" d="M175.81,-224.26C157.73,-202.67 116.2,-146.04 145.5,-112 178.96,-73.13 335.52,-67.38 407.78,-66.84"/>
<polygon fill="midnightblue" stroke="midnightblue" points="407.82,-70.34 417.81,-66.79 407.79,-63.34 407.82,-70.34"/>
</g>
<!-- Node16&#45;&gt;Node3 -->
<g id="edge21" class="edge">
<title>Node16&#45;&gt;Node3</title>
<path fill="none" stroke="midnightblue" d="M759.24,-112.44C681.19,-101.18 546.29,-81.7 481.43,-72.33"/>
<polygon fill="midnightblue" stroke="midnightblue" points="481.66,-68.83 471.27,-70.86 480.66,-75.76 481.66,-68.83"/>
</g>
<!-- Node16&#45;&gt;Node4 -->
<g id="edge22" class="edge">
<title>Node16&#45;&gt;Node4</title>
<path fill="none" stroke="midnightblue" d="M776.19,-112.44C724.3,-101.95 637.2,-84.33 588.07,-74.4"/>
<polygon fill="midnightblue" stroke="midnightblue" points="588.69,-70.95 578.19,-72.4 587.3,-77.81 588.69,-70.95"/>
</g>
<!-- Node17 -->
<g id="node17" class="node">
<title>Node17</title>
<g id="a_node17"><a xlink:href="Finally_8hpp.html" target="_top" xlink:title=" ">
<polygon fill="white" stroke="black" points="886,-56.5 886,-75.5 969,-75.5 969,-56.5 886,-56.5"/>
<text text-anchor="middle" x="927.5" y="-63.5" font-family="'Consolas',monospace" font-size="10.00">Finally.hpp</text>
</a>
</g>
</g>
<!-- Node16&#45;&gt;Node17 -->
<g id="edge19" class="edge">
<title>Node16&#45;&gt;Node17</title>
<path fill="none" stroke="midnightblue" d="M836.01,-112.32C853.57,-103.62 880.83,-90.12 901.03,-80.11"/>
<polygon fill="midnightblue" stroke="midnightblue" points="902.62,-83.23 910.03,-75.65 899.52,-76.96 902.62,-83.23"/>
</g>
<!-- Node17&#45;&gt;Node11 -->
<g id="edge20" class="edge">
<title>Node17&#45;&gt;Node11</title>
<path fill="none" stroke="midnightblue" d="M962.2,-56.44C1000.08,-47.1 1060.85,-32.12 1102.16,-21.93"/>
<polygon fill="midnightblue" stroke="midnightblue" points="1103.09,-25.31 1111.96,-19.52 1101.41,-18.51 1103.09,-25.31"/>
</g>
<!-- Node18&#45;&gt;Node3 -->
<g id="edge24" class="edge">
<title>Node18&#45;&gt;Node3</title>
<path fill="none" stroke="midnightblue" d="M621.22,-112.44C583.03,-102.62 520.58,-86.56 481.06,-76.4"/>
<polygon fill="midnightblue" stroke="midnightblue" points="481.85,-72.99 471.29,-73.89 480.1,-79.77 481.85,-72.99"/>
</g>
<!-- Node18&#45;&gt;Node4 -->
<g id="edge25" class="edge">
<title>Node18&#45;&gt;Node4</title>
<path fill="none" stroke="midnightblue" d="M637.95,-112.32C621.51,-103.7 596.07,-90.36 577.03,-80.39"/>
<polygon fill="midnightblue" stroke="midnightblue" points="578.49,-77.2 568.01,-75.65 575.24,-83.4 578.49,-77.2"/>
</g>
<!-- Node18&#45;&gt;Node12 -->
<g id="edge26" class="edge">
<title>Node18&#45;&gt;Node12</title>
<path fill="none" stroke="midnightblue" d="M702.23,-114.54C782.87,-103.63 944.35,-81.77 1016.82,-71.96"/>
<polygon fill="midnightblue" stroke="midnightblue" points="1017.4,-75.42 1026.84,-70.61 1016.46,-68.48 1017.4,-75.42"/>
</g>
<!-- Node20&#45;&gt;Node3 -->
<g id="edge34" class="edge">
<title>Node20&#45;&gt;Node3</title>
<path fill="none" stroke="midnightblue" d="M364.05,-224.28C353.96,-203.21 331.93,-148.52 354.5,-112 366.21,-93.06 388.57,-81.82 408.07,-75.32"/>
<polygon fill="midnightblue" stroke="midnightblue" points="409.1,-78.66 417.65,-72.41 407.06,-71.96 409.1,-78.66"/>
</g>
<!-- Node20&#45;&gt;Node4 -->
<g id="edge35" class="edge">
<title>Node20&#45;&gt;Node4</title>
<path fill="none" stroke="midnightblue" d="M369.53,-224.3C372.6,-202.28 383.66,-143.84 417.5,-112 444.2,-86.88 485.37,-75.75 515.03,-70.84"/>
<polygon fill="midnightblue" stroke="midnightblue" points="515.62,-74.29 525,-69.35 514.59,-67.37 515.62,-74.29"/>
</g>
<!-- Node20&#45;&gt;Node21 -->
<g id="edge29" class="edge">
<title>Node20&#45;&gt;Node21</title>
<path fill="none" stroke="midnightblue" d="M404.12,-230.98C502.18,-225.31 784.38,-208.35 1018.5,-188 1030.65,-186.94 1043.75,-185.65 1055.98,-184.38"/>
<polygon fill="midnightblue" stroke="midnightblue" points="1056.42,-187.85 1066,-183.32 1055.69,-180.89 1056.42,-187.85"/>
</g>
<!-- Node21&#45;&gt;Node8 -->
<g id="edge32" class="edge">
<title>Node21&#45;&gt;Node8</title>
<path fill="none" stroke="midnightblue" d="M1105.27,-168.19C1107.02,-153.9 1112.65,-125.88 1130.5,-112 1175.93,-76.67 1346.64,-69.04 1427.51,-67.42"/>
<polygon fill="midnightblue" stroke="midnightblue" points="1427.9,-70.91 1437.83,-67.23 1427.77,-63.91 1427.9,-70.91"/>
</g>
<!-- Node21&#45;&gt;Node12 -->
<g id="edge33" class="edge">
<title>Node21&#45;&gt;Node12</title>
<path fill="none" stroke="midnightblue" d="M1100.5,-168.37C1092.19,-150.46 1072.94,-108.92 1061.82,-84.95"/>
<polygon fill="midnightblue" stroke="midnightblue" points="1064.86,-83.19 1057.48,-75.59 1058.51,-86.14 1064.86,-83.19"/>
</g>
<!-- Node21&#45;&gt;Node14 -->
<g id="edge30" class="edge">
<title>Node21&#45;&gt;Node14</title>
<path fill="none" stroke="midnightblue" d="M1117.19,-168.32C1129.4,-159.98 1148.08,-147.21 1162.5,-137.35"/>
<polygon fill="midnightblue" stroke="midnightblue" points="1164.56,-140.19 1170.84,-131.65 1160.61,-134.41 1164.56,-140.19"/>
</g>
<!-- Node21&#45;&gt;Node16 -->
<g id="edge31" class="edge">
<title>Node21&#45;&gt;Node16</title>
<path fill="none" stroke="midnightblue" d="M1065.93,-169.72C1016.45,-160.38 930.29,-144.11 873.83,-133.45"/>
<polygon fill="midnightblue" stroke="midnightblue" points="874.47,-130.01 864,-131.59 873.17,-136.88 874.47,-130.01"/>
</g>
<!-- Node22&#45;&gt;Node8 -->
<g id="edge37" class="edge">
<title>Node22&#45;&gt;Node8</title>
<path fill="none" stroke="midnightblue" d="M1586.67,-168.24C1596.59,-154.98 1611.94,-129.52 1599.5,-112 1580.09,-84.67 1542.79,-73.8 1513.27,-69.55"/>
<polygon fill="midnightblue" stroke="midnightblue" points="1513.55,-66.05 1503.2,-68.3 1512.69,-73 1513.55,-66.05"/>
</g>
<!-- Node23&#45;&gt;Node24 -->
<g id="edge39" class="edge">
<title>Node23&#45;&gt;Node24</title>
<path fill="none" stroke="midnightblue" d="M561.25,-224.32C550.7,-216.18 534.7,-203.84 522.06,-194.09"/>
<polygon fill="midnightblue" stroke="midnightblue" points="524.01,-191.17 513.95,-187.83 519.73,-196.71 524.01,-191.17"/>
</g>
<!-- Node25 -->
<g id="node25" class="node">
<title>Node25</title>
<g id="a_node25"><a target="_parent" xlink:href="http://en.cppreference.com/w/cpp/header/sstream.html" target="_top" xlink:title=" ">
<polygon fill="white" stroke="black" points="674,-56.5 674,-75.5 733,-75.5 733,-56.5 674,-56.5"/>
<text text-anchor="middle" x="703.5" y="-63.5" font-family="'Consolas',monospace" font-size="10.00">sstream</text>
</a>
</g>
</g>
<!-- Node23&#45;&gt;Node25 -->
<g id="edge41" class="edge">
<title>Node23&#45;&gt;Node25</title>
<path fill="none" stroke="midnightblue" d="M571.83,-224.24C570.67,-202.58 570.64,-145.84 598.5,-112 614.79,-92.22 641.38,-80.94 663.73,-74.62"/>
<polygon fill="midnightblue" stroke="midnightblue" points="664.84,-77.95 673.65,-72.06 663.09,-71.17 664.84,-77.95"/>
</g>
<!-- Node24&#45;&gt;Node4 -->
<g id="edge40" class="edge">
<title>Node24&#45;&gt;Node4</title>
<path fill="none" stroke="midnightblue" d="M477.78,-168.49C449.54,-157.38 409.33,-136.43 426.5,-112 446.29,-83.85 485.46,-73.23 514.71,-69.26"/>
<polygon fill="midnightblue" stroke="midnightblue" points="515.44,-72.7 524.98,-68.08 514.64,-65.75 515.44,-72.7"/>
</g>
<!-- Node26&#45;&gt;Node3 -->
<g id="edge45" class="edge">
<title>Node26&#45;&gt;Node3</title>
<path fill="none" stroke="midnightblue" d="M1405.92,-113.31C1403.08,-112.8 1400.25,-112.35 1397.5,-112 1008.85,-61.8 907.05,-108.33 516.5,-76 504.97,-75.05 492.44,-73.62 481.11,-72.18"/>
<polygon fill="midnightblue" stroke="midnightblue" points="481.49,-68.7 471.12,-70.87 480.57,-75.64 481.49,-68.7"/>
</g>
<!-- Node26&#45;&gt;Node4 -->
<g id="edge46" class="edge">
<title>Node26&#45;&gt;Node4</title>
<path fill="none" stroke="midnightblue" d="M1405.91,-113.33C1403.08,-112.82 1400.24,-112.37 1397.5,-112 1074.63,-68.93 990.56,-96.82 665.5,-76 639.67,-74.35 610.59,-72.04 588.26,-70.18"/>
<polygon fill="midnightblue" stroke="midnightblue" points="588.46,-66.68 578.2,-69.33 587.87,-73.66 588.46,-66.68"/>
</g>
<!-- Node26&#45;&gt;Node5 -->
<g id="edge43" class="edge">
<title>Node26&#45;&gt;Node5</title>
<path fill="none" stroke="midnightblue" d="M1462.27,-112.44C1487.39,-103.4 1527.21,-89.06 1555.4,-78.92"/>
<polygon fill="midnightblue" stroke="midnightblue" points="1556.62,-82.2 1564.84,-75.52 1554.25,-75.61 1556.62,-82.2"/>
</g>
<!-- Node26&#45;&gt;Node8 -->
<g id="edge44" class="edge">
<title>Node26&#45;&gt;Node8</title>
<path fill="none" stroke="midnightblue" d="M1443.78,-112.08C1448.21,-104.61 1454.66,-93.72 1460.12,-84.52"/>
<polygon fill="midnightblue" stroke="midnightblue" points="1463.23,-86.14 1465.31,-75.75 1457.21,-82.57 1463.23,-86.14"/>
</g>
<!-- Node27&#45;&gt;Node3 -->
<g id="edge52" class="edge">
<title>Node27&#45;&gt;Node3</title>
<path fill="none" stroke="midnightblue" d="M1488.7,-112.87C1485.93,-112.55 1483.18,-112.25 1480.5,-112 1053.66,-71.61 943.84,-110.62 516.5,-76 504.96,-75.07 492.43,-73.64 481.11,-72.2"/>
<polygon fill="midnightblue" stroke="midnightblue" points="481.48,-68.72 471.11,-70.89 480.57,-75.66 481.48,-68.72"/>
</g>
<!-- Node27&#45;&gt;Node5 -->
<g id="edge48" class="edge">
<title>Node27&#45;&gt;Node5</title>
<path fill="none" stroke="midnightblue" d="M1547.59,-112.08C1554.66,-104.3 1565.09,-92.8 1573.65,-83.37"/>
<polygon fill="midnightblue" stroke="midnightblue" points="1576.43,-85.51 1580.56,-75.75 1571.25,-80.8 1576.43,-85.51"/>
</g>
<!-- Node27&#45;&gt;Node8 -->
<g id="edge50" class="edge">
<title>Node27&#45;&gt;Node8</title>
<path fill="none" stroke="midnightblue" d="M1528.41,-112.32C1518.01,-104.18 1502.24,-91.84 1489.78,-82.09"/>
<polygon fill="midnightblue" stroke="midnightblue" points="1491.82,-79.24 1481.79,-75.83 1487.51,-84.75 1491.82,-79.24"/>
</g>
<!-- Node27&#45;&gt;Node12 -->
<g id="edge53" class="edge">
<title>Node27&#45;&gt;Node12</title>
<path fill="none" stroke="midnightblue" d="M1488.99,-113.14C1486.12,-112.74 1483.27,-112.36 1480.5,-112 1336.4,-93.43 1164.2,-77.05 1090.22,-70.29"/>
<polygon fill="midnightblue" stroke="midnightblue" points="1090.31,-66.78 1080.03,-69.36 1089.68,-73.76 1090.31,-66.78"/>
</g>
<!-- Node27&#45;&gt;Node17 -->
<g id="edge49" class="edge">
<title>Node27&#45;&gt;Node17</title>
<path fill="none" stroke="midnightblue" d="M1488.68,-113.01C1485.92,-112.65 1483.18,-112.31 1480.5,-112 1275.89,-88.46 1223.66,-94.14 1018.5,-76 1005.77,-74.87 992.05,-73.57 979.22,-72.3"/>
<polygon fill="midnightblue" stroke="midnightblue" points="979.46,-68.81 969.16,-71.3 978.77,-75.78 979.46,-68.81"/>
</g>
<!-- Node27&#45;&gt;Node19 -->
<g id="edge51" class="edge">
<title>Node27&#45;&gt;Node19</title>
<path fill="none" stroke="midnightblue" d="M1577.37,-112.44C1618.98,-103.04 1685.87,-87.93 1730.97,-77.74"/>
<polygon fill="midnightblue" stroke="midnightblue" points="1731.82,-81.13 1740.81,-75.52 1730.28,-74.31 1731.82,-81.13"/>
</g>
<!-- Node28&#45;&gt;Node3 -->
<g id="edge56" class="edge">
<title>Node28&#45;&gt;Node3</title>
<path fill="none" stroke="midnightblue" d="M32.72,-168.04C38.44,-153.54 51.87,-125.21 73.5,-112 129.07,-78.07 325.54,-69.68 407.83,-67.64"/>
<polygon fill="midnightblue" stroke="midnightblue" points="408.05,-71.14 417.97,-67.41 407.89,-64.14 408.05,-71.14"/>
</g>
<!-- Node29&#45;&gt;Node17 -->
<g id="edge58" class="edge">
<title>Node29&#45;&gt;Node17</title>
<path fill="none" stroke="midnightblue" d="M896.17,-168.37C901.68,-150.54 914.43,-109.3 921.85,-85.27"/>
<polygon fill="midnightblue" stroke="midnightblue" points="925.24,-86.18 924.84,-75.59 918.55,-84.11 925.24,-86.18"/>
</g>
<!-- Node29&#45;&gt;Node30 -->
<g id="edge59" class="edge">
<title>Node29&#45;&gt;Node30</title>
<path fill="none" stroke="midnightblue" d="M905.87,-168.32C917.66,-160.06 935.63,-147.45 949.64,-137.63"/>
<polygon fill="midnightblue" stroke="midnightblue" points="951.98,-140.26 958.16,-131.65 947.96,-134.53 951.98,-140.26"/>
</g>
<!-- Node29&#45;&gt;Node31 -->
<g id="edge63" class="edge">
<title>Node29&#45;&gt;Node31</title>
<path fill="none" stroke="midnightblue" d="M860.89,-172.81C787.46,-163.37 608.79,-140.39 522.17,-129.26"/>
<polygon fill="midnightblue" stroke="midnightblue" points="522.45,-125.76 512.08,-127.96 521.55,-132.71 522.45,-125.76"/>
</g>
<!-- Node30&#45;&gt;Node4 -->
<g id="edge61" class="edge">
<title>Node30&#45;&gt;Node4</title>
<path fill="none" stroke="midnightblue" d="M934.78,-116.4C855.99,-106.24 667.98,-82.01 588.25,-71.74"/>
<polygon fill="midnightblue" stroke="midnightblue" points="588.55,-68.25 578.19,-70.44 587.66,-75.19 588.55,-68.25"/>
</g>
<!-- Node30&#45;&gt;Node12 -->
<g id="edge62" class="edge">
<title>Node30&#45;&gt;Node12</title>
<path fill="none" stroke="midnightblue" d="M983.84,-112.32C996.66,-103.98 1016.28,-91.21 1031.44,-81.35"/>
<polygon fill="midnightblue" stroke="midnightblue" points="1033.72,-84.04 1040.2,-75.65 1029.91,-78.17 1033.72,-84.04"/>
</g>
<!-- Node30&#45;&gt;Node25 -->
<g id="edge60" class="edge">
<title>Node30&#45;&gt;Node25</title>
<path fill="none" stroke="midnightblue" d="M934.77,-113.77C884.94,-103.7 794.9,-85.49 743.09,-75.01"/>
<polygon fill="midnightblue" stroke="midnightblue" points="743.76,-71.57 733.26,-73.02 742.37,-78.43 743.76,-71.57"/>
</g>
<!-- Node31&#45;&gt;Node4 -->
<g id="edge64" class="edge">
<title>Node31&#45;&gt;Node4</title>
<path fill="none" stroke="midnightblue" d="M486.03,-112.32C498.09,-103.98 516.53,-91.21 530.77,-81.35"/>
<polygon fill="midnightblue" stroke="midnightblue" points="532.77,-84.22 539,-75.65 528.78,-78.47 532.77,-84.22"/>
</g>
<!-- Node33&#45;&gt;Node8 -->
<g id="edge69" class="edge">
<title>Node33&#45;&gt;Node8</title>
<path fill="none" stroke="midnightblue" d="M1641.45,-224.37C1643.35,-202.52 1645.17,-144.46 1615.5,-112 1601.64,-96.84 1550.92,-83.46 1513.35,-75.31"/>
<polygon fill="midnightblue" stroke="midnightblue" points="1513.65,-71.8 1503.15,-73.16 1512.21,-78.65 1513.65,-71.8"/>
</g>
<!-- Node34&#45;&gt;Node5 -->
<g id="edge71" class="edge">
<title>Node34&#45;&gt;Node5</title>
<path fill="none" stroke="midnightblue" d="M1702.11,-112.44C1679.79,-103.52 1644.6,-89.44 1619.29,-79.32"/>
<polygon fill="midnightblue" stroke="midnightblue" points="1620.38,-75.98 1609.79,-75.52 1617.78,-82.48 1620.38,-75.98"/>
</g>
<!-- Node34&#45;&gt;Node8 -->
<g id="edge72" class="edge">
<title>Node34&#45;&gt;Node8</title>
<path fill="none" stroke="midnightblue" d="M1684.8,-112.74C1638.5,-102.86 1561.25,-86.37 1513.23,-76.12"/>
<polygon fill="midnightblue" stroke="midnightblue" points="1513.67,-72.64 1503.16,-73.97 1512.21,-79.48 1513.67,-72.64"/>
</g>
<!-- Node35&#45;&gt;Node3 -->
<g id="edge74" class="edge">
<title>Node35&#45;&gt;Node3</title>
<path fill="none" stroke="midnightblue" d="M225.23,-113.43C273.6,-103.19 359.46,-85.01 408.15,-74.7"/>
<polygon fill="midnightblue" stroke="midnightblue" points="408.89,-78.12 417.95,-72.62 407.44,-71.27 408.89,-78.12"/>
</g>
<!-- Node35&#45;&gt;Node4 -->
<g id="edge75" class="edge">
<title>Node35&#45;&gt;Node4</title>
<path fill="none" stroke="midnightblue" d="M225.33,-113.65C228.43,-113.07 231.52,-112.51 234.5,-112 287.79,-102.9 443.11,-81.65 514.65,-71.97"/>
<polygon fill="midnightblue" stroke="midnightblue" points="515.54,-75.38 524.98,-70.57 514.6,-68.44 515.54,-75.38"/>
</g>
<!-- Node36&#45;&gt;Node3 -->
<g id="edge79" class="edge">
<title>Node36&#45;&gt;Node3</title>
<path fill="none" stroke="midnightblue" d="M943.89,-169.5C941.06,-168.96 938.23,-168.44 935.5,-168 786.82,-143.82 744.34,-169.69 598.5,-132 551.29,-119.8 499.72,-95.62 469.84,-80.43"/>
<polygon fill="midnightblue" stroke="midnightblue" points="471.07,-77.13 460.58,-75.66 467.87,-83.35 471.07,-77.13"/>
</g>
<!-- Node36&#45;&gt;Node4 -->
<g id="edge80" class="edge">
<title>Node36&#45;&gt;Node4</title>
<path fill="none" stroke="midnightblue" d="M943.84,-169.76C941.02,-169.15 938.21,-168.56 935.5,-168 853.47,-151.02 829.66,-159.38 750.5,-132 732.09,-125.63 729.63,-119.12 711.5,-112 670.3,-95.83 621.02,-82.88 588.15,-75.1"/>
<polygon fill="midnightblue" stroke="midnightblue" points="588.61,-71.61 578.08,-72.76 587.02,-78.43 588.61,-71.61"/>
</g>
<!-- Node36&#45;&gt;Node12 -->
<g id="edge81" class="edge">
<title>Node36&#45;&gt;Node12</title>
<path fill="none" stroke="midnightblue" d="M984.78,-168.43C993.04,-159.66 1005.87,-145.45 1015.5,-132 1026.42,-116.76 1037.03,-98.19 1044.25,-84.81"/>
<polygon fill="midnightblue" stroke="midnightblue" points="1047.48,-86.2 1049.06,-75.73 1041.29,-82.93 1047.48,-86.2"/>
</g>
<!-- Node36&#45;&gt;Node14 -->
<g id="edge78" class="edge">
<title>Node36&#45;&gt;Node14</title>
<path fill="none" stroke="midnightblue" d="M1009.3,-168.44C1044.88,-159.16 1101.81,-144.31 1140.85,-134.13"/>
<polygon fill="midnightblue" stroke="midnightblue" points="1142.06,-137.43 1150.85,-131.52 1140.29,-130.65 1142.06,-137.43"/>
</g>
<!-- Node38&#45;&gt;Node3 -->
<g id="edge86" class="edge">
<title>Node38&#45;&gt;Node3</title>
<path fill="none" stroke="midnightblue" d="M90.56,-224.3C91.23,-201.76 96.36,-141.21 131.5,-112 172.85,-77.63 334.15,-69.51 407.65,-67.59"/>
<polygon fill="midnightblue" stroke="midnightblue" points="407.92,-71.09 417.83,-67.35 407.75,-64.09 407.92,-71.09"/>
</g>
<!-- Node38&#45;&gt;Node28 -->
<g id="edge85" class="edge">
<title>Node38&#45;&gt;Node28</title>
<path fill="none" stroke="midnightblue" d="M80.7,-224.32C71.68,-216.34 58.09,-204.31 47.18,-194.65"/>
<polygon fill="midnightblue" stroke="midnightblue" points="49.29,-191.84 39.48,-187.83 44.65,-197.08 49.29,-191.84"/>
</g>
</g>
</svg>
