<?xml version="1.0" encoding="UTF-8" standalone="no"?>
<!DOCTYPE svg PUBLIC "-//W3C//DTD SVG 1.1//EN"
 "http://www.w3.org/Graphics/SVG/1.1/DTD/svg11.dtd">
<!-- Generated by graphviz version 2.43.0 (0)
 -->
<!-- Title: jngl/AppParameters.hpp Pages: 1 -->
<svg width="330pt" height="140pt"
 viewBox="0.00 0.00 330.00 140.00" xmlns="http://www.w3.org/2000/svg" xmlns:xlink="http://www.w3.org/1999/xlink">
<g id="graph0" class="graph" transform="scale(1 1) rotate(0) translate(4 136)">
<title>jngl/AppParameters.hpp</title>
<polygon fill="white" stroke="transparent" points="-4,4 -4,-136 326,-136 326,4 -4,4"/>
<!-- Node1 -->
<g id="node1" class="node">
<title>Node1</title>
<g id="a_node1"><a xlink:title="Contains jngl::AppParameters struct.">
<polygon fill="#bfbfbf" stroke="black" points="126,-112.5 126,-131.5 275,-131.5 275,-112.5 126,-112.5"/>
<text text-anchor="middle" x="200.5" y="-119.5" font-family="'Consolas',monospace" font-size="10.00">jngl/AppParameters.hpp</text>
</a>
</g>
</g>
<!-- Node2 -->
<g id="node2" class="node">
<title>Node2</title>
<g id="a_node2"><a xlink:href="Vec2_8hpp.html" target="_top" xlink:title="Contains jngl::Vec2 class.">
<polygon fill="white" stroke="black" points="79,-56.5 79,-75.5 144,-75.5 144,-56.5 79,-56.5"/>
<text text-anchor="middle" x="111.5" y="-63.5" font-family="'Consolas',monospace" font-size="10.00">Vec2.hpp</text>
</a>
</g>
</g>
<!-- Node1&#45;&gt;Node2 -->
<g id="edge1" class="edge">
<title>Node1&#45;&gt;Node2</title>
<path fill="none" stroke="midnightblue" d="M186.2,-112.32C172.32,-103.9 151.01,-90.97 134.7,-81.07"/>
<polygon fill="midnightblue" stroke="midnightblue" points="136.13,-77.85 125.76,-75.65 132.5,-83.83 136.13,-77.85"/>
</g>
<!-- Node5 -->
<g id="node5" class="node">
<title>Node5</title>
<g id="a_node5"><a target="_parent" xlink:href="http://en.cppreference.com/w/cpp/header/functional.html" xlink:title=" ">
<polygon fill="white" stroke="black" points="162,-56.5 162,-75.5 239,-75.5 239,-56.5 162,-56.5"/>
<text text-anchor="middle" x="200.5" y="-63.5" font-family="'Consolas',monospace" font-size="10.00">functional</text>
</a>
</g>
</g>
<!-- Node1&#45;&gt;Node5 -->
<g id="edge4" class="edge">
<title>Node1&#45;&gt;Node5</title>
<path fill="none" stroke="midnightblue" d="M200.5,-112.08C200.5,-105.01 200.5,-94.86 200.5,-85.99"/>
<polygon fill="midnightblue" stroke="midnightblue" points="204,-85.75 200.5,-75.75 197,-85.75 204,-85.75"/>
</g>
<!-- Node6 -->
<g id="node6" class="node">
<title>Node6</title>
<g id="a_node6"><a target="_parent" xlink:href="http://en.cppreference.com/w/cpp/header/optional.html" xlink:title=" ">
<polygon fill="white" stroke="black" points="257,-56.5 257,-75.5 322,-75.5 322,-56.5 257,-56.5"/>
<text text-anchor="middle" x="289.5" y="-63.5" font-family="'Consolas',monospace" font-size="10.00">optional</text>
</a>
</g>
</g>
<!-- Node1&#45;&gt;Node6 -->
<g id="edge5" class="edge">
<title>Node1&#45;&gt;Node6</title>
<path fill="none" stroke="midnightblue" d="M214.8,-112.32C228.68,-103.9 249.99,-90.97 266.3,-81.07"/>
<polygon fill="midnightblue" stroke="midnightblue" points="268.5,-83.83 275.24,-75.65 264.87,-77.85 268.5,-83.83"/>
</g>
<!-- Node3 -->
<g id="node3" class="node">
<title>Node3</title>
<g id="a_node3"><a xlink:title=" ">
<polygon fill="white" stroke="#bfbfbf" points="0,-0.5 0,-19.5 119,-19.5 119,-0.5 0,-0.5"/>
<text text-anchor="middle" x="59.5" y="-7.5" font-family="'Consolas',monospace" font-size="10.00">boost/version.hpp</text>
</a>
</g>
</g>
<!-- Node2&#45;&gt;Node3 -->
<g id="edge2" class="edge">
<title>Node2&#45;&gt;Node3</title>
<path fill="none" stroke="midnightblue" d="M102.91,-56.08C95.34,-48.22 84.12,-36.57 74.99,-27.08"/>
<polygon fill="midnightblue" stroke="midnightblue" points="77.38,-24.53 67.93,-19.75 72.34,-29.38 77.38,-24.53"/>
</g>
<!-- Node4 -->
<g id="node4" class="node">
<title>Node4</title>
<g id="a_node4"><a target="_parent" xlink:href="http://en.cppreference.com/w/cpp/header/iosfwd.html" xlink:title=" ">
<polygon fill="white" stroke="black" points="137,-0.5 137,-19.5 190,-19.5 190,-0.5 137,-0.5"/>
<text text-anchor="middle" x="163.5" y="-7.5" font-family="'Consolas',monospace" font-size="10.00">iosfwd</text>
</a>
</g>
</g>
<!-- Node2&#45;&gt;Node4 -->
<g id="edge3" class="edge">
<title>Node2&#45;&gt;Node4</title>
<path fill="none" stroke="midnightblue" d="M120.09,-56.08C127.66,-48.22 138.88,-36.57 148.01,-27.08"/>
<polygon fill="midnightblue" stroke="midnightblue" points="150.66,-29.38 155.07,-19.75 145.62,-24.53 150.66,-29.38"/>
</g>
</g>
</svg>
