<?xml version="1.0" encoding="UTF-8" standalone="no"?>
<!DOCTYPE svg PUBLIC "-//W3C//DTD SVG 1.1//EN"
 "http://www.w3.org/Graphics/SVG/1.1/DTD/svg11.dtd">
<!-- Generated by graphviz version 5.0.0 (0)
 -->
<!-- Title: jngl/AppParameters.hpp Pages: 1 -->
<svg width="476pt" height="137pt"
 viewBox="0.00 0.00 476.00 137.00" xmlns="http://www.w3.org/2000/svg" xmlns:xlink="http://www.w3.org/1999/xlink">
<g id="graph0" class="graph" transform="scale(1 1) rotate(0) translate(4 133)">
<title>jngl/AppParameters.hpp</title>
<!-- Node1 -->
<g id="node1" class="node">
<title>Node1</title>
<g id="a_node1"><a xlink:title="Contains jngl::AppParameters struct.">
<polygon fill="#999999" stroke="#666666" points="362,-129 213,-129 213,-110 362,-110 362,-129"/>
<text text-anchor="middle" x="287.5" y="-117" font-family="ui-monospace,monospace" font-size="10.00">jngl/AppParameters.hpp</text>
</a>
</g>
</g>
<!-- Node2 -->
<g id="node2" class="node">
<title>Node2</title>
<g id="a_node2"><a xlink:href="Vec2_8hpp.html" target="_top" xlink:title="Contains jngl::Vec2 class.">
<polygon fill="white" stroke="#666666" points="148,-74 83,-74 83,-55 148,-55 148,-74"/>
<text text-anchor="middle" x="115.5" y="-62" font-family="ui-monospace,monospace" font-size="10.00">Vec2.hpp</text>
</a>
</g>
</g>
<!-- Node1&#45;&gt;Node2 -->
<g id="edge1" class="edge">
<title>Node1&#45;&gt;Node2</title>
<path fill="none" stroke="#63b8ff" d="M259.87,-109.98C230.99,-101.09 185.49,-87.07 153.3,-77.15"/>
<polygon fill="#63b8ff" stroke="#63b8ff" points="153.94,-73.68 143.35,-74.08 151.88,-80.37 153.94,-73.68"/>
</g>
<!-- Node5 -->
<g id="node5" class="node">
<title>Node5</title>
<g id="a_node5"><a target="_parent" xlink:href="http://en.cppreference.com/w/cpp/header/functional.html" xlink:title=" ">
<polygon fill="white" stroke="#666666" points="243,-74 166,-74 166,-55 243,-55 243,-74"/>
<text text-anchor="middle" x="204.5" y="-62" font-family="ui-monospace,monospace" font-size="10.00">functional</text>
</a>
</g>
</g>
<!-- Node1&#45;&gt;Node5 -->
<g id="edge4" class="edge">
<title>Node1&#45;&gt;Node5</title>
<path fill="none" stroke="#63b8ff" d="M274.16,-109.98C261.41,-101.84 241.95,-89.41 226.83,-79.76"/>
<polygon fill="#63b8ff" stroke="#63b8ff" points="228.39,-76.6 218.08,-74.17 224.62,-82.5 228.39,-76.6"/>
</g>
<!-- Node6 -->
<g id="node6" class="node">
<title>Node6</title>
<g id="a_node6"><a target="_parent" xlink:href="http://en.cppreference.com/w/cpp/header/memory.html" xlink:title=" ">
<polygon fill="white" stroke="#666666" points="314,-74 261,-74 261,-55 314,-55 314,-74"/>
<text text-anchor="middle" x="287.5" y="-62" font-family="ui-monospace,monospace" font-size="10.00">memory</text>
</a>
</g>
</g>
<!-- Node1&#45;&gt;Node6 -->
<g id="edge5" class="edge">
<title>Node1&#45;&gt;Node6</title>
<path fill="none" stroke="#63b8ff" d="M287.5,-109.75C287.5,-102.8 287.5,-92.85 287.5,-84.13"/>
<polygon fill="#63b8ff" stroke="#63b8ff" points="291,-84.09 287.5,-74.09 284,-84.09 291,-84.09"/>
</g>
<!-- Node7 -->
<g id="node7" class="node">
<title>Node7</title>
<g id="a_node7"><a target="_parent" xlink:href="http://en.cppreference.com/w/cpp/header/optional.html" xlink:title=" ">
<polygon fill="white" stroke="#666666" points="397,-74 332,-74 332,-55 397,-55 397,-74"/>
<text text-anchor="middle" x="364.5" y="-62" font-family="ui-monospace,monospace" font-size="10.00">optional</text>
</a>
</g>
</g>
<!-- Node1&#45;&gt;Node7 -->
<g id="edge6" class="edge">
<title>Node1&#45;&gt;Node7</title>
<path fill="none" stroke="#63b8ff" d="M299.87,-109.98C311.59,-101.92 329.42,-89.65 343.39,-80.03"/>
<polygon fill="#63b8ff" stroke="#63b8ff" points="345.65,-82.72 351.9,-74.17 341.68,-76.96 345.65,-82.72"/>
</g>
<!-- Node8 -->
<g id="node8" class="node">
<title>Node8</title>
<g id="a_node8"><a target="_parent" xlink:href="http://en.cppreference.com/w/cpp/header/string.html" xlink:title=" ">
<polygon fill="white" stroke="#666666" points="468,-74 415,-74 415,-55 468,-55 468,-74"/>
<text text-anchor="middle" x="441.5" y="-62" font-family="ui-monospace,monospace" font-size="10.00">string</text>
</a>
</g>
</g>
<!-- Node1&#45;&gt;Node8 -->
<g id="edge7" class="edge">
<title>Node1&#45;&gt;Node8</title>
<path fill="none" stroke="#63b8ff" d="M312.24,-109.98C337.87,-101.16 378.13,-87.31 406.91,-77.41"/>
<polygon fill="#63b8ff" stroke="#63b8ff" points="408.25,-80.65 416.56,-74.08 405.97,-74.03 408.25,-80.65"/>
</g>
<!-- Node3 -->
<g id="node3" class="node">
<title>Node3</title>
<g id="a_node3"><a xlink:title=" ">
<polygon fill="#e0e0e0" stroke="#999999" points="125,-19 0,-19 0,0 125,0 125,-19"/>
<text text-anchor="middle" x="62.5" y="-7" font-family="ui-monospace,monospace" font-size="10.00">boost/qvm_lite.hpp</text>
</a>
</g>
</g>
<!-- Node2&#45;&gt;Node3 -->
<g id="edge2" class="edge">
<title>Node2&#45;&gt;Node3</title>
<path fill="none" stroke="#63b8ff" d="M106.75,-54.75C99.03,-47.03 87.6,-35.6 78.28,-26.28"/>
<polygon fill="#63b8ff" stroke="#63b8ff" points="80.64,-23.69 71.09,-19.09 75.69,-28.64 80.64,-23.69"/>
</g>
<!-- Node4 -->
<g id="node4" class="node">
<title>Node4</title>
<g id="a_node4"><a target="_parent" xlink:href="http://en.cppreference.com/w/cpp/header/iosfwd.html" xlink:title=" ">
<polygon fill="white" stroke="#666666" points="196,-19 143,-19 143,0 196,0 196,-19"/>
<text text-anchor="middle" x="169.5" y="-7" font-family="ui-monospace,monospace" font-size="10.00">iosfwd</text>
</a>
</g>
</g>
<!-- Node2&#45;&gt;Node4 -->
<g id="edge3" class="edge">
<title>Node2&#45;&gt;Node4</title>
<path fill="none" stroke="#63b8ff" d="M124.42,-54.75C132.28,-47.03 143.93,-35.6 153.42,-26.28"/>
<polygon fill="#63b8ff" stroke="#63b8ff" points="156.06,-28.59 160.75,-19.09 151.16,-23.6 156.06,-28.59"/>
</g>
</g>
</svg>
