<?xml version="1.0" encoding="UTF-8" standalone="no"?>
<!DOCTYPE svg PUBLIC "-//W3C//DTD SVG 1.1//EN"
 "http://www.w3.org/Graphics/SVG/1.1/DTD/svg11.dtd">
<!-- Generated by graphviz version 2.44.0 (0)
 -->
<!-- Title: jngl/AppParameters.hpp Pages: 1 -->
<svg width="235pt" height="140pt"
 viewBox="0.00 0.00 235.00 140.00" xmlns="http://www.w3.org/2000/svg" xmlns:xlink="http://www.w3.org/1999/xlink">
<g id="graph0" class="graph" transform="scale(1 1) rotate(0) translate(4 136)">
<title>jngl/AppParameters.hpp</title>
<polygon fill="white" stroke="transparent" points="-4,4 -4,-136 231,-136 231,4 -4,4"/>
<!-- Node1 -->
<g id="node1" class="node">
<title>Node1</title>
<g id="a_node1"><a xlink:title="Contains jngl::AppParameters struct.">
<polygon fill="#bfbfbf" stroke="black" points="78,-112.5 78,-131.5 227,-131.5 227,-112.5 78,-112.5"/>
<text text-anchor="middle" x="152.5" y="-119.5" font-family="'Consolas',monospace" font-size="10.00">jngl/AppParameters.hpp</text>
</a>
</g>
</g>
<!-- Node2 -->
<g id="node2" class="node">
<title>Node2</title>
<g id="a_node2"><a xlink:href="Vec2_8hpp.html" target="_top" xlink:title="Contains jngl::Vec2 class.">
<polygon fill="white" stroke="black" points="79,-56.5 79,-75.5 144,-75.5 144,-56.5 79,-56.5"/>
<text text-anchor="middle" x="111.5" y="-63.5" font-family="'Consolas',monospace" font-size="10.00">Vec2.hpp</text>
</a>
</g>
</g>
<!-- Node1&#45;&gt;Node2 -->
<g id="edge1" class="edge">
<title>Node1&#45;&gt;Node2</title>
<path fill="none" stroke="midnightblue" d="M145.73,-112.08C139.94,-104.46 131.44,-93.26 124.36,-83.94"/>
<polygon fill="midnightblue" stroke="midnightblue" points="126.98,-81.6 118.14,-75.75 121.4,-85.83 126.98,-81.6"/>
</g>
<!-- Node5 -->
<g id="node5" class="node">
<title>Node5</title>
<g id="a_node5"><a target="_parent" xlink:href="http://en.cppreference.com/w/cpp/header/optional.html" xlink:title=" ">
<polygon fill="white" stroke="black" points="162,-56.5 162,-75.5 227,-75.5 227,-56.5 162,-56.5"/>
<text text-anchor="middle" x="194.5" y="-63.5" font-family="'Consolas',monospace" font-size="10.00">optional</text>
</a>
</g>
</g>
<!-- Node1&#45;&gt;Node5 -->
<g id="edge4" class="edge">
<title>Node1&#45;&gt;Node5</title>
<path fill="none" stroke="midnightblue" d="M159.44,-112.08C165.43,-104.38 174.25,-93.03 181.55,-83.65"/>
<polygon fill="midnightblue" stroke="midnightblue" points="184.32,-85.79 187.69,-75.75 178.79,-81.5 184.32,-85.79"/>
</g>
<!-- Node3 -->
<g id="node3" class="node">
<title>Node3</title>
<g id="a_node3"><a xlink:title=" ">
<polygon fill="white" stroke="#bfbfbf" points="0,-0.5 0,-19.5 119,-19.5 119,-0.5 0,-0.5"/>
<text text-anchor="middle" x="59.5" y="-7.5" font-family="'Consolas',monospace" font-size="10.00">boost/version.hpp</text>
</a>
</g>
</g>
<!-- Node2&#45;&gt;Node3 -->
<g id="edge2" class="edge">
<title>Node2&#45;&gt;Node3</title>
<path fill="none" stroke="midnightblue" d="M102.91,-56.08C95.34,-48.22 84.12,-36.57 74.99,-27.08"/>
<polygon fill="midnightblue" stroke="midnightblue" points="77.38,-24.53 67.93,-19.75 72.34,-29.38 77.38,-24.53"/>
</g>
<!-- Node4 -->
<g id="node4" class="node">
<title>Node4</title>
<g id="a_node4"><a target="_parent" xlink:href="http://en.cppreference.com/w/cpp/header/iosfwd.html" xlink:title=" ">
<polygon fill="white" stroke="black" points="137,-0.5 137,-19.5 190,-19.5 190,-0.5 137,-0.5"/>
<text text-anchor="middle" x="163.5" y="-7.5" font-family="'Consolas',monospace" font-size="10.00">iosfwd</text>
</a>
</g>
</g>
<!-- Node2&#45;&gt;Node4 -->
<g id="edge3" class="edge">
<title>Node2&#45;&gt;Node4</title>
<path fill="none" stroke="midnightblue" d="M120.09,-56.08C127.66,-48.22 138.88,-36.57 148.01,-27.08"/>
<polygon fill="midnightblue" stroke="midnightblue" points="150.66,-29.38 155.07,-19.75 145.62,-24.53 150.66,-29.38"/>
</g>
</g>
</svg>
