<?xml version="1.0" encoding="UTF-8" standalone="no"?>
<!DOCTYPE svg PUBLIC "-//W3C//DTD SVG 1.1//EN"
 "http://www.w3.org/Graphics/SVG/1.1/DTD/svg11.dtd">
<!-- Generated by graphviz version 2.40.1 (0)
 -->
<!-- Title: Drawable Pages: 1 -->
<svg width="100pt" height="86pt"
 viewBox="0.00 0.00 100.11 86.00" xmlns="http://www.w3.org/2000/svg" xmlns:xlink="http://www.w3.org/1999/xlink">
<g id="graph0" class="graph" transform="scale(1 1) rotate(0) translate(4 82)">
<title>Drawable</title>
<polygon fill="#ffffff" stroke="transparent" points="-4,4 -4,-82 96.106,-82 96.106,4 -4,4"/>
<!-- Node0 -->
<g id="node1" class="node">
<title>Node0</title>
<polygon fill="#bfbfbf" stroke="#000000" points="19.511,-57.5 19.511,-77.5 74.374,-77.5 74.374,-57.5 19.511,-57.5"/>
<text text-anchor="middle" x="46.9425" y="-64.5" font-family="Lato" font-size="10.00" fill="#000000">Drawable</text>
</g>
<!-- Node1 -->
<g id="node2" class="node">
<title>Node1</title>
<g id="a_node2"><a xlink:href="classjngl_1_1Sprite.html" target="_top" xlink:title="Sprite">
<polygon fill="#ffffff" stroke="#000000" points="0,-.5 0,-20.5 39.885,-20.5 39.885,-.5 0,-.5"/>
<text text-anchor="middle" x="19.9425" y="-7.5" font-family="Lato" font-size="10.00" fill="#000000">Sprite</text>
</a>
</g>
</g>
<!-- Node0&#45;&gt;Node1 -->
<g id="edge1" class="edge">
<title>Node0&#45;&gt;Node1</title>
<path fill="none" stroke="#191970" d="M37.7363,-48.0646C33.366,-38.8386 28.3258,-28.198 24.7278,-20.6022"/>
<polygon fill="#191970" stroke="#191970" points="34.6714,-49.7705 42.1154,-57.3095 40.9976,-46.7738 34.6714,-49.7705"/>
</g>
<!-- Node2 -->
<g id="node3" class="node">
<title>Node2</title>
<g id="a_node3"><a xlink:href="classjngl_1_1Text.html" target="_top" xlink:title="Text">
<polygon fill="#ffffff" stroke="#000000" points="57.779,-.5 57.779,-20.5 92.106,-20.5 92.106,-.5 57.779,-.5"/>
<text text-anchor="middle" x="74.9425" y="-7.5" font-family="Lato" font-size="10.00" fill="#000000">Text</text>
</a>
</g>
</g>
<!-- Node0&#45;&gt;Node2 -->
<g id="edge2" class="edge">
<title>Node0&#45;&gt;Node2</title>
<path fill="none" stroke="#191970" d="M56.4897,-48.0646C61.0218,-38.8386 66.2488,-28.198 69.98,-20.6022"/>
<polygon fill="#191970" stroke="#191970" points="53.216,-46.7908 51.9483,-57.3095 59.4989,-49.8772 53.216,-46.7908"/>
</g>
</g>
</svg>
