<?xml version="1.0" encoding="UTF-8" standalone="no"?>
<!DOCTYPE svg PUBLIC "-//W3C//DTD SVG 1.1//EN"
 "http://www.w3.org/Graphics/SVG/1.1/DTD/svg11.dtd">
<!-- Generated by graphviz version 5.0.0 (0)
 -->
<!-- Title: Sprite Pages: 1 -->
<svg width="270pt" height="159pt"
 viewBox="0.00 0.00 270.00 159.00" xmlns="http://www.w3.org/2000/svg" xmlns:xlink="http://www.w3.org/1999/xlink">
<g id="graph0" class="graph" transform="scale(1 1) rotate(0) translate(4 155)">
<title>Sprite</title>
<!-- Node1 -->
<g id="node1" class="node">
<title>Node1</title>
<g id="a_node1"><a xlink:title="Higher&#45;level representation of an image.">
<polygon fill="#999999" stroke="#666666" points="164,-19 111,-19 111,0 164,0 164,-19"/>
<text text-anchor="middle" x="137.5" y="-7" font-family="ui-monospace,monospace" font-size="10.00">Sprite</text>
</a>
</g>
</g>
<!-- Node2 -->
<g id="node2" class="node">
<title>Node2</title>
<g id="a_node2"><a xlink:href="classjngl_1_1Drawable.html" target="_top" xlink:title="Base class for drawable objects with a position and a rectangle size.">
<polygon fill="white" stroke="#666666" points="65,-85 0,-85 0,-66 65,-66 65,-85"/>
<text text-anchor="middle" x="32.5" y="-73" font-family="ui-monospace,monospace" font-size="10.00">Drawable</text>
</a>
</g>
</g>
<!-- Node2&#45;&gt;Node1 -->
<g id="edge1" class="edge">
<title>Node2&#45;&gt;Node1</title>
<path fill="none" stroke="#63b8ff" d="M55.44,-60.52C76.09,-47.93 105.8,-29.82 123.23,-19.2"/>
<polygon fill="#63b8ff" stroke="#63b8ff" points="53.38,-57.68 46.66,-65.87 57.02,-63.65 53.38,-57.68"/>
</g>
<!-- Node3 -->
<g id="node3" class="node">
<title>Node3</title>
<g id="a_node3"><a xlink:href="classjngl_1_1Vec2.html" target="_top" xlink:title="Two&#45;dimensional vector.">
<polygon fill="white" stroke="#666666" points="53,-151 12,-151 12,-132 53,-132 53,-151"/>
<text text-anchor="middle" x="32.5" y="-139" font-family="ui-monospace,monospace" font-size="10.00">Vec2</text>
</a>
</g>
</g>
<!-- Node3&#45;&gt;Node2 -->
<g id="edge2" class="edge">
<title>Node3&#45;&gt;Node2</title>
<path fill="none" stroke="#9a32cd" stroke-dasharray="5,2" d="M32.5,-121.58C32.5,-109.63 32.5,-94.72 32.5,-85.41"/>
<polygon fill="#9a32cd" stroke="#9a32cd" points="29,-121.87 32.5,-131.87 36,-121.87 29,-121.87"/>
<text text-anchor="middle" x="60" y="-106" font-family="ui-monospace,monospace" font-size="10.00"> position</text>
</g>
<!-- Node4 -->
<g id="node4" class="node">
<title>Node4</title>
<g id="a_node4"><a target="_parent" xlink:href="http://en.cppreference.com/w/cpp/memory/shared_ptr.html" xlink:title=" ">
<polygon fill="white" stroke="#bfbfbf" points="262,-85 83,-85 83,-66 262,-66 262,-85"/>
<text text-anchor="middle" x="172.5" y="-73" font-family="ui-monospace,monospace" font-size="10.00">shared_ptr&lt; jngl::Finally &gt;</text>
</a>
</g>
</g>
<!-- Node4&#45;&gt;Node1 -->
<g id="edge3" class="edge">
<title>Node4&#45;&gt;Node1</title>
<path fill="none" stroke="#9a32cd" stroke-dasharray="5,2" d="M162.96,-57.05C156.29,-44.86 147.67,-29.11 142.37,-19.41"/>
<polygon fill="#9a32cd" stroke="#9a32cd" points="159.91,-58.77 167.78,-65.87 166.05,-55.42 159.91,-58.77"/>
<text text-anchor="middle" x="178" y="-40" font-family="ui-monospace,monospace" font-size="10.00"> loader</text>
</g>
</g>
</svg>
