<?xml version="1.0" encoding="UTF-8" standalone="no"?>
<!DOCTYPE svg PUBLIC "-//W3C//DTD SVG 1.1//EN"
 "http://www.w3.org/Graphics/SVG/1.1/DTD/svg11.dtd">
<!-- Generated by graphviz version 9.0.0 (20230911.1827)
 -->
<!-- Title: Sprite Pages: 1 -->
<svg width="268pt" height="160pt"
 viewBox="0.00 0.00 268.00 160.25" xmlns="http://www.w3.org/2000/svg" xmlns:xlink="http://www.w3.org/1999/xlink">
<g id="graph0" class="graph" transform="scale(1 1) rotate(0) translate(4 156.25)">
<title>Sprite</title>
<!-- Node1 -->
<g id="Node000001" class="node">
<title>Node1</title>
<g id="a_Node000001"><a xlink:title="Higher&#45;level representation of an image.">
<polygon fill="#999999" stroke="#666666" points="162,-19.25 110,-19.25 110,0 162,0 162,-19.25"/>
<text text-anchor="middle" x="136" y="-5.75" font-family="ui-monospace,monospace" font-size="10.00">Sprite</text>
</a>
</g>
</g>
<!-- Node2 -->
<g id="Node000002" class="node">
<title>Node2</title>
<g id="a_Node000002"><a xlink:href="classjngl_1_1Drawable.html" target="_top" xlink:title="Base class for drawable objects with a position and a rectangle size.">
<polygon fill="white" stroke="#666666" points="64,-85.75 0,-85.75 0,-66.5 64,-66.5 64,-85.75"/>
<text text-anchor="middle" x="32" y="-72.25" font-family="ui-monospace,monospace" font-size="10.00">Drawable</text>
</a>
</g>
</g>
<!-- Node2&#45;&gt;Node1 -->
<g id="edge1_Node000001_Node000002" class="edge">
<title>Node2&#45;&gt;Node1</title>
<g id="a_edge1_Node000001_Node000002"><a xlink:title=" ">
<path fill="none" stroke="#63b8ff" d="M56.18,-60.13C76.34,-47.62 104.41,-30.22 121.33,-19.73"/>
<polygon fill="#63b8ff" stroke="#63b8ff" points="54.4,-57.11 47.75,-65.36 58.09,-63.06 54.4,-57.11"/>
</a>
</g>
</g>
<!-- Node3 -->
<g id="Node000003" class="node">
<title>Node3</title>
<g id="a_Node000003"><a xlink:href="classjngl_1_1Vec2.html" target="_top" xlink:title="Two&#45;dimensional vector.">
<polygon fill="white" stroke="#666666" points="52,-152.25 12,-152.25 12,-133 52,-133 52,-152.25"/>
<text text-anchor="middle" x="32" y="-138.75" font-family="ui-monospace,monospace" font-size="10.00">Vec2</text>
</a>
</g>
</g>
<!-- Node3&#45;&gt;Node2 -->
<g id="edge2_Node000002_Node000003" class="edge">
<title>Node3&#45;&gt;Node2</title>
<g id="a_edge2_Node000002_Node000003"><a xlink:title=" ">
<path fill="none" stroke="#9a32cd" stroke-dasharray="5,2" d="M32,-121.15C32,-109.32 32,-95.04 32,-86.02"/>
<polygon fill="#9a32cd" stroke="#9a32cd" points="28.5,-121.14 32,-131.14 35.5,-121.14 28.5,-121.14"/>
</a>
</g>
<text text-anchor="middle" x="59" y="-105.5" font-family="ui-monospace,monospace" font-size="10.00" fill="grey"> position</text>
</g>
<!-- Node4 -->
<g id="Node000004" class="node">
<title>Node4</title>
<g id="a_Node000004"><a target="_parent" xlink:href="http://en.cppreference.com/w/cpp/memory/shared_ptr.html" xlink:title=" ">
<polygon fill="white" stroke="#bfbfbf" points="260,-85.75 82,-85.75 82,-66.5 260,-66.5 260,-85.75"/>
<text text-anchor="middle" x="171" y="-72.25" font-family="ui-monospace,monospace" font-size="10.00">shared_ptr&lt; jngl::Finally &gt;</text>
</a>
</g>
</g>
<!-- Node4&#45;&gt;Node1 -->
<g id="edge3_Node000001_Node000004" class="edge">
<title>Node4&#45;&gt;Node1</title>
<g id="a_edge3_Node000001_Node000004"><a xlink:title=" ">
<path fill="none" stroke="#9a32cd" stroke-dasharray="5,2" d="M160.7,-56.14C154.13,-44.04 145.93,-28.92 140.83,-19.52"/>
<polygon fill="#9a32cd" stroke="#9a32cd" points="157.57,-57.71 165.41,-64.83 163.72,-54.37 157.57,-57.71"/>
</a>
</g>
<text text-anchor="middle" x="176" y="-39" font-family="ui-monospace,monospace" font-size="10.00" fill="grey"> loader</text>
</g>
</g>
</svg>
