<?xml version="1.0" encoding="UTF-8" standalone="no"?>
<!DOCTYPE svg PUBLIC "-//W3C//DTD SVG 1.1//EN"
 "http://www.w3.org/Graphics/SVG/1.1/DTD/svg11.dtd">
<!-- Generated by graphviz version 2.42.4 (0)
 -->
<!-- Title: Sprite Pages: 1 -->
<svg width="270pt" height="95pt"
 viewBox="0.00 0.00 270.00 95.00" xmlns="http://www.w3.org/2000/svg" xmlns:xlink="http://www.w3.org/1999/xlink">
<g id="graph0" class="graph" transform="scale(1 1) rotate(0) translate(4 91)">
<title>Sprite</title>
<polygon fill="white" stroke="transparent" points="-4,4 -4,-91 266,-91 266,4 -4,4"/>
<!-- Node1 -->
<g id="node1" class="node">
<title>Node1</title>
<g id="a_node1"><a xlink:title="Higher&#45;level representation of an image.">
<polygon fill="#bfbfbf" stroke="black" points="76,-0.5 76,-19.5 129,-19.5 129,-0.5 76,-0.5"/>
<text text-anchor="middle" x="102.5" y="-7.5" font-family="'Consolas',monospace" font-size="10.00">Sprite</text>
</a>
</g>
</g>
<!-- Node2 -->
<g id="node2" class="node">
<title>Node2</title>
<g id="a_node2"><a xlink:href="classjngl_1_1Drawable.html" target="_top" xlink:title="Base class for drawable objects with a position and a rectangle size.">
<polygon fill="white" stroke="black" points="0,-67.5 0,-86.5 65,-86.5 65,-67.5 0,-67.5"/>
<text text-anchor="middle" x="32.5" y="-74.5" font-family="'Consolas',monospace" font-size="10.00">Drawable</text>
</a>
</g>
</g>
<!-- Node2&#45;&gt;Node1 -->
<g id="edge1" class="edge">
<title>Node2&#45;&gt;Node1</title>
<path fill="none" stroke="midnightblue" d="M49.35,-60.36C63.11,-47.58 82.05,-29.99 93.21,-19.63"/>
<polygon fill="midnightblue" stroke="midnightblue" points="46.89,-57.86 41.94,-67.23 51.65,-62.99 46.89,-57.86"/>
</g>
<!-- Node3 -->
<g id="node3" class="node">
<title>Node3</title>
<g id="a_node3"><a target="_parent" xlink:href="http://en.cppreference.com/w/cpp/memory/shared_ptr.html" target="_top" xlink:title=" ">
<polygon fill="white" stroke="black" points="83,-67.5 83,-86.5 262,-86.5 262,-67.5 83,-67.5"/>
<text text-anchor="middle" x="172.5" y="-74.5" font-family="'Consolas',monospace" font-size="10.00">shared_ptr&lt; jngl::Finally &gt;</text>
</a>
</g>
</g>
<!-- Node3&#45;&gt;Node1 -->
<g id="edge2" class="edge">
<title>Node3&#45;&gt;Node1</title>
<path fill="none" stroke="#9a32cd" stroke-dasharray="5,2" d="M155.65,-60.36C141.89,-47.58 122.95,-29.99 111.79,-19.63"/>
<polygon fill="#9a32cd" stroke="#9a32cd" points="153.35,-62.99 163.06,-67.23 158.11,-57.86 153.35,-62.99"/>
<text text-anchor="middle" x="163" y="-41" font-family="'Consolas',monospace" font-size="10.00"> loader</text>
</g>
</g>
</svg>
