<?xml version="1.0" encoding="UTF-8" standalone="no"?>
<!DOCTYPE svg PUBLIC "-//W3C//DTD SVG 1.1//EN"
 "http://www.w3.org/Graphics/SVG/1.1/DTD/svg11.dtd">
<!-- Generated by graphviz version 5.0.0 (0)
 -->
<!-- Title: Drawable Pages: 1 -->
<svg width="120pt" height="82pt"
 viewBox="0.00 0.00 120.00 82.00" xmlns="http://www.w3.org/2000/svg" xmlns:xlink="http://www.w3.org/1999/xlink">
<g id="graph0" class="graph" transform="scale(1 1) rotate(0) translate(4 78)">
<title>Drawable</title>
<!-- Node1 -->
<g id="node1" class="node">
<title>Node1</title>
<g id="a_node1"><a xlink:title="Base class for drawable objects with a position and a rectangle size.">
<polygon fill="#999999" stroke="#666666" points="91,-74 26,-74 26,-55 91,-55 91,-74"/>
<text text-anchor="middle" x="58.5" y="-62" font-family="ui-monospace,monospace" font-size="10.00">Drawable</text>
</a>
</g>
</g>
<!-- Node2 -->
<g id="node2" class="node">
<title>Node2</title>
<g id="a_node2"><a xlink:href="classjngl_1_1Sprite.html" target="_top" xlink:title="Higher&#45;level representation of an image.">
<polygon fill="white" stroke="#666666" points="53,-19 0,-19 0,0 53,0 53,-19"/>
<text text-anchor="middle" x="26.5" y="-7" font-family="ui-monospace,monospace" font-size="10.00">Sprite</text>
</a>
</g>
</g>
<!-- Node1&#45;&gt;Node2 -->
<g id="edge1" class="edge">
<title>Node1&#45;&gt;Node2</title>
<path fill="none" stroke="#63b8ff" d="M48,-46.1C42.53,-37.04 36.08,-26.37 31.69,-19.09"/>
<polygon fill="#63b8ff" stroke="#63b8ff" points="45.05,-48 53.22,-54.75 51.04,-44.38 45.05,-48"/>
</g>
<!-- Node3 -->
<g id="node3" class="node">
<title>Node3</title>
<g id="a_node3"><a xlink:href="classjngl_1_1Text.html" target="_top" xlink:title="Rectangle shaped text block.">
<polygon fill="white" stroke="#666666" points="112,-19 71,-19 71,0 112,0 112,-19"/>
<text text-anchor="middle" x="91.5" y="-7" font-family="ui-monospace,monospace" font-size="10.00">Text</text>
</a>
</g>
</g>
<!-- Node1&#45;&gt;Node3 -->
<g id="edge2" class="edge">
<title>Node1&#45;&gt;Node3</title>
<path fill="none" stroke="#63b8ff" d="M69.33,-46.1C74.97,-37.04 81.62,-26.37 86.15,-19.09"/>
<polygon fill="#63b8ff" stroke="#63b8ff" points="66.26,-44.41 63.95,-54.75 72.21,-48.11 66.26,-44.41"/>
</g>
</g>
</svg>
