<?xml version="1.0" encoding="UTF-8" standalone="no"?>
<!DOCTYPE svg PUBLIC "-//W3C//DTD SVG 1.1//EN"
 "http://www.w3.org/Graphics/SVG/1.1/DTD/svg11.dtd">
<!-- Generated by graphviz version 5.0.0 (0)
 -->
<!-- Title: Effect Pages: 1 -->
<svg width="132pt" height="82pt"
 viewBox="0.00 0.00 132.00 82.00" xmlns="http://www.w3.org/2000/svg" xmlns:xlink="http://www.w3.org/1999/xlink">
<g id="graph0" class="graph" transform="scale(1 1) rotate(0) translate(4 78)">
<title>Effect</title>
<!-- Node1 -->
<g id="node1" class="node">
<title>Node1</title>
<g id="a_node1"><a xlink:title="Base class for effects that can be applied to jngl::Widget.">
<polygon fill="#999999" stroke="#666666" points="91,-74 44,-74 44,-55 91,-55 91,-74"/>
<text text-anchor="middle" x="67.5" y="-62" font-family="ui-monospace,monospace" font-size="10.00">Effect</text>
</a>
</g>
</g>
<!-- Node2 -->
<g id="node2" class="node">
<title>Node2</title>
<g id="a_node2"><a xlink:href="classjngl_1_1Executor.html" target="_top" xlink:title="Executes a specific action, e.g. removes the Widget.">
<polygon fill="white" stroke="#666666" points="65,-19 0,-19 0,0 65,0 65,-19"/>
<text text-anchor="middle" x="32.5" y="-7" font-family="ui-monospace,monospace" font-size="10.00">Executor</text>
</a>
</g>
</g>
<!-- Node1&#45;&gt;Node2 -->
<g id="edge1" class="edge">
<title>Node1&#45;&gt;Node2</title>
<path fill="none" stroke="#63b8ff" d="M56.2,-46.39C50.18,-37.27 43.03,-26.45 38.17,-19.09"/>
<polygon fill="#63b8ff" stroke="#63b8ff" points="53.29,-48.33 61.72,-54.75 59.13,-44.47 53.29,-48.33"/>
</g>
<!-- Node3 -->
<g id="node3" class="node">
<title>Node3</title>
<g id="a_node3"><a xlink:href="classjngl_1_1Zoom.html" target="_top" xlink:title="Scales the ModelView matrix.">
<polygon fill="white" stroke="#666666" points="124,-19 83,-19 83,0 124,0 124,-19"/>
<text text-anchor="middle" x="103.5" y="-7" font-family="ui-monospace,monospace" font-size="10.00">Zoom</text>
</a>
</g>
</g>
<!-- Node1&#45;&gt;Node3 -->
<g id="edge2" class="edge">
<title>Node1&#45;&gt;Node3</title>
<path fill="none" stroke="#63b8ff" d="M79.12,-46.39C85.32,-37.27 92.67,-26.45 97.67,-19.09"/>
<polygon fill="#63b8ff" stroke="#63b8ff" points="76.17,-44.51 73.44,-54.75 81.96,-48.44 76.17,-44.51"/>
</g>
</g>
</svg>
