<?xml version="1.0" encoding="UTF-8" standalone="no"?>
<!DOCTYPE svg PUBLIC "-//W3C//DTD SVG 1.1//EN"
 "http://www.w3.org/Graphics/SVG/1.1/DTD/svg11.dtd">
<!-- Generated by graphviz version 9.0.0 (20230911.1827)
 -->
<!-- Title: Fade Pages: 1 -->
<svg width="54pt" height="138pt"
 viewBox="0.00 0.00 54.00 137.75" xmlns="http://www.w3.org/2000/svg" xmlns:xlink="http://www.w3.org/1999/xlink">
<g id="graph0" class="graph" transform="scale(1 1) rotate(0) translate(4 133.75)">
<title>Fade</title>
<!-- Node1 -->
<g id="Node000001" class="node">
<title>Node1</title>
<g id="a_Node000001"><a xlink:title="Fades between two scenes, first fading to jngl::getBackgroundColor() and then fading to the new scene...">
<polygon fill="#999999" stroke="#666666" points="43,-19.25 3,-19.25 3,0 43,0 43,-19.25"/>
<text text-anchor="middle" x="23" y="-5.75" font-family="ui-monospace,monospace" font-size="10.00">Fade</text>
</a>
</g>
</g>
<!-- Node2 -->
<g id="Node000002" class="node">
<title>Node2</title>
<g id="a_Node000002"><a xlink:href="classjngl_1_1Work.html" target="_top" xlink:title="Active state of the game, e.g. a menu or the game itself.">
<polygon fill="white" stroke="#666666" points="46,-74.5 0,-74.5 0,-55.25 46,-55.25 46,-74.5"/>
<text text-anchor="middle" x="23" y="-61" font-family="ui-monospace,monospace" font-size="10.00">Scene</text>
</a>
</g>
</g>
<!-- Node2&#45;&gt;Node1 -->
<g id="edge1_Node000001_Node000002" class="edge">
<title>Node2&#45;&gt;Node1</title>
<g id="a_edge1_Node000001_Node000002"><a xlink:title=" ">
<path fill="none" stroke="#63b8ff" d="M23,-43.63C23,-35.34 23,-26.17 23,-19.61"/>
<polygon fill="#63b8ff" stroke="#63b8ff" points="19.5,-43.57 23,-53.57 26.5,-43.57 19.5,-43.57"/>
</a>
</g>
</g>
<!-- Node3 -->
<g id="Node000003" class="node">
<title>Node3</title>
<g id="a_Node000003"><a xlink:href="classjngl_1_1Job.html" target="_top" xlink:title="Background job which stays part of the main loop independent of the active jngl::Work.">
<polygon fill="white" stroke="#666666" points="40,-129.75 6,-129.75 6,-110.5 40,-110.5 40,-129.75"/>
<text text-anchor="middle" x="23" y="-116.25" font-family="ui-monospace,monospace" font-size="10.00">Job</text>
</a>
</g>
</g>
<!-- Node3&#45;&gt;Node2 -->
<g id="edge2_Node000002_Node000003" class="edge">
<title>Node3&#45;&gt;Node2</title>
<g id="a_edge2_Node000002_Node000003"><a xlink:title=" ">
<path fill="none" stroke="#63b8ff" d="M23,-98.88C23,-90.59 23,-81.42 23,-74.86"/>
<polygon fill="#63b8ff" stroke="#63b8ff" points="19.5,-98.82 23,-108.82 26.5,-98.82 19.5,-98.82"/>
</a>
</g>
</g>
</g>
</svg>
