<?xml version="1.0" encoding="UTF-8" standalone="no"?>
<!DOCTYPE svg PUBLIC "-//W3C//DTD SVG 1.1//EN"
 "http://www.w3.org/Graphics/SVG/1.1/DTD/svg11.dtd">
<!-- Generated by graphviz version 12.1.0 (20240811.2233)
 -->
<!-- Title: Effect Pages: 1 -->
<svg width="312pt" height="83pt"
 viewBox="0.00 0.00 312.00 82.50" xmlns="http://www.w3.org/2000/svg" xmlns:xlink="http://www.w3.org/1999/xlink">
<g id="graph0" class="graph" transform="scale(1 1) rotate(0) translate(4 78.5)">
<title>Effect</title>
<!-- Node1 -->
<g id="Node000001" class="node">
<title>Node1</title>
<g id="a_Node000001"><a xlink:title="Base class for effects that can be applied to jngl::Widget.">
<polygon fill="#999999" stroke="#666666" points="170,-74.5 124,-74.5 124,-55.25 170,-55.25 170,-74.5"/>
<text text-anchor="middle" x="147" y="-61" font-family="ui-monospace,monospace" font-size="10.00">Effect</text>
</a>
</g>
</g>
<!-- Node2 -->
<g id="Node000002" class="node">
<title>Node2</title>
<g id="a_Node000002"><a xlink:href="classjngl_1_1Executor.html" target="_top" xlink:title="Executes a specific action, e.g. removes the Widget.">
<polygon fill="white" stroke="#666666" points="64,-19.25 0,-19.25 0,0 64,0 64,-19.25"/>
<text text-anchor="middle" x="32" y="-5.75" font-family="ui-monospace,monospace" font-size="10.00">Executor</text>
</a>
</g>
</g>
<!-- Node1&#45;&gt;Node2 -->
<g id="edge1_Node000001_Node000002" class="edge">
<title>Node1&#45;&gt;Node2</title>
<g id="a_edge1_Node000001_Node000002"><a xlink:title=" ">
<path fill="none" stroke="#63b8ff" d="M117.05,-50.01C96.41,-40.45 69.56,-28.02 51.6,-19.7"/>
<polygon fill="#63b8ff" stroke="#63b8ff" points="115.57,-53.18 126.12,-54.21 118.51,-46.83 115.57,-53.18"/>
</a>
</g>
</g>
<!-- Node3 -->
<g id="Node000003" class="node">
<title>Node3</title>
<g id="a_Node000003"><a xlink:href="classjngl_1_1Move.html" target="_top" xlink:title=" ">
<polygon fill="white" stroke="#bfbfbf" points="122,-19.25 82,-19.25 82,0 122,0 122,-19.25"/>
<text text-anchor="middle" x="102" y="-5.75" font-family="ui-monospace,monospace" font-size="10.00">Move</text>
</a>
</g>
</g>
<!-- Node1&#45;&gt;Node3 -->
<g id="edge2_Node000001_Node000003" class="edge">
<title>Node1&#45;&gt;Node3</title>
<g id="a_edge2_Node000001_Node000003"><a xlink:title=" ">
<path fill="none" stroke="#63b8ff" d="M132.32,-46.51C124.74,-37.53 115.79,-26.95 109.59,-19.61"/>
<polygon fill="#63b8ff" stroke="#63b8ff" points="129.46,-48.55 138.59,-53.93 134.81,-44.03 129.46,-48.55"/>
</a>
</g>
</g>
<!-- Node4 -->
<g id="Node000004" class="node">
<title>Node4</title>
<g id="a_Node000004"><a xlink:href="classjngl_1_1UpdateModelview.html" target="_top" xlink:title=" ">
<polygon fill="white" stroke="#bfbfbf" points="246,-19.25 140,-19.25 140,0 246,0 246,-19.25"/>
<text text-anchor="middle" x="193" y="-5.75" font-family="ui-monospace,monospace" font-size="10.00">UpdateModelview</text>
</a>
</g>
</g>
<!-- Node1&#45;&gt;Node4 -->
<g id="edge3_Node000001_Node000004" class="edge">
<title>Node1&#45;&gt;Node4</title>
<g id="a_edge3_Node000001_Node000004"><a xlink:title=" ">
<path fill="none" stroke="#63b8ff" d="M162,-46.51C169.76,-37.53 178.9,-26.95 185.24,-19.61"/>
<polygon fill="#63b8ff" stroke="#63b8ff" points="159.47,-44.08 155.59,-53.94 164.77,-48.66 159.47,-44.08"/>
</a>
</g>
</g>
<!-- Node5 -->
<g id="Node000005" class="node">
<title>Node5</title>
<g id="a_Node000005"><a xlink:href="classjngl_1_1Zoom.html" target="_top" xlink:title="Scales the ModelView matrix.">
<polygon fill="white" stroke="#666666" points="304,-19.25 264,-19.25 264,0 304,0 304,-19.25"/>
<text text-anchor="middle" x="284" y="-5.75" font-family="ui-monospace,monospace" font-size="10.00">Zoom</text>
</a>
</g>
</g>
<!-- Node1&#45;&gt;Node5 -->
<g id="edge4_Node000001_Node000005" class="edge">
<title>Node1&#45;&gt;Node5</title>
<g id="a_edge4_Node000001_Node000005"><a xlink:title=" ">
<path fill="none" stroke="#63b8ff" d="M180.78,-50.75C206.81,-40.63 241.95,-26.97 263.78,-18.49"/>
<polygon fill="#63b8ff" stroke="#63b8ff" points="179.7,-47.41 171.65,-54.29 182.24,-53.93 179.7,-47.41"/>
</a>
</g>
</g>
</g>
</svg>
