<?xml version="1.0" encoding="UTF-8" standalone="no"?>
<!DOCTYPE svg PUBLIC "-//W3C//DTD SVG 1.1//EN"
 "http://www.w3.org/Graphics/SVG/1.1/DTD/svg11.dtd">
<!-- Generated by graphviz version 2.44.0 (0)
 -->
<!-- Title: Label Pages: 1 -->
<svg width="90pt" height="152pt"
 viewBox="0.00 0.00 89.50 152.00" xmlns="http://www.w3.org/2000/svg" xmlns:xlink="http://www.w3.org/1999/xlink">
<g id="graph0" class="graph" transform="scale(1 1) rotate(0) translate(4 148)">
<title>Label</title>
<polygon fill="white" stroke="transparent" points="-4,4 -4,-148 85.5,-148 85.5,4 -4,4"/>
<!-- Node1 -->
<g id="node1" class="node">
<title>Node1</title>
<g id="a_node1"><a xlink:title=" ">
<polygon fill="#bfbfbf" stroke="black" points="3,-0.5 3,-19.5 50,-19.5 50,-0.5 3,-0.5"/>
<text text-anchor="middle" x="26.5" y="-7.5" font-family="'Consolas',monospace" font-size="10.00">Label</text>
</a>
</g>
</g>
<!-- Node2 -->
<g id="node2" class="node">
<title>Node2</title>
<g id="a_node2"><a xlink:href="classjngl_1_1Widget.html" target="_top" xlink:title=" ">
<polygon fill="white" stroke="black" points="0,-57.5 0,-76.5 53,-76.5 53,-57.5 0,-57.5"/>
<text text-anchor="middle" x="26.5" y="-64.5" font-family="'Consolas',monospace" font-size="10.00">Widget</text>
</a>
</g>
</g>
<!-- Node2&#45;&gt;Node1 -->
<g id="edge1" class="edge">
<title>Node2&#45;&gt;Node1</title>
<path fill="none" stroke="midnightblue" d="M26.5,-47.12C26.5,-37.82 26.5,-27.06 26.5,-19.71"/>
<polygon fill="midnightblue" stroke="midnightblue" points="23,-47.41 26.5,-57.41 30,-47.41 23,-47.41"/>
</g>
<!-- Node3 -->
<g id="node3" class="node">
<title>Node3</title>
<g id="a_node3"><a xlink:href="classjngl_1_1Vec2.html" target="_top" xlink:title="Two&#45;dimensional vector.">
<polygon fill="white" stroke="black" points="6,-124.5 6,-143.5 47,-143.5 47,-124.5 6,-124.5"/>
<text text-anchor="middle" x="26.5" y="-131.5" font-family="'Consolas',monospace" font-size="10.00">Vec2</text>
</a>
</g>
</g>
<!-- Node3&#45;&gt;Node2 -->
<g id="edge2" class="edge">
<title>Node3&#45;&gt;Node2</title>
<path fill="none" stroke="#9a32cd" stroke-dasharray="5,2" d="M26.5,-114.04C26.5,-101.67 26.5,-86.12 26.5,-76.63"/>
<polygon fill="#9a32cd" stroke="#9a32cd" points="23,-114.23 26.5,-124.23 30,-114.23 23,-114.23"/>
<text text-anchor="middle" x="54" y="-98" font-family="'Consolas',monospace" font-size="10.00"> position</text>
</g>
</g>
</svg>
