<?xml version="1.0" encoding="UTF-8" standalone="no"?>
<!DOCTYPE svg PUBLIC "-//W3C//DTD SVG 1.1//EN"
 "http://www.w3.org/Graphics/SVG/1.1/DTD/svg11.dtd">
<!-- Generated by graphviz version 5.0.0 (0)
 -->
<!-- Title: Label Pages: 1 -->
<svg width="90pt" height="149pt"
 viewBox="0.00 0.00 89.50 149.00" xmlns="http://www.w3.org/2000/svg" xmlns:xlink="http://www.w3.org/1999/xlink">
<g id="graph0" class="graph" transform="scale(1 1) rotate(0) translate(4 145)">
<title>Label</title>
<!-- Node1 -->
<g id="node1" class="node">
<title>Node1</title>
<g id="a_node1"><a xlink:title="Simple Widget displaying a line of text.">
<polygon fill="#999999" stroke="#666666" points="50,-19 3,-19 3,0 50,0 50,-19"/>
<text text-anchor="middle" x="26.5" y="-7" font-family="ui-monospace,monospace" font-size="10.00">Label</text>
</a>
</g>
</g>
<!-- Node2 -->
<g id="node2" class="node">
<title>Node2</title>
<g id="a_node2"><a xlink:href="classjngl_1_1Widget.html" target="_top" xlink:title=" ">
<polygon fill="white" stroke="#bfbfbf" points="53,-75 0,-75 0,-56 53,-56 53,-75"/>
<text text-anchor="middle" x="26.5" y="-63" font-family="ui-monospace,monospace" font-size="10.00">Widget</text>
</a>
</g>
</g>
<!-- Node2&#45;&gt;Node1 -->
<g id="edge1" class="edge">
<title>Node2&#45;&gt;Node1</title>
<path fill="none" stroke="#63b8ff" d="M26.5,-45.3C26.5,-36.41 26.5,-26.28 26.5,-19.25"/>
<polygon fill="#63b8ff" stroke="#63b8ff" points="23,-45.58 26.5,-55.58 30,-45.58 23,-45.58"/>
</g>
<!-- Node3 -->
<g id="node3" class="node">
<title>Node3</title>
<g id="a_node3"><a xlink:href="classjngl_1_1Vec2.html" target="_top" xlink:title="Two&#45;dimensional vector.">
<polygon fill="white" stroke="#666666" points="47,-141 6,-141 6,-122 47,-122 47,-141"/>
<text text-anchor="middle" x="26.5" y="-129" font-family="ui-monospace,monospace" font-size="10.00">Vec2</text>
</a>
</g>
</g>
<!-- Node3&#45;&gt;Node2 -->
<g id="edge2" class="edge">
<title>Node3&#45;&gt;Node2</title>
<path fill="none" stroke="#9a32cd" stroke-dasharray="5,2" d="M26.5,-111.58C26.5,-99.63 26.5,-84.72 26.5,-75.41"/>
<polygon fill="#9a32cd" stroke="#9a32cd" points="23,-111.87 26.5,-121.87 30,-111.87 23,-111.87"/>
<text text-anchor="middle" x="54" y="-96" font-family="ui-monospace,monospace" font-size="10.00"> position</text>
</g>
</g>
</svg>
