<?xml version="1.0" encoding="UTF-8" standalone="no"?>
<!DOCTYPE svg PUBLIC "-//W3C//DTD SVG 1.1//EN"
 "http://www.w3.org/Graphics/SVG/1.1/DTD/svg11.dtd">
<!-- Generated by graphviz version 2.42.4 (0)
 -->
<!-- Title: Drawable Pages: 1 -->
<svg width="203pt" height="84pt"
 viewBox="0.00 0.00 203.00 84.00" xmlns="http://www.w3.org/2000/svg" xmlns:xlink="http://www.w3.org/1999/xlink">
<g id="graph0" class="graph" transform="scale(1 1) rotate(0) translate(4 80)">
<title>Drawable</title>
<polygon fill="white" stroke="transparent" points="-4,4 -4,-80 199,-80 199,4 -4,4"/>
<!-- Node1 -->
<g id="node1" class="node">
<title>Node1</title>
<g id="a_node1"><a xlink:title="Base class for drawable objects with a position and a rectangle size.">
<polygon fill="#bfbfbf" stroke="black" points="59,-56.5 59,-75.5 124,-75.5 124,-56.5 59,-56.5"/>
<text text-anchor="middle" x="91.5" y="-63.5" font-family="'Consolas',monospace" font-size="10.00">Drawable</text>
</a>
</g>
</g>
<!-- Node2 -->
<g id="node2" class="node">
<title>Node2</title>
<g id="a_node2"><a xlink:href="classjngl_1_1Sprite.html" target="_top" xlink:title="Higher&#45;level representation of an image.">
<polygon fill="white" stroke="black" points="0,-0.5 0,-19.5 53,-19.5 53,-0.5 0,-0.5"/>
<text text-anchor="middle" x="26.5" y="-7.5" font-family="'Consolas',monospace" font-size="10.00">Sprite</text>
</a>
</g>
</g>
<!-- Node1&#45;&gt;Node2 -->
<g id="edge1" class="edge">
<title>Node1&#45;&gt;Node2</title>
<path fill="none" stroke="midnightblue" d="M73.23,-49.82C61.58,-40.15 46.9,-27.95 37.13,-19.83"/>
<polygon fill="midnightblue" stroke="midnightblue" points="71.13,-52.63 81.06,-56.32 75.6,-47.24 71.13,-52.63"/>
</g>
<!-- Node3 -->
<g id="node3" class="node">
<title>Node3</title>
<g id="a_node3"><a xlink:href="classjngl_1_1Text.html" target="_top" xlink:title="Rectangle shaped text block.">
<polygon fill="white" stroke="black" points="71,-0.5 71,-19.5 112,-19.5 112,-0.5 71,-0.5"/>
<text text-anchor="middle" x="91.5" y="-7.5" font-family="'Consolas',monospace" font-size="10.00">Text</text>
</a>
</g>
</g>
<!-- Node1&#45;&gt;Node3 -->
<g id="edge2" class="edge">
<title>Node1&#45;&gt;Node3</title>
<path fill="none" stroke="midnightblue" d="M91.5,-45.8C91.5,-36.91 91.5,-26.78 91.5,-19.75"/>
<polygon fill="midnightblue" stroke="midnightblue" points="88,-46.08 91.5,-56.08 95,-46.08 88,-46.08"/>
</g>
<!-- Node4 -->
<g id="node4" class="node">
<title>Node4</title>
<g id="a_node4"><a xlink:href="classjngl_1_1TextLine.html" target="_top" xlink:title="Rectangle shaped text (in contrast to jngl::Text this only represents one line)">
<polygon fill="white" stroke="black" points="130,-0.5 130,-19.5 195,-19.5 195,-0.5 130,-0.5"/>
<text text-anchor="middle" x="162.5" y="-7.5" font-family="'Consolas',monospace" font-size="10.00">TextLine</text>
</a>
</g>
</g>
<!-- Node1&#45;&gt;Node4 -->
<g id="edge3" class="edge">
<title>Node1&#45;&gt;Node4</title>
<path fill="none" stroke="midnightblue" d="M111.09,-50.1C123.87,-40.38 140.11,-28.03 150.89,-19.83"/>
<polygon fill="midnightblue" stroke="midnightblue" points="108.75,-47.48 102.91,-56.32 112.99,-53.06 108.75,-47.48"/>
</g>
</g>
</svg>
