<?xml version="1.0" encoding="UTF-8" standalone="no"?>
<!DOCTYPE svg PUBLIC "-//W3C//DTD SVG 1.1//EN"
 "http://www.w3.org/Graphics/SVG/1.1/DTD/svg11.dtd">
<!-- Generated by graphviz version 2.40.1 (0)
 -->
<!-- Title: Drawable Pages: 1 -->
<svg width="108pt" height="84pt"
 viewBox="0.00 0.00 108.00 84.00" xmlns="http://www.w3.org/2000/svg" xmlns:xlink="http://www.w3.org/1999/xlink">
<g id="graph0" class="graph" transform="scale(1 1) rotate(0) translate(4 80)">
<title>Drawable</title>
<polygon fill="#ffffff" stroke="transparent" points="-4,4 -4,-80 104,-80 104,4 -4,4"/>
<!-- Node0 -->
<g id="node1" class="node">
<title>Node0</title>
<polygon fill="#bfbfbf" stroke="#000000" points="21.5,-56.5 21.5,-75.5 80.5,-75.5 80.5,-56.5 21.5,-56.5"/>
<text text-anchor="middle" x="51" y="-63.5" font-family="Lato" font-size="10.00" fill="#000000">Drawable</text>
</g>
<!-- Node1 -->
<g id="node2" class="node">
<title>Node1</title>
<g id="a_node2"><a xlink:href="classjngl_1_1Sprite.html" target="_top" xlink:title="Sprite">
<polygon fill="#ffffff" stroke="#000000" points="0,-.5 0,-19.5 44,-19.5 44,-.5 0,-.5"/>
<text text-anchor="middle" x="22" y="-7.5" font-family="Lato" font-size="10.00" fill="#000000">Sprite</text>
</a>
</g>
</g>
<!-- Node0&#45;&gt;Node1 -->
<g id="edge1" class="edge">
<title>Node0&#45;&gt;Node1</title>
<path fill="none" stroke="#191970" d="M41.3353,-47.3372C36.5313,-38.0605 30.9277,-27.2398 26.9935,-19.6427"/>
<polygon fill="#191970" stroke="#191970" points="38.242,-48.9751 45.9486,-56.2455 44.458,-45.7561 38.242,-48.9751"/>
</g>
<!-- Node2 -->
<g id="node3" class="node">
<title>Node2</title>
<g id="a_node3"><a xlink:href="classjngl_1_1Text.html" target="_top" xlink:title="Text">
<polygon fill="#ffffff" stroke="#000000" points="62,-.5 62,-19.5 100,-19.5 100,-.5 62,-.5"/>
<text text-anchor="middle" x="81" y="-7.5" font-family="Lato" font-size="10.00" fill="#000000">Text</text>
</a>
</g>
</g>
<!-- Node0&#45;&gt;Node2 -->
<g id="edge2" class="edge">
<title>Node0&#45;&gt;Node2</title>
<path fill="none" stroke="#191970" d="M60.998,-47.3372C65.9676,-38.0605 71.7644,-27.2398 75.8343,-19.6427"/>
<polygon fill="#191970" stroke="#191970" points="57.8627,-45.7779 56.2256,-56.2455 64.0331,-49.0835 57.8627,-45.7779"/>
</g>
</g>
</svg>
