<?xml version="1.0" encoding="UTF-8" standalone="no"?>
<!DOCTYPE svg PUBLIC "-//W3C//DTD SVG 1.1//EN"
 "http://www.w3.org/Graphics/SVG/1.1/DTD/svg11.dtd">
<!-- Generated by graphviz version 9.0.0 (20230911.1827)
 -->
<!-- Title: Sprite Pages: 1 -->
<svg width="268pt" height="94pt"
 viewBox="0.00 0.00 268.00 93.75" xmlns="http://www.w3.org/2000/svg" xmlns:xlink="http://www.w3.org/1999/xlink">
<g id="graph0" class="graph" transform="scale(1 1) rotate(0) translate(4 89.75)">
<title>Sprite</title>
<!-- Node1 -->
<g id="Node000001" class="node">
<title>Node1</title>
<g id="a_Node000001"><a xlink:title="Higher&#45;level representation of an image.">
<polygon fill="#999999" stroke="#666666" points="127,-19.25 75,-19.25 75,0 127,0 127,-19.25"/>
<text text-anchor="middle" x="101" y="-5.75" font-family="ui-monospace,monospace" font-size="10.00">Sprite</text>
</a>
</g>
</g>
<!-- Node2 -->
<g id="Node000002" class="node">
<title>Node2</title>
<g id="a_Node000002"><a xlink:href="classjngl_1_1Drawable.html" target="_top" xlink:title="Base class for drawable objects with a position and a rectangle size.">
<polygon fill="white" stroke="#666666" points="64,-85.75 0,-85.75 0,-66.5 64,-66.5 64,-85.75"/>
<text text-anchor="middle" x="32" y="-72.25" font-family="ui-monospace,monospace" font-size="10.00">Drawable</text>
</a>
</g>
</g>
<!-- Node2&#45;&gt;Node1 -->
<g id="edge1_Node000001_Node000002" class="edge">
<title>Node2&#45;&gt;Node1</title>
<g id="a_edge1_Node000001_Node000002"><a xlink:title=" ">
<path fill="none" stroke="#63b8ff" d="M49.97,-58.33C63.25,-45.91 80.81,-29.5 91.49,-19.52"/>
<polygon fill="#63b8ff" stroke="#63b8ff" points="47.62,-55.74 42.7,-65.12 52.4,-60.85 47.62,-55.74"/>
</a>
</g>
</g>
<!-- Node3 -->
<g id="Node000003" class="node">
<title>Node3</title>
<g id="a_Node000003"><a target="_parent" xlink:href="http://en.cppreference.com/w/cpp/memory/shared_ptr.html" xlink:title=" ">
<polygon fill="white" stroke="#bfbfbf" points="260,-85.75 82,-85.75 82,-66.5 260,-66.5 260,-85.75"/>
<text text-anchor="middle" x="171" y="-72.25" font-family="ui-monospace,monospace" font-size="10.00">shared_ptr&lt; jngl::Finally &gt;</text>
</a>
</g>
</g>
<!-- Node3&#45;&gt;Node1 -->
<g id="edge2_Node000001_Node000003" class="edge">
<title>Node3&#45;&gt;Node1</title>
<g id="a_edge2_Node000001_Node000003"><a xlink:title=" ">
<path fill="none" stroke="#9a32cd" stroke-dasharray="5,2" d="M153.16,-58.69C139.64,-46.23 121.59,-29.59 110.65,-19.52"/>
<polygon fill="#9a32cd" stroke="#9a32cd" points="150.43,-60.93 160.15,-65.13 155.17,-55.78 150.43,-60.93"/>
</a>
</g>
<text text-anchor="middle" x="161" y="-39" font-family="ui-monospace,monospace" font-size="10.00" fill="grey"> loader</text>
</g>
</g>
</svg>
