<?xml version="1.0" encoding="UTF-8" standalone="no"?>
<!DOCTYPE svg PUBLIC "-//W3C//DTD SVG 1.1//EN"
 "http://www.w3.org/Graphics/SVG/1.1/DTD/svg11.dtd">
<!-- Generated by graphviz version 12.1.0 (20240811.2233)
 -->
<!-- Title: Job Pages: 1 -->
<svg width="220pt" height="138pt"
 viewBox="0.00 0.00 220.00 137.75" xmlns="http://www.w3.org/2000/svg" xmlns:xlink="http://www.w3.org/1999/xlink">
<g id="graph0" class="graph" transform="scale(1 1) rotate(0) translate(4 133.75)">
<title>Job</title>
<!-- Node1 -->
<g id="Node000001" class="node">
<title>Node1</title>
<g id="a_Node000001"><a xlink:title="Background job which stays part of the main loop independent of the active jngl::Scene.">
<polygon fill="#999999" stroke="#666666" points="106,-129.75 72,-129.75 72,-110.5 106,-110.5 106,-129.75"/>
<text text-anchor="middle" x="89" y="-116.25" font-family="ui-monospace,monospace" font-size="10.00">Job</text>
</a>
</g>
</g>
<!-- Node2 -->
<g id="Node000002" class="node">
<title>Node2</title>
<g id="a_Node000002"><a xlink:href="classjngl_1_1VideoRecorder.html" target="_top" xlink:title="Records video and audio output to a file.">
<polygon fill="white" stroke="#666666" points="94,-74.5 0,-74.5 0,-55.25 94,-55.25 94,-74.5"/>
<text text-anchor="middle" x="47" y="-61" font-family="ui-monospace,monospace" font-size="10.00">VideoRecorder</text>
</a>
</g>
</g>
<!-- Node1&#45;&gt;Node2 -->
<g id="edge1_Node000001_Node000002" class="edge">
<title>Node1&#45;&gt;Node2</title>
<g id="a_edge1_Node000001_Node000002"><a xlink:title=" ">
<path fill="none" stroke="#63b8ff" d="M75.08,-101.47C68.04,-92.56 59.81,-82.12 54.09,-74.86"/>
<polygon fill="#63b8ff" stroke="#63b8ff" points="72.19,-103.46 81.13,-109.14 77.68,-99.12 72.19,-103.46"/>
</a>
</g>
</g>
<!-- Node3 -->
<g id="Node000003" class="node">
<title>Node3</title>
<g id="a_Node000003"><a xlink:href="classjngl_1_1Work.html" target="_top" xlink:title="Active state of the game, e.g. a menu or the game itself.">
<polygon fill="white" stroke="#666666" points="152,-74.5 112,-74.5 112,-55.25 152,-55.25 152,-74.5"/>
<text text-anchor="middle" x="132" y="-61" font-family="ui-monospace,monospace" font-size="10.00">Work</text>
</a>
</g>
</g>
<!-- Node1&#45;&gt;Node3 -->
<g id="edge2_Node000001_Node000003" class="edge">
<title>Node1&#45;&gt;Node3</title>
<g id="a_edge2_Node000001_Node000003"><a xlink:title=" ">
<path fill="none" stroke="#63b8ff" d="M103.25,-101.47C110.45,-92.56 118.88,-82.12 124.75,-74.86"/>
<polygon fill="#63b8ff" stroke="#63b8ff" points="100.61,-99.18 97.05,-109.15 106.06,-103.57 100.61,-99.18"/>
</a>
</g>
</g>
<!-- Node4 -->
<g id="Node000004" class="node">
<title>Node4</title>
<g id="a_Node000004"><a xlink:href="classjngl_1_1Fade.html" target="_top" xlink:title="Fades between two scenes, first fading to jngl::getBackgroundColor() and then fading to the new scene...">
<polygon fill="white" stroke="#666666" points="112,-19.25 72,-19.25 72,0 112,0 112,-19.25"/>
<text text-anchor="middle" x="92" y="-5.75" font-family="ui-monospace,monospace" font-size="10.00">Fade</text>
</a>
</g>
</g>
<!-- Node3&#45;&gt;Node4 -->
<g id="edge3_Node000003_Node000004" class="edge">
<title>Node3&#45;&gt;Node4</title>
<g id="a_edge3_Node000003_Node000004"><a xlink:title=" ">
<path fill="none" stroke="#63b8ff" d="M118.53,-45.94C111.88,-37.09 104.14,-26.79 98.75,-19.61"/>
<polygon fill="#63b8ff" stroke="#63b8ff" points="115.68,-47.98 124.49,-53.87 121.28,-43.77 115.68,-47.98"/>
</a>
</g>
</g>
<!-- Node5 -->
<g id="Node000005" class="node">
<title>Node5</title>
<g id="a_Node000005"><a xlink:href="classjngl_1_1WorkFactory.html" target="_top" xlink:title=" ">
<polygon fill="white" stroke="#bfbfbf" points="212,-19.25 130,-19.25 130,0 212,0 212,-19.25"/>
<text text-anchor="middle" x="171" y="-5.75" font-family="ui-monospace,monospace" font-size="10.00">WorkFactory</text>
</a>
</g>
</g>
<!-- Node3&#45;&gt;Node5 -->
<g id="edge4_Node000003_Node000005" class="edge">
<title>Node3&#45;&gt;Node5</title>
<g id="a_edge4_Node000003_Node000005"><a xlink:title=" ">
<path fill="none" stroke="#63b8ff" d="M145.14,-45.94C151.62,-37.09 159.16,-26.79 164.42,-19.61"/>
<polygon fill="#63b8ff" stroke="#63b8ff" points="142.42,-43.73 139.33,-53.86 148.07,-47.86 142.42,-43.73"/>
</a>
</g>
</g>
</g>
</svg>
