<?xml version="1.0" encoding="UTF-8" standalone="no"?>
<!DOCTYPE svg PUBLIC "-//W3C//DTD SVG 1.1//EN"
 "http://www.w3.org/Graphics/SVG/1.1/DTD/svg11.dtd">
<!-- Generated by graphviz version 5.0.0 (0)
 -->
<!-- Title: Text Pages: 1 -->
<svg width="96pt" height="149pt"
 viewBox="0.00 0.00 95.50 149.00" xmlns="http://www.w3.org/2000/svg" xmlns:xlink="http://www.w3.org/1999/xlink">
<g id="graph0" class="graph" transform="scale(1 1) rotate(0) translate(4 145)">
<title>Text</title>
<!-- Node1 -->
<g id="node1" class="node">
<title>Node1</title>
<g id="a_node1"><a xlink:title="Rectangle shaped text block.">
<polygon fill="#999999" stroke="#666666" points="53,-19 12,-19 12,0 53,0 53,-19"/>
<text text-anchor="middle" x="32.5" y="-7" font-family="ui-monospace,monospace" font-size="10.00">Text</text>
</a>
</g>
</g>
<!-- Node2 -->
<g id="node2" class="node">
<title>Node2</title>
<g id="a_node2"><a xlink:href="classjngl_1_1Drawable.html" target="_top" xlink:title="Base class for drawable objects with a position and a rectangle size.">
<polygon fill="white" stroke="#666666" points="65,-75 0,-75 0,-56 65,-56 65,-75"/>
<text text-anchor="middle" x="32.5" y="-63" font-family="ui-monospace,monospace" font-size="10.00">Drawable</text>
</a>
</g>
</g>
<!-- Node2&#45;&gt;Node1 -->
<g id="edge1" class="edge">
<title>Node2&#45;&gt;Node1</title>
<path fill="none" stroke="#63b8ff" d="M32.5,-45.3C32.5,-36.41 32.5,-26.28 32.5,-19.25"/>
<polygon fill="#63b8ff" stroke="#63b8ff" points="29,-45.58 32.5,-55.58 36,-45.58 29,-45.58"/>
</g>
<!-- Node3 -->
<g id="node3" class="node">
<title>Node3</title>
<g id="a_node3"><a xlink:href="classjngl_1_1Vec2.html" target="_top" xlink:title="Two&#45;dimensional vector.">
<polygon fill="white" stroke="#666666" points="53,-141 12,-141 12,-122 53,-122 53,-141"/>
<text text-anchor="middle" x="32.5" y="-129" font-family="ui-monospace,monospace" font-size="10.00">Vec2</text>
</a>
</g>
</g>
<!-- Node3&#45;&gt;Node2 -->
<g id="edge2" class="edge">
<title>Node3&#45;&gt;Node2</title>
<path fill="none" stroke="#9a32cd" stroke-dasharray="5,2" d="M32.5,-111.58C32.5,-99.63 32.5,-84.72 32.5,-75.41"/>
<polygon fill="#9a32cd" stroke="#9a32cd" points="29,-111.87 32.5,-121.87 36,-111.87 29,-111.87"/>
<text text-anchor="middle" x="60" y="-96" font-family="ui-monospace,monospace" font-size="10.00"> position</text>
</g>
</g>
</svg>
