<?xml version="1.0" encoding="UTF-8" standalone="no"?>
<!DOCTYPE svg PUBLIC "-//W3C//DTD SVG 1.1//EN"
 "http://www.w3.org/Graphics/SVG/1.1/DTD/svg11.dtd">
<!-- Generated by graphviz version 9.0.0 (20230911.1827)
 -->
<!-- Title: Work Pages: 1 -->
<svg width="148pt" height="138pt"
 viewBox="0.00 0.00 148.00 137.75" xmlns="http://www.w3.org/2000/svg" xmlns:xlink="http://www.w3.org/1999/xlink">
<g id="graph0" class="graph" transform="scale(1 1) rotate(0) translate(4 133.75)">
<title>Work</title>
<!-- Node1 -->
<g id="Node000001" class="node">
<title>Node1</title>
<g id="a_Node000001"><a xlink:title="Active state of the game, e.g. a menu or the game itself.">
<polygon fill="#999999" stroke="#666666" points="79,-74.5 39,-74.5 39,-55.25 79,-55.25 79,-74.5"/>
<text text-anchor="middle" x="59" y="-61" font-family="ui-monospace,monospace" font-size="10.00">Work</text>
</a>
</g>
</g>
<!-- Node3 -->
<g id="Node000003" class="node">
<title>Node3</title>
<g id="a_Node000003"><a xlink:href="classjngl_1_1Fade.html" target="_top" xlink:title="Fades between two scenes, first fading to jngl::getBackgroundColor() and then fading to the new scene...">
<polygon fill="white" stroke="#666666" points="40,-19.25 0,-19.25 0,0 40,0 40,-19.25"/>
<text text-anchor="middle" x="20" y="-5.75" font-family="ui-monospace,monospace" font-size="10.00">Fade</text>
</a>
</g>
</g>
<!-- Node1&#45;&gt;Node3 -->
<g id="edge2_Node000001_Node000003" class="edge">
<title>Node1&#45;&gt;Node3</title>
<g id="a_edge2_Node000001_Node000003"><a xlink:title=" ">
<path fill="none" stroke="#63b8ff" d="M45.86,-45.94C39.38,-37.09 31.84,-26.79 26.58,-19.61"/>
<polygon fill="#63b8ff" stroke="#63b8ff" points="42.93,-47.86 51.67,-53.86 48.58,-43.73 42.93,-47.86"/>
</a>
</g>
</g>
<!-- Node4 -->
<g id="Node000004" class="node">
<title>Node4</title>
<g id="a_Node000004"><a xlink:href="classjngl_1_1WorkFactory.html" target="_top" xlink:title=" ">
<polygon fill="white" stroke="#bfbfbf" points="140,-19.25 58,-19.25 58,0 140,0 140,-19.25"/>
<text text-anchor="middle" x="99" y="-5.75" font-family="ui-monospace,monospace" font-size="10.00">WorkFactory</text>
</a>
</g>
</g>
<!-- Node1&#45;&gt;Node4 -->
<g id="edge3_Node000001_Node000004" class="edge">
<title>Node1&#45;&gt;Node4</title>
<g id="a_edge3_Node000001_Node000004"><a xlink:title=" ">
<path fill="none" stroke="#63b8ff" d="M72.47,-45.94C79.12,-37.09 86.86,-26.79 92.25,-19.61"/>
<polygon fill="#63b8ff" stroke="#63b8ff" points="69.72,-43.77 66.51,-53.87 75.32,-47.98 69.72,-43.77"/>
</a>
</g>
</g>
<!-- Node2 -->
<g id="Node000002" class="node">
<title>Node2</title>
<g id="a_Node000002"><a xlink:href="classjngl_1_1Job.html" target="_top" xlink:title="Background job which stays part of the main loop independent of the active jngl::Work.">
<polygon fill="white" stroke="#666666" points="76,-129.75 42,-129.75 42,-110.5 76,-110.5 76,-129.75"/>
<text text-anchor="middle" x="59" y="-116.25" font-family="ui-monospace,monospace" font-size="10.00">Job</text>
</a>
</g>
</g>
<!-- Node2&#45;&gt;Node1 -->
<g id="edge1_Node000001_Node000002" class="edge">
<title>Node2&#45;&gt;Node1</title>
<g id="a_edge1_Node000001_Node000002"><a xlink:title=" ">
<path fill="none" stroke="#63b8ff" d="M59,-98.88C59,-90.59 59,-81.42 59,-74.86"/>
<polygon fill="#63b8ff" stroke="#63b8ff" points="55.5,-98.82 59,-108.82 62.5,-98.82 55.5,-98.82"/>
</a>
</g>
</g>
</g>
</svg>
