<?xml version="1.0" encoding="UTF-8" standalone="no"?>
<!DOCTYPE svg PUBLIC "-//W3C//DTD SVG 1.1//EN"
 "http://www.w3.org/Graphics/SVG/1.1/DTD/svg11.dtd">
<!-- Generated by graphviz version 2.43.0 (0)
 -->
<!-- Title: Sprite Pages: 1 -->
<svg width="270pt" height="162pt"
 viewBox="0.00 0.00 270.00 162.00" xmlns="http://www.w3.org/2000/svg" xmlns:xlink="http://www.w3.org/1999/xlink">
<g id="graph0" class="graph" transform="scale(1 1) rotate(0) translate(4 158)">
<title>Sprite</title>
<polygon fill="white" stroke="transparent" points="-4,4 -4,-158 266,-158 266,4 -4,4"/>
<!-- Node1 -->
<g id="node1" class="node">
<title>Node1</title>
<g id="a_node1"><a xlink:title="Higher&#45;level representation of an image.">
<polygon fill="#bfbfbf" stroke="black" points="111,-0.5 111,-19.5 164,-19.5 164,-0.5 111,-0.5"/>
<text text-anchor="middle" x="137.5" y="-7.5" font-family="'Consolas',monospace" font-size="10.00">Sprite</text>
</a>
</g>
</g>
<!-- Node2 -->
<g id="node2" class="node">
<title>Node2</title>
<g id="a_node2"><a xlink:href="classjngl_1_1Drawable.html" target="_top" xlink:title="Base class for drawable objects with a position and a rectangle size.">
<polygon fill="white" stroke="black" points="0,-67.5 0,-86.5 65,-86.5 65,-67.5 0,-67.5"/>
<text text-anchor="middle" x="32.5" y="-74.5" font-family="'Consolas',monospace" font-size="10.00">Drawable</text>
</a>
</g>
</g>
<!-- Node2&#45;&gt;Node1 -->
<g id="edge1" class="edge">
<title>Node2&#45;&gt;Node1</title>
<path fill="none" stroke="midnightblue" d="M55.21,-61.94C76,-49.07 106.12,-30.43 123.56,-19.63"/>
<polygon fill="midnightblue" stroke="midnightblue" points="53.32,-58.99 46.66,-67.23 57.01,-64.95 53.32,-58.99"/>
</g>
<!-- Node3 -->
<g id="node3" class="node">
<title>Node3</title>
<g id="a_node3"><a xlink:href="classjngl_1_1Vec2.html" target="_top" xlink:title="Two&#45;dimensional vector.">
<polygon fill="white" stroke="black" points="12,-134.5 12,-153.5 53,-153.5 53,-134.5 12,-134.5"/>
<text text-anchor="middle" x="32.5" y="-141.5" font-family="'Consolas',monospace" font-size="10.00">Vec2</text>
</a>
</g>
</g>
<!-- Node3&#45;&gt;Node2 -->
<g id="edge2" class="edge">
<title>Node3&#45;&gt;Node2</title>
<path fill="none" stroke="#9a32cd" stroke-dasharray="5,2" d="M32.5,-124.04C32.5,-111.67 32.5,-96.12 32.5,-86.63"/>
<polygon fill="#9a32cd" stroke="#9a32cd" points="29,-124.23 32.5,-134.23 36,-124.23 29,-124.23"/>
<text text-anchor="middle" x="60" y="-108" font-family="'Consolas',monospace" font-size="10.00"> position</text>
</g>
<!-- Node4 -->
<g id="node4" class="node">
<title>Node4</title>
<g id="a_node4"><a target="_parent" xlink:href="http://en.cppreference.com/w/cpp/memory/shared_ptr.html" xlink:title=" ">
<polygon fill="white" stroke="black" points="83,-67.5 83,-86.5 262,-86.5 262,-67.5 83,-67.5"/>
<text text-anchor="middle" x="172.5" y="-74.5" font-family="'Consolas',monospace" font-size="10.00">shared_ptr&lt; jngl::Finally &gt;</text>
</a>
</g>
</g>
<!-- Node4&#45;&gt;Node1 -->
<g id="edge3" class="edge">
<title>Node4&#45;&gt;Node1</title>
<path fill="none" stroke="#9a32cd" stroke-dasharray="5,2" d="M162.9,-58.16C156.15,-45.63 147.41,-29.41 142.15,-19.63"/>
<polygon fill="#9a32cd" stroke="#9a32cd" points="159.96,-60.09 167.78,-67.23 166.12,-56.77 159.96,-60.09"/>
<text text-anchor="middle" x="178" y="-41" font-family="'Consolas',monospace" font-size="10.00"> loader</text>
</g>
</g>
</svg>
