<?xml version="1.0" encoding="UTF-8" standalone="no"?>
<!DOCTYPE svg PUBLIC "-//W3C//DTD SVG 1.1//EN"
 "http://www.w3.org/Graphics/SVG/1.1/DTD/svg11.dtd">
<!-- Generated by graphviz version 12.1.0 (20240811.2233)
 -->
<!-- Title: Label Pages: 1 -->
<svg width="88pt" height="150pt"
 viewBox="0.00 0.00 88.00 150.00" xmlns="http://www.w3.org/2000/svg" xmlns:xlink="http://www.w3.org/1999/xlink">
<g id="graph0" class="graph" transform="scale(1 1) rotate(0) translate(4 146)">
<title>Label</title>
<!-- Node1 -->
<g id="Node000001" class="node">
<title>Node1</title>
<g id="a_Node000001"><a xlink:title="Simple Widget displaying a line of text.">
<polygon fill="#999999" stroke="#666666" points="49,-19.25 3,-19.25 3,0 49,0 49,-19.25"/>
<text text-anchor="middle" x="26" y="-5.75" font-family="ui-monospace,monospace" font-size="10.00">Label</text>
</a>
</g>
</g>
<!-- Node2 -->
<g id="Node000002" class="node">
<title>Node2</title>
<g id="a_Node000002"><a xlink:href="classjngl_1_1Widget.html" target="_top" xlink:title=" ">
<polygon fill="white" stroke="#bfbfbf" points="52,-75.5 0,-75.5 0,-56.25 52,-56.25 52,-75.5"/>
<text text-anchor="middle" x="26" y="-62" font-family="ui-monospace,monospace" font-size="10.00">Widget</text>
</a>
</g>
</g>
<!-- Node2&#45;&gt;Node1 -->
<g id="edge1_Node000001_Node000002" class="edge">
<title>Node2&#45;&gt;Node1</title>
<g id="a_edge1_Node000001_Node000002"><a xlink:title=" ">
<path fill="none" stroke="#63b8ff" d="M26,-44.69C26,-35.98 26,-26.24 26,-19.42"/>
<polygon fill="#63b8ff" stroke="#63b8ff" points="22.5,-44.4 26,-54.4 29.5,-44.4 22.5,-44.4"/>
</a>
</g>
</g>
<!-- Node3 -->
<g id="Node000003" class="node">
<title>Node3</title>
<g id="a_Node000003"><a xlink:href="classjngl_1_1Vec2.html" target="_top" xlink:title="Two&#45;dimensional vector.">
<polygon fill="white" stroke="#666666" points="46,-142 6,-142 6,-122.75 46,-122.75 46,-142"/>
<text text-anchor="middle" x="26" y="-128.5" font-family="ui-monospace,monospace" font-size="10.00">Vec2</text>
</a>
</g>
</g>
<!-- Node3&#45;&gt;Node2 -->
<g id="edge2_Node000002_Node000003" class="edge">
<title>Node3&#45;&gt;Node2</title>
<g id="a_edge2_Node000002_Node000003"><a xlink:title=" ">
<path fill="none" stroke="#9a32cd" stroke-dasharray="5,2" d="M26,-110.9C26,-99.07 26,-84.79 26,-75.77"/>
<polygon fill="#9a32cd" stroke="#9a32cd" points="22.5,-110.89 26,-120.89 29.5,-110.89 22.5,-110.89"/>
</a>
</g>
<text text-anchor="middle" x="53" y="-95.25" font-family="ui-monospace,monospace" font-size="10.00" fill="grey"> position</text>
</g>
</g>
</svg>
