<?xml version="1.0" encoding="UTF-8" standalone="no"?>
<!DOCTYPE svg PUBLIC "-//W3C//DTD SVG 1.1//EN"
 "http://www.w3.org/Graphics/SVG/1.1/DTD/svg11.dtd">
<!-- Generated by graphviz version 2.40.1 (0)
 -->
<!-- Title: Drawable Pages: 1 -->
<svg width="104pt" height="84pt"
 viewBox="0.00 0.00 103.50 84.00" xmlns="http://www.w3.org/2000/svg" xmlns:xlink="http://www.w3.org/1999/xlink">
<g id="graph0" class="graph" transform="scale(1 1) rotate(0) translate(4 80)">
<title>Drawable</title>
<polygon fill="#ffffff" stroke="transparent" points="-4,4 -4,-80 99.5,-80 99.5,4 -4,4"/>
<!-- Node0 -->
<g id="node1" class="node">
<title>Node0</title>
<polygon fill="#bfbfbf" stroke="#000000" points="20.5,-56.5 20.5,-75.5 77.5,-75.5 77.5,-56.5 20.5,-56.5"/>
<text text-anchor="middle" x="49" y="-63.5" font-family="Lato" font-size="10.00" fill="#000000">Drawable</text>
</g>
<!-- Node1 -->
<g id="node2" class="node">
<title>Node1</title>
<g id="a_node2"><a xlink:href="classjngl_1_1Sprite.html" target="_top" xlink:title="Sprite">
<polygon fill="#ffffff" stroke="#000000" points="0,-.5 0,-19.5 42,-19.5 42,-.5 0,-.5"/>
<text text-anchor="middle" x="21" y="-7.5" font-family="Lato" font-size="10.00" fill="#000000">Sprite</text>
</a>
</g>
</g>
<!-- Node0&#45;&gt;Node1 -->
<g id="edge1" class="edge">
<title>Node0&#45;&gt;Node1</title>
<path fill="none" stroke="#191970" d="M39.5219,-47.0437C34.9165,-37.8331 29.5799,-27.1598 25.8213,-19.6427"/>
<polygon fill="#191970" stroke="#191970" points="36.5201,-48.8665 44.1228,-56.2455 42.7811,-45.736 36.5201,-48.8665"/>
</g>
<!-- Node2 -->
<g id="node3" class="node">
<title>Node2</title>
<g id="a_node3"><a xlink:href="classjngl_1_1Text.html" target="_top" xlink:title="Text">
<polygon fill="#ffffff" stroke="#000000" points="60.5,-.5 60.5,-19.5 95.5,-19.5 95.5,-.5 60.5,-.5"/>
<text text-anchor="middle" x="78" y="-7.5" font-family="Lato" font-size="10.00" fill="#000000">Text</text>
</a>
</g>
</g>
<!-- Node0&#45;&gt;Node2 -->
<g id="edge2" class="edge">
<title>Node0&#45;&gt;Node2</title>
<path fill="none" stroke="#191970" d="M58.6647,-47.3372C63.4687,-38.0605 69.0723,-27.2398 73.0065,-19.6427"/>
<polygon fill="#191970" stroke="#191970" points="55.542,-45.7561 54.0514,-56.2455 61.758,-48.9751 55.542,-45.7561"/>
</g>
</g>
</svg>
