<?xml version="1.0" encoding="UTF-8" standalone="no"?>
<!DOCTYPE svg PUBLIC "-//W3C//DTD SVG 1.1//EN"
 "http://www.w3.org/Graphics/SVG/1.1/DTD/svg11.dtd">
<!-- Generated by graphviz version 5.0.0 (0)
 -->
<!-- Title: Effect Pages: 1 -->
<svg width="191pt" height="82pt"
 viewBox="0.00 0.00 191.00 82.00" xmlns="http://www.w3.org/2000/svg" xmlns:xlink="http://www.w3.org/1999/xlink">
<g id="graph0" class="graph" transform="scale(1 1) rotate(0) translate(4 78)">
<title>Effect</title>
<!-- Node1 -->
<g id="node1" class="node">
<title>Node1</title>
<g id="a_node1"><a xlink:title="Base class for effects that can be applied to jngl::Widget.">
<polygon fill="#999999" stroke="#666666" points="127,-74 80,-74 80,-55 127,-55 127,-74"/>
<text text-anchor="middle" x="103.5" y="-62" font-family="ui-monospace,monospace" font-size="10.00">Effect</text>
</a>
</g>
</g>
<!-- Node2 -->
<g id="node2" class="node">
<title>Node2</title>
<g id="a_node2"><a xlink:href="classjngl_1_1Executor.html" target="_top" xlink:title="Executes a specific action, e.g. removes the Widget.">
<polygon fill="white" stroke="#666666" points="65,-19 0,-19 0,0 65,0 65,-19"/>
<text text-anchor="middle" x="32.5" y="-7" font-family="ui-monospace,monospace" font-size="10.00">Executor</text>
</a>
</g>
</g>
<!-- Node1&#45;&gt;Node2 -->
<g id="edge1" class="edge">
<title>Node1&#45;&gt;Node2</title>
<path fill="none" stroke="#63b8ff" d="M83.91,-48.88C71.13,-39.34 54.89,-27.21 44.11,-19.17"/>
<polygon fill="#63b8ff" stroke="#63b8ff" points="81.99,-51.81 92.09,-54.98 86.17,-46.2 81.99,-51.81"/>
</g>
<!-- Node3 -->
<g id="node3" class="node">
<title>Node3</title>
<g id="a_node3"><a xlink:href="classjngl_1_1Move.html" target="_top" xlink:title=" ">
<polygon fill="white" stroke="#bfbfbf" points="124,-19 83,-19 83,0 124,0 124,-19"/>
<text text-anchor="middle" x="103.5" y="-7" font-family="ui-monospace,monospace" font-size="10.00">Move</text>
</a>
</g>
</g>
<!-- Node1&#45;&gt;Node3 -->
<g id="edge2" class="edge">
<title>Node1&#45;&gt;Node3</title>
<path fill="none" stroke="#63b8ff" d="M103.5,-44.66C103.5,-35.93 103.5,-25.99 103.5,-19.09"/>
<polygon fill="#63b8ff" stroke="#63b8ff" points="100,-44.75 103.5,-54.75 107,-44.75 100,-44.75"/>
</g>
<!-- Node4 -->
<g id="node4" class="node">
<title>Node4</title>
<g id="a_node4"><a xlink:href="classjngl_1_1Zoom.html" target="_top" xlink:title="Scales the ModelView matrix.">
<polygon fill="white" stroke="#666666" points="183,-19 142,-19 142,0 183,0 183,-19"/>
<text text-anchor="middle" x="162.5" y="-7" font-family="ui-monospace,monospace" font-size="10.00">Zoom</text>
</a>
</g>
</g>
<!-- Node1&#45;&gt;Node4 -->
<g id="edge3" class="edge">
<title>Node1&#45;&gt;Node4</title>
<path fill="none" stroke="#63b8ff" d="M120.7,-48.04C131.17,-38.64 144.15,-26.98 152.85,-19.17"/>
<polygon fill="#63b8ff" stroke="#63b8ff" points="118.08,-45.7 112.98,-54.98 122.76,-50.91 118.08,-45.7"/>
</g>
</g>
</svg>
