<?xml version="1.0" encoding="UTF-8" standalone="no"?>
<!DOCTYPE svg PUBLIC "-//W3C//DTD SVG 1.1//EN"
 "http://www.w3.org/Graphics/SVG/1.1/DTD/svg11.dtd">
<!-- Generated by graphviz version 2.40.1 (20161225.0304)
 -->
<!-- Title: Sprite Pages: 1 -->
<svg width="270pt" height="95pt"
 viewBox="0.00 0.00 270.00 95.00" xmlns="http://www.w3.org/2000/svg" xmlns:xlink="http://www.w3.org/1999/xlink">
<g id="graph0" class="graph" transform="scale(1 1) rotate(0) translate(4 91)">
<title>Sprite</title>
<polygon fill="#ffffff" stroke="transparent" points="-4,4 -4,-91 266,-91 266,4 -4,4"/>
<!-- Node2 -->
<g id="node1" class="node">
<title>Node2</title>
<polygon fill="#bfbfbf" stroke="#000000" points="76,-.5 76,-19.5 129,-19.5 129,-.5 76,-.5"/>
<text text-anchor="middle" x="102.5" y="-7.5" font-family="'Consolas',monospace" font-size="10.00" fill="#000000">Sprite</text>
</g>
<!-- Node3 -->
<g id="node2" class="node">
<title>Node3</title>
<g id="a_node2"><a xlink:href="classjngl_1_1Drawable.html" target="_top" xlink:title="Base class for drawable objects with a position and a rectangle size. ">
<polygon fill="#ffffff" stroke="#000000" points="0,-67.5 0,-86.5 65,-86.5 65,-67.5 0,-67.5"/>
<text text-anchor="middle" x="32.5" y="-74.5" font-family="'Consolas',monospace" font-size="10.00" fill="#000000">Drawable</text>
</a>
</g>
</g>
<!-- Node3&#45;&gt;Node2 -->
<g id="edge1" class="edge">
<title>Node3&#45;&gt;Node2</title>
<path fill="none" stroke="#191970" d="M49.8014,-60.44C63.2291,-47.5879 81.3733,-30.2212 92.4893,-19.5817"/>
<polygon fill="#191970" stroke="#191970" points="47.3334,-57.9575 42.5293,-67.4005 52.1736,-63.0144 47.3334,-57.9575"/>
</g>
<!-- Node4 -->
<g id="node3" class="node">
<title>Node4</title>
<g id="a_node3"><a doxygen="/home/travis/build/jhasse/jngl/doc/cppreference-doxygen-web.tag.xml:http://en.cppreference.com/w/" xlink:href="http://en.cppreference.com/w/cpp/memory/shared_ptr.html" target="_top" xlink:title="shared_ptr\&lt; jngl::Finally \&gt;">
<polygon fill="#ffffff" stroke="#000000" points="83,-67.5 83,-86.5 262,-86.5 262,-67.5 83,-67.5"/>
<text text-anchor="middle" x="172.5" y="-74.5" font-family="'Consolas',monospace" font-size="10.00" fill="#000000">shared_ptr&lt; jngl::Finally &gt;</text>
</a>
</g>
</g>
<!-- Node4&#45;&gt;Node2 -->
<g id="edge2" class="edge">
<title>Node4&#45;&gt;Node2</title>
<path fill="none" stroke="#9a32cd" stroke-dasharray="5,2" d="M155.1986,-60.44C141.7709,-47.5879 123.6267,-30.2212 112.5107,-19.5817"/>
<polygon fill="#9a32cd" stroke="#9a32cd" points="152.8264,-63.0144 162.4707,-67.4005 157.6666,-57.9575 152.8264,-63.0144"/>
<text text-anchor="middle" x="163" y="-41" font-family="'Consolas',monospace" font-size="10.00" fill="#000000"> loader</text>
</g>
</g>
</svg>
