<?xml version="1.0" encoding="UTF-8" standalone="no"?>
<!DOCTYPE svg PUBLIC "-//W3C//DTD SVG 1.1//EN"
 "http://www.w3.org/Graphics/SVG/1.1/DTD/svg11.dtd">
<!-- Generated by graphviz version 2.38.0 (20140413.2041)
 -->
<!-- Title: Drawable Pages: 1 -->
<svg width="106pt" height="84pt"
 viewBox="0.00 0.00 106.00 84.00" xmlns="http://www.w3.org/2000/svg" xmlns:xlink="http://www.w3.org/1999/xlink">
<g id="graph0" class="graph" transform="scale(1 1) rotate(0) translate(4 80)">
<title>Drawable</title>
<polygon fill="white" stroke="none" points="-4,4 -4,-80 102,-80 102,4 -4,4"/>
<!-- Node1 -->
<g id="node1" class="node"><title>Node1</title>
<polygon fill="#bfbfbf" stroke="black" points="21,-56.5 21,-75.5 82,-75.5 82,-56.5 21,-56.5"/>
<text text-anchor="middle" x="51.5" y="-63.5" font-family="Lato" font-size="10.00">Drawable</text>
</g>
<!-- Node2 -->
<g id="node2" class="node"><title>Node2</title>
<g id="a_node2"><a xlink:href="classjngl_1_1Sprite.html" target="_top" xlink:title="Sprite">
<polygon fill="white" stroke="black" points="0,-0.5 0,-19.5 45,-19.5 45,-0.5 0,-0.5"/>
<text text-anchor="middle" x="22.5" y="-7.5" font-family="Lato" font-size="10.00">Sprite</text>
</a>
</g>
</g>
<!-- Node1&#45;&gt;Node2 -->
<g id="edge1" class="edge"><title>Node1&#45;&gt;Node2</title>
<path fill="none" stroke="midnightblue" d="M41.8241,-46.9827C36.9016,-37.8168 31.1421,-27.0922 27.1997,-19.7511"/>
<polygon fill="midnightblue" stroke="midnightblue" points="38.8964,-48.929 46.7112,-56.083 45.0634,-45.6171 38.8964,-48.929"/>
</g>
<!-- Node3 -->
<g id="node3" class="node"><title>Node3</title>
<g id="a_node3"><a xlink:href="classjngl_1_1Text.html" target="_top" xlink:title="Text">
<polygon fill="white" stroke="black" points="63,-0.5 63,-19.5 98,-19.5 98,-0.5 63,-0.5"/>
<text text-anchor="middle" x="80.5" y="-7.5" font-family="Lato" font-size="10.00">Text</text>
</a>
</g>
</g>
<!-- Node1&#45;&gt;Node3 -->
<g id="edge2" class="edge"><title>Node1&#45;&gt;Node3</title>
<path fill="none" stroke="midnightblue" d="M61.1759,-46.9827C66.0984,-37.8168 71.8579,-27.0922 75.8003,-19.7511"/>
<polygon fill="midnightblue" stroke="midnightblue" points="57.9366,-45.6171 56.2888,-56.083 64.1036,-48.929 57.9366,-45.6171"/>
</g>
</g>
</svg>
