<?xml version="1.0" encoding="UTF-8" standalone="no"?>
<!DOCTYPE svg PUBLIC "-//W3C//DTD SVG 1.1//EN"
 "http://www.w3.org/Graphics/SVG/1.1/DTD/svg11.dtd">
<!-- Generated by graphviz version 2.38.0 (20140413.2041)
 -->
<!-- Title: Drawable Pages: 1 -->
<svg width="120pt" height="84pt"
 viewBox="0.00 0.00 120.00 84.00" xmlns="http://www.w3.org/2000/svg" xmlns:xlink="http://www.w3.org/1999/xlink">
<g id="graph0" class="graph" transform="scale(1 1) rotate(0) translate(4 80)">
<title>Drawable</title>
<polygon fill="white" stroke="none" points="-4,4 -4,-80 116,-80 116,4 -4,4"/>
<!-- Node1 -->
<g id="node1" class="node"><title>Node1</title>
<polygon fill="#bfbfbf" stroke="black" points="26,-56.5 26,-75.5 91,-75.5 91,-56.5 26,-56.5"/>
<text text-anchor="middle" x="58.5" y="-63.5" font-family="'Consolas',monospace" font-size="10.00">Drawable</text>
</g>
<!-- Node2 -->
<g id="node2" class="node"><title>Node2</title>
<g id="a_node2"><a xlink:href="classjngl_1_1Sprite.html" target="_top" xlink:title="Higher&#45;level representation of an image. ">
<polygon fill="white" stroke="black" points="0,-0.5 0,-19.5 53,-19.5 53,-0.5 0,-0.5"/>
<text text-anchor="middle" x="26.5" y="-7.5" font-family="'Consolas',monospace" font-size="10.00">Sprite</text>
</a>
</g>
</g>
<!-- Node1&#45;&gt;Node2 -->
<g id="edge1" class="edge"><title>Node1&#45;&gt;Node2</title>
<path fill="none" stroke="midnightblue" d="M47.9961,-47.2747C42.5269,-38.0454 36.0824,-27.1703 31.6858,-19.7511"/>
<polygon fill="midnightblue" stroke="midnightblue" points="45.1068,-49.2644 53.2159,-56.083 51.1288,-45.6957 45.1068,-49.2644"/>
</g>
<!-- Node3 -->
<g id="node3" class="node"><title>Node3</title>
<g id="a_node3"><a xlink:href="classjngl_1_1Text.html" target="_top" xlink:title="Rectangle shaped text block. ">
<polygon fill="white" stroke="black" points="71,-0.5 71,-19.5 112,-19.5 112,-0.5 71,-0.5"/>
<text text-anchor="middle" x="91.5" y="-7.5" font-family="'Consolas',monospace" font-size="10.00">Text</text>
</a>
</g>
</g>
<!-- Node1&#45;&gt;Node3 -->
<g id="edge2" class="edge"><title>Node1&#45;&gt;Node3</title>
<path fill="none" stroke="midnightblue" d="M69.3321,-47.2747C74.9722,-38.0454 81.6181,-27.1703 86.1521,-19.7511"/>
<polygon fill="midnightblue" stroke="midnightblue" points="66.1773,-45.7251 63.9493,-56.083 72.1503,-49.3753 66.1773,-45.7251"/>
</g>
</g>
</svg>
