<?xml version="1.0" encoding="UTF-8" standalone="no"?>
<!DOCTYPE svg PUBLIC "-//W3C//DTD SVG 1.1//EN"
 "http://www.w3.org/Graphics/SVG/1.1/DTD/svg11.dtd">
<!-- Generated by graphviz version 5.0.0 (0)
 -->
<!-- Title: WorkFactory Pages: 1 -->
<svg width="91pt" height="137pt"
 viewBox="0.00 0.00 91.00 137.00" xmlns="http://www.w3.org/2000/svg" xmlns:xlink="http://www.w3.org/1999/xlink">
<g id="graph0" class="graph" transform="scale(1 1) rotate(0) translate(4 133)">
<title>WorkFactory</title>
<!-- Node1 -->
<g id="node1" class="node">
<title>Node1</title>
<g id="a_node1"><a xlink:title=" ">
<polygon fill="#999999" stroke="#666666" points="83,-19 0,-19 0,0 83,0 83,-19"/>
<text text-anchor="middle" x="41.5" y="-7" font-family="ui-monospace,monospace" font-size="10.00">WorkFactory</text>
</a>
</g>
</g>
<!-- Node2 -->
<g id="node2" class="node">
<title>Node2</title>
<g id="a_node2"><a xlink:href="classjngl_1_1Work.html" target="_top" xlink:title="Active state of the game, e.g. a menu or the game itself.">
<polygon fill="white" stroke="#666666" points="62,-74 21,-74 21,-55 62,-55 62,-74"/>
<text text-anchor="middle" x="41.5" y="-62" font-family="ui-monospace,monospace" font-size="10.00">Work</text>
</a>
</g>
</g>
<!-- Node2&#45;&gt;Node1 -->
<g id="edge1" class="edge">
<title>Node2&#45;&gt;Node1</title>
<path fill="none" stroke="#63b8ff" d="M41.5,-44.66C41.5,-35.93 41.5,-25.99 41.5,-19.09"/>
<polygon fill="#63b8ff" stroke="#63b8ff" points="38,-44.75 41.5,-54.75 45,-44.75 38,-44.75"/>
</g>
<!-- Node3 -->
<g id="node3" class="node">
<title>Node3</title>
<g id="a_node3"><a xlink:href="classjngl_1_1Job.html" target="_top" xlink:title="Background job which stays part of the main loop independent of the active jngl::Work.">
<polygon fill="white" stroke="#666666" points="59,-129 24,-129 24,-110 59,-110 59,-129"/>
<text text-anchor="middle" x="41.5" y="-117" font-family="ui-monospace,monospace" font-size="10.00">Job</text>
</a>
</g>
</g>
<!-- Node3&#45;&gt;Node2 -->
<g id="edge2" class="edge">
<title>Node3&#45;&gt;Node2</title>
<path fill="none" stroke="#63b8ff" d="M41.5,-99.66C41.5,-90.93 41.5,-80.99 41.5,-74.09"/>
<polygon fill="#63b8ff" stroke="#63b8ff" points="38,-99.75 41.5,-109.75 45,-99.75 38,-99.75"/>
</g>
</g>
</svg>
