<?xml version="1.0" encoding="UTF-8" standalone="no"?>
<!DOCTYPE svg PUBLIC "-//W3C//DTD SVG 1.1//EN"
 "http://www.w3.org/Graphics/SVG/1.1/DTD/svg11.dtd">
<!-- Generated by graphviz version 12.1.0 (20240811.2233)
 -->
<!-- Title: Drawable Pages: 1 -->
<svg width="118pt" height="83pt"
 viewBox="0.00 0.00 118.00 82.50" xmlns="http://www.w3.org/2000/svg" xmlns:xlink="http://www.w3.org/1999/xlink">
<g id="graph0" class="graph" transform="scale(1 1) rotate(0) translate(4 78.5)">
<title>Drawable</title>
<!-- Node1 -->
<g id="Node000001" class="node">
<title>Node1</title>
<g id="a_Node000001"><a xlink:title="Base class for drawable objects with a position and a rectangle size.">
<polygon fill="#999999" stroke="#666666" points="90,-74.5 26,-74.5 26,-55.25 90,-55.25 90,-74.5"/>
<text text-anchor="middle" x="58" y="-61" font-family="ui-monospace,monospace" font-size="10.00">Drawable</text>
</a>
</g>
</g>
<!-- Node2 -->
<g id="Node000002" class="node">
<title>Node2</title>
<g id="a_Node000002"><a xlink:href="classjngl_1_1Sprite.html" target="_top" xlink:title="Higher&#45;level representation of an image.">
<polygon fill="white" stroke="#666666" points="52,-19.25 0,-19.25 0,0 52,0 52,-19.25"/>
<text text-anchor="middle" x="26" y="-5.75" font-family="ui-monospace,monospace" font-size="10.00">Sprite</text>
</a>
</g>
</g>
<!-- Node1&#45;&gt;Node2 -->
<g id="edge1_Node000001_Node000002" class="edge">
<title>Node1&#45;&gt;Node2</title>
<g id="a_edge1_Node000001_Node000002"><a xlink:title=" ">
<path fill="none" stroke="#63b8ff" d="M46.88,-45.37C41.64,-36.64 35.62,-26.64 31.4,-19.61"/>
<polygon fill="#63b8ff" stroke="#63b8ff" points="43.79,-47.02 51.94,-53.78 49.79,-43.41 43.79,-47.02"/>
</a>
</g>
</g>
<!-- Node3 -->
<g id="Node000003" class="node">
<title>Node3</title>
<g id="a_Node000003"><a xlink:href="classjngl_1_1Text.html" target="_top" xlink:title="Rectangle shaped text block.">
<polygon fill="white" stroke="#666666" points="110,-19.25 70,-19.25 70,0 110,0 110,-19.25"/>
<text text-anchor="middle" x="90" y="-5.75" font-family="ui-monospace,monospace" font-size="10.00">Text</text>
</a>
</g>
</g>
<!-- Node1&#45;&gt;Node3 -->
<g id="edge2_Node000001_Node000003" class="edge">
<title>Node1&#45;&gt;Node3</title>
<g id="a_edge2_Node000001_Node000003"><a xlink:title=" ">
<path fill="none" stroke="#63b8ff" d="M69.12,-45.37C74.36,-36.64 80.38,-26.64 84.6,-19.61"/>
<polygon fill="#63b8ff" stroke="#63b8ff" points="66.21,-43.41 64.06,-53.78 72.21,-47.02 66.21,-43.41"/>
</a>
</g>
</g>
</g>
</svg>
