<?xml version="1.0" encoding="UTF-8" standalone="no"?>
<!DOCTYPE svg PUBLIC "-//W3C//DTD SVG 1.1//EN"
 "http://www.w3.org/Graphics/SVG/1.1/DTD/svg11.dtd">
<!-- Generated by graphviz version 2.36.0 (20140111.2315)
 -->
<!-- Title: Drawable Pages: 1 -->
<svg width="105pt" height="84pt"
 viewBox="0.00 0.00 105.00 84.00" xmlns="http://www.w3.org/2000/svg" xmlns:xlink="http://www.w3.org/1999/xlink">
<g id="graph0" class="graph" transform="scale(1 1) rotate(0) translate(4 80)">
<title>Drawable</title>
<polygon fill="white" stroke="none" points="-4,4 -4,-80 101,-80 101,4 -4,4"/>
<!-- Node1 -->
<g id="node1" class="node"><title>Node1</title>
<polygon fill="#bfbfbf" stroke="black" points="20.5,-56.5 20.5,-75.5 81.5,-75.5 81.5,-56.5 20.5,-56.5"/>
<text text-anchor="middle" x="51" y="-63.5" font-family="Lato" font-size="10.00">Drawable</text>
</g>
<!-- Node2 -->
<g id="node2" class="node"><title>Node2</title>
<g id="a_node2"><a xlink:href="classjngl_1_1Sprite.html" target="_top" xlink:title="Sprite">
<polygon fill="white" stroke="black" points="-0.5,-0.5 -0.5,-19.5 44.5,-19.5 44.5,-0.5 -0.5,-0.5"/>
<text text-anchor="middle" x="22" y="-7.5" font-family="Lato" font-size="10.00">Sprite</text>
</a>
</g>
</g>
<!-- Node1&#45;&gt;Node2 -->
<g id="edge1" class="edge"><title>Node1&#45;&gt;Node2</title>
<path fill="none" stroke="midnightblue" d="M41.3241,-46.9827C36.4016,-37.8168 30.6421,-27.0922 26.6997,-19.7511"/>
<polygon fill="midnightblue" stroke="midnightblue" points="38.3964,-48.929 46.2112,-56.083 44.5634,-45.6171 38.3964,-48.929"/>
</g>
<!-- Node3 -->
<g id="node3" class="node"><title>Node3</title>
<g id="a_node3"><a xlink:href="classjngl_1_1Text.html" target="_top" xlink:title="Text">
<polygon fill="white" stroke="black" points="62.5,-0.5 62.5,-19.5 97.5,-19.5 97.5,-0.5 62.5,-0.5"/>
<text text-anchor="middle" x="80" y="-7.5" font-family="Lato" font-size="10.00">Text</text>
</a>
</g>
</g>
<!-- Node1&#45;&gt;Node3 -->
<g id="edge2" class="edge"><title>Node1&#45;&gt;Node3</title>
<path fill="none" stroke="midnightblue" d="M60.6759,-46.9827C65.5984,-37.8168 71.3579,-27.0922 75.3003,-19.7511"/>
<polygon fill="midnightblue" stroke="midnightblue" points="57.4366,-45.6171 55.7888,-56.083 63.6036,-48.929 57.4366,-45.6171"/>
</g>
</g>
</svg>
