<?xml version="1.0" encoding="UTF-8" standalone="no"?>
<!DOCTYPE svg PUBLIC "-//W3C//DTD SVG 1.1//EN"
 "http://www.w3.org/Graphics/SVG/1.1/DTD/svg11.dtd">
<!-- Generated by graphviz version 9.0.0 (20230911.1827)
 -->
<!-- Title: Effect Pages: 1 -->
<svg width="188pt" height="83pt"
 viewBox="0.00 0.00 188.00 82.50" xmlns="http://www.w3.org/2000/svg" xmlns:xlink="http://www.w3.org/1999/xlink">
<g id="graph0" class="graph" transform="scale(1 1) rotate(0) translate(4 78.5)">
<title>Effect</title>
<!-- Node1 -->
<g id="Node000001" class="node">
<title>Node1</title>
<g id="a_Node000001"><a xlink:title="Base class for effects that can be applied to jngl::Widget.">
<polygon fill="#999999" stroke="#666666" points="125,-74.5 79,-74.5 79,-55.25 125,-55.25 125,-74.5"/>
<text text-anchor="middle" x="102" y="-61" font-family="ui-monospace,monospace" font-size="10.00">Effect</text>
</a>
</g>
</g>
<!-- Node2 -->
<g id="Node000002" class="node">
<title>Node2</title>
<g id="a_Node000002"><a xlink:href="classjngl_1_1Executor.html" target="_top" xlink:title="Executes a specific action, e.g. removes the Widget.">
<polygon fill="white" stroke="#666666" points="64,-19.25 0,-19.25 0,0 64,0 64,-19.25"/>
<text text-anchor="middle" x="32" y="-5.75" font-family="ui-monospace,monospace" font-size="10.00">Executor</text>
</a>
</g>
</g>
<!-- Node1&#45;&gt;Node2 -->
<g id="edge1_Node000001_Node000002" class="edge">
<title>Node1&#45;&gt;Node2</title>
<g id="a_edge1_Node000001_Node000002"><a xlink:title=" ">
<path fill="none" stroke="#63b8ff" d="M81.05,-47.94C68.83,-38.64 53.86,-27.26 43.7,-19.52"/>
<polygon fill="#63b8ff" stroke="#63b8ff" points="78.84,-50.66 88.92,-53.93 83.08,-45.09 78.84,-50.66"/>
</a>
</g>
</g>
<!-- Node3 -->
<g id="Node000003" class="node">
<title>Node3</title>
<g id="a_Node000003"><a xlink:href="classjngl_1_1Move.html" target="_top" xlink:title=" ">
<polygon fill="white" stroke="#bfbfbf" points="122,-19.25 82,-19.25 82,0 122,0 122,-19.25"/>
<text text-anchor="middle" x="102" y="-5.75" font-family="ui-monospace,monospace" font-size="10.00">Move</text>
</a>
</g>
</g>
<!-- Node1&#45;&gt;Node3 -->
<g id="edge2_Node000001_Node000003" class="edge">
<title>Node1&#45;&gt;Node3</title>
<g id="a_edge2_Node000001_Node000003"><a xlink:title=" ">
<path fill="none" stroke="#63b8ff" d="M102,-43.63C102,-35.34 102,-26.17 102,-19.61"/>
<polygon fill="#63b8ff" stroke="#63b8ff" points="98.5,-43.57 102,-53.57 105.5,-43.57 98.5,-43.57"/>
</a>
</g>
</g>
<!-- Node4 -->
<g id="Node000004" class="node">
<title>Node4</title>
<g id="a_Node000004"><a xlink:href="classjngl_1_1Zoom.html" target="_top" xlink:title="Scales the ModelView matrix.">
<polygon fill="white" stroke="#666666" points="180,-19.25 140,-19.25 140,0 180,0 180,-19.25"/>
<text text-anchor="middle" x="160" y="-5.75" font-family="ui-monospace,monospace" font-size="10.00">Zoom</text>
</a>
</g>
</g>
<!-- Node1&#45;&gt;Node4 -->
<g id="edge3_Node000001_Node000004" class="edge">
<title>Node1&#45;&gt;Node4</title>
<g id="a_edge3_Node000001_Node000004"><a xlink:title=" ">
<path fill="none" stroke="#63b8ff" d="M120.26,-47.11C130.22,-37.97 142.14,-27.03 150.31,-19.52"/>
<polygon fill="#63b8ff" stroke="#63b8ff" points="117.95,-44.48 112.95,-53.82 122.69,-49.63 117.95,-44.48"/>
</a>
</g>
</g>
</g>
</svg>
