<?xml version="1.0" encoding="UTF-8" standalone="no"?>
<!DOCTYPE svg PUBLIC "-//W3C//DTD SVG 1.1//EN"
 "http://www.w3.org/Graphics/SVG/1.1/DTD/svg11.dtd">
<!-- Generated by graphviz version 2.44.0 (0)
 -->
<!-- Title: Text Pages: 1 -->
<svg width="96pt" height="152pt"
 viewBox="0.00 0.00 95.50 152.00" xmlns="http://www.w3.org/2000/svg" xmlns:xlink="http://www.w3.org/1999/xlink">
<g id="graph0" class="graph" transform="scale(1 1) rotate(0) translate(4 148)">
<title>Text</title>
<polygon fill="white" stroke="transparent" points="-4,4 -4,-148 91.5,-148 91.5,4 -4,4"/>
<!-- Node1 -->
<g id="node1" class="node">
<title>Node1</title>
<g id="a_node1"><a xlink:title="Rectangle shaped text block.">
<polygon fill="#bfbfbf" stroke="black" points="12,-0.5 12,-19.5 53,-19.5 53,-0.5 12,-0.5"/>
<text text-anchor="middle" x="32.5" y="-7.5" font-family="'Consolas',monospace" font-size="10.00">Text</text>
</a>
</g>
</g>
<!-- Node2 -->
<g id="node2" class="node">
<title>Node2</title>
<g id="a_node2"><a xlink:href="classjngl_1_1Drawable.html" target="_top" xlink:title="Base class for drawable objects with a position and a rectangle size.">
<polygon fill="white" stroke="black" points="0,-57.5 0,-76.5 65,-76.5 65,-57.5 0,-57.5"/>
<text text-anchor="middle" x="32.5" y="-64.5" font-family="'Consolas',monospace" font-size="10.00">Drawable</text>
</a>
</g>
</g>
<!-- Node2&#45;&gt;Node1 -->
<g id="edge1" class="edge">
<title>Node2&#45;&gt;Node1</title>
<path fill="none" stroke="midnightblue" d="M32.5,-47.12C32.5,-37.82 32.5,-27.06 32.5,-19.71"/>
<polygon fill="midnightblue" stroke="midnightblue" points="29,-47.41 32.5,-57.41 36,-47.41 29,-47.41"/>
</g>
<!-- Node3 -->
<g id="node3" class="node">
<title>Node3</title>
<g id="a_node3"><a xlink:href="classjngl_1_1Vec2.html" target="_top" xlink:title="Two&#45;dimensional vector.">
<polygon fill="white" stroke="black" points="12,-124.5 12,-143.5 53,-143.5 53,-124.5 12,-124.5"/>
<text text-anchor="middle" x="32.5" y="-131.5" font-family="'Consolas',monospace" font-size="10.00">Vec2</text>
</a>
</g>
</g>
<!-- Node3&#45;&gt;Node2 -->
<g id="edge2" class="edge">
<title>Node3&#45;&gt;Node2</title>
<path fill="none" stroke="#9a32cd" stroke-dasharray="5,2" d="M32.5,-114.04C32.5,-101.67 32.5,-86.12 32.5,-76.63"/>
<polygon fill="#9a32cd" stroke="#9a32cd" points="29,-114.23 32.5,-124.23 36,-114.23 29,-114.23"/>
<text text-anchor="middle" x="60" y="-98" font-family="'Consolas',monospace" font-size="10.00"> position</text>
</g>
</g>
</svg>
