<?xml version="1.0" encoding="UTF-8" standalone="no"?>
<!DOCTYPE svg PUBLIC "-//W3C//DTD SVG 1.1//EN"
 "http://www.w3.org/Graphics/SVG/1.1/DTD/svg11.dtd">
<!-- Generated by graphviz version 5.0.0 (0)
 -->
<!-- Title: jngl/Color.hpp Pages: 1 -->
<svg width="635pt" height="137pt"
 viewBox="0.00 0.00 634.59 137.00" xmlns="http://www.w3.org/2000/svg" xmlns:xlink="http://www.w3.org/1999/xlink">
<g id="graph0" class="graph" transform="scale(1 1) rotate(0) translate(4 133)">
<title>jngl/Color.hpp</title>
<!-- Node1 -->
<g id="node1" class="node">
<title>Node1</title>
<g id="a_node1"><a xlink:title="Contains jngl::Color class.">
<polygon fill="#999999" stroke="#666666" points="321.59,-129 220.59,-129 220.59,-110 321.59,-110 321.59,-129"/>
<text text-anchor="middle" x="271.09" y="-117" font-family="ui-monospace,monospace" font-size="10.00">jngl/Color.hpp</text>
</a>
</g>
</g>
<!-- Node2 -->
<g id="node2" class="node">
<title>Node2</title>
<g id="a_node2"><a xlink:href="jngl_8hpp.html" target="_top" xlink:title="Includes all JNGL headers except for init.hpp.">
<polygon fill="white" stroke="#666666" points="303.59,-19 238.59,-19 238.59,0 303.59,0 303.59,-19"/>
<text text-anchor="middle" x="271.09" y="-7" font-family="ui-monospace,monospace" font-size="10.00">jngl.hpp</text>
</a>
</g>
</g>
<!-- Node1&#45;&gt;Node2 -->
<g id="edge1" class="edge">
<title>Node1&#45;&gt;Node2</title>
<path fill="none" stroke="#63b8ff" d="M210.44,-117.16C139.97,-114.17 30.01,-104.59 4.09,-74 -1.36,-67.56 -1.36,-61.44 4.09,-55 33.79,-19.95 173.84,-12.48 238.38,-10.91"/>
<polygon fill="#63b8ff" stroke="#63b8ff" points="210.41,-120.66 220.54,-117.55 210.68,-113.67 210.41,-120.66"/>
</g>
<!-- Node3 -->
<g id="node3" class="node">
<title>Node3</title>
<g id="a_node3"><a xlink:href="FrameBuffer_8hpp.html" target="_top" xlink:title="Contains jngl::FrameBuffer class.">
<polygon fill="white" stroke="#666666" points="144.59,-74 13.59,-74 13.59,-55 144.59,-55 144.59,-74"/>
<text text-anchor="middle" x="79.09" y="-62" font-family="ui-monospace,monospace" font-size="10.00">jngl/FrameBuffer.hpp</text>
</a>
</g>
</g>
<!-- Node1&#45;&gt;Node3 -->
<g id="edge2" class="edge">
<title>Node1&#45;&gt;Node3</title>
<path fill="none" stroke="#63b8ff" d="M230.56,-107.31C194.63,-97.39 142.93,-83.12 110.18,-74.08"/>
<polygon fill="#63b8ff" stroke="#63b8ff" points="229.67,-110.7 240.25,-109.98 231.54,-103.95 229.67,-110.7"/>
</g>
<!-- Node4 -->
<g id="node4" class="node">
<title>Node4</title>
<g id="a_node4"><a xlink:href="Label_8hpp.html" target="_top" xlink:title="Contains jngl::Label class.">
<polygon fill="white" stroke="#666666" points="263.59,-74 162.59,-74 162.59,-55 263.59,-55 263.59,-74"/>
<text text-anchor="middle" x="213.09" y="-62" font-family="ui-monospace,monospace" font-size="10.00">jngl/Label.hpp</text>
</a>
</g>
</g>
<!-- Node1&#45;&gt;Node4 -->
<g id="edge4" class="edge">
<title>Node1&#45;&gt;Node4</title>
<path fill="none" stroke="#63b8ff" d="M254.18,-103.04C243.89,-93.64 231.13,-81.98 222.58,-74.17"/>
<polygon fill="#63b8ff" stroke="#63b8ff" points="252.03,-105.82 261.78,-109.98 256.75,-100.66 252.03,-105.82"/>
</g>
<!-- Node5 -->
<g id="node5" class="node">
<title>Node5</title>
<g id="a_node5"><a xlink:href="font_8hpp.html" target="_top" xlink:title="Contains jngl::Font class and related functions.">
<polygon fill="white" stroke="#666666" points="376.59,-74 281.59,-74 281.59,-55 376.59,-55 376.59,-74"/>
<text text-anchor="middle" x="329.09" y="-62" font-family="ui-monospace,monospace" font-size="10.00">jngl/font.hpp</text>
</a>
</g>
</g>
<!-- Node1&#45;&gt;Node5 -->
<g id="edge6" class="edge">
<title>Node1&#45;&gt;Node5</title>
<path fill="none" stroke="#63b8ff" d="M288.01,-103.04C298.3,-93.64 311.06,-81.98 319.61,-74.17"/>
<polygon fill="#63b8ff" stroke="#63b8ff" points="285.43,-100.66 280.41,-109.98 290.16,-105.82 285.43,-100.66"/>
</g>
<!-- Node6 -->
<g id="node6" class="node">
<title>Node6</title>
<g id="a_node6"><a xlink:href="shapes_8hpp.html" target="_top" xlink:title="Functions for drawing shapes.">
<polygon fill="white" stroke="#666666" points="501.59,-74 394.59,-74 394.59,-55 501.59,-55 501.59,-74"/>
<text text-anchor="middle" x="448.09" y="-62" font-family="ui-monospace,monospace" font-size="10.00">jngl/shapes.hpp</text>
</a>
</g>
</g>
<!-- Node1&#45;&gt;Node6 -->
<g id="edge8" class="edge">
<title>Node1&#45;&gt;Node6</title>
<path fill="none" stroke="#63b8ff" d="M309.31,-107.06C342.39,-97.15 389.5,-83.04 419.43,-74.08"/>
<polygon fill="#63b8ff" stroke="#63b8ff" points="308.11,-103.76 299.53,-109.98 310.12,-110.47 308.11,-103.76"/>
</g>
<!-- Node7 -->
<g id="node7" class="node">
<title>Node7</title>
<g id="a_node7"><a xlink:href="sprite_8hpp.html" target="_top" xlink:title="Contains jngl::Sprite class and related functions.">
<polygon fill="white" stroke="#666666" points="626.59,-74 519.59,-74 519.59,-55 626.59,-55 626.59,-74"/>
<text text-anchor="middle" x="573.09" y="-62" font-family="ui-monospace,monospace" font-size="10.00">jngl/sprite.hpp</text>
</a>
</g>
</g>
<!-- Node1&#45;&gt;Node7 -->
<g id="edge10" class="edge">
<title>Node1&#45;&gt;Node7</title>
<path fill="none" stroke="#63b8ff" d="M329.51,-108.25C386.22,-98.3 471.3,-83.36 524.44,-74.04"/>
<polygon fill="#63b8ff" stroke="#63b8ff" points="328.86,-104.81 319.62,-109.98 330.07,-111.7 328.86,-104.81"/>
</g>
<!-- Node3&#45;&gt;Node2 -->
<g id="edge3" class="edge">
<title>Node3&#45;&gt;Node2</title>
<path fill="none" stroke="#63b8ff" d="M119.63,-52.31C155.55,-42.39 207.26,-28.12 240,-19.08"/>
<polygon fill="#63b8ff" stroke="#63b8ff" points="118.65,-48.95 109.94,-54.98 120.51,-55.7 118.65,-48.95"/>
</g>
<!-- Node4&#45;&gt;Node2 -->
<g id="edge5" class="edge">
<title>Node4&#45;&gt;Node2</title>
<path fill="none" stroke="#63b8ff" d="M230.01,-48.04C240.3,-38.64 253.06,-26.98 261.61,-19.17"/>
<polygon fill="#63b8ff" stroke="#63b8ff" points="227.43,-45.66 222.41,-54.98 232.16,-50.82 227.43,-45.66"/>
</g>
<!-- Node5&#45;&gt;Node2 -->
<g id="edge7" class="edge">
<title>Node5&#45;&gt;Node2</title>
<path fill="none" stroke="#63b8ff" d="M312.18,-48.04C301.89,-38.64 289.13,-26.98 280.58,-19.17"/>
<polygon fill="#63b8ff" stroke="#63b8ff" points="310.03,-50.82 319.78,-54.98 314.75,-45.66 310.03,-50.82"/>
</g>
<!-- Node6&#45;&gt;Node2 -->
<g id="edge9" class="edge">
<title>Node6&#45;&gt;Node2</title>
<path fill="none" stroke="#63b8ff" d="M409.87,-52.06C376.79,-42.15 329.69,-28.04 299.75,-19.08"/>
<polygon fill="#63b8ff" stroke="#63b8ff" points="409.07,-55.47 419.66,-54.98 411.08,-48.76 409.07,-55.47"/>
</g>
<!-- Node7&#45;&gt;Node2 -->
<g id="edge11" class="edge">
<title>Node7&#45;&gt;Node2</title>
<path fill="none" stroke="#63b8ff" d="M514.41,-53.2C451.54,-42.17 354.04,-25.06 303.67,-16.22"/>
<polygon fill="#63b8ff" stroke="#63b8ff" points="514.12,-56.7 524.57,-54.98 515.33,-49.81 514.12,-56.7"/>
</g>
</g>
</svg>
