<?xml version="1.0" encoding="UTF-8" standalone="no"?>
<!DOCTYPE svg PUBLIC "-//W3C//DTD SVG 1.1//EN"
 "http://www.w3.org/Graphics/SVG/1.1/DTD/svg11.dtd">
<!-- Generated by graphviz version 5.0.0 (0)
 -->
<!-- Title: jngl/Color.hpp Pages: 1 -->
<svg width="660pt" height="192pt"
 viewBox="0.00 0.00 660.00 192.00" xmlns="http://www.w3.org/2000/svg" xmlns:xlink="http://www.w3.org/1999/xlink">
<g id="graph0" class="graph" transform="scale(1 1) rotate(0) translate(4 188)">
<title>jngl/Color.hpp</title>
<!-- Node1 -->
<g id="node1" class="node">
<title>Node1</title>
<g id="a_node1"><a xlink:title="Contains jngl::Color class.">
<polygon fill="#999999" stroke="#666666" points="321,-184 220,-184 220,-165 321,-165 321,-184"/>
<text text-anchor="middle" x="270.5" y="-172" font-family="ui-monospace,monospace" font-size="10.00">jngl/Color.hpp</text>
</a>
</g>
</g>
<!-- Node2 -->
<g id="node2" class="node">
<title>Node2</title>
<g id="a_node2"><a xlink:href="Label_8hpp.html" target="_top" xlink:title="Contains jngl::Label class.">
<polygon fill="white" stroke="#666666" points="101,-129 0,-129 0,-110 101,-110 101,-129"/>
<text text-anchor="middle" x="50.5" y="-117" font-family="ui-monospace,monospace" font-size="10.00">jngl/Label.hpp</text>
</a>
</g>
</g>
<!-- Node1&#45;&gt;Node2 -->
<g id="edge1" class="edge">
<title>Node1&#45;&gt;Node2</title>
<path fill="none" stroke="#63b8ff" d="M225.37,-162.63C184.16,-152.7 124.05,-138.22 86.12,-129.08"/>
<polygon fill="#63b8ff" stroke="#63b8ff" points="224.61,-166.05 235.15,-164.98 226.25,-159.24 224.61,-166.05"/>
</g>
<!-- Node3 -->
<g id="node3" class="node">
<title>Node3</title>
<g id="a_node3"><a xlink:href="all_8hpp.html" target="_top" xlink:title="Includes all JNGL headers except for init.hpp.">
<polygon fill="white" stroke="#666666" points="315,-74 226,-74 226,-55 315,-55 315,-74"/>
<text text-anchor="middle" x="270.5" y="-62" font-family="ui-monospace,monospace" font-size="10.00">jngl/all.hpp</text>
</a>
</g>
</g>
<!-- Node1&#45;&gt;Node3 -->
<g id="edge4" class="edge">
<title>Node1&#45;&gt;Node3</title>
<path fill="none" stroke="#63b8ff" d="M209.91,-166.24C186.77,-160.18 162.58,-149.12 148.5,-129 126.05,-96.91 182.43,-79.88 225.86,-71.78"/>
<polygon fill="#63b8ff" stroke="#63b8ff" points="209.2,-169.67 219.74,-168.54 210.8,-162.85 209.2,-169.67"/>
</g>
<!-- Node5 -->
<g id="node5" class="node">
<title>Node5</title>
<g id="a_node5"><a xlink:href="font_8hpp.html" target="_top" xlink:title="Contains jngl::Font class and related functions.">
<polygon fill="white" stroke="#666666" points="253,-129 158,-129 158,-110 253,-110 253,-129"/>
<text text-anchor="middle" x="205.5" y="-117" font-family="ui-monospace,monospace" font-size="10.00">jngl/font.hpp</text>
</a>
</g>
</g>
<!-- Node1&#45;&gt;Node5 -->
<g id="edge5" class="edge">
<title>Node1&#45;&gt;Node5</title>
<path fill="none" stroke="#63b8ff" d="M252.23,-158.6C240.58,-149.11 225.9,-137.13 216.13,-129.17"/>
<polygon fill="#63b8ff" stroke="#63b8ff" points="250.09,-161.38 260.06,-164.98 254.52,-155.95 250.09,-161.38"/>
</g>
<!-- Node6 -->
<g id="node6" class="node">
<title>Node6</title>
<g id="a_node6"><a xlink:href="framebuffer_8hpp.html" target="_top" xlink:title="Contains jngl::FrameBuffer class.">
<polygon fill="white" stroke="#666666" points="402,-129 271,-129 271,-110 402,-110 402,-129"/>
<text text-anchor="middle" x="336.5" y="-117" font-family="ui-monospace,monospace" font-size="10.00">jngl/framebuffer.hpp</text>
</a>
</g>
</g>
<!-- Node1&#45;&gt;Node6 -->
<g id="edge7" class="edge">
<title>Node1&#45;&gt;Node6</title>
<path fill="none" stroke="#63b8ff" d="M289.05,-158.6C300.88,-149.11 315.79,-137.13 325.7,-129.17"/>
<polygon fill="#63b8ff" stroke="#63b8ff" points="286.71,-155.99 281.1,-164.98 291.09,-161.45 286.71,-155.99"/>
</g>
<!-- Node7 -->
<g id="node7" class="node">
<title>Node7</title>
<g id="a_node7"><a xlink:href="shapes_8hpp.html" target="_top" xlink:title="Functions for drawing shapes.">
<polygon fill="white" stroke="#666666" points="527,-129 420,-129 420,-110 527,-110 527,-129"/>
<text text-anchor="middle" x="473.5" y="-117" font-family="ui-monospace,monospace" font-size="10.00">jngl/shapes.hpp</text>
</a>
</g>
</g>
<!-- Node1&#45;&gt;Node7 -->
<g id="edge9" class="edge">
<title>Node1&#45;&gt;Node7</title>
<path fill="none" stroke="#63b8ff" d="M312.87,-162.44C350.87,-152.52 405.86,-138.16 440.63,-129.08"/>
<polygon fill="#63b8ff" stroke="#63b8ff" points="311.91,-159.07 303.12,-164.98 313.68,-165.84 311.91,-159.07"/>
</g>
<!-- Node8 -->
<g id="node8" class="node">
<title>Node8</title>
<g id="a_node8"><a xlink:href="sprite_8hpp.html" target="_top" xlink:title="Contains jngl::Sprite class and related functions.">
<polygon fill="white" stroke="#666666" points="652,-129 545,-129 545,-110 652,-110 652,-129"/>
<text text-anchor="middle" x="598.5" y="-117" font-family="ui-monospace,monospace" font-size="10.00">jngl/sprite.hpp</text>
</a>
</g>
</g>
<!-- Node1&#45;&gt;Node8 -->
<g id="edge11" class="edge">
<title>Node1&#45;&gt;Node8</title>
<path fill="none" stroke="#63b8ff" d="M331,-163.72C392.58,-153.77 487.1,-138.5 545.74,-129.03"/>
<polygon fill="#63b8ff" stroke="#63b8ff" points="330.34,-160.28 321.03,-165.33 331.46,-167.19 330.34,-160.28"/>
</g>
<!-- Node2&#45;&gt;Node3 -->
<g id="edge2" class="edge">
<title>Node2&#45;&gt;Node3</title>
<path fill="none" stroke="#63b8ff" d="M95.63,-107.63C136.84,-97.7 196.95,-83.22 234.88,-74.08"/>
<polygon fill="#63b8ff" stroke="#63b8ff" points="94.75,-104.24 85.85,-109.98 96.39,-111.05 94.75,-104.24"/>
</g>
<!-- Node4 -->
<g id="node4" class="node">
<title>Node4</title>
<g id="a_node4"><a xlink:href="jngl_8hpp.html" target="_top" xlink:title="Includes jngl/all.hpp.">
<polygon fill="white" stroke="#666666" points="303,-19 238,-19 238,0 303,0 303,-19"/>
<text text-anchor="middle" x="270.5" y="-7" font-family="ui-monospace,monospace" font-size="10.00">jngl.hpp</text>
</a>
</g>
</g>
<!-- Node3&#45;&gt;Node4 -->
<g id="edge3" class="edge">
<title>Node3&#45;&gt;Node4</title>
<path fill="none" stroke="#63b8ff" d="M270.5,-44.66C270.5,-35.93 270.5,-25.99 270.5,-19.09"/>
<polygon fill="#63b8ff" stroke="#63b8ff" points="267,-44.75 270.5,-54.75 274,-44.75 267,-44.75"/>
</g>
<!-- Node5&#45;&gt;Node3 -->
<g id="edge6" class="edge">
<title>Node5&#45;&gt;Node3</title>
<path fill="none" stroke="#63b8ff" d="M223.77,-103.6C235.42,-94.11 250.1,-82.13 259.87,-74.17"/>
<polygon fill="#63b8ff" stroke="#63b8ff" points="221.48,-100.95 215.94,-109.98 225.91,-106.38 221.48,-100.95"/>
</g>
<!-- Node6&#45;&gt;Node3 -->
<g id="edge8" class="edge">
<title>Node6&#45;&gt;Node3</title>
<path fill="none" stroke="#63b8ff" d="M317.95,-103.6C306.12,-94.11 291.21,-82.13 281.3,-74.17"/>
<polygon fill="#63b8ff" stroke="#63b8ff" points="315.91,-106.45 325.9,-109.98 320.29,-100.99 315.91,-106.45"/>
</g>
<!-- Node7&#45;&gt;Node3 -->
<g id="edge10" class="edge">
<title>Node7&#45;&gt;Node3</title>
<path fill="none" stroke="#63b8ff" d="M431.13,-107.44C393.13,-97.52 338.14,-83.16 303.37,-74.08"/>
<polygon fill="#63b8ff" stroke="#63b8ff" points="430.32,-110.84 440.88,-109.98 432.09,-104.07 430.32,-110.84"/>
</g>
<!-- Node8&#45;&gt;Node3 -->
<g id="edge12" class="edge">
<title>Node8&#45;&gt;Node3</title>
<path fill="none" stroke="#63b8ff" d="M535.74,-108.36C471.17,-97.92 372.18,-81.93 315.17,-72.72"/>
<polygon fill="#63b8ff" stroke="#63b8ff" points="535.37,-111.84 545.8,-109.98 536.49,-104.93 535.37,-111.84"/>
</g>
</g>
</svg>
