<?xml version="1.0" encoding="UTF-8" standalone="no"?>
<!DOCTYPE svg PUBLIC "-//W3C//DTD SVG 1.1//EN"
 "http://www.w3.org/Graphics/SVG/1.1/DTD/svg11.dtd">
<!-- Generated by graphviz version 2.42.4 (0)
 -->
<!-- Title: jngl/Color.hpp Pages: 1 -->
<svg width="392pt" height="196pt"
 viewBox="0.00 0.00 391.95 196.00" xmlns="http://www.w3.org/2000/svg" xmlns:xlink="http://www.w3.org/1999/xlink">
<g id="graph0" class="graph" transform="scale(1 1) rotate(0) translate(4 192)">
<title>jngl/Color.hpp</title>
<polygon fill="white" stroke="transparent" points="-4,4 -4,-192 387.95,-192 387.95,4 -4,4"/>
<!-- Node1 -->
<g id="node1" class="node">
<title>Node1</title>
<g id="a_node1"><a xlink:title=" ">
<polygon fill="#bfbfbf" stroke="black" points="76.95,-168.5 76.95,-187.5 177.95,-187.5 177.95,-168.5 76.95,-168.5"/>
<text text-anchor="middle" x="127.45" y="-175.5" font-family="'Consolas',monospace" font-size="10.00">jngl/Color.hpp</text>
</a>
</g>
</g>
<!-- Node2 -->
<g id="node2" class="node">
<title>Node2</title>
<g id="a_node2"><a xlink:href="all_8hpp.html" target="_top" xlink:title="Includes all JNGL headers.">
<polygon fill="white" stroke="black" points="82.95,-56.5 82.95,-75.5 171.95,-75.5 171.95,-56.5 82.95,-56.5"/>
<text text-anchor="middle" x="127.45" y="-63.5" font-family="'Consolas',monospace" font-size="10.00">jngl/all.hpp</text>
</a>
</g>
</g>
<!-- Node1&#45;&gt;Node2 -->
<g id="edge1" class="edge">
<title>Node1&#45;&gt;Node2</title>
<path fill="none" stroke="midnightblue" d="M66.84,-169.49C43.7,-163.33 19.51,-152.18 5.45,-132 -17.06,-99.71 39.34,-82.12 82.78,-73.64"/>
<polygon fill="midnightblue" stroke="midnightblue" points="66.13,-172.91 76.67,-171.83 67.75,-166.1 66.13,-172.91"/>
</g>
<!-- Node4 -->
<g id="node4" class="node">
<title>Node4</title>
<g id="a_node4"><a xlink:href="font_8hpp.html" target="_top" xlink:title="Contains jngl::Font class and related functions.">
<polygon fill="white" stroke="black" points="14.95,-112.5 14.95,-131.5 109.95,-131.5 109.95,-112.5 14.95,-112.5"/>
<text text-anchor="middle" x="62.45" y="-119.5" font-family="'Consolas',monospace" font-size="10.00">jngl/font.hpp</text>
</a>
</g>
</g>
<!-- Node1&#45;&gt;Node4 -->
<g id="edge3" class="edge">
<title>Node1&#45;&gt;Node4</title>
<path fill="none" stroke="midnightblue" d="M109.17,-161.82C97.53,-152.15 82.85,-139.95 73.08,-131.83"/>
<polygon fill="midnightblue" stroke="midnightblue" points="107.08,-164.63 117,-168.32 111.55,-159.24 107.08,-164.63"/>
</g>
<!-- Node5 -->
<g id="node5" class="node">
<title>Node5</title>
<g id="a_node5"><a xlink:href="framebuffer_8hpp.html" target="_top" xlink:title="Contains jngl::FrameBuffer class.">
<polygon fill="white" stroke="black" points="127.95,-112.5 127.95,-131.5 258.95,-131.5 258.95,-112.5 127.95,-112.5"/>
<text text-anchor="middle" x="193.45" y="-119.5" font-family="'Consolas',monospace" font-size="10.00">jngl/framebuffer.hpp</text>
</a>
</g>
</g>
<!-- Node1&#45;&gt;Node5 -->
<g id="edge5" class="edge">
<title>Node1&#45;&gt;Node5</title>
<path fill="none" stroke="midnightblue" d="M146,-161.82C157.83,-152.15 172.73,-139.95 182.65,-131.83"/>
<polygon fill="midnightblue" stroke="midnightblue" points="143.57,-159.28 138.05,-168.32 148.01,-164.7 143.57,-159.28"/>
</g>
<!-- Node6 -->
<g id="node6" class="node">
<title>Node6</title>
<g id="a_node6"><a xlink:href="shapes_8hpp.html" target="_top" xlink:title="Functions for drawing shapes.">
<polygon fill="white" stroke="black" points="276.95,-112.5 276.95,-131.5 383.95,-131.5 383.95,-112.5 276.95,-112.5"/>
<text text-anchor="middle" x="330.45" y="-119.5" font-family="'Consolas',monospace" font-size="10.00">jngl/shapes.hpp</text>
</a>
</g>
</g>
<!-- Node1&#45;&gt;Node6 -->
<g id="edge7" class="edge">
<title>Node1&#45;&gt;Node6</title>
<path fill="none" stroke="midnightblue" d="M169.44,-165.83C207.77,-155.63 263.6,-140.78 298.43,-131.52"/>
<polygon fill="midnightblue" stroke="midnightblue" points="168.38,-162.49 159.61,-168.44 170.18,-169.26 168.38,-162.49"/>
</g>
<!-- Node3 -->
<g id="node3" class="node">
<title>Node3</title>
<g id="a_node3"><a xlink:href="jngl_8hpp_source.html" target="_top" xlink:title=" ">
<polygon fill="white" stroke="black" points="94.95,-0.5 94.95,-19.5 159.95,-19.5 159.95,-0.5 94.95,-0.5"/>
<text text-anchor="middle" x="127.45" y="-7.5" font-family="'Consolas',monospace" font-size="10.00">jngl.hpp</text>
</a>
</g>
</g>
<!-- Node2&#45;&gt;Node3 -->
<g id="edge2" class="edge">
<title>Node2&#45;&gt;Node3</title>
<path fill="none" stroke="midnightblue" d="M127.45,-45.8C127.45,-36.91 127.45,-26.78 127.45,-19.75"/>
<polygon fill="midnightblue" stroke="midnightblue" points="123.95,-46.08 127.45,-56.08 130.95,-46.08 123.95,-46.08"/>
</g>
<!-- Node4&#45;&gt;Node2 -->
<g id="edge4" class="edge">
<title>Node4&#45;&gt;Node2</title>
<path fill="none" stroke="midnightblue" d="M80.72,-105.82C92.37,-96.15 107.05,-83.95 116.81,-75.83"/>
<polygon fill="midnightblue" stroke="midnightblue" points="78.35,-103.24 72.89,-112.32 82.82,-108.63 78.35,-103.24"/>
</g>
<!-- Node5&#45;&gt;Node2 -->
<g id="edge6" class="edge">
<title>Node5&#45;&gt;Node2</title>
<path fill="none" stroke="midnightblue" d="M174.89,-105.82C163.07,-96.15 148.16,-83.95 138.24,-75.83"/>
<polygon fill="midnightblue" stroke="midnightblue" points="172.89,-108.7 182.84,-112.32 177.32,-103.28 172.89,-108.7"/>
</g>
<!-- Node6&#45;&gt;Node2 -->
<g id="edge8" class="edge">
<title>Node6&#45;&gt;Node2</title>
<path fill="none" stroke="midnightblue" d="M288.45,-109.83C250.12,-99.63 194.3,-84.78 159.46,-75.52"/>
<polygon fill="midnightblue" stroke="midnightblue" points="287.72,-113.26 298.28,-112.44 289.52,-106.49 287.72,-113.26"/>
</g>
</g>
</svg>
