<?xml version="1.0" encoding="UTF-8" standalone="no"?>
<!DOCTYPE svg PUBLIC "-//W3C//DTD SVG 1.1//EN"
 "http://www.w3.org/Graphics/SVG/1.1/DTD/svg11.dtd">
<!-- Generated by graphviz version 5.0.0 (0)
 -->
<!-- Title: jngl/Color.hpp Pages: 1 -->
<svg width="399pt" height="137pt"
 viewBox="0.00 0.00 398.75 137.00" xmlns="http://www.w3.org/2000/svg" xmlns:xlink="http://www.w3.org/1999/xlink">
<g id="graph0" class="graph" transform="scale(1 1) rotate(0) translate(4 133)">
<title>jngl/Color.hpp</title>
<!-- Node1 -->
<g id="node1" class="node">
<title>Node1</title>
<g id="a_node1"><a xlink:title="Contains jngl::Color class.">
<polygon fill="#999999" stroke="#666666" points="198.75,-129 97.75,-129 97.75,-110 198.75,-110 198.75,-129"/>
<text text-anchor="middle" x="148.25" y="-117" font-family="ui-monospace,monospace" font-size="10.00">jngl/Color.hpp</text>
</a>
</g>
</g>
<!-- Node2 -->
<g id="node2" class="node">
<title>Node2</title>
<g id="a_node2"><a xlink:href="jngl_8hpp.html" target="_top" xlink:title="Includes all JNGL headers except for init.hpp.">
<polygon fill="white" stroke="#666666" points="180.75,-19 115.75,-19 115.75,0 180.75,0 180.75,-19"/>
<text text-anchor="middle" x="148.25" y="-7" font-family="ui-monospace,monospace" font-size="10.00">jngl.hpp</text>
</a>
</g>
</g>
<!-- Node1&#45;&gt;Node2 -->
<g id="edge1" class="edge">
<title>Node1&#45;&gt;Node2</title>
<path fill="none" stroke="#63b8ff" d="M87.34,-115.52C57.84,-110.64 24.85,-99.33 6.25,-74 -23.49,-33.52 64.94,-18.34 115.53,-13.07"/>
<polygon fill="#63b8ff" stroke="#63b8ff" points="87.21,-119.04 97.6,-117 88.2,-112.11 87.21,-119.04"/>
</g>
<!-- Node3 -->
<g id="node3" class="node">
<title>Node3</title>
<g id="a_node3"><a xlink:href="FrameBuffer_8hpp.html" target="_top" xlink:title="Contains jngl::FrameBuffer class.">
<polygon fill="white" stroke="#666666" points="146.75,-74 15.75,-74 15.75,-55 146.75,-55 146.75,-74"/>
<text text-anchor="middle" x="81.25" y="-62" font-family="ui-monospace,monospace" font-size="10.00">jngl/FrameBuffer.hpp</text>
</a>
</g>
</g>
<!-- Node1&#45;&gt;Node3 -->
<g id="edge2" class="edge">
<title>Node1&#45;&gt;Node3</title>
<path fill="none" stroke="#63b8ff" d="M129.41,-103.6C117.41,-94.11 102.27,-82.13 92.21,-74.17"/>
<polygon fill="#63b8ff" stroke="#63b8ff" points="127.47,-106.53 137.48,-109.98 131.81,-101.04 127.47,-106.53"/>
</g>
<!-- Node4 -->
<g id="node4" class="node">
<title>Node4</title>
<g id="a_node4"><a xlink:href="Label_8hpp.html" target="_top" xlink:title="Contains jngl::Label class.">
<polygon fill="white" stroke="#666666" points="265.75,-74 164.75,-74 164.75,-55 265.75,-55 265.75,-74"/>
<text text-anchor="middle" x="215.25" y="-62" font-family="ui-monospace,monospace" font-size="10.00">jngl/Label.hpp</text>
</a>
</g>
</g>
<!-- Node1&#45;&gt;Node4 -->
<g id="edge4" class="edge">
<title>Node1&#45;&gt;Node4</title>
<path fill="none" stroke="#63b8ff" d="M167.08,-103.6C179.08,-94.11 194.22,-82.13 204.29,-74.17"/>
<polygon fill="#63b8ff" stroke="#63b8ff" points="164.68,-101.04 159.01,-109.98 169.02,-106.53 164.68,-101.04"/>
</g>
<!-- Node5 -->
<g id="node5" class="node">
<title>Node5</title>
<g id="a_node5"><a xlink:href="shapes_8hpp.html" target="_top" xlink:title="Functions for drawing shapes.">
<polygon fill="white" stroke="#666666" points="390.75,-74 283.75,-74 283.75,-55 390.75,-55 390.75,-74"/>
<text text-anchor="middle" x="337.25" y="-62" font-family="ui-monospace,monospace" font-size="10.00">jngl/shapes.hpp</text>
</a>
</g>
</g>
<!-- Node1&#45;&gt;Node5 -->
<g id="edge6" class="edge">
<title>Node1&#45;&gt;Node5</title>
<path fill="none" stroke="#63b8ff" d="M188.6,-107.18C223.95,-97.27 274.54,-83.08 306.64,-74.08"/>
<polygon fill="#63b8ff" stroke="#63b8ff" points="187.3,-103.91 178.61,-109.98 189.19,-110.65 187.3,-103.91"/>
</g>
<!-- Node3&#45;&gt;Node2 -->
<g id="edge3" class="edge">
<title>Node3&#45;&gt;Node2</title>
<path fill="none" stroke="#63b8ff" d="M100.08,-48.6C112.08,-39.11 127.22,-27.13 137.29,-19.17"/>
<polygon fill="#63b8ff" stroke="#63b8ff" points="97.68,-46.04 92.01,-54.98 102.02,-51.53 97.68,-46.04"/>
</g>
<!-- Node4&#45;&gt;Node2 -->
<g id="edge5" class="edge">
<title>Node4&#45;&gt;Node2</title>
<path fill="none" stroke="#63b8ff" d="M196.41,-48.6C184.41,-39.11 169.27,-27.13 159.21,-19.17"/>
<polygon fill="#63b8ff" stroke="#63b8ff" points="194.47,-51.53 204.48,-54.98 198.81,-46.04 194.47,-51.53"/>
</g>
<!-- Node5&#45;&gt;Node2 -->
<g id="edge7" class="edge">
<title>Node5&#45;&gt;Node2</title>
<path fill="none" stroke="#63b8ff" d="M296.89,-52.18C261.54,-42.27 210.95,-28.08 178.85,-19.08"/>
<polygon fill="#63b8ff" stroke="#63b8ff" points="296.31,-55.65 306.88,-54.98 298.2,-48.91 296.31,-55.65"/>
</g>
</g>
</svg>
