<?xml version="1.0" encoding="UTF-8" standalone="no"?>
<!DOCTYPE svg PUBLIC "-//W3C//DTD SVG 1.1//EN"
 "http://www.w3.org/Graphics/SVG/1.1/DTD/svg11.dtd">
<!-- Generated by graphviz version 5.0.0 (0)
 -->
<!-- Title: jngl/Color.hpp Pages: 1 -->
<svg width="109pt" height="137pt"
 viewBox="0.00 0.00 109.00 137.00" xmlns="http://www.w3.org/2000/svg" xmlns:xlink="http://www.w3.org/1999/xlink">
<g id="graph0" class="graph" transform="scale(1 1) rotate(0) translate(4 133)">
<title>jngl/Color.hpp</title>
<!-- Node1 -->
<g id="node1" class="node">
<title>Node1</title>
<g id="a_node1"><a xlink:title="Contains jngl::Color class.">
<polygon fill="#999999" stroke="#666666" points="101,-129 0,-129 0,-110 101,-110 101,-129"/>
<text text-anchor="middle" x="50.5" y="-117" font-family="ui-monospace,monospace" font-size="10.00">jngl/Color.hpp</text>
</a>
</g>
</g>
<!-- Node2 -->
<g id="node2" class="node">
<title>Node2</title>
<g id="a_node2"><a xlink:href="Rgb_8hpp.html" target="_top" xlink:title="Contains jngl::Rgb class.">
<polygon fill="white" stroke="#666666" points="80,-74 21,-74 21,-55 80,-55 80,-74"/>
<text text-anchor="middle" x="50.5" y="-62" font-family="ui-monospace,monospace" font-size="10.00">Rgb.hpp</text>
</a>
</g>
</g>
<!-- Node1&#45;&gt;Node2 -->
<g id="edge1" class="edge">
<title>Node1&#45;&gt;Node2</title>
<path fill="none" stroke="#63b8ff" d="M50.5,-109.75C50.5,-102.8 50.5,-92.85 50.5,-84.13"/>
<polygon fill="#63b8ff" stroke="#63b8ff" points="54,-84.09 50.5,-74.09 47,-84.09 54,-84.09"/>
</g>
<!-- Node3 -->
<g id="node3" class="node">
<title>Node3</title>
<g id="a_node3"><a target="_parent" xlink:href="http://en.cppreference.com/w/cpp/header/cstdint.html" xlink:title=" ">
<polygon fill="white" stroke="#666666" points="80,-19 21,-19 21,0 80,0 80,-19"/>
<text text-anchor="middle" x="50.5" y="-7" font-family="ui-monospace,monospace" font-size="10.00">cstdint</text>
</a>
</g>
</g>
<!-- Node2&#45;&gt;Node3 -->
<g id="edge2" class="edge">
<title>Node2&#45;&gt;Node3</title>
<path fill="none" stroke="#63b8ff" d="M50.5,-54.75C50.5,-47.8 50.5,-37.85 50.5,-29.13"/>
<polygon fill="#63b8ff" stroke="#63b8ff" points="54,-29.09 50.5,-19.09 47,-29.09 54,-29.09"/>
</g>
</g>
</svg>
