<?xml version="1.0" encoding="UTF-8" standalone="no"?>
<!DOCTYPE svg PUBLIC "-//W3C//DTD SVG 1.1//EN"
 "http://www.w3.org/Graphics/SVG/1.1/DTD/svg11.dtd">
<!-- Generated by graphviz version 2.42.4 (0)
 -->
<!-- Title: jngl/Color.hpp Pages: 1 -->
<svg width="514pt" height="196pt"
 viewBox="0.00 0.00 513.95 196.00" xmlns="http://www.w3.org/2000/svg" xmlns:xlink="http://www.w3.org/1999/xlink">
<g id="graph0" class="graph" transform="scale(1 1) rotate(0) translate(4 192)">
<title>jngl/Color.hpp</title>
<polygon fill="white" stroke="transparent" points="-4,4 -4,-192 509.95,-192 509.95,4 -4,4"/>
<!-- Node1 -->
<g id="node1" class="node">
<title>Node1</title>
<g id="a_node1"><a xlink:title=" ">
<polygon fill="#bfbfbf" stroke="black" points="145.95,-168.5 145.95,-187.5 246.95,-187.5 246.95,-168.5 145.95,-168.5"/>
<text text-anchor="middle" x="196.45" y="-175.5" font-family="'Consolas',monospace" font-size="10.00">jngl/Color.hpp</text>
</a>
</g>
</g>
<!-- Node2 -->
<g id="node2" class="node">
<title>Node2</title>
<g id="a_node2"><a xlink:href="all_8hpp.html" target="_top" xlink:title="Includes all JNGL headers except for init.hpp.">
<polygon fill="white" stroke="black" points="151.95,-56.5 151.95,-75.5 240.95,-75.5 240.95,-56.5 151.95,-56.5"/>
<text text-anchor="middle" x="196.45" y="-63.5" font-family="'Consolas',monospace" font-size="10.00">jngl/all.hpp</text>
</a>
</g>
</g>
<!-- Node1&#45;&gt;Node2 -->
<g id="edge1" class="edge">
<title>Node1&#45;&gt;Node2</title>
<path fill="none" stroke="midnightblue" d="M135.66,-170.57C86.93,-164.01 24.16,-151.93 8.45,-132 -31.07,-81.91 84.36,-70.26 151.68,-67.66"/>
<polygon fill="midnightblue" stroke="midnightblue" points="135.46,-174.07 145.83,-171.89 136.36,-167.13 135.46,-174.07"/>
</g>
<!-- Node4 -->
<g id="node4" class="node">
<title>Node4</title>
<g id="a_node4"><a xlink:href="font_8hpp.html" target="_top" xlink:title="Contains jngl::Font class and related functions.">
<polygon fill="white" stroke="black" points="17.95,-112.5 17.95,-131.5 112.95,-131.5 112.95,-112.5 17.95,-112.5"/>
<text text-anchor="middle" x="65.45" y="-119.5" font-family="'Consolas',monospace" font-size="10.00">jngl/font.hpp</text>
</a>
</g>
</g>
<!-- Node1&#45;&gt;Node4 -->
<g id="edge3" class="edge">
<title>Node1&#45;&gt;Node4</title>
<path fill="none" stroke="midnightblue" d="M166.13,-164.5C141.57,-154.38 107.63,-140.39 86.11,-131.52"/>
<polygon fill="midnightblue" stroke="midnightblue" points="165.11,-167.87 175.69,-168.44 167.78,-161.4 165.11,-167.87"/>
</g>
<!-- Node5 -->
<g id="node5" class="node">
<title>Node5</title>
<g id="a_node5"><a xlink:href="framebuffer_8hpp.html" target="_top" xlink:title="Contains jngl::FrameBuffer class.">
<polygon fill="white" stroke="black" points="130.95,-112.5 130.95,-131.5 261.95,-131.5 261.95,-112.5 130.95,-112.5"/>
<text text-anchor="middle" x="196.45" y="-119.5" font-family="'Consolas',monospace" font-size="10.00">jngl/framebuffer.hpp</text>
</a>
</g>
</g>
<!-- Node1&#45;&gt;Node5 -->
<g id="edge5" class="edge">
<title>Node1&#45;&gt;Node5</title>
<path fill="none" stroke="midnightblue" d="M196.45,-157.8C196.45,-148.91 196.45,-138.78 196.45,-131.75"/>
<polygon fill="midnightblue" stroke="midnightblue" points="192.95,-158.08 196.45,-168.08 199.95,-158.08 192.95,-158.08"/>
</g>
<!-- Node6 -->
<g id="node6" class="node">
<title>Node6</title>
<g id="a_node6"><a xlink:href="Label_8hpp.html" target="_top" xlink:title="Contains jngl::Label class.">
<polygon fill="white" stroke="black" points="279.95,-112.5 279.95,-131.5 380.95,-131.5 380.95,-112.5 279.95,-112.5"/>
<text text-anchor="middle" x="330.45" y="-119.5" font-family="'Consolas',monospace" font-size="10.00">jngl/Label.hpp</text>
</a>
</g>
</g>
<!-- Node1&#45;&gt;Node6 -->
<g id="edge7" class="edge">
<title>Node1&#45;&gt;Node6</title>
<path fill="none" stroke="midnightblue" d="M227.12,-164.64C252.27,-154.5 287.2,-140.43 309.31,-131.52"/>
<polygon fill="midnightblue" stroke="midnightblue" points="225.65,-161.46 217.68,-168.44 228.26,-167.95 225.65,-161.46"/>
</g>
<!-- Node7 -->
<g id="node7" class="node">
<title>Node7</title>
<g id="a_node7"><a xlink:href="shapes_8hpp.html" target="_top" xlink:title="Functions for drawing shapes.">
<polygon fill="white" stroke="black" points="398.95,-112.5 398.95,-131.5 505.95,-131.5 505.95,-112.5 398.95,-112.5"/>
<text text-anchor="middle" x="452.45" y="-119.5" font-family="'Consolas',monospace" font-size="10.00">jngl/shapes.hpp</text>
</a>
</g>
</g>
<!-- Node1&#45;&gt;Node7 -->
<g id="edge9" class="edge">
<title>Node1&#45;&gt;Node7</title>
<path fill="none" stroke="midnightblue" d="M246.96,-166.35C295.34,-156.14 367.4,-140.94 412.07,-131.52"/>
<polygon fill="midnightblue" stroke="midnightblue" points="246.07,-162.95 237.01,-168.44 247.52,-169.8 246.07,-162.95"/>
</g>
<!-- Node3 -->
<g id="node3" class="node">
<title>Node3</title>
<g id="a_node3"><a xlink:href="jngl_8hpp.html" target="_top" xlink:title="Includes jngl/all.hpp.">
<polygon fill="white" stroke="black" points="163.95,-0.5 163.95,-19.5 228.95,-19.5 228.95,-0.5 163.95,-0.5"/>
<text text-anchor="middle" x="196.45" y="-7.5" font-family="'Consolas',monospace" font-size="10.00">jngl.hpp</text>
</a>
</g>
</g>
<!-- Node2&#45;&gt;Node3 -->
<g id="edge2" class="edge">
<title>Node2&#45;&gt;Node3</title>
<path fill="none" stroke="midnightblue" d="M196.45,-45.8C196.45,-36.91 196.45,-26.78 196.45,-19.75"/>
<polygon fill="midnightblue" stroke="midnightblue" points="192.95,-46.08 196.45,-56.08 199.95,-46.08 192.95,-46.08"/>
</g>
<!-- Node4&#45;&gt;Node2 -->
<g id="edge4" class="edge">
<title>Node4&#45;&gt;Node2</title>
<path fill="none" stroke="midnightblue" d="M95.76,-108.5C120.32,-98.38 154.26,-84.39 175.79,-75.52"/>
<polygon fill="midnightblue" stroke="midnightblue" points="94.11,-105.4 86.2,-112.44 96.78,-111.87 94.11,-105.4"/>
</g>
<!-- Node5&#45;&gt;Node2 -->
<g id="edge6" class="edge">
<title>Node5&#45;&gt;Node2</title>
<path fill="none" stroke="midnightblue" d="M196.45,-101.8C196.45,-92.91 196.45,-82.78 196.45,-75.75"/>
<polygon fill="midnightblue" stroke="midnightblue" points="192.95,-102.08 196.45,-112.08 199.95,-102.08 192.95,-102.08"/>
</g>
<!-- Node6&#45;&gt;Node2 -->
<g id="edge8" class="edge">
<title>Node6&#45;&gt;Node2</title>
<path fill="none" stroke="midnightblue" d="M299.77,-108.64C274.62,-98.5 239.69,-84.43 217.58,-75.52"/>
<polygon fill="midnightblue" stroke="midnightblue" points="298.63,-111.95 309.21,-112.44 301.25,-105.46 298.63,-111.95"/>
</g>
<!-- Node7&#45;&gt;Node2 -->
<g id="edge10" class="edge">
<title>Node7&#45;&gt;Node2</title>
<path fill="none" stroke="midnightblue" d="M401.94,-110.35C353.56,-100.14 281.5,-84.94 236.82,-75.52"/>
<polygon fill="midnightblue" stroke="midnightblue" points="401.38,-113.8 411.88,-112.44 402.82,-106.95 401.38,-113.8"/>
</g>
</g>
</svg>
