<?xml version="1.0" encoding="UTF-8" standalone="no"?>
<!DOCTYPE svg PUBLIC "-//W3C//DTD SVG 1.1//EN"
 "http://www.w3.org/Graphics/SVG/1.1/DTD/svg11.dtd">
<!-- Generated by graphviz version 2.40.1 (20161225.0304)
 -->
<!-- Title: jngl/color.hpp Pages: 1 -->
<svg width="240pt" height="196pt"
 viewBox="0.00 0.00 240.12 196.00" xmlns="http://www.w3.org/2000/svg" xmlns:xlink="http://www.w3.org/1999/xlink">
<g id="graph0" class="graph" transform="scale(1 1) rotate(0) translate(4 192)">
<title>jngl/color.hpp</title>
<polygon fill="#ffffff" stroke="transparent" points="-4,4 -4,-192 236.1229,-192 236.1229,4 -4,4"/>
<!-- Node2 -->
<g id="node1" class="node">
<title>Node2</title>
<polygon fill="#bfbfbf" stroke="#000000" points="9.1229,-168.5 9.1229,-187.5 110.1229,-187.5 110.1229,-168.5 9.1229,-168.5"/>
<text text-anchor="middle" x="59.6229" y="-175.5" font-family="'Consolas',monospace" font-size="10.00" fill="#000000">jngl/color.hpp</text>
</g>
<!-- Node3 -->
<g id="node2" class="node">
<title>Node3</title>
<g id="a_node2"><a xlink:href="all_8hpp.html" target="_top" xlink:title="Includes all JNGL headers. ">
<polygon fill="#ffffff" stroke="#000000" points="15.1229,-56.5 15.1229,-75.5 104.1229,-75.5 104.1229,-56.5 15.1229,-56.5"/>
<text text-anchor="middle" x="59.6229" y="-63.5" font-family="'Consolas',monospace" font-size="10.00" fill="#000000">jngl/all.hpp</text>
</a>
</g>
</g>
<!-- Node2&#45;&gt;Node3 -->
<g id="edge1" class="edge">
<title>Node2&#45;&gt;Node3</title>
<path fill="none" stroke="#191970" d="M31.6513,-162.9168C20.4528,-155.2694 8.7677,-144.8551 2.6229,-132 -8.4118,-108.9151 19.9637,-87.5462 40.5246,-75.6883"/>
<polygon fill="#191970" stroke="#191970" points="30.089,-166.0696 40.4129,-168.4505 33.827,-160.1512 30.089,-166.0696"/>
</g>
<!-- Node5 -->
<g id="node4" class="node">
<title>Node5</title>
<g id="a_node4"><a xlink:href="font_8hpp.html" target="_top" xlink:title="jngl/font.hpp">
<polygon fill="#ffffff" stroke="#000000" points="12.1229,-112.5 12.1229,-131.5 107.1229,-131.5 107.1229,-112.5 12.1229,-112.5"/>
<text text-anchor="middle" x="59.6229" y="-119.5" font-family="'Consolas',monospace" font-size="10.00" fill="#000000">jngl/font.hpp</text>
</a>
</g>
</g>
<!-- Node2&#45;&gt;Node5 -->
<g id="edge3" class="edge">
<title>Node2&#45;&gt;Node5</title>
<path fill="none" stroke="#191970" d="M59.6229,-158.1575C59.6229,-149.155 59.6229,-138.9199 59.6229,-131.6427"/>
<polygon fill="#191970" stroke="#191970" points="56.123,-158.2455 59.6229,-168.2455 63.123,-158.2456 56.123,-158.2455"/>
</g>
<!-- Node6 -->
<g id="node5" class="node">
<title>Node6</title>
<g id="a_node5"><a xlink:href="shapes_8hpp.html" target="_top" xlink:title="jngl/shapes.hpp">
<polygon fill="#ffffff" stroke="#000000" points="125.1229,-112.5 125.1229,-131.5 232.1229,-131.5 232.1229,-112.5 125.1229,-112.5"/>
<text text-anchor="middle" x="178.6229" y="-119.5" font-family="'Consolas',monospace" font-size="10.00" fill="#000000">jngl/shapes.hpp</text>
</a>
</g>
</g>
<!-- Node2&#45;&gt;Node6 -->
<g id="edge5" class="edge">
<title>Node2&#45;&gt;Node6</title>
<path fill="none" stroke="#191970" d="M89.1373,-164.1109C110.7167,-153.9559 139.4205,-140.4482 158.433,-131.5011"/>
<polygon fill="#191970" stroke="#191970" points="87.6376,-160.9484 80.0797,-168.3733 90.6182,-167.2821 87.6376,-160.9484"/>
</g>
<!-- Node4 -->
<g id="node3" class="node">
<title>Node4</title>
<g id="a_node3"><a xlink:href="jngl_8hpp_source.html" target="_top" xlink:title="jngl.hpp">
<polygon fill="#ffffff" stroke="#000000" points="27.1229,-.5 27.1229,-19.5 92.1229,-19.5 92.1229,-.5 27.1229,-.5"/>
<text text-anchor="middle" x="59.6229" y="-7.5" font-family="'Consolas',monospace" font-size="10.00" fill="#000000">jngl.hpp</text>
</a>
</g>
</g>
<!-- Node3&#45;&gt;Node4 -->
<g id="edge2" class="edge">
<title>Node3&#45;&gt;Node4</title>
<path fill="none" stroke="#191970" d="M59.6229,-46.1575C59.6229,-37.155 59.6229,-26.9199 59.6229,-19.6427"/>
<polygon fill="#191970" stroke="#191970" points="56.123,-46.2455 59.6229,-56.2455 63.123,-46.2456 56.123,-46.2455"/>
</g>
<!-- Node5&#45;&gt;Node3 -->
<g id="edge4" class="edge">
<title>Node5&#45;&gt;Node3</title>
<path fill="none" stroke="#191970" d="M59.6229,-102.1575C59.6229,-93.155 59.6229,-82.9199 59.6229,-75.6427"/>
<polygon fill="#191970" stroke="#191970" points="56.123,-102.2455 59.6229,-112.2455 63.123,-102.2456 56.123,-102.2455"/>
</g>
<!-- Node6&#45;&gt;Node3 -->
<g id="edge6" class="edge">
<title>Node6&#45;&gt;Node3</title>
<path fill="none" stroke="#191970" d="M149.1085,-108.1109C127.5291,-97.9559 98.8252,-84.4482 79.8128,-75.5011"/>
<polygon fill="#191970" stroke="#191970" points="147.6275,-111.2821 158.1661,-112.3733 150.6082,-104.9484 147.6275,-111.2821"/>
</g>
</g>
</svg>
