<?xml version="1.0" encoding="UTF-8" standalone="no"?>
<!DOCTYPE svg PUBLIC "-//W3C//DTD SVG 1.1//EN"
 "http://www.w3.org/Graphics/SVG/1.1/DTD/svg11.dtd">
<!-- Generated by graphviz version 2.38.0 (20140413.2041)
 -->
<!-- Title: jngl/color.hpp Pages: 1 -->
<svg width="240pt" height="196pt"
 viewBox="0.00 0.00 240.13 196.00" xmlns="http://www.w3.org/2000/svg" xmlns:xlink="http://www.w3.org/1999/xlink">
<g id="graph0" class="graph" transform="scale(1 1) rotate(0) translate(4 192)">
<title>jngl/color.hpp</title>
<polygon fill="white" stroke="none" points="-4,4 -4,-192 236.129,-192 236.129,4 -4,4"/>
<!-- Node1 -->
<g id="node1" class="node"><title>Node1</title>
<polygon fill="#bfbfbf" stroke="black" points="9.1292,-168.5 9.1292,-187.5 110.129,-187.5 110.129,-168.5 9.1292,-168.5"/>
<text text-anchor="middle" x="59.6292" y="-175.5" font-family="'Consolas',monospace" font-size="10.00">jngl/color.hpp</text>
</g>
<!-- Node2 -->
<g id="node2" class="node"><title>Node2</title>
<g id="a_node2"><a xlink:href="all_8hpp.html" target="_top" xlink:title="Includes all JNGL headers. ">
<polygon fill="white" stroke="black" points="15.1292,-56.5 15.1292,-75.5 104.129,-75.5 104.129,-56.5 15.1292,-56.5"/>
<text text-anchor="middle" x="59.6292" y="-63.5" font-family="'Consolas',monospace" font-size="10.00">jngl/all.hpp</text>
</a>
</g>
</g>
<!-- Node1&#45;&gt;Node2 -->
<g id="edge1" class="edge"><title>Node1&#45;&gt;Node2</title>
<path fill="none" stroke="midnightblue" d="M32.9582,-163.221C21.3815,-155.697 9.02612,-145.2 2.6292,-132 -8.75974,-108.498 21.6657,-86.9159 42.3256,-75.5009"/>
<polygon fill="midnightblue" stroke="midnightblue" points="31.1749,-166.232 41.5477,-168.39 34.7846,-160.235 31.1749,-166.232"/>
</g>
<!-- Node4 -->
<g id="node4" class="node"><title>Node4</title>
<g id="a_node4"><a xlink:href="font_8hpp.html" target="_top" xlink:title="jngl/font.hpp">
<polygon fill="white" stroke="black" points="12.1292,-112.5 12.1292,-131.5 107.129,-131.5 107.129,-112.5 12.1292,-112.5"/>
<text text-anchor="middle" x="59.6292" y="-119.5" font-family="'Consolas',monospace" font-size="10.00">jngl/font.hpp</text>
</a>
</g>
</g>
<!-- Node1&#45;&gt;Node4 -->
<g id="edge3" class="edge"><title>Node1&#45;&gt;Node4</title>
<path fill="none" stroke="midnightblue" d="M59.6292,-157.805C59.6292,-148.91 59.6292,-138.78 59.6292,-131.751"/>
<polygon fill="midnightblue" stroke="midnightblue" points="56.1293,-158.083 59.6292,-168.083 63.1293,-158.083 56.1293,-158.083"/>
</g>
<!-- Node5 -->
<g id="node5" class="node"><title>Node5</title>
<g id="a_node5"><a xlink:href="shapes_8hpp.html" target="_top" xlink:title="jngl/shapes.hpp">
<polygon fill="white" stroke="black" points="125.129,-112.5 125.129,-131.5 232.129,-131.5 232.129,-112.5 125.129,-112.5"/>
<text text-anchor="middle" x="178.629" y="-119.5" font-family="'Consolas',monospace" font-size="10.00">jngl/shapes.hpp</text>
</a>
</g>
</g>
<!-- Node1&#45;&gt;Node5 -->
<g id="edge5" class="edge"><title>Node1&#45;&gt;Node5</title>
<path fill="none" stroke="midnightblue" d="M87.7659,-164.232C110.025,-154.131 140.485,-140.309 159.862,-131.516"/>
<polygon fill="midnightblue" stroke="midnightblue" points="86.1451,-161.124 78.4851,-168.444 89.0377,-167.498 86.1451,-161.124"/>
</g>
<!-- Node3 -->
<g id="node3" class="node"><title>Node3</title>
<g id="a_node3"><a xlink:href="jngl_8hpp_source.html" target="_top" xlink:title="jngl.hpp">
<polygon fill="white" stroke="black" points="27.1292,-0.5 27.1292,-19.5 92.1292,-19.5 92.1292,-0.5 27.1292,-0.5"/>
<text text-anchor="middle" x="59.6292" y="-7.5" font-family="'Consolas',monospace" font-size="10.00">jngl.hpp</text>
</a>
</g>
</g>
<!-- Node2&#45;&gt;Node3 -->
<g id="edge2" class="edge"><title>Node2&#45;&gt;Node3</title>
<path fill="none" stroke="midnightblue" d="M59.6292,-45.8045C59.6292,-36.9102 59.6292,-26.7798 59.6292,-19.7511"/>
<polygon fill="midnightblue" stroke="midnightblue" points="56.1293,-46.083 59.6292,-56.083 63.1293,-46.083 56.1293,-46.083"/>
</g>
<!-- Node4&#45;&gt;Node2 -->
<g id="edge4" class="edge"><title>Node4&#45;&gt;Node2</title>
<path fill="none" stroke="midnightblue" d="M59.6292,-101.805C59.6292,-92.9102 59.6292,-82.7798 59.6292,-75.7511"/>
<polygon fill="midnightblue" stroke="midnightblue" points="56.1293,-102.083 59.6292,-112.083 63.1293,-102.083 56.1293,-102.083"/>
</g>
<!-- Node5&#45;&gt;Node2 -->
<g id="edge6" class="edge"><title>Node5&#45;&gt;Node2</title>
<path fill="none" stroke="midnightblue" d="M150.493,-108.232C128.233,-98.1312 97.7734,-84.3091 78.3969,-75.5164"/>
<polygon fill="midnightblue" stroke="midnightblue" points="149.221,-111.498 159.773,-112.444 152.113,-105.124 149.221,-111.498"/>
</g>
</g>
</svg>
