<?xml version="1.0" encoding="UTF-8" standalone="no"?>
<!DOCTYPE svg PUBLIC "-//W3C//DTD SVG 1.1//EN"
 "http://www.w3.org/Graphics/SVG/1.1/DTD/svg11.dtd">
<!-- Generated by graphviz version 2.44.0 (0)
 -->
<!-- Title: jngl/Color.hpp Pages: 1 -->
<svg width="635pt" height="196pt"
 viewBox="0.00 0.00 634.78 196.00" xmlns="http://www.w3.org/2000/svg" xmlns:xlink="http://www.w3.org/1999/xlink">
<g id="graph0" class="graph" transform="scale(1 1) rotate(0) translate(4 192)">
<title>jngl/Color.hpp</title>
<polygon fill="white" stroke="transparent" points="-4,4 -4,-192 630.78,-192 630.78,4 -4,4"/>
<!-- Node1 -->
<g id="node1" class="node">
<title>Node1</title>
<g id="a_node1"><a xlink:title="Contains jngl::Color class.">
<polygon fill="#bfbfbf" stroke="black" points="208.78,-168.5 208.78,-187.5 309.78,-187.5 309.78,-168.5 208.78,-168.5"/>
<text text-anchor="middle" x="259.28" y="-175.5" font-family="'Consolas',monospace" font-size="10.00">jngl/Color.hpp</text>
</a>
</g>
</g>
<!-- Node2 -->
<g id="node2" class="node">
<title>Node2</title>
<g id="a_node2"><a xlink:href="all_8hpp.html" target="_top" xlink:title="Includes all JNGL headers except for init.hpp.">
<polygon fill="white" stroke="black" points="214.78,-56.5 214.78,-75.5 303.78,-75.5 303.78,-56.5 214.78,-56.5"/>
<text text-anchor="middle" x="259.28" y="-63.5" font-family="'Consolas',monospace" font-size="10.00">jngl/all.hpp</text>
</a>
</g>
</g>
<!-- Node1&#45;&gt;Node2 -->
<g id="edge1" class="edge">
<title>Node1&#45;&gt;Node2</title>
<path fill="none" stroke="midnightblue" d="M198.64,-174.98C131.23,-171.31 28.61,-160.99 4.28,-132 -1.43,-125.19 -1.43,-118.81 4.28,-112 30.61,-80.62 148.69,-71.11 214.54,-68.24"/>
<polygon fill="midnightblue" stroke="midnightblue" points="198.56,-178.48 208.73,-175.5 198.92,-171.49 198.56,-178.48"/>
</g>
<!-- Node4 -->
<g id="node4" class="node">
<title>Node4</title>
<g id="a_node4"><a xlink:href="font_8hpp.html" target="_top" xlink:title="Contains jngl::Font class and related functions.">
<polygon fill="white" stroke="black" points="13.78,-112.5 13.78,-131.5 108.78,-131.5 108.78,-112.5 13.78,-112.5"/>
<text text-anchor="middle" x="61.28" y="-119.5" font-family="'Consolas',monospace" font-size="10.00">jngl/font.hpp</text>
</a>
</g>
</g>
<!-- Node1&#45;&gt;Node4 -->
<g id="edge3" class="edge">
<title>Node1&#45;&gt;Node4</title>
<path fill="none" stroke="midnightblue" d="M217.85,-165.7C180.48,-155.51 126.34,-140.74 92.51,-131.52"/>
<polygon fill="midnightblue" stroke="midnightblue" points="217.34,-169.19 227.91,-168.44 219.18,-162.44 217.34,-169.19"/>
</g>
<!-- Node5 -->
<g id="node5" class="node">
<title>Node5</title>
<g id="a_node5"><a xlink:href="framebuffer_8hpp.html" target="_top" xlink:title="Contains jngl::FrameBuffer class.">
<polygon fill="white" stroke="black" points="126.78,-112.5 126.78,-131.5 257.78,-131.5 257.78,-112.5 126.78,-112.5"/>
<text text-anchor="middle" x="192.28" y="-119.5" font-family="'Consolas',monospace" font-size="10.00">jngl/framebuffer.hpp</text>
</a>
</g>
</g>
<!-- Node1&#45;&gt;Node5 -->
<g id="edge5" class="edge">
<title>Node1&#45;&gt;Node5</title>
<path fill="none" stroke="midnightblue" d="M240.45,-161.82C228.45,-152.15 213.31,-139.95 203.25,-131.83"/>
<polygon fill="midnightblue" stroke="midnightblue" points="238.54,-164.77 248.52,-168.32 242.93,-159.32 238.54,-164.77"/>
</g>
<!-- Node6 -->
<g id="node6" class="node">
<title>Node6</title>
<g id="a_node6"><a xlink:href="Label_8hpp.html" target="_top" xlink:title="Contains jngl::Label class.">
<polygon fill="white" stroke="black" points="275.78,-112.5 275.78,-131.5 376.78,-131.5 376.78,-112.5 275.78,-112.5"/>
<text text-anchor="middle" x="326.28" y="-119.5" font-family="'Consolas',monospace" font-size="10.00">jngl/Label.hpp</text>
</a>
</g>
</g>
<!-- Node1&#45;&gt;Node6 -->
<g id="edge7" class="edge">
<title>Node1&#45;&gt;Node6</title>
<path fill="none" stroke="midnightblue" d="M278.12,-161.82C290.12,-152.15 305.26,-139.95 315.32,-131.83"/>
<polygon fill="midnightblue" stroke="midnightblue" points="275.64,-159.32 270.05,-168.32 280.03,-164.77 275.64,-159.32"/>
</g>
<!-- Node7 -->
<g id="node7" class="node">
<title>Node7</title>
<g id="a_node7"><a xlink:href="shapes_8hpp.html" target="_top" xlink:title="Functions for drawing shapes.">
<polygon fill="white" stroke="black" points="394.78,-112.5 394.78,-131.5 501.78,-131.5 501.78,-112.5 394.78,-112.5"/>
<text text-anchor="middle" x="448.28" y="-119.5" font-family="'Consolas',monospace" font-size="10.00">jngl/shapes.hpp</text>
</a>
</g>
</g>
<!-- Node1&#45;&gt;Node7 -->
<g id="edge9" class="edge">
<title>Node1&#45;&gt;Node7</title>
<path fill="none" stroke="midnightblue" d="M299.3,-165.57C334.95,-155.38 386.32,-140.7 418.48,-131.52"/>
<polygon fill="midnightblue" stroke="midnightblue" points="297.89,-162.33 289.23,-168.44 299.81,-169.06 297.89,-162.33"/>
</g>
<!-- Node8 -->
<g id="node8" class="node">
<title>Node8</title>
<g id="a_node8"><a xlink:href="sprite_8hpp.html" target="_top" xlink:title="Contains jngl::Sprite class and related functions.">
<polygon fill="white" stroke="black" points="519.78,-112.5 519.78,-131.5 626.78,-131.5 626.78,-112.5 519.78,-112.5"/>
<text text-anchor="middle" x="573.28" y="-119.5" font-family="'Consolas',monospace" font-size="10.00">jngl/sprite.hpp</text>
</a>
</g>
</g>
<!-- Node1&#45;&gt;Node8 -->
<g id="edge11" class="edge">
<title>Node1&#45;&gt;Node8</title>
<path fill="none" stroke="midnightblue" d="M319.02,-166.73C378.35,-156.52 468.28,-141.06 523.76,-131.52"/>
<polygon fill="midnightblue" stroke="midnightblue" points="318.3,-163.3 309.04,-168.44 319.49,-170.2 318.3,-163.3"/>
</g>
<!-- Node3 -->
<g id="node3" class="node">
<title>Node3</title>
<g id="a_node3"><a xlink:href="jngl_8hpp.html" target="_top" xlink:title="Includes jngl/all.hpp.">
<polygon fill="white" stroke="black" points="226.78,-0.5 226.78,-19.5 291.78,-19.5 291.78,-0.5 226.78,-0.5"/>
<text text-anchor="middle" x="259.28" y="-7.5" font-family="'Consolas',monospace" font-size="10.00">jngl.hpp</text>
</a>
</g>
</g>
<!-- Node2&#45;&gt;Node3 -->
<g id="edge2" class="edge">
<title>Node2&#45;&gt;Node3</title>
<path fill="none" stroke="midnightblue" d="M259.28,-45.8C259.28,-36.91 259.28,-26.78 259.28,-19.75"/>
<polygon fill="midnightblue" stroke="midnightblue" points="255.78,-46.08 259.28,-56.08 262.78,-46.08 255.78,-46.08"/>
</g>
<!-- Node4&#45;&gt;Node2 -->
<g id="edge4" class="edge">
<title>Node4&#45;&gt;Node2</title>
<path fill="none" stroke="midnightblue" d="M102.72,-109.7C140.09,-99.51 194.23,-84.74 228.06,-75.52"/>
<polygon fill="midnightblue" stroke="midnightblue" points="101.39,-106.44 92.66,-112.44 103.23,-113.19 101.39,-106.44"/>
</g>
<!-- Node5&#45;&gt;Node2 -->
<g id="edge6" class="edge">
<title>Node5&#45;&gt;Node2</title>
<path fill="none" stroke="midnightblue" d="M211.12,-105.82C223.12,-96.15 238.26,-83.95 248.32,-75.83"/>
<polygon fill="midnightblue" stroke="midnightblue" points="208.64,-103.32 203.05,-112.32 213.03,-108.77 208.64,-103.32"/>
</g>
<!-- Node6&#45;&gt;Node2 -->
<g id="edge8" class="edge">
<title>Node6&#45;&gt;Node2</title>
<path fill="none" stroke="midnightblue" d="M307.45,-105.82C295.45,-96.15 280.31,-83.95 270.25,-75.83"/>
<polygon fill="midnightblue" stroke="midnightblue" points="305.54,-108.77 315.52,-112.32 309.93,-103.32 305.54,-108.77"/>
</g>
<!-- Node7&#45;&gt;Node2 -->
<g id="edge10" class="edge">
<title>Node7&#45;&gt;Node2</title>
<path fill="none" stroke="midnightblue" d="M408.27,-109.57C372.62,-99.38 321.25,-84.7 289.09,-75.52"/>
<polygon fill="midnightblue" stroke="midnightblue" points="407.76,-113.06 418.34,-112.44 409.68,-106.33 407.76,-113.06"/>
</g>
<!-- Node8&#45;&gt;Node2 -->
<g id="edge12" class="edge">
<title>Node8&#45;&gt;Node2</title>
<path fill="none" stroke="midnightblue" d="M513.66,-110.75C452.66,-100.26 359.26,-84.19 304.23,-74.73"/>
<polygon fill="midnightblue" stroke="midnightblue" points="513.08,-114.2 523.53,-112.44 514.27,-107.3 513.08,-114.2"/>
</g>
</g>
</svg>
