<?xml version="1.0" encoding="UTF-8" standalone="no"?>
<!DOCTYPE svg PUBLIC "-//W3C//DTD SVG 1.1//EN"
 "http://www.w3.org/Graphics/SVG/1.1/DTD/svg11.dtd">
<!-- Generated by graphviz version 2.42.4 (0)
 -->
<!-- Title: jngl/Color.hpp Pages: 1 -->
<svg width="240pt" height="196pt"
 viewBox="0.00 0.00 240.13 196.00" xmlns="http://www.w3.org/2000/svg" xmlns:xlink="http://www.w3.org/1999/xlink">
<g id="graph0" class="graph" transform="scale(1 1) rotate(0) translate(4 192)">
<title>jngl/Color.hpp</title>
<polygon fill="white" stroke="transparent" points="-4,4 -4,-192 236.13,-192 236.13,4 -4,4"/>
<!-- Node1 -->
<g id="node1" class="node">
<title>Node1</title>
<g id="a_node1"><a xlink:title=" ">
<polygon fill="#bfbfbf" stroke="black" points="9.13,-168.5 9.13,-187.5 110.13,-187.5 110.13,-168.5 9.13,-168.5"/>
<text text-anchor="middle" x="59.63" y="-175.5" font-family="'Consolas',monospace" font-size="10.00">jngl/Color.hpp</text>
</a>
</g>
</g>
<!-- Node2 -->
<g id="node2" class="node">
<title>Node2</title>
<g id="a_node2"><a xlink:href="all_8hpp.html" target="_top" xlink:title="Includes all JNGL headers.">
<polygon fill="white" stroke="black" points="15.13,-56.5 15.13,-75.5 104.13,-75.5 104.13,-56.5 15.13,-56.5"/>
<text text-anchor="middle" x="59.63" y="-63.5" font-family="'Consolas',monospace" font-size="10.00">jngl/all.hpp</text>
</a>
</g>
</g>
<!-- Node1&#45;&gt;Node2 -->
<g id="edge1" class="edge">
<title>Node1&#45;&gt;Node2</title>
<path fill="none" stroke="midnightblue" d="M32.96,-163.22C21.38,-155.7 9.03,-145.2 2.63,-132 -8.76,-108.5 21.67,-86.92 42.33,-75.5"/>
<polygon fill="midnightblue" stroke="midnightblue" points="31.17,-166.23 41.55,-168.39 34.78,-160.23 31.17,-166.23"/>
</g>
<!-- Node4 -->
<g id="node4" class="node">
<title>Node4</title>
<g id="a_node4"><a xlink:href="font_8hpp.html" target="_top" xlink:title=" ">
<polygon fill="white" stroke="black" points="12.13,-112.5 12.13,-131.5 107.13,-131.5 107.13,-112.5 12.13,-112.5"/>
<text text-anchor="middle" x="59.63" y="-119.5" font-family="'Consolas',monospace" font-size="10.00">jngl/font.hpp</text>
</a>
</g>
</g>
<!-- Node1&#45;&gt;Node4 -->
<g id="edge3" class="edge">
<title>Node1&#45;&gt;Node4</title>
<path fill="none" stroke="midnightblue" d="M59.63,-157.8C59.63,-148.91 59.63,-138.78 59.63,-131.75"/>
<polygon fill="midnightblue" stroke="midnightblue" points="56.13,-158.08 59.63,-168.08 63.13,-158.08 56.13,-158.08"/>
</g>
<!-- Node5 -->
<g id="node5" class="node">
<title>Node5</title>
<g id="a_node5"><a xlink:href="shapes_8hpp.html" target="_top" xlink:title="Functions for drawing shapes.">
<polygon fill="white" stroke="black" points="125.13,-112.5 125.13,-131.5 232.13,-131.5 232.13,-112.5 125.13,-112.5"/>
<text text-anchor="middle" x="178.63" y="-119.5" font-family="'Consolas',monospace" font-size="10.00">jngl/shapes.hpp</text>
</a>
</g>
</g>
<!-- Node1&#45;&gt;Node5 -->
<g id="edge5" class="edge">
<title>Node1&#45;&gt;Node5</title>
<path fill="none" stroke="midnightblue" d="M87.77,-164.23C110.03,-154.13 140.48,-140.31 159.86,-131.52"/>
<polygon fill="midnightblue" stroke="midnightblue" points="86.15,-161.12 78.49,-168.44 89.04,-167.5 86.15,-161.12"/>
</g>
<!-- Node3 -->
<g id="node3" class="node">
<title>Node3</title>
<g id="a_node3"><a xlink:href="jngl_8hpp_source.html" target="_top" xlink:title=" ">
<polygon fill="white" stroke="black" points="27.13,-0.5 27.13,-19.5 92.13,-19.5 92.13,-0.5 27.13,-0.5"/>
<text text-anchor="middle" x="59.63" y="-7.5" font-family="'Consolas',monospace" font-size="10.00">jngl.hpp</text>
</a>
</g>
</g>
<!-- Node2&#45;&gt;Node3 -->
<g id="edge2" class="edge">
<title>Node2&#45;&gt;Node3</title>
<path fill="none" stroke="midnightblue" d="M59.63,-45.8C59.63,-36.91 59.63,-26.78 59.63,-19.75"/>
<polygon fill="midnightblue" stroke="midnightblue" points="56.13,-46.08 59.63,-56.08 63.13,-46.08 56.13,-46.08"/>
</g>
<!-- Node4&#45;&gt;Node2 -->
<g id="edge4" class="edge">
<title>Node4&#45;&gt;Node2</title>
<path fill="none" stroke="midnightblue" d="M59.63,-101.8C59.63,-92.91 59.63,-82.78 59.63,-75.75"/>
<polygon fill="midnightblue" stroke="midnightblue" points="56.13,-102.08 59.63,-112.08 63.13,-102.08 56.13,-102.08"/>
</g>
<!-- Node5&#45;&gt;Node2 -->
<g id="edge6" class="edge">
<title>Node5&#45;&gt;Node2</title>
<path fill="none" stroke="midnightblue" d="M150.49,-108.23C128.23,-98.13 97.77,-84.31 78.4,-75.52"/>
<polygon fill="midnightblue" stroke="midnightblue" points="149.22,-111.5 159.77,-112.44 152.11,-105.12 149.22,-111.5"/>
</g>
</g>
</svg>
