<?xml version="1.0" encoding="UTF-8" standalone="no"?>
<!DOCTYPE svg PUBLIC "-//W3C//DTD SVG 1.1//EN"
 "http://www.w3.org/Graphics/SVG/1.1/DTD/svg11.dtd">
<!-- Generated by graphviz version 9.0.0 (20230911.1827)
 -->
<!-- Title: jngl/Color.hpp Pages: 1 -->
<svg width="395pt" height="138pt"
 viewBox="0.00 0.00 395.16 137.75" xmlns="http://www.w3.org/2000/svg" xmlns:xlink="http://www.w3.org/1999/xlink">
<g id="graph0" class="graph" transform="scale(1 1) rotate(0) translate(4 133.75)">
<title>jngl/Color.hpp</title>
<!-- Node1 -->
<g id="Node000001" class="node">
<title>Node1</title>
<g id="a_Node000001"><a xlink:title="Contains jngl::Color class.">
<polygon fill="#999999" stroke="#666666" points="196.16,-129.75 96.16,-129.75 96.16,-110.5 196.16,-110.5 196.16,-129.75"/>
<text text-anchor="middle" x="146.16" y="-116.25" font-family="ui-monospace,monospace" font-size="10.00">jngl/Color.hpp</text>
</a>
</g>
</g>
<!-- Node2 -->
<g id="Node000002" class="node">
<title>Node2</title>
<g id="a_Node000002"><a xlink:href="jngl_8hpp.html" target="_top" xlink:title="Includes all JNGL headers except for init.hpp.">
<polygon fill="white" stroke="#666666" points="178.16,-19.25 114.16,-19.25 114.16,0 178.16,0 178.16,-19.25"/>
<text text-anchor="middle" x="146.16" y="-5.75" font-family="ui-monospace,monospace" font-size="10.00">jngl.hpp</text>
</a>
</g>
</g>
<!-- Node1&#45;&gt;Node2 -->
<g id="edge1_Node000001_Node000002" class="edge">
<title>Node1&#45;&gt;Node2</title>
<g id="a_edge1_Node000001_Node000002"><a xlink:title=" ">
<path fill="none" stroke="#63b8ff" d="M84.63,-115.6C55.91,-110.49 24.16,-99.14 6.16,-74.5 -23.16,-34.38 64.03,-18.84 113.9,-13.34"/>
<polygon fill="#63b8ff" stroke="#63b8ff" points="83.95,-119.04 94.36,-117.09 85.01,-112.12 83.95,-119.04"/>
</a>
</g>
</g>
<!-- Node3 -->
<g id="Node000003" class="node">
<title>Node3</title>
<g id="a_Node000003"><a xlink:href="FrameBuffer_8hpp.html" target="_top" xlink:title="Contains jngl::FrameBuffer class.">
<polygon fill="white" stroke="#666666" points="145.16,-74.5 15.16,-74.5 15.16,-55.25 145.16,-55.25 145.16,-74.5"/>
<text text-anchor="middle" x="80.16" y="-61" font-family="ui-monospace,monospace" font-size="10.00">jngl/FrameBuffer.hpp</text>
</a>
</g>
</g>
<!-- Node1&#45;&gt;Node3 -->
<g id="edge2_Node000001_Node000003" class="edge">
<title>Node1&#45;&gt;Node3</title>
<g id="a_edge2_Node000001_Node000003"><a xlink:title=" ">
<path fill="none" stroke="#63b8ff" d="M126.07,-102.91C114.6,-93.67 100.68,-82.43 91.19,-74.77"/>
<polygon fill="#63b8ff" stroke="#63b8ff" points="123.8,-105.59 133.78,-109.14 128.2,-100.14 123.8,-105.59"/>
</a>
</g>
</g>
<!-- Node4 -->
<g id="Node000004" class="node">
<title>Node4</title>
<g id="a_Node000004"><a xlink:href="Label_8hpp.html" target="_top" xlink:title="Contains jngl::Label class.">
<polygon fill="white" stroke="#666666" points="263.16,-74.5 163.16,-74.5 163.16,-55.25 263.16,-55.25 263.16,-74.5"/>
<text text-anchor="middle" x="213.16" y="-61" font-family="ui-monospace,monospace" font-size="10.00">jngl/Label.hpp</text>
</a>
</g>
</g>
<!-- Node1&#45;&gt;Node4 -->
<g id="edge4_Node000001_Node000004" class="edge">
<title>Node1&#45;&gt;Node4</title>
<g id="a_edge4_Node000001_Node000004"><a xlink:title=" ">
<path fill="none" stroke="#63b8ff" d="M166.21,-103.19C177.91,-93.89 192.23,-82.51 201.96,-74.77"/>
<polygon fill="#63b8ff" stroke="#63b8ff" points="164.36,-100.19 158.71,-109.15 168.72,-105.67 164.36,-100.19"/>
</a>
</g>
</g>
<!-- Node5 -->
<g id="Node000005" class="node">
<title>Node5</title>
<g id="a_Node000005"><a xlink:href="shapes_8hpp.html" target="_top" xlink:title="Functions for drawing shapes.">
<polygon fill="white" stroke="#666666" points="387.16,-74.5 281.16,-74.5 281.16,-55.25 387.16,-55.25 387.16,-74.5"/>
<text text-anchor="middle" x="334.16" y="-61" font-family="ui-monospace,monospace" font-size="10.00">jngl/shapes.hpp</text>
</a>
</g>
</g>
<!-- Node1&#45;&gt;Node5 -->
<g id="edge6_Node000001_Node000005" class="edge">
<title>Node1&#45;&gt;Node5</title>
<g id="a_edge6_Node000001_Node000005"><a xlink:title=" ">
<path fill="none" stroke="#63b8ff" d="M188.72,-107.07C223.14,-97.32 270.86,-83.8 302.11,-74.95"/>
<polygon fill="#63b8ff" stroke="#63b8ff" points="188.17,-103.59 179.51,-109.68 190.08,-110.32 188.17,-103.59"/>
</a>
</g>
</g>
<!-- Node3&#45;&gt;Node2 -->
<g id="edge3_Node000003_Node000002" class="edge">
<title>Node3&#45;&gt;Node2</title>
<g id="a_edge3_Node000003_Node000002"><a xlink:title=" ">
<path fill="none" stroke="#63b8ff" d="M100.25,-47.66C111.71,-38.42 125.64,-27.18 135.13,-19.52"/>
<polygon fill="#63b8ff" stroke="#63b8ff" points="98.12,-44.89 92.53,-53.89 102.51,-50.34 98.12,-44.89"/>
</a>
</g>
</g>
<!-- Node4&#45;&gt;Node2 -->
<g id="edge5_Node000004_Node000002" class="edge">
<title>Node4&#45;&gt;Node2</title>
<g id="a_edge5_Node000004_Node000002"><a xlink:title=" ">
<path fill="none" stroke="#63b8ff" d="M193.11,-47.94C181.41,-38.64 167.08,-27.26 157.36,-19.52"/>
<polygon fill="#63b8ff" stroke="#63b8ff" points="190.6,-50.42 200.61,-53.9 194.96,-44.94 190.6,-50.42"/>
</a>
</g>
</g>
<!-- Node5&#45;&gt;Node2 -->
<g id="edge7_Node000005_Node000002" class="edge">
<title>Node5&#45;&gt;Node2</title>
<g id="a_edge7_Node000005_Node000002"><a xlink:title=" ">
<path fill="none" stroke="#63b8ff" d="M291.6,-51.82C257.17,-42.07 209.46,-28.55 178.21,-19.7"/>
<polygon fill="#63b8ff" stroke="#63b8ff" points="290.24,-55.07 300.81,-54.43 292.14,-48.34 290.24,-55.07"/>
</a>
</g>
</g>
</g>
</svg>
