<?xml version="1.0" encoding="UTF-8" standalone="no"?>
<!DOCTYPE svg PUBLIC "-//W3C//DTD SVG 1.1//EN"
 "http://www.w3.org/Graphics/SVG/1.1/DTD/svg11.dtd">
<!-- Generated by graphviz version 9.0.0 (20230911.1827)
 -->
<!-- Title: jngl/Color.hpp Pages: 1 -->
<svg width="108pt" height="138pt"
 viewBox="0.00 0.00 108.00 137.75" xmlns="http://www.w3.org/2000/svg" xmlns:xlink="http://www.w3.org/1999/xlink">
<g id="graph0" class="graph" transform="scale(1 1) rotate(0) translate(4 133.75)">
<title>jngl/Color.hpp</title>
<!-- Node1 -->
<g id="Node000001" class="node">
<title>Node1</title>
<g id="a_Node000001"><a xlink:title="Contains jngl::Color class.">
<polygon fill="#999999" stroke="#666666" points="100,-129.75 0,-129.75 0,-110.5 100,-110.5 100,-129.75"/>
<text text-anchor="middle" x="50" y="-116.25" font-family="ui-monospace,monospace" font-size="10.00">jngl/Color.hpp</text>
</a>
</g>
</g>
<!-- Node2 -->
<g id="Node000002" class="node">
<title>Node2</title>
<g id="a_Node000002"><a xlink:href="Rgb_8hpp.html" target="_top" xlink:title="Contains jngl::Rgb class.">
<polygon fill="white" stroke="#666666" points="79,-74.5 21,-74.5 21,-55.25 79,-55.25 79,-74.5"/>
<text text-anchor="middle" x="50" y="-61" font-family="ui-monospace,monospace" font-size="10.00">Rgb.hpp</text>
</a>
</g>
</g>
<!-- Node1&#45;&gt;Node2 -->
<g id="edge1_Node000001_Node000002" class="edge">
<title>Node1&#45;&gt;Node2</title>
<g id="a_edge1_Node000001_Node000002"><a xlink:title=" ">
<path fill="none" stroke="#63b8ff" d="M50,-110.33C50,-103.82 50,-94.67 50,-86.37"/>
<polygon fill="#63b8ff" stroke="#63b8ff" points="53.5,-86.37 50,-76.37 46.5,-86.37 53.5,-86.37"/>
</a>
</g>
</g>
<!-- Node3 -->
<g id="Node000003" class="node">
<title>Node3</title>
<g id="a_Node000003"><a target="_parent" xlink:href="http://en.cppreference.com/w/cpp/header/cstdint.html" xlink:title=" ">
<polygon fill="white" stroke="#666666" points="79,-19.25 21,-19.25 21,0 79,0 79,-19.25"/>
<text text-anchor="middle" x="50" y="-5.75" font-family="ui-monospace,monospace" font-size="10.00">cstdint</text>
</a>
</g>
</g>
<!-- Node2&#45;&gt;Node3 -->
<g id="edge2_Node000002_Node000003" class="edge">
<title>Node2&#45;&gt;Node3</title>
<g id="a_edge2_Node000002_Node000003"><a xlink:title=" ">
<path fill="none" stroke="#63b8ff" d="M50,-55.08C50,-48.57 50,-39.42 50,-31.12"/>
<polygon fill="#63b8ff" stroke="#63b8ff" points="53.5,-31.12 50,-21.12 46.5,-31.12 53.5,-31.12"/>
</a>
</g>
</g>
</g>
</svg>
