<?xml version="1.0" encoding="UTF-8" standalone="no"?>
<!DOCTYPE svg PUBLIC "-//W3C//DTD SVG 1.1//EN"
 "http://www.w3.org/Graphics/SVG/1.1/DTD/svg11.dtd">
<!-- Generated by graphviz version 5.0.0 (0)
 -->
<!-- Title: jngl/Color.hpp Pages: 1 -->
<svg width="515pt" height="137pt"
 viewBox="0.00 0.00 514.59 137.00" xmlns="http://www.w3.org/2000/svg" xmlns:xlink="http://www.w3.org/1999/xlink">
<g id="graph0" class="graph" transform="scale(1 1) rotate(0) translate(4 133)">
<title>jngl/Color.hpp</title>
<!-- Node1 -->
<g id="node1" class="node">
<title>Node1</title>
<g id="a_node1"><a xlink:title="Contains jngl::Color class.">
<polygon fill="#999999" stroke="#666666" points="268.59,-129 167.59,-129 167.59,-110 268.59,-110 268.59,-129"/>
<text text-anchor="middle" x="218.09" y="-117" font-family="ui-monospace,monospace" font-size="10.00">jngl/Color.hpp</text>
</a>
</g>
</g>
<!-- Node2 -->
<g id="node2" class="node">
<title>Node2</title>
<g id="a_node2"><a xlink:href="jngl_8hpp.html" target="_top" xlink:title="Includes all JNGL headers except for init.hpp.">
<polygon fill="white" stroke="#666666" points="250.59,-19 185.59,-19 185.59,0 250.59,0 250.59,-19"/>
<text text-anchor="middle" x="218.09" y="-7" font-family="ui-monospace,monospace" font-size="10.00">jngl.hpp</text>
</a>
</g>
</g>
<!-- Node1&#45;&gt;Node2 -->
<g id="edge1" class="edge">
<title>Node1&#45;&gt;Node2</title>
<path fill="none" stroke="#63b8ff" d="M157.43,-113.91C102.52,-108.35 27.49,-96.73 9.09,-74 -38.57,-15.12 115.39,-9.47 185.35,-9.82"/>
<polygon fill="#63b8ff" stroke="#63b8ff" points="157.14,-117.4 167.43,-114.88 157.82,-110.43 157.14,-117.4"/>
</g>
<!-- Node3 -->
<g id="node3" class="node">
<title>Node3</title>
<g id="a_node3"><a xlink:href="FrameBuffer_8hpp.html" target="_top" xlink:title="Contains jngl::FrameBuffer class.">
<polygon fill="white" stroke="#666666" points="149.59,-74 18.59,-74 18.59,-55 149.59,-55 149.59,-74"/>
<text text-anchor="middle" x="84.09" y="-62" font-family="ui-monospace,monospace" font-size="10.00">jngl/FrameBuffer.hpp</text>
</a>
</g>
</g>
<!-- Node1&#45;&gt;Node3 -->
<g id="edge2" class="edge">
<title>Node1&#45;&gt;Node3</title>
<path fill="none" stroke="#63b8ff" d="M187.22,-106.29C162.38,-96.47 128.1,-82.91 106.01,-74.17"/>
<polygon fill="#63b8ff" stroke="#63b8ff" points="185.97,-109.56 196.56,-109.98 188.55,-103.05 185.97,-109.56"/>
</g>
<!-- Node4 -->
<g id="node4" class="node">
<title>Node4</title>
<g id="a_node4"><a xlink:href="Label_8hpp.html" target="_top" xlink:title="Contains jngl::Label class.">
<polygon fill="white" stroke="#666666" points="268.59,-74 167.59,-74 167.59,-55 268.59,-55 268.59,-74"/>
<text text-anchor="middle" x="218.09" y="-62" font-family="ui-monospace,monospace" font-size="10.00">jngl/Label.hpp</text>
</a>
</g>
</g>
<!-- Node1&#45;&gt;Node4 -->
<g id="edge4" class="edge">
<title>Node1&#45;&gt;Node4</title>
<path fill="none" stroke="#63b8ff" d="M218.09,-99.66C218.09,-90.93 218.09,-80.99 218.09,-74.09"/>
<polygon fill="#63b8ff" stroke="#63b8ff" points="214.59,-99.75 218.09,-109.75 221.59,-99.75 214.59,-99.75"/>
</g>
<!-- Node5 -->
<g id="node5" class="node">
<title>Node5</title>
<g id="a_node5"><a xlink:href="font_8hpp.html" target="_top" xlink:title="Contains jngl::Font class and related functions.">
<polygon fill="white" stroke="#666666" points="381.59,-74 286.59,-74 286.59,-55 381.59,-55 381.59,-74"/>
<text text-anchor="middle" x="334.09" y="-62" font-family="ui-monospace,monospace" font-size="10.00">jngl/font.hpp</text>
</a>
</g>
</g>
<!-- Node1&#45;&gt;Node5 -->
<g id="edge6" class="edge">
<title>Node1&#45;&gt;Node5</title>
<path fill="none" stroke="#63b8ff" d="M245.96,-105.77C267.36,-95.99 296.33,-82.75 315.11,-74.17"/>
<polygon fill="#63b8ff" stroke="#63b8ff" points="244.37,-102.65 236.72,-109.98 247.27,-109.01 244.37,-102.65"/>
</g>
<!-- Node6 -->
<g id="node6" class="node">
<title>Node6</title>
<g id="a_node6"><a xlink:href="shapes_8hpp.html" target="_top" xlink:title="Functions for drawing shapes.">
<polygon fill="white" stroke="#666666" points="506.59,-74 399.59,-74 399.59,-55 506.59,-55 506.59,-74"/>
<text text-anchor="middle" x="453.09" y="-62" font-family="ui-monospace,monospace" font-size="10.00">jngl/shapes.hpp</text>
</a>
</g>
</g>
<!-- Node1&#45;&gt;Node6 -->
<g id="edge8" class="edge">
<title>Node1&#45;&gt;Node6</title>
<path fill="none" stroke="#63b8ff" d="M265.74,-107.75C309.77,-97.82 374.35,-83.26 415.03,-74.08"/>
<polygon fill="#63b8ff" stroke="#63b8ff" points="264.83,-104.37 255.84,-109.98 266.37,-111.2 264.83,-104.37"/>
</g>
<!-- Node3&#45;&gt;Node2 -->
<g id="edge3" class="edge">
<title>Node3&#45;&gt;Node2</title>
<path fill="none" stroke="#63b8ff" d="M114.96,-51.29C139.79,-41.47 174.08,-27.91 196.17,-19.17"/>
<polygon fill="#63b8ff" stroke="#63b8ff" points="113.63,-48.05 105.62,-54.98 116.2,-54.56 113.63,-48.05"/>
</g>
<!-- Node4&#45;&gt;Node2 -->
<g id="edge5" class="edge">
<title>Node4&#45;&gt;Node2</title>
<path fill="none" stroke="#63b8ff" d="M218.09,-44.66C218.09,-35.93 218.09,-25.99 218.09,-19.09"/>
<polygon fill="#63b8ff" stroke="#63b8ff" points="214.59,-44.75 218.09,-54.75 221.59,-44.75 214.59,-44.75"/>
</g>
<!-- Node5&#45;&gt;Node2 -->
<g id="edge7" class="edge">
<title>Node5&#45;&gt;Node2</title>
<path fill="none" stroke="#63b8ff" d="M306.22,-50.77C284.82,-40.99 255.85,-27.75 237.06,-19.17"/>
<polygon fill="#63b8ff" stroke="#63b8ff" points="304.9,-54.01 315.45,-54.98 307.81,-47.65 304.9,-54.01"/>
</g>
<!-- Node6&#45;&gt;Node2 -->
<g id="edge9" class="edge">
<title>Node6&#45;&gt;Node2</title>
<path fill="none" stroke="#63b8ff" d="M405.3,-52.72C359.29,-42.35 290.96,-26.93 250.82,-17.88"/>
<polygon fill="#63b8ff" stroke="#63b8ff" points="404.81,-56.2 415.33,-54.98 406.35,-49.37 404.81,-56.2"/>
</g>
</g>
</svg>
