<?xml version="1.0" encoding="UTF-8" standalone="no"?>
<!DOCTYPE svg PUBLIC "-//W3C//DTD SVG 1.1//EN"
 "http://www.w3.org/Graphics/SVG/1.1/DTD/svg11.dtd">
<!-- Generated by graphviz version 2.43.0 (0)
 -->
<!-- Title: jngl/Color.hpp Pages: 1 -->
<svg width="641pt" height="196pt"
 viewBox="0.00 0.00 640.79 196.00" xmlns="http://www.w3.org/2000/svg" xmlns:xlink="http://www.w3.org/1999/xlink">
<g id="graph0" class="graph" transform="scale(1 1) rotate(0) translate(4 192)">
<title>jngl/Color.hpp</title>
<polygon fill="white" stroke="transparent" points="-4,4 -4,-192 636.79,-192 636.79,4 -4,4"/>
<!-- Node1 -->
<g id="node1" class="node">
<title>Node1</title>
<g id="a_node1"><a xlink:title="Contains jngl::Color class.">
<polygon fill="#bfbfbf" stroke="black" points="212.79,-168.5 212.79,-187.5 313.79,-187.5 313.79,-168.5 212.79,-168.5"/>
<text text-anchor="middle" x="263.29" y="-175.5" font-family="'Consolas',monospace" font-size="10.00">jngl/Color.hpp</text>
</a>
</g>
</g>
<!-- Node2 -->
<g id="node2" class="node">
<title>Node2</title>
<g id="a_node2"><a xlink:href="all_8hpp.html" target="_top" xlink:title="Includes all JNGL headers except for init.hpp.">
<polygon fill="white" stroke="black" points="218.79,-56.5 218.79,-75.5 307.79,-75.5 307.79,-56.5 218.79,-56.5"/>
<text text-anchor="middle" x="263.29" y="-63.5" font-family="'Consolas',monospace" font-size="10.00">jngl/all.hpp</text>
</a>
</g>
</g>
<!-- Node1&#45;&gt;Node2 -->
<g id="edge1" class="edge">
<title>Node1&#45;&gt;Node2</title>
<path fill="none" stroke="midnightblue" d="M202.28,-175.16C133.83,-171.65 29.09,-161.48 4.29,-132 -1.43,-125.2 -1.43,-118.8 4.29,-112 31.17,-80.04 151.97,-70.78 218.68,-68.1"/>
<polygon fill="midnightblue" stroke="midnightblue" points="202.37,-178.66 212.52,-175.64 202.7,-171.67 202.37,-178.66"/>
</g>
<!-- Node4 -->
<g id="node4" class="node">
<title>Node4</title>
<g id="a_node4"><a xlink:href="font_8hpp.html" target="_top" xlink:title="Contains jngl::Font class and related functions.">
<polygon fill="white" stroke="black" points="13.79,-112.5 13.79,-131.5 108.79,-131.5 108.79,-112.5 13.79,-112.5"/>
<text text-anchor="middle" x="61.29" y="-119.5" font-family="'Consolas',monospace" font-size="10.00">jngl/font.hpp</text>
</a>
</g>
</g>
<!-- Node1&#45;&gt;Node4 -->
<g id="edge3" class="edge">
<title>Node1&#45;&gt;Node4</title>
<path fill="none" stroke="midnightblue" d="M221.5,-165.83C183.36,-155.63 127.81,-140.78 93.15,-131.52"/>
<polygon fill="midnightblue" stroke="midnightblue" points="220.72,-169.24 231.28,-168.44 222.53,-162.48 220.72,-169.24"/>
</g>
<!-- Node5 -->
<g id="node5" class="node">
<title>Node5</title>
<g id="a_node5"><a xlink:href="framebuffer_8hpp.html" target="_top" xlink:title="Contains jngl::FrameBuffer class.">
<polygon fill="white" stroke="black" points="126.79,-112.5 126.79,-131.5 263.79,-131.5 263.79,-112.5 126.79,-112.5"/>
<text text-anchor="middle" x="195.29" y="-119.5" font-family="'Consolas',monospace" font-size="10.00">jngl/framebuffer.hpp</text>
</a>
</g>
</g>
<!-- Node1&#45;&gt;Node5 -->
<g id="edge5" class="edge">
<title>Node1&#45;&gt;Node5</title>
<path fill="none" stroke="midnightblue" d="M244.53,-162.1C232.29,-152.38 216.73,-140.03 206.42,-131.83"/>
<polygon fill="midnightblue" stroke="midnightblue" points="242.36,-164.85 252.37,-168.32 246.71,-159.36 242.36,-164.85"/>
</g>
<!-- Node6 -->
<g id="node6" class="node">
<title>Node6</title>
<g id="a_node6"><a xlink:href="Label_8hpp.html" target="_top" xlink:title="Contains jngl::Label class.">
<polygon fill="white" stroke="black" points="281.79,-112.5 281.79,-131.5 382.79,-131.5 382.79,-112.5 281.79,-112.5"/>
<text text-anchor="middle" x="332.29" y="-119.5" font-family="'Consolas',monospace" font-size="10.00">jngl/Label.hpp</text>
</a>
</g>
</g>
<!-- Node1&#45;&gt;Node6 -->
<g id="edge7" class="edge">
<title>Node1&#45;&gt;Node6</title>
<path fill="none" stroke="midnightblue" d="M282.33,-162.1C294.75,-152.38 310.54,-140.03 321,-131.83"/>
<polygon fill="midnightblue" stroke="midnightblue" points="280.1,-159.4 274.38,-168.32 284.41,-164.92 280.1,-159.4"/>
</g>
<!-- Node7 -->
<g id="node7" class="node">
<title>Node7</title>
<g id="a_node7"><a xlink:href="shapes_8hpp.html" target="_top" xlink:title="Functions for drawing shapes.">
<polygon fill="white" stroke="black" points="400.79,-112.5 400.79,-131.5 507.79,-131.5 507.79,-112.5 400.79,-112.5"/>
<text text-anchor="middle" x="454.29" y="-119.5" font-family="'Consolas',monospace" font-size="10.00">jngl/shapes.hpp</text>
</a>
</g>
</g>
<!-- Node1&#45;&gt;Node7 -->
<g id="edge9" class="edge">
<title>Node1&#45;&gt;Node7</title>
<path fill="none" stroke="midnightblue" d="M303.26,-165.7C339.31,-155.51 391.53,-140.74 424.17,-131.52"/>
<polygon fill="midnightblue" stroke="midnightblue" points="302.23,-162.35 293.56,-168.44 304.13,-169.09 302.23,-162.35"/>
</g>
<!-- Node8 -->
<g id="node8" class="node">
<title>Node8</title>
<g id="a_node8"><a xlink:href="sprite_8hpp.html" target="_top" xlink:title="Contains jngl::Sprite class and related functions.">
<polygon fill="white" stroke="black" points="525.79,-112.5 525.79,-131.5 632.79,-131.5 632.79,-112.5 525.79,-112.5"/>
<text text-anchor="middle" x="579.29" y="-119.5" font-family="'Consolas',monospace" font-size="10.00">jngl/sprite.hpp</text>
</a>
</g>
</g>
<!-- Node1&#45;&gt;Node8 -->
<g id="edge11" class="edge">
<title>Node1&#45;&gt;Node8</title>
<path fill="none" stroke="midnightblue" d="M323.4,-166.73C383.12,-156.52 473.62,-141.06 529.45,-131.52"/>
<polygon fill="midnightblue" stroke="midnightblue" points="322.63,-163.31 313.36,-168.44 323.81,-170.21 322.63,-163.31"/>
</g>
<!-- Node3 -->
<g id="node3" class="node">
<title>Node3</title>
<g id="a_node3"><a xlink:href="jngl_8hpp.html" target="_top" xlink:title="Includes jngl/all.hpp.">
<polygon fill="white" stroke="black" points="230.79,-0.5 230.79,-19.5 295.79,-19.5 295.79,-0.5 230.79,-0.5"/>
<text text-anchor="middle" x="263.29" y="-7.5" font-family="'Consolas',monospace" font-size="10.00">jngl.hpp</text>
</a>
</g>
</g>
<!-- Node2&#45;&gt;Node3 -->
<g id="edge2" class="edge">
<title>Node2&#45;&gt;Node3</title>
<path fill="none" stroke="midnightblue" d="M263.29,-45.8C263.29,-36.91 263.29,-26.78 263.29,-19.75"/>
<polygon fill="midnightblue" stroke="midnightblue" points="259.79,-46.08 263.29,-56.08 266.79,-46.08 259.79,-46.08"/>
</g>
<!-- Node4&#45;&gt;Node2 -->
<g id="edge4" class="edge">
<title>Node4&#45;&gt;Node2</title>
<path fill="none" stroke="midnightblue" d="M103.08,-109.83C141.22,-99.63 196.77,-84.78 231.43,-75.52"/>
<polygon fill="midnightblue" stroke="midnightblue" points="102.06,-106.48 93.3,-112.44 103.86,-113.24 102.06,-106.48"/>
</g>
<!-- Node5&#45;&gt;Node2 -->
<g id="edge6" class="edge">
<title>Node5&#45;&gt;Node2</title>
<path fill="none" stroke="midnightblue" d="M214.05,-106.1C226.29,-96.38 241.85,-84.03 252.17,-75.83"/>
<polygon fill="midnightblue" stroke="midnightblue" points="211.87,-103.36 206.22,-112.32 216.22,-108.85 211.87,-103.36"/>
</g>
<!-- Node6&#45;&gt;Node2 -->
<g id="edge8" class="edge">
<title>Node6&#45;&gt;Node2</title>
<path fill="none" stroke="midnightblue" d="M313.25,-106.1C300.84,-96.38 285.05,-84.03 274.58,-75.83"/>
<polygon fill="midnightblue" stroke="midnightblue" points="311.17,-108.92 321.21,-112.32 315.49,-103.4 311.17,-108.92"/>
</g>
<!-- Node7&#45;&gt;Node2 -->
<g id="edge10" class="edge">
<title>Node7&#45;&gt;Node2</title>
<path fill="none" stroke="midnightblue" d="M414.32,-109.7C378.27,-99.51 326.05,-84.74 293.41,-75.52"/>
<polygon fill="midnightblue" stroke="midnightblue" points="413.45,-113.09 424.03,-112.44 415.36,-106.35 413.45,-113.09"/>
</g>
<!-- Node8&#45;&gt;Node2 -->
<g id="edge12" class="edge">
<title>Node8&#45;&gt;Node2</title>
<path fill="none" stroke="midnightblue" d="M519.25,-110.74C457.68,-100.22 363.33,-84.09 308.02,-74.64"/>
<polygon fill="midnightblue" stroke="midnightblue" points="518.77,-114.21 529.22,-112.44 519.95,-107.31 518.77,-114.21"/>
</g>
</g>
</svg>
