<?xml version="1.0" encoding="UTF-8" standalone="no"?>
<!DOCTYPE svg PUBLIC "-//W3C//DTD SVG 1.1//EN"
 "http://www.w3.org/Graphics/SVG/1.1/DTD/svg11.dtd">
<!-- Generated by graphviz version 2.40.1 (0)
 -->
<!-- Title: jngl/Controller.hpp Pages: 1 -->
<svg width="414pt" height="196pt"
 viewBox="0.00 0.00 414.00 196.00" xmlns="http://www.w3.org/2000/svg" xmlns:xlink="http://www.w3.org/1999/xlink">
<g id="graph0" class="graph" transform="scale(1 1) rotate(0) translate(4 192)">
<title>jngl/Controller.hpp</title>
<polygon fill="#ffffff" stroke="transparent" points="-4,4 -4,-192 410,-192 410,4 -4,4"/>
<!-- Node0 -->
<g id="node1" class="node">
<title>Node0</title>
<g id="a_node1"><a xlink:title=" ">
<polygon fill="#bfbfbf" stroke="#000000" points="241,-168.5 241,-187.5 372,-187.5 372,-168.5 241,-168.5"/>
<text text-anchor="middle" x="306.5" y="-175.5" font-family="'Consolas',monospace" font-size="10.00" fill="#000000">jngl/Controller.hpp</text>
</a>
</g>
</g>
<!-- Node1 -->
<g id="node2" class="node">
<title>Node1</title>
<g id="a_node2"><a xlink:href="input_8hpp.html" target="_top" xlink:title=" ">
<polygon fill="#ffffff" stroke="#000000" points="231,-112.5 231,-131.5 302,-131.5 302,-112.5 231,-112.5"/>
<text text-anchor="middle" x="266.5" y="-119.5" font-family="'Consolas',monospace" font-size="10.00" fill="#000000">input.hpp</text>
</a>
</g>
</g>
<!-- Node0&#45;&gt;Node1 -->
<g id="edge1" class="edge">
<title>Node0&#45;&gt;Node1</title>
<path fill="none" stroke="#191970" d="M299.5325,-168.2455C293.9689,-160.4564 286.022,-149.3308 279.3171,-139.9439"/>
<polygon fill="#191970" stroke="#191970" points="282.0481,-137.7457 273.3876,-131.6427 276.352,-141.8144 282.0481,-137.7457"/>
</g>
<!-- Node9 -->
<g id="node10" class="node">
<title>Node9</title>
<g id="a_node10"><a doxygen="/w/doc/cppreference-doxygen-web.tag.xml:http://en.cppreference.com/w/" xlink:href="http://en.cppreference.com/w/cpp/header/chrono.html" xlink:title=" ">
<polygon fill="#ffffff" stroke="#000000" points="320,-112.5 320,-131.5 373,-131.5 373,-112.5 320,-112.5"/>
<text text-anchor="middle" x="346.5" y="-119.5" font-family="'Consolas',monospace" font-size="10.00" fill="#000000">chrono</text>
</a>
</g>
</g>
<!-- Node0&#45;&gt;Node9 -->
<g id="edge9" class="edge">
<title>Node0&#45;&gt;Node9</title>
<path fill="none" stroke="#191970" d="M313.4675,-168.2455C319.0311,-160.4564 326.978,-149.3308 333.6829,-139.9439"/>
<polygon fill="#191970" stroke="#191970" points="336.648,-141.8144 339.6124,-131.6427 330.9519,-137.7457 336.648,-141.8144"/>
</g>
<!-- Node2 -->
<g id="node3" class="node">
<title>Node2</title>
<g id="a_node3"><a xlink:href="Vec2_8hpp.html" target="_top" xlink:title=" ">
<polygon fill="#ffffff" stroke="#000000" points="104,-56.5 104,-75.5 169,-75.5 169,-56.5 104,-56.5"/>
<text text-anchor="middle" x="136.5" y="-63.5" font-family="'Consolas',monospace" font-size="10.00" fill="#000000">Vec2.hpp</text>
</a>
</g>
</g>
<!-- Node1&#45;&gt;Node2 -->
<g id="edge2" class="edge">
<title>Node1&#45;&gt;Node2</title>
<path fill="none" stroke="#191970" d="M244.1522,-112.3733C223.0967,-103.3032 191.3505,-89.6279 167.7825,-79.4755"/>
<polygon fill="#191970" stroke="#191970" points="169.125,-76.243 158.5562,-75.5011 166.3556,-82.6719 169.125,-76.243"/>
</g>
<!-- Node6 -->
<g id="node7" class="node">
<title>Node6</title>
<g id="a_node7"><a doxygen="/w/doc/cppreference-doxygen-web.tag.xml:http://en.cppreference.com/w/" xlink:href="http://en.cppreference.com/w/cpp/header/functional.html" xlink:title=" ">
<polygon fill="#ffffff" stroke="#000000" points="187,-56.5 187,-75.5 264,-75.5 264,-56.5 187,-56.5"/>
<text text-anchor="middle" x="225.5" y="-63.5" font-family="'Consolas',monospace" font-size="10.00" fill="#000000">functional</text>
</a>
</g>
</g>
<!-- Node1&#45;&gt;Node6 -->
<g id="edge6" class="edge">
<title>Node1&#45;&gt;Node6</title>
<path fill="none" stroke="#191970" d="M259.3583,-112.2455C253.6556,-104.4564 245.51,-93.3308 238.6375,-83.9439"/>
<polygon fill="#191970" stroke="#191970" points="241.2913,-81.6437 232.5598,-75.6427 235.6432,-85.7789 241.2913,-81.6437"/>
</g>
<!-- Node7 -->
<g id="node8" class="node">
<title>Node7</title>
<g id="a_node8"><a doxygen="/w/doc/cppreference-doxygen-web.tag.xml:http://en.cppreference.com/w/" xlink:href="http://en.cppreference.com/w/cpp/header/vector.html" xlink:title=" ">
<polygon fill="#ffffff" stroke="#000000" points="282,-56.5 282,-75.5 335,-75.5 335,-56.5 282,-56.5"/>
<text text-anchor="middle" x="308.5" y="-63.5" font-family="'Consolas',monospace" font-size="10.00" fill="#000000">vector</text>
</a>
</g>
</g>
<!-- Node1&#45;&gt;Node7 -->
<g id="edge7" class="edge">
<title>Node1&#45;&gt;Node7</title>
<path fill="none" stroke="#191970" d="M273.8158,-112.2455C279.7179,-104.3761 288.1742,-93.101 295.2594,-83.6542"/>
<polygon fill="#191970" stroke="#191970" points="298.068,-85.7427 301.268,-75.6427 292.4679,-81.5427 298.068,-85.7427"/>
</g>
<!-- Node8 -->
<g id="node9" class="node">
<title>Node8</title>
<g id="a_node9"><a doxygen="/w/doc/cppreference-doxygen-web.tag.xml:http://en.cppreference.com/w/" xlink:href="http://en.cppreference.com/w/cpp/header/memory.html" xlink:title=" ">
<polygon fill="#ffffff" stroke="#000000" points="353,-56.5 353,-75.5 406,-75.5 406,-56.5 353,-56.5"/>
<text text-anchor="middle" x="379.5" y="-63.5" font-family="'Consolas',monospace" font-size="10.00" fill="#000000">memory</text>
</a>
</g>
</g>
<!-- Node1&#45;&gt;Node8 -->
<g id="edge8" class="edge">
<title>Node1&#45;&gt;Node8</title>
<path fill="none" stroke="#191970" d="M285.9254,-112.3733C303.9021,-103.4644 330.8441,-90.1127 351.209,-80.0203"/>
<polygon fill="#191970" stroke="#191970" points="352.9222,-83.0776 360.3281,-75.5011 349.8139,-76.8055 352.9222,-83.0776"/>
</g>
<!-- Node3 -->
<g id="node4" class="node">
<title>Node3</title>
<g id="a_node4"><a xlink:href="dll_8hpp_source.html" target="_top" xlink:title=" ">
<polygon fill="#ffffff" stroke="#000000" points="0,-.5 0,-19.5 59,-19.5 59,-.5 0,-.5"/>
<text text-anchor="middle" x="29.5" y="-7.5" font-family="'Consolas',monospace" font-size="10.00" fill="#000000">dll.hpp</text>
</a>
</g>
</g>
<!-- Node2&#45;&gt;Node3 -->
<g id="edge3" class="edge">
<title>Node2&#45;&gt;Node3</title>
<path fill="none" stroke="#191970" d="M117.862,-56.2455C101.0614,-47.4527 76.1366,-34.4079 57.0382,-24.4125"/>
<polygon fill="#191970" stroke="#191970" points="58.4073,-21.1787 47.9244,-19.6427 55.1614,-27.3807 58.4073,-21.1787"/>
</g>
<!-- Node4 -->
<g id="node5" class="node">
<title>Node4</title>
<g id="a_node5"><a xlink:title=" ">
<polygon fill="#ffffff" stroke="#bfbfbf" points="77,-.5 77,-19.5 196,-19.5 196,-.5 77,-.5"/>
<text text-anchor="middle" x="136.5" y="-7.5" font-family="'Consolas',monospace" font-size="10.00" fill="#000000">boost/version.hpp</text>
</a>
</g>
</g>
<!-- Node2&#45;&gt;Node4 -->
<g id="edge4" class="edge">
<title>Node2&#45;&gt;Node4</title>
<path fill="none" stroke="#191970" d="M136.5,-56.2455C136.5,-48.9382 136.5,-38.6944 136.5,-29.7046"/>
<polygon fill="#191970" stroke="#191970" points="140.0001,-29.6426 136.5,-19.6427 133.0001,-29.6427 140.0001,-29.6426"/>
</g>
<!-- Node5 -->
<g id="node6" class="node">
<title>Node5</title>
<g id="a_node6"><a doxygen="/w/doc/cppreference-doxygen-web.tag.xml:http://en.cppreference.com/w/" xlink:href="http://en.cppreference.com/w/cpp/header/iosfwd.html" xlink:title=" ">
<polygon fill="#ffffff" stroke="#000000" points="214,-.5 214,-19.5 267,-19.5 267,-.5 214,-.5"/>
<text text-anchor="middle" x="240.5" y="-7.5" font-family="'Consolas',monospace" font-size="10.00" fill="#000000">iosfwd</text>
</a>
</g>
</g>
<!-- Node2&#45;&gt;Node5 -->
<g id="edge5" class="edge">
<title>Node2&#45;&gt;Node5</title>
<path fill="none" stroke="#191970" d="M154.6154,-56.2455C170.945,-47.4527 195.171,-34.4079 213.7339,-24.4125"/>
<polygon fill="#191970" stroke="#191970" points="215.4468,-27.4654 222.5922,-19.6427 212.1281,-21.3021 215.4468,-27.4654"/>
</g>
</g>
</svg>
