<?xml version="1.0" encoding="UTF-8" standalone="no"?>
<!DOCTYPE svg PUBLIC "-//W3C//DTD SVG 1.1//EN"
 "http://www.w3.org/Graphics/SVG/1.1/DTD/svg11.dtd">
<!-- Generated by graphviz version 5.0.0 (0)
 -->
<!-- Title: jngl/Container.hpp Pages: 1 -->
<svg width="185pt" height="82pt"
 viewBox="0.00 0.00 185.00 82.00" xmlns="http://www.w3.org/2000/svg" xmlns:xlink="http://www.w3.org/1999/xlink">
<g id="graph0" class="graph" transform="scale(1 1) rotate(0) translate(4 78)">
<title>jngl/Container.hpp</title>
<!-- Node1 -->
<g id="node1" class="node">
<title>Node1</title>
<g id="a_node1"><a xlink:title="Contains jngl::Container class.">
<polygon fill="#999999" stroke="#666666" points="151,-74 26,-74 26,-55 151,-55 151,-74"/>
<text text-anchor="middle" x="88.5" y="-62" font-family="ui-monospace,monospace" font-size="10.00">jngl/Container.hpp</text>
</a>
</g>
</g>
<!-- Node2 -->
<g id="node2" class="node">
<title>Node2</title>
<g id="a_node2"><a target="_parent" xlink:href="http://en.cppreference.com/w/cpp/header/memory.html" xlink:title=" ">
<polygon fill="white" stroke="#666666" points="53,-19 0,-19 0,0 53,0 53,-19"/>
<text text-anchor="middle" x="26.5" y="-7" font-family="ui-monospace,monospace" font-size="10.00">memory</text>
</a>
</g>
</g>
<!-- Node1&#45;&gt;Node2 -->
<g id="edge1" class="edge">
<title>Node1&#45;&gt;Node2</title>
<path fill="none" stroke="#63b8ff" d="M78.54,-54.98C69.37,-47.15 55.56,-35.34 44.47,-25.86"/>
<polygon fill="#63b8ff" stroke="#63b8ff" points="46.52,-23.01 36.64,-19.17 41.97,-28.33 46.52,-23.01"/>
</g>
<!-- Node3 -->
<g id="node3" class="node">
<title>Node3</title>
<g id="a_node3"><a target="_parent" xlink:href="http://en.cppreference.com/w/cpp/header/set.html" xlink:title=" ">
<polygon fill="white" stroke="#666666" points="106,-19 71,-19 71,0 106,0 106,-19"/>
<text text-anchor="middle" x="88.5" y="-7" font-family="ui-monospace,monospace" font-size="10.00">set</text>
</a>
</g>
</g>
<!-- Node1&#45;&gt;Node3 -->
<g id="edge2" class="edge">
<title>Node1&#45;&gt;Node3</title>
<path fill="none" stroke="#63b8ff" d="M88.5,-54.75C88.5,-47.8 88.5,-37.85 88.5,-29.13"/>
<polygon fill="#63b8ff" stroke="#63b8ff" points="92,-29.09 88.5,-19.09 85,-29.09 92,-29.09"/>
</g>
<!-- Node4 -->
<g id="node4" class="node">
<title>Node4</title>
<g id="a_node4"><a target="_parent" xlink:href="http://en.cppreference.com/w/cpp/header/vector.html" xlink:title=" ">
<polygon fill="white" stroke="#666666" points="177,-19 124,-19 124,0 177,0 177,-19"/>
<text text-anchor="middle" x="150.5" y="-7" font-family="ui-monospace,monospace" font-size="10.00">vector</text>
</a>
</g>
</g>
<!-- Node1&#45;&gt;Node4 -->
<g id="edge3" class="edge">
<title>Node1&#45;&gt;Node4</title>
<path fill="none" stroke="#63b8ff" d="M98.46,-54.98C107.63,-47.15 121.44,-35.34 132.53,-25.86"/>
<polygon fill="#63b8ff" stroke="#63b8ff" points="135.03,-28.33 140.36,-19.17 130.48,-23.01 135.03,-28.33"/>
</g>
</g>
</svg>
