<?xml version="1.0" encoding="UTF-8" standalone="no"?>
<!DOCTYPE svg PUBLIC "-//W3C//DTD SVG 1.1//EN"
 "http://www.w3.org/Graphics/SVG/1.1/DTD/svg11.dtd">
<!-- Generated by graphviz version 2.42.4 (0)
 -->
<!-- Title: jngl/Container.hpp Pages: 1 -->
<svg width="185pt" height="84pt"
 viewBox="0.00 0.00 185.00 84.00" xmlns="http://www.w3.org/2000/svg" xmlns:xlink="http://www.w3.org/1999/xlink">
<g id="graph0" class="graph" transform="scale(1 1) rotate(0) translate(4 80)">
<title>jngl/Container.hpp</title>
<polygon fill="white" stroke="transparent" points="-4,4 -4,-80 181,-80 181,4 -4,4"/>
<!-- Node1 -->
<g id="node1" class="node">
<title>Node1</title>
<g id="a_node1"><a xlink:title="Contains jngl::Container class.">
<polygon fill="#bfbfbf" stroke="black" points="26,-56.5 26,-75.5 151,-75.5 151,-56.5 26,-56.5"/>
<text text-anchor="middle" x="88.5" y="-63.5" font-family="'Consolas',monospace" font-size="10.00">jngl/Container.hpp</text>
</a>
</g>
</g>
<!-- Node2 -->
<g id="node2" class="node">
<title>Node2</title>
<g id="a_node2"><a target="_parent" xlink:href="http://en.cppreference.com/w/cpp/header/memory.html" target="_top" xlink:title=" ">
<polygon fill="white" stroke="black" points="0,-0.5 0,-19.5 53,-19.5 53,-0.5 0,-0.5"/>
<text text-anchor="middle" x="26.5" y="-7.5" font-family="'Consolas',monospace" font-size="10.00">memory</text>
</a>
</g>
</g>
<!-- Node1&#45;&gt;Node2 -->
<g id="edge1" class="edge">
<title>Node1&#45;&gt;Node2</title>
<path fill="none" stroke="midnightblue" d="M78.54,-56.32C69.37,-48.34 55.56,-36.31 44.47,-26.65"/>
<polygon fill="midnightblue" stroke="midnightblue" points="46.48,-23.76 36.64,-19.83 41.88,-29.04 46.48,-23.76"/>
</g>
<!-- Node3 -->
<g id="node3" class="node">
<title>Node3</title>
<g id="a_node3"><a target="_parent" xlink:href="http://en.cppreference.com/w/cpp/header/set.html" target="_top" xlink:title=" ">
<polygon fill="white" stroke="black" points="71,-0.5 71,-19.5 106,-19.5 106,-0.5 71,-0.5"/>
<text text-anchor="middle" x="88.5" y="-7.5" font-family="'Consolas',monospace" font-size="10.00">set</text>
</a>
</g>
</g>
<!-- Node1&#45;&gt;Node3 -->
<g id="edge2" class="edge">
<title>Node1&#45;&gt;Node3</title>
<path fill="none" stroke="midnightblue" d="M88.5,-56.08C88.5,-49.01 88.5,-38.86 88.5,-29.99"/>
<polygon fill="midnightblue" stroke="midnightblue" points="92,-29.75 88.5,-19.75 85,-29.75 92,-29.75"/>
</g>
<!-- Node4 -->
<g id="node4" class="node">
<title>Node4</title>
<g id="a_node4"><a target="_parent" xlink:href="http://en.cppreference.com/w/cpp/header/vector.html" target="_top" xlink:title=" ">
<polygon fill="white" stroke="black" points="124,-0.5 124,-19.5 177,-19.5 177,-0.5 124,-0.5"/>
<text text-anchor="middle" x="150.5" y="-7.5" font-family="'Consolas',monospace" font-size="10.00">vector</text>
</a>
</g>
</g>
<!-- Node1&#45;&gt;Node4 -->
<g id="edge3" class="edge">
<title>Node1&#45;&gt;Node4</title>
<path fill="none" stroke="midnightblue" d="M98.46,-56.32C107.63,-48.34 121.44,-36.31 132.53,-26.65"/>
<polygon fill="midnightblue" stroke="midnightblue" points="135.12,-29.04 140.36,-19.83 130.52,-23.76 135.12,-29.04"/>
</g>
</g>
</svg>
