<?xml version="1.0" encoding="UTF-8" standalone="no"?>
<!DOCTYPE svg PUBLIC "-//W3C//DTD SVG 1.1//EN"
 "http://www.w3.org/Graphics/SVG/1.1/DTD/svg11.dtd">
<!-- Generated by graphviz version 12.1.0 (20240811.2233)
 -->
<!-- Title: jngl/Controller.hpp Pages: 1 -->
<svg width="510pt" height="193pt"
 viewBox="0.00 0.00 510.00 193.00" xmlns="http://www.w3.org/2000/svg" xmlns:xlink="http://www.w3.org/1999/xlink">
<g id="graph0" class="graph" transform="scale(1 1) rotate(0) translate(4 189)">
<title>jngl/Controller.hpp</title>
<!-- Node1 -->
<g id="Node000001" class="node">
<title>Node1</title>
<g id="a_Node000001"><a xlink:title="Contains jngl::Controller class.">
<polygon fill="#999999" stroke="#666666" points="312,-185 182,-185 182,-165.75 312,-165.75 312,-185"/>
<text text-anchor="middle" x="247" y="-171.5" font-family="ui-monospace,monospace" font-size="10.00">jngl/Controller.hpp</text>
</a>
</g>
</g>
<!-- Node2 -->
<g id="Node000002" class="node">
<title>Node2</title>
<g id="a_Node000002"><a xlink:href="input_8hpp.html" target="_top" xlink:title="Input related functions.">
<polygon fill="white" stroke="#666666" points="243,-129.75 173,-129.75 173,-110.5 243,-110.5 243,-129.75"/>
<text text-anchor="middle" x="208" y="-116.25" font-family="ui-monospace,monospace" font-size="10.00">input.hpp</text>
</a>
</g>
</g>
<!-- Node1&#45;&gt;Node2 -->
<g id="edge1_Node000001_Node000002" class="edge">
<title>Node1&#45;&gt;Node2</title>
<g id="a_edge1_Node000001_Node000002"><a xlink:title=" ">
<path fill="none" stroke="#63b8ff" d="M240.56,-165.58C235.34,-158.46 227.81,-148.18 221.31,-139.3"/>
<polygon fill="#63b8ff" stroke="#63b8ff" points="224.21,-137.33 215.47,-131.33 218.56,-141.47 224.21,-137.33"/>
</a>
</g>
</g>
<!-- Node11 -->
<g id="Node000011" class="node">
<title>Node11</title>
<g id="a_Node000011"><a target="_parent" xlink:href="http://en.cppreference.com/w/cpp/header/chrono.html" xlink:title=" ">
<polygon fill="white" stroke="#666666" points="313,-129.75 261,-129.75 261,-110.5 313,-110.5 313,-129.75"/>
<text text-anchor="middle" x="287" y="-116.25" font-family="ui-monospace,monospace" font-size="10.00">chrono</text>
</a>
</g>
</g>
<!-- Node1&#45;&gt;Node11 -->
<g id="edge11_Node000001_Node000011" class="edge">
<title>Node1&#45;&gt;Node11</title>
<g id="a_edge11_Node000001_Node000011"><a xlink:title=" ">
<path fill="none" stroke="#63b8ff" d="M253.61,-165.58C258.96,-158.46 266.68,-148.18 273.35,-139.3"/>
<polygon fill="#63b8ff" stroke="#63b8ff" points="276.13,-141.42 279.34,-131.32 270.54,-137.21 276.13,-141.42"/>
</a>
</g>
</g>
<!-- Node3 -->
<g id="Node000003" class="node">
<title>Node3</title>
<g id="a_Node000003"><a xlink:href="Finally_8hpp.html" target="_top" xlink:title="Contains jngl::Finally class.">
<polygon fill="white" stroke="#666666" points="82,-74.5 0,-74.5 0,-55.25 82,-55.25 82,-74.5"/>
<text text-anchor="middle" x="41" y="-61" font-family="ui-monospace,monospace" font-size="10.00">Finally.hpp</text>
</a>
</g>
</g>
<!-- Node2&#45;&gt;Node3 -->
<g id="edge2_Node000002_Node000003" class="edge">
<title>Node2&#45;&gt;Node3</title>
<g id="a_edge2_Node000002_Node000003"><a xlink:title=" ">
<path fill="none" stroke="#63b8ff" d="M179.67,-110.09C152.32,-101.37 110.68,-88.09 80.16,-78.36"/>
<polygon fill="#63b8ff" stroke="#63b8ff" points="81.5,-75.12 70.91,-75.41 79.37,-81.78 81.5,-75.12"/>
</a>
</g>
</g>
<!-- Node4 -->
<g id="Node000004" class="node">
<title>Node4</title>
<g id="a_Node000004"><a target="_parent" xlink:href="http://en.cppreference.com/w/cpp/header/functional.html" xlink:title=" ">
<polygon fill="white" stroke="#666666" points="84,-19.25 8,-19.25 8,0 84,0 84,-19.25"/>
<text text-anchor="middle" x="46" y="-5.75" font-family="ui-monospace,monospace" font-size="10.00">functional</text>
</a>
</g>
</g>
<!-- Node2&#45;&gt;Node4 -->
<g id="edge7_Node000002_Node000004" class="edge">
<title>Node2&#45;&gt;Node4</title>
<g id="a_edge7_Node000002_Node000004"><a xlink:title=" ">
<path fill="none" stroke="#63b8ff" d="M190.32,-110.06C174.02,-101.5 149.36,-87.98 129,-74.5 106.32,-59.47 81.79,-40.19 65.33,-26.76"/>
<polygon fill="#63b8ff" stroke="#63b8ff" points="67.76,-24.22 57.81,-20.57 63.31,-29.63 67.76,-24.22"/>
</a>
</g>
</g>
<!-- Node5 -->
<g id="Node000005" class="node">
<title>Node5</title>
<g id="a_Node000005"><a xlink:href="Vec2_8hpp.html" target="_top" xlink:title="Contains jngl::Vec2 class.">
<polygon fill="white" stroke="#666666" points="202,-74.5 138,-74.5 138,-55.25 202,-55.25 202,-74.5"/>
<text text-anchor="middle" x="170" y="-61" font-family="ui-monospace,monospace" font-size="10.00">Vec2.hpp</text>
</a>
</g>
</g>
<!-- Node2&#45;&gt;Node5 -->
<g id="edge4_Node000002_Node000005" class="edge">
<title>Node2&#45;&gt;Node5</title>
<g id="a_edge4_Node000002_Node000005"><a xlink:title=" ">
<path fill="none" stroke="#63b8ff" d="M201.73,-110.33C196.64,-103.21 189.3,-92.93 182.97,-84.05"/>
<polygon fill="#63b8ff" stroke="#63b8ff" points="185.95,-82.2 177.29,-76.09 180.25,-86.26 185.95,-82.2"/>
</a>
</g>
</g>
<!-- Node8 -->
<g id="Node000008" class="node">
<title>Node8</title>
<g id="a_Node000008"><a target="_parent" xlink:href="http://en.cppreference.com/w/cpp/header/memory.html" xlink:title=" ">
<polygon fill="white" stroke="#666666" points="272,-74.5 220,-74.5 220,-55.25 272,-55.25 272,-74.5"/>
<text text-anchor="middle" x="246" y="-61" font-family="ui-monospace,monospace" font-size="10.00">memory</text>
</a>
</g>
</g>
<!-- Node2&#45;&gt;Node8 -->
<g id="edge8_Node000002_Node000008" class="edge">
<title>Node2&#45;&gt;Node8</title>
<g id="a_edge8_Node000002_Node000008"><a xlink:title=" ">
<path fill="none" stroke="#63b8ff" d="M214.27,-110.33C219.36,-103.21 226.7,-92.93 233.03,-84.05"/>
<polygon fill="#63b8ff" stroke="#63b8ff" points="235.75,-86.26 238.71,-76.09 230.05,-82.2 235.75,-86.26"/>
</a>
</g>
</g>
<!-- Node9 -->
<g id="Node000009" class="node">
<title>Node9</title>
<g id="a_Node000009"><a target="_parent" xlink:href="http://en.cppreference.com/w/cpp/header/vector.html" xlink:title=" ">
<polygon fill="white" stroke="#666666" points="342,-74.5 290,-74.5 290,-55.25 342,-55.25 342,-74.5"/>
<text text-anchor="middle" x="316" y="-61" font-family="ui-monospace,monospace" font-size="10.00">vector</text>
</a>
</g>
</g>
<!-- Node2&#45;&gt;Node9 -->
<g id="edge9_Node000002_Node000009" class="edge">
<title>Node2&#45;&gt;Node9</title>
<g id="a_edge9_Node000002_Node000009"><a xlink:title=" ">
<path fill="none" stroke="#63b8ff" d="M226.32,-110.09C243.08,-101.83 268.13,-89.48 287.5,-79.93"/>
<polygon fill="#63b8ff" stroke="#63b8ff" points="288.81,-83.18 296.23,-75.62 285.72,-76.9 288.81,-83.18"/>
</a>
</g>
</g>
<!-- Node10 -->
<g id="Node000010" class="node">
<title>Node10</title>
<g id="a_Node000010"><a xlink:title=" ">
<polygon fill="#e0e0e0" stroke="#999999" points="502,-74.5 360,-74.5 360,-55.25 502,-55.25 502,-74.5"/>
<text text-anchor="middle" x="431" y="-61" font-family="ui-monospace,monospace" font-size="10.00">experimental/optional</text>
</a>
</g>
</g>
<!-- Node2&#45;&gt;Node10 -->
<g id="edge10_Node000002_Node000010" class="edge">
<title>Node2&#45;&gt;Node10</title>
<g id="a_edge10_Node000002_Node000010"><a xlink:title=" ">
<path fill="none" stroke="#63b8ff" d="M243.34,-110.69C280.68,-101.77 339.87,-87.63 381.78,-77.63"/>
<polygon fill="#63b8ff" stroke="#63b8ff" points="382.46,-81.06 391.37,-75.34 380.83,-74.26 382.46,-81.06"/>
</a>
</g>
</g>
<!-- Node3&#45;&gt;Node4 -->
<g id="edge3_Node000003_Node000004" class="edge">
<title>Node3&#45;&gt;Node4</title>
<g id="a_edge3_Node000003_Node000004"><a xlink:title=" ">
<path fill="none" stroke="#63b8ff" d="M41.83,-55.08C42.44,-48.49 43.32,-39.21 44.1,-30.82"/>
<polygon fill="#63b8ff" stroke="#63b8ff" points="47.56,-31.4 45.01,-21.12 40.6,-30.75 47.56,-31.4"/>
</a>
</g>
</g>
<!-- Node6 -->
<g id="Node000006" class="node">
<title>Node6</title>
<g id="a_Node000006"><a xlink:title=" ">
<polygon fill="#e0e0e0" stroke="#999999" points="229,-19.25 105,-19.25 105,0 229,0 229,-19.25"/>
<text text-anchor="middle" x="167" y="-5.75" font-family="ui-monospace,monospace" font-size="10.00">boost/qvm_lite.hpp</text>
</a>
</g>
</g>
<!-- Node5&#45;&gt;Node6 -->
<g id="edge5_Node000005_Node000006" class="edge">
<title>Node5&#45;&gt;Node6</title>
<g id="a_edge5_Node000005_Node000006"><a xlink:title=" ">
<path fill="none" stroke="#63b8ff" d="M169.5,-55.08C169.13,-48.49 168.61,-39.21 168.14,-30.82"/>
<polygon fill="#63b8ff" stroke="#63b8ff" points="171.65,-30.91 167.59,-21.12 164.66,-31.3 171.65,-30.91"/>
</a>
</g>
</g>
<!-- Node7 -->
<g id="Node000007" class="node">
<title>Node7</title>
<g id="a_Node000007"><a target="_parent" xlink:href="http://en.cppreference.com/w/cpp/header/iosfwd.html" xlink:title=" ">
<polygon fill="white" stroke="#666666" points="299,-19.25 247,-19.25 247,0 299,0 299,-19.25"/>
<text text-anchor="middle" x="273" y="-5.75" font-family="ui-monospace,monospace" font-size="10.00">iosfwd</text>
</a>
</g>
</g>
<!-- Node5&#45;&gt;Node7 -->
<g id="edge6_Node000005_Node000007" class="edge">
<title>Node5&#45;&gt;Node7</title>
<g id="a_edge6_Node000005_Node000007"><a xlink:title=" ">
<path fill="none" stroke="#63b8ff" d="M187.47,-54.84C203.31,-46.66 226.91,-34.46 245.31,-24.94"/>
<polygon fill="#63b8ff" stroke="#63b8ff" points="246.82,-28.1 254.1,-20.4 243.61,-21.88 246.82,-28.1"/>
</a>
</g>
</g>
</g>
</svg>
