<?xml version="1.0" encoding="UTF-8" standalone="no"?>
<!DOCTYPE svg PUBLIC "-//W3C//DTD SVG 1.1//EN"
 "http://www.w3.org/Graphics/SVG/1.1/DTD/svg11.dtd">
<!-- Generated by graphviz version 9.0.0 (20230911.1827)
 -->
<!-- Title: jngl/Container.hpp Pages: 1 -->
<svg width="182pt" height="83pt"
 viewBox="0.00 0.00 182.00 82.50" xmlns="http://www.w3.org/2000/svg" xmlns:xlink="http://www.w3.org/1999/xlink">
<g id="graph0" class="graph" transform="scale(1 1) rotate(0) translate(4 78.5)">
<title>jngl/Container.hpp</title>
<!-- Node1 -->
<g id="Node000001" class="node">
<title>Node1</title>
<g id="a_Node000001"><a xlink:title="Contains jngl::Container class.">
<polygon fill="#999999" stroke="#666666" points="149,-74.5 25,-74.5 25,-55.25 149,-55.25 149,-74.5"/>
<text text-anchor="middle" x="87" y="-61" font-family="ui-monospace,monospace" font-size="10.00">jngl/Container.hpp</text>
</a>
</g>
</g>
<!-- Node2 -->
<g id="Node000002" class="node">
<title>Node2</title>
<g id="a_Node000002"><a target="_parent" xlink:href="http://en.cppreference.com/w/cpp/header/memory.html" xlink:title=" ">
<polygon fill="white" stroke="#666666" points="52,-19.25 0,-19.25 0,0 52,0 52,-19.25"/>
<text text-anchor="middle" x="26" y="-5.75" font-family="ui-monospace,monospace" font-size="10.00">memory</text>
</a>
</g>
</g>
<!-- Node1&#45;&gt;Node2 -->
<g id="edge1_Node000001_Node000002" class="edge">
<title>Node1&#45;&gt;Node2</title>
<g id="a_edge1_Node000001_Node000002"><a xlink:title=" ">
<path fill="none" stroke="#63b8ff" d="M76.65,-54.84C67.92,-47.22 55.21,-36.12 44.7,-26.95"/>
<polygon fill="#63b8ff" stroke="#63b8ff" points="47.17,-24.46 37.34,-20.52 42.57,-29.73 47.17,-24.46"/>
</a>
</g>
</g>
<!-- Node3 -->
<g id="Node000003" class="node">
<title>Node3</title>
<g id="a_Node000003"><a target="_parent" xlink:href="http://en.cppreference.com/w/cpp/header/set.html" xlink:title=" ">
<polygon fill="white" stroke="#666666" points="104,-19.25 70,-19.25 70,0 104,0 104,-19.25"/>
<text text-anchor="middle" x="87" y="-5.75" font-family="ui-monospace,monospace" font-size="10.00">set</text>
</a>
</g>
</g>
<!-- Node1&#45;&gt;Node3 -->
<g id="edge2_Node000001_Node000003" class="edge">
<title>Node1&#45;&gt;Node3</title>
<g id="a_edge2_Node000001_Node000003"><a xlink:title=" ">
<path fill="none" stroke="#63b8ff" d="M87,-55.08C87,-48.57 87,-39.42 87,-31.12"/>
<polygon fill="#63b8ff" stroke="#63b8ff" points="90.5,-31.12 87,-21.12 83.5,-31.12 90.5,-31.12"/>
</a>
</g>
</g>
<!-- Node4 -->
<g id="Node000004" class="node">
<title>Node4</title>
<g id="a_Node000004"><a target="_parent" xlink:href="http://en.cppreference.com/w/cpp/header/vector.html" xlink:title=" ">
<polygon fill="white" stroke="#666666" points="174,-19.25 122,-19.25 122,0 174,0 174,-19.25"/>
<text text-anchor="middle" x="148" y="-5.75" font-family="ui-monospace,monospace" font-size="10.00">vector</text>
</a>
</g>
</g>
<!-- Node1&#45;&gt;Node4 -->
<g id="edge3_Node000001_Node000004" class="edge">
<title>Node1&#45;&gt;Node4</title>
<g id="a_edge3_Node000001_Node000004"><a xlink:title=" ">
<path fill="none" stroke="#63b8ff" d="M97.35,-54.84C106.08,-47.22 118.79,-36.12 129.3,-26.95"/>
<polygon fill="#63b8ff" stroke="#63b8ff" points="131.43,-29.73 136.66,-20.52 126.83,-24.46 131.43,-29.73"/>
</a>
</g>
</g>
</g>
</svg>
