<?xml version="1.0" encoding="UTF-8" standalone="no"?>
<!DOCTYPE svg PUBLIC "-//W3C//DTD SVG 1.1//EN"
 "http://www.w3.org/Graphics/SVG/1.1/DTD/svg11.dtd">
<!-- Generated by graphviz version 5.0.0 (0)
 -->
<!-- Title: jngl/Controller.hpp Pages: 1 -->
<svg width="554pt" height="192pt"
 viewBox="0.00 0.00 554.00 192.00" xmlns="http://www.w3.org/2000/svg" xmlns:xlink="http://www.w3.org/1999/xlink">
<g id="graph0" class="graph" transform="scale(1 1) rotate(0) translate(4 188)">
<title>jngl/Controller.hpp</title>
<!-- Node1 -->
<g id="node1" class="node">
<title>Node1</title>
<g id="a_node1"><a xlink:title="Contains jngl::Controller class.">
<polygon fill="#999999" stroke="#666666" points="393,-184 262,-184 262,-165 393,-165 393,-184"/>
<text text-anchor="middle" x="327.5" y="-172" font-family="ui-monospace,monospace" font-size="10.00">jngl/Controller.hpp</text>
</a>
</g>
</g>
<!-- Node2 -->
<g id="node2" class="node">
<title>Node2</title>
<g id="a_node2"><a xlink:href="input_8hpp.html" target="_top" xlink:title="Input related functions.">
<polygon fill="white" stroke="#666666" points="323,-129 252,-129 252,-110 323,-110 323,-129"/>
<text text-anchor="middle" x="287.5" y="-117" font-family="ui-monospace,monospace" font-size="10.00">input.hpp</text>
</a>
</g>
</g>
<!-- Node1&#45;&gt;Node2 -->
<g id="edge1" class="edge">
<title>Node1&#45;&gt;Node2</title>
<path fill="none" stroke="#63b8ff" d="M320.89,-164.75C315.24,-157.26 306.96,-146.28 300.05,-137.13"/>
<polygon fill="#63b8ff" stroke="#63b8ff" points="302.8,-134.96 293.98,-129.09 297.21,-139.18 302.8,-134.96"/>
</g>
<!-- Node10 -->
<g id="node10" class="node">
<title>Node10</title>
<g id="a_node10"><a target="_parent" xlink:href="http://en.cppreference.com/w/cpp/header/chrono.html" xlink:title=" ">
<polygon fill="white" stroke="#666666" points="394,-129 341,-129 341,-110 394,-110 394,-129"/>
<text text-anchor="middle" x="367.5" y="-117" font-family="ui-monospace,monospace" font-size="10.00">chrono</text>
</a>
</g>
</g>
<!-- Node1&#45;&gt;Node10 -->
<g id="edge9" class="edge">
<title>Node1&#45;&gt;Node10</title>
<path fill="none" stroke="#63b8ff" d="M334.11,-164.75C339.76,-157.26 348.04,-146.28 354.95,-137.13"/>
<polygon fill="#63b8ff" stroke="#63b8ff" points="357.79,-139.18 361.02,-129.09 352.2,-134.96 357.79,-139.18"/>
</g>
<!-- Node3 -->
<g id="node3" class="node">
<title>Node3</title>
<g id="a_node3"><a xlink:href="Vec2_8hpp.html" target="_top" xlink:title="Contains jngl::Vec2 class.">
<polygon fill="white" stroke="#666666" points="148,-74 83,-74 83,-55 148,-55 148,-74"/>
<text text-anchor="middle" x="115.5" y="-62" font-family="ui-monospace,monospace" font-size="10.00">Vec2.hpp</text>
</a>
</g>
</g>
<!-- Node2&#45;&gt;Node3 -->
<g id="edge2" class="edge">
<title>Node2&#45;&gt;Node3</title>
<path fill="none" stroke="#63b8ff" d="M259.87,-109.98C230.99,-101.09 185.49,-87.07 153.3,-77.15"/>
<polygon fill="#63b8ff" stroke="#63b8ff" points="153.94,-73.68 143.35,-74.08 151.88,-80.37 153.94,-73.68"/>
</g>
<!-- Node6 -->
<g id="node6" class="node">
<title>Node6</title>
<g id="a_node6"><a target="_parent" xlink:href="http://en.cppreference.com/w/cpp/header/functional.html" xlink:title=" ">
<polygon fill="white" stroke="#666666" points="243,-74 166,-74 166,-55 243,-55 243,-74"/>
<text text-anchor="middle" x="204.5" y="-62" font-family="ui-monospace,monospace" font-size="10.00">functional</text>
</a>
</g>
</g>
<!-- Node2&#45;&gt;Node6 -->
<g id="edge5" class="edge">
<title>Node2&#45;&gt;Node6</title>
<path fill="none" stroke="#63b8ff" d="M274.16,-109.98C261.41,-101.84 241.95,-89.41 226.83,-79.76"/>
<polygon fill="#63b8ff" stroke="#63b8ff" points="228.39,-76.6 218.08,-74.17 224.62,-82.5 228.39,-76.6"/>
</g>
<!-- Node7 -->
<g id="node7" class="node">
<title>Node7</title>
<g id="a_node7"><a target="_parent" xlink:href="http://en.cppreference.com/w/cpp/header/memory.html" xlink:title=" ">
<polygon fill="white" stroke="#666666" points="314,-74 261,-74 261,-55 314,-55 314,-74"/>
<text text-anchor="middle" x="287.5" y="-62" font-family="ui-monospace,monospace" font-size="10.00">memory</text>
</a>
</g>
</g>
<!-- Node2&#45;&gt;Node7 -->
<g id="edge6" class="edge">
<title>Node2&#45;&gt;Node7</title>
<path fill="none" stroke="#63b8ff" d="M287.5,-109.75C287.5,-102.8 287.5,-92.85 287.5,-84.13"/>
<polygon fill="#63b8ff" stroke="#63b8ff" points="291,-84.09 287.5,-74.09 284,-84.09 291,-84.09"/>
</g>
<!-- Node8 -->
<g id="node8" class="node">
<title>Node8</title>
<g id="a_node8"><a target="_parent" xlink:href="http://en.cppreference.com/w/cpp/header/vector.html" xlink:title=" ">
<polygon fill="white" stroke="#666666" points="385,-74 332,-74 332,-55 385,-55 385,-74"/>
<text text-anchor="middle" x="358.5" y="-62" font-family="ui-monospace,monospace" font-size="10.00">vector</text>
</a>
</g>
</g>
<!-- Node2&#45;&gt;Node8 -->
<g id="edge7" class="edge">
<title>Node2&#45;&gt;Node8</title>
<path fill="none" stroke="#63b8ff" d="M298.91,-109.98C309.61,-102 325.84,-89.88 338.66,-80.31"/>
<polygon fill="#63b8ff" stroke="#63b8ff" points="340.97,-82.96 346.89,-74.17 336.78,-77.35 340.97,-82.96"/>
</g>
<!-- Node9 -->
<g id="node9" class="node">
<title>Node9</title>
<g id="a_node9"><a xlink:title=" ">
<polygon fill="#e0e0e0" stroke="#999999" points="546,-74 403,-74 403,-55 546,-55 546,-74"/>
<text text-anchor="middle" x="474.5" y="-62" font-family="ui-monospace,monospace" font-size="10.00">experimental/optional</text>
</a>
</g>
</g>
<!-- Node2&#45;&gt;Node9 -->
<g id="edge8" class="edge">
<title>Node2&#45;&gt;Node9</title>
<path fill="none" stroke="#63b8ff" d="M317.54,-109.98C349.21,-101.01 399.27,-86.82 434.31,-76.89"/>
<polygon fill="#63b8ff" stroke="#63b8ff" points="435.55,-80.18 444.22,-74.08 433.64,-73.44 435.55,-80.18"/>
</g>
<!-- Node4 -->
<g id="node4" class="node">
<title>Node4</title>
<g id="a_node4"><a xlink:title=" ">
<polygon fill="#e0e0e0" stroke="#999999" points="125,-19 0,-19 0,0 125,0 125,-19"/>
<text text-anchor="middle" x="62.5" y="-7" font-family="ui-monospace,monospace" font-size="10.00">boost/qvm_lite.hpp</text>
</a>
</g>
</g>
<!-- Node3&#45;&gt;Node4 -->
<g id="edge3" class="edge">
<title>Node3&#45;&gt;Node4</title>
<path fill="none" stroke="#63b8ff" d="M106.75,-54.75C99.03,-47.03 87.6,-35.6 78.28,-26.28"/>
<polygon fill="#63b8ff" stroke="#63b8ff" points="80.64,-23.69 71.09,-19.09 75.69,-28.64 80.64,-23.69"/>
</g>
<!-- Node5 -->
<g id="node5" class="node">
<title>Node5</title>
<g id="a_node5"><a target="_parent" xlink:href="http://en.cppreference.com/w/cpp/header/iosfwd.html" xlink:title=" ">
<polygon fill="white" stroke="#666666" points="196,-19 143,-19 143,0 196,0 196,-19"/>
<text text-anchor="middle" x="169.5" y="-7" font-family="ui-monospace,monospace" font-size="10.00">iosfwd</text>
</a>
</g>
</g>
<!-- Node3&#45;&gt;Node5 -->
<g id="edge4" class="edge">
<title>Node3&#45;&gt;Node5</title>
<path fill="none" stroke="#63b8ff" d="M124.42,-54.75C132.28,-47.03 143.93,-35.6 153.42,-26.28"/>
<polygon fill="#63b8ff" stroke="#63b8ff" points="156.06,-28.59 160.75,-19.09 151.16,-23.6 156.06,-28.59"/>
</g>
</g>
</svg>
