<?xml version="1.0" encoding="UTF-8" standalone="no"?>
<!DOCTYPE svg PUBLIC "-//W3C//DTD SVG 1.1//EN"
 "http://www.w3.org/Graphics/SVG/1.1/DTD/svg11.dtd">
<!-- Generated by graphviz version 2.44.0 (0)
 -->
<!-- Title: jngl/debug.hpp Pages: 1 -->
<svg width="168pt" height="140pt"
 viewBox="0.00 0.00 168.00 140.00" xmlns="http://www.w3.org/2000/svg" xmlns:xlink="http://www.w3.org/1999/xlink">
<g id="graph0" class="graph" transform="scale(1 1) rotate(0) translate(4 136)">
<title>jngl/debug.hpp</title>
<polygon fill="white" stroke="transparent" points="-4,4 -4,-136 164,-136 164,4 -4,4"/>
<!-- Node1 -->
<g id="node1" class="node">
<title>Node1</title>
<g id="a_node1"><a xlink:title="Logging functions for debug purposes.">
<polygon fill="#bfbfbf" stroke="black" points="35,-112.5 35,-131.5 136,-131.5 136,-112.5 35,-112.5"/>
<text text-anchor="middle" x="85.5" y="-119.5" font-family="'Consolas',monospace" font-size="10.00">jngl/debug.hpp</text>
</a>
</g>
</g>
<!-- Node2 -->
<g id="node2" class="node">
<title>Node2</title>
<g id="a_node2"><a xlink:href="message_8hpp.html" target="_top" xlink:title=" ">
<polygon fill="white" stroke="black" points="0,-56.5 0,-75.5 83,-75.5 83,-56.5 0,-56.5"/>
<text text-anchor="middle" x="41.5" y="-63.5" font-family="'Consolas',monospace" font-size="10.00">message.hpp</text>
</a>
</g>
</g>
<!-- Node1&#45;&gt;Node2 -->
<g id="edge1" class="edge">
<title>Node1&#45;&gt;Node2</title>
<path fill="none" stroke="midnightblue" d="M78.23,-112.08C71.96,-104.38 62.71,-93.03 55.07,-83.65"/>
<polygon fill="midnightblue" stroke="midnightblue" points="57.66,-81.29 48.63,-75.75 52.23,-85.71 57.66,-81.29"/>
</g>
<!-- Node4 -->
<g id="node4" class="node">
<title>Node4</title>
<g id="a_node4"><a target="_parent" xlink:href="http://en.cppreference.com/w/cpp/header/sstream.html" xlink:title=" ">
<polygon fill="white" stroke="black" points="101,-56.5 101,-75.5 160,-75.5 160,-56.5 101,-56.5"/>
<text text-anchor="middle" x="130.5" y="-63.5" font-family="'Consolas',monospace" font-size="10.00">sstream</text>
</a>
</g>
</g>
<!-- Node1&#45;&gt;Node4 -->
<g id="edge3" class="edge">
<title>Node1&#45;&gt;Node4</title>
<path fill="none" stroke="midnightblue" d="M92.93,-112.08C99.35,-104.38 108.81,-93.03 116.62,-83.65"/>
<polygon fill="midnightblue" stroke="midnightblue" points="119.49,-85.67 123.21,-75.75 114.12,-81.19 119.49,-85.67"/>
</g>
<!-- Node3 -->
<g id="node3" class="node">
<title>Node3</title>
<g id="a_node3"><a target="_parent" xlink:href="http://en.cppreference.com/w/cpp/header/string.html" xlink:title=" ">
<polygon fill="white" stroke="black" points="15,-0.5 15,-19.5 68,-19.5 68,-0.5 15,-0.5"/>
<text text-anchor="middle" x="41.5" y="-7.5" font-family="'Consolas',monospace" font-size="10.00">string</text>
</a>
</g>
</g>
<!-- Node2&#45;&gt;Node3 -->
<g id="edge2" class="edge">
<title>Node2&#45;&gt;Node3</title>
<path fill="none" stroke="midnightblue" d="M41.5,-56.08C41.5,-49.01 41.5,-38.86 41.5,-29.99"/>
<polygon fill="midnightblue" stroke="midnightblue" points="45,-29.75 41.5,-19.75 38,-29.75 45,-29.75"/>
</g>
</g>
</svg>
