<?xml version="1.0" encoding="UTF-8" standalone="no"?>
<!DOCTYPE svg PUBLIC "-//W3C//DTD SVG 1.1//EN"
 "http://www.w3.org/Graphics/SVG/1.1/DTD/svg11.dtd">
<!-- Generated by graphviz version 9.0.0 (20230911.1827)
 -->
<!-- Title: jngl/debug.hpp Pages: 1 -->
<svg width="166pt" height="138pt"
 viewBox="0.00 0.00 166.00 137.75" xmlns="http://www.w3.org/2000/svg" xmlns:xlink="http://www.w3.org/1999/xlink">
<g id="graph0" class="graph" transform="scale(1 1) rotate(0) translate(4 133.75)">
<title>jngl/debug.hpp</title>
<!-- Node1 -->
<g id="Node000001" class="node">
<title>Node1</title>
<g id="a_Node000001"><a xlink:title="Logging functions for debug purposes, deprecated in favor of log.hpp.">
<polygon fill="#999999" stroke="#666666" points="135,-129.75 35,-129.75 35,-110.5 135,-110.5 135,-129.75"/>
<text text-anchor="middle" x="85" y="-116.25" font-family="ui-monospace,monospace" font-size="10.00">jngl/debug.hpp</text>
</a>
</g>
</g>
<!-- Node2 -->
<g id="Node000002" class="node">
<title>Node2</title>
<g id="a_Node000002"><a xlink:href="message_8hpp.html" target="_top" xlink:title=" ">
<polygon fill="white" stroke="#666666" points="82,-74.5 0,-74.5 0,-55.25 82,-55.25 82,-74.5"/>
<text text-anchor="middle" x="41" y="-61" font-family="ui-monospace,monospace" font-size="10.00">message.hpp</text>
</a>
</g>
</g>
<!-- Node1&#45;&gt;Node2 -->
<g id="edge1_Node000001_Node000002" class="edge">
<title>Node1&#45;&gt;Node2</title>
<g id="a_edge1_Node000001_Node000002"><a xlink:title=" ">
<path fill="none" stroke="#63b8ff" d="M77.73,-110.33C71.72,-103.05 62.99,-92.48 55.54,-83.48"/>
<polygon fill="#63b8ff" stroke="#63b8ff" points="58.46,-81.51 49.39,-76.03 53.06,-85.96 58.46,-81.51"/>
</a>
</g>
</g>
<!-- Node4 -->
<g id="Node000004" class="node">
<title>Node4</title>
<g id="a_Node000004"><a target="_parent" xlink:href="http://en.cppreference.com/w/cpp/header/sstream.html" xlink:title=" ">
<polygon fill="white" stroke="#666666" points="158,-74.5 100,-74.5 100,-55.25 158,-55.25 158,-74.5"/>
<text text-anchor="middle" x="129" y="-61" font-family="ui-monospace,monospace" font-size="10.00">sstream</text>
</a>
</g>
</g>
<!-- Node1&#45;&gt;Node4 -->
<g id="edge3_Node000001_Node000004" class="edge">
<title>Node1&#45;&gt;Node4</title>
<g id="a_edge3_Node000001_Node000004"><a xlink:title=" ">
<path fill="none" stroke="#63b8ff" d="M92.27,-110.33C98.28,-103.05 107.01,-92.48 114.46,-83.48"/>
<polygon fill="#63b8ff" stroke="#63b8ff" points="116.94,-85.96 120.61,-76.03 111.54,-81.51 116.94,-85.96"/>
</a>
</g>
</g>
<!-- Node3 -->
<g id="Node000003" class="node">
<title>Node3</title>
<g id="a_Node000003"><a target="_parent" xlink:href="http://en.cppreference.com/w/cpp/header/string.html" xlink:title=" ">
<polygon fill="white" stroke="#666666" points="67,-19.25 15,-19.25 15,0 67,0 67,-19.25"/>
<text text-anchor="middle" x="41" y="-5.75" font-family="ui-monospace,monospace" font-size="10.00">string</text>
</a>
</g>
</g>
<!-- Node2&#45;&gt;Node3 -->
<g id="edge2_Node000002_Node000003" class="edge">
<title>Node2&#45;&gt;Node3</title>
<g id="a_edge2_Node000002_Node000003"><a xlink:title=" ">
<path fill="none" stroke="#63b8ff" d="M41,-55.08C41,-48.57 41,-39.42 41,-31.12"/>
<polygon fill="#63b8ff" stroke="#63b8ff" points="44.5,-31.12 41,-21.12 37.5,-31.12 44.5,-31.12"/>
</a>
</g>
</g>
</g>
</svg>
