<?xml version="1.0" encoding="UTF-8" standalone="no"?>
<!DOCTYPE svg PUBLIC "-//W3C//DTD SVG 1.1//EN"
 "http://www.w3.org/Graphics/SVG/1.1/DTD/svg11.dtd">
<!-- Generated by graphviz version 2.42.4 (0)
 -->
<!-- Title: jngl/Drawable.hpp Pages: 1 -->
<svg width="382pt" height="252pt"
 viewBox="0.00 0.00 382.10 252.00" xmlns="http://www.w3.org/2000/svg" xmlns:xlink="http://www.w3.org/1999/xlink">
<g id="graph0" class="graph" transform="scale(1 1) rotate(0) translate(4 248)">
<title>jngl/Drawable.hpp</title>
<polygon fill="white" stroke="transparent" points="-4,4 -4,-248 378.1,-248 378.1,4 -4,4"/>
<!-- Node1 -->
<g id="node1" class="node">
<title>Node1</title>
<g id="a_node1"><a xlink:title="Contains jngl::Drawable class.">
<polygon fill="#bfbfbf" stroke="black" points="70.1,-224.5 70.1,-243.5 189.1,-243.5 189.1,-224.5 70.1,-224.5"/>
<text text-anchor="middle" x="129.6" y="-231.5" font-family="'Consolas',monospace" font-size="10.00">jngl/Drawable.hpp</text>
</a>
</g>
</g>
<!-- Node2 -->
<g id="node2" class="node">
<title>Node2</title>
<g id="a_node2"><a xlink:href="all_8hpp.html" target="_top" xlink:title="Includes all JNGL headers except for init.hpp.">
<polygon fill="white" stroke="black" points="61.1,-56.5 61.1,-75.5 150.1,-75.5 150.1,-56.5 61.1,-56.5"/>
<text text-anchor="middle" x="105.6" y="-63.5" font-family="'Consolas',monospace" font-size="10.00">jngl/all.hpp</text>
</a>
</g>
</g>
<!-- Node1&#45;&gt;Node2 -->
<g id="edge1" class="edge">
<title>Node1&#45;&gt;Node2</title>
<path fill="none" stroke="midnightblue" d="M60.33,-222.95C39.99,-216.42 19.91,-205.67 7.6,-188 -23.24,-143.76 53.5,-94.99 88.88,-75.61"/>
<polygon fill="midnightblue" stroke="midnightblue" points="59.41,-226.33 69.99,-225.75 61.36,-219.6 59.41,-226.33"/>
</g>
<!-- Node4 -->
<g id="node4" class="node">
<title>Node4</title>
<g id="a_node4"><a xlink:href="sprite_8hpp.html" target="_top" xlink:title="Contains jngl::Sprite class and related functions.">
<polygon fill="white" stroke="black" points="17.1,-168.5 17.1,-187.5 124.1,-187.5 124.1,-168.5 17.1,-168.5"/>
<text text-anchor="middle" x="70.6" y="-175.5" font-family="'Consolas',monospace" font-size="10.00">jngl/sprite.hpp</text>
</a>
</g>
</g>
<!-- Node1&#45;&gt;Node4 -->
<g id="edge3" class="edge">
<title>Node1&#45;&gt;Node4</title>
<path fill="none" stroke="midnightblue" d="M112.7,-217.54C102.18,-207.91 89.03,-195.87 80.25,-187.83"/>
<polygon fill="midnightblue" stroke="midnightblue" points="110.38,-220.15 120.12,-224.32 115.1,-214.99 110.38,-220.15"/>
</g>
<!-- Node6 -->
<g id="node6" class="node">
<title>Node6</title>
<g id="a_node6"><a xlink:href="text_8hpp.html" target="_top" xlink:title=" ">
<polygon fill="white" stroke="black" points="142.1,-168.5 142.1,-187.5 237.1,-187.5 237.1,-168.5 142.1,-168.5"/>
<text text-anchor="middle" x="189.6" y="-175.5" font-family="'Consolas',monospace" font-size="10.00">jngl/text.hpp</text>
</a>
</g>
</g>
<!-- Node1&#45;&gt;Node6 -->
<g id="edge7" class="edge">
<title>Node1&#45;&gt;Node6</title>
<path fill="none" stroke="midnightblue" d="M146.78,-217.54C157.48,-207.91 170.85,-195.87 179.78,-187.83"/>
<polygon fill="midnightblue" stroke="midnightblue" points="144.33,-215.03 139.24,-224.32 149.01,-220.24 144.33,-215.03"/>
</g>
<!-- Node8 -->
<g id="node8" class="node">
<title>Node8</title>
<g id="a_node8"><a xlink:href="TextLine_8hpp.html" target="_top" xlink:title="Contains jngl::TextLine class.">
<polygon fill="white" stroke="black" points="255.1,-168.5 255.1,-187.5 374.1,-187.5 374.1,-168.5 255.1,-168.5"/>
<text text-anchor="middle" x="314.6" y="-175.5" font-family="'Consolas',monospace" font-size="10.00">jngl/TextLine.hpp</text>
</a>
</g>
</g>
<!-- Node1&#45;&gt;Node8 -->
<g id="edge11" class="edge">
<title>Node1&#45;&gt;Node8</title>
<path fill="none" stroke="midnightblue" d="M168.76,-221.57C203.66,-211.38 253.95,-196.7 285.42,-187.52"/>
<polygon fill="midnightblue" stroke="midnightblue" points="167.53,-218.28 158.91,-224.44 169.49,-225 167.53,-218.28"/>
</g>
<!-- Node3 -->
<g id="node3" class="node">
<title>Node3</title>
<g id="a_node3"><a xlink:href="jngl_8hpp.html" target="_top" xlink:title="Includes jngl/all.hpp.">
<polygon fill="white" stroke="black" points="73.1,-0.5 73.1,-19.5 138.1,-19.5 138.1,-0.5 73.1,-0.5"/>
<text text-anchor="middle" x="105.6" y="-7.5" font-family="'Consolas',monospace" font-size="10.00">jngl.hpp</text>
</a>
</g>
</g>
<!-- Node2&#45;&gt;Node3 -->
<g id="edge2" class="edge">
<title>Node2&#45;&gt;Node3</title>
<path fill="none" stroke="midnightblue" d="M105.6,-45.8C105.6,-36.91 105.6,-26.78 105.6,-19.75"/>
<polygon fill="midnightblue" stroke="midnightblue" points="102.1,-46.08 105.6,-56.08 109.1,-46.08 102.1,-46.08"/>
</g>
<!-- Node4&#45;&gt;Node2 -->
<g id="edge4" class="edge">
<title>Node4&#45;&gt;Node2</title>
<path fill="none" stroke="midnightblue" d="M56.39,-160.12C46.98,-146.77 37.69,-127.82 45.6,-112 54.04,-95.11 72.17,-82.92 86.3,-75.52"/>
<polygon fill="midnightblue" stroke="midnightblue" points="53.85,-162.56 62.72,-168.36 59.4,-158.3 53.85,-162.56"/>
</g>
<!-- Node5 -->
<g id="node5" class="node">
<title>Node5</title>
<g id="a_node5"><a xlink:href="Video_8hpp.html" target="_top" xlink:title=" ">
<polygon fill="white" stroke="black" points="55.1,-112.5 55.1,-131.5 156.1,-131.5 156.1,-112.5 55.1,-112.5"/>
<text text-anchor="middle" x="105.6" y="-119.5" font-family="'Consolas',monospace" font-size="10.00">jngl/Video.hpp</text>
</a>
</g>
</g>
<!-- Node4&#45;&gt;Node5 -->
<g id="edge5" class="edge">
<title>Node4&#45;&gt;Node5</title>
<path fill="none" stroke="midnightblue" d="M81.9,-159.57C87.92,-150.27 95.06,-139.25 99.92,-131.75"/>
<polygon fill="midnightblue" stroke="midnightblue" points="78.88,-157.79 76.38,-168.08 84.75,-161.6 78.88,-157.79"/>
</g>
<!-- Node5&#45;&gt;Node2 -->
<g id="edge6" class="edge">
<title>Node5&#45;&gt;Node2</title>
<path fill="none" stroke="midnightblue" d="M105.6,-101.8C105.6,-92.91 105.6,-82.78 105.6,-75.75"/>
<polygon fill="midnightblue" stroke="midnightblue" points="102.1,-102.08 105.6,-112.08 109.1,-102.08 102.1,-102.08"/>
</g>
<!-- Node6&#45;&gt;Node2 -->
<g id="edge8" class="edge">
<title>Node6&#45;&gt;Node2</title>
<path fill="none" stroke="midnightblue" d="M185.39,-158.45C181.61,-144.65 175.01,-125.89 164.6,-112 152.93,-96.43 134.5,-83.58 121.34,-75.65"/>
<polygon fill="midnightblue" stroke="midnightblue" points="182.02,-159.41 187.85,-168.26 188.82,-157.71 182.02,-159.41"/>
</g>
<!-- Node7 -->
<g id="node7" class="node">
<title>Node7</title>
<g id="a_node7"><a xlink:href="Label_8hpp_source.html" target="_top" xlink:title=" ">
<polygon fill="white" stroke="black" points="213.1,-112.5 213.1,-131.5 314.1,-131.5 314.1,-112.5 213.1,-112.5"/>
<text text-anchor="middle" x="263.6" y="-119.5" font-family="'Consolas',monospace" font-size="10.00">jngl/Label.hpp</text>
</a>
</g>
</g>
<!-- Node6&#45;&gt;Node7 -->
<g id="edge9" class="edge">
<title>Node6&#45;&gt;Node7</title>
<path fill="none" stroke="midnightblue" d="M209.63,-162.38C223.01,-152.62 240.15,-140.11 251.49,-131.83"/>
<polygon fill="midnightblue" stroke="midnightblue" points="207.5,-159.6 201.49,-168.32 211.63,-165.26 207.5,-159.6"/>
</g>
<!-- Node7&#45;&gt;Node2 -->
<g id="edge10" class="edge">
<title>Node7&#45;&gt;Node2</title>
<path fill="none" stroke="midnightblue" d="M228.99,-109.17C199.24,-99 157.05,-84.59 130.51,-75.52"/>
<polygon fill="midnightblue" stroke="midnightblue" points="227.97,-112.52 238.56,-112.44 230.23,-105.9 227.97,-112.52"/>
</g>
</g>
</svg>
