<?xml version="1.0" encoding="UTF-8" standalone="no"?>
<!DOCTYPE svg PUBLIC "-//W3C//DTD SVG 1.1//EN"
 "http://www.w3.org/Graphics/SVG/1.1/DTD/svg11.dtd">
<!-- Generated by graphviz version 2.42.4 (0)
 -->
<!-- Title: jngl/Drawable.hpp Pages: 1 -->
<svg width="362pt" height="252pt"
 viewBox="0.00 0.00 361.55 252.00" xmlns="http://www.w3.org/2000/svg" xmlns:xlink="http://www.w3.org/1999/xlink">
<g id="graph0" class="graph" transform="scale(1 1) rotate(0) translate(4 248)">
<title>jngl/Drawable.hpp</title>
<polygon fill="white" stroke="transparent" points="-4,4 -4,-248 357.55,-248 357.55,4 -4,4"/>
<!-- Node1 -->
<g id="node1" class="node">
<title>Node1</title>
<g id="a_node1"><a xlink:title="Contains jngl::Drawable class.">
<polygon fill="#bfbfbf" stroke="black" points="55.55,-224.5 55.55,-243.5 174.55,-243.5 174.55,-224.5 55.55,-224.5"/>
<text text-anchor="middle" x="115.05" y="-231.5" font-family="'Consolas',monospace" font-size="10.00">jngl/Drawable.hpp</text>
</a>
</g>
</g>
<!-- Node2 -->
<g id="node2" class="node">
<title>Node2</title>
<g id="a_node2"><a xlink:href="all_8hpp.html" target="_top" xlink:title="Includes all JNGL headers except for init.hpp.">
<polygon fill="white" stroke="black" points="108.55,-56.5 108.55,-75.5 197.55,-75.5 197.55,-56.5 108.55,-56.5"/>
<text text-anchor="middle" x="153.05" y="-63.5" font-family="'Consolas',monospace" font-size="10.00">jngl/all.hpp</text>
</a>
</g>
</g>
<!-- Node1&#45;&gt;Node2 -->
<g id="edge1" class="edge">
<title>Node1&#45;&gt;Node2</title>
<path fill="none" stroke="midnightblue" d="M87.57,-219.75C46.57,-198.17 -22.66,-153.68 8.05,-112 30.87,-81.02 74.82,-70.74 108.38,-67.62"/>
<polygon fill="midnightblue" stroke="midnightblue" points="86.08,-222.91 96.57,-224.36 89.27,-216.68 86.08,-222.91"/>
</g>
<!-- Node4 -->
<g id="node4" class="node">
<title>Node4</title>
<g id="a_node4"><a xlink:href="sprite_8hpp.html" target="_top" xlink:title="Contains jngl::Sprite class and related functions.">
<polygon fill="white" stroke="black" points="17.55,-112.5 17.55,-131.5 124.55,-131.5 124.55,-112.5 17.55,-112.5"/>
<text text-anchor="middle" x="71.05" y="-119.5" font-family="'Consolas',monospace" font-size="10.00">jngl/sprite.hpp</text>
</a>
</g>
</g>
<!-- Node1&#45;&gt;Node4 -->
<g id="edge3" class="edge">
<title>Node1&#45;&gt;Node4</title>
<path fill="none" stroke="midnightblue" d="M107.85,-215C98.25,-191 81.63,-149.47 74.48,-131.59"/>
<polygon fill="midnightblue" stroke="midnightblue" points="104.63,-216.38 111.59,-224.37 111.13,-213.78 104.63,-216.38"/>
</g>
<!-- Node5 -->
<g id="node5" class="node">
<title>Node5</title>
<g id="a_node5"><a xlink:href="text_8hpp.html" target="_top" xlink:title=" ">
<polygon fill="white" stroke="black" points="105.55,-168.5 105.55,-187.5 200.55,-187.5 200.55,-168.5 105.55,-168.5"/>
<text text-anchor="middle" x="153.05" y="-175.5" font-family="'Consolas',monospace" font-size="10.00">jngl/text.hpp</text>
</a>
</g>
</g>
<!-- Node1&#45;&gt;Node5 -->
<g id="edge5" class="edge">
<title>Node1&#45;&gt;Node5</title>
<path fill="none" stroke="midnightblue" d="M127.11,-215.86C133.69,-206.5 141.56,-195.33 146.89,-187.75"/>
<polygon fill="midnightblue" stroke="midnightblue" points="124.21,-213.89 121.32,-224.08 129.94,-217.92 124.21,-213.89"/>
</g>
<!-- Node7 -->
<g id="node7" class="node">
<title>Node7</title>
<g id="a_node7"><a xlink:href="TextLine_8hpp.html" target="_top" xlink:title="Contains jngl::TextLine class.">
<polygon fill="white" stroke="black" points="234.55,-168.5 234.55,-187.5 353.55,-187.5 353.55,-168.5 234.55,-168.5"/>
<text text-anchor="middle" x="294.05" y="-175.5" font-family="'Consolas',monospace" font-size="10.00">jngl/TextLine.hpp</text>
</a>
</g>
</g>
<!-- Node1&#45;&gt;Node7 -->
<g id="edge9" class="edge">
<title>Node1&#45;&gt;Node7</title>
<path fill="none" stroke="midnightblue" d="M153.38,-221.44C187.13,-211.26 235.49,-196.66 265.82,-187.52"/>
<polygon fill="midnightblue" stroke="midnightblue" points="151.97,-218.2 143.41,-224.44 153.99,-224.91 151.97,-218.2"/>
</g>
<!-- Node3 -->
<g id="node3" class="node">
<title>Node3</title>
<g id="a_node3"><a xlink:href="jngl_8hpp.html" target="_top" xlink:title="Includes jngl/all.hpp.">
<polygon fill="white" stroke="black" points="120.55,-0.5 120.55,-19.5 185.55,-19.5 185.55,-0.5 120.55,-0.5"/>
<text text-anchor="middle" x="153.05" y="-7.5" font-family="'Consolas',monospace" font-size="10.00">jngl.hpp</text>
</a>
</g>
</g>
<!-- Node2&#45;&gt;Node3 -->
<g id="edge2" class="edge">
<title>Node2&#45;&gt;Node3</title>
<path fill="none" stroke="midnightblue" d="M153.05,-45.8C153.05,-36.91 153.05,-26.78 153.05,-19.75"/>
<polygon fill="midnightblue" stroke="midnightblue" points="149.55,-46.08 153.05,-56.08 156.55,-46.08 149.55,-46.08"/>
</g>
<!-- Node4&#45;&gt;Node2 -->
<g id="edge4" class="edge">
<title>Node4&#45;&gt;Node2</title>
<path fill="none" stroke="midnightblue" d="M92.88,-106.62C107.86,-96.76 127.24,-83.99 139.9,-75.65"/>
<polygon fill="midnightblue" stroke="midnightblue" points="90.65,-103.9 84.22,-112.32 94.5,-109.75 90.65,-103.9"/>
</g>
<!-- Node5&#45;&gt;Node2 -->
<g id="edge6" class="edge">
<title>Node5&#45;&gt;Node2</title>
<path fill="none" stroke="midnightblue" d="M153.05,-158.35C153.05,-134.25 153.05,-93.31 153.05,-75.59"/>
<polygon fill="midnightblue" stroke="midnightblue" points="149.55,-158.37 153.05,-168.37 156.55,-158.37 149.55,-158.37"/>
</g>
<!-- Node6 -->
<g id="node6" class="node">
<title>Node6</title>
<g id="a_node6"><a xlink:href="Label_8hpp_source.html" target="_top" xlink:title=" ">
<polygon fill="white" stroke="black" points="181.55,-112.5 181.55,-131.5 282.55,-131.5 282.55,-112.5 181.55,-112.5"/>
<text text-anchor="middle" x="232.05" y="-119.5" font-family="'Consolas',monospace" font-size="10.00">jngl/Label.hpp</text>
</a>
</g>
</g>
<!-- Node5&#45;&gt;Node6 -->
<g id="edge7" class="edge">
<title>Node5&#45;&gt;Node6</title>
<path fill="none" stroke="midnightblue" d="M174.08,-162.62C188.51,-152.76 207.19,-139.99 219.39,-131.65"/>
<polygon fill="midnightblue" stroke="midnightblue" points="172.02,-159.79 165.74,-168.32 175.97,-165.57 172.02,-159.79"/>
</g>
<!-- Node6&#45;&gt;Node2 -->
<g id="edge8" class="edge">
<title>Node6&#45;&gt;Node2</title>
<path fill="none" stroke="midnightblue" d="M211.01,-106.62C196.58,-96.76 177.91,-83.99 165.71,-75.65"/>
<polygon fill="midnightblue" stroke="midnightblue" points="209.12,-109.57 219.35,-112.32 213.07,-103.79 209.12,-109.57"/>
</g>
<!-- Node7&#45;&gt;Node2 -->
<g id="edge10" class="edge">
<title>Node7&#45;&gt;Node2</title>
<path fill="none" stroke="midnightblue" d="M298.78,-158.37C301.21,-144.25 301.89,-125.11 292.05,-112 270.26,-83 229.44,-72.36 197.65,-68.61"/>
<polygon fill="midnightblue" stroke="midnightblue" points="295.3,-157.9 296.62,-168.41 302.15,-159.37 295.3,-157.9"/>
</g>
</g>
</svg>
