<?xml version="1.0" encoding="UTF-8" standalone="no"?>
<!DOCTYPE svg PUBLIC "-//W3C//DTD SVG 1.1//EN"
 "http://www.w3.org/Graphics/SVG/1.1/DTD/svg11.dtd">
<!-- Generated by graphviz version 9.0.0 (20230911.1827)
 -->
<!-- Title: jngl/Drawable.hpp Pages: 1 -->
<svg width="333pt" height="193pt"
 viewBox="0.00 0.00 332.85 193.00" xmlns="http://www.w3.org/2000/svg" xmlns:xlink="http://www.w3.org/1999/xlink">
<g id="graph0" class="graph" transform="scale(1 1) rotate(0) translate(4 189)">
<title>jngl/Drawable.hpp</title>
<!-- Node1 -->
<g id="Node000001" class="node">
<title>Node1</title>
<g id="a_Node000001"><a xlink:title="Contains jngl::Drawable class.">
<polygon fill="#999999" stroke="#666666" points="168.85,-185 50.85,-185 50.85,-165.75 168.85,-165.75 168.85,-185"/>
<text text-anchor="middle" x="109.85" y="-171.5" font-family="ui-monospace,monospace" font-size="10.00">jngl/Drawable.hpp</text>
</a>
</g>
</g>
<!-- Node2 -->
<g id="Node000002" class="node">
<title>Node2</title>
<g id="a_Node000002"><a xlink:href="jngl_8hpp.html" target="_top" xlink:title="Includes all JNGL headers except for init.hpp.">
<polygon fill="white" stroke="#666666" points="182.85,-19.25 118.85,-19.25 118.85,0 182.85,0 182.85,-19.25"/>
<text text-anchor="middle" x="150.85" y="-5.75" font-family="ui-monospace,monospace" font-size="10.00">jngl.hpp</text>
</a>
</g>
</g>
<!-- Node1&#45;&gt;Node2 -->
<g id="edge1_Node000001_Node000002" class="edge">
<title>Node1&#45;&gt;Node2</title>
<g id="a_edge1_Node000001_Node000002"><a xlink:title=" ">
<path fill="none" stroke="#63b8ff" d="M81.39,-160.02C41.93,-138.2 -21.4,-95.01 7.85,-55.25 33.12,-20.89 84.7,-12.24 118.51,-10.46"/>
<polygon fill="#63b8ff" stroke="#63b8ff" points="79.51,-162.99 89.98,-164.63 82.82,-156.82 79.51,-162.99"/>
</a>
</g>
</g>
<!-- Node3 -->
<g id="Node000003" class="node">
<title>Node3</title>
<g id="a_Node000003"><a xlink:href="TextLine_8hpp.html" target="_top" xlink:title="Contains jngl::TextLine class.">
<polygon fill="white" stroke="#666666" points="212.85,-129.75 94.85,-129.75 94.85,-110.5 212.85,-110.5 212.85,-129.75"/>
<text text-anchor="middle" x="153.85" y="-116.25" font-family="ui-monospace,monospace" font-size="10.00">jngl/TextLine.hpp</text>
</a>
</g>
</g>
<!-- Node1&#45;&gt;Node3 -->
<g id="edge2_Node000001_Node000003" class="edge">
<title>Node1&#45;&gt;Node3</title>
<g id="a_edge2_Node000001_Node000003"><a xlink:title=" ">
<path fill="none" stroke="#63b8ff" d="M124.43,-156.72C131.8,-147.81 140.42,-137.37 146.42,-130.11"/>
<polygon fill="#63b8ff" stroke="#63b8ff" points="121.75,-154.48 118.08,-164.42 127.14,-158.94 121.75,-154.48"/>
</a>
</g>
</g>
<!-- Node5 -->
<g id="Node000005" class="node">
<title>Node5</title>
<g id="a_Node000005"><a xlink:href="sprite_8hpp.html" target="_top" xlink:title="Contains jngl::Sprite class and related functions.">
<polygon fill="white" stroke="#666666" points="122.85,-74.5 16.85,-74.5 16.85,-55.25 122.85,-55.25 122.85,-74.5"/>
<text text-anchor="middle" x="69.85" y="-61" font-family="ui-monospace,monospace" font-size="10.00">jngl/sprite.hpp</text>
</a>
</g>
</g>
<!-- Node1&#45;&gt;Node5 -->
<g id="edge6_Node000001_Node000005" class="edge">
<title>Node1&#45;&gt;Node5</title>
<g id="a_edge6_Node000001_Node000005"><a xlink:title=" ">
<path fill="none" stroke="#63b8ff" d="M98.42,-155.63C94.03,-147.83 89.26,-138.56 85.85,-129.75 78.5,-110.77 73.63,-87.31 71.35,-74.77"/>
<polygon fill="#63b8ff" stroke="#63b8ff" points="95.35,-157.3 103.43,-164.16 101.38,-153.76 95.35,-157.3"/>
</a>
</g>
</g>
<!-- Node6 -->
<g id="Node000006" class="node">
<title>Node6</title>
<g id="a_Node000006"><a xlink:href="text_8hpp.html" target="_top" xlink:title=" ">
<polygon fill="white" stroke="#666666" points="324.85,-129.75 230.85,-129.75 230.85,-110.5 324.85,-110.5 324.85,-129.75"/>
<text text-anchor="middle" x="277.85" y="-116.25" font-family="ui-monospace,monospace" font-size="10.00">jngl/text.hpp</text>
</a>
</g>
</g>
<!-- Node1&#45;&gt;Node6 -->
<g id="edge8_Node000001_Node000006" class="edge">
<title>Node1&#45;&gt;Node6</title>
<g id="a_edge8_Node000001_Node000006"><a xlink:title=" ">
<path fill="none" stroke="#63b8ff" d="M149.08,-161.94C179.74,-152.22 221.64,-138.94 249.21,-130.2"/>
<polygon fill="#63b8ff" stroke="#63b8ff" points="148.26,-158.53 139.79,-164.88 150.38,-165.2 148.26,-158.53"/>
</a>
</g>
</g>
<!-- Node3&#45;&gt;Node2 -->
<g id="edge3_Node000003_Node000002" class="edge">
<title>Node3&#45;&gt;Node2</title>
<g id="a_edge3_Node000003_Node000002"><a xlink:title=" ">
<path fill="none" stroke="#63b8ff" d="M153.28,-98.78C152.63,-75.05 151.57,-36.89 151.09,-19.63"/>
<polygon fill="#63b8ff" stroke="#63b8ff" points="149.78,-98.83 153.56,-108.73 156.78,-98.64 149.78,-98.83"/>
</a>
</g>
</g>
<!-- Node4 -->
<g id="Node000004" class="node">
<title>Node4</title>
<g id="a_Node000004"><a xlink:href="Label_8hpp.html" target="_top" xlink:title="Contains jngl::Label class.">
<polygon fill="white" stroke="#666666" points="278.85,-74.5 178.85,-74.5 178.85,-55.25 278.85,-55.25 278.85,-74.5"/>
<text text-anchor="middle" x="228.85" y="-61" font-family="ui-monospace,monospace" font-size="10.00">jngl/Label.hpp</text>
</a>
</g>
</g>
<!-- Node3&#45;&gt;Node4 -->
<g id="edge4_Node000003_Node000004" class="edge">
<title>Node3&#45;&gt;Node4</title>
<g id="a_edge4_Node000003_Node000004"><a xlink:title=" ">
<path fill="none" stroke="#63b8ff" d="M175.84,-103.51C188.92,-94.22 205.05,-82.77 216.06,-74.95"/>
<polygon fill="#63b8ff" stroke="#63b8ff" points="173.93,-100.57 167.8,-109.22 177.98,-106.28 173.93,-100.57"/>
</a>
</g>
</g>
<!-- Node4&#45;&gt;Node2 -->
<g id="edge5_Node000004_Node000002" class="edge">
<title>Node4&#45;&gt;Node2</title>
<g id="a_edge5_Node000004_Node000002"><a xlink:title=" ">
<path fill="none" stroke="#63b8ff" d="M206.37,-48.53C192.7,-39.2 175.7,-27.6 164.14,-19.7"/>
<polygon fill="#63b8ff" stroke="#63b8ff" points="204.13,-51.24 214.36,-53.99 208.08,-45.46 204.13,-51.24"/>
</a>
</g>
</g>
<!-- Node5&#45;&gt;Node2 -->
<g id="edge7_Node000005_Node000002" class="edge">
<title>Node5&#45;&gt;Node2</title>
<g id="a_edge7_Node000005_Node000002"><a xlink:title=" ">
<path fill="none" stroke="#63b8ff" d="M93.18,-48.53C107.38,-39.2 125.03,-27.6 137.04,-19.7"/>
<polygon fill="#63b8ff" stroke="#63b8ff" points="91.28,-45.59 84.85,-54.01 95.13,-51.44 91.28,-45.59"/>
</a>
</g>
</g>
<!-- Node6&#45;&gt;Node2 -->
<g id="edge9_Node000006_Node000002" class="edge">
<title>Node6&#45;&gt;Node2</title>
<g id="a_edge9_Node000006_Node000002"><a xlink:title=" ">
<path fill="none" stroke="#63b8ff" d="M287.58,-100.13C293.1,-86.44 297.22,-68.17 287.85,-55.25 264.04,-22.46 215.5,-13.3 183.06,-10.99"/>
<polygon fill="#63b8ff" stroke="#63b8ff" points="284.51,-98.42 283.51,-108.97 290.87,-101.35 284.51,-98.42"/>
</a>
</g>
</g>
<!-- Node6&#45;&gt;Node4 -->
<g id="edge10_Node000006_Node000004" class="edge">
<title>Node6&#45;&gt;Node4</title>
<g id="a_edge10_Node000006_Node000004"><a xlink:title=" ">
<path fill="none" stroke="#63b8ff" d="M262.13,-102.04C253.81,-93 243.93,-82.27 237.11,-74.86"/>
<polygon fill="#63b8ff" stroke="#63b8ff" points="259.38,-104.23 268.73,-109.22 264.53,-99.49 259.38,-104.23"/>
</a>
</g>
</g>
</g>
</svg>
