<?xml version="1.0" encoding="UTF-8" standalone="no"?>
<!DOCTYPE svg PUBLIC "-//W3C//DTD SVG 1.1//EN"
 "http://www.w3.org/Graphics/SVG/1.1/DTD/svg11.dtd">
<!-- Generated by graphviz version 5.0.0 (0)
 -->
<!-- Title: jngl/Drawable.hpp Pages: 1 -->
<svg width="336pt" height="192pt"
 viewBox="0.00 0.00 336.39 192.00" xmlns="http://www.w3.org/2000/svg" xmlns:xlink="http://www.w3.org/1999/xlink">
<g id="graph0" class="graph" transform="scale(1 1) rotate(0) translate(4 188)">
<title>jngl/Drawable.hpp</title>
<!-- Node1 -->
<g id="node1" class="node">
<title>Node1</title>
<g id="a_node1"><a xlink:title="Contains jngl::Drawable class.">
<polygon fill="#999999" stroke="#666666" points="171.39,-184 52.39,-184 52.39,-165 171.39,-165 171.39,-184"/>
<text text-anchor="middle" x="111.89" y="-172" font-family="ui-monospace,monospace" font-size="10.00">jngl/Drawable.hpp</text>
</a>
</g>
</g>
<!-- Node2 -->
<g id="node2" class="node">
<title>Node2</title>
<g id="a_node2"><a xlink:href="jngl_8hpp.html" target="_top" xlink:title="Includes all JNGL headers except for init.hpp.">
<polygon fill="white" stroke="#666666" points="185.39,-19 120.39,-19 120.39,0 185.39,0 185.39,-19"/>
<text text-anchor="middle" x="152.89" y="-7" font-family="ui-monospace,monospace" font-size="10.00">jngl.hpp</text>
</a>
</g>
</g>
<!-- Node1&#45;&gt;Node2 -->
<g id="edge1" class="edge">
<title>Node1&#45;&gt;Node2</title>
<path fill="none" stroke="#63b8ff" d="M84.58,-160.18C44.61,-138.89 -22.01,-95.45 7.89,-55 33.56,-20.27 85.85,-11.78 120.12,-10.16"/>
<polygon fill="#63b8ff" stroke="#63b8ff" points="83.13,-163.37 93.62,-164.86 86.35,-157.16 83.13,-163.37"/>
</g>
<!-- Node3 -->
<g id="node3" class="node">
<title>Node3</title>
<g id="a_node3"><a xlink:href="TextLine_8hpp.html" target="_top" xlink:title="Contains jngl::TextLine class.">
<polygon fill="white" stroke="#666666" points="215.39,-129 96.39,-129 96.39,-110 215.39,-110 215.39,-129"/>
<text text-anchor="middle" x="155.89" y="-117" font-family="ui-monospace,monospace" font-size="10.00">jngl/TextLine.hpp</text>
</a>
</g>
</g>
<!-- Node1&#45;&gt;Node3 -->
<g id="edge2" class="edge">
<title>Node1&#45;&gt;Node3</title>
<path fill="none" stroke="#63b8ff" d="M125.62,-156.96C133.29,-147.72 142.52,-136.6 148.76,-129.09"/>
<polygon fill="#63b8ff" stroke="#63b8ff" points="122.85,-154.82 119.16,-164.75 128.24,-159.29 122.85,-154.82"/>
</g>
<!-- Node5 -->
<g id="node5" class="node">
<title>Node5</title>
<g id="a_node5"><a xlink:href="sprite_8hpp.html" target="_top" xlink:title="Contains jngl::Sprite class and related functions.">
<polygon fill="white" stroke="#666666" points="124.39,-74 17.39,-74 17.39,-55 124.39,-55 124.39,-74"/>
<text text-anchor="middle" x="70.89" y="-62" font-family="ui-monospace,monospace" font-size="10.00">jngl/sprite.hpp</text>
</a>
</g>
</g>
<!-- Node1&#45;&gt;Node5 -->
<g id="edge6" class="edge">
<title>Node1&#45;&gt;Node5</title>
<path fill="none" stroke="#63b8ff" d="M101.31,-156.15C96.72,-148.1 91.58,-138.28 87.89,-129 80.39,-110.12 75.1,-86.8 72.57,-74.33"/>
<polygon fill="#63b8ff" stroke="#63b8ff" points="98.39,-158.09 106.48,-164.93 104.42,-154.53 98.39,-158.09"/>
</g>
<!-- Node6 -->
<g id="node6" class="node">
<title>Node6</title>
<g id="a_node6"><a xlink:href="text_8hpp.html" target="_top" xlink:title=" ">
<polygon fill="white" stroke="#666666" points="328.39,-129 233.39,-129 233.39,-110 328.39,-110 328.39,-129"/>
<text text-anchor="middle" x="280.89" y="-117" font-family="ui-monospace,monospace" font-size="10.00">jngl/text.hpp</text>
</a>
</g>
</g>
<!-- Node1&#45;&gt;Node6 -->
<g id="edge8" class="edge">
<title>Node1&#45;&gt;Node6</title>
<path fill="none" stroke="#63b8ff" d="M148.79,-161.93C180.36,-152.03 225.07,-138.01 253.52,-129.08"/>
<polygon fill="#63b8ff" stroke="#63b8ff" points="147.54,-158.65 139.04,-164.98 149.63,-165.33 147.54,-158.65"/>
</g>
<!-- Node3&#45;&gt;Node2 -->
<g id="edge3" class="edge">
<title>Node3&#45;&gt;Node2</title>
<path fill="none" stroke="#63b8ff" d="M155.36,-99.48C154.71,-75.84 153.61,-36.5 153.13,-19.16"/>
<polygon fill="#63b8ff" stroke="#63b8ff" points="151.87,-99.76 155.64,-109.66 158.87,-99.57 151.87,-99.76"/>
</g>
<!-- Node4 -->
<g id="node4" class="node">
<title>Node4</title>
<g id="a_node4"><a xlink:href="Label_8hpp.html" target="_top" xlink:title="Contains jngl::Label class.">
<polygon fill="white" stroke="#666666" points="282.39,-74 181.39,-74 181.39,-55 282.39,-55 282.39,-74"/>
<text text-anchor="middle" x="231.89" y="-62" font-family="ui-monospace,monospace" font-size="10.00">jngl/Label.hpp</text>
</a>
</g>
</g>
<!-- Node3&#45;&gt;Node4 -->
<g id="edge4" class="edge">
<title>Node3&#45;&gt;Node4</title>
<path fill="none" stroke="#63b8ff" d="M176.47,-104.15C190.2,-94.57 207.82,-82.29 219.46,-74.17"/>
<polygon fill="#63b8ff" stroke="#63b8ff" points="174.3,-101.39 168.1,-109.98 178.31,-107.14 174.3,-101.39"/>
</g>
<!-- Node4&#45;&gt;Node2 -->
<g id="edge5" class="edge">
<title>Node4&#45;&gt;Node2</title>
<path fill="none" stroke="#63b8ff" d="M210.5,-49.15C196.22,-39.57 177.92,-27.29 165.81,-19.17"/>
<polygon fill="#63b8ff" stroke="#63b8ff" points="208.94,-52.32 219.2,-54.98 212.84,-46.51 208.94,-52.32"/>
</g>
<!-- Node5&#45;&gt;Node2 -->
<g id="edge7" class="edge">
<title>Node5&#45;&gt;Node2</title>
<path fill="none" stroke="#63b8ff" d="M92.67,-49.42C107.55,-39.81 126.8,-27.37 139.48,-19.17"/>
<polygon fill="#63b8ff" stroke="#63b8ff" points="90.56,-46.62 84.06,-54.98 94.36,-52.5 90.56,-46.62"/>
</g>
<!-- Node6&#45;&gt;Node2 -->
<g id="edge9" class="edge">
<title>Node6&#45;&gt;Node2</title>
<path fill="none" stroke="#63b8ff" d="M290.69,-100.44C296.65,-86.74 301.46,-68.11 291.89,-55 267.69,-21.84 218.46,-12.83 185.56,-10.68"/>
<polygon fill="#63b8ff" stroke="#63b8ff" points="287.38,-99.25 286.13,-109.77 293.66,-102.33 287.38,-99.25"/>
</g>
<!-- Node6&#45;&gt;Node4 -->
<g id="edge10" class="edge">
<title>Node6&#45;&gt;Node4</title>
<path fill="none" stroke="#63b8ff" d="M265.86,-102.24C257.27,-92.95 246.85,-81.68 239.83,-74.09"/>
<polygon fill="#63b8ff" stroke="#63b8ff" points="263.44,-104.78 272.8,-109.75 268.58,-100.03 263.44,-104.78"/>
</g>
</g>
</svg>
