<?xml version="1.0" encoding="UTF-8" standalone="no"?>
<!DOCTYPE svg PUBLIC "-//W3C//DTD SVG 1.1//EN"
 "http://www.w3.org/Graphics/SVG/1.1/DTD/svg11.dtd">
<!-- Generated by graphviz version 2.42.4 (0)
 -->
<!-- Title: jngl/Drawable.hpp Pages: 1 -->
<svg width="259pt" height="252pt"
 viewBox="0.00 0.00 258.69 252.00" xmlns="http://www.w3.org/2000/svg" xmlns:xlink="http://www.w3.org/1999/xlink">
<g id="graph0" class="graph" transform="scale(1 1) rotate(0) translate(4 248)">
<title>jngl/Drawable.hpp</title>
<polygon fill="white" stroke="transparent" points="-4,4 -4,-248 254.69,-248 254.69,4 -4,4"/>
<!-- Node1 -->
<g id="node1" class="node">
<title>Node1</title>
<g id="a_node1"><a xlink:title="Contains jngl::Drawable class.">
<polygon fill="#bfbfbf" stroke="black" points="9.69,-224.5 9.69,-243.5 128.69,-243.5 128.69,-224.5 9.69,-224.5"/>
<text text-anchor="middle" x="69.19" y="-231.5" font-family="'Consolas',monospace" font-size="10.00">jngl/Drawable.hpp</text>
</a>
</g>
</g>
<!-- Node2 -->
<g id="node2" class="node">
<title>Node2</title>
<g id="a_node2"><a xlink:href="all_8hpp.html" target="_top" xlink:title="Includes all JNGL headers except for init.hpp.">
<polygon fill="white" stroke="black" points="2.69,-56.5 2.69,-75.5 91.69,-75.5 91.69,-56.5 2.69,-56.5"/>
<text text-anchor="middle" x="47.19" y="-63.5" font-family="'Consolas',monospace" font-size="10.00">jngl/all.hpp</text>
</a>
</g>
</g>
<!-- Node1&#45;&gt;Node2 -->
<g id="edge1" class="edge">
<title>Node1&#45;&gt;Node2</title>
<path fill="none" stroke="midnightblue" d="M39.37,-219.61C26.71,-212.23 13.27,-201.75 6.19,-188 -14.31,-148.16 23.07,-95.86 39.75,-75.56"/>
<polygon fill="midnightblue" stroke="midnightblue" points="37.88,-222.78 48.34,-224.43 41.19,-216.61 37.88,-222.78"/>
</g>
<!-- Node4 -->
<g id="node4" class="node">
<title>Node4</title>
<g id="a_node4"><a xlink:href="sprite_8hpp.html" target="_top" xlink:title="Contains jngl::Sprite class and related functions.">
<polygon fill="white" stroke="black" points="15.69,-168.5 15.69,-187.5 122.69,-187.5 122.69,-168.5 15.69,-168.5"/>
<text text-anchor="middle" x="69.19" y="-175.5" font-family="'Consolas',monospace" font-size="10.00">jngl/sprite.hpp</text>
</a>
</g>
</g>
<!-- Node1&#45;&gt;Node4 -->
<g id="edge3" class="edge">
<title>Node1&#45;&gt;Node4</title>
<path fill="none" stroke="midnightblue" d="M69.19,-213.8C69.19,-204.91 69.19,-194.78 69.19,-187.75"/>
<polygon fill="midnightblue" stroke="midnightblue" points="65.69,-214.08 69.19,-224.08 72.69,-214.08 65.69,-214.08"/>
</g>
<!-- Node6 -->
<g id="node6" class="node">
<title>Node6</title>
<g id="a_node6"><a xlink:href="text_8hpp.html" target="_top" xlink:title=" ">
<polygon fill="white" stroke="black" points="155.69,-112.5 155.69,-131.5 250.69,-131.5 250.69,-112.5 155.69,-112.5"/>
<text text-anchor="middle" x="203.19" y="-119.5" font-family="'Consolas',monospace" font-size="10.00">jngl/text.hpp</text>
</a>
</g>
</g>
<!-- Node1&#45;&gt;Node6 -->
<g id="edge7" class="edge">
<title>Node1&#45;&gt;Node6</title>
<path fill="none" stroke="midnightblue" d="M90.45,-218.77C102.89,-210.21 118.74,-198.89 132.19,-188 155.57,-169.07 181.17,-144.62 194.32,-131.78"/>
<polygon fill="midnightblue" stroke="midnightblue" points="88.37,-215.95 82.08,-224.47 92.31,-221.74 88.37,-215.95"/>
</g>
<!-- Node3 -->
<g id="node3" class="node">
<title>Node3</title>
<g id="a_node3"><a xlink:href="jngl_8hpp_source.html" target="_top" xlink:title=" ">
<polygon fill="white" stroke="black" points="14.69,-0.5 14.69,-19.5 79.69,-19.5 79.69,-0.5 14.69,-0.5"/>
<text text-anchor="middle" x="47.19" y="-7.5" font-family="'Consolas',monospace" font-size="10.00">jngl.hpp</text>
</a>
</g>
</g>
<!-- Node2&#45;&gt;Node3 -->
<g id="edge2" class="edge">
<title>Node2&#45;&gt;Node3</title>
<path fill="none" stroke="midnightblue" d="M47.19,-45.8C47.19,-36.91 47.19,-26.78 47.19,-19.75"/>
<polygon fill="midnightblue" stroke="midnightblue" points="43.69,-46.08 47.19,-56.08 50.69,-46.08 43.69,-46.08"/>
</g>
<!-- Node4&#45;&gt;Node2 -->
<g id="edge4" class="edge">
<title>Node4&#45;&gt;Node2</title>
<path fill="none" stroke="midnightblue" d="M49.94,-161.75C41.56,-153.87 32.65,-143.5 28.19,-132 20.55,-112.27 33.05,-88.15 41.14,-75.57"/>
<polygon fill="midnightblue" stroke="midnightblue" points="47.82,-164.54 57.65,-168.49 52.43,-159.27 47.82,-164.54"/>
</g>
<!-- Node5 -->
<g id="node5" class="node">
<title>Node5</title>
<g id="a_node5"><a xlink:href="Video_8hpp.html" target="_top" xlink:title=" ">
<polygon fill="white" stroke="black" points="36.69,-112.5 36.69,-131.5 137.69,-131.5 137.69,-112.5 36.69,-112.5"/>
<text text-anchor="middle" x="87.19" y="-119.5" font-family="'Consolas',monospace" font-size="10.00">jngl/Video.hpp</text>
</a>
</g>
</g>
<!-- Node4&#45;&gt;Node5 -->
<g id="edge5" class="edge">
<title>Node4&#45;&gt;Node5</title>
<path fill="none" stroke="midnightblue" d="M75.39,-158.4C78.4,-149.36 81.88,-138.94 84.28,-131.75"/>
<polygon fill="midnightblue" stroke="midnightblue" points="72.01,-157.49 72.16,-168.08 78.65,-159.7 72.01,-157.49"/>
</g>
<!-- Node5&#45;&gt;Node2 -->
<g id="edge6" class="edge">
<title>Node5&#45;&gt;Node2</title>
<path fill="none" stroke="midnightblue" d="M74.49,-103.86C67.57,-94.5 59.29,-83.33 53.67,-75.75"/>
<polygon fill="midnightblue" stroke="midnightblue" points="71.82,-106.13 80.59,-112.08 77.45,-101.96 71.82,-106.13"/>
</g>
<!-- Node6&#45;&gt;Node2 -->
<g id="edge8" class="edge">
<title>Node6&#45;&gt;Node2</title>
<path fill="none" stroke="midnightblue" d="M169.02,-109.17C139.65,-99 97.99,-84.59 71.8,-75.52"/>
<polygon fill="midnightblue" stroke="midnightblue" points="167.88,-112.48 178.47,-112.44 170.17,-105.86 167.88,-112.48"/>
</g>
</g>
</svg>
