<?xml version="1.0" encoding="UTF-8" standalone="no"?>
<!DOCTYPE svg PUBLIC "-//W3C//DTD SVG 1.1//EN"
 "http://www.w3.org/Graphics/SVG/1.1/DTD/svg11.dtd">
<!-- Generated by graphviz version 2.42.4 (0)
 -->
<!-- Title: jngl/Drawable.hpp Pages: 1 -->
<svg width="440pt" height="252pt"
 viewBox="0.00 0.00 439.92 252.00" xmlns="http://www.w3.org/2000/svg" xmlns:xlink="http://www.w3.org/1999/xlink">
<g id="graph0" class="graph" transform="scale(1 1) rotate(0) translate(4 248)">
<title>jngl/Drawable.hpp</title>
<polygon fill="white" stroke="transparent" points="-4,4 -4,-248 435.92,-248 435.92,4 -4,4"/>
<!-- Node1 -->
<g id="node1" class="node">
<title>Node1</title>
<g id="a_node1"><a xlink:title="Contains jngl::Drawable class.">
<polygon fill="#bfbfbf" stroke="black" points="67.92,-224.5 67.92,-243.5 186.92,-243.5 186.92,-224.5 67.92,-224.5"/>
<text text-anchor="middle" x="127.42" y="-231.5" font-family="'Consolas',monospace" font-size="10.00">jngl/Drawable.hpp</text>
</a>
</g>
</g>
<!-- Node2 -->
<g id="node2" class="node">
<title>Node2</title>
<g id="a_node2"><a xlink:href="all_8hpp.html" target="_top" xlink:title="Includes all JNGL headers except for init.hpp.">
<polygon fill="white" stroke="black" points="80.92,-56.5 80.92,-75.5 169.92,-75.5 169.92,-56.5 80.92,-56.5"/>
<text text-anchor="middle" x="125.42" y="-63.5" font-family="'Consolas',monospace" font-size="10.00">jngl/all.hpp</text>
</a>
</g>
</g>
<!-- Node1&#45;&gt;Node2 -->
<g id="edge1" class="edge">
<title>Node1&#45;&gt;Node2</title>
<path fill="none" stroke="midnightblue" d="M58.15,-222.95C37.81,-216.42 17.73,-205.67 5.42,-188 -6.83,-170.43 4.89,-129 19.42,-112 35.53,-93.15 60.9,-82.01 82.78,-75.52"/>
<polygon fill="midnightblue" stroke="midnightblue" points="57.23,-226.33 67.81,-225.75 59.18,-219.6 57.23,-226.33"/>
</g>
<!-- Node4 -->
<g id="node4" class="node">
<title>Node4</title>
<g id="a_node4"><a xlink:href="sprite_8hpp.html" target="_top" xlink:title="Contains jngl::Sprite class and related functions.">
<polygon fill="white" stroke="black" points="14.92,-168.5 14.92,-187.5 121.92,-187.5 121.92,-168.5 14.92,-168.5"/>
<text text-anchor="middle" x="68.42" y="-175.5" font-family="'Consolas',monospace" font-size="10.00">jngl/sprite.hpp</text>
</a>
</g>
</g>
<!-- Node1&#45;&gt;Node4 -->
<g id="edge3" class="edge">
<title>Node1&#45;&gt;Node4</title>
<path fill="none" stroke="midnightblue" d="M110.52,-217.54C100.01,-207.91 86.85,-195.87 78.07,-187.83"/>
<polygon fill="midnightblue" stroke="midnightblue" points="108.2,-220.15 117.94,-224.32 112.93,-214.99 108.2,-220.15"/>
</g>
<!-- Node6 -->
<g id="node6" class="node">
<title>Node6</title>
<g id="a_node6"><a xlink:href="text_8hpp.html" target="_top" xlink:title=" ">
<polygon fill="white" stroke="black" points="139.92,-168.5 139.92,-187.5 234.92,-187.5 234.92,-168.5 139.92,-168.5"/>
<text text-anchor="middle" x="187.42" y="-175.5" font-family="'Consolas',monospace" font-size="10.00">jngl/text.hpp</text>
</a>
</g>
</g>
<!-- Node1&#45;&gt;Node6 -->
<g id="edge7" class="edge">
<title>Node1&#45;&gt;Node6</title>
<path fill="none" stroke="midnightblue" d="M144.6,-217.54C155.3,-207.91 168.68,-195.87 177.6,-187.83"/>
<polygon fill="midnightblue" stroke="midnightblue" points="142.15,-215.03 137.06,-224.32 146.83,-220.24 142.15,-215.03"/>
</g>
<!-- Node8 -->
<g id="node8" class="node">
<title>Node8</title>
<g id="a_node8"><a xlink:href="TextLine_8hpp.html" target="_top" xlink:title="Contains jngl::TextLine class.">
<polygon fill="white" stroke="black" points="312.92,-112.5 312.92,-131.5 431.92,-131.5 431.92,-112.5 312.92,-112.5"/>
<text text-anchor="middle" x="372.42" y="-119.5" font-family="'Consolas',monospace" font-size="10.00">jngl/TextLine.hpp</text>
</a>
</g>
</g>
<!-- Node1&#45;&gt;Node8 -->
<g id="edge11" class="edge">
<title>Node1&#45;&gt;Node8</title>
<path fill="none" stroke="midnightblue" d="M161.46,-220.96C185.01,-212.37 216.93,-200.23 244.42,-188 285.86,-169.56 333.08,-144.49 356.91,-131.53"/>
<polygon fill="midnightblue" stroke="midnightblue" points="160.13,-217.72 151.92,-224.41 162.51,-224.3 160.13,-217.72"/>
</g>
<!-- Node3 -->
<g id="node3" class="node">
<title>Node3</title>
<g id="a_node3"><a xlink:href="jngl_8hpp.html" target="_top" xlink:title="Includes jngl/all.hpp.">
<polygon fill="white" stroke="black" points="92.92,-0.5 92.92,-19.5 157.92,-19.5 157.92,-0.5 92.92,-0.5"/>
<text text-anchor="middle" x="125.42" y="-7.5" font-family="'Consolas',monospace" font-size="10.00">jngl.hpp</text>
</a>
</g>
</g>
<!-- Node2&#45;&gt;Node3 -->
<g id="edge2" class="edge">
<title>Node2&#45;&gt;Node3</title>
<path fill="none" stroke="midnightblue" d="M125.42,-45.8C125.42,-36.91 125.42,-26.78 125.42,-19.75"/>
<polygon fill="midnightblue" stroke="midnightblue" points="121.92,-46.08 125.42,-56.08 128.92,-46.08 121.92,-46.08"/>
</g>
<!-- Node4&#45;&gt;Node2 -->
<g id="edge4" class="edge">
<title>Node4&#45;&gt;Node2</title>
<path fill="none" stroke="midnightblue" d="M47.91,-162.15C32.34,-148.98 15.33,-129.22 26.42,-112 38.63,-93.03 61.02,-81.97 81.41,-75.56"/>
<polygon fill="midnightblue" stroke="midnightblue" points="45.76,-164.91 55.77,-168.38 50.12,-159.43 45.76,-164.91"/>
</g>
<!-- Node5 -->
<g id="node5" class="node">
<title>Node5</title>
<g id="a_node5"><a xlink:href="Video_8hpp.html" target="_top" xlink:title=" ">
<polygon fill="white" stroke="black" points="35.92,-112.5 35.92,-131.5 136.92,-131.5 136.92,-112.5 35.92,-112.5"/>
<text text-anchor="middle" x="86.42" y="-119.5" font-family="'Consolas',monospace" font-size="10.00">jngl/Video.hpp</text>
</a>
</g>
</g>
<!-- Node4&#45;&gt;Node5 -->
<g id="edge5" class="edge">
<title>Node4&#45;&gt;Node5</title>
<path fill="none" stroke="midnightblue" d="M74.62,-158.4C77.63,-149.36 81.11,-138.94 83.5,-131.75"/>
<polygon fill="midnightblue" stroke="midnightblue" points="71.23,-157.49 71.39,-168.08 77.87,-159.7 71.23,-157.49"/>
</g>
<!-- Node5&#45;&gt;Node2 -->
<g id="edge6" class="edge">
<title>Node5&#45;&gt;Node2</title>
<path fill="none" stroke="midnightblue" d="M98.8,-103.86C105.55,-94.5 113.63,-83.33 119.1,-75.75"/>
<polygon fill="midnightblue" stroke="midnightblue" points="95.88,-101.93 92.86,-112.08 101.55,-106.03 95.88,-101.93"/>
</g>
<!-- Node6&#45;&gt;Node2 -->
<g id="edge8" class="edge">
<title>Node6&#45;&gt;Node2</title>
<path fill="none" stroke="midnightblue" d="M177.63,-159.64C164.17,-135.74 140.43,-93.63 130.26,-75.59"/>
<polygon fill="midnightblue" stroke="midnightblue" points="174.6,-161.38 182.55,-168.37 180.69,-157.94 174.6,-161.38"/>
</g>
<!-- Node7 -->
<g id="node7" class="node">
<title>Node7</title>
<g id="a_node7"><a xlink:href="Label_8hpp_source.html" target="_top" xlink:title=" ">
<polygon fill="white" stroke="black" points="193.92,-112.5 193.92,-131.5 294.92,-131.5 294.92,-112.5 193.92,-112.5"/>
<text text-anchor="middle" x="244.42" y="-119.5" font-family="'Consolas',monospace" font-size="10.00">jngl/Label.hpp</text>
</a>
</g>
</g>
<!-- Node6&#45;&gt;Node7 -->
<g id="edge9" class="edge">
<title>Node6&#45;&gt;Node7</title>
<path fill="none" stroke="midnightblue" d="M204.04,-161.25C214.15,-151.67 226.7,-139.79 235.09,-131.83"/>
<polygon fill="midnightblue" stroke="midnightblue" points="201.43,-158.91 196.58,-168.32 206.24,-163.99 201.43,-158.91"/>
</g>
<!-- Node7&#45;&gt;Node2 -->
<g id="edge10" class="edge">
<title>Node7&#45;&gt;Node2</title>
<path fill="none" stroke="midnightblue" d="M216.28,-108.23C194.02,-98.13 163.56,-84.31 144.19,-75.52"/>
<polygon fill="midnightblue" stroke="midnightblue" points="215.01,-111.5 225.56,-112.44 217.9,-105.12 215.01,-111.5"/>
</g>
<!-- Node8&#45;&gt;Node2 -->
<g id="edge12" class="edge">
<title>Node8&#45;&gt;Node2</title>
<path fill="none" stroke="midnightblue" d="M323.39,-110.28C276.72,-100.08 207.39,-84.92 164.37,-75.52"/>
<polygon fill="midnightblue" stroke="midnightblue" points="322.76,-113.73 333.28,-112.44 324.26,-106.89 322.76,-113.73"/>
</g>
</g>
</svg>
