<?xml version="1.0" encoding="UTF-8" standalone="no"?>
<!DOCTYPE svg PUBLIC "-//W3C//DTD SVG 1.1//EN"
 "http://www.w3.org/Graphics/SVG/1.1/DTD/svg11.dtd">
<!-- Generated by graphviz version 2.40.1 (0)
 -->
<!-- Title: jngl/Drawable.hpp Pages: 1 -->
<svg width="259pt" height="252pt"
 viewBox="0.00 0.00 258.66 252.00" xmlns="http://www.w3.org/2000/svg" xmlns:xlink="http://www.w3.org/1999/xlink">
<g id="graph0" class="graph" transform="scale(1 1) rotate(0) translate(4 248)">
<title>jngl/Drawable.hpp</title>
<polygon fill="#ffffff" stroke="transparent" points="-4,4 -4,-248 254.663,-248 254.663,4 -4,4"/>
<!-- Node1 -->
<g id="node1" class="node">
<title>Node1</title>
<g id="a_node1"><a xlink:title="Contains Drawable class.">
<polygon fill="#bfbfbf" stroke="#000000" points="9.663,-224.5 9.663,-243.5 128.663,-243.5 128.663,-224.5 9.663,-224.5"/>
<text text-anchor="middle" x="69.163" y="-231.5" font-family="'Consolas',monospace" font-size="10.00" fill="#000000">jngl/Drawable.hpp</text>
</a>
</g>
</g>
<!-- Node2 -->
<g id="node2" class="node">
<title>Node2</title>
<g id="a_node2"><a xlink:href="all_8hpp.html" target="_top" xlink:title="Includes all JNGL headers.">
<polygon fill="#ffffff" stroke="#000000" points="2.663,-56.5 2.663,-75.5 91.663,-75.5 91.663,-56.5 2.663,-56.5"/>
<text text-anchor="middle" x="47.163" y="-63.5" font-family="'Consolas',monospace" font-size="10.00" fill="#000000">jngl/all.hpp</text>
</a>
</g>
</g>
<!-- Node1&#45;&gt;Node2 -->
<g id="edge1" class="edge">
<title>Node1&#45;&gt;Node2</title>
<path fill="none" stroke="#191970" d="M38.2596,-219.5161C25.9162,-211.9901 13.024,-201.5049 6.163,-188 -13.9773,-148.3568 21.9691,-96.6263 38.9749,-75.5554"/>
<polygon fill="#191970" stroke="#191970" points="36.6263,-222.6132 47.0564,-224.4742 40.0633,-216.5151 36.6263,-222.6132"/>
</g>
<!-- Node4 -->
<g id="node4" class="node">
<title>Node4</title>
<g id="a_node4"><a xlink:href="sprite_8hpp_source.html" target="_top" xlink:title=" ">
<polygon fill="#ffffff" stroke="#000000" points="15.663,-168.5 15.663,-187.5 122.663,-187.5 122.663,-168.5 15.663,-168.5"/>
<text text-anchor="middle" x="69.163" y="-175.5" font-family="'Consolas',monospace" font-size="10.00" fill="#000000">jngl/sprite.hpp</text>
</a>
</g>
</g>
<!-- Node1&#45;&gt;Node4 -->
<g id="edge3" class="edge">
<title>Node1&#45;&gt;Node4</title>
<path fill="none" stroke="#191970" d="M69.163,-214.1575C69.163,-205.155 69.163,-194.9199 69.163,-187.6427"/>
<polygon fill="#191970" stroke="#191970" points="65.6631,-214.2455 69.163,-224.2455 72.6631,-214.2456 65.6631,-214.2455"/>
</g>
<!-- Node6 -->
<g id="node6" class="node">
<title>Node6</title>
<g id="a_node6"><a xlink:href="text_8hpp.html" target="_top" xlink:title=" ">
<polygon fill="#ffffff" stroke="#000000" points="155.663,-112.5 155.663,-131.5 250.663,-131.5 250.663,-112.5 155.663,-112.5"/>
<text text-anchor="middle" x="203.163" y="-119.5" font-family="'Consolas',monospace" font-size="10.00" fill="#000000">jngl/text.hpp</text>
</a>
</g>
</g>
<!-- Node1&#45;&gt;Node6 -->
<g id="edge7" class="edge">
<title>Node1&#45;&gt;Node6</title>
<path fill="none" stroke="#191970" d="M91.5926,-218.5976C103.8454,-209.9436 119.1334,-198.7494 132.163,-188 155.011,-169.1504 180.0016,-145.0237 193.3895,-131.7853"/>
<polygon fill="#191970" stroke="#191970" points="89.473,-215.8089 83.2828,-224.4074 93.484,-221.5459 89.473,-215.8089"/>
</g>
<!-- Node3 -->
<g id="node3" class="node">
<title>Node3</title>
<g id="a_node3"><a xlink:href="jngl_8hpp_source.html" target="_top" xlink:title=" ">
<polygon fill="#ffffff" stroke="#000000" points="14.663,-.5 14.663,-19.5 79.663,-19.5 79.663,-.5 14.663,-.5"/>
<text text-anchor="middle" x="47.163" y="-7.5" font-family="'Consolas',monospace" font-size="10.00" fill="#000000">jngl.hpp</text>
</a>
</g>
</g>
<!-- Node2&#45;&gt;Node3 -->
<g id="edge2" class="edge">
<title>Node2&#45;&gt;Node3</title>
<path fill="none" stroke="#191970" d="M47.163,-46.1575C47.163,-37.155 47.163,-26.9199 47.163,-19.6427"/>
<polygon fill="#191970" stroke="#191970" points="43.6631,-46.2455 47.163,-56.2455 50.6631,-46.2456 43.6631,-46.2455"/>
</g>
<!-- Node4&#45;&gt;Node2 -->
<g id="edge6" class="edge">
<title>Node4&#45;&gt;Node2</title>
<path fill="none" stroke="#191970" d="M48.6718,-161.1249C40.6601,-153.2186 32.3905,-143.0966 28.163,-132 20.6919,-112.3893 32.474,-88.548 40.5674,-75.5623"/>
<polygon fill="#191970" stroke="#191970" points="46.7023,-164.0677 56.4382,-168.2466 51.4333,-158.9084 46.7023,-164.0677"/>
</g>
<!-- Node5 -->
<g id="node5" class="node">
<title>Node5</title>
<g id="a_node5"><a xlink:href="Video_8hpp.html" target="_top" xlink:title=" ">
<polygon fill="#ffffff" stroke="#000000" points="36.663,-112.5 36.663,-131.5 137.663,-131.5 137.663,-112.5 36.663,-112.5"/>
<text text-anchor="middle" x="87.163" y="-119.5" font-family="'Consolas',monospace" font-size="10.00" fill="#000000">jngl/Video.hpp</text>
</a>
</g>
</g>
<!-- Node4&#45;&gt;Node5 -->
<g id="edge4" class="edge">
<title>Node4&#45;&gt;Node5</title>
<path fill="none" stroke="#191970" d="M75.4457,-158.4538C78.3622,-149.3803 81.6987,-138.9998 84.0635,-131.6427"/>
<polygon fill="#191970" stroke="#191970" points="72.0264,-157.6542 72.2983,-168.2455 78.6906,-159.7963 72.0264,-157.6542"/>
</g>
<!-- Node5&#45;&gt;Node2 -->
<g id="edge5" class="edge">
<title>Node5&#45;&gt;Node2</title>
<path fill="none" stroke="#191970" d="M74.2494,-103.9209C67.5327,-94.5176 59.5913,-83.3997 54.0506,-75.6427"/>
<polygon fill="#191970" stroke="#191970" points="71.535,-106.1425 80.1955,-112.2455 77.2312,-102.0738 71.535,-106.1425"/>
</g>
<!-- Node6&#45;&gt;Node2 -->
<g id="edge8" class="edge">
<title>Node6&#45;&gt;Node2</title>
<path fill="none" stroke="#191970" d="M166.7345,-108.9231C138.2169,-98.686 99.2249,-84.6889 73.6304,-75.5011"/>
<polygon fill="#191970" stroke="#191970" points="165.7511,-112.2887 176.3456,-112.3733 168.1162,-105.7004 165.7511,-112.2887"/>
</g>
</g>
</svg>
