<?xml version="1.0" encoding="UTF-8" standalone="no"?>
<!DOCTYPE svg PUBLIC "-//W3C//DTD SVG 1.1//EN"
 "http://www.w3.org/Graphics/SVG/1.1/DTD/svg11.dtd">
<!-- Generated by graphviz version 12.1.0 (20240811.2233)
 -->
<!-- Title: jngl/Drawable.hpp Pages: 1 -->
<svg width="286pt" height="193pt"
 viewBox="0.00 0.00 286.09 193.00" xmlns="http://www.w3.org/2000/svg" xmlns:xlink="http://www.w3.org/1999/xlink">
<g id="graph0" class="graph" transform="scale(1 1) rotate(0) translate(4 189)">
<title>jngl/Drawable.hpp</title>
<!-- Node1 -->
<g id="Node000001" class="node">
<title>Node1</title>
<g id="a_Node000001"><a xlink:title="Contains jngl::Drawable class.">
<polygon fill="#999999" stroke="#666666" points="128.09,-185 10.09,-185 10.09,-165.75 128.09,-165.75 128.09,-185"/>
<text text-anchor="middle" x="69.09" y="-171.5" font-family="ui-monospace,monospace" font-size="10.00">jngl/Drawable.hpp</text>
</a>
</g>
</g>
<!-- Node2 -->
<g id="Node000002" class="node">
<title>Node2</title>
<g id="a_Node000002"><a xlink:href="jngl_8hpp.html" target="_top" xlink:title="Includes all JNGL headers except for init.hpp.">
<polygon fill="white" stroke="#666666" points="141.09,-19.25 77.09,-19.25 77.09,0 141.09,0 141.09,-19.25"/>
<text text-anchor="middle" x="109.09" y="-5.75" font-family="ui-monospace,monospace" font-size="10.00">jngl.hpp</text>
</a>
</g>
</g>
<!-- Node1&#45;&gt;Node2 -->
<g id="edge1_Node000001_Node000002" class="edge">
<title>Node1&#45;&gt;Node2</title>
<g id="a_edge1_Node000001_Node000002"><a xlink:title=" ">
<path fill="none" stroke="#63b8ff" d="M49.39,-157.97C23.62,-134.46 -15.74,-90.16 7.09,-55.25 22.43,-31.79 53.11,-20.59 76.84,-15.29"/>
<polygon fill="#63b8ff" stroke="#63b8ff" points="46.86,-160.4 56.68,-164.37 51.48,-155.14 46.86,-160.4"/>
</a>
</g>
</g>
<!-- Node3 -->
<g id="Node000003" class="node">
<title>Node3</title>
<g id="a_Node000003"><a xlink:href="Sprite_8hpp.html" target="_top" xlink:title="Contains jngl::Sprite class and related functions.">
<polygon fill="white" stroke="#666666" points="122.09,-74.5 16.09,-74.5 16.09,-55.25 122.09,-55.25 122.09,-74.5"/>
<text text-anchor="middle" x="69.09" y="-61" font-family="ui-monospace,monospace" font-size="10.00">jngl/Sprite.hpp</text>
</a>
</g>
</g>
<!-- Node1&#45;&gt;Node3 -->
<g id="edge2_Node000001_Node000003" class="edge">
<title>Node1&#45;&gt;Node3</title>
<g id="a_edge2_Node000001_Node000003"><a xlink:title=" ">
<path fill="none" stroke="#63b8ff" d="M69.09,-154.03C69.09,-130.3 69.09,-92.14 69.09,-74.88"/>
<polygon fill="#63b8ff" stroke="#63b8ff" points="65.59,-153.98 69.09,-163.98 72.59,-153.98 65.59,-153.98"/>
</a>
</g>
</g>
<!-- Node4 -->
<g id="Node000004" class="node">
<title>Node4</title>
<g id="a_Node000004"><a xlink:href="text_8hpp.html" target="_top" xlink:title=" ">
<polygon fill="white" stroke="#666666" points="197.09,-129.75 103.09,-129.75 103.09,-110.5 197.09,-110.5 197.09,-129.75"/>
<text text-anchor="middle" x="150.09" y="-116.25" font-family="ui-monospace,monospace" font-size="10.00">jngl/text.hpp</text>
</a>
</g>
</g>
<!-- Node1&#45;&gt;Node4 -->
<g id="edge4_Node000001_Node000004" class="edge">
<title>Node1&#45;&gt;Node4</title>
<g id="a_edge4_Node000001_Node000004"><a xlink:title=" ">
<path fill="none" stroke="#63b8ff" d="M92.43,-159.03C106.62,-149.7 124.27,-138.1 136.28,-130.2"/>
<polygon fill="#63b8ff" stroke="#63b8ff" points="90.53,-156.09 84.09,-164.51 94.37,-161.94 90.53,-156.09"/>
</a>
</g>
</g>
<!-- Node3&#45;&gt;Node2 -->
<g id="edge3_Node000003_Node000002" class="edge">
<title>Node3&#45;&gt;Node2</title>
<g id="a_edge3_Node000003_Node000002"><a xlink:title=" ">
<path fill="none" stroke="#63b8ff" d="M82.56,-45.94C89.21,-37.09 96.94,-26.79 102.34,-19.61"/>
<polygon fill="#63b8ff" stroke="#63b8ff" points="79.81,-43.77 76.6,-53.87 85.41,-47.98 79.81,-43.77"/>
</a>
</g>
</g>
<!-- Node4&#45;&gt;Node2 -->
<g id="edge5_Node000004_Node000002" class="edge">
<title>Node4&#45;&gt;Node2</title>
<g id="a_edge5_Node000004_Node000002"><a xlink:title=" ">
<path fill="none" stroke="#63b8ff" d="M145.18,-99.52C141.75,-86.73 136.78,-69.78 131.09,-55.25 126.11,-42.54 118.89,-28.52 114.1,-19.65"/>
<polygon fill="#63b8ff" stroke="#63b8ff" points="141.69,-100.02 147.58,-108.82 148.47,-98.27 141.69,-100.02"/>
</a>
</g>
</g>
<!-- Node5 -->
<g id="Node000005" class="node">
<title>Node5</title>
<g id="a_Node000005"><a xlink:href="Label_8hpp.html" target="_top" xlink:title="Contains jngl::Label class.">
<polygon fill="white" stroke="#666666" points="278.09,-74.5 178.09,-74.5 178.09,-55.25 278.09,-55.25 278.09,-74.5"/>
<text text-anchor="middle" x="228.09" y="-61" font-family="ui-monospace,monospace" font-size="10.00">jngl/Label.hpp</text>
</a>
</g>
</g>
<!-- Node4&#45;&gt;Node5 -->
<g id="edge6_Node000004_Node000005" class="edge">
<title>Node4&#45;&gt;Node5</title>
<g id="a_edge6_Node000004_Node000005"><a xlink:title=" ">
<path fill="none" stroke="#63b8ff" d="M172.56,-103.78C186.23,-94.45 203.23,-82.85 214.79,-74.95"/>
<polygon fill="#63b8ff" stroke="#63b8ff" points="170.85,-100.71 164.57,-109.24 174.8,-106.49 170.85,-100.71"/>
</a>
</g>
</g>
<!-- Node5&#45;&gt;Node2 -->
<g id="edge7_Node000005_Node000002" class="edge">
<title>Node5&#45;&gt;Node2</title>
<g id="a_edge7_Node000005_Node000002"><a xlink:title=" ">
<path fill="none" stroke="#63b8ff" d="M197.69,-50.27C176.25,-40.68 148.13,-28.09 129.37,-19.7"/>
<polygon fill="#63b8ff" stroke="#63b8ff" points="195.96,-53.33 206.52,-54.22 198.82,-46.94 195.96,-53.33"/>
</a>
</g>
</g>
</g>
</svg>
