<?xml version="1.0" encoding="UTF-8" standalone="no"?>
<!DOCTYPE svg PUBLIC "-//W3C//DTD SVG 1.1//EN"
 "http://www.w3.org/Graphics/SVG/1.1/DTD/svg11.dtd">
<!-- Generated by graphviz version 2.42.4 (0)
 -->
<!-- Title: jngl/Drawable.hpp Pages: 1 -->
<svg width="317pt" height="252pt"
 viewBox="0.00 0.00 317.10 252.00" xmlns="http://www.w3.org/2000/svg" xmlns:xlink="http://www.w3.org/1999/xlink">
<g id="graph0" class="graph" transform="scale(1 1) rotate(0) translate(4 248)">
<title>jngl/Drawable.hpp</title>
<polygon fill="white" stroke="transparent" points="-4,4 -4,-248 313.1,-248 313.1,4 -4,4"/>
<!-- Node1 -->
<g id="node1" class="node">
<title>Node1</title>
<g id="a_node1"><a xlink:title="Contains jngl::Drawable class.">
<polygon fill="#bfbfbf" stroke="black" points="6.1,-224.5 6.1,-243.5 125.1,-243.5 125.1,-224.5 6.1,-224.5"/>
<text text-anchor="middle" x="65.6" y="-231.5" font-family="'Consolas',monospace" font-size="10.00">jngl/Drawable.hpp</text>
</a>
</g>
</g>
<!-- Node2 -->
<g id="node2" class="node">
<title>Node2</title>
<g id="a_node2"><a xlink:href="all_8hpp.html" target="_top" xlink:title="Includes all JNGL headers except for init.hpp.">
<polygon fill="white" stroke="black" points="56.1,-56.5 56.1,-75.5 145.1,-75.5 145.1,-56.5 56.1,-56.5"/>
<text text-anchor="middle" x="100.6" y="-63.5" font-family="'Consolas',monospace" font-size="10.00">jngl/all.hpp</text>
</a>
</g>
</g>
<!-- Node1&#45;&gt;Node2 -->
<g id="edge1" class="edge">
<title>Node1&#45;&gt;Node2</title>
<path fill="none" stroke="midnightblue" d="M35.78,-219.61C23.13,-212.23 9.68,-201.75 2.6,-188 -1.46,-180.1 0.32,-176.59 2.6,-168 9.96,-140.29 15.15,-133.06 34.6,-112 48.91,-96.52 69.49,-83.55 83.86,-75.58"/>
<polygon fill="midnightblue" stroke="midnightblue" points="34.29,-222.78 44.76,-224.43 37.6,-216.61 34.29,-222.78"/>
</g>
<!-- Node4 -->
<g id="node4" class="node">
<title>Node4</title>
<g id="a_node4"><a xlink:href="sprite_8hpp.html" target="_top" xlink:title="Contains jngl::Sprite class and related functions.">
<polygon fill="white" stroke="black" points="12.1,-168.5 12.1,-187.5 119.1,-187.5 119.1,-168.5 12.1,-168.5"/>
<text text-anchor="middle" x="65.6" y="-175.5" font-family="'Consolas',monospace" font-size="10.00">jngl/sprite.hpp</text>
</a>
</g>
</g>
<!-- Node1&#45;&gt;Node4 -->
<g id="edge3" class="edge">
<title>Node1&#45;&gt;Node4</title>
<path fill="none" stroke="midnightblue" d="M65.6,-213.8C65.6,-204.91 65.6,-194.78 65.6,-187.75"/>
<polygon fill="midnightblue" stroke="midnightblue" points="62.1,-214.08 65.6,-224.08 69.1,-214.08 62.1,-214.08"/>
</g>
<!-- Node6 -->
<g id="node6" class="node">
<title>Node6</title>
<g id="a_node6"><a xlink:href="text_8hpp.html" target="_top" xlink:title=" ">
<polygon fill="white" stroke="black" points="137.1,-168.5 137.1,-187.5 232.1,-187.5 232.1,-168.5 137.1,-168.5"/>
<text text-anchor="middle" x="184.6" y="-175.5" font-family="'Consolas',monospace" font-size="10.00">jngl/text.hpp</text>
</a>
</g>
</g>
<!-- Node1&#45;&gt;Node6 -->
<g id="edge7" class="edge">
<title>Node1&#45;&gt;Node6</title>
<path fill="none" stroke="midnightblue" d="M93.74,-220.23C116,-210.13 146.46,-196.31 165.84,-187.52"/>
<polygon fill="midnightblue" stroke="midnightblue" points="92.12,-217.12 84.46,-224.44 95.01,-223.5 92.12,-217.12"/>
</g>
<!-- Node3 -->
<g id="node3" class="node">
<title>Node3</title>
<g id="a_node3"><a xlink:href="jngl_8hpp.html" target="_top" xlink:title="Includes jngl/all.hpp.">
<polygon fill="white" stroke="black" points="68.1,-0.5 68.1,-19.5 133.1,-19.5 133.1,-0.5 68.1,-0.5"/>
<text text-anchor="middle" x="100.6" y="-7.5" font-family="'Consolas',monospace" font-size="10.00">jngl.hpp</text>
</a>
</g>
</g>
<!-- Node2&#45;&gt;Node3 -->
<g id="edge2" class="edge">
<title>Node2&#45;&gt;Node3</title>
<path fill="none" stroke="midnightblue" d="M100.6,-45.8C100.6,-36.91 100.6,-26.78 100.6,-19.75"/>
<polygon fill="midnightblue" stroke="midnightblue" points="97.1,-46.08 100.6,-56.08 104.1,-46.08 97.1,-46.08"/>
</g>
<!-- Node4&#45;&gt;Node2 -->
<g id="edge4" class="edge">
<title>Node4&#45;&gt;Node2</title>
<path fill="none" stroke="midnightblue" d="M51.4,-160.12C41.98,-146.77 32.7,-127.82 40.6,-112 49.05,-95.11 67.18,-82.92 81.31,-75.52"/>
<polygon fill="midnightblue" stroke="midnightblue" points="48.86,-162.56 57.73,-168.36 54.41,-158.3 48.86,-162.56"/>
</g>
<!-- Node5 -->
<g id="node5" class="node">
<title>Node5</title>
<g id="a_node5"><a xlink:href="Video_8hpp.html" target="_top" xlink:title=" ">
<polygon fill="white" stroke="black" points="50.1,-112.5 50.1,-131.5 151.1,-131.5 151.1,-112.5 50.1,-112.5"/>
<text text-anchor="middle" x="100.6" y="-119.5" font-family="'Consolas',monospace" font-size="10.00">jngl/Video.hpp</text>
</a>
</g>
</g>
<!-- Node4&#45;&gt;Node5 -->
<g id="edge5" class="edge">
<title>Node4&#45;&gt;Node5</title>
<path fill="none" stroke="midnightblue" d="M76.9,-159.57C82.93,-150.27 90.07,-139.25 94.93,-131.75"/>
<polygon fill="midnightblue" stroke="midnightblue" points="73.89,-157.79 71.38,-168.08 79.76,-161.6 73.89,-157.79"/>
</g>
<!-- Node5&#45;&gt;Node2 -->
<g id="edge6" class="edge">
<title>Node5&#45;&gt;Node2</title>
<path fill="none" stroke="midnightblue" d="M100.6,-101.8C100.6,-92.91 100.6,-82.78 100.6,-75.75"/>
<polygon fill="midnightblue" stroke="midnightblue" points="97.1,-102.08 100.6,-112.08 104.1,-102.08 97.1,-102.08"/>
</g>
<!-- Node6&#45;&gt;Node2 -->
<g id="edge8" class="edge">
<title>Node6&#45;&gt;Node2</title>
<path fill="none" stroke="midnightblue" d="M180.4,-158.45C176.62,-144.65 170.02,-125.89 159.6,-112 147.94,-96.43 129.51,-83.58 116.35,-75.65"/>
<polygon fill="midnightblue" stroke="midnightblue" points="177.03,-159.41 182.85,-168.26 183.82,-157.71 177.03,-159.41"/>
</g>
<!-- Node7 -->
<g id="node7" class="node">
<title>Node7</title>
<g id="a_node7"><a xlink:href="Label_8hpp_source.html" target="_top" xlink:title=" ">
<polygon fill="white" stroke="black" points="208.1,-112.5 208.1,-131.5 309.1,-131.5 309.1,-112.5 208.1,-112.5"/>
<text text-anchor="middle" x="258.6" y="-119.5" font-family="'Consolas',monospace" font-size="10.00">jngl/Label.hpp</text>
</a>
</g>
</g>
<!-- Node6&#45;&gt;Node7 -->
<g id="edge9" class="edge">
<title>Node6&#45;&gt;Node7</title>
<path fill="none" stroke="midnightblue" d="M204.64,-162.38C218.01,-152.62 235.16,-140.11 246.5,-131.83"/>
<polygon fill="midnightblue" stroke="midnightblue" points="202.51,-159.6 196.49,-168.32 206.63,-165.26 202.51,-159.6"/>
</g>
<!-- Node7&#45;&gt;Node2 -->
<g id="edge10" class="edge">
<title>Node7&#45;&gt;Node2</title>
<path fill="none" stroke="midnightblue" d="M224,-109.17C194.25,-99 152.06,-84.59 125.52,-75.52"/>
<polygon fill="midnightblue" stroke="midnightblue" points="222.97,-112.52 233.57,-112.44 225.24,-105.9 222.97,-112.52"/>
</g>
</g>
</svg>
