<?xml version="1.0" encoding="UTF-8" standalone="no"?>
<!DOCTYPE svg PUBLIC "-//W3C//DTD SVG 1.1//EN"
 "http://www.w3.org/Graphics/SVG/1.1/DTD/svg11.dtd">
<!-- Generated by graphviz version 5.0.0 (0)
 -->
<!-- Title: jngl/Drawable.hpp Pages: 1 -->
<svg width="343pt" height="247pt"
 viewBox="0.00 0.00 343.29 247.00" xmlns="http://www.w3.org/2000/svg" xmlns:xlink="http://www.w3.org/1999/xlink">
<g id="graph0" class="graph" transform="scale(1 1) rotate(0) translate(4 243)">
<title>jngl/Drawable.hpp</title>
<!-- Node1 -->
<g id="node1" class="node">
<title>Node1</title>
<g id="a_node1"><a xlink:title="Contains jngl::Drawable class.">
<polygon fill="#999999" stroke="#666666" points="198.29,-239 79.29,-239 79.29,-220 198.29,-220 198.29,-239"/>
<text text-anchor="middle" x="138.79" y="-227" font-family="ui-monospace,monospace" font-size="10.00">jngl/Drawable.hpp</text>
</a>
</g>
</g>
<!-- Node2 -->
<g id="node2" class="node">
<title>Node2</title>
<g id="a_node2"><a xlink:href="TextLine_8hpp.html" target="_top" xlink:title="Contains jngl::TextLine class.">
<polygon fill="white" stroke="#666666" points="136.29,-184 17.29,-184 17.29,-165 136.29,-165 136.29,-184"/>
<text text-anchor="middle" x="76.79" y="-172" font-family="ui-monospace,monospace" font-size="10.00">jngl/TextLine.hpp</text>
</a>
</g>
</g>
<!-- Node1&#45;&gt;Node2 -->
<g id="edge1" class="edge">
<title>Node1&#45;&gt;Node2</title>
<path fill="none" stroke="#63b8ff" d="M121.03,-213.32C109.98,-203.87 96.15,-192.06 86.93,-184.17"/>
<polygon fill="#63b8ff" stroke="#63b8ff" points="118.95,-216.15 128.82,-219.98 123.5,-210.83 118.95,-216.15"/>
</g>
<!-- Node4 -->
<g id="node4" class="node">
<title>Node4</title>
<g id="a_node4"><a xlink:href="all_8hpp.html" target="_top" xlink:title="Includes all JNGL headers except for init.hpp.">
<polygon fill="white" stroke="#666666" points="165.29,-74 76.29,-74 76.29,-55 165.29,-55 165.29,-74"/>
<text text-anchor="middle" x="120.79" y="-62" font-family="ui-monospace,monospace" font-size="10.00">jngl/all.hpp</text>
</a>
</g>
</g>
<!-- Node1&#45;&gt;Node4 -->
<g id="edge6" class="edge">
<title>Node1&#45;&gt;Node4</title>
<path fill="none" stroke="#63b8ff" d="M69.05,-221.17C45.72,-215.01 22.05,-203.9 7.79,-184 -24.91,-138.36 60.1,-92.61 100.66,-74.09"/>
<polygon fill="#63b8ff" stroke="#63b8ff" points="68.46,-224.63 79,-223.52 70.07,-217.82 68.46,-224.63"/>
</g>
<!-- Node6 -->
<g id="node6" class="node">
<title>Node6</title>
<g id="a_node6"><a xlink:href="sprite_8hpp.html" target="_top" xlink:title="Contains jngl::Sprite class and related functions.">
<polygon fill="white" stroke="#666666" points="335.29,-129 228.29,-129 228.29,-110 335.29,-110 335.29,-129"/>
<text text-anchor="middle" x="281.79" y="-117" font-family="ui-monospace,monospace" font-size="10.00">jngl/sprite.hpp</text>
</a>
</g>
</g>
<!-- Node1&#45;&gt;Node6 -->
<g id="edge7" class="edge">
<title>Node1&#45;&gt;Node6</title>
<path fill="none" stroke="#63b8ff" d="M199.01,-217.18C220.2,-210.57 242.7,-200.21 258.79,-184 273.98,-168.69 279.22,-142.58 280.96,-129.11"/>
<polygon fill="#63b8ff" stroke="#63b8ff" points="198.04,-213.81 189.4,-219.95 199.98,-220.54 198.04,-213.81"/>
</g>
<!-- Node7 -->
<g id="node7" class="node">
<title>Node7</title>
<g id="a_node7"><a xlink:href="text_8hpp.html" target="_top" xlink:title=" ">
<polygon fill="white" stroke="#666666" points="249.29,-184 154.29,-184 154.29,-165 249.29,-165 249.29,-184"/>
<text text-anchor="middle" x="201.79" y="-172" font-family="ui-monospace,monospace" font-size="10.00">jngl/text.hpp</text>
</a>
</g>
</g>
<!-- Node1&#45;&gt;Node7 -->
<g id="edge9" class="edge">
<title>Node1&#45;&gt;Node7</title>
<path fill="none" stroke="#63b8ff" d="M156.83,-213.32C168.06,-203.87 182.11,-192.06 191.48,-184.17"/>
<polygon fill="#63b8ff" stroke="#63b8ff" points="154.31,-210.87 148.91,-219.98 158.81,-216.23 154.31,-210.87"/>
</g>
<!-- Node3 -->
<g id="node3" class="node">
<title>Node3</title>
<g id="a_node3"><a xlink:href="Label_8hpp.html" target="_top" xlink:title="Contains jngl::Label class.">
<polygon fill="white" stroke="#666666" points="171.29,-129 70.29,-129 70.29,-110 171.29,-110 171.29,-129"/>
<text text-anchor="middle" x="120.79" y="-117" font-family="ui-monospace,monospace" font-size="10.00">jngl/Label.hpp</text>
</a>
</g>
</g>
<!-- Node2&#45;&gt;Node3 -->
<g id="edge2" class="edge">
<title>Node2&#45;&gt;Node3</title>
<path fill="none" stroke="#63b8ff" d="M90.52,-156.96C98.19,-147.72 107.42,-136.6 113.66,-129.09"/>
<polygon fill="#63b8ff" stroke="#63b8ff" points="87.75,-154.82 84.05,-164.75 93.13,-159.29 87.75,-154.82"/>
</g>
<!-- Node2&#45;&gt;Node4 -->
<g id="edge5" class="edge">
<title>Node2&#45;&gt;Node4</title>
<path fill="none" stroke="#63b8ff" d="M65.97,-155.91C59.36,-142.74 53.45,-124.57 60.79,-110 69.18,-93.32 87.12,-81.32 101.2,-74.02"/>
<polygon fill="#63b8ff" stroke="#63b8ff" points="63.04,-157.83 70.96,-164.87 69.15,-154.43 63.04,-157.83"/>
</g>
<!-- Node3&#45;&gt;Node4 -->
<g id="edge3" class="edge">
<title>Node3&#45;&gt;Node4</title>
<path fill="none" stroke="#63b8ff" d="M120.79,-99.66C120.79,-90.93 120.79,-80.99 120.79,-74.09"/>
<polygon fill="#63b8ff" stroke="#63b8ff" points="117.29,-99.75 120.79,-109.75 124.29,-99.75 117.29,-99.75"/>
</g>
<!-- Node5 -->
<g id="node5" class="node">
<title>Node5</title>
<g id="a_node5"><a xlink:href="jngl_8hpp.html" target="_top" xlink:title="Includes jngl/all.hpp.">
<polygon fill="white" stroke="#666666" points="153.29,-19 88.29,-19 88.29,0 153.29,0 153.29,-19"/>
<text text-anchor="middle" x="120.79" y="-7" font-family="ui-monospace,monospace" font-size="10.00">jngl.hpp</text>
</a>
</g>
</g>
<!-- Node4&#45;&gt;Node5 -->
<g id="edge4" class="edge">
<title>Node4&#45;&gt;Node5</title>
<path fill="none" stroke="#63b8ff" d="M120.79,-44.66C120.79,-35.93 120.79,-25.99 120.79,-19.09"/>
<polygon fill="#63b8ff" stroke="#63b8ff" points="117.29,-44.75 120.79,-54.75 124.29,-44.75 117.29,-44.75"/>
</g>
<!-- Node6&#45;&gt;Node4 -->
<g id="edge8" class="edge">
<title>Node6&#45;&gt;Node4</title>
<path fill="none" stroke="#63b8ff" d="M246.24,-106.8C216.19,-96.91 173.85,-82.97 146.86,-74.08"/>
<polygon fill="#63b8ff" stroke="#63b8ff" points="245.33,-110.18 255.92,-109.98 247.51,-103.53 245.33,-110.18"/>
</g>
<!-- Node7&#45;&gt;Node3 -->
<g id="edge10" class="edge">
<title>Node7&#45;&gt;Node3</title>
<path fill="none" stroke="#63b8ff" d="M180.27,-159.42C165.58,-149.81 146.56,-137.37 134.04,-129.17"/>
<polygon fill="#63b8ff" stroke="#63b8ff" points="178.49,-162.44 188.77,-164.98 182.32,-156.58 178.49,-162.44"/>
</g>
<!-- Node7&#45;&gt;Node4 -->
<g id="edge11" class="edge">
<title>Node7&#45;&gt;Node4</title>
<path fill="none" stroke="#63b8ff" d="M198.76,-154.94C195.87,-141.49 190.46,-123.38 180.79,-110 169.46,-94.34 151,-81.83 137.54,-74.12"/>
<polygon fill="#63b8ff" stroke="#63b8ff" points="195.35,-155.76 200.64,-164.94 202.23,-154.47 195.35,-155.76"/>
</g>
</g>
</svg>
