<?xml version="1.0" encoding="UTF-8" standalone="no"?>
<!DOCTYPE svg PUBLIC "-//W3C//DTD SVG 1.1//EN"
 "http://www.w3.org/Graphics/SVG/1.1/DTD/svg11.dtd">
<!-- Generated by graphviz version 2.44.0 (0)
 -->
<!-- Title: jngl/Drawable.hpp Pages: 1 -->
<svg width="337pt" height="252pt"
 viewBox="0.00 0.00 337.46 252.00" xmlns="http://www.w3.org/2000/svg" xmlns:xlink="http://www.w3.org/1999/xlink">
<g id="graph0" class="graph" transform="scale(1 1) rotate(0) translate(4 248)">
<title>jngl/Drawable.hpp</title>
<polygon fill="white" stroke="transparent" points="-4,4 -4,-248 333.46,-248 333.46,4 -4,4"/>
<!-- Node1 -->
<g id="node1" class="node">
<title>Node1</title>
<g id="a_node1"><a xlink:title="Contains jngl::Drawable class.">
<polygon fill="#bfbfbf" stroke="black" points="47.46,-224.5 47.46,-243.5 166.46,-243.5 166.46,-224.5 47.46,-224.5"/>
<text text-anchor="middle" x="106.96" y="-231.5" font-family="'Consolas',monospace" font-size="10.00">jngl/Drawable.hpp</text>
</a>
</g>
</g>
<!-- Node2 -->
<g id="node2" class="node">
<title>Node2</title>
<g id="a_node2"><a xlink:href="all_8hpp.html" target="_top" xlink:title="Includes all JNGL headers except for init.hpp.">
<polygon fill="white" stroke="black" points="108.46,-56.5 108.46,-75.5 197.46,-75.5 197.46,-56.5 108.46,-56.5"/>
<text text-anchor="middle" x="152.96" y="-63.5" font-family="'Consolas',monospace" font-size="10.00">jngl/all.hpp</text>
</a>
</g>
</g>
<!-- Node1&#45;&gt;Node2 -->
<g id="edge1" class="edge">
<title>Node1&#45;&gt;Node2</title>
<path fill="none" stroke="midnightblue" d="M81.08,-219.35C42.7,-197.31 -21.72,-152.29 7.96,-112 30.78,-81.02 74.74,-70.74 108.29,-67.62"/>
<polygon fill="midnightblue" stroke="midnightblue" points="79.76,-222.62 90.2,-224.44 83.17,-216.51 79.76,-222.62"/>
</g>
<!-- Node4 -->
<g id="node4" class="node">
<title>Node4</title>
<g id="a_node4"><a xlink:href="sprite_8hpp.html" target="_top" xlink:title="Contains jngl::Sprite class and related functions.">
<polygon fill="white" stroke="black" points="17.46,-112.5 17.46,-131.5 124.46,-131.5 124.46,-112.5 17.46,-112.5"/>
<text text-anchor="middle" x="70.96" y="-119.5" font-family="'Consolas',monospace" font-size="10.00">jngl/sprite.hpp</text>
</a>
</g>
</g>
<!-- Node1&#45;&gt;Node4 -->
<g id="edge3" class="edge">
<title>Node1&#45;&gt;Node4</title>
<path fill="none" stroke="midnightblue" d="M98.64,-214.95C95.07,-206.82 91.03,-197.03 87.96,-188 81.2,-168.12 75.54,-144.06 72.78,-131.53"/>
<polygon fill="midnightblue" stroke="midnightblue" points="95.49,-216.5 102.79,-224.18 101.88,-213.63 95.49,-216.5"/>
</g>
<!-- Node5 -->
<g id="node5" class="node">
<title>Node5</title>
<g id="a_node5"><a xlink:href="text_8hpp.html" target="_top" xlink:title=" ">
<polygon fill="white" stroke="black" points="97.46,-168.5 97.46,-187.5 192.46,-187.5 192.46,-168.5 97.46,-168.5"/>
<text text-anchor="middle" x="144.96" y="-175.5" font-family="'Consolas',monospace" font-size="10.00">jngl/text.hpp</text>
</a>
</g>
</g>
<!-- Node1&#45;&gt;Node5 -->
<g id="edge5" class="edge">
<title>Node1&#45;&gt;Node5</title>
<path fill="none" stroke="midnightblue" d="M119.02,-215.86C125.6,-206.5 133.47,-195.33 138.8,-187.75"/>
<polygon fill="midnightblue" stroke="midnightblue" points="116.13,-213.89 113.23,-224.08 121.85,-217.92 116.13,-213.89"/>
</g>
<!-- Node6 -->
<g id="node6" class="node">
<title>Node6</title>
<g id="a_node6"><a xlink:href="TextLine_8hpp.html" target="_top" xlink:title="Contains jngl::TextLine class.">
<polygon fill="white" stroke="black" points="210.46,-168.5 210.46,-187.5 329.46,-187.5 329.46,-168.5 210.46,-168.5"/>
<text text-anchor="middle" x="269.96" y="-175.5" font-family="'Consolas',monospace" font-size="10.00">jngl/TextLine.hpp</text>
</a>
</g>
</g>
<!-- Node1&#45;&gt;Node6 -->
<g id="edge7" class="edge">
<title>Node1&#45;&gt;Node6</title>
<path fill="none" stroke="midnightblue" d="M142.66,-221.17C173.35,-211 216.88,-196.59 244.25,-187.52"/>
<polygon fill="midnightblue" stroke="midnightblue" points="141.18,-217.98 132.79,-224.44 143.38,-224.62 141.18,-217.98"/>
</g>
<!-- Node3 -->
<g id="node3" class="node">
<title>Node3</title>
<g id="a_node3"><a xlink:href="jngl_8hpp.html" target="_top" xlink:title="Includes jngl/all.hpp.">
<polygon fill="white" stroke="black" points="120.46,-0.5 120.46,-19.5 185.46,-19.5 185.46,-0.5 120.46,-0.5"/>
<text text-anchor="middle" x="152.96" y="-7.5" font-family="'Consolas',monospace" font-size="10.00">jngl.hpp</text>
</a>
</g>
</g>
<!-- Node2&#45;&gt;Node3 -->
<g id="edge2" class="edge">
<title>Node2&#45;&gt;Node3</title>
<path fill="none" stroke="midnightblue" d="M152.96,-45.8C152.96,-36.91 152.96,-26.78 152.96,-19.75"/>
<polygon fill="midnightblue" stroke="midnightblue" points="149.46,-46.08 152.96,-56.08 156.46,-46.08 149.46,-46.08"/>
</g>
<!-- Node4&#45;&gt;Node2 -->
<g id="edge4" class="edge">
<title>Node4&#45;&gt;Node2</title>
<path fill="none" stroke="midnightblue" d="M92.79,-106.62C107.77,-96.76 127.16,-83.99 139.82,-75.65"/>
<polygon fill="midnightblue" stroke="midnightblue" points="90.56,-103.9 84.13,-112.32 94.41,-109.75 90.56,-103.9"/>
</g>
<!-- Node5&#45;&gt;Node2 -->
<g id="edge6" class="edge">
<title>Node5&#45;&gt;Node2</title>
<path fill="none" stroke="midnightblue" d="M146.31,-158.35C148.07,-134.25 151.05,-93.31 152.33,-75.59"/>
<polygon fill="midnightblue" stroke="midnightblue" points="142.82,-158.14 145.59,-168.37 149.8,-158.65 142.82,-158.14"/>
</g>
<!-- Node6&#45;&gt;Node2 -->
<g id="edge8" class="edge">
<title>Node6&#45;&gt;Node2</title>
<path fill="none" stroke="midnightblue" d="M248.54,-162.58C236.7,-154.21 221.99,-143.14 209.96,-132 189.92,-113.44 169.56,-88.41 159.47,-75.5"/>
<polygon fill="midnightblue" stroke="midnightblue" points="246.74,-165.59 256.95,-168.41 250.73,-159.84 246.74,-165.59"/>
</g>
<!-- Node7 -->
<g id="node7" class="node">
<title>Node7</title>
<g id="a_node7"><a xlink:href="Label_8hpp.html" target="_top" xlink:title="Contains jngl::Label class.">
<polygon fill="white" stroke="black" points="219.46,-112.5 219.46,-131.5 320.46,-131.5 320.46,-112.5 219.46,-112.5"/>
<text text-anchor="middle" x="269.96" y="-119.5" font-family="'Consolas',monospace" font-size="10.00">jngl/Label.hpp</text>
</a>
</g>
</g>
<!-- Node6&#45;&gt;Node7 -->
<g id="edge9" class="edge">
<title>Node6&#45;&gt;Node7</title>
<path fill="none" stroke="midnightblue" d="M269.96,-157.8C269.96,-148.91 269.96,-138.78 269.96,-131.75"/>
<polygon fill="midnightblue" stroke="midnightblue" points="266.46,-158.08 269.96,-168.08 273.46,-158.08 266.46,-158.08"/>
</g>
<!-- Node7&#45;&gt;Node2 -->
<g id="edge10" class="edge">
<title>Node7&#45;&gt;Node2</title>
<path fill="none" stroke="midnightblue" d="M242.29,-108.23C220.41,-98.13 190.46,-84.31 171.41,-75.52"/>
<polygon fill="midnightblue" stroke="midnightblue" points="240.87,-111.43 251.42,-112.44 243.81,-105.08 240.87,-111.43"/>
</g>
</g>
</svg>
