<?xml version="1.0" encoding="UTF-8" standalone="no"?>
<!DOCTYPE svg PUBLIC "-//W3C//DTD SVG 1.1//EN"
 "http://www.w3.org/Graphics/SVG/1.1/DTD/svg11.dtd">
<!-- Generated by graphviz version 2.44.0 (0)
 -->
<!-- Title: jngl/Drawable.hpp Pages: 1 -->
<svg width="343pt" height="252pt"
 viewBox="0.00 0.00 343.49 252.00" xmlns="http://www.w3.org/2000/svg" xmlns:xlink="http://www.w3.org/1999/xlink">
<g id="graph0" class="graph" transform="scale(1 1) rotate(0) translate(4 248)">
<title>jngl/Drawable.hpp</title>
<polygon fill="white" stroke="transparent" points="-4,4 -4,-248 339.49,-248 339.49,4 -4,4"/>
<!-- Node1 -->
<g id="node1" class="node">
<title>Node1</title>
<g id="a_node1"><a xlink:title="Contains jngl::Drawable class.">
<polygon fill="#bfbfbf" stroke="black" points="50.49,-224.5 50.49,-243.5 169.49,-243.5 169.49,-224.5 50.49,-224.5"/>
<text text-anchor="middle" x="109.99" y="-231.5" font-family="'Consolas',monospace" font-size="10.00">jngl/Drawable.hpp</text>
</a>
</g>
</g>
<!-- Node2 -->
<g id="node2" class="node">
<title>Node2</title>
<g id="a_node2"><a xlink:href="all_8hpp.html" target="_top" xlink:title="Includes all JNGL headers except for init.hpp.">
<polygon fill="white" stroke="black" points="108.49,-56.5 108.49,-75.5 197.49,-75.5 197.49,-56.5 108.49,-56.5"/>
<text text-anchor="middle" x="152.99" y="-63.5" font-family="'Consolas',monospace" font-size="10.00">jngl/all.hpp</text>
</a>
</g>
</g>
<!-- Node1&#45;&gt;Node2 -->
<g id="edge1" class="edge">
<title>Node1&#45;&gt;Node2</title>
<path fill="none" stroke="midnightblue" d="M83.65,-219.58C44.32,-197.74 -22.11,-152.85 7.99,-112 30.82,-81.02 74.77,-70.74 108.33,-67.62"/>
<polygon fill="midnightblue" stroke="midnightblue" points="82.07,-222.7 92.53,-224.37 85.39,-216.54 82.07,-222.7"/>
</g>
<!-- Node4 -->
<g id="node4" class="node">
<title>Node4</title>
<g id="a_node4"><a xlink:href="sprite_8hpp.html" target="_top" xlink:title="Contains jngl::Sprite class and related functions.">
<polygon fill="white" stroke="black" points="17.49,-112.5 17.49,-131.5 124.49,-131.5 124.49,-112.5 17.49,-112.5"/>
<text text-anchor="middle" x="70.99" y="-119.5" font-family="'Consolas',monospace" font-size="10.00">jngl/sprite.hpp</text>
</a>
</g>
</g>
<!-- Node1&#45;&gt;Node4 -->
<g id="edge3" class="edge">
<title>Node1&#45;&gt;Node4</title>
<path fill="none" stroke="midnightblue" d="M103.5,-214.75C100.59,-206.57 97.11,-196.8 93.99,-188 86.87,-167.92 78.53,-144.34 74.11,-131.83"/>
<polygon fill="midnightblue" stroke="midnightblue" points="100.27,-216.13 106.92,-224.37 106.86,-213.78 100.27,-216.13"/>
</g>
<!-- Node5 -->
<g id="node5" class="node">
<title>Node5</title>
<g id="a_node5"><a xlink:href="text_8hpp.html" target="_top" xlink:title=" ">
<polygon fill="white" stroke="black" points="103.49,-168.5 103.49,-187.5 198.49,-187.5 198.49,-168.5 103.49,-168.5"/>
<text text-anchor="middle" x="150.99" y="-175.5" font-family="'Consolas',monospace" font-size="10.00">jngl/text.hpp</text>
</a>
</g>
</g>
<!-- Node1&#45;&gt;Node5 -->
<g id="edge5" class="edge">
<title>Node1&#45;&gt;Node5</title>
<path fill="none" stroke="midnightblue" d="M123.01,-215.86C130.11,-206.5 138.6,-195.33 144.35,-187.75"/>
<polygon fill="midnightblue" stroke="midnightblue" points="120.02,-214 116.76,-224.08 125.6,-218.24 120.02,-214"/>
</g>
<!-- Node7 -->
<g id="node7" class="node">
<title>Node7</title>
<g id="a_node7"><a xlink:href="TextLine_8hpp.html" target="_top" xlink:title="Contains jngl::TextLine class.">
<polygon fill="white" stroke="black" points="216.49,-168.5 216.49,-187.5 335.49,-187.5 335.49,-168.5 216.49,-168.5"/>
<text text-anchor="middle" x="275.99" y="-175.5" font-family="'Consolas',monospace" font-size="10.00">jngl/TextLine.hpp</text>
</a>
</g>
</g>
<!-- Node1&#45;&gt;Node7 -->
<g id="edge9" class="edge">
<title>Node1&#45;&gt;Node7</title>
<path fill="none" stroke="midnightblue" d="M145.94,-221.3C177.22,-211.13 221.81,-196.62 249.81,-187.52"/>
<polygon fill="midnightblue" stroke="midnightblue" points="144.72,-218.02 136.29,-224.44 146.89,-224.68 144.72,-218.02"/>
</g>
<!-- Node3 -->
<g id="node3" class="node">
<title>Node3</title>
<g id="a_node3"><a xlink:href="jngl_8hpp.html" target="_top" xlink:title="Includes jngl/all.hpp.">
<polygon fill="white" stroke="black" points="120.49,-0.5 120.49,-19.5 185.49,-19.5 185.49,-0.5 120.49,-0.5"/>
<text text-anchor="middle" x="152.99" y="-7.5" font-family="'Consolas',monospace" font-size="10.00">jngl.hpp</text>
</a>
</g>
</g>
<!-- Node2&#45;&gt;Node3 -->
<g id="edge2" class="edge">
<title>Node2&#45;&gt;Node3</title>
<path fill="none" stroke="midnightblue" d="M152.99,-45.8C152.99,-36.91 152.99,-26.78 152.99,-19.75"/>
<polygon fill="midnightblue" stroke="midnightblue" points="149.49,-46.08 152.99,-56.08 156.49,-46.08 149.49,-46.08"/>
</g>
<!-- Node4&#45;&gt;Node2 -->
<g id="edge4" class="edge">
<title>Node4&#45;&gt;Node2</title>
<path fill="none" stroke="midnightblue" d="M92.82,-106.62C107.8,-96.76 127.19,-83.99 139.85,-75.65"/>
<polygon fill="midnightblue" stroke="midnightblue" points="90.59,-103.9 84.17,-112.32 94.44,-109.75 90.59,-103.9"/>
</g>
<!-- Node5&#45;&gt;Node2 -->
<g id="edge6" class="edge">
<title>Node5&#45;&gt;Node2</title>
<path fill="none" stroke="midnightblue" d="M151.33,-158.35C151.77,-134.25 152.51,-93.31 152.83,-75.59"/>
<polygon fill="midnightblue" stroke="midnightblue" points="147.83,-158.31 151.15,-168.37 154.83,-158.43 147.83,-158.31"/>
</g>
<!-- Node6 -->
<g id="node6" class="node">
<title>Node6</title>
<g id="a_node6"><a xlink:href="Label_8hpp.html" target="_top" xlink:title="Contains jngl::Label class.">
<polygon fill="white" stroke="black" points="181.49,-112.5 181.49,-131.5 282.49,-131.5 282.49,-112.5 181.49,-112.5"/>
<text text-anchor="middle" x="231.99" y="-119.5" font-family="'Consolas',monospace" font-size="10.00">jngl/Label.hpp</text>
</a>
</g>
</g>
<!-- Node5&#45;&gt;Node6 -->
<g id="edge7" class="edge">
<title>Node5&#45;&gt;Node6</title>
<path fill="none" stroke="midnightblue" d="M172.56,-162.62C187.36,-152.76 206.5,-139.99 219.01,-131.65"/>
<polygon fill="midnightblue" stroke="midnightblue" points="170.38,-159.86 164.01,-168.32 174.27,-165.69 170.38,-159.86"/>
</g>
<!-- Node6&#45;&gt;Node2 -->
<g id="edge8" class="edge">
<title>Node6&#45;&gt;Node2</title>
<path fill="none" stroke="midnightblue" d="M210.96,-106.62C196.53,-96.76 177.85,-83.99 165.65,-75.65"/>
<polygon fill="midnightblue" stroke="midnightblue" points="209.07,-109.57 219.3,-112.32 213.02,-103.79 209.07,-109.57"/>
</g>
<!-- Node7&#45;&gt;Node2 -->
<g id="edge10" class="edge">
<title>Node7&#45;&gt;Node2</title>
<path fill="none" stroke="midnightblue" d="M287.14,-159.43C294.48,-145.4 301.05,-125.86 290.99,-112 269.83,-82.84 229.25,-72.21 197.55,-68.52"/>
<polygon fill="midnightblue" stroke="midnightblue" points="284.09,-157.71 282.13,-168.12 290.16,-161.21 284.09,-157.71"/>
</g>
<!-- Node7&#45;&gt;Node6 -->
<g id="edge11" class="edge">
<title>Node7&#45;&gt;Node6</title>
<path fill="none" stroke="midnightblue" d="M262.26,-160.14C254.59,-150.74 245.36,-139.4 239.12,-131.75"/>
<polygon fill="midnightblue" stroke="midnightblue" points="259.7,-162.54 268.73,-168.08 265.12,-158.12 259.7,-162.54"/>
</g>
</g>
</svg>
