<?xml version="1.0" encoding="UTF-8" standalone="no"?>
<!DOCTYPE svg PUBLIC "-//W3C//DTD SVG 1.1//EN"
 "http://www.w3.org/Graphics/SVG/1.1/DTD/svg11.dtd">
<!-- Generated by graphviz version 5.0.0 (0)
 -->
<!-- Title: jngl/effects.hpp Pages: 1 -->
<svg width="247pt" height="137pt"
 viewBox="0.00 0.00 247.00 137.00" xmlns="http://www.w3.org/2000/svg" xmlns:xlink="http://www.w3.org/1999/xlink">
<g id="graph0" class="graph" transform="scale(1 1) rotate(0) translate(4 133)">
<title>jngl/effects.hpp</title>
<!-- Node1 -->
<g id="node1" class="node">
<title>Node1</title>
<g id="a_node1"><a xlink:title="Effects that can be applied to jngl::Widget.">
<polygon fill="#999999" stroke="#666666" points="209,-129 102,-129 102,-110 209,-110 209,-129"/>
<text text-anchor="middle" x="155.5" y="-117" font-family="ui-monospace,monospace" font-size="10.00">jngl/effects.hpp</text>
</a>
</g>
</g>
<!-- Node2 -->
<g id="node2" class="node">
<title>Node2</title>
<g id="a_node2"><a xlink:href="Vec2_8hpp.html" target="_top" xlink:title="Contains jngl::Vec2 class.">
<polygon fill="white" stroke="#666666" points="144,-74 79,-74 79,-55 144,-55 144,-74"/>
<text text-anchor="middle" x="111.5" y="-62" font-family="ui-monospace,monospace" font-size="10.00">Vec2.hpp</text>
</a>
</g>
</g>
<!-- Node1&#45;&gt;Node2 -->
<g id="edge1" class="edge">
<title>Node1&#45;&gt;Node2</title>
<path fill="none" stroke="#63b8ff" d="M148.23,-109.75C141.96,-102.18 132.71,-91.05 125.07,-81.84"/>
<polygon fill="#63b8ff" stroke="#63b8ff" points="127.71,-79.55 118.63,-74.09 122.33,-84.02 127.71,-79.55"/>
</g>
<!-- Node5 -->
<g id="node5" class="node">
<title>Node5</title>
<g id="a_node5"><a target="_parent" xlink:href="http://en.cppreference.com/w/cpp/header/functional.html" xlink:title=" ">
<polygon fill="white" stroke="#666666" points="239,-74 162,-74 162,-55 239,-55 239,-74"/>
<text text-anchor="middle" x="200.5" y="-62" font-family="ui-monospace,monospace" font-size="10.00">functional</text>
</a>
</g>
</g>
<!-- Node1&#45;&gt;Node5 -->
<g id="edge4" class="edge">
<title>Node1&#45;&gt;Node5</title>
<path fill="none" stroke="#63b8ff" d="M162.93,-109.75C169.35,-102.18 178.81,-91.05 186.62,-81.84"/>
<polygon fill="#63b8ff" stroke="#63b8ff" points="189.4,-83.98 193.21,-74.09 184.07,-79.45 189.4,-83.98"/>
</g>
<!-- Node3 -->
<g id="node3" class="node">
<title>Node3</title>
<g id="a_node3"><a xlink:title=" ">
<polygon fill="#e0e0e0" stroke="#999999" points="119,-19 0,-19 0,0 119,0 119,-19"/>
<text text-anchor="middle" x="59.5" y="-7" font-family="ui-monospace,monospace" font-size="10.00">boost/version.hpp</text>
</a>
</g>
</g>
<!-- Node2&#45;&gt;Node3 -->
<g id="edge2" class="edge">
<title>Node2&#45;&gt;Node3</title>
<path fill="none" stroke="#63b8ff" d="M102.91,-54.75C95.34,-47.03 84.12,-35.6 74.99,-26.28"/>
<polygon fill="#63b8ff" stroke="#63b8ff" points="77.43,-23.78 67.93,-19.09 72.43,-28.68 77.43,-23.78"/>
</g>
<!-- Node4 -->
<g id="node4" class="node">
<title>Node4</title>
<g id="a_node4"><a target="_parent" xlink:href="http://en.cppreference.com/w/cpp/header/iosfwd.html" xlink:title=" ">
<polygon fill="white" stroke="#666666" points="190,-19 137,-19 137,0 190,0 190,-19"/>
<text text-anchor="middle" x="163.5" y="-7" font-family="ui-monospace,monospace" font-size="10.00">iosfwd</text>
</a>
</g>
</g>
<!-- Node2&#45;&gt;Node4 -->
<g id="edge3" class="edge">
<title>Node2&#45;&gt;Node4</title>
<path fill="none" stroke="#63b8ff" d="M120.09,-54.75C127.66,-47.03 138.88,-35.6 148.01,-26.28"/>
<polygon fill="#63b8ff" stroke="#63b8ff" points="150.57,-28.68 155.07,-19.09 145.57,-23.78 150.57,-28.68"/>
</g>
</g>
</svg>
