<?xml version="1.0" encoding="UTF-8" standalone="no"?>
<!DOCTYPE svg PUBLIC "-//W3C//DTD SVG 1.1//EN"
 "http://www.w3.org/Graphics/SVG/1.1/DTD/svg11.dtd">
<!-- Generated by graphviz version 9.0.0 (20230911.1827)
 -->
<!-- Title: jngl/Fade.hpp Pages: 1 -->
<svg width="242pt" height="193pt"
 viewBox="0.00 0.00 242.00 193.00" xmlns="http://www.w3.org/2000/svg" xmlns:xlink="http://www.w3.org/1999/xlink">
<g id="graph0" class="graph" transform="scale(1 1) rotate(0) translate(4 189)">
<title>jngl/Fade.hpp</title>
<!-- Node1 -->
<g id="Node000001" class="node">
<title>Node1</title>
<g id="a_Node000001"><a xlink:title="Contains jngl::Fade class.">
<polygon fill="#999999" stroke="#666666" points="213,-185 119,-185 119,-165.75 213,-165.75 213,-185"/>
<text text-anchor="middle" x="166" y="-171.5" font-family="ui-monospace,monospace" font-size="10.00">jngl/Fade.hpp</text>
</a>
</g>
</g>
<!-- Node2 -->
<g id="Node000002" class="node">
<title>Node2</title>
<g id="a_Node000002"><a xlink:href="work_8hpp.html" target="_top" xlink:title=" ">
<polygon fill="white" stroke="#666666" points="198,-129.75 134,-129.75 134,-110.5 198,-110.5 198,-129.75"/>
<text text-anchor="middle" x="166" y="-116.25" font-family="ui-monospace,monospace" font-size="10.00">work.hpp</text>
</a>
</g>
</g>
<!-- Node1&#45;&gt;Node2 -->
<g id="edge1_Node000001_Node000002" class="edge">
<title>Node1&#45;&gt;Node2</title>
<g id="a_edge1_Node000001_Node000002"><a xlink:title=" ">
<path fill="none" stroke="#63b8ff" d="M166,-165.58C166,-159.07 166,-149.92 166,-141.62"/>
<polygon fill="#63b8ff" stroke="#63b8ff" points="169.5,-141.62 166,-131.62 162.5,-141.62 169.5,-141.62"/>
</a>
</g>
</g>
<!-- Node3 -->
<g id="Node000003" class="node">
<title>Node3</title>
<g id="a_Node000003"><a xlink:href="job_8hpp.html" target="_top" xlink:title="Contains jngl::Job class and related functions.">
<polygon fill="white" stroke="#666666" points="161,-74.5 103,-74.5 103,-55.25 161,-55.25 161,-74.5"/>
<text text-anchor="middle" x="132" y="-61" font-family="ui-monospace,monospace" font-size="10.00">job.hpp</text>
</a>
</g>
</g>
<!-- Node2&#45;&gt;Node3 -->
<g id="edge2_Node000002_Node000003" class="edge">
<title>Node2&#45;&gt;Node3</title>
<g id="a_edge2_Node000002_Node000003"><a xlink:title=" ">
<path fill="none" stroke="#63b8ff" d="M160.39,-110.33C155.88,-103.28 149.41,-93.15 143.79,-84.33"/>
<polygon fill="#63b8ff" stroke="#63b8ff" points="146.88,-82.68 138.55,-76.13 140.98,-86.45 146.88,-82.68"/>
</a>
</g>
</g>
<!-- Node6 -->
<g id="Node000006" class="node">
<title>Node6</title>
<g id="a_Node000006"><a target="_parent" xlink:href="http://en.cppreference.com/w/cpp/header/memory.html" xlink:title=" ">
<polygon fill="white" stroke="#666666" points="234,-19.25 182,-19.25 182,0 234,0 234,-19.25"/>
<text text-anchor="middle" x="208" y="-5.75" font-family="ui-monospace,monospace" font-size="10.00">memory</text>
</a>
</g>
</g>
<!-- Node2&#45;&gt;Node6 -->
<g id="edge6_Node000002_Node000006" class="edge">
<title>Node2&#45;&gt;Node6</title>
<g id="a_edge6_Node000002_Node000006"><a xlink:title=" ">
<path fill="none" stroke="#63b8ff" d="M169.44,-110.25C176.17,-92.84 191.26,-53.87 200.44,-30.16"/>
<polygon fill="#63b8ff" stroke="#63b8ff" points="203.62,-31.63 203.97,-21.04 197.1,-29.1 203.62,-31.63"/>
</a>
</g>
</g>
<!-- Node4 -->
<g id="Node000004" class="node">
<title>Node4</title>
<g id="a_Node000004"><a target="_parent" xlink:href="http://en.cppreference.com/w/cpp/header/filesystem.html" xlink:title=" ">
<polygon fill="white" stroke="#666666" points="70,-19.25 0,-19.25 0,0 70,0 70,-19.25"/>
<text text-anchor="middle" x="35" y="-5.75" font-family="ui-monospace,monospace" font-size="10.00">filesystem</text>
</a>
</g>
</g>
<!-- Node3&#45;&gt;Node4 -->
<g id="edge3_Node000003_Node000004" class="edge">
<title>Node3&#45;&gt;Node4</title>
<g id="a_edge3_Node000003_Node000004"><a xlink:title=" ">
<path fill="none" stroke="#63b8ff" d="M115.55,-54.84C100.77,-46.73 78.82,-34.68 61.57,-25.21"/>
<polygon fill="#63b8ff" stroke="#63b8ff" points="63.31,-22.18 52.86,-20.43 59.94,-28.31 63.31,-22.18"/>
</a>
</g>
</g>
<!-- Node5 -->
<g id="Node000005" class="node">
<title>Node5</title>
<g id="a_Node000005"><a target="_parent" xlink:href="http://en.cppreference.com/w/cpp/header/functional.html" xlink:title=" ">
<polygon fill="white" stroke="#666666" points="164,-19.25 88,-19.25 88,0 164,0 164,-19.25"/>
<text text-anchor="middle" x="126" y="-5.75" font-family="ui-monospace,monospace" font-size="10.00">functional</text>
</a>
</g>
</g>
<!-- Node3&#45;&gt;Node5 -->
<g id="edge4_Node000003_Node000005" class="edge">
<title>Node3&#45;&gt;Node5</title>
<g id="a_edge4_Node000003_Node000005"><a xlink:title=" ">
<path fill="none" stroke="#63b8ff" d="M131.01,-55.08C130.27,-48.49 129.22,-39.21 128.28,-30.82"/>
<polygon fill="#63b8ff" stroke="#63b8ff" points="131.78,-30.66 127.18,-21.11 124.82,-31.44 131.78,-30.66"/>
</a>
</g>
</g>
<!-- Node3&#45;&gt;Node6 -->
<g id="edge5_Node000003_Node000006" class="edge">
<title>Node3&#45;&gt;Node6</title>
<g id="a_edge5_Node000003_Node000006"><a xlink:title=" ">
<path fill="none" stroke="#63b8ff" d="M144.89,-54.84C156.03,-47.04 172.37,-35.59 185.64,-26.29"/>
<polygon fill="#63b8ff" stroke="#63b8ff" points="187.62,-29.18 193.8,-20.57 183.61,-23.44 187.62,-29.18"/>
</a>
</g>
</g>
</g>
</svg>
