<?xml version="1.0" encoding="UTF-8" standalone="no"?>
<!DOCTYPE svg PUBLIC "-//W3C//DTD SVG 1.1//EN"
 "http://www.w3.org/Graphics/SVG/1.1/DTD/svg11.dtd">
<!-- Generated by graphviz version 2.40.1 (0)
 -->
<!-- Title: jngl/Finally.hpp Pages: 1 -->
<svg width="249pt" height="308pt"
 viewBox="0.00 0.00 249.00 308.00" xmlns="http://www.w3.org/2000/svg" xmlns:xlink="http://www.w3.org/1999/xlink">
<g id="graph0" class="graph" transform="scale(1 1) rotate(0) translate(4 304)">
<title>jngl/Finally.hpp</title>
<polygon fill="#ffffff" stroke="transparent" points="-4,4 -4,-304 245,-304 245,4 -4,4"/>
<!-- Node2 -->
<g id="node1" class="node">
<title>Node2</title>
<g id="a_node1"><a xlink:title=" ">
<polygon fill="#bfbfbf" stroke="#000000" points="69,-280.5 69,-299.5 182,-299.5 182,-280.5 69,-280.5"/>
<text text-anchor="middle" x="125.5" y="-287.5" font-family="'Consolas',monospace" font-size="10.00" fill="#000000">jngl/Finally.hpp</text>
</a>
</g>
</g>
<!-- Node3 -->
<g id="node2" class="node">
<title>Node3</title>
<g id="a_node2"><a xlink:href="ShaderProgram_8hpp.html" target="_top" xlink:title=" ">
<polygon fill="#ffffff" stroke="#000000" points="0,-224.5 0,-243.5 149,-243.5 149,-224.5 0,-224.5"/>
<text text-anchor="middle" x="74.5" y="-231.5" font-family="'Consolas',monospace" font-size="10.00" fill="#000000">jngl/ShaderProgram.hpp</text>
</a>
</g>
</g>
<!-- Node2&#45;&gt;Node3 -->
<g id="edge1" class="edge">
<title>Node2&#45;&gt;Node3</title>
<path fill="none" stroke="#191970" d="M109.8251,-272.7884C101.1006,-263.2085 90.5646,-251.6396 83.2817,-243.6427"/>
<polygon fill="#191970" stroke="#191970" points="107.2954,-275.2088 116.6165,-280.2455 112.4709,-270.4954 107.2954,-275.2088"/>
</g>
<!-- Node8 -->
<g id="node7" class="node">
<title>Node8</title>
<g id="a_node7"><a xlink:href="main_8hpp_source.html" target="_top" xlink:title=" ">
<polygon fill="#ffffff" stroke="#000000" points="146,-168.5 146,-187.5 241,-187.5 241,-168.5 146,-168.5"/>
<text text-anchor="middle" x="193.5" y="-175.5" font-family="'Consolas',monospace" font-size="10.00" fill="#000000">jngl/main.hpp</text>
</a>
</g>
</g>
<!-- Node2&#45;&gt;Node8 -->
<g id="edge8" class="edge">
<title>Node2&#45;&gt;Node8</title>
<path fill="none" stroke="#191970" d="M138.6447,-272.0732C144.6171,-263.6881 151.6407,-253.4806 157.5,-244 169.5769,-224.4592 182.0637,-200.5917 188.6885,-187.5828"/>
<polygon fill="#191970" stroke="#191970" points="135.6954,-270.179 132.6814,-280.3361 141.3716,-274.2755 135.6954,-270.179"/>
</g>
<!-- Node4 -->
<g id="node3" class="node">
<title>Node4</title>
<g id="a_node3"><a xlink:href="all_8hpp.html" target="_top" xlink:title="Includes all JNGL headers.">
<polygon fill="#ffffff" stroke="#000000" points="27,-56.5 27,-75.5 116,-75.5 116,-56.5 27,-56.5"/>
<text text-anchor="middle" x="71.5" y="-63.5" font-family="'Consolas',monospace" font-size="10.00" fill="#000000">jngl/all.hpp</text>
</a>
</g>
</g>
<!-- Node3&#45;&gt;Node4 -->
<g id="edge2" class="edge">
<title>Node3&#45;&gt;Node4</title>
<path fill="none" stroke="#191970" d="M43.5966,-219.5161C31.2532,-211.9901 18.361,-201.5049 11.5,-188 -9.668,-146.3339 37.8006,-96.139 60.3964,-75.5331"/>
<polygon fill="#191970" stroke="#191970" points="41.9633,-222.6132 52.3934,-224.4742 45.4003,-216.5151 41.9633,-222.6132"/>
</g>
<!-- Node6 -->
<g id="node5" class="node">
<title>Node6</title>
<g id="a_node5"><a xlink:href="sprite_8hpp_source.html" target="_top" xlink:title=" ">
<polygon fill="#ffffff" stroke="#000000" points="21,-168.5 21,-187.5 128,-187.5 128,-168.5 21,-168.5"/>
<text text-anchor="middle" x="74.5" y="-175.5" font-family="'Consolas',monospace" font-size="10.00" fill="#000000">jngl/sprite.hpp</text>
</a>
</g>
</g>
<!-- Node3&#45;&gt;Node6 -->
<g id="edge4" class="edge">
<title>Node3&#45;&gt;Node6</title>
<path fill="none" stroke="#191970" d="M74.5,-214.1575C74.5,-205.155 74.5,-194.9199 74.5,-187.6427"/>
<polygon fill="#191970" stroke="#191970" points="71.0001,-214.2455 74.5,-224.2455 78.0001,-214.2456 71.0001,-214.2455"/>
</g>
<!-- Node5 -->
<g id="node4" class="node">
<title>Node5</title>
<g id="a_node4"><a xlink:href="jngl_8hpp_source.html" target="_top" xlink:title=" ">
<polygon fill="#ffffff" stroke="#000000" points="39,-.5 39,-19.5 104,-19.5 104,-.5 39,-.5"/>
<text text-anchor="middle" x="71.5" y="-7.5" font-family="'Consolas',monospace" font-size="10.00" fill="#000000">jngl.hpp</text>
</a>
</g>
</g>
<!-- Node4&#45;&gt;Node5 -->
<g id="edge3" class="edge">
<title>Node4&#45;&gt;Node5</title>
<path fill="none" stroke="#191970" d="M71.5,-46.1575C71.5,-37.155 71.5,-26.9199 71.5,-19.6427"/>
<polygon fill="#191970" stroke="#191970" points="68.0001,-46.2455 71.5,-56.2455 75.0001,-46.2456 68.0001,-46.2455"/>
</g>
<!-- Node6&#45;&gt;Node4 -->
<g id="edge7" class="edge">
<title>Node6&#45;&gt;Node4</title>
<path fill="none" stroke="#191970" d="M62.8759,-159.6596C58.3775,-151.5191 53.7706,-141.6186 51.5,-132 46.7136,-111.7245 57.6732,-88.5206 65.1853,-75.736"/>
<polygon fill="#191970" stroke="#191970" points="59.867,-161.4476 67.9603,-168.2849 65.8973,-157.8929 59.867,-161.4476"/>
</g>
<!-- Node7 -->
<g id="node6" class="node">
<title>Node7</title>
<g id="a_node6"><a xlink:href="Video_8hpp.html" target="_top" xlink:title=" ">
<polygon fill="#ffffff" stroke="#000000" points="61,-112.5 61,-131.5 162,-131.5 162,-112.5 61,-112.5"/>
<text text-anchor="middle" x="111.5" y="-119.5" font-family="'Consolas',monospace" font-size="10.00" fill="#000000">jngl/Video.hpp</text>
</a>
</g>
</g>
<!-- Node6&#45;&gt;Node7 -->
<g id="edge5" class="edge">
<title>Node6&#45;&gt;Node7</title>
<path fill="none" stroke="#191970" d="M86.6376,-159.6296C92.8093,-150.2887 100.0566,-139.3197 105.1289,-131.6427"/>
<polygon fill="#191970" stroke="#191970" points="83.5373,-157.9728 80.9449,-168.2455 89.3777,-161.8316 83.5373,-157.9728"/>
</g>
<!-- Node7&#45;&gt;Node4 -->
<g id="edge6" class="edge">
<title>Node7&#45;&gt;Node4</title>
<path fill="none" stroke="#191970" d="M98.5864,-103.9209C91.8697,-94.5176 83.9283,-83.3997 78.3876,-75.6427"/>
<polygon fill="#191970" stroke="#191970" points="95.872,-106.1425 104.5325,-112.2455 101.5682,-102.0738 95.872,-106.1425"/>
</g>
<!-- Node8&#45;&gt;Node4 -->
<g id="edge9" class="edge">
<title>Node8&#45;&gt;Node4</title>
<path fill="none" stroke="#191970" d="M190.7594,-158.0022C187.8765,-143.6932 182.0645,-124.7783 170.5,-112 154.2219,-94.0134 129.4719,-82.5134 108.7914,-75.51"/>
<polygon fill="#191970" stroke="#191970" points="187.3797,-159.0081 192.4974,-168.2849 194.2818,-157.8414 187.3797,-159.0081"/>
</g>
</g>
</svg>
