<?xml version="1.0" encoding="UTF-8" standalone="no"?>
<!DOCTYPE svg PUBLIC "-//W3C//DTD SVG 1.1//EN"
 "http://www.w3.org/Graphics/SVG/1.1/DTD/svg11.dtd">
<!-- Generated by graphviz version 9.0.0 (20230911.1827)
 -->
<!-- Title: jngl/Finally.hpp Pages: 1 -->
<svg width="643pt" height="193pt"
 viewBox="0.00 0.00 643.00 193.00" xmlns="http://www.w3.org/2000/svg" xmlns:xlink="http://www.w3.org/1999/xlink">
<g id="graph0" class="graph" transform="scale(1 1) rotate(0) translate(4 189)">
<title>jngl/Finally.hpp</title>
<!-- Node1 -->
<g id="Node000001" class="node">
<title>Node1</title>
<g id="a_Node000001"><a xlink:title="Contains jngl::Finally class.">
<polygon fill="#999999" stroke="#666666" points="415,-185 303,-185 303,-165.75 415,-165.75 415,-185"/>
<text text-anchor="middle" x="359" y="-171.5" font-family="ui-monospace,monospace" font-size="10.00">jngl/Finally.hpp</text>
</a>
</g>
</g>
<!-- Node2 -->
<g id="Node000002" class="node">
<title>Node2</title>
<g id="a_Node000002"><a xlink:href="Channel_8hpp.html" target="_top" xlink:title="Contains jngl::Channel class.">
<polygon fill="white" stroke="#666666" points="112,-74.5 0,-74.5 0,-55.25 112,-55.25 112,-74.5"/>
<text text-anchor="middle" x="56" y="-61" font-family="ui-monospace,monospace" font-size="10.00">jngl/Channel.hpp</text>
</a>
</g>
</g>
<!-- Node1&#45;&gt;Node2 -->
<g id="edge1_Node000001_Node000002" class="edge">
<title>Node1&#45;&gt;Node2</title>
<g id="a_edge1_Node000001_Node000002"><a xlink:title=" ">
<path fill="none" stroke="#63b8ff" d="M294.76,-163.15C258.59,-155.78 213,-144.71 174,-129.75 134.42,-114.56 91.48,-88.68 69.96,-74.99"/>
<polygon fill="#63b8ff" stroke="#63b8ff" points="293.69,-166.51 304.18,-165.03 295.06,-159.64 293.69,-166.51"/>
</a>
</g>
</g>
<!-- Node4 -->
<g id="Node000004" class="node">
<title>Node4</title>
<g id="a_Node000004"><a xlink:href="input_8hpp.html" target="_top" xlink:title="Input related functions.">
<polygon fill="white" stroke="#666666" points="283,-129.75 183,-129.75 183,-110.5 283,-110.5 283,-129.75"/>
<text text-anchor="middle" x="233" y="-116.25" font-family="ui-monospace,monospace" font-size="10.00">jngl/input.hpp</text>
</a>
</g>
</g>
<!-- Node1&#45;&gt;Node4 -->
<g id="edge3_Node000001_Node000004" class="edge">
<title>Node1&#45;&gt;Node4</title>
<g id="a_edge3_Node000001_Node000004"><a xlink:title=" ">
<path fill="none" stroke="#63b8ff" d="M327.12,-160.9C304.38,-151.29 274.43,-138.63 254.48,-130.2"/>
<polygon fill="#63b8ff" stroke="#63b8ff" points="325.66,-164.08 336.23,-164.75 328.38,-157.64 325.66,-164.08"/>
</a>
</g>
</g>
<!-- Node6 -->
<g id="Node000006" class="node">
<title>Node6</title>
<g id="a_Node000006"><a xlink:href="main_8hpp.html" target="_top" xlink:title="Defines macros for the main entry point.">
<polygon fill="white" stroke="#666666" points="406,-129.75 312,-129.75 312,-110.5 406,-110.5 406,-129.75"/>
<text text-anchor="middle" x="359" y="-116.25" font-family="ui-monospace,monospace" font-size="10.00">jngl/main.hpp</text>
</a>
</g>
</g>
<!-- Node1&#45;&gt;Node6 -->
<g id="edge7_Node000001_Node000006" class="edge">
<title>Node1&#45;&gt;Node6</title>
<g id="a_edge7_Node000001_Node000006"><a xlink:title=" ">
<path fill="none" stroke="#63b8ff" d="M359,-154.13C359,-145.84 359,-136.67 359,-130.11"/>
<polygon fill="#63b8ff" stroke="#63b8ff" points="355.5,-154.07 359,-164.07 362.5,-154.07 355.5,-154.07"/>
</a>
</g>
</g>
<!-- Node8 -->
<g id="Node000008" class="node">
<title>Node8</title>
<g id="a_Node000008"><a xlink:href="sound_8hpp.html" target="_top" xlink:title="Sound related functions.">
<polygon fill="white" stroke="#666666" points="566,-74.5 466,-74.5 466,-55.25 566,-55.25 566,-74.5"/>
<text text-anchor="middle" x="516" y="-61" font-family="ui-monospace,monospace" font-size="10.00">jngl/sound.hpp</text>
</a>
</g>
</g>
<!-- Node1&#45;&gt;Node8 -->
<g id="edge10_Node000001_Node000008" class="edge">
<title>Node1&#45;&gt;Node8</title>
<g id="a_edge10_Node000001_Node000008"><a xlink:title=" ">
<path fill="none" stroke="#63b8ff" d="M381.49,-158.83C414.83,-135.79 476.31,-93.3 503.03,-74.84"/>
<polygon fill="#63b8ff" stroke="#63b8ff" points="379.6,-155.89 373.36,-164.45 383.58,-161.64 379.6,-155.89"/>
</a>
</g>
</g>
<!-- Node9 -->
<g id="Node000009" class="node">
<title>Node9</title>
<g id="a_Node000009"><a xlink:href="sprite_8hpp.html" target="_top" xlink:title="Contains jngl::Sprite class and related functions.">
<polygon fill="white" stroke="#666666" points="635,-129.75 529,-129.75 529,-110.5 635,-110.5 635,-129.75"/>
<text text-anchor="middle" x="582" y="-116.25" font-family="ui-monospace,monospace" font-size="10.00">jngl/sprite.hpp</text>
</a>
</g>
</g>
<!-- Node1&#45;&gt;Node9 -->
<g id="edge12_Node000001_Node000009" class="edge">
<title>Node1&#45;&gt;Node9</title>
<g id="a_edge12_Node000001_Node000009"><a xlink:title=" ">
<path fill="none" stroke="#63b8ff" d="M408.16,-162.64C449.12,-152.86 506.61,-139.13 544.08,-130.18"/>
<polygon fill="#63b8ff" stroke="#63b8ff" points="407.47,-159.2 398.55,-164.93 409.09,-166.01 407.47,-159.2"/>
</a>
</g>
</g>
<!-- Node3 -->
<g id="Node000003" class="node">
<title>Node3</title>
<g id="a_Node000003"><a xlink:href="jngl_8hpp.html" target="_top" xlink:title="Includes all JNGL headers except for init.hpp.">
<polygon fill="white" stroke="#666666" points="311,-19.25 247,-19.25 247,0 311,0 311,-19.25"/>
<text text-anchor="middle" x="279" y="-5.75" font-family="ui-monospace,monospace" font-size="10.00">jngl.hpp</text>
</a>
</g>
</g>
<!-- Node2&#45;&gt;Node3 -->
<g id="edge2_Node000002_Node000003" class="edge">
<title>Node2&#45;&gt;Node3</title>
<g id="a_edge2_Node000002_Node000003"><a xlink:title=" ">
<path fill="none" stroke="#63b8ff" d="M105.14,-52.14C148.13,-41.87 209.36,-27.25 246.51,-18.38"/>
<polygon fill="#63b8ff" stroke="#63b8ff" points="104.47,-48.7 95.55,-54.43 106.09,-55.51 104.47,-48.7"/>
</a>
</g>
</g>
<!-- Node4&#45;&gt;Node3 -->
<g id="edge4_Node000004_Node000003" class="edge">
<title>Node4&#45;&gt;Node3</title>
<g id="a_edge4_Node000004_Node000003"><a xlink:title=" ">
<path fill="none" stroke="#63b8ff" d="M197.22,-105.75C171.83,-94.13 144.61,-75.95 159,-55.25 178.6,-27.05 218.25,-16.64 246.61,-12.81"/>
<polygon fill="#63b8ff" stroke="#63b8ff" points="195.54,-108.84 206.11,-109.57 198.3,-102.41 195.54,-108.84"/>
</a>
</g>
</g>
<!-- Node5 -->
<g id="Node000005" class="node">
<title>Node5</title>
<g id="a_Node000005"><a xlink:href="Controller_8hpp.html" target="_top" xlink:title="Contains jngl::Controller class.">
<polygon fill="white" stroke="#666666" points="298,-74.5 168,-74.5 168,-55.25 298,-55.25 298,-74.5"/>
<text text-anchor="middle" x="233" y="-61" font-family="ui-monospace,monospace" font-size="10.00">jngl/Controller.hpp</text>
</a>
</g>
</g>
<!-- Node4&#45;&gt;Node5 -->
<g id="edge5_Node000004_Node000005" class="edge">
<title>Node4&#45;&gt;Node5</title>
<g id="a_edge5_Node000004_Node000005"><a xlink:title=" ">
<path fill="none" stroke="#63b8ff" d="M233,-98.88C233,-90.59 233,-81.42 233,-74.86"/>
<polygon fill="#63b8ff" stroke="#63b8ff" points="229.5,-98.82 233,-108.82 236.5,-98.82 229.5,-98.82"/>
</a>
</g>
</g>
<!-- Node5&#45;&gt;Node3 -->
<g id="edge6_Node000005_Node000003" class="edge">
<title>Node5&#45;&gt;Node3</title>
<g id="a_edge6_Node000005_Node000003"><a xlink:title=" ">
<path fill="none" stroke="#63b8ff" d="M248,-46.51C255.76,-37.53 264.9,-26.95 271.24,-19.61"/>
<polygon fill="#63b8ff" stroke="#63b8ff" points="245.47,-44.08 241.59,-53.94 250.77,-48.66 245.47,-44.08"/>
</a>
</g>
</g>
<!-- Node6&#45;&gt;Node3 -->
<g id="edge8_Node000006_Node000003" class="edge">
<title>Node6&#45;&gt;Node3</title>
<g id="a_edge8_Node000006_Node000003"><a xlink:title=" ">
<path fill="none" stroke="#63b8ff" d="M345.66,-101.04C328.34,-77.55 298.78,-37.45 285.64,-19.63"/>
<polygon fill="#63b8ff" stroke="#63b8ff" points="342.8,-103.06 351.56,-109.03 348.44,-98.9 342.8,-103.06"/>
</a>
</g>
</g>
<!-- Node7 -->
<g id="Node000007" class="node">
<title>Node7</title>
<g id="a_Node000007"><a xlink:href="init_8hpp.html" target="_top" xlink:title="Include this file only once, as it defines the main function.">
<polygon fill="white" stroke="#666666" points="448,-74.5 354,-74.5 354,-55.25 448,-55.25 448,-74.5"/>
<text text-anchor="middle" x="401" y="-61" font-family="ui-monospace,monospace" font-size="10.00">jngl/init.hpp</text>
</a>
</g>
</g>
<!-- Node6&#45;&gt;Node7 -->
<g id="edge9_Node000006_Node000007" class="edge">
<title>Node6&#45;&gt;Node7</title>
<g id="a_edge9_Node000006_Node000007"><a xlink:title=" ">
<path fill="none" stroke="#63b8ff" d="M372.92,-101.47C379.96,-92.56 388.19,-82.12 393.91,-74.86"/>
<polygon fill="#63b8ff" stroke="#63b8ff" points="370.32,-99.12 366.87,-109.14 375.81,-103.46 370.32,-99.12"/>
</a>
</g>
</g>
<!-- Node8&#45;&gt;Node3 -->
<g id="edge11_Node000008_Node000003" class="edge">
<title>Node8&#45;&gt;Node3</title>
<g id="a_edge11_Node000008_Node000003"><a xlink:title=" ">
<path fill="none" stroke="#63b8ff" d="M464.45,-52.29C417.86,-41.83 350.73,-26.74 311.31,-17.88"/>
<polygon fill="#63b8ff" stroke="#63b8ff" points="463.53,-55.67 474.05,-54.45 465.06,-48.84 463.53,-55.67"/>
</a>
</g>
</g>
<!-- Node9&#45;&gt;Node3 -->
<g id="edge13_Node000009_Node000003" class="edge">
<title>Node9&#45;&gt;Node3</title>
<g id="a_edge13_Node000009_Node000003"><a xlink:title=" ">
<path fill="none" stroke="#63b8ff" d="M585.59,-99.3C586.93,-85.16 586,-66.7 575,-55.25 539.23,-18 380.59,-11.69 311.42,-10.73"/>
<polygon fill="#63b8ff" stroke="#63b8ff" points="582.18,-98.43 584.24,-108.82 589.11,-99.42 582.18,-98.43"/>
</a>
</g>
</g>
</g>
</svg>
