<?xml version="1.0" encoding="UTF-8" standalone="no"?>
<!DOCTYPE svg PUBLIC "-//W3C//DTD SVG 1.1//EN"
 "http://www.w3.org/Graphics/SVG/1.1/DTD/svg11.dtd">
<!-- Generated by graphviz version 5.0.0 (0)
 -->
<!-- Title: jngl/Finally.hpp Pages: 1 -->
<svg width="525pt" height="192pt"
 viewBox="0.00 0.00 525.00 192.00" xmlns="http://www.w3.org/2000/svg" xmlns:xlink="http://www.w3.org/1999/xlink">
<g id="graph0" class="graph" transform="scale(1 1) rotate(0) translate(4 188)">
<title>jngl/Finally.hpp</title>
<!-- Node1 -->
<g id="node1" class="node">
<title>Node1</title>
<g id="a_node1"><a xlink:title="Contains jngl::Finally class.">
<polygon fill="#999999" stroke="#666666" points="319,-184 206,-184 206,-165 319,-165 319,-184"/>
<text text-anchor="middle" x="262.5" y="-172" font-family="ui-monospace,monospace" font-size="10.00">jngl/Finally.hpp</text>
</a>
</g>
</g>
<!-- Node2 -->
<g id="node2" class="node">
<title>Node2</title>
<g id="a_node2"><a xlink:href="FrameBuffer_8hpp.html" target="_top" xlink:title="Contains jngl::FrameBuffer class.">
<polygon fill="white" stroke="#666666" points="131,-74 0,-74 0,-55 131,-55 131,-74"/>
<text text-anchor="middle" x="65.5" y="-62" font-family="ui-monospace,monospace" font-size="10.00">jngl/FrameBuffer.hpp</text>
</a>
</g>
</g>
<!-- Node1&#45;&gt;Node2 -->
<g id="edge1" class="edge">
<title>Node1&#45;&gt;Node2</title>
<path fill="none" stroke="#63b8ff" d="M195.8,-164.33C167.23,-157.93 134.7,-147.14 109.5,-129 89.47,-114.58 75.5,-88.09 69.23,-74.32"/>
<polygon fill="#63b8ff" stroke="#63b8ff" points="195.22,-167.78 205.72,-166.41 196.66,-160.93 195.22,-167.78"/>
</g>
<!-- Node4 -->
<g id="node4" class="node">
<title>Node4</title>
<g id="a_node4"><a xlink:href="ShaderProgram_8hpp.html" target="_top" xlink:title="Contains jngl::ShaderProgram class.">
<polygon fill="white" stroke="#666666" points="267,-129 118,-129 118,-110 267,-110 267,-129"/>
<text text-anchor="middle" x="192.5" y="-117" font-family="ui-monospace,monospace" font-size="10.00">jngl/ShaderProgram.hpp</text>
</a>
</g>
</g>
<!-- Node1&#45;&gt;Node4 -->
<g id="edge3" class="edge">
<title>Node1&#45;&gt;Node4</title>
<path fill="none" stroke="#63b8ff" d="M243.19,-158.88C230.59,-149.34 214.57,-137.21 203.95,-129.17"/>
<polygon fill="#63b8ff" stroke="#63b8ff" points="241.17,-161.74 251.25,-164.98 245.39,-156.16 241.17,-161.74"/>
</g>
<!-- Node6 -->
<g id="node6" class="node">
<title>Node6</title>
<g id="a_node6"><a xlink:href="main_8hpp.html" target="_top" xlink:title="Defines macros for the main entry point.">
<polygon fill="white" stroke="#666666" points="380,-129 285,-129 285,-110 380,-110 380,-129"/>
<text text-anchor="middle" x="332.5" y="-117" font-family="ui-monospace,monospace" font-size="10.00">jngl/main.hpp</text>
</a>
</g>
</g>
<!-- Node1&#45;&gt;Node6 -->
<g id="edge7" class="edge">
<title>Node1&#45;&gt;Node6</title>
<path fill="none" stroke="#63b8ff" d="M281.81,-158.88C294.41,-149.34 310.43,-137.21 321.05,-129.17"/>
<polygon fill="#63b8ff" stroke="#63b8ff" points="279.61,-156.16 273.75,-164.98 283.83,-161.74 279.61,-156.16"/>
</g>
<!-- Node8 -->
<g id="node8" class="node">
<title>Node8</title>
<g id="a_node8"><a xlink:href="sound_8hpp.html" target="_top" xlink:title="Sound related functions.">
<polygon fill="white" stroke="#666666" points="517,-129 416,-129 416,-110 517,-110 517,-129"/>
<text text-anchor="middle" x="466.5" y="-117" font-family="ui-monospace,monospace" font-size="10.00">jngl/sound.hpp</text>
</a>
</g>
</g>
<!-- Node1&#45;&gt;Node8 -->
<g id="edge10" class="edge">
<title>Node1&#45;&gt;Node8</title>
<path fill="none" stroke="#63b8ff" d="M305.08,-162.44C343.27,-152.52 398.52,-138.16 433.47,-129.08"/>
<polygon fill="#63b8ff" stroke="#63b8ff" points="304.07,-159.08 295.28,-164.98 305.83,-165.86 304.07,-159.08"/>
</g>
<!-- Node3 -->
<g id="node3" class="node">
<title>Node3</title>
<g id="a_node3"><a xlink:href="jngl_8hpp.html" target="_top" xlink:title="Includes all JNGL headers except for init.hpp.">
<polygon fill="white" stroke="#666666" points="274,-19 209,-19 209,0 274,0 274,-19"/>
<text text-anchor="middle" x="241.5" y="-7" font-family="ui-monospace,monospace" font-size="10.00">jngl.hpp</text>
</a>
</g>
</g>
<!-- Node2&#45;&gt;Node3 -->
<g id="edge2" class="edge">
<title>Node2&#45;&gt;Node3</title>
<path fill="none" stroke="#63b8ff" d="M103.5,-52.06C136.4,-42.15 183.24,-28.04 213,-19.08"/>
<polygon fill="#63b8ff" stroke="#63b8ff" points="102.34,-48.75 93.78,-54.98 104.36,-55.45 102.34,-48.75"/>
</g>
<!-- Node4&#45;&gt;Node3 -->
<g id="edge4" class="edge">
<title>Node4&#45;&gt;Node3</title>
<path fill="none" stroke="#63b8ff" d="M182.9,-100.8C177.1,-87.56 172.13,-69.36 179.5,-55 188.15,-38.14 206.48,-26.23 220.98,-19"/>
<polygon fill="#63b8ff" stroke="#63b8ff" points="179.76,-102.35 187.3,-109.8 186.05,-99.28 179.76,-102.35"/>
</g>
<!-- Node5 -->
<g id="node5" class="node">
<title>Node5</title>
<g id="a_node5"><a xlink:href="sprite_8hpp.html" target="_top" xlink:title="Contains jngl::Sprite class and related functions.">
<polygon fill="white" stroke="#666666" points="295,-74 188,-74 188,-55 295,-55 295,-74"/>
<text text-anchor="middle" x="241.5" y="-62" font-family="ui-monospace,monospace" font-size="10.00">jngl/sprite.hpp</text>
</a>
</g>
</g>
<!-- Node4&#45;&gt;Node5 -->
<g id="edge5" class="edge">
<title>Node4&#45;&gt;Node5</title>
<path fill="none" stroke="#63b8ff" d="M207.53,-102.24C216.12,-92.95 226.54,-81.68 233.56,-74.09"/>
<polygon fill="#63b8ff" stroke="#63b8ff" points="204.81,-100.03 200.59,-109.75 209.95,-104.78 204.81,-100.03"/>
</g>
<!-- Node5&#45;&gt;Node3 -->
<g id="edge6" class="edge">
<title>Node5&#45;&gt;Node3</title>
<path fill="none" stroke="#63b8ff" d="M241.5,-44.66C241.5,-35.93 241.5,-25.99 241.5,-19.09"/>
<polygon fill="#63b8ff" stroke="#63b8ff" points="238,-44.75 241.5,-54.75 245,-44.75 238,-44.75"/>
</g>
<!-- Node6&#45;&gt;Node3 -->
<g id="edge8" class="edge">
<title>Node6&#45;&gt;Node3</title>
<path fill="none" stroke="#63b8ff" d="M327.38,-100.27C322.93,-86.74 315.45,-68.39 304.5,-55 291.78,-39.45 272.34,-26.85 258.42,-19.07"/>
<polygon fill="#63b8ff" stroke="#63b8ff" points="324.05,-101.36 330.31,-109.9 330.75,-99.32 324.05,-101.36"/>
</g>
<!-- Node7 -->
<g id="node7" class="node">
<title>Node7</title>
<g id="a_node7"><a xlink:href="init_8hpp.html" target="_top" xlink:title="Include this file only once, as it defines the main function.">
<polygon fill="white" stroke="#666666" points="447,-74 352,-74 352,-55 447,-55 447,-74"/>
<text text-anchor="middle" x="399.5" y="-62" font-family="ui-monospace,monospace" font-size="10.00">jngl/init.hpp</text>
</a>
</g>
</g>
<!-- Node6&#45;&gt;Node7 -->
<g id="edge9" class="edge">
<title>Node6&#45;&gt;Node7</title>
<path fill="none" stroke="#63b8ff" d="M351.33,-103.6C363.34,-94.11 378.47,-82.13 388.54,-74.17"/>
<polygon fill="#63b8ff" stroke="#63b8ff" points="348.94,-101.04 343.26,-109.98 353.28,-106.53 348.94,-101.04"/>
</g>
<!-- Node8&#45;&gt;Node3 -->
<g id="edge11" class="edge">
<title>Node8&#45;&gt;Node3</title>
<path fill="none" stroke="#63b8ff" d="M468.79,-99.7C469.4,-85.58 467.68,-66.73 456.5,-55 431.84,-29.13 327.97,-17.29 274.15,-12.8"/>
<polygon fill="#63b8ff" stroke="#63b8ff" points="465.29,-99.52 467.93,-109.78 472.26,-100.11 465.29,-99.52"/>
</g>
</g>
</svg>
