<?xml version="1.0" encoding="UTF-8" standalone="no"?>
<!DOCTYPE svg PUBLIC "-//W3C//DTD SVG 1.1//EN"
 "http://www.w3.org/Graphics/SVG/1.1/DTD/svg11.dtd">
<!-- Generated by graphviz version 9.0.0 (20230911.1827)
 -->
<!-- Title: jngl/Finally.hpp Pages: 1 -->
<svg width="640pt" height="193pt"
 viewBox="0.00 0.00 640.00 193.00" xmlns="http://www.w3.org/2000/svg" xmlns:xlink="http://www.w3.org/1999/xlink">
<g id="graph0" class="graph" transform="scale(1 1) rotate(0) translate(4 189)">
<title>jngl/Finally.hpp</title>
<!-- Node1 -->
<g id="Node000001" class="node">
<title>Node1</title>
<g id="a_Node000001"><a xlink:title="Contains jngl::Finally class.">
<polygon fill="#999999" stroke="#666666" points="363,-185 251,-185 251,-165.75 363,-165.75 363,-185"/>
<text text-anchor="middle" x="307" y="-171.5" font-family="ui-monospace,monospace" font-size="10.00">jngl/Finally.hpp</text>
</a>
</g>
</g>
<!-- Node2 -->
<g id="Node000002" class="node">
<title>Node2</title>
<g id="a_Node000002"><a xlink:href="Channel_8hpp.html" target="_top" xlink:title="Contains jngl::Channel class.">
<polygon fill="white" stroke="#666666" points="112,-74.5 0,-74.5 0,-55.25 112,-55.25 112,-74.5"/>
<text text-anchor="middle" x="56" y="-61" font-family="ui-monospace,monospace" font-size="10.00">jngl/Channel.hpp</text>
</a>
</g>
</g>
<!-- Node1&#45;&gt;Node2 -->
<g id="edge1_Node000001_Node000002" class="edge">
<title>Node1&#45;&gt;Node2</title>
<g id="a_edge1_Node000001_Node000002"><a xlink:title=" ">
<path fill="none" stroke="#63b8ff" d="M275.77,-160.88C223.89,-138.45 121.3,-94.1 77.09,-74.99"/>
<polygon fill="#63b8ff" stroke="#63b8ff" points="274.07,-163.96 284.64,-164.71 276.85,-157.53 274.07,-163.96"/>
</a>
</g>
</g>
<!-- Node4 -->
<g id="Node000004" class="node">
<title>Node4</title>
<g id="a_Node000004"><a xlink:href="FrameBuffer_8hpp.html" target="_top" xlink:title="Contains jngl::FrameBuffer class.">
<polygon fill="white" stroke="#666666" points="260,-74.5 130,-74.5 130,-55.25 260,-55.25 260,-74.5"/>
<text text-anchor="middle" x="195" y="-61" font-family="ui-monospace,monospace" font-size="10.00">jngl/FrameBuffer.hpp</text>
</a>
</g>
</g>
<!-- Node1&#45;&gt;Node4 -->
<g id="edge3_Node000001_Node000004" class="edge">
<title>Node1&#45;&gt;Node4</title>
<g id="a_edge3_Node000001_Node000004"><a xlink:title=" ">
<path fill="none" stroke="#63b8ff" d="M270.03,-160.79C254.26,-153.52 236.62,-143.25 224,-129.75 208.86,-113.56 200.59,-88.11 197.07,-74.74"/>
<polygon fill="#63b8ff" stroke="#63b8ff" points="268.61,-163.99 279.18,-164.74 271.39,-157.56 268.61,-163.99"/>
</a>
</g>
</g>
<!-- Node5 -->
<g id="Node000005" class="node">
<title>Node5</title>
<g id="a_Node000005"><a xlink:href="ShaderProgram_8hpp.html" target="_top" xlink:title="Contains jngl::ShaderProgram class.">
<polygon fill="white" stroke="#666666" points="381,-129.75 233,-129.75 233,-110.5 381,-110.5 381,-129.75"/>
<text text-anchor="middle" x="307" y="-116.25" font-family="ui-monospace,monospace" font-size="10.00">jngl/ShaderProgram.hpp</text>
</a>
</g>
</g>
<!-- Node1&#45;&gt;Node5 -->
<g id="edge5_Node000001_Node000005" class="edge">
<title>Node1&#45;&gt;Node5</title>
<g id="a_edge5_Node000001_Node000005"><a xlink:title=" ">
<path fill="none" stroke="#63b8ff" d="M307,-154.13C307,-145.84 307,-136.67 307,-130.11"/>
<polygon fill="#63b8ff" stroke="#63b8ff" points="303.5,-154.07 307,-164.07 310.5,-154.07 303.5,-154.07"/>
</a>
</g>
</g>
<!-- Node7 -->
<g id="Node000007" class="node">
<title>Node7</title>
<g id="a_Node000007"><a xlink:href="main_8hpp.html" target="_top" xlink:title="Defines macros for the main entry point.">
<polygon fill="white" stroke="#666666" points="497,-129.75 403,-129.75 403,-110.5 497,-110.5 497,-129.75"/>
<text text-anchor="middle" x="450" y="-116.25" font-family="ui-monospace,monospace" font-size="10.00">jngl/main.hpp</text>
</a>
</g>
</g>
<!-- Node1&#45;&gt;Node7 -->
<g id="edge9_Node000001_Node000007" class="edge">
<title>Node1&#45;&gt;Node7</title>
<g id="a_edge9_Node000001_Node000007"><a xlink:title=" ">
<path fill="none" stroke="#63b8ff" d="M341.78,-161.42C367.75,-151.75 402.57,-138.79 425.62,-130.2"/>
<polygon fill="#63b8ff" stroke="#63b8ff" points="340.83,-158.04 332.68,-164.81 343.27,-164.6 340.83,-158.04"/>
</a>
</g>
</g>
<!-- Node9 -->
<g id="Node000009" class="node">
<title>Node9</title>
<g id="a_Node000009"><a xlink:href="sound_8hpp.html" target="_top" xlink:title="Sound related functions.">
<polygon fill="white" stroke="#666666" points="632,-129.75 532,-129.75 532,-110.5 632,-110.5 632,-129.75"/>
<text text-anchor="middle" x="582" y="-116.25" font-family="ui-monospace,monospace" font-size="10.00">jngl/sound.hpp</text>
</a>
</g>
</g>
<!-- Node1&#45;&gt;Node9 -->
<g id="edge12_Node000001_Node000009" class="edge">
<title>Node1&#45;&gt;Node9</title>
<g id="a_edge12_Node000001_Node000009"><a xlink:title=" ">
<path fill="none" stroke="#63b8ff" d="M365.06,-163.13C415.7,-153.33 488.24,-139.28 535.23,-130.18"/>
<polygon fill="#63b8ff" stroke="#63b8ff" points="364.6,-159.66 355.45,-164.99 365.93,-166.53 364.6,-159.66"/>
</a>
</g>
</g>
<!-- Node3 -->
<g id="Node000003" class="node">
<title>Node3</title>
<g id="a_Node000003"><a xlink:href="jngl_8hpp.html" target="_top" xlink:title="Includes all JNGL headers except for init.hpp.">
<polygon fill="white" stroke="#666666" points="360,-19.25 296,-19.25 296,0 360,0 360,-19.25"/>
<text text-anchor="middle" x="328" y="-5.75" font-family="ui-monospace,monospace" font-size="10.00">jngl.hpp</text>
</a>
</g>
</g>
<!-- Node2&#45;&gt;Node3 -->
<g id="edge2_Node000002_Node000003" class="edge">
<title>Node2&#45;&gt;Node3</title>
<g id="a_edge2_Node000002_Node000003"><a xlink:title=" ">
<path fill="none" stroke="#63b8ff" d="M113.52,-52.61C169,-41.75 250.97,-25.71 295.81,-16.93"/>
<polygon fill="#63b8ff" stroke="#63b8ff" points="113.08,-49.13 103.93,-54.49 114.42,-56 113.08,-49.13"/>
</a>
</g>
</g>
<!-- Node4&#45;&gt;Node3 -->
<g id="edge4_Node000004_Node000003" class="edge">
<title>Node4&#45;&gt;Node3</title>
<g id="a_edge4_Node000004_Node000003"><a xlink:title=" ">
<path fill="none" stroke="#63b8ff" d="M228,-50.66C252.07,-41.02 284.08,-28.21 305.33,-19.7"/>
<polygon fill="#63b8ff" stroke="#63b8ff" points="226.95,-47.31 218.97,-54.28 229.55,-53.81 226.95,-47.31"/>
</a>
</g>
</g>
<!-- Node5&#45;&gt;Node3 -->
<g id="edge6_Node000005_Node000003" class="edge">
<title>Node5&#45;&gt;Node3</title>
<g id="a_edge6_Node000005_Node000003"><a xlink:title=" ">
<path fill="none" stroke="#63b8ff" d="M304.78,-99.17C303.91,-86.45 303.77,-69.7 307,-55.25 309.95,-42.05 317.26,-28.14 322.42,-19.43"/>
<polygon fill="#63b8ff" stroke="#63b8ff" points="301.27,-99.17 305.66,-108.81 308.24,-98.53 301.27,-99.17"/>
</a>
</g>
</g>
<!-- Node6 -->
<g id="Node000006" class="node">
<title>Node6</title>
<g id="a_Node000006"><a xlink:href="sprite_8hpp.html" target="_top" xlink:title="Contains jngl::Sprite class and related functions.">
<polygon fill="white" stroke="#666666" points="422,-74.5 316,-74.5 316,-55.25 422,-55.25 422,-74.5"/>
<text text-anchor="middle" x="369" y="-61" font-family="ui-monospace,monospace" font-size="10.00">jngl/sprite.hpp</text>
</a>
</g>
</g>
<!-- Node5&#45;&gt;Node6 -->
<g id="edge7_Node000005_Node000006" class="edge">
<title>Node5&#45;&gt;Node6</title>
<g id="a_edge7_Node000005_Node000006"><a xlink:title=" ">
<path fill="none" stroke="#63b8ff" d="M326.2,-102.64C336.9,-93.44 349.81,-82.35 358.64,-74.77"/>
<polygon fill="#63b8ff" stroke="#63b8ff" points="323.97,-99.94 318.67,-109.11 328.53,-105.25 323.97,-99.94"/>
</a>
</g>
</g>
<!-- Node6&#45;&gt;Node3 -->
<g id="edge8_Node000006_Node000003" class="edge">
<title>Node6&#45;&gt;Node3</title>
<g id="a_edge8_Node000006_Node000003"><a xlink:title=" ">
<path fill="none" stroke="#63b8ff" d="M355.41,-46.22C348.54,-37.31 340.51,-26.87 334.92,-19.61"/>
<polygon fill="#63b8ff" stroke="#63b8ff" points="352.43,-48.09 361.31,-53.88 357.98,-43.82 352.43,-48.09"/>
</a>
</g>
</g>
<!-- Node7&#45;&gt;Node3 -->
<g id="edge10_Node000007_Node000003" class="edge">
<title>Node7&#45;&gt;Node3</title>
<g id="a_edge10_Node000007_Node000003"><a xlink:title=" ">
<path fill="none" stroke="#63b8ff" d="M448.42,-98.94C446.38,-85.17 441.7,-67.31 431,-55.25 412.64,-34.55 382.96,-23.08 360.16,-16.97"/>
<polygon fill="#63b8ff" stroke="#63b8ff" points="444.92,-99.09 449.49,-108.64 451.88,-98.32 444.92,-99.09"/>
</a>
</g>
</g>
<!-- Node8 -->
<g id="Node000008" class="node">
<title>Node8</title>
<g id="a_Node000008"><a xlink:href="init_8hpp.html" target="_top" xlink:title="Include this file only once, as it defines the main function.">
<polygon fill="white" stroke="#666666" points="572,-74.5 478,-74.5 478,-55.25 572,-55.25 572,-74.5"/>
<text text-anchor="middle" x="525" y="-61" font-family="ui-monospace,monospace" font-size="10.00">jngl/init.hpp</text>
</a>
</g>
</g>
<!-- Node7&#45;&gt;Node8 -->
<g id="edge11_Node000007_Node000008" class="edge">
<title>Node7&#45;&gt;Node8</title>
<g id="a_edge11_Node000007_Node000008"><a xlink:title=" ">
<path fill="none" stroke="#63b8ff" d="M471.99,-103.51C485.07,-94.22 501.21,-82.77 512.21,-74.95"/>
<polygon fill="#63b8ff" stroke="#63b8ff" points="470.08,-100.57 463.96,-109.22 474.14,-106.28 470.08,-100.57"/>
</a>
</g>
</g>
<!-- Node9&#45;&gt;Node3 -->
<g id="edge13_Node000009_Node000003" class="edge">
<title>Node9&#45;&gt;Node3</title>
<g id="a_edge13_Node000009_Node000003"><a xlink:title=" ">
<path fill="none" stroke="#63b8ff" d="M587.73,-99.17C590.42,-85.26 591.13,-67.13 581,-55.25 552.93,-22.33 422.11,-13.68 360.39,-11.42"/>
<polygon fill="#63b8ff" stroke="#63b8ff" points="584.41,-98.03 585.44,-108.58 591.21,-99.69 584.41,-98.03"/>
</a>
</g>
</g>
</g>
</svg>
