<?xml version="1.0" encoding="UTF-8" standalone="no"?>
<!DOCTYPE svg PUBLIC "-//W3C//DTD SVG 1.1//EN"
 "http://www.w3.org/Graphics/SVG/1.1/DTD/svg11.dtd">
<!-- Generated by graphviz version 9.0.0 (20230911.1827)
 -->
<!-- Title: jngl/Finally.hpp Pages: 1 -->
<svg width="738pt" height="193pt"
 viewBox="0.00 0.00 738.00 193.00" xmlns="http://www.w3.org/2000/svg" xmlns:xlink="http://www.w3.org/1999/xlink">
<g id="graph0" class="graph" transform="scale(1 1) rotate(0) translate(4 189)">
<title>jngl/Finally.hpp</title>
<!-- Node1 -->
<g id="Node000001" class="node">
<title>Node1</title>
<g id="a_Node000001"><a xlink:title="Contains jngl::Finally class.">
<polygon fill="#999999" stroke="#666666" points="327,-185 215,-185 215,-165.75 327,-165.75 327,-185"/>
<text text-anchor="middle" x="271" y="-171.5" font-family="ui-monospace,monospace" font-size="10.00">jngl/Finally.hpp</text>
</a>
</g>
</g>
<!-- Node2 -->
<g id="Node000002" class="node">
<title>Node2</title>
<g id="a_Node000002"><a xlink:href="Channel_8hpp.html" target="_top" xlink:title="Contains jngl::Channel class.">
<polygon fill="white" stroke="#666666" points="112,-74.5 0,-74.5 0,-55.25 112,-55.25 112,-74.5"/>
<text text-anchor="middle" x="56" y="-61" font-family="ui-monospace,monospace" font-size="10.00">jngl/Channel.hpp</text>
</a>
</g>
</g>
<!-- Node1&#45;&gt;Node2 -->
<g id="edge1_Node000001_Node000002" class="edge">
<title>Node1&#45;&gt;Node2</title>
<g id="a_edge1_Node000001_Node000002"><a xlink:title=" ">
<path fill="none" stroke="#63b8ff" d="M203.54,-173.06C164.37,-169 116.34,-157.94 83,-129.75 66.08,-115.45 59.54,-88.71 57.19,-74.8"/>
<polygon fill="#63b8ff" stroke="#63b8ff" points="203.08,-176.54 213.35,-173.94 203.7,-169.56 203.08,-176.54"/>
</a>
</g>
</g>
<!-- Node4 -->
<g id="Node000004" class="node">
<title>Node4</title>
<g id="a_Node000004"><a xlink:href="Sprite_8hpp.html" target="_top" xlink:title="Contains jngl::Sprite class and related functions.">
<polygon fill="white" stroke="#666666" points="198,-129.75 92,-129.75 92,-110.5 198,-110.5 198,-129.75"/>
<text text-anchor="middle" x="145" y="-116.25" font-family="ui-monospace,monospace" font-size="10.00">jngl/Sprite.hpp</text>
</a>
</g>
</g>
<!-- Node1&#45;&gt;Node4 -->
<g id="edge3_Node000001_Node000004" class="edge">
<title>Node1&#45;&gt;Node4</title>
<g id="a_edge3_Node000001_Node000004"><a xlink:title=" ">
<path fill="none" stroke="#63b8ff" d="M239.12,-160.9C216.38,-151.29 186.43,-138.63 166.48,-130.2"/>
<polygon fill="#63b8ff" stroke="#63b8ff" points="237.66,-164.08 248.23,-164.75 240.38,-157.64 237.66,-164.08"/>
</a>
</g>
</g>
<!-- Node5 -->
<g id="Node000005" class="node">
<title>Node5</title>
<g id="a_Node000005"><a xlink:href="input_8hpp.html" target="_top" xlink:title="Input related functions.">
<polygon fill="white" stroke="#666666" points="321,-129.75 221,-129.75 221,-110.5 321,-110.5 321,-129.75"/>
<text text-anchor="middle" x="271" y="-116.25" font-family="ui-monospace,monospace" font-size="10.00">jngl/input.hpp</text>
</a>
</g>
</g>
<!-- Node1&#45;&gt;Node5 -->
<g id="edge5_Node000001_Node000005" class="edge">
<title>Node1&#45;&gt;Node5</title>
<g id="a_edge5_Node000001_Node000005"><a xlink:title=" ">
<path fill="none" stroke="#63b8ff" d="M271,-154.13C271,-145.84 271,-136.67 271,-130.11"/>
<polygon fill="#63b8ff" stroke="#63b8ff" points="267.5,-154.07 271,-164.07 274.5,-154.07 267.5,-154.07"/>
</a>
</g>
</g>
<!-- Node8 -->
<g id="Node000008" class="node">
<title>Node8</title>
<g id="a_Node000008"><a xlink:href="main_8hpp.html" target="_top" xlink:title="Defines macros for the main entry point.">
<polygon fill="white" stroke="#666666" points="595,-129.75 501,-129.75 501,-110.5 595,-110.5 595,-129.75"/>
<text text-anchor="middle" x="548" y="-116.25" font-family="ui-monospace,monospace" font-size="10.00">jngl/main.hpp</text>
</a>
</g>
</g>
<!-- Node1&#45;&gt;Node8 -->
<g id="edge11_Node000001_Node000008" class="edge">
<title>Node1&#45;&gt;Node8</title>
<g id="a_edge11_Node000001_Node000008"><a xlink:title=" ">
<path fill="none" stroke="#63b8ff" d="M329.48,-163.13C380.49,-153.33 453.56,-139.28 500.89,-130.18"/>
<polygon fill="#63b8ff" stroke="#63b8ff" points="328.95,-159.67 319.79,-165 330.27,-166.54 328.95,-159.67"/>
</a>
</g>
</g>
<!-- Node10 -->
<g id="Node000010" class="node">
<title>Node10</title>
<g id="a_Node000010"><a xlink:href="sound_8hpp.html" target="_top" xlink:title="Sound related functions.">
<polygon fill="white" stroke="#666666" points="730,-129.75 630,-129.75 630,-110.5 730,-110.5 730,-129.75"/>
<text text-anchor="middle" x="680" y="-116.25" font-family="ui-monospace,monospace" font-size="10.00">jngl/sound.hpp</text>
</a>
</g>
</g>
<!-- Node1&#45;&gt;Node10 -->
<g id="edge14_Node000001_Node000010" class="edge">
<title>Node1&#45;&gt;Node10</title>
<g id="a_edge14_Node000001_Node000010"><a xlink:title=" ">
<path fill="none" stroke="#63b8ff" d="M338.62,-165.57C420.46,-154.92 556.39,-137.22 629.6,-127.69"/>
<polygon fill="#63b8ff" stroke="#63b8ff" points="338.41,-162.07 328.94,-166.83 339.31,-169.01 338.41,-162.07"/>
</a>
</g>
</g>
<!-- Node3 -->
<g id="Node000003" class="node">
<title>Node3</title>
<g id="a_Node000003"><a xlink:href="jngl_8hpp.html" target="_top" xlink:title="Includes all JNGL headers except for init.hpp.">
<polygon fill="white" stroke="#666666" points="303,-19.25 239,-19.25 239,0 303,0 303,-19.25"/>
<text text-anchor="middle" x="271" y="-5.75" font-family="ui-monospace,monospace" font-size="10.00">jngl.hpp</text>
</a>
</g>
</g>
<!-- Node2&#45;&gt;Node3 -->
<g id="edge2_Node000002_Node000003" class="edge">
<title>Node2&#45;&gt;Node3</title>
<g id="a_edge2_Node000002_Node000003"><a xlink:title=" ">
<path fill="none" stroke="#63b8ff" d="M103.55,-52.1C144.57,-41.94 202.71,-27.54 238.58,-18.66"/>
<polygon fill="#63b8ff" stroke="#63b8ff" points="102.81,-48.68 93.94,-54.48 104.49,-55.47 102.81,-48.68"/>
</a>
</g>
</g>
<!-- Node4&#45;&gt;Node3 -->
<g id="edge4_Node000004_Node000003" class="edge">
<title>Node4&#45;&gt;Node3</title>
<g id="a_edge4_Node000004_Node000003"><a xlink:title=" ">
<path fill="none" stroke="#63b8ff" d="M155.01,-100.52C163.1,-86.76 175.49,-68.25 190,-55.25 207.46,-39.61 231.35,-27.3 248.66,-19.6"/>
<polygon fill="#63b8ff" stroke="#63b8ff" points="152.09,-98.58 150.24,-109.01 158.19,-102.01 152.09,-98.58"/>
</a>
</g>
</g>
<!-- Node5&#45;&gt;Node3 -->
<g id="edge6_Node000005_Node000003" class="edge">
<title>Node5&#45;&gt;Node3</title>
<g id="a_edge6_Node000005_Node000003"><a xlink:title=" ">
<path fill="none" stroke="#63b8ff" d="M232.6,-105.38C218.85,-98.38 204.82,-88.35 197,-74.5 183.15,-49.97 218.37,-30.39 244.86,-19.66"/>
<polygon fill="#63b8ff" stroke="#63b8ff" points="231.04,-108.51 241.59,-109.52 233.97,-102.15 231.04,-108.51"/>
</a>
</g>
</g>
<!-- Node6 -->
<g id="Node000006" class="node">
<title>Node6</title>
<g id="a_Node000006"><a xlink:href="Controller_8hpp.html" target="_top" xlink:title="Contains jngl::Controller class.">
<polygon fill="white" stroke="#666666" points="336,-74.5 206,-74.5 206,-55.25 336,-55.25 336,-74.5"/>
<text text-anchor="middle" x="271" y="-61" font-family="ui-monospace,monospace" font-size="10.00">jngl/Controller.hpp</text>
</a>
</g>
</g>
<!-- Node5&#45;&gt;Node6 -->
<g id="edge7_Node000005_Node000006" class="edge">
<title>Node5&#45;&gt;Node6</title>
<g id="a_edge7_Node000005_Node000006"><a xlink:title=" ">
<path fill="none" stroke="#63b8ff" d="M271,-98.88C271,-90.59 271,-81.42 271,-74.86"/>
<polygon fill="#63b8ff" stroke="#63b8ff" points="267.5,-98.82 271,-108.82 274.5,-98.82 267.5,-98.82"/>
</a>
</g>
</g>
<!-- Node7 -->
<g id="Node000007" class="node">
<title>Node7</title>
<g id="a_Node000007"><a xlink:href="KeyboardShortcut_8hpp.html" target="_top" xlink:title="Contains jngl::KeyboardShortcut class.">
<polygon fill="white" stroke="#666666" points="520,-74.5 354,-74.5 354,-55.25 520,-55.25 520,-74.5"/>
<text text-anchor="middle" x="437" y="-61" font-family="ui-monospace,monospace" font-size="10.00">jngl/KeyboardShortcut.hpp</text>
</a>
</g>
</g>
<!-- Node5&#45;&gt;Node7 -->
<g id="edge9_Node000005_Node000007" class="edge">
<title>Node5&#45;&gt;Node7</title>
<g id="a_edge9_Node000005_Node000007"><a xlink:title=" ">
<path fill="none" stroke="#63b8ff" d="M309.77,-106.69C340.07,-96.97 381.47,-83.69 408.7,-74.95"/>
<polygon fill="#63b8ff" stroke="#63b8ff" points="309.05,-103.24 300.6,-109.63 311.19,-109.91 309.05,-103.24"/>
</a>
</g>
</g>
<!-- Node6&#45;&gt;Node3 -->
<g id="edge8_Node000006_Node000003" class="edge">
<title>Node6&#45;&gt;Node3</title>
<g id="a_edge8_Node000006_Node000003"><a xlink:title=" ">
<path fill="none" stroke="#63b8ff" d="M271,-43.63C271,-35.34 271,-26.17 271,-19.61"/>
<polygon fill="#63b8ff" stroke="#63b8ff" points="267.5,-43.57 271,-53.57 274.5,-43.57 267.5,-43.57"/>
</a>
</g>
</g>
<!-- Node7&#45;&gt;Node3 -->
<g id="edge10_Node000007_Node000003" class="edge">
<title>Node7&#45;&gt;Node3</title>
<g id="a_edge10_Node000007_Node000003"><a xlink:title=" ">
<path fill="none" stroke="#63b8ff" d="M398.23,-51.44C367.93,-41.72 326.53,-28.44 299.3,-19.7"/>
<polygon fill="#63b8ff" stroke="#63b8ff" points="396.81,-54.66 407.4,-54.38 398.95,-47.99 396.81,-54.66"/>
</a>
</g>
</g>
<!-- Node8&#45;&gt;Node3 -->
<g id="edge12_Node000008_Node000003" class="edge">
<title>Node8&#45;&gt;Node3</title>
<g id="a_edge12_Node000008_Node000003"><a xlink:title=" ">
<path fill="none" stroke="#63b8ff" d="M547.37,-98.99C545.8,-84.7 541.31,-66.19 529,-55.25 496.04,-25.96 364.87,-15.44 303.27,-12.06"/>
<polygon fill="#63b8ff" stroke="#63b8ff" points="543.86,-98.91 548.01,-108.65 550.84,-98.44 543.86,-98.91"/>
</a>
</g>
</g>
<!-- Node9 -->
<g id="Node000009" class="node">
<title>Node9</title>
<g id="a_Node000009"><a xlink:href="init_8hpp.html" target="_top" xlink:title="Include this file only once, as it defines the main function.">
<polygon fill="white" stroke="#666666" points="670,-74.5 576,-74.5 576,-55.25 670,-55.25 670,-74.5"/>
<text text-anchor="middle" x="623" y="-61" font-family="ui-monospace,monospace" font-size="10.00">jngl/init.hpp</text>
</a>
</g>
</g>
<!-- Node8&#45;&gt;Node9 -->
<g id="edge13_Node000008_Node000009" class="edge">
<title>Node8&#45;&gt;Node9</title>
<g id="a_edge13_Node000008_Node000009"><a xlink:title=" ">
<path fill="none" stroke="#63b8ff" d="M569.99,-103.51C583.07,-94.22 599.21,-82.77 610.21,-74.95"/>
<polygon fill="#63b8ff" stroke="#63b8ff" points="568.08,-100.57 561.96,-109.22 572.14,-106.28 568.08,-100.57"/>
</a>
</g>
</g>
<!-- Node10&#45;&gt;Node3 -->
<g id="edge15_Node000010_Node000003" class="edge">
<title>Node10&#45;&gt;Node3</title>
<g id="a_edge15_Node000010_Node000003"><a xlink:title=" ">
<path fill="none" stroke="#63b8ff" d="M685.87,-99.43C688.75,-85.35 689.63,-66.92 679,-55.25 653.81,-27.59 395.4,-15.28 303.35,-11.75"/>
<polygon fill="#63b8ff" stroke="#63b8ff" points="682.53,-98.37 683.44,-108.92 689.31,-100.1 682.53,-98.37"/>
</a>
</g>
</g>
</g>
</svg>
