<?xml version="1.0" encoding="UTF-8" standalone="no"?>
<!DOCTYPE svg PUBLIC "-//W3C//DTD SVG 1.1//EN"
 "http://www.w3.org/Graphics/SVG/1.1/DTD/svg11.dtd">
<!-- Generated by graphviz version 9.0.0 (20230911.1827)
 -->
<!-- Title: jngl/Finally.hpp Pages: 1 -->
<svg width="826pt" height="193pt"
 viewBox="0.00 0.00 826.00 193.00" xmlns="http://www.w3.org/2000/svg" xmlns:xlink="http://www.w3.org/1999/xlink">
<g id="graph0" class="graph" transform="scale(1 1) rotate(0) translate(4 189)">
<title>jngl/Finally.hpp</title>
<!-- Node1 -->
<g id="Node000001" class="node">
<title>Node1</title>
<g id="a_Node000001"><a xlink:title="Contains jngl::Finally class.">
<polygon fill="#999999" stroke="#666666" points="465,-185 353,-185 353,-165.75 465,-165.75 465,-185"/>
<text text-anchor="middle" x="409" y="-171.5" font-family="ui-monospace,monospace" font-size="10.00">jngl/Finally.hpp</text>
</a>
</g>
</g>
<!-- Node2 -->
<g id="Node000002" class="node">
<title>Node2</title>
<g id="a_Node000002"><a xlink:href="Channel_8hpp.html" target="_top" xlink:title="Contains jngl::Channel class.">
<polygon fill="white" stroke="#666666" points="112,-74.5 0,-74.5 0,-55.25 112,-55.25 112,-74.5"/>
<text text-anchor="middle" x="56" y="-61" font-family="ui-monospace,monospace" font-size="10.00">jngl/Channel.hpp</text>
</a>
</g>
</g>
<!-- Node1&#45;&gt;Node2 -->
<g id="edge1_Node000001_Node000002" class="edge">
<title>Node1&#45;&gt;Node2</title>
<g id="a_edge1_Node000001_Node000002"><a xlink:title=" ">
<path fill="none" stroke="#63b8ff" d="M356.04,-162.87C319.96,-154.64 271.25,-142.74 229,-129.75 173.92,-112.81 110.77,-88.11 78.12,-74.94"/>
<polygon fill="#63b8ff" stroke="#63b8ff" points="354.81,-166.18 365.34,-164.97 356.35,-159.35 354.81,-166.18"/>
</a>
</g>
</g>
<!-- Node4 -->
<g id="Node000004" class="node">
<title>Node4</title>
<g id="a_Node000004"><a xlink:href="FrameBuffer_8hpp.html" target="_top" xlink:title="Contains jngl::FrameBuffer class.">
<polygon fill="white" stroke="#666666" points="260,-74.5 130,-74.5 130,-55.25 260,-55.25 260,-74.5"/>
<text text-anchor="middle" x="195" y="-61" font-family="ui-monospace,monospace" font-size="10.00">jngl/FrameBuffer.hpp</text>
</a>
</g>
</g>
<!-- Node1&#45;&gt;Node4 -->
<g id="edge3_Node000001_Node000004" class="edge">
<title>Node1&#45;&gt;Node4</title>
<g id="a_edge3_Node000001_Node000004"><a xlink:title=" ">
<path fill="none" stroke="#63b8ff" d="M341.62,-163.05C313.43,-156.29 281.2,-145.79 255,-129.75 231.12,-115.13 210.57,-88.53 200.9,-74.72"/>
<polygon fill="#63b8ff" stroke="#63b8ff" points="340.6,-166.41 351.13,-165.21 342.15,-159.59 340.6,-166.41"/>
</a>
</g>
</g>
<!-- Node5 -->
<g id="Node000005" class="node">
<title>Node5</title>
<g id="a_Node000005"><a xlink:href="ShaderProgram_8hpp.html" target="_top" xlink:title="Contains jngl::ShaderProgram class.">
<polygon fill="white" stroke="#666666" points="412,-129.75 264,-129.75 264,-110.5 412,-110.5 412,-129.75"/>
<text text-anchor="middle" x="338" y="-116.25" font-family="ui-monospace,monospace" font-size="10.00">jngl/ShaderProgram.hpp</text>
</a>
</g>
</g>
<!-- Node1&#45;&gt;Node5 -->
<g id="edge5_Node000001_Node000005" class="edge">
<title>Node1&#45;&gt;Node5</title>
<g id="a_edge5_Node000001_Node000005"><a xlink:title=" ">
<path fill="none" stroke="#63b8ff" d="M387.75,-158.44C375.36,-149.14 360.18,-137.76 349.87,-130.02"/>
<polygon fill="#63b8ff" stroke="#63b8ff" points="385.64,-161.23 395.74,-164.43 389.84,-155.63 385.64,-161.23"/>
</a>
</g>
</g>
<!-- Node7 -->
<g id="Node000007" class="node">
<title>Node7</title>
<g id="a_Node000007"><a xlink:href="input_8hpp.html" target="_top" xlink:title="Input related functions.">
<polygon fill="white" stroke="#666666" points="530,-129.75 430,-129.75 430,-110.5 530,-110.5 530,-129.75"/>
<text text-anchor="middle" x="480" y="-116.25" font-family="ui-monospace,monospace" font-size="10.00">jngl/input.hpp</text>
</a>
</g>
</g>
<!-- Node1&#45;&gt;Node7 -->
<g id="edge9_Node000001_Node000007" class="edge">
<title>Node1&#45;&gt;Node7</title>
<g id="a_edge9_Node000001_Node000007"><a xlink:title=" ">
<path fill="none" stroke="#63b8ff" d="M430.25,-158.44C442.64,-149.14 457.82,-137.76 468.13,-130.02"/>
<polygon fill="#63b8ff" stroke="#63b8ff" points="428.16,-155.63 422.26,-164.43 432.36,-161.23 428.16,-155.63"/>
</a>
</g>
</g>
<!-- Node9 -->
<g id="Node000009" class="node">
<title>Node9</title>
<g id="a_Node000009"><a xlink:href="main_8hpp.html" target="_top" xlink:title="Defines macros for the main entry point.">
<polygon fill="white" stroke="#666666" points="683,-129.75 589,-129.75 589,-110.5 683,-110.5 683,-129.75"/>
<text text-anchor="middle" x="636" y="-116.25" font-family="ui-monospace,monospace" font-size="10.00">jngl/main.hpp</text>
</a>
</g>
</g>
<!-- Node1&#45;&gt;Node9 -->
<g id="edge13_Node000001_Node000009" class="edge">
<title>Node1&#45;&gt;Node9</title>
<g id="a_edge13_Node000001_Node000009"><a xlink:title=" ">
<path fill="none" stroke="#63b8ff" d="M458.78,-162.7C500.49,-152.91 559.17,-139.15 597.4,-130.18"/>
<polygon fill="#63b8ff" stroke="#63b8ff" points="458.17,-159.24 449.24,-164.94 459.77,-166.06 458.17,-159.24"/>
</a>
</g>
</g>
<!-- Node11 -->
<g id="Node000011" class="node">
<title>Node11</title>
<g id="a_Node000011"><a xlink:href="sound_8hpp.html" target="_top" xlink:title="Sound related functions.">
<polygon fill="white" stroke="#666666" points="818,-129.75 718,-129.75 718,-110.5 818,-110.5 818,-129.75"/>
<text text-anchor="middle" x="768" y="-116.25" font-family="ui-monospace,monospace" font-size="10.00">jngl/sound.hpp</text>
</a>
</g>
</g>
<!-- Node1&#45;&gt;Node11 -->
<g id="edge16_Node000001_Node000011" class="edge">
<title>Node1&#45;&gt;Node11</title>
<g id="a_edge16_Node000001_Node000011"><a xlink:title=" ">
<path fill="none" stroke="#63b8ff" d="M476.83,-164.31C546.94,-153.91 654.75,-137.92 717.63,-128.6"/>
<polygon fill="#63b8ff" stroke="#63b8ff" points="476.36,-160.84 466.99,-165.77 477.39,-167.77 476.36,-160.84"/>
</a>
</g>
</g>
<!-- Node3 -->
<g id="Node000003" class="node">
<title>Node3</title>
<g id="a_Node000003"><a xlink:href="jngl_8hpp.html" target="_top" xlink:title="Includes all JNGL headers except for init.hpp.">
<polygon fill="white" stroke="#666666" points="441,-19.25 377,-19.25 377,0 441,0 441,-19.25"/>
<text text-anchor="middle" x="409" y="-5.75" font-family="ui-monospace,monospace" font-size="10.00">jngl.hpp</text>
</a>
</g>
</g>
<!-- Node2&#45;&gt;Node3 -->
<g id="edge2_Node000002_Node000003" class="edge">
<title>Node2&#45;&gt;Node3</title>
<g id="a_edge2_Node000002_Node000003"><a xlink:title=" ">
<path fill="none" stroke="#63b8ff" d="M123.65,-53.67C199.55,-42.22 319.51,-24.12 376.66,-15.5"/>
<polygon fill="#63b8ff" stroke="#63b8ff" points="123.19,-50.2 113.82,-55.15 124.23,-57.12 123.19,-50.2"/>
</a>
</g>
</g>
<!-- Node4&#45;&gt;Node3 -->
<g id="edge4_Node000004_Node000003" class="edge">
<title>Node4&#45;&gt;Node3</title>
<g id="a_edge4_Node000004_Node000003"><a xlink:title=" ">
<path fill="none" stroke="#63b8ff" d="M242.33,-52.1C283.16,-41.94 341.03,-27.54 376.73,-18.66"/>
<polygon fill="#63b8ff" stroke="#63b8ff" points="241.63,-48.67 232.77,-54.48 243.32,-55.46 241.63,-48.67"/>
</a>
</g>
</g>
<!-- Node5&#45;&gt;Node3 -->
<g id="edge6_Node000005_Node000003" class="edge">
<title>Node5&#45;&gt;Node3</title>
<g id="a_edge6_Node000005_Node000003"><a xlink:title=" ">
<path fill="none" stroke="#63b8ff" d="M319.96,-101.85C308.4,-88.62 297.24,-70.17 307,-55.25 322.34,-31.79 353.03,-20.59 376.75,-15.29"/>
<polygon fill="#63b8ff" stroke="#63b8ff" points="317.31,-104.13 326.73,-108.97 322.38,-99.31 317.31,-104.13"/>
</a>
</g>
</g>
<!-- Node6 -->
<g id="Node000006" class="node">
<title>Node6</title>
<g id="a_Node000006"><a xlink:href="sprite_8hpp.html" target="_top" xlink:title="Contains jngl::Sprite class and related functions.">
<polygon fill="white" stroke="#666666" points="422,-74.5 316,-74.5 316,-55.25 422,-55.25 422,-74.5"/>
<text text-anchor="middle" x="369" y="-61" font-family="ui-monospace,monospace" font-size="10.00">jngl/sprite.hpp</text>
</a>
</g>
</g>
<!-- Node5&#45;&gt;Node6 -->
<g id="edge7_Node000005_Node000006" class="edge">
<title>Node5&#45;&gt;Node6</title>
<g id="a_edge7_Node000005_Node000006"><a xlink:title=" ">
<path fill="none" stroke="#63b8ff" d="M348.78,-100.62C353.85,-91.89 359.68,-81.89 363.77,-74.86"/>
<polygon fill="#63b8ff" stroke="#63b8ff" points="345.89,-98.62 343.88,-109.02 351.94,-102.14 345.89,-98.62"/>
</a>
</g>
</g>
<!-- Node6&#45;&gt;Node3 -->
<g id="edge8_Node000006_Node000003" class="edge">
<title>Node6&#45;&gt;Node3</title>
<g id="a_edge8_Node000006_Node000003"><a xlink:title=" ">
<path fill="none" stroke="#63b8ff" d="M382.47,-45.94C389.12,-37.09 396.86,-26.79 402.25,-19.61"/>
<polygon fill="#63b8ff" stroke="#63b8ff" points="379.72,-43.77 376.51,-53.87 385.32,-47.98 379.72,-43.77"/>
</a>
</g>
</g>
<!-- Node7&#45;&gt;Node3 -->
<g id="edge10_Node000007_Node000003" class="edge">
<title>Node7&#45;&gt;Node3</title>
<g id="a_edge10_Node000007_Node000003"><a xlink:title=" ">
<path fill="none" stroke="#63b8ff" d="M467.95,-100.72C452.56,-77.19 426.5,-37.37 414.89,-19.63"/>
<polygon fill="#63b8ff" stroke="#63b8ff" points="464.96,-102.53 473.36,-108.98 470.81,-98.7 464.96,-102.53"/>
</a>
</g>
</g>
<!-- Node8 -->
<g id="Node000008" class="node">
<title>Node8</title>
<g id="a_Node000008"><a xlink:href="Controller_8hpp.html" target="_top" xlink:title="Contains jngl::Controller class.">
<polygon fill="white" stroke="#666666" points="608,-74.5 478,-74.5 478,-55.25 608,-55.25 608,-74.5"/>
<text text-anchor="middle" x="543" y="-61" font-family="ui-monospace,monospace" font-size="10.00">jngl/Controller.hpp</text>
</a>
</g>
</g>
<!-- Node7&#45;&gt;Node8 -->
<g id="edge11_Node000007_Node000008" class="edge">
<title>Node7&#45;&gt;Node8</title>
<g id="a_edge11_Node000007_Node000008"><a xlink:title=" ">
<path fill="none" stroke="#63b8ff" d="M499.18,-102.91C510.12,-93.67 523.41,-82.43 532.47,-74.77"/>
<polygon fill="#63b8ff" stroke="#63b8ff" points="497.22,-99.99 491.84,-109.11 501.74,-105.33 497.22,-99.99"/>
</a>
</g>
</g>
<!-- Node8&#45;&gt;Node3 -->
<g id="edge12_Node000008_Node000003" class="edge">
<title>Node8&#45;&gt;Node3</title>
<g id="a_edge12_Node000008_Node000003"><a xlink:title=" ">
<path fill="none" stroke="#63b8ff" d="M509.75,-50.66C485.5,-41.02 453.25,-28.21 431.84,-19.7"/>
<polygon fill="#63b8ff" stroke="#63b8ff" points="508.28,-53.84 518.86,-54.28 510.86,-47.34 508.28,-53.84"/>
</a>
</g>
</g>
<!-- Node9&#45;&gt;Node3 -->
<g id="edge14_Node000009_Node000003" class="edge">
<title>Node9&#45;&gt;Node3</title>
<g id="a_edge14_Node000009_Node000003"><a xlink:title=" ">
<path fill="none" stroke="#63b8ff" d="M635.24,-99.14C633.61,-84.92 629.09,-66.43 617,-55.25 591.79,-31.93 493.41,-18.94 441.49,-13.58"/>
<polygon fill="#63b8ff" stroke="#63b8ff" points="631.72,-99.01 635.94,-108.73 638.7,-98.5 631.72,-99.01"/>
</a>
</g>
</g>
<!-- Node10 -->
<g id="Node000010" class="node">
<title>Node10</title>
<g id="a_Node000010"><a xlink:href="init_8hpp.html" target="_top" xlink:title="Include this file only once, as it defines the main function.">
<polygon fill="white" stroke="#666666" points="758,-74.5 664,-74.5 664,-55.25 758,-55.25 758,-74.5"/>
<text text-anchor="middle" x="711" y="-61" font-family="ui-monospace,monospace" font-size="10.00">jngl/init.hpp</text>
</a>
</g>
</g>
<!-- Node9&#45;&gt;Node10 -->
<g id="edge15_Node000009_Node000010" class="edge">
<title>Node9&#45;&gt;Node10</title>
<g id="a_edge15_Node000009_Node000010"><a xlink:title=" ">
<path fill="none" stroke="#63b8ff" d="M657.99,-103.51C671.07,-94.22 687.21,-82.77 698.21,-74.95"/>
<polygon fill="#63b8ff" stroke="#63b8ff" points="656.08,-100.57 649.96,-109.22 660.14,-106.28 656.08,-100.57"/>
</a>
</g>
</g>
<!-- Node11&#45;&gt;Node3 -->
<g id="edge17_Node000011_Node000003" class="edge">
<title>Node11&#45;&gt;Node3</title>
<g id="a_edge17_Node000011_Node000003"><a xlink:title=" ">
<path fill="none" stroke="#63b8ff" d="M773.82,-99.47C776.67,-85.42 777.54,-67 767,-55.25 745.38,-31.15 525.18,-16.87 441.25,-12.27"/>
<polygon fill="#63b8ff" stroke="#63b8ff" points="770.48,-98.39 771.41,-108.95 777.27,-100.12 770.48,-98.39"/>
</a>
</g>
</g>
</g>
</svg>
