<?xml version="1.0" encoding="UTF-8" standalone="no"?>
<!DOCTYPE svg PUBLIC "-//W3C//DTD SVG 1.1//EN"
 "http://www.w3.org/Graphics/SVG/1.1/DTD/svg11.dtd">
<!-- Generated by graphviz version 2.42.4 (0)
 -->
<!-- Title: jngl/Finally.hpp Pages: 1 -->
<svg width="487pt" height="308pt"
 viewBox="0.00 0.00 487.00 308.00" xmlns="http://www.w3.org/2000/svg" xmlns:xlink="http://www.w3.org/1999/xlink">
<g id="graph0" class="graph" transform="scale(1 1) rotate(0) translate(4 304)">
<title>jngl/Finally.hpp</title>
<polygon fill="white" stroke="transparent" points="-4,4 -4,-304 483,-304 483,4 -4,4"/>
<!-- Node1 -->
<g id="node1" class="node">
<title>Node1</title>
<g id="a_node1"><a xlink:title=" ">
<polygon fill="#bfbfbf" stroke="black" points="109,-280.5 109,-299.5 222,-299.5 222,-280.5 109,-280.5"/>
<text text-anchor="middle" x="165.5" y="-287.5" font-family="'Consolas',monospace" font-size="10.00">jngl/Finally.hpp</text>
</a>
</g>
</g>
<!-- Node2 -->
<g id="node2" class="node">
<title>Node2</title>
<g id="a_node2"><a xlink:href="framebuffer_8hpp.html" target="_top" xlink:title="Contains jngl::FrameBuffer class.">
<polygon fill="white" stroke="black" points="0,-112.5 0,-131.5 131,-131.5 131,-112.5 0,-112.5"/>
<text text-anchor="middle" x="65.5" y="-119.5" font-family="'Consolas',monospace" font-size="10.00">jngl/framebuffer.hpp</text>
</a>
</g>
</g>
<!-- Node1&#45;&gt;Node2 -->
<g id="edge1" class="edge">
<title>Node1&#45;&gt;Node2</title>
<path fill="none" stroke="midnightblue" d="M141.78,-274.79C130.38,-266.94 117.31,-256.29 108.5,-244 82.13,-207.22 70.54,-152.69 66.88,-131.68"/>
<polygon fill="midnightblue" stroke="midnightblue" points="140.17,-277.92 150.45,-280.47 144,-272.06 140.17,-277.92"/>
</g>
<!-- Node5 -->
<g id="node5" class="node">
<title>Node5</title>
<g id="a_node5"><a xlink:href="main_8hpp_source.html" target="_top" xlink:title=" ">
<polygon fill="white" stroke="black" points="118,-224.5 118,-243.5 213,-243.5 213,-224.5 118,-224.5"/>
<text text-anchor="middle" x="165.5" y="-231.5" font-family="'Consolas',monospace" font-size="10.00">jngl/main.hpp</text>
</a>
</g>
</g>
<!-- Node1&#45;&gt;Node5 -->
<g id="edge4" class="edge">
<title>Node1&#45;&gt;Node5</title>
<path fill="none" stroke="midnightblue" d="M165.5,-269.8C165.5,-260.91 165.5,-250.78 165.5,-243.75"/>
<polygon fill="midnightblue" stroke="midnightblue" points="162,-270.08 165.5,-280.08 169,-270.08 162,-270.08"/>
</g>
<!-- Node7 -->
<g id="node7" class="node">
<title>Node7</title>
<g id="a_node7"><a xlink:href="ShaderProgram_8hpp.html" target="_top" xlink:title="Contains jngl::ShaderProgram class.">
<polygon fill="white" stroke="black" points="237,-224.5 237,-243.5 386,-243.5 386,-224.5 237,-224.5"/>
<text text-anchor="middle" x="311.5" y="-231.5" font-family="'Consolas',monospace" font-size="10.00">jngl/ShaderProgram.hpp</text>
</a>
</g>
</g>
<!-- Node1&#45;&gt;Node7 -->
<g id="edge7" class="edge">
<title>Node1&#45;&gt;Node7</title>
<path fill="none" stroke="midnightblue" d="M198.2,-276.91C225.65,-266.75 264.17,-252.51 288.47,-243.52"/>
<polygon fill="midnightblue" stroke="midnightblue" points="196.8,-273.69 188.63,-280.44 199.23,-280.26 196.8,-273.69"/>
</g>
<!-- Node3 -->
<g id="node3" class="node">
<title>Node3</title>
<g id="a_node3"><a xlink:href="all_8hpp.html" target="_top" xlink:title="Includes all JNGL headers except for init.hpp.">
<polygon fill="white" stroke="black" points="267,-56.5 267,-75.5 356,-75.5 356,-56.5 267,-56.5"/>
<text text-anchor="middle" x="311.5" y="-63.5" font-family="'Consolas',monospace" font-size="10.00">jngl/all.hpp</text>
</a>
</g>
</g>
<!-- Node2&#45;&gt;Node3 -->
<g id="edge2" class="edge">
<title>Node2&#45;&gt;Node3</title>
<path fill="none" stroke="midnightblue" d="M114.33,-110.28C160.82,-100.08 229.86,-84.92 272.7,-75.52"/>
<polygon fill="midnightblue" stroke="midnightblue" points="113.5,-106.88 104.48,-112.44 115,-113.72 113.5,-106.88"/>
</g>
<!-- Node4 -->
<g id="node4" class="node">
<title>Node4</title>
<g id="a_node4"><a xlink:href="jngl_8hpp.html" target="_top" xlink:title="Includes jngl/all.hpp.">
<polygon fill="white" stroke="black" points="279,-0.5 279,-19.5 344,-19.5 344,-0.5 279,-0.5"/>
<text text-anchor="middle" x="311.5" y="-7.5" font-family="'Consolas',monospace" font-size="10.00">jngl.hpp</text>
</a>
</g>
</g>
<!-- Node3&#45;&gt;Node4 -->
<g id="edge3" class="edge">
<title>Node3&#45;&gt;Node4</title>
<path fill="none" stroke="midnightblue" d="M311.5,-45.8C311.5,-36.91 311.5,-26.78 311.5,-19.75"/>
<polygon fill="midnightblue" stroke="midnightblue" points="308,-46.08 311.5,-56.08 315,-46.08 308,-46.08"/>
</g>
<!-- Node5&#45;&gt;Node3 -->
<g id="edge5" class="edge">
<title>Node5&#45;&gt;Node3</title>
<path fill="none" stroke="midnightblue" d="M165.78,-214.11C166.77,-200.38 169.82,-181.87 178.5,-168 206.96,-122.54 263.74,-90.04 293.05,-75.51"/>
<polygon fill="midnightblue" stroke="midnightblue" points="162.27,-214.16 165.34,-224.3 169.26,-214.45 162.27,-214.16"/>
</g>
<!-- Node6 -->
<g id="node6" class="node">
<title>Node6</title>
<g id="a_node6"><a xlink:href="init_8hpp.html" target="_top" xlink:title="Include this file only once, as it defines the main function.">
<polygon fill="white" stroke="black" points="188,-168.5 188,-187.5 283,-187.5 283,-168.5 188,-168.5"/>
<text text-anchor="middle" x="235.5" y="-175.5" font-family="'Consolas',monospace" font-size="10.00">jngl/init.hpp</text>
</a>
</g>
</g>
<!-- Node5&#45;&gt;Node6 -->
<g id="edge6" class="edge">
<title>Node5&#45;&gt;Node6</title>
<path fill="none" stroke="midnightblue" d="M184.81,-218.1C197.41,-208.38 213.43,-196.03 224.05,-187.83"/>
<polygon fill="midnightblue" stroke="midnightblue" points="182.53,-215.44 176.75,-224.32 186.8,-220.99 182.53,-215.44"/>
</g>
<!-- Node7&#45;&gt;Node3 -->
<g id="edge8" class="edge">
<title>Node7&#45;&gt;Node3</title>
<path fill="none" stroke="midnightblue" d="M311.5,-213.93C311.5,-177.92 311.5,-101.23 311.5,-75.57"/>
<polygon fill="midnightblue" stroke="midnightblue" points="308,-214.08 311.5,-224.08 315,-214.08 308,-214.08"/>
</g>
<!-- Node8 -->
<g id="node8" class="node">
<title>Node8</title>
<g id="a_node8"><a xlink:href="sprite_8hpp.html" target="_top" xlink:title="Contains jngl::Sprite class and related functions.">
<polygon fill="white" stroke="black" points="340,-168.5 340,-187.5 447,-187.5 447,-168.5 340,-168.5"/>
<text text-anchor="middle" x="393.5" y="-175.5" font-family="'Consolas',monospace" font-size="10.00">jngl/sprite.hpp</text>
</a>
</g>
</g>
<!-- Node7&#45;&gt;Node8 -->
<g id="edge9" class="edge">
<title>Node7&#45;&gt;Node8</title>
<path fill="none" stroke="midnightblue" d="M333.33,-218.62C348.31,-208.76 367.7,-195.99 380.36,-187.65"/>
<polygon fill="midnightblue" stroke="midnightblue" points="331.1,-215.9 324.67,-224.32 334.95,-221.75 331.1,-215.9"/>
</g>
<!-- Node8&#45;&gt;Node3 -->
<g id="edge10" class="edge">
<title>Node8&#45;&gt;Node3</title>
<path fill="none" stroke="midnightblue" d="M381.03,-160.27C363.3,-136.49 331.47,-93.79 317.9,-75.59"/>
<polygon fill="midnightblue" stroke="midnightblue" points="378.28,-162.44 387.07,-168.37 383.9,-158.26 378.28,-162.44"/>
</g>
<!-- Node9 -->
<g id="node9" class="node">
<title>Node9</title>
<g id="a_node9"><a xlink:href="Video_8hpp.html" target="_top" xlink:title=" ">
<polygon fill="white" stroke="black" points="378,-112.5 378,-131.5 479,-131.5 479,-112.5 378,-112.5"/>
<text text-anchor="middle" x="428.5" y="-119.5" font-family="'Consolas',monospace" font-size="10.00">jngl/Video.hpp</text>
</a>
</g>
</g>
<!-- Node8&#45;&gt;Node9 -->
<g id="edge11" class="edge">
<title>Node8&#45;&gt;Node9</title>
<path fill="none" stroke="midnightblue" d="M404.8,-159.57C410.82,-150.27 417.97,-139.25 422.83,-131.75"/>
<polygon fill="midnightblue" stroke="midnightblue" points="401.78,-157.79 399.28,-168.08 407.66,-161.6 401.78,-157.79"/>
</g>
<!-- Node9&#45;&gt;Node3 -->
<g id="edge12" class="edge">
<title>Node9&#45;&gt;Node3</title>
<path fill="none" stroke="midnightblue" d="M400.84,-108.23C378.95,-98.13 349,-84.31 329.95,-75.52"/>
<polygon fill="midnightblue" stroke="midnightblue" points="399.41,-111.43 409.96,-112.44 402.35,-105.08 399.41,-111.43"/>
</g>
</g>
</svg>
