<?xml version="1.0" encoding="UTF-8" standalone="no"?>
<!DOCTYPE svg PUBLIC "-//W3C//DTD SVG 1.1//EN"
 "http://www.w3.org/Graphics/SVG/1.1/DTD/svg11.dtd">
<!-- Generated by graphviz version 5.0.0 (0)
 -->
<!-- Title: jngl/Finally.hpp Pages: 1 -->
<svg width="455pt" height="192pt"
 viewBox="0.00 0.00 455.00 192.00" xmlns="http://www.w3.org/2000/svg" xmlns:xlink="http://www.w3.org/1999/xlink">
<g id="graph0" class="graph" transform="scale(1 1) rotate(0) translate(4 188)">
<title>jngl/Finally.hpp</title>
<!-- Node1 -->
<g id="node1" class="node">
<title>Node1</title>
<g id="a_node1"><a xlink:title="Contains jngl::Finally class.">
<polygon fill="#999999" stroke="#666666" points="236,-184 123,-184 123,-165 236,-165 236,-184"/>
<text text-anchor="middle" x="179.5" y="-172" font-family="ui-monospace,monospace" font-size="10.00">jngl/Finally.hpp</text>
</a>
</g>
</g>
<!-- Node2 -->
<g id="node2" class="node">
<title>Node2</title>
<g id="a_node2"><a xlink:href="FrameBuffer_8hpp.html" target="_top" xlink:title="Contains jngl::FrameBuffer class.">
<polygon fill="white" stroke="#666666" points="131,-74 0,-74 0,-55 131,-55 131,-74"/>
<text text-anchor="middle" x="65.5" y="-62" font-family="ui-monospace,monospace" font-size="10.00">jngl/FrameBuffer.hpp</text>
</a>
</g>
</g>
<!-- Node1&#45;&gt;Node2 -->
<g id="edge1" class="edge">
<title>Node1&#45;&gt;Node2</title>
<path fill="none" stroke="#63b8ff" d="M144.61,-161.05C128.07,-153.76 109.03,-143.17 95.5,-129 80.17,-112.95 71.48,-87.63 67.73,-74.33"/>
<polygon fill="#63b8ff" stroke="#63b8ff" points="143.42,-164.35 153.99,-164.97 146.11,-157.89 143.42,-164.35"/>
</g>
<!-- Node4 -->
<g id="node4" class="node">
<title>Node4</title>
<g id="a_node4"><a xlink:href="ShaderProgram_8hpp.html" target="_top" xlink:title="Contains jngl::ShaderProgram class.">
<polygon fill="white" stroke="#666666" points="254,-129 105,-129 105,-110 254,-110 254,-129"/>
<text text-anchor="middle" x="179.5" y="-117" font-family="ui-monospace,monospace" font-size="10.00">jngl/ShaderProgram.hpp</text>
</a>
</g>
</g>
<!-- Node1&#45;&gt;Node4 -->
<g id="edge3" class="edge">
<title>Node1&#45;&gt;Node4</title>
<path fill="none" stroke="#63b8ff" d="M179.5,-154.66C179.5,-145.93 179.5,-135.99 179.5,-129.09"/>
<polygon fill="#63b8ff" stroke="#63b8ff" points="176,-154.75 179.5,-164.75 183,-154.75 176,-154.75"/>
</g>
<!-- Node6 -->
<g id="node6" class="node">
<title>Node6</title>
<g id="a_node6"><a xlink:href="main_8hpp.html" target="_top" xlink:title="Defines macros for the main entry point.">
<polygon fill="white" stroke="#666666" points="371,-129 276,-129 276,-110 371,-110 371,-129"/>
<text text-anchor="middle" x="323.5" y="-117" font-family="ui-monospace,monospace" font-size="10.00">jngl/main.hpp</text>
</a>
</g>
</g>
<!-- Node1&#45;&gt;Node6 -->
<g id="edge7" class="edge">
<title>Node1&#45;&gt;Node6</title>
<path fill="none" stroke="#63b8ff" d="M212.32,-161.42C239.03,-151.59 276.1,-137.95 299.94,-129.17"/>
<polygon fill="#63b8ff" stroke="#63b8ff" points="210.81,-158.25 202.64,-164.98 213.23,-164.82 210.81,-158.25"/>
</g>
<!-- Node3 -->
<g id="node3" class="node">
<title>Node3</title>
<g id="a_node3"><a xlink:href="jngl_8hpp.html" target="_top" xlink:title="Includes all JNGL headers except for init.hpp.">
<polygon fill="white" stroke="#666666" points="233,-19 168,-19 168,0 233,0 233,-19"/>
<text text-anchor="middle" x="200.5" y="-7" font-family="ui-monospace,monospace" font-size="10.00">jngl.hpp</text>
</a>
</g>
</g>
<!-- Node2&#45;&gt;Node3 -->
<g id="edge2" class="edge">
<title>Node2&#45;&gt;Node3</title>
<path fill="none" stroke="#63b8ff" d="M96.6,-51.29C121.62,-41.47 156.16,-27.91 178.42,-19.17"/>
<polygon fill="#63b8ff" stroke="#63b8ff" points="95.22,-48.07 87.19,-54.98 97.78,-54.59 95.22,-48.07"/>
</g>
<!-- Node4&#45;&gt;Node3 -->
<g id="edge4" class="edge">
<title>Node4&#45;&gt;Node3</title>
<path fill="none" stroke="#63b8ff" d="M176.81,-99.43C175.59,-86.68 175.08,-69.63 178.5,-55 181.6,-41.74 189.25,-27.9 194.66,-19.24"/>
<polygon fill="#63b8ff" stroke="#63b8ff" points="173.37,-100.21 178.03,-109.73 180.32,-99.39 173.37,-100.21"/>
</g>
<!-- Node5 -->
<g id="node5" class="node">
<title>Node5</title>
<g id="a_node5"><a xlink:href="sprite_8hpp.html" target="_top" xlink:title="Contains jngl::Sprite class and related functions.">
<polygon fill="white" stroke="#666666" points="295,-74 188,-74 188,-55 295,-55 295,-74"/>
<text text-anchor="middle" x="241.5" y="-62" font-family="ui-monospace,monospace" font-size="10.00">jngl/sprite.hpp</text>
</a>
</g>
</g>
<!-- Node4&#45;&gt;Node5 -->
<g id="edge5" class="edge">
<title>Node4&#45;&gt;Node5</title>
<path fill="none" stroke="#63b8ff" d="M197.25,-103.32C208.31,-93.87 222.13,-82.06 231.36,-74.17"/>
<polygon fill="#63b8ff" stroke="#63b8ff" points="194.79,-100.83 189.46,-109.98 199.34,-106.15 194.79,-100.83"/>
</g>
<!-- Node5&#45;&gt;Node3 -->
<g id="edge6" class="edge">
<title>Node5&#45;&gt;Node3</title>
<path fill="none" stroke="#63b8ff" d="M228.48,-46.67C221.38,-37.5 212.9,-26.52 207.14,-19.09"/>
<polygon fill="#63b8ff" stroke="#63b8ff" points="225.84,-48.98 234.73,-54.75 231.38,-44.7 225.84,-48.98"/>
</g>
<!-- Node6&#45;&gt;Node3 -->
<g id="edge8" class="edge">
<title>Node6&#45;&gt;Node3</title>
<path fill="none" stroke="#63b8ff" d="M321.68,-99.24C319.46,-85.44 314.51,-67.2 303.5,-55 285.1,-34.61 255.72,-23.18 233.04,-17.03"/>
<polygon fill="#63b8ff" stroke="#63b8ff" points="318.26,-100.08 322.99,-109.56 325.21,-99.21 318.26,-100.08"/>
</g>
<!-- Node7 -->
<g id="node7" class="node">
<title>Node7</title>
<g id="a_node7"><a xlink:href="init_8hpp.html" target="_top" xlink:title="Include this file only once, as it defines the main function.">
<polygon fill="white" stroke="#666666" points="447,-74 352,-74 352,-55 447,-55 447,-74"/>
<text text-anchor="middle" x="399.5" y="-62" font-family="ui-monospace,monospace" font-size="10.00">jngl/init.hpp</text>
</a>
</g>
</g>
<!-- Node6&#45;&gt;Node7 -->
<g id="edge9" class="edge">
<title>Node6&#45;&gt;Node7</title>
<path fill="none" stroke="#63b8ff" d="M344.08,-104.15C357.81,-94.57 375.43,-82.29 387.07,-74.17"/>
<polygon fill="#63b8ff" stroke="#63b8ff" points="341.91,-101.39 335.71,-109.98 345.92,-107.14 341.91,-101.39"/>
</g>
</g>
</svg>
