<?xml version="1.0" encoding="UTF-8" standalone="no"?>
<!DOCTYPE svg PUBLIC "-//W3C//DTD SVG 1.1//EN"
 "http://www.w3.org/Graphics/SVG/1.1/DTD/svg11.dtd">
<!-- Generated by graphviz version 2.42.4 (0)
 -->
<!-- Title: jngl/Finally.hpp Pages: 1 -->
<svg width="352pt" height="308pt"
 viewBox="0.00 0.00 352.00 308.00" xmlns="http://www.w3.org/2000/svg" xmlns:xlink="http://www.w3.org/1999/xlink">
<g id="graph0" class="graph" transform="scale(1 1) rotate(0) translate(4 304)">
<title>jngl/Finally.hpp</title>
<polygon fill="white" stroke="transparent" points="-4,4 -4,-304 348,-304 348,4 -4,4"/>
<!-- Node1 -->
<g id="node1" class="node">
<title>Node1</title>
<g id="a_node1"><a xlink:title=" ">
<polygon fill="#bfbfbf" stroke="black" points="155,-280.5 155,-299.5 268,-299.5 268,-280.5 155,-280.5"/>
<text text-anchor="middle" x="211.5" y="-287.5" font-family="'Consolas',monospace" font-size="10.00">jngl/Finally.hpp</text>
</a>
</g>
</g>
<!-- Node2 -->
<g id="node2" class="node">
<title>Node2</title>
<g id="a_node2"><a xlink:href="ShaderProgram_8hpp.html" target="_top" xlink:title=" ">
<polygon fill="white" stroke="black" points="0,-224.5 0,-243.5 149,-243.5 149,-224.5 0,-224.5"/>
<text text-anchor="middle" x="74.5" y="-231.5" font-family="'Consolas',monospace" font-size="10.00">jngl/ShaderProgram.hpp</text>
</a>
</g>
</g>
<!-- Node1&#45;&gt;Node2 -->
<g id="edge1" class="edge">
<title>Node1&#45;&gt;Node2</title>
<path fill="none" stroke="midnightblue" d="M180.48,-276.77C154.74,-266.63 118.81,-252.47 96.11,-243.52"/>
<polygon fill="midnightblue" stroke="midnightblue" points="179.21,-280.03 189.79,-280.44 181.77,-273.52 179.21,-280.03"/>
</g>
<!-- Node7 -->
<g id="node7" class="node">
<title>Node7</title>
<g id="a_node7"><a xlink:href="framebuffer_8hpp.html" target="_top" xlink:title="Contains FrameBuffer class.">
<polygon fill="white" stroke="black" points="146,-168.5 146,-187.5 277,-187.5 277,-168.5 146,-168.5"/>
<text text-anchor="middle" x="211.5" y="-175.5" font-family="'Consolas',monospace" font-size="10.00">jngl/framebuffer.hpp</text>
</a>
</g>
</g>
<!-- Node1&#45;&gt;Node7 -->
<g id="edge8" class="edge">
<title>Node1&#45;&gt;Node7</title>
<path fill="none" stroke="midnightblue" d="M211.5,-270.35C211.5,-246.25 211.5,-205.31 211.5,-187.59"/>
<polygon fill="midnightblue" stroke="midnightblue" points="208,-270.37 211.5,-280.37 215,-270.37 208,-270.37"/>
</g>
<!-- Node8 -->
<g id="node8" class="node">
<title>Node8</title>
<g id="a_node8"><a xlink:href="main_8hpp_source.html" target="_top" xlink:title=" ">
<polygon fill="white" stroke="black" points="249,-112.5 249,-131.5 344,-131.5 344,-112.5 249,-112.5"/>
<text text-anchor="middle" x="296.5" y="-119.5" font-family="'Consolas',monospace" font-size="10.00">jngl/main.hpp</text>
</a>
</g>
</g>
<!-- Node1&#45;&gt;Node8 -->
<g id="edge10" class="edge">
<title>Node1&#45;&gt;Node8</title>
<path fill="none" stroke="midnightblue" d="M226.91,-273.07C244.1,-254.33 271.34,-221.49 285.5,-188 293.52,-169.02 295.7,-144.6 296.29,-131.77"/>
<polygon fill="midnightblue" stroke="midnightblue" points="224.3,-270.74 220.02,-280.43 229.41,-275.53 224.3,-270.74"/>
</g>
<!-- Node3 -->
<g id="node3" class="node">
<title>Node3</title>
<g id="a_node3"><a xlink:href="all_8hpp.html" target="_top" xlink:title="Includes all JNGL headers.">
<polygon fill="white" stroke="black" points="88,-56.5 88,-75.5 177,-75.5 177,-56.5 88,-56.5"/>
<text text-anchor="middle" x="132.5" y="-63.5" font-family="'Consolas',monospace" font-size="10.00">jngl/all.hpp</text>
</a>
</g>
</g>
<!-- Node2&#45;&gt;Node3 -->
<g id="edge2" class="edge">
<title>Node2&#45;&gt;Node3</title>
<path fill="none" stroke="midnightblue" d="M44.68,-219.61C32.02,-212.23 18.58,-201.75 11.5,-188 7.43,-180.1 8.21,-176.26 11.5,-168 30.02,-121.48 83.9,-89.86 113.11,-75.61"/>
<polygon fill="midnightblue" stroke="midnightblue" points="43.19,-222.78 53.65,-224.43 46.5,-216.61 43.19,-222.78"/>
</g>
<!-- Node5 -->
<g id="node5" class="node">
<title>Node5</title>
<g id="a_node5"><a xlink:href="sprite_8hpp_source.html" target="_top" xlink:title=" ">
<polygon fill="white" stroke="black" points="21,-168.5 21,-187.5 128,-187.5 128,-168.5 21,-168.5"/>
<text text-anchor="middle" x="74.5" y="-175.5" font-family="'Consolas',monospace" font-size="10.00">jngl/sprite.hpp</text>
</a>
</g>
</g>
<!-- Node2&#45;&gt;Node5 -->
<g id="edge4" class="edge">
<title>Node2&#45;&gt;Node5</title>
<path fill="none" stroke="midnightblue" d="M74.5,-213.8C74.5,-204.91 74.5,-194.78 74.5,-187.75"/>
<polygon fill="midnightblue" stroke="midnightblue" points="71,-214.08 74.5,-224.08 78,-214.08 71,-214.08"/>
</g>
<!-- Node4 -->
<g id="node4" class="node">
<title>Node4</title>
<g id="a_node4"><a xlink:href="jngl_8hpp_source.html" target="_top" xlink:title=" ">
<polygon fill="white" stroke="black" points="100,-0.5 100,-19.5 165,-19.5 165,-0.5 100,-0.5"/>
<text text-anchor="middle" x="132.5" y="-7.5" font-family="'Consolas',monospace" font-size="10.00">jngl.hpp</text>
</a>
</g>
</g>
<!-- Node3&#45;&gt;Node4 -->
<g id="edge3" class="edge">
<title>Node3&#45;&gt;Node4</title>
<path fill="none" stroke="midnightblue" d="M132.5,-45.8C132.5,-36.91 132.5,-26.78 132.5,-19.75"/>
<polygon fill="midnightblue" stroke="midnightblue" points="129,-46.08 132.5,-56.08 136,-46.08 129,-46.08"/>
</g>
<!-- Node5&#45;&gt;Node3 -->
<g id="edge7" class="edge">
<title>Node5&#45;&gt;Node3</title>
<path fill="none" stroke="midnightblue" d="M69.41,-158.4C66.73,-144.82 65.32,-126.36 72.5,-112 80.94,-95.11 99.07,-82.92 113.2,-75.52"/>
<polygon fill="midnightblue" stroke="midnightblue" points="66.08,-159.53 71.79,-168.45 72.89,-157.92 66.08,-159.53"/>
</g>
<!-- Node6 -->
<g id="node6" class="node">
<title>Node6</title>
<g id="a_node6"><a xlink:href="Video_8hpp.html" target="_top" xlink:title=" ">
<polygon fill="white" stroke="black" points="82,-112.5 82,-131.5 183,-131.5 183,-112.5 82,-112.5"/>
<text text-anchor="middle" x="132.5" y="-119.5" font-family="'Consolas',monospace" font-size="10.00">jngl/Video.hpp</text>
</a>
</g>
</g>
<!-- Node5&#45;&gt;Node6 -->
<g id="edge5" class="edge">
<title>Node5&#45;&gt;Node6</title>
<path fill="none" stroke="midnightblue" d="M91.41,-161.25C101.7,-151.67 114.47,-139.79 123.01,-131.83"/>
<polygon fill="midnightblue" stroke="midnightblue" points="88.75,-158.95 83.82,-168.32 93.52,-164.07 88.75,-158.95"/>
</g>
<!-- Node6&#45;&gt;Node3 -->
<g id="edge6" class="edge">
<title>Node6&#45;&gt;Node3</title>
<path fill="none" stroke="midnightblue" d="M132.5,-101.8C132.5,-92.91 132.5,-82.78 132.5,-75.75"/>
<polygon fill="midnightblue" stroke="midnightblue" points="129,-102.08 132.5,-112.08 136,-102.08 129,-102.08"/>
</g>
<!-- Node7&#45;&gt;Node3 -->
<g id="edge9" class="edge">
<title>Node7&#45;&gt;Node3</title>
<path fill="none" stroke="midnightblue" d="M208.85,-158.05C206.21,-144.3 201.1,-125.77 191.5,-112 180.45,-96.15 162.09,-83.42 148.79,-75.6"/>
<polygon fill="midnightblue" stroke="midnightblue" points="205.45,-158.97 210.53,-168.26 212.36,-157.83 205.45,-158.97"/>
</g>
<!-- Node8&#45;&gt;Node3 -->
<g id="edge11" class="edge">
<title>Node8&#45;&gt;Node3</title>
<path fill="none" stroke="midnightblue" d="M260.98,-109.3C230.08,-99.13 186.03,-84.62 158.36,-75.52"/>
<polygon fill="midnightblue" stroke="midnightblue" points="259.92,-112.64 270.51,-112.44 262.11,-105.99 259.92,-112.64"/>
</g>
</g>
</svg>
