<?xml version="1.0" encoding="UTF-8" standalone="no"?>
<!DOCTYPE svg PUBLIC "-//W3C//DTD SVG 1.1//EN"
 "http://www.w3.org/Graphics/SVG/1.1/DTD/svg11.dtd">
<!-- Generated by graphviz version 5.0.0 (0)
 -->
<!-- Title: jngl/Finally.hpp Pages: 1 -->
<svg width="437pt" height="247pt"
 viewBox="0.00 0.00 437.00 247.00" xmlns="http://www.w3.org/2000/svg" xmlns:xlink="http://www.w3.org/1999/xlink">
<g id="graph0" class="graph" transform="scale(1 1) rotate(0) translate(4 243)">
<title>jngl/Finally.hpp</title>
<!-- Node1 -->
<g id="node1" class="node">
<title>Node1</title>
<g id="a_node1"><a xlink:title="Contains jngl::Finally class.">
<polygon fill="#999999" stroke="#666666" points="268,-239 155,-239 155,-220 268,-220 268,-239"/>
<text text-anchor="middle" x="211.5" y="-227" font-family="ui-monospace,monospace" font-size="10.00">jngl/Finally.hpp</text>
</a>
</g>
</g>
<!-- Node2 -->
<g id="node2" class="node">
<title>Node2</title>
<g id="a_node2"><a xlink:href="ShaderProgram_8hpp.html" target="_top" xlink:title="Contains jngl::ShaderProgram class.">
<polygon fill="white" stroke="#666666" points="149,-184 0,-184 0,-165 149,-165 149,-184"/>
<text text-anchor="middle" x="74.5" y="-172" font-family="ui-monospace,monospace" font-size="10.00">jngl/ShaderProgram.hpp</text>
</a>
</g>
</g>
<!-- Node1&#45;&gt;Node2 -->
<g id="edge1" class="edge">
<title>Node1&#45;&gt;Node2</title>
<path fill="none" stroke="#63b8ff" d="M179.94,-216.29C154.55,-206.47 119.5,-192.91 96.91,-184.17"/>
<polygon fill="#63b8ff" stroke="#63b8ff" points="178.9,-219.64 189.49,-219.98 181.42,-213.11 178.9,-219.64"/>
</g>
<!-- Node6 -->
<g id="node6" class="node">
<title>Node6</title>
<g id="a_node6"><a xlink:href="framebuffer_8hpp.html" target="_top" xlink:title="Contains jngl::FrameBuffer class.">
<polygon fill="white" stroke="#666666" points="277,-129 146,-129 146,-110 277,-110 277,-129"/>
<text text-anchor="middle" x="211.5" y="-117" font-family="ui-monospace,monospace" font-size="10.00">jngl/framebuffer.hpp</text>
</a>
</g>
</g>
<!-- Node1&#45;&gt;Node6 -->
<g id="edge6" class="edge">
<title>Node1&#45;&gt;Node6</title>
<path fill="none" stroke="#63b8ff" d="M211.5,-209.48C211.5,-185.84 211.5,-146.5 211.5,-129.16"/>
<polygon fill="#63b8ff" stroke="#63b8ff" points="208,-209.66 211.5,-219.66 215,-209.66 208,-209.66"/>
</g>
<!-- Node7 -->
<g id="node7" class="node">
<title>Node7</title>
<g id="a_node7"><a xlink:href="main_8hpp.html" target="_top" xlink:title="Defines macros for the main entry point.">
<polygon fill="white" stroke="#666666" points="353,-184 258,-184 258,-165 353,-165 353,-184"/>
<text text-anchor="middle" x="305.5" y="-172" font-family="ui-monospace,monospace" font-size="10.00">jngl/main.hpp</text>
</a>
</g>
</g>
<!-- Node1&#45;&gt;Node7 -->
<g id="edge8" class="edge">
<title>Node1&#45;&gt;Node7</title>
<path fill="none" stroke="#63b8ff" d="M235.5,-214.97C252.69,-205.28 275.31,-192.52 290.12,-184.17"/>
<polygon fill="#63b8ff" stroke="#63b8ff" points="233.59,-212.02 226.6,-219.98 237.03,-218.12 233.59,-212.02"/>
</g>
<!-- Node3 -->
<g id="node3" class="node">
<title>Node3</title>
<g id="a_node3"><a xlink:href="all_8hpp.html" target="_top" xlink:title="Includes all JNGL headers except for init.hpp.">
<polygon fill="white" stroke="#666666" points="187,-74 98,-74 98,-55 187,-55 187,-74"/>
<text text-anchor="middle" x="142.5" y="-62" font-family="ui-monospace,monospace" font-size="10.00">jngl/all.hpp</text>
</a>
</g>
</g>
<!-- Node2&#45;&gt;Node3 -->
<g id="edge2" class="edge">
<title>Node2&#45;&gt;Node3</title>
<path fill="none" stroke="#63b8ff" d="M45.36,-160.3C22.85,-148.21 -2.33,-129.31 11.5,-110 31.01,-82.76 68.16,-72 97.93,-67.84"/>
<polygon fill="#63b8ff" stroke="#63b8ff" points="43.9,-163.48 54.41,-164.89 47.07,-157.24 43.9,-163.48"/>
</g>
<!-- Node5 -->
<g id="node5" class="node">
<title>Node5</title>
<g id="a_node5"><a xlink:href="sprite_8hpp.html" target="_top" xlink:title="Contains jngl::Sprite class and related functions.">
<polygon fill="white" stroke="#666666" points="128,-129 21,-129 21,-110 128,-110 128,-129"/>
<text text-anchor="middle" x="74.5" y="-117" font-family="ui-monospace,monospace" font-size="10.00">jngl/sprite.hpp</text>
</a>
</g>
</g>
<!-- Node2&#45;&gt;Node5 -->
<g id="edge4" class="edge">
<title>Node2&#45;&gt;Node5</title>
<path fill="none" stroke="#63b8ff" d="M74.5,-154.66C74.5,-145.93 74.5,-135.99 74.5,-129.09"/>
<polygon fill="#63b8ff" stroke="#63b8ff" points="71,-154.75 74.5,-164.75 78,-154.75 71,-154.75"/>
</g>
<!-- Node4 -->
<g id="node4" class="node">
<title>Node4</title>
<g id="a_node4"><a xlink:href="jngl_8hpp.html" target="_top" xlink:title="Includes jngl/all.hpp.">
<polygon fill="white" stroke="#666666" points="175,-19 110,-19 110,0 175,0 175,-19"/>
<text text-anchor="middle" x="142.5" y="-7" font-family="ui-monospace,monospace" font-size="10.00">jngl.hpp</text>
</a>
</g>
</g>
<!-- Node3&#45;&gt;Node4 -->
<g id="edge3" class="edge">
<title>Node3&#45;&gt;Node4</title>
<path fill="none" stroke="#63b8ff" d="M142.5,-44.66C142.5,-35.93 142.5,-25.99 142.5,-19.09"/>
<polygon fill="#63b8ff" stroke="#63b8ff" points="139,-44.75 142.5,-54.75 146,-44.75 139,-44.75"/>
</g>
<!-- Node5&#45;&gt;Node3 -->
<g id="edge5" class="edge">
<title>Node5&#45;&gt;Node3</title>
<path fill="none" stroke="#63b8ff" d="M93.62,-103.6C105.8,-94.11 121.16,-82.13 131.38,-74.17"/>
<polygon fill="#63b8ff" stroke="#63b8ff" points="91.16,-101.08 85.43,-109.98 95.46,-106.6 91.16,-101.08"/>
</g>
<!-- Node6&#45;&gt;Node3 -->
<g id="edge7" class="edge">
<title>Node6&#45;&gt;Node3</title>
<path fill="none" stroke="#63b8ff" d="M192.46,-103.88C180.04,-94.34 164.26,-82.21 153.79,-74.17"/>
<polygon fill="#63b8ff" stroke="#63b8ff" points="190.35,-106.67 200.41,-109.98 194.62,-101.12 190.35,-106.67"/>
</g>
<!-- Node7&#45;&gt;Node3 -->
<g id="edge9" class="edge">
<title>Node7&#45;&gt;Node3</title>
<path fill="none" stroke="#63b8ff" d="M304.18,-154.77C302.22,-140.68 297.39,-121.85 285.5,-110 259.44,-84.03 218.5,-73.17 187.09,-68.66"/>
<polygon fill="#63b8ff" stroke="#63b8ff" points="300.71,-155.23 305.22,-164.82 307.68,-154.51 300.71,-155.23"/>
</g>
<!-- Node8 -->
<g id="node8" class="node">
<title>Node8</title>
<g id="a_node8"><a xlink:href="init_8hpp.html" target="_top" xlink:title="Include this file only once, as it defines the main function.">
<polygon fill="white" stroke="#666666" points="429,-129 334,-129 334,-110 429,-110 429,-129"/>
<text text-anchor="middle" x="381.5" y="-117" font-family="ui-monospace,monospace" font-size="10.00">jngl/init.hpp</text>
</a>
</g>
</g>
<!-- Node7&#45;&gt;Node8 -->
<g id="edge10" class="edge">
<title>Node7&#45;&gt;Node8</title>
<path fill="none" stroke="#63b8ff" d="M326.08,-159.15C339.81,-149.57 357.43,-137.29 369.07,-129.17"/>
<polygon fill="#63b8ff" stroke="#63b8ff" points="323.91,-156.39 317.71,-164.98 327.92,-162.14 323.91,-156.39"/>
</g>
</g>
</svg>
