<?xml version="1.0" encoding="UTF-8" standalone="no"?>
<!DOCTYPE svg PUBLIC "-//W3C//DTD SVG 1.1//EN"
 "http://www.w3.org/Graphics/SVG/1.1/DTD/svg11.dtd">
<!-- Generated by graphviz version 5.0.0 (0)
 -->
<!-- Title: jngl/Finally.hpp Pages: 1 -->
<svg width="416pt" height="192pt"
 viewBox="0.00 0.00 416.00 192.00" xmlns="http://www.w3.org/2000/svg" xmlns:xlink="http://www.w3.org/1999/xlink">
<g id="graph0" class="graph" transform="scale(1 1) rotate(0) translate(4 188)">
<title>jngl/Finally.hpp</title>
<!-- Node1 -->
<g id="node1" class="node">
<title>Node1</title>
<g id="a_node1"><a xlink:title="Contains jngl::Finally class.">
<polygon fill="#999999" stroke="#666666" points="264,-184 151,-184 151,-165 264,-165 264,-184"/>
<text text-anchor="middle" x="207.5" y="-172" font-family="ui-monospace,monospace" font-size="10.00">jngl/Finally.hpp</text>
</a>
</g>
</g>
<!-- Node2 -->
<g id="node2" class="node">
<title>Node2</title>
<g id="a_node2"><a xlink:href="FrameBuffer_8hpp.html" target="_top" xlink:title="Contains jngl::FrameBuffer class.">
<polygon fill="white" stroke="#666666" points="131,-74 0,-74 0,-55 131,-55 131,-74"/>
<text text-anchor="middle" x="65.5" y="-62" font-family="ui-monospace,monospace" font-size="10.00">jngl/FrameBuffer.hpp</text>
</a>
</g>
</g>
<!-- Node1&#45;&gt;Node2 -->
<g id="edge1" class="edge">
<title>Node1&#45;&gt;Node2</title>
<path fill="none" stroke="#63b8ff" d="M178.06,-160.66C161.52,-152.75 140.95,-141.69 124.5,-129 102.82,-112.27 82.14,-87.23 72,-74.16"/>
<polygon fill="#63b8ff" stroke="#63b8ff" points="176.73,-163.91 187.28,-164.95 179.69,-157.56 176.73,-163.91"/>
</g>
<!-- Node4 -->
<g id="node4" class="node">
<title>Node4</title>
<g id="a_node4"><a xlink:href="ShaderProgram_8hpp.html" target="_top" xlink:title="Contains jngl::ShaderProgram class.">
<polygon fill="white" stroke="#666666" points="282,-129 133,-129 133,-110 282,-110 282,-129"/>
<text text-anchor="middle" x="207.5" y="-117" font-family="ui-monospace,monospace" font-size="10.00">jngl/ShaderProgram.hpp</text>
</a>
</g>
</g>
<!-- Node1&#45;&gt;Node4 -->
<g id="edge3" class="edge">
<title>Node1&#45;&gt;Node4</title>
<path fill="none" stroke="#63b8ff" d="M207.5,-154.66C207.5,-145.93 207.5,-135.99 207.5,-129.09"/>
<polygon fill="#63b8ff" stroke="#63b8ff" points="204,-154.75 207.5,-164.75 211,-154.75 204,-154.75"/>
</g>
<!-- Node6 -->
<g id="node6" class="node">
<title>Node6</title>
<g id="a_node6"><a xlink:href="main_8hpp.html" target="_top" xlink:title="Defines macros for the main entry point.">
<polygon fill="white" stroke="#666666" points="401,-129 306,-129 306,-110 401,-110 401,-129"/>
<text text-anchor="middle" x="353.5" y="-117" font-family="ui-monospace,monospace" font-size="10.00">jngl/main.hpp</text>
</a>
</g>
</g>
<!-- Node1&#45;&gt;Node6 -->
<g id="edge7" class="edge">
<title>Node1&#45;&gt;Node6</title>
<path fill="none" stroke="#63b8ff" d="M240.42,-161.55C267.53,-151.71 305.33,-137.98 329.62,-129.17"/>
<polygon fill="#63b8ff" stroke="#63b8ff" points="239.16,-158.28 230.96,-164.98 241.55,-164.86 239.16,-158.28"/>
</g>
<!-- Node3 -->
<g id="node3" class="node">
<title>Node3</title>
<g id="a_node3"><a xlink:href="jngl_8hpp.html" target="_top" xlink:title="Includes all JNGL headers except for init.hpp.">
<polygon fill="white" stroke="#666666" points="192,-19 127,-19 127,0 192,0 192,-19"/>
<text text-anchor="middle" x="159.5" y="-7" font-family="ui-monospace,monospace" font-size="10.00">jngl.hpp</text>
</a>
</g>
</g>
<!-- Node2&#45;&gt;Node3 -->
<g id="edge2" class="edge">
<title>Node2&#45;&gt;Node3</title>
<path fill="none" stroke="#63b8ff" d="M89.5,-49.97C106.69,-40.28 129.31,-27.52 144.12,-19.17"/>
<polygon fill="#63b8ff" stroke="#63b8ff" points="87.59,-47.02 80.6,-54.98 91.03,-53.12 87.59,-47.02"/>
</g>
<!-- Node4&#45;&gt;Node3 -->
<g id="edge4" class="edge">
<title>Node4&#45;&gt;Node3</title>
<path fill="none" stroke="#63b8ff" d="M195.18,-101.24C189.85,-93.23 183.85,-83.41 179.5,-74 170.86,-55.33 164.57,-31.92 161.53,-19.39"/>
<polygon fill="#63b8ff" stroke="#63b8ff" points="192.44,-103.43 200.99,-109.68 198.21,-99.46 192.44,-103.43"/>
</g>
<!-- Node5 -->
<g id="node5" class="node">
<title>Node5</title>
<g id="a_node5"><a xlink:href="sprite_8hpp.html" target="_top" xlink:title="Contains jngl::Sprite class and related functions.">
<polygon fill="white" stroke="#666666" points="295,-74 188,-74 188,-55 295,-55 295,-74"/>
<text text-anchor="middle" x="241.5" y="-62" font-family="ui-monospace,monospace" font-size="10.00">jngl/sprite.hpp</text>
</a>
</g>
</g>
<!-- Node4&#45;&gt;Node5 -->
<g id="edge5" class="edge">
<title>Node4&#45;&gt;Node5</title>
<path fill="none" stroke="#63b8ff" d="M218.66,-101.1C224.47,-92.04 231.32,-81.37 235.99,-74.09"/>
<polygon fill="#63b8ff" stroke="#63b8ff" points="215.57,-99.44 213.11,-109.75 221.46,-103.22 215.57,-99.44"/>
</g>
<!-- Node5&#45;&gt;Node3 -->
<g id="edge6" class="edge">
<title>Node5&#45;&gt;Node3</title>
<path fill="none" stroke="#63b8ff" d="M219.72,-49.42C204.84,-39.81 185.59,-27.37 172.91,-19.17"/>
<polygon fill="#63b8ff" stroke="#63b8ff" points="218.03,-52.5 228.33,-54.98 221.83,-46.62 218.03,-52.5"/>
</g>
<!-- Node7 -->
<g id="node7" class="node">
<title>Node7</title>
<g id="a_node7"><a xlink:href="init_8hpp.html" target="_top" xlink:title="Include this file only once, as it defines the main function.">
<polygon fill="white" stroke="#666666" points="408,-74 313,-74 313,-55 408,-55 408,-74"/>
<text text-anchor="middle" x="360.5" y="-62" font-family="ui-monospace,monospace" font-size="10.00">jngl/init.hpp</text>
</a>
</g>
</g>
<!-- Node6&#45;&gt;Node7 -->
<g id="edge8" class="edge">
<title>Node6&#45;&gt;Node7</title>
<path fill="none" stroke="#63b8ff" d="M355.99,-99.66C357.14,-90.93 358.45,-80.99 359.37,-74.09"/>
<polygon fill="#63b8ff" stroke="#63b8ff" points="352.5,-99.38 354.66,-109.75 359.44,-100.29 352.5,-99.38"/>
</g>
</g>
</svg>
