<?xml version="1.0" encoding="UTF-8" standalone="no"?>
<!DOCTYPE svg PUBLIC "-//W3C//DTD SVG 1.1//EN"
 "http://www.w3.org/Graphics/SVG/1.1/DTD/svg11.dtd">
<!-- Generated by graphviz version 5.0.0 (0)
 -->
<!-- Title: jngl/Finally.hpp Pages: 1 -->
<svg width="455pt" height="247pt"
 viewBox="0.00 0.00 455.00 247.00" xmlns="http://www.w3.org/2000/svg" xmlns:xlink="http://www.w3.org/1999/xlink">
<g id="graph0" class="graph" transform="scale(1 1) rotate(0) translate(4 243)">
<title>jngl/Finally.hpp</title>
<!-- Node1 -->
<g id="node1" class="node">
<title>Node1</title>
<g id="a_node1"><a xlink:title="Contains jngl::Finally class.">
<polygon fill="#999999" stroke="#666666" points="236,-239 123,-239 123,-220 236,-220 236,-239"/>
<text text-anchor="middle" x="179.5" y="-227" font-family="ui-monospace,monospace" font-size="10.00">jngl/Finally.hpp</text>
</a>
</g>
</g>
<!-- Node2 -->
<g id="node2" class="node">
<title>Node2</title>
<g id="a_node2"><a xlink:href="FrameBuffer_8hpp.html" target="_top" xlink:title="Contains jngl::FrameBuffer class.">
<polygon fill="white" stroke="#666666" points="131,-129 0,-129 0,-110 131,-110 131,-129"/>
<text text-anchor="middle" x="65.5" y="-117" font-family="ui-monospace,monospace" font-size="10.00">jngl/FrameBuffer.hpp</text>
</a>
</g>
</g>
<!-- Node1&#45;&gt;Node2 -->
<g id="edge1" class="edge">
<title>Node1&#45;&gt;Node2</title>
<path fill="none" stroke="#63b8ff" d="M144.61,-216.05C128.07,-208.76 109.03,-198.17 95.5,-184 80.17,-167.95 71.48,-142.63 67.73,-129.33"/>
<polygon fill="#63b8ff" stroke="#63b8ff" points="143.42,-219.35 153.99,-219.97 146.11,-212.89 143.42,-219.35"/>
</g>
<!-- Node5 -->
<g id="node5" class="node">
<title>Node5</title>
<g id="a_node5"><a xlink:href="ShaderProgram_8hpp.html" target="_top" xlink:title="Contains jngl::ShaderProgram class.">
<polygon fill="white" stroke="#666666" points="254,-184 105,-184 105,-165 254,-165 254,-184"/>
<text text-anchor="middle" x="179.5" y="-172" font-family="ui-monospace,monospace" font-size="10.00">jngl/ShaderProgram.hpp</text>
</a>
</g>
</g>
<!-- Node1&#45;&gt;Node5 -->
<g id="edge4" class="edge">
<title>Node1&#45;&gt;Node5</title>
<path fill="none" stroke="#63b8ff" d="M179.5,-209.66C179.5,-200.93 179.5,-190.99 179.5,-184.09"/>
<polygon fill="#63b8ff" stroke="#63b8ff" points="176,-209.75 179.5,-219.75 183,-209.75 176,-209.75"/>
</g>
<!-- Node7 -->
<g id="node7" class="node">
<title>Node7</title>
<g id="a_node7"><a xlink:href="main_8hpp.html" target="_top" xlink:title="Defines macros for the main entry point.">
<polygon fill="white" stroke="#666666" points="371,-184 276,-184 276,-165 371,-165 371,-184"/>
<text text-anchor="middle" x="323.5" y="-172" font-family="ui-monospace,monospace" font-size="10.00">jngl/main.hpp</text>
</a>
</g>
</g>
<!-- Node1&#45;&gt;Node7 -->
<g id="edge8" class="edge">
<title>Node1&#45;&gt;Node7</title>
<path fill="none" stroke="#63b8ff" d="M212.32,-216.42C239.03,-206.59 276.1,-192.95 299.94,-184.17"/>
<polygon fill="#63b8ff" stroke="#63b8ff" points="210.81,-213.25 202.64,-219.98 213.23,-219.82 210.81,-213.25"/>
</g>
<!-- Node3 -->
<g id="node3" class="node">
<title>Node3</title>
<g id="a_node3"><a xlink:href="all_8hpp.html" target="_top" xlink:title="Includes all JNGL headers except for init.hpp.">
<polygon fill="white" stroke="#666666" points="245,-74 156,-74 156,-55 245,-55 245,-74"/>
<text text-anchor="middle" x="200.5" y="-62" font-family="ui-monospace,monospace" font-size="10.00">jngl/all.hpp</text>
</a>
</g>
</g>
<!-- Node2&#45;&gt;Node3 -->
<g id="edge2" class="edge">
<title>Node2&#45;&gt;Node3</title>
<path fill="none" stroke="#63b8ff" d="M96.6,-106.29C121.62,-96.47 156.16,-82.91 178.42,-74.17"/>
<polygon fill="#63b8ff" stroke="#63b8ff" points="95.22,-103.07 87.19,-109.98 97.78,-109.59 95.22,-103.07"/>
</g>
<!-- Node4 -->
<g id="node4" class="node">
<title>Node4</title>
<g id="a_node4"><a xlink:href="jngl_8hpp.html" target="_top" xlink:title="Includes jngl/all.hpp.">
<polygon fill="white" stroke="#666666" points="233,-19 168,-19 168,0 233,0 233,-19"/>
<text text-anchor="middle" x="200.5" y="-7" font-family="ui-monospace,monospace" font-size="10.00">jngl.hpp</text>
</a>
</g>
</g>
<!-- Node3&#45;&gt;Node4 -->
<g id="edge3" class="edge">
<title>Node3&#45;&gt;Node4</title>
<path fill="none" stroke="#63b8ff" d="M200.5,-44.66C200.5,-35.93 200.5,-25.99 200.5,-19.09"/>
<polygon fill="#63b8ff" stroke="#63b8ff" points="197,-44.75 200.5,-54.75 204,-44.75 197,-44.75"/>
</g>
<!-- Node5&#45;&gt;Node3 -->
<g id="edge5" class="edge">
<title>Node5&#45;&gt;Node3</title>
<path fill="none" stroke="#63b8ff" d="M176.81,-154.43C175.59,-141.68 175.08,-124.63 178.5,-110 181.6,-96.74 189.25,-82.9 194.66,-74.24"/>
<polygon fill="#63b8ff" stroke="#63b8ff" points="173.37,-155.21 178.03,-164.73 180.32,-154.39 173.37,-155.21"/>
</g>
<!-- Node6 -->
<g id="node6" class="node">
<title>Node6</title>
<g id="a_node6"><a xlink:href="sprite_8hpp.html" target="_top" xlink:title="Contains jngl::Sprite class and related functions.">
<polygon fill="white" stroke="#666666" points="295,-129 188,-129 188,-110 295,-110 295,-129"/>
<text text-anchor="middle" x="241.5" y="-117" font-family="ui-monospace,monospace" font-size="10.00">jngl/sprite.hpp</text>
</a>
</g>
</g>
<!-- Node5&#45;&gt;Node6 -->
<g id="edge6" class="edge">
<title>Node5&#45;&gt;Node6</title>
<path fill="none" stroke="#63b8ff" d="M197.25,-158.32C208.31,-148.87 222.13,-137.06 231.36,-129.17"/>
<polygon fill="#63b8ff" stroke="#63b8ff" points="194.79,-155.83 189.46,-164.98 199.34,-161.15 194.79,-155.83"/>
</g>
<!-- Node6&#45;&gt;Node3 -->
<g id="edge7" class="edge">
<title>Node6&#45;&gt;Node3</title>
<path fill="none" stroke="#63b8ff" d="M228.48,-101.67C221.38,-92.5 212.9,-81.52 207.14,-74.09"/>
<polygon fill="#63b8ff" stroke="#63b8ff" points="225.84,-103.98 234.73,-109.75 231.38,-99.7 225.84,-103.98"/>
</g>
<!-- Node7&#45;&gt;Node3 -->
<g id="edge9" class="edge">
<title>Node7&#45;&gt;Node3</title>
<path fill="none" stroke="#63b8ff" d="M321.68,-154.24C319.46,-140.44 314.51,-122.2 303.5,-110 286.93,-91.63 261.45,-80.54 239.98,-74.02"/>
<polygon fill="#63b8ff" stroke="#63b8ff" points="318.26,-155.08 322.99,-164.56 325.21,-154.21 318.26,-155.08"/>
</g>
<!-- Node8 -->
<g id="node8" class="node">
<title>Node8</title>
<g id="a_node8"><a xlink:href="init_8hpp.html" target="_top" xlink:title="Include this file only once, as it defines the main function.">
<polygon fill="white" stroke="#666666" points="447,-129 352,-129 352,-110 447,-110 447,-129"/>
<text text-anchor="middle" x="399.5" y="-117" font-family="ui-monospace,monospace" font-size="10.00">jngl/init.hpp</text>
</a>
</g>
</g>
<!-- Node7&#45;&gt;Node8 -->
<g id="edge10" class="edge">
<title>Node7&#45;&gt;Node8</title>
<path fill="none" stroke="#63b8ff" d="M344.08,-159.15C357.81,-149.57 375.43,-137.29 387.07,-129.17"/>
<polygon fill="#63b8ff" stroke="#63b8ff" points="341.91,-156.39 335.71,-164.98 345.92,-162.14 341.91,-156.39"/>
</g>
</g>
</svg>
