<?xml version="1.0" encoding="UTF-8" standalone="no"?>
<!DOCTYPE svg PUBLIC "-//W3C//DTD SVG 1.1//EN"
 "http://www.w3.org/Graphics/SVG/1.1/DTD/svg11.dtd">
<!-- Generated by graphviz version 9.0.0 (20230911.1827)
 -->
<!-- Title: jngl/Finally.hpp Pages: 1 -->
<svg width="640pt" height="193pt"
 viewBox="0.00 0.00 640.00 193.00" xmlns="http://www.w3.org/2000/svg" xmlns:xlink="http://www.w3.org/1999/xlink">
<g id="graph0" class="graph" transform="scale(1 1) rotate(0) translate(4 189)">
<title>jngl/Finally.hpp</title>
<!-- Node1 -->
<g id="Node000001" class="node">
<title>Node1</title>
<g id="a_Node000001"><a xlink:title="Contains jngl::Finally class.">
<polygon fill="#999999" stroke="#666666" points="355,-185 243,-185 243,-165.75 355,-165.75 355,-185"/>
<text text-anchor="middle" x="299" y="-171.5" font-family="ui-monospace,monospace" font-size="10.00">jngl/Finally.hpp</text>
</a>
</g>
</g>
<!-- Node2 -->
<g id="Node000002" class="node">
<title>Node2</title>
<g id="a_Node000002"><a xlink:href="Channel_8hpp.html" target="_top" xlink:title="Contains jngl::Channel class.">
<polygon fill="white" stroke="#666666" points="112,-74.5 0,-74.5 0,-55.25 112,-55.25 112,-74.5"/>
<text text-anchor="middle" x="56" y="-61" font-family="ui-monospace,monospace" font-size="10.00">jngl/Channel.hpp</text>
</a>
</g>
</g>
<!-- Node1&#45;&gt;Node2 -->
<g id="edge1_Node000001_Node000002" class="edge">
<title>Node1&#45;&gt;Node2</title>
<g id="a_edge1_Node000001_Node000002"><a xlink:title=" ">
<path fill="none" stroke="#63b8ff" d="M268.45,-160.73C218.13,-138.27 119.13,-94.06 76.41,-74.99"/>
<polygon fill="#63b8ff" stroke="#63b8ff" points="266.76,-163.81 277.32,-164.69 269.61,-157.42 266.76,-163.81"/>
</a>
</g>
</g>
<!-- Node4 -->
<g id="Node000004" class="node">
<title>Node4</title>
<g id="a_Node000004"><a xlink:href="Sprite_8hpp.html" target="_top" xlink:title="Contains jngl::Sprite class and related functions.">
<polygon fill="white" stroke="#666666" points="236,-74.5 130,-74.5 130,-55.25 236,-55.25 236,-74.5"/>
<text text-anchor="middle" x="183" y="-61" font-family="ui-monospace,monospace" font-size="10.00">jngl/Sprite.hpp</text>
</a>
</g>
</g>
<!-- Node1&#45;&gt;Node4 -->
<g id="edge3_Node000001_Node000004" class="edge">
<title>Node1&#45;&gt;Node4</title>
<g id="a_edge3_Node000001_Node000004"><a xlink:title=" ">
<path fill="none" stroke="#63b8ff" d="M276.52,-158.95C265.15,-150.77 251.39,-140.25 240,-129.75 220.33,-111.61 200.14,-87.4 189.89,-74.63"/>
<polygon fill="#63b8ff" stroke="#63b8ff" points="274.34,-161.7 284.53,-164.61 278.38,-155.98 274.34,-161.7"/>
</a>
</g>
</g>
<!-- Node5 -->
<g id="Node000005" class="node">
<title>Node5</title>
<g id="a_Node000005"><a xlink:href="input_8hpp.html" target="_top" xlink:title="Input related functions.">
<polygon fill="white" stroke="#666666" points="349,-129.75 249,-129.75 249,-110.5 349,-110.5 349,-129.75"/>
<text text-anchor="middle" x="299" y="-116.25" font-family="ui-monospace,monospace" font-size="10.00">jngl/input.hpp</text>
</a>
</g>
</g>
<!-- Node1&#45;&gt;Node5 -->
<g id="edge5_Node000001_Node000005" class="edge">
<title>Node1&#45;&gt;Node5</title>
<g id="a_edge5_Node000001_Node000005"><a xlink:title=" ">
<path fill="none" stroke="#63b8ff" d="M299,-154.13C299,-145.84 299,-136.67 299,-130.11"/>
<polygon fill="#63b8ff" stroke="#63b8ff" points="295.5,-154.07 299,-164.07 302.5,-154.07 295.5,-154.07"/>
</a>
</g>
</g>
<!-- Node7 -->
<g id="Node000007" class="node">
<title>Node7</title>
<g id="a_Node000007"><a xlink:href="main_8hpp.html" target="_top" xlink:title="Defines macros for the main entry point.">
<polygon fill="white" stroke="#666666" points="497,-129.75 403,-129.75 403,-110.5 497,-110.5 497,-129.75"/>
<text text-anchor="middle" x="450" y="-116.25" font-family="ui-monospace,monospace" font-size="10.00">jngl/main.hpp</text>
</a>
</g>
</g>
<!-- Node1&#45;&gt;Node7 -->
<g id="edge9_Node000001_Node000007" class="edge">
<title>Node1&#45;&gt;Node7</title>
<g id="a_edge9_Node000001_Node000007"><a xlink:title=" ">
<path fill="none" stroke="#63b8ff" d="M335.36,-161.55C362.81,-151.87 399.81,-138.82 424.26,-130.2"/>
<polygon fill="#63b8ff" stroke="#63b8ff" points="334.31,-158.21 326.04,-164.84 336.64,-164.81 334.31,-158.21"/>
</a>
</g>
</g>
<!-- Node9 -->
<g id="Node000009" class="node">
<title>Node9</title>
<g id="a_Node000009"><a xlink:href="sound_8hpp.html" target="_top" xlink:title="Sound related functions.">
<polygon fill="white" stroke="#666666" points="632,-129.75 532,-129.75 532,-110.5 632,-110.5 632,-129.75"/>
<text text-anchor="middle" x="582" y="-116.25" font-family="ui-monospace,monospace" font-size="10.00">jngl/sound.hpp</text>
</a>
</g>
</g>
<!-- Node1&#45;&gt;Node9 -->
<g id="edge12_Node000001_Node000009" class="edge">
<title>Node1&#45;&gt;Node9</title>
<g id="a_edge12_Node000001_Node000009"><a xlink:title=" ">
<path fill="none" stroke="#63b8ff" d="M358.42,-163.19C410.55,-153.39 485.41,-139.3 533.87,-130.18"/>
<polygon fill="#63b8ff" stroke="#63b8ff" points="358,-159.71 348.82,-165 359.29,-166.59 358,-159.71"/>
</a>
</g>
</g>
<!-- Node3 -->
<g id="Node000003" class="node">
<title>Node3</title>
<g id="a_Node000003"><a xlink:href="jngl_8hpp.html" target="_top" xlink:title="Includes all JNGL headers except for init.hpp.">
<polygon fill="white" stroke="#666666" points="342,-19.25 278,-19.25 278,0 342,0 342,-19.25"/>
<text text-anchor="middle" x="310" y="-5.75" font-family="ui-monospace,monospace" font-size="10.00">jngl.hpp</text>
</a>
</g>
</g>
<!-- Node2&#45;&gt;Node3 -->
<g id="edge2_Node000002_Node000003" class="edge">
<title>Node2&#45;&gt;Node3</title>
<g id="a_edge2_Node000002_Node000003"><a xlink:title=" ">
<path fill="none" stroke="#63b8ff" d="M110.49,-52.45C161.37,-41.78 235.59,-26.23 277.69,-17.4"/>
<polygon fill="#63b8ff" stroke="#63b8ff" points="109.93,-48.99 100.86,-54.47 111.36,-55.84 109.93,-48.99"/>
</a>
</g>
</g>
<!-- Node4&#45;&gt;Node3 -->
<g id="edge4_Node000004_Node000003" class="edge">
<title>Node4&#45;&gt;Node3</title>
<g id="a_edge4_Node000004_Node000003"><a xlink:title=" ">
<path fill="none" stroke="#63b8ff" d="M215.13,-50.4C238.05,-40.79 268.25,-28.13 288.35,-19.7"/>
<polygon fill="#63b8ff" stroke="#63b8ff" points="213.81,-47.16 205.94,-54.26 216.52,-53.62 213.81,-47.16"/>
</a>
</g>
</g>
<!-- Node5&#45;&gt;Node3 -->
<g id="edge6_Node000005_Node000003" class="edge">
<title>Node5&#45;&gt;Node3</title>
<g id="a_edge6_Node000005_Node000003"><a xlink:title=" ">
<path fill="none" stroke="#63b8ff" d="M289.03,-100.13C283.62,-87.39 278.81,-70.26 283,-55.25 286.8,-41.64 295.99,-28.05 302.6,-19.5"/>
<polygon fill="#63b8ff" stroke="#63b8ff" points="285.81,-101.52 293.28,-109.04 292.13,-98.51 285.81,-101.52"/>
</a>
</g>
</g>
<!-- Node6 -->
<g id="Node000006" class="node">
<title>Node6</title>
<g id="a_Node000006"><a xlink:href="Controller_8hpp.html" target="_top" xlink:title="Contains jngl::Controller class.">
<polygon fill="white" stroke="#666666" points="422,-74.5 292,-74.5 292,-55.25 422,-55.25 422,-74.5"/>
<text text-anchor="middle" x="357" y="-61" font-family="ui-monospace,monospace" font-size="10.00">jngl/Controller.hpp</text>
</a>
</g>
</g>
<!-- Node5&#45;&gt;Node6 -->
<g id="edge7_Node000005_Node000006" class="edge">
<title>Node5&#45;&gt;Node6</title>
<g id="a_edge7_Node000005_Node000006"><a xlink:title=" ">
<path fill="none" stroke="#63b8ff" d="M317.26,-102.36C327.22,-93.22 339.14,-82.28 347.31,-74.77"/>
<polygon fill="#63b8ff" stroke="#63b8ff" points="314.95,-99.73 309.95,-109.07 319.69,-104.88 314.95,-99.73"/>
</a>
</g>
</g>
<!-- Node6&#45;&gt;Node3 -->
<g id="edge8_Node000006_Node000003" class="edge">
<title>Node6&#45;&gt;Node3</title>
<g id="a_edge8_Node000006_Node000003"><a xlink:title=" ">
<path fill="none" stroke="#63b8ff" d="M341.67,-46.51C333.75,-37.53 324.4,-26.95 317.93,-19.61"/>
<polygon fill="#63b8ff" stroke="#63b8ff" points="339,-48.77 348.24,-53.95 344.24,-44.13 339,-48.77"/>
</a>
</g>
</g>
<!-- Node7&#45;&gt;Node3 -->
<g id="edge10_Node000007_Node000003" class="edge">
<title>Node7&#45;&gt;Node3</title>
<g id="a_edge10_Node000007_Node000003"><a xlink:title=" ">
<path fill="none" stroke="#63b8ff" d="M448.63,-98.75C446.68,-84.89 442.03,-67.01 431,-55.25 407.8,-30.51 369.68,-19.42 342.43,-14.49"/>
<polygon fill="#63b8ff" stroke="#63b8ff" points="445.13,-98.94 449.61,-108.54 452.1,-98.24 445.13,-98.94"/>
</a>
</g>
</g>
<!-- Node8 -->
<g id="Node000008" class="node">
<title>Node8</title>
<g id="a_Node000008"><a xlink:href="init_8hpp.html" target="_top" xlink:title="Include this file only once, as it defines the main function.">
<polygon fill="white" stroke="#666666" points="572,-74.5 478,-74.5 478,-55.25 572,-55.25 572,-74.5"/>
<text text-anchor="middle" x="525" y="-61" font-family="ui-monospace,monospace" font-size="10.00">jngl/init.hpp</text>
</a>
</g>
</g>
<!-- Node7&#45;&gt;Node8 -->
<g id="edge11_Node000007_Node000008" class="edge">
<title>Node7&#45;&gt;Node8</title>
<g id="a_edge11_Node000007_Node000008"><a xlink:title=" ">
<path fill="none" stroke="#63b8ff" d="M471.99,-103.51C485.07,-94.22 501.21,-82.77 512.21,-74.95"/>
<polygon fill="#63b8ff" stroke="#63b8ff" points="470.08,-100.57 463.96,-109.22 474.14,-106.28 470.08,-100.57"/>
</a>
</g>
</g>
<!-- Node9&#45;&gt;Node3 -->
<g id="edge13_Node000009_Node000003" class="edge">
<title>Node9&#45;&gt;Node3</title>
<g id="a_edge13_Node000009_Node000003"><a xlink:title=" ">
<path fill="none" stroke="#63b8ff" d="M587.77,-99.14C590.48,-85.21 591.2,-67.07 581,-55.25 550.41,-19.77 407.11,-12.47 342.16,-10.99"/>
<polygon fill="#63b8ff" stroke="#63b8ff" points="584.44,-98.02 585.46,-108.56 591.24,-99.68 584.44,-98.02"/>
</a>
</g>
</g>
</g>
</svg>
