<?xml version="1.0" encoding="UTF-8" standalone="no"?>
<!DOCTYPE svg PUBLIC "-//W3C//DTD SVG 1.1//EN"
 "http://www.w3.org/Graphics/SVG/1.1/DTD/svg11.dtd">
<!-- Generated by graphviz version 2.43.0 (0)
 -->
<!-- Title: jngl/Finally.hpp Pages: 1 -->
<svg width="461pt" height="252pt"
 viewBox="0.00 0.00 461.00 252.00" xmlns="http://www.w3.org/2000/svg" xmlns:xlink="http://www.w3.org/1999/xlink">
<g id="graph0" class="graph" transform="scale(1 1) rotate(0) translate(4 248)">
<title>jngl/Finally.hpp</title>
<polygon fill="white" stroke="transparent" points="-4,4 -4,-248 457,-248 457,4 -4,4"/>
<!-- Node1 -->
<g id="node1" class="node">
<title>Node1</title>
<g id="a_node1"><a xlink:title="Contains jngl::Finally class.">
<polygon fill="#bfbfbf" stroke="black" points="115,-224.5 115,-243.5 228,-243.5 228,-224.5 115,-224.5"/>
<text text-anchor="middle" x="171.5" y="-231.5" font-family="'Consolas',monospace" font-size="10.00">jngl/Finally.hpp</text>
</a>
</g>
</g>
<!-- Node2 -->
<g id="node2" class="node">
<title>Node2</title>
<g id="a_node2"><a xlink:href="framebuffer_8hpp.html" target="_top" xlink:title="Contains jngl::FrameBuffer class.">
<polygon fill="white" stroke="black" points="0,-112.5 0,-131.5 137,-131.5 137,-112.5 0,-112.5"/>
<text text-anchor="middle" x="68.5" y="-119.5" font-family="'Consolas',monospace" font-size="10.00">jngl/framebuffer.hpp</text>
</a>
</g>
</g>
<!-- Node1&#45;&gt;Node2 -->
<g id="edge1" class="edge">
<title>Node1&#45;&gt;Node2</title>
<path fill="none" stroke="midnightblue" d="M150,-218.31C138.77,-210.09 125.18,-199.26 114.5,-188 97.18,-169.75 81.24,-144.6 73.47,-131.58"/>
<polygon fill="midnightblue" stroke="midnightblue" points="148.22,-221.34 158.4,-224.3 152.29,-215.64 148.22,-221.34"/>
</g>
<!-- Node5 -->
<g id="node5" class="node">
<title>Node5</title>
<g id="a_node5"><a xlink:href="main_8hpp.html" target="_top" xlink:title="Defines macros for the main entry point.">
<polygon fill="white" stroke="black" points="124,-168.5 124,-187.5 219,-187.5 219,-168.5 124,-168.5"/>
<text text-anchor="middle" x="171.5" y="-175.5" font-family="'Consolas',monospace" font-size="10.00">jngl/main.hpp</text>
</a>
</g>
</g>
<!-- Node1&#45;&gt;Node5 -->
<g id="edge4" class="edge">
<title>Node1&#45;&gt;Node5</title>
<path fill="none" stroke="midnightblue" d="M171.5,-213.8C171.5,-204.91 171.5,-194.78 171.5,-187.75"/>
<polygon fill="midnightblue" stroke="midnightblue" points="168,-214.08 171.5,-224.08 175,-214.08 168,-214.08"/>
</g>
<!-- Node7 -->
<g id="node7" class="node">
<title>Node7</title>
<g id="a_node7"><a xlink:href="ShaderProgram_8hpp.html" target="_top" xlink:title="Contains jngl::ShaderProgram class.">
<polygon fill="white" stroke="black" points="243,-168.5 243,-187.5 392,-187.5 392,-168.5 243,-168.5"/>
<text text-anchor="middle" x="317.5" y="-175.5" font-family="'Consolas',monospace" font-size="10.00">jngl/ShaderProgram.hpp</text>
</a>
</g>
</g>
<!-- Node1&#45;&gt;Node7 -->
<g id="edge7" class="edge">
<title>Node1&#45;&gt;Node7</title>
<path fill="none" stroke="midnightblue" d="M204.2,-220.91C231.65,-210.75 270.17,-196.51 294.47,-187.52"/>
<polygon fill="midnightblue" stroke="midnightblue" points="202.8,-217.69 194.63,-224.44 205.23,-224.26 202.8,-217.69"/>
</g>
<!-- Node3 -->
<g id="node3" class="node">
<title>Node3</title>
<g id="a_node3"><a xlink:href="all_8hpp.html" target="_top" xlink:title="Includes all JNGL headers except for init.hpp.">
<polygon fill="white" stroke="black" points="197,-56.5 197,-75.5 286,-75.5 286,-56.5 197,-56.5"/>
<text text-anchor="middle" x="241.5" y="-63.5" font-family="'Consolas',monospace" font-size="10.00">jngl/all.hpp</text>
</a>
</g>
</g>
<!-- Node2&#45;&gt;Node3 -->
<g id="edge2" class="edge">
<title>Node2&#45;&gt;Node3</title>
<path fill="none" stroke="midnightblue" d="M105.55,-109.44C138.16,-99.26 184.91,-84.66 214.22,-75.52"/>
<polygon fill="midnightblue" stroke="midnightblue" points="104.42,-106.12 95.91,-112.44 106.5,-112.8 104.42,-106.12"/>
</g>
<!-- Node4 -->
<g id="node4" class="node">
<title>Node4</title>
<g id="a_node4"><a xlink:href="jngl_8hpp.html" target="_top" xlink:title="Includes jngl/all.hpp.">
<polygon fill="white" stroke="black" points="209,-0.5 209,-19.5 274,-19.5 274,-0.5 209,-0.5"/>
<text text-anchor="middle" x="241.5" y="-7.5" font-family="'Consolas',monospace" font-size="10.00">jngl.hpp</text>
</a>
</g>
</g>
<!-- Node3&#45;&gt;Node4 -->
<g id="edge3" class="edge">
<title>Node3&#45;&gt;Node4</title>
<path fill="none" stroke="midnightblue" d="M241.5,-45.8C241.5,-36.91 241.5,-26.78 241.5,-19.75"/>
<polygon fill="midnightblue" stroke="midnightblue" points="238,-46.08 241.5,-56.08 245,-46.08 238,-46.08"/>
</g>
<!-- Node5&#45;&gt;Node3 -->
<g id="edge5" class="edge">
<title>Node5&#45;&gt;Node3</title>
<path fill="none" stroke="midnightblue" d="M171.85,-158.15C172.89,-144.46 175.95,-125.95 184.5,-112 194.32,-95.98 212.02,-83.37 225.1,-75.62"/>
<polygon fill="midnightblue" stroke="midnightblue" points="168.35,-158.17 171.39,-168.32 175.34,-158.49 168.35,-158.17"/>
</g>
<!-- Node6 -->
<g id="node6" class="node">
<title>Node6</title>
<g id="a_node6"><a xlink:href="init_8hpp.html" target="_top" xlink:title="Include this file only once, as it defines the main function.">
<polygon fill="white" stroke="black" points="194,-112.5 194,-131.5 289,-131.5 289,-112.5 194,-112.5"/>
<text text-anchor="middle" x="241.5" y="-119.5" font-family="'Consolas',monospace" font-size="10.00">jngl/init.hpp</text>
</a>
</g>
</g>
<!-- Node5&#45;&gt;Node6 -->
<g id="edge6" class="edge">
<title>Node5&#45;&gt;Node6</title>
<path fill="none" stroke="midnightblue" d="M190.81,-162.1C203.41,-152.38 219.43,-140.03 230.05,-131.83"/>
<polygon fill="midnightblue" stroke="midnightblue" points="188.53,-159.44 182.75,-168.32 192.8,-164.99 188.53,-159.44"/>
</g>
<!-- Node7&#45;&gt;Node3 -->
<g id="edge8" class="edge">
<title>Node7&#45;&gt;Node3</title>
<path fill="none" stroke="midnightblue" d="M314.75,-158.12C312.05,-144.4 306.93,-125.89 297.5,-112 286.93,-96.42 269.34,-83.56 256.7,-75.64"/>
<polygon fill="midnightblue" stroke="midnightblue" points="311.35,-159.03 316.48,-168.3 318.25,-157.86 311.35,-159.03"/>
</g>
<!-- Node8 -->
<g id="node8" class="node">
<title>Node8</title>
<g id="a_node8"><a xlink:href="sprite_8hpp.html" target="_top" xlink:title="Contains jngl::Sprite class and related functions.">
<polygon fill="white" stroke="black" points="346,-112.5 346,-131.5 453,-131.5 453,-112.5 346,-112.5"/>
<text text-anchor="middle" x="399.5" y="-119.5" font-family="'Consolas',monospace" font-size="10.00">jngl/sprite.hpp</text>
</a>
</g>
</g>
<!-- Node7&#45;&gt;Node8 -->
<g id="edge9" class="edge">
<title>Node7&#45;&gt;Node8</title>
<path fill="none" stroke="midnightblue" d="M339.33,-162.62C354.31,-152.76 373.7,-139.99 386.36,-131.65"/>
<polygon fill="midnightblue" stroke="midnightblue" points="337.1,-159.9 330.67,-168.32 340.95,-165.75 337.1,-159.9"/>
</g>
<!-- Node8&#45;&gt;Node3 -->
<g id="edge10" class="edge">
<title>Node8&#45;&gt;Node3</title>
<path fill="none" stroke="midnightblue" d="M364.89,-109.17C335.14,-99 292.95,-84.59 266.42,-75.52"/>
<polygon fill="midnightblue" stroke="midnightblue" points="363.87,-112.52 374.46,-112.44 366.13,-105.9 363.87,-112.52"/>
</g>
</g>
</svg>
