<?xml version="1.0" encoding="UTF-8" standalone="no"?>
<!DOCTYPE svg PUBLIC "-//W3C//DTD SVG 1.1//EN"
 "http://www.w3.org/Graphics/SVG/1.1/DTD/svg11.dtd">
<!-- Generated by graphviz version 2.44.0 (0)
 -->
<!-- Title: jngl/Finally.hpp Pages: 1 -->
<svg width="455pt" height="252pt"
 viewBox="0.00 0.00 455.00 252.00" xmlns="http://www.w3.org/2000/svg" xmlns:xlink="http://www.w3.org/1999/xlink">
<g id="graph0" class="graph" transform="scale(1 1) rotate(0) translate(4 248)">
<title>jngl/Finally.hpp</title>
<polygon fill="white" stroke="transparent" points="-4,4 -4,-248 451,-248 451,4 -4,4"/>
<!-- Node1 -->
<g id="node1" class="node">
<title>Node1</title>
<g id="a_node1"><a xlink:title=" ">
<polygon fill="#bfbfbf" stroke="black" points="109,-224.5 109,-243.5 222,-243.5 222,-224.5 109,-224.5"/>
<text text-anchor="middle" x="165.5" y="-231.5" font-family="'Consolas',monospace" font-size="10.00">jngl/Finally.hpp</text>
</a>
</g>
</g>
<!-- Node2 -->
<g id="node2" class="node">
<title>Node2</title>
<g id="a_node2"><a xlink:href="framebuffer_8hpp.html" target="_top" xlink:title="Contains jngl::FrameBuffer class.">
<polygon fill="white" stroke="black" points="0,-112.5 0,-131.5 131,-131.5 131,-112.5 0,-112.5"/>
<text text-anchor="middle" x="65.5" y="-119.5" font-family="'Consolas',monospace" font-size="10.00">jngl/framebuffer.hpp</text>
</a>
</g>
</g>
<!-- Node1&#45;&gt;Node2 -->
<g id="edge1" class="edge">
<title>Node1&#45;&gt;Node2</title>
<path fill="none" stroke="midnightblue" d="M143.86,-218.44C132.59,-210.27 119,-199.42 108.5,-188 91.83,-169.87 77.13,-144.67 70.02,-131.61"/>
<polygon fill="midnightblue" stroke="midnightblue" points="142.11,-221.49 152.3,-224.39 146.14,-215.77 142.11,-221.49"/>
</g>
<!-- Node5 -->
<g id="node5" class="node">
<title>Node5</title>
<g id="a_node5"><a xlink:href="main_8hpp.html" target="_top" xlink:title="Defines macros for the main entry point.">
<polygon fill="white" stroke="black" points="118,-168.5 118,-187.5 213,-187.5 213,-168.5 118,-168.5"/>
<text text-anchor="middle" x="165.5" y="-175.5" font-family="'Consolas',monospace" font-size="10.00">jngl/main.hpp</text>
</a>
</g>
</g>
<!-- Node1&#45;&gt;Node5 -->
<g id="edge4" class="edge">
<title>Node1&#45;&gt;Node5</title>
<path fill="none" stroke="midnightblue" d="M165.5,-213.8C165.5,-204.91 165.5,-194.78 165.5,-187.75"/>
<polygon fill="midnightblue" stroke="midnightblue" points="162,-214.08 165.5,-224.08 169,-214.08 162,-214.08"/>
</g>
<!-- Node7 -->
<g id="node7" class="node">
<title>Node7</title>
<g id="a_node7"><a xlink:href="ShaderProgram_8hpp.html" target="_top" xlink:title="Contains jngl::ShaderProgram class.">
<polygon fill="white" stroke="black" points="237,-168.5 237,-187.5 386,-187.5 386,-168.5 237,-168.5"/>
<text text-anchor="middle" x="311.5" y="-175.5" font-family="'Consolas',monospace" font-size="10.00">jngl/ShaderProgram.hpp</text>
</a>
</g>
</g>
<!-- Node1&#45;&gt;Node7 -->
<g id="edge7" class="edge">
<title>Node1&#45;&gt;Node7</title>
<path fill="none" stroke="midnightblue" d="M198.2,-220.91C225.65,-210.75 264.17,-196.51 288.47,-187.52"/>
<polygon fill="midnightblue" stroke="midnightblue" points="196.8,-217.69 188.63,-224.44 199.23,-224.26 196.8,-217.69"/>
</g>
<!-- Node3 -->
<g id="node3" class="node">
<title>Node3</title>
<g id="a_node3"><a xlink:href="all_8hpp.html" target="_top" xlink:title="Includes all JNGL headers except for init.hpp.">
<polygon fill="white" stroke="black" points="191,-56.5 191,-75.5 280,-75.5 280,-56.5 191,-56.5"/>
<text text-anchor="middle" x="235.5" y="-63.5" font-family="'Consolas',monospace" font-size="10.00">jngl/all.hpp</text>
</a>
</g>
</g>
<!-- Node2&#45;&gt;Node3 -->
<g id="edge2" class="edge">
<title>Node2&#45;&gt;Node3</title>
<path fill="none" stroke="midnightblue" d="M102.32,-109.3C134.35,-99.13 180.02,-84.62 208.69,-75.52"/>
<polygon fill="midnightblue" stroke="midnightblue" points="100.91,-106.08 92.44,-112.44 103.03,-112.75 100.91,-106.08"/>
</g>
<!-- Node4 -->
<g id="node4" class="node">
<title>Node4</title>
<g id="a_node4"><a xlink:href="jngl_8hpp.html" target="_top" xlink:title="Includes jngl/all.hpp.">
<polygon fill="white" stroke="black" points="203,-0.5 203,-19.5 268,-19.5 268,-0.5 203,-0.5"/>
<text text-anchor="middle" x="235.5" y="-7.5" font-family="'Consolas',monospace" font-size="10.00">jngl.hpp</text>
</a>
</g>
</g>
<!-- Node3&#45;&gt;Node4 -->
<g id="edge3" class="edge">
<title>Node3&#45;&gt;Node4</title>
<path fill="none" stroke="midnightblue" d="M235.5,-45.8C235.5,-36.91 235.5,-26.78 235.5,-19.75"/>
<polygon fill="midnightblue" stroke="midnightblue" points="232,-46.08 235.5,-56.08 239,-46.08 232,-46.08"/>
</g>
<!-- Node5&#45;&gt;Node3 -->
<g id="edge5" class="edge">
<title>Node5&#45;&gt;Node3</title>
<path fill="none" stroke="midnightblue" d="M165.85,-158.15C166.89,-144.46 169.95,-125.95 178.5,-112 188.32,-95.98 206.02,-83.37 219.1,-75.62"/>
<polygon fill="midnightblue" stroke="midnightblue" points="162.35,-158.17 165.39,-168.32 169.34,-158.49 162.35,-158.17"/>
</g>
<!-- Node6 -->
<g id="node6" class="node">
<title>Node6</title>
<g id="a_node6"><a xlink:href="init_8hpp.html" target="_top" xlink:title="Include this file only once, as it defines the main function.">
<polygon fill="white" stroke="black" points="188,-112.5 188,-131.5 283,-131.5 283,-112.5 188,-112.5"/>
<text text-anchor="middle" x="235.5" y="-119.5" font-family="'Consolas',monospace" font-size="10.00">jngl/init.hpp</text>
</a>
</g>
</g>
<!-- Node5&#45;&gt;Node6 -->
<g id="edge6" class="edge">
<title>Node5&#45;&gt;Node6</title>
<path fill="none" stroke="midnightblue" d="M184.81,-162.1C197.41,-152.38 213.43,-140.03 224.05,-131.83"/>
<polygon fill="midnightblue" stroke="midnightblue" points="182.53,-159.44 176.75,-168.32 186.8,-164.99 182.53,-159.44"/>
</g>
<!-- Node7&#45;&gt;Node3 -->
<g id="edge8" class="edge">
<title>Node7&#45;&gt;Node3</title>
<path fill="none" stroke="midnightblue" d="M308.75,-158.12C306.05,-144.4 300.93,-125.89 291.5,-112 280.93,-96.42 263.34,-83.56 250.7,-75.64"/>
<polygon fill="midnightblue" stroke="midnightblue" points="305.35,-159.03 310.48,-168.3 312.25,-157.86 305.35,-159.03"/>
</g>
<!-- Node8 -->
<g id="node8" class="node">
<title>Node8</title>
<g id="a_node8"><a xlink:href="sprite_8hpp.html" target="_top" xlink:title="Contains jngl::Sprite class and related functions.">
<polygon fill="white" stroke="black" points="340,-112.5 340,-131.5 447,-131.5 447,-112.5 340,-112.5"/>
<text text-anchor="middle" x="393.5" y="-119.5" font-family="'Consolas',monospace" font-size="10.00">jngl/sprite.hpp</text>
</a>
</g>
</g>
<!-- Node7&#45;&gt;Node8 -->
<g id="edge9" class="edge">
<title>Node7&#45;&gt;Node8</title>
<path fill="none" stroke="midnightblue" d="M333.33,-162.62C348.31,-152.76 367.7,-139.99 380.36,-131.65"/>
<polygon fill="midnightblue" stroke="midnightblue" points="331.1,-159.9 324.67,-168.32 334.95,-165.75 331.1,-159.9"/>
</g>
<!-- Node8&#45;&gt;Node3 -->
<g id="edge10" class="edge">
<title>Node8&#45;&gt;Node3</title>
<path fill="none" stroke="midnightblue" d="M358.89,-109.17C329.14,-99 286.95,-84.59 260.42,-75.52"/>
<polygon fill="midnightblue" stroke="midnightblue" points="357.87,-112.52 368.46,-112.44 360.13,-105.9 357.87,-112.52"/>
</g>
</g>
</svg>
