<?xml version="1.0" encoding="UTF-8" standalone="no"?>
<!DOCTYPE svg PUBLIC "-//W3C//DTD SVG 1.1//EN"
 "http://www.w3.org/Graphics/SVG/1.1/DTD/svg11.dtd">
<!-- Generated by graphviz version 5.0.0 (0)
 -->
<!-- Title: jngl/Finally.hpp Pages: 1 -->
<svg width="647pt" height="192pt"
 viewBox="0.00 0.00 647.00 192.00" xmlns="http://www.w3.org/2000/svg" xmlns:xlink="http://www.w3.org/1999/xlink">
<g id="graph0" class="graph" transform="scale(1 1) rotate(0) translate(4 188)">
<title>jngl/Finally.hpp</title>
<!-- Node1 -->
<g id="node1" class="node">
<title>Node1</title>
<g id="a_node1"><a xlink:title="Contains jngl::Finally class.">
<polygon fill="#999999" stroke="#666666" points="364,-184 251,-184 251,-165 364,-165 364,-184"/>
<text text-anchor="middle" x="307.5" y="-172" font-family="ui-monospace,monospace" font-size="10.00">jngl/Finally.hpp</text>
</a>
</g>
</g>
<!-- Node2 -->
<g id="node2" class="node">
<title>Node2</title>
<g id="a_node2"><a xlink:href="Channel_8hpp.html" target="_top" xlink:title="Contains jngl::Channel class.">
<polygon fill="white" stroke="#666666" points="113,-74 0,-74 0,-55 113,-55 113,-74"/>
<text text-anchor="middle" x="56.5" y="-62" font-family="ui-monospace,monospace" font-size="10.00">jngl/Channel.hpp</text>
</a>
</g>
</g>
<!-- Node1&#45;&gt;Node2 -->
<g id="edge1" class="edge">
<title>Node1&#45;&gt;Node2</title>
<path fill="none" stroke="#63b8ff" d="M278.09,-160.84C226.35,-138.58 120.39,-92.99 76.36,-74.05"/>
<polygon fill="#63b8ff" stroke="#63b8ff" points="276.81,-164.11 287.38,-164.84 279.58,-157.68 276.81,-164.11"/>
</g>
<!-- Node4 -->
<g id="node4" class="node">
<title>Node4</title>
<g id="a_node4"><a xlink:href="FrameBuffer_8hpp.html" target="_top" xlink:title="Contains jngl::FrameBuffer class.">
<polygon fill="white" stroke="#666666" points="262,-74 131,-74 131,-55 262,-55 262,-74"/>
<text text-anchor="middle" x="196.5" y="-62" font-family="ui-monospace,monospace" font-size="10.00">jngl/FrameBuffer.hpp</text>
</a>
</g>
</g>
<!-- Node1&#45;&gt;Node4 -->
<g id="edge3" class="edge">
<title>Node1&#45;&gt;Node4</title>
<path fill="none" stroke="#63b8ff" d="M272.52,-160.96C256.22,-153.69 237.59,-143.14 224.5,-129 209.6,-112.91 201.73,-87.6 198.43,-74.32"/>
<polygon fill="#63b8ff" stroke="#63b8ff" points="271.21,-164.21 281.78,-164.87 273.93,-157.76 271.21,-164.21"/>
</g>
<!-- Node5 -->
<g id="node5" class="node">
<title>Node5</title>
<g id="a_node5"><a xlink:href="ShaderProgram_8hpp.html" target="_top" xlink:title="Contains jngl::ShaderProgram class.">
<polygon fill="white" stroke="#666666" points="382,-129 233,-129 233,-110 382,-110 382,-129"/>
<text text-anchor="middle" x="307.5" y="-117" font-family="ui-monospace,monospace" font-size="10.00">jngl/ShaderProgram.hpp</text>
</a>
</g>
</g>
<!-- Node1&#45;&gt;Node5 -->
<g id="edge5" class="edge">
<title>Node1&#45;&gt;Node5</title>
<path fill="none" stroke="#63b8ff" d="M307.5,-154.66C307.5,-145.93 307.5,-135.99 307.5,-129.09"/>
<polygon fill="#63b8ff" stroke="#63b8ff" points="304,-154.75 307.5,-164.75 311,-154.75 304,-154.75"/>
</g>
<!-- Node7 -->
<g id="node7" class="node">
<title>Node7</title>
<g id="a_node7"><a xlink:href="main_8hpp.html" target="_top" xlink:title="Defines macros for the main entry point.">
<polygon fill="white" stroke="#666666" points="502,-129 407,-129 407,-110 502,-110 502,-129"/>
<text text-anchor="middle" x="454.5" y="-117" font-family="ui-monospace,monospace" font-size="10.00">jngl/main.hpp</text>
</a>
</g>
</g>
<!-- Node1&#45;&gt;Node7 -->
<g id="edge9" class="edge">
<title>Node1&#45;&gt;Node7</title>
<path fill="none" stroke="#63b8ff" d="M340.64,-161.55C367.94,-151.71 406,-137.98 430.45,-129.17"/>
<polygon fill="#63b8ff" stroke="#63b8ff" points="339.34,-158.3 331.12,-164.98 341.71,-164.89 339.34,-158.3"/>
</g>
<!-- Node9 -->
<g id="node9" class="node">
<title>Node9</title>
<g id="a_node9"><a xlink:href="sound_8hpp.html" target="_top" xlink:title="Sound related functions.">
<polygon fill="white" stroke="#666666" points="639,-129 538,-129 538,-110 639,-110 639,-129"/>
<text text-anchor="middle" x="588.5" y="-117" font-family="ui-monospace,monospace" font-size="10.00">jngl/sound.hpp</text>
</a>
</g>
</g>
<!-- Node1&#45;&gt;Node9 -->
<g id="edge12" class="edge">
<title>Node1&#45;&gt;Node9</title>
<path fill="none" stroke="#63b8ff" d="M362.5,-163.13C415.18,-153.19 493.74,-138.37 543,-129.08"/>
<polygon fill="#63b8ff" stroke="#63b8ff" points="361.83,-159.69 352.65,-164.98 363.12,-166.57 361.83,-159.69"/>
</g>
<!-- Node3 -->
<g id="node3" class="node">
<title>Node3</title>
<g id="a_node3"><a xlink:href="jngl_8hpp.html" target="_top" xlink:title="Includes all JNGL headers except for init.hpp.">
<polygon fill="white" stroke="#666666" points="364,-19 299,-19 299,0 364,0 364,-19"/>
<text text-anchor="middle" x="331.5" y="-7" font-family="ui-monospace,monospace" font-size="10.00">jngl.hpp</text>
</a>
</g>
</g>
<!-- Node2&#45;&gt;Node3 -->
<g id="edge2" class="edge">
<title>Node2&#45;&gt;Node3</title>
<path fill="none" stroke="#63b8ff" d="M110.77,-53.04C166.74,-42.25 252.19,-25.79 298.64,-16.83"/>
<polygon fill="#63b8ff" stroke="#63b8ff" points="109.84,-49.66 100.68,-54.98 111.17,-56.53 109.84,-49.66"/>
</g>
<!-- Node4&#45;&gt;Node3 -->
<g id="edge4" class="edge">
<title>Node4&#45;&gt;Node3</title>
<path fill="none" stroke="#63b8ff" d="M227.6,-51.29C252.62,-41.47 287.16,-27.91 309.42,-19.17"/>
<polygon fill="#63b8ff" stroke="#63b8ff" points="226.22,-48.07 218.19,-54.98 228.78,-54.59 226.22,-48.07"/>
</g>
<!-- Node5&#45;&gt;Node3 -->
<g id="edge6" class="edge">
<title>Node5&#45;&gt;Node3</title>
<path fill="none" stroke="#63b8ff" d="M306.47,-99.4C306.25,-86.65 306.87,-69.6 310.5,-55 313.76,-41.9 321,-28.02 326.06,-19.31"/>
<polygon fill="#63b8ff" stroke="#63b8ff" points="302.98,-99.85 306.84,-109.72 309.98,-99.6 302.98,-99.85"/>
</g>
<!-- Node6 -->
<g id="node6" class="node">
<title>Node6</title>
<g id="a_node6"><a xlink:href="sprite_8hpp.html" target="_top" xlink:title="Contains jngl::Sprite class and related functions.">
<polygon fill="white" stroke="#666666" points="426,-74 319,-74 319,-55 426,-55 426,-74"/>
<text text-anchor="middle" x="372.5" y="-62" font-family="ui-monospace,monospace" font-size="10.00">jngl/sprite.hpp</text>
</a>
</g>
</g>
<!-- Node5&#45;&gt;Node6 -->
<g id="edge7" class="edge">
<title>Node5&#45;&gt;Node6</title>
<path fill="none" stroke="#63b8ff" d="M325.77,-103.6C337.42,-94.11 352.1,-82.13 361.87,-74.17"/>
<polygon fill="#63b8ff" stroke="#63b8ff" points="323.48,-100.95 317.94,-109.98 327.91,-106.38 323.48,-100.95"/>
</g>
<!-- Node6&#45;&gt;Node3 -->
<g id="edge8" class="edge">
<title>Node6&#45;&gt;Node3</title>
<path fill="none" stroke="#63b8ff" d="M359.48,-46.67C352.38,-37.5 343.9,-26.52 338.14,-19.09"/>
<polygon fill="#63b8ff" stroke="#63b8ff" points="356.84,-48.98 365.73,-54.75 362.38,-44.7 356.84,-48.98"/>
</g>
<!-- Node7&#45;&gt;Node3 -->
<g id="edge10" class="edge">
<title>Node7&#45;&gt;Node3</title>
<path fill="none" stroke="#63b8ff" d="M453.03,-99.25C451.05,-85.44 446.39,-67.21 435.5,-55 417.06,-34.34 387.39,-22.94 364.44,-16.86"/>
<polygon fill="#63b8ff" stroke="#63b8ff" points="449.59,-100 454.15,-109.57 456.55,-99.25 449.59,-100"/>
</g>
<!-- Node8 -->
<g id="node8" class="node">
<title>Node8</title>
<g id="a_node8"><a xlink:href="init_8hpp.html" target="_top" xlink:title="Include this file only once, as it defines the main function.">
<polygon fill="white" stroke="#666666" points="578,-74 483,-74 483,-55 578,-55 578,-74"/>
<text text-anchor="middle" x="530.5" y="-62" font-family="ui-monospace,monospace" font-size="10.00">jngl/init.hpp</text>
</a>
</g>
</g>
<!-- Node7&#45;&gt;Node8 -->
<g id="edge11" class="edge">
<title>Node7&#45;&gt;Node8</title>
<path fill="none" stroke="#63b8ff" d="M475.08,-104.15C488.81,-94.57 506.43,-82.29 518.07,-74.17"/>
<polygon fill="#63b8ff" stroke="#63b8ff" points="472.91,-101.39 466.71,-109.98 476.92,-107.14 472.91,-101.39"/>
</g>
<!-- Node9&#45;&gt;Node3 -->
<g id="edge13" class="edge">
<title>Node9&#45;&gt;Node3</title>
<path fill="none" stroke="#63b8ff" d="M593.95,-99.95C596.83,-85.96 597.9,-67.17 587.5,-55 559.07,-21.74 426.71,-13.33 364.27,-11.21"/>
<polygon fill="#63b8ff" stroke="#63b8ff" points="590.48,-99.36 591.44,-109.92 597.27,-101.07 590.48,-99.36"/>
</g>
</g>
</svg>
