<?xml version="1.0" encoding="UTF-8" standalone="no"?>
<!DOCTYPE svg PUBLIC "-//W3C//DTD SVG 1.1//EN"
 "http://www.w3.org/Graphics/SVG/1.1/DTD/svg11.dtd">
<!-- Generated by graphviz version 2.42.4 (0)
 -->
<!-- Title: jngl/Finally.hpp Pages: 1 -->
<svg width="402pt" height="308pt"
 viewBox="0.00 0.00 402.00 308.00" xmlns="http://www.w3.org/2000/svg" xmlns:xlink="http://www.w3.org/1999/xlink">
<g id="graph0" class="graph" transform="scale(1 1) rotate(0) translate(4 304)">
<title>jngl/Finally.hpp</title>
<polygon fill="white" stroke="transparent" points="-4,4 -4,-304 398,-304 398,4 -4,4"/>
<!-- Node1 -->
<g id="node1" class="node">
<title>Node1</title>
<g id="a_node1"><a xlink:title=" ">
<polygon fill="#bfbfbf" stroke="black" points="103,-280.5 103,-299.5 216,-299.5 216,-280.5 103,-280.5"/>
<text text-anchor="middle" x="159.5" y="-287.5" font-family="'Consolas',monospace" font-size="10.00">jngl/Finally.hpp</text>
</a>
</g>
</g>
<!-- Node2 -->
<g id="node2" class="node">
<title>Node2</title>
<g id="a_node2"><a xlink:href="framebuffer_8hpp.html" target="_top" xlink:title="Contains jngl::FrameBuffer class.">
<polygon fill="white" stroke="black" points="0,-168.5 0,-187.5 131,-187.5 131,-168.5 0,-168.5"/>
<text text-anchor="middle" x="65.5" y="-175.5" font-family="'Consolas',monospace" font-size="10.00">jngl/framebuffer.hpp</text>
</a>
</g>
</g>
<!-- Node1&#45;&gt;Node2 -->
<g id="edge1" class="edge">
<title>Node1&#45;&gt;Node2</title>
<path fill="none" stroke="midnightblue" d="M145.47,-272.59C125.21,-248.87 88.46,-205.87 72.84,-187.59"/>
<polygon fill="midnightblue" stroke="midnightblue" points="142.97,-275.04 152.12,-280.37 148.29,-270.49 142.97,-275.04"/>
</g>
<!-- Node5 -->
<g id="node5" class="node">
<title>Node5</title>
<g id="a_node5"><a xlink:href="main_8hpp_source.html" target="_top" xlink:title=" ">
<polygon fill="white" stroke="black" points="103,-112.5 103,-131.5 198,-131.5 198,-112.5 103,-112.5"/>
<text text-anchor="middle" x="150.5" y="-119.5" font-family="'Consolas',monospace" font-size="10.00">jngl/main.hpp</text>
</a>
</g>
</g>
<!-- Node1&#45;&gt;Node5 -->
<g id="edge4" class="edge">
<title>Node1&#45;&gt;Node5</title>
<path fill="none" stroke="midnightblue" d="M158.47,-269.93C156.51,-233.92 152.36,-157.23 150.96,-131.57"/>
<polygon fill="midnightblue" stroke="midnightblue" points="154.98,-270.28 159.02,-280.08 161.97,-269.9 154.98,-270.28"/>
</g>
<!-- Node6 -->
<g id="node6" class="node">
<title>Node6</title>
<g id="a_node6"><a xlink:href="ShaderProgram_8hpp.html" target="_top" xlink:title="Contains jngl::ShaderProgram class.">
<polygon fill="white" stroke="black" points="188,-224.5 188,-243.5 337,-243.5 337,-224.5 188,-224.5"/>
<text text-anchor="middle" x="262.5" y="-231.5" font-family="'Consolas',monospace" font-size="10.00">jngl/ShaderProgram.hpp</text>
</a>
</g>
</g>
<!-- Node1&#45;&gt;Node6 -->
<g id="edge6" class="edge">
<title>Node1&#45;&gt;Node6</title>
<path fill="none" stroke="midnightblue" d="M185.08,-275.59C204.12,-265.61 229.56,-252.27 245.99,-243.65"/>
<polygon fill="midnightblue" stroke="midnightblue" points="183.28,-272.58 176.05,-280.32 186.53,-278.78 183.28,-272.58"/>
</g>
<!-- Node3 -->
<g id="node3" class="node">
<title>Node3</title>
<g id="a_node3"><a xlink:href="all_8hpp.html" target="_top" xlink:title="Includes all JNGL headers.">
<polygon fill="white" stroke="black" points="182,-56.5 182,-75.5 271,-75.5 271,-56.5 182,-56.5"/>
<text text-anchor="middle" x="226.5" y="-63.5" font-family="'Consolas',monospace" font-size="10.00">jngl/all.hpp</text>
</a>
</g>
</g>
<!-- Node2&#45;&gt;Node3 -->
<g id="edge2" class="edge">
<title>Node2&#45;&gt;Node3</title>
<path fill="none" stroke="midnightblue" d="M69.21,-158.23C73,-143.76 80.26,-124.22 93.5,-112 117.78,-89.6 153.61,-78.31 181.97,-72.64"/>
<polygon fill="midnightblue" stroke="midnightblue" points="65.77,-157.58 66.96,-168.11 72.6,-159.14 65.77,-157.58"/>
</g>
<!-- Node4 -->
<g id="node4" class="node">
<title>Node4</title>
<g id="a_node4"><a xlink:href="jngl_8hpp_source.html" target="_top" xlink:title=" ">
<polygon fill="white" stroke="black" points="194,-0.5 194,-19.5 259,-19.5 259,-0.5 194,-0.5"/>
<text text-anchor="middle" x="226.5" y="-7.5" font-family="'Consolas',monospace" font-size="10.00">jngl.hpp</text>
</a>
</g>
</g>
<!-- Node3&#45;&gt;Node4 -->
<g id="edge3" class="edge">
<title>Node3&#45;&gt;Node4</title>
<path fill="none" stroke="midnightblue" d="M226.5,-45.8C226.5,-36.91 226.5,-26.78 226.5,-19.75"/>
<polygon fill="midnightblue" stroke="midnightblue" points="223,-46.08 226.5,-56.08 230,-46.08 223,-46.08"/>
</g>
<!-- Node5&#45;&gt;Node3 -->
<g id="edge5" class="edge">
<title>Node5&#45;&gt;Node3</title>
<path fill="none" stroke="midnightblue" d="M171.08,-106.38C184.81,-96.62 202.43,-84.11 214.07,-75.83"/>
<polygon fill="midnightblue" stroke="midnightblue" points="168.84,-103.68 162.71,-112.32 172.89,-109.38 168.84,-103.68"/>
</g>
<!-- Node6&#45;&gt;Node3 -->
<g id="edge7" class="edge">
<title>Node6&#45;&gt;Node3</title>
<path fill="none" stroke="midnightblue" d="M254.62,-214.72C251.4,-206.66 247.87,-196.98 245.5,-188 234.57,-146.68 229.09,-95.65 227.24,-75.63"/>
<polygon fill="midnightblue" stroke="midnightblue" points="251.49,-216.32 258.56,-224.21 257.96,-213.63 251.49,-216.32"/>
</g>
<!-- Node7 -->
<g id="node7" class="node">
<title>Node7</title>
<g id="a_node7"><a xlink:href="sprite_8hpp.html" target="_top" xlink:title="Contains jngl::Sprite class and related functions.">
<polygon fill="white" stroke="black" points="255,-168.5 255,-187.5 362,-187.5 362,-168.5 255,-168.5"/>
<text text-anchor="middle" x="308.5" y="-175.5" font-family="'Consolas',monospace" font-size="10.00">jngl/sprite.hpp</text>
</a>
</g>
</g>
<!-- Node6&#45;&gt;Node7 -->
<g id="edge8" class="edge">
<title>Node6&#45;&gt;Node7</title>
<path fill="none" stroke="midnightblue" d="M276.61,-216.43C284.68,-206.97 294.46,-195.48 301.05,-187.75"/>
<polygon fill="midnightblue" stroke="midnightblue" points="273.92,-214.2 270.1,-224.08 279.25,-218.74 273.92,-214.2"/>
</g>
<!-- Node7&#45;&gt;Node3 -->
<g id="edge9" class="edge">
<title>Node7&#45;&gt;Node3</title>
<path fill="none" stroke="midnightblue" d="M296.03,-160.27C278.3,-136.49 246.47,-93.79 232.9,-75.59"/>
<polygon fill="midnightblue" stroke="midnightblue" points="293.28,-162.44 302.07,-168.37 298.9,-158.26 293.28,-162.44"/>
</g>
<!-- Node8 -->
<g id="node8" class="node">
<title>Node8</title>
<g id="a_node8"><a xlink:href="Video_8hpp.html" target="_top" xlink:title=" ">
<polygon fill="white" stroke="black" points="293,-112.5 293,-131.5 394,-131.5 394,-112.5 293,-112.5"/>
<text text-anchor="middle" x="343.5" y="-119.5" font-family="'Consolas',monospace" font-size="10.00">jngl/Video.hpp</text>
</a>
</g>
</g>
<!-- Node7&#45;&gt;Node8 -->
<g id="edge10" class="edge">
<title>Node7&#45;&gt;Node8</title>
<path fill="none" stroke="midnightblue" d="M319.8,-159.57C325.82,-150.27 332.97,-139.25 337.83,-131.75"/>
<polygon fill="midnightblue" stroke="midnightblue" points="316.78,-157.79 314.28,-168.08 322.66,-161.6 316.78,-157.79"/>
</g>
<!-- Node8&#45;&gt;Node3 -->
<g id="edge11" class="edge">
<title>Node8&#45;&gt;Node3</title>
<path fill="none" stroke="midnightblue" d="M315.84,-108.23C293.95,-98.13 264,-84.31 244.95,-75.52"/>
<polygon fill="midnightblue" stroke="midnightblue" points="314.41,-111.43 324.96,-112.44 317.35,-105.08 314.41,-111.43"/>
</g>
</g>
</svg>
