<?xml version="1.0" encoding="UTF-8" standalone="no"?>
<!DOCTYPE svg PUBLIC "-//W3C//DTD SVG 1.1//EN"
 "http://www.w3.org/Graphics/SVG/1.1/DTD/svg11.dtd">
<!-- Generated by graphviz version 2.40.1 (0)
 -->
<!-- Title: jngl/Finally.hpp Pages: 1 -->
<svg width="352pt" height="308pt"
 viewBox="0.00 0.00 352.00 308.00" xmlns="http://www.w3.org/2000/svg" xmlns:xlink="http://www.w3.org/1999/xlink">
<g id="graph0" class="graph" transform="scale(1 1) rotate(0) translate(4 304)">
<title>jngl/Finally.hpp</title>
<polygon fill="#ffffff" stroke="transparent" points="-4,4 -4,-304 348,-304 348,4 -4,4"/>
<!-- Node2 -->
<g id="node1" class="node">
<title>Node2</title>
<g id="a_node1"><a xlink:title=" ">
<polygon fill="#bfbfbf" stroke="#000000" points="155,-280.5 155,-299.5 268,-299.5 268,-280.5 155,-280.5"/>
<text text-anchor="middle" x="211.5" y="-287.5" font-family="'Consolas',monospace" font-size="10.00" fill="#000000">jngl/Finally.hpp</text>
</a>
</g>
</g>
<!-- Node3 -->
<g id="node2" class="node">
<title>Node3</title>
<g id="a_node2"><a xlink:href="ShaderProgram_8hpp.html" target="_top" xlink:title=" ">
<polygon fill="#ffffff" stroke="#000000" points="0,-224.5 0,-243.5 149,-243.5 149,-224.5 0,-224.5"/>
<text text-anchor="middle" x="74.5" y="-231.5" font-family="'Consolas',monospace" font-size="10.00" fill="#000000">jngl/ShaderProgram.hpp</text>
</a>
</g>
</g>
<!-- Node2&#45;&gt;Node3 -->
<g id="edge1" class="edge">
<title>Node2&#45;&gt;Node3</title>
<path fill="none" stroke="#191970" d="M178.5194,-276.5189C153.5689,-266.3201 119.9266,-252.5685 97.7438,-243.5011"/>
<polygon fill="#191970" stroke="#191970" points="177.368,-279.8293 187.9489,-280.3733 180.0166,-273.3497 177.368,-279.8293"/>
</g>
<!-- Node8 -->
<g id="node7" class="node">
<title>Node8</title>
<g id="a_node7"><a xlink:href="framebuffer_8hpp_source.html" target="_top" xlink:title=" ">
<polygon fill="#ffffff" stroke="#000000" points="146,-168.5 146,-187.5 277,-187.5 277,-168.5 146,-168.5"/>
<text text-anchor="middle" x="211.5" y="-175.5" font-family="'Consolas',monospace" font-size="10.00" fill="#000000">jngl/framebuffer.hpp</text>
</a>
</g>
</g>
<!-- Node2&#45;&gt;Node8 -->
<g id="edge8" class="edge">
<title>Node2&#45;&gt;Node8</title>
<path fill="none" stroke="#191970" d="M211.5,-270.2702C211.5,-245.9985 211.5,-205.7725 211.5,-187.5249"/>
<polygon fill="#191970" stroke="#191970" points="208.0001,-270.4509 211.5,-280.4509 215.0001,-270.451 208.0001,-270.4509"/>
</g>
<!-- Node9 -->
<g id="node8" class="node">
<title>Node9</title>
<g id="a_node8"><a xlink:href="main_8hpp_source.html" target="_top" xlink:title=" ">
<polygon fill="#ffffff" stroke="#000000" points="249,-112.5 249,-131.5 344,-131.5 344,-112.5 249,-112.5"/>
<text text-anchor="middle" x="296.5" y="-119.5" font-family="'Consolas',monospace" font-size="10.00" fill="#000000">jngl/main.hpp</text>
</a>
</g>
</g>
<!-- Node2&#45;&gt;Node9 -->
<g id="edge10" class="edge">
<title>Node2&#45;&gt;Node9</title>
<path fill="none" stroke="#191970" d="M228.0089,-272.6899C245.2494,-253.5566 271.6671,-221.0502 285.5,-188 293.3935,-169.1404 295.6327,-145.0175 296.2613,-131.7824"/>
<polygon fill="#191970" stroke="#191970" points="225.2319,-270.5386 221.0285,-280.2639 230.3793,-275.2825 225.2319,-270.5386"/>
</g>
<!-- Node4 -->
<g id="node3" class="node">
<title>Node4</title>
<g id="a_node3"><a xlink:href="all_8hpp.html" target="_top" xlink:title="Includes all JNGL headers.">
<polygon fill="#ffffff" stroke="#000000" points="88,-56.5 88,-75.5 177,-75.5 177,-56.5 88,-56.5"/>
<text text-anchor="middle" x="132.5" y="-63.5" font-family="'Consolas',monospace" font-size="10.00" fill="#000000">jngl/all.hpp</text>
</a>
</g>
</g>
<!-- Node3&#45;&gt;Node4 -->
<g id="edge2" class="edge">
<title>Node3&#45;&gt;Node4</title>
<path fill="none" stroke="#191970" d="M43.5966,-219.5161C31.2532,-211.9901 18.361,-201.5049 11.5,-188 7.4739,-180.0752 8.2117,-176.2583 11.5,-168 29.6936,-122.3087 81.6023,-90.6453 111.1827,-75.7315"/>
<polygon fill="#191970" stroke="#191970" points="41.9633,-222.6132 52.3934,-224.4742 45.4003,-216.5151 41.9633,-222.6132"/>
</g>
<!-- Node6 -->
<g id="node5" class="node">
<title>Node6</title>
<g id="a_node5"><a xlink:href="sprite_8hpp_source.html" target="_top" xlink:title=" ">
<polygon fill="#ffffff" stroke="#000000" points="21,-168.5 21,-187.5 128,-187.5 128,-168.5 21,-168.5"/>
<text text-anchor="middle" x="74.5" y="-175.5" font-family="'Consolas',monospace" font-size="10.00" fill="#000000">jngl/sprite.hpp</text>
</a>
</g>
</g>
<!-- Node3&#45;&gt;Node6 -->
<g id="edge4" class="edge">
<title>Node3&#45;&gt;Node6</title>
<path fill="none" stroke="#191970" d="M74.5,-214.1575C74.5,-205.155 74.5,-194.9199 74.5,-187.6427"/>
<polygon fill="#191970" stroke="#191970" points="71.0001,-214.2455 74.5,-224.2455 78.0001,-214.2456 71.0001,-214.2455"/>
</g>
<!-- Node5 -->
<g id="node4" class="node">
<title>Node5</title>
<g id="a_node4"><a xlink:href="jngl_8hpp_source.html" target="_top" xlink:title=" ">
<polygon fill="#ffffff" stroke="#000000" points="100,-.5 100,-19.5 165,-19.5 165,-.5 100,-.5"/>
<text text-anchor="middle" x="132.5" y="-7.5" font-family="'Consolas',monospace" font-size="10.00" fill="#000000">jngl.hpp</text>
</a>
</g>
</g>
<!-- Node4&#45;&gt;Node5 -->
<g id="edge3" class="edge">
<title>Node4&#45;&gt;Node5</title>
<path fill="none" stroke="#191970" d="M132.5,-46.1575C132.5,-37.155 132.5,-26.9199 132.5,-19.6427"/>
<polygon fill="#191970" stroke="#191970" points="129.0001,-46.2455 132.5,-56.2455 136.0001,-46.2456 129.0001,-46.2455"/>
</g>
<!-- Node6&#45;&gt;Node4 -->
<g id="edge7" class="edge">
<title>Node6&#45;&gt;Node4</title>
<path fill="none" stroke="#191970" d="M69.2914,-158.6253C66.6709,-144.901 65.3757,-126.439 72.5,-112 80.6309,-95.5207 97.813,-83.3083 111.7148,-75.6244"/>
<polygon fill="#191970" stroke="#191970" points="65.8971,-159.4828 71.5416,-168.4488 72.7203,-157.9197 65.8971,-159.4828"/>
</g>
<!-- Node7 -->
<g id="node6" class="node">
<title>Node7</title>
<g id="a_node6"><a xlink:href="Video_8hpp.html" target="_top" xlink:title=" ">
<polygon fill="#ffffff" stroke="#000000" points="82,-112.5 82,-131.5 183,-131.5 183,-112.5 82,-112.5"/>
<text text-anchor="middle" x="132.5" y="-119.5" font-family="'Consolas',monospace" font-size="10.00" fill="#000000">jngl/Video.hpp</text>
</a>
</g>
</g>
<!-- Node6&#45;&gt;Node7 -->
<g id="edge5" class="edge">
<title>Node6&#45;&gt;Node7</title>
<path fill="none" stroke="#191970" d="M92.0293,-161.0751C102.0083,-151.4402 114.1476,-139.7196 122.5129,-131.6427"/>
<polygon fill="#191970" stroke="#191970" points="89.3658,-158.7817 84.6028,-168.2455 94.228,-163.8175 89.3658,-158.7817"/>
</g>
<!-- Node7&#45;&gt;Node4 -->
<g id="edge6" class="edge">
<title>Node7&#45;&gt;Node4</title>
<path fill="none" stroke="#191970" d="M132.5,-102.1575C132.5,-93.155 132.5,-82.9199 132.5,-75.6427"/>
<polygon fill="#191970" stroke="#191970" points="129.0001,-102.2455 132.5,-112.2455 136.0001,-102.2456 129.0001,-102.2455"/>
</g>
<!-- Node8&#45;&gt;Node4 -->
<g id="edge9" class="edge">
<title>Node8&#45;&gt;Node4</title>
<path fill="none" stroke="#191970" d="M208.7698,-158.2749C206.1093,-144.3834 201.0147,-125.8657 191.5,-112 180.7706,-96.3642 163.0893,-83.6012 149.8754,-75.5198"/>
<polygon fill="#191970" stroke="#191970" points="205.3341,-158.9519 210.4196,-168.2464 212.2403,-157.8092 205.3341,-158.9519"/>
</g>
<!-- Node9&#45;&gt;Node4 -->
<g id="edge11" class="edge">
<title>Node9&#45;&gt;Node4</title>
<path fill="none" stroke="#191970" d="M258.5956,-109.057C228.5816,-98.8084 187.3493,-84.729 160.3247,-75.5011"/>
<polygon fill="#191970" stroke="#191970" points="257.7129,-112.454 268.3074,-112.3733 259.9749,-105.8295 257.7129,-112.454"/>
</g>
</g>
</svg>
