<?xml version="1.0" encoding="UTF-8" standalone="no"?>
<!DOCTYPE svg PUBLIC "-//W3C//DTD SVG 1.1//EN"
 "http://www.w3.org/Graphics/SVG/1.1/DTD/svg11.dtd">
<!-- Generated by graphviz version 2.38.0 (20140413.2041)
 -->
<!-- Title: jngl/font.hpp Pages: 1 -->
<svg width="323pt" height="140pt"
 viewBox="0.00 0.00 323.00 140.00" xmlns="http://www.w3.org/2000/svg" xmlns:xlink="http://www.w3.org/1999/xlink">
<g id="graph0" class="graph" transform="scale(1 1) rotate(0) translate(4 136)">
<title>jngl/font.hpp</title>
<polygon fill="white" stroke="none" points="-4,4 -4,-136 319,-136 319,4 -4,4"/>
<!-- Node1 -->
<g id="node1" class="node"><title>Node1</title>
<polygon fill="#bfbfbf" stroke="black" points="109,-112.5 109,-131.5 185,-131.5 185,-112.5 109,-112.5"/>
<text text-anchor="middle" x="147" y="-119.5" font-family="Lato" font-size="10.00">jngl/font.hpp</text>
</g>
<!-- Node2 -->
<g id="node2" class="node"><title>Node2</title>
<g id="a_node2"><a xlink:href="color_8hpp_source.html" target="_top" xlink:title="color.hpp">
<polygon fill="white" stroke="black" points="0,-56.5 0,-75.5 60,-75.5 60,-56.5 0,-56.5"/>
<text text-anchor="middle" x="30" y="-63.5" font-family="Lato" font-size="10.00">color.hpp</text>
</a>
</g>
</g>
<!-- Node1&#45;&gt;Node2 -->
<g id="edge1" class="edge"><title>Node1&#45;&gt;Node2</title>
<path fill="none" stroke="midnightblue" d="M128.461,-112.444C109.377,-103.636 79.4251,-89.8116 57.5643,-79.722"/>
<polygon fill="midnightblue" stroke="midnightblue" points="58.9986,-76.5292 48.4523,-75.5164 56.0651,-82.8849 58.9986,-76.5292"/>
</g>
<!-- Node3 -->
<g id="node3" class="node"><title>Node3</title>
<g id="a_node3"><a xlink:href="dll_8hpp_source.html" target="_top" xlink:title="dll.hpp">
<polygon fill="white" stroke="black" points="30,-0.5 30,-19.5 78,-19.5 78,-0.5 30,-0.5"/>
<text text-anchor="middle" x="54" y="-7.5" font-family="Lato" font-size="10.00">dll.hpp</text>
</a>
</g>
</g>
<!-- Node1&#45;&gt;Node3 -->
<g id="edge3" class="edge"><title>Node1&#45;&gt;Node3</title>
<path fill="none" stroke="midnightblue" d="M139.222,-112.469C131.08,-103.489 117.978,-88.8929 107,-76 93.1946,-59.7864 77.8653,-40.884 67.2589,-27.6566"/>
<polygon fill="midnightblue" stroke="midnightblue" points="69.7245,-25.1355 60.7474,-19.5086 64.2562,-29.5055 69.7245,-25.1355"/>
</g>
<!-- Node4 -->
<g id="node4" class="node"><title>Node4</title>
<g id="a_node4"><a xlink:href="Vec2_8hpp.html" target="_top" xlink:title="Vec2.hpp">
<polygon fill="white" stroke="black" points="116.5,-56.5 116.5,-75.5 177.5,-75.5 177.5,-56.5 116.5,-56.5"/>
<text text-anchor="middle" x="147" y="-63.5" font-family="Lato" font-size="10.00">Vec2.hpp</text>
</a>
</g>
</g>
<!-- Node1&#45;&gt;Node4 -->
<g id="edge4" class="edge"><title>Node1&#45;&gt;Node4</title>
<path fill="none" stroke="midnightblue" d="M147,-112.083C147,-105.006 147,-94.8611 147,-85.9865"/>
<polygon fill="midnightblue" stroke="midnightblue" points="150.5,-85.751 147,-75.7511 143.5,-85.7511 150.5,-85.751"/>
</g>
<!-- Node7 -->
<g id="node7" class="node"><title>Node7</title>
<polygon fill="white" stroke="#bfbfbf" points="195.5,-56.5 195.5,-75.5 252.5,-75.5 252.5,-56.5 195.5,-56.5"/>
<text text-anchor="middle" x="224" y="-63.5" font-family="Lato" font-size="10.00">memory</text>
</g>
<!-- Node1&#45;&gt;Node7 -->
<g id="edge8" class="edge"><title>Node1&#45;&gt;Node7</title>
<path fill="none" stroke="midnightblue" d="M159.371,-112.324C171.158,-104.058 189.132,-91.4527 203.136,-81.6322"/>
<polygon fill="midnightblue" stroke="midnightblue" points="205.482,-84.2619 211.659,-75.6545 201.462,-78.5307 205.482,-84.2619"/>
</g>
<!-- Node8 -->
<g id="node8" class="node"><title>Node8</title>
<polygon fill="white" stroke="#bfbfbf" points="271,-56.5 271,-75.5 315,-75.5 315,-56.5 271,-56.5"/>
<text text-anchor="middle" x="293" y="-63.5" font-family="Lato" font-size="10.00">string</text>
</g>
<!-- Node1&#45;&gt;Node8 -->
<g id="edge9" class="edge"><title>Node1&#45;&gt;Node8</title>
<path fill="none" stroke="midnightblue" d="M170.134,-112.444C194.769,-103.332 233.916,-88.8531 261.386,-78.6929"/>
<polygon fill="midnightblue" stroke="midnightblue" points="262.765,-81.9146 270.93,-75.1629 260.337,-75.3493 262.765,-81.9146"/>
</g>
<!-- Node2&#45;&gt;Node3 -->
<g id="edge2" class="edge"><title>Node2&#45;&gt;Node3</title>
<path fill="none" stroke="midnightblue" d="M33.9631,-56.083C37.2133,-48.77 41.9194,-38.1814 45.954,-29.1034"/>
<polygon fill="midnightblue" stroke="midnightblue" points="49.2475,-30.3107 50.1106,-19.7511 42.8508,-27.4677 49.2475,-30.3107"/>
</g>
<!-- Node4&#45;&gt;Node3 -->
<g id="edge5" class="edge"><title>Node4&#45;&gt;Node3</title>
<path fill="none" stroke="midnightblue" d="M132.058,-56.324C117.415,-47.8215 94.8663,-34.7288 77.7623,-24.7975"/>
<polygon fill="midnightblue" stroke="midnightblue" points="79.3104,-21.6491 68.905,-19.6545 75.7954,-27.7027 79.3104,-21.6491"/>
</g>
<!-- Node5 -->
<g id="node5" class="node"><title>Node5</title>
<polygon fill="white" stroke="#bfbfbf" points="96,-0.5 96,-19.5 198,-19.5 198,-0.5 96,-0.5"/>
<text text-anchor="middle" x="147" y="-7.5" font-family="Lato" font-size="10.00">boost/version.hpp</text>
</g>
<!-- Node4&#45;&gt;Node5 -->
<g id="edge6" class="edge"><title>Node4&#45;&gt;Node5</title>
<path fill="none" stroke="midnightblue" d="M147,-56.083C147,-49.0059 147,-38.8611 147,-29.9865"/>
<polygon fill="midnightblue" stroke="midnightblue" points="150.5,-29.751 147,-19.7511 143.5,-29.7511 150.5,-29.751"/>
</g>
<!-- Node6 -->
<g id="node6" class="node"><title>Node6</title>
<polygon fill="white" stroke="#bfbfbf" points="216,-0.5 216,-19.5 262,-19.5 262,-0.5 216,-0.5"/>
<text text-anchor="middle" x="239" y="-7.5" font-family="Lato" font-size="10.00">iosfwd</text>
</g>
<!-- Node4&#45;&gt;Node6 -->
<g id="edge7" class="edge"><title>Node4&#45;&gt;Node6</title>
<path fill="none" stroke="midnightblue" d="M161.781,-56.324C176.267,-47.8215 198.573,-34.7288 215.493,-24.7975"/>
<polygon fill="midnightblue" stroke="midnightblue" points="217.403,-27.735 224.255,-19.6545 213.859,-21.6981 217.403,-27.735"/>
</g>
</g>
</svg>
