<?xml version="1.0" encoding="UTF-8" standalone="no"?>
<!DOCTYPE svg PUBLIC "-//W3C//DTD SVG 1.1//EN"
 "http://www.w3.org/Graphics/SVG/1.1/DTD/svg11.dtd">
<!-- Generated by graphviz version 5.0.0 (0)
 -->
<!-- Title: jngl/font.hpp Pages: 1 -->
<svg width="322pt" height="192pt"
 viewBox="0.00 0.00 322.00 192.00" xmlns="http://www.w3.org/2000/svg" xmlns:xlink="http://www.w3.org/1999/xlink">
<g id="graph0" class="graph" transform="scale(1 1) rotate(0) translate(4 188)">
<title>jngl/font.hpp</title>
<!-- Node1 -->
<g id="node1" class="node">
<title>Node1</title>
<g id="a_node1"><a xlink:title="Contains jngl::Font class and related functions.">
<polygon fill="#999999" stroke="#666666" points="225,-184 130,-184 130,-165 225,-165 225,-184"/>
<text text-anchor="middle" x="177.5" y="-172" font-family="ui-monospace,monospace" font-size="10.00">jngl/font.hpp</text>
</a>
</g>
</g>
<!-- Node2 -->
<g id="node2" class="node">
<title>Node2</title>
<g id="a_node2"><a xlink:href="Color_8hpp.html" target="_top" xlink:title="Contains jngl::Color class.">
<polygon fill="white" stroke="#666666" points="77,-129 6,-129 6,-110 77,-110 77,-129"/>
<text text-anchor="middle" x="41.5" y="-117" font-family="ui-monospace,monospace" font-size="10.00">Color.hpp</text>
</a>
</g>
</g>
<!-- Node1&#45;&gt;Node2 -->
<g id="edge1" class="edge">
<title>Node1&#45;&gt;Node2</title>
<path fill="none" stroke="#63b8ff" d="M155.65,-164.98C133.38,-156.3 98.6,-142.75 73.28,-132.88"/>
<polygon fill="#63b8ff" stroke="#63b8ff" points="74.34,-129.54 63.75,-129.17 71.79,-136.06 74.34,-129.54"/>
</g>
<!-- Node5 -->
<g id="node5" class="node">
<title>Node5</title>
<g id="a_node5"><a xlink:href="Vec2_8hpp.html" target="_top" xlink:title="Contains jngl::Vec2 class.">
<polygon fill="white" stroke="#666666" points="172,-129 107,-129 107,-110 172,-110 172,-129"/>
<text text-anchor="middle" x="139.5" y="-117" font-family="ui-monospace,monospace" font-size="10.00">Vec2.hpp</text>
</a>
</g>
</g>
<!-- Node1&#45;&gt;Node5 -->
<g id="edge4" class="edge">
<title>Node1&#45;&gt;Node5</title>
<path fill="none" stroke="#63b8ff" d="M171.23,-164.75C165.91,-157.34 158.14,-146.5 151.62,-137.41"/>
<polygon fill="#63b8ff" stroke="#63b8ff" points="154.33,-135.18 145.66,-129.09 148.64,-139.26 154.33,-135.18"/>
</g>
<!-- Node8 -->
<g id="node8" class="node">
<title>Node8</title>
<g id="a_node8"><a target="_parent" xlink:href="http://en.cppreference.com/w/cpp/header/memory.html" xlink:title=" ">
<polygon fill="white" stroke="#666666" points="243,-129 190,-129 190,-110 243,-110 243,-129"/>
<text text-anchor="middle" x="216.5" y="-117" font-family="ui-monospace,monospace" font-size="10.00">memory</text>
</a>
</g>
</g>
<!-- Node1&#45;&gt;Node8 -->
<g id="edge7" class="edge">
<title>Node1&#45;&gt;Node8</title>
<path fill="none" stroke="#63b8ff" d="M183.94,-164.75C189.39,-157.34 197.36,-146.5 204.06,-137.41"/>
<polygon fill="#63b8ff" stroke="#63b8ff" points="207.07,-139.22 210.18,-129.09 201.43,-135.07 207.07,-139.22"/>
</g>
<!-- Node9 -->
<g id="node9" class="node">
<title>Node9</title>
<g id="a_node9"><a target="_parent" xlink:href="http://en.cppreference.com/w/cpp/header/string.html" xlink:title=" ">
<polygon fill="white" stroke="#666666" points="314,-129 261,-129 261,-110 314,-110 314,-129"/>
<text text-anchor="middle" x="287.5" y="-117" font-family="ui-monospace,monospace" font-size="10.00">string</text>
</a>
</g>
</g>
<!-- Node1&#45;&gt;Node9 -->
<g id="edge8" class="edge">
<title>Node1&#45;&gt;Node9</title>
<path fill="none" stroke="#63b8ff" d="M195.17,-164.98C212.79,-156.5 240.08,-143.35 260.43,-133.54"/>
<polygon fill="#63b8ff" stroke="#63b8ff" points="262.02,-136.66 269.51,-129.17 258.98,-130.36 262.02,-136.66"/>
</g>
<!-- Node3 -->
<g id="node3" class="node">
<title>Node3</title>
<g id="a_node3"><a xlink:href="Rgb_8hpp.html" target="_top" xlink:title="Contains jngl::Rgb class.">
<polygon fill="white" stroke="#666666" points="59,-74 0,-74 0,-55 59,-55 59,-74"/>
<text text-anchor="middle" x="29.5" y="-62" font-family="ui-monospace,monospace" font-size="10.00">Rgb.hpp</text>
</a>
</g>
</g>
<!-- Node2&#45;&gt;Node3 -->
<g id="edge2" class="edge">
<title>Node2&#45;&gt;Node3</title>
<path fill="none" stroke="#63b8ff" d="M39.52,-109.75C37.93,-102.72 35.64,-92.62 33.65,-83.84"/>
<polygon fill="#63b8ff" stroke="#63b8ff" points="37.07,-83.07 31.44,-74.09 30.24,-84.62 37.07,-83.07"/>
</g>
<!-- Node4 -->
<g id="node4" class="node">
<title>Node4</title>
<g id="a_node4"><a target="_parent" xlink:href="http://en.cppreference.com/w/cpp/header/cstdint.html" xlink:title=" ">
<polygon fill="white" stroke="#666666" points="59,-19 0,-19 0,0 59,0 59,-19"/>
<text text-anchor="middle" x="29.5" y="-7" font-family="ui-monospace,monospace" font-size="10.00">cstdint</text>
</a>
</g>
</g>
<!-- Node3&#45;&gt;Node4 -->
<g id="edge3" class="edge">
<title>Node3&#45;&gt;Node4</title>
<path fill="none" stroke="#63b8ff" d="M29.5,-54.75C29.5,-47.8 29.5,-37.85 29.5,-29.13"/>
<polygon fill="#63b8ff" stroke="#63b8ff" points="33,-29.09 29.5,-19.09 26,-29.09 33,-29.09"/>
</g>
<!-- Node6 -->
<g id="node6" class="node">
<title>Node6</title>
<g id="a_node6"><a xlink:title=" ">
<polygon fill="#e0e0e0" stroke="#999999" points="202,-74 77,-74 77,-55 202,-55 202,-74"/>
<text text-anchor="middle" x="139.5" y="-62" font-family="ui-monospace,monospace" font-size="10.00">boost/qvm_lite.hpp</text>
</a>
</g>
</g>
<!-- Node5&#45;&gt;Node6 -->
<g id="edge5" class="edge">
<title>Node5&#45;&gt;Node6</title>
<path fill="none" stroke="#63b8ff" d="M139.5,-109.75C139.5,-102.8 139.5,-92.85 139.5,-84.13"/>
<polygon fill="#63b8ff" stroke="#63b8ff" points="143,-84.09 139.5,-74.09 136,-84.09 143,-84.09"/>
</g>
<!-- Node7 -->
<g id="node7" class="node">
<title>Node7</title>
<g id="a_node7"><a target="_parent" xlink:href="http://en.cppreference.com/w/cpp/header/iosfwd.html" xlink:title=" ">
<polygon fill="white" stroke="#666666" points="273,-74 220,-74 220,-55 273,-55 273,-74"/>
<text text-anchor="middle" x="246.5" y="-62" font-family="ui-monospace,monospace" font-size="10.00">iosfwd</text>
</a>
</g>
</g>
<!-- Node5&#45;&gt;Node7 -->
<g id="edge6" class="edge">
<title>Node5&#45;&gt;Node7</title>
<path fill="none" stroke="#63b8ff" d="M156.69,-109.98C173.75,-101.54 200.13,-88.47 219.9,-78.68"/>
<polygon fill="#63b8ff" stroke="#63b8ff" points="221.59,-81.75 229,-74.17 218.48,-75.47 221.59,-81.75"/>
</g>
</g>
</svg>
