<?xml version="1.0" encoding="UTF-8" standalone="no"?>
<!DOCTYPE svg PUBLIC "-//W3C//DTD SVG 1.1//EN"
 "http://www.w3.org/Graphics/SVG/1.1/DTD/svg11.dtd">
<!-- Generated by graphviz version 2.40.1 (20161225.0304)
 -->
<!-- Title: jngl/font.hpp Pages: 1 -->
<svg width="343pt" height="140pt"
 viewBox="0.00 0.00 343.00 140.00" xmlns="http://www.w3.org/2000/svg" xmlns:xlink="http://www.w3.org/1999/xlink">
<g id="graph0" class="graph" transform="scale(1 1) rotate(0) translate(4 136)">
<title>jngl/font.hpp</title>
<polygon fill="#ffffff" stroke="transparent" points="-4,4 -4,-136 339,-136 339,4 -4,4"/>
<!-- Node0 -->
<g id="node1" class="node">
<title>Node0</title>
<polygon fill="#bfbfbf" stroke="#000000" points="113,-112.5 113,-131.5 208,-131.5 208,-112.5 113,-112.5"/>
<text text-anchor="middle" x="160.5" y="-119.5" font-family="'Consolas',monospace" font-size="10.00" fill="#000000">jngl/font.hpp</text>
</g>
<!-- Node1 -->
<g id="node2" class="node">
<title>Node1</title>
<g id="a_node2"><a xlink:href="color_8hpp.html" target="_top" xlink:title="color.hpp">
<polygon fill="#ffffff" stroke="#000000" points="0,-56.5 0,-75.5 71,-75.5 71,-56.5 0,-56.5"/>
<text text-anchor="middle" x="35.5" y="-63.5" font-family="'Consolas',monospace" font-size="10.00" fill="#000000">color.hpp</text>
</a>
</g>
</g>
<!-- Node0&#45;&gt;Node1 -->
<g id="edge1" class="edge">
<title>Node0&#45;&gt;Node1</title>
<path fill="none" stroke="#191970" d="M139.0117,-112.3733C118.856,-103.3435 88.512,-89.7494 65.882,-79.6111"/>
<polygon fill="#191970" stroke="#191970" points="67.2649,-76.3955 56.7079,-75.5011 64.4029,-82.7838 67.2649,-76.3955"/>
</g>
<!-- Node2 -->
<g id="node3" class="node">
<title>Node2</title>
<g id="a_node3"><a xlink:href="dll_8hpp_source.html" target="_top" xlink:title="dll.hpp">
<polygon fill="#ffffff" stroke="#000000" points="24,-.5 24,-19.5 83,-19.5 83,-.5 24,-.5"/>
<text text-anchor="middle" x="53.5" y="-7.5" font-family="'Consolas',monospace" font-size="10.00" fill="#000000">dll.hpp</text>
</a>
</g>
</g>
<!-- Node0&#45;&gt;Node2 -->
<g id="edge3" class="edge">
<title>Node0&#45;&gt;Node2</title>
<path fill="none" stroke="#191970" d="M151.3772,-112.4509C133.2151,-93.4401 92.328,-50.6423 69.5653,-26.816"/>
<polygon fill="#191970" stroke="#191970" points="72.0383,-24.3378 62.5997,-19.5249 66.9768,-29.1733 72.0383,-24.3378"/>
</g>
<!-- Node3 -->
<g id="node4" class="node">
<title>Node3</title>
<g id="a_node4"><a xlink:href="Vec2_8hpp.html" target="_top" xlink:title="Vec2.hpp">
<polygon fill="#ffffff" stroke="#000000" points="128,-56.5 128,-75.5 193,-75.5 193,-56.5 128,-56.5"/>
<text text-anchor="middle" x="160.5" y="-63.5" font-family="'Consolas',monospace" font-size="10.00" fill="#000000">Vec2.hpp</text>
</a>
</g>
</g>
<!-- Node0&#45;&gt;Node3 -->
<g id="edge4" class="edge">
<title>Node0&#45;&gt;Node3</title>
<path fill="none" stroke="#191970" d="M160.5,-112.2455C160.5,-104.9382 160.5,-94.6944 160.5,-85.7046"/>
<polygon fill="#191970" stroke="#191970" points="164.0001,-85.6426 160.5,-75.6427 157.0001,-85.6427 164.0001,-85.6426"/>
</g>
<!-- Node6 -->
<g id="node7" class="node">
<title>Node6</title>
<polygon fill="#ffffff" stroke="#bfbfbf" points="211,-56.5 211,-75.5 264,-75.5 264,-56.5 211,-56.5"/>
<text text-anchor="middle" x="237.5" y="-63.5" font-family="'Consolas',monospace" font-size="10.00" fill="#000000">memory</text>
</g>
<!-- Node0&#45;&gt;Node6 -->
<g id="edge8" class="edge">
<title>Node0&#45;&gt;Node6</title>
<path fill="none" stroke="#191970" d="M173.9124,-112.2455C185.5057,-103.814 202.4748,-91.4729 215.9678,-81.6598"/>
<polygon fill="#191970" stroke="#191970" points="218.2126,-84.355 224.2413,-75.6427 214.0953,-78.6938 218.2126,-84.355"/>
</g>
<!-- Node7 -->
<g id="node8" class="node">
<title>Node7</title>
<polygon fill="#ffffff" stroke="#bfbfbf" points="282,-56.5 282,-75.5 335,-75.5 335,-56.5 282,-56.5"/>
<text text-anchor="middle" x="308.5" y="-63.5" font-family="'Consolas',monospace" font-size="10.00" fill="#000000">string</text>
</g>
<!-- Node0&#45;&gt;Node7 -->
<g id="edge9" class="edge">
<title>Node0&#45;&gt;Node7</title>
<path fill="none" stroke="#191970" d="M185.9421,-112.3733C210.2326,-103.1822 247.0208,-89.2624 273.9543,-79.0713"/>
<polygon fill="#191970" stroke="#191970" points="275.2757,-82.3136 283.3899,-75.5011 272.7984,-75.7666 275.2757,-82.3136"/>
</g>
<!-- Node1&#45;&gt;Node2 -->
<g id="edge2" class="edge">
<title>Node1&#45;&gt;Node2</title>
<path fill="none" stroke="#191970" d="M38.6354,-56.2455C41.01,-48.8579 44.3493,-38.4689 47.2615,-29.4087"/>
<polygon fill="#191970" stroke="#191970" points="50.6725,-30.234 50.4006,-19.6427 44.0083,-28.0919 50.6725,-30.234"/>
</g>
<!-- Node3&#45;&gt;Node2 -->
<g id="edge5" class="edge">
<title>Node3&#45;&gt;Node2</title>
<path fill="none" stroke="#191970" d="M141.862,-56.2455C125.0614,-47.4527 100.1366,-34.4079 81.0382,-24.4125"/>
<polygon fill="#191970" stroke="#191970" points="82.4073,-21.1787 71.9244,-19.6427 79.1614,-27.3807 82.4073,-21.1787"/>
</g>
<!-- Node4 -->
<g id="node5" class="node">
<title>Node4</title>
<polygon fill="#ffffff" stroke="#bfbfbf" points="101,-.5 101,-19.5 220,-19.5 220,-.5 101,-.5"/>
<text text-anchor="middle" x="160.5" y="-7.5" font-family="'Consolas',monospace" font-size="10.00" fill="#000000">boost/version.hpp</text>
</g>
<!-- Node3&#45;&gt;Node4 -->
<g id="edge6" class="edge">
<title>Node3&#45;&gt;Node4</title>
<path fill="none" stroke="#191970" d="M160.5,-56.2455C160.5,-48.9382 160.5,-38.6944 160.5,-29.7046"/>
<polygon fill="#191970" stroke="#191970" points="164.0001,-29.6426 160.5,-19.6427 157.0001,-29.6427 164.0001,-29.6426"/>
</g>
<!-- Node5 -->
<g id="node6" class="node">
<title>Node5</title>
<polygon fill="#ffffff" stroke="#bfbfbf" points="238,-.5 238,-19.5 291,-19.5 291,-.5 238,-.5"/>
<text text-anchor="middle" x="264.5" y="-7.5" font-family="'Consolas',monospace" font-size="10.00" fill="#000000">iosfwd</text>
</g>
<!-- Node3&#45;&gt;Node5 -->
<g id="edge7" class="edge">
<title>Node3&#45;&gt;Node5</title>
<path fill="none" stroke="#191970" d="M178.6154,-56.2455C194.945,-47.4527 219.171,-34.4079 237.7339,-24.4125"/>
<polygon fill="#191970" stroke="#191970" points="239.4468,-27.4654 246.5922,-19.6427 236.1281,-21.3021 239.4468,-27.4654"/>
</g>
</g>
</svg>
