<?xml version="1.0" encoding="UTF-8" standalone="no"?>
<!DOCTYPE svg PUBLIC "-//W3C//DTD SVG 1.1//EN"
 "http://www.w3.org/Graphics/SVG/1.1/DTD/svg11.dtd">
<!-- Generated by graphviz version 5.0.0 (0)
 -->
<!-- Title: jngl/font.hpp Pages: 1 -->
<svg width="322pt" height="137pt"
 viewBox="0.00 0.00 322.00 137.00" xmlns="http://www.w3.org/2000/svg" xmlns:xlink="http://www.w3.org/1999/xlink">
<g id="graph0" class="graph" transform="scale(1 1) rotate(0) translate(4 133)">
<title>jngl/font.hpp</title>
<!-- Node1 -->
<g id="node1" class="node">
<title>Node1</title>
<g id="a_node1"><a xlink:title="Contains jngl::Font class and related functions.">
<polygon fill="#999999" stroke="#666666" points="225,-129 130,-129 130,-110 225,-110 225,-129"/>
<text text-anchor="middle" x="177.5" y="-117" font-family="ui-monospace,monospace" font-size="10.00">jngl/font.hpp</text>
</a>
</g>
</g>
<!-- Node2 -->
<g id="node2" class="node">
<title>Node2</title>
<g id="a_node2"><a xlink:href="Rgb_8hpp.html" target="_top" xlink:title="Contains jngl::Rgb class.">
<polygon fill="white" stroke="#666666" points="74,-74 15,-74 15,-55 74,-55 74,-74"/>
<text text-anchor="middle" x="44.5" y="-62" font-family="ui-monospace,monospace" font-size="10.00">Rgb.hpp</text>
</a>
</g>
</g>
<!-- Node1&#45;&gt;Node2 -->
<g id="edge1" class="edge">
<title>Node1&#45;&gt;Node2</title>
<path fill="none" stroke="#63b8ff" d="M156.13,-109.98C134.35,-101.3 100.34,-87.75 75.58,-77.88"/>
<polygon fill="#63b8ff" stroke="#63b8ff" points="76.84,-74.62 66.26,-74.17 74.25,-81.12 76.84,-74.62"/>
</g>
<!-- Node4 -->
<g id="node4" class="node">
<title>Node4</title>
<g id="a_node4"><a xlink:href="Vec2_8hpp.html" target="_top" xlink:title="Contains jngl::Vec2 class.">
<polygon fill="white" stroke="#666666" points="172,-74 107,-74 107,-55 172,-55 172,-74"/>
<text text-anchor="middle" x="139.5" y="-62" font-family="ui-monospace,monospace" font-size="10.00">Vec2.hpp</text>
</a>
</g>
</g>
<!-- Node1&#45;&gt;Node4 -->
<g id="edge3" class="edge">
<title>Node1&#45;&gt;Node4</title>
<path fill="none" stroke="#63b8ff" d="M171.23,-109.75C165.91,-102.34 158.14,-91.5 151.62,-82.41"/>
<polygon fill="#63b8ff" stroke="#63b8ff" points="154.33,-80.18 145.66,-74.09 148.64,-84.26 154.33,-80.18"/>
</g>
<!-- Node7 -->
<g id="node7" class="node">
<title>Node7</title>
<g id="a_node7"><a target="_parent" xlink:href="http://en.cppreference.com/w/cpp/header/memory.html" xlink:title=" ">
<polygon fill="white" stroke="#666666" points="243,-74 190,-74 190,-55 243,-55 243,-74"/>
<text text-anchor="middle" x="216.5" y="-62" font-family="ui-monospace,monospace" font-size="10.00">memory</text>
</a>
</g>
</g>
<!-- Node1&#45;&gt;Node7 -->
<g id="edge6" class="edge">
<title>Node1&#45;&gt;Node7</title>
<path fill="none" stroke="#63b8ff" d="M183.94,-109.75C189.39,-102.34 197.36,-91.5 204.06,-82.41"/>
<polygon fill="#63b8ff" stroke="#63b8ff" points="207.07,-84.22 210.18,-74.09 201.43,-80.07 207.07,-84.22"/>
</g>
<!-- Node8 -->
<g id="node8" class="node">
<title>Node8</title>
<g id="a_node8"><a target="_parent" xlink:href="http://en.cppreference.com/w/cpp/header/string.html" xlink:title=" ">
<polygon fill="white" stroke="#666666" points="314,-74 261,-74 261,-55 314,-55 314,-74"/>
<text text-anchor="middle" x="287.5" y="-62" font-family="ui-monospace,monospace" font-size="10.00">string</text>
</a>
</g>
</g>
<!-- Node1&#45;&gt;Node8 -->
<g id="edge7" class="edge">
<title>Node1&#45;&gt;Node8</title>
<path fill="none" stroke="#63b8ff" d="M195.17,-109.98C212.79,-101.5 240.08,-88.35 260.43,-78.54"/>
<polygon fill="#63b8ff" stroke="#63b8ff" points="262.02,-81.66 269.51,-74.17 258.98,-75.36 262.02,-81.66"/>
</g>
<!-- Node3 -->
<g id="node3" class="node">
<title>Node3</title>
<g id="a_node3"><a target="_parent" xlink:href="http://en.cppreference.com/w/cpp/header/cstdint.html" xlink:title=" ">
<polygon fill="white" stroke="#666666" points="59,-19 0,-19 0,0 59,0 59,-19"/>
<text text-anchor="middle" x="29.5" y="-7" font-family="ui-monospace,monospace" font-size="10.00">cstdint</text>
</a>
</g>
</g>
<!-- Node2&#45;&gt;Node3 -->
<g id="edge2" class="edge">
<title>Node2&#45;&gt;Node3</title>
<path fill="none" stroke="#63b8ff" d="M42.02,-54.75C40.04,-47.72 37.18,-37.62 34.69,-28.84"/>
<polygon fill="#63b8ff" stroke="#63b8ff" points="38.02,-27.76 31.93,-19.09 31.29,-29.66 38.02,-27.76"/>
</g>
<!-- Node5 -->
<g id="node5" class="node">
<title>Node5</title>
<g id="a_node5"><a xlink:title=" ">
<polygon fill="#e0e0e0" stroke="#999999" points="202,-19 77,-19 77,0 202,0 202,-19"/>
<text text-anchor="middle" x="139.5" y="-7" font-family="ui-monospace,monospace" font-size="10.00">boost/qvm_lite.hpp</text>
</a>
</g>
</g>
<!-- Node4&#45;&gt;Node5 -->
<g id="edge4" class="edge">
<title>Node4&#45;&gt;Node5</title>
<path fill="none" stroke="#63b8ff" d="M139.5,-54.75C139.5,-47.8 139.5,-37.85 139.5,-29.13"/>
<polygon fill="#63b8ff" stroke="#63b8ff" points="143,-29.09 139.5,-19.09 136,-29.09 143,-29.09"/>
</g>
<!-- Node6 -->
<g id="node6" class="node">
<title>Node6</title>
<g id="a_node6"><a target="_parent" xlink:href="http://en.cppreference.com/w/cpp/header/iosfwd.html" xlink:title=" ">
<polygon fill="white" stroke="#666666" points="273,-19 220,-19 220,0 273,0 273,-19"/>
<text text-anchor="middle" x="246.5" y="-7" font-family="ui-monospace,monospace" font-size="10.00">iosfwd</text>
</a>
</g>
</g>
<!-- Node4&#45;&gt;Node6 -->
<g id="edge5" class="edge">
<title>Node4&#45;&gt;Node6</title>
<path fill="none" stroke="#63b8ff" d="M156.69,-54.98C173.75,-46.54 200.13,-33.47 219.9,-23.68"/>
<polygon fill="#63b8ff" stroke="#63b8ff" points="221.59,-26.75 229,-19.17 218.48,-20.47 221.59,-26.75"/>
</g>
</g>
</svg>
