<?xml version="1.0" encoding="UTF-8" standalone="no"?>
<!DOCTYPE svg PUBLIC "-//W3C//DTD SVG 1.1//EN"
 "http://www.w3.org/Graphics/SVG/1.1/DTD/svg11.dtd">
<!-- Generated by graphviz version 5.0.0 (0)
 -->
<!-- Title: jngl/font.hpp Pages: 1 -->
<svg width="358pt" height="192pt"
 viewBox="0.00 0.00 358.00 192.00" xmlns="http://www.w3.org/2000/svg" xmlns:xlink="http://www.w3.org/1999/xlink">
<g id="graph0" class="graph" transform="scale(1 1) rotate(0) translate(4 188)">
<title>jngl/font.hpp</title>
<!-- Node1 -->
<g id="node1" class="node">
<title>Node1</title>
<g id="a_node1"><a xlink:title="Contains jngl::Font class and related functions.">
<polygon fill="#999999" stroke="#666666" points="223,-184 128,-184 128,-165 223,-165 223,-184"/>
<text text-anchor="middle" x="175.5" y="-172" font-family="ui-monospace,monospace" font-size="10.00">jngl/font.hpp</text>
</a>
</g>
</g>
<!-- Node2 -->
<g id="node2" class="node">
<title>Node2</title>
<g id="a_node2"><a xlink:href="Rgb_8hpp.html" target="_top" xlink:title="Contains jngl::Rgb class.">
<polygon fill="white" stroke="#666666" points="59,-74 0,-74 0,-55 59,-55 59,-74"/>
<text text-anchor="middle" x="29.5" y="-62" font-family="ui-monospace,monospace" font-size="10.00">Rgb.hpp</text>
</a>
</g>
</g>
<!-- Node1&#45;&gt;Node2 -->
<g id="edge1" class="edge">
<title>Node1&#45;&gt;Node2</title>
<path fill="none" stroke="#63b8ff" d="M127.8,-167.54C101.15,-161.84 69.23,-150.71 48.5,-129 36.96,-116.92 32.4,-98.11 30.61,-84.1"/>
<polygon fill="#63b8ff" stroke="#63b8ff" points="34.1,-83.75 29.69,-74.11 27.12,-84.39 34.1,-83.75"/>
</g>
<!-- Node4 -->
<g id="node4" class="node">
<title>Node4</title>
<g id="a_node4"><a xlink:href="Rgba_8hpp.html" target="_top" xlink:title="Contains jngl::Rgba class.">
<polygon fill="white" stroke="#666666" points="123,-129 58,-129 58,-110 123,-110 123,-129"/>
<text text-anchor="middle" x="90.5" y="-117" font-family="ui-monospace,monospace" font-size="10.00">Rgba.hpp</text>
</a>
</g>
</g>
<!-- Node1&#45;&gt;Node4 -->
<g id="edge3" class="edge">
<title>Node1&#45;&gt;Node4</title>
<path fill="none" stroke="#63b8ff" d="M161.84,-164.98C148.66,-156.77 128.47,-144.18 112.93,-134.49"/>
<polygon fill="#63b8ff" stroke="#63b8ff" points="114.74,-131.49 104.41,-129.17 111.04,-137.43 114.74,-131.49"/>
</g>
<!-- Node5 -->
<g id="node5" class="node">
<title>Node5</title>
<g id="a_node5"><a xlink:href="Vec2_8hpp.html" target="_top" xlink:title="Contains jngl::Vec2 class.">
<polygon fill="white" stroke="#666666" points="208,-129 143,-129 143,-110 208,-110 208,-129"/>
<text text-anchor="middle" x="175.5" y="-117" font-family="ui-monospace,monospace" font-size="10.00">Vec2.hpp</text>
</a>
</g>
</g>
<!-- Node1&#45;&gt;Node5 -->
<g id="edge6" class="edge">
<title>Node1&#45;&gt;Node5</title>
<path fill="none" stroke="#63b8ff" d="M175.5,-164.75C175.5,-157.8 175.5,-147.85 175.5,-139.13"/>
<polygon fill="#63b8ff" stroke="#63b8ff" points="179,-139.09 175.5,-129.09 172,-139.09 179,-139.09"/>
</g>
<!-- Node8 -->
<g id="node8" class="node">
<title>Node8</title>
<g id="a_node8"><a target="_parent" xlink:href="http://en.cppreference.com/w/cpp/header/memory.html" xlink:title=" ">
<polygon fill="white" stroke="#666666" points="279,-129 226,-129 226,-110 279,-110 279,-129"/>
<text text-anchor="middle" x="252.5" y="-117" font-family="ui-monospace,monospace" font-size="10.00">memory</text>
</a>
</g>
</g>
<!-- Node1&#45;&gt;Node8 -->
<g id="edge9" class="edge">
<title>Node1&#45;&gt;Node8</title>
<path fill="none" stroke="#63b8ff" d="M187.87,-164.98C199.59,-156.92 217.42,-144.65 231.39,-135.03"/>
<polygon fill="#63b8ff" stroke="#63b8ff" points="233.65,-137.72 239.9,-129.17 229.68,-131.96 233.65,-137.72"/>
</g>
<!-- Node9 -->
<g id="node9" class="node">
<title>Node9</title>
<g id="a_node9"><a target="_parent" xlink:href="http://en.cppreference.com/w/cpp/header/string.html" xlink:title=" ">
<polygon fill="white" stroke="#666666" points="350,-129 297,-129 297,-110 350,-110 350,-129"/>
<text text-anchor="middle" x="323.5" y="-117" font-family="ui-monospace,monospace" font-size="10.00">string</text>
</a>
</g>
</g>
<!-- Node1&#45;&gt;Node9 -->
<g id="edge10" class="edge">
<title>Node1&#45;&gt;Node9</title>
<path fill="none" stroke="#63b8ff" d="M199.28,-164.98C223.73,-156.23 262.03,-142.51 289.65,-132.62"/>
<polygon fill="#63b8ff" stroke="#63b8ff" points="291.05,-135.84 299.29,-129.17 288.69,-129.25 291.05,-135.84"/>
</g>
<!-- Node3 -->
<g id="node3" class="node">
<title>Node3</title>
<g id="a_node3"><a target="_parent" xlink:href="http://en.cppreference.com/w/cpp/header/cstdint.html" xlink:title=" ">
<polygon fill="white" stroke="#666666" points="88,-19 29,-19 29,0 88,0 88,-19"/>
<text text-anchor="middle" x="58.5" y="-7" font-family="ui-monospace,monospace" font-size="10.00">cstdint</text>
</a>
</g>
</g>
<!-- Node2&#45;&gt;Node3 -->
<g id="edge2" class="edge">
<title>Node2&#45;&gt;Node3</title>
<path fill="none" stroke="#63b8ff" d="M34.29,-54.75C38.26,-47.49 44.03,-36.95 48.93,-27.98"/>
<polygon fill="#63b8ff" stroke="#63b8ff" points="52.07,-29.54 53.8,-19.09 45.93,-26.18 52.07,-29.54"/>
</g>
<!-- Node4&#45;&gt;Node2 -->
<g id="edge4" class="edge">
<title>Node4&#45;&gt;Node2</title>
<path fill="none" stroke="#63b8ff" d="M80.7,-109.98C71.68,-102.15 58.09,-90.34 47.18,-80.86"/>
<polygon fill="#63b8ff" stroke="#63b8ff" points="49.32,-78.09 39.48,-74.17 44.73,-83.37 49.32,-78.09"/>
</g>
<!-- Node4&#45;&gt;Node3 -->
<g id="edge5" class="edge">
<title>Node4&#45;&gt;Node3</title>
<path fill="none" stroke="#63b8ff" d="M87.88,-109.66C82.68,-92.09 70.93,-52.45 63.97,-28.95"/>
<polygon fill="#63b8ff" stroke="#63b8ff" points="67.26,-27.75 61.07,-19.16 60.55,-29.74 67.26,-27.75"/>
</g>
<!-- Node6 -->
<g id="node6" class="node">
<title>Node6</title>
<g id="a_node6"><a xlink:title=" ">
<polygon fill="#e0e0e0" stroke="#999999" points="241,-74 116,-74 116,-55 241,-55 241,-74"/>
<text text-anchor="middle" x="178.5" y="-62" font-family="ui-monospace,monospace" font-size="10.00">boost/qvm_lite.hpp</text>
</a>
</g>
</g>
<!-- Node5&#45;&gt;Node6 -->
<g id="edge7" class="edge">
<title>Node5&#45;&gt;Node6</title>
<path fill="none" stroke="#63b8ff" d="M176,-109.75C176.39,-102.8 176.95,-92.85 177.45,-84.13"/>
<polygon fill="#63b8ff" stroke="#63b8ff" points="180.94,-84.27 178.01,-74.09 173.95,-83.88 180.94,-84.27"/>
</g>
<!-- Node7 -->
<g id="node7" class="node">
<title>Node7</title>
<g id="a_node7"><a target="_parent" xlink:href="http://en.cppreference.com/w/cpp/header/iosfwd.html" xlink:title=" ">
<polygon fill="white" stroke="#666666" points="312,-74 259,-74 259,-55 312,-55 312,-74"/>
<text text-anchor="middle" x="285.5" y="-62" font-family="ui-monospace,monospace" font-size="10.00">iosfwd</text>
</a>
</g>
</g>
<!-- Node5&#45;&gt;Node7 -->
<g id="edge8" class="edge">
<title>Node5&#45;&gt;Node7</title>
<path fill="none" stroke="#63b8ff" d="M193.17,-109.98C210.79,-101.5 238.08,-88.35 258.43,-78.54"/>
<polygon fill="#63b8ff" stroke="#63b8ff" points="260.02,-81.66 267.51,-74.17 256.98,-75.36 260.02,-81.66"/>
</g>
</g>
</svg>
