<?xml version="1.0" encoding="UTF-8" standalone="no"?>
<!DOCTYPE svg PUBLIC "-//W3C//DTD SVG 1.1//EN"
 "http://www.w3.org/Graphics/SVG/1.1/DTD/svg11.dtd">
<!-- Generated by graphviz version 9.0.0 (20230911.1827)
 -->
<!-- Title: jngl/font.hpp Pages: 1 -->
<svg width="176pt" height="138pt"
 viewBox="0.00 0.00 176.00 137.75" xmlns="http://www.w3.org/2000/svg" xmlns:xlink="http://www.w3.org/1999/xlink">
<g id="graph0" class="graph" transform="scale(1 1) rotate(0) translate(4 133.75)">
<title>jngl/font.hpp</title>
<!-- Node1 -->
<g id="Node000001" class="node">
<title>Node1</title>
<g id="a_Node000001"><a xlink:title="Contains jngl::Font class and related functions.">
<polygon fill="#999999" stroke="#666666" points="94,-129.75 0,-129.75 0,-110.5 94,-110.5 94,-129.75"/>
<text text-anchor="middle" x="47" y="-116.25" font-family="ui-monospace,monospace" font-size="10.00">jngl/font.hpp</text>
</a>
</g>
</g>
<!-- Node2 -->
<g id="Node000002" class="node">
<title>Node2</title>
<g id="a_Node000002"><a xlink:href="jngl_8hpp.html" target="_top" xlink:title="Includes all JNGL headers except for init.hpp.">
<polygon fill="white" stroke="#666666" points="79,-19.25 15,-19.25 15,0 79,0 79,-19.25"/>
<text text-anchor="middle" x="47" y="-5.75" font-family="ui-monospace,monospace" font-size="10.00">jngl.hpp</text>
</a>
</g>
</g>
<!-- Node1&#45;&gt;Node2 -->
<g id="edge1_Node000001_Node000002" class="edge">
<title>Node1&#45;&gt;Node2</title>
<g id="a_edge1_Node000001_Node000002"><a xlink:title=" ">
<path fill="none" stroke="#63b8ff" d="M31.31,-101.1C25.64,-93.43 19.92,-84.06 17,-74.5 10.71,-53.87 27.25,-31.42 38.2,-19.4"/>
<polygon fill="#63b8ff" stroke="#63b8ff" points="28.57,-103.27 37.56,-108.89 34.03,-98.89 28.57,-103.27"/>
</a>
</g>
</g>
<!-- Node3 -->
<g id="Node000003" class="node">
<title>Node3</title>
<g id="a_Node000003"><a xlink:href="OutlinedFont_8hpp.html" target="_top" xlink:title="Contains jngl::OutlinedFont class.">
<polygon fill="white" stroke="#666666" points="168,-74.5 26,-74.5 26,-55.25 168,-55.25 168,-74.5"/>
<text text-anchor="middle" x="97" y="-61" font-family="ui-monospace,monospace" font-size="10.00">jngl/OutlinedFont.hpp</text>
</a>
</g>
</g>
<!-- Node1&#45;&gt;Node3 -->
<g id="edge2_Node000001_Node000003" class="edge">
<title>Node1&#45;&gt;Node3</title>
<g id="a_edge2_Node000001_Node000003"><a xlink:title=" ">
<path fill="none" stroke="#63b8ff" d="M63.04,-102.04C71.53,-93 81.6,-82.27 88.56,-74.86"/>
<polygon fill="#63b8ff" stroke="#63b8ff" points="60.59,-99.54 56.29,-109.23 65.69,-104.33 60.59,-99.54"/>
</a>
</g>
</g>
<!-- Node3&#45;&gt;Node2 -->
<g id="edge3_Node000003_Node000002" class="edge">
<title>Node3&#45;&gt;Node2</title>
<g id="a_edge3_Node000003_Node000002"><a xlink:title=" ">
<path fill="none" stroke="#63b8ff" d="M80.96,-46.79C72.47,-37.75 62.4,-27.02 55.44,-19.61"/>
<polygon fill="#63b8ff" stroke="#63b8ff" points="78.31,-49.08 87.71,-53.98 83.41,-44.29 78.31,-49.08"/>
</a>
</g>
</g>
</g>
</svg>
