<?xml version="1.0" encoding="UTF-8" standalone="no"?>
<!DOCTYPE svg PUBLIC "-//W3C//DTD SVG 1.1//EN"
 "http://www.w3.org/Graphics/SVG/1.1/DTD/svg11.dtd">
<!-- Generated by graphviz version 2.40.1 (0)
 -->
<!-- Title: jngl/font.hpp Pages: 1 -->
<svg width="319pt" height="140pt"
 viewBox="0.00 0.00 319.00 140.00" xmlns="http://www.w3.org/2000/svg" xmlns:xlink="http://www.w3.org/1999/xlink">
<g id="graph0" class="graph" transform="scale(1 1) rotate(0) translate(4 136)">
<title>jngl/font.hpp</title>
<polygon fill="#ffffff" stroke="transparent" points="-4,4 -4,-136 315,-136 315,4 -4,4"/>
<!-- Node0 -->
<g id="node1" class="node">
<title>Node0</title>
<g id="a_node1"><a xlink:title=" ">
<polygon fill="#bfbfbf" stroke="#000000" points="127,-112.5 127,-131.5 222,-131.5 222,-112.5 127,-112.5"/>
<text text-anchor="middle" x="174.5" y="-119.5" font-family="'Consolas',monospace" font-size="10.00" fill="#000000">jngl/font.hpp</text>
</a>
</g>
</g>
<!-- Node1 -->
<g id="node2" class="node">
<title>Node1</title>
<g id="a_node2"><a xlink:href="Color_8hpp.html" target="_top" xlink:title=" ">
<polygon fill="#ffffff" stroke="#000000" points="4,-56.5 4,-75.5 75,-75.5 75,-56.5 4,-56.5"/>
<text text-anchor="middle" x="39.5" y="-63.5" font-family="'Consolas',monospace" font-size="10.00" fill="#000000">Color.hpp</text>
</a>
</g>
</g>
<!-- Node0&#45;&gt;Node1 -->
<g id="edge1" class="edge">
<title>Node0&#45;&gt;Node1</title>
<path fill="none" stroke="#191970" d="M151.2927,-112.3733C129.3301,-103.2629 96.1668,-89.5062 71.6599,-79.3404"/>
<polygon fill="#191970" stroke="#191970" points="72.9824,-76.0999 62.4045,-75.5011 70.3003,-82.5657 72.9824,-76.0999"/>
</g>
<!-- Node3 -->
<g id="node4" class="node">
<title>Node3</title>
<g id="a_node4"><a xlink:href="Vec2_8hpp.html" target="_top" xlink:title=" ">
<polygon fill="#ffffff" stroke="#000000" points="104,-56.5 104,-75.5 169,-75.5 169,-56.5 104,-56.5"/>
<text text-anchor="middle" x="136.5" y="-63.5" font-family="'Consolas',monospace" font-size="10.00" fill="#000000">Vec2.hpp</text>
</a>
</g>
</g>
<!-- Node0&#45;&gt;Node3 -->
<g id="edge3" class="edge">
<title>Node0&#45;&gt;Node3</title>
<path fill="none" stroke="#191970" d="M167.8809,-112.2455C162.5954,-104.4564 155.0459,-93.3308 148.6762,-83.9439"/>
<polygon fill="#191970" stroke="#191970" points="151.5545,-81.9522 143.0432,-75.6427 145.7621,-85.8827 151.5545,-81.9522"/>
</g>
<!-- Node6 -->
<g id="node7" class="node">
<title>Node6</title>
<g id="a_node7"><a doxygen="/w/doc/cppreference-doxygen-web.tag.xml:http://en.cppreference.com/w/" xlink:href="http://en.cppreference.com/w/cpp/header/memory.html" xlink:title=" ">
<polygon fill="#ffffff" stroke="#000000" points="187,-56.5 187,-75.5 240,-75.5 240,-56.5 187,-56.5"/>
<text text-anchor="middle" x="213.5" y="-63.5" font-family="'Consolas',monospace" font-size="10.00" fill="#000000">memory</text>
</a>
</g>
</g>
<!-- Node0&#45;&gt;Node6 -->
<g id="edge6" class="edge">
<title>Node0&#45;&gt;Node6</title>
<path fill="none" stroke="#191970" d="M181.2933,-112.2455C186.7178,-104.4564 194.4661,-93.3308 201.0033,-83.9439"/>
<polygon fill="#191970" stroke="#191970" points="203.9417,-85.849 206.7846,-75.6427 198.1975,-81.8485 203.9417,-85.849"/>
</g>
<!-- Node7 -->
<g id="node8" class="node">
<title>Node7</title>
<g id="a_node8"><a doxygen="/w/doc/cppreference-doxygen-web.tag.xml:http://en.cppreference.com/w/" xlink:href="http://en.cppreference.com/w/cpp/header/string.html" xlink:title=" ">
<polygon fill="#ffffff" stroke="#000000" points="258,-56.5 258,-75.5 311,-75.5 311,-56.5 258,-56.5"/>
<text text-anchor="middle" x="284.5" y="-63.5" font-family="'Consolas',monospace" font-size="10.00" fill="#000000">string</text>
</a>
</g>
</g>
<!-- Node0&#45;&gt;Node7 -->
<g id="edge7" class="edge">
<title>Node0&#45;&gt;Node7</title>
<path fill="none" stroke="#191970" d="M193.6605,-112.2455C211.0111,-103.4125 236.7901,-90.2887 256.4583,-80.2758"/>
<polygon fill="#191970" stroke="#191970" points="258.2353,-83.2986 265.559,-75.6427 255.0595,-77.0605 258.2353,-83.2986"/>
</g>
<!-- Node2 -->
<g id="node3" class="node">
<title>Node2</title>
<g id="a_node3"><a xlink:href="dll_8hpp_source.html" target="_top" xlink:title=" ">
<polygon fill="#ffffff" stroke="#000000" points="0,-.5 0,-19.5 59,-19.5 59,-.5 0,-.5"/>
<text text-anchor="middle" x="29.5" y="-7.5" font-family="'Consolas',monospace" font-size="10.00" fill="#000000">dll.hpp</text>
</a>
</g>
</g>
<!-- Node1&#45;&gt;Node2 -->
<g id="edge2" class="edge">
<title>Node1&#45;&gt;Node2</title>
<path fill="none" stroke="#191970" d="M37.7581,-56.2455C36.4533,-48.9382 34.624,-38.6944 33.0187,-29.7046"/>
<polygon fill="#191970" stroke="#191970" points="36.4254,-28.8717 31.2219,-19.6427 29.5344,-30.1022 36.4254,-28.8717"/>
</g>
<!-- Node4 -->
<g id="node5" class="node">
<title>Node4</title>
<g id="a_node5"><a xlink:title=" ">
<polygon fill="#ffffff" stroke="#bfbfbf" points="77,-.5 77,-19.5 196,-19.5 196,-.5 77,-.5"/>
<text text-anchor="middle" x="136.5" y="-7.5" font-family="'Consolas',monospace" font-size="10.00" fill="#000000">boost/version.hpp</text>
</a>
</g>
</g>
<!-- Node3&#45;&gt;Node4 -->
<g id="edge4" class="edge">
<title>Node3&#45;&gt;Node4</title>
<path fill="none" stroke="#191970" d="M136.5,-56.2455C136.5,-48.9382 136.5,-38.6944 136.5,-29.7046"/>
<polygon fill="#191970" stroke="#191970" points="140.0001,-29.6426 136.5,-19.6427 133.0001,-29.6427 140.0001,-29.6426"/>
</g>
<!-- Node5 -->
<g id="node6" class="node">
<title>Node5</title>
<g id="a_node6"><a doxygen="/w/doc/cppreference-doxygen-web.tag.xml:http://en.cppreference.com/w/" xlink:href="http://en.cppreference.com/w/cpp/header/iosfwd.html" xlink:title=" ">
<polygon fill="#ffffff" stroke="#000000" points="214,-.5 214,-19.5 267,-19.5 267,-.5 214,-.5"/>
<text text-anchor="middle" x="240.5" y="-7.5" font-family="'Consolas',monospace" font-size="10.00" fill="#000000">iosfwd</text>
</a>
</g>
</g>
<!-- Node3&#45;&gt;Node5 -->
<g id="edge5" class="edge">
<title>Node3&#45;&gt;Node5</title>
<path fill="none" stroke="#191970" d="M154.6154,-56.2455C170.945,-47.4527 195.171,-34.4079 213.7339,-24.4125"/>
<polygon fill="#191970" stroke="#191970" points="215.4468,-27.4654 222.5922,-19.6427 212.1281,-21.3021 215.4468,-27.4654"/>
</g>
</g>
</svg>
