<?xml version="1.0" encoding="UTF-8" standalone="no"?>
<!DOCTYPE svg PUBLIC "-//W3C//DTD SVG 1.1//EN"
 "http://www.w3.org/Graphics/SVG/1.1/DTD/svg11.dtd">
<!-- Generated by graphviz version 2.40.1 (0)
 -->
<!-- Title: jngl/font.hpp Pages: 1 -->
<svg width="314pt" height="140pt"
 viewBox="0.00 0.00 314.00 140.00" xmlns="http://www.w3.org/2000/svg" xmlns:xlink="http://www.w3.org/1999/xlink">
<g id="graph0" class="graph" transform="scale(1 1) rotate(0) translate(4 136)">
<title>jngl/font.hpp</title>
<polygon fill="#ffffff" stroke="transparent" points="-4,4 -4,-136 310,-136 310,4 -4,4"/>
<!-- Node0 -->
<g id="node1" class="node">
<title>Node0</title>
<g id="a_node1"><a xlink:title=" ">
<polygon fill="#bfbfbf" stroke="#000000" points="122,-112.5 122,-131.5 217,-131.5 217,-112.5 122,-112.5"/>
<text text-anchor="middle" x="169.5" y="-119.5" font-family="'Consolas',monospace" font-size="10.00" fill="#000000">jngl/font.hpp</text>
</a>
</g>
</g>
<!-- Node1 -->
<g id="node2" class="node">
<title>Node1</title>
<g id="a_node2"><a xlink:href="Color_8hpp.html" target="_top" xlink:title=" ">
<polygon fill="#ffffff" stroke="#000000" points="0,-56.5 0,-75.5 71,-75.5 71,-56.5 0,-56.5"/>
<text text-anchor="middle" x="35.5" y="-63.5" font-family="'Consolas',monospace" font-size="10.00" fill="#000000">Color.hpp</text>
</a>
</g>
</g>
<!-- Node0&#45;&gt;Node1 -->
<g id="edge1" class="edge">
<title>Node0&#45;&gt;Node1</title>
<path fill="none" stroke="#191970" d="M146.4646,-112.3733C124.7612,-103.3032 92.0382,-89.6279 67.745,-79.4755"/>
<polygon fill="#191970" stroke="#191970" points="68.8111,-76.1278 58.2348,-75.5011 66.1119,-82.5865 68.8111,-76.1278"/>
</g>
<!-- Node3 -->
<g id="node4" class="node">
<title>Node3</title>
<g id="a_node4"><a xlink:href="Vec2_8hpp.html" target="_top" xlink:title=" ">
<polygon fill="#ffffff" stroke="#000000" points="99,-56.5 99,-75.5 164,-75.5 164,-56.5 99,-56.5"/>
<text text-anchor="middle" x="131.5" y="-63.5" font-family="'Consolas',monospace" font-size="10.00" fill="#000000">Vec2.hpp</text>
</a>
</g>
</g>
<!-- Node0&#45;&gt;Node3 -->
<g id="edge3" class="edge">
<title>Node0&#45;&gt;Node3</title>
<path fill="none" stroke="#191970" d="M162.8809,-112.2455C157.5954,-104.4564 150.0459,-93.3308 143.6762,-83.9439"/>
<polygon fill="#191970" stroke="#191970" points="146.5545,-81.9522 138.0432,-75.6427 140.7621,-85.8827 146.5545,-81.9522"/>
</g>
<!-- Node6 -->
<g id="node7" class="node">
<title>Node6</title>
<g id="a_node7"><a doxygen="/w/doc/cppreference-doxygen-web.tag.xml:http://en.cppreference.com/w/" xlink:href="http://en.cppreference.com/w/cpp/header/memory.html" xlink:title=" ">
<polygon fill="#ffffff" stroke="#000000" points="182,-56.5 182,-75.5 235,-75.5 235,-56.5 182,-56.5"/>
<text text-anchor="middle" x="208.5" y="-63.5" font-family="'Consolas',monospace" font-size="10.00" fill="#000000">memory</text>
</a>
</g>
</g>
<!-- Node0&#45;&gt;Node6 -->
<g id="edge7" class="edge">
<title>Node0&#45;&gt;Node6</title>
<path fill="none" stroke="#191970" d="M176.2933,-112.2455C181.7178,-104.4564 189.4661,-93.3308 196.0033,-83.9439"/>
<polygon fill="#191970" stroke="#191970" points="198.9417,-85.849 201.7846,-75.6427 193.1975,-81.8485 198.9417,-85.849"/>
</g>
<!-- Node7 -->
<g id="node8" class="node">
<title>Node7</title>
<g id="a_node8"><a doxygen="/w/doc/cppreference-doxygen-web.tag.xml:http://en.cppreference.com/w/" xlink:href="http://en.cppreference.com/w/cpp/header/string.html" xlink:title=" ">
<polygon fill="#ffffff" stroke="#000000" points="253,-56.5 253,-75.5 306,-75.5 306,-56.5 253,-56.5"/>
<text text-anchor="middle" x="279.5" y="-63.5" font-family="'Consolas',monospace" font-size="10.00" fill="#000000">string</text>
</a>
</g>
</g>
<!-- Node0&#45;&gt;Node7 -->
<g id="edge8" class="edge">
<title>Node0&#45;&gt;Node7</title>
<path fill="none" stroke="#191970" d="M188.6605,-112.2455C206.0111,-103.4125 231.7901,-90.2887 251.4583,-80.2758"/>
<polygon fill="#191970" stroke="#191970" points="253.2353,-83.2986 260.559,-75.6427 250.0595,-77.0605 253.2353,-83.2986"/>
</g>
<!-- Node2 -->
<g id="node3" class="node">
<title>Node2</title>
<g id="a_node3"><a xlink:href="dll_8hpp_source.html" target="_top" xlink:title=" ">
<polygon fill="#ffffff" stroke="#000000" points="1,-.5 1,-19.5 60,-19.5 60,-.5 1,-.5"/>
<text text-anchor="middle" x="30.5" y="-7.5" font-family="'Consolas',monospace" font-size="10.00" fill="#000000">dll.hpp</text>
</a>
</g>
</g>
<!-- Node1&#45;&gt;Node2 -->
<g id="edge2" class="edge">
<title>Node1&#45;&gt;Node2</title>
<path fill="none" stroke="#191970" d="M34.6291,-56.2455C33.9766,-48.9382 33.062,-38.6944 32.2593,-29.7046"/>
<polygon fill="#191970" stroke="#191970" points="35.7365,-29.2918 31.361,-19.6427 28.7642,-29.9143 35.7365,-29.2918"/>
</g>
<!-- Node3&#45;&gt;Node2 -->
<g id="edge4" class="edge">
<title>Node3&#45;&gt;Node2</title>
<path fill="none" stroke="#191970" d="M113.9071,-56.2455C98.121,-47.4928 74.7361,-34.527 56.7413,-24.5496"/>
<polygon fill="#191970" stroke="#191970" points="58.3341,-21.4308 47.8913,-19.6427 54.9397,-27.5528 58.3341,-21.4308"/>
</g>
<!-- Node4 -->
<g id="node5" class="node">
<title>Node4</title>
<g id="a_node5"><a xlink:title=" ">
<polygon fill="#ffffff" stroke="#bfbfbf" points="78,-.5 78,-19.5 197,-19.5 197,-.5 78,-.5"/>
<text text-anchor="middle" x="137.5" y="-7.5" font-family="'Consolas',monospace" font-size="10.00" fill="#000000">boost/version.hpp</text>
</a>
</g>
</g>
<!-- Node3&#45;&gt;Node4 -->
<g id="edge5" class="edge">
<title>Node3&#45;&gt;Node4</title>
<path fill="none" stroke="#191970" d="M132.5451,-56.2455C133.328,-48.9382 134.4256,-38.6944 135.3888,-29.7046"/>
<polygon fill="#191970" stroke="#191970" points="138.8815,-29.9587 136.4669,-19.6427 131.9214,-29.2129 138.8815,-29.9587"/>
</g>
<!-- Node5 -->
<g id="node6" class="node">
<title>Node5</title>
<g id="a_node6"><a doxygen="/w/doc/cppreference-doxygen-web.tag.xml:http://en.cppreference.com/w/" xlink:href="http://en.cppreference.com/w/cpp/header/iosfwd.html" xlink:title=" ">
<polygon fill="#ffffff" stroke="#000000" points="215,-.5 215,-19.5 268,-19.5 268,-.5 215,-.5"/>
<text text-anchor="middle" x="241.5" y="-7.5" font-family="'Consolas',monospace" font-size="10.00" fill="#000000">iosfwd</text>
</a>
</g>
</g>
<!-- Node3&#45;&gt;Node5 -->
<g id="edge6" class="edge">
<title>Node3&#45;&gt;Node5</title>
<path fill="none" stroke="#191970" d="M150.6605,-56.2455C168.0111,-47.4125 193.7901,-34.2887 213.4583,-24.2758"/>
<polygon fill="#191970" stroke="#191970" points="215.2353,-27.2986 222.559,-19.6427 212.0595,-21.0605 215.2353,-27.2986"/>
</g>
</g>
</svg>
