<?xml version="1.0" encoding="UTF-8" standalone="no"?>
<!DOCTYPE svg PUBLIC "-//W3C//DTD SVG 1.1//EN"
 "http://www.w3.org/Graphics/SVG/1.1/DTD/svg11.dtd">
<!-- Generated by graphviz version 2.43.0 (0)
 -->
<!-- Title: jngl/font.hpp Pages: 1 -->
<svg width="304pt" height="140pt"
 viewBox="0.00 0.00 304.00 140.00" xmlns="http://www.w3.org/2000/svg" xmlns:xlink="http://www.w3.org/1999/xlink">
<g id="graph0" class="graph" transform="scale(1 1) rotate(0) translate(4 136)">
<title>jngl/font.hpp</title>
<polygon fill="white" stroke="transparent" points="-4,4 -4,-136 300,-136 300,4 -4,4"/>
<!-- Node1 -->
<g id="node1" class="node">
<title>Node1</title>
<g id="a_node1"><a xlink:title="Contains jngl::Font class and related functions.">
<polygon fill="#bfbfbf" stroke="black" points="112,-112.5 112,-131.5 207,-131.5 207,-112.5 112,-112.5"/>
<text text-anchor="middle" x="159.5" y="-119.5" font-family="'Consolas',monospace" font-size="10.00">jngl/font.hpp</text>
</a>
</g>
</g>
<!-- Node2 -->
<g id="node2" class="node">
<title>Node2</title>
<g id="a_node2"><a xlink:href="Color_8hpp.html" target="_top" xlink:title="Contains jngl::Color class.">
<polygon fill="white" stroke="black" points="0,-56.5 0,-75.5 71,-75.5 71,-56.5 0,-56.5"/>
<text text-anchor="middle" x="35.5" y="-63.5" font-family="'Consolas',monospace" font-size="10.00">Color.hpp</text>
</a>
</g>
</g>
<!-- Node1&#45;&gt;Node2 -->
<g id="edge1" class="edge">
<title>Node1&#45;&gt;Node2</title>
<path fill="none" stroke="midnightblue" d="M139.85,-112.44C119.54,-103.6 87.6,-89.69 64.4,-79.59"/>
<polygon fill="midnightblue" stroke="midnightblue" points="65.62,-76.3 55.06,-75.52 62.83,-82.72 65.62,-76.3"/>
</g>
<!-- Node3 -->
<g id="node3" class="node">
<title>Node3</title>
<g id="a_node3"><a xlink:href="Vec2_8hpp.html" target="_top" xlink:title="Contains jngl::Vec2 class.">
<polygon fill="white" stroke="black" points="89,-56.5 89,-75.5 154,-75.5 154,-56.5 89,-56.5"/>
<text text-anchor="middle" x="121.5" y="-63.5" font-family="'Consolas',monospace" font-size="10.00">Vec2.hpp</text>
</a>
</g>
</g>
<!-- Node1&#45;&gt;Node3 -->
<g id="edge2" class="edge">
<title>Node1&#45;&gt;Node3</title>
<path fill="none" stroke="midnightblue" d="M153.23,-112.08C147.86,-104.46 139.98,-93.26 133.42,-83.94"/>
<polygon fill="midnightblue" stroke="midnightblue" points="136.28,-81.91 127.66,-75.75 130.55,-85.94 136.28,-81.91"/>
</g>
<!-- Node6 -->
<g id="node6" class="node">
<title>Node6</title>
<g id="a_node6"><a target="_parent" xlink:href="http://en.cppreference.com/w/cpp/header/memory.html" xlink:title=" ">
<polygon fill="white" stroke="black" points="172,-56.5 172,-75.5 225,-75.5 225,-56.5 172,-56.5"/>
<text text-anchor="middle" x="198.5" y="-63.5" font-family="'Consolas',monospace" font-size="10.00">memory</text>
</a>
</g>
</g>
<!-- Node1&#45;&gt;Node6 -->
<g id="edge5" class="edge">
<title>Node1&#45;&gt;Node6</title>
<path fill="none" stroke="midnightblue" d="M165.94,-112.08C171.45,-104.46 179.53,-93.26 186.26,-83.94"/>
<polygon fill="midnightblue" stroke="midnightblue" points="189.16,-85.91 192.18,-75.75 183.49,-81.81 189.16,-85.91"/>
</g>
<!-- Node7 -->
<g id="node7" class="node">
<title>Node7</title>
<g id="a_node7"><a target="_parent" xlink:href="http://en.cppreference.com/w/cpp/header/string.html" xlink:title=" ">
<polygon fill="white" stroke="black" points="243,-56.5 243,-75.5 296,-75.5 296,-56.5 243,-56.5"/>
<text text-anchor="middle" x="269.5" y="-63.5" font-family="'Consolas',monospace" font-size="10.00">string</text>
</a>
</g>
</g>
<!-- Node1&#45;&gt;Node7 -->
<g id="edge6" class="edge">
<title>Node1&#45;&gt;Node7</title>
<path fill="none" stroke="midnightblue" d="M177.17,-112.32C194.89,-103.62 222.4,-90.12 242.79,-80.11"/>
<polygon fill="midnightblue" stroke="midnightblue" points="244.44,-83.2 251.87,-75.65 241.35,-76.92 244.44,-83.2"/>
</g>
<!-- Node4 -->
<g id="node4" class="node">
<title>Node4</title>
<g id="a_node4"><a xlink:title=" ">
<polygon fill="white" stroke="#bfbfbf" points="10,-0.5 10,-19.5 129,-19.5 129,-0.5 10,-0.5"/>
<text text-anchor="middle" x="69.5" y="-7.5" font-family="'Consolas',monospace" font-size="10.00">boost/version.hpp</text>
</a>
</g>
</g>
<!-- Node3&#45;&gt;Node4 -->
<g id="edge3" class="edge">
<title>Node3&#45;&gt;Node4</title>
<path fill="none" stroke="midnightblue" d="M112.91,-56.08C105.34,-48.22 94.12,-36.57 84.99,-27.08"/>
<polygon fill="midnightblue" stroke="midnightblue" points="87.38,-24.53 77.93,-19.75 82.34,-29.38 87.38,-24.53"/>
</g>
<!-- Node5 -->
<g id="node5" class="node">
<title>Node5</title>
<g id="a_node5"><a target="_parent" xlink:href="http://en.cppreference.com/w/cpp/header/iosfwd.html" xlink:title=" ">
<polygon fill="white" stroke="black" points="147,-0.5 147,-19.5 200,-19.5 200,-0.5 147,-0.5"/>
<text text-anchor="middle" x="173.5" y="-7.5" font-family="'Consolas',monospace" font-size="10.00">iosfwd</text>
</a>
</g>
</g>
<!-- Node3&#45;&gt;Node5 -->
<g id="edge4" class="edge">
<title>Node3&#45;&gt;Node5</title>
<path fill="none" stroke="midnightblue" d="M130.09,-56.08C137.66,-48.22 148.88,-36.57 158.01,-27.08"/>
<polygon fill="midnightblue" stroke="midnightblue" points="160.66,-29.38 165.07,-19.75 155.62,-24.53 160.66,-29.38"/>
</g>
</g>
</svg>
