<?xml version="1.0" encoding="UTF-8" standalone="no"?>
<!DOCTYPE svg PUBLIC "-//W3C//DTD SVG 1.1//EN"
 "http://www.w3.org/Graphics/SVG/1.1/DTD/svg11.dtd">
<!-- Generated by graphviz version 2.38.0 (20140413.2041)
 -->
<!-- Title: jngl/font.hpp Pages: 1 -->
<svg width="343pt" height="140pt"
 viewBox="0.00 0.00 343.00 140.00" xmlns="http://www.w3.org/2000/svg" xmlns:xlink="http://www.w3.org/1999/xlink">
<g id="graph0" class="graph" transform="scale(1 1) rotate(0) translate(4 136)">
<title>jngl/font.hpp</title>
<polygon fill="white" stroke="none" points="-4,4 -4,-136 339,-136 339,4 -4,4"/>
<!-- Node1 -->
<g id="node1" class="node"><title>Node1</title>
<polygon fill="#bfbfbf" stroke="black" points="113,-112.5 113,-131.5 208,-131.5 208,-112.5 113,-112.5"/>
<text text-anchor="middle" x="160.5" y="-119.5" font-family="'Consolas',monospace" font-size="10.00">jngl/font.hpp</text>
</g>
<!-- Node2 -->
<g id="node2" class="node"><title>Node2</title>
<g id="a_node2"><a xlink:href="color_8hpp_source.html" target="_top" xlink:title="color.hpp">
<polygon fill="white" stroke="black" points="0,-56.5 0,-75.5 71,-75.5 71,-56.5 0,-56.5"/>
<text text-anchor="middle" x="35.5" y="-63.5" font-family="'Consolas',monospace" font-size="10.00">color.hpp</text>
</a>
</g>
</g>
<!-- Node1&#45;&gt;Node2 -->
<g id="edge1" class="edge"><title>Node1&#45;&gt;Node2</title>
<path fill="none" stroke="midnightblue" d="M140.693,-112.444C120.213,-103.596 88.0173,-89.6875 64.6353,-79.5865"/>
<polygon fill="midnightblue" stroke="midnightblue" points="65.782,-76.2692 55.214,-75.5164 63.0059,-82.6953 65.782,-76.2692"/>
</g>
<!-- Node3 -->
<g id="node3" class="node"><title>Node3</title>
<g id="a_node3"><a xlink:href="dll_8hpp_source.html" target="_top" xlink:title="dll.hpp">
<polygon fill="white" stroke="black" points="24,-0.5 24,-19.5 83,-19.5 83,-0.5 24,-0.5"/>
<text text-anchor="middle" x="53.5" y="-7.5" font-family="'Consolas',monospace" font-size="10.00">dll.hpp</text>
</a>
</g>
</g>
<!-- Node1&#45;&gt;Node3 -->
<g id="edge3" class="edge"><title>Node1&#45;&gt;Node3</title>
<path fill="none" stroke="midnightblue" d="M152.104,-112.368C134.211,-93.9744 92.0893,-50.6712 69.1141,-27.0519"/>
<polygon fill="midnightblue" stroke="midnightblue" points="71.3386,-24.3192 61.8571,-19.5914 66.3209,-29.2 71.3386,-24.3192"/>
</g>
<!-- Node4 -->
<g id="node4" class="node"><title>Node4</title>
<g id="a_node4"><a xlink:href="Vec2_8hpp.html" target="_top" xlink:title="Vec2.hpp">
<polygon fill="white" stroke="black" points="128,-56.5 128,-75.5 193,-75.5 193,-56.5 128,-56.5"/>
<text text-anchor="middle" x="160.5" y="-63.5" font-family="'Consolas',monospace" font-size="10.00">Vec2.hpp</text>
</a>
</g>
</g>
<!-- Node1&#45;&gt;Node4 -->
<g id="edge4" class="edge"><title>Node1&#45;&gt;Node4</title>
<path fill="none" stroke="midnightblue" d="M160.5,-112.083C160.5,-105.006 160.5,-94.8611 160.5,-85.9865"/>
<polygon fill="midnightblue" stroke="midnightblue" points="164,-85.751 160.5,-75.7511 157,-85.7511 164,-85.751"/>
</g>
<!-- Node7 -->
<g id="node7" class="node"><title>Node7</title>
<polygon fill="white" stroke="#bfbfbf" points="211,-56.5 211,-75.5 264,-75.5 264,-56.5 211,-56.5"/>
<text text-anchor="middle" x="237.5" y="-63.5" font-family="'Consolas',monospace" font-size="10.00">memory</text>
</g>
<!-- Node1&#45;&gt;Node7 -->
<g id="edge8" class="edge"><title>Node1&#45;&gt;Node7</title>
<path fill="none" stroke="midnightblue" d="M172.871,-112.324C184.658,-104.058 202.632,-91.4527 216.636,-81.6322"/>
<polygon fill="midnightblue" stroke="midnightblue" points="218.982,-84.2619 225.159,-75.6545 214.962,-78.5307 218.982,-84.2619"/>
</g>
<!-- Node8 -->
<g id="node8" class="node"><title>Node8</title>
<polygon fill="white" stroke="#bfbfbf" points="282,-56.5 282,-75.5 335,-75.5 335,-56.5 282,-56.5"/>
<text text-anchor="middle" x="308.5" y="-63.5" font-family="'Consolas',monospace" font-size="10.00">string</text>
</g>
<!-- Node1&#45;&gt;Node8 -->
<g id="edge9" class="edge"><title>Node1&#45;&gt;Node8</title>
<path fill="none" stroke="midnightblue" d="M183.951,-112.444C208.633,-103.438 247.685,-89.1891 275.477,-79.049"/>
<polygon fill="midnightblue" stroke="midnightblue" points="276.964,-82.2321 285.159,-75.5164 274.565,-75.6561 276.964,-82.2321"/>
</g>
<!-- Node2&#45;&gt;Node3 -->
<g id="edge2" class="edge"><title>Node2&#45;&gt;Node3</title>
<path fill="none" stroke="midnightblue" d="M38.4723,-56.083C40.8838,-48.8486 44.3638,-38.4087 47.3677,-29.3968"/>
<polygon fill="midnightblue" stroke="midnightblue" points="50.741,-30.3447 50.583,-19.7511 44.1002,-28.1311 50.741,-30.3447"/>
</g>
<!-- Node4&#45;&gt;Node3 -->
<g id="edge5" class="edge"><title>Node4&#45;&gt;Node3</title>
<path fill="none" stroke="midnightblue" d="M143.309,-56.324C126.149,-47.6641 99.5543,-34.2424 79.7527,-24.249"/>
<polygon fill="midnightblue" stroke="midnightblue" points="81.1532,-21.0354 70.6487,-19.6545 77.9993,-27.2847 81.1532,-21.0354"/>
</g>
<!-- Node5 -->
<g id="node5" class="node"><title>Node5</title>
<polygon fill="white" stroke="#bfbfbf" points="101,-0.5 101,-19.5 220,-19.5 220,-0.5 101,-0.5"/>
<text text-anchor="middle" x="160.5" y="-7.5" font-family="'Consolas',monospace" font-size="10.00">boost/version.hpp</text>
</g>
<!-- Node4&#45;&gt;Node5 -->
<g id="edge6" class="edge"><title>Node4&#45;&gt;Node5</title>
<path fill="none" stroke="midnightblue" d="M160.5,-56.083C160.5,-49.0059 160.5,-38.8611 160.5,-29.9865"/>
<polygon fill="midnightblue" stroke="midnightblue" points="164,-29.751 160.5,-19.7511 157,-29.7511 164,-29.751"/>
</g>
<!-- Node6 -->
<g id="node6" class="node"><title>Node6</title>
<polygon fill="white" stroke="#bfbfbf" points="238,-0.5 238,-19.5 291,-19.5 291,-0.5 238,-0.5"/>
<text text-anchor="middle" x="264.5" y="-7.5" font-family="'Consolas',monospace" font-size="10.00">iosfwd</text>
</g>
<!-- Node4&#45;&gt;Node6 -->
<g id="edge7" class="edge"><title>Node4&#45;&gt;Node6</title>
<path fill="none" stroke="midnightblue" d="M177.209,-56.324C193.812,-47.7034 219.502,-34.3643 238.72,-24.3855"/>
<polygon fill="midnightblue" stroke="midnightblue" points="240.57,-27.3689 247.832,-19.6545 237.344,-21.1565 240.57,-27.3689"/>
</g>
</g>
</svg>
