<?xml version="1.0" encoding="UTF-8" standalone="no"?>
<!DOCTYPE svg PUBLIC "-//W3C//DTD SVG 1.1//EN"
 "http://www.w3.org/Graphics/SVG/1.1/DTD/svg11.dtd">
<!-- Generated by graphviz version 5.0.0 (0)
 -->
<!-- Title: jngl/font.hpp Pages: 1 -->
<svg width="304pt" height="137pt"
 viewBox="0.00 0.00 304.00 137.00" xmlns="http://www.w3.org/2000/svg" xmlns:xlink="http://www.w3.org/1999/xlink">
<g id="graph0" class="graph" transform="scale(1 1) rotate(0) translate(4 133)">
<title>jngl/font.hpp</title>
<!-- Node1 -->
<g id="node1" class="node">
<title>Node1</title>
<g id="a_node1"><a xlink:title="Contains jngl::Font class and related functions.">
<polygon fill="#999999" stroke="#666666" points="207,-129 112,-129 112,-110 207,-110 207,-129"/>
<text text-anchor="middle" x="159.5" y="-117" font-family="ui-monospace,monospace" font-size="10.00">jngl/font.hpp</text>
</a>
</g>
</g>
<!-- Node2 -->
<g id="node2" class="node">
<title>Node2</title>
<g id="a_node2"><a xlink:href="Color_8hpp.html" target="_top" xlink:title="Contains jngl::Color class.">
<polygon fill="white" stroke="#666666" points="71,-74 0,-74 0,-55 71,-55 71,-74"/>
<text text-anchor="middle" x="35.5" y="-62" font-family="ui-monospace,monospace" font-size="10.00">Color.hpp</text>
</a>
</g>
</g>
<!-- Node1&#45;&gt;Node2 -->
<g id="edge1" class="edge">
<title>Node1&#45;&gt;Node2</title>
<path fill="none" stroke="#63b8ff" d="M139.58,-109.98C119.45,-101.38 88.12,-87.99 65.09,-78.15"/>
<polygon fill="#63b8ff" stroke="#63b8ff" points="66.36,-74.88 55.79,-74.17 63.6,-81.32 66.36,-74.88"/>
</g>
<!-- Node3 -->
<g id="node3" class="node">
<title>Node3</title>
<g id="a_node3"><a xlink:href="Vec2_8hpp.html" target="_top" xlink:title="Contains jngl::Vec2 class.">
<polygon fill="white" stroke="#666666" points="154,-74 89,-74 89,-55 154,-55 154,-74"/>
<text text-anchor="middle" x="121.5" y="-62" font-family="ui-monospace,monospace" font-size="10.00">Vec2.hpp</text>
</a>
</g>
</g>
<!-- Node1&#45;&gt;Node3 -->
<g id="edge2" class="edge">
<title>Node1&#45;&gt;Node3</title>
<path fill="none" stroke="#63b8ff" d="M153.23,-109.75C147.91,-102.34 140.14,-91.5 133.62,-82.41"/>
<polygon fill="#63b8ff" stroke="#63b8ff" points="136.33,-80.18 127.66,-74.09 130.64,-84.26 136.33,-80.18"/>
</g>
<!-- Node6 -->
<g id="node6" class="node">
<title>Node6</title>
<g id="a_node6"><a target="_parent" xlink:href="http://en.cppreference.com/w/cpp/header/memory.html" xlink:title=" ">
<polygon fill="white" stroke="#666666" points="225,-74 172,-74 172,-55 225,-55 225,-74"/>
<text text-anchor="middle" x="198.5" y="-62" font-family="ui-monospace,monospace" font-size="10.00">memory</text>
</a>
</g>
</g>
<!-- Node1&#45;&gt;Node6 -->
<g id="edge5" class="edge">
<title>Node1&#45;&gt;Node6</title>
<path fill="none" stroke="#63b8ff" d="M165.94,-109.75C171.39,-102.34 179.36,-91.5 186.06,-82.41"/>
<polygon fill="#63b8ff" stroke="#63b8ff" points="189.07,-84.22 192.18,-74.09 183.43,-80.07 189.07,-84.22"/>
</g>
<!-- Node7 -->
<g id="node7" class="node">
<title>Node7</title>
<g id="a_node7"><a target="_parent" xlink:href="http://en.cppreference.com/w/cpp/header/string.html" xlink:title=" ">
<polygon fill="white" stroke="#666666" points="296,-74 243,-74 243,-55 296,-55 296,-74"/>
<text text-anchor="middle" x="269.5" y="-62" font-family="ui-monospace,monospace" font-size="10.00">string</text>
</a>
</g>
</g>
<!-- Node1&#45;&gt;Node7 -->
<g id="edge6" class="edge">
<title>Node1&#45;&gt;Node7</title>
<path fill="none" stroke="#63b8ff" d="M177.17,-109.98C194.79,-101.5 222.08,-88.35 242.43,-78.54"/>
<polygon fill="#63b8ff" stroke="#63b8ff" points="244.02,-81.66 251.51,-74.17 240.98,-75.36 244.02,-81.66"/>
</g>
<!-- Node4 -->
<g id="node4" class="node">
<title>Node4</title>
<g id="a_node4"><a xlink:title=" ">
<polygon fill="#e0e0e0" stroke="#999999" points="130,-19 5,-19 5,0 130,0 130,-19"/>
<text text-anchor="middle" x="67.5" y="-7" font-family="ui-monospace,monospace" font-size="10.00">boost/qvm_lite.hpp</text>
</a>
</g>
</g>
<!-- Node3&#45;&gt;Node4 -->
<g id="edge3" class="edge">
<title>Node3&#45;&gt;Node4</title>
<path fill="none" stroke="#63b8ff" d="M112.58,-54.75C104.72,-47.03 93.07,-35.6 83.58,-26.28"/>
<polygon fill="#63b8ff" stroke="#63b8ff" points="85.84,-23.6 76.25,-19.09 80.94,-28.59 85.84,-23.6"/>
</g>
<!-- Node5 -->
<g id="node5" class="node">
<title>Node5</title>
<g id="a_node5"><a target="_parent" xlink:href="http://en.cppreference.com/w/cpp/header/iosfwd.html" xlink:title=" ">
<polygon fill="white" stroke="#666666" points="201,-19 148,-19 148,0 201,0 201,-19"/>
<text text-anchor="middle" x="174.5" y="-7" font-family="ui-monospace,monospace" font-size="10.00">iosfwd</text>
</a>
</g>
</g>
<!-- Node3&#45;&gt;Node5 -->
<g id="edge4" class="edge">
<title>Node3&#45;&gt;Node5</title>
<path fill="none" stroke="#63b8ff" d="M130.25,-54.75C137.97,-47.03 149.4,-35.6 158.72,-26.28"/>
<polygon fill="#63b8ff" stroke="#63b8ff" points="161.31,-28.64 165.91,-19.09 156.36,-23.69 161.31,-28.64"/>
</g>
</g>
</svg>
