<?xml version="1.0" encoding="UTF-8" standalone="no"?>
<!DOCTYPE svg PUBLIC "-//W3C//DTD SVG 1.1//EN"
 "http://www.w3.org/Graphics/SVG/1.1/DTD/svg11.dtd">
<!-- Generated by graphviz version 9.0.0 (20230911.1827)
 -->
<!-- Title: jngl/font.hpp Pages: 1 -->
<svg width="353pt" height="193pt"
 viewBox="0.00 0.00 353.00 193.00" xmlns="http://www.w3.org/2000/svg" xmlns:xlink="http://www.w3.org/1999/xlink">
<g id="graph0" class="graph" transform="scale(1 1) rotate(0) translate(4 189)">
<title>jngl/font.hpp</title>
<!-- Node1 -->
<g id="Node000001" class="node">
<title>Node1</title>
<g id="a_Node000001"><a xlink:title="Contains jngl::Font class and related functions.">
<polygon fill="#999999" stroke="#666666" points="220,-185 126,-185 126,-165.75 220,-165.75 220,-185"/>
<text text-anchor="middle" x="173" y="-171.5" font-family="ui-monospace,monospace" font-size="10.00">jngl/font.hpp</text>
</a>
</g>
</g>
<!-- Node2 -->
<g id="Node000002" class="node">
<title>Node2</title>
<g id="a_Node000002"><a xlink:href="Rgb_8hpp.html" target="_top" xlink:title="Contains jngl::Rgb class.">
<polygon fill="white" stroke="#666666" points="58,-74.5 0,-74.5 0,-55.25 58,-55.25 58,-74.5"/>
<text text-anchor="middle" x="29" y="-61" font-family="ui-monospace,monospace" font-size="10.00">Rgb.hpp</text>
</a>
</g>
</g>
<!-- Node1&#45;&gt;Node2 -->
<g id="edge1_Node000001_Node000002" class="edge">
<title>Node1&#45;&gt;Node2</title>
<g id="a_edge1_Node000001_Node000002"><a xlink:title=" ">
<path fill="none" stroke="#63b8ff" d="M125.72,-168.12C99.54,-162.32 68.29,-151.16 48,-129.75 36.91,-118.05 32.26,-100.16 30.33,-86.29"/>
<polygon fill="#63b8ff" stroke="#63b8ff" points="33.83,-86.08 29.36,-76.48 26.86,-86.77 33.83,-86.08"/>
</a>
</g>
</g>
<!-- Node4 -->
<g id="Node000004" class="node">
<title>Node4</title>
<g id="a_Node000004"><a xlink:href="Rgba_8hpp.html" target="_top" xlink:title="Contains jngl::Rgba class.">
<polygon fill="white" stroke="#666666" points="121,-129.75 57,-129.75 57,-110.5 121,-110.5 121,-129.75"/>
<text text-anchor="middle" x="89" y="-116.25" font-family="ui-monospace,monospace" font-size="10.00">Rgba.hpp</text>
</a>
</g>
</g>
<!-- Node1&#45;&gt;Node4 -->
<g id="edge3_Node000001_Node000004" class="edge">
<title>Node1&#45;&gt;Node4</title>
<g id="a_edge3_Node000001_Node000004"><a xlink:title=" ">
<path fill="none" stroke="#63b8ff" d="M158.75,-165.34C146.2,-157.39 127.67,-145.64 112.86,-136.25"/>
<polygon fill="#63b8ff" stroke="#63b8ff" points="114.92,-133.41 104.6,-131.01 111.17,-139.32 114.92,-133.41"/>
</a>
</g>
</g>
<!-- Node5 -->
<g id="Node000005" class="node">
<title>Node5</title>
<g id="a_Node000005"><a xlink:href="Vec2_8hpp.html" target="_top" xlink:title="Contains jngl::Vec2 class.">
<polygon fill="white" stroke="#666666" points="205,-129.75 141,-129.75 141,-110.5 205,-110.5 205,-129.75"/>
<text text-anchor="middle" x="173" y="-116.25" font-family="ui-monospace,monospace" font-size="10.00">Vec2.hpp</text>
</a>
</g>
</g>
<!-- Node1&#45;&gt;Node5 -->
<g id="edge6_Node000001_Node000005" class="edge">
<title>Node1&#45;&gt;Node5</title>
<g id="a_edge6_Node000001_Node000005"><a xlink:title=" ">
<path fill="none" stroke="#63b8ff" d="M173,-165.58C173,-159.07 173,-149.92 173,-141.62"/>
<polygon fill="#63b8ff" stroke="#63b8ff" points="176.5,-141.62 173,-131.62 169.5,-141.62 176.5,-141.62"/>
</a>
</g>
</g>
<!-- Node8 -->
<g id="Node000008" class="node">
<title>Node8</title>
<g id="a_Node000008"><a target="_parent" xlink:href="http://en.cppreference.com/w/cpp/header/memory.html" xlink:title=" ">
<polygon fill="white" stroke="#666666" points="275,-129.75 223,-129.75 223,-110.5 275,-110.5 275,-129.75"/>
<text text-anchor="middle" x="249" y="-116.25" font-family="ui-monospace,monospace" font-size="10.00">memory</text>
</a>
</g>
</g>
<!-- Node1&#45;&gt;Node8 -->
<g id="edge9_Node000001_Node000008" class="edge">
<title>Node1&#45;&gt;Node8</title>
<g id="a_edge9_Node000001_Node000008"><a xlink:title=" ">
<path fill="none" stroke="#63b8ff" d="M185.89,-165.34C197.03,-157.54 213.37,-146.09 226.64,-136.79"/>
<polygon fill="#63b8ff" stroke="#63b8ff" points="228.62,-139.68 234.8,-131.07 224.61,-133.94 228.62,-139.68"/>
</a>
</g>
</g>
<!-- Node9 -->
<g id="Node000009" class="node">
<title>Node9</title>
<g id="a_Node000009"><a target="_parent" xlink:href="http://en.cppreference.com/w/cpp/header/string.html" xlink:title=" ">
<polygon fill="white" stroke="#666666" points="345,-129.75 293,-129.75 293,-110.5 345,-110.5 345,-129.75"/>
<text text-anchor="middle" x="319" y="-116.25" font-family="ui-monospace,monospace" font-size="10.00">string</text>
</a>
</g>
</g>
<!-- Node1&#45;&gt;Node9 -->
<g id="edge10_Node000001_Node000009" class="edge">
<title>Node1&#45;&gt;Node9</title>
<g id="a_edge10_Node000001_Node000009"><a xlink:title=" ">
<path fill="none" stroke="#63b8ff" d="M197.77,-165.34C221.26,-156.77 256.81,-143.81 283.35,-134.13"/>
<polygon fill="#63b8ff" stroke="#63b8ff" points="284.49,-137.44 292.69,-130.72 282.1,-130.86 284.49,-137.44"/>
</a>
</g>
</g>
<!-- Node3 -->
<g id="Node000003" class="node">
<title>Node3</title>
<g id="a_Node000003"><a target="_parent" xlink:href="http://en.cppreference.com/w/cpp/header/cstdint.html" xlink:title=" ">
<polygon fill="white" stroke="#666666" points="86,-19.25 28,-19.25 28,0 86,0 86,-19.25"/>
<text text-anchor="middle" x="57" y="-5.75" font-family="ui-monospace,monospace" font-size="10.00">cstdint</text>
</a>
</g>
</g>
<!-- Node2&#45;&gt;Node3 -->
<g id="edge2_Node000002_Node000003" class="edge">
<title>Node2&#45;&gt;Node3</title>
<g id="a_edge2_Node000002_Node000003"><a xlink:title=" ">
<path fill="none" stroke="#63b8ff" d="M33.62,-55.08C37.25,-48.19 42.43,-38.34 46.99,-29.66"/>
<polygon fill="#63b8ff" stroke="#63b8ff" points="50.02,-31.43 51.57,-20.95 43.82,-28.17 50.02,-31.43"/>
</a>
</g>
</g>
<!-- Node4&#45;&gt;Node2 -->
<g id="edge4_Node000004_Node000002" class="edge">
<title>Node4&#45;&gt;Node2</title>
<g id="a_edge4_Node000004_Node000002"><a xlink:title=" ">
<path fill="none" stroke="#63b8ff" d="M78.82,-110.09C70.24,-102.47 57.73,-91.37 47.4,-82.2"/>
<polygon fill="#63b8ff" stroke="#63b8ff" points="49.96,-79.8 40.16,-75.78 45.32,-85.04 49.96,-79.8"/>
</a>
</g>
</g>
<!-- Node4&#45;&gt;Node3 -->
<g id="edge5_Node000004_Node000003" class="edge">
<title>Node4&#45;&gt;Node3</title>
<g id="a_edge5_Node000004_Node000003"><a xlink:title=" ">
<path fill="none" stroke="#63b8ff" d="M86.38,-110.25C81.27,-92.92 69.86,-54.23 62.86,-30.49"/>
<polygon fill="#63b8ff" stroke="#63b8ff" points="66.27,-29.68 60.08,-21.08 59.55,-31.66 66.27,-29.68"/>
</a>
</g>
</g>
<!-- Node6 -->
<g id="Node000006" class="node">
<title>Node6</title>
<g id="a_Node000006"><a xlink:title=" ">
<polygon fill="#e0e0e0" stroke="#999999" points="238,-74.5 114,-74.5 114,-55.25 238,-55.25 238,-74.5"/>
<text text-anchor="middle" x="176" y="-61" font-family="ui-monospace,monospace" font-size="10.00">boost/qvm_lite.hpp</text>
</a>
</g>
</g>
<!-- Node5&#45;&gt;Node6 -->
<g id="edge7_Node000005_Node000006" class="edge">
<title>Node5&#45;&gt;Node6</title>
<g id="a_edge7_Node000005_Node000006"><a xlink:title=" ">
<path fill="none" stroke="#63b8ff" d="M173.5,-110.33C173.87,-103.74 174.39,-94.46 174.86,-86.07"/>
<polygon fill="#63b8ff" stroke="#63b8ff" points="178.34,-86.55 175.41,-76.37 171.35,-86.16 178.34,-86.55"/>
</a>
</g>
</g>
<!-- Node7 -->
<g id="Node000007" class="node">
<title>Node7</title>
<g id="a_Node000007"><a target="_parent" xlink:href="http://en.cppreference.com/w/cpp/header/iosfwd.html" xlink:title=" ">
<polygon fill="white" stroke="#666666" points="308,-74.5 256,-74.5 256,-55.25 308,-55.25 308,-74.5"/>
<text text-anchor="middle" x="282" y="-61" font-family="ui-monospace,monospace" font-size="10.00">iosfwd</text>
</a>
</g>
</g>
<!-- Node5&#45;&gt;Node7 -->
<g id="edge8_Node000005_Node000007" class="edge">
<title>Node5&#45;&gt;Node7</title>
<g id="a_edge8_Node000005_Node000007"><a xlink:title=" ">
<path fill="none" stroke="#63b8ff" d="M191.49,-110.09C208.4,-101.83 233.69,-89.48 253.24,-79.93"/>
<polygon fill="#63b8ff" stroke="#63b8ff" points="254.61,-83.15 262.06,-75.62 251.54,-76.86 254.61,-83.15"/>
</a>
</g>
</g>
</g>
</svg>
