<?xml version="1.0" encoding="UTF-8" standalone="no"?>
<!DOCTYPE svg PUBLIC "-//W3C//DTD SVG 1.1//EN"
 "http://www.w3.org/Graphics/SVG/1.1/DTD/svg11.dtd">
<!-- Generated by graphviz version 9.0.0 (20230911.1827)
 -->
<!-- Title: jngl/FrameBuffer.hpp Pages: 1 -->
<svg width="674pt" height="193pt"
 viewBox="0.00 0.00 674.00 193.00" xmlns="http://www.w3.org/2000/svg" xmlns:xlink="http://www.w3.org/1999/xlink">
<g id="graph0" class="graph" transform="scale(1 1) rotate(0) translate(4 189)">
<title>jngl/FrameBuffer.hpp</title>
<!-- Node1 -->
<g id="Node000001" class="node">
<title>Node1</title>
<g id="a_Node000001"><a xlink:title="Contains jngl::FrameBuffer class.">
<polygon fill="#999999" stroke="#666666" points="457,-185 327,-185 327,-165.75 457,-165.75 457,-185"/>
<text text-anchor="middle" x="392" y="-171.5" font-family="ui-monospace,monospace" font-size="10.00">jngl/FrameBuffer.hpp</text>
</a>
</g>
</g>
<!-- Node2 -->
<g id="Node000002" class="node">
<title>Node2</title>
<g id="a_Node000002"><a xlink:href="Color_8hpp.html" target="_top" xlink:title="Contains jngl::Color class.">
<polygon fill="white" stroke="#666666" points="80,-129.75 10,-129.75 10,-110.5 80,-110.5 80,-129.75"/>
<text text-anchor="middle" x="45" y="-116.25" font-family="ui-monospace,monospace" font-size="10.00">Color.hpp</text>
</a>
</g>
</g>
<!-- Node1&#45;&gt;Node2 -->
<g id="edge1_Node000001_Node000002" class="edge">
<title>Node1&#45;&gt;Node2</title>
<g id="a_edge1_Node000001_Node000002"><a xlink:title=" ">
<path fill="none" stroke="#63b8ff" d="M332.74,-165.28C264.41,-154.79 153.51,-137.78 91.23,-128.22"/>
<polygon fill="#63b8ff" stroke="#63b8ff" points="92.1,-124.81 81.68,-126.75 91.04,-131.73 92.1,-124.81"/>
</a>
</g>
</g>
<!-- Node5 -->
<g id="Node000005" class="node">
<title>Node5</title>
<g id="a_Node000005"><a xlink:href="Finally_8hpp.html" target="_top" xlink:title="Contains jngl::Finally class.">
<polygon fill="white" stroke="#666666" points="213,-129.75 131,-129.75 131,-110.5 213,-110.5 213,-129.75"/>
<text text-anchor="middle" x="172" y="-116.25" font-family="ui-monospace,monospace" font-size="10.00">Finally.hpp</text>
</a>
</g>
</g>
<!-- Node1&#45;&gt;Node5 -->
<g id="edge4_Node000001_Node000005" class="edge">
<title>Node1&#45;&gt;Node5</title>
<g id="a_edge4_Node000001_Node000005"><a xlink:title=" ">
<path fill="none" stroke="#63b8ff" d="M354.68,-165.34C317.7,-156.39 260.89,-142.64 220.45,-132.85"/>
<polygon fill="#63b8ff" stroke="#63b8ff" points="221.52,-129.51 210.97,-130.56 219.87,-136.31 221.52,-129.51"/>
</a>
</g>
</g>
<!-- Node7 -->
<g id="Node000007" class="node">
<title>Node7</title>
<g id="a_Node000007"><a xlink:href="Mat3_8hpp.html" target="_top" xlink:title="Contains jngl::Mat3 class.">
<polygon fill="white" stroke="#666666" points="312,-129.75 248,-129.75 248,-110.5 312,-110.5 312,-129.75"/>
<text text-anchor="middle" x="280" y="-116.25" font-family="ui-monospace,monospace" font-size="10.00">Mat3.hpp</text>
</a>
</g>
</g>
<!-- Node1&#45;&gt;Node7 -->
<g id="edge6_Node000001_Node000007" class="edge">
<title>Node1&#45;&gt;Node7</title>
<g id="a_edge6_Node000001_Node000007"><a xlink:title=" ">
<path fill="none" stroke="#63b8ff" d="M373,-165.34C355.54,-157.04 329.4,-144.61 309.28,-135.04"/>
<polygon fill="#63b8ff" stroke="#63b8ff" points="310.99,-131.99 300.46,-130.85 307.99,-138.31 310.99,-131.99"/>
</a>
</g>
</g>
<!-- Node10 -->
<g id="Node000010" class="node">
<title>Node10</title>
<g id="a_Node000010"><a xlink:href="Pixels_8hpp.html" target="_top" xlink:title="Contains jngl::Pixels class.">
<polygon fill="white" stroke="#666666" points="588,-74.5 512,-74.5 512,-55.25 588,-55.25 588,-74.5"/>
<text text-anchor="middle" x="550" y="-61" font-family="ui-monospace,monospace" font-size="10.00">Pixels.hpp</text>
</a>
</g>
</g>
<!-- Node1&#45;&gt;Node10 -->
<g id="edge9_Node000001_Node000010" class="edge">
<title>Node1&#45;&gt;Node10</title>
<g id="a_edge9_Node000001_Node000010"><a xlink:title=" ">
<path fill="none" stroke="#63b8ff" d="M396.85,-165.32C404.55,-151.71 420.79,-125.94 441,-110.5 459.73,-96.19 483.69,-85.72 504.38,-78.53"/>
<polygon fill="#63b8ff" stroke="#63b8ff" points="505.33,-81.9 513.73,-75.44 503.14,-75.25 505.33,-81.9"/>
</a>
</g>
</g>
<!-- Node11 -->
<g id="Node000011" class="node">
<title>Node11</title>
<g id="a_Node000011"><a xlink:href="Vec2_8hpp.html" target="_top" xlink:title="Contains jngl::Vec2 class.">
<polygon fill="white" stroke="#666666" points="394,-129.75 330,-129.75 330,-110.5 394,-110.5 394,-129.75"/>
<text text-anchor="middle" x="362" y="-116.25" font-family="ui-monospace,monospace" font-size="10.00">Vec2.hpp</text>
</a>
</g>
</g>
<!-- Node1&#45;&gt;Node11 -->
<g id="edge11_Node000001_Node000011" class="edge">
<title>Node1&#45;&gt;Node11</title>
<g id="a_edge11_Node000001_Node000011"><a xlink:title=" ">
<path fill="none" stroke="#63b8ff" d="M387.05,-165.58C383.12,-158.61 377.49,-148.62 372.56,-139.87"/>
<polygon fill="#63b8ff" stroke="#63b8ff" points="375.76,-138.42 367.8,-131.43 369.66,-141.86 375.76,-138.42"/>
</a>
</g>
</g>
<!-- Node13 -->
<g id="Node000013" class="node">
<title>Node13</title>
<g id="a_Node000013"><a xlink:href="Vertex_8hpp.html" target="_top" xlink:title=" ">
<polygon fill="white" stroke="#666666" points="526,-129.75 450,-129.75 450,-110.5 526,-110.5 526,-129.75"/>
<text text-anchor="middle" x="488" y="-116.25" font-family="ui-monospace,monospace" font-size="10.00">Vertex.hpp</text>
</a>
</g>
</g>
<!-- Node1&#45;&gt;Node13 -->
<g id="edge14_Node000001_Node000013" class="edge">
<title>Node1&#45;&gt;Node13</title>
<g id="a_edge14_Node000001_Node000013"><a xlink:title=" ">
<path fill="none" stroke="#63b8ff" d="M408.29,-165.34C422.9,-157.23 444.63,-145.18 461.71,-135.71"/>
<polygon fill="#63b8ff" stroke="#63b8ff" points="463.26,-138.85 470.31,-130.94 459.87,-132.73 463.26,-138.85"/>
</a>
</g>
</g>
<!-- Node14 -->
<g id="Node000014" class="node">
<title>Node14</title>
<g id="a_Node000014"><a target="_parent" xlink:href="http://en.cppreference.com/w/cpp/header/memory.html" xlink:title=" ">
<polygon fill="white" stroke="#666666" points="596,-129.75 544,-129.75 544,-110.5 596,-110.5 596,-129.75"/>
<text text-anchor="middle" x="570" y="-116.25" font-family="ui-monospace,monospace" font-size="10.00">memory</text>
</a>
</g>
</g>
<!-- Node1&#45;&gt;Node14 -->
<g id="edge15_Node000001_Node000014" class="edge">
<title>Node1&#45;&gt;Node14</title>
<g id="a_edge15_Node000001_Node000014"><a xlink:title=" ">
<path fill="none" stroke="#63b8ff" d="M422.2,-165.34C452.72,-156.21 499.94,-142.08 532.76,-132.26"/>
<polygon fill="#63b8ff" stroke="#63b8ff" points="533.7,-135.64 542.27,-129.42 531.69,-128.93 533.7,-135.64"/>
</a>
</g>
</g>
<!-- Node15 -->
<g id="Node000015" class="node">
<title>Node15</title>
<g id="a_Node000015"><a target="_parent" xlink:href="http://en.cppreference.com/w/cpp/header/vector.html" xlink:title=" ">
<polygon fill="white" stroke="#666666" points="666,-129.75 614,-129.75 614,-110.5 666,-110.5 666,-129.75"/>
<text text-anchor="middle" x="640" y="-116.25" font-family="ui-monospace,monospace" font-size="10.00">vector</text>
</a>
</g>
</g>
<!-- Node1&#45;&gt;Node15 -->
<g id="edge16_Node000001_Node000015" class="edge">
<title>Node1&#45;&gt;Node15</title>
<g id="a_edge16_Node000001_Node000015"><a xlink:title=" ">
<path fill="none" stroke="#63b8ff" d="M437.81,-165.26C478.65,-157.03 540.33,-144.33 602.8,-130.19"/>
<polygon fill="#63b8ff" stroke="#63b8ff" points="603.2,-133.69 612.17,-128.06 601.65,-126.86 603.2,-133.69"/>
</a>
</g>
</g>
<!-- Node3 -->
<g id="Node000003" class="node">
<title>Node3</title>
<g id="a_Node000003"><a xlink:href="Rgb_8hpp.html" target="_top" xlink:title="Contains jngl::Rgb class.">
<polygon fill="white" stroke="#666666" points="58,-74.5 0,-74.5 0,-55.25 58,-55.25 58,-74.5"/>
<text text-anchor="middle" x="29" y="-61" font-family="ui-monospace,monospace" font-size="10.00">Rgb.hpp</text>
</a>
</g>
</g>
<!-- Node2&#45;&gt;Node3 -->
<g id="edge2_Node000002_Node000003" class="edge">
<title>Node2&#45;&gt;Node3</title>
<g id="a_edge2_Node000002_Node000003"><a xlink:title=" ">
<path fill="none" stroke="#63b8ff" d="M42.36,-110.33C40.36,-103.67 37.52,-94.24 34.98,-85.78"/>
<polygon fill="#63b8ff" stroke="#63b8ff" points="38.36,-84.88 32.14,-76.31 31.66,-86.89 38.36,-84.88"/>
</a>
</g>
</g>
<!-- Node4 -->
<g id="Node000004" class="node">
<title>Node4</title>
<g id="a_Node000004"><a target="_parent" xlink:href="http://en.cppreference.com/w/cpp/header/cstdint.html" xlink:title=" ">
<polygon fill="white" stroke="#666666" points="318,-19.25 260,-19.25 260,0 318,0 318,-19.25"/>
<text text-anchor="middle" x="289" y="-5.75" font-family="ui-monospace,monospace" font-size="10.00">cstdint</text>
</a>
</g>
</g>
<!-- Node3&#45;&gt;Node4 -->
<g id="edge3_Node000003_Node000004" class="edge">
<title>Node3&#45;&gt;Node4</title>
<g id="a_edge3_Node000003_Node000004"><a xlink:title=" ">
<path fill="none" stroke="#63b8ff" d="M58.44,-57.12C61.33,-56.48 64.22,-55.84 67,-55.25 130.17,-41.73 203.71,-27.18 248.28,-18.5"/>
<polygon fill="#63b8ff" stroke="#63b8ff" points="248.87,-21.95 258.02,-16.6 247.54,-15.07 248.87,-21.95"/>
</a>
</g>
</g>
<!-- Node6 -->
<g id="Node000006" class="node">
<title>Node6</title>
<g id="a_Node000006"><a target="_parent" xlink:href="http://en.cppreference.com/w/cpp/header/functional.html" xlink:title=" ">
<polygon fill="white" stroke="#666666" points="152,-74.5 76,-74.5 76,-55.25 152,-55.25 152,-74.5"/>
<text text-anchor="middle" x="114" y="-61" font-family="ui-monospace,monospace" font-size="10.00">functional</text>
</a>
</g>
</g>
<!-- Node5&#45;&gt;Node6 -->
<g id="edge5_Node000005_Node000006" class="edge">
<title>Node5&#45;&gt;Node6</title>
<g id="a_edge5_Node000005_Node000006"><a xlink:title=" ">
<path fill="none" stroke="#63b8ff" d="M162.16,-110.09C153.95,-102.55 142.02,-91.6 132.09,-82.48"/>
<polygon fill="#63b8ff" stroke="#63b8ff" points="134.54,-79.98 124.81,-75.8 129.81,-85.14 134.54,-79.98"/>
</a>
</g>
</g>
<!-- Node8 -->
<g id="Node000008" class="node">
<title>Node8</title>
<g id="a_Node000008"><a xlink:title=" ">
<polygon fill="#e0e0e0" stroke="#999999" points="424,-74.5 300,-74.5 300,-55.25 424,-55.25 424,-74.5"/>
<text text-anchor="middle" x="362" y="-61" font-family="ui-monospace,monospace" font-size="10.00">boost/qvm_lite.hpp</text>
</a>
</g>
</g>
<!-- Node7&#45;&gt;Node8 -->
<g id="edge7_Node000007_Node000008" class="edge">
<title>Node7&#45;&gt;Node8</title>
<g id="a_edge7_Node000007_Node000008"><a xlink:title=" ">
<path fill="none" stroke="#63b8ff" d="M293.91,-110.09C306.16,-102.14 324.25,-90.39 338.71,-81"/>
<polygon fill="#63b8ff" stroke="#63b8ff" points="340.27,-84.16 346.75,-75.78 336.46,-78.29 340.27,-84.16"/>
</a>
</g>
</g>
<!-- Node9 -->
<g id="Node000009" class="node">
<title>Node9</title>
<g id="a_Node000009"><a target="_parent" xlink:href="http://en.cppreference.com/w/cpp/header/initializer_list.html" xlink:title=" ">
<polygon fill="white" stroke="#666666" points="282,-74.5 170,-74.5 170,-55.25 282,-55.25 282,-74.5"/>
<text text-anchor="middle" x="226" y="-61" font-family="ui-monospace,monospace" font-size="10.00">initializer_list</text>
</a>
</g>
</g>
<!-- Node7&#45;&gt;Node9 -->
<g id="edge8_Node000007_Node000009" class="edge">
<title>Node7&#45;&gt;Node9</title>
<g id="a_edge8_Node000007_Node000009"><a xlink:title=" ">
<path fill="none" stroke="#63b8ff" d="M271.08,-110.33C263.55,-102.9 252.53,-92.04 243.27,-82.91"/>
<polygon fill="#63b8ff" stroke="#63b8ff" points="245.77,-80.45 236.19,-75.92 240.85,-85.44 245.77,-80.45"/>
</a>
</g>
</g>
<!-- Node10&#45;&gt;Node4 -->
<g id="edge10_Node000010_Node000004" class="edge">
<title>Node10&#45;&gt;Node4</title>
<g id="a_edge10_Node000010_Node000004"><a xlink:title=" ">
<path fill="none" stroke="#63b8ff" d="M511.77,-56.07C463.03,-46.13 379.15,-29.02 329.4,-18.87"/>
<polygon fill="#63b8ff" stroke="#63b8ff" points="330.41,-15.5 319.91,-16.93 329.01,-22.36 330.41,-15.5"/>
</a>
</g>
</g>
<!-- Node11&#45;&gt;Node8 -->
<g id="edge12_Node000011_Node000008" class="edge">
<title>Node11&#45;&gt;Node8</title>
<g id="a_edge12_Node000011_Node000008"><a xlink:title=" ">
<path fill="none" stroke="#63b8ff" d="M362,-110.33C362,-103.82 362,-94.67 362,-86.37"/>
<polygon fill="#63b8ff" stroke="#63b8ff" points="365.5,-86.37 362,-76.37 358.5,-86.37 365.5,-86.37"/>
</a>
</g>
</g>
<!-- Node12 -->
<g id="Node000012" class="node">
<title>Node12</title>
<g id="a_Node000012"><a target="_parent" xlink:href="http://en.cppreference.com/w/cpp/header/iosfwd.html" xlink:title=" ">
<polygon fill="white" stroke="#666666" points="494,-74.5 442,-74.5 442,-55.25 494,-55.25 494,-74.5"/>
<text text-anchor="middle" x="468" y="-61" font-family="ui-monospace,monospace" font-size="10.00">iosfwd</text>
</a>
</g>
</g>
<!-- Node11&#45;&gt;Node12 -->
<g id="edge13_Node000011_Node000012" class="edge">
<title>Node11&#45;&gt;Node12</title>
<g id="a_edge13_Node000011_Node000012"><a xlink:title=" ">
<path fill="none" stroke="#63b8ff" d="M379.98,-110.09C396.35,-101.87 420.79,-89.59 439.76,-80.06"/>
<polygon fill="#63b8ff" stroke="#63b8ff" points="441.21,-83.25 448.58,-75.63 438.07,-76.99 441.21,-83.25"/>
</a>
</g>
</g>
</g>
</svg>
