<?xml version="1.0" encoding="UTF-8" standalone="no"?>
<!DOCTYPE svg PUBLIC "-//W3C//DTD SVG 1.1//EN"
 "http://www.w3.org/Graphics/SVG/1.1/DTD/svg11.dtd">
<!-- Generated by graphviz version 2.42.4 (0)
 -->
<!-- Title: jngl/framebuffer.hpp Pages: 1 -->
<svg width="500pt" height="140pt"
 viewBox="0.00 0.00 500.00 140.00" xmlns="http://www.w3.org/2000/svg" xmlns:xlink="http://www.w3.org/1999/xlink">
<g id="graph0" class="graph" transform="scale(1 1) rotate(0) translate(4 136)">
<title>jngl/framebuffer.hpp</title>
<polygon fill="white" stroke="transparent" points="-4,4 -4,-136 496,-136 496,4 -4,4"/>
<!-- Node1 -->
<g id="node1" class="node">
<title>Node1</title>
<g id="a_node1"><a xlink:title="Contains jngl::FrameBuffer class.">
<polygon fill="#bfbfbf" stroke="black" points="201,-112.5 201,-131.5 332,-131.5 332,-112.5 201,-112.5"/>
<text text-anchor="middle" x="266.5" y="-119.5" font-family="'Consolas',monospace" font-size="10.00">jngl/framebuffer.hpp</text>
</a>
</g>
</g>
<!-- Node2 -->
<g id="node2" class="node">
<title>Node2</title>
<g id="a_node2"><a xlink:href="Color_8hpp.html" target="_top" xlink:title=" ">
<polygon fill="white" stroke="black" points="0,-56.5 0,-75.5 71,-75.5 71,-56.5 0,-56.5"/>
<text text-anchor="middle" x="35.5" y="-63.5" font-family="'Consolas',monospace" font-size="10.00">Color.hpp</text>
</a>
</g>
</g>
<!-- Node1&#45;&gt;Node2 -->
<g id="edge1" class="edge">
<title>Node1&#45;&gt;Node2</title>
<path fill="none" stroke="midnightblue" d="M229.9,-112.44C189.53,-103.01 124.54,-87.82 80.95,-77.62"/>
<polygon fill="midnightblue" stroke="midnightblue" points="81.71,-74.21 71.17,-75.34 80.11,-81.02 81.71,-74.21"/>
</g>
<!-- Node3 -->
<g id="node3" class="node">
<title>Node3</title>
<g id="a_node3"><a xlink:href="Finally_8hpp.html" target="_top" xlink:title=" ">
<polygon fill="white" stroke="black" points="89,-56.5 89,-75.5 172,-75.5 172,-56.5 89,-56.5"/>
<text text-anchor="middle" x="130.5" y="-63.5" font-family="'Consolas',monospace" font-size="10.00">Finally.hpp</text>
</a>
</g>
</g>
<!-- Node1&#45;&gt;Node3 -->
<g id="edge2" class="edge">
<title>Node1&#45;&gt;Node3</title>
<path fill="none" stroke="midnightblue" d="M244.95,-112.44C222.47,-103.52 187.01,-89.44 161.52,-79.32"/>
<polygon fill="midnightblue" stroke="midnightblue" points="162.53,-75.95 151.95,-75.52 159.95,-82.46 162.53,-75.95"/>
</g>
<!-- Node5 -->
<g id="node5" class="node">
<title>Node5</title>
<g id="a_node5"><a xlink:href="Vec2_8hpp.html" target="_top" xlink:title="Contains jngl::Vec2 class.">
<polygon fill="white" stroke="black" points="190,-56.5 190,-75.5 255,-75.5 255,-56.5 190,-56.5"/>
<text text-anchor="middle" x="222.5" y="-63.5" font-family="'Consolas',monospace" font-size="10.00">Vec2.hpp</text>
</a>
</g>
</g>
<!-- Node1&#45;&gt;Node5 -->
<g id="edge4" class="edge">
<title>Node1&#45;&gt;Node5</title>
<path fill="none" stroke="midnightblue" d="M259.23,-112.08C252.96,-104.38 243.71,-93.03 236.07,-83.65"/>
<polygon fill="midnightblue" stroke="midnightblue" points="238.66,-81.29 229.63,-75.75 233.23,-85.71 238.66,-81.29"/>
</g>
<!-- Node8 -->
<g id="node8" class="node">
<title>Node8</title>
<g id="a_node8"><a xlink:href="Vertex_8hpp.html" target="_top" xlink:title=" ">
<polygon fill="white" stroke="black" points="273,-56.5 273,-75.5 350,-75.5 350,-56.5 273,-56.5"/>
<text text-anchor="middle" x="311.5" y="-63.5" font-family="'Consolas',monospace" font-size="10.00">Vertex.hpp</text>
</a>
</g>
</g>
<!-- Node1&#45;&gt;Node8 -->
<g id="edge7" class="edge">
<title>Node1&#45;&gt;Node8</title>
<path fill="none" stroke="midnightblue" d="M273.93,-112.08C280.35,-104.38 289.81,-93.03 297.62,-83.65"/>
<polygon fill="midnightblue" stroke="midnightblue" points="300.49,-85.67 304.21,-75.75 295.12,-81.19 300.49,-85.67"/>
</g>
<!-- Node9 -->
<g id="node9" class="node">
<title>Node9</title>
<g id="a_node9"><a target="_parent" xlink:href="http://en.cppreference.com/w/cpp/header/memory.html" target="_top" xlink:title=" ">
<polygon fill="white" stroke="black" points="368,-56.5 368,-75.5 421,-75.5 421,-56.5 368,-56.5"/>
<text text-anchor="middle" x="394.5" y="-63.5" font-family="'Consolas',monospace" font-size="10.00">memory</text>
</a>
</g>
</g>
<!-- Node1&#45;&gt;Node9 -->
<g id="edge8" class="edge">
<title>Node1&#45;&gt;Node9</title>
<path fill="none" stroke="midnightblue" d="M286.78,-112.44C307.85,-103.56 341.02,-89.56 364.99,-79.45"/>
<polygon fill="midnightblue" stroke="midnightblue" points="366.46,-82.63 374.31,-75.52 363.74,-76.18 366.46,-82.63"/>
</g>
<!-- Node10 -->
<g id="node10" class="node">
<title>Node10</title>
<g id="a_node10"><a target="_parent" xlink:href="http://en.cppreference.com/w/cpp/header/vector.html" target="_top" xlink:title=" ">
<polygon fill="white" stroke="black" points="439,-56.5 439,-75.5 492,-75.5 492,-56.5 439,-56.5"/>
<text text-anchor="middle" x="465.5" y="-63.5" font-family="'Consolas',monospace" font-size="10.00">vector</text>
</a>
</g>
</g>
<!-- Node1&#45;&gt;Node10 -->
<g id="edge9" class="edge">
<title>Node1&#45;&gt;Node10</title>
<path fill="none" stroke="midnightblue" d="M298.03,-112.44C333.59,-102.79 391.35,-87.12 428.88,-76.94"/>
<polygon fill="midnightblue" stroke="midnightblue" points="430.16,-80.22 438.89,-74.22 428.32,-73.46 430.16,-80.22"/>
</g>
<!-- Node4 -->
<g id="node4" class="node">
<title>Node4</title>
<g id="a_node4"><a target="_parent" xlink:href="http://en.cppreference.com/w/cpp/header/functional.html" target="_top" xlink:title=" ">
<polygon fill="white" stroke="black" points="68,-0.5 68,-19.5 145,-19.5 145,-0.5 68,-0.5"/>
<text text-anchor="middle" x="106.5" y="-7.5" font-family="'Consolas',monospace" font-size="10.00">functional</text>
</a>
</g>
</g>
<!-- Node3&#45;&gt;Node4 -->
<g id="edge3" class="edge">
<title>Node3&#45;&gt;Node4</title>
<path fill="none" stroke="midnightblue" d="M126.54,-56.08C123.29,-48.77 118.58,-38.18 114.55,-29.1"/>
<polygon fill="midnightblue" stroke="midnightblue" points="117.65,-27.47 110.39,-19.75 111.25,-30.31 117.65,-27.47"/>
</g>
<!-- Node6 -->
<g id="node6" class="node">
<title>Node6</title>
<g id="a_node6"><a xlink:title=" ">
<polygon fill="white" stroke="#bfbfbf" points="163,-0.5 163,-19.5 282,-19.5 282,-0.5 163,-0.5"/>
<text text-anchor="middle" x="222.5" y="-7.5" font-family="'Consolas',monospace" font-size="10.00">boost/version.hpp</text>
</a>
</g>
</g>
<!-- Node5&#45;&gt;Node6 -->
<g id="edge5" class="edge">
<title>Node5&#45;&gt;Node6</title>
<path fill="none" stroke="midnightblue" d="M222.5,-56.08C222.5,-49.01 222.5,-38.86 222.5,-29.99"/>
<polygon fill="midnightblue" stroke="midnightblue" points="226,-29.75 222.5,-19.75 219,-29.75 226,-29.75"/>
</g>
<!-- Node7 -->
<g id="node7" class="node">
<title>Node7</title>
<g id="a_node7"><a target="_parent" xlink:href="http://en.cppreference.com/w/cpp/header/iosfwd.html" target="_top" xlink:title=" ">
<polygon fill="white" stroke="black" points="300,-0.5 300,-19.5 353,-19.5 353,-0.5 300,-0.5"/>
<text text-anchor="middle" x="326.5" y="-7.5" font-family="'Consolas',monospace" font-size="10.00">iosfwd</text>
</a>
</g>
</g>
<!-- Node5&#45;&gt;Node7 -->
<g id="edge6" class="edge">
<title>Node5&#45;&gt;Node7</title>
<path fill="none" stroke="midnightblue" d="M239.21,-56.32C255.81,-47.7 281.5,-34.36 300.72,-24.39"/>
<polygon fill="midnightblue" stroke="midnightblue" points="302.57,-27.37 309.83,-19.65 299.34,-21.16 302.57,-27.37"/>
</g>
</g>
</svg>
