<?xml version="1.0" encoding="UTF-8" standalone="no"?>
<!DOCTYPE svg PUBLIC "-//W3C//DTD SVG 1.1//EN"
 "http://www.w3.org/Graphics/SVG/1.1/DTD/svg11.dtd">
<!-- Generated by graphviz version 2.44.0 (0)
 -->
<!-- Title: jngl/framebuffer.hpp Pages: 1 -->
<svg width="583pt" height="140pt"
 viewBox="0.00 0.00 583.00 140.00" xmlns="http://www.w3.org/2000/svg" xmlns:xlink="http://www.w3.org/1999/xlink">
<g id="graph0" class="graph" transform="scale(1 1) rotate(0) translate(4 136)">
<title>jngl/framebuffer.hpp</title>
<polygon fill="white" stroke="transparent" points="-4,4 -4,-136 579,-136 579,4 -4,4"/>
<!-- Node1 -->
<g id="node1" class="node">
<title>Node1</title>
<g id="a_node1"><a xlink:title="Contains jngl::FrameBuffer class.">
<polygon fill="#bfbfbf" stroke="black" points="240,-112.5 240,-131.5 371,-131.5 371,-112.5 240,-112.5"/>
<text text-anchor="middle" x="305.5" y="-119.5" font-family="'Consolas',monospace" font-size="10.00">jngl/framebuffer.hpp</text>
</a>
</g>
</g>
<!-- Node2 -->
<g id="node2" class="node">
<title>Node2</title>
<g id="a_node2"><a xlink:href="Color_8hpp.html" target="_top" xlink:title="Contains jngl::Color class.">
<polygon fill="white" stroke="black" points="0,-56.5 0,-75.5 71,-75.5 71,-56.5 0,-56.5"/>
<text text-anchor="middle" x="35.5" y="-63.5" font-family="'Consolas',monospace" font-size="10.00">Color.hpp</text>
</a>
</g>
</g>
<!-- Node1&#45;&gt;Node2 -->
<g id="edge1" class="edge">
<title>Node1&#45;&gt;Node2</title>
<path fill="none" stroke="midnightblue" d="M262.72,-112.44C213.19,-102.54 131.95,-86.29 81.22,-76.14"/>
<polygon fill="midnightblue" stroke="midnightblue" points="81.68,-72.67 71.18,-74.14 80.3,-79.53 81.68,-72.67"/>
</g>
<!-- Node3 -->
<g id="node3" class="node">
<title>Node3</title>
<g id="a_node3"><a xlink:href="Finally_8hpp.html" target="_top" xlink:title="Contains jngl::Finally class.">
<polygon fill="white" stroke="black" points="89,-56.5 89,-75.5 172,-75.5 172,-56.5 89,-56.5"/>
<text text-anchor="middle" x="130.5" y="-63.5" font-family="'Consolas',monospace" font-size="10.00">Finally.hpp</text>
</a>
</g>
</g>
<!-- Node1&#45;&gt;Node3 -->
<g id="edge2" class="edge">
<title>Node1&#45;&gt;Node3</title>
<path fill="none" stroke="midnightblue" d="M277.77,-112.44C248.07,-103.28 200.78,-88.69 167.83,-78.52"/>
<polygon fill="midnightblue" stroke="midnightblue" points="168.69,-75.12 158.1,-75.52 166.62,-81.81 168.69,-75.12"/>
</g>
<!-- Node5 -->
<g id="node5" class="node">
<title>Node5</title>
<g id="a_node5"><a xlink:href="Mat3_8hpp.html" target="_top" xlink:title="Contains jngl::Mat3 class.">
<polygon fill="white" stroke="black" points="190,-56.5 190,-75.5 255,-75.5 255,-56.5 190,-56.5"/>
<text text-anchor="middle" x="222.5" y="-63.5" font-family="'Consolas',monospace" font-size="10.00">Mat3.hpp</text>
</a>
</g>
</g>
<!-- Node1&#45;&gt;Node5 -->
<g id="edge4" class="edge">
<title>Node1&#45;&gt;Node5</title>
<path fill="none" stroke="midnightblue" d="M292.16,-112.32C279.34,-103.98 259.72,-91.21 244.56,-81.35"/>
<polygon fill="midnightblue" stroke="midnightblue" points="246.09,-78.17 235.8,-75.65 242.28,-84.04 246.09,-78.17"/>
</g>
<!-- Node8 -->
<g id="node8" class="node">
<title>Node8</title>
<g id="a_node8"><a xlink:href="Vec2_8hpp.html" target="_top" xlink:title="Contains jngl::Vec2 class.">
<polygon fill="white" stroke="black" points="273,-56.5 273,-75.5 338,-75.5 338,-56.5 273,-56.5"/>
<text text-anchor="middle" x="305.5" y="-63.5" font-family="'Consolas',monospace" font-size="10.00">Vec2.hpp</text>
</a>
</g>
</g>
<!-- Node1&#45;&gt;Node8 -->
<g id="edge7" class="edge">
<title>Node1&#45;&gt;Node8</title>
<path fill="none" stroke="midnightblue" d="M305.5,-112.08C305.5,-105.01 305.5,-94.86 305.5,-85.99"/>
<polygon fill="midnightblue" stroke="midnightblue" points="309,-85.75 305.5,-75.75 302,-85.75 309,-85.75"/>
</g>
<!-- Node10 -->
<g id="node10" class="node">
<title>Node10</title>
<g id="a_node10"><a xlink:href="Vertex_8hpp.html" target="_top" xlink:title=" ">
<polygon fill="white" stroke="black" points="356,-56.5 356,-75.5 433,-75.5 433,-56.5 356,-56.5"/>
<text text-anchor="middle" x="394.5" y="-63.5" font-family="'Consolas',monospace" font-size="10.00">Vertex.hpp</text>
</a>
</g>
</g>
<!-- Node1&#45;&gt;Node10 -->
<g id="edge10" class="edge">
<title>Node1&#45;&gt;Node10</title>
<path fill="none" stroke="midnightblue" d="M319.8,-112.32C333.68,-103.9 354.99,-90.97 371.3,-81.07"/>
<polygon fill="midnightblue" stroke="midnightblue" points="373.5,-83.83 380.24,-75.65 369.87,-77.85 373.5,-83.83"/>
</g>
<!-- Node11 -->
<g id="node11" class="node">
<title>Node11</title>
<g id="a_node11"><a target="_parent" xlink:href="http://en.cppreference.com/w/cpp/header/memory.html" xlink:title=" ">
<polygon fill="white" stroke="black" points="451,-56.5 451,-75.5 504,-75.5 504,-56.5 451,-56.5"/>
<text text-anchor="middle" x="477.5" y="-63.5" font-family="'Consolas',monospace" font-size="10.00">memory</text>
</a>
</g>
</g>
<!-- Node1&#45;&gt;Node11 -->
<g id="edge11" class="edge">
<title>Node1&#45;&gt;Node11</title>
<path fill="none" stroke="midnightblue" d="M332.75,-112.44C362.11,-103.23 408.97,-88.52 441.38,-78.34"/>
<polygon fill="midnightblue" stroke="midnightblue" points="442.45,-81.67 450.94,-75.34 440.35,-75 442.45,-81.67"/>
</g>
<!-- Node12 -->
<g id="node12" class="node">
<title>Node12</title>
<g id="a_node12"><a target="_parent" xlink:href="http://en.cppreference.com/w/cpp/header/vector.html" xlink:title=" ">
<polygon fill="white" stroke="black" points="522,-56.5 522,-75.5 575,-75.5 575,-56.5 522,-56.5"/>
<text text-anchor="middle" x="548.5" y="-63.5" font-family="'Consolas',monospace" font-size="10.00">vector</text>
</a>
</g>
</g>
<!-- Node1&#45;&gt;Node12 -->
<g id="edge12" class="edge">
<title>Node1&#45;&gt;Node12</title>
<path fill="none" stroke="midnightblue" d="M347.44,-112.42C387.39,-104.14 449.45,-90.99 511.77,-76.35"/>
<polygon fill="midnightblue" stroke="midnightblue" points="512.85,-79.69 521.77,-73.99 511.24,-72.88 512.85,-79.69"/>
</g>
<!-- Node4 -->
<g id="node4" class="node">
<title>Node4</title>
<g id="a_node4"><a target="_parent" xlink:href="http://en.cppreference.com/w/cpp/header/functional.html" xlink:title=" ">
<polygon fill="white" stroke="black" points="20,-0.5 20,-19.5 97,-19.5 97,-0.5 20,-0.5"/>
<text text-anchor="middle" x="58.5" y="-7.5" font-family="'Consolas',monospace" font-size="10.00">functional</text>
</a>
</g>
</g>
<!-- Node3&#45;&gt;Node4 -->
<g id="edge3" class="edge">
<title>Node3&#45;&gt;Node4</title>
<path fill="none" stroke="midnightblue" d="M118.93,-56.32C108.08,-48.18 91.62,-35.84 78.62,-26.09"/>
<polygon fill="midnightblue" stroke="midnightblue" points="80.38,-23.03 70.28,-19.83 76.18,-28.63 80.38,-23.03"/>
</g>
<!-- Node6 -->
<g id="node6" class="node">
<title>Node6</title>
<g id="a_node6"><a xlink:title=" ">
<polygon fill="white" stroke="#bfbfbf" points="246,-0.5 246,-19.5 365,-19.5 365,-0.5 246,-0.5"/>
<text text-anchor="middle" x="305.5" y="-7.5" font-family="'Consolas',monospace" font-size="10.00">boost/version.hpp</text>
</a>
</g>
</g>
<!-- Node5&#45;&gt;Node6 -->
<g id="edge5" class="edge">
<title>Node5&#45;&gt;Node6</title>
<path fill="none" stroke="midnightblue" d="M235.84,-56.32C248.66,-47.98 268.28,-35.21 283.44,-25.35"/>
<polygon fill="midnightblue" stroke="midnightblue" points="285.72,-28.04 292.2,-19.65 281.91,-22.17 285.72,-28.04"/>
</g>
<!-- Node7 -->
<g id="node7" class="node">
<title>Node7</title>
<g id="a_node7"><a target="_parent" xlink:href="http://en.cppreference.com/w/cpp/header/initializer_list.html" xlink:title=" ">
<polygon fill="white" stroke="black" points="115,-0.5 115,-19.5 228,-19.5 228,-0.5 115,-0.5"/>
<text text-anchor="middle" x="171.5" y="-7.5" font-family="'Consolas',monospace" font-size="10.00">initializer_list</text>
</a>
</g>
</g>
<!-- Node5&#45;&gt;Node7 -->
<g id="edge6" class="edge">
<title>Node5&#45;&gt;Node7</title>
<path fill="none" stroke="midnightblue" d="M214.08,-56.08C206.65,-48.22 195.65,-36.57 186.69,-27.08"/>
<polygon fill="midnightblue" stroke="midnightblue" points="189.18,-24.62 179.76,-19.75 184.09,-29.42 189.18,-24.62"/>
</g>
<!-- Node8&#45;&gt;Node6 -->
<g id="edge8" class="edge">
<title>Node8&#45;&gt;Node6</title>
<path fill="none" stroke="midnightblue" d="M305.5,-56.08C305.5,-49.01 305.5,-38.86 305.5,-29.99"/>
<polygon fill="midnightblue" stroke="midnightblue" points="309,-29.75 305.5,-19.75 302,-29.75 309,-29.75"/>
</g>
<!-- Node9 -->
<g id="node9" class="node">
<title>Node9</title>
<g id="a_node9"><a target="_parent" xlink:href="http://en.cppreference.com/w/cpp/header/iosfwd.html" xlink:title=" ">
<polygon fill="white" stroke="black" points="383,-0.5 383,-19.5 436,-19.5 436,-0.5 383,-0.5"/>
<text text-anchor="middle" x="409.5" y="-7.5" font-family="'Consolas',monospace" font-size="10.00">iosfwd</text>
</a>
</g>
</g>
<!-- Node8&#45;&gt;Node9 -->
<g id="edge9" class="edge">
<title>Node8&#45;&gt;Node9</title>
<path fill="none" stroke="midnightblue" d="M322.21,-56.32C338.81,-47.7 364.5,-34.36 383.72,-24.39"/>
<polygon fill="midnightblue" stroke="midnightblue" points="385.57,-27.37 392.83,-19.65 382.34,-21.16 385.57,-27.37"/>
</g>
</g>
</svg>
