<?xml version="1.0" encoding="UTF-8" standalone="no"?>
<!DOCTYPE svg PUBLIC "-//W3C//DTD SVG 1.1//EN"
 "http://www.w3.org/Graphics/SVG/1.1/DTD/svg11.dtd">
<!-- Generated by graphviz version 9.0.0 (20230911.1827)
 -->
<!-- Title: jngl/FrameBuffer.hpp Pages: 1 -->
<svg width="781pt" height="193pt"
 viewBox="0.00 0.00 781.00 193.00" xmlns="http://www.w3.org/2000/svg" xmlns:xlink="http://www.w3.org/1999/xlink">
<g id="graph0" class="graph" transform="scale(1 1) rotate(0) translate(4 189)">
<title>jngl/FrameBuffer.hpp</title>
<!-- Node1 -->
<g id="Node000001" class="node">
<title>Node1</title>
<g id="a_Node000001"><a xlink:title="Contains jngl::FrameBuffer class.">
<polygon fill="#999999" stroke="#666666" points="593,-185 463,-185 463,-165.75 593,-165.75 593,-185"/>
<text text-anchor="middle" x="528" y="-171.5" font-family="ui-monospace,monospace" font-size="10.00">jngl/FrameBuffer.hpp</text>
</a>
</g>
</g>
<!-- Node2 -->
<g id="Node000002" class="node">
<title>Node2</title>
<g id="a_Node000002"><a xlink:href="Mat3_8hpp.html" target="_top" xlink:title="Contains jngl::Mat3 class.">
<polygon fill="white" stroke="#666666" points="221,-129.75 157,-129.75 157,-110.5 221,-110.5 221,-129.75"/>
<text text-anchor="middle" x="189" y="-116.25" font-family="ui-monospace,monospace" font-size="10.00">Mat3.hpp</text>
</a>
</g>
</g>
<!-- Node1&#45;&gt;Node2 -->
<g id="edge1_Node000001_Node000002" class="edge">
<title>Node1&#45;&gt;Node2</title>
<g id="a_edge1_Node000001_Node000002"><a xlink:title=" ">
<path fill="none" stroke="#63b8ff" d="M462.71,-165.72C404.76,-157.79 317.51,-145.22 232.37,-130.09"/>
<polygon fill="#63b8ff" stroke="#63b8ff" points="233.14,-126.67 222.68,-128.35 231.91,-133.56 233.14,-126.67"/>
</a>
</g>
</g>
<!-- Node5 -->
<g id="Node000005" class="node">
<title>Node5</title>
<g id="a_Node000005"><a xlink:href="Pixels_8hpp.html" target="_top" xlink:title="Contains jngl::Pixels class.">
<polygon fill="white" stroke="#666666" points="637,-74.5 561,-74.5 561,-55.25 637,-55.25 637,-74.5"/>
<text text-anchor="middle" x="599" y="-61" font-family="ui-monospace,monospace" font-size="10.00">Pixels.hpp</text>
</a>
</g>
</g>
<!-- Node1&#45;&gt;Node5 -->
<g id="edge4_Node000001_Node000005" class="edge">
<title>Node1&#45;&gt;Node5</title>
<g id="a_edge4_Node000001_Node000005"><a xlink:title=" ">
<path fill="none" stroke="#63b8ff" d="M533.81,-165.5C545.36,-147.85 571.4,-108.05 586.85,-84.45"/>
<polygon fill="#63b8ff" stroke="#63b8ff" points="589.73,-86.43 592.28,-76.14 583.88,-82.59 589.73,-86.43"/>
</a>
</g>
</g>
<!-- Node7 -->
<g id="Node000007" class="node">
<title>Node7</title>
<g id="a_Node000007"><a xlink:href="Vec2_8hpp.html" target="_top" xlink:title="Contains jngl::Vec2 class.">
<polygon fill="white" stroke="#666666" points="303,-129.75 239,-129.75 239,-110.5 303,-110.5 303,-129.75"/>
<text text-anchor="middle" x="271" y="-116.25" font-family="ui-monospace,monospace" font-size="10.00">Vec2.hpp</text>
</a>
</g>
</g>
<!-- Node1&#45;&gt;Node7 -->
<g id="edge6_Node000001_Node000007" class="edge">
<title>Node1&#45;&gt;Node7</title>
<g id="a_edge6_Node000001_Node000007"><a xlink:title=" ">
<path fill="none" stroke="#63b8ff" d="M483.73,-165.28C442.45,-156.78 378.85,-143.67 314.41,-130.25"/>
<polygon fill="#63b8ff" stroke="#63b8ff" points="315.21,-126.84 304.71,-128.22 313.78,-133.69 315.21,-126.84"/>
</a>
</g>
</g>
<!-- Node9 -->
<g id="Node000009" class="node">
<title>Node9</title>
<g id="a_Node000009"><a xlink:href="Vertex_8hpp.html" target="_top" xlink:title=" ">
<polygon fill="white" stroke="#666666" points="533,-129.75 457,-129.75 457,-110.5 533,-110.5 533,-129.75"/>
<text text-anchor="middle" x="495" y="-116.25" font-family="ui-monospace,monospace" font-size="10.00">Vertex.hpp</text>
</a>
</g>
</g>
<!-- Node1&#45;&gt;Node9 -->
<g id="edge9_Node000001_Node000009" class="edge">
<title>Node1&#45;&gt;Node9</title>
<g id="a_edge9_Node000001_Node000009"><a xlink:title=" ">
<path fill="none" stroke="#63b8ff" d="M522.55,-165.58C518.23,-158.61 512.04,-148.62 506.62,-139.87"/>
<polygon fill="#63b8ff" stroke="#63b8ff" points="509.61,-138.05 501.36,-131.4 503.66,-141.74 509.61,-138.05"/>
</a>
</g>
</g>
<!-- Node10 -->
<g id="Node000010" class="node">
<title>Node10</title>
<g id="a_Node000010"><a xlink:href="ShaderProgram_8hpp.html" target="_top" xlink:title="Contains jngl::ShaderProgram class.">
<polygon fill="white" stroke="#666666" points="439,-129.75 321,-129.75 321,-110.5 439,-110.5 439,-129.75"/>
<text text-anchor="middle" x="380" y="-116.25" font-family="ui-monospace,monospace" font-size="10.00">ShaderProgram.hpp</text>
</a>
</g>
</g>
<!-- Node1&#45;&gt;Node10 -->
<g id="edge10_Node000001_Node000010" class="edge">
<title>Node1&#45;&gt;Node10</title>
<g id="a_edge10_Node000001_Node000010"><a xlink:title=" ">
<path fill="none" stroke="#63b8ff" d="M502.89,-165.34C478.97,-156.74 442.72,-143.69 415.78,-134"/>
<polygon fill="#63b8ff" stroke="#63b8ff" points="417.25,-130.81 406.65,-130.71 414.88,-137.39 417.25,-130.81"/>
</a>
</g>
</g>
<!-- Node12 -->
<g id="Node000012" class="node">
<title>Node12</title>
<g id="a_Node000012"><a target="_parent" xlink:href="http://en.cppreference.com/w/cpp/header/memory.html" xlink:title=" ">
<polygon fill="white" stroke="#666666" points="543,-74.5 491,-74.5 491,-55.25 543,-55.25 543,-74.5"/>
<text text-anchor="middle" x="517" y="-61" font-family="ui-monospace,monospace" font-size="10.00">memory</text>
</a>
</g>
</g>
<!-- Node1&#45;&gt;Node12 -->
<g id="edge16_Node000001_Node000012" class="edge">
<title>Node1&#45;&gt;Node12</title>
<g id="a_edge16_Node000001_Node000012"><a xlink:title=" ">
<path fill="none" stroke="#63b8ff" d="M532.53,-165.64C538.34,-153.3 547.1,-130.05 542,-110.5 539.59,-101.28 534.82,-91.96 530.08,-84.23"/>
<polygon fill="#63b8ff" stroke="#63b8ff" points="533.14,-82.51 524.7,-76.11 527.3,-86.38 533.14,-82.51"/>
</a>
</g>
</g>
<!-- Node14 -->
<g id="Node000014" class="node">
<title>Node14</title>
<g id="a_Node000014"><a target="_parent" xlink:href="http://en.cppreference.com/w/cpp/header/functional.html" xlink:title=" ">
<polygon fill="white" stroke="#666666" points="703,-129.75 627,-129.75 627,-110.5 703,-110.5 703,-129.75"/>
<text text-anchor="middle" x="665" y="-116.25" font-family="ui-monospace,monospace" font-size="10.00">functional</text>
</a>
</g>
</g>
<!-- Node1&#45;&gt;Node14 -->
<g id="edge15_Node000001_Node000014" class="edge">
<title>Node1&#45;&gt;Node14</title>
<g id="a_edge15_Node000001_Node000014"><a xlink:title=" ">
<path fill="none" stroke="#63b8ff" d="M551.24,-165.34C573.19,-156.81 606.35,-143.92 631.21,-134.26"/>
<polygon fill="#63b8ff" stroke="#63b8ff" points="632.18,-137.64 640.24,-130.75 629.65,-131.11 632.18,-137.64"/>
</a>
</g>
</g>
<!-- Node15 -->
<g id="Node000015" class="node">
<title>Node15</title>
<g id="a_Node000015"><a target="_parent" xlink:href="http://en.cppreference.com/w/cpp/header/vector.html" xlink:title=" ">
<polygon fill="white" stroke="#666666" points="773,-129.75 721,-129.75 721,-110.5 773,-110.5 773,-129.75"/>
<text text-anchor="middle" x="747" y="-116.25" font-family="ui-monospace,monospace" font-size="10.00">vector</text>
</a>
</g>
</g>
<!-- Node1&#45;&gt;Node15 -->
<g id="edge17_Node000001_Node000015" class="edge">
<title>Node1&#45;&gt;Node15</title>
<g id="a_edge17_Node000001_Node000015"><a xlink:title=" ">
<path fill="none" stroke="#63b8ff" d="M565.72,-165.27C600.59,-156.84 654.16,-143.87 709.54,-130.35"/>
<polygon fill="#63b8ff" stroke="#63b8ff" points="710.28,-133.77 719.16,-127.99 708.61,-126.97 710.28,-133.77"/>
</a>
</g>
</g>
<!-- Node3 -->
<g id="Node000003" class="node">
<title>Node3</title>
<g id="a_Node000003"><a xlink:title=" ">
<polygon fill="#e0e0e0" stroke="#999999" points="254,-74.5 130,-74.5 130,-55.25 254,-55.25 254,-74.5"/>
<text text-anchor="middle" x="192" y="-61" font-family="ui-monospace,monospace" font-size="10.00">boost/qvm_lite.hpp</text>
</a>
</g>
</g>
<!-- Node2&#45;&gt;Node3 -->
<g id="edge2_Node000002_Node000003" class="edge">
<title>Node2&#45;&gt;Node3</title>
<g id="a_edge2_Node000002_Node000003"><a xlink:title=" ">
<path fill="none" stroke="#63b8ff" d="M189.5,-110.33C189.87,-103.74 190.39,-94.46 190.86,-86.07"/>
<polygon fill="#63b8ff" stroke="#63b8ff" points="194.34,-86.55 191.41,-76.37 187.35,-86.16 194.34,-86.55"/>
</a>
</g>
</g>
<!-- Node4 -->
<g id="Node000004" class="node">
<title>Node4</title>
<g id="a_Node000004"><a target="_parent" xlink:href="http://en.cppreference.com/w/cpp/header/initializer_list.html" xlink:title=" ">
<polygon fill="white" stroke="#666666" points="112,-74.5 0,-74.5 0,-55.25 112,-55.25 112,-74.5"/>
<text text-anchor="middle" x="56" y="-61" font-family="ui-monospace,monospace" font-size="10.00">initializer_list</text>
</a>
</g>
</g>
<!-- Node2&#45;&gt;Node4 -->
<g id="edge3_Node000002_Node000004" class="edge">
<title>Node2&#45;&gt;Node4</title>
<g id="a_edge3_Node000002_Node000004"><a xlink:title=" ">
<path fill="none" stroke="#63b8ff" d="M166.44,-110.09C145.23,-101.6 113.23,-88.79 89.12,-79.14"/>
<polygon fill="#63b8ff" stroke="#63b8ff" points="90.66,-75.98 80.08,-75.52 88.06,-82.48 90.66,-75.98"/>
</a>
</g>
</g>
<!-- Node6 -->
<g id="Node000006" class="node">
<title>Node6</title>
<g id="a_Node000006"><a target="_parent" xlink:href="http://en.cppreference.com/w/cpp/header/cstdint.html" xlink:title=" ">
<polygon fill="white" stroke="#666666" points="515,-19.25 457,-19.25 457,0 515,0 515,-19.25"/>
<text text-anchor="middle" x="486" y="-5.75" font-family="ui-monospace,monospace" font-size="10.00">cstdint</text>
</a>
</g>
</g>
<!-- Node5&#45;&gt;Node6 -->
<g id="edge5_Node000005_Node000006" class="edge">
<title>Node5&#45;&gt;Node6</title>
<g id="a_edge5_Node000005_Node000006"><a xlink:title=" ">
<path fill="none" stroke="#63b8ff" d="M579.83,-54.84C562.22,-46.54 535.84,-34.11 515.54,-24.54"/>
<polygon fill="#63b8ff" stroke="#63b8ff" points="517.17,-21.44 506.63,-20.35 514.19,-27.78 517.17,-21.44"/>
</a>
</g>
</g>
<!-- Node7&#45;&gt;Node3 -->
<g id="edge7_Node000007_Node000003" class="edge">
<title>Node7&#45;&gt;Node3</title>
<g id="a_edge7_Node000007_Node000003"><a xlink:title=" ">
<path fill="none" stroke="#63b8ff" d="M257.6,-110.09C245.91,-102.21 228.7,-90.61 214.84,-81.27"/>
<polygon fill="#63b8ff" stroke="#63b8ff" points="216.97,-78.49 206.72,-75.8 213.06,-84.29 216.97,-78.49"/>
</a>
</g>
</g>
<!-- Node8 -->
<g id="Node000008" class="node">
<title>Node8</title>
<g id="a_Node000008"><a target="_parent" xlink:href="http://en.cppreference.com/w/cpp/header/iosfwd.html" xlink:title=" ">
<polygon fill="white" stroke="#666666" points="324,-74.5 272,-74.5 272,-55.25 324,-55.25 324,-74.5"/>
<text text-anchor="middle" x="298" y="-61" font-family="ui-monospace,monospace" font-size="10.00">iosfwd</text>
</a>
</g>
</g>
<!-- Node7&#45;&gt;Node8 -->
<g id="edge8_Node000007_Node000008" class="edge">
<title>Node7&#45;&gt;Node8</title>
<g id="a_edge8_Node000007_Node000008"><a xlink:title=" ">
<path fill="none" stroke="#63b8ff" d="M275.46,-110.33C278.95,-103.44 283.95,-93.59 288.35,-84.91"/>
<polygon fill="#63b8ff" stroke="#63b8ff" points="291.36,-86.71 292.76,-76.21 285.12,-83.55 291.36,-86.71"/>
</a>
</g>
</g>
<!-- Node11 -->
<g id="Node000011" class="node">
<title>Node11</title>
<g id="a_Node000011"><a xlink:href="Rgb_8hpp.html" target="_top" xlink:title="Contains jngl::Rgb class.">
<polygon fill="white" stroke="#666666" points="403,-74.5 345,-74.5 345,-55.25 403,-55.25 403,-74.5"/>
<text text-anchor="middle" x="374" y="-61" font-family="ui-monospace,monospace" font-size="10.00">Rgb.hpp</text>
</a>
</g>
</g>
<!-- Node10&#45;&gt;Node11 -->
<g id="edge11_Node000010_Node000011" class="edge">
<title>Node10&#45;&gt;Node11</title>
<g id="a_edge11_Node000010_Node000011"><a xlink:title=" ">
<path fill="none" stroke="#63b8ff" d="M379.01,-110.33C378.27,-103.74 377.22,-94.46 376.28,-86.07"/>
<polygon fill="#63b8ff" stroke="#63b8ff" points="379.78,-85.91 375.18,-76.36 372.82,-86.69 379.78,-85.91"/>
</a>
</g>
</g>
<!-- Node10&#45;&gt;Node12 -->
<g id="edge13_Node000010_Node000012" class="edge">
<title>Node10&#45;&gt;Node12</title>
<g id="a_edge13_Node000010_Node000012"><a xlink:title=" ">
<path fill="none" stroke="#63b8ff" d="M403.24,-110.09C425.19,-101.56 458.35,-88.67 483.21,-79.01"/>
<polygon fill="#63b8ff" stroke="#63b8ff" points="484.18,-82.39 492.24,-75.5 481.65,-75.86 484.18,-82.39"/>
</a>
</g>
</g>
<!-- Node13 -->
<g id="Node000013" class="node">
<title>Node13</title>
<g id="a_Node000013"><a target="_parent" xlink:href="http://en.cppreference.com/w/cpp/header/string.html" xlink:title=" ">
<polygon fill="white" stroke="#666666" points="473,-74.5 421,-74.5 421,-55.25 473,-55.25 473,-74.5"/>
<text text-anchor="middle" x="447" y="-61" font-family="ui-monospace,monospace" font-size="10.00">string</text>
</a>
</g>
</g>
<!-- Node10&#45;&gt;Node13 -->
<g id="edge14_Node000010_Node000013" class="edge">
<title>Node10&#45;&gt;Node13</title>
<g id="a_edge14_Node000010_Node000013"><a xlink:title=" ">
<path fill="none" stroke="#63b8ff" d="M391.37,-110.09C401.05,-102.4 415.2,-91.15 426.81,-81.93"/>
<polygon fill="#63b8ff" stroke="#63b8ff" points="428.97,-84.68 434.62,-75.72 424.61,-79.2 428.97,-84.68"/>
</a>
</g>
</g>
<!-- Node11&#45;&gt;Node6 -->
<g id="edge12_Node000011_Node000006" class="edge">
<title>Node11&#45;&gt;Node6</title>
<g id="a_edge12_Node000011_Node000006"><a xlink:title=" ">
<path fill="none" stroke="#63b8ff" d="M393,-54.84C410.46,-46.54 436.6,-34.11 456.72,-24.54"/>
<polygon fill="#63b8ff" stroke="#63b8ff" points="458.01,-27.81 465.54,-20.35 455.01,-21.49 458.01,-27.81"/>
</a>
</g>
</g>
</g>
</svg>
