<?xml version="1.0" encoding="UTF-8" standalone="no"?>
<!DOCTYPE svg PUBLIC "-//W3C//DTD SVG 1.1//EN"
 "http://www.w3.org/Graphics/SVG/1.1/DTD/svg11.dtd">
<!-- Generated by graphviz version 2.42.4 (0)
 -->
<!-- Title: jngl/framebuffer.hpp Pages: 1 -->
<svg width="361pt" height="140pt"
 viewBox="0.00 0.00 361.00 140.00" xmlns="http://www.w3.org/2000/svg" xmlns:xlink="http://www.w3.org/1999/xlink">
<g id="graph0" class="graph" transform="scale(1 1) rotate(0) translate(4 136)">
<title>jngl/framebuffer.hpp</title>
<polygon fill="white" stroke="transparent" points="-4,4 -4,-136 357,-136 357,4 -4,4"/>
<!-- Node1 -->
<g id="node1" class="node">
<title>Node1</title>
<g id="a_node1"><a xlink:title="Contains FrameBuffer class.">
<polygon fill="#bfbfbf" stroke="black" points="133,-112.5 133,-131.5 264,-131.5 264,-112.5 133,-112.5"/>
<text text-anchor="middle" x="198.5" y="-119.5" font-family="'Consolas',monospace" font-size="10.00">jngl/framebuffer.hpp</text>
</a>
</g>
</g>
<!-- Node2 -->
<g id="node2" class="node">
<title>Node2</title>
<g id="a_node2"><a xlink:href="Finally_8hpp.html" target="_top" xlink:title=" ">
<polygon fill="white" stroke="black" points="9,-56.5 9,-75.5 92,-75.5 92,-56.5 9,-56.5"/>
<text text-anchor="middle" x="50.5" y="-63.5" font-family="'Consolas',monospace" font-size="10.00">Finally.hpp</text>
</a>
</g>
</g>
<!-- Node1&#45;&gt;Node2 -->
<g id="edge1" class="edge">
<title>Node1&#45;&gt;Node2</title>
<path fill="none" stroke="midnightblue" d="M175.05,-112.44C150.37,-103.44 111.31,-89.19 83.52,-79.05"/>
<polygon fill="midnightblue" stroke="midnightblue" points="84.44,-75.66 73.84,-75.52 82.04,-82.23 84.44,-75.66"/>
</g>
<!-- Node4 -->
<g id="node4" class="node">
<title>Node4</title>
<g id="a_node4"><a xlink:href="Vec2_8hpp.html" target="_top" xlink:title=" ">
<polygon fill="white" stroke="black" points="122,-56.5 122,-75.5 187,-75.5 187,-56.5 122,-56.5"/>
<text text-anchor="middle" x="154.5" y="-63.5" font-family="'Consolas',monospace" font-size="10.00">Vec2.hpp</text>
</a>
</g>
</g>
<!-- Node1&#45;&gt;Node4 -->
<g id="edge3" class="edge">
<title>Node1&#45;&gt;Node4</title>
<path fill="none" stroke="midnightblue" d="M191.23,-112.08C184.96,-104.38 175.71,-93.03 168.07,-83.65"/>
<polygon fill="midnightblue" stroke="midnightblue" points="170.66,-81.29 161.63,-75.75 165.23,-85.71 170.66,-81.29"/>
</g>
<!-- Node7 -->
<g id="node7" class="node">
<title>Node7</title>
<g id="a_node7"><a xlink:href="Vertex_8hpp.html" target="_top" xlink:title=" ">
<polygon fill="white" stroke="black" points="205,-56.5 205,-75.5 282,-75.5 282,-56.5 205,-56.5"/>
<text text-anchor="middle" x="243.5" y="-63.5" font-family="'Consolas',monospace" font-size="10.00">Vertex.hpp</text>
</a>
</g>
</g>
<!-- Node1&#45;&gt;Node7 -->
<g id="edge6" class="edge">
<title>Node1&#45;&gt;Node7</title>
<path fill="none" stroke="midnightblue" d="M205.93,-112.08C212.35,-104.38 221.81,-93.03 229.62,-83.65"/>
<polygon fill="midnightblue" stroke="midnightblue" points="232.49,-85.67 236.21,-75.75 227.12,-81.19 232.49,-85.67"/>
</g>
<!-- Node8 -->
<g id="node8" class="node">
<title>Node8</title>
<g id="a_node8"><a xlink:href="http://en.cppreference.com/w/cpp/header/memory.html" xlink:title=" ">
<polygon fill="white" stroke="black" points="300,-56.5 300,-75.5 353,-75.5 353,-56.5 300,-56.5"/>
<text text-anchor="middle" x="326.5" y="-63.5" font-family="'Consolas',monospace" font-size="10.00">memory</text>
</a>
</g>
</g>
<!-- Node1&#45;&gt;Node8 -->
<g id="edge7" class="edge">
<title>Node1&#45;&gt;Node8</title>
<path fill="none" stroke="midnightblue" d="M218.78,-112.44C239.85,-103.56 273.02,-89.56 296.99,-79.45"/>
<polygon fill="midnightblue" stroke="midnightblue" points="298.46,-82.63 306.31,-75.52 295.74,-76.18 298.46,-82.63"/>
</g>
<!-- Node3 -->
<g id="node3" class="node">
<title>Node3</title>
<g id="a_node3"><a xlink:href="http://en.cppreference.com/w/cpp/header/functional.html" xlink:title=" ">
<polygon fill="white" stroke="black" points="0,-0.5 0,-19.5 77,-19.5 77,-0.5 0,-0.5"/>
<text text-anchor="middle" x="38.5" y="-7.5" font-family="'Consolas',monospace" font-size="10.00">functional</text>
</a>
</g>
</g>
<!-- Node2&#45;&gt;Node3 -->
<g id="edge2" class="edge">
<title>Node2&#45;&gt;Node3</title>
<path fill="none" stroke="midnightblue" d="M48.52,-56.08C46.93,-48.93 44.64,-38.64 42.65,-29.69"/>
<polygon fill="midnightblue" stroke="midnightblue" points="46.03,-28.75 40.44,-19.75 39.2,-30.27 46.03,-28.75"/>
</g>
<!-- Node5 -->
<g id="node5" class="node">
<title>Node5</title>
<g id="a_node5"><a xlink:title=" ">
<polygon fill="white" stroke="#bfbfbf" points="95,-0.5 95,-19.5 214,-19.5 214,-0.5 95,-0.5"/>
<text text-anchor="middle" x="154.5" y="-7.5" font-family="'Consolas',monospace" font-size="10.00">boost/version.hpp</text>
</a>
</g>
</g>
<!-- Node4&#45;&gt;Node5 -->
<g id="edge4" class="edge">
<title>Node4&#45;&gt;Node5</title>
<path fill="none" stroke="midnightblue" d="M154.5,-56.08C154.5,-49.01 154.5,-38.86 154.5,-29.99"/>
<polygon fill="midnightblue" stroke="midnightblue" points="158,-29.75 154.5,-19.75 151,-29.75 158,-29.75"/>
</g>
<!-- Node6 -->
<g id="node6" class="node">
<title>Node6</title>
<g id="a_node6"><a xlink:href="http://en.cppreference.com/w/cpp/header/iosfwd.html" xlink:title=" ">
<polygon fill="white" stroke="black" points="232,-0.5 232,-19.5 285,-19.5 285,-0.5 232,-0.5"/>
<text text-anchor="middle" x="258.5" y="-7.5" font-family="'Consolas',monospace" font-size="10.00">iosfwd</text>
</a>
</g>
</g>
<!-- Node4&#45;&gt;Node6 -->
<g id="edge5" class="edge">
<title>Node4&#45;&gt;Node6</title>
<path fill="none" stroke="midnightblue" d="M171.21,-56.32C187.81,-47.7 213.5,-34.36 232.72,-24.39"/>
<polygon fill="midnightblue" stroke="midnightblue" points="234.57,-27.37 241.83,-19.65 231.34,-21.16 234.57,-27.37"/>
</g>
</g>
</svg>
