<?xml version="1.0" encoding="UTF-8" standalone="no"?>
<!DOCTYPE svg PUBLIC "-//W3C//DTD SVG 1.1//EN"
 "http://www.w3.org/Graphics/SVG/1.1/DTD/svg11.dtd">
<!-- Generated by graphviz version 5.0.0 (0)
 -->
<!-- Title: jngl/FrameBuffer.hpp Pages: 1 -->
<svg width="682pt" height="192pt"
 viewBox="0.00 0.00 682.00 192.00" xmlns="http://www.w3.org/2000/svg" xmlns:xlink="http://www.w3.org/1999/xlink">
<g id="graph0" class="graph" transform="scale(1 1) rotate(0) translate(4 188)">
<title>jngl/FrameBuffer.hpp</title>
<!-- Node1 -->
<g id="node1" class="node">
<title>Node1</title>
<g id="a_node1"><a xlink:title="Contains jngl::FrameBuffer class.">
<polygon fill="#999999" stroke="#666666" points="461,-184 330,-184 330,-165 461,-165 461,-184"/>
<text text-anchor="middle" x="395.5" y="-172" font-family="ui-monospace,monospace" font-size="10.00">jngl/FrameBuffer.hpp</text>
</a>
</g>
</g>
<!-- Node2 -->
<g id="node2" class="node">
<title>Node2</title>
<g id="a_node2"><a xlink:href="Color_8hpp.html" target="_top" xlink:title="Contains jngl::Color class.">
<polygon fill="white" stroke="#666666" points="82,-129 11,-129 11,-110 82,-110 82,-129"/>
<text text-anchor="middle" x="46.5" y="-117" font-family="ui-monospace,monospace" font-size="10.00">Color.hpp</text>
</a>
</g>
</g>
<!-- Node1&#45;&gt;Node2 -->
<g id="edge1" class="edge">
<title>Node1&#45;&gt;Node2</title>
<path fill="none" stroke="#63b8ff" d="M339.43,-164.98C270.8,-154.56 155.9,-137.11 92.31,-127.46"/>
<polygon fill="#63b8ff" stroke="#63b8ff" points="92.6,-123.96 82.19,-125.92 91.55,-130.88 92.6,-123.96"/>
</g>
<!-- Node5 -->
<g id="node5" class="node">
<title>Node5</title>
<g id="a_node5"><a xlink:href="Finally_8hpp.html" target="_top" xlink:title="Contains jngl::Finally class.">
<polygon fill="white" stroke="#666666" points="216,-129 133,-129 133,-110 216,-110 216,-129"/>
<text text-anchor="middle" x="174.5" y="-117" font-family="ui-monospace,monospace" font-size="10.00">Finally.hpp</text>
</a>
</g>
</g>
<!-- Node1&#45;&gt;Node5 -->
<g id="edge4" class="edge">
<title>Node1&#45;&gt;Node5</title>
<path fill="none" stroke="#63b8ff" d="M359.99,-164.98C322.01,-155.87 261.63,-141.4 220.14,-131.45"/>
<polygon fill="#63b8ff" stroke="#63b8ff" points="220.83,-128.01 210.29,-129.08 219.19,-134.82 220.83,-128.01"/>
</g>
<!-- Node7 -->
<g id="node7" class="node">
<title>Node7</title>
<g id="a_node7"><a xlink:href="Mat3_8hpp.html" target="_top" xlink:title="Contains jngl::Mat3 class.">
<polygon fill="white" stroke="#666666" points="315,-129 250,-129 250,-110 315,-110 315,-129"/>
<text text-anchor="middle" x="282.5" y="-117" font-family="ui-monospace,monospace" font-size="10.00">Mat3.hpp</text>
</a>
</g>
</g>
<!-- Node1&#45;&gt;Node7 -->
<g id="edge6" class="edge">
<title>Node1&#45;&gt;Node7</title>
<path fill="none" stroke="#63b8ff" d="M377.34,-164.98C359.25,-156.5 331.22,-143.35 310.31,-133.54"/>
<polygon fill="#63b8ff" stroke="#63b8ff" points="311.53,-130.25 300.99,-129.17 308.55,-136.59 311.53,-130.25"/>
</g>
<!-- Node10 -->
<g id="node10" class="node">
<title>Node10</title>
<g id="a_node10"><a xlink:href="Pixels_8hpp.html" target="_top" xlink:title="Contains jngl::Pixels class.">
<polygon fill="white" stroke="#666666" points="594,-74 517,-74 517,-55 594,-55 594,-74"/>
<text text-anchor="middle" x="555.5" y="-62" font-family="ui-monospace,monospace" font-size="10.00">Pixels.hpp</text>
</a>
</g>
</g>
<!-- Node1&#45;&gt;Node10 -->
<g id="edge9" class="edge">
<title>Node1&#45;&gt;Node10</title>
<path fill="none" stroke="#63b8ff" d="M400.38,-164.95C408.42,-151.55 425.65,-125.56 446.5,-110 466.3,-95.23 491.7,-84.49 513,-77.26"/>
<polygon fill="#63b8ff" stroke="#63b8ff" points="514.34,-80.51 522.77,-74.09 512.18,-73.85 514.34,-80.51"/>
</g>
<!-- Node11 -->
<g id="node11" class="node">
<title>Node11</title>
<g id="a_node11"><a xlink:href="Vec2_8hpp.html" target="_top" xlink:title="Contains jngl::Vec2 class.">
<polygon fill="white" stroke="#666666" points="398,-129 333,-129 333,-110 398,-110 398,-129"/>
<text text-anchor="middle" x="365.5" y="-117" font-family="ui-monospace,monospace" font-size="10.00">Vec2.hpp</text>
</a>
</g>
</g>
<!-- Node1&#45;&gt;Node11 -->
<g id="edge11" class="edge">
<title>Node1&#45;&gt;Node11</title>
<path fill="none" stroke="#63b8ff" d="M390.55,-164.75C386.44,-157.49 380.47,-146.95 375.4,-137.98"/>
<polygon fill="#63b8ff" stroke="#63b8ff" points="378.33,-136.07 370.36,-129.09 372.24,-139.52 378.33,-136.07"/>
</g>
<!-- Node13 -->
<g id="node13" class="node">
<title>Node13</title>
<g id="a_node13"><a xlink:href="Vertex_8hpp.html" target="_top" xlink:title=" ">
<polygon fill="white" stroke="#666666" points="532,-129 455,-129 455,-110 532,-110 532,-129"/>
<text text-anchor="middle" x="493.5" y="-117" font-family="ui-monospace,monospace" font-size="10.00">Vertex.hpp</text>
</a>
</g>
</g>
<!-- Node1&#45;&gt;Node13 -->
<g id="edge14" class="edge">
<title>Node1&#45;&gt;Node13</title>
<path fill="none" stroke="#63b8ff" d="M411.25,-164.98C426.73,-156.61 450.59,-143.7 468.64,-133.95"/>
<polygon fill="#63b8ff" stroke="#63b8ff" points="470.34,-137.01 477.47,-129.17 467.01,-130.85 470.34,-137.01"/>
</g>
<!-- Node14 -->
<g id="node14" class="node">
<title>Node14</title>
<g id="a_node14"><a target="_parent" xlink:href="http://en.cppreference.com/w/cpp/header/memory.html" xlink:title=" ">
<polygon fill="white" stroke="#666666" points="603,-129 550,-129 550,-110 603,-110 603,-129"/>
<text text-anchor="middle" x="576.5" y="-117" font-family="ui-monospace,monospace" font-size="10.00">memory</text>
</a>
</g>
</g>
<!-- Node1&#45;&gt;Node14 -->
<g id="edge15" class="edge">
<title>Node1&#45;&gt;Node14</title>
<path fill="none" stroke="#63b8ff" d="M424.58,-164.98C455.92,-155.81 505.85,-141.19 539.85,-131.23"/>
<polygon fill="#63b8ff" stroke="#63b8ff" points="541.24,-134.47 549.85,-128.3 539.27,-127.75 541.24,-134.47"/>
</g>
<!-- Node15 -->
<g id="node15" class="node">
<title>Node15</title>
<g id="a_node15"><a target="_parent" xlink:href="http://en.cppreference.com/w/cpp/header/vector.html" xlink:title=" ">
<polygon fill="white" stroke="#666666" points="674,-129 621,-129 621,-110 674,-110 674,-129"/>
<text text-anchor="middle" x="647.5" y="-117" font-family="ui-monospace,monospace" font-size="10.00">vector</text>
</a>
</g>
</g>
<!-- Node1&#45;&gt;Node15 -->
<g id="edge16" class="edge">
<title>Node1&#45;&gt;Node15</title>
<path fill="none" stroke="#63b8ff" d="M439.65,-164.93C481.43,-156.71 546.13,-143.71 610.81,-129.32"/>
<polygon fill="#63b8ff" stroke="#63b8ff" points="611.77,-132.69 620.77,-127.1 610.25,-125.86 611.77,-132.69"/>
</g>
<!-- Node3 -->
<g id="node3" class="node">
<title>Node3</title>
<g id="a_node3"><a xlink:href="Rgb_8hpp.html" target="_top" xlink:title="Contains jngl::Rgb class.">
<polygon fill="white" stroke="#666666" points="59,-74 0,-74 0,-55 59,-55 59,-74"/>
<text text-anchor="middle" x="29.5" y="-62" font-family="ui-monospace,monospace" font-size="10.00">Rgb.hpp</text>
</a>
</g>
</g>
<!-- Node2&#45;&gt;Node3 -->
<g id="edge2" class="edge">
<title>Node2&#45;&gt;Node3</title>
<path fill="none" stroke="#63b8ff" d="M43.69,-109.75C41.44,-102.72 38.2,-92.62 35.38,-83.84"/>
<polygon fill="#63b8ff" stroke="#63b8ff" points="38.64,-82.54 32.25,-74.09 31.98,-84.68 38.64,-82.54"/>
</g>
<!-- Node4 -->
<g id="node4" class="node">
<title>Node4</title>
<g id="a_node4"><a target="_parent" xlink:href="http://en.cppreference.com/w/cpp/header/cstdint.html" xlink:title=" ">
<polygon fill="white" stroke="#666666" points="322,-19 263,-19 263,0 322,0 322,-19"/>
<text text-anchor="middle" x="292.5" y="-7" font-family="ui-monospace,monospace" font-size="10.00">cstdint</text>
</a>
</g>
</g>
<!-- Node3&#45;&gt;Node4 -->
<g id="edge3" class="edge">
<title>Node3&#45;&gt;Node4</title>
<path fill="none" stroke="#63b8ff" d="M59.36,-56.75C62.11,-56.15 64.85,-55.56 67.5,-55 132.39,-41.33 208.06,-26.61 253.04,-18"/>
<polygon fill="#63b8ff" stroke="#63b8ff" points="253.8,-21.41 262.97,-16.1 252.49,-14.54 253.8,-21.41"/>
</g>
<!-- Node6 -->
<g id="node6" class="node">
<title>Node6</title>
<g id="a_node6"><a target="_parent" xlink:href="http://en.cppreference.com/w/cpp/header/functional.html" xlink:title=" ">
<polygon fill="white" stroke="#666666" points="154,-74 77,-74 77,-55 154,-55 154,-74"/>
<text text-anchor="middle" x="115.5" y="-62" font-family="ui-monospace,monospace" font-size="10.00">functional</text>
</a>
</g>
</g>
<!-- Node5&#45;&gt;Node6 -->
<g id="edge5" class="edge">
<title>Node5&#45;&gt;Node6</title>
<path fill="none" stroke="#63b8ff" d="M165.02,-109.98C156.3,-102.15 143.16,-90.34 132.6,-80.86"/>
<polygon fill="#63b8ff" stroke="#63b8ff" points="134.93,-78.25 125.15,-74.17 130.25,-83.46 134.93,-78.25"/>
</g>
<!-- Node8 -->
<g id="node8" class="node">
<title>Node8</title>
<g id="a_node8"><a xlink:title=" ">
<polygon fill="#e0e0e0" stroke="#999999" points="428,-74 303,-74 303,-55 428,-55 428,-74"/>
<text text-anchor="middle" x="365.5" y="-62" font-family="ui-monospace,monospace" font-size="10.00">boost/qvm_lite.hpp</text>
</a>
</g>
</g>
<!-- Node7&#45;&gt;Node8 -->
<g id="edge7" class="edge">
<title>Node7&#45;&gt;Node8</title>
<path fill="none" stroke="#63b8ff" d="M295.84,-109.98C308.59,-101.84 328.05,-89.41 343.17,-79.76"/>
<polygon fill="#63b8ff" stroke="#63b8ff" points="345.38,-82.5 351.92,-74.17 341.61,-76.6 345.38,-82.5"/>
</g>
<!-- Node9 -->
<g id="node9" class="node">
<title>Node9</title>
<g id="a_node9"><a target="_parent" xlink:href="http://en.cppreference.com/w/cpp/header/initializer_list.html" xlink:title=" ">
<polygon fill="white" stroke="#666666" points="285,-74 172,-74 172,-55 285,-55 285,-74"/>
<text text-anchor="middle" x="228.5" y="-62" font-family="ui-monospace,monospace" font-size="10.00">initializer_list</text>
</a>
</g>
</g>
<!-- Node7&#45;&gt;Node9 -->
<g id="edge8" class="edge">
<title>Node7&#45;&gt;Node9</title>
<path fill="none" stroke="#63b8ff" d="M273.58,-109.75C265.72,-102.03 254.07,-90.6 244.58,-81.28"/>
<polygon fill="#63b8ff" stroke="#63b8ff" points="246.84,-78.6 237.25,-74.09 241.94,-83.59 246.84,-78.6"/>
</g>
<!-- Node10&#45;&gt;Node4 -->
<g id="edge10" class="edge">
<title>Node10&#45;&gt;Node4</title>
<path fill="none" stroke="#63b8ff" d="M516.98,-55.74C467.56,-45.78 382.27,-28.59 332.26,-18.51"/>
<polygon fill="#63b8ff" stroke="#63b8ff" points="332.65,-15.02 322.15,-16.48 331.26,-21.88 332.65,-15.02"/>
</g>
<!-- Node11&#45;&gt;Node8 -->
<g id="edge12" class="edge">
<title>Node11&#45;&gt;Node8</title>
<path fill="none" stroke="#63b8ff" d="M365.5,-109.75C365.5,-102.8 365.5,-92.85 365.5,-84.13"/>
<polygon fill="#63b8ff" stroke="#63b8ff" points="369,-84.09 365.5,-74.09 362,-84.09 369,-84.09"/>
</g>
<!-- Node12 -->
<g id="node12" class="node">
<title>Node12</title>
<g id="a_node12"><a target="_parent" xlink:href="http://en.cppreference.com/w/cpp/header/iosfwd.html" xlink:title=" ">
<polygon fill="white" stroke="#666666" points="499,-74 446,-74 446,-55 499,-55 499,-74"/>
<text text-anchor="middle" x="472.5" y="-62" font-family="ui-monospace,monospace" font-size="10.00">iosfwd</text>
</a>
</g>
</g>
<!-- Node11&#45;&gt;Node12 -->
<g id="edge13" class="edge">
<title>Node11&#45;&gt;Node12</title>
<path fill="none" stroke="#63b8ff" d="M382.69,-109.98C399.75,-101.54 426.13,-88.47 445.9,-78.68"/>
<polygon fill="#63b8ff" stroke="#63b8ff" points="447.59,-81.75 455,-74.17 444.48,-75.47 447.59,-81.75"/>
</g>
</g>
</svg>
