<?xml version="1.0" encoding="UTF-8" standalone="no"?>
<!DOCTYPE svg PUBLIC "-//W3C//DTD SVG 1.1//EN"
 "http://www.w3.org/Graphics/SVG/1.1/DTD/svg11.dtd">
<!-- Generated by graphviz version 2.44.0 (0)
 -->
<!-- Title: jngl/framebuffer.hpp Pages: 1 -->
<svg width="678pt" height="140pt"
 viewBox="0.00 0.00 678.00 140.00" xmlns="http://www.w3.org/2000/svg" xmlns:xlink="http://www.w3.org/1999/xlink">
<g id="graph0" class="graph" transform="scale(1 1) rotate(0) translate(4 136)">
<title>jngl/framebuffer.hpp</title>
<polygon fill="white" stroke="transparent" points="-4,4 -4,-136 674,-136 674,4 -4,4"/>
<!-- Node1 -->
<g id="node1" class="node">
<title>Node1</title>
<g id="a_node1"><a xlink:title="Contains jngl::FrameBuffer class.">
<polygon fill="#bfbfbf" stroke="black" points="293,-112.5 293,-131.5 424,-131.5 424,-112.5 293,-112.5"/>
<text text-anchor="middle" x="358.5" y="-119.5" font-family="'Consolas',monospace" font-size="10.00">jngl/framebuffer.hpp</text>
</a>
</g>
</g>
<!-- Node2 -->
<g id="node2" class="node">
<title>Node2</title>
<g id="a_node2"><a xlink:href="Color_8hpp.html" target="_top" xlink:title="Contains jngl::Color class.">
<polygon fill="white" stroke="black" points="0,-56.5 0,-75.5 71,-75.5 71,-56.5 0,-56.5"/>
<text text-anchor="middle" x="35.5" y="-63.5" font-family="'Consolas',monospace" font-size="10.00">Color.hpp</text>
</a>
</g>
</g>
<!-- Node1&#45;&gt;Node2 -->
<g id="edge1" class="edge">
<title>Node1&#45;&gt;Node2</title>
<path fill="none" stroke="midnightblue" d="M301.96,-112.47C247.91,-104.18 163.88,-90.92 81.39,-76.11"/>
<polygon fill="midnightblue" stroke="midnightblue" points="81.8,-72.62 71.34,-74.29 80.56,-79.51 81.8,-72.62"/>
</g>
<!-- Node3 -->
<g id="node3" class="node">
<title>Node3</title>
<g id="a_node3"><a xlink:href="Finally_8hpp.html" target="_top" xlink:title="Contains jngl::Finally class.">
<polygon fill="white" stroke="black" points="89,-56.5 89,-75.5 172,-75.5 172,-56.5 89,-56.5"/>
<text text-anchor="middle" x="130.5" y="-63.5" font-family="'Consolas',monospace" font-size="10.00">Finally.hpp</text>
</a>
</g>
</g>
<!-- Node1&#45;&gt;Node3 -->
<g id="edge2" class="edge">
<title>Node1&#45;&gt;Node3</title>
<path fill="none" stroke="midnightblue" d="M322.37,-112.44C282.85,-103.08 219.4,-88.06 176.39,-77.87"/>
<polygon fill="midnightblue" stroke="midnightblue" points="177,-74.42 166.46,-75.52 175.38,-81.23 177,-74.42"/>
</g>
<!-- Node5 -->
<g id="node5" class="node">
<title>Node5</title>
<g id="a_node5"><a xlink:href="Mat3_8hpp.html" target="_top" xlink:title="Contains jngl::Mat3 class.">
<polygon fill="white" stroke="black" points="285,-56.5 285,-75.5 350,-75.5 350,-56.5 285,-56.5"/>
<text text-anchor="middle" x="317.5" y="-63.5" font-family="'Consolas',monospace" font-size="10.00">Mat3.hpp</text>
</a>
</g>
</g>
<!-- Node1&#45;&gt;Node5 -->
<g id="edge4" class="edge">
<title>Node1&#45;&gt;Node5</title>
<path fill="none" stroke="midnightblue" d="M351.73,-112.08C345.94,-104.46 337.44,-93.26 330.36,-83.94"/>
<polygon fill="midnightblue" stroke="midnightblue" points="332.98,-81.6 324.14,-75.75 327.4,-85.83 332.98,-81.6"/>
</g>
<!-- Node8 -->
<g id="node8" class="node">
<title>Node8</title>
<g id="a_node8"><a xlink:href="Pixels_8hpp_source.html" target="_top" xlink:title=" ">
<polygon fill="white" stroke="black" points="190,-56.5 190,-75.5 267,-75.5 267,-56.5 190,-56.5"/>
<text text-anchor="middle" x="228.5" y="-63.5" font-family="'Consolas',monospace" font-size="10.00">Pixels.hpp</text>
</a>
</g>
</g>
<!-- Node1&#45;&gt;Node8 -->
<g id="edge7" class="edge">
<title>Node1&#45;&gt;Node8</title>
<path fill="none" stroke="midnightblue" d="M337.9,-112.44C316.51,-103.56 282.82,-89.56 258.48,-79.45"/>
<polygon fill="midnightblue" stroke="midnightblue" points="259.58,-76.12 249,-75.52 256.89,-82.58 259.58,-76.12"/>
</g>
<!-- Node10 -->
<g id="node10" class="node">
<title>Node10</title>
<g id="a_node10"><a xlink:href="Vec2_8hpp.html" target="_top" xlink:title="Contains jngl::Vec2 class.">
<polygon fill="white" stroke="black" points="368,-56.5 368,-75.5 433,-75.5 433,-56.5 368,-56.5"/>
<text text-anchor="middle" x="400.5" y="-63.5" font-family="'Consolas',monospace" font-size="10.00">Vec2.hpp</text>
</a>
</g>
</g>
<!-- Node1&#45;&gt;Node10 -->
<g id="edge9" class="edge">
<title>Node1&#45;&gt;Node10</title>
<path fill="none" stroke="midnightblue" d="M365.44,-112.08C371.43,-104.38 380.25,-93.03 387.55,-83.65"/>
<polygon fill="midnightblue" stroke="midnightblue" points="390.32,-85.79 393.69,-75.75 384.79,-81.5 390.32,-85.79"/>
</g>
<!-- Node12 -->
<g id="node12" class="node">
<title>Node12</title>
<g id="a_node12"><a xlink:href="Vertex_8hpp.html" target="_top" xlink:title=" ">
<polygon fill="white" stroke="black" points="451,-56.5 451,-75.5 528,-75.5 528,-56.5 451,-56.5"/>
<text text-anchor="middle" x="489.5" y="-63.5" font-family="'Consolas',monospace" font-size="10.00">Vertex.hpp</text>
</a>
</g>
</g>
<!-- Node1&#45;&gt;Node12 -->
<g id="edge12" class="edge">
<title>Node1&#45;&gt;Node12</title>
<path fill="none" stroke="midnightblue" d="M379.26,-112.44C400.82,-103.56 434.76,-89.56 459.29,-79.45"/>
<polygon fill="midnightblue" stroke="midnightblue" points="460.93,-82.56 468.84,-75.52 458.26,-76.09 460.93,-82.56"/>
</g>
<!-- Node13 -->
<g id="node13" class="node">
<title>Node13</title>
<g id="a_node13"><a target="_parent" xlink:href="http://en.cppreference.com/w/cpp/header/memory.html" xlink:title=" ">
<polygon fill="white" stroke="black" points="546,-56.5 546,-75.5 599,-75.5 599,-56.5 546,-56.5"/>
<text text-anchor="middle" x="572.5" y="-63.5" font-family="'Consolas',monospace" font-size="10.00">memory</text>
</a>
</g>
</g>
<!-- Node1&#45;&gt;Node13 -->
<g id="edge13" class="edge">
<title>Node1&#45;&gt;Node13</title>
<path fill="none" stroke="midnightblue" d="M392.83,-112.43C426.83,-103.93 480.66,-90.43 535.81,-76.42"/>
<polygon fill="midnightblue" stroke="midnightblue" points="536.92,-79.75 545.75,-73.89 535.2,-72.97 536.92,-79.75"/>
</g>
<!-- Node14 -->
<g id="node14" class="node">
<title>Node14</title>
<g id="a_node14"><a target="_parent" xlink:href="http://en.cppreference.com/w/cpp/header/vector.html" xlink:title=" ">
<polygon fill="white" stroke="black" points="617,-56.5 617,-75.5 670,-75.5 670,-56.5 617,-56.5"/>
<text text-anchor="middle" x="643.5" y="-63.5" font-family="'Consolas',monospace" font-size="10.00">vector</text>
</a>
</g>
</g>
<!-- Node1&#45;&gt;Node14 -->
<g id="edge14" class="edge">
<title>Node1&#45;&gt;Node14</title>
<path fill="none" stroke="midnightblue" d="M412.37,-112.48C460.87,-104.54 534.32,-91.87 606.61,-76.3"/>
<polygon fill="midnightblue" stroke="midnightblue" points="607.77,-79.63 616.8,-74.08 606.28,-72.79 607.77,-79.63"/>
</g>
<!-- Node4 -->
<g id="node4" class="node">
<title>Node4</title>
<g id="a_node4"><a target="_parent" xlink:href="http://en.cppreference.com/w/cpp/header/functional.html" xlink:title=" ">
<polygon fill="white" stroke="black" points="63,-0.5 63,-19.5 140,-19.5 140,-0.5 63,-0.5"/>
<text text-anchor="middle" x="101.5" y="-7.5" font-family="'Consolas',monospace" font-size="10.00">functional</text>
</a>
</g>
</g>
<!-- Node3&#45;&gt;Node4 -->
<g id="edge3" class="edge">
<title>Node3&#45;&gt;Node4</title>
<path fill="none" stroke="midnightblue" d="M125.71,-56.08C121.74,-48.69 115.97,-37.95 111.07,-28.81"/>
<polygon fill="midnightblue" stroke="midnightblue" points="114.01,-26.91 106.2,-19.75 107.85,-30.22 114.01,-26.91"/>
</g>
<!-- Node6 -->
<g id="node6" class="node">
<title>Node6</title>
<g id="a_node6"><a xlink:title=" ">
<polygon fill="white" stroke="#bfbfbf" points="366,-0.5 366,-19.5 485,-19.5 485,-0.5 366,-0.5"/>
<text text-anchor="middle" x="425.5" y="-7.5" font-family="'Consolas',monospace" font-size="10.00">boost/version.hpp</text>
</a>
</g>
</g>
<!-- Node5&#45;&gt;Node6 -->
<g id="edge5" class="edge">
<title>Node5&#45;&gt;Node6</title>
<path fill="none" stroke="midnightblue" d="M334.85,-56.32C352.17,-47.66 379.02,-34.24 399,-24.25"/>
<polygon fill="midnightblue" stroke="midnightblue" points="400.81,-27.26 408.19,-19.65 397.68,-21 400.81,-27.26"/>
</g>
<!-- Node7 -->
<g id="node7" class="node">
<title>Node7</title>
<g id="a_node7"><a target="_parent" xlink:href="http://en.cppreference.com/w/cpp/header/initializer_list.html" xlink:title=" ">
<polygon fill="white" stroke="black" points="235,-0.5 235,-19.5 348,-19.5 348,-0.5 235,-0.5"/>
<text text-anchor="middle" x="291.5" y="-7.5" font-family="'Consolas',monospace" font-size="10.00">initializer_list</text>
</a>
</g>
</g>
<!-- Node5&#45;&gt;Node7 -->
<g id="edge6" class="edge">
<title>Node5&#45;&gt;Node7</title>
<path fill="none" stroke="midnightblue" d="M313.21,-56.08C309.65,-48.69 304.48,-37.95 300.08,-28.81"/>
<polygon fill="midnightblue" stroke="midnightblue" points="303.21,-27.24 295.71,-19.75 296.9,-30.28 303.21,-27.24"/>
</g>
<!-- Node9 -->
<g id="node9" class="node">
<title>Node9</title>
<g id="a_node9"><a target="_parent" xlink:href="http://en.cppreference.com/w/cpp/header/cstdint.html" xlink:title=" ">
<polygon fill="white" stroke="black" points="158,-0.5 158,-19.5 217,-19.5 217,-0.5 158,-0.5"/>
<text text-anchor="middle" x="187.5" y="-7.5" font-family="'Consolas',monospace" font-size="10.00">cstdint</text>
</a>
</g>
</g>
<!-- Node8&#45;&gt;Node9 -->
<g id="edge8" class="edge">
<title>Node8&#45;&gt;Node9</title>
<path fill="none" stroke="midnightblue" d="M221.73,-56.08C215.94,-48.46 207.44,-37.26 200.36,-27.94"/>
<polygon fill="midnightblue" stroke="midnightblue" points="202.98,-25.6 194.14,-19.75 197.4,-29.83 202.98,-25.6"/>
</g>
<!-- Node10&#45;&gt;Node6 -->
<g id="edge10" class="edge">
<title>Node10&#45;&gt;Node6</title>
<path fill="none" stroke="midnightblue" d="M404.63,-56.08C408.01,-48.77 412.92,-38.18 417.12,-29.1"/>
<polygon fill="midnightblue" stroke="midnightblue" points="420.42,-30.3 421.45,-19.75 414.07,-27.36 420.42,-30.3"/>
</g>
<!-- Node11 -->
<g id="node11" class="node">
<title>Node11</title>
<g id="a_node11"><a target="_parent" xlink:href="http://en.cppreference.com/w/cpp/header/iosfwd.html" xlink:title=" ">
<polygon fill="white" stroke="black" points="503,-0.5 503,-19.5 556,-19.5 556,-0.5 503,-0.5"/>
<text text-anchor="middle" x="529.5" y="-7.5" font-family="'Consolas',monospace" font-size="10.00">iosfwd</text>
</a>
</g>
</g>
<!-- Node10&#45;&gt;Node11 -->
<g id="edge11" class="edge">
<title>Node10&#45;&gt;Node11</title>
<path fill="none" stroke="midnightblue" d="M420.94,-56.44C442.17,-47.56 475.6,-33.56 499.75,-23.45"/>
<polygon fill="midnightblue" stroke="midnightblue" points="501.28,-26.61 509.16,-19.52 498.58,-20.15 501.28,-26.61"/>
</g>
</g>
</svg>
