<?xml version="1.0" encoding="UTF-8" standalone="no"?>
<!DOCTYPE svg PUBLIC "-//W3C//DTD SVG 1.1//EN"
 "http://www.w3.org/Graphics/SVG/1.1/DTD/svg11.dtd">
<!-- Generated by graphviz version 12.1.0 (20240811.2233)
 -->
<!-- Title: jngl/FrameBuffer.hpp Pages: 1 -->
<svg width="772pt" height="193pt"
 viewBox="0.00 0.00 771.84 193.00" xmlns="http://www.w3.org/2000/svg" xmlns:xlink="http://www.w3.org/1999/xlink">
<g id="graph0" class="graph" transform="scale(1 1) rotate(0) translate(4 189)">
<title>jngl/FrameBuffer.hpp</title>
<!-- Node1 -->
<g id="Node000001" class="node">
<title>Node1</title>
<g id="a_Node000001"><a xlink:title="Contains jngl::FrameBuffer class.">
<polygon fill="#999999" stroke="#666666" points="541.84,-185 411.84,-185 411.84,-165.75 541.84,-165.75 541.84,-185"/>
<text text-anchor="middle" x="476.84" y="-171.5" font-family="ui-monospace,monospace" font-size="10.00">jngl/FrameBuffer.hpp</text>
</a>
</g>
</g>
<!-- Node2 -->
<g id="Node000002" class="node">
<title>Node2</title>
<g id="a_Node000002"><a xlink:href="Mat3_8hpp.html" target="_top" xlink:title="Contains jngl::Mat3 class.">
<polygon fill="white" stroke="#666666" points="243.84,-129.75 179.84,-129.75 179.84,-110.5 243.84,-110.5 243.84,-129.75"/>
<text text-anchor="middle" x="211.84" y="-116.25" font-family="ui-monospace,monospace" font-size="10.00">Mat3.hpp</text>
</a>
</g>
</g>
<!-- Node1&#45;&gt;Node2 -->
<g id="edge1_Node000001_Node000002" class="edge">
<title>Node1&#45;&gt;Node2</title>
<g id="a_edge1_Node000001_Node000002"><a xlink:title=" ">
<path fill="none" stroke="#63b8ff" d="M431.59,-165.28C382.19,-155.35 303.65,-139.57 255.06,-129.81"/>
<polygon fill="#63b8ff" stroke="#63b8ff" points="255.96,-126.42 245.47,-127.88 254.58,-133.28 255.96,-126.42"/>
</a>
</g>
</g>
<!-- Node5 -->
<g id="Node000005" class="node">
<title>Node5</title>
<g id="a_Node000005"><a xlink:href="Pixels_8hpp.html" target="_top" xlink:title="Contains jngl::Pixels class.">
<polygon fill="white" stroke="#666666" points="577.84,-74.5 501.84,-74.5 501.84,-55.25 577.84,-55.25 577.84,-74.5"/>
<text text-anchor="middle" x="539.84" y="-61" font-family="ui-monospace,monospace" font-size="10.00">Pixels.hpp</text>
</a>
</g>
</g>
<!-- Node1&#45;&gt;Node5 -->
<g id="edge4_Node000001_Node000005" class="edge">
<title>Node1&#45;&gt;Node5</title>
<g id="a_edge4_Node000001_Node000005"><a xlink:title=" ">
<path fill="none" stroke="#63b8ff" d="M482,-165.5C492.2,-147.93 515.15,-108.41 528.88,-84.77"/>
<polygon fill="#63b8ff" stroke="#63b8ff" points="531.86,-86.59 533.86,-76.19 525.81,-83.08 531.86,-86.59"/>
</a>
</g>
</g>
<!-- Node7 -->
<g id="Node000007" class="node">
<title>Node7</title>
<g id="a_Node000007"><a xlink:href="Vec2_8hpp.html" target="_top" xlink:title="Contains jngl::Vec2 class.">
<polygon fill="white" stroke="#666666" points="107.84,-129.75 43.84,-129.75 43.84,-110.5 107.84,-110.5 107.84,-129.75"/>
<text text-anchor="middle" x="75.84" y="-116.25" font-family="ui-monospace,monospace" font-size="10.00">Vec2.hpp</text>
</a>
</g>
</g>
<!-- Node1&#45;&gt;Node7 -->
<g id="edge6_Node000001_Node000007" class="edge">
<title>Node1&#45;&gt;Node7</title>
<g id="a_edge6_Node000001_Node000007"><a xlink:title=" ">
<path fill="none" stroke="#63b8ff" d="M411.52,-165.7C329.12,-154.76 189.68,-136.24 119.28,-126.89"/>
<polygon fill="#63b8ff" stroke="#63b8ff" points="120.06,-123.47 109.68,-125.62 119.14,-130.4 120.06,-123.47"/>
</a>
</g>
</g>
<!-- Node9 -->
<g id="Node000009" class="node">
<title>Node9</title>
<g id="a_Node000009"><a xlink:href="Vertex_8hpp.html" target="_top" xlink:title=" ">
<polygon fill="white" stroke="#666666" points="599.84,-129.75 523.84,-129.75 523.84,-110.5 599.84,-110.5 599.84,-129.75"/>
<text text-anchor="middle" x="561.84" y="-116.25" font-family="ui-monospace,monospace" font-size="10.00">Vertex.hpp</text>
</a>
</g>
</g>
<!-- Node1&#45;&gt;Node9 -->
<g id="edge9_Node000001_Node000009" class="edge">
<title>Node1&#45;&gt;Node9</title>
<g id="a_edge9_Node000001_Node000009"><a xlink:title=" ">
<path fill="none" stroke="#63b8ff" d="M491.26,-165.34C503.96,-157.39 522.72,-145.64 537.7,-136.25"/>
<polygon fill="#63b8ff" stroke="#63b8ff" points="539.46,-139.28 546.07,-131.01 535.74,-133.35 539.46,-139.28"/>
</a>
</g>
</g>
<!-- Node10 -->
<g id="Node000010" class="node">
<title>Node10</title>
<g id="a_Node000010"><a xlink:href="ShaderProgram_8hpp.html" target="_top" xlink:title="Contains jngl::ShaderProgram class.">
<polygon fill="white" stroke="#666666" points="429.84,-129.75 311.84,-129.75 311.84,-110.5 429.84,-110.5 429.84,-129.75"/>
<text text-anchor="middle" x="370.84" y="-116.25" font-family="ui-monospace,monospace" font-size="10.00">ShaderProgram.hpp</text>
</a>
</g>
</g>
<!-- Node1&#45;&gt;Node10 -->
<g id="edge10_Node000001_Node000010" class="edge">
<title>Node1&#45;&gt;Node10</title>
<g id="a_edge10_Node000001_Node000010"><a xlink:title=" ">
<path fill="none" stroke="#63b8ff" d="M458.86,-165.34C442.49,-157.12 418.05,-144.84 399.08,-135.31"/>
<polygon fill="#63b8ff" stroke="#63b8ff" points="400.77,-132.24 390.27,-130.88 397.63,-138.5 400.77,-132.24"/>
</a>
</g>
</g>
<!-- Node12 -->
<g id="Node000012" class="node">
<title>Node12</title>
<g id="a_Node000012"><a target="_parent" xlink:href="http://en.cppreference.com/w/cpp/header/memory.html" xlink:title=" ">
<polygon fill="white" stroke="#666666" points="483.84,-74.5 431.84,-74.5 431.84,-55.25 483.84,-55.25 483.84,-74.5"/>
<text text-anchor="middle" x="457.84" y="-61" font-family="ui-monospace,monospace" font-size="10.00">memory</text>
</a>
</g>
</g>
<!-- Node1&#45;&gt;Node12 -->
<g id="edge17_Node000001_Node000012" class="edge">
<title>Node1&#45;&gt;Node12</title>
<g id="a_edge17_Node000001_Node000012"><a xlink:title=" ">
<path fill="none" stroke="#63b8ff" d="M475.29,-165.5C472.27,-148.25 465.54,-109.83 461.38,-86.06"/>
<polygon fill="#63b8ff" stroke="#63b8ff" points="464.85,-85.61 459.68,-76.37 457.96,-86.82 464.85,-85.61"/>
</a>
</g>
</g>
<!-- Node14 -->
<g id="Node000014" class="node">
<title>Node14</title>
<g id="a_Node000014"><a target="_parent" xlink:href="http://en.cppreference.com/w/cpp/header/functional.html" xlink:title=" ">
<polygon fill="white" stroke="#666666" points="693.84,-129.75 617.84,-129.75 617.84,-110.5 693.84,-110.5 693.84,-129.75"/>
<text text-anchor="middle" x="655.84" y="-116.25" font-family="ui-monospace,monospace" font-size="10.00">functional</text>
</a>
</g>
</g>
<!-- Node1&#45;&gt;Node14 -->
<g id="edge16_Node000001_Node000014" class="edge">
<title>Node1&#45;&gt;Node14</title>
<g id="a_edge16_Node000001_Node000014"><a xlink:title=" ">
<path fill="none" stroke="#63b8ff" d="M507.21,-165.34C536.65,-156.58 581.55,-143.23 614.3,-133.48"/>
<polygon fill="#63b8ff" stroke="#63b8ff" points="615.29,-136.84 623.88,-130.63 613.3,-130.13 615.29,-136.84"/>
</a>
</g>
</g>
<!-- Node15 -->
<g id="Node000015" class="node">
<title>Node15</title>
<g id="a_Node000015"><a target="_parent" xlink:href="http://en.cppreference.com/w/cpp/header/vector.html" xlink:title=" ">
<polygon fill="white" stroke="#666666" points="763.84,-129.75 711.84,-129.75 711.84,-110.5 763.84,-110.5 763.84,-129.75"/>
<text text-anchor="middle" x="737.84" y="-116.25" font-family="ui-monospace,monospace" font-size="10.00">vector</text>
</a>
</g>
</g>
<!-- Node1&#45;&gt;Node15 -->
<g id="edge18_Node000001_Node000015" class="edge">
<title>Node1&#45;&gt;Node15</title>
<g id="a_edge18_Node000001_Node000015"><a xlink:title=" ">
<path fill="none" stroke="#63b8ff" d="M526.36,-165.29C569.82,-157.15 635,-144.59 700.55,-130.18"/>
<polygon fill="#63b8ff" stroke="#63b8ff" points="701.02,-133.66 710.02,-128.08 699.5,-126.83 701.02,-133.66"/>
</a>
</g>
</g>
<!-- Node3 -->
<g id="Node000003" class="node">
<title>Node3</title>
<g id="a_Node000003"><a xlink:title=" ">
<polygon fill="#e0e0e0" stroke="#999999" points="137.84,-74.5 13.84,-74.5 13.84,-55.25 137.84,-55.25 137.84,-74.5"/>
<text text-anchor="middle" x="75.84" y="-61" font-family="ui-monospace,monospace" font-size="10.00">boost/qvm_lite.hpp</text>
</a>
</g>
</g>
<!-- Node2&#45;&gt;Node3 -->
<g id="edge2_Node000002_Node000003" class="edge">
<title>Node2&#45;&gt;Node3</title>
<g id="a_edge2_Node000002_Node000003"><a xlink:title=" ">
<path fill="none" stroke="#63b8ff" d="M188.77,-110.09C167.09,-101.6 134.36,-88.79 109.72,-79.14"/>
<polygon fill="#63b8ff" stroke="#63b8ff" points="111.03,-75.89 100.44,-75.5 108.47,-82.41 111.03,-75.89"/>
</a>
</g>
</g>
<!-- Node4 -->
<g id="Node000004" class="node">
<title>Node4</title>
<g id="a_Node000004"><a target="_parent" xlink:href="http://en.cppreference.com/w/cpp/header/initializer_list.html" xlink:title=" ">
<polygon fill="white" stroke="#666666" points="267.84,-74.5 155.84,-74.5 155.84,-55.25 267.84,-55.25 267.84,-74.5"/>
<text text-anchor="middle" x="211.84" y="-61" font-family="ui-monospace,monospace" font-size="10.00">initializer_list</text>
</a>
</g>
</g>
<!-- Node2&#45;&gt;Node4 -->
<g id="edge3_Node000002_Node000004" class="edge">
<title>Node2&#45;&gt;Node4</title>
<g id="a_edge3_Node000002_Node000004"><a xlink:title=" ">
<path fill="none" stroke="#63b8ff" d="M211.84,-110.33C211.84,-103.82 211.84,-94.67 211.84,-86.37"/>
<polygon fill="#63b8ff" stroke="#63b8ff" points="215.34,-86.37 211.84,-76.37 208.34,-86.37 215.34,-86.37"/>
</a>
</g>
</g>
<!-- Node6 -->
<g id="Node000006" class="node">
<title>Node6</title>
<g id="a_Node000006"><a target="_parent" xlink:href="http://en.cppreference.com/w/cpp/header/cstdint.html" xlink:title=" ">
<polygon fill="white" stroke="#666666" points="443.84,-19.25 385.84,-19.25 385.84,0 443.84,0 443.84,-19.25"/>
<text text-anchor="middle" x="414.84" y="-5.75" font-family="ui-monospace,monospace" font-size="10.00">cstdint</text>
</a>
</g>
</g>
<!-- Node5&#45;&gt;Node6 -->
<g id="edge5_Node000005_Node000006" class="edge">
<title>Node5&#45;&gt;Node6</title>
<g id="a_edge5_Node000005_Node000006"><a xlink:title=" ">
<path fill="none" stroke="#63b8ff" d="M518.64,-54.84C498.89,-46.43 469.17,-33.77 446.59,-24.15"/>
<polygon fill="#63b8ff" stroke="#63b8ff" points="448.12,-20.99 437.55,-20.3 445.37,-27.43 448.12,-20.99"/>
</a>
</g>
</g>
<!-- Node7&#45;&gt;Node3 -->
<g id="edge7_Node000007_Node000003" class="edge">
<title>Node7&#45;&gt;Node3</title>
<g id="a_edge7_Node000007_Node000003"><a xlink:title=" ">
<path fill="none" stroke="#63b8ff" d="M75.84,-110.33C75.84,-103.82 75.84,-94.67 75.84,-86.37"/>
<polygon fill="#63b8ff" stroke="#63b8ff" points="79.34,-86.37 75.84,-76.37 72.34,-86.37 79.34,-86.37"/>
</a>
</g>
</g>
<!-- Node8 -->
<g id="Node000008" class="node">
<title>Node8</title>
<g id="a_Node000008"><a target="_parent" xlink:href="http://en.cppreference.com/w/cpp/header/iosfwd.html" xlink:title=" ">
<polygon fill="white" stroke="#666666" points="239.84,-19.25 187.84,-19.25 187.84,0 239.84,0 239.84,-19.25"/>
<text text-anchor="middle" x="213.84" y="-5.75" font-family="ui-monospace,monospace" font-size="10.00">iosfwd</text>
</a>
</g>
</g>
<!-- Node7&#45;&gt;Node8 -->
<g id="edge8_Node000007_Node000008" class="edge">
<title>Node7&#45;&gt;Node8</title>
<g id="a_edge8_Node000007_Node000008"><a xlink:title=" ">
<path fill="none" stroke="#63b8ff" d="M52.13,-110.17C25.12,-98.63 -13.09,-77.42 4.84,-55.25 25.99,-29.12 121.91,-17.62 176.16,-13.13"/>
<polygon fill="#63b8ff" stroke="#63b8ff" points="176.18,-16.64 185.87,-12.38 175.63,-9.67 176.18,-16.64"/>
</a>
</g>
</g>
<!-- Node11 -->
<g id="Node000011" class="node">
<title>Node11</title>
<g id="a_Node000011"><a xlink:href="Rgb_8hpp.html" target="_top" xlink:title="Contains jngl::Rgb class.">
<polygon fill="white" stroke="#666666" points="343.84,-74.5 285.84,-74.5 285.84,-55.25 343.84,-55.25 343.84,-74.5"/>
<text text-anchor="middle" x="314.84" y="-61" font-family="ui-monospace,monospace" font-size="10.00">Rgb.hpp</text>
</a>
</g>
</g>
<!-- Node10&#45;&gt;Node11 -->
<g id="edge11_Node000010_Node000011" class="edge">
<title>Node10&#45;&gt;Node11</title>
<g id="a_edge11_Node000010_Node000011"><a xlink:title=" ">
<path fill="none" stroke="#63b8ff" d="M361.35,-110.09C353.41,-102.55 341.9,-91.6 332.31,-82.48"/>
<polygon fill="#63b8ff" stroke="#63b8ff" points="334.96,-80.17 325.3,-75.82 330.14,-85.24 334.96,-80.17"/>
</a>
</g>
</g>
<!-- Node10&#45;&gt;Node12 -->
<g id="edge14_Node000010_Node000012" class="edge">
<title>Node10&#45;&gt;Node12</title>
<g id="a_edge14_Node000010_Node000012"><a xlink:title=" ">
<path fill="none" stroke="#63b8ff" d="M385.6,-110.09C398.73,-102.06 418.17,-90.16 433.58,-80.73"/>
<polygon fill="#63b8ff" stroke="#63b8ff" points="435.02,-83.95 441.72,-75.74 431.37,-77.98 435.02,-83.95"/>
</a>
</g>
</g>
<!-- Node13 -->
<g id="Node000013" class="node">
<title>Node13</title>
<g id="a_Node000013"><a target="_parent" xlink:href="http://en.cppreference.com/w/cpp/header/string.html" xlink:title=" ">
<polygon fill="white" stroke="#666666" points="413.84,-74.5 361.84,-74.5 361.84,-55.25 413.84,-55.25 413.84,-74.5"/>
<text text-anchor="middle" x="387.84" y="-61" font-family="ui-monospace,monospace" font-size="10.00">string</text>
</a>
</g>
</g>
<!-- Node10&#45;&gt;Node13 -->
<g id="edge15_Node000010_Node000013" class="edge">
<title>Node10&#45;&gt;Node13</title>
<g id="a_edge15_Node000010_Node000013"><a xlink:title=" ">
<path fill="none" stroke="#63b8ff" d="M373.65,-110.33C375.78,-103.67 378.79,-94.24 381.49,-85.78"/>
<polygon fill="#63b8ff" stroke="#63b8ff" points="384.81,-86.89 384.52,-76.3 378.14,-84.76 384.81,-86.89"/>
</a>
</g>
</g>
<!-- Node11&#45;&gt;Node6 -->
<g id="edge12_Node000011_Node000006" class="edge">
<title>Node11&#45;&gt;Node6</title>
<g id="a_edge12_Node000011_Node000006"><a xlink:title=" ">
<path fill="none" stroke="#63b8ff" d="M331.81,-54.84C347.11,-46.69 369.88,-34.57 387.71,-25.08"/>
<polygon fill="#63b8ff" stroke="#63b8ff" points="389.28,-28.2 396.46,-20.41 385.99,-22.02 389.28,-28.2"/>
</a>
</g>
</g>
<!-- Node11&#45;&gt;Node8 -->
<g id="edge13_Node000011_Node000008" class="edge">
<title>Node11&#45;&gt;Node8</title>
<g id="a_edge13_Node000011_Node000008"><a xlink:title=" ">
<path fill="none" stroke="#63b8ff" d="M297.71,-54.84C282.19,-46.66 259.04,-34.46 241,-24.94"/>
<polygon fill="#63b8ff" stroke="#63b8ff" points="242.88,-21.98 232.4,-20.41 239.61,-28.17 242.88,-21.98"/>
</a>
</g>
</g>
</g>
</svg>
