<?xml version="1.0" encoding="UTF-8" standalone="no"?>
<!DOCTYPE svg PUBLIC "-//W3C//DTD SVG 1.1//EN"
 "http://www.w3.org/Graphics/SVG/1.1/DTD/svg11.dtd">
<!-- Generated by graphviz version 5.0.0 (0)
 -->
<!-- Title: jngl/framebuffer.hpp Pages: 1 -->
<svg width="678pt" height="137pt"
 viewBox="0.00 0.00 678.00 137.00" xmlns="http://www.w3.org/2000/svg" xmlns:xlink="http://www.w3.org/1999/xlink">
<g id="graph0" class="graph" transform="scale(1 1) rotate(0) translate(4 133)">
<title>jngl/framebuffer.hpp</title>
<!-- Node1 -->
<g id="node1" class="node">
<title>Node1</title>
<g id="a_node1"><a xlink:title="Contains jngl::FrameBuffer class.">
<polygon fill="#999999" stroke="#666666" points="424,-129 293,-129 293,-110 424,-110 424,-129"/>
<text text-anchor="middle" x="358.5" y="-117" font-family="ui-monospace,monospace" font-size="10.00">jngl/framebuffer.hpp</text>
</a>
</g>
</g>
<!-- Node2 -->
<g id="node2" class="node">
<title>Node2</title>
<g id="a_node2"><a xlink:href="Color_8hpp.html" target="_top" xlink:title="Contains jngl::Color class.">
<polygon fill="white" stroke="#666666" points="71,-74 0,-74 0,-55 71,-55 71,-74"/>
<text text-anchor="middle" x="35.5" y="-62" font-family="ui-monospace,monospace" font-size="10.00">Color.hpp</text>
</a>
</g>
</g>
<!-- Node1&#45;&gt;Node2 -->
<g id="edge1" class="edge">
<title>Node1&#45;&gt;Node2</title>
<path fill="none" stroke="#63b8ff" d="M302.25,-109.97C248.23,-101.67 164.07,-88.46 81.42,-74.12"/>
<polygon fill="#63b8ff" stroke="#63b8ff" points="81.8,-70.63 71.34,-72.36 80.6,-77.53 81.8,-70.63"/>
</g>
<!-- Node3 -->
<g id="node3" class="node">
<title>Node3</title>
<g id="a_node3"><a xlink:href="Finally_8hpp.html" target="_top" xlink:title="Contains jngl::Finally class.">
<polygon fill="white" stroke="#666666" points="172,-74 89,-74 89,-55 172,-55 172,-74"/>
<text text-anchor="middle" x="130.5" y="-62" font-family="ui-monospace,monospace" font-size="10.00">Finally.hpp</text>
</a>
</g>
</g>
<!-- Node1&#45;&gt;Node3 -->
<g id="edge2" class="edge">
<title>Node1&#45;&gt;Node3</title>
<path fill="none" stroke="#63b8ff" d="M321.87,-109.98C282.59,-100.86 220.13,-86.33 177.31,-76.38"/>
<polygon fill="#63b8ff" stroke="#63b8ff" points="177.95,-72.94 167.42,-74.08 176.37,-79.76 177.95,-72.94"/>
</g>
<!-- Node5 -->
<g id="node5" class="node">
<title>Node5</title>
<g id="a_node5"><a xlink:href="Mat3_8hpp.html" target="_top" xlink:title="Contains jngl::Mat3 class.">
<polygon fill="white" stroke="#666666" points="350,-74 285,-74 285,-55 350,-55 350,-74"/>
<text text-anchor="middle" x="317.5" y="-62" font-family="ui-monospace,monospace" font-size="10.00">Mat3.hpp</text>
</a>
</g>
</g>
<!-- Node1&#45;&gt;Node5 -->
<g id="edge4" class="edge">
<title>Node1&#45;&gt;Node5</title>
<path fill="none" stroke="#63b8ff" d="M351.73,-109.75C345.94,-102.26 337.44,-91.28 330.36,-82.13"/>
<polygon fill="#63b8ff" stroke="#63b8ff" points="333.03,-79.86 324.14,-74.09 327.49,-84.14 333.03,-79.86"/>
</g>
<!-- Node8 -->
<g id="node8" class="node">
<title>Node8</title>
<g id="a_node8"><a xlink:href="Pixels_8hpp.html" target="_top" xlink:title="Contains jngl::Pixels class.">
<polygon fill="white" stroke="#666666" points="267,-74 190,-74 190,-55 267,-55 267,-74"/>
<text text-anchor="middle" x="228.5" y="-62" font-family="ui-monospace,monospace" font-size="10.00">Pixels.hpp</text>
</a>
</g>
</g>
<!-- Node1&#45;&gt;Node8 -->
<g id="edge7" class="edge">
<title>Node1&#45;&gt;Node8</title>
<path fill="none" stroke="#63b8ff" d="M337.61,-109.98C316.42,-101.34 283.37,-87.87 259.2,-78.02"/>
<polygon fill="#63b8ff" stroke="#63b8ff" points="260.35,-74.7 249.77,-74.17 257.71,-81.19 260.35,-74.7"/>
</g>
<!-- Node10 -->
<g id="node10" class="node">
<title>Node10</title>
<g id="a_node10"><a xlink:href="Vec2_8hpp.html" target="_top" xlink:title="Contains jngl::Vec2 class.">
<polygon fill="white" stroke="#666666" points="433,-74 368,-74 368,-55 433,-55 433,-74"/>
<text text-anchor="middle" x="400.5" y="-62" font-family="ui-monospace,monospace" font-size="10.00">Vec2.hpp</text>
</a>
</g>
</g>
<!-- Node1&#45;&gt;Node10 -->
<g id="edge9" class="edge">
<title>Node1&#45;&gt;Node10</title>
<path fill="none" stroke="#63b8ff" d="M365.44,-109.75C371.37,-102.26 380.07,-91.28 387.32,-82.13"/>
<polygon fill="#63b8ff" stroke="#63b8ff" points="390.23,-84.1 393.69,-74.09 384.74,-79.75 390.23,-84.1"/>
</g>
<!-- Node12 -->
<g id="node12" class="node">
<title>Node12</title>
<g id="a_node12"><a xlink:href="Vertex_8hpp.html" target="_top" xlink:title=" ">
<polygon fill="white" stroke="#666666" points="528,-74 451,-74 451,-55 528,-55 528,-74"/>
<text text-anchor="middle" x="489.5" y="-62" font-family="ui-monospace,monospace" font-size="10.00">Vertex.hpp</text>
</a>
</g>
</g>
<!-- Node1&#45;&gt;Node12 -->
<g id="edge12" class="edge">
<title>Node1&#45;&gt;Node12</title>
<path fill="none" stroke="#63b8ff" d="M379.55,-109.98C400.91,-101.34 434.2,-87.87 458.56,-78.02"/>
<polygon fill="#63b8ff" stroke="#63b8ff" points="460.11,-81.17 468.07,-74.17 457.49,-74.68 460.11,-81.17"/>
</g>
<!-- Node13 -->
<g id="node13" class="node">
<title>Node13</title>
<g id="a_node13"><a target="_parent" xlink:href="http://en.cppreference.com/w/cpp/header/memory.html" xlink:title=" ">
<polygon fill="white" stroke="#666666" points="599,-74 546,-74 546,-55 599,-55 599,-74"/>
<text text-anchor="middle" x="572.5" y="-62" font-family="ui-monospace,monospace" font-size="10.00">memory</text>
</a>
</g>
</g>
<!-- Node1&#45;&gt;Node13 -->
<g id="edge13" class="edge">
<title>Node1&#45;&gt;Node13</title>
<path fill="none" stroke="#63b8ff" d="M392.88,-109.98C432.12,-100.27 496.02,-84.44 536.09,-74.52"/>
<polygon fill="#63b8ff" stroke="#63b8ff" points="537.11,-77.87 545.98,-72.07 535.43,-71.08 537.11,-77.87"/>
</g>
<!-- Node14 -->
<g id="node14" class="node">
<title>Node14</title>
<g id="a_node14"><a target="_parent" xlink:href="http://en.cppreference.com/w/cpp/header/vector.html" xlink:title=" ">
<polygon fill="white" stroke="#666666" points="670,-74 617,-74 617,-55 670,-55 670,-74"/>
<text text-anchor="middle" x="643.5" y="-62" font-family="ui-monospace,monospace" font-size="10.00">vector</text>
</a>
</g>
</g>
<!-- Node1&#45;&gt;Node14 -->
<g id="edge14" class="edge">
<title>Node1&#45;&gt;Node14</title>
<path fill="none" stroke="#63b8ff" d="M411.84,-109.99C460.31,-102.04 533.99,-89.39 606.56,-74.31"/>
<polygon fill="#63b8ff" stroke="#63b8ff" points="607.72,-77.65 616.79,-72.17 606.28,-70.79 607.72,-77.65"/>
</g>
<!-- Node4 -->
<g id="node4" class="node">
<title>Node4</title>
<g id="a_node4"><a target="_parent" xlink:href="http://en.cppreference.com/w/cpp/header/functional.html" xlink:title=" ">
<polygon fill="white" stroke="#666666" points="139,-19 62,-19 62,0 139,0 139,-19"/>
<text text-anchor="middle" x="100.5" y="-7" font-family="ui-monospace,monospace" font-size="10.00">functional</text>
</a>
</g>
</g>
<!-- Node3&#45;&gt;Node4 -->
<g id="edge3" class="edge">
<title>Node3&#45;&gt;Node4</title>
<path fill="none" stroke="#63b8ff" d="M125.55,-54.75C121.44,-47.49 115.47,-36.95 110.4,-27.98"/>
<polygon fill="#63b8ff" stroke="#63b8ff" points="113.33,-26.07 105.36,-19.09 107.24,-29.52 113.33,-26.07"/>
</g>
<!-- Node6 -->
<g id="node6" class="node">
<title>Node6</title>
<g id="a_node6"><a xlink:title=" ">
<polygon fill="#e0e0e0" stroke="#999999" points="490,-19 365,-19 365,0 490,0 490,-19"/>
<text text-anchor="middle" x="427.5" y="-7" font-family="ui-monospace,monospace" font-size="10.00">boost/qvm_lite.hpp</text>
</a>
</g>
</g>
<!-- Node5&#45;&gt;Node6 -->
<g id="edge5" class="edge">
<title>Node5&#45;&gt;Node6</title>
<path fill="none" stroke="#63b8ff" d="M335.17,-54.98C352.79,-46.5 380.08,-33.35 400.43,-23.54"/>
<polygon fill="#63b8ff" stroke="#63b8ff" points="402.02,-26.66 409.51,-19.17 398.98,-20.36 402.02,-26.66"/>
</g>
<!-- Node7 -->
<g id="node7" class="node">
<title>Node7</title>
<g id="a_node7"><a target="_parent" xlink:href="http://en.cppreference.com/w/cpp/header/initializer_list.html" xlink:title=" ">
<polygon fill="white" stroke="#666666" points="347,-19 234,-19 234,0 347,0 347,-19"/>
<text text-anchor="middle" x="290.5" y="-7" font-family="ui-monospace,monospace" font-size="10.00">initializer_list</text>
</a>
</g>
</g>
<!-- Node5&#45;&gt;Node7 -->
<g id="edge6" class="edge">
<title>Node5&#45;&gt;Node7</title>
<path fill="none" stroke="#63b8ff" d="M313.04,-54.75C309.38,-47.57 304.09,-37.18 299.55,-28.27"/>
<polygon fill="#63b8ff" stroke="#63b8ff" points="302.53,-26.41 294.88,-19.09 296.3,-29.59 302.53,-26.41"/>
</g>
<!-- Node9 -->
<g id="node9" class="node">
<title>Node9</title>
<g id="a_node9"><a target="_parent" xlink:href="http://en.cppreference.com/w/cpp/header/cstdint.html" xlink:title=" ">
<polygon fill="white" stroke="#666666" points="216,-19 157,-19 157,0 216,0 216,-19"/>
<text text-anchor="middle" x="186.5" y="-7" font-family="ui-monospace,monospace" font-size="10.00">cstdint</text>
</a>
</g>
</g>
<!-- Node8&#45;&gt;Node9 -->
<g id="edge8" class="edge">
<title>Node8&#45;&gt;Node9</title>
<path fill="none" stroke="#63b8ff" d="M221.56,-54.75C215.63,-47.26 206.93,-36.28 199.68,-27.13"/>
<polygon fill="#63b8ff" stroke="#63b8ff" points="202.26,-24.75 193.31,-19.09 196.77,-29.1 202.26,-24.75"/>
</g>
<!-- Node10&#45;&gt;Node6 -->
<g id="edge10" class="edge">
<title>Node10&#45;&gt;Node6</title>
<path fill="none" stroke="#63b8ff" d="M404.96,-54.75C408.62,-47.57 413.91,-37.18 418.45,-28.27"/>
<polygon fill="#63b8ff" stroke="#63b8ff" points="421.7,-29.59 423.12,-19.09 415.47,-26.41 421.7,-29.59"/>
</g>
<!-- Node11 -->
<g id="node11" class="node">
<title>Node11</title>
<g id="a_node11"><a target="_parent" xlink:href="http://en.cppreference.com/w/cpp/header/iosfwd.html" xlink:title=" ">
<polygon fill="white" stroke="#666666" points="561,-19 508,-19 508,0 561,0 561,-19"/>
<text text-anchor="middle" x="534.5" y="-7" font-family="ui-monospace,monospace" font-size="10.00">iosfwd</text>
</a>
</g>
</g>
<!-- Node10&#45;&gt;Node11 -->
<g id="edge11" class="edge">
<title>Node10&#45;&gt;Node11</title>
<path fill="none" stroke="#63b8ff" d="M422.03,-54.98C443.97,-46.3 478.24,-32.75 503.19,-22.88"/>
<polygon fill="#63b8ff" stroke="#63b8ff" points="504.57,-26.1 512.58,-19.17 501.99,-19.59 504.57,-26.1"/>
</g>
</g>
</svg>
