<?xml version="1.0" encoding="UTF-8" standalone="no"?>
<!DOCTYPE svg PUBLIC "-//W3C//DTD SVG 1.1//EN"
 "http://www.w3.org/Graphics/SVG/1.1/DTD/svg11.dtd">
<!-- Generated by graphviz version 2.40.1 (0)
 -->
<!-- Title: Graph Legend Pages: 1 -->
<svg width="502pt" height="159pt"
 viewBox="0.00 0.00 501.50 159.00" xmlns="http://www.w3.org/2000/svg" xmlns:xlink="http://www.w3.org/1999/xlink">
<g id="graph0" class="graph" transform="scale(1 1) rotate(0) translate(4 155)">
<title>Graph Legend</title>
<polygon fill="#ffffff" stroke="transparent" points="-4,4 -4,-155 497.5,-155 497.5,4 -4,4"/>
<!-- Node9 -->
<g id="node1" class="node">
<title>Node9</title>
<polygon fill="#bfbfbf" stroke="#000000" points="287,-19 231,-19 231,0 287,0 287,-19"/>
<text text-anchor="middle" x="259" y="-7" font-family="Lato" font-size="10.00" fill="#000000">Inherited</text>
</g>
<!-- Node10 -->
<g id="node2" class="node">
<title>Node10</title>
<g id="a_node2"><a xlink:href="$classPublicBase.html" xlink:title="PublicBase">
<polygon fill="none" stroke="#000000" points="62,-85 0,-85 0,-66 62,-66 62,-85"/>
<text text-anchor="middle" x="31" y="-73" font-family="Lato" font-size="10.00" fill="#000000">PublicBase</text>
</a>
</g>
</g>
<!-- Node10&#45;&gt;Node9 -->
<g id="edge1" class="edge">
<title>Node10&#45;&gt;Node9</title>
<path fill="none" stroke="#191970" d="M71.8418,-63.6774C117.6424,-50.4193 190.7205,-29.2651 230.6609,-17.7034"/>
<polygon fill="#191970" stroke="#191970" points="70.8568,-60.3187 62.2244,-66.4614 72.8032,-67.0427 70.8568,-60.3187"/>
</g>
<!-- Node11 -->
<g id="node3" class="node">
<title>Node11</title>
<g id="a_node3"><a xlink:href="$classTruncated.html" xlink:title="Truncated">
<polygon fill="none" stroke="#ff0000" points="60.5,-151 1.5,-151 1.5,-132 60.5,-132 60.5,-151"/>
<text text-anchor="middle" x="31" y="-139" font-family="Lato" font-size="10.00" fill="#000000">Truncated</text>
</a>
</g>
</g>
<!-- Node11&#45;&gt;Node10 -->
<g id="edge2" class="edge">
<title>Node11&#45;&gt;Node10</title>
<path fill="none" stroke="#191970" d="M31,-121.732C31,-109.6966 31,-94.847 31,-85.2785"/>
<polygon fill="#191970" stroke="#191970" points="27.5001,-121.7614 31,-131.7615 34.5001,-121.7615 27.5001,-121.7614"/>
</g>
<!-- Node13 -->
<g id="node4" class="node">
<title>Node13</title>
<g id="a_node4"><a xlink:href="$classProtectedBase.html" xlink:title="ProtectedBase">
<polygon fill="none" stroke="#000000" points="160,-85 80,-85 80,-66 160,-66 160,-85"/>
<text text-anchor="middle" x="120" y="-73" font-family="Lato" font-size="10.00" fill="#000000">ProtectedBase</text>
</a>
</g>
</g>
<!-- Node13&#45;&gt;Node9 -->
<g id="edge3" class="edge">
<title>Node13&#45;&gt;Node9</title>
<path fill="none" stroke="#006400" d="M149.5072,-61.4894C176.3583,-48.7399 215.2821,-30.2581 238.7638,-19.1085"/>
<polygon fill="#006400" stroke="#006400" points="147.744,-58.452 140.2118,-65.903 150.7465,-64.7754 147.744,-58.452"/>
</g>
<!-- Node14 -->
<g id="node5" class="node">
<title>Node14</title>
<g id="a_node5"><a xlink:href="$classPrivateBase.html" xlink:title="PrivateBase">
<polygon fill="none" stroke="#000000" points="246,-85 178,-85 178,-66 246,-66 246,-85"/>
<text text-anchor="middle" x="212" y="-73" font-family="Lato" font-size="10.00" fill="#000000">PrivateBase</text>
</a>
</g>
</g>
<!-- Node14&#45;&gt;Node9 -->
<g id="edge4" class="edge">
<title>Node14&#45;&gt;Node9</title>
<path fill="none" stroke="#8b1a1a" d="M224.7818,-57.5511C233.559,-45.2256 244.875,-29.3352 252.0365,-19.2785"/>
<polygon fill="#8b1a1a" stroke="#8b1a1a" points="221.8848,-55.5855 218.935,-65.7615 227.5867,-59.646 221.8848,-55.5855"/>
</g>
<!-- Node15 -->
<g id="node6" class="node">
<title>Node15</title>
<polygon fill="none" stroke="#bfbfbf" points="347.5,-85 264.5,-85 264.5,-66 347.5,-66 347.5,-85"/>
<text text-anchor="middle" x="306" y="-73" font-family="Lato" font-size="10.00" fill="#000000">Undocumented</text>
</g>
<!-- Node15&#45;&gt;Node9 -->
<g id="edge5" class="edge">
<title>Node15&#45;&gt;Node9</title>
<path fill="none" stroke="#191970" d="M293.2182,-57.5511C284.441,-45.2256 273.125,-29.3352 265.9635,-19.2785"/>
<polygon fill="#191970" stroke="#191970" points="290.4133,-59.646 299.065,-65.7615 296.1152,-55.5855 290.4133,-59.646"/>
</g>
<!-- Node16 -->
<g id="node7" class="node">
<title>Node16</title>
<g id="a_node7"><a xlink:href="$classTempl.html" xlink:title="Templ&lt; int &gt;">
<polygon fill="none" stroke="#000000" points="436,-85 366,-85 366,-66 436,-66 436,-85"/>
<text text-anchor="middle" x="401" y="-73" font-family="Lato" font-size="10.00" fill="#000000">Templ&lt; int &gt;</text>
</a>
</g>
</g>
<!-- Node16&#45;&gt;Node9 -->
<g id="edge6" class="edge">
<title>Node16&#45;&gt;Node9</title>
<path fill="none" stroke="#191970" d="M371.2162,-61.6568C343.7744,-48.9022 303.7667,-30.3071 279.6729,-19.1085"/>
<polygon fill="#191970" stroke="#191970" points="369.8084,-64.862 380.352,-65.903 372.7588,-58.5142 369.8084,-64.862"/>
</g>
<!-- Node17 -->
<g id="node8" class="node">
<title>Node17</title>
<g id="a_node8"><a xlink:href="$classTempl.html" xlink:title="Templ&lt; T &gt;">
<polygon fill="none" stroke="#000000" points="433.5,-151 368.5,-151 368.5,-132 433.5,-132 433.5,-151"/>
<text text-anchor="middle" x="401" y="-139" font-family="Lato" font-size="10.00" fill="#000000">Templ&lt; T &gt;</text>
</a>
</g>
</g>
<!-- Node17&#45;&gt;Node16 -->
<g id="edge7" class="edge">
<title>Node17&#45;&gt;Node16</title>
<path fill="none" stroke="#ffa500" stroke-dasharray="5,2" d="M401,-121.732C401,-109.6966 401,-94.847 401,-85.2785"/>
<polygon fill="#ffa500" stroke="#ffa500" points="397.5001,-121.7614 401,-131.7615 404.5001,-121.7615 397.5001,-121.7614"/>
<text text-anchor="middle" x="415" y="-106" font-family="Lato" font-size="10.00" fill="#000000">&lt; int &gt;</text>
</g>
<!-- Node18 -->
<g id="node9" class="node">
<title>Node18</title>
<g id="a_node9"><a xlink:href="$classUsed.html" xlink:title="Used">
<polygon fill="none" stroke="#000000" points="493.5,-85 454.5,-85 454.5,-66 493.5,-66 493.5,-85"/>
<text text-anchor="middle" x="474" y="-73" font-family="Lato" font-size="10.00" fill="#000000">Used</text>
</a>
</g>
</g>
<!-- Node18&#45;&gt;Node9 -->
<g id="edge8" class="edge">
<title>Node18&#45;&gt;Node9</title>
<path fill="none" stroke="#9a32cd" stroke-dasharray="5,2" d="M444.8128,-65.9895C382.8262,-46.474 321.7953,-28.1585 287.1034,-17.8303"/>
<polygon fill="#9a32cd" stroke="#9a32cd" points="443.7734,-69.3315 454.3631,-69.0035 445.8802,-62.6561 443.7734,-69.3315"/>
<text text-anchor="middle" x="411" y="-40" font-family="Lato" font-size="10.00" fill="#000000">m_usedClass</text>
</g>
</g>
</svg>
