<?xml version="1.0" encoding="UTF-8" standalone="no"?>
<!DOCTYPE svg PUBLIC "-//W3C//DTD SVG 1.1//EN"
 "http://www.w3.org/Graphics/SVG/1.1/DTD/svg11.dtd">
<!-- Generated by graphviz version 2.40.1 (0)
 -->
<!-- Title: Graph Legend Pages: 1 -->
<svg width="478pt" height="164pt"
 viewBox="0.00 0.00 477.77 164.00" xmlns="http://www.w3.org/2000/svg" xmlns:xlink="http://www.w3.org/1999/xlink">
<g id="graph0" class="graph" transform="scale(1 1) rotate(0) translate(4 160)">
<title>Graph Legend</title>
<polygon fill="#ffffff" stroke="transparent" points="-4,4 -4,-160 473.7695,-160 473.7695,4 -4,4"/>
<!-- Node9 -->
<g id="node1" class="node">
<title>Node9</title>
<polygon fill="#bfbfbf" stroke="#000000" points="271.5901,-20 219.4019,-20 219.4019,0 271.5901,0 271.5901,-20"/>
<text text-anchor="middle" x="245.496" y="-7" font-family="Lato" font-size="10.00" fill="#000000">Inherited</text>
</g>
<!-- Node10 -->
<g id="node2" class="node">
<title>Node10</title>
<g id="a_node2"><a xlink:href="$classPublicBase.html" xlink:title="PublicBase">
<polygon fill="none" stroke="#000000" points="60.988,-88 .004,-88 .004,-68 60.988,-68 60.988,-88"/>
<text text-anchor="middle" x="30.496" y="-75" font-family="Lato" font-size="10.00" fill="#000000">PublicBase</text>
</a>
</g>
</g>
<!-- Node10&#45;&gt;Node9 -->
<g id="edge1" class="edge">
<title>Node10&#45;&gt;Node9</title>
<path fill="none" stroke="#191970" d="M70.9822,-65.1951C114.4165,-51.4577 182.1301,-30.0413 219.1446,-18.3344"/>
<polygon fill="#191970" stroke="#191970" points="69.7793,-61.9046 61.3003,-68.2573 71.8902,-68.5787 69.7793,-61.9046"/>
</g>
<!-- Node11 -->
<g id="node3" class="node">
<title>Node11</title>
<g id="a_node3"><a xlink:href="$classTruncated.html" xlink:title="Truncated">
<polygon fill="none" stroke="#ff0000" points="58.5319,-156 2.4601,-156 2.4601,-136 58.5319,-136 58.5319,-156"/>
<text text-anchor="middle" x="30.496" y="-143" font-family="Lato" font-size="10.00" fill="#000000">Truncated</text>
</a>
</g>
</g>
<!-- Node11&#45;&gt;Node10 -->
<g id="edge2" class="edge">
<title>Node11&#45;&gt;Node10</title>
<path fill="none" stroke="#191970" d="M30.496,-125.6329C30.496,-113.2328 30.496,-97.9332 30.496,-88.0748"/>
<polygon fill="#191970" stroke="#191970" points="26.9961,-125.9663 30.496,-135.9664 33.9961,-125.9664 26.9961,-125.9663"/>
</g>
<!-- Node13 -->
<g id="node4" class="node">
<title>Node13</title>
<g id="a_node4"><a xlink:href="$classProtectedBase.html" xlink:title="ProtectedBase">
<polygon fill="none" stroke="#000000" points="152.1953,-88 78.7967,-88 78.7967,-68 152.1953,-68 152.1953,-88"/>
<text text-anchor="middle" x="115.496" y="-75" font-family="Lato" font-size="10.00" fill="#000000">ProtectedBase</text>
</a>
</g>
</g>
<!-- Node13&#45;&gt;Node9 -->
<g id="edge3" class="edge">
<title>Node13&#45;&gt;Node9</title>
<path fill="none" stroke="#006400" d="M143.6638,-63.2661C168.6266,-50.2086 204.4074,-31.4925 226.2354,-20.0748"/>
<polygon fill="#006400" stroke="#006400" points="141.9167,-60.23 134.6779,-67.9664 145.1612,-66.4327 141.9167,-60.23"/>
</g>
<!-- Node14 -->
<g id="node5" class="node">
<title>Node14</title>
<g id="a_node5"><a xlink:href="$classPrivateBase.html" xlink:title="PrivateBase">
<polygon fill="none" stroke="#000000" points="233.2564,-88 169.7356,-88 169.7356,-68 233.2564,-68 233.2564,-88"/>
<text text-anchor="middle" x="201.496" y="-75" font-family="Lato" font-size="10.00" fill="#000000">PrivateBase</text>
</a>
</g>
</g>
<!-- Node14&#45;&gt;Node9 -->
<g id="edge4" class="edge">
<title>Node14&#45;&gt;Node9</title>
<path fill="none" stroke="#8b1a1a" d="M213.462,-59.5072C221.6789,-46.8082 232.2726,-30.4362 238.977,-20.0748"/>
<polygon fill="#8b1a1a" stroke="#8b1a1a" points="210.4824,-57.6693 207.9884,-67.9664 216.3594,-61.472 210.4824,-57.6693"/>
</g>
<!-- Node15 -->
<g id="node6" class="node">
<title>Node15</title>
<polygon fill="none" stroke="#bfbfbf" points="328.0901,-88 250.9019,-88 250.9019,-68 328.0901,-68 328.0901,-88"/>
<text text-anchor="middle" x="289.496" y="-75" font-family="Lato" font-size="10.00" fill="#000000">Undocumented</text>
</g>
<!-- Node15&#45;&gt;Node9 -->
<g id="edge5" class="edge">
<title>Node15&#45;&gt;Node9</title>
<path fill="none" stroke="#191970" d="M277.53,-59.5072C269.3131,-46.8082 258.7194,-30.4362 252.015,-20.0748"/>
<polygon fill="#191970" stroke="#191970" points="274.6326,-61.472 283.0036,-67.9664 280.5096,-57.6693 274.6326,-61.472"/>
</g>
<!-- Node16 -->
<g id="node7" class="node">
<title>Node16</title>
<g id="a_node7"><a xlink:href="$classTempl.html" xlink:title="Templ&lt; int &gt;">
<polygon fill="none" stroke="#000000" points="414.938,-88 346.054,-88 346.054,-68 414.938,-68 414.938,-88"/>
<text text-anchor="middle" x="380.496" y="-75" font-family="Lato" font-size="10.00" fill="#000000">Templ&lt; int &gt;</text>
</a>
</g>
</g>
<!-- Node16&#45;&gt;Node9 -->
<g id="edge6" class="edge">
<title>Node16&#45;&gt;Node9</title>
<path fill="none" stroke="#191970" d="M351.5867,-63.4383C325.6496,-50.3737 288.2648,-31.5428 265.4974,-20.0748"/>
<polygon fill="#191970" stroke="#191970" points="350.0708,-66.5936 360.5763,-67.9664 353.2198,-60.3419 350.0708,-66.5936"/>
</g>
<!-- Node17 -->
<g id="node8" class="node">
<title>Node17</title>
<g id="a_node8"><a xlink:href="$classTempl.html" xlink:title="Templ&lt; T &gt;">
<polygon fill="none" stroke="#000000" points="412.9909,-156 348.0011,-156 348.0011,-136 412.9909,-136 412.9909,-156"/>
<text text-anchor="middle" x="380.496" y="-143" font-family="Lato" font-size="10.00" fill="#000000">Templ&lt; T &gt;</text>
</a>
</g>
</g>
<!-- Node17&#45;&gt;Node16 -->
<g id="edge7" class="edge">
<title>Node17&#45;&gt;Node16</title>
<path fill="none" stroke="#ffa500" stroke-dasharray="5,2" d="M380.496,-125.6329C380.496,-113.2328 380.496,-97.9332 380.496,-88.0748"/>
<polygon fill="#ffa500" stroke="#ffa500" points="376.9961,-125.9663 380.496,-135.9664 383.9961,-125.9664 376.9961,-125.9663"/>
<text text-anchor="middle" x="393.914" y="-109" font-family="Lato" font-size="10.00" fill="#000000">&lt; int &gt;</text>
</g>
<!-- Node18 -->
<g id="node9" class="node">
<title>Node18</title>
<g id="a_node9"><a xlink:href="$classUsed.html" xlink:title="Used">
<polygon fill="none" stroke="#000000" points="469.5458,-88 433.4462,-88 433.4462,-68 469.5458,-68 469.5458,-88"/>
<text text-anchor="middle" x="451.496" y="-75" font-family="Lato" font-size="10.00" fill="#000000">Used</text>
</a>
</g>
</g>
<!-- Node18&#45;&gt;Node9 -->
<g id="edge8" class="edge">
<title>Node18&#45;&gt;Node9</title>
<path fill="none" stroke="#9a32cd" stroke-dasharray="5,2" d="M423.7896,-68.1003C423.6916,-68.0668 423.5937,-68.0334 423.496,-68 369.8222,-49.6748 306.616,-29.3832 271.8115,-18.3205"/>
<polygon fill="#9a32cd" stroke="#9a32cd" points="422.5519,-71.3754 433.1468,-71.3637 424.8571,-64.7658 422.5519,-71.3754"/>
<text text-anchor="middle" x="390.882" y="-41" font-family="Lato" font-size="10.00" fill="#000000">m_usedClass</text>
</g>
</g>
</svg>
