<?xml version="1.0" encoding="UTF-8" standalone="no"?>
<!DOCTYPE svg PUBLIC "-//W3C//DTD SVG 1.1//EN"
 "http://www.w3.org/Graphics/SVG/1.1/DTD/svg11.dtd">
<!-- Generated by graphviz version 9.0.0 (20230911.1827)
 -->
<!-- Title: Graph Legend Pages: 1 -->
<svg width="566pt" height="160pt"
 viewBox="0.00 0.00 566.00 160.25" xmlns="http://www.w3.org/2000/svg" xmlns:xlink="http://www.w3.org/1999/xlink">
<g id="graph0" class="graph" transform="scale(1 1) rotate(0) translate(4 156.25)">
<title>Graph Legend</title>
<!-- Node9 -->
<g id="Node000009" class="node">
<title>Node9</title>
<g id="a_Node000009"><a xlink:title=" ">
<polygon fill="#999999" stroke="#666666" points="333,-19.25 263,-19.25 263,0 333,0 333,-19.25"/>
<text text-anchor="middle" x="298" y="-5.75" font-family="ui-monospace,monospace" font-size="10.00">Inherited</text>
</a>
</g>
</g>
<!-- Node10 -->
<g id="Node000010" class="node">
<title>Node10</title>
<g id="a_Node000010"><a xlink:title=" ">
<polygon fill="white" stroke="#666666" points="76,-85.75 0,-85.75 0,-66.5 76,-66.5 76,-85.75"/>
<text text-anchor="middle" x="38" y="-72.25" font-family="ui-monospace,monospace" font-size="10.00">PublicBase</text>
</a>
</g>
</g>
<!-- Node10&#45;&gt;Node9 -->
<g id="edge1" class="edge">
<title>Node10&#45;&gt;Node9</title>
<g id="a_edge1"><a xlink:title=" ">
<path fill="none" stroke="#63b8ff" d="M85.79,-63.27C136.97,-50.57 216.98,-30.72 262.74,-19.37"/>
<polygon fill="#63b8ff" stroke="#63b8ff" points="85.03,-59.85 76.17,-65.66 86.72,-66.65 85.03,-59.85"/>
</a>
</g>
</g>
<!-- Node11 -->
<g id="Node000011" class="node">
<title>Node11</title>
<g id="a_Node000011"><a xlink:title=" ">
<polygon fill="#fff0f0" stroke="red" points="73,-152.25 3,-152.25 3,-133 73,-133 73,-152.25"/>
<text text-anchor="middle" x="38" y="-138.75" font-family="ui-monospace,monospace" font-size="10.00">Truncated</text>
</a>
</g>
</g>
<!-- Node11&#45;&gt;Node10 -->
<g id="edge2" class="edge">
<title>Node11&#45;&gt;Node10</title>
<g id="a_edge2"><a xlink:title=" ">
<path fill="none" stroke="#63b8ff" d="M38,-121.15C38,-109.32 38,-95.04 38,-86.02"/>
<polygon fill="#63b8ff" stroke="#63b8ff" points="34.5,-121.14 38,-131.14 41.5,-121.14 34.5,-121.14"/>
</a>
</g>
</g>
<!-- Node13 -->
<g id="node4" class="node">
<title>Node13</title>
<g id="a_node4"><a xlink:title=" ">
<polygon fill="white" stroke="#666666" points="188,-85.75 94,-85.75 94,-66.5 188,-66.5 188,-85.75"/>
<text text-anchor="middle" x="141" y="-72.25" font-family="ui-monospace,monospace" font-size="10.00">ProtectedBase</text>
</a>
</g>
</g>
<!-- Node13&#45;&gt;Node9 -->
<g id="edge3" class="edge">
<title>Node13&#45;&gt;Node9</title>
<g id="a_edge3"><a xlink:title=" ">
<path fill="none" stroke="darkgreen" d="M173.75,-61.67C204.4,-49.08 249.35,-30.61 275.95,-19.68"/>
<polygon fill="darkgreen" stroke="darkgreen" points="172.48,-58.41 164.56,-65.45 175.14,-64.88 172.48,-58.41"/>
</a>
</g>
</g>
<!-- Node14 -->
<g id="node5" class="node">
<title>Node14</title>
<g id="a_node5"><a xlink:title=" ">
<polygon fill="white" stroke="#666666" points="288,-85.75 206,-85.75 206,-66.5 288,-66.5 288,-85.75"/>
<text text-anchor="middle" x="247" y="-72.25" font-family="ui-monospace,monospace" font-size="10.00">PrivateBase</text>
</a>
</g>
</g>
<!-- Node14&#45;&gt;Node9 -->
<g id="edge4" class="edge">
<title>Node14&#45;&gt;Node9</title>
<g id="a_edge4"><a xlink:title=" ">
<path fill="none" stroke="#8b1a1a" d="M261.14,-57.24C270.84,-44.97 283.31,-29.21 290.97,-19.52"/>
<polygon fill="#8b1a1a" stroke="#8b1a1a" points="258.49,-54.95 255.03,-64.97 263.98,-59.3 258.49,-54.95"/>
</a>
</g>
</g>
<!-- Node15 -->
<g id="Node000015" class="node">
<title>Node15</title>
<g id="a_Node000015"><a xlink:title=" ">
<polygon fill="#e0e0e0" stroke="#999999" points="394,-85.75 306,-85.75 306,-66.5 394,-66.5 394,-85.75"/>
<text text-anchor="middle" x="350" y="-72.25" font-family="ui-monospace,monospace" font-size="10.00">Undocumented</text>
</a>
</g>
</g>
<!-- Node15&#45;&gt;Node9 -->
<g id="edge5" class="edge">
<title>Node15&#45;&gt;Node9</title>
<g id="a_edge5"><a xlink:title=" ">
<path fill="none" stroke="#63b8ff" d="M335.59,-57.24C325.69,-44.97 312.98,-29.21 305.17,-19.52"/>
<polygon fill="#63b8ff" stroke="#63b8ff" points="332.82,-59.39 341.82,-64.98 338.27,-55 332.82,-59.39"/>
</a>
</g>
</g>
<!-- Node16 -->
<g id="node7" class="node">
<title>Node16</title>
<g id="a_node7"><a xlink:title=" ">
<polygon fill="white" stroke="#666666" points="500,-85.75 412,-85.75 412,-66.5 500,-66.5 500,-85.75"/>
<text text-anchor="middle" x="456" y="-72.25" font-family="ui-monospace,monospace" font-size="10.00">Templ&lt; int &gt;</text>
</a>
</g>
</g>
<!-- Node16&#45;&gt;Node9 -->
<g id="edge6" class="edge">
<title>Node16&#45;&gt;Node9</title>
<g id="a_edge6"><a xlink:title=" ">
<path fill="none" stroke="#63b8ff" d="M423.04,-61.67C392.19,-49.08 346.96,-30.61 320.19,-19.68"/>
<polygon fill="#63b8ff" stroke="#63b8ff" points="421.72,-64.91 432.3,-65.45 424.36,-58.43 421.72,-64.91"/>
</a>
</g>
</g>
<!-- Node17 -->
<g id="node8" class="node">
<title>Node17</title>
<g id="a_node8"><a xlink:title=" ">
<polygon fill="white" stroke="#666666" points="494,-152.25 418,-152.25 418,-133 494,-133 494,-152.25"/>
<text text-anchor="middle" x="456" y="-138.75" font-family="ui-monospace,monospace" font-size="10.00">Templ&lt; T &gt;</text>
</a>
</g>
</g>
<!-- Node17&#45;&gt;Node16 -->
<g id="edge7" class="edge">
<title>Node17&#45;&gt;Node16</title>
<g id="a_edge7"><a xlink:title=" ">
<path fill="none" stroke="orange" stroke-dasharray="5,2" d="M456,-121.15C456,-109.32 456,-95.04 456,-86.02"/>
<polygon fill="orange" stroke="orange" points="452.5,-121.14 456,-131.14 459.5,-121.14 452.5,-121.14"/>
</a>
</g>
<text text-anchor="middle" x="477" y="-105.5" font-family="ui-monospace,monospace" font-size="10.00" fill="grey">&lt; int &gt;</text>
</g>
<!-- Node18 -->
<g id="node9" class="node">
<title>Node18</title>
<g id="a_node9"><a xlink:title=" ">
<polygon fill="white" stroke="#666666" points="558,-85.75 518,-85.75 518,-66.5 558,-66.5 558,-85.75"/>
<text text-anchor="middle" x="538" y="-72.25" font-family="ui-monospace,monospace" font-size="10.00">Used</text>
</a>
</g>
</g>
<!-- Node18&#45;&gt;Node9 -->
<g id="edge8" class="edge">
<title>Node18&#45;&gt;Node9</title>
<g id="a_edge8"><a xlink:title=" ">
<path fill="none" stroke="#9a32cd" stroke-dasharray="5,2" d="M507.01,-66C440.09,-47.28 373.01,-29.82 333.18,-19.59"/>
<polygon fill="#9a32cd" stroke="#9a32cd" points="505.71,-69.27 516.28,-68.61 507.6,-62.53 505.71,-69.27"/>
</a>
</g>
<text text-anchor="middle" x="472" y="-39" font-family="ui-monospace,monospace" font-size="10.00" fill="grey">m_usedClass</text>
</g>
</g>
</svg>
