<?xml version="1.0" encoding="UTF-8" standalone="no"?>
<!DOCTYPE svg PUBLIC "-//W3C//DTD SVG 1.1//EN"
 "http://www.w3.org/Graphics/SVG/1.1/DTD/svg11.dtd">
<!-- Generated by graphviz version 2.42.4 (0)
 -->
<!-- Title: Graph Legend Pages: 1 -->
<svg width="572pt" height="159pt"
 viewBox="0.00 0.00 572.00 159.00" xmlns="http://www.w3.org/2000/svg" xmlns:xlink="http://www.w3.org/1999/xlink">
<g id="graph0" class="graph" transform="scale(1 1) rotate(0) translate(4 155)">
<title>Graph Legend</title>
<polygon fill="white" stroke="transparent" points="-4,4 -4,-155 568,-155 568,4 -4,4"/>
<!-- Node9 -->
<g id="node1" class="node">
<title>Node9</title>
<polygon fill="#bfbfbf" stroke="black" points="337,-19 266,-19 266,0 337,0 337,-19"/>
<text text-anchor="middle" x="301.5" y="-7" font-family="'Consolas',monospace" font-size="10.00">Inherited</text>
</g>
<!-- Node10 -->
<g id="node2" class="node">
<title>Node10</title>
<polygon fill="none" stroke="black" points="77,-85 0,-85 0,-66 77,-66 77,-85"/>
<text text-anchor="middle" x="38.5" y="-73" font-family="'Consolas',monospace" font-size="10.00">PublicBase</text>
</g>
<!-- Node10&#45;&gt;Node9 -->
<g id="edge1" class="edge">
<title>Node10&#45;&gt;Node9</title>
<path fill="none" stroke="midnightblue" d="M83.61,-63.52C135.44,-50.91 219.38,-30.48 266.51,-19.01"/>
<polygon fill="midnightblue" stroke="midnightblue" points="82.59,-60.17 73.7,-65.94 84.24,-66.97 82.59,-60.17"/>
</g>
<!-- Node11 -->
<g id="node3" class="node">
<title>Node11</title>
<polygon fill="none" stroke="red" points="74,-151 3,-151 3,-132 74,-132 74,-151"/>
<text text-anchor="middle" x="38.5" y="-139" font-family="'Consolas',monospace" font-size="10.00">Truncated</text>
</g>
<!-- Node11&#45;&gt;Node10 -->
<g id="edge2" class="edge">
<title>Node11&#45;&gt;Node10</title>
<path fill="none" stroke="midnightblue" d="M38.5,-121.58C38.5,-109.63 38.5,-94.72 38.5,-85.41"/>
<polygon fill="midnightblue" stroke="midnightblue" points="35,-121.87 38.5,-131.87 42,-121.87 35,-121.87"/>
</g>
<!-- Node13 -->
<g id="node4" class="node">
<title>Node13</title>
<polygon fill="none" stroke="black" points="190,-85 95,-85 95,-66 190,-66 190,-85"/>
<text text-anchor="middle" x="142.5" y="-73" font-family="'Consolas',monospace" font-size="10.00">ProtectedBase</text>
</g>
<!-- Node13&#45;&gt;Node9 -->
<g id="edge3" class="edge">
<title>Node13&#45;&gt;Node9</title>
<path fill="none" stroke="darkgreen" d="M173.53,-62.01C204.95,-49.36 252.73,-30.13 280.14,-19.1"/>
<polygon fill="darkgreen" stroke="darkgreen" points="171.91,-58.89 163.94,-65.87 174.53,-65.38 171.91,-58.89"/>
</g>
<!-- Node14 -->
<g id="node5" class="node">
<title>Node14</title>
<polygon fill="none" stroke="black" points="291,-85 208,-85 208,-66 291,-66 291,-85"/>
<text text-anchor="middle" x="249.5" y="-73" font-family="'Consolas',monospace" font-size="10.00">PrivateBase</text>
</g>
<!-- Node14&#45;&gt;Node9 -->
<g id="edge4" class="edge">
<title>Node14&#45;&gt;Node9</title>
<path fill="none" stroke="#8b1a1a" d="M263.1,-57.77C273.07,-45.49 286.23,-29.3 294.26,-19.41"/>
<polygon fill="#8b1a1a" stroke="#8b1a1a" points="260.1,-55.9 256.51,-65.87 265.54,-60.31 260.1,-55.9"/>
</g>
<!-- Node15 -->
<g id="node6" class="node">
<title>Node15</title>
<polygon fill="none" stroke="#bfbfbf" points="398,-85 309,-85 309,-66 398,-66 398,-85"/>
<text text-anchor="middle" x="353.5" y="-73" font-family="'Consolas',monospace" font-size="10.00">Undocumented</text>
</g>
<!-- Node15&#45;&gt;Node9 -->
<g id="edge5" class="edge">
<title>Node15&#45;&gt;Node9</title>
<path fill="none" stroke="midnightblue" d="M339.9,-57.77C329.93,-45.49 316.77,-29.3 308.74,-19.41"/>
<polygon fill="midnightblue" stroke="midnightblue" points="337.46,-60.31 346.49,-65.87 342.9,-55.9 337.46,-60.31"/>
</g>
<!-- Node16 -->
<g id="node7" class="node">
<title>Node16</title>
<polygon fill="none" stroke="black" points="505,-85 416,-85 416,-66 505,-66 505,-85"/>
<text text-anchor="middle" x="460.5" y="-73" font-family="'Consolas',monospace" font-size="10.00">Templ&lt; int &gt;</text>
</g>
<!-- Node16&#45;&gt;Node9 -->
<g id="edge6" class="edge">
<title>Node16&#45;&gt;Node9</title>
<path fill="none" stroke="midnightblue" d="M429.47,-62.01C398.05,-49.36 350.27,-30.13 322.86,-19.1"/>
<polygon fill="midnightblue" stroke="midnightblue" points="428.47,-65.38 439.06,-65.87 431.09,-58.89 428.47,-65.38"/>
</g>
<!-- Node17 -->
<g id="node8" class="node">
<title>Node17</title>
<polygon fill="none" stroke="black" points="499,-151 422,-151 422,-132 499,-132 499,-151"/>
<text text-anchor="middle" x="460.5" y="-139" font-family="'Consolas',monospace" font-size="10.00">Templ&lt; T &gt;</text>
</g>
<!-- Node17&#45;&gt;Node16 -->
<g id="edge7" class="edge">
<title>Node17&#45;&gt;Node16</title>
<path fill="none" stroke="orange" stroke-dasharray="5,2" d="M460.5,-121.58C460.5,-109.63 460.5,-94.72 460.5,-85.41"/>
<polygon fill="orange" stroke="orange" points="457,-121.87 460.5,-131.87 464,-121.87 457,-121.87"/>
<text text-anchor="middle" x="482" y="-106" font-family="'Consolas',monospace" font-size="10.00">&lt; int &gt;</text>
</g>
<!-- Node18 -->
<g id="node9" class="node">
<title>Node18</title>
<polygon fill="none" stroke="black" points="564,-85 523,-85 523,-66 564,-66 564,-85"/>
<text text-anchor="middle" x="543.5" y="-73" font-family="'Consolas',monospace" font-size="10.00">Used</text>
</g>
<!-- Node18&#45;&gt;Node9 -->
<g id="edge8" class="edge">
<title>Node18&#45;&gt;Node9</title>
<path fill="none" stroke="#9a32cd" stroke-dasharray="5,2" d="M512.87,-65.61C444.67,-46.82 375.67,-29.16 335.52,-19.03"/>
<polygon fill="#9a32cd" stroke="#9a32cd" points="512.36,-69.09 522.93,-68.39 514.22,-62.35 512.36,-69.09"/>
<text text-anchor="middle" x="477" y="-40" font-family="'Consolas',monospace" font-size="10.00">m_usedClass</text>
</g>
</g>
</svg>
