<?xml version="1.0" encoding="UTF-8" standalone="no"?>
<!DOCTYPE svg PUBLIC "-//W3C//DTD SVG 1.1//EN"
 "http://www.w3.org/Graphics/SVG/1.1/DTD/svg11.dtd">
<!-- Generated by graphviz version 2.38.0 (20140413.2041)
 -->
<!-- Title: Graph Legend Pages: 1 -->
<svg width="572pt" height="159pt"
 viewBox="0.00 0.00 572.00 159.00" xmlns="http://www.w3.org/2000/svg" xmlns:xlink="http://www.w3.org/1999/xlink">
<g id="graph0" class="graph" transform="scale(1 1) rotate(0) translate(4 155)">
<title>Graph Legend</title>
<polygon fill="white" stroke="none" points="-4,4 -4,-155 568,-155 568,4 -4,4"/>
<!-- Node9 -->
<g id="node1" class="node"><title>Node9</title>
<polygon fill="#bfbfbf" stroke="black" points="337,-19 266,-19 266,-0 337,-0 337,-19"/>
<text text-anchor="middle" x="301.5" y="-7" font-family="'Consolas',monospace" font-size="10.00">Inherited</text>
</g>
<!-- Node10 -->
<g id="node2" class="node"><title>Node10</title>
<g id="a_node2"><a xlink:href="$classPublicBase.html" xlink:title="PublicBase">
<polygon fill="none" stroke="black" points="77,-85 0,-85 0,-66 77,-66 77,-85"/>
<text text-anchor="middle" x="38.5" y="-73" font-family="'Consolas',monospace" font-size="10.00">PublicBase</text>
</a>
</g>
</g>
<!-- Node10&#45;&gt;Node9 -->
<g id="edge1" class="edge"><title>Node10&#45;&gt;Node9</title>
<path fill="none" stroke="midnightblue" d="M83.6135,-63.5218C135.441,-50.9097 219.38,-30.4836 266.512,-19.0142"/>
<polygon fill="midnightblue" stroke="midnightblue" points="82.5853,-60.1698 73.6965,-65.9351 84.2405,-66.9713 82.5853,-60.1698"/>
</g>
<!-- Node11 -->
<g id="node3" class="node"><title>Node11</title>
<g id="a_node3"><a xlink:href="$classTruncated.html" xlink:title="Truncated">
<polygon fill="none" stroke="red" points="74,-151 3,-151 3,-132 74,-132 74,-151"/>
<text text-anchor="middle" x="38.5" y="-139" font-family="'Consolas',monospace" font-size="10.00">Truncated</text>
</a>
</g>
</g>
<!-- Node11&#45;&gt;Node10 -->
<g id="edge2" class="edge"><title>Node11&#45;&gt;Node10</title>
<path fill="none" stroke="midnightblue" d="M38.5,-121.584C38.5,-109.625 38.5,-94.7211 38.5,-85.4052"/>
<polygon fill="midnightblue" stroke="midnightblue" points="35.0001,-121.869 38.5,-131.869 42.0001,-121.869 35.0001,-121.869"/>
</g>
<!-- Node13 -->
<g id="node4" class="node"><title>Node13</title>
<g id="a_node4"><a xlink:href="$classProtectedBase.html" xlink:title="ProtectedBase">
<polygon fill="none" stroke="black" points="190,-85 95,-85 95,-66 190,-66 190,-85"/>
<text text-anchor="middle" x="142.5" y="-73" font-family="'Consolas',monospace" font-size="10.00">ProtectedBase</text>
</a>
</g>
</g>
<!-- Node13&#45;&gt;Node9 -->
<g id="edge3" class="edge"><title>Node13&#45;&gt;Node9</title>
<path fill="none" stroke="darkgreen" d="M173.526,-62.0115C204.953,-49.3615 252.726,-30.1321 280.143,-19.0965"/>
<polygon fill="darkgreen" stroke="darkgreen" points="171.913,-58.8878 163.943,-65.8687 174.527,-65.3814 171.913,-58.8878"/>
</g>
<!-- Node14 -->
<g id="node5" class="node"><title>Node14</title>
<g id="a_node5"><a xlink:href="$classPrivateBase.html" xlink:title="PrivateBase">
<polygon fill="none" stroke="black" points="291,-85 208,-85 208,-66 291,-66 291,-85"/>
<text text-anchor="middle" x="249.5" y="-73" font-family="'Consolas',monospace" font-size="10.00">PrivateBase</text>
</a>
</g>
</g>
<!-- Node14&#45;&gt;Node9 -->
<g id="edge4" class="edge"><title>Node14&#45;&gt;Node9</title>
<path fill="none" stroke="#8b1a1a" d="M263.095,-57.7673C273.07,-45.4902 286.227,-29.2973 294.264,-19.4052"/>
<polygon fill="#8b1a1a" stroke="#8b1a1a" points="260.103,-55.9004 256.513,-65.8687 265.535,-60.3146 260.103,-55.9004"/>
</g>
<!-- Node15 -->
<g id="node6" class="node"><title>Node15</title>
<polygon fill="none" stroke="#bfbfbf" points="398,-85 309,-85 309,-66 398,-66 398,-85"/>
<text text-anchor="middle" x="353.5" y="-73" font-family="'Consolas',monospace" font-size="10.00">Undocumented</text>
</g>
<!-- Node15&#45;&gt;Node9 -->
<g id="edge5" class="edge"><title>Node15&#45;&gt;Node9</title>
<path fill="none" stroke="midnightblue" d="M339.905,-57.7673C329.93,-45.4902 316.773,-29.2973 308.736,-19.4052"/>
<polygon fill="midnightblue" stroke="midnightblue" points="337.465,-60.3146 346.487,-65.8687 342.897,-55.9004 337.465,-60.3146"/>
</g>
<!-- Node16 -->
<g id="node7" class="node"><title>Node16</title>
<g id="a_node7"><a xlink:href="$classTempl.html" xlink:title="Templ&lt; int &gt;">
<polygon fill="none" stroke="black" points="505,-85 416,-85 416,-66 505,-66 505,-85"/>
<text text-anchor="middle" x="460.5" y="-73" font-family="'Consolas',monospace" font-size="10.00">Templ&lt; int &gt;</text>
</a>
</g>
</g>
<!-- Node16&#45;&gt;Node9 -->
<g id="edge6" class="edge"><title>Node16&#45;&gt;Node9</title>
<path fill="none" stroke="midnightblue" d="M429.474,-62.0115C398.047,-49.3615 350.274,-30.1321 322.857,-19.0965"/>
<polygon fill="midnightblue" stroke="midnightblue" points="428.473,-65.3814 439.057,-65.8687 431.087,-58.8878 428.473,-65.3814"/>
</g>
<!-- Node17 -->
<g id="node8" class="node"><title>Node17</title>
<g id="a_node8"><a xlink:href="$classTempl.html" xlink:title="Templ&lt; T &gt;">
<polygon fill="none" stroke="black" points="499,-151 422,-151 422,-132 499,-132 499,-151"/>
<text text-anchor="middle" x="460.5" y="-139" font-family="'Consolas',monospace" font-size="10.00">Templ&lt; T &gt;</text>
</a>
</g>
</g>
<!-- Node17&#45;&gt;Node16 -->
<g id="edge7" class="edge"><title>Node17&#45;&gt;Node16</title>
<path fill="none" stroke="orange" stroke-dasharray="5,2" d="M460.5,-121.584C460.5,-109.625 460.5,-94.7211 460.5,-85.4052"/>
<polygon fill="orange" stroke="orange" points="457,-121.869 460.5,-131.869 464,-121.869 457,-121.869"/>
<text text-anchor="middle" x="482" y="-106" font-family="'Consolas',monospace" font-size="10.00">&lt; int &gt;</text>
</g>
<!-- Node18 -->
<g id="node9" class="node"><title>Node18</title>
<g id="a_node9"><a xlink:href="$classUsed.html" xlink:title="Used">
<polygon fill="none" stroke="black" points="564,-85 523,-85 523,-66 564,-66 564,-85"/>
<text text-anchor="middle" x="543.5" y="-73" font-family="'Consolas',monospace" font-size="10.00">Used</text>
</a>
</g>
</g>
<!-- Node18&#45;&gt;Node9 -->
<g id="edge8" class="edge"><title>Node18&#45;&gt;Node9</title>
<path fill="none" stroke="#9a32cd" stroke-dasharray="5,2" d="M512.873,-65.6066C444.665,-46.8154 375.667,-29.1637 335.524,-19.0279"/>
<polygon fill="#9a32cd" stroke="#9a32cd" points="512.356,-69.0949 522.927,-68.3866 514.221,-62.3481 512.356,-69.0949"/>
<text text-anchor="middle" x="477" y="-40" font-family="'Consolas',monospace" font-size="10.00">m_usedClass</text>
</g>
</g>
</svg>
