<?xml version="1.0" encoding="UTF-8" standalone="no"?>
<!DOCTYPE svg PUBLIC "-//W3C//DTD SVG 1.1//EN"
 "http://www.w3.org/Graphics/SVG/1.1/DTD/svg11.dtd">
<!-- Generated by graphviz version 2.40.1 (20161225.0304)
 -->
<!-- Title: Graph Legend Pages: 1 -->
<svg width="572pt" height="159pt"
 viewBox="0.00 0.00 572.00 159.00" xmlns="http://www.w3.org/2000/svg" xmlns:xlink="http://www.w3.org/1999/xlink">
<g id="graph0" class="graph" transform="scale(1 1) rotate(0) translate(4 155)">
<title>Graph Legend</title>
<polygon fill="#ffffff" stroke="transparent" points="-4,4 -4,-155 568,-155 568,4 -4,4"/>
<!-- Node9 -->
<g id="node1" class="node">
<title>Node9</title>
<polygon fill="#bfbfbf" stroke="#000000" points="337,-19 266,-19 266,0 337,0 337,-19"/>
<text text-anchor="middle" x="301.5" y="-7" font-family="'Consolas',monospace" font-size="10.00" fill="#000000">Inherited</text>
</g>
<!-- Node10 -->
<g id="node2" class="node">
<title>Node10</title>
<g id="a_node2"><a xlink:href="$classPublicBase.html" xlink:title="PublicBase">
<polygon fill="none" stroke="#000000" points="77,-85 0,-85 0,-66 77,-66 77,-85"/>
<text text-anchor="middle" x="38.5" y="-73" font-family="'Consolas',monospace" font-size="10.00" fill="#000000">PublicBase</text>
</a>
</g>
</g>
<!-- Node10&#45;&gt;Node9 -->
<g id="edge1" class="edge">
<title>Node10&#45;&gt;Node9</title>
<path fill="none" stroke="#191970" d="M86.3876,-63.4826C138.0758,-50.5114 219.2146,-30.1496 265.6605,-18.4939"/>
<polygon fill="#191970" stroke="#191970" points="85.3089,-60.1447 76.4616,-65.9735 87.0128,-66.9342 85.3089,-60.1447"/>
</g>
<!-- Node11 -->
<g id="node3" class="node">
<title>Node11</title>
<g id="a_node3"><a xlink:href="$classTruncated.html" xlink:title="Truncated">
<polygon fill="none" stroke="#ff0000" points="74,-151 3,-151 3,-132 74,-132 74,-151"/>
<text text-anchor="middle" x="38.5" y="-139" font-family="'Consolas',monospace" font-size="10.00" fill="#000000">Truncated</text>
</a>
</g>
</g>
<!-- Node11&#45;&gt;Node10 -->
<g id="edge2" class="edge">
<title>Node11&#45;&gt;Node10</title>
<path fill="none" stroke="#191970" d="M38.5,-121.732C38.5,-109.6966 38.5,-94.847 38.5,-85.2785"/>
<polygon fill="#191970" stroke="#191970" points="35.0001,-121.7614 38.5,-131.7615 42.0001,-121.7615 35.0001,-121.7614"/>
</g>
<!-- Node13 -->
<g id="node4" class="node">
<title>Node13</title>
<g id="a_node4"><a xlink:href="$classProtectedBase.html" xlink:title="ProtectedBase">
<polygon fill="none" stroke="#000000" points="190,-85 95,-85 95,-66 190,-66 190,-85"/>
<text text-anchor="middle" x="142.5" y="-73" font-family="'Consolas',monospace" font-size="10.00" fill="#000000">ProtectedBase</text>
</a>
</g>
</g>
<!-- Node13&#45;&gt;Node9 -->
<g id="edge3" class="edge">
<title>Node13&#45;&gt;Node9</title>
<path fill="none" stroke="#006400" d="M175.0761,-61.9778C205.9181,-49.1755 251.434,-30.2821 278.6101,-19.0015"/>
<polygon fill="#006400" stroke="#006400" points="173.514,-58.8366 165.62,-65.903 176.1977,-65.3018 173.514,-58.8366"/>
</g>
<!-- Node14 -->
<g id="node5" class="node">
<title>Node14</title>
<g id="a_node5"><a xlink:href="$classPrivateBase.html" xlink:title="PrivateBase">
<polygon fill="none" stroke="#000000" points="291,-85 208,-85 208,-66 291,-66 291,-85"/>
<text text-anchor="middle" x="249.5" y="-73" font-family="'Consolas',monospace" font-size="10.00" fill="#000000">PrivateBase</text>
</a>
</g>
</g>
<!-- Node14&#45;&gt;Node9 -->
<g id="edge4" class="edge">
<title>Node14&#45;&gt;Node9</title>
<path fill="none" stroke="#8b1a1a" d="M263.6416,-57.5511C273.3526,-45.2256 285.8723,-29.3352 293.7957,-19.2785"/>
<polygon fill="#8b1a1a" stroke="#8b1a1a" points="260.6123,-55.7405 257.1728,-65.7615 266.1108,-60.0726 260.6123,-55.7405"/>
</g>
<!-- Node15 -->
<g id="node6" class="node">
<title>Node15</title>
<polygon fill="none" stroke="#bfbfbf" points="398,-85 309,-85 309,-66 398,-66 398,-85"/>
<text text-anchor="middle" x="353.5" y="-73" font-family="'Consolas',monospace" font-size="10.00" fill="#000000">Undocumented</text>
</g>
<!-- Node15&#45;&gt;Node9 -->
<g id="edge5" class="edge">
<title>Node15&#45;&gt;Node9</title>
<path fill="none" stroke="#191970" d="M339.3584,-57.5511C329.6474,-45.2256 317.1277,-29.3352 309.2043,-19.2785"/>
<polygon fill="#191970" stroke="#191970" points="336.8892,-60.0726 345.8272,-65.7615 342.3877,-55.7405 336.8892,-60.0726"/>
</g>
<!-- Node16 -->
<g id="node7" class="node">
<title>Node16</title>
<g id="a_node7"><a xlink:href="$classTempl.html" xlink:title="Templ&lt; int &gt;">
<polygon fill="none" stroke="#000000" points="505,-85 416,-85 416,-66 505,-66 505,-85"/>
<text text-anchor="middle" x="460.5" y="-73" font-family="'Consolas',monospace" font-size="10.00" fill="#000000">Templ&lt; int &gt;</text>
</a>
</g>
</g>
<!-- Node16&#45;&gt;Node9 -->
<g id="edge6" class="edge">
<title>Node16&#45;&gt;Node9</title>
<path fill="none" stroke="#191970" d="M427.9239,-61.9778C397.0819,-49.1755 351.566,-30.2821 324.3899,-19.0015"/>
<polygon fill="#191970" stroke="#191970" points="426.8023,-65.3018 437.38,-65.903 429.486,-58.8366 426.8023,-65.3018"/>
</g>
<!-- Node17 -->
<g id="node8" class="node">
<title>Node17</title>
<g id="a_node8"><a xlink:href="$classTempl.html" xlink:title="Templ&lt; T &gt;">
<polygon fill="none" stroke="#000000" points="499,-151 422,-151 422,-132 499,-132 499,-151"/>
<text text-anchor="middle" x="460.5" y="-139" font-family="'Consolas',monospace" font-size="10.00" fill="#000000">Templ&lt; T &gt;</text>
</a>
</g>
</g>
<!-- Node17&#45;&gt;Node16 -->
<g id="edge7" class="edge">
<title>Node17&#45;&gt;Node16</title>
<path fill="none" stroke="#ffa500" stroke-dasharray="5,2" d="M460.5,-121.732C460.5,-109.6966 460.5,-94.847 460.5,-85.2785"/>
<polygon fill="#ffa500" stroke="#ffa500" points="457.0001,-121.7614 460.5,-131.7615 464.0001,-121.7615 457.0001,-121.7614"/>
<text text-anchor="middle" x="482" y="-106" font-family="'Consolas',monospace" font-size="10.00" fill="#000000">&lt; int &gt;</text>
</g>
<!-- Node18 -->
<g id="node9" class="node">
<title>Node18</title>
<g id="a_node9"><a xlink:href="$classUsed.html" xlink:title="Used">
<polygon fill="none" stroke="#000000" points="564,-85 523,-85 523,-66 564,-66 564,-85"/>
<text text-anchor="middle" x="543.5" y="-73" font-family="'Consolas',monospace" font-size="10.00" fill="#000000">Used</text>
</a>
</g>
</g>
<!-- Node18&#45;&gt;Node9 -->
<g id="edge8" class="edge">
<title>Node18&#45;&gt;Node9</title>
<path fill="none" stroke="#9a32cd" stroke-dasharray="5,2" d="M513.0309,-65.674C445.7318,-45.9006 377.5472,-28.4001 337.1002,-18.2795"/>
<polygon fill="#9a32cd" stroke="#9a32cd" points="512.3684,-69.1278 522.9505,-68.6072 514.3534,-62.4152 512.3684,-69.1278"/>
<text text-anchor="middle" x="483" y="-40" font-family="'Consolas',monospace" font-size="10.00" fill="#000000">m_usedClass</text>
</g>
</g>
</svg>
