<?xml version="1.0" encoding="UTF-8" standalone="no"?>
<!DOCTYPE svg PUBLIC "-//W3C//DTD SVG 1.1//EN"
 "http://www.w3.org/Graphics/SVG/1.1/DTD/svg11.dtd">
<!-- Generated by graphviz version 2.44.0 (0)
 -->
<!-- Title: jngl/ImageData.hpp Pages: 1 -->
<svg width="138pt" height="84pt"
 viewBox="0.00 0.00 138.00 84.00" xmlns="http://www.w3.org/2000/svg" xmlns:xlink="http://www.w3.org/1999/xlink">
<g id="graph0" class="graph" transform="scale(1 1) rotate(0) translate(4 80)">
<title>jngl/ImageData.hpp</title>
<polygon fill="white" stroke="transparent" points="-4,4 -4,-80 134,-80 134,4 -4,4"/>
<!-- Node1 -->
<g id="node1" class="node">
<title>Node1</title>
<g id="a_node1"><a xlink:title="Contains jngl::ImageData class.">
<polygon fill="#bfbfbf" stroke="black" points="4,-56.5 4,-75.5 129,-75.5 129,-56.5 4,-56.5"/>
<text text-anchor="middle" x="66.5" y="-63.5" font-family="'Consolas',monospace" font-size="10.00">jngl/ImageData.hpp</text>
</a>
</g>
</g>
<!-- Node2 -->
<g id="node2" class="node">
<title>Node2</title>
<g id="a_node2"><a target="_parent" xlink:href="http://en.cppreference.com/w/cpp/header/cstddef.html" xlink:title=" ">
<polygon fill="white" stroke="black" points="0,-0.5 0,-19.5 59,-19.5 59,-0.5 0,-0.5"/>
<text text-anchor="middle" x="29.5" y="-7.5" font-family="'Consolas',monospace" font-size="10.00">cstddef</text>
</a>
</g>
</g>
<!-- Node1&#45;&gt;Node2 -->
<g id="edge1" class="edge">
<title>Node1&#45;&gt;Node2</title>
<path fill="none" stroke="midnightblue" d="M60.39,-56.08C55.22,-48.53 47.65,-37.49 41.31,-28.23"/>
<polygon fill="midnightblue" stroke="midnightblue" points="44.04,-26.02 35.5,-19.75 38.26,-29.98 44.04,-26.02"/>
</g>
<!-- Node3 -->
<g id="node3" class="node">
<title>Node3</title>
<g id="a_node3"><a target="_parent" xlink:href="http://en.cppreference.com/w/cpp/header/string.html" xlink:title=" ">
<polygon fill="white" stroke="black" points="77,-0.5 77,-19.5 130,-19.5 130,-0.5 77,-0.5"/>
<text text-anchor="middle" x="103.5" y="-7.5" font-family="'Consolas',monospace" font-size="10.00">string</text>
</a>
</g>
</g>
<!-- Node1&#45;&gt;Node3 -->
<g id="edge2" class="edge">
<title>Node1&#45;&gt;Node3</title>
<path fill="none" stroke="midnightblue" d="M72.61,-56.08C77.78,-48.53 85.35,-37.49 91.69,-28.23"/>
<polygon fill="midnightblue" stroke="midnightblue" points="94.74,-29.98 97.5,-19.75 88.96,-26.02 94.74,-29.98"/>
</g>
</g>
</svg>
