<?xml version="1.0" encoding="UTF-8" standalone="no"?>
<!DOCTYPE svg PUBLIC "-//W3C//DTD SVG 1.1//EN"
 "http://www.w3.org/Graphics/SVG/1.1/DTD/svg11.dtd">
<!-- Generated by graphviz version 9.0.0 (20230911.1827)
 -->
<!-- Title: jngl/ImageData.hpp Pages: 1 -->
<svg width="132pt" height="83pt"
 viewBox="0.00 0.00 132.00 82.50" xmlns="http://www.w3.org/2000/svg" xmlns:xlink="http://www.w3.org/1999/xlink">
<g id="graph0" class="graph" transform="scale(1 1) rotate(0) translate(4 78.5)">
<title>jngl/ImageData.hpp</title>
<!-- Node1 -->
<g id="Node000001" class="node">
<title>Node1</title>
<g id="a_Node000001"><a xlink:title="Contains jngl::ImageData class.">
<polygon fill="#999999" stroke="#666666" points="124,-74.5 0,-74.5 0,-55.25 124,-55.25 124,-74.5"/>
<text text-anchor="middle" x="62" y="-61" font-family="ui-monospace,monospace" font-size="10.00">jngl/ImageData.hpp</text>
</a>
</g>
</g>
<!-- Node2 -->
<g id="Node000002" class="node">
<title>Node2</title>
<g id="a_Node000002"><a target="_parent" xlink:href="http://en.cppreference.com/w/cpp/header/memory.html" xlink:title=" ">
<polygon fill="white" stroke="#666666" points="53,-19.25 1,-19.25 1,0 53,0 53,-19.25"/>
<text text-anchor="middle" x="27" y="-5.75" font-family="ui-monospace,monospace" font-size="10.00">memory</text>
</a>
</g>
</g>
<!-- Node1&#45;&gt;Node2 -->
<g id="edge1_Node000001_Node000002" class="edge">
<title>Node1&#45;&gt;Node2</title>
<g id="a_edge1_Node000001_Node000002"><a xlink:title=" ">
<path fill="none" stroke="#63b8ff" d="M56.22,-55.08C51.59,-48.03 44.93,-37.9 39.13,-29.08"/>
<polygon fill="#63b8ff" stroke="#63b8ff" points="42.15,-27.31 33.74,-20.87 36.3,-31.15 42.15,-27.31"/>
</a>
</g>
</g>
<!-- Node3 -->
<g id="Node000003" class="node">
<title>Node3</title>
<g id="a_Node000003"><a target="_parent" xlink:href="http://en.cppreference.com/w/cpp/header/string.html" xlink:title=" ">
<polygon fill="white" stroke="#666666" points="123,-19.25 71,-19.25 71,0 123,0 123,-19.25"/>
<text text-anchor="middle" x="97" y="-5.75" font-family="ui-monospace,monospace" font-size="10.00">string</text>
</a>
</g>
</g>
<!-- Node1&#45;&gt;Node3 -->
<g id="edge2_Node000001_Node000003" class="edge">
<title>Node1&#45;&gt;Node3</title>
<g id="a_edge2_Node000001_Node000003"><a xlink:title=" ">
<path fill="none" stroke="#63b8ff" d="M67.78,-55.08C72.41,-48.03 79.07,-37.9 84.87,-29.08"/>
<polygon fill="#63b8ff" stroke="#63b8ff" points="87.7,-31.15 90.26,-20.87 81.85,-27.31 87.7,-31.15"/>
</a>
</g>
</g>
</g>
</svg>
