<?xml version="1.0" encoding="UTF-8" standalone="no"?>
<!DOCTYPE svg PUBLIC "-//W3C//DTD SVG 1.1//EN"
 "http://www.w3.org/Graphics/SVG/1.1/DTD/svg11.dtd">
<!-- Generated by graphviz version 5.0.0 (0)
 -->
<!-- Title: jngl/ImageData.hpp Pages: 1 -->
<svg width="133pt" height="82pt"
 viewBox="0.00 0.00 133.00 82.00" xmlns="http://www.w3.org/2000/svg" xmlns:xlink="http://www.w3.org/1999/xlink">
<g id="graph0" class="graph" transform="scale(1 1) rotate(0) translate(4 78)">
<title>jngl/ImageData.hpp</title>
<!-- Node1 -->
<g id="node1" class="node">
<title>Node1</title>
<g id="a_node1"><a xlink:title="Contains jngl::ImageData class.">
<polygon fill="#999999" stroke="#666666" points="125,-74 0,-74 0,-55 125,-55 125,-74"/>
<text text-anchor="middle" x="62.5" y="-62" font-family="ui-monospace,monospace" font-size="10.00">jngl/ImageData.hpp</text>
</a>
</g>
</g>
<!-- Node2 -->
<g id="node2" class="node">
<title>Node2</title>
<g id="a_node2"><a target="_parent" xlink:href="http://en.cppreference.com/w/cpp/header/memory.html" xlink:title=" ">
<polygon fill="white" stroke="#666666" points="54,-19 1,-19 1,0 54,0 54,-19"/>
<text text-anchor="middle" x="27.5" y="-7" font-family="ui-monospace,monospace" font-size="10.00">memory</text>
</a>
</g>
</g>
<!-- Node1&#45;&gt;Node2 -->
<g id="edge1" class="edge">
<title>Node1&#45;&gt;Node2</title>
<path fill="none" stroke="#63b8ff" d="M56.72,-54.75C51.88,-47.42 44.82,-36.73 38.86,-27.7"/>
<polygon fill="#63b8ff" stroke="#63b8ff" points="41.6,-25.5 33.17,-19.09 35.76,-29.36 41.6,-25.5"/>
</g>
<!-- Node3 -->
<g id="node3" class="node">
<title>Node3</title>
<g id="a_node3"><a target="_parent" xlink:href="http://en.cppreference.com/w/cpp/header/string.html" xlink:title=" ">
<polygon fill="white" stroke="#666666" points="125,-19 72,-19 72,0 125,0 125,-19"/>
<text text-anchor="middle" x="98.5" y="-7" font-family="ui-monospace,monospace" font-size="10.00">string</text>
</a>
</g>
</g>
<!-- Node1&#45;&gt;Node3 -->
<g id="edge2" class="edge">
<title>Node1&#45;&gt;Node3</title>
<path fill="none" stroke="#63b8ff" d="M68.44,-54.75C73.48,-47.34 80.84,-36.5 87.01,-27.41"/>
<polygon fill="#63b8ff" stroke="#63b8ff" points="89.94,-29.33 92.67,-19.09 84.15,-25.39 89.94,-29.33"/>
</g>
</g>
</svg>
