<?xml version="1.0" encoding="UTF-8" standalone="no"?>
<!DOCTYPE svg PUBLIC "-//W3C//DTD SVG 1.1//EN"
 "http://www.w3.org/Graphics/SVG/1.1/DTD/svg11.dtd">
<!-- Generated by graphviz version 2.40.1 (0)
 -->
<!-- Title: Graphical Class Hierarchy Pages: 1 -->
<svg width="143pt" height="66pt"
 viewBox="0.00 0.00 143.00 66.00" xmlns="http://www.w3.org/2000/svg" xmlns:xlink="http://www.w3.org/1999/xlink">
<g id="graph0" class="graph" transform="scale(1 1) rotate(0) translate(4 62)">
<title>Graphical Class Hierarchy</title>
<polygon fill="#ffffff" stroke="transparent" points="-4,4 -4,-62 139,-62 139,4 -4,4"/>
<!-- Node0 -->
<g id="node1" class="node">
<title>Node0</title>
<g id="a_node1"><a xlink:href="classjngl_1_1Drawable.html" target="_top" xlink:title="Drawable">
<polygon fill="#ffffff" stroke="#000000" points="0,-19.5 0,-38.5 57,-38.5 57,-19.5 0,-19.5"/>
<text text-anchor="middle" x="28.5" y="-26.5" font-family="Lato" font-size="10.00" fill="#000000">Drawable</text>
</a>
</g>
</g>
<!-- Node1 -->
<g id="node2" class="node">
<title>Node1</title>
<g id="a_node2"><a xlink:href="classjngl_1_1Sprite.html" target="_top" xlink:title="Sprite">
<polygon fill="#ffffff" stroke="#000000" points="93,-38.5 93,-57.5 135,-57.5 135,-38.5 93,-38.5"/>
<text text-anchor="middle" x="114" y="-45.5" font-family="Lato" font-size="10.00" fill="#000000">Sprite</text>
</a>
</g>
</g>
<!-- Node0&#45;&gt;Node1 -->
<g id="edge1" class="edge">
<title>Node0&#45;&gt;Node1</title>
<path fill="none" stroke="#191970" d="M67.245,-37.61C76.0825,-39.5739 85.1504,-41.589 92.92,-43.3156"/>
<polygon fill="#191970" stroke="#191970" points="67.9676,-34.1853 57.4464,-35.4325 66.449,-41.0186 67.9676,-34.1853"/>
</g>
<!-- Node2 -->
<g id="node3" class="node">
<title>Node2</title>
<g id="a_node3"><a xlink:href="classjngl_1_1Text.html" target="_top" xlink:title="Text">
<polygon fill="#ffffff" stroke="#000000" points="96.5,-.5 96.5,-19.5 131.5,-19.5 131.5,-.5 96.5,-.5"/>
<text text-anchor="middle" x="114" y="-7.5" font-family="Lato" font-size="10.00" fill="#000000">Text</text>
</a>
</g>
</g>
<!-- Node0&#45;&gt;Node2 -->
<g id="edge2" class="edge">
<title>Node0&#45;&gt;Node2</title>
<path fill="none" stroke="#191970" d="M67.378,-20.3604C77.4916,-18.113 87.8965,-15.8008 96.3038,-13.9325"/>
<polygon fill="#191970" stroke="#191970" points="66.449,-16.9814 57.4464,-22.5675 67.9676,-23.8147 66.449,-16.9814"/>
</g>
</g>
</svg>
