<?xml version="1.0" encoding="UTF-8" standalone="no"?>
<!DOCTYPE svg PUBLIC "-//W3C//DTD SVG 1.1//EN"
 "http://www.w3.org/Graphics/SVG/1.1/DTD/svg11.dtd">
<!-- Generated by graphviz version 2.42.4 (0)
 -->
<!-- Title: Graphical Class Hierarchy Pages: 1 -->
<svg width="174pt" height="104pt"
 viewBox="0.00 0.00 174.00 104.00" xmlns="http://www.w3.org/2000/svg" xmlns:xlink="http://www.w3.org/1999/xlink">
<g id="graph0" class="graph" transform="scale(1 1) rotate(0) translate(4 100)">
<title>Graphical Class Hierarchy</title>
<polygon fill="white" stroke="transparent" points="-4,4 -4,-100 170,-100 170,4 -4,4"/>
<!-- Node0 -->
<g id="node1" class="node">
<title>Node0</title>
<g id="a_node1"><a xlink:href="classjngl_1_1Drawable.html" target="_top" xlink:title="Base class for drawable objects with a position and a rectangle size.">
<polygon fill="white" stroke="black" points="0,-38.5 0,-57.5 65,-57.5 65,-38.5 0,-38.5"/>
<text text-anchor="middle" x="32.5" y="-45.5" font-family="'Consolas',monospace" font-size="10.00">Drawable</text>
</a>
</g>
</g>
<!-- Node1 -->
<g id="node2" class="node">
<title>Node1</title>
<g id="a_node2"><a xlink:href="classjngl_1_1Sprite.html" target="_top" xlink:title="Higher&#45;level representation of an image.">
<polygon fill="white" stroke="black" points="107,-76.5 107,-95.5 160,-95.5 160,-76.5 107,-76.5"/>
<text text-anchor="middle" x="133.5" y="-83.5" font-family="'Consolas',monospace" font-size="10.00">Sprite</text>
</a>
</g>
</g>
<!-- Node0&#45;&gt;Node1 -->
<g id="edge1" class="edge">
<title>Node0&#45;&gt;Node1</title>
<path fill="none" stroke="midnightblue" d="M68.06,-61.26C81.05,-66.25 95.57,-71.82 107.53,-76.41"/>
<polygon fill="midnightblue" stroke="midnightblue" points="69.07,-57.9 58.48,-57.59 66.56,-64.44 69.07,-57.9"/>
</g>
<!-- Node2 -->
<g id="node3" class="node">
<title>Node2</title>
<g id="a_node3"><a xlink:href="classjngl_1_1Text.html" target="_top" xlink:title="Rectangle shaped text block.">
<polygon fill="white" stroke="black" points="113,-38.5 113,-57.5 154,-57.5 154,-38.5 113,-38.5"/>
<text text-anchor="middle" x="133.5" y="-45.5" font-family="'Consolas',monospace" font-size="10.00">Text</text>
</a>
</g>
</g>
<!-- Node0&#45;&gt;Node2 -->
<g id="edge2" class="edge">
<title>Node0&#45;&gt;Node2</title>
<path fill="none" stroke="midnightblue" d="M75.35,-48C88.42,-48 102.23,-48 112.99,-48"/>
<polygon fill="midnightblue" stroke="midnightblue" points="75.1,-44.5 65.1,-48 75.1,-51.5 75.1,-44.5"/>
</g>
<!-- Node3 -->
<g id="node4" class="node">
<title>Node3</title>
<g id="a_node4"><a xlink:href="classjngl_1_1TextLine.html" target="_top" xlink:title="Rectangle shaped text (in contrast to jngl::Text this only represents one line)">
<polygon fill="white" stroke="black" points="101,-0.5 101,-19.5 166,-19.5 166,-0.5 101,-0.5"/>
<text text-anchor="middle" x="133.5" y="-7.5" font-family="'Consolas',monospace" font-size="10.00">TextLine</text>
</a>
</g>
</g>
<!-- Node0&#45;&gt;Node3 -->
<g id="edge3" class="edge">
<title>Node0&#45;&gt;Node3</title>
<path fill="none" stroke="midnightblue" d="M68.06,-34.74C81.05,-29.75 95.57,-24.18 107.53,-19.59"/>
<polygon fill="midnightblue" stroke="midnightblue" points="66.56,-31.56 58.48,-38.41 69.07,-38.1 66.56,-31.56"/>
</g>
</g>
</svg>
