<?xml version="1.0" encoding="UTF-8" standalone="no"?>
<!DOCTYPE svg PUBLIC "-//W3C//DTD SVG 1.1//EN"
 "http://www.w3.org/Graphics/SVG/1.1/DTD/svg11.dtd">
<!-- Generated by graphviz version 9.0.0 (20230911.1827)
 -->
<!-- Title: Graphical Class Hierarchy Pages: 1 -->
<svg width="196pt" height="138pt"
 viewBox="0.00 0.00 196.00 138.25" xmlns="http://www.w3.org/2000/svg" xmlns:xlink="http://www.w3.org/1999/xlink">
<g id="graph0" class="graph" transform="scale(1 1) rotate(0) translate(4 134.25)">
<title>Graphical Class Hierarchy</title>
<!-- Node0 -->
<g id="Node000000" class="node">
<title>Node0</title>
<g id="a_Node000000"><a xlink:href="classjngl_1_1Effect.html" target="_top" xlink:title="Base class for effects that can be applied to jngl::Widget.">
<polygon fill="white" stroke="#666666" points="46,-74.25 0,-74.25 0,-55 46,-55 46,-74.25"/>
<text text-anchor="middle" x="23" y="-60.75" font-family="ui-monospace,monospace" font-size="10.00">Effect</text>
</a>
</g>
</g>
<!-- Node1 -->
<g id="Node000001" class="node">
<title>Node1</title>
<g id="a_Node000001"><a xlink:href="classjngl_1_1Executor.html" target="_top" xlink:title="Executes a specific action, e.g. removes the Widget.">
<polygon fill="white" stroke="#666666" points="167,-130.25 103,-130.25 103,-111 167,-111 167,-130.25"/>
<text text-anchor="middle" x="135" y="-116.75" font-family="ui-monospace,monospace" font-size="10.00">Executor</text>
</a>
</g>
</g>
<!-- Node0&#45;&gt;Node1 -->
<g id="edge3_Node000000_Node000001" class="edge">
<title>Node0&#45;&gt;Node1</title>
<g id="a_edge3_Node000000_Node000001"><a xlink:title=" ">
<path fill="none" stroke="#63b8ff" d="M46.46,-81.21C56.91,-88.42 69.72,-96.59 82,-102.62 88.52,-105.83 95.75,-108.71 102.69,-111.19"/>
<polygon fill="#63b8ff" stroke="#63b8ff" points="48.68,-78.49 38.5,-75.56 44.63,-84.2 48.68,-78.49"/>
</a>
</g>
</g>
<!-- Node2 -->
<g id="Node000002" class="node">
<title>Node2</title>
<g id="a_Node000002"><a xlink:href="classjngl_1_1Move.html" target="_top" xlink:title=" ">
<polygon fill="white" stroke="#666666" points="155,-93.25 115,-93.25 115,-74 155,-74 155,-93.25"/>
<text text-anchor="middle" x="135" y="-79.75" font-family="ui-monospace,monospace" font-size="10.00">Move</text>
</a>
</g>
</g>
<!-- Node0&#45;&gt;Node2 -->
<g id="edge4_Node000000_Node000002" class="edge">
<title>Node0&#45;&gt;Node2</title>
<g id="a_edge4_Node000000_Node000002"><a xlink:title=" ">
<path fill="none" stroke="#63b8ff" d="M57.6,-70.43C76.32,-73.66 98.96,-77.57 114.71,-80.29"/>
<polygon fill="#63b8ff" stroke="#63b8ff" points="58.2,-66.98 47.75,-68.73 57.01,-73.88 58.2,-66.98"/>
</a>
</g>
</g>
<!-- Node3 -->
<g id="Node000003" class="node">
<title>Node3</title>
<g id="a_Node000003"><a xlink:href="classjngl_1_1UpdateModelview.html" target="_top" xlink:title=" ">
<polygon fill="white" stroke="#666666" points="188,-56.25 82,-56.25 82,-37 188,-37 188,-56.25"/>
<text text-anchor="middle" x="135" y="-42.75" font-family="ui-monospace,monospace" font-size="10.00">UpdateModelview</text>
</a>
</g>
</g>
<!-- Node0&#45;&gt;Node3 -->
<g id="edge5_Node000000_Node000003" class="edge">
<title>Node0&#45;&gt;Node3</title>
<g id="a_edge5_Node000000_Node000003"><a xlink:title=" ">
<path fill="none" stroke="#63b8ff" d="M57.35,-59.17C65.07,-57.9 73.46,-56.53 81.77,-55.17"/>
<polygon fill="#63b8ff" stroke="#63b8ff" points="57.06,-55.67 47.75,-60.74 58.19,-62.58 57.06,-55.67"/>
</a>
</g>
</g>
<!-- Node4 -->
<g id="Node000004" class="node">
<title>Node4</title>
<g id="a_Node000004"><a xlink:href="classjngl_1_1Zoom.html" target="_top" xlink:title="Scales the ModelView matrix.">
<polygon fill="white" stroke="#666666" points="155,-19.25 115,-19.25 115,0 155,0 155,-19.25"/>
<text text-anchor="middle" x="135" y="-5.75" font-family="ui-monospace,monospace" font-size="10.00">Zoom</text>
</a>
</g>
</g>
<!-- Node0&#45;&gt;Node4 -->
<g id="edge6_Node000000_Node000004" class="edge">
<title>Node0&#45;&gt;Node4</title>
<g id="a_edge6_Node000000_Node000004"><a xlink:title=" ">
<path fill="none" stroke="#63b8ff" d="M46.94,-48.23C57.32,-41.28 69.94,-33.46 82,-27.62 92.49,-22.55 104.79,-18.22 114.8,-15.09"/>
<polygon fill="#63b8ff" stroke="#63b8ff" points="45.27,-45.13 39.01,-53.68 49.23,-50.9 45.27,-45.13"/>
</a>
</g>
</g>
</g>
</svg>
