<?xml version="1.0" encoding="UTF-8" standalone="no"?>
<!DOCTYPE svg PUBLIC "-//W3C//DTD SVG 1.1//EN"
 "http://www.w3.org/Graphics/SVG/1.1/DTD/svg11.dtd">
<!-- Generated by graphviz version 9.0.0 (20230911.1827)
 -->
<!-- Title: Graphical Class Hierarchy Pages: 1 -->
<svg width="236pt" height="27pt"
 viewBox="0.00 0.00 236.00 27.25" xmlns="http://www.w3.org/2000/svg" xmlns:xlink="http://www.w3.org/1999/xlink">
<g id="graph0" class="graph" transform="scale(1 1) rotate(0) translate(4 23.25)">
<title>Graphical Class Hierarchy</title>
<!-- Node0 -->
<g id="Node000000" class="node">
<title>Node0</title>
<g id="a_Node000000"><a xlink:href="classjngl_1_1Job.html" target="_top" xlink:title="Background job which stays part of the main loop independent of the active jngl::Work.">
<polygon fill="white" stroke="#666666" points="34,-19.25 0,-19.25 0,0 34,0 34,-19.25"/>
<text text-anchor="middle" x="17" y="-5.75" font-family="ui-monospace,monospace" font-size="10.00">Job</text>
</a>
</g>
</g>
<!-- Node1 -->
<g id="Node000001" class="node">
<title>Node1</title>
<g id="a_Node000001"><a xlink:href="classjngl_1_1Work.html" target="_top" xlink:title="Active state of the game, e.g. a menu or the game itself.">
<polygon fill="white" stroke="#666666" points="110,-19.25 70,-19.25 70,0 110,0 110,-19.25"/>
<text text-anchor="middle" x="90" y="-5.75" font-family="ui-monospace,monospace" font-size="10.00">Work</text>
</a>
</g>
</g>
<!-- Node0&#45;&gt;Node1 -->
<g id="edge7_Node000000_Node000001" class="edge">
<title>Node0&#45;&gt;Node1</title>
<g id="a_edge7_Node000000_Node000001"><a xlink:title=" ">
<path fill="none" stroke="#63b8ff" d="M45.88,-9.62C53.82,-9.62 62.29,-9.62 69.6,-9.62"/>
<polygon fill="#63b8ff" stroke="#63b8ff" points="45.98,-6.13 35.98,-9.63 45.98,-13.13 45.98,-6.13"/>
</a>
</g>
</g>
<!-- Node2 -->
<g id="Node000002" class="node">
<title>Node2</title>
<g id="a_Node000002"><a xlink:href="classjngl_1_1WorkFactory.html" target="_top" xlink:title=" ">
<polygon fill="white" stroke="#666666" points="228,-19.25 146,-19.25 146,0 228,0 228,-19.25"/>
<text text-anchor="middle" x="187" y="-5.75" font-family="ui-monospace,monospace" font-size="10.00">WorkFactory</text>
</a>
</g>
</g>
<!-- Node1&#45;&gt;Node2 -->
<g id="edge8_Node000001_Node000002" class="edge">
<title>Node1&#45;&gt;Node2</title>
<g id="a_edge8_Node000001_Node000002"><a xlink:title=" ">
<path fill="none" stroke="#63b8ff" d="M121.57,-9.62C129.23,-9.62 137.56,-9.62 145.62,-9.62"/>
<polygon fill="#63b8ff" stroke="#63b8ff" points="121.74,-6.13 111.74,-9.63 121.74,-13.13 121.74,-6.13"/>
</a>
</g>
</g>
</g>
</svg>
