<?xml version="1.0" encoding="UTF-8" standalone="no"?>
<!DOCTYPE svg PUBLIC "-//W3C//DTD SVG 1.1//EN"
 "http://www.w3.org/Graphics/SVG/1.1/DTD/svg11.dtd">
<!-- Generated by graphviz version 5.0.0 (0)
 -->
<!-- Title: Graphical Class Hierarchy Pages: 1 -->
<svg width="239pt" height="27pt"
 viewBox="0.00 0.00 239.00 27.00" xmlns="http://www.w3.org/2000/svg" xmlns:xlink="http://www.w3.org/1999/xlink">
<g id="graph0" class="graph" transform="scale(1 1) rotate(0) translate(4 23)">
<title>Graphical Class Hierarchy</title>
<!-- Node0 -->
<g id="node1" class="node">
<title>Node0</title>
<g id="a_node1"><a xlink:href="classjngl_1_1Job.html" target="_top" xlink:title="Background job which stays part of the main loop independent of the active jngl::Work.">
<polygon fill="white" stroke="#666666" points="35,-19 0,-19 0,0 35,0 35,-19"/>
<text text-anchor="middle" x="17.5" y="-7" font-family="ui-monospace,monospace" font-size="10.00">Job</text>
</a>
</g>
</g>
<!-- Node1 -->
<g id="node2" class="node">
<title>Node1</title>
<g id="a_node2"><a xlink:href="classjngl_1_1Work.html" target="_top" xlink:title="Active state of the game, e.g. a menu or the game itself.">
<polygon fill="white" stroke="#666666" points="112,-19 71,-19 71,0 112,0 112,-19"/>
<text text-anchor="middle" x="91.5" y="-7" font-family="ui-monospace,monospace" font-size="10.00">Work</text>
</a>
</g>
</g>
<!-- Node0&#45;&gt;Node1 -->
<g id="edge1" class="edge">
<title>Node0&#45;&gt;Node1</title>
<path fill="none" stroke="#63b8ff" d="M45.36,-9.5C53.81,-9.5 62.97,-9.5 70.83,-9.5"/>
<polygon fill="#63b8ff" stroke="#63b8ff" points="45.2,-6 35.2,-9.5 45.2,-13 45.2,-6"/>
</g>
<!-- Node2 -->
<g id="node3" class="node">
<title>Node2</title>
<g id="a_node3"><a xlink:href="classjngl_1_1WorkFactory.html" target="_top" xlink:title=" ">
<polygon fill="white" stroke="#666666" points="231,-19 148,-19 148,0 231,0 231,-19"/>
<text text-anchor="middle" x="189.5" y="-7" font-family="ui-monospace,monospace" font-size="10.00">WorkFactory</text>
</a>
</g>
</g>
<!-- Node1&#45;&gt;Node2 -->
<g id="edge2" class="edge">
<title>Node1&#45;&gt;Node2</title>
<path fill="none" stroke="#63b8ff" d="M122.64,-9.5C130.57,-9.5 139.26,-9.5 147.65,-9.5"/>
<polygon fill="#63b8ff" stroke="#63b8ff" points="122.39,-6 112.39,-9.5 122.39,-13 122.39,-6"/>
</g>
</g>
</svg>
