<?xml version="1.0" encoding="UTF-8" standalone="no"?>
<!DOCTYPE svg PUBLIC "-//W3C//DTD SVG 1.1//EN"
 "http://www.w3.org/Graphics/SVG/1.1/DTD/svg11.dtd">
<!-- Generated by graphviz version 5.0.0 (0)
 -->
<!-- Title: Graphical Class Hierarchy Pages: 1 -->
<svg width="156pt" height="64pt"
 viewBox="0.00 0.00 156.00 64.00" xmlns="http://www.w3.org/2000/svg" xmlns:xlink="http://www.w3.org/1999/xlink">
<g id="graph0" class="graph" transform="scale(1 1) rotate(0) translate(4 60)">
<title>Graphical Class Hierarchy</title>
<!-- Node0 -->
<g id="node1" class="node">
<title>Node0</title>
<g id="a_node1"><a xlink:href="classjngl_1_1Effect.html" target="_top" xlink:title=" ">
<polygon fill="white" stroke="#666666" points="47,-37 0,-37 0,-18 47,-18 47,-37"/>
<text text-anchor="middle" x="23.5" y="-25" font-family="ui-monospace,monospace" font-size="10.00">Effect</text>
</a>
</g>
</g>
<!-- Node1 -->
<g id="node2" class="node">
<title>Node1</title>
<g id="a_node2"><a xlink:href="classjngl_1_1Executor.html" target="_top" xlink:title=" ">
<polygon fill="white" stroke="#666666" points="148,-56 83,-56 83,-37 148,-37 148,-56"/>
<text text-anchor="middle" x="115.5" y="-44" font-family="ui-monospace,monospace" font-size="10.00">Executor</text>
</a>
</g>
</g>
<!-- Node0&#45;&gt;Node1 -->
<g id="edge1" class="edge">
<title>Node0&#45;&gt;Node1</title>
<path fill="none" stroke="#63b8ff" d="M57.09,-34.38C65.52,-36.16 74.58,-38.07 82.96,-39.84"/>
<polygon fill="#63b8ff" stroke="#63b8ff" points="57.72,-30.94 47.21,-32.29 56.27,-37.78 57.72,-30.94"/>
</g>
<!-- Node2 -->
<g id="node3" class="node">
<title>Node2</title>
<g id="a_node3"><a xlink:href="classjngl_1_1Zoom.html" target="_top" xlink:title=" ">
<polygon fill="white" stroke="#666666" points="136,-19 95,-19 95,0 136,0 136,-19"/>
<text text-anchor="middle" x="115.5" y="-7" font-family="ui-monospace,monospace" font-size="10.00">Zoom</text>
</a>
</g>
</g>
<!-- Node0&#45;&gt;Node2 -->
<g id="edge2" class="edge">
<title>Node0&#45;&gt;Node2</title>
<path fill="none" stroke="#63b8ff" d="M57.36,-20.93C69.94,-18.41 83.89,-15.62 94.85,-13.43"/>
<polygon fill="#63b8ff" stroke="#63b8ff" points="56.33,-17.56 47.21,-22.96 57.7,-24.43 56.33,-17.56"/>
</g>
</g>
</svg>
