<?xml version="1.0" encoding="UTF-8" standalone="no"?>
<!DOCTYPE svg PUBLIC "-//W3C//DTD SVG 1.1//EN"
 "http://www.w3.org/Graphics/SVG/1.1/DTD/svg11.dtd">
<!-- Generated by graphviz version 12.1.0 (20240811.2233)
 -->
<!-- Title: Graphical Class Hierarchy Pages: 1 -->
<svg width="320pt" height="119pt"
 viewBox="0.00 0.00 320.00 119.25" xmlns="http://www.w3.org/2000/svg" xmlns:xlink="http://www.w3.org/1999/xlink">
<g id="graph0" class="graph" transform="scale(1 1) rotate(0) translate(4 115.25)">
<title>Graphical Class Hierarchy</title>
<!-- Node0 -->
<g id="Node000000" class="node">
<title>Node0</title>
<g id="a_Node000000"><a xlink:href="classjngl_1_1Job.html" target="_top" xlink:title="Background job which stays part of the main loop independent of the active jngl::Scene.">
<polygon fill="white" stroke="#666666" points="34,-74.25 0,-74.25 0,-55 34,-55 34,-74.25"/>
<text text-anchor="middle" x="17" y="-60.75" font-family="ui-monospace,monospace" font-size="10.00">Job</text>
</a>
</g>
</g>
<!-- Node1 -->
<g id="Node000001" class="node">
<title>Node1</title>
<g id="a_Node000001"><a xlink:href="classjngl_1_1VideoRecorder.html" target="_top" xlink:title="Records video and audio output to a file.">
<polygon fill="white" stroke="#666666" points="179,-111.25 85,-111.25 85,-92 179,-92 179,-111.25"/>
<text text-anchor="middle" x="132" y="-97.75" font-family="ui-monospace,monospace" font-size="10.00">VideoRecorder</text>
</a>
</g>
</g>
<!-- Node0&#45;&gt;Node1 -->
<g id="edge7_Node000000_Node000001" class="edge">
<title>Node0&#45;&gt;Node1</title>
<g id="a_edge7_Node000000_Node000001"><a xlink:title=" ">
<path fill="none" stroke="#63b8ff" d="M44.95,-74.84C52.97,-77.78 61.81,-80.92 70,-83.62 78.18,-86.32 87.04,-89.05 95.4,-91.53"/>
<polygon fill="#63b8ff" stroke="#63b8ff" points="46.31,-71.61 35.72,-71.41 43.87,-78.17 46.31,-71.61"/>
</a>
</g>
</g>
<!-- Node2 -->
<g id="Node000002" class="node">
<title>Node2</title>
<g id="a_Node000002"><a xlink:href="classjngl_1_1VirtualMouseCursor.html" target="_top" xlink:title=" ">
<polygon fill="white" stroke="#666666" points="194,-74.25 70,-74.25 70,-55 194,-55 194,-74.25"/>
<text text-anchor="middle" x="132" y="-60.75" font-family="ui-monospace,monospace" font-size="10.00">VirtualMouseCursor</text>
</a>
</g>
</g>
<!-- Node0&#45;&gt;Node2 -->
<g id="edge8_Node000000_Node000002" class="edge">
<title>Node0&#45;&gt;Node2</title>
<g id="a_edge8_Node000000_Node000002"><a xlink:title=" ">
<path fill="none" stroke="#63b8ff" d="M45.64,-64.62C53.02,-64.62 61.31,-64.62 69.73,-64.62"/>
<polygon fill="#63b8ff" stroke="#63b8ff" points="45.7,-61.13 35.7,-64.63 45.7,-68.13 45.7,-61.13"/>
</a>
</g>
</g>
<!-- Node3 -->
<g id="Node000003" class="node">
<title>Node3</title>
<g id="a_Node000003"><a xlink:href="classjngl_1_1Work.html" target="_top" xlink:title="Active state of the game, e.g. a menu or the game itself.">
<polygon fill="white" stroke="#666666" points="152,-37.25 112,-37.25 112,-18 152,-18 152,-37.25"/>
<text text-anchor="middle" x="132" y="-23.75" font-family="ui-monospace,monospace" font-size="10.00">Work</text>
</a>
</g>
</g>
<!-- Node0&#45;&gt;Node3 -->
<g id="edge9_Node000000_Node000003" class="edge">
<title>Node0&#45;&gt;Node3</title>
<g id="a_edge9_Node000000_Node000003"><a xlink:title=" ">
<path fill="none" stroke="#63b8ff" d="M44.95,-54.41C52.97,-51.47 61.81,-48.33 70,-45.62 83.84,-41.06 99.63,-36.42 111.67,-32.99"/>
<polygon fill="#63b8ff" stroke="#63b8ff" points="43.87,-51.08 35.72,-57.84 46.31,-57.64 43.87,-51.08"/>
</a>
</g>
</g>
<!-- Node4 -->
<g id="Node000004" class="node">
<title>Node4</title>
<g id="a_Node000004"><a xlink:href="classjngl_1_1Fade.html" target="_top" xlink:title="Fades between two scenes, first fading to jngl::getBackgroundColor() and then fading to the new scene...">
<polygon fill="white" stroke="#666666" points="291,-56.25 251,-56.25 251,-37 291,-37 291,-56.25"/>
<text text-anchor="middle" x="271" y="-42.75" font-family="ui-monospace,monospace" font-size="10.00">Fade</text>
</a>
</g>
</g>
<!-- Node3&#45;&gt;Node4 -->
<g id="edge10_Node000003_Node000004" class="edge">
<title>Node3&#45;&gt;Node4</title>
<g id="a_edge10_Node000003_Node000004"><a xlink:title=" ">
<path fill="none" stroke="#63b8ff" d="M163.71,-31.88C190.38,-35.58 228.16,-40.82 250.76,-43.96"/>
<polygon fill="#63b8ff" stroke="#63b8ff" points="164.22,-28.42 153.84,-30.51 163.26,-35.36 164.22,-28.42"/>
</a>
</g>
</g>
<!-- Node5 -->
<g id="Node000005" class="node">
<title>Node5</title>
<g id="a_Node000005"><a xlink:href="classjngl_1_1WorkFactory.html" target="_top" xlink:title=" ">
<polygon fill="white" stroke="#666666" points="312,-19.25 230,-19.25 230,0 312,0 312,-19.25"/>
<text text-anchor="middle" x="271" y="-5.75" font-family="ui-monospace,monospace" font-size="10.00">WorkFactory</text>
</a>
</g>
</g>
<!-- Node3&#45;&gt;Node5 -->
<g id="edge11_Node000003_Node000005" class="edge">
<title>Node3&#45;&gt;Node5</title>
<g id="a_edge11_Node000003_Node000005"><a xlink:title=" ">
<path fill="none" stroke="#63b8ff" d="M163.6,-23.6C183.07,-21.05 208.5,-17.71 229.62,-14.93"/>
<polygon fill="#63b8ff" stroke="#63b8ff" points="163.3,-20.11 153.84,-24.89 164.21,-27.05 163.3,-20.11"/>
</a>
</g>
</g>
</g>
</svg>
