<?xml version="1.0" encoding="UTF-8" standalone="no"?>
<!DOCTYPE svg PUBLIC "-//W3C//DTD SVG 1.1//EN"
 "http://www.w3.org/Graphics/SVG/1.1/DTD/svg11.dtd">
<!-- Generated by graphviz version 9.0.0 (20230911.1827)
 -->
<!-- Title: Graphical Class Hierarchy Pages: 1 -->
<svg width="154pt" height="101pt"
 viewBox="0.00 0.00 154.00 101.25" xmlns="http://www.w3.org/2000/svg" xmlns:xlink="http://www.w3.org/1999/xlink">
<g id="graph0" class="graph" transform="scale(1 1) rotate(0) translate(4 97.25)">
<title>Graphical Class Hierarchy</title>
<!-- Node0 -->
<g id="Node000000" class="node">
<title>Node0</title>
<g id="a_Node000000"><a xlink:href="classjngl_1_1Effect.html" target="_top" xlink:title="Base class for effects that can be applied to jngl::Widget.">
<polygon fill="white" stroke="#666666" points="46,-56.25 0,-56.25 0,-37 46,-37 46,-56.25"/>
<text text-anchor="middle" x="23" y="-42.75" font-family="ui-monospace,monospace" font-size="10.00">Effect</text>
</a>
</g>
</g>
<!-- Node1 -->
<g id="Node000001" class="node">
<title>Node1</title>
<g id="a_Node000001"><a xlink:href="classjngl_1_1Executor.html" target="_top" xlink:title="Executes a specific action, e.g. removes the Widget.">
<polygon fill="white" stroke="#666666" points="146,-93.25 82,-93.25 82,-74 146,-74 146,-93.25"/>
<text text-anchor="middle" x="114" y="-79.75" font-family="ui-monospace,monospace" font-size="10.00">Executor</text>
</a>
</g>
</g>
<!-- Node0&#45;&gt;Node1 -->
<g id="edge3_Node000000_Node000001" class="edge">
<title>Node0&#45;&gt;Node1</title>
<g id="a_edge3_Node000000_Node000001"><a xlink:title=" ">
<path fill="none" stroke="#63b8ff" d="M56.96,-60.33C67.47,-64.7 78.9,-69.45 88.67,-73.51"/>
<polygon fill="#63b8ff" stroke="#63b8ff" points="58.43,-57.15 47.86,-56.54 55.75,-63.61 58.43,-57.15"/>
</a>
</g>
</g>
<!-- Node2 -->
<g id="Node000002" class="node">
<title>Node2</title>
<g id="a_Node000002"><a xlink:href="classjngl_1_1Move.html" target="_top" xlink:title=" ">
<polygon fill="white" stroke="#666666" points="134,-56.25 94,-56.25 94,-37 134,-37 134,-56.25"/>
<text text-anchor="middle" x="114" y="-42.75" font-family="ui-monospace,monospace" font-size="10.00">Move</text>
</a>
</g>
</g>
<!-- Node0&#45;&gt;Node2 -->
<g id="edge4_Node000000_Node000002" class="edge">
<title>Node0&#45;&gt;Node2</title>
<g id="a_edge4_Node000000_Node000002"><a xlink:title=" ">
<path fill="none" stroke="#63b8ff" d="M57.62,-46.62C69.76,-46.62 83.05,-46.62 93.57,-46.62"/>
<polygon fill="#63b8ff" stroke="#63b8ff" points="57.97,-43.13 47.97,-46.63 57.97,-50.13 57.97,-43.13"/>
</a>
</g>
</g>
<!-- Node3 -->
<g id="Node000003" class="node">
<title>Node3</title>
<g id="a_Node000003"><a xlink:href="classjngl_1_1Zoom.html" target="_top" xlink:title="Scales the ModelView matrix.">
<polygon fill="white" stroke="#666666" points="134,-19.25 94,-19.25 94,0 134,0 134,-19.25"/>
<text text-anchor="middle" x="114" y="-5.75" font-family="ui-monospace,monospace" font-size="10.00">Zoom</text>
</a>
</g>
</g>
<!-- Node0&#45;&gt;Node3 -->
<g id="edge5_Node000000_Node000003" class="edge">
<title>Node0&#45;&gt;Node3</title>
<g id="a_edge5_Node000000_Node000003"><a xlink:title=" ">
<path fill="none" stroke="#63b8ff" d="M56.87,-32.96C69.21,-27.83 82.84,-22.17 93.57,-17.7"/>
<polygon fill="#63b8ff" stroke="#63b8ff" points="55.75,-29.64 47.86,-36.71 58.43,-36.1 55.75,-29.64"/>
</a>
</g>
</g>
</g>
</svg>
