<?xml version="1.0" encoding="UTF-8" standalone="no"?>
<!DOCTYPE svg PUBLIC "-//W3C//DTD SVG 1.1//EN"
 "http://www.w3.org/Graphics/SVG/1.1/DTD/svg11.dtd">
<!-- Generated by graphviz version 2.42.4 (0)
 -->
<!-- Title: Graphical Class Hierarchy Pages: 1 -->
<svg width="162pt" height="66pt"
 viewBox="0.00 0.00 162.00 66.00" xmlns="http://www.w3.org/2000/svg" xmlns:xlink="http://www.w3.org/1999/xlink">
<g id="graph0" class="graph" transform="scale(1 1) rotate(0) translate(4 62)">
<title>Graphical Class Hierarchy</title>
<polygon fill="white" stroke="transparent" points="-4,4 -4,-62 158,-62 158,4 -4,4"/>
<!-- Node0 -->
<g id="node1" class="node">
<title>Node0</title>
<g id="a_node1"><a xlink:href="classjngl_1_1Drawable.html" target="_top" xlink:title="Base class for drawable objects with a position and a rectangle size.">
<polygon fill="white" stroke="black" points="0,-19.5 0,-38.5 65,-38.5 65,-19.5 0,-19.5"/>
<text text-anchor="middle" x="32.5" y="-26.5" font-family="'Consolas',monospace" font-size="10.00">Drawable</text>
</a>
</g>
</g>
<!-- Node1 -->
<g id="node2" class="node">
<title>Node1</title>
<g id="a_node2"><a xlink:href="classjngl_1_1Sprite.html" target="_top" xlink:title="Higher&#45;level representation of an image.">
<polygon fill="white" stroke="black" points="101,-38.5 101,-57.5 154,-57.5 154,-38.5 101,-38.5"/>
<text text-anchor="middle" x="127.5" y="-45.5" font-family="'Consolas',monospace" font-size="10.00">Sprite</text>
</a>
</g>
</g>
<!-- Node0&#45;&gt;Node1 -->
<g id="edge1" class="edge">
<title>Node0&#45;&gt;Node1</title>
<path fill="none" stroke="midnightblue" d="M75.26,-37.53C83.94,-39.31 92.85,-41.13 100.75,-42.74"/>
<polygon fill="midnightblue" stroke="midnightblue" points="75.74,-34.06 65.25,-35.49 74.34,-40.92 75.74,-34.06"/>
</g>
<!-- Node2 -->
<g id="node3" class="node">
<title>Node2</title>
<g id="a_node3"><a xlink:href="classjngl_1_1Text.html" target="_top" xlink:title="Rectangle shaped text block.">
<polygon fill="white" stroke="black" points="107,-0.5 107,-19.5 148,-19.5 148,-0.5 107,-0.5"/>
<text text-anchor="middle" x="127.5" y="-7.5" font-family="'Consolas',monospace" font-size="10.00">Text</text>
</a>
</g>
</g>
<!-- Node0&#45;&gt;Node2 -->
<g id="edge2" class="edge">
<title>Node0&#45;&gt;Node2</title>
<path fill="none" stroke="midnightblue" d="M75.18,-20.48C86.2,-18.23 97.58,-15.91 106.81,-14.02"/>
<polygon fill="midnightblue" stroke="midnightblue" points="74.34,-17.08 65.25,-22.51 75.74,-23.94 74.34,-17.08"/>
</g>
</g>
</svg>
