<?xml version="1.0" encoding="UTF-8" standalone="no"?>
<!DOCTYPE svg PUBLIC "-//W3C//DTD SVG 1.1//EN"
 "http://www.w3.org/Graphics/SVG/1.1/DTD/svg11.dtd">
<!-- Generated by graphviz version 9.0.0 (20230911.1827)
 -->
<!-- Title: Graphical Class Hierarchy Pages: 1 -->
<svg width="160pt" height="64pt"
 viewBox="0.00 0.00 160.00 64.25" xmlns="http://www.w3.org/2000/svg" xmlns:xlink="http://www.w3.org/1999/xlink">
<g id="graph0" class="graph" transform="scale(1 1) rotate(0) translate(4 60.25)">
<title>Graphical Class Hierarchy</title>
<!-- Node0 -->
<g id="Node000000" class="node">
<title>Node0</title>
<g id="a_Node000000"><a xlink:href="classjngl_1_1Drawable.html" target="_top" xlink:title="Base class for drawable objects with a position and a rectangle size.">
<polygon fill="white" stroke="#666666" points="64,-37.25 0,-37.25 0,-18 64,-18 64,-37.25"/>
<text text-anchor="middle" x="32" y="-23.75" font-family="ui-monospace,monospace" font-size="10.00">Drawable</text>
</a>
</g>
</g>
<!-- Node1 -->
<g id="Node000001" class="node">
<title>Node1</title>
<g id="a_Node000001"><a xlink:href="classjngl_1_1Sprite.html" target="_top" xlink:title="Higher&#45;level representation of an image.">
<polygon fill="white" stroke="#666666" points="152,-56.25 100,-56.25 100,-37 152,-37 152,-56.25"/>
<text text-anchor="middle" x="126" y="-42.75" font-family="ui-monospace,monospace" font-size="10.00">Sprite</text>
</a>
</g>
</g>
<!-- Node0&#45;&gt;Node1 -->
<g id="edge1_Node000000_Node000001" class="edge">
<title>Node0&#45;&gt;Node1</title>
<g id="a_edge1_Node000000_Node000001"><a xlink:title=" ">
<path fill="none" stroke="#63b8ff" d="M75.43,-36.39C83.67,-38.09 92.05,-39.82 99.53,-41.36"/>
<polygon fill="#63b8ff" stroke="#63b8ff" points="76.39,-33.01 65.89,-34.42 74.97,-39.87 76.39,-33.01"/>
</a>
</g>
</g>
<!-- Node2 -->
<g id="Node000002" class="node">
<title>Node2</title>
<g id="a_Node000002"><a xlink:href="classjngl_1_1Text.html" target="_top" xlink:title="Rectangle shaped text block.">
<polygon fill="white" stroke="#666666" points="146,-19.25 106,-19.25 106,0 146,0 146,-19.25"/>
<text text-anchor="middle" x="126" y="-5.75" font-family="ui-monospace,monospace" font-size="10.00">Text</text>
</a>
</g>
</g>
<!-- Node0&#45;&gt;Node2 -->
<g id="edge2_Node000000_Node000002" class="edge">
<title>Node0&#45;&gt;Node2</title>
<g id="a_edge2_Node000000_Node000002"><a xlink:title=" ">
<path fill="none" stroke="#63b8ff" d="M75.57,-19.3C86.05,-17.25 96.76,-15.15 105.52,-13.44"/>
<polygon fill="#63b8ff" stroke="#63b8ff" points="75.03,-15.84 65.89,-21.19 76.38,-22.7 75.03,-15.84"/>
</a>
</g>
</g>
</g>
</svg>
