<?xml version="1.0" encoding="UTF-8" standalone="no"?>
<!DOCTYPE svg PUBLIC "-//W3C//DTD SVG 1.1//EN"
 "http://www.w3.org/Graphics/SVG/1.1/DTD/svg11.dtd">
<!-- Generated by graphviz version 2.40.1 (20161225.0304)
 -->
<!-- Title: Graphical Class Hierarchy Pages: 1 -->
<svg width="162pt" height="66pt"
 viewBox="0.00 0.00 162.00 66.00" xmlns="http://www.w3.org/2000/svg" xmlns:xlink="http://www.w3.org/1999/xlink">
<g id="graph0" class="graph" transform="scale(1 1) rotate(0) translate(4 62)">
<title>Graphical Class Hierarchy</title>
<polygon fill="#ffffff" stroke="transparent" points="-4,4 -4,-62 158,-62 158,4 -4,4"/>
<!-- Node0 -->
<g id="node1" class="node">
<title>Node0</title>
<g id="a_node1"><a xlink:href="classjngl_1_1Drawable.html" target="_top" xlink:title="Base class for drawable objects with a position and a rectangle size. ">
<polygon fill="#ffffff" stroke="#000000" points="0,-19.5 0,-38.5 65,-38.5 65,-19.5 0,-19.5"/>
<text text-anchor="middle" x="32.5" y="-26.5" font-family="'Consolas',monospace" font-size="10.00" fill="#000000">Drawable</text>
</a>
</g>
</g>
<!-- Node1 -->
<g id="node2" class="node">
<title>Node1</title>
<g id="a_node2"><a xlink:href="classjngl_1_1Sprite.html" target="_top" xlink:title="Higher&#45;level representation of an image. ">
<polygon fill="#ffffff" stroke="#000000" points="101,-38.5 101,-57.5 154,-57.5 154,-38.5 101,-38.5"/>
<text text-anchor="middle" x="127.5" y="-45.5" font-family="'Consolas',monospace" font-size="10.00" fill="#000000">Sprite</text>
</a>
</g>
</g>
<!-- Node0&#45;&gt;Node1 -->
<g id="edge1" class="edge">
<title>Node0&#45;&gt;Node1</title>
<path fill="none" stroke="#191970" d="M75.2152,-37.543C83.8963,-39.2793 92.7929,-41.0586 100.729,-42.6458"/>
<polygon fill="#191970" stroke="#191970" points="75.6859,-34.0679 65.1936,-35.5387 74.313,-40.932 75.6859,-34.0679"/>
</g>
<!-- Node2 -->
<g id="node3" class="node">
<title>Node2</title>
<g id="a_node3"><a xlink:href="classjngl_1_1Text.html" target="_top" xlink:title="Rectangle shaped text block. ">
<polygon fill="#ffffff" stroke="#000000" points="107,-.5 107,-19.5 148,-19.5 148,-.5 107,-.5"/>
<text text-anchor="middle" x="127.5" y="-7.5" font-family="'Consolas',monospace" font-size="10.00" fill="#000000">Text</text>
</a>
</g>
</g>
<!-- Node0&#45;&gt;Node2 -->
<g id="edge2" class="edge">
<title>Node0&#45;&gt;Node2</title>
<path fill="none" stroke="#191970" d="M75.168,-20.4664C86.2124,-18.2575 97.6089,-15.9782 106.9358,-14.1128"/>
<polygon fill="#191970" stroke="#191970" points="74.313,-17.068 65.1936,-22.4613 75.6859,-23.9321 74.313,-17.068"/>
</g>
</g>
</svg>
