<?xml version="1.0" encoding="UTF-8" standalone="no"?>
<!DOCTYPE svg PUBLIC "-//W3C//DTD SVG 1.1//EN"
 "http://www.w3.org/Graphics/SVG/1.1/DTD/svg11.dtd">
<!-- Generated by graphviz version 5.0.0 (0)
 -->
<!-- Title: Graphical Class Hierarchy Pages: 1 -->
<svg width="156pt" height="101pt"
 viewBox="0.00 0.00 156.00 101.00" xmlns="http://www.w3.org/2000/svg" xmlns:xlink="http://www.w3.org/1999/xlink">
<g id="graph0" class="graph" transform="scale(1 1) rotate(0) translate(4 97)">
<title>Graphical Class Hierarchy</title>
<!-- Node0 -->
<g id="node1" class="node">
<title>Node0</title>
<g id="a_node1"><a xlink:href="classjngl_1_1Effect.html" target="_top" xlink:title="Base class for effects that can be applied to jngl::Widget.">
<polygon fill="white" stroke="#666666" points="47,-56 0,-56 0,-37 47,-37 47,-56"/>
<text text-anchor="middle" x="23.5" y="-44" font-family="ui-monospace,monospace" font-size="10.00">Effect</text>
</a>
</g>
</g>
<!-- Node1 -->
<g id="node2" class="node">
<title>Node1</title>
<g id="a_node2"><a xlink:href="classjngl_1_1Executor.html" target="_top" xlink:title="Executes a specific action, e.g. removes the Widget.">
<polygon fill="white" stroke="#666666" points="148,-93 83,-93 83,-74 148,-74 148,-93"/>
<text text-anchor="middle" x="115.5" y="-81" font-family="ui-monospace,monospace" font-size="10.00">Executor</text>
</a>
</g>
</g>
<!-- Node0&#45;&gt;Node1 -->
<g id="edge1" class="edge">
<title>Node0&#45;&gt;Node1</title>
<path fill="none" stroke="#63b8ff" d="M56.46,-59.64C67.91,-64.35 80.59,-69.56 91.17,-73.91"/>
<polygon fill="#63b8ff" stroke="#63b8ff" points="57.79,-56.4 47.21,-55.84 55.13,-62.88 57.79,-56.4"/>
</g>
<!-- Node2 -->
<g id="node3" class="node">
<title>Node2</title>
<g id="a_node3"><a xlink:href="classjngl_1_1Move.html" target="_top" xlink:title=" ">
<polygon fill="white" stroke="#666666" points="136,-56 95,-56 95,-37 136,-37 136,-56"/>
<text text-anchor="middle" x="115.5" y="-44" font-family="ui-monospace,monospace" font-size="10.00">Move</text>
</a>
</g>
</g>
<!-- Node0&#45;&gt;Node2 -->
<g id="edge2" class="edge">
<title>Node0&#45;&gt;Node2</title>
<path fill="none" stroke="#63b8ff" d="M57.36,-46.5C69.94,-46.5 83.89,-46.5 94.85,-46.5"/>
<polygon fill="#63b8ff" stroke="#63b8ff" points="57.21,-43 47.21,-46.5 57.21,-50 57.21,-43"/>
</g>
<!-- Node3 -->
<g id="node4" class="node">
<title>Node3</title>
<g id="a_node4"><a xlink:href="classjngl_1_1Zoom.html" target="_top" xlink:title="Scales the ModelView matrix.">
<polygon fill="white" stroke="#666666" points="136,-19 95,-19 95,0 136,0 136,-19"/>
<text text-anchor="middle" x="115.5" y="-7" font-family="ui-monospace,monospace" font-size="10.00">Zoom</text>
</a>
</g>
</g>
<!-- Node0&#45;&gt;Node3 -->
<g id="edge3" class="edge">
<title>Node0&#45;&gt;Node3</title>
<path fill="none" stroke="#63b8ff" d="M56.61,-33.3C69.38,-28.05 83.67,-22.18 94.85,-17.58"/>
<polygon fill="#63b8ff" stroke="#63b8ff" points="55.13,-30.12 47.21,-37.16 57.79,-36.6 55.13,-30.12"/>
</g>
</g>
</svg>
