<?xml version="1.0" encoding="UTF-8" standalone="no"?>
<!DOCTYPE svg PUBLIC "-//W3C//DTD SVG 1.1//EN"
 "http://www.w3.org/Graphics/SVG/1.1/DTD/svg11.dtd">
<!-- Generated by graphviz version 2.40.1 (0)
 -->
<!-- Title: Graphical Class Hierarchy Pages: 1 -->
<svg width="139pt" height="68pt"
 viewBox="0.00 0.00 138.75 68.00" xmlns="http://www.w3.org/2000/svg" xmlns:xlink="http://www.w3.org/1999/xlink">
<g id="graph0" class="graph" transform="scale(1 1) rotate(0) translate(4 64)">
<title>Graphical Class Hierarchy</title>
<polygon fill="#ffffff" stroke="transparent" points="-4,4 -4,-64 134.748,-64 134.748,4 -4,4"/>
<!-- Node0 -->
<g id="node1" class="node">
<title>Node0</title>
<g id="a_node1"><a xlink:href="classjngl_1_1Drawable.html" target="_top" xlink:title="Drawable">
<polygon fill="#ffffff" stroke="#000000" points="0,-19.5 0,-39.5 54.863,-39.5 54.863,-19.5 0,-19.5"/>
<text text-anchor="middle" x="27.4315" y="-26.5" font-family="Lato" font-size="10.00" fill="#000000">Drawable</text>
</a>
</g>
</g>
<!-- Node1 -->
<g id="node2" class="node">
<title>Node1</title>
<g id="a_node2"><a xlink:href="classjngl_1_1Sprite.html" target="_top" xlink:title="Sprite">
<polygon fill="#ffffff" stroke="#000000" points="90.863,-39.5 90.863,-59.5 130.748,-59.5 130.748,-39.5 90.863,-39.5"/>
<text text-anchor="middle" x="110.8055" y="-46.5" font-family="Lato" font-size="10.00" fill="#000000">Sprite</text>
</a>
</g>
</g>
<!-- Node0&#45;&gt;Node1 -->
<g id="edge1" class="edge">
<title>Node0&#45;&gt;Node1</title>
<path fill="none" stroke="#191970" d="M65.0337,-38.5201C73.9203,-40.6519 83.0569,-42.8436 90.8072,-44.7027"/>
<polygon fill="#191970" stroke="#191970" points="65.7344,-35.089 55.1938,-36.1597 64.1015,-41.8959 65.7344,-35.089"/>
</g>
<!-- Node2 -->
<g id="node3" class="node">
<title>Node2</title>
<g id="a_node3"><a xlink:href="classjngl_1_1Text.html" target="_top" xlink:title="Text">
<polygon fill="#ffffff" stroke="#000000" points="93.642,-.5 93.642,-20.5 127.969,-20.5 127.969,-.5 93.642,-.5"/>
<text text-anchor="middle" x="110.8055" y="-7.5" font-family="Lato" font-size="10.00" fill="#000000">Text</text>
</a>
</g>
</g>
<!-- Node0&#45;&gt;Node2 -->
<g id="edge2" class="edge">
<title>Node0&#45;&gt;Node2</title>
<path fill="none" stroke="#191970" d="M64.994,-20.9399C74.9868,-18.6627 85.2989,-16.3127 93.603,-14.4202"/>
<polygon fill="#191970" stroke="#191970" points="64.1662,-17.5388 55.1938,-23.1733 65.7216,-24.3638 64.1662,-17.5388"/>
</g>
</g>
</svg>
