<?xml version="1.0" encoding="UTF-8" standalone="no"?>
<!DOCTYPE svg PUBLIC "-//W3C//DTD SVG 1.1//EN"
 "http://www.w3.org/Graphics/SVG/1.1/DTD/svg11.dtd">
<!-- Generated by graphviz version 2.36.0 (20140111.2315)
 -->
<!-- Title: Graphical Class Hierarchy Pages: 1 -->
<svg width="152pt" height="66pt"
 viewBox="0.00 0.00 152.00 66.00" xmlns="http://www.w3.org/2000/svg" xmlns:xlink="http://www.w3.org/1999/xlink">
<g id="graph0" class="graph" transform="scale(1 1) rotate(0) translate(4 62)">
<title>Graphical Class Hierarchy</title>
<polygon fill="white" stroke="none" points="-4,4 -4,-62 148,-62 148,4 -4,4"/>
<!-- Node1 -->
<g id="node1" class="node"><title>Node1</title>
<g id="a_node1"><a xlink:href="classjngl_1_1Drawable.html" target="_top" xlink:title="Drawable">
<polygon fill="white" stroke="black" points="0.5,-19.5 0.5,-38.5 61.5,-38.5 61.5,-19.5 0.5,-19.5"/>
<text text-anchor="middle" x="31" y="-26.5" font-family="Lato" font-size="10.00">Drawable</text>
</a>
</g>
</g>
<!-- Node2 -->
<g id="node2" class="node"><title>Node2</title>
<g id="a_node2"><a xlink:href="classjngl_1_1Sprite.html" target="_top" xlink:title="Sprite">
<polygon fill="white" stroke="black" points="98.5,-38.5 98.5,-57.5 143.5,-57.5 143.5,-38.5 98.5,-38.5"/>
<text text-anchor="middle" x="121" y="-45.5" font-family="Lato" font-size="10.00">Sprite</text>
</a>
</g>
</g>
<!-- Node1&#45;&gt;Node2 -->
<g id="edge1" class="edge"><title>Node1&#45;&gt;Node2</title>
<path fill="none" stroke="midnightblue" d="M71.5845,-37.5467C80.773,-39.5305 90.2209,-41.5704 98.3037,-43.3156"/>
<polygon fill="midnightblue" stroke="midnightblue" points="72.3062,-34.1219 61.7928,-35.4325 70.8289,-40.9642 72.3062,-34.1219"/>
</g>
<!-- Node3 -->
<g id="node3" class="node"><title>Node3</title>
<g id="a_node3"><a xlink:href="classjngl_1_1Text.html" target="_top" xlink:title="Text">
<polygon fill="white" stroke="black" points="103.5,-0.5 103.5,-19.5 138.5,-19.5 138.5,-0.5 103.5,-0.5"/>
<text text-anchor="middle" x="121" y="-7.5" font-family="Lato" font-size="10.00">Text</text>
</a>
</g>
</g>
<!-- Node1&#45;&gt;Node3 -->
<g id="edge2" class="edge"><title>Node1&#45;&gt;Node3</title>
<path fill="none" stroke="midnightblue" d="M71.8045,-20.4058C82.9056,-18.009 94.3661,-15.5346 103.325,-13.6003"/>
<polygon fill="midnightblue" stroke="midnightblue" points="70.8289,-17.0358 61.7928,-22.5675 72.3062,-23.8781 70.8289,-17.0358"/>
</g>
</g>
</svg>
