<?xml version="1.0" encoding="UTF-8" standalone="no"?>
<!DOCTYPE svg PUBLIC "-//W3C//DTD SVG 1.1//EN"
 "http://www.w3.org/Graphics/SVG/1.1/DTD/svg11.dtd">
<!-- Generated by graphviz version 2.43.0 (0)
 -->
<!-- Title: Graphical Class Hierarchy Pages: 1 -->
<svg width="162pt" height="66pt"
 viewBox="0.00 0.00 162.00 66.00" xmlns="http://www.w3.org/2000/svg" xmlns:xlink="http://www.w3.org/1999/xlink">
<g id="graph0" class="graph" transform="scale(1 1) rotate(0) translate(4 62)">
<title>Graphical Class Hierarchy</title>
<polygon fill="white" stroke="transparent" points="-4,4 -4,-62 158,-62 158,4 -4,4"/>
<!-- Node0 -->
<g id="node1" class="node">
<title>Node0</title>
<g id="a_node1"><a xlink:href="classjngl_1_1Effect.html" target="_top" xlink:title=" ">
<polygon fill="white" stroke="black" points="0,-19.5 0,-38.5 53,-38.5 53,-19.5 0,-19.5"/>
<text text-anchor="middle" x="26.5" y="-26.5" font-family="'Consolas',monospace" font-size="10.00">Effect</text>
</a>
</g>
</g>
<!-- Node1 -->
<g id="node2" class="node">
<title>Node1</title>
<g id="a_node2"><a xlink:href="classjngl_1_1Executor.html" target="_top" xlink:title=" ">
<polygon fill="white" stroke="black" points="89,-38.5 89,-57.5 154,-57.5 154,-38.5 89,-38.5"/>
<text text-anchor="middle" x="121.5" y="-45.5" font-family="'Consolas',monospace" font-size="10.00">Executor</text>
</a>
</g>
</g>
<!-- Node0&#45;&gt;Node1 -->
<g id="edge1" class="edge">
<title>Node0&#45;&gt;Node1</title>
<path fill="none" stroke="midnightblue" d="M63.31,-36.32C71.7,-38.03 80.58,-39.84 88.78,-41.52"/>
<polygon fill="midnightblue" stroke="midnightblue" points="63.9,-32.87 53.41,-34.29 62.5,-39.72 63.9,-32.87"/>
</g>
<!-- Node2 -->
<g id="node3" class="node">
<title>Node2</title>
<g id="a_node3"><a xlink:href="classjngl_1_1Zoom.html" target="_top" xlink:title=" ">
<polygon fill="white" stroke="black" points="101,-0.5 101,-19.5 142,-19.5 142,-0.5 101,-0.5"/>
<text text-anchor="middle" x="121.5" y="-7.5" font-family="'Consolas',monospace" font-size="10.00">Zoom</text>
</a>
</g>
</g>
<!-- Node0&#45;&gt;Node2 -->
<g id="edge2" class="edge">
<title>Node0&#45;&gt;Node2</title>
<path fill="none" stroke="midnightblue" d="M63.33,-21.68C76.11,-19.07 90.02,-16.23 100.93,-14"/>
<polygon fill="midnightblue" stroke="midnightblue" points="62.5,-18.28 53.41,-23.71 63.9,-25.13 62.5,-18.28"/>
</g>
</g>
</svg>
