<?xml version="1.0" encoding="UTF-8" standalone="no"?>
<!DOCTYPE svg PUBLIC "-//W3C//DTD SVG 1.1//EN"
 "http://www.w3.org/Graphics/SVG/1.1/DTD/svg11.dtd">
<!-- Generated by graphviz version 12.1.0 (20240811.2233)
 -->
<!-- Title: Graphical Class Hierarchy Pages: 1 -->
<svg width="290pt" height="82pt"
 viewBox="0.00 0.00 290.00 82.25" xmlns="http://www.w3.org/2000/svg" xmlns:xlink="http://www.w3.org/1999/xlink">
<g id="graph0" class="graph" transform="scale(1 1) rotate(0) translate(4 78.25)">
<title>Graphical Class Hierarchy</title>
<!-- Node0 -->
<g id="Node000000" class="node">
<title>Node0</title>
<g id="a_Node000000"><a xlink:href="classjngl_1_1Job.html" target="_top" xlink:title="Background job which stays part of the main loop independent of the active jngl::Scene.">
<polygon fill="white" stroke="#666666" points="34,-55.25 0,-55.25 0,-36 34,-36 34,-55.25"/>
<text text-anchor="middle" x="17" y="-41.75" font-family="ui-monospace,monospace" font-size="10.00">Job</text>
</a>
</g>
</g>
<!-- Node1 -->
<g id="Node000001" class="node">
<title>Node1</title>
<g id="a_Node000001"><a xlink:href="classjngl_1_1VideoRecorder.html" target="_top" xlink:title="Records video and audio output to a file.">
<polygon fill="white" stroke="#666666" points="164,-74.25 70,-74.25 70,-55 164,-55 164,-74.25"/>
<text text-anchor="middle" x="117" y="-60.75" font-family="ui-monospace,monospace" font-size="10.00">VideoRecorder</text>
</a>
</g>
</g>
<!-- Node0&#45;&gt;Node1 -->
<g id="edge7_Node000000_Node000001" class="edge">
<title>Node0&#45;&gt;Node1</title>
<g id="a_edge7_Node000000_Node000001"><a xlink:title=" ">
<path fill="none" stroke="#63b8ff" d="M45.28,-50.91C52.89,-52.39 61.37,-54.03 69.75,-55.66"/>
<polygon fill="#63b8ff" stroke="#63b8ff" points="46.15,-47.52 35.67,-49.05 44.82,-54.39 46.15,-47.52"/>
</a>
</g>
</g>
<!-- Node2 -->
<g id="Node000002" class="node">
<title>Node2</title>
<g id="a_Node000002"><a xlink:href="classjngl_1_1Work.html" target="_top" xlink:title="Active state of the game, e.g. a menu or the game itself.">
<polygon fill="white" stroke="#666666" points="137,-37.25 97,-37.25 97,-18 137,-18 137,-37.25"/>
<text text-anchor="middle" x="117" y="-23.75" font-family="ui-monospace,monospace" font-size="10.00">Work</text>
</a>
</g>
</g>
<!-- Node0&#45;&gt;Node2 -->
<g id="edge8_Node000000_Node000002" class="edge">
<title>Node0&#45;&gt;Node2</title>
<g id="a_edge8_Node000000_Node000002"><a xlink:title=" ">
<path fill="none" stroke="#63b8ff" d="M45.25,-40.62C61.62,-37.61 82.07,-33.86 96.76,-31.16"/>
<polygon fill="#63b8ff" stroke="#63b8ff" points="44.87,-37.13 35.67,-42.38 46.14,-44.02 44.87,-37.13"/>
</a>
</g>
</g>
<!-- Node3 -->
<g id="Node000003" class="node">
<title>Node3</title>
<g id="a_Node000003"><a xlink:href="classjngl_1_1Fade.html" target="_top" xlink:title="Fades between two scenes, first fading to jngl::getBackgroundColor() and then fading to the new scene...">
<polygon fill="white" stroke="#666666" points="261,-56.25 221,-56.25 221,-37 261,-37 261,-56.25"/>
<text text-anchor="middle" x="241" y="-42.75" font-family="ui-monospace,monospace" font-size="10.00">Fade</text>
</a>
</g>
</g>
<!-- Node2&#45;&gt;Node3 -->
<g id="edge9_Node000002_Node000003" class="edge">
<title>Node2&#45;&gt;Node3</title>
<g id="a_edge9_Node000002_Node000003"><a xlink:title=" ">
<path fill="none" stroke="#63b8ff" d="M148.71,-32.41C171.34,-35.93 201.43,-40.62 220.76,-43.63"/>
<polygon fill="#63b8ff" stroke="#63b8ff" points="149.25,-28.95 138.83,-30.87 148.17,-35.87 149.25,-28.95"/>
</a>
</g>
</g>
<!-- Node4 -->
<g id="Node000004" class="node">
<title>Node4</title>
<g id="a_Node000004"><a xlink:href="classjngl_1_1WorkFactory.html" target="_top" xlink:title=" ">
<polygon fill="white" stroke="#666666" points="282,-19.25 200,-19.25 200,0 282,0 282,-19.25"/>
<text text-anchor="middle" x="241" y="-5.75" font-family="ui-monospace,monospace" font-size="10.00">WorkFactory</text>
</a>
</g>
</g>
<!-- Node2&#45;&gt;Node4 -->
<g id="edge10_Node000002_Node000004" class="edge">
<title>Node2&#45;&gt;Node4</title>
<g id="a_edge10_Node000002_Node000004"><a xlink:title=" ">
<path fill="none" stroke="#63b8ff" d="M148.37,-23.14C163.84,-20.86 182.86,-18.06 199.55,-15.59"/>
<polygon fill="#63b8ff" stroke="#63b8ff" points="148.21,-19.63 138.83,-24.55 149.23,-26.55 148.21,-19.63"/>
</a>
</g>
</g>
</g>
</svg>
