<?xml version="1.0" encoding="UTF-8" standalone="no"?>
<!DOCTYPE svg PUBLIC "-//W3C//DTD SVG 1.1//EN"
 "http://www.w3.org/Graphics/SVG/1.1/DTD/svg11.dtd">
<!-- Generated by graphviz version 5.0.0 (0)
 -->
<!-- Title: Graphical Class Hierarchy Pages: 1 -->
<svg width="162pt" height="64pt"
 viewBox="0.00 0.00 162.00 64.00" xmlns="http://www.w3.org/2000/svg" xmlns:xlink="http://www.w3.org/1999/xlink">
<g id="graph0" class="graph" transform="scale(1 1) rotate(0) translate(4 60)">
<title>Graphical Class Hierarchy</title>
<!-- Node0 -->
<g id="node1" class="node">
<title>Node0</title>
<g id="a_node1"><a xlink:href="classjngl_1_1Drawable.html" target="_top" xlink:title="Base class for drawable objects with a position and a rectangle size.">
<polygon fill="white" stroke="#666666" points="65,-37 0,-37 0,-18 65,-18 65,-37"/>
<text text-anchor="middle" x="32.5" y="-25" font-family="ui-monospace,monospace" font-size="10.00">Drawable</text>
</a>
</g>
</g>
<!-- Node1 -->
<g id="node2" class="node">
<title>Node1</title>
<g id="a_node2"><a xlink:href="classjngl_1_1Sprite.html" target="_top" xlink:title="Higher&#45;level representation of an image.">
<polygon fill="white" stroke="#666666" points="154,-56 101,-56 101,-37 154,-37 154,-56"/>
<text text-anchor="middle" x="127.5" y="-44" font-family="ui-monospace,monospace" font-size="10.00">Sprite</text>
</a>
</g>
</g>
<!-- Node0&#45;&gt;Node1 -->
<g id="edge1" class="edge">
<title>Node0&#45;&gt;Node1</title>
<path fill="none" stroke="#63b8ff" d="M75.26,-36.03C83.94,-37.81 92.85,-39.63 100.75,-41.24"/>
<polygon fill="#63b8ff" stroke="#63b8ff" points="75.74,-32.56 65.25,-33.99 74.34,-39.42 75.74,-32.56"/>
</g>
<!-- Node2 -->
<g id="node3" class="node">
<title>Node2</title>
<g id="a_node3"><a xlink:href="classjngl_1_1Text.html" target="_top" xlink:title="Rectangle shaped text block.">
<polygon fill="white" stroke="#666666" points="148,-19 107,-19 107,0 148,0 148,-19"/>
<text text-anchor="middle" x="127.5" y="-7" font-family="ui-monospace,monospace" font-size="10.00">Text</text>
</a>
</g>
</g>
<!-- Node0&#45;&gt;Node2 -->
<g id="edge2" class="edge">
<title>Node0&#45;&gt;Node2</title>
<path fill="none" stroke="#63b8ff" d="M75.18,-19.43C86.2,-17.3 97.58,-15.1 106.81,-13.31"/>
<polygon fill="#63b8ff" stroke="#63b8ff" points="74.4,-16.02 65.25,-21.36 75.73,-22.89 74.4,-16.02"/>
</g>
</g>
</svg>
