<?xml version="1.0" encoding="UTF-8" standalone="no"?>
<!DOCTYPE svg PUBLIC "-//W3C//DTD SVG 1.1//EN"
 "http://www.w3.org/Graphics/SVG/1.1/DTD/svg11.dtd">
<!-- Generated by graphviz version 2.38.0 (20140413.2041)
 -->
<!-- Title: Graphical Class Hierarchy Pages: 1 -->
<svg width="150pt" height="66pt"
 viewBox="0.00 0.00 150.00 66.00" xmlns="http://www.w3.org/2000/svg" xmlns:xlink="http://www.w3.org/1999/xlink">
<g id="graph0" class="graph" transform="scale(1 1) rotate(0) translate(4 62)">
<title>Graphical Class Hierarchy</title>
<polygon fill="white" stroke="none" points="-4,4 -4,-62 146,-62 146,4 -4,4"/>
<!-- Node1 -->
<g id="node1" class="node"><title>Node1</title>
<g id="a_node1"><a xlink:href="classjngl_1_1Drawable.html" target="_top" xlink:title="Drawable">
<polygon fill="white" stroke="black" points="0,-19.5 0,-38.5 61,-38.5 61,-19.5 0,-19.5"/>
<text text-anchor="middle" x="30.5" y="-26.5" font-family="Lato" font-size="10.00">Drawable</text>
</a>
</g>
</g>
<!-- Node2 -->
<g id="node2" class="node"><title>Node2</title>
<g id="a_node2"><a xlink:href="classjngl_1_1Sprite.html" target="_top" xlink:title="Sprite">
<polygon fill="white" stroke="black" points="97,-38.5 97,-57.5 142,-57.5 142,-38.5 97,-38.5"/>
<text text-anchor="middle" x="119.5" y="-45.5" font-family="Lato" font-size="10.00">Sprite</text>
</a>
</g>
</g>
<!-- Node1&#45;&gt;Node2 -->
<g id="edge1" class="edge"><title>Node1&#45;&gt;Node2</title>
<path fill="none" stroke="midnightblue" d="M71.483,-37.7319C80.1833,-39.632 89.0725,-41.5733 96.7461,-43.2492"/>
<polygon fill="midnightblue" stroke="midnightblue" points="71.957,-34.253 61.4405,-35.5387 70.4634,-41.0918 71.957,-34.253"/>
</g>
<!-- Node3 -->
<g id="node3" class="node"><title>Node3</title>
<g id="a_node3"><a xlink:href="classjngl_1_1Text.html" target="_top" xlink:title="Text">
<polygon fill="white" stroke="black" points="102,-0.5 102,-19.5 137,-19.5 137,-0.5 102,-0.5"/>
<text text-anchor="middle" x="119.5" y="-7.5" font-family="Lato" font-size="10.00">Text</text>
</a>
</g>
</g>
<!-- Node1&#45;&gt;Node3 -->
<g id="edge2" class="edge"><title>Node1&#45;&gt;Node3</title>
<path fill="none" stroke="midnightblue" d="M71.2234,-20.3248C82.057,-17.9588 93.2055,-15.5241 101.954,-13.6136"/>
<polygon fill="midnightblue" stroke="midnightblue" points="70.4634,-16.9082 61.4405,-22.4613 71.957,-23.747 70.4634,-16.9082"/>
</g>
</g>
</svg>
