<?xml version="1.0" encoding="UTF-8" standalone="no"?>
<!DOCTYPE svg PUBLIC "-//W3C//DTD SVG 1.1//EN"
 "http://www.w3.org/Graphics/SVG/1.1/DTD/svg11.dtd">
<!-- Generated by graphviz version 2.44.0 (0)
 -->
<!-- Title: jngl/init.hpp Pages: 1 -->
<svg width="777pt" height="252pt"
 viewBox="0.00 0.00 777.00 252.00" xmlns="http://www.w3.org/2000/svg" xmlns:xlink="http://www.w3.org/1999/xlink">
<g id="graph0" class="graph" transform="scale(1 1) rotate(0) translate(4 248)">
<title>jngl/init.hpp</title>
<polygon fill="white" stroke="transparent" points="-4,4 -4,-248 773,-248 773,4 -4,4"/>
<!-- Node1 -->
<g id="node1" class="node">
<title>Node1</title>
<g id="a_node1"><a xlink:title="Include this file only once, as it defines the main function.">
<polygon fill="#bfbfbf" stroke="black" points="386,-224.5 386,-243.5 481,-243.5 481,-224.5 386,-224.5"/>
<text text-anchor="middle" x="433.5" y="-231.5" font-family="'Consolas',monospace" font-size="10.00">jngl/init.hpp</text>
</a>
</g>
</g>
<!-- Node2 -->
<g id="node2" class="node">
<title>Node2</title>
<g id="a_node2"><a xlink:href="App_8hpp.html" target="_top" xlink:title="Contains jngl::App class.">
<polygon fill="white" stroke="black" points="116,-112.5 116,-131.5 175,-131.5 175,-112.5 116,-112.5"/>
<text text-anchor="middle" x="145.5" y="-119.5" font-family="'Consolas',monospace" font-size="10.00">App.hpp</text>
</a>
</g>
</g>
<!-- Node1&#45;&gt;Node2 -->
<g id="edge1" class="edge">
<title>Node1&#45;&gt;Node2</title>
<path fill="none" stroke="midnightblue" d="M408.77,-224.48C383.29,-215.64 342.47,-201.25 307.5,-188 261.15,-170.43 207.89,-148.78 175.47,-135.43"/>
<polygon fill="midnightblue" stroke="midnightblue" points="176.69,-132.15 166.11,-131.57 174.02,-138.62 176.69,-132.15"/>
</g>
<!-- Node5 -->
<g id="node5" class="node">
<title>Node5</title>
<g id="a_node5"><a xlink:href="AppParameters_8hpp.html" target="_top" xlink:title="Contains jngl::AppParameters struct.">
<polygon fill="white" stroke="black" points="429,-168.5 429,-187.5 548,-187.5 548,-168.5 429,-168.5"/>
<text text-anchor="middle" x="488.5" y="-175.5" font-family="'Consolas',monospace" font-size="10.00">AppParameters.hpp</text>
</a>
</g>
</g>
<!-- Node1&#45;&gt;Node5 -->
<g id="edge4" class="edge">
<title>Node1&#45;&gt;Node5</title>
<path fill="none" stroke="midnightblue" d="M442.58,-224.08C450.67,-216.14 462.7,-204.34 472.41,-194.8"/>
<polygon fill="midnightblue" stroke="midnightblue" points="474.9,-197.25 479.59,-187.75 470,-192.26 474.9,-197.25"/>
</g>
<!-- Node11 -->
<g id="node11" class="node">
<title>Node11</title>
<g id="a_node11"><a xlink:href="main_8hpp.html" target="_top" xlink:title="Defines macros for the main entry point.">
<polygon fill="white" stroke="black" points="317,-168.5 317,-187.5 382,-187.5 382,-168.5 317,-168.5"/>
<text text-anchor="middle" x="349.5" y="-175.5" font-family="'Consolas',monospace" font-size="10.00">main.hpp</text>
</a>
</g>
</g>
<!-- Node1&#45;&gt;Node11 -->
<g id="edge10" class="edge">
<title>Node1&#45;&gt;Node11</title>
<path fill="none" stroke="midnightblue" d="M420,-224.32C406.9,-215.9 386.79,-202.97 371.39,-193.07"/>
<polygon fill="midnightblue" stroke="midnightblue" points="373.27,-190.12 362.96,-187.65 369.48,-196.01 373.27,-190.12"/>
</g>
<!-- Node20 -->
<g id="node20" class="node">
<title>Node20</title>
<g id="a_node20"><a xlink:href="screen_8hpp.html" target="_top" xlink:title=" ">
<polygon fill="white" stroke="black" points="566,-168.5 566,-187.5 643,-187.5 643,-168.5 566,-168.5"/>
<text text-anchor="middle" x="604.5" y="-175.5" font-family="'Consolas',monospace" font-size="10.00">screen.hpp</text>
</a>
</g>
</g>
<!-- Node1&#45;&gt;Node20 -->
<g id="edge23" class="edge">
<title>Node1&#45;&gt;Node20</title>
<path fill="none" stroke="midnightblue" d="M460.6,-224.44C489.49,-215.32 535.42,-200.81 567.61,-190.65"/>
<polygon fill="midnightblue" stroke="midnightblue" points="569.05,-193.87 577.53,-187.52 566.94,-187.19 569.05,-193.87"/>
</g>
<!-- Node21 -->
<g id="node21" class="node">
<title>Node21</title>
<g id="a_node21"><a xlink:href="work_8hpp.html" target="_top" xlink:title=" ">
<polygon fill="white" stroke="black" points="55,-168.5 55,-187.5 120,-187.5 120,-168.5 55,-168.5"/>
<text text-anchor="middle" x="87.5" y="-175.5" font-family="'Consolas',monospace" font-size="10.00">work.hpp</text>
</a>
</g>
</g>
<!-- Node1&#45;&gt;Node21 -->
<g id="edge25" class="edge">
<title>Node1&#45;&gt;Node21</title>
<path fill="none" stroke="midnightblue" d="M385.75,-225.55C318,-214.97 195.02,-195.78 130.17,-185.66"/>
<polygon fill="midnightblue" stroke="midnightblue" points="130.69,-182.2 120.27,-184.12 129.61,-189.12 130.69,-182.2"/>
</g>
<!-- Node23 -->
<g id="node23" class="node">
<title>Node23</title>
<g id="a_node23"><a target="_parent" xlink:href="http://en.cppreference.com/w/cpp/header/cmath.html" xlink:title=" ">
<polygon fill="white" stroke="black" points="661,-168.5 661,-187.5 708,-187.5 708,-168.5 661,-168.5"/>
<text text-anchor="middle" x="684.5" y="-175.5" font-family="'Consolas',monospace" font-size="10.00">cmath</text>
</a>
</g>
</g>
<!-- Node1&#45;&gt;Node23 -->
<g id="edge29" class="edge">
<title>Node1&#45;&gt;Node23</title>
<path fill="none" stroke="midnightblue" d="M479.2,-224.43C521.27,-216.35 585.64,-203.5 650.73,-188.06"/>
<polygon fill="midnightblue" stroke="midnightblue" points="651.84,-191.4 660.75,-185.67 650.21,-184.59 651.84,-191.4"/>
</g>
<!-- Node3 -->
<g id="node3" class="node">
<title>Node3</title>
<g id="a_node3"><a target="_parent" xlink:href="http://en.cppreference.com/w/cpp/header/memory.html" xlink:title=" ">
<polygon fill="white" stroke="black" points="7,-56.5 7,-75.5 60,-75.5 60,-56.5 7,-56.5"/>
<text text-anchor="middle" x="33.5" y="-63.5" font-family="'Consolas',monospace" font-size="10.00">memory</text>
</a>
</g>
</g>
<!-- Node2&#45;&gt;Node3 -->
<g id="edge2" class="edge">
<title>Node2&#45;&gt;Node3</title>
<path fill="none" stroke="midnightblue" d="M127.51,-112.32C109.46,-103.62 81.45,-90.12 60.7,-80.11"/>
<polygon fill="midnightblue" stroke="midnightblue" points="61.98,-76.84 51.45,-75.65 58.94,-83.15 61.98,-76.84"/>
</g>
<!-- Node4 -->
<g id="node4" class="node">
<title>Node4</title>
<g id="a_node4"><a target="_parent" xlink:href="http://en.cppreference.com/w/cpp/header/string.html" xlink:title=" ">
<polygon fill="white" stroke="black" points="155,-56.5 155,-75.5 208,-75.5 208,-56.5 155,-56.5"/>
<text text-anchor="middle" x="181.5" y="-63.5" font-family="'Consolas',monospace" font-size="10.00">string</text>
</a>
</g>
</g>
<!-- Node2&#45;&gt;Node4 -->
<g id="edge3" class="edge">
<title>Node2&#45;&gt;Node4</title>
<path fill="none" stroke="midnightblue" d="M151.44,-112.08C156.48,-104.53 163.84,-93.49 170.01,-84.23"/>
<polygon fill="midnightblue" stroke="midnightblue" points="173.03,-86.01 175.67,-75.75 167.21,-82.13 173.03,-86.01"/>
</g>
<!-- Node6 -->
<g id="node6" class="node">
<title>Node6</title>
<g id="a_node6"><a xlink:href="Vec2_8hpp.html" target="_top" xlink:title="Contains jngl::Vec2 class.">
<polygon fill="white" stroke="black" points="600,-112.5 600,-131.5 665,-131.5 665,-112.5 600,-112.5"/>
<text text-anchor="middle" x="632.5" y="-119.5" font-family="'Consolas',monospace" font-size="10.00">Vec2.hpp</text>
</a>
</g>
</g>
<!-- Node5&#45;&gt;Node6 -->
<g id="edge5" class="edge">
<title>Node5&#45;&gt;Node6</title>
<path fill="none" stroke="midnightblue" d="M511.32,-168.44C535.33,-159.44 573.33,-145.19 600.37,-135.05"/>
<polygon fill="midnightblue" stroke="midnightblue" points="601.66,-138.3 609.79,-131.52 599.2,-131.75 601.66,-138.3"/>
</g>
<!-- Node9 -->
<g id="node9" class="node">
<title>Node9</title>
<g id="a_node9"><a target="_parent" xlink:href="http://en.cppreference.com/w/cpp/header/functional.html" xlink:title=" ">
<polygon fill="white" stroke="black" points="457,-56.5 457,-75.5 534,-75.5 534,-56.5 457,-56.5"/>
<text text-anchor="middle" x="495.5" y="-63.5" font-family="'Consolas',monospace" font-size="10.00">functional</text>
</a>
</g>
</g>
<!-- Node5&#45;&gt;Node9 -->
<g id="edge8" class="edge">
<title>Node5&#45;&gt;Node9</title>
<path fill="none" stroke="midnightblue" d="M489.05,-168.37C490.18,-150.62 492.78,-109.67 494.32,-85.6"/>
<polygon fill="midnightblue" stroke="midnightblue" points="497.81,-85.79 494.95,-75.59 490.83,-85.35 497.81,-85.79"/>
</g>
<!-- Node10 -->
<g id="node10" class="node">
<title>Node10</title>
<g id="a_node10"><a target="_parent" xlink:href="http://en.cppreference.com/w/cpp/header/optional.html" xlink:title=" ">
<polygon fill="white" stroke="black" points="517,-112.5 517,-131.5 582,-131.5 582,-112.5 517,-112.5"/>
<text text-anchor="middle" x="549.5" y="-119.5" font-family="'Consolas',monospace" font-size="10.00">optional</text>
</a>
</g>
</g>
<!-- Node5&#45;&gt;Node10 -->
<g id="edge9" class="edge">
<title>Node5&#45;&gt;Node10</title>
<path fill="none" stroke="midnightblue" d="M498.3,-168.32C507.32,-160.34 520.91,-148.31 531.82,-138.65"/>
<polygon fill="midnightblue" stroke="midnightblue" points="534.35,-141.08 539.52,-131.83 529.71,-135.84 534.35,-141.08"/>
</g>
<!-- Node7 -->
<g id="node7" class="node">
<title>Node7</title>
<g id="a_node7"><a xlink:title=" ">
<polygon fill="white" stroke="#bfbfbf" points="650,-56.5 650,-75.5 769,-75.5 769,-56.5 650,-56.5"/>
<text text-anchor="middle" x="709.5" y="-63.5" font-family="'Consolas',monospace" font-size="10.00">boost/version.hpp</text>
</a>
</g>
</g>
<!-- Node6&#45;&gt;Node7 -->
<g id="edge6" class="edge">
<title>Node6&#45;&gt;Node7</title>
<path fill="none" stroke="midnightblue" d="M644.87,-112.32C656.66,-104.06 674.63,-91.45 688.64,-81.63"/>
<polygon fill="midnightblue" stroke="midnightblue" points="690.98,-84.26 697.16,-75.65 686.96,-78.53 690.98,-84.26"/>
</g>
<!-- Node8 -->
<g id="node8" class="node">
<title>Node8</title>
<g id="a_node8"><a target="_parent" xlink:href="http://en.cppreference.com/w/cpp/header/iosfwd.html" xlink:title=" ">
<polygon fill="white" stroke="black" points="579,-56.5 579,-75.5 632,-75.5 632,-56.5 579,-56.5"/>
<text text-anchor="middle" x="605.5" y="-63.5" font-family="'Consolas',monospace" font-size="10.00">iosfwd</text>
</a>
</g>
</g>
<!-- Node6&#45;&gt;Node8 -->
<g id="edge7" class="edge">
<title>Node6&#45;&gt;Node8</title>
<path fill="none" stroke="midnightblue" d="M628.04,-112.08C624.35,-104.69 618.98,-93.95 614.41,-84.81"/>
<polygon fill="midnightblue" stroke="midnightblue" points="617.48,-83.13 609.88,-75.75 611.22,-86.26 617.48,-83.13"/>
</g>
<!-- Node12 -->
<g id="node12" class="node">
<title>Node12</title>
<g id="a_node12"><a xlink:href="Finally_8hpp.html" target="_top" xlink:title="Contains jngl::Finally class.">
<polygon fill="white" stroke="black" points="377,-112.5 377,-131.5 460,-131.5 460,-112.5 377,-112.5"/>
<text text-anchor="middle" x="418.5" y="-119.5" font-family="'Consolas',monospace" font-size="10.00">Finally.hpp</text>
</a>
</g>
</g>
<!-- Node11&#45;&gt;Node12 -->
<g id="edge11" class="edge">
<title>Node11&#45;&gt;Node12</title>
<path fill="none" stroke="midnightblue" d="M360.59,-168.32C370.99,-160.18 386.76,-147.84 399.22,-138.09"/>
<polygon fill="midnightblue" stroke="midnightblue" points="401.49,-140.75 407.21,-131.83 397.18,-135.24 401.49,-140.75"/>
</g>
<!-- Node13 -->
<g id="node13" class="node">
<title>Node13</title>
<g id="a_node13"><a xlink:href="other_8hpp.html" target="_top" xlink:title="Miscellaneous functions.">
<polygon fill="white" stroke="black" points="193,-112.5 193,-131.5 264,-131.5 264,-112.5 193,-112.5"/>
<text text-anchor="middle" x="228.5" y="-119.5" font-family="'Consolas',monospace" font-size="10.00">other.hpp</text>
</a>
</g>
</g>
<!-- Node11&#45;&gt;Node13 -->
<g id="edge13" class="edge">
<title>Node11&#45;&gt;Node13</title>
<path fill="none" stroke="midnightblue" d="M330.33,-168.44C310.59,-159.64 279.61,-145.81 257.01,-135.72"/>
<polygon fill="midnightblue" stroke="midnightblue" points="258.14,-132.4 247.58,-131.52 255.29,-138.79 258.14,-132.4"/>
</g>
<!-- Node16 -->
<g id="node16" class="node">
<title>Node16</title>
<g id="a_node16"><a xlink:href="window_8hpp.html" target="_top" xlink:title="Functions related to the main window.">
<polygon fill="white" stroke="black" points="282,-112.5 282,-131.5 359,-131.5 359,-112.5 282,-112.5"/>
<text text-anchor="middle" x="320.5" y="-119.5" font-family="'Consolas',monospace" font-size="10.00">window.hpp</text>
</a>
</g>
</g>
<!-- Node11&#45;&gt;Node16 -->
<g id="edge17" class="edge">
<title>Node11&#45;&gt;Node16</title>
<path fill="none" stroke="midnightblue" d="M344.71,-168.08C340.74,-160.69 334.97,-149.95 330.07,-140.81"/>
<polygon fill="midnightblue" stroke="midnightblue" points="333.01,-138.91 325.2,-131.75 326.85,-142.22 333.01,-138.91"/>
</g>
<!-- Node12&#45;&gt;Node9 -->
<g id="edge12" class="edge">
<title>Node12&#45;&gt;Node9</title>
<path fill="none" stroke="midnightblue" d="M430.87,-112.32C442.66,-104.06 460.63,-91.45 474.64,-81.63"/>
<polygon fill="midnightblue" stroke="midnightblue" points="476.98,-84.26 483.16,-75.65 472.96,-78.53 476.98,-84.26"/>
</g>
<!-- Node13&#45;&gt;Node4 -->
<g id="edge15" class="edge">
<title>Node13&#45;&gt;Node4</title>
<path fill="none" stroke="midnightblue" d="M220.74,-112.08C213.96,-104.3 203.96,-92.8 195.74,-83.37"/>
<polygon fill="midnightblue" stroke="midnightblue" points="198.32,-81 189.12,-75.75 193.04,-85.59 198.32,-81"/>
</g>
<!-- Node14 -->
<g id="node14" class="node">
<title>Node14</title>
<g id="a_node14"><a target="_parent" xlink:href="http://en.cppreference.com/w/cpp/header/sstream.html" xlink:title=" ">
<polygon fill="white" stroke="black" points="78,-56.5 78,-75.5 137,-75.5 137,-56.5 78,-56.5"/>
<text text-anchor="middle" x="107.5" y="-63.5" font-family="'Consolas',monospace" font-size="10.00">sstream</text>
</a>
</g>
</g>
<!-- Node13&#45;&gt;Node14 -->
<g id="edge14" class="edge">
<title>Node13&#45;&gt;Node14</title>
<path fill="none" stroke="midnightblue" d="M209.33,-112.44C189.59,-103.64 158.61,-89.81 136.01,-79.72"/>
<polygon fill="midnightblue" stroke="midnightblue" points="137.14,-76.4 126.58,-75.52 134.29,-82.79 137.14,-76.4"/>
</g>
<!-- Node15 -->
<g id="node15" class="node">
<title>Node15</title>
<g id="a_node15"><a target="_parent" xlink:href="http://en.cppreference.com/w/cpp/header/vector.html" xlink:title=" ">
<polygon fill="white" stroke="black" points="226,-56.5 226,-75.5 279,-75.5 279,-56.5 226,-56.5"/>
<text text-anchor="middle" x="252.5" y="-63.5" font-family="'Consolas',monospace" font-size="10.00">vector</text>
</a>
</g>
</g>
<!-- Node13&#45;&gt;Node15 -->
<g id="edge16" class="edge">
<title>Node13&#45;&gt;Node15</title>
<path fill="none" stroke="midnightblue" d="M232.46,-112.08C235.71,-104.77 240.42,-94.18 244.45,-85.1"/>
<polygon fill="midnightblue" stroke="midnightblue" points="247.75,-86.31 248.61,-75.75 241.35,-83.47 247.75,-86.31"/>
</g>
<!-- Node16&#45;&gt;Node4 -->
<g id="edge21" class="edge">
<title>Node16&#45;&gt;Node4</title>
<path fill="none" stroke="midnightblue" d="M298.48,-112.44C275.4,-103.48 238.94,-89.31 212.86,-79.18"/>
<polygon fill="midnightblue" stroke="midnightblue" points="214.01,-75.88 203.42,-75.52 211.48,-82.4 214.01,-75.88"/>
</g>
<!-- Node16&#45;&gt;Node15 -->
<g id="edge22" class="edge">
<title>Node16&#45;&gt;Node15</title>
<path fill="none" stroke="midnightblue" d="M309.57,-112.32C299.33,-104.18 283.78,-91.84 271.5,-82.09"/>
<polygon fill="midnightblue" stroke="midnightblue" points="273.63,-79.31 263.62,-75.83 269.28,-84.79 273.63,-79.31"/>
</g>
<!-- Node17 -->
<g id="node17" class="node">
<title>Node17</title>
<g id="a_node17"><a xlink:href="Pixels_8hpp.html" target="_top" xlink:title="Contains jngl::Pixels class.">
<polygon fill="white" stroke="black" points="362,-56.5 362,-75.5 439,-75.5 439,-56.5 362,-56.5"/>
<text text-anchor="middle" x="400.5" y="-63.5" font-family="'Consolas',monospace" font-size="10.00">Pixels.hpp</text>
</a>
</g>
</g>
<!-- Node16&#45;&gt;Node17 -->
<g id="edge18" class="edge">
<title>Node16&#45;&gt;Node17</title>
<path fill="none" stroke="midnightblue" d="M333.35,-112.32C345.72,-103.98 364.63,-91.21 379.24,-81.35"/>
<polygon fill="midnightblue" stroke="midnightblue" points="381.35,-84.15 387.68,-75.65 377.43,-78.35 381.35,-84.15"/>
</g>
<!-- Node19 -->
<g id="node19" class="node">
<title>Node19</title>
<g id="a_node19"><a target="_parent" xlink:href="http://en.cppreference.com/w/cpp/header/array.html" xlink:title=" ">
<polygon fill="white" stroke="black" points="297,-56.5 297,-75.5 344,-75.5 344,-56.5 297,-56.5"/>
<text text-anchor="middle" x="320.5" y="-63.5" font-family="'Consolas',monospace" font-size="10.00">array</text>
</a>
</g>
</g>
<!-- Node16&#45;&gt;Node19 -->
<g id="edge20" class="edge">
<title>Node16&#45;&gt;Node19</title>
<path fill="none" stroke="midnightblue" d="M320.5,-112.08C320.5,-105.01 320.5,-94.86 320.5,-85.99"/>
<polygon fill="midnightblue" stroke="midnightblue" points="324,-85.75 320.5,-75.75 317,-85.75 324,-85.75"/>
</g>
<!-- Node18 -->
<g id="node18" class="node">
<title>Node18</title>
<g id="a_node18"><a target="_parent" xlink:href="http://en.cppreference.com/w/cpp/header/cstdint.html" xlink:title=" ">
<polygon fill="white" stroke="black" points="371,-0.5 371,-19.5 430,-19.5 430,-0.5 371,-0.5"/>
<text text-anchor="middle" x="400.5" y="-7.5" font-family="'Consolas',monospace" font-size="10.00">cstdint</text>
</a>
</g>
</g>
<!-- Node17&#45;&gt;Node18 -->
<g id="edge19" class="edge">
<title>Node17&#45;&gt;Node18</title>
<path fill="none" stroke="midnightblue" d="M400.5,-56.08C400.5,-49.01 400.5,-38.86 400.5,-29.99"/>
<polygon fill="midnightblue" stroke="midnightblue" points="404,-29.75 400.5,-19.75 397,-29.75 404,-29.75"/>
</g>
<!-- Node20&#45;&gt;Node6 -->
<g id="edge24" class="edge">
<title>Node20&#45;&gt;Node6</title>
<path fill="none" stroke="midnightblue" d="M609.12,-168.08C612.96,-160.69 618.52,-149.95 623.26,-140.81"/>
<polygon fill="midnightblue" stroke="midnightblue" points="626.47,-142.24 627.96,-131.75 620.25,-139.02 626.47,-142.24"/>
</g>
<!-- Node21&#45;&gt;Node3 -->
<g id="edge28" class="edge">
<title>Node21&#45;&gt;Node3</title>
<path fill="none" stroke="midnightblue" d="M85.82,-168.22C83.13,-155.37 77.18,-130.92 67.5,-112 62.27,-101.78 54.7,-91.48 48.03,-83.32"/>
<polygon fill="midnightblue" stroke="midnightblue" points="50.68,-81.03 41.54,-75.68 45.34,-85.57 50.68,-81.03"/>
</g>
<!-- Node22 -->
<g id="node22" class="node">
<title>Node22</title>
<g id="a_node22"><a xlink:href="job_8hpp.html" target="_top" xlink:title="Contains jngl::Job class and related functions.">
<polygon fill="white" stroke="black" points="0,-112.5 0,-131.5 59,-131.5 59,-112.5 0,-112.5"/>
<text text-anchor="middle" x="29.5" y="-119.5" font-family="'Consolas',monospace" font-size="10.00">job.hpp</text>
</a>
</g>
</g>
<!-- Node21&#45;&gt;Node22 -->
<g id="edge26" class="edge">
<title>Node21&#45;&gt;Node22</title>
<path fill="none" stroke="midnightblue" d="M78.18,-168.32C69.61,-160.34 56.69,-148.31 46.31,-138.65"/>
<polygon fill="midnightblue" stroke="midnightblue" points="48.69,-136.09 38.99,-131.83 43.92,-141.21 48.69,-136.09"/>
</g>
<!-- Node22&#45;&gt;Node3 -->
<g id="edge27" class="edge">
<title>Node22&#45;&gt;Node3</title>
<path fill="none" stroke="midnightblue" d="M30.16,-112.08C30.68,-105.01 31.44,-94.86 32.09,-85.99"/>
<polygon fill="midnightblue" stroke="midnightblue" points="35.6,-85.98 32.85,-75.75 28.62,-85.47 35.6,-85.98"/>
</g>
</g>
</svg>
