<?xml version="1.0" encoding="UTF-8" standalone="no"?>
<!DOCTYPE svg PUBLIC "-//W3C//DTD SVG 1.1//EN"
 "http://www.w3.org/Graphics/SVG/1.1/DTD/svg11.dtd">
<!-- Generated by graphviz version 2.44.0 (0)
 -->
<!-- Title: jngl/init.hpp Pages: 1 -->
<svg width="746pt" height="263pt"
 viewBox="0.00 0.00 746.00 263.00" xmlns="http://www.w3.org/2000/svg" xmlns:xlink="http://www.w3.org/1999/xlink">
<g id="graph0" class="graph" transform="scale(1 1) rotate(0) translate(4 259)">
<title>jngl/init.hpp</title>
<polygon fill="white" stroke="transparent" points="-4,4 -4,-259 742,-259 742,4 -4,4"/>
<!-- Node1 -->
<g id="node1" class="node">
<title>Node1</title>
<g id="a_node1"><a xlink:title="Include this file only once, as it defines the main function.">
<polygon fill="#bfbfbf" stroke="black" points="327,-235.5 327,-254.5 422,-254.5 422,-235.5 327,-235.5"/>
<text text-anchor="middle" x="374.5" y="-242.5" font-family="'Consolas',monospace" font-size="10.00">jngl/init.hpp</text>
</a>
</g>
</g>
<!-- Node2 -->
<g id="node2" class="node">
<title>Node2</title>
<g id="a_node2"><a xlink:href="App_8hpp.html" target="_top" xlink:title="Contains jngl::App class.">
<polygon fill="white" stroke="black" points="124,-112.5 124,-131.5 183,-131.5 183,-112.5 124,-112.5"/>
<text text-anchor="middle" x="153.5" y="-119.5" font-family="'Consolas',monospace" font-size="10.00">App.hpp</text>
</a>
</g>
</g>
<!-- Node1&#45;&gt;Node2 -->
<g id="edge1" class="edge">
<title>Node1&#45;&gt;Node2</title>
<path fill="none" stroke="midnightblue" d="M338.23,-235.43C311.04,-228.11 273.51,-216.03 243.5,-199 214.46,-182.52 185.85,-156.15 168.94,-139.2"/>
<polygon fill="midnightblue" stroke="midnightblue" points="171.12,-136.43 161.62,-131.73 166.11,-141.32 171.12,-136.43"/>
</g>
<!-- Node5 -->
<g id="node5" class="node">
<title>Node5</title>
<g id="a_node5"><a xlink:href="main_8hpp.html" target="_top" xlink:title="Defines macros for the main entry point.">
<polygon fill="white" stroke="black" points="253,-174 253,-193 318,-193 318,-174 253,-174"/>
<text text-anchor="middle" x="285.5" y="-181" font-family="'Consolas',monospace" font-size="10.00">main.hpp</text>
</a>
</g>
</g>
<!-- Node1&#45;&gt;Node5 -->
<g id="edge4" class="edge">
<title>Node1&#45;&gt;Node5</title>
<path fill="none" stroke="midnightblue" d="M361.75,-235.48C347.47,-225.93 324.1,-210.31 306.99,-198.87"/>
<polygon fill="midnightblue" stroke="midnightblue" points="308.49,-195.66 298.23,-193.01 304.6,-201.48 308.49,-195.66"/>
</g>
<!-- Node15 -->
<g id="node15" class="node">
<title>Node15</title>
<g id="a_node15"><a xlink:href="screen_8hpp.html" target="_top" xlink:title=" ">
<polygon fill="white" stroke="black" points="336,-174 336,-193 413,-193 413,-174 336,-174"/>
<text text-anchor="middle" x="374.5" y="-181" font-family="'Consolas',monospace" font-size="10.00">screen.hpp</text>
</a>
</g>
</g>
<!-- Node1&#45;&gt;Node15 -->
<g id="edge16" class="edge">
<title>Node1&#45;&gt;Node15</title>
<path fill="none" stroke="midnightblue" d="M374.5,-235.48C374.5,-227.08 374.5,-213.98 374.5,-203.16"/>
<polygon fill="midnightblue" stroke="midnightblue" points="378,-203.01 374.5,-193.01 371,-203.01 378,-203.01"/>
</g>
<!-- Node19 -->
<g id="node19" class="node">
<title>Node19</title>
<g id="a_node19"><a xlink:href="work_8hpp.html" target="_top" xlink:title=" ">
<polygon fill="white" stroke="black" points="55,-174 55,-193 120,-193 120,-174 55,-174"/>
<text text-anchor="middle" x="87.5" y="-181" font-family="'Consolas',monospace" font-size="10.00">work.hpp</text>
</a>
</g>
</g>
<!-- Node1&#45;&gt;Node19 -->
<g id="edge20" class="edge">
<title>Node1&#45;&gt;Node19</title>
<path fill="none" stroke="midnightblue" d="M330.43,-235.43C285.4,-226.59 213.49,-212.27 151.5,-199 144.61,-197.53 137.32,-195.92 130.22,-194.33"/>
<polygon fill="midnightblue" stroke="midnightblue" points="130.55,-190.81 120.03,-192.03 129.01,-197.64 130.55,-190.81"/>
</g>
<!-- Node21 -->
<g id="node21" class="node">
<title>Node21</title>
<g id="a_node21"><a xlink:title=" ">
<polygon fill="white" stroke="#bfbfbf" points="431,-168.5 431,-198.5 568,-198.5 568,-168.5 431,-168.5"/>
<text text-anchor="start" x="439" y="-186.5" font-family="'Consolas',monospace" font-size="10.00">boost/math/special</text>
<text text-anchor="middle" x="499.5" y="-175.5" font-family="'Consolas',monospace" font-size="10.00">_functions/round.hpp</text>
</a>
</g>
</g>
<!-- Node1&#45;&gt;Node21 -->
<g id="edge24" class="edge">
<title>Node1&#45;&gt;Node21</title>
<path fill="none" stroke="midnightblue" d="M392.41,-235.48C410.21,-227 438.08,-213.74 460.92,-202.86"/>
<polygon fill="midnightblue" stroke="midnightblue" points="462.51,-205.98 470.04,-198.52 459.51,-199.66 462.51,-205.98"/>
</g>
<!-- Node22 -->
<g id="node22" class="node">
<title>Node22</title>
<g id="a_node22"><a target="_parent" xlink:href="http://en.cppreference.com/w/cpp/header/cmath.html" xlink:title=" ">
<polygon fill="white" stroke="black" points="586,-174 586,-193 633,-193 633,-174 586,-174"/>
<text text-anchor="middle" x="609.5" y="-181" font-family="'Consolas',monospace" font-size="10.00">cmath</text>
</a>
</g>
</g>
<!-- Node1&#45;&gt;Node22 -->
<g id="edge25" class="edge">
<title>Node1&#45;&gt;Node22</title>
<path fill="none" stroke="midnightblue" d="M422.14,-236.1C463.52,-228.6 524.77,-215.95 576.5,-199 578.37,-198.39 580.29,-197.7 582.2,-196.98"/>
<polygon fill="midnightblue" stroke="midnightblue" points="583.67,-200.16 591.59,-193.12 581.01,-193.68 583.67,-200.16"/>
</g>
<!-- Node23 -->
<g id="node23" class="node">
<title>Node23</title>
<g id="a_node23"><a target="_parent" xlink:href="http://en.cppreference.com/w/cpp/header/optional.html" xlink:title=" ">
<polygon fill="white" stroke="black" points="651,-174 651,-193 716,-193 716,-174 651,-174"/>
<text text-anchor="middle" x="683.5" y="-181" font-family="'Consolas',monospace" font-size="10.00">optional</text>
</a>
</g>
</g>
<!-- Node1&#45;&gt;Node23 -->
<g id="edge26" class="edge">
<title>Node1&#45;&gt;Node23</title>
<path fill="none" stroke="midnightblue" d="M422.47,-238.5C476.5,-231.71 566.68,-218.61 642.5,-199 645.54,-198.21 648.68,-197.3 651.81,-196.32"/>
<polygon fill="midnightblue" stroke="midnightblue" points="653.22,-199.53 661.59,-193.04 650.99,-192.9 653.22,-199.53"/>
</g>
<!-- Node3 -->
<g id="node3" class="node">
<title>Node3</title>
<g id="a_node3"><a target="_parent" xlink:href="http://en.cppreference.com/w/cpp/header/memory.html" xlink:title=" ">
<polygon fill="white" stroke="black" points="3,-56.5 3,-75.5 56,-75.5 56,-56.5 3,-56.5"/>
<text text-anchor="middle" x="29.5" y="-63.5" font-family="'Consolas',monospace" font-size="10.00">memory</text>
</a>
</g>
</g>
<!-- Node2&#45;&gt;Node3 -->
<g id="edge2" class="edge">
<title>Node2&#45;&gt;Node3</title>
<path fill="none" stroke="midnightblue" d="M133.85,-112.44C113.54,-103.6 81.6,-89.69 58.4,-79.59"/>
<polygon fill="midnightblue" stroke="midnightblue" points="59.62,-76.3 49.06,-75.52 56.83,-82.72 59.62,-76.3"/>
</g>
<!-- Node4 -->
<g id="node4" class="node">
<title>Node4</title>
<g id="a_node4"><a target="_parent" xlink:href="http://en.cppreference.com/w/cpp/header/string.html" xlink:title=" ">
<polygon fill="white" stroke="black" points="169,-56.5 169,-75.5 222,-75.5 222,-56.5 169,-56.5"/>
<text text-anchor="middle" x="195.5" y="-63.5" font-family="'Consolas',monospace" font-size="10.00">string</text>
</a>
</g>
</g>
<!-- Node2&#45;&gt;Node4 -->
<g id="edge3" class="edge">
<title>Node2&#45;&gt;Node4</title>
<path fill="none" stroke="midnightblue" d="M160.44,-112.08C166.43,-104.38 175.25,-93.03 182.55,-83.65"/>
<polygon fill="midnightblue" stroke="midnightblue" points="185.32,-85.79 188.69,-75.75 179.79,-81.5 185.32,-85.79"/>
</g>
<!-- Node6 -->
<g id="node6" class="node">
<title>Node6</title>
<g id="a_node6"><a xlink:href="Finally_8hpp.html" target="_top" xlink:title="Contains jngl::Finally class.">
<polygon fill="white" stroke="black" points="418,-112.5 418,-131.5 501,-131.5 501,-112.5 418,-112.5"/>
<text text-anchor="middle" x="459.5" y="-119.5" font-family="'Consolas',monospace" font-size="10.00">Finally.hpp</text>
</a>
</g>
</g>
<!-- Node5&#45;&gt;Node6 -->
<g id="edge5" class="edge">
<title>Node5&#45;&gt;Node6</title>
<path fill="none" stroke="midnightblue" d="M309.76,-173.86C315.26,-171.92 321.08,-169.88 326.5,-168 359.59,-156.55 397.42,-143.78 424.26,-134.78"/>
<polygon fill="midnightblue" stroke="midnightblue" points="425.6,-138.02 433.97,-131.52 423.37,-131.38 425.6,-138.02"/>
</g>
<!-- Node8 -->
<g id="node8" class="node">
<title>Node8</title>
<g id="a_node8"><a xlink:href="other_8hpp.html" target="_top" xlink:title="Miscellaneous functions.">
<polygon fill="white" stroke="black" points="296,-112.5 296,-131.5 367,-131.5 367,-112.5 296,-112.5"/>
<text text-anchor="middle" x="331.5" y="-119.5" font-family="'Consolas',monospace" font-size="10.00">other.hpp</text>
</a>
</g>
</g>
<!-- Node5&#45;&gt;Node8 -->
<g id="edge7" class="edge">
<title>Node5&#45;&gt;Node8</title>
<path fill="none" stroke="midnightblue" d="M292.09,-173.98C298.99,-165.05 310,-150.81 318.63,-139.64"/>
<polygon fill="midnightblue" stroke="midnightblue" points="321.57,-141.56 324.92,-131.51 316.04,-137.28 321.57,-141.56"/>
</g>
<!-- Node11 -->
<g id="node11" class="node">
<title>Node11</title>
<g id="a_node11"><a xlink:href="window_8hpp.html" target="_top" xlink:title="Functions related to the main window.">
<polygon fill="white" stroke="black" points="201,-112.5 201,-131.5 278,-131.5 278,-112.5 201,-112.5"/>
<text text-anchor="middle" x="239.5" y="-119.5" font-family="'Consolas',monospace" font-size="10.00">window.hpp</text>
</a>
</g>
</g>
<!-- Node5&#45;&gt;Node11 -->
<g id="edge11" class="edge">
<title>Node5&#45;&gt;Node11</title>
<path fill="none" stroke="midnightblue" d="M278.91,-173.98C272.01,-165.05 261,-150.81 252.37,-139.64"/>
<polygon fill="midnightblue" stroke="midnightblue" points="254.96,-137.28 246.08,-131.51 249.43,-141.56 254.96,-137.28"/>
</g>
<!-- Node7 -->
<g id="node7" class="node">
<title>Node7</title>
<g id="a_node7"><a target="_parent" xlink:href="http://en.cppreference.com/w/cpp/header/functional.html" xlink:title=" ">
<polygon fill="white" stroke="black" points="453,-56.5 453,-75.5 530,-75.5 530,-56.5 453,-56.5"/>
<text text-anchor="middle" x="491.5" y="-63.5" font-family="'Consolas',monospace" font-size="10.00">functional</text>
</a>
</g>
</g>
<!-- Node6&#45;&gt;Node7 -->
<g id="edge6" class="edge">
<title>Node6&#45;&gt;Node7</title>
<path fill="none" stroke="midnightblue" d="M464.78,-112.08C469.21,-104.61 475.66,-93.72 481.12,-84.52"/>
<polygon fill="midnightblue" stroke="midnightblue" points="484.23,-86.14 486.31,-75.75 478.21,-82.57 484.23,-86.14"/>
</g>
<!-- Node8&#45;&gt;Node4 -->
<g id="edge9" class="edge">
<title>Node8&#45;&gt;Node4</title>
<path fill="none" stroke="midnightblue" d="M309.95,-112.44C287.47,-103.52 252.01,-89.44 226.52,-79.32"/>
<polygon fill="midnightblue" stroke="midnightblue" points="227.53,-75.95 216.95,-75.52 224.95,-82.46 227.53,-75.95"/>
</g>
<!-- Node9 -->
<g id="node9" class="node">
<title>Node9</title>
<g id="a_node9"><a target="_parent" xlink:href="http://en.cppreference.com/w/cpp/header/sstream.html" xlink:title=" ">
<polygon fill="white" stroke="black" points="376,-56.5 376,-75.5 435,-75.5 435,-56.5 376,-56.5"/>
<text text-anchor="middle" x="405.5" y="-63.5" font-family="'Consolas',monospace" font-size="10.00">sstream</text>
</a>
</g>
</g>
<!-- Node8&#45;&gt;Node9 -->
<g id="edge8" class="edge">
<title>Node8&#45;&gt;Node9</title>
<path fill="none" stroke="midnightblue" d="M343.39,-112.32C354.65,-104.11 371.79,-91.6 385.21,-81.81"/>
<polygon fill="midnightblue" stroke="midnightblue" points="387.38,-84.56 393.39,-75.83 383.25,-78.9 387.38,-84.56"/>
</g>
<!-- Node10 -->
<g id="node10" class="node">
<title>Node10</title>
<g id="a_node10"><a target="_parent" xlink:href="http://en.cppreference.com/w/cpp/header/vector.html" xlink:title=" ">
<polygon fill="white" stroke="black" points="305,-56.5 305,-75.5 358,-75.5 358,-56.5 305,-56.5"/>
<text text-anchor="middle" x="331.5" y="-63.5" font-family="'Consolas',monospace" font-size="10.00">vector</text>
</a>
</g>
</g>
<!-- Node8&#45;&gt;Node10 -->
<g id="edge10" class="edge">
<title>Node8&#45;&gt;Node10</title>
<path fill="none" stroke="midnightblue" d="M331.5,-112.08C331.5,-105.01 331.5,-94.86 331.5,-85.99"/>
<polygon fill="midnightblue" stroke="midnightblue" points="335,-85.75 331.5,-75.75 328,-85.75 335,-85.75"/>
</g>
<!-- Node11&#45;&gt;Node4 -->
<g id="edge15" class="edge">
<title>Node11&#45;&gt;Node4</title>
<path fill="none" stroke="midnightblue" d="M232.23,-112.08C225.96,-104.38 216.71,-93.03 209.07,-83.65"/>
<polygon fill="midnightblue" stroke="midnightblue" points="211.66,-81.29 202.63,-75.75 206.23,-85.71 211.66,-81.29"/>
</g>
<!-- Node12 -->
<g id="node12" class="node">
<title>Node12</title>
<g id="a_node12"><a xlink:href="Pixels_8hpp.html" target="_top" xlink:title="Contains jngl::Pixels class.">
<polygon fill="white" stroke="black" points="74,-56.5 74,-75.5 151,-75.5 151,-56.5 74,-56.5"/>
<text text-anchor="middle" x="112.5" y="-63.5" font-family="'Consolas',monospace" font-size="10.00">Pixels.hpp</text>
</a>
</g>
</g>
<!-- Node11&#45;&gt;Node12 -->
<g id="edge12" class="edge">
<title>Node11&#45;&gt;Node12</title>
<path fill="none" stroke="midnightblue" d="M219.38,-112.44C198.48,-103.56 165.57,-89.56 141.78,-79.45"/>
<polygon fill="midnightblue" stroke="midnightblue" points="143.1,-76.21 132.53,-75.52 140.36,-82.65 143.1,-76.21"/>
</g>
<!-- Node14 -->
<g id="node14" class="node">
<title>Node14</title>
<g id="a_node14"><a target="_parent" xlink:href="http://en.cppreference.com/w/cpp/header/array.html" xlink:title=" ">
<polygon fill="white" stroke="black" points="240,-56.5 240,-75.5 287,-75.5 287,-56.5 240,-56.5"/>
<text text-anchor="middle" x="263.5" y="-63.5" font-family="'Consolas',monospace" font-size="10.00">array</text>
</a>
</g>
</g>
<!-- Node11&#45;&gt;Node14 -->
<g id="edge14" class="edge">
<title>Node11&#45;&gt;Node14</title>
<path fill="none" stroke="midnightblue" d="M243.46,-112.08C246.71,-104.77 251.42,-94.18 255.45,-85.1"/>
<polygon fill="midnightblue" stroke="midnightblue" points="258.75,-86.31 259.61,-75.75 252.35,-83.47 258.75,-86.31"/>
</g>
<!-- Node13 -->
<g id="node13" class="node">
<title>Node13</title>
<g id="a_node13"><a target="_parent" xlink:href="http://en.cppreference.com/w/cpp/header/cstdint.html" xlink:title=" ">
<polygon fill="white" stroke="black" points="83,-0.5 83,-19.5 142,-19.5 142,-0.5 83,-0.5"/>
<text text-anchor="middle" x="112.5" y="-7.5" font-family="'Consolas',monospace" font-size="10.00">cstdint</text>
</a>
</g>
</g>
<!-- Node12&#45;&gt;Node13 -->
<g id="edge13" class="edge">
<title>Node12&#45;&gt;Node13</title>
<path fill="none" stroke="midnightblue" d="M112.5,-56.08C112.5,-49.01 112.5,-38.86 112.5,-29.99"/>
<polygon fill="midnightblue" stroke="midnightblue" points="116,-29.75 112.5,-19.75 109,-29.75 116,-29.75"/>
</g>
<!-- Node16 -->
<g id="node16" class="node">
<title>Node16</title>
<g id="a_node16"><a xlink:href="Vec2_8hpp.html" target="_top" xlink:title="Contains jngl::Vec2 class.">
<polygon fill="white" stroke="black" points="575,-112.5 575,-131.5 640,-131.5 640,-112.5 575,-112.5"/>
<text text-anchor="middle" x="607.5" y="-119.5" font-family="'Consolas',monospace" font-size="10.00">Vec2.hpp</text>
</a>
</g>
</g>
<!-- Node15&#45;&gt;Node16 -->
<g id="edge17" class="edge">
<title>Node15&#45;&gt;Node16</title>
<path fill="none" stroke="midnightblue" d="M401.26,-173.93C407.85,-171.91 414.91,-169.81 421.5,-168 470.25,-154.6 526.78,-141.22 564.6,-132.59"/>
<polygon fill="midnightblue" stroke="midnightblue" points="565.78,-135.91 574.75,-130.28 564.22,-129.08 565.78,-135.91"/>
</g>
<!-- Node17 -->
<g id="node17" class="node">
<title>Node17</title>
<g id="a_node17"><a xlink:title=" ">
<polygon fill="white" stroke="#bfbfbf" points="548,-56.5 548,-75.5 667,-75.5 667,-56.5 548,-56.5"/>
<text text-anchor="middle" x="607.5" y="-63.5" font-family="'Consolas',monospace" font-size="10.00">boost/version.hpp</text>
</a>
</g>
</g>
<!-- Node16&#45;&gt;Node17 -->
<g id="edge18" class="edge">
<title>Node16&#45;&gt;Node17</title>
<path fill="none" stroke="midnightblue" d="M607.5,-112.08C607.5,-105.01 607.5,-94.86 607.5,-85.99"/>
<polygon fill="midnightblue" stroke="midnightblue" points="611,-85.75 607.5,-75.75 604,-85.75 611,-85.75"/>
</g>
<!-- Node18 -->
<g id="node18" class="node">
<title>Node18</title>
<g id="a_node18"><a target="_parent" xlink:href="http://en.cppreference.com/w/cpp/header/iosfwd.html" xlink:title=" ">
<polygon fill="white" stroke="black" points="685,-56.5 685,-75.5 738,-75.5 738,-56.5 685,-56.5"/>
<text text-anchor="middle" x="711.5" y="-63.5" font-family="'Consolas',monospace" font-size="10.00">iosfwd</text>
</a>
</g>
</g>
<!-- Node16&#45;&gt;Node18 -->
<g id="edge19" class="edge">
<title>Node16&#45;&gt;Node18</title>
<path fill="none" stroke="midnightblue" d="M624.21,-112.32C640.81,-103.7 666.5,-90.36 685.72,-80.39"/>
<polygon fill="midnightblue" stroke="midnightblue" points="687.57,-83.37 694.83,-75.65 684.34,-77.16 687.57,-83.37"/>
</g>
<!-- Node19&#45;&gt;Node3 -->
<g id="edge23" class="edge">
<title>Node19&#45;&gt;Node3</title>
<path fill="none" stroke="midnightblue" d="M86.25,-173.81C84.02,-160.05 78.49,-132.67 67.5,-112 61.88,-101.44 53.46,-91.13 45.97,-83.05"/>
<polygon fill="midnightblue" stroke="midnightblue" points="48.41,-80.53 38.94,-75.79 43.38,-85.41 48.41,-80.53"/>
</g>
<!-- Node20 -->
<g id="node20" class="node">
<title>Node20</title>
<g id="a_node20"><a xlink:href="job_8hpp.html" target="_top" xlink:title="Contains jngl::Job class and related functions.">
<polygon fill="white" stroke="black" points="0,-112.5 0,-131.5 59,-131.5 59,-112.5 0,-112.5"/>
<text text-anchor="middle" x="29.5" y="-119.5" font-family="'Consolas',monospace" font-size="10.00">job.hpp</text>
</a>
</g>
</g>
<!-- Node19&#45;&gt;Node20 -->
<g id="edge21" class="edge">
<title>Node19&#45;&gt;Node20</title>
<path fill="none" stroke="midnightblue" d="M79.19,-173.98C70.32,-164.87 56.05,-150.24 45.08,-138.98"/>
<polygon fill="midnightblue" stroke="midnightblue" points="47.28,-136.23 37.79,-131.51 42.27,-141.11 47.28,-136.23"/>
</g>
<!-- Node20&#45;&gt;Node3 -->
<g id="edge22" class="edge">
<title>Node20&#45;&gt;Node3</title>
<path fill="none" stroke="midnightblue" d="M29.5,-112.08C29.5,-105.01 29.5,-94.86 29.5,-85.99"/>
<polygon fill="midnightblue" stroke="midnightblue" points="33,-85.75 29.5,-75.75 26,-85.75 33,-85.75"/>
</g>
</g>
</svg>
