<?xml version="1.0" encoding="UTF-8" standalone="no"?>
<!DOCTYPE svg PUBLIC "-//W3C//DTD SVG 1.1//EN"
 "http://www.w3.org/Graphics/SVG/1.1/DTD/svg11.dtd">
<!-- Generated by graphviz version 5.0.0 (0)
 -->
<!-- Title: jngl/init.hpp Pages: 1 -->
<svg width="777pt" height="247pt"
 viewBox="0.00 0.00 777.00 247.00" xmlns="http://www.w3.org/2000/svg" xmlns:xlink="http://www.w3.org/1999/xlink">
<g id="graph0" class="graph" transform="scale(1 1) rotate(0) translate(4 243)">
<title>jngl/init.hpp</title>
<!-- Node1 -->
<g id="node1" class="node">
<title>Node1</title>
<g id="a_node1"><a xlink:title="Include this file only once, as it defines the main function.">
<polygon fill="#999999" stroke="#666666" points="481,-239 386,-239 386,-220 481,-220 481,-239"/>
<text text-anchor="middle" x="433.5" y="-227" font-family="ui-monospace,monospace" font-size="10.00">jngl/init.hpp</text>
</a>
</g>
</g>
<!-- Node2 -->
<g id="node2" class="node">
<title>Node2</title>
<g id="a_node2"><a xlink:href="App_8hpp.html" target="_top" xlink:title="Contains jngl::App class.">
<polygon fill="white" stroke="#666666" points="175,-129 116,-129 116,-110 175,-110 175,-129"/>
<text text-anchor="middle" x="145.5" y="-117" font-family="ui-monospace,monospace" font-size="10.00">App.hpp</text>
</a>
</g>
</g>
<!-- Node1&#45;&gt;Node2 -->
<g id="edge1" class="edge">
<title>Node1&#45;&gt;Node2</title>
<path fill="none" stroke="#63b8ff" d="M408.31,-219.89C382.81,-211.1 342.28,-196.96 307.5,-184 261.45,-166.85 208.51,-145.85 176.03,-132.83"/>
<polygon fill="#63b8ff" stroke="#63b8ff" points="177.22,-129.53 166.64,-129.05 174.61,-136.03 177.22,-129.53"/>
</g>
<!-- Node5 -->
<g id="node5" class="node">
<title>Node5</title>
<g id="a_node5"><a xlink:href="AppParameters_8hpp.html" target="_top" xlink:title="Contains jngl::AppParameters struct.">
<polygon fill="white" stroke="#666666" points="548,-184 429,-184 429,-165 548,-165 548,-184"/>
<text text-anchor="middle" x="488.5" y="-172" font-family="ui-monospace,monospace" font-size="10.00">AppParameters.hpp</text>
</a>
</g>
</g>
<!-- Node1&#45;&gt;Node5 -->
<g id="edge4" class="edge">
<title>Node1&#45;&gt;Node5</title>
<path fill="none" stroke="#63b8ff" d="M442.58,-219.75C450.59,-212.03 462.46,-200.6 472.12,-191.28"/>
<polygon fill="#63b8ff" stroke="#63b8ff" points="474.81,-193.55 479.59,-184.09 469.96,-188.51 474.81,-193.55"/>
</g>
<!-- Node11 -->
<g id="node11" class="node">
<title>Node11</title>
<g id="a_node11"><a xlink:href="main_8hpp.html" target="_top" xlink:title="Defines macros for the main entry point.">
<polygon fill="white" stroke="#666666" points="382,-184 317,-184 317,-165 382,-165 382,-184"/>
<text text-anchor="middle" x="349.5" y="-172" font-family="ui-monospace,monospace" font-size="10.00">main.hpp</text>
</a>
</g>
</g>
<!-- Node1&#45;&gt;Node11 -->
<g id="edge10" class="edge">
<title>Node1&#45;&gt;Node11</title>
<path fill="none" stroke="#63b8ff" d="M420,-219.98C407.1,-211.84 387.4,-199.41 372.1,-189.76"/>
<polygon fill="#63b8ff" stroke="#63b8ff" points="373.57,-186.55 363.24,-184.17 369.83,-192.47 373.57,-186.55"/>
</g>
<!-- Node20 -->
<g id="node20" class="node">
<title>Node20</title>
<g id="a_node20"><a xlink:href="screen_8hpp.html" target="_top" xlink:title=" ">
<polygon fill="white" stroke="#666666" points="643,-184 566,-184 566,-165 643,-165 643,-184"/>
<text text-anchor="middle" x="604.5" y="-172" font-family="ui-monospace,monospace" font-size="10.00">screen.hpp</text>
</a>
</g>
</g>
<!-- Node1&#45;&gt;Node20 -->
<g id="edge23" class="edge">
<title>Node1&#45;&gt;Node20</title>
<path fill="none" stroke="#63b8ff" d="M460.97,-219.98C489.68,-211.09 534.92,-197.07 566.92,-187.15"/>
<polygon fill="#63b8ff" stroke="#63b8ff" points="568.3,-190.39 576.81,-184.08 566.22,-183.7 568.3,-190.39"/>
</g>
<!-- Node21 -->
<g id="node21" class="node">
<title>Node21</title>
<g id="a_node21"><a xlink:href="work_8hpp.html" target="_top" xlink:title=" ">
<polygon fill="white" stroke="#666666" points="120,-184 55,-184 55,-165 120,-165 120,-184"/>
<text text-anchor="middle" x="87.5" y="-172" font-family="ui-monospace,monospace" font-size="10.00">work.hpp</text>
</a>
</g>
</g>
<!-- Node1&#45;&gt;Node21 -->
<g id="edge25" class="edge">
<title>Node1&#45;&gt;Node21</title>
<path fill="none" stroke="#63b8ff" d="M385.75,-221.19C318,-210.81 195.02,-191.97 130.17,-182.04"/>
<polygon fill="#63b8ff" stroke="#63b8ff" points="130.69,-178.57 120.27,-180.52 129.63,-185.49 130.69,-178.57"/>
</g>
<!-- Node23 -->
<g id="node23" class="node">
<title>Node23</title>
<g id="a_node23"><a target="_parent" xlink:href="http://en.cppreference.com/w/cpp/header/cmath.html" xlink:title=" ">
<polygon fill="white" stroke="#666666" points="708,-184 661,-184 661,-165 708,-165 708,-184"/>
<text text-anchor="middle" x="684.5" y="-172" font-family="ui-monospace,monospace" font-size="10.00">cmath</text>
</a>
</g>
</g>
<!-- Node1&#45;&gt;Node23 -->
<g id="edge29" class="edge">
<title>Node1&#45;&gt;Node23</title>
<path fill="none" stroke="#63b8ff" d="M478.74,-219.96C520.77,-211.87 585.34,-199.05 650.68,-184.09"/>
<polygon fill="#63b8ff" stroke="#63b8ff" points="651.78,-187.43 660.74,-181.77 650.21,-180.61 651.78,-187.43"/>
</g>
<!-- Node3 -->
<g id="node3" class="node">
<title>Node3</title>
<g id="a_node3"><a target="_parent" xlink:href="http://en.cppreference.com/w/cpp/header/memory.html" xlink:title=" ">
<polygon fill="white" stroke="#666666" points="60,-74 7,-74 7,-55 60,-55 60,-74"/>
<text text-anchor="middle" x="33.5" y="-62" font-family="ui-monospace,monospace" font-size="10.00">memory</text>
</a>
</g>
</g>
<!-- Node2&#45;&gt;Node3 -->
<g id="edge2" class="edge">
<title>Node2&#45;&gt;Node3</title>
<path fill="none" stroke="#63b8ff" d="M127.51,-109.98C109.57,-101.5 81.78,-88.35 61.07,-78.54"/>
<polygon fill="#63b8ff" stroke="#63b8ff" points="62.36,-75.28 51.82,-74.17 59.36,-81.61 62.36,-75.28"/>
</g>
<!-- Node4 -->
<g id="node4" class="node">
<title>Node4</title>
<g id="a_node4"><a target="_parent" xlink:href="http://en.cppreference.com/w/cpp/header/string.html" xlink:title=" ">
<polygon fill="white" stroke="#666666" points="208,-74 155,-74 155,-55 208,-55 208,-74"/>
<text text-anchor="middle" x="181.5" y="-62" font-family="ui-monospace,monospace" font-size="10.00">string</text>
</a>
</g>
</g>
<!-- Node2&#45;&gt;Node4 -->
<g id="edge3" class="edge">
<title>Node2&#45;&gt;Node4</title>
<path fill="none" stroke="#63b8ff" d="M151.44,-109.75C156.48,-102.34 163.84,-91.5 170.01,-82.41"/>
<polygon fill="#63b8ff" stroke="#63b8ff" points="172.94,-84.33 175.67,-74.09 167.15,-80.39 172.94,-84.33"/>
</g>
<!-- Node6 -->
<g id="node6" class="node">
<title>Node6</title>
<g id="a_node6"><a xlink:href="Vec2_8hpp.html" target="_top" xlink:title="Contains jngl::Vec2 class.">
<polygon fill="white" stroke="#666666" points="665,-129 600,-129 600,-110 665,-110 665,-129"/>
<text text-anchor="middle" x="632.5" y="-117" font-family="ui-monospace,monospace" font-size="10.00">Vec2.hpp</text>
</a>
</g>
</g>
<!-- Node5&#45;&gt;Node6 -->
<g id="edge5" class="edge">
<title>Node5&#45;&gt;Node6</title>
<path fill="none" stroke="#63b8ff" d="M511.64,-164.98C535.32,-156.27 572.37,-142.63 599.21,-132.75"/>
<polygon fill="#63b8ff" stroke="#63b8ff" points="600.77,-135.91 608.94,-129.17 598.35,-129.34 600.77,-135.91"/>
</g>
<!-- Node9 -->
<g id="node9" class="node">
<title>Node9</title>
<g id="a_node9"><a target="_parent" xlink:href="http://en.cppreference.com/w/cpp/header/functional.html" xlink:title=" ">
<polygon fill="white" stroke="#666666" points="534,-74 457,-74 457,-55 534,-55 534,-74"/>
<text text-anchor="middle" x="495.5" y="-62" font-family="ui-monospace,monospace" font-size="10.00">functional</text>
</a>
</g>
</g>
<!-- Node5&#45;&gt;Node9 -->
<g id="edge8" class="edge">
<title>Node5&#45;&gt;Node9</title>
<path fill="none" stroke="#63b8ff" d="M489.07,-164.66C490.21,-147.17 492.76,-107.8 494.28,-84.27"/>
<polygon fill="#63b8ff" stroke="#63b8ff" points="497.78,-84.36 494.94,-74.16 490.8,-83.91 497.78,-84.36"/>
</g>
<!-- Node10 -->
<g id="node10" class="node">
<title>Node10</title>
<g id="a_node10"><a target="_parent" xlink:href="http://en.cppreference.com/w/cpp/header/optional.html" xlink:title=" ">
<polygon fill="white" stroke="#666666" points="582,-129 517,-129 517,-110 582,-110 582,-129"/>
<text text-anchor="middle" x="549.5" y="-117" font-family="ui-monospace,monospace" font-size="10.00">optional</text>
</a>
</g>
</g>
<!-- Node5&#45;&gt;Node10 -->
<g id="edge9" class="edge">
<title>Node5&#45;&gt;Node10</title>
<path fill="none" stroke="#63b8ff" d="M498.3,-164.98C507.32,-157.15 520.91,-145.34 531.82,-135.86"/>
<polygon fill="#63b8ff" stroke="#63b8ff" points="534.27,-138.37 539.52,-129.17 529.68,-133.09 534.27,-138.37"/>
</g>
<!-- Node7 -->
<g id="node7" class="node">
<title>Node7</title>
<g id="a_node7"><a xlink:title=" ">
<polygon fill="#e0e0e0" stroke="#999999" points="769,-74 650,-74 650,-55 769,-55 769,-74"/>
<text text-anchor="middle" x="709.5" y="-62" font-family="ui-monospace,monospace" font-size="10.00">boost/version.hpp</text>
</a>
</g>
</g>
<!-- Node6&#45;&gt;Node7 -->
<g id="edge6" class="edge">
<title>Node6&#45;&gt;Node7</title>
<path fill="none" stroke="#63b8ff" d="M644.87,-109.98C656.59,-101.92 674.42,-89.65 688.39,-80.03"/>
<polygon fill="#63b8ff" stroke="#63b8ff" points="690.65,-82.72 696.9,-74.17 686.68,-76.96 690.65,-82.72"/>
</g>
<!-- Node8 -->
<g id="node8" class="node">
<title>Node8</title>
<g id="a_node8"><a target="_parent" xlink:href="http://en.cppreference.com/w/cpp/header/iosfwd.html" xlink:title=" ">
<polygon fill="white" stroke="#666666" points="632,-74 579,-74 579,-55 632,-55 632,-74"/>
<text text-anchor="middle" x="605.5" y="-62" font-family="ui-monospace,monospace" font-size="10.00">iosfwd</text>
</a>
</g>
</g>
<!-- Node6&#45;&gt;Node8 -->
<g id="edge7" class="edge">
<title>Node6&#45;&gt;Node8</title>
<path fill="none" stroke="#63b8ff" d="M628.04,-109.75C624.38,-102.57 619.09,-92.18 614.55,-83.27"/>
<polygon fill="#63b8ff" stroke="#63b8ff" points="617.53,-81.41 609.88,-74.09 611.3,-84.59 617.53,-81.41"/>
</g>
<!-- Node12 -->
<g id="node12" class="node">
<title>Node12</title>
<g id="a_node12"><a xlink:href="Finally_8hpp.html" target="_top" xlink:title="Contains jngl::Finally class.">
<polygon fill="white" stroke="#666666" points="460,-129 377,-129 377,-110 460,-110 460,-129"/>
<text text-anchor="middle" x="418.5" y="-117" font-family="ui-monospace,monospace" font-size="10.00">Finally.hpp</text>
</a>
</g>
</g>
<!-- Node11&#45;&gt;Node12 -->
<g id="edge11" class="edge">
<title>Node11&#45;&gt;Node12</title>
<path fill="none" stroke="#63b8ff" d="M360.59,-164.98C370.99,-157 386.76,-144.88 399.22,-135.31"/>
<polygon fill="#63b8ff" stroke="#63b8ff" points="401.41,-138.04 407.21,-129.17 397.15,-132.49 401.41,-138.04"/>
</g>
<!-- Node13 -->
<g id="node13" class="node">
<title>Node13</title>
<g id="a_node13"><a xlink:href="other_8hpp.html" target="_top" xlink:title="Miscellaneous functions.">
<polygon fill="white" stroke="#666666" points="264,-129 193,-129 193,-110 264,-110 264,-129"/>
<text text-anchor="middle" x="228.5" y="-117" font-family="ui-monospace,monospace" font-size="10.00">other.hpp</text>
</a>
</g>
</g>
<!-- Node11&#45;&gt;Node13 -->
<g id="edge13" class="edge">
<title>Node11&#45;&gt;Node13</title>
<path fill="none" stroke="#63b8ff" d="M330.06,-164.98C310.51,-156.42 280.12,-143.11 257.68,-133.28"/>
<polygon fill="#63b8ff" stroke="#63b8ff" points="258.86,-129.98 248.29,-129.17 256.05,-136.39 258.86,-129.98"/>
</g>
<!-- Node16 -->
<g id="node16" class="node">
<title>Node16</title>
<g id="a_node16"><a xlink:href="window_8hpp.html" target="_top" xlink:title="Functions related to the main window.">
<polygon fill="white" stroke="#666666" points="359,-129 282,-129 282,-110 359,-110 359,-129"/>
<text text-anchor="middle" x="320.5" y="-117" font-family="ui-monospace,monospace" font-size="10.00">window.hpp</text>
</a>
</g>
</g>
<!-- Node11&#45;&gt;Node16 -->
<g id="edge17" class="edge">
<title>Node11&#45;&gt;Node16</title>
<path fill="none" stroke="#63b8ff" d="M344.71,-164.75C340.74,-157.49 334.97,-146.95 330.07,-137.98"/>
<polygon fill="#63b8ff" stroke="#63b8ff" points="333.07,-136.18 325.2,-129.09 326.93,-139.54 333.07,-136.18"/>
</g>
<!-- Node12&#45;&gt;Node9 -->
<g id="edge12" class="edge">
<title>Node12&#45;&gt;Node9</title>
<path fill="none" stroke="#63b8ff" d="M430.87,-109.98C442.59,-101.92 460.42,-89.65 474.39,-80.03"/>
<polygon fill="#63b8ff" stroke="#63b8ff" points="476.65,-82.72 482.9,-74.17 472.68,-76.96 476.65,-82.72"/>
</g>
<!-- Node13&#45;&gt;Node4 -->
<g id="edge15" class="edge">
<title>Node13&#45;&gt;Node4</title>
<path fill="none" stroke="#63b8ff" d="M220.74,-109.75C214.03,-102.18 204.16,-91.05 195.99,-81.84"/>
<polygon fill="#63b8ff" stroke="#63b8ff" points="198.37,-79.25 189.12,-74.09 193.13,-83.89 198.37,-79.25"/>
</g>
<!-- Node14 -->
<g id="node14" class="node">
<title>Node14</title>
<g id="a_node14"><a target="_parent" xlink:href="http://en.cppreference.com/w/cpp/header/sstream.html" xlink:title=" ">
<polygon fill="white" stroke="#666666" points="137,-74 78,-74 78,-55 137,-55 137,-74"/>
<text text-anchor="middle" x="107.5" y="-62" font-family="ui-monospace,monospace" font-size="10.00">sstream</text>
</a>
</g>
</g>
<!-- Node13&#45;&gt;Node14 -->
<g id="edge14" class="edge">
<title>Node13&#45;&gt;Node14</title>
<path fill="none" stroke="#63b8ff" d="M209.06,-109.98C189.51,-101.42 159.12,-88.11 136.68,-78.28"/>
<polygon fill="#63b8ff" stroke="#63b8ff" points="137.86,-74.98 127.29,-74.17 135.05,-81.39 137.86,-74.98"/>
</g>
<!-- Node15 -->
<g id="node15" class="node">
<title>Node15</title>
<g id="a_node15"><a target="_parent" xlink:href="http://en.cppreference.com/w/cpp/header/vector.html" xlink:title=" ">
<polygon fill="white" stroke="#666666" points="279,-74 226,-74 226,-55 279,-55 279,-74"/>
<text text-anchor="middle" x="252.5" y="-62" font-family="ui-monospace,monospace" font-size="10.00">vector</text>
</a>
</g>
</g>
<!-- Node13&#45;&gt;Node15 -->
<g id="edge16" class="edge">
<title>Node13&#45;&gt;Node15</title>
<path fill="none" stroke="#63b8ff" d="M232.46,-109.75C235.71,-102.57 240.42,-92.18 244.45,-83.27"/>
<polygon fill="#63b8ff" stroke="#63b8ff" points="247.67,-84.64 248.61,-74.09 241.3,-81.75 247.67,-84.64"/>
</g>
<!-- Node16&#45;&gt;Node4 -->
<g id="edge21" class="edge">
<title>Node16&#45;&gt;Node4</title>
<path fill="none" stroke="#63b8ff" d="M298.17,-109.98C275.3,-101.27 239.54,-87.63 213.64,-77.75"/>
<polygon fill="#63b8ff" stroke="#63b8ff" points="214.83,-74.46 204.24,-74.17 212.34,-81 214.83,-74.46"/>
</g>
<!-- Node16&#45;&gt;Node15 -->
<g id="edge22" class="edge">
<title>Node16&#45;&gt;Node15</title>
<path fill="none" stroke="#63b8ff" d="M309.57,-109.98C299.42,-102.07 284.08,-90.11 271.85,-80.58"/>
<polygon fill="#63b8ff" stroke="#63b8ff" points="273.66,-77.56 263.62,-74.17 269.36,-83.08 273.66,-77.56"/>
</g>
<!-- Node17 -->
<g id="node17" class="node">
<title>Node17</title>
<g id="a_node17"><a xlink:href="Pixels_8hpp.html" target="_top" xlink:title="Contains jngl::Pixels class.">
<polygon fill="white" stroke="#666666" points="439,-74 362,-74 362,-55 439,-55 439,-74"/>
<text text-anchor="middle" x="400.5" y="-62" font-family="ui-monospace,monospace" font-size="10.00">Pixels.hpp</text>
</a>
</g>
</g>
<!-- Node16&#45;&gt;Node17 -->
<g id="edge18" class="edge">
<title>Node16&#45;&gt;Node17</title>
<path fill="none" stroke="#63b8ff" d="M333.35,-109.98C345.64,-101.84 364.41,-89.41 378.98,-79.76"/>
<polygon fill="#63b8ff" stroke="#63b8ff" points="381.01,-82.61 387.41,-74.17 377.14,-76.78 381.01,-82.61"/>
</g>
<!-- Node19 -->
<g id="node19" class="node">
<title>Node19</title>
<g id="a_node19"><a target="_parent" xlink:href="http://en.cppreference.com/w/cpp/header/array.html" xlink:title=" ">
<polygon fill="white" stroke="#666666" points="344,-74 297,-74 297,-55 344,-55 344,-74"/>
<text text-anchor="middle" x="320.5" y="-62" font-family="ui-monospace,monospace" font-size="10.00">array</text>
</a>
</g>
</g>
<!-- Node16&#45;&gt;Node19 -->
<g id="edge20" class="edge">
<title>Node16&#45;&gt;Node19</title>
<path fill="none" stroke="#63b8ff" d="M320.5,-109.75C320.5,-102.8 320.5,-92.85 320.5,-84.13"/>
<polygon fill="#63b8ff" stroke="#63b8ff" points="324,-84.09 320.5,-74.09 317,-84.09 324,-84.09"/>
</g>
<!-- Node18 -->
<g id="node18" class="node">
<title>Node18</title>
<g id="a_node18"><a target="_parent" xlink:href="http://en.cppreference.com/w/cpp/header/cstdint.html" xlink:title=" ">
<polygon fill="white" stroke="#666666" points="430,-19 371,-19 371,0 430,0 430,-19"/>
<text text-anchor="middle" x="400.5" y="-7" font-family="ui-monospace,monospace" font-size="10.00">cstdint</text>
</a>
</g>
</g>
<!-- Node17&#45;&gt;Node18 -->
<g id="edge19" class="edge">
<title>Node17&#45;&gt;Node18</title>
<path fill="none" stroke="#63b8ff" d="M400.5,-54.75C400.5,-47.8 400.5,-37.85 400.5,-29.13"/>
<polygon fill="#63b8ff" stroke="#63b8ff" points="404,-29.09 400.5,-19.09 397,-29.09 404,-29.09"/>
</g>
<!-- Node20&#45;&gt;Node6 -->
<g id="edge24" class="edge">
<title>Node20&#45;&gt;Node6</title>
<path fill="none" stroke="#63b8ff" d="M609.12,-164.75C612.96,-157.49 618.52,-146.95 623.26,-137.98"/>
<polygon fill="#63b8ff" stroke="#63b8ff" points="626.39,-139.57 627.96,-129.09 620.2,-136.3 626.39,-139.57"/>
</g>
<!-- Node21&#45;&gt;Node3 -->
<g id="edge28" class="edge">
<title>Node21&#45;&gt;Node3</title>
<path fill="none" stroke="#63b8ff" d="M85.79,-164.92C83.08,-152.36 77.08,-128.47 67.5,-110 62.3,-99.99 54.83,-89.91 48.22,-81.88"/>
<polygon fill="#63b8ff" stroke="#63b8ff" points="50.69,-79.39 41.52,-74.08 45.38,-83.95 50.69,-79.39"/>
</g>
<!-- Node22 -->
<g id="node22" class="node">
<title>Node22</title>
<g id="a_node22"><a xlink:href="job_8hpp.html" target="_top" xlink:title="Contains jngl::Job class and related functions.">
<polygon fill="white" stroke="#666666" points="59,-129 0,-129 0,-110 59,-110 59,-129"/>
<text text-anchor="middle" x="29.5" y="-117" font-family="ui-monospace,monospace" font-size="10.00">job.hpp</text>
</a>
</g>
</g>
<!-- Node21&#45;&gt;Node22 -->
<g id="edge26" class="edge">
<title>Node21&#45;&gt;Node22</title>
<path fill="none" stroke="#63b8ff" d="M78.18,-164.98C69.69,-157.23 56.94,-145.58 46.62,-136.14"/>
<polygon fill="#63b8ff" stroke="#63b8ff" points="48.73,-133.33 38.99,-129.17 44.01,-138.5 48.73,-133.33"/>
</g>
<!-- Node22&#45;&gt;Node3 -->
<g id="edge27" class="edge">
<title>Node22&#45;&gt;Node3</title>
<path fill="none" stroke="#63b8ff" d="M30.16,-109.75C30.68,-102.8 31.44,-92.85 32.09,-84.13"/>
<polygon fill="#63b8ff" stroke="#63b8ff" points="35.59,-84.32 32.85,-74.09 28.61,-83.8 35.59,-84.32"/>
</g>
</g>
</svg>
