<?xml version="1.0" encoding="UTF-8" standalone="no"?>
<!DOCTYPE svg PUBLIC "-//W3C//DTD SVG 1.1//EN"
 "http://www.w3.org/Graphics/SVG/1.1/DTD/svg11.dtd">
<!-- Generated by graphviz version 5.0.0 (0)
 -->
<!-- Title: jngl/init.hpp Pages: 1 -->
<svg width="701pt" height="247pt"
 viewBox="0.00 0.00 701.00 247.00" xmlns="http://www.w3.org/2000/svg" xmlns:xlink="http://www.w3.org/1999/xlink">
<g id="graph0" class="graph" transform="scale(1 1) rotate(0) translate(4 243)">
<title>jngl/init.hpp</title>
<!-- Node1 -->
<g id="node1" class="node">
<title>Node1</title>
<g id="a_node1"><a xlink:title="Include this file only once, as it defines the main function.">
<polygon fill="#999999" stroke="#666666" points="443,-239 348,-239 348,-220 443,-220 443,-239"/>
<text text-anchor="middle" x="395.5" y="-227" font-family="ui-monospace,monospace" font-size="10.00">jngl/init.hpp</text>
</a>
</g>
</g>
<!-- Node2 -->
<g id="node2" class="node">
<title>Node2</title>
<g id="a_node2"><a xlink:href="AppParameters_8hpp.html" target="_top" xlink:title="Contains jngl::AppParameters struct.">
<polygon fill="white" stroke="#666666" points="274,-129 155,-129 155,-110 274,-110 274,-129"/>
<text text-anchor="middle" x="214.5" y="-117" font-family="ui-monospace,monospace" font-size="10.00">AppParameters.hpp</text>
</a>
</g>
</g>
<!-- Node1&#45;&gt;Node2 -->
<g id="edge1" class="edge">
<title>Node1&#45;&gt;Node2</title>
<path fill="none" stroke="#63b8ff" d="M380.99,-219.84C349.67,-201.16 275.5,-156.9 237.62,-134.3"/>
<polygon fill="#63b8ff" stroke="#63b8ff" points="239.2,-131.17 228.82,-129.05 235.62,-137.18 239.2,-131.17"/>
</g>
<!-- Node10 -->
<g id="node10" class="node">
<title>Node10</title>
<g id="a_node10"><a xlink:href="main_8hpp.html" target="_top" xlink:title="Defines macros for the main entry point.">
<polygon fill="white" stroke="#666666" points="428,-184 363,-184 363,-165 428,-165 428,-184"/>
<text text-anchor="middle" x="395.5" y="-172" font-family="ui-monospace,monospace" font-size="10.00">main.hpp</text>
</a>
</g>
</g>
<!-- Node1&#45;&gt;Node10 -->
<g id="edge9" class="edge">
<title>Node1&#45;&gt;Node10</title>
<path fill="none" stroke="#63b8ff" d="M395.5,-219.75C395.5,-212.8 395.5,-202.85 395.5,-194.13"/>
<polygon fill="#63b8ff" stroke="#63b8ff" points="399,-194.09 395.5,-184.09 392,-194.09 399,-194.09"/>
</g>
<!-- Node19 -->
<g id="node19" class="node">
<title>Node19</title>
<g id="a_node19"><a target="_parent" xlink:href="http://en.cppreference.com/w/cpp/header/cmath.html" xlink:title=" ">
<polygon fill="white" stroke="#666666" points="493,-184 446,-184 446,-165 493,-165 493,-184"/>
<text text-anchor="middle" x="469.5" y="-172" font-family="ui-monospace,monospace" font-size="10.00">cmath</text>
</a>
</g>
</g>
<!-- Node1&#45;&gt;Node19 -->
<g id="edge23" class="edge">
<title>Node1&#45;&gt;Node19</title>
<path fill="none" stroke="#63b8ff" d="M407.39,-219.98C418.65,-211.92 435.79,-199.65 449.21,-190.03"/>
<polygon fill="#63b8ff" stroke="#63b8ff" points="451.3,-192.84 457.39,-184.17 447.23,-187.15 451.3,-192.84"/>
</g>
<!-- Node3 -->
<g id="node3" class="node">
<title>Node3</title>
<g id="a_node3"><a xlink:href="Vec2_8hpp.html" target="_top" xlink:title="Contains jngl::Vec2 class.">
<polygon fill="white" stroke="#666666" points="148,-74 83,-74 83,-55 148,-55 148,-74"/>
<text text-anchor="middle" x="115.5" y="-62" font-family="ui-monospace,monospace" font-size="10.00">Vec2.hpp</text>
</a>
</g>
</g>
<!-- Node2&#45;&gt;Node3 -->
<g id="edge2" class="edge">
<title>Node2&#45;&gt;Node3</title>
<path fill="none" stroke="#63b8ff" d="M198.59,-109.98C182.95,-101.61 158.84,-88.7 140.62,-78.95"/>
<polygon fill="#63b8ff" stroke="#63b8ff" points="142.16,-75.8 131.7,-74.17 138.86,-81.98 142.16,-75.8"/>
</g>
<!-- Node6 -->
<g id="node6" class="node">
<title>Node6</title>
<g id="a_node6"><a target="_parent" xlink:href="http://en.cppreference.com/w/cpp/header/functional.html" xlink:title=" ">
<polygon fill="white" stroke="#666666" points="314,-74 237,-74 237,-55 314,-55 314,-74"/>
<text text-anchor="middle" x="275.5" y="-62" font-family="ui-monospace,monospace" font-size="10.00">functional</text>
</a>
</g>
</g>
<!-- Node2&#45;&gt;Node6 -->
<g id="edge5" class="edge">
<title>Node2&#45;&gt;Node6</title>
<path fill="none" stroke="#63b8ff" d="M224.3,-109.98C233.32,-102.15 246.91,-90.34 257.82,-80.86"/>
<polygon fill="#63b8ff" stroke="#63b8ff" points="260.27,-83.37 265.52,-74.17 255.68,-78.09 260.27,-83.37"/>
</g>
<!-- Node7 -->
<g id="node7" class="node">
<title>Node7</title>
<g id="a_node7"><a target="_parent" xlink:href="http://en.cppreference.com/w/cpp/header/memory.html" xlink:title=" ">
<polygon fill="white" stroke="#666666" points="219,-74 166,-74 166,-55 219,-55 219,-74"/>
<text text-anchor="middle" x="192.5" y="-62" font-family="ui-monospace,monospace" font-size="10.00">memory</text>
</a>
</g>
</g>
<!-- Node2&#45;&gt;Node7 -->
<g id="edge6" class="edge">
<title>Node2&#45;&gt;Node7</title>
<path fill="none" stroke="#63b8ff" d="M210.87,-109.75C207.92,-102.65 203.67,-92.4 199.99,-83.56"/>
<polygon fill="#63b8ff" stroke="#63b8ff" points="203.13,-81.98 196.07,-74.09 196.67,-84.67 203.13,-81.98"/>
</g>
<!-- Node8 -->
<g id="node8" class="node">
<title>Node8</title>
<g id="a_node8"><a target="_parent" xlink:href="http://en.cppreference.com/w/cpp/header/optional.html" xlink:title=" ">
<polygon fill="white" stroke="#666666" points="65,-74 0,-74 0,-55 65,-55 65,-74"/>
<text text-anchor="middle" x="32.5" y="-62" font-family="ui-monospace,monospace" font-size="10.00">optional</text>
</a>
</g>
</g>
<!-- Node2&#45;&gt;Node8 -->
<g id="edge7" class="edge">
<title>Node2&#45;&gt;Node8</title>
<path fill="none" stroke="#63b8ff" d="M185.26,-109.98C154.44,-101.01 105.72,-86.82 71.61,-76.89"/>
<polygon fill="#63b8ff" stroke="#63b8ff" points="72.55,-73.52 61.97,-74.08 70.59,-80.24 72.55,-73.52"/>
</g>
<!-- Node9 -->
<g id="node9" class="node">
<title>Node9</title>
<g id="a_node9"><a target="_parent" xlink:href="http://en.cppreference.com/w/cpp/header/string.html" xlink:title=" ">
<polygon fill="white" stroke="#666666" points="480,-74 427,-74 427,-55 480,-55 480,-74"/>
<text text-anchor="middle" x="453.5" y="-62" font-family="ui-monospace,monospace" font-size="10.00">string</text>
</a>
</g>
</g>
<!-- Node2&#45;&gt;Node9 -->
<g id="edge8" class="edge">
<title>Node2&#45;&gt;Node9</title>
<path fill="none" stroke="#63b8ff" d="M254.82,-110C293.92,-101.68 355.19,-88.49 416.86,-74.34"/>
<polygon fill="#63b8ff" stroke="#63b8ff" points="417.8,-77.72 426.76,-72.06 416.23,-70.89 417.8,-77.72"/>
</g>
<!-- Node4 -->
<g id="node4" class="node">
<title>Node4</title>
<g id="a_node4"><a xlink:title=" ">
<polygon fill="#e0e0e0" stroke="#999999" points="232,-19 107,-19 107,0 232,0 232,-19"/>
<text text-anchor="middle" x="169.5" y="-7" font-family="ui-monospace,monospace" font-size="10.00">boost/qvm_lite.hpp</text>
</a>
</g>
</g>
<!-- Node3&#45;&gt;Node4 -->
<g id="edge3" class="edge">
<title>Node3&#45;&gt;Node4</title>
<path fill="none" stroke="#63b8ff" d="M124.42,-54.75C132.28,-47.03 143.93,-35.6 153.42,-26.28"/>
<polygon fill="#63b8ff" stroke="#63b8ff" points="156.06,-28.59 160.75,-19.09 151.16,-23.6 156.06,-28.59"/>
</g>
<!-- Node5 -->
<g id="node5" class="node">
<title>Node5</title>
<g id="a_node5"><a target="_parent" xlink:href="http://en.cppreference.com/w/cpp/header/iosfwd.html" xlink:title=" ">
<polygon fill="white" stroke="#666666" points="89,-19 36,-19 36,0 89,0 89,-19"/>
<text text-anchor="middle" x="62.5" y="-7" font-family="ui-monospace,monospace" font-size="10.00">iosfwd</text>
</a>
</g>
</g>
<!-- Node3&#45;&gt;Node5 -->
<g id="edge4" class="edge">
<title>Node3&#45;&gt;Node5</title>
<path fill="none" stroke="#63b8ff" d="M106.75,-54.75C99.03,-47.03 87.6,-35.6 78.28,-26.28"/>
<polygon fill="#63b8ff" stroke="#63b8ff" points="80.64,-23.69 71.09,-19.09 75.69,-28.64 80.64,-23.69"/>
</g>
<!-- Node11 -->
<g id="node11" class="node">
<title>Node11</title>
<g id="a_node11"><a xlink:href="Finally_8hpp.html" target="_top" xlink:title="Contains jngl::Finally class.">
<polygon fill="white" stroke="#666666" points="386,-129 303,-129 303,-110 386,-110 386,-129"/>
<text text-anchor="middle" x="344.5" y="-117" font-family="ui-monospace,monospace" font-size="10.00">Finally.hpp</text>
</a>
</g>
</g>
<!-- Node10&#45;&gt;Node11 -->
<g id="edge10" class="edge">
<title>Node10&#45;&gt;Node11</title>
<path fill="none" stroke="#63b8ff" d="M387.08,-164.75C379.73,-157.11 368.87,-145.82 359.96,-136.56"/>
<polygon fill="#63b8ff" stroke="#63b8ff" points="362.22,-133.87 352.76,-129.09 357.18,-138.72 362.22,-133.87"/>
</g>
<!-- Node12 -->
<g id="node12" class="node">
<title>Node12</title>
<g id="a_node12"><a xlink:href="other_8hpp.html" target="_top" xlink:title="Miscellaneous functions.">
<polygon fill="white" stroke="#666666" points="600,-129 529,-129 529,-110 600,-110 600,-129"/>
<text text-anchor="middle" x="564.5" y="-117" font-family="ui-monospace,monospace" font-size="10.00">other.hpp</text>
</a>
</g>
</g>
<!-- Node10&#45;&gt;Node12 -->
<g id="edge12" class="edge">
<title>Node10&#45;&gt;Node12</title>
<path fill="none" stroke="#63b8ff" d="M422.65,-164.98C451.03,-156.09 495.73,-142.07 527.36,-132.15"/>
<polygon fill="#63b8ff" stroke="#63b8ff" points="528.64,-135.41 537.13,-129.08 526.55,-128.73 528.64,-135.41"/>
</g>
<!-- Node15 -->
<g id="node15" class="node">
<title>Node15</title>
<g id="a_node15"><a xlink:href="window_8hpp.html" target="_top" xlink:title="Functions related to the main window.">
<polygon fill="white" stroke="#666666" points="486,-129 409,-129 409,-110 486,-110 486,-129"/>
<text text-anchor="middle" x="447.5" y="-117" font-family="ui-monospace,monospace" font-size="10.00">window.hpp</text>
</a>
</g>
</g>
<!-- Node10&#45;&gt;Node15 -->
<g id="edge16" class="edge">
<title>Node10&#45;&gt;Node15</title>
<path fill="none" stroke="#63b8ff" d="M404.09,-164.75C411.66,-157.03 422.88,-145.6 432.01,-136.28"/>
<polygon fill="#63b8ff" stroke="#63b8ff" points="434.57,-138.68 439.07,-129.09 429.57,-133.78 434.57,-138.68"/>
</g>
<!-- Node11&#45;&gt;Node6 -->
<g id="edge11" class="edge">
<title>Node11&#45;&gt;Node6</title>
<path fill="none" stroke="#63b8ff" d="M333.41,-109.98C323.01,-102 307.24,-89.88 294.78,-80.31"/>
<polygon fill="#63b8ff" stroke="#63b8ff" points="296.85,-77.49 286.79,-74.17 292.59,-83.04 296.85,-77.49"/>
</g>
<!-- Node12&#45;&gt;Node9 -->
<g id="edge14" class="edge">
<title>Node12&#45;&gt;Node9</title>
<path fill="none" stroke="#63b8ff" d="M546.67,-109.98C528.89,-101.5 501.35,-88.35 480.82,-78.54"/>
<polygon fill="#63b8ff" stroke="#63b8ff" points="482.19,-75.32 471.66,-74.17 479.17,-81.64 482.19,-75.32"/>
</g>
<!-- Node13 -->
<g id="node13" class="node">
<title>Node13</title>
<g id="a_node13"><a target="_parent" xlink:href="http://en.cppreference.com/w/cpp/header/sstream.html" xlink:title=" ">
<polygon fill="white" stroke="#666666" points="693,-74 634,-74 634,-55 693,-55 693,-74"/>
<text text-anchor="middle" x="663.5" y="-62" font-family="ui-monospace,monospace" font-size="10.00">sstream</text>
</a>
</g>
</g>
<!-- Node12&#45;&gt;Node13 -->
<g id="edge13" class="edge">
<title>Node12&#45;&gt;Node13</title>
<path fill="none" stroke="#63b8ff" d="M580.41,-109.98C596.05,-101.61 620.16,-88.7 638.38,-78.95"/>
<polygon fill="#63b8ff" stroke="#63b8ff" points="640.14,-81.98 647.3,-74.17 636.84,-75.8 640.14,-81.98"/>
</g>
<!-- Node14 -->
<g id="node14" class="node">
<title>Node14</title>
<g id="a_node14"><a target="_parent" xlink:href="http://en.cppreference.com/w/cpp/header/vector.html" xlink:title=" ">
<polygon fill="white" stroke="#666666" points="616,-74 563,-74 563,-55 616,-55 616,-74"/>
<text text-anchor="middle" x="589.5" y="-62" font-family="ui-monospace,monospace" font-size="10.00">vector</text>
</a>
</g>
</g>
<!-- Node12&#45;&gt;Node14 -->
<g id="edge15" class="edge">
<title>Node12&#45;&gt;Node14</title>
<path fill="none" stroke="#63b8ff" d="M568.63,-109.75C572.01,-102.57 576.92,-92.18 581.12,-83.27"/>
<polygon fill="#63b8ff" stroke="#63b8ff" points="584.35,-84.63 585.45,-74.09 578.02,-81.64 584.35,-84.63"/>
</g>
<!-- Node15&#45;&gt;Node6 -->
<g id="edge20" class="edge">
<title>Node15&#45;&gt;Node6</title>
<path fill="none" stroke="#63b8ff" d="M419.87,-109.98C390.99,-101.09 345.49,-87.07 313.3,-77.15"/>
<polygon fill="#63b8ff" stroke="#63b8ff" points="313.94,-73.68 303.35,-74.08 311.88,-80.37 313.94,-73.68"/>
</g>
<!-- Node15&#45;&gt;Node9 -->
<g id="edge21" class="edge">
<title>Node15&#45;&gt;Node9</title>
<path fill="none" stroke="#63b8ff" d="M448.49,-109.75C449.28,-102.8 450.4,-92.85 451.39,-84.13"/>
<polygon fill="#63b8ff" stroke="#63b8ff" points="454.88,-84.42 452.53,-74.09 447.92,-83.63 454.88,-84.42"/>
</g>
<!-- Node15&#45;&gt;Node14 -->
<g id="edge22" class="edge">
<title>Node15&#45;&gt;Node14</title>
<path fill="none" stroke="#63b8ff" d="M470.31,-109.98C493.67,-101.27 530.2,-87.63 556.67,-77.75"/>
<polygon fill="#63b8ff" stroke="#63b8ff" points="558.13,-80.95 566.27,-74.17 555.68,-74.39 558.13,-80.95"/>
</g>
<!-- Node16 -->
<g id="node16" class="node">
<title>Node16</title>
<g id="a_node16"><a xlink:href="Pixels_8hpp.html" target="_top" xlink:title="Contains jngl::Pixels class.">
<polygon fill="white" stroke="#666666" points="409,-74 332,-74 332,-55 409,-55 409,-74"/>
<text text-anchor="middle" x="370.5" y="-62" font-family="ui-monospace,monospace" font-size="10.00">Pixels.hpp</text>
</a>
</g>
</g>
<!-- Node15&#45;&gt;Node16 -->
<g id="edge17" class="edge">
<title>Node15&#45;&gt;Node16</title>
<path fill="none" stroke="#63b8ff" d="M435.13,-109.98C423.41,-101.92 405.58,-89.65 391.61,-80.03"/>
<polygon fill="#63b8ff" stroke="#63b8ff" points="393.32,-76.96 383.1,-74.17 389.35,-82.72 393.32,-76.96"/>
</g>
<!-- Node18 -->
<g id="node18" class="node">
<title>Node18</title>
<g id="a_node18"><a target="_parent" xlink:href="http://en.cppreference.com/w/cpp/header/array.html" xlink:title=" ">
<polygon fill="white" stroke="#666666" points="545,-74 498,-74 498,-55 545,-55 545,-74"/>
<text text-anchor="middle" x="521.5" y="-62" font-family="ui-monospace,monospace" font-size="10.00">array</text>
</a>
</g>
</g>
<!-- Node15&#45;&gt;Node18 -->
<g id="edge19" class="edge">
<title>Node15&#45;&gt;Node18</title>
<path fill="none" stroke="#63b8ff" d="M459.39,-109.98C470.65,-101.92 487.79,-89.65 501.21,-80.03"/>
<polygon fill="#63b8ff" stroke="#63b8ff" points="503.3,-82.84 509.39,-74.17 499.23,-77.15 503.3,-82.84"/>
</g>
<!-- Node17 -->
<g id="node17" class="node">
<title>Node17</title>
<g id="a_node17"><a target="_parent" xlink:href="http://en.cppreference.com/w/cpp/header/cstdint.html" xlink:title=" ">
<polygon fill="white" stroke="#666666" points="400,-19 341,-19 341,0 400,0 400,-19"/>
<text text-anchor="middle" x="370.5" y="-7" font-family="ui-monospace,monospace" font-size="10.00">cstdint</text>
</a>
</g>
</g>
<!-- Node16&#45;&gt;Node17 -->
<g id="edge18" class="edge">
<title>Node16&#45;&gt;Node17</title>
<path fill="none" stroke="#63b8ff" d="M370.5,-54.75C370.5,-47.8 370.5,-37.85 370.5,-29.13"/>
<polygon fill="#63b8ff" stroke="#63b8ff" points="374,-29.09 370.5,-19.09 367,-29.09 374,-29.09"/>
</g>
</g>
</svg>
