<?xml version="1.0" encoding="UTF-8" standalone="no"?>
<!DOCTYPE svg PUBLIC "-//W3C//DTD SVG 1.1//EN"
 "http://www.w3.org/Graphics/SVG/1.1/DTD/svg11.dtd">
<!-- Generated by graphviz version 2.42.4 (0)
 -->
<!-- Title: jngl/init.hpp Pages: 1 -->
<svg width="705pt" height="196pt"
 viewBox="0.00 0.00 705.00 196.00" xmlns="http://www.w3.org/2000/svg" xmlns:xlink="http://www.w3.org/1999/xlink">
<g id="graph0" class="graph" transform="scale(1 1) rotate(0) translate(4 192)">
<title>jngl/init.hpp</title>
<polygon fill="white" stroke="transparent" points="-4,4 -4,-192 701,-192 701,4 -4,4"/>
<!-- Node1 -->
<g id="node1" class="node">
<title>Node1</title>
<g id="a_node1"><a xlink:title="Include this file only once, as it defines the main function.">
<polygon fill="#bfbfbf" stroke="black" points="418,-168.5 418,-187.5 513,-187.5 513,-168.5 418,-168.5"/>
<text text-anchor="middle" x="465.5" y="-175.5" font-family="'Consolas',monospace" font-size="10.00">jngl/init.hpp</text>
</a>
</g>
</g>
<!-- Node2 -->
<g id="node2" class="node">
<title>Node2</title>
<g id="a_node2"><a xlink:href="App_8hpp.html" target="_top" xlink:title=" ">
<polygon fill="white" stroke="black" points="315,-56.5 315,-75.5 374,-75.5 374,-56.5 315,-56.5"/>
<text text-anchor="middle" x="344.5" y="-63.5" font-family="'Consolas',monospace" font-size="10.00">App.hpp</text>
</a>
</g>
</g>
<!-- Node1&#45;&gt;Node2 -->
<g id="edge1" class="edge">
<title>Node1&#45;&gt;Node2</title>
<path fill="none" stroke="midnightblue" d="M440.43,-168.49C421.81,-161.16 396.76,-149.06 379.5,-132 366.13,-118.79 356.6,-99.39 350.89,-85.22"/>
<polygon fill="midnightblue" stroke="midnightblue" points="354.06,-83.73 347.27,-75.6 347.51,-86.19 354.06,-83.73"/>
</g>
<!-- Node5 -->
<g id="node5" class="node">
<title>Node5</title>
<g id="a_node5"><a xlink:href="main_8hpp_source.html" target="_top" xlink:title=" ">
<polygon fill="white" stroke="black" points="180,-112.5 180,-131.5 245,-131.5 245,-112.5 180,-112.5"/>
<text text-anchor="middle" x="212.5" y="-119.5" font-family="'Consolas',monospace" font-size="10.00">main.hpp</text>
</a>
</g>
</g>
<!-- Node1&#45;&gt;Node5 -->
<g id="edge4" class="edge">
<title>Node1&#45;&gt;Node5</title>
<path fill="none" stroke="midnightblue" d="M425.41,-168.44C378.94,-158.52 302.66,-142.24 255.14,-132.1"/>
<polygon fill="midnightblue" stroke="midnightblue" points="255.67,-128.64 245.16,-129.97 254.21,-135.48 255.67,-128.64"/>
</g>
<!-- Node12 -->
<g id="node12" class="node">
<title>Node12</title>
<g id="a_node12"><a xlink:href="screen_8hpp.html" target="_top" xlink:title=" ">
<polygon fill="white" stroke="black" points="472,-112.5 472,-131.5 549,-131.5 549,-112.5 472,-112.5"/>
<text text-anchor="middle" x="510.5" y="-119.5" font-family="'Consolas',monospace" font-size="10.00">screen.hpp</text>
</a>
</g>
</g>
<!-- Node1&#45;&gt;Node12 -->
<g id="edge13" class="edge">
<title>Node1&#45;&gt;Node12</title>
<path fill="none" stroke="midnightblue" d="M472.93,-168.08C479.35,-160.38 488.81,-149.03 496.62,-139.65"/>
<polygon fill="midnightblue" stroke="midnightblue" points="499.49,-141.67 503.21,-131.75 494.12,-137.19 499.49,-141.67"/>
</g>
<!-- Node16 -->
<g id="node16" class="node">
<title>Node16</title>
<g id="a_node16"><a xlink:href="work_8hpp.html" target="_top" xlink:title=" ">
<polygon fill="white" stroke="black" points="389,-112.5 389,-131.5 454,-131.5 454,-112.5 389,-112.5"/>
<text text-anchor="middle" x="421.5" y="-119.5" font-family="'Consolas',monospace" font-size="10.00">work.hpp</text>
</a>
</g>
</g>
<!-- Node1&#45;&gt;Node16 -->
<g id="edge17" class="edge">
<title>Node1&#45;&gt;Node16</title>
<path fill="none" stroke="midnightblue" d="M458.23,-168.08C451.96,-160.38 442.71,-149.03 435.07,-139.65"/>
<polygon fill="midnightblue" stroke="midnightblue" points="437.66,-137.29 428.63,-131.75 432.23,-141.71 437.66,-137.29"/>
</g>
<!-- Node18 -->
<g id="node18" class="node">
<title>Node18</title>
<g id="a_node18"><a target="_parent" xlink:href="http://en.cppreference.com/w/cpp/header/cmath.html" target="_top" xlink:title=" ">
<polygon fill="white" stroke="black" points="567,-112.5 567,-131.5 614,-131.5 614,-112.5 567,-112.5"/>
<text text-anchor="middle" x="590.5" y="-119.5" font-family="'Consolas',monospace" font-size="10.00">cmath</text>
</a>
</g>
</g>
<!-- Node1&#45;&gt;Node18 -->
<g id="edge21" class="edge">
<title>Node1&#45;&gt;Node18</title>
<path fill="none" stroke="midnightblue" d="M485.31,-168.44C505.79,-159.6 537.98,-145.69 561.36,-135.59"/>
<polygon fill="midnightblue" stroke="midnightblue" points="562.99,-138.7 570.79,-131.52 560.22,-132.27 562.99,-138.7"/>
</g>
<!-- Node19 -->
<g id="node19" class="node">
<title>Node19</title>
<g id="a_node19"><a target="_parent" xlink:href="http://en.cppreference.com/w/cpp/header/optional.html" target="_top" xlink:title=" ">
<polygon fill="white" stroke="black" points="632,-112.5 632,-131.5 697,-131.5 697,-112.5 632,-112.5"/>
<text text-anchor="middle" x="664.5" y="-119.5" font-family="'Consolas',monospace" font-size="10.00">optional</text>
</a>
</g>
</g>
<!-- Node1&#45;&gt;Node19 -->
<g id="edge22" class="edge">
<title>Node1&#45;&gt;Node19</title>
<path fill="none" stroke="midnightblue" d="M497.03,-168.44C531.09,-159.2 585.51,-144.44 623.02,-134.26"/>
<polygon fill="midnightblue" stroke="midnightblue" points="624.38,-137.51 633.12,-131.52 622.55,-130.76 624.38,-137.51"/>
</g>
<!-- Node3 -->
<g id="node3" class="node">
<title>Node3</title>
<g id="a_node3"><a target="_parent" xlink:href="http://en.cppreference.com/w/cpp/header/memory.html" target="_top" xlink:title=" ">
<polygon fill="white" stroke="black" points="395,-0.5 395,-19.5 448,-19.5 448,-0.5 395,-0.5"/>
<text text-anchor="middle" x="421.5" y="-7.5" font-family="'Consolas',monospace" font-size="10.00">memory</text>
</a>
</g>
</g>
<!-- Node2&#45;&gt;Node3 -->
<g id="edge2" class="edge">
<title>Node2&#45;&gt;Node3</title>
<path fill="none" stroke="midnightblue" d="M356.87,-56.32C368.66,-48.06 386.63,-35.45 400.64,-25.63"/>
<polygon fill="midnightblue" stroke="midnightblue" points="402.98,-28.26 409.16,-19.65 398.96,-22.53 402.98,-28.26"/>
</g>
<!-- Node4 -->
<g id="node4" class="node">
<title>Node4</title>
<g id="a_node4"><a target="_parent" xlink:href="http://en.cppreference.com/w/cpp/header/string.html" target="_top" xlink:title=" ">
<polygon fill="white" stroke="black" points="243,-0.5 243,-19.5 296,-19.5 296,-0.5 243,-0.5"/>
<text text-anchor="middle" x="269.5" y="-7.5" font-family="'Consolas',monospace" font-size="10.00">string</text>
</a>
</g>
</g>
<!-- Node2&#45;&gt;Node4 -->
<g id="edge3" class="edge">
<title>Node2&#45;&gt;Node4</title>
<path fill="none" stroke="midnightblue" d="M332.45,-56.32C321.04,-48.11 303.67,-35.6 290.07,-25.81"/>
<polygon fill="midnightblue" stroke="midnightblue" points="291.93,-22.84 281.77,-19.83 287.84,-28.52 291.93,-22.84"/>
</g>
<!-- Node6 -->
<g id="node6" class="node">
<title>Node6</title>
<g id="a_node6"><a xlink:href="Finally_8hpp.html" target="_top" xlink:title=" ">
<polygon fill="white" stroke="black" points="19,-56.5 19,-75.5 102,-75.5 102,-56.5 19,-56.5"/>
<text text-anchor="middle" x="60.5" y="-63.5" font-family="'Consolas',monospace" font-size="10.00">Finally.hpp</text>
</a>
</g>
</g>
<!-- Node5&#45;&gt;Node6 -->
<g id="edge5" class="edge">
<title>Node5&#45;&gt;Node6</title>
<path fill="none" stroke="midnightblue" d="M188.42,-112.44C162.96,-103.4 122.61,-89.06 94.04,-78.92"/>
<polygon fill="midnightblue" stroke="midnightblue" points="95.07,-75.57 84.47,-75.52 92.72,-82.16 95.07,-75.57"/>
</g>
<!-- Node8 -->
<g id="node8" class="node">
<title>Node8</title>
<g id="a_node8"><a xlink:href="other_8hpp.html" target="_top" xlink:title=" ">
<polygon fill="white" stroke="black" points="131,-56.5 131,-75.5 202,-75.5 202,-56.5 131,-56.5"/>
<text text-anchor="middle" x="166.5" y="-63.5" font-family="'Consolas',monospace" font-size="10.00">other.hpp</text>
</a>
</g>
</g>
<!-- Node5&#45;&gt;Node8 -->
<g id="edge7" class="edge">
<title>Node5&#45;&gt;Node8</title>
<path fill="none" stroke="midnightblue" d="M204.9,-112.08C198.27,-104.3 188.48,-92.8 180.44,-83.37"/>
<polygon fill="midnightblue" stroke="midnightblue" points="183.1,-81.09 173.95,-75.75 177.77,-85.63 183.1,-81.09"/>
</g>
<!-- Node11 -->
<g id="node11" class="node">
<title>Node11</title>
<g id="a_node11"><a xlink:href="window_8hpp.html" target="_top" xlink:title="Functions related to the main window.">
<polygon fill="white" stroke="black" points="220,-56.5 220,-75.5 297,-75.5 297,-56.5 220,-56.5"/>
<text text-anchor="middle" x="258.5" y="-63.5" font-family="'Consolas',monospace" font-size="10.00">window.hpp</text>
</a>
</g>
</g>
<!-- Node5&#45;&gt;Node11 -->
<g id="edge11" class="edge">
<title>Node5&#45;&gt;Node11</title>
<path fill="none" stroke="midnightblue" d="M220.1,-112.08C226.73,-104.3 236.52,-92.8 244.56,-83.37"/>
<polygon fill="midnightblue" stroke="midnightblue" points="247.23,-85.63 251.05,-75.75 241.9,-81.09 247.23,-85.63"/>
</g>
<!-- Node7 -->
<g id="node7" class="node">
<title>Node7</title>
<g id="a_node7"><a target="_parent" xlink:href="http://en.cppreference.com/w/cpp/header/functional.html" target="_top" xlink:title=" ">
<polygon fill="white" stroke="black" points="0,-0.5 0,-19.5 77,-19.5 77,-0.5 0,-0.5"/>
<text text-anchor="middle" x="38.5" y="-7.5" font-family="'Consolas',monospace" font-size="10.00">functional</text>
</a>
</g>
</g>
<!-- Node6&#45;&gt;Node7 -->
<g id="edge6" class="edge">
<title>Node6&#45;&gt;Node7</title>
<path fill="none" stroke="midnightblue" d="M56.87,-56.08C53.89,-48.77 49.57,-38.18 45.88,-29.1"/>
<polygon fill="midnightblue" stroke="midnightblue" points="49.08,-27.69 42.07,-19.75 42.6,-30.33 49.08,-27.69"/>
</g>
<!-- Node8&#45;&gt;Node4 -->
<g id="edge9" class="edge">
<title>Node8&#45;&gt;Node4</title>
<path fill="none" stroke="midnightblue" d="M183.05,-56.32C199.49,-47.7 224.93,-34.36 243.97,-24.39"/>
<polygon fill="midnightblue" stroke="midnightblue" points="245.76,-27.4 252.99,-19.65 242.51,-21.2 245.76,-27.4"/>
</g>
<!-- Node9 -->
<g id="node9" class="node">
<title>Node9</title>
<g id="a_node9"><a target="_parent" xlink:href="http://en.cppreference.com/w/cpp/header/sstream.html" target="_top" xlink:title=" ">
<polygon fill="white" stroke="black" points="95,-0.5 95,-19.5 154,-19.5 154,-0.5 95,-0.5"/>
<text text-anchor="middle" x="124.5" y="-7.5" font-family="'Consolas',monospace" font-size="10.00">sstream</text>
</a>
</g>
</g>
<!-- Node8&#45;&gt;Node9 -->
<g id="edge8" class="edge">
<title>Node8&#45;&gt;Node9</title>
<path fill="none" stroke="midnightblue" d="M159.56,-56.08C153.57,-48.38 144.75,-37.03 137.45,-27.65"/>
<polygon fill="midnightblue" stroke="midnightblue" points="140.21,-25.5 131.31,-19.75 134.68,-29.79 140.21,-25.5"/>
</g>
<!-- Node10 -->
<g id="node10" class="node">
<title>Node10</title>
<g id="a_node10"><a target="_parent" xlink:href="http://en.cppreference.com/w/cpp/header/vector.html" target="_top" xlink:title=" ">
<polygon fill="white" stroke="black" points="172,-0.5 172,-19.5 225,-19.5 225,-0.5 172,-0.5"/>
<text text-anchor="middle" x="198.5" y="-7.5" font-family="'Consolas',monospace" font-size="10.00">vector</text>
</a>
</g>
</g>
<!-- Node8&#45;&gt;Node10 -->
<g id="edge10" class="edge">
<title>Node8&#45;&gt;Node10</title>
<path fill="none" stroke="midnightblue" d="M171.78,-56.08C176.21,-48.61 182.66,-37.72 188.12,-28.52"/>
<polygon fill="midnightblue" stroke="midnightblue" points="191.23,-30.14 193.31,-19.75 185.21,-26.57 191.23,-30.14"/>
</g>
<!-- Node11&#45;&gt;Node4 -->
<g id="edge12" class="edge">
<title>Node11&#45;&gt;Node4</title>
<path fill="none" stroke="midnightblue" d="M260.32,-56.08C261.77,-48.93 263.87,-38.64 265.69,-29.69"/>
<polygon fill="midnightblue" stroke="midnightblue" points="269.15,-30.25 267.72,-19.75 262.29,-28.85 269.15,-30.25"/>
</g>
<!-- Node13 -->
<g id="node13" class="node">
<title>Node13</title>
<g id="a_node13"><a xlink:href="Vec2_8hpp.html" target="_top" xlink:title=" ">
<polygon fill="white" stroke="black" points="508,-56.5 508,-75.5 573,-75.5 573,-56.5 508,-56.5"/>
<text text-anchor="middle" x="540.5" y="-63.5" font-family="'Consolas',monospace" font-size="10.00">Vec2.hpp</text>
</a>
</g>
</g>
<!-- Node12&#45;&gt;Node13 -->
<g id="edge14" class="edge">
<title>Node12&#45;&gt;Node13</title>
<path fill="none" stroke="midnightblue" d="M515.45,-112.08C519.6,-104.61 525.65,-93.72 530.77,-84.52"/>
<polygon fill="midnightblue" stroke="midnightblue" points="533.84,-86.19 535.64,-75.75 527.72,-82.79 533.84,-86.19"/>
</g>
<!-- Node14 -->
<g id="node14" class="node">
<title>Node14</title>
<g id="a_node14"><a xlink:title=" ">
<polygon fill="white" stroke="#bfbfbf" points="561,-0.5 561,-19.5 680,-19.5 680,-0.5 561,-0.5"/>
<text text-anchor="middle" x="620.5" y="-7.5" font-family="'Consolas',monospace" font-size="10.00">boost/version.hpp</text>
</a>
</g>
</g>
<!-- Node13&#45;&gt;Node14 -->
<g id="edge15" class="edge">
<title>Node13&#45;&gt;Node14</title>
<path fill="none" stroke="midnightblue" d="M553.35,-56.32C565.72,-47.98 584.63,-35.21 599.24,-25.35"/>
<polygon fill="midnightblue" stroke="midnightblue" points="601.35,-28.15 607.68,-19.65 597.43,-22.35 601.35,-28.15"/>
</g>
<!-- Node15 -->
<g id="node15" class="node">
<title>Node15</title>
<g id="a_node15"><a target="_parent" xlink:href="http://en.cppreference.com/w/cpp/header/iosfwd.html" target="_top" xlink:title=" ">
<polygon fill="white" stroke="black" points="490,-0.5 490,-19.5 543,-19.5 543,-0.5 490,-0.5"/>
<text text-anchor="middle" x="516.5" y="-7.5" font-family="'Consolas',monospace" font-size="10.00">iosfwd</text>
</a>
</g>
</g>
<!-- Node13&#45;&gt;Node15 -->
<g id="edge16" class="edge">
<title>Node13&#45;&gt;Node15</title>
<path fill="none" stroke="midnightblue" d="M536.54,-56.08C533.29,-48.77 528.58,-38.18 524.55,-29.1"/>
<polygon fill="midnightblue" stroke="midnightblue" points="527.65,-27.47 520.39,-19.75 521.25,-30.31 527.65,-27.47"/>
</g>
<!-- Node16&#45;&gt;Node3 -->
<g id="edge20" class="edge">
<title>Node16&#45;&gt;Node3</title>
<path fill="none" stroke="midnightblue" d="M432.63,-112.25C446.48,-100.23 467.4,-77.61 459.5,-56 455.44,-44.91 447.31,-34.67 439.61,-26.76"/>
<polygon fill="midnightblue" stroke="midnightblue" points="441.86,-24.07 432.21,-19.7 437.03,-29.14 441.86,-24.07"/>
</g>
<!-- Node17 -->
<g id="node17" class="node">
<title>Node17</title>
<g id="a_node17"><a xlink:href="job_8hpp.html" target="_top" xlink:title=" ">
<polygon fill="white" stroke="black" points="392,-56.5 392,-75.5 451,-75.5 451,-56.5 392,-56.5"/>
<text text-anchor="middle" x="421.5" y="-63.5" font-family="'Consolas',monospace" font-size="10.00">job.hpp</text>
</a>
</g>
</g>
<!-- Node16&#45;&gt;Node17 -->
<g id="edge18" class="edge">
<title>Node16&#45;&gt;Node17</title>
<path fill="none" stroke="midnightblue" d="M421.5,-112.08C421.5,-105.01 421.5,-94.86 421.5,-85.99"/>
<polygon fill="midnightblue" stroke="midnightblue" points="425,-85.75 421.5,-75.75 418,-85.75 425,-85.75"/>
</g>
<!-- Node17&#45;&gt;Node3 -->
<g id="edge19" class="edge">
<title>Node17&#45;&gt;Node3</title>
<path fill="none" stroke="midnightblue" d="M421.5,-56.08C421.5,-49.01 421.5,-38.86 421.5,-29.99"/>
<polygon fill="midnightblue" stroke="midnightblue" points="425,-29.75 421.5,-19.75 418,-29.75 425,-29.75"/>
</g>
</g>
</svg>
