<?xml version="1.0" encoding="UTF-8" standalone="no"?>
<!DOCTYPE svg PUBLIC "-//W3C//DTD SVG 1.1//EN"
 "http://www.w3.org/Graphics/SVG/1.1/DTD/svg11.dtd">
<!-- Generated by graphviz version 5.0.0 (0)
 -->
<!-- Title: jngl/init.hpp Pages: 1 -->
<svg width="740pt" height="247pt"
 viewBox="0.00 0.00 740.25 247.00" xmlns="http://www.w3.org/2000/svg" xmlns:xlink="http://www.w3.org/1999/xlink">
<g id="graph0" class="graph" transform="scale(1 1) rotate(0) translate(4 243)">
<title>jngl/init.hpp</title>
<!-- Node1 -->
<g id="node1" class="node">
<title>Node1</title>
<g id="a_node1"><a xlink:title="Include this file only once, as it defines the main function.">
<polygon fill="#999999" stroke="#666666" points="355.25,-239 260.25,-239 260.25,-220 355.25,-220 355.25,-239"/>
<text text-anchor="middle" x="307.75" y="-227" font-family="ui-monospace,monospace" font-size="10.00">jngl/init.hpp</text>
</a>
</g>
</g>
<!-- Node2 -->
<g id="node2" class="node">
<title>Node2</title>
<g id="a_node2"><a xlink:href="App_8hpp.html" target="_top" xlink:title="Contains jngl::App class.">
<polygon fill="white" stroke="#666666" points="148.25,-129 89.25,-129 89.25,-110 148.25,-110 148.25,-129"/>
<text text-anchor="middle" x="118.75" y="-117" font-family="ui-monospace,monospace" font-size="10.00">App.hpp</text>
</a>
</g>
</g>
<!-- Node1&#45;&gt;Node2 -->
<g id="edge1" class="edge">
<title>Node1&#45;&gt;Node2</title>
<path fill="none" stroke="#63b8ff" d="M292.6,-219.84C259.76,-201.08 181.79,-156.52 142.39,-134.01"/>
<polygon fill="#63b8ff" stroke="#63b8ff" points="144.13,-130.97 133.71,-129.05 140.65,-137.05 144.13,-130.97"/>
</g>
<!-- Node5 -->
<g id="node5" class="node">
<title>Node5</title>
<g id="a_node5"><a xlink:href="AppParameters_8hpp.html" target="_top" xlink:title="Contains jngl::AppParameters struct.">
<polygon fill="white" stroke="#666666" points="285.25,-129 166.25,-129 166.25,-110 285.25,-110 285.25,-129"/>
<text text-anchor="middle" x="225.75" y="-117" font-family="ui-monospace,monospace" font-size="10.00">AppParameters.hpp</text>
</a>
</g>
</g>
<!-- Node1&#45;&gt;Node5 -->
<g id="edge4" class="edge">
<title>Node1&#45;&gt;Node5</title>
<path fill="none" stroke="#63b8ff" d="M296.46,-219.86C286.04,-211.49 270.58,-198.03 259.75,-184 248.9,-169.94 239.62,-151.94 233.51,-138.69"/>
<polygon fill="#63b8ff" stroke="#63b8ff" points="236.58,-136.98 229.32,-129.26 230.18,-139.82 236.58,-136.98"/>
</g>
<!-- Node11 -->
<g id="node11" class="node">
<title>Node11</title>
<g id="a_node11"><a xlink:href="main_8hpp.html" target="_top" xlink:title="Defines macros for the main entry point.">
<polygon fill="white" stroke="#666666" points="530.25,-184 465.25,-184 465.25,-165 530.25,-165 530.25,-184"/>
<text text-anchor="middle" x="497.75" y="-172" font-family="ui-monospace,monospace" font-size="10.00">main.hpp</text>
</a>
</g>
</g>
<!-- Node1&#45;&gt;Node11 -->
<g id="edge12" class="edge">
<title>Node1&#45;&gt;Node11</title>
<path fill="none" stroke="#63b8ff" d="M338.28,-219.98C370.45,-211.01 421.31,-196.82 456.92,-186.89"/>
<polygon fill="#63b8ff" stroke="#63b8ff" points="458.29,-190.14 466.98,-184.08 456.41,-183.4 458.29,-190.14"/>
</g>
<!-- Node20 -->
<g id="node20" class="node">
<title>Node20</title>
<g id="a_node20"><a xlink:href="message_8hpp.html" target="_top" xlink:title=" ">
<polygon fill="white" stroke="#666666" points="447.25,-184 364.25,-184 364.25,-165 447.25,-165 447.25,-184"/>
<text text-anchor="middle" x="405.75" y="-172" font-family="ui-monospace,monospace" font-size="10.00">message.hpp</text>
</a>
</g>
</g>
<!-- Node1&#45;&gt;Node20 -->
<g id="edge26" class="edge">
<title>Node1&#45;&gt;Node20</title>
<path fill="none" stroke="#63b8ff" d="M323.5,-219.98C338.98,-211.61 362.84,-198.7 380.89,-188.95"/>
<polygon fill="#63b8ff" stroke="#63b8ff" points="382.59,-192.01 389.72,-184.17 379.26,-185.85 382.59,-192.01"/>
</g>
<!-- Node21 -->
<g id="node21" class="node">
<title>Node21</title>
<g id="a_node21"><a xlink:href="screen_8hpp.html" target="_top" xlink:title=" ">
<polygon fill="white" stroke="#666666" points="346.25,-184 269.25,-184 269.25,-165 346.25,-165 346.25,-184"/>
<text text-anchor="middle" x="307.75" y="-172" font-family="ui-monospace,monospace" font-size="10.00">screen.hpp</text>
</a>
</g>
</g>
<!-- Node1&#45;&gt;Node21 -->
<g id="edge28" class="edge">
<title>Node1&#45;&gt;Node21</title>
<path fill="none" stroke="#63b8ff" d="M307.75,-219.75C307.75,-212.8 307.75,-202.85 307.75,-194.13"/>
<polygon fill="#63b8ff" stroke="#63b8ff" points="311.25,-194.09 307.75,-184.09 304.25,-194.09 311.25,-194.09"/>
</g>
<!-- Node22 -->
<g id="node22" class="node">
<title>Node22</title>
<g id="a_node22"><a xlink:href="work_8hpp.html" target="_top" xlink:title=" ">
<polygon fill="white" stroke="#666666" points="74.25,-184 9.25,-184 9.25,-165 74.25,-165 74.25,-184"/>
<text text-anchor="middle" x="41.75" y="-172" font-family="ui-monospace,monospace" font-size="10.00">work.hpp</text>
</a>
</g>
</g>
<!-- Node1&#45;&gt;Node22 -->
<g id="edge30" class="edge">
<title>Node1&#45;&gt;Node22</title>
<path fill="none" stroke="#63b8ff" d="M265.01,-219.98C215.38,-210.1 133.99,-193.88 84.4,-184"/>
<polygon fill="#63b8ff" stroke="#63b8ff" points="84.81,-180.51 74.32,-181.99 83.44,-187.38 84.81,-180.51"/>
</g>
<!-- Node24 -->
<g id="node24" class="node">
<title>Node24</title>
<g id="a_node24"><a target="_parent" xlink:href="http://en.cppreference.com/w/cpp/header/cmath.html" xlink:title=" ">
<polygon fill="white" stroke="#666666" points="595.25,-184 548.25,-184 548.25,-165 595.25,-165 595.25,-184"/>
<text text-anchor="middle" x="571.75" y="-172" font-family="ui-monospace,monospace" font-size="10.00">cmath</text>
</a>
</g>
</g>
<!-- Node1&#45;&gt;Node24 -->
<g id="edge35" class="edge">
<title>Node1&#45;&gt;Node24</title>
<path fill="none" stroke="#63b8ff" d="M355.5,-220.35C400.34,-212.47 469.51,-199.74 537.94,-184.3"/>
<polygon fill="#63b8ff" stroke="#63b8ff" points="539.06,-187.63 548.03,-182 537.5,-180.81 539.06,-187.63"/>
</g>
<!-- Node3 -->
<g id="node3" class="node">
<title>Node3</title>
<g id="a_node3"><a target="_parent" xlink:href="http://en.cppreference.com/w/cpp/header/memory.html" xlink:title=" ">
<polygon fill="white" stroke="#666666" points="80.25,-74 27.25,-74 27.25,-55 80.25,-55 80.25,-74"/>
<text text-anchor="middle" x="53.75" y="-62" font-family="ui-monospace,monospace" font-size="10.00">memory</text>
</a>
</g>
</g>
<!-- Node2&#45;&gt;Node3 -->
<g id="edge2" class="edge">
<title>Node2&#45;&gt;Node3</title>
<path fill="none" stroke="#63b8ff" d="M108.31,-109.98C98.6,-102.07 83.93,-90.11 72.25,-80.58"/>
<polygon fill="#63b8ff" stroke="#63b8ff" points="74.35,-77.78 64.38,-74.17 69.92,-83.2 74.35,-77.78"/>
</g>
<!-- Node4 -->
<g id="node4" class="node">
<title>Node4</title>
<g id="a_node4"><a target="_parent" xlink:href="http://en.cppreference.com/w/cpp/header/string.html" xlink:title=" ">
<polygon fill="white" stroke="#666666" points="424.25,-74 371.25,-74 371.25,-55 424.25,-55 424.25,-74"/>
<text text-anchor="middle" x="397.75" y="-62" font-family="ui-monospace,monospace" font-size="10.00">string</text>
</a>
</g>
</g>
<!-- Node2&#45;&gt;Node4 -->
<g id="edge3" class="edge">
<title>Node2&#45;&gt;Node4</title>
<path fill="none" stroke="#63b8ff" d="M148.59,-111.69C151.35,-111.1 154.1,-110.53 156.75,-110 244.79,-92.47 270.05,-92.92 361.12,-74.23"/>
<polygon fill="#63b8ff" stroke="#63b8ff" points="361.96,-77.64 371.04,-72.18 360.53,-70.78 361.96,-77.64"/>
</g>
<!-- Node5&#45;&gt;Node3 -->
<g id="edge9" class="edge">
<title>Node5&#45;&gt;Node3</title>
<path fill="none" stroke="#63b8ff" d="M198.11,-109.98C168.9,-100.98 122.66,-86.73 90.41,-76.8"/>
<polygon fill="#63b8ff" stroke="#63b8ff" points="91.05,-73.33 80.47,-73.73 88.99,-80.02 91.05,-73.33"/>
</g>
<!-- Node5&#45;&gt;Node4 -->
<g id="edge11" class="edge">
<title>Node5&#45;&gt;Node4</title>
<path fill="none" stroke="#63b8ff" d="M253.38,-109.98C282.6,-100.98 328.84,-86.73 361.09,-76.8"/>
<polygon fill="#63b8ff" stroke="#63b8ff" points="362.51,-80.02 371.03,-73.73 360.45,-73.33 362.51,-80.02"/>
</g>
<!-- Node6 -->
<g id="node6" class="node">
<title>Node6</title>
<g id="a_node6"><a xlink:href="Vec2_8hpp.html" target="_top" xlink:title="Contains jngl::Vec2 class.">
<polygon fill="white" stroke="#666666" points="258.25,-74 193.25,-74 193.25,-55 258.25,-55 258.25,-74"/>
<text text-anchor="middle" x="225.75" y="-62" font-family="ui-monospace,monospace" font-size="10.00">Vec2.hpp</text>
</a>
</g>
</g>
<!-- Node5&#45;&gt;Node6 -->
<g id="edge5" class="edge">
<title>Node5&#45;&gt;Node6</title>
<path fill="none" stroke="#63b8ff" d="M225.75,-109.75C225.75,-102.8 225.75,-92.85 225.75,-84.13"/>
<polygon fill="#63b8ff" stroke="#63b8ff" points="229.25,-84.09 225.75,-74.09 222.25,-84.09 229.25,-84.09"/>
</g>
<!-- Node9 -->
<g id="node9" class="node">
<title>Node9</title>
<g id="a_node9"><a target="_parent" xlink:href="http://en.cppreference.com/w/cpp/header/functional.html" xlink:title=" ">
<polygon fill="white" stroke="#666666" points="353.25,-74 276.25,-74 276.25,-55 353.25,-55 353.25,-74"/>
<text text-anchor="middle" x="314.75" y="-62" font-family="ui-monospace,monospace" font-size="10.00">functional</text>
</a>
</g>
</g>
<!-- Node5&#45;&gt;Node9 -->
<g id="edge8" class="edge">
<title>Node5&#45;&gt;Node9</title>
<path fill="none" stroke="#63b8ff" d="M240.05,-109.98C253.85,-101.77 274.99,-89.18 291.26,-79.49"/>
<polygon fill="#63b8ff" stroke="#63b8ff" points="293.39,-82.29 300.19,-74.17 289.81,-76.28 293.39,-82.29"/>
</g>
<!-- Node10 -->
<g id="node10" class="node">
<title>Node10</title>
<g id="a_node10"><a target="_parent" xlink:href="http://en.cppreference.com/w/cpp/header/optional.html" xlink:title=" ">
<polygon fill="white" stroke="#666666" points="175.25,-74 110.25,-74 110.25,-55 175.25,-55 175.25,-74"/>
<text text-anchor="middle" x="142.75" y="-62" font-family="ui-monospace,monospace" font-size="10.00">optional</text>
</a>
</g>
</g>
<!-- Node5&#45;&gt;Node10 -->
<g id="edge10" class="edge">
<title>Node5&#45;&gt;Node10</title>
<path fill="none" stroke="#63b8ff" d="M212.41,-109.98C199.66,-101.84 180.2,-89.41 165.08,-79.76"/>
<polygon fill="#63b8ff" stroke="#63b8ff" points="166.64,-76.6 156.33,-74.17 162.87,-82.5 166.64,-76.6"/>
</g>
<!-- Node7 -->
<g id="node7" class="node">
<title>Node7</title>
<g id="a_node7"><a xlink:title=" ">
<polygon fill="#e0e0e0" stroke="#999999" points="235.25,-19 110.25,-19 110.25,0 235.25,0 235.25,-19"/>
<text text-anchor="middle" x="172.75" y="-7" font-family="ui-monospace,monospace" font-size="10.00">boost/qvm_lite.hpp</text>
</a>
</g>
</g>
<!-- Node6&#45;&gt;Node7 -->
<g id="edge6" class="edge">
<title>Node6&#45;&gt;Node7</title>
<path fill="none" stroke="#63b8ff" d="M217,-54.75C209.28,-47.03 197.85,-35.6 188.53,-26.28"/>
<polygon fill="#63b8ff" stroke="#63b8ff" points="190.88,-23.69 181.34,-19.09 185.93,-28.64 190.88,-23.69"/>
</g>
<!-- Node8 -->
<g id="node8" class="node">
<title>Node8</title>
<g id="a_node8"><a target="_parent" xlink:href="http://en.cppreference.com/w/cpp/header/iosfwd.html" xlink:title=" ">
<polygon fill="white" stroke="#666666" points="306.25,-19 253.25,-19 253.25,0 306.25,0 306.25,-19"/>
<text text-anchor="middle" x="279.75" y="-7" font-family="ui-monospace,monospace" font-size="10.00">iosfwd</text>
</a>
</g>
</g>
<!-- Node6&#45;&gt;Node8 -->
<g id="edge7" class="edge">
<title>Node6&#45;&gt;Node8</title>
<path fill="none" stroke="#63b8ff" d="M234.67,-54.75C242.53,-47.03 254.18,-35.6 263.67,-26.28"/>
<polygon fill="#63b8ff" stroke="#63b8ff" points="266.31,-28.59 271,-19.09 261.41,-23.6 266.31,-28.59"/>
</g>
<!-- Node12 -->
<g id="node12" class="node">
<title>Node12</title>
<g id="a_node12"><a xlink:href="Finally_8hpp.html" target="_top" xlink:title="Contains jngl::Finally class.">
<polygon fill="white" stroke="#666666" points="425.25,-129 342.25,-129 342.25,-110 425.25,-110 425.25,-129"/>
<text text-anchor="middle" x="383.75" y="-117" font-family="ui-monospace,monospace" font-size="10.00">Finally.hpp</text>
</a>
</g>
</g>
<!-- Node11&#45;&gt;Node12 -->
<g id="edge13" class="edge">
<title>Node11&#45;&gt;Node12</title>
<path fill="none" stroke="#63b8ff" d="M479.43,-164.98C461.09,-156.46 432.64,-143.23 411.52,-133.41"/>
<polygon fill="#63b8ff" stroke="#63b8ff" points="412.94,-130.21 402.4,-129.17 409.99,-136.56 412.94,-130.21"/>
</g>
<!-- Node13 -->
<g id="node13" class="node">
<title>Node13</title>
<g id="a_node13"><a xlink:href="other_8hpp.html" target="_top" xlink:title="Miscellaneous functions.">
<polygon fill="white" stroke="#666666" points="656.25,-129 585.25,-129 585.25,-110 656.25,-110 656.25,-129"/>
<text text-anchor="middle" x="620.75" y="-117" font-family="ui-monospace,monospace" font-size="10.00">other.hpp</text>
</a>
</g>
</g>
<!-- Node11&#45;&gt;Node13 -->
<g id="edge15" class="edge">
<title>Node11&#45;&gt;Node13</title>
<path fill="none" stroke="#63b8ff" d="M517.51,-164.98C537.48,-156.38 568.55,-142.99 591.4,-133.15"/>
<polygon fill="#63b8ff" stroke="#63b8ff" points="592.83,-136.34 600.63,-129.17 590.06,-129.91 592.83,-136.34"/>
</g>
<!-- Node16 -->
<g id="node16" class="node">
<title>Node16</title>
<g id="a_node16"><a xlink:href="window_8hpp.html" target="_top" xlink:title="Functions related to the main window.">
<polygon fill="white" stroke="#666666" points="559.25,-129 482.25,-129 482.25,-110 559.25,-110 559.25,-129"/>
<text text-anchor="middle" x="520.75" y="-117" font-family="ui-monospace,monospace" font-size="10.00">window.hpp</text>
</a>
</g>
</g>
<!-- Node11&#45;&gt;Node16 -->
<g id="edge19" class="edge">
<title>Node11&#45;&gt;Node16</title>
<path fill="none" stroke="#63b8ff" d="M501.55,-164.75C504.66,-157.57 509.17,-147.18 513.04,-138.27"/>
<polygon fill="#63b8ff" stroke="#63b8ff" points="516.25,-139.66 517.02,-129.09 509.83,-136.87 516.25,-139.66"/>
</g>
<!-- Node12&#45;&gt;Node9 -->
<g id="edge14" class="edge">
<title>Node12&#45;&gt;Node9</title>
<path fill="none" stroke="#63b8ff" d="M372.66,-109.98C362.26,-102 346.49,-89.88 334.03,-80.31"/>
<polygon fill="#63b8ff" stroke="#63b8ff" points="336.1,-77.49 326.04,-74.17 331.84,-83.04 336.1,-77.49"/>
</g>
<!-- Node13&#45;&gt;Node4 -->
<g id="edge17" class="edge">
<title>Node13&#45;&gt;Node4</title>
<path fill="none" stroke="#63b8ff" d="M584.92,-109.98C543.52,-100.14 475.76,-84.04 434.13,-74.15"/>
<polygon fill="#63b8ff" stroke="#63b8ff" points="434.93,-70.74 424.39,-71.83 433.31,-77.55 434.93,-70.74"/>
</g>
<!-- Node14 -->
<g id="node14" class="node">
<title>Node14</title>
<g id="a_node14"><a target="_parent" xlink:href="http://en.cppreference.com/w/cpp/header/sstream.html" xlink:title=" ">
<polygon fill="white" stroke="#666666" points="732.25,-74 673.25,-74 673.25,-55 732.25,-55 732.25,-74"/>
<text text-anchor="middle" x="702.75" y="-62" font-family="ui-monospace,monospace" font-size="10.00">sstream</text>
</a>
</g>
</g>
<!-- Node13&#45;&gt;Node14 -->
<g id="edge16" class="edge">
<title>Node13&#45;&gt;Node14</title>
<path fill="none" stroke="#63b8ff" d="M633.92,-109.98C646.52,-101.84 665.75,-89.41 680.69,-79.76"/>
<polygon fill="#63b8ff" stroke="#63b8ff" points="682.84,-82.54 689.34,-74.17 679.04,-76.66 682.84,-82.54"/>
</g>
<!-- Node15 -->
<g id="node15" class="node">
<title>Node15</title>
<g id="a_node15"><a target="_parent" xlink:href="http://en.cppreference.com/w/cpp/header/vector.html" xlink:title=" ">
<polygon fill="white" stroke="#666666" points="655.25,-74 602.25,-74 602.25,-55 655.25,-55 655.25,-74"/>
<text text-anchor="middle" x="628.75" y="-62" font-family="ui-monospace,monospace" font-size="10.00">vector</text>
</a>
</g>
</g>
<!-- Node13&#45;&gt;Node15 -->
<g id="edge18" class="edge">
<title>Node13&#45;&gt;Node15</title>
<path fill="none" stroke="#63b8ff" d="M622.07,-109.75C623.12,-102.8 624.62,-92.85 625.94,-84.13"/>
<polygon fill="#63b8ff" stroke="#63b8ff" points="629.42,-84.5 627.45,-74.09 622.5,-83.45 629.42,-84.5"/>
</g>
<!-- Node16&#45;&gt;Node4 -->
<g id="edge24" class="edge">
<title>Node16&#45;&gt;Node4</title>
<path fill="none" stroke="#63b8ff" d="M500.99,-109.98C481.02,-101.38 449.95,-87.99 427.1,-78.15"/>
<polygon fill="#63b8ff" stroke="#63b8ff" points="428.44,-74.91 417.87,-74.17 425.67,-81.34 428.44,-74.91"/>
</g>
<!-- Node16&#45;&gt;Node9 -->
<g id="edge23" class="edge">
<title>Node16&#45;&gt;Node9</title>
<path fill="none" stroke="#63b8ff" d="M487.65,-109.98C452.47,-100.93 396.68,-86.58 358.03,-76.64"/>
<polygon fill="#63b8ff" stroke="#63b8ff" points="358.66,-73.18 348.11,-74.08 356.92,-79.96 358.66,-73.18"/>
</g>
<!-- Node16&#45;&gt;Node15 -->
<g id="edge25" class="edge">
<title>Node16&#45;&gt;Node15</title>
<path fill="none" stroke="#63b8ff" d="M538.1,-109.98C555.32,-101.54 581.95,-88.47 601.9,-78.68"/>
<polygon fill="#63b8ff" stroke="#63b8ff" points="603.65,-81.72 611.08,-74.17 600.56,-75.43 603.65,-81.72"/>
</g>
<!-- Node17 -->
<g id="node17" class="node">
<title>Node17</title>
<g id="a_node17"><a xlink:href="Pixels_8hpp.html" target="_top" xlink:title="Contains jngl::Pixels class.">
<polygon fill="white" stroke="#666666" points="519.25,-74 442.25,-74 442.25,-55 519.25,-55 519.25,-74"/>
<text text-anchor="middle" x="480.75" y="-62" font-family="ui-monospace,monospace" font-size="10.00">Pixels.hpp</text>
</a>
</g>
</g>
<!-- Node16&#45;&gt;Node17 -->
<g id="edge20" class="edge">
<title>Node16&#45;&gt;Node17</title>
<path fill="none" stroke="#63b8ff" d="M514.14,-109.75C508.49,-102.26 500.2,-91.28 493.3,-82.13"/>
<polygon fill="#63b8ff" stroke="#63b8ff" points="496.05,-79.96 487.23,-74.09 490.46,-84.18 496.05,-79.96"/>
</g>
<!-- Node19 -->
<g id="node19" class="node">
<title>Node19</title>
<g id="a_node19"><a target="_parent" xlink:href="http://en.cppreference.com/w/cpp/header/array.html" xlink:title=" ">
<polygon fill="white" stroke="#666666" points="584.25,-74 537.25,-74 537.25,-55 584.25,-55 584.25,-74"/>
<text text-anchor="middle" x="560.75" y="-62" font-family="ui-monospace,monospace" font-size="10.00">array</text>
</a>
</g>
</g>
<!-- Node16&#45;&gt;Node19 -->
<g id="edge22" class="edge">
<title>Node16&#45;&gt;Node19</title>
<path fill="none" stroke="#63b8ff" d="M527.35,-109.75C533,-102.26 541.29,-91.28 548.2,-82.13"/>
<polygon fill="#63b8ff" stroke="#63b8ff" points="551.04,-84.18 554.27,-74.09 545.45,-79.96 551.04,-84.18"/>
</g>
<!-- Node18 -->
<g id="node18" class="node">
<title>Node18</title>
<g id="a_node18"><a target="_parent" xlink:href="http://en.cppreference.com/w/cpp/header/cstdint.html" xlink:title=" ">
<polygon fill="white" stroke="#666666" points="510.25,-19 451.25,-19 451.25,0 510.25,0 510.25,-19"/>
<text text-anchor="middle" x="480.75" y="-7" font-family="ui-monospace,monospace" font-size="10.00">cstdint</text>
</a>
</g>
</g>
<!-- Node17&#45;&gt;Node18 -->
<g id="edge21" class="edge">
<title>Node17&#45;&gt;Node18</title>
<path fill="none" stroke="#63b8ff" d="M480.75,-54.75C480.75,-47.8 480.75,-37.85 480.75,-29.13"/>
<polygon fill="#63b8ff" stroke="#63b8ff" points="484.25,-29.09 480.75,-19.09 477.25,-29.09 484.25,-29.09"/>
</g>
<!-- Node20&#45;&gt;Node4 -->
<g id="edge27" class="edge">
<title>Node20&#45;&gt;Node4</title>
<path fill="none" stroke="#63b8ff" d="M414.6,-164.65C425.57,-152.55 442,-130.06 434.75,-110 430.81,-99.09 422.89,-88.96 415.39,-81.14"/>
<polygon fill="#63b8ff" stroke="#63b8ff" points="417.79,-78.6 408.19,-74.13 412.91,-83.61 417.79,-78.6"/>
</g>
<!-- Node21&#45;&gt;Node6 -->
<g id="edge29" class="edge">
<title>Node21&#45;&gt;Node6</title>
<path fill="none" stroke="#63b8ff" d="M308.02,-164.89C308.01,-151.87 306.31,-126.9 294.75,-110 285.4,-96.33 270.32,-85.9 256.64,-78.59"/>
<polygon fill="#63b8ff" stroke="#63b8ff" points="258,-75.35 247.49,-74.02 254.87,-81.62 258,-75.35"/>
</g>
<!-- Node22&#45;&gt;Node3 -->
<g id="edge34" class="edge">
<title>Node22&#45;&gt;Node3</title>
<path fill="none" stroke="#63b8ff" d="M29.94,-164.85C15.29,-152.97 -6.67,-130.73 2.75,-110 8.37,-97.63 19.32,-87.36 29.64,-79.81"/>
<polygon fill="#63b8ff" stroke="#63b8ff" points="31.71,-82.63 38.02,-74.12 27.78,-76.84 31.71,-82.63"/>
</g>
<!-- Node23 -->
<g id="node23" class="node">
<title>Node23</title>
<g id="a_node23"><a xlink:href="job_8hpp.html" target="_top" xlink:title="Contains jngl::Job class and related functions.">
<polygon fill="white" stroke="#666666" points="71.25,-129 12.25,-129 12.25,-110 71.25,-110 71.25,-129"/>
<text text-anchor="middle" x="41.75" y="-117" font-family="ui-monospace,monospace" font-size="10.00">job.hpp</text>
</a>
</g>
</g>
<!-- Node22&#45;&gt;Node23 -->
<g id="edge31" class="edge">
<title>Node22&#45;&gt;Node23</title>
<path fill="none" stroke="#63b8ff" d="M41.75,-164.75C41.75,-157.8 41.75,-147.85 41.75,-139.13"/>
<polygon fill="#63b8ff" stroke="#63b8ff" points="45.25,-139.09 41.75,-129.09 38.25,-139.09 45.25,-139.09"/>
</g>
<!-- Node23&#45;&gt;Node3 -->
<g id="edge33" class="edge">
<title>Node23&#45;&gt;Node3</title>
<path fill="none" stroke="#63b8ff" d="M43.73,-109.75C45.32,-102.72 47.61,-92.62 49.6,-83.84"/>
<polygon fill="#63b8ff" stroke="#63b8ff" points="53.01,-84.62 51.81,-74.09 46.18,-83.07 53.01,-84.62"/>
</g>
<!-- Node23&#45;&gt;Node9 -->
<g id="edge32" class="edge">
<title>Node23&#45;&gt;Node9</title>
<path fill="none" stroke="#63b8ff" d="M71.6,-111.73C74.35,-111.13 77.1,-110.55 79.75,-110 143.97,-96.74 218.38,-82.91 265.97,-74.25"/>
<polygon fill="#63b8ff" stroke="#63b8ff" points="266.79,-77.66 276,-72.43 265.54,-70.78 266.79,-77.66"/>
</g>
</g>
</svg>
