<?xml version="1.0" encoding="UTF-8" standalone="no"?>
<!DOCTYPE svg PUBLIC "-//W3C//DTD SVG 1.1//EN"
 "http://www.w3.org/Graphics/SVG/1.1/DTD/svg11.dtd">
<!-- Generated by graphviz version 9.0.0 (20230911.1827)
 -->
<!-- Title: jngl/init.hpp Pages: 1 -->
<svg width="692pt" height="248pt"
 viewBox="0.00 0.00 692.00 248.25" xmlns="http://www.w3.org/2000/svg" xmlns:xlink="http://www.w3.org/1999/xlink">
<g id="graph0" class="graph" transform="scale(1 1) rotate(0) translate(4 244.25)">
<title>jngl/init.hpp</title>
<!-- Node1 -->
<g id="Node000001" class="node">
<title>Node1</title>
<g id="a_Node000001"><a xlink:title="Include this file only once, as it defines the main function.">
<polygon fill="#999999" stroke="#666666" points="430,-240.25 336,-240.25 336,-221 430,-221 430,-240.25"/>
<text text-anchor="middle" x="383" y="-226.75" font-family="ui-monospace,monospace" font-size="10.00">jngl/init.hpp</text>
</a>
</g>
</g>
<!-- Node2 -->
<g id="Node000002" class="node">
<title>Node2</title>
<g id="a_Node000002"><a xlink:href="AppParameters_8hpp.html" target="_top" xlink:title="Contains jngl::AppParameters struct.">
<polygon fill="white" stroke="#666666" points="254,-129.75 136,-129.75 136,-110.5 254,-110.5 254,-129.75"/>
<text text-anchor="middle" x="195" y="-116.25" font-family="ui-monospace,monospace" font-size="10.00">AppParameters.hpp</text>
</a>
</g>
</g>
<!-- Node1&#45;&gt;Node2 -->
<g id="edge1_Node000001_Node000002" class="edge">
<title>Node1&#45;&gt;Node2</title>
<g id="a_edge1_Node000001_Node000002"><a xlink:title=" ">
<path fill="none" stroke="#63b8ff" d="M367.29,-220.56C334.88,-201.85 260.29,-158.81 220.73,-135.98"/>
<polygon fill="#63b8ff" stroke="#63b8ff" points="222.51,-132.96 212.1,-131 219.02,-139.03 222.51,-132.96"/>
</a>
</g>
</g>
<!-- Node10 -->
<g id="Node000010" class="node">
<title>Node10</title>
<g id="a_Node000010"><a xlink:href="main_8hpp.html" target="_top" xlink:title="Defines macros for the main entry point.">
<polygon fill="white" stroke="#666666" points="415,-185 351,-185 351,-165.75 415,-165.75 415,-185"/>
<text text-anchor="middle" x="383" y="-171.5" font-family="ui-monospace,monospace" font-size="10.00">main.hpp</text>
</a>
</g>
</g>
<!-- Node1&#45;&gt;Node10 -->
<g id="edge9_Node000001_Node000010" class="edge">
<title>Node1&#45;&gt;Node10</title>
<g id="a_edge9_Node000001_Node000010"><a xlink:title=" ">
<path fill="none" stroke="#63b8ff" d="M383,-220.83C383,-214.32 383,-205.17 383,-196.87"/>
<polygon fill="#63b8ff" stroke="#63b8ff" points="386.5,-196.87 383,-186.87 379.5,-196.87 386.5,-196.87"/>
</a>
</g>
</g>
<!-- Node19 -->
<g id="Node000019" class="node">
<title>Node19</title>
<g id="a_Node000019"><a target="_parent" xlink:href="http://en.cppreference.com/w/cpp/header/cmath.html" xlink:title=" ">
<polygon fill="white" stroke="#666666" points="479,-185 433,-185 433,-165.75 479,-165.75 479,-185"/>
<text text-anchor="middle" x="456" y="-171.5" font-family="ui-monospace,monospace" font-size="10.00">cmath</text>
</a>
</g>
</g>
<!-- Node1&#45;&gt;Node19 -->
<g id="edge23_Node000001_Node000019" class="edge">
<title>Node1&#45;&gt;Node19</title>
<g id="a_edge23_Node000001_Node000019"><a xlink:title=" ">
<path fill="none" stroke="#63b8ff" d="M395.38,-220.59C406.15,-212.74 421.97,-201.2 434.75,-191.87"/>
<polygon fill="#63b8ff" stroke="#63b8ff" points="436.56,-194.89 442.58,-186.17 432.44,-189.23 436.56,-194.89"/>
</a>
</g>
</g>
<!-- Node3 -->
<g id="Node000003" class="node">
<title>Node3</title>
<g id="a_Node000003"><a xlink:href="Vec2_8hpp.html" target="_top" xlink:title="Contains jngl::Vec2 class.">
<polygon fill="white" stroke="#666666" points="146,-74.5 82,-74.5 82,-55.25 146,-55.25 146,-74.5"/>
<text text-anchor="middle" x="114" y="-61" font-family="ui-monospace,monospace" font-size="10.00">Vec2.hpp</text>
</a>
</g>
</g>
<!-- Node2&#45;&gt;Node3 -->
<g id="edge2_Node000002_Node000003" class="edge">
<title>Node2&#45;&gt;Node3</title>
<g id="a_edge2_Node000002_Node000003"><a xlink:title=" ">
<path fill="none" stroke="#63b8ff" d="M181.26,-110.09C169.27,-102.21 151.63,-90.61 137.42,-81.27"/>
<polygon fill="#63b8ff" stroke="#63b8ff" points="139.35,-78.35 129.07,-75.78 135.51,-84.2 139.35,-78.35"/>
</a>
</g>
</g>
<!-- Node6 -->
<g id="Node000006" class="node">
<title>Node6</title>
<g id="a_Node000006"><a target="_parent" xlink:href="http://en.cppreference.com/w/cpp/header/functional.html" xlink:title=" ">
<polygon fill="white" stroke="#666666" points="310,-74.5 234,-74.5 234,-55.25 310,-55.25 310,-74.5"/>
<text text-anchor="middle" x="272" y="-61" font-family="ui-monospace,monospace" font-size="10.00">functional</text>
</a>
</g>
</g>
<!-- Node2&#45;&gt;Node6 -->
<g id="edge5_Node000002_Node000006" class="edge">
<title>Node2&#45;&gt;Node6</title>
<g id="a_edge5_Node000002_Node000006"><a xlink:title=" ">
<path fill="none" stroke="#63b8ff" d="M208.06,-110.09C219.46,-102.21 236.23,-90.61 249.74,-81.27"/>
<polygon fill="#63b8ff" stroke="#63b8ff" points="251.4,-84.38 257.63,-75.81 247.41,-78.62 251.4,-84.38"/>
</a>
</g>
</g>
<!-- Node7 -->
<g id="Node000007" class="node">
<title>Node7</title>
<g id="a_Node000007"><a target="_parent" xlink:href="http://en.cppreference.com/w/cpp/header/memory.html" xlink:title=" ">
<polygon fill="white" stroke="#666666" points="216,-74.5 164,-74.5 164,-55.25 216,-55.25 216,-74.5"/>
<text text-anchor="middle" x="190" y="-61" font-family="ui-monospace,monospace" font-size="10.00">memory</text>
</a>
</g>
</g>
<!-- Node2&#45;&gt;Node7 -->
<g id="edge6_Node000002_Node000007" class="edge">
<title>Node2&#45;&gt;Node7</title>
<g id="a_edge6_Node000002_Node000007"><a xlink:title=" ">
<path fill="none" stroke="#63b8ff" d="M194.17,-110.33C193.56,-103.74 192.68,-94.46 191.9,-86.07"/>
<polygon fill="#63b8ff" stroke="#63b8ff" points="195.4,-86 190.99,-76.37 188.44,-86.65 195.4,-86"/>
</a>
</g>
</g>
<!-- Node8 -->
<g id="Node000008" class="node">
<title>Node8</title>
<g id="a_Node000008"><a target="_parent" xlink:href="http://en.cppreference.com/w/cpp/header/optional.html" xlink:title=" ">
<polygon fill="white" stroke="#666666" points="64,-74.5 0,-74.5 0,-55.25 64,-55.25 64,-74.5"/>
<text text-anchor="middle" x="32" y="-61" font-family="ui-monospace,monospace" font-size="10.00">optional</text>
</a>
</g>
</g>
<!-- Node2&#45;&gt;Node8 -->
<g id="edge7_Node000002_Node000008" class="edge">
<title>Node2&#45;&gt;Node8</title>
<g id="a_edge7_Node000002_Node000008"><a xlink:title=" ">
<path fill="none" stroke="#63b8ff" d="M167.35,-110.09C140.77,-101.41 100.36,-88.21 70.61,-78.49"/>
<polygon fill="#63b8ff" stroke="#63b8ff" points="71.82,-75.2 61.23,-75.42 69.64,-81.85 71.82,-75.2"/>
</a>
</g>
</g>
<!-- Node9 -->
<g id="Node000009" class="node">
<title>Node9</title>
<g id="a_Node000009"><a target="_parent" xlink:href="http://en.cppreference.com/w/cpp/header/string.html" xlink:title=" ">
<polygon fill="white" stroke="#666666" points="474,-74.5 422,-74.5 422,-55.25 474,-55.25 474,-74.5"/>
<text text-anchor="middle" x="448" y="-61" font-family="ui-monospace,monospace" font-size="10.00">string</text>
</a>
</g>
</g>
<!-- Node2&#45;&gt;Node9 -->
<g id="edge8_Node000002_Node000009" class="edge">
<title>Node2&#45;&gt;Node9</title>
<g id="a_edge8_Node000002_Node000009"><a xlink:title=" ">
<path fill="none" stroke="#63b8ff" d="M242.32,-110C284.14,-101.81 347.05,-89.19 410.62,-74.97"/>
<polygon fill="#63b8ff" stroke="#63b8ff" points="411.19,-78.43 420.18,-72.82 409.65,-71.6 411.19,-78.43"/>
</a>
</g>
</g>
<!-- Node4 -->
<g id="Node000004" class="node">
<title>Node4</title>
<g id="a_Node000004"><a xlink:title=" ">
<polygon fill="#e0e0e0" stroke="#999999" points="229,-19.25 105,-19.25 105,0 229,0 229,-19.25"/>
<text text-anchor="middle" x="167" y="-5.75" font-family="ui-monospace,monospace" font-size="10.00">boost/qvm_lite.hpp</text>
</a>
</g>
</g>
<!-- Node3&#45;&gt;Node4 -->
<g id="edge3_Node000003_Node000004" class="edge">
<title>Node3&#45;&gt;Node4</title>
<g id="a_edge3_Node000003_Node000004"><a xlink:title=" ">
<path fill="none" stroke="#63b8ff" d="M122.75,-55.08C130.15,-47.65 140.96,-36.79 150.05,-27.66"/>
<polygon fill="#63b8ff" stroke="#63b8ff" points="152.42,-30.24 156.99,-20.68 147.46,-25.3 152.42,-30.24"/>
</a>
</g>
</g>
<!-- Node5 -->
<g id="Node000005" class="node">
<title>Node5</title>
<g id="a_Node000005"><a target="_parent" xlink:href="http://en.cppreference.com/w/cpp/header/iosfwd.html" xlink:title=" ">
<polygon fill="white" stroke="#666666" points="87,-19.25 35,-19.25 35,0 87,0 87,-19.25"/>
<text text-anchor="middle" x="61" y="-5.75" font-family="ui-monospace,monospace" font-size="10.00">iosfwd</text>
</a>
</g>
</g>
<!-- Node3&#45;&gt;Node5 -->
<g id="edge4_Node000003_Node000005" class="edge">
<title>Node3&#45;&gt;Node5</title>
<g id="a_edge4_Node000003_Node000005"><a xlink:title=" ">
<path fill="none" stroke="#63b8ff" d="M105.25,-55.08C97.85,-47.65 87.04,-36.79 77.95,-27.66"/>
<polygon fill="#63b8ff" stroke="#63b8ff" points="80.54,-25.3 71.01,-20.68 75.58,-30.24 80.54,-25.3"/>
</a>
</g>
</g>
<!-- Node11 -->
<g id="Node000011" class="node">
<title>Node11</title>
<g id="a_Node000011"><a xlink:href="Finally_8hpp.html" target="_top" xlink:title="Contains jngl::Finally class.">
<polygon fill="white" stroke="#666666" points="365,-129.75 283,-129.75 283,-110.5 365,-110.5 365,-129.75"/>
<text text-anchor="middle" x="324" y="-116.25" font-family="ui-monospace,monospace" font-size="10.00">Finally.hpp</text>
</a>
</g>
</g>
<!-- Node10&#45;&gt;Node11 -->
<g id="edge10_Node000010_Node000011" class="edge">
<title>Node10&#45;&gt;Node11</title>
<g id="a_edge10_Node000010_Node000011"><a xlink:title=" ">
<path fill="none" stroke="#63b8ff" d="M372.99,-165.34C364.63,-157.8 352.5,-146.85 342.4,-137.73"/>
<polygon fill="#63b8ff" stroke="#63b8ff" points="344.75,-135.14 334.98,-131.04 340.06,-140.34 344.75,-135.14"/>
</a>
</g>
</g>
<!-- Node12 -->
<g id="Node000012" class="node">
<title>Node12</title>
<g id="a_Node000012"><a xlink:href="other_8hpp.html" target="_top" xlink:title="Miscellaneous functions.">
<polygon fill="white" stroke="#666666" points="592,-129.75 522,-129.75 522,-110.5 592,-110.5 592,-129.75"/>
<text text-anchor="middle" x="557" y="-116.25" font-family="ui-monospace,monospace" font-size="10.00">other.hpp</text>
</a>
</g>
</g>
<!-- Node10&#45;&gt;Node12 -->
<g id="edge12_Node000010_Node000012" class="edge">
<title>Node10&#45;&gt;Node12</title>
<g id="a_edge12_Node000010_Node000012"><a xlink:title=" ">
<path fill="none" stroke="#63b8ff" d="M412.52,-165.34C441.14,-156.58 484.78,-143.23 516.62,-133.48"/>
<polygon fill="#63b8ff" stroke="#63b8ff" points="517.35,-136.92 525.89,-130.65 515.3,-130.23 517.35,-136.92"/>
</a>
</g>
</g>
<!-- Node15 -->
<g id="Node000015" class="node">
<title>Node15</title>
<g id="a_Node000015"><a xlink:href="window_8hpp.html" target="_top" xlink:title="Functions related to the main window.">
<polygon fill="white" stroke="#666666" points="480,-129.75 404,-129.75 404,-110.5 480,-110.5 480,-129.75"/>
<text text-anchor="middle" x="442" y="-116.25" font-family="ui-monospace,monospace" font-size="10.00">window.hpp</text>
</a>
</g>
</g>
<!-- Node10&#45;&gt;Node15 -->
<g id="edge16_Node000010_Node000015" class="edge">
<title>Node10&#45;&gt;Node15</title>
<g id="a_edge16_Node000010_Node000015"><a xlink:title=" ">
<path fill="none" stroke="#63b8ff" d="M393.01,-165.34C401.37,-157.8 413.5,-146.85 423.6,-137.73"/>
<polygon fill="#63b8ff" stroke="#63b8ff" points="425.94,-140.34 431.02,-131.04 421.25,-135.14 425.94,-140.34"/>
</a>
</g>
</g>
<!-- Node11&#45;&gt;Node6 -->
<g id="edge11_Node000011_Node000006" class="edge">
<title>Node11&#45;&gt;Node6</title>
<g id="a_edge11_Node000011_Node000006"><a xlink:title=" ">
<path fill="none" stroke="#63b8ff" d="M315.41,-110.33C308.16,-102.9 297.55,-92.04 288.63,-82.91"/>
<polygon fill="#63b8ff" stroke="#63b8ff" points="291.32,-80.65 281.83,-75.94 286.31,-85.54 291.32,-80.65"/>
</a>
</g>
</g>
<!-- Node12&#45;&gt;Node9 -->
<g id="edge14_Node000012_Node000009" class="edge">
<title>Node12&#45;&gt;Node9</title>
<g id="a_edge14_Node000012_Node000009"><a xlink:title=" ">
<path fill="none" stroke="#63b8ff" d="M538.51,-110.09C521.6,-101.83 496.31,-89.48 476.76,-79.93"/>
<polygon fill="#63b8ff" stroke="#63b8ff" points="478.46,-76.86 467.94,-75.62 475.39,-83.15 478.46,-76.86"/>
</a>
</g>
</g>
<!-- Node13 -->
<g id="Node000013" class="node">
<title>Node13</title>
<g id="a_Node000013"><a target="_parent" xlink:href="http://en.cppreference.com/w/cpp/header/sstream.html" xlink:title=" ">
<polygon fill="white" stroke="#666666" points="684,-74.5 626,-74.5 626,-55.25 684,-55.25 684,-74.5"/>
<text text-anchor="middle" x="655" y="-61" font-family="ui-monospace,monospace" font-size="10.00">sstream</text>
</a>
</g>
</g>
<!-- Node12&#45;&gt;Node13 -->
<g id="edge13_Node000012_Node000013" class="edge">
<title>Node12&#45;&gt;Node13</title>
<g id="a_edge13_Node000012_Node000013"><a xlink:title=" ">
<path fill="none" stroke="#63b8ff" d="M573.62,-110.09C588.69,-101.91 611.14,-89.71 628.65,-80.19"/>
<polygon fill="#63b8ff" stroke="#63b8ff" points="629.85,-83.52 636.96,-75.68 626.51,-77.37 629.85,-83.52"/>
</a>
</g>
</g>
<!-- Node14 -->
<g id="Node000014" class="node">
<title>Node14</title>
<g id="a_Node000014"><a target="_parent" xlink:href="http://en.cppreference.com/w/cpp/header/vector.html" xlink:title=" ">
<polygon fill="white" stroke="#666666" points="608,-74.5 556,-74.5 556,-55.25 608,-55.25 608,-74.5"/>
<text text-anchor="middle" x="582" y="-61" font-family="ui-monospace,monospace" font-size="10.00">vector</text>
</a>
</g>
</g>
<!-- Node12&#45;&gt;Node14 -->
<g id="edge15_Node000012_Node000014" class="edge">
<title>Node12&#45;&gt;Node14</title>
<g id="a_edge15_Node000012_Node000014"><a xlink:title=" ">
<path fill="none" stroke="#63b8ff" d="M561.13,-110.33C564.33,-103.51 568.89,-93.81 572.93,-85.2"/>
<polygon fill="#63b8ff" stroke="#63b8ff" points="576.06,-86.77 577.14,-76.23 569.72,-83.79 576.06,-86.77"/>
</a>
</g>
</g>
<!-- Node15&#45;&gt;Node6 -->
<g id="edge20_Node000015_Node000006" class="edge">
<title>Node15&#45;&gt;Node6</title>
<g id="a_edge20_Node000015_Node000006"><a xlink:title=" ">
<path fill="none" stroke="#63b8ff" d="M413.16,-110.09C385.32,-101.37 342.93,-88.09 311.86,-78.36"/>
<polygon fill="#63b8ff" stroke="#63b8ff" points="313.01,-75.05 302.42,-75.4 310.92,-81.73 313.01,-75.05"/>
</a>
</g>
</g>
<!-- Node15&#45;&gt;Node9 -->
<g id="edge21_Node000015_Node000009" class="edge">
<title>Node15&#45;&gt;Node9</title>
<g id="a_edge21_Node000015_Node000009"><a xlink:title=" ">
<path fill="none" stroke="#63b8ff" d="M442.99,-110.33C443.73,-103.74 444.78,-94.46 445.72,-86.07"/>
<polygon fill="#63b8ff" stroke="#63b8ff" points="449.18,-86.69 446.82,-76.36 442.22,-85.91 449.18,-86.69"/>
</a>
</g>
</g>
<!-- Node15&#45;&gt;Node14 -->
<g id="edge22_Node000015_Node000014" class="edge">
<title>Node15&#45;&gt;Node14</title>
<g id="a_edge22_Node000015_Node000014"><a xlink:title=" ">
<path fill="none" stroke="#63b8ff" d="M465.75,-110.09C488.17,-101.56 522.06,-88.67 547.47,-79.01"/>
<polygon fill="#63b8ff" stroke="#63b8ff" points="548.62,-82.32 556.72,-75.49 546.13,-75.77 548.62,-82.32"/>
</a>
</g>
</g>
<!-- Node16 -->
<g id="Node000016" class="node">
<title>Node16</title>
<g id="a_Node000016"><a xlink:href="Pixels_8hpp.html" target="_top" xlink:title="Contains jngl::Pixels class.">
<polygon fill="white" stroke="#666666" points="404,-74.5 328,-74.5 328,-55.25 404,-55.25 404,-74.5"/>
<text text-anchor="middle" x="366" y="-61" font-family="ui-monospace,monospace" font-size="10.00">Pixels.hpp</text>
</a>
</g>
</g>
<!-- Node15&#45;&gt;Node16 -->
<g id="edge17_Node000015_Node000016" class="edge">
<title>Node15&#45;&gt;Node16</title>
<g id="a_edge17_Node000015_Node000016"><a xlink:title=" ">
<path fill="none" stroke="#63b8ff" d="M429.11,-110.09C417.97,-102.29 401.63,-90.84 388.36,-81.54"/>
<polygon fill="#63b8ff" stroke="#63b8ff" points="390.39,-78.69 380.2,-75.82 386.38,-84.43 390.39,-78.69"/>
</a>
</g>
</g>
<!-- Node18 -->
<g id="Node000018" class="node">
<title>Node18</title>
<g id="a_Node000018"><a target="_parent" xlink:href="http://en.cppreference.com/w/cpp/header/array.html" xlink:title=" ">
<polygon fill="white" stroke="#666666" points="538,-74.5 492,-74.5 492,-55.25 538,-55.25 538,-74.5"/>
<text text-anchor="middle" x="515" y="-61" font-family="ui-monospace,monospace" font-size="10.00">array</text>
</a>
</g>
</g>
<!-- Node15&#45;&gt;Node18 -->
<g id="edge19_Node000015_Node000018" class="edge">
<title>Node15&#45;&gt;Node18</title>
<g id="a_edge19_Node000015_Node000018"><a xlink:title=" ">
<path fill="none" stroke="#63b8ff" d="M454.38,-110.09C465.15,-102.24 480.97,-90.7 493.75,-81.37"/>
<polygon fill="#63b8ff" stroke="#63b8ff" points="495.56,-84.39 501.58,-75.67 491.44,-78.73 495.56,-84.39"/>
</a>
</g>
</g>
<!-- Node17 -->
<g id="Node000017" class="node">
<title>Node17</title>
<g id="a_Node000017"><a target="_parent" xlink:href="http://en.cppreference.com/w/cpp/header/cstdint.html" xlink:title=" ">
<polygon fill="white" stroke="#666666" points="395,-19.25 337,-19.25 337,0 395,0 395,-19.25"/>
<text text-anchor="middle" x="366" y="-5.75" font-family="ui-monospace,monospace" font-size="10.00">cstdint</text>
</a>
</g>
</g>
<!-- Node16&#45;&gt;Node17 -->
<g id="edge18_Node000016_Node000017" class="edge">
<title>Node16&#45;&gt;Node17</title>
<g id="a_edge18_Node000016_Node000017"><a xlink:title=" ">
<path fill="none" stroke="#63b8ff" d="M366,-55.08C366,-48.57 366,-39.42 366,-31.12"/>
<polygon fill="#63b8ff" stroke="#63b8ff" points="369.5,-31.12 366,-21.12 362.5,-31.12 369.5,-31.12"/>
</a>
</g>
</g>
</g>
</svg>
