<?xml version="1.0" encoding="UTF-8" standalone="no"?>
<!DOCTYPE svg PUBLIC "-//W3C//DTD SVG 1.1//EN"
 "http://www.w3.org/Graphics/SVG/1.1/DTD/svg11.dtd">
<!-- Generated by graphviz version 5.0.0 (0)
 -->
<!-- Title: jngl/init.hpp Pages: 1 -->
<svg width="806pt" height="247pt"
 viewBox="0.00 0.00 806.00 247.00" xmlns="http://www.w3.org/2000/svg" xmlns:xlink="http://www.w3.org/1999/xlink">
<g id="graph0" class="graph" transform="scale(1 1) rotate(0) translate(4 243)">
<title>jngl/init.hpp</title>
<!-- Node1 -->
<g id="node1" class="node">
<title>Node1</title>
<g id="a_node1"><a xlink:title="Include this file only once, as it defines the main function.">
<polygon fill="#999999" stroke="#666666" points="336,-239 241,-239 241,-220 336,-220 336,-239"/>
<text text-anchor="middle" x="288.5" y="-227" font-family="ui-monospace,monospace" font-size="10.00">jngl/init.hpp</text>
</a>
</g>
</g>
<!-- Node2 -->
<g id="node2" class="node">
<title>Node2</title>
<g id="a_node2"><a xlink:href="App_8hpp.html" target="_top" xlink:title="Contains jngl::App class.">
<polygon fill="white" stroke="#666666" points="213,-129 154,-129 154,-110 213,-110 213,-129"/>
<text text-anchor="middle" x="183.5" y="-117" font-family="ui-monospace,monospace" font-size="10.00">App.hpp</text>
</a>
</g>
</g>
<!-- Node1&#45;&gt;Node2 -->
<g id="edge1" class="edge">
<title>Node1&#45;&gt;Node2</title>
<path fill="none" stroke="#63b8ff" d="M280.44,-219.78C269.01,-207.46 247.37,-184.31 228.5,-165 219.09,-155.38 208.38,-144.77 199.77,-136.33"/>
<polygon fill="#63b8ff" stroke="#63b8ff" points="202.15,-133.76 192.55,-129.28 197.26,-138.77 202.15,-133.76"/>
</g>
<!-- Node5 -->
<g id="node5" class="node">
<title>Node5</title>
<g id="a_node5"><a xlink:href="AppParameters_8hpp.html" target="_top" xlink:title="Contains jngl::AppParameters struct.">
<polygon fill="white" stroke="#666666" points="350,-129 231,-129 231,-110 350,-110 350,-129"/>
<text text-anchor="middle" x="290.5" y="-117" font-family="ui-monospace,monospace" font-size="10.00">AppParameters.hpp</text>
</a>
</g>
</g>
<!-- Node1&#45;&gt;Node5 -->
<g id="edge4" class="edge">
<title>Node1&#45;&gt;Node5</title>
<path fill="none" stroke="#63b8ff" d="M288.66,-219.66C288.99,-202.17 289.72,-162.8 290.15,-139.27"/>
<polygon fill="#63b8ff" stroke="#63b8ff" points="293.65,-139.22 290.34,-129.16 286.66,-139.09 293.65,-139.22"/>
</g>
<!-- Node11 -->
<g id="node11" class="node">
<title>Node11</title>
<g id="a_node11"><a xlink:href="main_8hpp.html" target="_top" xlink:title="Defines macros for the main entry point.">
<polygon fill="white" stroke="#666666" points="483,-184 418,-184 418,-165 483,-165 483,-184"/>
<text text-anchor="middle" x="450.5" y="-172" font-family="ui-monospace,monospace" font-size="10.00">main.hpp</text>
</a>
</g>
</g>
<!-- Node1&#45;&gt;Node11 -->
<g id="edge12" class="edge">
<title>Node1&#45;&gt;Node11</title>
<path fill="none" stroke="#63b8ff" d="M314.53,-219.98C341.61,-211.13 384.21,-197.19 414.51,-187.28"/>
<polygon fill="#63b8ff" stroke="#63b8ff" points="415.85,-190.52 424.27,-184.08 413.68,-183.87 415.85,-190.52"/>
</g>
<!-- Node20 -->
<g id="node20" class="node">
<title>Node20</title>
<g id="a_node20"><a xlink:href="message_8hpp.html" target="_top" xlink:title=" ">
<polygon fill="white" stroke="#666666" points="400,-184 317,-184 317,-165 400,-165 400,-184"/>
<text text-anchor="middle" x="358.5" y="-172" font-family="ui-monospace,monospace" font-size="10.00">message.hpp</text>
</a>
</g>
</g>
<!-- Node1&#45;&gt;Node20 -->
<g id="edge26" class="edge">
<title>Node1&#45;&gt;Node20</title>
<path fill="none" stroke="#63b8ff" d="M299.75,-219.98C310.3,-212 326.3,-199.88 338.94,-190.31"/>
<polygon fill="#63b8ff" stroke="#63b8ff" points="341.19,-193 347.05,-184.17 336.96,-187.42 341.19,-193"/>
</g>
<!-- Node21 -->
<g id="node21" class="node">
<title>Node21</title>
<g id="a_node21"><a xlink:href="screen_8hpp.html" target="_top" xlink:title=" ">
<polygon fill="white" stroke="#666666" points="219,-184 142,-184 142,-165 219,-165 219,-184"/>
<text text-anchor="middle" x="180.5" y="-172" font-family="ui-monospace,monospace" font-size="10.00">screen.hpp</text>
</a>
</g>
</g>
<!-- Node1&#45;&gt;Node21 -->
<g id="edge28" class="edge">
<title>Node1&#45;&gt;Node21</title>
<path fill="none" stroke="#63b8ff" d="M271.15,-219.98C253.93,-211.54 227.3,-198.47 207.35,-188.68"/>
<polygon fill="#63b8ff" stroke="#63b8ff" points="208.69,-185.43 198.17,-184.17 205.6,-191.72 208.69,-185.43"/>
</g>
<!-- Node22 -->
<g id="node22" class="node">
<title>Node22</title>
<g id="a_node22"><a xlink:href="work_8hpp.html" target="_top" xlink:title=" ">
<polygon fill="white" stroke="#666666" points="120,-184 55,-184 55,-165 120,-165 120,-184"/>
<text text-anchor="middle" x="87.5" y="-172" font-family="ui-monospace,monospace" font-size="10.00">work.hpp</text>
</a>
</g>
</g>
<!-- Node1&#45;&gt;Node22 -->
<g id="edge30" class="edge">
<title>Node1&#45;&gt;Node22</title>
<path fill="none" stroke="#63b8ff" d="M256.21,-219.98C221.88,-210.93 167.44,-196.58 129.73,-186.64"/>
<polygon fill="#63b8ff" stroke="#63b8ff" points="130.61,-183.25 120.05,-184.08 128.82,-190.02 130.61,-183.25"/>
</g>
<!-- Node24 -->
<g id="node24" class="node">
<title>Node24</title>
<g id="a_node24"><a target="_parent" xlink:href="http://en.cppreference.com/w/cpp/header/cmath.html" xlink:title=" ">
<polygon fill="white" stroke="#666666" points="548,-184 501,-184 501,-165 548,-165 548,-184"/>
<text text-anchor="middle" x="524.5" y="-172" font-family="ui-monospace,monospace" font-size="10.00">cmath</text>
</a>
</g>
</g>
<!-- Node1&#45;&gt;Node24 -->
<g id="edge34" class="edge">
<title>Node1&#45;&gt;Node24</title>
<path fill="none" stroke="#63b8ff" d="M330.43,-219.93C369.66,-211.78 430.12,-198.89 490.99,-184.29"/>
<polygon fill="#63b8ff" stroke="#63b8ff" points="491.86,-187.68 500.76,-181.93 490.22,-180.88 491.86,-187.68"/>
</g>
<!-- Node3 -->
<g id="node3" class="node">
<title>Node3</title>
<g id="a_node3"><a target="_parent" xlink:href="http://en.cppreference.com/w/cpp/header/memory.html" xlink:title=" ">
<polygon fill="white" stroke="#666666" points="125,-74 72,-74 72,-55 125,-55 125,-74"/>
<text text-anchor="middle" x="98.5" y="-62" font-family="ui-monospace,monospace" font-size="10.00">memory</text>
</a>
</g>
</g>
<!-- Node2&#45;&gt;Node3 -->
<g id="edge2" class="edge">
<title>Node2&#45;&gt;Node3</title>
<path fill="none" stroke="#63b8ff" d="M169.84,-109.98C156.66,-101.77 136.47,-89.18 120.93,-79.49"/>
<polygon fill="#63b8ff" stroke="#63b8ff" points="122.74,-76.49 112.41,-74.17 119.04,-82.43 122.74,-76.49"/>
</g>
<!-- Node4 -->
<g id="node4" class="node">
<title>Node4</title>
<g id="a_node4"><a target="_parent" xlink:href="http://en.cppreference.com/w/cpp/header/string.html" xlink:title=" ">
<polygon fill="white" stroke="#666666" points="395,-74 342,-74 342,-55 395,-55 395,-74"/>
<text text-anchor="middle" x="368.5" y="-62" font-family="ui-monospace,monospace" font-size="10.00">string</text>
</a>
</g>
</g>
<!-- Node2&#45;&gt;Node4 -->
<g id="edge3" class="edge">
<title>Node2&#45;&gt;Node4</title>
<path fill="none" stroke="#63b8ff" d="M213.22,-109.98C245.57,-100.72 297.32,-85.89 332.09,-75.93"/>
<polygon fill="#63b8ff" stroke="#63b8ff" points="333.2,-79.25 341.85,-73.13 331.28,-72.52 333.2,-79.25"/>
</g>
<!-- Node5&#45;&gt;Node3 -->
<g id="edge9" class="edge">
<title>Node5&#45;&gt;Node3</title>
<path fill="none" stroke="#63b8ff" d="M259.65,-109.98C225.64,-100.6 170.98,-85.51 134.9,-75.55"/>
<polygon fill="#63b8ff" stroke="#63b8ff" points="135.82,-72.17 125.25,-72.88 133.95,-78.92 135.82,-72.17"/>
</g>
<!-- Node5&#45;&gt;Node4 -->
<g id="edge11" class="edge">
<title>Node5&#45;&gt;Node4</title>
<path fill="none" stroke="#63b8ff" d="M303.03,-109.98C314.9,-101.92 332.96,-89.65 347.11,-80.03"/>
<polygon fill="#63b8ff" stroke="#63b8ff" points="349.44,-82.69 355.74,-74.17 345.5,-76.9 349.44,-82.69"/>
</g>
<!-- Node6 -->
<g id="node6" class="node">
<title>Node6</title>
<g id="a_node6"><a xlink:href="Vec2_8hpp.html" target="_top" xlink:title="Contains jngl::Vec2 class.">
<polygon fill="white" stroke="#666666" points="229,-74 164,-74 164,-55 229,-55 229,-74"/>
<text text-anchor="middle" x="196.5" y="-62" font-family="ui-monospace,monospace" font-size="10.00">Vec2.hpp</text>
</a>
</g>
</g>
<!-- Node5&#45;&gt;Node6 -->
<g id="edge5" class="edge">
<title>Node5&#45;&gt;Node6</title>
<path fill="none" stroke="#63b8ff" d="M275.4,-109.98C260.68,-101.69 238.08,-88.94 220.83,-79.22"/>
<polygon fill="#63b8ff" stroke="#63b8ff" points="222.31,-76.03 211.88,-74.17 218.87,-82.13 222.31,-76.03"/>
</g>
<!-- Node9 -->
<g id="node9" class="node">
<title>Node9</title>
<g id="a_node9"><a target="_parent" xlink:href="http://en.cppreference.com/w/cpp/header/functional.html" xlink:title=" ">
<polygon fill="white" stroke="#666666" points="567,-74 490,-74 490,-55 567,-55 567,-74"/>
<text text-anchor="middle" x="528.5" y="-62" font-family="ui-monospace,monospace" font-size="10.00">functional</text>
</a>
</g>
</g>
<!-- Node5&#45;&gt;Node9 -->
<g id="edge8" class="edge">
<title>Node5&#45;&gt;Node9</title>
<path fill="none" stroke="#63b8ff" d="M328.74,-109.98C369.91,-100.82 435.49,-86.21 480.2,-76.26"/>
<polygon fill="#63b8ff" stroke="#63b8ff" points="480.96,-79.67 489.96,-74.08 479.44,-72.84 480.96,-79.67"/>
</g>
<!-- Node10 -->
<g id="node10" class="node">
<title>Node10</title>
<g id="a_node10"><a target="_parent" xlink:href="http://en.cppreference.com/w/cpp/header/optional.html" xlink:title=" ">
<polygon fill="white" stroke="#666666" points="323,-74 258,-74 258,-55 323,-55 323,-74"/>
<text text-anchor="middle" x="290.5" y="-62" font-family="ui-monospace,monospace" font-size="10.00">optional</text>
</a>
</g>
</g>
<!-- Node5&#45;&gt;Node10 -->
<g id="edge10" class="edge">
<title>Node5&#45;&gt;Node10</title>
<path fill="none" stroke="#63b8ff" d="M290.5,-109.75C290.5,-102.8 290.5,-92.85 290.5,-84.13"/>
<polygon fill="#63b8ff" stroke="#63b8ff" points="294,-84.09 290.5,-74.09 287,-84.09 294,-84.09"/>
</g>
<!-- Node7 -->
<g id="node7" class="node">
<title>Node7</title>
<g id="a_node7"><a xlink:title=" ">
<polygon fill="#e0e0e0" stroke="#999999" points="308,-19 189,-19 189,0 308,0 308,-19"/>
<text text-anchor="middle" x="248.5" y="-7" font-family="ui-monospace,monospace" font-size="10.00">boost/version.hpp</text>
</a>
</g>
</g>
<!-- Node6&#45;&gt;Node7 -->
<g id="edge6" class="edge">
<title>Node6&#45;&gt;Node7</title>
<path fill="none" stroke="#63b8ff" d="M205.09,-54.75C212.66,-47.03 223.88,-35.6 233.01,-26.28"/>
<polygon fill="#63b8ff" stroke="#63b8ff" points="235.57,-28.68 240.07,-19.09 230.57,-23.78 235.57,-28.68"/>
</g>
<!-- Node8 -->
<g id="node8" class="node">
<title>Node8</title>
<g id="a_node8"><a target="_parent" xlink:href="http://en.cppreference.com/w/cpp/header/iosfwd.html" xlink:title=" ">
<polygon fill="white" stroke="#666666" points="171,-19 118,-19 118,0 171,0 171,-19"/>
<text text-anchor="middle" x="144.5" y="-7" font-family="ui-monospace,monospace" font-size="10.00">iosfwd</text>
</a>
</g>
</g>
<!-- Node6&#45;&gt;Node8 -->
<g id="edge7" class="edge">
<title>Node6&#45;&gt;Node8</title>
<path fill="none" stroke="#63b8ff" d="M187.91,-54.75C180.34,-47.03 169.12,-35.6 159.99,-26.28"/>
<polygon fill="#63b8ff" stroke="#63b8ff" points="162.43,-23.78 152.93,-19.09 157.43,-28.68 162.43,-23.78"/>
</g>
<!-- Node12 -->
<g id="node12" class="node">
<title>Node12</title>
<g id="a_node12"><a xlink:href="Finally_8hpp.html" target="_top" xlink:title="Contains jngl::Finally class.">
<polygon fill="white" stroke="#666666" points="579,-129 496,-129 496,-110 579,-110 579,-129"/>
<text text-anchor="middle" x="537.5" y="-117" font-family="ui-monospace,monospace" font-size="10.00">Finally.hpp</text>
</a>
</g>
</g>
<!-- Node11&#45;&gt;Node12 -->
<g id="edge13" class="edge">
<title>Node11&#45;&gt;Node12</title>
<path fill="none" stroke="#63b8ff" d="M464.48,-164.98C477.97,-156.77 498.63,-144.18 514.54,-134.49"/>
<polygon fill="#63b8ff" stroke="#63b8ff" points="516.55,-137.36 523.27,-129.17 512.91,-131.38 516.55,-137.36"/>
</g>
<!-- Node13 -->
<g id="node13" class="node">
<title>Node13</title>
<g id="a_node13"><a xlink:href="other_8hpp.html" target="_top" xlink:title="Miscellaneous functions.">
<polygon fill="white" stroke="#666666" points="478,-129 407,-129 407,-110 478,-110 478,-129"/>
<text text-anchor="middle" x="442.5" y="-117" font-family="ui-monospace,monospace" font-size="10.00">other.hpp</text>
</a>
</g>
</g>
<!-- Node11&#45;&gt;Node13 -->
<g id="edge15" class="edge">
<title>Node11&#45;&gt;Node13</title>
<path fill="none" stroke="#63b8ff" d="M449.18,-164.75C448.13,-157.8 446.63,-147.85 445.31,-139.13"/>
<polygon fill="#63b8ff" stroke="#63b8ff" points="448.75,-138.45 443.8,-129.09 441.83,-139.5 448.75,-138.45"/>
</g>
<!-- Node16 -->
<g id="node16" class="node">
<title>Node16</title>
<g id="a_node16"><a xlink:href="window_8hpp.html" target="_top" xlink:title="Functions related to the main window.">
<polygon fill="white" stroke="#666666" points="674,-129 597,-129 597,-110 674,-110 674,-129"/>
<text text-anchor="middle" x="635.5" y="-117" font-family="ui-monospace,monospace" font-size="10.00">window.hpp</text>
</a>
</g>
</g>
<!-- Node11&#45;&gt;Node16 -->
<g id="edge19" class="edge">
<title>Node11&#45;&gt;Node16</title>
<path fill="none" stroke="#63b8ff" d="M480.22,-164.98C511.55,-156.01 561.07,-141.82 595.74,-131.89"/>
<polygon fill="#63b8ff" stroke="#63b8ff" points="596.89,-135.2 605.54,-129.08 594.97,-128.47 596.89,-135.2"/>
</g>
<!-- Node12&#45;&gt;Node9 -->
<g id="edge14" class="edge">
<title>Node12&#45;&gt;Node9</title>
<path fill="none" stroke="#63b8ff" d="M536.01,-109.75C534.83,-102.8 533.14,-92.85 531.66,-84.13"/>
<polygon fill="#63b8ff" stroke="#63b8ff" points="535.08,-83.36 529.96,-74.09 528.18,-84.53 535.08,-83.36"/>
</g>
<!-- Node13&#45;&gt;Node4 -->
<g id="edge17" class="edge">
<title>Node13&#45;&gt;Node4</title>
<path fill="none" stroke="#63b8ff" d="M430.61,-109.98C419.35,-101.92 402.21,-89.65 388.79,-80.03"/>
<polygon fill="#63b8ff" stroke="#63b8ff" points="390.77,-77.15 380.61,-74.17 386.7,-82.84 390.77,-77.15"/>
</g>
<!-- Node14 -->
<g id="node14" class="node">
<title>Node14</title>
<g id="a_node14"><a target="_parent" xlink:href="http://en.cppreference.com/w/cpp/header/sstream.html" xlink:title=" ">
<polygon fill="white" stroke="#666666" points="472,-74 413,-74 413,-55 472,-55 472,-74"/>
<text text-anchor="middle" x="442.5" y="-62" font-family="ui-monospace,monospace" font-size="10.00">sstream</text>
</a>
</g>
</g>
<!-- Node13&#45;&gt;Node14 -->
<g id="edge16" class="edge">
<title>Node13&#45;&gt;Node14</title>
<path fill="none" stroke="#63b8ff" d="M442.5,-109.75C442.5,-102.8 442.5,-92.85 442.5,-84.13"/>
<polygon fill="#63b8ff" stroke="#63b8ff" points="446,-84.09 442.5,-74.09 439,-84.09 446,-84.09"/>
</g>
<!-- Node15 -->
<g id="node15" class="node">
<title>Node15</title>
<g id="a_node15"><a target="_parent" xlink:href="http://en.cppreference.com/w/cpp/header/vector.html" xlink:title=" ">
<polygon fill="white" stroke="#666666" points="638,-74 585,-74 585,-55 638,-55 638,-74"/>
<text text-anchor="middle" x="611.5" y="-62" font-family="ui-monospace,monospace" font-size="10.00">vector</text>
</a>
</g>
</g>
<!-- Node13&#45;&gt;Node15 -->
<g id="edge18" class="edge">
<title>Node13&#45;&gt;Node15</title>
<path fill="none" stroke="#63b8ff" d="M469.65,-109.98C498.28,-101.01 543.53,-86.82 575.2,-76.88"/>
<polygon fill="#63b8ff" stroke="#63b8ff" points="576.48,-80.15 584.97,-73.82 574.38,-73.47 576.48,-80.15"/>
</g>
<!-- Node16&#45;&gt;Node4 -->
<g id="edge24" class="edge">
<title>Node16&#45;&gt;Node4</title>
<path fill="none" stroke="#63b8ff" d="M596.94,-111.27C544.97,-101.5 454.17,-84.31 405.27,-74.07"/>
<polygon fill="#63b8ff" stroke="#63b8ff" points="405.72,-70.59 395.21,-71.94 404.26,-77.44 405.72,-70.59"/>
</g>
<!-- Node16&#45;&gt;Node9 -->
<g id="edge23" class="edge">
<title>Node16&#45;&gt;Node9</title>
<path fill="none" stroke="#63b8ff" d="M618.31,-109.98C601.25,-101.54 574.87,-88.47 555.1,-78.68"/>
<polygon fill="#63b8ff" stroke="#63b8ff" points="556.52,-75.47 546,-74.17 553.41,-81.75 556.52,-75.47"/>
</g>
<!-- Node16&#45;&gt;Node15 -->
<g id="edge25" class="edge">
<title>Node16&#45;&gt;Node15</title>
<path fill="none" stroke="#63b8ff" d="M631.54,-109.75C628.29,-102.57 623.58,-92.18 619.55,-83.27"/>
<polygon fill="#63b8ff" stroke="#63b8ff" points="622.7,-81.75 615.39,-74.09 616.33,-84.64 622.7,-81.75"/>
</g>
<!-- Node17 -->
<g id="node17" class="node">
<title>Node17</title>
<g id="a_node17"><a xlink:href="Pixels_8hpp.html" target="_top" xlink:title="Contains jngl::Pixels class.">
<polygon fill="white" stroke="#666666" points="733,-74 656,-74 656,-55 733,-55 733,-74"/>
<text text-anchor="middle" x="694.5" y="-62" font-family="ui-monospace,monospace" font-size="10.00">Pixels.hpp</text>
</a>
</g>
</g>
<!-- Node16&#45;&gt;Node17 -->
<g id="edge20" class="edge">
<title>Node16&#45;&gt;Node17</title>
<path fill="none" stroke="#63b8ff" d="M644.98,-109.98C653.7,-102.15 666.84,-90.34 677.4,-80.86"/>
<polygon fill="#63b8ff" stroke="#63b8ff" points="679.75,-83.46 684.85,-74.17 675.07,-78.25 679.75,-83.46"/>
</g>
<!-- Node19 -->
<g id="node19" class="node">
<title>Node19</title>
<g id="a_node19"><a target="_parent" xlink:href="http://en.cppreference.com/w/cpp/header/array.html" xlink:title=" ">
<polygon fill="white" stroke="#666666" points="798,-74 751,-74 751,-55 798,-55 798,-74"/>
<text text-anchor="middle" x="774.5" y="-62" font-family="ui-monospace,monospace" font-size="10.00">array</text>
</a>
</g>
</g>
<!-- Node16&#45;&gt;Node19 -->
<g id="edge22" class="edge">
<title>Node16&#45;&gt;Node19</title>
<path fill="none" stroke="#63b8ff" d="M657.83,-109.98C680.7,-101.27 716.46,-87.63 742.36,-77.75"/>
<polygon fill="#63b8ff" stroke="#63b8ff" points="743.66,-81 751.76,-74.17 741.17,-74.46 743.66,-81"/>
</g>
<!-- Node18 -->
<g id="node18" class="node">
<title>Node18</title>
<g id="a_node18"><a target="_parent" xlink:href="http://en.cppreference.com/w/cpp/header/cstdint.html" xlink:title=" ">
<polygon fill="white" stroke="#666666" points="724,-19 665,-19 665,0 724,0 724,-19"/>
<text text-anchor="middle" x="694.5" y="-7" font-family="ui-monospace,monospace" font-size="10.00">cstdint</text>
</a>
</g>
</g>
<!-- Node17&#45;&gt;Node18 -->
<g id="edge21" class="edge">
<title>Node17&#45;&gt;Node18</title>
<path fill="none" stroke="#63b8ff" d="M694.5,-54.75C694.5,-47.8 694.5,-37.85 694.5,-29.13"/>
<polygon fill="#63b8ff" stroke="#63b8ff" points="698,-29.09 694.5,-19.09 691,-29.09 698,-29.09"/>
</g>
<!-- Node20&#45;&gt;Node4 -->
<g id="edge27" class="edge">
<title>Node20&#45;&gt;Node4</title>
<path fill="none" stroke="#63b8ff" d="M359.32,-164.66C360.94,-147.17 364.58,-107.8 366.76,-84.27"/>
<polygon fill="#63b8ff" stroke="#63b8ff" points="370.26,-84.44 367.7,-74.16 363.29,-83.79 370.26,-84.44"/>
</g>
<!-- Node21&#45;&gt;Node6 -->
<g id="edge29" class="edge">
<title>Node21&#45;&gt;Node6</title>
<path fill="none" stroke="#63b8ff" d="M169.42,-164.71C155.69,-152.68 135.17,-130.26 144.5,-110 150.25,-97.52 161.41,-87.24 171.92,-79.71"/>
<polygon fill="#63b8ff" stroke="#63b8ff" points="174.07,-82.49 180.47,-74.05 170.2,-76.65 174.07,-82.49"/>
</g>
<!-- Node22&#45;&gt;Node3 -->
<g id="edge33" class="edge">
<title>Node22&#45;&gt;Node3</title>
<path fill="none" stroke="#63b8ff" d="M88.4,-164.66C90.18,-147.17 94.19,-107.8 96.59,-84.27"/>
<polygon fill="#63b8ff" stroke="#63b8ff" points="100.09,-84.46 97.62,-74.16 93.12,-83.75 100.09,-84.46"/>
</g>
<!-- Node23 -->
<g id="node23" class="node">
<title>Node23</title>
<g id="a_node23"><a xlink:href="job_8hpp.html" target="_top" xlink:title="Contains jngl::Job class and related functions.">
<polygon fill="white" stroke="#666666" points="59,-129 0,-129 0,-110 59,-110 59,-129"/>
<text text-anchor="middle" x="29.5" y="-117" font-family="ui-monospace,monospace" font-size="10.00">job.hpp</text>
</a>
</g>
</g>
<!-- Node22&#45;&gt;Node23 -->
<g id="edge31" class="edge">
<title>Node22&#45;&gt;Node23</title>
<path fill="none" stroke="#63b8ff" d="M78.18,-164.98C69.69,-157.23 56.94,-145.58 46.62,-136.14"/>
<polygon fill="#63b8ff" stroke="#63b8ff" points="48.73,-133.33 38.99,-129.17 44.01,-138.5 48.73,-133.33"/>
</g>
<!-- Node23&#45;&gt;Node3 -->
<g id="edge32" class="edge">
<title>Node23&#45;&gt;Node3</title>
<path fill="none" stroke="#63b8ff" d="M40.59,-109.98C50.99,-102 66.76,-89.88 79.22,-80.31"/>
<polygon fill="#63b8ff" stroke="#63b8ff" points="81.41,-83.04 87.21,-74.17 77.15,-77.49 81.41,-83.04"/>
</g>
</g>
</svg>
