<?xml version="1.0" encoding="UTF-8" standalone="no"?>
<!DOCTYPE svg PUBLIC "-//W3C//DTD SVG 1.1//EN"
 "http://www.w3.org/Graphics/SVG/1.1/DTD/svg11.dtd">
<!-- Generated by graphviz version 12.1.0 (20240811.2233)
 -->
<!-- Title: jngl/init.hpp Pages: 1 -->
<svg width="730pt" height="248pt"
 viewBox="0.00 0.00 730.00 248.25" xmlns="http://www.w3.org/2000/svg" xmlns:xlink="http://www.w3.org/1999/xlink">
<g id="graph0" class="graph" transform="scale(1 1) rotate(0) translate(4 244.25)">
<title>jngl/init.hpp</title>
<!-- Node1 -->
<g id="Node000001" class="node">
<title>Node1</title>
<g id="a_Node000001"><a xlink:title="Include this file only once, as it defines the main function.">
<polygon fill="#999999" stroke="#666666" points="374,-240.25 280,-240.25 280,-221 374,-221 374,-240.25"/>
<text text-anchor="middle" x="327" y="-226.75" font-family="ui-monospace,monospace" font-size="10.00">jngl/init.hpp</text>
</a>
</g>
</g>
<!-- Node2 -->
<g id="Node000002" class="node">
<title>Node2</title>
<g id="a_Node000002"><a xlink:href="AppParameters_8hpp.html" target="_top" xlink:title="Contains jngl::AppParameters struct.">
<polygon fill="white" stroke="#666666" points="259,-129.75 141,-129.75 141,-110.5 259,-110.5 259,-129.75"/>
<text text-anchor="middle" x="200" y="-116.25" font-family="ui-monospace,monospace" font-size="10.00">AppParameters.hpp</text>
</a>
</g>
</g>
<!-- Node1&#45;&gt;Node2 -->
<g id="edge1_Node000001_Node000002" class="edge">
<title>Node1&#45;&gt;Node2</title>
<g id="a_edge1_Node000001_Node000002"><a xlink:title=" ">
<path fill="none" stroke="#63b8ff" d="M316.61,-220.75C295.3,-202.55 246.4,-160.77 219.18,-137.51"/>
<polygon fill="#63b8ff" stroke="#63b8ff" points="221.56,-134.94 211.69,-131.11 217.02,-140.27 221.56,-134.94"/>
</a>
</g>
</g>
<!-- Node10 -->
<g id="Node000010" class="node">
<title>Node10</title>
<g id="a_Node000010"><a xlink:href="main_8hpp.html" target="_top" xlink:title="Defines macros for the main entry point.">
<polygon fill="white" stroke="#666666" points="428,-185 364,-185 364,-165.75 428,-165.75 428,-185"/>
<text text-anchor="middle" x="396" y="-171.5" font-family="ui-monospace,monospace" font-size="10.00">main.hpp</text>
</a>
</g>
</g>
<!-- Node1&#45;&gt;Node10 -->
<g id="edge9_Node000001_Node000010" class="edge">
<title>Node1&#45;&gt;Node10</title>
<g id="a_edge9_Node000001_Node000010"><a xlink:title=" ">
<path fill="none" stroke="#63b8ff" d="M338.7,-220.59C348.78,-212.82 363.54,-201.42 375.56,-192.15"/>
<polygon fill="#63b8ff" stroke="#63b8ff" points="377.49,-195.08 383.27,-186.2 373.21,-189.54 377.49,-195.08"/>
</a>
</g>
</g>
<!-- Node3 -->
<g id="Node000003" class="node">
<title>Node3</title>
<g id="a_Node000003"><a xlink:href="Vec2_8hpp.html" target="_top" xlink:title="Contains jngl::Vec2 class.">
<polygon fill="white" stroke="#666666" points="146,-74.5 82,-74.5 82,-55.25 146,-55.25 146,-74.5"/>
<text text-anchor="middle" x="114" y="-61" font-family="ui-monospace,monospace" font-size="10.00">Vec2.hpp</text>
</a>
</g>
</g>
<!-- Node2&#45;&gt;Node3 -->
<g id="edge2_Node000002_Node000003" class="edge">
<title>Node2&#45;&gt;Node3</title>
<g id="a_edge2_Node000002_Node000003"><a xlink:title=" ">
<path fill="none" stroke="#63b8ff" d="M185.41,-110.09C172.56,-102.14 153.59,-90.39 138.43,-81"/>
<polygon fill="#63b8ff" stroke="#63b8ff" points="140.29,-78.04 129.95,-75.75 136.61,-83.99 140.29,-78.04"/>
</a>
</g>
</g>
<!-- Node6 -->
<g id="Node000006" class="node">
<title>Node6</title>
<g id="a_Node000006"><a target="_parent" xlink:href="http://en.cppreference.com/w/cpp/header/functional.html" xlink:title=" ">
<polygon fill="white" stroke="#666666" points="310,-74.5 234,-74.5 234,-55.25 310,-55.25 310,-74.5"/>
<text text-anchor="middle" x="272" y="-61" font-family="ui-monospace,monospace" font-size="10.00">functional</text>
</a>
</g>
</g>
<!-- Node2&#45;&gt;Node6 -->
<g id="edge5_Node000002_Node000006" class="edge">
<title>Node2&#45;&gt;Node6</title>
<g id="a_edge5_Node000002_Node000006"><a xlink:title=" ">
<path fill="none" stroke="#63b8ff" d="M212.21,-110.09C222.83,-102.24 238.44,-90.7 251.04,-81.37"/>
<polygon fill="#63b8ff" stroke="#63b8ff" points="252.79,-84.44 258.75,-75.67 248.63,-78.81 252.79,-84.44"/>
</a>
</g>
</g>
<!-- Node7 -->
<g id="Node000007" class="node">
<title>Node7</title>
<g id="a_Node000007"><a target="_parent" xlink:href="http://en.cppreference.com/w/cpp/header/memory.html" xlink:title=" ">
<polygon fill="white" stroke="#666666" points="216,-74.5 164,-74.5 164,-55.25 216,-55.25 216,-74.5"/>
<text text-anchor="middle" x="190" y="-61" font-family="ui-monospace,monospace" font-size="10.00">memory</text>
</a>
</g>
</g>
<!-- Node2&#45;&gt;Node7 -->
<g id="edge6_Node000002_Node000007" class="edge">
<title>Node2&#45;&gt;Node7</title>
<g id="a_edge6_Node000002_Node000007"><a xlink:title=" ">
<path fill="none" stroke="#63b8ff" d="M198.35,-110.33C197.11,-103.74 195.37,-94.46 193.79,-86.07"/>
<polygon fill="#63b8ff" stroke="#63b8ff" points="197.25,-85.53 191.97,-76.35 190.37,-86.82 197.25,-85.53"/>
</a>
</g>
</g>
<!-- Node8 -->
<g id="Node000008" class="node">
<title>Node8</title>
<g id="a_Node000008"><a target="_parent" xlink:href="http://en.cppreference.com/w/cpp/header/optional.html" xlink:title=" ">
<polygon fill="white" stroke="#666666" points="64,-74.5 0,-74.5 0,-55.25 64,-55.25 64,-74.5"/>
<text text-anchor="middle" x="32" y="-61" font-family="ui-monospace,monospace" font-size="10.00">optional</text>
</a>
</g>
</g>
<!-- Node2&#45;&gt;Node8 -->
<g id="edge7_Node000002_Node000008" class="edge">
<title>Node2&#45;&gt;Node8</title>
<g id="a_edge7_Node000002_Node000008"><a xlink:title=" ">
<path fill="none" stroke="#63b8ff" d="M171.5,-110.09C143.99,-101.37 102.09,-88.09 71.39,-78.36"/>
<polygon fill="#63b8ff" stroke="#63b8ff" points="72.67,-75.09 62.08,-75.41 70.56,-81.77 72.67,-75.09"/>
</a>
</g>
</g>
<!-- Node9 -->
<g id="Node000009" class="node">
<title>Node9</title>
<g id="a_Node000009"><a target="_parent" xlink:href="http://en.cppreference.com/w/cpp/header/string.html" xlink:title=" ">
<polygon fill="white" stroke="#666666" points="538,-74.5 486,-74.5 486,-55.25 538,-55.25 538,-74.5"/>
<text text-anchor="middle" x="512" y="-61" font-family="ui-monospace,monospace" font-size="10.00">string</text>
</a>
</g>
</g>
<!-- Node2&#45;&gt;Node9 -->
<g id="edge8_Node000002_Node000009" class="edge">
<title>Node2&#45;&gt;Node9</title>
<g id="a_edge8_Node000002_Node000009"><a xlink:title=" ">
<path fill="none" stroke="#63b8ff" d="M259.42,-110.99C313.16,-103.31 394.69,-90.85 474.44,-74.88"/>
<polygon fill="#63b8ff" stroke="#63b8ff" points="475.09,-78.32 484.2,-72.91 473.7,-71.46 475.09,-78.32"/>
</a>
</g>
</g>
<!-- Node4 -->
<g id="Node000004" class="node">
<title>Node4</title>
<g id="a_Node000004"><a xlink:title=" ">
<polygon fill="#e0e0e0" stroke="#999999" points="229,-19.25 105,-19.25 105,0 229,0 229,-19.25"/>
<text text-anchor="middle" x="167" y="-5.75" font-family="ui-monospace,monospace" font-size="10.00">boost/qvm_lite.hpp</text>
</a>
</g>
</g>
<!-- Node3&#45;&gt;Node4 -->
<g id="edge3_Node000003_Node000004" class="edge">
<title>Node3&#45;&gt;Node4</title>
<g id="a_edge3_Node000003_Node000004"><a xlink:title=" ">
<path fill="none" stroke="#63b8ff" d="M122.75,-55.08C130.15,-47.65 140.96,-36.79 150.05,-27.66"/>
<polygon fill="#63b8ff" stroke="#63b8ff" points="152.42,-30.24 156.99,-20.68 147.46,-25.3 152.42,-30.24"/>
</a>
</g>
</g>
<!-- Node5 -->
<g id="Node000005" class="node">
<title>Node5</title>
<g id="a_Node000005"><a target="_parent" xlink:href="http://en.cppreference.com/w/cpp/header/iosfwd.html" xlink:title=" ">
<polygon fill="white" stroke="#666666" points="87,-19.25 35,-19.25 35,0 87,0 87,-19.25"/>
<text text-anchor="middle" x="61" y="-5.75" font-family="ui-monospace,monospace" font-size="10.00">iosfwd</text>
</a>
</g>
</g>
<!-- Node3&#45;&gt;Node5 -->
<g id="edge4_Node000003_Node000005" class="edge">
<title>Node3&#45;&gt;Node5</title>
<g id="a_edge4_Node000003_Node000005"><a xlink:title=" ">
<path fill="none" stroke="#63b8ff" d="M105.25,-55.08C97.85,-47.65 87.04,-36.79 77.95,-27.66"/>
<polygon fill="#63b8ff" stroke="#63b8ff" points="80.54,-25.3 71.01,-20.68 75.58,-30.24 80.54,-25.3"/>
</a>
</g>
</g>
<!-- Node11 -->
<g id="Node000011" class="node">
<title>Node11</title>
<g id="a_Node000011"><a xlink:href="Finally_8hpp.html" target="_top" xlink:title="Contains jngl::Finally class.">
<polygon fill="white" stroke="#666666" points="379,-129.75 297,-129.75 297,-110.5 379,-110.5 379,-129.75"/>
<text text-anchor="middle" x="338" y="-116.25" font-family="ui-monospace,monospace" font-size="10.00">Finally.hpp</text>
</a>
</g>
</g>
<!-- Node10&#45;&gt;Node11 -->
<g id="edge10_Node000010_Node000011" class="edge">
<title>Node10&#45;&gt;Node11</title>
<g id="a_edge10_Node000010_Node000011"><a xlink:title=" ">
<path fill="none" stroke="#63b8ff" d="M386.16,-165.34C377.95,-157.8 366.02,-146.85 356.09,-137.73"/>
<polygon fill="#63b8ff" stroke="#63b8ff" points="358.54,-135.23 348.81,-131.05 353.81,-140.39 358.54,-135.23"/>
</a>
</g>
</g>
<!-- Node12 -->
<g id="Node000012" class="node">
<title>Node12</title>
<g id="a_Node000012"><a xlink:href="other_8hpp.html" target="_top" xlink:title="Miscellaneous functions.">
<polygon fill="white" stroke="#666666" points="617,-129.75 547,-129.75 547,-110.5 617,-110.5 617,-129.75"/>
<text text-anchor="middle" x="582" y="-116.25" font-family="ui-monospace,monospace" font-size="10.00">other.hpp</text>
</a>
</g>
</g>
<!-- Node10&#45;&gt;Node12 -->
<g id="edge12_Node000010_Node000012" class="edge">
<title>Node10&#45;&gt;Node12</title>
<g id="a_edge12_Node000010_Node000012"><a xlink:title=" ">
<path fill="none" stroke="#63b8ff" d="M427.55,-165.34C458.28,-156.54 505.21,-143.11 539.28,-133.36"/>
<polygon fill="#63b8ff" stroke="#63b8ff" points="540.19,-136.74 548.84,-130.62 538.26,-130.01 540.19,-136.74"/>
</a>
</g>
</g>
<!-- Node16 -->
<g id="Node000016" class="node">
<title>Node16</title>
<g id="a_Node000016"><a xlink:href="window_8hpp.html" target="_top" xlink:title="Functions related to the main window.">
<polygon fill="white" stroke="#666666" points="478,-129.75 402,-129.75 402,-110.5 478,-110.5 478,-129.75"/>
<text text-anchor="middle" x="440" y="-116.25" font-family="ui-monospace,monospace" font-size="10.00">window.hpp</text>
</a>
</g>
</g>
<!-- Node10&#45;&gt;Node16 -->
<g id="edge17_Node000010_Node000016" class="edge">
<title>Node10&#45;&gt;Node16</title>
<g id="a_edge17_Node000010_Node000016"><a xlink:title=" ">
<path fill="none" stroke="#63b8ff" d="M403.27,-165.58C409.28,-158.3 418.01,-147.73 425.46,-138.73"/>
<polygon fill="#63b8ff" stroke="#63b8ff" points="427.94,-141.21 431.61,-131.28 422.54,-136.76 427.94,-141.21"/>
</a>
</g>
</g>
<!-- Node11&#45;&gt;Node6 -->
<g id="edge11_Node000011_Node000006" class="edge">
<title>Node11&#45;&gt;Node6</title>
<g id="a_edge11_Node000011_Node000006"><a xlink:title=" ">
<path fill="none" stroke="#63b8ff" d="M326.8,-110.09C317.26,-102.4 303.33,-91.15 291.89,-81.93"/>
<polygon fill="#63b8ff" stroke="#63b8ff" points="294.19,-79.28 284.21,-75.73 289.79,-84.73 294.19,-79.28"/>
</a>
</g>
</g>
<!-- Node12&#45;&gt;Node9 -->
<g id="edge15_Node000012_Node000009" class="edge">
<title>Node12&#45;&gt;Node9</title>
<g id="a_edge15_Node000012_Node000009"><a xlink:title=" ">
<path fill="none" stroke="#63b8ff" d="M570.13,-110.09C559.91,-102.32 544.93,-90.92 532.74,-81.65"/>
<polygon fill="#63b8ff" stroke="#63b8ff" points="534.98,-78.96 524.9,-75.69 530.74,-84.53 534.98,-78.96"/>
</a>
</g>
</g>
<!-- Node13 -->
<g id="Node000013" class="node">
<title>Node13</title>
<g id="a_Node000013"><a target="_parent" xlink:href="http://en.cppreference.com/w/cpp/header/cstdint.html" xlink:title=" ">
<polygon fill="white" stroke="#666666" points="530,-19.25 472,-19.25 472,0 530,0 530,-19.25"/>
<text text-anchor="middle" x="501" y="-5.75" font-family="ui-monospace,monospace" font-size="10.00">cstdint</text>
</a>
</g>
</g>
<!-- Node12&#45;&gt;Node13 -->
<g id="edge13_Node000012_Node000013" class="edge">
<title>Node12&#45;&gt;Node13</title>
<g id="a_edge13_Node000012_Node000013"><a xlink:title=" ">
<path fill="none" stroke="#63b8ff" d="M593.32,-110.12C607.84,-97.44 629.74,-73.8 617,-55.25 600.19,-30.77 567.92,-19.71 541.68,-14.72"/>
<polygon fill="#63b8ff" stroke="#63b8ff" points="542.43,-11.3 531.99,-13.13 541.29,-18.2 542.43,-11.3"/>
</a>
</g>
</g>
<!-- Node14 -->
<g id="Node000014" class="node">
<title>Node14</title>
<g id="a_Node000014"><a target="_parent" xlink:href="http://en.cppreference.com/w/cpp/header/sstream.html" xlink:title=" ">
<polygon fill="white" stroke="#666666" points="722,-74.5 664,-74.5 664,-55.25 722,-55.25 722,-74.5"/>
<text text-anchor="middle" x="693" y="-61" font-family="ui-monospace,monospace" font-size="10.00">sstream</text>
</a>
</g>
</g>
<!-- Node12&#45;&gt;Node14 -->
<g id="edge14_Node000012_Node000014" class="edge">
<title>Node12&#45;&gt;Node14</title>
<g id="a_edge14_Node000012_Node000014"><a xlink:title=" ">
<path fill="none" stroke="#63b8ff" d="M600.83,-110.09C618.05,-101.83 643.8,-89.48 663.71,-79.93"/>
<polygon fill="#63b8ff" stroke="#63b8ff" points="665.21,-83.09 672.71,-75.61 662.18,-76.78 665.21,-83.09"/>
</a>
</g>
</g>
<!-- Node15 -->
<g id="Node000015" class="node">
<title>Node15</title>
<g id="a_Node000015"><a target="_parent" xlink:href="http://en.cppreference.com/w/cpp/header/vector.html" xlink:title=" ">
<polygon fill="white" stroke="#666666" points="608,-74.5 556,-74.5 556,-55.25 608,-55.25 608,-74.5"/>
<text text-anchor="middle" x="582" y="-61" font-family="ui-monospace,monospace" font-size="10.00">vector</text>
</a>
</g>
</g>
<!-- Node12&#45;&gt;Node15 -->
<g id="edge16_Node000012_Node000015" class="edge">
<title>Node12&#45;&gt;Node15</title>
<g id="a_edge16_Node000012_Node000015"><a xlink:title=" ">
<path fill="none" stroke="#63b8ff" d="M582,-110.33C582,-103.82 582,-94.67 582,-86.37"/>
<polygon fill="#63b8ff" stroke="#63b8ff" points="585.5,-86.37 582,-76.37 578.5,-86.37 585.5,-86.37"/>
</a>
</g>
</g>
<!-- Node16&#45;&gt;Node6 -->
<g id="edge21_Node000016_Node000006" class="edge">
<title>Node16&#45;&gt;Node6</title>
<g id="a_edge21_Node000016_Node000006"><a xlink:title=" ">
<path fill="none" stroke="#63b8ff" d="M411.5,-110.09C383.99,-101.37 342.09,-88.09 311.39,-78.36"/>
<polygon fill="#63b8ff" stroke="#63b8ff" points="312.67,-75.09 302.08,-75.41 310.56,-81.77 312.67,-75.09"/>
</a>
</g>
</g>
<!-- Node16&#45;&gt;Node9 -->
<g id="edge22_Node000016_Node000009" class="edge">
<title>Node16&#45;&gt;Node9</title>
<g id="a_edge22_Node000016_Node000009"><a xlink:title=" ">
<path fill="none" stroke="#63b8ff" d="M452.21,-110.09C462.83,-102.24 478.44,-90.7 491.04,-81.37"/>
<polygon fill="#63b8ff" stroke="#63b8ff" points="492.79,-84.44 498.75,-75.67 488.63,-78.81 492.79,-84.44"/>
</a>
</g>
</g>
<!-- Node16&#45;&gt;Node15 -->
<g id="edge23_Node000016_Node000015" class="edge">
<title>Node16&#45;&gt;Node15</title>
<g id="a_edge23_Node000016_Node000015"><a xlink:title=" ">
<path fill="none" stroke="#63b8ff" d="M464.09,-110.09C486.94,-101.52 521.52,-88.56 547.33,-78.88"/>
<polygon fill="#63b8ff" stroke="#63b8ff" points="548.24,-82.27 556.38,-75.48 545.78,-75.72 548.24,-82.27"/>
</a>
</g>
</g>
<!-- Node17 -->
<g id="Node000017" class="node">
<title>Node17</title>
<g id="a_Node000017"><a xlink:href="Pixels_8hpp.html" target="_top" xlink:title="Contains jngl::Pixels class.">
<polygon fill="white" stroke="#666666" points="404,-74.5 328,-74.5 328,-55.25 404,-55.25 404,-74.5"/>
<text text-anchor="middle" x="366" y="-61" font-family="ui-monospace,monospace" font-size="10.00">Pixels.hpp</text>
</a>
</g>
</g>
<!-- Node16&#45;&gt;Node17 -->
<g id="edge18_Node000016_Node000017" class="edge">
<title>Node16&#45;&gt;Node17</title>
<g id="a_edge18_Node000016_Node000017"><a xlink:title=" ">
<path fill="none" stroke="#63b8ff" d="M427.45,-110.09C416.54,-102.24 400.5,-90.7 387.54,-81.37"/>
<polygon fill="#63b8ff" stroke="#63b8ff" points="389.76,-78.66 379.6,-75.66 385.67,-84.34 389.76,-78.66"/>
</a>
</g>
</g>
<!-- Node18 -->
<g id="Node000018" class="node">
<title>Node18</title>
<g id="a_Node000018"><a target="_parent" xlink:href="http://en.cppreference.com/w/cpp/header/array.html" xlink:title=" ">
<polygon fill="white" stroke="#666666" points="468,-74.5 422,-74.5 422,-55.25 468,-55.25 468,-74.5"/>
<text text-anchor="middle" x="445" y="-61" font-family="ui-monospace,monospace" font-size="10.00">array</text>
</a>
</g>
</g>
<!-- Node16&#45;&gt;Node18 -->
<g id="edge20_Node000016_Node000018" class="edge">
<title>Node16&#45;&gt;Node18</title>
<g id="a_edge20_Node000016_Node000018"><a xlink:title=" ">
<path fill="none" stroke="#63b8ff" d="M440.83,-110.33C441.44,-103.74 442.32,-94.46 443.1,-86.07"/>
<polygon fill="#63b8ff" stroke="#63b8ff" points="446.56,-86.65 444.01,-76.37 439.6,-86 446.56,-86.65"/>
</a>
</g>
</g>
<!-- Node17&#45;&gt;Node13 -->
<g id="edge19_Node000017_Node000013" class="edge">
<title>Node17&#45;&gt;Node13</title>
<g id="a_edge19_Node000017_Node000013"><a xlink:title=" ">
<path fill="none" stroke="#63b8ff" d="M388.9,-54.84C410.43,-46.35 442.91,-33.54 467.38,-23.89"/>
<polygon fill="#63b8ff" stroke="#63b8ff" points="468.56,-27.18 476.58,-20.26 465.99,-20.67 468.56,-27.18"/>
</a>
</g>
</g>
</g>
</svg>
