<?xml version="1.0" encoding="UTF-8" standalone="no"?>
<!DOCTYPE svg PUBLIC "-//W3C//DTD SVG 1.1//EN"
 "http://www.w3.org/Graphics/SVG/1.1/DTD/svg11.dtd">
<!-- Generated by graphviz version 5.0.0 (0)
 -->
<!-- Title: jngl/init.hpp Pages: 1 -->
<svg width="748pt" height="247pt"
 viewBox="0.00 0.00 748.00 247.00" xmlns="http://www.w3.org/2000/svg" xmlns:xlink="http://www.w3.org/1999/xlink">
<g id="graph0" class="graph" transform="scale(1 1) rotate(0) translate(4 243)">
<title>jngl/init.hpp</title>
<!-- Node1 -->
<g id="node1" class="node">
<title>Node1</title>
<g id="a_node1"><a xlink:title="Include this file only once, as it defines the main function.">
<polygon fill="#999999" stroke="#666666" points="316,-239 221,-239 221,-220 316,-220 316,-239"/>
<text text-anchor="middle" x="268.5" y="-227" font-family="ui-monospace,monospace" font-size="10.00">jngl/init.hpp</text>
</a>
</g>
</g>
<!-- Node2 -->
<g id="node2" class="node">
<title>Node2</title>
<g id="a_node2"><a xlink:title=" ">
<polygon fill="#e0e0e0" stroke="#999999" points="84,-184 25,-184 25,-165 84,-165 84,-184"/>
<text text-anchor="middle" x="54.5" y="-172" font-family="ui-monospace,monospace" font-size="10.00">App.hpp</text>
</a>
</g>
</g>
<!-- Node1&#45;&gt;Node2 -->
<g id="edge1" class="edge">
<title>Node1&#45;&gt;Node2</title>
<path fill="none" stroke="#63b8ff" d="M234.12,-219.98C195.89,-210.52 134.24,-195.25 94.04,-185.29"/>
<polygon fill="#63b8ff" stroke="#63b8ff" points="94.86,-181.89 84.31,-182.88 93.18,-188.68 94.86,-181.89"/>
</g>
<!-- Node3 -->
<g id="node3" class="node">
<title>Node3</title>
<g id="a_node3"><a xlink:href="AppParameters_8hpp.html" target="_top" xlink:title="Contains jngl::AppParameters struct.">
<polygon fill="white" stroke="#666666" points="227,-129 108,-129 108,-110 227,-110 227,-129"/>
<text text-anchor="middle" x="167.5" y="-117" font-family="ui-monospace,monospace" font-size="10.00">AppParameters.hpp</text>
</a>
</g>
</g>
<!-- Node1&#45;&gt;Node3 -->
<g id="edge2" class="edge">
<title>Node1&#45;&gt;Node3</title>
<path fill="none" stroke="#63b8ff" d="M260.23,-219.66C243.21,-201.46 204.02,-159.55 182.43,-136.47"/>
<polygon fill="#63b8ff" stroke="#63b8ff" points="184.98,-134.07 175.6,-129.16 179.87,-138.85 184.98,-134.07"/>
</g>
<!-- Node11 -->
<g id="node11" class="node">
<title>Node11</title>
<g id="a_node11"><a xlink:href="main_8hpp.html" target="_top" xlink:title="Defines macros for the main entry point.">
<polygon fill="white" stroke="#666666" points="485,-184 420,-184 420,-165 485,-165 485,-184"/>
<text text-anchor="middle" x="452.5" y="-172" font-family="ui-monospace,monospace" font-size="10.00">main.hpp</text>
</a>
</g>
</g>
<!-- Node1&#45;&gt;Node11 -->
<g id="edge10" class="edge">
<title>Node1&#45;&gt;Node11</title>
<path fill="none" stroke="#63b8ff" d="M298.06,-219.98C329.22,-211.01 378.47,-196.82 412.96,-186.89"/>
<polygon fill="#63b8ff" stroke="#63b8ff" points="414.07,-190.21 422.71,-184.08 412.13,-183.49 414.07,-190.21"/>
</g>
<!-- Node20 -->
<g id="node20" class="node">
<title>Node20</title>
<g id="a_node20"><a xlink:href="message_8hpp.html" target="_top" xlink:title=" ">
<polygon fill="white" stroke="#666666" points="402,-184 319,-184 319,-165 402,-165 402,-184"/>
<text text-anchor="middle" x="360.5" y="-172" font-family="ui-monospace,monospace" font-size="10.00">message.hpp</text>
</a>
</g>
</g>
<!-- Node1&#45;&gt;Node20 -->
<g id="edge24" class="edge">
<title>Node1&#45;&gt;Node20</title>
<path fill="none" stroke="#63b8ff" d="M283.28,-219.98C297.68,-211.69 319.81,-198.94 336.69,-189.22"/>
<polygon fill="#63b8ff" stroke="#63b8ff" points="338.53,-192.19 345.45,-184.17 335.04,-186.13 338.53,-192.19"/>
</g>
<!-- Node21 -->
<g id="node21" class="node">
<title>Node21</title>
<g id="a_node21"><a xlink:href="screen_8hpp.html" target="_top" xlink:title=" ">
<polygon fill="white" stroke="#666666" points="179,-184 102,-184 102,-165 179,-165 179,-184"/>
<text text-anchor="middle" x="140.5" y="-172" font-family="ui-monospace,monospace" font-size="10.00">screen.hpp</text>
</a>
</g>
</g>
<!-- Node1&#45;&gt;Node21 -->
<g id="edge26" class="edge">
<title>Node1&#45;&gt;Node21</title>
<path fill="none" stroke="#63b8ff" d="M247.93,-219.98C227.07,-211.34 194.53,-197.87 170.73,-188.02"/>
<polygon fill="#63b8ff" stroke="#63b8ff" points="172.02,-184.76 161.44,-184.17 169.34,-191.23 172.02,-184.76"/>
</g>
<!-- Node22 -->
<g id="node22" class="node">
<title>Node22</title>
<g id="a_node22"><a xlink:href="work_8hpp.html" target="_top" xlink:title=" ">
<polygon fill="white" stroke="#666666" points="301,-184 236,-184 236,-165 301,-165 301,-184"/>
<text text-anchor="middle" x="268.5" y="-172" font-family="ui-monospace,monospace" font-size="10.00">work.hpp</text>
</a>
</g>
</g>
<!-- Node1&#45;&gt;Node22 -->
<g id="edge28" class="edge">
<title>Node1&#45;&gt;Node22</title>
<path fill="none" stroke="#63b8ff" d="M268.5,-219.75C268.5,-212.8 268.5,-202.85 268.5,-194.13"/>
<polygon fill="#63b8ff" stroke="#63b8ff" points="272,-194.09 268.5,-184.09 265,-194.09 272,-194.09"/>
</g>
<!-- Node24 -->
<g id="node24" class="node">
<title>Node24</title>
<g id="a_node24"><a target="_parent" xlink:href="http://en.cppreference.com/w/cpp/header/cmath.html" xlink:title=" ">
<polygon fill="white" stroke="#666666" points="550,-184 503,-184 503,-165 550,-165 550,-184"/>
<text text-anchor="middle" x="526.5" y="-172" font-family="ui-monospace,monospace" font-size="10.00">cmath</text>
</a>
</g>
</g>
<!-- Node1&#45;&gt;Node24 -->
<g id="edge33" class="edge">
<title>Node1&#45;&gt;Node24</title>
<path fill="none" stroke="#63b8ff" d="M316.31,-220.02C360.03,-212.06 426.71,-199.39 493,-184.24"/>
<polygon fill="#63b8ff" stroke="#63b8ff" points="493.82,-187.64 502.78,-181.99 492.25,-180.82 493.82,-187.64"/>
</g>
<!-- Node4 -->
<g id="node4" class="node">
<title>Node4</title>
<g id="a_node4"><a xlink:href="Vec2_8hpp.html" target="_top" xlink:title="Contains jngl::Vec2 class.">
<polygon fill="white" stroke="#666666" points="112,-74 47,-74 47,-55 112,-55 112,-74"/>
<text text-anchor="middle" x="79.5" y="-62" font-family="ui-monospace,monospace" font-size="10.00">Vec2.hpp</text>
</a>
</g>
</g>
<!-- Node3&#45;&gt;Node4 -->
<g id="edge3" class="edge">
<title>Node3&#45;&gt;Node4</title>
<path fill="none" stroke="#63b8ff" d="M153.36,-109.98C139.71,-101.77 118.81,-89.18 102.72,-79.49"/>
<polygon fill="#63b8ff" stroke="#63b8ff" points="104.27,-76.33 93.9,-74.17 100.66,-82.33 104.27,-76.33"/>
</g>
<!-- Node7 -->
<g id="node7" class="node">
<title>Node7</title>
<g id="a_node7"><a target="_parent" xlink:href="http://en.cppreference.com/w/cpp/header/functional.html" xlink:title=" ">
<polygon fill="white" stroke="#666666" points="361,-74 284,-74 284,-55 361,-55 361,-74"/>
<text text-anchor="middle" x="322.5" y="-62" font-family="ui-monospace,monospace" font-size="10.00">functional</text>
</a>
</g>
</g>
<!-- Node3&#45;&gt;Node7 -->
<g id="edge6" class="edge">
<title>Node3&#45;&gt;Node7</title>
<path fill="none" stroke="#63b8ff" d="M192.4,-109.98C218.2,-101.16 258.72,-87.31 287.68,-77.41"/>
<polygon fill="#63b8ff" stroke="#63b8ff" points="289.07,-80.63 297.4,-74.08 286.81,-74.01 289.07,-80.63"/>
</g>
<!-- Node8 -->
<g id="node8" class="node">
<title>Node8</title>
<g id="a_node8"><a target="_parent" xlink:href="http://en.cppreference.com/w/cpp/header/memory.html" xlink:title=" ">
<polygon fill="white" stroke="#666666" points="266,-74 213,-74 213,-55 266,-55 266,-74"/>
<text text-anchor="middle" x="239.5" y="-62" font-family="ui-monospace,monospace" font-size="10.00">memory</text>
</a>
</g>
</g>
<!-- Node3&#45;&gt;Node8 -->
<g id="edge7" class="edge">
<title>Node3&#45;&gt;Node8</title>
<path fill="none" stroke="#63b8ff" d="M179.07,-109.98C189.92,-102 206.38,-89.88 219.38,-80.31"/>
<polygon fill="#63b8ff" stroke="#63b8ff" points="221.74,-82.92 227.72,-74.17 217.59,-77.28 221.74,-82.92"/>
</g>
<!-- Node9 -->
<g id="node9" class="node">
<title>Node9</title>
<g id="a_node9"><a target="_parent" xlink:href="http://en.cppreference.com/w/cpp/header/optional.html" xlink:title=" ">
<polygon fill="white" stroke="#666666" points="195,-74 130,-74 130,-55 195,-55 195,-74"/>
<text text-anchor="middle" x="162.5" y="-62" font-family="ui-monospace,monospace" font-size="10.00">optional</text>
</a>
</g>
</g>
<!-- Node3&#45;&gt;Node9 -->
<g id="edge8" class="edge">
<title>Node3&#45;&gt;Node9</title>
<path fill="none" stroke="#63b8ff" d="M166.67,-109.75C166.02,-102.8 165.08,-92.85 164.26,-84.13"/>
<polygon fill="#63b8ff" stroke="#63b8ff" points="167.73,-83.72 163.31,-74.09 160.77,-84.37 167.73,-83.72"/>
</g>
<!-- Node10 -->
<g id="node10" class="node">
<title>Node10</title>
<g id="a_node10"><a target="_parent" xlink:href="http://en.cppreference.com/w/cpp/header/string.html" xlink:title=" ">
<polygon fill="white" stroke="#666666" points="432,-74 379,-74 379,-55 432,-55 432,-74"/>
<text text-anchor="middle" x="405.5" y="-62" font-family="ui-monospace,monospace" font-size="10.00">string</text>
</a>
</g>
</g>
<!-- Node3&#45;&gt;Node10 -->
<g id="edge9" class="edge">
<title>Node3&#45;&gt;Node10</title>
<path fill="none" stroke="#63b8ff" d="M207.62,-109.98C246.53,-101.66 307.49,-88.46 368.9,-74.33"/>
<polygon fill="#63b8ff" stroke="#63b8ff" points="369.8,-77.72 378.76,-72.06 368.23,-70.9 369.8,-77.72"/>
</g>
<!-- Node5 -->
<g id="node5" class="node">
<title>Node5</title>
<g id="a_node5"><a xlink:title=" ">
<polygon fill="#e0e0e0" stroke="#999999" points="196,-19 71,-19 71,0 196,0 196,-19"/>
<text text-anchor="middle" x="133.5" y="-7" font-family="ui-monospace,monospace" font-size="10.00">boost/qvm_lite.hpp</text>
</a>
</g>
</g>
<!-- Node4&#45;&gt;Node5 -->
<g id="edge4" class="edge">
<title>Node4&#45;&gt;Node5</title>
<path fill="none" stroke="#63b8ff" d="M88.42,-54.75C96.28,-47.03 107.93,-35.6 117.42,-26.28"/>
<polygon fill="#63b8ff" stroke="#63b8ff" points="120.06,-28.59 124.75,-19.09 115.16,-23.6 120.06,-28.59"/>
</g>
<!-- Node6 -->
<g id="node6" class="node">
<title>Node6</title>
<g id="a_node6"><a target="_parent" xlink:href="http://en.cppreference.com/w/cpp/header/iosfwd.html" xlink:title=" ">
<polygon fill="white" stroke="#666666" points="53,-19 0,-19 0,0 53,0 53,-19"/>
<text text-anchor="middle" x="26.5" y="-7" font-family="ui-monospace,monospace" font-size="10.00">iosfwd</text>
</a>
</g>
</g>
<!-- Node4&#45;&gt;Node6 -->
<g id="edge5" class="edge">
<title>Node4&#45;&gt;Node6</title>
<path fill="none" stroke="#63b8ff" d="M70.75,-54.75C63.03,-47.03 51.6,-35.6 42.28,-26.28"/>
<polygon fill="#63b8ff" stroke="#63b8ff" points="44.64,-23.69 35.09,-19.09 39.69,-28.64 44.64,-23.69"/>
</g>
<!-- Node12 -->
<g id="node12" class="node">
<title>Node12</title>
<g id="a_node12"><a xlink:href="Finally_8hpp.html" target="_top" xlink:title="Contains jngl::Finally class.">
<polygon fill="white" stroke="#666666" points="483,-129 400,-129 400,-110 483,-110 483,-129"/>
<text text-anchor="middle" x="441.5" y="-117" font-family="ui-monospace,monospace" font-size="10.00">Finally.hpp</text>
</a>
</g>
</g>
<!-- Node11&#45;&gt;Node12 -->
<g id="edge11" class="edge">
<title>Node11&#45;&gt;Node12</title>
<path fill="none" stroke="#63b8ff" d="M450.68,-164.75C449.24,-157.8 447.18,-147.85 445.37,-139.13"/>
<polygon fill="#63b8ff" stroke="#63b8ff" points="448.74,-138.17 443.28,-129.09 441.89,-139.59 448.74,-138.17"/>
</g>
<!-- Node13 -->
<g id="node13" class="node">
<title>Node13</title>
<g id="a_node13"><a xlink:href="other_8hpp.html" target="_top" xlink:title="Miscellaneous functions.">
<polygon fill="white" stroke="#666666" points="669,-129 598,-129 598,-110 669,-110 669,-129"/>
<text text-anchor="middle" x="633.5" y="-117" font-family="ui-monospace,monospace" font-size="10.00">other.hpp</text>
</a>
</g>
</g>
<!-- Node11&#45;&gt;Node13 -->
<g id="edge13" class="edge">
<title>Node11&#45;&gt;Node13</title>
<path fill="none" stroke="#63b8ff" d="M481.58,-164.98C512.1,-156.05 560.26,-141.94 594.16,-132.02"/>
<polygon fill="#63b8ff" stroke="#63b8ff" points="595.58,-135.25 604.19,-129.08 593.61,-128.53 595.58,-135.25"/>
</g>
<!-- Node16 -->
<g id="node16" class="node">
<title>Node16</title>
<g id="a_node16"><a xlink:href="window_8hpp.html" target="_top" xlink:title="Functions related to the main window.">
<polygon fill="white" stroke="#666666" points="578,-129 501,-129 501,-110 578,-110 578,-129"/>
<text text-anchor="middle" x="539.5" y="-117" font-family="ui-monospace,monospace" font-size="10.00">window.hpp</text>
</a>
</g>
</g>
<!-- Node11&#45;&gt;Node16 -->
<g id="edge17" class="edge">
<title>Node11&#45;&gt;Node16</title>
<path fill="none" stroke="#63b8ff" d="M466.48,-164.98C479.97,-156.77 500.63,-144.18 516.54,-134.49"/>
<polygon fill="#63b8ff" stroke="#63b8ff" points="518.55,-137.36 525.27,-129.17 514.91,-131.38 518.55,-137.36"/>
</g>
<!-- Node12&#45;&gt;Node7 -->
<g id="edge12" class="edge">
<title>Node12&#45;&gt;Node7</title>
<path fill="none" stroke="#63b8ff" d="M422.38,-109.98C403.15,-101.42 373.27,-88.11 351.19,-78.28"/>
<polygon fill="#63b8ff" stroke="#63b8ff" points="352.53,-75.04 341.97,-74.17 349.68,-81.44 352.53,-75.04"/>
</g>
<!-- Node13&#45;&gt;Node10 -->
<g id="edge15" class="edge">
<title>Node13&#45;&gt;Node10</title>
<path fill="none" stroke="#63b8ff" d="M597.75,-110.26C561.22,-101.83 502.57,-88.27 442.31,-74.18"/>
<polygon fill="#63b8ff" stroke="#63b8ff" points="442.77,-70.69 432.23,-71.82 441.17,-77.51 442.77,-70.69"/>
</g>
<!-- Node14 -->
<g id="node14" class="node">
<title>Node14</title>
<g id="a_node14"><a target="_parent" xlink:href="http://en.cppreference.com/w/cpp/header/sstream.html" xlink:title=" ">
<polygon fill="white" stroke="#666666" points="740,-74 681,-74 681,-55 740,-55 740,-74"/>
<text text-anchor="middle" x="710.5" y="-62" font-family="ui-monospace,monospace" font-size="10.00">sstream</text>
</a>
</g>
</g>
<!-- Node13&#45;&gt;Node14 -->
<g id="edge14" class="edge">
<title>Node13&#45;&gt;Node14</title>
<path fill="none" stroke="#63b8ff" d="M645.87,-109.98C657.59,-101.92 675.42,-89.65 689.39,-80.03"/>
<polygon fill="#63b8ff" stroke="#63b8ff" points="691.65,-82.72 697.9,-74.17 687.68,-76.96 691.65,-82.72"/>
</g>
<!-- Node15 -->
<g id="node15" class="node">
<title>Node15</title>
<g id="a_node15"><a target="_parent" xlink:href="http://en.cppreference.com/w/cpp/header/vector.html" xlink:title=" ">
<polygon fill="white" stroke="#666666" points="663,-74 610,-74 610,-55 663,-55 663,-74"/>
<text text-anchor="middle" x="636.5" y="-62" font-family="ui-monospace,monospace" font-size="10.00">vector</text>
</a>
</g>
</g>
<!-- Node13&#45;&gt;Node15 -->
<g id="edge16" class="edge">
<title>Node13&#45;&gt;Node15</title>
<path fill="none" stroke="#63b8ff" d="M634,-109.75C634.39,-102.8 634.95,-92.85 635.45,-84.13"/>
<polygon fill="#63b8ff" stroke="#63b8ff" points="638.94,-84.27 636.01,-74.09 631.95,-83.88 638.94,-84.27"/>
</g>
<!-- Node16&#45;&gt;Node7 -->
<g id="edge21" class="edge">
<title>Node16&#45;&gt;Node7</title>
<path fill="none" stroke="#63b8ff" d="M504.64,-109.98C467.41,-100.89 408.3,-86.46 367.57,-76.51"/>
<polygon fill="#63b8ff" stroke="#63b8ff" points="368.18,-73.05 357.64,-74.08 366.52,-79.85 368.18,-73.05"/>
</g>
<!-- Node16&#45;&gt;Node10 -->
<g id="edge22" class="edge">
<title>Node16&#45;&gt;Node10</title>
<path fill="none" stroke="#63b8ff" d="M517.97,-109.98C496.03,-101.3 461.76,-87.75 436.81,-77.88"/>
<polygon fill="#63b8ff" stroke="#63b8ff" points="438.01,-74.59 427.42,-74.17 435.43,-81.1 438.01,-74.59"/>
</g>
<!-- Node16&#45;&gt;Node15 -->
<g id="edge23" class="edge">
<title>Node16&#45;&gt;Node15</title>
<path fill="none" stroke="#63b8ff" d="M555.08,-109.98C570.27,-101.69 593.6,-88.94 611.4,-79.22"/>
<polygon fill="#63b8ff" stroke="#63b8ff" points="613.53,-82.04 620.63,-74.17 610.18,-75.89 613.53,-82.04"/>
</g>
<!-- Node17 -->
<g id="node17" class="node">
<title>Node17</title>
<g id="a_node17"><a xlink:href="Pixels_8hpp.html" target="_top" xlink:title="Contains jngl::Pixels class.">
<polygon fill="white" stroke="#666666" points="592,-74 515,-74 515,-55 592,-55 592,-74"/>
<text text-anchor="middle" x="553.5" y="-62" font-family="ui-monospace,monospace" font-size="10.00">Pixels.hpp</text>
</a>
</g>
</g>
<!-- Node16&#45;&gt;Node17 -->
<g id="edge18" class="edge">
<title>Node16&#45;&gt;Node17</title>
<path fill="none" stroke="#63b8ff" d="M541.81,-109.75C543.67,-102.72 546.34,-92.62 548.65,-83.84"/>
<polygon fill="#63b8ff" stroke="#63b8ff" points="552.06,-84.65 551.23,-74.09 545.29,-82.86 552.06,-84.65"/>
</g>
<!-- Node19 -->
<g id="node19" class="node">
<title>Node19</title>
<g id="a_node19"><a target="_parent" xlink:href="http://en.cppreference.com/w/cpp/header/array.html" xlink:title=" ">
<polygon fill="white" stroke="#666666" points="497,-74 450,-74 450,-55 497,-55 497,-74"/>
<text text-anchor="middle" x="473.5" y="-62" font-family="ui-monospace,monospace" font-size="10.00">array</text>
</a>
</g>
</g>
<!-- Node16&#45;&gt;Node19 -->
<g id="edge20" class="edge">
<title>Node16&#45;&gt;Node19</title>
<path fill="none" stroke="#63b8ff" d="M528.9,-109.98C519.04,-102.07 504.15,-90.11 492.28,-80.58"/>
<polygon fill="#63b8ff" stroke="#63b8ff" points="494.29,-77.7 484.3,-74.17 489.9,-83.16 494.29,-77.7"/>
</g>
<!-- Node18 -->
<g id="node18" class="node">
<title>Node18</title>
<g id="a_node18"><a target="_parent" xlink:href="http://en.cppreference.com/w/cpp/header/cstdint.html" xlink:title=" ">
<polygon fill="white" stroke="#666666" points="583,-19 524,-19 524,0 583,0 583,-19"/>
<text text-anchor="middle" x="553.5" y="-7" font-family="ui-monospace,monospace" font-size="10.00">cstdint</text>
</a>
</g>
</g>
<!-- Node17&#45;&gt;Node18 -->
<g id="edge19" class="edge">
<title>Node17&#45;&gt;Node18</title>
<path fill="none" stroke="#63b8ff" d="M553.5,-54.75C553.5,-47.8 553.5,-37.85 553.5,-29.13"/>
<polygon fill="#63b8ff" stroke="#63b8ff" points="557,-29.09 553.5,-19.09 550,-29.09 557,-29.09"/>
</g>
<!-- Node20&#45;&gt;Node10 -->
<g id="edge25" class="edge">
<title>Node20&#45;&gt;Node10</title>
<path fill="none" stroke="#63b8ff" d="M364.18,-164.66C371.54,-147.01 388.17,-107.09 397.94,-83.64"/>
<polygon fill="#63b8ff" stroke="#63b8ff" points="401.28,-84.74 401.89,-74.16 394.82,-82.04 401.28,-84.74"/>
</g>
<!-- Node21&#45;&gt;Node4 -->
<g id="edge27" class="edge">
<title>Node21&#45;&gt;Node4</title>
<path fill="none" stroke="#63b8ff" d="M129.71,-164.68C120.22,-156.39 106.68,-143.17 98.5,-129 90.49,-115.13 85.57,-97.56 82.75,-84.43"/>
<polygon fill="#63b8ff" stroke="#63b8ff" points="86.12,-83.38 80.79,-74.22 79.24,-84.71 86.12,-83.38"/>
</g>
<!-- Node22&#45;&gt;Node8 -->
<g id="edge32" class="edge">
<title>Node22&#45;&gt;Node8</title>
<path fill="none" stroke="#63b8ff" d="M266.13,-164.66C261.41,-147.09 250.76,-107.45 244.46,-83.95"/>
<polygon fill="#63b8ff" stroke="#63b8ff" points="247.8,-82.91 241.82,-74.16 241.04,-84.72 247.8,-82.91"/>
</g>
<!-- Node23 -->
<g id="node23" class="node">
<title>Node23</title>
<g id="a_node23"><a xlink:href="job_8hpp.html" target="_top" xlink:title="Contains jngl::Job class and related functions.">
<polygon fill="white" stroke="#666666" points="343,-129 284,-129 284,-110 343,-110 343,-129"/>
<text text-anchor="middle" x="313.5" y="-117" font-family="ui-monospace,monospace" font-size="10.00">job.hpp</text>
</a>
</g>
</g>
<!-- Node22&#45;&gt;Node23 -->
<g id="edge29" class="edge">
<title>Node22&#45;&gt;Node23</title>
<path fill="none" stroke="#63b8ff" d="M275.93,-164.75C282.35,-157.18 291.81,-146.05 299.62,-136.84"/>
<polygon fill="#63b8ff" stroke="#63b8ff" points="302.4,-138.98 306.21,-129.09 297.07,-134.45 302.4,-138.98"/>
</g>
<!-- Node23&#45;&gt;Node7 -->
<g id="edge30" class="edge">
<title>Node23&#45;&gt;Node7</title>
<path fill="none" stroke="#63b8ff" d="M314.99,-109.75C316.17,-102.8 317.86,-92.85 319.34,-84.13"/>
<polygon fill="#63b8ff" stroke="#63b8ff" points="322.82,-84.53 321.04,-74.09 315.92,-83.36 322.82,-84.53"/>
</g>
<!-- Node23&#45;&gt;Node8 -->
<g id="edge31" class="edge">
<title>Node23&#45;&gt;Node8</title>
<path fill="none" stroke="#63b8ff" d="M301.61,-109.98C290.35,-101.92 273.21,-89.65 259.79,-80.03"/>
<polygon fill="#63b8ff" stroke="#63b8ff" points="261.77,-77.15 251.61,-74.17 257.7,-82.84 261.77,-77.15"/>
</g>
</g>
</svg>
