<?xml version="1.0" encoding="UTF-8" standalone="no"?>
<!DOCTYPE svg PUBLIC "-//W3C//DTD SVG 1.1//EN"
 "http://www.w3.org/Graphics/SVG/1.1/DTD/svg11.dtd">
<!-- Generated by graphviz version 5.0.0 (0)
 -->
<!-- Title: jngl/init.hpp Pages: 1 -->
<svg width="768pt" height="247pt"
 viewBox="0.00 0.00 768.00 247.00" xmlns="http://www.w3.org/2000/svg" xmlns:xlink="http://www.w3.org/1999/xlink">
<g id="graph0" class="graph" transform="scale(1 1) rotate(0) translate(4 243)">
<title>jngl/init.hpp</title>
<!-- Node1 -->
<g id="node1" class="node">
<title>Node1</title>
<g id="a_node1"><a xlink:title="Include this file only once, as it defines the main function.">
<polygon fill="#999999" stroke="#666666" points="333,-239 238,-239 238,-220 333,-220 333,-239"/>
<text text-anchor="middle" x="285.5" y="-227" font-family="ui-monospace,monospace" font-size="10.00">jngl/init.hpp</text>
</a>
</g>
</g>
<!-- Node2 -->
<g id="node2" class="node">
<title>Node2</title>
<g id="a_node2"><a xlink:href="App_8hpp.html" target="_top" xlink:title="Contains jngl::App class.">
<polygon fill="white" stroke="#666666" points="175,-129 116,-129 116,-110 175,-110 175,-129"/>
<text text-anchor="middle" x="145.5" y="-117" font-family="ui-monospace,monospace" font-size="10.00">App.hpp</text>
</a>
</g>
</g>
<!-- Node1&#45;&gt;Node2 -->
<g id="edge1" class="edge">
<title>Node1&#45;&gt;Node2</title>
<path fill="none" stroke="#63b8ff" d="M274.04,-219.66C250.03,-201.14 194.21,-158.08 164.65,-135.28"/>
<polygon fill="#63b8ff" stroke="#63b8ff" points="166.78,-132.5 156.72,-129.16 162.5,-138.04 166.78,-132.5"/>
</g>
<!-- Node5 -->
<g id="node5" class="node">
<title>Node5</title>
<g id="a_node5"><a xlink:href="AppParameters_8hpp.html" target="_top" xlink:title="Contains jngl::AppParameters struct.">
<polygon fill="white" stroke="#666666" points="312,-129 193,-129 193,-110 312,-110 312,-129"/>
<text text-anchor="middle" x="252.5" y="-117" font-family="ui-monospace,monospace" font-size="10.00">AppParameters.hpp</text>
</a>
</g>
</g>
<!-- Node1&#45;&gt;Node5 -->
<g id="edge4" class="edge">
<title>Node1&#45;&gt;Node5</title>
<path fill="none" stroke="#63b8ff" d="M282.8,-219.66C277.43,-202.09 265.32,-162.45 258.14,-138.95"/>
<polygon fill="#63b8ff" stroke="#63b8ff" points="261.42,-137.7 255.15,-129.16 254.72,-139.74 261.42,-137.7"/>
</g>
<!-- Node11 -->
<g id="node11" class="node">
<title>Node11</title>
<g id="a_node11"><a xlink:href="main_8hpp.html" target="_top" xlink:title="Defines macros for the main entry point.">
<polygon fill="white" stroke="#666666" points="441,-184 376,-184 376,-165 441,-165 441,-184"/>
<text text-anchor="middle" x="408.5" y="-172" font-family="ui-monospace,monospace" font-size="10.00">main.hpp</text>
</a>
</g>
</g>
<!-- Node1&#45;&gt;Node11 -->
<g id="edge12" class="edge">
<title>Node1&#45;&gt;Node11</title>
<path fill="none" stroke="#63b8ff" d="M305.26,-219.98C325.23,-211.38 356.3,-197.99 379.15,-188.15"/>
<polygon fill="#63b8ff" stroke="#63b8ff" points="380.58,-191.34 388.38,-184.17 377.81,-184.91 380.58,-191.34"/>
</g>
<!-- Node20 -->
<g id="node20" class="node">
<title>Node20</title>
<g id="a_node20"><a xlink:href="screen_8hpp.html" target="_top" xlink:title=" ">
<polygon fill="white" stroke="#666666" points="358,-184 281,-184 281,-165 358,-165 358,-184"/>
<text text-anchor="middle" x="319.5" y="-172" font-family="ui-monospace,monospace" font-size="10.00">screen.hpp</text>
</a>
</g>
</g>
<!-- Node1&#45;&gt;Node20 -->
<g id="edge26" class="edge">
<title>Node1&#45;&gt;Node20</title>
<path fill="none" stroke="#63b8ff" d="M291.11,-219.75C295.82,-212.42 302.67,-201.73 308.47,-192.7"/>
<polygon fill="#63b8ff" stroke="#63b8ff" points="311.54,-194.4 313.99,-184.09 305.64,-190.62 311.54,-194.4"/>
</g>
<!-- Node21 -->
<g id="node21" class="node">
<title>Node21</title>
<g id="a_node21"><a xlink:href="work_8hpp.html" target="_top" xlink:title=" ">
<polygon fill="white" stroke="#666666" points="120,-184 55,-184 55,-165 120,-165 120,-184"/>
<text text-anchor="middle" x="87.5" y="-172" font-family="ui-monospace,monospace" font-size="10.00">work.hpp</text>
</a>
</g>
</g>
<!-- Node1&#45;&gt;Node21 -->
<g id="edge28" class="edge">
<title>Node1&#45;&gt;Node21</title>
<path fill="none" stroke="#63b8ff" d="M253.69,-219.98C220.01,-210.97 166.7,-196.7 129.58,-186.76"/>
<polygon fill="#63b8ff" stroke="#63b8ff" points="130.13,-183.29 119.56,-184.08 128.32,-190.05 130.13,-183.29"/>
</g>
<!-- Node23 -->
<g id="node23" class="node">
<title>Node23</title>
<g id="a_node23"><a target="_parent" xlink:href="http://en.cppreference.com/w/cpp/header/cmath.html" xlink:title=" ">
<polygon fill="white" stroke="#666666" points="506,-184 459,-184 459,-165 506,-165 506,-184"/>
<text text-anchor="middle" x="482.5" y="-172" font-family="ui-monospace,monospace" font-size="10.00">cmath</text>
</a>
</g>
</g>
<!-- Node1&#45;&gt;Node23 -->
<g id="edge32" class="edge">
<title>Node1&#45;&gt;Node23</title>
<path fill="none" stroke="#63b8ff" d="M317.15,-219.98C353.34,-210.25 412.32,-194.38 449.19,-184.46"/>
<polygon fill="#63b8ff" stroke="#63b8ff" points="450.22,-187.81 458.96,-181.83 448.4,-181.05 450.22,-187.81"/>
</g>
<!-- Node3 -->
<g id="node3" class="node">
<title>Node3</title>
<g id="a_node3"><a target="_parent" xlink:href="http://en.cppreference.com/w/cpp/header/memory.html" xlink:title=" ">
<polygon fill="white" stroke="#666666" points="117,-74 64,-74 64,-55 117,-55 117,-74"/>
<text text-anchor="middle" x="90.5" y="-62" font-family="ui-monospace,monospace" font-size="10.00">memory</text>
</a>
</g>
</g>
<!-- Node2&#45;&gt;Node3 -->
<g id="edge2" class="edge">
<title>Node2&#45;&gt;Node3</title>
<path fill="none" stroke="#63b8ff" d="M136.42,-109.75C128.41,-102.03 116.54,-90.6 106.88,-81.28"/>
<polygon fill="#63b8ff" stroke="#63b8ff" points="109.04,-78.51 99.41,-74.09 104.19,-83.55 109.04,-78.51"/>
</g>
<!-- Node4 -->
<g id="node4" class="node">
<title>Node4</title>
<g id="a_node4"><a target="_parent" xlink:href="http://en.cppreference.com/w/cpp/header/string.html" xlink:title=" ">
<polygon fill="white" stroke="#666666" points="357,-74 304,-74 304,-55 357,-55 357,-74"/>
<text text-anchor="middle" x="330.5" y="-62" font-family="ui-monospace,monospace" font-size="10.00">string</text>
</a>
</g>
</g>
<!-- Node2&#45;&gt;Node4 -->
<g id="edge3" class="edge">
<title>Node2&#45;&gt;Node4</title>
<path fill="none" stroke="#63b8ff" d="M175.22,-109.98C207.57,-100.72 259.32,-85.89 294.09,-75.93"/>
<polygon fill="#63b8ff" stroke="#63b8ff" points="295.2,-79.25 303.85,-73.13 293.28,-72.52 295.2,-79.25"/>
</g>
<!-- Node5&#45;&gt;Node3 -->
<g id="edge9" class="edge">
<title>Node5&#45;&gt;Node3</title>
<path fill="none" stroke="#63b8ff" d="M226.47,-109.98C199.39,-101.13 156.79,-87.19 126.49,-77.28"/>
<polygon fill="#63b8ff" stroke="#63b8ff" points="127.32,-73.87 116.73,-74.08 125.15,-80.52 127.32,-73.87"/>
</g>
<!-- Node5&#45;&gt;Node4 -->
<g id="edge11" class="edge">
<title>Node5&#45;&gt;Node4</title>
<path fill="none" stroke="#63b8ff" d="M265.03,-109.98C276.9,-101.92 294.96,-89.65 309.11,-80.03"/>
<polygon fill="#63b8ff" stroke="#63b8ff" points="311.44,-82.69 317.74,-74.17 307.5,-76.9 311.44,-82.69"/>
</g>
<!-- Node6 -->
<g id="node6" class="node">
<title>Node6</title>
<g id="a_node6"><a xlink:href="Vec2_8hpp.html" target="_top" xlink:title="Contains jngl::Vec2 class.">
<polygon fill="white" stroke="#666666" points="286,-74 221,-74 221,-55 286,-55 286,-74"/>
<text text-anchor="middle" x="253.5" y="-62" font-family="ui-monospace,monospace" font-size="10.00">Vec2.hpp</text>
</a>
</g>
</g>
<!-- Node5&#45;&gt;Node6 -->
<g id="edge5" class="edge">
<title>Node5&#45;&gt;Node6</title>
<path fill="none" stroke="#63b8ff" d="M252.67,-109.75C252.8,-102.8 252.98,-92.85 253.15,-84.13"/>
<polygon fill="#63b8ff" stroke="#63b8ff" points="256.65,-84.15 253.34,-74.09 249.65,-84.02 256.65,-84.15"/>
</g>
<!-- Node9 -->
<g id="node9" class="node">
<title>Node9</title>
<g id="a_node9"><a target="_parent" xlink:href="http://en.cppreference.com/w/cpp/header/functional.html" xlink:title=" ">
<polygon fill="white" stroke="#666666" points="529,-74 452,-74 452,-55 529,-55 529,-74"/>
<text text-anchor="middle" x="490.5" y="-62" font-family="ui-monospace,monospace" font-size="10.00">functional</text>
</a>
</g>
</g>
<!-- Node5&#45;&gt;Node9 -->
<g id="edge8" class="edge">
<title>Node5&#45;&gt;Node9</title>
<path fill="none" stroke="#63b8ff" d="M290.74,-109.98C331.91,-100.82 397.49,-86.21 442.2,-76.26"/>
<polygon fill="#63b8ff" stroke="#63b8ff" points="442.96,-79.67 451.96,-74.08 441.44,-72.84 442.96,-79.67"/>
</g>
<!-- Node10 -->
<g id="node10" class="node">
<title>Node10</title>
<g id="a_node10"><a target="_parent" xlink:href="http://en.cppreference.com/w/cpp/header/optional.html" xlink:title=" ">
<polygon fill="white" stroke="#666666" points="203,-74 138,-74 138,-55 203,-55 203,-74"/>
<text text-anchor="middle" x="170.5" y="-62" font-family="ui-monospace,monospace" font-size="10.00">optional</text>
</a>
</g>
</g>
<!-- Node5&#45;&gt;Node10 -->
<g id="edge10" class="edge">
<title>Node5&#45;&gt;Node10</title>
<path fill="none" stroke="#63b8ff" d="M239.33,-109.98C226.73,-101.84 207.5,-89.41 192.56,-79.76"/>
<polygon fill="#63b8ff" stroke="#63b8ff" points="194.21,-76.66 183.91,-74.17 190.41,-82.54 194.21,-76.66"/>
</g>
<!-- Node7 -->
<g id="node7" class="node">
<title>Node7</title>
<g id="a_node7"><a xlink:title=" ">
<polygon fill="#e0e0e0" stroke="#999999" points="261,-19 142,-19 142,0 261,0 261,-19"/>
<text text-anchor="middle" x="201.5" y="-7" font-family="ui-monospace,monospace" font-size="10.00">boost/version.hpp</text>
</a>
</g>
</g>
<!-- Node6&#45;&gt;Node7 -->
<g id="edge6" class="edge">
<title>Node6&#45;&gt;Node7</title>
<path fill="none" stroke="#63b8ff" d="M244.91,-54.75C237.34,-47.03 226.12,-35.6 216.99,-26.28"/>
<polygon fill="#63b8ff" stroke="#63b8ff" points="219.43,-23.78 209.93,-19.09 214.43,-28.68 219.43,-23.78"/>
</g>
<!-- Node8 -->
<g id="node8" class="node">
<title>Node8</title>
<g id="a_node8"><a target="_parent" xlink:href="http://en.cppreference.com/w/cpp/header/iosfwd.html" xlink:title=" ">
<polygon fill="white" stroke="#666666" points="332,-19 279,-19 279,0 332,0 332,-19"/>
<text text-anchor="middle" x="305.5" y="-7" font-family="ui-monospace,monospace" font-size="10.00">iosfwd</text>
</a>
</g>
</g>
<!-- Node6&#45;&gt;Node8 -->
<g id="edge7" class="edge">
<title>Node6&#45;&gt;Node8</title>
<path fill="none" stroke="#63b8ff" d="M262.09,-54.75C269.66,-47.03 280.88,-35.6 290.01,-26.28"/>
<polygon fill="#63b8ff" stroke="#63b8ff" points="292.57,-28.68 297.07,-19.09 287.57,-23.78 292.57,-28.68"/>
</g>
<!-- Node12 -->
<g id="node12" class="node">
<title>Node12</title>
<g id="a_node12"><a xlink:href="Finally_8hpp.html" target="_top" xlink:title="Contains jngl::Finally class.">
<polygon fill="white" stroke="#666666" points="541,-129 458,-129 458,-110 541,-110 541,-129"/>
<text text-anchor="middle" x="499.5" y="-117" font-family="ui-monospace,monospace" font-size="10.00">Finally.hpp</text>
</a>
</g>
</g>
<!-- Node11&#45;&gt;Node12 -->
<g id="edge13" class="edge">
<title>Node11&#45;&gt;Node12</title>
<path fill="none" stroke="#63b8ff" d="M423.12,-164.98C437.36,-156.69 459.25,-143.94 475.95,-134.22"/>
<polygon fill="#63b8ff" stroke="#63b8ff" points="477.73,-137.23 484.61,-129.17 474.21,-131.18 477.73,-137.23"/>
</g>
<!-- Node13 -->
<g id="node13" class="node">
<title>Node13</title>
<g id="a_node13"><a xlink:href="other_8hpp.html" target="_top" xlink:title="Miscellaneous functions.">
<polygon fill="white" stroke="#666666" points="440,-129 369,-129 369,-110 440,-110 440,-129"/>
<text text-anchor="middle" x="404.5" y="-117" font-family="ui-monospace,monospace" font-size="10.00">other.hpp</text>
</a>
</g>
</g>
<!-- Node11&#45;&gt;Node13 -->
<g id="edge15" class="edge">
<title>Node11&#45;&gt;Node13</title>
<path fill="none" stroke="#63b8ff" d="M407.84,-164.75C407.32,-157.8 406.56,-147.85 405.91,-139.13"/>
<polygon fill="#63b8ff" stroke="#63b8ff" points="409.39,-138.8 405.15,-129.09 402.41,-139.32 409.39,-138.8"/>
</g>
<!-- Node16 -->
<g id="node16" class="node">
<title>Node16</title>
<g id="a_node16"><a xlink:href="window_8hpp.html" target="_top" xlink:title="Functions related to the main window.">
<polygon fill="white" stroke="#666666" points="636,-129 559,-129 559,-110 636,-110 636,-129"/>
<text text-anchor="middle" x="597.5" y="-117" font-family="ui-monospace,monospace" font-size="10.00">window.hpp</text>
</a>
</g>
</g>
<!-- Node11&#45;&gt;Node16 -->
<g id="edge19" class="edge">
<title>Node11&#45;&gt;Node16</title>
<path fill="none" stroke="#63b8ff" d="M438.87,-164.98C470.87,-156.01 521.46,-141.82 556.88,-131.89"/>
<polygon fill="#63b8ff" stroke="#63b8ff" points="558.21,-135.15 566.9,-129.08 556.32,-128.41 558.21,-135.15"/>
</g>
<!-- Node12&#45;&gt;Node9 -->
<g id="edge14" class="edge">
<title>Node12&#45;&gt;Node9</title>
<path fill="none" stroke="#63b8ff" d="M498.01,-109.75C496.83,-102.8 495.14,-92.85 493.66,-84.13"/>
<polygon fill="#63b8ff" stroke="#63b8ff" points="497.08,-83.36 491.96,-74.09 490.18,-84.53 497.08,-83.36"/>
</g>
<!-- Node13&#45;&gt;Node4 -->
<g id="edge17" class="edge">
<title>Node13&#45;&gt;Node4</title>
<path fill="none" stroke="#63b8ff" d="M392.61,-109.98C381.35,-101.92 364.21,-89.65 350.79,-80.03"/>
<polygon fill="#63b8ff" stroke="#63b8ff" points="352.77,-77.15 342.61,-74.17 348.7,-82.84 352.77,-77.15"/>
</g>
<!-- Node14 -->
<g id="node14" class="node">
<title>Node14</title>
<g id="a_node14"><a target="_parent" xlink:href="http://en.cppreference.com/w/cpp/header/sstream.html" xlink:title=" ">
<polygon fill="white" stroke="#666666" points="434,-74 375,-74 375,-55 434,-55 434,-74"/>
<text text-anchor="middle" x="404.5" y="-62" font-family="ui-monospace,monospace" font-size="10.00">sstream</text>
</a>
</g>
</g>
<!-- Node13&#45;&gt;Node14 -->
<g id="edge16" class="edge">
<title>Node13&#45;&gt;Node14</title>
<path fill="none" stroke="#63b8ff" d="M404.5,-109.75C404.5,-102.8 404.5,-92.85 404.5,-84.13"/>
<polygon fill="#63b8ff" stroke="#63b8ff" points="408,-84.09 404.5,-74.09 401,-84.09 408,-84.09"/>
</g>
<!-- Node15 -->
<g id="node15" class="node">
<title>Node15</title>
<g id="a_node15"><a target="_parent" xlink:href="http://en.cppreference.com/w/cpp/header/vector.html" xlink:title=" ">
<polygon fill="white" stroke="#666666" points="600,-74 547,-74 547,-55 600,-55 600,-74"/>
<text text-anchor="middle" x="573.5" y="-62" font-family="ui-monospace,monospace" font-size="10.00">vector</text>
</a>
</g>
</g>
<!-- Node13&#45;&gt;Node15 -->
<g id="edge18" class="edge">
<title>Node13&#45;&gt;Node15</title>
<path fill="none" stroke="#63b8ff" d="M431.65,-109.98C460.28,-101.01 505.53,-86.82 537.2,-76.88"/>
<polygon fill="#63b8ff" stroke="#63b8ff" points="538.48,-80.15 546.97,-73.82 536.38,-73.47 538.48,-80.15"/>
</g>
<!-- Node16&#45;&gt;Node4 -->
<g id="edge24" class="edge">
<title>Node16&#45;&gt;Node4</title>
<path fill="none" stroke="#63b8ff" d="M558.94,-111.27C506.97,-101.5 416.17,-84.31 367.27,-74.07"/>
<polygon fill="#63b8ff" stroke="#63b8ff" points="367.72,-70.59 357.21,-71.94 366.26,-77.44 367.72,-70.59"/>
</g>
<!-- Node16&#45;&gt;Node9 -->
<g id="edge23" class="edge">
<title>Node16&#45;&gt;Node9</title>
<path fill="none" stroke="#63b8ff" d="M580.31,-109.98C563.25,-101.54 536.87,-88.47 517.1,-78.68"/>
<polygon fill="#63b8ff" stroke="#63b8ff" points="518.52,-75.47 508,-74.17 515.41,-81.75 518.52,-75.47"/>
</g>
<!-- Node16&#45;&gt;Node15 -->
<g id="edge25" class="edge">
<title>Node16&#45;&gt;Node15</title>
<path fill="none" stroke="#63b8ff" d="M593.54,-109.75C590.29,-102.57 585.58,-92.18 581.55,-83.27"/>
<polygon fill="#63b8ff" stroke="#63b8ff" points="584.7,-81.75 577.39,-74.09 578.33,-84.64 584.7,-81.75"/>
</g>
<!-- Node17 -->
<g id="node17" class="node">
<title>Node17</title>
<g id="a_node17"><a xlink:href="Pixels_8hpp.html" target="_top" xlink:title="Contains jngl::Pixels class.">
<polygon fill="white" stroke="#666666" points="695,-74 618,-74 618,-55 695,-55 695,-74"/>
<text text-anchor="middle" x="656.5" y="-62" font-family="ui-monospace,monospace" font-size="10.00">Pixels.hpp</text>
</a>
</g>
</g>
<!-- Node16&#45;&gt;Node17 -->
<g id="edge20" class="edge">
<title>Node16&#45;&gt;Node17</title>
<path fill="none" stroke="#63b8ff" d="M606.98,-109.98C615.7,-102.15 628.84,-90.34 639.4,-80.86"/>
<polygon fill="#63b8ff" stroke="#63b8ff" points="641.75,-83.46 646.85,-74.17 637.07,-78.25 641.75,-83.46"/>
</g>
<!-- Node19 -->
<g id="node19" class="node">
<title>Node19</title>
<g id="a_node19"><a target="_parent" xlink:href="http://en.cppreference.com/w/cpp/header/array.html" xlink:title=" ">
<polygon fill="white" stroke="#666666" points="760,-74 713,-74 713,-55 760,-55 760,-74"/>
<text text-anchor="middle" x="736.5" y="-62" font-family="ui-monospace,monospace" font-size="10.00">array</text>
</a>
</g>
</g>
<!-- Node16&#45;&gt;Node19 -->
<g id="edge22" class="edge">
<title>Node16&#45;&gt;Node19</title>
<path fill="none" stroke="#63b8ff" d="M619.83,-109.98C642.7,-101.27 678.46,-87.63 704.36,-77.75"/>
<polygon fill="#63b8ff" stroke="#63b8ff" points="705.66,-81 713.76,-74.17 703.17,-74.46 705.66,-81"/>
</g>
<!-- Node18 -->
<g id="node18" class="node">
<title>Node18</title>
<g id="a_node18"><a target="_parent" xlink:href="http://en.cppreference.com/w/cpp/header/cstdint.html" xlink:title=" ">
<polygon fill="white" stroke="#666666" points="686,-19 627,-19 627,0 686,0 686,-19"/>
<text text-anchor="middle" x="656.5" y="-7" font-family="ui-monospace,monospace" font-size="10.00">cstdint</text>
</a>
</g>
</g>
<!-- Node17&#45;&gt;Node18 -->
<g id="edge21" class="edge">
<title>Node17&#45;&gt;Node18</title>
<path fill="none" stroke="#63b8ff" d="M656.5,-54.75C656.5,-47.8 656.5,-37.85 656.5,-29.13"/>
<polygon fill="#63b8ff" stroke="#63b8ff" points="660,-29.09 656.5,-19.09 653,-29.09 660,-29.09"/>
</g>
<!-- Node20&#45;&gt;Node6 -->
<g id="edge27" class="edge">
<title>Node20&#45;&gt;Node6</title>
<path fill="none" stroke="#63b8ff" d="M322.42,-164.65C326.12,-151.76 330.94,-127.46 321.5,-110 313.92,-95.98 299.8,-85.67 286.37,-78.53"/>
<polygon fill="#63b8ff" stroke="#63b8ff" points="287.8,-75.33 277.28,-74.08 284.73,-81.62 287.8,-75.33"/>
</g>
<!-- Node21&#45;&gt;Node3 -->
<g id="edge31" class="edge">
<title>Node21&#45;&gt;Node3</title>
<path fill="none" stroke="#63b8ff" d="M87.75,-164.66C88.23,-147.17 89.32,-107.8 89.98,-84.27"/>
<polygon fill="#63b8ff" stroke="#63b8ff" points="93.48,-84.25 90.26,-74.16 86.48,-84.06 93.48,-84.25"/>
</g>
<!-- Node22 -->
<g id="node22" class="node">
<title>Node22</title>
<g id="a_node22"><a xlink:href="job_8hpp.html" target="_top" xlink:title="Contains jngl::Job class and related functions.">
<polygon fill="white" stroke="#666666" points="59,-129 0,-129 0,-110 59,-110 59,-129"/>
<text text-anchor="middle" x="29.5" y="-117" font-family="ui-monospace,monospace" font-size="10.00">job.hpp</text>
</a>
</g>
</g>
<!-- Node21&#45;&gt;Node22 -->
<g id="edge29" class="edge">
<title>Node21&#45;&gt;Node22</title>
<path fill="none" stroke="#63b8ff" d="M78.18,-164.98C69.69,-157.23 56.94,-145.58 46.62,-136.14"/>
<polygon fill="#63b8ff" stroke="#63b8ff" points="48.73,-133.33 38.99,-129.17 44.01,-138.5 48.73,-133.33"/>
</g>
<!-- Node22&#45;&gt;Node3 -->
<g id="edge30" class="edge">
<title>Node22&#45;&gt;Node3</title>
<path fill="none" stroke="#63b8ff" d="M39.3,-109.98C48.32,-102.15 61.91,-90.34 72.82,-80.86"/>
<polygon fill="#63b8ff" stroke="#63b8ff" points="75.27,-83.37 80.52,-74.17 70.68,-78.09 75.27,-83.37"/>
</g>
</g>
</svg>
