<?xml version="1.0" encoding="UTF-8" standalone="no"?>
<!DOCTYPE svg PUBLIC "-//W3C//DTD SVG 1.1//EN"
 "http://www.w3.org/Graphics/SVG/1.1/DTD/svg11.dtd">
<!-- Generated by graphviz version 2.44.0 (0)
 -->
<!-- Title: jngl/init.hpp Pages: 1 -->
<svg width="860pt" height="207pt"
 viewBox="0.00 0.00 860.00 207.00" xmlns="http://www.w3.org/2000/svg" xmlns:xlink="http://www.w3.org/1999/xlink">
<g id="graph0" class="graph" transform="scale(1 1) rotate(0) translate(4 203)">
<title>jngl/init.hpp</title>
<polygon fill="white" stroke="transparent" points="-4,4 -4,-203 856,-203 856,4 -4,4"/>
<!-- Node1 -->
<g id="node1" class="node">
<title>Node1</title>
<g id="a_node1"><a xlink:title="Include this file only once, as it defines the main function.">
<polygon fill="#bfbfbf" stroke="black" points="463,-179.5 463,-198.5 558,-198.5 558,-179.5 463,-179.5"/>
<text text-anchor="middle" x="510.5" y="-186.5" font-family="'Consolas',monospace" font-size="10.00">jngl/init.hpp</text>
</a>
</g>
</g>
<!-- Node2 -->
<g id="node2" class="node">
<title>Node2</title>
<g id="a_node2"><a xlink:href="App_8hpp.html" target="_top" xlink:title=" ">
<polygon fill="white" stroke="black" points="315,-56.5 315,-75.5 374,-75.5 374,-56.5 315,-56.5"/>
<text text-anchor="middle" x="344.5" y="-63.5" font-family="'Consolas',monospace" font-size="10.00">App.hpp</text>
</a>
</g>
</g>
<!-- Node1&#45;&gt;Node2 -->
<g id="edge1" class="edge">
<title>Node1&#45;&gt;Node2</title>
<path fill="none" stroke="midnightblue" d="M462.76,-181.12C435.6,-175.07 402.51,-163.8 379.5,-143 362.62,-127.74 353.29,-102.69 348.59,-85.55"/>
<polygon fill="midnightblue" stroke="midnightblue" points="351.93,-84.48 346.14,-75.61 345.14,-86.16 351.93,-84.48"/>
</g>
<!-- Node5 -->
<g id="node5" class="node">
<title>Node5</title>
<g id="a_node5"><a xlink:href="main_8hpp.html" target="_top" xlink:title="Defines macros for the main entry point.">
<polygon fill="white" stroke="black" points="180,-118 180,-137 245,-137 245,-118 180,-118"/>
<text text-anchor="middle" x="212.5" y="-125" font-family="'Consolas',monospace" font-size="10.00">main.hpp</text>
</a>
</g>
</g>
<!-- Node1&#45;&gt;Node5 -->
<g id="edge4" class="edge">
<title>Node1&#45;&gt;Node5</title>
<path fill="none" stroke="midnightblue" d="M467.8,-179.48C411.14,-168.16 311.68,-148.3 255.08,-137"/>
<polygon fill="midnightblue" stroke="midnightblue" points="255.52,-133.52 245.03,-134.99 254.15,-140.38 255.52,-133.52"/>
</g>
<!-- Node12 -->
<g id="node12" class="node">
<title>Node12</title>
<g id="a_node12"><a xlink:href="screen_8hpp.html" target="_top" xlink:title=" ">
<polygon fill="white" stroke="black" points="472,-118 472,-137 549,-137 549,-118 472,-118"/>
<text text-anchor="middle" x="510.5" y="-125" font-family="'Consolas',monospace" font-size="10.00">screen.hpp</text>
</a>
</g>
</g>
<!-- Node1&#45;&gt;Node12 -->
<g id="edge13" class="edge">
<title>Node1&#45;&gt;Node12</title>
<path fill="none" stroke="midnightblue" d="M510.5,-179.48C510.5,-171.08 510.5,-157.98 510.5,-147.16"/>
<polygon fill="midnightblue" stroke="midnightblue" points="514,-147.01 510.5,-137.01 507,-147.01 514,-147.01"/>
</g>
<!-- Node16 -->
<g id="node16" class="node">
<title>Node16</title>
<g id="a_node16"><a xlink:href="work_8hpp.html" target="_top" xlink:title=" ">
<polygon fill="white" stroke="black" points="389,-118 389,-137 454,-137 454,-118 389,-118"/>
<text text-anchor="middle" x="421.5" y="-125" font-family="'Consolas',monospace" font-size="10.00">work.hpp</text>
</a>
</g>
</g>
<!-- Node1&#45;&gt;Node16 -->
<g id="edge17" class="edge">
<title>Node1&#45;&gt;Node16</title>
<path fill="none" stroke="midnightblue" d="M497.75,-179.48C483.47,-169.93 460.1,-154.31 442.99,-142.87"/>
<polygon fill="midnightblue" stroke="midnightblue" points="444.49,-139.66 434.23,-137.01 440.6,-145.48 444.49,-139.66"/>
</g>
<!-- Node18 -->
<g id="node18" class="node">
<title>Node18</title>
<g id="a_node18"><a xlink:title=" ">
<polygon fill="white" stroke="#bfbfbf" points="567,-112.5 567,-142.5 704,-142.5 704,-112.5 567,-112.5"/>
<text text-anchor="start" x="575" y="-130.5" font-family="'Consolas',monospace" font-size="10.00">boost/math/special</text>
<text text-anchor="middle" x="635.5" y="-119.5" font-family="'Consolas',monospace" font-size="10.00">_functions/round.hpp</text>
</a>
</g>
</g>
<!-- Node1&#45;&gt;Node18 -->
<g id="edge21" class="edge">
<title>Node1&#45;&gt;Node18</title>
<path fill="none" stroke="midnightblue" d="M528.41,-179.48C546.21,-171 574.08,-157.74 596.92,-146.86"/>
<polygon fill="midnightblue" stroke="midnightblue" points="598.51,-149.98 606.04,-142.52 595.51,-143.66 598.51,-149.98"/>
</g>
<!-- Node19 -->
<g id="node19" class="node">
<title>Node19</title>
<g id="a_node19"><a target="_parent" xlink:href="http://en.cppreference.com/w/cpp/header/cmath.html" xlink:title=" ">
<polygon fill="white" stroke="black" points="722,-118 722,-137 769,-137 769,-118 722,-118"/>
<text text-anchor="middle" x="745.5" y="-125" font-family="'Consolas',monospace" font-size="10.00">cmath</text>
</a>
</g>
</g>
<!-- Node1&#45;&gt;Node19 -->
<g id="edge22" class="edge">
<title>Node1&#45;&gt;Node19</title>
<path fill="none" stroke="midnightblue" d="M558.02,-180.35C599.64,-172.96 661.45,-160.35 713.5,-143 715.17,-142.44 716.87,-141.83 718.57,-141.17"/>
<polygon fill="midnightblue" stroke="midnightblue" points="720.29,-144.25 728.16,-137.15 717.58,-137.79 720.29,-144.25"/>
</g>
<!-- Node20 -->
<g id="node20" class="node">
<title>Node20</title>
<g id="a_node20"><a target="_parent" xlink:href="http://en.cppreference.com/w/cpp/header/optional.html" xlink:title=" ">
<polygon fill="white" stroke="black" points="787,-118 787,-137 852,-137 852,-118 787,-118"/>
<text text-anchor="middle" x="819.5" y="-125" font-family="'Consolas',monospace" font-size="10.00">optional</text>
</a>
</g>
</g>
<!-- Node1&#45;&gt;Node20 -->
<g id="edge23" class="edge">
<title>Node1&#45;&gt;Node20</title>
<path fill="none" stroke="midnightblue" d="M558.47,-182.5C612.5,-175.71 702.68,-162.61 778.5,-143 781.54,-142.21 784.68,-141.3 787.81,-140.32"/>
<polygon fill="midnightblue" stroke="midnightblue" points="789.22,-143.53 797.59,-137.04 786.99,-136.9 789.22,-143.53"/>
</g>
<!-- Node3 -->
<g id="node3" class="node">
<title>Node3</title>
<g id="a_node3"><a target="_parent" xlink:href="http://en.cppreference.com/w/cpp/header/memory.html" xlink:title=" ">
<polygon fill="white" stroke="black" points="395,-0.5 395,-19.5 448,-19.5 448,-0.5 395,-0.5"/>
<text text-anchor="middle" x="421.5" y="-7.5" font-family="'Consolas',monospace" font-size="10.00">memory</text>
</a>
</g>
</g>
<!-- Node2&#45;&gt;Node3 -->
<g id="edge2" class="edge">
<title>Node2&#45;&gt;Node3</title>
<path fill="none" stroke="midnightblue" d="M356.87,-56.32C368.66,-48.06 386.63,-35.45 400.64,-25.63"/>
<polygon fill="midnightblue" stroke="midnightblue" points="402.98,-28.26 409.16,-19.65 398.96,-22.53 402.98,-28.26"/>
</g>
<!-- Node4 -->
<g id="node4" class="node">
<title>Node4</title>
<g id="a_node4"><a target="_parent" xlink:href="http://en.cppreference.com/w/cpp/header/string.html" xlink:title=" ">
<polygon fill="white" stroke="black" points="243,-0.5 243,-19.5 296,-19.5 296,-0.5 243,-0.5"/>
<text text-anchor="middle" x="269.5" y="-7.5" font-family="'Consolas',monospace" font-size="10.00">string</text>
</a>
</g>
</g>
<!-- Node2&#45;&gt;Node4 -->
<g id="edge3" class="edge">
<title>Node2&#45;&gt;Node4</title>
<path fill="none" stroke="midnightblue" d="M332.45,-56.32C321.04,-48.11 303.67,-35.6 290.07,-25.81"/>
<polygon fill="midnightblue" stroke="midnightblue" points="291.93,-22.84 281.77,-19.83 287.84,-28.52 291.93,-22.84"/>
</g>
<!-- Node6 -->
<g id="node6" class="node">
<title>Node6</title>
<g id="a_node6"><a xlink:href="Finally_8hpp.html" target="_top" xlink:title="Contains jngl::Finally class.">
<polygon fill="white" stroke="black" points="19,-56.5 19,-75.5 102,-75.5 102,-56.5 19,-56.5"/>
<text text-anchor="middle" x="60.5" y="-63.5" font-family="'Consolas',monospace" font-size="10.00">Finally.hpp</text>
</a>
</g>
</g>
<!-- Node5&#45;&gt;Node6 -->
<g id="edge5" class="edge">
<title>Node5&#45;&gt;Node6</title>
<path fill="none" stroke="midnightblue" d="M190.72,-117.98C164.76,-107.81 121.19,-90.76 91.67,-79.2"/>
<polygon fill="midnightblue" stroke="midnightblue" points="92.83,-75.9 82.24,-75.51 90.27,-82.41 92.83,-75.9"/>
</g>
<!-- Node8 -->
<g id="node8" class="node">
<title>Node8</title>
<g id="a_node8"><a xlink:href="other_8hpp.html" target="_top" xlink:title="Miscellaneous functions.">
<polygon fill="white" stroke="black" points="131,-56.5 131,-75.5 202,-75.5 202,-56.5 131,-56.5"/>
<text text-anchor="middle" x="166.5" y="-63.5" font-family="'Consolas',monospace" font-size="10.00">other.hpp</text>
</a>
</g>
</g>
<!-- Node5&#45;&gt;Node8 -->
<g id="edge7" class="edge">
<title>Node5&#45;&gt;Node8</title>
<path fill="none" stroke="midnightblue" d="M205.91,-117.98C199.01,-109.05 188,-94.81 179.37,-83.64"/>
<polygon fill="midnightblue" stroke="midnightblue" points="181.96,-81.28 173.08,-75.51 176.43,-85.56 181.96,-81.28"/>
</g>
<!-- Node11 -->
<g id="node11" class="node">
<title>Node11</title>
<g id="a_node11"><a xlink:href="window_8hpp.html" target="_top" xlink:title="Functions related to the main window.">
<polygon fill="white" stroke="black" points="220,-56.5 220,-75.5 297,-75.5 297,-56.5 220,-56.5"/>
<text text-anchor="middle" x="258.5" y="-63.5" font-family="'Consolas',monospace" font-size="10.00">window.hpp</text>
</a>
</g>
</g>
<!-- Node5&#45;&gt;Node11 -->
<g id="edge11" class="edge">
<title>Node5&#45;&gt;Node11</title>
<path fill="none" stroke="midnightblue" d="M219.09,-117.98C225.99,-109.05 237,-94.81 245.63,-83.64"/>
<polygon fill="midnightblue" stroke="midnightblue" points="248.57,-85.56 251.92,-75.51 243.04,-81.28 248.57,-85.56"/>
</g>
<!-- Node7 -->
<g id="node7" class="node">
<title>Node7</title>
<g id="a_node7"><a target="_parent" xlink:href="http://en.cppreference.com/w/cpp/header/functional.html" xlink:title=" ">
<polygon fill="white" stroke="black" points="0,-0.5 0,-19.5 77,-19.5 77,-0.5 0,-0.5"/>
<text text-anchor="middle" x="38.5" y="-7.5" font-family="'Consolas',monospace" font-size="10.00">functional</text>
</a>
</g>
</g>
<!-- Node6&#45;&gt;Node7 -->
<g id="edge6" class="edge">
<title>Node6&#45;&gt;Node7</title>
<path fill="none" stroke="midnightblue" d="M56.87,-56.08C53.89,-48.77 49.57,-38.18 45.88,-29.1"/>
<polygon fill="midnightblue" stroke="midnightblue" points="49.08,-27.69 42.07,-19.75 42.6,-30.33 49.08,-27.69"/>
</g>
<!-- Node8&#45;&gt;Node4 -->
<g id="edge9" class="edge">
<title>Node8&#45;&gt;Node4</title>
<path fill="none" stroke="midnightblue" d="M183.05,-56.32C199.49,-47.7 224.93,-34.36 243.97,-24.39"/>
<polygon fill="midnightblue" stroke="midnightblue" points="245.76,-27.4 252.99,-19.65 242.51,-21.2 245.76,-27.4"/>
</g>
<!-- Node9 -->
<g id="node9" class="node">
<title>Node9</title>
<g id="a_node9"><a target="_parent" xlink:href="http://en.cppreference.com/w/cpp/header/sstream.html" xlink:title=" ">
<polygon fill="white" stroke="black" points="95,-0.5 95,-19.5 154,-19.5 154,-0.5 95,-0.5"/>
<text text-anchor="middle" x="124.5" y="-7.5" font-family="'Consolas',monospace" font-size="10.00">sstream</text>
</a>
</g>
</g>
<!-- Node8&#45;&gt;Node9 -->
<g id="edge8" class="edge">
<title>Node8&#45;&gt;Node9</title>
<path fill="none" stroke="midnightblue" d="M159.56,-56.08C153.57,-48.38 144.75,-37.03 137.45,-27.65"/>
<polygon fill="midnightblue" stroke="midnightblue" points="140.21,-25.5 131.31,-19.75 134.68,-29.79 140.21,-25.5"/>
</g>
<!-- Node10 -->
<g id="node10" class="node">
<title>Node10</title>
<g id="a_node10"><a target="_parent" xlink:href="http://en.cppreference.com/w/cpp/header/vector.html" xlink:title=" ">
<polygon fill="white" stroke="black" points="172,-0.5 172,-19.5 225,-19.5 225,-0.5 172,-0.5"/>
<text text-anchor="middle" x="198.5" y="-7.5" font-family="'Consolas',monospace" font-size="10.00">vector</text>
</a>
</g>
</g>
<!-- Node8&#45;&gt;Node10 -->
<g id="edge10" class="edge">
<title>Node8&#45;&gt;Node10</title>
<path fill="none" stroke="midnightblue" d="M171.78,-56.08C176.21,-48.61 182.66,-37.72 188.12,-28.52"/>
<polygon fill="midnightblue" stroke="midnightblue" points="191.23,-30.14 193.31,-19.75 185.21,-26.57 191.23,-30.14"/>
</g>
<!-- Node11&#45;&gt;Node4 -->
<g id="edge12" class="edge">
<title>Node11&#45;&gt;Node4</title>
<path fill="none" stroke="midnightblue" d="M260.32,-56.08C261.77,-48.93 263.87,-38.64 265.69,-29.69"/>
<polygon fill="midnightblue" stroke="midnightblue" points="269.15,-30.25 267.72,-19.75 262.29,-28.85 269.15,-30.25"/>
</g>
<!-- Node13 -->
<g id="node13" class="node">
<title>Node13</title>
<g id="a_node13"><a xlink:href="Vec2_8hpp.html" target="_top" xlink:title="Contains jngl::Vec2 class.">
<polygon fill="white" stroke="black" points="508,-56.5 508,-75.5 573,-75.5 573,-56.5 508,-56.5"/>
<text text-anchor="middle" x="540.5" y="-63.5" font-family="'Consolas',monospace" font-size="10.00">Vec2.hpp</text>
</a>
</g>
</g>
<!-- Node12&#45;&gt;Node13 -->
<g id="edge14" class="edge">
<title>Node12&#45;&gt;Node13</title>
<path fill="none" stroke="midnightblue" d="M514.8,-117.98C519.16,-109.32 526.06,-95.65 531.6,-84.65"/>
<polygon fill="midnightblue" stroke="midnightblue" points="534.83,-86.01 536.21,-75.51 528.58,-82.86 534.83,-86.01"/>
</g>
<!-- Node14 -->
<g id="node14" class="node">
<title>Node14</title>
<g id="a_node14"><a xlink:title=" ">
<polygon fill="white" stroke="#bfbfbf" points="561,-0.5 561,-19.5 680,-19.5 680,-0.5 561,-0.5"/>
<text text-anchor="middle" x="620.5" y="-7.5" font-family="'Consolas',monospace" font-size="10.00">boost/version.hpp</text>
</a>
</g>
</g>
<!-- Node13&#45;&gt;Node14 -->
<g id="edge15" class="edge">
<title>Node13&#45;&gt;Node14</title>
<path fill="none" stroke="midnightblue" d="M553.35,-56.32C565.72,-47.98 584.63,-35.21 599.24,-25.35"/>
<polygon fill="midnightblue" stroke="midnightblue" points="601.35,-28.15 607.68,-19.65 597.43,-22.35 601.35,-28.15"/>
</g>
<!-- Node15 -->
<g id="node15" class="node">
<title>Node15</title>
<g id="a_node15"><a target="_parent" xlink:href="http://en.cppreference.com/w/cpp/header/iosfwd.html" xlink:title=" ">
<polygon fill="white" stroke="black" points="490,-0.5 490,-19.5 543,-19.5 543,-0.5 490,-0.5"/>
<text text-anchor="middle" x="516.5" y="-7.5" font-family="'Consolas',monospace" font-size="10.00">iosfwd</text>
</a>
</g>
</g>
<!-- Node13&#45;&gt;Node15 -->
<g id="edge16" class="edge">
<title>Node13&#45;&gt;Node15</title>
<path fill="none" stroke="midnightblue" d="M536.54,-56.08C533.29,-48.77 528.58,-38.18 524.55,-29.1"/>
<polygon fill="midnightblue" stroke="midnightblue" points="527.65,-27.47 520.39,-19.75 521.25,-30.31 527.65,-27.47"/>
</g>
<!-- Node16&#45;&gt;Node3 -->
<g id="edge20" class="edge">
<title>Node16&#45;&gt;Node3</title>
<path fill="none" stroke="midnightblue" d="M430.83,-117.89C440.15,-108.6 453.87,-92.86 459.5,-76 462.32,-67.57 462.55,-64.35 459.5,-56 455.44,-44.91 447.31,-34.67 439.61,-26.76"/>
<polygon fill="midnightblue" stroke="midnightblue" points="441.86,-24.07 432.21,-19.7 437.03,-29.14 441.86,-24.07"/>
</g>
<!-- Node17 -->
<g id="node17" class="node">
<title>Node17</title>
<g id="a_node17"><a xlink:href="job_8hpp.html" target="_top" xlink:title="Contains jngl::Job class and related functions.">
<polygon fill="white" stroke="black" points="392,-56.5 392,-75.5 451,-75.5 451,-56.5 392,-56.5"/>
<text text-anchor="middle" x="421.5" y="-63.5" font-family="'Consolas',monospace" font-size="10.00">job.hpp</text>
</a>
</g>
</g>
<!-- Node16&#45;&gt;Node17 -->
<g id="edge18" class="edge">
<title>Node16&#45;&gt;Node17</title>
<path fill="none" stroke="midnightblue" d="M421.5,-117.98C421.5,-109.58 421.5,-96.48 421.5,-85.66"/>
<polygon fill="midnightblue" stroke="midnightblue" points="425,-85.51 421.5,-75.51 418,-85.51 425,-85.51"/>
</g>
<!-- Node17&#45;&gt;Node3 -->
<g id="edge19" class="edge">
<title>Node17&#45;&gt;Node3</title>
<path fill="none" stroke="midnightblue" d="M421.5,-56.08C421.5,-49.01 421.5,-38.86 421.5,-29.99"/>
<polygon fill="midnightblue" stroke="midnightblue" points="425,-29.75 421.5,-19.75 418,-29.75 425,-29.75"/>
</g>
</g>
</svg>
