<?xml version="1.0" encoding="UTF-8" standalone="no"?>
<!DOCTYPE svg PUBLIC "-//W3C//DTD SVG 1.1//EN"
 "http://www.w3.org/Graphics/SVG/1.1/DTD/svg11.dtd">
<!-- Generated by graphviz version 2.44.0 (0)
 -->
<!-- Title: jngl/init.hpp Pages: 1 -->
<svg width="768pt" height="252pt"
 viewBox="0.00 0.00 768.00 252.00" xmlns="http://www.w3.org/2000/svg" xmlns:xlink="http://www.w3.org/1999/xlink">
<g id="graph0" class="graph" transform="scale(1 1) rotate(0) translate(4 248)">
<title>jngl/init.hpp</title>
<polygon fill="white" stroke="transparent" points="-4,4 -4,-248 764,-248 764,4 -4,4"/>
<!-- Node1 -->
<g id="node1" class="node">
<title>Node1</title>
<g id="a_node1"><a xlink:title="Include this file only once, as it defines the main function.">
<polygon fill="#bfbfbf" stroke="black" points="354,-224.5 354,-243.5 449,-243.5 449,-224.5 354,-224.5"/>
<text text-anchor="middle" x="401.5" y="-231.5" font-family="'Consolas',monospace" font-size="10.00">jngl/init.hpp</text>
</a>
</g>
</g>
<!-- Node2 -->
<g id="node2" class="node">
<title>Node2</title>
<g id="a_node2"><a xlink:href="App_8hpp.html" target="_top" xlink:title="Contains jngl::App class.">
<polygon fill="white" stroke="black" points="116,-112.5 116,-131.5 175,-131.5 175,-112.5 116,-112.5"/>
<text text-anchor="middle" x="145.5" y="-119.5" font-family="'Consolas',monospace" font-size="10.00">App.hpp</text>
</a>
</g>
</g>
<!-- Node1&#45;&gt;Node2 -->
<g id="edge1" class="edge">
<title>Node1&#45;&gt;Node2</title>
<path fill="none" stroke="midnightblue" d="M381.41,-224.37C336.45,-205.05 227.56,-158.26 174.94,-135.65"/>
<polygon fill="midnightblue" stroke="midnightblue" points="176.06,-132.32 165.49,-131.59 173.3,-138.76 176.06,-132.32"/>
</g>
<!-- Node5 -->
<g id="node5" class="node">
<title>Node5</title>
<g id="a_node5"><a xlink:href="AppParameters_8hpp.html" target="_top" xlink:title="Contains jngl::AppParameters struct.">
<polygon fill="white" stroke="black" points="503,-168.5 503,-187.5 622,-187.5 622,-168.5 503,-168.5"/>
<text text-anchor="middle" x="562.5" y="-175.5" font-family="'Consolas',monospace" font-size="10.00">AppParameters.hpp</text>
</a>
</g>
</g>
<!-- Node1&#45;&gt;Node5 -->
<g id="edge4" class="edge">
<title>Node1&#45;&gt;Node5</title>
<path fill="none" stroke="midnightblue" d="M427.01,-224.44C454.1,-215.36 497.09,-200.94 527.37,-190.78"/>
<polygon fill="midnightblue" stroke="midnightblue" points="528.74,-194.01 537.11,-187.52 526.51,-187.38 528.74,-194.01"/>
</g>
<!-- Node10 -->
<g id="node10" class="node">
<title>Node10</title>
<g id="a_node10"><a xlink:href="main_8hpp.html" target="_top" xlink:title="Defines macros for the main entry point.">
<polygon fill="white" stroke="black" points="325,-168.5 325,-187.5 390,-187.5 390,-168.5 325,-168.5"/>
<text text-anchor="middle" x="357.5" y="-175.5" font-family="'Consolas',monospace" font-size="10.00">main.hpp</text>
</a>
</g>
</g>
<!-- Node1&#45;&gt;Node10 -->
<g id="edge9" class="edge">
<title>Node1&#45;&gt;Node10</title>
<path fill="none" stroke="midnightblue" d="M394.23,-224.08C387.96,-216.38 378.71,-205.03 371.07,-195.65"/>
<polygon fill="midnightblue" stroke="midnightblue" points="373.66,-193.29 364.63,-187.75 368.23,-197.71 373.66,-193.29"/>
</g>
<!-- Node20 -->
<g id="node20" class="node">
<title>Node20</title>
<g id="a_node20"><a xlink:href="screen_8hpp.html" target="_top" xlink:title=" ">
<polygon fill="white" stroke="black" points="408,-168.5 408,-187.5 485,-187.5 485,-168.5 408,-168.5"/>
<text text-anchor="middle" x="446.5" y="-175.5" font-family="'Consolas',monospace" font-size="10.00">screen.hpp</text>
</a>
</g>
</g>
<!-- Node1&#45;&gt;Node20 -->
<g id="edge22" class="edge">
<title>Node1&#45;&gt;Node20</title>
<path fill="none" stroke="midnightblue" d="M408.93,-224.08C415.35,-216.38 424.81,-205.03 432.62,-195.65"/>
<polygon fill="midnightblue" stroke="midnightblue" points="435.49,-197.67 439.21,-187.75 430.12,-193.19 435.49,-197.67"/>
</g>
<!-- Node21 -->
<g id="node21" class="node">
<title>Node21</title>
<g id="a_node21"><a xlink:href="work_8hpp.html" target="_top" xlink:title=" ">
<polygon fill="white" stroke="black" points="55,-168.5 55,-187.5 120,-187.5 120,-168.5 55,-168.5"/>
<text text-anchor="middle" x="87.5" y="-175.5" font-family="'Consolas',monospace" font-size="10.00">work.hpp</text>
</a>
</g>
</g>
<!-- Node1&#45;&gt;Node21 -->
<g id="edge24" class="edge">
<title>Node1&#45;&gt;Node21</title>
<path fill="none" stroke="midnightblue" d="M353.81,-224.8C292.96,-214.33 188.61,-196.39 130.23,-186.35"/>
<polygon fill="midnightblue" stroke="midnightblue" points="130.68,-182.87 120.23,-184.63 129.5,-189.77 130.68,-182.87"/>
</g>
<!-- Node23 -->
<g id="node23" class="node">
<title>Node23</title>
<g id="a_node23"><a target="_parent" xlink:href="http://en.cppreference.com/w/cpp/header/cmath.html" xlink:title=" ">
<polygon fill="white" stroke="black" points="640,-168.5 640,-187.5 687,-187.5 687,-168.5 640,-168.5"/>
<text text-anchor="middle" x="663.5" y="-175.5" font-family="'Consolas',monospace" font-size="10.00">cmath</text>
</a>
</g>
</g>
<!-- Node1&#45;&gt;Node23 -->
<g id="edge28" class="edge">
<title>Node1&#45;&gt;Node23</title>
<path fill="none" stroke="midnightblue" d="M449.08,-224.69C493.37,-216.71 561.42,-203.88 629.69,-188.05"/>
<polygon fill="midnightblue" stroke="midnightblue" points="630.82,-191.38 639.76,-185.69 629.22,-184.57 630.82,-191.38"/>
</g>
<!-- Node3 -->
<g id="node3" class="node">
<title>Node3</title>
<g id="a_node3"><a target="_parent" xlink:href="http://en.cppreference.com/w/cpp/header/memory.html" xlink:title=" ">
<polygon fill="white" stroke="black" points="25,-56.5 25,-75.5 78,-75.5 78,-56.5 25,-56.5"/>
<text text-anchor="middle" x="51.5" y="-63.5" font-family="'Consolas',monospace" font-size="10.00">memory</text>
</a>
</g>
</g>
<!-- Node2&#45;&gt;Node3 -->
<g id="edge2" class="edge">
<title>Node2&#45;&gt;Node3</title>
<path fill="none" stroke="midnightblue" d="M130.4,-112.32C115.6,-103.82 92.81,-90.73 75.52,-80.8"/>
<polygon fill="midnightblue" stroke="midnightblue" points="76.98,-77.6 66.57,-75.65 73.49,-83.67 76.98,-77.6"/>
</g>
<!-- Node4 -->
<g id="node4" class="node">
<title>Node4</title>
<g id="a_node4"><a target="_parent" xlink:href="http://en.cppreference.com/w/cpp/header/string.html" xlink:title=" ">
<polygon fill="white" stroke="black" points="96,-56.5 96,-75.5 149,-75.5 149,-56.5 96,-56.5"/>
<text text-anchor="middle" x="122.5" y="-63.5" font-family="'Consolas',monospace" font-size="10.00">string</text>
</a>
</g>
</g>
<!-- Node2&#45;&gt;Node4 -->
<g id="edge3" class="edge">
<title>Node2&#45;&gt;Node4</title>
<path fill="none" stroke="midnightblue" d="M141.7,-112.08C138.59,-104.77 134.08,-94.18 130.21,-85.1"/>
<polygon fill="midnightblue" stroke="midnightblue" points="133.37,-83.58 126.23,-75.75 126.93,-86.32 133.37,-83.58"/>
</g>
<!-- Node6 -->
<g id="node6" class="node">
<title>Node6</title>
<g id="a_node6"><a xlink:href="Vec2_8hpp.html" target="_top" xlink:title="Contains jngl::Vec2 class.">
<polygon fill="white" stroke="black" points="530,-112.5 530,-131.5 595,-131.5 595,-112.5 530,-112.5"/>
<text text-anchor="middle" x="562.5" y="-119.5" font-family="'Consolas',monospace" font-size="10.00">Vec2.hpp</text>
</a>
</g>
</g>
<!-- Node5&#45;&gt;Node6 -->
<g id="edge5" class="edge">
<title>Node5&#45;&gt;Node6</title>
<path fill="none" stroke="midnightblue" d="M562.5,-168.08C562.5,-161.01 562.5,-150.86 562.5,-141.99"/>
<polygon fill="midnightblue" stroke="midnightblue" points="566,-141.75 562.5,-131.75 559,-141.75 566,-141.75"/>
</g>
<!-- Node9 -->
<g id="node9" class="node">
<title>Node9</title>
<g id="a_node9"><a target="_parent" xlink:href="http://en.cppreference.com/w/cpp/header/optional.html" xlink:title=" ">
<polygon fill="white" stroke="black" points="613,-112.5 613,-131.5 678,-131.5 678,-112.5 613,-112.5"/>
<text text-anchor="middle" x="645.5" y="-119.5" font-family="'Consolas',monospace" font-size="10.00">optional</text>
</a>
</g>
</g>
<!-- Node5&#45;&gt;Node9 -->
<g id="edge8" class="edge">
<title>Node5&#45;&gt;Node9</title>
<path fill="none" stroke="midnightblue" d="M575.84,-168.32C588.66,-159.98 608.28,-147.21 623.44,-137.35"/>
<polygon fill="midnightblue" stroke="midnightblue" points="625.72,-140.04 632.2,-131.65 621.91,-134.17 625.72,-140.04"/>
</g>
<!-- Node7 -->
<g id="node7" class="node">
<title>Node7</title>
<g id="a_node7"><a xlink:title=" ">
<polygon fill="white" stroke="#bfbfbf" points="570,-56.5 570,-75.5 689,-75.5 689,-56.5 570,-56.5"/>
<text text-anchor="middle" x="629.5" y="-63.5" font-family="'Consolas',monospace" font-size="10.00">boost/version.hpp</text>
</a>
</g>
</g>
<!-- Node6&#45;&gt;Node7 -->
<g id="edge6" class="edge">
<title>Node6&#45;&gt;Node7</title>
<path fill="none" stroke="midnightblue" d="M573.26,-112.32C583.27,-104.26 598.39,-92.08 610.43,-82.37"/>
<polygon fill="midnightblue" stroke="midnightblue" points="612.95,-84.83 618.54,-75.83 608.56,-79.38 612.95,-84.83"/>
</g>
<!-- Node8 -->
<g id="node8" class="node">
<title>Node8</title>
<g id="a_node8"><a target="_parent" xlink:href="http://en.cppreference.com/w/cpp/header/iosfwd.html" xlink:title=" ">
<polygon fill="white" stroke="black" points="707,-56.5 707,-75.5 760,-75.5 760,-56.5 707,-56.5"/>
<text text-anchor="middle" x="733.5" y="-63.5" font-family="'Consolas',monospace" font-size="10.00">iosfwd</text>
</a>
</g>
</g>
<!-- Node6&#45;&gt;Node8 -->
<g id="edge7" class="edge">
<title>Node6&#45;&gt;Node8</title>
<path fill="none" stroke="midnightblue" d="M589.6,-112.44C618.57,-103.29 664.7,-88.73 696.89,-78.56"/>
<polygon fill="midnightblue" stroke="midnightblue" points="698.33,-81.78 706.81,-75.43 696.22,-75.1 698.33,-81.78"/>
</g>
<!-- Node11 -->
<g id="node11" class="node">
<title>Node11</title>
<g id="a_node11"><a xlink:href="Finally_8hpp.html" target="_top" xlink:title="Contains jngl::Finally class.">
<polygon fill="white" stroke="black" points="420,-112.5 420,-131.5 503,-131.5 503,-112.5 420,-112.5"/>
<text text-anchor="middle" x="461.5" y="-119.5" font-family="'Consolas',monospace" font-size="10.00">Finally.hpp</text>
</a>
</g>
</g>
<!-- Node10&#45;&gt;Node11 -->
<g id="edge10" class="edge">
<title>Node10&#45;&gt;Node11</title>
<path fill="none" stroke="midnightblue" d="M374.21,-168.32C390.81,-159.7 416.5,-146.36 435.72,-136.39"/>
<polygon fill="midnightblue" stroke="midnightblue" points="437.57,-139.37 444.83,-131.65 434.34,-133.16 437.57,-139.37"/>
</g>
<!-- Node13 -->
<g id="node13" class="node">
<title>Node13</title>
<g id="a_node13"><a xlink:href="other_8hpp.html" target="_top" xlink:title="Miscellaneous functions.">
<polygon fill="white" stroke="black" points="322,-112.5 322,-131.5 393,-131.5 393,-112.5 322,-112.5"/>
<text text-anchor="middle" x="357.5" y="-119.5" font-family="'Consolas',monospace" font-size="10.00">other.hpp</text>
</a>
</g>
</g>
<!-- Node10&#45;&gt;Node13 -->
<g id="edge12" class="edge">
<title>Node10&#45;&gt;Node13</title>
<path fill="none" stroke="midnightblue" d="M357.5,-168.08C357.5,-161.01 357.5,-150.86 357.5,-141.99"/>
<polygon fill="midnightblue" stroke="midnightblue" points="361,-141.75 357.5,-131.75 354,-141.75 361,-141.75"/>
</g>
<!-- Node16 -->
<g id="node16" class="node">
<title>Node16</title>
<g id="a_node16"><a xlink:href="window_8hpp.html" target="_top" xlink:title="Functions related to the main window.">
<polygon fill="white" stroke="black" points="227,-112.5 227,-131.5 304,-131.5 304,-112.5 227,-112.5"/>
<text text-anchor="middle" x="265.5" y="-119.5" font-family="'Consolas',monospace" font-size="10.00">window.hpp</text>
</a>
</g>
</g>
<!-- Node10&#45;&gt;Node16 -->
<g id="edge16" class="edge">
<title>Node10&#45;&gt;Node16</title>
<path fill="none" stroke="midnightblue" d="M342.72,-168.32C328.23,-159.82 305.93,-146.73 289.01,-136.8"/>
<polygon fill="midnightblue" stroke="midnightblue" points="290.64,-133.7 280.24,-131.65 287.1,-139.74 290.64,-133.7"/>
</g>
<!-- Node12 -->
<g id="node12" class="node">
<title>Node12</title>
<g id="a_node12"><a target="_parent" xlink:href="http://en.cppreference.com/w/cpp/header/functional.html" xlink:title=" ">
<polygon fill="white" stroke="black" points="475,-56.5 475,-75.5 552,-75.5 552,-56.5 475,-56.5"/>
<text text-anchor="middle" x="513.5" y="-63.5" font-family="'Consolas',monospace" font-size="10.00">functional</text>
</a>
</g>
</g>
<!-- Node11&#45;&gt;Node12 -->
<g id="edge11" class="edge">
<title>Node11&#45;&gt;Node12</title>
<path fill="none" stroke="midnightblue" d="M470.09,-112.08C477.66,-104.22 488.88,-92.57 498.01,-83.08"/>
<polygon fill="midnightblue" stroke="midnightblue" points="500.66,-85.38 505.07,-75.75 495.62,-80.53 500.66,-85.38"/>
</g>
<!-- Node13&#45;&gt;Node4 -->
<g id="edge14" class="edge">
<title>Node13&#45;&gt;Node4</title>
<path fill="none" stroke="midnightblue" d="M321.66,-113.28C283.61,-105.01 221.48,-91.28 159.22,-76.37"/>
<polygon fill="midnightblue" stroke="midnightblue" points="159.77,-72.9 149.23,-73.96 158.14,-79.71 159.77,-72.9"/>
</g>
<!-- Node14 -->
<g id="node14" class="node">
<title>Node14</title>
<g id="a_node14"><a target="_parent" xlink:href="http://en.cppreference.com/w/cpp/header/sstream.html" xlink:title=" ">
<polygon fill="white" stroke="black" points="398,-56.5 398,-75.5 457,-75.5 457,-56.5 398,-56.5"/>
<text text-anchor="middle" x="427.5" y="-63.5" font-family="'Consolas',monospace" font-size="10.00">sstream</text>
</a>
</g>
</g>
<!-- Node13&#45;&gt;Node14 -->
<g id="edge13" class="edge">
<title>Node13&#45;&gt;Node14</title>
<path fill="none" stroke="midnightblue" d="M368.75,-112.32C379.3,-104.18 395.3,-91.84 407.94,-82.09"/>
<polygon fill="midnightblue" stroke="midnightblue" points="410.27,-84.71 416.05,-75.83 405.99,-79.17 410.27,-84.71"/>
</g>
<!-- Node15 -->
<g id="node15" class="node">
<title>Node15</title>
<g id="a_node15"><a target="_parent" xlink:href="http://en.cppreference.com/w/cpp/header/vector.html" xlink:title=" ">
<polygon fill="white" stroke="black" points="327,-56.5 327,-75.5 380,-75.5 380,-56.5 327,-56.5"/>
<text text-anchor="middle" x="353.5" y="-63.5" font-family="'Consolas',monospace" font-size="10.00">vector</text>
</a>
</g>
</g>
<!-- Node13&#45;&gt;Node15 -->
<g id="edge15" class="edge">
<title>Node13&#45;&gt;Node15</title>
<path fill="none" stroke="midnightblue" d="M356.84,-112.08C356.32,-105.01 355.56,-94.86 354.91,-85.99"/>
<polygon fill="midnightblue" stroke="midnightblue" points="358.38,-85.47 354.15,-75.75 351.4,-85.98 358.38,-85.47"/>
</g>
<!-- Node16&#45;&gt;Node4 -->
<g id="edge20" class="edge">
<title>Node16&#45;&gt;Node4</title>
<path fill="none" stroke="midnightblue" d="M242.84,-112.44C219.1,-103.48 181.59,-89.31 154.76,-79.18"/>
<polygon fill="midnightblue" stroke="midnightblue" points="155.64,-75.77 145.05,-75.52 153.17,-82.32 155.64,-75.77"/>
</g>
<!-- Node16&#45;&gt;Node15 -->
<g id="edge21" class="edge">
<title>Node16&#45;&gt;Node15</title>
<path fill="none" stroke="midnightblue" d="M279.64,-112.32C293.37,-103.9 314.44,-90.97 330.56,-81.07"/>
<polygon fill="midnightblue" stroke="midnightblue" points="332.7,-83.87 339.4,-75.65 329.04,-77.9 332.7,-83.87"/>
</g>
<!-- Node17 -->
<g id="node17" class="node">
<title>Node17</title>
<g id="a_node17"><a xlink:href="Pixels_8hpp.html" target="_top" xlink:title="Contains jngl::Pixels class.">
<polygon fill="white" stroke="black" points="232,-56.5 232,-75.5 309,-75.5 309,-56.5 232,-56.5"/>
<text text-anchor="middle" x="270.5" y="-63.5" font-family="'Consolas',monospace" font-size="10.00">Pixels.hpp</text>
</a>
</g>
</g>
<!-- Node16&#45;&gt;Node17 -->
<g id="edge17" class="edge">
<title>Node16&#45;&gt;Node17</title>
<path fill="none" stroke="midnightblue" d="M266.33,-112.08C266.98,-105.01 267.92,-94.86 268.74,-85.99"/>
<polygon fill="midnightblue" stroke="midnightblue" points="272.25,-86.03 269.69,-75.75 265.28,-85.39 272.25,-86.03"/>
</g>
<!-- Node19 -->
<g id="node19" class="node">
<title>Node19</title>
<g id="a_node19"><a target="_parent" xlink:href="http://en.cppreference.com/w/cpp/header/array.html" xlink:title=" ">
<polygon fill="white" stroke="black" points="167,-56.5 167,-75.5 214,-75.5 214,-56.5 167,-56.5"/>
<text text-anchor="middle" x="190.5" y="-63.5" font-family="'Consolas',monospace" font-size="10.00">array</text>
</a>
</g>
</g>
<!-- Node16&#45;&gt;Node19 -->
<g id="edge19" class="edge">
<title>Node16&#45;&gt;Node19</title>
<path fill="none" stroke="midnightblue" d="M253.45,-112.32C242.04,-104.11 224.67,-91.6 211.07,-81.81"/>
<polygon fill="midnightblue" stroke="midnightblue" points="212.93,-78.84 202.77,-75.83 208.84,-84.52 212.93,-78.84"/>
</g>
<!-- Node18 -->
<g id="node18" class="node">
<title>Node18</title>
<g id="a_node18"><a target="_parent" xlink:href="http://en.cppreference.com/w/cpp/header/cstdint.html" xlink:title=" ">
<polygon fill="white" stroke="black" points="241,-0.5 241,-19.5 300,-19.5 300,-0.5 241,-0.5"/>
<text text-anchor="middle" x="270.5" y="-7.5" font-family="'Consolas',monospace" font-size="10.00">cstdint</text>
</a>
</g>
</g>
<!-- Node17&#45;&gt;Node18 -->
<g id="edge18" class="edge">
<title>Node17&#45;&gt;Node18</title>
<path fill="none" stroke="midnightblue" d="M270.5,-56.08C270.5,-49.01 270.5,-38.86 270.5,-29.99"/>
<polygon fill="midnightblue" stroke="midnightblue" points="274,-29.75 270.5,-19.75 267,-29.75 274,-29.75"/>
</g>
<!-- Node20&#45;&gt;Node6 -->
<g id="edge23" class="edge">
<title>Node20&#45;&gt;Node6</title>
<path fill="none" stroke="midnightblue" d="M464.88,-168.44C483.72,-159.68 513.23,-145.94 534.88,-135.86"/>
<polygon fill="midnightblue" stroke="midnightblue" points="536.62,-138.91 544.21,-131.52 533.66,-132.56 536.62,-138.91"/>
</g>
<!-- Node21&#45;&gt;Node3 -->
<g id="edge27" class="edge">
<title>Node21&#45;&gt;Node3</title>
<path fill="none" stroke="midnightblue" d="M84.9,-168.13C81.2,-155.58 74.11,-131.95 67.5,-112 64.56,-103.13 61.11,-93.36 58.17,-85.19"/>
<polygon fill="midnightblue" stroke="midnightblue" points="61.38,-83.79 54.68,-75.59 54.81,-86.18 61.38,-83.79"/>
</g>
<!-- Node22 -->
<g id="node22" class="node">
<title>Node22</title>
<g id="a_node22"><a xlink:href="job_8hpp.html" target="_top" xlink:title="Contains jngl::Job class and related functions.">
<polygon fill="white" stroke="black" points="0,-112.5 0,-131.5 59,-131.5 59,-112.5 0,-112.5"/>
<text text-anchor="middle" x="29.5" y="-119.5" font-family="'Consolas',monospace" font-size="10.00">job.hpp</text>
</a>
</g>
</g>
<!-- Node21&#45;&gt;Node22 -->
<g id="edge25" class="edge">
<title>Node21&#45;&gt;Node22</title>
<path fill="none" stroke="midnightblue" d="M78.18,-168.32C69.61,-160.34 56.69,-148.31 46.31,-138.65"/>
<polygon fill="midnightblue" stroke="midnightblue" points="48.69,-136.09 38.99,-131.83 43.92,-141.21 48.69,-136.09"/>
</g>
<!-- Node22&#45;&gt;Node3 -->
<g id="edge26" class="edge">
<title>Node22&#45;&gt;Node3</title>
<path fill="none" stroke="midnightblue" d="M33.13,-112.08C36.11,-104.77 40.43,-94.18 44.12,-85.1"/>
<polygon fill="midnightblue" stroke="midnightblue" points="47.4,-86.33 47.93,-75.75 40.92,-83.69 47.4,-86.33"/>
</g>
</g>
</svg>
