<?xml version="1.0" encoding="UTF-8" standalone="no"?>
<!DOCTYPE svg PUBLIC "-//W3C//DTD SVG 1.1//EN"
 "http://www.w3.org/Graphics/SVG/1.1/DTD/svg11.dtd">
<!-- Generated by graphviz version 5.0.0 (0)
 -->
<!-- Title: jngl/init.hpp Pages: 1 -->
<svg width="776pt" height="247pt"
 viewBox="0.00 0.00 776.00 247.00" xmlns="http://www.w3.org/2000/svg" xmlns:xlink="http://www.w3.org/1999/xlink">
<g id="graph0" class="graph" transform="scale(1 1) rotate(0) translate(4 243)">
<title>jngl/init.hpp</title>
<!-- Node1 -->
<g id="node1" class="node">
<title>Node1</title>
<g id="a_node1"><a xlink:title="Include this file only once, as it defines the main function.">
<polygon fill="#999999" stroke="#666666" points="481,-239 386,-239 386,-220 481,-220 481,-239"/>
<text text-anchor="middle" x="433.5" y="-227" font-family="ui-monospace,monospace" font-size="10.00">jngl/init.hpp</text>
</a>
</g>
</g>
<!-- Node2 -->
<g id="node2" class="node">
<title>Node2</title>
<g id="a_node2"><a xlink:href="App_8hpp.html" target="_top" xlink:title="Contains jngl::App class.">
<polygon fill="white" stroke="#666666" points="175,-129 116,-129 116,-110 175,-110 175,-129"/>
<text text-anchor="middle" x="145.5" y="-117" font-family="ui-monospace,monospace" font-size="10.00">App.hpp</text>
</a>
</g>
</g>
<!-- Node1&#45;&gt;Node2 -->
<g id="edge1" class="edge">
<title>Node1&#45;&gt;Node2</title>
<path fill="none" stroke="#63b8ff" d="M408.52,-219.85C383.23,-211.04 343.04,-196.87 308.5,-184 262.21,-166.75 208.93,-145.78 176.24,-132.79"/>
<polygon fill="#63b8ff" stroke="#63b8ff" points="177.37,-129.47 166.78,-129.02 174.78,-135.97 177.37,-129.47"/>
</g>
<!-- Node5 -->
<g id="node5" class="node">
<title>Node5</title>
<g id="a_node5"><a xlink:href="AppParameters_8hpp.html" target="_top" xlink:title="Contains jngl::AppParameters struct.">
<polygon fill="white" stroke="#666666" points="548,-184 429,-184 429,-165 548,-165 548,-184"/>
<text text-anchor="middle" x="488.5" y="-172" font-family="ui-monospace,monospace" font-size="10.00">AppParameters.hpp</text>
</a>
</g>
</g>
<!-- Node1&#45;&gt;Node5 -->
<g id="edge4" class="edge">
<title>Node1&#45;&gt;Node5</title>
<path fill="none" stroke="#63b8ff" d="M442.58,-219.75C450.59,-212.03 462.46,-200.6 472.12,-191.28"/>
<polygon fill="#63b8ff" stroke="#63b8ff" points="474.81,-193.55 479.59,-184.09 469.96,-188.51 474.81,-193.55"/>
</g>
<!-- Node11 -->
<g id="node11" class="node">
<title>Node11</title>
<g id="a_node11"><a xlink:href="main_8hpp.html" target="_top" xlink:title="Defines macros for the main entry point.">
<polygon fill="white" stroke="#666666" points="382,-184 317,-184 317,-165 382,-165 382,-184"/>
<text text-anchor="middle" x="349.5" y="-172" font-family="ui-monospace,monospace" font-size="10.00">main.hpp</text>
</a>
</g>
</g>
<!-- Node1&#45;&gt;Node11 -->
<g id="edge10" class="edge">
<title>Node1&#45;&gt;Node11</title>
<path fill="none" stroke="#63b8ff" d="M420,-219.98C407.1,-211.84 387.4,-199.41 372.1,-189.76"/>
<polygon fill="#63b8ff" stroke="#63b8ff" points="373.57,-186.55 363.24,-184.17 369.83,-192.47 373.57,-186.55"/>
</g>
<!-- Node20 -->
<g id="node20" class="node">
<title>Node20</title>
<g id="a_node20"><a xlink:href="screen_8hpp.html" target="_top" xlink:title=" ">
<polygon fill="white" stroke="#666666" points="643,-184 566,-184 566,-165 643,-165 643,-184"/>
<text text-anchor="middle" x="604.5" y="-172" font-family="ui-monospace,monospace" font-size="10.00">screen.hpp</text>
</a>
</g>
</g>
<!-- Node1&#45;&gt;Node20 -->
<g id="edge24" class="edge">
<title>Node1&#45;&gt;Node20</title>
<path fill="none" stroke="#63b8ff" d="M460.97,-219.98C489.68,-211.09 534.92,-197.07 566.92,-187.15"/>
<polygon fill="#63b8ff" stroke="#63b8ff" points="568.3,-190.39 576.81,-184.08 566.22,-183.7 568.3,-190.39"/>
</g>
<!-- Node21 -->
<g id="node21" class="node">
<title>Node21</title>
<g id="a_node21"><a xlink:href="work_8hpp.html" target="_top" xlink:title=" ">
<polygon fill="white" stroke="#666666" points="120,-184 55,-184 55,-165 120,-165 120,-184"/>
<text text-anchor="middle" x="87.5" y="-172" font-family="ui-monospace,monospace" font-size="10.00">work.hpp</text>
</a>
</g>
</g>
<!-- Node1&#45;&gt;Node21 -->
<g id="edge26" class="edge">
<title>Node1&#45;&gt;Node21</title>
<path fill="none" stroke="#63b8ff" d="M385.75,-221.19C318,-210.81 195.02,-191.97 130.17,-182.04"/>
<polygon fill="#63b8ff" stroke="#63b8ff" points="130.69,-178.57 120.27,-180.52 129.63,-185.49 130.69,-178.57"/>
</g>
<!-- Node23 -->
<g id="node23" class="node">
<title>Node23</title>
<g id="a_node23"><a target="_parent" xlink:href="http://en.cppreference.com/w/cpp/header/cmath.html" xlink:title=" ">
<polygon fill="white" stroke="#666666" points="708,-184 661,-184 661,-165 708,-165 708,-184"/>
<text text-anchor="middle" x="684.5" y="-172" font-family="ui-monospace,monospace" font-size="10.00">cmath</text>
</a>
</g>
</g>
<!-- Node1&#45;&gt;Node23 -->
<g id="edge30" class="edge">
<title>Node1&#45;&gt;Node23</title>
<path fill="none" stroke="#63b8ff" d="M479.39,-219.99C521.65,-211.98 586.31,-199.25 650.84,-184.29"/>
<polygon fill="#63b8ff" stroke="#63b8ff" points="651.83,-187.65 660.77,-181.97 650.24,-180.84 651.83,-187.65"/>
</g>
<!-- Node3 -->
<g id="node3" class="node">
<title>Node3</title>
<g id="a_node3"><a target="_parent" xlink:href="http://en.cppreference.com/w/cpp/header/memory.html" xlink:title=" ">
<polygon fill="white" stroke="#666666" points="58,-74 5,-74 5,-55 58,-55 58,-74"/>
<text text-anchor="middle" x="31.5" y="-62" font-family="ui-monospace,monospace" font-size="10.00">memory</text>
</a>
</g>
</g>
<!-- Node2&#45;&gt;Node3 -->
<g id="edge2" class="edge">
<title>Node2&#45;&gt;Node3</title>
<path fill="none" stroke="#63b8ff" d="M127.18,-109.98C108.84,-101.46 80.39,-88.23 59.27,-78.41"/>
<polygon fill="#63b8ff" stroke="#63b8ff" points="60.69,-75.21 50.15,-74.17 57.74,-81.56 60.69,-75.21"/>
</g>
<!-- Node4 -->
<g id="node4" class="node">
<title>Node4</title>
<g id="a_node4"><a target="_parent" xlink:href="http://en.cppreference.com/w/cpp/header/string.html" xlink:title=" ">
<polygon fill="white" stroke="#666666" points="206,-74 153,-74 153,-55 206,-55 206,-74"/>
<text text-anchor="middle" x="179.5" y="-62" font-family="ui-monospace,monospace" font-size="10.00">string</text>
</a>
</g>
</g>
<!-- Node2&#45;&gt;Node4 -->
<g id="edge3" class="edge">
<title>Node2&#45;&gt;Node4</title>
<path fill="none" stroke="#63b8ff" d="M151.11,-109.75C155.82,-102.42 162.67,-91.73 168.47,-82.7"/>
<polygon fill="#63b8ff" stroke="#63b8ff" points="171.54,-84.4 173.99,-74.09 165.64,-80.62 171.54,-84.4"/>
</g>
<!-- Node6 -->
<g id="node6" class="node">
<title>Node6</title>
<g id="a_node6"><a xlink:href="Vec2_8hpp.html" target="_top" xlink:title="Contains jngl::Vec2 class.">
<polygon fill="white" stroke="#666666" points="665,-129 600,-129 600,-110 665,-110 665,-129"/>
<text text-anchor="middle" x="632.5" y="-117" font-family="ui-monospace,monospace" font-size="10.00">Vec2.hpp</text>
</a>
</g>
</g>
<!-- Node5&#45;&gt;Node6 -->
<g id="edge5" class="edge">
<title>Node5&#45;&gt;Node6</title>
<path fill="none" stroke="#63b8ff" d="M511.64,-164.98C535.32,-156.27 572.37,-142.63 599.21,-132.75"/>
<polygon fill="#63b8ff" stroke="#63b8ff" points="600.77,-135.91 608.94,-129.17 598.35,-129.34 600.77,-135.91"/>
</g>
<!-- Node9 -->
<g id="node9" class="node">
<title>Node9</title>
<g id="a_node9"><a target="_parent" xlink:href="http://en.cppreference.com/w/cpp/header/functional.html" xlink:title=" ">
<polygon fill="white" stroke="#666666" points="532,-74 455,-74 455,-55 532,-55 532,-74"/>
<text text-anchor="middle" x="493.5" y="-62" font-family="ui-monospace,monospace" font-size="10.00">functional</text>
</a>
</g>
</g>
<!-- Node5&#45;&gt;Node9 -->
<g id="edge8" class="edge">
<title>Node5&#45;&gt;Node9</title>
<path fill="none" stroke="#63b8ff" d="M488.91,-164.66C489.72,-147.17 491.54,-107.8 492.63,-84.27"/>
<polygon fill="#63b8ff" stroke="#63b8ff" points="496.13,-84.31 493.1,-74.16 489.14,-83.99 496.13,-84.31"/>
</g>
<!-- Node10 -->
<g id="node10" class="node">
<title>Node10</title>
<g id="a_node10"><a target="_parent" xlink:href="http://en.cppreference.com/w/cpp/header/optional.html" xlink:title=" ">
<polygon fill="white" stroke="#666666" points="582,-129 517,-129 517,-110 582,-110 582,-129"/>
<text text-anchor="middle" x="549.5" y="-117" font-family="ui-monospace,monospace" font-size="10.00">optional</text>
</a>
</g>
</g>
<!-- Node5&#45;&gt;Node10 -->
<g id="edge9" class="edge">
<title>Node5&#45;&gt;Node10</title>
<path fill="none" stroke="#63b8ff" d="M498.3,-164.98C507.32,-157.15 520.91,-145.34 531.82,-135.86"/>
<polygon fill="#63b8ff" stroke="#63b8ff" points="534.27,-138.37 539.52,-129.17 529.68,-133.09 534.27,-138.37"/>
</g>
<!-- Node7 -->
<g id="node7" class="node">
<title>Node7</title>
<g id="a_node7"><a xlink:title=" ">
<polygon fill="#e0e0e0" stroke="#999999" points="768,-74 649,-74 649,-55 768,-55 768,-74"/>
<text text-anchor="middle" x="708.5" y="-62" font-family="ui-monospace,monospace" font-size="10.00">boost/version.hpp</text>
</a>
</g>
</g>
<!-- Node6&#45;&gt;Node7 -->
<g id="edge6" class="edge">
<title>Node6&#45;&gt;Node7</title>
<path fill="none" stroke="#63b8ff" d="M644.71,-109.98C656.28,-101.92 673.88,-89.65 687.66,-80.03"/>
<polygon fill="#63b8ff" stroke="#63b8ff" points="689.87,-82.76 696.07,-74.17 685.86,-77.02 689.87,-82.76"/>
</g>
<!-- Node8 -->
<g id="node8" class="node">
<title>Node8</title>
<g id="a_node8"><a target="_parent" xlink:href="http://en.cppreference.com/w/cpp/header/iosfwd.html" xlink:title=" ">
<polygon fill="white" stroke="#666666" points="631,-74 578,-74 578,-55 631,-55 631,-74"/>
<text text-anchor="middle" x="604.5" y="-62" font-family="ui-monospace,monospace" font-size="10.00">iosfwd</text>
</a>
</g>
</g>
<!-- Node6&#45;&gt;Node8 -->
<g id="edge7" class="edge">
<title>Node6&#45;&gt;Node8</title>
<path fill="none" stroke="#63b8ff" d="M627.88,-109.75C624.04,-102.49 618.48,-91.95 613.74,-82.98"/>
<polygon fill="#63b8ff" stroke="#63b8ff" points="616.8,-81.3 609.04,-74.09 610.61,-84.57 616.8,-81.3"/>
</g>
<!-- Node12 -->
<g id="node12" class="node">
<title>Node12</title>
<g id="a_node12"><a xlink:href="Finally_8hpp.html" target="_top" xlink:title="Contains jngl::Finally class.">
<polygon fill="white" stroke="#666666" points="460,-129 377,-129 377,-110 460,-110 460,-129"/>
<text text-anchor="middle" x="418.5" y="-117" font-family="ui-monospace,monospace" font-size="10.00">Finally.hpp</text>
</a>
</g>
</g>
<!-- Node11&#45;&gt;Node12 -->
<g id="edge11" class="edge">
<title>Node11&#45;&gt;Node12</title>
<path fill="none" stroke="#63b8ff" d="M360.59,-164.98C370.99,-157 386.76,-144.88 399.22,-135.31"/>
<polygon fill="#63b8ff" stroke="#63b8ff" points="401.41,-138.04 407.21,-129.17 397.15,-132.49 401.41,-138.04"/>
</g>
<!-- Node13 -->
<g id="node13" class="node">
<title>Node13</title>
<g id="a_node13"><a xlink:href="other_8hpp.html" target="_top" xlink:title="Miscellaneous functions.">
<polygon fill="white" stroke="#666666" points="264,-129 193,-129 193,-110 264,-110 264,-129"/>
<text text-anchor="middle" x="228.5" y="-117" font-family="ui-monospace,monospace" font-size="10.00">other.hpp</text>
</a>
</g>
</g>
<!-- Node11&#45;&gt;Node13 -->
<g id="edge13" class="edge">
<title>Node11&#45;&gt;Node13</title>
<path fill="none" stroke="#63b8ff" d="M330.06,-164.98C310.51,-156.42 280.12,-143.11 257.68,-133.28"/>
<polygon fill="#63b8ff" stroke="#63b8ff" points="258.86,-129.98 248.29,-129.17 256.05,-136.39 258.86,-129.98"/>
</g>
<!-- Node16 -->
<g id="node16" class="node">
<title>Node16</title>
<g id="a_node16"><a xlink:href="window_8hpp.html" target="_top" xlink:title="Functions related to the main window.">
<polygon fill="white" stroke="#666666" points="359,-129 282,-129 282,-110 359,-110 359,-129"/>
<text text-anchor="middle" x="320.5" y="-117" font-family="ui-monospace,monospace" font-size="10.00">window.hpp</text>
</a>
</g>
</g>
<!-- Node11&#45;&gt;Node16 -->
<g id="edge17" class="edge">
<title>Node11&#45;&gt;Node16</title>
<path fill="none" stroke="#63b8ff" d="M344.71,-164.75C340.74,-157.49 334.97,-146.95 330.07,-137.98"/>
<polygon fill="#63b8ff" stroke="#63b8ff" points="333.07,-136.18 325.2,-129.09 326.93,-139.54 333.07,-136.18"/>
</g>
<!-- Node12&#45;&gt;Node9 -->
<g id="edge12" class="edge">
<title>Node12&#45;&gt;Node9</title>
<path fill="none" stroke="#63b8ff" d="M430.55,-109.98C441.96,-101.92 459.33,-89.65 472.93,-80.03"/>
<polygon fill="#63b8ff" stroke="#63b8ff" points="475.08,-82.8 481.23,-74.17 471.04,-77.08 475.08,-82.8"/>
</g>
<!-- Node13&#45;&gt;Node4 -->
<g id="edge15" class="edge">
<title>Node13&#45;&gt;Node4</title>
<path fill="none" stroke="#63b8ff" d="M220.41,-109.75C213.34,-102.11 202.91,-90.82 194.35,-81.56"/>
<polygon fill="#63b8ff" stroke="#63b8ff" points="196.8,-79.06 187.44,-74.09 191.66,-83.81 196.8,-79.06"/>
</g>
<!-- Node14 -->
<g id="node14" class="node">
<title>Node14</title>
<g id="a_node14"><a target="_parent" xlink:href="http://en.cppreference.com/w/cpp/header/sstream.html" xlink:title=" ">
<polygon fill="white" stroke="#666666" points="135,-74 76,-74 76,-55 135,-55 135,-74"/>
<text text-anchor="middle" x="105.5" y="-62" font-family="ui-monospace,monospace" font-size="10.00">sstream</text>
</a>
</g>
</g>
<!-- Node13&#45;&gt;Node14 -->
<g id="edge14" class="edge">
<title>Node13&#45;&gt;Node14</title>
<path fill="none" stroke="#63b8ff" d="M208.74,-109.98C188.77,-101.38 157.7,-87.99 134.85,-78.15"/>
<polygon fill="#63b8ff" stroke="#63b8ff" points="136.19,-74.91 125.62,-74.17 133.42,-81.34 136.19,-74.91"/>
</g>
<!-- Node15 -->
<g id="node15" class="node">
<title>Node15</title>
<g id="a_node15"><a target="_parent" xlink:href="http://en.cppreference.com/w/cpp/header/vector.html" xlink:title=" ">
<polygon fill="white" stroke="#666666" points="277,-74 224,-74 224,-55 277,-55 277,-74"/>
<text text-anchor="middle" x="250.5" y="-62" font-family="ui-monospace,monospace" font-size="10.00">vector</text>
</a>
</g>
</g>
<!-- Node13&#45;&gt;Node15 -->
<g id="edge16" class="edge">
<title>Node13&#45;&gt;Node15</title>
<path fill="none" stroke="#63b8ff" d="M232.13,-109.75C235.08,-102.65 239.33,-92.4 243.01,-83.56"/>
<polygon fill="#63b8ff" stroke="#63b8ff" points="246.33,-84.67 246.93,-74.09 239.87,-81.98 246.33,-84.67"/>
</g>
<!-- Node16&#45;&gt;Node4 -->
<g id="edge22" class="edge">
<title>Node16&#45;&gt;Node4</title>
<path fill="none" stroke="#63b8ff" d="M297.85,-109.98C274.65,-101.27 238.38,-87.63 212.1,-77.75"/>
<polygon fill="#63b8ff" stroke="#63b8ff" points="213.16,-74.41 202.57,-74.17 210.7,-80.97 213.16,-74.41"/>
</g>
<!-- Node16&#45;&gt;Node9 -->
<g id="edge21" class="edge">
<title>Node16&#45;&gt;Node9</title>
<path fill="none" stroke="#63b8ff" d="M348.3,-109.98C377.47,-101.05 423.5,-86.94 455.9,-77.02"/>
<polygon fill="#63b8ff" stroke="#63b8ff" points="456.95,-80.36 465.49,-74.08 454.9,-73.66 456.95,-80.36"/>
</g>
<!-- Node16&#45;&gt;Node15 -->
<g id="edge23" class="edge">
<title>Node16&#45;&gt;Node15</title>
<path fill="none" stroke="#63b8ff" d="M309.25,-109.98C298.7,-102 282.7,-89.88 270.06,-80.31"/>
<polygon fill="#63b8ff" stroke="#63b8ff" points="272.04,-77.42 261.95,-74.17 267.81,-83 272.04,-77.42"/>
</g>
<!-- Node17 -->
<g id="node17" class="node">
<title>Node17</title>
<g id="a_node17"><a xlink:href="Pixels_8hpp.html" target="_top" xlink:title="Contains jngl::Pixels class.">
<polygon fill="white" stroke="#666666" points="437,-74 360,-74 360,-55 437,-55 437,-74"/>
<text text-anchor="middle" x="398.5" y="-62" font-family="ui-monospace,monospace" font-size="10.00">Pixels.hpp</text>
</a>
</g>
</g>
<!-- Node16&#45;&gt;Node17 -->
<g id="edge18" class="edge">
<title>Node16&#45;&gt;Node17</title>
<path fill="none" stroke="#63b8ff" d="M333.03,-109.98C344.9,-101.92 362.96,-89.65 377.11,-80.03"/>
<polygon fill="#63b8ff" stroke="#63b8ff" points="379.44,-82.69 385.74,-74.17 375.5,-76.9 379.44,-82.69"/>
</g>
<!-- Node19 -->
<g id="node19" class="node">
<title>Node19</title>
<g id="a_node19"><a target="_parent" xlink:href="http://en.cppreference.com/w/cpp/header/array.html" xlink:title=" ">
<polygon fill="white" stroke="#666666" points="342,-74 295,-74 295,-55 342,-55 342,-74"/>
<text text-anchor="middle" x="318.5" y="-62" font-family="ui-monospace,monospace" font-size="10.00">array</text>
</a>
</g>
</g>
<!-- Node16&#45;&gt;Node19 -->
<g id="edge20" class="edge">
<title>Node16&#45;&gt;Node19</title>
<path fill="none" stroke="#63b8ff" d="M320.17,-109.75C319.91,-102.8 319.53,-92.85 319.2,-84.13"/>
<polygon fill="#63b8ff" stroke="#63b8ff" points="322.7,-83.95 318.82,-74.09 315.7,-84.21 322.7,-83.95"/>
</g>
<!-- Node18 -->
<g id="node18" class="node">
<title>Node18</title>
<g id="a_node18"><a target="_parent" xlink:href="http://en.cppreference.com/w/cpp/header/cstdint.html" xlink:title=" ">
<polygon fill="white" stroke="#666666" points="428,-19 369,-19 369,0 428,0 428,-19"/>
<text text-anchor="middle" x="398.5" y="-7" font-family="ui-monospace,monospace" font-size="10.00">cstdint</text>
</a>
</g>
</g>
<!-- Node17&#45;&gt;Node18 -->
<g id="edge19" class="edge">
<title>Node17&#45;&gt;Node18</title>
<path fill="none" stroke="#63b8ff" d="M398.5,-54.75C398.5,-47.8 398.5,-37.85 398.5,-29.13"/>
<polygon fill="#63b8ff" stroke="#63b8ff" points="402,-29.09 398.5,-19.09 395,-29.09 402,-29.09"/>
</g>
<!-- Node20&#45;&gt;Node6 -->
<g id="edge25" class="edge">
<title>Node20&#45;&gt;Node6</title>
<path fill="none" stroke="#63b8ff" d="M609.12,-164.75C612.96,-157.49 618.52,-146.95 623.26,-137.98"/>
<polygon fill="#63b8ff" stroke="#63b8ff" points="626.39,-139.57 627.96,-129.09 620.2,-136.3 626.39,-139.57"/>
</g>
<!-- Node21&#45;&gt;Node3 -->
<g id="edge29" class="edge">
<title>Node21&#45;&gt;Node3</title>
<path fill="none" stroke="#63b8ff" d="M85.86,-164.88C83.23,-152.28 77.34,-128.33 67.5,-110 62.06,-99.86 54.18,-89.79 47.17,-81.8"/>
<polygon fill="#63b8ff" stroke="#63b8ff" points="49.66,-79.34 40.33,-74.31 44.49,-84.06 49.66,-79.34"/>
</g>
<!-- Node22 -->
<g id="node22" class="node">
<title>Node22</title>
<g id="a_node22"><a xlink:href="job_8hpp.html" target="_top" xlink:title="Contains jngl::Job class and related functions.">
<polygon fill="white" stroke="#666666" points="59,-129 0,-129 0,-110 59,-110 59,-129"/>
<text text-anchor="middle" x="29.5" y="-117" font-family="ui-monospace,monospace" font-size="10.00">job.hpp</text>
</a>
</g>
</g>
<!-- Node21&#45;&gt;Node22 -->
<g id="edge27" class="edge">
<title>Node21&#45;&gt;Node22</title>
<path fill="none" stroke="#63b8ff" d="M78.18,-164.98C69.69,-157.23 56.94,-145.58 46.62,-136.14"/>
<polygon fill="#63b8ff" stroke="#63b8ff" points="48.73,-133.33 38.99,-129.17 44.01,-138.5 48.73,-133.33"/>
</g>
<!-- Node22&#45;&gt;Node3 -->
<g id="edge28" class="edge">
<title>Node22&#45;&gt;Node3</title>
<path fill="none" stroke="#63b8ff" d="M29.83,-109.75C30.09,-102.8 30.47,-92.85 30.8,-84.13"/>
<polygon fill="#63b8ff" stroke="#63b8ff" points="34.3,-84.21 31.18,-74.09 27.3,-83.95 34.3,-84.21"/>
</g>
</g>
</svg>
