<?xml version="1.0" encoding="UTF-8" standalone="no"?>
<!DOCTYPE svg PUBLIC "-//W3C//DTD SVG 1.1//EN"
 "http://www.w3.org/Graphics/SVG/1.1/DTD/svg11.dtd">
<!-- Generated by graphviz version 9.0.0 (20230911.1827)
 -->
<!-- Title: jngl/init.hpp Pages: 1 -->
<svg width="692pt" height="248pt"
 viewBox="0.00 0.00 692.00 248.25" xmlns="http://www.w3.org/2000/svg" xmlns:xlink="http://www.w3.org/1999/xlink">
<g id="graph0" class="graph" transform="scale(1 1) rotate(0) translate(4 244.25)">
<title>jngl/init.hpp</title>
<!-- Node1 -->
<g id="Node000001" class="node">
<title>Node1</title>
<g id="a_Node000001"><a xlink:title="Include this file only once, as it defines the main function.">
<polygon fill="#999999" stroke="#666666" points="513,-240.25 419,-240.25 419,-221 513,-221 513,-240.25"/>
<text text-anchor="middle" x="466" y="-226.75" font-family="ui-monospace,monospace" font-size="10.00">jngl/init.hpp</text>
</a>
</g>
</g>
<!-- Node2 -->
<g id="Node000002" class="node">
<title>Node2</title>
<g id="a_Node000002"><a xlink:href="AppParameters_8hpp.html" target="_top" xlink:title="Contains jngl::AppParameters struct.">
<polygon fill="white" stroke="#666666" points="255,-129.75 137,-129.75 137,-110.5 255,-110.5 255,-129.75"/>
<text text-anchor="middle" x="196" y="-116.25" font-family="ui-monospace,monospace" font-size="10.00">AppParameters.hpp</text>
</a>
</g>
</g>
<!-- Node1&#45;&gt;Node2 -->
<g id="edge1_Node000001_Node000002" class="edge">
<title>Node1&#45;&gt;Node2</title>
<g id="a_edge1_Node000001_Node000002"><a xlink:title=" ">
<path fill="none" stroke="#63b8ff" d="M443.44,-220.56C395.8,-201.41 284.72,-156.78 229.04,-134.4"/>
<polygon fill="#63b8ff" stroke="#63b8ff" points="230.67,-131.29 220.09,-130.8 228.06,-137.78 230.67,-131.29"/>
</a>
</g>
</g>
<!-- Node10 -->
<g id="Node000010" class="node">
<title>Node10</title>
<g id="a_Node000010"><a xlink:href="main_8hpp.html" target="_top" xlink:title="Defines macros for the main entry point.">
<polygon fill="white" stroke="#666666" points="453,-185 389,-185 389,-165.75 453,-165.75 453,-185"/>
<text text-anchor="middle" x="421" y="-171.5" font-family="ui-monospace,monospace" font-size="10.00">main.hpp</text>
</a>
</g>
</g>
<!-- Node1&#45;&gt;Node10 -->
<g id="edge9_Node000001_Node000010" class="edge">
<title>Node1&#45;&gt;Node10</title>
<g id="a_edge9_Node000001_Node000010"><a xlink:title=" ">
<path fill="none" stroke="#63b8ff" d="M458.57,-220.83C452.42,-213.55 443.49,-202.98 435.87,-193.98"/>
<polygon fill="#63b8ff" stroke="#63b8ff" points="438.7,-191.89 429.57,-186.52 433.35,-196.41 438.7,-191.89"/>
</a>
</g>
</g>
<!-- Node19 -->
<g id="Node000019" class="node">
<title>Node19</title>
<g id="a_Node000019"><a xlink:href="message_8hpp.html" target="_top" xlink:title=" ">
<polygon fill="white" stroke="#666666" points="553,-185 471,-185 471,-165.75 553,-165.75 553,-185"/>
<text text-anchor="middle" x="512" y="-171.5" font-family="ui-monospace,monospace" font-size="10.00">message.hpp</text>
</a>
</g>
</g>
<!-- Node1&#45;&gt;Node19 -->
<g id="edge23_Node000001_Node000019" class="edge">
<title>Node1&#45;&gt;Node19</title>
<g id="a_edge23_Node000001_Node000019"><a xlink:title=" ">
<path fill="none" stroke="#63b8ff" d="M473.6,-220.83C479.88,-213.55 489.01,-202.98 496.8,-193.98"/>
<polygon fill="#63b8ff" stroke="#63b8ff" points="499.36,-196.36 503.25,-186.5 494.06,-191.78 499.36,-196.36"/>
</a>
</g>
</g>
<!-- Node20 -->
<g id="Node000020" class="node">
<title>Node20</title>
<g id="a_Node000020"><a target="_parent" xlink:href="http://en.cppreference.com/w/cpp/header/cmath.html" xlink:title=" ">
<polygon fill="white" stroke="#666666" points="617,-185 571,-185 571,-165.75 617,-165.75 617,-185"/>
<text text-anchor="middle" x="594" y="-171.5" font-family="ui-monospace,monospace" font-size="10.00">cmath</text>
</a>
</g>
</g>
<!-- Node1&#45;&gt;Node20 -->
<g id="edge25_Node000001_Node000020" class="edge">
<title>Node1&#45;&gt;Node20</title>
<g id="a_edge25_Node000001_Node000020"><a xlink:title=" ">
<path fill="none" stroke="#63b8ff" d="M487.71,-220.59C508.03,-212.14 538.65,-199.4 561.81,-189.77"/>
<polygon fill="#63b8ff" stroke="#63b8ff" points="562.89,-193.11 570.78,-186.03 560.21,-186.64 562.89,-193.11"/>
</a>
</g>
</g>
<!-- Node3 -->
<g id="Node000003" class="node">
<title>Node3</title>
<g id="a_Node000003"><a xlink:href="Vec2_8hpp.html" target="_top" xlink:title="Contains jngl::Vec2 class.">
<polygon fill="white" stroke="#666666" points="146,-74.5 82,-74.5 82,-55.25 146,-55.25 146,-74.5"/>
<text text-anchor="middle" x="114" y="-61" font-family="ui-monospace,monospace" font-size="10.00">Vec2.hpp</text>
</a>
</g>
</g>
<!-- Node2&#45;&gt;Node3 -->
<g id="edge2_Node000002_Node000003" class="edge">
<title>Node2&#45;&gt;Node3</title>
<g id="a_edge2_Node000002_Node000003"><a xlink:title=" ">
<path fill="none" stroke="#63b8ff" d="M182.09,-110.09C169.84,-102.14 151.75,-90.39 137.29,-81"/>
<polygon fill="#63b8ff" stroke="#63b8ff" points="139.54,-78.29 129.25,-75.78 135.73,-84.16 139.54,-78.29"/>
</a>
</g>
</g>
<!-- Node6 -->
<g id="Node000006" class="node">
<title>Node6</title>
<g id="a_Node000006"><a target="_parent" xlink:href="http://en.cppreference.com/w/cpp/header/functional.html" xlink:title=" ">
<polygon fill="white" stroke="#666666" points="310,-74.5 234,-74.5 234,-55.25 310,-55.25 310,-74.5"/>
<text text-anchor="middle" x="272" y="-61" font-family="ui-monospace,monospace" font-size="10.00">functional</text>
</a>
</g>
</g>
<!-- Node2&#45;&gt;Node6 -->
<g id="edge5_Node000002_Node000006" class="edge">
<title>Node2&#45;&gt;Node6</title>
<g id="a_edge5_Node000002_Node000006"><a xlink:title=" ">
<path fill="none" stroke="#63b8ff" d="M208.89,-110.09C220.03,-102.29 236.37,-90.84 249.64,-81.54"/>
<polygon fill="#63b8ff" stroke="#63b8ff" points="251.62,-84.43 257.8,-75.82 247.61,-78.69 251.62,-84.43"/>
</a>
</g>
</g>
<!-- Node7 -->
<g id="Node000007" class="node">
<title>Node7</title>
<g id="a_Node000007"><a target="_parent" xlink:href="http://en.cppreference.com/w/cpp/header/memory.html" xlink:title=" ">
<polygon fill="white" stroke="#666666" points="216,-74.5 164,-74.5 164,-55.25 216,-55.25 216,-74.5"/>
<text text-anchor="middle" x="190" y="-61" font-family="ui-monospace,monospace" font-size="10.00">memory</text>
</a>
</g>
</g>
<!-- Node2&#45;&gt;Node7 -->
<g id="edge6_Node000002_Node000007" class="edge">
<title>Node2&#45;&gt;Node7</title>
<g id="a_edge6_Node000002_Node000007"><a xlink:title=" ">
<path fill="none" stroke="#63b8ff" d="M195.01,-110.33C194.27,-103.74 193.22,-94.46 192.28,-86.07"/>
<polygon fill="#63b8ff" stroke="#63b8ff" points="195.78,-85.91 191.18,-76.36 188.82,-86.69 195.78,-85.91"/>
</a>
</g>
</g>
<!-- Node8 -->
<g id="Node000008" class="node">
<title>Node8</title>
<g id="a_Node000008"><a target="_parent" xlink:href="http://en.cppreference.com/w/cpp/header/optional.html" xlink:title=" ">
<polygon fill="white" stroke="#666666" points="64,-74.5 0,-74.5 0,-55.25 64,-55.25 64,-74.5"/>
<text text-anchor="middle" x="32" y="-61" font-family="ui-monospace,monospace" font-size="10.00">optional</text>
</a>
</g>
</g>
<!-- Node2&#45;&gt;Node8 -->
<g id="edge7_Node000002_Node000008" class="edge">
<title>Node2&#45;&gt;Node8</title>
<g id="a_edge7_Node000002_Node000008"><a xlink:title=" ">
<path fill="none" stroke="#63b8ff" d="M168.18,-110.09C141.44,-101.41 100.78,-88.21 70.85,-78.49"/>
<polygon fill="#63b8ff" stroke="#63b8ff" points="71.99,-75.18 61.4,-75.42 69.83,-81.84 71.99,-75.18"/>
</a>
</g>
</g>
<!-- Node9 -->
<g id="Node000009" class="node">
<title>Node9</title>
<g id="a_Node000009"><a target="_parent" xlink:href="http://en.cppreference.com/w/cpp/header/string.html" xlink:title=" ">
<polygon fill="white" stroke="#666666" points="538,-74.5 486,-74.5 486,-55.25 538,-55.25 538,-74.5"/>
<text text-anchor="middle" x="512" y="-61" font-family="ui-monospace,monospace" font-size="10.00">string</text>
</a>
</g>
</g>
<!-- Node2&#45;&gt;Node9 -->
<g id="edge8_Node000002_Node000009" class="edge">
<title>Node2&#45;&gt;Node9</title>
<g id="a_edge8_Node000002_Node000009"><a xlink:title=" ">
<path fill="none" stroke="#63b8ff" d="M255.47,-111.16C310.07,-103.52 393.44,-91.01 474.74,-74.82"/>
<polygon fill="#63b8ff" stroke="#63b8ff" points="475.08,-78.32 484.2,-72.91 473.7,-71.46 475.08,-78.32"/>
</a>
</g>
</g>
<!-- Node4 -->
<g id="Node000004" class="node">
<title>Node4</title>
<g id="a_Node000004"><a xlink:title=" ">
<polygon fill="#e0e0e0" stroke="#999999" points="229,-19.25 105,-19.25 105,0 229,0 229,-19.25"/>
<text text-anchor="middle" x="167" y="-5.75" font-family="ui-monospace,monospace" font-size="10.00">boost/qvm_lite.hpp</text>
</a>
</g>
</g>
<!-- Node3&#45;&gt;Node4 -->
<g id="edge3_Node000003_Node000004" class="edge">
<title>Node3&#45;&gt;Node4</title>
<g id="a_edge3_Node000003_Node000004"><a xlink:title=" ">
<path fill="none" stroke="#63b8ff" d="M122.75,-55.08C130.15,-47.65 140.96,-36.79 150.05,-27.66"/>
<polygon fill="#63b8ff" stroke="#63b8ff" points="152.42,-30.24 156.99,-20.68 147.46,-25.3 152.42,-30.24"/>
</a>
</g>
</g>
<!-- Node5 -->
<g id="Node000005" class="node">
<title>Node5</title>
<g id="a_Node000005"><a target="_parent" xlink:href="http://en.cppreference.com/w/cpp/header/iosfwd.html" xlink:title=" ">
<polygon fill="white" stroke="#666666" points="87,-19.25 35,-19.25 35,0 87,0 87,-19.25"/>
<text text-anchor="middle" x="61" y="-5.75" font-family="ui-monospace,monospace" font-size="10.00">iosfwd</text>
</a>
</g>
</g>
<!-- Node3&#45;&gt;Node5 -->
<g id="edge4_Node000003_Node000005" class="edge">
<title>Node3&#45;&gt;Node5</title>
<g id="a_edge4_Node000003_Node000005"><a xlink:title=" ">
<path fill="none" stroke="#63b8ff" d="M105.25,-55.08C97.85,-47.65 87.04,-36.79 77.95,-27.66"/>
<polygon fill="#63b8ff" stroke="#63b8ff" points="80.54,-25.3 71.01,-20.68 75.58,-30.24 80.54,-25.3"/>
</a>
</g>
</g>
<!-- Node11 -->
<g id="Node000011" class="node">
<title>Node11</title>
<g id="a_Node000011"><a xlink:href="Finally_8hpp.html" target="_top" xlink:title="Contains jngl::Finally class.">
<polygon fill="white" stroke="#666666" points="365,-129.75 283,-129.75 283,-110.5 365,-110.5 365,-129.75"/>
<text text-anchor="middle" x="324" y="-116.25" font-family="ui-monospace,monospace" font-size="10.00">Finally.hpp</text>
</a>
</g>
</g>
<!-- Node10&#45;&gt;Node11 -->
<g id="edge10_Node000010_Node000011" class="edge">
<title>Node10&#45;&gt;Node11</title>
<g id="a_edge10_Node000010_Node000011"><a xlink:title=" ">
<path fill="none" stroke="#63b8ff" d="M404.55,-165.34C389.77,-157.23 367.82,-145.18 350.57,-135.71"/>
<polygon fill="#63b8ff" stroke="#63b8ff" points="352.31,-132.68 341.86,-130.93 348.94,-138.81 352.31,-132.68"/>
</a>
</g>
</g>
<!-- Node12 -->
<g id="Node000012" class="node">
<title>Node12</title>
<g id="a_Node000012"><a xlink:href="other_8hpp.html" target="_top" xlink:title="Miscellaneous functions.">
<polygon fill="white" stroke="#666666" points="613,-129.75 543,-129.75 543,-110.5 613,-110.5 613,-129.75"/>
<text text-anchor="middle" x="578" y="-116.25" font-family="ui-monospace,monospace" font-size="10.00">other.hpp</text>
</a>
</g>
</g>
<!-- Node10&#45;&gt;Node12 -->
<g id="edge12_Node000010_Node000012" class="edge">
<title>Node10&#45;&gt;Node12</title>
<g id="a_edge12_Node000010_Node000012"><a xlink:title=" ">
<path fill="none" stroke="#63b8ff" d="M447.63,-165.34C473.12,-156.7 511.81,-143.57 540.43,-133.87"/>
<polygon fill="#63b8ff" stroke="#63b8ff" points="541.46,-137.22 549.8,-130.69 539.21,-130.59 541.46,-137.22"/>
</a>
</g>
</g>
<!-- Node15 -->
<g id="Node000015" class="node">
<title>Node15</title>
<g id="a_Node000015"><a xlink:href="window_8hpp.html" target="_top" xlink:title="Functions related to the main window.">
<polygon fill="white" stroke="#666666" points="464,-129.75 388,-129.75 388,-110.5 464,-110.5 464,-129.75"/>
<text text-anchor="middle" x="426" y="-116.25" font-family="ui-monospace,monospace" font-size="10.00">window.hpp</text>
</a>
</g>
</g>
<!-- Node10&#45;&gt;Node15 -->
<g id="edge16_Node000010_Node000015" class="edge">
<title>Node10&#45;&gt;Node15</title>
<g id="a_edge16_Node000010_Node000015"><a xlink:title=" ">
<path fill="none" stroke="#63b8ff" d="M421.83,-165.58C422.44,-158.99 423.32,-149.71 424.1,-141.32"/>
<polygon fill="#63b8ff" stroke="#63b8ff" points="427.56,-141.9 425.01,-131.62 420.6,-141.25 427.56,-141.9"/>
</a>
</g>
</g>
<!-- Node11&#45;&gt;Node6 -->
<g id="edge11_Node000011_Node000006" class="edge">
<title>Node11&#45;&gt;Node6</title>
<g id="a_edge11_Node000011_Node000006"><a xlink:title=" ">
<path fill="none" stroke="#63b8ff" d="M315.41,-110.33C308.16,-102.9 297.55,-92.04 288.63,-82.91"/>
<polygon fill="#63b8ff" stroke="#63b8ff" points="291.32,-80.65 281.83,-75.94 286.31,-85.54 291.32,-80.65"/>
</a>
</g>
</g>
<!-- Node12&#45;&gt;Node9 -->
<g id="edge14_Node000012_Node000009" class="edge">
<title>Node12&#45;&gt;Node9</title>
<g id="a_edge14_Node000012_Node000009"><a xlink:title=" ">
<path fill="none" stroke="#63b8ff" d="M566.8,-110.09C557.26,-102.4 543.33,-91.15 531.89,-81.93"/>
<polygon fill="#63b8ff" stroke="#63b8ff" points="534.19,-79.28 524.21,-75.73 529.79,-84.73 534.19,-79.28"/>
</a>
</g>
</g>
<!-- Node13 -->
<g id="Node000013" class="node">
<title>Node13</title>
<g id="a_Node000013"><a target="_parent" xlink:href="http://en.cppreference.com/w/cpp/header/sstream.html" xlink:title=" ">
<polygon fill="white" stroke="#666666" points="684,-74.5 626,-74.5 626,-55.25 684,-55.25 684,-74.5"/>
<text text-anchor="middle" x="655" y="-61" font-family="ui-monospace,monospace" font-size="10.00">sstream</text>
</a>
</g>
</g>
<!-- Node12&#45;&gt;Node13 -->
<g id="edge13_Node000012_Node000013" class="edge">
<title>Node12&#45;&gt;Node13</title>
<g id="a_edge13_Node000012_Node000013"><a xlink:title=" ">
<path fill="none" stroke="#63b8ff" d="M591.06,-110.09C602.46,-102.21 619.23,-90.61 632.74,-81.27"/>
<polygon fill="#63b8ff" stroke="#63b8ff" points="634.4,-84.38 640.63,-75.81 630.41,-78.62 634.4,-84.38"/>
</a>
</g>
</g>
<!-- Node14 -->
<g id="Node000014" class="node">
<title>Node14</title>
<g id="a_Node000014"><a target="_parent" xlink:href="http://en.cppreference.com/w/cpp/header/vector.html" xlink:title=" ">
<polygon fill="white" stroke="#666666" points="608,-74.5 556,-74.5 556,-55.25 608,-55.25 608,-74.5"/>
<text text-anchor="middle" x="582" y="-61" font-family="ui-monospace,monospace" font-size="10.00">vector</text>
</a>
</g>
</g>
<!-- Node12&#45;&gt;Node14 -->
<g id="edge15_Node000012_Node000014" class="edge">
<title>Node12&#45;&gt;Node14</title>
<g id="a_edge15_Node000012_Node000014"><a xlink:title=" ">
<path fill="none" stroke="#63b8ff" d="M578.66,-110.33C579.16,-103.74 579.85,-94.46 580.48,-86.07"/>
<polygon fill="#63b8ff" stroke="#63b8ff" points="583.95,-86.6 581.21,-76.37 576.97,-86.08 583.95,-86.6"/>
</a>
</g>
</g>
<!-- Node15&#45;&gt;Node6 -->
<g id="edge20_Node000015_Node000006" class="edge">
<title>Node15&#45;&gt;Node6</title>
<g id="a_edge20_Node000015_Node000006"><a xlink:title=" ">
<path fill="none" stroke="#63b8ff" d="M399.88,-110.09C374.88,-101.45 336.92,-88.32 308.85,-78.62"/>
<polygon fill="#63b8ff" stroke="#63b8ff" points="310.28,-75.41 299.68,-75.45 307.99,-82.02 310.28,-75.41"/>
</a>
</g>
</g>
<!-- Node15&#45;&gt;Node9 -->
<g id="edge21_Node000015_Node000009" class="edge">
<title>Node15&#45;&gt;Node9</title>
<g id="a_edge21_Node000015_Node000009"><a xlink:title=" ">
<path fill="none" stroke="#63b8ff" d="M440.59,-110.09C453.44,-102.14 472.41,-90.39 487.57,-81"/>
<polygon fill="#63b8ff" stroke="#63b8ff" points="489.39,-83.99 496.05,-75.75 485.71,-78.04 489.39,-83.99"/>
</a>
</g>
</g>
<!-- Node15&#45;&gt;Node14 -->
<g id="edge22_Node000015_Node000014" class="edge">
<title>Node15&#45;&gt;Node14</title>
<g id="a_edge22_Node000015_Node000014"><a xlink:title=" ">
<path fill="none" stroke="#63b8ff" d="M452.46,-110.09C477.86,-101.42 516.47,-88.25 544.92,-78.53"/>
<polygon fill="#63b8ff" stroke="#63b8ff" points="545.9,-81.9 554.24,-75.35 543.64,-75.27 545.9,-81.9"/>
</a>
</g>
</g>
<!-- Node16 -->
<g id="Node000016" class="node">
<title>Node16</title>
<g id="a_Node000016"><a xlink:href="Pixels_8hpp.html" target="_top" xlink:title="Contains jngl::Pixels class.">
<polygon fill="white" stroke="#666666" points="468,-74.5 392,-74.5 392,-55.25 468,-55.25 468,-74.5"/>
<text text-anchor="middle" x="430" y="-61" font-family="ui-monospace,monospace" font-size="10.00">Pixels.hpp</text>
</a>
</g>
</g>
<!-- Node15&#45;&gt;Node16 -->
<g id="edge17_Node000015_Node000016" class="edge">
<title>Node15&#45;&gt;Node16</title>
<g id="a_edge17_Node000015_Node000016"><a xlink:title=" ">
<path fill="none" stroke="#63b8ff" d="M426.66,-110.33C427.16,-103.74 427.85,-94.46 428.48,-86.07"/>
<polygon fill="#63b8ff" stroke="#63b8ff" points="431.95,-86.6 429.21,-76.37 424.97,-86.08 431.95,-86.6"/>
</a>
</g>
</g>
<!-- Node18 -->
<g id="Node000018" class="node">
<title>Node18</title>
<g id="a_Node000018"><a target="_parent" xlink:href="http://en.cppreference.com/w/cpp/header/array.html" xlink:title=" ">
<polygon fill="white" stroke="#666666" points="374,-74.5 328,-74.5 328,-55.25 374,-55.25 374,-74.5"/>
<text text-anchor="middle" x="351" y="-61" font-family="ui-monospace,monospace" font-size="10.00">array</text>
</a>
</g>
</g>
<!-- Node15&#45;&gt;Node18 -->
<g id="edge19_Node000015_Node000018" class="edge">
<title>Node15&#45;&gt;Node18</title>
<g id="a_edge19_Node000015_Node000018"><a xlink:title=" ">
<path fill="none" stroke="#63b8ff" d="M413.28,-110.09C402.29,-102.29 386.16,-90.84 373.07,-81.54"/>
<polygon fill="#63b8ff" stroke="#63b8ff" points="375.2,-78.76 365.02,-75.83 371.15,-84.47 375.2,-78.76"/>
</a>
</g>
</g>
<!-- Node17 -->
<g id="Node000017" class="node">
<title>Node17</title>
<g id="a_Node000017"><a target="_parent" xlink:href="http://en.cppreference.com/w/cpp/header/cstdint.html" xlink:title=" ">
<polygon fill="white" stroke="#666666" points="459,-19.25 401,-19.25 401,0 459,0 459,-19.25"/>
<text text-anchor="middle" x="430" y="-5.75" font-family="ui-monospace,monospace" font-size="10.00">cstdint</text>
</a>
</g>
</g>
<!-- Node16&#45;&gt;Node17 -->
<g id="edge18_Node000016_Node000017" class="edge">
<title>Node16&#45;&gt;Node17</title>
<g id="a_edge18_Node000016_Node000017"><a xlink:title=" ">
<path fill="none" stroke="#63b8ff" d="M430,-55.08C430,-48.57 430,-39.42 430,-31.12"/>
<polygon fill="#63b8ff" stroke="#63b8ff" points="433.5,-31.12 430,-21.12 426.5,-31.12 433.5,-31.12"/>
</a>
</g>
</g>
<!-- Node19&#45;&gt;Node9 -->
<g id="edge24_Node000019_Node000009" class="edge">
<title>Node19&#45;&gt;Node9</title>
<g id="a_edge24_Node000019_Node000009"><a xlink:title=" ">
<path fill="none" stroke="#63b8ff" d="M512,-165.5C512,-148.25 512,-109.83 512,-86.06"/>
<polygon fill="#63b8ff" stroke="#63b8ff" points="515.5,-86.39 512,-76.39 508.5,-86.39 515.5,-86.39"/>
</a>
</g>
</g>
</g>
</svg>
