<?xml version="1.0" encoding="UTF-8" standalone="no"?>
<!DOCTYPE svg PUBLIC "-//W3C//DTD SVG 1.1//EN"
 "http://www.w3.org/Graphics/SVG/1.1/DTD/svg11.dtd">
<!-- Generated by graphviz version 2.40.1 (0)
 -->
<!-- Title: jngl/input.hpp Pages: 1 -->
<svg width="272pt" height="140pt"
 viewBox="0.00 0.00 271.50 140.00" xmlns="http://www.w3.org/2000/svg" xmlns:xlink="http://www.w3.org/1999/xlink">
<g id="graph0" class="graph" transform="scale(1 1) rotate(0) translate(4 136)">
<title>jngl/input.hpp</title>
<polygon fill="#ffffff" stroke="transparent" points="-4,4 -4,-136 267.5,-136 267.5,4 -4,4"/>
<!-- Node0 -->
<g id="node1" class="node">
<title>Node0</title>
<polygon fill="#bfbfbf" stroke="#000000" points="98,-112.5 98,-131.5 174,-131.5 174,-112.5 98,-112.5"/>
<text text-anchor="middle" x="136" y="-119.5" font-family="Lato" font-size="10.00" fill="#000000">jngl/input.hpp</text>
</g>
<!-- Node1 -->
<g id="node2" class="node">
<title>Node1</title>
<g id="a_node2"><a xlink:href="dll_8hpp_source.html" target="_top" xlink:title="dll.hpp">
<polygon fill="#ffffff" stroke="#000000" points="0,-.5 0,-19.5 44,-19.5 44,-.5 0,-.5"/>
<text text-anchor="middle" x="22" y="-7.5" font-family="Lato" font-size="10.00" fill="#000000">dll.hpp</text>
</a>
</g>
</g>
<!-- Node0&#45;&gt;Node1 -->
<g id="edge1" class="edge">
<title>Node0&#45;&gt;Node1</title>
<path fill="none" stroke="#191970" d="M116.6599,-112.376C101.4278,-104.1514 80.2862,-91.2472 65,-76 51.1314,-62.1667 39.3208,-43.1518 31.6069,-29.0841"/>
<polygon fill="#191970" stroke="#191970" points="34.5033,-27.073 26.7431,-19.8598 28.3113,-30.338 34.5033,-27.073"/>
</g>
<!-- Node2 -->
<g id="node3" class="node">
<title>Node2</title>
<g id="a_node3"><a xlink:href="Vec2_8hpp.html" target="_top" xlink:title="Vec2.hpp">
<polygon fill="#ffffff" stroke="#000000" points="74,-56.5 74,-75.5 130,-75.5 130,-56.5 74,-56.5"/>
<text text-anchor="middle" x="102" y="-63.5" font-family="Lato" font-size="10.00" fill="#000000">Vec2.hpp</text>
</a>
</g>
</g>
<!-- Node0&#45;&gt;Node2 -->
<g id="edge2" class="edge">
<title>Node0&#45;&gt;Node2</title>
<path fill="none" stroke="#191970" d="M130.0777,-112.2455C125.3973,-104.5367 118.7327,-93.5598 113.0711,-84.2348"/>
<polygon fill="#191970" stroke="#191970" points="116.0361,-82.3741 107.8545,-75.6427 110.0525,-86.007 116.0361,-82.3741"/>
</g>
<!-- Node5 -->
<g id="node6" class="node">
<title>Node5</title>
<polygon fill="#ffffff" stroke="#bfbfbf" points="148,-56.5 148,-75.5 192,-75.5 192,-56.5 148,-56.5"/>
<text text-anchor="middle" x="170" y="-63.5" font-family="Lato" font-size="10.00" fill="#000000">vector</text>
</g>
<!-- Node0&#45;&gt;Node5 -->
<g id="edge6" class="edge">
<title>Node0&#45;&gt;Node5</title>
<path fill="none" stroke="#191970" d="M141.9223,-112.2455C146.6027,-104.5367 153.2673,-93.5598 158.9289,-84.2348"/>
<polygon fill="#191970" stroke="#191970" points="161.9475,-86.007 164.1455,-75.6427 155.9639,-82.3741 161.9475,-86.007"/>
</g>
<!-- Node6 -->
<g id="node7" class="node">
<title>Node6</title>
<polygon fill="#ffffff" stroke="#bfbfbf" points="210.5,-56.5 210.5,-75.5 263.5,-75.5 263.5,-56.5 210.5,-56.5"/>
<text text-anchor="middle" x="237" y="-63.5" font-family="Lato" font-size="10.00" fill="#000000">memory</text>
</g>
<!-- Node0&#45;&gt;Node6 -->
<g id="edge7" class="edge">
<title>Node0&#45;&gt;Node6</title>
<path fill="none" stroke="#191970" d="M153.5929,-112.2455C169.379,-103.4928 192.7639,-90.527 210.7587,-80.5496"/>
<polygon fill="#191970" stroke="#191970" points="212.5603,-83.5528 219.6087,-75.6427 209.1659,-77.4308 212.5603,-83.5528"/>
</g>
<!-- Node2&#45;&gt;Node1 -->
<g id="edge3" class="edge">
<title>Node2&#45;&gt;Node1</title>
<path fill="none" stroke="#191970" d="M88.0651,-56.2455C75.9053,-47.7337 58.0536,-35.2375 43.9715,-25.3801"/>
<polygon fill="#191970" stroke="#191970" points="45.9747,-22.51 35.7752,-19.6427 41.9605,-28.2447 45.9747,-22.51"/>
</g>
<!-- Node3 -->
<g id="node4" class="node">
<title>Node3</title>
<polygon fill="#ffffff" stroke="#bfbfbf" points="62.5,-.5 62.5,-19.5 157.5,-19.5 157.5,-.5 62.5,-.5"/>
<text text-anchor="middle" x="110" y="-7.5" font-family="Lato" font-size="10.00" fill="#000000">boost/version.hpp</text>
</g>
<!-- Node2&#45;&gt;Node3 -->
<g id="edge4" class="edge">
<title>Node2&#45;&gt;Node3</title>
<path fill="none" stroke="#191970" d="M103.3935,-56.2455C104.4374,-48.9382 105.9008,-38.6944 107.1851,-29.7046"/>
<polygon fill="#191970" stroke="#191970" points="110.673,-30.0372 108.6225,-19.6427 103.7434,-29.0472 110.673,-30.0372"/>
</g>
<!-- Node4 -->
<g id="node5" class="node">
<title>Node4</title>
<polygon fill="#ffffff" stroke="#bfbfbf" points="175.5,-.5 175.5,-19.5 220.5,-19.5 220.5,-.5 175.5,-.5"/>
<text text-anchor="middle" x="198" y="-7.5" font-family="Lato" font-size="10.00" fill="#000000">iosfwd</text>
</g>
<!-- Node2&#45;&gt;Node4 -->
<g id="edge5" class="edge">
<title>Node2&#45;&gt;Node4</title>
<path fill="none" stroke="#191970" d="M118.7219,-56.2455C133.5889,-47.5731 155.5466,-34.7645 172.5858,-24.825"/>
<polygon fill="#191970" stroke="#191970" points="174.5955,-27.7047 181.4697,-19.6427 171.0683,-21.6582 174.5955,-27.7047"/>
</g>
</g>
</svg>
