<?xml version="1.0" encoding="UTF-8" standalone="no"?>
<!DOCTYPE svg PUBLIC "-//W3C//DTD SVG 1.1//EN"
 "http://www.w3.org/Graphics/SVG/1.1/DTD/svg11.dtd">
<!-- Generated by graphviz version 5.0.0 (0)
 -->
<!-- Title: jngl/input.hpp Pages: 1 -->
<svg width="171pt" height="192pt"
 viewBox="0.00 0.00 171.00 192.00" xmlns="http://www.w3.org/2000/svg" xmlns:xlink="http://www.w3.org/1999/xlink">
<g id="graph0" class="graph" transform="scale(1 1) rotate(0) translate(4 188)">
<title>jngl/input.hpp</title>
<!-- Node1 -->
<g id="node1" class="node">
<title>Node1</title>
<g id="a_node1"><a xlink:title="Input related functions.">
<polygon fill="#999999" stroke="#666666" points="163,-184 62,-184 62,-165 163,-165 163,-184"/>
<text text-anchor="middle" x="112.5" y="-172" font-family="ui-monospace,monospace" font-size="10.00">jngl/input.hpp</text>
</a>
</g>
</g>
<!-- Node2 -->
<g id="node2" class="node">
<title>Node2</title>
<g id="a_node2"><a xlink:href="Controller_8hpp.html" target="_top" xlink:title="Contains jngl::Controller class.">
<polygon fill="white" stroke="#666666" points="131,-129 0,-129 0,-110 131,-110 131,-129"/>
<text text-anchor="middle" x="65.5" y="-117" font-family="ui-monospace,monospace" font-size="10.00">jngl/Controller.hpp</text>
</a>
</g>
</g>
<!-- Node1&#45;&gt;Node2 -->
<g id="edge1" class="edge">
<title>Node1&#45;&gt;Node2</title>
<path fill="none" stroke="#63b8ff" d="M98.08,-157.24C89.84,-147.95 79.85,-136.68 73.12,-129.09"/>
<polygon fill="#63b8ff" stroke="#63b8ff" points="95.49,-159.59 104.74,-164.75 100.72,-154.94 95.49,-159.59"/>
</g>
<!-- Node3 -->
<g id="node3" class="node">
<title>Node3</title>
<g id="a_node3"><a xlink:href="all_8hpp.html" target="_top" xlink:title="Includes all JNGL headers except for init.hpp.">
<polygon fill="white" stroke="#666666" points="157,-74 68,-74 68,-55 157,-55 157,-74"/>
<text text-anchor="middle" x="112.5" y="-62" font-family="ui-monospace,monospace" font-size="10.00">jngl/all.hpp</text>
</a>
</g>
</g>
<!-- Node1&#45;&gt;Node3 -->
<g id="edge4" class="edge">
<title>Node1&#45;&gt;Node3</title>
<path fill="none" stroke="#63b8ff" d="M126.22,-156.71C131.82,-148.8 137.63,-138.94 140.5,-129 146.38,-108.63 130.94,-86.25 120.72,-74.26"/>
<polygon fill="#63b8ff" stroke="#63b8ff" points="123.42,-154.61 120.17,-164.7 129,-158.84 123.42,-154.61"/>
</g>
<!-- Node2&#45;&gt;Node3 -->
<g id="edge2" class="edge">
<title>Node2&#45;&gt;Node3</title>
<path fill="none" stroke="#63b8ff" d="M79.92,-102.24C88.16,-92.95 98.15,-81.68 104.88,-74.09"/>
<polygon fill="#63b8ff" stroke="#63b8ff" points="77.28,-99.94 73.26,-109.75 82.51,-104.59 77.28,-99.94"/>
</g>
<!-- Node4 -->
<g id="node4" class="node">
<title>Node4</title>
<g id="a_node4"><a xlink:href="jngl_8hpp.html" target="_top" xlink:title="Includes jngl/all.hpp.">
<polygon fill="white" stroke="#666666" points="145,-19 80,-19 80,0 145,0 145,-19"/>
<text text-anchor="middle" x="112.5" y="-7" font-family="ui-monospace,monospace" font-size="10.00">jngl.hpp</text>
</a>
</g>
</g>
<!-- Node3&#45;&gt;Node4 -->
<g id="edge3" class="edge">
<title>Node3&#45;&gt;Node4</title>
<path fill="none" stroke="#63b8ff" d="M112.5,-44.66C112.5,-35.93 112.5,-25.99 112.5,-19.09"/>
<polygon fill="#63b8ff" stroke="#63b8ff" points="109,-44.75 112.5,-54.75 116,-44.75 109,-44.75"/>
</g>
</g>
</svg>
