<?xml version="1.0" encoding="UTF-8" standalone="no"?>
<!DOCTYPE svg PUBLIC "-//W3C//DTD SVG 1.1//EN"
 "http://www.w3.org/Graphics/SVG/1.1/DTD/svg11.dtd">
<!-- Generated by graphviz version 2.36.0 (20140111.2315)
 -->
<!-- Title: jngl/input.hpp Pages: 1 -->
<svg width="139pt" height="196pt"
 viewBox="0.00 0.00 139.00 196.00" xmlns="http://www.w3.org/2000/svg" xmlns:xlink="http://www.w3.org/1999/xlink">
<g id="graph0" class="graph" transform="scale(1 1) rotate(0) translate(4 192)">
<title>jngl/input.hpp</title>
<polygon fill="white" stroke="none" points="-4,4 -4,-192 135,-192 135,4 -4,4"/>
<!-- Node1 -->
<g id="node1" class="node"><title>Node1</title>
<polygon fill="#bfbfbf" stroke="black" points="50.5,-168.5 50.5,-187.5 131.5,-187.5 131.5,-168.5 50.5,-168.5"/>
<text text-anchor="middle" x="91" y="-175.5" font-family="Lato" font-size="10.00">jngl/input.hpp</text>
</g>
<!-- Node2 -->
<g id="node2" class="node"><title>Node2</title>
<g id="a_node2"><a xlink:href="Controller_8hpp_source.html" target="_top" xlink:title="jngl/Controller.hpp">
<polygon fill="white" stroke="black" points="-0.5,-112.5 -0.5,-131.5 102.5,-131.5 102.5,-112.5 -0.5,-112.5"/>
<text text-anchor="middle" x="51" y="-119.5" font-family="Lato" font-size="10.00">jngl/Controller.hpp</text>
</a>
</g>
</g>
<!-- Node1&#45;&gt;Node2 -->
<g id="edge1" class="edge"><title>Node1&#45;&gt;Node2</title>
<path fill="none" stroke="midnightblue" d="M78.3003,-159.855C71.374,-150.505 63.0937,-139.327 57.4823,-131.751"/>
<polygon fill="midnightblue" stroke="midnightblue" points="75.63,-162.131 84.3948,-168.083 81.255,-157.964 75.63,-162.131"/>
</g>
<!-- Node3 -->
<g id="node3" class="node"><title>Node3</title>
<g id="a_node3"><a xlink:href="all_8hpp.html" target="_top" xlink:title="Includes all JNGL headers. ">
<polygon fill="white" stroke="black" points="57,-56.5 57,-75.5 125,-75.5 125,-56.5 57,-56.5"/>
<text text-anchor="middle" x="91" y="-63.5" font-family="Lato" font-size="10.00">jngl/all.hpp</text>
</a>
</g>
</g>
<!-- Node1&#45;&gt;Node3 -->
<g id="edge4" class="edge"><title>Node1&#45;&gt;Node3</title>
<path fill="none" stroke="midnightblue" d="M101.458,-159.525C107.961,-146.566 114.477,-128.382 111,-112 108.16,-98.619 101.058,-84.3861 96.1302,-75.5932"/>
<polygon fill="midnightblue" stroke="midnightblue" points="98.3859,-157.848 96.6537,-168.3 104.526,-161.209 98.3859,-157.848"/>
</g>
<!-- Node2&#45;&gt;Node3 -->
<g id="edge2" class="edge"><title>Node2&#45;&gt;Node3</title>
<path fill="none" stroke="midnightblue" d="M63.6997,-103.855C70.626,-94.5048 78.9063,-83.3265 84.5177,-75.7511"/>
<polygon fill="midnightblue" stroke="midnightblue" points="60.745,-101.964 57.6052,-112.083 66.37,-106.131 60.745,-101.964"/>
</g>
<!-- Node4 -->
<g id="node4" class="node"><title>Node4</title>
<g id="a_node4"><a xlink:href="jngl_8hpp_source.html" target="_top" xlink:title="jngl.hpp">
<polygon fill="white" stroke="black" points="64,-0.5 64,-19.5 118,-19.5 118,-0.5 64,-0.5"/>
<text text-anchor="middle" x="91" y="-7.5" font-family="Lato" font-size="10.00">jngl.hpp</text>
</a>
</g>
</g>
<!-- Node3&#45;&gt;Node4 -->
<g id="edge3" class="edge"><title>Node3&#45;&gt;Node4</title>
<path fill="none" stroke="midnightblue" d="M91,-45.8045C91,-36.9102 91,-26.7798 91,-19.7511"/>
<polygon fill="midnightblue" stroke="midnightblue" points="87.5001,-46.083 91,-56.083 94.5001,-46.083 87.5001,-46.083"/>
</g>
</g>
</svg>
