<?xml version="1.0" encoding="UTF-8" standalone="no"?>
<!DOCTYPE svg PUBLIC "-//W3C//DTD SVG 1.1//EN"
 "http://www.w3.org/Graphics/SVG/1.1/DTD/svg11.dtd">
<!-- Generated by graphviz version 2.40.1 (20161225.0304)
 -->
<!-- Title: jngl/input.hpp Pages: 1 -->
<svg width="402pt" height="140pt"
 viewBox="0.00 0.00 402.00 140.00" xmlns="http://www.w3.org/2000/svg" xmlns:xlink="http://www.w3.org/1999/xlink">
<g id="graph0" class="graph" transform="scale(1 1) rotate(0) translate(4 136)">
<title>jngl/input.hpp</title>
<polygon fill="#ffffff" stroke="transparent" points="-4,4 -4,-136 398,-136 398,4 -4,4"/>
<!-- Node0 -->
<g id="node1" class="node">
<title>Node0</title>
<polygon fill="#bfbfbf" stroke="#000000" points="163,-112.5 163,-131.5 264,-131.5 264,-112.5 163,-112.5"/>
<text text-anchor="middle" x="213.5" y="-119.5" font-family="'Consolas',monospace" font-size="10.00" fill="#000000">jngl/input.hpp</text>
</g>
<!-- Node1 -->
<g id="node2" class="node">
<title>Node1</title>
<g id="a_node2"><a xlink:href="dll_8hpp_source.html" target="_top" xlink:title="dll.hpp">
<polygon fill="#ffffff" stroke="#000000" points="0,-.5 0,-19.5 59,-19.5 59,-.5 0,-.5"/>
<text text-anchor="middle" x="29.5" y="-7.5" font-family="'Consolas',monospace" font-size="10.00" fill="#000000">dll.hpp</text>
</a>
</g>
</g>
<!-- Node0&#45;&gt;Node1 -->
<g id="edge1" class="edge">
<title>Node0&#45;&gt;Node1</title>
<path fill="none" stroke="#191970" d="M167.1974,-112.4513C140.6895,-105.415 107.7819,-93.8949 82.5,-76 64.7889,-63.4638 49.8767,-43.4322 40.4269,-28.7221"/>
<polygon fill="#191970" stroke="#191970" points="43.2538,-26.6376 35.0313,-19.9562 37.2925,-30.3069 43.2538,-26.6376"/>
</g>
<!-- Node2 -->
<g id="node3" class="node">
<title>Node2</title>
<g id="a_node3"><a xlink:href="Vec2_8hpp.html" target="_top" xlink:title="Vec2.hpp">
<polygon fill="#ffffff" stroke="#000000" points="92,-56.5 92,-75.5 157,-75.5 157,-56.5 92,-56.5"/>
<text text-anchor="middle" x="124.5" y="-63.5" font-family="'Consolas',monospace" font-size="10.00" fill="#000000">Vec2.hpp</text>
</a>
</g>
</g>
<!-- Node0&#45;&gt;Node2 -->
<g id="edge2" class="edge">
<title>Node0&#45;&gt;Node2</title>
<path fill="none" stroke="#191970" d="M197.9974,-112.2455C184.342,-103.6534 164.2343,-91.0014 148.5011,-81.1018"/>
<polygon fill="#191970" stroke="#191970" points="150.1529,-78.006 139.825,-75.6427 146.4249,-83.9307 150.1529,-78.006"/>
</g>
<!-- Node5 -->
<g id="node6" class="node">
<title>Node5</title>
<g id="a_node6"><a doxygen="/home/travis/build/jhasse/jngl/doc/cppreference-doxygen-web.tag.xml:http://en.cppreference.com/w/" xlink:href="http://en.cppreference.com/w/cpp/header/functional.html" target="_top" xlink:title="functional">
<polygon fill="#ffffff" stroke="#000000" points="175,-56.5 175,-75.5 252,-75.5 252,-56.5 175,-56.5"/>
<text text-anchor="middle" x="213.5" y="-63.5" font-family="'Consolas',monospace" font-size="10.00" fill="#000000">functional</text>
</a>
</g>
</g>
<!-- Node0&#45;&gt;Node5 -->
<g id="edge6" class="edge">
<title>Node0&#45;&gt;Node5</title>
<path fill="none" stroke="#191970" d="M213.5,-112.2455C213.5,-104.9382 213.5,-94.6944 213.5,-85.7046"/>
<polygon fill="#191970" stroke="#191970" points="217.0001,-85.6426 213.5,-75.6427 210.0001,-85.6427 217.0001,-85.6426"/>
</g>
<!-- Node6 -->
<g id="node7" class="node">
<title>Node6</title>
<g id="a_node7"><a doxygen="/home/travis/build/jhasse/jngl/doc/cppreference-doxygen-web.tag.xml:http://en.cppreference.com/w/" xlink:href="http://en.cppreference.com/w/cpp/header/vector.html" target="_top" xlink:title="vector">
<polygon fill="#ffffff" stroke="#000000" points="270,-56.5 270,-75.5 323,-75.5 323,-56.5 270,-56.5"/>
<text text-anchor="middle" x="296.5" y="-63.5" font-family="'Consolas',monospace" font-size="10.00" fill="#000000">vector</text>
</a>
</g>
</g>
<!-- Node0&#45;&gt;Node6 -->
<g id="edge7" class="edge">
<title>Node0&#45;&gt;Node6</title>
<path fill="none" stroke="#191970" d="M227.9575,-112.2455C240.5732,-103.7337 259.0944,-91.2375 273.7045,-81.3801"/>
<polygon fill="#191970" stroke="#191970" points="275.8761,-84.1371 282.2082,-75.6427 271.9609,-78.3343 275.8761,-84.1371"/>
</g>
<!-- Node7 -->
<g id="node8" class="node">
<title>Node7</title>
<g id="a_node8"><a doxygen="/home/travis/build/jhasse/jngl/doc/cppreference-doxygen-web.tag.xml:http://en.cppreference.com/w/" xlink:href="http://en.cppreference.com/w/cpp/header/memory.html" target="_top" xlink:title="memory">
<polygon fill="#ffffff" stroke="#000000" points="341,-56.5 341,-75.5 394,-75.5 394,-56.5 341,-56.5"/>
<text text-anchor="middle" x="367.5" y="-63.5" font-family="'Consolas',monospace" font-size="10.00" fill="#000000">memory</text>
</a>
</g>
</g>
<!-- Node0&#45;&gt;Node7 -->
<g id="edge8" class="edge">
<title>Node0&#45;&gt;Node7</title>
<path fill="none" stroke="#191970" d="M239.9735,-112.3733C265.3597,-103.1419 303.8645,-89.1402 331.922,-78.9375"/>
<polygon fill="#191970" stroke="#191970" points="333.1701,-82.2079 341.3719,-75.5011 330.7778,-75.6293 333.1701,-82.2079"/>
</g>
<!-- Node2&#45;&gt;Node1 -->
<g id="edge3" class="edge">
<title>Node2&#45;&gt;Node1</title>
<path fill="none" stroke="#191970" d="M107.9523,-56.2455C93.2401,-47.5731 71.5112,-34.7645 54.6495,-24.825"/>
<polygon fill="#191970" stroke="#191970" points="56.2502,-21.7057 45.8581,-19.6427 52.6954,-27.736 56.2502,-21.7057"/>
</g>
<!-- Node3 -->
<g id="node4" class="node">
<title>Node3</title>
<polygon fill="#ffffff" stroke="#bfbfbf" points="77,-.5 77,-19.5 196,-19.5 196,-.5 77,-.5"/>
<text text-anchor="middle" x="136.5" y="-7.5" font-family="'Consolas',monospace" font-size="10.00" fill="#000000">boost/version.hpp</text>
</g>
<!-- Node2&#45;&gt;Node3 -->
<g id="edge4" class="edge">
<title>Node2&#45;&gt;Node3</title>
<path fill="none" stroke="#191970" d="M126.5902,-56.2455C128.1561,-48.9382 130.3512,-38.6944 132.2776,-29.7046"/>
<polygon fill="#191970" stroke="#191970" points="135.7607,-30.1541 134.4337,-19.6427 128.916,-28.6873 135.7607,-30.1541"/>
</g>
<!-- Node4 -->
<g id="node5" class="node">
<title>Node4</title>
<g id="a_node5"><a doxygen="/home/travis/build/jhasse/jngl/doc/cppreference-doxygen-web.tag.xml:http://en.cppreference.com/w/" xlink:href="http://en.cppreference.com/w/cpp/header/iosfwd.html" target="_top" xlink:title="iosfwd">
<polygon fill="#ffffff" stroke="#000000" points="214,-.5 214,-19.5 267,-19.5 267,-.5 214,-.5"/>
<text text-anchor="middle" x="240.5" y="-7.5" font-family="'Consolas',monospace" font-size="10.00" fill="#000000">iosfwd</text>
</a>
</g>
</g>
<!-- Node2&#45;&gt;Node4 -->
<g id="edge5" class="edge">
<title>Node2&#45;&gt;Node4</title>
<path fill="none" stroke="#191970" d="M144.4411,-56.3733C162.9786,-47.4241 190.8028,-33.9917 211.7413,-23.8835"/>
<polygon fill="#191970" stroke="#191970" points="213.3352,-27.0006 220.8191,-19.5011 210.2919,-20.6967 213.3352,-27.0006"/>
</g>
</g>
</svg>
