<?xml version="1.0" encoding="UTF-8" standalone="no"?>
<!DOCTYPE svg PUBLIC "-//W3C//DTD SVG 1.1//EN"
 "http://www.w3.org/Graphics/SVG/1.1/DTD/svg11.dtd">
<!-- Generated by graphviz version 2.38.0 (20140413.2041)
 -->
<!-- Title: jngl/input.hpp Pages: 1 -->
<svg width="307pt" height="140pt"
 viewBox="0.00 0.00 307.00 140.00" xmlns="http://www.w3.org/2000/svg" xmlns:xlink="http://www.w3.org/1999/xlink">
<g id="graph0" class="graph" transform="scale(1 1) rotate(0) translate(4 136)">
<title>jngl/input.hpp</title>
<polygon fill="white" stroke="none" points="-4,4 -4,-136 303,-136 303,4 -4,4"/>
<!-- Node1 -->
<g id="node1" class="node"><title>Node1</title>
<polygon fill="#bfbfbf" stroke="black" points="112,-112.5 112,-131.5 213,-131.5 213,-112.5 112,-112.5"/>
<text text-anchor="middle" x="162.5" y="-119.5" font-family="'Consolas',monospace" font-size="10.00">jngl/input.hpp</text>
</g>
<!-- Node2 -->
<g id="node2" class="node"><title>Node2</title>
<g id="a_node2"><a xlink:href="dll_8hpp_source.html" target="_top" xlink:title="dll.hpp">
<polygon fill="white" stroke="black" points="0,-0.5 0,-19.5 59,-19.5 59,-0.5 0,-0.5"/>
<text text-anchor="middle" x="29.5" y="-7.5" font-family="'Consolas',monospace" font-size="10.00">dll.hpp</text>
</a>
</g>
</g>
<!-- Node1&#45;&gt;Node2 -->
<g id="edge1" class="edge"><title>Node1&#45;&gt;Node2</title>
<path fill="none" stroke="midnightblue" d="M142.794,-112.476C125.761,-104.536 101.033,-91.5961 82.5,-76 65.8674,-62.0029 50.6089,-42.2245 40.7786,-28.1686"/>
<polygon fill="midnightblue" stroke="midnightblue" points="43.6587,-26.1796 35.1428,-19.8765 37.8693,-30.1145 43.6587,-26.1796"/>
</g>
<!-- Node3 -->
<g id="node3" class="node"><title>Node3</title>
<g id="a_node3"><a xlink:href="Vec2_8hpp.html" target="_top" xlink:title="Vec2.hpp">
<polygon fill="white" stroke="black" points="92,-56.5 92,-75.5 157,-75.5 157,-56.5 92,-56.5"/>
<text text-anchor="middle" x="124.5" y="-63.5" font-family="'Consolas',monospace" font-size="10.00">Vec2.hpp</text>
</a>
</g>
</g>
<!-- Node1&#45;&gt;Node3 -->
<g id="edge2" class="edge"><title>Node1&#45;&gt;Node3</title>
<path fill="none" stroke="midnightblue" d="M156.225,-112.083C150.858,-104.455 142.982,-93.2645 136.421,-83.9408"/>
<polygon fill="midnightblue" stroke="midnightblue" points="139.275,-81.9149 130.658,-75.7511 133.551,-85.9434 139.275,-81.9149"/>
</g>
<!-- Node6 -->
<g id="node6" class="node"><title>Node6</title>
<polygon fill="white" stroke="#bfbfbf" points="175,-56.5 175,-75.5 228,-75.5 228,-56.5 175,-56.5"/>
<text text-anchor="middle" x="201.5" y="-63.5" font-family="'Consolas',monospace" font-size="10.00">vector</text>
</g>
<!-- Node1&#45;&gt;Node6 -->
<g id="edge6" class="edge"><title>Node1&#45;&gt;Node6</title>
<path fill="none" stroke="midnightblue" d="M168.94,-112.083C174.449,-104.455 182.531,-93.2645 189.265,-83.9408"/>
<polygon fill="midnightblue" stroke="midnightblue" points="192.162,-85.9071 195.18,-75.7511 186.487,-81.8087 192.162,-85.9071"/>
</g>
<!-- Node7 -->
<g id="node7" class="node"><title>Node7</title>
<polygon fill="white" stroke="#bfbfbf" points="246,-56.5 246,-75.5 299,-75.5 299,-56.5 246,-56.5"/>
<text text-anchor="middle" x="272.5" y="-63.5" font-family="'Consolas',monospace" font-size="10.00">memory</text>
</g>
<!-- Node1&#45;&gt;Node7 -->
<g id="edge7" class="edge"><title>Node1&#45;&gt;Node7</title>
<path fill="none" stroke="midnightblue" d="M180.173,-112.324C197.894,-103.625 225.403,-90.1202 245.788,-80.113"/>
<polygon fill="midnightblue" stroke="midnightblue" points="247.436,-83.2031 254.87,-75.6545 244.351,-76.9195 247.436,-83.2031"/>
</g>
<!-- Node3&#45;&gt;Node2 -->
<g id="edge3" class="edge"><title>Node3&#45;&gt;Node2</title>
<path fill="none" stroke="midnightblue" d="M109.237,-56.324C94.2786,-47.8215 71.2452,-34.7288 53.7733,-24.7975"/>
<polygon fill="midnightblue" stroke="midnightblue" points="55.1488,-21.5534 44.7255,-19.6545 51.6896,-27.639 55.1488,-21.5534"/>
</g>
<!-- Node4 -->
<g id="node4" class="node"><title>Node4</title>
<polygon fill="white" stroke="#bfbfbf" points="77,-0.5 77,-19.5 196,-19.5 196,-0.5 77,-0.5"/>
<text text-anchor="middle" x="136.5" y="-7.5" font-family="'Consolas',monospace" font-size="10.00">boost/version.hpp</text>
</g>
<!-- Node3&#45;&gt;Node4 -->
<g id="edge4" class="edge"><title>Node3&#45;&gt;Node4</title>
<path fill="none" stroke="midnightblue" d="M126.482,-56.083C128.072,-48.9272 130.359,-38.6353 132.346,-29.6911"/>
<polygon fill="midnightblue" stroke="midnightblue" points="135.803,-30.2722 134.555,-19.7511 128.969,-28.7537 135.803,-30.2722"/>
</g>
<!-- Node5 -->
<g id="node5" class="node"><title>Node5</title>
<polygon fill="white" stroke="#bfbfbf" points="214,-0.5 214,-19.5 267,-19.5 267,-0.5 214,-0.5"/>
<text text-anchor="middle" x="240.5" y="-7.5" font-family="'Consolas',monospace" font-size="10.00">iosfwd</text>
</g>
<!-- Node3&#45;&gt;Node5 -->
<g id="edge5" class="edge"><title>Node3&#45;&gt;Node5</title>
<path fill="none" stroke="midnightblue" d="M142.881,-56.4435C161.716,-47.6751 191.231,-33.9355 212.879,-23.8579"/>
<polygon fill="midnightblue" stroke="midnightblue" points="214.617,-26.9098 222.205,-19.5164 211.662,-20.5637 214.617,-26.9098"/>
</g>
</g>
</svg>
