<?xml version="1.0" encoding="UTF-8" standalone="no"?>
<!DOCTYPE svg PUBLIC "-//W3C//DTD SVG 1.1//EN"
 "http://www.w3.org/Graphics/SVG/1.1/DTD/svg11.dtd">
<!-- Generated by graphviz version 2.40.1 (0)
 -->
<!-- Title: jngl/input.hpp Pages: 1 -->
<svg width="280pt" height="140pt"
 viewBox="0.00 0.00 280.00 140.00" xmlns="http://www.w3.org/2000/svg" xmlns:xlink="http://www.w3.org/1999/xlink">
<g id="graph0" class="graph" transform="scale(1 1) rotate(0) translate(4 136)">
<title>jngl/input.hpp</title>
<polygon fill="#ffffff" stroke="transparent" points="-4,4 -4,-136 276,-136 276,4 -4,4"/>
<!-- Node0 -->
<g id="node1" class="node">
<title>Node0</title>
<polygon fill="#bfbfbf" stroke="#000000" points="102,-112.5 102,-131.5 181,-131.5 181,-112.5 102,-112.5"/>
<text text-anchor="middle" x="141.5" y="-119.5" font-family="Lato" font-size="10.00" fill="#000000">jngl/input.hpp</text>
</g>
<!-- Node1 -->
<g id="node2" class="node">
<title>Node1</title>
<g id="a_node2"><a xlink:href="dll_8hpp_source.html" target="_top" xlink:title="dll.hpp">
<polygon fill="#ffffff" stroke="#000000" points="0,-.5 0,-19.5 47,-19.5 47,-.5 0,-.5"/>
<text text-anchor="middle" x="23.5" y="-7.5" font-family="Lato" font-size="10.00" fill="#000000">dll.hpp</text>
</a>
</g>
</g>
<!-- Node0&#45;&gt;Node1 -->
<g id="edge1" class="edge">
<title>Node0&#45;&gt;Node1</title>
<path fill="none" stroke="#191970" d="M121.3645,-112.498C105.5011,-104.3424 83.4721,-91.4715 67.5,-76 53.1945,-62.1428 41.0095,-42.8781 33.1149,-28.7384"/>
<polygon fill="#191970" stroke="#191970" points="36.1798,-27.0478 28.3615,-19.8977 30.0144,-30.3628 36.1798,-27.0478"/>
</g>
<!-- Node2 -->
<g id="node3" class="node">
<title>Node2</title>
<g id="a_node3"><a xlink:href="Vec2_8hpp.html" target="_top" xlink:title="Vec2.hpp">
<polygon fill="#ffffff" stroke="#000000" points="76.5,-56.5 76.5,-75.5 136.5,-75.5 136.5,-56.5 76.5,-56.5"/>
<text text-anchor="middle" x="106.5" y="-63.5" font-family="Lato" font-size="10.00" fill="#000000">Vec2.hpp</text>
</a>
</g>
</g>
<!-- Node0&#45;&gt;Node2 -->
<g id="edge2" class="edge">
<title>Node0&#45;&gt;Node2</title>
<path fill="none" stroke="#191970" d="M135.4035,-112.2455C130.5855,-104.5367 123.7249,-93.5598 117.8968,-84.2348"/>
<polygon fill="#191970" stroke="#191970" points="120.7947,-82.2677 112.5267,-75.6427 114.8587,-85.9777 120.7947,-82.2677"/>
</g>
<!-- Node5 -->
<g id="node6" class="node">
<title>Node5</title>
<polygon fill="#ffffff" stroke="#bfbfbf" points="154.5,-56.5 154.5,-75.5 200.5,-75.5 200.5,-56.5 154.5,-56.5"/>
<text text-anchor="middle" x="177.5" y="-63.5" font-family="Lato" font-size="10.00" fill="#000000">vector</text>
</g>
<!-- Node0&#45;&gt;Node5 -->
<g id="edge6" class="edge">
<title>Node0&#45;&gt;Node5</title>
<path fill="none" stroke="#191970" d="M147.7707,-112.2455C152.7264,-104.5367 159.783,-93.5598 165.7776,-84.2348"/>
<polygon fill="#191970" stroke="#191970" points="168.8376,-85.9471 171.3011,-75.6427 162.9494,-82.1618 168.8376,-85.9471"/>
</g>
<!-- Node6 -->
<g id="node7" class="node">
<title>Node6</title>
<polygon fill="#ffffff" stroke="#bfbfbf" points="219,-56.5 219,-75.5 272,-75.5 272,-56.5 219,-56.5"/>
<text text-anchor="middle" x="245.5" y="-63.5" font-family="Lato" font-size="10.00" fill="#000000">memory</text>
</g>
<!-- Node0&#45;&gt;Node6 -->
<g id="edge7" class="edge">
<title>Node0&#45;&gt;Node6</title>
<path fill="none" stroke="#191970" d="M159.6154,-112.2455C175.945,-103.4527 200.171,-90.4079 218.7339,-80.4125"/>
<polygon fill="#191970" stroke="#191970" points="220.4468,-83.4654 227.5922,-75.6427 217.1281,-77.3021 220.4468,-83.4654"/>
</g>
<!-- Node2&#45;&gt;Node1 -->
<g id="edge3" class="edge">
<title>Node2&#45;&gt;Node1</title>
<path fill="none" stroke="#191970" d="M92.0425,-56.2455C79.4268,-47.7337 60.9056,-35.2375 46.2955,-25.3801"/>
<polygon fill="#191970" stroke="#191970" points="48.0391,-22.3343 37.7918,-19.6427 44.1239,-28.1371 48.0391,-22.3343"/>
</g>
<!-- Node3 -->
<g id="node4" class="node">
<title>Node3</title>
<polygon fill="#ffffff" stroke="#bfbfbf" points="65.5,-.5 65.5,-19.5 165.5,-19.5 165.5,-.5 65.5,-.5"/>
<text text-anchor="middle" x="115.5" y="-7.5" font-family="Lato" font-size="10.00" fill="#000000">boost/version.hpp</text>
</g>
<!-- Node2&#45;&gt;Node3 -->
<g id="edge4" class="edge">
<title>Node2&#45;&gt;Node3</title>
<path fill="none" stroke="#191970" d="M108.0677,-56.2455C109.2421,-48.9382 110.8884,-38.6944 112.3332,-29.7046"/>
<polygon fill="#191970" stroke="#191970" points="115.8191,-30.0714 113.9503,-19.6427 108.9078,-28.9606 115.8191,-30.0714"/>
</g>
<!-- Node4 -->
<g id="node5" class="node">
<title>Node4</title>
<polygon fill="#ffffff" stroke="#bfbfbf" points="184,-.5 184,-19.5 231,-19.5 231,-.5 184,-.5"/>
<text text-anchor="middle" x="207.5" y="-7.5" font-family="Lato" font-size="10.00" fill="#000000">iosfwd</text>
</g>
<!-- Node2&#45;&gt;Node4 -->
<g id="edge5" class="edge">
<title>Node2&#45;&gt;Node4</title>
<path fill="none" stroke="#191970" d="M124.0929,-56.2455C139.879,-47.4928 163.2639,-34.527 181.2587,-24.5496"/>
<polygon fill="#191970" stroke="#191970" points="183.0603,-27.5528 190.1087,-19.6427 179.6659,-21.4308 183.0603,-27.5528"/>
</g>
</g>
</svg>
