<?xml version="1.0" encoding="UTF-8" standalone="no"?>
<!DOCTYPE svg PUBLIC "-//W3C//DTD SVG 1.1//EN"
 "http://www.w3.org/Graphics/SVG/1.1/DTD/svg11.dtd">
<!-- Generated by graphviz version 9.0.0 (20230911.1827)
 -->
<!-- Title: jngl/input.hpp Pages: 1 -->
<svg width="549pt" height="138pt"
 viewBox="0.00 0.00 549.00 137.75" xmlns="http://www.w3.org/2000/svg" xmlns:xlink="http://www.w3.org/1999/xlink">
<g id="graph0" class="graph" transform="scale(1 1) rotate(0) translate(4 133.75)">
<title>jngl/input.hpp</title>
<!-- Node1 -->
<g id="Node000001" class="node">
<title>Node1</title>
<g id="a_Node000001"><a xlink:title="Input related functions.">
<polygon fill="#999999" stroke="#666666" points="335,-129.75 235,-129.75 235,-110.5 335,-110.5 335,-129.75"/>
<text text-anchor="middle" x="285" y="-116.25" font-family="ui-monospace,monospace" font-size="10.00">jngl/input.hpp</text>
</a>
</g>
</g>
<!-- Node2 -->
<g id="Node000002" class="node">
<title>Node2</title>
<g id="a_Node000002"><a xlink:href="Vec2_8hpp.html" target="_top" xlink:title="Contains jngl::Vec2 class.">
<polygon fill="white" stroke="#666666" points="147,-74.5 83,-74.5 83,-55.25 147,-55.25 147,-74.5"/>
<text text-anchor="middle" x="115" y="-61" font-family="ui-monospace,monospace" font-size="10.00">Vec2.hpp</text>
</a>
</g>
</g>
<!-- Node1&#45;&gt;Node2 -->
<g id="edge1_Node000001_Node000002" class="edge">
<title>Node1&#45;&gt;Node2</title>
<g id="a_edge1_Node000001_Node000002"><a xlink:title=" ">
<path fill="none" stroke="#63b8ff" d="M256.16,-110.09C228.32,-101.37 185.93,-88.09 154.86,-78.36"/>
<polygon fill="#63b8ff" stroke="#63b8ff" points="156.01,-75.05 145.42,-75.4 153.92,-81.73 156.01,-75.05"/>
</a>
</g>
</g>
<!-- Node5 -->
<g id="Node000005" class="node">
<title>Node5</title>
<g id="a_Node000005"><a target="_parent" xlink:href="http://en.cppreference.com/w/cpp/header/functional.html" xlink:title=" ">
<polygon fill="white" stroke="#666666" points="241,-74.5 165,-74.5 165,-55.25 241,-55.25 241,-74.5"/>
<text text-anchor="middle" x="203" y="-61" font-family="ui-monospace,monospace" font-size="10.00">functional</text>
</a>
</g>
</g>
<!-- Node1&#45;&gt;Node5 -->
<g id="edge4_Node000001_Node000005" class="edge">
<title>Node1&#45;&gt;Node5</title>
<g id="a_edge4_Node000001_Node000005"><a xlink:title=" ">
<path fill="none" stroke="#63b8ff" d="M271.09,-110.09C258.84,-102.14 240.75,-90.39 226.29,-81"/>
<polygon fill="#63b8ff" stroke="#63b8ff" points="228.54,-78.29 218.25,-75.78 224.73,-84.16 228.54,-78.29"/>
</a>
</g>
</g>
<!-- Node6 -->
<g id="Node000006" class="node">
<title>Node6</title>
<g id="a_Node000006"><a target="_parent" xlink:href="http://en.cppreference.com/w/cpp/header/memory.html" xlink:title=" ">
<polygon fill="white" stroke="#666666" points="311,-74.5 259,-74.5 259,-55.25 311,-55.25 311,-74.5"/>
<text text-anchor="middle" x="285" y="-61" font-family="ui-monospace,monospace" font-size="10.00">memory</text>
</a>
</g>
</g>
<!-- Node1&#45;&gt;Node6 -->
<g id="edge5_Node000001_Node000006" class="edge">
<title>Node1&#45;&gt;Node6</title>
<g id="a_edge5_Node000001_Node000006"><a xlink:title=" ">
<path fill="none" stroke="#63b8ff" d="M285,-110.33C285,-103.82 285,-94.67 285,-86.37"/>
<polygon fill="#63b8ff" stroke="#63b8ff" points="288.5,-86.37 285,-76.37 281.5,-86.37 288.5,-86.37"/>
</a>
</g>
</g>
<!-- Node7 -->
<g id="Node000007" class="node">
<title>Node7</title>
<g id="a_Node000007"><a target="_parent" xlink:href="http://en.cppreference.com/w/cpp/header/vector.html" xlink:title=" ">
<polygon fill="white" stroke="#666666" points="381,-74.5 329,-74.5 329,-55.25 381,-55.25 381,-74.5"/>
<text text-anchor="middle" x="355" y="-61" font-family="ui-monospace,monospace" font-size="10.00">vector</text>
</a>
</g>
</g>
<!-- Node1&#45;&gt;Node7 -->
<g id="edge6_Node000001_Node000007" class="edge">
<title>Node1&#45;&gt;Node7</title>
<g id="a_edge6_Node000001_Node000007"><a xlink:title=" ">
<path fill="none" stroke="#63b8ff" d="M296.87,-110.09C307.09,-102.32 322.07,-90.92 334.26,-81.65"/>
<polygon fill="#63b8ff" stroke="#63b8ff" points="336.26,-84.53 342.1,-75.69 332.02,-78.96 336.26,-84.53"/>
</a>
</g>
</g>
<!-- Node8 -->
<g id="Node000008" class="node">
<title>Node8</title>
<g id="a_Node000008"><a xlink:title=" ">
<polygon fill="#e0e0e0" stroke="#999999" points="541,-74.5 399,-74.5 399,-55.25 541,-55.25 541,-74.5"/>
<text text-anchor="middle" x="470" y="-61" font-family="ui-monospace,monospace" font-size="10.00">experimental/optional</text>
</a>
</g>
</g>
<!-- Node1&#45;&gt;Node8 -->
<g id="edge7_Node000001_Node000008" class="edge">
<title>Node1&#45;&gt;Node8</title>
<g id="a_edge7_Node000001_Node000008"><a xlink:title=" ">
<path fill="none" stroke="#63b8ff" d="M316.38,-110.09C346.95,-101.29 393.62,-87.86 427.51,-78.11"/>
<polygon fill="#63b8ff" stroke="#63b8ff" points="428.37,-81.5 437.01,-75.37 426.43,-74.77 428.37,-81.5"/>
</a>
</g>
</g>
<!-- Node3 -->
<g id="Node000003" class="node">
<title>Node3</title>
<g id="a_Node000003"><a xlink:title=" ">
<polygon fill="#e0e0e0" stroke="#999999" points="124,-19.25 0,-19.25 0,0 124,0 124,-19.25"/>
<text text-anchor="middle" x="62" y="-5.75" font-family="ui-monospace,monospace" font-size="10.00">boost/qvm_lite.hpp</text>
</a>
</g>
</g>
<!-- Node2&#45;&gt;Node3 -->
<g id="edge2_Node000002_Node000003" class="edge">
<title>Node2&#45;&gt;Node3</title>
<g id="a_edge2_Node000002_Node000003"><a xlink:title=" ">
<path fill="none" stroke="#63b8ff" d="M106.25,-55.08C98.85,-47.65 88.04,-36.79 78.95,-27.66"/>
<polygon fill="#63b8ff" stroke="#63b8ff" points="81.54,-25.3 72.01,-20.68 76.58,-30.24 81.54,-25.3"/>
</a>
</g>
</g>
<!-- Node4 -->
<g id="Node000004" class="node">
<title>Node4</title>
<g id="a_Node000004"><a target="_parent" xlink:href="http://en.cppreference.com/w/cpp/header/iosfwd.html" xlink:title=" ">
<polygon fill="white" stroke="#666666" points="194,-19.25 142,-19.25 142,0 194,0 194,-19.25"/>
<text text-anchor="middle" x="168" y="-5.75" font-family="ui-monospace,monospace" font-size="10.00">iosfwd</text>
</a>
</g>
</g>
<!-- Node2&#45;&gt;Node4 -->
<g id="edge3_Node000002_Node000004" class="edge">
<title>Node2&#45;&gt;Node4</title>
<g id="a_edge3_Node000002_Node000004"><a xlink:title=" ">
<path fill="none" stroke="#63b8ff" d="M123.75,-55.08C131.15,-47.65 141.96,-36.79 151.05,-27.66"/>
<polygon fill="#63b8ff" stroke="#63b8ff" points="153.42,-30.24 157.99,-20.68 148.46,-25.3 153.42,-30.24"/>
</a>
</g>
</g>
</g>
</svg>
