<?xml version="1.0" encoding="UTF-8" standalone="no"?>
<!DOCTYPE svg PUBLIC "-//W3C//DTD SVG 1.1//EN"
 "http://www.w3.org/Graphics/SVG/1.1/DTD/svg11.dtd">
<!-- Generated by graphviz version 2.40.1 (0)
 -->
<!-- Title: jngl/input.hpp Pages: 1 -->
<svg width="260pt" height="143pt"
 viewBox="0.00 0.00 259.69 143.00" xmlns="http://www.w3.org/2000/svg" xmlns:xlink="http://www.w3.org/1999/xlink">
<g id="graph0" class="graph" transform="scale(1 1) rotate(0) translate(4 139)">
<title>jngl/input.hpp</title>
<polygon fill="#ffffff" stroke="transparent" points="-4,4 -4,-139 255.692,-139 255.692,4 -4,4"/>
<!-- Node0 -->
<g id="node1" class="node">
<title>Node0</title>
<polygon fill="#bfbfbf" stroke="#000000" points="94.8315,-114.5 94.8315,-134.5 167.2265,-134.5 167.2265,-114.5 94.8315,-114.5"/>
<text text-anchor="middle" x="131.029" y="-121.5" font-family="Lato" font-size="10.00" fill="#000000">jngl/input.hpp</text>
</g>
<!-- Node1 -->
<g id="node2" class="node">
<title>Node1</title>
<g id="a_node2"><a xlink:href="dll_8hpp_source.html" target="_top" xlink:title="dll.hpp">
<polygon fill="#ffffff" stroke="#000000" points="0,-.5 0,-20.5 44.058,-20.5 44.058,-.5 0,-.5"/>
<text text-anchor="middle" x="22.029" y="-7.5" font-family="Lato" font-size="10.00" fill="#000000">dll.hpp</text>
</a>
</g>
</g>
<!-- Node0&#45;&gt;Node1 -->
<g id="edge1" class="edge">
<title>Node0&#45;&gt;Node1</title>
<path fill="none" stroke="#191970" d="M111.4693,-114.4471C96.6311,-106.1292 76.404,-93.2346 62.029,-78 48.6387,-63.809 37.7104,-44.3671 30.6809,-29.9926"/>
<polygon fill="#191970" stroke="#191970" points="33.6799,-28.1434 26.2719,-20.5689 27.3395,-31.1098 33.6799,-28.1434"/>
</g>
<!-- Node2 -->
<g id="node3" class="node">
<title>Node2</title>
<g id="a_node3"><a xlink:href="Vec2_8hpp.html" target="_top" xlink:title="Vec2.hpp">
<polygon fill="#ffffff" stroke="#000000" points="70.7305,-57.5 70.7305,-77.5 125.3275,-77.5 125.3275,-57.5 70.7305,-57.5"/>
<text text-anchor="middle" x="98.029" y="-64.5" font-family="Lato" font-size="10.00" fill="#000000">Vec2.hpp</text>
</a>
</g>
</g>
<!-- Node0&#45;&gt;Node2 -->
<g id="edge2" class="edge">
<title>Node0&#45;&gt;Node2</title>
<path fill="none" stroke="#191970" d="M125.1293,-114.3095C120.6712,-106.6093 114.4228,-95.8166 109.0492,-86.5349"/>
<polygon fill="#191970" stroke="#191970" points="111.9171,-84.5029 103.8777,-77.6022 105.8591,-88.0102 111.9171,-84.5029"/>
</g>
<!-- Node5 -->
<g id="node6" class="node">
<title>Node5</title>
<polygon fill="#ffffff" stroke="#bfbfbf" points="143.536,-57.5 143.536,-77.5 184.522,-77.5 184.522,-57.5 143.536,-57.5"/>
<text text-anchor="middle" x="164.029" y="-64.5" font-family="Lato" font-size="10.00" fill="#000000">vector</text>
</g>
<!-- Node0&#45;&gt;Node5 -->
<g id="edge6" class="edge">
<title>Node0&#45;&gt;Node5</title>
<path fill="none" stroke="#191970" d="M136.9287,-114.3095C141.3868,-106.6093 147.6352,-95.8166 153.0088,-86.5349"/>
<polygon fill="#191970" stroke="#191970" points="156.1989,-88.0102 158.1803,-77.6022 150.1409,-84.5029 156.1989,-88.0102"/>
</g>
<!-- Node6 -->
<g id="node7" class="node">
<title>Node6</title>
<polygon fill="#ffffff" stroke="#bfbfbf" points="202.366,-57.5 202.366,-77.5 251.692,-77.5 251.692,-57.5 202.366,-57.5"/>
<text text-anchor="middle" x="227.029" y="-64.5" font-family="Lato" font-size="10.00" fill="#000000">memory</text>
</g>
<!-- Node0&#45;&gt;Node6 -->
<g id="edge7" class="edge">
<title>Node0&#45;&gt;Node6</title>
<path fill="none" stroke="#191970" d="M148.1919,-114.3095C162.9354,-105.5556 184.4102,-92.8049 201.225,-82.8211"/>
<polygon fill="#191970" stroke="#191970" points="203.2031,-85.7172 210.0147,-77.6022 199.6292,-79.6982 203.2031,-85.7172"/>
</g>
<!-- Node2&#45;&gt;Node1 -->
<g id="edge3" class="edge">
<title>Node2&#45;&gt;Node1</title>
<path fill="none" stroke="#191970" d="M84.4417,-57.3095C73.094,-48.7987 56.7092,-36.5102 43.5748,-26.6594"/>
<polygon fill="#191970" stroke="#191970" points="45.5987,-23.8023 35.4986,-20.6022 41.3987,-29.4023 45.5987,-23.8023"/>
</g>
<!-- Node3 -->
<g id="node4" class="node">
<title>Node3</title>
<polygon fill="#ffffff" stroke="#bfbfbf" points="62.3375,-.5 62.3375,-20.5 149.7205,-20.5 149.7205,-.5 62.3375,-.5"/>
<text text-anchor="middle" x="106.029" y="-7.5" font-family="Lato" font-size="10.00" fill="#000000">boost/version.hpp</text>
</g>
<!-- Node2&#45;&gt;Node3 -->
<g id="edge4" class="edge">
<title>Node2&#45;&gt;Node3</title>
<path fill="none" stroke="#191970" d="M99.4592,-57.3095C100.4945,-49.9335 101.928,-39.72 103.1918,-30.715"/>
<polygon fill="#191970" stroke="#191970" points="106.6872,-30.9917 104.6111,-20.6022 99.7551,-30.0187 106.6872,-30.9917"/>
</g>
<!-- Node4 -->
<g id="node5" class="node">
<title>Node4</title>
<polygon fill="#ffffff" stroke="#bfbfbf" points="167.421,-.5 167.421,-20.5 210.637,-20.5 210.637,-.5 167.421,-.5"/>
<text text-anchor="middle" x="189.029" y="-7.5" font-family="Lato" font-size="10.00" fill="#000000">iosfwd</text>
</g>
<!-- Node2&#45;&gt;Node4 -->
<g id="edge5" class="edge">
<title>Node2&#45;&gt;Node4</title>
<path fill="none" stroke="#191970" d="M114.298,-57.3095C128.1442,-48.6366 148.2535,-36.0407 164.125,-26.0992"/>
<polygon fill="#191970" stroke="#191970" points="166.2841,-28.8768 172.9009,-20.6022 162.5682,-22.9445 166.2841,-28.8768"/>
</g>
</g>
</svg>
