<?xml version="1.0" encoding="UTF-8" standalone="no"?>
<!DOCTYPE svg PUBLIC "-//W3C//DTD SVG 1.1//EN"
 "http://www.w3.org/Graphics/SVG/1.1/DTD/svg11.dtd">
<!-- Generated by graphviz version 5.0.0 (0)
 -->
<!-- Title: jngl/input.hpp Pages: 1 -->
<svg width="550pt" height="137pt"
 viewBox="0.00 0.00 550.00 137.00" xmlns="http://www.w3.org/2000/svg" xmlns:xlink="http://www.w3.org/1999/xlink">
<g id="graph0" class="graph" transform="scale(1 1) rotate(0) translate(4 133)">
<title>jngl/input.hpp</title>
<!-- Node1 -->
<g id="node1" class="node">
<title>Node1</title>
<g id="a_node1"><a xlink:title="Input related functions.">
<polygon fill="#999999" stroke="#666666" points="334,-129 233,-129 233,-110 334,-110 334,-129"/>
<text text-anchor="middle" x="283.5" y="-117" font-family="ui-monospace,monospace" font-size="10.00">jngl/input.hpp</text>
</a>
</g>
</g>
<!-- Node2 -->
<g id="node2" class="node">
<title>Node2</title>
<g id="a_node2"><a xlink:href="Vec2_8hpp.html" target="_top" xlink:title="Contains jngl::Vec2 class.">
<polygon fill="white" stroke="#666666" points="144,-74 79,-74 79,-55 144,-55 144,-74"/>
<text text-anchor="middle" x="111.5" y="-62" font-family="ui-monospace,monospace" font-size="10.00">Vec2.hpp</text>
</a>
</g>
</g>
<!-- Node1&#45;&gt;Node2 -->
<g id="edge1" class="edge">
<title>Node1&#45;&gt;Node2</title>
<path fill="none" stroke="#63b8ff" d="M255.87,-109.98C226.99,-101.09 181.49,-87.07 149.3,-77.15"/>
<polygon fill="#63b8ff" stroke="#63b8ff" points="149.94,-73.68 139.35,-74.08 147.88,-80.37 149.94,-73.68"/>
</g>
<!-- Node5 -->
<g id="node5" class="node">
<title>Node5</title>
<g id="a_node5"><a target="_parent" xlink:href="http://en.cppreference.com/w/cpp/header/functional.html" xlink:title=" ">
<polygon fill="white" stroke="#666666" points="239,-74 162,-74 162,-55 239,-55 239,-74"/>
<text text-anchor="middle" x="200.5" y="-62" font-family="ui-monospace,monospace" font-size="10.00">functional</text>
</a>
</g>
</g>
<!-- Node1&#45;&gt;Node5 -->
<g id="edge4" class="edge">
<title>Node1&#45;&gt;Node5</title>
<path fill="none" stroke="#63b8ff" d="M270.16,-109.98C257.41,-101.84 237.95,-89.41 222.83,-79.76"/>
<polygon fill="#63b8ff" stroke="#63b8ff" points="224.39,-76.6 214.08,-74.17 220.62,-82.5 224.39,-76.6"/>
</g>
<!-- Node6 -->
<g id="node6" class="node">
<title>Node6</title>
<g id="a_node6"><a target="_parent" xlink:href="http://en.cppreference.com/w/cpp/header/memory.html" xlink:title=" ">
<polygon fill="white" stroke="#666666" points="310,-74 257,-74 257,-55 310,-55 310,-74"/>
<text text-anchor="middle" x="283.5" y="-62" font-family="ui-monospace,monospace" font-size="10.00">memory</text>
</a>
</g>
</g>
<!-- Node1&#45;&gt;Node6 -->
<g id="edge5" class="edge">
<title>Node1&#45;&gt;Node6</title>
<path fill="none" stroke="#63b8ff" d="M283.5,-109.75C283.5,-102.8 283.5,-92.85 283.5,-84.13"/>
<polygon fill="#63b8ff" stroke="#63b8ff" points="287,-84.09 283.5,-74.09 280,-84.09 287,-84.09"/>
</g>
<!-- Node7 -->
<g id="node7" class="node">
<title>Node7</title>
<g id="a_node7"><a target="_parent" xlink:href="http://en.cppreference.com/w/cpp/header/vector.html" xlink:title=" ">
<polygon fill="white" stroke="#666666" points="381,-74 328,-74 328,-55 381,-55 381,-74"/>
<text text-anchor="middle" x="354.5" y="-62" font-family="ui-monospace,monospace" font-size="10.00">vector</text>
</a>
</g>
</g>
<!-- Node1&#45;&gt;Node7 -->
<g id="edge6" class="edge">
<title>Node1&#45;&gt;Node7</title>
<path fill="none" stroke="#63b8ff" d="M294.91,-109.98C305.61,-102 321.84,-89.88 334.66,-80.31"/>
<polygon fill="#63b8ff" stroke="#63b8ff" points="336.97,-82.96 342.89,-74.17 332.78,-77.35 336.97,-82.96"/>
</g>
<!-- Node8 -->
<g id="node8" class="node">
<title>Node8</title>
<g id="a_node8"><a xlink:title=" ">
<polygon fill="#e0e0e0" stroke="#999999" points="542,-74 399,-74 399,-55 542,-55 542,-74"/>
<text text-anchor="middle" x="470.5" y="-62" font-family="ui-monospace,monospace" font-size="10.00">experimental/optional</text>
</a>
</g>
</g>
<!-- Node1&#45;&gt;Node8 -->
<g id="edge7" class="edge">
<title>Node1&#45;&gt;Node8</title>
<path fill="none" stroke="#63b8ff" d="M313.54,-109.98C345.21,-101.01 395.27,-86.82 430.31,-76.89"/>
<polygon fill="#63b8ff" stroke="#63b8ff" points="431.55,-80.18 440.22,-74.08 429.64,-73.44 431.55,-80.18"/>
</g>
<!-- Node3 -->
<g id="node3" class="node">
<title>Node3</title>
<g id="a_node3"><a xlink:title=" ">
<polygon fill="#e0e0e0" stroke="#999999" points="119,-19 0,-19 0,0 119,0 119,-19"/>
<text text-anchor="middle" x="59.5" y="-7" font-family="ui-monospace,monospace" font-size="10.00">boost/version.hpp</text>
</a>
</g>
</g>
<!-- Node2&#45;&gt;Node3 -->
<g id="edge2" class="edge">
<title>Node2&#45;&gt;Node3</title>
<path fill="none" stroke="#63b8ff" d="M102.91,-54.75C95.34,-47.03 84.12,-35.6 74.99,-26.28"/>
<polygon fill="#63b8ff" stroke="#63b8ff" points="77.43,-23.78 67.93,-19.09 72.43,-28.68 77.43,-23.78"/>
</g>
<!-- Node4 -->
<g id="node4" class="node">
<title>Node4</title>
<g id="a_node4"><a target="_parent" xlink:href="http://en.cppreference.com/w/cpp/header/iosfwd.html" xlink:title=" ">
<polygon fill="white" stroke="#666666" points="190,-19 137,-19 137,0 190,0 190,-19"/>
<text text-anchor="middle" x="163.5" y="-7" font-family="ui-monospace,monospace" font-size="10.00">iosfwd</text>
</a>
</g>
</g>
<!-- Node2&#45;&gt;Node4 -->
<g id="edge3" class="edge">
<title>Node2&#45;&gt;Node4</title>
<path fill="none" stroke="#63b8ff" d="M120.09,-54.75C127.66,-47.03 138.88,-35.6 148.01,-26.28"/>
<polygon fill="#63b8ff" stroke="#63b8ff" points="150.57,-28.68 155.07,-19.09 145.57,-23.78 150.57,-28.68"/>
</g>
</g>
</svg>
