<?xml version="1.0" encoding="UTF-8" standalone="no"?>
<!DOCTYPE svg PUBLIC "-//W3C//DTD SVG 1.1//EN"
 "http://www.w3.org/Graphics/SVG/1.1/DTD/svg11.dtd">
<!-- Generated by graphviz version 2.43.0 (0)
 -->
<!-- Title: jngl/input.hpp Pages: 1 -->
<svg width="550pt" height="140pt"
 viewBox="0.00 0.00 550.00 140.00" xmlns="http://www.w3.org/2000/svg" xmlns:xlink="http://www.w3.org/1999/xlink">
<g id="graph0" class="graph" transform="scale(1 1) rotate(0) translate(4 136)">
<title>jngl/input.hpp</title>
<polygon fill="white" stroke="transparent" points="-4,4 -4,-136 546,-136 546,4 -4,4"/>
<!-- Node1 -->
<g id="node1" class="node">
<title>Node1</title>
<g id="a_node1"><a xlink:title="Input related functions.">
<polygon fill="#bfbfbf" stroke="black" points="233,-112.5 233,-131.5 334,-131.5 334,-112.5 233,-112.5"/>
<text text-anchor="middle" x="283.5" y="-119.5" font-family="'Consolas',monospace" font-size="10.00">jngl/input.hpp</text>
</a>
</g>
</g>
<!-- Node2 -->
<g id="node2" class="node">
<title>Node2</title>
<g id="a_node2"><a xlink:href="Vec2_8hpp.html" target="_top" xlink:title="Contains jngl::Vec2 class.">
<polygon fill="white" stroke="black" points="79,-56.5 79,-75.5 144,-75.5 144,-56.5 79,-56.5"/>
<text text-anchor="middle" x="111.5" y="-63.5" font-family="'Consolas',monospace" font-size="10.00">Vec2.hpp</text>
</a>
</g>
</g>
<!-- Node1&#45;&gt;Node2 -->
<g id="edge1" class="edge">
<title>Node1&#45;&gt;Node2</title>
<path fill="none" stroke="midnightblue" d="M256.25,-112.44C227.06,-103.28 180.58,-88.69 148.19,-78.52"/>
<polygon fill="midnightblue" stroke="midnightblue" points="149.22,-75.17 138.63,-75.52 147.12,-81.85 149.22,-75.17"/>
</g>
<!-- Node5 -->
<g id="node5" class="node">
<title>Node5</title>
<g id="a_node5"><a target="_parent" xlink:href="http://en.cppreference.com/w/cpp/header/functional.html" xlink:title=" ">
<polygon fill="white" stroke="black" points="162,-56.5 162,-75.5 239,-75.5 239,-56.5 162,-56.5"/>
<text text-anchor="middle" x="200.5" y="-63.5" font-family="'Consolas',monospace" font-size="10.00">functional</text>
</a>
</g>
</g>
<!-- Node1&#45;&gt;Node5 -->
<g id="edge4" class="edge">
<title>Node1&#45;&gt;Node5</title>
<path fill="none" stroke="midnightblue" d="M270.16,-112.32C257.34,-103.98 237.72,-91.21 222.56,-81.35"/>
<polygon fill="midnightblue" stroke="midnightblue" points="224.09,-78.17 213.8,-75.65 220.28,-84.04 224.09,-78.17"/>
</g>
<!-- Node6 -->
<g id="node6" class="node">
<title>Node6</title>
<g id="a_node6"><a target="_parent" xlink:href="http://en.cppreference.com/w/cpp/header/memory.html" xlink:title=" ">
<polygon fill="white" stroke="black" points="257,-56.5 257,-75.5 310,-75.5 310,-56.5 257,-56.5"/>
<text text-anchor="middle" x="283.5" y="-63.5" font-family="'Consolas',monospace" font-size="10.00">memory</text>
</a>
</g>
</g>
<!-- Node1&#45;&gt;Node6 -->
<g id="edge5" class="edge">
<title>Node1&#45;&gt;Node6</title>
<path fill="none" stroke="midnightblue" d="M283.5,-112.08C283.5,-105.01 283.5,-94.86 283.5,-85.99"/>
<polygon fill="midnightblue" stroke="midnightblue" points="287,-85.75 283.5,-75.75 280,-85.75 287,-85.75"/>
</g>
<!-- Node7 -->
<g id="node7" class="node">
<title>Node7</title>
<g id="a_node7"><a target="_parent" xlink:href="http://en.cppreference.com/w/cpp/header/vector.html" xlink:title=" ">
<polygon fill="white" stroke="black" points="328,-56.5 328,-75.5 381,-75.5 381,-56.5 328,-56.5"/>
<text text-anchor="middle" x="354.5" y="-63.5" font-family="'Consolas',monospace" font-size="10.00">vector</text>
</a>
</g>
</g>
<!-- Node1&#45;&gt;Node7 -->
<g id="edge6" class="edge">
<title>Node1&#45;&gt;Node7</title>
<path fill="none" stroke="midnightblue" d="M294.91,-112.32C305.61,-104.18 321.84,-91.84 334.66,-82.09"/>
<polygon fill="midnightblue" stroke="midnightblue" points="337.04,-84.67 342.89,-75.83 332.81,-79.1 337.04,-84.67"/>
</g>
<!-- Node8 -->
<g id="node8" class="node">
<title>Node8</title>
<g id="a_node8"><a xlink:title=" ">
<polygon fill="white" stroke="#bfbfbf" points="399,-56.5 399,-75.5 542,-75.5 542,-56.5 399,-56.5"/>
<text text-anchor="middle" x="470.5" y="-63.5" font-family="'Consolas',monospace" font-size="10.00">experimental/optional</text>
</a>
</g>
</g>
<!-- Node1&#45;&gt;Node8 -->
<g id="edge7" class="edge">
<title>Node1&#45;&gt;Node8</title>
<path fill="none" stroke="midnightblue" d="M313.13,-112.44C345,-103.24 395.83,-88.56 431.06,-78.39"/>
<polygon fill="midnightblue" stroke="midnightblue" points="432.37,-81.65 441.01,-75.52 430.43,-74.93 432.37,-81.65"/>
</g>
<!-- Node3 -->
<g id="node3" class="node">
<title>Node3</title>
<g id="a_node3"><a xlink:title=" ">
<polygon fill="white" stroke="#bfbfbf" points="0,-0.5 0,-19.5 119,-19.5 119,-0.5 0,-0.5"/>
<text text-anchor="middle" x="59.5" y="-7.5" font-family="'Consolas',monospace" font-size="10.00">boost/version.hpp</text>
</a>
</g>
</g>
<!-- Node2&#45;&gt;Node3 -->
<g id="edge2" class="edge">
<title>Node2&#45;&gt;Node3</title>
<path fill="none" stroke="midnightblue" d="M102.91,-56.08C95.34,-48.22 84.12,-36.57 74.99,-27.08"/>
<polygon fill="midnightblue" stroke="midnightblue" points="77.38,-24.53 67.93,-19.75 72.34,-29.38 77.38,-24.53"/>
</g>
<!-- Node4 -->
<g id="node4" class="node">
<title>Node4</title>
<g id="a_node4"><a target="_parent" xlink:href="http://en.cppreference.com/w/cpp/header/iosfwd.html" xlink:title=" ">
<polygon fill="white" stroke="black" points="137,-0.5 137,-19.5 190,-19.5 190,-0.5 137,-0.5"/>
<text text-anchor="middle" x="163.5" y="-7.5" font-family="'Consolas',monospace" font-size="10.00">iosfwd</text>
</a>
</g>
</g>
<!-- Node2&#45;&gt;Node4 -->
<g id="edge3" class="edge">
<title>Node2&#45;&gt;Node4</title>
<path fill="none" stroke="midnightblue" d="M120.09,-56.08C127.66,-48.22 138.88,-36.57 148.01,-27.08"/>
<polygon fill="midnightblue" stroke="midnightblue" points="150.66,-29.38 155.07,-19.75 145.62,-24.53 150.66,-29.38"/>
</g>
</g>
</svg>
