<?xml version="1.0" encoding="UTF-8" standalone="no"?>
<!DOCTYPE svg PUBLIC "-//W3C//DTD SVG 1.1//EN"
 "http://www.w3.org/Graphics/SVG/1.1/DTD/svg11.dtd">
<!-- Generated by graphviz version 2.38.0 (20140413.2041)
 -->
<!-- Title: jngl/input.hpp Pages: 1 -->
<svg width="287pt" height="140pt"
 viewBox="0.00 0.00 286.50 140.00" xmlns="http://www.w3.org/2000/svg" xmlns:xlink="http://www.w3.org/1999/xlink">
<g id="graph0" class="graph" transform="scale(1 1) rotate(0) translate(4 136)">
<title>jngl/input.hpp</title>
<polygon fill="white" stroke="none" points="-4,4 -4,-136 282.5,-136 282.5,4 -4,4"/>
<!-- Node1 -->
<g id="node1" class="node"><title>Node1</title>
<polygon fill="#bfbfbf" stroke="black" points="103.5,-112.5 103.5,-131.5 184.5,-131.5 184.5,-112.5 103.5,-112.5"/>
<text text-anchor="middle" x="144" y="-119.5" font-family="Lato" font-size="10.00">jngl/input.hpp</text>
</g>
<!-- Node2 -->
<g id="node2" class="node"><title>Node2</title>
<g id="a_node2"><a xlink:href="dll_8hpp_source.html" target="_top" xlink:title="dll.hpp">
<polygon fill="white" stroke="black" points="0,-0.5 0,-19.5 48,-19.5 48,-0.5 0,-0.5"/>
<text text-anchor="middle" x="24" y="-7.5" font-family="Lato" font-size="10.00">dll.hpp</text>
</a>
</g>
</g>
<!-- Node1&#45;&gt;Node2 -->
<g id="edge1" class="edge"><title>Node1&#45;&gt;Node2</title>
<path fill="none" stroke="midnightblue" d="M124.315,-112.352C107.962,-104.505 84.7483,-91.7649 68,-76 53.4679,-62.3212 41.1626,-43.0201 33.2924,-29.0063"/>
<polygon fill="midnightblue" stroke="midnightblue" points="36.2046,-27.0326 28.3771,-19.8926 30.0436,-30.3555 36.2046,-27.0326"/>
</g>
<!-- Node3 -->
<g id="node3" class="node"><title>Node3</title>
<g id="a_node3"><a xlink:href="Vec2_8hpp.html" target="_top" xlink:title="Vec2.hpp">
<polygon fill="white" stroke="black" points="77.5,-56.5 77.5,-75.5 138.5,-75.5 138.5,-56.5 77.5,-56.5"/>
<text text-anchor="middle" x="108" y="-63.5" font-family="Lato" font-size="10.00">Vec2.hpp</text>
</a>
</g>
</g>
<!-- Node1&#45;&gt;Node3 -->
<g id="edge2" class="edge"><title>Node1&#45;&gt;Node3</title>
<path fill="none" stroke="midnightblue" d="M138.055,-112.083C133.023,-104.534 125.663,-93.4948 119.487,-84.2298"/>
<polygon fill="midnightblue" stroke="midnightblue" points="122.293,-82.1301 113.834,-75.7511 116.469,-86.0131 122.293,-82.1301"/>
</g>
<!-- Node6 -->
<g id="node6" class="node"><title>Node6</title>
<polygon fill="white" stroke="#bfbfbf" points="156.5,-56.5 156.5,-75.5 203.5,-75.5 203.5,-56.5 156.5,-56.5"/>
<text text-anchor="middle" x="180" y="-63.5" font-family="Lato" font-size="10.00">vector</text>
</g>
<!-- Node1&#45;&gt;Node6 -->
<g id="edge6" class="edge"><title>Node1&#45;&gt;Node6</title>
<path fill="none" stroke="midnightblue" d="M149.945,-112.083C154.977,-104.534 162.337,-93.4948 168.513,-84.2298"/>
<polygon fill="midnightblue" stroke="midnightblue" points="171.531,-86.0131 174.166,-75.7511 165.707,-82.1301 171.531,-86.0131"/>
</g>
<!-- Node7 -->
<g id="node7" class="node"><title>Node7</title>
<polygon fill="white" stroke="#bfbfbf" points="221.5,-56.5 221.5,-75.5 278.5,-75.5 278.5,-56.5 221.5,-56.5"/>
<text text-anchor="middle" x="250" y="-63.5" font-family="Lato" font-size="10.00">memory</text>
</g>
<!-- Node1&#45;&gt;Node7 -->
<g id="edge7" class="edge"><title>Node1&#45;&gt;Node7</title>
<path fill="none" stroke="midnightblue" d="M161.031,-112.324C178.03,-103.664 204.376,-90.2424 223.993,-80.249"/>
<polygon fill="midnightblue" stroke="midnightblue" points="225.69,-83.3125 233.012,-75.6545 222.512,-77.0752 225.69,-83.3125"/>
</g>
<!-- Node3&#45;&gt;Node2 -->
<g id="edge3" class="edge"><title>Node3&#45;&gt;Node2</title>
<path fill="none" stroke="midnightblue" d="M94.5039,-56.324C81.4004,-47.9002 61.2881,-34.9709 45.8931,-25.0741"/>
<polygon fill="midnightblue" stroke="midnightblue" points="47.767,-22.118 37.4626,-19.6545 43.9817,-28.0063 47.767,-22.118"/>
</g>
<!-- Node4 -->
<g id="node4" class="node"><title>Node4</title>
<polygon fill="white" stroke="#bfbfbf" points="66,-0.5 66,-19.5 168,-19.5 168,-0.5 66,-0.5"/>
<text text-anchor="middle" x="117" y="-7.5" font-family="Lato" font-size="10.00">boost/version.hpp</text>
</g>
<!-- Node3&#45;&gt;Node4 -->
<g id="edge4" class="edge"><title>Node3&#45;&gt;Node4</title>
<path fill="none" stroke="midnightblue" d="M109.486,-56.083C110.679,-48.9272 112.394,-38.6353 113.885,-29.6911"/>
<polygon fill="midnightblue" stroke="midnightblue" points="117.35,-30.1904 115.541,-19.7511 110.445,-29.0396 117.35,-30.1904"/>
</g>
<!-- Node5 -->
<g id="node5" class="node"><title>Node5</title>
<polygon fill="white" stroke="#bfbfbf" points="186,-0.5 186,-19.5 232,-19.5 232,-0.5 186,-0.5"/>
<text text-anchor="middle" x="209" y="-7.5" font-family="Lato" font-size="10.00">iosfwd</text>
</g>
<!-- Node3&#45;&gt;Node5 -->
<g id="edge5" class="edge"><title>Node3&#45;&gt;Node5</title>
<path fill="none" stroke="midnightblue" d="M124.227,-56.324C140.351,-47.7034 165.3,-34.3643 183.964,-24.3855"/>
<polygon fill="midnightblue" stroke="midnightblue" points="185.644,-27.456 192.813,-19.6545 182.344,-21.283 185.644,-27.456"/>
</g>
</g>
</svg>
