<?xml version="1.0" encoding="UTF-8" standalone="no"?>
<!DOCTYPE svg PUBLIC "-//W3C//DTD SVG 1.1//EN"
 "http://www.w3.org/Graphics/SVG/1.1/DTD/svg11.dtd">
<!-- Generated by graphviz version 2.38.0 (20140413.2041)
 -->
<!-- Title: jngl/input.hpp Pages: 1 -->
<svg width="402pt" height="140pt"
 viewBox="0.00 0.00 402.00 140.00" xmlns="http://www.w3.org/2000/svg" xmlns:xlink="http://www.w3.org/1999/xlink">
<g id="graph0" class="graph" transform="scale(1 1) rotate(0) translate(4 136)">
<title>jngl/input.hpp</title>
<polygon fill="white" stroke="none" points="-4,4 -4,-136 398,-136 398,4 -4,4"/>
<!-- Node1 -->
<g id="node1" class="node"><title>Node1</title>
<polygon fill="#bfbfbf" stroke="black" points="163,-112.5 163,-131.5 264,-131.5 264,-112.5 163,-112.5"/>
<text text-anchor="middle" x="213.5" y="-119.5" font-family="'Consolas',monospace" font-size="10.00">jngl/input.hpp</text>
</g>
<!-- Node2 -->
<g id="node2" class="node"><title>Node2</title>
<g id="a_node2"><a xlink:href="dll_8hpp_source.html" target="_top" xlink:title="dll.hpp">
<polygon fill="white" stroke="black" points="0,-0.5 0,-19.5 59,-19.5 59,-0.5 0,-0.5"/>
<text text-anchor="middle" x="29.5" y="-7.5" font-family="'Consolas',monospace" font-size="10.00">dll.hpp</text>
</a>
</g>
</g>
<!-- Node1&#45;&gt;Node2 -->
<g id="edge1" class="edge"><title>Node1&#45;&gt;Node2</title>
<path fill="none" stroke="midnightblue" d="M170.006,-112.485C143.07,-105.723 108.737,-94.291 82.5,-76 64.4714,-63.4313 49.2778,-43.0878 39.8435,-28.5067"/>
<polygon fill="midnightblue" stroke="midnightblue" points="42.7486,-26.5502 34.5035,-19.8967 36.7998,-30.2397 42.7486,-26.5502"/>
</g>
<!-- Node3 -->
<g id="node3" class="node"><title>Node3</title>
<g id="a_node3"><a xlink:href="Vec2_8hpp.html" target="_top" xlink:title="Vec2.hpp">
<polygon fill="white" stroke="black" points="92,-56.5 92,-75.5 157,-75.5 157,-56.5 92,-56.5"/>
<text text-anchor="middle" x="124.5" y="-63.5" font-family="'Consolas',monospace" font-size="10.00">Vec2.hpp</text>
</a>
</g>
</g>
<!-- Node1&#45;&gt;Node3 -->
<g id="edge2" class="edge"><title>Node1&#45;&gt;Node3</title>
<path fill="none" stroke="midnightblue" d="M199.201,-112.324C185.317,-103.9 164.008,-90.9709 147.696,-81.0741"/>
<polygon fill="midnightblue" stroke="midnightblue" points="149.129,-77.8495 138.764,-75.6545 145.498,-83.8341 149.129,-77.8495"/>
</g>
<!-- Node6 -->
<g id="node6" class="node"><title>Node6</title>
<polygon fill="white" stroke="#bfbfbf" points="175,-56.5 175,-75.5 252,-75.5 252,-56.5 175,-56.5"/>
<text text-anchor="middle" x="213.5" y="-63.5" font-family="'Consolas',monospace" font-size="10.00">functional</text>
</g>
<!-- Node1&#45;&gt;Node6 -->
<g id="edge6" class="edge"><title>Node1&#45;&gt;Node6</title>
<path fill="none" stroke="midnightblue" d="M213.5,-112.083C213.5,-105.006 213.5,-94.8611 213.5,-85.9865"/>
<polygon fill="midnightblue" stroke="midnightblue" points="217,-85.751 213.5,-75.7511 210,-85.7511 217,-85.751"/>
</g>
<!-- Node7 -->
<g id="node7" class="node"><title>Node7</title>
<polygon fill="white" stroke="#bfbfbf" points="270,-56.5 270,-75.5 323,-75.5 323,-56.5 270,-56.5"/>
<text text-anchor="middle" x="296.5" y="-63.5" font-family="'Consolas',monospace" font-size="10.00">vector</text>
</g>
<!-- Node1&#45;&gt;Node7 -->
<g id="edge7" class="edge"><title>Node1&#45;&gt;Node7</title>
<path fill="none" stroke="midnightblue" d="M226.835,-112.324C239.662,-103.979 259.285,-91.2122 274.44,-81.3524"/>
<polygon fill="midnightblue" stroke="midnightblue" points="276.724,-84.0417 283.198,-75.6545 272.907,-78.1742 276.724,-84.0417"/>
</g>
<!-- Node8 -->
<g id="node8" class="node"><title>Node8</title>
<polygon fill="white" stroke="#bfbfbf" points="341,-56.5 341,-75.5 394,-75.5 394,-56.5 341,-56.5"/>
<text text-anchor="middle" x="367.5" y="-63.5" font-family="'Consolas',monospace" font-size="10.00">memory</text>
</g>
<!-- Node1&#45;&gt;Node8 -->
<g id="edge8" class="edge"><title>Node1&#45;&gt;Node8</title>
<path fill="none" stroke="midnightblue" d="M237.902,-112.444C263.697,-103.399 304.577,-89.064 333.518,-78.9158"/>
<polygon fill="midnightblue" stroke="midnightblue" points="334.934,-82.1283 343.212,-75.5164 332.618,-75.5226 334.934,-82.1283"/>
</g>
<!-- Node3&#45;&gt;Node2 -->
<g id="edge3" class="edge"><title>Node3&#45;&gt;Node2</title>
<path fill="none" stroke="midnightblue" d="M109.237,-56.324C94.2786,-47.8215 71.2452,-34.7288 53.7733,-24.7975"/>
<polygon fill="midnightblue" stroke="midnightblue" points="55.1488,-21.5534 44.7255,-19.6545 51.6896,-27.639 55.1488,-21.5534"/>
</g>
<!-- Node4 -->
<g id="node4" class="node"><title>Node4</title>
<polygon fill="white" stroke="#bfbfbf" points="77,-0.5 77,-19.5 196,-19.5 196,-0.5 77,-0.5"/>
<text text-anchor="middle" x="136.5" y="-7.5" font-family="'Consolas',monospace" font-size="10.00">boost/version.hpp</text>
</g>
<!-- Node3&#45;&gt;Node4 -->
<g id="edge4" class="edge"><title>Node3&#45;&gt;Node4</title>
<path fill="none" stroke="midnightblue" d="M126.482,-56.083C128.072,-48.9272 130.359,-38.6353 132.346,-29.6911"/>
<polygon fill="midnightblue" stroke="midnightblue" points="135.803,-30.2722 134.555,-19.7511 128.969,-28.7537 135.803,-30.2722"/>
</g>
<!-- Node5 -->
<g id="node5" class="node"><title>Node5</title>
<polygon fill="white" stroke="#bfbfbf" points="214,-0.5 214,-19.5 267,-19.5 267,-0.5 214,-0.5"/>
<text text-anchor="middle" x="240.5" y="-7.5" font-family="'Consolas',monospace" font-size="10.00">iosfwd</text>
</g>
<!-- Node3&#45;&gt;Node5 -->
<g id="edge5" class="edge"><title>Node3&#45;&gt;Node5</title>
<path fill="none" stroke="midnightblue" d="M142.881,-56.4435C161.716,-47.6751 191.231,-33.9355 212.879,-23.8579"/>
<polygon fill="midnightblue" stroke="midnightblue" points="214.617,-26.9098 222.205,-19.5164 211.662,-20.5637 214.617,-26.9098"/>
</g>
</g>
</svg>
