<?xml version="1.0" encoding="UTF-8" standalone="no"?>
<!DOCTYPE svg PUBLIC "-//W3C//DTD SVG 1.1//EN"
 "http://www.w3.org/Graphics/SVG/1.1/DTD/svg11.dtd">
<!-- Generated by graphviz version 12.1.0 (20240811.2233)
 -->
<!-- Title: jngl/input.hpp Pages: 1 -->
<svg width="334pt" height="138pt"
 viewBox="0.00 0.00 334.32 137.75" xmlns="http://www.w3.org/2000/svg" xmlns:xlink="http://www.w3.org/1999/xlink">
<g id="graph0" class="graph" transform="scale(1 1) rotate(0) translate(4 133.75)">
<title>jngl/input.hpp</title>
<!-- Node1 -->
<g id="Node000001" class="node">
<title>Node1</title>
<g id="a_Node000001"><a xlink:title="Input related functions.">
<polygon fill="#999999" stroke="#666666" points="127.32,-129.75 27.32,-129.75 27.32,-110.5 127.32,-110.5 127.32,-129.75"/>
<text text-anchor="middle" x="77.32" y="-116.25" font-family="ui-monospace,monospace" font-size="10.00">jngl/input.hpp</text>
</a>
</g>
</g>
<!-- Node2 -->
<g id="Node000002" class="node">
<title>Node2</title>
<g id="a_Node000002"><a xlink:href="jngl_8hpp.html" target="_top" xlink:title="Includes all JNGL headers except for init.hpp.">
<polygon fill="white" stroke="#666666" points="109.32,-19.25 45.32,-19.25 45.32,0 109.32,0 109.32,-19.25"/>
<text text-anchor="middle" x="77.32" y="-5.75" font-family="ui-monospace,monospace" font-size="10.00">jngl.hpp</text>
</a>
</g>
</g>
<!-- Node1&#45;&gt;Node2 -->
<g id="edge1_Node000001_Node000002" class="edge">
<title>Node1&#45;&gt;Node2</title>
<g id="a_edge1_Node000001_Node000002"><a xlink:title=" ">
<path fill="none" stroke="#63b8ff" d="M38.92,-105.38C25.16,-98.38 11.14,-88.35 3.32,-74.5 -10.54,-49.97 24.69,-30.39 51.17,-19.66"/>
<polygon fill="#63b8ff" stroke="#63b8ff" points="37.36,-108.51 47.91,-109.52 40.29,-102.15 37.36,-108.51"/>
</a>
</g>
</g>
<!-- Node3 -->
<g id="Node000003" class="node">
<title>Node3</title>
<g id="a_Node000003"><a xlink:href="Controller_8hpp.html" target="_top" xlink:title="Contains jngl::Controller class.">
<polygon fill="white" stroke="#666666" points="142.32,-74.5 12.32,-74.5 12.32,-55.25 142.32,-55.25 142.32,-74.5"/>
<text text-anchor="middle" x="77.32" y="-61" font-family="ui-monospace,monospace" font-size="10.00">jngl/Controller.hpp</text>
</a>
</g>
</g>
<!-- Node1&#45;&gt;Node3 -->
<g id="edge2_Node000001_Node000003" class="edge">
<title>Node1&#45;&gt;Node3</title>
<g id="a_edge2_Node000001_Node000003"><a xlink:title=" ">
<path fill="none" stroke="#63b8ff" d="M77.32,-98.88C77.32,-90.59 77.32,-81.42 77.32,-74.86"/>
<polygon fill="#63b8ff" stroke="#63b8ff" points="73.82,-98.82 77.32,-108.82 80.82,-98.82 73.82,-98.82"/>
</a>
</g>
</g>
<!-- Node4 -->
<g id="Node000004" class="node">
<title>Node4</title>
<g id="a_Node000004"><a xlink:href="KeyboardShortcut_8hpp.html" target="_top" xlink:title="Contains jngl::KeyboardShortcut class.">
<polygon fill="white" stroke="#666666" points="326.32,-74.5 160.32,-74.5 160.32,-55.25 326.32,-55.25 326.32,-74.5"/>
<text text-anchor="middle" x="243.32" y="-61" font-family="ui-monospace,monospace" font-size="10.00">jngl/KeyboardShortcut.hpp</text>
</a>
</g>
</g>
<!-- Node1&#45;&gt;Node4 -->
<g id="edge4_Node000001_Node000004" class="edge">
<title>Node1&#45;&gt;Node4</title>
<g id="a_edge4_Node000001_Node000004"><a xlink:title=" ">
<path fill="none" stroke="#63b8ff" d="M116.09,-106.69C146.39,-96.97 187.79,-83.69 215.02,-74.95"/>
<polygon fill="#63b8ff" stroke="#63b8ff" points="115.37,-103.24 106.92,-109.63 117.51,-109.91 115.37,-103.24"/>
</a>
</g>
</g>
<!-- Node3&#45;&gt;Node2 -->
<g id="edge3_Node000003_Node000002" class="edge">
<title>Node3&#45;&gt;Node2</title>
<g id="a_edge3_Node000003_Node000002"><a xlink:title=" ">
<path fill="none" stroke="#63b8ff" d="M77.32,-43.63C77.32,-35.34 77.32,-26.17 77.32,-19.61"/>
<polygon fill="#63b8ff" stroke="#63b8ff" points="73.82,-43.57 77.32,-53.57 80.82,-43.57 73.82,-43.57"/>
</a>
</g>
</g>
<!-- Node4&#45;&gt;Node2 -->
<g id="edge5_Node000004_Node000002" class="edge">
<title>Node4&#45;&gt;Node2</title>
<g id="a_edge5_Node000004_Node000002"><a xlink:title=" ">
<path fill="none" stroke="#63b8ff" d="M204.55,-51.44C174.25,-41.72 132.85,-28.44 105.62,-19.7"/>
<polygon fill="#63b8ff" stroke="#63b8ff" points="203.13,-54.66 213.72,-54.38 205.26,-47.99 203.13,-54.66"/>
</a>
</g>
</g>
</g>
</svg>
