<?xml version="1.0" encoding="UTF-8" standalone="no"?>
<!DOCTYPE svg PUBLIC "-//W3C//DTD SVG 1.1//EN"
 "http://www.w3.org/Graphics/SVG/1.1/DTD/svg11.dtd">
<!-- Generated by graphviz version 2.38.0 (20140413.2041)
 -->
<!-- Title: jngl/input.hpp Pages: 1 -->
<svg width="140pt" height="196pt"
 viewBox="0.00 0.00 140.00 196.00" xmlns="http://www.w3.org/2000/svg" xmlns:xlink="http://www.w3.org/1999/xlink">
<g id="graph0" class="graph" transform="scale(1 1) rotate(0) translate(4 192)">
<title>jngl/input.hpp</title>
<polygon fill="white" stroke="none" points="-4,4 -4,-192 136,-192 136,4 -4,4"/>
<!-- Node1 -->
<g id="node1" class="node"><title>Node1</title>
<polygon fill="#bfbfbf" stroke="black" points="51,-168.5 51,-187.5 132,-187.5 132,-168.5 51,-168.5"/>
<text text-anchor="middle" x="91.5" y="-175.5" font-family="Lato" font-size="10.00">jngl/input.hpp</text>
</g>
<!-- Node2 -->
<g id="node2" class="node"><title>Node2</title>
<g id="a_node2"><a xlink:href="Controller_8hpp_source.html" target="_top" xlink:title="jngl/Controller.hpp">
<polygon fill="white" stroke="black" points="0,-112.5 0,-131.5 103,-131.5 103,-112.5 0,-112.5"/>
<text text-anchor="middle" x="51.5" y="-119.5" font-family="Lato" font-size="10.00">jngl/Controller.hpp</text>
</a>
</g>
</g>
<!-- Node1&#45;&gt;Node2 -->
<g id="edge1" class="edge"><title>Node1&#45;&gt;Node2</title>
<path fill="none" stroke="midnightblue" d="M78.8003,-159.855C71.874,-150.505 63.5937,-139.327 57.9823,-131.751"/>
<polygon fill="midnightblue" stroke="midnightblue" points="76.13,-162.131 84.8948,-168.083 81.755,-157.964 76.13,-162.131"/>
</g>
<!-- Node3 -->
<g id="node3" class="node"><title>Node3</title>
<g id="a_node3"><a xlink:href="all_8hpp.html" target="_top" xlink:title="Includes all JNGL headers. ">
<polygon fill="white" stroke="black" points="57.5,-56.5 57.5,-75.5 125.5,-75.5 125.5,-56.5 57.5,-56.5"/>
<text text-anchor="middle" x="91.5" y="-63.5" font-family="Lato" font-size="10.00">jngl/all.hpp</text>
</a>
</g>
</g>
<!-- Node1&#45;&gt;Node3 -->
<g id="edge4" class="edge"><title>Node1&#45;&gt;Node3</title>
<path fill="none" stroke="midnightblue" d="M101.779,-159.626C105.993,-151.524 110.376,-141.574 112.5,-132 117.072,-111.392 105.133,-88.0171 97.4339,-75.6862"/>
<polygon fill="midnightblue" stroke="midnightblue" points="98.6779,-158.001 96.8841,-168.443 104.798,-161.399 98.6779,-158.001"/>
</g>
<!-- Node2&#45;&gt;Node3 -->
<g id="edge2" class="edge"><title>Node2&#45;&gt;Node3</title>
<path fill="none" stroke="midnightblue" d="M64.1997,-103.855C71.126,-94.5048 79.4063,-83.3265 85.0177,-75.7511"/>
<polygon fill="midnightblue" stroke="midnightblue" points="61.245,-101.964 58.1052,-112.083 66.87,-106.131 61.245,-101.964"/>
</g>
<!-- Node4 -->
<g id="node4" class="node"><title>Node4</title>
<g id="a_node4"><a xlink:href="jngl_8hpp_source.html" target="_top" xlink:title="jngl.hpp">
<polygon fill="white" stroke="black" points="64.5,-0.5 64.5,-19.5 118.5,-19.5 118.5,-0.5 64.5,-0.5"/>
<text text-anchor="middle" x="91.5" y="-7.5" font-family="Lato" font-size="10.00">jngl.hpp</text>
</a>
</g>
</g>
<!-- Node3&#45;&gt;Node4 -->
<g id="edge3" class="edge"><title>Node3&#45;&gt;Node4</title>
<path fill="none" stroke="midnightblue" d="M91.5,-45.8045C91.5,-36.9102 91.5,-26.7798 91.5,-19.7511"/>
<polygon fill="midnightblue" stroke="midnightblue" points="88.0001,-46.083 91.5,-56.083 95.0001,-46.083 88.0001,-46.083"/>
</g>
</g>
</svg>
