<?xml version="1.0" encoding="UTF-8" standalone="no"?>
<!DOCTYPE svg PUBLIC "-//W3C//DTD SVG 1.1//EN"
 "http://www.w3.org/Graphics/SVG/1.1/DTD/svg11.dtd">
<!-- Generated by graphviz version 2.38.0 (20140413.2041)
 -->
<!-- Title: jngl/input.hpp Pages: 1 -->
<svg width="171pt" height="196pt"
 viewBox="0.00 0.00 171.00 196.00" xmlns="http://www.w3.org/2000/svg" xmlns:xlink="http://www.w3.org/1999/xlink">
<g id="graph0" class="graph" transform="scale(1 1) rotate(0) translate(4 192)">
<title>jngl/input.hpp</title>
<polygon fill="white" stroke="none" points="-4,4 -4,-192 167,-192 167,4 -4,4"/>
<!-- Node1 -->
<g id="node1" class="node"><title>Node1</title>
<polygon fill="#bfbfbf" stroke="black" points="62,-168.5 62,-187.5 163,-187.5 163,-168.5 62,-168.5"/>
<text text-anchor="middle" x="112.5" y="-175.5" font-family="'Consolas',monospace" font-size="10.00">jngl/input.hpp</text>
</g>
<!-- Node2 -->
<g id="node2" class="node"><title>Node2</title>
<g id="a_node2"><a xlink:href="Controller_8hpp_source.html" target="_top" xlink:title="jngl/Controller.hpp">
<polygon fill="white" stroke="black" points="0,-112.5 0,-131.5 131,-131.5 131,-112.5 0,-112.5"/>
<text text-anchor="middle" x="65.5" y="-119.5" font-family="'Consolas',monospace" font-size="10.00">jngl/Controller.hpp</text>
</a>
</g>
</g>
<!-- Node1&#45;&gt;Node2 -->
<g id="edge1" class="edge"><title>Node1&#45;&gt;Node2</title>
<path fill="none" stroke="midnightblue" d="M98.0792,-160.431C89.8419,-150.967 79.8461,-139.483 73.1167,-131.751"/>
<polygon fill="midnightblue" stroke="midnightblue" points="95.5336,-162.838 104.739,-168.083 100.814,-158.242 95.5336,-162.838"/>
</g>
<!-- Node3 -->
<g id="node3" class="node"><title>Node3</title>
<g id="a_node3"><a xlink:href="all_8hpp.html" target="_top" xlink:title="Includes all JNGL headers. ">
<polygon fill="white" stroke="black" points="68,-56.5 68,-75.5 157,-75.5 157,-56.5 68,-56.5"/>
<text text-anchor="middle" x="112.5" y="-63.5" font-family="'Consolas',monospace" font-size="10.00">jngl/all.hpp</text>
</a>
</g>
</g>
<!-- Node1&#45;&gt;Node3 -->
<g id="edge4" class="edge"><title>Node1&#45;&gt;Node3</title>
<path fill="none" stroke="midnightblue" d="M126.56,-160.498C135.811,-147.613 145.382,-129.087 140.5,-112 136.506,-98.0212 126.776,-84.156 119.912,-75.5891"/>
<polygon fill="midnightblue" stroke="midnightblue" points="123.766,-158.39 120.387,-168.431 129.291,-162.688 123.766,-158.39"/>
</g>
<!-- Node2&#45;&gt;Node3 -->
<g id="edge2" class="edge"><title>Node2&#45;&gt;Node3</title>
<path fill="none" stroke="midnightblue" d="M79.9208,-104.431C88.1581,-94.9673 98.1539,-83.4827 104.883,-75.7511"/>
<polygon fill="midnightblue" stroke="midnightblue" points="77.1863,-102.242 73.2611,-112.083 82.4664,-106.838 77.1863,-102.242"/>
</g>
<!-- Node4 -->
<g id="node4" class="node"><title>Node4</title>
<g id="a_node4"><a xlink:href="jngl_8hpp_source.html" target="_top" xlink:title="jngl.hpp">
<polygon fill="white" stroke="black" points="80,-0.5 80,-19.5 145,-19.5 145,-0.5 80,-0.5"/>
<text text-anchor="middle" x="112.5" y="-7.5" font-family="'Consolas',monospace" font-size="10.00">jngl.hpp</text>
</a>
</g>
</g>
<!-- Node3&#45;&gt;Node4 -->
<g id="edge3" class="edge"><title>Node3&#45;&gt;Node4</title>
<path fill="none" stroke="midnightblue" d="M112.5,-45.8045C112.5,-36.9102 112.5,-26.7798 112.5,-19.7511"/>
<polygon fill="midnightblue" stroke="midnightblue" points="109,-46.083 112.5,-56.083 116,-46.083 109,-46.083"/>
</g>
</g>
</svg>
