<?xml version="1.0" encoding="UTF-8" standalone="no"?>
<!DOCTYPE svg PUBLIC "-//W3C//DTD SVG 1.1//EN"
 "http://www.w3.org/Graphics/SVG/1.1/DTD/svg11.dtd">
<!-- Generated by graphviz version 9.0.0 (20230911.1827)
 -->
<!-- Title: jngl/input.hpp Pages: 1 -->
<svg width="510pt" height="138pt"
 viewBox="0.00 0.00 510.00 137.75" xmlns="http://www.w3.org/2000/svg" xmlns:xlink="http://www.w3.org/1999/xlink">
<g id="graph0" class="graph" transform="scale(1 1) rotate(0) translate(4 133.75)">
<title>jngl/input.hpp</title>
<!-- Node1 -->
<g id="Node000001" class="node">
<title>Node1</title>
<g id="a_Node000001"><a xlink:title="Input related functions.">
<polygon fill="#999999" stroke="#666666" points="258,-129.75 158,-129.75 158,-110.5 258,-110.5 258,-129.75"/>
<text text-anchor="middle" x="208" y="-116.25" font-family="ui-monospace,monospace" font-size="10.00">jngl/input.hpp</text>
</a>
</g>
</g>
<!-- Node2 -->
<g id="Node000002" class="node">
<title>Node2</title>
<g id="a_Node000002"><a xlink:href="Finally_8hpp.html" target="_top" xlink:title="Contains jngl::Finally class.">
<polygon fill="white" stroke="#666666" points="82,-74.5 0,-74.5 0,-55.25 82,-55.25 82,-74.5"/>
<text text-anchor="middle" x="41" y="-61" font-family="ui-monospace,monospace" font-size="10.00">Finally.hpp</text>
</a>
</g>
</g>
<!-- Node1&#45;&gt;Node2 -->
<g id="edge1_Node000001_Node000002" class="edge">
<title>Node1&#45;&gt;Node2</title>
<g id="a_edge1_Node000001_Node000002"><a xlink:title=" ">
<path fill="none" stroke="#63b8ff" d="M179.67,-110.09C152.32,-101.37 110.68,-88.09 80.16,-78.36"/>
<polygon fill="#63b8ff" stroke="#63b8ff" points="81.5,-75.12 70.91,-75.41 79.37,-81.78 81.5,-75.12"/>
</a>
</g>
</g>
<!-- Node3 -->
<g id="Node000003" class="node">
<title>Node3</title>
<g id="a_Node000003"><a target="_parent" xlink:href="http://en.cppreference.com/w/cpp/header/functional.html" xlink:title=" ">
<polygon fill="white" stroke="#666666" points="84,-19.25 8,-19.25 8,0 84,0 84,-19.25"/>
<text text-anchor="middle" x="46" y="-5.75" font-family="ui-monospace,monospace" font-size="10.00">functional</text>
</a>
</g>
</g>
<!-- Node1&#45;&gt;Node3 -->
<g id="edge6_Node000001_Node000003" class="edge">
<title>Node1&#45;&gt;Node3</title>
<g id="a_edge6_Node000001_Node000003"><a xlink:title=" ">
<path fill="none" stroke="#63b8ff" d="M190.32,-110.06C174.02,-101.5 149.36,-87.98 129,-74.5 106.32,-59.47 81.79,-40.19 65.33,-26.76"/>
<polygon fill="#63b8ff" stroke="#63b8ff" points="67.76,-24.22 57.81,-20.57 63.31,-29.63 67.76,-24.22"/>
</a>
</g>
</g>
<!-- Node4 -->
<g id="Node000004" class="node">
<title>Node4</title>
<g id="a_Node000004"><a xlink:href="Vec2_8hpp.html" target="_top" xlink:title="Contains jngl::Vec2 class.">
<polygon fill="white" stroke="#666666" points="202,-74.5 138,-74.5 138,-55.25 202,-55.25 202,-74.5"/>
<text text-anchor="middle" x="170" y="-61" font-family="ui-monospace,monospace" font-size="10.00">Vec2.hpp</text>
</a>
</g>
</g>
<!-- Node1&#45;&gt;Node4 -->
<g id="edge3_Node000001_Node000004" class="edge">
<title>Node1&#45;&gt;Node4</title>
<g id="a_edge3_Node000001_Node000004"><a xlink:title=" ">
<path fill="none" stroke="#63b8ff" d="M201.73,-110.33C196.64,-103.21 189.3,-92.93 182.97,-84.05"/>
<polygon fill="#63b8ff" stroke="#63b8ff" points="185.95,-82.2 177.29,-76.09 180.25,-86.26 185.95,-82.2"/>
</a>
</g>
</g>
<!-- Node7 -->
<g id="Node000007" class="node">
<title>Node7</title>
<g id="a_Node000007"><a target="_parent" xlink:href="http://en.cppreference.com/w/cpp/header/memory.html" xlink:title=" ">
<polygon fill="white" stroke="#666666" points="272,-74.5 220,-74.5 220,-55.25 272,-55.25 272,-74.5"/>
<text text-anchor="middle" x="246" y="-61" font-family="ui-monospace,monospace" font-size="10.00">memory</text>
</a>
</g>
</g>
<!-- Node1&#45;&gt;Node7 -->
<g id="edge7_Node000001_Node000007" class="edge">
<title>Node1&#45;&gt;Node7</title>
<g id="a_edge7_Node000001_Node000007"><a xlink:title=" ">
<path fill="none" stroke="#63b8ff" d="M214.27,-110.33C219.36,-103.21 226.7,-92.93 233.03,-84.05"/>
<polygon fill="#63b8ff" stroke="#63b8ff" points="235.75,-86.26 238.71,-76.09 230.05,-82.2 235.75,-86.26"/>
</a>
</g>
</g>
<!-- Node8 -->
<g id="Node000008" class="node">
<title>Node8</title>
<g id="a_Node000008"><a target="_parent" xlink:href="http://en.cppreference.com/w/cpp/header/vector.html" xlink:title=" ">
<polygon fill="white" stroke="#666666" points="342,-74.5 290,-74.5 290,-55.25 342,-55.25 342,-74.5"/>
<text text-anchor="middle" x="316" y="-61" font-family="ui-monospace,monospace" font-size="10.00">vector</text>
</a>
</g>
</g>
<!-- Node1&#45;&gt;Node8 -->
<g id="edge8_Node000001_Node000008" class="edge">
<title>Node1&#45;&gt;Node8</title>
<g id="a_edge8_Node000001_Node000008"><a xlink:title=" ">
<path fill="none" stroke="#63b8ff" d="M226.32,-110.09C243.08,-101.83 268.13,-89.48 287.5,-79.93"/>
<polygon fill="#63b8ff" stroke="#63b8ff" points="288.81,-83.18 296.23,-75.62 285.72,-76.9 288.81,-83.18"/>
</a>
</g>
</g>
<!-- Node9 -->
<g id="Node000009" class="node">
<title>Node9</title>
<g id="a_Node000009"><a xlink:title=" ">
<polygon fill="#e0e0e0" stroke="#999999" points="502,-74.5 360,-74.5 360,-55.25 502,-55.25 502,-74.5"/>
<text text-anchor="middle" x="431" y="-61" font-family="ui-monospace,monospace" font-size="10.00">experimental/optional</text>
</a>
</g>
</g>
<!-- Node1&#45;&gt;Node9 -->
<g id="edge9_Node000001_Node000009" class="edge">
<title>Node1&#45;&gt;Node9</title>
<g id="a_edge9_Node000001_Node000009"><a xlink:title=" ">
<path fill="none" stroke="#63b8ff" d="M246.08,-110.03C283.6,-101.07 341.1,-87.34 382.01,-77.57"/>
<polygon fill="#63b8ff" stroke="#63b8ff" points="382.69,-81.01 391.6,-75.28 381.06,-74.2 382.69,-81.01"/>
</a>
</g>
</g>
<!-- Node2&#45;&gt;Node3 -->
<g id="edge2_Node000002_Node000003" class="edge">
<title>Node2&#45;&gt;Node3</title>
<g id="a_edge2_Node000002_Node000003"><a xlink:title=" ">
<path fill="none" stroke="#63b8ff" d="M41.83,-55.08C42.44,-48.49 43.32,-39.21 44.1,-30.82"/>
<polygon fill="#63b8ff" stroke="#63b8ff" points="47.56,-31.4 45.01,-21.12 40.6,-30.75 47.56,-31.4"/>
</a>
</g>
</g>
<!-- Node5 -->
<g id="Node000005" class="node">
<title>Node5</title>
<g id="a_Node000005"><a xlink:title=" ">
<polygon fill="#e0e0e0" stroke="#999999" points="229,-19.25 105,-19.25 105,0 229,0 229,-19.25"/>
<text text-anchor="middle" x="167" y="-5.75" font-family="ui-monospace,monospace" font-size="10.00">boost/qvm_lite.hpp</text>
</a>
</g>
</g>
<!-- Node4&#45;&gt;Node5 -->
<g id="edge4_Node000004_Node000005" class="edge">
<title>Node4&#45;&gt;Node5</title>
<g id="a_edge4_Node000004_Node000005"><a xlink:title=" ">
<path fill="none" stroke="#63b8ff" d="M169.5,-55.08C169.13,-48.49 168.61,-39.21 168.14,-30.82"/>
<polygon fill="#63b8ff" stroke="#63b8ff" points="171.65,-30.91 167.59,-21.12 164.66,-31.3 171.65,-30.91"/>
</a>
</g>
</g>
<!-- Node6 -->
<g id="Node000006" class="node">
<title>Node6</title>
<g id="a_Node000006"><a target="_parent" xlink:href="http://en.cppreference.com/w/cpp/header/iosfwd.html" xlink:title=" ">
<polygon fill="white" stroke="#666666" points="299,-19.25 247,-19.25 247,0 299,0 299,-19.25"/>
<text text-anchor="middle" x="273" y="-5.75" font-family="ui-monospace,monospace" font-size="10.00">iosfwd</text>
</a>
</g>
</g>
<!-- Node4&#45;&gt;Node6 -->
<g id="edge5_Node000004_Node000006" class="edge">
<title>Node4&#45;&gt;Node6</title>
<g id="a_edge5_Node000004_Node000006"><a xlink:title=" ">
<path fill="none" stroke="#63b8ff" d="M187.47,-54.84C203.31,-46.66 226.91,-34.46 245.31,-24.94"/>
<polygon fill="#63b8ff" stroke="#63b8ff" points="246.82,-28.1 254.1,-20.4 243.61,-21.88 246.82,-28.1"/>
</a>
</g>
</g>
</g>
</svg>
