<?xml version="1.0" encoding="UTF-8" standalone="no"?>
<!DOCTYPE svg PUBLIC "-//W3C//DTD SVG 1.1//EN"
 "http://www.w3.org/Graphics/SVG/1.1/DTD/svg11.dtd">
<!-- Generated by graphviz version 2.40.1 (0)
 -->
<!-- Title: jngl/input.hpp Pages: 1 -->
<svg width="133pt" height="196pt"
 viewBox="0.00 0.00 132.50 196.00" xmlns="http://www.w3.org/2000/svg" xmlns:xlink="http://www.w3.org/1999/xlink">
<g id="graph0" class="graph" transform="scale(1 1) rotate(0) translate(4 192)">
<title>jngl/input.hpp</title>
<polygon fill="#ffffff" stroke="transparent" points="-4,4 -4,-192 128.5,-192 128.5,4 -4,4"/>
<!-- Node7 -->
<g id="node1" class="node">
<title>Node7</title>
<polygon fill="#bfbfbf" stroke="#000000" points="48.5,-168.5 48.5,-187.5 124.5,-187.5 124.5,-168.5 48.5,-168.5"/>
<text text-anchor="middle" x="86.5" y="-175.5" font-family="Lato" font-size="10.00" fill="#000000">jngl/input.hpp</text>
</g>
<!-- Node8 -->
<g id="node2" class="node">
<title>Node8</title>
<g id="a_node2"><a xlink:href="Controller_8hpp_source.html" target="_top" xlink:title="jngl/Controller.hpp">
<polygon fill="#ffffff" stroke="#000000" points="0,-112.5 0,-131.5 97,-131.5 97,-112.5 0,-112.5"/>
<text text-anchor="middle" x="48.5" y="-119.5" font-family="Lato" font-size="10.00" fill="#000000">jngl/Controller.hpp</text>
</a>
</g>
</g>
<!-- Node7&#45;&gt;Node8 -->
<g id="edge1" class="edge">
<title>Node7&#45;&gt;Node8</title>
<path fill="none" stroke="#191970" d="M74.2321,-159.9209C67.8512,-150.5176 60.3069,-139.3997 55.0432,-131.6427"/>
<polygon fill="#191970" stroke="#191970" points="71.3697,-161.936 79.8809,-168.2455 77.162,-158.0055 71.3697,-161.936"/>
</g>
<!-- Node9 -->
<g id="node3" class="node">
<title>Node9</title>
<g id="a_node3"><a xlink:href="all_8hpp.html" target="_top" xlink:title="Includes all JNGL headers. ">
<polygon fill="#ffffff" stroke="#000000" points="55.5,-56.5 55.5,-75.5 117.5,-75.5 117.5,-56.5 55.5,-56.5"/>
<text text-anchor="middle" x="86.5" y="-63.5" font-family="Lato" font-size="10.00" fill="#000000">jngl/all.hpp</text>
</a>
</g>
</g>
<!-- Node7&#45;&gt;Node9 -->
<g id="edge4" class="edge">
<title>Node7&#45;&gt;Node9</title>
<path fill="none" stroke="#191970" d="M97.3849,-159.3562C103.7319,-146.2619 109.8805,-128.2533 106.5,-112 103.7692,-98.8702 97.0863,-84.8908 92.1945,-75.8354"/>
<polygon fill="#191970" stroke="#191970" points="94.2348,-157.826 92.6472,-168.3012 100.4207,-161.1024 94.2348,-157.826"/>
</g>
<!-- Node8&#45;&gt;Node9 -->
<g id="edge2" class="edge">
<title>Node8&#45;&gt;Node9</title>
<path fill="none" stroke="#191970" d="M60.7679,-103.9209C67.1488,-94.5176 74.6931,-83.3997 79.9568,-75.6427"/>
<polygon fill="#191970" stroke="#191970" points="57.838,-102.0055 55.1191,-112.2455 63.6303,-105.936 57.838,-102.0055"/>
</g>
<!-- Node10 -->
<g id="node4" class="node">
<title>Node10</title>
<g id="a_node4"><a xlink:href="jngl_8hpp_source.html" target="_top" xlink:title="jngl.hpp">
<polygon fill="#ffffff" stroke="#000000" points="61.5,-.5 61.5,-19.5 111.5,-19.5 111.5,-.5 61.5,-.5"/>
<text text-anchor="middle" x="86.5" y="-7.5" font-family="Lato" font-size="10.00" fill="#000000">jngl.hpp</text>
</a>
</g>
</g>
<!-- Node9&#45;&gt;Node10 -->
<g id="edge3" class="edge">
<title>Node9&#45;&gt;Node10</title>
<path fill="none" stroke="#191970" d="M86.5,-46.1575C86.5,-37.155 86.5,-26.9199 86.5,-19.6427"/>
<polygon fill="#191970" stroke="#191970" points="83.0001,-46.2455 86.5,-56.2455 90.0001,-46.2456 83.0001,-46.2455"/>
</g>
</g>
</svg>
