<?xml version="1.0" encoding="UTF-8" standalone="no"?>
<!DOCTYPE svg PUBLIC "-//W3C//DTD SVG 1.1//EN"
 "http://www.w3.org/Graphics/SVG/1.1/DTD/svg11.dtd">
<!-- Generated by graphviz version 5.0.0 (0)
 -->
<!-- Title: jngl/input.hpp Pages: 1 -->
<svg width="171pt" height="137pt"
 viewBox="0.00 0.00 171.00 137.00" xmlns="http://www.w3.org/2000/svg" xmlns:xlink="http://www.w3.org/1999/xlink">
<g id="graph0" class="graph" transform="scale(1 1) rotate(0) translate(4 133)">
<title>jngl/input.hpp</title>
<!-- Node1 -->
<g id="node1" class="node">
<title>Node1</title>
<g id="a_node1"><a xlink:title="Input related functions.">
<polygon fill="#999999" stroke="#666666" points="101,-129 0,-129 0,-110 101,-110 101,-129"/>
<text text-anchor="middle" x="50.5" y="-117" font-family="ui-monospace,monospace" font-size="10.00">jngl/input.hpp</text>
</a>
</g>
</g>
<!-- Node2 -->
<g id="node2" class="node">
<title>Node2</title>
<g id="a_node2"><a xlink:href="jngl_8hpp.html" target="_top" xlink:title="Includes all JNGL headers except for init.hpp.">
<polygon fill="white" stroke="#666666" points="83,-19 18,-19 18,0 83,0 83,-19"/>
<text text-anchor="middle" x="50.5" y="-7" font-family="ui-monospace,monospace" font-size="10.00">jngl.hpp</text>
</a>
</g>
</g>
<!-- Node1&#45;&gt;Node2 -->
<g id="edge1" class="edge">
<title>Node1&#45;&gt;Node2</title>
<path fill="none" stroke="#63b8ff" d="M35.9,-101.62C26.84,-89.08 17.77,-71.4 22.5,-55 26.45,-41.32 35.98,-27.79 42.83,-19.3"/>
<polygon fill="#63b8ff" stroke="#63b8ff" points="33.35,-104.05 42.28,-109.74 38.85,-99.72 33.35,-104.05"/>
</g>
<!-- Node3 -->
<g id="node3" class="node">
<title>Node3</title>
<g id="a_node3"><a xlink:href="Controller_8hpp.html" target="_top" xlink:title="Contains jngl::Controller class.">
<polygon fill="white" stroke="#666666" points="163,-74 32,-74 32,-55 163,-55 163,-74"/>
<text text-anchor="middle" x="97.5" y="-62" font-family="ui-monospace,monospace" font-size="10.00">jngl/Controller.hpp</text>
</a>
</g>
</g>
<!-- Node1&#45;&gt;Node3 -->
<g id="edge2" class="edge">
<title>Node1&#45;&gt;Node3</title>
<path fill="none" stroke="#63b8ff" d="M64.92,-102.24C73.16,-92.95 83.15,-81.68 89.88,-74.09"/>
<polygon fill="#63b8ff" stroke="#63b8ff" points="62.28,-99.94 58.26,-109.75 67.51,-104.59 62.28,-99.94"/>
</g>
<!-- Node3&#45;&gt;Node2 -->
<g id="edge3" class="edge">
<title>Node3&#45;&gt;Node2</title>
<path fill="none" stroke="#63b8ff" d="M83.08,-47.24C74.84,-37.95 64.85,-26.68 58.12,-19.09"/>
<polygon fill="#63b8ff" stroke="#63b8ff" points="80.49,-49.59 89.74,-54.75 85.72,-44.94 80.49,-49.59"/>
</g>
</g>
</svg>
