<?xml version="1.0" encoding="UTF-8" standalone="no"?>
<!DOCTYPE svg PUBLIC "-//W3C//DTD SVG 1.1//EN"
 "http://www.w3.org/Graphics/SVG/1.1/DTD/svg11.dtd">
<!-- Generated by graphviz version 2.40.1 (0)
 -->
<!-- Title: jngl/input.hpp Pages: 1 -->
<svg width="128pt" height="200pt"
 viewBox="0.00 0.00 127.67 200.00" xmlns="http://www.w3.org/2000/svg" xmlns:xlink="http://www.w3.org/1999/xlink">
<g id="graph0" class="graph" transform="scale(1 1) rotate(0) translate(4 196)">
<title>jngl/input.hpp</title>
<polygon fill="#ffffff" stroke="transparent" points="-4,4 -4,-196 123.6675,-196 123.6675,4 -4,4"/>
<!-- Node7 -->
<g id="node1" class="node">
<title>Node7</title>
<polygon fill="#bfbfbf" stroke="#000000" points="47.2725,-171.5 47.2725,-191.5 119.6675,-191.5 119.6675,-171.5 47.2725,-171.5"/>
<text text-anchor="middle" x="83.47" y="-178.5" font-family="Lato" font-size="10.00" fill="#000000">jngl/input.hpp</text>
</g>
<!-- Node8 -->
<g id="node2" class="node">
<title>Node8</title>
<g id="a_node2"><a xlink:href="Controller_8hpp_source.html" target="_top" xlink:title="jngl/Controller.hpp">
<polygon fill="#ffffff" stroke="#000000" points="0,-114.5 0,-134.5 92.94,-134.5 92.94,-114.5 0,-114.5"/>
<text text-anchor="middle" x="46.47" y="-121.5" font-family="Lato" font-size="10.00" fill="#000000">jngl/Controller.hpp</text>
</a>
</g>
</g>
<!-- Node7&#45;&gt;Node8 -->
<g id="edge1" class="edge">
<title>Node7&#45;&gt;Node8</title>
<path fill="none" stroke="#191970" d="M71.235,-162.6515C65.16,-153.2928 58.0631,-142.3596 53.0276,-134.6022"/>
<polygon fill="#191970" stroke="#191970" points="68.4747,-164.8274 76.8551,-171.3095 74.3461,-161.0161 68.4747,-164.8274"/>
</g>
<!-- Node9 -->
<g id="node3" class="node">
<title>Node9</title>
<g id="a_node3"><a xlink:href="all_8hpp.html" target="_top" xlink:title="Includes all JNGL headers. ">
<polygon fill="#ffffff" stroke="#000000" points="52.553,-57.5 52.553,-77.5 114.387,-77.5 114.387,-57.5 52.553,-57.5"/>
<text text-anchor="middle" x="83.47" y="-64.5" font-family="Lato" font-size="10.00" fill="#000000">jngl/all.hpp</text>
</a>
</g>
</g>
<!-- Node7&#45;&gt;Node9 -->
<g id="edge4" class="edge">
<title>Node7&#45;&gt;Node9</title>
<path fill="none" stroke="#191970" d="M92.814,-162.1237C96.2634,-153.9528 99.7488,-144.2142 101.47,-135 105.3004,-114.4941 95.8582,-91.0724 89.2494,-77.9097"/>
<polygon fill="#191970" stroke="#191970" points="89.5164,-160.9226 88.5997,-171.4777 95.8986,-163.798 89.5164,-160.9226"/>
</g>
<!-- Node8&#45;&gt;Node9 -->
<g id="edge2" class="edge">
<title>Node8&#45;&gt;Node9</title>
<path fill="none" stroke="#191970" d="M58.705,-105.6515C64.78,-96.2928 71.8769,-85.3596 76.9124,-77.6022"/>
<polygon fill="#191970" stroke="#191970" points="55.5939,-104.0161 53.0849,-114.3095 61.4653,-107.8274 55.5939,-104.0161"/>
</g>
<!-- Node10 -->
<g id="node4" class="node">
<title>Node10</title>
<g id="a_node4"><a xlink:href="jngl_8hpp_source.html" target="_top" xlink:title="jngl.hpp">
<polygon fill="#ffffff" stroke="#000000" points="58.941,-.5 58.941,-20.5 107.999,-20.5 107.999,-.5 58.941,-.5"/>
<text text-anchor="middle" x="83.47" y="-7.5" font-family="Lato" font-size="10.00" fill="#000000">jngl.hpp</text>
</a>
</g>
</g>
<!-- Node9&#45;&gt;Node10 -->
<g id="edge3" class="edge">
<title>Node9&#45;&gt;Node10</title>
<path fill="none" stroke="#191970" d="M83.47,-47.1771C83.47,-38.1625 83.47,-27.9556 83.47,-20.6022"/>
<polygon fill="#191970" stroke="#191970" points="79.9701,-47.3095 83.47,-57.3095 86.9701,-47.3096 79.9701,-47.3095"/>
</g>
</g>
</svg>
