<?xml version="1.0" encoding="UTF-8" standalone="no"?>
<!DOCTYPE svg PUBLIC "-//W3C//DTD SVG 1.1//EN"
 "http://www.w3.org/Graphics/SVG/1.1/DTD/svg11.dtd">
<!-- Generated by graphviz version 2.40.1 (0)
 -->
<!-- Title: jngl/input.hpp Pages: 1 -->
<svg width="137pt" height="196pt"
 viewBox="0.00 0.00 136.50 196.00" xmlns="http://www.w3.org/2000/svg" xmlns:xlink="http://www.w3.org/1999/xlink">
<g id="graph0" class="graph" transform="scale(1 1) rotate(0) translate(4 192)">
<title>jngl/input.hpp</title>
<polygon fill="#ffffff" stroke="transparent" points="-4,4 -4,-192 132.5,-192 132.5,4 -4,4"/>
<!-- Node7 -->
<g id="node1" class="node">
<title>Node7</title>
<polygon fill="#bfbfbf" stroke="#000000" points="49.5,-168.5 49.5,-187.5 128.5,-187.5 128.5,-168.5 49.5,-168.5"/>
<text text-anchor="middle" x="89" y="-175.5" font-family="Lato" font-size="10.00" fill="#000000">jngl/input.hpp</text>
</g>
<!-- Node8 -->
<g id="node2" class="node">
<title>Node8</title>
<g id="a_node2"><a xlink:href="Controller_8hpp_source.html" target="_top" xlink:title="jngl/Controller.hpp">
<polygon fill="#ffffff" stroke="#000000" points="0,-112.5 0,-131.5 100,-131.5 100,-112.5 0,-112.5"/>
<text text-anchor="middle" x="50" y="-119.5" font-family="Lato" font-size="10.00" fill="#000000">jngl/Controller.hpp</text>
</a>
</g>
</g>
<!-- Node7&#45;&gt;Node8 -->
<g id="edge1" class="edge">
<title>Node7&#45;&gt;Node8</title>
<path fill="none" stroke="#191970" d="M76.4092,-159.9209C69.8605,-150.5176 62.1176,-139.3997 56.7154,-131.6427"/>
<polygon fill="#191970" stroke="#191970" points="73.6196,-162.0397 82.2067,-168.2455 79.3639,-158.0392 73.6196,-162.0397"/>
</g>
<!-- Node9 -->
<g id="node3" class="node">
<title>Node9</title>
<g id="a_node3"><a xlink:href="all_8hpp.html" target="_top" xlink:title="Includes all JNGL headers. ">
<polygon fill="#ffffff" stroke="#000000" points="56,-56.5 56,-75.5 122,-75.5 122,-56.5 56,-56.5"/>
<text text-anchor="middle" x="89" y="-63.5" font-family="Lato" font-size="10.00" fill="#000000">jngl/all.hpp</text>
</a>
</g>
</g>
<!-- Node7&#45;&gt;Node9 -->
<g id="edge4" class="edge">
<title>Node7&#45;&gt;Node9</title>
<path fill="none" stroke="#191970" d="M99.8849,-159.3562C106.2319,-146.2619 112.3805,-128.2533 109,-112 106.2692,-98.8702 99.5863,-84.8908 94.6945,-75.8354"/>
<polygon fill="#191970" stroke="#191970" points="96.7348,-157.826 95.1472,-168.3012 102.9207,-161.1024 96.7348,-157.826"/>
</g>
<!-- Node8&#45;&gt;Node9 -->
<g id="edge2" class="edge">
<title>Node8&#45;&gt;Node9</title>
<path fill="none" stroke="#191970" d="M62.5908,-103.9209C69.1395,-94.5176 76.8824,-83.3997 82.2846,-75.6427"/>
<polygon fill="#191970" stroke="#191970" points="59.6361,-102.0392 56.7933,-112.2455 65.3804,-106.0397 59.6361,-102.0392"/>
</g>
<!-- Node10 -->
<g id="node4" class="node">
<title>Node10</title>
<g id="a_node4"><a xlink:href="jngl_8hpp_source.html" target="_top" xlink:title="jngl.hpp">
<polygon fill="#ffffff" stroke="#000000" points="63,-.5 63,-19.5 115,-19.5 115,-.5 63,-.5"/>
<text text-anchor="middle" x="89" y="-7.5" font-family="Lato" font-size="10.00" fill="#000000">jngl.hpp</text>
</a>
</g>
</g>
<!-- Node9&#45;&gt;Node10 -->
<g id="edge3" class="edge">
<title>Node9&#45;&gt;Node10</title>
<path fill="none" stroke="#191970" d="M89,-46.1575C89,-37.155 89,-26.9199 89,-19.6427"/>
<polygon fill="#191970" stroke="#191970" points="85.5001,-46.2455 89,-56.2455 92.5001,-46.2456 85.5001,-46.2455"/>
</g>
</g>
</svg>
