<?xml version="1.0" encoding="UTF-8" standalone="no"?>
<!DOCTYPE svg PUBLIC "-//W3C//DTD SVG 1.1//EN"
 "http://www.w3.org/Graphics/SVG/1.1/DTD/svg11.dtd">
<!-- Generated by graphviz version 9.0.0 (20230911.1827)
 -->
<!-- Title: jngl/input.hpp Pages: 1 -->
<svg width="170pt" height="138pt"
 viewBox="0.00 0.00 170.00 137.75" xmlns="http://www.w3.org/2000/svg" xmlns:xlink="http://www.w3.org/1999/xlink">
<g id="graph0" class="graph" transform="scale(1 1) rotate(0) translate(4 133.75)">
<title>jngl/input.hpp</title>
<!-- Node1 -->
<g id="Node000001" class="node">
<title>Node1</title>
<g id="a_Node000001"><a xlink:title="Input related functions.">
<polygon fill="#999999" stroke="#666666" points="100,-129.75 0,-129.75 0,-110.5 100,-110.5 100,-129.75"/>
<text text-anchor="middle" x="50" y="-116.25" font-family="ui-monospace,monospace" font-size="10.00">jngl/input.hpp</text>
</a>
</g>
</g>
<!-- Node2 -->
<g id="Node000002" class="node">
<title>Node2</title>
<g id="a_Node000002"><a xlink:href="jngl_8hpp.html" target="_top" xlink:title="Includes all JNGL headers except for init.hpp.">
<polygon fill="white" stroke="#666666" points="82,-19.25 18,-19.25 18,0 82,0 82,-19.25"/>
<text text-anchor="middle" x="50" y="-5.75" font-family="ui-monospace,monospace" font-size="10.00">jngl.hpp</text>
</a>
</g>
</g>
<!-- Node1&#45;&gt;Node2 -->
<g id="edge1_Node000001_Node000002" class="edge">
<title>Node1&#45;&gt;Node2</title>
<g id="a_edge1_Node000001_Node000002"><a xlink:title=" ">
<path fill="none" stroke="#63b8ff" d="M35.89,-100.91C30.77,-93.2 25.61,-83.85 23,-74.5 17.31,-54.09 32.2,-31.55 42.07,-19.46"/>
<polygon fill="#63b8ff" stroke="#63b8ff" points="33.04,-102.94 41.71,-109.02 38.72,-98.85 33.04,-102.94"/>
</a>
</g>
</g>
<!-- Node3 -->
<g id="Node000003" class="node">
<title>Node3</title>
<g id="a_Node000003"><a xlink:href="Controller_8hpp.html" target="_top" xlink:title="Contains jngl::Controller class.">
<polygon fill="white" stroke="#666666" points="162,-74.5 32,-74.5 32,-55.25 162,-55.25 162,-74.5"/>
<text text-anchor="middle" x="97" y="-61" font-family="ui-monospace,monospace" font-size="10.00">jngl/Controller.hpp</text>
</a>
</g>
</g>
<!-- Node1&#45;&gt;Node3 -->
<g id="edge2_Node000001_Node000003" class="edge">
<title>Node1&#45;&gt;Node3</title>
<g id="a_edge2_Node000001_Node000003"><a xlink:title=" ">
<path fill="none" stroke="#63b8ff" d="M65.33,-101.76C73.25,-92.78 82.6,-82.2 89.07,-74.86"/>
<polygon fill="#63b8ff" stroke="#63b8ff" points="62.76,-99.38 58.76,-109.2 68,-104.02 62.76,-99.38"/>
</a>
</g>
</g>
<!-- Node3&#45;&gt;Node2 -->
<g id="edge3_Node000003_Node000002" class="edge">
<title>Node3&#45;&gt;Node2</title>
<g id="a_edge3_Node000003_Node000002"><a xlink:title=" ">
<path fill="none" stroke="#63b8ff" d="M81.67,-46.51C73.75,-37.53 64.4,-26.95 57.93,-19.61"/>
<polygon fill="#63b8ff" stroke="#63b8ff" points="79,-48.77 88.24,-53.95 84.24,-44.13 79,-48.77"/>
</a>
</g>
</g>
</g>
</svg>
