<?xml version="1.0" encoding="UTF-8" standalone="no"?>
<!DOCTYPE svg PUBLIC "-//W3C//DTD SVG 1.1//EN"
 "http://www.w3.org/Graphics/SVG/1.1/DTD/svg11.dtd">
<!-- Generated by graphviz version 2.40.1 (0)
 -->
<!-- Title: jngl/input.hpp Pages: 1 -->
<svg width="389pt" height="140pt"
 viewBox="0.00 0.00 389.00 140.00" xmlns="http://www.w3.org/2000/svg" xmlns:xlink="http://www.w3.org/1999/xlink">
<g id="graph0" class="graph" transform="scale(1 1) rotate(0) translate(4 136)">
<title>jngl/input.hpp</title>
<polygon fill="#ffffff" stroke="transparent" points="-4,4 -4,-136 385,-136 385,4 -4,4"/>
<!-- Node0 -->
<g id="node1" class="node">
<title>Node0</title>
<g id="a_node1"><a xlink:title=" ">
<polygon fill="#bfbfbf" stroke="#000000" points="191,-112.5 191,-131.5 292,-131.5 292,-112.5 191,-112.5"/>
<text text-anchor="middle" x="241.5" y="-119.5" font-family="'Consolas',monospace" font-size="10.00" fill="#000000">jngl/input.hpp</text>
</a>
</g>
</g>
<!-- Node1 -->
<g id="node2" class="node">
<title>Node1</title>
<g id="a_node2"><a xlink:href="Vec2_8hpp.html" target="_top" xlink:title=" ">
<polygon fill="#ffffff" stroke="#000000" points="79,-56.5 79,-75.5 144,-75.5 144,-56.5 79,-56.5"/>
<text text-anchor="middle" x="111.5" y="-63.5" font-family="'Consolas',monospace" font-size="10.00" fill="#000000">Vec2.hpp</text>
</a>
</g>
</g>
<!-- Node0&#45;&gt;Node1 -->
<g id="edge1" class="edge">
<title>Node0&#45;&gt;Node1</title>
<path fill="none" stroke="#191970" d="M219.1522,-112.3733C198.0967,-103.3032 166.3505,-89.6279 142.7825,-79.4755"/>
<polygon fill="#191970" stroke="#191970" points="144.125,-76.243 133.5562,-75.5011 141.3556,-82.6719 144.125,-76.243"/>
</g>
<!-- Node4 -->
<g id="node5" class="node">
<title>Node4</title>
<g id="a_node5"><a doxygen="/w/doc/cppreference-doxygen-web.tag.xml:http://en.cppreference.com/w/" xlink:href="http://en.cppreference.com/w/cpp/header/functional.html" xlink:title=" ">
<polygon fill="#ffffff" stroke="#000000" points="162,-56.5 162,-75.5 239,-75.5 239,-56.5 162,-56.5"/>
<text text-anchor="middle" x="200.5" y="-63.5" font-family="'Consolas',monospace" font-size="10.00" fill="#000000">functional</text>
</a>
</g>
</g>
<!-- Node0&#45;&gt;Node4 -->
<g id="edge4" class="edge">
<title>Node0&#45;&gt;Node4</title>
<path fill="none" stroke="#191970" d="M234.3583,-112.2455C228.6556,-104.4564 220.51,-93.3308 213.6375,-83.9439"/>
<polygon fill="#191970" stroke="#191970" points="216.2913,-81.6437 207.5598,-75.6427 210.6432,-85.7789 216.2913,-81.6437"/>
</g>
<!-- Node5 -->
<g id="node6" class="node">
<title>Node5</title>
<g id="a_node6"><a doxygen="/w/doc/cppreference-doxygen-web.tag.xml:http://en.cppreference.com/w/" xlink:href="http://en.cppreference.com/w/cpp/header/vector.html" xlink:title=" ">
<polygon fill="#ffffff" stroke="#000000" points="257,-56.5 257,-75.5 310,-75.5 310,-56.5 257,-56.5"/>
<text text-anchor="middle" x="283.5" y="-63.5" font-family="'Consolas',monospace" font-size="10.00" fill="#000000">vector</text>
</a>
</g>
</g>
<!-- Node0&#45;&gt;Node5 -->
<g id="edge5" class="edge">
<title>Node0&#45;&gt;Node5</title>
<path fill="none" stroke="#191970" d="M248.8158,-112.2455C254.7179,-104.3761 263.1742,-93.101 270.2594,-83.6542"/>
<polygon fill="#191970" stroke="#191970" points="273.068,-85.7427 276.268,-75.6427 267.4679,-81.5427 273.068,-85.7427"/>
</g>
<!-- Node6 -->
<g id="node7" class="node">
<title>Node6</title>
<g id="a_node7"><a doxygen="/w/doc/cppreference-doxygen-web.tag.xml:http://en.cppreference.com/w/" xlink:href="http://en.cppreference.com/w/cpp/header/memory.html" xlink:title=" ">
<polygon fill="#ffffff" stroke="#000000" points="328,-56.5 328,-75.5 381,-75.5 381,-56.5 328,-56.5"/>
<text text-anchor="middle" x="354.5" y="-63.5" font-family="'Consolas',monospace" font-size="10.00" fill="#000000">memory</text>
</a>
</g>
</g>
<!-- Node0&#45;&gt;Node6 -->
<g id="edge6" class="edge">
<title>Node0&#45;&gt;Node6</title>
<path fill="none" stroke="#191970" d="M260.9254,-112.3733C278.9021,-103.4644 305.8441,-90.1127 326.209,-80.0203"/>
<polygon fill="#191970" stroke="#191970" points="327.9222,-83.0776 335.3281,-75.5011 324.8139,-76.8055 327.9222,-83.0776"/>
</g>
<!-- Node2 -->
<g id="node3" class="node">
<title>Node2</title>
<g id="a_node3"><a xlink:title=" ">
<polygon fill="#ffffff" stroke="#bfbfbf" points="0,-.5 0,-19.5 119,-19.5 119,-.5 0,-.5"/>
<text text-anchor="middle" x="59.5" y="-7.5" font-family="'Consolas',monospace" font-size="10.00" fill="#000000">boost/version.hpp</text>
</a>
</g>
</g>
<!-- Node1&#45;&gt;Node2 -->
<g id="edge2" class="edge">
<title>Node1&#45;&gt;Node2</title>
<path fill="none" stroke="#191970" d="M102.4423,-56.2455C94.9858,-48.2155 84.2366,-36.6394 75.3583,-27.0781"/>
<polygon fill="#191970" stroke="#191970" points="77.8232,-24.589 68.4539,-19.6427 72.6937,-29.3522 77.8232,-24.589"/>
</g>
<!-- Node3 -->
<g id="node4" class="node">
<title>Node3</title>
<g id="a_node4"><a doxygen="/w/doc/cppreference-doxygen-web.tag.xml:http://en.cppreference.com/w/" xlink:href="http://en.cppreference.com/w/cpp/header/iosfwd.html" xlink:title=" ">
<polygon fill="#ffffff" stroke="#000000" points="137,-.5 137,-19.5 190,-19.5 190,-.5 137,-.5"/>
<text text-anchor="middle" x="163.5" y="-7.5" font-family="'Consolas',monospace" font-size="10.00" fill="#000000">iosfwd</text>
</a>
</g>
</g>
<!-- Node1&#45;&gt;Node3 -->
<g id="edge3" class="edge">
<title>Node1&#45;&gt;Node3</title>
<path fill="none" stroke="#191970" d="M120.5577,-56.2455C128.0142,-48.2155 138.7634,-36.6394 147.6417,-27.0781"/>
<polygon fill="#191970" stroke="#191970" points="150.3063,-29.3522 154.5461,-19.6427 145.1768,-24.589 150.3063,-29.3522"/>
</g>
</g>
</svg>
