<?xml version="1.0" encoding="UTF-8" standalone="no"?>
<!DOCTYPE svg PUBLIC "-//W3C//DTD SVG 1.1//EN"
 "http://www.w3.org/Graphics/SVG/1.1/DTD/svg11.dtd">
<!-- Generated by graphviz version 2.42.4 (0)
 -->
<!-- Title: jngl.hpp Pages: 1 -->
<svg width="2160pt" height="364pt"
 viewBox="0.00 0.00 2160.00 364.00" xmlns="http://www.w3.org/2000/svg" xmlns:xlink="http://www.w3.org/1999/xlink">
<g id="graph0" class="graph" transform="scale(1 1) rotate(0) translate(4 360)">
<title>jngl.hpp</title>
<polygon fill="white" stroke="transparent" points="-4,4 -4,-360 2156,-360 2156,4 -4,4"/>
<!-- Node1 -->
<g id="node1" class="node">
<title>Node1</title>
<g id="a_node1"><a xlink:title="Includes jngl/all.hpp.">
<polygon fill="#bfbfbf" stroke="black" points="1080,-336.5 1080,-355.5 1145,-355.5 1145,-336.5 1080,-336.5"/>
<text text-anchor="middle" x="1112.5" y="-343.5" font-family="'Consolas',monospace" font-size="10.00">jngl.hpp</text>
</a>
</g>
</g>
<!-- Node2 -->
<g id="node2" class="node">
<title>Node2</title>
<g id="a_node2"><a xlink:href="all_8hpp.html" target="_top" xlink:title="Includes all JNGL headers except for init.hpp.">
<polygon fill="white" stroke="black" points="1068,-280.5 1068,-299.5 1157,-299.5 1157,-280.5 1068,-280.5"/>
<text text-anchor="middle" x="1112.5" y="-287.5" font-family="'Consolas',monospace" font-size="10.00">jngl/all.hpp</text>
</a>
</g>
</g>
<!-- Node1&#45;&gt;Node2 -->
<g id="edge1" class="edge">
<title>Node1&#45;&gt;Node2</title>
<path fill="none" stroke="midnightblue" d="M1112.5,-336.08C1112.5,-329.01 1112.5,-318.86 1112.5,-309.99"/>
<polygon fill="midnightblue" stroke="midnightblue" points="1116,-309.75 1112.5,-299.75 1109,-309.75 1116,-309.75"/>
</g>
<!-- Node3 -->
<g id="node3" class="node">
<title>Node3</title>
<g id="a_node3"><a xlink:href="App_8hpp.html" target="_top" xlink:title=" ">
<polygon fill="white" stroke="black" points="671,-112.5 671,-131.5 730,-131.5 730,-112.5 671,-112.5"/>
<text text-anchor="middle" x="700.5" y="-119.5" font-family="'Consolas',monospace" font-size="10.00">App.hpp</text>
</a>
</g>
</g>
<!-- Node2&#45;&gt;Node3 -->
<g id="edge2" class="edge">
<title>Node2&#45;&gt;Node3</title>
<path fill="none" stroke="midnightblue" d="M1067.6,-288.17C1010.79,-285.7 910.92,-276.61 832.5,-244 778.86,-221.69 733.19,-167.48 712.44,-139.82"/>
<polygon fill="midnightblue" stroke="midnightblue" points="715.12,-137.55 706.38,-131.55 709.47,-141.68 715.12,-137.55"/>
</g>
<!-- Node6 -->
<g id="node6" class="node">
<title>Node6</title>
<g id="a_node6"><a xlink:href="Color_8hpp.html" target="_top" xlink:title=" ">
<polygon fill="white" stroke="black" points="1622,-56.5 1622,-75.5 1693,-75.5 1693,-56.5 1622,-56.5"/>
<text text-anchor="middle" x="1657.5" y="-63.5" font-family="'Consolas',monospace" font-size="10.00">Color.hpp</text>
</a>
</g>
</g>
<!-- Node2&#45;&gt;Node6 -->
<g id="edge5" class="edge">
<title>Node2&#45;&gt;Node6</title>
<path fill="none" stroke="midnightblue" d="M1157.02,-288.24C1270.04,-285.86 1565.56,-276.6 1657.5,-244 1742.46,-213.87 1865.57,-184.13 1811.5,-112 1798.41,-94.54 1743.63,-81.59 1703.11,-74.17"/>
<polygon fill="midnightblue" stroke="midnightblue" points="1703.61,-70.71 1693.15,-72.41 1702.39,-77.6 1703.61,-70.71"/>
</g>
<!-- Node7 -->
<g id="node7" class="node">
<title>Node7</title>
<g id="a_node7"><a xlink:href="Controller_8hpp.html" target="_top" xlink:title=" ">
<polygon fill="white" stroke="black" points="193,-168.5 193,-187.5 294,-187.5 294,-168.5 193,-168.5"/>
<text text-anchor="middle" x="243.5" y="-175.5" font-family="'Consolas',monospace" font-size="10.00">Controller.hpp</text>
</a>
</g>
</g>
<!-- Node2&#45;&gt;Node7 -->
<g id="edge6" class="edge">
<title>Node2&#45;&gt;Node7</title>
<path fill="none" stroke="midnightblue" d="M1067.63,-289.18C925.33,-289.29 485.55,-286.14 350.5,-244 316.34,-233.34 281.86,-209.51 261.6,-193.85"/>
<polygon fill="midnightblue" stroke="midnightblue" points="263.61,-190.97 253.59,-187.51 259.26,-196.46 263.61,-190.97"/>
</g>
<!-- Node8 -->
<g id="node8" class="node">
<title>Node8</title>
<g id="a_node8"><a xlink:href="input_8hpp.html" target="_top" xlink:title="Input related functions.">
<polygon fill="white" stroke="black" points="208,-112.5 208,-131.5 279,-131.5 279,-112.5 208,-112.5"/>
<text text-anchor="middle" x="243.5" y="-119.5" font-family="'Consolas',monospace" font-size="10.00">input.hpp</text>
</a>
</g>
</g>
<!-- Node2&#45;&gt;Node8 -->
<g id="edge59" class="edge">
<title>Node2&#45;&gt;Node8</title>
<path fill="none" stroke="midnightblue" d="M1067.96,-288.09C981.59,-285.64 785.65,-276.62 624.5,-244 491.17,-217.01 338.65,-160.41 274.49,-135.37"/>
<polygon fill="midnightblue" stroke="midnightblue" points="275.56,-132.03 264.97,-131.63 273,-138.55 275.56,-132.03"/>
</g>
<!-- Node15 -->
<g id="node15" class="node">
<title>Node15</title>
<g id="a_node15"><a xlink:href="Drawable_8hpp.html" target="_top" xlink:title="Contains jngl::Drawable class.">
<polygon fill="white" stroke="black" points="1262,-112.5 1262,-131.5 1351,-131.5 1351,-112.5 1262,-112.5"/>
<text text-anchor="middle" x="1306.5" y="-119.5" font-family="'Consolas',monospace" font-size="10.00">Drawable.hpp</text>
</a>
</g>
</g>
<!-- Node2&#45;&gt;Node15 -->
<g id="edge15" class="edge">
<title>Node2&#45;&gt;Node15</title>
<path fill="none" stroke="midnightblue" d="M1129.04,-280.39C1158.01,-264.76 1218.82,-229.47 1260.5,-188 1274.85,-173.72 1287.84,-154.51 1296.32,-140.68"/>
<polygon fill="midnightblue" stroke="midnightblue" points="1299.56,-142.09 1301.66,-131.71 1293.54,-138.51 1299.56,-142.09"/>
</g>
<!-- Node16 -->
<g id="node16" class="node">
<title>Node16</title>
<g id="a_node16"><a xlink:href="Shader_8hpp.html" target="_top" xlink:title=" ">
<polygon fill="white" stroke="black" points="0,-224.5 0,-243.5 77,-243.5 77,-224.5 0,-224.5"/>
<text text-anchor="middle" x="38.5" y="-231.5" font-family="'Consolas',monospace" font-size="10.00">Shader.hpp</text>
</a>
</g>
</g>
<!-- Node2&#45;&gt;Node16 -->
<g id="edge17" class="edge">
<title>Node2&#45;&gt;Node16</title>
<path fill="none" stroke="midnightblue" d="M1067.91,-288.68C925.97,-287.32 472.09,-280.21 98.5,-244 94.82,-243.64 91.03,-243.22 87.22,-242.74"/>
<polygon fill="midnightblue" stroke="midnightblue" points="87.53,-239.25 77.16,-241.41 86.61,-246.19 87.53,-239.25"/>
</g>
<!-- Node17 -->
<g id="node17" class="node">
<title>Node17</title>
<g id="a_node17"><a xlink:href="ShaderProgram_8hpp.html" target="_top" xlink:title="Contains jngl::ShaderProgram class.">
<polygon fill="white" stroke="black" points="1086,-112.5 1086,-131.5 1205,-131.5 1205,-112.5 1086,-112.5"/>
<text text-anchor="middle" x="1145.5" y="-119.5" font-family="'Consolas',monospace" font-size="10.00">ShaderProgram.hpp</text>
</a>
</g>
</g>
<!-- Node2&#45;&gt;Node17 -->
<g id="edge19" class="edge">
<title>Node2&#45;&gt;Node17</title>
<path fill="none" stroke="midnightblue" d="M1115.3,-280.45C1118.16,-271.46 1122.59,-256.85 1125.5,-244 1133.62,-208.13 1139.89,-165.58 1143.1,-141.69"/>
<polygon fill="midnightblue" stroke="midnightblue" points="1146.6,-141.95 1144.44,-131.58 1139.66,-141.03 1146.6,-141.95"/>
</g>
<!-- Node19 -->
<g id="node19" class="node">
<title>Node19</title>
<g id="a_node19"><a xlink:href="SoundFile_8hpp.html" target="_top" xlink:title="Contains jngl::SoundFile class.">
<polygon fill="white" stroke="black" points="469,-112.5 469,-131.5 564,-131.5 564,-112.5 469,-112.5"/>
<text text-anchor="middle" x="516.5" y="-119.5" font-family="'Consolas',monospace" font-size="10.00">SoundFile.hpp</text>
</a>
</g>
</g>
<!-- Node2&#45;&gt;Node19 -->
<g id="edge24" class="edge">
<title>Node2&#45;&gt;Node19</title>
<path fill="none" stroke="midnightblue" d="M1067.73,-288.56C997.96,-286.75 859.76,-278.64 748.5,-244 665.38,-218.12 576.7,-163.18 537.36,-137.19"/>
<polygon fill="midnightblue" stroke="midnightblue" points="539.14,-134.17 528.88,-131.53 535.25,-139.99 539.14,-134.17"/>
</g>
<!-- Node20 -->
<g id="node20" class="node">
<title>Node20</title>
<g id="a_node20"><a xlink:href="Vertex_8hpp.html" target="_top" xlink:title=" ">
<polygon fill="white" stroke="black" points="1790,-56.5 1790,-75.5 1867,-75.5 1867,-56.5 1790,-56.5"/>
<text text-anchor="middle" x="1828.5" y="-63.5" font-family="'Consolas',monospace" font-size="10.00">Vertex.hpp</text>
</a>
</g>
</g>
<!-- Node2&#45;&gt;Node20 -->
<g id="edge28" class="edge">
<title>Node2&#45;&gt;Node20</title>
<path fill="none" stroke="midnightblue" d="M1157.1,-287.63C1275.74,-283.67 1597.01,-270.71 1699.5,-244 1756.84,-229.05 1784.31,-234.92 1820.5,-188 1843.35,-158.38 1838.33,-111.58 1833.12,-85.72"/>
<polygon fill="midnightblue" stroke="midnightblue" points="1836.49,-84.73 1830.89,-75.74 1829.66,-86.26 1836.49,-84.73"/>
</g>
<!-- Node21 -->
<g id="node21" class="node">
<title>Node21</title>
<g id="a_node21"><a xlink:href="Video_8hpp.html" target="_top" xlink:title=" ">
<polygon fill="white" stroke="black" points="1045,-224.5 1045,-243.5 1116,-243.5 1116,-224.5 1045,-224.5"/>
<text text-anchor="middle" x="1080.5" y="-231.5" font-family="'Consolas',monospace" font-size="10.00">Video.hpp</text>
</a>
</g>
</g>
<!-- Node2&#45;&gt;Node21 -->
<g id="edge29" class="edge">
<title>Node2&#45;&gt;Node21</title>
<path fill="none" stroke="midnightblue" d="M1107.22,-280.08C1102.79,-272.61 1096.34,-261.72 1090.88,-252.52"/>
<polygon fill="midnightblue" stroke="midnightblue" points="1093.79,-250.57 1085.69,-243.75 1087.77,-254.14 1093.79,-250.57"/>
</g>
<!-- Node22 -->
<g id="node22" class="node">
<title>Node22</title>
<g id="a_node22"><a xlink:href="sprite_8hpp.html" target="_top" xlink:title="Contains jngl::Sprite class and related functions.">
<polygon fill="white" stroke="black" points="1174,-168.5 1174,-187.5 1251,-187.5 1251,-168.5 1174,-168.5"/>
<text text-anchor="middle" x="1212.5" y="-175.5" font-family="'Consolas',monospace" font-size="10.00">sprite.hpp</text>
</a>
</g>
</g>
<!-- Node2&#45;&gt;Node22 -->
<g id="edge81" class="edge">
<title>Node2&#45;&gt;Node22</title>
<path fill="none" stroke="midnightblue" d="M1121.94,-280.31C1131.44,-271.43 1146.38,-257.14 1158.5,-244 1173.18,-228.07 1188.89,-208.9 1199.56,-195.51"/>
<polygon fill="midnightblue" stroke="midnightblue" points="1202.32,-197.67 1205.78,-187.65 1196.83,-193.32 1202.32,-197.67"/>
</g>
<!-- Node23 -->
<g id="node23" class="node">
<title>Node23</title>
<g id="a_node23"><a xlink:href="Widget_8hpp_source.html" target="_top" xlink:title=" ">
<polygon fill="white" stroke="black" points="374,-112.5 374,-131.5 451,-131.5 451,-112.5 374,-112.5"/>
<text text-anchor="middle" x="412.5" y="-119.5" font-family="'Consolas',monospace" font-size="10.00">Widget.hpp</text>
</a>
</g>
</g>
<!-- Node2&#45;&gt;Node23 -->
<g id="edge37" class="edge">
<title>Node2&#45;&gt;Node23</title>
<path fill="none" stroke="midnightblue" d="M1067.76,-288.63C989.97,-287.01 825.3,-279.29 691.5,-244 592.64,-217.93 483.69,-162.06 436.49,-136.39"/>
<polygon fill="midnightblue" stroke="midnightblue" points="438.09,-133.28 427.64,-131.54 434.72,-139.42 438.09,-133.28"/>
</g>
<!-- Node25 -->
<g id="node25" class="node">
<title>Node25</title>
<g id="a_node25"><a xlink:href="debug_8hpp_source.html" target="_top" xlink:title=" ">
<polygon fill="white" stroke="black" points="1350,-224.5 1350,-243.5 1421,-243.5 1421,-224.5 1350,-224.5"/>
<text text-anchor="middle" x="1385.5" y="-231.5" font-family="'Consolas',monospace" font-size="10.00">debug.hpp</text>
</a>
</g>
</g>
<!-- Node2&#45;&gt;Node25 -->
<g id="edge42" class="edge">
<title>Node2&#45;&gt;Node25</title>
<path fill="none" stroke="midnightblue" d="M1155.76,-280.44C1206.08,-270.49 1288.78,-254.13 1340.03,-243.99"/>
<polygon fill="midnightblue" stroke="midnightblue" points="1340.71,-247.43 1349.84,-242.05 1339.35,-240.56 1340.71,-247.43"/>
</g>
<!-- Node26 -->
<g id="node26" class="node">
<title>Node26</title>
<g id="a_node26"><a xlink:href="message_8hpp.html" target="_top" xlink:title=" ">
<polygon fill="white" stroke="black" points="1344,-168.5 1344,-187.5 1427,-187.5 1427,-168.5 1344,-168.5"/>
<text text-anchor="middle" x="1385.5" y="-175.5" font-family="'Consolas',monospace" font-size="10.00">message.hpp</text>
</a>
</g>
</g>
<!-- Node2&#45;&gt;Node26 -->
<g id="edge71" class="edge">
<title>Node2&#45;&gt;Node26</title>
<path fill="none" stroke="midnightblue" d="M1157.08,-282.81C1194.92,-276.43 1250,-264.48 1294.5,-244 1322.69,-231.03 1351.16,-208.91 1368.56,-194.13"/>
<polygon fill="midnightblue" stroke="midnightblue" points="1370.9,-196.73 1376.17,-187.54 1366.32,-191.44 1370.9,-196.73"/>
</g>
<!-- Node28 -->
<g id="node28" class="node">
<title>Node28</title>
<g id="a_node28"><a xlink:href="effects_8hpp_source.html" target="_top" xlink:title=" ">
<polygon fill="white" stroke="black" points="1897,-224.5 1897,-243.5 1974,-243.5 1974,-224.5 1897,-224.5"/>
<text text-anchor="middle" x="1935.5" y="-231.5" font-family="'Consolas',monospace" font-size="10.00">effects.hpp</text>
</a>
</g>
</g>
<!-- Node2&#45;&gt;Node28 -->
<g id="edge46" class="edge">
<title>Node2&#45;&gt;Node28</title>
<path fill="none" stroke="midnightblue" d="M1157.35,-288.1C1276.04,-285.34 1608.08,-275.22 1882.5,-244 1883.8,-243.85 1885.12,-243.69 1886.46,-243.52"/>
<polygon fill="midnightblue" stroke="midnightblue" points="1887.36,-246.93 1896.78,-242.08 1886.39,-240 1887.36,-246.93"/>
</g>
<!-- Node29 -->
<g id="node29" class="node">
<title>Node29</title>
<g id="a_node29"><a xlink:href="font_8hpp.html" target="_top" xlink:title="Contains jngl::Font class and related functions.">
<polygon fill="white" stroke="black" points="1484,-112.5 1484,-131.5 1549,-131.5 1549,-112.5 1484,-112.5"/>
<text text-anchor="middle" x="1516.5" y="-119.5" font-family="'Consolas',monospace" font-size="10.00">font.hpp</text>
</a>
</g>
</g>
<!-- Node2&#45;&gt;Node29 -->
<g id="edge47" class="edge">
<title>Node2&#45;&gt;Node29</title>
<path fill="none" stroke="midnightblue" d="M1157.2,-287C1233.61,-282.87 1385.49,-271.39 1430.5,-244 1470.73,-219.51 1497.35,-168.33 1509.29,-141.04"/>
<polygon fill="midnightblue" stroke="midnightblue" points="1512.62,-142.13 1513.26,-131.55 1506.17,-139.42 1512.62,-142.13"/>
</g>
<!-- Node30 -->
<g id="node30" class="node">
<title>Node30</title>
<g id="a_node30"><a xlink:href="framebuffer_8hpp.html" target="_top" xlink:title="Contains jngl::FrameBuffer class.">
<polygon fill="white" stroke="black" points="1567,-112.5 1567,-131.5 1668,-131.5 1668,-112.5 1567,-112.5"/>
<text text-anchor="middle" x="1617.5" y="-119.5" font-family="'Consolas',monospace" font-size="10.00">framebuffer.hpp</text>
</a>
</g>
</g>
<!-- Node2&#45;&gt;Node30 -->
<g id="edge52" class="edge">
<title>Node2&#45;&gt;Node30</title>
<path fill="none" stroke="midnightblue" d="M1157.15,-285.99C1237.53,-280.12 1403.17,-265.75 1456.5,-244 1517.23,-219.23 1575.41,-165.79 1602.17,-139"/>
<polygon fill="midnightblue" stroke="midnightblue" points="1604.92,-141.19 1609.43,-131.6 1599.93,-136.28 1604.92,-141.19"/>
</g>
<!-- Node31 -->
<g id="node31" class="node">
<title>Node31</title>
<g id="a_node31"><a xlink:href="job_8hpp.html" target="_top" xlink:title=" ">
<polygon fill="white" stroke="black" points="110,-168.5 110,-187.5 169,-187.5 169,-168.5 110,-168.5"/>
<text text-anchor="middle" x="139.5" y="-175.5" font-family="'Consolas',monospace" font-size="10.00">job.hpp</text>
</a>
</g>
</g>
<!-- Node2&#45;&gt;Node31 -->
<g id="edge60" class="edge">
<title>Node2&#45;&gt;Node31</title>
<path fill="none" stroke="midnightblue" d="M1067.94,-288.42C920.63,-286.19 450.25,-276.65 302.5,-244 251.82,-232.8 196.4,-207.72 165,-192.19"/>
<polygon fill="midnightblue" stroke="midnightblue" points="166.56,-189.06 156.05,-187.71 163.42,-195.32 166.56,-189.06"/>
</g>
<!-- Node32 -->
<g id="node32" class="node">
<title>Node32</title>
<g id="a_node32"><a xlink:href="main_8hpp_source.html" target="_top" xlink:title=" ">
<polygon fill="white" stroke="black" points="923,-168.5 923,-187.5 988,-187.5 988,-168.5 923,-168.5"/>
<text text-anchor="middle" x="955.5" y="-175.5" font-family="'Consolas',monospace" font-size="10.00">main.hpp</text>
</a>
</g>
</g>
<!-- Node2&#45;&gt;Node32 -->
<g id="edge62" class="edge">
<title>Node2&#45;&gt;Node32</title>
<path fill="none" stroke="midnightblue" d="M1078.45,-280.43C1055.32,-273.39 1024.96,-261.67 1002.5,-244 986.14,-231.13 972.86,-211.12 964.64,-196.71"/>
<polygon fill="midnightblue" stroke="midnightblue" points="967.63,-194.89 959.78,-187.77 961.48,-198.23 967.63,-194.89"/>
</g>
<!-- Node33 -->
<g id="node33" class="node">
<title>Node33</title>
<g id="a_node33"><a xlink:href="other_8hpp.html" target="_top" xlink:title=" ">
<polygon fill="white" stroke="black" points="920,-112.5 920,-131.5 991,-131.5 991,-112.5 920,-112.5"/>
<text text-anchor="middle" x="955.5" y="-119.5" font-family="'Consolas',monospace" font-size="10.00">other.hpp</text>
</a>
</g>
</g>
<!-- Node2&#45;&gt;Node33 -->
<g id="edge72" class="edge">
<title>Node2&#45;&gt;Node33</title>
<path fill="none" stroke="midnightblue" d="M1091.3,-280.4C1074.72,-272.81 1051.95,-260.41 1036.5,-244 1010.48,-216.35 1019.33,-199.06 997.5,-168 990.14,-157.53 980.48,-147.01 972.28,-138.78"/>
<polygon fill="midnightblue" stroke="midnightblue" points="974.59,-136.14 964.98,-131.66 969.7,-141.15 974.59,-136.14"/>
</g>
<!-- Node34 -->
<g id="node34" class="node">
<title>Node34</title>
<g id="a_node34"><a xlink:href="window_8hpp.html" target="_top" xlink:title="Functions related to the main window.">
<polygon fill="white" stroke="black" points="825,-112.5 825,-131.5 902,-131.5 902,-112.5 825,-112.5"/>
<text text-anchor="middle" x="863.5" y="-119.5" font-family="'Consolas',monospace" font-size="10.00">window.hpp</text>
</a>
</g>
</g>
<!-- Node2&#45;&gt;Node34 -->
<g id="edge88" class="edge">
<title>Node2&#45;&gt;Node34</title>
<path fill="none" stroke="midnightblue" d="M1075.04,-280.46C1047.46,-273.21 1009.67,-261.22 979.5,-244 932.93,-217.41 893.3,-166.41 874.75,-139.91"/>
<polygon fill="midnightblue" stroke="midnightblue" points="877.62,-137.92 869.09,-131.64 871.85,-141.87 877.62,-137.92"/>
</g>
<!-- Node35 -->
<g id="node35" class="node">
<title>Node35</title>
<g id="a_node35"><a xlink:href="matrix_8hpp.html" target="_top" xlink:title="Functions related to the global ModelView matrix.">
<polygon fill="white" stroke="black" points="1992,-224.5 1992,-243.5 2069,-243.5 2069,-224.5 1992,-224.5"/>
<text text-anchor="middle" x="2030.5" y="-231.5" font-family="'Consolas',monospace" font-size="10.00">matrix.hpp</text>
</a>
</g>
</g>
<!-- Node2&#45;&gt;Node35 -->
<g id="edge70" class="edge">
<title>Node2&#45;&gt;Node35</title>
<path fill="none" stroke="midnightblue" d="M1157.1,-288.86C1284.46,-287.99 1660.75,-282.22 1981.88,-244.04"/>
<polygon fill="midnightblue" stroke="midnightblue" points="1982.33,-247.51 1991.84,-242.84 1981.49,-240.56 1982.33,-247.51"/>
</g>
<!-- Node36 -->
<g id="node36" class="node">
<title>Node36</title>
<g id="a_node36"><a xlink:href="screen_8hpp.html" target="_top" xlink:title=" ">
<polygon fill="white" stroke="black" points="1630,-168.5 1630,-187.5 1707,-187.5 1707,-168.5 1630,-168.5"/>
<text text-anchor="middle" x="1668.5" y="-175.5" font-family="'Consolas',monospace" font-size="10.00">screen.hpp</text>
</a>
</g>
</g>
<!-- Node2&#45;&gt;Node36 -->
<g id="edge73" class="edge">
<title>Node2&#45;&gt;Node36</title>
<path fill="none" stroke="midnightblue" d="M1157.13,-288.06C1260.02,-285.38 1511,-275.7 1588.5,-244 1614.77,-233.25 1639.2,-210.87 1653.99,-195.39"/>
<polygon fill="midnightblue" stroke="midnightblue" points="1656.94,-197.35 1661.16,-187.63 1651.8,-192.6 1656.94,-197.35"/>
</g>
<!-- Node37 -->
<g id="node37" class="node">
<title>Node37</title>
<g id="a_node37"><a xlink:href="shapes_8hpp.html" target="_top" xlink:title="Functions for drawing shapes.">
<polygon fill="white" stroke="black" points="1725,-112.5 1725,-131.5 1802,-131.5 1802,-112.5 1725,-112.5"/>
<text text-anchor="middle" x="1763.5" y="-119.5" font-family="'Consolas',monospace" font-size="10.00">shapes.hpp</text>
</a>
</g>
</g>
<!-- Node2&#45;&gt;Node37 -->
<g id="edge75" class="edge">
<title>Node2&#45;&gt;Node37</title>
<path fill="none" stroke="midnightblue" d="M1157.21,-287.47C1264.3,-283.42 1532.98,-270.82 1618.5,-244 1666.37,-228.99 1679.18,-221.53 1716.5,-188 1731.82,-174.24 1745.12,-154.69 1753.63,-140.63"/>
<polygon fill="midnightblue" stroke="midnightblue" points="1756.7,-142.31 1758.71,-131.91 1750.65,-138.78 1756.7,-142.31"/>
</g>
<!-- Node38 -->
<g id="node38" class="node">
<title>Node38</title>
<g id="a_node38"><a xlink:href="sound_8hpp.html" target="_top" xlink:title="Sound related functions.">
<polygon fill="white" stroke="black" points="582,-112.5 582,-131.5 653,-131.5 653,-112.5 582,-112.5"/>
<text text-anchor="middle" x="617.5" y="-119.5" font-family="'Consolas',monospace" font-size="10.00">sound.hpp</text>
</a>
</g>
</g>
<!-- Node2&#45;&gt;Node38 -->
<g id="edge78" class="edge">
<title>Node2&#45;&gt;Node38</title>
<path fill="none" stroke="midnightblue" d="M1067.96,-289.02C1004.96,-287.65 887.16,-279.95 794.5,-244 729.12,-218.63 664.11,-165.07 634.33,-138.55"/>
<polygon fill="midnightblue" stroke="midnightblue" points="636.34,-135.65 626.58,-131.54 631.65,-140.84 636.34,-135.65"/>
</g>
<!-- Node39 -->
<g id="node39" class="node">
<title>Node39</title>
<g id="a_node39"><a xlink:href="text_8hpp.html" target="_top" xlink:title=" ">
<polygon fill="white" stroke="black" points="764,-168.5 764,-187.5 829,-187.5 829,-168.5 764,-168.5"/>
<text text-anchor="middle" x="796.5" y="-175.5" font-family="'Consolas',monospace" font-size="10.00">text.hpp</text>
</a>
</g>
</g>
<!-- Node2&#45;&gt;Node39 -->
<g id="edge82" class="edge">
<title>Node2&#45;&gt;Node39</title>
<path fill="none" stroke="midnightblue" d="M1067.95,-288.53C1016.34,-286.32 930,-277.37 864.5,-244 841.87,-232.47 821.65,-210.97 809.25,-195.86"/>
<polygon fill="midnightblue" stroke="midnightblue" points="811.85,-193.5 802.9,-187.83 806.36,-197.84 811.85,-193.5"/>
</g>
<!-- Node40 -->
<g id="node40" class="node">
<title>Node40</title>
<g id="a_node40"><a xlink:href="time_8hpp.html" target="_top" xlink:title="Timing functions.">
<polygon fill="white" stroke="black" points="2087,-224.5 2087,-243.5 2152,-243.5 2152,-224.5 2087,-224.5"/>
<text text-anchor="middle" x="2119.5" y="-231.5" font-family="'Consolas',monospace" font-size="10.00">time.hpp</text>
</a>
</g>
</g>
<!-- Node2&#45;&gt;Node40 -->
<g id="edge87" class="edge">
<title>Node2&#45;&gt;Node40</title>
<path fill="none" stroke="midnightblue" d="M1157.03,-289.6C1293.45,-290.87 1717.67,-290.61 2076.84,-244"/>
<polygon fill="midnightblue" stroke="midnightblue" points="2077.45,-247.45 2086.91,-242.68 2076.54,-240.51 2077.45,-247.45"/>
</g>
<!-- Node41 -->
<g id="node41" class="node">
<title>Node41</title>
<g id="a_node41"><a xlink:href="work_8hpp.html" target="_top" xlink:title=" ">
<polygon fill="white" stroke="black" points="107,-224.5 107,-243.5 172,-243.5 172,-224.5 107,-224.5"/>
<text text-anchor="middle" x="139.5" y="-231.5" font-family="'Consolas',monospace" font-size="10.00">work.hpp</text>
</a>
</g>
</g>
<!-- Node2&#45;&gt;Node41 -->
<g id="edge89" class="edge">
<title>Node2&#45;&gt;Node41</title>
<path fill="none" stroke="midnightblue" d="M1067.75,-287.21C939.48,-281.98 559.51,-265.66 244.5,-244 224.02,-242.59 201.32,-240.69 182.28,-239"/>
<polygon fill="midnightblue" stroke="midnightblue" points="182.39,-235.49 172.11,-238.08 181.76,-242.46 182.39,-235.49"/>
</g>
<!-- Node4 -->
<g id="node4" class="node">
<title>Node4</title>
<g id="a_node4"><a target="_parent" xlink:href="http://en.cppreference.com/w/cpp/header/memory.html" target="_top" xlink:title=" ">
<polygon fill="white" stroke="black" points="358,-56.5 358,-75.5 411,-75.5 411,-56.5 358,-56.5"/>
<text text-anchor="middle" x="384.5" y="-63.5" font-family="'Consolas',monospace" font-size="10.00">memory</text>
</a>
</g>
</g>
<!-- Node3&#45;&gt;Node4 -->
<g id="edge3" class="edge">
<title>Node3&#45;&gt;Node4</title>
<path fill="none" stroke="midnightblue" d="M670.68,-113.69C667.92,-113.08 665.16,-112.51 662.5,-112 558.85,-92.05 528.89,-96.9 421.14,-75.94"/>
<polygon fill="midnightblue" stroke="midnightblue" points="421.66,-72.48 411.17,-73.97 420.3,-79.35 421.66,-72.48"/>
</g>
<!-- Node5 -->
<g id="node5" class="node">
<title>Node5</title>
<g id="a_node5"><a target="_parent" xlink:href="http://en.cppreference.com/w/cpp/header/string.html" target="_top" xlink:title=" ">
<polygon fill="white" stroke="black" points="871,-56.5 871,-75.5 924,-75.5 924,-56.5 871,-56.5"/>
<text text-anchor="middle" x="897.5" y="-63.5" font-family="'Consolas',monospace" font-size="10.00">string</text>
</a>
</g>
</g>
<!-- Node3&#45;&gt;Node5 -->
<g id="edge4" class="edge">
<title>Node3&#45;&gt;Node5</title>
<path fill="none" stroke="midnightblue" d="M730.42,-112.8C765.35,-103.22 823.11,-87.39 860.74,-77.08"/>
<polygon fill="midnightblue" stroke="midnightblue" points="862.06,-80.34 870.78,-74.32 860.21,-73.59 862.06,-80.34"/>
</g>
<!-- Node7&#45;&gt;Node8 -->
<g id="edge7" class="edge">
<title>Node7&#45;&gt;Node8</title>
<path fill="none" stroke="midnightblue" d="M243.5,-168.08C243.5,-161.01 243.5,-150.86 243.5,-141.99"/>
<polygon fill="midnightblue" stroke="midnightblue" points="247,-141.75 243.5,-131.75 240,-141.75 247,-141.75"/>
</g>
<!-- Node14 -->
<g id="node14" class="node">
<title>Node14</title>
<g id="a_node14"><a target="_parent" xlink:href="http://en.cppreference.com/w/cpp/header/chrono.html" target="_top" xlink:title=" ">
<polygon fill="white" stroke="black" points="137,-112.5 137,-131.5 190,-131.5 190,-112.5 137,-112.5"/>
<text text-anchor="middle" x="163.5" y="-119.5" font-family="'Consolas',monospace" font-size="10.00">chrono</text>
</a>
</g>
</g>
<!-- Node7&#45;&gt;Node14 -->
<g id="edge14" class="edge">
<title>Node7&#45;&gt;Node14</title>
<path fill="none" stroke="midnightblue" d="M230.65,-168.32C218.28,-159.98 199.37,-147.21 184.76,-137.35"/>
<polygon fill="midnightblue" stroke="midnightblue" points="186.57,-134.35 176.32,-131.65 182.65,-140.15 186.57,-134.35"/>
</g>
<!-- Node8&#45;&gt;Node4 -->
<g id="edge12" class="edge">
<title>Node8&#45;&gt;Node4</title>
<path fill="none" stroke="midnightblue" d="M265.84,-112.44C289.25,-103.48 326.24,-89.31 352.69,-79.18"/>
<polygon fill="midnightblue" stroke="midnightblue" points="354.18,-82.36 362.26,-75.52 351.67,-75.82 354.18,-82.36"/>
</g>
<!-- Node9 -->
<g id="node9" class="node">
<title>Node9</title>
<g id="a_node9"><a xlink:href="Vec2_8hpp.html" target="_top" xlink:title=" ">
<polygon fill="white" stroke="black" points="1415,-56.5 1415,-75.5 1480,-75.5 1480,-56.5 1415,-56.5"/>
<text text-anchor="middle" x="1447.5" y="-63.5" font-family="'Consolas',monospace" font-size="10.00">Vec2.hpp</text>
</a>
</g>
</g>
<!-- Node8&#45;&gt;Node9 -->
<g id="edge8" class="edge">
<title>Node8&#45;&gt;Node9</title>
<path fill="none" stroke="midnightblue" d="M279.25,-118.06C303.55,-116.13 336.45,-113.68 365.5,-112 769.27,-88.72 1258.47,-72.79 1404.42,-68.3"/>
<polygon fill="midnightblue" stroke="midnightblue" points="1404.84,-71.78 1414.73,-67.98 1404.62,-64.79 1404.84,-71.78"/>
</g>
<!-- Node12 -->
<g id="node12" class="node">
<title>Node12</title>
<g id="a_node12"><a target="_parent" xlink:href="http://en.cppreference.com/w/cpp/header/functional.html" target="_top" xlink:title=" ">
<polygon fill="white" stroke="black" points="660,-0.5 660,-19.5 737,-19.5 737,-0.5 660,-0.5"/>
<text text-anchor="middle" x="698.5" y="-7.5" font-family="'Consolas',monospace" font-size="10.00">functional</text>
</a>
</g>
</g>
<!-- Node8&#45;&gt;Node12 -->
<g id="edge11" class="edge">
<title>Node8&#45;&gt;Node12</title>
<path fill="none" stroke="midnightblue" d="M254.15,-112.31C272.42,-97.92 311.43,-69.43 349.5,-56 452.11,-19.8 580.87,-12.19 649.73,-10.91"/>
<polygon fill="midnightblue" stroke="midnightblue" points="649.9,-14.41 659.85,-10.76 649.8,-7.41 649.9,-14.41"/>
</g>
<!-- Node13 -->
<g id="node13" class="node">
<title>Node13</title>
<g id="a_node13"><a target="_parent" xlink:href="http://en.cppreference.com/w/cpp/header/vector.html" target="_top" xlink:title=" ">
<polygon fill="white" stroke="black" points="732,-56.5 732,-75.5 785,-75.5 785,-56.5 732,-56.5"/>
<text text-anchor="middle" x="758.5" y="-63.5" font-family="'Consolas',monospace" font-size="10.00">vector</text>
</a>
</g>
</g>
<!-- Node8&#45;&gt;Node13 -->
<g id="edge13" class="edge">
<title>Node8&#45;&gt;Node13</title>
<path fill="none" stroke="midnightblue" d="M279.3,-117.25C373.41,-107.38 626.96,-80.79 721.93,-70.83"/>
<polygon fill="midnightblue" stroke="midnightblue" points="722.34,-74.31 731.92,-69.79 721.61,-67.35 722.34,-74.31"/>
</g>
<!-- Node10 -->
<g id="node10" class="node">
<title>Node10</title>
<g id="a_node10"><a xlink:title=" ">
<polygon fill="white" stroke="#bfbfbf" points="1440,-0.5 1440,-19.5 1559,-19.5 1559,-0.5 1440,-0.5"/>
<text text-anchor="middle" x="1499.5" y="-7.5" font-family="'Consolas',monospace" font-size="10.00">boost/version.hpp</text>
</a>
</g>
</g>
<!-- Node9&#45;&gt;Node10 -->
<g id="edge9" class="edge">
<title>Node9&#45;&gt;Node10</title>
<path fill="none" stroke="midnightblue" d="M1456.09,-56.08C1463.66,-48.22 1474.88,-36.57 1484.01,-27.08"/>
<polygon fill="midnightblue" stroke="midnightblue" points="1486.66,-29.38 1491.07,-19.75 1481.62,-24.53 1486.66,-29.38"/>
</g>
<!-- Node11 -->
<g id="node11" class="node">
<title>Node11</title>
<g id="a_node11"><a target="_parent" xlink:href="http://en.cppreference.com/w/cpp/header/iosfwd.html" target="_top" xlink:title=" ">
<polygon fill="white" stroke="black" points="1369,-0.5 1369,-19.5 1422,-19.5 1422,-0.5 1369,-0.5"/>
<text text-anchor="middle" x="1395.5" y="-7.5" font-family="'Consolas',monospace" font-size="10.00">iosfwd</text>
</a>
</g>
</g>
<!-- Node9&#45;&gt;Node11 -->
<g id="edge10" class="edge">
<title>Node9&#45;&gt;Node11</title>
<path fill="none" stroke="midnightblue" d="M1438.91,-56.08C1431.34,-48.22 1420.12,-36.57 1410.99,-27.08"/>
<polygon fill="midnightblue" stroke="midnightblue" points="1413.38,-24.53 1403.93,-19.75 1408.34,-29.38 1413.38,-24.53"/>
</g>
<!-- Node15&#45;&gt;Node9 -->
<g id="edge16" class="edge">
<title>Node15&#45;&gt;Node9</title>
<path fill="none" stroke="midnightblue" d="M1328.84,-112.44C1352.25,-103.48 1389.24,-89.31 1415.69,-79.18"/>
<polygon fill="midnightblue" stroke="midnightblue" points="1417.18,-82.36 1425.26,-75.52 1414.67,-75.82 1417.18,-82.36"/>
</g>
<!-- Node16&#45;&gt;Node4 -->
<g id="edge18" class="edge">
<title>Node16&#45;&gt;Node4</title>
<path fill="none" stroke="midnightblue" d="M40.46,-224.21C46.04,-201.47 64.25,-140.46 104.5,-112 143.04,-84.75 280.93,-73.08 347.72,-68.93"/>
<polygon fill="midnightblue" stroke="midnightblue" points="348.03,-72.42 357.8,-68.33 347.61,-65.43 348.03,-72.42"/>
</g>
<!-- Node17&#45;&gt;Node4 -->
<g id="edge22" class="edge">
<title>Node17&#45;&gt;Node4</title>
<path fill="none" stroke="midnightblue" d="M1085.86,-117.3C925.65,-107.35 493.6,-80.54 421.31,-75.12"/>
<polygon fill="midnightblue" stroke="midnightblue" points="421.39,-71.61 411.13,-74.23 420.79,-78.58 421.39,-71.61"/>
</g>
<!-- Node17&#45;&gt;Node5 -->
<g id="edge23" class="edge">
<title>Node17&#45;&gt;Node5</title>
<path fill="none" stroke="midnightblue" d="M1106.2,-112.44C1058.84,-102.13 979.9,-84.94 933.88,-74.92"/>
<polygon fill="midnightblue" stroke="midnightblue" points="934.55,-71.48 924.03,-72.78 933.06,-78.32 934.55,-71.48"/>
</g>
<!-- Node18 -->
<g id="node18" class="node">
<title>Node18</title>
<g id="a_node18"><a xlink:href="Finally_8hpp.html" target="_top" xlink:title=" ">
<polygon fill="white" stroke="black" points="1054,-56.5 1054,-75.5 1137,-75.5 1137,-56.5 1054,-56.5"/>
<text text-anchor="middle" x="1095.5" y="-63.5" font-family="'Consolas',monospace" font-size="10.00">Finally.hpp</text>
</a>
</g>
</g>
<!-- Node17&#45;&gt;Node18 -->
<g id="edge20" class="edge">
<title>Node17&#45;&gt;Node18</title>
<path fill="none" stroke="midnightblue" d="M1137.24,-112.08C1130.04,-104.3 1119.39,-92.8 1110.65,-83.37"/>
<polygon fill="midnightblue" stroke="midnightblue" points="1112.97,-80.71 1103.6,-75.75 1107.83,-85.47 1112.97,-80.71"/>
</g>
<!-- Node18&#45;&gt;Node12 -->
<g id="edge21" class="edge">
<title>Node18&#45;&gt;Node12</title>
<path fill="none" stroke="midnightblue" d="M1053.76,-59.32C979.75,-49.26 825.88,-28.33 747.17,-17.62"/>
<polygon fill="midnightblue" stroke="midnightblue" points="747.42,-14.12 737.04,-16.24 746.48,-21.06 747.42,-14.12"/>
</g>
<!-- Node19&#45;&gt;Node4 -->
<g id="edge25" class="edge">
<title>Node19&#45;&gt;Node4</title>
<path fill="none" stroke="midnightblue" d="M495.58,-112.44C473.76,-103.52 439.35,-89.44 414.61,-79.32"/>
<polygon fill="midnightblue" stroke="midnightblue" points="415.9,-76.06 405.32,-75.52 413.25,-82.54 415.9,-76.06"/>
</g>
<!-- Node19&#45;&gt;Node5 -->
<g id="edge26" class="edge">
<title>Node19&#45;&gt;Node5</title>
<path fill="none" stroke="midnightblue" d="M564.08,-113.42C567.26,-112.93 570.43,-112.46 573.5,-112 677.37,-96.59 800.21,-79.96 860.44,-71.92"/>
<polygon fill="midnightblue" stroke="midnightblue" points="861.14,-75.36 870.59,-70.56 860.22,-68.42 861.14,-75.36"/>
</g>
<!-- Node19&#45;&gt;Node13 -->
<g id="edge27" class="edge">
<title>Node19&#45;&gt;Node13</title>
<path fill="none" stroke="midnightblue" d="M554.85,-112.44C600.72,-102.21 676.95,-85.2 721.99,-75.15"/>
<polygon fill="midnightblue" stroke="midnightblue" points="722.92,-78.52 731.92,-72.93 721.4,-71.69 722.92,-78.52"/>
</g>
<!-- Node21&#45;&gt;Node4 -->
<g id="edge35" class="edge">
<title>Node21&#45;&gt;Node4</title>
<path fill="none" stroke="midnightblue" d="M1044.72,-230.73C904.97,-221.51 401.42,-184.8 355.5,-132 343.16,-117.81 355.73,-97.53 367.96,-83.41"/>
<polygon fill="midnightblue" stroke="midnightblue" points="370.69,-85.61 374.93,-75.9 365.56,-80.85 370.69,-85.61"/>
</g>
<!-- Node21&#45;&gt;Node5 -->
<g id="edge36" class="edge">
<title>Node21&#45;&gt;Node5</title>
<path fill="none" stroke="midnightblue" d="M1076.94,-224.46C1067.54,-202.83 1040.01,-145.23 1000.5,-112 981.16,-95.74 955.03,-84.41 933.93,-77.19"/>
<polygon fill="midnightblue" stroke="midnightblue" points="934.92,-73.83 924.33,-74.07 932.76,-80.49 934.92,-73.83"/>
</g>
<!-- Node21&#45;&gt;Node22 -->
<g id="edge30" class="edge">
<title>Node21&#45;&gt;Node22</title>
<path fill="none" stroke="midnightblue" d="M1101.42,-224.44C1123.24,-215.52 1157.65,-201.44 1182.39,-191.32"/>
<polygon fill="midnightblue" stroke="midnightblue" points="1183.75,-194.54 1191.68,-187.52 1181.1,-188.06 1183.75,-194.54"/>
</g>
<!-- Node22&#45;&gt;Node9 -->
<g id="edge33" class="edge">
<title>Node22&#45;&gt;Node9</title>
<path fill="none" stroke="midnightblue" d="M1251.3,-169.09C1282,-161.93 1325.39,-149.76 1360.5,-132 1386.86,-118.66 1413.54,-97.3 1430.28,-82.74"/>
<polygon fill="midnightblue" stroke="midnightblue" points="1432.92,-85.07 1438.07,-75.82 1428.27,-79.84 1432.92,-85.07"/>
</g>
<!-- Node22&#45;&gt;Node13 -->
<g id="edge34" class="edge">
<title>Node22&#45;&gt;Node13</title>
<path fill="none" stroke="midnightblue" d="M1216.2,-168.12C1221.31,-154.24 1228.45,-127.39 1214.5,-112 1210.97,-108.11 902.85,-80.01 795.16,-70.29"/>
<polygon fill="midnightblue" stroke="midnightblue" points="795.36,-66.8 785.08,-69.38 794.73,-73.77 795.36,-66.8"/>
</g>
<!-- Node22&#45;&gt;Node15 -->
<g id="edge31" class="edge">
<title>Node22&#45;&gt;Node15</title>
<path fill="none" stroke="midnightblue" d="M1227.6,-168.32C1242.4,-159.82 1265.19,-146.73 1282.48,-136.8"/>
<polygon fill="midnightblue" stroke="midnightblue" points="1284.51,-139.67 1291.43,-131.65 1281.02,-133.6 1284.51,-139.67"/>
</g>
<!-- Node22&#45;&gt;Node17 -->
<g id="edge32" class="edge">
<title>Node22&#45;&gt;Node17</title>
<path fill="none" stroke="midnightblue" d="M1201.74,-168.32C1191.73,-160.26 1176.61,-148.08 1164.57,-138.37"/>
<polygon fill="midnightblue" stroke="midnightblue" points="1166.44,-135.38 1156.46,-131.83 1162.05,-140.83 1166.44,-135.38"/>
</g>
<!-- Node23&#45;&gt;Node4 -->
<g id="edge39" class="edge">
<title>Node23&#45;&gt;Node4</title>
<path fill="none" stroke="midnightblue" d="M407.88,-112.08C404.04,-104.69 398.48,-93.95 393.74,-84.81"/>
<polygon fill="midnightblue" stroke="midnightblue" points="396.75,-83.02 389.04,-75.75 390.53,-86.24 396.75,-83.02"/>
</g>
<!-- Node23&#45;&gt;Node9 -->
<g id="edge38" class="edge">
<title>Node23&#45;&gt;Node9</title>
<path fill="none" stroke="midnightblue" d="M451.2,-113.26C454.34,-112.78 457.47,-112.35 460.5,-112 647.45,-90.32 1239.07,-72.74 1404.28,-68.17"/>
<polygon fill="midnightblue" stroke="midnightblue" points="1404.64,-71.66 1414.54,-67.88 1404.44,-64.66 1404.64,-71.66"/>
</g>
<!-- Node23&#45;&gt;Node13 -->
<g id="edge41" class="edge">
<title>Node23&#45;&gt;Node13</title>
<path fill="none" stroke="midnightblue" d="M451.25,-113.61C454.38,-113.05 457.49,-112.51 460.5,-112 554.28,-96.13 665.14,-80.11 721.53,-72.15"/>
<polygon fill="midnightblue" stroke="midnightblue" points="722.32,-75.58 731.74,-70.72 721.35,-68.64 722.32,-75.58"/>
</g>
<!-- Node24 -->
<g id="node24" class="node">
<title>Node24</title>
<g id="a_node24"><a target="_parent" xlink:href="http://en.cppreference.com/w/cpp/header/set.html" target="_top" xlink:title=" ">
<polygon fill="white" stroke="black" points="429,-56.5 429,-75.5 464,-75.5 464,-56.5 429,-56.5"/>
<text text-anchor="middle" x="446.5" y="-63.5" font-family="'Consolas',monospace" font-size="10.00">set</text>
</a>
</g>
</g>
<!-- Node23&#45;&gt;Node24 -->
<g id="edge40" class="edge">
<title>Node23&#45;&gt;Node24</title>
<path fill="none" stroke="midnightblue" d="M418.11,-112.08C422.87,-104.53 429.82,-93.49 435.65,-84.23"/>
<polygon fill="midnightblue" stroke="midnightblue" points="438.62,-86.08 440.99,-75.75 432.7,-82.35 438.62,-86.08"/>
</g>
<!-- Node25&#45;&gt;Node26 -->
<g id="edge43" class="edge">
<title>Node25&#45;&gt;Node26</title>
<path fill="none" stroke="midnightblue" d="M1385.5,-224.08C1385.5,-217.01 1385.5,-206.86 1385.5,-197.99"/>
<polygon fill="midnightblue" stroke="midnightblue" points="1389,-197.75 1385.5,-187.75 1382,-197.75 1389,-197.75"/>
</g>
<!-- Node27 -->
<g id="node27" class="node">
<title>Node27</title>
<g id="a_node27"><a target="_parent" xlink:href="http://en.cppreference.com/w/cpp/header/sstream.html" target="_top" xlink:title=" ">
<polygon fill="white" stroke="black" points="951,-56.5 951,-75.5 1010,-75.5 1010,-56.5 951,-56.5"/>
<text text-anchor="middle" x="980.5" y="-63.5" font-family="'Consolas',monospace" font-size="10.00">sstream</text>
</a>
</g>
</g>
<!-- Node25&#45;&gt;Node27 -->
<g id="edge45" class="edge">
<title>Node25&#45;&gt;Node27</title>
<path fill="none" stroke="midnightblue" d="M1401.23,-224.24C1413.39,-216.48 1429.31,-203.93 1436.5,-188 1453.65,-150 1419.03,-130.16 1381.5,-112 1246.3,-46.6 1194.57,-94.3 1045.5,-76 1037.3,-74.99 1028.53,-73.83 1020.17,-72.69"/>
<polygon fill="midnightblue" stroke="midnightblue" points="1020.63,-69.22 1010.24,-71.31 1019.67,-76.16 1020.63,-69.22"/>
</g>
<!-- Node26&#45;&gt;Node5 -->
<g id="edge44" class="edge">
<title>Node26&#45;&gt;Node5</title>
<path fill="none" stroke="midnightblue" d="M1384.95,-168.11C1383.53,-153.7 1378.47,-125.52 1360.5,-112 1285.98,-55.97 1034.8,-89.16 942.5,-76 939.78,-75.61 936.98,-75.17 934.17,-74.68"/>
<polygon fill="midnightblue" stroke="midnightblue" points="934.53,-71.19 924.07,-72.82 933.27,-78.08 934.53,-71.19"/>
</g>
<!-- Node29&#45;&gt;Node4 -->
<g id="edge50" class="edge">
<title>Node29&#45;&gt;Node4</title>
<path fill="none" stroke="midnightblue" d="M1483.94,-118.94C1452.39,-116.98 1403.18,-114.05 1360.5,-112 946.26,-92.12 836.17,-134.33 421.28,-75.75"/>
<polygon fill="midnightblue" stroke="midnightblue" points="421.51,-72.25 411.11,-74.3 420.52,-79.18 421.51,-72.25"/>
</g>
<!-- Node29&#45;&gt;Node5 -->
<g id="edge51" class="edge">
<title>Node29&#45;&gt;Node5</title>
<path fill="none" stroke="midnightblue" d="M1483.83,-117.29C1468.03,-115.56 1448.79,-113.55 1431.5,-112 1214.45,-92.52 1158.43,-105.43 942.5,-76 939.78,-75.63 936.98,-75.2 934.17,-74.72"/>
<polygon fill="midnightblue" stroke="midnightblue" points="934.52,-71.23 924.06,-72.88 933.27,-78.12 934.52,-71.23"/>
</g>
<!-- Node29&#45;&gt;Node6 -->
<g id="edge48" class="edge">
<title>Node29&#45;&gt;Node6</title>
<path fill="none" stroke="midnightblue" d="M1538.84,-112.44C1562.25,-103.48 1599.24,-89.31 1625.69,-79.18"/>
<polygon fill="midnightblue" stroke="midnightblue" points="1627.18,-82.36 1635.26,-75.52 1624.67,-75.82 1627.18,-82.36"/>
</g>
<!-- Node29&#45;&gt;Node9 -->
<g id="edge49" class="edge">
<title>Node29&#45;&gt;Node9</title>
<path fill="none" stroke="midnightblue" d="M1505.41,-112.32C1495.01,-104.18 1479.24,-91.84 1466.78,-82.09"/>
<polygon fill="midnightblue" stroke="midnightblue" points="1468.82,-79.24 1458.79,-75.83 1464.51,-84.75 1468.82,-79.24"/>
</g>
<!-- Node30&#45;&gt;Node4 -->
<g id="edge57" class="edge">
<title>Node30&#45;&gt;Node4</title>
<path fill="none" stroke="midnightblue" d="M1566.7,-112.86C1563.93,-112.54 1561.18,-112.25 1558.5,-112 1057.91,-66.07 923.47,-144.71 421.16,-75.72"/>
<polygon fill="midnightblue" stroke="midnightblue" points="421.5,-72.23 411.11,-74.33 420.54,-79.17 421.5,-72.23"/>
</g>
<!-- Node30&#45;&gt;Node6 -->
<g id="edge53" class="edge">
<title>Node30&#45;&gt;Node6</title>
<path fill="none" stroke="midnightblue" d="M1624.11,-112.08C1629.76,-104.46 1638.04,-93.26 1644.95,-83.94"/>
<polygon fill="midnightblue" stroke="midnightblue" points="1647.88,-85.87 1651.02,-75.75 1642.25,-81.7 1647.88,-85.87"/>
</g>
<!-- Node30&#45;&gt;Node9 -->
<g id="edge55" class="edge">
<title>Node30&#45;&gt;Node9</title>
<path fill="none" stroke="midnightblue" d="M1590.56,-112.44C1561.84,-103.32 1516.17,-88.81 1484.18,-78.65"/>
<polygon fill="midnightblue" stroke="midnightblue" points="1484.9,-75.21 1474.31,-75.52 1482.78,-81.88 1484.9,-75.21"/>
</g>
<!-- Node30&#45;&gt;Node13 -->
<g id="edge58" class="edge">
<title>Node30&#45;&gt;Node13</title>
<path fill="none" stroke="midnightblue" d="M1566.69,-112.92C1563.92,-112.58 1561.18,-112.27 1558.5,-112 1250.35,-80.61 1171.51,-97.36 862.5,-76 840.28,-74.46 815.42,-72.33 795.58,-70.52"/>
<polygon fill="midnightblue" stroke="midnightblue" points="795.69,-67.02 785.42,-69.59 795.05,-73.99 795.69,-67.02"/>
</g>
<!-- Node30&#45;&gt;Node18 -->
<g id="edge54" class="edge">
<title>Node30&#45;&gt;Node18</title>
<path fill="none" stroke="midnightblue" d="M1566.99,-113.11C1564.12,-112.72 1561.28,-112.35 1558.5,-112 1409.49,-93.41 1232.68,-78.08 1147.07,-71.09"/>
<polygon fill="midnightblue" stroke="midnightblue" points="1147.34,-67.6 1137.09,-70.28 1146.77,-74.58 1147.34,-67.6"/>
</g>
<!-- Node30&#45;&gt;Node20 -->
<g id="edge56" class="edge">
<title>Node30&#45;&gt;Node20</title>
<path fill="none" stroke="midnightblue" d="M1650.93,-112.44C1687.36,-103.12 1745.73,-88.18 1785.53,-78"/>
<polygon fill="midnightblue" stroke="midnightblue" points="1786.4,-81.39 1795.22,-75.52 1784.67,-74.61 1786.4,-81.39"/>
</g>
<!-- Node31&#45;&gt;Node4 -->
<g id="edge61" class="edge">
<title>Node31&#45;&gt;Node4</title>
<path fill="none" stroke="midnightblue" d="M134.17,-168.29C126.57,-154.65 114.96,-128.13 128.5,-112 156.05,-79.18 283.63,-70.29 347.65,-67.89"/>
<polygon fill="midnightblue" stroke="midnightblue" points="347.85,-71.38 357.72,-67.54 347.61,-64.39 347.85,-71.38"/>
</g>
<!-- Node32&#45;&gt;Node18 -->
<g id="edge63" class="edge">
<title>Node32&#45;&gt;Node18</title>
<path fill="none" stroke="midnightblue" d="M966.49,-168.37C990.31,-149.65 1046.94,-105.15 1076.62,-81.83"/>
<polygon fill="midnightblue" stroke="midnightblue" points="1078.86,-84.52 1084.57,-75.59 1074.54,-79.02 1078.86,-84.52"/>
</g>
<!-- Node32&#45;&gt;Node33 -->
<g id="edge64" class="edge">
<title>Node32&#45;&gt;Node33</title>
<path fill="none" stroke="midnightblue" d="M955.5,-168.08C955.5,-161.01 955.5,-150.86 955.5,-141.99"/>
<polygon fill="midnightblue" stroke="midnightblue" points="959,-141.75 955.5,-131.75 952,-141.75 959,-141.75"/>
</g>
<!-- Node32&#45;&gt;Node34 -->
<g id="edge68" class="edge">
<title>Node32&#45;&gt;Node34</title>
<path fill="none" stroke="midnightblue" d="M940.72,-168.32C926.23,-159.82 903.93,-146.73 887.01,-136.8"/>
<polygon fill="midnightblue" stroke="midnightblue" points="888.64,-133.7 878.24,-131.65 885.1,-139.74 888.64,-133.7"/>
</g>
<!-- Node33&#45;&gt;Node5 -->
<g id="edge66" class="edge">
<title>Node33&#45;&gt;Node5</title>
<path fill="none" stroke="midnightblue" d="M946.18,-112.32C937.61,-104.34 924.69,-92.31 914.31,-82.65"/>
<polygon fill="midnightblue" stroke="midnightblue" points="916.69,-80.09 906.99,-75.83 911.92,-85.21 916.69,-80.09"/>
</g>
<!-- Node33&#45;&gt;Node13 -->
<g id="edge67" class="edge">
<title>Node33&#45;&gt;Node13</title>
<path fill="none" stroke="midnightblue" d="M924.28,-112.44C889.18,-102.82 832.23,-87.21 795.07,-77.02"/>
<polygon fill="midnightblue" stroke="midnightblue" points="795.72,-73.57 785.15,-74.3 793.87,-80.32 795.72,-73.57"/>
</g>
<!-- Node33&#45;&gt;Node27 -->
<g id="edge65" class="edge">
<title>Node33&#45;&gt;Node27</title>
<path fill="none" stroke="midnightblue" d="M959.63,-112.08C963.01,-104.77 967.92,-94.18 972.12,-85.1"/>
<polygon fill="midnightblue" stroke="midnightblue" points="975.42,-86.3 976.45,-75.75 969.07,-83.36 975.42,-86.3"/>
</g>
<!-- Node34&#45;&gt;Node5 -->
<g id="edge69" class="edge">
<title>Node34&#45;&gt;Node5</title>
<path fill="none" stroke="midnightblue" d="M869.11,-112.08C873.87,-104.53 880.82,-93.49 886.65,-84.23"/>
<polygon fill="midnightblue" stroke="midnightblue" points="889.62,-86.08 891.99,-75.75 883.7,-82.35 889.62,-86.08"/>
</g>
<!-- Node36&#45;&gt;Node9 -->
<g id="edge74" class="edge">
<title>Node36&#45;&gt;Node9</title>
<path fill="none" stroke="midnightblue" d="M1673.4,-168.31C1680.35,-154.68 1690.82,-128.18 1677.5,-112 1654.26,-83.78 1550.31,-73 1490.41,-69.09"/>
<polygon fill="midnightblue" stroke="midnightblue" points="1490.32,-65.58 1480.13,-68.45 1489.89,-72.56 1490.32,-65.58"/>
</g>
<!-- Node37&#45;&gt;Node6 -->
<g id="edge76" class="edge">
<title>Node37&#45;&gt;Node6</title>
<path fill="none" stroke="midnightblue" d="M1746.47,-112.32C1729.47,-103.66 1703.12,-90.24 1683.51,-80.25"/>
<polygon fill="midnightblue" stroke="midnightblue" points="1684.99,-77.08 1674.49,-75.65 1681.81,-83.31 1684.99,-77.08"/>
</g>
<!-- Node37&#45;&gt;Node9 -->
<g id="edge77" class="edge">
<title>Node37&#45;&gt;Node9</title>
<path fill="none" stroke="midnightblue" d="M1724.75,-114.38C1665.39,-104.24 1552.35,-84.92 1490.53,-74.35"/>
<polygon fill="midnightblue" stroke="midnightblue" points="1490.78,-70.84 1480.33,-72.61 1489.6,-77.74 1490.78,-70.84"/>
</g>
<!-- Node38&#45;&gt;Node4 -->
<g id="edge79" class="edge">
<title>Node38&#45;&gt;Node4</title>
<path fill="none" stroke="midnightblue" d="M581.86,-113.09C544.37,-104.72 483.39,-90.95 421.21,-76.13"/>
<polygon fill="midnightblue" stroke="midnightblue" points="421.76,-72.67 411.22,-73.74 420.13,-79.47 421.76,-72.67"/>
</g>
<!-- Node38&#45;&gt;Node5 -->
<g id="edge80" class="edge">
<title>Node38&#45;&gt;Node5</title>
<path fill="none" stroke="midnightblue" d="M653.36,-113.8C656.45,-113.19 659.53,-112.58 662.5,-112 732.61,-98.28 814.59,-82.68 860.84,-73.92"/>
<polygon fill="midnightblue" stroke="midnightblue" points="861.53,-77.36 870.7,-72.06 860.23,-70.48 861.53,-77.36"/>
</g>
<!-- Node39&#45;&gt;Node4 -->
<g id="edge84" class="edge">
<title>Node39&#45;&gt;Node4</title>
<path fill="none" stroke="midnightblue" d="M763.86,-174.78C665.66,-167.95 378.85,-146.81 365.5,-132 353.62,-118.82 362.35,-98.58 371.52,-84.2"/>
<polygon fill="midnightblue" stroke="midnightblue" points="374.58,-85.93 377.4,-75.72 368.83,-81.94 374.58,-85.93"/>
</g>
<!-- Node39&#45;&gt;Node5 -->
<g id="edge85" class="edge">
<title>Node39&#45;&gt;Node5</title>
<path fill="none" stroke="midnightblue" d="M797.11,-168.47C798.47,-155.07 802.82,-128.88 816.5,-112 828.24,-97.51 845.96,-86.92 861.84,-79.66"/>
<polygon fill="midnightblue" stroke="midnightblue" points="863.59,-82.72 871.41,-75.57 860.84,-76.28 863.59,-82.72"/>
</g>
<!-- Node39&#45;&gt;Node13 -->
<g id="edge86" class="edge">
<title>Node39&#45;&gt;Node13</title>
<path fill="none" stroke="midnightblue" d="M793.52,-168.37C787.36,-150.54 773.11,-109.3 764.81,-85.27"/>
<polygon fill="midnightblue" stroke="midnightblue" points="768.04,-83.9 761.47,-75.59 761.43,-86.19 768.04,-83.9"/>
</g>
<!-- Node39&#45;&gt;Node15 -->
<g id="edge83" class="edge">
<title>Node39&#45;&gt;Node15</title>
<path fill="none" stroke="midnightblue" d="M829.18,-173.54C914.6,-164.49 1145.28,-140.07 1251.54,-128.82"/>
<polygon fill="midnightblue" stroke="midnightblue" points="1252.16,-132.27 1261.73,-127.74 1251.42,-125.31 1252.16,-132.27"/>
</g>
<!-- Node41&#45;&gt;Node4 -->
<g id="edge91" class="edge">
<title>Node41&#45;&gt;Node4</title>
<path fill="none" stroke="midnightblue" d="M128.79,-224.3C119.56,-216.07 106.91,-202.79 101.5,-188 92.88,-164.43 116.17,-113.19 117.5,-112 150.86,-82.17 282.29,-71.82 347.46,-68.47"/>
<polygon fill="midnightblue" stroke="midnightblue" points="347.88,-71.96 357.7,-67.98 347.54,-64.97 347.88,-71.96"/>
</g>
<!-- Node41&#45;&gt;Node31 -->
<g id="edge90" class="edge">
<title>Node41&#45;&gt;Node31</title>
<path fill="none" stroke="midnightblue" d="M139.5,-224.08C139.5,-217.01 139.5,-206.86 139.5,-197.99"/>
<polygon fill="midnightblue" stroke="midnightblue" points="143,-197.75 139.5,-187.75 136,-197.75 143,-197.75"/>
</g>
</g>
</svg>
