<?xml version="1.0" encoding="UTF-8" standalone="no"?>
<!DOCTYPE svg PUBLIC "-//W3C//DTD SVG 1.1//EN"
 "http://www.w3.org/Graphics/SVG/1.1/DTD/svg11.dtd">
<!-- Generated by graphviz version 2.42.4 (0)
 -->
<!-- Title: jngl.hpp Pages: 1 -->
<svg width="2019pt" height="364pt"
 viewBox="0.00 0.00 2019.00 364.00" xmlns="http://www.w3.org/2000/svg" xmlns:xlink="http://www.w3.org/1999/xlink">
<g id="graph0" class="graph" transform="scale(1 1) rotate(0) translate(4 360)">
<title>jngl.hpp</title>
<polygon fill="white" stroke="transparent" points="-4,4 -4,-360 2015,-360 2015,4 -4,4"/>
<!-- Node1 -->
<g id="node1" class="node">
<title>Node1</title>
<g id="a_node1"><a xlink:title="Includes jngl/all.hpp.">
<polygon fill="#bfbfbf" stroke="black" points="995,-336.5 995,-355.5 1060,-355.5 1060,-336.5 995,-336.5"/>
<text text-anchor="middle" x="1027.5" y="-343.5" font-family="'Consolas',monospace" font-size="10.00">jngl.hpp</text>
</a>
</g>
</g>
<!-- Node2 -->
<g id="node2" class="node">
<title>Node2</title>
<g id="a_node2"><a xlink:href="all_8hpp.html" target="_top" xlink:title="Includes all JNGL headers except for init.hpp.">
<polygon fill="white" stroke="black" points="983,-280.5 983,-299.5 1072,-299.5 1072,-280.5 983,-280.5"/>
<text text-anchor="middle" x="1027.5" y="-287.5" font-family="'Consolas',monospace" font-size="10.00">jngl/all.hpp</text>
</a>
</g>
</g>
<!-- Node1&#45;&gt;Node2 -->
<g id="edge1" class="edge">
<title>Node1&#45;&gt;Node2</title>
<path fill="none" stroke="midnightblue" d="M1027.5,-336.08C1027.5,-329.01 1027.5,-318.86 1027.5,-309.99"/>
<polygon fill="midnightblue" stroke="midnightblue" points="1031,-309.75 1027.5,-299.75 1024,-309.75 1031,-309.75"/>
</g>
<!-- Node3 -->
<g id="node3" class="node">
<title>Node3</title>
<g id="a_node3"><a xlink:href="App_8hpp.html" target="_top" xlink:title=" ">
<polygon fill="white" stroke="black" points="184,-112.5 184,-131.5 243,-131.5 243,-112.5 184,-112.5"/>
<text text-anchor="middle" x="213.5" y="-119.5" font-family="'Consolas',monospace" font-size="10.00">App.hpp</text>
</a>
</g>
</g>
<!-- Node2&#45;&gt;Node3 -->
<g id="edge2" class="edge">
<title>Node2&#45;&gt;Node3</title>
<path fill="none" stroke="midnightblue" d="M982.79,-288.67C858.12,-287.28 508.65,-280.2 400.5,-244 331.12,-220.78 262.14,-165.78 230.88,-138.67"/>
<polygon fill="midnightblue" stroke="midnightblue" points="232.91,-135.79 223.09,-131.81 228.28,-141.05 232.91,-135.79"/>
</g>
<!-- Node6 -->
<g id="node6" class="node">
<title>Node6</title>
<g id="a_node6"><a xlink:href="Color_8hpp.html" target="_top" xlink:title=" ">
<polygon fill="white" stroke="black" points="1576,-56.5 1576,-75.5 1647,-75.5 1647,-56.5 1576,-56.5"/>
<text text-anchor="middle" x="1611.5" y="-63.5" font-family="'Consolas',monospace" font-size="10.00">Color.hpp</text>
</a>
</g>
</g>
<!-- Node2&#45;&gt;Node6 -->
<g id="edge5" class="edge">
<title>Node2&#45;&gt;Node6</title>
<path fill="none" stroke="midnightblue" d="M1072.19,-287.96C1187.16,-284.87 1490.82,-274.04 1586.5,-244 1676.04,-215.89 1721.45,-214.86 1765.5,-132 1789.05,-87.71 1710.58,-73.59 1657.13,-69.1"/>
<polygon fill="midnightblue" stroke="midnightblue" points="1657.38,-65.61 1647.14,-68.34 1656.85,-72.59 1657.38,-65.61"/>
</g>
<!-- Node7 -->
<g id="node7" class="node">
<title>Node7</title>
<g id="a_node7"><a xlink:href="Controller_8hpp.html" target="_top" xlink:title=" ">
<polygon fill="white" stroke="black" points="1248,-168.5 1248,-187.5 1349,-187.5 1349,-168.5 1248,-168.5"/>
<text text-anchor="middle" x="1298.5" y="-175.5" font-family="'Consolas',monospace" font-size="10.00">Controller.hpp</text>
</a>
</g>
</g>
<!-- Node2&#45;&gt;Node7 -->
<g id="edge6" class="edge">
<title>Node2&#45;&gt;Node7</title>
<path fill="none" stroke="midnightblue" d="M1072.23,-286.5C1115.75,-282.45 1182.59,-271.83 1233.5,-244 1255.07,-232.21 1274.21,-211.08 1286.04,-196.11"/>
<polygon fill="midnightblue" stroke="midnightblue" points="1289.15,-197.81 1292.42,-187.73 1283.58,-193.57 1289.15,-197.81"/>
</g>
<!-- Node8 -->
<g id="node8" class="node">
<title>Node8</title>
<g id="a_node8"><a xlink:href="input_8hpp.html" target="_top" xlink:title="Input related functions.">
<polygon fill="white" stroke="black" points="1215,-112.5 1215,-131.5 1286,-131.5 1286,-112.5 1215,-112.5"/>
<text text-anchor="middle" x="1250.5" y="-119.5" font-family="'Consolas',monospace" font-size="10.00">input.hpp</text>
</a>
</g>
</g>
<!-- Node2&#45;&gt;Node8 -->
<g id="edge53" class="edge">
<title>Node2&#45;&gt;Node8</title>
<path fill="none" stroke="midnightblue" d="M1049.09,-280.45C1084.13,-265.74 1154.13,-232.86 1200.5,-188 1215.63,-173.36 1229.96,-153.95 1239.37,-140.16"/>
<polygon fill="midnightblue" stroke="midnightblue" points="1242.42,-141.9 1245.05,-131.64 1236.59,-138.02 1242.42,-141.9"/>
</g>
<!-- Node15 -->
<g id="node15" class="node">
<title>Node15</title>
<g id="a_node15"><a xlink:href="Drawable_8hpp.html" target="_top" xlink:title="Contains jngl::Drawable class.">
<polygon fill="white" stroke="black" points="1343,-112.5 1343,-131.5 1432,-131.5 1432,-112.5 1343,-112.5"/>
<text text-anchor="middle" x="1387.5" y="-119.5" font-family="'Consolas',monospace" font-size="10.00">Drawable.hpp</text>
</a>
</g>
</g>
<!-- Node2&#45;&gt;Node15 -->
<g id="edge15" class="edge">
<title>Node2&#45;&gt;Node15</title>
<path fill="none" stroke="midnightblue" d="M1072.04,-284.79C1119.82,-279.27 1197.34,-267.41 1260.5,-244 1307.54,-226.56 1324.84,-225.19 1358.5,-188 1370.54,-174.7 1378.25,-155.58 1382.67,-141.52"/>
<polygon fill="midnightblue" stroke="midnightblue" points="1386.14,-142.11 1385.53,-131.53 1379.41,-140.18 1386.14,-142.11"/>
</g>
<!-- Node16 -->
<g id="node16" class="node">
<title>Node16</title>
<g id="a_node16"><a xlink:href="Shader_8hpp.html" target="_top" xlink:title=" ">
<polygon fill="white" stroke="black" points="0,-224.5 0,-243.5 77,-243.5 77,-224.5 0,-224.5"/>
<text text-anchor="middle" x="38.5" y="-231.5" font-family="'Consolas',monospace" font-size="10.00">Shader.hpp</text>
</a>
</g>
</g>
<!-- Node2&#45;&gt;Node16 -->
<g id="edge17" class="edge">
<title>Node2&#45;&gt;Node16</title>
<path fill="none" stroke="midnightblue" d="M982.54,-288.75C847.34,-287.59 432.77,-281.04 91.5,-244 90.2,-243.86 88.87,-243.71 87.54,-243.54"/>
<polygon fill="midnightblue" stroke="midnightblue" points="87.59,-240.02 77.21,-242.13 86.64,-246.95 87.59,-240.02"/>
</g>
<!-- Node17 -->
<g id="node17" class="node">
<title>Node17</title>
<g id="a_node17"><a xlink:href="ShaderProgram_8hpp.html" target="_top" xlink:title="Contains jngl::ShaderProgram class.">
<polygon fill="white" stroke="black" points="618,-112.5 618,-131.5 737,-131.5 737,-112.5 618,-112.5"/>
<text text-anchor="middle" x="677.5" y="-119.5" font-family="'Consolas',monospace" font-size="10.00">ShaderProgram.hpp</text>
</a>
</g>
</g>
<!-- Node2&#45;&gt;Node17 -->
<g id="edge19" class="edge">
<title>Node2&#45;&gt;Node17</title>
<path fill="none" stroke="midnightblue" d="M982.85,-285.35C913.14,-279.09 782.12,-264.94 740.5,-244 708.77,-228.04 698.73,-220.08 683.5,-188 676.67,-173.6 675.53,-155.41 675.89,-141.93"/>
<polygon fill="midnightblue" stroke="midnightblue" points="679.39,-142.09 676.46,-131.91 672.4,-141.7 679.39,-142.09"/>
</g>
<!-- Node19 -->
<g id="node19" class="node">
<title>Node19</title>
<g id="a_node19"><a xlink:href="SoundFile_8hpp.html" target="_top" xlink:title="Contains jngl::SoundFile class.">
<polygon fill="white" stroke="black" points="466,-112.5 466,-131.5 561,-131.5 561,-112.5 466,-112.5"/>
<text text-anchor="middle" x="513.5" y="-119.5" font-family="'Consolas',monospace" font-size="10.00">SoundFile.hpp</text>
</a>
</g>
</g>
<!-- Node2&#45;&gt;Node19 -->
<g id="edge24" class="edge">
<title>Node2&#45;&gt;Node19</title>
<path fill="none" stroke="midnightblue" d="M982.82,-288.75C918.96,-287.09 798.77,-279.05 703.5,-244 634.06,-218.45 563.47,-164.57 531.37,-138.19"/>
<polygon fill="midnightblue" stroke="midnightblue" points="533.29,-135.24 523.37,-131.53 528.81,-140.62 533.29,-135.24"/>
</g>
<!-- Node20 -->
<g id="node20" class="node">
<title>Node20</title>
<g id="a_node20"><a xlink:href="Vertex_8hpp.html" target="_top" xlink:title=" ">
<polygon fill="white" stroke="black" points="1744,-56.5 1744,-75.5 1821,-75.5 1821,-56.5 1744,-56.5"/>
<text text-anchor="middle" x="1782.5" y="-63.5" font-family="'Consolas',monospace" font-size="10.00">Vertex.hpp</text>
</a>
</g>
</g>
<!-- Node2&#45;&gt;Node20 -->
<g id="edge28" class="edge">
<title>Node2&#45;&gt;Node20</title>
<path fill="none" stroke="midnightblue" d="M1072.18,-287.88C1193.47,-284.48 1526.8,-272.73 1632.5,-244 1686.97,-229.19 1704.6,-225.83 1746.5,-188 1768.28,-168.33 1773.19,-160.15 1781.5,-132 1785.95,-116.93 1785.85,-99.03 1784.84,-85.83"/>
<polygon fill="midnightblue" stroke="midnightblue" points="1788.3,-85.23 1783.81,-75.63 1781.33,-85.94 1788.3,-85.23"/>
</g>
<!-- Node21 -->
<g id="node21" class="node">
<title>Node21</title>
<g id="a_node21"><a xlink:href="Video_8hpp.html" target="_top" xlink:title=" ">
<polygon fill="white" stroke="black" points="433,-224.5 433,-243.5 504,-243.5 504,-224.5 433,-224.5"/>
<text text-anchor="middle" x="468.5" y="-231.5" font-family="'Consolas',monospace" font-size="10.00">Video.hpp</text>
</a>
</g>
</g>
<!-- Node2&#45;&gt;Node21 -->
<g id="edge29" class="edge">
<title>Node2&#45;&gt;Node21</title>
<path fill="none" stroke="midnightblue" d="M982.7,-284.67C878.27,-274.58 619.58,-249.59 514.23,-239.42"/>
<polygon fill="midnightblue" stroke="midnightblue" points="514.52,-235.93 504.23,-238.45 513.85,-242.9 514.52,-235.93"/>
</g>
<!-- Node22 -->
<g id="node22" class="node">
<title>Node22</title>
<g id="a_node22"><a xlink:href="sprite_8hpp.html" target="_top" xlink:title="Contains jngl::Sprite class and related functions.">
<polygon fill="white" stroke="black" points="1114,-168.5 1114,-187.5 1191,-187.5 1191,-168.5 1114,-168.5"/>
<text text-anchor="middle" x="1152.5" y="-175.5" font-family="'Consolas',monospace" font-size="10.00">sprite.hpp</text>
</a>
</g>
</g>
<!-- Node2&#45;&gt;Node22 -->
<g id="edge75" class="edge">
<title>Node2&#45;&gt;Node22</title>
<path fill="none" stroke="midnightblue" d="M1044.57,-280.41C1059.88,-272.25 1082.47,-259.01 1099.5,-244 1115.65,-229.76 1130.83,-210.28 1140.77,-196.37"/>
<polygon fill="midnightblue" stroke="midnightblue" points="1143.92,-197.97 1146.76,-187.76 1138.17,-193.97 1143.92,-197.97"/>
</g>
<!-- Node23 -->
<g id="node23" class="node">
<title>Node23</title>
<g id="a_node23"><a xlink:href="debug_8hpp_source.html" target="_top" xlink:title=" ">
<polygon fill="white" stroke="black" points="768,-224.5 768,-243.5 839,-243.5 839,-224.5 768,-224.5"/>
<text text-anchor="middle" x="803.5" y="-231.5" font-family="'Consolas',monospace" font-size="10.00">debug.hpp</text>
</a>
</g>
</g>
<!-- Node2&#45;&gt;Node23 -->
<g id="edge37" class="edge">
<title>Node2&#45;&gt;Node23</title>
<path fill="none" stroke="midnightblue" d="M992.01,-280.44C953.18,-271.08 890.84,-256.06 848.58,-245.87"/>
<polygon fill="midnightblue" stroke="midnightblue" points="849.37,-242.46 838.83,-243.52 847.73,-249.26 849.37,-242.46"/>
</g>
<!-- Node24 -->
<g id="node24" class="node">
<title>Node24</title>
<g id="a_node24"><a xlink:href="message_8hpp.html" target="_top" xlink:title=" ">
<polygon fill="white" stroke="black" points="692,-168.5 692,-187.5 775,-187.5 775,-168.5 692,-168.5"/>
<text text-anchor="middle" x="733.5" y="-175.5" font-family="'Consolas',monospace" font-size="10.00">message.hpp</text>
</a>
</g>
</g>
<!-- Node2&#45;&gt;Node24 -->
<g id="edge65" class="edge">
<title>Node2&#45;&gt;Node24</title>
<path fill="none" stroke="midnightblue" d="M982.75,-286.72C915.62,-282.44 793.11,-271.09 759.5,-244 745.47,-232.7 738.97,-212.69 735.99,-197.85"/>
<polygon fill="midnightblue" stroke="midnightblue" points="739.4,-197.04 734.32,-187.74 732.49,-198.18 739.4,-197.04"/>
</g>
<!-- Node26 -->
<g id="node26" class="node">
<title>Node26</title>
<g id="a_node26"><a xlink:href="font_8hpp.html" target="_top" xlink:title="Contains jngl::Font class and related functions.">
<polygon fill="white" stroke="black" points="1093,-112.5 1093,-131.5 1158,-131.5 1158,-112.5 1093,-112.5"/>
<text text-anchor="middle" x="1125.5" y="-119.5" font-family="'Consolas',monospace" font-size="10.00">font.hpp</text>
</a>
</g>
</g>
<!-- Node2&#45;&gt;Node26 -->
<g id="edge41" class="edge">
<title>Node2&#45;&gt;Node26</title>
<path fill="none" stroke="midnightblue" d="M1032.77,-280.08C1048.4,-253.61 1094.68,-175.21 1115.34,-140.21"/>
<polygon fill="midnightblue" stroke="midnightblue" points="1118.37,-141.96 1120.44,-131.57 1112.34,-138.4 1118.37,-141.96"/>
</g>
<!-- Node27 -->
<g id="node27" class="node">
<title>Node27</title>
<g id="a_node27"><a xlink:href="framebuffer_8hpp.html" target="_top" xlink:title="Contains jngl::FrameBuffer class.">
<polygon fill="white" stroke="black" points="1521,-112.5 1521,-131.5 1622,-131.5 1622,-112.5 1521,-112.5"/>
<text text-anchor="middle" x="1571.5" y="-119.5" font-family="'Consolas',monospace" font-size="10.00">framebuffer.hpp</text>
</a>
</g>
</g>
<!-- Node2&#45;&gt;Node27 -->
<g id="edge46" class="edge">
<title>Node2&#45;&gt;Node27</title>
<path fill="none" stroke="midnightblue" d="M1072.27,-285.17C1127.01,-279.69 1222.06,-267.55 1300.5,-244 1395.41,-215.51 1500.66,-161.54 1547.15,-136.45"/>
<polygon fill="midnightblue" stroke="midnightblue" points="1549.05,-139.4 1556.16,-131.55 1545.7,-133.25 1549.05,-139.4"/>
</g>
<!-- Node28 -->
<g id="node28" class="node">
<title>Node28</title>
<g id="a_node28"><a xlink:href="job_8hpp.html" target="_top" xlink:title=" ">
<polygon fill="white" stroke="black" points="73,-168.5 73,-187.5 132,-187.5 132,-168.5 73,-168.5"/>
<text text-anchor="middle" x="102.5" y="-175.5" font-family="'Consolas',monospace" font-size="10.00">job.hpp</text>
</a>
</g>
</g>
<!-- Node2&#45;&gt;Node28 -->
<g id="edge54" class="edge">
<title>Node2&#45;&gt;Node28</title>
<path fill="none" stroke="midnightblue" d="M982.82,-288.16C805.46,-284.65 159.06,-270.11 124.5,-244 110.41,-233.35 105.26,-213.25 103.42,-198.2"/>
<polygon fill="midnightblue" stroke="midnightblue" points="106.89,-197.6 102.57,-187.93 99.91,-198.18 106.89,-197.6"/>
</g>
<!-- Node29 -->
<g id="node29" class="node">
<title>Node29</title>
<g id="a_node29"><a xlink:href="main_8hpp_source.html" target="_top" xlink:title=" ">
<polygon fill="white" stroke="black" points="954,-168.5 954,-187.5 1019,-187.5 1019,-168.5 954,-168.5"/>
<text text-anchor="middle" x="986.5" y="-175.5" font-family="'Consolas',monospace" font-size="10.00">main.hpp</text>
</a>
</g>
</g>
<!-- Node2&#45;&gt;Node29 -->
<g id="edge56" class="edge">
<title>Node2&#45;&gt;Node29</title>
<path fill="none" stroke="midnightblue" d="M1024.28,-280.37C1017.64,-262.54 1002.26,-221.3 993.31,-197.27"/>
<polygon fill="midnightblue" stroke="midnightblue" points="996.47,-195.74 989.7,-187.59 989.92,-198.18 996.47,-195.74"/>
</g>
<!-- Node30 -->
<g id="node30" class="node">
<title>Node30</title>
<g id="a_node30"><a xlink:href="other_8hpp.html" target="_top" xlink:title=" ">
<polygon fill="white" stroke="black" points="965,-112.5 965,-131.5 1036,-131.5 1036,-112.5 965,-112.5"/>
<text text-anchor="middle" x="1000.5" y="-119.5" font-family="'Consolas',monospace" font-size="10.00">other.hpp</text>
</a>
</g>
</g>
<!-- Node2&#45;&gt;Node30 -->
<g id="edge66" class="edge">
<title>Node2&#45;&gt;Node30</title>
<path fill="none" stroke="midnightblue" d="M1029.22,-280.27C1032.87,-260.04 1040.1,-208.6 1028.5,-168 1025.6,-157.84 1019.67,-147.75 1014.01,-139.7"/>
<polygon fill="midnightblue" stroke="midnightblue" points="1016.72,-137.48 1007.91,-131.59 1011.12,-141.69 1016.72,-137.48"/>
</g>
<!-- Node31 -->
<g id="node31" class="node">
<title>Node31</title>
<g id="a_node31"><a xlink:href="window_8hpp.html" target="_top" xlink:title="Functions related to the main window.">
<polygon fill="white" stroke="black" points="870,-112.5 870,-131.5 947,-131.5 947,-112.5 870,-112.5"/>
<text text-anchor="middle" x="908.5" y="-119.5" font-family="'Consolas',monospace" font-size="10.00">window.hpp</text>
</a>
</g>
</g>
<!-- Node2&#45;&gt;Node31 -->
<g id="edge82" class="edge">
<title>Node2&#45;&gt;Node31</title>
<path fill="none" stroke="midnightblue" d="M1019.75,-280.46C1004.57,-263.52 970.23,-224.17 945.5,-188 934.99,-172.62 924.64,-154.07 917.57,-140.73"/>
<polygon fill="midnightblue" stroke="midnightblue" points="920.58,-138.94 912.86,-131.68 914.37,-142.17 920.58,-138.94"/>
</g>
<!-- Node32 -->
<g id="node32" class="node">
<title>Node32</title>
<g id="a_node32"><a xlink:href="matrix_8hpp.html" target="_top" xlink:title="Functions related to the global ModelView matrix.">
<polygon fill="white" stroke="black" points="1851,-224.5 1851,-243.5 1928,-243.5 1928,-224.5 1851,-224.5"/>
<text text-anchor="middle" x="1889.5" y="-231.5" font-family="'Consolas',monospace" font-size="10.00">matrix.hpp</text>
</a>
</g>
</g>
<!-- Node2&#45;&gt;Node32 -->
<g id="edge64" class="edge">
<title>Node2&#45;&gt;Node32</title>
<path fill="none" stroke="midnightblue" d="M1072.38,-288.28C1195.09,-285.91 1546.44,-276.59 1836.5,-244 1837.8,-243.85 1839.13,-243.7 1840.46,-243.53"/>
<polygon fill="midnightblue" stroke="midnightblue" points="1841.36,-246.94 1850.78,-242.09 1840.4,-240 1841.36,-246.94"/>
</g>
<!-- Node33 -->
<g id="node33" class="node">
<title>Node33</title>
<g id="a_node33"><a xlink:href="screen_8hpp.html" target="_top" xlink:title=" ">
<polygon fill="white" stroke="black" points="1571,-168.5 1571,-187.5 1648,-187.5 1648,-168.5 1571,-168.5"/>
<text text-anchor="middle" x="1609.5" y="-175.5" font-family="'Consolas',monospace" font-size="10.00">screen.hpp</text>
</a>
</g>
</g>
<!-- Node2&#45;&gt;Node33 -->
<g id="edge67" class="edge">
<title>Node2&#45;&gt;Node33</title>
<path fill="none" stroke="midnightblue" d="M1072.01,-287.67C1175.95,-284.11 1431.92,-272.63 1512.5,-244 1543.36,-233.03 1573.9,-210.02 1592.24,-194.53"/>
<polygon fill="midnightblue" stroke="midnightblue" points="1594.94,-196.82 1600.21,-187.62 1590.36,-191.53 1594.94,-196.82"/>
</g>
<!-- Node34 -->
<g id="node34" class="node">
<title>Node34</title>
<g id="a_node34"><a xlink:href="shapes_8hpp.html" target="_top" xlink:title="Functions for drawing shapes.">
<polygon fill="white" stroke="black" points="1679,-112.5 1679,-131.5 1756,-131.5 1756,-112.5 1679,-112.5"/>
<text text-anchor="middle" x="1717.5" y="-119.5" font-family="'Consolas',monospace" font-size="10.00">shapes.hpp</text>
</a>
</g>
</g>
<!-- Node2&#45;&gt;Node34 -->
<g id="edge69" class="edge">
<title>Node2&#45;&gt;Node34</title>
<path fill="none" stroke="midnightblue" d="M1072.27,-287.24C1180.93,-282.62 1456.12,-268.79 1544.5,-244 1598.47,-228.86 1612.63,-221.6 1657.5,-188 1676.23,-173.97 1693.92,-153.62 1705.17,-139.43"/>
<polygon fill="midnightblue" stroke="midnightblue" points="1707.95,-141.56 1711.3,-131.51 1702.41,-137.28 1707.95,-141.56"/>
</g>
<!-- Node35 -->
<g id="node35" class="node">
<title>Node35</title>
<g id="a_node35"><a xlink:href="sound_8hpp.html" target="_top" xlink:title="Sound related functions.">
<polygon fill="white" stroke="black" points="338,-112.5 338,-131.5 409,-131.5 409,-112.5 338,-112.5"/>
<text text-anchor="middle" x="373.5" y="-119.5" font-family="'Consolas',monospace" font-size="10.00">sound.hpp</text>
</a>
</g>
</g>
<!-- Node2&#45;&gt;Node35 -->
<g id="edge72" class="edge">
<title>Node2&#45;&gt;Node35</title>
<path fill="none" stroke="midnightblue" d="M982.79,-288.32C850.85,-285.96 469.52,-276.36 424.5,-244 390.97,-219.9 379.36,-169.33 375.43,-141.81"/>
<polygon fill="midnightblue" stroke="midnightblue" points="378.87,-141.08 374.18,-131.57 371.92,-141.93 378.87,-141.08"/>
</g>
<!-- Node36 -->
<g id="node36" class="node">
<title>Node36</title>
<g id="a_node36"><a xlink:href="text_8hpp.html" target="_top" xlink:title=" ">
<polygon fill="white" stroke="black" points="832,-168.5 832,-187.5 897,-187.5 897,-168.5 832,-168.5"/>
<text text-anchor="middle" x="864.5" y="-175.5" font-family="'Consolas',monospace" font-size="10.00">text.hpp</text>
</a>
</g>
</g>
<!-- Node2&#45;&gt;Node36 -->
<g id="edge76" class="edge">
<title>Node2&#45;&gt;Node36</title>
<path fill="none" stroke="midnightblue" d="M990.26,-280.44C966.04,-273.53 934.75,-261.95 911.5,-244 895.02,-231.28 881.76,-211.25 873.58,-196.78"/>
<polygon fill="midnightblue" stroke="midnightblue" points="876.57,-194.96 868.75,-187.82 870.41,-198.28 876.57,-194.96"/>
</g>
<!-- Node37 -->
<g id="node37" class="node">
<title>Node37</title>
<g id="a_node37"><a xlink:href="time_8hpp.html" target="_top" xlink:title="Timing functions.">
<polygon fill="white" stroke="black" points="1946,-224.5 1946,-243.5 2011,-243.5 2011,-224.5 1946,-224.5"/>
<text text-anchor="middle" x="1978.5" y="-231.5" font-family="'Consolas',monospace" font-size="10.00">time.hpp</text>
</a>
</g>
</g>
<!-- Node2&#45;&gt;Node37 -->
<g id="edge81" class="edge">
<title>Node2&#45;&gt;Node37</title>
<path fill="none" stroke="midnightblue" d="M1072.24,-289.42C1203.62,-290.08 1599.63,-288.11 1935.98,-243.98"/>
<polygon fill="midnightblue" stroke="midnightblue" points="1936.46,-247.45 1945.91,-242.67 1935.54,-240.51 1936.46,-247.45"/>
</g>
<!-- Node38 -->
<g id="node38" class="node">
<title>Node38</title>
<g id="a_node38"><a xlink:href="work_8hpp.html" target="_top" xlink:title=" ">
<polygon fill="white" stroke="black" points="134,-224.5 134,-243.5 199,-243.5 199,-224.5 134,-224.5"/>
<text text-anchor="middle" x="166.5" y="-231.5" font-family="'Consolas',monospace" font-size="10.00">work.hpp</text>
</a>
</g>
</g>
<!-- Node2&#45;&gt;Node38 -->
<g id="edge83" class="edge">
<title>Node2&#45;&gt;Node38</title>
<path fill="none" stroke="midnightblue" d="M982.75,-288.63C859.59,-287.15 505.35,-279.85 213.5,-244 212.03,-243.82 210.54,-243.62 209.03,-243.41"/>
<polygon fill="midnightblue" stroke="midnightblue" points="209.45,-239.93 199.03,-241.81 208.35,-246.84 209.45,-239.93"/>
</g>
<!-- Node4 -->
<g id="node4" class="node">
<title>Node4</title>
<g id="a_node4"><a target="_parent" xlink:href="http://en.cppreference.com/w/cpp/header/memory.html" target="_top" xlink:title=" ">
<polygon fill="white" stroke="black" points="315,-56.5 315,-75.5 368,-75.5 368,-56.5 315,-56.5"/>
<text text-anchor="middle" x="341.5" y="-63.5" font-family="'Consolas',monospace" font-size="10.00">memory</text>
</a>
</g>
</g>
<!-- Node3&#45;&gt;Node4 -->
<g id="edge3" class="edge">
<title>Node3&#45;&gt;Node4</title>
<path fill="none" stroke="midnightblue" d="M233.78,-112.44C254.85,-103.56 288.02,-89.56 311.99,-79.45"/>
<polygon fill="midnightblue" stroke="midnightblue" points="313.46,-82.63 321.31,-75.52 310.74,-76.18 313.46,-82.63"/>
</g>
<!-- Node5 -->
<g id="node5" class="node">
<title>Node5</title>
<g id="a_node5"><a target="_parent" xlink:href="http://en.cppreference.com/w/cpp/header/string.html" target="_top" xlink:title=" ">
<polygon fill="white" stroke="black" points="607,-56.5 607,-75.5 660,-75.5 660,-56.5 607,-56.5"/>
<text text-anchor="middle" x="633.5" y="-63.5" font-family="'Consolas',monospace" font-size="10.00">string</text>
</a>
</g>
</g>
<!-- Node3&#45;&gt;Node5 -->
<g id="edge4" class="edge">
<title>Node3&#45;&gt;Node5</title>
<path fill="none" stroke="midnightblue" d="M243.03,-117.2C317.81,-107.59 514.47,-82.3 596.62,-71.74"/>
<polygon fill="midnightblue" stroke="midnightblue" points="597.27,-75.19 606.74,-70.44 596.38,-68.24 597.27,-75.19"/>
</g>
<!-- Node7&#45;&gt;Node8 -->
<g id="edge7" class="edge">
<title>Node7&#45;&gt;Node8</title>
<path fill="none" stroke="midnightblue" d="M1290.57,-168.08C1283.65,-160.3 1273.43,-148.8 1265.05,-139.37"/>
<polygon fill="midnightblue" stroke="midnightblue" points="1267.54,-136.9 1258.28,-131.75 1262.31,-141.55 1267.54,-136.9"/>
</g>
<!-- Node14 -->
<g id="node14" class="node">
<title>Node14</title>
<g id="a_node14"><a target="_parent" xlink:href="http://en.cppreference.com/w/cpp/header/chrono.html" target="_top" xlink:title=" ">
<polygon fill="white" stroke="black" points="1450,-112.5 1450,-131.5 1503,-131.5 1503,-112.5 1450,-112.5"/>
<text text-anchor="middle" x="1476.5" y="-119.5" font-family="'Consolas',monospace" font-size="10.00">chrono</text>
</a>
</g>
</g>
<!-- Node7&#45;&gt;Node14 -->
<g id="edge14" class="edge">
<title>Node7&#45;&gt;Node14</title>
<path fill="none" stroke="midnightblue" d="M1326.7,-168.44C1357.35,-159.15 1406.43,-144.26 1440,-134.07"/>
<polygon fill="midnightblue" stroke="midnightblue" points="1441.33,-137.33 1449.88,-131.08 1439.3,-130.63 1441.33,-137.33"/>
</g>
<!-- Node8&#45;&gt;Node4 -->
<g id="edge12" class="edge">
<title>Node8&#45;&gt;Node4</title>
<path fill="none" stroke="midnightblue" d="M1215,-116.73C1200.31,-115.07 1183.1,-113.27 1167.5,-112 863.16,-87.23 494.6,-72.56 378.41,-68.3"/>
<polygon fill="midnightblue" stroke="midnightblue" points="378.4,-64.8 368.28,-67.94 378.14,-71.8 378.4,-64.8"/>
</g>
<!-- Node9 -->
<g id="node9" class="node">
<title>Node9</title>
<g id="a_node9"><a xlink:href="Vec2_8hpp.html" target="_top" xlink:title=" ">
<polygon fill="white" stroke="black" points="1355,-56.5 1355,-75.5 1420,-75.5 1420,-56.5 1355,-56.5"/>
<text text-anchor="middle" x="1387.5" y="-63.5" font-family="'Consolas',monospace" font-size="10.00">Vec2.hpp</text>
</a>
</g>
</g>
<!-- Node8&#45;&gt;Node9 -->
<g id="edge8" class="edge">
<title>Node8&#45;&gt;Node9</title>
<path fill="none" stroke="midnightblue" d="M1272.21,-112.44C1294.85,-103.52 1330.57,-89.44 1356.25,-79.32"/>
<polygon fill="midnightblue" stroke="midnightblue" points="1357.87,-82.44 1365.89,-75.52 1355.31,-75.93 1357.87,-82.44"/>
</g>
<!-- Node12 -->
<g id="node12" class="node">
<title>Node12</title>
<g id="a_node12"><a target="_parent" xlink:href="http://en.cppreference.com/w/cpp/header/functional.html" target="_top" xlink:title=" ">
<polygon fill="white" stroke="black" points="1159,-0.5 1159,-19.5 1236,-19.5 1236,-0.5 1159,-0.5"/>
<text text-anchor="middle" x="1197.5" y="-7.5" font-family="'Consolas',monospace" font-size="10.00">functional</text>
</a>
</g>
</g>
<!-- Node8&#45;&gt;Node12 -->
<g id="edge11" class="edge">
<title>Node8&#45;&gt;Node12</title>
<path fill="none" stroke="midnightblue" d="M1246.34,-112.37C1237.67,-94.38 1217.52,-52.55 1205.99,-28.63"/>
<polygon fill="midnightblue" stroke="midnightblue" points="1209.13,-27.08 1201.64,-19.59 1202.83,-30.12 1209.13,-27.08"/>
</g>
<!-- Node13 -->
<g id="node13" class="node">
<title>Node13</title>
<g id="a_node13"><a target="_parent" xlink:href="http://en.cppreference.com/w/cpp/header/vector.html" target="_top" xlink:title=" ">
<polygon fill="white" stroke="black" points="986,-56.5 986,-75.5 1039,-75.5 1039,-56.5 986,-56.5"/>
<text text-anchor="middle" x="1012.5" y="-63.5" font-family="'Consolas',monospace" font-size="10.00">vector</text>
</a>
</g>
</g>
<!-- Node8&#45;&gt;Node13 -->
<g id="edge13" class="edge">
<title>Node8&#45;&gt;Node13</title>
<path fill="none" stroke="midnightblue" d="M1214.87,-112.92C1170.24,-102.79 1094.16,-85.53 1049.08,-75.3"/>
<polygon fill="midnightblue" stroke="midnightblue" points="1049.67,-71.84 1039.14,-73.05 1048.12,-78.67 1049.67,-71.84"/>
</g>
<!-- Node10 -->
<g id="node10" class="node">
<title>Node10</title>
<g id="a_node10"><a xlink:title=" ">
<polygon fill="white" stroke="#bfbfbf" points="1358,-0.5 1358,-19.5 1477,-19.5 1477,-0.5 1358,-0.5"/>
<text text-anchor="middle" x="1417.5" y="-7.5" font-family="'Consolas',monospace" font-size="10.00">boost/version.hpp</text>
</a>
</g>
</g>
<!-- Node9&#45;&gt;Node10 -->
<g id="edge9" class="edge">
<title>Node9&#45;&gt;Node10</title>
<path fill="none" stroke="midnightblue" d="M1392.45,-56.08C1396.6,-48.61 1402.65,-37.72 1407.77,-28.52"/>
<polygon fill="midnightblue" stroke="midnightblue" points="1410.84,-30.19 1412.64,-19.75 1404.72,-26.79 1410.84,-30.19"/>
</g>
<!-- Node11 -->
<g id="node11" class="node">
<title>Node11</title>
<g id="a_node11"><a target="_parent" xlink:href="http://en.cppreference.com/w/cpp/header/iosfwd.html" target="_top" xlink:title=" ">
<polygon fill="white" stroke="black" points="1287,-0.5 1287,-19.5 1340,-19.5 1340,-0.5 1287,-0.5"/>
<text text-anchor="middle" x="1313.5" y="-7.5" font-family="'Consolas',monospace" font-size="10.00">iosfwd</text>
</a>
</g>
</g>
<!-- Node9&#45;&gt;Node11 -->
<g id="edge10" class="edge">
<title>Node9&#45;&gt;Node11</title>
<path fill="none" stroke="midnightblue" d="M1375.61,-56.32C1364.35,-48.11 1347.21,-35.6 1333.79,-25.81"/>
<polygon fill="midnightblue" stroke="midnightblue" points="1335.75,-22.9 1325.61,-19.83 1331.62,-28.56 1335.75,-22.9"/>
</g>
<!-- Node15&#45;&gt;Node9 -->
<g id="edge16" class="edge">
<title>Node15&#45;&gt;Node9</title>
<path fill="none" stroke="midnightblue" d="M1387.5,-112.08C1387.5,-105.01 1387.5,-94.86 1387.5,-85.99"/>
<polygon fill="midnightblue" stroke="midnightblue" points="1391,-85.75 1387.5,-75.75 1384,-85.75 1391,-85.75"/>
</g>
<!-- Node16&#45;&gt;Node4 -->
<g id="edge18" class="edge">
<title>Node16&#45;&gt;Node4</title>
<path fill="none" stroke="midnightblue" d="M40.55,-224.47C43.93,-211.52 51.51,-186.45 63.5,-168 82.68,-138.49 88.49,-128.65 119.5,-112 179.13,-79.99 258.91,-70.68 304.8,-68.02"/>
<polygon fill="midnightblue" stroke="midnightblue" points="305.08,-71.51 314.89,-67.51 304.72,-64.52 305.08,-71.51"/>
</g>
<!-- Node17&#45;&gt;Node4 -->
<g id="edge22" class="edge">
<title>Node17&#45;&gt;Node4</title>
<path fill="none" stroke="midnightblue" d="M624.26,-112.44C555.48,-101.39 437.55,-82.44 378.07,-72.88"/>
<polygon fill="midnightblue" stroke="midnightblue" points="378.45,-69.39 368.02,-71.26 377.33,-76.3 378.45,-69.39"/>
</g>
<!-- Node17&#45;&gt;Node5 -->
<g id="edge23" class="edge">
<title>Node17&#45;&gt;Node5</title>
<path fill="none" stroke="midnightblue" d="M670.23,-112.08C663.96,-104.38 654.71,-93.03 647.07,-83.65"/>
<polygon fill="midnightblue" stroke="midnightblue" points="649.66,-81.29 640.63,-75.75 644.23,-85.71 649.66,-81.29"/>
</g>
<!-- Node18 -->
<g id="node18" class="node">
<title>Node18</title>
<g id="a_node18"><a xlink:href="Finally_8hpp.html" target="_top" xlink:title=" ">
<polygon fill="white" stroke="black" points="1104,-56.5 1104,-75.5 1187,-75.5 1187,-56.5 1104,-56.5"/>
<text text-anchor="middle" x="1145.5" y="-63.5" font-family="'Consolas',monospace" font-size="10.00">Finally.hpp</text>
</a>
</g>
</g>
<!-- Node17&#45;&gt;Node18 -->
<g id="edge20" class="edge">
<title>Node17&#45;&gt;Node18</title>
<path fill="none" stroke="midnightblue" d="M737.25,-114.11C829.81,-103.43 1006.29,-83.06 1093.74,-72.97"/>
<polygon fill="midnightblue" stroke="midnightblue" points="1094.16,-76.45 1103.7,-71.82 1093.36,-69.49 1094.16,-76.45"/>
</g>
<!-- Node18&#45;&gt;Node12 -->
<g id="edge21" class="edge">
<title>Node18&#45;&gt;Node12</title>
<path fill="none" stroke="midnightblue" d="M1154.09,-56.08C1161.66,-48.22 1172.88,-36.57 1182.01,-27.08"/>
<polygon fill="midnightblue" stroke="midnightblue" points="1184.66,-29.38 1189.07,-19.75 1179.62,-24.53 1184.66,-29.38"/>
</g>
<!-- Node19&#45;&gt;Node4 -->
<g id="edge25" class="edge">
<title>Node19&#45;&gt;Node4</title>
<path fill="none" stroke="midnightblue" d="M486.25,-112.44C456.89,-103.23 410.03,-88.52 377.62,-78.34"/>
<polygon fill="midnightblue" stroke="midnightblue" points="378.65,-75 368.06,-75.34 376.55,-81.67 378.65,-75"/>
</g>
<!-- Node19&#45;&gt;Node5 -->
<g id="edge26" class="edge">
<title>Node19&#45;&gt;Node5</title>
<path fill="none" stroke="midnightblue" d="M532.51,-112.44C552.09,-103.64 582.81,-89.81 605.23,-79.72"/>
<polygon fill="midnightblue" stroke="midnightblue" points="606.89,-82.81 614.57,-75.52 604.02,-76.43 606.89,-82.81"/>
</g>
<!-- Node19&#45;&gt;Node13 -->
<g id="edge27" class="edge">
<title>Node19&#45;&gt;Node13</title>
<path fill="none" stroke="midnightblue" d="M561.35,-115.82C660.62,-105.08 887.1,-80.57 975.86,-70.97"/>
<polygon fill="midnightblue" stroke="midnightblue" points="976.42,-74.43 985.98,-69.87 975.66,-67.47 976.42,-74.43"/>
</g>
<!-- Node21&#45;&gt;Node4 -->
<g id="edge35" class="edge">
<title>Node21&#45;&gt;Node4</title>
<path fill="none" stroke="midnightblue" d="M442.82,-224.44C407.37,-211.06 344.83,-181.47 318.5,-132 310.27,-116.55 318.95,-97.54 327.91,-84.08"/>
<polygon fill="midnightblue" stroke="midnightblue" points="330.9,-85.9 333.95,-75.76 325.24,-81.79 330.9,-85.9"/>
</g>
<!-- Node21&#45;&gt;Node5 -->
<g id="edge36" class="edge">
<title>Node21&#45;&gt;Node5</title>
<path fill="none" stroke="midnightblue" d="M464.06,-224.26C453.76,-202.64 431.11,-145.99 457.5,-112 474.4,-90.23 550.27,-77.21 596.7,-71.14"/>
<polygon fill="midnightblue" stroke="midnightblue" points="597.21,-74.6 606.69,-69.88 596.33,-67.66 597.21,-74.6"/>
</g>
<!-- Node21&#45;&gt;Node22 -->
<g id="edge30" class="edge">
<title>Node21&#45;&gt;Node22</title>
<path fill="none" stroke="midnightblue" d="M504.31,-230.17C618.32,-221.17 972.99,-193.17 1103.58,-182.86"/>
<polygon fill="midnightblue" stroke="midnightblue" points="1104,-186.34 1113.69,-182.06 1103.45,-179.36 1104,-186.34"/>
</g>
<!-- Node22&#45;&gt;Node9 -->
<g id="edge33" class="edge">
<title>Node22&#45;&gt;Node9</title>
<path fill="none" stroke="midnightblue" d="M1190.46,-168.48C1220.01,-161.05 1261.57,-148.81 1295.5,-132 1323.36,-118.2 1352.1,-96.47 1369.88,-81.98"/>
<polygon fill="midnightblue" stroke="midnightblue" points="1372.21,-84.6 1377.68,-75.52 1367.74,-79.21 1372.21,-84.6"/>
</g>
<!-- Node22&#45;&gt;Node13 -->
<g id="edge34" class="edge">
<title>Node22&#45;&gt;Node13</title>
<path fill="none" stroke="midnightblue" d="M1158.71,-168.07C1167.24,-154.6 1180.16,-128.85 1167.5,-112 1153.27,-93.05 1090.16,-79.49 1048.99,-72.48"/>
<polygon fill="midnightblue" stroke="midnightblue" points="1049.48,-69.01 1039.04,-70.84 1048.34,-75.92 1049.48,-69.01"/>
</g>
<!-- Node22&#45;&gt;Node15 -->
<g id="edge31" class="edge">
<title>Node22&#45;&gt;Node15</title>
<path fill="none" stroke="midnightblue" d="M1189.74,-168.44C1230.56,-159.06 1296.14,-143.99 1340.48,-133.8"/>
<polygon fill="midnightblue" stroke="midnightblue" points="1341.48,-137.17 1350.44,-131.52 1339.91,-130.34 1341.48,-137.17"/>
</g>
<!-- Node22&#45;&gt;Node17 -->
<g id="edge32" class="edge">
<title>Node22&#45;&gt;Node17</title>
<path fill="none" stroke="midnightblue" d="M1113.63,-172.58C1033.41,-163.46 848.55,-142.45 747.16,-130.92"/>
<polygon fill="midnightblue" stroke="midnightblue" points="747.35,-127.42 737.02,-129.77 746.56,-134.37 747.35,-127.42"/>
</g>
<!-- Node23&#45;&gt;Node24 -->
<g id="edge38" class="edge">
<title>Node23&#45;&gt;Node24</title>
<path fill="none" stroke="midnightblue" d="M792.25,-224.32C781.7,-216.18 765.7,-203.84 753.06,-194.09"/>
<polygon fill="midnightblue" stroke="midnightblue" points="755.01,-191.17 744.95,-187.83 750.73,-196.71 755.01,-191.17"/>
</g>
<!-- Node25 -->
<g id="node25" class="node">
<title>Node25</title>
<g id="a_node25"><a target="_parent" xlink:href="http://en.cppreference.com/w/cpp/header/sstream.html" target="_top" xlink:title=" ">
<polygon fill="white" stroke="black" points="841,-56.5 841,-75.5 900,-75.5 900,-56.5 841,-56.5"/>
<text text-anchor="middle" x="870.5" y="-63.5" font-family="'Consolas',monospace" font-size="10.00">sstream</text>
</a>
</g>
</g>
<!-- Node23&#45;&gt;Node25 -->
<g id="edge40" class="edge">
<title>Node23&#45;&gt;Node25</title>
<path fill="none" stroke="midnightblue" d="M805.73,-224.46C809.08,-211.91 815.87,-187.84 823.5,-168 834.97,-138.18 851.21,-104.78 861.28,-84.85"/>
<polygon fill="midnightblue" stroke="midnightblue" points="864.5,-86.24 865.93,-75.74 858.27,-83.06 864.5,-86.24"/>
</g>
<!-- Node24&#45;&gt;Node5 -->
<g id="edge39" class="edge">
<title>Node24&#45;&gt;Node5</title>
<path fill="none" stroke="midnightblue" d="M691.83,-173.88C663.51,-169.33 627.97,-158.35 609.5,-132 599.19,-117.29 609.07,-97.63 619.09,-83.8"/>
<polygon fill="midnightblue" stroke="midnightblue" points="622.06,-85.68 625.49,-75.66 616.56,-81.36 622.06,-85.68"/>
</g>
<!-- Node26&#45;&gt;Node4 -->
<g id="edge44" class="edge">
<title>Node26&#45;&gt;Node4</title>
<path fill="none" stroke="midnightblue" d="M1092.84,-116.97C1078.35,-115.27 1061.09,-113.37 1045.5,-112 790.44,-89.51 482.44,-73.74 378.09,-68.72"/>
<polygon fill="midnightblue" stroke="midnightblue" points="378.22,-65.22 368.07,-68.24 377.89,-72.21 378.22,-65.22"/>
</g>
<!-- Node26&#45;&gt;Node5 -->
<g id="edge45" class="edge">
<title>Node26&#45;&gt;Node5</title>
<path fill="none" stroke="midnightblue" d="M1092.81,-117.3C1078.32,-115.66 1061.06,-113.72 1045.5,-112 907.07,-96.65 742.44,-78.79 670.37,-70.99"/>
<polygon fill="midnightblue" stroke="midnightblue" points="670.33,-67.46 660.01,-69.87 669.58,-74.42 670.33,-67.46"/>
</g>
<!-- Node26&#45;&gt;Node6 -->
<g id="edge42" class="edge">
<title>Node26&#45;&gt;Node6</title>
<path fill="none" stroke="midnightblue" d="M1158.14,-117.37C1242.54,-108 1468.16,-82.93 1565.62,-72.1"/>
<polygon fill="midnightblue" stroke="midnightblue" points="1566.19,-75.56 1575.75,-70.97 1565.42,-68.6 1566.19,-75.56"/>
</g>
<!-- Node26&#45;&gt;Node9 -->
<g id="edge43" class="edge">
<title>Node26&#45;&gt;Node9</title>
<path fill="none" stroke="midnightblue" d="M1158.15,-114.27C1205.35,-104.54 1292.68,-86.54 1344.9,-75.78"/>
<polygon fill="midnightblue" stroke="midnightblue" points="1345.76,-79.18 1354.85,-73.73 1344.35,-72.32 1345.76,-79.18"/>
</g>
<!-- Node27&#45;&gt;Node4 -->
<g id="edge51" class="edge">
<title>Node27&#45;&gt;Node4</title>
<path fill="none" stroke="midnightblue" d="M1520.7,-112.88C1517.93,-112.55 1515.18,-112.26 1512.5,-112 1454.76,-106.5 570.53,-75.09 378.23,-68.29"/>
<polygon fill="midnightblue" stroke="midnightblue" points="378.19,-64.79 368.07,-67.94 377.95,-71.79 378.19,-64.79"/>
</g>
<!-- Node27&#45;&gt;Node6 -->
<g id="edge47" class="edge">
<title>Node27&#45;&gt;Node6</title>
<path fill="none" stroke="midnightblue" d="M1578.11,-112.08C1583.76,-104.46 1592.04,-93.26 1598.95,-83.94"/>
<polygon fill="midnightblue" stroke="midnightblue" points="1601.88,-85.87 1605.02,-75.75 1596.25,-81.7 1601.88,-85.87"/>
</g>
<!-- Node27&#45;&gt;Node9 -->
<g id="edge49" class="edge">
<title>Node27&#45;&gt;Node9</title>
<path fill="none" stroke="midnightblue" d="M1542.34,-112.44C1510.99,-103.24 1460.97,-88.56 1426.3,-78.39"/>
<polygon fill="midnightblue" stroke="midnightblue" points="1427.1,-74.97 1416.52,-75.52 1425.13,-81.69 1427.1,-74.97"/>
</g>
<!-- Node27&#45;&gt;Node13 -->
<g id="edge52" class="edge">
<title>Node27&#45;&gt;Node13</title>
<path fill="none" stroke="midnightblue" d="M1521,-113.07C1518.13,-112.69 1515.28,-112.33 1512.5,-112 1327.79,-89.96 1280.65,-94.03 1095.5,-76 1080.29,-74.52 1063.54,-72.73 1049.08,-71.14"/>
<polygon fill="midnightblue" stroke="midnightblue" points="1049.35,-67.65 1039.02,-70.03 1048.58,-74.61 1049.35,-67.65"/>
</g>
<!-- Node27&#45;&gt;Node18 -->
<g id="edge48" class="edge">
<title>Node27&#45;&gt;Node18</title>
<path fill="none" stroke="midnightblue" d="M1520.98,-113.19C1518.11,-112.78 1515.27,-112.38 1512.5,-112 1400.21,-96.56 1268.24,-81.01 1197.14,-72.85"/>
<polygon fill="midnightblue" stroke="midnightblue" points="1197.44,-69.36 1187.11,-71.7 1196.64,-76.31 1197.44,-69.36"/>
</g>
<!-- Node27&#45;&gt;Node20 -->
<g id="edge50" class="edge">
<title>Node27&#45;&gt;Node20</title>
<path fill="none" stroke="midnightblue" d="M1604.93,-112.44C1641.36,-103.12 1699.73,-88.18 1739.53,-78"/>
<polygon fill="midnightblue" stroke="midnightblue" points="1740.4,-81.39 1749.22,-75.52 1738.67,-74.61 1740.4,-81.39"/>
</g>
<!-- Node28&#45;&gt;Node4 -->
<g id="edge55" class="edge">
<title>Node28&#45;&gt;Node4</title>
<path fill="none" stroke="midnightblue" d="M105.2,-168.29C110.06,-154.15 121.66,-126.34 141.5,-112 190.27,-76.75 261.85,-68.44 304.84,-66.85"/>
<polygon fill="midnightblue" stroke="midnightblue" points="304.96,-70.35 314.86,-66.58 304.77,-63.35 304.96,-70.35"/>
</g>
<!-- Node29&#45;&gt;Node18 -->
<g id="edge57" class="edge">
<title>Node29&#45;&gt;Node18</title>
<path fill="none" stroke="midnightblue" d="M998.98,-168.37C1026.14,-149.57 1090.91,-104.77 1124.49,-81.53"/>
<polygon fill="midnightblue" stroke="midnightblue" points="1126.85,-84.16 1133.08,-75.59 1122.87,-78.4 1126.85,-84.16"/>
</g>
<!-- Node29&#45;&gt;Node30 -->
<g id="edge58" class="edge">
<title>Node29&#45;&gt;Node30</title>
<path fill="none" stroke="midnightblue" d="M988.81,-168.08C990.67,-160.93 993.34,-150.64 995.65,-141.69"/>
<polygon fill="midnightblue" stroke="midnightblue" points="999.11,-142.31 998.23,-131.75 992.33,-140.55 999.11,-142.31"/>
</g>
<!-- Node29&#45;&gt;Node31 -->
<g id="edge62" class="edge">
<title>Node29&#45;&gt;Node31</title>
<path fill="none" stroke="midnightblue" d="M973.97,-168.32C961.91,-159.98 943.47,-147.21 929.23,-137.35"/>
<polygon fill="midnightblue" stroke="midnightblue" points="931.22,-134.47 921,-131.65 927.23,-140.22 931.22,-134.47"/>
</g>
<!-- Node30&#45;&gt;Node5 -->
<g id="edge60" class="edge">
<title>Node30&#45;&gt;Node5</title>
<path fill="none" stroke="midnightblue" d="M964.99,-113.54C962.12,-112.99 959.27,-112.48 956.5,-112 853.32,-94.28 730.69,-78.68 670.53,-71.38"/>
<polygon fill="midnightblue" stroke="midnightblue" points="670.74,-67.88 660.39,-70.16 669.9,-74.83 670.74,-67.88"/>
</g>
<!-- Node30&#45;&gt;Node13 -->
<g id="edge61" class="edge">
<title>Node30&#45;&gt;Node13</title>
<path fill="none" stroke="midnightblue" d="M1002.48,-112.08C1004.07,-104.93 1006.36,-94.64 1008.35,-85.69"/>
<polygon fill="midnightblue" stroke="midnightblue" points="1011.8,-86.27 1010.56,-75.75 1004.97,-84.75 1011.8,-86.27"/>
</g>
<!-- Node30&#45;&gt;Node25 -->
<g id="edge59" class="edge">
<title>Node30&#45;&gt;Node25</title>
<path fill="none" stroke="midnightblue" d="M979.9,-112.44C958.51,-103.56 924.82,-89.56 900.48,-79.45"/>
<polygon fill="midnightblue" stroke="midnightblue" points="901.58,-76.12 891,-75.52 898.89,-82.58 901.58,-76.12"/>
</g>
<!-- Node31&#45;&gt;Node5 -->
<g id="edge63" class="edge">
<title>Node31&#45;&gt;Node5</title>
<path fill="none" stroke="midnightblue" d="M869.97,-113.43C817.01,-103.03 722.36,-84.45 670.31,-74.23"/>
<polygon fill="midnightblue" stroke="midnightblue" points="670.68,-70.73 660.19,-72.24 669.33,-77.6 670.68,-70.73"/>
</g>
<!-- Node33&#45;&gt;Node9 -->
<g id="edge68" class="edge">
<title>Node33&#45;&gt;Node9</title>
<path fill="none" stroke="midnightblue" d="M1617.07,-168.47C1628.02,-155.06 1645.52,-128.85 1631.5,-112 1606.37,-81.82 1493.24,-71.8 1430.23,-68.54"/>
<polygon fill="midnightblue" stroke="midnightblue" points="1430.35,-65.04 1420.19,-68.05 1430.01,-72.03 1430.35,-65.04"/>
</g>
<!-- Node34&#45;&gt;Node6 -->
<g id="edge70" class="edge">
<title>Node34&#45;&gt;Node6</title>
<path fill="none" stroke="midnightblue" d="M1700.47,-112.32C1683.47,-103.66 1657.12,-90.24 1637.51,-80.25"/>
<polygon fill="midnightblue" stroke="midnightblue" points="1638.99,-77.08 1628.49,-75.65 1635.81,-83.31 1638.99,-77.08"/>
</g>
<!-- Node34&#45;&gt;Node9 -->
<g id="edge71" class="edge">
<title>Node34&#45;&gt;Node9</title>
<path fill="none" stroke="midnightblue" d="M1678.72,-114.38C1673.93,-113.57 1669.1,-112.76 1664.5,-112 1581.65,-98.24 1484.77,-82.6 1430.33,-73.86"/>
<polygon fill="midnightblue" stroke="midnightblue" points="1430.77,-70.39 1420.35,-72.26 1429.66,-77.3 1430.77,-70.39"/>
</g>
<!-- Node35&#45;&gt;Node4 -->
<g id="edge73" class="edge">
<title>Node35&#45;&gt;Node4</title>
<path fill="none" stroke="midnightblue" d="M368.22,-112.08C363.79,-104.61 357.34,-93.72 351.88,-84.52"/>
<polygon fill="midnightblue" stroke="midnightblue" points="354.79,-82.57 346.69,-75.75 348.77,-86.14 354.79,-82.57"/>
</g>
<!-- Node35&#45;&gt;Node5 -->
<g id="edge74" class="edge">
<title>Node35&#45;&gt;Node5</title>
<path fill="none" stroke="midnightblue" d="M409.11,-113.6C458.45,-103.36 547.15,-84.94 596.97,-74.59"/>
<polygon fill="midnightblue" stroke="midnightblue" points="597.9,-77.97 606.98,-72.51 596.48,-71.11 597.9,-77.97"/>
</g>
<!-- Node36&#45;&gt;Node4 -->
<g id="edge78" class="edge">
<title>Node36&#45;&gt;Node4</title>
<path fill="none" stroke="midnightblue" d="M831.83,-173.08C817.34,-171.4 800.08,-169.49 784.5,-168 734.02,-163.16 363.92,-169.25 329.5,-132 317.86,-119.4 323.91,-99.35 330.95,-84.85"/>
<polygon fill="midnightblue" stroke="midnightblue" points="334.14,-86.32 335.79,-75.85 327.97,-83 334.14,-86.32"/>
</g>
<!-- Node36&#45;&gt;Node5 -->
<g id="edge79" class="edge">
<title>Node36&#45;&gt;Node5</title>
<path fill="none" stroke="midnightblue" d="M850.27,-168.4C828.39,-155.36 784.99,-130.18 746.5,-112 720.39,-99.67 689.92,-87.67 667.21,-79.17"/>
<polygon fill="midnightblue" stroke="midnightblue" points="668.27,-75.83 657.68,-75.63 665.84,-82.39 668.27,-75.83"/>
</g>
<!-- Node36&#45;&gt;Node13 -->
<g id="edge80" class="edge">
<title>Node36&#45;&gt;Node13</title>
<path fill="none" stroke="midnightblue" d="M860.97,-168.42C856.06,-154.95 849.08,-128.67 861.5,-112 887.69,-76.87 940.23,-68.08 975.88,-66.43"/>
<polygon fill="midnightblue" stroke="midnightblue" points="976.02,-69.93 985.91,-66.13 975.81,-62.93 976.02,-69.93"/>
</g>
<!-- Node36&#45;&gt;Node15 -->
<g id="edge77" class="edge">
<title>Node36&#45;&gt;Node15</title>
<path fill="none" stroke="midnightblue" d="M897.2,-173.3C911.96,-171.64 929.6,-169.69 945.5,-168 1085.03,-153.15 1249.45,-136.68 1332.93,-128.39"/>
<polygon fill="midnightblue" stroke="midnightblue" points="1333.34,-131.87 1342.94,-127.4 1332.65,-124.9 1333.34,-131.87"/>
</g>
<!-- Node38&#45;&gt;Node4 -->
<g id="edge85" class="edge">
<title>Node38&#45;&gt;Node4</title>
<path fill="none" stroke="midnightblue" d="M164.07,-224.48C158.47,-202.89 147.13,-145.37 174.5,-112 190.89,-92.01 260.79,-78.55 304.8,-71.88"/>
<polygon fill="midnightblue" stroke="midnightblue" points="305.45,-75.32 314.84,-70.41 304.44,-68.4 305.45,-75.32"/>
</g>
<!-- Node38&#45;&gt;Node28 -->
<g id="edge84" class="edge">
<title>Node38&#45;&gt;Node28</title>
<path fill="none" stroke="midnightblue" d="M156.22,-224.32C146.66,-216.26 132.22,-204.08 120.72,-194.37"/>
<polygon fill="midnightblue" stroke="midnightblue" points="122.87,-191.61 112.97,-187.83 118.36,-196.96 122.87,-191.61"/>
</g>
</g>
</svg>
