<?xml version="1.0" encoding="UTF-8" standalone="no"?>
<!DOCTYPE svg PUBLIC "-//W3C//DTD SVG 1.1//EN"
 "http://www.w3.org/Graphics/SVG/1.1/DTD/svg11.dtd">
<!-- Generated by graphviz version 5.0.0 (0)
 -->
<!-- Title: jngl/job.hpp Pages: 1 -->
<svg width="218pt" height="192pt"
 viewBox="0.00 0.00 218.00 192.00" xmlns="http://www.w3.org/2000/svg" xmlns:xlink="http://www.w3.org/1999/xlink">
<g id="graph0" class="graph" transform="scale(1 1) rotate(0) translate(4 188)">
<title>jngl/job.hpp</title>
<!-- Node1 -->
<g id="node1" class="node">
<title>Node1</title>
<g id="a_node1"><a xlink:title="Contains jngl::Job class and related functions.">
<polygon fill="#999999" stroke="#666666" points="89,-184 0,-184 0,-165 89,-165 89,-184"/>
<text text-anchor="middle" x="44.5" y="-172" font-family="ui-monospace,monospace" font-size="10.00">jngl/job.hpp</text>
</a>
</g>
</g>
<!-- Node2 -->
<g id="node2" class="node">
<title>Node2</title>
<g id="a_node2"><a xlink:href="jngl_8hpp.html" target="_top" xlink:title="Includes all JNGL headers except for init.hpp.">
<polygon fill="white" stroke="#666666" points="77,-19 12,-19 12,0 77,0 77,-19"/>
<text text-anchor="middle" x="44.5" y="-7" font-family="ui-monospace,monospace" font-size="10.00">jngl.hpp</text>
</a>
</g>
</g>
<!-- Node1&#45;&gt;Node2 -->
<g id="edge1" class="edge">
<title>Node1&#45;&gt;Node2</title>
<path fill="none" stroke="#63b8ff" d="M35.07,-155.96C31.29,-147.97 27.39,-138.26 25.5,-129 17.15,-88.17 33.44,-38.81 40.97,-19.17"/>
<polygon fill="#63b8ff" stroke="#63b8ff" points="31.99,-157.63 39.62,-164.98 38.24,-154.47 31.99,-157.63"/>
</g>
<!-- Node3 -->
<g id="node3" class="node">
<title>Node3</title>
<g id="a_node3"><a xlink:href="work_8hpp.html" target="_top" xlink:title=" ">
<polygon fill="white" stroke="#666666" points="130,-129 35,-129 35,-110 130,-110 130,-129"/>
<text text-anchor="middle" x="82.5" y="-117" font-family="ui-monospace,monospace" font-size="10.00">jngl/work.hpp</text>
</a>
</g>
</g>
<!-- Node1&#45;&gt;Node3 -->
<g id="edge2" class="edge">
<title>Node1&#45;&gt;Node3</title>
<path fill="none" stroke="#63b8ff" d="M56.77,-156.39C63.31,-147.27 71.07,-136.45 76.34,-129.09"/>
<polygon fill="#63b8ff" stroke="#63b8ff" points="53.76,-154.58 50.77,-164.75 59.45,-158.66 53.76,-154.58"/>
</g>
<!-- Node3&#45;&gt;Node2 -->
<g id="edge3" class="edge">
<title>Node3&#45;&gt;Node2</title>
<path fill="none" stroke="#63b8ff" d="M74.31,-100.61C70.77,-92.56 66.72,-82.89 63.5,-74 56.53,-54.74 50.07,-31.56 46.78,-19.23"/>
<polygon fill="#63b8ff" stroke="#63b8ff" points="71.13,-102.06 78.42,-109.75 77.52,-99.2 71.13,-102.06"/>
</g>
<!-- Node4 -->
<g id="node4" class="node">
<title>Node4</title>
<g id="a_node4"><a xlink:href="WorkFactory_8hpp.html" target="_top" xlink:title=" ">
<polygon fill="white" stroke="#666666" points="210,-74 73,-74 73,-55 210,-55 210,-74"/>
<text text-anchor="middle" x="141.5" y="-62" font-family="ui-monospace,monospace" font-size="10.00">jngl/WorkFactory.hpp</text>
</a>
</g>
</g>
<!-- Node3&#45;&gt;Node4 -->
<g id="edge4" class="edge">
<title>Node3&#45;&gt;Node4</title>
<path fill="none" stroke="#63b8ff" d="M99.7,-103.04C110.17,-93.64 123.15,-81.98 131.85,-74.17"/>
<polygon fill="#63b8ff" stroke="#63b8ff" points="97.08,-100.7 91.98,-109.98 101.76,-105.91 97.08,-100.7"/>
</g>
<!-- Node4&#45;&gt;Node2 -->
<g id="edge5" class="edge">
<title>Node4&#45;&gt;Node2</title>
<path fill="none" stroke="#63b8ff" d="M116.73,-49.97C99,-40.28 75.65,-27.52 60.37,-19.17"/>
<polygon fill="#63b8ff" stroke="#63b8ff" points="115.46,-53.26 125.92,-54.98 118.82,-47.12 115.46,-53.26"/>
</g>
</g>
</svg>
