<?xml version="1.0" encoding="UTF-8" standalone="no"?>
<!DOCTYPE svg PUBLIC "-//W3C//DTD SVG 1.1//EN"
 "http://www.w3.org/Graphics/SVG/1.1/DTD/svg11.dtd">
<!-- Generated by graphviz version 5.0.0 (0)
 -->
<!-- Title: jngl/job.hpp Pages: 1 -->
<svg width="156pt" height="82pt"
 viewBox="0.00 0.00 156.00 82.00" xmlns="http://www.w3.org/2000/svg" xmlns:xlink="http://www.w3.org/1999/xlink">
<g id="graph0" class="graph" transform="scale(1 1) rotate(0) translate(4 78)">
<title>jngl/job.hpp</title>
<!-- Node1 -->
<g id="node1" class="node">
<title>Node1</title>
<g id="a_node1"><a xlink:title="Contains jngl::Job class and related functions.">
<polygon fill="#999999" stroke="#666666" points="124,-74 35,-74 35,-55 124,-55 124,-74"/>
<text text-anchor="middle" x="79.5" y="-62" font-family="ui-monospace,monospace" font-size="10.00">jngl/job.hpp</text>
</a>
</g>
</g>
<!-- Node2 -->
<g id="node2" class="node">
<title>Node2</title>
<g id="a_node2"><a target="_parent" xlink:href="http://en.cppreference.com/w/cpp/header/functional.html" xlink:title=" ">
<polygon fill="white" stroke="#666666" points="77,-19 0,-19 0,0 77,0 77,-19"/>
<text text-anchor="middle" x="38.5" y="-7" font-family="ui-monospace,monospace" font-size="10.00">functional</text>
</a>
</g>
</g>
<!-- Node1&#45;&gt;Node2 -->
<g id="edge1" class="edge">
<title>Node1&#45;&gt;Node2</title>
<path fill="none" stroke="#63b8ff" d="M72.73,-54.75C66.94,-47.26 58.44,-36.28 51.36,-27.13"/>
<polygon fill="#63b8ff" stroke="#63b8ff" points="54.03,-24.86 45.14,-19.09 48.49,-29.14 54.03,-24.86"/>
</g>
<!-- Node3 -->
<g id="node3" class="node">
<title>Node3</title>
<g id="a_node3"><a target="_parent" xlink:href="http://en.cppreference.com/w/cpp/header/memory.html" xlink:title=" ">
<polygon fill="white" stroke="#666666" points="148,-19 95,-19 95,0 148,0 148,-19"/>
<text text-anchor="middle" x="121.5" y="-7" font-family="ui-monospace,monospace" font-size="10.00">memory</text>
</a>
</g>
</g>
<!-- Node1&#45;&gt;Node3 -->
<g id="edge2" class="edge">
<title>Node1&#45;&gt;Node3</title>
<path fill="none" stroke="#63b8ff" d="M86.44,-54.75C92.37,-47.26 101.07,-36.28 108.32,-27.13"/>
<polygon fill="#63b8ff" stroke="#63b8ff" points="111.23,-29.1 114.69,-19.09 105.74,-24.75 111.23,-29.1"/>
</g>
</g>
</svg>
