<?xml version="1.0" encoding="UTF-8" standalone="no"?>
<!DOCTYPE svg PUBLIC "-//W3C//DTD SVG 1.1//EN"
 "http://www.w3.org/Graphics/SVG/1.1/DTD/svg11.dtd">
<!-- Generated by graphviz version 2.36.0 (20140111.2315)
 -->
<!-- Title: jngl/job.hpp Pages: 1 -->
<svg width="116pt" height="196pt"
 viewBox="0.00 0.00 116.00 196.00" xmlns="http://www.w3.org/2000/svg" xmlns:xlink="http://www.w3.org/1999/xlink">
<g id="graph0" class="graph" transform="scale(1 1) rotate(0) translate(4 192)">
<title>jngl/job.hpp</title>
<polygon fill="white" stroke="none" points="-4,4 -4,-192 112,-192 112,4 -4,4"/>
<!-- Node1 -->
<g id="node1" class="node"><title>Node1</title>
<polygon fill="#bfbfbf" stroke="black" points="-0.5,-168.5 -0.5,-187.5 70.5,-187.5 70.5,-168.5 -0.5,-168.5"/>
<text text-anchor="middle" x="35" y="-175.5" font-family="Lato" font-size="10.00">jngl/job.hpp</text>
</g>
<!-- Node2 -->
<g id="node2" class="node"><title>Node2</title>
<g id="a_node2"><a xlink:href="all_8hpp.html" target="_top" xlink:title="Includes all JNGL headers. ">
<polygon fill="white" stroke="black" points="1,-56.5 1,-75.5 69,-75.5 69,-56.5 1,-56.5"/>
<text text-anchor="middle" x="35" y="-63.5" font-family="Lato" font-size="10.00">jngl/all.hpp</text>
</a>
</g>
</g>
<!-- Node1&#45;&gt;Node2 -->
<g id="edge1" class="edge"><title>Node1&#45;&gt;Node2</title>
<path fill="none" stroke="midnightblue" d="M27.3956,-158.637C22.9278,-145.679 18.5883,-127.87 21,-112 22.9668,-99.0576 27.9438,-84.7151 31.4,-75.7782"/>
<polygon fill="midnightblue" stroke="midnightblue" points="24.2154,-160.122 31.0332,-168.232 30.7608,-157.641 24.2154,-160.122"/>
</g>
<!-- Node4 -->
<g id="node4" class="node"><title>Node4</title>
<g id="a_node4"><a xlink:href="work_8hpp.html" target="_top" xlink:title="jngl/work.hpp">
<polygon fill="white" stroke="black" points="29.5,-112.5 29.5,-131.5 108.5,-131.5 108.5,-112.5 29.5,-112.5"/>
<text text-anchor="middle" x="69" y="-119.5" font-family="Lato" font-size="10.00">jngl/work.hpp</text>
</a>
</g>
</g>
<!-- Node1&#45;&gt;Node4 -->
<g id="edge3" class="edge"><title>Node1&#45;&gt;Node4</title>
<path fill="none" stroke="midnightblue" d="M45.9772,-159.566C51.827,-150.275 58.7695,-139.248 63.4901,-131.751"/>
<polygon fill="midnightblue" stroke="midnightblue" points="42.9808,-157.756 40.6144,-168.083 48.9044,-161.486 42.9808,-157.756"/>
</g>
<!-- Node3 -->
<g id="node3" class="node"><title>Node3</title>
<g id="a_node3"><a xlink:href="jngl_8hpp_source.html" target="_top" xlink:title="jngl.hpp">
<polygon fill="white" stroke="black" points="8,-0.5 8,-19.5 62,-19.5 62,-0.5 8,-0.5"/>
<text text-anchor="middle" x="35" y="-7.5" font-family="Lato" font-size="10.00">jngl.hpp</text>
</a>
</g>
</g>
<!-- Node2&#45;&gt;Node3 -->
<g id="edge2" class="edge"><title>Node2&#45;&gt;Node3</title>
<path fill="none" stroke="midnightblue" d="M35,-45.8045C35,-36.9102 35,-26.7798 35,-19.7511"/>
<polygon fill="midnightblue" stroke="midnightblue" points="31.5001,-46.083 35,-56.083 38.5001,-46.083 31.5001,-46.083"/>
</g>
<!-- Node4&#45;&gt;Node2 -->
<g id="edge4" class="edge"><title>Node4&#45;&gt;Node2</title>
<path fill="none" stroke="midnightblue" d="M58.0228,-103.566C52.173,-94.2747 45.2305,-83.2484 40.5099,-75.7511"/>
<polygon fill="midnightblue" stroke="midnightblue" points="55.0956,-105.486 63.3856,-112.083 61.0192,-101.756 55.0956,-105.486"/>
</g>
</g>
</svg>
