<?xml version="1.0" encoding="UTF-8" standalone="no"?>
<!DOCTYPE svg PUBLIC "-//W3C//DTD SVG 1.1//EN"
 "http://www.w3.org/Graphics/SVG/1.1/DTD/svg11.dtd">
<!-- Generated by graphviz version 2.38.0 (20140413.2041)
 -->
<!-- Title: jngl/job.hpp Pages: 1 -->
<svg width="138pt" height="196pt"
 viewBox="0.00 0.00 138.00 196.00" xmlns="http://www.w3.org/2000/svg" xmlns:xlink="http://www.w3.org/1999/xlink">
<g id="graph0" class="graph" transform="scale(1 1) rotate(0) translate(4 192)">
<title>jngl/job.hpp</title>
<polygon fill="white" stroke="none" points="-4,4 -4,-192 134,-192 134,4 -4,4"/>
<!-- Node1 -->
<g id="node1" class="node"><title>Node1</title>
<polygon fill="#bfbfbf" stroke="black" points="-7.10543e-15,-168.5 -7.10543e-15,-187.5 89,-187.5 89,-168.5 -7.10543e-15,-168.5"/>
<text text-anchor="middle" x="44.5" y="-175.5" font-family="'Consolas',monospace" font-size="10.00">jngl/job.hpp</text>
</g>
<!-- Node2 -->
<g id="node2" class="node"><title>Node2</title>
<g id="a_node2"><a xlink:href="all_8hpp.html" target="_top" xlink:title="Includes all JNGL headers. ">
<polygon fill="white" stroke="black" points="-7.10543e-15,-56.5 -7.10543e-15,-75.5 89,-75.5 89,-56.5 -7.10543e-15,-56.5"/>
<text text-anchor="middle" x="44.5" y="-63.5" font-family="'Consolas',monospace" font-size="10.00">jngl/all.hpp</text>
</a>
</g>
</g>
<!-- Node1&#45;&gt;Node2 -->
<g id="edge1" class="edge"><title>Node1&#45;&gt;Node2</title>
<path fill="none" stroke="midnightblue" d="M35.0674,-159.247C31.2916,-151.173 27.3931,-141.351 25.5,-132 21.3473,-111.489 32.1552,-88.0761 39.1268,-75.7132"/>
<polygon fill="midnightblue" stroke="midnightblue" points="32.0251,-160.989 39.6241,-168.372 38.2876,-157.862 32.0251,-160.989"/>
</g>
<!-- Node4 -->
<g id="node4" class="node"><title>Node4</title>
<g id="a_node4"><a xlink:href="work_8hpp.html" target="_top" xlink:title="jngl/work.hpp">
<polygon fill="white" stroke="black" points="35,-112.5 35,-131.5 130,-131.5 130,-112.5 35,-112.5"/>
<text text-anchor="middle" x="82.5" y="-119.5" font-family="'Consolas',monospace" font-size="10.00">jngl/work.hpp</text>
</a>
</g>
</g>
<!-- Node1&#45;&gt;Node4 -->
<g id="edge3" class="edge"><title>Node1&#45;&gt;Node4</title>
<path fill="none" stroke="midnightblue" d="M56.5647,-159.855C63.1447,-150.505 71.011,-139.327 76.3418,-131.751"/>
<polygon fill="midnightblue" stroke="midnightblue" points="53.6676,-157.891 50.7749,-168.083 59.3922,-161.919 53.6676,-157.891"/>
</g>
<!-- Node3 -->
<g id="node3" class="node"><title>Node3</title>
<g id="a_node3"><a xlink:href="jngl_8hpp_source.html" target="_top" xlink:title="jngl.hpp">
<polygon fill="white" stroke="black" points="12,-0.5 12,-19.5 77,-19.5 77,-0.5 12,-0.5"/>
<text text-anchor="middle" x="44.5" y="-7.5" font-family="'Consolas',monospace" font-size="10.00">jngl.hpp</text>
</a>
</g>
</g>
<!-- Node2&#45;&gt;Node3 -->
<g id="edge2" class="edge"><title>Node2&#45;&gt;Node3</title>
<path fill="none" stroke="midnightblue" d="M44.5,-45.8045C44.5,-36.9102 44.5,-26.7798 44.5,-19.7511"/>
<polygon fill="midnightblue" stroke="midnightblue" points="41.0001,-46.083 44.5,-56.083 48.0001,-46.083 41.0001,-46.083"/>
</g>
<!-- Node4&#45;&gt;Node2 -->
<g id="edge4" class="edge"><title>Node4&#45;&gt;Node2</title>
<path fill="none" stroke="midnightblue" d="M70.4353,-103.855C63.8553,-94.5048 55.989,-83.3265 50.6582,-75.7511"/>
<polygon fill="midnightblue" stroke="midnightblue" points="67.6078,-105.919 76.2251,-112.083 73.3324,-101.891 67.6078,-105.919"/>
</g>
</g>
</svg>
