<?xml version="1.0" encoding="UTF-8" standalone="no"?>
<!DOCTYPE svg PUBLIC "-//W3C//DTD SVG 1.1//EN"
 "http://www.w3.org/Graphics/SVG/1.1/DTD/svg11.dtd">
<!-- Generated by graphviz version 9.0.0 (20230911.1827)
 -->
<!-- Title: jngl/job.hpp Pages: 1 -->
<svg width="367pt" height="248pt"
 viewBox="0.00 0.00 367.00 248.25" xmlns="http://www.w3.org/2000/svg" xmlns:xlink="http://www.w3.org/1999/xlink">
<g id="graph0" class="graph" transform="scale(1 1) rotate(0) translate(4 244.25)">
<title>jngl/job.hpp</title>
<!-- Node1 -->
<g id="Node000001" class="node">
<title>Node1</title>
<g id="a_Node000001"><a xlink:title="Contains jngl::Job class and related functions.">
<polygon fill="#999999" stroke="#666666" points="88,-240.25 0,-240.25 0,-221 88,-221 88,-240.25"/>
<text text-anchor="middle" x="44" y="-226.75" font-family="ui-monospace,monospace" font-size="10.00">jngl/job.hpp</text>
</a>
</g>
</g>
<!-- Node2 -->
<g id="Node000002" class="node">
<title>Node2</title>
<g id="a_Node000002"><a xlink:href="jngl_8hpp.html" target="_top" xlink:title="Includes all JNGL headers except for init.hpp.">
<polygon fill="white" stroke="#666666" points="115,-19.25 51,-19.25 51,0 115,0 115,-19.25"/>
<text text-anchor="middle" x="83" y="-5.75" font-family="ui-monospace,monospace" font-size="10.00">jngl.hpp</text>
</a>
</g>
</g>
<!-- Node1&#45;&gt;Node2 -->
<g id="edge1_Node000001_Node000002" class="edge">
<title>Node1&#45;&gt;Node2</title>
<g id="a_edge1_Node000001_Node000002"><a xlink:title=" ">
<path fill="none" stroke="#63b8ff" d="M34.34,-210.33C30.99,-202.65 27.67,-193.6 26,-185 24.37,-176.6 24.5,-174.17 26,-165.75 36.3,-107.84 66.66,-43.2 78.34,-19.75"/>
<polygon fill="#63b8ff" stroke="#63b8ff" points="31.15,-211.78 38.57,-219.34 37.48,-208.8 31.15,-211.78"/>
</a>
</g>
</g>
<!-- Node3 -->
<g id="Node000003" class="node">
<title>Node3</title>
<g id="a_Node000003"><a xlink:href="work_8hpp.html" target="_top" xlink:title=" ">
<polygon fill="white" stroke="#666666" points="129,-185 35,-185 35,-165.75 129,-165.75 129,-185"/>
<text text-anchor="middle" x="82" y="-171.5" font-family="ui-monospace,monospace" font-size="10.00">jngl/work.hpp</text>
</a>
</g>
</g>
<!-- Node1&#45;&gt;Node3 -->
<g id="edge2_Node000001_Node000003" class="edge">
<title>Node1&#45;&gt;Node3</title>
<g id="a_edge2_Node000001_Node000003"><a xlink:title=" ">
<path fill="none" stroke="#63b8ff" d="M56.8,-211.69C63.12,-202.84 70.46,-192.54 75.59,-185.36"/>
<polygon fill="#63b8ff" stroke="#63b8ff" points="54.11,-209.43 51.15,-219.6 59.81,-213.49 54.11,-209.43"/>
</a>
</g>
</g>
<!-- Node3&#45;&gt;Node2 -->
<g id="edge3_Node000003_Node000002" class="edge">
<title>Node3&#45;&gt;Node2</title>
<g id="a_edge3_Node000003_Node000002"><a xlink:title=" ">
<path fill="none" stroke="#63b8ff" d="M81.45,-154.05C81.27,-146.43 81.09,-137.69 81,-129.75 80.54,-88.59 82,-39.44 82.68,-19.59"/>
<polygon fill="#63b8ff" stroke="#63b8ff" points="77.95,-154.07 81.7,-163.97 84.95,-153.89 77.95,-154.07"/>
</a>
</g>
</g>
<!-- Node4 -->
<g id="Node000004" class="node">
<title>Node4</title>
<g id="a_Node000004"><a xlink:href="Scene_8hpp.html" target="_top" xlink:title="Contains jngl::Scene class and related functions.">
<polygon fill="white" stroke="#666666" points="190,-129.75 90,-129.75 90,-110.5 190,-110.5 190,-129.75"/>
<text text-anchor="middle" x="140" y="-116.25" font-family="ui-monospace,monospace" font-size="10.00">jngl/Scene.hpp</text>
</a>
</g>
</g>
<!-- Node3&#45;&gt;Node4 -->
<g id="edge4_Node000003_Node000004" class="edge">
<title>Node3&#45;&gt;Node4</title>
<g id="a_edge4_Node000003_Node000004"><a xlink:title=" ">
<path fill="none" stroke="#63b8ff" d="M100.26,-157.61C110.22,-148.47 122.14,-137.53 130.31,-130.02"/>
<polygon fill="#63b8ff" stroke="#63b8ff" points="97.95,-154.98 92.95,-164.32 102.69,-160.13 97.95,-154.98"/>
</a>
</g>
</g>
<!-- Node4&#45;&gt;Node2 -->
<g id="edge5_Node000004_Node000002" class="edge">
<title>Node4&#45;&gt;Node2</title>
<g id="a_edge5_Node000004_Node000002"><a xlink:title=" ">
<path fill="none" stroke="#63b8ff" d="M122.36,-101.88C115.2,-94.08 107.37,-84.4 102,-74.5 92.07,-56.2 86.71,-32.05 84.4,-19.33"/>
<polygon fill="#63b8ff" stroke="#63b8ff" points="119.76,-104.22 129.22,-108.99 124.79,-99.36 119.76,-104.22"/>
</a>
</g>
</g>
<!-- Node5 -->
<g id="Node000005" class="node">
<title>Node5</title>
<g id="a_Node000005"><a xlink:href="Fade_8hpp.html" target="_top" xlink:title="Contains jngl::Fade class.">
<polygon fill="white" stroke="#666666" points="205,-74.5 111,-74.5 111,-55.25 205,-55.25 205,-74.5"/>
<text text-anchor="middle" x="158" y="-61" font-family="ui-monospace,monospace" font-size="10.00">jngl/Fade.hpp</text>
</a>
</g>
</g>
<!-- Node4&#45;&gt;Node5 -->
<g id="edge6_Node000004_Node000005" class="edge">
<title>Node4&#45;&gt;Node5</title>
<g id="a_edge6_Node000004_Node000005"><a xlink:title=" ">
<path fill="none" stroke="#63b8ff" d="M146.65,-99.46C149.5,-91.02 152.69,-81.58 154.96,-74.86"/>
<polygon fill="#63b8ff" stroke="#63b8ff" points="143.34,-98.3 143.46,-108.9 149.98,-100.55 143.34,-98.3"/>
</a>
</g>
</g>
<!-- Node6 -->
<g id="Node000006" class="node">
<title>Node6</title>
<g id="a_Node000006"><a xlink:href="WorkFactory_8hpp.html" target="_top" xlink:title=" ">
<polygon fill="white" stroke="#666666" points="359,-74.5 223,-74.5 223,-55.25 359,-55.25 359,-74.5"/>
<text text-anchor="middle" x="291" y="-61" font-family="ui-monospace,monospace" font-size="10.00">jngl/WorkFactory.hpp</text>
</a>
</g>
</g>
<!-- Node4&#45;&gt;Node6 -->
<g id="edge8_Node000004_Node000006" class="edge">
<title>Node4&#45;&gt;Node6</title>
<g id="a_edge8_Node000004_Node000006"><a xlink:title=" ">
<path fill="none" stroke="#63b8ff" d="M176.36,-106.3C203.81,-96.62 240.81,-83.57 265.26,-74.95"/>
<polygon fill="#63b8ff" stroke="#63b8ff" points="175.31,-102.96 167.04,-109.59 177.64,-109.56 175.31,-102.96"/>
</a>
</g>
</g>
<!-- Node5&#45;&gt;Node2 -->
<g id="edge7_Node000005_Node000002" class="edge">
<title>Node5&#45;&gt;Node2</title>
<g id="a_edge7_Node000005_Node000002"><a xlink:title=" ">
<path fill="none" stroke="#63b8ff" d="M136.01,-48.26C122.93,-38.97 106.79,-27.52 95.79,-19.7"/>
<polygon fill="#63b8ff" stroke="#63b8ff" points="133.86,-51.03 144.04,-53.97 137.92,-45.32 133.86,-51.03"/>
</a>
</g>
</g>
<!-- Node6&#45;&gt;Node2 -->
<g id="edge9_Node000006_Node000002" class="edge">
<title>Node6&#45;&gt;Node2</title>
<g id="a_edge9_Node000006_Node000002"><a xlink:title=" ">
<path fill="none" stroke="#63b8ff" d="M244.59,-51.99C205.31,-41.94 150.03,-27.78 115.37,-18.91"/>
<polygon fill="#63b8ff" stroke="#63b8ff" points="243.69,-55.38 254.25,-54.47 245.43,-48.6 243.69,-55.38"/>
</a>
</g>
</g>
</g>
</svg>
