<?xml version="1.0" encoding="UTF-8" standalone="no"?>
<!DOCTYPE svg PUBLIC "-//W3C//DTD SVG 1.1//EN"
 "http://www.w3.org/Graphics/SVG/1.1/DTD/svg11.dtd">
<!-- Generated by graphviz version 2.38.0 (20140413.2041)
 -->
<!-- Title: jngl/job.hpp Pages: 1 -->
<svg width="117pt" height="196pt"
 viewBox="0.00 0.00 117.00 196.00" xmlns="http://www.w3.org/2000/svg" xmlns:xlink="http://www.w3.org/1999/xlink">
<g id="graph0" class="graph" transform="scale(1 1) rotate(0) translate(4 192)">
<title>jngl/job.hpp</title>
<polygon fill="white" stroke="none" points="-4,4 -4,-192 113,-192 113,4 -4,4"/>
<!-- Node1 -->
<g id="node1" class="node"><title>Node1</title>
<polygon fill="#bfbfbf" stroke="black" points="0,-168.5 0,-187.5 71,-187.5 71,-168.5 0,-168.5"/>
<text text-anchor="middle" x="35.5" y="-175.5" font-family="Lato" font-size="10.00">jngl/job.hpp</text>
</g>
<!-- Node2 -->
<g id="node2" class="node"><title>Node2</title>
<g id="a_node2"><a xlink:href="all_8hpp.html" target="_top" xlink:title="Includes all JNGL headers. ">
<polygon fill="white" stroke="black" points="1.5,-56.5 1.5,-75.5 69.5,-75.5 69.5,-56.5 1.5,-56.5"/>
<text text-anchor="middle" x="35.5" y="-63.5" font-family="Lato" font-size="10.00">jngl/all.hpp</text>
</a>
</g>
</g>
<!-- Node1&#45;&gt;Node2 -->
<g id="edge1" class="edge"><title>Node1&#45;&gt;Node2</title>
<path fill="none" stroke="midnightblue" d="M27.8956,-158.637C23.4278,-145.679 19.0883,-127.87 21.5,-112 23.4668,-99.0576 28.4438,-84.7151 31.9,-75.7782"/>
<polygon fill="midnightblue" stroke="midnightblue" points="24.7154,-160.122 31.5332,-168.232 31.2608,-157.641 24.7154,-160.122"/>
</g>
<!-- Node4 -->
<g id="node4" class="node"><title>Node4</title>
<g id="a_node4"><a xlink:href="work_8hpp.html" target="_top" xlink:title="jngl/work.hpp">
<polygon fill="white" stroke="black" points="30,-112.5 30,-131.5 109,-131.5 109,-112.5 30,-112.5"/>
<text text-anchor="middle" x="69.5" y="-119.5" font-family="Lato" font-size="10.00">jngl/work.hpp</text>
</a>
</g>
</g>
<!-- Node1&#45;&gt;Node4 -->
<g id="edge3" class="edge"><title>Node1&#45;&gt;Node4</title>
<path fill="none" stroke="midnightblue" d="M46.4772,-159.566C52.327,-150.275 59.2695,-139.248 63.9901,-131.751"/>
<polygon fill="midnightblue" stroke="midnightblue" points="43.4808,-157.756 41.1144,-168.083 49.4044,-161.486 43.4808,-157.756"/>
</g>
<!-- Node3 -->
<g id="node3" class="node"><title>Node3</title>
<g id="a_node3"><a xlink:href="jngl_8hpp_source.html" target="_top" xlink:title="jngl.hpp">
<polygon fill="white" stroke="black" points="8.5,-0.5 8.5,-19.5 62.5,-19.5 62.5,-0.5 8.5,-0.5"/>
<text text-anchor="middle" x="35.5" y="-7.5" font-family="Lato" font-size="10.00">jngl.hpp</text>
</a>
</g>
</g>
<!-- Node2&#45;&gt;Node3 -->
<g id="edge2" class="edge"><title>Node2&#45;&gt;Node3</title>
<path fill="none" stroke="midnightblue" d="M35.5,-45.8045C35.5,-36.9102 35.5,-26.7798 35.5,-19.7511"/>
<polygon fill="midnightblue" stroke="midnightblue" points="32.0001,-46.083 35.5,-56.083 39.0001,-46.083 32.0001,-46.083"/>
</g>
<!-- Node4&#45;&gt;Node2 -->
<g id="edge4" class="edge"><title>Node4&#45;&gt;Node2</title>
<path fill="none" stroke="midnightblue" d="M58.5228,-103.566C52.673,-94.2747 45.7305,-83.2484 41.0099,-75.7511"/>
<polygon fill="midnightblue" stroke="midnightblue" points="55.5956,-105.486 63.8856,-112.083 61.5192,-101.756 55.5956,-105.486"/>
</g>
</g>
</svg>
