<?xml version="1.0" encoding="UTF-8" standalone="no"?>
<!DOCTYPE svg PUBLIC "-//W3C//DTD SVG 1.1//EN"
 "http://www.w3.org/Graphics/SVG/1.1/DTD/svg11.dtd">
<!-- Generated by graphviz version 9.0.0 (20230911.1827)
 -->
<!-- Title: jngl/job.hpp Pages: 1 -->
<svg width="217pt" height="193pt"
 viewBox="0.00 0.00 217.00 193.00" xmlns="http://www.w3.org/2000/svg" xmlns:xlink="http://www.w3.org/1999/xlink">
<g id="graph0" class="graph" transform="scale(1 1) rotate(0) translate(4 189)">
<title>jngl/job.hpp</title>
<!-- Node1 -->
<g id="Node000001" class="node">
<title>Node1</title>
<g id="a_Node000001"><a xlink:title="Contains jngl::Job class and related functions.">
<polygon fill="#999999" stroke="#666666" points="88,-185 0,-185 0,-165.75 88,-165.75 88,-185"/>
<text text-anchor="middle" x="44" y="-171.5" font-family="ui-monospace,monospace" font-size="10.00">jngl/job.hpp</text>
</a>
</g>
</g>
<!-- Node2 -->
<g id="Node000002" class="node">
<title>Node2</title>
<g id="a_Node000002"><a xlink:href="jngl_8hpp.html" target="_top" xlink:title="Includes all JNGL headers except for init.hpp.">
<polygon fill="white" stroke="#666666" points="77,-19.25 13,-19.25 13,0 77,0 77,-19.25"/>
<text text-anchor="middle" x="45" y="-5.75" font-family="ui-monospace,monospace" font-size="10.00">jngl.hpp</text>
</a>
</g>
</g>
<!-- Node1&#45;&gt;Node2 -->
<g id="edge1_Node000001_Node000002" class="edge">
<title>Node1&#45;&gt;Node2</title>
<g id="a_edge1_Node000001_Node000002"><a xlink:title=" ">
<path fill="none" stroke="#63b8ff" d="M34.34,-155.08C30.99,-147.4 27.67,-138.35 26,-129.75 18.06,-88.84 33.94,-39.55 41.41,-19.63"/>
<polygon fill="#63b8ff" stroke="#63b8ff" points="31.15,-156.53 38.57,-164.09 37.48,-153.55 31.15,-156.53"/>
</a>
</g>
</g>
<!-- Node3 -->
<g id="Node000003" class="node">
<title>Node3</title>
<g id="a_Node000003"><a xlink:href="work_8hpp.html" target="_top" xlink:title=" ">
<polygon fill="white" stroke="#666666" points="129,-129.75 35,-129.75 35,-110.5 129,-110.5 129,-129.75"/>
<text text-anchor="middle" x="82" y="-116.25" font-family="ui-monospace,monospace" font-size="10.00">jngl/work.hpp</text>
</a>
</g>
</g>
<!-- Node1&#45;&gt;Node3 -->
<g id="edge2_Node000001_Node000003" class="edge">
<title>Node1&#45;&gt;Node3</title>
<g id="a_edge2_Node000001_Node000003"><a xlink:title=" ">
<path fill="none" stroke="#63b8ff" d="M56.8,-156.44C63.12,-147.59 70.46,-137.29 75.59,-130.11"/>
<polygon fill="#63b8ff" stroke="#63b8ff" points="54.11,-154.18 51.15,-164.35 59.81,-158.24 54.11,-154.18"/>
</a>
</g>
</g>
<!-- Node3&#45;&gt;Node2 -->
<g id="edge3_Node000003_Node000002" class="edge">
<title>Node3&#45;&gt;Node2</title>
<g id="a_edge3_Node000003_Node000002"><a xlink:title=" ">
<path fill="none" stroke="#63b8ff" d="M73.73,-99.78C70.53,-91.99 66.93,-82.88 64,-74.5 57.2,-55.06 50.67,-31.77 47.32,-19.39"/>
<polygon fill="#63b8ff" stroke="#63b8ff" points="70.48,-101.07 77.58,-108.93 76.93,-98.36 70.48,-101.07"/>
</a>
</g>
</g>
<!-- Node4 -->
<g id="Node000004" class="node">
<title>Node4</title>
<g id="a_Node000004"><a xlink:href="WorkFactory_8hpp.html" target="_top" xlink:title=" ">
<polygon fill="white" stroke="#666666" points="209,-74.5 73,-74.5 73,-55.25 209,-55.25 209,-74.5"/>
<text text-anchor="middle" x="141" y="-61" font-family="ui-monospace,monospace" font-size="10.00">jngl/WorkFactory.hpp</text>
</a>
</g>
</g>
<!-- Node3&#45;&gt;Node4 -->
<g id="edge4_Node000003_Node000004" class="edge">
<title>Node3&#45;&gt;Node4</title>
<g id="a_edge4_Node000003_Node000004"><a xlink:title=" ">
<path fill="none" stroke="#63b8ff" d="M100.27,-102.64C110.46,-93.44 122.74,-82.35 131.14,-74.77"/>
<polygon fill="#63b8ff" stroke="#63b8ff" points="98.21,-99.78 93.13,-109.08 102.9,-104.98 98.21,-99.78"/>
</a>
</g>
</g>
<!-- Node4&#45;&gt;Node2 -->
<g id="edge5_Node000004_Node000002" class="edge">
<title>Node4&#45;&gt;Node2</title>
<g id="a_edge5_Node000004_Node000002"><a xlink:title=" ">
<path fill="none" stroke="#63b8ff" d="M114.8,-49.34C97.74,-39.88 76.01,-27.83 61.36,-19.7"/>
<polygon fill="#63b8ff" stroke="#63b8ff" points="112.95,-52.32 123.39,-54.11 116.34,-46.2 112.95,-52.32"/>
</a>
</g>
</g>
</g>
</svg>
