<?xml version="1.0" encoding="UTF-8" standalone="no"?>
<!DOCTYPE svg PUBLIC "-//W3C//DTD SVG 1.1//EN"
 "http://www.w3.org/Graphics/SVG/1.1/DTD/svg11.dtd">
<!-- Generated by graphviz version 9.0.0 (20230911.1827)
 -->
<!-- Title: jngl/job.hpp Pages: 1 -->
<svg width="242pt" height="83pt"
 viewBox="0.00 0.00 242.00 82.50" xmlns="http://www.w3.org/2000/svg" xmlns:xlink="http://www.w3.org/1999/xlink">
<g id="graph0" class="graph" transform="scale(1 1) rotate(0) translate(4 78.5)">
<title>jngl/job.hpp</title>
<!-- Node1 -->
<g id="Node000001" class="node">
<title>Node1</title>
<g id="a_Node000001"><a xlink:title="Contains jngl::Job class and related functions.">
<polygon fill="#999999" stroke="#666666" points="170,-74.5 82,-74.5 82,-55.25 170,-55.25 170,-74.5"/>
<text text-anchor="middle" x="126" y="-61" font-family="ui-monospace,monospace" font-size="10.00">jngl/job.hpp</text>
</a>
</g>
</g>
<!-- Node2 -->
<g id="Node000002" class="node">
<title>Node2</title>
<g id="a_Node000002"><a target="_parent" xlink:href="http://en.cppreference.com/w/cpp/header/filesystem.html" xlink:title=" ">
<polygon fill="white" stroke="#666666" points="70,-19.25 0,-19.25 0,0 70,0 70,-19.25"/>
<text text-anchor="middle" x="35" y="-5.75" font-family="ui-monospace,monospace" font-size="10.00">filesystem</text>
</a>
</g>
</g>
<!-- Node1&#45;&gt;Node2 -->
<g id="edge1_Node000001_Node000002" class="edge">
<title>Node1&#45;&gt;Node2</title>
<g id="a_edge1_Node000001_Node000002"><a xlink:title=" ">
<path fill="none" stroke="#63b8ff" d="M110.56,-54.84C96.84,-46.81 76.5,-34.91 60.38,-25.48"/>
<polygon fill="#63b8ff" stroke="#63b8ff" points="62.22,-22.5 51.82,-20.47 58.68,-28.54 62.22,-22.5"/>
</a>
</g>
</g>
<!-- Node3 -->
<g id="Node000003" class="node">
<title>Node3</title>
<g id="a_Node000003"><a target="_parent" xlink:href="http://en.cppreference.com/w/cpp/header/functional.html" xlink:title=" ">
<polygon fill="white" stroke="#666666" points="164,-19.25 88,-19.25 88,0 164,0 164,-19.25"/>
<text text-anchor="middle" x="126" y="-5.75" font-family="ui-monospace,monospace" font-size="10.00">functional</text>
</a>
</g>
</g>
<!-- Node1&#45;&gt;Node3 -->
<g id="edge2_Node000001_Node000003" class="edge">
<title>Node1&#45;&gt;Node3</title>
<g id="a_edge2_Node000001_Node000003"><a xlink:title=" ">
<path fill="none" stroke="#63b8ff" d="M126,-55.08C126,-48.57 126,-39.42 126,-31.12"/>
<polygon fill="#63b8ff" stroke="#63b8ff" points="129.5,-31.12 126,-21.12 122.5,-31.12 129.5,-31.12"/>
</a>
</g>
</g>
<!-- Node4 -->
<g id="Node000004" class="node">
<title>Node4</title>
<g id="a_Node000004"><a target="_parent" xlink:href="http://en.cppreference.com/w/cpp/header/memory.html" xlink:title=" ">
<polygon fill="white" stroke="#666666" points="234,-19.25 182,-19.25 182,0 234,0 234,-19.25"/>
<text text-anchor="middle" x="208" y="-5.75" font-family="ui-monospace,monospace" font-size="10.00">memory</text>
</a>
</g>
</g>
<!-- Node1&#45;&gt;Node4 -->
<g id="edge3_Node000001_Node000004" class="edge">
<title>Node1&#45;&gt;Node4</title>
<g id="a_edge3_Node000001_Node000004"><a xlink:title=" ">
<path fill="none" stroke="#63b8ff" d="M139.91,-54.84C152.16,-46.89 170.25,-35.14 184.71,-25.75"/>
<polygon fill="#63b8ff" stroke="#63b8ff" points="186.27,-28.91 192.75,-20.53 182.46,-23.04 186.27,-28.91"/>
</a>
</g>
</g>
</g>
</svg>
