<?xml version="1.0" encoding="UTF-8" standalone="no"?>
<!DOCTYPE svg PUBLIC "-//W3C//DTD SVG 1.1//EN"
 "http://www.w3.org/Graphics/SVG/1.1/DTD/svg11.dtd">
<!-- Generated by graphviz version 12.1.0 (20240811.2233)
 -->
<!-- Title: jngl/job.hpp Pages: 1 -->
<svg width="476pt" height="248pt"
 viewBox="0.00 0.00 476.01 248.25" xmlns="http://www.w3.org/2000/svg" xmlns:xlink="http://www.w3.org/1999/xlink">
<g id="graph0" class="graph" transform="scale(1 1) rotate(0) translate(4 244.25)">
<title>jngl/job.hpp</title>
<!-- Node1 -->
<g id="Node000001" class="node">
<title>Node1</title>
<g id="a_Node000001"><a xlink:title="Contains jngl::Job class and related functions.">
<polygon fill="#999999" stroke="#666666" points="151.01,-240.25 63.01,-240.25 63.01,-221 151.01,-221 151.01,-240.25"/>
<text text-anchor="middle" x="107.01" y="-226.75" font-family="ui-monospace,monospace" font-size="10.00">jngl/job.hpp</text>
</a>
</g>
</g>
<!-- Node2 -->
<g id="Node000002" class="node">
<title>Node2</title>
<g id="a_Node000002"><a xlink:href="jngl_8hpp.html" target="_top" xlink:title="Includes all JNGL headers except for init.hpp.">
<polygon fill="white" stroke="#666666" points="224.01,-19.25 160.01,-19.25 160.01,0 224.01,0 224.01,-19.25"/>
<text text-anchor="middle" x="192.01" y="-5.75" font-family="ui-monospace,monospace" font-size="10.00">jngl.hpp</text>
</a>
</g>
</g>
<!-- Node1&#45;&gt;Node2 -->
<g id="edge1_Node000001_Node000002" class="edge">
<title>Node1&#45;&gt;Node2</title>
<g id="a_edge1_Node000001_Node000002"><a xlink:title=" ">
<path fill="none" stroke="#63b8ff" d="M51.73,-217.84C20.79,-208.19 -9.31,-191.79 3.01,-165.75 38.67,-90.34 130.94,-39.3 171.9,-19.65"/>
<polygon fill="#63b8ff" stroke="#63b8ff" points="50.61,-221.16 61.19,-220.56 52.54,-214.43 50.61,-221.16"/>
</a>
</g>
</g>
<!-- Node3 -->
<g id="Node000003" class="node">
<title>Node3</title>
<g id="a_Node000003"><a xlink:href="VideoRecorder_8hpp.html" target="_top" xlink:title="Contains jngl::VideoRecorder class.">
<polygon fill="white" stroke="#666666" points="202.01,-185 12.01,-185 12.01,-165.75 202.01,-165.75 202.01,-185"/>
<text text-anchor="middle" x="107.01" y="-171.5" font-family="ui-monospace,monospace" font-size="10.00">jngl/record/VideoRecorder.hpp</text>
</a>
</g>
</g>
<!-- Node1&#45;&gt;Node3 -->
<g id="edge2_Node000001_Node000003" class="edge">
<title>Node1&#45;&gt;Node3</title>
<g id="a_edge2_Node000001_Node000003"><a xlink:title=" ">
<path fill="none" stroke="#63b8ff" d="M107.01,-209.38C107.01,-201.09 107.01,-191.92 107.01,-185.36"/>
<polygon fill="#63b8ff" stroke="#63b8ff" points="103.51,-209.32 107.01,-219.32 110.51,-209.32 103.51,-209.32"/>
</a>
</g>
</g>
<!-- Node4 -->
<g id="Node000004" class="node">
<title>Node4</title>
<g id="a_Node000004"><a xlink:href="work_8hpp.html" target="_top" xlink:title=" ">
<polygon fill="white" stroke="#666666" points="314.01,-185 220.01,-185 220.01,-165.75 314.01,-165.75 314.01,-185"/>
<text text-anchor="middle" x="267.01" y="-171.5" font-family="ui-monospace,monospace" font-size="10.00">jngl/work.hpp</text>
</a>
</g>
</g>
<!-- Node1&#45;&gt;Node4 -->
<g id="edge3_Node000001_Node000004" class="edge">
<title>Node1&#45;&gt;Node4</title>
<g id="a_edge3_Node000001_Node000004"><a xlink:title=" ">
<path fill="none" stroke="#63b8ff" d="M144.76,-217.06C173.93,-207.35 213.6,-194.15 239.73,-185.45"/>
<polygon fill="#63b8ff" stroke="#63b8ff" points="143.97,-213.64 135.58,-220.11 146.18,-220.28 143.97,-213.64"/>
</a>
</g>
</g>
<!-- Node4&#45;&gt;Node2 -->
<g id="edge4_Node000004_Node000002" class="edge">
<title>Node4&#45;&gt;Node2</title>
<g id="a_edge4_Node000004_Node000002"><a xlink:title=" ">
<path fill="none" stroke="#63b8ff" d="M238.96,-159.41C227.64,-151.96 215.5,-141.94 208.01,-129.75 185.93,-93.84 188.73,-40.43 190.9,-19.5"/>
<polygon fill="#63b8ff" stroke="#63b8ff" points="236.92,-162.26 247.28,-164.48 240.57,-156.29 236.92,-162.26"/>
</a>
</g>
</g>
<!-- Node5 -->
<g id="Node000005" class="node">
<title>Node5</title>
<g id="a_Node000005"><a xlink:href="Scene_8hpp.html" target="_top" xlink:title="Contains jngl::Scene class and related functions.">
<polygon fill="white" stroke="#666666" points="317.01,-129.75 217.01,-129.75 217.01,-110.5 317.01,-110.5 317.01,-129.75"/>
<text text-anchor="middle" x="267.01" y="-116.25" font-family="ui-monospace,monospace" font-size="10.00">jngl/Scene.hpp</text>
</a>
</g>
</g>
<!-- Node4&#45;&gt;Node5 -->
<g id="edge5_Node000004_Node000005" class="edge">
<title>Node4&#45;&gt;Node5</title>
<g id="a_edge5_Node000004_Node000005"><a xlink:title=" ">
<path fill="none" stroke="#63b8ff" d="M267.01,-154.13C267.01,-145.84 267.01,-136.67 267.01,-130.11"/>
<polygon fill="#63b8ff" stroke="#63b8ff" points="263.51,-154.07 267.01,-164.07 270.51,-154.07 263.51,-154.07"/>
</a>
</g>
</g>
<!-- Node5&#45;&gt;Node2 -->
<g id="edge6_Node000005_Node000002" class="edge">
<title>Node5&#45;&gt;Node2</title>
<g id="a_edge6_Node000005_Node000002"><a xlink:title=" ">
<path fill="none" stroke="#63b8ff" d="M241.55,-103.87C230.76,-96.26 218.89,-86.18 211.01,-74.5 199.36,-57.24 194.7,-32.67 192.96,-19.61"/>
<polygon fill="#63b8ff" stroke="#63b8ff" points="239.48,-106.7 249.75,-109.31 243.35,-100.86 239.48,-106.7"/>
</a>
</g>
</g>
<!-- Node6 -->
<g id="Node000006" class="node">
<title>Node6</title>
<g id="a_Node000006"><a xlink:href="Fade_8hpp.html" target="_top" xlink:title="Contains jngl::Fade class.">
<polygon fill="white" stroke="#666666" points="314.01,-74.5 220.01,-74.5 220.01,-55.25 314.01,-55.25 314.01,-74.5"/>
<text text-anchor="middle" x="267.01" y="-61" font-family="ui-monospace,monospace" font-size="10.00">jngl/Fade.hpp</text>
</a>
</g>
</g>
<!-- Node5&#45;&gt;Node6 -->
<g id="edge7_Node000005_Node000006" class="edge">
<title>Node5&#45;&gt;Node6</title>
<g id="a_edge7_Node000005_Node000006"><a xlink:title=" ">
<path fill="none" stroke="#63b8ff" d="M267.01,-98.88C267.01,-90.59 267.01,-81.42 267.01,-74.86"/>
<polygon fill="#63b8ff" stroke="#63b8ff" points="263.51,-98.82 267.01,-108.82 270.51,-98.82 263.51,-98.82"/>
</a>
</g>
</g>
<!-- Node7 -->
<g id="Node000007" class="node">
<title>Node7</title>
<g id="a_Node000007"><a xlink:href="WorkFactory_8hpp.html" target="_top" xlink:title=" ">
<polygon fill="white" stroke="#666666" points="468.01,-74.5 332.01,-74.5 332.01,-55.25 468.01,-55.25 468.01,-74.5"/>
<text text-anchor="middle" x="400.01" y="-61" font-family="ui-monospace,monospace" font-size="10.00">jngl/WorkFactory.hpp</text>
</a>
</g>
</g>
<!-- Node5&#45;&gt;Node7 -->
<g id="edge9_Node000005_Node000007" class="edge">
<title>Node5&#45;&gt;Node7</title>
<g id="a_edge9_Node000005_Node000007"><a xlink:title=" ">
<path fill="none" stroke="#63b8ff" d="M300.01,-105.91C324.08,-96.27 356.09,-83.46 377.33,-74.95"/>
<polygon fill="#63b8ff" stroke="#63b8ff" points="298.96,-102.56 290.97,-109.53 301.56,-109.06 298.96,-102.56"/>
</a>
</g>
</g>
<!-- Node6&#45;&gt;Node2 -->
<g id="edge8_Node000006_Node000002" class="edge">
<title>Node6&#45;&gt;Node2</title>
<g id="a_edge8_Node000006_Node000002"><a xlink:title=" ">
<path fill="none" stroke="#63b8ff" d="M245.01,-48.26C231.93,-38.97 215.8,-27.52 204.79,-19.7"/>
<polygon fill="#63b8ff" stroke="#63b8ff" points="242.87,-51.03 253.05,-53.97 246.92,-45.32 242.87,-51.03"/>
</a>
</g>
</g>
<!-- Node7&#45;&gt;Node2 -->
<g id="edge10_Node000007_Node000002" class="edge">
<title>Node7&#45;&gt;Node2</title>
<g id="a_edge10_Node000007_Node000002"><a xlink:title=" ">
<path fill="none" stroke="#63b8ff" d="M353.59,-51.99C314.32,-41.94 259.03,-27.78 224.38,-18.91"/>
<polygon fill="#63b8ff" stroke="#63b8ff" points="352.7,-55.38 363.26,-54.47 354.44,-48.6 352.7,-55.38"/>
</a>
</g>
</g>
</g>
</svg>
