<?xml version="1.0" encoding="UTF-8" standalone="no"?>
<!DOCTYPE svg PUBLIC "-//W3C//DTD SVG 1.1//EN"
 "http://www.w3.org/Graphics/SVG/1.1/DTD/svg11.dtd">
<!-- Generated by graphviz version 2.38.0 (20140413.2041)
 -->
<!-- Title: jngl/job.hpp Pages: 1 -->
<svg width="132pt" height="84pt"
 viewBox="0.00 0.00 131.50 84.00" xmlns="http://www.w3.org/2000/svg" xmlns:xlink="http://www.w3.org/1999/xlink">
<g id="graph0" class="graph" transform="scale(1 1) rotate(0) translate(4 80)">
<title>jngl/job.hpp</title>
<polygon fill="white" stroke="none" points="-4,4 -4,-80 127.5,-80 127.5,4 -4,4"/>
<!-- Node1 -->
<g id="node1" class="node"><title>Node1</title>
<polygon fill="#bfbfbf" stroke="black" points="28,-56.5 28,-75.5 99,-75.5 99,-56.5 28,-56.5"/>
<text text-anchor="middle" x="63.5" y="-63.5" font-family="Lato" font-size="10.00">jngl/job.hpp</text>
</g>
<!-- Node2 -->
<g id="node2" class="node"><title>Node2</title>
<polygon fill="white" stroke="#bfbfbf" points="0,-0.5 0,-19.5 57,-19.5 57,-0.5 0,-0.5"/>
<text text-anchor="middle" x="28.5" y="-7.5" font-family="Lato" font-size="10.00">memory</text>
</g>
<!-- Node1&#45;&gt;Node2 -->
<g id="edge1" class="edge"><title>Node1&#45;&gt;Node2</title>
<path fill="none" stroke="midnightblue" d="M57.7205,-56.083C52.8276,-48.5341 45.6726,-37.4948 39.6674,-28.2298"/>
<polygon fill="midnightblue" stroke="midnightblue" points="42.548,-26.239 34.172,-19.7511 36.674,-30.0463 42.548,-26.239"/>
</g>
<!-- Node3 -->
<g id="node3" class="node"><title>Node3</title>
<g id="a_node3"><a xlink:href="dll_8hpp_source.html" target="_top" xlink:title="dll.hpp">
<polygon fill="white" stroke="black" points="75.5,-0.5 75.5,-19.5 123.5,-19.5 123.5,-0.5 75.5,-0.5"/>
<text text-anchor="middle" x="99.5" y="-7.5" font-family="Lato" font-size="10.00">dll.hpp</text>
</a>
</g>
</g>
<!-- Node1&#45;&gt;Node3 -->
<g id="edge2" class="edge"><title>Node1&#45;&gt;Node3</title>
<path fill="none" stroke="midnightblue" d="M69.4447,-56.083C74.4773,-48.5341 81.8368,-37.4948 88.0135,-28.2298"/>
<polygon fill="midnightblue" stroke="midnightblue" points="91.0311,-30.0131 93.6659,-19.7511 85.2067,-26.1301 91.0311,-30.0131"/>
</g>
</g>
</svg>
