<?xml version="1.0" encoding="UTF-8" standalone="no"?>
<!DOCTYPE svg PUBLIC "-//W3C//DTD SVG 1.1//EN"
 "http://www.w3.org/Graphics/SVG/1.1/DTD/svg11.dtd">
<!-- Generated by graphviz version 5.0.0 (0)
 -->
<!-- Title: jngl/job.hpp Pages: 1 -->
<svg width="186pt" height="137pt"
 viewBox="0.00 0.00 186.00 137.00" xmlns="http://www.w3.org/2000/svg" xmlns:xlink="http://www.w3.org/1999/xlink">
<g id="graph0" class="graph" transform="scale(1 1) rotate(0) translate(4 133)">
<title>jngl/job.hpp</title>
<!-- Node1 -->
<g id="node1" class="node">
<title>Node1</title>
<g id="a_node1"><a xlink:title="Contains jngl::Job class and related functions.">
<polygon fill="#999999" stroke="#666666" points="115,-129 26,-129 26,-110 115,-110 115,-129"/>
<text text-anchor="middle" x="70.5" y="-117" font-family="ui-monospace,monospace" font-size="10.00">jngl/job.hpp</text>
</a>
</g>
</g>
<!-- Node2 -->
<g id="node2" class="node">
<title>Node2</title>
<g id="a_node2"><a xlink:href="jngl_8hpp.html" target="_top" xlink:title="Includes all JNGL headers except for init.hpp.">
<polygon fill="white" stroke="#666666" points="65,-19 0,-19 0,0 65,0 65,-19"/>
<text text-anchor="middle" x="32.5" y="-7" font-family="ui-monospace,monospace" font-size="10.00">jngl.hpp</text>
</a>
</g>
</g>
<!-- Node1&#45;&gt;Node2 -->
<g id="edge1" class="edge">
<title>Node1&#45;&gt;Node2</title>
<path fill="none" stroke="#63b8ff" d="M62.75,-100.28C59.44,-92.27 55.63,-82.73 52.5,-74 45.55,-54.64 38.59,-31.5 35,-19.2"/>
<polygon fill="#63b8ff" stroke="#63b8ff" points="59.61,-101.85 66.71,-109.71 66.07,-99.14 59.61,-101.85"/>
</g>
<!-- Node3 -->
<g id="node3" class="node">
<title>Node3</title>
<g id="a_node3"><a xlink:href="work_8hpp.html" target="_top" xlink:title=" ">
<polygon fill="white" stroke="#666666" points="156,-74 61,-74 61,-55 156,-55 156,-74"/>
<text text-anchor="middle" x="108.5" y="-62" font-family="ui-monospace,monospace" font-size="10.00">jngl/work.hpp</text>
</a>
</g>
</g>
<!-- Node1&#45;&gt;Node3 -->
<g id="edge2" class="edge">
<title>Node1&#45;&gt;Node3</title>
<path fill="none" stroke="#63b8ff" d="M82.77,-101.39C89.31,-92.27 97.07,-81.45 102.34,-74.09"/>
<polygon fill="#63b8ff" stroke="#63b8ff" points="79.76,-99.58 76.77,-109.75 85.45,-103.66 79.76,-99.58"/>
</g>
<!-- Node3&#45;&gt;Node2 -->
<g id="edge3" class="edge">
<title>Node3&#45;&gt;Node2</title>
<path fill="none" stroke="#63b8ff" d="M87.92,-49.15C74.19,-39.57 56.57,-27.29 44.93,-19.17"/>
<polygon fill="#63b8ff" stroke="#63b8ff" points="86.08,-52.14 96.29,-54.98 90.09,-46.39 86.08,-52.14"/>
</g>
<!-- Node4 -->
<g id="node4" class="node">
<title>Node4</title>
<g id="a_node4"><a xlink:href="init_8hpp.html" target="_top" xlink:title="Include this file only once, as it defines the main function.">
<polygon fill="white" stroke="#666666" points="178,-19 83,-19 83,0 178,0 178,-19"/>
<text text-anchor="middle" x="130.5" y="-7" font-family="ui-monospace,monospace" font-size="10.00">jngl/init.hpp</text>
</a>
</g>
</g>
<!-- Node3&#45;&gt;Node4 -->
<g id="edge4" class="edge">
<title>Node3&#45;&gt;Node4</title>
<path fill="none" stroke="#63b8ff" d="M116.08,-45.24C119.76,-36.37 124.01,-26.14 126.93,-19.09"/>
<polygon fill="#63b8ff" stroke="#63b8ff" points="112.73,-44.17 112.13,-54.75 119.2,-46.85 112.73,-44.17"/>
</g>
</g>
</svg>
