<?xml version="1.0" encoding="UTF-8" standalone="no"?>
<!DOCTYPE svg PUBLIC "-//W3C//DTD SVG 1.1//EN"
 "http://www.w3.org/Graphics/SVG/1.1/DTD/svg11.dtd">
<!-- Generated by graphviz version 9.0.0 (20230911.1827)
 -->
<!-- Title: jngl/job.hpp Pages: 1 -->
<svg width="329pt" height="193pt"
 viewBox="0.00 0.00 329.00 193.00" xmlns="http://www.w3.org/2000/svg" xmlns:xlink="http://www.w3.org/1999/xlink">
<g id="graph0" class="graph" transform="scale(1 1) rotate(0) translate(4 189)">
<title>jngl/job.hpp</title>
<!-- Node1 -->
<g id="Node000001" class="node">
<title>Node1</title>
<g id="a_Node000001"><a xlink:title="Contains jngl::Job class and related functions.">
<polygon fill="#999999" stroke="#666666" points="88,-185 0,-185 0,-165.75 88,-165.75 88,-185"/>
<text text-anchor="middle" x="44" y="-171.5" font-family="ui-monospace,monospace" font-size="10.00">jngl/job.hpp</text>
</a>
</g>
</g>
<!-- Node2 -->
<g id="Node000002" class="node">
<title>Node2</title>
<g id="a_Node000002"><a xlink:href="jngl_8hpp.html" target="_top" xlink:title="Includes all JNGL headers except for init.hpp.">
<polygon fill="white" stroke="#666666" points="114,-19.25 50,-19.25 50,0 114,0 114,-19.25"/>
<text text-anchor="middle" x="82" y="-5.75" font-family="ui-monospace,monospace" font-size="10.00">jngl.hpp</text>
</a>
</g>
</g>
<!-- Node1&#45;&gt;Node2 -->
<g id="edge1_Node000001_Node000002" class="edge">
<title>Node1&#45;&gt;Node2</title>
<g id="a_edge1_Node000001_Node000002"><a xlink:title=" ">
<path fill="none" stroke="#63b8ff" d="M43.21,-154.19C42.99,-141.58 43.2,-125.04 45,-110.5 48.1,-85.47 49.06,-78.84 58,-55.25 62.93,-42.25 70.91,-28.3 76.31,-19.52"/>
<polygon fill="#63b8ff" stroke="#63b8ff" points="39.71,-154.25 43.5,-164.14 46.71,-154.04 39.71,-154.25"/>
</a>
</g>
</g>
<!-- Node3 -->
<g id="Node000003" class="node">
<title>Node3</title>
<g id="a_Node000003"><a xlink:href="work_8hpp.html" target="_top" xlink:title=" ">
<polygon fill="white" stroke="#666666" points="148,-129.75 54,-129.75 54,-110.5 148,-110.5 148,-129.75"/>
<text text-anchor="middle" x="101" y="-116.25" font-family="ui-monospace,monospace" font-size="10.00">jngl/work.hpp</text>
</a>
</g>
</g>
<!-- Node1&#45;&gt;Node3 -->
<g id="edge2_Node000001_Node000003" class="edge">
<title>Node1&#45;&gt;Node3</title>
<g id="a_edge2_Node000001_Node000003"><a xlink:title=" ">
<path fill="none" stroke="#63b8ff" d="M61.95,-157.61C71.73,-148.47 83.44,-137.53 91.47,-130.02"/>
<polygon fill="#63b8ff" stroke="#63b8ff" points="59.69,-154.92 54.78,-164.31 64.47,-160.04 59.69,-154.92"/>
</a>
</g>
</g>
<!-- Node3&#45;&gt;Node2 -->
<g id="edge3_Node000003_Node000002" class="edge">
<title>Node3&#45;&gt;Node2</title>
<g id="a_edge3_Node000003_Node000002"><a xlink:title=" ">
<path fill="none" stroke="#63b8ff" d="M82.14,-102.14C75.02,-94.49 67.73,-84.84 64,-74.5 57.04,-55.21 68.46,-31.86 76.07,-19.43"/>
<polygon fill="#63b8ff" stroke="#63b8ff" points="79.57,-104.52 89.14,-109.07 84.5,-99.55 79.57,-104.52"/>
</a>
</g>
</g>
<!-- Node4 -->
<g id="Node000004" class="node">
<title>Node4</title>
<g id="a_Node000004"><a xlink:href="Fade_8hpp.html" target="_top" xlink:title="Contains jngl::Fade class.">
<polygon fill="white" stroke="#666666" points="167,-74.5 73,-74.5 73,-55.25 167,-55.25 167,-74.5"/>
<text text-anchor="middle" x="120" y="-61" font-family="ui-monospace,monospace" font-size="10.00">jngl/Fade.hpp</text>
</a>
</g>
</g>
<!-- Node3&#45;&gt;Node4 -->
<g id="edge4_Node000003_Node000004" class="edge">
<title>Node3&#45;&gt;Node4</title>
<g id="a_edge4_Node000003_Node000004"><a xlink:title=" ">
<path fill="none" stroke="#63b8ff" d="M107.91,-99.75C110.95,-91.24 114.37,-81.65 116.79,-74.86"/>
<polygon fill="#63b8ff" stroke="#63b8ff" points="104.71,-98.31 104.65,-108.91 111.3,-100.66 104.71,-98.31"/>
</a>
</g>
</g>
<!-- Node5 -->
<g id="Node000005" class="node">
<title>Node5</title>
<g id="a_Node000005"><a xlink:href="WorkFactory_8hpp.html" target="_top" xlink:title=" ">
<polygon fill="white" stroke="#666666" points="321,-74.5 185,-74.5 185,-55.25 321,-55.25 321,-74.5"/>
<text text-anchor="middle" x="253" y="-61" font-family="ui-monospace,monospace" font-size="10.00">jngl/WorkFactory.hpp</text>
</a>
</g>
</g>
<!-- Node3&#45;&gt;Node5 -->
<g id="edge6_Node000003_Node000005" class="edge">
<title>Node3&#45;&gt;Node5</title>
<g id="a_edge6_Node000003_Node000005"><a xlink:title=" ">
<path fill="none" stroke="#63b8ff" d="M137.6,-106.3C165.24,-96.62 202.48,-83.57 227.09,-74.95"/>
<polygon fill="#63b8ff" stroke="#63b8ff" points="136.49,-102.98 128.21,-109.59 138.81,-109.59 136.49,-102.98"/>
</a>
</g>
</g>
<!-- Node4&#45;&gt;Node2 -->
<g id="edge5_Node000004_Node000002" class="edge">
<title>Node4&#45;&gt;Node2</title>
<g id="a_edge5_Node000004_Node000002"><a xlink:title=" ">
<path fill="none" stroke="#63b8ff" d="M107.2,-45.94C100.88,-37.09 93.54,-26.79 88.41,-19.61"/>
<polygon fill="#63b8ff" stroke="#63b8ff" points="104.19,-47.74 112.85,-53.85 109.89,-43.68 104.19,-47.74"/>
</a>
</g>
</g>
<!-- Node5&#45;&gt;Node2 -->
<g id="edge7_Node000005_Node000002" class="edge">
<title>Node5&#45;&gt;Node2</title>
<g id="a_edge7_Node000005_Node000002"><a xlink:title=" ">
<path fill="none" stroke="#63b8ff" d="M213.06,-51.44C181.85,-41.72 139.21,-28.44 111.15,-19.7"/>
<polygon fill="#63b8ff" stroke="#63b8ff" points="211.96,-54.76 222.55,-54.39 214.04,-48.08 211.96,-54.76"/>
</a>
</g>
</g>
</g>
</svg>
