<?xml version="1.0" encoding="UTF-8" standalone="no"?>
<!DOCTYPE svg PUBLIC "-//W3C//DTD SVG 1.1//EN"
 "http://www.w3.org/Graphics/SVG/1.1/DTD/svg11.dtd">
<!-- Generated by graphviz version 2.43.0 (0)
 -->
<!-- Title: jngl/Label.hpp Pages: 1 -->
<svg width="486pt" height="252pt"
 viewBox="0.00 0.00 486.06 252.00" xmlns="http://www.w3.org/2000/svg" xmlns:xlink="http://www.w3.org/1999/xlink">
<g id="graph0" class="graph" transform="scale(1 1) rotate(0) translate(4 248)">
<title>jngl/Label.hpp</title>
<polygon fill="white" stroke="transparent" points="-4,4 -4,-248 482.06,-248 482.06,4 -4,4"/>
<!-- Node1 -->
<g id="node1" class="node">
<title>Node1</title>
<g id="a_node1"><a xlink:title="Contains jngl::Label class.">
<polygon fill="#bfbfbf" stroke="black" points="173,-224.5 173,-243.5 274,-243.5 274,-224.5 173,-224.5"/>
<text text-anchor="middle" x="223.5" y="-231.5" font-family="'Consolas',monospace" font-size="10.00">jngl/Label.hpp</text>
</a>
</g>
</g>
<!-- Node2 -->
<g id="node2" class="node">
<title>Node2</title>
<g id="a_node2"><a xlink:href="Color_8hpp.html" target="_top" xlink:title="Contains jngl::Color class.">
<polygon fill="white" stroke="black" points="43,-168.5 43,-187.5 114,-187.5 114,-168.5 43,-168.5"/>
<text text-anchor="middle" x="78.5" y="-175.5" font-family="'Consolas',monospace" font-size="10.00">Color.hpp</text>
</a>
</g>
</g>
<!-- Node1&#45;&gt;Node2 -->
<g id="edge1" class="edge">
<title>Node1&#45;&gt;Node2</title>
<path fill="none" stroke="midnightblue" d="M200.52,-224.44C176.34,-215.44 138.08,-201.19 110.85,-191.05"/>
<polygon fill="midnightblue" stroke="midnightblue" points="111.96,-187.73 101.37,-187.52 109.52,-194.29 111.96,-187.73"/>
</g>
<!-- Node3 -->
<g id="node3" class="node">
<title>Node3</title>
<g id="a_node3"><a xlink:href="TextLine_8hpp.html" target="_top" xlink:title="Contains jngl::TextLine class.">
<polygon fill="white" stroke="black" points="132,-168.5 132,-187.5 221,-187.5 221,-168.5 132,-168.5"/>
<text text-anchor="middle" x="176.5" y="-175.5" font-family="'Consolas',monospace" font-size="10.00">TextLine.hpp</text>
</a>
</g>
</g>
<!-- Node1&#45;&gt;Node3 -->
<g id="edge2" class="edge">
<title>Node1&#45;&gt;Node3</title>
<path fill="none" stroke="midnightblue" d="M215.74,-224.08C208.96,-216.3 198.96,-204.8 190.74,-195.37"/>
<polygon fill="midnightblue" stroke="midnightblue" points="193.32,-193 184.12,-187.75 188.04,-197.59 193.32,-193"/>
</g>
<!-- Node11 -->
<g id="node11" class="node">
<title>Node11</title>
<g id="a_node11"><a xlink:href="Widget_8hpp.html" target="_top" xlink:title="Contains jngl::Container class.">
<polygon fill="white" stroke="black" points="345,-168.5 345,-187.5 422,-187.5 422,-168.5 345,-168.5"/>
<text text-anchor="middle" x="383.5" y="-175.5" font-family="'Consolas',monospace" font-size="10.00">Widget.hpp</text>
</a>
</g>
</g>
<!-- Node1&#45;&gt;Node11 -->
<g id="edge11" class="edge">
<title>Node1&#45;&gt;Node11</title>
<path fill="none" stroke="midnightblue" d="M248.85,-224.44C275.77,-215.36 318.5,-200.94 348.59,-190.78"/>
<polygon fill="midnightblue" stroke="midnightblue" points="349.91,-194.03 358.27,-187.52 347.67,-187.4 349.91,-194.03"/>
</g>
<!-- Node14 -->
<g id="node14" class="node">
<title>Node14</title>
<g id="a_node14"><a xlink:href="text_8hpp.html" target="_top" xlink:title=" ">
<polygon fill="white" stroke="black" points="239,-168.5 239,-187.5 304,-187.5 304,-168.5 239,-168.5"/>
<text text-anchor="middle" x="271.5" y="-175.5" font-family="'Consolas',monospace" font-size="10.00">text.hpp</text>
</a>
</g>
</g>
<!-- Node1&#45;&gt;Node14 -->
<g id="edge16" class="edge">
<title>Node1&#45;&gt;Node14</title>
<path fill="none" stroke="midnightblue" d="M231.43,-224.08C238.35,-216.3 248.57,-204.8 256.95,-195.37"/>
<polygon fill="midnightblue" stroke="midnightblue" points="259.69,-197.55 263.72,-187.75 254.46,-192.9 259.69,-197.55"/>
</g>
<!-- Node4 -->
<g id="node4" class="node">
<title>Node4</title>
<g id="a_node4"><a xlink:href="Drawable_8hpp.html" target="_top" xlink:title="Contains jngl::Drawable class.">
<polygon fill="white" stroke="black" points="108,-112.5 108,-131.5 197,-131.5 197,-112.5 108,-112.5"/>
<text text-anchor="middle" x="152.5" y="-119.5" font-family="'Consolas',monospace" font-size="10.00">Drawable.hpp</text>
</a>
</g>
</g>
<!-- Node3&#45;&gt;Node4 -->
<g id="edge3" class="edge">
<title>Node3&#45;&gt;Node4</title>
<path fill="none" stroke="midnightblue" d="M172.54,-168.08C169.29,-160.77 164.58,-150.18 160.55,-141.1"/>
<polygon fill="midnightblue" stroke="midnightblue" points="163.65,-139.47 156.39,-131.75 157.25,-142.31 163.65,-139.47"/>
</g>
<!-- Node8 -->
<g id="node8" class="node">
<title>Node8</title>
<g id="a_node8"><a xlink:href="Mat3_8hpp.html" target="_top" xlink:title="Contains jngl::Mat3 class.">
<polygon fill="white" stroke="black" points="25,-112.5 25,-131.5 90,-131.5 90,-112.5 25,-112.5"/>
<text text-anchor="middle" x="57.5" y="-119.5" font-family="'Consolas',monospace" font-size="10.00">Mat3.hpp</text>
</a>
</g>
</g>
<!-- Node3&#45;&gt;Node8 -->
<g id="edge7" class="edge">
<title>Node3&#45;&gt;Node8</title>
<path fill="none" stroke="midnightblue" d="M157.64,-168.44C138.23,-159.64 107.77,-145.81 85.54,-135.72"/>
<polygon fill="midnightblue" stroke="midnightblue" points="86.82,-132.46 76.27,-131.52 83.93,-138.84 86.82,-132.46"/>
</g>
<!-- Node10 -->
<g id="node10" class="node">
<title>Node10</title>
<g id="a_node10"><a target="_parent" xlink:href="http://en.cppreference.com/w/cpp/header/memory.html" xlink:title=" ">
<polygon fill="white" stroke="black" points="215,-112.5 215,-131.5 268,-131.5 268,-112.5 215,-112.5"/>
<text text-anchor="middle" x="241.5" y="-119.5" font-family="'Consolas',monospace" font-size="10.00">memory</text>
</a>
</g>
</g>
<!-- Node3&#45;&gt;Node10 -->
<g id="edge10" class="edge">
<title>Node3&#45;&gt;Node10</title>
<path fill="none" stroke="midnightblue" d="M186.94,-168.32C196.65,-160.26 211.32,-148.08 223,-138.37"/>
<polygon fill="midnightblue" stroke="midnightblue" points="225.41,-140.92 230.87,-131.83 220.94,-135.53 225.41,-140.92"/>
</g>
<!-- Node5 -->
<g id="node5" class="node">
<title>Node5</title>
<g id="a_node5"><a xlink:href="Vec2_8hpp.html" target="_top" xlink:title="Contains jngl::Vec2 class.">
<polygon fill="white" stroke="black" points="175,-56.5 175,-75.5 240,-75.5 240,-56.5 175,-56.5"/>
<text text-anchor="middle" x="207.5" y="-63.5" font-family="'Consolas',monospace" font-size="10.00">Vec2.hpp</text>
</a>
</g>
</g>
<!-- Node4&#45;&gt;Node5 -->
<g id="edge4" class="edge">
<title>Node4&#45;&gt;Node5</title>
<path fill="none" stroke="midnightblue" d="M161.58,-112.08C169.67,-104.14 181.7,-92.34 191.41,-82.8"/>
<polygon fill="midnightblue" stroke="midnightblue" points="193.9,-85.25 198.59,-75.75 189,-80.26 193.9,-85.25"/>
</g>
<!-- Node6 -->
<g id="node6" class="node">
<title>Node6</title>
<g id="a_node6"><a xlink:title=" ">
<polygon fill="white" stroke="#bfbfbf" points="0,-0.5 0,-19.5 119,-19.5 119,-0.5 0,-0.5"/>
<text text-anchor="middle" x="59.5" y="-7.5" font-family="'Consolas',monospace" font-size="10.00">boost/version.hpp</text>
</a>
</g>
</g>
<!-- Node5&#45;&gt;Node6 -->
<g id="edge5" class="edge">
<title>Node5&#45;&gt;Node6</title>
<path fill="none" stroke="midnightblue" d="M184.05,-56.44C159.37,-47.44 120.31,-33.19 92.52,-23.05"/>
<polygon fill="midnightblue" stroke="midnightblue" points="93.44,-19.66 82.84,-19.52 91.04,-26.23 93.44,-19.66"/>
</g>
<!-- Node7 -->
<g id="node7" class="node">
<title>Node7</title>
<g id="a_node7"><a target="_parent" xlink:href="http://en.cppreference.com/w/cpp/header/iosfwd.html" xlink:title=" ">
<polygon fill="white" stroke="black" points="181,-0.5 181,-19.5 234,-19.5 234,-0.5 181,-0.5"/>
<text text-anchor="middle" x="207.5" y="-7.5" font-family="'Consolas',monospace" font-size="10.00">iosfwd</text>
</a>
</g>
</g>
<!-- Node5&#45;&gt;Node7 -->
<g id="edge6" class="edge">
<title>Node5&#45;&gt;Node7</title>
<path fill="none" stroke="midnightblue" d="M207.5,-56.08C207.5,-49.01 207.5,-38.86 207.5,-29.99"/>
<polygon fill="midnightblue" stroke="midnightblue" points="211,-29.75 207.5,-19.75 204,-29.75 211,-29.75"/>
</g>
<!-- Node8&#45;&gt;Node6 -->
<g id="edge8" class="edge">
<title>Node8&#45;&gt;Node6</title>
<path fill="none" stroke="midnightblue" d="M50.91,-112.32C42.36,-99.99 29.16,-76.63 34.5,-56 37.05,-46.18 42.25,-36.21 47.26,-28.17"/>
<polygon fill="midnightblue" stroke="midnightblue" points="50.25,-29.99 52.87,-19.73 44.42,-26.11 50.25,-29.99"/>
</g>
<!-- Node9 -->
<g id="node9" class="node">
<title>Node9</title>
<g id="a_node9"><a target="_parent" xlink:href="http://en.cppreference.com/w/cpp/header/initializer_list.html" xlink:title=" ">
<polygon fill="white" stroke="black" points="44,-56.5 44,-75.5 157,-75.5 157,-56.5 44,-56.5"/>
<text text-anchor="middle" x="100.5" y="-63.5" font-family="'Consolas',monospace" font-size="10.00">initializer_list</text>
</a>
</g>
</g>
<!-- Node8&#45;&gt;Node9 -->
<g id="edge9" class="edge">
<title>Node8&#45;&gt;Node9</title>
<path fill="none" stroke="midnightblue" d="M64.6,-112.08C70.74,-104.38 79.77,-93.03 87.24,-83.65"/>
<polygon fill="midnightblue" stroke="midnightblue" points="90.04,-85.75 93.53,-75.75 84.56,-81.39 90.04,-85.75"/>
</g>
<!-- Node11&#45;&gt;Node5 -->
<g id="edge12" class="edge">
<title>Node11&#45;&gt;Node5</title>
<path fill="none" stroke="midnightblue" d="M413.69,-168.43C447.08,-157.48 493.55,-136.92 472.5,-112 444.63,-79 318.53,-70.2 250.81,-67.85"/>
<polygon fill="midnightblue" stroke="midnightblue" points="250.57,-64.34 240.47,-67.53 250.35,-71.34 250.57,-64.34"/>
</g>
<!-- Node11&#45;&gt;Node10 -->
<g id="edge13" class="edge">
<title>Node11&#45;&gt;Node10</title>
<path fill="none" stroke="midnightblue" d="M361,-168.44C337.42,-159.48 300.18,-145.31 273.54,-135.18"/>
<polygon fill="midnightblue" stroke="midnightblue" points="274.49,-131.8 263.9,-131.52 272,-138.34 274.49,-131.8"/>
</g>
<!-- Node12 -->
<g id="node12" class="node">
<title>Node12</title>
<g id="a_node12"><a target="_parent" xlink:href="http://en.cppreference.com/w/cpp/header/set.html" xlink:title=" ">
<polygon fill="white" stroke="black" points="428,-112.5 428,-131.5 463,-131.5 463,-112.5 428,-112.5"/>
<text text-anchor="middle" x="445.5" y="-119.5" font-family="'Consolas',monospace" font-size="10.00">set</text>
</a>
</g>
</g>
<!-- Node11&#45;&gt;Node12 -->
<g id="edge14" class="edge">
<title>Node11&#45;&gt;Node12</title>
<path fill="none" stroke="midnightblue" d="M393.46,-168.32C402.63,-160.34 416.44,-148.31 427.53,-138.65"/>
<polygon fill="midnightblue" stroke="midnightblue" points="430.12,-141.04 435.36,-131.83 425.52,-135.76 430.12,-141.04"/>
</g>
<!-- Node13 -->
<g id="node13" class="node">
<title>Node13</title>
<g id="a_node13"><a target="_parent" xlink:href="http://en.cppreference.com/w/cpp/header/vector.html" xlink:title=" ">
<polygon fill="white" stroke="black" points="357,-112.5 357,-131.5 410,-131.5 410,-112.5 357,-112.5"/>
<text text-anchor="middle" x="383.5" y="-119.5" font-family="'Consolas',monospace" font-size="10.00">vector</text>
</a>
</g>
</g>
<!-- Node11&#45;&gt;Node13 -->
<g id="edge15" class="edge">
<title>Node11&#45;&gt;Node13</title>
<path fill="none" stroke="midnightblue" d="M383.5,-168.08C383.5,-161.01 383.5,-150.86 383.5,-141.99"/>
<polygon fill="midnightblue" stroke="midnightblue" points="387,-141.75 383.5,-131.75 380,-141.75 387,-141.75"/>
</g>
<!-- Node14&#45;&gt;Node4 -->
<g id="edge17" class="edge">
<title>Node14&#45;&gt;Node4</title>
<path fill="none" stroke="midnightblue" d="M252.64,-168.44C233.23,-159.64 202.77,-145.81 180.54,-135.72"/>
<polygon fill="midnightblue" stroke="midnightblue" points="181.82,-132.46 171.27,-131.52 178.93,-138.84 181.82,-132.46"/>
</g>
<!-- Node14&#45;&gt;Node10 -->
<g id="edge18" class="edge">
<title>Node14&#45;&gt;Node10</title>
<path fill="none" stroke="midnightblue" d="M266.55,-168.08C262.4,-160.61 256.35,-149.72 251.23,-140.52"/>
<polygon fill="midnightblue" stroke="midnightblue" points="254.28,-138.79 246.36,-131.75 248.16,-142.19 254.28,-138.79"/>
</g>
<!-- Node14&#45;&gt;Node13 -->
<g id="edge20" class="edge">
<title>Node14&#45;&gt;Node13</title>
<path fill="none" stroke="midnightblue" d="M289.49,-168.32C307.54,-159.62 335.55,-146.12 356.3,-136.11"/>
<polygon fill="midnightblue" stroke="midnightblue" points="358.06,-139.15 365.55,-131.65 355.02,-132.84 358.06,-139.15"/>
</g>
<!-- Node15 -->
<g id="node15" class="node">
<title>Node15</title>
<g id="a_node15"><a target="_parent" xlink:href="http://en.cppreference.com/w/cpp/header/string.html" xlink:title=" ">
<polygon fill="white" stroke="black" points="286,-112.5 286,-131.5 339,-131.5 339,-112.5 286,-112.5"/>
<text text-anchor="middle" x="312.5" y="-119.5" font-family="'Consolas',monospace" font-size="10.00">string</text>
</a>
</g>
</g>
<!-- Node14&#45;&gt;Node15 -->
<g id="edge19" class="edge">
<title>Node14&#45;&gt;Node15</title>
<path fill="none" stroke="midnightblue" d="M278.27,-168.08C284.06,-160.46 292.56,-149.26 299.64,-139.94"/>
<polygon fill="midnightblue" stroke="midnightblue" points="302.6,-141.83 305.86,-131.75 297.02,-137.6 302.6,-141.83"/>
</g>
</g>
</svg>
