<?xml version="1.0" encoding="UTF-8" standalone="no"?>
<!DOCTYPE svg PUBLIC "-//W3C//DTD SVG 1.1//EN"
 "http://www.w3.org/Graphics/SVG/1.1/DTD/svg11.dtd">
<!-- Generated by graphviz version 9.0.0 (20230911.1827)
 -->
<!-- Title: jngl/Label.hpp Pages: 1 -->
<svg width="554pt" height="248pt"
 viewBox="0.00 0.00 554.00 248.25" xmlns="http://www.w3.org/2000/svg" xmlns:xlink="http://www.w3.org/1999/xlink">
<g id="graph0" class="graph" transform="scale(1 1) rotate(0) translate(4 244.25)">
<title>jngl/Label.hpp</title>
<!-- Node1 -->
<g id="Node000001" class="node">
<title>Node1</title>
<g id="a_Node000001"><a xlink:title="Contains jngl::Label class.">
<polygon fill="#999999" stroke="#666666" points="313,-240.25 213,-240.25 213,-221 313,-221 313,-240.25"/>
<text text-anchor="middle" x="263" y="-226.75" font-family="ui-monospace,monospace" font-size="10.00">jngl/Label.hpp</text>
</a>
</g>
</g>
<!-- Node2 -->
<g id="Node000002" class="node">
<title>Node2</title>
<g id="a_Node000002"><a xlink:href="Rgb_8hpp.html" target="_top" xlink:title="Contains jngl::Rgb class.">
<polygon fill="white" stroke="#666666" points="122,-185 64,-185 64,-165.75 122,-165.75 122,-185"/>
<text text-anchor="middle" x="93" y="-171.5" font-family="ui-monospace,monospace" font-size="10.00">Rgb.hpp</text>
</a>
</g>
</g>
<!-- Node1&#45;&gt;Node2 -->
<g id="edge1_Node000001_Node000002" class="edge">
<title>Node1&#45;&gt;Node2</title>
<g id="a_edge1_Node000001_Node000002"><a xlink:title=" ">
<path fill="none" stroke="#63b8ff" d="M234.16,-220.59C206.32,-211.87 163.93,-198.59 132.86,-188.86"/>
<polygon fill="#63b8ff" stroke="#63b8ff" points="134.01,-185.55 123.42,-185.9 131.92,-192.23 134.01,-185.55"/>
</a>
</g>
</g>
<!-- Node4 -->
<g id="Node000004" class="node">
<title>Node4</title>
<g id="a_Node000004"><a xlink:href="TextLine_8hpp.html" target="_top" xlink:title="Contains jngl::TextLine class.">
<polygon fill="white" stroke="#666666" points="260,-185 172,-185 172,-165.75 260,-165.75 260,-185"/>
<text text-anchor="middle" x="216" y="-171.5" font-family="ui-monospace,monospace" font-size="10.00">TextLine.hpp</text>
</a>
</g>
</g>
<!-- Node1&#45;&gt;Node4 -->
<g id="edge3_Node000001_Node000004" class="edge">
<title>Node1&#45;&gt;Node4</title>
<g id="a_edge3_Node000001_Node000004"><a xlink:title=" ">
<path fill="none" stroke="#63b8ff" d="M255.24,-220.83C248.81,-213.55 239.49,-202.98 231.54,-193.98"/>
<polygon fill="#63b8ff" stroke="#63b8ff" points="234.17,-191.68 224.93,-186.49 228.92,-196.31 234.17,-191.68"/>
</a>
</g>
</g>
<!-- Node12 -->
<g id="Node000012" class="node">
<title>Node12</title>
<g id="a_Node000012"><a xlink:href="Widget_8hpp.html" target="_top" xlink:title="Contains jngl::Container class.">
<polygon fill="white" stroke="#666666" points="452,-185 376,-185 376,-165.75 452,-165.75 452,-185"/>
<text text-anchor="middle" x="414" y="-171.5" font-family="ui-monospace,monospace" font-size="10.00">Widget.hpp</text>
</a>
</g>
</g>
<!-- Node1&#45;&gt;Node12 -->
<g id="edge12_Node000001_Node000012" class="edge">
<title>Node1&#45;&gt;Node12</title>
<g id="a_edge12_Node000001_Node000012"><a xlink:title=" ">
<path fill="none" stroke="#63b8ff" d="M288.62,-220.59C313.02,-211.99 350.01,-198.94 377.5,-189.25"/>
<polygon fill="#63b8ff" stroke="#63b8ff" points="378.57,-192.58 386.83,-185.96 376.24,-185.98 378.57,-192.58"/>
</a>
</g>
</g>
<!-- Node15 -->
<g id="Node000015" class="node">
<title>Node15</title>
<g id="a_Node000015"><a xlink:href="text_8hpp.html" target="_top" xlink:title=" ">
<polygon fill="white" stroke="#666666" points="342,-185 278,-185 278,-165.75 342,-165.75 342,-185"/>
<text text-anchor="middle" x="310" y="-171.5" font-family="ui-monospace,monospace" font-size="10.00">text.hpp</text>
</a>
</g>
</g>
<!-- Node1&#45;&gt;Node15 -->
<g id="edge18_Node000001_Node000015" class="edge">
<title>Node1&#45;&gt;Node15</title>
<g id="a_edge18_Node000001_Node000015"><a xlink:title=" ">
<path fill="none" stroke="#63b8ff" d="M270.76,-220.83C277.19,-213.55 286.51,-202.98 294.46,-193.98"/>
<polygon fill="#63b8ff" stroke="#63b8ff" points="297.08,-196.31 301.07,-186.49 291.83,-191.68 297.08,-196.31"/>
</a>
</g>
</g>
<!-- Node3 -->
<g id="Node000003" class="node">
<title>Node3</title>
<g id="a_Node000003"><a target="_parent" xlink:href="http://en.cppreference.com/w/cpp/header/cstdint.html" xlink:title=" ">
<polygon fill="white" stroke="#666666" points="58,-129.75 0,-129.75 0,-110.5 58,-110.5 58,-129.75"/>
<text text-anchor="middle" x="29" y="-116.25" font-family="ui-monospace,monospace" font-size="10.00">cstdint</text>
</a>
</g>
</g>
<!-- Node2&#45;&gt;Node3 -->
<g id="edge2_Node000002_Node000003" class="edge">
<title>Node2&#45;&gt;Node3</title>
<g id="a_edge2_Node000002_Node000003"><a xlink:title=" ">
<path fill="none" stroke="#63b8ff" d="M82.14,-165.34C72.89,-157.65 59.38,-146.4 48.29,-137.18"/>
<polygon fill="#63b8ff" stroke="#63b8ff" points="50.79,-134.7 40.86,-130.99 46.31,-140.08 50.79,-134.7"/>
</a>
</g>
</g>
<!-- Node5 -->
<g id="Node000005" class="node">
<title>Node5</title>
<g id="a_Node000005"><a xlink:href="Drawable_8hpp.html" target="_top" xlink:title="Contains jngl::Drawable class.">
<polygon fill="white" stroke="#666666" points="164,-129.75 76,-129.75 76,-110.5 164,-110.5 164,-129.75"/>
<text text-anchor="middle" x="120" y="-116.25" font-family="ui-monospace,monospace" font-size="10.00">Drawable.hpp</text>
</a>
</g>
</g>
<!-- Node4&#45;&gt;Node5 -->
<g id="edge4_Node000004_Node000005" class="edge">
<title>Node4&#45;&gt;Node5</title>
<g id="a_edge4_Node000004_Node000005"><a xlink:title=" ">
<path fill="none" stroke="#63b8ff" d="M199.71,-165.34C185.1,-157.23 163.37,-145.18 146.29,-135.71"/>
<polygon fill="#63b8ff" stroke="#63b8ff" points="148.13,-132.73 137.69,-130.94 144.74,-138.85 148.13,-132.73"/>
</a>
</g>
</g>
<!-- Node9 -->
<g id="Node000009" class="node">
<title>Node9</title>
<g id="a_Node000009"><a xlink:href="Mat3_8hpp.html" target="_top" xlink:title="Contains jngl::Mat3 class.">
<polygon fill="white" stroke="#666666" points="386,-129.75 322,-129.75 322,-110.5 386,-110.5 386,-129.75"/>
<text text-anchor="middle" x="354" y="-116.25" font-family="ui-monospace,monospace" font-size="10.00">Mat3.hpp</text>
</a>
</g>
</g>
<!-- Node4&#45;&gt;Node9 -->
<g id="edge8_Node000004_Node000009" class="edge">
<title>Node4&#45;&gt;Node9</title>
<g id="a_edge8_Node000004_Node000009"><a xlink:title=" ">
<path fill="none" stroke="#63b8ff" d="M239.41,-165.34C261.52,-156.81 294.92,-143.92 319.97,-134.26"/>
<polygon fill="#63b8ff" stroke="#63b8ff" points="320.99,-137.61 329.06,-130.75 318.47,-131.08 320.99,-137.61"/>
</a>
</g>
</g>
<!-- Node11 -->
<g id="Node000011" class="node">
<title>Node11</title>
<g id="a_Node000011"><a target="_parent" xlink:href="http://en.cppreference.com/w/cpp/header/memory.html" xlink:title=" ">
<polygon fill="white" stroke="#666666" points="304,-129.75 252,-129.75 252,-110.5 304,-110.5 304,-129.75"/>
<text text-anchor="middle" x="278" y="-116.25" font-family="ui-monospace,monospace" font-size="10.00">memory</text>
</a>
</g>
</g>
<!-- Node4&#45;&gt;Node11 -->
<g id="edge11_Node000004_Node000011" class="edge">
<title>Node4&#45;&gt;Node11</title>
<g id="a_edge11_Node000004_Node000011"><a xlink:title=" ">
<path fill="none" stroke="#63b8ff" d="M226.52,-165.34C235.39,-157.72 248.31,-146.62 258.99,-137.45"/>
<polygon fill="#63b8ff" stroke="#63b8ff" points="261.18,-140.18 266.49,-131.01 256.62,-134.87 261.18,-140.18"/>
</a>
</g>
</g>
<!-- Node6 -->
<g id="Node000006" class="node">
<title>Node6</title>
<g id="a_Node000006"><a xlink:href="Vec2_8hpp.html" target="_top" xlink:title="Contains jngl::Vec2 class.">
<polygon fill="white" stroke="#666666" points="363,-74.5 299,-74.5 299,-55.25 363,-55.25 363,-74.5"/>
<text text-anchor="middle" x="331" y="-61" font-family="ui-monospace,monospace" font-size="10.00">Vec2.hpp</text>
</a>
</g>
</g>
<!-- Node5&#45;&gt;Node6 -->
<g id="edge5_Node000005_Node000006" class="edge">
<title>Node5&#45;&gt;Node6</title>
<g id="a_edge5_Node000005_Node000006"><a xlink:title=" ">
<path fill="none" stroke="#63b8ff" d="M155.79,-110.09C192.18,-100.91 248.58,-86.67 287.52,-76.85"/>
<polygon fill="#63b8ff" stroke="#63b8ff" points="288.19,-80.29 297.03,-74.45 286.48,-73.5 288.19,-80.29"/>
</a>
</g>
</g>
<!-- Node7 -->
<g id="Node000007" class="node">
<title>Node7</title>
<g id="a_Node000007"><a xlink:title=" ">
<polygon fill="#e0e0e0" stroke="#999999" points="333,-19.25 209,-19.25 209,0 333,0 333,-19.25"/>
<text text-anchor="middle" x="271" y="-5.75" font-family="ui-monospace,monospace" font-size="10.00">boost/qvm_lite.hpp</text>
</a>
</g>
</g>
<!-- Node6&#45;&gt;Node7 -->
<g id="edge6_Node000006_Node000007" class="edge">
<title>Node6&#45;&gt;Node7</title>
<g id="a_edge6_Node000006_Node000007"><a xlink:title=" ">
<path fill="none" stroke="#63b8ff" d="M320.82,-54.84C312.24,-47.22 299.73,-36.12 289.4,-26.95"/>
<polygon fill="#63b8ff" stroke="#63b8ff" points="291.96,-24.55 282.16,-20.53 287.32,-29.79 291.96,-24.55"/>
</a>
</g>
</g>
<!-- Node8 -->
<g id="Node000008" class="node">
<title>Node8</title>
<g id="a_Node000008"><a target="_parent" xlink:href="http://en.cppreference.com/w/cpp/header/iosfwd.html" xlink:title=" ">
<polygon fill="white" stroke="#666666" points="403,-19.25 351,-19.25 351,0 403,0 403,-19.25"/>
<text text-anchor="middle" x="377" y="-5.75" font-family="ui-monospace,monospace" font-size="10.00">iosfwd</text>
</a>
</g>
</g>
<!-- Node6&#45;&gt;Node8 -->
<g id="edge7_Node000006_Node000008" class="edge">
<title>Node6&#45;&gt;Node8</title>
<g id="a_edge7_Node000006_Node000008"><a xlink:title=" ">
<path fill="none" stroke="#63b8ff" d="M338.6,-55.08C344.88,-47.8 354.01,-37.23 361.8,-28.23"/>
<polygon fill="#63b8ff" stroke="#63b8ff" points="364.36,-30.61 368.25,-20.75 359.06,-26.03 364.36,-30.61"/>
</a>
</g>
</g>
<!-- Node9&#45;&gt;Node7 -->
<g id="edge9_Node000009_Node000007" class="edge">
<title>Node9&#45;&gt;Node7</title>
<g id="a_edge9_Node000009_Node000007"><a xlink:title=" ">
<path fill="none" stroke="#63b8ff" d="M334.53,-110.05C320.24,-102.46 301.42,-90.31 290,-74.5 280.76,-61.71 275.97,-44.41 273.52,-31.04"/>
<polygon fill="#63b8ff" stroke="#63b8ff" points="276.98,-30.57 272.03,-21.2 270.06,-31.61 276.98,-30.57"/>
</a>
</g>
</g>
<!-- Node10 -->
<g id="Node000010" class="node">
<title>Node10</title>
<g id="a_Node000010"><a target="_parent" xlink:href="http://en.cppreference.com/w/cpp/header/initializer_list.html" xlink:title=" ">
<polygon fill="white" stroke="#666666" points="493,-74.5 381,-74.5 381,-55.25 493,-55.25 493,-74.5"/>
<text text-anchor="middle" x="437" y="-61" font-family="ui-monospace,monospace" font-size="10.00">initializer_list</text>
</a>
</g>
</g>
<!-- Node9&#45;&gt;Node10 -->
<g id="edge10_Node000009_Node000010" class="edge">
<title>Node9&#45;&gt;Node10</title>
<g id="a_edge10_Node000009_Node000010"><a xlink:title=" ">
<path fill="none" stroke="#63b8ff" d="M368.08,-110.09C380.48,-102.14 398.79,-90.39 413.43,-81"/>
<polygon fill="#63b8ff" stroke="#63b8ff" points="415.05,-84.12 421.58,-75.77 411.27,-78.22 415.05,-84.12"/>
</a>
</g>
</g>
<!-- Node12&#45;&gt;Node6 -->
<g id="edge14_Node000012_Node000006" class="edge">
<title>Node12&#45;&gt;Node6</title>
<g id="a_edge14_Node000012_Node000006"><a xlink:title=" ">
<path fill="none" stroke="#63b8ff" d="M430.45,-165.29C450.36,-153.1 479.52,-130.64 465,-110.5 459.44,-102.79 411.51,-88.07 374.54,-77.64"/>
<polygon fill="#63b8ff" stroke="#63b8ff" points="375.51,-74.28 364.94,-74.96 373.63,-81.02 375.51,-74.28"/>
</a>
</g>
</g>
<!-- Node12&#45;&gt;Node9 -->
<g id="edge13_Node000012_Node000009" class="edge">
<title>Node12&#45;&gt;Node9</title>
<g id="a_edge13_Node000012_Node000009"><a xlink:title=" ">
<path fill="none" stroke="#63b8ff" d="M403.82,-165.34C395.24,-157.72 382.73,-146.62 372.4,-137.45"/>
<polygon fill="#63b8ff" stroke="#63b8ff" points="374.96,-135.05 365.16,-131.03 370.32,-140.29 374.96,-135.05"/>
</a>
</g>
</g>
<!-- Node12&#45;&gt;Node11 -->
<g id="edge15_Node000012_Node000011" class="edge">
<title>Node12&#45;&gt;Node11</title>
<g id="a_edge15_Node000012_Node000011"><a xlink:title=" ">
<path fill="none" stroke="#63b8ff" d="M390.93,-165.34C369.24,-156.85 336.52,-144.04 311.87,-134.39"/>
<polygon fill="#63b8ff" stroke="#63b8ff" points="313.18,-131.14 302.59,-130.75 310.63,-137.66 313.18,-131.14"/>
</a>
</g>
</g>
<!-- Node13 -->
<g id="Node000013" class="node">
<title>Node13</title>
<g id="a_Node000013"><a target="_parent" xlink:href="http://en.cppreference.com/w/cpp/header/set.html" xlink:title=" ">
<polygon fill="white" stroke="#666666" points="546,-129.75 512,-129.75 512,-110.5 546,-110.5 546,-129.75"/>
<text text-anchor="middle" x="529" y="-116.25" font-family="ui-monospace,monospace" font-size="10.00">set</text>
</a>
</g>
</g>
<!-- Node12&#45;&gt;Node13 -->
<g id="edge16_Node000012_Node000013" class="edge">
<title>Node12&#45;&gt;Node13</title>
<g id="a_edge16_Node000012_Node000013"><a xlink:title=" ">
<path fill="none" stroke="#63b8ff" d="M433.51,-165.34C452.17,-156.7 480.5,-143.58 501.46,-133.88"/>
<polygon fill="#63b8ff" stroke="#63b8ff" points="502.68,-137.17 510.28,-129.79 499.74,-130.82 502.68,-137.17"/>
</a>
</g>
</g>
<!-- Node14 -->
<g id="Node000014" class="node">
<title>Node14</title>
<g id="a_Node000014"><a target="_parent" xlink:href="http://en.cppreference.com/w/cpp/header/vector.html" xlink:title=" ">
<polygon fill="white" stroke="#666666" points="456,-129.75 404,-129.75 404,-110.5 456,-110.5 456,-129.75"/>
<text text-anchor="middle" x="430" y="-116.25" font-family="ui-monospace,monospace" font-size="10.00">vector</text>
</a>
</g>
</g>
<!-- Node12&#45;&gt;Node14 -->
<g id="edge17_Node000012_Node000014" class="edge">
<title>Node12&#45;&gt;Node14</title>
<g id="a_edge17_Node000012_Node000014"><a xlink:title=" ">
<path fill="none" stroke="#63b8ff" d="M416.64,-165.58C418.64,-158.92 421.48,-149.49 424.02,-141.03"/>
<polygon fill="#63b8ff" stroke="#63b8ff" points="427.34,-142.14 426.86,-131.56 420.64,-140.13 427.34,-142.14"/>
</a>
</g>
</g>
<!-- Node15&#45;&gt;Node5 -->
<g id="edge19_Node000015_Node000005" class="edge">
<title>Node15&#45;&gt;Node5</title>
<g id="a_edge19_Node000015_Node000005"><a xlink:title=" ">
<path fill="none" stroke="#63b8ff" d="M277.77,-165.34C246.24,-156.51 198.02,-142.99 163.19,-133.23"/>
<polygon fill="#63b8ff" stroke="#63b8ff" points="164.42,-129.94 153.85,-130.61 162.53,-136.68 164.42,-129.94"/>
</a>
</g>
</g>
<!-- Node15&#45;&gt;Node9 -->
<g id="edge20_Node000015_Node000009" class="edge">
<title>Node15&#45;&gt;Node9</title>
<g id="a_edge20_Node000015_Node000009"><a xlink:title=" ">
<path fill="none" stroke="#63b8ff" d="M317.27,-165.58C323.28,-158.3 332.01,-147.73 339.46,-138.73"/>
<polygon fill="#63b8ff" stroke="#63b8ff" points="341.94,-141.21 345.61,-131.28 336.54,-136.76 341.94,-141.21"/>
</a>
</g>
</g>
<!-- Node15&#45;&gt;Node11 -->
<g id="edge21_Node000015_Node000011" class="edge">
<title>Node15&#45;&gt;Node11</title>
<g id="a_edge21_Node000015_Node000011"><a xlink:title=" ">
<path fill="none" stroke="#63b8ff" d="M304.72,-165.58C300.53,-158.61 294.52,-148.62 289.27,-139.87"/>
<polygon fill="#63b8ff" stroke="#63b8ff" points="292.33,-138.18 284.18,-131.41 286.33,-141.78 292.33,-138.18"/>
</a>
</g>
</g>
<!-- Node15&#45;&gt;Node14 -->
<g id="edge23_Node000015_Node000014" class="edge">
<title>Node15&#45;&gt;Node14</title>
<g id="a_edge23_Node000015_Node000014"><a xlink:title=" ">
<path fill="none" stroke="#63b8ff" d="M330.36,-165.34C349.23,-156.97 377.59,-144.38 399.23,-134.78"/>
<polygon fill="#63b8ff" stroke="#63b8ff" points="400.44,-138.07 408.16,-130.82 397.6,-131.67 400.44,-138.07"/>
</a>
</g>
</g>
<!-- Node16 -->
<g id="Node000016" class="node">
<title>Node16</title>
<g id="a_Node000016"><a target="_parent" xlink:href="http://en.cppreference.com/w/cpp/header/string.html" xlink:title=" ">
<polygon fill="white" stroke="#666666" points="234,-129.75 182,-129.75 182,-110.5 234,-110.5 234,-129.75"/>
<text text-anchor="middle" x="208" y="-116.25" font-family="ui-monospace,monospace" font-size="10.00">string</text>
</a>
</g>
</g>
<!-- Node15&#45;&gt;Node16 -->
<g id="edge22_Node000015_Node000016" class="edge">
<title>Node15&#45;&gt;Node16</title>
<g id="a_edge22_Node000015_Node000016"><a xlink:title=" ">
<path fill="none" stroke="#63b8ff" d="M292.7,-165.34C277.02,-157.16 253.65,-144.96 235.42,-135.44"/>
<polygon fill="#63b8ff" stroke="#63b8ff" points="237.21,-132.43 226.73,-130.9 233.97,-138.63 237.21,-132.43"/>
</a>
</g>
</g>
</g>
</svg>
