<?xml version="1.0" encoding="UTF-8" standalone="no"?>
<!DOCTYPE svg PUBLIC "-//W3C//DTD SVG 1.1//EN"
 "http://www.w3.org/Graphics/SVG/1.1/DTD/svg11.dtd">
<!-- Generated by graphviz version 9.0.0 (20230911.1827)
 -->
<!-- Title: jngl/Label.hpp Pages: 1 -->
<svg width="568pt" height="248pt"
 viewBox="0.00 0.00 567.75 248.25" xmlns="http://www.w3.org/2000/svg" xmlns:xlink="http://www.w3.org/1999/xlink">
<g id="graph0" class="graph" transform="scale(1 1) rotate(0) translate(4 244.25)">
<title>jngl/Label.hpp</title>
<!-- Node1 -->
<g id="Node000001" class="node">
<title>Node1</title>
<g id="a_Node000001"><a xlink:title="Contains jngl::Label class.">
<polygon fill="#999999" stroke="#666666" points="280,-240.25 180,-240.25 180,-221 280,-221 280,-240.25"/>
<text text-anchor="middle" x="230" y="-226.75" font-family="ui-monospace,monospace" font-size="10.00">jngl/Label.hpp</text>
</a>
</g>
</g>
<!-- Node2 -->
<g id="Node000002" class="node">
<title>Node2</title>
<g id="a_Node000002"><a xlink:href="Rgb_8hpp.html" target="_top" xlink:title="Contains jngl::Rgb class.">
<polygon fill="white" stroke="#666666" points="97,-185 39,-185 39,-165.75 97,-165.75 97,-185"/>
<text text-anchor="middle" x="68" y="-171.5" font-family="ui-monospace,monospace" font-size="10.00">Rgb.hpp</text>
</a>
</g>
</g>
<!-- Node1&#45;&gt;Node2 -->
<g id="edge1_Node000001_Node000002" class="edge">
<title>Node1&#45;&gt;Node2</title>
<g id="a_edge1_Node000001_Node000002"><a xlink:title=" ">
<path fill="none" stroke="#63b8ff" d="M202.52,-220.59C176.1,-211.91 135.94,-198.71 106.38,-188.99"/>
<polygon fill="#63b8ff" stroke="#63b8ff" points="107.65,-185.72 97.05,-185.93 105.46,-192.37 107.65,-185.72"/>
</a>
</g>
</g>
<!-- Node4 -->
<g id="Node000004" class="node">
<title>Node4</title>
<g id="a_Node000004"><a xlink:href="TextLine_8hpp.html" target="_top" xlink:title="Contains jngl::TextLine class.">
<polygon fill="white" stroke="#666666" points="412,-185 324,-185 324,-165.75 412,-165.75 412,-185"/>
<text text-anchor="middle" x="368" y="-171.5" font-family="ui-monospace,monospace" font-size="10.00">TextLine.hpp</text>
</a>
</g>
</g>
<!-- Node1&#45;&gt;Node4 -->
<g id="edge3_Node000001_Node000004" class="edge">
<title>Node1&#45;&gt;Node4</title>
<g id="a_edge3_Node000001_Node000004"><a xlink:title=" ">
<path fill="none" stroke="#63b8ff" d="M253.41,-220.59C275.52,-212.06 308.92,-199.17 333.97,-189.51"/>
<polygon fill="#63b8ff" stroke="#63b8ff" points="334.99,-192.86 343.06,-186 332.47,-186.33 334.99,-192.86"/>
</a>
</g>
</g>
<!-- Node11 -->
<g id="Node000011" class="node">
<title>Node11</title>
<g id="a_Node000011"><a xlink:href="Widget_8hpp.html" target="_top" xlink:title="Contains jngl::Container class.">
<polygon fill="white" stroke="#666666" points="224,-185 148,-185 148,-165.75 224,-165.75 224,-185"/>
<text text-anchor="middle" x="186" y="-171.5" font-family="ui-monospace,monospace" font-size="10.00">Widget.hpp</text>
</a>
</g>
</g>
<!-- Node1&#45;&gt;Node11 -->
<g id="edge11_Node000001_Node000011" class="edge">
<title>Node1&#45;&gt;Node11</title>
<g id="a_edge11_Node000001_Node000011"><a xlink:title=" ">
<path fill="none" stroke="#63b8ff" d="M222.73,-220.83C216.72,-213.55 207.99,-202.98 200.54,-193.98"/>
<polygon fill="#63b8ff" stroke="#63b8ff" points="203.46,-192.01 194.39,-186.53 198.06,-196.46 203.46,-192.01"/>
</a>
</g>
</g>
<!-- Node14 -->
<g id="Node000014" class="node">
<title>Node14</title>
<g id="a_Node000014"><a xlink:href="text_8hpp.html" target="_top" xlink:title=" ">
<polygon fill="white" stroke="#666666" points="306,-185 242,-185 242,-165.75 306,-165.75 306,-185"/>
<text text-anchor="middle" x="274" y="-171.5" font-family="ui-monospace,monospace" font-size="10.00">text.hpp</text>
</a>
</g>
</g>
<!-- Node1&#45;&gt;Node14 -->
<g id="edge17_Node000001_Node000014" class="edge">
<title>Node1&#45;&gt;Node14</title>
<g id="a_edge17_Node000001_Node000014"><a xlink:title=" ">
<path fill="none" stroke="#63b8ff" d="M237.27,-220.83C243.28,-213.55 252.01,-202.98 259.46,-193.98"/>
<polygon fill="#63b8ff" stroke="#63b8ff" points="261.94,-196.46 265.61,-186.53 256.54,-192.01 261.94,-196.46"/>
</a>
</g>
</g>
<!-- Node3 -->
<g id="Node000003" class="node">
<title>Node3</title>
<g id="a_Node000003"><a target="_parent" xlink:href="http://en.cppreference.com/w/cpp/header/cstdint.html" xlink:title=" ">
<polygon fill="white" stroke="#666666" points="58,-129.75 0,-129.75 0,-110.5 58,-110.5 58,-129.75"/>
<text text-anchor="middle" x="29" y="-116.25" font-family="ui-monospace,monospace" font-size="10.00">cstdint</text>
</a>
</g>
</g>
<!-- Node2&#45;&gt;Node3 -->
<g id="edge2_Node000002_Node000003" class="edge">
<title>Node2&#45;&gt;Node3</title>
<g id="a_edge2_Node000002_Node000003"><a xlink:title=" ">
<path fill="none" stroke="#63b8ff" d="M61.56,-165.58C56.34,-158.46 48.81,-148.18 42.31,-139.3"/>
<polygon fill="#63b8ff" stroke="#63b8ff" points="45.21,-137.33 36.47,-131.33 39.56,-141.47 45.21,-137.33"/>
</a>
</g>
</g>
<!-- Node5 -->
<g id="Node000005" class="node">
<title>Node5</title>
<g id="a_Node000005"><a xlink:href="Mat3_8hpp.html" target="_top" xlink:title="Contains jngl::Mat3 class.">
<polygon fill="white" stroke="#666666" points="300,-129.75 236,-129.75 236,-110.5 300,-110.5 300,-129.75"/>
<text text-anchor="middle" x="268" y="-116.25" font-family="ui-monospace,monospace" font-size="10.00">Mat3.hpp</text>
</a>
</g>
</g>
<!-- Node4&#45;&gt;Node5 -->
<g id="edge4_Node000004_Node000005" class="edge">
<title>Node4&#45;&gt;Node5</title>
<g id="a_edge4_Node000004_Node000005"><a xlink:title=" ">
<path fill="none" stroke="#63b8ff" d="M351.04,-165.34C335.74,-157.19 312.97,-145.07 295.14,-135.58"/>
<polygon fill="#63b8ff" stroke="#63b8ff" points="296.85,-132.52 286.38,-130.91 293.56,-138.7 296.85,-132.52"/>
</a>
</g>
</g>
<!-- Node8 -->
<g id="Node000008" class="node">
<title>Node8</title>
<g id="a_Node000008"><a xlink:href="Vec2_8hpp.html" target="_top" xlink:title="Contains jngl::Vec2 class.">
<polygon fill="white" stroke="#666666" points="512,-74.5 448,-74.5 448,-55.25 512,-55.25 512,-74.5"/>
<text text-anchor="middle" x="480" y="-61" font-family="ui-monospace,monospace" font-size="10.00">Vec2.hpp</text>
</a>
</g>
</g>
<!-- Node4&#45;&gt;Node8 -->
<g id="edge7_Node000004_Node000008" class="edge">
<title>Node4&#45;&gt;Node8</title>
<g id="a_edge7_Node000004_Node000008"><a xlink:title=" ">
<path fill="none" stroke="#63b8ff" d="M412.5,-170.03C462.07,-164.17 537.58,-151.82 555,-129.75 570.9,-109.6 542.39,-91.13 516.06,-79.28"/>
<polygon fill="#63b8ff" stroke="#63b8ff" points="517.77,-76.21 507.2,-75.52 515.04,-82.65 517.77,-76.21"/>
</a>
</g>
</g>
<!-- Node10 -->
<g id="Node000010" class="node">
<title>Node10</title>
<g id="a_Node000010"><a target="_parent" xlink:href="http://en.cppreference.com/w/cpp/header/memory.html" xlink:title=" ">
<polygon fill="white" stroke="#666666" points="370,-129.75 318,-129.75 318,-110.5 370,-110.5 370,-129.75"/>
<text text-anchor="middle" x="344" y="-116.25" font-family="ui-monospace,monospace" font-size="10.00">memory</text>
</a>
</g>
</g>
<!-- Node4&#45;&gt;Node10 -->
<g id="edge10_Node000004_Node000010" class="edge">
<title>Node4&#45;&gt;Node10</title>
<g id="a_edge10_Node000004_Node000010"><a xlink:title=" ">
<path fill="none" stroke="#63b8ff" d="M364.04,-165.58C360.96,-158.76 356.59,-149.06 352.71,-140.45"/>
<polygon fill="#63b8ff" stroke="#63b8ff" points="355.97,-139.17 348.67,-131.49 349.59,-142.04 355.97,-139.17"/>
</a>
</g>
</g>
<!-- Node6 -->
<g id="Node000006" class="node">
<title>Node6</title>
<g id="a_Node000006"><a xlink:title=" ">
<polygon fill="#e0e0e0" stroke="#999999" points="383,-19.25 259,-19.25 259,0 383,0 383,-19.25"/>
<text text-anchor="middle" x="321" y="-5.75" font-family="ui-monospace,monospace" font-size="10.00">boost/qvm_lite.hpp</text>
</a>
</g>
</g>
<!-- Node5&#45;&gt;Node6 -->
<g id="edge5_Node000005_Node000006" class="edge">
<title>Node5&#45;&gt;Node6</title>
<g id="a_edge5_Node000005_Node000006"><a xlink:title=" ">
<path fill="none" stroke="#63b8ff" d="M269.62,-110.06C272.13,-97.32 277.67,-73.61 287,-55.25 291.89,-45.62 298.93,-35.96 305.33,-28.1"/>
<polygon fill="#63b8ff" stroke="#63b8ff" points="307.83,-30.56 311.66,-20.68 302.5,-26.02 307.83,-30.56"/>
</a>
</g>
</g>
<!-- Node7 -->
<g id="Node000007" class="node">
<title>Node7</title>
<g id="a_Node000007"><a target="_parent" xlink:href="http://en.cppreference.com/w/cpp/header/initializer_list.html" xlink:title=" ">
<polygon fill="white" stroke="#666666" points="408,-74.5 296,-74.5 296,-55.25 408,-55.25 408,-74.5"/>
<text text-anchor="middle" x="352" y="-61" font-family="ui-monospace,monospace" font-size="10.00">initializer_list</text>
</a>
</g>
</g>
<!-- Node5&#45;&gt;Node7 -->
<g id="edge6_Node000005_Node000007" class="edge">
<title>Node5&#45;&gt;Node7</title>
<g id="a_edge6_Node000005_Node000007"><a xlink:title=" ">
<path fill="none" stroke="#63b8ff" d="M282.25,-110.09C294.8,-102.14 313.33,-90.39 328.14,-81"/>
<polygon fill="#63b8ff" stroke="#63b8ff" points="329.83,-84.07 336.4,-75.76 326.08,-78.16 329.83,-84.07"/>
</a>
</g>
</g>
<!-- Node8&#45;&gt;Node6 -->
<g id="edge8_Node000008_Node000006" class="edge">
<title>Node8&#45;&gt;Node6</title>
<g id="a_edge8_Node000008_Node000006"><a xlink:title=" ">
<path fill="none" stroke="#63b8ff" d="M453.03,-54.84C427.1,-46.16 387.69,-32.96 358.67,-23.24"/>
<polygon fill="#63b8ff" stroke="#63b8ff" points="360.13,-20.04 349.54,-20.18 357.91,-26.68 360.13,-20.04"/>
</a>
</g>
</g>
<!-- Node9 -->
<g id="Node000009" class="node">
<title>Node9</title>
<g id="a_Node000009"><a target="_parent" xlink:href="http://en.cppreference.com/w/cpp/header/iosfwd.html" xlink:title=" ">
<polygon fill="white" stroke="#666666" points="506,-19.25 454,-19.25 454,0 506,0 506,-19.25"/>
<text text-anchor="middle" x="480" y="-5.75" font-family="ui-monospace,monospace" font-size="10.00">iosfwd</text>
</a>
</g>
</g>
<!-- Node8&#45;&gt;Node9 -->
<g id="edge9_Node000008_Node000009" class="edge">
<title>Node8&#45;&gt;Node9</title>
<g id="a_edge9_Node000008_Node000009"><a xlink:title=" ">
<path fill="none" stroke="#63b8ff" d="M480,-55.08C480,-48.57 480,-39.42 480,-31.12"/>
<polygon fill="#63b8ff" stroke="#63b8ff" points="483.5,-31.12 480,-21.12 476.5,-31.12 483.5,-31.12"/>
</a>
</g>
</g>
<!-- Node11&#45;&gt;Node5 -->
<g id="edge12_Node000011_Node000005" class="edge">
<title>Node11&#45;&gt;Node5</title>
<g id="a_edge12_Node000011_Node000005"><a xlink:title=" ">
<path fill="none" stroke="#63b8ff" d="M199.91,-165.34C212.16,-157.39 230.25,-145.64 244.71,-136.25"/>
<polygon fill="#63b8ff" stroke="#63b8ff" points="246.27,-139.41 252.75,-131.03 242.46,-133.54 246.27,-139.41"/>
</a>
</g>
</g>
<!-- Node11&#45;&gt;Node8 -->
<g id="edge13_Node000011_Node000008" class="edge">
<title>Node11&#45;&gt;Node8</title>
<g id="a_edge13_Node000011_Node000008"><a xlink:title=" ">
<path fill="none" stroke="#63b8ff" d="M176.48,-165.64C163.24,-152.45 142.44,-127.21 157,-110.5 157.29,-110.17 348.23,-83.95 436.36,-71.86"/>
<polygon fill="#63b8ff" stroke="#63b8ff" points="436.65,-75.35 446.09,-70.52 435.7,-68.42 436.65,-75.35"/>
</a>
</g>
</g>
<!-- Node11&#45;&gt;Node10 -->
<g id="edge14_Node000011_Node000010" class="edge">
<title>Node11&#45;&gt;Node10</title>
<g id="a_edge14_Node000011_Node000010"><a xlink:title=" ">
<path fill="none" stroke="#63b8ff" d="M212.8,-165.34C238.61,-156.64 277.86,-143.42 306.71,-133.69"/>
<polygon fill="#63b8ff" stroke="#63b8ff" points="307.8,-137.02 316.16,-130.51 305.56,-130.39 307.8,-137.02"/>
</a>
</g>
</g>
<!-- Node12 -->
<g id="Node000012" class="node">
<title>Node12</title>
<g id="a_Node000012"><a target="_parent" xlink:href="http://en.cppreference.com/w/cpp/header/set.html" xlink:title=" ">
<polygon fill="white" stroke="#666666" points="110,-129.75 76,-129.75 76,-110.5 110,-110.5 110,-129.75"/>
<text text-anchor="middle" x="93" y="-116.25" font-family="ui-monospace,monospace" font-size="10.00">set</text>
</a>
</g>
</g>
<!-- Node11&#45;&gt;Node12 -->
<g id="edge15_Node000011_Node000012" class="edge">
<title>Node11&#45;&gt;Node12</title>
<g id="a_edge15_Node000011_Node000012"><a xlink:title=" ">
<path fill="none" stroke="#63b8ff" d="M170.22,-165.34C156.06,-157.23 135.02,-145.18 118.47,-135.71"/>
<polygon fill="#63b8ff" stroke="#63b8ff" points="120.58,-132.89 110.17,-130.95 117.11,-138.96 120.58,-132.89"/>
</a>
</g>
</g>
<!-- Node13 -->
<g id="Node000013" class="node">
<title>Node13</title>
<g id="a_Node000013"><a target="_parent" xlink:href="http://en.cppreference.com/w/cpp/header/vector.html" xlink:title=" ">
<polygon fill="white" stroke="#666666" points="218,-129.75 166,-129.75 166,-110.5 218,-110.5 218,-129.75"/>
<text text-anchor="middle" x="192" y="-116.25" font-family="ui-monospace,monospace" font-size="10.00">vector</text>
</a>
</g>
</g>
<!-- Node11&#45;&gt;Node13 -->
<g id="edge16_Node000011_Node000013" class="edge">
<title>Node11&#45;&gt;Node13</title>
<g id="a_edge16_Node000011_Node000013"><a xlink:title=" ">
<path fill="none" stroke="#63b8ff" d="M186.99,-165.58C187.73,-158.99 188.78,-149.71 189.72,-141.32"/>
<polygon fill="#63b8ff" stroke="#63b8ff" points="193.18,-141.94 190.82,-131.61 186.22,-141.16 193.18,-141.94"/>
</a>
</g>
</g>
<!-- Node14&#45;&gt;Node5 -->
<g id="edge20_Node000014_Node000005" class="edge">
<title>Node14&#45;&gt;Node5</title>
<g id="a_edge20_Node000014_Node000005"><a xlink:title=" ">
<path fill="none" stroke="#63b8ff" d="M273.01,-165.58C272.27,-158.99 271.22,-149.71 270.28,-141.32"/>
<polygon fill="#63b8ff" stroke="#63b8ff" points="273.78,-141.16 269.18,-131.61 266.82,-141.94 273.78,-141.16"/>
</a>
</g>
</g>
<!-- Node14&#45;&gt;Node10 -->
<g id="edge21_Node000014_Node000010" class="edge">
<title>Node14&#45;&gt;Node10</title>
<g id="a_edge21_Node000014_Node000010"><a xlink:title=" ">
<path fill="none" stroke="#63b8ff" d="M285.87,-165.34C296.09,-157.57 311.07,-146.17 323.26,-136.9"/>
<polygon fill="#63b8ff" stroke="#63b8ff" points="325.26,-139.78 331.1,-130.94 321.02,-134.21 325.26,-139.78"/>
</a>
</g>
</g>
<!-- Node14&#45;&gt;Node13 -->
<g id="edge23_Node000014_Node000013" class="edge">
<title>Node14&#45;&gt;Node13</title>
<g id="a_edge23_Node000014_Node000013"><a xlink:title=" ">
<path fill="none" stroke="#63b8ff" d="M260.09,-165.34C247.84,-157.39 229.75,-145.64 215.29,-136.25"/>
<polygon fill="#63b8ff" stroke="#63b8ff" points="217.54,-133.54 207.25,-131.03 213.73,-139.41 217.54,-133.54"/>
</a>
</g>
</g>
<!-- Node15 -->
<g id="Node000015" class="node">
<title>Node15</title>
<g id="a_Node000015"><a xlink:href="Drawable_8hpp.html" target="_top" xlink:title="Contains jngl::Drawable class.">
<polygon fill="white" stroke="#666666" points="546,-129.75 458,-129.75 458,-110.5 546,-110.5 546,-129.75"/>
<text text-anchor="middle" x="502" y="-116.25" font-family="ui-monospace,monospace" font-size="10.00">Drawable.hpp</text>
</a>
</g>
</g>
<!-- Node14&#45;&gt;Node15 -->
<g id="edge18_Node000014_Node000015" class="edge">
<title>Node14&#45;&gt;Node15</title>
<g id="a_edge18_Node000014_Node000015"><a xlink:title=" ">
<path fill="none" stroke="#63b8ff" d="M306.18,-166.86C344.12,-158 407.62,-143.17 451.99,-132.8"/>
<polygon fill="#63b8ff" stroke="#63b8ff" points="452.7,-136.23 461.64,-130.55 451.11,-129.42 452.7,-136.23"/>
</a>
</g>
</g>
<!-- Node16 -->
<g id="Node000016" class="node">
<title>Node16</title>
<g id="a_Node000016"><a target="_parent" xlink:href="http://en.cppreference.com/w/cpp/header/string.html" xlink:title=" ">
<polygon fill="white" stroke="#666666" points="440,-129.75 388,-129.75 388,-110.5 440,-110.5 440,-129.75"/>
<text text-anchor="middle" x="414" y="-116.25" font-family="ui-monospace,monospace" font-size="10.00">string</text>
</a>
</g>
</g>
<!-- Node14&#45;&gt;Node16 -->
<g id="edge22_Node000014_Node000016" class="edge">
<title>Node14&#45;&gt;Node16</title>
<g id="a_edge22_Node000014_Node000016"><a xlink:title=" ">
<path fill="none" stroke="#63b8ff" d="M297.75,-165.34C320.17,-156.81 354.06,-143.92 379.47,-134.26"/>
<polygon fill="#63b8ff" stroke="#63b8ff" points="380.62,-137.57 388.72,-130.74 378.13,-131.02 380.62,-137.57"/>
</a>
</g>
</g>
<!-- Node15&#45;&gt;Node8 -->
<g id="edge19_Node000015_Node000008" class="edge">
<title>Node15&#45;&gt;Node8</title>
<g id="a_edge19_Node000015_Node000008"><a xlink:title=" ">
<path fill="none" stroke="#63b8ff" d="M498.37,-110.33C495.58,-103.59 491.63,-94.02 488.1,-85.49"/>
<polygon fill="#63b8ff" stroke="#63b8ff" points="491.34,-84.16 484.29,-76.26 484.87,-86.84 491.34,-84.16"/>
</a>
</g>
</g>
</g>
</svg>
