<?xml version="1.0" encoding="UTF-8" standalone="no"?>
<!DOCTYPE svg PUBLIC "-//W3C//DTD SVG 1.1//EN"
 "http://www.w3.org/Graphics/SVG/1.1/DTD/svg11.dtd">
<!-- Generated by graphviz version 2.44.0 (0)
 -->
<!-- Title: jngl/Label.hpp Pages: 1 -->
<svg width="435pt" height="252pt"
 viewBox="0.00 0.00 435.00 252.00" xmlns="http://www.w3.org/2000/svg" xmlns:xlink="http://www.w3.org/1999/xlink">
<g id="graph0" class="graph" transform="scale(1 1) rotate(0) translate(4 248)">
<title>jngl/Label.hpp</title>
<polygon fill="white" stroke="transparent" points="-4,4 -4,-248 431,-248 431,4 -4,4"/>
<!-- Node1 -->
<g id="node1" class="node">
<title>Node1</title>
<g id="a_node1"><a xlink:title="Contains jngl::Label class.">
<polygon fill="#bfbfbf" stroke="black" points="130,-224.5 130,-243.5 231,-243.5 231,-224.5 130,-224.5"/>
<text text-anchor="middle" x="180.5" y="-231.5" font-family="'Consolas',monospace" font-size="10.00">jngl/Label.hpp</text>
</a>
</g>
</g>
<!-- Node2 -->
<g id="node2" class="node">
<title>Node2</title>
<g id="a_node2"><a xlink:href="Color_8hpp.html" target="_top" xlink:title="Contains jngl::Color class.">
<polygon fill="white" stroke="black" points="0,-168.5 0,-187.5 71,-187.5 71,-168.5 0,-168.5"/>
<text text-anchor="middle" x="35.5" y="-175.5" font-family="'Consolas',monospace" font-size="10.00">Color.hpp</text>
</a>
</g>
</g>
<!-- Node1&#45;&gt;Node2 -->
<g id="edge1" class="edge">
<title>Node1&#45;&gt;Node2</title>
<path fill="none" stroke="midnightblue" d="M157.52,-224.44C133.34,-215.44 95.08,-201.19 67.85,-191.05"/>
<polygon fill="midnightblue" stroke="midnightblue" points="68.96,-187.73 58.37,-187.52 66.52,-194.29 68.96,-187.73"/>
</g>
<!-- Node3 -->
<g id="node3" class="node">
<title>Node3</title>
<g id="a_node3"><a xlink:href="TextLine_8hpp.html" target="_top" xlink:title="Contains jngl::TextLine class.">
<polygon fill="white" stroke="black" points="89,-168.5 89,-187.5 178,-187.5 178,-168.5 89,-168.5"/>
<text text-anchor="middle" x="133.5" y="-175.5" font-family="'Consolas',monospace" font-size="10.00">TextLine.hpp</text>
</a>
</g>
</g>
<!-- Node1&#45;&gt;Node3 -->
<g id="edge2" class="edge">
<title>Node1&#45;&gt;Node3</title>
<path fill="none" stroke="midnightblue" d="M172.74,-224.08C165.96,-216.3 155.96,-204.8 147.74,-195.37"/>
<polygon fill="midnightblue" stroke="midnightblue" points="150.32,-193 141.12,-187.75 145.04,-197.59 150.32,-193"/>
</g>
<!-- Node9 -->
<g id="node9" class="node">
<title>Node9</title>
<g id="a_node9"><a xlink:href="Widget_8hpp.html" target="_top" xlink:title="Contains jngl::Container class.">
<polygon fill="white" stroke="black" points="279,-168.5 279,-187.5 356,-187.5 356,-168.5 279,-168.5"/>
<text text-anchor="middle" x="317.5" y="-175.5" font-family="'Consolas',monospace" font-size="10.00">Widget.hpp</text>
</a>
</g>
</g>
<!-- Node1&#45;&gt;Node9 -->
<g id="edge8" class="edge">
<title>Node1&#45;&gt;Node9</title>
<path fill="none" stroke="midnightblue" d="M202.21,-224.44C224.85,-215.52 260.57,-201.44 286.25,-191.32"/>
<polygon fill="midnightblue" stroke="midnightblue" points="287.87,-194.44 295.89,-187.52 285.31,-187.93 287.87,-194.44"/>
</g>
<!-- Node12 -->
<g id="node12" class="node">
<title>Node12</title>
<g id="a_node12"><a xlink:href="text_8hpp.html" target="_top" xlink:title=" ">
<polygon fill="white" stroke="black" points="196,-168.5 196,-187.5 261,-187.5 261,-168.5 196,-168.5"/>
<text text-anchor="middle" x="228.5" y="-175.5" font-family="'Consolas',monospace" font-size="10.00">text.hpp</text>
</a>
</g>
</g>
<!-- Node1&#45;&gt;Node12 -->
<g id="edge13" class="edge">
<title>Node1&#45;&gt;Node12</title>
<path fill="none" stroke="midnightblue" d="M188.43,-224.08C195.35,-216.3 205.57,-204.8 213.95,-195.37"/>
<polygon fill="midnightblue" stroke="midnightblue" points="216.69,-197.55 220.72,-187.75 211.46,-192.9 216.69,-197.55"/>
</g>
<!-- Node4 -->
<g id="node4" class="node">
<title>Node4</title>
<g id="a_node4"><a xlink:href="Drawable_8hpp.html" target="_top" xlink:title="Contains jngl::Drawable class.">
<polygon fill="white" stroke="black" points="33,-112.5 33,-131.5 122,-131.5 122,-112.5 33,-112.5"/>
<text text-anchor="middle" x="77.5" y="-119.5" font-family="'Consolas',monospace" font-size="10.00">Drawable.hpp</text>
</a>
</g>
</g>
<!-- Node3&#45;&gt;Node4 -->
<g id="edge3" class="edge">
<title>Node3&#45;&gt;Node4</title>
<path fill="none" stroke="midnightblue" d="M124.5,-168.32C116.31,-160.42 103.99,-148.55 94.03,-138.94"/>
<polygon fill="midnightblue" stroke="midnightblue" points="96.29,-136.26 86.66,-131.83 91.43,-141.29 96.29,-136.26"/>
</g>
<!-- Node8 -->
<g id="node8" class="node">
<title>Node8</title>
<g id="a_node8"><a target="_parent" xlink:href="http://en.cppreference.com/w/cpp/header/memory.html" xlink:title=" ">
<polygon fill="white" stroke="black" points="140,-112.5 140,-131.5 193,-131.5 193,-112.5 140,-112.5"/>
<text text-anchor="middle" x="166.5" y="-119.5" font-family="'Consolas',monospace" font-size="10.00">memory</text>
</a>
</g>
</g>
<!-- Node3&#45;&gt;Node8 -->
<g id="edge7" class="edge">
<title>Node3&#45;&gt;Node8</title>
<path fill="none" stroke="midnightblue" d="M138.95,-168.08C143.51,-160.61 150.17,-149.72 155.79,-140.52"/>
<polygon fill="midnightblue" stroke="midnightblue" points="158.92,-142.11 161.15,-131.75 152.95,-138.46 158.92,-142.11"/>
</g>
<!-- Node5 -->
<g id="node5" class="node">
<title>Node5</title>
<g id="a_node5"><a xlink:href="Vec2_8hpp.html" target="_top" xlink:title="Contains jngl::Vec2 class.">
<polygon fill="white" stroke="black" points="188,-56.5 188,-75.5 253,-75.5 253,-56.5 188,-56.5"/>
<text text-anchor="middle" x="220.5" y="-63.5" font-family="'Consolas',monospace" font-size="10.00">Vec2.hpp</text>
</a>
</g>
</g>
<!-- Node4&#45;&gt;Node5 -->
<g id="edge4" class="edge">
<title>Node4&#45;&gt;Node5</title>
<path fill="none" stroke="midnightblue" d="M100.16,-112.44C123.9,-103.48 161.41,-89.31 188.24,-79.18"/>
<polygon fill="midnightblue" stroke="midnightblue" points="189.83,-82.32 197.95,-75.52 187.36,-75.77 189.83,-82.32"/>
</g>
<!-- Node6 -->
<g id="node6" class="node">
<title>Node6</title>
<g id="a_node6"><a xlink:title=" ">
<polygon fill="white" stroke="#bfbfbf" points="109,-0.5 109,-19.5 228,-19.5 228,-0.5 109,-0.5"/>
<text text-anchor="middle" x="168.5" y="-7.5" font-family="'Consolas',monospace" font-size="10.00">boost/version.hpp</text>
</a>
</g>
</g>
<!-- Node5&#45;&gt;Node6 -->
<g id="edge5" class="edge">
<title>Node5&#45;&gt;Node6</title>
<path fill="none" stroke="midnightblue" d="M211.91,-56.08C204.34,-48.22 193.12,-36.57 183.99,-27.08"/>
<polygon fill="midnightblue" stroke="midnightblue" points="186.38,-24.53 176.93,-19.75 181.34,-29.38 186.38,-24.53"/>
</g>
<!-- Node7 -->
<g id="node7" class="node">
<title>Node7</title>
<g id="a_node7"><a target="_parent" xlink:href="http://en.cppreference.com/w/cpp/header/iosfwd.html" xlink:title=" ">
<polygon fill="white" stroke="black" points="246,-0.5 246,-19.5 299,-19.5 299,-0.5 246,-0.5"/>
<text text-anchor="middle" x="272.5" y="-7.5" font-family="'Consolas',monospace" font-size="10.00">iosfwd</text>
</a>
</g>
</g>
<!-- Node5&#45;&gt;Node7 -->
<g id="edge6" class="edge">
<title>Node5&#45;&gt;Node7</title>
<path fill="none" stroke="midnightblue" d="M229.09,-56.08C236.66,-48.22 247.88,-36.57 257.01,-27.08"/>
<polygon fill="midnightblue" stroke="midnightblue" points="259.66,-29.38 264.07,-19.75 254.62,-24.53 259.66,-29.38"/>
</g>
<!-- Node9&#45;&gt;Node5 -->
<g id="edge9" class="edge">
<title>Node9&#45;&gt;Node5</title>
<path fill="none" stroke="midnightblue" d="M326.16,-168.41C338.23,-155.38 357.26,-130.21 344.5,-112 326.24,-85.94 291.27,-74.92 263.12,-70.28"/>
<polygon fill="midnightblue" stroke="midnightblue" points="263.49,-66.8 253.09,-68.84 262.5,-73.73 263.49,-66.8"/>
</g>
<!-- Node9&#45;&gt;Node8 -->
<g id="edge10" class="edge">
<title>Node9&#45;&gt;Node8</title>
<path fill="none" stroke="midnightblue" d="M293.57,-168.44C268.28,-159.4 228.2,-145.06 199.82,-134.92"/>
<polygon fill="midnightblue" stroke="midnightblue" points="200.91,-131.59 190.31,-131.52 198.55,-138.18 200.91,-131.59"/>
</g>
<!-- Node10 -->
<g id="node10" class="node">
<title>Node10</title>
<g id="a_node10"><a target="_parent" xlink:href="http://en.cppreference.com/w/cpp/header/set.html" xlink:title=" ">
<polygon fill="white" stroke="black" points="392,-112.5 392,-131.5 427,-131.5 427,-112.5 392,-112.5"/>
<text text-anchor="middle" x="409.5" y="-119.5" font-family="'Consolas',monospace" font-size="10.00">set</text>
</a>
</g>
</g>
<!-- Node9&#45;&gt;Node10 -->
<g id="edge11" class="edge">
<title>Node9&#45;&gt;Node10</title>
<path fill="none" stroke="midnightblue" d="M332.28,-168.32C346.77,-159.82 369.07,-146.73 385.99,-136.8"/>
<polygon fill="midnightblue" stroke="midnightblue" points="387.9,-139.74 394.76,-131.65 384.36,-133.7 387.9,-139.74"/>
</g>
<!-- Node11 -->
<g id="node11" class="node">
<title>Node11</title>
<g id="a_node11"><a target="_parent" xlink:href="http://en.cppreference.com/w/cpp/header/vector.html" xlink:title=" ">
<polygon fill="white" stroke="black" points="282,-112.5 282,-131.5 335,-131.5 335,-112.5 282,-112.5"/>
<text text-anchor="middle" x="308.5" y="-119.5" font-family="'Consolas',monospace" font-size="10.00">vector</text>
</a>
</g>
</g>
<!-- Node9&#45;&gt;Node11 -->
<g id="edge12" class="edge">
<title>Node9&#45;&gt;Node11</title>
<path fill="none" stroke="midnightblue" d="M316.01,-168.08C314.82,-160.93 313.11,-150.64 311.62,-141.69"/>
<polygon fill="midnightblue" stroke="midnightblue" points="315.05,-141.04 309.96,-131.75 308.15,-142.19 315.05,-141.04"/>
</g>
<!-- Node12&#45;&gt;Node4 -->
<g id="edge14" class="edge">
<title>Node12&#45;&gt;Node4</title>
<path fill="none" stroke="midnightblue" d="M204.57,-168.44C179.28,-159.4 139.2,-145.06 110.82,-134.92"/>
<polygon fill="midnightblue" stroke="midnightblue" points="111.91,-131.59 101.31,-131.52 109.55,-138.18 111.91,-131.59"/>
</g>
<!-- Node12&#45;&gt;Node8 -->
<g id="edge15" class="edge">
<title>Node12&#45;&gt;Node8</title>
<path fill="none" stroke="midnightblue" d="M218.54,-168.32C209.37,-160.34 195.56,-148.31 184.47,-138.65"/>
<polygon fill="midnightblue" stroke="midnightblue" points="186.48,-135.76 176.64,-131.83 181.88,-141.04 186.48,-135.76"/>
</g>
<!-- Node12&#45;&gt;Node11 -->
<g id="edge17" class="edge">
<title>Node12&#45;&gt;Node11</title>
<path fill="none" stroke="midnightblue" d="M241.35,-168.32C253.72,-159.98 272.63,-147.21 287.24,-137.35"/>
<polygon fill="midnightblue" stroke="midnightblue" points="289.35,-140.15 295.68,-131.65 285.43,-134.35 289.35,-140.15"/>
</g>
<!-- Node13 -->
<g id="node13" class="node">
<title>Node13</title>
<g id="a_node13"><a target="_parent" xlink:href="http://en.cppreference.com/w/cpp/header/string.html" xlink:title=" ">
<polygon fill="white" stroke="black" points="211,-112.5 211,-131.5 264,-131.5 264,-112.5 211,-112.5"/>
<text text-anchor="middle" x="237.5" y="-119.5" font-family="'Consolas',monospace" font-size="10.00">string</text>
</a>
</g>
</g>
<!-- Node12&#45;&gt;Node13 -->
<g id="edge16" class="edge">
<title>Node12&#45;&gt;Node13</title>
<path fill="none" stroke="midnightblue" d="M229.99,-168.08C231.18,-160.93 232.89,-150.64 234.38,-141.69"/>
<polygon fill="midnightblue" stroke="midnightblue" points="237.85,-142.19 236.04,-131.75 230.95,-141.04 237.85,-142.19"/>
</g>
</g>
</svg>
