<?xml version="1.0" encoding="UTF-8" standalone="no"?>
<!DOCTYPE svg PUBLIC "-//W3C//DTD SVG 1.1//EN"
 "http://www.w3.org/Graphics/SVG/1.1/DTD/svg11.dtd">
<!-- Generated by graphviz version 9.0.0 (20230911.1827)
 -->
<!-- Title: jngl/Label.hpp Pages: 1 -->
<svg width="554pt" height="248pt"
 viewBox="0.00 0.00 554.00 248.25" xmlns="http://www.w3.org/2000/svg" xmlns:xlink="http://www.w3.org/1999/xlink">
<g id="graph0" class="graph" transform="scale(1 1) rotate(0) translate(4 244.25)">
<title>jngl/Label.hpp</title>
<!-- Node1 -->
<g id="Node000001" class="node">
<title>Node1</title>
<g id="a_Node000001"><a xlink:title="Contains jngl::Label class.">
<polygon fill="#999999" stroke="#666666" points="316,-240.25 216,-240.25 216,-221 316,-221 316,-240.25"/>
<text text-anchor="middle" x="266" y="-226.75" font-family="ui-monospace,monospace" font-size="10.00">jngl/Label.hpp</text>
</a>
</g>
</g>
<!-- Node2 -->
<g id="Node000002" class="node">
<title>Node2</title>
<g id="a_Node000002"><a xlink:href="Color_8hpp.html" target="_top" xlink:title="Contains jngl::Color class.">
<polygon fill="white" stroke="#666666" points="125,-185 55,-185 55,-165.75 125,-165.75 125,-185"/>
<text text-anchor="middle" x="90" y="-171.5" font-family="ui-monospace,monospace" font-size="10.00">Color.hpp</text>
</a>
</g>
</g>
<!-- Node1&#45;&gt;Node2 -->
<g id="edge1_Node000001_Node000002" class="edge">
<title>Node1&#45;&gt;Node2</title>
<g id="a_edge1_Node000001_Node000002"><a xlink:title=" ">
<path fill="none" stroke="#63b8ff" d="M236.14,-220.59C207.19,-211.83 163.05,-198.48 130.85,-188.73"/>
<polygon fill="#63b8ff" stroke="#63b8ff" points="132.04,-185.44 121.45,-185.89 130.01,-192.14 132.04,-185.44"/>
</a>
</g>
</g>
<!-- Node5 -->
<g id="Node000005" class="node">
<title>Node5</title>
<g id="a_Node000005"><a xlink:href="TextLine_8hpp.html" target="_top" xlink:title="Contains jngl::TextLine class.">
<polygon fill="white" stroke="#666666" points="263,-185 175,-185 175,-165.75 263,-165.75 263,-185"/>
<text text-anchor="middle" x="219" y="-171.5" font-family="ui-monospace,monospace" font-size="10.00">TextLine.hpp</text>
</a>
</g>
</g>
<!-- Node1&#45;&gt;Node5 -->
<g id="edge4_Node000001_Node000005" class="edge">
<title>Node1&#45;&gt;Node5</title>
<g id="a_edge4_Node000001_Node000005"><a xlink:title=" ">
<path fill="none" stroke="#63b8ff" d="M258.24,-220.83C251.81,-213.55 242.49,-202.98 234.54,-193.98"/>
<polygon fill="#63b8ff" stroke="#63b8ff" points="237.17,-191.68 227.93,-186.49 231.92,-196.31 237.17,-191.68"/>
</a>
</g>
</g>
<!-- Node13 -->
<g id="Node000013" class="node">
<title>Node13</title>
<g id="a_Node000013"><a xlink:href="Widget_8hpp.html" target="_top" xlink:title="Contains jngl::Container class.">
<polygon fill="white" stroke="#666666" points="453,-185 377,-185 377,-165.75 453,-165.75 453,-185"/>
<text text-anchor="middle" x="415" y="-171.5" font-family="ui-monospace,monospace" font-size="10.00">Widget.hpp</text>
</a>
</g>
</g>
<!-- Node1&#45;&gt;Node13 -->
<g id="edge13_Node000001_Node000013" class="edge">
<title>Node1&#45;&gt;Node13</title>
<g id="a_edge13_Node000001_Node000013"><a xlink:title=" ">
<path fill="none" stroke="#63b8ff" d="M291.28,-220.59C315.36,-211.99 351.86,-198.94 378.98,-189.25"/>
<polygon fill="#63b8ff" stroke="#63b8ff" points="379.94,-192.62 388.17,-185.96 377.58,-186.03 379.94,-192.62"/>
</a>
</g>
</g>
<!-- Node16 -->
<g id="Node000016" class="node">
<title>Node16</title>
<g id="a_Node000016"><a xlink:href="text_8hpp.html" target="_top" xlink:title=" ">
<polygon fill="white" stroke="#666666" points="345,-185 281,-185 281,-165.75 345,-165.75 345,-185"/>
<text text-anchor="middle" x="313" y="-171.5" font-family="ui-monospace,monospace" font-size="10.00">text.hpp</text>
</a>
</g>
</g>
<!-- Node1&#45;&gt;Node16 -->
<g id="edge19_Node000001_Node000016" class="edge">
<title>Node1&#45;&gt;Node16</title>
<g id="a_edge19_Node000001_Node000016"><a xlink:title=" ">
<path fill="none" stroke="#63b8ff" d="M273.76,-220.83C280.19,-213.55 289.51,-202.98 297.46,-193.98"/>
<polygon fill="#63b8ff" stroke="#63b8ff" points="300.08,-196.31 304.07,-186.49 294.83,-191.68 300.08,-196.31"/>
</a>
</g>
</g>
<!-- Node3 -->
<g id="Node000003" class="node">
<title>Node3</title>
<g id="a_Node000003"><a xlink:href="Rgb_8hpp.html" target="_top" xlink:title="Contains jngl::Rgb class.">
<polygon fill="white" stroke="#666666" points="58,-129.75 0,-129.75 0,-110.5 58,-110.5 58,-129.75"/>
<text text-anchor="middle" x="29" y="-116.25" font-family="ui-monospace,monospace" font-size="10.00">Rgb.hpp</text>
</a>
</g>
</g>
<!-- Node2&#45;&gt;Node3 -->
<g id="edge2_Node000002_Node000003" class="edge">
<title>Node2&#45;&gt;Node3</title>
<g id="a_edge2_Node000002_Node000003"><a xlink:title=" ">
<path fill="none" stroke="#63b8ff" d="M79.65,-165.34C70.92,-157.72 58.21,-146.62 47.7,-137.45"/>
<polygon fill="#63b8ff" stroke="#63b8ff" points="50.17,-134.96 40.34,-131.02 45.57,-140.23 50.17,-134.96"/>
</a>
</g>
</g>
<!-- Node4 -->
<g id="Node000004" class="node">
<title>Node4</title>
<g id="a_Node000004"><a target="_parent" xlink:href="http://en.cppreference.com/w/cpp/header/cstdint.html" xlink:title=" ">
<polygon fill="white" stroke="#666666" points="58,-74.5 0,-74.5 0,-55.25 58,-55.25 58,-74.5"/>
<text text-anchor="middle" x="29" y="-61" font-family="ui-monospace,monospace" font-size="10.00">cstdint</text>
</a>
</g>
</g>
<!-- Node3&#45;&gt;Node4 -->
<g id="edge3_Node000003_Node000004" class="edge">
<title>Node3&#45;&gt;Node4</title>
<g id="a_edge3_Node000003_Node000004"><a xlink:title=" ">
<path fill="none" stroke="#63b8ff" d="M29,-110.33C29,-103.82 29,-94.67 29,-86.37"/>
<polygon fill="#63b8ff" stroke="#63b8ff" points="32.5,-86.37 29,-76.37 25.5,-86.37 32.5,-86.37"/>
</a>
</g>
</g>
<!-- Node6 -->
<g id="Node000006" class="node">
<title>Node6</title>
<g id="a_Node000006"><a xlink:href="Drawable_8hpp.html" target="_top" xlink:title="Contains jngl::Drawable class.">
<polygon fill="white" stroke="#666666" points="164,-129.75 76,-129.75 76,-110.5 164,-110.5 164,-129.75"/>
<text text-anchor="middle" x="120" y="-116.25" font-family="ui-monospace,monospace" font-size="10.00">Drawable.hpp</text>
</a>
</g>
</g>
<!-- Node5&#45;&gt;Node6 -->
<g id="edge5_Node000005_Node000006" class="edge">
<title>Node5&#45;&gt;Node6</title>
<g id="a_edge5_Node000005_Node000006"><a xlink:title=" ">
<path fill="none" stroke="#63b8ff" d="M202.21,-165.34C186.99,-157.16 164.3,-144.96 146.62,-135.44"/>
<polygon fill="#63b8ff" stroke="#63b8ff" points="148.67,-132.57 138.21,-130.92 145.36,-138.74 148.67,-132.57"/>
</a>
</g>
</g>
<!-- Node10 -->
<g id="Node000010" class="node">
<title>Node10</title>
<g id="a_Node000010"><a xlink:href="Mat3_8hpp.html" target="_top" xlink:title="Contains jngl::Mat3 class.">
<polygon fill="white" stroke="#666666" points="316,-129.75 252,-129.75 252,-110.5 316,-110.5 316,-129.75"/>
<text text-anchor="middle" x="284" y="-116.25" font-family="ui-monospace,monospace" font-size="10.00">Mat3.hpp</text>
</a>
</g>
</g>
<!-- Node5&#45;&gt;Node10 -->
<g id="edge9_Node000005_Node000010" class="edge">
<title>Node5&#45;&gt;Node10</title>
<g id="a_edge9_Node000005_Node000010"><a xlink:title=" ">
<path fill="none" stroke="#63b8ff" d="M230.03,-165.34C239.42,-157.65 253.15,-146.4 264.41,-137.18"/>
<polygon fill="#63b8ff" stroke="#63b8ff" points="266.45,-140.03 271.97,-130.98 262.01,-134.61 266.45,-140.03"/>
</a>
</g>
</g>
<!-- Node12 -->
<g id="Node000012" class="node">
<title>Node12</title>
<g id="a_Node000012"><a target="_parent" xlink:href="http://en.cppreference.com/w/cpp/header/memory.html" xlink:title=" ">
<polygon fill="white" stroke="#666666" points="386,-129.75 334,-129.75 334,-110.5 386,-110.5 386,-129.75"/>
<text text-anchor="middle" x="360" y="-116.25" font-family="ui-monospace,monospace" font-size="10.00">memory</text>
</a>
</g>
</g>
<!-- Node5&#45;&gt;Node12 -->
<g id="edge12_Node000005_Node000012" class="edge">
<title>Node5&#45;&gt;Node12</title>
<g id="a_edge12_Node000005_Node000012"><a xlink:title=" ">
<path fill="none" stroke="#63b8ff" d="M242.92,-165.34C265.5,-156.81 299.64,-143.92 325.23,-134.26"/>
<polygon fill="#63b8ff" stroke="#63b8ff" points="326.43,-137.54 334.55,-130.74 323.96,-131 326.43,-137.54"/>
</a>
</g>
</g>
<!-- Node7 -->
<g id="Node000007" class="node">
<title>Node7</title>
<g id="a_Node000007"><a xlink:href="Vec2_8hpp.html" target="_top" xlink:title="Contains jngl::Vec2 class.">
<polygon fill="white" stroke="#666666" points="204,-74.5 140,-74.5 140,-55.25 204,-55.25 204,-74.5"/>
<text text-anchor="middle" x="172" y="-61" font-family="ui-monospace,monospace" font-size="10.00">Vec2.hpp</text>
</a>
</g>
</g>
<!-- Node6&#45;&gt;Node7 -->
<g id="edge6_Node000006_Node000007" class="edge">
<title>Node6&#45;&gt;Node7</title>
<g id="a_edge6_Node000006_Node000007"><a xlink:title=" ">
<path fill="none" stroke="#63b8ff" d="M128.59,-110.33C135.84,-102.9 146.45,-92.04 155.37,-82.91"/>
<polygon fill="#63b8ff" stroke="#63b8ff" points="157.69,-85.54 162.17,-75.94 152.68,-80.65 157.69,-85.54"/>
</a>
</g>
</g>
<!-- Node8 -->
<g id="Node000008" class="node">
<title>Node8</title>
<g id="a_Node000008"><a xlink:title=" ">
<polygon fill="#e0e0e0" stroke="#999999" points="304,-19.25 180,-19.25 180,0 304,0 304,-19.25"/>
<text text-anchor="middle" x="242" y="-5.75" font-family="ui-monospace,monospace" font-size="10.00">boost/qvm_lite.hpp</text>
</a>
</g>
</g>
<!-- Node7&#45;&gt;Node8 -->
<g id="edge7_Node000007_Node000008" class="edge">
<title>Node7&#45;&gt;Node8</title>
<g id="a_edge7_Node000007_Node000008"><a xlink:title=" ">
<path fill="none" stroke="#63b8ff" d="M183.87,-54.84C194.09,-47.07 209.07,-35.67 221.26,-26.4"/>
<polygon fill="#63b8ff" stroke="#63b8ff" points="223.26,-29.28 229.1,-20.44 219.02,-23.71 223.26,-29.28"/>
</a>
</g>
</g>
<!-- Node9 -->
<g id="Node000009" class="node">
<title>Node9</title>
<g id="a_Node000009"><a target="_parent" xlink:href="http://en.cppreference.com/w/cpp/header/iosfwd.html" xlink:title=" ">
<polygon fill="white" stroke="#666666" points="162,-19.25 110,-19.25 110,0 162,0 162,-19.25"/>
<text text-anchor="middle" x="136" y="-5.75" font-family="ui-monospace,monospace" font-size="10.00">iosfwd</text>
</a>
</g>
</g>
<!-- Node7&#45;&gt;Node9 -->
<g id="edge8_Node000007_Node000009" class="edge">
<title>Node7&#45;&gt;Node9</title>
<g id="a_edge8_Node000007_Node000009"><a xlink:title=" ">
<path fill="none" stroke="#63b8ff" d="M166.06,-55.08C161.29,-48.03 154.44,-37.9 148.48,-29.08"/>
<polygon fill="#63b8ff" stroke="#63b8ff" points="151.42,-27.19 142.92,-20.86 145.62,-31.11 151.42,-27.19"/>
</a>
</g>
</g>
<!-- Node10&#45;&gt;Node8 -->
<g id="edge10_Node000010_Node000008" class="edge">
<title>Node10&#45;&gt;Node8</title>
<g id="a_edge10_Node000010_Node000008"><a xlink:title=" ">
<path fill="none" stroke="#63b8ff" d="M278.73,-110.13C273.7,-101.28 266.14,-87.28 261,-74.5 255.17,-60.02 250.21,-43.07 246.82,-30.26"/>
<polygon fill="#63b8ff" stroke="#63b8ff" points="250.31,-29.77 244.45,-20.95 243.53,-31.5 250.31,-29.77"/>
</a>
</g>
</g>
<!-- Node11 -->
<g id="Node000011" class="node">
<title>Node11</title>
<g id="a_Node000011"><a target="_parent" xlink:href="http://en.cppreference.com/w/cpp/header/initializer_list.html" xlink:title=" ">
<polygon fill="white" stroke="#666666" points="382,-74.5 270,-74.5 270,-55.25 382,-55.25 382,-74.5"/>
<text text-anchor="middle" x="326" y="-61" font-family="ui-monospace,monospace" font-size="10.00">initializer_list</text>
</a>
</g>
</g>
<!-- Node10&#45;&gt;Node11 -->
<g id="edge11_Node000010_Node000011" class="edge">
<title>Node10&#45;&gt;Node11</title>
<g id="a_edge11_Node000010_Node000011"><a xlink:title=" ">
<path fill="none" stroke="#63b8ff" d="M290.94,-110.33C296.62,-103.13 304.84,-92.71 311.89,-83.76"/>
<polygon fill="#63b8ff" stroke="#63b8ff" points="314.53,-86.07 317.98,-76.05 309.04,-81.73 314.53,-86.07"/>
</a>
</g>
</g>
<!-- Node13&#45;&gt;Node7 -->
<g id="edge15_Node000013_Node000007" class="edge">
<title>Node13&#45;&gt;Node7</title>
<g id="a_edge15_Node000013_Node000007"><a xlink:title=" ">
<path fill="none" stroke="#63b8ff" d="M430.99,-165.28C451.12,-152.7 481.24,-129.41 465,-110.5 456.93,-101.11 295.27,-80.6 215.61,-71.01"/>
<polygon fill="#63b8ff" stroke="#63b8ff" points="216.33,-67.57 205.98,-69.86 215.5,-74.52 216.33,-67.57"/>
</a>
</g>
</g>
<!-- Node13&#45;&gt;Node10 -->
<g id="edge14_Node000013_Node000010" class="edge">
<title>Node13&#45;&gt;Node10</title>
<g id="a_edge14_Node000013_Node000010"><a xlink:title=" ">
<path fill="none" stroke="#63b8ff" d="M392.78,-165.34C371.98,-156.89 340.65,-144.15 316.95,-134.52"/>
<polygon fill="#63b8ff" stroke="#63b8ff" points="318.32,-131.3 307.73,-130.77 315.68,-137.78 318.32,-131.3"/>
</a>
</g>
</g>
<!-- Node13&#45;&gt;Node12 -->
<g id="edge16_Node000013_Node000012" class="edge">
<title>Node13&#45;&gt;Node12</title>
<g id="a_edge16_Node000013_Node000012"><a xlink:title=" ">
<path fill="none" stroke="#63b8ff" d="M405.92,-165.58C398.16,-158.07 386.79,-147.06 377.3,-137.88"/>
<polygon fill="#63b8ff" stroke="#63b8ff" points="379.99,-135.6 370.37,-131.16 375.12,-140.63 379.99,-135.6"/>
</a>
</g>
</g>
<!-- Node14 -->
<g id="Node000014" class="node">
<title>Node14</title>
<g id="a_Node000014"><a target="_parent" xlink:href="http://en.cppreference.com/w/cpp/header/set.html" xlink:title=" ">
<polygon fill="white" stroke="#666666" points="546,-129.75 512,-129.75 512,-110.5 546,-110.5 546,-129.75"/>
<text text-anchor="middle" x="529" y="-116.25" font-family="ui-monospace,monospace" font-size="10.00">set</text>
</a>
</g>
</g>
<!-- Node13&#45;&gt;Node14 -->
<g id="edge17_Node000013_Node000014" class="edge">
<title>Node13&#45;&gt;Node14</title>
<g id="a_edge17_Node000013_Node000014"><a xlink:title=" ">
<path fill="none" stroke="#63b8ff" d="M434.34,-165.34C452.75,-156.74 480.66,-143.7 501.41,-134.01"/>
<polygon fill="#63b8ff" stroke="#63b8ff" points="502.86,-137.2 510.44,-129.8 499.89,-130.86 502.86,-137.2"/>
</a>
</g>
</g>
<!-- Node15 -->
<g id="Node000015" class="node">
<title>Node15</title>
<g id="a_Node000015"><a target="_parent" xlink:href="http://en.cppreference.com/w/cpp/header/vector.html" xlink:title=" ">
<polygon fill="white" stroke="#666666" points="456,-129.75 404,-129.75 404,-110.5 456,-110.5 456,-129.75"/>
<text text-anchor="middle" x="430" y="-116.25" font-family="ui-monospace,monospace" font-size="10.00">vector</text>
</a>
</g>
</g>
<!-- Node13&#45;&gt;Node15 -->
<g id="edge18_Node000013_Node000015" class="edge">
<title>Node13&#45;&gt;Node15</title>
<g id="a_edge18_Node000013_Node000015"><a xlink:title=" ">
<path fill="none" stroke="#63b8ff" d="M417.48,-165.58C419.35,-158.92 422.01,-149.49 424.39,-141.03"/>
<polygon fill="#63b8ff" stroke="#63b8ff" points="427.72,-142.14 427.06,-131.57 420.98,-140.24 427.72,-142.14"/>
</a>
</g>
</g>
<!-- Node16&#45;&gt;Node6 -->
<g id="edge20_Node000016_Node000006" class="edge">
<title>Node16&#45;&gt;Node6</title>
<g id="a_edge20_Node000016_Node000006"><a xlink:title=" ">
<path fill="none" stroke="#63b8ff" d="M280.7,-165.46C248.74,-156.65 199.6,-143.09 164.07,-133.29"/>
<polygon fill="#63b8ff" stroke="#63b8ff" points="165.09,-129.93 154.52,-130.65 163.22,-136.68 165.09,-129.93"/>
</a>
</g>
</g>
<!-- Node16&#45;&gt;Node10 -->
<g id="edge21_Node000016_Node000010" class="edge">
<title>Node16&#45;&gt;Node10</title>
<g id="a_edge21_Node000016_Node000010"><a xlink:title=" ">
<path fill="none" stroke="#63b8ff" d="M308.21,-165.58C304.46,-158.69 299.09,-148.84 294.37,-140.16"/>
<polygon fill="#63b8ff" stroke="#63b8ff" points="297.47,-138.55 289.62,-131.44 291.33,-141.89 297.47,-138.55"/>
</a>
</g>
</g>
<!-- Node16&#45;&gt;Node12 -->
<g id="edge22_Node000016_Node000012" class="edge">
<title>Node16&#45;&gt;Node12</title>
<g id="a_edge22_Node000016_Node000012"><a xlink:title=" ">
<path fill="none" stroke="#63b8ff" d="M320.76,-165.58C327.19,-158.3 336.51,-147.73 344.46,-138.73"/>
<polygon fill="#63b8ff" stroke="#63b8ff" points="347.08,-141.06 351.07,-131.24 341.83,-136.43 347.08,-141.06"/>
</a>
</g>
</g>
<!-- Node16&#45;&gt;Node15 -->
<g id="edge24_Node000016_Node000015" class="edge">
<title>Node16&#45;&gt;Node15</title>
<g id="a_edge24_Node000016_Node000015"><a xlink:title=" ">
<path fill="none" stroke="#63b8ff" d="M332.85,-165.34C351.17,-157 378.65,-144.5 399.71,-134.91"/>
<polygon fill="#63b8ff" stroke="#63b8ff" points="401.03,-138.16 408.68,-130.83 398.13,-131.79 401.03,-138.16"/>
</a>
</g>
</g>
<!-- Node17 -->
<g id="Node000017" class="node">
<title>Node17</title>
<g id="a_Node000017"><a target="_parent" xlink:href="http://en.cppreference.com/w/cpp/header/string.html" xlink:title=" ">
<polygon fill="white" stroke="#666666" points="234,-129.75 182,-129.75 182,-110.5 234,-110.5 234,-129.75"/>
<text text-anchor="middle" x="208" y="-116.25" font-family="ui-monospace,monospace" font-size="10.00">string</text>
</a>
</g>
</g>
<!-- Node16&#45;&gt;Node17 -->
<g id="edge23_Node000016_Node000017" class="edge">
<title>Node16&#45;&gt;Node17</title>
<g id="a_edge23_Node000016_Node000017"><a xlink:title=" ">
<path fill="none" stroke="#63b8ff" d="M295.19,-165.34C278.97,-157.12 254.76,-144.84 235.97,-135.31"/>
<polygon fill="#63b8ff" stroke="#63b8ff" points="237.75,-132.29 227.25,-130.89 234.58,-138.53 237.75,-132.29"/>
</a>
</g>
</g>
</g>
</svg>
