<?xml version="1.0" encoding="UTF-8" standalone="no"?>
<!DOCTYPE svg PUBLIC "-//W3C//DTD SVG 1.1//EN"
 "http://www.w3.org/Graphics/SVG/1.1/DTD/svg11.dtd">
<!-- Generated by graphviz version 2.44.0 (0)
 -->
<!-- Title: jngl/Label.hpp Pages: 1 -->
<svg width="355pt" height="252pt"
 viewBox="0.00 0.00 355.00 252.00" xmlns="http://www.w3.org/2000/svg" xmlns:xlink="http://www.w3.org/1999/xlink">
<g id="graph0" class="graph" transform="scale(1 1) rotate(0) translate(4 248)">
<title>jngl/Label.hpp</title>
<polygon fill="white" stroke="transparent" points="-4,4 -4,-248 351,-248 351,4 -4,4"/>
<!-- Node1 -->
<g id="node1" class="node">
<title>Node1</title>
<g id="a_node1"><a xlink:title="Contains jngl::Label class.">
<polygon fill="#bfbfbf" stroke="black" points="77,-224.5 77,-243.5 178,-243.5 178,-224.5 77,-224.5"/>
<text text-anchor="middle" x="127.5" y="-231.5" font-family="'Consolas',monospace" font-size="10.00">jngl/Label.hpp</text>
</a>
</g>
</g>
<!-- Node2 -->
<g id="node2" class="node">
<title>Node2</title>
<g id="a_node2"><a xlink:href="Color_8hpp.html" target="_top" xlink:title="Contains jngl::Color class.">
<polygon fill="white" stroke="black" points="0,-168.5 0,-187.5 71,-187.5 71,-168.5 0,-168.5"/>
<text text-anchor="middle" x="35.5" y="-175.5" font-family="'Consolas',monospace" font-size="10.00">Color.hpp</text>
</a>
</g>
</g>
<!-- Node1&#45;&gt;Node2 -->
<g id="edge1" class="edge">
<title>Node1&#45;&gt;Node2</title>
<path fill="none" stroke="midnightblue" d="M112.72,-224.32C98.23,-215.82 75.93,-202.73 59.01,-192.8"/>
<polygon fill="midnightblue" stroke="midnightblue" points="60.64,-189.7 50.24,-187.65 57.1,-195.74 60.64,-189.7"/>
</g>
<!-- Node3 -->
<g id="node3" class="node">
<title>Node3</title>
<g id="a_node3"><a xlink:href="Widget_8hpp.html" target="_top" xlink:title="Contains jngl::Container class.">
<polygon fill="white" stroke="black" points="89,-168.5 89,-187.5 166,-187.5 166,-168.5 89,-168.5"/>
<text text-anchor="middle" x="127.5" y="-175.5" font-family="'Consolas',monospace" font-size="10.00">Widget.hpp</text>
</a>
</g>
</g>
<!-- Node1&#45;&gt;Node3 -->
<g id="edge2" class="edge">
<title>Node1&#45;&gt;Node3</title>
<path fill="none" stroke="midnightblue" d="M127.5,-224.08C127.5,-217.01 127.5,-206.86 127.5,-197.99"/>
<polygon fill="midnightblue" stroke="midnightblue" points="131,-197.75 127.5,-187.75 124,-197.75 131,-197.75"/>
</g>
<!-- Node10 -->
<g id="node10" class="node">
<title>Node10</title>
<g id="a_node10"><a xlink:href="TextLine_8hpp.html" target="_top" xlink:title="Contains jngl::TextLine class.">
<polygon fill="white" stroke="black" points="184,-168.5 184,-187.5 273,-187.5 273,-168.5 184,-168.5"/>
<text text-anchor="middle" x="228.5" y="-175.5" font-family="'Consolas',monospace" font-size="10.00">TextLine.hpp</text>
</a>
</g>
</g>
<!-- Node1&#45;&gt;Node10 -->
<g id="edge9" class="edge">
<title>Node1&#45;&gt;Node10</title>
<path fill="none" stroke="midnightblue" d="M143.73,-224.32C159.85,-215.7 184.8,-202.36 203.46,-192.39"/>
<polygon fill="midnightblue" stroke="midnightblue" points="205.14,-195.46 212.31,-187.65 201.84,-189.28 205.14,-195.46"/>
</g>
<!-- Node4 -->
<g id="node4" class="node">
<title>Node4</title>
<g id="a_node4"><a xlink:href="Vec2_8hpp.html" target="_top" xlink:title="Contains jngl::Vec2 class.">
<polygon fill="white" stroke="black" points="136,-56.5 136,-75.5 201,-75.5 201,-56.5 136,-56.5"/>
<text text-anchor="middle" x="168.5" y="-63.5" font-family="'Consolas',monospace" font-size="10.00">Vec2.hpp</text>
</a>
</g>
</g>
<!-- Node3&#45;&gt;Node4 -->
<g id="edge3" class="edge">
<title>Node3&#45;&gt;Node4</title>
<path fill="none" stroke="midnightblue" d="M103.47,-168.44C76.02,-157.28 36.92,-136.29 53.5,-112 69.66,-88.32 100.33,-77.1 125.93,-71.78"/>
<polygon fill="midnightblue" stroke="midnightblue" points="126.61,-75.22 135.81,-69.96 125.34,-68.33 126.61,-75.22"/>
</g>
<!-- Node7 -->
<g id="node7" class="node">
<title>Node7</title>
<g id="a_node7"><a target="_parent" xlink:href="http://en.cppreference.com/w/cpp/header/memory.html" xlink:title=" ">
<polygon fill="white" stroke="black" points="187,-112.5 187,-131.5 240,-131.5 240,-112.5 187,-112.5"/>
<text text-anchor="middle" x="213.5" y="-119.5" font-family="'Consolas',monospace" font-size="10.00">memory</text>
</a>
</g>
</g>
<!-- Node3&#45;&gt;Node7 -->
<g id="edge6" class="edge">
<title>Node3&#45;&gt;Node7</title>
<path fill="none" stroke="midnightblue" d="M141.32,-168.32C154.73,-159.9 175.32,-146.97 191.09,-137.07"/>
<polygon fill="midnightblue" stroke="midnightblue" points="193.11,-139.94 199.72,-131.65 189.39,-134.01 193.11,-139.94"/>
</g>
<!-- Node8 -->
<g id="node8" class="node">
<title>Node8</title>
<g id="a_node8"><a target="_parent" xlink:href="http://en.cppreference.com/w/cpp/header/set.html" xlink:title=" ">
<polygon fill="white" stroke="black" points="63,-112.5 63,-131.5 98,-131.5 98,-112.5 63,-112.5"/>
<text text-anchor="middle" x="80.5" y="-119.5" font-family="'Consolas',monospace" font-size="10.00">set</text>
</a>
</g>
</g>
<!-- Node3&#45;&gt;Node8 -->
<g id="edge7" class="edge">
<title>Node3&#45;&gt;Node8</title>
<path fill="none" stroke="midnightblue" d="M119.74,-168.08C112.96,-160.3 102.96,-148.8 94.74,-139.37"/>
<polygon fill="midnightblue" stroke="midnightblue" points="97.32,-137 88.12,-131.75 92.04,-141.59 97.32,-137"/>
</g>
<!-- Node9 -->
<g id="node9" class="node">
<title>Node9</title>
<g id="a_node9"><a target="_parent" xlink:href="http://en.cppreference.com/w/cpp/header/vector.html" xlink:title=" ">
<polygon fill="white" stroke="black" points="116,-112.5 116,-131.5 169,-131.5 169,-112.5 116,-112.5"/>
<text text-anchor="middle" x="142.5" y="-119.5" font-family="'Consolas',monospace" font-size="10.00">vector</text>
</a>
</g>
</g>
<!-- Node3&#45;&gt;Node9 -->
<g id="edge8" class="edge">
<title>Node3&#45;&gt;Node9</title>
<path fill="none" stroke="midnightblue" d="M129.98,-168.08C131.99,-160.85 134.89,-150.41 137.39,-141.4"/>
<polygon fill="midnightblue" stroke="midnightblue" points="140.76,-142.32 140.07,-131.75 134.02,-140.45 140.76,-142.32"/>
</g>
<!-- Node5 -->
<g id="node5" class="node">
<title>Node5</title>
<g id="a_node5"><a xlink:title=" ">
<polygon fill="white" stroke="#bfbfbf" points="57,-0.5 57,-19.5 176,-19.5 176,-0.5 57,-0.5"/>
<text text-anchor="middle" x="116.5" y="-7.5" font-family="'Consolas',monospace" font-size="10.00">boost/version.hpp</text>
</a>
</g>
</g>
<!-- Node4&#45;&gt;Node5 -->
<g id="edge4" class="edge">
<title>Node4&#45;&gt;Node5</title>
<path fill="none" stroke="midnightblue" d="M159.91,-56.08C152.34,-48.22 141.12,-36.57 131.99,-27.08"/>
<polygon fill="midnightblue" stroke="midnightblue" points="134.38,-24.53 124.93,-19.75 129.34,-29.38 134.38,-24.53"/>
</g>
<!-- Node6 -->
<g id="node6" class="node">
<title>Node6</title>
<g id="a_node6"><a target="_parent" xlink:href="http://en.cppreference.com/w/cpp/header/iosfwd.html" xlink:title=" ">
<polygon fill="white" stroke="black" points="194,-0.5 194,-19.5 247,-19.5 247,-0.5 194,-0.5"/>
<text text-anchor="middle" x="220.5" y="-7.5" font-family="'Consolas',monospace" font-size="10.00">iosfwd</text>
</a>
</g>
</g>
<!-- Node4&#45;&gt;Node6 -->
<g id="edge5" class="edge">
<title>Node4&#45;&gt;Node6</title>
<path fill="none" stroke="midnightblue" d="M177.09,-56.08C184.66,-48.22 195.88,-36.57 205.01,-27.08"/>
<polygon fill="midnightblue" stroke="midnightblue" points="207.66,-29.38 212.07,-19.75 202.62,-24.53 207.66,-29.38"/>
</g>
<!-- Node10&#45;&gt;Node7 -->
<g id="edge12" class="edge">
<title>Node10&#45;&gt;Node7</title>
<path fill="none" stroke="midnightblue" d="M226.02,-168.08C224.01,-160.85 221.11,-150.41 218.61,-141.4"/>
<polygon fill="midnightblue" stroke="midnightblue" points="221.98,-140.45 215.93,-131.75 215.24,-142.32 221.98,-140.45"/>
</g>
<!-- Node11 -->
<g id="node11" class="node">
<title>Node11</title>
<g id="a_node11"><a xlink:href="Drawable_8hpp.html" target="_top" xlink:title="Contains jngl::Drawable class.">
<polygon fill="white" stroke="black" points="258,-112.5 258,-131.5 347,-131.5 347,-112.5 258,-112.5"/>
<text text-anchor="middle" x="302.5" y="-119.5" font-family="'Consolas',monospace" font-size="10.00">Drawable.hpp</text>
</a>
</g>
</g>
<!-- Node10&#45;&gt;Node11 -->
<g id="edge10" class="edge">
<title>Node10&#45;&gt;Node11</title>
<path fill="none" stroke="midnightblue" d="M240.39,-168.32C251.65,-160.11 268.79,-147.6 282.21,-137.81"/>
<polygon fill="midnightblue" stroke="midnightblue" points="284.38,-140.56 290.39,-131.83 280.25,-134.9 284.38,-140.56"/>
</g>
<!-- Node11&#45;&gt;Node4 -->
<g id="edge11" class="edge">
<title>Node11&#45;&gt;Node4</title>
<path fill="none" stroke="midnightblue" d="M281.27,-112.44C259.12,-103.52 224.18,-89.44 199.06,-79.32"/>
<polygon fill="midnightblue" stroke="midnightblue" points="200.22,-76.01 189.63,-75.52 197.6,-82.5 200.22,-76.01"/>
</g>
</g>
</svg>
