<?xml version="1.0" encoding="UTF-8" standalone="no"?>
<!DOCTYPE svg PUBLIC "-//W3C//DTD SVG 1.1//EN"
 "http://www.w3.org/Graphics/SVG/1.1/DTD/svg11.dtd">
<!-- Generated by graphviz version 12.1.0 (20240811.2233)
 -->
<!-- Title: jngl/Label.hpp Pages: 1 -->
<svg width="630pt" height="248pt"
 viewBox="0.00 0.00 630.00 248.25" xmlns="http://www.w3.org/2000/svg" xmlns:xlink="http://www.w3.org/1999/xlink">
<g id="graph0" class="graph" transform="scale(1 1) rotate(0) translate(4 244.25)">
<title>jngl/Label.hpp</title>
<!-- Node1 -->
<g id="Node000001" class="node">
<title>Node1</title>
<g id="a_Node000001"><a xlink:title="Contains jngl::Label class.">
<polygon fill="#999999" stroke="#666666" points="291,-240.25 191,-240.25 191,-221 291,-221 291,-240.25"/>
<text text-anchor="middle" x="241" y="-226.75" font-family="ui-monospace,monospace" font-size="10.00">jngl/Label.hpp</text>
</a>
</g>
</g>
<!-- Node2 -->
<g id="Node000002" class="node">
<title>Node2</title>
<g id="a_Node000002"><a xlink:href="Rgb_8hpp.html" target="_top" xlink:title="Contains jngl::Rgb class.">
<polygon fill="white" stroke="#666666" points="115,-185 57,-185 57,-165.75 115,-165.75 115,-185"/>
<text text-anchor="middle" x="86" y="-171.5" font-family="ui-monospace,monospace" font-size="10.00">Rgb.hpp</text>
</a>
</g>
</g>
<!-- Node1&#45;&gt;Node2 -->
<g id="edge1_Node000001_Node000002" class="edge">
<title>Node1&#45;&gt;Node2</title>
<g id="a_edge1_Node000001_Node000002"><a xlink:title=" ">
<path fill="none" stroke="#63b8ff" d="M214.71,-220.59C189.54,-211.95 151.35,-198.82 123.09,-189.12"/>
<polygon fill="#63b8ff" stroke="#63b8ff" points="124.45,-185.88 113.85,-185.94 122.17,-192.5 124.45,-185.88"/>
</a>
</g>
</g>
<!-- Node5 -->
<g id="Node000005" class="node">
<title>Node5</title>
<g id="a_Node000005"><a xlink:href="TextLine_8hpp.html" target="_top" xlink:title="Contains jngl::TextLine class.">
<polygon fill="white" stroke="#666666" points="235,-185 147,-185 147,-165.75 235,-165.75 235,-185"/>
<text text-anchor="middle" x="191" y="-171.5" font-family="ui-monospace,monospace" font-size="10.00">TextLine.hpp</text>
</a>
</g>
</g>
<!-- Node1&#45;&gt;Node5 -->
<g id="edge4_Node000001_Node000005" class="edge">
<title>Node1&#45;&gt;Node5</title>
<g id="a_edge4_Node000001_Node000005"><a xlink:title=" ">
<path fill="none" stroke="#63b8ff" d="M232.74,-220.83C225.84,-213.48 215.78,-202.76 207.26,-193.69"/>
<polygon fill="#63b8ff" stroke="#63b8ff" points="209.87,-191.36 200.47,-186.46 204.77,-196.15 209.87,-191.36"/>
</a>
</g>
</g>
<!-- Node11 -->
<g id="Node000011" class="node">
<title>Node11</title>
<g id="a_Node000011"><a xlink:href="Widget_8hpp.html" target="_top" xlink:title="Contains jngl::Container class.">
<polygon fill="white" stroke="#666666" points="329,-185 253,-185 253,-165.75 329,-165.75 329,-185"/>
<text text-anchor="middle" x="291" y="-171.5" font-family="ui-monospace,monospace" font-size="10.00">Widget.hpp</text>
</a>
</g>
</g>
<!-- Node1&#45;&gt;Node11 -->
<g id="edge12_Node000001_Node000011" class="edge">
<title>Node1&#45;&gt;Node11</title>
<g id="a_edge12_Node000001_Node000011"><a xlink:title=" ">
<path fill="none" stroke="#63b8ff" d="M249.26,-220.83C256.16,-213.48 266.22,-202.76 274.74,-193.69"/>
<polygon fill="#63b8ff" stroke="#63b8ff" points="277.23,-196.15 281.53,-186.46 272.13,-191.36 277.23,-196.15"/>
</a>
</g>
</g>
<!-- Node14 -->
<g id="Node000014" class="node">
<title>Node14</title>
<g id="a_Node000014"><a xlink:href="text_8hpp.html" target="_top" xlink:title=" ">
<polygon fill="white" stroke="#666666" points="438,-185 374,-185 374,-165.75 438,-165.75 438,-185"/>
<text text-anchor="middle" x="406" y="-171.5" font-family="ui-monospace,monospace" font-size="10.00">text.hpp</text>
</a>
</g>
</g>
<!-- Node1&#45;&gt;Node14 -->
<g id="edge18_Node000001_Node000014" class="edge">
<title>Node1&#45;&gt;Node14</title>
<g id="a_edge18_Node000001_Node000014"><a xlink:title=" ">
<path fill="none" stroke="#63b8ff" d="M268.99,-220.59C296.01,-211.87 337.16,-198.59 367.31,-188.86"/>
<polygon fill="#63b8ff" stroke="#63b8ff" points="367.99,-192.32 376.43,-185.92 365.84,-185.66 367.99,-192.32"/>
</a>
</g>
</g>
<!-- Node3 -->
<g id="Node000003" class="node">
<title>Node3</title>
<g id="a_Node000003"><a target="_parent" xlink:href="http://en.cppreference.com/w/cpp/header/cstdint.html" xlink:title=" ">
<polygon fill="white" stroke="#666666" points="58,-129.75 0,-129.75 0,-110.5 58,-110.5 58,-129.75"/>
<text text-anchor="middle" x="29" y="-116.25" font-family="ui-monospace,monospace" font-size="10.00">cstdint</text>
</a>
</g>
</g>
<!-- Node2&#45;&gt;Node3 -->
<g id="edge2_Node000002_Node000003" class="edge">
<title>Node2&#45;&gt;Node3</title>
<g id="a_edge2_Node000002_Node000003"><a xlink:title=" ">
<path fill="none" stroke="#63b8ff" d="M76.33,-165.34C68.26,-157.8 56.53,-146.85 46.78,-137.73"/>
<polygon fill="#63b8ff" stroke="#63b8ff" points="49.33,-135.33 39.63,-131.06 44.55,-140.44 49.33,-135.33"/>
</a>
</g>
</g>
<!-- Node4 -->
<g id="Node000004" class="node">
<title>Node4</title>
<g id="a_Node000004"><a target="_parent" xlink:href="http://en.cppreference.com/w/cpp/header/iosfwd.html" xlink:title=" ">
<polygon fill="white" stroke="#666666" points="123,-19.25 71,-19.25 71,0 123,0 123,-19.25"/>
<text text-anchor="middle" x="97" y="-5.75" font-family="ui-monospace,monospace" font-size="10.00">iosfwd</text>
</a>
</g>
</g>
<!-- Node2&#45;&gt;Node4 -->
<g id="edge3_Node000002_Node000004" class="edge">
<title>Node2&#45;&gt;Node4</title>
<g id="a_edge3_Node000002_Node000004"><a xlink:title=" ">
<path fill="none" stroke="#63b8ff" d="M86.59,-165.57C88.29,-140.25 93.23,-66.75 95.64,-30.84"/>
<polygon fill="#63b8ff" stroke="#63b8ff" points="99.13,-31.19 96.3,-20.98 92.14,-30.73 99.13,-31.19"/>
</a>
</g>
</g>
<!-- Node6 -->
<g id="Node000006" class="node">
<title>Node6</title>
<g id="a_Node000006"><a xlink:href="Mat3_8hpp.html" target="_top" xlink:title="Contains jngl::Mat3 class.">
<polygon fill="white" stroke="#666666" points="306,-129.75 242,-129.75 242,-110.5 306,-110.5 306,-129.75"/>
<text text-anchor="middle" x="274" y="-116.25" font-family="ui-monospace,monospace" font-size="10.00">Mat3.hpp</text>
</a>
</g>
</g>
<!-- Node5&#45;&gt;Node6 -->
<g id="edge5_Node000005_Node000006" class="edge">
<title>Node5&#45;&gt;Node6</title>
<g id="a_edge5_Node000005_Node000006"><a xlink:title=" ">
<path fill="none" stroke="#63b8ff" d="M205.08,-165.34C217.48,-157.39 235.79,-145.64 250.43,-136.25"/>
<polygon fill="#63b8ff" stroke="#63b8ff" points="252.05,-139.37 258.58,-131.02 248.27,-133.47 252.05,-139.37"/>
</a>
</g>
</g>
<!-- Node9 -->
<g id="Node000009" class="node">
<title>Node9</title>
<g id="a_Node000009"><a xlink:href="Vec2_8hpp.html" target="_top" xlink:title="Contains jngl::Vec2 class.">
<polygon fill="white" stroke="#666666" points="186,-74.5 122,-74.5 122,-55.25 186,-55.25 186,-74.5"/>
<text text-anchor="middle" x="154" y="-61" font-family="ui-monospace,monospace" font-size="10.00">Vec2.hpp</text>
</a>
</g>
</g>
<!-- Node5&#45;&gt;Node9 -->
<g id="edge8_Node000005_Node000009" class="edge">
<title>Node5&#45;&gt;Node9</title>
<g id="a_edge8_Node000005_Node000009"><a xlink:title=" ">
<path fill="none" stroke="#63b8ff" d="M178.09,-165.46C167.76,-157.46 154.04,-144.72 148,-129.75 142.38,-115.82 144.35,-98.83 147.47,-85.88"/>
<polygon fill="#63b8ff" stroke="#63b8ff" points="150.8,-86.96 150.19,-76.39 144.07,-85.04 150.8,-86.96"/>
</a>
</g>
</g>
<!-- Node10 -->
<g id="Node000010" class="node">
<title>Node10</title>
<g id="a_Node000010"><a target="_parent" xlink:href="http://en.cppreference.com/w/cpp/header/memory.html" xlink:title=" ">
<polygon fill="white" stroke="#666666" points="376,-129.75 324,-129.75 324,-110.5 376,-110.5 376,-129.75"/>
<text text-anchor="middle" x="350" y="-116.25" font-family="ui-monospace,monospace" font-size="10.00">memory</text>
</a>
</g>
</g>
<!-- Node5&#45;&gt;Node10 -->
<g id="edge11_Node000005_Node000010" class="edge">
<title>Node5&#45;&gt;Node10</title>
<g id="a_edge11_Node000005_Node000010"><a xlink:title=" ">
<path fill="none" stroke="#63b8ff" d="M217.97,-165.34C244.13,-156.58 284.03,-143.22 313.12,-133.48"/>
<polygon fill="#63b8ff" stroke="#63b8ff" points="313.88,-136.91 322.25,-130.42 311.66,-130.27 313.88,-136.91"/>
</a>
</g>
</g>
<!-- Node7 -->
<g id="Node000007" class="node">
<title>Node7</title>
<g id="a_Node000007"><a xlink:title=" ">
<polygon fill="#e0e0e0" stroke="#999999" points="270,-19.25 146,-19.25 146,0 270,0 270,-19.25"/>
<text text-anchor="middle" x="208" y="-5.75" font-family="ui-monospace,monospace" font-size="10.00">boost/qvm_lite.hpp</text>
</a>
</g>
</g>
<!-- Node6&#45;&gt;Node7 -->
<g id="edge6_Node000006_Node000007" class="edge">
<title>Node6&#45;&gt;Node7</title>
<g id="a_edge6_Node000006_Node000007"><a xlink:title=" ">
<path fill="none" stroke="#63b8ff" d="M263.75,-110.06C254.67,-101.6 241.58,-88.24 233,-74.5 224.31,-60.58 217.73,-43.13 213.51,-30"/>
<polygon fill="#63b8ff" stroke="#63b8ff" points="216.98,-29.38 210.74,-20.81 210.28,-31.4 216.98,-29.38"/>
</a>
</g>
</g>
<!-- Node8 -->
<g id="Node000008" class="node">
<title>Node8</title>
<g id="a_Node000008"><a target="_parent" xlink:href="http://en.cppreference.com/w/cpp/header/initializer_list.html" xlink:title=" ">
<polygon fill="white" stroke="#666666" points="354,-74.5 242,-74.5 242,-55.25 354,-55.25 354,-74.5"/>
<text text-anchor="middle" x="298" y="-61" font-family="ui-monospace,monospace" font-size="10.00">initializer_list</text>
</a>
</g>
</g>
<!-- Node6&#45;&gt;Node8 -->
<g id="edge7_Node000006_Node000008" class="edge">
<title>Node6&#45;&gt;Node8</title>
<g id="a_edge7_Node000006_Node000008"><a xlink:title=" ">
<path fill="none" stroke="#63b8ff" d="M277.96,-110.33C281.04,-103.51 285.41,-93.81 289.29,-85.2"/>
<polygon fill="#63b8ff" stroke="#63b8ff" points="292.41,-86.79 293.33,-76.24 286.03,-83.92 292.41,-86.79"/>
</a>
</g>
</g>
<!-- Node9&#45;&gt;Node4 -->
<g id="edge10_Node000009_Node000004" class="edge">
<title>Node9&#45;&gt;Node4</title>
<g id="a_edge10_Node000009_Node000004"><a xlink:title=" ">
<path fill="none" stroke="#63b8ff" d="M144.33,-54.84C136.26,-47.3 124.53,-36.35 114.78,-27.23"/>
<polygon fill="#63b8ff" stroke="#63b8ff" points="117.33,-24.83 107.63,-20.56 112.55,-29.94 117.33,-24.83"/>
</a>
</g>
</g>
<!-- Node9&#45;&gt;Node7 -->
<g id="edge9_Node000009_Node000007" class="edge">
<title>Node9&#45;&gt;Node7</title>
<g id="a_edge9_Node000009_Node000007"><a xlink:title=" ">
<path fill="none" stroke="#63b8ff" d="M162.92,-55.08C170.45,-47.65 181.47,-36.79 190.73,-27.66"/>
<polygon fill="#63b8ff" stroke="#63b8ff" points="193.15,-30.19 197.81,-20.67 188.23,-25.2 193.15,-30.19"/>
</a>
</g>
</g>
<!-- Node11&#45;&gt;Node6 -->
<g id="edge13_Node000011_Node000006" class="edge">
<title>Node11&#45;&gt;Node6</title>
<g id="a_edge13_Node000011_Node000006"><a xlink:title=" ">
<path fill="none" stroke="#63b8ff" d="M288.19,-165.58C286.06,-158.92 283.06,-149.49 280.36,-141.03"/>
<polygon fill="#63b8ff" stroke="#63b8ff" points="283.7,-140.01 277.33,-131.55 277.04,-142.14 283.7,-140.01"/>
</a>
</g>
</g>
<!-- Node11&#45;&gt;Node9 -->
<g id="edge14_Node000011_Node000009" class="edge">
<title>Node11&#45;&gt;Node9</title>
<g id="a_edge14_Node000011_Node000009"><a xlink:title=" ">
<path fill="none" stroke="#63b8ff" d="M252.74,-166.69C229.45,-160.28 200.52,-148.99 181,-129.75 168.93,-117.85 161.97,-99.73 158.15,-85.82"/>
<polygon fill="#63b8ff" stroke="#63b8ff" points="161.63,-85.33 155.9,-76.42 154.82,-86.96 161.63,-85.33"/>
</a>
</g>
</g>
<!-- Node11&#45;&gt;Node10 -->
<g id="edge15_Node000011_Node000010" class="edge">
<title>Node11&#45;&gt;Node10</title>
<g id="a_edge15_Node000011_Node000010"><a xlink:title=" ">
<path fill="none" stroke="#63b8ff" d="M301.01,-165.34C309.37,-157.8 321.5,-146.85 331.6,-137.73"/>
<polygon fill="#63b8ff" stroke="#63b8ff" points="333.94,-140.34 339.02,-131.04 329.25,-135.14 333.94,-140.34"/>
</a>
</g>
</g>
<!-- Node12 -->
<g id="Node000012" class="node">
<title>Node12</title>
<g id="a_Node000012"><a target="_parent" xlink:href="http://en.cppreference.com/w/cpp/header/set.html" xlink:title=" ">
<polygon fill="white" stroke="#666666" points="224,-129.75 190,-129.75 190,-110.5 224,-110.5 224,-129.75"/>
<text text-anchor="middle" x="207" y="-116.25" font-family="ui-monospace,monospace" font-size="10.00">set</text>
</a>
</g>
</g>
<!-- Node11&#45;&gt;Node12 -->
<g id="edge16_Node000011_Node000012" class="edge">
<title>Node11&#45;&gt;Node12</title>
<g id="a_edge16_Node000011_Node000012"><a xlink:title=" ">
<path fill="none" stroke="#63b8ff" d="M276.75,-165.34C264.2,-157.39 245.67,-145.64 230.86,-136.25"/>
<polygon fill="#63b8ff" stroke="#63b8ff" points="232.92,-133.41 222.6,-131.01 229.17,-139.32 232.92,-133.41"/>
</a>
</g>
</g>
<!-- Node13 -->
<g id="Node000013" class="node">
<title>Node13</title>
<g id="a_Node000013"><a target="_parent" xlink:href="http://en.cppreference.com/w/cpp/header/vector.html" xlink:title=" ">
<polygon fill="white" stroke="#666666" points="446,-129.75 394,-129.75 394,-110.5 446,-110.5 446,-129.75"/>
<text text-anchor="middle" x="420" y="-116.25" font-family="ui-monospace,monospace" font-size="10.00">vector</text>
</a>
</g>
</g>
<!-- Node11&#45;&gt;Node13 -->
<g id="edge17_Node000011_Node000013" class="edge">
<title>Node11&#45;&gt;Node13</title>
<g id="a_edge17_Node000011_Node000013"><a xlink:title=" ">
<path fill="none" stroke="#63b8ff" d="M312.88,-165.34C333.36,-156.89 364.21,-144.15 387.56,-134.52"/>
<polygon fill="#63b8ff" stroke="#63b8ff" points="388.7,-137.83 396.61,-130.78 386.03,-131.36 388.7,-137.83"/>
</a>
</g>
</g>
<!-- Node14&#45;&gt;Node6 -->
<g id="edge21_Node000014_Node000006" class="edge">
<title>Node14&#45;&gt;Node6</title>
<g id="a_edge21_Node000014_Node000006"><a xlink:title=" ">
<path fill="none" stroke="#63b8ff" d="M383.61,-165.34C362.56,-156.85 330.8,-144.04 306.88,-134.39"/>
<polygon fill="#63b8ff" stroke="#63b8ff" points="308.49,-131.26 297.91,-130.77 305.87,-137.76 308.49,-131.26"/>
</a>
</g>
</g>
<!-- Node14&#45;&gt;Node10 -->
<g id="edge22_Node000014_Node000010" class="edge">
<title>Node14&#45;&gt;Node10</title>
<g id="a_edge22_Node000014_Node000010"><a xlink:title=" ">
<path fill="none" stroke="#63b8ff" d="M396.5,-165.34C388.57,-157.8 377.05,-146.85 367.46,-137.73"/>
<polygon fill="#63b8ff" stroke="#63b8ff" points="370.11,-135.42 360.46,-131.07 365.29,-140.49 370.11,-135.42"/>
</a>
</g>
</g>
<!-- Node14&#45;&gt;Node13 -->
<g id="edge24_Node000014_Node000013" class="edge">
<title>Node14&#45;&gt;Node13</title>
<g id="a_edge24_Node000014_Node000013"><a xlink:title=" ">
<path fill="none" stroke="#63b8ff" d="M408.31,-165.58C410.06,-158.92 412.54,-149.49 414.77,-141.03"/>
<polygon fill="#63b8ff" stroke="#63b8ff" points="418.1,-142.13 417.25,-131.57 411.33,-140.35 418.1,-142.13"/>
</a>
</g>
</g>
<!-- Node15 -->
<g id="Node000015" class="node">
<title>Node15</title>
<g id="a_Node000015"><a xlink:href="Drawable_8hpp.html" target="_top" xlink:title="Contains jngl::Drawable class.">
<polygon fill="white" stroke="#666666" points="552,-129.75 464,-129.75 464,-110.5 552,-110.5 552,-129.75"/>
<text text-anchor="middle" x="508" y="-116.25" font-family="ui-monospace,monospace" font-size="10.00">Drawable.hpp</text>
</a>
</g>
</g>
<!-- Node14&#45;&gt;Node15 -->
<g id="edge19_Node000014_Node000015" class="edge">
<title>Node14&#45;&gt;Node15</title>
<g id="a_edge19_Node000014_Node000015"><a xlink:title=" ">
<path fill="none" stroke="#63b8ff" d="M423.3,-165.34C438.98,-157.16 462.35,-144.96 480.58,-135.44"/>
<polygon fill="#63b8ff" stroke="#63b8ff" points="482.03,-138.63 489.27,-130.9 478.79,-132.43 482.03,-138.63"/>
</a>
</g>
</g>
<!-- Node16 -->
<g id="Node000016" class="node">
<title>Node16</title>
<g id="a_Node000016"><a target="_parent" xlink:href="http://en.cppreference.com/w/cpp/header/string.html" xlink:title=" ">
<polygon fill="white" stroke="#666666" points="622,-129.75 570,-129.75 570,-110.5 622,-110.5 622,-129.75"/>
<text text-anchor="middle" x="596" y="-116.25" font-family="ui-monospace,monospace" font-size="10.00">string</text>
</a>
</g>
</g>
<!-- Node14&#45;&gt;Node16 -->
<g id="edge23_Node000014_Node000016" class="edge">
<title>Node14&#45;&gt;Node16</title>
<g id="a_edge23_Node000014_Node000016"><a xlink:title=" ">
<path fill="none" stroke="#63b8ff" d="M438.23,-165.34C471.67,-155.97 523.88,-141.34 558.99,-131.5"/>
<polygon fill="#63b8ff" stroke="#63b8ff" points="559.6,-134.96 568.28,-128.89 557.71,-128.22 559.6,-134.96"/>
</a>
</g>
</g>
<!-- Node15&#45;&gt;Node9 -->
<g id="edge20_Node000015_Node000009" class="edge">
<title>Node15&#45;&gt;Node9</title>
<g id="a_edge20_Node000015_Node000009"><a xlink:title=" ">
<path fill="none" stroke="#63b8ff" d="M463.76,-111.88C460.8,-111.41 457.86,-110.94 455,-110.5 363.43,-96.26 256.03,-80.58 197.48,-72.12"/>
<polygon fill="#63b8ff" stroke="#63b8ff" points="197.99,-68.66 187.59,-70.7 196.99,-75.59 197.99,-68.66"/>
</a>
</g>
</g>
</g>
</svg>
