<?xml version="1.0" encoding="UTF-8" standalone="no"?>
<!DOCTYPE svg PUBLIC "-//W3C//DTD SVG 1.1//EN"
 "http://www.w3.org/Graphics/SVG/1.1/DTD/svg11.dtd">
<!-- Generated by graphviz version 2.44.0 (0)
 -->
<!-- Title: jngl/Label.hpp Pages: 1 -->
<svg width="354pt" height="252pt"
 viewBox="0.00 0.00 354.00 252.00" xmlns="http://www.w3.org/2000/svg" xmlns:xlink="http://www.w3.org/1999/xlink">
<g id="graph0" class="graph" transform="scale(1 1) rotate(0) translate(4 248)">
<title>jngl/Label.hpp</title>
<polygon fill="white" stroke="transparent" points="-4,4 -4,-248 350,-248 350,4 -4,4"/>
<!-- Node1 -->
<g id="node1" class="node">
<title>Node1</title>
<g id="a_node1"><a xlink:title="Contains jngl::Label class.">
<polygon fill="#bfbfbf" stroke="black" points="83,-224.5 83,-243.5 184,-243.5 184,-224.5 83,-224.5"/>
<text text-anchor="middle" x="133.5" y="-231.5" font-family="'Consolas',monospace" font-size="10.00">jngl/Label.hpp</text>
</a>
</g>
</g>
<!-- Node2 -->
<g id="node2" class="node">
<title>Node2</title>
<g id="a_node2"><a xlink:href="Color_8hpp.html" target="_top" xlink:title="Contains jngl::Color class.">
<polygon fill="white" stroke="black" points="0,-168.5 0,-187.5 71,-187.5 71,-168.5 0,-168.5"/>
<text text-anchor="middle" x="35.5" y="-175.5" font-family="'Consolas',monospace" font-size="10.00">Color.hpp</text>
</a>
</g>
</g>
<!-- Node1&#45;&gt;Node2 -->
<g id="edge1" class="edge">
<title>Node1&#45;&gt;Node2</title>
<path fill="none" stroke="midnightblue" d="M117.75,-224.32C102.18,-215.74 78.12,-202.49 60.04,-192.52"/>
<polygon fill="midnightblue" stroke="midnightblue" points="61.65,-189.42 51.21,-187.65 58.28,-195.55 61.65,-189.42"/>
</g>
<!-- Node3 -->
<g id="node3" class="node">
<title>Node3</title>
<g id="a_node3"><a xlink:href="TextLine_8hpp.html" target="_top" xlink:title="Contains jngl::TextLine class.">
<polygon fill="white" stroke="black" points="89,-168.5 89,-187.5 178,-187.5 178,-168.5 89,-168.5"/>
<text text-anchor="middle" x="133.5" y="-175.5" font-family="'Consolas',monospace" font-size="10.00">TextLine.hpp</text>
</a>
</g>
</g>
<!-- Node1&#45;&gt;Node3 -->
<g id="edge2" class="edge">
<title>Node1&#45;&gt;Node3</title>
<path fill="none" stroke="midnightblue" d="M133.5,-224.08C133.5,-217.01 133.5,-206.86 133.5,-197.99"/>
<polygon fill="midnightblue" stroke="midnightblue" points="137,-197.75 133.5,-187.75 130,-197.75 137,-197.75"/>
</g>
<!-- Node9 -->
<g id="node9" class="node">
<title>Node9</title>
<g id="a_node9"><a xlink:href="Widget_8hpp.html" target="_top" xlink:title="Contains jngl::Container class.">
<polygon fill="white" stroke="black" points="196,-168.5 196,-187.5 273,-187.5 273,-168.5 196,-168.5"/>
<text text-anchor="middle" x="234.5" y="-175.5" font-family="'Consolas',monospace" font-size="10.00">Widget.hpp</text>
</a>
</g>
</g>
<!-- Node1&#45;&gt;Node9 -->
<g id="edge8" class="edge">
<title>Node1&#45;&gt;Node9</title>
<path fill="none" stroke="midnightblue" d="M149.73,-224.32C165.85,-215.7 190.8,-202.36 209.46,-192.39"/>
<polygon fill="midnightblue" stroke="midnightblue" points="211.14,-195.46 218.31,-187.65 207.84,-189.28 211.14,-195.46"/>
</g>
<!-- Node4 -->
<g id="node4" class="node">
<title>Node4</title>
<g id="a_node4"><a xlink:href="Drawable_8hpp.html" target="_top" xlink:title="Contains jngl::Drawable class.">
<polygon fill="white" stroke="black" points="23,-112.5 23,-131.5 112,-131.5 112,-112.5 23,-112.5"/>
<text text-anchor="middle" x="67.5" y="-119.5" font-family="'Consolas',monospace" font-size="10.00">Drawable.hpp</text>
</a>
</g>
</g>
<!-- Node3&#45;&gt;Node4 -->
<g id="edge3" class="edge">
<title>Node3&#45;&gt;Node4</title>
<path fill="none" stroke="midnightblue" d="M122.9,-168.32C113.04,-160.26 98.15,-148.08 86.28,-138.37"/>
<polygon fill="midnightblue" stroke="midnightblue" points="88.25,-135.46 78.3,-131.83 83.82,-140.88 88.25,-135.46"/>
</g>
<!-- Node8 -->
<g id="node8" class="node">
<title>Node8</title>
<g id="a_node8"><a target="_parent" xlink:href="http://en.cppreference.com/w/cpp/header/memory.html" xlink:title=" ">
<polygon fill="white" stroke="black" points="130,-112.5 130,-131.5 183,-131.5 183,-112.5 130,-112.5"/>
<text text-anchor="middle" x="156.5" y="-119.5" font-family="'Consolas',monospace" font-size="10.00">memory</text>
</a>
</g>
</g>
<!-- Node3&#45;&gt;Node8 -->
<g id="edge7" class="edge">
<title>Node3&#45;&gt;Node8</title>
<path fill="none" stroke="midnightblue" d="M137.3,-168.08C140.41,-160.77 144.92,-150.18 148.79,-141.1"/>
<polygon fill="midnightblue" stroke="midnightblue" points="152.07,-142.32 152.77,-131.75 145.63,-139.58 152.07,-142.32"/>
</g>
<!-- Node5 -->
<g id="node5" class="node">
<title>Node5</title>
<g id="a_node5"><a xlink:href="Vec2_8hpp.html" target="_top" xlink:title="Contains jngl::Vec2 class.">
<polygon fill="white" stroke="black" points="107,-56.5 107,-75.5 172,-75.5 172,-56.5 107,-56.5"/>
<text text-anchor="middle" x="139.5" y="-63.5" font-family="'Consolas',monospace" font-size="10.00">Vec2.hpp</text>
</a>
</g>
</g>
<!-- Node4&#45;&gt;Node5 -->
<g id="edge4" class="edge">
<title>Node4&#45;&gt;Node5</title>
<path fill="none" stroke="midnightblue" d="M79.07,-112.32C89.92,-104.18 106.38,-91.84 119.38,-82.09"/>
<polygon fill="midnightblue" stroke="midnightblue" points="121.82,-84.63 127.72,-75.83 117.62,-79.03 121.82,-84.63"/>
</g>
<!-- Node6 -->
<g id="node6" class="node">
<title>Node6</title>
<g id="a_node6"><a xlink:title=" ">
<polygon fill="white" stroke="#bfbfbf" points="28,-0.5 28,-19.5 147,-19.5 147,-0.5 28,-0.5"/>
<text text-anchor="middle" x="87.5" y="-7.5" font-family="'Consolas',monospace" font-size="10.00">boost/version.hpp</text>
</a>
</g>
</g>
<!-- Node5&#45;&gt;Node6 -->
<g id="edge5" class="edge">
<title>Node5&#45;&gt;Node6</title>
<path fill="none" stroke="midnightblue" d="M130.91,-56.08C123.34,-48.22 112.12,-36.57 102.99,-27.08"/>
<polygon fill="midnightblue" stroke="midnightblue" points="105.38,-24.53 95.93,-19.75 100.34,-29.38 105.38,-24.53"/>
</g>
<!-- Node7 -->
<g id="node7" class="node">
<title>Node7</title>
<g id="a_node7"><a target="_parent" xlink:href="http://en.cppreference.com/w/cpp/header/iosfwd.html" xlink:title=" ">
<polygon fill="white" stroke="black" points="165,-0.5 165,-19.5 218,-19.5 218,-0.5 165,-0.5"/>
<text text-anchor="middle" x="191.5" y="-7.5" font-family="'Consolas',monospace" font-size="10.00">iosfwd</text>
</a>
</g>
</g>
<!-- Node5&#45;&gt;Node7 -->
<g id="edge6" class="edge">
<title>Node5&#45;&gt;Node7</title>
<path fill="none" stroke="midnightblue" d="M148.09,-56.08C155.66,-48.22 166.88,-36.57 176.01,-27.08"/>
<polygon fill="midnightblue" stroke="midnightblue" points="178.66,-29.38 183.07,-19.75 173.62,-24.53 178.66,-29.38"/>
</g>
<!-- Node9&#45;&gt;Node5 -->
<g id="edge9" class="edge">
<title>Node9&#45;&gt;Node5</title>
<path fill="none" stroke="midnightblue" d="M230.04,-168.45C223.05,-155.48 208.63,-130.38 192.5,-112 182.8,-100.94 170.32,-90.21 159.91,-82.01"/>
<polygon fill="midnightblue" stroke="midnightblue" points="161.82,-79.06 151.76,-75.76 157.56,-84.62 161.82,-79.06"/>
</g>
<!-- Node9&#45;&gt;Node8 -->
<g id="edge10" class="edge">
<title>Node9&#45;&gt;Node8</title>
<path fill="none" stroke="midnightblue" d="M221.97,-168.32C209.91,-159.98 191.47,-147.21 177.23,-137.35"/>
<polygon fill="midnightblue" stroke="midnightblue" points="179.22,-134.47 169,-131.65 175.23,-140.22 179.22,-134.47"/>
</g>
<!-- Node10 -->
<g id="node10" class="node">
<title>Node10</title>
<g id="a_node10"><a target="_parent" xlink:href="http://en.cppreference.com/w/cpp/header/set.html" xlink:title=" ">
<polygon fill="white" stroke="black" points="240,-112.5 240,-131.5 275,-131.5 275,-112.5 240,-112.5"/>
<text text-anchor="middle" x="257.5" y="-119.5" font-family="'Consolas',monospace" font-size="10.00">set</text>
</a>
</g>
</g>
<!-- Node9&#45;&gt;Node10 -->
<g id="edge11" class="edge">
<title>Node9&#45;&gt;Node10</title>
<path fill="none" stroke="midnightblue" d="M238.3,-168.08C241.41,-160.77 245.92,-150.18 249.79,-141.1"/>
<polygon fill="midnightblue" stroke="midnightblue" points="253.07,-142.32 253.77,-131.75 246.63,-139.58 253.07,-142.32"/>
</g>
<!-- Node11 -->
<g id="node11" class="node">
<title>Node11</title>
<g id="a_node11"><a target="_parent" xlink:href="http://en.cppreference.com/w/cpp/header/vector.html" xlink:title=" ">
<polygon fill="white" stroke="black" points="293,-112.5 293,-131.5 346,-131.5 346,-112.5 293,-112.5"/>
<text text-anchor="middle" x="319.5" y="-119.5" font-family="'Consolas',monospace" font-size="10.00">vector</text>
</a>
</g>
</g>
<!-- Node9&#45;&gt;Node11 -->
<g id="edge12" class="edge">
<title>Node9&#45;&gt;Node11</title>
<path fill="none" stroke="midnightblue" d="M248.16,-168.32C261.42,-159.9 281.77,-146.97 297.35,-137.07"/>
<polygon fill="midnightblue" stroke="midnightblue" points="299.31,-139.97 305.88,-131.65 295.56,-134.06 299.31,-139.97"/>
</g>
</g>
</svg>
