<?xml version="1.0" encoding="UTF-8" standalone="no"?>
<!DOCTYPE svg PUBLIC "-//W3C//DTD SVG 1.1//EN"
 "http://www.w3.org/Graphics/SVG/1.1/DTD/svg11.dtd">
<!-- Generated by graphviz version 5.0.0 (0)
 -->
<!-- Title: jngl/Label.hpp Pages: 1 -->
<svg width="586pt" height="247pt"
 viewBox="0.00 0.00 586.00 247.00" xmlns="http://www.w3.org/2000/svg" xmlns:xlink="http://www.w3.org/1999/xlink">
<g id="graph0" class="graph" transform="scale(1 1) rotate(0) translate(4 243)">
<title>jngl/Label.hpp</title>
<!-- Node1 -->
<g id="node1" class="node">
<title>Node1</title>
<g id="a_node1"><a xlink:title="Contains jngl::Label class.">
<polygon fill="#999999" stroke="#666666" points="326,-239 225,-239 225,-220 326,-220 326,-239"/>
<text text-anchor="middle" x="275.5" y="-227" font-family="ui-monospace,monospace" font-size="10.00">jngl/Label.hpp</text>
</a>
</g>
</g>
<!-- Node2 -->
<g id="node2" class="node">
<title>Node2</title>
<g id="a_node2"><a xlink:href="Color_8hpp.html" target="_top" xlink:title="Contains jngl::Color class.">
<polygon fill="white" stroke="#666666" points="128,-184 57,-184 57,-165 128,-165 128,-184"/>
<text text-anchor="middle" x="92.5" y="-172" font-family="ui-monospace,monospace" font-size="10.00">Color.hpp</text>
</a>
</g>
</g>
<!-- Node1&#45;&gt;Node2 -->
<g id="edge1" class="edge">
<title>Node1&#45;&gt;Node2</title>
<path fill="none" stroke="#63b8ff" d="M246.1,-219.98C215.11,-211.01 166.12,-196.82 131.83,-186.89"/>
<polygon fill="#63b8ff" stroke="#63b8ff" points="132.71,-183.5 122.13,-184.08 130.76,-190.23 132.71,-183.5"/>
</g>
<!-- Node5 -->
<g id="node5" class="node">
<title>Node5</title>
<g id="a_node5"><a xlink:href="TextLine_8hpp.html" target="_top" xlink:title="Contains jngl::TextLine class.">
<polygon fill="white" stroke="#666666" points="273,-184 184,-184 184,-165 273,-165 273,-184"/>
<text text-anchor="middle" x="228.5" y="-172" font-family="ui-monospace,monospace" font-size="10.00">TextLine.hpp</text>
</a>
</g>
</g>
<!-- Node1&#45;&gt;Node5 -->
<g id="edge4" class="edge">
<title>Node1&#45;&gt;Node5</title>
<path fill="none" stroke="#63b8ff" d="M267.74,-219.75C261.03,-212.18 251.16,-201.05 242.99,-191.84"/>
<polygon fill="#63b8ff" stroke="#63b8ff" points="245.37,-189.25 236.12,-184.09 240.13,-193.89 245.37,-189.25"/>
</g>
<!-- Node13 -->
<g id="node13" class="node">
<title>Node13</title>
<g id="a_node13"><a xlink:href="Widget_8hpp.html" target="_top" xlink:title="Contains jngl::Container class.">
<polygon fill="white" stroke="#666666" points="498,-184 421,-184 421,-165 498,-165 498,-184"/>
<text text-anchor="middle" x="459.5" y="-172" font-family="ui-monospace,monospace" font-size="10.00">Widget.hpp</text>
</a>
</g>
</g>
<!-- Node1&#45;&gt;Node13 -->
<g id="edge13" class="edge">
<title>Node1&#45;&gt;Node13</title>
<path fill="none" stroke="#63b8ff" d="M305.06,-219.98C336.22,-211.01 385.47,-196.82 419.96,-186.89"/>
<polygon fill="#63b8ff" stroke="#63b8ff" points="421.07,-190.21 429.71,-184.08 419.13,-183.49 421.07,-190.21"/>
</g>
<!-- Node16 -->
<g id="node16" class="node">
<title>Node16</title>
<g id="a_node16"><a xlink:href="text_8hpp.html" target="_top" xlink:title=" ">
<polygon fill="white" stroke="#666666" points="356,-184 291,-184 291,-165 356,-165 356,-184"/>
<text text-anchor="middle" x="323.5" y="-172" font-family="ui-monospace,monospace" font-size="10.00">text.hpp</text>
</a>
</g>
</g>
<!-- Node1&#45;&gt;Node16 -->
<g id="edge18" class="edge">
<title>Node1&#45;&gt;Node16</title>
<path fill="none" stroke="#63b8ff" d="M283.43,-219.75C290.35,-212.11 300.57,-200.82 308.95,-191.56"/>
<polygon fill="#63b8ff" stroke="#63b8ff" points="311.6,-193.85 315.72,-184.09 306.41,-189.15 311.6,-193.85"/>
</g>
<!-- Node3 -->
<g id="node3" class="node">
<title>Node3</title>
<g id="a_node3"><a xlink:href="Rgb_8hpp.html" target="_top" xlink:title="Contains jngl::Rgb class.">
<polygon fill="white" stroke="#666666" points="71,-129 12,-129 12,-110 71,-110 71,-129"/>
<text text-anchor="middle" x="41.5" y="-117" font-family="ui-monospace,monospace" font-size="10.00">Rgb.hpp</text>
</a>
</g>
</g>
<!-- Node2&#45;&gt;Node3 -->
<g id="edge2" class="edge">
<title>Node2&#45;&gt;Node3</title>
<path fill="none" stroke="#63b8ff" d="M84.08,-164.75C76.73,-157.11 65.87,-145.82 56.96,-136.56"/>
<polygon fill="#63b8ff" stroke="#63b8ff" points="59.22,-133.87 49.76,-129.09 54.18,-138.72 59.22,-133.87"/>
</g>
<!-- Node4 -->
<g id="node4" class="node">
<title>Node4</title>
<g id="a_node4"><a target="_parent" xlink:href="http://en.cppreference.com/w/cpp/header/cstdint.html" xlink:title=" ">
<polygon fill="white" stroke="#666666" points="59,-74 0,-74 0,-55 59,-55 59,-74"/>
<text text-anchor="middle" x="29.5" y="-62" font-family="ui-monospace,monospace" font-size="10.00">cstdint</text>
</a>
</g>
</g>
<!-- Node3&#45;&gt;Node4 -->
<g id="edge3" class="edge">
<title>Node3&#45;&gt;Node4</title>
<path fill="none" stroke="#63b8ff" d="M39.52,-109.75C37.93,-102.72 35.64,-92.62 33.65,-83.84"/>
<polygon fill="#63b8ff" stroke="#63b8ff" points="37.07,-83.07 31.44,-74.09 30.24,-84.62 37.07,-83.07"/>
</g>
<!-- Node6 -->
<g id="node6" class="node">
<title>Node6</title>
<g id="a_node6"><a xlink:href="Drawable_8hpp.html" target="_top" xlink:title="Contains jngl::Drawable class.">
<polygon fill="white" stroke="#666666" points="273,-129 184,-129 184,-110 273,-110 273,-129"/>
<text text-anchor="middle" x="228.5" y="-117" font-family="ui-monospace,monospace" font-size="10.00">Drawable.hpp</text>
</a>
</g>
</g>
<!-- Node5&#45;&gt;Node6 -->
<g id="edge5" class="edge">
<title>Node5&#45;&gt;Node6</title>
<path fill="none" stroke="#63b8ff" d="M228.5,-164.75C228.5,-157.8 228.5,-147.85 228.5,-139.13"/>
<polygon fill="#63b8ff" stroke="#63b8ff" points="232,-139.09 228.5,-129.09 225,-139.09 232,-139.09"/>
</g>
<!-- Node10 -->
<g id="node10" class="node">
<title>Node10</title>
<g id="a_node10"><a xlink:href="Mat3_8hpp.html" target="_top" xlink:title="Contains jngl::Mat3 class.">
<polygon fill="white" stroke="#666666" points="166,-129 101,-129 101,-110 166,-110 166,-129"/>
<text text-anchor="middle" x="133.5" y="-117" font-family="ui-monospace,monospace" font-size="10.00">Mat3.hpp</text>
</a>
</g>
</g>
<!-- Node5&#45;&gt;Node10 -->
<g id="edge9" class="edge">
<title>Node5&#45;&gt;Node10</title>
<path fill="none" stroke="#63b8ff" d="M213.24,-164.98C198.37,-156.69 175.52,-143.94 158.08,-134.22"/>
<polygon fill="#63b8ff" stroke="#63b8ff" points="159.48,-130.99 149.04,-129.17 156.07,-137.1 159.48,-130.99"/>
</g>
<!-- Node12 -->
<g id="node12" class="node">
<title>Node12</title>
<g id="a_node12"><a target="_parent" xlink:href="http://en.cppreference.com/w/cpp/header/memory.html" xlink:title=" ">
<polygon fill="white" stroke="#666666" points="415,-129 362,-129 362,-110 415,-110 415,-129"/>
<text text-anchor="middle" x="388.5" y="-117" font-family="ui-monospace,monospace" font-size="10.00">memory</text>
</a>
</g>
</g>
<!-- Node5&#45;&gt;Node12 -->
<g id="edge12" class="edge">
<title>Node5&#45;&gt;Node12</title>
<path fill="none" stroke="#63b8ff" d="M254.21,-164.98C280.95,-156.13 323.03,-142.19 352.95,-132.28"/>
<polygon fill="#63b8ff" stroke="#63b8ff" points="354.2,-135.55 362.59,-129.08 352,-128.9 354.2,-135.55"/>
</g>
<!-- Node7 -->
<g id="node7" class="node">
<title>Node7</title>
<g id="a_node7"><a xlink:href="Vec2_8hpp.html" target="_top" xlink:title="Contains jngl::Vec2 class.">
<polygon fill="white" stroke="#666666" points="335,-74 270,-74 270,-55 335,-55 335,-74"/>
<text text-anchor="middle" x="302.5" y="-62" font-family="ui-monospace,monospace" font-size="10.00">Vec2.hpp</text>
</a>
</g>
</g>
<!-- Node6&#45;&gt;Node7 -->
<g id="edge6" class="edge">
<title>Node6&#45;&gt;Node7</title>
<path fill="none" stroke="#63b8ff" d="M240.39,-109.98C251.65,-101.92 268.79,-89.65 282.21,-80.03"/>
<polygon fill="#63b8ff" stroke="#63b8ff" points="284.3,-82.84 290.39,-74.17 280.23,-77.15 284.3,-82.84"/>
</g>
<!-- Node8 -->
<g id="node8" class="node">
<title>Node8</title>
<g id="a_node8"><a xlink:title=" ">
<polygon fill="#e0e0e0" stroke="#999999" points="281,-19 156,-19 156,0 281,0 281,-19"/>
<text text-anchor="middle" x="218.5" y="-7" font-family="ui-monospace,monospace" font-size="10.00">boost/qvm_lite.hpp</text>
</a>
</g>
</g>
<!-- Node7&#45;&gt;Node8 -->
<g id="edge7" class="edge">
<title>Node7&#45;&gt;Node8</title>
<path fill="none" stroke="#63b8ff" d="M289,-54.98C276.1,-46.84 256.4,-34.41 241.1,-24.76"/>
<polygon fill="#63b8ff" stroke="#63b8ff" points="242.57,-21.55 232.24,-19.17 238.83,-27.47 242.57,-21.55"/>
</g>
<!-- Node9 -->
<g id="node9" class="node">
<title>Node9</title>
<g id="a_node9"><a target="_parent" xlink:href="http://en.cppreference.com/w/cpp/header/iosfwd.html" xlink:title=" ">
<polygon fill="white" stroke="#666666" points="352,-19 299,-19 299,0 352,0 352,-19"/>
<text text-anchor="middle" x="325.5" y="-7" font-family="ui-monospace,monospace" font-size="10.00">iosfwd</text>
</a>
</g>
</g>
<!-- Node7&#45;&gt;Node9 -->
<g id="edge8" class="edge">
<title>Node7&#45;&gt;Node9</title>
<path fill="none" stroke="#63b8ff" d="M306.3,-54.75C309.41,-47.57 313.92,-37.18 317.79,-28.27"/>
<polygon fill="#63b8ff" stroke="#63b8ff" points="321,-29.66 321.77,-19.09 314.58,-26.87 321,-29.66"/>
</g>
<!-- Node10&#45;&gt;Node8 -->
<g id="edge10" class="edge">
<title>Node10&#45;&gt;Node8</title>
<path fill="none" stroke="#63b8ff" d="M152.31,-109.95C166.87,-102.43 186.53,-90.15 198.5,-74 208.29,-60.8 213.37,-42.67 215.96,-29.16"/>
<polygon fill="#63b8ff" stroke="#63b8ff" points="219.44,-29.55 217.59,-19.11 212.53,-28.42 219.44,-29.55"/>
</g>
<!-- Node11 -->
<g id="node11" class="node">
<title>Node11</title>
<g id="a_node11"><a target="_parent" xlink:href="http://en.cppreference.com/w/cpp/header/initializer_list.html" xlink:title=" ">
<polygon fill="white" stroke="#666666" points="190,-74 77,-74 77,-55 190,-55 190,-74"/>
<text text-anchor="middle" x="133.5" y="-62" font-family="ui-monospace,monospace" font-size="10.00">initializer_list</text>
</a>
</g>
</g>
<!-- Node10&#45;&gt;Node11 -->
<g id="edge11" class="edge">
<title>Node10&#45;&gt;Node11</title>
<path fill="none" stroke="#63b8ff" d="M133.5,-109.75C133.5,-102.8 133.5,-92.85 133.5,-84.13"/>
<polygon fill="#63b8ff" stroke="#63b8ff" points="137,-84.09 133.5,-74.09 130,-84.09 137,-84.09"/>
</g>
<!-- Node13&#45;&gt;Node7 -->
<g id="edge14" class="edge">
<title>Node13&#45;&gt;Node7</title>
<path fill="none" stroke="#63b8ff" d="M470.64,-164.96C485.87,-152.26 509.78,-127.95 495.5,-110 477.07,-86.84 396.16,-74.71 345.13,-69.24"/>
<polygon fill="#63b8ff" stroke="#63b8ff" points="345.34,-65.75 335.04,-68.21 344.63,-72.71 345.34,-65.75"/>
</g>
<!-- Node13&#45;&gt;Node12 -->
<g id="edge15" class="edge">
<title>Node13&#45;&gt;Node12</title>
<path fill="none" stroke="#63b8ff" d="M448.09,-164.98C437.39,-157 421.16,-144.88 408.34,-135.31"/>
<polygon fill="#63b8ff" stroke="#63b8ff" points="410.22,-132.35 400.11,-129.17 406.03,-137.96 410.22,-132.35"/>
</g>
<!-- Node14 -->
<g id="node14" class="node">
<title>Node14</title>
<g id="a_node14"><a target="_parent" xlink:href="http://en.cppreference.com/w/cpp/header/set.html" xlink:title=" ">
<polygon fill="white" stroke="#666666" points="578,-129 543,-129 543,-110 578,-110 578,-129"/>
<text text-anchor="middle" x="560.5" y="-117" font-family="ui-monospace,monospace" font-size="10.00">set</text>
</a>
</g>
</g>
<!-- Node13&#45;&gt;Node14 -->
<g id="edge16" class="edge">
<title>Node13&#45;&gt;Node14</title>
<path fill="none" stroke="#63b8ff" d="M475.73,-164.98C491.68,-156.61 516.28,-143.7 534.88,-133.95"/>
<polygon fill="#63b8ff" stroke="#63b8ff" points="536.75,-136.92 543.98,-129.17 533.5,-130.72 536.75,-136.92"/>
</g>
<!-- Node15 -->
<g id="node15" class="node">
<title>Node15</title>
<g id="a_node15"><a target="_parent" xlink:href="http://en.cppreference.com/w/cpp/header/vector.html" xlink:title=" ">
<polygon fill="white" stroke="#666666" points="486,-129 433,-129 433,-110 486,-110 486,-129"/>
<text text-anchor="middle" x="459.5" y="-117" font-family="ui-monospace,monospace" font-size="10.00">vector</text>
</a>
</g>
</g>
<!-- Node13&#45;&gt;Node15 -->
<g id="edge17" class="edge">
<title>Node13&#45;&gt;Node15</title>
<path fill="none" stroke="#63b8ff" d="M459.5,-164.75C459.5,-157.8 459.5,-147.85 459.5,-139.13"/>
<polygon fill="#63b8ff" stroke="#63b8ff" points="463,-139.09 459.5,-129.09 456,-139.09 463,-139.09"/>
</g>
<!-- Node16&#45;&gt;Node6 -->
<g id="edge19" class="edge">
<title>Node16&#45;&gt;Node6</title>
<path fill="none" stroke="#63b8ff" d="M308.24,-164.98C293.37,-156.69 270.52,-143.94 253.08,-134.22"/>
<polygon fill="#63b8ff" stroke="#63b8ff" points="254.48,-130.99 244.04,-129.17 251.07,-137.1 254.48,-130.99"/>
</g>
<!-- Node16&#45;&gt;Node12 -->
<g id="edge20" class="edge">
<title>Node16&#45;&gt;Node12</title>
<path fill="none" stroke="#63b8ff" d="M333.94,-164.98C343.65,-157.07 358.32,-145.11 370,-135.58"/>
<polygon fill="#63b8ff" stroke="#63b8ff" points="372.33,-138.2 377.87,-129.17 367.9,-132.78 372.33,-138.2"/>
</g>
<!-- Node16&#45;&gt;Node15 -->
<g id="edge22" class="edge">
<title>Node16&#45;&gt;Node15</title>
<path fill="none" stroke="#63b8ff" d="M345.35,-164.98C367.62,-156.3 402.4,-142.75 427.72,-132.88"/>
<polygon fill="#63b8ff" stroke="#63b8ff" points="429.21,-136.06 437.25,-129.17 426.66,-129.54 429.21,-136.06"/>
</g>
<!-- Node17 -->
<g id="node17" class="node">
<title>Node17</title>
<g id="a_node17"><a target="_parent" xlink:href="http://en.cppreference.com/w/cpp/header/string.html" xlink:title=" ">
<polygon fill="white" stroke="#666666" points="344,-129 291,-129 291,-110 344,-110 344,-129"/>
<text text-anchor="middle" x="317.5" y="-117" font-family="ui-monospace,monospace" font-size="10.00">string</text>
</a>
</g>
</g>
<!-- Node16&#45;&gt;Node17 -->
<g id="edge21" class="edge">
<title>Node16&#45;&gt;Node17</title>
<path fill="none" stroke="#63b8ff" d="M322.51,-164.75C321.72,-157.8 320.6,-147.85 319.61,-139.13"/>
<polygon fill="#63b8ff" stroke="#63b8ff" points="323.08,-138.63 318.47,-129.09 316.12,-139.42 323.08,-138.63"/>
</g>
</g>
</svg>
