<?xml version="1.0" encoding="UTF-8" standalone="no"?>
<!DOCTYPE svg PUBLIC "-//W3C//DTD SVG 1.1//EN"
 "http://www.w3.org/Graphics/SVG/1.1/DTD/svg11.dtd">
<!-- Generated by graphviz version 2.42.4 (0)
 -->
<!-- Title: jngl/Label.hpp Pages: 1 -->
<svg width="420pt" height="252pt"
 viewBox="0.00 0.00 420.00 252.00" xmlns="http://www.w3.org/2000/svg" xmlns:xlink="http://www.w3.org/1999/xlink">
<g id="graph0" class="graph" transform="scale(1 1) rotate(0) translate(4 248)">
<title>jngl/Label.hpp</title>
<polygon fill="white" stroke="transparent" points="-4,4 -4,-248 416,-248 416,4 -4,4"/>
<!-- Node1 -->
<g id="node1" class="node">
<title>Node1</title>
<g id="a_node1"><a xlink:title="Contains jngl::Label class.">
<polygon fill="#bfbfbf" stroke="black" points="77,-224.5 77,-243.5 178,-243.5 178,-224.5 77,-224.5"/>
<text text-anchor="middle" x="127.5" y="-231.5" font-family="'Consolas',monospace" font-size="10.00">jngl/Label.hpp</text>
</a>
</g>
</g>
<!-- Node2 -->
<g id="node2" class="node">
<title>Node2</title>
<g id="a_node2"><a xlink:href="Color_8hpp.html" target="_top" xlink:title=" ">
<polygon fill="white" stroke="black" points="0,-168.5 0,-187.5 71,-187.5 71,-168.5 0,-168.5"/>
<text text-anchor="middle" x="35.5" y="-175.5" font-family="'Consolas',monospace" font-size="10.00">Color.hpp</text>
</a>
</g>
</g>
<!-- Node1&#45;&gt;Node2 -->
<g id="edge1" class="edge">
<title>Node1&#45;&gt;Node2</title>
<path fill="none" stroke="midnightblue" d="M112.72,-224.32C98.23,-215.82 75.93,-202.73 59.01,-192.8"/>
<polygon fill="midnightblue" stroke="midnightblue" points="60.64,-189.7 50.24,-187.65 57.1,-195.74 60.64,-189.7"/>
</g>
<!-- Node3 -->
<g id="node3" class="node">
<title>Node3</title>
<g id="a_node3"><a xlink:href="Widget_8hpp.html" target="_top" xlink:title="Contains jngl::Container class.">
<polygon fill="white" stroke="black" points="89,-168.5 89,-187.5 166,-187.5 166,-168.5 89,-168.5"/>
<text text-anchor="middle" x="127.5" y="-175.5" font-family="'Consolas',monospace" font-size="10.00">Widget.hpp</text>
</a>
</g>
</g>
<!-- Node1&#45;&gt;Node3 -->
<g id="edge2" class="edge">
<title>Node1&#45;&gt;Node3</title>
<path fill="none" stroke="midnightblue" d="M127.5,-224.08C127.5,-217.01 127.5,-206.86 127.5,-197.99"/>
<polygon fill="midnightblue" stroke="midnightblue" points="131,-197.75 127.5,-187.75 124,-197.75 131,-197.75"/>
</g>
<!-- Node10 -->
<g id="node10" class="node">
<title>Node10</title>
<g id="a_node10"><a xlink:href="text_8hpp.html" target="_top" xlink:title=" ">
<polygon fill="white" stroke="black" points="184,-168.5 184,-187.5 249,-187.5 249,-168.5 184,-168.5"/>
<text text-anchor="middle" x="216.5" y="-175.5" font-family="'Consolas',monospace" font-size="10.00">text.hpp</text>
</a>
</g>
</g>
<!-- Node1&#45;&gt;Node10 -->
<g id="edge9" class="edge">
<title>Node1&#45;&gt;Node10</title>
<path fill="none" stroke="midnightblue" d="M141.8,-224.32C155.68,-215.9 176.99,-202.97 193.3,-193.07"/>
<polygon fill="midnightblue" stroke="midnightblue" points="195.5,-195.83 202.24,-187.65 191.87,-189.85 195.5,-195.83"/>
</g>
<!-- Node4 -->
<g id="node4" class="node">
<title>Node4</title>
<g id="a_node4"><a xlink:href="Vec2_8hpp.html" target="_top" xlink:title=" ">
<polygon fill="white" stroke="black" points="130,-56.5 130,-75.5 195,-75.5 195,-56.5 130,-56.5"/>
<text text-anchor="middle" x="162.5" y="-63.5" font-family="'Consolas',monospace" font-size="10.00">Vec2.hpp</text>
</a>
</g>
</g>
<!-- Node3&#45;&gt;Node4 -->
<g id="edge3" class="edge">
<title>Node3&#45;&gt;Node4</title>
<path fill="none" stroke="midnightblue" d="M100.67,-168.43C71.26,-157.55 30.35,-137.13 47.5,-112 63.66,-88.32 94.33,-77.1 119.93,-71.78"/>
<polygon fill="midnightblue" stroke="midnightblue" points="120.61,-75.22 129.81,-69.96 119.34,-68.33 120.61,-75.22"/>
</g>
<!-- Node7 -->
<g id="node7" class="node">
<title>Node7</title>
<g id="a_node7"><a target="_parent" xlink:href="http://en.cppreference.com/w/cpp/header/memory.html" target="_top" xlink:title=" ">
<polygon fill="white" stroke="black" points="110,-112.5 110,-131.5 163,-131.5 163,-112.5 110,-112.5"/>
<text text-anchor="middle" x="136.5" y="-119.5" font-family="'Consolas',monospace" font-size="10.00">memory</text>
</a>
</g>
</g>
<!-- Node3&#45;&gt;Node7 -->
<g id="edge6" class="edge">
<title>Node3&#45;&gt;Node7</title>
<path fill="none" stroke="midnightblue" d="M128.99,-168.08C130.18,-160.93 131.89,-150.64 133.38,-141.69"/>
<polygon fill="midnightblue" stroke="midnightblue" points="136.85,-142.19 135.04,-131.75 129.95,-141.04 136.85,-142.19"/>
</g>
<!-- Node8 -->
<g id="node8" class="node">
<title>Node8</title>
<g id="a_node8"><a target="_parent" xlink:href="http://en.cppreference.com/w/cpp/header/set.html" target="_top" xlink:title=" ">
<polygon fill="white" stroke="black" points="57,-112.5 57,-131.5 92,-131.5 92,-112.5 57,-112.5"/>
<text text-anchor="middle" x="74.5" y="-119.5" font-family="'Consolas',monospace" font-size="10.00">set</text>
</a>
</g>
</g>
<!-- Node3&#45;&gt;Node8 -->
<g id="edge7" class="edge">
<title>Node3&#45;&gt;Node8</title>
<path fill="none" stroke="midnightblue" d="M118.75,-168.08C111.03,-160.22 99.6,-148.57 90.28,-139.08"/>
<polygon fill="midnightblue" stroke="midnightblue" points="92.59,-136.44 83.09,-131.75 87.6,-141.34 92.59,-136.44"/>
</g>
<!-- Node9 -->
<g id="node9" class="node">
<title>Node9</title>
<g id="a_node9"><a target="_parent" xlink:href="http://en.cppreference.com/w/cpp/header/vector.html" target="_top" xlink:title=" ">
<polygon fill="white" stroke="black" points="181,-112.5 181,-131.5 234,-131.5 234,-112.5 181,-112.5"/>
<text text-anchor="middle" x="207.5" y="-119.5" font-family="'Consolas',monospace" font-size="10.00">vector</text>
</a>
</g>
</g>
<!-- Node3&#45;&gt;Node9 -->
<g id="edge8" class="edge">
<title>Node3&#45;&gt;Node9</title>
<path fill="none" stroke="midnightblue" d="M140.35,-168.32C152.72,-159.98 171.63,-147.21 186.24,-137.35"/>
<polygon fill="midnightblue" stroke="midnightblue" points="188.35,-140.15 194.68,-131.65 184.43,-134.35 188.35,-140.15"/>
</g>
<!-- Node5 -->
<g id="node5" class="node">
<title>Node5</title>
<g id="a_node5"><a xlink:title=" ">
<polygon fill="white" stroke="#bfbfbf" points="51,-0.5 51,-19.5 170,-19.5 170,-0.5 51,-0.5"/>
<text text-anchor="middle" x="110.5" y="-7.5" font-family="'Consolas',monospace" font-size="10.00">boost/version.hpp</text>
</a>
</g>
</g>
<!-- Node4&#45;&gt;Node5 -->
<g id="edge4" class="edge">
<title>Node4&#45;&gt;Node5</title>
<path fill="none" stroke="midnightblue" d="M153.91,-56.08C146.34,-48.22 135.12,-36.57 125.99,-27.08"/>
<polygon fill="midnightblue" stroke="midnightblue" points="128.38,-24.53 118.93,-19.75 123.34,-29.38 128.38,-24.53"/>
</g>
<!-- Node6 -->
<g id="node6" class="node">
<title>Node6</title>
<g id="a_node6"><a target="_parent" xlink:href="http://en.cppreference.com/w/cpp/header/iosfwd.html" target="_top" xlink:title=" ">
<polygon fill="white" stroke="black" points="188,-0.5 188,-19.5 241,-19.5 241,-0.5 188,-0.5"/>
<text text-anchor="middle" x="214.5" y="-7.5" font-family="'Consolas',monospace" font-size="10.00">iosfwd</text>
</a>
</g>
</g>
<!-- Node4&#45;&gt;Node6 -->
<g id="edge5" class="edge">
<title>Node4&#45;&gt;Node6</title>
<path fill="none" stroke="midnightblue" d="M171.09,-56.08C178.66,-48.22 189.88,-36.57 199.01,-27.08"/>
<polygon fill="midnightblue" stroke="midnightblue" points="201.66,-29.38 206.07,-19.75 196.62,-24.53 201.66,-29.38"/>
</g>
<!-- Node10&#45;&gt;Node7 -->
<g id="edge12" class="edge">
<title>Node10&#45;&gt;Node7</title>
<path fill="none" stroke="midnightblue" d="M203.65,-168.32C191.28,-159.98 172.37,-147.21 157.76,-137.35"/>
<polygon fill="midnightblue" stroke="midnightblue" points="159.57,-134.35 149.32,-131.65 155.65,-140.15 159.57,-134.35"/>
</g>
<!-- Node10&#45;&gt;Node9 -->
<g id="edge14" class="edge">
<title>Node10&#45;&gt;Node9</title>
<path fill="none" stroke="midnightblue" d="M215.01,-168.08C213.82,-160.93 212.11,-150.64 210.62,-141.69"/>
<polygon fill="midnightblue" stroke="midnightblue" points="214.05,-141.04 208.96,-131.75 207.15,-142.19 214.05,-141.04"/>
</g>
<!-- Node11 -->
<g id="node11" class="node">
<title>Node11</title>
<g id="a_node11"><a xlink:href="Drawable_8hpp.html" target="_top" xlink:title="Contains jngl::Drawable class.">
<polygon fill="white" stroke="black" points="252,-112.5 252,-131.5 341,-131.5 341,-112.5 252,-112.5"/>
<text text-anchor="middle" x="296.5" y="-119.5" font-family="'Consolas',monospace" font-size="10.00">Drawable.hpp</text>
</a>
</g>
</g>
<!-- Node10&#45;&gt;Node11 -->
<g id="edge10" class="edge">
<title>Node10&#45;&gt;Node11</title>
<path fill="none" stroke="midnightblue" d="M229.35,-168.32C241.72,-159.98 260.63,-147.21 275.24,-137.35"/>
<polygon fill="midnightblue" stroke="midnightblue" points="277.35,-140.15 283.68,-131.65 273.43,-134.35 277.35,-140.15"/>
</g>
<!-- Node12 -->
<g id="node12" class="node">
<title>Node12</title>
<g id="a_node12"><a target="_parent" xlink:href="http://en.cppreference.com/w/cpp/header/string.html" target="_top" xlink:title=" ">
<polygon fill="white" stroke="black" points="359,-112.5 359,-131.5 412,-131.5 412,-112.5 359,-112.5"/>
<text text-anchor="middle" x="385.5" y="-119.5" font-family="'Consolas',monospace" font-size="10.00">string</text>
</a>
</g>
</g>
<!-- Node10&#45;&gt;Node12 -->
<g id="edge13" class="edge">
<title>Node10&#45;&gt;Node12</title>
<path fill="none" stroke="midnightblue" d="M243.28,-168.44C271.83,-159.32 317.23,-144.81 349.04,-134.65"/>
<polygon fill="midnightblue" stroke="midnightblue" points="350.39,-137.89 358.85,-131.52 348.26,-131.23 350.39,-137.89"/>
</g>
<!-- Node11&#45;&gt;Node4 -->
<g id="edge11" class="edge">
<title>Node11&#45;&gt;Node4</title>
<path fill="none" stroke="midnightblue" d="M275.27,-112.44C253.12,-103.52 218.18,-89.44 193.06,-79.32"/>
<polygon fill="midnightblue" stroke="midnightblue" points="194.22,-76.01 183.63,-75.52 191.6,-82.5 194.22,-76.01"/>
</g>
</g>
</svg>
