<?xml version="1.0" encoding="UTF-8" standalone="no"?>
<!DOCTYPE svg PUBLIC "-//W3C//DTD SVG 1.1//EN"
 "http://www.w3.org/Graphics/SVG/1.1/DTD/svg11.dtd">
<!-- Generated by graphviz version 9.0.0 (20230911.1827)
 -->
<!-- Title: jngl/Label.hpp Pages: 1 -->
<svg width="578pt" height="248pt"
 viewBox="0.00 0.00 578.00 248.25" xmlns="http://www.w3.org/2000/svg" xmlns:xlink="http://www.w3.org/1999/xlink">
<g id="graph0" class="graph" transform="scale(1 1) rotate(0) translate(4 244.25)">
<title>jngl/Label.hpp</title>
<!-- Node1 -->
<g id="Node000001" class="node">
<title>Node1</title>
<g id="a_Node000001"><a xlink:title="Contains jngl::Label class.">
<polygon fill="#999999" stroke="#666666" points="323,-240.25 223,-240.25 223,-221 323,-221 323,-240.25"/>
<text text-anchor="middle" x="273" y="-226.75" font-family="ui-monospace,monospace" font-size="10.00">jngl/Label.hpp</text>
</a>
</g>
</g>
<!-- Node2 -->
<g id="Node000002" class="node">
<title>Node2</title>
<g id="a_Node000002"><a xlink:href="Color_8hpp.html" target="_top" xlink:title="Contains jngl::Color class.">
<polygon fill="white" stroke="#666666" points="126,-185 56,-185 56,-165.75 126,-165.75 126,-185"/>
<text text-anchor="middle" x="91" y="-171.5" font-family="ui-monospace,monospace" font-size="10.00">Color.hpp</text>
</a>
</g>
</g>
<!-- Node1&#45;&gt;Node2 -->
<g id="edge1_Node000001_Node000002" class="edge">
<title>Node1&#45;&gt;Node2</title>
<g id="a_edge1_Node000001_Node000002"><a xlink:title=" ">
<path fill="none" stroke="#63b8ff" d="M242.13,-220.59C212.06,-211.79 166.14,-198.36 132.81,-188.61"/>
<polygon fill="#63b8ff" stroke="#63b8ff" points="134.06,-185.33 123.48,-185.88 132.09,-192.04 134.06,-185.33"/>
</a>
</g>
</g>
<!-- Node5 -->
<g id="Node000005" class="node">
<title>Node5</title>
<g id="a_Node000005"><a xlink:href="TextLine_8hpp.html" target="_top" xlink:title="Contains jngl::TextLine class.">
<polygon fill="white" stroke="#666666" points="270,-185 182,-185 182,-165.75 270,-165.75 270,-185"/>
<text text-anchor="middle" x="226" y="-171.5" font-family="ui-monospace,monospace" font-size="10.00">TextLine.hpp</text>
</a>
</g>
</g>
<!-- Node1&#45;&gt;Node5 -->
<g id="edge4_Node000001_Node000005" class="edge">
<title>Node1&#45;&gt;Node5</title>
<g id="a_edge4_Node000001_Node000005"><a xlink:title=" ">
<path fill="none" stroke="#63b8ff" d="M265.24,-220.83C258.81,-213.55 249.49,-202.98 241.54,-193.98"/>
<polygon fill="#63b8ff" stroke="#63b8ff" points="244.17,-191.68 234.93,-186.49 238.92,-196.31 244.17,-191.68"/>
</a>
</g>
</g>
<!-- Node13 -->
<g id="Node000013" class="node">
<title>Node13</title>
<g id="a_Node000013"><a xlink:href="Widget_8hpp.html" target="_top" xlink:title="Contains jngl::Container class.">
<polygon fill="white" stroke="#666666" points="492,-185 416,-185 416,-165.75 492,-165.75 492,-185"/>
<text text-anchor="middle" x="454" y="-171.5" font-family="ui-monospace,monospace" font-size="10.00">Widget.hpp</text>
</a>
</g>
</g>
<!-- Node1&#45;&gt;Node13 -->
<g id="edge13_Node000001_Node000013" class="edge">
<title>Node1&#45;&gt;Node13</title>
<g id="a_edge13_Node000001_Node000013"><a xlink:title=" ">
<path fill="none" stroke="#63b8ff" d="M303.7,-220.59C333.61,-211.79 379.28,-198.36 412.42,-188.61"/>
<polygon fill="#63b8ff" stroke="#63b8ff" points="413.09,-192.06 421.69,-185.88 411.11,-185.34 413.09,-192.06"/>
</a>
</g>
</g>
<!-- Node16 -->
<g id="Node000016" class="node">
<title>Node16</title>
<g id="a_Node000016"><a xlink:href="text_8hpp.html" target="_top" xlink:title=" ">
<polygon fill="white" stroke="#666666" points="352,-185 288,-185 288,-165.75 352,-165.75 352,-185"/>
<text text-anchor="middle" x="320" y="-171.5" font-family="ui-monospace,monospace" font-size="10.00">text.hpp</text>
</a>
</g>
</g>
<!-- Node1&#45;&gt;Node16 -->
<g id="edge18_Node000001_Node000016" class="edge">
<title>Node1&#45;&gt;Node16</title>
<g id="a_edge18_Node000001_Node000016"><a xlink:title=" ">
<path fill="none" stroke="#63b8ff" d="M280.76,-220.83C287.19,-213.55 296.51,-202.98 304.46,-193.98"/>
<polygon fill="#63b8ff" stroke="#63b8ff" points="307.08,-196.31 311.07,-186.49 301.83,-191.68 307.08,-196.31"/>
</a>
</g>
</g>
<!-- Node3 -->
<g id="Node000003" class="node">
<title>Node3</title>
<g id="a_Node000003"><a xlink:href="Rgb_8hpp.html" target="_top" xlink:title="Contains jngl::Rgb class.">
<polygon fill="white" stroke="#666666" points="70,-129.75 12,-129.75 12,-110.5 70,-110.5 70,-129.75"/>
<text text-anchor="middle" x="41" y="-116.25" font-family="ui-monospace,monospace" font-size="10.00">Rgb.hpp</text>
</a>
</g>
</g>
<!-- Node2&#45;&gt;Node3 -->
<g id="edge2_Node000002_Node000003" class="edge">
<title>Node2&#45;&gt;Node3</title>
<g id="a_edge2_Node000002_Node000003"><a xlink:title=" ">
<path fill="none" stroke="#63b8ff" d="M82.74,-165.58C75.84,-158.23 65.78,-147.51 57.26,-138.44"/>
<polygon fill="#63b8ff" stroke="#63b8ff" points="59.87,-136.11 50.47,-131.21 54.77,-140.9 59.87,-136.11"/>
</a>
</g>
</g>
<!-- Node4 -->
<g id="Node000004" class="node">
<title>Node4</title>
<g id="a_Node000004"><a target="_parent" xlink:href="http://en.cppreference.com/w/cpp/header/cstdint.html" xlink:title=" ">
<polygon fill="white" stroke="#666666" points="58,-74.5 0,-74.5 0,-55.25 58,-55.25 58,-74.5"/>
<text text-anchor="middle" x="29" y="-61" font-family="ui-monospace,monospace" font-size="10.00">cstdint</text>
</a>
</g>
</g>
<!-- Node3&#45;&gt;Node4 -->
<g id="edge3_Node000003_Node000004" class="edge">
<title>Node3&#45;&gt;Node4</title>
<g id="a_edge3_Node000003_Node000004"><a xlink:title=" ">
<path fill="none" stroke="#63b8ff" d="M39.02,-110.33C37.53,-103.74 35.44,-94.46 33.55,-86.07"/>
<polygon fill="#63b8ff" stroke="#63b8ff" points="36.97,-85.32 31.36,-76.34 30.14,-86.86 36.97,-85.32"/>
</a>
</g>
</g>
<!-- Node6 -->
<g id="Node000006" class="node">
<title>Node6</title>
<g id="a_Node000006"><a xlink:href="Drawable_8hpp.html" target="_top" xlink:title="Contains jngl::Drawable class.">
<polygon fill="white" stroke="#666666" points="270,-129.75 182,-129.75 182,-110.5 270,-110.5 270,-129.75"/>
<text text-anchor="middle" x="226" y="-116.25" font-family="ui-monospace,monospace" font-size="10.00">Drawable.hpp</text>
</a>
</g>
</g>
<!-- Node5&#45;&gt;Node6 -->
<g id="edge5_Node000005_Node000006" class="edge">
<title>Node5&#45;&gt;Node6</title>
<g id="a_edge5_Node000005_Node000006"><a xlink:title=" ">
<path fill="none" stroke="#63b8ff" d="M226,-165.58C226,-159.07 226,-149.92 226,-141.62"/>
<polygon fill="#63b8ff" stroke="#63b8ff" points="229.5,-141.62 226,-131.62 222.5,-141.62 229.5,-141.62"/>
</a>
</g>
</g>
<!-- Node10 -->
<g id="Node000010" class="node">
<title>Node10</title>
<g id="a_Node000010"><a xlink:href="Mat3_8hpp.html" target="_top" xlink:title="Contains jngl::Mat3 class.">
<polygon fill="white" stroke="#666666" points="164,-129.75 100,-129.75 100,-110.5 164,-110.5 164,-129.75"/>
<text text-anchor="middle" x="132" y="-116.25" font-family="ui-monospace,monospace" font-size="10.00">Mat3.hpp</text>
</a>
</g>
</g>
<!-- Node5&#45;&gt;Node10 -->
<g id="edge9_Node000005_Node000010" class="edge">
<title>Node5&#45;&gt;Node10</title>
<g id="a_edge9_Node000005_Node000010"><a xlink:title=" ">
<path fill="none" stroke="#63b8ff" d="M210.05,-165.34C195.74,-157.23 174.47,-145.18 157.75,-135.71"/>
<polygon fill="#63b8ff" stroke="#63b8ff" points="159.77,-132.83 149.34,-130.95 156.32,-138.92 159.77,-132.83"/>
</a>
</g>
</g>
<!-- Node12 -->
<g id="Node000012" class="node">
<title>Node12</title>
<g id="a_Node000012"><a target="_parent" xlink:href="http://en.cppreference.com/w/cpp/header/memory.html" xlink:title=" ">
<polygon fill="white" stroke="#666666" points="410,-129.75 358,-129.75 358,-110.5 410,-110.5 410,-129.75"/>
<text text-anchor="middle" x="384" y="-116.25" font-family="ui-monospace,monospace" font-size="10.00">memory</text>
</a>
</g>
</g>
<!-- Node5&#45;&gt;Node12 -->
<g id="edge12_Node000005_Node000012" class="edge">
<title>Node5&#45;&gt;Node12</title>
<g id="a_edge12_Node000005_Node000012"><a xlink:title=" ">
<path fill="none" stroke="#63b8ff" d="M252.8,-165.34C278.61,-156.64 317.86,-143.42 346.71,-133.69"/>
<polygon fill="#63b8ff" stroke="#63b8ff" points="347.8,-137.02 356.16,-130.51 345.56,-130.39 347.8,-137.02"/>
</a>
</g>
</g>
<!-- Node7 -->
<g id="Node000007" class="node">
<title>Node7</title>
<g id="a_Node000007"><a xlink:href="Vec2_8hpp.html" target="_top" xlink:title="Contains jngl::Vec2 class.">
<polygon fill="white" stroke="#666666" points="331,-74.5 267,-74.5 267,-55.25 331,-55.25 331,-74.5"/>
<text text-anchor="middle" x="299" y="-61" font-family="ui-monospace,monospace" font-size="10.00">Vec2.hpp</text>
</a>
</g>
</g>
<!-- Node6&#45;&gt;Node7 -->
<g id="edge6_Node000006_Node000007" class="edge">
<title>Node6&#45;&gt;Node7</title>
<g id="a_edge6_Node000006_Node000007"><a xlink:title=" ">
<path fill="none" stroke="#63b8ff" d="M238.38,-110.09C249.15,-102.24 264.97,-90.7 277.75,-81.37"/>
<polygon fill="#63b8ff" stroke="#63b8ff" points="279.56,-84.39 285.58,-75.67 275.44,-78.73 279.56,-84.39"/>
</a>
</g>
</g>
<!-- Node8 -->
<g id="Node000008" class="node">
<title>Node8</title>
<g id="a_Node000008"><a xlink:title=" ">
<polygon fill="#e0e0e0" stroke="#999999" points="278,-19.25 154,-19.25 154,0 278,0 278,-19.25"/>
<text text-anchor="middle" x="216" y="-5.75" font-family="ui-monospace,monospace" font-size="10.00">boost/qvm_lite.hpp</text>
</a>
</g>
</g>
<!-- Node7&#45;&gt;Node8 -->
<g id="edge7_Node000007_Node000008" class="edge">
<title>Node7&#45;&gt;Node8</title>
<g id="a_edge7_Node000007_Node000008"><a xlink:title=" ">
<path fill="none" stroke="#63b8ff" d="M284.92,-54.84C272.52,-46.89 254.21,-35.14 239.57,-25.75"/>
<polygon fill="#63b8ff" stroke="#63b8ff" points="241.73,-22.97 231.42,-20.52 237.95,-28.87 241.73,-22.97"/>
</a>
</g>
</g>
<!-- Node9 -->
<g id="Node000009" class="node">
<title>Node9</title>
<g id="a_Node000009"><a target="_parent" xlink:href="http://en.cppreference.com/w/cpp/header/iosfwd.html" xlink:title=" ">
<polygon fill="white" stroke="#666666" points="348,-19.25 296,-19.25 296,0 348,0 348,-19.25"/>
<text text-anchor="middle" x="322" y="-5.75" font-family="ui-monospace,monospace" font-size="10.00">iosfwd</text>
</a>
</g>
</g>
<!-- Node7&#45;&gt;Node9 -->
<g id="edge8_Node000007_Node000009" class="edge">
<title>Node7&#45;&gt;Node9</title>
<g id="a_edge8_Node000007_Node000009"><a xlink:title=" ">
<path fill="none" stroke="#63b8ff" d="M302.8,-55.08C305.74,-48.26 309.94,-38.56 313.65,-29.95"/>
<polygon fill="#63b8ff" stroke="#63b8ff" points="316.77,-31.57 317.52,-21 310.34,-28.79 316.77,-31.57"/>
</a>
</g>
</g>
<!-- Node10&#45;&gt;Node8 -->
<g id="edge10_Node000010_Node000008" class="edge">
<title>Node10&#45;&gt;Node8</title>
<g id="a_edge10_Node000010_Node000008"><a xlink:title=" ">
<path fill="none" stroke="#63b8ff" d="M151.78,-110.13C166.28,-102.56 185.4,-90.44 197,-74.5 206.29,-61.74 211.07,-44.44 213.51,-31.07"/>
<polygon fill="#63b8ff" stroke="#63b8ff" points="216.97,-31.62 214.99,-21.22 210.05,-30.59 216.97,-31.62"/>
</a>
</g>
</g>
<!-- Node11 -->
<g id="Node000011" class="node">
<title>Node11</title>
<g id="a_Node000011"><a target="_parent" xlink:href="http://en.cppreference.com/w/cpp/header/initializer_list.html" xlink:title=" ">
<polygon fill="white" stroke="#666666" points="188,-74.5 76,-74.5 76,-55.25 188,-55.25 188,-74.5"/>
<text text-anchor="middle" x="132" y="-61" font-family="ui-monospace,monospace" font-size="10.00">initializer_list</text>
</a>
</g>
</g>
<!-- Node10&#45;&gt;Node11 -->
<g id="edge11_Node000010_Node000011" class="edge">
<title>Node10&#45;&gt;Node11</title>
<g id="a_edge11_Node000010_Node000011"><a xlink:title=" ">
<path fill="none" stroke="#63b8ff" d="M132,-110.33C132,-103.82 132,-94.67 132,-86.37"/>
<polygon fill="#63b8ff" stroke="#63b8ff" points="135.5,-86.37 132,-76.37 128.5,-86.37 135.5,-86.37"/>
</a>
</g>
</g>
<!-- Node13&#45;&gt;Node7 -->
<g id="edge14_Node000013_Node000007" class="edge">
<title>Node13&#45;&gt;Node7</title>
<g id="a_edge14_Node000013_Node000007"><a xlink:title=" ">
<path fill="none" stroke="#63b8ff" d="M465.41,-165.33C480.34,-152.4 503.06,-128.24 489,-110.5 471.09,-87.89 392.98,-75.62 342.65,-69.93"/>
<polygon fill="#63b8ff" stroke="#63b8ff" points="343.26,-66.48 332.94,-68.88 342.51,-73.44 343.26,-66.48"/>
</a>
</g>
</g>
<!-- Node13&#45;&gt;Node12 -->
<g id="edge15_Node000013_Node000012" class="edge">
<title>Node13&#45;&gt;Node12</title>
<g id="a_edge15_Node000013_Node000012"><a xlink:title=" ">
<path fill="none" stroke="#63b8ff" d="M442.13,-165.34C431.91,-157.57 416.93,-146.17 404.74,-136.9"/>
<polygon fill="#63b8ff" stroke="#63b8ff" points="406.98,-134.21 396.9,-130.94 402.74,-139.78 406.98,-134.21"/>
</a>
</g>
</g>
<!-- Node14 -->
<g id="Node000014" class="node">
<title>Node14</title>
<g id="a_Node000014"><a target="_parent" xlink:href="http://en.cppreference.com/w/cpp/header/set.html" xlink:title=" ">
<polygon fill="white" stroke="#666666" points="570,-129.75 536,-129.75 536,-110.5 570,-110.5 570,-129.75"/>
<text text-anchor="middle" x="553" y="-116.25" font-family="ui-monospace,monospace" font-size="10.00">set</text>
</a>
</g>
</g>
<!-- Node13&#45;&gt;Node14 -->
<g id="edge16_Node000013_Node000014" class="edge">
<title>Node13&#45;&gt;Node14</title>
<g id="a_edge16_Node000013_Node000014"><a xlink:title=" ">
<path fill="none" stroke="#63b8ff" d="M470.79,-165.34C486.01,-157.16 508.7,-144.96 526.38,-135.44"/>
<polygon fill="#63b8ff" stroke="#63b8ff" points="527.64,-138.74 534.79,-130.92 524.33,-132.57 527.64,-138.74"/>
</a>
</g>
</g>
<!-- Node15 -->
<g id="Node000015" class="node">
<title>Node15</title>
<g id="a_Node000015"><a target="_parent" xlink:href="http://en.cppreference.com/w/cpp/header/vector.html" xlink:title=" ">
<polygon fill="white" stroke="#666666" points="480,-129.75 428,-129.75 428,-110.5 480,-110.5 480,-129.75"/>
<text text-anchor="middle" x="454" y="-116.25" font-family="ui-monospace,monospace" font-size="10.00">vector</text>
</a>
</g>
</g>
<!-- Node13&#45;&gt;Node15 -->
<g id="edge17_Node000013_Node000015" class="edge">
<title>Node13&#45;&gt;Node15</title>
<g id="a_edge17_Node000013_Node000015"><a xlink:title=" ">
<path fill="none" stroke="#63b8ff" d="M454,-165.58C454,-159.07 454,-149.92 454,-141.62"/>
<polygon fill="#63b8ff" stroke="#63b8ff" points="457.5,-141.62 454,-131.62 450.5,-141.62 457.5,-141.62"/>
</a>
</g>
</g>
<!-- Node16&#45;&gt;Node6 -->
<g id="edge19_Node000016_Node000006" class="edge">
<title>Node16&#45;&gt;Node6</title>
<g id="a_edge19_Node000016_Node000006"><a xlink:title=" ">
<path fill="none" stroke="#63b8ff" d="M304.05,-165.34C289.74,-157.23 268.47,-145.18 251.75,-135.71"/>
<polygon fill="#63b8ff" stroke="#63b8ff" points="253.77,-132.83 243.34,-130.95 250.32,-138.92 253.77,-132.83"/>
</a>
</g>
</g>
<!-- Node16&#45;&gt;Node12 -->
<g id="edge20_Node000016_Node000012" class="edge">
<title>Node16&#45;&gt;Node12</title>
<g id="a_edge20_Node000016_Node000012"><a xlink:title=" ">
<path fill="none" stroke="#63b8ff" d="M330.86,-165.34C340.11,-157.65 353.62,-146.4 364.71,-137.18"/>
<polygon fill="#63b8ff" stroke="#63b8ff" points="366.69,-140.08 372.14,-130.99 362.21,-134.7 366.69,-140.08"/>
</a>
</g>
</g>
<!-- Node16&#45;&gt;Node15 -->
<g id="edge22_Node000016_Node000015" class="edge">
<title>Node16&#45;&gt;Node15</title>
<g id="a_edge22_Node000016_Node000015"><a xlink:title=" ">
<path fill="none" stroke="#63b8ff" d="M342.73,-165.34C364.1,-156.85 396.34,-144.04 420.63,-134.39"/>
<polygon fill="#63b8ff" stroke="#63b8ff" points="421.75,-137.71 429.75,-130.76 419.16,-131.2 421.75,-137.71"/>
</a>
</g>
</g>
<!-- Node17 -->
<g id="Node000017" class="node">
<title>Node17</title>
<g id="a_Node000017"><a target="_parent" xlink:href="http://en.cppreference.com/w/cpp/header/string.html" xlink:title=" ">
<polygon fill="white" stroke="#666666" points="340,-129.75 288,-129.75 288,-110.5 340,-110.5 340,-129.75"/>
<text text-anchor="middle" x="314" y="-116.25" font-family="ui-monospace,monospace" font-size="10.00">string</text>
</a>
</g>
</g>
<!-- Node16&#45;&gt;Node17 -->
<g id="edge21_Node000016_Node000017" class="edge">
<title>Node16&#45;&gt;Node17</title>
<g id="a_edge21_Node000016_Node000017"><a xlink:title=" ">
<path fill="none" stroke="#63b8ff" d="M319.01,-165.58C318.27,-158.99 317.22,-149.71 316.28,-141.32"/>
<polygon fill="#63b8ff" stroke="#63b8ff" points="319.78,-141.16 315.18,-131.61 312.82,-141.94 319.78,-141.16"/>
</a>
</g>
</g>
</g>
</svg>
