<?xml version="1.0" encoding="UTF-8" standalone="no"?>
<!DOCTYPE svg PUBLIC "-//W3C//DTD SVG 1.1//EN"
 "http://www.w3.org/Graphics/SVG/1.1/DTD/svg11.dtd">
<!-- Generated by graphviz version 5.0.0 (0)
 -->
<!-- Title: jngl/Label.hpp Pages: 1 -->
<svg width="490pt" height="247pt"
 viewBox="0.00 0.00 490.00 247.00" xmlns="http://www.w3.org/2000/svg" xmlns:xlink="http://www.w3.org/1999/xlink">
<g id="graph0" class="graph" transform="scale(1 1) rotate(0) translate(4 243)">
<title>jngl/Label.hpp</title>
<!-- Node1 -->
<g id="node1" class="node">
<title>Node1</title>
<g id="a_node1"><a xlink:title="Contains jngl::Label class.">
<polygon fill="#999999" stroke="#666666" points="278,-239 177,-239 177,-220 278,-220 278,-239"/>
<text text-anchor="middle" x="227.5" y="-227" font-family="ui-monospace,monospace" font-size="10.00">jngl/Label.hpp</text>
</a>
</g>
</g>
<!-- Node2 -->
<g id="node2" class="node">
<title>Node2</title>
<g id="a_node2"><a xlink:href="Color_8hpp.html" target="_top" xlink:title="Contains jngl::Color class.">
<polygon fill="white" stroke="#666666" points="118,-184 47,-184 47,-165 118,-165 118,-184"/>
<text text-anchor="middle" x="82.5" y="-172" font-family="ui-monospace,monospace" font-size="10.00">Color.hpp</text>
</a>
</g>
</g>
<!-- Node1&#45;&gt;Node2 -->
<g id="edge1" class="edge">
<title>Node1&#45;&gt;Node2</title>
<path fill="none" stroke="#63b8ff" d="M204.2,-219.98C180.25,-211.23 142.72,-197.51 115.67,-187.62"/>
<polygon fill="#63b8ff" stroke="#63b8ff" points="116.81,-184.32 106.22,-184.17 114.41,-190.89 116.81,-184.32"/>
</g>
<!-- Node3 -->
<g id="node3" class="node">
<title>Node3</title>
<g id="a_node3"><a xlink:href="TextLine_8hpp.html" target="_top" xlink:title="Contains jngl::TextLine class.">
<polygon fill="white" stroke="#666666" points="225,-184 136,-184 136,-165 225,-165 225,-184"/>
<text text-anchor="middle" x="180.5" y="-172" font-family="ui-monospace,monospace" font-size="10.00">TextLine.hpp</text>
</a>
</g>
</g>
<!-- Node1&#45;&gt;Node3 -->
<g id="edge2" class="edge">
<title>Node1&#45;&gt;Node3</title>
<path fill="none" stroke="#63b8ff" d="M219.74,-219.75C213.03,-212.18 203.16,-201.05 194.99,-191.84"/>
<polygon fill="#63b8ff" stroke="#63b8ff" points="197.37,-189.25 188.12,-184.09 192.13,-193.89 197.37,-189.25"/>
</g>
<!-- Node11 -->
<g id="node11" class="node">
<title>Node11</title>
<g id="a_node11"><a xlink:href="Widget_8hpp.html" target="_top" xlink:title="Contains jngl::Container class.">
<polygon fill="white" stroke="#666666" points="426,-184 349,-184 349,-165 426,-165 426,-184"/>
<text text-anchor="middle" x="387.5" y="-172" font-family="ui-monospace,monospace" font-size="10.00">Widget.hpp</text>
</a>
</g>
</g>
<!-- Node1&#45;&gt;Node11 -->
<g id="edge11" class="edge">
<title>Node1&#45;&gt;Node11</title>
<path fill="none" stroke="#63b8ff" d="M253.21,-219.98C279.95,-211.13 322.03,-197.19 351.95,-187.28"/>
<polygon fill="#63b8ff" stroke="#63b8ff" points="353.2,-190.55 361.59,-184.08 351,-183.9 353.2,-190.55"/>
</g>
<!-- Node14 -->
<g id="node14" class="node">
<title>Node14</title>
<g id="a_node14"><a xlink:href="text_8hpp.html" target="_top" xlink:title=" ">
<polygon fill="white" stroke="#666666" points="308,-184 243,-184 243,-165 308,-165 308,-184"/>
<text text-anchor="middle" x="275.5" y="-172" font-family="ui-monospace,monospace" font-size="10.00">text.hpp</text>
</a>
</g>
</g>
<!-- Node1&#45;&gt;Node14 -->
<g id="edge16" class="edge">
<title>Node1&#45;&gt;Node14</title>
<path fill="none" stroke="#63b8ff" d="M235.43,-219.75C242.35,-212.11 252.57,-200.82 260.95,-191.56"/>
<polygon fill="#63b8ff" stroke="#63b8ff" points="263.6,-193.85 267.72,-184.09 258.41,-189.15 263.6,-193.85"/>
</g>
<!-- Node4 -->
<g id="node4" class="node">
<title>Node4</title>
<g id="a_node4"><a xlink:href="Drawable_8hpp.html" target="_top" xlink:title="Contains jngl::Drawable class.">
<polygon fill="white" stroke="#666666" points="201,-129 112,-129 112,-110 201,-110 201,-129"/>
<text text-anchor="middle" x="156.5" y="-117" font-family="ui-monospace,monospace" font-size="10.00">Drawable.hpp</text>
</a>
</g>
</g>
<!-- Node3&#45;&gt;Node4 -->
<g id="edge3" class="edge">
<title>Node3&#45;&gt;Node4</title>
<path fill="none" stroke="#63b8ff" d="M176.54,-164.75C173.29,-157.57 168.58,-147.18 164.55,-138.27"/>
<polygon fill="#63b8ff" stroke="#63b8ff" points="167.7,-136.75 160.39,-129.09 161.33,-139.64 167.7,-136.75"/>
</g>
<!-- Node8 -->
<g id="node8" class="node">
<title>Node8</title>
<g id="a_node8"><a xlink:href="Mat3_8hpp.html" target="_top" xlink:title="Contains jngl::Mat3 class.">
<polygon fill="white" stroke="#666666" points="94,-129 29,-129 29,-110 94,-110 94,-129"/>
<text text-anchor="middle" x="61.5" y="-117" font-family="ui-monospace,monospace" font-size="10.00">Mat3.hpp</text>
</a>
</g>
</g>
<!-- Node3&#45;&gt;Node8 -->
<g id="edge7" class="edge">
<title>Node3&#45;&gt;Node8</title>
<path fill="none" stroke="#63b8ff" d="M161.38,-164.98C142.15,-156.42 112.27,-143.11 90.19,-133.28"/>
<polygon fill="#63b8ff" stroke="#63b8ff" points="91.53,-130.04 80.97,-129.17 88.68,-136.44 91.53,-130.04"/>
</g>
<!-- Node10 -->
<g id="node10" class="node">
<title>Node10</title>
<g id="a_node10"><a target="_parent" xlink:href="http://en.cppreference.com/w/cpp/header/memory.html" xlink:title=" ">
<polygon fill="white" stroke="#666666" points="272,-129 219,-129 219,-110 272,-110 272,-129"/>
<text text-anchor="middle" x="245.5" y="-117" font-family="ui-monospace,monospace" font-size="10.00">memory</text>
</a>
</g>
</g>
<!-- Node3&#45;&gt;Node10 -->
<g id="edge10" class="edge">
<title>Node3&#45;&gt;Node10</title>
<path fill="none" stroke="#63b8ff" d="M190.94,-164.98C200.65,-157.07 215.32,-145.11 227,-135.58"/>
<polygon fill="#63b8ff" stroke="#63b8ff" points="229.33,-138.2 234.87,-129.17 224.9,-132.78 229.33,-138.2"/>
</g>
<!-- Node5 -->
<g id="node5" class="node">
<title>Node5</title>
<g id="a_node5"><a xlink:href="Vec2_8hpp.html" target="_top" xlink:title="Contains jngl::Vec2 class.">
<polygon fill="white" stroke="#666666" points="244,-74 179,-74 179,-55 244,-55 244,-74"/>
<text text-anchor="middle" x="211.5" y="-62" font-family="ui-monospace,monospace" font-size="10.00">Vec2.hpp</text>
</a>
</g>
</g>
<!-- Node4&#45;&gt;Node5 -->
<g id="edge4" class="edge">
<title>Node4&#45;&gt;Node5</title>
<path fill="none" stroke="#63b8ff" d="M165.58,-109.75C173.59,-102.03 185.46,-90.6 195.12,-81.28"/>
<polygon fill="#63b8ff" stroke="#63b8ff" points="197.81,-83.55 202.59,-74.09 192.96,-78.51 197.81,-83.55"/>
</g>
<!-- Node6 -->
<g id="node6" class="node">
<title>Node6</title>
<g id="a_node6"><a xlink:title=" ">
<polygon fill="#e0e0e0" stroke="#999999" points="125,-19 0,-19 0,0 125,0 125,-19"/>
<text text-anchor="middle" x="62.5" y="-7" font-family="ui-monospace,monospace" font-size="10.00">boost/qvm_lite.hpp</text>
</a>
</g>
</g>
<!-- Node5&#45;&gt;Node6 -->
<g id="edge5" class="edge">
<title>Node5&#45;&gt;Node6</title>
<path fill="none" stroke="#63b8ff" d="M187.56,-54.98C162.94,-46.23 124.38,-32.51 96.58,-22.62"/>
<polygon fill="#63b8ff" stroke="#63b8ff" points="97.47,-19.22 86.88,-19.17 95.12,-25.82 97.47,-19.22"/>
</g>
<!-- Node7 -->
<g id="node7" class="node">
<title>Node7</title>
<g id="a_node7"><a target="_parent" xlink:href="http://en.cppreference.com/w/cpp/header/iosfwd.html" xlink:title=" ">
<polygon fill="white" stroke="#666666" points="238,-19 185,-19 185,0 238,0 238,-19"/>
<text text-anchor="middle" x="211.5" y="-7" font-family="ui-monospace,monospace" font-size="10.00">iosfwd</text>
</a>
</g>
</g>
<!-- Node5&#45;&gt;Node7 -->
<g id="edge6" class="edge">
<title>Node5&#45;&gt;Node7</title>
<path fill="none" stroke="#63b8ff" d="M211.5,-54.75C211.5,-47.8 211.5,-37.85 211.5,-29.13"/>
<polygon fill="#63b8ff" stroke="#63b8ff" points="215,-29.09 211.5,-19.09 208,-29.09 215,-29.09"/>
</g>
<!-- Node8&#45;&gt;Node6 -->
<g id="edge8" class="edge">
<title>Node8&#45;&gt;Node6</title>
<path fill="none" stroke="#63b8ff" d="M54.69,-109.63C46.21,-97.52 33.45,-75.01 38.5,-55 40.91,-45.44 45.83,-35.7 50.59,-27.78"/>
<polygon fill="#63b8ff" stroke="#63b8ff" points="53.67,-29.46 56.13,-19.16 47.78,-25.68 53.67,-29.46"/>
</g>
<!-- Node9 -->
<g id="node9" class="node">
<title>Node9</title>
<g id="a_node9"><a target="_parent" xlink:href="http://en.cppreference.com/w/cpp/header/initializer_list.html" xlink:title=" ">
<polygon fill="white" stroke="#666666" points="161,-74 48,-74 48,-55 161,-55 161,-74"/>
<text text-anchor="middle" x="104.5" y="-62" font-family="ui-monospace,monospace" font-size="10.00">initializer_list</text>
</a>
</g>
</g>
<!-- Node8&#45;&gt;Node9 -->
<g id="edge9" class="edge">
<title>Node8&#45;&gt;Node9</title>
<path fill="none" stroke="#63b8ff" d="M68.6,-109.75C74.67,-102.26 83.59,-91.28 91.01,-82.13"/>
<polygon fill="#63b8ff" stroke="#63b8ff" points="93.95,-84.06 97.53,-74.09 88.51,-79.65 93.95,-84.06"/>
</g>
<!-- Node11&#45;&gt;Node5 -->
<g id="edge12" class="edge">
<title>Node11&#45;&gt;Node5</title>
<path fill="none" stroke="#63b8ff" d="M418.53,-164.97C451.8,-154.32 497.22,-134.49 476.5,-110 448.61,-77.04 322.52,-68.48 254.81,-66.26"/>
<polygon fill="#63b8ff" stroke="#63b8ff" points="254.56,-62.76 244.46,-65.96 254.36,-69.75 254.56,-62.76"/>
</g>
<!-- Node11&#45;&gt;Node10 -->
<g id="edge13" class="edge">
<title>Node11&#45;&gt;Node10</title>
<path fill="none" stroke="#63b8ff" d="M364.69,-164.98C341.33,-156.27 304.8,-142.63 278.33,-132.75"/>
<polygon fill="#63b8ff" stroke="#63b8ff" points="279.32,-129.39 268.73,-129.17 276.87,-135.95 279.32,-129.39"/>
</g>
<!-- Node12 -->
<g id="node12" class="node">
<title>Node12</title>
<g id="a_node12"><a target="_parent" xlink:href="http://en.cppreference.com/w/cpp/header/set.html" xlink:title=" ">
<polygon fill="white" stroke="#666666" points="467,-129 432,-129 432,-110 467,-110 467,-129"/>
<text text-anchor="middle" x="449.5" y="-117" font-family="ui-monospace,monospace" font-size="10.00">set</text>
</a>
</g>
</g>
<!-- Node11&#45;&gt;Node12 -->
<g id="edge14" class="edge">
<title>Node11&#45;&gt;Node12</title>
<path fill="none" stroke="#63b8ff" d="M397.46,-164.98C406.63,-157.15 420.44,-145.34 431.53,-135.86"/>
<polygon fill="#63b8ff" stroke="#63b8ff" points="434.03,-138.33 439.36,-129.17 429.48,-133.01 434.03,-138.33"/>
</g>
<!-- Node13 -->
<g id="node13" class="node">
<title>Node13</title>
<g id="a_node13"><a target="_parent" xlink:href="http://en.cppreference.com/w/cpp/header/vector.html" xlink:title=" ">
<polygon fill="white" stroke="#666666" points="414,-129 361,-129 361,-110 414,-110 414,-129"/>
<text text-anchor="middle" x="387.5" y="-117" font-family="ui-monospace,monospace" font-size="10.00">vector</text>
</a>
</g>
</g>
<!-- Node11&#45;&gt;Node13 -->
<g id="edge15" class="edge">
<title>Node11&#45;&gt;Node13</title>
<path fill="none" stroke="#63b8ff" d="M387.5,-164.75C387.5,-157.8 387.5,-147.85 387.5,-139.13"/>
<polygon fill="#63b8ff" stroke="#63b8ff" points="391,-139.09 387.5,-129.09 384,-139.09 391,-139.09"/>
</g>
<!-- Node14&#45;&gt;Node4 -->
<g id="edge17" class="edge">
<title>Node14&#45;&gt;Node4</title>
<path fill="none" stroke="#63b8ff" d="M256.38,-164.98C237.15,-156.42 207.27,-143.11 185.19,-133.28"/>
<polygon fill="#63b8ff" stroke="#63b8ff" points="186.53,-130.04 175.97,-129.17 183.68,-136.44 186.53,-130.04"/>
</g>
<!-- Node14&#45;&gt;Node10 -->
<g id="edge18" class="edge">
<title>Node14&#45;&gt;Node10</title>
<path fill="none" stroke="#63b8ff" d="M270.55,-164.75C266.44,-157.49 260.47,-146.95 255.4,-137.98"/>
<polygon fill="#63b8ff" stroke="#63b8ff" points="258.33,-136.07 250.36,-129.09 252.24,-139.52 258.33,-136.07"/>
</g>
<!-- Node14&#45;&gt;Node13 -->
<g id="edge20" class="edge">
<title>Node14&#45;&gt;Node13</title>
<path fill="none" stroke="#63b8ff" d="M293.49,-164.98C311.43,-156.5 339.22,-143.35 359.93,-133.54"/>
<polygon fill="#63b8ff" stroke="#63b8ff" points="361.64,-136.61 369.18,-129.17 358.64,-130.28 361.64,-136.61"/>
</g>
<!-- Node15 -->
<g id="node15" class="node">
<title>Node15</title>
<g id="a_node15"><a target="_parent" xlink:href="http://en.cppreference.com/w/cpp/header/string.html" xlink:title=" ">
<polygon fill="white" stroke="#666666" points="343,-129 290,-129 290,-110 343,-110 343,-129"/>
<text text-anchor="middle" x="316.5" y="-117" font-family="ui-monospace,monospace" font-size="10.00">string</text>
</a>
</g>
</g>
<!-- Node14&#45;&gt;Node15 -->
<g id="edge19" class="edge">
<title>Node14&#45;&gt;Node15</title>
<path fill="none" stroke="#63b8ff" d="M282.27,-164.75C288.06,-157.26 296.56,-146.28 303.64,-137.13"/>
<polygon fill="#63b8ff" stroke="#63b8ff" points="306.51,-139.14 309.86,-129.09 300.97,-134.86 306.51,-139.14"/>
</g>
</g>
</svg>
