<?xml version="1.0" encoding="UTF-8" standalone="no"?>
<!DOCTYPE svg PUBLIC "-//W3C//DTD SVG 1.1//EN"
 "http://www.w3.org/Graphics/SVG/1.1/DTD/svg11.dtd">
<!-- Generated by graphviz version 5.0.0 (0)
 -->
<!-- Title: jngl/Label.hpp Pages: 1 -->
<svg width="486pt" height="247pt"
 viewBox="0.00 0.00 486.00 247.00" xmlns="http://www.w3.org/2000/svg" xmlns:xlink="http://www.w3.org/1999/xlink">
<g id="graph0" class="graph" transform="scale(1 1) rotate(0) translate(4 243)">
<title>jngl/Label.hpp</title>
<!-- Node1 -->
<g id="node1" class="node">
<title>Node1</title>
<g id="a_node1"><a xlink:title="Contains jngl::Label class.">
<polygon fill="#999999" stroke="#666666" points="274,-239 173,-239 173,-220 274,-220 274,-239"/>
<text text-anchor="middle" x="223.5" y="-227" font-family="ui-monospace,monospace" font-size="10.00">jngl/Label.hpp</text>
</a>
</g>
</g>
<!-- Node2 -->
<g id="node2" class="node">
<title>Node2</title>
<g id="a_node2"><a xlink:href="Color_8hpp.html" target="_top" xlink:title="Contains jngl::Color class.">
<polygon fill="white" stroke="#666666" points="114,-184 43,-184 43,-165 114,-165 114,-184"/>
<text text-anchor="middle" x="78.5" y="-172" font-family="ui-monospace,monospace" font-size="10.00">Color.hpp</text>
</a>
</g>
</g>
<!-- Node1&#45;&gt;Node2 -->
<g id="edge1" class="edge">
<title>Node1&#45;&gt;Node2</title>
<path fill="none" stroke="#63b8ff" d="M200.2,-219.98C176.25,-211.23 138.72,-197.51 111.67,-187.62"/>
<polygon fill="#63b8ff" stroke="#63b8ff" points="112.81,-184.32 102.22,-184.17 110.41,-190.89 112.81,-184.32"/>
</g>
<!-- Node3 -->
<g id="node3" class="node">
<title>Node3</title>
<g id="a_node3"><a xlink:href="TextLine_8hpp.html" target="_top" xlink:title="Contains jngl::TextLine class.">
<polygon fill="white" stroke="#666666" points="221,-184 132,-184 132,-165 221,-165 221,-184"/>
<text text-anchor="middle" x="176.5" y="-172" font-family="ui-monospace,monospace" font-size="10.00">TextLine.hpp</text>
</a>
</g>
</g>
<!-- Node1&#45;&gt;Node3 -->
<g id="edge2" class="edge">
<title>Node1&#45;&gt;Node3</title>
<path fill="none" stroke="#63b8ff" d="M215.74,-219.75C209.03,-212.18 199.16,-201.05 190.99,-191.84"/>
<polygon fill="#63b8ff" stroke="#63b8ff" points="193.37,-189.25 184.12,-184.09 188.13,-193.89 193.37,-189.25"/>
</g>
<!-- Node11 -->
<g id="node11" class="node">
<title>Node11</title>
<g id="a_node11"><a xlink:href="Widget_8hpp.html" target="_top" xlink:title="Contains jngl::Container class.">
<polygon fill="white" stroke="#666666" points="422,-184 345,-184 345,-165 422,-165 422,-184"/>
<text text-anchor="middle" x="383.5" y="-172" font-family="ui-monospace,monospace" font-size="10.00">Widget.hpp</text>
</a>
</g>
</g>
<!-- Node1&#45;&gt;Node11 -->
<g id="edge11" class="edge">
<title>Node1&#45;&gt;Node11</title>
<path fill="none" stroke="#63b8ff" d="M249.21,-219.98C275.95,-211.13 318.03,-197.19 347.95,-187.28"/>
<polygon fill="#63b8ff" stroke="#63b8ff" points="349.2,-190.55 357.59,-184.08 347,-183.9 349.2,-190.55"/>
</g>
<!-- Node14 -->
<g id="node14" class="node">
<title>Node14</title>
<g id="a_node14"><a xlink:href="text_8hpp.html" target="_top" xlink:title=" ">
<polygon fill="white" stroke="#666666" points="304,-184 239,-184 239,-165 304,-165 304,-184"/>
<text text-anchor="middle" x="271.5" y="-172" font-family="ui-monospace,monospace" font-size="10.00">text.hpp</text>
</a>
</g>
</g>
<!-- Node1&#45;&gt;Node14 -->
<g id="edge16" class="edge">
<title>Node1&#45;&gt;Node14</title>
<path fill="none" stroke="#63b8ff" d="M231.43,-219.75C238.35,-212.11 248.57,-200.82 256.95,-191.56"/>
<polygon fill="#63b8ff" stroke="#63b8ff" points="259.6,-193.85 263.72,-184.09 254.41,-189.15 259.6,-193.85"/>
</g>
<!-- Node4 -->
<g id="node4" class="node">
<title>Node4</title>
<g id="a_node4"><a xlink:href="Drawable_8hpp.html" target="_top" xlink:title="Contains jngl::Drawable class.">
<polygon fill="white" stroke="#666666" points="197,-129 108,-129 108,-110 197,-110 197,-129"/>
<text text-anchor="middle" x="152.5" y="-117" font-family="ui-monospace,monospace" font-size="10.00">Drawable.hpp</text>
</a>
</g>
</g>
<!-- Node3&#45;&gt;Node4 -->
<g id="edge3" class="edge">
<title>Node3&#45;&gt;Node4</title>
<path fill="none" stroke="#63b8ff" d="M172.54,-164.75C169.29,-157.57 164.58,-147.18 160.55,-138.27"/>
<polygon fill="#63b8ff" stroke="#63b8ff" points="163.7,-136.75 156.39,-129.09 157.33,-139.64 163.7,-136.75"/>
</g>
<!-- Node8 -->
<g id="node8" class="node">
<title>Node8</title>
<g id="a_node8"><a xlink:href="Mat3_8hpp.html" target="_top" xlink:title="Contains jngl::Mat3 class.">
<polygon fill="white" stroke="#666666" points="90,-129 25,-129 25,-110 90,-110 90,-129"/>
<text text-anchor="middle" x="57.5" y="-117" font-family="ui-monospace,monospace" font-size="10.00">Mat3.hpp</text>
</a>
</g>
</g>
<!-- Node3&#45;&gt;Node8 -->
<g id="edge7" class="edge">
<title>Node3&#45;&gt;Node8</title>
<path fill="none" stroke="#63b8ff" d="M157.38,-164.98C138.15,-156.42 108.27,-143.11 86.19,-133.28"/>
<polygon fill="#63b8ff" stroke="#63b8ff" points="87.53,-130.04 76.97,-129.17 84.68,-136.44 87.53,-130.04"/>
</g>
<!-- Node10 -->
<g id="node10" class="node">
<title>Node10</title>
<g id="a_node10"><a target="_parent" xlink:href="http://en.cppreference.com/w/cpp/header/memory.html" xlink:title=" ">
<polygon fill="white" stroke="#666666" points="268,-129 215,-129 215,-110 268,-110 268,-129"/>
<text text-anchor="middle" x="241.5" y="-117" font-family="ui-monospace,monospace" font-size="10.00">memory</text>
</a>
</g>
</g>
<!-- Node3&#45;&gt;Node10 -->
<g id="edge10" class="edge">
<title>Node3&#45;&gt;Node10</title>
<path fill="none" stroke="#63b8ff" d="M186.94,-164.98C196.65,-157.07 211.32,-145.11 223,-135.58"/>
<polygon fill="#63b8ff" stroke="#63b8ff" points="225.33,-138.2 230.87,-129.17 220.9,-132.78 225.33,-138.2"/>
</g>
<!-- Node5 -->
<g id="node5" class="node">
<title>Node5</title>
<g id="a_node5"><a xlink:href="Vec2_8hpp.html" target="_top" xlink:title="Contains jngl::Vec2 class.">
<polygon fill="white" stroke="#666666" points="240,-74 175,-74 175,-55 240,-55 240,-74"/>
<text text-anchor="middle" x="207.5" y="-62" font-family="ui-monospace,monospace" font-size="10.00">Vec2.hpp</text>
</a>
</g>
</g>
<!-- Node4&#45;&gt;Node5 -->
<g id="edge4" class="edge">
<title>Node4&#45;&gt;Node5</title>
<path fill="none" stroke="#63b8ff" d="M161.58,-109.75C169.59,-102.03 181.46,-90.6 191.12,-81.28"/>
<polygon fill="#63b8ff" stroke="#63b8ff" points="193.81,-83.55 198.59,-74.09 188.96,-78.51 193.81,-83.55"/>
</g>
<!-- Node6 -->
<g id="node6" class="node">
<title>Node6</title>
<g id="a_node6"><a xlink:title=" ">
<polygon fill="#e0e0e0" stroke="#999999" points="119,-19 0,-19 0,0 119,0 119,-19"/>
<text text-anchor="middle" x="59.5" y="-7" font-family="ui-monospace,monospace" font-size="10.00">boost/version.hpp</text>
</a>
</g>
</g>
<!-- Node5&#45;&gt;Node6 -->
<g id="edge5" class="edge">
<title>Node5&#45;&gt;Node6</title>
<path fill="none" stroke="#63b8ff" d="M183.72,-54.98C159.27,-46.23 120.97,-32.51 93.35,-22.62"/>
<polygon fill="#63b8ff" stroke="#63b8ff" points="94.31,-19.25 83.71,-19.17 91.95,-25.84 94.31,-19.25"/>
</g>
<!-- Node7 -->
<g id="node7" class="node">
<title>Node7</title>
<g id="a_node7"><a target="_parent" xlink:href="http://en.cppreference.com/w/cpp/header/iosfwd.html" xlink:title=" ">
<polygon fill="white" stroke="#666666" points="234,-19 181,-19 181,0 234,0 234,-19"/>
<text text-anchor="middle" x="207.5" y="-7" font-family="ui-monospace,monospace" font-size="10.00">iosfwd</text>
</a>
</g>
</g>
<!-- Node5&#45;&gt;Node7 -->
<g id="edge6" class="edge">
<title>Node5&#45;&gt;Node7</title>
<path fill="none" stroke="#63b8ff" d="M207.5,-54.75C207.5,-47.8 207.5,-37.85 207.5,-29.13"/>
<polygon fill="#63b8ff" stroke="#63b8ff" points="211,-29.09 207.5,-19.09 204,-29.09 211,-29.09"/>
</g>
<!-- Node8&#45;&gt;Node6 -->
<g id="edge8" class="edge">
<title>Node8&#45;&gt;Node6</title>
<path fill="none" stroke="#63b8ff" d="M50.64,-109.62C42.11,-97.49 29.28,-74.96 34.5,-55 37.05,-45.26 42.25,-35.41 47.26,-27.46"/>
<polygon fill="#63b8ff" stroke="#63b8ff" points="50.19,-29.37 52.87,-19.12 44.39,-25.46 50.19,-29.37"/>
</g>
<!-- Node9 -->
<g id="node9" class="node">
<title>Node9</title>
<g id="a_node9"><a target="_parent" xlink:href="http://en.cppreference.com/w/cpp/header/initializer_list.html" xlink:title=" ">
<polygon fill="white" stroke="#666666" points="157,-74 44,-74 44,-55 157,-55 157,-74"/>
<text text-anchor="middle" x="100.5" y="-62" font-family="ui-monospace,monospace" font-size="10.00">initializer_list</text>
</a>
</g>
</g>
<!-- Node8&#45;&gt;Node9 -->
<g id="edge9" class="edge">
<title>Node8&#45;&gt;Node9</title>
<path fill="none" stroke="#63b8ff" d="M64.6,-109.75C70.67,-102.26 79.59,-91.28 87.01,-82.13"/>
<polygon fill="#63b8ff" stroke="#63b8ff" points="89.95,-84.06 93.53,-74.09 84.51,-79.65 89.95,-84.06"/>
</g>
<!-- Node11&#45;&gt;Node5 -->
<g id="edge12" class="edge">
<title>Node11&#45;&gt;Node5</title>
<path fill="none" stroke="#63b8ff" d="M414.53,-164.97C447.8,-154.32 493.22,-134.49 472.5,-110 444.61,-77.04 318.52,-68.48 250.81,-66.26"/>
<polygon fill="#63b8ff" stroke="#63b8ff" points="250.56,-62.76 240.46,-65.96 250.36,-69.75 250.56,-62.76"/>
</g>
<!-- Node11&#45;&gt;Node10 -->
<g id="edge13" class="edge">
<title>Node11&#45;&gt;Node10</title>
<path fill="none" stroke="#63b8ff" d="M360.69,-164.98C337.33,-156.27 300.8,-142.63 274.33,-132.75"/>
<polygon fill="#63b8ff" stroke="#63b8ff" points="275.32,-129.39 264.73,-129.17 272.87,-135.95 275.32,-129.39"/>
</g>
<!-- Node12 -->
<g id="node12" class="node">
<title>Node12</title>
<g id="a_node12"><a target="_parent" xlink:href="http://en.cppreference.com/w/cpp/header/set.html" xlink:title=" ">
<polygon fill="white" stroke="#666666" points="463,-129 428,-129 428,-110 463,-110 463,-129"/>
<text text-anchor="middle" x="445.5" y="-117" font-family="ui-monospace,monospace" font-size="10.00">set</text>
</a>
</g>
</g>
<!-- Node11&#45;&gt;Node12 -->
<g id="edge14" class="edge">
<title>Node11&#45;&gt;Node12</title>
<path fill="none" stroke="#63b8ff" d="M393.46,-164.98C402.63,-157.15 416.44,-145.34 427.53,-135.86"/>
<polygon fill="#63b8ff" stroke="#63b8ff" points="430.03,-138.33 435.36,-129.17 425.48,-133.01 430.03,-138.33"/>
</g>
<!-- Node13 -->
<g id="node13" class="node">
<title>Node13</title>
<g id="a_node13"><a target="_parent" xlink:href="http://en.cppreference.com/w/cpp/header/vector.html" xlink:title=" ">
<polygon fill="white" stroke="#666666" points="410,-129 357,-129 357,-110 410,-110 410,-129"/>
<text text-anchor="middle" x="383.5" y="-117" font-family="ui-monospace,monospace" font-size="10.00">vector</text>
</a>
</g>
</g>
<!-- Node11&#45;&gt;Node13 -->
<g id="edge15" class="edge">
<title>Node11&#45;&gt;Node13</title>
<path fill="none" stroke="#63b8ff" d="M383.5,-164.75C383.5,-157.8 383.5,-147.85 383.5,-139.13"/>
<polygon fill="#63b8ff" stroke="#63b8ff" points="387,-139.09 383.5,-129.09 380,-139.09 387,-139.09"/>
</g>
<!-- Node14&#45;&gt;Node4 -->
<g id="edge17" class="edge">
<title>Node14&#45;&gt;Node4</title>
<path fill="none" stroke="#63b8ff" d="M252.38,-164.98C233.15,-156.42 203.27,-143.11 181.19,-133.28"/>
<polygon fill="#63b8ff" stroke="#63b8ff" points="182.53,-130.04 171.97,-129.17 179.68,-136.44 182.53,-130.04"/>
</g>
<!-- Node14&#45;&gt;Node10 -->
<g id="edge18" class="edge">
<title>Node14&#45;&gt;Node10</title>
<path fill="none" stroke="#63b8ff" d="M266.55,-164.75C262.44,-157.49 256.47,-146.95 251.4,-137.98"/>
<polygon fill="#63b8ff" stroke="#63b8ff" points="254.33,-136.07 246.36,-129.09 248.24,-139.52 254.33,-136.07"/>
</g>
<!-- Node14&#45;&gt;Node13 -->
<g id="edge20" class="edge">
<title>Node14&#45;&gt;Node13</title>
<path fill="none" stroke="#63b8ff" d="M289.49,-164.98C307.43,-156.5 335.22,-143.35 355.93,-133.54"/>
<polygon fill="#63b8ff" stroke="#63b8ff" points="357.64,-136.61 365.18,-129.17 354.64,-130.28 357.64,-136.61"/>
</g>
<!-- Node15 -->
<g id="node15" class="node">
<title>Node15</title>
<g id="a_node15"><a target="_parent" xlink:href="http://en.cppreference.com/w/cpp/header/string.html" xlink:title=" ">
<polygon fill="white" stroke="#666666" points="339,-129 286,-129 286,-110 339,-110 339,-129"/>
<text text-anchor="middle" x="312.5" y="-117" font-family="ui-monospace,monospace" font-size="10.00">string</text>
</a>
</g>
</g>
<!-- Node14&#45;&gt;Node15 -->
<g id="edge19" class="edge">
<title>Node14&#45;&gt;Node15</title>
<path fill="none" stroke="#63b8ff" d="M278.27,-164.75C284.06,-157.26 292.56,-146.28 299.64,-137.13"/>
<polygon fill="#63b8ff" stroke="#63b8ff" points="302.51,-139.14 305.86,-129.09 296.97,-134.86 302.51,-139.14"/>
</g>
</g>
</svg>
