<?xml version="1.0" encoding="UTF-8" standalone="no"?>
<!DOCTYPE svg PUBLIC "-//W3C//DTD SVG 1.1//EN"
 "http://www.w3.org/Graphics/SVG/1.1/DTD/svg11.dtd">
<!-- Generated by graphviz version 2.44.0 (0)
 -->
<!-- Title: jngl/main.hpp Pages: 1 -->
<svg width="464pt" height="196pt"
 viewBox="0.00 0.00 464.00 196.00" xmlns="http://www.w3.org/2000/svg" xmlns:xlink="http://www.w3.org/1999/xlink">
<g id="graph0" class="graph" transform="scale(1 1) rotate(0) translate(4 192)">
<title>jngl/main.hpp</title>
<polygon fill="white" stroke="transparent" points="-4,4 -4,-192 460,-192 460,4 -4,4"/>
<!-- Node1 -->
<g id="node1" class="node">
<title>Node1</title>
<g id="a_node1"><a xlink:title="Defines macros for the main entry point.">
<polygon fill="#bfbfbf" stroke="black" points="151,-168.5 151,-187.5 246,-187.5 246,-168.5 151,-168.5"/>
<text text-anchor="middle" x="198.5" y="-175.5" font-family="'Consolas',monospace" font-size="10.00">jngl/main.hpp</text>
</a>
</g>
</g>
<!-- Node2 -->
<g id="node2" class="node">
<title>Node2</title>
<g id="a_node2"><a xlink:href="Finally_8hpp.html" target="_top" xlink:title="Contains jngl::Finally class.">
<polygon fill="white" stroke="black" points="30,-112.5 30,-131.5 113,-131.5 113,-112.5 30,-112.5"/>
<text text-anchor="middle" x="71.5" y="-119.5" font-family="'Consolas',monospace" font-size="10.00">Finally.hpp</text>
</a>
</g>
</g>
<!-- Node1&#45;&gt;Node2 -->
<g id="edge1" class="edge">
<title>Node1&#45;&gt;Node2</title>
<path fill="none" stroke="midnightblue" d="M178.38,-168.44C157.48,-159.56 124.57,-145.56 100.78,-135.45"/>
<polygon fill="midnightblue" stroke="midnightblue" points="102.1,-132.21 91.53,-131.52 99.36,-138.65 102.1,-132.21"/>
</g>
<!-- Node4 -->
<g id="node4" class="node">
<title>Node4</title>
<g id="a_node4"><a xlink:href="other_8hpp.html" target="_top" xlink:title="Miscellaneous functions.">
<polygon fill="white" stroke="black" points="163,-112.5 163,-131.5 234,-131.5 234,-112.5 163,-112.5"/>
<text text-anchor="middle" x="198.5" y="-119.5" font-family="'Consolas',monospace" font-size="10.00">other.hpp</text>
</a>
</g>
</g>
<!-- Node1&#45;&gt;Node4 -->
<g id="edge3" class="edge">
<title>Node1&#45;&gt;Node4</title>
<path fill="none" stroke="midnightblue" d="M198.5,-168.08C198.5,-161.01 198.5,-150.86 198.5,-141.99"/>
<polygon fill="midnightblue" stroke="midnightblue" points="202,-141.75 198.5,-131.75 195,-141.75 202,-141.75"/>
</g>
<!-- Node8 -->
<g id="node8" class="node">
<title>Node8</title>
<g id="a_node8"><a xlink:href="window_8hpp.html" target="_top" xlink:title="Functions related to the main window.">
<polygon fill="white" stroke="black" points="283,-112.5 283,-131.5 360,-131.5 360,-112.5 283,-112.5"/>
<text text-anchor="middle" x="321.5" y="-119.5" font-family="'Consolas',monospace" font-size="10.00">window.hpp</text>
</a>
</g>
</g>
<!-- Node1&#45;&gt;Node8 -->
<g id="edge7" class="edge">
<title>Node1&#45;&gt;Node8</title>
<path fill="none" stroke="midnightblue" d="M217.99,-168.44C238.14,-159.6 269.82,-145.69 292.83,-135.59"/>
<polygon fill="midnightblue" stroke="midnightblue" points="294.35,-138.74 302.1,-131.52 291.54,-132.33 294.35,-138.74"/>
</g>
<!-- Node3 -->
<g id="node3" class="node">
<title>Node3</title>
<g id="a_node3"><a target="_parent" xlink:href="http://en.cppreference.com/w/cpp/header/functional.html" xlink:title=" ">
<polygon fill="white" stroke="black" points="0,-56.5 0,-75.5 77,-75.5 77,-56.5 0,-56.5"/>
<text text-anchor="middle" x="38.5" y="-63.5" font-family="'Consolas',monospace" font-size="10.00">functional</text>
</a>
</g>
</g>
<!-- Node2&#45;&gt;Node3 -->
<g id="edge2" class="edge">
<title>Node2&#45;&gt;Node3</title>
<path fill="none" stroke="midnightblue" d="M66.05,-112.08C61.49,-104.61 54.83,-93.72 49.21,-84.52"/>
<polygon fill="midnightblue" stroke="midnightblue" points="52.05,-82.46 43.85,-75.75 46.08,-86.11 52.05,-82.46"/>
</g>
<!-- Node5 -->
<g id="node5" class="node">
<title>Node5</title>
<g id="a_node5"><a target="_parent" xlink:href="http://en.cppreference.com/w/cpp/header/sstream.html" xlink:title=" ">
<polygon fill="white" stroke="black" points="95,-56.5 95,-75.5 154,-75.5 154,-56.5 95,-56.5"/>
<text text-anchor="middle" x="124.5" y="-63.5" font-family="'Consolas',monospace" font-size="10.00">sstream</text>
</a>
</g>
</g>
<!-- Node4&#45;&gt;Node5 -->
<g id="edge4" class="edge">
<title>Node4&#45;&gt;Node5</title>
<path fill="none" stroke="midnightblue" d="M186.61,-112.32C175.35,-104.11 158.21,-91.6 144.79,-81.81"/>
<polygon fill="midnightblue" stroke="midnightblue" points="146.75,-78.9 136.61,-75.83 142.62,-84.56 146.75,-78.9"/>
</g>
<!-- Node6 -->
<g id="node6" class="node">
<title>Node6</title>
<g id="a_node6"><a target="_parent" xlink:href="http://en.cppreference.com/w/cpp/header/string.html" xlink:title=" ">
<polygon fill="white" stroke="black" points="243,-56.5 243,-75.5 296,-75.5 296,-56.5 243,-56.5"/>
<text text-anchor="middle" x="269.5" y="-63.5" font-family="'Consolas',monospace" font-size="10.00">string</text>
</a>
</g>
</g>
<!-- Node4&#45;&gt;Node6 -->
<g id="edge5" class="edge">
<title>Node4&#45;&gt;Node6</title>
<path fill="none" stroke="midnightblue" d="M209.91,-112.32C220.61,-104.18 236.84,-91.84 249.66,-82.09"/>
<polygon fill="midnightblue" stroke="midnightblue" points="252.04,-84.67 257.89,-75.83 247.81,-79.1 252.04,-84.67"/>
</g>
<!-- Node7 -->
<g id="node7" class="node">
<title>Node7</title>
<g id="a_node7"><a target="_parent" xlink:href="http://en.cppreference.com/w/cpp/header/vector.html" xlink:title=" ">
<polygon fill="white" stroke="black" points="172,-56.5 172,-75.5 225,-75.5 225,-56.5 172,-56.5"/>
<text text-anchor="middle" x="198.5" y="-63.5" font-family="'Consolas',monospace" font-size="10.00">vector</text>
</a>
</g>
</g>
<!-- Node4&#45;&gt;Node7 -->
<g id="edge6" class="edge">
<title>Node4&#45;&gt;Node7</title>
<path fill="none" stroke="midnightblue" d="M198.5,-112.08C198.5,-105.01 198.5,-94.86 198.5,-85.99"/>
<polygon fill="midnightblue" stroke="midnightblue" points="202,-85.75 198.5,-75.75 195,-85.75 202,-85.75"/>
</g>
<!-- Node8&#45;&gt;Node6 -->
<g id="edge11" class="edge">
<title>Node8&#45;&gt;Node6</title>
<path fill="none" stroke="midnightblue" d="M312.91,-112.08C305.34,-104.22 294.12,-92.57 284.99,-83.08"/>
<polygon fill="midnightblue" stroke="midnightblue" points="287.38,-80.53 277.93,-75.75 282.34,-85.38 287.38,-80.53"/>
</g>
<!-- Node9 -->
<g id="node9" class="node">
<title>Node9</title>
<g id="a_node9"><a xlink:href="Pixels_8hpp.html" target="_top" xlink:title="Contains jngl::Pixels class.">
<polygon fill="white" stroke="black" points="314,-56.5 314,-75.5 391,-75.5 391,-56.5 314,-56.5"/>
<text text-anchor="middle" x="352.5" y="-63.5" font-family="'Consolas',monospace" font-size="10.00">Pixels.hpp</text>
</a>
</g>
</g>
<!-- Node8&#45;&gt;Node9 -->
<g id="edge8" class="edge">
<title>Node8&#45;&gt;Node9</title>
<path fill="none" stroke="midnightblue" d="M326.62,-112.08C330.91,-104.61 337.16,-93.72 342.44,-84.52"/>
<polygon fill="midnightblue" stroke="midnightblue" points="345.53,-86.17 347.48,-75.75 339.46,-82.68 345.53,-86.17"/>
</g>
<!-- Node11 -->
<g id="node11" class="node">
<title>Node11</title>
<g id="a_node11"><a target="_parent" xlink:href="http://en.cppreference.com/w/cpp/header/array.html" xlink:title=" ">
<polygon fill="white" stroke="black" points="409,-56.5 409,-75.5 456,-75.5 456,-56.5 409,-56.5"/>
<text text-anchor="middle" x="432.5" y="-63.5" font-family="'Consolas',monospace" font-size="10.00">array</text>
</a>
</g>
</g>
<!-- Node8&#45;&gt;Node11 -->
<g id="edge10" class="edge">
<title>Node8&#45;&gt;Node11</title>
<path fill="none" stroke="midnightblue" d="M339.33,-112.32C357.22,-103.62 384.98,-90.12 405.55,-80.11"/>
<polygon fill="midnightblue" stroke="midnightblue" points="407.25,-83.18 414.71,-75.65 404.19,-76.88 407.25,-83.18"/>
</g>
<!-- Node10 -->
<g id="node10" class="node">
<title>Node10</title>
<g id="a_node10"><a target="_parent" xlink:href="http://en.cppreference.com/w/cpp/header/cstdint.html" xlink:title=" ">
<polygon fill="white" stroke="black" points="323,-0.5 323,-19.5 382,-19.5 382,-0.5 323,-0.5"/>
<text text-anchor="middle" x="352.5" y="-7.5" font-family="'Consolas',monospace" font-size="10.00">cstdint</text>
</a>
</g>
</g>
<!-- Node9&#45;&gt;Node10 -->
<g id="edge9" class="edge">
<title>Node9&#45;&gt;Node10</title>
<path fill="none" stroke="midnightblue" d="M352.5,-56.08C352.5,-49.01 352.5,-38.86 352.5,-29.99"/>
<polygon fill="midnightblue" stroke="midnightblue" points="356,-29.75 352.5,-19.75 349,-29.75 356,-29.75"/>
</g>
</g>
</svg>
