<?xml version="1.0" encoding="UTF-8" standalone="no"?>
<!DOCTYPE svg PUBLIC "-//W3C//DTD SVG 1.1//EN"
 "http://www.w3.org/Graphics/SVG/1.1/DTD/svg11.dtd">
<!-- Generated by graphviz version 5.0.0 (0)
 -->
<!-- Title: jngl/main.hpp Pages: 1 -->
<svg width="464pt" height="192pt"
 viewBox="0.00 0.00 464.00 192.00" xmlns="http://www.w3.org/2000/svg" xmlns:xlink="http://www.w3.org/1999/xlink">
<g id="graph0" class="graph" transform="scale(1 1) rotate(0) translate(4 188)">
<title>jngl/main.hpp</title>
<!-- Node1 -->
<g id="node1" class="node">
<title>Node1</title>
<g id="a_node1"><a xlink:title="Defines macros for the main entry point.">
<polygon fill="#999999" stroke="#666666" points="235,-184 140,-184 140,-165 235,-165 235,-184"/>
<text text-anchor="middle" x="187.5" y="-172" font-family="ui-monospace,monospace" font-size="10.00">jngl/main.hpp</text>
</a>
</g>
</g>
<!-- Node2 -->
<g id="node2" class="node">
<title>Node2</title>
<g id="a_node2"><a xlink:href="Finally_8hpp.html" target="_top" xlink:title="Contains jngl::Finally class.">
<polygon fill="white" stroke="#666666" points="112,-129 29,-129 29,-110 112,-110 112,-129"/>
<text text-anchor="middle" x="70.5" y="-117" font-family="ui-monospace,monospace" font-size="10.00">Finally.hpp</text>
</a>
</g>
</g>
<!-- Node1&#45;&gt;Node2 -->
<g id="edge1" class="edge">
<title>Node1&#45;&gt;Node2</title>
<path fill="none" stroke="#63b8ff" d="M168.7,-164.98C149.88,-156.46 120.68,-143.23 99,-133.41"/>
<polygon fill="#63b8ff" stroke="#63b8ff" points="100.19,-130.11 89.64,-129.17 97.3,-136.48 100.19,-130.11"/>
</g>
<!-- Node4 -->
<g id="node4" class="node">
<title>Node4</title>
<g id="a_node4"><a xlink:href="other_8hpp.html" target="_top" xlink:title="Miscellaneous functions.">
<polygon fill="white" stroke="#666666" points="223,-129 152,-129 152,-110 223,-110 223,-129"/>
<text text-anchor="middle" x="187.5" y="-117" font-family="ui-monospace,monospace" font-size="10.00">other.hpp</text>
</a>
</g>
</g>
<!-- Node1&#45;&gt;Node4 -->
<g id="edge3" class="edge">
<title>Node1&#45;&gt;Node4</title>
<path fill="none" stroke="#63b8ff" d="M187.5,-164.75C187.5,-157.8 187.5,-147.85 187.5,-139.13"/>
<polygon fill="#63b8ff" stroke="#63b8ff" points="191,-139.09 187.5,-129.09 184,-139.09 191,-139.09"/>
</g>
<!-- Node8 -->
<g id="node8" class="node">
<title>Node8</title>
<g id="a_node8"><a xlink:href="window_8hpp.html" target="_top" xlink:title="Functions related to the main window.">
<polygon fill="white" stroke="#666666" points="318,-129 241,-129 241,-110 318,-110 318,-129"/>
<text text-anchor="middle" x="279.5" y="-117" font-family="ui-monospace,monospace" font-size="10.00">window.hpp</text>
</a>
</g>
</g>
<!-- Node1&#45;&gt;Node8 -->
<g id="edge7" class="edge">
<title>Node1&#45;&gt;Node8</title>
<path fill="none" stroke="#63b8ff" d="M202.28,-164.98C216.68,-156.69 238.81,-143.94 255.69,-134.22"/>
<polygon fill="#63b8ff" stroke="#63b8ff" points="257.53,-137.19 264.45,-129.17 254.04,-131.13 257.53,-137.19"/>
</g>
<!-- Node3 -->
<g id="node3" class="node">
<title>Node3</title>
<g id="a_node3"><a target="_parent" xlink:href="http://en.cppreference.com/w/cpp/header/functional.html" xlink:title=" ">
<polygon fill="white" stroke="#666666" points="77,-74 0,-74 0,-55 77,-55 77,-74"/>
<text text-anchor="middle" x="38.5" y="-62" font-family="ui-monospace,monospace" font-size="10.00">functional</text>
</a>
</g>
</g>
<!-- Node2&#45;&gt;Node3 -->
<g id="edge2" class="edge">
<title>Node2&#45;&gt;Node3</title>
<path fill="none" stroke="#63b8ff" d="M65.22,-109.75C60.79,-102.42 54.34,-91.73 48.88,-82.7"/>
<polygon fill="#63b8ff" stroke="#63b8ff" points="51.85,-80.84 43.69,-74.09 45.86,-84.46 51.85,-80.84"/>
</g>
<!-- Node5 -->
<g id="node5" class="node">
<title>Node5</title>
<g id="a_node5"><a target="_parent" xlink:href="http://en.cppreference.com/w/cpp/header/sstream.html" xlink:title=" ">
<polygon fill="white" stroke="#666666" points="154,-74 95,-74 95,-55 154,-55 154,-74"/>
<text text-anchor="middle" x="124.5" y="-62" font-family="ui-monospace,monospace" font-size="10.00">sstream</text>
</a>
</g>
</g>
<!-- Node4&#45;&gt;Node5 -->
<g id="edge4" class="edge">
<title>Node4&#45;&gt;Node5</title>
<path fill="none" stroke="#63b8ff" d="M177.38,-109.98C168.06,-102.15 154.03,-90.34 142.76,-80.86"/>
<polygon fill="#63b8ff" stroke="#63b8ff" points="144.71,-77.93 134.81,-74.17 140.21,-83.29 144.71,-77.93"/>
</g>
<!-- Node6 -->
<g id="node6" class="node">
<title>Node6</title>
<g id="a_node6"><a target="_parent" xlink:href="http://en.cppreference.com/w/cpp/header/string.html" xlink:title=" ">
<polygon fill="white" stroke="#666666" points="225,-74 172,-74 172,-55 225,-55 225,-74"/>
<text text-anchor="middle" x="198.5" y="-62" font-family="ui-monospace,monospace" font-size="10.00">string</text>
</a>
</g>
</g>
<!-- Node4&#45;&gt;Node6 -->
<g id="edge5" class="edge">
<title>Node4&#45;&gt;Node6</title>
<path fill="none" stroke="#63b8ff" d="M189.32,-109.75C190.76,-102.8 192.82,-92.85 194.63,-84.13"/>
<polygon fill="#63b8ff" stroke="#63b8ff" points="198.11,-84.59 196.72,-74.09 191.26,-83.17 198.11,-84.59"/>
</g>
<!-- Node7 -->
<g id="node7" class="node">
<title>Node7</title>
<g id="a_node7"><a target="_parent" xlink:href="http://en.cppreference.com/w/cpp/header/vector.html" xlink:title=" ">
<polygon fill="white" stroke="#666666" points="296,-74 243,-74 243,-55 296,-55 296,-74"/>
<text text-anchor="middle" x="269.5" y="-62" font-family="ui-monospace,monospace" font-size="10.00">vector</text>
</a>
</g>
</g>
<!-- Node4&#45;&gt;Node7 -->
<g id="edge6" class="edge">
<title>Node4&#45;&gt;Node7</title>
<path fill="none" stroke="#63b8ff" d="M200.67,-109.98C213.27,-101.84 232.5,-89.41 247.44,-79.76"/>
<polygon fill="#63b8ff" stroke="#63b8ff" points="249.59,-82.54 256.09,-74.17 245.79,-76.66 249.59,-82.54"/>
</g>
<!-- Node8&#45;&gt;Node6 -->
<g id="edge11" class="edge">
<title>Node8&#45;&gt;Node6</title>
<path fill="none" stroke="#63b8ff" d="M266.49,-109.98C254.04,-101.84 235.04,-89.41 220.29,-79.76"/>
<polygon fill="#63b8ff" stroke="#63b8ff" points="222.04,-76.72 211.75,-74.17 218.2,-82.57 222.04,-76.72"/>
</g>
<!-- Node8&#45;&gt;Node7 -->
<g id="edge12" class="edge">
<title>Node8&#45;&gt;Node7</title>
<path fill="none" stroke="#63b8ff" d="M277.85,-109.75C276.54,-102.8 274.66,-92.85 273.02,-84.13"/>
<polygon fill="#63b8ff" stroke="#63b8ff" points="276.41,-83.27 271.12,-74.09 269.54,-84.56 276.41,-83.27"/>
</g>
<!-- Node9 -->
<g id="node9" class="node">
<title>Node9</title>
<g id="a_node9"><a xlink:href="Pixels_8hpp.html" target="_top" xlink:title="Contains jngl::Pixels class.">
<polygon fill="white" stroke="#666666" points="391,-74 314,-74 314,-55 391,-55 391,-74"/>
<text text-anchor="middle" x="352.5" y="-62" font-family="ui-monospace,monospace" font-size="10.00">Pixels.hpp</text>
</a>
</g>
</g>
<!-- Node8&#45;&gt;Node9 -->
<g id="edge8" class="edge">
<title>Node8&#45;&gt;Node9</title>
<path fill="none" stroke="#63b8ff" d="M291.23,-109.98C302.23,-102 318.92,-89.88 332.1,-80.31"/>
<polygon fill="#63b8ff" stroke="#63b8ff" points="334.52,-82.88 340.56,-74.17 330.41,-77.21 334.52,-82.88"/>
</g>
<!-- Node11 -->
<g id="node11" class="node">
<title>Node11</title>
<g id="a_node11"><a target="_parent" xlink:href="http://en.cppreference.com/w/cpp/header/array.html" xlink:title=" ">
<polygon fill="white" stroke="#666666" points="456,-74 409,-74 409,-55 456,-55 456,-74"/>
<text text-anchor="middle" x="432.5" y="-62" font-family="ui-monospace,monospace" font-size="10.00">array</text>
</a>
</g>
</g>
<!-- Node8&#45;&gt;Node11 -->
<g id="edge10" class="edge">
<title>Node8&#45;&gt;Node11</title>
<path fill="none" stroke="#63b8ff" d="M304.08,-109.98C329.92,-101.03 370.73,-86.9 399.4,-76.97"/>
<polygon fill="#63b8ff" stroke="#63b8ff" points="400.68,-80.23 408.98,-73.65 398.39,-73.61 400.68,-80.23"/>
</g>
<!-- Node10 -->
<g id="node10" class="node">
<title>Node10</title>
<g id="a_node10"><a target="_parent" xlink:href="http://en.cppreference.com/w/cpp/header/cstdint.html" xlink:title=" ">
<polygon fill="white" stroke="#666666" points="382,-19 323,-19 323,0 382,0 382,-19"/>
<text text-anchor="middle" x="352.5" y="-7" font-family="ui-monospace,monospace" font-size="10.00">cstdint</text>
</a>
</g>
</g>
<!-- Node9&#45;&gt;Node10 -->
<g id="edge9" class="edge">
<title>Node9&#45;&gt;Node10</title>
<path fill="none" stroke="#63b8ff" d="M352.5,-54.75C352.5,-47.8 352.5,-37.85 352.5,-29.13"/>
<polygon fill="#63b8ff" stroke="#63b8ff" points="356,-29.09 352.5,-19.09 349,-29.09 356,-29.09"/>
</g>
</g>
</svg>
