<?xml version="1.0" encoding="UTF-8" standalone="no"?>
<!DOCTYPE svg PUBLIC "-//W3C//DTD SVG 1.1//EN"
 "http://www.w3.org/Graphics/SVG/1.1/DTD/svg11.dtd">
<!-- Generated by graphviz version 12.1.0 (20240811.2233)
 -->
<!-- Title: jngl/main.hpp Pages: 1 -->
<svg width="496pt" height="193pt"
 viewBox="0.00 0.00 496.00 193.00" xmlns="http://www.w3.org/2000/svg" xmlns:xlink="http://www.w3.org/1999/xlink">
<g id="graph0" class="graph" transform="scale(1 1) rotate(0) translate(4 189)">
<title>jngl/main.hpp</title>
<!-- Node1 -->
<g id="Node000001" class="node">
<title>Node1</title>
<g id="a_Node000001"><a xlink:title="Defines macros for the main entry point.">
<polygon fill="#999999" stroke="#666666" points="243,-185 149,-185 149,-165.75 243,-165.75 243,-185"/>
<text text-anchor="middle" x="196" y="-171.5" font-family="ui-monospace,monospace" font-size="10.00">jngl/main.hpp</text>
</a>
</g>
</g>
<!-- Node2 -->
<g id="Node000002" class="node">
<title>Node2</title>
<g id="a_Node000002"><a xlink:href="Finally_8hpp.html" target="_top" xlink:title="Contains jngl::Finally class.">
<polygon fill="white" stroke="#666666" points="110,-129.75 28,-129.75 28,-110.5 110,-110.5 110,-129.75"/>
<text text-anchor="middle" x="69" y="-116.25" font-family="ui-monospace,monospace" font-size="10.00">Finally.hpp</text>
</a>
</g>
</g>
<!-- Node1&#45;&gt;Node2 -->
<g id="edge1_Node000001_Node000002" class="edge">
<title>Node1&#45;&gt;Node2</title>
<g id="a_edge1_Node000001_Node000002"><a xlink:title=" ">
<path fill="none" stroke="#63b8ff" d="M174.46,-165.34C154.39,-156.93 124.2,-144.27 101.25,-134.65"/>
<polygon fill="#63b8ff" stroke="#63b8ff" points="102.62,-131.43 92.05,-130.79 99.91,-137.88 102.62,-131.43"/>
</a>
</g>
</g>
<!-- Node4 -->
<g id="Node000004" class="node">
<title>Node4</title>
<g id="a_Node000004"><a xlink:href="other_8hpp.html" target="_top" xlink:title="Miscellaneous functions.">
<polygon fill="white" stroke="#666666" points="383,-129.75 313,-129.75 313,-110.5 383,-110.5 383,-129.75"/>
<text text-anchor="middle" x="348" y="-116.25" font-family="ui-monospace,monospace" font-size="10.00">other.hpp</text>
</a>
</g>
</g>
<!-- Node1&#45;&gt;Node4 -->
<g id="edge3_Node000001_Node000004" class="edge">
<title>Node1&#45;&gt;Node4</title>
<g id="a_edge3_Node000001_Node000004"><a xlink:title=" ">
<path fill="none" stroke="#63b8ff" d="M221.78,-165.34C246.35,-156.74 283.59,-143.69 311.26,-134"/>
<polygon fill="#63b8ff" stroke="#63b8ff" points="312.38,-137.31 320.66,-130.7 310.07,-130.71 312.38,-137.31"/>
</a>
</g>
</g>
<!-- Node9 -->
<g id="Node000009" class="node">
<title>Node9</title>
<g id="a_Node000009"><a xlink:href="window_8hpp.html" target="_top" xlink:title="Functions related to the main window.">
<polygon fill="white" stroke="#666666" points="234,-129.75 158,-129.75 158,-110.5 234,-110.5 234,-129.75"/>
<text text-anchor="middle" x="196" y="-116.25" font-family="ui-monospace,monospace" font-size="10.00">window.hpp</text>
</a>
</g>
</g>
<!-- Node1&#45;&gt;Node9 -->
<g id="edge8_Node000001_Node000009" class="edge">
<title>Node1&#45;&gt;Node9</title>
<g id="a_edge8_Node000001_Node000009"><a xlink:title=" ">
<path fill="none" stroke="#63b8ff" d="M196,-165.58C196,-159.07 196,-149.92 196,-141.62"/>
<polygon fill="#63b8ff" stroke="#63b8ff" points="199.5,-141.62 196,-131.62 192.5,-141.62 199.5,-141.62"/>
</a>
</g>
</g>
<!-- Node3 -->
<g id="Node000003" class="node">
<title>Node3</title>
<g id="a_Node000003"><a target="_parent" xlink:href="http://en.cppreference.com/w/cpp/header/functional.html" xlink:title=" ">
<polygon fill="white" stroke="#666666" points="76,-74.5 0,-74.5 0,-55.25 76,-55.25 76,-74.5"/>
<text text-anchor="middle" x="38" y="-61" font-family="ui-monospace,monospace" font-size="10.00">functional</text>
</a>
</g>
</g>
<!-- Node2&#45;&gt;Node3 -->
<g id="edge2_Node000002_Node000003" class="edge">
<title>Node2&#45;&gt;Node3</title>
<g id="a_edge2_Node000002_Node000003"><a xlink:title=" ">
<path fill="none" stroke="#63b8ff" d="M63.88,-110.33C59.82,-103.36 54.01,-93.37 48.91,-84.62"/>
<polygon fill="#63b8ff" stroke="#63b8ff" points="52.05,-83.05 43.99,-76.17 46,-86.57 52.05,-83.05"/>
</a>
</g>
</g>
<!-- Node5 -->
<g id="Node000005" class="node">
<title>Node5</title>
<g id="a_Node000005"><a target="_parent" xlink:href="http://en.cppreference.com/w/cpp/header/cstdint.html" xlink:title=" ">
<polygon fill="white" stroke="#666666" points="328,-19.25 270,-19.25 270,0 328,0 328,-19.25"/>
<text text-anchor="middle" x="299" y="-5.75" font-family="ui-monospace,monospace" font-size="10.00">cstdint</text>
</a>
</g>
</g>
<!-- Node4&#45;&gt;Node5 -->
<g id="edge4_Node000004_Node000005" class="edge">
<title>Node4&#45;&gt;Node5</title>
<g id="a_edge4_Node000004_Node000005"><a xlink:title=" ">
<path fill="none" stroke="#63b8ff" d="M359,-110.32C373.15,-97.89 394.6,-74.54 383,-55.25 373.3,-39.11 355.58,-28.5 338.9,-21.69"/>
<polygon fill="#63b8ff" stroke="#63b8ff" points="340.2,-18.44 329.61,-18.26 337.78,-25 340.2,-18.44"/>
</a>
</g>
</g>
<!-- Node6 -->
<g id="Node000006" class="node">
<title>Node6</title>
<g id="a_Node000006"><a target="_parent" xlink:href="http://en.cppreference.com/w/cpp/header/sstream.html" xlink:title=" ">
<polygon fill="white" stroke="#666666" points="488,-74.5 430,-74.5 430,-55.25 488,-55.25 488,-74.5"/>
<text text-anchor="middle" x="459" y="-61" font-family="ui-monospace,monospace" font-size="10.00">sstream</text>
</a>
</g>
</g>
<!-- Node4&#45;&gt;Node6 -->
<g id="edge5_Node000004_Node000006" class="edge">
<title>Node4&#45;&gt;Node6</title>
<g id="a_edge5_Node000004_Node000006"><a xlink:title=" ">
<path fill="none" stroke="#63b8ff" d="M366.83,-110.09C384.05,-101.83 409.8,-89.48 429.71,-79.93"/>
<polygon fill="#63b8ff" stroke="#63b8ff" points="431.21,-83.09 438.71,-75.61 428.18,-76.78 431.21,-83.09"/>
</a>
</g>
</g>
<!-- Node7 -->
<g id="Node000007" class="node">
<title>Node7</title>
<g id="a_Node000007"><a target="_parent" xlink:href="http://en.cppreference.com/w/cpp/header/string.html" xlink:title=" ">
<polygon fill="white" stroke="#666666" points="374,-74.5 322,-74.5 322,-55.25 374,-55.25 374,-74.5"/>
<text text-anchor="middle" x="348" y="-61" font-family="ui-monospace,monospace" font-size="10.00">string</text>
</a>
</g>
</g>
<!-- Node4&#45;&gt;Node7 -->
<g id="edge6_Node000004_Node000007" class="edge">
<title>Node4&#45;&gt;Node7</title>
<g id="a_edge6_Node000004_Node000007"><a xlink:title=" ">
<path fill="none" stroke="#63b8ff" d="M348,-110.33C348,-103.82 348,-94.67 348,-86.37"/>
<polygon fill="#63b8ff" stroke="#63b8ff" points="351.5,-86.37 348,-76.37 344.5,-86.37 351.5,-86.37"/>
</a>
</g>
</g>
<!-- Node8 -->
<g id="Node000008" class="node">
<title>Node8</title>
<g id="a_Node000008"><a target="_parent" xlink:href="http://en.cppreference.com/w/cpp/header/vector.html" xlink:title=" ">
<polygon fill="white" stroke="#666666" points="304,-74.5 252,-74.5 252,-55.25 304,-55.25 304,-74.5"/>
<text text-anchor="middle" x="278" y="-61" font-family="ui-monospace,monospace" font-size="10.00">vector</text>
</a>
</g>
</g>
<!-- Node4&#45;&gt;Node8 -->
<g id="edge7_Node000004_Node000008" class="edge">
<title>Node4&#45;&gt;Node8</title>
<g id="a_edge7_Node000004_Node000008"><a xlink:title=" ">
<path fill="none" stroke="#63b8ff" d="M336.13,-110.09C325.91,-102.32 310.93,-90.92 298.74,-81.65"/>
<polygon fill="#63b8ff" stroke="#63b8ff" points="300.98,-78.96 290.9,-75.69 296.74,-84.53 300.98,-78.96"/>
</a>
</g>
</g>
<!-- Node9&#45;&gt;Node3 -->
<g id="edge12_Node000009_Node000003" class="edge">
<title>Node9&#45;&gt;Node3</title>
<g id="a_edge12_Node000009_Node000003"><a xlink:title=" ">
<path fill="none" stroke="#63b8ff" d="M169.2,-110.09C143.55,-101.45 104.61,-88.32 75.81,-78.62"/>
<polygon fill="#63b8ff" stroke="#63b8ff" points="76.96,-75.31 66.37,-75.44 74.73,-81.95 76.96,-75.31"/>
</a>
</g>
</g>
<!-- Node9&#45;&gt;Node7 -->
<g id="edge13_Node000009_Node000007" class="edge">
<title>Node9&#45;&gt;Node7</title>
<g id="a_edge13_Node000009_Node000007"><a xlink:title=" ">
<path fill="none" stroke="#63b8ff" d="M221.78,-110.09C246.35,-101.49 283.59,-88.44 311.26,-78.75"/>
<polygon fill="#63b8ff" stroke="#63b8ff" points="312.38,-82.06 320.66,-75.45 310.07,-75.46 312.38,-82.06"/>
</a>
</g>
</g>
<!-- Node9&#45;&gt;Node8 -->
<g id="edge14_Node000009_Node000008" class="edge">
<title>Node9&#45;&gt;Node8</title>
<g id="a_edge14_Node000009_Node000008"><a xlink:title=" ">
<path fill="none" stroke="#63b8ff" d="M209.91,-110.09C222.16,-102.14 240.25,-90.39 254.71,-81"/>
<polygon fill="#63b8ff" stroke="#63b8ff" points="256.27,-84.16 262.75,-75.78 252.46,-78.29 256.27,-84.16"/>
</a>
</g>
</g>
<!-- Node10 -->
<g id="Node000010" class="node">
<title>Node10</title>
<g id="a_Node000010"><a xlink:href="Pixels_8hpp.html" target="_top" xlink:title="Contains jngl::Pixels class.">
<polygon fill="white" stroke="#666666" points="234,-74.5 158,-74.5 158,-55.25 234,-55.25 234,-74.5"/>
<text text-anchor="middle" x="196" y="-61" font-family="ui-monospace,monospace" font-size="10.00">Pixels.hpp</text>
</a>
</g>
</g>
<!-- Node9&#45;&gt;Node10 -->
<g id="edge9_Node000009_Node000010" class="edge">
<title>Node9&#45;&gt;Node10</title>
<g id="a_edge9_Node000009_Node000010"><a xlink:title=" ">
<path fill="none" stroke="#63b8ff" d="M196,-110.33C196,-103.82 196,-94.67 196,-86.37"/>
<polygon fill="#63b8ff" stroke="#63b8ff" points="199.5,-86.37 196,-76.37 192.5,-86.37 199.5,-86.37"/>
</a>
</g>
</g>
<!-- Node11 -->
<g id="Node000011" class="node">
<title>Node11</title>
<g id="a_Node000011"><a target="_parent" xlink:href="http://en.cppreference.com/w/cpp/header/array.html" xlink:title=" ">
<polygon fill="white" stroke="#666666" points="140,-74.5 94,-74.5 94,-55.25 140,-55.25 140,-74.5"/>
<text text-anchor="middle" x="117" y="-61" font-family="ui-monospace,monospace" font-size="10.00">array</text>
</a>
</g>
</g>
<!-- Node9&#45;&gt;Node11 -->
<g id="edge11_Node000009_Node000011" class="edge">
<title>Node9&#45;&gt;Node11</title>
<g id="a_edge11_Node000009_Node000011"><a xlink:title=" ">
<path fill="none" stroke="#63b8ff" d="M182.6,-110.09C170.91,-102.21 153.7,-90.61 139.84,-81.27"/>
<polygon fill="#63b8ff" stroke="#63b8ff" points="141.97,-78.49 131.72,-75.8 138.06,-84.29 141.97,-78.49"/>
</a>
</g>
</g>
<!-- Node10&#45;&gt;Node5 -->
<g id="edge10_Node000010_Node000005" class="edge">
<title>Node10&#45;&gt;Node5</title>
<g id="a_edge10_Node000010_Node000005"><a xlink:title=" ">
<path fill="none" stroke="#63b8ff" d="M213.47,-54.84C229.31,-46.66 252.91,-34.46 271.31,-24.94"/>
<polygon fill="#63b8ff" stroke="#63b8ff" points="272.82,-28.1 280.1,-20.4 269.61,-21.88 272.82,-28.1"/>
</a>
</g>
</g>
</g>
</svg>
