<?xml version="1.0" encoding="UTF-8" standalone="no"?>
<!DOCTYPE svg PUBLIC "-//W3C//DTD SVG 1.1//EN"
 "http://www.w3.org/Graphics/SVG/1.1/DTD/svg11.dtd">
<!-- Generated by graphviz version 2.44.0 (0)
 -->
<!-- Title: jngl/main.hpp Pages: 1 -->
<svg width="316pt" height="140pt"
 viewBox="0.00 0.00 316.00 140.00" xmlns="http://www.w3.org/2000/svg" xmlns:xlink="http://www.w3.org/1999/xlink">
<g id="graph0" class="graph" transform="scale(1 1) rotate(0) translate(4 136)">
<title>jngl/main.hpp</title>
<polygon fill="white" stroke="transparent" points="-4,4 -4,-136 312,-136 312,4 -4,4"/>
<!-- Node1 -->
<g id="node1" class="node">
<title>Node1</title>
<g id="a_node1"><a xlink:title="Defines macros for the main entry point.">
<polygon fill="#bfbfbf" stroke="black" points="130,-112.5 130,-131.5 225,-131.5 225,-112.5 130,-112.5"/>
<text text-anchor="middle" x="177.5" y="-119.5" font-family="'Consolas',monospace" font-size="10.00">jngl/main.hpp</text>
</a>
</g>
</g>
<!-- Node2 -->
<g id="node2" class="node">
<title>Node2</title>
<g id="a_node2"><a xlink:href="Finally_8hpp.html" target="_top" xlink:title=" ">
<polygon fill="white" stroke="black" points="19,-56.5 19,-75.5 102,-75.5 102,-56.5 19,-56.5"/>
<text text-anchor="middle" x="60.5" y="-63.5" font-family="'Consolas',monospace" font-size="10.00">Finally.hpp</text>
</a>
</g>
</g>
<!-- Node1&#45;&gt;Node2 -->
<g id="edge1" class="edge">
<title>Node1&#45;&gt;Node2</title>
<path fill="none" stroke="midnightblue" d="M158.96,-112.44C139.88,-103.64 109.93,-89.81 88.06,-79.72"/>
<polygon fill="midnightblue" stroke="midnightblue" points="89.5,-76.53 78.95,-75.52 86.57,-82.88 89.5,-76.53"/>
</g>
<!-- Node4 -->
<g id="node4" class="node">
<title>Node4</title>
<g id="a_node4"><a xlink:href="other_8hpp.html" target="_top" xlink:title="Miscellaneous functions.">
<polygon fill="white" stroke="black" points="142,-56.5 142,-75.5 213,-75.5 213,-56.5 142,-56.5"/>
<text text-anchor="middle" x="177.5" y="-63.5" font-family="'Consolas',monospace" font-size="10.00">other.hpp</text>
</a>
</g>
</g>
<!-- Node1&#45;&gt;Node4 -->
<g id="edge3" class="edge">
<title>Node1&#45;&gt;Node4</title>
<path fill="none" stroke="midnightblue" d="M177.5,-112.08C177.5,-105.01 177.5,-94.86 177.5,-85.99"/>
<polygon fill="midnightblue" stroke="midnightblue" points="181,-85.75 177.5,-75.75 174,-85.75 181,-85.75"/>
</g>
<!-- Node8 -->
<g id="node8" class="node">
<title>Node8</title>
<g id="a_node8"><a xlink:href="window_8hpp.html" target="_top" xlink:title="Functions related to the main window.">
<polygon fill="white" stroke="black" points="231,-56.5 231,-75.5 308,-75.5 308,-56.5 231,-56.5"/>
<text text-anchor="middle" x="269.5" y="-63.5" font-family="'Consolas',monospace" font-size="10.00">window.hpp</text>
</a>
</g>
</g>
<!-- Node1&#45;&gt;Node8 -->
<g id="edge7" class="edge">
<title>Node1&#45;&gt;Node8</title>
<path fill="none" stroke="midnightblue" d="M192.28,-112.32C206.77,-103.82 229.07,-90.73 245.99,-80.8"/>
<polygon fill="midnightblue" stroke="midnightblue" points="247.9,-83.74 254.76,-75.65 244.36,-77.7 247.9,-83.74"/>
</g>
<!-- Node3 -->
<g id="node3" class="node">
<title>Node3</title>
<g id="a_node3"><a target="_parent" xlink:href="http://en.cppreference.com/w/cpp/header/functional.html" xlink:title=" ">
<polygon fill="white" stroke="black" points="0,-0.5 0,-19.5 77,-19.5 77,-0.5 0,-0.5"/>
<text text-anchor="middle" x="38.5" y="-7.5" font-family="'Consolas',monospace" font-size="10.00">functional</text>
</a>
</g>
</g>
<!-- Node2&#45;&gt;Node3 -->
<g id="edge2" class="edge">
<title>Node2&#45;&gt;Node3</title>
<path fill="none" stroke="midnightblue" d="M56.87,-56.08C53.89,-48.77 49.57,-38.18 45.88,-29.1"/>
<polygon fill="midnightblue" stroke="midnightblue" points="49.08,-27.69 42.07,-19.75 42.6,-30.33 49.08,-27.69"/>
</g>
<!-- Node5 -->
<g id="node5" class="node">
<title>Node5</title>
<g id="a_node5"><a target="_parent" xlink:href="http://en.cppreference.com/w/cpp/header/sstream.html" xlink:title=" ">
<polygon fill="white" stroke="black" points="95,-0.5 95,-19.5 154,-19.5 154,-0.5 95,-0.5"/>
<text text-anchor="middle" x="124.5" y="-7.5" font-family="'Consolas',monospace" font-size="10.00">sstream</text>
</a>
</g>
</g>
<!-- Node4&#45;&gt;Node5 -->
<g id="edge4" class="edge">
<title>Node4&#45;&gt;Node5</title>
<path fill="none" stroke="midnightblue" d="M168.75,-56.08C161.03,-48.22 149.6,-36.57 140.28,-27.08"/>
<polygon fill="midnightblue" stroke="midnightblue" points="142.59,-24.44 133.09,-19.75 137.6,-29.34 142.59,-24.44"/>
</g>
<!-- Node6 -->
<g id="node6" class="node">
<title>Node6</title>
<g id="a_node6"><a target="_parent" xlink:href="http://en.cppreference.com/w/cpp/header/string.html" xlink:title=" ">
<polygon fill="white" stroke="black" points="243,-0.5 243,-19.5 296,-19.5 296,-0.5 243,-0.5"/>
<text text-anchor="middle" x="269.5" y="-7.5" font-family="'Consolas',monospace" font-size="10.00">string</text>
</a>
</g>
</g>
<!-- Node4&#45;&gt;Node6 -->
<g id="edge5" class="edge">
<title>Node4&#45;&gt;Node6</title>
<path fill="none" stroke="midnightblue" d="M192.28,-56.32C206.77,-47.82 229.07,-34.73 245.99,-24.8"/>
<polygon fill="midnightblue" stroke="midnightblue" points="247.9,-27.74 254.76,-19.65 244.36,-21.7 247.9,-27.74"/>
</g>
<!-- Node7 -->
<g id="node7" class="node">
<title>Node7</title>
<g id="a_node7"><a target="_parent" xlink:href="http://en.cppreference.com/w/cpp/header/vector.html" xlink:title=" ">
<polygon fill="white" stroke="black" points="172,-0.5 172,-19.5 225,-19.5 225,-0.5 172,-0.5"/>
<text text-anchor="middle" x="198.5" y="-7.5" font-family="'Consolas',monospace" font-size="10.00">vector</text>
</a>
</g>
</g>
<!-- Node4&#45;&gt;Node7 -->
<g id="edge6" class="edge">
<title>Node4&#45;&gt;Node7</title>
<path fill="none" stroke="midnightblue" d="M180.97,-56.08C183.81,-48.77 187.93,-38.18 191.46,-29.1"/>
<polygon fill="midnightblue" stroke="midnightblue" points="194.73,-30.34 195.1,-19.75 188.21,-27.8 194.73,-30.34"/>
</g>
<!-- Node8&#45;&gt;Node6 -->
<g id="edge8" class="edge">
<title>Node8&#45;&gt;Node6</title>
<path fill="none" stroke="midnightblue" d="M269.5,-56.08C269.5,-49.01 269.5,-38.86 269.5,-29.99"/>
<polygon fill="midnightblue" stroke="midnightblue" points="273,-29.75 269.5,-19.75 266,-29.75 273,-29.75"/>
</g>
</g>
</svg>
