<?xml version="1.0" encoding="UTF-8" standalone="no"?>
<!DOCTYPE svg PUBLIC "-//W3C//DTD SVG 1.1//EN"
 "http://www.w3.org/Graphics/SVG/1.1/DTD/svg11.dtd">
<!-- Generated by graphviz version 5.0.0 (0)
 -->
<!-- Title: jngl/main.hpp Pages: 1 -->
<svg width="464pt" height="192pt"
 viewBox="0.00 0.00 464.00 192.00" xmlns="http://www.w3.org/2000/svg" xmlns:xlink="http://www.w3.org/1999/xlink">
<g id="graph0" class="graph" transform="scale(1 1) rotate(0) translate(4 188)">
<title>jngl/main.hpp</title>
<!-- Node1 -->
<g id="node1" class="node">
<title>Node1</title>
<g id="a_node1"><a xlink:title="Defines macros for the main entry point.">
<polygon fill="#999999" stroke="#666666" points="225,-184 130,-184 130,-165 225,-165 225,-184"/>
<text text-anchor="middle" x="177.5" y="-172" font-family="ui-monospace,monospace" font-size="10.00">jngl/main.hpp</text>
</a>
</g>
</g>
<!-- Node2 -->
<g id="node2" class="node">
<title>Node2</title>
<g id="a_node2"><a xlink:href="Finally_8hpp.html" target="_top" xlink:title="Contains jngl::Finally class.">
<polygon fill="white" stroke="#666666" points="102,-129 19,-129 19,-110 102,-110 102,-129"/>
<text text-anchor="middle" x="60.5" y="-117" font-family="ui-monospace,monospace" font-size="10.00">Finally.hpp</text>
</a>
</g>
</g>
<!-- Node1&#45;&gt;Node2 -->
<g id="edge1" class="edge">
<title>Node1&#45;&gt;Node2</title>
<path fill="none" stroke="#63b8ff" d="M158.7,-164.98C139.88,-156.46 110.68,-143.23 89,-133.41"/>
<polygon fill="#63b8ff" stroke="#63b8ff" points="90.19,-130.11 79.64,-129.17 87.3,-136.48 90.19,-130.11"/>
</g>
<!-- Node4 -->
<g id="node4" class="node">
<title>Node4</title>
<g id="a_node4"><a xlink:href="other_8hpp.html" target="_top" xlink:title="Miscellaneous functions.">
<polygon fill="white" stroke="#666666" points="213,-129 142,-129 142,-110 213,-110 213,-129"/>
<text text-anchor="middle" x="177.5" y="-117" font-family="ui-monospace,monospace" font-size="10.00">other.hpp</text>
</a>
</g>
</g>
<!-- Node1&#45;&gt;Node4 -->
<g id="edge3" class="edge">
<title>Node1&#45;&gt;Node4</title>
<path fill="none" stroke="#63b8ff" d="M177.5,-164.75C177.5,-157.8 177.5,-147.85 177.5,-139.13"/>
<polygon fill="#63b8ff" stroke="#63b8ff" points="181,-139.09 177.5,-129.09 174,-139.09 181,-139.09"/>
</g>
<!-- Node8 -->
<g id="node8" class="node">
<title>Node8</title>
<g id="a_node8"><a xlink:href="window_8hpp.html" target="_top" xlink:title="Functions related to the main window.">
<polygon fill="white" stroke="#666666" points="308,-129 231,-129 231,-110 308,-110 308,-129"/>
<text text-anchor="middle" x="269.5" y="-117" font-family="ui-monospace,monospace" font-size="10.00">window.hpp</text>
</a>
</g>
</g>
<!-- Node1&#45;&gt;Node8 -->
<g id="edge7" class="edge">
<title>Node1&#45;&gt;Node8</title>
<path fill="none" stroke="#63b8ff" d="M192.28,-164.98C206.68,-156.69 228.81,-143.94 245.69,-134.22"/>
<polygon fill="#63b8ff" stroke="#63b8ff" points="247.53,-137.19 254.45,-129.17 244.04,-131.13 247.53,-137.19"/>
</g>
<!-- Node3 -->
<g id="node3" class="node">
<title>Node3</title>
<g id="a_node3"><a target="_parent" xlink:href="http://en.cppreference.com/w/cpp/header/functional.html" xlink:title=" ">
<polygon fill="white" stroke="#666666" points="77,-74 0,-74 0,-55 77,-55 77,-74"/>
<text text-anchor="middle" x="38.5" y="-62" font-family="ui-monospace,monospace" font-size="10.00">functional</text>
</a>
</g>
</g>
<!-- Node2&#45;&gt;Node3 -->
<g id="edge2" class="edge">
<title>Node2&#45;&gt;Node3</title>
<path fill="none" stroke="#63b8ff" d="M56.87,-109.75C53.92,-102.65 49.67,-92.4 45.99,-83.56"/>
<polygon fill="#63b8ff" stroke="#63b8ff" points="49.13,-81.98 42.07,-74.09 42.67,-84.67 49.13,-81.98"/>
</g>
<!-- Node5 -->
<g id="node5" class="node">
<title>Node5</title>
<g id="a_node5"><a target="_parent" xlink:href="http://en.cppreference.com/w/cpp/header/sstream.html" xlink:title=" ">
<polygon fill="white" stroke="#666666" points="154,-74 95,-74 95,-55 154,-55 154,-74"/>
<text text-anchor="middle" x="124.5" y="-62" font-family="ui-monospace,monospace" font-size="10.00">sstream</text>
</a>
</g>
</g>
<!-- Node4&#45;&gt;Node5 -->
<g id="edge4" class="edge">
<title>Node4&#45;&gt;Node5</title>
<path fill="none" stroke="#63b8ff" d="M168.75,-109.75C161.03,-102.03 149.6,-90.6 140.28,-81.28"/>
<polygon fill="#63b8ff" stroke="#63b8ff" points="142.64,-78.69 133.09,-74.09 137.69,-83.64 142.64,-78.69"/>
</g>
<!-- Node6 -->
<g id="node6" class="node">
<title>Node6</title>
<g id="a_node6"><a target="_parent" xlink:href="http://en.cppreference.com/w/cpp/header/string.html" xlink:title=" ">
<polygon fill="white" stroke="#666666" points="225,-74 172,-74 172,-55 225,-55 225,-74"/>
<text text-anchor="middle" x="198.5" y="-62" font-family="ui-monospace,monospace" font-size="10.00">string</text>
</a>
</g>
</g>
<!-- Node4&#45;&gt;Node6 -->
<g id="edge5" class="edge">
<title>Node4&#45;&gt;Node6</title>
<path fill="none" stroke="#63b8ff" d="M180.97,-109.75C183.78,-102.65 187.84,-92.4 191.35,-83.56"/>
<polygon fill="#63b8ff" stroke="#63b8ff" points="194.67,-84.68 195.1,-74.09 188.16,-82.1 194.67,-84.68"/>
</g>
<!-- Node7 -->
<g id="node7" class="node">
<title>Node7</title>
<g id="a_node7"><a target="_parent" xlink:href="http://en.cppreference.com/w/cpp/header/vector.html" xlink:title=" ">
<polygon fill="white" stroke="#666666" points="296,-74 243,-74 243,-55 296,-55 296,-74"/>
<text text-anchor="middle" x="269.5" y="-62" font-family="ui-monospace,monospace" font-size="10.00">vector</text>
</a>
</g>
</g>
<!-- Node4&#45;&gt;Node7 -->
<g id="edge6" class="edge">
<title>Node4&#45;&gt;Node7</title>
<path fill="none" stroke="#63b8ff" d="M192.28,-109.98C206.68,-101.69 228.81,-88.94 245.69,-79.22"/>
<polygon fill="#63b8ff" stroke="#63b8ff" points="247.53,-82.19 254.45,-74.17 244.04,-76.13 247.53,-82.19"/>
</g>
<!-- Node8&#45;&gt;Node3 -->
<g id="edge11" class="edge">
<title>Node8&#45;&gt;Node3</title>
<path fill="none" stroke="#63b8ff" d="M232.39,-109.98C192.51,-100.84 129.04,-86.27 85.66,-76.32"/>
<polygon fill="#63b8ff" stroke="#63b8ff" points="86.43,-72.91 75.91,-74.08 84.87,-79.73 86.43,-72.91"/>
</g>
<!-- Node8&#45;&gt;Node6 -->
<g id="edge12" class="edge">
<title>Node8&#45;&gt;Node6</title>
<path fill="none" stroke="#63b8ff" d="M258.09,-109.98C247.39,-102 231.16,-89.88 218.34,-80.31"/>
<polygon fill="#63b8ff" stroke="#63b8ff" points="220.22,-77.35 210.11,-74.17 216.03,-82.96 220.22,-77.35"/>
</g>
<!-- Node8&#45;&gt;Node7 -->
<g id="edge13" class="edge">
<title>Node8&#45;&gt;Node7</title>
<path fill="none" stroke="#63b8ff" d="M269.5,-109.75C269.5,-102.8 269.5,-92.85 269.5,-84.13"/>
<polygon fill="#63b8ff" stroke="#63b8ff" points="273,-84.09 269.5,-74.09 266,-84.09 273,-84.09"/>
</g>
<!-- Node9 -->
<g id="node9" class="node">
<title>Node9</title>
<g id="a_node9"><a xlink:href="Pixels_8hpp.html" target="_top" xlink:title="Contains jngl::Pixels class.">
<polygon fill="white" stroke="#666666" points="391,-74 314,-74 314,-55 391,-55 391,-74"/>
<text text-anchor="middle" x="352.5" y="-62" font-family="ui-monospace,monospace" font-size="10.00">Pixels.hpp</text>
</a>
</g>
</g>
<!-- Node8&#45;&gt;Node9 -->
<g id="edge8" class="edge">
<title>Node8&#45;&gt;Node9</title>
<path fill="none" stroke="#63b8ff" d="M282.84,-109.98C295.59,-101.84 315.05,-89.41 330.17,-79.76"/>
<polygon fill="#63b8ff" stroke="#63b8ff" points="332.38,-82.5 338.92,-74.17 328.61,-76.6 332.38,-82.5"/>
</g>
<!-- Node11 -->
<g id="node11" class="node">
<title>Node11</title>
<g id="a_node11"><a target="_parent" xlink:href="http://en.cppreference.com/w/cpp/header/array.html" xlink:title=" ">
<polygon fill="white" stroke="#666666" points="456,-74 409,-74 409,-55 456,-55 456,-74"/>
<text text-anchor="middle" x="432.5" y="-62" font-family="ui-monospace,monospace" font-size="10.00">array</text>
</a>
</g>
</g>
<!-- Node8&#45;&gt;Node11 -->
<g id="edge10" class="edge">
<title>Node8&#45;&gt;Node11</title>
<path fill="none" stroke="#63b8ff" d="M295.69,-109.98C323.74,-100.86 368.36,-86.36 398.96,-76.4"/>
<polygon fill="#63b8ff" stroke="#63b8ff" points="400.33,-79.64 408.76,-73.22 398.17,-72.98 400.33,-79.64"/>
</g>
<!-- Node10 -->
<g id="node10" class="node">
<title>Node10</title>
<g id="a_node10"><a target="_parent" xlink:href="http://en.cppreference.com/w/cpp/header/cstdint.html" xlink:title=" ">
<polygon fill="white" stroke="#666666" points="382,-19 323,-19 323,0 382,0 382,-19"/>
<text text-anchor="middle" x="352.5" y="-7" font-family="ui-monospace,monospace" font-size="10.00">cstdint</text>
</a>
</g>
</g>
<!-- Node9&#45;&gt;Node10 -->
<g id="edge9" class="edge">
<title>Node9&#45;&gt;Node10</title>
<path fill="none" stroke="#63b8ff" d="M352.5,-54.75C352.5,-47.8 352.5,-37.85 352.5,-29.13"/>
<polygon fill="#63b8ff" stroke="#63b8ff" points="356,-29.09 352.5,-19.09 349,-29.09 356,-29.09"/>
</g>
</g>
</svg>
