<?xml version="1.0" encoding="UTF-8" standalone="no"?>
<!DOCTYPE svg PUBLIC "-//W3C//DTD SVG 1.1//EN"
 "http://www.w3.org/Graphics/SVG/1.1/DTD/svg11.dtd">
<!-- Generated by graphviz version 9.0.0 (20230911.1827)
 -->
<!-- Title: jngl/main.hpp Pages: 1 -->
<svg width="458pt" height="193pt"
 viewBox="0.00 0.00 458.00 193.00" xmlns="http://www.w3.org/2000/svg" xmlns:xlink="http://www.w3.org/1999/xlink">
<g id="graph0" class="graph" transform="scale(1 1) rotate(0) translate(4 189)">
<title>jngl/main.hpp</title>
<!-- Node1 -->
<g id="Node000001" class="node">
<title>Node1</title>
<g id="a_Node000001"><a xlink:title="Defines macros for the main entry point.">
<polygon fill="#999999" stroke="#666666" points="222,-185 128,-185 128,-165.75 222,-165.75 222,-185"/>
<text text-anchor="middle" x="175" y="-171.5" font-family="ui-monospace,monospace" font-size="10.00">jngl/main.hpp</text>
</a>
</g>
</g>
<!-- Node2 -->
<g id="Node000002" class="node">
<title>Node2</title>
<g id="a_Node000002"><a xlink:href="Finally_8hpp.html" target="_top" xlink:title="Contains jngl::Finally class.">
<polygon fill="white" stroke="#666666" points="100,-129.75 18,-129.75 18,-110.5 100,-110.5 100,-129.75"/>
<text text-anchor="middle" x="59" y="-116.25" font-family="ui-monospace,monospace" font-size="10.00">Finally.hpp</text>
</a>
</g>
</g>
<!-- Node1&#45;&gt;Node2 -->
<g id="edge1_Node000001_Node000002" class="edge">
<title>Node1&#45;&gt;Node2</title>
<g id="a_edge1_Node000001_Node000002"><a xlink:title=" ">
<path fill="none" stroke="#63b8ff" d="M155.32,-165.34C137.16,-157 109.92,-144.5 89.03,-134.91"/>
<polygon fill="#63b8ff" stroke="#63b8ff" points="90.7,-131.83 80.15,-130.83 87.78,-138.19 90.7,-131.83"/>
</a>
</g>
</g>
<!-- Node4 -->
<g id="Node000004" class="node">
<title>Node4</title>
<g id="a_Node000004"><a xlink:href="other_8hpp.html" target="_top" xlink:title="Miscellaneous functions.">
<polygon fill="white" stroke="#666666" points="210,-129.75 140,-129.75 140,-110.5 210,-110.5 210,-129.75"/>
<text text-anchor="middle" x="175" y="-116.25" font-family="ui-monospace,monospace" font-size="10.00">other.hpp</text>
</a>
</g>
</g>
<!-- Node1&#45;&gt;Node4 -->
<g id="edge3_Node000001_Node000004" class="edge">
<title>Node1&#45;&gt;Node4</title>
<g id="a_edge3_Node000001_Node000004"><a xlink:title=" ">
<path fill="none" stroke="#63b8ff" d="M175,-165.58C175,-159.07 175,-149.92 175,-141.62"/>
<polygon fill="#63b8ff" stroke="#63b8ff" points="178.5,-141.62 175,-131.62 171.5,-141.62 178.5,-141.62"/>
</a>
</g>
</g>
<!-- Node8 -->
<g id="Node000008" class="node">
<title>Node8</title>
<g id="a_Node000008"><a xlink:href="window_8hpp.html" target="_top" xlink:title="Functions related to the main window.">
<polygon fill="white" stroke="#666666" points="304,-129.75 228,-129.75 228,-110.5 304,-110.5 304,-129.75"/>
<text text-anchor="middle" x="266" y="-116.25" font-family="ui-monospace,monospace" font-size="10.00">window.hpp</text>
</a>
</g>
</g>
<!-- Node1&#45;&gt;Node8 -->
<g id="edge7_Node000001_Node000008" class="edge">
<title>Node1&#45;&gt;Node8</title>
<g id="a_edge7_Node000001_Node000008"><a xlink:title=" ">
<path fill="none" stroke="#63b8ff" d="M190.44,-165.34C204.16,-157.31 224.5,-145.41 240.62,-135.98"/>
<polygon fill="#63b8ff" stroke="#63b8ff" points="242.32,-139.04 249.18,-130.97 238.78,-133 242.32,-139.04"/>
</a>
</g>
</g>
<!-- Node3 -->
<g id="Node000003" class="node">
<title>Node3</title>
<g id="a_Node000003"><a target="_parent" xlink:href="http://en.cppreference.com/w/cpp/header/functional.html" xlink:title=" ">
<polygon fill="white" stroke="#666666" points="76,-74.5 0,-74.5 0,-55.25 76,-55.25 76,-74.5"/>
<text text-anchor="middle" x="38" y="-61" font-family="ui-monospace,monospace" font-size="10.00">functional</text>
</a>
</g>
</g>
<!-- Node2&#45;&gt;Node3 -->
<g id="edge2_Node000002_Node000003" class="edge">
<title>Node2&#45;&gt;Node3</title>
<g id="a_edge2_Node000002_Node000003"><a xlink:title=" ">
<path fill="none" stroke="#63b8ff" d="M55.53,-110.33C52.87,-103.59 49.1,-94.02 45.74,-85.49"/>
<polygon fill="#63b8ff" stroke="#63b8ff" points="49.02,-84.29 42.1,-76.27 42.51,-86.85 49.02,-84.29"/>
</a>
</g>
</g>
<!-- Node5 -->
<g id="Node000005" class="node">
<title>Node5</title>
<g id="a_Node000005"><a target="_parent" xlink:href="http://en.cppreference.com/w/cpp/header/sstream.html" xlink:title=" ">
<polygon fill="white" stroke="#666666" points="152,-74.5 94,-74.5 94,-55.25 152,-55.25 152,-74.5"/>
<text text-anchor="middle" x="123" y="-61" font-family="ui-monospace,monospace" font-size="10.00">sstream</text>
</a>
</g>
</g>
<!-- Node4&#45;&gt;Node5 -->
<g id="edge4_Node000004_Node000005" class="edge">
<title>Node4&#45;&gt;Node5</title>
<g id="a_edge4_Node000004_Node000005"><a xlink:title=" ">
<path fill="none" stroke="#63b8ff" d="M166.41,-110.33C159.16,-102.9 148.55,-92.04 139.63,-82.91"/>
<polygon fill="#63b8ff" stroke="#63b8ff" points="142.32,-80.65 132.83,-75.94 137.31,-85.54 142.32,-80.65"/>
</a>
</g>
</g>
<!-- Node6 -->
<g id="Node000006" class="node">
<title>Node6</title>
<g id="a_Node000006"><a target="_parent" xlink:href="http://en.cppreference.com/w/cpp/header/string.html" xlink:title=" ">
<polygon fill="white" stroke="#666666" points="222,-74.5 170,-74.5 170,-55.25 222,-55.25 222,-74.5"/>
<text text-anchor="middle" x="196" y="-61" font-family="ui-monospace,monospace" font-size="10.00">string</text>
</a>
</g>
</g>
<!-- Node4&#45;&gt;Node6 -->
<g id="edge5_Node000004_Node000006" class="edge">
<title>Node4&#45;&gt;Node6</title>
<g id="a_edge5_Node000004_Node000006"><a xlink:title=" ">
<path fill="none" stroke="#63b8ff" d="M178.47,-110.33C181.13,-103.59 184.9,-94.02 188.26,-85.49"/>
<polygon fill="#63b8ff" stroke="#63b8ff" points="191.49,-86.85 191.9,-76.27 184.98,-84.29 191.49,-86.85"/>
</a>
</g>
</g>
<!-- Node7 -->
<g id="Node000007" class="node">
<title>Node7</title>
<g id="a_Node000007"><a target="_parent" xlink:href="http://en.cppreference.com/w/cpp/header/vector.html" xlink:title=" ">
<polygon fill="white" stroke="#666666" points="292,-74.5 240,-74.5 240,-55.25 292,-55.25 292,-74.5"/>
<text text-anchor="middle" x="266" y="-61" font-family="ui-monospace,monospace" font-size="10.00">vector</text>
</a>
</g>
</g>
<!-- Node4&#45;&gt;Node7 -->
<g id="edge6_Node000004_Node000007" class="edge">
<title>Node4&#45;&gt;Node7</title>
<g id="a_edge6_Node000004_Node000007"><a xlink:title=" ">
<path fill="none" stroke="#63b8ff" d="M190.44,-110.09C204.16,-102.06 224.5,-90.16 240.62,-80.73"/>
<polygon fill="#63b8ff" stroke="#63b8ff" points="242.32,-83.79 249.18,-75.72 238.78,-77.75 242.32,-83.79"/>
</a>
</g>
</g>
<!-- Node8&#45;&gt;Node3 -->
<g id="edge11_Node000008_Node000003" class="edge">
<title>Node8&#45;&gt;Node3</title>
<g id="a_edge11_Node000008_Node000003"><a xlink:title=" ">
<path fill="none" stroke="#63b8ff" d="M227.58,-110.15C188.99,-101.14 129.35,-87.21 87.29,-77.39"/>
<polygon fill="#63b8ff" stroke="#63b8ff" points="88.2,-74.01 77.67,-75.14 86.61,-80.82 88.2,-74.01"/>
</a>
</g>
</g>
<!-- Node8&#45;&gt;Node6 -->
<g id="edge12_Node000008_Node000006" class="edge">
<title>Node8&#45;&gt;Node6</title>
<g id="a_edge12_Node000008_Node000006"><a xlink:title=" ">
<path fill="none" stroke="#63b8ff" d="M254.13,-110.09C243.91,-102.32 228.93,-90.92 216.74,-81.65"/>
<polygon fill="#63b8ff" stroke="#63b8ff" points="218.98,-78.96 208.9,-75.69 214.74,-84.53 218.98,-78.96"/>
</a>
</g>
</g>
<!-- Node8&#45;&gt;Node7 -->
<g id="edge13_Node000008_Node000007" class="edge">
<title>Node8&#45;&gt;Node7</title>
<g id="a_edge13_Node000008_Node000007"><a xlink:title=" ">
<path fill="none" stroke="#63b8ff" d="M266,-110.33C266,-103.82 266,-94.67 266,-86.37"/>
<polygon fill="#63b8ff" stroke="#63b8ff" points="269.5,-86.37 266,-76.37 262.5,-86.37 269.5,-86.37"/>
</a>
</g>
</g>
<!-- Node9 -->
<g id="Node000009" class="node">
<title>Node9</title>
<g id="a_Node000009"><a xlink:href="Pixels_8hpp.html" target="_top" xlink:title="Contains jngl::Pixels class.">
<polygon fill="white" stroke="#666666" points="386,-74.5 310,-74.5 310,-55.25 386,-55.25 386,-74.5"/>
<text text-anchor="middle" x="348" y="-61" font-family="ui-monospace,monospace" font-size="10.00">Pixels.hpp</text>
</a>
</g>
</g>
<!-- Node8&#45;&gt;Node9 -->
<g id="edge8_Node000008_Node000009" class="edge">
<title>Node8&#45;&gt;Node9</title>
<g id="a_edge8_Node000008_Node000009"><a xlink:title=" ">
<path fill="none" stroke="#63b8ff" d="M279.91,-110.09C292.16,-102.14 310.25,-90.39 324.71,-81"/>
<polygon fill="#63b8ff" stroke="#63b8ff" points="326.27,-84.16 332.75,-75.78 322.46,-78.29 326.27,-84.16"/>
</a>
</g>
</g>
<!-- Node11 -->
<g id="Node000011" class="node">
<title>Node11</title>
<g id="a_Node000011"><a target="_parent" xlink:href="http://en.cppreference.com/w/cpp/header/array.html" xlink:title=" ">
<polygon fill="white" stroke="#666666" points="450,-74.5 404,-74.5 404,-55.25 450,-55.25 450,-74.5"/>
<text text-anchor="middle" x="427" y="-61" font-family="ui-monospace,monospace" font-size="10.00">array</text>
</a>
</g>
</g>
<!-- Node8&#45;&gt;Node11 -->
<g id="edge10_Node000008_Node000011" class="edge">
<title>Node8&#45;&gt;Node11</title>
<g id="a_edge10_Node000008_Node000011"><a xlink:title=" ">
<path fill="none" stroke="#63b8ff" d="M293.31,-110.09C320.84,-100.99 363.38,-86.92 393.06,-77.1"/>
<polygon fill="#63b8ff" stroke="#63b8ff" points="393.91,-80.51 402.31,-74.04 391.71,-73.86 393.91,-80.51"/>
</a>
</g>
</g>
<!-- Node10 -->
<g id="Node000010" class="node">
<title>Node10</title>
<g id="a_Node000010"><a target="_parent" xlink:href="http://en.cppreference.com/w/cpp/header/cstdint.html" xlink:title=" ">
<polygon fill="white" stroke="#666666" points="377,-19.25 319,-19.25 319,0 377,0 377,-19.25"/>
<text text-anchor="middle" x="348" y="-5.75" font-family="ui-monospace,monospace" font-size="10.00">cstdint</text>
</a>
</g>
</g>
<!-- Node9&#45;&gt;Node10 -->
<g id="edge9_Node000009_Node000010" class="edge">
<title>Node9&#45;&gt;Node10</title>
<g id="a_edge9_Node000009_Node000010"><a xlink:title=" ">
<path fill="none" stroke="#63b8ff" d="M348,-55.08C348,-48.57 348,-39.42 348,-31.12"/>
<polygon fill="#63b8ff" stroke="#63b8ff" points="351.5,-31.12 348,-21.12 344.5,-31.12 351.5,-31.12"/>
</a>
</g>
</g>
</g>
</svg>
