<?xml version="1.0" encoding="UTF-8" standalone="no"?>
<!DOCTYPE svg PUBLIC "-//W3C//DTD SVG 1.1//EN"
 "http://www.w3.org/Graphics/SVG/1.1/DTD/svg11.dtd">
<!-- Generated by graphviz version 5.0.0 (0)
 -->
<!-- Title: jngl/Mat3.hpp Pages: 1 -->
<svg width="264pt" height="82pt"
 viewBox="0.00 0.00 264.00 82.00" xmlns="http://www.w3.org/2000/svg" xmlns:xlink="http://www.w3.org/1999/xlink">
<g id="graph0" class="graph" transform="scale(1 1) rotate(0) translate(4 78)">
<title>jngl/Mat3.hpp</title>
<!-- Node1 -->
<g id="node1" class="node">
<title>Node1</title>
<g id="a_node1"><a xlink:title="Contains jngl::Mat3 class.">
<polygon fill="#999999" stroke="#666666" points="178,-74 83,-74 83,-55 178,-55 178,-74"/>
<text text-anchor="middle" x="130.5" y="-62" font-family="ui-monospace,monospace" font-size="10.00">jngl/Mat3.hpp</text>
</a>
</g>
</g>
<!-- Node2 -->
<g id="node2" class="node">
<title>Node2</title>
<g id="a_node2"><a xlink:title=" ">
<polygon fill="#e0e0e0" stroke="#999999" points="125,-19 0,-19 0,0 125,0 125,-19"/>
<text text-anchor="middle" x="62.5" y="-7" font-family="ui-monospace,monospace" font-size="10.00">boost/qvm_lite.hpp</text>
</a>
</g>
</g>
<!-- Node1&#45;&gt;Node2 -->
<g id="edge1" class="edge">
<title>Node1&#45;&gt;Node2</title>
<path fill="none" stroke="#63b8ff" d="M119.57,-54.98C109.42,-47.07 94.08,-35.11 81.85,-25.58"/>
<polygon fill="#63b8ff" stroke="#63b8ff" points="83.66,-22.56 73.62,-19.17 79.36,-28.08 83.66,-22.56"/>
</g>
<!-- Node3 -->
<g id="node3" class="node">
<title>Node3</title>
<g id="a_node3"><a target="_parent" xlink:href="http://en.cppreference.com/w/cpp/header/initializer_list.html" xlink:title=" ">
<polygon fill="white" stroke="#666666" points="256,-19 143,-19 143,0 256,0 256,-19"/>
<text text-anchor="middle" x="199.5" y="-7" font-family="ui-monospace,monospace" font-size="10.00">initializer_list</text>
</a>
</g>
</g>
<!-- Node1&#45;&gt;Node3 -->
<g id="edge2" class="edge">
<title>Node1&#45;&gt;Node3</title>
<path fill="none" stroke="#63b8ff" d="M141.59,-54.98C151.99,-47 167.76,-34.88 180.22,-25.31"/>
<polygon fill="#63b8ff" stroke="#63b8ff" points="182.41,-28.04 188.21,-19.17 178.15,-22.49 182.41,-28.04"/>
</g>
</g>
</svg>
