<?xml version="1.0" encoding="UTF-8" standalone="no"?>
<!DOCTYPE svg PUBLIC "-//W3C//DTD SVG 1.1//EN"
 "http://www.w3.org/Graphics/SVG/1.1/DTD/svg11.dtd">
<!-- Generated by graphviz version 2.43.0 (0)
 -->
<!-- Title: jngl/Mat3.hpp Pages: 1 -->
<svg width="349pt" height="252pt"
 viewBox="0.00 0.00 349.00 252.00" xmlns="http://www.w3.org/2000/svg" xmlns:xlink="http://www.w3.org/1999/xlink">
<g id="graph0" class="graph" transform="scale(1 1) rotate(0) translate(4 248)">
<title>jngl/Mat3.hpp</title>
<polygon fill="white" stroke="transparent" points="-4,4 -4,-248 345,-248 345,4 -4,4"/>
<!-- Node1 -->
<g id="node1" class="node">
<title>Node1</title>
<g id="a_node1"><a xlink:title="Contains jngl::Mat3 class.">
<polygon fill="#bfbfbf" stroke="black" points="103,-224.5 103,-243.5 198,-243.5 198,-224.5 103,-224.5"/>
<text text-anchor="middle" x="150.5" y="-231.5" font-family="'Consolas',monospace" font-size="10.00">jngl/Mat3.hpp</text>
</a>
</g>
</g>
<!-- Node2 -->
<g id="node2" class="node">
<title>Node2</title>
<g id="a_node2"><a xlink:href="framebuffer_8hpp.html" target="_top" xlink:title="Contains jngl::FrameBuffer class.">
<polygon fill="white" stroke="black" points="0,-112.5 0,-131.5 137,-131.5 137,-112.5 0,-112.5"/>
<text text-anchor="middle" x="68.5" y="-119.5" font-family="'Consolas',monospace" font-size="10.00">jngl/framebuffer.hpp</text>
</a>
</g>
</g>
<!-- Node1&#45;&gt;Node2 -->
<g id="edge1" class="edge">
<title>Node1&#45;&gt;Node2</title>
<path fill="none" stroke="midnightblue" d="M123.67,-219.35C111.05,-211.7 96.77,-201.05 87.5,-188 75.11,-170.55 70.73,-145.06 69.24,-131.78"/>
<polygon fill="midnightblue" stroke="midnightblue" points="122.05,-222.46 132.47,-224.39 125.53,-216.39 122.05,-222.46"/>
</g>
<!-- Node5 -->
<g id="node5" class="node">
<title>Node5</title>
<g id="a_node5"><a xlink:href="matrix_8hpp.html" target="_top" xlink:title="Functions related to the global ModelView matrix.">
<polygon fill="white" stroke="black" points="97,-168.5 97,-187.5 204,-187.5 204,-168.5 97,-168.5"/>
<text text-anchor="middle" x="150.5" y="-175.5" font-family="'Consolas',monospace" font-size="10.00">jngl/matrix.hpp</text>
</a>
</g>
</g>
<!-- Node1&#45;&gt;Node5 -->
<g id="edge4" class="edge">
<title>Node1&#45;&gt;Node5</title>
<path fill="none" stroke="midnightblue" d="M150.5,-213.8C150.5,-204.91 150.5,-194.78 150.5,-187.75"/>
<polygon fill="midnightblue" stroke="midnightblue" points="147,-214.08 150.5,-224.08 154,-214.08 147,-214.08"/>
</g>
<!-- Node6 -->
<g id="node6" class="node">
<title>Node6</title>
<g id="a_node6"><a xlink:href="TextLine_8hpp.html" target="_top" xlink:title="Contains jngl::TextLine class.">
<polygon fill="white" stroke="black" points="222,-168.5 222,-187.5 341,-187.5 341,-168.5 222,-168.5"/>
<text text-anchor="middle" x="281.5" y="-175.5" font-family="'Consolas',monospace" font-size="10.00">jngl/TextLine.hpp</text>
</a>
</g>
</g>
<!-- Node1&#45;&gt;Node6 -->
<g id="edge6" class="edge">
<title>Node1&#45;&gt;Node6</title>
<path fill="none" stroke="midnightblue" d="M180.82,-220.5C205.38,-210.38 239.32,-196.39 260.84,-187.52"/>
<polygon fill="midnightblue" stroke="midnightblue" points="179.17,-217.4 171.26,-224.44 181.84,-223.87 179.17,-217.4"/>
</g>
<!-- Node3 -->
<g id="node3" class="node">
<title>Node3</title>
<g id="a_node3"><a xlink:href="all_8hpp.html" target="_top" xlink:title="Includes all JNGL headers except for init.hpp.">
<polygon fill="white" stroke="black" points="140,-56.5 140,-75.5 229,-75.5 229,-56.5 140,-56.5"/>
<text text-anchor="middle" x="184.5" y="-63.5" font-family="'Consolas',monospace" font-size="10.00">jngl/all.hpp</text>
</a>
</g>
</g>
<!-- Node2&#45;&gt;Node3 -->
<g id="edge2" class="edge">
<title>Node2&#45;&gt;Node3</title>
<path fill="none" stroke="midnightblue" d="M96.22,-108.1C117.89,-98.01 147.4,-84.27 166.21,-75.52"/>
<polygon fill="midnightblue" stroke="midnightblue" points="94.47,-105.05 86.88,-112.44 97.42,-111.4 94.47,-105.05"/>
</g>
<!-- Node4 -->
<g id="node4" class="node">
<title>Node4</title>
<g id="a_node4"><a xlink:href="jngl_8hpp.html" target="_top" xlink:title="Includes jngl/all.hpp.">
<polygon fill="white" stroke="black" points="152,-0.5 152,-19.5 217,-19.5 217,-0.5 152,-0.5"/>
<text text-anchor="middle" x="184.5" y="-7.5" font-family="'Consolas',monospace" font-size="10.00">jngl.hpp</text>
</a>
</g>
</g>
<!-- Node3&#45;&gt;Node4 -->
<g id="edge3" class="edge">
<title>Node3&#45;&gt;Node4</title>
<path fill="none" stroke="midnightblue" d="M184.5,-45.8C184.5,-36.91 184.5,-26.78 184.5,-19.75"/>
<polygon fill="midnightblue" stroke="midnightblue" points="181,-46.08 184.5,-56.08 188,-46.08 181,-46.08"/>
</g>
<!-- Node5&#45;&gt;Node3 -->
<g id="edge5" class="edge">
<title>Node5&#45;&gt;Node3</title>
<path fill="none" stroke="midnightblue" d="M156.16,-158.67C163.6,-134.62 176.34,-93.39 181.84,-75.59"/>
<polygon fill="midnightblue" stroke="midnightblue" points="152.78,-157.78 153.17,-168.37 159.46,-159.85 152.78,-157.78"/>
</g>
<!-- Node6&#45;&gt;Node3 -->
<g id="edge7" class="edge">
<title>Node6&#45;&gt;Node3</title>
<path fill="none" stroke="midnightblue" d="M258.69,-162.74C246.96,-154.67 232.97,-143.84 222.5,-132 206.74,-114.18 194.18,-88.84 188.24,-75.69"/>
<polygon fill="midnightblue" stroke="midnightblue" points="256.86,-165.72 267.12,-168.34 260.73,-159.89 256.86,-165.72"/>
</g>
<!-- Node7 -->
<g id="node7" class="node">
<title>Node7</title>
<g id="a_node7"><a xlink:href="Label_8hpp.html" target="_top" xlink:title="Contains jngl::Label class.">
<polygon fill="white" stroke="black" points="232,-112.5 232,-131.5 333,-131.5 333,-112.5 232,-112.5"/>
<text text-anchor="middle" x="282.5" y="-119.5" font-family="'Consolas',monospace" font-size="10.00">jngl/Label.hpp</text>
</a>
</g>
</g>
<!-- Node6&#45;&gt;Node7 -->
<g id="edge8" class="edge">
<title>Node6&#45;&gt;Node7</title>
<path fill="none" stroke="midnightblue" d="M281.86,-157.8C282.02,-148.91 282.21,-138.78 282.34,-131.75"/>
<polygon fill="midnightblue" stroke="midnightblue" points="278.35,-158.02 281.67,-168.08 285.35,-158.15 278.35,-158.02"/>
</g>
<!-- Node7&#45;&gt;Node3 -->
<g id="edge9" class="edge">
<title>Node7&#45;&gt;Node3</title>
<path fill="none" stroke="midnightblue" d="M257.91,-107.45C239.82,-97.48 215.77,-84.23 200.21,-75.65"/>
<polygon fill="midnightblue" stroke="midnightblue" points="256.31,-110.56 266.75,-112.32 259.69,-104.43 256.31,-110.56"/>
</g>
</g>
</svg>
