<?xml version="1.0" encoding="UTF-8" standalone="no"?>
<!DOCTYPE svg PUBLIC "-//W3C//DTD SVG 1.1//EN"
 "http://www.w3.org/Graphics/SVG/1.1/DTD/svg11.dtd">
<!-- Generated by graphviz version 2.42.4 (0)
 -->
<!-- Title: jngl/Mat3.hpp Pages: 1 -->
<svg width="437pt" height="84pt"
 viewBox="0.00 0.00 437.00 84.00" xmlns="http://www.w3.org/2000/svg" xmlns:xlink="http://www.w3.org/1999/xlink">
<g id="graph0" class="graph" transform="scale(1 1) rotate(0) translate(4 80)">
<title>jngl/Mat3.hpp</title>
<polygon fill="white" stroke="transparent" points="-4,4 -4,-80 433,-80 433,4 -4,4"/>
<!-- Node1 -->
<g id="node1" class="node">
<title>Node1</title>
<g id="a_node1"><a xlink:title="Contains jngl::Mat3 class.">
<polygon fill="#bfbfbf" stroke="black" points="170,-56.5 170,-75.5 265,-75.5 265,-56.5 170,-56.5"/>
<text text-anchor="middle" x="217.5" y="-63.5" font-family="'Consolas',monospace" font-size="10.00">jngl/Mat3.hpp</text>
</a>
</g>
</g>
<!-- Node2 -->
<g id="node2" class="node">
<title>Node2</title>
<g id="a_node2"><a xlink:title=" ">
<polygon fill="white" stroke="#bfbfbf" points="0,-0.5 0,-19.5 119,-19.5 119,-0.5 0,-0.5"/>
<text text-anchor="middle" x="59.5" y="-7.5" font-family="'Consolas',monospace" font-size="10.00">boost/qvm/mat.hpp</text>
</a>
</g>
</g>
<!-- Node1&#45;&gt;Node2 -->
<g id="edge1" class="edge">
<title>Node1&#45;&gt;Node2</title>
<path fill="none" stroke="midnightblue" d="M192.46,-56.44C165.88,-47.36 123.69,-32.94 93.98,-22.78"/>
<polygon fill="midnightblue" stroke="midnightblue" points="95.01,-19.44 84.42,-19.52 92.75,-26.06 95.01,-19.44"/>
</g>
<!-- Node3 -->
<g id="node3" class="node">
<title>Node3</title>
<g id="a_node3"><a xlink:title=" ">
<polygon fill="white" stroke="#bfbfbf" points="137,-0.5 137,-19.5 298,-19.5 298,-0.5 137,-0.5"/>
<text text-anchor="middle" x="217.5" y="-7.5" font-family="'Consolas',monospace" font-size="10.00">boost/qvm/mat_traits.hpp</text>
</a>
</g>
</g>
<!-- Node1&#45;&gt;Node3 -->
<g id="edge2" class="edge">
<title>Node1&#45;&gt;Node3</title>
<path fill="none" stroke="midnightblue" d="M217.5,-56.08C217.5,-49.01 217.5,-38.86 217.5,-29.99"/>
<polygon fill="midnightblue" stroke="midnightblue" points="221,-29.75 217.5,-19.75 214,-29.75 221,-29.75"/>
</g>
<!-- Node4 -->
<g id="node4" class="node">
<title>Node4</title>
<g id="a_node4"><a target="_parent" xlink:href="http://en.cppreference.com/w/cpp/header/initializer_list.html" target="_top" xlink:title=" ">
<polygon fill="white" stroke="black" points="316,-0.5 316,-19.5 429,-19.5 429,-0.5 316,-0.5"/>
<text text-anchor="middle" x="372.5" y="-7.5" font-family="'Consolas',monospace" font-size="10.00">initializer_list</text>
</a>
</g>
</g>
<!-- Node1&#45;&gt;Node4 -->
<g id="edge3" class="edge">
<title>Node1&#45;&gt;Node4</title>
<path fill="none" stroke="midnightblue" d="M242.06,-56.44C268.02,-47.4 309.17,-33.06 338.3,-22.92"/>
<polygon fill="midnightblue" stroke="midnightblue" points="339.76,-26.11 348.05,-19.52 337.46,-19.5 339.76,-26.11"/>
</g>
</g>
</svg>
