<?xml version="1.0" encoding="UTF-8" standalone="no"?>
<!DOCTYPE svg PUBLIC "-//W3C//DTD SVG 1.1//EN"
 "http://www.w3.org/Graphics/SVG/1.1/DTD/svg11.dtd">
<!-- Generated by graphviz version 2.44.0 (0)
 -->
<!-- Title: jngl/Mat3.hpp Pages: 1 -->
<svg width="264pt" height="196pt"
 viewBox="0.00 0.00 264.00 196.00" xmlns="http://www.w3.org/2000/svg" xmlns:xlink="http://www.w3.org/1999/xlink">
<g id="graph0" class="graph" transform="scale(1 1) rotate(0) translate(4 192)">
<title>jngl/Mat3.hpp</title>
<polygon fill="white" stroke="transparent" points="-4,4 -4,-192 260,-192 260,4 -4,4"/>
<!-- Node1 -->
<g id="node1" class="node">
<title>Node1</title>
<g id="a_node1"><a xlink:title="Contains jngl::Mat3 class.">
<polygon fill="#bfbfbf" stroke="black" points="86,-168.5 86,-187.5 181,-187.5 181,-168.5 86,-168.5"/>
<text text-anchor="middle" x="133.5" y="-175.5" font-family="'Consolas',monospace" font-size="10.00">jngl/Mat3.hpp</text>
</a>
</g>
</g>
<!-- Node2 -->
<g id="node2" class="node">
<title>Node2</title>
<g id="a_node2"><a xlink:href="framebuffer_8hpp.html" target="_top" xlink:title="Contains jngl::FrameBuffer class.">
<polygon fill="white" stroke="black" points="0,-112.5 0,-131.5 131,-131.5 131,-112.5 0,-112.5"/>
<text text-anchor="middle" x="65.5" y="-119.5" font-family="'Consolas',monospace" font-size="10.00">jngl/framebuffer.hpp</text>
</a>
</g>
</g>
<!-- Node1&#45;&gt;Node2 -->
<g id="edge1" class="edge">
<title>Node1&#45;&gt;Node2</title>
<path fill="none" stroke="midnightblue" d="M114.74,-162.1C102.5,-152.38 86.94,-140.03 76.62,-131.83"/>
<polygon fill="midnightblue" stroke="midnightblue" points="112.57,-164.85 122.57,-168.32 116.92,-159.36 112.57,-164.85"/>
</g>
<!-- Node5 -->
<g id="node5" class="node">
<title>Node5</title>
<g id="a_node5"><a xlink:href="matrix_8hpp.html" target="_top" xlink:title="Functions related to the global ModelView matrix.">
<polygon fill="white" stroke="black" points="149,-112.5 149,-131.5 256,-131.5 256,-112.5 149,-112.5"/>
<text text-anchor="middle" x="202.5" y="-119.5" font-family="'Consolas',monospace" font-size="10.00">jngl/matrix.hpp</text>
</a>
</g>
</g>
<!-- Node1&#45;&gt;Node5 -->
<g id="edge4" class="edge">
<title>Node1&#45;&gt;Node5</title>
<path fill="none" stroke="midnightblue" d="M152.54,-162.1C164.96,-152.38 180.74,-140.03 191.21,-131.83"/>
<polygon fill="midnightblue" stroke="midnightblue" points="150.3,-159.4 144.59,-168.32 154.62,-164.92 150.3,-159.4"/>
</g>
<!-- Node3 -->
<g id="node3" class="node">
<title>Node3</title>
<g id="a_node3"><a xlink:href="all_8hpp.html" target="_top" xlink:title="Includes all JNGL headers except for init.hpp.">
<polygon fill="white" stroke="black" points="89,-56.5 89,-75.5 178,-75.5 178,-56.5 89,-56.5"/>
<text text-anchor="middle" x="133.5" y="-63.5" font-family="'Consolas',monospace" font-size="10.00">jngl/all.hpp</text>
</a>
</g>
</g>
<!-- Node2&#45;&gt;Node3 -->
<g id="edge2" class="edge">
<title>Node2&#45;&gt;Node3</title>
<path fill="none" stroke="midnightblue" d="M84.26,-106.1C96.5,-96.38 112.06,-84.03 122.38,-75.83"/>
<polygon fill="midnightblue" stroke="midnightblue" points="82.08,-103.36 76.43,-112.32 86.43,-108.85 82.08,-103.36"/>
</g>
<!-- Node4 -->
<g id="node4" class="node">
<title>Node4</title>
<g id="a_node4"><a xlink:href="jngl_8hpp.html" target="_top" xlink:title="Includes jngl/all.hpp.">
<polygon fill="white" stroke="black" points="101,-0.5 101,-19.5 166,-19.5 166,-0.5 101,-0.5"/>
<text text-anchor="middle" x="133.5" y="-7.5" font-family="'Consolas',monospace" font-size="10.00">jngl.hpp</text>
</a>
</g>
</g>
<!-- Node3&#45;&gt;Node4 -->
<g id="edge3" class="edge">
<title>Node3&#45;&gt;Node4</title>
<path fill="none" stroke="midnightblue" d="M133.5,-45.8C133.5,-36.91 133.5,-26.78 133.5,-19.75"/>
<polygon fill="midnightblue" stroke="midnightblue" points="130,-46.08 133.5,-56.08 137,-46.08 130,-46.08"/>
</g>
<!-- Node5&#45;&gt;Node3 -->
<g id="edge5" class="edge">
<title>Node5&#45;&gt;Node3</title>
<path fill="none" stroke="midnightblue" d="M183.46,-106.1C171.04,-96.38 155.26,-84.03 144.79,-75.83"/>
<polygon fill="midnightblue" stroke="midnightblue" points="181.38,-108.92 191.41,-112.32 185.7,-103.4 181.38,-108.92"/>
</g>
</g>
</svg>
