<?xml version="1.0" encoding="UTF-8" standalone="no"?>
<!DOCTYPE svg PUBLIC "-//W3C//DTD SVG 1.1//EN"
 "http://www.w3.org/Graphics/SVG/1.1/DTD/svg11.dtd">
<!-- Generated by graphviz version 9.0.0 (20230911.1827)
 -->
<!-- Title: jngl/Mat3.hpp Pages: 1 -->
<svg width="533pt" height="193pt"
 viewBox="0.00 0.00 533.00 193.00" xmlns="http://www.w3.org/2000/svg" xmlns:xlink="http://www.w3.org/1999/xlink">
<g id="graph0" class="graph" transform="scale(1 1) rotate(0) translate(4 189)">
<title>jngl/Mat3.hpp</title>
<!-- Node1 -->
<g id="Node000001" class="node">
<title>Node1</title>
<g id="a_Node000001"><a xlink:title="Contains jngl::Mat3 class.">
<polygon fill="#999999" stroke="#666666" points="328,-185 234,-185 234,-165.75 328,-165.75 328,-185"/>
<text text-anchor="middle" x="281" y="-171.5" font-family="ui-monospace,monospace" font-size="10.00">jngl/Mat3.hpp</text>
</a>
</g>
</g>
<!-- Node2 -->
<g id="Node000002" class="node">
<title>Node2</title>
<g id="a_Node000002"><a xlink:href="FrameBuffer_8hpp.html" target="_top" xlink:title="Contains jngl::FrameBuffer class.">
<polygon fill="white" stroke="#666666" points="130,-74.5 0,-74.5 0,-55.25 130,-55.25 130,-74.5"/>
<text text-anchor="middle" x="65" y="-61" font-family="ui-monospace,monospace" font-size="10.00">jngl/FrameBuffer.hpp</text>
</a>
</g>
</g>
<!-- Node1&#45;&gt;Node2 -->
<g id="edge1_Node000001_Node000002" class="edge">
<title>Node1&#45;&gt;Node2</title>
<g id="a_edge1_Node000001_Node000002"><a xlink:title=" ">
<path fill="none" stroke="#63b8ff" d="M222.37,-167.83C171.45,-160.98 102.85,-148.57 83,-129.75 67.62,-115.16 65.05,-88.55 64.82,-74.73"/>
<polygon fill="#63b8ff" stroke="#63b8ff" points="221.72,-171.27 232.09,-169.09 222.62,-164.33 221.72,-171.27"/>
</a>
</g>
</g>
<!-- Node4 -->
<g id="Node000004" class="node">
<title>Node4</title>
<g id="a_Node000004"><a xlink:href="TextLine_8hpp.html" target="_top" xlink:title="Contains jngl::TextLine class.">
<polygon fill="white" stroke="#666666" points="210,-129.75 92,-129.75 92,-110.5 210,-110.5 210,-129.75"/>
<text text-anchor="middle" x="151" y="-116.25" font-family="ui-monospace,monospace" font-size="10.00">jngl/TextLine.hpp</text>
</a>
</g>
</g>
<!-- Node1&#45;&gt;Node4 -->
<g id="edge3_Node000001_Node000004" class="edge">
<title>Node1&#45;&gt;Node4</title>
<g id="a_edge3_Node000001_Node000004"><a xlink:title=" ">
<path fill="none" stroke="#63b8ff" d="M248.43,-161.03C224.93,-151.41 193.83,-138.67 173.16,-130.2"/>
<polygon fill="#63b8ff" stroke="#63b8ff" points="246.97,-164.22 257.55,-164.77 249.62,-157.74 246.97,-164.22"/>
</a>
</g>
</g>
<!-- Node6 -->
<g id="Node000006" class="node">
<title>Node6</title>
<g id="a_Node000006"><a xlink:href="Widget_8hpp.html" target="_top" xlink:title="Contains jngl::Container class.">
<polygon fill="white" stroke="#666666" points="334,-129.75 228,-129.75 228,-110.5 334,-110.5 334,-129.75"/>
<text text-anchor="middle" x="281" y="-116.25" font-family="ui-monospace,monospace" font-size="10.00">jngl/Widget.hpp</text>
</a>
</g>
</g>
<!-- Node1&#45;&gt;Node6 -->
<g id="edge7_Node000001_Node000006" class="edge">
<title>Node1&#45;&gt;Node6</title>
<g id="a_edge7_Node000001_Node000006"><a xlink:title=" ">
<path fill="none" stroke="#63b8ff" d="M281,-154.13C281,-145.84 281,-136.67 281,-130.11"/>
<polygon fill="#63b8ff" stroke="#63b8ff" points="277.5,-154.07 281,-164.07 284.5,-154.07 277.5,-154.07"/>
</a>
</g>
</g>
<!-- Node7 -->
<g id="Node000007" class="node">
<title>Node7</title>
<g id="a_Node000007"><a xlink:href="matrix_8hpp.html" target="_top" xlink:title="Functions related to the global ModelView matrix.">
<polygon fill="white" stroke="#666666" points="525,-74.5 419,-74.5 419,-55.25 525,-55.25 525,-74.5"/>
<text text-anchor="middle" x="472" y="-61" font-family="ui-monospace,monospace" font-size="10.00">jngl/matrix.hpp</text>
</a>
</g>
</g>
<!-- Node1&#45;&gt;Node7 -->
<g id="edge10_Node000001_Node000007" class="edge">
<title>Node1&#45;&gt;Node7</title>
<g id="a_edge10_Node000001_Node000007"><a xlink:title=" ">
<path fill="none" stroke="#63b8ff" d="M339.67,-173.86C377.38,-170.39 424.79,-159.69 455,-129.75 470,-114.89 472.22,-88.39 472.28,-74.66"/>
<polygon fill="#63b8ff" stroke="#63b8ff" points="339.53,-170.36 329.82,-174.6 340.06,-177.34 339.53,-170.36"/>
</a>
</g>
</g>
<!-- Node8 -->
<g id="Node000008" class="node">
<title>Node8</title>
<g id="a_Node000008"><a xlink:href="text_8hpp.html" target="_top" xlink:title=" ">
<polygon fill="white" stroke="#666666" points="446,-129.75 352,-129.75 352,-110.5 446,-110.5 446,-129.75"/>
<text text-anchor="middle" x="399" y="-116.25" font-family="ui-monospace,monospace" font-size="10.00">jngl/text.hpp</text>
</a>
</g>
</g>
<!-- Node1&#45;&gt;Node8 -->
<g id="edge12_Node000001_Node000008" class="edge">
<title>Node1&#45;&gt;Node8</title>
<g id="a_edge12_Node000001_Node000008"><a xlink:title=" ">
<path fill="none" stroke="#63b8ff" d="M311.44,-160.64C332.66,-151.06 360.37,-138.56 378.88,-130.2"/>
<polygon fill="#63b8ff" stroke="#63b8ff" points="310.07,-157.42 302.4,-164.72 312.95,-163.8 310.07,-157.42"/>
</a>
</g>
</g>
<!-- Node3 -->
<g id="Node000003" class="node">
<title>Node3</title>
<g id="a_Node000003"><a xlink:href="jngl_8hpp.html" target="_top" xlink:title="Includes all JNGL headers except for init.hpp.">
<polygon fill="white" stroke="#666666" points="315,-19.25 251,-19.25 251,0 315,0 315,-19.25"/>
<text text-anchor="middle" x="283" y="-5.75" font-family="ui-monospace,monospace" font-size="10.00">jngl.hpp</text>
</a>
</g>
</g>
<!-- Node2&#45;&gt;Node3 -->
<g id="edge2_Node000002_Node000003" class="edge">
<title>Node2&#45;&gt;Node3</title>
<g id="a_edge2_Node000002_Node000003"><a xlink:title=" ">
<path fill="none" stroke="#63b8ff" d="M113.02,-52.15C154.89,-41.92 214.45,-27.37 250.82,-18.49"/>
<polygon fill="#63b8ff" stroke="#63b8ff" points="112.33,-48.71 103.45,-54.48 114,-55.51 112.33,-48.71"/>
</a>
</g>
</g>
<!-- Node4&#45;&gt;Node3 -->
<g id="edge4_Node000004_Node000003" class="edge">
<title>Node4&#45;&gt;Node3</title>
<g id="a_edge4_Node000004_Node000003"><a xlink:title=" ">
<path fill="none" stroke="#63b8ff" d="M157.63,-99.31C163.12,-85.47 172.12,-67.36 185,-55.25 203.53,-37.84 230.03,-26.33 250.8,-19.37"/>
<polygon fill="#63b8ff" stroke="#63b8ff" points="154.35,-98.11 154.22,-108.7 160.93,-100.5 154.35,-98.11"/>
</a>
</g>
</g>
<!-- Node5 -->
<g id="Node000005" class="node">
<title>Node5</title>
<g id="a_Node000005"><a xlink:href="Label_8hpp.html" target="_top" xlink:title="Contains jngl::Label class.">
<polygon fill="white" stroke="#666666" points="294,-74.5 194,-74.5 194,-55.25 294,-55.25 294,-74.5"/>
<text text-anchor="middle" x="244" y="-61" font-family="ui-monospace,monospace" font-size="10.00">jngl/Label.hpp</text>
</a>
</g>
</g>
<!-- Node4&#45;&gt;Node5 -->
<g id="edge5_Node000004_Node000005" class="edge">
<title>Node4&#45;&gt;Node5</title>
<g id="a_edge5_Node000004_Node000005"><a xlink:title=" ">
<path fill="none" stroke="#63b8ff" d="M176.38,-104.59C192.91,-95.13 213.96,-83.08 228.15,-74.95"/>
<polygon fill="#63b8ff" stroke="#63b8ff" points="175.03,-101.33 168.09,-109.34 178.51,-107.41 175.03,-101.33"/>
</a>
</g>
</g>
<!-- Node5&#45;&gt;Node3 -->
<g id="edge6_Node000005_Node000003" class="edge">
<title>Node5&#45;&gt;Node3</title>
<g id="a_edge6_Node000005_Node000003"><a xlink:title=" ">
<path fill="none" stroke="#63b8ff" d="M257.14,-45.94C263.62,-37.09 271.16,-26.79 276.42,-19.61"/>
<polygon fill="#63b8ff" stroke="#63b8ff" points="254.42,-43.73 251.33,-53.86 260.07,-47.86 254.42,-43.73"/>
</a>
</g>
</g>
<!-- Node6&#45;&gt;Node3 -->
<g id="edge8_Node000006_Node000003" class="edge">
<title>Node6&#45;&gt;Node3</title>
<g id="a_edge8_Node000006_Node000003"><a xlink:title=" ">
<path fill="none" stroke="#63b8ff" d="M292.66,-100.31C296.79,-92.61 300.92,-83.42 303,-74.5 307.64,-54.58 296.45,-31.86 289,-19.6"/>
<polygon fill="#63b8ff" stroke="#63b8ff" points="289.78,-98.3 287.81,-108.71 295.84,-101.81 289.78,-98.3"/>
</a>
</g>
</g>
<!-- Node6&#45;&gt;Node5 -->
<g id="edge9_Node000006_Node000005" class="edge">
<title>Node6&#45;&gt;Node5</title>
<g id="a_edge9_Node000006_Node000005"><a xlink:title=" ">
<path fill="none" stroke="#63b8ff" d="M268.34,-100.9C262.23,-92.11 255.18,-81.96 250.24,-74.86"/>
<polygon fill="#63b8ff" stroke="#63b8ff" points="265.45,-102.87 274.03,-109.09 271.19,-98.88 265.45,-102.87"/>
</a>
</g>
</g>
<!-- Node7&#45;&gt;Node3 -->
<g id="edge11_Node000007_Node000003" class="edge">
<title>Node7&#45;&gt;Node3</title>
<g id="a_edge11_Node000007_Node000003"><a xlink:title=" ">
<path fill="none" stroke="#63b8ff" d="M429.21,-51.82C394.61,-42.07 346.63,-28.55 315.22,-19.7"/>
<polygon fill="#63b8ff" stroke="#63b8ff" points="427.91,-55.09 438.48,-54.43 429.81,-48.35 427.91,-55.09"/>
</a>
</g>
</g>
<!-- Node8&#45;&gt;Node3 -->
<g id="edge13_Node000008_Node000003" class="edge">
<title>Node8&#45;&gt;Node3</title>
<g id="a_edge13_Node000008_Node000003"><a xlink:title=" ">
<path fill="none" stroke="#63b8ff" d="M381.32,-102.59C356.48,-79.36 312.11,-37.85 292.62,-19.63"/>
<polygon fill="#63b8ff" stroke="#63b8ff" points="378.71,-104.94 388.4,-109.21 383.49,-99.82 378.71,-104.94"/>
</a>
</g>
</g>
<!-- Node8&#45;&gt;Node5 -->
<g id="edge14_Node000008_Node000005" class="edge">
<title>Node8&#45;&gt;Node5</title>
<g id="a_edge14_Node000008_Node000005"><a xlink:title=" ">
<path fill="none" stroke="#63b8ff" d="M362.05,-106.43C333.83,-96.74 295.63,-83.61 270.42,-74.95"/>
<polygon fill="#63b8ff" stroke="#63b8ff" points="360.68,-109.66 371.27,-109.6 362.95,-103.04 360.68,-109.66"/>
</a>
</g>
</g>
</g>
</svg>
