<?xml version="1.0" encoding="UTF-8" standalone="no"?>
<!DOCTYPE svg PUBLIC "-//W3C//DTD SVG 1.1//EN"
 "http://www.w3.org/Graphics/SVG/1.1/DTD/svg11.dtd">
<!-- Generated by graphviz version 5.0.0 (0)
 -->
<!-- Title: jngl/Mat3.hpp Pages: 1 -->
<svg width="372pt" height="192pt"
 viewBox="0.00 0.00 372.00 192.00" xmlns="http://www.w3.org/2000/svg" xmlns:xlink="http://www.w3.org/1999/xlink">
<g id="graph0" class="graph" transform="scale(1 1) rotate(0) translate(4 188)">
<title>jngl/Mat3.hpp</title>
<!-- Node1 -->
<g id="node1" class="node">
<title>Node1</title>
<g id="a_node1"><a xlink:title="Contains jngl::Mat3 class.">
<polygon fill="#999999" stroke="#666666" points="214,-184 119,-184 119,-165 214,-165 214,-184"/>
<text text-anchor="middle" x="166.5" y="-172" font-family="ui-monospace,monospace" font-size="10.00">jngl/Mat3.hpp</text>
</a>
</g>
</g>
<!-- Node2 -->
<g id="node2" class="node">
<title>Node2</title>
<g id="a_node2"><a xlink:href="FrameBuffer_8hpp.html" target="_top" xlink:title="Contains jngl::FrameBuffer class.">
<polygon fill="white" stroke="#666666" points="131,-74 0,-74 0,-55 131,-55 131,-74"/>
<text text-anchor="middle" x="65.5" y="-62" font-family="ui-monospace,monospace" font-size="10.00">jngl/FrameBuffer.hpp</text>
</a>
</g>
</g>
<!-- Node1&#45;&gt;Node2 -->
<g id="edge1" class="edge">
<title>Node1&#45;&gt;Node2</title>
<path fill="none" stroke="#63b8ff" d="M139.29,-160C125.79,-152.31 109.96,-141.67 98.5,-129 83.33,-112.23 73.05,-87.21 68.38,-74.15"/>
<polygon fill="#63b8ff" stroke="#63b8ff" points="137.73,-163.14 148.18,-164.85 141.08,-156.99 137.73,-163.14"/>
</g>
<!-- Node4 -->
<g id="node4" class="node">
<title>Node4</title>
<g id="a_node4"><a xlink:href="TextLine_8hpp.html" target="_top" xlink:title="Contains jngl::TextLine class.">
<polygon fill="white" stroke="#666666" points="226,-129 107,-129 107,-110 226,-110 226,-129"/>
<text text-anchor="middle" x="166.5" y="-117" font-family="ui-monospace,monospace" font-size="10.00">jngl/TextLine.hpp</text>
</a>
</g>
</g>
<!-- Node1&#45;&gt;Node4 -->
<g id="edge3" class="edge">
<title>Node1&#45;&gt;Node4</title>
<path fill="none" stroke="#63b8ff" d="M166.5,-154.66C166.5,-145.93 166.5,-135.99 166.5,-129.09"/>
<polygon fill="#63b8ff" stroke="#63b8ff" points="163,-154.75 166.5,-164.75 170,-154.75 163,-154.75"/>
</g>
<!-- Node6 -->
<g id="node6" class="node">
<title>Node6</title>
<g id="a_node6"><a xlink:href="matrix_8hpp.html" target="_top" xlink:title="Functions related to the global ModelView matrix.">
<polygon fill="white" stroke="#666666" points="364,-129 257,-129 257,-110 364,-110 364,-129"/>
<text text-anchor="middle" x="310.5" y="-117" font-family="ui-monospace,monospace" font-size="10.00">jngl/matrix.hpp</text>
</a>
</g>
</g>
<!-- Node1&#45;&gt;Node6 -->
<g id="edge7" class="edge">
<title>Node1&#45;&gt;Node6</title>
<path fill="none" stroke="#63b8ff" d="M199.32,-161.42C226.03,-151.59 263.1,-137.95 286.94,-129.17"/>
<polygon fill="#63b8ff" stroke="#63b8ff" points="197.81,-158.25 189.64,-164.98 200.23,-164.82 197.81,-158.25"/>
</g>
<!-- Node3 -->
<g id="node3" class="node">
<title>Node3</title>
<g id="a_node3"><a xlink:href="jngl_8hpp.html" target="_top" xlink:title="Includes all JNGL headers except for init.hpp.">
<polygon fill="white" stroke="#666666" points="231,-19 166,-19 166,0 231,0 231,-19"/>
<text text-anchor="middle" x="198.5" y="-7" font-family="ui-monospace,monospace" font-size="10.00">jngl.hpp</text>
</a>
</g>
</g>
<!-- Node2&#45;&gt;Node3 -->
<g id="edge2" class="edge">
<title>Node2&#45;&gt;Node3</title>
<path fill="none" stroke="#63b8ff" d="M96.47,-51.16C121.09,-41.35 154.91,-27.87 176.74,-19.17"/>
<polygon fill="#63b8ff" stroke="#63b8ff" points="94.86,-48.03 86.87,-54.98 97.45,-54.53 94.86,-48.03"/>
</g>
<!-- Node4&#45;&gt;Node3 -->
<g id="edge4" class="edge">
<title>Node4&#45;&gt;Node3</title>
<path fill="none" stroke="#63b8ff" d="M169.3,-99.82C171.47,-87.03 174.88,-69.79 179.5,-55 183.51,-42.17 189.93,-28 194.18,-19.17"/>
<polygon fill="#63b8ff" stroke="#63b8ff" points="165.84,-99.31 167.72,-109.73 172.75,-100.41 165.84,-99.31"/>
</g>
<!-- Node5 -->
<g id="node5" class="node">
<title>Node5</title>
<g id="a_node5"><a xlink:href="Label_8hpp.html" target="_top" xlink:title="Contains jngl::Label class.">
<polygon fill="white" stroke="#666666" points="289,-74 188,-74 188,-55 289,-55 289,-74"/>
<text text-anchor="middle" x="238.5" y="-62" font-family="ui-monospace,monospace" font-size="10.00">jngl/Label.hpp</text>
</a>
</g>
</g>
<!-- Node4&#45;&gt;Node5 -->
<g id="edge5" class="edge">
<title>Node4&#45;&gt;Node5</title>
<path fill="none" stroke="#63b8ff" d="M186.37,-103.88C199.32,-94.34 215.8,-82.21 226.72,-74.17"/>
<polygon fill="#63b8ff" stroke="#63b8ff" points="184.05,-101.24 178.07,-109.98 188.2,-106.88 184.05,-101.24"/>
</g>
<!-- Node5&#45;&gt;Node3 -->
<g id="edge6" class="edge">
<title>Node5&#45;&gt;Node3</title>
<path fill="none" stroke="#63b8ff" d="M225.8,-46.67C218.87,-37.5 210.59,-26.52 204.98,-19.09"/>
<polygon fill="#63b8ff" stroke="#63b8ff" points="223.08,-48.87 231.89,-54.75 228.66,-44.66 223.08,-48.87"/>
</g>
<!-- Node6&#45;&gt;Node3 -->
<g id="edge8" class="edge">
<title>Node6&#45;&gt;Node3</title>
<path fill="none" stroke="#63b8ff" d="M311.36,-99.42C311,-85.71 308.4,-67.51 298.5,-55 281.99,-34.14 253.63,-22.79 231.32,-16.78"/>
<polygon fill="#63b8ff" stroke="#63b8ff" points="307.86,-99.62 311.25,-109.66 314.86,-99.7 307.86,-99.62"/>
</g>
</g>
</svg>
