<?xml version="1.0" encoding="UTF-8" standalone="no"?>
<!DOCTYPE svg PUBLIC "-//W3C//DTD SVG 1.1//EN"
 "http://www.w3.org/Graphics/SVG/1.1/DTD/svg11.dtd">
<!-- Generated by graphviz version 12.1.0 (20240811.2233)
 -->
<!-- Title: jngl/Mat3.hpp Pages: 1 -->
<svg width="606pt" height="193pt"
 viewBox="0.00 0.00 606.00 193.00" xmlns="http://www.w3.org/2000/svg" xmlns:xlink="http://www.w3.org/1999/xlink">
<g id="graph0" class="graph" transform="scale(1 1) rotate(0) translate(4 189)">
<title>jngl/Mat3.hpp</title>
<!-- Node1 -->
<g id="Node000001" class="node">
<title>Node1</title>
<g id="a_Node000001"><a xlink:title="Contains jngl::Mat3 class.">
<polygon fill="#999999" stroke="#666666" points="334,-185 240,-185 240,-165.75 334,-165.75 334,-185"/>
<text text-anchor="middle" x="287" y="-171.5" font-family="ui-monospace,monospace" font-size="10.00">jngl/Mat3.hpp</text>
</a>
</g>
</g>
<!-- Node2 -->
<g id="Node000002" class="node">
<title>Node2</title>
<g id="a_Node000002"><a xlink:href="FrameBuffer_8hpp.html" target="_top" xlink:title="Contains jngl::FrameBuffer class.">
<polygon fill="white" stroke="#666666" points="130,-74.5 0,-74.5 0,-55.25 130,-55.25 130,-74.5"/>
<text text-anchor="middle" x="65" y="-61" font-family="ui-monospace,monospace" font-size="10.00">jngl/FrameBuffer.hpp</text>
</a>
</g>
</g>
<!-- Node1&#45;&gt;Node2 -->
<g id="edge1_Node000001_Node000002" class="edge">
<title>Node1&#45;&gt;Node2</title>
<g id="a_edge1_Node000001_Node000002"><a xlink:title=" ">
<path fill="none" stroke="#63b8ff" d="M234.12,-162.5C206.85,-155.19 173.62,-144.38 146,-129.75 117.2,-114.49 88.41,-88.65 74.17,-74.98"/>
<polygon fill="#63b8ff" stroke="#63b8ff" points="232.99,-165.82 243.55,-164.94 234.75,-159.05 232.99,-165.82"/>
</a>
</g>
</g>
<!-- Node4 -->
<g id="Node000004" class="node">
<title>Node4</title>
<g id="a_Node000004"><a xlink:href="Rect_8hpp.html" target="_top" xlink:title="Contains jngl::Rect class.">
<polygon fill="white" stroke="#666666" points="242,-74.5 148,-74.5 148,-55.25 242,-55.25 242,-74.5"/>
<text text-anchor="middle" x="195" y="-61" font-family="ui-monospace,monospace" font-size="10.00">jngl/Rect.hpp</text>
</a>
</g>
</g>
<!-- Node1&#45;&gt;Node4 -->
<g id="edge3_Node000001_Node000004" class="edge">
<title>Node1&#45;&gt;Node4</title>
<g id="a_edge3_Node000001_Node000004"><a xlink:title=" ">
<path fill="none" stroke="#63b8ff" d="M228.7,-170.06C201.34,-164.76 171.06,-153.47 154,-129.75 140.38,-110.82 165.19,-87.53 181.81,-74.96"/>
<polygon fill="#63b8ff" stroke="#63b8ff" points="227.87,-173.47 238.31,-171.67 229.03,-166.56 227.87,-173.47"/>
</a>
</g>
</g>
<!-- Node5 -->
<g id="Node000005" class="node">
<title>Node5</title>
<g id="a_Node000005"><a xlink:href="TextLine_8hpp.html" target="_top" xlink:title="Contains jngl::TextLine class.">
<polygon fill="white" stroke="#666666" points="281,-129.75 163,-129.75 163,-110.5 281,-110.5 281,-129.75"/>
<text text-anchor="middle" x="222" y="-116.25" font-family="ui-monospace,monospace" font-size="10.00">jngl/TextLine.hpp</text>
</a>
</g>
</g>
<!-- Node1&#45;&gt;Node5 -->
<g id="edge5_Node000001_Node000005" class="edge">
<title>Node1&#45;&gt;Node5</title>
<g id="a_edge5_Node000001_Node000005"><a xlink:title=" ">
<path fill="none" stroke="#63b8ff" d="M267.21,-158.16C255.92,-148.92 242.21,-137.68 232.86,-130.02"/>
<polygon fill="#63b8ff" stroke="#63b8ff" points="264.85,-160.75 274.8,-164.38 269.29,-155.34 264.85,-160.75"/>
</a>
</g>
</g>
<!-- Node7 -->
<g id="Node000007" class="node">
<title>Node7</title>
<g id="a_Node000007"><a xlink:href="Widget_8hpp.html" target="_top" xlink:title="Contains jngl::Container class.">
<polygon fill="white" stroke="#666666" points="405,-129.75 299,-129.75 299,-110.5 405,-110.5 405,-129.75"/>
<text text-anchor="middle" x="352" y="-116.25" font-family="ui-monospace,monospace" font-size="10.00">jngl/Widget.hpp</text>
</a>
</g>
</g>
<!-- Node1&#45;&gt;Node7 -->
<g id="edge9_Node000001_Node000007" class="edge">
<title>Node1&#45;&gt;Node7</title>
<g id="a_edge9_Node000001_Node000007"><a xlink:title=" ">
<path fill="none" stroke="#63b8ff" d="M306.79,-158.16C318.08,-148.92 331.79,-137.68 341.14,-130.02"/>
<polygon fill="#63b8ff" stroke="#63b8ff" points="304.71,-155.34 299.2,-164.38 309.15,-160.75 304.71,-155.34"/>
</a>
</g>
</g>
<!-- Node8 -->
<g id="Node000008" class="node">
<title>Node8</title>
<g id="a_Node000008"><a xlink:href="matrix_8hpp.html" target="_top" xlink:title="Functions related to the global ModelView matrix.">
<polygon fill="white" stroke="#666666" points="598,-74.5 492,-74.5 492,-55.25 598,-55.25 598,-74.5"/>
<text text-anchor="middle" x="545" y="-61" font-family="ui-monospace,monospace" font-size="10.00">jngl/matrix.hpp</text>
</a>
</g>
</g>
<!-- Node1&#45;&gt;Node8 -->
<g id="edge12_Node000001_Node000008" class="edge">
<title>Node1&#45;&gt;Node8</title>
<g id="a_edge12_Node000001_Node000008"><a xlink:title=" ">
<path fill="none" stroke="#63b8ff" d="M345.55,-170.37C407.55,-164.95 500.02,-153.15 526,-129.75 541.82,-115.5 544.71,-88.74 545.09,-74.81"/>
<polygon fill="#63b8ff" stroke="#63b8ff" points="345.53,-166.86 335.85,-171.18 346.11,-173.83 345.53,-166.86"/>
</a>
</g>
</g>
<!-- Node9 -->
<g id="Node000009" class="node">
<title>Node9</title>
<g id="a_Node000009"><a xlink:href="text_8hpp.html" target="_top" xlink:title=" ">
<polygon fill="white" stroke="#666666" points="517,-129.75 423,-129.75 423,-110.5 517,-110.5 517,-129.75"/>
<text text-anchor="middle" x="470" y="-116.25" font-family="ui-monospace,monospace" font-size="10.00">jngl/text.hpp</text>
</a>
</g>
</g>
<!-- Node1&#45;&gt;Node9 -->
<g id="edge14_Node000001_Node000009" class="edge">
<title>Node1&#45;&gt;Node9</title>
<g id="a_edge14_Node000001_Node000009"><a xlink:title=" ">
<path fill="none" stroke="#63b8ff" d="M328.87,-162.19C362.34,-152.45 408.52,-139.02 438.8,-130.2"/>
<polygon fill="#63b8ff" stroke="#63b8ff" points="328.12,-158.76 319.5,-164.92 330.08,-165.49 328.12,-158.76"/>
</a>
</g>
</g>
<!-- Node3 -->
<g id="Node000003" class="node">
<title>Node3</title>
<g id="a_Node000003"><a xlink:href="jngl_8hpp.html" target="_top" xlink:title="Includes all JNGL headers except for init.hpp.">
<polygon fill="white" stroke="#666666" points="340,-19.25 276,-19.25 276,0 340,0 340,-19.25"/>
<text text-anchor="middle" x="308" y="-5.75" font-family="ui-monospace,monospace" font-size="10.00">jngl.hpp</text>
</a>
</g>
</g>
<!-- Node2&#45;&gt;Node3 -->
<g id="edge2_Node000002_Node000003" class="edge">
<title>Node2&#45;&gt;Node3</title>
<g id="a_edge2_Node000002_Node000003"><a xlink:title=" ">
<path fill="none" stroke="#63b8ff" d="M117.62,-52.34C165.69,-41.81 235.24,-26.57 275.62,-17.72"/>
<polygon fill="#63b8ff" stroke="#63b8ff" points="116.99,-48.9 107.98,-54.46 118.49,-55.74 116.99,-48.9"/>
</a>
</g>
</g>
<!-- Node4&#45;&gt;Node3 -->
<g id="edge4_Node000004_Node000003" class="edge">
<title>Node4&#45;&gt;Node3</title>
<g id="a_edge4_Node000004_Node000003"><a xlink:title=" ">
<path fill="none" stroke="#63b8ff" d="M224.43,-50.01C244.71,-40.45 271.09,-28.02 288.74,-19.7"/>
<polygon fill="#63b8ff" stroke="#63b8ff" points="223.09,-46.77 215.54,-54.2 226.08,-53.1 223.09,-46.77"/>
</a>
</g>
</g>
<!-- Node5&#45;&gt;Node3 -->
<g id="edge6_Node000005_Node000003" class="edge">
<title>Node5&#45;&gt;Node3</title>
<g id="a_edge6_Node000005_Node000003"><a xlink:title=" ">
<path fill="none" stroke="#63b8ff" d="M236.09,-101.35C254.67,-77.91 286.67,-37.53 300.87,-19.63"/>
<polygon fill="#63b8ff" stroke="#63b8ff" points="233.45,-99.05 229.98,-109.06 238.93,-103.4 233.45,-99.05"/>
</a>
</g>
</g>
<!-- Node6 -->
<g id="Node000006" class="node">
<title>Node6</title>
<g id="a_Node000006"><a xlink:href="Label_8hpp.html" target="_top" xlink:title="Contains jngl::Label class.">
<polygon fill="white" stroke="#666666" points="436,-74.5 336,-74.5 336,-55.25 436,-55.25 436,-74.5"/>
<text text-anchor="middle" x="386" y="-61" font-family="ui-monospace,monospace" font-size="10.00">jngl/Label.hpp</text>
</a>
</g>
</g>
<!-- Node5&#45;&gt;Node6 -->
<g id="edge7_Node000005_Node000006" class="edge">
<title>Node5&#45;&gt;Node6</title>
<g id="a_edge7_Node000005_Node000006"><a xlink:title=" ">
<path fill="none" stroke="#63b8ff" d="M260.7,-106.56C290.59,-96.85 331.25,-83.65 358.04,-74.95"/>
<polygon fill="#63b8ff" stroke="#63b8ff" points="259.69,-103.21 251.26,-109.62 261.85,-109.87 259.69,-103.21"/>
</a>
</g>
</g>
<!-- Node6&#45;&gt;Node3 -->
<g id="edge8_Node000006_Node000003" class="edge">
<title>Node6&#45;&gt;Node3</title>
<g id="a_edge8_Node000006_Node000003"><a xlink:title=" ">
<path fill="none" stroke="#63b8ff" d="M363.53,-48.53C349.85,-39.2 332.86,-27.6 321.3,-19.7"/>
<polygon fill="#63b8ff" stroke="#63b8ff" points="361.29,-51.24 371.52,-53.99 365.23,-45.46 361.29,-51.24"/>
</a>
</g>
</g>
<!-- Node7&#45;&gt;Node3 -->
<g id="edge10_Node000007_Node000003" class="edge">
<title>Node7&#45;&gt;Node3</title>
<g id="a_edge10_Node000007_Node000003"><a xlink:title=" ">
<path fill="none" stroke="#63b8ff" d="M340.26,-100.35C335.71,-92.55 330.71,-83.28 327,-74.5 318.98,-55.53 312.93,-32.06 309.98,-19.52"/>
<polygon fill="#63b8ff" stroke="#63b8ff" points="337.26,-102.16 345.43,-108.9 343.25,-98.53 337.26,-102.16"/>
</a>
</g>
</g>
<!-- Node7&#45;&gt;Node6 -->
<g id="edge11_Node000007_Node000006" class="edge">
<title>Node7&#45;&gt;Node6</title>
<g id="a_edge11_Node000007_Node000006"><a xlink:title=" ">
<path fill="none" stroke="#63b8ff" d="M363.63,-100.9C369.25,-92.11 375.73,-81.96 380.26,-74.86"/>
<polygon fill="#63b8ff" stroke="#63b8ff" points="360.86,-98.74 358.43,-109.06 366.76,-102.51 360.86,-98.74"/>
</a>
</g>
</g>
<!-- Node8&#45;&gt;Node3 -->
<g id="edge13_Node000008_Node000003" class="edge">
<title>Node8&#45;&gt;Node3</title>
<g id="a_edge13_Node000008_Node000003"><a xlink:title=" ">
<path fill="none" stroke="#63b8ff" d="M493.45,-52.29C446.86,-41.83 379.73,-26.74 340.31,-17.88"/>
<polygon fill="#63b8ff" stroke="#63b8ff" points="492.53,-55.67 503.05,-54.45 494.06,-48.84 492.53,-55.67"/>
</a>
</g>
</g>
<!-- Node9&#45;&gt;Node3 -->
<g id="edge15_Node000009_Node000003" class="edge">
<title>Node9&#45;&gt;Node3</title>
<g id="a_edge15_Node000009_Node000003"><a xlink:title=" ">
<path fill="none" stroke="#63b8ff" d="M466.88,-99.4C463.67,-85.32 457.33,-66.88 445,-55.25 416.25,-28.13 370.8,-17.49 340.22,-13.31"/>
<polygon fill="#63b8ff" stroke="#63b8ff" points="463.38,-99.72 468.68,-108.89 470.26,-98.41 463.38,-99.72"/>
</a>
</g>
</g>
<!-- Node9&#45;&gt;Node6 -->
<g id="edge16_Node000009_Node000006" class="edge">
<title>Node9&#45;&gt;Node6</title>
<g id="a_edge16_Node000009_Node000006"><a xlink:title=" ">
<path fill="none" stroke="#63b8ff" d="M446.23,-104.05C431.43,-94.67 412.89,-82.92 400.32,-74.95"/>
<polygon fill="#63b8ff" stroke="#63b8ff" points="444.15,-106.88 454.47,-109.28 447.9,-100.97 444.15,-106.88"/>
</a>
</g>
</g>
</g>
</svg>
