<?xml version="1.0" encoding="UTF-8" standalone="no"?>
<!DOCTYPE svg PUBLIC "-//W3C//DTD SVG 1.1//EN"
 "http://www.w3.org/Graphics/SVG/1.1/DTD/svg11.dtd">
<!-- Generated by graphviz version 5.0.0 (0)
 -->
<!-- Title: jngl/Mat3.hpp Pages: 1 -->
<svg width="372pt" height="247pt"
 viewBox="0.00 0.00 372.00 247.00" xmlns="http://www.w3.org/2000/svg" xmlns:xlink="http://www.w3.org/1999/xlink">
<g id="graph0" class="graph" transform="scale(1 1) rotate(0) translate(4 243)">
<title>jngl/Mat3.hpp</title>
<!-- Node1 -->
<g id="node1" class="node">
<title>Node1</title>
<g id="a_node1"><a xlink:title="Contains jngl::Mat3 class.">
<polygon fill="#999999" stroke="#666666" points="214,-239 119,-239 119,-220 214,-220 214,-239"/>
<text text-anchor="middle" x="166.5" y="-227" font-family="ui-monospace,monospace" font-size="10.00">jngl/Mat3.hpp</text>
</a>
</g>
</g>
<!-- Node2 -->
<g id="node2" class="node">
<title>Node2</title>
<g id="a_node2"><a xlink:href="FrameBuffer_8hpp.html" target="_top" xlink:title="Contains jngl::FrameBuffer class.">
<polygon fill="white" stroke="#666666" points="131,-129 0,-129 0,-110 131,-110 131,-129"/>
<text text-anchor="middle" x="65.5" y="-117" font-family="ui-monospace,monospace" font-size="10.00">jngl/FrameBuffer.hpp</text>
</a>
</g>
</g>
<!-- Node1&#45;&gt;Node2 -->
<g id="edge1" class="edge">
<title>Node1&#45;&gt;Node2</title>
<path fill="none" stroke="#63b8ff" d="M139.29,-215C125.79,-207.31 109.96,-196.67 98.5,-184 83.33,-167.23 73.05,-142.21 68.38,-129.15"/>
<polygon fill="#63b8ff" stroke="#63b8ff" points="137.73,-218.14 148.18,-219.85 141.08,-211.99 137.73,-218.14"/>
</g>
<!-- Node5 -->
<g id="node5" class="node">
<title>Node5</title>
<g id="a_node5"><a xlink:href="TextLine_8hpp.html" target="_top" xlink:title="Contains jngl::TextLine class.">
<polygon fill="white" stroke="#666666" points="226,-184 107,-184 107,-165 226,-165 226,-184"/>
<text text-anchor="middle" x="166.5" y="-172" font-family="ui-monospace,monospace" font-size="10.00">jngl/TextLine.hpp</text>
</a>
</g>
</g>
<!-- Node1&#45;&gt;Node5 -->
<g id="edge4" class="edge">
<title>Node1&#45;&gt;Node5</title>
<path fill="none" stroke="#63b8ff" d="M166.5,-209.66C166.5,-200.93 166.5,-190.99 166.5,-184.09"/>
<polygon fill="#63b8ff" stroke="#63b8ff" points="163,-209.75 166.5,-219.75 170,-209.75 163,-209.75"/>
</g>
<!-- Node7 -->
<g id="node7" class="node">
<title>Node7</title>
<g id="a_node7"><a xlink:href="matrix_8hpp.html" target="_top" xlink:title="Functions related to the global ModelView matrix.">
<polygon fill="white" stroke="#666666" points="364,-184 257,-184 257,-165 364,-165 364,-184"/>
<text text-anchor="middle" x="310.5" y="-172" font-family="ui-monospace,monospace" font-size="10.00">jngl/matrix.hpp</text>
</a>
</g>
</g>
<!-- Node1&#45;&gt;Node7 -->
<g id="edge8" class="edge">
<title>Node1&#45;&gt;Node7</title>
<path fill="none" stroke="#63b8ff" d="M199.32,-216.42C226.03,-206.59 263.1,-192.95 286.94,-184.17"/>
<polygon fill="#63b8ff" stroke="#63b8ff" points="197.81,-213.25 189.64,-219.98 200.23,-219.82 197.81,-213.25"/>
</g>
<!-- Node3 -->
<g id="node3" class="node">
<title>Node3</title>
<g id="a_node3"><a xlink:href="all_8hpp.html" target="_top" xlink:title="Includes all JNGL headers except for init.hpp.">
<polygon fill="white" stroke="#666666" points="243,-74 154,-74 154,-55 243,-55 243,-74"/>
<text text-anchor="middle" x="198.5" y="-62" font-family="ui-monospace,monospace" font-size="10.00">jngl/all.hpp</text>
</a>
</g>
</g>
<!-- Node2&#45;&gt;Node3 -->
<g id="edge2" class="edge">
<title>Node2&#45;&gt;Node3</title>
<path fill="none" stroke="#63b8ff" d="M96.47,-106.16C121.09,-96.35 154.91,-82.87 176.74,-74.17"/>
<polygon fill="#63b8ff" stroke="#63b8ff" points="94.86,-103.03 86.87,-109.98 97.45,-109.53 94.86,-103.03"/>
</g>
<!-- Node4 -->
<g id="node4" class="node">
<title>Node4</title>
<g id="a_node4"><a xlink:href="jngl_8hpp.html" target="_top" xlink:title="Includes jngl/all.hpp.">
<polygon fill="white" stroke="#666666" points="231,-19 166,-19 166,0 231,0 231,-19"/>
<text text-anchor="middle" x="198.5" y="-7" font-family="ui-monospace,monospace" font-size="10.00">jngl.hpp</text>
</a>
</g>
</g>
<!-- Node3&#45;&gt;Node4 -->
<g id="edge3" class="edge">
<title>Node3&#45;&gt;Node4</title>
<path fill="none" stroke="#63b8ff" d="M198.5,-44.66C198.5,-35.93 198.5,-25.99 198.5,-19.09"/>
<polygon fill="#63b8ff" stroke="#63b8ff" points="195,-44.75 198.5,-54.75 202,-44.75 195,-44.75"/>
</g>
<!-- Node5&#45;&gt;Node3 -->
<g id="edge7" class="edge">
<title>Node5&#45;&gt;Node3</title>
<path fill="none" stroke="#63b8ff" d="M169.3,-154.82C171.47,-142.03 174.88,-124.79 179.5,-110 183.51,-97.17 189.93,-83 194.18,-74.17"/>
<polygon fill="#63b8ff" stroke="#63b8ff" points="165.84,-154.31 167.72,-164.73 172.75,-155.41 165.84,-154.31"/>
</g>
<!-- Node6 -->
<g id="node6" class="node">
<title>Node6</title>
<g id="a_node6"><a xlink:href="Label_8hpp.html" target="_top" xlink:title="Contains jngl::Label class.">
<polygon fill="white" stroke="#666666" points="289,-129 188,-129 188,-110 289,-110 289,-129"/>
<text text-anchor="middle" x="238.5" y="-117" font-family="ui-monospace,monospace" font-size="10.00">jngl/Label.hpp</text>
</a>
</g>
</g>
<!-- Node5&#45;&gt;Node6 -->
<g id="edge5" class="edge">
<title>Node5&#45;&gt;Node6</title>
<path fill="none" stroke="#63b8ff" d="M186.37,-158.88C199.32,-149.34 215.8,-137.21 226.72,-129.17"/>
<polygon fill="#63b8ff" stroke="#63b8ff" points="184.05,-156.24 178.07,-164.98 188.2,-161.88 184.05,-156.24"/>
</g>
<!-- Node6&#45;&gt;Node3 -->
<g id="edge6" class="edge">
<title>Node6&#45;&gt;Node3</title>
<path fill="none" stroke="#63b8ff" d="M225.8,-101.67C218.87,-92.5 210.59,-81.52 204.98,-74.09"/>
<polygon fill="#63b8ff" stroke="#63b8ff" points="223.08,-103.87 231.89,-109.75 228.66,-99.66 223.08,-103.87"/>
</g>
<!-- Node7&#45;&gt;Node3 -->
<g id="edge9" class="edge">
<title>Node7&#45;&gt;Node3</title>
<path fill="none" stroke="#63b8ff" d="M311.36,-154.42C311,-140.71 308.4,-122.51 298.5,-110 283.88,-91.52 259.96,-80.5 239.18,-74.05"/>
<polygon fill="#63b8ff" stroke="#63b8ff" points="307.86,-154.62 311.25,-164.66 314.86,-154.7 307.86,-154.62"/>
</g>
</g>
</svg>
