<?xml version="1.0" encoding="UTF-8" standalone="no"?>
<!DOCTYPE svg PUBLIC "-//W3C//DTD SVG 1.1//EN"
 "http://www.w3.org/Graphics/SVG/1.1/DTD/svg11.dtd">
<!-- Generated by graphviz version 5.0.0 (0)
 -->
<!-- Title: jngl/Mat3.hpp Pages: 1 -->
<svg width="373pt" height="247pt"
 viewBox="0.00 0.00 373.00 247.00" xmlns="http://www.w3.org/2000/svg" xmlns:xlink="http://www.w3.org/1999/xlink">
<g id="graph0" class="graph" transform="scale(1 1) rotate(0) translate(4 243)">
<title>jngl/Mat3.hpp</title>
<!-- Node1 -->
<g id="node1" class="node">
<title>Node1</title>
<g id="a_node1"><a xlink:title="Contains jngl::Mat3 class.">
<polygon fill="#999999" stroke="#666666" points="271,-239 176,-239 176,-220 271,-220 271,-239"/>
<text text-anchor="middle" x="223.5" y="-227" font-family="ui-monospace,monospace" font-size="10.00">jngl/Mat3.hpp</text>
</a>
</g>
</g>
<!-- Node2 -->
<g id="node2" class="node">
<title>Node2</title>
<g id="a_node2"><a xlink:href="TextLine_8hpp.html" target="_top" xlink:title="Contains jngl::TextLine class.">
<polygon fill="white" stroke="#666666" points="189,-184 70,-184 70,-165 189,-165 189,-184"/>
<text text-anchor="middle" x="129.5" y="-172" font-family="ui-monospace,monospace" font-size="10.00">jngl/TextLine.hpp</text>
</a>
</g>
</g>
<!-- Node1&#45;&gt;Node2 -->
<g id="edge1" class="edge">
<title>Node1&#45;&gt;Node2</title>
<path fill="none" stroke="#63b8ff" d="M199.5,-214.97C182.31,-205.28 159.69,-192.52 144.88,-184.17"/>
<polygon fill="#63b8ff" stroke="#63b8ff" points="197.97,-218.12 208.4,-219.98 201.41,-212.02 197.97,-218.12"/>
</g>
<!-- Node6 -->
<g id="node6" class="node">
<title>Node6</title>
<g id="a_node6"><a xlink:href="framebuffer_8hpp.html" target="_top" xlink:title="Contains jngl::FrameBuffer class.">
<polygon fill="white" stroke="#666666" points="289,-129 158,-129 158,-110 289,-110 289,-129"/>
<text text-anchor="middle" x="223.5" y="-117" font-family="ui-monospace,monospace" font-size="10.00">jngl/framebuffer.hpp</text>
</a>
</g>
</g>
<!-- Node1&#45;&gt;Node6 -->
<g id="edge6" class="edge">
<title>Node1&#45;&gt;Node6</title>
<path fill="none" stroke="#63b8ff" d="M223.5,-209.48C223.5,-185.84 223.5,-146.5 223.5,-129.16"/>
<polygon fill="#63b8ff" stroke="#63b8ff" points="220,-209.66 223.5,-219.66 227,-209.66 220,-209.66"/>
</g>
<!-- Node7 -->
<g id="node7" class="node">
<title>Node7</title>
<g id="a_node7"><a xlink:href="matrix_8hpp.html" target="_top" xlink:title="Functions related to the global ModelView matrix.">
<polygon fill="white" stroke="#666666" points="365,-184 258,-184 258,-165 365,-165 365,-184"/>
<text text-anchor="middle" x="311.5" y="-172" font-family="ui-monospace,monospace" font-size="10.00">jngl/matrix.hpp</text>
</a>
</g>
</g>
<!-- Node1&#45;&gt;Node7 -->
<g id="edge8" class="edge">
<title>Node1&#45;&gt;Node7</title>
<path fill="none" stroke="#63b8ff" d="M246.42,-214.7C262.45,-205.04 283.37,-192.44 297.1,-184.17"/>
<polygon fill="#63b8ff" stroke="#63b8ff" points="244.4,-211.83 237.64,-219.98 248.01,-217.82 244.4,-211.83"/>
</g>
<!-- Node3 -->
<g id="node3" class="node">
<title>Node3</title>
<g id="a_node3"><a xlink:href="Label_8hpp.html" target="_top" xlink:title="Contains jngl::Label class.">
<polygon fill="white" stroke="#666666" points="101,-129 0,-129 0,-110 101,-110 101,-129"/>
<text text-anchor="middle" x="50.5" y="-117" font-family="ui-monospace,monospace" font-size="10.00">jngl/Label.hpp</text>
</a>
</g>
</g>
<!-- Node2&#45;&gt;Node3 -->
<g id="edge2" class="edge">
<title>Node2&#45;&gt;Node3</title>
<path fill="none" stroke="#63b8ff" d="M108.11,-159.15C93.83,-149.57 75.53,-137.29 63.42,-129.17"/>
<polygon fill="#63b8ff" stroke="#63b8ff" points="106.55,-162.32 116.81,-164.98 110.45,-156.51 106.55,-162.32"/>
</g>
<!-- Node4 -->
<g id="node4" class="node">
<title>Node4</title>
<g id="a_node4"><a xlink:href="all_8hpp.html" target="_top" xlink:title="Includes all JNGL headers except for init.hpp.">
<polygon fill="white" stroke="#666666" points="221,-74 132,-74 132,-55 221,-55 221,-74"/>
<text text-anchor="middle" x="176.5" y="-62" font-family="ui-monospace,monospace" font-size="10.00">jngl/all.hpp</text>
</a>
</g>
</g>
<!-- Node2&#45;&gt;Node4 -->
<g id="edge5" class="edge">
<title>Node2&#45;&gt;Node4</title>
<path fill="none" stroke="#63b8ff" d="M134.16,-154.63C137.65,-141.76 142.94,-124.5 149.5,-110 155.46,-96.83 164.52,-82.74 170.47,-74.02"/>
<polygon fill="#63b8ff" stroke="#63b8ff" points="130.69,-154.07 131.57,-164.63 137.47,-155.82 130.69,-154.07"/>
</g>
<!-- Node3&#45;&gt;Node4 -->
<g id="edge3" class="edge">
<title>Node3&#45;&gt;Node4</title>
<path fill="none" stroke="#63b8ff" d="M80.15,-106.03C103.45,-96.23 135.3,-82.83 155.89,-74.17"/>
<polygon fill="#63b8ff" stroke="#63b8ff" points="78.6,-102.88 70.74,-109.98 81.32,-109.33 78.6,-102.88"/>
</g>
<!-- Node5 -->
<g id="node5" class="node">
<title>Node5</title>
<g id="a_node5"><a xlink:href="jngl_8hpp.html" target="_top" xlink:title="Includes jngl/all.hpp.">
<polygon fill="white" stroke="#666666" points="209,-19 144,-19 144,0 209,0 209,-19"/>
<text text-anchor="middle" x="176.5" y="-7" font-family="ui-monospace,monospace" font-size="10.00">jngl.hpp</text>
</a>
</g>
</g>
<!-- Node4&#45;&gt;Node5 -->
<g id="edge4" class="edge">
<title>Node4&#45;&gt;Node5</title>
<path fill="none" stroke="#63b8ff" d="M176.5,-44.66C176.5,-35.93 176.5,-25.99 176.5,-19.09"/>
<polygon fill="#63b8ff" stroke="#63b8ff" points="173,-44.75 176.5,-54.75 180,-44.75 173,-44.75"/>
</g>
<!-- Node6&#45;&gt;Node4 -->
<g id="edge7" class="edge">
<title>Node6&#45;&gt;Node4</title>
<path fill="none" stroke="#63b8ff" d="M209.08,-102.24C200.84,-92.95 190.85,-81.68 184.12,-74.09"/>
<polygon fill="#63b8ff" stroke="#63b8ff" points="206.49,-104.59 215.74,-109.75 211.72,-99.94 206.49,-104.59"/>
</g>
<!-- Node7&#45;&gt;Node4 -->
<g id="edge9" class="edge">
<title>Node7&#45;&gt;Node4</title>
<path fill="none" stroke="#63b8ff" d="M312.29,-154.65C311.86,-140.77 309.06,-122.25 298.5,-110 279.14,-87.55 247.48,-76.42 221.26,-70.9"/>
<polygon fill="#63b8ff" stroke="#63b8ff" points="308.78,-154.95 312.2,-164.98 315.78,-155.01 308.78,-154.95"/>
</g>
</g>
</svg>
