<?xml version="1.0" encoding="UTF-8" standalone="no"?>
<!DOCTYPE svg PUBLIC "-//W3C//DTD SVG 1.1//EN"
 "http://www.w3.org/Graphics/SVG/1.1/DTD/svg11.dtd">
<!-- Generated by graphviz version 9.0.0 (20230911.1827)
 -->
<!-- Title: jngl/Mat3.hpp Pages: 1 -->
<svg width="368pt" height="193pt"
 viewBox="0.00 0.00 368.00 193.00" xmlns="http://www.w3.org/2000/svg" xmlns:xlink="http://www.w3.org/1999/xlink">
<g id="graph0" class="graph" transform="scale(1 1) rotate(0) translate(4 189)">
<title>jngl/Mat3.hpp</title>
<!-- Node1 -->
<g id="Node000001" class="node">
<title>Node1</title>
<g id="a_Node000001"><a xlink:title="Contains jngl::Mat3 class.">
<polygon fill="#999999" stroke="#666666" points="211,-185 117,-185 117,-165.75 211,-165.75 211,-185"/>
<text text-anchor="middle" x="164" y="-171.5" font-family="ui-monospace,monospace" font-size="10.00">jngl/Mat3.hpp</text>
</a>
</g>
</g>
<!-- Node2 -->
<g id="Node000002" class="node">
<title>Node2</title>
<g id="a_Node000002"><a xlink:href="FrameBuffer_8hpp.html" target="_top" xlink:title="Contains jngl::FrameBuffer class.">
<polygon fill="white" stroke="#666666" points="130,-74.5 0,-74.5 0,-55.25 130,-55.25 130,-74.5"/>
<text text-anchor="middle" x="65" y="-61" font-family="ui-monospace,monospace" font-size="10.00">jngl/FrameBuffer.hpp</text>
</a>
</g>
</g>
<!-- Node1&#45;&gt;Node2 -->
<g id="edge1_Node000001_Node000002" class="edge">
<title>Node1&#45;&gt;Node2</title>
<g id="a_edge1_Node000001_Node000002"><a xlink:title=" ">
<path fill="none" stroke="#63b8ff" d="M134.66,-159.82C121.58,-152.23 106.74,-141.97 96,-129.75 81.19,-112.9 71.77,-87.72 67.56,-74.58"/>
<polygon fill="#63b8ff" stroke="#63b8ff" points="132.89,-162.83 143.34,-164.59 136.26,-156.7 132.89,-162.83"/>
</a>
</g>
</g>
<!-- Node4 -->
<g id="Node000004" class="node">
<title>Node4</title>
<g id="a_Node000004"><a xlink:href="TextLine_8hpp.html" target="_top" xlink:title="Contains jngl::TextLine class.">
<polygon fill="white" stroke="#666666" points="223,-129.75 105,-129.75 105,-110.5 223,-110.5 223,-129.75"/>
<text text-anchor="middle" x="164" y="-116.25" font-family="ui-monospace,monospace" font-size="10.00">jngl/TextLine.hpp</text>
</a>
</g>
</g>
<!-- Node1&#45;&gt;Node4 -->
<g id="edge3_Node000001_Node000004" class="edge">
<title>Node1&#45;&gt;Node4</title>
<g id="a_edge3_Node000001_Node000004"><a xlink:title=" ">
<path fill="none" stroke="#63b8ff" d="M164,-154.13C164,-145.84 164,-136.67 164,-130.11"/>
<polygon fill="#63b8ff" stroke="#63b8ff" points="160.5,-154.07 164,-164.07 167.5,-154.07 160.5,-154.07"/>
</a>
</g>
</g>
<!-- Node6 -->
<g id="Node000006" class="node">
<title>Node6</title>
<g id="a_Node000006"><a xlink:href="matrix_8hpp.html" target="_top" xlink:title="Functions related to the global ModelView matrix.">
<polygon fill="white" stroke="#666666" points="360,-129.75 254,-129.75 254,-110.5 360,-110.5 360,-129.75"/>
<text text-anchor="middle" x="307" y="-116.25" font-family="ui-monospace,monospace" font-size="10.00">jngl/matrix.hpp</text>
</a>
</g>
</g>
<!-- Node1&#45;&gt;Node6 -->
<g id="edge7_Node000001_Node000006" class="edge">
<title>Node1&#45;&gt;Node6</title>
<g id="a_edge7_Node000001_Node000006"><a xlink:title=" ">
<path fill="none" stroke="#63b8ff" d="M198.78,-161.42C224.75,-151.75 259.57,-138.79 282.62,-130.2"/>
<polygon fill="#63b8ff" stroke="#63b8ff" points="197.83,-158.04 189.68,-164.81 200.27,-164.6 197.83,-158.04"/>
</a>
</g>
</g>
<!-- Node3 -->
<g id="Node000003" class="node">
<title>Node3</title>
<g id="a_Node000003"><a xlink:href="jngl_8hpp.html" target="_top" xlink:title="Includes all JNGL headers except for init.hpp.">
<polygon fill="white" stroke="#666666" points="229,-19.25 165,-19.25 165,0 229,0 229,-19.25"/>
<text text-anchor="middle" x="197" y="-5.75" font-family="ui-monospace,monospace" font-size="10.00">jngl.hpp</text>
</a>
</g>
</g>
<!-- Node2&#45;&gt;Node3 -->
<g id="edge2_Node000002_Node000003" class="edge">
<title>Node2&#45;&gt;Node3</title>
<g id="a_edge2_Node000002_Node000003"><a xlink:title=" ">
<path fill="none" stroke="#63b8ff" d="M97.75,-50.66C121.65,-41.02 153.41,-28.21 174.5,-19.7"/>
<polygon fill="#63b8ff" stroke="#63b8ff" points="96.76,-47.29 88.8,-54.28 99.38,-53.78 96.76,-47.29"/>
</a>
</g>
</g>
<!-- Node4&#45;&gt;Node3 -->
<g id="edge4_Node000004_Node000003" class="edge">
<title>Node4&#45;&gt;Node3</title>
<g id="a_edge4_Node000004_Node000003"><a xlink:title=" ">
<path fill="none" stroke="#63b8ff" d="M166.9,-99.12C169.04,-86.39 172.38,-69.63 177,-55.25 181.11,-42.48 187.76,-28.47 192.26,-19.62"/>
<polygon fill="#63b8ff" stroke="#63b8ff" points="163.48,-98.38 165.4,-108.79 170.4,-99.45 163.48,-98.38"/>
</a>
</g>
</g>
<!-- Node5 -->
<g id="Node000005" class="node">
<title>Node5</title>
<g id="a_Node000005"><a xlink:href="Label_8hpp.html" target="_top" xlink:title="Contains jngl::Label class.">
<polygon fill="white" stroke="#666666" points="286,-74.5 186,-74.5 186,-55.25 286,-55.25 286,-74.5"/>
<text text-anchor="middle" x="236" y="-61" font-family="ui-monospace,monospace" font-size="10.00">jngl/Label.hpp</text>
</a>
</g>
</g>
<!-- Node4&#45;&gt;Node5 -->
<g id="edge5_Node000004_Node000005" class="edge">
<title>Node4&#45;&gt;Node5</title>
<g id="a_edge5_Node000004_Node000005"><a xlink:title=" ">
<path fill="none" stroke="#63b8ff" d="M185.17,-103.47C197.81,-94.12 213.41,-82.58 223.97,-74.77"/>
<polygon fill="#63b8ff" stroke="#63b8ff" points="183.39,-100.43 177.43,-109.19 187.55,-106.06 183.39,-100.43"/>
</a>
</g>
</g>
<!-- Node5&#45;&gt;Node3 -->
<g id="edge6_Node000005_Node000003" class="edge">
<title>Node5&#45;&gt;Node3</title>
<g id="a_edge6_Node000005_Node000003"><a xlink:title=" ">
<path fill="none" stroke="#63b8ff" d="M222.86,-45.94C216.38,-37.09 208.84,-26.79 203.58,-19.61"/>
<polygon fill="#63b8ff" stroke="#63b8ff" points="219.93,-47.86 228.67,-53.86 225.58,-43.73 219.93,-47.86"/>
</a>
</g>
</g>
<!-- Node6&#45;&gt;Node3 -->
<g id="edge8_Node000006_Node000003" class="edge">
<title>Node6&#45;&gt;Node3</title>
<g id="a_edge8_Node000006_Node000003"><a xlink:title=" ">
<path fill="none" stroke="#63b8ff" d="M307.84,-99.13C307.39,-85.45 304.7,-67.63 295,-55.25 278.86,-34.65 251.06,-23.23 229.19,-17.12"/>
<polygon fill="#63b8ff" stroke="#63b8ff" points="304.34,-98.71 307.76,-108.74 311.34,-98.77 304.34,-98.71"/>
</a>
</g>
</g>
</g>
</svg>
