<?xml version="1.0" encoding="UTF-8" standalone="no"?>
<!DOCTYPE svg PUBLIC "-//W3C//DTD SVG 1.1//EN"
 "http://www.w3.org/Graphics/SVG/1.1/DTD/svg11.dtd">
<!-- Generated by graphviz version 2.43.0 (0)
 -->
<!-- Title: jngl/Mat3.hpp Pages: 1 -->
<svg width="270pt" height="196pt"
 viewBox="0.00 0.00 270.00 196.00" xmlns="http://www.w3.org/2000/svg" xmlns:xlink="http://www.w3.org/1999/xlink">
<g id="graph0" class="graph" transform="scale(1 1) rotate(0) translate(4 192)">
<title>jngl/Mat3.hpp</title>
<polygon fill="white" stroke="transparent" points="-4,4 -4,-192 266,-192 266,4 -4,4"/>
<!-- Node1 -->
<g id="node1" class="node">
<title>Node1</title>
<g id="a_node1"><a xlink:title="Contains jngl::Mat3 class.">
<polygon fill="#bfbfbf" stroke="black" points="91,-168.5 91,-187.5 186,-187.5 186,-168.5 91,-168.5"/>
<text text-anchor="middle" x="138.5" y="-175.5" font-family="'Consolas',monospace" font-size="10.00">jngl/Mat3.hpp</text>
</a>
</g>
</g>
<!-- Node2 -->
<g id="node2" class="node">
<title>Node2</title>
<g id="a_node2"><a xlink:href="framebuffer_8hpp.html" target="_top" xlink:title="Contains jngl::FrameBuffer class.">
<polygon fill="white" stroke="black" points="0,-112.5 0,-131.5 137,-131.5 137,-112.5 0,-112.5"/>
<text text-anchor="middle" x="68.5" y="-119.5" font-family="'Consolas',monospace" font-size="10.00">jngl/framebuffer.hpp</text>
</a>
</g>
</g>
<!-- Node1&#45;&gt;Node2 -->
<g id="edge1" class="edge">
<title>Node1&#45;&gt;Node2</title>
<path fill="none" stroke="midnightblue" d="M119.19,-162.1C106.59,-152.38 90.57,-140.03 79.95,-131.83"/>
<polygon fill="midnightblue" stroke="midnightblue" points="117.2,-164.99 127.25,-168.32 121.47,-159.44 117.2,-164.99"/>
</g>
<!-- Node5 -->
<g id="node5" class="node">
<title>Node5</title>
<g id="a_node5"><a xlink:href="matrix_8hpp.html" target="_top" xlink:title="Functions related to the global ModelView matrix.">
<polygon fill="white" stroke="black" points="155,-112.5 155,-131.5 262,-131.5 262,-112.5 155,-112.5"/>
<text text-anchor="middle" x="208.5" y="-119.5" font-family="'Consolas',monospace" font-size="10.00">jngl/matrix.hpp</text>
</a>
</g>
</g>
<!-- Node1&#45;&gt;Node5 -->
<g id="edge4" class="edge">
<title>Node1&#45;&gt;Node5</title>
<path fill="none" stroke="midnightblue" d="M157.81,-162.1C170.41,-152.38 186.43,-140.03 197.05,-131.83"/>
<polygon fill="midnightblue" stroke="midnightblue" points="155.53,-159.44 149.75,-168.32 159.8,-164.99 155.53,-159.44"/>
</g>
<!-- Node3 -->
<g id="node3" class="node">
<title>Node3</title>
<g id="a_node3"><a xlink:href="all_8hpp.html" target="_top" xlink:title="Includes all JNGL headers except for init.hpp.">
<polygon fill="white" stroke="black" points="94,-56.5 94,-75.5 183,-75.5 183,-56.5 94,-56.5"/>
<text text-anchor="middle" x="138.5" y="-63.5" font-family="'Consolas',monospace" font-size="10.00">jngl/all.hpp</text>
</a>
</g>
</g>
<!-- Node2&#45;&gt;Node3 -->
<g id="edge2" class="edge">
<title>Node2&#45;&gt;Node3</title>
<path fill="none" stroke="midnightblue" d="M87.81,-106.1C100.41,-96.38 116.43,-84.03 127.05,-75.83"/>
<polygon fill="midnightblue" stroke="midnightblue" points="85.53,-103.44 79.75,-112.32 89.8,-108.99 85.53,-103.44"/>
</g>
<!-- Node4 -->
<g id="node4" class="node">
<title>Node4</title>
<g id="a_node4"><a xlink:href="jngl_8hpp.html" target="_top" xlink:title="Includes jngl/all.hpp.">
<polygon fill="white" stroke="black" points="106,-0.5 106,-19.5 171,-19.5 171,-0.5 106,-0.5"/>
<text text-anchor="middle" x="138.5" y="-7.5" font-family="'Consolas',monospace" font-size="10.00">jngl.hpp</text>
</a>
</g>
</g>
<!-- Node3&#45;&gt;Node4 -->
<g id="edge3" class="edge">
<title>Node3&#45;&gt;Node4</title>
<path fill="none" stroke="midnightblue" d="M138.5,-45.8C138.5,-36.91 138.5,-26.78 138.5,-19.75"/>
<polygon fill="midnightblue" stroke="midnightblue" points="135,-46.08 138.5,-56.08 142,-46.08 135,-46.08"/>
</g>
<!-- Node5&#45;&gt;Node3 -->
<g id="edge5" class="edge">
<title>Node5&#45;&gt;Node3</title>
<path fill="none" stroke="midnightblue" d="M189.19,-106.1C176.59,-96.38 160.57,-84.03 149.95,-75.83"/>
<polygon fill="midnightblue" stroke="midnightblue" points="187.2,-108.99 197.25,-112.32 191.47,-103.44 187.2,-108.99"/>
</g>
</g>
</svg>
