<?xml version="1.0" encoding="UTF-8" standalone="no"?>
<!DOCTYPE svg PUBLIC "-//W3C//DTD SVG 1.1//EN"
 "http://www.w3.org/Graphics/SVG/1.1/DTD/svg11.dtd">
<!-- Generated by graphviz version 5.0.0 (0)
 -->
<!-- Title: jngl/Mat4.hpp Pages: 1 -->
<svg width="258pt" height="82pt"
 viewBox="0.00 0.00 258.00 82.00" xmlns="http://www.w3.org/2000/svg" xmlns:xlink="http://www.w3.org/1999/xlink">
<g id="graph0" class="graph" transform="scale(1 1) rotate(0) translate(4 78)">
<title>jngl/Mat4.hpp</title>
<!-- Node1 -->
<g id="node1" class="node">
<title>Node1</title>
<g id="a_node1"><a xlink:title="Contains jngl::Mat4 class.">
<polygon fill="#999999" stroke="#666666" points="174,-74 79,-74 79,-55 174,-55 174,-74"/>
<text text-anchor="middle" x="126.5" y="-62" font-family="ui-monospace,monospace" font-size="10.00">jngl/Mat4.hpp</text>
</a>
</g>
</g>
<!-- Node2 -->
<g id="node2" class="node">
<title>Node2</title>
<g id="a_node2"><a xlink:title=" ">
<polygon fill="#e0e0e0" stroke="#999999" points="119,-19 0,-19 0,0 119,0 119,-19"/>
<text text-anchor="middle" x="59.5" y="-7" font-family="ui-monospace,monospace" font-size="10.00">boost/version.hpp</text>
</a>
</g>
</g>
<!-- Node1&#45;&gt;Node2 -->
<g id="edge1" class="edge">
<title>Node1&#45;&gt;Node2</title>
<path fill="none" stroke="#63b8ff" d="M115.74,-54.98C105.73,-47.07 90.61,-35.11 78.57,-25.58"/>
<polygon fill="#63b8ff" stroke="#63b8ff" points="80.47,-22.63 70.46,-19.17 76.13,-28.12 80.47,-22.63"/>
</g>
<!-- Node3 -->
<g id="node3" class="node">
<title>Node3</title>
<g id="a_node3"><a target="_parent" xlink:href="http://en.cppreference.com/w/cpp/header/initializer_list.html" xlink:title=" ">
<polygon fill="white" stroke="#666666" points="250,-19 137,-19 137,0 250,0 250,-19"/>
<text text-anchor="middle" x="193.5" y="-7" font-family="ui-monospace,monospace" font-size="10.00">initializer_list</text>
</a>
</g>
</g>
<!-- Node1&#45;&gt;Node3 -->
<g id="edge2" class="edge">
<title>Node1&#45;&gt;Node3</title>
<path fill="none" stroke="#63b8ff" d="M137.26,-54.98C147.27,-47.07 162.39,-35.11 174.43,-25.58"/>
<polygon fill="#63b8ff" stroke="#63b8ff" points="176.87,-28.12 182.54,-19.17 172.53,-22.63 176.87,-28.12"/>
</g>
</g>
</svg>
