<?xml version="1.0" encoding="UTF-8" standalone="no"?>
<!DOCTYPE svg PUBLIC "-//W3C//DTD SVG 1.1//EN"
 "http://www.w3.org/Graphics/SVG/1.1/DTD/svg11.dtd">
<!-- Generated by graphviz version 2.43.0 (0)
 -->
<!-- Title: jngl/Mat4.hpp Pages: 1 -->
<svg width="258pt" height="84pt"
 viewBox="0.00 0.00 258.00 84.00" xmlns="http://www.w3.org/2000/svg" xmlns:xlink="http://www.w3.org/1999/xlink">
<g id="graph0" class="graph" transform="scale(1 1) rotate(0) translate(4 80)">
<title>jngl/Mat4.hpp</title>
<polygon fill="white" stroke="transparent" points="-4,4 -4,-80 254,-80 254,4 -4,4"/>
<!-- Node1 -->
<g id="node1" class="node">
<title>Node1</title>
<g id="a_node1"><a xlink:title="Contains jngl::Mat4 class.">
<polygon fill="#bfbfbf" stroke="black" points="79,-56.5 79,-75.5 174,-75.5 174,-56.5 79,-56.5"/>
<text text-anchor="middle" x="126.5" y="-63.5" font-family="'Consolas',monospace" font-size="10.00">jngl/Mat4.hpp</text>
</a>
</g>
</g>
<!-- Node2 -->
<g id="node2" class="node">
<title>Node2</title>
<g id="a_node2"><a xlink:title=" ">
<polygon fill="white" stroke="#bfbfbf" points="0,-0.5 0,-19.5 119,-19.5 119,-0.5 0,-0.5"/>
<text text-anchor="middle" x="59.5" y="-7.5" font-family="'Consolas',monospace" font-size="10.00">boost/version.hpp</text>
</a>
</g>
</g>
<!-- Node1&#45;&gt;Node2 -->
<g id="edge1" class="edge">
<title>Node1&#45;&gt;Node2</title>
<path fill="none" stroke="midnightblue" d="M115.74,-56.32C105.73,-48.26 90.61,-36.08 78.57,-26.37"/>
<polygon fill="midnightblue" stroke="midnightblue" points="80.44,-23.38 70.46,-19.83 76.05,-28.83 80.44,-23.38"/>
</g>
<!-- Node3 -->
<g id="node3" class="node">
<title>Node3</title>
<g id="a_node3"><a target="_parent" xlink:href="http://en.cppreference.com/w/cpp/header/initializer_list.html" xlink:title=" ">
<polygon fill="white" stroke="black" points="137,-0.5 137,-19.5 250,-19.5 250,-0.5 137,-0.5"/>
<text text-anchor="middle" x="193.5" y="-7.5" font-family="'Consolas',monospace" font-size="10.00">initializer_list</text>
</a>
</g>
</g>
<!-- Node1&#45;&gt;Node3 -->
<g id="edge2" class="edge">
<title>Node1&#45;&gt;Node3</title>
<path fill="none" stroke="midnightblue" d="M137.26,-56.32C147.27,-48.26 162.39,-36.08 174.43,-26.37"/>
<polygon fill="midnightblue" stroke="midnightblue" points="176.95,-28.83 182.54,-19.83 172.56,-23.38 176.95,-28.83"/>
</g>
</g>
</svg>
