<?xml version="1.0" encoding="UTF-8" standalone="no"?>
<!DOCTYPE svg PUBLIC "-//W3C//DTD SVG 1.1//EN"
 "http://www.w3.org/Graphics/SVG/1.1/DTD/svg11.dtd">
<!-- Generated by graphviz version 5.0.0 (0)
 -->
<!-- Title: jngl/message.hpp Pages: 1 -->
<svg width="256pt" height="192pt"
 viewBox="0.00 0.00 256.00 192.00" xmlns="http://www.w3.org/2000/svg" xmlns:xlink="http://www.w3.org/1999/xlink">
<g id="graph0" class="graph" transform="scale(1 1) rotate(0) translate(4 188)">
<title>jngl/message.hpp</title>
<!-- Node1 -->
<g id="node1" class="node">
<title>Node1</title>
<g id="a_node1"><a xlink:title=" ">
<polygon fill="#999999" stroke="#666666" points="141,-184 28,-184 28,-165 141,-165 141,-184"/>
<text text-anchor="middle" x="84.5" y="-172" font-family="ui-monospace,monospace" font-size="10.00">jngl/message.hpp</text>
</a>
</g>
</g>
<!-- Node2 -->
<g id="node2" class="node">
<title>Node2</title>
<g id="a_node2"><a xlink:href="all_8hpp.html" target="_top" xlink:title="Includes all JNGL headers except for init.hpp.">
<polygon fill="white" stroke="#666666" points="89,-74 0,-74 0,-55 89,-55 89,-74"/>
<text text-anchor="middle" x="44.5" y="-62" font-family="ui-monospace,monospace" font-size="10.00">jngl/all.hpp</text>
</a>
</g>
</g>
<!-- Node1&#45;&gt;Node2 -->
<g id="edge1" class="edge">
<title>Node1&#45;&gt;Node2</title>
<path fill="none" stroke="#63b8ff" d="M55.97,-159.95C43.94,-152.61 31.19,-142.29 24.5,-129 15.15,-110.42 28.83,-86.57 37.79,-74.05"/>
<polygon fill="#63b8ff" stroke="#63b8ff" points="54.49,-163.13 64.92,-164.98 57.92,-157.03 54.49,-163.13"/>
</g>
<!-- Node4 -->
<g id="node4" class="node">
<title>Node4</title>
<g id="a_node4"><a xlink:href="debug_8hpp.html" target="_top" xlink:title="Logging functions for debug purposes.">
<polygon fill="white" stroke="#666666" points="135,-129 34,-129 34,-110 135,-110 135,-129"/>
<text text-anchor="middle" x="84.5" y="-117" font-family="ui-monospace,monospace" font-size="10.00">jngl/debug.hpp</text>
</a>
</g>
</g>
<!-- Node1&#45;&gt;Node4 -->
<g id="edge3" class="edge">
<title>Node1&#45;&gt;Node4</title>
<path fill="none" stroke="#63b8ff" d="M84.5,-154.66C84.5,-145.93 84.5,-135.99 84.5,-129.09"/>
<polygon fill="#63b8ff" stroke="#63b8ff" points="81,-154.75 84.5,-164.75 88,-154.75 81,-154.75"/>
</g>
<!-- Node5 -->
<g id="node5" class="node">
<title>Node5</title>
<g id="a_node5"><a xlink:href="init_8hpp.html" target="_top" xlink:title="Include this file only once, as it defines the main function.">
<polygon fill="white" stroke="#666666" points="248,-129 153,-129 153,-110 248,-110 248,-129"/>
<text text-anchor="middle" x="200.5" y="-117" font-family="ui-monospace,monospace" font-size="10.00">jngl/init.hpp</text>
</a>
</g>
</g>
<!-- Node1&#45;&gt;Node5 -->
<g id="edge5" class="edge">
<title>Node1&#45;&gt;Node5</title>
<path fill="none" stroke="#63b8ff" d="M112.37,-160.77C133.77,-150.99 162.74,-137.75 181.52,-129.17"/>
<polygon fill="#63b8ff" stroke="#63b8ff" points="110.78,-157.65 103.14,-164.98 113.69,-164.01 110.78,-157.65"/>
</g>
<!-- Node3 -->
<g id="node3" class="node">
<title>Node3</title>
<g id="a_node3"><a xlink:href="jngl_8hpp.html" target="_top" xlink:title="Includes jngl/all.hpp.">
<polygon fill="white" stroke="#666666" points="77,-19 12,-19 12,0 77,0 77,-19"/>
<text text-anchor="middle" x="44.5" y="-7" font-family="ui-monospace,monospace" font-size="10.00">jngl.hpp</text>
</a>
</g>
</g>
<!-- Node2&#45;&gt;Node3 -->
<g id="edge2" class="edge">
<title>Node2&#45;&gt;Node3</title>
<path fill="none" stroke="#63b8ff" d="M44.5,-44.66C44.5,-35.93 44.5,-25.99 44.5,-19.09"/>
<polygon fill="#63b8ff" stroke="#63b8ff" points="41,-44.75 44.5,-54.75 48,-44.75 41,-44.75"/>
</g>
<!-- Node4&#45;&gt;Node2 -->
<g id="edge4" class="edge">
<title>Node4&#45;&gt;Node2</title>
<path fill="none" stroke="#63b8ff" d="M71.8,-101.67C64.87,-92.5 56.59,-81.52 50.98,-74.09"/>
<polygon fill="#63b8ff" stroke="#63b8ff" points="69.08,-103.87 77.89,-109.75 74.66,-99.66 69.08,-103.87"/>
</g>
</g>
</svg>
