<?xml version="1.0" encoding="UTF-8" standalone="no"?>
<!DOCTYPE svg PUBLIC "-//W3C//DTD SVG 1.1//EN"
 "http://www.w3.org/Graphics/SVG/1.1/DTD/svg11.dtd">
<!-- Generated by graphviz version 5.0.0 (0)
 -->
<!-- Title: jngl/message.hpp Pages: 1 -->
<svg width="155pt" height="192pt"
 viewBox="0.00 0.00 155.00 192.00" xmlns="http://www.w3.org/2000/svg" xmlns:xlink="http://www.w3.org/1999/xlink">
<g id="graph0" class="graph" transform="scale(1 1) rotate(0) translate(4 188)">
<title>jngl/message.hpp</title>
<!-- Node1 -->
<g id="node1" class="node">
<title>Node1</title>
<g id="a_node1"><a xlink:title=" ">
<polygon fill="#999999" stroke="#666666" points="113,-184 0,-184 0,-165 113,-165 113,-184"/>
<text text-anchor="middle" x="56.5" y="-172" font-family="ui-monospace,monospace" font-size="10.00">jngl/message.hpp</text>
</a>
</g>
</g>
<!-- Node2 -->
<g id="node2" class="node">
<title>Node2</title>
<g id="a_node2"><a xlink:href="all_8hpp.html" target="_top" xlink:title="Includes all JNGL headers except for init.hpp.">
<polygon fill="white" stroke="#666666" points="101,-74 12,-74 12,-55 101,-55 101,-74"/>
<text text-anchor="middle" x="56.5" y="-62" font-family="ui-monospace,monospace" font-size="10.00">jngl/all.hpp</text>
</a>
</g>
</g>
<!-- Node1&#45;&gt;Node2 -->
<g id="edge1" class="edge">
<title>Node1&#45;&gt;Node2</title>
<path fill="none" stroke="#63b8ff" d="M45.66,-155.64C39.31,-143.05 33.14,-125.69 36.5,-110 39.31,-96.91 46.27,-83.03 51.18,-74.32"/>
<polygon fill="#63b8ff" stroke="#63b8ff" points="42.71,-157.54 50.61,-164.6 48.84,-154.15 42.71,-157.54"/>
</g>
<!-- Node4 -->
<g id="node4" class="node">
<title>Node4</title>
<g id="a_node4"><a xlink:href="debug_8hpp.html" target="_top" xlink:title="Logging functions for debug purposes.">
<polygon fill="white" stroke="#666666" points="147,-129 46,-129 46,-110 147,-110 147,-129"/>
<text text-anchor="middle" x="96.5" y="-117" font-family="ui-monospace,monospace" font-size="10.00">jngl/debug.hpp</text>
</a>
</g>
</g>
<!-- Node1&#45;&gt;Node4 -->
<g id="edge3" class="edge">
<title>Node1&#45;&gt;Node4</title>
<path fill="none" stroke="#63b8ff" d="M69.2,-156.67C76.13,-147.5 84.41,-136.52 90.02,-129.09"/>
<polygon fill="#63b8ff" stroke="#63b8ff" points="66.34,-154.66 63.11,-164.75 71.92,-158.87 66.34,-154.66"/>
</g>
<!-- Node3 -->
<g id="node3" class="node">
<title>Node3</title>
<g id="a_node3"><a xlink:href="jngl_8hpp.html" target="_top" xlink:title="Includes jngl/all.hpp.">
<polygon fill="white" stroke="#666666" points="89,-19 24,-19 24,0 89,0 89,-19"/>
<text text-anchor="middle" x="56.5" y="-7" font-family="ui-monospace,monospace" font-size="10.00">jngl.hpp</text>
</a>
</g>
</g>
<!-- Node2&#45;&gt;Node3 -->
<g id="edge2" class="edge">
<title>Node2&#45;&gt;Node3</title>
<path fill="none" stroke="#63b8ff" d="M56.5,-44.66C56.5,-35.93 56.5,-25.99 56.5,-19.09"/>
<polygon fill="#63b8ff" stroke="#63b8ff" points="53,-44.75 56.5,-54.75 60,-44.75 53,-44.75"/>
</g>
<!-- Node4&#45;&gt;Node2 -->
<g id="edge4" class="edge">
<title>Node4&#45;&gt;Node2</title>
<path fill="none" stroke="#63b8ff" d="M83.8,-101.67C76.87,-92.5 68.59,-81.52 62.98,-74.09"/>
<polygon fill="#63b8ff" stroke="#63b8ff" points="81.08,-103.87 89.89,-109.75 86.66,-99.66 81.08,-103.87"/>
</g>
</g>
</svg>
