<?xml version="1.0" encoding="UTF-8" standalone="no"?>
<!DOCTYPE svg PUBLIC "-//W3C//DTD SVG 1.1//EN"
 "http://www.w3.org/Graphics/SVG/1.1/DTD/svg11.dtd">
<!-- Generated by graphviz version 5.0.0 (0)
 -->
<!-- Title: jngl/message.hpp Pages: 1 -->
<svg width="155pt" height="137pt"
 viewBox="0.00 0.00 155.00 137.00" xmlns="http://www.w3.org/2000/svg" xmlns:xlink="http://www.w3.org/1999/xlink">
<g id="graph0" class="graph" transform="scale(1 1) rotate(0) translate(4 133)">
<title>jngl/message.hpp</title>
<!-- Node1 -->
<g id="node1" class="node">
<title>Node1</title>
<g id="a_node1"><a xlink:title=" ">
<polygon fill="#999999" stroke="#666666" points="113,-129 0,-129 0,-110 113,-110 113,-129"/>
<text text-anchor="middle" x="56.5" y="-117" font-family="ui-monospace,monospace" font-size="10.00">jngl/message.hpp</text>
</a>
</g>
</g>
<!-- Node2 -->
<g id="node2" class="node">
<title>Node2</title>
<g id="a_node2"><a xlink:href="jngl_8hpp.html" target="_top" xlink:title="Includes all JNGL headers except for init.hpp.">
<polygon fill="white" stroke="#666666" points="89,-19 24,-19 24,0 89,0 89,-19"/>
<text text-anchor="middle" x="56.5" y="-7" font-family="ui-monospace,monospace" font-size="10.00">jngl.hpp</text>
</a>
</g>
</g>
<!-- Node1&#45;&gt;Node2 -->
<g id="edge1" class="edge">
<title>Node1&#45;&gt;Node2</title>
<path fill="none" stroke="#63b8ff" d="M45.66,-100.64C39.31,-88.05 33.14,-70.69 36.5,-55 39.31,-41.91 46.27,-28.03 51.18,-19.32"/>
<polygon fill="#63b8ff" stroke="#63b8ff" points="42.71,-102.54 50.61,-109.6 48.84,-99.15 42.71,-102.54"/>
</g>
<!-- Node3 -->
<g id="node3" class="node">
<title>Node3</title>
<g id="a_node3"><a xlink:href="debug_8hpp.html" target="_top" xlink:title="Logging functions for debug purposes.">
<polygon fill="white" stroke="#666666" points="147,-74 46,-74 46,-55 147,-55 147,-74"/>
<text text-anchor="middle" x="96.5" y="-62" font-family="ui-monospace,monospace" font-size="10.00">jngl/debug.hpp</text>
</a>
</g>
</g>
<!-- Node1&#45;&gt;Node3 -->
<g id="edge2" class="edge">
<title>Node1&#45;&gt;Node3</title>
<path fill="none" stroke="#63b8ff" d="M69.2,-101.67C76.13,-92.5 84.41,-81.52 90.02,-74.09"/>
<polygon fill="#63b8ff" stroke="#63b8ff" points="66.34,-99.66 63.11,-109.75 71.92,-103.87 66.34,-99.66"/>
</g>
<!-- Node3&#45;&gt;Node2 -->
<g id="edge3" class="edge">
<title>Node3&#45;&gt;Node2</title>
<path fill="none" stroke="#63b8ff" d="M83.8,-46.67C76.87,-37.5 68.59,-26.52 62.98,-19.09"/>
<polygon fill="#63b8ff" stroke="#63b8ff" points="81.08,-48.87 89.89,-54.75 86.66,-44.66 81.08,-48.87"/>
</g>
</g>
</svg>
