<?xml version="1.0" encoding="UTF-8" standalone="no"?>
<!DOCTYPE svg PUBLIC "-//W3C//DTD SVG 1.1//EN"
 "http://www.w3.org/Graphics/SVG/1.1/DTD/svg11.dtd">
<!-- Generated by graphviz version 12.1.0 (20240811.2233)
 -->
<!-- Title: jngl/message.hpp Pages: 1 -->
<svg width="153pt" height="138pt"
 viewBox="0.00 0.00 153.00 137.75" xmlns="http://www.w3.org/2000/svg" xmlns:xlink="http://www.w3.org/1999/xlink">
<g id="graph0" class="graph" transform="scale(1 1) rotate(0) translate(4 133.75)">
<title>jngl/message.hpp</title>
<!-- Node1 -->
<g id="Node000001" class="node">
<title>Node1</title>
<g id="a_Node000001"><a xlink:title=" ">
<polygon fill="#999999" stroke="#666666" points="112,-129.75 0,-129.75 0,-110.5 112,-110.5 112,-129.75"/>
<text text-anchor="middle" x="56" y="-116.25" font-family="ui-monospace,monospace" font-size="10.00">jngl/message.hpp</text>
</a>
</g>
</g>
<!-- Node2 -->
<g id="Node000002" class="node">
<title>Node2</title>
<g id="a_Node000002"><a xlink:href="jngl_8hpp.html" target="_top" xlink:title="Includes all JNGL headers except for init.hpp.">
<polygon fill="white" stroke="#666666" points="88,-19.25 24,-19.25 24,0 88,0 88,-19.25"/>
<text text-anchor="middle" x="56" y="-5.75" font-family="ui-monospace,monospace" font-size="10.00">jngl.hpp</text>
</a>
</g>
</g>
<!-- Node1&#45;&gt;Node2 -->
<g id="edge1_Node000001_Node000002" class="edge">
<title>Node1&#45;&gt;Node2</title>
<g id="a_edge1_Node000001_Node000002"><a xlink:title=" ">
<path fill="none" stroke="#63b8ff" d="M44.77,-100.4C38.56,-87.8 32.69,-70.72 36,-55.25 38.81,-42.13 45.77,-28.21 50.68,-19.47"/>
<polygon fill="#63b8ff" stroke="#63b8ff" points="41.52,-101.74 49.38,-108.84 47.66,-98.39 41.52,-101.74"/>
</a>
</g>
</g>
<!-- Node3 -->
<g id="Node000003" class="node">
<title>Node3</title>
<g id="a_Node000003"><a xlink:href="debug_8hpp.html" target="_top" xlink:title="Logging functions for debug purposes, deprecated in favor of log.hpp.">
<polygon fill="white" stroke="#666666" points="145,-74.5 45,-74.5 45,-55.25 145,-55.25 145,-74.5"/>
<text text-anchor="middle" x="95" y="-61" font-family="ui-monospace,monospace" font-size="10.00">jngl/debug.hpp</text>
</a>
</g>
</g>
<!-- Node1&#45;&gt;Node3 -->
<g id="edge2_Node000001_Node000003" class="edge">
<title>Node1&#45;&gt;Node3</title>
<g id="a_edge2_Node000001_Node000003"><a xlink:title=" ">
<path fill="none" stroke="#63b8ff" d="M69.14,-101.19C75.62,-92.34 83.16,-82.04 88.42,-74.86"/>
<polygon fill="#63b8ff" stroke="#63b8ff" points="66.42,-98.98 63.33,-109.11 72.07,-103.11 66.42,-98.98"/>
</a>
</g>
</g>
<!-- Node3&#45;&gt;Node2 -->
<g id="edge3_Node000003_Node000002" class="edge">
<title>Node3&#45;&gt;Node2</title>
<g id="a_edge3_Node000003_Node000002"><a xlink:title=" ">
<path fill="none" stroke="#63b8ff" d="M81.86,-45.94C75.38,-37.09 67.84,-26.79 62.58,-19.61"/>
<polygon fill="#63b8ff" stroke="#63b8ff" points="78.93,-47.86 87.67,-53.86 84.58,-43.73 78.93,-47.86"/>
</a>
</g>
</g>
</g>
</svg>
