<?xml version="1.0" encoding="UTF-8" standalone="no"?>
<!DOCTYPE svg PUBLIC "-//W3C//DTD SVG 1.1//EN"
 "http://www.w3.org/Graphics/SVG/1.1/DTD/svg11.dtd">
<!-- Generated by graphviz version 2.40.1 (0)
 -->
<!-- Title: jngl/message.hpp Pages: 1 -->
<svg width="154pt" height="196pt"
 viewBox="0.00 0.00 154.00 196.00" xmlns="http://www.w3.org/2000/svg" xmlns:xlink="http://www.w3.org/1999/xlink">
<g id="graph0" class="graph" transform="scale(1 1) rotate(0) translate(4 192)">
<title>jngl/message.hpp</title>
<polygon fill="#ffffff" stroke="transparent" points="-4,4 -4,-192 150,-192 150,4 -4,4"/>
<!-- Node2 -->
<g id="node1" class="node">
<title>Node2</title>
<g id="a_node1"><a xlink:title=" ">
<polygon fill="#bfbfbf" stroke="#000000" points="33,-168.5 33,-187.5 146,-187.5 146,-168.5 33,-168.5"/>
<text text-anchor="middle" x="89.5" y="-175.5" font-family="'Consolas',monospace" font-size="10.00" fill="#000000">jngl/message.hpp</text>
</a>
</g>
</g>
<!-- Node3 -->
<g id="node2" class="node">
<title>Node3</title>
<g id="a_node2"><a xlink:href="debug_8hpp_source.html" target="_top" xlink:title=" ">
<polygon fill="#ffffff" stroke="#000000" points="0,-112.5 0,-131.5 101,-131.5 101,-112.5 0,-112.5"/>
<text text-anchor="middle" x="50.5" y="-119.5" font-family="'Consolas',monospace" font-size="10.00" fill="#000000">jngl/debug.hpp</text>
</a>
</g>
</g>
<!-- Node2&#45;&gt;Node3 -->
<g id="edge1" class="edge">
<title>Node2&#45;&gt;Node3</title>
<path fill="none" stroke="#191970" d="M76.9092,-159.9209C70.3605,-150.5176 62.6176,-139.3997 57.2154,-131.6427"/>
<polygon fill="#191970" stroke="#191970" points="74.1196,-162.0397 82.7067,-168.2455 79.8639,-158.0392 74.1196,-162.0397"/>
</g>
<!-- Node4 -->
<g id="node3" class="node">
<title>Node4</title>
<g id="a_node3"><a xlink:href="all_8hpp.html" target="_top" xlink:title="Includes all JNGL headers.">
<polygon fill="#ffffff" stroke="#000000" points="45,-56.5 45,-75.5 134,-75.5 134,-56.5 45,-56.5"/>
<text text-anchor="middle" x="89.5" y="-63.5" font-family="'Consolas',monospace" font-size="10.00" fill="#000000">jngl/all.hpp</text>
</a>
</g>
</g>
<!-- Node2&#45;&gt;Node4 -->
<g id="edge4" class="edge">
<title>Node2&#45;&gt;Node4</title>
<path fill="none" stroke="#191970" d="M100.925,-159.3805C107.5874,-146.2971 114.0429,-128.2918 110.5,-112 107.6271,-98.7892 100.6112,-84.8263 95.4765,-75.7968"/>
<polygon fill="#191970" stroke="#191970" points="97.7567,-157.8761 95.952,-168.3161 103.8733,-161.2802 97.7567,-157.8761"/>
</g>
<!-- Node3&#45;&gt;Node4 -->
<g id="edge2" class="edge">
<title>Node3&#45;&gt;Node4</title>
<path fill="none" stroke="#191970" d="M63.0908,-103.9209C69.6395,-94.5176 77.3824,-83.3997 82.7846,-75.6427"/>
<polygon fill="#191970" stroke="#191970" points="60.1361,-102.0392 57.2933,-112.2455 65.8804,-106.0397 60.1361,-102.0392"/>
</g>
<!-- Node5 -->
<g id="node4" class="node">
<title>Node5</title>
<g id="a_node4"><a xlink:href="jngl_8hpp_source.html" target="_top" xlink:title=" ">
<polygon fill="#ffffff" stroke="#000000" points="57,-.5 57,-19.5 122,-19.5 122,-.5 57,-.5"/>
<text text-anchor="middle" x="89.5" y="-7.5" font-family="'Consolas',monospace" font-size="10.00" fill="#000000">jngl.hpp</text>
</a>
</g>
</g>
<!-- Node4&#45;&gt;Node5 -->
<g id="edge3" class="edge">
<title>Node4&#45;&gt;Node5</title>
<path fill="none" stroke="#191970" d="M89.5,-46.1575C89.5,-37.155 89.5,-26.9199 89.5,-19.6427"/>
<polygon fill="#191970" stroke="#191970" points="86.0001,-46.2455 89.5,-56.2455 93.0001,-46.2456 86.0001,-46.2455"/>
</g>
</g>
</svg>
