<?xml version="1.0" encoding="UTF-8" standalone="no"?>
<!DOCTYPE svg PUBLIC "-//W3C//DTD SVG 1.1//EN"
 "http://www.w3.org/Graphics/SVG/1.1/DTD/svg11.dtd">
<!-- Generated by graphviz version 5.0.0 (0)
 -->
<!-- Title: jngl/message.hpp Pages: 1 -->
<svg width="244pt" height="137pt"
 viewBox="0.00 0.00 244.00 137.00" xmlns="http://www.w3.org/2000/svg" xmlns:xlink="http://www.w3.org/1999/xlink">
<g id="graph0" class="graph" transform="scale(1 1) rotate(0) translate(4 133)">
<title>jngl/message.hpp</title>
<!-- Node1 -->
<g id="node1" class="node">
<title>Node1</title>
<g id="a_node1"><a xlink:title=" ">
<polygon fill="#999999" stroke="#666666" points="129,-129 16,-129 16,-110 129,-110 129,-129"/>
<text text-anchor="middle" x="72.5" y="-117" font-family="ui-monospace,monospace" font-size="10.00">jngl/message.hpp</text>
</a>
</g>
</g>
<!-- Node2 -->
<g id="node2" class="node">
<title>Node2</title>
<g id="a_node2"><a xlink:href="jngl_8hpp.html" target="_top" xlink:title="Includes all JNGL headers except for init.hpp.">
<polygon fill="white" stroke="#666666" points="65,-19 0,-19 0,0 65,0 65,-19"/>
<text text-anchor="middle" x="32.5" y="-7" font-family="ui-monospace,monospace" font-size="10.00">jngl.hpp</text>
</a>
</g>
</g>
<!-- Node1&#45;&gt;Node2 -->
<g id="edge1" class="edge">
<title>Node1&#45;&gt;Node2</title>
<path fill="none" stroke="#63b8ff" d="M43.97,-104.95C31.94,-97.61 19.19,-87.29 12.5,-74 3.15,-55.42 16.83,-31.57 25.79,-19.05"/>
<polygon fill="#63b8ff" stroke="#63b8ff" points="42.49,-108.13 52.92,-109.98 45.92,-102.03 42.49,-108.13"/>
</g>
<!-- Node3 -->
<g id="node3" class="node">
<title>Node3</title>
<g id="a_node3"><a xlink:href="debug_8hpp.html" target="_top" xlink:title="Logging functions for debug purposes.">
<polygon fill="white" stroke="#666666" points="123,-74 22,-74 22,-55 123,-55 123,-74"/>
<text text-anchor="middle" x="72.5" y="-62" font-family="ui-monospace,monospace" font-size="10.00">jngl/debug.hpp</text>
</a>
</g>
</g>
<!-- Node1&#45;&gt;Node3 -->
<g id="edge2" class="edge">
<title>Node1&#45;&gt;Node3</title>
<path fill="none" stroke="#63b8ff" d="M72.5,-99.66C72.5,-90.93 72.5,-80.99 72.5,-74.09"/>
<polygon fill="#63b8ff" stroke="#63b8ff" points="69,-99.75 72.5,-109.75 76,-99.75 69,-99.75"/>
</g>
<!-- Node4 -->
<g id="node4" class="node">
<title>Node4</title>
<g id="a_node4"><a xlink:href="init_8hpp.html" target="_top" xlink:title="Include this file only once, as it defines the main function.">
<polygon fill="white" stroke="#666666" points="236,-74 141,-74 141,-55 236,-55 236,-74"/>
<text text-anchor="middle" x="188.5" y="-62" font-family="ui-monospace,monospace" font-size="10.00">jngl/init.hpp</text>
</a>
</g>
</g>
<!-- Node1&#45;&gt;Node4 -->
<g id="edge4" class="edge">
<title>Node1&#45;&gt;Node4</title>
<path fill="none" stroke="#63b8ff" d="M100.37,-105.77C121.77,-95.99 150.74,-82.75 169.52,-74.17"/>
<polygon fill="#63b8ff" stroke="#63b8ff" points="98.78,-102.65 91.14,-109.98 101.69,-109.01 98.78,-102.65"/>
</g>
<!-- Node3&#45;&gt;Node2 -->
<g id="edge3" class="edge">
<title>Node3&#45;&gt;Node2</title>
<path fill="none" stroke="#63b8ff" d="M59.8,-46.67C52.87,-37.5 44.59,-26.52 38.98,-19.09"/>
<polygon fill="#63b8ff" stroke="#63b8ff" points="57.08,-48.87 65.89,-54.75 62.66,-44.66 57.08,-48.87"/>
</g>
</g>
</svg>
