<?xml version="1.0" encoding="UTF-8" standalone="no"?>
<!DOCTYPE svg PUBLIC "-//W3C//DTD SVG 1.1//EN"
 "http://www.w3.org/Graphics/SVG/1.1/DTD/svg11.dtd">
<!-- Generated by graphviz version 9.0.0 (20230911.1827)
 -->
<!-- Title: jngl/message.hpp Pages: 1 -->
<svg width="241pt" height="138pt"
 viewBox="0.00 0.00 241.00 137.75" xmlns="http://www.w3.org/2000/svg" xmlns:xlink="http://www.w3.org/1999/xlink">
<g id="graph0" class="graph" transform="scale(1 1) rotate(0) translate(4 133.75)">
<title>jngl/message.hpp</title>
<!-- Node1 -->
<g id="Node000001" class="node">
<title>Node1</title>
<g id="a_Node000001"><a xlink:title=" ">
<polygon fill="#999999" stroke="#666666" points="127,-129.75 15,-129.75 15,-110.5 127,-110.5 127,-129.75"/>
<text text-anchor="middle" x="71" y="-116.25" font-family="ui-monospace,monospace" font-size="10.00">jngl/message.hpp</text>
</a>
</g>
</g>
<!-- Node2 -->
<g id="Node000002" class="node">
<title>Node2</title>
<g id="a_Node000002"><a xlink:href="jngl_8hpp.html" target="_top" xlink:title="Includes all JNGL headers except for init.hpp.">
<polygon fill="white" stroke="#666666" points="64,-19.25 0,-19.25 0,0 64,0 64,-19.25"/>
<text text-anchor="middle" x="32" y="-5.75" font-family="ui-monospace,monospace" font-size="10.00">jngl.hpp</text>
</a>
</g>
</g>
<!-- Node1&#45;&gt;Node2 -->
<g id="edge1_Node000001_Node000002" class="edge">
<title>Node1&#45;&gt;Node2</title>
<g id="a_edge1_Node000001_Node000002"><a xlink:title=" ">
<path fill="none" stroke="#63b8ff" d="M41.16,-104.29C29.87,-96.99 18.24,-87.04 12,-74.5 2.79,-55.98 16.06,-32.33 25,-19.64"/>
<polygon fill="#63b8ff" stroke="#63b8ff" points="39.17,-107.18 49.56,-109.25 42.73,-101.15 39.17,-107.18"/>
</a>
</g>
</g>
<!-- Node3 -->
<g id="Node000003" class="node">
<title>Node3</title>
<g id="a_Node000003"><a xlink:href="debug_8hpp.html" target="_top" xlink:title="Logging functions for debug purposes, deprecated in favor of log.hpp.">
<polygon fill="white" stroke="#666666" points="121,-74.5 21,-74.5 21,-55.25 121,-55.25 121,-74.5"/>
<text text-anchor="middle" x="71" y="-61" font-family="ui-monospace,monospace" font-size="10.00">jngl/debug.hpp</text>
</a>
</g>
</g>
<!-- Node1&#45;&gt;Node3 -->
<g id="edge2_Node000001_Node000003" class="edge">
<title>Node1&#45;&gt;Node3</title>
<g id="a_edge2_Node000001_Node000003"><a xlink:title=" ">
<path fill="none" stroke="#63b8ff" d="M71,-98.88C71,-90.59 71,-81.42 71,-74.86"/>
<polygon fill="#63b8ff" stroke="#63b8ff" points="67.5,-98.82 71,-108.82 74.5,-98.82 67.5,-98.82"/>
</a>
</g>
</g>
<!-- Node4 -->
<g id="Node000004" class="node">
<title>Node4</title>
<g id="a_Node000004"><a xlink:href="init_8hpp.html" target="_top" xlink:title="Include this file only once, as it defines the main function.">
<polygon fill="white" stroke="#666666" points="233,-74.5 139,-74.5 139,-55.25 233,-55.25 233,-74.5"/>
<text text-anchor="middle" x="186" y="-61" font-family="ui-monospace,monospace" font-size="10.00">jngl/init.hpp</text>
</a>
</g>
</g>
<!-- Node1&#45;&gt;Node4 -->
<g id="edge4_Node000001_Node000004" class="edge">
<title>Node1&#45;&gt;Node4</title>
<g id="a_edge4_Node000001_Node000004"><a xlink:title=" ">
<path fill="none" stroke="#63b8ff" d="M100.95,-105.26C121.59,-95.7 148.44,-83.27 166.4,-74.95"/>
<polygon fill="#63b8ff" stroke="#63b8ff" points="99.49,-102.08 91.88,-109.46 102.43,-108.43 99.49,-102.08"/>
</a>
</g>
</g>
<!-- Node3&#45;&gt;Node2 -->
<g id="edge3_Node000003_Node000002" class="edge">
<title>Node3&#45;&gt;Node2</title>
<g id="a_edge3_Node000003_Node000002"><a xlink:title=" ">
<path fill="none" stroke="#63b8ff" d="M57.86,-45.94C51.38,-37.09 43.84,-26.79 38.58,-19.61"/>
<polygon fill="#63b8ff" stroke="#63b8ff" points="54.93,-47.86 63.67,-53.86 60.58,-43.73 54.93,-47.86"/>
</a>
</g>
</g>
</g>
</svg>
