<?xml version="1.0" encoding="UTF-8" standalone="no"?>
<!DOCTYPE svg PUBLIC "-//W3C//DTD SVG 1.1//EN"
 "http://www.w3.org/Graphics/SVG/1.1/DTD/svg11.dtd">
<!-- Generated by graphviz version 12.1.0 (20240811.2233)
 -->
<!-- Title: jngl/MouseInfo.hpp Pages: 1 -->
<svg width="307pt" height="138pt"
 viewBox="0.00 0.00 307.00 137.75" xmlns="http://www.w3.org/2000/svg" xmlns:xlink="http://www.w3.org/1999/xlink">
<g id="graph0" class="graph" transform="scale(1 1) rotate(0) translate(4 133.75)">
<title>jngl/MouseInfo.hpp</title>
<!-- Node1 -->
<g id="Node000001" class="node">
<title>Node1</title>
<g id="a_Node000001"><a xlink:title="Contains jngl::MouseInfo class.">
<polygon fill="#999999" stroke="#666666" points="259,-129.75 135,-129.75 135,-110.5 259,-110.5 259,-129.75"/>
<text text-anchor="middle" x="197" y="-116.25" font-family="ui-monospace,monospace" font-size="10.00">jngl/MouseInfo.hpp</text>
</a>
</g>
</g>
<!-- Node2 -->
<g id="Node000002" class="node">
<title>Node2</title>
<g id="a_Node000002"><a xlink:href="Vec2_8hpp.html" target="_top" xlink:title="Contains jngl::Vec2 class.">
<polygon fill="white" stroke="#666666" points="147,-74.5 83,-74.5 83,-55.25 147,-55.25 147,-74.5"/>
<text text-anchor="middle" x="115" y="-61" font-family="ui-monospace,monospace" font-size="10.00">Vec2.hpp</text>
</a>
</g>
</g>
<!-- Node1&#45;&gt;Node2 -->
<g id="edge1_Node000001_Node000002" class="edge">
<title>Node1&#45;&gt;Node2</title>
<g id="a_edge1_Node000001_Node000002"><a xlink:title=" ">
<path fill="none" stroke="#63b8ff" d="M183.09,-110.09C170.84,-102.14 152.75,-90.39 138.29,-81"/>
<polygon fill="#63b8ff" stroke="#63b8ff" points="140.54,-78.29 130.25,-75.78 136.73,-84.16 140.54,-78.29"/>
</a>
</g>
</g>
<!-- Node5 -->
<g id="Node000005" class="node">
<title>Node5</title>
<g id="a_Node000005"><a target="_parent" xlink:href="http://en.cppreference.com/w/cpp/header/optional.html" xlink:title=" ">
<polygon fill="white" stroke="#666666" points="229,-74.5 165,-74.5 165,-55.25 229,-55.25 229,-74.5"/>
<text text-anchor="middle" x="197" y="-61" font-family="ui-monospace,monospace" font-size="10.00">optional</text>
</a>
</g>
</g>
<!-- Node1&#45;&gt;Node5 -->
<g id="edge4_Node000001_Node000005" class="edge">
<title>Node1&#45;&gt;Node5</title>
<g id="a_edge4_Node000001_Node000005"><a xlink:title=" ">
<path fill="none" stroke="#63b8ff" d="M197,-110.33C197,-103.82 197,-94.67 197,-86.37"/>
<polygon fill="#63b8ff" stroke="#63b8ff" points="200.5,-86.37 197,-76.37 193.5,-86.37 200.5,-86.37"/>
</a>
</g>
</g>
<!-- Node6 -->
<g id="Node000006" class="node">
<title>Node6</title>
<g id="a_Node000006"><a target="_parent" xlink:href="http://en.cppreference.com/w/cpp/header/vector.html" xlink:title=" ">
<polygon fill="white" stroke="#666666" points="299,-74.5 247,-74.5 247,-55.25 299,-55.25 299,-74.5"/>
<text text-anchor="middle" x="273" y="-61" font-family="ui-monospace,monospace" font-size="10.00">vector</text>
</a>
</g>
</g>
<!-- Node1&#45;&gt;Node6 -->
<g id="edge5_Node000001_Node000006" class="edge">
<title>Node1&#45;&gt;Node6</title>
<g id="a_edge5_Node000001_Node000006"><a xlink:title=" ">
<path fill="none" stroke="#63b8ff" d="M209.89,-110.09C221.03,-102.29 237.37,-90.84 250.64,-81.54"/>
<polygon fill="#63b8ff" stroke="#63b8ff" points="252.62,-84.43 258.8,-75.82 248.61,-78.69 252.62,-84.43"/>
</a>
</g>
</g>
<!-- Node3 -->
<g id="Node000003" class="node">
<title>Node3</title>
<g id="a_Node000003"><a xlink:title=" ">
<polygon fill="#e0e0e0" stroke="#999999" points="124,-19.25 0,-19.25 0,0 124,0 124,-19.25"/>
<text text-anchor="middle" x="62" y="-5.75" font-family="ui-monospace,monospace" font-size="10.00">boost/qvm_lite.hpp</text>
</a>
</g>
</g>
<!-- Node2&#45;&gt;Node3 -->
<g id="edge2_Node000002_Node000003" class="edge">
<title>Node2&#45;&gt;Node3</title>
<g id="a_edge2_Node000002_Node000003"><a xlink:title=" ">
<path fill="none" stroke="#63b8ff" d="M106.25,-55.08C98.85,-47.65 88.04,-36.79 78.95,-27.66"/>
<polygon fill="#63b8ff" stroke="#63b8ff" points="81.54,-25.3 72.01,-20.68 76.58,-30.24 81.54,-25.3"/>
</a>
</g>
</g>
<!-- Node4 -->
<g id="Node000004" class="node">
<title>Node4</title>
<g id="a_Node000004"><a target="_parent" xlink:href="http://en.cppreference.com/w/cpp/header/iosfwd.html" xlink:title=" ">
<polygon fill="white" stroke="#666666" points="194,-19.25 142,-19.25 142,0 194,0 194,-19.25"/>
<text text-anchor="middle" x="168" y="-5.75" font-family="ui-monospace,monospace" font-size="10.00">iosfwd</text>
</a>
</g>
</g>
<!-- Node2&#45;&gt;Node4 -->
<g id="edge3_Node000002_Node000004" class="edge">
<title>Node2&#45;&gt;Node4</title>
<g id="a_edge3_Node000002_Node000004"><a xlink:title=" ">
<path fill="none" stroke="#63b8ff" d="M123.75,-55.08C131.15,-47.65 141.96,-36.79 151.05,-27.66"/>
<polygon fill="#63b8ff" stroke="#63b8ff" points="153.42,-30.24 157.99,-20.68 148.46,-25.3 153.42,-30.24"/>
</a>
</g>
</g>
</g>
</svg>
