<?xml version="1.0" encoding="UTF-8" standalone="no"?>
<!DOCTYPE svg PUBLIC "-//W3C//DTD SVG 1.1//EN"
 "http://www.w3.org/Graphics/SVG/1.1/DTD/svg11.dtd">
<!-- Generated by graphviz version 5.0.0 (0)
 -->
<!-- Title: jngl/other.hpp Pages: 1 -->
<svg width="186pt" height="137pt"
 viewBox="0.00 0.00 186.00 137.00" xmlns="http://www.w3.org/2000/svg" xmlns:xlink="http://www.w3.org/1999/xlink">
<g id="graph0" class="graph" transform="scale(1 1) rotate(0) translate(4 133)">
<title>jngl/other.hpp</title>
<!-- Node1 -->
<g id="node1" class="node">
<title>Node1</title>
<g id="a_node1"><a xlink:title="Miscellaneous functions.">
<polygon fill="#999999" stroke="#666666" points="132,-129 31,-129 31,-110 132,-110 132,-129"/>
<text text-anchor="middle" x="81.5" y="-117" font-family="ui-monospace,monospace" font-size="10.00">jngl/other.hpp</text>
</a>
</g>
</g>
<!-- Node2 -->
<g id="node2" class="node">
<title>Node2</title>
<g id="a_node2"><a xlink:href="jngl_8hpp.html" target="_top" xlink:title="Includes all JNGL headers except for init.hpp.">
<polygon fill="white" stroke="#666666" points="65,-74 0,-74 0,-55 65,-55 65,-74"/>
<text text-anchor="middle" x="32.5" y="-62" font-family="ui-monospace,monospace" font-size="10.00">jngl.hpp</text>
</a>
</g>
</g>
<!-- Node1&#45;&gt;Node2 -->
<g id="edge1" class="edge">
<title>Node1&#45;&gt;Node2</title>
<path fill="none" stroke="#63b8ff" d="M66.47,-102.24C57.88,-92.95 47.46,-81.68 40.44,-74.09"/>
<polygon fill="#63b8ff" stroke="#63b8ff" points="64.05,-104.78 73.41,-109.75 69.19,-100.03 64.05,-104.78"/>
</g>
<!-- Node3 -->
<g id="node3" class="node">
<title>Node3</title>
<g id="a_node3"><a xlink:href="main_8hpp.html" target="_top" xlink:title="Defines macros for the main entry point.">
<polygon fill="white" stroke="#666666" points="178,-74 83,-74 83,-55 178,-55 178,-74"/>
<text text-anchor="middle" x="130.5" y="-62" font-family="ui-monospace,monospace" font-size="10.00">jngl/main.hpp</text>
</a>
</g>
</g>
<!-- Node1&#45;&gt;Node3 -->
<g id="edge2" class="edge">
<title>Node1&#45;&gt;Node3</title>
<path fill="none" stroke="#63b8ff" d="M96.53,-102.24C105.12,-92.95 115.54,-81.68 122.56,-74.09"/>
<polygon fill="#63b8ff" stroke="#63b8ff" points="93.81,-100.03 89.59,-109.75 98.95,-104.78 93.81,-100.03"/>
</g>
<!-- Node4 -->
<g id="node4" class="node">
<title>Node4</title>
<g id="a_node4"><a xlink:href="init_8hpp.html" target="_top" xlink:title="Include this file only once, as it defines the main function.">
<polygon fill="white" stroke="#666666" points="178,-19 83,-19 83,0 178,0 178,-19"/>
<text text-anchor="middle" x="130.5" y="-7" font-family="ui-monospace,monospace" font-size="10.00">jngl/init.hpp</text>
</a>
</g>
</g>
<!-- Node3&#45;&gt;Node4 -->
<g id="edge3" class="edge">
<title>Node3&#45;&gt;Node4</title>
<path fill="none" stroke="#63b8ff" d="M130.5,-44.66C130.5,-35.93 130.5,-25.99 130.5,-19.09"/>
<polygon fill="#63b8ff" stroke="#63b8ff" points="127,-44.75 130.5,-54.75 134,-44.75 127,-44.75"/>
</g>
</g>
</svg>
