<?xml version="1.0" encoding="UTF-8" standalone="no"?>
<!DOCTYPE svg PUBLIC "-//W3C//DTD SVG 1.1//EN"
 "http://www.w3.org/Graphics/SVG/1.1/DTD/svg11.dtd">
<!-- Generated by graphviz version 2.40.1 (0)
 -->
<!-- Title: jngl/other.hpp Pages: 1 -->
<svg width="115pt" height="196pt"
 viewBox="0.00 0.00 115.00 196.00" xmlns="http://www.w3.org/2000/svg" xmlns:xlink="http://www.w3.org/1999/xlink">
<g id="graph0" class="graph" transform="scale(1 1) rotate(0) translate(4 192)">
<title>jngl/other.hpp</title>
<polygon fill="#ffffff" stroke="transparent" points="-4,4 -4,-192 111,-192 111,4 -4,4"/>
<!-- Node4 -->
<g id="node1" class="node">
<title>Node4</title>
<polygon fill="#bfbfbf" stroke="#000000" points="31,-168.5 31,-187.5 107,-187.5 107,-168.5 31,-168.5"/>
<text text-anchor="middle" x="69" y="-175.5" font-family="Lato" font-size="10.00" fill="#000000">jngl/other.hpp</text>
</g>
<!-- Node5 -->
<g id="node2" class="node">
<title>Node5</title>
<g id="a_node2"><a xlink:href="main_8hpp_source.html" target="_top" xlink:title="jngl/main.hpp">
<polygon fill="#ffffff" stroke="#000000" points="0,-112.5 0,-131.5 74,-131.5 74,-112.5 0,-112.5"/>
<text text-anchor="middle" x="37" y="-119.5" font-family="Lato" font-size="10.00" fill="#000000">jngl/main.hpp</text>
</a>
</g>
</g>
<!-- Node4&#45;&gt;Node5 -->
<g id="edge1" class="edge">
<title>Node4&#45;&gt;Node5</title>
<path fill="none" stroke="#191970" d="M58.3355,-159.3372C53.0346,-150.0605 46.8513,-139.2398 42.5101,-131.6427"/>
<polygon fill="#191970" stroke="#191970" points="55.4257,-161.2996 63.426,-168.2455 61.5034,-157.8266 55.4257,-161.2996"/>
</g>
<!-- Node6 -->
<g id="node3" class="node">
<title>Node6</title>
<g id="a_node3"><a xlink:href="all_8hpp.html" target="_top" xlink:title="Includes all JNGL headers. ">
<polygon fill="#ffffff" stroke="#000000" points="38,-56.5 38,-75.5 100,-75.5 100,-56.5 38,-56.5"/>
<text text-anchor="middle" x="69" y="-63.5" font-family="Lato" font-size="10.00" fill="#000000">jngl/all.hpp</text>
</a>
</g>
</g>
<!-- Node4&#45;&gt;Node6 -->
<g id="edge4" class="edge">
<title>Node4&#45;&gt;Node6</title>
<path fill="none" stroke="#191970" d="M76.2619,-158.7C78.9506,-150.581 81.6673,-140.9561 83,-132 85.9998,-111.8409 78.4541,-88.5952 73.3123,-75.7718"/>
<polygon fill="#191970" stroke="#191970" points="72.8933,-157.728 72.8624,-168.3228 79.4936,-160.0598 72.8933,-157.728"/>
</g>
<!-- Node5&#45;&gt;Node6 -->
<g id="edge2" class="edge">
<title>Node5&#45;&gt;Node6</title>
<path fill="none" stroke="#191970" d="M47.6645,-103.3372C52.9654,-94.0605 59.1487,-83.2398 63.4899,-75.6427"/>
<polygon fill="#191970" stroke="#191970" points="44.4966,-101.8266 42.574,-112.2455 50.5743,-105.2996 44.4966,-101.8266"/>
</g>
<!-- Node7 -->
<g id="node4" class="node">
<title>Node7</title>
<g id="a_node4"><a xlink:href="jngl_8hpp_source.html" target="_top" xlink:title="jngl.hpp">
<polygon fill="#ffffff" stroke="#000000" points="44,-.5 44,-19.5 94,-19.5 94,-.5 44,-.5"/>
<text text-anchor="middle" x="69" y="-7.5" font-family="Lato" font-size="10.00" fill="#000000">jngl.hpp</text>
</a>
</g>
</g>
<!-- Node6&#45;&gt;Node7 -->
<g id="edge3" class="edge">
<title>Node6&#45;&gt;Node7</title>
<path fill="none" stroke="#191970" d="M69,-46.1575C69,-37.155 69,-26.9199 69,-19.6427"/>
<polygon fill="#191970" stroke="#191970" points="65.5001,-46.2455 69,-56.2455 72.5001,-46.2456 65.5001,-46.2455"/>
</g>
</g>
</svg>
