<?xml version="1.0" encoding="UTF-8" standalone="no"?>
<!DOCTYPE svg PUBLIC "-//W3C//DTD SVG 1.1//EN"
 "http://www.w3.org/Graphics/SVG/1.1/DTD/svg11.dtd">
<!-- Generated by graphviz version 9.0.0 (20230911.1827)
 -->
<!-- Title: jngl/other.hpp Pages: 1 -->
<svg width="206pt" height="83pt"
 viewBox="0.00 0.00 206.00 82.50" xmlns="http://www.w3.org/2000/svg" xmlns:xlink="http://www.w3.org/1999/xlink">
<g id="graph0" class="graph" transform="scale(1 1) rotate(0) translate(4 78.5)">
<title>jngl/other.hpp</title>
<!-- Node1 -->
<g id="Node000001" class="node">
<title>Node1</title>
<g id="a_Node000001"><a xlink:title="Miscellaneous functions.">
<polygon fill="#999999" stroke="#666666" points="152,-74.5 52,-74.5 52,-55.25 152,-55.25 152,-74.5"/>
<text text-anchor="middle" x="102" y="-61" font-family="ui-monospace,monospace" font-size="10.00">jngl/other.hpp</text>
</a>
</g>
</g>
<!-- Node2 -->
<g id="Node000002" class="node">
<title>Node2</title>
<g id="a_Node000002"><a target="_parent" xlink:href="http://en.cppreference.com/w/cpp/header/sstream.html" xlink:title=" ">
<polygon fill="white" stroke="#666666" points="58,-19.25 0,-19.25 0,0 58,0 58,-19.25"/>
<text text-anchor="middle" x="29" y="-5.75" font-family="ui-monospace,monospace" font-size="10.00">sstream</text>
</a>
</g>
</g>
<!-- Node1&#45;&gt;Node2 -->
<g id="edge1_Node000001_Node000002" class="edge">
<title>Node1&#45;&gt;Node2</title>
<g id="a_edge1_Node000001_Node000002"><a xlink:title=" ">
<path fill="none" stroke="#63b8ff" d="M89.62,-54.84C78.85,-46.99 63.03,-35.45 50.25,-26.12"/>
<polygon fill="#63b8ff" stroke="#63b8ff" points="52.56,-23.48 42.42,-20.42 48.44,-29.14 52.56,-23.48"/>
</a>
</g>
</g>
<!-- Node3 -->
<g id="Node000003" class="node">
<title>Node3</title>
<g id="a_Node000003"><a target="_parent" xlink:href="http://en.cppreference.com/w/cpp/header/string.html" xlink:title=" ">
<polygon fill="white" stroke="#666666" points="128,-19.25 76,-19.25 76,0 128,0 128,-19.25"/>
<text text-anchor="middle" x="102" y="-5.75" font-family="ui-monospace,monospace" font-size="10.00">string</text>
</a>
</g>
</g>
<!-- Node1&#45;&gt;Node3 -->
<g id="edge2_Node000001_Node000003" class="edge">
<title>Node1&#45;&gt;Node3</title>
<g id="a_edge2_Node000001_Node000003"><a xlink:title=" ">
<path fill="none" stroke="#63b8ff" d="M102,-55.08C102,-48.57 102,-39.42 102,-31.12"/>
<polygon fill="#63b8ff" stroke="#63b8ff" points="105.5,-31.12 102,-21.12 98.5,-31.12 105.5,-31.12"/>
</a>
</g>
</g>
<!-- Node4 -->
<g id="Node000004" class="node">
<title>Node4</title>
<g id="a_Node000004"><a target="_parent" xlink:href="http://en.cppreference.com/w/cpp/header/vector.html" xlink:title=" ">
<polygon fill="white" stroke="#666666" points="198,-19.25 146,-19.25 146,0 198,0 198,-19.25"/>
<text text-anchor="middle" x="172" y="-5.75" font-family="ui-monospace,monospace" font-size="10.00">vector</text>
</a>
</g>
</g>
<!-- Node1&#45;&gt;Node4 -->
<g id="edge3_Node000001_Node000004" class="edge">
<title>Node1&#45;&gt;Node4</title>
<g id="a_edge3_Node000001_Node000004"><a xlink:title=" ">
<path fill="none" stroke="#63b8ff" d="M113.87,-54.84C124.09,-47.07 139.07,-35.67 151.26,-26.4"/>
<polygon fill="#63b8ff" stroke="#63b8ff" points="153.26,-29.28 159.1,-20.44 149.02,-23.71 153.26,-29.28"/>
</a>
</g>
</g>
</g>
</svg>
