<?xml version="1.0" encoding="UTF-8" standalone="no"?>
<!DOCTYPE svg PUBLIC "-//W3C//DTD SVG 1.1//EN"
 "http://www.w3.org/Graphics/SVG/1.1/DTD/svg11.dtd">
<!-- Generated by graphviz version 2.42.4 (0)
 -->
<!-- Title: jngl/other.hpp Pages: 1 -->
<svg width="144pt" height="196pt"
 viewBox="0.00 0.00 144.00 196.00" xmlns="http://www.w3.org/2000/svg" xmlns:xlink="http://www.w3.org/1999/xlink">
<g id="graph0" class="graph" transform="scale(1 1) rotate(0) translate(4 192)">
<title>jngl/other.hpp</title>
<polygon fill="white" stroke="transparent" points="-4,4 -4,-192 140,-192 140,4 -4,4"/>
<!-- Node1 -->
<g id="node1" class="node">
<title>Node1</title>
<g id="a_node1"><a xlink:title=" ">
<polygon fill="#bfbfbf" stroke="black" points="35,-168.5 35,-187.5 136,-187.5 136,-168.5 35,-168.5"/>
<text text-anchor="middle" x="85.5" y="-175.5" font-family="'Consolas',monospace" font-size="10.00">jngl/other.hpp</text>
</a>
</g>
</g>
<!-- Node2 -->
<g id="node2" class="node">
<title>Node2</title>
<g id="a_node2"><a xlink:href="main_8hpp_source.html" target="_top" xlink:title=" ">
<polygon fill="white" stroke="black" points="0,-112.5 0,-131.5 95,-131.5 95,-112.5 0,-112.5"/>
<text text-anchor="middle" x="47.5" y="-119.5" font-family="'Consolas',monospace" font-size="10.00">jngl/main.hpp</text>
</a>
</g>
</g>
<!-- Node1&#45;&gt;Node2 -->
<g id="edge1" class="edge">
<title>Node1&#45;&gt;Node2</title>
<path fill="none" stroke="midnightblue" d="M73.44,-159.86C66.86,-150.5 58.99,-139.33 53.66,-131.75"/>
<polygon fill="midnightblue" stroke="midnightblue" points="70.61,-161.92 79.23,-168.08 76.33,-157.89 70.61,-161.92"/>
</g>
<!-- Node3 -->
<g id="node3" class="node">
<title>Node3</title>
<g id="a_node3"><a xlink:href="all_8hpp.html" target="_top" xlink:title="Includes all JNGL headers.">
<polygon fill="white" stroke="black" points="41,-56.5 41,-75.5 130,-75.5 130,-56.5 41,-56.5"/>
<text text-anchor="middle" x="85.5" y="-63.5" font-family="'Consolas',monospace" font-size="10.00">jngl/all.hpp</text>
</a>
</g>
</g>
<!-- Node1&#45;&gt;Node3 -->
<g id="edge4" class="edge">
<title>Node1&#45;&gt;Node3</title>
<path fill="none" stroke="midnightblue" d="M94.93,-159.25C98.71,-151.17 102.61,-141.35 104.5,-132 108.65,-111.49 97.84,-88.08 90.87,-75.71"/>
<polygon fill="midnightblue" stroke="midnightblue" points="91.71,-157.86 90.38,-168.37 97.97,-160.99 91.71,-157.86"/>
</g>
<!-- Node2&#45;&gt;Node3 -->
<g id="edge2" class="edge">
<title>Node2&#45;&gt;Node3</title>
<path fill="none" stroke="midnightblue" d="M59.56,-103.86C66.14,-94.5 74.01,-83.33 79.34,-75.75"/>
<polygon fill="midnightblue" stroke="midnightblue" points="56.67,-101.89 53.77,-112.08 62.39,-105.92 56.67,-101.89"/>
</g>
<!-- Node4 -->
<g id="node4" class="node">
<title>Node4</title>
<g id="a_node4"><a xlink:href="jngl_8hpp_source.html" target="_top" xlink:title=" ">
<polygon fill="white" stroke="black" points="53,-0.5 53,-19.5 118,-19.5 118,-0.5 53,-0.5"/>
<text text-anchor="middle" x="85.5" y="-7.5" font-family="'Consolas',monospace" font-size="10.00">jngl.hpp</text>
</a>
</g>
</g>
<!-- Node3&#45;&gt;Node4 -->
<g id="edge3" class="edge">
<title>Node3&#45;&gt;Node4</title>
<path fill="none" stroke="midnightblue" d="M85.5,-45.8C85.5,-36.91 85.5,-26.78 85.5,-19.75"/>
<polygon fill="midnightblue" stroke="midnightblue" points="82,-46.08 85.5,-56.08 89,-46.08 82,-46.08"/>
</g>
</g>
</svg>
