<?xml version="1.0" encoding="UTF-8" standalone="no"?>
<!DOCTYPE svg PUBLIC "-//W3C//DTD SVG 1.1//EN"
 "http://www.w3.org/Graphics/SVG/1.1/DTD/svg11.dtd">
<!-- Generated by graphviz version 2.36.0 (20140111.2315)
 -->
<!-- Title: jngl/other.hpp Pages: 1 -->
<svg width="123pt" height="196pt"
 viewBox="0.00 0.00 123.00 196.00" xmlns="http://www.w3.org/2000/svg" xmlns:xlink="http://www.w3.org/1999/xlink">
<g id="graph0" class="graph" transform="scale(1 1) rotate(0) translate(4 192)">
<title>jngl/other.hpp</title>
<polygon fill="white" stroke="none" points="-4,4 -4,-192 119,-192 119,4 -4,4"/>
<!-- Node1 -->
<g id="node1" class="node"><title>Node1</title>
<polygon fill="#bfbfbf" stroke="black" points="33,-168.5 33,-187.5 115,-187.5 115,-168.5 33,-168.5"/>
<text text-anchor="middle" x="74" y="-175.5" font-family="Lato" font-size="10.00">jngl/other.hpp</text>
</g>
<!-- Node2 -->
<g id="node2" class="node"><title>Node2</title>
<g id="a_node2"><a xlink:href="main_8hpp_source.html" target="_top" xlink:title="jngl/main.hpp">
<polygon fill="white" stroke="black" points="-0.5,-112.5 -0.5,-131.5 80.5,-131.5 80.5,-112.5 -0.5,-112.5"/>
<text text-anchor="middle" x="40" y="-119.5" font-family="Lato" font-size="10.00">jngl/main.hpp</text>
</a>
</g>
</g>
<!-- Node1&#45;&gt;Node2 -->
<g id="edge1" class="edge"><title>Node1&#45;&gt;Node2</title>
<path fill="none" stroke="midnightblue" d="M63.0228,-159.566C57.173,-150.275 50.2305,-139.248 45.5099,-131.751"/>
<polygon fill="midnightblue" stroke="midnightblue" points="60.0956,-161.486 68.3856,-168.083 66.0192,-157.756 60.0956,-161.486"/>
</g>
<!-- Node3 -->
<g id="node3" class="node"><title>Node3</title>
<g id="a_node3"><a xlink:href="all_8hpp.html" target="_top" xlink:title="Includes all JNGL headers. ">
<polygon fill="white" stroke="black" points="40,-56.5 40,-75.5 108,-75.5 108,-56.5 40,-56.5"/>
<text text-anchor="middle" x="74" y="-63.5" font-family="Lato" font-size="10.00">jngl/all.hpp</text>
</a>
</g>
</g>
<!-- Node1&#45;&gt;Node3 -->
<g id="edge4" class="edge"><title>Node1&#45;&gt;Node3</title>
<path fill="none" stroke="midnightblue" d="M81.5562,-158.782C84.5077,-150.725 87.5325,-141.043 89,-132 92.3021,-111.651 83.7603,-88.1752 78.2486,-75.7585"/>
<polygon fill="midnightblue" stroke="midnightblue" points="78.2368,-157.661 77.8557,-168.249 84.7564,-160.209 78.2368,-157.661"/>
</g>
<!-- Node2&#45;&gt;Node3 -->
<g id="edge2" class="edge"><title>Node2&#45;&gt;Node3</title>
<path fill="none" stroke="midnightblue" d="M50.9772,-103.566C56.827,-94.2747 63.7695,-83.2484 68.4901,-75.7511"/>
<polygon fill="midnightblue" stroke="midnightblue" points="47.9808,-101.756 45.6144,-112.083 53.9044,-105.486 47.9808,-101.756"/>
</g>
<!-- Node4 -->
<g id="node4" class="node"><title>Node4</title>
<g id="a_node4"><a xlink:href="jngl_8hpp_source.html" target="_top" xlink:title="jngl.hpp">
<polygon fill="white" stroke="black" points="47,-0.5 47,-19.5 101,-19.5 101,-0.5 47,-0.5"/>
<text text-anchor="middle" x="74" y="-7.5" font-family="Lato" font-size="10.00">jngl.hpp</text>
</a>
</g>
</g>
<!-- Node3&#45;&gt;Node4 -->
<g id="edge3" class="edge"><title>Node3&#45;&gt;Node4</title>
<path fill="none" stroke="midnightblue" d="M74,-45.8045C74,-36.9102 74,-26.7798 74,-19.7511"/>
<polygon fill="midnightblue" stroke="midnightblue" points="70.5001,-46.083 74,-56.083 77.5001,-46.083 70.5001,-46.083"/>
</g>
</g>
</svg>
