<?xml version="1.0" encoding="UTF-8" standalone="no"?>
<!DOCTYPE svg PUBLIC "-//W3C//DTD SVG 1.1//EN"
 "http://www.w3.org/Graphics/SVG/1.1/DTD/svg11.dtd">
<!-- Generated by graphviz version 9.0.0 (20230911.1827)
 -->
<!-- Title: jngl/other.hpp Pages: 1 -->
<svg width="184pt" height="138pt"
 viewBox="0.00 0.00 184.00 137.75" xmlns="http://www.w3.org/2000/svg" xmlns:xlink="http://www.w3.org/1999/xlink">
<g id="graph0" class="graph" transform="scale(1 1) rotate(0) translate(4 133.75)">
<title>jngl/other.hpp</title>
<!-- Node1 -->
<g id="Node000001" class="node">
<title>Node1</title>
<g id="a_Node000001"><a xlink:title="Miscellaneous functions.">
<polygon fill="#999999" stroke="#666666" points="119,-129.75 19,-129.75 19,-110.5 119,-110.5 119,-129.75"/>
<text text-anchor="middle" x="69" y="-116.25" font-family="ui-monospace,monospace" font-size="10.00">jngl/other.hpp</text>
</a>
</g>
</g>
<!-- Node2 -->
<g id="Node000002" class="node">
<title>Node2</title>
<g id="a_Node000002"><a xlink:href="jngl_8hpp.html" target="_top" xlink:title="Includes all JNGL headers except for init.hpp.">
<polygon fill="white" stroke="#666666" points="64,-19.25 0,-19.25 0,0 64,0 64,-19.25"/>
<text text-anchor="middle" x="32" y="-5.75" font-family="ui-monospace,monospace" font-size="10.00">jngl.hpp</text>
</a>
</g>
</g>
<!-- Node1&#45;&gt;Node2 -->
<g id="edge1_Node000001_Node000002" class="edge">
<title>Node1&#45;&gt;Node2</title>
<g id="a_edge1_Node000001_Node000002"><a xlink:title=" ">
<path fill="none" stroke="#63b8ff" d="M60.73,-99.78C57.53,-91.99 53.93,-82.88 51,-74.5 44.2,-55.06 37.67,-31.77 34.32,-19.39"/>
<polygon fill="#63b8ff" stroke="#63b8ff" points="57.48,-101.07 64.58,-108.93 63.93,-98.36 57.48,-101.07"/>
</a>
</g>
</g>
<!-- Node3 -->
<g id="Node000003" class="node">
<title>Node3</title>
<g id="a_Node000003"><a xlink:href="main_8hpp.html" target="_top" xlink:title="Defines macros for the main entry point.">
<polygon fill="white" stroke="#666666" points="154,-74.5 60,-74.5 60,-55.25 154,-55.25 154,-74.5"/>
<text text-anchor="middle" x="107" y="-61" font-family="ui-monospace,monospace" font-size="10.00">jngl/main.hpp</text>
</a>
</g>
</g>
<!-- Node1&#45;&gt;Node3 -->
<g id="edge2_Node000001_Node000003" class="edge">
<title>Node1&#45;&gt;Node3</title>
<g id="a_edge2_Node000001_Node000003"><a xlink:title=" ">
<path fill="none" stroke="#63b8ff" d="M81.8,-101.19C88.12,-92.34 95.46,-82.04 100.59,-74.86"/>
<polygon fill="#63b8ff" stroke="#63b8ff" points="79.11,-98.93 76.15,-109.1 84.81,-102.99 79.11,-98.93"/>
</a>
</g>
</g>
<!-- Node3&#45;&gt;Node2 -->
<g id="edge3_Node000003_Node000002" class="edge">
<title>Node3&#45;&gt;Node2</title>
<g id="a_edge3_Node000003_Node000002"><a xlink:title=" ">
<path fill="none" stroke="#63b8ff" d="M85.01,-48.26C71.93,-38.97 55.79,-27.52 44.79,-19.7"/>
<polygon fill="#63b8ff" stroke="#63b8ff" points="82.86,-51.03 93.04,-53.97 86.92,-45.32 82.86,-51.03"/>
</a>
</g>
</g>
<!-- Node4 -->
<g id="Node000004" class="node">
<title>Node4</title>
<g id="a_Node000004"><a xlink:href="init_8hpp.html" target="_top" xlink:title="Include this file only once, as it defines the main function.">
<polygon fill="white" stroke="#666666" points="176,-19.25 82,-19.25 82,0 176,0 176,-19.25"/>
<text text-anchor="middle" x="129" y="-5.75" font-family="ui-monospace,monospace" font-size="10.00">jngl/init.hpp</text>
</a>
</g>
</g>
<!-- Node3&#45;&gt;Node4 -->
<g id="edge4_Node000003_Node000004" class="edge">
<title>Node3&#45;&gt;Node4</title>
<g id="a_edge4_Node000003_Node000004"><a xlink:title=" ">
<path fill="none" stroke="#63b8ff" d="M115,-44.5C118.52,-35.99 122.48,-26.4 125.29,-19.61"/>
<polygon fill="#63b8ff" stroke="#63b8ff" points="111.79,-43.1 111.21,-53.68 118.26,-45.78 111.79,-43.1"/>
</a>
</g>
</g>
</g>
</svg>
