<?xml version="1.0" encoding="UTF-8" standalone="no"?>
<!DOCTYPE svg PUBLIC "-//W3C//DTD SVG 1.1//EN"
 "http://www.w3.org/Graphics/SVG/1.1/DTD/svg11.dtd">
<!-- Generated by graphviz version 2.40.1 (0)
 -->
<!-- Title: jngl/other.hpp Pages: 1 -->
<svg width="112pt" height="200pt"
 viewBox="0.00 0.00 112.11 200.00" xmlns="http://www.w3.org/2000/svg" xmlns:xlink="http://www.w3.org/1999/xlink">
<g id="graph0" class="graph" transform="scale(1 1) rotate(0) translate(4 196)">
<title>jngl/other.hpp</title>
<polygon fill="#ffffff" stroke="transparent" points="-4,4 -4,-196 108.109,-196 108.109,4 -4,4"/>
<!-- Node4 -->
<g id="node1" class="node">
<title>Node4</title>
<polygon fill="#bfbfbf" stroke="#000000" points="31.725,-171.5 31.725,-191.5 104.109,-191.5 104.109,-171.5 31.725,-171.5"/>
<text text-anchor="middle" x="67.917" y="-178.5" font-family="Lato" font-size="10.00" fill="#000000">jngl/other.hpp</text>
</g>
<!-- Node5 -->
<g id="node2" class="node">
<title>Node5</title>
<g id="a_node2"><a xlink:href="main_8hpp_source.html" target="_top" xlink:title="jngl/main.hpp">
<polygon fill="#ffffff" stroke="#000000" points="0,-114.5 0,-134.5 71.834,-134.5 71.834,-114.5 0,-114.5"/>
<text text-anchor="middle" x="35.917" y="-121.5" font-family="Lato" font-size="10.00" fill="#000000">jngl/main.hpp</text>
</a>
</g>
</g>
<!-- Node4&#45;&gt;Node5 -->
<g id="edge1" class="edge">
<title>Node4&#45;&gt;Node5</title>
<path fill="none" stroke="#191970" d="M57.1709,-162.3586C51.9537,-153.0653 45.8981,-142.2788 41.5884,-134.6022"/>
<polygon fill="#191970" stroke="#191970" points="54.2487,-164.3031 62.196,-171.3095 60.3526,-160.8763 54.2487,-164.3031"/>
</g>
<!-- Node6 -->
<g id="node3" class="node">
<title>Node6</title>
<g id="a_node3"><a xlink:href="all_8hpp.html" target="_top" xlink:title="Includes all JNGL headers. ">
<polygon fill="#ffffff" stroke="#000000" points="37,-57.5 37,-77.5 98.834,-77.5 98.834,-57.5 37,-57.5"/>
<text text-anchor="middle" x="67.917" y="-64.5" font-family="Lato" font-size="10.00" fill="#000000">jngl/all.hpp</text>
</a>
</g>
</g>
<!-- Node4&#45;&gt;Node6 -->
<g id="edge4" class="edge">
<title>Node4&#45;&gt;Node6</title>
<path fill="none" stroke="#191970" d="M74.7582,-161.6282C77.2236,-153.4814 79.6973,-143.8925 80.917,-135 83.7387,-114.4273 76.719,-90.6373 71.9324,-77.5076"/>
<polygon fill="#191970" stroke="#191970" points="71.3685,-160.7359 71.6284,-171.3275 78.0303,-162.8856 71.3685,-160.7359"/>
</g>
<!-- Node5&#45;&gt;Node6 -->
<g id="edge2" class="edge">
<title>Node5&#45;&gt;Node6</title>
<path fill="none" stroke="#191970" d="M46.6631,-105.3586C51.8803,-96.0653 57.9359,-85.2788 62.2456,-77.6022"/>
<polygon fill="#191970" stroke="#191970" points="43.4814,-103.8763 41.638,-114.3095 49.5853,-107.3031 43.4814,-103.8763"/>
</g>
<!-- Node7 -->
<g id="node4" class="node">
<title>Node7</title>
<g id="a_node4"><a xlink:href="jngl_8hpp_source.html" target="_top" xlink:title="jngl.hpp">
<polygon fill="#ffffff" stroke="#000000" points="43.388,-.5 43.388,-20.5 92.446,-20.5 92.446,-.5 43.388,-.5"/>
<text text-anchor="middle" x="67.917" y="-7.5" font-family="Lato" font-size="10.00" fill="#000000">jngl.hpp</text>
</a>
</g>
</g>
<!-- Node6&#45;&gt;Node7 -->
<g id="edge3" class="edge">
<title>Node6&#45;&gt;Node7</title>
<path fill="none" stroke="#191970" d="M67.917,-47.1771C67.917,-38.1625 67.917,-27.9556 67.917,-20.6022"/>
<polygon fill="#191970" stroke="#191970" points="64.4171,-47.3095 67.917,-57.3095 71.4171,-47.3096 64.4171,-47.3095"/>
</g>
</g>
</svg>
