<?xml version="1.0" encoding="UTF-8" standalone="no"?>
<!DOCTYPE svg PUBLIC "-//W3C//DTD SVG 1.1//EN"
 "http://www.w3.org/Graphics/SVG/1.1/DTD/svg11.dtd">
<!-- Generated by graphviz version 2.40.1 (0)
 -->
<!-- Title: jngl/other.hpp Pages: 1 -->
<svg width="120pt" height="196pt"
 viewBox="0.00 0.00 119.50 196.00" xmlns="http://www.w3.org/2000/svg" xmlns:xlink="http://www.w3.org/1999/xlink">
<g id="graph0" class="graph" transform="scale(1 1) rotate(0) translate(4 192)">
<title>jngl/other.hpp</title>
<polygon fill="#ffffff" stroke="transparent" points="-4,4 -4,-192 115.5,-192 115.5,4 -4,4"/>
<!-- Node4 -->
<g id="node1" class="node">
<title>Node4</title>
<polygon fill="#bfbfbf" stroke="#000000" points="31.5,-168.5 31.5,-187.5 111.5,-187.5 111.5,-168.5 31.5,-168.5"/>
<text text-anchor="middle" x="71.5" y="-175.5" font-family="Lato" font-size="10.00" fill="#000000">jngl/other.hpp</text>
</g>
<!-- Node5 -->
<g id="node2" class="node">
<title>Node5</title>
<g id="a_node2"><a xlink:href="main_8hpp_source.html" target="_top" xlink:title="jngl/main.hpp">
<polygon fill="#ffffff" stroke="#000000" points="0,-112.5 0,-131.5 77,-131.5 77,-112.5 0,-112.5"/>
<text text-anchor="middle" x="38.5" y="-119.5" font-family="Lato" font-size="10.00" fill="#000000">jngl/main.hpp</text>
</a>
</g>
</g>
<!-- Node4&#45;&gt;Node5 -->
<g id="edge1" class="edge">
<title>Node4&#45;&gt;Node5</title>
<path fill="none" stroke="#191970" d="M60.6746,-159.6296C55.1701,-150.2887 48.7063,-139.3197 44.1823,-131.6427"/>
<polygon fill="#191970" stroke="#191970" points="57.6595,-161.4071 65.7518,-168.2455 63.6903,-157.8532 57.6595,-161.4071"/>
</g>
<!-- Node6 -->
<g id="node3" class="node">
<title>Node6</title>
<g id="a_node3"><a xlink:href="all_8hpp.html" target="_top" xlink:title="Includes all JNGL headers. ">
<polygon fill="#ffffff" stroke="#000000" points="38.5,-56.5 38.5,-75.5 104.5,-75.5 104.5,-56.5 38.5,-56.5"/>
<text text-anchor="middle" x="71.5" y="-63.5" font-family="Lato" font-size="10.00" fill="#000000">jngl/all.hpp</text>
</a>
</g>
</g>
<!-- Node4&#45;&gt;Node6 -->
<g id="edge4" class="edge">
<title>Node4&#45;&gt;Node6</title>
<path fill="none" stroke="#191970" d="M79.2784,-158.7421C82.1588,-150.6297 85.0699,-140.9984 86.5,-132 89.7091,-111.8075 81.6262,-88.5738 76.1188,-75.7615"/>
<polygon fill="#191970" stroke="#191970" points="75.908,-157.7593 75.6368,-168.3507 82.4537,-160.2401 75.908,-157.7593"/>
</g>
<!-- Node5&#45;&gt;Node6 -->
<g id="edge2" class="edge">
<title>Node5&#45;&gt;Node6</title>
<path fill="none" stroke="#191970" d="M49.3254,-103.6296C54.8299,-94.2887 61.2937,-83.3197 65.8177,-75.6427"/>
<polygon fill="#191970" stroke="#191970" points="46.3097,-101.8532 44.2482,-112.2455 52.3405,-105.4071 46.3097,-101.8532"/>
</g>
<!-- Node7 -->
<g id="node4" class="node">
<title>Node7</title>
<g id="a_node4"><a xlink:href="jngl_8hpp_source.html" target="_top" xlink:title="jngl.hpp">
<polygon fill="#ffffff" stroke="#000000" points="45.5,-.5 45.5,-19.5 97.5,-19.5 97.5,-.5 45.5,-.5"/>
<text text-anchor="middle" x="71.5" y="-7.5" font-family="Lato" font-size="10.00" fill="#000000">jngl.hpp</text>
</a>
</g>
</g>
<!-- Node6&#45;&gt;Node7 -->
<g id="edge3" class="edge">
<title>Node6&#45;&gt;Node7</title>
<path fill="none" stroke="#191970" d="M71.5,-46.1575C71.5,-37.155 71.5,-26.9199 71.5,-19.6427"/>
<polygon fill="#191970" stroke="#191970" points="68.0001,-46.2455 71.5,-56.2455 75.0001,-46.2456 68.0001,-46.2455"/>
</g>
</g>
</svg>
