<?xml version="1.0" encoding="UTF-8" standalone="no"?>
<!DOCTYPE svg PUBLIC "-//W3C//DTD SVG 1.1//EN"
 "http://www.w3.org/Graphics/SVG/1.1/DTD/svg11.dtd">
<!-- Generated by graphviz version 2.40.1 (0)
 -->
<!-- Title: jngl/other.hpp Pages: 1 -->
<svg width="168pt" height="86pt"
 viewBox="0.00 0.00 168.42 86.00" xmlns="http://www.w3.org/2000/svg" xmlns:xlink="http://www.w3.org/1999/xlink">
<g id="graph0" class="graph" transform="scale(1 1) rotate(0) translate(4 82)">
<title>jngl/other.hpp</title>
<polygon fill="#ffffff" stroke="transparent" points="-4,4 -4,-82 164.417,-82 164.417,4 -4,4"/>
<!-- Node0 -->
<g id="node1" class="node">
<title>Node0</title>
<polygon fill="#bfbfbf" stroke="#000000" points="41.196,-57.5 41.196,-77.5 113.58,-77.5 113.58,-57.5 41.196,-57.5"/>
<text text-anchor="middle" x="77.388" y="-64.5" font-family="Lato" font-size="10.00" fill="#000000">jngl/other.hpp</text>
</g>
<!-- Node1 -->
<g id="node2" class="node">
<title>Node1</title>
<polygon fill="#ffffff" stroke="#bfbfbf" points="0,-.5 0,-20.5 38.776,-20.5 38.776,-.5 0,-.5"/>
<text text-anchor="middle" x="19.388" y="-7.5" font-family="Lato" font-size="10.00" fill="#000000">string</text>
</g>
<!-- Node0&#45;&gt;Node1 -->
<g id="edge1" class="edge">
<title>Node0&#45;&gt;Node1</title>
<path fill="none" stroke="#191970" d="M67.0188,-57.3095C58.6885,-49.1229 46.8016,-37.441 36.9869,-27.7955"/>
<polygon fill="#191970" stroke="#191970" points="39.2531,-25.1153 29.6675,-20.6022 34.3465,-30.1079 39.2531,-25.1153"/>
</g>
<!-- Node2 -->
<g id="node3" class="node">
<title>Node2</title>
<polygon fill="#ffffff" stroke="#bfbfbf" points="56.895,-.5 56.895,-20.5 97.881,-20.5 97.881,-.5 56.895,-.5"/>
<text text-anchor="middle" x="77.388" y="-7.5" font-family="Lato" font-size="10.00" fill="#000000">vector</text>
</g>
<!-- Node0&#45;&gt;Node2 -->
<g id="edge2" class="edge">
<title>Node0&#45;&gt;Node2</title>
<path fill="none" stroke="#191970" d="M77.388,-57.3095C77.388,-49.9335 77.388,-39.72 77.388,-30.715"/>
<polygon fill="#191970" stroke="#191970" points="80.8881,-30.6022 77.388,-20.6022 73.8881,-30.6023 80.8881,-30.6022"/>
</g>
<!-- Node3 -->
<g id="node4" class="node">
<title>Node3</title>
<g id="a_node4"><a xlink:href="dll_8hpp_source.html" target="_top" xlink:title="dll.hpp">
<polygon fill="#ffffff" stroke="#000000" points="116.359,-.5 116.359,-20.5 160.417,-20.5 160.417,-.5 116.359,-.5"/>
<text text-anchor="middle" x="138.388" y="-7.5" font-family="Lato" font-size="10.00" fill="#000000">dll.hpp</text>
</a>
</g>
</g>
<!-- Node0&#45;&gt;Node3 -->
<g id="edge3" class="edge">
<title>Node0&#45;&gt;Node3</title>
<path fill="none" stroke="#191970" d="M88.2936,-57.3095C97.1414,-49.0419 109.8044,-37.2093 120.1848,-27.5096"/>
<polygon fill="#191970" stroke="#191970" points="122.6599,-29.987 127.5768,-20.6022 117.8806,-24.8724 122.6599,-29.987"/>
</g>
</g>
</svg>
