<?xml version="1.0" encoding="UTF-8" standalone="no"?>
<!DOCTYPE svg PUBLIC "-//W3C//DTD SVG 1.1//EN"
 "http://www.w3.org/Graphics/SVG/1.1/DTD/svg11.dtd">
<!-- Generated by graphviz version 9.0.0 (20230911.1827)
 -->
<!-- Title: jngl/other.hpp Pages: 1 -->
<svg width="282pt" height="83pt"
 viewBox="0.00 0.00 282.00 82.50" xmlns="http://www.w3.org/2000/svg" xmlns:xlink="http://www.w3.org/1999/xlink">
<g id="graph0" class="graph" transform="scale(1 1) rotate(0) translate(4 78.5)">
<title>jngl/other.hpp</title>
<!-- Node1 -->
<g id="Node000001" class="node">
<title>Node1</title>
<g id="a_Node000001"><a xlink:title="Miscellaneous functions.">
<polygon fill="#999999" stroke="#666666" points="191,-74.5 91,-74.5 91,-55.25 191,-55.25 191,-74.5"/>
<text text-anchor="middle" x="141" y="-61" font-family="ui-monospace,monospace" font-size="10.00">jngl/other.hpp</text>
</a>
</g>
</g>
<!-- Node2 -->
<g id="Node000002" class="node">
<title>Node2</title>
<g id="a_Node000002"><a target="_parent" xlink:href="http://en.cppreference.com/w/cpp/header/cstdint.html" xlink:title=" ">
<polygon fill="white" stroke="#666666" points="58,-19.25 0,-19.25 0,0 58,0 58,-19.25"/>
<text text-anchor="middle" x="29" y="-5.75" font-family="ui-monospace,monospace" font-size="10.00">cstdint</text>
</a>
</g>
</g>
<!-- Node1&#45;&gt;Node2 -->
<g id="edge1_Node000001_Node000002" class="edge">
<title>Node1&#45;&gt;Node2</title>
<g id="a_edge1_Node000001_Node000002"><a xlink:title=" ">
<path fill="none" stroke="#63b8ff" d="M122,-54.84C104.54,-46.54 78.4,-34.11 58.28,-24.54"/>
<polygon fill="#63b8ff" stroke="#63b8ff" points="59.99,-21.49 49.46,-20.35 56.99,-27.81 59.99,-21.49"/>
</a>
</g>
</g>
<!-- Node3 -->
<g id="Node000003" class="node">
<title>Node3</title>
<g id="a_Node000003"><a target="_parent" xlink:href="http://en.cppreference.com/w/cpp/header/sstream.html" xlink:title=" ">
<polygon fill="white" stroke="#666666" points="134,-19.25 76,-19.25 76,0 134,0 134,-19.25"/>
<text text-anchor="middle" x="105" y="-5.75" font-family="ui-monospace,monospace" font-size="10.00">sstream</text>
</a>
</g>
</g>
<!-- Node1&#45;&gt;Node3 -->
<g id="edge2_Node000001_Node000003" class="edge">
<title>Node1&#45;&gt;Node3</title>
<g id="a_edge2_Node000001_Node000003"><a xlink:title=" ">
<path fill="none" stroke="#63b8ff" d="M135.06,-55.08C130.29,-48.03 123.44,-37.9 117.48,-29.08"/>
<polygon fill="#63b8ff" stroke="#63b8ff" points="120.42,-27.19 111.92,-20.86 114.62,-31.11 120.42,-27.19"/>
</a>
</g>
</g>
<!-- Node4 -->
<g id="Node000004" class="node">
<title>Node4</title>
<g id="a_Node000004"><a target="_parent" xlink:href="http://en.cppreference.com/w/cpp/header/string.html" xlink:title=" ">
<polygon fill="white" stroke="#666666" points="204,-19.25 152,-19.25 152,0 204,0 204,-19.25"/>
<text text-anchor="middle" x="178" y="-5.75" font-family="ui-monospace,monospace" font-size="10.00">string</text>
</a>
</g>
</g>
<!-- Node1&#45;&gt;Node4 -->
<g id="edge3_Node000001_Node000004" class="edge">
<title>Node1&#45;&gt;Node4</title>
<g id="a_edge3_Node000001_Node000004"><a xlink:title=" ">
<path fill="none" stroke="#63b8ff" d="M147.11,-55.08C152.06,-47.96 159.2,-37.68 165.37,-28.8"/>
<polygon fill="#63b8ff" stroke="#63b8ff" points="168.06,-31.06 170.89,-20.85 162.31,-27.07 168.06,-31.06"/>
</a>
</g>
</g>
<!-- Node5 -->
<g id="Node000005" class="node">
<title>Node5</title>
<g id="a_Node000005"><a target="_parent" xlink:href="http://en.cppreference.com/w/cpp/header/vector.html" xlink:title=" ">
<polygon fill="white" stroke="#666666" points="274,-19.25 222,-19.25 222,0 274,0 274,-19.25"/>
<text text-anchor="middle" x="248" y="-5.75" font-family="ui-monospace,monospace" font-size="10.00">vector</text>
</a>
</g>
</g>
<!-- Node1&#45;&gt;Node5 -->
<g id="edge4_Node000001_Node000005" class="edge">
<title>Node1&#45;&gt;Node5</title>
<g id="a_edge4_Node000001_Node000005"><a xlink:title=" ">
<path fill="none" stroke="#63b8ff" d="M159.15,-54.84C175.68,-46.62 200.34,-34.34 219.5,-24.81"/>
<polygon fill="#63b8ff" stroke="#63b8ff" points="221.01,-27.97 228.4,-20.38 217.89,-21.7 221.01,-27.97"/>
</a>
</g>
</g>
</g>
</svg>
