<?xml version="1.0" encoding="UTF-8" standalone="no"?>
<!DOCTYPE svg PUBLIC "-//W3C//DTD SVG 1.1//EN"
 "http://www.w3.org/Graphics/SVG/1.1/DTD/svg11.dtd">
<!-- Generated by graphviz version 2.40.1 (0)
 -->
<!-- Title: jngl/other.hpp Pages: 1 -->
<svg width="144pt" height="196pt"
 viewBox="0.00 0.00 144.00 196.00" xmlns="http://www.w3.org/2000/svg" xmlns:xlink="http://www.w3.org/1999/xlink">
<g id="graph0" class="graph" transform="scale(1 1) rotate(0) translate(4 192)">
<title>jngl/other.hpp</title>
<polygon fill="#ffffff" stroke="transparent" points="-4,4 -4,-192 140,-192 140,4 -4,4"/>
<!-- Node3 -->
<g id="node1" class="node">
<title>Node3</title>
<g id="a_node1"><a xlink:title=" ">
<polygon fill="#bfbfbf" stroke="#000000" points="35,-168.5 35,-187.5 136,-187.5 136,-168.5 35,-168.5"/>
<text text-anchor="middle" x="85.5" y="-175.5" font-family="'Consolas',monospace" font-size="10.00" fill="#000000">jngl/other.hpp</text>
</a>
</g>
</g>
<!-- Node4 -->
<g id="node2" class="node">
<title>Node4</title>
<g id="a_node2"><a xlink:href="main_8hpp_source.html" target="_top" xlink:title=" ">
<polygon fill="#ffffff" stroke="#000000" points="0,-112.5 0,-131.5 95,-131.5 95,-112.5 0,-112.5"/>
<text text-anchor="middle" x="47.5" y="-119.5" font-family="'Consolas',monospace" font-size="10.00" fill="#000000">jngl/main.hpp</text>
</a>
</g>
</g>
<!-- Node3&#45;&gt;Node4 -->
<g id="edge1" class="edge">
<title>Node3&#45;&gt;Node4</title>
<path fill="none" stroke="#191970" d="M73.2321,-159.9209C66.8512,-150.5176 59.3069,-139.3997 54.0432,-131.6427"/>
<polygon fill="#191970" stroke="#191970" points="70.3697,-161.936 78.8809,-168.2455 76.162,-158.0055 70.3697,-161.936"/>
</g>
<!-- Node5 -->
<g id="node3" class="node">
<title>Node5</title>
<g id="a_node3"><a xlink:href="all_8hpp.html" target="_top" xlink:title="Includes all JNGL headers.">
<polygon fill="#ffffff" stroke="#000000" points="41,-56.5 41,-75.5 130,-75.5 130,-56.5 41,-56.5"/>
<text text-anchor="middle" x="85.5" y="-63.5" font-family="'Consolas',monospace" font-size="10.00" fill="#000000">jngl/all.hpp</text>
</a>
</g>
</g>
<!-- Node3&#45;&gt;Node5 -->
<g id="edge4" class="edge">
<title>Node3&#45;&gt;Node5</title>
<path fill="none" stroke="#191970" d="M95.0946,-159.4785C98.8201,-151.2885 102.6352,-141.3997 104.5,-132 108.5374,-111.6494 98.3089,-88.4726 91.3421,-75.7128"/>
<polygon fill="#191970" stroke="#191970" points="91.9443,-157.9536 90.7318,-168.4788 98.2433,-161.007 91.9443,-157.9536"/>
</g>
<!-- Node4&#45;&gt;Node5 -->
<g id="edge2" class="edge">
<title>Node4&#45;&gt;Node5</title>
<path fill="none" stroke="#191970" d="M59.7679,-103.9209C66.1488,-94.5176 73.6931,-83.3997 78.9568,-75.6427"/>
<polygon fill="#191970" stroke="#191970" points="56.838,-102.0055 54.1191,-112.2455 62.6303,-105.936 56.838,-102.0055"/>
</g>
<!-- Node6 -->
<g id="node4" class="node">
<title>Node6</title>
<g id="a_node4"><a xlink:href="jngl_8hpp_source.html" target="_top" xlink:title=" ">
<polygon fill="#ffffff" stroke="#000000" points="53,-.5 53,-19.5 118,-19.5 118,-.5 53,-.5"/>
<text text-anchor="middle" x="85.5" y="-7.5" font-family="'Consolas',monospace" font-size="10.00" fill="#000000">jngl.hpp</text>
</a>
</g>
</g>
<!-- Node5&#45;&gt;Node6 -->
<g id="edge3" class="edge">
<title>Node5&#45;&gt;Node6</title>
<path fill="none" stroke="#191970" d="M85.5,-46.1575C85.5,-37.155 85.5,-26.9199 85.5,-19.6427"/>
<polygon fill="#191970" stroke="#191970" points="82.0001,-46.2455 85.5,-56.2455 89.0001,-46.2456 82.0001,-46.2455"/>
</g>
</g>
</svg>
