<?xml version="1.0" encoding="UTF-8" standalone="no"?>
<!DOCTYPE svg PUBLIC "-//W3C//DTD SVG 1.1//EN"
 "http://www.w3.org/Graphics/SVG/1.1/DTD/svg11.dtd">
<!-- Generated by graphviz version 2.40.1 (0)
 -->
<!-- Title: jngl/other.hpp Pages: 1 -->
<svg width="132pt" height="84pt"
 viewBox="0.00 0.00 132.00 84.00" xmlns="http://www.w3.org/2000/svg" xmlns:xlink="http://www.w3.org/1999/xlink">
<g id="graph0" class="graph" transform="scale(1 1) rotate(0) translate(4 80)">
<title>jngl/other.hpp</title>
<polygon fill="#ffffff" stroke="transparent" points="-4,4 -4,-80 128,-80 128,4 -4,4"/>
<!-- Node0 -->
<g id="node1" class="node">
<title>Node0</title>
<g id="a_node1"><a xlink:title=" ">
<polygon fill="#bfbfbf" stroke="#000000" points="11,-56.5 11,-75.5 112,-75.5 112,-56.5 11,-56.5"/>
<text text-anchor="middle" x="61.5" y="-63.5" font-family="'Consolas',monospace" font-size="10.00" fill="#000000">jngl/other.hpp</text>
</a>
</g>
</g>
<!-- Node1 -->
<g id="node2" class="node">
<title>Node1</title>
<g id="a_node2"><a doxygen="/w/doc/cppreference-doxygen-web.tag.xml:http://en.cppreference.com/w/" xlink:href="http://en.cppreference.com/w/cpp/header/string.html" xlink:title=" ">
<polygon fill="#ffffff" stroke="#000000" points="0,-.5 0,-19.5 53,-19.5 53,-.5 0,-.5"/>
<text text-anchor="middle" x="26.5" y="-7.5" font-family="'Consolas',monospace" font-size="10.00" fill="#000000">string</text>
</a>
</g>
</g>
<!-- Node0&#45;&gt;Node1 -->
<g id="edge1" class="edge">
<title>Node0&#45;&gt;Node1</title>
<path fill="none" stroke="#191970" d="M55.4035,-56.2455C50.5855,-48.5367 43.7249,-37.5598 37.8968,-28.2348"/>
<polygon fill="#191970" stroke="#191970" points="40.7947,-26.2677 32.5267,-19.6427 34.8587,-29.9777 40.7947,-26.2677"/>
</g>
<!-- Node2 -->
<g id="node3" class="node">
<title>Node2</title>
<g id="a_node3"><a doxygen="/w/doc/cppreference-doxygen-web.tag.xml:http://en.cppreference.com/w/" xlink:href="http://en.cppreference.com/w/cpp/header/vector.html" xlink:title=" ">
<polygon fill="#ffffff" stroke="#000000" points="71,-.5 71,-19.5 124,-19.5 124,-.5 71,-.5"/>
<text text-anchor="middle" x="97.5" y="-7.5" font-family="'Consolas',monospace" font-size="10.00" fill="#000000">vector</text>
</a>
</g>
</g>
<!-- Node0&#45;&gt;Node2 -->
<g id="edge2" class="edge">
<title>Node0&#45;&gt;Node2</title>
<path fill="none" stroke="#191970" d="M67.7707,-56.2455C72.7264,-48.5367 79.783,-37.5598 85.7776,-28.2348"/>
<polygon fill="#191970" stroke="#191970" points="88.8376,-29.9471 91.3011,-19.6427 82.9494,-26.1618 88.8376,-29.9471"/>
</g>
</g>
</svg>
