<?xml version="1.0" encoding="UTF-8" standalone="no"?>
<!DOCTYPE svg PUBLIC "-//W3C//DTD SVG 1.1//EN"
 "http://www.w3.org/Graphics/SVG/1.1/DTD/svg11.dtd">
<!-- Generated by graphviz version 2.38.0 (20140413.2041)
 -->
<!-- Title: jngl/other.hpp Pages: 1 -->
<svg width="144pt" height="196pt"
 viewBox="0.00 0.00 144.00 196.00" xmlns="http://www.w3.org/2000/svg" xmlns:xlink="http://www.w3.org/1999/xlink">
<g id="graph0" class="graph" transform="scale(1 1) rotate(0) translate(4 192)">
<title>jngl/other.hpp</title>
<polygon fill="white" stroke="none" points="-4,4 -4,-192 140,-192 140,4 -4,4"/>
<!-- Node1 -->
<g id="node1" class="node"><title>Node1</title>
<polygon fill="#bfbfbf" stroke="black" points="35,-168.5 35,-187.5 136,-187.5 136,-168.5 35,-168.5"/>
<text text-anchor="middle" x="85.5" y="-175.5" font-family="'Consolas',monospace" font-size="10.00">jngl/other.hpp</text>
</g>
<!-- Node2 -->
<g id="node2" class="node"><title>Node2</title>
<g id="a_node2"><a xlink:href="main_8hpp_source.html" target="_top" xlink:title="jngl/main.hpp">
<polygon fill="white" stroke="black" points="0,-112.5 0,-131.5 95,-131.5 95,-112.5 0,-112.5"/>
<text text-anchor="middle" x="47.5" y="-119.5" font-family="'Consolas',monospace" font-size="10.00">jngl/main.hpp</text>
</a>
</g>
</g>
<!-- Node1&#45;&gt;Node2 -->
<g id="edge1" class="edge"><title>Node1&#45;&gt;Node2</title>
<path fill="none" stroke="midnightblue" d="M73.4353,-159.855C66.8553,-150.505 58.989,-139.327 53.6582,-131.751"/>
<polygon fill="midnightblue" stroke="midnightblue" points="70.6078,-161.919 79.2251,-168.083 76.3324,-157.891 70.6078,-161.919"/>
</g>
<!-- Node3 -->
<g id="node3" class="node"><title>Node3</title>
<g id="a_node3"><a xlink:href="all_8hpp.html" target="_top" xlink:title="Includes all JNGL headers. ">
<polygon fill="white" stroke="black" points="41,-56.5 41,-75.5 130,-75.5 130,-56.5 41,-56.5"/>
<text text-anchor="middle" x="85.5" y="-63.5" font-family="'Consolas',monospace" font-size="10.00">jngl/all.hpp</text>
</a>
</g>
</g>
<!-- Node1&#45;&gt;Node3 -->
<g id="edge4" class="edge"><title>Node1&#45;&gt;Node3</title>
<path fill="none" stroke="midnightblue" d="M94.9326,-159.247C98.7084,-151.173 102.607,-141.351 104.5,-132 108.653,-111.489 97.8448,-88.0761 90.8732,-75.7132"/>
<polygon fill="midnightblue" stroke="midnightblue" points="91.7124,-157.862 90.3759,-168.372 97.9749,-160.989 91.7124,-157.862"/>
</g>
<!-- Node2&#45;&gt;Node3 -->
<g id="edge2" class="edge"><title>Node2&#45;&gt;Node3</title>
<path fill="none" stroke="midnightblue" d="M59.5647,-103.855C66.1447,-94.5048 74.011,-83.3265 79.3418,-75.7511"/>
<polygon fill="midnightblue" stroke="midnightblue" points="56.6676,-101.891 53.7749,-112.083 62.3922,-105.919 56.6676,-101.891"/>
</g>
<!-- Node4 -->
<g id="node4" class="node"><title>Node4</title>
<g id="a_node4"><a xlink:href="jngl_8hpp_source.html" target="_top" xlink:title="jngl.hpp">
<polygon fill="white" stroke="black" points="53,-0.5 53,-19.5 118,-19.5 118,-0.5 53,-0.5"/>
<text text-anchor="middle" x="85.5" y="-7.5" font-family="'Consolas',monospace" font-size="10.00">jngl.hpp</text>
</a>
</g>
</g>
<!-- Node3&#45;&gt;Node4 -->
<g id="edge3" class="edge"><title>Node3&#45;&gt;Node4</title>
<path fill="none" stroke="midnightblue" d="M85.5,-45.8045C85.5,-36.9102 85.5,-26.7798 85.5,-19.7511"/>
<polygon fill="midnightblue" stroke="midnightblue" points="82.0001,-46.083 85.5,-56.083 89.0001,-46.083 82.0001,-46.083"/>
</g>
</g>
</svg>
