<?xml version="1.0" encoding="UTF-8" standalone="no"?>
<!DOCTYPE svg PUBLIC "-//W3C//DTD SVG 1.1//EN"
 "http://www.w3.org/Graphics/SVG/1.1/DTD/svg11.dtd">
<!-- Generated by graphviz version 12.1.0 (20240811.2233)
 -->
<!-- Title: jngl/OutlinedFont.hpp Pages: 1 -->
<svg width="315pt" height="248pt"
 viewBox="0.00 0.00 315.00 248.25" xmlns="http://www.w3.org/2000/svg" xmlns:xlink="http://www.w3.org/1999/xlink">
<g id="graph0" class="graph" transform="scale(1 1) rotate(0) translate(4 244.25)">
<title>jngl/OutlinedFont.hpp</title>
<!-- Node1 -->
<g id="Node000001" class="node">
<title>Node1</title>
<g id="a_Node000001"><a xlink:title="Contains jngl::OutlinedFont class.">
<polygon fill="#999999" stroke="#666666" points="244,-240.25 102,-240.25 102,-221 244,-221 244,-240.25"/>
<text text-anchor="middle" x="173" y="-226.75" font-family="ui-monospace,monospace" font-size="10.00">jngl/OutlinedFont.hpp</text>
</a>
</g>
</g>
<!-- Node2 -->
<g id="Node000002" class="node">
<title>Node2</title>
<g id="a_Node000002"><a xlink:href="font_8hpp.html" target="_top" xlink:title="Contains jngl::Font class and related functions.">
<polygon fill="white" stroke="#666666" points="205,-185 141,-185 141,-165.75 205,-165.75 205,-185"/>
<text text-anchor="middle" x="173" y="-171.5" font-family="ui-monospace,monospace" font-size="10.00">font.hpp</text>
</a>
</g>
</g>
<!-- Node1&#45;&gt;Node2 -->
<g id="edge1_Node000001_Node000002" class="edge">
<title>Node1&#45;&gt;Node2</title>
<g id="a_edge1_Node000001_Node000002"><a xlink:title=" ">
<path fill="none" stroke="#63b8ff" d="M173,-220.83C173,-214.32 173,-205.17 173,-196.87"/>
<polygon fill="#63b8ff" stroke="#63b8ff" points="176.5,-196.87 173,-186.87 169.5,-196.87 176.5,-196.87"/>
</a>
</g>
</g>
<!-- Node3 -->
<g id="Node000003" class="node">
<title>Node3</title>
<g id="a_Node000003"><a xlink:href="Rgba_8hpp.html" target="_top" xlink:title="Contains jngl::Rgba class.">
<polygon fill="white" stroke="#666666" points="85,-129.75 21,-129.75 21,-110.5 85,-110.5 85,-129.75"/>
<text text-anchor="middle" x="53" y="-116.25" font-family="ui-monospace,monospace" font-size="10.00">Rgba.hpp</text>
</a>
</g>
</g>
<!-- Node2&#45;&gt;Node3 -->
<g id="edge2_Node000002_Node000003" class="edge">
<title>Node2&#45;&gt;Node3</title>
<g id="a_edge2_Node000002_Node000003"><a xlink:title=" ">
<path fill="none" stroke="#63b8ff" d="M152.64,-165.34C133.77,-156.97 105.41,-144.38 83.77,-134.78"/>
<polygon fill="#63b8ff" stroke="#63b8ff" points="85.4,-131.67 74.84,-130.82 82.56,-138.07 85.4,-131.67"/>
</a>
</g>
</g>
<!-- Node7 -->
<g id="Node000007" class="node">
<title>Node7</title>
<g id="a_Node000007"><a xlink:href="Vec2_8hpp.html" target="_top" xlink:title="Contains jngl::Vec2 class.">
<polygon fill="white" stroke="#666666" points="167,-129.75 103,-129.75 103,-110.5 167,-110.5 167,-129.75"/>
<text text-anchor="middle" x="135" y="-116.25" font-family="ui-monospace,monospace" font-size="10.00">Vec2.hpp</text>
</a>
</g>
</g>
<!-- Node2&#45;&gt;Node7 -->
<g id="edge7_Node000002_Node000007" class="edge">
<title>Node2&#45;&gt;Node7</title>
<g id="a_edge7_Node000002_Node000007"><a xlink:title=" ">
<path fill="none" stroke="#63b8ff" d="M166.73,-165.58C161.64,-158.46 154.3,-148.18 147.97,-139.3"/>
<polygon fill="#63b8ff" stroke="#63b8ff" points="150.95,-137.45 142.29,-131.34 145.25,-141.51 150.95,-137.45"/>
</a>
</g>
</g>
<!-- Node9 -->
<g id="Node000009" class="node">
<title>Node9</title>
<g id="a_Node000009"><a target="_parent" xlink:href="http://en.cppreference.com/w/cpp/header/memory.html" xlink:title=" ">
<polygon fill="white" stroke="#666666" points="237,-129.75 185,-129.75 185,-110.5 237,-110.5 237,-129.75"/>
<text text-anchor="middle" x="211" y="-116.25" font-family="ui-monospace,monospace" font-size="10.00">memory</text>
</a>
</g>
</g>
<!-- Node2&#45;&gt;Node9 -->
<g id="edge10_Node000002_Node000009" class="edge">
<title>Node2&#45;&gt;Node9</title>
<g id="a_edge10_Node000002_Node000009"><a xlink:title=" ">
<path fill="none" stroke="#63b8ff" d="M179.27,-165.58C184.36,-158.46 191.7,-148.18 198.03,-139.3"/>
<polygon fill="#63b8ff" stroke="#63b8ff" points="200.75,-141.51 203.71,-131.34 195.05,-137.45 200.75,-141.51"/>
</a>
</g>
</g>
<!-- Node10 -->
<g id="Node000010" class="node">
<title>Node10</title>
<g id="a_Node000010"><a target="_parent" xlink:href="http://en.cppreference.com/w/cpp/header/string.html" xlink:title=" ">
<polygon fill="white" stroke="#666666" points="307,-129.75 255,-129.75 255,-110.5 307,-110.5 307,-129.75"/>
<text text-anchor="middle" x="281" y="-116.25" font-family="ui-monospace,monospace" font-size="10.00">string</text>
</a>
</g>
</g>
<!-- Node2&#45;&gt;Node10 -->
<g id="edge11_Node000002_Node000010" class="edge">
<title>Node2&#45;&gt;Node10</title>
<g id="a_edge11_Node000002_Node000010"><a xlink:title=" ">
<path fill="none" stroke="#63b8ff" d="M191.32,-165.34C208.08,-157.08 233.13,-144.73 252.5,-135.18"/>
<polygon fill="#63b8ff" stroke="#63b8ff" points="253.81,-138.43 261.23,-130.87 250.72,-132.15 253.81,-138.43"/>
</a>
</g>
</g>
<!-- Node4 -->
<g id="Node000004" class="node">
<title>Node4</title>
<g id="a_Node000004"><a xlink:href="Rgb_8hpp.html" target="_top" xlink:title="Contains jngl::Rgb class.">
<polygon fill="white" stroke="#666666" points="95,-74.5 37,-74.5 37,-55.25 95,-55.25 95,-74.5"/>
<text text-anchor="middle" x="66" y="-61" font-family="ui-monospace,monospace" font-size="10.00">Rgb.hpp</text>
</a>
</g>
</g>
<!-- Node3&#45;&gt;Node4 -->
<g id="edge3_Node000003_Node000004" class="edge">
<title>Node3&#45;&gt;Node4</title>
<g id="a_edge3_Node000003_Node000004"><a xlink:title=" ">
<path fill="none" stroke="#63b8ff" d="M55.15,-110.33C56.77,-103.67 59.08,-94.24 61.14,-85.78"/>
<polygon fill="#63b8ff" stroke="#63b8ff" points="64.48,-86.87 63.45,-76.33 57.68,-85.21 64.48,-86.87"/>
</a>
</g>
</g>
<!-- Node5 -->
<g id="Node000005" class="node">
<title>Node5</title>
<g id="a_Node000005"><a target="_parent" xlink:href="http://en.cppreference.com/w/cpp/header/cstdint.html" xlink:title=" ">
<polygon fill="white" stroke="#666666" points="58,-19.25 0,-19.25 0,0 58,0 58,-19.25"/>
<text text-anchor="middle" x="29" y="-5.75" font-family="ui-monospace,monospace" font-size="10.00">cstdint</text>
</a>
</g>
</g>
<!-- Node3&#45;&gt;Node5 -->
<g id="edge6_Node000003_Node000005" class="edge">
<title>Node3&#45;&gt;Node5</title>
<g id="a_edge6_Node000003_Node000005"><a xlink:title=" ">
<path fill="none" stroke="#63b8ff" d="M46.14,-110.15C40.02,-101.54 31.5,-87.9 28,-74.5 24.26,-60.17 24.69,-43.42 25.96,-30.66"/>
<polygon fill="#63b8ff" stroke="#63b8ff" points="29.4,-31.34 27.2,-20.98 22.46,-30.46 29.4,-31.34"/>
</a>
</g>
</g>
<!-- Node4&#45;&gt;Node5 -->
<g id="edge4_Node000004_Node000005" class="edge">
<title>Node4&#45;&gt;Node5</title>
<g id="a_edge4_Node000004_Node000005"><a xlink:title=" ">
<path fill="none" stroke="#63b8ff" d="M59.89,-55.08C54.94,-47.96 47.8,-37.68 41.63,-28.8"/>
<polygon fill="#63b8ff" stroke="#63b8ff" points="44.69,-27.07 36.11,-20.85 38.94,-31.06 44.69,-27.07"/>
</a>
</g>
</g>
<!-- Node6 -->
<g id="Node000006" class="node">
<title>Node6</title>
<g id="a_Node000006"><a target="_parent" xlink:href="http://en.cppreference.com/w/cpp/header/iosfwd.html" xlink:title=" ">
<polygon fill="white" stroke="#666666" points="138,-19.25 86,-19.25 86,0 138,0 138,-19.25"/>
<text text-anchor="middle" x="112" y="-5.75" font-family="ui-monospace,monospace" font-size="10.00">iosfwd</text>
</a>
</g>
</g>
<!-- Node4&#45;&gt;Node6 -->
<g id="edge5_Node000004_Node000006" class="edge">
<title>Node4&#45;&gt;Node6</title>
<g id="a_edge5_Node000004_Node000006"><a xlink:title=" ">
<path fill="none" stroke="#63b8ff" d="M73.6,-55.08C79.88,-47.8 89.01,-37.23 96.8,-28.23"/>
<polygon fill="#63b8ff" stroke="#63b8ff" points="99.36,-30.61 103.25,-20.75 94.06,-26.03 99.36,-30.61"/>
</a>
</g>
</g>
<!-- Node7&#45;&gt;Node6 -->
<g id="edge9_Node000007_Node000006" class="edge">
<title>Node7&#45;&gt;Node6</title>
<g id="a_edge9_Node000007_Node000006"><a xlink:title=" ">
<path fill="none" stroke="#63b8ff" d="M133.12,-110.25C129.46,-93 121.32,-54.58 116.28,-30.81"/>
<polygon fill="#63b8ff" stroke="#63b8ff" points="119.72,-30.16 114.22,-21.11 112.87,-31.62 119.72,-30.16"/>
</a>
</g>
</g>
<!-- Node8 -->
<g id="Node000008" class="node">
<title>Node8</title>
<g id="a_Node000008"><a xlink:title=" ">
<polygon fill="#e0e0e0" stroke="#999999" points="275,-74.5 151,-74.5 151,-55.25 275,-55.25 275,-74.5"/>
<text text-anchor="middle" x="213" y="-61" font-family="ui-monospace,monospace" font-size="10.00">boost/qvm_lite.hpp</text>
</a>
</g>
</g>
<!-- Node7&#45;&gt;Node8 -->
<g id="edge8_Node000007_Node000008" class="edge">
<title>Node7&#45;&gt;Node8</title>
<g id="a_edge8_Node000007_Node000008"><a xlink:title=" ">
<path fill="none" stroke="#63b8ff" d="M148.23,-110.09C159.77,-102.21 176.77,-90.61 190.45,-81.27"/>
<polygon fill="#63b8ff" stroke="#63b8ff" points="192.17,-84.33 198.45,-75.81 188.22,-78.55 192.17,-84.33"/>
</a>
</g>
</g>
</g>
</svg>
