<?xml version="1.0" encoding="UTF-8" standalone="no"?>
<!DOCTYPE svg PUBLIC "-//W3C//DTD SVG 1.1//EN"
 "http://www.w3.org/Graphics/SVG/1.1/DTD/svg11.dtd">
<!-- Generated by graphviz version 9.0.0 (20230911.1827)
 -->
<!-- Title: jngl/OutlinedFont.hpp Pages: 1 -->
<svg width="356pt" height="248pt"
 viewBox="0.00 0.00 356.00 248.25" xmlns="http://www.w3.org/2000/svg" xmlns:xlink="http://www.w3.org/1999/xlink">
<g id="graph0" class="graph" transform="scale(1 1) rotate(0) translate(4 244.25)">
<title>jngl/OutlinedFont.hpp</title>
<!-- Node1 -->
<g id="Node000001" class="node">
<title>Node1</title>
<g id="a_Node000001"><a xlink:title="Contains jngl::OutlinedFont class.">
<polygon fill="#999999" stroke="#666666" points="285,-240.25 143,-240.25 143,-221 285,-221 285,-240.25"/>
<text text-anchor="middle" x="214" y="-226.75" font-family="ui-monospace,monospace" font-size="10.00">jngl/OutlinedFont.hpp</text>
</a>
</g>
</g>
<!-- Node2 -->
<g id="Node000002" class="node">
<title>Node2</title>
<g id="a_Node000002"><a xlink:href="font_8hpp.html" target="_top" xlink:title="Contains jngl::Font class and related functions.">
<polygon fill="white" stroke="#666666" points="246,-185 182,-185 182,-165.75 246,-165.75 246,-185"/>
<text text-anchor="middle" x="214" y="-171.5" font-family="ui-monospace,monospace" font-size="10.00">font.hpp</text>
</a>
</g>
</g>
<!-- Node1&#45;&gt;Node2 -->
<g id="edge1_Node000001_Node000002" class="edge">
<title>Node1&#45;&gt;Node2</title>
<g id="a_edge1_Node000001_Node000002"><a xlink:title=" ">
<path fill="none" stroke="#63b8ff" d="M214,-220.83C214,-214.32 214,-205.17 214,-196.87"/>
<polygon fill="#63b8ff" stroke="#63b8ff" points="217.5,-196.87 214,-186.87 210.5,-196.87 217.5,-196.87"/>
</a>
</g>
</g>
<!-- Node3 -->
<g id="Node000003" class="node">
<title>Node3</title>
<g id="a_Node000003"><a xlink:href="Rgba_8hpp.html" target="_top" xlink:title="Contains jngl::Rgba class.">
<polygon fill="white" stroke="#666666" points="118,-129.75 54,-129.75 54,-110.5 118,-110.5 118,-129.75"/>
<text text-anchor="middle" x="86" y="-116.25" font-family="ui-monospace,monospace" font-size="10.00">Rgba.hpp</text>
</a>
</g>
</g>
<!-- Node2&#45;&gt;Node3 -->
<g id="edge2_Node000002_Node000003" class="edge">
<title>Node2&#45;&gt;Node3</title>
<g id="a_edge2_Node000002_Node000003"><a xlink:title=" ">
<path fill="none" stroke="#63b8ff" d="M192.29,-165.34C171.97,-156.89 141.35,-144.15 118.19,-134.52"/>
<polygon fill="#63b8ff" stroke="#63b8ff" points="119.79,-131.39 109.22,-130.78 117.11,-137.86 119.79,-131.39"/>
</a>
</g>
</g>
<!-- Node6 -->
<g id="Node000006" class="node">
<title>Node6</title>
<g id="a_Node000006"><a xlink:href="Vec2_8hpp.html" target="_top" xlink:title="Contains jngl::Vec2 class.">
<polygon fill="white" stroke="#666666" points="208,-129.75 144,-129.75 144,-110.5 208,-110.5 208,-129.75"/>
<text text-anchor="middle" x="176" y="-116.25" font-family="ui-monospace,monospace" font-size="10.00">Vec2.hpp</text>
</a>
</g>
</g>
<!-- Node2&#45;&gt;Node6 -->
<g id="edge6_Node000002_Node000006" class="edge">
<title>Node2&#45;&gt;Node6</title>
<g id="a_edge6_Node000002_Node000006"><a xlink:title=" ">
<path fill="none" stroke="#63b8ff" d="M207.73,-165.58C202.64,-158.46 195.3,-148.18 188.97,-139.3"/>
<polygon fill="#63b8ff" stroke="#63b8ff" points="191.95,-137.45 183.29,-131.34 186.25,-141.51 191.95,-137.45"/>
</a>
</g>
</g>
<!-- Node9 -->
<g id="Node000009" class="node">
<title>Node9</title>
<g id="a_Node000009"><a target="_parent" xlink:href="http://en.cppreference.com/w/cpp/header/memory.html" xlink:title=" ">
<polygon fill="white" stroke="#666666" points="278,-129.75 226,-129.75 226,-110.5 278,-110.5 278,-129.75"/>
<text text-anchor="middle" x="252" y="-116.25" font-family="ui-monospace,monospace" font-size="10.00">memory</text>
</a>
</g>
</g>
<!-- Node2&#45;&gt;Node9 -->
<g id="edge9_Node000002_Node000009" class="edge">
<title>Node2&#45;&gt;Node9</title>
<g id="a_edge9_Node000002_Node000009"><a xlink:title=" ">
<path fill="none" stroke="#63b8ff" d="M220.27,-165.58C225.36,-158.46 232.7,-148.18 239.03,-139.3"/>
<polygon fill="#63b8ff" stroke="#63b8ff" points="241.75,-141.51 244.71,-131.34 236.05,-137.45 241.75,-141.51"/>
</a>
</g>
</g>
<!-- Node10 -->
<g id="Node000010" class="node">
<title>Node10</title>
<g id="a_Node000010"><a target="_parent" xlink:href="http://en.cppreference.com/w/cpp/header/string.html" xlink:title=" ">
<polygon fill="white" stroke="#666666" points="348,-129.75 296,-129.75 296,-110.5 348,-110.5 348,-129.75"/>
<text text-anchor="middle" x="322" y="-116.25" font-family="ui-monospace,monospace" font-size="10.00">string</text>
</a>
</g>
</g>
<!-- Node2&#45;&gt;Node10 -->
<g id="edge10_Node000002_Node000010" class="edge">
<title>Node2&#45;&gt;Node10</title>
<g id="a_edge10_Node000002_Node000010"><a xlink:title=" ">
<path fill="none" stroke="#63b8ff" d="M232.32,-165.34C249.08,-157.08 274.13,-144.73 293.5,-135.18"/>
<polygon fill="#63b8ff" stroke="#63b8ff" points="294.81,-138.43 302.23,-130.87 291.72,-132.15 294.81,-138.43"/>
</a>
</g>
</g>
<!-- Node4 -->
<g id="Node000004" class="node">
<title>Node4</title>
<g id="a_Node000004"><a xlink:href="Rgb_8hpp.html" target="_top" xlink:title="Contains jngl::Rgb class.">
<polygon fill="white" stroke="#666666" points="58,-74.5 0,-74.5 0,-55.25 58,-55.25 58,-74.5"/>
<text text-anchor="middle" x="29" y="-61" font-family="ui-monospace,monospace" font-size="10.00">Rgb.hpp</text>
</a>
</g>
</g>
<!-- Node3&#45;&gt;Node4 -->
<g id="edge3_Node000003_Node000004" class="edge">
<title>Node3&#45;&gt;Node4</title>
<g id="a_edge3_Node000003_Node000004"><a xlink:title=" ">
<path fill="none" stroke="#63b8ff" d="M76.33,-110.09C68.26,-102.55 56.53,-91.6 46.78,-82.48"/>
<polygon fill="#63b8ff" stroke="#63b8ff" points="49.33,-80.08 39.63,-75.81 44.55,-85.19 49.33,-80.08"/>
</a>
</g>
</g>
<!-- Node5 -->
<g id="Node000005" class="node">
<title>Node5</title>
<g id="a_Node000005"><a target="_parent" xlink:href="http://en.cppreference.com/w/cpp/header/cstdint.html" xlink:title=" ">
<polygon fill="white" stroke="#666666" points="86,-19.25 28,-19.25 28,0 86,0 86,-19.25"/>
<text text-anchor="middle" x="57" y="-5.75" font-family="ui-monospace,monospace" font-size="10.00">cstdint</text>
</a>
</g>
</g>
<!-- Node3&#45;&gt;Node5 -->
<g id="edge5_Node000003_Node000005" class="edge">
<title>Node3&#45;&gt;Node5</title>
<g id="a_edge5_Node000003_Node000005"><a xlink:title=" ">
<path fill="none" stroke="#63b8ff" d="M83.63,-110.25C79,-92.92 68.65,-54.23 62.31,-30.49"/>
<polygon fill="#63b8ff" stroke="#63b8ff" points="65.76,-29.85 59.8,-21.09 59,-31.65 65.76,-29.85"/>
</a>
</g>
</g>
<!-- Node4&#45;&gt;Node5 -->
<g id="edge4_Node000004_Node000005" class="edge">
<title>Node4&#45;&gt;Node5</title>
<g id="a_edge4_Node000004_Node000005"><a xlink:title=" ">
<path fill="none" stroke="#63b8ff" d="M33.62,-55.08C37.25,-48.19 42.43,-38.34 46.99,-29.66"/>
<polygon fill="#63b8ff" stroke="#63b8ff" points="50.02,-31.43 51.57,-20.95 43.82,-28.17 50.02,-31.43"/>
</a>
</g>
</g>
<!-- Node7 -->
<g id="Node000007" class="node">
<title>Node7</title>
<g id="a_Node000007"><a xlink:title=" ">
<polygon fill="#e0e0e0" stroke="#999999" points="238,-74.5 114,-74.5 114,-55.25 238,-55.25 238,-74.5"/>
<text text-anchor="middle" x="176" y="-61" font-family="ui-monospace,monospace" font-size="10.00">boost/qvm_lite.hpp</text>
</a>
</g>
</g>
<!-- Node6&#45;&gt;Node7 -->
<g id="edge7_Node000006_Node000007" class="edge">
<title>Node6&#45;&gt;Node7</title>
<g id="a_edge7_Node000006_Node000007"><a xlink:title=" ">
<path fill="none" stroke="#63b8ff" d="M176,-110.33C176,-103.82 176,-94.67 176,-86.37"/>
<polygon fill="#63b8ff" stroke="#63b8ff" points="179.5,-86.37 176,-76.37 172.5,-86.37 179.5,-86.37"/>
</a>
</g>
</g>
<!-- Node8 -->
<g id="Node000008" class="node">
<title>Node8</title>
<g id="a_Node000008"><a target="_parent" xlink:href="http://en.cppreference.com/w/cpp/header/iosfwd.html" xlink:title=" ">
<polygon fill="white" stroke="#666666" points="308,-74.5 256,-74.5 256,-55.25 308,-55.25 308,-74.5"/>
<text text-anchor="middle" x="282" y="-61" font-family="ui-monospace,monospace" font-size="10.00">iosfwd</text>
</a>
</g>
</g>
<!-- Node6&#45;&gt;Node8 -->
<g id="edge8_Node000006_Node000008" class="edge">
<title>Node6&#45;&gt;Node8</title>
<g id="a_edge8_Node000006_Node000008"><a xlink:title=" ">
<path fill="none" stroke="#63b8ff" d="M193.98,-110.09C210.35,-101.87 234.79,-89.59 253.76,-80.06"/>
<polygon fill="#63b8ff" stroke="#63b8ff" points="255.21,-83.25 262.58,-75.63 252.07,-76.99 255.21,-83.25"/>
</a>
</g>
</g>
</g>
</svg>
