<?xml version="1.0" encoding="UTF-8" standalone="no"?>
<!DOCTYPE svg PUBLIC "-//W3C//DTD SVG 1.1//EN"
 "http://www.w3.org/Graphics/SVG/1.1/DTD/svg11.dtd">
<!-- Generated by graphviz version 5.0.0 (0)
 -->
<!-- Title: jngl/Pixels.hpp Pages: 1 -->
<svg width="307pt" height="247pt"
 viewBox="0.00 0.00 307.42 247.00" xmlns="http://www.w3.org/2000/svg" xmlns:xlink="http://www.w3.org/1999/xlink">
<g id="graph0" class="graph" transform="scale(1 1) rotate(0) translate(4 243)">
<title>jngl/Pixels.hpp</title>
<!-- Node1 -->
<g id="node1" class="node">
<title>Node1</title>
<g id="a_node1"><a xlink:title="Contains jngl::Pixels class.">
<polygon fill="#999999" stroke="#666666" points="135.42,-239 28.42,-239 28.42,-220 135.42,-220 135.42,-239"/>
<text text-anchor="middle" x="81.92" y="-227" font-family="ui-monospace,monospace" font-size="10.00">jngl/Pixels.hpp</text>
</a>
</g>
</g>
<!-- Node2 -->
<g id="node2" class="node">
<title>Node2</title>
<g id="a_node2"><a xlink:href="all_8hpp.html" target="_top" xlink:title="Includes all JNGL headers except for init.hpp.">
<polygon fill="white" stroke="#666666" points="156.42,-74 67.42,-74 67.42,-55 156.42,-55 156.42,-74"/>
<text text-anchor="middle" x="111.92" y="-62" font-family="ui-monospace,monospace" font-size="10.00">jngl/all.hpp</text>
</a>
</g>
</g>
<!-- Node1&#45;&gt;Node2 -->
<g id="edge1" class="edge">
<title>Node1&#45;&gt;Node2</title>
<path fill="none" stroke="#63b8ff" d="M60.62,-213.79C30.69,-191.27 -17.56,-146.95 6.92,-110 20.36,-89.7 45.13,-78.63 67.23,-72.61"/>
<polygon fill="#63b8ff" stroke="#63b8ff" points="58.72,-216.74 68.86,-219.8 62.84,-211.08 58.72,-216.74"/>
</g>
<!-- Node4 -->
<g id="node4" class="node">
<title>Node4</title>
<g id="a_node4"><a xlink:href="framebuffer_8hpp.html" target="_top" xlink:title="Contains jngl::FrameBuffer class.">
<polygon fill="white" stroke="#666666" points="147.42,-129 16.42,-129 16.42,-110 147.42,-110 147.42,-129"/>
<text text-anchor="middle" x="81.92" y="-117" font-family="ui-monospace,monospace" font-size="10.00">jngl/framebuffer.hpp</text>
</a>
</g>
</g>
<!-- Node1&#45;&gt;Node4 -->
<g id="edge3" class="edge">
<title>Node1&#45;&gt;Node4</title>
<path fill="none" stroke="#63b8ff" d="M81.92,-209.48C81.92,-185.84 81.92,-146.5 81.92,-129.16"/>
<polygon fill="#63b8ff" stroke="#63b8ff" points="78.42,-209.66 81.92,-219.66 85.42,-209.66 78.42,-209.66"/>
</g>
<!-- Node5 -->
<g id="node5" class="node">
<title>Node5</title>
<g id="a_node5"><a xlink:href="window_8hpp.html" target="_top" xlink:title="Functions related to the main window.">
<polygon fill="white" stroke="#666666" points="229.42,-184 122.42,-184 122.42,-165 229.42,-165 229.42,-184"/>
<text text-anchor="middle" x="175.92" y="-172" font-family="ui-monospace,monospace" font-size="10.00">jngl/window.hpp</text>
</a>
</g>
</g>
<!-- Node1&#45;&gt;Node5 -->
<g id="edge5" class="edge">
<title>Node1&#45;&gt;Node5</title>
<path fill="none" stroke="#63b8ff" d="M105.92,-214.97C123.1,-205.28 145.73,-192.52 160.54,-184.17"/>
<polygon fill="#63b8ff" stroke="#63b8ff" points="104.01,-212.02 97.02,-219.98 107.45,-218.12 104.01,-212.02"/>
</g>
<!-- Node3 -->
<g id="node3" class="node">
<title>Node3</title>
<g id="a_node3"><a xlink:href="jngl_8hpp.html" target="_top" xlink:title="Includes jngl/all.hpp.">
<polygon fill="white" stroke="#666666" points="144.42,-19 79.42,-19 79.42,0 144.42,0 144.42,-19"/>
<text text-anchor="middle" x="111.92" y="-7" font-family="ui-monospace,monospace" font-size="10.00">jngl.hpp</text>
</a>
</g>
</g>
<!-- Node2&#45;&gt;Node3 -->
<g id="edge2" class="edge">
<title>Node2&#45;&gt;Node3</title>
<path fill="none" stroke="#63b8ff" d="M111.92,-44.66C111.92,-35.93 111.92,-25.99 111.92,-19.09"/>
<polygon fill="#63b8ff" stroke="#63b8ff" points="108.42,-44.75 111.92,-54.75 115.42,-44.75 108.42,-44.75"/>
</g>
<!-- Node4&#45;&gt;Node2 -->
<g id="edge4" class="edge">
<title>Node4&#45;&gt;Node2</title>
<path fill="none" stroke="#63b8ff" d="M91.93,-100.82C97.02,-91.82 102.98,-81.29 107.05,-74.09"/>
<polygon fill="#63b8ff" stroke="#63b8ff" points="88.75,-99.32 86.87,-109.75 94.84,-102.77 88.75,-99.32"/>
</g>
<!-- Node5&#45;&gt;Node2 -->
<g id="edge6" class="edge">
<title>Node5&#45;&gt;Node2</title>
<path fill="none" stroke="#63b8ff" d="M172.89,-154.89C170.16,-141.67 165.25,-123.87 156.92,-110 148.2,-95.49 133.69,-82.34 123.51,-74.16"/>
<polygon fill="#63b8ff" stroke="#63b8ff" points="169.45,-155.53 174.71,-164.73 176.34,-154.26 169.45,-155.53"/>
</g>
<!-- Node6 -->
<g id="node6" class="node">
<title>Node6</title>
<g id="a_node6"><a xlink:href="main_8hpp.html" target="_top" xlink:title="Defines macros for the main entry point.">
<polygon fill="white" stroke="#666666" points="299.42,-129 204.42,-129 204.42,-110 299.42,-110 299.42,-129"/>
<text text-anchor="middle" x="251.92" y="-117" font-family="ui-monospace,monospace" font-size="10.00">jngl/main.hpp</text>
</a>
</g>
</g>
<!-- Node5&#45;&gt;Node6 -->
<g id="edge7" class="edge">
<title>Node5&#45;&gt;Node6</title>
<path fill="none" stroke="#63b8ff" d="M196.49,-159.15C210.23,-149.57 227.84,-137.29 239.48,-129.17"/>
<polygon fill="#63b8ff" stroke="#63b8ff" points="194.33,-156.39 188.13,-164.98 198.33,-162.14 194.33,-156.39"/>
</g>
<!-- Node6&#45;&gt;Node2 -->
<g id="edge8" class="edge">
<title>Node6&#45;&gt;Node2</title>
<path fill="none" stroke="#63b8ff" d="M220.01,-106.42C194.03,-96.59 158,-82.95 134.82,-74.17"/>
<polygon fill="#63b8ff" stroke="#63b8ff" points="218.83,-109.72 229.42,-109.98 221.31,-103.17 218.83,-109.72"/>
</g>
<!-- Node7 -->
<g id="node7" class="node">
<title>Node7</title>
<g id="a_node7"><a xlink:href="init_8hpp.html" target="_top" xlink:title="Include this file only once, as it defines the main function.">
<polygon fill="white" stroke="#666666" points="299.42,-74 204.42,-74 204.42,-55 299.42,-55 299.42,-74"/>
<text text-anchor="middle" x="251.92" y="-62" font-family="ui-monospace,monospace" font-size="10.00">jngl/init.hpp</text>
</a>
</g>
</g>
<!-- Node6&#45;&gt;Node7 -->
<g id="edge9" class="edge">
<title>Node6&#45;&gt;Node7</title>
<path fill="none" stroke="#63b8ff" d="M251.92,-99.66C251.92,-90.93 251.92,-80.99 251.92,-74.09"/>
<polygon fill="#63b8ff" stroke="#63b8ff" points="248.42,-99.75 251.92,-109.75 255.42,-99.75 248.42,-99.75"/>
</g>
</g>
</svg>
