<?xml version="1.0" encoding="UTF-8" standalone="no"?>
<!DOCTYPE svg PUBLIC "-//W3C//DTD SVG 1.1//EN"
 "http://www.w3.org/Graphics/SVG/1.1/DTD/svg11.dtd">
<!-- Generated by graphviz version 5.0.0 (0)
 -->
<!-- Title: jngl/Pixels.hpp Pages: 1 -->
<svg width="472pt" height="247pt"
 viewBox="0.00 0.00 472.00 247.00" xmlns="http://www.w3.org/2000/svg" xmlns:xlink="http://www.w3.org/1999/xlink">
<g id="graph0" class="graph" transform="scale(1 1) rotate(0) translate(4 243)">
<title>jngl/Pixels.hpp</title>
<!-- Node1 -->
<g id="node1" class="node">
<title>Node1</title>
<g id="a_node1"><a xlink:title="Contains jngl::Pixels class.">
<polygon fill="#999999" stroke="#666666" points="213,-239 106,-239 106,-220 213,-220 213,-239"/>
<text text-anchor="middle" x="159.5" y="-227" font-family="ui-monospace,monospace" font-size="10.00">jngl/Pixels.hpp</text>
</a>
</g>
</g>
<!-- Node2 -->
<g id="node2" class="node">
<title>Node2</title>
<g id="a_node2"><a xlink:href="FrameBuffer_8hpp.html" target="_top" xlink:title="Contains jngl::FrameBuffer class.">
<polygon fill="white" stroke="#666666" points="131,-184 0,-184 0,-165 131,-165 131,-184"/>
<text text-anchor="middle" x="65.5" y="-172" font-family="ui-monospace,monospace" font-size="10.00">jngl/FrameBuffer.hpp</text>
</a>
</g>
</g>
<!-- Node1&#45;&gt;Node2 -->
<g id="edge1" class="edge">
<title>Node1&#45;&gt;Node2</title>
<path fill="none" stroke="#63b8ff" d="M135.5,-214.97C118.31,-205.28 95.69,-192.52 80.88,-184.17"/>
<polygon fill="#63b8ff" stroke="#63b8ff" points="133.97,-218.12 144.4,-219.98 137.41,-212.02 133.97,-218.12"/>
</g>
<!-- Node3 -->
<g id="node3" class="node">
<title>Node3</title>
<g id="a_node3"><a xlink:href="all_8hpp.html" target="_top" xlink:title="Includes all JNGL headers except for init.hpp.">
<polygon fill="white" stroke="#666666" points="242,-74 153,-74 153,-55 242,-55 242,-74"/>
<text text-anchor="middle" x="197.5" y="-62" font-family="ui-monospace,monospace" font-size="10.00">jngl/all.hpp</text>
</a>
</g>
</g>
<!-- Node1&#45;&gt;Node3 -->
<g id="edge4" class="edge">
<title>Node1&#45;&gt;Node3</title>
<path fill="none" stroke="#63b8ff" d="M163.85,-209.83C172.05,-174.67 189.48,-99.9 195.45,-74.31"/>
<polygon fill="#63b8ff" stroke="#63b8ff" points="160.4,-209.2 161.54,-219.74 167.22,-210.79 160.4,-209.2"/>
</g>
<!-- Node5 -->
<g id="node5" class="node">
<title>Node5</title>
<g id="a_node5"><a xlink:href="window_8hpp.html" target="_top" xlink:title="Functions related to the main window.">
<polygon fill="white" stroke="#666666" points="319,-184 212,-184 212,-165 319,-165 319,-184"/>
<text text-anchor="middle" x="265.5" y="-172" font-family="ui-monospace,monospace" font-size="10.00">jngl/window.hpp</text>
</a>
</g>
</g>
<!-- Node1&#45;&gt;Node5 -->
<g id="edge5" class="edge">
<title>Node1&#45;&gt;Node5</title>
<path fill="none" stroke="#63b8ff" d="M185.5,-215.5C205,-205.75 231.15,-192.68 248.16,-184.17"/>
<polygon fill="#63b8ff" stroke="#63b8ff" points="183.91,-212.38 176.53,-219.98 187.04,-218.64 183.91,-212.38"/>
</g>
<!-- Node2&#45;&gt;Node3 -->
<g id="edge2" class="edge">
<title>Node2&#45;&gt;Node3</title>
<path fill="none" stroke="#63b8ff" d="M84.19,-158.21C112.31,-135.2 164.57,-92.44 186.92,-74.16"/>
<polygon fill="#63b8ff" stroke="#63b8ff" points="81.83,-155.62 76.3,-164.66 86.26,-161.04 81.83,-155.62"/>
</g>
<!-- Node4 -->
<g id="node4" class="node">
<title>Node4</title>
<g id="a_node4"><a xlink:href="jngl_8hpp.html" target="_top" xlink:title="Includes jngl/all.hpp.">
<polygon fill="white" stroke="#666666" points="230,-19 165,-19 165,0 230,0 230,-19"/>
<text text-anchor="middle" x="197.5" y="-7" font-family="ui-monospace,monospace" font-size="10.00">jngl.hpp</text>
</a>
</g>
</g>
<!-- Node3&#45;&gt;Node4 -->
<g id="edge3" class="edge">
<title>Node3&#45;&gt;Node4</title>
<path fill="none" stroke="#63b8ff" d="M197.5,-44.66C197.5,-35.93 197.5,-25.99 197.5,-19.09"/>
<polygon fill="#63b8ff" stroke="#63b8ff" points="194,-44.75 197.5,-54.75 201,-44.75 194,-44.75"/>
</g>
<!-- Node5&#45;&gt;Node3 -->
<g id="edge8" class="edge">
<title>Node5&#45;&gt;Node3</title>
<path fill="none" stroke="#63b8ff" d="M244.33,-158.56C234.62,-150.75 223.7,-140.43 216.5,-129 205.46,-111.47 200.55,-87.2 198.61,-74.33"/>
<polygon fill="#63b8ff" stroke="#63b8ff" points="242.35,-161.46 252.42,-164.75 246.6,-155.9 242.35,-161.46"/>
</g>
<!-- Node6 -->
<g id="node6" class="node">
<title>Node6</title>
<g id="a_node6"><a xlink:href="Singleton_8hpp.html" target="_top" xlink:title="Contains jngl::Singleton base class.">
<polygon fill="white" stroke="#666666" points="351,-129 226,-129 226,-110 351,-110 351,-129"/>
<text text-anchor="middle" x="288.5" y="-117" font-family="ui-monospace,monospace" font-size="10.00">jngl/Singleton.hpp</text>
</a>
</g>
</g>
<!-- Node5&#45;&gt;Node6 -->
<g id="edge6" class="edge">
<title>Node5&#45;&gt;Node6</title>
<path fill="none" stroke="#63b8ff" d="M273.3,-155.53C277.18,-146.6 281.68,-136.22 284.77,-129.09"/>
<polygon fill="#63b8ff" stroke="#63b8ff" points="270.07,-154.18 269.3,-164.75 276.49,-156.97 270.07,-154.18"/>
</g>
<!-- Node7 -->
<g id="node7" class="node">
<title>Node7</title>
<g id="a_node7"><a xlink:href="main_8hpp.html" target="_top" xlink:title="Defines macros for the main entry point.">
<polygon fill="white" stroke="#666666" points="464,-129 369,-129 369,-110 464,-110 464,-129"/>
<text text-anchor="middle" x="416.5" y="-117" font-family="ui-monospace,monospace" font-size="10.00">jngl/main.hpp</text>
</a>
</g>
</g>
<!-- Node5&#45;&gt;Node7 -->
<g id="edge9" class="edge">
<title>Node5&#45;&gt;Node7</title>
<path fill="none" stroke="#63b8ff" d="M299.55,-161.55C327.59,-151.71 366.68,-137.98 391.8,-129.17"/>
<polygon fill="#63b8ff" stroke="#63b8ff" points="298.04,-158.37 289.76,-164.98 300.36,-164.98 298.04,-158.37"/>
</g>
<!-- Node6&#45;&gt;Node3 -->
<g id="edge7" class="edge">
<title>Node6&#45;&gt;Node3</title>
<path fill="none" stroke="#63b8ff" d="M264.8,-104.7C248.22,-95.04 226.59,-82.44 212.39,-74.17"/>
<polygon fill="#63b8ff" stroke="#63b8ff" points="263.48,-107.98 273.88,-109.98 267,-101.93 263.48,-107.98"/>
</g>
<!-- Node7&#45;&gt;Node3 -->
<g id="edge10" class="edge">
<title>Node7&#45;&gt;Node3</title>
<path fill="none" stroke="#63b8ff" d="M371.57,-107.63C330.55,-97.7 270.71,-83.22 232.96,-74.08"/>
<polygon fill="#63b8ff" stroke="#63b8ff" points="370.77,-111.03 381.31,-109.98 372.42,-104.23 370.77,-111.03"/>
</g>
<!-- Node8 -->
<g id="node8" class="node">
<title>Node8</title>
<g id="a_node8"><a xlink:href="init_8hpp.html" target="_top" xlink:title="Include this file only once, as it defines the main function.">
<polygon fill="white" stroke="#666666" points="464,-74 369,-74 369,-55 464,-55 464,-74"/>
<text text-anchor="middle" x="416.5" y="-62" font-family="ui-monospace,monospace" font-size="10.00">jngl/init.hpp</text>
</a>
</g>
</g>
<!-- Node7&#45;&gt;Node8 -->
<g id="edge11" class="edge">
<title>Node7&#45;&gt;Node8</title>
<path fill="none" stroke="#63b8ff" d="M416.5,-99.66C416.5,-90.93 416.5,-80.99 416.5,-74.09"/>
<polygon fill="#63b8ff" stroke="#63b8ff" points="413,-99.75 416.5,-109.75 420,-99.75 413,-99.75"/>
</g>
</g>
</svg>
