<?xml version="1.0" encoding="UTF-8" standalone="no"?>
<!DOCTYPE svg PUBLIC "-//W3C//DTD SVG 1.1//EN"
 "http://www.w3.org/Graphics/SVG/1.1/DTD/svg11.dtd">
<!-- Generated by graphviz version 5.0.0 (0)
 -->
<!-- Title: jngl/Pixels.hpp Pages: 1 -->
<svg width="390pt" height="192pt"
 viewBox="0.00 0.00 389.96 192.00" xmlns="http://www.w3.org/2000/svg" xmlns:xlink="http://www.w3.org/1999/xlink">
<g id="graph0" class="graph" transform="scale(1 1) rotate(0) translate(4 188)">
<title>jngl/Pixels.hpp</title>
<!-- Node1 -->
<g id="node1" class="node">
<title>Node1</title>
<g id="a_node1"><a xlink:title="Contains jngl::Pixels class.">
<polygon fill="#999999" stroke="#666666" points="130.96,-184 23.96,-184 23.96,-165 130.96,-165 130.96,-184"/>
<text text-anchor="middle" x="77.46" y="-172" font-family="ui-monospace,monospace" font-size="10.00">jngl/Pixels.hpp</text>
</a>
</g>
</g>
<!-- Node2 -->
<g id="node2" class="node">
<title>Node2</title>
<g id="a_node2"><a xlink:href="jngl_8hpp.html" target="_top" xlink:title="Includes all JNGL headers except for init.hpp.">
<polygon fill="white" stroke="#666666" points="147.96,-19 82.96,-19 82.96,0 147.96,0 147.96,-19"/>
<text text-anchor="middle" x="115.46" y="-7" font-family="ui-monospace,monospace" font-size="10.00">jngl.hpp</text>
</a>
</g>
</g>
<!-- Node1&#45;&gt;Node2 -->
<g id="edge1" class="edge">
<title>Node1&#45;&gt;Node2</title>
<path fill="none" stroke="#63b8ff" d="M41.97,-160.9C17.92,-150.08 -7.78,-132.65 2.46,-110 22.37,-65.93 72.51,-33.59 98.8,-19.05"/>
<polygon fill="#63b8ff" stroke="#63b8ff" points="40.79,-164.21 51.37,-164.86 43.51,-157.75 40.79,-164.21"/>
</g>
<!-- Node3 -->
<g id="node3" class="node">
<title>Node3</title>
<g id="a_node3"><a xlink:href="FrameBuffer_8hpp.html" target="_top" xlink:title="Contains jngl::FrameBuffer class.">
<polygon fill="white" stroke="#666666" points="142.96,-129 11.96,-129 11.96,-110 142.96,-110 142.96,-129"/>
<text text-anchor="middle" x="77.46" y="-117" font-family="ui-monospace,monospace" font-size="10.00">jngl/FrameBuffer.hpp</text>
</a>
</g>
</g>
<!-- Node1&#45;&gt;Node3 -->
<g id="edge2" class="edge">
<title>Node1&#45;&gt;Node3</title>
<path fill="none" stroke="#63b8ff" d="M77.46,-154.66C77.46,-145.93 77.46,-135.99 77.46,-129.09"/>
<polygon fill="#63b8ff" stroke="#63b8ff" points="73.96,-154.75 77.46,-164.75 80.96,-154.75 73.96,-154.75"/>
</g>
<!-- Node4 -->
<g id="node4" class="node">
<title>Node4</title>
<g id="a_node4"><a xlink:href="window_8hpp.html" target="_top" xlink:title="Functions related to the main window.">
<polygon fill="white" stroke="#666666" points="267.96,-129 160.96,-129 160.96,-110 267.96,-110 267.96,-129"/>
<text text-anchor="middle" x="214.46" y="-117" font-family="ui-monospace,monospace" font-size="10.00">jngl/window.hpp</text>
</a>
</g>
</g>
<!-- Node1&#45;&gt;Node4 -->
<g id="edge4" class="edge">
<title>Node1&#45;&gt;Node4</title>
<path fill="none" stroke="#63b8ff" d="M109.02,-161.29C134.41,-151.47 169.46,-137.91 192.04,-129.17"/>
<polygon fill="#63b8ff" stroke="#63b8ff" points="107.53,-158.11 99.47,-164.98 110.06,-164.64 107.53,-158.11"/>
</g>
<!-- Node3&#45;&gt;Node2 -->
<g id="edge3" class="edge">
<title>Node3&#45;&gt;Node2</title>
<path fill="none" stroke="#63b8ff" d="M83.92,-100.12C92.21,-76.56 106.25,-36.66 112.41,-19.16"/>
<polygon fill="#63b8ff" stroke="#63b8ff" points="80.58,-99.07 80.57,-109.66 87.19,-101.39 80.58,-99.07"/>
</g>
<!-- Node4&#45;&gt;Node2 -->
<g id="edge5" class="edge">
<title>Node4&#45;&gt;Node2</title>
<path fill="none" stroke="#63b8ff" d="M178.85,-105.86C163.25,-98.69 145.92,-88.26 134.46,-74 121.34,-57.68 117.27,-32.47 116.01,-19.26"/>
<polygon fill="#63b8ff" stroke="#63b8ff" points="177.7,-109.17 188.27,-109.9 180.46,-102.74 177.7,-109.17"/>
</g>
<!-- Node5 -->
<g id="node5" class="node">
<title>Node5</title>
<g id="a_node5"><a xlink:href="Singleton_8hpp.html" target="_top" xlink:title="Contains jngl::Singleton base class.">
<polygon fill="white" stroke="#666666" points="268.96,-74 143.96,-74 143.96,-55 268.96,-55 268.96,-74"/>
<text text-anchor="middle" x="206.46" y="-62" font-family="ui-monospace,monospace" font-size="10.00">jngl/Singleton.hpp</text>
</a>
</g>
</g>
<!-- Node4&#45;&gt;Node5 -->
<g id="edge6" class="edge">
<title>Node4&#45;&gt;Node5</title>
<path fill="none" stroke="#63b8ff" d="M211.61,-99.66C210.3,-90.93 208.79,-80.99 207.75,-74.09"/>
<polygon fill="#63b8ff" stroke="#63b8ff" points="208.18,-100.38 213.14,-109.75 215.1,-99.34 208.18,-100.38"/>
</g>
<!-- Node6 -->
<g id="node6" class="node">
<title>Node6</title>
<g id="a_node6"><a xlink:href="main_8hpp.html" target="_top" xlink:title="Defines macros for the main entry point.">
<polygon fill="white" stroke="#666666" points="381.96,-74 286.96,-74 286.96,-55 381.96,-55 381.96,-74"/>
<text text-anchor="middle" x="334.46" y="-62" font-family="ui-monospace,monospace" font-size="10.00">jngl/main.hpp</text>
</a>
</g>
</g>
<!-- Node4&#45;&gt;Node6 -->
<g id="edge8" class="edge">
<title>Node4&#45;&gt;Node6</title>
<path fill="none" stroke="#63b8ff" d="M242.99,-105.9C265.15,-96.11 295.31,-82.79 314.83,-74.17"/>
<polygon fill="#63b8ff" stroke="#63b8ff" points="241.47,-102.74 233.74,-109.98 244.3,-109.15 241.47,-102.74"/>
</g>
<!-- Node5&#45;&gt;Node2 -->
<g id="edge7" class="edge">
<title>Node5&#45;&gt;Node2</title>
<path fill="none" stroke="#63b8ff" d="M182.75,-49.7C166.18,-40.04 144.55,-27.44 130.34,-19.17"/>
<polygon fill="#63b8ff" stroke="#63b8ff" points="181.43,-52.98 191.84,-54.98 184.96,-46.93 181.43,-52.98"/>
</g>
<!-- Node6&#45;&gt;Node2 -->
<g id="edge9" class="edge">
<title>Node6&#45;&gt;Node2</title>
<path fill="none" stroke="#63b8ff" d="M289.29,-52.57C247.22,-42.39 185.51,-27.45 148.05,-18.39"/>
<polygon fill="#63b8ff" stroke="#63b8ff" points="288.73,-56.03 299.27,-54.98 290.37,-49.23 288.73,-56.03"/>
</g>
<!-- Node7 -->
<g id="node7" class="node">
<title>Node7</title>
<g id="a_node7"><a xlink:href="init_8hpp.html" target="_top" xlink:title="Include this file only once, as it defines the main function.">
<polygon fill="white" stroke="#666666" points="381.96,-19 286.96,-19 286.96,0 381.96,0 381.96,-19"/>
<text text-anchor="middle" x="334.46" y="-7" font-family="ui-monospace,monospace" font-size="10.00">jngl/init.hpp</text>
</a>
</g>
</g>
<!-- Node6&#45;&gt;Node7 -->
<g id="edge10" class="edge">
<title>Node6&#45;&gt;Node7</title>
<path fill="none" stroke="#63b8ff" d="M334.46,-44.66C334.46,-35.93 334.46,-25.99 334.46,-19.09"/>
<polygon fill="#63b8ff" stroke="#63b8ff" points="330.96,-44.75 334.46,-54.75 337.96,-44.75 330.96,-44.75"/>
</g>
</g>
</svg>
