<?xml version="1.0" encoding="UTF-8" standalone="no"?>
<!DOCTYPE svg PUBLIC "-//W3C//DTD SVG 1.1//EN"
 "http://www.w3.org/Graphics/SVG/1.1/DTD/svg11.dtd">
<!-- Generated by graphviz version 5.0.0 (0)
 -->
<!-- Title: jngl/Pixels.hpp Pages: 1 -->
<svg width="328pt" height="192pt"
 viewBox="0.00 0.00 327.99 192.00" xmlns="http://www.w3.org/2000/svg" xmlns:xlink="http://www.w3.org/1999/xlink">
<g id="graph0" class="graph" transform="scale(1 1) rotate(0) translate(4 188)">
<title>jngl/Pixels.hpp</title>
<!-- Node1 -->
<g id="node1" class="node">
<title>Node1</title>
<g id="a_node1"><a xlink:title="Contains jngl::Pixels class.">
<polygon fill="#999999" stroke="#666666" points="134.99,-184 27.99,-184 27.99,-165 134.99,-165 134.99,-184"/>
<text text-anchor="middle" x="81.49" y="-172" font-family="ui-monospace,monospace" font-size="10.00">jngl/Pixels.hpp</text>
</a>
</g>
</g>
<!-- Node2 -->
<g id="node2" class="node">
<title>Node2</title>
<g id="a_node2"><a xlink:href="jngl_8hpp.html" target="_top" xlink:title="Includes all JNGL headers except for init.hpp.">
<polygon fill="white" stroke="#666666" points="85.99,-19 20.99,-19 20.99,0 85.99,0 85.99,-19"/>
<text text-anchor="middle" x="53.49" y="-7" font-family="ui-monospace,monospace" font-size="10.00">jngl.hpp</text>
</a>
</g>
</g>
<!-- Node1&#45;&gt;Node2 -->
<g id="edge1" class="edge">
<title>Node1&#45;&gt;Node2</title>
<path fill="none" stroke="#63b8ff" d="M44.46,-160.85C29.94,-153.86 14.79,-143.57 6.49,-129 -15.52,-90.34 26,-39.34 44.86,-19.21"/>
<polygon fill="#63b8ff" stroke="#63b8ff" points="43.28,-164.15 53.84,-164.98 46.1,-157.75 43.28,-164.15"/>
</g>
<!-- Node3 -->
<g id="node3" class="node">
<title>Node3</title>
<g id="a_node3"><a xlink:href="FrameBuffer_8hpp.html" target="_top" xlink:title="Contains jngl::FrameBuffer class.">
<polygon fill="white" stroke="#666666" points="146.99,-129 15.99,-129 15.99,-110 146.99,-110 146.99,-129"/>
<text text-anchor="middle" x="81.49" y="-117" font-family="ui-monospace,monospace" font-size="10.00">jngl/FrameBuffer.hpp</text>
</a>
</g>
</g>
<!-- Node1&#45;&gt;Node3 -->
<g id="edge2" class="edge">
<title>Node1&#45;&gt;Node3</title>
<path fill="none" stroke="#63b8ff" d="M81.49,-154.66C81.49,-145.93 81.49,-135.99 81.49,-129.09"/>
<polygon fill="#63b8ff" stroke="#63b8ff" points="77.99,-154.75 81.49,-164.75 84.99,-154.75 77.99,-154.75"/>
</g>
<!-- Node4 -->
<g id="node4" class="node">
<title>Node4</title>
<g id="a_node4"><a xlink:href="window_8hpp.html" target="_top" xlink:title="Functions related to the main window.">
<polygon fill="white" stroke="#666666" points="271.99,-129 164.99,-129 164.99,-110 271.99,-110 271.99,-129"/>
<text text-anchor="middle" x="218.49" y="-117" font-family="ui-monospace,monospace" font-size="10.00">jngl/window.hpp</text>
</a>
</g>
</g>
<!-- Node1&#45;&gt;Node4 -->
<g id="edge4" class="edge">
<title>Node1&#45;&gt;Node4</title>
<path fill="none" stroke="#63b8ff" d="M113.05,-161.29C138.44,-151.47 173.49,-137.91 196.08,-129.17"/>
<polygon fill="#63b8ff" stroke="#63b8ff" points="111.56,-158.11 103.5,-164.98 114.09,-164.64 111.56,-158.11"/>
</g>
<!-- Node3&#45;&gt;Node2 -->
<g id="edge3" class="edge">
<title>Node3&#45;&gt;Node2</title>
<path fill="none" stroke="#63b8ff" d="M76.64,-99.8C70.52,-76.2 60.25,-36.58 55.73,-19.16"/>
<polygon fill="#63b8ff" stroke="#63b8ff" points="73.3,-100.86 79.2,-109.66 80.08,-99.1 73.3,-100.86"/>
</g>
<!-- Node5 -->
<g id="node5" class="node">
<title>Node5</title>
<g id="a_node5"><a xlink:href="Singleton_8hpp.html" target="_top" xlink:title="Contains jngl::Singleton base class.">
<polygon fill="white" stroke="#666666" points="206.99,-74 81.99,-74 81.99,-55 206.99,-55 206.99,-74"/>
<text text-anchor="middle" x="144.49" y="-62" font-family="ui-monospace,monospace" font-size="10.00">jngl/Singleton.hpp</text>
</a>
</g>
</g>
<!-- Node4&#45;&gt;Node5 -->
<g id="edge5" class="edge">
<title>Node4&#45;&gt;Node5</title>
<path fill="none" stroke="#63b8ff" d="M198.45,-104.15C185.08,-94.57 167.93,-82.29 156.59,-74.17"/>
<polygon fill="#63b8ff" stroke="#63b8ff" points="196.43,-107.01 206.6,-109.98 200.51,-101.32 196.43,-107.01"/>
</g>
<!-- Node6 -->
<g id="node6" class="node">
<title>Node6</title>
<g id="a_node6"><a xlink:href="main_8hpp.html" target="_top" xlink:title="Defines macros for the main entry point.">
<polygon fill="white" stroke="#666666" points="319.99,-74 224.99,-74 224.99,-55 319.99,-55 319.99,-74"/>
<text text-anchor="middle" x="272.49" y="-62" font-family="ui-monospace,monospace" font-size="10.00">jngl/main.hpp</text>
</a>
</g>
</g>
<!-- Node4&#45;&gt;Node6 -->
<g id="edge7" class="edge">
<title>Node4&#45;&gt;Node6</title>
<path fill="none" stroke="#63b8ff" d="M234.77,-102.52C244.29,-93.18 255.93,-81.75 263.74,-74.09"/>
<polygon fill="#63b8ff" stroke="#63b8ff" points="232.09,-100.25 227.41,-109.75 236.99,-105.24 232.09,-100.25"/>
</g>
<!-- Node5&#45;&gt;Node2 -->
<g id="edge6" class="edge">
<title>Node5&#45;&gt;Node2</title>
<path fill="none" stroke="#63b8ff" d="M120.79,-49.7C104.21,-40.04 82.58,-27.44 68.38,-19.17"/>
<polygon fill="#63b8ff" stroke="#63b8ff" points="119.47,-52.98 129.87,-54.98 122.99,-46.93 119.47,-52.98"/>
</g>
<!-- Node7 -->
<g id="node7" class="node">
<title>Node7</title>
<g id="a_node7"><a xlink:href="init_8hpp.html" target="_top" xlink:title="Include this file only once, as it defines the main function.">
<polygon fill="white" stroke="#666666" points="319.99,-19 224.99,-19 224.99,0 319.99,0 319.99,-19"/>
<text text-anchor="middle" x="272.49" y="-7" font-family="ui-monospace,monospace" font-size="10.00">jngl/init.hpp</text>
</a>
</g>
</g>
<!-- Node6&#45;&gt;Node7 -->
<g id="edge8" class="edge">
<title>Node6&#45;&gt;Node7</title>
<path fill="none" stroke="#63b8ff" d="M272.49,-44.66C272.49,-35.93 272.49,-25.99 272.49,-19.09"/>
<polygon fill="#63b8ff" stroke="#63b8ff" points="268.99,-44.75 272.49,-54.75 275.99,-44.75 268.99,-44.75"/>
</g>
</g>
</svg>
