<?xml version="1.0" encoding="UTF-8" standalone="no"?>
<!DOCTYPE svg PUBLIC "-//W3C//DTD SVG 1.1//EN"
 "http://www.w3.org/Graphics/SVG/1.1/DTD/svg11.dtd">
<!-- Generated by graphviz version 12.1.0 (20240811.2233)
 -->
<!-- Title: jngl/Pixels.hpp Pages: 1 -->
<svg width="387pt" height="193pt"
 viewBox="0.00 0.00 386.82 193.00" xmlns="http://www.w3.org/2000/svg" xmlns:xlink="http://www.w3.org/1999/xlink">
<g id="graph0" class="graph" transform="scale(1 1) rotate(0) translate(4 189)">
<title>jngl/Pixels.hpp</title>
<!-- Node1 -->
<g id="Node000001" class="node">
<title>Node1</title>
<g id="a_Node000001"><a xlink:title="Contains jngl::Pixels class.">
<polygon fill="#999999" stroke="#666666" points="129.82,-185 23.82,-185 23.82,-165.75 129.82,-165.75 129.82,-185"/>
<text text-anchor="middle" x="76.82" y="-171.5" font-family="ui-monospace,monospace" font-size="10.00">jngl/Pixels.hpp</text>
</a>
</g>
</g>
<!-- Node2 -->
<g id="Node000002" class="node">
<title>Node2</title>
<g id="a_Node000002"><a xlink:href="jngl_8hpp.html" target="_top" xlink:title="Includes all JNGL headers except for init.hpp.">
<polygon fill="white" stroke="#666666" points="146.82,-19.25 82.82,-19.25 82.82,0 146.82,0 146.82,-19.25"/>
<text text-anchor="middle" x="114.82" y="-5.75" font-family="ui-monospace,monospace" font-size="10.00">jngl.hpp</text>
</a>
</g>
</g>
<!-- Node1&#45;&gt;Node2 -->
<g id="edge1_Node000001_Node000002" class="edge">
<title>Node1&#45;&gt;Node2</title>
<g id="a_edge1_Node000001_Node000002"><a xlink:title=" ">
<path fill="none" stroke="#63b8ff" d="M40.11,-160.79C16.89,-149.79 -7.05,-132.53 2.82,-110.5 22.32,-66.99 71.17,-34.65 97.45,-19.74"/>
<polygon fill="#63b8ff" stroke="#63b8ff" points="38.66,-163.98 49.22,-164.79 41.47,-157.57 38.66,-163.98"/>
</a>
</g>
</g>
<!-- Node3 -->
<g id="Node000003" class="node">
<title>Node3</title>
<g id="a_Node000003"><a xlink:href="FrameBuffer_8hpp.html" target="_top" xlink:title="Contains jngl::FrameBuffer class.">
<polygon fill="white" stroke="#666666" points="141.82,-129.75 11.82,-129.75 11.82,-110.5 141.82,-110.5 141.82,-129.75"/>
<text text-anchor="middle" x="76.82" y="-116.25" font-family="ui-monospace,monospace" font-size="10.00">jngl/FrameBuffer.hpp</text>
</a>
</g>
</g>
<!-- Node1&#45;&gt;Node3 -->
<g id="edge2_Node000001_Node000003" class="edge">
<title>Node1&#45;&gt;Node3</title>
<g id="a_edge2_Node000001_Node000003"><a xlink:title=" ">
<path fill="none" stroke="#63b8ff" d="M76.82,-154.13C76.82,-145.84 76.82,-136.67 76.82,-130.11"/>
<polygon fill="#63b8ff" stroke="#63b8ff" points="73.32,-154.07 76.82,-164.07 80.32,-154.07 73.32,-154.07"/>
</a>
</g>
</g>
<!-- Node4 -->
<g id="Node000004" class="node">
<title>Node4</title>
<g id="a_Node000004"><a xlink:href="window_8hpp.html" target="_top" xlink:title="Functions related to the main window.">
<polygon fill="white" stroke="#666666" points="265.82,-129.75 159.82,-129.75 159.82,-110.5 265.82,-110.5 265.82,-129.75"/>
<text text-anchor="middle" x="212.82" y="-116.25" font-family="ui-monospace,monospace" font-size="10.00">jngl/window.hpp</text>
</a>
</g>
</g>
<!-- Node1&#45;&gt;Node4 -->
<g id="edge4_Node000001_Node000004" class="edge">
<title>Node1&#45;&gt;Node4</title>
<g id="a_edge4_Node000001_Node000004"><a xlink:title=" ">
<path fill="none" stroke="#63b8ff" d="M110.57,-161.16C135.18,-151.52 167.91,-138.71 189.64,-130.2"/>
<polygon fill="#63b8ff" stroke="#63b8ff" points="109.34,-157.88 101.3,-164.79 111.89,-164.4 109.34,-157.88"/>
</a>
</g>
</g>
<!-- Node3&#45;&gt;Node2 -->
<g id="edge3_Node000003_Node000002" class="edge">
<title>Node3&#45;&gt;Node2</title>
<g id="a_edge3_Node000003_Node000002"><a xlink:title=" ">
<path fill="none" stroke="#63b8ff" d="M83.72,-99.43C92.01,-75.76 105.57,-37.05 111.67,-19.63"/>
<polygon fill="#63b8ff" stroke="#63b8ff" points="80.43,-98.22 80.43,-108.82 87.04,-100.54 80.43,-98.22"/>
</a>
</g>
</g>
<!-- Node4&#45;&gt;Node2 -->
<g id="edge5_Node000004_Node000002" class="edge">
<title>Node4&#45;&gt;Node2</title>
<g id="a_edge5_Node000004_Node000002"><a xlink:title=" ">
<path fill="none" stroke="#63b8ff" d="M176.11,-105.61C161.11,-98.44 144.75,-88.21 133.82,-74.5 120.7,-58.03 116.63,-32.7 115.38,-19.42"/>
<polygon fill="#63b8ff" stroke="#63b8ff" points="174.26,-108.62 184.82,-109.49 177.1,-102.22 174.26,-108.62"/>
</a>
</g>
</g>
<!-- Node5 -->
<g id="Node000005" class="node">
<title>Node5</title>
<g id="a_Node000005"><a xlink:href="Singleton_8hpp.html" target="_top" xlink:title="Contains jngl::Singleton base class.">
<polygon fill="white" stroke="#666666" points="266.82,-74.5 142.82,-74.5 142.82,-55.25 266.82,-55.25 266.82,-74.5"/>
<text text-anchor="middle" x="204.82" y="-61" font-family="ui-monospace,monospace" font-size="10.00">jngl/Singleton.hpp</text>
</a>
</g>
</g>
<!-- Node4&#45;&gt;Node5 -->
<g id="edge6_Node000004_Node000005" class="edge">
<title>Node4&#45;&gt;Node5</title>
<g id="a_edge6_Node000004_Node000005"><a xlink:title=" ">
<path fill="none" stroke="#63b8ff" d="M209.82,-99.17C208.57,-90.8 207.17,-81.5 206.17,-74.86"/>
<polygon fill="#63b8ff" stroke="#63b8ff" points="206.33,-99.47 211.28,-108.84 213.25,-98.43 206.33,-99.47"/>
</a>
</g>
</g>
<!-- Node6 -->
<g id="Node000006" class="node">
<title>Node6</title>
<g id="a_Node000006"><a xlink:href="main_8hpp.html" target="_top" xlink:title="Defines macros for the main entry point.">
<polygon fill="white" stroke="#666666" points="378.82,-74.5 284.82,-74.5 284.82,-55.25 378.82,-55.25 378.82,-74.5"/>
<text text-anchor="middle" x="331.82" y="-61" font-family="ui-monospace,monospace" font-size="10.00">jngl/main.hpp</text>
</a>
</g>
</g>
<!-- Node4&#45;&gt;Node6 -->
<g id="edge8_Node000004_Node000006" class="edge">
<title>Node4&#45;&gt;Node6</title>
<g id="a_edge8_Node000004_Node000006"><a xlink:title=" ">
<path fill="none" stroke="#63b8ff" d="M243.22,-105.52C264.66,-95.93 292.78,-83.34 311.54,-74.95"/>
<polygon fill="#63b8ff" stroke="#63b8ff" points="242.09,-102.19 234.39,-109.47 244.95,-108.58 242.09,-102.19"/>
</a>
</g>
</g>
<!-- Node5&#45;&gt;Node2 -->
<g id="edge7_Node000005_Node000002" class="edge">
<title>Node5&#45;&gt;Node2</title>
<g id="a_edge7_Node000005_Node000002"><a xlink:title=" ">
<path fill="none" stroke="#63b8ff" d="M179.81,-49.07C163.88,-39.65 143.76,-27.75 130.16,-19.7"/>
<polygon fill="#63b8ff" stroke="#63b8ff" points="177.86,-51.99 188.25,-54.07 181.43,-45.97 177.86,-51.99"/>
</a>
</g>
</g>
<!-- Node6&#45;&gt;Node2 -->
<g id="edge9_Node000006_Node000002" class="edge">
<title>Node6&#45;&gt;Node2</title>
<g id="a_edge9_Node000006_Node000002"><a xlink:title=" ">
<path fill="none" stroke="#63b8ff" d="M284.06,-52.15C242.51,-41.96 183.44,-27.46 147.2,-18.57"/>
<polygon fill="#63b8ff" stroke="#63b8ff" points="283,-55.5 293.54,-54.48 284.66,-48.7 283,-55.5"/>
</a>
</g>
</g>
<!-- Node7 -->
<g id="Node000007" class="node">
<title>Node7</title>
<g id="a_Node000007"><a xlink:href="init_8hpp.html" target="_top" xlink:title="Include this file only once, as it defines the main function.">
<polygon fill="white" stroke="#666666" points="378.82,-19.25 284.82,-19.25 284.82,0 378.82,0 378.82,-19.25"/>
<text text-anchor="middle" x="331.82" y="-5.75" font-family="ui-monospace,monospace" font-size="10.00">jngl/init.hpp</text>
</a>
</g>
</g>
<!-- Node6&#45;&gt;Node7 -->
<g id="edge10_Node000006_Node000007" class="edge">
<title>Node6&#45;&gt;Node7</title>
<g id="a_edge10_Node000006_Node000007"><a xlink:title=" ">
<path fill="none" stroke="#63b8ff" d="M331.82,-43.63C331.82,-35.34 331.82,-26.17 331.82,-19.61"/>
<polygon fill="#63b8ff" stroke="#63b8ff" points="328.32,-43.57 331.82,-53.57 335.32,-43.57 328.32,-43.57"/>
</a>
</g>
</g>
</g>
</svg>
