<?xml version="1.0" encoding="UTF-8" standalone="no"?>
<!DOCTYPE svg PUBLIC "-//W3C//DTD SVG 1.1//EN"
 "http://www.w3.org/Graphics/SVG/1.1/DTD/svg11.dtd">
<!-- Generated by graphviz version 5.0.0 (0)
 -->
<!-- Title: jngl/Pixels.hpp Pages: 1 -->
<svg width="390pt" height="247pt"
 viewBox="0.00 0.00 390.37 247.00" xmlns="http://www.w3.org/2000/svg" xmlns:xlink="http://www.w3.org/1999/xlink">
<g id="graph0" class="graph" transform="scale(1 1) rotate(0) translate(4 243)">
<title>jngl/Pixels.hpp</title>
<!-- Node1 -->
<g id="node1" class="node">
<title>Node1</title>
<g id="a_node1"><a xlink:title="Contains jngl::Pixels class.">
<polygon fill="#999999" stroke="#666666" points="131.37,-239 24.37,-239 24.37,-220 131.37,-220 131.37,-239"/>
<text text-anchor="middle" x="77.87" y="-227" font-family="ui-monospace,monospace" font-size="10.00">jngl/Pixels.hpp</text>
</a>
</g>
</g>
<!-- Node2 -->
<g id="node2" class="node">
<title>Node2</title>
<g id="a_node2"><a xlink:href="all_8hpp.html" target="_top" xlink:title="Includes all JNGL headers except for init.hpp.">
<polygon fill="white" stroke="#666666" points="141.37,-74 52.37,-74 52.37,-55 141.37,-55 141.37,-74"/>
<text text-anchor="middle" x="96.87" y="-62" font-family="ui-monospace,monospace" font-size="10.00">jngl/all.hpp</text>
</a>
</g>
</g>
<!-- Node1&#45;&gt;Node2 -->
<g id="edge1" class="edge">
<title>Node1&#45;&gt;Node2</title>
<path fill="none" stroke="#63b8ff" d="M40.84,-215.85C26.32,-208.86 11.17,-198.57 2.87,-184 -1.31,-176.66 -0.25,-172.85 2.87,-165 19.38,-123.49 62.33,-89.28 83.99,-74.04"/>
<polygon fill="#63b8ff" stroke="#63b8ff" points="39.66,-219.15 50.22,-219.98 42.48,-212.75 39.66,-219.15"/>
</g>
<!-- Node4 -->
<g id="node4" class="node">
<title>Node4</title>
<g id="a_node4"><a xlink:href="framebuffer_8hpp.html" target="_top" xlink:title="Contains jngl::FrameBuffer class.">
<polygon fill="white" stroke="#666666" points="143.37,-184 12.37,-184 12.37,-165 143.37,-165 143.37,-184"/>
<text text-anchor="middle" x="77.87" y="-172" font-family="ui-monospace,monospace" font-size="10.00">jngl/framebuffer.hpp</text>
</a>
</g>
</g>
<!-- Node1&#45;&gt;Node4 -->
<g id="edge3" class="edge">
<title>Node1&#45;&gt;Node4</title>
<path fill="none" stroke="#63b8ff" d="M77.87,-209.66C77.87,-200.93 77.87,-190.99 77.87,-184.09"/>
<polygon fill="#63b8ff" stroke="#63b8ff" points="74.37,-209.75 77.87,-219.75 81.37,-209.75 74.37,-209.75"/>
</g>
<!-- Node5 -->
<g id="node5" class="node">
<title>Node5</title>
<g id="a_node5"><a xlink:href="window_8hpp.html" target="_top" xlink:title="Functions related to the main window.">
<polygon fill="white" stroke="#666666" points="268.37,-184 161.37,-184 161.37,-165 268.37,-165 268.37,-184"/>
<text text-anchor="middle" x="214.87" y="-172" font-family="ui-monospace,monospace" font-size="10.00">jngl/window.hpp</text>
</a>
</g>
</g>
<!-- Node1&#45;&gt;Node5 -->
<g id="edge5" class="edge">
<title>Node1&#45;&gt;Node5</title>
<path fill="none" stroke="#63b8ff" d="M109.43,-216.29C134.82,-206.47 169.87,-192.91 192.46,-184.17"/>
<polygon fill="#63b8ff" stroke="#63b8ff" points="107.94,-213.11 99.88,-219.98 110.47,-219.64 107.94,-213.11"/>
</g>
<!-- Node3 -->
<g id="node3" class="node">
<title>Node3</title>
<g id="a_node3"><a xlink:href="jngl_8hpp.html" target="_top" xlink:title="Includes jngl/all.hpp.">
<polygon fill="white" stroke="#666666" points="129.37,-19 64.37,-19 64.37,0 129.37,0 129.37,-19"/>
<text text-anchor="middle" x="96.87" y="-7" font-family="ui-monospace,monospace" font-size="10.00">jngl.hpp</text>
</a>
</g>
</g>
<!-- Node2&#45;&gt;Node3 -->
<g id="edge2" class="edge">
<title>Node2&#45;&gt;Node3</title>
<path fill="none" stroke="#63b8ff" d="M96.87,-44.66C96.87,-35.93 96.87,-25.99 96.87,-19.09"/>
<polygon fill="#63b8ff" stroke="#63b8ff" points="93.37,-44.75 96.87,-54.75 100.37,-44.75 93.37,-44.75"/>
</g>
<!-- Node4&#45;&gt;Node2 -->
<g id="edge4" class="edge">
<title>Node4&#45;&gt;Node2</title>
<path fill="none" stroke="#63b8ff" d="M81.16,-154.8C85.31,-131.2 92.28,-91.58 95.35,-74.16"/>
<polygon fill="#63b8ff" stroke="#63b8ff" points="77.71,-154.21 79.42,-164.66 84.6,-155.42 77.71,-154.21"/>
</g>
<!-- Node5&#45;&gt;Node2 -->
<g id="edge7" class="edge">
<title>Node5&#45;&gt;Node2</title>
<path fill="none" stroke="#63b8ff" d="M183.08,-160.57C167.28,-153.04 148.67,-142.37 134.87,-129 118.08,-112.73 105.95,-87.5 100.35,-74.27"/>
<polygon fill="#63b8ff" stroke="#63b8ff" points="181.93,-163.9 192.48,-164.86 184.83,-157.53 181.93,-163.9"/>
</g>
<!-- Node6 -->
<g id="node6" class="node">
<title>Node6</title>
<g id="a_node6"><a xlink:href="Singleton_8hpp.html" target="_top" xlink:title="Contains jngl::Singleton base class.">
<polygon fill="white" stroke="#666666" points="269.37,-129 144.37,-129 144.37,-110 269.37,-110 269.37,-129"/>
<text text-anchor="middle" x="206.87" y="-117" font-family="ui-monospace,monospace" font-size="10.00">jngl/Singleton.hpp</text>
</a>
</g>
</g>
<!-- Node5&#45;&gt;Node6 -->
<g id="edge6" class="edge">
<title>Node5&#45;&gt;Node6</title>
<path fill="none" stroke="#63b8ff" d="M212.03,-154.66C210.71,-145.93 209.21,-135.99 208.17,-129.09"/>
<polygon fill="#63b8ff" stroke="#63b8ff" points="208.59,-155.38 213.55,-164.75 215.52,-154.34 208.59,-155.38"/>
</g>
<!-- Node7 -->
<g id="node7" class="node">
<title>Node7</title>
<g id="a_node7"><a xlink:href="main_8hpp.html" target="_top" xlink:title="Defines macros for the main entry point.">
<polygon fill="white" stroke="#666666" points="382.37,-129 287.37,-129 287.37,-110 382.37,-110 382.37,-129"/>
<text text-anchor="middle" x="334.87" y="-117" font-family="ui-monospace,monospace" font-size="10.00">jngl/main.hpp</text>
</a>
</g>
</g>
<!-- Node5&#45;&gt;Node7 -->
<g id="edge8" class="edge">
<title>Node5&#45;&gt;Node7</title>
<path fill="none" stroke="#63b8ff" d="M243.4,-160.9C265.57,-151.11 295.72,-137.79 315.24,-129.17"/>
<polygon fill="#63b8ff" stroke="#63b8ff" points="241.88,-157.74 234.15,-164.98 244.71,-164.15 241.88,-157.74"/>
</g>
<!-- Node7&#45;&gt;Node2 -->
<g id="edge9" class="edge">
<title>Node7&#45;&gt;Node2</title>
<path fill="none" stroke="#63b8ff" d="M286.61,-107.75C242.01,-97.82 176.61,-83.26 135.41,-74.08"/>
<polygon fill="#63b8ff" stroke="#63b8ff" points="286.11,-111.23 296.63,-109.98 287.63,-104.39 286.11,-111.23"/>
</g>
<!-- Node8 -->
<g id="node8" class="node">
<title>Node8</title>
<g id="a_node8"><a xlink:href="init_8hpp.html" target="_top" xlink:title="Include this file only once, as it defines the main function.">
<polygon fill="white" stroke="#666666" points="382.37,-74 287.37,-74 287.37,-55 382.37,-55 382.37,-74"/>
<text text-anchor="middle" x="334.87" y="-62" font-family="ui-monospace,monospace" font-size="10.00">jngl/init.hpp</text>
</a>
</g>
</g>
<!-- Node7&#45;&gt;Node8 -->
<g id="edge10" class="edge">
<title>Node7&#45;&gt;Node8</title>
<path fill="none" stroke="#63b8ff" d="M334.87,-99.66C334.87,-90.93 334.87,-80.99 334.87,-74.09"/>
<polygon fill="#63b8ff" stroke="#63b8ff" points="331.37,-99.75 334.87,-109.75 338.37,-99.75 331.37,-99.75"/>
</g>
</g>
</svg>
