<?xml version="1.0" encoding="UTF-8" standalone="no"?>
<!DOCTYPE svg PUBLIC "-//W3C//DTD SVG 1.1//EN"
 "http://www.w3.org/Graphics/SVG/1.1/DTD/svg11.dtd">
<!-- Generated by graphviz version 5.0.0 (0)
 -->
<!-- Title: jngl/Pixels.hpp Pages: 1 -->
<svg width="390pt" height="247pt"
 viewBox="0.00 0.00 389.96 247.00" xmlns="http://www.w3.org/2000/svg" xmlns:xlink="http://www.w3.org/1999/xlink">
<g id="graph0" class="graph" transform="scale(1 1) rotate(0) translate(4 243)">
<title>jngl/Pixels.hpp</title>
<!-- Node1 -->
<g id="node1" class="node">
<title>Node1</title>
<g id="a_node1"><a xlink:title="Contains jngl::Pixels class.">
<polygon fill="#999999" stroke="#666666" points="130.96,-239 23.96,-239 23.96,-220 130.96,-220 130.96,-239"/>
<text text-anchor="middle" x="77.46" y="-227" font-family="ui-monospace,monospace" font-size="10.00">jngl/Pixels.hpp</text>
</a>
</g>
</g>
<!-- Node2 -->
<g id="node2" class="node">
<title>Node2</title>
<g id="a_node2"><a xlink:href="all_8hpp.html" target="_top" xlink:title="Includes all JNGL headers except for init.hpp.">
<polygon fill="white" stroke="#666666" points="159.96,-74 70.96,-74 70.96,-55 159.96,-55 159.96,-74"/>
<text text-anchor="middle" x="115.46" y="-62" font-family="ui-monospace,monospace" font-size="10.00">jngl/all.hpp</text>
</a>
</g>
</g>
<!-- Node1&#45;&gt;Node2 -->
<g id="edge1" class="edge">
<title>Node1&#45;&gt;Node2</title>
<path fill="none" stroke="#63b8ff" d="M41.97,-215.9C17.92,-205.08 -7.78,-187.65 2.46,-165 22.37,-120.93 72.51,-88.59 98.8,-74.05"/>
<polygon fill="#63b8ff" stroke="#63b8ff" points="40.79,-219.21 51.37,-219.86 43.51,-212.75 40.79,-219.21"/>
</g>
<!-- Node4 -->
<g id="node4" class="node">
<title>Node4</title>
<g id="a_node4"><a xlink:href="framebuffer_8hpp.html" target="_top" xlink:title="Contains jngl::FrameBuffer class.">
<polygon fill="white" stroke="#666666" points="142.96,-184 11.96,-184 11.96,-165 142.96,-165 142.96,-184"/>
<text text-anchor="middle" x="77.46" y="-172" font-family="ui-monospace,monospace" font-size="10.00">jngl/framebuffer.hpp</text>
</a>
</g>
</g>
<!-- Node1&#45;&gt;Node4 -->
<g id="edge3" class="edge">
<title>Node1&#45;&gt;Node4</title>
<path fill="none" stroke="#63b8ff" d="M77.46,-209.66C77.46,-200.93 77.46,-190.99 77.46,-184.09"/>
<polygon fill="#63b8ff" stroke="#63b8ff" points="73.96,-209.75 77.46,-219.75 80.96,-209.75 73.96,-209.75"/>
</g>
<!-- Node5 -->
<g id="node5" class="node">
<title>Node5</title>
<g id="a_node5"><a xlink:href="window_8hpp.html" target="_top" xlink:title="Functions related to the main window.">
<polygon fill="white" stroke="#666666" points="267.96,-184 160.96,-184 160.96,-165 267.96,-165 267.96,-184"/>
<text text-anchor="middle" x="214.46" y="-172" font-family="ui-monospace,monospace" font-size="10.00">jngl/window.hpp</text>
</a>
</g>
</g>
<!-- Node1&#45;&gt;Node5 -->
<g id="edge5" class="edge">
<title>Node1&#45;&gt;Node5</title>
<path fill="none" stroke="#63b8ff" d="M109.02,-216.29C134.41,-206.47 169.46,-192.91 192.04,-184.17"/>
<polygon fill="#63b8ff" stroke="#63b8ff" points="107.53,-213.11 99.47,-219.98 110.06,-219.64 107.53,-213.11"/>
</g>
<!-- Node3 -->
<g id="node3" class="node">
<title>Node3</title>
<g id="a_node3"><a xlink:href="jngl_8hpp.html" target="_top" xlink:title="Includes jngl/all.hpp.">
<polygon fill="white" stroke="#666666" points="147.96,-19 82.96,-19 82.96,0 147.96,0 147.96,-19"/>
<text text-anchor="middle" x="115.46" y="-7" font-family="ui-monospace,monospace" font-size="10.00">jngl.hpp</text>
</a>
</g>
</g>
<!-- Node2&#45;&gt;Node3 -->
<g id="edge2" class="edge">
<title>Node2&#45;&gt;Node3</title>
<path fill="none" stroke="#63b8ff" d="M115.46,-44.66C115.46,-35.93 115.46,-25.99 115.46,-19.09"/>
<polygon fill="#63b8ff" stroke="#63b8ff" points="111.96,-44.75 115.46,-54.75 118.96,-44.75 111.96,-44.75"/>
</g>
<!-- Node4&#45;&gt;Node2 -->
<g id="edge4" class="edge">
<title>Node4&#45;&gt;Node2</title>
<path fill="none" stroke="#63b8ff" d="M83.92,-155.12C92.21,-131.56 106.25,-91.66 112.41,-74.16"/>
<polygon fill="#63b8ff" stroke="#63b8ff" points="80.58,-154.07 80.57,-164.66 87.19,-156.39 80.58,-154.07"/>
</g>
<!-- Node5&#45;&gt;Node2 -->
<g id="edge8" class="edge">
<title>Node5&#45;&gt;Node2</title>
<path fill="none" stroke="#63b8ff" d="M178.85,-160.86C163.25,-153.69 145.92,-143.26 134.46,-129 121.34,-112.68 117.27,-87.47 116.01,-74.26"/>
<polygon fill="#63b8ff" stroke="#63b8ff" points="177.7,-164.17 188.27,-164.9 180.46,-157.74 177.7,-164.17"/>
</g>
<!-- Node6 -->
<g id="node6" class="node">
<title>Node6</title>
<g id="a_node6"><a xlink:href="Singleton_8hpp.html" target="_top" xlink:title="Contains jngl::Singleton base class.">
<polygon fill="white" stroke="#666666" points="268.96,-129 143.96,-129 143.96,-110 268.96,-110 268.96,-129"/>
<text text-anchor="middle" x="206.46" y="-117" font-family="ui-monospace,monospace" font-size="10.00">jngl/Singleton.hpp</text>
</a>
</g>
</g>
<!-- Node5&#45;&gt;Node6 -->
<g id="edge6" class="edge">
<title>Node5&#45;&gt;Node6</title>
<path fill="none" stroke="#63b8ff" d="M211.61,-154.66C210.3,-145.93 208.79,-135.99 207.75,-129.09"/>
<polygon fill="#63b8ff" stroke="#63b8ff" points="208.18,-155.38 213.14,-164.75 215.1,-154.34 208.18,-155.38"/>
</g>
<!-- Node7 -->
<g id="node7" class="node">
<title>Node7</title>
<g id="a_node7"><a xlink:href="main_8hpp.html" target="_top" xlink:title="Defines macros for the main entry point.">
<polygon fill="white" stroke="#666666" points="381.96,-129 286.96,-129 286.96,-110 381.96,-110 381.96,-129"/>
<text text-anchor="middle" x="334.46" y="-117" font-family="ui-monospace,monospace" font-size="10.00">jngl/main.hpp</text>
</a>
</g>
</g>
<!-- Node5&#45;&gt;Node7 -->
<g id="edge9" class="edge">
<title>Node5&#45;&gt;Node7</title>
<path fill="none" stroke="#63b8ff" d="M242.99,-160.9C265.15,-151.11 295.31,-137.79 314.83,-129.17"/>
<polygon fill="#63b8ff" stroke="#63b8ff" points="241.47,-157.74 233.74,-164.98 244.3,-164.15 241.47,-157.74"/>
</g>
<!-- Node6&#45;&gt;Node2 -->
<g id="edge7" class="edge">
<title>Node6&#45;&gt;Node2</title>
<path fill="none" stroke="#63b8ff" d="M182.75,-104.7C166.18,-95.04 144.55,-82.44 130.34,-74.17"/>
<polygon fill="#63b8ff" stroke="#63b8ff" points="181.43,-107.98 191.84,-109.98 184.96,-101.93 181.43,-107.98"/>
</g>
<!-- Node7&#45;&gt;Node2 -->
<g id="edge10" class="edge">
<title>Node7&#45;&gt;Node2</title>
<path fill="none" stroke="#63b8ff" d="M289.53,-107.63C248.51,-97.7 188.67,-83.22 150.92,-74.08"/>
<polygon fill="#63b8ff" stroke="#63b8ff" points="288.73,-111.03 299.27,-109.98 290.37,-104.23 288.73,-111.03"/>
</g>
<!-- Node8 -->
<g id="node8" class="node">
<title>Node8</title>
<g id="a_node8"><a xlink:href="init_8hpp.html" target="_top" xlink:title="Include this file only once, as it defines the main function.">
<polygon fill="white" stroke="#666666" points="381.96,-74 286.96,-74 286.96,-55 381.96,-55 381.96,-74"/>
<text text-anchor="middle" x="334.46" y="-62" font-family="ui-monospace,monospace" font-size="10.00">jngl/init.hpp</text>
</a>
</g>
</g>
<!-- Node7&#45;&gt;Node8 -->
<g id="edge11" class="edge">
<title>Node7&#45;&gt;Node8</title>
<path fill="none" stroke="#63b8ff" d="M334.46,-99.66C334.46,-90.93 334.46,-80.99 334.46,-74.09"/>
<polygon fill="#63b8ff" stroke="#63b8ff" points="330.96,-99.75 334.46,-109.75 337.96,-99.75 330.96,-99.75"/>
</g>
</g>
</svg>
