<?xml version="1.0" encoding="UTF-8" standalone="no"?>
<!DOCTYPE svg PUBLIC "-//W3C//DTD SVG 1.1//EN"
 "http://www.w3.org/Graphics/SVG/1.1/DTD/svg11.dtd">
<!-- Generated by graphviz version 2.43.0 (0)
 -->
<!-- Title: jngl/Pixels.hpp Pages: 1 -->
<svg width="314pt" height="252pt"
 viewBox="0.00 0.00 313.66 252.00" xmlns="http://www.w3.org/2000/svg" xmlns:xlink="http://www.w3.org/1999/xlink">
<g id="graph0" class="graph" transform="scale(1 1) rotate(0) translate(4 248)">
<title>jngl/Pixels.hpp</title>
<polygon fill="white" stroke="transparent" points="-4,4 -4,-248 309.66,-248 309.66,4 -4,4"/>
<!-- Node1 -->
<g id="node1" class="node">
<title>Node1</title>
<g id="a_node1"><a xlink:title="Contains jngl::Pixels class.">
<polygon fill="#bfbfbf" stroke="black" points="31.66,-224.5 31.66,-243.5 138.66,-243.5 138.66,-224.5 31.66,-224.5"/>
<text text-anchor="middle" x="85.16" y="-231.5" font-family="'Consolas',monospace" font-size="10.00">jngl/Pixels.hpp</text>
</a>
</g>
</g>
<!-- Node2 -->
<g id="node2" class="node">
<title>Node2</title>
<g id="a_node2"><a xlink:href="all_8hpp.html" target="_top" xlink:title="Includes all JNGL headers except for init.hpp.">
<polygon fill="white" stroke="black" points="72.66,-56.5 72.66,-75.5 161.66,-75.5 161.66,-56.5 72.66,-56.5"/>
<text text-anchor="middle" x="117.16" y="-63.5" font-family="'Consolas',monospace" font-size="10.00">jngl/all.hpp</text>
</a>
</g>
</g>
<!-- Node1&#45;&gt;Node2 -->
<g id="edge1" class="edge">
<title>Node1&#45;&gt;Node2</title>
<path fill="none" stroke="midnightblue" d="M63.5,-218.34C32.45,-195.46 -18.33,-149.96 7.16,-112 21.77,-90.24 48.95,-79 72.64,-73.19"/>
<polygon fill="midnightblue" stroke="midnightblue" points="61.86,-221.46 72.03,-224.42 65.92,-215.76 61.86,-221.46"/>
</g>
<!-- Node4 -->
<g id="node4" class="node">
<title>Node4</title>
<g id="a_node4"><a xlink:href="framebuffer_8hpp.html" target="_top" xlink:title="Contains jngl::FrameBuffer class.">
<polygon fill="white" stroke="black" points="16.66,-112.5 16.66,-131.5 153.66,-131.5 153.66,-112.5 16.66,-112.5"/>
<text text-anchor="middle" x="85.16" y="-119.5" font-family="'Consolas',monospace" font-size="10.00">jngl/framebuffer.hpp</text>
</a>
</g>
</g>
<!-- Node1&#45;&gt;Node4 -->
<g id="edge3" class="edge">
<title>Node1&#45;&gt;Node4</title>
<path fill="none" stroke="midnightblue" d="M85.16,-214.35C85.16,-190.25 85.16,-149.31 85.16,-131.59"/>
<polygon fill="midnightblue" stroke="midnightblue" points="81.66,-214.37 85.16,-224.37 88.66,-214.37 81.66,-214.37"/>
</g>
<!-- Node5 -->
<g id="node5" class="node">
<title>Node5</title>
<g id="a_node5"><a xlink:href="window_8hpp.html" target="_top" xlink:title="Functions related to the main window.">
<polygon fill="white" stroke="black" points="128.66,-168.5 128.66,-187.5 235.66,-187.5 235.66,-168.5 128.66,-168.5"/>
<text text-anchor="middle" x="182.16" y="-175.5" font-family="'Consolas',monospace" font-size="10.00">jngl/window.hpp</text>
</a>
</g>
</g>
<!-- Node1&#45;&gt;Node5 -->
<g id="edge5" class="edge">
<title>Node1&#45;&gt;Node5</title>
<path fill="none" stroke="midnightblue" d="M109.5,-219.45C127.4,-209.48 151.21,-196.23 166.61,-187.65"/>
<polygon fill="midnightblue" stroke="midnightblue" points="107.78,-216.4 100.74,-224.32 111.18,-222.52 107.78,-216.4"/>
</g>
<!-- Node3 -->
<g id="node3" class="node">
<title>Node3</title>
<g id="a_node3"><a xlink:href="jngl_8hpp.html" target="_top" xlink:title="Includes jngl/all.hpp.">
<polygon fill="white" stroke="black" points="84.66,-0.5 84.66,-19.5 149.66,-19.5 149.66,-0.5 84.66,-0.5"/>
<text text-anchor="middle" x="117.16" y="-7.5" font-family="'Consolas',monospace" font-size="10.00">jngl.hpp</text>
</a>
</g>
</g>
<!-- Node2&#45;&gt;Node3 -->
<g id="edge2" class="edge">
<title>Node2&#45;&gt;Node3</title>
<path fill="none" stroke="midnightblue" d="M117.16,-45.8C117.16,-36.91 117.16,-26.78 117.16,-19.75"/>
<polygon fill="midnightblue" stroke="midnightblue" points="113.66,-46.08 117.16,-56.08 120.66,-46.08 113.66,-46.08"/>
</g>
<!-- Node4&#45;&gt;Node2 -->
<g id="edge4" class="edge">
<title>Node4&#45;&gt;Node2</title>
<path fill="none" stroke="midnightblue" d="M95.66,-103.27C101.13,-94.05 107.58,-83.17 111.97,-75.75"/>
<polygon fill="midnightblue" stroke="midnightblue" points="92.53,-101.7 90.44,-112.08 98.55,-105.26 92.53,-101.7"/>
</g>
<!-- Node5&#45;&gt;Node2 -->
<g id="edge6" class="edge">
<title>Node5&#45;&gt;Node2</title>
<path fill="none" stroke="midnightblue" d="M179.33,-158.38C176.67,-144.8 171.76,-126.33 163.16,-112 154.31,-97.25 139.46,-83.96 129.03,-75.71"/>
<polygon fill="midnightblue" stroke="midnightblue" points="175.92,-159.19 181.07,-168.45 182.82,-158 175.92,-159.19"/>
</g>
<!-- Node6 -->
<g id="node6" class="node">
<title>Node6</title>
<g id="a_node6"><a xlink:href="main_8hpp.html" target="_top" xlink:title="Defines macros for the main entry point.">
<polygon fill="white" stroke="black" points="210.66,-112.5 210.66,-131.5 305.66,-131.5 305.66,-112.5 210.66,-112.5"/>
<text text-anchor="middle" x="258.16" y="-119.5" font-family="'Consolas',monospace" font-size="10.00">jngl/main.hpp</text>
</a>
</g>
</g>
<!-- Node5&#45;&gt;Node6 -->
<g id="edge7" class="edge">
<title>Node5&#45;&gt;Node6</title>
<path fill="none" stroke="midnightblue" d="M202.74,-162.38C216.47,-152.62 234.09,-140.11 245.73,-131.83"/>
<polygon fill="midnightblue" stroke="midnightblue" points="200.5,-159.68 194.37,-168.32 204.55,-165.38 200.5,-159.68"/>
</g>
<!-- Node6&#45;&gt;Node2 -->
<g id="edge8" class="edge">
<title>Node6&#45;&gt;Node2</title>
<path fill="none" stroke="midnightblue" d="M226.23,-108.77C199.75,-98.63 162.77,-84.47 139.4,-75.52"/>
<polygon fill="midnightblue" stroke="midnightblue" points="225.23,-112.14 235.82,-112.44 227.73,-105.6 225.23,-112.14"/>
</g>
<!-- Node7 -->
<g id="node7" class="node">
<title>Node7</title>
<g id="a_node7"><a xlink:href="init_8hpp.html" target="_top" xlink:title="Include this file only once, as it defines the main function.">
<polygon fill="white" stroke="black" points="210.66,-56.5 210.66,-75.5 305.66,-75.5 305.66,-56.5 210.66,-56.5"/>
<text text-anchor="middle" x="258.16" y="-63.5" font-family="'Consolas',monospace" font-size="10.00">jngl/init.hpp</text>
</a>
</g>
</g>
<!-- Node6&#45;&gt;Node7 -->
<g id="edge9" class="edge">
<title>Node6&#45;&gt;Node7</title>
<path fill="none" stroke="midnightblue" d="M258.16,-101.8C258.16,-92.91 258.16,-82.78 258.16,-75.75"/>
<polygon fill="midnightblue" stroke="midnightblue" points="254.66,-102.08 258.16,-112.08 261.66,-102.08 254.66,-102.08"/>
</g>
</g>
</svg>
