<?xml version="1.0" encoding="UTF-8" standalone="no"?>
<!DOCTYPE svg PUBLIC "-//W3C//DTD SVG 1.1//EN"
 "http://www.w3.org/Graphics/SVG/1.1/DTD/svg11.dtd">
<!-- Generated by graphviz version 2.44.0 (0)
 -->
<!-- Title: jngl/Pixels.hpp Pages: 1 -->
<svg width="308pt" height="252pt"
 viewBox="0.00 0.00 307.55 252.00" xmlns="http://www.w3.org/2000/svg" xmlns:xlink="http://www.w3.org/1999/xlink">
<g id="graph0" class="graph" transform="scale(1 1) rotate(0) translate(4 248)">
<title>jngl/Pixels.hpp</title>
<polygon fill="white" stroke="transparent" points="-4,4 -4,-248 303.55,-248 303.55,4 -4,4"/>
<!-- Node1 -->
<g id="node1" class="node">
<title>Node1</title>
<g id="a_node1"><a xlink:title="Contains jngl::Pixels class.">
<polygon fill="#bfbfbf" stroke="black" points="28.55,-224.5 28.55,-243.5 135.55,-243.5 135.55,-224.5 28.55,-224.5"/>
<text text-anchor="middle" x="82.05" y="-231.5" font-family="'Consolas',monospace" font-size="10.00">jngl/Pixels.hpp</text>
</a>
</g>
</g>
<!-- Node2 -->
<g id="node2" class="node">
<title>Node2</title>
<g id="a_node2"><a xlink:href="all_8hpp.html" target="_top" xlink:title="Includes all JNGL headers except for init.hpp.">
<polygon fill="white" stroke="black" points="67.55,-56.5 67.55,-75.5 156.55,-75.5 156.55,-56.5 67.55,-56.5"/>
<text text-anchor="middle" x="112.05" y="-63.5" font-family="'Consolas',monospace" font-size="10.00">jngl/all.hpp</text>
</a>
</g>
</g>
<!-- Node1&#45;&gt;Node2 -->
<g id="edge1" class="edge">
<title>Node1&#45;&gt;Node2</title>
<path fill="none" stroke="midnightblue" d="M61.13,-218.28C31.14,-195.34 -17.84,-149.75 7.05,-112 20.48,-91.63 45.24,-80.45 67.35,-74.33"/>
<polygon fill="midnightblue" stroke="midnightblue" points="59.24,-221.24 69.36,-224.39 63.41,-215.62 59.24,-221.24"/>
</g>
<!-- Node4 -->
<g id="node4" class="node">
<title>Node4</title>
<g id="a_node4"><a xlink:href="framebuffer_8hpp.html" target="_top" xlink:title="Contains jngl::FrameBuffer class.">
<polygon fill="white" stroke="black" points="16.55,-112.5 16.55,-131.5 147.55,-131.5 147.55,-112.5 16.55,-112.5"/>
<text text-anchor="middle" x="82.05" y="-119.5" font-family="'Consolas',monospace" font-size="10.00">jngl/framebuffer.hpp</text>
</a>
</g>
</g>
<!-- Node1&#45;&gt;Node4 -->
<g id="edge3" class="edge">
<title>Node1&#45;&gt;Node4</title>
<path fill="none" stroke="midnightblue" d="M82.05,-214.35C82.05,-190.25 82.05,-149.31 82.05,-131.59"/>
<polygon fill="midnightblue" stroke="midnightblue" points="78.55,-214.37 82.05,-224.37 85.55,-214.37 78.55,-214.37"/>
</g>
<!-- Node5 -->
<g id="node5" class="node">
<title>Node5</title>
<g id="a_node5"><a xlink:href="window_8hpp.html" target="_top" xlink:title="Functions related to the main window.">
<polygon fill="white" stroke="black" points="122.55,-168.5 122.55,-187.5 229.55,-187.5 229.55,-168.5 122.55,-168.5"/>
<text text-anchor="middle" x="176.05" y="-175.5" font-family="'Consolas',monospace" font-size="10.00">jngl/window.hpp</text>
</a>
</g>
</g>
<!-- Node1&#45;&gt;Node5 -->
<g id="edge5" class="edge">
<title>Node1&#45;&gt;Node5</title>
<path fill="none" stroke="midnightblue" d="M106.11,-219.18C123.41,-209.24 146.2,-196.15 160.98,-187.65"/>
<polygon fill="midnightblue" stroke="midnightblue" points="104.08,-216.31 97.15,-224.32 107.56,-222.38 104.08,-216.31"/>
</g>
<!-- Node3 -->
<g id="node3" class="node">
<title>Node3</title>
<g id="a_node3"><a xlink:href="jngl_8hpp.html" target="_top" xlink:title="Includes jngl/all.hpp.">
<polygon fill="white" stroke="black" points="79.55,-0.5 79.55,-19.5 144.55,-19.5 144.55,-0.5 79.55,-0.5"/>
<text text-anchor="middle" x="112.05" y="-7.5" font-family="'Consolas',monospace" font-size="10.00">jngl.hpp</text>
</a>
</g>
</g>
<!-- Node2&#45;&gt;Node3 -->
<g id="edge2" class="edge">
<title>Node2&#45;&gt;Node3</title>
<path fill="none" stroke="midnightblue" d="M112.05,-45.8C112.05,-36.91 112.05,-26.78 112.05,-19.75"/>
<polygon fill="midnightblue" stroke="midnightblue" points="108.55,-46.08 112.05,-56.08 115.55,-46.08 108.55,-46.08"/>
</g>
<!-- Node4&#45;&gt;Node2 -->
<g id="edge4" class="edge">
<title>Node4&#45;&gt;Node2</title>
<path fill="none" stroke="midnightblue" d="M91.89,-103.27C97.02,-94.05 103.06,-83.17 107.19,-75.75"/>
<polygon fill="midnightblue" stroke="midnightblue" points="88.8,-101.64 87,-112.08 94.92,-105.04 88.8,-101.64"/>
</g>
<!-- Node5&#45;&gt;Node2 -->
<g id="edge6" class="edge">
<title>Node5&#45;&gt;Node2</title>
<path fill="none" stroke="midnightblue" d="M173.17,-158.41C170.49,-144.84 165.57,-126.38 157.05,-112 148.37,-97.36 133.85,-84.05 123.66,-75.77"/>
<polygon fill="midnightblue" stroke="midnightblue" points="169.76,-159.22 174.94,-168.46 176.66,-158.01 169.76,-159.22"/>
</g>
<!-- Node6 -->
<g id="node6" class="node">
<title>Node6</title>
<g id="a_node6"><a xlink:href="main_8hpp.html" target="_top" xlink:title="Defines macros for the main entry point.">
<polygon fill="white" stroke="black" points="204.55,-112.5 204.55,-131.5 299.55,-131.5 299.55,-112.5 204.55,-112.5"/>
<text text-anchor="middle" x="252.05" y="-119.5" font-family="'Consolas',monospace" font-size="10.00">jngl/main.hpp</text>
</a>
</g>
</g>
<!-- Node5&#45;&gt;Node6 -->
<g id="edge7" class="edge">
<title>Node5&#45;&gt;Node6</title>
<path fill="none" stroke="midnightblue" d="M196.62,-162.38C210.36,-152.62 227.97,-140.11 239.61,-131.83"/>
<polygon fill="midnightblue" stroke="midnightblue" points="194.38,-159.68 188.26,-168.32 198.44,-165.38 194.38,-159.68"/>
</g>
<!-- Node6&#45;&gt;Node2 -->
<g id="edge8" class="edge">
<title>Node6&#45;&gt;Node2</title>
<path fill="none" stroke="midnightblue" d="M220.35,-108.77C194.05,-98.63 157.33,-84.47 134.13,-75.52"/>
<polygon fill="midnightblue" stroke="midnightblue" points="219.27,-112.11 229.86,-112.44 221.79,-105.58 219.27,-112.11"/>
</g>
<!-- Node7 -->
<g id="node7" class="node">
<title>Node7</title>
<g id="a_node7"><a xlink:href="init_8hpp.html" target="_top" xlink:title="Include this file only once, as it defines the main function.">
<polygon fill="white" stroke="black" points="204.55,-56.5 204.55,-75.5 299.55,-75.5 299.55,-56.5 204.55,-56.5"/>
<text text-anchor="middle" x="252.05" y="-63.5" font-family="'Consolas',monospace" font-size="10.00">jngl/init.hpp</text>
</a>
</g>
</g>
<!-- Node6&#45;&gt;Node7 -->
<g id="edge9" class="edge">
<title>Node6&#45;&gt;Node7</title>
<path fill="none" stroke="midnightblue" d="M252.05,-101.8C252.05,-92.91 252.05,-82.78 252.05,-75.75"/>
<polygon fill="midnightblue" stroke="midnightblue" points="248.55,-102.08 252.05,-112.08 255.55,-102.08 248.55,-102.08"/>
</g>
</g>
</svg>
