<?xml version="1.0" encoding="UTF-8" standalone="no"?>
<!DOCTYPE svg PUBLIC "-//W3C//DTD SVG 1.1//EN"
 "http://www.w3.org/Graphics/SVG/1.1/DTD/svg11.dtd">
<!-- Generated by graphviz version 9.0.0 (20230911.1827)
 -->
<!-- Title: jngl/Rect.hpp Pages: 1 -->
<svg width="332pt" height="138pt"
 viewBox="0.00 0.00 332.00 137.75" xmlns="http://www.w3.org/2000/svg" xmlns:xlink="http://www.w3.org/1999/xlink">
<g id="graph0" class="graph" transform="scale(1 1) rotate(0) translate(4 133.75)">
<title>jngl/Rect.hpp</title>
<!-- Node1 -->
<g id="Node000001" class="node">
<title>Node1</title>
<g id="a_Node000001"><a xlink:title="Contains jngl::Rect class.">
<polygon fill="#999999" stroke="#666666" points="239,-129.75 145,-129.75 145,-110.5 239,-110.5 239,-129.75"/>
<text text-anchor="middle" x="192" y="-116.25" font-family="ui-monospace,monospace" font-size="10.00">jngl/Rect.hpp</text>
</a>
</g>
</g>
<!-- Node2 -->
<g id="Node000002" class="node">
<title>Node2</title>
<g id="a_Node000002"><a xlink:href="Mat3_8hpp.html" target="_top" xlink:title="Contains jngl::Mat3 class.">
<polygon fill="white" stroke="#666666" points="183,-74.5 119,-74.5 119,-55.25 183,-55.25 183,-74.5"/>
<text text-anchor="middle" x="151" y="-61" font-family="ui-monospace,monospace" font-size="10.00">Mat3.hpp</text>
</a>
</g>
</g>
<!-- Node1&#45;&gt;Node2 -->
<g id="edge1_Node000001_Node000002" class="edge">
<title>Node1&#45;&gt;Node2</title>
<g id="a_edge1_Node000001_Node000002"><a xlink:title=" ">
<path fill="none" stroke="#63b8ff" d="M185.23,-110.33C179.68,-103.13 171.66,-92.71 164.77,-83.76"/>
<polygon fill="#63b8ff" stroke="#63b8ff" points="167.71,-81.85 158.84,-76.06 162.17,-86.12 167.71,-81.85"/>
</a>
</g>
</g>
<!-- Node5 -->
<g id="Node000005" class="node">
<title>Node5</title>
<g id="a_Node000005"><a xlink:href="Vec2_8hpp.html" target="_top" xlink:title="Contains jngl::Vec2 class.">
<polygon fill="white" stroke="#666666" points="265,-74.5 201,-74.5 201,-55.25 265,-55.25 265,-74.5"/>
<text text-anchor="middle" x="233" y="-61" font-family="ui-monospace,monospace" font-size="10.00">Vec2.hpp</text>
</a>
</g>
</g>
<!-- Node1&#45;&gt;Node5 -->
<g id="edge4_Node000001_Node000005" class="edge">
<title>Node1&#45;&gt;Node5</title>
<g id="a_edge4_Node000001_Node000005"><a xlink:title=" ">
<path fill="none" stroke="#63b8ff" d="M198.77,-110.33C204.32,-103.13 212.34,-92.71 219.23,-83.76"/>
<polygon fill="#63b8ff" stroke="#63b8ff" points="221.83,-86.12 225.16,-76.06 216.29,-81.85 221.83,-86.12"/>
</a>
</g>
</g>
<!-- Node3 -->
<g id="Node000003" class="node">
<title>Node3</title>
<g id="a_Node000003"><a xlink:title=" ">
<polygon fill="#e0e0e0" stroke="#999999" points="254,-19.25 130,-19.25 130,0 254,0 254,-19.25"/>
<text text-anchor="middle" x="192" y="-5.75" font-family="ui-monospace,monospace" font-size="10.00">boost/qvm_lite.hpp</text>
</a>
</g>
</g>
<!-- Node2&#45;&gt;Node3 -->
<g id="edge2_Node000002_Node000003" class="edge">
<title>Node2&#45;&gt;Node3</title>
<g id="a_edge2_Node000002_Node000003"><a xlink:title=" ">
<path fill="none" stroke="#63b8ff" d="M157.77,-55.08C163.32,-47.88 171.34,-37.46 178.23,-28.51"/>
<polygon fill="#63b8ff" stroke="#63b8ff" points="180.83,-30.87 184.16,-20.81 175.29,-26.6 180.83,-30.87"/>
</a>
</g>
</g>
<!-- Node4 -->
<g id="Node000004" class="node">
<title>Node4</title>
<g id="a_Node000004"><a target="_parent" xlink:href="http://en.cppreference.com/w/cpp/header/initializer_list.html" xlink:title=" ">
<polygon fill="white" stroke="#666666" points="112,-19.25 0,-19.25 0,0 112,0 112,-19.25"/>
<text text-anchor="middle" x="56" y="-5.75" font-family="ui-monospace,monospace" font-size="10.00">initializer_list</text>
</a>
</g>
</g>
<!-- Node2&#45;&gt;Node4 -->
<g id="edge3_Node000002_Node000004" class="edge">
<title>Node2&#45;&gt;Node4</title>
<g id="a_edge3_Node000002_Node000004"><a xlink:title=" ">
<path fill="none" stroke="#63b8ff" d="M134.88,-54.84C120.42,-46.73 98.92,-34.68 82.02,-25.21"/>
<polygon fill="#63b8ff" stroke="#63b8ff" points="83.95,-22.28 73.51,-20.44 80.53,-28.39 83.95,-22.28"/>
</a>
</g>
</g>
<!-- Node5&#45;&gt;Node3 -->
<g id="edge5_Node000005_Node000003" class="edge">
<title>Node5&#45;&gt;Node3</title>
<g id="a_edge5_Node000005_Node000003"><a xlink:title=" ">
<path fill="none" stroke="#63b8ff" d="M226.23,-55.08C220.68,-47.88 212.66,-37.46 205.77,-28.51"/>
<polygon fill="#63b8ff" stroke="#63b8ff" points="208.71,-26.6 199.84,-20.81 203.17,-30.87 208.71,-26.6"/>
</a>
</g>
</g>
<!-- Node6 -->
<g id="Node000006" class="node">
<title>Node6</title>
<g id="a_Node000006"><a target="_parent" xlink:href="http://en.cppreference.com/w/cpp/header/iosfwd.html" xlink:title=" ">
<polygon fill="white" stroke="#666666" points="324,-19.25 272,-19.25 272,0 324,0 324,-19.25"/>
<text text-anchor="middle" x="298" y="-5.75" font-family="ui-monospace,monospace" font-size="10.00">iosfwd</text>
</a>
</g>
</g>
<!-- Node5&#45;&gt;Node6 -->
<g id="edge6_Node000005_Node000006" class="edge">
<title>Node5&#45;&gt;Node6</title>
<g id="a_edge6_Node000005_Node000006"><a xlink:title=" ">
<path fill="none" stroke="#63b8ff" d="M244.03,-54.84C253.42,-47.15 267.15,-35.9 278.41,-26.68"/>
<polygon fill="#63b8ff" stroke="#63b8ff" points="280.45,-29.53 285.97,-20.48 276.01,-24.11 280.45,-29.53"/>
</a>
</g>
</g>
</g>
</svg>
