<?xml version="1.0" encoding="UTF-8" standalone="no"?>
<!DOCTYPE svg PUBLIC "-//W3C//DTD SVG 1.1//EN"
 "http://www.w3.org/Graphics/SVG/1.1/DTD/svg11.dtd">
<!-- Generated by graphviz version 5.0.0 (0)
 -->
<!-- Title: jngl/Rgb.hpp Pages: 1 -->
<svg width="633pt" height="192pt"
 viewBox="0.00 0.00 632.62 192.00" xmlns="http://www.w3.org/2000/svg" xmlns:xlink="http://www.w3.org/1999/xlink">
<g id="graph0" class="graph" transform="scale(1 1) rotate(0) translate(4 188)">
<title>jngl/Rgb.hpp</title>
<!-- Node1 -->
<g id="node1" class="node">
<title>Node1</title>
<g id="a_node1"><a xlink:title="Contains jngl::Rgb class.">
<polygon fill="#999999" stroke="#666666" points="348.62,-184 259.62,-184 259.62,-165 348.62,-165 348.62,-184"/>
<text text-anchor="middle" x="304.12" y="-172" font-family="ui-monospace,monospace" font-size="10.00">jngl/Rgb.hpp</text>
</a>
</g>
</g>
<!-- Node2 -->
<g id="node2" class="node">
<title>Node2</title>
<g id="a_node2"><a xlink:href="jngl_8hpp.html" target="_top" xlink:title="Includes all JNGL headers except for init.hpp.">
<polygon fill="white" stroke="#666666" points="321.62,-19 256.62,-19 256.62,0 321.62,0 321.62,-19"/>
<text text-anchor="middle" x="289.12" y="-7" font-family="ui-monospace,monospace" font-size="10.00">jngl.hpp</text>
</a>
</g>
</g>
<!-- Node1&#45;&gt;Node2 -->
<g id="edge1" class="edge">
<title>Node1&#45;&gt;Node2</title>
<path fill="none" stroke="#63b8ff" d="M249.43,-170.16C147.71,-161.99 -54.3,-135.38 14.12,-55 44.92,-18.82 190.46,-11.96 256.45,-10.73"/>
<polygon fill="#63b8ff" stroke="#63b8ff" points="249.3,-173.66 259.54,-170.94 249.83,-166.68 249.3,-173.66"/>
</g>
<!-- Node3 -->
<g id="node3" class="node">
<title>Node3</title>
<g id="a_node3"><a xlink:href="Color_8hpp.html" target="_top" xlink:title="Contains jngl::Color class.">
<polygon fill="white" stroke="#666666" points="296.62,-129 195.62,-129 195.62,-110 296.62,-110 296.62,-129"/>
<text text-anchor="middle" x="246.12" y="-117" font-family="ui-monospace,monospace" font-size="10.00">jngl/Color.hpp</text>
</a>
</g>
</g>
<!-- Node1&#45;&gt;Node3 -->
<g id="edge2" class="edge">
<title>Node1&#45;&gt;Node3</title>
<path fill="none" stroke="#63b8ff" d="M287.21,-158.04C276.92,-148.64 264.15,-136.98 255.61,-129.17"/>
<polygon fill="#63b8ff" stroke="#63b8ff" points="285.06,-160.82 294.8,-164.98 289.78,-155.66 285.06,-160.82"/>
</g>
<!-- Node8 -->
<g id="node8" class="node">
<title>Node8</title>
<g id="a_node8"><a xlink:href="Rgba_8hpp.html" target="_top" xlink:title="Contains jngl::Rgba class.">
<polygon fill="white" stroke="#666666" points="469.62,-129 374.62,-129 374.62,-110 469.62,-110 469.62,-129"/>
<text text-anchor="middle" x="422.12" y="-117" font-family="ui-monospace,monospace" font-size="10.00">jngl/Rgba.hpp</text>
</a>
</g>
</g>
<!-- Node1&#45;&gt;Node8 -->
<g id="edge12" class="edge">
<title>Node1&#45;&gt;Node8</title>
<path fill="none" stroke="#63b8ff" d="M332.47,-160.77C354.24,-150.99 383.71,-137.75 402.81,-129.17"/>
<polygon fill="#63b8ff" stroke="#63b8ff" points="330.77,-157.69 323.08,-164.98 333.63,-164.08 330.77,-157.69"/>
</g>
<!-- Node9 -->
<g id="node9" class="node">
<title>Node9</title>
<g id="a_node9"><a xlink:href="sprite_8hpp.html" target="_top" xlink:title="Contains jngl::Sprite class and related functions.">
<polygon fill="white" stroke="#666666" points="624.62,-129 517.62,-129 517.62,-110 624.62,-110 624.62,-129"/>
<text text-anchor="middle" x="571.12" y="-117" font-family="ui-monospace,monospace" font-size="10.00">jngl/sprite.hpp</text>
</a>
</g>
</g>
<!-- Node1&#45;&gt;Node9 -->
<g id="edge14" class="edge">
<title>Node1&#45;&gt;Node9</title>
<path fill="none" stroke="#63b8ff" d="M357,-163C407.05,-153.07 481.27,-138.33 527.88,-129.08"/>
<polygon fill="#63b8ff" stroke="#63b8ff" points="356.14,-159.6 347.02,-164.98 357.51,-166.47 356.14,-159.6"/>
</g>
<!-- Node3&#45;&gt;Node2 -->
<g id="edge3" class="edge">
<title>Node3&#45;&gt;Node2</title>
<path fill="none" stroke="#63b8ff" d="M185.55,-114.92C126.42,-110 42.45,-98.77 22.12,-74 16.76,-67.47 16.66,-61.44 22.12,-55 51.81,-19.95 191.87,-12.48 256.4,-10.91"/>
<polygon fill="#63b8ff" stroke="#63b8ff" points="185.3,-118.41 195.55,-115.71 185.85,-111.43 185.3,-118.41"/>
</g>
<!-- Node4 -->
<g id="node4" class="node">
<title>Node4</title>
<g id="a_node4"><a xlink:href="FrameBuffer_8hpp.html" target="_top" xlink:title="Contains jngl::FrameBuffer class.">
<polygon fill="white" stroke="#666666" points="162.62,-74 31.62,-74 31.62,-55 162.62,-55 162.62,-74"/>
<text text-anchor="middle" x="97.12" y="-62" font-family="ui-monospace,monospace" font-size="10.00">jngl/FrameBuffer.hpp</text>
</a>
</g>
</g>
<!-- Node3&#45;&gt;Node4 -->
<g id="edge4" class="edge">
<title>Node3&#45;&gt;Node4</title>
<path fill="none" stroke="#63b8ff" d="M212.52,-106.55C184.85,-96.71 146.27,-82.98 121.49,-74.17"/>
<polygon fill="#63b8ff" stroke="#63b8ff" points="211.58,-109.93 222.18,-109.98 213.93,-103.34 211.58,-109.93"/>
</g>
<!-- Node5 -->
<g id="node5" class="node">
<title>Node5</title>
<g id="a_node5"><a xlink:href="Label_8hpp.html" target="_top" xlink:title="Contains jngl::Label class.">
<polygon fill="white" stroke="#666666" points="281.62,-74 180.62,-74 180.62,-55 281.62,-55 281.62,-74"/>
<text text-anchor="middle" x="231.12" y="-62" font-family="ui-monospace,monospace" font-size="10.00">jngl/Label.hpp</text>
</a>
</g>
</g>
<!-- Node3&#45;&gt;Node5 -->
<g id="edge6" class="edge">
<title>Node3&#45;&gt;Node5</title>
<path fill="none" stroke="#63b8ff" d="M240.87,-99.95C238.38,-91.15 235.52,-81.06 233.55,-74.09"/>
<polygon fill="#63b8ff" stroke="#63b8ff" points="237.55,-101.08 243.64,-109.75 244.29,-99.17 237.55,-101.08"/>
</g>
<!-- Node6 -->
<g id="node6" class="node">
<title>Node6</title>
<g id="a_node6"><a xlink:href="font_8hpp.html" target="_top" xlink:title="Contains jngl::Font class and related functions.">
<polygon fill="white" stroke="#666666" points="394.62,-74 299.62,-74 299.62,-55 394.62,-55 394.62,-74"/>
<text text-anchor="middle" x="347.12" y="-62" font-family="ui-monospace,monospace" font-size="10.00">jngl/font.hpp</text>
</a>
</g>
</g>
<!-- Node3&#45;&gt;Node6 -->
<g id="edge8" class="edge">
<title>Node3&#45;&gt;Node6</title>
<path fill="none" stroke="#63b8ff" d="M271.4,-105.23C289.92,-95.51 314.53,-82.6 330.6,-74.17"/>
<polygon fill="#63b8ff" stroke="#63b8ff" points="269.57,-102.24 262.35,-109.98 272.83,-108.44 269.57,-102.24"/>
</g>
<!-- Node7 -->
<g id="node7" class="node">
<title>Node7</title>
<g id="a_node7"><a xlink:href="shapes_8hpp.html" target="_top" xlink:title="Functions for drawing shapes.">
<polygon fill="white" stroke="#666666" points="519.62,-74 412.62,-74 412.62,-55 519.62,-55 519.62,-74"/>
<text text-anchor="middle" x="466.12" y="-62" font-family="ui-monospace,monospace" font-size="10.00">jngl/shapes.hpp</text>
</a>
</g>
</g>
<!-- Node3&#45;&gt;Node7 -->
<g id="edge10" class="edge">
<title>Node3&#45;&gt;Node7</title>
<path fill="none" stroke="#63b8ff" d="M291.25,-107.63C332.46,-97.7 392.57,-83.22 430.49,-74.08"/>
<polygon fill="#63b8ff" stroke="#63b8ff" points="290.37,-104.24 281.47,-109.98 292.01,-111.05 290.37,-104.24"/>
</g>
<!-- Node4&#45;&gt;Node2 -->
<g id="edge5" class="edge">
<title>Node4&#45;&gt;Node2</title>
<path fill="none" stroke="#63b8ff" d="M137.65,-52.31C173.58,-42.39 225.28,-28.12 258.03,-19.08"/>
<polygon fill="#63b8ff" stroke="#63b8ff" points="136.67,-48.95 127.97,-54.98 138.54,-55.7 136.67,-48.95"/>
</g>
<!-- Node5&#45;&gt;Node2 -->
<g id="edge7" class="edge">
<title>Node5&#45;&gt;Node2</title>
<path fill="none" stroke="#63b8ff" d="M248.03,-48.04C258.32,-38.64 271.08,-26.98 279.63,-19.17"/>
<polygon fill="#63b8ff" stroke="#63b8ff" points="245.46,-45.66 240.44,-54.98 250.18,-50.82 245.46,-45.66"/>
</g>
<!-- Node6&#45;&gt;Node2 -->
<g id="edge9" class="edge">
<title>Node6&#45;&gt;Node2</title>
<path fill="none" stroke="#63b8ff" d="M330.21,-48.04C319.92,-38.64 307.15,-26.98 298.61,-19.17"/>
<polygon fill="#63b8ff" stroke="#63b8ff" points="328.06,-50.82 337.8,-54.98 332.78,-45.66 328.06,-50.82"/>
</g>
<!-- Node7&#45;&gt;Node2 -->
<g id="edge11" class="edge">
<title>Node7&#45;&gt;Node2</title>
<path fill="none" stroke="#63b8ff" d="M427.9,-52.06C394.82,-42.15 347.71,-28.04 317.78,-19.08"/>
<polygon fill="#63b8ff" stroke="#63b8ff" points="427.1,-55.47 437.68,-54.98 429.1,-48.76 427.1,-55.47"/>
</g>
<!-- Node8&#45;&gt;Node2 -->
<g id="edge13" class="edge">
<title>Node8&#45;&gt;Node2</title>
<path fill="none" stroke="#63b8ff" d="M473.57,-107.4C510.23,-97.13 549.66,-79.7 529.12,-55 503.11,-23.72 381.11,-14.33 321.74,-11.59"/>
<polygon fill="#63b8ff" stroke="#63b8ff" points="472.62,-104.03 463.85,-109.99 474.42,-110.8 472.62,-104.03"/>
</g>
<!-- Node9&#45;&gt;Node2 -->
<g id="edge15" class="edge">
<title>Node9&#45;&gt;Node2</title>
<path fill="none" stroke="#63b8ff" d="M568.49,-100.09C565.42,-85.6 558.88,-66.06 545.12,-55 511.19,-27.72 382.92,-16.28 321.83,-12.3"/>
<polygon fill="#63b8ff" stroke="#63b8ff" points="565.05,-100.72 570.22,-109.97 571.94,-99.51 565.05,-100.72"/>
</g>
</g>
</svg>
