<?xml version="1.0" encoding="UTF-8" standalone="no"?>
<!DOCTYPE svg PUBLIC "-//W3C//DTD SVG 1.1//EN"
 "http://www.w3.org/Graphics/SVG/1.1/DTD/svg11.dtd">
<!-- Generated by graphviz version 5.0.0 (0)
 -->
<!-- Title: jngl/Rgb.hpp Pages: 1 -->
<svg width="685pt" height="192pt"
 viewBox="0.00 0.00 685.47 192.00" xmlns="http://www.w3.org/2000/svg" xmlns:xlink="http://www.w3.org/1999/xlink">
<g id="graph0" class="graph" transform="scale(1 1) rotate(0) translate(4 188)">
<title>jngl/Rgb.hpp</title>
<!-- Node1 -->
<g id="node1" class="node">
<title>Node1</title>
<g id="a_node1"><a xlink:title="Contains jngl::Rgb class.">
<polygon fill="#999999" stroke="#666666" points="510.47,-184 421.47,-184 421.47,-165 510.47,-165 510.47,-184"/>
<text text-anchor="middle" x="465.97" y="-172" font-family="ui-monospace,monospace" font-size="10.00">jngl/Rgb.hpp</text>
</a>
</g>
</g>
<!-- Node2 -->
<g id="node2" class="node">
<title>Node2</title>
<g id="a_node2"><a xlink:href="jngl_8hpp.html" target="_top" xlink:title="Includes all JNGL headers except for init.hpp.">
<polygon fill="white" stroke="#666666" points="318.47,-19 253.47,-19 253.47,0 318.47,0 318.47,-19"/>
<text text-anchor="middle" x="285.97" y="-7" font-family="ui-monospace,monospace" font-size="10.00">jngl.hpp</text>
</a>
</g>
</g>
<!-- Node1&#45;&gt;Node2 -->
<g id="edge1" class="edge">
<title>Node1&#45;&gt;Node2</title>
<path fill="none" stroke="#63b8ff" d="M411.32,-170.57C299.47,-163.25 51,-139.77 3.97,-74 -0.94,-67.13 -1.52,-61.42 3.97,-55 35.73,-17.84 185.97,-11.52 253.25,-10.58"/>
<polygon fill="#63b8ff" stroke="#63b8ff" points="411.18,-174.07 421.39,-171.21 411.63,-167.08 411.18,-174.07"/>
</g>
<!-- Node3 -->
<g id="node3" class="node">
<title>Node3</title>
<g id="a_node3"><a xlink:href="Color_8hpp.html" target="_top" xlink:title="Contains jngl::Color class.">
<polygon fill="white" stroke="#666666" points="275.47,-129 174.47,-129 174.47,-110 275.47,-110 275.47,-129"/>
<text text-anchor="middle" x="224.97" y="-117" font-family="ui-monospace,monospace" font-size="10.00">jngl/Color.hpp</text>
</a>
</g>
</g>
<!-- Node1&#45;&gt;Node3 -->
<g id="edge2" class="edge">
<title>Node1&#45;&gt;Node3</title>
<path fill="none" stroke="#63b8ff" d="M417.39,-162.82C372.22,-152.88 305.8,-138.28 264,-129.08"/>
<polygon fill="#63b8ff" stroke="#63b8ff" points="416.73,-166.26 427.25,-164.98 418.24,-159.42 416.73,-166.26"/>
</g>
<!-- Node7 -->
<g id="node7" class="node">
<title>Node7</title>
<g id="a_node7"><a xlink:href="Rgba_8hpp.html" target="_top" xlink:title="Contains jngl::Rgba class.">
<polygon fill="white" stroke="#666666" points="589.47,-129 494.47,-129 494.47,-110 589.47,-110 589.47,-129"/>
<text text-anchor="middle" x="541.97" y="-117" font-family="ui-monospace,monospace" font-size="10.00">jngl/Rgba.hpp</text>
</a>
</g>
</g>
<!-- Node1&#45;&gt;Node7 -->
<g id="edge10" class="edge">
<title>Node1&#45;&gt;Node7</title>
<path fill="none" stroke="#63b8ff" d="M486.55,-159.15C500.28,-149.57 517.9,-137.29 529.54,-129.17"/>
<polygon fill="#63b8ff" stroke="#63b8ff" points="484.38,-156.39 478.18,-164.98 488.39,-162.14 484.38,-156.39"/>
</g>
<!-- Node8 -->
<g id="node8" class="node">
<title>Node8</title>
<g id="a_node8"><a xlink:href="font_8hpp.html" target="_top" xlink:title="Contains jngl::Font class and related functions.">
<polygon fill="white" stroke="#666666" points="513.47,-74 418.47,-74 418.47,-55 513.47,-55 513.47,-74"/>
<text text-anchor="middle" x="465.97" y="-62" font-family="ui-monospace,monospace" font-size="10.00">jngl/font.hpp</text>
</a>
</g>
</g>
<!-- Node1&#45;&gt;Node8 -->
<g id="edge16" class="edge">
<title>Node1&#45;&gt;Node8</title>
<path fill="none" stroke="#63b8ff" d="M465.97,-154.48C465.97,-130.84 465.97,-91.5 465.97,-74.16"/>
<polygon fill="#63b8ff" stroke="#63b8ff" points="462.47,-154.66 465.97,-164.66 469.47,-154.66 462.47,-154.66"/>
</g>
<!-- Node9 -->
<g id="node9" class="node">
<title>Node9</title>
<g id="a_node9"><a xlink:href="sprite_8hpp.html" target="_top" xlink:title="Contains jngl::Sprite class and related functions.">
<polygon fill="white" stroke="#666666" points="677.47,-74 570.47,-74 570.47,-55 677.47,-55 677.47,-74"/>
<text text-anchor="middle" x="623.97" y="-62" font-family="ui-monospace,monospace" font-size="10.00">jngl/sprite.hpp</text>
</a>
</g>
</g>
<!-- Node1&#45;&gt;Node9 -->
<g id="edge17" class="edge">
<title>Node1&#45;&gt;Node9</title>
<path fill="none" stroke="#63b8ff" d="M520.65,-166.22C547.15,-160.18 577.75,-149.14 598.97,-129 614.78,-113.99 620.78,-87.75 622.9,-74.18"/>
<polygon fill="#63b8ff" stroke="#63b8ff" points="519.8,-162.82 510.73,-168.3 521.23,-169.67 519.8,-162.82"/>
</g>
<!-- Node3&#45;&gt;Node2 -->
<g id="edge3" class="edge">
<title>Node3&#45;&gt;Node2</title>
<path fill="none" stroke="#63b8ff" d="M163.81,-118.68C87.73,-116.82 -27.21,-105.88 15.97,-55 46.1,-19.5 188.36,-12.28 253.39,-10.84"/>
<polygon fill="#63b8ff" stroke="#63b8ff" points="164.2,-122.19 174.27,-118.89 164.34,-115.19 164.2,-122.19"/>
</g>
<!-- Node4 -->
<g id="node4" class="node">
<title>Node4</title>
<g id="a_node4"><a xlink:href="FrameBuffer_8hpp.html" target="_top" xlink:title="Contains jngl::FrameBuffer class.">
<polygon fill="white" stroke="#666666" points="156.47,-74 25.47,-74 25.47,-55 156.47,-55 156.47,-74"/>
<text text-anchor="middle" x="90.97" y="-62" font-family="ui-monospace,monospace" font-size="10.00">jngl/FrameBuffer.hpp</text>
</a>
</g>
</g>
<!-- Node3&#45;&gt;Node4 -->
<g id="edge4" class="edge">
<title>Node3&#45;&gt;Node4</title>
<path fill="none" stroke="#63b8ff" d="M194.1,-106.29C169.27,-96.47 134.98,-82.91 112.89,-74.17"/>
<polygon fill="#63b8ff" stroke="#63b8ff" points="192.86,-109.56 203.44,-109.98 195.43,-103.05 192.86,-109.56"/>
</g>
<!-- Node5 -->
<g id="node5" class="node">
<title>Node5</title>
<g id="a_node5"><a xlink:href="Label_8hpp.html" target="_top" xlink:title="Contains jngl::Label class.">
<polygon fill="white" stroke="#666666" points="275.47,-74 174.47,-74 174.47,-55 275.47,-55 275.47,-74"/>
<text text-anchor="middle" x="224.97" y="-62" font-family="ui-monospace,monospace" font-size="10.00">jngl/Label.hpp</text>
</a>
</g>
</g>
<!-- Node3&#45;&gt;Node5 -->
<g id="edge6" class="edge">
<title>Node3&#45;&gt;Node5</title>
<path fill="none" stroke="#63b8ff" d="M224.97,-99.66C224.97,-90.93 224.97,-80.99 224.97,-74.09"/>
<polygon fill="#63b8ff" stroke="#63b8ff" points="221.47,-99.75 224.97,-109.75 228.47,-99.75 221.47,-99.75"/>
</g>
<!-- Node6 -->
<g id="node6" class="node">
<title>Node6</title>
<g id="a_node6"><a xlink:href="shapes_8hpp.html" target="_top" xlink:title="Functions for drawing shapes.">
<polygon fill="white" stroke="#666666" points="400.47,-74 293.47,-74 293.47,-55 400.47,-55 400.47,-74"/>
<text text-anchor="middle" x="346.97" y="-62" font-family="ui-monospace,monospace" font-size="10.00">jngl/shapes.hpp</text>
</a>
</g>
</g>
<!-- Node3&#45;&gt;Node6 -->
<g id="edge8" class="edge">
<title>Node3&#45;&gt;Node6</title>
<path fill="none" stroke="#63b8ff" d="M253.98,-105.9C276.51,-96.11 307.17,-82.79 327.01,-74.17"/>
<polygon fill="#63b8ff" stroke="#63b8ff" points="252.35,-102.79 244.57,-109.98 255.14,-109.21 252.35,-102.79"/>
</g>
<!-- Node4&#45;&gt;Node2 -->
<g id="edge5" class="edge">
<title>Node4&#45;&gt;Node2</title>
<path fill="none" stroke="#63b8ff" d="M132.14,-52.31C168.63,-42.39 221.14,-28.12 254.4,-19.08"/>
<polygon fill="#63b8ff" stroke="#63b8ff" points="131.03,-48.98 122.3,-54.98 132.87,-55.74 131.03,-48.98"/>
</g>
<!-- Node5&#45;&gt;Node2 -->
<g id="edge7" class="edge">
<title>Node5&#45;&gt;Node2</title>
<path fill="none" stroke="#63b8ff" d="M242.44,-48.32C253.31,-38.87 266.91,-27.06 275.99,-19.17"/>
<polygon fill="#63b8ff" stroke="#63b8ff" points="240.02,-45.78 234.77,-54.98 244.62,-51.07 240.02,-45.78"/>
</g>
<!-- Node6&#45;&gt;Node2 -->
<g id="edge9" class="edge">
<title>Node6&#45;&gt;Node2</title>
<path fill="none" stroke="#63b8ff" d="M329.5,-48.32C318.63,-38.87 305.03,-27.06 295.95,-19.17"/>
<polygon fill="#63b8ff" stroke="#63b8ff" points="327.33,-51.07 337.17,-54.98 331.92,-45.78 327.33,-51.07"/>
</g>
<!-- Node7&#45;&gt;Node2 -->
<g id="edge11" class="edge">
<title>Node7&#45;&gt;Node2</title>
<path fill="none" stroke="#63b8ff" d="M541.35,-99.39C539.83,-85.1 535.39,-66.18 522.97,-55 493.33,-28.32 376.57,-16.71 318.76,-12.51"/>
<polygon fill="#63b8ff" stroke="#63b8ff" points="537.88,-99.88 542.04,-109.62 544.86,-99.41 537.88,-99.88"/>
</g>
<!-- Node7&#45;&gt;Node8 -->
<g id="edge12" class="edge">
<title>Node7&#45;&gt;Node8</title>
<path fill="none" stroke="#63b8ff" d="M521.4,-104.15C507.66,-94.57 490.05,-82.29 478.4,-74.17"/>
<polygon fill="#63b8ff" stroke="#63b8ff" points="519.56,-107.14 529.76,-109.98 523.56,-101.39 519.56,-107.14"/>
</g>
<!-- Node7&#45;&gt;Node9 -->
<g id="edge14" class="edge">
<title>Node7&#45;&gt;Node9</title>
<path fill="none" stroke="#63b8ff" d="M563.75,-104.42C578.63,-94.81 597.88,-82.37 610.56,-74.17"/>
<polygon fill="#63b8ff" stroke="#63b8ff" points="561.64,-101.62 555.15,-109.98 565.44,-107.5 561.64,-101.62"/>
</g>
<!-- Node8&#45;&gt;Node2 -->
<g id="edge13" class="edge">
<title>Node8&#45;&gt;Node2</title>
<path fill="none" stroke="#63b8ff" d="M427.1,-52.06C393.46,-42.15 345.56,-28.04 315.12,-19.08"/>
<polygon fill="#63b8ff" stroke="#63b8ff" points="426.47,-55.52 437.05,-54.98 428.45,-48.8 426.47,-55.52"/>
</g>
<!-- Node9&#45;&gt;Node2 -->
<g id="edge15" class="edge">
<title>Node9&#45;&gt;Node2</title>
<path fill="none" stroke="#63b8ff" d="M560.14,-53.49C488.34,-42.23 374.52,-24.38 318.84,-15.65"/>
<polygon fill="#63b8ff" stroke="#63b8ff" points="559.99,-57.01 570.41,-55.1 561.08,-50.1 559.99,-57.01"/>
</g>
</g>
</svg>
