<?xml version="1.0" encoding="UTF-8" standalone="no"?>
<!DOCTYPE svg PUBLIC "-//W3C//DTD SVG 1.1//EN"
 "http://www.w3.org/Graphics/SVG/1.1/DTD/svg11.dtd">
<!-- Generated by graphviz version 9.0.0 (20230911.1827)
 -->
<!-- Title: jngl/Rgb.hpp Pages: 1 -->
<svg width="625pt" height="193pt"
 viewBox="0.00 0.00 624.92 193.00" xmlns="http://www.w3.org/2000/svg" xmlns:xlink="http://www.w3.org/1999/xlink">
<g id="graph0" class="graph" transform="scale(1 1) rotate(0) translate(4 189)">
<title>jngl/Rgb.hpp</title>
<!-- Node1 -->
<g id="Node000001" class="node">
<title>Node1</title>
<g id="a_Node000001"><a xlink:title="Contains jngl::Rgb class.">
<polygon fill="#999999" stroke="#666666" points="412.92,-185 324.92,-185 324.92,-165.75 412.92,-165.75 412.92,-185"/>
<text text-anchor="middle" x="368.92" y="-171.5" font-family="ui-monospace,monospace" font-size="10.00">jngl/Rgb.hpp</text>
</a>
</g>
</g>
<!-- Node2 -->
<g id="Node000002" class="node">
<title>Node2</title>
<g id="a_Node000002"><a xlink:href="jngl_8hpp.html" target="_top" xlink:title="Includes all JNGL headers except for init.hpp.">
<polygon fill="white" stroke="#666666" points="317.92,-19.25 253.92,-19.25 253.92,0 317.92,0 317.92,-19.25"/>
<text text-anchor="middle" x="285.92" y="-5.75" font-family="ui-monospace,monospace" font-size="10.00">jngl.hpp</text>
</a>
</g>
</g>
<!-- Node1&#45;&gt;Node2 -->
<g id="edge1_Node000001_Node000002" class="edge">
<title>Node1&#45;&gt;Node2</title>
<g id="a_edge1_Node000001_Node000002"><a xlink:title=" ">
<path fill="none" stroke="#63b8ff" d="M313.27,-168.15C219.5,-156.3 37,-126.89 3.92,-74.5 -0.65,-67.27 -1.64,-61.76 3.92,-55.25 35.71,-18.03 186.29,-11.68 253.45,-10.72"/>
<polygon fill="#63b8ff" stroke="#63b8ff" points="312.66,-171.6 323.02,-169.36 313.52,-164.66 312.66,-171.6"/>
</a>
</g>
</g>
<!-- Node3 -->
<g id="Node000003" class="node">
<title>Node3</title>
<g id="a_Node000003"><a xlink:href="Color_8hpp.html" target="_top" xlink:title="Contains jngl::Color class.">
<polygon fill="white" stroke="#666666" points="228.92,-129.75 128.92,-129.75 128.92,-110.5 228.92,-110.5 228.92,-129.75"/>
<text text-anchor="middle" x="178.92" y="-116.25" font-family="ui-monospace,monospace" font-size="10.00">jngl/Color.hpp</text>
</a>
</g>
</g>
<!-- Node1&#45;&gt;Node3 -->
<g id="edge2_Node000001_Node000003" class="edge">
<title>Node1&#45;&gt;Node3</title>
<g id="a_edge2_Node000001_Node000003"><a xlink:title=" ">
<path fill="none" stroke="#63b8ff" d="M325.9,-162.32C291.12,-152.57 242.89,-139.05 211.31,-130.2"/>
<polygon fill="#63b8ff" stroke="#63b8ff" points="324.66,-165.6 335.23,-164.93 326.55,-158.86 324.66,-165.6"/>
</a>
</g>
</g>
<!-- Node6 -->
<g id="Node000006" class="node">
<title>Node6</title>
<g id="a_Node000006"><a xlink:href="Label_8hpp.html" target="_top" xlink:title="Contains jngl::Label class.">
<polygon fill="white" stroke="#666666" points="379.92,-129.75 279.92,-129.75 279.92,-110.5 379.92,-110.5 379.92,-129.75"/>
<text text-anchor="middle" x="329.92" y="-116.25" font-family="ui-monospace,monospace" font-size="10.00">jngl/Label.hpp</text>
</a>
</g>
</g>
<!-- Node1&#45;&gt;Node6 -->
<g id="edge8_Node000001_Node000006" class="edge">
<title>Node1&#45;&gt;Node6</title>
<g id="a_edge8_Node000001_Node000006"><a xlink:title=" ">
<path fill="none" stroke="#63b8ff" d="M355.78,-156.44C349.3,-147.59 341.76,-137.29 336.5,-130.11"/>
<polygon fill="#63b8ff" stroke="#63b8ff" points="352.85,-158.36 361.59,-164.36 358.5,-154.23 352.85,-158.36"/>
</a>
</g>
</g>
<!-- Node7 -->
<g id="Node000007" class="node">
<title>Node7</title>
<g id="a_Node000007"><a xlink:href="Rgba_8hpp.html" target="_top" xlink:title="Contains jngl::Rgba class.">
<polygon fill="white" stroke="#666666" points="529.92,-129.75 435.92,-129.75 435.92,-110.5 529.92,-110.5 529.92,-129.75"/>
<text text-anchor="middle" x="482.92" y="-116.25" font-family="ui-monospace,monospace" font-size="10.00">jngl/Rgba.hpp</text>
</a>
</g>
</g>
<!-- Node1&#45;&gt;Node7 -->
<g id="edge10_Node000001_Node000007" class="edge">
<title>Node1&#45;&gt;Node7</title>
<g id="a_edge10_Node000001_Node000007"><a xlink:title=" ">
<path fill="none" stroke="#63b8ff" d="M398.61,-160.51C419.07,-150.95 445.69,-138.52 463.49,-130.2"/>
<polygon fill="#63b8ff" stroke="#63b8ff" points="397.21,-157.3 389.63,-164.7 400.17,-163.64 397.21,-157.3"/>
</a>
</g>
</g>
<!-- Node8 -->
<g id="Node000008" class="node">
<title>Node8</title>
<g id="a_Node000008"><a xlink:href="font_8hpp.html" target="_top" xlink:title="Contains jngl::Font class and related functions.">
<polygon fill="white" stroke="#666666" points="454.92,-74.5 360.92,-74.5 360.92,-55.25 454.92,-55.25 454.92,-74.5"/>
<text text-anchor="middle" x="407.92" y="-61" font-family="ui-monospace,monospace" font-size="10.00">jngl/font.hpp</text>
</a>
</g>
</g>
<!-- Node1&#45;&gt;Node8 -->
<g id="edge16_Node000001_Node000008" class="edge">
<title>Node1&#45;&gt;Node8</title>
<g id="a_edge16_Node000001_Node000008"><a xlink:title=" ">
<path fill="none" stroke="#63b8ff" d="M378.23,-155.09C381.81,-147.32 385.79,-138.2 388.92,-129.75 396.08,-110.44 402.47,-87.1 405.7,-74.67"/>
<polygon fill="#63b8ff" stroke="#63b8ff" points="375.17,-153.39 374.06,-163.92 381.5,-156.37 375.17,-153.39"/>
</a>
</g>
</g>
<!-- Node9 -->
<g id="Node000009" class="node">
<title>Node9</title>
<g id="a_Node000009"><a xlink:href="sprite_8hpp.html" target="_top" xlink:title="Contains jngl::Sprite class and related functions.">
<polygon fill="white" stroke="#666666" points="616.92,-74.5 510.92,-74.5 510.92,-55.25 616.92,-55.25 616.92,-74.5"/>
<text text-anchor="middle" x="563.92" y="-61" font-family="ui-monospace,monospace" font-size="10.00">jngl/sprite.hpp</text>
</a>
</g>
</g>
<!-- Node1&#45;&gt;Node9 -->
<g id="edge17_Node000001_Node000009" class="edge">
<title>Node1&#45;&gt;Node9</title>
<g id="a_edge17_Node000001_Node000009"><a xlink:title=" ">
<path fill="none" stroke="#63b8ff" d="M424.13,-172.49C460.69,-168.49 507.52,-157.69 538.92,-129.75 555.29,-115.18 561.04,-88.56 562.98,-74.73"/>
<polygon fill="#63b8ff" stroke="#63b8ff" points="424.27,-168.96 414.65,-173.39 424.93,-175.93 424.27,-168.96"/>
</a>
</g>
</g>
<!-- Node3&#45;&gt;Node2 -->
<g id="edge3_Node000003_Node000002" class="edge">
<title>Node3&#45;&gt;Node2</title>
<g id="a_edge3_Node000003_Node000002"><a xlink:title=" ">
<path fill="none" stroke="#63b8ff" d="M167.84,-99.86C161.66,-86.3 156.84,-68.32 165.92,-55.25 185.52,-27.05 225.17,-16.64 253.53,-12.81"/>
<polygon fill="#63b8ff" stroke="#63b8ff" points="164.69,-101.38 172.39,-108.66 170.91,-98.17 164.69,-101.38"/>
</a>
</g>
</g>
<!-- Node4 -->
<g id="Node000004" class="node">
<title>Node4</title>
<g id="a_Node000004"><a xlink:href="FrameBuffer_8hpp.html" target="_top" xlink:title="Contains jngl::FrameBuffer class.">
<polygon fill="white" stroke="#666666" points="304.92,-74.5 174.92,-74.5 174.92,-55.25 304.92,-55.25 304.92,-74.5"/>
<text text-anchor="middle" x="239.92" y="-61" font-family="ui-monospace,monospace" font-size="10.00">jngl/FrameBuffer.hpp</text>
</a>
</g>
</g>
<!-- Node3&#45;&gt;Node4 -->
<g id="edge4_Node000003_Node000004" class="edge">
<title>Node3&#45;&gt;Node4</title>
<g id="a_edge4_Node000003_Node000004"><a xlink:title=" ">
<path fill="none" stroke="#63b8ff" d="M197.81,-102.64C208.34,-93.44 221.04,-82.35 229.73,-74.77"/>
<polygon fill="#63b8ff" stroke="#63b8ff" points="195.64,-99.88 190.41,-109.1 200.24,-105.16 195.64,-99.88"/>
</a>
</g>
</g>
<!-- Node5 -->
<g id="Node000005" class="node">
<title>Node5</title>
<g id="a_Node000005"><a xlink:href="shapes_8hpp.html" target="_top" xlink:title="Functions for drawing shapes.">
<polygon fill="white" stroke="#666666" points="118.92,-74.5 12.92,-74.5 12.92,-55.25 118.92,-55.25 118.92,-74.5"/>
<text text-anchor="middle" x="65.92" y="-61" font-family="ui-monospace,monospace" font-size="10.00">jngl/shapes.hpp</text>
</a>
</g>
</g>
<!-- Node3&#45;&gt;Node5 -->
<g id="edge6_Node000003_Node000005" class="edge">
<title>Node3&#45;&gt;Node5</title>
<g id="a_edge6_Node000003_Node000005"><a xlink:title=" ">
<path fill="none" stroke="#63b8ff" d="M149.49,-105.26C129.21,-95.7 102.83,-83.27 85.18,-74.95"/>
<polygon fill="#63b8ff" stroke="#63b8ff" points="147.84,-108.35 158.38,-109.45 150.83,-102.02 147.84,-108.35"/>
</a>
</g>
</g>
<!-- Node4&#45;&gt;Node2 -->
<g id="edge5_Node000004_Node000002" class="edge">
<title>Node4&#45;&gt;Node2</title>
<g id="a_edge5_Node000004_Node000002"><a xlink:title=" ">
<path fill="none" stroke="#63b8ff" d="M254.92,-46.51C262.68,-37.53 271.82,-26.95 278.16,-19.61"/>
<polygon fill="#63b8ff" stroke="#63b8ff" points="252.39,-44.08 248.51,-53.94 257.69,-48.66 252.39,-44.08"/>
</a>
</g>
</g>
<!-- Node5&#45;&gt;Node2 -->
<g id="edge7_Node000005_Node000002" class="edge">
<title>Node5&#45;&gt;Node2</title>
<g id="a_edge7_Node000005_Node000002"><a xlink:title=" ">
<path fill="none" stroke="#63b8ff" d="M114.38,-52.15C156.63,-41.92 216.74,-27.37 253.44,-18.49"/>
<polygon fill="#63b8ff" stroke="#63b8ff" points="113.61,-48.73 104.71,-54.49 115.25,-55.53 113.61,-48.73"/>
</a>
</g>
</g>
<!-- Node6&#45;&gt;Node2 -->
<g id="edge9_Node000006_Node000002" class="edge">
<title>Node6&#45;&gt;Node2</title>
<g id="a_edge9_Node000006_Node000002"><a xlink:title=" ">
<path fill="none" stroke="#63b8ff" d="M326.55,-98.89C324,-86.06 319.9,-69.29 313.92,-55.25 308.33,-42.12 299.15,-28.42 292.84,-19.72"/>
<polygon fill="#63b8ff" stroke="#63b8ff" points="323.09,-99.46 328.32,-108.67 329.98,-98.21 323.09,-99.46"/>
</a>
</g>
</g>
<!-- Node7&#45;&gt;Node2 -->
<g id="edge11_Node000007_Node000002" class="edge">
<title>Node7&#45;&gt;Node2</title>
<g id="a_edge11_Node000007_Node000002"><a xlink:title=" ">
<path fill="none" stroke="#63b8ff" d="M481.99,-98.83C480.26,-84.73 475.69,-66.52 463.92,-55.25 443.21,-35.42 363.62,-21.41 318.19,-14.85"/>
<polygon fill="#63b8ff" stroke="#63b8ff" points="478.5,-99.1 482.79,-108.79 485.48,-98.55 478.5,-99.1"/>
</a>
</g>
</g>
<!-- Node7&#45;&gt;Node8 -->
<g id="edge12_Node000007_Node000008" class="edge">
<title>Node7&#45;&gt;Node8</title>
<g id="a_edge12_Node000007_Node000008"><a xlink:title=" ">
<path fill="none" stroke="#63b8ff" d="M460.93,-103.51C447.85,-94.22 431.71,-82.77 420.71,-74.95"/>
<polygon fill="#63b8ff" stroke="#63b8ff" points="458.78,-106.28 468.96,-109.22 462.84,-100.57 458.78,-106.28"/>
</a>
</g>
</g>
<!-- Node7&#45;&gt;Node9 -->
<g id="edge14_Node000007_Node000009" class="edge">
<title>Node7&#45;&gt;Node9</title>
<g id="a_edge14_Node000007_Node000009"><a xlink:title=" ">
<path fill="none" stroke="#63b8ff" d="M506.26,-103.78C520.46,-94.45 538.11,-82.85 550.11,-74.95"/>
<polygon fill="#63b8ff" stroke="#63b8ff" points="504.36,-100.84 497.93,-109.26 508.2,-106.69 504.36,-100.84"/>
</a>
</g>
</g>
<!-- Node8&#45;&gt;Node2 -->
<g id="edge13_Node000008_Node000002" class="edge">
<title>Node8&#45;&gt;Node2</title>
<g id="a_edge13_Node000008_Node000002"><a xlink:title=" ">
<path fill="none" stroke="#63b8ff" d="M376.75,-50.27C354.77,-40.68 325.94,-28.09 306.72,-19.7"/>
<polygon fill="#63b8ff" stroke="#63b8ff" points="375.27,-53.44 385.84,-54.24 378.07,-47.03 375.27,-53.44"/>
</a>
</g>
</g>
<!-- Node9&#45;&gt;Node2 -->
<g id="edge15_Node000009_Node000002" class="edge">
<title>Node9&#45;&gt;Node2</title>
<g id="a_edge15_Node000009_Node000002"><a xlink:title=" ">
<path fill="none" stroke="#63b8ff" d="M505.43,-52.67C448.38,-41.74 363.74,-25.53 318.02,-16.77"/>
<polygon fill="#63b8ff" stroke="#63b8ff" points="504.48,-56.05 514.96,-54.5 505.8,-49.18 504.48,-56.05"/>
</a>
</g>
</g>
</g>
</svg>
