<?xml version="1.0" encoding="UTF-8" standalone="no"?>
<!DOCTYPE svg PUBLIC "-//W3C//DTD SVG 1.1//EN"
 "http://www.w3.org/Graphics/SVG/1.1/DTD/svg11.dtd">
<!-- Generated by graphviz version 5.0.0 (0)
 -->
<!-- Title: jngl/Rgb.hpp Pages: 1 -->
<svg width="644pt" height="192pt"
 viewBox="0.00 0.00 644.47 192.00" xmlns="http://www.w3.org/2000/svg" xmlns:xlink="http://www.w3.org/1999/xlink">
<g id="graph0" class="graph" transform="scale(1 1) rotate(0) translate(4 188)">
<title>jngl/Rgb.hpp</title>
<!-- Node1 -->
<g id="node1" class="node">
<title>Node1</title>
<g id="a_node1"><a xlink:title="Contains jngl::Rgb class.">
<polygon fill="#999999" stroke="#666666" points="474.47,-184 385.47,-184 385.47,-165 474.47,-165 474.47,-184"/>
<text text-anchor="middle" x="429.97" y="-172" font-family="ui-monospace,monospace" font-size="10.00">jngl/Rgb.hpp</text>
</a>
</g>
</g>
<!-- Node2 -->
<g id="node2" class="node">
<title>Node2</title>
<g id="a_node2"><a xlink:href="jngl_8hpp.html" target="_top" xlink:title="Includes all JNGL headers except for init.hpp.">
<polygon fill="white" stroke="#666666" points="318.47,-19 253.47,-19 253.47,0 318.47,0 318.47,-19"/>
<text text-anchor="middle" x="285.97" y="-7" font-family="ui-monospace,monospace" font-size="10.00">jngl.hpp</text>
</a>
</g>
</g>
<!-- Node1&#45;&gt;Node2 -->
<g id="edge1" class="edge">
<title>Node1&#45;&gt;Node2</title>
<path fill="none" stroke="#63b8ff" d="M375.11,-169.4C270.02,-160.24 46.89,-134.01 3.97,-74 -0.94,-67.13 -1.52,-61.42 3.97,-55 35.73,-17.84 185.97,-11.52 253.25,-10.58"/>
<polygon fill="#63b8ff" stroke="#63b8ff" points="374.94,-172.9 385.21,-170.26 375.54,-165.93 374.94,-172.9"/>
</g>
<!-- Node3 -->
<g id="node3" class="node">
<title>Node3</title>
<g id="a_node3"><a xlink:href="Color_8hpp.html" target="_top" xlink:title="Contains jngl::Color class.">
<polygon fill="white" stroke="#666666" points="275.47,-129 174.47,-129 174.47,-110 275.47,-110 275.47,-129"/>
<text text-anchor="middle" x="224.97" y="-117" font-family="ui-monospace,monospace" font-size="10.00">jngl/Color.hpp</text>
</a>
</g>
</g>
<!-- Node1&#45;&gt;Node3 -->
<g id="edge2" class="edge">
<title>Node1&#45;&gt;Node3</title>
<path fill="none" stroke="#63b8ff" d="M387.18,-162.44C348.81,-152.52 293.28,-138.16 258.17,-129.08"/>
<polygon fill="#63b8ff" stroke="#63b8ff" points="386.48,-165.87 397.03,-164.98 388.23,-159.09 386.48,-165.87"/>
</g>
<!-- Node7 -->
<g id="node7" class="node">
<title>Node7</title>
<g id="a_node7"><a xlink:href="Rgba_8hpp.html" target="_top" xlink:title="Contains jngl::Rgba class.">
<polygon fill="white" stroke="#666666" points="477.47,-129 382.47,-129 382.47,-110 477.47,-110 477.47,-129"/>
<text text-anchor="middle" x="429.97" y="-117" font-family="ui-monospace,monospace" font-size="10.00">jngl/Rgba.hpp</text>
</a>
</g>
</g>
<!-- Node1&#45;&gt;Node7 -->
<g id="edge10" class="edge">
<title>Node1&#45;&gt;Node7</title>
<path fill="none" stroke="#63b8ff" d="M429.97,-154.66C429.97,-145.93 429.97,-135.99 429.97,-129.09"/>
<polygon fill="#63b8ff" stroke="#63b8ff" points="426.47,-154.75 429.97,-164.75 433.47,-154.75 426.47,-154.75"/>
</g>
<!-- Node8 -->
<g id="node8" class="node">
<title>Node8</title>
<g id="a_node8"><a xlink:href="sprite_8hpp.html" target="_top" xlink:title="Contains jngl::Sprite class and related functions.">
<polygon fill="white" stroke="#666666" points="564.47,-74 457.47,-74 457.47,-55 564.47,-55 564.47,-74"/>
<text text-anchor="middle" x="510.97" y="-62" font-family="ui-monospace,monospace" font-size="10.00">jngl/sprite.hpp</text>
</a>
</g>
</g>
<!-- Node1&#45;&gt;Node8 -->
<g id="edge16" class="edge">
<title>Node1&#45;&gt;Node8</title>
<path fill="none" stroke="#63b8ff" d="M453.82,-159.27C465.14,-151.52 478.1,-141.05 486.97,-129 499.69,-111.73 506.45,-86.92 509.3,-74.02"/>
<polygon fill="#63b8ff" stroke="#63b8ff" points="451.67,-156.5 445.2,-164.89 455.49,-162.36 451.67,-156.5"/>
</g>
<!-- Node9 -->
<g id="node9" class="node">
<title>Node9</title>
<g id="a_node9"><a xlink:href="font_8hpp.html" target="_top" xlink:title="Contains jngl::Font class and related functions.">
<polygon fill="white" stroke="#666666" points="636.47,-129 541.47,-129 541.47,-110 636.47,-110 636.47,-129"/>
<text text-anchor="middle" x="588.97" y="-117" font-family="ui-monospace,monospace" font-size="10.00">jngl/font.hpp</text>
</a>
</g>
</g>
<!-- Node1&#45;&gt;Node9 -->
<g id="edge14" class="edge">
<title>Node1&#45;&gt;Node9</title>
<path fill="none" stroke="#63b8ff" d="M465.08,-161.8C494.75,-151.91 536.57,-137.97 563.22,-129.08"/>
<polygon fill="#63b8ff" stroke="#63b8ff" points="463.9,-158.5 455.52,-164.98 466.11,-165.14 463.9,-158.5"/>
</g>
<!-- Node3&#45;&gt;Node2 -->
<g id="edge3" class="edge">
<title>Node3&#45;&gt;Node2</title>
<path fill="none" stroke="#63b8ff" d="M163.81,-118.68C87.73,-116.82 -27.21,-105.88 15.97,-55 46.1,-19.5 188.36,-12.28 253.39,-10.84"/>
<polygon fill="#63b8ff" stroke="#63b8ff" points="164.2,-122.19 174.27,-118.89 164.34,-115.19 164.2,-122.19"/>
</g>
<!-- Node4 -->
<g id="node4" class="node">
<title>Node4</title>
<g id="a_node4"><a xlink:href="FrameBuffer_8hpp.html" target="_top" xlink:title="Contains jngl::FrameBuffer class.">
<polygon fill="white" stroke="#666666" points="156.47,-74 25.47,-74 25.47,-55 156.47,-55 156.47,-74"/>
<text text-anchor="middle" x="90.97" y="-62" font-family="ui-monospace,monospace" font-size="10.00">jngl/FrameBuffer.hpp</text>
</a>
</g>
</g>
<!-- Node3&#45;&gt;Node4 -->
<g id="edge4" class="edge">
<title>Node3&#45;&gt;Node4</title>
<path fill="none" stroke="#63b8ff" d="M194.1,-106.29C169.27,-96.47 134.98,-82.91 112.89,-74.17"/>
<polygon fill="#63b8ff" stroke="#63b8ff" points="192.86,-109.56 203.44,-109.98 195.43,-103.05 192.86,-109.56"/>
</g>
<!-- Node5 -->
<g id="node5" class="node">
<title>Node5</title>
<g id="a_node5"><a xlink:href="Label_8hpp.html" target="_top" xlink:title="Contains jngl::Label class.">
<polygon fill="white" stroke="#666666" points="275.47,-74 174.47,-74 174.47,-55 275.47,-55 275.47,-74"/>
<text text-anchor="middle" x="224.97" y="-62" font-family="ui-monospace,monospace" font-size="10.00">jngl/Label.hpp</text>
</a>
</g>
</g>
<!-- Node3&#45;&gt;Node5 -->
<g id="edge6" class="edge">
<title>Node3&#45;&gt;Node5</title>
<path fill="none" stroke="#63b8ff" d="M224.97,-99.66C224.97,-90.93 224.97,-80.99 224.97,-74.09"/>
<polygon fill="#63b8ff" stroke="#63b8ff" points="221.47,-99.75 224.97,-109.75 228.47,-99.75 221.47,-99.75"/>
</g>
<!-- Node6 -->
<g id="node6" class="node">
<title>Node6</title>
<g id="a_node6"><a xlink:href="shapes_8hpp.html" target="_top" xlink:title="Functions for drawing shapes.">
<polygon fill="white" stroke="#666666" points="400.47,-74 293.47,-74 293.47,-55 400.47,-55 400.47,-74"/>
<text text-anchor="middle" x="346.97" y="-62" font-family="ui-monospace,monospace" font-size="10.00">jngl/shapes.hpp</text>
</a>
</g>
</g>
<!-- Node3&#45;&gt;Node6 -->
<g id="edge8" class="edge">
<title>Node3&#45;&gt;Node6</title>
<path fill="none" stroke="#63b8ff" d="M253.98,-105.9C276.51,-96.11 307.17,-82.79 327.01,-74.17"/>
<polygon fill="#63b8ff" stroke="#63b8ff" points="252.35,-102.79 244.57,-109.98 255.14,-109.21 252.35,-102.79"/>
</g>
<!-- Node4&#45;&gt;Node2 -->
<g id="edge5" class="edge">
<title>Node4&#45;&gt;Node2</title>
<path fill="none" stroke="#63b8ff" d="M132.14,-52.31C168.63,-42.39 221.14,-28.12 254.4,-19.08"/>
<polygon fill="#63b8ff" stroke="#63b8ff" points="131.03,-48.98 122.3,-54.98 132.87,-55.74 131.03,-48.98"/>
</g>
<!-- Node5&#45;&gt;Node2 -->
<g id="edge7" class="edge">
<title>Node5&#45;&gt;Node2</title>
<path fill="none" stroke="#63b8ff" d="M242.44,-48.32C253.31,-38.87 266.91,-27.06 275.99,-19.17"/>
<polygon fill="#63b8ff" stroke="#63b8ff" points="240.02,-45.78 234.77,-54.98 244.62,-51.07 240.02,-45.78"/>
</g>
<!-- Node6&#45;&gt;Node2 -->
<g id="edge9" class="edge">
<title>Node6&#45;&gt;Node2</title>
<path fill="none" stroke="#63b8ff" d="M329.5,-48.32C318.63,-38.87 305.03,-27.06 295.95,-19.17"/>
<polygon fill="#63b8ff" stroke="#63b8ff" points="327.33,-51.07 337.17,-54.98 331.92,-45.78 327.33,-51.07"/>
</g>
<!-- Node7&#45;&gt;Node2 -->
<g id="edge11" class="edge">
<title>Node7&#45;&gt;Node2</title>
<path fill="none" stroke="#63b8ff" d="M428.51,-99.91C426.47,-85.9 421.6,-67.1 409.97,-55 385.8,-29.85 346.42,-18.88 318.53,-14.11"/>
<polygon fill="#63b8ff" stroke="#63b8ff" points="425.04,-100.34 429.61,-109.89 431.99,-99.57 425.04,-100.34"/>
</g>
<!-- Node7&#45;&gt;Node8 -->
<g id="edge12" class="edge">
<title>Node7&#45;&gt;Node8</title>
<path fill="none" stroke="#63b8ff" d="M451.48,-104.42C466.18,-94.81 485.19,-82.37 497.72,-74.17"/>
<polygon fill="#63b8ff" stroke="#63b8ff" points="449.44,-101.58 442.99,-109.98 453.27,-107.44 449.44,-101.58"/>
</g>
<!-- Node8&#45;&gt;Node2 -->
<g id="edge13" class="edge">
<title>Node8&#45;&gt;Node2</title>
<path fill="none" stroke="#63b8ff" d="M465.05,-52.68C421.55,-42.44 357.29,-27.3 318.74,-18.22"/>
<polygon fill="#63b8ff" stroke="#63b8ff" points="464.28,-56.1 474.82,-54.98 465.89,-49.28 464.28,-56.1"/>
</g>
<!-- Node9&#45;&gt;Node2 -->
<g id="edge15" class="edge">
<title>Node9&#45;&gt;Node2</title>
<path fill="none" stroke="#63b8ff" d="M589.76,-99.38C589.25,-85.09 586.05,-66.16 573.97,-55 537.33,-21.13 386.17,-13.04 318.72,-11.1"/>
<polygon fill="#63b8ff" stroke="#63b8ff" points="586.26,-99.6 589.71,-109.61 593.26,-99.63 586.26,-99.6"/>
</g>
</g>
</svg>
