<?xml version="1.0" encoding="UTF-8" standalone="no"?>
<!DOCTYPE svg PUBLIC "-//W3C//DTD SVG 1.1//EN"
 "http://www.w3.org/Graphics/SVG/1.1/DTD/svg11.dtd">
<!-- Generated by graphviz version 5.0.0 (0)
 -->
<!-- Title: jngl/Rgb.hpp Pages: 1 -->
<svg width="544pt" height="192pt"
 viewBox="0.00 0.00 543.53 192.00" xmlns="http://www.w3.org/2000/svg" xmlns:xlink="http://www.w3.org/1999/xlink">
<g id="graph0" class="graph" transform="scale(1 1) rotate(0) translate(4 188)">
<title>jngl/Rgb.hpp</title>
<!-- Node1 -->
<g id="node1" class="node">
<title>Node1</title>
<g id="a_node1"><a xlink:title="Contains jngl::Rgb class.">
<polygon fill="#999999" stroke="#666666" points="276.72,-184 187.72,-184 187.72,-165 276.72,-165 276.72,-184"/>
<text text-anchor="middle" x="232.22" y="-172" font-family="ui-monospace,monospace" font-size="10.00">jngl/Rgb.hpp</text>
</a>
</g>
</g>
<!-- Node2 -->
<g id="node2" class="node">
<title>Node2</title>
<g id="a_node2"><a xlink:href="jngl_8hpp.html" target="_top" xlink:title="Includes all JNGL headers except for init.hpp.">
<polygon fill="white" stroke="#666666" points="264.72,-19 199.72,-19 199.72,0 264.72,0 264.72,-19"/>
<text text-anchor="middle" x="232.22" y="-7" font-family="ui-monospace,monospace" font-size="10.00">jngl.hpp</text>
</a>
</g>
</g>
<!-- Node1&#45;&gt;Node2 -->
<g id="edge1" class="edge">
<title>Node1&#45;&gt;Node2</title>
<path fill="none" stroke="#63b8ff" d="M177.41,-165.33C96.67,-151.04 -39.5,-116.94 11.22,-55 34.65,-26.38 143.94,-15.77 199.54,-12.17"/>
<polygon fill="#63b8ff" stroke="#63b8ff" points="177,-168.81 187.45,-167.06 178.19,-161.92 177,-168.81"/>
</g>
<!-- Node3 -->
<g id="node3" class="node">
<title>Node3</title>
<g id="a_node3"><a xlink:href="Color_8hpp.html" target="_top" xlink:title="Contains jngl::Color class.">
<polygon fill="white" stroke="#666666" points="282.72,-129 181.72,-129 181.72,-110 282.72,-110 282.72,-129"/>
<text text-anchor="middle" x="232.22" y="-117" font-family="ui-monospace,monospace" font-size="10.00">jngl/Color.hpp</text>
</a>
</g>
</g>
<!-- Node1&#45;&gt;Node3 -->
<g id="edge2" class="edge">
<title>Node1&#45;&gt;Node3</title>
<path fill="none" stroke="#63b8ff" d="M232.22,-154.66C232.22,-145.93 232.22,-135.99 232.22,-129.09"/>
<polygon fill="#63b8ff" stroke="#63b8ff" points="228.72,-154.75 232.22,-164.75 235.72,-154.75 228.72,-154.75"/>
</g>
<!-- Node8 -->
<g id="node8" class="node">
<title>Node8</title>
<g id="a_node8"><a xlink:href="Rgba_8hpp.html" target="_top" xlink:title="Contains jngl::Rgba class.">
<polygon fill="white" stroke="#666666" points="495.72,-129 400.72,-129 400.72,-110 495.72,-110 495.72,-129"/>
<text text-anchor="middle" x="448.22" y="-117" font-family="ui-monospace,monospace" font-size="10.00">jngl/Rgba.hpp</text>
</a>
</g>
</g>
<!-- Node1&#45;&gt;Node8 -->
<g id="edge12" class="edge">
<title>Node1&#45;&gt;Node8</title>
<path fill="none" stroke="#63b8ff" d="M276.79,-162.56C317.24,-152.64 376.09,-138.2 413.24,-129.08"/>
<polygon fill="#63b8ff" stroke="#63b8ff" points="275.8,-159.2 266.92,-164.98 277.47,-166 275.8,-159.2"/>
</g>
<!-- Node3&#45;&gt;Node2 -->
<g id="edge3" class="edge">
<title>Node3&#45;&gt;Node2</title>
<path fill="none" stroke="#63b8ff" d="M171.56,-113.91C116.65,-108.35 41.62,-96.73 23.22,-74 -24.44,-15.12 129.52,-9.47 199.48,-9.82"/>
<polygon fill="#63b8ff" stroke="#63b8ff" points="171.27,-117.4 181.56,-114.88 171.95,-110.43 171.27,-117.4"/>
</g>
<!-- Node4 -->
<g id="node4" class="node">
<title>Node4</title>
<g id="a_node4"><a xlink:href="FrameBuffer_8hpp.html" target="_top" xlink:title="Contains jngl::FrameBuffer class.">
<polygon fill="white" stroke="#666666" points="163.72,-74 32.72,-74 32.72,-55 163.72,-55 163.72,-74"/>
<text text-anchor="middle" x="98.22" y="-62" font-family="ui-monospace,monospace" font-size="10.00">jngl/FrameBuffer.hpp</text>
</a>
</g>
</g>
<!-- Node3&#45;&gt;Node4 -->
<g id="edge4" class="edge">
<title>Node3&#45;&gt;Node4</title>
<path fill="none" stroke="#63b8ff" d="M201.35,-106.29C176.51,-96.47 142.23,-82.91 120.14,-74.17"/>
<polygon fill="#63b8ff" stroke="#63b8ff" points="200.1,-109.56 210.69,-109.98 202.68,-103.05 200.1,-109.56"/>
</g>
<!-- Node5 -->
<g id="node5" class="node">
<title>Node5</title>
<g id="a_node5"><a xlink:href="Label_8hpp.html" target="_top" xlink:title="Contains jngl::Label class.">
<polygon fill="white" stroke="#666666" points="282.72,-74 181.72,-74 181.72,-55 282.72,-55 282.72,-74"/>
<text text-anchor="middle" x="232.22" y="-62" font-family="ui-monospace,monospace" font-size="10.00">jngl/Label.hpp</text>
</a>
</g>
</g>
<!-- Node3&#45;&gt;Node5 -->
<g id="edge6" class="edge">
<title>Node3&#45;&gt;Node5</title>
<path fill="none" stroke="#63b8ff" d="M232.22,-99.66C232.22,-90.93 232.22,-80.99 232.22,-74.09"/>
<polygon fill="#63b8ff" stroke="#63b8ff" points="228.72,-99.75 232.22,-109.75 235.72,-99.75 228.72,-99.75"/>
</g>
<!-- Node6 -->
<g id="node6" class="node">
<title>Node6</title>
<g id="a_node6"><a xlink:href="font_8hpp.html" target="_top" xlink:title="Contains jngl::Font class and related functions.">
<polygon fill="white" stroke="#666666" points="395.72,-74 300.72,-74 300.72,-55 395.72,-55 395.72,-74"/>
<text text-anchor="middle" x="348.22" y="-62" font-family="ui-monospace,monospace" font-size="10.00">jngl/font.hpp</text>
</a>
</g>
</g>
<!-- Node3&#45;&gt;Node6 -->
<g id="edge8" class="edge">
<title>Node3&#45;&gt;Node6</title>
<path fill="none" stroke="#63b8ff" d="M260.09,-105.77C281.49,-95.99 310.46,-82.75 329.24,-74.17"/>
<polygon fill="#63b8ff" stroke="#63b8ff" points="258.5,-102.65 250.85,-109.98 261.4,-109.01 258.5,-102.65"/>
</g>
<!-- Node7 -->
<g id="node7" class="node">
<title>Node7</title>
<g id="a_node7"><a xlink:href="shapes_8hpp.html" target="_top" xlink:title="Functions for drawing shapes.">
<polygon fill="white" stroke="#666666" points="520.72,-74 413.72,-74 413.72,-55 520.72,-55 520.72,-74"/>
<text text-anchor="middle" x="467.22" y="-62" font-family="ui-monospace,monospace" font-size="10.00">jngl/shapes.hpp</text>
</a>
</g>
</g>
<!-- Node3&#45;&gt;Node7 -->
<g id="edge10" class="edge">
<title>Node3&#45;&gt;Node7</title>
<path fill="none" stroke="#63b8ff" d="M279.87,-107.75C323.9,-97.82 388.48,-83.26 429.16,-74.08"/>
<polygon fill="#63b8ff" stroke="#63b8ff" points="278.96,-104.37 269.97,-109.98 280.5,-111.2 278.96,-104.37"/>
</g>
<!-- Node4&#45;&gt;Node2 -->
<g id="edge5" class="edge">
<title>Node4&#45;&gt;Node2</title>
<path fill="none" stroke="#63b8ff" d="M129.09,-51.29C153.92,-41.47 188.21,-27.91 210.3,-19.17"/>
<polygon fill="#63b8ff" stroke="#63b8ff" points="127.76,-48.05 119.75,-54.98 130.33,-54.56 127.76,-48.05"/>
</g>
<!-- Node5&#45;&gt;Node2 -->
<g id="edge7" class="edge">
<title>Node5&#45;&gt;Node2</title>
<path fill="none" stroke="#63b8ff" d="M232.22,-44.66C232.22,-35.93 232.22,-25.99 232.22,-19.09"/>
<polygon fill="#63b8ff" stroke="#63b8ff" points="228.72,-44.75 232.22,-54.75 235.72,-44.75 228.72,-44.75"/>
</g>
<!-- Node6&#45;&gt;Node2 -->
<g id="edge9" class="edge">
<title>Node6&#45;&gt;Node2</title>
<path fill="none" stroke="#63b8ff" d="M320.35,-50.77C298.95,-40.99 269.98,-27.75 251.19,-19.17"/>
<polygon fill="#63b8ff" stroke="#63b8ff" points="319.03,-54.01 329.58,-54.98 321.94,-47.65 319.03,-54.01"/>
</g>
<!-- Node7&#45;&gt;Node2 -->
<g id="edge11" class="edge">
<title>Node7&#45;&gt;Node2</title>
<path fill="none" stroke="#63b8ff" d="M419.43,-52.72C373.42,-42.35 305.09,-26.93 264.95,-17.88"/>
<polygon fill="#63b8ff" stroke="#63b8ff" points="418.94,-56.2 429.46,-54.98 420.48,-49.37 418.94,-56.2"/>
</g>
<!-- Node8&#45;&gt;Node2 -->
<g id="edge13" class="edge">
<title>Node8&#45;&gt;Node2</title>
<path fill="none" stroke="#63b8ff" d="M485.09,-106.46C514.64,-94.9 548.41,-76.11 530.22,-55 496.24,-15.57 335.02,-10.55 264.91,-10.27"/>
<polygon fill="#63b8ff" stroke="#63b8ff" points="483.86,-103.19 475.71,-109.96 486.3,-109.75 483.86,-103.19"/>
</g>
</g>
</svg>
