<?xml version="1.0" encoding="UTF-8" standalone="no"?>
<!DOCTYPE svg PUBLIC "-//W3C//DTD SVG 1.1//EN"
 "http://www.w3.org/Graphics/SVG/1.1/DTD/svg11.dtd">
<!-- Generated by graphviz version 9.0.0 (20230911.1827)
 -->
<!-- Title: jngl/Rgb.hpp Pages: 1 -->
<svg width="729pt" height="248pt"
 viewBox="0.00 0.00 728.87 248.25" xmlns="http://www.w3.org/2000/svg" xmlns:xlink="http://www.w3.org/1999/xlink">
<g id="graph0" class="graph" transform="scale(1 1) rotate(0) translate(4 244.25)">
<title>jngl/Rgb.hpp</title>
<!-- Node1 -->
<g id="Node000001" class="node">
<title>Node1</title>
<g id="a_Node000001"><a xlink:title="Contains jngl::Rgb class.">
<polygon fill="#999999" stroke="#666666" points="314.21,-240.25 226.21,-240.25 226.21,-221 314.21,-221 314.21,-240.25"/>
<text text-anchor="middle" x="270.21" y="-226.75" font-family="ui-monospace,monospace" font-size="10.00">jngl/Rgb.hpp</text>
</a>
</g>
</g>
<!-- Node2 -->
<g id="Node000002" class="node">
<title>Node2</title>
<g id="a_Node000002"><a xlink:href="jngl_8hpp.html" target="_top" xlink:title="Includes all JNGL headers except for init.hpp.">
<polygon fill="white" stroke="#666666" points="359.21,-19.25 295.21,-19.25 295.21,0 359.21,0 359.21,-19.25"/>
<text text-anchor="middle" x="327.21" y="-5.75" font-family="ui-monospace,monospace" font-size="10.00">jngl.hpp</text>
</a>
</g>
</g>
<!-- Node1&#45;&gt;Node2 -->
<g id="edge1_Node000001_Node000002" class="edge">
<title>Node1&#45;&gt;Node2</title>
<g id="a_edge1_Node000001_Node000002"><a xlink:title=" ">
<path fill="none" stroke="#63b8ff" d="M220.46,-217.69C128.47,-193.41 -52.93,-133.82 15.21,-55.25 51.19,-13.76 222.6,-9.9 294.91,-10.17"/>
<polygon fill="#63b8ff" stroke="#63b8ff" points="219.46,-221.05 230.01,-220.17 221.21,-214.27 219.46,-221.05"/>
</a>
</g>
</g>
<!-- Node3 -->
<g id="Node000003" class="node">
<title>Node3</title>
<g id="a_Node000003"><a xlink:href="Color_8hpp.html" target="_top" xlink:title="Contains jngl::Color class.">
<polygon fill="white" stroke="#666666" points="124.21,-74.5 24.21,-74.5 24.21,-55.25 124.21,-55.25 124.21,-74.5"/>
<text text-anchor="middle" x="74.21" y="-61" font-family="ui-monospace,monospace" font-size="10.00">jngl/Color.hpp</text>
</a>
</g>
</g>
<!-- Node1&#45;&gt;Node3 -->
<g id="edge2_Node000001_Node000003" class="edge">
<title>Node1&#45;&gt;Node3</title>
<g id="a_edge2_Node000001_Node000003"><a xlink:title=" ">
<path fill="none" stroke="#63b8ff" d="M214.94,-217.83C192.49,-211.01 167.38,-200.59 148.21,-185 109.67,-153.66 85.56,-96.62 77.36,-74.74"/>
<polygon fill="#63b8ff" stroke="#63b8ff" points="213.68,-221.11 224.26,-220.48 215.59,-214.38 213.68,-221.11"/>
</a>
</g>
</g>
<!-- Node4 -->
<g id="Node000004" class="node">
<title>Node4</title>
<g id="a_Node000004"><a xlink:href="Label_8hpp.html" target="_top" xlink:title="Contains jngl::Label class.">
<polygon fill="white" stroke="#666666" points="242.21,-74.5 142.21,-74.5 142.21,-55.25 242.21,-55.25 242.21,-74.5"/>
<text text-anchor="middle" x="192.21" y="-61" font-family="ui-monospace,monospace" font-size="10.00">jngl/Label.hpp</text>
</a>
</g>
</g>
<!-- Node1&#45;&gt;Node4 -->
<g id="edge4_Node000001_Node000004" class="edge">
<title>Node1&#45;&gt;Node4</title>
<g id="a_edge4_Node000001_Node000004"><a xlink:title=" ">
<path fill="none" stroke="#63b8ff" d="M232.86,-216.36C197.15,-201.43 145.41,-173.41 122.21,-129.75 109.31,-105.49 143.03,-85.7 168.03,-74.87"/>
<polygon fill="#63b8ff" stroke="#63b8ff" points="231.39,-219.54 241.98,-220.01 234,-213.04 231.39,-219.54"/>
</a>
</g>
</g>
<!-- Node5 -->
<g id="Node000005" class="node">
<title>Node5</title>
<g id="a_Node000005"><a xlink:href="Rgba_8hpp.html" target="_top" xlink:title="Contains jngl::Rgba class.">
<polygon fill="white" stroke="#666666" points="392.21,-185 298.21,-185 298.21,-165.75 392.21,-165.75 392.21,-185"/>
<text text-anchor="middle" x="345.21" y="-171.5" font-family="ui-monospace,monospace" font-size="10.00">jngl/Rgba.hpp</text>
</a>
</g>
</g>
<!-- Node1&#45;&gt;Node5 -->
<g id="edge6_Node000001_Node000005" class="edge">
<title>Node1&#45;&gt;Node5</title>
<g id="a_edge6_Node000001_Node000005"><a xlink:title=" ">
<path fill="none" stroke="#63b8ff" d="M292.2,-214.01C305.28,-204.72 321.41,-193.27 332.42,-185.45"/>
<polygon fill="#63b8ff" stroke="#63b8ff" points="290.29,-211.07 284.16,-219.72 294.34,-216.78 290.29,-211.07"/>
</a>
</g>
</g>
<!-- Node6 -->
<g id="Node000006" class="node">
<title>Node6</title>
<g id="a_Node000006"><a xlink:href="Sprite_8hpp.html" target="_top" xlink:title="Contains jngl::Sprite class and related functions.">
<polygon fill="white" stroke="#666666" points="361.21,-129.75 255.21,-129.75 255.21,-110.5 361.21,-110.5 361.21,-129.75"/>
<text text-anchor="middle" x="308.21" y="-116.25" font-family="ui-monospace,monospace" font-size="10.00">jngl/Sprite.hpp</text>
</a>
</g>
</g>
<!-- Node1&#45;&gt;Node6 -->
<g id="edge21_Node000001_Node000006" class="edge">
<title>Node1&#45;&gt;Node6</title>
<g id="a_edge21_Node000001_Node000006"><a xlink:title=" ">
<path fill="none" stroke="#63b8ff" d="M275.39,-210.12C278.93,-197.38 283.92,-180.43 289.21,-165.75 293.72,-153.23 299.9,-139.17 303.97,-130.23"/>
<polygon fill="#63b8ff" stroke="#63b8ff" points="272.12,-208.82 272.87,-219.38 278.87,-210.65 272.12,-208.82"/>
</a>
</g>
</g>
<!-- Node7 -->
<g id="Node000007" class="node">
<title>Node7</title>
<g id="a_Node000007"><a xlink:href="font_8hpp.html" target="_top" xlink:title="Contains jngl::Font class and related functions.">
<polygon fill="white" stroke="#666666" points="511.21,-129.75 417.21,-129.75 417.21,-110.5 511.21,-110.5 511.21,-129.75"/>
<text text-anchor="middle" x="464.21" y="-116.25" font-family="ui-monospace,monospace" font-size="10.00">jngl/font.hpp</text>
</a>
</g>
</g>
<!-- Node1&#45;&gt;Node7 -->
<g id="edge22_Node000001_Node000007" class="edge">
<title>Node1&#45;&gt;Node7</title>
<g id="a_edge22_Node000001_Node000007"><a xlink:title=" ">
<path fill="none" stroke="#63b8ff" d="M323.58,-217.51C348.38,-210.4 377.56,-199.84 401.21,-185 425.48,-169.77 447.41,-143.43 457.82,-129.83"/>
<polygon fill="#63b8ff" stroke="#63b8ff" points="322.7,-214.12 313.98,-220.14 324.55,-220.87 322.7,-214.12"/>
</a>
</g>
</g>
<!-- Node10 -->
<g id="Node000010" class="node">
<title>Node10</title>
<g id="a_Node000010"><a xlink:href="ShaderProgram_8hpp.html" target="_top" xlink:title="Contains jngl::ShaderProgram class.">
<polygon fill="white" stroke="#666666" points="664.21,-185 516.21,-185 516.21,-165.75 664.21,-165.75 664.21,-185"/>
<text text-anchor="middle" x="590.21" y="-171.5" font-family="ui-monospace,monospace" font-size="10.00">jngl/ShaderProgram.hpp</text>
</a>
</g>
</g>
<!-- Node1&#45;&gt;Node10 -->
<g id="edge16_Node000001_Node000010" class="edge">
<title>Node1&#45;&gt;Node10</title>
<g id="a_edge16_Node000001_Node000010"><a xlink:title=" ">
<path fill="none" stroke="#63b8ff" d="M326,-220.34C384.83,-210.55 476.92,-195.23 535.38,-185.5"/>
<polygon fill="#63b8ff" stroke="#63b8ff" points="325.48,-216.88 316.19,-221.97 326.63,-223.78 325.48,-216.88"/>
</a>
</g>
</g>
<!-- Node3&#45;&gt;Node2 -->
<g id="edge3_Node000003_Node000002" class="edge">
<title>Node3&#45;&gt;Node2</title>
<g id="a_edge3_Node000003_Node000002"><a xlink:title=" ">
<path fill="none" stroke="#63b8ff" d="M128.49,-52.45C179.16,-41.78 253.09,-26.23 295.02,-17.4"/>
<polygon fill="#63b8ff" stroke="#63b8ff" points="127.96,-48.99 118.89,-54.47 129.4,-55.84 127.96,-48.99"/>
</a>
</g>
</g>
<!-- Node4&#45;&gt;Node2 -->
<g id="edge5_Node000004_Node000002" class="edge">
<title>Node4&#45;&gt;Node2</title>
<g id="a_edge5_Node000004_Node000002"><a xlink:title=" ">
<path fill="none" stroke="#63b8ff" d="M225.7,-50.66C250.14,-41.02 282.63,-28.21 304.19,-19.7"/>
<polygon fill="#63b8ff" stroke="#63b8ff" points="224.53,-47.36 216.51,-54.29 227.1,-53.87 224.53,-47.36"/>
</a>
</g>
</g>
<!-- Node5&#45;&gt;Node2 -->
<g id="edge7_Node000005_Node000002" class="edge">
<title>Node5&#45;&gt;Node2</title>
<g id="a_edge7_Node000005_Node000002"><a xlink:title=" ">
<path fill="none" stroke="#63b8ff" d="M358.28,-156.02C363.02,-148.29 367.8,-138.97 370.21,-129.75 372.37,-121.47 371.93,-118.88 370.21,-110.5 362.89,-75 342.36,-36.57 332.55,-19.57"/>
<polygon fill="#63b8ff" stroke="#63b8ff" points="355.51,-153.87 352.9,-164.14 361.34,-157.74 355.51,-153.87"/>
</a>
</g>
</g>
<!-- Node5&#45;&gt;Node6 -->
<g id="edge8_Node000005_Node000006" class="edge">
<title>Node5&#45;&gt;Node6</title>
<g id="a_edge8_Node000005_Node000006"><a xlink:title=" ">
<path fill="none" stroke="#63b8ff" d="M332.54,-156.15C326.44,-147.36 319.38,-137.21 314.45,-130.11"/>
<polygon fill="#63b8ff" stroke="#63b8ff" points="329.65,-158.12 338.23,-164.34 335.4,-154.13 329.65,-158.12"/>
</a>
</g>
</g>
<!-- Node5&#45;&gt;Node7 -->
<g id="edge10_Node000005_Node000007" class="edge">
<title>Node5&#45;&gt;Node7</title>
<g id="a_edge10_Node000005_Node000007"><a xlink:title=" ">
<path fill="none" stroke="#63b8ff" d="M375.61,-160.77C397.05,-151.18 425.17,-138.59 443.92,-130.2"/>
<polygon fill="#63b8ff" stroke="#63b8ff" points="374.47,-157.44 366.77,-164.72 377.33,-163.83 374.47,-157.44"/>
</a>
</g>
</g>
<!-- Node9 -->
<g id="Node000009" class="node">
<title>Node9</title>
<g id="a_Node000009"><a xlink:href="shapes_8hpp.html" target="_top" xlink:title="Functions for drawing shapes.">
<polygon fill="white" stroke="#666666" points="237.21,-129.75 131.21,-129.75 131.21,-110.5 237.21,-110.5 237.21,-129.75"/>
<text text-anchor="middle" x="184.21" y="-116.25" font-family="ui-monospace,monospace" font-size="10.00">jngl/shapes.hpp</text>
</a>
</g>
</g>
<!-- Node5&#45;&gt;Node9 -->
<g id="edge14_Node000005_Node000009" class="edge">
<title>Node5&#45;&gt;Node9</title>
<g id="a_edge14_Node000005_Node000009"><a xlink:title=" ">
<path fill="none" stroke="#63b8ff" d="M307.21,-161.81C277.87,-152.1 237.95,-138.9 211.65,-130.2"/>
<polygon fill="#63b8ff" stroke="#63b8ff" points="305.86,-165.05 316.46,-164.87 308.06,-158.4 305.86,-165.05"/>
</a>
</g>
</g>
<!-- Node6&#45;&gt;Node2 -->
<g id="edge9_Node000006_Node000002" class="edge">
<title>Node6&#45;&gt;Node2</title>
<g id="a_edge9_Node000006_Node000002"><a xlink:title=" ">
<path fill="none" stroke="#63b8ff" d="M311.71,-99.1C315.86,-75.4 322.59,-36.97 325.63,-19.63"/>
<polygon fill="#63b8ff" stroke="#63b8ff" points="308.3,-98.3 310.02,-108.76 315.19,-99.51 308.3,-98.3"/>
</a>
</g>
</g>
<!-- Node7&#45;&gt;Node2 -->
<g id="edge11_Node000007_Node000002" class="edge">
<title>Node7&#45;&gt;Node2</title>
<g id="a_edge11_Node000007_Node000002"><a xlink:title=" ">
<path fill="none" stroke="#63b8ff" d="M442.33,-103.66C430.59,-95.23 415.95,-84.5 403.21,-74.5 379.07,-55.56 351.75,-32.08 337.35,-19.53"/>
<polygon fill="#63b8ff" stroke="#63b8ff" points="440,-106.3 450.17,-109.26 444.06,-100.6 440,-106.3"/>
</a>
</g>
</g>
<!-- Node8 -->
<g id="Node000008" class="node">
<title>Node8</title>
<g id="a_Node000008"><a xlink:href="OutlinedFont_8hpp.html" target="_top" xlink:title="Contains jngl::OutlinedFont class.">
<polygon fill="white" stroke="#666666" points="554.21,-74.5 412.21,-74.5 412.21,-55.25 554.21,-55.25 554.21,-74.5"/>
<text text-anchor="middle" x="483.21" y="-61" font-family="ui-monospace,monospace" font-size="10.00">jngl/OutlinedFont.hpp</text>
</a>
</g>
</g>
<!-- Node7&#45;&gt;Node8 -->
<g id="edge12_Node000007_Node000008" class="edge">
<title>Node7&#45;&gt;Node8</title>
<g id="a_edge12_Node000007_Node000008"><a xlink:title=" ">
<path fill="none" stroke="#63b8ff" d="M471.12,-99.75C474.16,-91.24 477.58,-81.65 480,-74.86"/>
<polygon fill="#63b8ff" stroke="#63b8ff" points="467.92,-98.31 467.85,-108.91 474.51,-100.66 467.92,-98.31"/>
</a>
</g>
</g>
<!-- Node8&#45;&gt;Node2 -->
<g id="edge13_Node000008_Node000002" class="edge">
<title>Node8&#45;&gt;Node2</title>
<g id="a_edge13_Node000008_Node000002"><a xlink:title=" ">
<path fill="none" stroke="#63b8ff" d="M446.02,-51.18C417.62,-41.49 379.17,-28.36 353.8,-19.7"/>
<polygon fill="#63b8ff" stroke="#63b8ff" points="444.72,-54.43 455.31,-54.35 446.98,-47.81 444.72,-54.43"/>
</a>
</g>
</g>
<!-- Node9&#45;&gt;Node2 -->
<g id="edge15_Node000009_Node000002" class="edge">
<title>Node9&#45;&gt;Node2</title>
<g id="a_edge15_Node000009_Node000002"><a xlink:title=" ">
<path fill="none" stroke="#63b8ff" d="M208.5,-103.87C221.42,-95.53 237.44,-84.82 251.21,-74.5 275.75,-56.1 302.91,-32.41 317.18,-19.68"/>
<polygon fill="#63b8ff" stroke="#63b8ff" points="206.72,-100.86 200.18,-109.19 210.49,-106.76 206.72,-100.86"/>
</a>
</g>
</g>
<!-- Node10&#45;&gt;Node2 -->
<g id="edge17_Node000010_Node000002" class="edge">
<title>Node10&#45;&gt;Node2</title>
<g id="a_edge17_Node000010_Node000002"><a xlink:title=" ">
<path fill="none" stroke="#63b8ff" d="M622.69,-160.75C669.64,-139.21 747.13,-95.59 711.21,-55.25 687.94,-29.12 447.85,-15.95 359.56,-11.97"/>
<polygon fill="#63b8ff" stroke="#63b8ff" points="621.43,-157.48 613.72,-164.75 624.28,-163.87 621.43,-157.48"/>
</a>
</g>
</g>
<!-- Node10&#45;&gt;Node6 -->
<g id="edge20_Node000010_Node000006" class="edge">
<title>Node10&#45;&gt;Node6</title>
<g id="a_edge20_Node000010_Node000006"><a xlink:title=" ">
<path fill="none" stroke="#63b8ff" d="M531,-163.19C479.05,-153.39 404.46,-139.3 356.16,-130.18"/>
<polygon fill="#63b8ff" stroke="#63b8ff" points="530.09,-166.58 540.56,-165 531.38,-159.71 530.09,-166.58"/>
</a>
</g>
</g>
<!-- Node11 -->
<g id="Node000011" class="node">
<title>Node11</title>
<g id="a_Node000011"><a xlink:href="FrameBuffer_8hpp.html" target="_top" xlink:title="Contains jngl::FrameBuffer class.">
<polygon fill="white" stroke="#666666" points="702.21,-74.5 572.21,-74.5 572.21,-55.25 702.21,-55.25 702.21,-74.5"/>
<text text-anchor="middle" x="637.21" y="-61" font-family="ui-monospace,monospace" font-size="10.00">jngl/FrameBuffer.hpp</text>
</a>
</g>
</g>
<!-- Node10&#45;&gt;Node11 -->
<g id="edge18_Node000010_Node000011" class="edge">
<title>Node10&#45;&gt;Node11</title>
<g id="a_edge18_Node000010_Node000011"><a xlink:title=" ">
<path fill="none" stroke="#63b8ff" d="M598.6,-155.01C608.84,-131.37 625.72,-92.38 633.31,-74.88"/>
<polygon fill="#63b8ff" stroke="#63b8ff" points="595.42,-153.54 594.65,-164.11 601.84,-156.32 595.42,-153.54"/>
</a>
</g>
</g>
<!-- Node11&#45;&gt;Node2 -->
<g id="edge19_Node000011_Node000002" class="edge">
<title>Node11&#45;&gt;Node2</title>
<g id="a_edge19_Node000011_Node000002"><a xlink:title=" ">
<path fill="none" stroke="#63b8ff" d="M573.32,-52.9C508.23,-41.72 409.9,-24.83 359.5,-16.17"/>
<polygon fill="#63b8ff" stroke="#63b8ff" points="572.33,-56.28 582.78,-54.53 573.51,-49.38 572.33,-56.28"/>
</a>
</g>
</g>
</g>
</svg>
