<?xml version="1.0" encoding="UTF-8" standalone="no"?>
<!DOCTYPE svg PUBLIC "-//W3C//DTD SVG 1.1//EN"
 "http://www.w3.org/Graphics/SVG/1.1/DTD/svg11.dtd">
<!-- Generated by graphviz version 9.0.0 (20230911.1827)
 -->
<!-- Title: jngl/Rgb.hpp Pages: 1 -->
<svg width="747pt" height="248pt"
 viewBox="0.00 0.00 747.08 248.25" xmlns="http://www.w3.org/2000/svg" xmlns:xlink="http://www.w3.org/1999/xlink">
<g id="graph0" class="graph" transform="scale(1 1) rotate(0) translate(4 244.25)">
<title>jngl/Rgb.hpp</title>
<!-- Node1 -->
<g id="Node000001" class="node">
<title>Node1</title>
<g id="a_Node000001"><a xlink:title="Contains jngl::Rgb class.">
<polygon fill="#999999" stroke="#666666" points="373.08,-240.25 285.08,-240.25 285.08,-221 373.08,-221 373.08,-240.25"/>
<text text-anchor="middle" x="329.08" y="-226.75" font-family="ui-monospace,monospace" font-size="10.00">jngl/Rgb.hpp</text>
</a>
</g>
</g>
<!-- Node2 -->
<g id="Node000002" class="node">
<title>Node2</title>
<g id="a_Node000002"><a xlink:href="jngl_8hpp.html" target="_top" xlink:title="Includes all JNGL headers except for init.hpp.">
<polygon fill="white" stroke="#666666" points="367.08,-19.25 303.08,-19.25 303.08,0 367.08,0 367.08,-19.25"/>
<text text-anchor="middle" x="335.08" y="-5.75" font-family="ui-monospace,monospace" font-size="10.00">jngl.hpp</text>
</a>
</g>
</g>
<!-- Node1&#45;&gt;Node2 -->
<g id="edge1_Node000001_Node000002" class="edge">
<title>Node1&#45;&gt;Node2</title>
<g id="a_edge1_Node000001_Node000002"><a xlink:title=" ">
<path fill="none" stroke="#63b8ff" d="M273.46,-220.67C163.81,-200.78 -62.94,-147.29 17.08,-55.25 53.89,-12.92 229.35,-9.56 302.71,-10.07"/>
<polygon fill="#63b8ff" stroke="#63b8ff" points="272.69,-224.09 283.15,-222.39 273.92,-217.2 272.69,-224.09"/>
</a>
</g>
</g>
<!-- Node3 -->
<g id="Node000003" class="node">
<title>Node3</title>
<g id="a_Node000003"><a xlink:href="Color_8hpp.html" target="_top" xlink:title="Contains jngl::Color class.">
<polygon fill="white" stroke="#666666" points="137.08,-129.75 37.08,-129.75 37.08,-110.5 137.08,-110.5 137.08,-129.75"/>
<text text-anchor="middle" x="87.08" y="-116.25" font-family="ui-monospace,monospace" font-size="10.00">jngl/Color.hpp</text>
</a>
</g>
</g>
<!-- Node1&#45;&gt;Node3 -->
<g id="edge2_Node000001_Node000003" class="edge">
<title>Node1&#45;&gt;Node3</title>
<g id="a_edge2_Node000001_Node000003"><a xlink:title=" ">
<path fill="none" stroke="#63b8ff" d="M291.6,-216.88C267.93,-208.5 236.88,-196.93 210.08,-185 170.73,-167.48 126.27,-143.23 103.09,-130.23"/>
<polygon fill="#63b8ff" stroke="#63b8ff" points="290.22,-220.1 300.81,-220.1 292.53,-213.49 290.22,-220.1"/>
</a>
</g>
</g>
<!-- Node5 -->
<g id="Node000005" class="node">
<title>Node5</title>
<g id="a_Node000005"><a xlink:href="Label_8hpp.html" target="_top" xlink:title="Contains jngl::Label class.">
<polygon fill="white" stroke="#666666" points="258.08,-74.5 158.08,-74.5 158.08,-55.25 258.08,-55.25 258.08,-74.5"/>
<text text-anchor="middle" x="208.08" y="-61" font-family="ui-monospace,monospace" font-size="10.00">jngl/Label.hpp</text>
</a>
</g>
</g>
<!-- Node1&#45;&gt;Node5 -->
<g id="edge6_Node000001_Node000005" class="edge">
<title>Node1&#45;&gt;Node5</title>
<g id="a_edge6_Node000001_Node000005"><a xlink:title=" ">
<path fill="none" stroke="#63b8ff" d="M315.89,-211.77C290.08,-176.86 233.78,-100.66 214.62,-74.72"/>
<polygon fill="#63b8ff" stroke="#63b8ff" points="312.92,-213.64 321.67,-219.6 318.55,-209.48 312.92,-213.64"/>
</a>
</g>
</g>
<!-- Node6 -->
<g id="Node000006" class="node">
<title>Node6</title>
<g id="a_Node000006"><a xlink:href="Rgba_8hpp.html" target="_top" xlink:title="Contains jngl::Rgba class.">
<polygon fill="white" stroke="#666666" points="451.08,-185 357.08,-185 357.08,-165.75 451.08,-165.75 451.08,-185"/>
<text text-anchor="middle" x="404.08" y="-171.5" font-family="ui-monospace,monospace" font-size="10.00">jngl/Rgba.hpp</text>
</a>
</g>
</g>
<!-- Node1&#45;&gt;Node6 -->
<g id="edge8_Node000001_Node000006" class="edge">
<title>Node1&#45;&gt;Node6</title>
<g id="a_edge8_Node000001_Node000006"><a xlink:title=" ">
<path fill="none" stroke="#63b8ff" d="M351.07,-214.01C364.15,-204.72 380.28,-193.27 391.29,-185.45"/>
<polygon fill="#63b8ff" stroke="#63b8ff" points="349.16,-211.07 343.03,-219.72 353.21,-216.78 349.16,-211.07"/>
</a>
</g>
</g>
<!-- Node7 -->
<g id="Node000007" class="node">
<title>Node7</title>
<g id="a_Node000007"><a xlink:href="font_8hpp.html" target="_top" xlink:title="Contains jngl::Font class and related functions.">
<polygon fill="white" stroke="#666666" points="383.08,-129.75 289.08,-129.75 289.08,-110.5 383.08,-110.5 383.08,-129.75"/>
<text text-anchor="middle" x="336.08" y="-116.25" font-family="ui-monospace,monospace" font-size="10.00">jngl/font.hpp</text>
</a>
</g>
</g>
<!-- Node1&#45;&gt;Node7 -->
<g id="edge21_Node000001_Node000007" class="edge">
<title>Node1&#45;&gt;Node7</title>
<g id="a_edge21_Node000001_Node000007"><a xlink:title=" ">
<path fill="none" stroke="#63b8ff" d="M330.39,-209.28C331.92,-185.55 334.38,-147.39 335.5,-130.13"/>
<polygon fill="#63b8ff" stroke="#63b8ff" points="326.9,-209.03 329.75,-219.24 333.88,-209.48 326.9,-209.03"/>
</a>
</g>
</g>
<!-- Node9 -->
<g id="Node000009" class="node">
<title>Node9</title>
<g id="a_Node000009"><a xlink:href="sprite_8hpp.html" target="_top" xlink:title="Contains jngl::Sprite class and related functions.">
<polygon fill="white" stroke="#666666" points="553.08,-129.75 447.08,-129.75 447.08,-110.5 553.08,-110.5 553.08,-129.75"/>
<text text-anchor="middle" x="500.08" y="-116.25" font-family="ui-monospace,monospace" font-size="10.00">jngl/sprite.hpp</text>
</a>
</g>
</g>
<!-- Node1&#45;&gt;Node9 -->
<g id="edge22_Node000001_Node000009" class="edge">
<title>Node1&#45;&gt;Node9</title>
<g id="a_edge22_Node000001_Node000009"><a xlink:title=" ">
<path fill="none" stroke="#63b8ff" d="M384.25,-219.68C409.36,-213.06 438.26,-202.28 460.08,-185 478.95,-170.05 491.36,-143.59 496.84,-129.89"/>
<polygon fill="#63b8ff" stroke="#63b8ff" points="383.74,-216.21 374.86,-222 385.41,-223 383.74,-216.21"/>
</a>
</g>
</g>
<!-- Node10 -->
<g id="Node000010" class="node">
<title>Node10</title>
<g id="a_Node000010"><a xlink:href="ShaderProgram_8hpp.html" target="_top" xlink:title="Contains jngl::ShaderProgram class.">
<polygon fill="white" stroke="#666666" points="655.08,-185 507.08,-185 507.08,-165.75 655.08,-165.75 655.08,-185"/>
<text text-anchor="middle" x="581.08" y="-171.5" font-family="ui-monospace,monospace" font-size="10.00">jngl/ShaderProgram.hpp</text>
</a>
</g>
</g>
<!-- Node1&#45;&gt;Node10 -->
<g id="edge16_Node000001_Node000010" class="edge">
<title>Node1&#45;&gt;Node10</title>
<g id="a_edge16_Node000001_Node000010"><a xlink:title=" ">
<path fill="none" stroke="#63b8ff" d="M383.16,-218.2C429.53,-208.4 495.43,-194.47 538.22,-185.43"/>
<polygon fill="#63b8ff" stroke="#63b8ff" points="382.65,-214.73 373.59,-220.22 384.1,-221.58 382.65,-214.73"/>
</a>
</g>
</g>
<!-- Node3&#45;&gt;Node2 -->
<g id="edge3_Node000003_Node000002" class="edge">
<title>Node3&#45;&gt;Node2</title>
<g id="a_edge3_Node000003_Node000002"><a xlink:title=" ">
<path fill="none" stroke="#63b8ff" d="M56.97,-104.79C34.36,-92.13 9.72,-72.98 25.08,-55.25 60.77,-14.05 230.71,-10.01 302.72,-10.2"/>
<polygon fill="#63b8ff" stroke="#63b8ff" points="55.25,-107.84 65.73,-109.42 58.52,-101.65 55.25,-107.84"/>
</a>
</g>
</g>
<!-- Node4 -->
<g id="Node000004" class="node">
<title>Node4</title>
<g id="a_Node000004"><a xlink:href="shapes_8hpp.html" target="_top" xlink:title="Functions for drawing shapes.">
<polygon fill="white" stroke="#666666" points="140.08,-74.5 34.08,-74.5 34.08,-55.25 140.08,-55.25 140.08,-74.5"/>
<text text-anchor="middle" x="87.08" y="-61" font-family="ui-monospace,monospace" font-size="10.00">jngl/shapes.hpp</text>
</a>
</g>
</g>
<!-- Node3&#45;&gt;Node4 -->
<g id="edge4_Node000003_Node000004" class="edge">
<title>Node3&#45;&gt;Node4</title>
<g id="a_edge4_Node000003_Node000004"><a xlink:title=" ">
<path fill="none" stroke="#63b8ff" d="M87.08,-98.88C87.08,-90.59 87.08,-81.42 87.08,-74.86"/>
<polygon fill="#63b8ff" stroke="#63b8ff" points="83.58,-98.82 87.08,-108.82 90.58,-98.82 83.58,-98.82"/>
</a>
</g>
</g>
<!-- Node4&#45;&gt;Node2 -->
<g id="edge5_Node000004_Node000002" class="edge">
<title>Node4&#45;&gt;Node2</title>
<g id="a_edge5_Node000004_Node000002"><a xlink:title=" ">
<path fill="none" stroke="#63b8ff" d="M140.53,-52.4C189.9,-41.8 261.62,-26.4 302.78,-17.56"/>
<polygon fill="#63b8ff" stroke="#63b8ff" points="139.95,-48.94 130.91,-54.46 141.42,-55.79 139.95,-48.94"/>
</a>
</g>
</g>
<!-- Node5&#45;&gt;Node2 -->
<g id="edge7_Node000005_Node000002" class="edge">
<title>Node5&#45;&gt;Node2</title>
<g id="a_edge7_Node000005_Node000002"><a xlink:title=" ">
<path fill="none" stroke="#63b8ff" d="M240.21,-50.4C263.13,-40.79 293.32,-28.13 313.43,-19.7"/>
<polygon fill="#63b8ff" stroke="#63b8ff" points="238.89,-47.16 231.02,-54.26 241.59,-53.62 238.89,-47.16"/>
</a>
</g>
</g>
<!-- Node6&#45;&gt;Node2 -->
<g id="edge9_Node000006_Node000002" class="edge">
<title>Node6&#45;&gt;Node2</title>
<g id="a_edge9_Node000006_Node000002"><a xlink:title=" ">
<path fill="none" stroke="#63b8ff" d="M413.21,-155.4C419.67,-142.47 428.8,-125.09 438.08,-110.5 448.81,-93.62 458.75,-93.47 465.08,-74.5 467.78,-66.38 470.05,-62.21 465.08,-55.25 443.03,-24.37 398.22,-14.64 367.43,-11.69"/>
<polygon fill="#63b8ff" stroke="#63b8ff" points="410.21,-153.58 408.95,-164.1 416.49,-156.66 410.21,-153.58"/>
</a>
</g>
</g>
<!-- Node6&#45;&gt;Node7 -->
<g id="edge10_Node000006_Node000007" class="edge">
<title>Node6&#45;&gt;Node7</title>
<g id="a_edge10_Node000006_Node000007"><a xlink:title=" ">
<path fill="none" stroke="#63b8ff" d="M383.73,-158.44C371.86,-149.14 357.32,-137.76 347.44,-130.02"/>
<polygon fill="#63b8ff" stroke="#63b8ff" points="381.32,-161 391.35,-164.41 385.64,-155.49 381.32,-161"/>
</a>
</g>
</g>
<!-- Node6&#45;&gt;Node9 -->
<g id="edge14_Node000006_Node000009" class="edge">
<title>Node6&#45;&gt;Node9</title>
<g id="a_edge14_Node000006_Node000009"><a xlink:title=" ">
<path fill="none" stroke="#63b8ff" d="M430.28,-159.84C447.34,-150.38 469.07,-138.33 483.71,-130.2"/>
<polygon fill="#63b8ff" stroke="#63b8ff" points="428.73,-156.7 421.69,-164.61 432.13,-162.82 428.73,-156.7"/>
</a>
</g>
</g>
<!-- Node7&#45;&gt;Node2 -->
<g id="edge11_Node000007_Node000002" class="edge">
<title>Node7&#45;&gt;Node2</title>
<g id="a_edge11_Node000007_Node000002"><a xlink:title=" ">
<path fill="none" stroke="#63b8ff" d="M320.07,-101.43C314.15,-93.73 308.13,-84.25 305.08,-74.5 298.63,-53.92 315.23,-31.45 326.23,-19.41"/>
<polygon fill="#63b8ff" stroke="#63b8ff" points="317.25,-103.51 326.34,-108.96 322.63,-99.03 317.25,-103.51"/>
</a>
</g>
</g>
<!-- Node8 -->
<g id="Node000008" class="node">
<title>Node8</title>
<g id="a_Node000008"><a xlink:href="OutlinedFont_8hpp.html" target="_top" xlink:title="Contains jngl::OutlinedFont class.">
<polygon fill="white" stroke="#666666" points="456.08,-74.5 314.08,-74.5 314.08,-55.25 456.08,-55.25 456.08,-74.5"/>
<text text-anchor="middle" x="385.08" y="-61" font-family="ui-monospace,monospace" font-size="10.00">jngl/OutlinedFont.hpp</text>
</a>
</g>
</g>
<!-- Node7&#45;&gt;Node8 -->
<g id="edge12_Node000007_Node000008" class="edge">
<title>Node7&#45;&gt;Node8</title>
<g id="a_edge12_Node000007_Node000008"><a xlink:title=" ">
<path fill="none" stroke="#63b8ff" d="M351.8,-102.04C360.12,-93 369.99,-82.27 376.81,-74.86"/>
<polygon fill="#63b8ff" stroke="#63b8ff" points="349.39,-99.49 345.19,-109.22 354.54,-104.23 349.39,-99.49"/>
</a>
</g>
</g>
<!-- Node8&#45;&gt;Node2 -->
<g id="edge13_Node000008_Node000002" class="edge">
<title>Node8&#45;&gt;Node2</title>
<g id="a_edge13_Node000008_Node000002"><a xlink:title=" ">
<path fill="none" stroke="#63b8ff" d="M369.04,-46.79C360.55,-37.75 350.47,-27.02 343.51,-19.61"/>
<polygon fill="#63b8ff" stroke="#63b8ff" points="366.39,-49.08 375.79,-53.98 371.49,-44.29 366.39,-49.08"/>
</a>
</g>
</g>
<!-- Node9&#45;&gt;Node2 -->
<g id="edge15_Node000009_Node000002" class="edge">
<title>Node9&#45;&gt;Node2</title>
<g id="a_edge15_Node000009_Node000002"><a xlink:title=" ">
<path fill="none" stroke="#63b8ff" d="M505.17,-98.99C507.39,-85.24 507.65,-67.39 498.08,-55.25 482.01,-34.86 410.24,-21.33 367.47,-14.92"/>
<polygon fill="#63b8ff" stroke="#63b8ff" points="501.76,-98.19 503.12,-108.69 508.61,-99.63 501.76,-98.19"/>
</a>
</g>
</g>
<!-- Node10&#45;&gt;Node2 -->
<g id="edge17_Node000010_Node000002" class="edge">
<title>Node10&#45;&gt;Node2</title>
<g id="a_edge17_Node000010_Node000002"><a xlink:title=" ">
<path fill="none" stroke="#63b8ff" d="M577.44,-154.66C574.5,-141.6 569.6,-124.37 562.08,-110.5 546.71,-82.16 542.49,-72.22 515.08,-55.25 468.82,-26.6 405.19,-16.33 367.29,-12.66"/>
<polygon fill="#63b8ff" stroke="#63b8ff" points="573.95,-155.08 579.37,-164.19 580.81,-153.69 573.95,-155.08"/>
</a>
</g>
</g>
<!-- Node10&#45;&gt;Node9 -->
<g id="edge20_Node000010_Node000009" class="edge">
<title>Node10&#45;&gt;Node9</title>
<g id="a_edge20_Node000010_Node000009"><a xlink:title=" ">
<path fill="none" stroke="#63b8ff" d="M557.74,-159.03C543.54,-149.7 525.89,-138.1 513.89,-130.2"/>
<polygon fill="#63b8ff" stroke="#63b8ff" points="555.79,-161.94 566.07,-164.51 559.64,-156.09 555.79,-161.94"/>
</a>
</g>
</g>
<!-- Node11 -->
<g id="Node000011" class="node">
<title>Node11</title>
<g id="a_Node000011"><a xlink:href="FrameBuffer_8hpp.html" target="_top" xlink:title="Contains jngl::FrameBuffer class.">
<polygon fill="white" stroke="#666666" points="739.08,-74.5 609.08,-74.5 609.08,-55.25 739.08,-55.25 739.08,-74.5"/>
<text text-anchor="middle" x="674.08" y="-61" font-family="ui-monospace,monospace" font-size="10.00">jngl/FrameBuffer.hpp</text>
</a>
</g>
</g>
<!-- Node10&#45;&gt;Node11 -->
<g id="edge18_Node000010_Node000011" class="edge">
<title>Node10&#45;&gt;Node11</title>
<g id="a_edge18_Node000010_Node000011"><a xlink:title=" ">
<path fill="none" stroke="#63b8ff" d="M596.05,-156.91C616.1,-133.52 650.95,-92.86 666.36,-74.88"/>
<polygon fill="#63b8ff" stroke="#63b8ff" points="593.52,-154.48 589.67,-164.35 598.84,-159.03 593.52,-154.48"/>
</a>
</g>
</g>
<!-- Node11&#45;&gt;Node2 -->
<g id="edge19_Node000011_Node000002" class="edge">
<title>Node11&#45;&gt;Node2</title>
<g id="a_edge19_Node000011_Node000002"><a xlink:title=" ">
<path fill="none" stroke="#63b8ff" d="M604.88,-53.01C532.3,-41.6 421.39,-24.18 367.17,-15.67"/>
<polygon fill="#63b8ff" stroke="#63b8ff" points="604.27,-56.45 614.69,-54.55 605.36,-49.54 604.27,-56.45"/>
</a>
</g>
</g>
</g>
</svg>
