<?xml version="1.0" encoding="UTF-8" standalone="no"?>
<!DOCTYPE svg PUBLIC "-//W3C//DTD SVG 1.1//EN"
 "http://www.w3.org/Graphics/SVG/1.1/DTD/svg11.dtd">
<!-- Generated by graphviz version 9.0.0 (20230911.1827)
 -->
<!-- Title: jngl/Rgb.hpp Pages: 1 -->
<svg width="679pt" height="193pt"
 viewBox="0.00 0.00 679.02 193.00" xmlns="http://www.w3.org/2000/svg" xmlns:xlink="http://www.w3.org/1999/xlink">
<g id="graph0" class="graph" transform="scale(1 1) rotate(0) translate(4 189)">
<title>jngl/Rgb.hpp</title>
<!-- Node1 -->
<g id="Node000001" class="node">
<title>Node1</title>
<g id="a_Node000001"><a xlink:title="Contains jngl::Rgb class.">
<polygon fill="#999999" stroke="#666666" points="506.02,-185 418.02,-185 418.02,-165.75 506.02,-165.75 506.02,-185"/>
<text text-anchor="middle" x="462.02" y="-171.5" font-family="ui-monospace,monospace" font-size="10.00">jngl/Rgb.hpp</text>
</a>
</g>
</g>
<!-- Node2 -->
<g id="Node000002" class="node">
<title>Node2</title>
<g id="a_Node000002"><a xlink:href="jngl_8hpp.html" target="_top" xlink:title="Includes all JNGL headers except for init.hpp.">
<polygon fill="white" stroke="#666666" points="315.02,-19.25 251.02,-19.25 251.02,0 315.02,0 315.02,-19.25"/>
<text text-anchor="middle" x="283.02" y="-5.75" font-family="ui-monospace,monospace" font-size="10.00">jngl.hpp</text>
</a>
</g>
</g>
<!-- Node1&#45;&gt;Node2 -->
<g id="edge1_Node000001_Node000002" class="edge">
<title>Node1&#45;&gt;Node2</title>
<g id="a_edge1_Node000001_Node000002"><a xlink:title=" ">
<path fill="none" stroke="#63b8ff" d="M406.48,-171.23C294.94,-163.56 50.37,-139.55 4.02,-74.5 -0.95,-67.53 -1.53,-61.76 4.02,-55.25 35.41,-18.44 184.06,-11.86 250.64,-10.78"/>
<polygon fill="#63b8ff" stroke="#63b8ff" points="406.09,-174.71 416.3,-171.88 406.55,-167.72 406.09,-174.71"/>
</a>
</g>
</g>
<!-- Node3 -->
<g id="Node000003" class="node">
<title>Node3</title>
<g id="a_Node000003"><a xlink:href="Color_8hpp.html" target="_top" xlink:title="Contains jngl::Color class.">
<polygon fill="white" stroke="#666666" points="273.02,-129.75 173.02,-129.75 173.02,-110.5 273.02,-110.5 273.02,-129.75"/>
<text text-anchor="middle" x="223.02" y="-116.25" font-family="ui-monospace,monospace" font-size="10.00">jngl/Color.hpp</text>
</a>
</g>
</g>
<!-- Node1&#45;&gt;Node3 -->
<g id="edge2_Node000001_Node000003" class="edge">
<title>Node1&#45;&gt;Node3</title>
<g id="a_edge2_Node000001_Node000003"><a xlink:title=" ">
<path fill="none" stroke="#63b8ff" d="M410.17,-162.82C366.22,-153.03 304.08,-139.19 263.66,-130.18"/>
<polygon fill="#63b8ff" stroke="#63b8ff" points="409.2,-166.19 419.73,-164.95 410.73,-159.36 409.2,-166.19"/>
</a>
</g>
</g>
<!-- Node7 -->
<g id="Node000007" class="node">
<title>Node7</title>
<g id="a_Node000007"><a xlink:href="Rgba_8hpp.html" target="_top" xlink:title="Contains jngl::Rgba class.">
<polygon fill="white" stroke="#666666" points="584.02,-129.75 490.02,-129.75 490.02,-110.5 584.02,-110.5 584.02,-129.75"/>
<text text-anchor="middle" x="537.02" y="-116.25" font-family="ui-monospace,monospace" font-size="10.00">jngl/Rgba.hpp</text>
</a>
</g>
</g>
<!-- Node1&#45;&gt;Node7 -->
<g id="edge10_Node000001_Node000007" class="edge">
<title>Node1&#45;&gt;Node7</title>
<g id="a_edge10_Node000001_Node000007"><a xlink:title=" ">
<path fill="none" stroke="#63b8ff" d="M484.01,-158.76C497.09,-149.47 513.22,-138.02 524.23,-130.2"/>
<polygon fill="#63b8ff" stroke="#63b8ff" points="482.1,-155.82 475.97,-164.47 486.15,-161.53 482.1,-155.82"/>
</a>
</g>
</g>
<!-- Node8 -->
<g id="Node000008" class="node">
<title>Node8</title>
<g id="a_Node000008"><a xlink:href="font_8hpp.html" target="_top" xlink:title="Contains jngl::Font class and related functions.">
<polygon fill="white" stroke="#666666" points="509.02,-74.5 415.02,-74.5 415.02,-55.25 509.02,-55.25 509.02,-74.5"/>
<text text-anchor="middle" x="462.02" y="-61" font-family="ui-monospace,monospace" font-size="10.00">jngl/font.hpp</text>
</a>
</g>
</g>
<!-- Node1&#45;&gt;Node8 -->
<g id="edge16_Node000001_Node000008" class="edge">
<title>Node1&#45;&gt;Node8</title>
<g id="a_edge16_Node000001_Node000008"><a xlink:title=" ">
<path fill="none" stroke="#63b8ff" d="M462.02,-154.03C462.02,-130.3 462.02,-92.14 462.02,-74.88"/>
<polygon fill="#63b8ff" stroke="#63b8ff" points="458.52,-153.98 462.02,-163.98 465.52,-153.98 458.52,-153.98"/>
</a>
</g>
</g>
<!-- Node9 -->
<g id="Node000009" class="node">
<title>Node9</title>
<g id="a_Node000009"><a xlink:href="sprite_8hpp.html" target="_top" xlink:title="Contains jngl::Sprite class and related functions.">
<polygon fill="white" stroke="#666666" points="671.02,-74.5 565.02,-74.5 565.02,-55.25 671.02,-55.25 671.02,-74.5"/>
<text text-anchor="middle" x="618.02" y="-61" font-family="ui-monospace,monospace" font-size="10.00">jngl/sprite.hpp</text>
</a>
</g>
</g>
<!-- Node1&#45;&gt;Node9 -->
<g id="edge17_Node000001_Node000009" class="edge">
<title>Node1&#45;&gt;Node9</title>
<g id="a_edge17_Node000001_Node000009"><a xlink:title=" ">
<path fill="none" stroke="#63b8ff" d="M517.58,-166.47C543.29,-160.28 572.6,-149.28 593.02,-129.75 608.85,-114.61 614.84,-88.23 616.95,-74.6"/>
<polygon fill="#63b8ff" stroke="#63b8ff" points="516.93,-163.03 507.92,-168.59 518.43,-169.87 516.93,-163.03"/>
</a>
</g>
</g>
<!-- Node3&#45;&gt;Node2 -->
<g id="edge3_Node000003_Node000002" class="edge">
<title>Node3&#45;&gt;Node2</title>
<g id="a_edge3_Node000003_Node000002"><a xlink:title=" ">
<path fill="none" stroke="#63b8ff" d="M161.51,-119.08C86.16,-116.92 -26.58,-105.55 16.02,-55.25 45.78,-20.1 186.48,-12.62 250.8,-11.04"/>
<polygon fill="#63b8ff" stroke="#63b8ff" points="161.21,-122.58 171.28,-119.31 161.37,-115.58 161.21,-122.58"/>
</a>
</g>
</g>
<!-- Node4 -->
<g id="Node000004" class="node">
<title>Node4</title>
<g id="a_Node000004"><a xlink:href="FrameBuffer_8hpp.html" target="_top" xlink:title="Contains jngl::FrameBuffer class.">
<polygon fill="white" stroke="#666666" points="155.02,-74.5 25.02,-74.5 25.02,-55.25 155.02,-55.25 155.02,-74.5"/>
<text text-anchor="middle" x="90.02" y="-61" font-family="ui-monospace,monospace" font-size="10.00">jngl/FrameBuffer.hpp</text>
</a>
</g>
</g>
<!-- Node3&#45;&gt;Node4 -->
<g id="edge4_Node000003_Node000004" class="edge">
<title>Node3&#45;&gt;Node4</title>
<g id="a_edge4_Node000003_Node000004"><a xlink:title=" ">
<path fill="none" stroke="#63b8ff" d="M190.02,-105.91C165.94,-96.27 133.94,-83.46 112.69,-74.95"/>
<polygon fill="#63b8ff" stroke="#63b8ff" points="188.47,-109.06 199.05,-109.53 191.07,-102.56 188.47,-109.06"/>
</a>
</g>
</g>
<!-- Node5 -->
<g id="Node000005" class="node">
<title>Node5</title>
<g id="a_Node000005"><a xlink:href="Label_8hpp.html" target="_top" xlink:title="Contains jngl::Label class.">
<polygon fill="white" stroke="#666666" points="273.02,-74.5 173.02,-74.5 173.02,-55.25 273.02,-55.25 273.02,-74.5"/>
<text text-anchor="middle" x="223.02" y="-61" font-family="ui-monospace,monospace" font-size="10.00">jngl/Label.hpp</text>
</a>
</g>
</g>
<!-- Node3&#45;&gt;Node5 -->
<g id="edge6_Node000003_Node000005" class="edge">
<title>Node3&#45;&gt;Node5</title>
<g id="a_edge6_Node000003_Node000005"><a xlink:title=" ">
<path fill="none" stroke="#63b8ff" d="M223.02,-98.88C223.02,-90.59 223.02,-81.42 223.02,-74.86"/>
<polygon fill="#63b8ff" stroke="#63b8ff" points="219.52,-98.82 223.02,-108.82 226.52,-98.82 219.52,-98.82"/>
</a>
</g>
</g>
<!-- Node6 -->
<g id="Node000006" class="node">
<title>Node6</title>
<g id="a_Node000006"><a xlink:href="shapes_8hpp.html" target="_top" xlink:title="Functions for drawing shapes.">
<polygon fill="white" stroke="#666666" points="397.02,-74.5 291.02,-74.5 291.02,-55.25 397.02,-55.25 397.02,-74.5"/>
<text text-anchor="middle" x="344.02" y="-61" font-family="ui-monospace,monospace" font-size="10.00">jngl/shapes.hpp</text>
</a>
</g>
</g>
<!-- Node3&#45;&gt;Node6 -->
<g id="edge8_Node000003_Node000006" class="edge">
<title>Node3&#45;&gt;Node6</title>
<g id="a_edge8_Node000003_Node000006"><a xlink:title=" ">
<path fill="none" stroke="#63b8ff" d="M253.93,-105.52C275.73,-95.93 304.32,-83.34 323.39,-74.95"/>
<polygon fill="#63b8ff" stroke="#63b8ff" points="252.67,-102.25 244.93,-109.48 255.49,-108.66 252.67,-102.25"/>
</a>
</g>
</g>
<!-- Node4&#45;&gt;Node2 -->
<g id="edge5_Node000004_Node000002" class="edge">
<title>Node4&#45;&gt;Node2</title>
<g id="a_edge5_Node000004_Node000002"><a xlink:title=" ">
<path fill="none" stroke="#63b8ff" d="M133.78,-51.8C169.35,-41.99 218.72,-28.37 250.76,-19.52"/>
<polygon fill="#63b8ff" stroke="#63b8ff" points="132.92,-48.41 124.22,-54.44 134.79,-55.15 132.92,-48.41"/>
</a>
</g>
</g>
<!-- Node5&#45;&gt;Node2 -->
<g id="edge7_Node000005_Node000002" class="edge">
<title>Node5&#45;&gt;Node2</title>
<g id="a_edge7_Node000005_Node000002"><a xlink:title=" ">
<path fill="none" stroke="#63b8ff" d="M241.6,-47.39C251.96,-38.19 264.45,-27.1 272.99,-19.52"/>
<polygon fill="#63b8ff" stroke="#63b8ff" points="239.48,-44.58 234.33,-53.84 244.13,-49.82 239.48,-44.58"/>
</a>
</g>
</g>
<!-- Node6&#45;&gt;Node2 -->
<g id="edge9_Node000006_Node000002" class="edge">
<title>Node6&#45;&gt;Node2</title>
<g id="a_edge9_Node000006_Node000002"><a xlink:title=" ">
<path fill="none" stroke="#63b8ff" d="M325.13,-47.39C314.6,-38.19 301.89,-27.1 293.21,-19.52"/>
<polygon fill="#63b8ff" stroke="#63b8ff" points="322.69,-49.91 332.53,-53.85 327.3,-44.63 322.69,-49.91"/>
</a>
</g>
</g>
<!-- Node7&#45;&gt;Node2 -->
<g id="edge11_Node000007_Node000002" class="edge">
<title>Node7&#45;&gt;Node2</title>
<g id="a_edge11_Node000007_Node000002"><a xlink:title=" ">
<path fill="none" stroke="#63b8ff" d="M536.33,-99.05C534.74,-84.79 530.23,-66.29 518.02,-55.25 488.59,-28.67 372.26,-16.91 315.08,-12.65"/>
<polygon fill="#63b8ff" stroke="#63b8ff" points="532.82,-98.95 537,-108.69 539.8,-98.47 532.82,-98.95"/>
</a>
</g>
</g>
<!-- Node7&#45;&gt;Node8 -->
<g id="edge12_Node000007_Node000008" class="edge">
<title>Node7&#45;&gt;Node8</title>
<g id="a_edge12_Node000007_Node000008"><a xlink:title=" ">
<path fill="none" stroke="#63b8ff" d="M515.02,-103.51C501.94,-94.22 485.81,-82.77 474.8,-74.95"/>
<polygon fill="#63b8ff" stroke="#63b8ff" points="512.88,-106.28 523.06,-109.22 516.93,-100.57 512.88,-106.28"/>
</a>
</g>
</g>
<!-- Node7&#45;&gt;Node9 -->
<g id="edge14_Node000007_Node000009" class="edge">
<title>Node7&#45;&gt;Node9</title>
<g id="a_edge14_Node000007_Node000009"><a xlink:title=" ">
<path fill="none" stroke="#63b8ff" d="M560.36,-103.78C574.55,-94.45 592.2,-82.85 604.21,-74.95"/>
<polygon fill="#63b8ff" stroke="#63b8ff" points="558.46,-100.84 552.02,-109.26 562.3,-106.69 558.46,-100.84"/>
</a>
</g>
</g>
<!-- Node8&#45;&gt;Node2 -->
<g id="edge13_Node000008_Node000002" class="edge">
<title>Node8&#45;&gt;Node2</title>
<g id="a_edge13_Node000008_Node000002"><a xlink:title=" ">
<path fill="none" stroke="#63b8ff" d="M420.64,-51.57C387.93,-41.84 343.03,-28.48 313.53,-19.7"/>
<polygon fill="#63b8ff" stroke="#63b8ff" points="419.62,-54.91 430.2,-54.41 421.61,-48.2 419.62,-54.91"/>
</a>
</g>
</g>
<!-- Node9&#45;&gt;Node2 -->
<g id="edge15_Node000009_Node000002" class="edge">
<title>Node9&#45;&gt;Node2</title>
<g id="a_edge15_Node000009_Node000002"><a xlink:title=" ">
<path fill="none" stroke="#63b8ff" d="M553.49,-53.62C482.23,-42.29 370.35,-24.51 315.51,-15.79"/>
<polygon fill="#63b8ff" stroke="#63b8ff" points="552.64,-57.03 563.07,-55.14 553.74,-50.11 552.64,-57.03"/>
</a>
</g>
</g>
</g>
</svg>
