<?xml version="1.0" encoding="UTF-8" standalone="no"?>
<!DOCTYPE svg PUBLIC "-//W3C//DTD SVG 1.1//EN"
 "http://www.w3.org/Graphics/SVG/1.1/DTD/svg11.dtd">
<!-- Generated by graphviz version 9.0.0 (20230911.1827)
 -->
<!-- Title: jngl/Rgb.hpp Pages: 1 -->
<svg width="798pt" height="248pt"
 viewBox="0.00 0.00 798.27 248.25" xmlns="http://www.w3.org/2000/svg" xmlns:xlink="http://www.w3.org/1999/xlink">
<g id="graph0" class="graph" transform="scale(1 1) rotate(0) translate(4 244.25)">
<title>jngl/Rgb.hpp</title>
<!-- Node1 -->
<g id="Node000001" class="node">
<title>Node1</title>
<g id="a_Node000001"><a xlink:title="Contains jngl::Rgb class.">
<polygon fill="#999999" stroke="#666666" points="335.27,-240.25 247.27,-240.25 247.27,-221 335.27,-221 335.27,-240.25"/>
<text text-anchor="middle" x="291.27" y="-226.75" font-family="ui-monospace,monospace" font-size="10.00">jngl/Rgb.hpp</text>
</a>
</g>
</g>
<!-- Node2 -->
<g id="Node000002" class="node">
<title>Node2</title>
<g id="a_Node000002"><a xlink:href="jngl_8hpp.html" target="_top" xlink:title="Includes all JNGL headers except for init.hpp.">
<polygon fill="white" stroke="#666666" points="451.27,-19.25 387.27,-19.25 387.27,0 451.27,0 451.27,-19.25"/>
<text text-anchor="middle" x="419.27" y="-5.75" font-family="ui-monospace,monospace" font-size="10.00">jngl.hpp</text>
</a>
</g>
</g>
<!-- Node1&#45;&gt;Node2 -->
<g id="edge1_Node000001_Node000002" class="edge">
<title>Node1&#45;&gt;Node2</title>
<g id="a_edge1_Node000001_Node000002"><a xlink:title=" ">
<path fill="none" stroke="#63b8ff" d="M236.74,-218.02C137.35,-194.55 -56.62,-136.66 16.27,-55.25 40.89,-27.75 295.71,-15.36 386.97,-11.78"/>
<polygon fill="#63b8ff" stroke="#63b8ff" points="235.79,-221.39 246.32,-220.24 237.37,-214.57 235.79,-221.39"/>
</a>
</g>
</g>
<!-- Node3 -->
<g id="Node000003" class="node">
<title>Node3</title>
<g id="a_Node000003"><a xlink:href="Color_8hpp.html" target="_top" xlink:title="Contains jngl::Color class.">
<polygon fill="white" stroke="#666666" points="125.27,-74.5 25.27,-74.5 25.27,-55.25 125.27,-55.25 125.27,-74.5"/>
<text text-anchor="middle" x="75.27" y="-61" font-family="ui-monospace,monospace" font-size="10.00">jngl/Color.hpp</text>
</a>
</g>
</g>
<!-- Node1&#45;&gt;Node3 -->
<g id="edge2_Node000001_Node000003" class="edge">
<title>Node1&#45;&gt;Node3</title>
<g id="a_edge2_Node000001_Node000003"><a xlink:title=" ">
<path fill="none" stroke="#63b8ff" d="M270.27,-213.7C225.56,-179.81 122.22,-101.46 87.15,-74.88"/>
<polygon fill="#63b8ff" stroke="#63b8ff" points="268.06,-216.42 278.14,-219.67 272.29,-210.84 268.06,-216.42"/>
</a>
</g>
</g>
<!-- Node4 -->
<g id="Node000004" class="node">
<title>Node4</title>
<g id="a_Node000004"><a xlink:href="Label_8hpp.html" target="_top" xlink:title="Contains jngl::Label class.">
<polygon fill="white" stroke="#666666" points="243.27,-74.5 143.27,-74.5 143.27,-55.25 243.27,-55.25 243.27,-74.5"/>
<text text-anchor="middle" x="193.27" y="-61" font-family="ui-monospace,monospace" font-size="10.00">jngl/Label.hpp</text>
</a>
</g>
</g>
<!-- Node1&#45;&gt;Node4 -->
<g id="edge4_Node000001_Node000004" class="edge">
<title>Node1&#45;&gt;Node4</title>
<g id="a_edge4_Node000001_Node000004"><a xlink:title=" ">
<path fill="none" stroke="#63b8ff" d="M275.22,-212.2C258.38,-193.15 232.06,-161.14 215.27,-129.75 205.43,-111.34 198.64,-87.65 195.41,-74.92"/>
<polygon fill="#63b8ff" stroke="#63b8ff" points="272.55,-214.46 281.84,-219.55 277.75,-209.78 272.55,-214.46"/>
</a>
</g>
</g>
<!-- Node5 -->
<g id="Node000005" class="node">
<title>Node5</title>
<g id="a_Node000005"><a xlink:href="Rgba_8hpp.html" target="_top" xlink:title="Contains jngl::Rgba class.">
<polygon fill="white" stroke="#666666" points="436.27,-185 342.27,-185 342.27,-165.75 436.27,-165.75 436.27,-185"/>
<text text-anchor="middle" x="389.27" y="-171.5" font-family="ui-monospace,monospace" font-size="10.00">jngl/Rgba.hpp</text>
</a>
</g>
</g>
<!-- Node1&#45;&gt;Node5 -->
<g id="edge6_Node000001_Node000005" class="edge">
<title>Node1&#45;&gt;Node5</title>
<g id="a_edge6_Node000001_Node000005"><a xlink:title=" ">
<path fill="none" stroke="#63b8ff" d="M317.53,-215.36C335.02,-205.86 357.47,-193.65 372.56,-185.45"/>
<polygon fill="#63b8ff" stroke="#63b8ff" points="316.34,-212.02 309.22,-219.87 319.68,-218.17 316.34,-212.02"/>
</a>
</g>
</g>
<!-- Node6 -->
<g id="Node000006" class="node">
<title>Node6</title>
<g id="a_Node000006"><a xlink:href="Sprite_8hpp.html" target="_top" xlink:title="Contains jngl::Sprite class and related functions.">
<polygon fill="white" stroke="#666666" points="604.27,-129.75 498.27,-129.75 498.27,-110.5 604.27,-110.5 604.27,-129.75"/>
<text text-anchor="middle" x="551.27" y="-116.25" font-family="ui-monospace,monospace" font-size="10.00">jngl/Sprite.hpp</text>
</a>
</g>
</g>
<!-- Node1&#45;&gt;Node6 -->
<g id="edge21_Node000001_Node000006" class="edge">
<title>Node1&#45;&gt;Node6</title>
<g id="a_edge21_Node000001_Node000006"><a xlink:title=" ">
<path fill="none" stroke="#63b8ff" d="M344.64,-217.8C374.85,-210.22 412.93,-199.14 445.27,-185 481.1,-169.33 519.56,-143.66 538.8,-130.12"/>
<polygon fill="#63b8ff" stroke="#63b8ff" points="343.83,-214.4 334.95,-220.18 345.49,-221.2 343.83,-214.4"/>
</a>
</g>
</g>
<!-- Node10 -->
<g id="Node000010" class="node">
<title>Node10</title>
<g id="a_Node000010"><a xlink:href="ShaderProgram_8hpp.html" target="_top" xlink:title="Contains jngl::ShaderProgram class.">
<polygon fill="white" stroke="#666666" points="689.27,-185 541.27,-185 541.27,-165.75 689.27,-165.75 689.27,-185"/>
<text text-anchor="middle" x="615.27" y="-171.5" font-family="ui-monospace,monospace" font-size="10.00">jngl/ShaderProgram.hpp</text>
</a>
</g>
</g>
<!-- Node1&#45;&gt;Node10 -->
<g id="edge16_Node000001_Node000010" class="edge">
<title>Node1&#45;&gt;Node10</title>
<g id="a_edge16_Node000001_Node000010"><a xlink:title=" ">
<path fill="none" stroke="#63b8ff" d="M346.7,-220.51C406.22,-210.73 500.24,-195.28 559.79,-185.49"/>
<polygon fill="#63b8ff" stroke="#63b8ff" points="346.44,-217.01 337.14,-222.09 347.57,-223.92 346.44,-217.01"/>
</a>
</g>
</g>
<!-- Node3&#45;&gt;Node2 -->
<g id="edge3_Node000003_Node000002" class="edge">
<title>Node3&#45;&gt;Node2</title>
<g id="a_edge3_Node000003_Node000002"><a xlink:title=" ">
<path fill="none" stroke="#63b8ff" d="M137.01,-54.32C210.28,-42.98 329.7,-24.49 386.83,-15.65"/>
<polygon fill="#63b8ff" stroke="#63b8ff" points="136.5,-50.85 127.16,-55.84 137.57,-57.77 136.5,-50.85"/>
</a>
</g>
</g>
<!-- Node4&#45;&gt;Node2 -->
<g id="edge5_Node000004_Node000002" class="edge">
<title>Node4&#45;&gt;Node2</title>
<g id="a_edge5_Node000004_Node000002"><a xlink:title=" ">
<path fill="none" stroke="#63b8ff" d="M242.86,-52.19C286.72,-41.86 349.42,-27.08 387.06,-18.22"/>
<polygon fill="#63b8ff" stroke="#63b8ff" points="242.27,-48.73 233.34,-54.43 243.87,-55.55 242.27,-48.73"/>
</a>
</g>
</g>
<!-- Node5&#45;&gt;Node2 -->
<g id="edge7_Node000005_Node000002" class="edge">
<title>Node5&#45;&gt;Node2</title>
<g id="a_edge7_Node000005_Node000002"><a xlink:title=" ">
<path fill="none" stroke="#63b8ff" d="M417.96,-159.66C429.89,-152.2 442.88,-142.08 451.27,-129.75 465.52,-108.81 462.14,-99.64 465.27,-74.5 466.33,-66.01 468.6,-63.13 465.27,-55.25 458.85,-40.08 444.48,-27.54 433.5,-19.65"/>
<polygon fill="#63b8ff" stroke="#63b8ff" points="416.49,-156.46 409.63,-164.53 420.03,-162.5 416.49,-156.46"/>
</a>
</g>
</g>
<!-- Node5&#45;&gt;Node6 -->
<g id="edge8_Node000005_Node000006" class="edge">
<title>Node5&#45;&gt;Node6</title>
<g id="a_edge8_Node000005_Node000006"><a xlink:title=" ">
<path fill="none" stroke="#63b8ff" d="M427.5,-161.81C457.03,-152.1 497.19,-138.9 523.65,-130.2"/>
<polygon fill="#63b8ff" stroke="#63b8ff" points="426.6,-158.42 418.19,-164.87 428.78,-165.07 426.6,-158.42"/>
</a>
</g>
</g>
<!-- Node7 -->
<g id="Node000007" class="node">
<title>Node7</title>
<g id="a_Node000007"><a xlink:href="font_8hpp.html" target="_top" xlink:title="Contains jngl::Font class and related functions.">
<polygon fill="white" stroke="#666666" points="318.27,-129.75 224.27,-129.75 224.27,-110.5 318.27,-110.5 318.27,-129.75"/>
<text text-anchor="middle" x="271.27" y="-116.25" font-family="ui-monospace,monospace" font-size="10.00">jngl/font.hpp</text>
</a>
</g>
</g>
<!-- Node5&#45;&gt;Node7 -->
<g id="edge10_Node000005_Node000007" class="edge">
<title>Node5&#45;&gt;Node7</title>
<g id="a_edge10_Node000005_Node000007"><a xlink:title=" ">
<path fill="none" stroke="#63b8ff" d="M358.83,-160.64C337.61,-151.06 309.9,-138.56 291.39,-130.2"/>
<polygon fill="#63b8ff" stroke="#63b8ff" points="357.32,-163.8 367.87,-164.72 360.2,-157.42 357.32,-163.8"/>
</a>
</g>
</g>
<!-- Node9 -->
<g id="Node000009" class="node">
<title>Node9</title>
<g id="a_Node000009"><a xlink:href="shapes_8hpp.html" target="_top" xlink:title="Functions for drawing shapes.">
<polygon fill="white" stroke="#666666" points="442.27,-129.75 336.27,-129.75 336.27,-110.5 442.27,-110.5 442.27,-129.75"/>
<text text-anchor="middle" x="389.27" y="-116.25" font-family="ui-monospace,monospace" font-size="10.00">jngl/shapes.hpp</text>
</a>
</g>
</g>
<!-- Node5&#45;&gt;Node9 -->
<g id="edge14_Node000005_Node000009" class="edge">
<title>Node5&#45;&gt;Node9</title>
<g id="a_edge14_Node000005_Node000009"><a xlink:title=" ">
<path fill="none" stroke="#63b8ff" d="M389.27,-154.13C389.27,-145.84 389.27,-136.67 389.27,-130.11"/>
<polygon fill="#63b8ff" stroke="#63b8ff" points="385.77,-154.07 389.27,-164.07 392.77,-154.07 385.77,-154.07"/>
</a>
</g>
</g>
<!-- Node6&#45;&gt;Node2 -->
<g id="edge9_Node000006_Node000002" class="edge">
<title>Node6&#45;&gt;Node2</title>
<g id="a_edge9_Node000006_Node000002"><a xlink:title=" ">
<path fill="none" stroke="#63b8ff" d="M546.02,-99.26C541.47,-85.39 533.63,-67.28 521.27,-55.25 502.02,-36.51 473.6,-24.96 451.65,-18.32"/>
<polygon fill="#63b8ff" stroke="#63b8ff" points="542.6,-100.04 548.78,-108.65 549.31,-98.06 542.6,-100.04"/>
</a>
</g>
</g>
<!-- Node7&#45;&gt;Node2 -->
<g id="edge11_Node000007_Node000002" class="edge">
<title>Node7&#45;&gt;Node2</title>
<g id="a_edge11_Node000007_Node000002"><a xlink:title=" ">
<path fill="none" stroke="#63b8ff" d="M272.57,-98.68C274.48,-84.79 279.12,-66.9 290.27,-55.25 315.75,-28.63 357.87,-17.88 387.02,-13.55"/>
<polygon fill="#63b8ff" stroke="#63b8ff" points="269.1,-98.21 271.61,-108.51 276.06,-98.89 269.1,-98.21"/>
</a>
</g>
</g>
<!-- Node8 -->
<g id="Node000008" class="node">
<title>Node8</title>
<g id="a_Node000008"><a xlink:href="OutlinedFont_8hpp.html" target="_top" xlink:title="Contains jngl::OutlinedFont class.">
<polygon fill="white" stroke="#666666" points="441.27,-74.5 299.27,-74.5 299.27,-55.25 441.27,-55.25 441.27,-74.5"/>
<text text-anchor="middle" x="370.27" y="-61" font-family="ui-monospace,monospace" font-size="10.00">jngl/OutlinedFont.hpp</text>
</a>
</g>
</g>
<!-- Node7&#45;&gt;Node8 -->
<g id="edge12_Node000007_Node000008" class="edge">
<title>Node7&#45;&gt;Node8</title>
<g id="a_edge12_Node000007_Node000008"><a xlink:title=" ">
<path fill="none" stroke="#63b8ff" d="M297.79,-104.86C315.46,-95.36 338.15,-83.15 353.39,-74.95"/>
<polygon fill="#63b8ff" stroke="#63b8ff" points="296.55,-101.56 289.4,-109.37 299.86,-107.72 296.55,-101.56"/>
</a>
</g>
</g>
<!-- Node8&#45;&gt;Node2 -->
<g id="edge13_Node000008_Node000002" class="edge">
<title>Node8&#45;&gt;Node2</title>
<g id="a_edge13_Node000008_Node000002"><a xlink:title=" ">
<path fill="none" stroke="#63b8ff" d="M385.99,-46.79C394.31,-37.75 404.18,-27.02 411,-19.61"/>
<polygon fill="#63b8ff" stroke="#63b8ff" points="383.58,-44.24 379.39,-53.97 388.73,-48.98 383.58,-44.24"/>
</a>
</g>
</g>
<!-- Node9&#45;&gt;Node2 -->
<g id="edge15_Node000009_Node000002" class="edge">
<title>Node9&#45;&gt;Node2</title>
<g id="a_edge15_Node000009_Node000002"><a xlink:title=" ">
<path fill="none" stroke="#63b8ff" d="M420.34,-104.35C431.94,-97.11 443.84,-87.17 450.27,-74.5 460.2,-54.93 441.33,-31.7 428.92,-19.35"/>
<polygon fill="#63b8ff" stroke="#63b8ff" points="418.64,-101.29 411.69,-109.28 422.11,-107.37 418.64,-101.29"/>
</a>
</g>
</g>
<!-- Node10&#45;&gt;Node2 -->
<g id="edge17_Node000010_Node000002" class="edge">
<title>Node10&#45;&gt;Node2</title>
<g id="a_edge17_Node000010_Node000002"><a xlink:title=" ">
<path fill="none" stroke="#63b8ff" d="M618.89,-154.4C620.29,-141.22 620.18,-123.97 613.27,-110.5 581.99,-49.49 497.96,-24.82 451.41,-15.61"/>
<polygon fill="#63b8ff" stroke="#63b8ff" points="615.47,-153.63 617.48,-164.03 622.39,-154.64 615.47,-153.63"/>
</a>
</g>
</g>
<!-- Node10&#45;&gt;Node6 -->
<g id="edge20_Node000010_Node000006" class="edge">
<title>Node10&#45;&gt;Node6</title>
<g id="a_edge20_Node000010_Node000006"><a xlink:title=" ">
<path fill="none" stroke="#63b8ff" d="M595.79,-158.16C584.67,-148.92 571.17,-137.68 561.97,-130.02"/>
<polygon fill="#63b8ff" stroke="#63b8ff" points="593.32,-160.67 603.25,-164.37 597.8,-155.29 593.32,-160.67"/>
</a>
</g>
</g>
<!-- Node11 -->
<g id="Node000011" class="node">
<title>Node11</title>
<g id="a_Node000011"><a xlink:href="FrameBuffer_8hpp.html" target="_top" xlink:title="Contains jngl::FrameBuffer class.">
<polygon fill="white" stroke="#666666" points="790.27,-74.5 660.27,-74.5 660.27,-55.25 790.27,-55.25 790.27,-74.5"/>
<text text-anchor="middle" x="725.27" y="-61" font-family="ui-monospace,monospace" font-size="10.00">jngl/FrameBuffer.hpp</text>
</a>
</g>
</g>
<!-- Node10&#45;&gt;Node11 -->
<g id="edge18_Node000010_Node000011" class="edge">
<title>Node10&#45;&gt;Node11</title>
<g id="a_edge18_Node000010_Node000011"><a xlink:title=" ">
<path fill="none" stroke="#63b8ff" d="M632.35,-157.53C655.96,-134.24 697.75,-93.02 716.14,-74.88"/>
<polygon fill="#63b8ff" stroke="#63b8ff" points="630.01,-154.92 625.35,-164.43 634.93,-159.9 630.01,-154.92"/>
</a>
</g>
</g>
<!-- Node11&#45;&gt;Node2 -->
<g id="edge19_Node000011_Node000002" class="edge">
<title>Node11&#45;&gt;Node2</title>
<g id="a_edge19_Node000011_Node000002"><a xlink:title=" ">
<path fill="none" stroke="#63b8ff" d="M661.84,-52.84C597.77,-41.69 501.35,-24.91 451.57,-16.25"/>
<polygon fill="#63b8ff" stroke="#63b8ff" points="661.07,-56.26 671.52,-54.52 662.27,-49.36 661.07,-56.26"/>
</a>
</g>
</g>
</g>
</svg>
