<?xml version="1.0" encoding="UTF-8" standalone="no"?>
<!DOCTYPE svg PUBLIC "-//W3C//DTD SVG 1.1//EN"
 "http://www.w3.org/Graphics/SVG/1.1/DTD/svg11.dtd">
<!-- Generated by graphviz version 5.0.0 (0)
 -->
<!-- Title: jngl/Rgb.hpp Pages: 1 -->
<svg width="641pt" height="192pt"
 viewBox="0.00 0.00 641.47 192.00" xmlns="http://www.w3.org/2000/svg" xmlns:xlink="http://www.w3.org/1999/xlink">
<g id="graph0" class="graph" transform="scale(1 1) rotate(0) translate(4 188)">
<title>jngl/Rgb.hpp</title>
<!-- Node1 -->
<g id="node1" class="node">
<title>Node1</title>
<g id="a_node1"><a xlink:title="Contains jngl::Rgb class.">
<polygon fill="#999999" stroke="#666666" points="429.47,-184 340.47,-184 340.47,-165 429.47,-165 429.47,-184"/>
<text text-anchor="middle" x="384.97" y="-172" font-family="ui-monospace,monospace" font-size="10.00">jngl/Rgb.hpp</text>
</a>
</g>
</g>
<!-- Node2 -->
<g id="node2" class="node">
<title>Node2</title>
<g id="a_node2"><a xlink:href="jngl_8hpp.html" target="_top" xlink:title="Includes all JNGL headers except for init.hpp.">
<polygon fill="white" stroke="#666666" points="318.47,-19 253.47,-19 253.47,0 318.47,0 318.47,-19"/>
<text text-anchor="middle" x="285.97" y="-7" font-family="ui-monospace,monospace" font-size="10.00">jngl.hpp</text>
</a>
</g>
</g>
<!-- Node1&#45;&gt;Node2 -->
<g id="edge1" class="edge">
<title>Node1&#45;&gt;Node2</title>
<path fill="none" stroke="#63b8ff" d="M330.07,-167.66C233.96,-156.15 41.81,-126.92 3.97,-74 -0.94,-67.13 -1.52,-61.42 3.97,-55 35.73,-17.84 185.97,-11.52 253.25,-10.58"/>
<polygon fill="#63b8ff" stroke="#63b8ff" points="329.84,-171.16 340.18,-168.85 330.66,-164.21 329.84,-171.16"/>
</g>
<!-- Node3 -->
<g id="node3" class="node">
<title>Node3</title>
<g id="a_node3"><a xlink:href="Color_8hpp.html" target="_top" xlink:title="Contains jngl::Color class.">
<polygon fill="white" stroke="#666666" points="275.47,-129 174.47,-129 174.47,-110 275.47,-110 275.47,-129"/>
<text text-anchor="middle" x="224.97" y="-117" font-family="ui-monospace,monospace" font-size="10.00">jngl/Color.hpp</text>
</a>
</g>
</g>
<!-- Node1&#45;&gt;Node3 -->
<g id="edge2" class="edge">
<title>Node1&#45;&gt;Node3</title>
<path fill="none" stroke="#63b8ff" d="M349.65,-161.8C319.79,-151.91 277.7,-137.97 250.88,-129.08"/>
<polygon fill="#63b8ff" stroke="#63b8ff" points="348.67,-165.16 359.26,-164.98 350.87,-158.52 348.67,-165.16"/>
</g>
<!-- Node7 -->
<g id="node7" class="node">
<title>Node7</title>
<g id="a_node7"><a xlink:href="Rgba_8hpp.html" target="_top" xlink:title="Contains jngl::Rgba class.">
<polygon fill="white" stroke="#666666" points="513.47,-74 418.47,-74 418.47,-55 513.47,-55 513.47,-74"/>
<text text-anchor="middle" x="465.97" y="-62" font-family="ui-monospace,monospace" font-size="10.00">jngl/Rgba.hpp</text>
</a>
</g>
</g>
<!-- Node1&#45;&gt;Node7 -->
<g id="edge10" class="edge">
<title>Node1&#45;&gt;Node7</title>
<path fill="none" stroke="#63b8ff" d="M387.63,-154.92C390.28,-141.46 395.38,-123.35 404.97,-110 416.36,-94.14 435.16,-81.66 448.88,-74.01"/>
<polygon fill="#63b8ff" stroke="#63b8ff" points="384.15,-154.49 385.94,-164.93 391.06,-155.65 384.15,-154.49"/>
</g>
<!-- Node8 -->
<g id="node8" class="node">
<title>Node8</title>
<g id="a_node8"><a xlink:href="font_8hpp.html" target="_top" xlink:title="Contains jngl::Font class and related functions.">
<polygon fill="white" stroke="#666666" points="508.47,-129 413.47,-129 413.47,-110 508.47,-110 508.47,-129"/>
<text text-anchor="middle" x="460.97" y="-117" font-family="ui-monospace,monospace" font-size="10.00">jngl/font.hpp</text>
</a>
</g>
</g>
<!-- Node1&#45;&gt;Node8 -->
<g id="edge12" class="edge">
<title>Node1&#45;&gt;Node8</title>
<path fill="none" stroke="#63b8ff" d="M405.55,-159.15C419.28,-149.57 436.9,-137.29 448.54,-129.17"/>
<polygon fill="#63b8ff" stroke="#63b8ff" points="403.38,-156.39 397.18,-164.98 407.39,-162.14 403.38,-156.39"/>
</g>
<!-- Node9 -->
<g id="node9" class="node">
<title>Node9</title>
<g id="a_node9"><a xlink:href="sprite_8hpp.html" target="_top" xlink:title="Contains jngl::Sprite class and related functions.">
<polygon fill="white" stroke="#666666" points="633.47,-129 526.47,-129 526.47,-110 633.47,-110 633.47,-129"/>
<text text-anchor="middle" x="579.97" y="-117" font-family="ui-monospace,monospace" font-size="10.00">jngl/sprite.hpp</text>
</a>
</g>
</g>
<!-- Node1&#45;&gt;Node9 -->
<g id="edge14" class="edge">
<title>Node1&#45;&gt;Node9</title>
<path fill="none" stroke="#63b8ff" d="M426.14,-162.31C462.63,-152.39 515.14,-138.12 548.4,-129.08"/>
<polygon fill="#63b8ff" stroke="#63b8ff" points="425.03,-158.98 416.3,-164.98 426.87,-165.74 425.03,-158.98"/>
</g>
<!-- Node3&#45;&gt;Node2 -->
<g id="edge3" class="edge">
<title>Node3&#45;&gt;Node2</title>
<path fill="none" stroke="#63b8ff" d="M163.81,-118.68C87.73,-116.82 -27.21,-105.88 15.97,-55 46.1,-19.5 188.36,-12.28 253.39,-10.84"/>
<polygon fill="#63b8ff" stroke="#63b8ff" points="164.2,-122.19 174.27,-118.89 164.34,-115.19 164.2,-122.19"/>
</g>
<!-- Node4 -->
<g id="node4" class="node">
<title>Node4</title>
<g id="a_node4"><a xlink:href="FrameBuffer_8hpp.html" target="_top" xlink:title="Contains jngl::FrameBuffer class.">
<polygon fill="white" stroke="#666666" points="156.47,-74 25.47,-74 25.47,-55 156.47,-55 156.47,-74"/>
<text text-anchor="middle" x="90.97" y="-62" font-family="ui-monospace,monospace" font-size="10.00">jngl/FrameBuffer.hpp</text>
</a>
</g>
</g>
<!-- Node3&#45;&gt;Node4 -->
<g id="edge4" class="edge">
<title>Node3&#45;&gt;Node4</title>
<path fill="none" stroke="#63b8ff" d="M194.1,-106.29C169.27,-96.47 134.98,-82.91 112.89,-74.17"/>
<polygon fill="#63b8ff" stroke="#63b8ff" points="192.86,-109.56 203.44,-109.98 195.43,-103.05 192.86,-109.56"/>
</g>
<!-- Node5 -->
<g id="node5" class="node">
<title>Node5</title>
<g id="a_node5"><a xlink:href="Label_8hpp.html" target="_top" xlink:title="Contains jngl::Label class.">
<polygon fill="white" stroke="#666666" points="275.47,-74 174.47,-74 174.47,-55 275.47,-55 275.47,-74"/>
<text text-anchor="middle" x="224.97" y="-62" font-family="ui-monospace,monospace" font-size="10.00">jngl/Label.hpp</text>
</a>
</g>
</g>
<!-- Node3&#45;&gt;Node5 -->
<g id="edge6" class="edge">
<title>Node3&#45;&gt;Node5</title>
<path fill="none" stroke="#63b8ff" d="M224.97,-99.66C224.97,-90.93 224.97,-80.99 224.97,-74.09"/>
<polygon fill="#63b8ff" stroke="#63b8ff" points="221.47,-99.75 224.97,-109.75 228.47,-99.75 221.47,-99.75"/>
</g>
<!-- Node6 -->
<g id="node6" class="node">
<title>Node6</title>
<g id="a_node6"><a xlink:href="shapes_8hpp.html" target="_top" xlink:title="Functions for drawing shapes.">
<polygon fill="white" stroke="#666666" points="400.47,-74 293.47,-74 293.47,-55 400.47,-55 400.47,-74"/>
<text text-anchor="middle" x="346.97" y="-62" font-family="ui-monospace,monospace" font-size="10.00">jngl/shapes.hpp</text>
</a>
</g>
</g>
<!-- Node3&#45;&gt;Node6 -->
<g id="edge8" class="edge">
<title>Node3&#45;&gt;Node6</title>
<path fill="none" stroke="#63b8ff" d="M253.98,-105.9C276.51,-96.11 307.17,-82.79 327.01,-74.17"/>
<polygon fill="#63b8ff" stroke="#63b8ff" points="252.35,-102.79 244.57,-109.98 255.14,-109.21 252.35,-102.79"/>
</g>
<!-- Node4&#45;&gt;Node2 -->
<g id="edge5" class="edge">
<title>Node4&#45;&gt;Node2</title>
<path fill="none" stroke="#63b8ff" d="M132.14,-52.31C168.63,-42.39 221.14,-28.12 254.4,-19.08"/>
<polygon fill="#63b8ff" stroke="#63b8ff" points="131.03,-48.98 122.3,-54.98 132.87,-55.74 131.03,-48.98"/>
</g>
<!-- Node5&#45;&gt;Node2 -->
<g id="edge7" class="edge">
<title>Node5&#45;&gt;Node2</title>
<path fill="none" stroke="#63b8ff" d="M242.44,-48.32C253.31,-38.87 266.91,-27.06 275.99,-19.17"/>
<polygon fill="#63b8ff" stroke="#63b8ff" points="240.02,-45.78 234.77,-54.98 244.62,-51.07 240.02,-45.78"/>
</g>
<!-- Node6&#45;&gt;Node2 -->
<g id="edge9" class="edge">
<title>Node6&#45;&gt;Node2</title>
<path fill="none" stroke="#63b8ff" d="M329.5,-48.32C318.63,-38.87 305.03,-27.06 295.95,-19.17"/>
<polygon fill="#63b8ff" stroke="#63b8ff" points="327.33,-51.07 337.17,-54.98 331.92,-45.78 327.33,-51.07"/>
</g>
<!-- Node7&#45;&gt;Node2 -->
<g id="edge11" class="edge">
<title>Node7&#45;&gt;Node2</title>
<path fill="none" stroke="#63b8ff" d="M427.1,-52.06C393.46,-42.15 345.56,-28.04 315.12,-19.08"/>
<polygon fill="#63b8ff" stroke="#63b8ff" points="426.47,-55.52 437.05,-54.98 428.45,-48.8 426.47,-55.52"/>
</g>
<!-- Node8&#45;&gt;Node2 -->
<g id="edge13" class="edge">
<title>Node8&#45;&gt;Node2</title>
<path fill="none" stroke="#63b8ff" d="M489.57,-105.15C512.38,-92.7 538.19,-73.34 522.97,-55 497.37,-24.15 377.45,-14.55 318.65,-11.68"/>
<polygon fill="#63b8ff" stroke="#63b8ff" points="487.7,-102.18 480.42,-109.89 490.91,-108.4 487.7,-102.18"/>
</g>
<!-- Node9&#45;&gt;Node2 -->
<g id="edge15" class="edge">
<title>Node9&#45;&gt;Node2</title>
<path fill="none" stroke="#63b8ff" d="M573.1,-100.36C566.58,-85.73 555.34,-65.86 538.97,-55 503.3,-31.33 378.82,-18.13 318.81,-13.01"/>
<polygon fill="#63b8ff" stroke="#63b8ff" points="569.97,-101.96 577.01,-109.88 576.45,-99.3 569.97,-101.96"/>
</g>
</g>
</svg>
