<?xml version="1.0" encoding="UTF-8" standalone="no"?>
<!DOCTYPE svg PUBLIC "-//W3C//DTD SVG 1.1//EN"
 "http://www.w3.org/Graphics/SVG/1.1/DTD/svg11.dtd">
<!-- Generated by graphviz version 9.0.0 (20230911.1827)
 -->
<!-- Title: jngl/Rgb.hpp Pages: 1 -->
<svg width="634pt" height="248pt"
 viewBox="0.00 0.00 634.39 248.25" xmlns="http://www.w3.org/2000/svg" xmlns:xlink="http://www.w3.org/1999/xlink">
<g id="graph0" class="graph" transform="scale(1 1) rotate(0) translate(4 244.25)">
<title>jngl/Rgb.hpp</title>
<!-- Node1 -->
<g id="Node000001" class="node">
<title>Node1</title>
<g id="a_Node000001"><a xlink:title="Contains jngl::Rgb class.">
<polygon fill="#999999" stroke="#666666" points="386.39,-240.25 298.39,-240.25 298.39,-221 386.39,-221 386.39,-240.25"/>
<text text-anchor="middle" x="342.39" y="-226.75" font-family="ui-monospace,monospace" font-size="10.00">jngl/Rgb.hpp</text>
</a>
</g>
</g>
<!-- Node2 -->
<g id="Node000002" class="node">
<title>Node2</title>
<g id="a_Node000002"><a xlink:href="jngl_8hpp.html" target="_top" xlink:title="Includes all JNGL headers except for init.hpp.">
<polygon fill="white" stroke="#666666" points="350.39,-19.25 286.39,-19.25 286.39,0 350.39,0 350.39,-19.25"/>
<text text-anchor="middle" x="318.39" y="-5.75" font-family="ui-monospace,monospace" font-size="10.00">jngl.hpp</text>
</a>
</g>
</g>
<!-- Node1&#45;&gt;Node2 -->
<g id="edge1_Node000001_Node000002" class="edge">
<title>Node1&#45;&gt;Node2</title>
<g id="a_edge1_Node000001_Node000002"><a xlink:title=" ">
<path fill="none" stroke="#63b8ff" d="M287.07,-221.6C174.16,-203.04 -65.4,-151.22 17.39,-55.25 51.81,-15.35 215.38,-10.54 285.91,-10.36"/>
<polygon fill="#63b8ff" stroke="#63b8ff" points="286.31,-225.02 296.74,-223.15 287.42,-218.11 286.31,-225.02"/>
</a>
</g>
</g>
<!-- Node3 -->
<g id="Node000003" class="node">
<title>Node3</title>
<g id="a_Node000003"><a xlink:href="Color_8hpp.html" target="_top" xlink:title="Contains jngl::Color class.">
<polygon fill="white" stroke="#666666" points="204.39,-129.75 104.39,-129.75 104.39,-110.5 204.39,-110.5 204.39,-129.75"/>
<text text-anchor="middle" x="154.39" y="-116.25" font-family="ui-monospace,monospace" font-size="10.00">jngl/Color.hpp</text>
</a>
</g>
</g>
<!-- Node1&#45;&gt;Node3 -->
<g id="edge2_Node000001_Node000003" class="edge">
<title>Node1&#45;&gt;Node3</title>
<g id="a_edge2_Node000001_Node000003"><a xlink:title=" ">
<path fill="none" stroke="#63b8ff" d="M298.75,-216.97C276.24,-209.44 248.86,-198.67 226.39,-185 200.41,-169.2 174.98,-143.58 162.45,-130.09"/>
<polygon fill="#63b8ff" stroke="#63b8ff" points="297.66,-220.3 308.26,-220.04 299.82,-213.64 297.66,-220.3"/>
</a>
</g>
</g>
<!-- Node6 -->
<g id="Node000006" class="node">
<title>Node6</title>
<g id="a_Node000006"><a xlink:href="Label_8hpp.html" target="_top" xlink:title="Contains jngl::Label class.">
<polygon fill="white" stroke="#666666" points="335.39,-185 235.39,-185 235.39,-165.75 335.39,-165.75 335.39,-185"/>
<text text-anchor="middle" x="285.39" y="-171.5" font-family="ui-monospace,monospace" font-size="10.00">jngl/Label.hpp</text>
</a>
</g>
</g>
<!-- Node1&#45;&gt;Node6 -->
<g id="edge8_Node000001_Node000006" class="edge">
<title>Node1&#45;&gt;Node6</title>
<g id="a_edge8_Node000001_Node000006"><a xlink:title=" ">
<path fill="none" stroke="#63b8ff" d="M324.44,-212.86C314.66,-203.72 302.95,-192.78 294.92,-185.27"/>
<polygon fill="#63b8ff" stroke="#63b8ff" points="321.92,-215.29 331.62,-219.56 326.7,-210.17 321.92,-215.29"/>
</a>
</g>
</g>
<!-- Node7 -->
<g id="Node000007" class="node">
<title>Node7</title>
<g id="a_Node000007"><a xlink:href="Rgba_8hpp.html" target="_top" xlink:title="Contains jngl::Rgba class.">
<polygon fill="white" stroke="#666666" points="447.39,-185 353.39,-185 353.39,-165.75 447.39,-165.75 447.39,-185"/>
<text text-anchor="middle" x="400.39" y="-171.5" font-family="ui-monospace,monospace" font-size="10.00">jngl/Rgba.hpp</text>
</a>
</g>
</g>
<!-- Node1&#45;&gt;Node7 -->
<g id="edge10_Node000001_Node000007" class="edge">
<title>Node1&#45;&gt;Node7</title>
<g id="a_edge10_Node000001_Node000007"><a xlink:title=" ">
<path fill="none" stroke="#63b8ff" d="M360.65,-212.86C370.61,-203.72 382.53,-192.78 390.7,-185.27"/>
<polygon fill="#63b8ff" stroke="#63b8ff" points="358.34,-210.23 353.34,-219.57 363.08,-215.38 358.34,-210.23"/>
</a>
</g>
</g>
<!-- Node8 -->
<g id="Node000008" class="node">
<title>Node8</title>
<g id="a_Node000008"><a xlink:href="font_8hpp.html" target="_top" xlink:title="Contains jngl::Font class and related functions.">
<polygon fill="white" stroke="#666666" points="502.39,-129.75 408.39,-129.75 408.39,-110.5 502.39,-110.5 502.39,-129.75"/>
<text text-anchor="middle" x="455.39" y="-116.25" font-family="ui-monospace,monospace" font-size="10.00">jngl/font.hpp</text>
</a>
</g>
</g>
<!-- Node1&#45;&gt;Node8 -->
<g id="edge18_Node000001_Node000008" class="edge">
<title>Node1&#45;&gt;Node8</title>
<g id="a_edge18_Node000001_Node000008"><a xlink:title=" ">
<path fill="none" stroke="#63b8ff" d="M397.75,-221.68C419.81,-215.51 443.07,-204.52 456.39,-185 467.77,-168.33 462.46,-143.08 458.45,-129.87"/>
<polygon fill="#63b8ff" stroke="#63b8ff" points="397.07,-218.25 388.2,-224.06 398.75,-225.04 397.07,-218.25"/>
</a>
</g>
</g>
<!-- Node10 -->
<g id="Node000010" class="node">
<title>Node10</title>
<g id="a_Node000010"><a xlink:href="sprite_8hpp.html" target="_top" xlink:title="Contains jngl::Sprite class and related functions.">
<polygon fill="white" stroke="#666666" points="626.39,-129.75 520.39,-129.75 520.39,-110.5 626.39,-110.5 626.39,-129.75"/>
<text text-anchor="middle" x="573.39" y="-116.25" font-family="ui-monospace,monospace" font-size="10.00">jngl/sprite.hpp</text>
</a>
</g>
</g>
<!-- Node1&#45;&gt;Node10 -->
<g id="edge19_Node000001_Node000010" class="edge">
<title>Node1&#45;&gt;Node10</title>
<g id="a_edge19_Node000001_Node000010"><a xlink:title=" ">
<path fill="none" stroke="#63b8ff" d="M387.07,-217.32C412.9,-209.5 445.67,-198.34 473.39,-185 506.99,-168.84 543.07,-143.6 561.32,-130.2"/>
<polygon fill="#63b8ff" stroke="#63b8ff" points="386.15,-213.94 377.55,-220.14 388.14,-220.66 386.15,-213.94"/>
</a>
</g>
</g>
<!-- Node3&#45;&gt;Node2 -->
<g id="edge3_Node000003_Node000002" class="edge">
<title>Node3&#45;&gt;Node2</title>
<g id="a_edge3_Node000003_Node000002"><a xlink:title=" ">
<path fill="none" stroke="#63b8ff" d="M93.04,-109.43C49.83,-100.01 3.58,-82.99 27.39,-55.25 60.43,-16.76 217.19,-11.13 285.94,-10.54"/>
<polygon fill="#63b8ff" stroke="#63b8ff" points="92.23,-112.84 102.73,-111.42 93.64,-105.98 92.23,-112.84"/>
</a>
</g>
</g>
<!-- Node4 -->
<g id="Node000004" class="node">
<title>Node4</title>
<g id="a_Node000004"><a xlink:href="FrameBuffer_8hpp.html" target="_top" xlink:title="Contains jngl::FrameBuffer class.">
<polygon fill="white" stroke="#666666" points="166.39,-74.5 36.39,-74.5 36.39,-55.25 166.39,-55.25 166.39,-74.5"/>
<text text-anchor="middle" x="101.39" y="-61" font-family="ui-monospace,monospace" font-size="10.00">jngl/FrameBuffer.hpp</text>
</a>
</g>
</g>
<!-- Node3&#45;&gt;Node4 -->
<g id="edge4_Node000003_Node000004" class="edge">
<title>Node3&#45;&gt;Node4</title>
<g id="a_edge4_Node000003_Node000004"><a xlink:title=" ">
<path fill="none" stroke="#63b8ff" d="M137.67,-102.32C128.61,-93.23 117.79,-82.35 110.33,-74.86"/>
<polygon fill="#63b8ff" stroke="#63b8ff" points="135.04,-104.64 144.57,-109.26 140,-99.7 135.04,-104.64"/>
</a>
</g>
</g>
<!-- Node5 -->
<g id="Node000005" class="node">
<title>Node5</title>
<g id="a_Node000005"><a xlink:href="shapes_8hpp.html" target="_top" xlink:title="Functions for drawing shapes.">
<polygon fill="white" stroke="#666666" points="290.39,-74.5 184.39,-74.5 184.39,-55.25 290.39,-55.25 290.39,-74.5"/>
<text text-anchor="middle" x="237.39" y="-61" font-family="ui-monospace,monospace" font-size="10.00">jngl/shapes.hpp</text>
</a>
</g>
</g>
<!-- Node3&#45;&gt;Node5 -->
<g id="edge6_Node000003_Node000005" class="edge">
<title>Node3&#45;&gt;Node5</title>
<g id="a_edge6_Node000003_Node000005"><a xlink:title=" ">
<path fill="none" stroke="#63b8ff" d="M177.88,-104.05C192.5,-94.67 210.82,-82.92 223.24,-74.95"/>
<polygon fill="#63b8ff" stroke="#63b8ff" points="176.27,-100.93 169.74,-109.27 180.05,-106.82 176.27,-100.93"/>
</a>
</g>
</g>
<!-- Node4&#45;&gt;Node2 -->
<g id="edge5_Node000004_Node000002" class="edge">
<title>Node4&#45;&gt;Node2</title>
<g id="a_edge5_Node000004_Node000002"><a xlink:title=" ">
<path fill="none" stroke="#63b8ff" d="M149.16,-52.15C190.7,-41.96 249.77,-27.46 286.01,-18.57"/>
<polygon fill="#63b8ff" stroke="#63b8ff" points="148.55,-48.7 139.67,-54.48 150.22,-55.5 148.55,-48.7"/>
</a>
</g>
</g>
<!-- Node5&#45;&gt;Node2 -->
<g id="edge7_Node000005_Node000002" class="edge">
<title>Node5&#45;&gt;Node2</title>
<g id="a_edge7_Node000005_Node000002"><a xlink:title=" ">
<path fill="none" stroke="#63b8ff" d="M260.73,-48.53C274.93,-39.2 292.58,-27.6 304.58,-19.7"/>
<polygon fill="#63b8ff" stroke="#63b8ff" points="258.83,-45.59 252.4,-54.01 262.67,-51.44 258.83,-45.59"/>
</a>
</g>
</g>
<!-- Node6&#45;&gt;Node2 -->
<g id="edge9_Node000006_Node000002" class="edge">
<title>Node6&#45;&gt;Node2</title>
<g id="a_edge9_Node000006_Node000002"><a xlink:title=" ">
<path fill="none" stroke="#63b8ff" d="M289.36,-154.69C296.55,-119 311.47,-44.96 316.61,-19.47"/>
<polygon fill="#63b8ff" stroke="#63b8ff" points="286.01,-153.59 287.46,-164.09 292.87,-154.98 286.01,-153.59"/>
</a>
</g>
</g>
<!-- Node7&#45;&gt;Node2 -->
<g id="edge11_Node000007_Node000002" class="edge">
<title>Node7&#45;&gt;Node2</title>
<g id="a_edge11_Node000007_Node000002"><a xlink:title=" ">
<path fill="none" stroke="#63b8ff" d="M391,-155.62C373.31,-120.3 335.7,-45.18 322.82,-19.47"/>
<polygon fill="#63b8ff" stroke="#63b8ff" points="387.7,-156.84 395.3,-164.22 393.96,-153.71 387.7,-156.84"/>
</a>
</g>
</g>
<!-- Node7&#45;&gt;Node8 -->
<g id="edge12_Node000007_Node000008" class="edge">
<title>Node7&#45;&gt;Node8</title>
<g id="a_edge12_Node000007_Node000008"><a xlink:title=" ">
<path fill="none" stroke="#63b8ff" d="M417.74,-157.57C427.14,-148.48 438.37,-137.6 446.11,-130.11"/>
<polygon fill="#63b8ff" stroke="#63b8ff" points="415.31,-155.06 410.56,-164.53 420.18,-160.09 415.31,-155.06"/>
</a>
</g>
</g>
<!-- Node7&#45;&gt;Node10 -->
<g id="edge16_Node000007_Node000010" class="edge">
<title>Node7&#45;&gt;Node10</title>
<g id="a_edge16_Node000007_Node000010"><a xlink:title=" ">
<path fill="none" stroke="#63b8ff" d="M440.38,-162.07C471.99,-152.34 515.39,-138.98 543.9,-130.2"/>
<polygon fill="#63b8ff" stroke="#63b8ff" points="439.71,-158.61 431.18,-164.9 441.77,-165.3 439.71,-158.61"/>
</a>
</g>
</g>
<!-- Node8&#45;&gt;Node2 -->
<g id="edge13_Node000008_Node000002" class="edge">
<title>Node8&#45;&gt;Node2</title>
<g id="a_edge13_Node000008_Node000002"><a xlink:title=" ">
<path fill="none" stroke="#63b8ff" d="M493.93,-105.93C521.93,-94.26 552.22,-75.89 535.39,-55.25 512.42,-27.08 405.09,-16.18 350.48,-12.41"/>
<polygon fill="#63b8ff" stroke="#63b8ff" points="492.84,-102.6 484.81,-109.52 495.4,-109.11 492.84,-102.6"/>
</a>
</g>
</g>
<!-- Node9 -->
<g id="Node000009" class="node">
<title>Node9</title>
<g id="a_Node000009"><a xlink:href="OutlinedFont_8hpp.html" target="_top" xlink:title="Contains jngl::OutlinedFont class.">
<polygon fill="white" stroke="#666666" points="526.39,-74.5 384.39,-74.5 384.39,-55.25 526.39,-55.25 526.39,-74.5"/>
<text text-anchor="middle" x="455.39" y="-61" font-family="ui-monospace,monospace" font-size="10.00">jngl/OutlinedFont.hpp</text>
</a>
</g>
</g>
<!-- Node8&#45;&gt;Node9 -->
<g id="edge14_Node000008_Node000009" class="edge">
<title>Node8&#45;&gt;Node9</title>
<g id="a_edge14_Node000008_Node000009"><a xlink:title=" ">
<path fill="none" stroke="#63b8ff" d="M455.39,-98.88C455.39,-90.59 455.39,-81.42 455.39,-74.86"/>
<polygon fill="#63b8ff" stroke="#63b8ff" points="451.89,-98.82 455.39,-108.82 458.89,-98.82 451.89,-98.82"/>
</a>
</g>
</g>
<!-- Node9&#45;&gt;Node2 -->
<g id="edge15_Node000009_Node000002" class="edge">
<title>Node9&#45;&gt;Node2</title>
<g id="a_edge15_Node000009_Node000002"><a xlink:title=" ">
<path fill="none" stroke="#63b8ff" d="M421.73,-50.79C396.9,-41.14 363.73,-28.25 341.74,-19.7"/>
<polygon fill="#63b8ff" stroke="#63b8ff" points="420.15,-53.93 430.74,-54.29 422.69,-47.41 420.15,-53.93"/>
</a>
</g>
</g>
<!-- Node10&#45;&gt;Node2 -->
<g id="edge17_Node000010_Node000002" class="edge">
<title>Node10&#45;&gt;Node2</title>
<g id="a_edge17_Node000010_Node000002"><a xlink:title=" ">
<path fill="none" stroke="#63b8ff" d="M571.69,-98.99C569.39,-84.7 564,-66.18 551.39,-55.25 521.75,-29.55 407.2,-17.39 350.52,-12.85"/>
<polygon fill="#63b8ff" stroke="#63b8ff" points="568.18,-99.14 572.84,-108.66 575.13,-98.32 568.18,-99.14"/>
</a>
</g>
</g>
</g>
</svg>
