<?xml version="1.0" encoding="UTF-8" standalone="no"?>
<!DOCTYPE svg PUBLIC "-//W3C//DTD SVG 1.1//EN"
 "http://www.w3.org/Graphics/SVG/1.1/DTD/svg11.dtd">
<!-- Generated by graphviz version 5.0.0 (0)
 -->
<!-- Title: jngl/Rgb.hpp Pages: 1 -->
<svg width="667pt" height="192pt"
 viewBox="0.00 0.00 667.13 192.00" xmlns="http://www.w3.org/2000/svg" xmlns:xlink="http://www.w3.org/1999/xlink">
<g id="graph0" class="graph" transform="scale(1 1) rotate(0) translate(4 188)">
<title>jngl/Rgb.hpp</title>
<!-- Node1 -->
<g id="node1" class="node">
<title>Node1</title>
<g id="a_node1"><a xlink:title="Contains jngl::Rgb class.">
<polygon fill="#999999" stroke="#666666" points="333.07,-184 244.07,-184 244.07,-165 333.07,-165 333.07,-184"/>
<text text-anchor="middle" x="288.57" y="-172" font-family="ui-monospace,monospace" font-size="10.00">jngl/Rgb.hpp</text>
</a>
</g>
</g>
<!-- Node2 -->
<g id="node2" class="node">
<title>Node2</title>
<g id="a_node2"><a xlink:href="jngl_8hpp.html" target="_top" xlink:title="Includes all JNGL headers except for init.hpp.">
<polygon fill="white" stroke="#666666" points="321.07,-19 256.07,-19 256.07,0 321.07,0 321.07,-19"/>
<text text-anchor="middle" x="288.57" y="-7" font-family="ui-monospace,monospace" font-size="10.00">jngl.hpp</text>
</a>
</g>
</g>
<!-- Node1&#45;&gt;Node2 -->
<g id="edge1" class="edge">
<title>Node1&#45;&gt;Node2</title>
<path fill="none" stroke="#63b8ff" d="M233.77,-169.27C136.3,-159.72 -51.19,-131.09 13.57,-55 44.37,-18.82 189.91,-11.96 255.9,-10.73"/>
<polygon fill="#63b8ff" stroke="#63b8ff" points="233.48,-172.75 243.77,-170.21 234.14,-165.78 233.48,-172.75"/>
</g>
<!-- Node3 -->
<g id="node3" class="node">
<title>Node3</title>
<g id="a_node3"><a xlink:href="Color_8hpp.html" target="_top" xlink:title="Contains jngl::Color class.">
<polygon fill="white" stroke="#666666" points="339.07,-129 238.07,-129 238.07,-110 339.07,-110 339.07,-129"/>
<text text-anchor="middle" x="288.57" y="-117" font-family="ui-monospace,monospace" font-size="10.00">jngl/Color.hpp</text>
</a>
</g>
</g>
<!-- Node1&#45;&gt;Node3 -->
<g id="edge2" class="edge">
<title>Node1&#45;&gt;Node3</title>
<path fill="none" stroke="#63b8ff" d="M288.57,-154.66C288.57,-145.93 288.57,-135.99 288.57,-129.09"/>
<polygon fill="#63b8ff" stroke="#63b8ff" points="285.07,-154.75 288.57,-164.75 292.07,-154.75 285.07,-154.75"/>
</g>
<!-- Node9 -->
<g id="node9" class="node">
<title>Node9</title>
<g id="a_node9"><a xlink:href="Rgba_8hpp.html" target="_top" xlink:title="Contains jngl::Rgba class.">
<polygon fill="white" stroke="#666666" points="615.07,-129 520.07,-129 520.07,-110 615.07,-110 615.07,-129"/>
<text text-anchor="middle" x="567.57" y="-117" font-family="ui-monospace,monospace" font-size="10.00">jngl/Rgba.hpp</text>
</a>
</g>
</g>
<!-- Node1&#45;&gt;Node9 -->
<g id="edge14" class="edge">
<title>Node1&#45;&gt;Node9</title>
<path fill="none" stroke="#63b8ff" d="M343.21,-163.12C395.65,-153.16 473.88,-138.3 522.75,-129.01"/>
<polygon fill="#63b8ff" stroke="#63b8ff" points="342.26,-159.74 333.09,-165.04 343.57,-166.62 342.26,-159.74"/>
</g>
<!-- Node3&#45;&gt;Node2 -->
<g id="edge3" class="edge">
<title>Node3&#45;&gt;Node2</title>
<path fill="none" stroke="#63b8ff" d="M227.92,-117.16C157.44,-114.17 47.48,-104.59 21.57,-74 16.11,-67.56 16.11,-61.44 21.57,-55 51.26,-19.95 191.32,-12.48 255.86,-10.91"/>
<polygon fill="#63b8ff" stroke="#63b8ff" points="227.89,-120.66 238.01,-117.55 228.16,-113.67 227.89,-120.66"/>
</g>
<!-- Node4 -->
<g id="node4" class="node">
<title>Node4</title>
<g id="a_node4"><a xlink:href="FrameBuffer_8hpp.html" target="_top" xlink:title="Contains jngl::FrameBuffer class.">
<polygon fill="white" stroke="#666666" points="162.07,-74 31.07,-74 31.07,-55 162.07,-55 162.07,-74"/>
<text text-anchor="middle" x="96.57" y="-62" font-family="ui-monospace,monospace" font-size="10.00">jngl/FrameBuffer.hpp</text>
</a>
</g>
</g>
<!-- Node3&#45;&gt;Node4 -->
<g id="edge4" class="edge">
<title>Node3&#45;&gt;Node4</title>
<path fill="none" stroke="#63b8ff" d="M248.04,-107.31C212.11,-97.39 160.41,-83.12 127.66,-74.08"/>
<polygon fill="#63b8ff" stroke="#63b8ff" points="247.15,-110.7 257.72,-109.98 249.01,-103.95 247.15,-110.7"/>
</g>
<!-- Node5 -->
<g id="node5" class="node">
<title>Node5</title>
<g id="a_node5"><a xlink:href="Label_8hpp.html" target="_top" xlink:title="Contains jngl::Label class.">
<polygon fill="white" stroke="#666666" points="281.07,-74 180.07,-74 180.07,-55 281.07,-55 281.07,-74"/>
<text text-anchor="middle" x="230.57" y="-62" font-family="ui-monospace,monospace" font-size="10.00">jngl/Label.hpp</text>
</a>
</g>
</g>
<!-- Node3&#45;&gt;Node5 -->
<g id="edge6" class="edge">
<title>Node3&#45;&gt;Node5</title>
<path fill="none" stroke="#63b8ff" d="M271.66,-103.04C261.37,-93.64 248.61,-81.98 240.06,-74.17"/>
<polygon fill="#63b8ff" stroke="#63b8ff" points="269.51,-105.82 279.25,-109.98 274.23,-100.66 269.51,-105.82"/>
</g>
<!-- Node6 -->
<g id="node6" class="node">
<title>Node6</title>
<g id="a_node6"><a xlink:href="font_8hpp.html" target="_top" xlink:title="Contains jngl::Font class and related functions.">
<polygon fill="white" stroke="#666666" points="394.07,-74 299.07,-74 299.07,-55 394.07,-55 394.07,-74"/>
<text text-anchor="middle" x="346.57" y="-62" font-family="ui-monospace,monospace" font-size="10.00">jngl/font.hpp</text>
</a>
</g>
</g>
<!-- Node3&#45;&gt;Node6 -->
<g id="edge8" class="edge">
<title>Node3&#45;&gt;Node6</title>
<path fill="none" stroke="#63b8ff" d="M305.48,-103.04C315.77,-93.64 328.54,-81.98 337.08,-74.17"/>
<polygon fill="#63b8ff" stroke="#63b8ff" points="302.91,-100.66 297.89,-109.98 307.63,-105.82 302.91,-100.66"/>
</g>
<!-- Node7 -->
<g id="node7" class="node">
<title>Node7</title>
<g id="a_node7"><a xlink:href="shapes_8hpp.html" target="_top" xlink:title="Functions for drawing shapes.">
<polygon fill="white" stroke="#666666" points="519.07,-74 412.07,-74 412.07,-55 519.07,-55 519.07,-74"/>
<text text-anchor="middle" x="465.57" y="-62" font-family="ui-monospace,monospace" font-size="10.00">jngl/shapes.hpp</text>
</a>
</g>
</g>
<!-- Node3&#45;&gt;Node7 -->
<g id="edge10" class="edge">
<title>Node3&#45;&gt;Node7</title>
<path fill="none" stroke="#63b8ff" d="M326.79,-107.06C359.87,-97.15 406.98,-83.04 436.91,-74.08"/>
<polygon fill="#63b8ff" stroke="#63b8ff" points="325.59,-103.76 317.01,-109.98 327.59,-110.47 325.59,-103.76"/>
</g>
<!-- Node8 -->
<g id="node8" class="node">
<title>Node8</title>
<g id="a_node8"><a xlink:href="sprite_8hpp.html" target="_top" xlink:title="Contains jngl::Sprite class and related functions.">
<polygon fill="white" stroke="#666666" points="644.07,-74 537.07,-74 537.07,-55 644.07,-55 644.07,-74"/>
<text text-anchor="middle" x="590.57" y="-62" font-family="ui-monospace,monospace" font-size="10.00">jngl/sprite.hpp</text>
</a>
</g>
</g>
<!-- Node3&#45;&gt;Node8 -->
<g id="edge12" class="edge">
<title>Node3&#45;&gt;Node8</title>
<path fill="none" stroke="#63b8ff" d="M346.99,-108.25C403.7,-98.3 488.78,-83.36 541.92,-74.04"/>
<polygon fill="#63b8ff" stroke="#63b8ff" points="346.34,-104.81 337.09,-109.98 347.55,-111.7 346.34,-104.81"/>
</g>
<!-- Node4&#45;&gt;Node2 -->
<g id="edge5" class="edge">
<title>Node4&#45;&gt;Node2</title>
<path fill="none" stroke="#63b8ff" d="M137.11,-52.31C173.03,-42.39 224.73,-28.12 257.48,-19.08"/>
<polygon fill="#63b8ff" stroke="#63b8ff" points="136.13,-48.95 127.42,-54.98 137.99,-55.7 136.13,-48.95"/>
</g>
<!-- Node5&#45;&gt;Node2 -->
<g id="edge7" class="edge">
<title>Node5&#45;&gt;Node2</title>
<path fill="none" stroke="#63b8ff" d="M247.48,-48.04C257.77,-38.64 270.54,-26.98 279.08,-19.17"/>
<polygon fill="#63b8ff" stroke="#63b8ff" points="244.91,-45.66 239.89,-54.98 249.63,-50.82 244.91,-45.66"/>
</g>
<!-- Node6&#45;&gt;Node2 -->
<g id="edge9" class="edge">
<title>Node6&#45;&gt;Node2</title>
<path fill="none" stroke="#63b8ff" d="M329.66,-48.04C319.37,-38.64 306.61,-26.98 298.06,-19.17"/>
<polygon fill="#63b8ff" stroke="#63b8ff" points="327.51,-50.82 337.25,-54.98 332.23,-45.66 327.51,-50.82"/>
</g>
<!-- Node7&#45;&gt;Node2 -->
<g id="edge11" class="edge">
<title>Node7&#45;&gt;Node2</title>
<path fill="none" stroke="#63b8ff" d="M427.35,-52.06C394.27,-42.15 347.16,-28.04 317.23,-19.08"/>
<polygon fill="#63b8ff" stroke="#63b8ff" points="426.55,-55.47 437.13,-54.98 428.56,-48.76 426.55,-55.47"/>
</g>
<!-- Node8&#45;&gt;Node2 -->
<g id="edge13" class="edge">
<title>Node8&#45;&gt;Node2</title>
<path fill="none" stroke="#63b8ff" d="M531.89,-53.2C469.02,-42.17 371.52,-25.06 321.15,-16.22"/>
<polygon fill="#63b8ff" stroke="#63b8ff" points="531.6,-56.7 542.05,-54.98 532.81,-49.81 531.6,-56.7"/>
</g>
<!-- Node9&#45;&gt;Node2 -->
<g id="edge15" class="edge">
<title>Node9&#45;&gt;Node2</title>
<path fill="none" stroke="#63b8ff" d="M606.76,-106.45C637.62,-94.99 672.5,-76.38 653.57,-55 631.67,-30.27 406.54,-16.44 321.16,-12.05"/>
<polygon fill="#63b8ff" stroke="#63b8ff" points="605.23,-103.28 596.96,-109.91 607.56,-109.88 605.23,-103.28"/>
</g>
</g>
</svg>
