<?xml version="1.0" encoding="UTF-8" standalone="no"?>
<!DOCTYPE svg PUBLIC "-//W3C//DTD SVG 1.1//EN"
 "http://www.w3.org/Graphics/SVG/1.1/DTD/svg11.dtd">
<!-- Generated by graphviz version 9.0.0 (20230911.1827)
 -->
<!-- Title: jngl/Rgb.hpp Pages: 1 -->
<svg width="857pt" height="248pt"
 viewBox="0.00 0.00 856.54 248.25" xmlns="http://www.w3.org/2000/svg" xmlns:xlink="http://www.w3.org/1999/xlink">
<g id="graph0" class="graph" transform="scale(1 1) rotate(0) translate(4 244.25)">
<title>jngl/Rgb.hpp</title>
<!-- Node1 -->
<g id="Node000001" class="node">
<title>Node1</title>
<g id="a_Node000001"><a xlink:title="Contains jngl::Rgb class.">
<polygon fill="#999999" stroke="#666666" points="480.53,-240.25 392.53,-240.25 392.53,-221 480.53,-221 480.53,-240.25"/>
<text text-anchor="middle" x="436.53" y="-226.75" font-family="ui-monospace,monospace" font-size="10.00">jngl/Rgb.hpp</text>
</a>
</g>
</g>
<!-- Node2 -->
<g id="Node000002" class="node">
<title>Node2</title>
<g id="a_Node000002"><a xlink:href="jngl_8hpp.html" target="_top" xlink:title="Includes all JNGL headers except for init.hpp.">
<polygon fill="white" stroke="#666666" points="508.53,-19.25 444.53,-19.25 444.53,0 508.53,0 508.53,-19.25"/>
<text text-anchor="middle" x="476.53" y="-5.75" font-family="ui-monospace,monospace" font-size="10.00">jngl.hpp</text>
</a>
</g>
</g>
<!-- Node1&#45;&gt;Node2 -->
<g id="edge1_Node000001_Node000002" class="edge">
<title>Node1&#45;&gt;Node2</title>
<g id="a_edge1_Node000001_Node000002"><a xlink:title=" ">
<path fill="none" stroke="#63b8ff" d="M380.92,-225.76C244.85,-214.37 -86.09,-173.95 21.53,-55.25 49.86,-24.01 344.67,-13.89 444.04,-11.35"/>
<polygon fill="#63b8ff" stroke="#63b8ff" points="380.54,-229.24 390.79,-226.56 381.11,-222.26 380.54,-229.24"/>
</a>
</g>
</g>
<!-- Node3 -->
<g id="Node000003" class="node">
<title>Node3</title>
<g id="a_Node000003"><a xlink:href="Color_8hpp.html" target="_top" xlink:title="Contains jngl::Color class.">
<polygon fill="white" stroke="#666666" points="130.53,-74.5 30.53,-74.5 30.53,-55.25 130.53,-55.25 130.53,-74.5"/>
<text text-anchor="middle" x="80.53" y="-61" font-family="ui-monospace,monospace" font-size="10.00">jngl/Color.hpp</text>
</a>
</g>
</g>
<!-- Node1&#45;&gt;Node3 -->
<g id="edge2_Node000001_Node000003" class="edge">
<title>Node1&#45;&gt;Node3</title>
<g id="a_edge2_Node000001_Node000003"><a xlink:title=" ">
<path fill="none" stroke="#63b8ff" d="M406.43,-215.78C335.44,-183.13 159.12,-102.02 100.12,-74.88"/>
<polygon fill="#63b8ff" stroke="#63b8ff" points="404.96,-218.96 415.51,-219.96 407.89,-212.6 404.96,-218.96"/>
</a>
</g>
</g>
<!-- Node4 -->
<g id="Node000004" class="node">
<title>Node4</title>
<g id="a_Node000004"><a xlink:href="Label_8hpp.html" target="_top" xlink:title="Contains jngl::Label class.">
<polygon fill="white" stroke="#666666" points="248.53,-74.5 148.53,-74.5 148.53,-55.25 248.53,-55.25 248.53,-74.5"/>
<text text-anchor="middle" x="198.53" y="-61" font-family="ui-monospace,monospace" font-size="10.00">jngl/Label.hpp</text>
</a>
</g>
</g>
<!-- Node1&#45;&gt;Node4 -->
<g id="edge4_Node000001_Node000004" class="edge">
<title>Node1&#45;&gt;Node4</title>
<g id="a_edge4_Node000001_Node000004"><a xlink:title=" ">
<path fill="none" stroke="#63b8ff" d="M414.01,-214.13C365.09,-180.47 250.42,-101.58 211.63,-74.88"/>
<polygon fill="#63b8ff" stroke="#63b8ff" points="411.93,-216.95 422.15,-219.73 415.9,-211.18 411.93,-216.95"/>
</a>
</g>
</g>
<!-- Node5 -->
<g id="Node000005" class="node">
<title>Node5</title>
<g id="a_Node000005"><a xlink:href="Rgba_8hpp.html" target="_top" xlink:title="Contains jngl::Rgba class.">
<polygon fill="white" stroke="#666666" points="561.53,-185 467.53,-185 467.53,-165.75 561.53,-165.75 561.53,-185"/>
<text text-anchor="middle" x="514.53" y="-171.5" font-family="ui-monospace,monospace" font-size="10.00">jngl/Rgba.hpp</text>
</a>
</g>
</g>
<!-- Node1&#45;&gt;Node5 -->
<g id="edge6_Node000001_Node000005" class="edge">
<title>Node1&#45;&gt;Node5</title>
<g id="a_edge6_Node000001_Node000005"><a xlink:title=" ">
<path fill="none" stroke="#63b8ff" d="M459.01,-214.28C472.68,-204.95 489.67,-193.35 501.24,-185.45"/>
<polygon fill="#63b8ff" stroke="#63b8ff" points="457.3,-211.21 451.01,-219.74 461.25,-216.99 457.3,-211.21"/>
</a>
</g>
</g>
<!-- Node6 -->
<g id="Node000006" class="node">
<title>Node6</title>
<g id="a_Node000006"><a xlink:href="font_8hpp.html" target="_top" xlink:title="Contains jngl::Font class and related functions.">
<polygon fill="white" stroke="#666666" points="483.53,-129.75 389.53,-129.75 389.53,-110.5 483.53,-110.5 483.53,-129.75"/>
<text text-anchor="middle" x="436.53" y="-116.25" font-family="ui-monospace,monospace" font-size="10.00">jngl/font.hpp</text>
</a>
</g>
</g>
<!-- Node1&#45;&gt;Node6 -->
<g id="edge21_Node000001_Node000006" class="edge">
<title>Node1&#45;&gt;Node6</title>
<g id="a_edge21_Node000001_Node000006"><a xlink:title=" ">
<path fill="none" stroke="#63b8ff" d="M436.53,-209.28C436.53,-185.55 436.53,-147.39 436.53,-130.13"/>
<polygon fill="#63b8ff" stroke="#63b8ff" points="433.03,-209.23 436.53,-219.23 440.03,-209.23 433.03,-209.23"/>
</a>
</g>
</g>
<!-- Node9 -->
<g id="Node000009" class="node">
<title>Node9</title>
<g id="a_Node000009"><a xlink:href="sprite_8hpp.html" target="_top" xlink:title="Contains jngl::Sprite class and related functions.">
<polygon fill="white" stroke="#666666" points="686.53,-129.75 580.53,-129.75 580.53,-110.5 686.53,-110.5 686.53,-129.75"/>
<text text-anchor="middle" x="633.53" y="-116.25" font-family="ui-monospace,monospace" font-size="10.00">jngl/sprite.hpp</text>
</a>
</g>
</g>
<!-- Node1&#45;&gt;Node9 -->
<g id="edge22_Node000001_Node000009" class="edge">
<title>Node1&#45;&gt;Node9</title>
<g id="a_edge22_Node000001_Node000009"><a xlink:title=" ">
<path fill="none" stroke="#63b8ff" d="M491.36,-217.65C516.68,-210.58 546.42,-200.01 570.53,-185 594.86,-169.85 616.76,-143.48 627.16,-129.85"/>
<polygon fill="#63b8ff" stroke="#63b8ff" points="490.66,-214.21 481.9,-220.17 492.46,-220.97 490.66,-214.21"/>
</a>
</g>
</g>
<!-- Node10 -->
<g id="Node000010" class="node">
<title>Node10</title>
<g id="a_Node000010"><a xlink:href="ShaderProgram_8hpp.html" target="_top" xlink:title="Contains jngl::ShaderProgram class.">
<polygon fill="white" stroke="#666666" points="815.53,-185 667.53,-185 667.53,-165.75 815.53,-165.75 815.53,-185"/>
<text text-anchor="middle" x="741.53" y="-171.5" font-family="ui-monospace,monospace" font-size="10.00">jngl/ShaderProgram.hpp</text>
</a>
</g>
</g>
<!-- Node1&#45;&gt;Node10 -->
<g id="edge16_Node000001_Node000010" class="edge">
<title>Node1&#45;&gt;Node10</title>
<g id="a_edge16_Node000001_Node000010"><a xlink:title=" ">
<path fill="none" stroke="#63b8ff" d="M492.05,-219.93C548.26,-210.12 634.52,-195.06 689.46,-185.47"/>
<polygon fill="#63b8ff" stroke="#63b8ff" points="491.62,-216.45 482.37,-221.62 492.83,-223.35 491.62,-216.45"/>
</a>
</g>
</g>
<!-- Node3&#45;&gt;Node2 -->
<g id="edge3_Node000003_Node000002" class="edge">
<title>Node3&#45;&gt;Node2</title>
<g id="a_edge3_Node000003_Node000002"><a xlink:title=" ">
<path fill="none" stroke="#63b8ff" d="M142.09,-54.91C259.71,-38.59 386.39,-22.18 444.45,-14.73"/>
<polygon fill="#63b8ff" stroke="#63b8ff" points="141.66,-51.44 132.24,-56.28 142.62,-58.37 141.66,-51.44"/>
</a>
</g>
</g>
<!-- Node4&#45;&gt;Node2 -->
<g id="edge5_Node000004_Node000002" class="edge">
<title>Node4&#45;&gt;Node2</title>
<g id="a_edge5_Node000004_Node000002"><a xlink:title=" ">
<path fill="none" stroke="#63b8ff" d="M257.03,-52.67C314.07,-41.74 398.71,-25.53 444.43,-16.77"/>
<polygon fill="#63b8ff" stroke="#63b8ff" points="256.66,-49.18 247.49,-54.5 257.97,-56.05 256.66,-49.18"/>
</a>
</g>
</g>
<!-- Node5&#45;&gt;Node2 -->
<g id="edge7_Node000005_Node000002" class="edge">
<title>Node5&#45;&gt;Node2</title>
<g id="a_edge7_Node000005_Node000002"><a xlink:title=" ">
<path fill="none" stroke="#63b8ff" d="M529.13,-156.66C551.77,-128.19 591.56,-73.57 579.53,-55.25 563.92,-31.47 532.61,-20.3 508.59,-15.09"/>
<polygon fill="#63b8ff" stroke="#63b8ff" points="526.47,-154.39 522.9,-164.36 531.91,-158.79 526.47,-154.39"/>
</a>
</g>
</g>
<!-- Node5&#45;&gt;Node6 -->
<g id="edge8_Node000005_Node000006" class="edge">
<title>Node5&#45;&gt;Node6</title>
<g id="a_edge8_Node000005_Node000006"><a xlink:title=" ">
<path fill="none" stroke="#63b8ff" d="M492.06,-159.03C478.39,-149.7 461.39,-138.1 449.83,-130.2"/>
<polygon fill="#63b8ff" stroke="#63b8ff" points="489.82,-161.74 500.05,-164.49 493.76,-155.96 489.82,-161.74"/>
</a>
</g>
</g>
<!-- Node8 -->
<g id="Node000008" class="node">
<title>Node8</title>
<g id="a_Node000008"><a xlink:href="shapes_8hpp.html" target="_top" xlink:title="Functions for drawing shapes.">
<polygon fill="white" stroke="#666666" points="570.53,-74.5 464.53,-74.5 464.53,-55.25 570.53,-55.25 570.53,-74.5"/>
<text text-anchor="middle" x="517.53" y="-61" font-family="ui-monospace,monospace" font-size="10.00">jngl/shapes.hpp</text>
</a>
</g>
</g>
<!-- Node5&#45;&gt;Node8 -->
<g id="edge12_Node000005_Node000008" class="edge">
<title>Node5&#45;&gt;Node8</title>
<g id="a_edge12_Node000005_Node000008"><a xlink:title=" ">
<path fill="none" stroke="#63b8ff" d="M515.09,-154.03C515.75,-130.3 516.81,-92.14 517.28,-74.88"/>
<polygon fill="#63b8ff" stroke="#63b8ff" points="511.6,-153.89 514.82,-163.98 518.59,-154.08 511.6,-153.89"/>
</a>
</g>
</g>
<!-- Node5&#45;&gt;Node9 -->
<g id="edge14_Node000005_Node000009" class="edge">
<title>Node5&#45;&gt;Node9</title>
<g id="a_edge14_Node000005_Node000009"><a xlink:title=" ">
<path fill="none" stroke="#63b8ff" d="M544.93,-160.77C566.37,-151.18 594.49,-138.59 613.25,-130.2"/>
<polygon fill="#63b8ff" stroke="#63b8ff" points="543.8,-157.44 536.1,-164.72 546.66,-163.83 543.8,-157.44"/>
</a>
</g>
</g>
<!-- Node6&#45;&gt;Node2 -->
<g id="edge9_Node000006_Node000002" class="edge">
<title>Node6&#45;&gt;Node2</title>
<g id="a_edge9_Node000006_Node000002"><a xlink:title=" ">
<path fill="none" stroke="#63b8ff" d="M441.53,-99.55C444.99,-86.78 449.97,-69.83 455.53,-55.25 460.35,-42.61 467.22,-28.57 471.78,-19.68"/>
<polygon fill="#63b8ff" stroke="#63b8ff" points="438.25,-98.28 439.09,-108.84 445.02,-100.06 438.25,-98.28"/>
</a>
</g>
</g>
<!-- Node7 -->
<g id="Node000007" class="node">
<title>Node7</title>
<g id="a_Node000007"><a xlink:href="OutlinedFont_8hpp.html" target="_top" xlink:title="Contains jngl::OutlinedFont class.">
<polygon fill="white" stroke="#666666" points="408.53,-74.5 266.53,-74.5 266.53,-55.25 408.53,-55.25 408.53,-74.5"/>
<text text-anchor="middle" x="337.53" y="-61" font-family="ui-monospace,monospace" font-size="10.00">jngl/OutlinedFont.hpp</text>
</a>
</g>
</g>
<!-- Node6&#45;&gt;Node7 -->
<g id="edge10_Node000006_Node000007" class="edge">
<title>Node6&#45;&gt;Node7</title>
<g id="a_edge10_Node000006_Node000007"><a xlink:title=" ">
<path fill="none" stroke="#63b8ff" d="M410.01,-104.86C392.34,-95.36 369.65,-83.15 354.41,-74.95"/>
<polygon fill="#63b8ff" stroke="#63b8ff" points="407.94,-107.72 418.4,-109.37 411.26,-101.56 407.94,-107.72"/>
</a>
</g>
</g>
<!-- Node7&#45;&gt;Node2 -->
<g id="edge11_Node000007_Node000002" class="edge">
<title>Node7&#45;&gt;Node2</title>
<g id="a_edge11_Node000007_Node000002"><a xlink:title=" ">
<path fill="none" stroke="#63b8ff" d="M371.68,-50.79C396.88,-41.14 430.53,-28.25 452.84,-19.7"/>
<polygon fill="#63b8ff" stroke="#63b8ff" points="370.61,-47.45 362.52,-54.3 373.11,-53.99 370.61,-47.45"/>
</a>
</g>
</g>
<!-- Node8&#45;&gt;Node2 -->
<g id="edge13_Node000008_Node000002" class="edge">
<title>Node8&#45;&gt;Node2</title>
<g id="a_edge13_Node000008_Node000002"><a xlink:title=" ">
<path fill="none" stroke="#63b8ff" d="M503.94,-46.22C497.08,-37.31 489.04,-26.87 483.45,-19.61"/>
<polygon fill="#63b8ff" stroke="#63b8ff" points="500.96,-48.09 509.84,-53.88 506.51,-43.82 500.96,-48.09"/>
</a>
</g>
</g>
<!-- Node9&#45;&gt;Node2 -->
<g id="edge15_Node000009_Node000002" class="edge">
<title>Node9&#45;&gt;Node2</title>
<g id="a_edge15_Node000009_Node000002"><a xlink:title=" ">
<path fill="none" stroke="#63b8ff" d="M631.67,-99.04C629.35,-85.05 624.16,-66.87 612.53,-55.25 584.76,-27.5 539.46,-17 508.85,-13.03"/>
<polygon fill="#63b8ff" stroke="#63b8ff" points="628.19,-99.42 632.9,-108.91 635.13,-98.55 628.19,-99.42"/>
</a>
</g>
</g>
<!-- Node10&#45;&gt;Node2 -->
<g id="edge17_Node000010_Node000002" class="edge">
<title>Node10&#45;&gt;Node2</title>
<g id="a_edge17_Node000010_Node000002"><a xlink:title=" ">
<path fill="none" stroke="#63b8ff" d="M793.92,-162.12C827.29,-151.71 861.2,-134.6 843.53,-110.5 803.37,-55.71 590.7,-24.48 508.76,-14.33"/>
<polygon fill="#63b8ff" stroke="#63b8ff" points="793.24,-158.67 784.62,-164.84 795.2,-165.39 793.24,-158.67"/>
</a>
</g>
</g>
<!-- Node10&#45;&gt;Node9 -->
<g id="edge20_Node000010_Node000009" class="edge">
<title>Node10&#45;&gt;Node9</title>
<g id="a_edge20_Node000010_Node000009"><a xlink:title=" ">
<path fill="none" stroke="#63b8ff" d="M713.14,-160.37C693.79,-150.83 668.73,-138.48 651.94,-130.2"/>
<polygon fill="#63b8ff" stroke="#63b8ff" points="711.34,-163.39 721.85,-164.67 714.43,-157.11 711.34,-163.39"/>
</a>
</g>
</g>
<!-- Node11 -->
<g id="Node000011" class="node">
<title>Node11</title>
<g id="a_Node000011"><a xlink:href="FrameBuffer_8hpp.html" target="_top" xlink:title="Contains jngl::FrameBuffer class.">
<polygon fill="white" stroke="#666666" points="834.53,-129.75 704.53,-129.75 704.53,-110.5 834.53,-110.5 834.53,-129.75"/>
<text text-anchor="middle" x="769.53" y="-116.25" font-family="ui-monospace,monospace" font-size="10.00">jngl/FrameBuffer.hpp</text>
</a>
</g>
</g>
<!-- Node10&#45;&gt;Node11 -->
<g id="edge18_Node000010_Node000011" class="edge">
<title>Node10&#45;&gt;Node11</title>
<g id="a_edge18_Node000010_Node000011"><a xlink:title=" ">
<path fill="none" stroke="#63b8ff" d="M751.42,-155.58C755.97,-146.92 761.15,-137.06 764.81,-130.11"/>
<polygon fill="#63b8ff" stroke="#63b8ff" points="748.42,-153.76 746.86,-164.24 754.61,-157.02 748.42,-153.76"/>
</a>
</g>
</g>
<!-- Node11&#45;&gt;Node2 -->
<g id="edge19_Node000011_Node000002" class="edge">
<title>Node11&#45;&gt;Node2</title>
<g id="a_edge19_Node000011_Node000002"><a xlink:title=" ">
<path fill="none" stroke="#63b8ff" d="M742.46,-105.09C715.01,-91.21 671.06,-69.99 631.53,-55.25 589.94,-39.74 540.44,-26.33 508.76,-18.37"/>
<polygon fill="#63b8ff" stroke="#63b8ff" points="740.62,-108.08 751.12,-109.5 743.8,-101.84 740.62,-108.08"/>
</a>
</g>
</g>
</g>
</svg>
