<?xml version="1.0" encoding="UTF-8" standalone="no"?>
<!DOCTYPE svg PUBLIC "-//W3C//DTD SVG 1.1//EN"
 "http://www.w3.org/Graphics/SVG/1.1/DTD/svg11.dtd">
<!-- Generated by graphviz version 9.0.0 (20230911.1827)
 -->
<!-- Title: jngl/Rgba.hpp Pages: 1 -->
<svg width="357pt" height="193pt"
 viewBox="0.00 0.00 356.77 193.00" xmlns="http://www.w3.org/2000/svg" xmlns:xlink="http://www.w3.org/1999/xlink">
<g id="graph0" class="graph" transform="scale(1 1) rotate(0) translate(4 189)">
<title>jngl/Rgba.hpp</title>
<!-- Node1 -->
<g id="Node000001" class="node">
<title>Node1</title>
<g id="a_Node000001"><a xlink:title="Contains jngl::Rgba class.">
<polygon fill="#999999" stroke="#666666" points="182.77,-185 88.77,-185 88.77,-165.75 182.77,-165.75 182.77,-185"/>
<text text-anchor="middle" x="135.77" y="-171.5" font-family="ui-monospace,monospace" font-size="10.00">jngl/Rgba.hpp</text>
</a>
</g>
</g>
<!-- Node2 -->
<g id="Node000002" class="node">
<title>Node2</title>
<g id="a_Node000002"><a xlink:href="jngl_8hpp.html" target="_top" xlink:title="Includes all JNGL headers except for init.hpp.">
<polygon fill="white" stroke="#666666" points="121.77,-19.25 57.77,-19.25 57.77,0 121.77,0 121.77,-19.25"/>
<text text-anchor="middle" x="89.77" y="-5.75" font-family="ui-monospace,monospace" font-size="10.00">jngl.hpp</text>
</a>
</g>
</g>
<!-- Node1&#45;&gt;Node2 -->
<g id="edge1_Node000001_Node000002" class="edge">
<title>Node1&#45;&gt;Node2</title>
<g id="a_edge1_Node000001_Node000002"><a xlink:title=" ">
<path fill="none" stroke="#63b8ff" d="M90.33,-161.64C71.23,-154.58 49.77,-144.24 33.77,-129.75 12.9,-110.85 9.89,-101.74 2.77,-74.5 0.61,-66.22 -1.69,-62.55 2.77,-55.25 14.63,-35.84 37.91,-24.52 57.41,-18.14"/>
<polygon fill="#63b8ff" stroke="#63b8ff" points="88.93,-164.86 99.52,-164.82 91.22,-158.24 88.93,-164.86"/>
</a>
</g>
</g>
<!-- Node3 -->
<g id="Node000003" class="node">
<title>Node3</title>
<g id="a_Node000003"><a xlink:href="font_8hpp.html" target="_top" xlink:title="Contains jngl::Font class and related functions.">
<polygon fill="white" stroke="#666666" points="136.77,-129.75 42.77,-129.75 42.77,-110.5 136.77,-110.5 136.77,-129.75"/>
<text text-anchor="middle" x="89.77" y="-116.25" font-family="ui-monospace,monospace" font-size="10.00">jngl/font.hpp</text>
</a>
</g>
</g>
<!-- Node1&#45;&gt;Node3 -->
<g id="edge2_Node000001_Node000003" class="edge">
<title>Node1&#45;&gt;Node3</title>
<g id="a_edge2_Node000001_Node000003"><a xlink:title=" ">
<path fill="none" stroke="#63b8ff" d="M120.77,-157.01C113.01,-148.03 103.87,-137.45 97.53,-130.11"/>
<polygon fill="#63b8ff" stroke="#63b8ff" points="118,-159.16 127.19,-164.44 123.3,-154.58 118,-159.16"/>
</a>
</g>
</g>
<!-- Node5 -->
<g id="Node000005" class="node">
<title>Node5</title>
<g id="a_Node000005"><a xlink:href="shapes_8hpp.html" target="_top" xlink:title="Functions for drawing shapes.">
<polygon fill="white" stroke="#666666" points="284.77,-74.5 178.77,-74.5 178.77,-55.25 284.77,-55.25 284.77,-74.5"/>
<text text-anchor="middle" x="231.77" y="-61" font-family="ui-monospace,monospace" font-size="10.00">jngl/shapes.hpp</text>
</a>
</g>
</g>
<!-- Node1&#45;&gt;Node5 -->
<g id="edge6_Node000001_Node000005" class="edge">
<title>Node1&#45;&gt;Node5</title>
<g id="a_edge6_Node000001_Node000005"><a xlink:title=" ">
<path fill="none" stroke="#63b8ff" d="M151.22,-156.91C171.92,-133.52 207.89,-92.86 223.81,-74.88"/>
<polygon fill="#63b8ff" stroke="#63b8ff" points="148.64,-154.55 144.63,-164.36 153.88,-159.19 148.64,-154.55"/>
</a>
</g>
</g>
<!-- Node6 -->
<g id="Node000006" class="node">
<title>Node6</title>
<g id="a_Node000006"><a xlink:href="sprite_8hpp.html" target="_top" xlink:title="Contains jngl::Sprite class and related functions.">
<polygon fill="white" stroke="#666666" points="348.77,-129.75 242.77,-129.75 242.77,-110.5 348.77,-110.5 348.77,-129.75"/>
<text text-anchor="middle" x="295.77" y="-116.25" font-family="ui-monospace,monospace" font-size="10.00">jngl/sprite.hpp</text>
</a>
</g>
</g>
<!-- Node1&#45;&gt;Node6 -->
<g id="edge8_Node000001_Node000006" class="edge">
<title>Node1&#45;&gt;Node6</title>
<g id="a_edge8_Node000001_Node000006"><a xlink:title=" ">
<path fill="none" stroke="#63b8ff" d="M173.53,-161.81C202.69,-152.1 242.36,-138.9 268.5,-130.2"/>
<polygon fill="#63b8ff" stroke="#63b8ff" points="172.73,-158.39 164.35,-164.86 174.94,-165.03 172.73,-158.39"/>
</a>
</g>
</g>
<!-- Node3&#45;&gt;Node2 -->
<g id="edge3_Node000003_Node000002" class="edge">
<title>Node3&#45;&gt;Node2</title>
<g id="a_edge3_Node000003_Node000002"><a xlink:title=" ">
<path fill="none" stroke="#63b8ff" d="M47.43,-105.66C32.86,-98.76 18.13,-88.74 9.77,-74.5 -4.99,-49.37 31.99,-30.22 60.48,-19.71"/>
<polygon fill="#63b8ff" stroke="#63b8ff" points="45.95,-108.83 56.52,-109.54 48.7,-102.39 45.95,-108.83"/>
</a>
</g>
</g>
<!-- Node4 -->
<g id="Node000004" class="node">
<title>Node4</title>
<g id="a_Node000004"><a xlink:href="OutlinedFont_8hpp.html" target="_top" xlink:title="Contains jngl::OutlinedFont class.">
<polygon fill="white" stroke="#666666" points="160.77,-74.5 18.77,-74.5 18.77,-55.25 160.77,-55.25 160.77,-74.5"/>
<text text-anchor="middle" x="89.77" y="-61" font-family="ui-monospace,monospace" font-size="10.00">jngl/OutlinedFont.hpp</text>
</a>
</g>
</g>
<!-- Node3&#45;&gt;Node4 -->
<g id="edge4_Node000003_Node000004" class="edge">
<title>Node3&#45;&gt;Node4</title>
<g id="a_edge4_Node000003_Node000004"><a xlink:title=" ">
<path fill="none" stroke="#63b8ff" d="M89.77,-98.88C89.77,-90.59 89.77,-81.42 89.77,-74.86"/>
<polygon fill="#63b8ff" stroke="#63b8ff" points="86.27,-98.82 89.77,-108.82 93.27,-98.82 86.27,-98.82"/>
</a>
</g>
</g>
<!-- Node4&#45;&gt;Node2 -->
<g id="edge5_Node000004_Node000002" class="edge">
<title>Node4&#45;&gt;Node2</title>
<g id="a_edge5_Node000004_Node000002"><a xlink:title=" ">
<path fill="none" stroke="#63b8ff" d="M89.77,-43.63C89.77,-35.34 89.77,-26.17 89.77,-19.61"/>
<polygon fill="#63b8ff" stroke="#63b8ff" points="86.27,-43.57 89.77,-53.57 93.27,-43.57 86.27,-43.57"/>
</a>
</g>
</g>
<!-- Node5&#45;&gt;Node2 -->
<g id="edge7_Node000005_Node000002" class="edge">
<title>Node5&#45;&gt;Node2</title>
<g id="a_edge7_Node000005_Node000002"><a xlink:title=" ">
<path fill="none" stroke="#63b8ff" d="M197.23,-50.92C171.45,-41.25 136.87,-28.29 113.98,-19.7"/>
<polygon fill="#63b8ff" stroke="#63b8ff" points="195.67,-54.08 206.27,-54.31 198.13,-47.52 195.67,-54.08"/>
</a>
</g>
</g>
<!-- Node6&#45;&gt;Node2 -->
<g id="edge9_Node000006_Node000002" class="edge">
<title>Node6&#45;&gt;Node2</title>
<g id="a_edge9_Node000006_Node000002"><a xlink:title=" ">
<path fill="none" stroke="#63b8ff" d="M300.99,-99.25C303.36,-85.38 303.75,-67.26 293.77,-55.25 272.16,-29.25 173.77,-17.45 121.94,-12.96"/>
<polygon fill="#63b8ff" stroke="#63b8ff" points="297.66,-98.1 298.93,-108.61 304.49,-99.6 297.66,-98.1"/>
</a>
</g>
</g>
</g>
</svg>
