<?xml version="1.0" encoding="UTF-8" standalone="no"?>
<!DOCTYPE svg PUBLIC "-//W3C//DTD SVG 1.1//EN"
 "http://www.w3.org/Graphics/SVG/1.1/DTD/svg11.dtd">
<!-- Generated by graphviz version 9.0.0 (20230911.1827)
 -->
<!-- Title: jngl/Rgba.hpp Pages: 1 -->
<svg width="296pt" height="193pt"
 viewBox="0.00 0.00 296.20 193.00" xmlns="http://www.w3.org/2000/svg" xmlns:xlink="http://www.w3.org/1999/xlink">
<g id="graph0" class="graph" transform="scale(1 1) rotate(0) translate(4 189)">
<title>jngl/Rgba.hpp</title>
<!-- Node1 -->
<g id="Node000001" class="node">
<title>Node1</title>
<g id="a_Node000001"><a xlink:title="Contains jngl::Rgba class.">
<polygon fill="#999999" stroke="#666666" points="109.2,-185 15.2,-185 15.2,-165.75 109.2,-165.75 109.2,-185"/>
<text text-anchor="middle" x="62.2" y="-171.5" font-family="ui-monospace,monospace" font-size="10.00">jngl/Rgba.hpp</text>
</a>
</g>
</g>
<!-- Node2 -->
<g id="Node000002" class="node">
<title>Node2</title>
<g id="a_Node000002"><a xlink:href="jngl_8hpp.html" target="_top" xlink:title="Includes all JNGL headers except for init.hpp.">
<polygon fill="white" stroke="#666666" points="75.2,-19.25 11.2,-19.25 11.2,0 75.2,0 75.2,-19.25"/>
<text text-anchor="middle" x="43.2" y="-5.75" font-family="ui-monospace,monospace" font-size="10.00">jngl.hpp</text>
</a>
</g>
</g>
<!-- Node1&#45;&gt;Node2 -->
<g id="edge1_Node000001_Node000002" class="edge">
<title>Node1&#45;&gt;Node2</title>
<g id="a_edge1_Node000001_Node000002"><a xlink:title=" ">
<path fill="none" stroke="#63b8ff" d="M33.97,-159.3C23.2,-151.95 12.11,-142.01 6.2,-129.75 1.43,-119.86 -4.99,-88.81 7.2,-55.25 12.37,-41.03 24.09,-27.96 32.76,-19.69"/>
<polygon fill="#63b8ff" stroke="#63b8ff" points="31.99,-162.19 42.32,-164.53 35.7,-156.26 31.99,-162.19"/>
</a>
</g>
</g>
<!-- Node3 -->
<g id="Node000003" class="node">
<title>Node3</title>
<g id="a_Node000003"><a xlink:href="font_8hpp.html" target="_top" xlink:title="Contains jngl::Font class and related functions.">
<polygon fill="white" stroke="#666666" points="109.2,-129.75 15.2,-129.75 15.2,-110.5 109.2,-110.5 109.2,-129.75"/>
<text text-anchor="middle" x="62.2" y="-116.25" font-family="ui-monospace,monospace" font-size="10.00">jngl/font.hpp</text>
</a>
</g>
</g>
<!-- Node1&#45;&gt;Node3 -->
<g id="edge2_Node000001_Node000003" class="edge">
<title>Node1&#45;&gt;Node3</title>
<g id="a_edge2_Node000001_Node000003"><a xlink:title=" ">
<path fill="none" stroke="#63b8ff" d="M62.2,-154.13C62.2,-145.84 62.2,-136.67 62.2,-130.11"/>
<polygon fill="#63b8ff" stroke="#63b8ff" points="58.7,-154.07 62.2,-164.07 65.7,-154.07 58.7,-154.07"/>
</a>
</g>
</g>
<!-- Node5 -->
<g id="Node000005" class="node">
<title>Node5</title>
<g id="a_Node000005"><a xlink:href="sprite_8hpp.html" target="_top" xlink:title="Contains jngl::Sprite class and related functions.">
<polygon fill="white" stroke="#666666" points="288.2,-74.5 182.2,-74.5 182.2,-55.25 288.2,-55.25 288.2,-74.5"/>
<text text-anchor="middle" x="235.2" y="-61" font-family="ui-monospace,monospace" font-size="10.00">jngl/sprite.hpp</text>
</a>
</g>
</g>
<!-- Node1&#45;&gt;Node5 -->
<g id="edge6_Node000001_Node000005" class="edge">
<title>Node1&#45;&gt;Node5</title>
<g id="a_edge6_Node000001_Node000005"><a xlink:title=" ">
<path fill="none" stroke="#63b8ff" d="M86.04,-159.42C122.55,-136.52 191.21,-93.46 220.91,-74.84"/>
<polygon fill="#63b8ff" stroke="#63b8ff" points="84.55,-156.23 77.93,-164.51 88.26,-162.16 84.55,-156.23"/>
</a>
</g>
</g>
<!-- Node3&#45;&gt;Node2 -->
<g id="edge3_Node000003_Node000002" class="edge">
<title>Node3&#45;&gt;Node2</title>
<g id="a_edge3_Node000003_Node000002"><a xlink:title=" ">
<path fill="none" stroke="#63b8ff" d="M37.81,-103.64C28.26,-96.12 18.36,-86.18 13.2,-74.5 4.48,-54.78 21.93,-31.98 33.69,-19.66"/>
<polygon fill="#63b8ff" stroke="#63b8ff" points="35.68,-106.42 45.84,-109.43 39.78,-100.74 35.68,-106.42"/>
</a>
</g>
</g>
<!-- Node4 -->
<g id="Node000004" class="node">
<title>Node4</title>
<g id="a_Node000004"><a xlink:href="OutlinedFont_8hpp.html" target="_top" xlink:title="Contains jngl::OutlinedFont class.">
<polygon fill="white" stroke="#666666" points="164.2,-74.5 22.2,-74.5 22.2,-55.25 164.2,-55.25 164.2,-74.5"/>
<text text-anchor="middle" x="93.2" y="-61" font-family="ui-monospace,monospace" font-size="10.00">jngl/OutlinedFont.hpp</text>
</a>
</g>
</g>
<!-- Node3&#45;&gt;Node4 -->
<g id="edge4_Node000003_Node000004" class="edge">
<title>Node3&#45;&gt;Node4</title>
<g id="a_edge4_Node000003_Node000004"><a xlink:title=" ">
<path fill="none" stroke="#63b8ff" d="M72.97,-100.62C78.05,-91.89 83.88,-81.89 87.97,-74.86"/>
<polygon fill="#63b8ff" stroke="#63b8ff" points="70.09,-98.62 68.08,-109.02 76.14,-102.14 70.09,-98.62"/>
</a>
</g>
</g>
<!-- Node4&#45;&gt;Node2 -->
<g id="edge5_Node000004_Node000002" class="edge">
<title>Node4&#45;&gt;Node2</title>
<g id="a_edge5_Node000004_Node000002"><a xlink:title=" ">
<path fill="none" stroke="#63b8ff" d="M77.16,-46.79C68.67,-37.75 58.6,-27.02 51.63,-19.61"/>
<polygon fill="#63b8ff" stroke="#63b8ff" points="74.51,-49.08 83.91,-53.98 79.61,-44.29 74.51,-49.08"/>
</a>
</g>
</g>
<!-- Node5&#45;&gt;Node2 -->
<g id="edge7_Node000005_Node000002" class="edge">
<title>Node5&#45;&gt;Node2</title>
<g id="a_edge7_Node000005_Node000002"><a xlink:title=" ">
<path fill="none" stroke="#63b8ff" d="M191.7,-51.81C156.43,-42.03 107.51,-28.46 75.61,-19.61"/>
<polygon fill="#63b8ff" stroke="#63b8ff" points="190.6,-55.14 201.17,-54.44 192.47,-48.39 190.6,-55.14"/>
</a>
</g>
</g>
</g>
</svg>
