<?xml version="1.0" encoding="UTF-8" standalone="no"?>
<!DOCTYPE svg PUBLIC "-//W3C//DTD SVG 1.1//EN"
 "http://www.w3.org/Graphics/SVG/1.1/DTD/svg11.dtd">
<!-- Generated by graphviz version 5.0.0 (0)
 -->
<!-- Title: jngl/Rgba.hpp Pages: 1 -->
<svg width="150pt" height="137pt"
 viewBox="0.00 0.00 150.00 137.00" xmlns="http://www.w3.org/2000/svg" xmlns:xlink="http://www.w3.org/1999/xlink">
<g id="graph0" class="graph" transform="scale(1 1) rotate(0) translate(4 133)">
<title>jngl/Rgba.hpp</title>
<!-- Node1 -->
<g id="node1" class="node">
<title>Node1</title>
<g id="a_node1"><a xlink:title="Contains jngl::Rgba class.">
<polygon fill="#999999" stroke="#666666" points="95,-129 0,-129 0,-110 95,-110 95,-129"/>
<text text-anchor="middle" x="47.5" y="-117" font-family="ui-monospace,monospace" font-size="10.00">jngl/Rgba.hpp</text>
</a>
</g>
</g>
<!-- Node2 -->
<g id="node2" class="node">
<title>Node2</title>
<g id="a_node2"><a xlink:href="jngl_8hpp.html" target="_top" xlink:title="Includes all JNGL headers except for init.hpp.">
<polygon fill="white" stroke="#666666" points="80,-19 15,-19 15,0 80,0 80,-19"/>
<text text-anchor="middle" x="47.5" y="-7" font-family="ui-monospace,monospace" font-size="10.00">jngl.hpp</text>
</a>
</g>
</g>
<!-- Node1&#45;&gt;Node2 -->
<g id="edge1" class="edge">
<title>Node1&#45;&gt;Node2</title>
<path fill="none" stroke="#63b8ff" d="M36.57,-101.09C32.21,-93.15 27.7,-83.43 25.5,-74 20.83,-54 32.98,-31.49 41.03,-19.37"/>
<polygon fill="#63b8ff" stroke="#63b8ff" points="33.58,-102.91 41.66,-109.76 39.62,-99.36 33.58,-102.91"/>
</g>
<!-- Node3 -->
<g id="node3" class="node">
<title>Node3</title>
<g id="a_node3"><a xlink:href="sprite_8hpp.html" target="_top" xlink:title="Contains jngl::Sprite class and related functions.">
<polygon fill="white" stroke="#666666" points="142,-74 35,-74 35,-55 142,-55 142,-74"/>
<text text-anchor="middle" x="88.5" y="-62" font-family="ui-monospace,monospace" font-size="10.00">jngl/sprite.hpp</text>
</a>
</g>
</g>
<!-- Node1&#45;&gt;Node3 -->
<g id="edge2" class="edge">
<title>Node1&#45;&gt;Node3</title>
<path fill="none" stroke="#63b8ff" d="M60.52,-101.67C67.62,-92.5 76.1,-81.52 81.86,-74.09"/>
<polygon fill="#63b8ff" stroke="#63b8ff" points="57.62,-99.7 54.27,-109.75 63.16,-103.98 57.62,-99.7"/>
</g>
<!-- Node3&#45;&gt;Node2 -->
<g id="edge3" class="edge">
<title>Node3&#45;&gt;Node2</title>
<path fill="none" stroke="#63b8ff" d="M75.48,-46.67C68.38,-37.5 59.9,-26.52 54.14,-19.09"/>
<polygon fill="#63b8ff" stroke="#63b8ff" points="72.84,-48.98 81.73,-54.75 78.38,-44.7 72.84,-48.98"/>
</g>
</g>
</svg>
