<?xml version="1.0" encoding="UTF-8" standalone="no"?>
<!DOCTYPE svg PUBLIC "-//W3C//DTD SVG 1.1//EN"
 "http://www.w3.org/Graphics/SVG/1.1/DTD/svg11.dtd">
<!-- Generated by graphviz version 12.1.0 (20240811.2233)
 -->
<!-- Title: jngl/Rgba.hpp Pages: 1 -->
<svg width="370pt" height="193pt"
 viewBox="0.00 0.00 369.88 193.00" xmlns="http://www.w3.org/2000/svg" xmlns:xlink="http://www.w3.org/1999/xlink">
<g id="graph0" class="graph" transform="scale(1 1) rotate(0) translate(4 189)">
<title>jngl/Rgba.hpp</title>
<!-- Node1 -->
<g id="Node000001" class="node">
<title>Node1</title>
<g id="a_Node000001"><a xlink:title="Contains jngl::Rgba class.">
<polygon fill="#999999" stroke="#666666" points="159.88,-185 65.88,-185 65.88,-165.75 159.88,-165.75 159.88,-185"/>
<text text-anchor="middle" x="112.88" y="-171.5" font-family="ui-monospace,monospace" font-size="10.00">jngl/Rgba.hpp</text>
</a>
</g>
</g>
<!-- Node2 -->
<g id="Node000002" class="node">
<title>Node2</title>
<g id="a_Node000002"><a xlink:href="jngl_8hpp.html" target="_top" xlink:title="Includes all JNGL headers except for init.hpp.">
<polygon fill="white" stroke="#666666" points="182.88,-19.25 118.88,-19.25 118.88,0 182.88,0 182.88,-19.25"/>
<text text-anchor="middle" x="150.88" y="-5.75" font-family="ui-monospace,monospace" font-size="10.00">jngl.hpp</text>
</a>
</g>
</g>
<!-- Node1&#45;&gt;Node2 -->
<g id="edge1_Node000001_Node000002" class="edge">
<title>Node1&#45;&gt;Node2</title>
<g id="a_edge1_Node000001_Node000002"><a xlink:title=" ">
<path fill="none" stroke="#63b8ff" d="M83.4,-159.99C42.93,-138.28 -21.66,-95.41 7.88,-55.25 33.15,-20.89 84.73,-12.24 118.54,-10.46"/>
<polygon fill="#63b8ff" stroke="#63b8ff" points="81.76,-163.08 92.25,-164.58 84.99,-156.87 81.76,-163.08"/>
</a>
</g>
</g>
<!-- Node3 -->
<g id="Node000003" class="node">
<title>Node3</title>
<g id="a_Node000003"><a xlink:href="Sprite_8hpp.html" target="_top" xlink:title="Contains jngl::Sprite class and related functions.">
<polygon fill="white" stroke="#666666" points="122.88,-74.5 16.88,-74.5 16.88,-55.25 122.88,-55.25 122.88,-74.5"/>
<text text-anchor="middle" x="69.88" y="-61" font-family="ui-monospace,monospace" font-size="10.00">jngl/Sprite.hpp</text>
</a>
</g>
</g>
<!-- Node1&#45;&gt;Node3 -->
<g id="edge2_Node000001_Node000003" class="edge">
<title>Node1&#45;&gt;Node3</title>
<g id="a_edge2_Node000001_Node000003"><a xlink:title=" ">
<path fill="none" stroke="#63b8ff" d="M104.97,-154.9C101.81,-147.09 98.16,-138 94.88,-129.75 87.14,-110.27 78.22,-87.39 73.41,-74.98"/>
<polygon fill="#63b8ff" stroke="#63b8ff" points="101.7,-156.14 108.7,-164.09 108.18,-153.51 101.7,-156.14"/>
</a>
</g>
</g>
<!-- Node4 -->
<g id="Node000004" class="node">
<title>Node4</title>
<g id="a_Node000004"><a xlink:href="font_8hpp.html" target="_top" xlink:title="Contains jngl::Font class and related functions.">
<polygon fill="white" stroke="#666666" points="197.88,-129.75 103.88,-129.75 103.88,-110.5 197.88,-110.5 197.88,-129.75"/>
<text text-anchor="middle" x="150.88" y="-116.25" font-family="ui-monospace,monospace" font-size="10.00">jngl/font.hpp</text>
</a>
</g>
</g>
<!-- Node1&#45;&gt;Node4 -->
<g id="edge4_Node000001_Node000004" class="edge">
<title>Node1&#45;&gt;Node4</title>
<g id="a_edge4_Node000001_Node000004"><a xlink:title=" ">
<path fill="none" stroke="#63b8ff" d="M125.68,-156.44C132,-147.59 139.34,-137.29 144.47,-130.11"/>
<polygon fill="#63b8ff" stroke="#63b8ff" points="122.99,-154.18 120.03,-164.35 128.69,-158.24 122.99,-154.18"/>
</a>
</g>
</g>
<!-- Node6 -->
<g id="Node000006" class="node">
<title>Node6</title>
<g id="a_Node000006"><a xlink:href="shapes_8hpp.html" target="_top" xlink:title="Functions for drawing shapes.">
<polygon fill="white" stroke="#666666" points="361.88,-129.75 255.88,-129.75 255.88,-110.5 361.88,-110.5 361.88,-129.75"/>
<text text-anchor="middle" x="308.88" y="-116.25" font-family="ui-monospace,monospace" font-size="10.00">jngl/shapes.hpp</text>
</a>
</g>
</g>
<!-- Node1&#45;&gt;Node6 -->
<g id="edge8_Node000001_Node000006" class="edge">
<title>Node1&#45;&gt;Node6</title>
<g id="a_edge8_Node000001_Node000006"><a xlink:title=" ">
<path fill="none" stroke="#63b8ff" d="M156.79,-162.45C192.71,-152.69 242.74,-139.09 275.47,-130.2"/>
<polygon fill="#63b8ff" stroke="#63b8ff" points="156.32,-158.95 147.59,-164.95 158.15,-165.7 156.32,-158.95"/>
</a>
</g>
</g>
<!-- Node3&#45;&gt;Node2 -->
<g id="edge3_Node000003_Node000002" class="edge">
<title>Node3&#45;&gt;Node2</title>
<g id="a_edge3_Node000003_Node000002"><a xlink:title=" ">
<path fill="none" stroke="#63b8ff" d="M93.22,-48.53C107.41,-39.2 125.06,-27.6 137.07,-19.7"/>
<polygon fill="#63b8ff" stroke="#63b8ff" points="91.32,-45.59 84.88,-54.01 95.16,-51.44 91.32,-45.59"/>
</a>
</g>
</g>
<!-- Node4&#45;&gt;Node2 -->
<g id="edge5_Node000004_Node000002" class="edge">
<title>Node4&#45;&gt;Node2</title>
<g id="a_edge5_Node000004_Node000002"><a xlink:title=" ">
<path fill="none" stroke="#63b8ff" d="M150.88,-98.78C150.88,-75.05 150.88,-36.89 150.88,-19.63"/>
<polygon fill="#63b8ff" stroke="#63b8ff" points="147.38,-98.73 150.88,-108.73 154.38,-98.73 147.38,-98.73"/>
</a>
</g>
</g>
<!-- Node5 -->
<g id="Node000005" class="node">
<title>Node5</title>
<g id="a_Node000005"><a xlink:href="OutlinedFont_8hpp.html" target="_top" xlink:title="Contains jngl::OutlinedFont class.">
<polygon fill="white" stroke="#666666" points="320.88,-74.5 178.88,-74.5 178.88,-55.25 320.88,-55.25 320.88,-74.5"/>
<text text-anchor="middle" x="249.88" y="-61" font-family="ui-monospace,monospace" font-size="10.00">jngl/OutlinedFont.hpp</text>
</a>
</g>
</g>
<!-- Node4&#45;&gt;Node5 -->
<g id="edge6_Node000004_Node000005" class="edge">
<title>Node4&#45;&gt;Node5</title>
<g id="a_edge6_Node000004_Node000005"><a xlink:title=" ">
<path fill="none" stroke="#63b8ff" d="M177.4,-104.86C195.07,-95.36 217.76,-83.15 233,-74.95"/>
<polygon fill="#63b8ff" stroke="#63b8ff" points="176.15,-101.56 169,-109.37 179.47,-107.72 176.15,-101.56"/>
</a>
</g>
</g>
<!-- Node5&#45;&gt;Node2 -->
<g id="edge7_Node000005_Node000002" class="edge">
<title>Node5&#45;&gt;Node2</title>
<g id="a_edge7_Node000005_Node000002"><a xlink:title=" ">
<path fill="none" stroke="#63b8ff" d="M223.35,-49.61C205.69,-40.11 183,-27.9 167.75,-19.7"/>
<polygon fill="#63b8ff" stroke="#63b8ff" points="221.29,-52.47 231.75,-54.12 224.6,-46.31 221.29,-52.47"/>
</a>
</g>
</g>
<!-- Node6&#45;&gt;Node2 -->
<g id="edge9_Node000006_Node000002" class="edge">
<title>Node6&#45;&gt;Node2</title>
<g id="a_edge9_Node000006_Node000002"><a xlink:title=" ">
<path fill="none" stroke="#63b8ff" d="M322.9,-101.45C332.01,-87.68 340.4,-68.72 329.88,-55.25 312.03,-32.41 229.94,-19.56 183.37,-13.99"/>
<polygon fill="#63b8ff" stroke="#63b8ff" points="320.34,-99.02 317.3,-109.17 326,-103.14 320.34,-99.02"/>
</a>
</g>
</g>
</g>
</svg>
