<?xml version="1.0" encoding="UTF-8" standalone="no"?>
<!DOCTYPE svg PUBLIC "-//W3C//DTD SVG 1.1//EN"
 "http://www.w3.org/Graphics/SVG/1.1/DTD/svg11.dtd">
<!-- Generated by graphviz version 5.0.0 (0)
 -->
<!-- Title: jngl/Rgba.hpp Pages: 1 -->
<svg width="240pt" height="137pt"
 viewBox="0.00 0.00 240.10 137.00" xmlns="http://www.w3.org/2000/svg" xmlns:xlink="http://www.w3.org/1999/xlink">
<g id="graph0" class="graph" transform="scale(1 1) rotate(0) translate(4 133)">
<title>jngl/Rgba.hpp</title>
<!-- Node1 -->
<g id="node1" class="node">
<title>Node1</title>
<g id="a_node1"><a xlink:title="Contains jngl::Rgba class.">
<polygon fill="#999999" stroke="#666666" points="107.1,-129 12.1,-129 12.1,-110 107.1,-110 107.1,-129"/>
<text text-anchor="middle" x="59.6" y="-117" font-family="ui-monospace,monospace" font-size="10.00">jngl/Rgba.hpp</text>
</a>
</g>
</g>
<!-- Node2 -->
<g id="node2" class="node">
<title>Node2</title>
<g id="a_node2"><a xlink:href="jngl_8hpp.html" target="_top" xlink:title="Includes all JNGL headers except for init.hpp.">
<polygon fill="white" stroke="#666666" points="92.1,-19 27.1,-19 27.1,0 92.1,0 92.1,-19"/>
<text text-anchor="middle" x="59.6" y="-7" font-family="ui-monospace,monospace" font-size="10.00">jngl.hpp</text>
</a>
</g>
</g>
<!-- Node1&#45;&gt;Node2 -->
<g id="edge1" class="edge">
<title>Node1&#45;&gt;Node2</title>
<path fill="none" stroke="#63b8ff" d="M32.36,-104.57C20.95,-97.17 8.9,-86.91 2.6,-74 -8.58,-51.1 21,-30.31 41.61,-19.13"/>
<polygon fill="#63b8ff" stroke="#63b8ff" points="30.87,-107.75 41.24,-109.88 34.46,-101.75 30.87,-107.75"/>
</g>
<!-- Node3 -->
<g id="node3" class="node">
<title>Node3</title>
<g id="a_node3"><a xlink:href="font_8hpp.html" target="_top" xlink:title="Contains jngl::Font class and related functions.">
<polygon fill="white" stroke="#666666" points="107.1,-74 12.1,-74 12.1,-55 107.1,-55 107.1,-74"/>
<text text-anchor="middle" x="59.6" y="-62" font-family="ui-monospace,monospace" font-size="10.00">jngl/font.hpp</text>
</a>
</g>
</g>
<!-- Node1&#45;&gt;Node3 -->
<g id="edge2" class="edge">
<title>Node1&#45;&gt;Node3</title>
<path fill="none" stroke="#63b8ff" d="M59.6,-99.66C59.6,-90.93 59.6,-80.99 59.6,-74.09"/>
<polygon fill="#63b8ff" stroke="#63b8ff" points="56.1,-99.75 59.6,-109.75 63.1,-99.75 56.1,-99.75"/>
</g>
<!-- Node4 -->
<g id="node4" class="node">
<title>Node4</title>
<g id="a_node4"><a xlink:href="sprite_8hpp.html" target="_top" xlink:title="Contains jngl::Sprite class and related functions.">
<polygon fill="white" stroke="#666666" points="232.1,-74 125.1,-74 125.1,-55 232.1,-55 232.1,-74"/>
<text text-anchor="middle" x="178.6" y="-62" font-family="ui-monospace,monospace" font-size="10.00">jngl/sprite.hpp</text>
</a>
</g>
</g>
<!-- Node1&#45;&gt;Node4 -->
<g id="edge4" class="edge">
<title>Node1&#45;&gt;Node4</title>
<path fill="none" stroke="#63b8ff" d="M87.89,-105.9C109.87,-96.11 139.77,-82.79 159.13,-74.17"/>
<polygon fill="#63b8ff" stroke="#63b8ff" points="86.43,-102.72 78.72,-109.98 89.28,-109.11 86.43,-102.72"/>
</g>
<!-- Node3&#45;&gt;Node2 -->
<g id="edge3" class="edge">
<title>Node3&#45;&gt;Node2</title>
<path fill="none" stroke="#63b8ff" d="M59.6,-44.66C59.6,-35.93 59.6,-25.99 59.6,-19.09"/>
<polygon fill="#63b8ff" stroke="#63b8ff" points="56.1,-44.75 59.6,-54.75 63.1,-44.75 56.1,-44.75"/>
</g>
<!-- Node4&#45;&gt;Node2 -->
<g id="edge5" class="edge">
<title>Node4&#45;&gt;Node2</title>
<path fill="none" stroke="#63b8ff" d="M150.3,-50.9C128.32,-41.11 98.42,-27.79 79.07,-19.17"/>
<polygon fill="#63b8ff" stroke="#63b8ff" points="148.92,-54.11 159.48,-54.98 151.77,-47.72 148.92,-54.11"/>
</g>
</g>
</svg>
