<?xml version="1.0" encoding="UTF-8" standalone="no"?>
<!DOCTYPE svg PUBLIC "-//W3C//DTD SVG 1.1//EN"
 "http://www.w3.org/Graphics/SVG/1.1/DTD/svg11.dtd">
<!-- Generated by graphviz version 9.0.0 (20230911.1827)
 -->
<!-- Title: jngl/Rgba.hpp Pages: 1 -->
<svg width="238pt" height="138pt"
 viewBox="0.00 0.00 237.57 137.75" xmlns="http://www.w3.org/2000/svg" xmlns:xlink="http://www.w3.org/1999/xlink">
<g id="graph0" class="graph" transform="scale(1 1) rotate(0) translate(4 133.75)">
<title>jngl/Rgba.hpp</title>
<!-- Node1 -->
<g id="Node000001" class="node">
<title>Node1</title>
<g id="a_Node000001"><a xlink:title="Contains jngl::Rgba class.">
<polygon fill="#999999" stroke="#666666" points="105.57,-129.75 11.57,-129.75 11.57,-110.5 105.57,-110.5 105.57,-129.75"/>
<text text-anchor="middle" x="58.57" y="-116.25" font-family="ui-monospace,monospace" font-size="10.00">jngl/Rgba.hpp</text>
</a>
</g>
</g>
<!-- Node2 -->
<g id="Node000002" class="node">
<title>Node2</title>
<g id="a_Node000002"><a xlink:href="jngl_8hpp.html" target="_top" xlink:title="Includes all JNGL headers except for init.hpp.">
<polygon fill="white" stroke="#666666" points="90.57,-19.25 26.57,-19.25 26.57,0 90.57,0 90.57,-19.25"/>
<text text-anchor="middle" x="58.57" y="-5.75" font-family="ui-monospace,monospace" font-size="10.00">jngl.hpp</text>
</a>
</g>
</g>
<!-- Node1&#45;&gt;Node2 -->
<g id="edge1_Node000001_Node000002" class="edge">
<title>Node1&#45;&gt;Node2</title>
<g id="a_edge1_Node000001_Node000002"><a xlink:title=" ">
<path fill="none" stroke="#63b8ff" d="M30.34,-104.05C19.57,-96.7 8.47,-86.76 2.57,-74.5 -8.38,-51.78 20.28,-30.91 40.52,-19.56"/>
<polygon fill="#63b8ff" stroke="#63b8ff" points="28.36,-106.94 38.69,-109.28 32.07,-101.01 28.36,-106.94"/>
</a>
</g>
</g>
<!-- Node3 -->
<g id="Node000003" class="node">
<title>Node3</title>
<g id="a_Node000003"><a xlink:href="font_8hpp.html" target="_top" xlink:title="Contains jngl::Font class and related functions.">
<polygon fill="white" stroke="#666666" points="105.57,-74.5 11.57,-74.5 11.57,-55.25 105.57,-55.25 105.57,-74.5"/>
<text text-anchor="middle" x="58.57" y="-61" font-family="ui-monospace,monospace" font-size="10.00">jngl/font.hpp</text>
</a>
</g>
</g>
<!-- Node1&#45;&gt;Node3 -->
<g id="edge2_Node000001_Node000003" class="edge">
<title>Node1&#45;&gt;Node3</title>
<g id="a_edge2_Node000001_Node000003"><a xlink:title=" ">
<path fill="none" stroke="#63b8ff" d="M58.57,-98.88C58.57,-90.59 58.57,-81.42 58.57,-74.86"/>
<polygon fill="#63b8ff" stroke="#63b8ff" points="55.07,-98.82 58.57,-108.82 62.07,-98.82 55.07,-98.82"/>
</a>
</g>
</g>
<!-- Node4 -->
<g id="Node000004" class="node">
<title>Node4</title>
<g id="a_Node000004"><a xlink:href="sprite_8hpp.html" target="_top" xlink:title="Contains jngl::Sprite class and related functions.">
<polygon fill="white" stroke="#666666" points="229.57,-74.5 123.57,-74.5 123.57,-55.25 229.57,-55.25 229.57,-74.5"/>
<text text-anchor="middle" x="176.57" y="-61" font-family="ui-monospace,monospace" font-size="10.00">jngl/sprite.hpp</text>
</a>
</g>
</g>
<!-- Node1&#45;&gt;Node4 -->
<g id="edge4_Node000001_Node000004" class="edge">
<title>Node1&#45;&gt;Node4</title>
<g id="a_edge4_Node000001_Node000004"><a xlink:title=" ">
<path fill="none" stroke="#63b8ff" d="M89,-105.39C110.22,-95.81 137.94,-83.31 156.45,-74.95"/>
<polygon fill="#63b8ff" stroke="#63b8ff" points="87.64,-102.17 79.96,-109.47 90.52,-108.55 87.64,-102.17"/>
</a>
</g>
</g>
<!-- Node3&#45;&gt;Node2 -->
<g id="edge3_Node000003_Node000002" class="edge">
<title>Node3&#45;&gt;Node2</title>
<g id="a_edge3_Node000003_Node000002"><a xlink:title=" ">
<path fill="none" stroke="#63b8ff" d="M58.57,-43.63C58.57,-35.34 58.57,-26.17 58.57,-19.61"/>
<polygon fill="#63b8ff" stroke="#63b8ff" points="55.07,-43.57 58.57,-53.57 62.07,-43.57 55.07,-43.57"/>
</a>
</g>
</g>
<!-- Node4&#45;&gt;Node2 -->
<g id="edge5_Node000004_Node000002" class="edge">
<title>Node4&#45;&gt;Node2</title>
<g id="a_edge5_Node000004_Node000002"><a xlink:title=" ">
<path fill="none" stroke="#63b8ff" d="M146.13,-50.14C124.91,-40.56 97.19,-28.06 78.68,-19.7"/>
<polygon fill="#63b8ff" stroke="#63b8ff" points="144.61,-53.3 155.17,-54.22 147.49,-46.92 144.61,-53.3"/>
</a>
</g>
</g>
</g>
</svg>
