<?xml version="1.0" encoding="UTF-8" standalone="no"?>
<!DOCTYPE svg PUBLIC "-//W3C//DTD SVG 1.1//EN"
 "http://www.w3.org/Graphics/SVG/1.1/DTD/svg11.dtd">
<!-- Generated by graphviz version 5.0.0 (0)
 -->
<!-- Title: jngl/ScaleablePixels.hpp Pages: 1 -->
<svg width="169pt" height="137pt"
 viewBox="0.00 0.00 169.00 137.00" xmlns="http://www.w3.org/2000/svg" xmlns:xlink="http://www.w3.org/1999/xlink">
<g id="graph0" class="graph" transform="scale(1 1) rotate(0) translate(4 133)">
<title>jngl/ScaleablePixels.hpp</title>
<!-- Node1 -->
<g id="node1" class="node">
<title>Node1</title>
<g id="a_node1"><a xlink:title="Contains jngl::ScaleablePixels class.">
<polygon fill="#999999" stroke="#666666" points="161,-129 0,-129 0,-110 161,-110 161,-129"/>
<text text-anchor="middle" x="80.5" y="-117" font-family="ui-monospace,monospace" font-size="10.00">jngl/ScaleablePixels.hpp</text>
</a>
</g>
</g>
<!-- Node2 -->
<g id="node2" class="node">
<title>Node2</title>
<g id="a_node2"><a xlink:href="all_8hpp.html" target="_top" xlink:title="Includes all JNGL headers except for init.hpp.">
<polygon fill="white" stroke="#666666" points="125,-74 36,-74 36,-55 125,-55 125,-74"/>
<text text-anchor="middle" x="80.5" y="-62" font-family="ui-monospace,monospace" font-size="10.00">jngl/all.hpp</text>
</a>
</g>
</g>
<!-- Node1&#45;&gt;Node2 -->
<g id="edge1" class="edge">
<title>Node1&#45;&gt;Node2</title>
<path fill="none" stroke="#63b8ff" d="M80.5,-99.66C80.5,-90.93 80.5,-80.99 80.5,-74.09"/>
<polygon fill="#63b8ff" stroke="#63b8ff" points="77,-99.75 80.5,-109.75 84,-99.75 77,-99.75"/>
</g>
<!-- Node3 -->
<g id="node3" class="node">
<title>Node3</title>
<g id="a_node3"><a xlink:href="jngl_8hpp.html" target="_top" xlink:title="Includes jngl/all.hpp.">
<polygon fill="white" stroke="#666666" points="113,-19 48,-19 48,0 113,0 113,-19"/>
<text text-anchor="middle" x="80.5" y="-7" font-family="ui-monospace,monospace" font-size="10.00">jngl.hpp</text>
</a>
</g>
</g>
<!-- Node2&#45;&gt;Node3 -->
<g id="edge2" class="edge">
<title>Node2&#45;&gt;Node3</title>
<path fill="none" stroke="#63b8ff" d="M80.5,-44.66C80.5,-35.93 80.5,-25.99 80.5,-19.09"/>
<polygon fill="#63b8ff" stroke="#63b8ff" points="77,-44.75 80.5,-54.75 84,-44.75 77,-44.75"/>
</g>
</g>
</svg>
