<?xml version="1.0" encoding="UTF-8" standalone="no"?>
<!DOCTYPE svg PUBLIC "-//W3C//DTD SVG 1.1//EN"
 "http://www.w3.org/Graphics/SVG/1.1/DTD/svg11.dtd">
<!-- Generated by graphviz version 2.44.0 (0)
 -->
<!-- Title: jngl/ScaleablePixels.hpp Pages: 1 -->
<svg width="169pt" height="140pt"
 viewBox="0.00 0.00 169.00 140.00" xmlns="http://www.w3.org/2000/svg" xmlns:xlink="http://www.w3.org/1999/xlink">
<g id="graph0" class="graph" transform="scale(1 1) rotate(0) translate(4 136)">
<title>jngl/ScaleablePixels.hpp</title>
<polygon fill="white" stroke="transparent" points="-4,4 -4,-136 165,-136 165,4 -4,4"/>
<!-- Node1 -->
<g id="node1" class="node">
<title>Node1</title>
<g id="a_node1"><a xlink:title="Contains jngl::ScaleablePixels class.">
<polygon fill="#bfbfbf" stroke="black" points="0,-112.5 0,-131.5 161,-131.5 161,-112.5 0,-112.5"/>
<text text-anchor="middle" x="80.5" y="-119.5" font-family="'Consolas',monospace" font-size="10.00">jngl/ScaleablePixels.hpp</text>
</a>
</g>
</g>
<!-- Node2 -->
<g id="node2" class="node">
<title>Node2</title>
<g id="a_node2"><a xlink:href="all_8hpp.html" target="_top" xlink:title="Includes all JNGL headers except for init.hpp.">
<polygon fill="white" stroke="black" points="36,-56.5 36,-75.5 125,-75.5 125,-56.5 36,-56.5"/>
<text text-anchor="middle" x="80.5" y="-63.5" font-family="'Consolas',monospace" font-size="10.00">jngl/all.hpp</text>
</a>
</g>
</g>
<!-- Node1&#45;&gt;Node2 -->
<g id="edge1" class="edge">
<title>Node1&#45;&gt;Node2</title>
<path fill="none" stroke="midnightblue" d="M80.5,-101.8C80.5,-92.91 80.5,-82.78 80.5,-75.75"/>
<polygon fill="midnightblue" stroke="midnightblue" points="77,-102.08 80.5,-112.08 84,-102.08 77,-102.08"/>
</g>
<!-- Node3 -->
<g id="node3" class="node">
<title>Node3</title>
<g id="a_node3"><a xlink:href="jngl_8hpp.html" target="_top" xlink:title="Includes jngl/all.hpp.">
<polygon fill="white" stroke="black" points="48,-0.5 48,-19.5 113,-19.5 113,-0.5 48,-0.5"/>
<text text-anchor="middle" x="80.5" y="-7.5" font-family="'Consolas',monospace" font-size="10.00">jngl.hpp</text>
</a>
</g>
</g>
<!-- Node2&#45;&gt;Node3 -->
<g id="edge2" class="edge">
<title>Node2&#45;&gt;Node3</title>
<path fill="none" stroke="midnightblue" d="M80.5,-45.8C80.5,-36.91 80.5,-26.78 80.5,-19.75"/>
<polygon fill="midnightblue" stroke="midnightblue" points="77,-46.08 80.5,-56.08 84,-46.08 77,-46.08"/>
</g>
</g>
</svg>
