<?xml version="1.0" encoding="UTF-8" standalone="no"?>
<!DOCTYPE svg PUBLIC "-//W3C//DTD SVG 1.1//EN"
 "http://www.w3.org/Graphics/SVG/1.1/DTD/svg11.dtd">
<!-- Generated by graphviz version 2.40.1 (0)
 -->
<!-- Title: jngl/screen.hpp Pages: 1 -->
<svg width="275pt" height="140pt"
 viewBox="0.00 0.00 275.00 140.00" xmlns="http://www.w3.org/2000/svg" xmlns:xlink="http://www.w3.org/1999/xlink">
<g id="graph0" class="graph" transform="scale(1 1) rotate(0) translate(4 136)">
<title>jngl/screen.hpp</title>
<polygon fill="#ffffff" stroke="transparent" points="-4,4 -4,-136 271,-136 271,4 -4,4"/>
<!-- Node0 -->
<g id="node1" class="node">
<title>Node0</title>
<g id="a_node1"><a xlink:title=" ">
<polygon fill="#bfbfbf" stroke="#000000" points="29,-112.5 29,-131.5 136,-131.5 136,-112.5 29,-112.5"/>
<text text-anchor="middle" x="82.5" y="-119.5" font-family="'Consolas',monospace" font-size="10.00" fill="#000000">jngl/screen.hpp</text>
</a>
</g>
</g>
<!-- Node1 -->
<g id="node2" class="node">
<title>Node1</title>
<g id="a_node2"><a xlink:href="dll_8hpp_source.html" target="_top" xlink:title=" ">
<polygon fill="#ffffff" stroke="#000000" points="0,-.5 0,-19.5 59,-19.5 59,-.5 0,-.5"/>
<text text-anchor="middle" x="29.5" y="-7.5" font-family="'Consolas',monospace" font-size="10.00" fill="#000000">dll.hpp</text>
</a>
</g>
</g>
<!-- Node0&#45;&gt;Node1 -->
<g id="edge1" class="edge">
<title>Node0&#45;&gt;Node1</title>
<path fill="none" stroke="#191970" d="M77.9812,-112.4509C69.2197,-93.936 49.7815,-52.8591 38.3579,-28.7187"/>
<polygon fill="#191970" stroke="#191970" points="41.4484,-27.0668 34.0073,-19.5249 35.1211,-30.061 41.4484,-27.0668"/>
</g>
<!-- Node2 -->
<g id="node3" class="node">
<title>Node2</title>
<g id="a_node3"><a xlink:href="Vec2_8hpp.html" target="_top" xlink:title=" ">
<polygon fill="#ffffff" stroke="#000000" points="92,-56.5 92,-75.5 157,-75.5 157,-56.5 92,-56.5"/>
<text text-anchor="middle" x="124.5" y="-63.5" font-family="'Consolas',monospace" font-size="10.00" fill="#000000">Vec2.hpp</text>
</a>
</g>
</g>
<!-- Node0&#45;&gt;Node2 -->
<g id="edge2" class="edge">
<title>Node0&#45;&gt;Node2</title>
<path fill="none" stroke="#191970" d="M89.8158,-112.2455C95.7179,-104.3761 104.1742,-93.101 111.2594,-83.6542"/>
<polygon fill="#191970" stroke="#191970" points="114.068,-85.7427 117.268,-75.6427 108.4679,-81.5427 114.068,-85.7427"/>
</g>
<!-- Node2&#45;&gt;Node1 -->
<g id="edge3" class="edge">
<title>Node2&#45;&gt;Node1</title>
<path fill="none" stroke="#191970" d="M107.9523,-56.2455C93.2401,-47.5731 71.5112,-34.7645 54.6495,-24.825"/>
<polygon fill="#191970" stroke="#191970" points="56.2502,-21.7057 45.8581,-19.6427 52.6954,-27.736 56.2502,-21.7057"/>
</g>
<!-- Node3 -->
<g id="node4" class="node">
<title>Node3</title>
<g id="a_node4"><a xlink:title=" ">
<polygon fill="#ffffff" stroke="#bfbfbf" points="77,-.5 77,-19.5 196,-19.5 196,-.5 77,-.5"/>
<text text-anchor="middle" x="136.5" y="-7.5" font-family="'Consolas',monospace" font-size="10.00" fill="#000000">boost/version.hpp</text>
</a>
</g>
</g>
<!-- Node2&#45;&gt;Node3 -->
<g id="edge4" class="edge">
<title>Node2&#45;&gt;Node3</title>
<path fill="none" stroke="#191970" d="M126.5902,-56.2455C128.1561,-48.9382 130.3512,-38.6944 132.2776,-29.7046"/>
<polygon fill="#191970" stroke="#191970" points="135.7607,-30.1541 134.4337,-19.6427 128.916,-28.6873 135.7607,-30.1541"/>
</g>
<!-- Node4 -->
<g id="node5" class="node">
<title>Node4</title>
<g id="a_node5"><a doxygen="/w/doc/cppreference-doxygen-web.tag.xml:http://en.cppreference.com/w/" xlink:href="http://en.cppreference.com/w/cpp/header/iosfwd.html" xlink:title=" ">
<polygon fill="#ffffff" stroke="#000000" points="214,-.5 214,-19.5 267,-19.5 267,-.5 214,-.5"/>
<text text-anchor="middle" x="240.5" y="-7.5" font-family="'Consolas',monospace" font-size="10.00" fill="#000000">iosfwd</text>
</a>
</g>
</g>
<!-- Node2&#45;&gt;Node4 -->
<g id="edge5" class="edge">
<title>Node2&#45;&gt;Node4</title>
<path fill="none" stroke="#191970" d="M144.4411,-56.3733C162.9786,-47.4241 190.8028,-33.9917 211.7413,-23.8835"/>
<polygon fill="#191970" stroke="#191970" points="213.3352,-27.0006 220.8191,-19.5011 210.2919,-20.6967 213.3352,-27.0006"/>
</g>
</g>
</svg>
