<?xml version="1.0" encoding="UTF-8" standalone="no"?>
<!DOCTYPE svg PUBLIC "-//W3C//DTD SVG 1.1//EN"
 "http://www.w3.org/Graphics/SVG/1.1/DTD/svg11.dtd">
<!-- Generated by graphviz version 2.40.1 (20161225.0304)
 -->
<!-- Title: jngl/screen.hpp Pages: 1 -->
<svg width="286pt" height="140pt"
 viewBox="0.00 0.00 286.00 140.00" xmlns="http://www.w3.org/2000/svg" xmlns:xlink="http://www.w3.org/1999/xlink">
<g id="graph0" class="graph" transform="scale(1 1) rotate(0) translate(4 136)">
<title>jngl/screen.hpp</title>
<polygon fill="#ffffff" stroke="transparent" points="-4,4 -4,-136 282,-136 282,4 -4,4"/>
<!-- Node0 -->
<g id="node1" class="node">
<title>Node0</title>
<polygon fill="#bfbfbf" stroke="#000000" points="19,-112.5 19,-131.5 126,-131.5 126,-112.5 19,-112.5"/>
<text text-anchor="middle" x="72.5" y="-119.5" font-family="'Consolas',monospace" font-size="10.00" fill="#000000">jngl/screen.hpp</text>
</g>
<!-- Node1 -->
<g id="node2" class="node">
<title>Node1</title>
<g id="a_node2"><a xlink:href="dll_8hpp_source.html" target="_top" xlink:title="dll.hpp">
<polygon fill="#ffffff" stroke="#000000" points="0,-.5 0,-19.5 59,-19.5 59,-.5 0,-.5"/>
<text text-anchor="middle" x="29.5" y="-7.5" font-family="'Consolas',monospace" font-size="10.00" fill="#000000">dll.hpp</text>
</a>
</g>
</g>
<!-- Node0&#45;&gt;Node1 -->
<g id="edge1" class="edge">
<title>Node0&#45;&gt;Node1</title>
<path fill="none" stroke="#191970" d="M58.1263,-112.1853C47.4295,-103.9414 33.6591,-91.1035 27.5,-76 21.5481,-61.4045 22.5668,-43.4476 24.7852,-29.9509"/>
<polygon fill="#191970" stroke="#191970" points="28.2793,-30.3259 26.8042,-19.8343 21.4147,-28.9559 28.2793,-30.3259"/>
</g>
<!-- Node2 -->
<g id="node3" class="node">
<title>Node2</title>
<g id="a_node3"><a xlink:href="types_8hpp_source.html" target="_top" xlink:title="types.hpp">
<polygon fill="#ffffff" stroke="#000000" points="37,-56.5 37,-75.5 108,-75.5 108,-56.5 37,-56.5"/>
<text text-anchor="middle" x="72.5" y="-63.5" font-family="'Consolas',monospace" font-size="10.00" fill="#000000">types.hpp</text>
</a>
</g>
</g>
<!-- Node0&#45;&gt;Node2 -->
<g id="edge2" class="edge">
<title>Node0&#45;&gt;Node2</title>
<path fill="none" stroke="#191970" d="M72.5,-112.2455C72.5,-104.9382 72.5,-94.6944 72.5,-85.7046"/>
<polygon fill="#191970" stroke="#191970" points="76.0001,-85.6426 72.5,-75.6427 69.0001,-85.6427 76.0001,-85.6426"/>
</g>
<!-- Node3 -->
<g id="node4" class="node">
<title>Node3</title>
<g id="a_node4"><a xlink:href="Vec2_8hpp.html" target="_top" xlink:title="Vec2.hpp">
<polygon fill="#ffffff" stroke="#000000" points="126,-56.5 126,-75.5 191,-75.5 191,-56.5 126,-56.5"/>
<text text-anchor="middle" x="158.5" y="-63.5" font-family="'Consolas',monospace" font-size="10.00" fill="#000000">Vec2.hpp</text>
</a>
</g>
</g>
<!-- Node0&#45;&gt;Node3 -->
<g id="edge3" class="edge">
<title>Node0&#45;&gt;Node3</title>
<path fill="none" stroke="#191970" d="M87.4801,-112.2455C100.6751,-103.6534 120.1051,-91.0014 135.3079,-81.1018"/>
<polygon fill="#191970" stroke="#191970" points="137.2215,-84.0325 143.6916,-75.6427 133.4017,-78.1665 137.2215,-84.0325"/>
</g>
<!-- Node3&#45;&gt;Node1 -->
<g id="edge4" class="edge">
<title>Node3&#45;&gt;Node1</title>
<path fill="none" stroke="#191970" d="M136.3241,-56.3733C115.5234,-47.3435 84.2083,-33.7494 60.8542,-23.6111"/>
<polygon fill="#191970" stroke="#191970" points="61.9532,-20.2727 51.3865,-19.5011 59.1657,-26.6938 61.9532,-20.2727"/>
</g>
<!-- Node4 -->
<g id="node5" class="node">
<title>Node4</title>
<polygon fill="#ffffff" stroke="#bfbfbf" points="88,-.5 88,-19.5 207,-19.5 207,-.5 88,-.5"/>
<text text-anchor="middle" x="147.5" y="-7.5" font-family="'Consolas',monospace" font-size="10.00" fill="#000000">boost/version.hpp</text>
</g>
<!-- Node3&#45;&gt;Node4 -->
<g id="edge5" class="edge">
<title>Node3&#45;&gt;Node4</title>
<path fill="none" stroke="#191970" d="M156.5839,-56.2455C155.1486,-48.9382 153.1364,-38.6944 151.3705,-29.7046"/>
<polygon fill="#191970" stroke="#191970" points="154.756,-28.7805 149.3941,-19.6427 147.8873,-30.1298 154.756,-28.7805"/>
</g>
<!-- Node5 -->
<g id="node6" class="node">
<title>Node5</title>
<polygon fill="#ffffff" stroke="#bfbfbf" points="225,-.5 225,-19.5 278,-19.5 278,-.5 225,-.5"/>
<text text-anchor="middle" x="251.5" y="-7.5" font-family="'Consolas',monospace" font-size="10.00" fill="#000000">iosfwd</text>
</g>
<!-- Node3&#45;&gt;Node5 -->
<g id="edge6" class="edge">
<title>Node3&#45;&gt;Node5</title>
<path fill="none" stroke="#191970" d="M174.6994,-56.2455C189.1018,-47.5731 210.3732,-34.7645 226.8799,-24.825"/>
<polygon fill="#191970" stroke="#191970" points="228.725,-27.7996 235.4863,-19.6427 225.114,-21.8028 228.725,-27.7996"/>
</g>
</g>
</svg>
