<?xml version="1.0" encoding="UTF-8" standalone="no"?>
<!DOCTYPE svg PUBLIC "-//W3C//DTD SVG 1.1//EN"
 "http://www.w3.org/Graphics/SVG/1.1/DTD/svg11.dtd">
<!-- Generated by graphviz version 2.40.1 (0)
 -->
<!-- Title: jngl/screen.hpp Pages: 1 -->
<svg width="250pt" height="140pt"
 viewBox="0.00 0.00 250.00 140.00" xmlns="http://www.w3.org/2000/svg" xmlns:xlink="http://www.w3.org/1999/xlink">
<g id="graph0" class="graph" transform="scale(1 1) rotate(0) translate(4 136)">
<title>jngl/screen.hpp</title>
<polygon fill="#ffffff" stroke="transparent" points="-4,4 -4,-136 246,-136 246,4 -4,4"/>
<!-- Node0 -->
<g id="node1" class="node">
<title>Node0</title>
<polygon fill="#bfbfbf" stroke="#000000" points="15.5,-112.5 15.5,-131.5 103.5,-131.5 103.5,-112.5 15.5,-112.5"/>
<text text-anchor="middle" x="59.5" y="-119.5" font-family="Lato" font-size="10.00" fill="#000000">jngl/screen.hpp</text>
</g>
<!-- Node1 -->
<g id="node2" class="node">
<title>Node1</title>
<g id="a_node2"><a xlink:href="dll_8hpp_source.html" target="_top" xlink:title="dll.hpp">
<polygon fill="#ffffff" stroke="#000000" points="0,-.5 0,-19.5 47,-19.5 47,-.5 0,-.5"/>
<text text-anchor="middle" x="23.5" y="-7.5" font-family="Lato" font-size="10.00" fill="#000000">dll.hpp</text>
</a>
</g>
</g>
<!-- Node0&#45;&gt;Node1 -->
<g id="edge1" class="edge">
<title>Node0&#45;&gt;Node1</title>
<path fill="none" stroke="#191970" d="M47.0788,-112.18C37.4984,-103.7529 24.9865,-90.6707 19.5,-76 13.9711,-61.2159 15.5354,-43.273 18.1683,-29.8296"/>
<polygon fill="#191970" stroke="#191970" points="21.653,-30.2954 20.4989,-19.7636 14.8334,-28.7163 21.653,-30.2954"/>
</g>
<!-- Node2 -->
<g id="node3" class="node">
<title>Node2</title>
<g id="a_node3"><a xlink:href="types_8hpp_source.html" target="_top" xlink:title="types.hpp">
<polygon fill="#ffffff" stroke="#000000" points="28.5,-56.5 28.5,-75.5 90.5,-75.5 90.5,-56.5 28.5,-56.5"/>
<text text-anchor="middle" x="59.5" y="-63.5" font-family="Lato" font-size="10.00" fill="#000000">types.hpp</text>
</a>
</g>
</g>
<!-- Node0&#45;&gt;Node2 -->
<g id="edge2" class="edge">
<title>Node0&#45;&gt;Node2</title>
<path fill="none" stroke="#191970" d="M59.5,-112.2455C59.5,-104.9382 59.5,-94.6944 59.5,-85.7046"/>
<polygon fill="#191970" stroke="#191970" points="63.0001,-85.6426 59.5,-75.6427 56.0001,-85.6427 63.0001,-85.6426"/>
</g>
<!-- Node3 -->
<g id="node4" class="node">
<title>Node3</title>
<g id="a_node4"><a xlink:href="Vec2_8hpp.html" target="_top" xlink:title="Vec2.hpp">
<polygon fill="#ffffff" stroke="#000000" points="108.5,-56.5 108.5,-75.5 168.5,-75.5 168.5,-56.5 108.5,-56.5"/>
<text text-anchor="middle" x="138.5" y="-63.5" font-family="Lato" font-size="10.00" fill="#000000">Vec2.hpp</text>
</a>
</g>
</g>
<!-- Node0&#45;&gt;Node3 -->
<g id="edge3" class="edge">
<title>Node0&#45;&gt;Node3</title>
<path fill="none" stroke="#191970" d="M73.2607,-112.2455C85.1552,-103.814 102.565,-91.4729 116.4085,-81.6598"/>
<polygon fill="#191970" stroke="#191970" points="118.7628,-84.2811 124.8969,-75.6427 114.7146,-78.5704 118.7628,-84.2811"/>
</g>
<!-- Node3&#45;&gt;Node1 -->
<g id="edge4" class="edge">
<title>Node3&#45;&gt;Node1</title>
<path fill="none" stroke="#191970" d="M118.7308,-56.3733C100.3531,-47.4241 72.7688,-33.9917 52.0107,-23.8835"/>
<polygon fill="#191970" stroke="#191970" points="53.5343,-20.7325 43.0112,-19.5011 50.4696,-27.026 53.5343,-20.7325"/>
</g>
<!-- Node4 -->
<g id="node5" class="node">
<title>Node4</title>
<polygon fill="#ffffff" stroke="#bfbfbf" points="76.5,-.5 76.5,-19.5 176.5,-19.5 176.5,-.5 76.5,-.5"/>
<text text-anchor="middle" x="126.5" y="-7.5" font-family="Lato" font-size="10.00" fill="#000000">boost/version.hpp</text>
</g>
<!-- Node3&#45;&gt;Node4 -->
<g id="edge5" class="edge">
<title>Node3&#45;&gt;Node4</title>
<path fill="none" stroke="#191970" d="M136.4098,-56.2455C134.8439,-48.9382 132.6488,-38.6944 130.7224,-29.7046"/>
<polygon fill="#191970" stroke="#191970" points="134.084,-28.6873 128.5663,-19.6427 127.2393,-30.1541 134.084,-28.6873"/>
</g>
<!-- Node5 -->
<g id="node6" class="node">
<title>Node5</title>
<polygon fill="#ffffff" stroke="#bfbfbf" points="195,-.5 195,-19.5 242,-19.5 242,-.5 195,-.5"/>
<text text-anchor="middle" x="218.5" y="-7.5" font-family="Lato" font-size="10.00" fill="#000000">iosfwd</text>
</g>
<!-- Node3&#45;&gt;Node5 -->
<g id="edge6" class="edge">
<title>Node3&#45;&gt;Node5</title>
<path fill="none" stroke="#191970" d="M152.4349,-56.2455C164.5947,-47.7337 182.4464,-35.2375 196.5285,-25.3801"/>
<polygon fill="#191970" stroke="#191970" points="198.5395,-28.2447 204.7248,-19.6427 194.5253,-22.51 198.5395,-28.2447"/>
</g>
</g>
</svg>
