<?xml version="1.0" encoding="UTF-8" standalone="no"?>
<!DOCTYPE svg PUBLIC "-//W3C//DTD SVG 1.1//EN"
 "http://www.w3.org/Graphics/SVG/1.1/DTD/svg11.dtd">
<!-- Generated by graphviz version 2.40.1 (0)
 -->
<!-- Title: jngl/screen.hpp Pages: 1 -->
<svg width="240pt" height="140pt"
 viewBox="0.00 0.00 239.50 140.00" xmlns="http://www.w3.org/2000/svg" xmlns:xlink="http://www.w3.org/1999/xlink">
<g id="graph0" class="graph" transform="scale(1 1) rotate(0) translate(4 136)">
<title>jngl/screen.hpp</title>
<polygon fill="#ffffff" stroke="transparent" points="-4,4 -4,-136 235.5,-136 235.5,4 -4,4"/>
<!-- Node0 -->
<g id="node1" class="node">
<title>Node0</title>
<polygon fill="#bfbfbf" stroke="#000000" points="15.5,-112.5 15.5,-131.5 98.5,-131.5 98.5,-112.5 15.5,-112.5"/>
<text text-anchor="middle" x="57" y="-119.5" font-family="Lato" font-size="10.00" fill="#000000">jngl/screen.hpp</text>
</g>
<!-- Node1 -->
<g id="node2" class="node">
<title>Node1</title>
<g id="a_node2"><a xlink:href="dll_8hpp_source.html" target="_top" xlink:title="dll.hpp">
<polygon fill="#ffffff" stroke="#000000" points="0,-.5 0,-19.5 44,-19.5 44,-.5 0,-.5"/>
<text text-anchor="middle" x="22" y="-7.5" font-family="Lato" font-size="10.00" fill="#000000">dll.hpp</text>
</a>
</g>
</g>
<!-- Node0&#45;&gt;Node1 -->
<g id="edge1" class="edge">
<title>Node0&#45;&gt;Node1</title>
<path fill="none" stroke="#191970" d="M45.26,-112.4549C35.869,-104.0029 23.4091,-90.7442 18,-76 12.5637,-61.1816 14.1211,-43.2413 16.7278,-29.8076"/>
<polygon fill="#191970" stroke="#191970" points="20.2102,-30.28 19.0337,-19.7507 13.3873,-28.7156 20.2102,-30.28"/>
</g>
<!-- Node2 -->
<g id="node3" class="node">
<title>Node2</title>
<g id="a_node3"><a xlink:href="types_8hpp_source.html" target="_top" xlink:title="types.hpp">
<polygon fill="#ffffff" stroke="#000000" points="27.5,-56.5 27.5,-75.5 86.5,-75.5 86.5,-56.5 27.5,-56.5"/>
<text text-anchor="middle" x="57" y="-63.5" font-family="Lato" font-size="10.00" fill="#000000">types.hpp</text>
</a>
</g>
</g>
<!-- Node0&#45;&gt;Node2 -->
<g id="edge2" class="edge">
<title>Node0&#45;&gt;Node2</title>
<path fill="none" stroke="#191970" d="M57,-112.2455C57,-104.9382 57,-94.6944 57,-85.7046"/>
<polygon fill="#191970" stroke="#191970" points="60.5001,-85.6426 57,-75.6427 53.5001,-85.6427 60.5001,-85.6426"/>
</g>
<!-- Node3 -->
<g id="node4" class="node">
<title>Node3</title>
<g id="a_node4"><a xlink:href="Vec2_8hpp.html" target="_top" xlink:title="Vec2.hpp">
<polygon fill="#ffffff" stroke="#000000" points="105,-56.5 105,-75.5 161,-75.5 161,-56.5 105,-56.5"/>
<text text-anchor="middle" x="133" y="-63.5" font-family="Lato" font-size="10.00" fill="#000000">Vec2.hpp</text>
</a>
</g>
</g>
<!-- Node0&#45;&gt;Node3 -->
<g id="edge3" class="edge">
<title>Node0&#45;&gt;Node3</title>
<path fill="none" stroke="#191970" d="M70.2382,-112.2455C81.681,-103.814 98.4296,-91.4729 111.7475,-81.6598"/>
<polygon fill="#191970" stroke="#191970" points="113.9391,-84.3924 119.9135,-75.6427 109.7867,-78.757 113.9391,-84.3924"/>
</g>
<!-- Node3&#45;&gt;Node1 -->
<g id="edge4" class="edge">
<title>Node3&#45;&gt;Node1</title>
<path fill="none" stroke="#191970" d="M113.9184,-56.3733C96.2598,-47.4644 69.7947,-34.1127 49.7902,-24.0203"/>
<polygon fill="#191970" stroke="#191970" points="51.3372,-20.8806 40.8326,-19.5011 48.1842,-27.1303 51.3372,-20.8806"/>
</g>
<!-- Node4 -->
<g id="node5" class="node">
<title>Node4</title>
<polygon fill="#ffffff" stroke="#bfbfbf" points="73.5,-.5 73.5,-19.5 168.5,-19.5 168.5,-.5 73.5,-.5"/>
<text text-anchor="middle" x="121" y="-7.5" font-family="Lato" font-size="10.00" fill="#000000">boost/version.hpp</text>
</g>
<!-- Node3&#45;&gt;Node4 -->
<g id="edge5" class="edge">
<title>Node3&#45;&gt;Node4</title>
<path fill="none" stroke="#191970" d="M130.9098,-56.2455C129.3439,-48.9382 127.1488,-38.6944 125.2224,-29.7046"/>
<polygon fill="#191970" stroke="#191970" points="128.584,-28.6873 123.0663,-19.6427 121.7393,-30.1541 128.584,-28.6873"/>
</g>
<!-- Node5 -->
<g id="node6" class="node">
<title>Node5</title>
<polygon fill="#ffffff" stroke="#bfbfbf" points="186.5,-.5 186.5,-19.5 231.5,-19.5 231.5,-.5 186.5,-.5"/>
<text text-anchor="middle" x="209" y="-7.5" font-family="Lato" font-size="10.00" fill="#000000">iosfwd</text>
</g>
<!-- Node3&#45;&gt;Node5 -->
<g id="edge6" class="edge">
<title>Node3&#45;&gt;Node5</title>
<path fill="none" stroke="#191970" d="M146.2382,-56.2455C157.681,-47.814 174.4296,-35.4729 187.7475,-25.6598"/>
<polygon fill="#191970" stroke="#191970" points="189.9391,-28.3924 195.9135,-19.6427 185.7867,-22.757 189.9391,-28.3924"/>
</g>
</g>
</svg>
