<?xml version="1.0" encoding="UTF-8" standalone="no"?>
<!DOCTYPE svg PUBLIC "-//W3C//DTD SVG 1.1//EN"
 "http://www.w3.org/Graphics/SVG/1.1/DTD/svg11.dtd">
<!-- Generated by graphviz version 2.40.1 (0)
 -->
<!-- Title: jngl/screen.hpp Pages: 1 -->
<svg width="91pt" height="140pt"
 viewBox="0.00 0.00 91.00 140.00" xmlns="http://www.w3.org/2000/svg" xmlns:xlink="http://www.w3.org/1999/xlink">
<g id="graph0" class="graph" transform="scale(1 1) rotate(0) translate(4 136)">
<title>jngl/screen.hpp</title>
<polygon fill="#ffffff" stroke="transparent" points="-4,4 -4,-136 87,-136 87,4 -4,4"/>
<!-- Node6 -->
<g id="node1" class="node">
<title>Node6</title>
<polygon fill="#bfbfbf" stroke="#000000" points="0,-112.5 0,-131.5 83,-131.5 83,-112.5 0,-112.5"/>
<text text-anchor="middle" x="41.5" y="-119.5" font-family="Lato" font-size="10.00" fill="#000000">jngl/screen.hpp</text>
</g>
<!-- Node7 -->
<g id="node2" class="node">
<title>Node7</title>
<g id="a_node2"><a xlink:href="all_8hpp.html" target="_top" xlink:title="Includes all JNGL headers. ">
<polygon fill="#ffffff" stroke="#000000" points="10.5,-56.5 10.5,-75.5 72.5,-75.5 72.5,-56.5 10.5,-56.5"/>
<text text-anchor="middle" x="41.5" y="-63.5" font-family="Lato" font-size="10.00" fill="#000000">jngl/all.hpp</text>
</a>
</g>
</g>
<!-- Node6&#45;&gt;Node7 -->
<g id="edge1" class="edge">
<title>Node6&#45;&gt;Node7</title>
<path fill="none" stroke="#191970" d="M41.5,-102.1575C41.5,-93.155 41.5,-82.9199 41.5,-75.6427"/>
<polygon fill="#191970" stroke="#191970" points="38.0001,-102.2455 41.5,-112.2455 45.0001,-102.2456 38.0001,-102.2455"/>
</g>
<!-- Node8 -->
<g id="node3" class="node">
<title>Node8</title>
<g id="a_node3"><a xlink:href="jngl_8hpp_source.html" target="_top" xlink:title="jngl.hpp">
<polygon fill="#ffffff" stroke="#000000" points="16.5,-.5 16.5,-19.5 66.5,-19.5 66.5,-.5 16.5,-.5"/>
<text text-anchor="middle" x="41.5" y="-7.5" font-family="Lato" font-size="10.00" fill="#000000">jngl.hpp</text>
</a>
</g>
</g>
<!-- Node7&#45;&gt;Node8 -->
<g id="edge2" class="edge">
<title>Node7&#45;&gt;Node8</title>
<path fill="none" stroke="#191970" d="M41.5,-46.1575C41.5,-37.155 41.5,-26.9199 41.5,-19.6427"/>
<polygon fill="#191970" stroke="#191970" points="38.0001,-46.2455 41.5,-56.2455 45.0001,-46.2456 38.0001,-46.2455"/>
</g>
</g>
</svg>
