<?xml version="1.0" encoding="UTF-8" standalone="no"?>
<!DOCTYPE svg PUBLIC "-//W3C//DTD SVG 1.1//EN"
 "http://www.w3.org/Graphics/SVG/1.1/DTD/svg11.dtd">
<!-- Generated by graphviz version 2.40.1 (0)
 -->
<!-- Title: jngl/screen.hpp Pages: 1 -->
<svg width="230pt" height="143pt"
 viewBox="0.00 0.00 229.64 143.00" xmlns="http://www.w3.org/2000/svg" xmlns:xlink="http://www.w3.org/1999/xlink">
<g id="graph0" class="graph" transform="scale(1 1) rotate(0) translate(4 139)">
<title>jngl/screen.hpp</title>
<polygon fill="#ffffff" stroke="transparent" points="-4,4 -4,-139 225.637,-139 225.637,4 -4,4"/>
<!-- Node0 -->
<g id="node1" class="node">
<title>Node0</title>
<polygon fill="#bfbfbf" stroke="#000000" points="16.343,-114.5 16.343,-134.5 93.715,-134.5 93.715,-114.5 16.343,-114.5"/>
<text text-anchor="middle" x="55.029" y="-121.5" font-family="Lato" font-size="10.00" fill="#000000">jngl/screen.hpp</text>
</g>
<!-- Node1 -->
<g id="node2" class="node">
<title>Node1</title>
<g id="a_node2"><a xlink:href="dll_8hpp_source.html" target="_top" xlink:title="dll.hpp">
<polygon fill="#ffffff" stroke="#000000" points="0,-.5 0,-20.5 44.058,-20.5 44.058,-.5 0,-.5"/>
<text text-anchor="middle" x="22.029" y="-7.5" font-family="Lato" font-size="10.00" fill="#000000">dll.hpp</text>
</a>
</g>
</g>
<!-- Node0&#45;&gt;Node1 -->
<g id="edge1" class="edge">
<title>Node0&#45;&gt;Node1</title>
<path fill="none" stroke="#191970" d="M43.8232,-114.2889C35.1853,-105.6053 23.9168,-92.2977 19.029,-78 13.8193,-62.7605 15.0606,-44.4521 17.3318,-30.7499"/>
<polygon fill="#191970" stroke="#191970" points="20.7743,-31.3828 19.2706,-20.8952 13.906,-30.0315 20.7743,-31.3828"/>
</g>
<!-- Node2 -->
<g id="node3" class="node">
<title>Node2</title>
<g id="a_node3"><a xlink:href="types_8hpp_source.html" target="_top" xlink:title="types.hpp">
<polygon fill="#ffffff" stroke="#000000" points="27.7255,-57.5 27.7255,-77.5 82.3325,-77.5 82.3325,-57.5 27.7255,-57.5"/>
<text text-anchor="middle" x="55.029" y="-64.5" font-family="Lato" font-size="10.00" fill="#000000">types.hpp</text>
</a>
</g>
</g>
<!-- Node0&#45;&gt;Node2 -->
<g id="edge2" class="edge">
<title>Node0&#45;&gt;Node2</title>
<path fill="none" stroke="#191970" d="M55.029,-114.3095C55.029,-106.9335 55.029,-96.72 55.029,-87.715"/>
<polygon fill="#191970" stroke="#191970" points="58.5291,-87.6022 55.029,-77.6022 51.5291,-87.6023 58.5291,-87.6022"/>
</g>
<!-- Node3 -->
<g id="node4" class="node">
<title>Node3</title>
<g id="a_node4"><a xlink:href="Vec2_8hpp.html" target="_top" xlink:title="Vec2.hpp">
<polygon fill="#ffffff" stroke="#000000" points="100.7305,-57.5 100.7305,-77.5 155.3275,-77.5 155.3275,-57.5 100.7305,-57.5"/>
<text text-anchor="middle" x="128.029" y="-64.5" font-family="Lato" font-size="10.00" fill="#000000">Vec2.hpp</text>
</a>
</g>
</g>
<!-- Node0&#45;&gt;Node3 -->
<g id="edge3" class="edge">
<title>Node0&#45;&gt;Node3</title>
<path fill="none" stroke="#191970" d="M68.0799,-114.3095C78.876,-105.8798 94.4184,-93.7439 106.9723,-83.9415"/>
<polygon fill="#191970" stroke="#191970" points="109.3632,-86.5153 115.0911,-77.6022 105.0551,-80.998 109.3632,-86.5153"/>
</g>
<!-- Node3&#45;&gt;Node1 -->
<g id="edge4" class="edge">
<title>Node3&#45;&gt;Node1</title>
<path fill="none" stroke="#191970" d="M109.0783,-57.3095C92.5729,-48.434 68.4271,-35.4499 49.7504,-25.4068"/>
<polygon fill="#191970" stroke="#191970" points="51.2806,-22.2557 40.8156,-20.6022 47.9654,-28.4209 51.2806,-22.2557"/>
</g>
<!-- Node4 -->
<g id="node5" class="node">
<title>Node4</title>
<polygon fill="#ffffff" stroke="#bfbfbf" points="73.3375,-.5 73.3375,-20.5 160.7205,-20.5 160.7205,-.5 73.3375,-.5"/>
<text text-anchor="middle" x="117.029" y="-7.5" font-family="Lato" font-size="10.00" fill="#000000">boost/version.hpp</text>
</g>
<!-- Node3&#45;&gt;Node4 -->
<g id="edge5" class="edge">
<title>Node3&#45;&gt;Node4</title>
<path fill="none" stroke="#191970" d="M126.0624,-57.3095C124.639,-49.9335 122.6679,-39.72 120.9301,-30.715"/>
<polygon fill="#191970" stroke="#191970" points="124.3101,-29.7578 118.9786,-20.6022 117.4369,-31.0843 124.3101,-29.7578"/>
</g>
<!-- Node5 -->
<g id="node6" class="node">
<title>Node5</title>
<polygon fill="#ffffff" stroke="#bfbfbf" points="178.421,-.5 178.421,-20.5 221.637,-20.5 221.637,-.5 178.421,-.5"/>
<text text-anchor="middle" x="200.029" y="-7.5" font-family="Lato" font-size="10.00" fill="#000000">iosfwd</text>
</g>
<!-- Node3&#45;&gt;Node5 -->
<g id="edge6" class="edge">
<title>Node3&#45;&gt;Node5</title>
<path fill="none" stroke="#191970" d="M140.9012,-57.3095C151.5493,-48.8798 166.8788,-36.7439 179.2608,-26.9415"/>
<polygon fill="#191970" stroke="#191970" points="181.6003,-29.5535 187.2683,-20.6022 177.2553,-24.0651 181.6003,-29.5535"/>
</g>
</g>
</svg>
