<?xml version="1.0" encoding="UTF-8" standalone="no"?>
<!DOCTYPE svg PUBLIC "-//W3C//DTD SVG 1.1//EN"
 "http://www.w3.org/Graphics/SVG/1.1/DTD/svg11.dtd">
<!-- Generated by graphviz version 2.40.1 (0)
 -->
<!-- Title: jngl/screen.hpp Pages: 1 -->
<svg width="85pt" height="143pt"
 viewBox="0.00 0.00 85.37 143.00" xmlns="http://www.w3.org/2000/svg" xmlns:xlink="http://www.w3.org/1999/xlink">
<g id="graph0" class="graph" transform="scale(1 1) rotate(0) translate(4 139)">
<title>jngl/screen.hpp</title>
<polygon fill="#ffffff" stroke="transparent" points="-4,4 -4,-139 81.372,-139 81.372,4 -4,4"/>
<!-- Node6 -->
<g id="node1" class="node">
<title>Node6</title>
<polygon fill="#bfbfbf" stroke="#000000" points="0,-114.5 0,-134.5 77.372,-134.5 77.372,-114.5 0,-114.5"/>
<text text-anchor="middle" x="38.686" y="-121.5" font-family="Lato" font-size="10.00" fill="#000000">jngl/screen.hpp</text>
</g>
<!-- Node7 -->
<g id="node2" class="node">
<title>Node7</title>
<g id="a_node2"><a xlink:href="all_8hpp.html" target="_top" xlink:title="Includes all JNGL headers. ">
<polygon fill="#ffffff" stroke="#000000" points="7.769,-57.5 7.769,-77.5 69.603,-77.5 69.603,-57.5 7.769,-57.5"/>
<text text-anchor="middle" x="38.686" y="-64.5" font-family="Lato" font-size="10.00" fill="#000000">jngl/all.hpp</text>
</a>
</g>
</g>
<!-- Node6&#45;&gt;Node7 -->
<g id="edge1" class="edge">
<title>Node6&#45;&gt;Node7</title>
<path fill="none" stroke="#191970" d="M38.686,-104.1771C38.686,-95.1625 38.686,-84.9556 38.686,-77.6022"/>
<polygon fill="#191970" stroke="#191970" points="35.1861,-104.3095 38.686,-114.3095 42.1861,-104.3096 35.1861,-104.3095"/>
</g>
<!-- Node8 -->
<g id="node3" class="node">
<title>Node8</title>
<g id="a_node3"><a xlink:href="jngl_8hpp_source.html" target="_top" xlink:title="jngl.hpp">
<polygon fill="#ffffff" stroke="#000000" points="14.157,-.5 14.157,-20.5 63.215,-20.5 63.215,-.5 14.157,-.5"/>
<text text-anchor="middle" x="38.686" y="-7.5" font-family="Lato" font-size="10.00" fill="#000000">jngl.hpp</text>
</a>
</g>
</g>
<!-- Node7&#45;&gt;Node8 -->
<g id="edge2" class="edge">
<title>Node7&#45;&gt;Node8</title>
<path fill="none" stroke="#191970" d="M38.686,-47.1771C38.686,-38.1625 38.686,-27.9556 38.686,-20.6022"/>
<polygon fill="#191970" stroke="#191970" points="35.1861,-47.3095 38.686,-57.3095 42.1861,-47.3096 35.1861,-47.3095"/>
</g>
</g>
</svg>
