<?xml version="1.0" encoding="UTF-8" standalone="no"?>
<!DOCTYPE svg PUBLIC "-//W3C//DTD SVG 1.1//EN"
 "http://www.w3.org/Graphics/SVG/1.1/DTD/svg11.dtd">
<!-- Generated by graphviz version 2.38.0 (20140413.2041)
 -->
<!-- Title: jngl/screen.hpp Pages: 1 -->
<svg width="252pt" height="140pt"
 viewBox="0.00 0.00 252.00 140.00" xmlns="http://www.w3.org/2000/svg" xmlns:xlink="http://www.w3.org/1999/xlink">
<g id="graph0" class="graph" transform="scale(1 1) rotate(0) translate(4 136)">
<title>jngl/screen.hpp</title>
<polygon fill="white" stroke="none" points="-4,4 -4,-136 248,-136 248,4 -4,4"/>
<!-- Node1 -->
<g id="node1" class="node"><title>Node1</title>
<polygon fill="#bfbfbf" stroke="black" points="15.5,-112.5 15.5,-131.5 104.5,-131.5 104.5,-112.5 15.5,-112.5"/>
<text text-anchor="middle" x="60" y="-119.5" font-family="Lato" font-size="10.00">jngl/screen.hpp</text>
</g>
<!-- Node2 -->
<g id="node2" class="node"><title>Node2</title>
<g id="a_node2"><a xlink:href="dll_8hpp_source.html" target="_top" xlink:title="dll.hpp">
<polygon fill="white" stroke="black" points="0,-0.5 0,-19.5 48,-19.5 48,-0.5 0,-0.5"/>
<text text-anchor="middle" x="24" y="-7.5" font-family="Lato" font-size="10.00">dll.hpp</text>
</a>
</g>
</g>
<!-- Node1&#45;&gt;Node2 -->
<g id="edge1" class="edge"><title>Node1&#45;&gt;Node2</title>
<path fill="none" stroke="midnightblue" d="M48.4594,-112.49C38.5206,-104.379 24.8775,-91.1778 19,-76 13.2525,-61.158 15.3282,-43.0082 18.3665,-29.6633"/>
<polygon fill="midnightblue" stroke="midnightblue" points="21.812,-30.325 20.9945,-19.7617 15.0462,-28.5292 21.812,-30.325"/>
</g>
<!-- Node3 -->
<g id="node3" class="node"><title>Node3</title>
<g id="a_node3"><a xlink:href="types_8hpp_source.html" target="_top" xlink:title="types.hpp">
<polygon fill="white" stroke="black" points="28,-56.5 28,-75.5 92,-75.5 92,-56.5 28,-56.5"/>
<text text-anchor="middle" x="60" y="-63.5" font-family="Lato" font-size="10.00">types.hpp</text>
</a>
</g>
</g>
<!-- Node1&#45;&gt;Node3 -->
<g id="edge2" class="edge"><title>Node1&#45;&gt;Node3</title>
<path fill="none" stroke="midnightblue" d="M60,-112.083C60,-105.006 60,-94.8611 60,-85.9865"/>
<polygon fill="midnightblue" stroke="midnightblue" points="63.5001,-85.751 60,-75.7511 56.5001,-85.7511 63.5001,-85.751"/>
</g>
<!-- Node4 -->
<g id="node4" class="node"><title>Node4</title>
<g id="a_node4"><a xlink:href="Vec2_8hpp.html" target="_top" xlink:title="Vec2.hpp">
<polygon fill="white" stroke="black" points="110.5,-56.5 110.5,-75.5 171.5,-75.5 171.5,-56.5 110.5,-56.5"/>
<text text-anchor="middle" x="141" y="-63.5" font-family="Lato" font-size="10.00">Vec2.hpp</text>
</a>
</g>
</g>
<!-- Node1&#45;&gt;Node4 -->
<g id="edge3" class="edge"><title>Node1&#45;&gt;Node4</title>
<path fill="none" stroke="midnightblue" d="M73.0141,-112.324C85.5316,-103.979 104.682,-91.2122 119.471,-81.3524"/>
<polygon fill="midnightblue" stroke="midnightblue" points="121.639,-84.1137 128.018,-75.6545 117.756,-78.2894 121.639,-84.1137"/>
</g>
<!-- Node4&#45;&gt;Node2 -->
<g id="edge4" class="edge"><title>Node4&#45;&gt;Node2</title>
<path fill="none" stroke="midnightblue" d="M122.461,-56.4435C103.377,-47.6356 73.4251,-33.8116 51.5643,-23.722"/>
<polygon fill="midnightblue" stroke="midnightblue" points="52.9986,-20.5292 42.4523,-19.5164 50.0651,-26.8849 52.9986,-20.5292"/>
</g>
<!-- Node5 -->
<g id="node5" class="node"><title>Node5</title>
<polygon fill="white" stroke="#bfbfbf" points="78,-0.5 78,-19.5 180,-19.5 180,-0.5 78,-0.5"/>
<text text-anchor="middle" x="129" y="-7.5" font-family="Lato" font-size="10.00">boost/version.hpp</text>
</g>
<!-- Node4&#45;&gt;Node5 -->
<g id="edge5" class="edge"><title>Node4&#45;&gt;Node5</title>
<path fill="none" stroke="midnightblue" d="M139.018,-56.083C137.428,-48.9272 135.141,-38.6353 133.154,-29.6911"/>
<polygon fill="midnightblue" stroke="midnightblue" points="136.531,-28.7537 130.945,-19.7511 129.697,-30.2722 136.531,-28.7537"/>
</g>
<!-- Node6 -->
<g id="node6" class="node"><title>Node6</title>
<polygon fill="white" stroke="#bfbfbf" points="198,-0.5 198,-19.5 244,-19.5 244,-0.5 198,-0.5"/>
<text text-anchor="middle" x="221" y="-7.5" font-family="Lato" font-size="10.00">iosfwd</text>
</g>
<!-- Node4&#45;&gt;Node6 -->
<g id="edge6" class="edge"><title>Node4&#45;&gt;Node6</title>
<path fill="none" stroke="midnightblue" d="M153.853,-56.324C166.216,-47.979 185.13,-35.2122 199.737,-25.3524"/>
<polygon fill="midnightblue" stroke="midnightblue" points="201.848,-28.1503 208.179,-19.6545 197.932,-22.3483 201.848,-28.1503"/>
</g>
</g>
</svg>
