<?xml version="1.0" encoding="UTF-8" standalone="no"?>
<!DOCTYPE svg PUBLIC "-//W3C//DTD SVG 1.1//EN"
 "http://www.w3.org/Graphics/SVG/1.1/DTD/svg11.dtd">
<!-- Generated by graphviz version 2.38.0 (20140413.2041)
 -->
<!-- Title: jngl/screen.hpp Pages: 1 -->
<svg width="286pt" height="140pt"
 viewBox="0.00 0.00 286.00 140.00" xmlns="http://www.w3.org/2000/svg" xmlns:xlink="http://www.w3.org/1999/xlink">
<g id="graph0" class="graph" transform="scale(1 1) rotate(0) translate(4 136)">
<title>jngl/screen.hpp</title>
<polygon fill="white" stroke="none" points="-4,4 -4,-136 282,-136 282,4 -4,4"/>
<!-- Node1 -->
<g id="node1" class="node"><title>Node1</title>
<polygon fill="#bfbfbf" stroke="black" points="19,-112.5 19,-131.5 126,-131.5 126,-112.5 19,-112.5"/>
<text text-anchor="middle" x="72.5" y="-119.5" font-family="'Consolas',monospace" font-size="10.00">jngl/screen.hpp</text>
</g>
<!-- Node2 -->
<g id="node2" class="node"><title>Node2</title>
<g id="a_node2"><a xlink:href="dll_8hpp_source.html" target="_top" xlink:title="dll.hpp">
<polygon fill="white" stroke="black" points="0,-0.5 0,-19.5 59,-19.5 59,-0.5 0,-0.5"/>
<text text-anchor="middle" x="29.5" y="-7.5" font-family="'Consolas',monospace" font-size="10.00">dll.hpp</text>
</a>
</g>
</g>
<!-- Node1&#45;&gt;Node2 -->
<g id="edge1" class="edge"><title>Node1&#45;&gt;Node2</title>
<path fill="none" stroke="midnightblue" d="M59.4359,-112.436C48.586,-104.471 33.9267,-91.5154 27.5,-76 21.4243,-61.3319 22.627,-43.165 24.9452,-29.7693"/>
<polygon fill="midnightblue" stroke="midnightblue" points="28.4047,-30.3245 27.0196,-19.8206 21.552,-28.8956 28.4047,-30.3245"/>
</g>
<!-- Node3 -->
<g id="node3" class="node"><title>Node3</title>
<g id="a_node3"><a xlink:href="types_8hpp_source.html" target="_top" xlink:title="types.hpp">
<polygon fill="white" stroke="black" points="37,-56.5 37,-75.5 108,-75.5 108,-56.5 37,-56.5"/>
<text text-anchor="middle" x="72.5" y="-63.5" font-family="'Consolas',monospace" font-size="10.00">types.hpp</text>
</a>
</g>
</g>
<!-- Node1&#45;&gt;Node3 -->
<g id="edge2" class="edge"><title>Node1&#45;&gt;Node3</title>
<path fill="none" stroke="midnightblue" d="M72.5,-112.083C72.5,-105.006 72.5,-94.8611 72.5,-85.9865"/>
<polygon fill="midnightblue" stroke="midnightblue" points="76.0001,-85.751 72.5,-75.7511 69.0001,-85.7511 76.0001,-85.751"/>
</g>
<!-- Node4 -->
<g id="node4" class="node"><title>Node4</title>
<g id="a_node4"><a xlink:href="Vec2_8hpp.html" target="_top" xlink:title="Vec2.hpp">
<polygon fill="white" stroke="black" points="126,-56.5 126,-75.5 191,-75.5 191,-56.5 126,-56.5"/>
<text text-anchor="middle" x="158.5" y="-63.5" font-family="'Consolas',monospace" font-size="10.00">Vec2.hpp</text>
</a>
</g>
</g>
<!-- Node1&#45;&gt;Node4 -->
<g id="edge3" class="edge"><title>Node1&#45;&gt;Node4</title>
<path fill="none" stroke="midnightblue" d="M86.3174,-112.324C99.733,-103.9 120.324,-90.9709 136.086,-81.0741"/>
<polygon fill="midnightblue" stroke="midnightblue" points="138.109,-83.9364 144.717,-75.6545 134.387,-78.0081 138.109,-83.9364"/>
</g>
<!-- Node4&#45;&gt;Node2 -->
<g id="edge4" class="edge"><title>Node4&#45;&gt;Node2</title>
<path fill="none" stroke="midnightblue" d="M138.06,-56.4435C116.83,-47.5566 83.401,-33.5632 59.245,-23.4514"/>
<polygon fill="midnightblue" stroke="midnightblue" points="60.4207,-20.1493 49.8448,-19.5164 57.7177,-26.6064 60.4207,-20.1493"/>
</g>
<!-- Node5 -->
<g id="node5" class="node"><title>Node5</title>
<polygon fill="white" stroke="#bfbfbf" points="88,-0.5 88,-19.5 207,-19.5 207,-0.5 88,-0.5"/>
<text text-anchor="middle" x="147.5" y="-7.5" font-family="'Consolas',monospace" font-size="10.00">boost/version.hpp</text>
</g>
<!-- Node4&#45;&gt;Node5 -->
<g id="edge5" class="edge"><title>Node4&#45;&gt;Node5</title>
<path fill="none" stroke="midnightblue" d="M156.684,-56.083C155.226,-48.9272 153.129,-38.6353 151.307,-29.6911"/>
<polygon fill="midnightblue" stroke="midnightblue" points="154.708,-28.8512 149.283,-19.7511 147.849,-30.2485 154.708,-28.8512"/>
</g>
<!-- Node6 -->
<g id="node6" class="node"><title>Node6</title>
<polygon fill="white" stroke="#bfbfbf" points="225,-0.5 225,-19.5 278,-19.5 278,-0.5 225,-0.5"/>
<text text-anchor="middle" x="251.5" y="-7.5" font-family="'Consolas',monospace" font-size="10.00">iosfwd</text>
</g>
<!-- Node4&#45;&gt;Node6 -->
<g id="edge6" class="edge"><title>Node4&#45;&gt;Node6</title>
<path fill="none" stroke="midnightblue" d="M173.442,-56.324C188.085,-47.8215 210.634,-34.7288 227.738,-24.7975"/>
<polygon fill="midnightblue" stroke="midnightblue" points="229.705,-27.7027 236.595,-19.6545 226.19,-21.6491 229.705,-27.7027"/>
</g>
</g>
</svg>
