<?xml version="1.0" encoding="UTF-8" standalone="no"?>
<!DOCTYPE svg PUBLIC "-//W3C//DTD SVG 1.1//EN"
 "http://www.w3.org/Graphics/SVG/1.1/DTD/svg11.dtd">
<!-- Generated by graphviz version 9.0.0 (20230911.1827)
 -->
<!-- Title: jngl/ShaderProgram.hpp Pages: 1 -->
<svg width="242pt" height="138pt"
 viewBox="0.00 0.00 242.00 137.75" xmlns="http://www.w3.org/2000/svg" xmlns:xlink="http://www.w3.org/1999/xlink">
<g id="graph0" class="graph" transform="scale(1 1) rotate(0) translate(4 133.75)">
<title>jngl/ShaderProgram.hpp</title>
<!-- Node1 -->
<g id="Node000001" class="node">
<title>Node1</title>
<g id="a_Node000001"><a xlink:title="Contains jngl::ShaderProgram class.">
<polygon fill="#999999" stroke="#666666" points="212,-129.75 64,-129.75 64,-110.5 212,-110.5 212,-129.75"/>
<text text-anchor="middle" x="138" y="-116.25" font-family="ui-monospace,monospace" font-size="10.00">jngl/ShaderProgram.hpp</text>
</a>
</g>
</g>
<!-- Node2 -->
<g id="Node000002" class="node">
<title>Node2</title>
<g id="a_Node000002"><a xlink:href="Rgb_8hpp.html" target="_top" xlink:title="Contains jngl::Rgb class.">
<polygon fill="white" stroke="#666666" points="94,-74.5 36,-74.5 36,-55.25 94,-55.25 94,-74.5"/>
<text text-anchor="middle" x="65" y="-61" font-family="ui-monospace,monospace" font-size="10.00">Rgb.hpp</text>
</a>
</g>
</g>
<!-- Node1&#45;&gt;Node2 -->
<g id="edge1_Node000001_Node000002" class="edge">
<title>Node1&#45;&gt;Node2</title>
<g id="a_edge1_Node000001_Node000002"><a xlink:title=" ">
<path fill="none" stroke="#63b8ff" d="M125.62,-110.09C114.85,-102.24 99.03,-90.7 86.25,-81.37"/>
<polygon fill="#63b8ff" stroke="#63b8ff" points="88.56,-78.73 78.42,-75.67 84.44,-84.39 88.56,-78.73"/>
</a>
</g>
</g>
<!-- Node5 -->
<g id="Node000005" class="node">
<title>Node5</title>
<g id="a_Node000005"><a target="_parent" xlink:href="http://en.cppreference.com/w/cpp/header/memory.html" xlink:title=" ">
<polygon fill="white" stroke="#666666" points="164,-74.5 112,-74.5 112,-55.25 164,-55.25 164,-74.5"/>
<text text-anchor="middle" x="138" y="-61" font-family="ui-monospace,monospace" font-size="10.00">memory</text>
</a>
</g>
</g>
<!-- Node1&#45;&gt;Node5 -->
<g id="edge4_Node000001_Node000005" class="edge">
<title>Node1&#45;&gt;Node5</title>
<g id="a_edge4_Node000001_Node000005"><a xlink:title=" ">
<path fill="none" stroke="#63b8ff" d="M138,-110.33C138,-103.82 138,-94.67 138,-86.37"/>
<polygon fill="#63b8ff" stroke="#63b8ff" points="141.5,-86.37 138,-76.37 134.5,-86.37 141.5,-86.37"/>
</a>
</g>
</g>
<!-- Node6 -->
<g id="Node000006" class="node">
<title>Node6</title>
<g id="a_Node000006"><a target="_parent" xlink:href="http://en.cppreference.com/w/cpp/header/string.html" xlink:title=" ">
<polygon fill="white" stroke="#666666" points="234,-74.5 182,-74.5 182,-55.25 234,-55.25 234,-74.5"/>
<text text-anchor="middle" x="208" y="-61" font-family="ui-monospace,monospace" font-size="10.00">string</text>
</a>
</g>
</g>
<!-- Node1&#45;&gt;Node6 -->
<g id="edge5_Node000001_Node000006" class="edge">
<title>Node1&#45;&gt;Node6</title>
<g id="a_edge5_Node000001_Node000006"><a xlink:title=" ">
<path fill="none" stroke="#63b8ff" d="M149.87,-110.09C160.09,-102.32 175.07,-90.92 187.26,-81.65"/>
<polygon fill="#63b8ff" stroke="#63b8ff" points="189.26,-84.53 195.1,-75.69 185.02,-78.96 189.26,-84.53"/>
</a>
</g>
</g>
<!-- Node3 -->
<g id="Node000003" class="node">
<title>Node3</title>
<g id="a_Node000003"><a target="_parent" xlink:href="http://en.cppreference.com/w/cpp/header/cstdint.html" xlink:title=" ">
<polygon fill="white" stroke="#666666" points="58,-19.25 0,-19.25 0,0 58,0 58,-19.25"/>
<text text-anchor="middle" x="29" y="-5.75" font-family="ui-monospace,monospace" font-size="10.00">cstdint</text>
</a>
</g>
</g>
<!-- Node2&#45;&gt;Node3 -->
<g id="edge2_Node000002_Node000003" class="edge">
<title>Node2&#45;&gt;Node3</title>
<g id="a_edge2_Node000002_Node000003"><a xlink:title=" ">
<path fill="none" stroke="#63b8ff" d="M59.06,-55.08C54.29,-48.03 47.44,-37.9 41.48,-29.08"/>
<polygon fill="#63b8ff" stroke="#63b8ff" points="44.42,-27.19 35.92,-20.86 38.62,-31.11 44.42,-27.19"/>
</a>
</g>
</g>
<!-- Node4 -->
<g id="Node000004" class="node">
<title>Node4</title>
<g id="a_Node000004"><a target="_parent" xlink:href="http://en.cppreference.com/w/cpp/header/iosfwd.html" xlink:title=" ">
<polygon fill="white" stroke="#666666" points="128,-19.25 76,-19.25 76,0 128,0 128,-19.25"/>
<text text-anchor="middle" x="102" y="-5.75" font-family="ui-monospace,monospace" font-size="10.00">iosfwd</text>
</a>
</g>
</g>
<!-- Node2&#45;&gt;Node4 -->
<g id="edge3_Node000002_Node000004" class="edge">
<title>Node2&#45;&gt;Node4</title>
<g id="a_edge3_Node000002_Node000004"><a xlink:title=" ">
<path fill="none" stroke="#63b8ff" d="M71.11,-55.08C76.06,-47.96 83.2,-37.68 89.37,-28.8"/>
<polygon fill="#63b8ff" stroke="#63b8ff" points="92.06,-31.06 94.89,-20.85 86.31,-27.07 92.06,-31.06"/>
</a>
</g>
</g>
</g>
</svg>
