<?xml version="1.0" encoding="UTF-8" standalone="no"?>
<!DOCTYPE svg PUBLIC "-//W3C//DTD SVG 1.1//EN"
 "http://www.w3.org/Graphics/SVG/1.1/DTD/svg11.dtd">
<!-- Generated by graphviz version 5.0.0 (0)
 -->
<!-- Title: jngl/ShaderProgram.hpp Pages: 1 -->
<svg width="177pt" height="192pt"
 viewBox="0.00 0.00 177.00 192.00" xmlns="http://www.w3.org/2000/svg" xmlns:xlink="http://www.w3.org/1999/xlink">
<g id="graph0" class="graph" transform="scale(1 1) rotate(0) translate(4 188)">
<title>jngl/ShaderProgram.hpp</title>
<!-- Node1 -->
<g id="node1" class="node">
<title>Node1</title>
<g id="a_node1"><a xlink:title="Contains jngl::ShaderProgram class.">
<polygon fill="#999999" stroke="#666666" points="149,-184 0,-184 0,-165 149,-165 149,-184"/>
<text text-anchor="middle" x="74.5" y="-172" font-family="ui-monospace,monospace" font-size="10.00">jngl/ShaderProgram.hpp</text>
</a>
</g>
</g>
<!-- Node2 -->
<g id="node2" class="node">
<title>Node2</title>
<g id="a_node2"><a xlink:href="all_8hpp.html" target="_top" xlink:title="Includes all JNGL headers except for init.hpp.">
<polygon fill="white" stroke="#666666" points="119,-74 30,-74 30,-55 119,-55 119,-74"/>
<text text-anchor="middle" x="74.5" y="-62" font-family="ui-monospace,monospace" font-size="10.00">jngl/all.hpp</text>
</a>
</g>
</g>
<!-- Node1&#45;&gt;Node2 -->
<g id="edge1" class="edge">
<title>Node1&#45;&gt;Node2</title>
<path fill="none" stroke="#63b8ff" d="M63.57,-156.09C59.21,-148.15 54.7,-138.43 52.5,-129 47.83,-109 59.98,-86.49 68.03,-74.37"/>
<polygon fill="#63b8ff" stroke="#63b8ff" points="60.58,-157.91 68.66,-164.76 66.62,-154.36 60.58,-157.91"/>
</g>
<!-- Node4 -->
<g id="node4" class="node">
<title>Node4</title>
<g id="a_node4"><a xlink:href="sprite_8hpp.html" target="_top" xlink:title="Contains jngl::Sprite class and related functions.">
<polygon fill="white" stroke="#666666" points="169,-129 62,-129 62,-110 169,-110 169,-129"/>
<text text-anchor="middle" x="115.5" y="-117" font-family="ui-monospace,monospace" font-size="10.00">jngl/sprite.hpp</text>
</a>
</g>
</g>
<!-- Node1&#45;&gt;Node4 -->
<g id="edge3" class="edge">
<title>Node1&#45;&gt;Node4</title>
<path fill="none" stroke="#63b8ff" d="M87.52,-156.67C94.62,-147.5 103.1,-136.52 108.86,-129.09"/>
<polygon fill="#63b8ff" stroke="#63b8ff" points="84.62,-154.7 81.27,-164.75 90.16,-158.98 84.62,-154.7"/>
</g>
<!-- Node3 -->
<g id="node3" class="node">
<title>Node3</title>
<g id="a_node3"><a xlink:href="jngl_8hpp.html" target="_top" xlink:title="Includes jngl/all.hpp.">
<polygon fill="white" stroke="#666666" points="107,-19 42,-19 42,0 107,0 107,-19"/>
<text text-anchor="middle" x="74.5" y="-7" font-family="ui-monospace,monospace" font-size="10.00">jngl.hpp</text>
</a>
</g>
</g>
<!-- Node2&#45;&gt;Node3 -->
<g id="edge2" class="edge">
<title>Node2&#45;&gt;Node3</title>
<path fill="none" stroke="#63b8ff" d="M74.5,-44.66C74.5,-35.93 74.5,-25.99 74.5,-19.09"/>
<polygon fill="#63b8ff" stroke="#63b8ff" points="71,-44.75 74.5,-54.75 78,-44.75 71,-44.75"/>
</g>
<!-- Node4&#45;&gt;Node2 -->
<g id="edge4" class="edge">
<title>Node4&#45;&gt;Node2</title>
<path fill="none" stroke="#63b8ff" d="M102.48,-101.67C95.38,-92.5 86.9,-81.52 81.14,-74.09"/>
<polygon fill="#63b8ff" stroke="#63b8ff" points="99.84,-103.98 108.73,-109.75 105.38,-99.7 99.84,-103.98"/>
</g>
</g>
</svg>
