<?xml version="1.0" encoding="UTF-8" standalone="no"?>
<!DOCTYPE svg PUBLIC "-//W3C//DTD SVG 1.1//EN"
 "http://www.w3.org/Graphics/SVG/1.1/DTD/svg11.dtd">
<!-- Generated by graphviz version 9.0.0 (20230911.1827)
 -->
<!-- Title: jngl/ShaderProgram.hpp Pages: 1 -->
<svg width="206pt" height="138pt"
 viewBox="0.00 0.00 206.00 137.75" xmlns="http://www.w3.org/2000/svg" xmlns:xlink="http://www.w3.org/1999/xlink">
<g id="graph0" class="graph" transform="scale(1 1) rotate(0) translate(4 133.75)">
<title>jngl/ShaderProgram.hpp</title>
<!-- Node1 -->
<g id="Node000001" class="node">
<title>Node1</title>
<g id="a_Node000001"><a xlink:title="Contains jngl::ShaderProgram class.">
<polygon fill="#999999" stroke="#666666" points="176,-129.75 28,-129.75 28,-110.5 176,-110.5 176,-129.75"/>
<text text-anchor="middle" x="102" y="-116.25" font-family="ui-monospace,monospace" font-size="10.00">jngl/ShaderProgram.hpp</text>
</a>
</g>
</g>
<!-- Node2 -->
<g id="Node000002" class="node">
<title>Node2</title>
<g id="a_Node000002"><a xlink:href="Rgb_8hpp.html" target="_top" xlink:title="Contains jngl::Rgb class.">
<polygon fill="white" stroke="#666666" points="58,-74.5 0,-74.5 0,-55.25 58,-55.25 58,-74.5"/>
<text text-anchor="middle" x="29" y="-61" font-family="ui-monospace,monospace" font-size="10.00">Rgb.hpp</text>
</a>
</g>
</g>
<!-- Node1&#45;&gt;Node2 -->
<g id="edge1_Node000001_Node000002" class="edge">
<title>Node1&#45;&gt;Node2</title>
<g id="a_edge1_Node000001_Node000002"><a xlink:title=" ">
<path fill="none" stroke="#63b8ff" d="M89.62,-110.09C78.85,-102.24 63.03,-90.7 50.25,-81.37"/>
<polygon fill="#63b8ff" stroke="#63b8ff" points="52.56,-78.73 42.42,-75.67 48.44,-84.39 52.56,-78.73"/>
</a>
</g>
</g>
<!-- Node4 -->
<g id="Node000004" class="node">
<title>Node4</title>
<g id="a_Node000004"><a target="_parent" xlink:href="http://en.cppreference.com/w/cpp/header/memory.html" xlink:title=" ">
<polygon fill="white" stroke="#666666" points="128,-74.5 76,-74.5 76,-55.25 128,-55.25 128,-74.5"/>
<text text-anchor="middle" x="102" y="-61" font-family="ui-monospace,monospace" font-size="10.00">memory</text>
</a>
</g>
</g>
<!-- Node1&#45;&gt;Node4 -->
<g id="edge3_Node000001_Node000004" class="edge">
<title>Node1&#45;&gt;Node4</title>
<g id="a_edge3_Node000001_Node000004"><a xlink:title=" ">
<path fill="none" stroke="#63b8ff" d="M102,-110.33C102,-103.82 102,-94.67 102,-86.37"/>
<polygon fill="#63b8ff" stroke="#63b8ff" points="105.5,-86.37 102,-76.37 98.5,-86.37 105.5,-86.37"/>
</a>
</g>
</g>
<!-- Node5 -->
<g id="Node000005" class="node">
<title>Node5</title>
<g id="a_Node000005"><a target="_parent" xlink:href="http://en.cppreference.com/w/cpp/header/string.html" xlink:title=" ">
<polygon fill="white" stroke="#666666" points="198,-74.5 146,-74.5 146,-55.25 198,-55.25 198,-74.5"/>
<text text-anchor="middle" x="172" y="-61" font-family="ui-monospace,monospace" font-size="10.00">string</text>
</a>
</g>
</g>
<!-- Node1&#45;&gt;Node5 -->
<g id="edge4_Node000001_Node000005" class="edge">
<title>Node1&#45;&gt;Node5</title>
<g id="a_edge4_Node000001_Node000005"><a xlink:title=" ">
<path fill="none" stroke="#63b8ff" d="M113.87,-110.09C124.09,-102.32 139.07,-90.92 151.26,-81.65"/>
<polygon fill="#63b8ff" stroke="#63b8ff" points="153.26,-84.53 159.1,-75.69 149.02,-78.96 153.26,-84.53"/>
</a>
</g>
</g>
<!-- Node3 -->
<g id="Node000003" class="node">
<title>Node3</title>
<g id="a_Node000003"><a target="_parent" xlink:href="http://en.cppreference.com/w/cpp/header/cstdint.html" xlink:title=" ">
<polygon fill="white" stroke="#666666" points="58,-19.25 0,-19.25 0,0 58,0 58,-19.25"/>
<text text-anchor="middle" x="29" y="-5.75" font-family="ui-monospace,monospace" font-size="10.00">cstdint</text>
</a>
</g>
</g>
<!-- Node2&#45;&gt;Node3 -->
<g id="edge2_Node000002_Node000003" class="edge">
<title>Node2&#45;&gt;Node3</title>
<g id="a_edge2_Node000002_Node000003"><a xlink:title=" ">
<path fill="none" stroke="#63b8ff" d="M29,-55.08C29,-48.57 29,-39.42 29,-31.12"/>
<polygon fill="#63b8ff" stroke="#63b8ff" points="32.5,-31.12 29,-21.12 25.5,-31.12 32.5,-31.12"/>
</a>
</g>
</g>
</g>
</svg>
