<?xml version="1.0" encoding="UTF-8" standalone="no"?>
<!DOCTYPE svg PUBLIC "-//W3C//DTD SVG 1.1//EN"
 "http://www.w3.org/Graphics/SVG/1.1/DTD/svg11.dtd">
<!-- Generated by graphviz version 2.43.0 (0)
 -->
<!-- Title: jngl/ShaderProgram.hpp Pages: 1 -->
<svg width="177pt" height="196pt"
 viewBox="0.00 0.00 177.00 196.00" xmlns="http://www.w3.org/2000/svg" xmlns:xlink="http://www.w3.org/1999/xlink">
<g id="graph0" class="graph" transform="scale(1 1) rotate(0) translate(4 192)">
<title>jngl/ShaderProgram.hpp</title>
<polygon fill="white" stroke="transparent" points="-4,4 -4,-192 173,-192 173,4 -4,4"/>
<!-- Node1 -->
<g id="node1" class="node">
<title>Node1</title>
<g id="a_node1"><a xlink:title="Contains jngl::ShaderProgram class.">
<polygon fill="#bfbfbf" stroke="black" points="0,-168.5 0,-187.5 149,-187.5 149,-168.5 0,-168.5"/>
<text text-anchor="middle" x="74.5" y="-175.5" font-family="'Consolas',monospace" font-size="10.00">jngl/ShaderProgram.hpp</text>
</a>
</g>
</g>
<!-- Node2 -->
<g id="node2" class="node">
<title>Node2</title>
<g id="a_node2"><a xlink:href="all_8hpp.html" target="_top" xlink:title="Includes all JNGL headers except for init.hpp.">
<polygon fill="white" stroke="black" points="30,-56.5 30,-75.5 119,-75.5 119,-56.5 30,-56.5"/>
<text text-anchor="middle" x="74.5" y="-63.5" font-family="'Consolas',monospace" font-size="10.00">jngl/all.hpp</text>
</a>
</g>
</g>
<!-- Node1&#45;&gt;Node2 -->
<g id="edge1" class="edge">
<title>Node1&#45;&gt;Node2</title>
<path fill="none" stroke="midnightblue" d="M64.22,-159.63C60.01,-151.52 55.62,-141.57 53.5,-132 48.93,-111.39 60.87,-88.02 68.57,-75.69"/>
<polygon fill="midnightblue" stroke="midnightblue" points="61.2,-161.4 69.12,-168.44 67.32,-158 61.2,-161.4"/>
</g>
<!-- Node4 -->
<g id="node4" class="node">
<title>Node4</title>
<g id="a_node4"><a xlink:href="sprite_8hpp.html" target="_top" xlink:title="Contains jngl::Sprite class and related functions.">
<polygon fill="white" stroke="black" points="62,-112.5 62,-131.5 169,-131.5 169,-112.5 62,-112.5"/>
<text text-anchor="middle" x="115.5" y="-119.5" font-family="'Consolas',monospace" font-size="10.00">jngl/sprite.hpp</text>
</a>
</g>
</g>
<!-- Node1&#45;&gt;Node4 -->
<g id="edge3" class="edge">
<title>Node1&#45;&gt;Node4</title>
<path fill="none" stroke="midnightblue" d="M87.52,-159.86C94.62,-150.5 103.1,-139.33 108.86,-131.75"/>
<polygon fill="midnightblue" stroke="midnightblue" points="84.53,-158 81.27,-168.08 90.11,-162.24 84.53,-158"/>
</g>
<!-- Node3 -->
<g id="node3" class="node">
<title>Node3</title>
<g id="a_node3"><a xlink:href="jngl_8hpp.html" target="_top" xlink:title="Includes jngl/all.hpp.">
<polygon fill="white" stroke="black" points="42,-0.5 42,-19.5 107,-19.5 107,-0.5 42,-0.5"/>
<text text-anchor="middle" x="74.5" y="-7.5" font-family="'Consolas',monospace" font-size="10.00">jngl.hpp</text>
</a>
</g>
</g>
<!-- Node2&#45;&gt;Node3 -->
<g id="edge2" class="edge">
<title>Node2&#45;&gt;Node3</title>
<path fill="none" stroke="midnightblue" d="M74.5,-45.8C74.5,-36.91 74.5,-26.78 74.5,-19.75"/>
<polygon fill="midnightblue" stroke="midnightblue" points="71,-46.08 74.5,-56.08 78,-46.08 71,-46.08"/>
</g>
<!-- Node4&#45;&gt;Node2 -->
<g id="edge4" class="edge">
<title>Node4&#45;&gt;Node2</title>
<path fill="none" stroke="midnightblue" d="M102.48,-103.86C95.38,-94.5 86.9,-83.33 81.14,-75.75"/>
<polygon fill="midnightblue" stroke="midnightblue" points="99.89,-106.24 108.73,-112.08 105.47,-102 99.89,-106.24"/>
</g>
</g>
</svg>
