<?xml version="1.0" encoding="UTF-8" standalone="no"?>
<!DOCTYPE svg PUBLIC "-//W3C//DTD SVG 1.1//EN"
 "http://www.w3.org/Graphics/SVG/1.1/DTD/svg11.dtd">
<!-- Generated by graphviz version 9.0.0 (20230911.1827)
 -->
<!-- Title: jngl/ShaderProgram.hpp Pages: 1 -->
<svg width="176pt" height="138pt"
 viewBox="0.00 0.00 176.00 137.75" xmlns="http://www.w3.org/2000/svg" xmlns:xlink="http://www.w3.org/1999/xlink">
<g id="graph0" class="graph" transform="scale(1 1) rotate(0) translate(4 133.75)">
<title>jngl/ShaderProgram.hpp</title>
<!-- Node1 -->
<g id="Node000001" class="node">
<title>Node1</title>
<g id="a_Node000001"><a xlink:title="Contains jngl::ShaderProgram class.">
<polygon fill="#999999" stroke="#666666" points="148,-129.75 0,-129.75 0,-110.5 148,-110.5 148,-129.75"/>
<text text-anchor="middle" x="74" y="-116.25" font-family="ui-monospace,monospace" font-size="10.00">jngl/ShaderProgram.hpp</text>
</a>
</g>
</g>
<!-- Node2 -->
<g id="Node000002" class="node">
<title>Node2</title>
<g id="a_Node000002"><a xlink:href="jngl_8hpp.html" target="_top" xlink:title="Includes all JNGL headers except for init.hpp.">
<polygon fill="white" stroke="#666666" points="106,-19.25 42,-19.25 42,0 106,0 106,-19.25"/>
<text text-anchor="middle" x="74" y="-5.75" font-family="ui-monospace,monospace" font-size="10.00">jngl.hpp</text>
</a>
</g>
</g>
<!-- Node1&#45;&gt;Node2 -->
<g id="edge1_Node000001_Node000002" class="edge">
<title>Node1&#45;&gt;Node2</title>
<g id="a_edge1_Node000001_Node000002"><a xlink:title=" ">
<path fill="none" stroke="#63b8ff" d="M62.88,-100.27C58.93,-92.56 54.98,-83.37 53,-74.5 48.52,-54.45 60.12,-31.78 67.82,-19.57"/>
<polygon fill="#63b8ff" stroke="#63b8ff" points="59.79,-101.93 67.69,-108.99 65.92,-98.55 59.79,-101.93"/>
</a>
</g>
</g>
<!-- Node3 -->
<g id="Node000003" class="node">
<title>Node3</title>
<g id="a_Node000003"><a xlink:href="sprite_8hpp.html" target="_top" xlink:title="Contains jngl::Sprite class and related functions.">
<polygon fill="white" stroke="#666666" points="168,-74.5 62,-74.5 62,-55.25 168,-55.25 168,-74.5"/>
<text text-anchor="middle" x="115" y="-61" font-family="ui-monospace,monospace" font-size="10.00">jngl/sprite.hpp</text>
</a>
</g>
</g>
<!-- Node1&#45;&gt;Node3 -->
<g id="edge2_Node000001_Node000003" class="edge">
<title>Node1&#45;&gt;Node3</title>
<g id="a_edge2_Node000001_Node000003"><a xlink:title=" ">
<path fill="none" stroke="#63b8ff" d="M87.59,-101.47C94.46,-92.56 102.49,-82.12 108.08,-74.86"/>
<polygon fill="#63b8ff" stroke="#63b8ff" points="85.02,-99.07 81.69,-109.13 90.57,-103.34 85.02,-99.07"/>
</a>
</g>
</g>
<!-- Node3&#45;&gt;Node2 -->
<g id="edge3_Node000003_Node000002" class="edge">
<title>Node3&#45;&gt;Node2</title>
<g id="a_edge3_Node000003_Node000002"><a xlink:title=" ">
<path fill="none" stroke="#63b8ff" d="M101.41,-46.22C94.54,-37.31 86.51,-26.87 80.92,-19.61"/>
<polygon fill="#63b8ff" stroke="#63b8ff" points="98.43,-48.09 107.31,-53.88 103.98,-43.82 98.43,-48.09"/>
</a>
</g>
</g>
</g>
</svg>
