<?xml version="1.0" encoding="UTF-8" standalone="no"?>
<!DOCTYPE svg PUBLIC "-//W3C//DTD SVG 1.1//EN"
 "http://www.w3.org/Graphics/SVG/1.1/DTD/svg11.dtd">
<!-- Generated by graphviz version 2.40.1 (0)
 -->
<!-- Title: jngl/ShaderProgram.hpp Pages: 1 -->
<svg width="209pt" height="252pt"
 viewBox="0.00 0.00 209.00 252.00" xmlns="http://www.w3.org/2000/svg" xmlns:xlink="http://www.w3.org/1999/xlink">
<g id="graph0" class="graph" transform="scale(1 1) rotate(0) translate(4 248)">
<title>jngl/ShaderProgram.hpp</title>
<polygon fill="#ffffff" stroke="transparent" points="-4,4 -4,-248 205,-248 205,4 -4,4"/>
<!-- Node4 -->
<g id="node1" class="node">
<title>Node4</title>
<g id="a_node1"><a xlink:title=" ">
<polygon fill="#bfbfbf" stroke="#000000" points="0,-224.5 0,-243.5 149,-243.5 149,-224.5 0,-224.5"/>
<text text-anchor="middle" x="74.5" y="-231.5" font-family="'Consolas',monospace" font-size="10.00" fill="#000000">jngl/ShaderProgram.hpp</text>
</a>
</g>
</g>
<!-- Node5 -->
<g id="node2" class="node">
<title>Node5</title>
<g id="a_node2"><a xlink:href="all_8hpp.html" target="_top" xlink:title="Includes all JNGL headers.">
<polygon fill="#ffffff" stroke="#000000" points="27,-56.5 27,-75.5 116,-75.5 116,-56.5 27,-56.5"/>
<text text-anchor="middle" x="71.5" y="-63.5" font-family="'Consolas',monospace" font-size="10.00" fill="#000000">jngl/all.hpp</text>
</a>
</g>
</g>
<!-- Node4&#45;&gt;Node5 -->
<g id="edge1" class="edge">
<title>Node4&#45;&gt;Node5</title>
<path fill="none" stroke="#191970" d="M63.2367,-215.3325C58.978,-207.2328 54.644,-197.452 52.5,-188 43.1113,-146.6084 59.6116,-96.2634 67.5703,-75.5754"/>
<polygon fill="#191970" stroke="#191970" points="60.2929,-217.2385 68.2417,-224.2433 66.3961,-213.8105 60.2929,-217.2385"/>
</g>
<!-- Node7 -->
<g id="node4" class="node">
<title>Node7</title>
<g id="a_node4"><a xlink:href="sprite_8hpp_source.html" target="_top" xlink:title=" ">
<polygon fill="#ffffff" stroke="#000000" points="62,-168.5 62,-187.5 169,-187.5 169,-168.5 62,-168.5"/>
<text text-anchor="middle" x="115.5" y="-175.5" font-family="'Consolas',monospace" font-size="10.00" fill="#000000">jngl/sprite.hpp</text>
</a>
</g>
</g>
<!-- Node4&#45;&gt;Node7 -->
<g id="edge3" class="edge">
<title>Node4&#45;&gt;Node7</title>
<path fill="none" stroke="#191970" d="M87.7364,-215.9209C94.6211,-206.5176 102.7609,-195.3997 108.4402,-187.6427"/>
<polygon fill="#191970" stroke="#191970" points="84.7251,-214.1093 81.6417,-224.2455 90.3731,-218.2445 84.7251,-214.1093"/>
</g>
<!-- Node6 -->
<g id="node3" class="node">
<title>Node6</title>
<g id="a_node3"><a xlink:href="jngl_8hpp_source.html" target="_top" xlink:title=" ">
<polygon fill="#ffffff" stroke="#000000" points="39,-.5 39,-19.5 104,-19.5 104,-.5 39,-.5"/>
<text text-anchor="middle" x="71.5" y="-7.5" font-family="'Consolas',monospace" font-size="10.00" fill="#000000">jngl.hpp</text>
</a>
</g>
</g>
<!-- Node5&#45;&gt;Node6 -->
<g id="edge2" class="edge">
<title>Node5&#45;&gt;Node6</title>
<path fill="none" stroke="#191970" d="M71.5,-46.1575C71.5,-37.155 71.5,-26.9199 71.5,-19.6427"/>
<polygon fill="#191970" stroke="#191970" points="68.0001,-46.2455 71.5,-56.2455 75.0001,-46.2456 68.0001,-46.2455"/>
</g>
<!-- Node7&#45;&gt;Node5 -->
<g id="edge6" class="edge">
<title>Node7&#45;&gt;Node5</title>
<path fill="none" stroke="#191970" d="M104.3496,-159.6785C99.6411,-151.4236 94.3658,-141.4298 90.5,-132 82.5397,-112.5827 76.5444,-88.6689 73.5746,-75.6189"/>
<polygon fill="#191970" stroke="#191970" points="101.4116,-161.587 109.4982,-168.4322 107.4453,-158.0382 101.4116,-161.587"/>
</g>
<!-- Node8 -->
<g id="node5" class="node">
<title>Node8</title>
<g id="a_node5"><a xlink:href="Video_8hpp.html" target="_top" xlink:title=" ">
<polygon fill="#ffffff" stroke="#000000" points="100,-112.5 100,-131.5 201,-131.5 201,-112.5 100,-112.5"/>
<text text-anchor="middle" x="150.5" y="-119.5" font-family="'Consolas',monospace" font-size="10.00" fill="#000000">jngl/Video.hpp</text>
</a>
</g>
</g>
<!-- Node7&#45;&gt;Node8 -->
<g id="edge4" class="edge">
<title>Node7&#45;&gt;Node8</title>
<path fill="none" stroke="#191970" d="M126.9815,-159.6296C132.8196,-150.2887 139.6752,-139.3197 144.4733,-131.6427"/>
<polygon fill="#191970" stroke="#191970" points="123.9286,-157.9105 121.5965,-168.2455 129.8646,-161.6206 123.9286,-157.9105"/>
</g>
<!-- Node8&#45;&gt;Node5 -->
<g id="edge5" class="edge">
<title>Node8&#45;&gt;Node5</title>
<path fill="none" stroke="#191970" d="M128.2244,-106.2097C114.3495,-96.3743 96.9485,-84.0394 85.1031,-75.6427"/>
<polygon fill="#191970" stroke="#191970" points="126.5569,-109.3178 136.7393,-112.2455 130.6051,-103.6071 126.5569,-109.3178"/>
</g>
</g>
</svg>
