<?xml version="1.0" encoding="UTF-8" standalone="no"?>
<!DOCTYPE svg PUBLIC "-//W3C//DTD SVG 1.1//EN"
 "http://www.w3.org/Graphics/SVG/1.1/DTD/svg11.dtd">
<!-- Generated by graphviz version 2.40.1 (0)
 -->
<!-- Title: jngl/ShaderProgram.hpp Pages: 1 -->
<svg width="167pt" height="140pt"
 viewBox="0.00 0.00 167.00 140.00" xmlns="http://www.w3.org/2000/svg" xmlns:xlink="http://www.w3.org/1999/xlink">
<g id="graph0" class="graph" transform="scale(1 1) rotate(0) translate(4 136)">
<title>jngl/ShaderProgram.hpp</title>
<polygon fill="#ffffff" stroke="transparent" points="-4,4 -4,-136 163,-136 163,4 -4,4"/>
<!-- Node0 -->
<g id="node1" class="node">
<title>Node0</title>
<g id="a_node1"><a xlink:title=" ">
<polygon fill="#bfbfbf" stroke="#000000" points="10,-112.5 10,-131.5 159,-131.5 159,-112.5 10,-112.5"/>
<text text-anchor="middle" x="84.5" y="-119.5" font-family="'Consolas',monospace" font-size="10.00" fill="#000000">jngl/ShaderProgram.hpp</text>
</a>
</g>
</g>
<!-- Node1 -->
<g id="node2" class="node">
<title>Node1</title>
<g id="a_node2"><a xlink:href="Finally_8hpp.html" target="_top" xlink:title=" ">
<polygon fill="#ffffff" stroke="#000000" points="0,-56.5 0,-75.5 83,-75.5 83,-56.5 0,-56.5"/>
<text text-anchor="middle" x="41.5" y="-63.5" font-family="'Consolas',monospace" font-size="10.00" fill="#000000">Finally.hpp</text>
</a>
</g>
</g>
<!-- Node0&#45;&gt;Node1 -->
<g id="edge1" class="edge">
<title>Node0&#45;&gt;Node1</title>
<path fill="none" stroke="#191970" d="M77.01,-112.2455C70.9674,-104.3761 62.3097,-93.101 55.0559,-83.6542"/>
<polygon fill="#191970" stroke="#191970" points="57.7705,-81.4426 48.9042,-75.6427 52.2185,-85.7058 57.7705,-81.4426"/>
</g>
<!-- Node3 -->
<g id="node4" class="node">
<title>Node3</title>
<g id="a_node4"><a doxygen="/w/doc/cppreference-doxygen-web.tag.xml:http://en.cppreference.com/w/" xlink:href="http://en.cppreference.com/w/cpp/header/memory.html" xlink:title=" ">
<polygon fill="#ffffff" stroke="#000000" points="101,-56.5 101,-75.5 154,-75.5 154,-56.5 101,-56.5"/>
<text text-anchor="middle" x="127.5" y="-63.5" font-family="'Consolas',monospace" font-size="10.00" fill="#000000">memory</text>
</a>
</g>
</g>
<!-- Node0&#45;&gt;Node3 -->
<g id="edge3" class="edge">
<title>Node0&#45;&gt;Node3</title>
<path fill="none" stroke="#191970" d="M91.99,-112.2455C98.0326,-104.3761 106.6903,-93.101 113.9441,-83.6542"/>
<polygon fill="#191970" stroke="#191970" points="116.7815,-85.7058 120.0958,-75.6427 111.2295,-81.4426 116.7815,-85.7058"/>
</g>
<!-- Node2 -->
<g id="node3" class="node">
<title>Node2</title>
<g id="a_node3"><a doxygen="/w/doc/cppreference-doxygen-web.tag.xml:http://en.cppreference.com/w/" xlink:href="http://en.cppreference.com/w/cpp/header/functional.html" xlink:title=" ">
<polygon fill="#ffffff" stroke="#000000" points="3,-.5 3,-19.5 80,-19.5 80,-.5 3,-.5"/>
<text text-anchor="middle" x="41.5" y="-7.5" font-family="'Consolas',monospace" font-size="10.00" fill="#000000">functional</text>
</a>
</g>
</g>
<!-- Node1&#45;&gt;Node2 -->
<g id="edge2" class="edge">
<title>Node1&#45;&gt;Node2</title>
<path fill="none" stroke="#191970" d="M41.5,-56.2455C41.5,-48.9382 41.5,-38.6944 41.5,-29.7046"/>
<polygon fill="#191970" stroke="#191970" points="45.0001,-29.6426 41.5,-19.6427 38.0001,-29.6427 45.0001,-29.6426"/>
</g>
</g>
</svg>
