<?xml version="1.0" encoding="UTF-8" standalone="no"?>
<!DOCTYPE svg PUBLIC "-//W3C//DTD SVG 1.1//EN"
 "http://www.w3.org/Graphics/SVG/1.1/DTD/svg11.dtd">
<!-- Generated by graphviz version 9.0.0 (20230911.1827)
 -->
<!-- Title: jngl/ShaderProgram.hpp Pages: 1 -->
<svg width="230pt" height="138pt"
 viewBox="0.00 0.00 230.00 137.75" xmlns="http://www.w3.org/2000/svg" xmlns:xlink="http://www.w3.org/1999/xlink">
<g id="graph0" class="graph" transform="scale(1 1) rotate(0) translate(4 133.75)">
<title>jngl/ShaderProgram.hpp</title>
<!-- Node1 -->
<g id="Node000001" class="node">
<title>Node1</title>
<g id="a_Node000001"><a xlink:title="Contains jngl::ShaderProgram class.">
<polygon fill="#999999" stroke="#666666" points="200,-129.75 52,-129.75 52,-110.5 200,-110.5 200,-129.75"/>
<text text-anchor="middle" x="126" y="-116.25" font-family="ui-monospace,monospace" font-size="10.00">jngl/ShaderProgram.hpp</text>
</a>
</g>
</g>
<!-- Node2 -->
<g id="Node000002" class="node">
<title>Node2</title>
<g id="a_Node000002"><a xlink:href="Finally_8hpp.html" target="_top" xlink:title="Contains jngl::Finally class.">
<polygon fill="white" stroke="#666666" points="82,-74.5 0,-74.5 0,-55.25 82,-55.25 82,-74.5"/>
<text text-anchor="middle" x="41" y="-61" font-family="ui-monospace,monospace" font-size="10.00">Finally.hpp</text>
</a>
</g>
</g>
<!-- Node1&#45;&gt;Node2 -->
<g id="edge1_Node000001_Node000002" class="edge">
<title>Node1&#45;&gt;Node2</title>
<g id="a_edge1_Node000001_Node000002"><a xlink:title=" ">
<path fill="none" stroke="#63b8ff" d="M111.58,-110.09C98.88,-102.14 80.13,-90.39 65.14,-81"/>
<polygon fill="#63b8ff" stroke="#63b8ff" points="67.1,-78.1 56.77,-75.76 63.39,-84.03 67.1,-78.1"/>
</a>
</g>
</g>
<!-- Node4 -->
<g id="Node000004" class="node">
<title>Node4</title>
<g id="a_Node000004"><a target="_parent" xlink:href="http://en.cppreference.com/w/cpp/header/memory.html" xlink:title=" ">
<polygon fill="white" stroke="#666666" points="152,-74.5 100,-74.5 100,-55.25 152,-55.25 152,-74.5"/>
<text text-anchor="middle" x="126" y="-61" font-family="ui-monospace,monospace" font-size="10.00">memory</text>
</a>
</g>
</g>
<!-- Node1&#45;&gt;Node4 -->
<g id="edge3_Node000001_Node000004" class="edge">
<title>Node1&#45;&gt;Node4</title>
<g id="a_edge3_Node000001_Node000004"><a xlink:title=" ">
<path fill="none" stroke="#63b8ff" d="M126,-110.33C126,-103.82 126,-94.67 126,-86.37"/>
<polygon fill="#63b8ff" stroke="#63b8ff" points="129.5,-86.37 126,-76.37 122.5,-86.37 129.5,-86.37"/>
</a>
</g>
</g>
<!-- Node5 -->
<g id="Node000005" class="node">
<title>Node5</title>
<g id="a_Node000005"><a target="_parent" xlink:href="http://en.cppreference.com/w/cpp/header/string.html" xlink:title=" ">
<polygon fill="white" stroke="#666666" points="222,-74.5 170,-74.5 170,-55.25 222,-55.25 222,-74.5"/>
<text text-anchor="middle" x="196" y="-61" font-family="ui-monospace,monospace" font-size="10.00">string</text>
</a>
</g>
</g>
<!-- Node1&#45;&gt;Node5 -->
<g id="edge4_Node000001_Node000005" class="edge">
<title>Node1&#45;&gt;Node5</title>
<g id="a_edge4_Node000001_Node000005"><a xlink:title=" ">
<path fill="none" stroke="#63b8ff" d="M137.87,-110.09C148.09,-102.32 163.07,-90.92 175.26,-81.65"/>
<polygon fill="#63b8ff" stroke="#63b8ff" points="177.26,-84.53 183.1,-75.69 173.02,-78.96 177.26,-84.53"/>
</a>
</g>
</g>
<!-- Node3 -->
<g id="Node000003" class="node">
<title>Node3</title>
<g id="a_Node000003"><a target="_parent" xlink:href="http://en.cppreference.com/w/cpp/header/functional.html" xlink:title=" ">
<polygon fill="white" stroke="#666666" points="79,-19.25 3,-19.25 3,0 79,0 79,-19.25"/>
<text text-anchor="middle" x="41" y="-5.75" font-family="ui-monospace,monospace" font-size="10.00">functional</text>
</a>
</g>
</g>
<!-- Node2&#45;&gt;Node3 -->
<g id="edge2_Node000002_Node000003" class="edge">
<title>Node2&#45;&gt;Node3</title>
<g id="a_edge2_Node000002_Node000003"><a xlink:title=" ">
<path fill="none" stroke="#63b8ff" d="M41,-55.08C41,-48.57 41,-39.42 41,-31.12"/>
<polygon fill="#63b8ff" stroke="#63b8ff" points="44.5,-31.12 41,-21.12 37.5,-31.12 44.5,-31.12"/>
</a>
</g>
</g>
</g>
</svg>
