<?xml version="1.0" encoding="UTF-8" standalone="no"?>
<!DOCTYPE svg PUBLIC "-//W3C//DTD SVG 1.1//EN"
 "http://www.w3.org/Graphics/SVG/1.1/DTD/svg11.dtd">
<!-- Generated by graphviz version 2.42.4 (0)
 -->
<!-- Title: jngl/ShaderProgram.hpp Pages: 1 -->
<svg width="209pt" height="252pt"
 viewBox="0.00 0.00 209.00 252.00" xmlns="http://www.w3.org/2000/svg" xmlns:xlink="http://www.w3.org/1999/xlink">
<g id="graph0" class="graph" transform="scale(1 1) rotate(0) translate(4 248)">
<title>jngl/ShaderProgram.hpp</title>
<polygon fill="white" stroke="transparent" points="-4,4 -4,-248 205,-248 205,4 -4,4"/>
<!-- Node1 -->
<g id="node1" class="node">
<title>Node1</title>
<g id="a_node1"><a xlink:title=" ">
<polygon fill="#bfbfbf" stroke="black" points="0,-224.5 0,-243.5 149,-243.5 149,-224.5 0,-224.5"/>
<text text-anchor="middle" x="74.5" y="-231.5" font-family="'Consolas',monospace" font-size="10.00">jngl/ShaderProgram.hpp</text>
</a>
</g>
</g>
<!-- Node2 -->
<g id="node2" class="node">
<title>Node2</title>
<g id="a_node2"><a xlink:href="all_8hpp.html" target="_top" xlink:title="Includes all JNGL headers.">
<polygon fill="white" stroke="black" points="27,-56.5 27,-75.5 116,-75.5 116,-56.5 27,-56.5"/>
<text text-anchor="middle" x="71.5" y="-63.5" font-family="'Consolas',monospace" font-size="10.00">jngl/all.hpp</text>
</a>
</g>
</g>
<!-- Node1&#45;&gt;Node2 -->
<g id="edge1" class="edge">
<title>Node1&#45;&gt;Node2</title>
<path fill="none" stroke="midnightblue" d="M63.74,-215.69C59.32,-207.59 54.73,-197.64 52.5,-188 42.87,-146.36 60.07,-95.51 67.91,-75.59"/>
<polygon fill="midnightblue" stroke="midnightblue" points="60.8,-217.6 68.86,-224.48 66.85,-214.08 60.8,-217.6"/>
</g>
<!-- Node4 -->
<g id="node4" class="node">
<title>Node4</title>
<g id="a_node4"><a xlink:href="sprite_8hpp_source.html" target="_top" xlink:title=" ">
<polygon fill="white" stroke="black" points="62,-168.5 62,-187.5 169,-187.5 169,-168.5 62,-168.5"/>
<text text-anchor="middle" x="115.5" y="-175.5" font-family="'Consolas',monospace" font-size="10.00">jngl/sprite.hpp</text>
</a>
</g>
</g>
<!-- Node1&#45;&gt;Node4 -->
<g id="edge3" class="edge">
<title>Node1&#45;&gt;Node4</title>
<path fill="none" stroke="midnightblue" d="M87.52,-215.86C94.62,-206.5 103.1,-195.33 108.86,-187.75"/>
<polygon fill="midnightblue" stroke="midnightblue" points="84.53,-214 81.27,-224.08 90.11,-218.24 84.53,-214"/>
</g>
<!-- Node3 -->
<g id="node3" class="node">
<title>Node3</title>
<g id="a_node3"><a xlink:href="jngl_8hpp_source.html" target="_top" xlink:title=" ">
<polygon fill="white" stroke="black" points="39,-0.5 39,-19.5 104,-19.5 104,-0.5 39,-0.5"/>
<text text-anchor="middle" x="71.5" y="-7.5" font-family="'Consolas',monospace" font-size="10.00">jngl.hpp</text>
</a>
</g>
</g>
<!-- Node2&#45;&gt;Node3 -->
<g id="edge2" class="edge">
<title>Node2&#45;&gt;Node3</title>
<path fill="none" stroke="midnightblue" d="M71.5,-45.8C71.5,-36.91 71.5,-26.78 71.5,-19.75"/>
<polygon fill="midnightblue" stroke="midnightblue" points="68,-46.08 71.5,-56.08 75,-46.08 68,-46.08"/>
</g>
<!-- Node4&#45;&gt;Node2 -->
<g id="edge6" class="edge">
<title>Node4&#45;&gt;Node2</title>
<path fill="none" stroke="midnightblue" d="M104.71,-159.71C99.91,-151.53 94.46,-141.48 90.5,-132 82.34,-112.47 76.26,-88.27 73.37,-75.62"/>
<polygon fill="midnightblue" stroke="midnightblue" points="101.75,-161.58 109.92,-168.33 107.74,-157.96 101.75,-161.58"/>
</g>
<!-- Node5 -->
<g id="node5" class="node">
<title>Node5</title>
<g id="a_node5"><a xlink:href="Video_8hpp.html" target="_top" xlink:title=" ">
<polygon fill="white" stroke="black" points="100,-112.5 100,-131.5 201,-131.5 201,-112.5 100,-112.5"/>
<text text-anchor="middle" x="150.5" y="-119.5" font-family="'Consolas',monospace" font-size="10.00">jngl/Video.hpp</text>
</a>
</g>
</g>
<!-- Node4&#45;&gt;Node5 -->
<g id="edge4" class="edge">
<title>Node4&#45;&gt;Node5</title>
<path fill="none" stroke="midnightblue" d="M126.8,-159.57C132.82,-150.27 139.97,-139.25 144.83,-131.75"/>
<polygon fill="midnightblue" stroke="midnightblue" points="123.78,-157.79 121.28,-168.08 129.66,-161.6 123.78,-157.79"/>
</g>
<!-- Node5&#45;&gt;Node2 -->
<g id="edge5" class="edge">
<title>Node5&#45;&gt;Node2</title>
<path fill="none" stroke="midnightblue" d="M129.47,-106.62C115.03,-96.76 96.36,-83.99 84.16,-75.65"/>
<polygon fill="midnightblue" stroke="midnightblue" points="127.58,-109.57 137.81,-112.32 131.53,-103.79 127.58,-109.57"/>
</g>
</g>
</svg>
