<?xml version="1.0" encoding="UTF-8" standalone="no"?>
<!DOCTYPE svg PUBLIC "-//W3C//DTD SVG 1.1//EN"
 "http://www.w3.org/Graphics/SVG/1.1/DTD/svg11.dtd">
<!-- Generated by graphviz version 5.0.0 (0)
 -->
<!-- Title: jngl/shapes.hpp Pages: 1 -->
<svg width="239pt" height="137pt"
 viewBox="0.00 0.00 239.00 137.00" xmlns="http://www.w3.org/2000/svg" xmlns:xlink="http://www.w3.org/1999/xlink">
<g id="graph0" class="graph" transform="scale(1 1) rotate(0) translate(4 133)">
<title>jngl/shapes.hpp</title>
<!-- Node1 -->
<g id="node1" class="node">
<title>Node1</title>
<g id="a_node1"><a xlink:title="Functions for drawing shapes.">
<polygon fill="#999999" stroke="#666666" points="175,-129 68,-129 68,-110 175,-110 175,-129"/>
<text text-anchor="middle" x="121.5" y="-117" font-family="ui-monospace,monospace" font-size="10.00">jngl/shapes.hpp</text>
</a>
</g>
</g>
<!-- Node2 -->
<g id="node2" class="node">
<title>Node2</title>
<g id="a_node2"><a xlink:href="Color_8hpp.html" target="_top" xlink:title="Contains jngl::Color class.">
<polygon fill="white" stroke="#666666" points="71,-74 0,-74 0,-55 71,-55 71,-74"/>
<text text-anchor="middle" x="35.5" y="-62" font-family="ui-monospace,monospace" font-size="10.00">Color.hpp</text>
</a>
</g>
</g>
<!-- Node1&#45;&gt;Node2 -->
<g id="edge1" class="edge">
<title>Node1&#45;&gt;Node2</title>
<path fill="none" stroke="#63b8ff" d="M107.68,-109.98C94.35,-101.77 73.92,-89.18 58.19,-79.49"/>
<polygon fill="#63b8ff" stroke="#63b8ff" points="59.92,-76.44 49.57,-74.17 56.25,-82.4 59.92,-76.44"/>
</g>
<!-- Node3 -->
<g id="node3" class="node">
<title>Node3</title>
<g id="a_node3"><a xlink:href="Vec2_8hpp.html" target="_top" xlink:title="Contains jngl::Vec2 class.">
<polygon fill="white" stroke="#666666" points="154,-74 89,-74 89,-55 154,-55 154,-74"/>
<text text-anchor="middle" x="121.5" y="-62" font-family="ui-monospace,monospace" font-size="10.00">Vec2.hpp</text>
</a>
</g>
</g>
<!-- Node1&#45;&gt;Node3 -->
<g id="edge2" class="edge">
<title>Node1&#45;&gt;Node3</title>
<path fill="none" stroke="#63b8ff" d="M121.5,-109.75C121.5,-102.8 121.5,-92.85 121.5,-84.13"/>
<polygon fill="#63b8ff" stroke="#63b8ff" points="125,-84.09 121.5,-74.09 118,-84.09 125,-84.09"/>
</g>
<!-- Node6 -->
<g id="node6" class="node">
<title>Node6</title>
<g id="a_node6"><a target="_parent" xlink:href="http://en.cppreference.com/w/cpp/header/cstdint.html" xlink:title=" ">
<polygon fill="white" stroke="#666666" points="231,-74 172,-74 172,-55 231,-55 231,-74"/>
<text text-anchor="middle" x="201.5" y="-62" font-family="ui-monospace,monospace" font-size="10.00">cstdint</text>
</a>
</g>
</g>
<!-- Node1&#45;&gt;Node6 -->
<g id="edge5" class="edge">
<title>Node1&#45;&gt;Node6</title>
<path fill="none" stroke="#63b8ff" d="M134.35,-109.98C146.64,-101.84 165.41,-89.41 179.98,-79.76"/>
<polygon fill="#63b8ff" stroke="#63b8ff" points="182.01,-82.61 188.41,-74.17 178.14,-76.78 182.01,-82.61"/>
</g>
<!-- Node4 -->
<g id="node4" class="node">
<title>Node4</title>
<g id="a_node4"><a xlink:title=" ">
<polygon fill="#e0e0e0" stroke="#999999" points="129,-19 10,-19 10,0 129,0 129,-19"/>
<text text-anchor="middle" x="69.5" y="-7" font-family="ui-monospace,monospace" font-size="10.00">boost/version.hpp</text>
</a>
</g>
</g>
<!-- Node3&#45;&gt;Node4 -->
<g id="edge3" class="edge">
<title>Node3&#45;&gt;Node4</title>
<path fill="none" stroke="#63b8ff" d="M112.91,-54.75C105.34,-47.03 94.12,-35.6 84.99,-26.28"/>
<polygon fill="#63b8ff" stroke="#63b8ff" points="87.43,-23.78 77.93,-19.09 82.43,-28.68 87.43,-23.78"/>
</g>
<!-- Node5 -->
<g id="node5" class="node">
<title>Node5</title>
<g id="a_node5"><a target="_parent" xlink:href="http://en.cppreference.com/w/cpp/header/iosfwd.html" xlink:title=" ">
<polygon fill="white" stroke="#666666" points="200,-19 147,-19 147,0 200,0 200,-19"/>
<text text-anchor="middle" x="173.5" y="-7" font-family="ui-monospace,monospace" font-size="10.00">iosfwd</text>
</a>
</g>
</g>
<!-- Node3&#45;&gt;Node5 -->
<g id="edge4" class="edge">
<title>Node3&#45;&gt;Node5</title>
<path fill="none" stroke="#63b8ff" d="M130.09,-54.75C137.66,-47.03 148.88,-35.6 158.01,-26.28"/>
<polygon fill="#63b8ff" stroke="#63b8ff" points="160.57,-28.68 165.07,-19.09 155.57,-23.78 160.57,-28.68"/>
</g>
</g>
</svg>
