<?xml version="1.0" encoding="UTF-8" standalone="no"?>
<!DOCTYPE svg PUBLIC "-//W3C//DTD SVG 1.1//EN"
 "http://www.w3.org/Graphics/SVG/1.1/DTD/svg11.dtd">
<!-- Generated by graphviz version 2.38.0 (20140413.2041)
 -->
<!-- Title: jngl/shapes.hpp Pages: 1 -->
<svg width="278pt" height="140pt"
 viewBox="0.00 0.00 278.00 140.00" xmlns="http://www.w3.org/2000/svg" xmlns:xlink="http://www.w3.org/1999/xlink">
<g id="graph0" class="graph" transform="scale(1 1) rotate(0) translate(4 136)">
<title>jngl/shapes.hpp</title>
<polygon fill="white" stroke="none" points="-4,4 -4,-136 274,-136 274,4 -4,4"/>
<!-- Node1 -->
<g id="node1" class="node"><title>Node1</title>
<polygon fill="#bfbfbf" stroke="black" points="0,-112.5 0,-131.5 107,-131.5 107,-112.5 0,-112.5"/>
<text text-anchor="middle" x="53.5" y="-119.5" font-family="'Consolas',monospace" font-size="10.00">jngl/shapes.hpp</text>
</g>
<!-- Node2 -->
<g id="node2" class="node"><title>Node2</title>
<g id="a_node2"><a xlink:href="dll_8hpp_source.html" target="_top" xlink:title="dll.hpp">
<polygon fill="white" stroke="black" points="3,-0.5 3,-19.5 62,-19.5 62,-0.5 3,-0.5"/>
<text text-anchor="middle" x="32.5" y="-7.5" font-family="'Consolas',monospace" font-size="10.00">dll.hpp</text>
</a>
</g>
</g>
<!-- Node1&#45;&gt;Node2 -->
<g id="edge1" class="edge"><title>Node1&#45;&gt;Node2</title>
<path fill="none" stroke="midnightblue" d="M40.4359,-112.436C29.586,-104.471 14.9267,-91.5154 8.5,-76 1.84227,-59.9268 10.3668,-41.2691 19.0443,-28.077"/>
<polygon fill="midnightblue" stroke="midnightblue" points="21.9123,-30.0835 24.8915,-19.9161 16.2221,-26.0065 21.9123,-30.0835"/>
</g>
<!-- Node3 -->
<g id="node3" class="node"><title>Node3</title>
<g id="a_node3"><a xlink:href="color_8hpp.html" target="_top" xlink:title="color.hpp">
<polygon fill="white" stroke="black" points="18,-56.5 18,-75.5 89,-75.5 89,-56.5 18,-56.5"/>
<text text-anchor="middle" x="53.5" y="-63.5" font-family="'Consolas',monospace" font-size="10.00">color.hpp</text>
</a>
</g>
</g>
<!-- Node1&#45;&gt;Node3 -->
<g id="edge2" class="edge"><title>Node1&#45;&gt;Node3</title>
<path fill="none" stroke="midnightblue" d="M53.5,-112.083C53.5,-105.006 53.5,-94.8611 53.5,-85.9865"/>
<polygon fill="midnightblue" stroke="midnightblue" points="57.0001,-85.751 53.5,-75.7511 50.0001,-85.7511 57.0001,-85.751"/>
</g>
<!-- Node4 -->
<g id="node4" class="node"><title>Node4</title>
<g id="a_node4"><a xlink:href="Vec2_8hpp.html" target="_top" xlink:title="Vec2.hpp">
<polygon fill="white" stroke="black" points="107,-56.5 107,-75.5 172,-75.5 172,-56.5 107,-56.5"/>
<text text-anchor="middle" x="139.5" y="-63.5" font-family="'Consolas',monospace" font-size="10.00">Vec2.hpp</text>
</a>
</g>
</g>
<!-- Node1&#45;&gt;Node4 -->
<g id="edge4" class="edge"><title>Node1&#45;&gt;Node4</title>
<path fill="none" stroke="midnightblue" d="M67.3174,-112.324C80.733,-103.9 101.324,-90.9709 117.086,-81.0741"/>
<polygon fill="midnightblue" stroke="midnightblue" points="119.109,-83.9364 125.717,-75.6545 115.387,-78.0081 119.109,-83.9364"/>
</g>
<!-- Node3&#45;&gt;Node2 -->
<g id="edge3" class="edge"><title>Node3&#45;&gt;Node2</title>
<path fill="none" stroke="midnightblue" d="M50.0323,-56.083C47.1883,-48.77 43.0705,-38.1814 39.5402,-29.1034"/>
<polygon fill="midnightblue" stroke="midnightblue" points="42.7897,-27.8025 35.9032,-19.7511 36.2657,-30.3397 42.7897,-27.8025"/>
</g>
<!-- Node4&#45;&gt;Node2 -->
<g id="edge5" class="edge"><title>Node4&#45;&gt;Node2</title>
<path fill="none" stroke="midnightblue" d="M122.309,-56.324C105.149,-47.6641 78.5543,-34.2424 58.7527,-24.249"/>
<polygon fill="midnightblue" stroke="midnightblue" points="60.1532,-21.0354 49.6487,-19.6545 56.9993,-27.2847 60.1532,-21.0354"/>
</g>
<!-- Node5 -->
<g id="node5" class="node"><title>Node5</title>
<polygon fill="white" stroke="#bfbfbf" points="80,-0.5 80,-19.5 199,-19.5 199,-0.5 80,-0.5"/>
<text text-anchor="middle" x="139.5" y="-7.5" font-family="'Consolas',monospace" font-size="10.00">boost/version.hpp</text>
</g>
<!-- Node4&#45;&gt;Node5 -->
<g id="edge6" class="edge"><title>Node4&#45;&gt;Node5</title>
<path fill="none" stroke="midnightblue" d="M139.5,-56.083C139.5,-49.0059 139.5,-38.8611 139.5,-29.9865"/>
<polygon fill="midnightblue" stroke="midnightblue" points="143,-29.751 139.5,-19.7511 136,-29.7511 143,-29.751"/>
</g>
<!-- Node6 -->
<g id="node6" class="node"><title>Node6</title>
<polygon fill="white" stroke="#bfbfbf" points="217,-0.5 217,-19.5 270,-19.5 270,-0.5 217,-0.5"/>
<text text-anchor="middle" x="243.5" y="-7.5" font-family="'Consolas',monospace" font-size="10.00">iosfwd</text>
</g>
<!-- Node4&#45;&gt;Node6 -->
<g id="edge7" class="edge"><title>Node4&#45;&gt;Node6</title>
<path fill="none" stroke="midnightblue" d="M156.209,-56.324C172.812,-47.7034 198.502,-34.3643 217.72,-24.3855"/>
<polygon fill="midnightblue" stroke="midnightblue" points="219.57,-27.3689 226.832,-19.6545 216.344,-21.1565 219.57,-27.3689"/>
</g>
</g>
</svg>
