<?xml version="1.0" encoding="UTF-8" standalone="no"?>
<!DOCTYPE svg PUBLIC "-//W3C//DTD SVG 1.1//EN"
 "http://www.w3.org/Graphics/SVG/1.1/DTD/svg11.dtd">
<!-- Generated by graphviz version 9.0.0 (20230911.1827)
 -->
<!-- Title: jngl/shapes.hpp Pages: 1 -->
<svg width="354pt" height="193pt"
 viewBox="0.00 0.00 354.00 193.00" xmlns="http://www.w3.org/2000/svg" xmlns:xlink="http://www.w3.org/1999/xlink">
<g id="graph0" class="graph" transform="scale(1 1) rotate(0) translate(4 189)">
<title>jngl/shapes.hpp</title>
<!-- Node1 -->
<g id="Node000001" class="node">
<title>Node1</title>
<g id="a_Node000001"><a xlink:title="Functions for drawing shapes.">
<polygon fill="#999999" stroke="#666666" points="177,-185 71,-185 71,-165.75 177,-165.75 177,-185"/>
<text text-anchor="middle" x="124" y="-171.5" font-family="ui-monospace,monospace" font-size="10.00">jngl/shapes.hpp</text>
</a>
</g>
</g>
<!-- Node2 -->
<g id="Node000002" class="node">
<title>Node2</title>
<g id="a_Node000002"><a xlink:href="Rgba_8hpp.html" target="_top" xlink:title="Contains jngl::Rgba class.">
<polygon fill="white" stroke="#666666" points="96,-129.75 32,-129.75 32,-110.5 96,-110.5 96,-129.75"/>
<text text-anchor="middle" x="64" y="-116.25" font-family="ui-monospace,monospace" font-size="10.00">Rgba.hpp</text>
</a>
</g>
</g>
<!-- Node1&#45;&gt;Node2 -->
<g id="edge1_Node000001_Node000002" class="edge">
<title>Node1&#45;&gt;Node2</title>
<g id="a_edge1_Node000001_Node000002"><a xlink:title=" ">
<path fill="none" stroke="#63b8ff" d="M113.82,-165.34C105.24,-157.72 92.73,-146.62 82.4,-137.45"/>
<polygon fill="#63b8ff" stroke="#63b8ff" points="84.96,-135.05 75.16,-131.03 80.32,-140.29 84.96,-135.05"/>
</a>
</g>
</g>
<!-- Node4 -->
<g id="Node000004" class="node">
<title>Node4</title>
<g id="a_Node000004"><a target="_parent" xlink:href="http://en.cppreference.com/w/cpp/header/cstdint.html" xlink:title=" ">
<polygon fill="white" stroke="#666666" points="115,-19.25 57,-19.25 57,0 115,0 115,-19.25"/>
<text text-anchor="middle" x="86" y="-5.75" font-family="ui-monospace,monospace" font-size="10.00">cstdint</text>
</a>
</g>
</g>
<!-- Node1&#45;&gt;Node4 -->
<g id="edge8_Node000001_Node000004" class="edge">
<title>Node1&#45;&gt;Node4</title>
<g id="a_edge8_Node000001_Node000004"><a xlink:title=" ">
<path fill="none" stroke="#63b8ff" d="M121.96,-165.57C116.05,-140.14 98.87,-66.1 90.58,-30.37"/>
<polygon fill="#63b8ff" stroke="#63b8ff" points="94.07,-29.9 88.4,-20.95 87.25,-31.48 94.07,-29.9"/>
</a>
</g>
</g>
<!-- Node5 -->
<g id="Node000005" class="node">
<title>Node5</title>
<g id="a_Node000005"><a xlink:href="Vec2_8hpp.html" target="_top" xlink:title="Contains jngl::Vec2 class.">
<polygon fill="white" stroke="#666666" points="246,-129.75 182,-129.75 182,-110.5 246,-110.5 246,-129.75"/>
<text text-anchor="middle" x="214" y="-116.25" font-family="ui-monospace,monospace" font-size="10.00">Vec2.hpp</text>
</a>
</g>
</g>
<!-- Node1&#45;&gt;Node5 -->
<g id="edge5_Node000001_Node000005" class="edge">
<title>Node1&#45;&gt;Node5</title>
<g id="a_edge5_Node000001_Node000005"><a xlink:title=" ">
<path fill="none" stroke="#63b8ff" d="M139.27,-165.34C152.84,-157.31 172.95,-145.41 188.9,-135.98"/>
<polygon fill="#63b8ff" stroke="#63b8ff" points="190.53,-139.08 197.36,-130.97 186.97,-133.05 190.53,-139.08"/>
</a>
</g>
</g>
<!-- Node3 -->
<g id="Node000003" class="node">
<title>Node3</title>
<g id="a_Node000003"><a xlink:href="Rgb_8hpp.html" target="_top" xlink:title="Contains jngl::Rgb class.">
<polygon fill="white" stroke="#666666" points="58,-74.5 0,-74.5 0,-55.25 58,-55.25 58,-74.5"/>
<text text-anchor="middle" x="29" y="-61" font-family="ui-monospace,monospace" font-size="10.00">Rgb.hpp</text>
</a>
</g>
</g>
<!-- Node2&#45;&gt;Node3 -->
<g id="edge2_Node000002_Node000003" class="edge">
<title>Node2&#45;&gt;Node3</title>
<g id="a_edge2_Node000002_Node000003"><a xlink:title=" ">
<path fill="none" stroke="#63b8ff" d="M58.22,-110.33C53.59,-103.28 46.93,-93.15 41.13,-84.33"/>
<polygon fill="#63b8ff" stroke="#63b8ff" points="44.15,-82.56 35.74,-76.12 38.3,-86.4 44.15,-82.56"/>
</a>
</g>
</g>
<!-- Node2&#45;&gt;Node4 -->
<g id="edge4_Node000002_Node000004" class="edge">
<title>Node2&#45;&gt;Node4</title>
<g id="a_edge4_Node000002_Node000004"><a xlink:title=" ">
<path fill="none" stroke="#63b8ff" d="M65.8,-110.25C69.3,-93 77.09,-54.58 81.91,-30.81"/>
<polygon fill="#63b8ff" stroke="#63b8ff" points="85.32,-31.61 83.87,-21.11 78.46,-30.22 85.32,-31.61"/>
</a>
</g>
</g>
<!-- Node3&#45;&gt;Node4 -->
<g id="edge3_Node000003_Node000004" class="edge">
<title>Node3&#45;&gt;Node4</title>
<g id="a_edge3_Node000003_Node000004"><a xlink:title=" ">
<path fill="none" stroke="#63b8ff" d="M38.67,-54.84C46.74,-47.3 58.47,-36.35 68.22,-27.23"/>
<polygon fill="#63b8ff" stroke="#63b8ff" points="70.45,-29.94 75.37,-20.56 65.67,-24.83 70.45,-29.94"/>
</a>
</g>
</g>
<!-- Node6 -->
<g id="Node000006" class="node">
<title>Node6</title>
<g id="a_Node000006"><a xlink:title=" ">
<polygon fill="#e0e0e0" stroke="#999999" points="276,-74.5 152,-74.5 152,-55.25 276,-55.25 276,-74.5"/>
<text text-anchor="middle" x="214" y="-61" font-family="ui-monospace,monospace" font-size="10.00">boost/qvm_lite.hpp</text>
</a>
</g>
</g>
<!-- Node5&#45;&gt;Node6 -->
<g id="edge6_Node000005_Node000006" class="edge">
<title>Node5&#45;&gt;Node6</title>
<g id="a_edge6_Node000005_Node000006"><a xlink:title=" ">
<path fill="none" stroke="#63b8ff" d="M214,-110.33C214,-103.82 214,-94.67 214,-86.37"/>
<polygon fill="#63b8ff" stroke="#63b8ff" points="217.5,-86.37 214,-76.37 210.5,-86.37 217.5,-86.37"/>
</a>
</g>
</g>
<!-- Node7 -->
<g id="Node000007" class="node">
<title>Node7</title>
<g id="a_Node000007"><a target="_parent" xlink:href="http://en.cppreference.com/w/cpp/header/iosfwd.html" xlink:title=" ">
<polygon fill="white" stroke="#666666" points="346,-74.5 294,-74.5 294,-55.25 346,-55.25 346,-74.5"/>
<text text-anchor="middle" x="320" y="-61" font-family="ui-monospace,monospace" font-size="10.00">iosfwd</text>
</a>
</g>
</g>
<!-- Node5&#45;&gt;Node7 -->
<g id="edge7_Node000005_Node000007" class="edge">
<title>Node5&#45;&gt;Node7</title>
<g id="a_edge7_Node000005_Node000007"><a xlink:title=" ">
<path fill="none" stroke="#63b8ff" d="M231.98,-110.09C248.35,-101.87 272.79,-89.59 291.76,-80.06"/>
<polygon fill="#63b8ff" stroke="#63b8ff" points="293.21,-83.25 300.58,-75.63 290.07,-76.99 293.21,-83.25"/>
</a>
</g>
</g>
</g>
</svg>
