<?xml version="1.0" encoding="UTF-8" standalone="no"?>
<!DOCTYPE svg PUBLIC "-//W3C//DTD SVG 1.1//EN"
 "http://www.w3.org/Graphics/SVG/1.1/DTD/svg11.dtd">
<!-- Generated by graphviz version 2.40.1 (0)
 -->
<!-- Title: jngl/shapes.hpp Pages: 1 -->
<svg width="208pt" height="140pt"
 viewBox="0.00 0.00 208.00 140.00" xmlns="http://www.w3.org/2000/svg" xmlns:xlink="http://www.w3.org/1999/xlink">
<g id="graph0" class="graph" transform="scale(1 1) rotate(0) translate(4 136)">
<title>jngl/shapes.hpp</title>
<polygon fill="#ffffff" stroke="transparent" points="-4,4 -4,-136 204,-136 204,4 -4,4"/>
<!-- Node0 -->
<g id="node1" class="node">
<title>Node0</title>
<g id="a_node1"><a xlink:title=" ">
<polygon fill="#bfbfbf" stroke="#000000" points="25,-112.5 25,-131.5 132,-131.5 132,-112.5 25,-112.5"/>
<text text-anchor="middle" x="78.5" y="-119.5" font-family="'Consolas',monospace" font-size="10.00" fill="#000000">jngl/shapes.hpp</text>
</a>
</g>
</g>
<!-- Node1 -->
<g id="node2" class="node">
<title>Node1</title>
<g id="a_node2"><a xlink:href="Color_8hpp.html" target="_top" xlink:title=" ">
<polygon fill="#ffffff" stroke="#000000" points="0,-56.5 0,-75.5 71,-75.5 71,-56.5 0,-56.5"/>
<text text-anchor="middle" x="35.5" y="-63.5" font-family="'Consolas',monospace" font-size="10.00" fill="#000000">Color.hpp</text>
</a>
</g>
</g>
<!-- Node0&#45;&gt;Node1 -->
<g id="edge1" class="edge">
<title>Node0&#45;&gt;Node1</title>
<path fill="none" stroke="#191970" d="M71.01,-112.2455C64.9674,-104.3761 56.3097,-93.101 49.0559,-83.6542"/>
<polygon fill="#191970" stroke="#191970" points="51.7705,-81.4426 42.9042,-75.6427 46.2185,-85.7058 51.7705,-81.4426"/>
</g>
<!-- Node2 -->
<g id="node3" class="node">
<title>Node2</title>
<g id="a_node3"><a xlink:href="Vec2_8hpp.html" target="_top" xlink:title=" ">
<polygon fill="#ffffff" stroke="#000000" points="89,-56.5 89,-75.5 154,-75.5 154,-56.5 89,-56.5"/>
<text text-anchor="middle" x="121.5" y="-63.5" font-family="'Consolas',monospace" font-size="10.00" fill="#000000">Vec2.hpp</text>
</a>
</g>
</g>
<!-- Node0&#45;&gt;Node2 -->
<g id="edge2" class="edge">
<title>Node0&#45;&gt;Node2</title>
<path fill="none" stroke="#191970" d="M85.99,-112.2455C92.0326,-104.3761 100.6903,-93.101 107.9441,-83.6542"/>
<polygon fill="#191970" stroke="#191970" points="110.7815,-85.7058 114.0958,-75.6427 105.2295,-81.4426 110.7815,-85.7058"/>
</g>
<!-- Node3 -->
<g id="node4" class="node">
<title>Node3</title>
<g id="a_node4"><a xlink:title=" ">
<polygon fill="#ffffff" stroke="#bfbfbf" points="10,-.5 10,-19.5 129,-19.5 129,-.5 10,-.5"/>
<text text-anchor="middle" x="69.5" y="-7.5" font-family="'Consolas',monospace" font-size="10.00" fill="#000000">boost/version.hpp</text>
</a>
</g>
</g>
<!-- Node2&#45;&gt;Node3 -->
<g id="edge3" class="edge">
<title>Node2&#45;&gt;Node3</title>
<path fill="none" stroke="#191970" d="M112.4423,-56.2455C104.9858,-48.2155 94.2366,-36.6394 85.3583,-27.0781"/>
<polygon fill="#191970" stroke="#191970" points="87.8232,-24.589 78.4539,-19.6427 82.6937,-29.3522 87.8232,-24.589"/>
</g>
<!-- Node4 -->
<g id="node5" class="node">
<title>Node4</title>
<g id="a_node5"><a doxygen="/w/doc/cppreference-doxygen-web.tag.xml:http://en.cppreference.com/w/" xlink:href="http://en.cppreference.com/w/cpp/header/iosfwd.html" xlink:title=" ">
<polygon fill="#ffffff" stroke="#000000" points="147,-.5 147,-19.5 200,-19.5 200,-.5 147,-.5"/>
<text text-anchor="middle" x="173.5" y="-7.5" font-family="'Consolas',monospace" font-size="10.00" fill="#000000">iosfwd</text>
</a>
</g>
</g>
<!-- Node2&#45;&gt;Node4 -->
<g id="edge4" class="edge">
<title>Node2&#45;&gt;Node4</title>
<path fill="none" stroke="#191970" d="M130.5577,-56.2455C138.0142,-48.2155 148.7634,-36.6394 157.6417,-27.0781"/>
<polygon fill="#191970" stroke="#191970" points="160.3063,-29.3522 164.5461,-19.6427 155.1768,-24.589 160.3063,-29.3522"/>
</g>
</g>
</svg>
