<?xml version="1.0" encoding="UTF-8" standalone="no"?>
<!DOCTYPE svg PUBLIC "-//W3C//DTD SVG 1.1//EN"
 "http://www.w3.org/Graphics/SVG/1.1/DTD/svg11.dtd">
<!-- Generated by graphviz version 9.0.0 (20230911.1827)
 -->
<!-- Title: jngl/shapes.hpp Pages: 1 -->
<svg width="328pt" height="193pt"
 viewBox="0.00 0.00 328.00 193.00" xmlns="http://www.w3.org/2000/svg" xmlns:xlink="http://www.w3.org/1999/xlink">
<g id="graph0" class="graph" transform="scale(1 1) rotate(0) translate(4 189)">
<title>jngl/shapes.hpp</title>
<!-- Node1 -->
<g id="Node000001" class="node">
<title>Node1</title>
<g id="a_Node000001"><a xlink:title="Functions for drawing shapes.">
<polygon fill="#999999" stroke="#666666" points="151,-185 45,-185 45,-165.75 151,-165.75 151,-185"/>
<text text-anchor="middle" x="98" y="-171.5" font-family="ui-monospace,monospace" font-size="10.00">jngl/shapes.hpp</text>
</a>
</g>
</g>
<!-- Node2 -->
<g id="Node000002" class="node">
<title>Node2</title>
<g id="a_Node000002"><a xlink:href="Color_8hpp.html" target="_top" xlink:title="Contains jngl::Color class.">
<polygon fill="white" stroke="#666666" points="70,-129.75 0,-129.75 0,-110.5 70,-110.5 70,-129.75"/>
<text text-anchor="middle" x="35" y="-116.25" font-family="ui-monospace,monospace" font-size="10.00">Color.hpp</text>
</a>
</g>
</g>
<!-- Node1&#45;&gt;Node2 -->
<g id="edge1_Node000001_Node000002" class="edge">
<title>Node1&#45;&gt;Node2</title>
<g id="a_edge1_Node000001_Node000002"><a xlink:title=" ">
<path fill="none" stroke="#63b8ff" d="M87.31,-165.34C78.3,-157.72 65.17,-146.62 54.32,-137.45"/>
<polygon fill="#63b8ff" stroke="#63b8ff" points="56.58,-134.78 46.69,-131 52.06,-140.13 56.58,-134.78"/>
</a>
</g>
</g>
<!-- Node4 -->
<g id="Node000004" class="node">
<title>Node4</title>
<g id="a_Node000004"><a target="_parent" xlink:href="http://en.cppreference.com/w/cpp/header/cstdint.html" xlink:title=" ">
<polygon fill="white" stroke="#666666" points="95,-19.25 37,-19.25 37,0 95,0 95,-19.25"/>
<text text-anchor="middle" x="66" y="-5.75" font-family="ui-monospace,monospace" font-size="10.00">cstdint</text>
</a>
</g>
</g>
<!-- Node1&#45;&gt;Node4 -->
<g id="edge7_Node000001_Node000004" class="edge">
<title>Node1&#45;&gt;Node4</title>
<g id="a_edge7_Node000001_Node000004"><a xlink:title=" ">
<path fill="none" stroke="#63b8ff" d="M96.46,-165.39C93.02,-145.49 84.38,-96.25 76,-55.25 74.35,-47.18 72.4,-38.32 70.65,-30.64"/>
<polygon fill="#63b8ff" stroke="#63b8ff" points="74.08,-29.93 68.43,-20.97 67.26,-31.5 74.08,-29.93"/>
</a>
</g>
</g>
<!-- Node5 -->
<g id="Node000005" class="node">
<title>Node5</title>
<g id="a_Node000005"><a xlink:href="Vec2_8hpp.html" target="_top" xlink:title="Contains jngl::Vec2 class.">
<polygon fill="white" stroke="#666666" points="220,-129.75 156,-129.75 156,-110.5 220,-110.5 220,-129.75"/>
<text text-anchor="middle" x="188" y="-116.25" font-family="ui-monospace,monospace" font-size="10.00">Vec2.hpp</text>
</a>
</g>
</g>
<!-- Node1&#45;&gt;Node5 -->
<g id="edge4_Node000001_Node000005" class="edge">
<title>Node1&#45;&gt;Node5</title>
<g id="a_edge4_Node000001_Node000005"><a xlink:title=" ">
<path fill="none" stroke="#63b8ff" d="M113.27,-165.34C126.84,-157.31 146.95,-145.41 162.9,-135.98"/>
<polygon fill="#63b8ff" stroke="#63b8ff" points="164.53,-139.08 171.36,-130.97 160.97,-133.05 164.53,-139.08"/>
</a>
</g>
</g>
<!-- Node3 -->
<g id="Node000003" class="node">
<title>Node3</title>
<g id="a_Node000003"><a xlink:href="Rgb_8hpp.html" target="_top" xlink:title="Contains jngl::Rgb class.">
<polygon fill="white" stroke="#666666" points="67,-74.5 9,-74.5 9,-55.25 67,-55.25 67,-74.5"/>
<text text-anchor="middle" x="38" y="-61" font-family="ui-monospace,monospace" font-size="10.00">Rgb.hpp</text>
</a>
</g>
</g>
<!-- Node2&#45;&gt;Node3 -->
<g id="edge2_Node000002_Node000003" class="edge">
<title>Node2&#45;&gt;Node3</title>
<g id="a_edge2_Node000002_Node000003"><a xlink:title=" ">
<path fill="none" stroke="#63b8ff" d="M35.5,-110.33C35.87,-103.74 36.39,-94.46 36.86,-86.07"/>
<polygon fill="#63b8ff" stroke="#63b8ff" points="40.34,-86.55 37.41,-76.37 33.35,-86.16 40.34,-86.55"/>
</a>
</g>
</g>
<!-- Node3&#45;&gt;Node4 -->
<g id="edge3_Node000003_Node000004" class="edge">
<title>Node3&#45;&gt;Node4</title>
<g id="a_edge3_Node000003_Node000004"><a xlink:title=" ">
<path fill="none" stroke="#63b8ff" d="M42.62,-55.08C46.25,-48.19 51.43,-38.34 55.99,-29.66"/>
<polygon fill="#63b8ff" stroke="#63b8ff" points="59.02,-31.43 60.57,-20.95 52.82,-28.17 59.02,-31.43"/>
</a>
</g>
</g>
<!-- Node6 -->
<g id="Node000006" class="node">
<title>Node6</title>
<g id="a_Node000006"><a xlink:title=" ">
<polygon fill="#e0e0e0" stroke="#999999" points="250,-74.5 126,-74.5 126,-55.25 250,-55.25 250,-74.5"/>
<text text-anchor="middle" x="188" y="-61" font-family="ui-monospace,monospace" font-size="10.00">boost/qvm_lite.hpp</text>
</a>
</g>
</g>
<!-- Node5&#45;&gt;Node6 -->
<g id="edge5_Node000005_Node000006" class="edge">
<title>Node5&#45;&gt;Node6</title>
<g id="a_edge5_Node000005_Node000006"><a xlink:title=" ">
<path fill="none" stroke="#63b8ff" d="M188,-110.33C188,-103.82 188,-94.67 188,-86.37"/>
<polygon fill="#63b8ff" stroke="#63b8ff" points="191.5,-86.37 188,-76.37 184.5,-86.37 191.5,-86.37"/>
</a>
</g>
</g>
<!-- Node7 -->
<g id="Node000007" class="node">
<title>Node7</title>
<g id="a_Node000007"><a target="_parent" xlink:href="http://en.cppreference.com/w/cpp/header/iosfwd.html" xlink:title=" ">
<polygon fill="white" stroke="#666666" points="320,-74.5 268,-74.5 268,-55.25 320,-55.25 320,-74.5"/>
<text text-anchor="middle" x="294" y="-61" font-family="ui-monospace,monospace" font-size="10.00">iosfwd</text>
</a>
</g>
</g>
<!-- Node5&#45;&gt;Node7 -->
<g id="edge6_Node000005_Node000007" class="edge">
<title>Node5&#45;&gt;Node7</title>
<g id="a_edge6_Node000005_Node000007"><a xlink:title=" ">
<path fill="none" stroke="#63b8ff" d="M205.98,-110.09C222.35,-101.87 246.79,-89.59 265.76,-80.06"/>
<polygon fill="#63b8ff" stroke="#63b8ff" points="267.21,-83.25 274.58,-75.63 264.07,-76.99 267.21,-83.25"/>
</a>
</g>
</g>
</g>
</svg>
