<?xml version="1.0" encoding="UTF-8" standalone="no"?>
<!DOCTYPE svg PUBLIC "-//W3C//DTD SVG 1.1//EN"
 "http://www.w3.org/Graphics/SVG/1.1/DTD/svg11.dtd">
<!-- Generated by graphviz version 9.0.0 (20230911.1827)
 -->
<!-- Title: jngl/shapes.hpp Pages: 1 -->
<svg width="277pt" height="193pt"
 viewBox="0.00 0.00 277.25 193.00" xmlns="http://www.w3.org/2000/svg" xmlns:xlink="http://www.w3.org/1999/xlink">
<g id="graph0" class="graph" transform="scale(1 1) rotate(0) translate(4 189)">
<title>jngl/shapes.hpp</title>
<!-- Node1 -->
<g id="Node000001" class="node">
<title>Node1</title>
<g id="a_Node000001"><a xlink:title="Functions for drawing shapes.">
<polygon fill="#999999" stroke="#666666" points="121,-185 15,-185 15,-165.75 121,-165.75 121,-185"/>
<text text-anchor="middle" x="68" y="-171.5" font-family="ui-monospace,monospace" font-size="10.00">jngl/shapes.hpp</text>
</a>
</g>
</g>
<!-- Node2 -->
<g id="Node000002" class="node">
<title>Node2</title>
<g id="a_Node000002"><a xlink:href="Rgba_8hpp.html" target="_top" xlink:title="Contains jngl::Rgba class.">
<polygon fill="white" stroke="#666666" points="100,-129.75 36,-129.75 36,-110.5 100,-110.5 100,-129.75"/>
<text text-anchor="middle" x="68" y="-116.25" font-family="ui-monospace,monospace" font-size="10.00">Rgba.hpp</text>
</a>
</g>
</g>
<!-- Node1&#45;&gt;Node2 -->
<g id="edge1_Node000001_Node000002" class="edge">
<title>Node1&#45;&gt;Node2</title>
<g id="a_edge1_Node000001_Node000002"><a xlink:title=" ">
<path fill="none" stroke="#63b8ff" d="M68,-165.58C68,-159.07 68,-149.92 68,-141.62"/>
<polygon fill="#63b8ff" stroke="#63b8ff" points="71.5,-141.62 68,-131.62 64.5,-141.62 71.5,-141.62"/>
</a>
</g>
</g>
<!-- Node4 -->
<g id="Node000004" class="node">
<title>Node4</title>
<g id="a_Node000004"><a target="_parent" xlink:href="http://en.cppreference.com/w/cpp/header/cstdint.html" xlink:title=" ">
<polygon fill="white" stroke="#666666" points="58,-19.25 0,-19.25 0,0 58,0 58,-19.25"/>
<text text-anchor="middle" x="29" y="-5.75" font-family="ui-monospace,monospace" font-size="10.00">cstdint</text>
</a>
</g>
</g>
<!-- Node1&#45;&gt;Node4 -->
<g id="edge9_Node000001_Node000004" class="edge">
<title>Node1&#45;&gt;Node4</title>
<g id="a_edge9_Node000001_Node000004"><a xlink:title=" ">
<path fill="none" stroke="#63b8ff" d="M55.68,-165.32C45.82,-157.25 32.73,-144.45 27,-129.75 14.21,-96.93 19.32,-55.05 24.18,-30.7"/>
<polygon fill="#63b8ff" stroke="#63b8ff" points="27.54,-31.7 26.27,-21.18 20.71,-30.19 27.54,-31.7"/>
</a>
</g>
</g>
<!-- Node6 -->
<g id="Node000006" class="node">
<title>Node6</title>
<g id="a_Node000006"><a xlink:href="Vec2_8hpp.html" target="_top" xlink:title="Contains jngl::Vec2 class.">
<polygon fill="white" stroke="#666666" points="227,-129.75 163,-129.75 163,-110.5 227,-110.5 227,-129.75"/>
<text text-anchor="middle" x="195" y="-116.25" font-family="ui-monospace,monospace" font-size="10.00">Vec2.hpp</text>
</a>
</g>
</g>
<!-- Node1&#45;&gt;Node6 -->
<g id="edge6_Node000001_Node000006" class="edge">
<title>Node1&#45;&gt;Node6</title>
<g id="a_edge6_Node000001_Node000006"><a xlink:title=" ">
<path fill="none" stroke="#63b8ff" d="M89.54,-165.34C109.61,-156.93 139.8,-144.27 162.75,-134.65"/>
<polygon fill="#63b8ff" stroke="#63b8ff" points="164.09,-137.88 171.95,-130.79 161.38,-131.43 164.09,-137.88"/>
</a>
</g>
</g>
<!-- Node3 -->
<g id="Node000003" class="node">
<title>Node3</title>
<g id="a_Node000003"><a xlink:href="Rgb_8hpp.html" target="_top" xlink:title="Contains jngl::Rgb class.">
<polygon fill="white" stroke="#666666" points="115,-74.5 57,-74.5 57,-55.25 115,-55.25 115,-74.5"/>
<text text-anchor="middle" x="86" y="-61" font-family="ui-monospace,monospace" font-size="10.00">Rgb.hpp</text>
</a>
</g>
</g>
<!-- Node2&#45;&gt;Node3 -->
<g id="edge2_Node000002_Node000003" class="edge">
<title>Node2&#45;&gt;Node3</title>
<g id="a_edge2_Node000002_Node000003"><a xlink:title=" ">
<path fill="none" stroke="#63b8ff" d="M70.97,-110.33C73.25,-103.59 76.49,-94.02 79.37,-85.49"/>
<polygon fill="#63b8ff" stroke="#63b8ff" points="82.59,-86.89 82.48,-76.29 75.96,-84.65 82.59,-86.89"/>
</a>
</g>
</g>
<!-- Node2&#45;&gt;Node4 -->
<g id="edge5_Node000002_Node000004" class="edge">
<title>Node2&#45;&gt;Node4</title>
<g id="a_edge5_Node000002_Node000004"><a xlink:title=" ">
<path fill="none" stroke="#63b8ff" d="M63.5,-110.04C59.19,-101.13 52.67,-87.08 48,-74.5 42.57,-59.87 37.59,-42.92 34.09,-30.16"/>
<polygon fill="#63b8ff" stroke="#63b8ff" points="37.57,-29.64 31.61,-20.89 30.81,-31.45 37.57,-29.64"/>
</a>
</g>
</g>
<!-- Node3&#45;&gt;Node4 -->
<g id="edge3_Node000003_Node000004" class="edge">
<title>Node3&#45;&gt;Node4</title>
<g id="a_edge3_Node000003_Node000004"><a xlink:title=" ">
<path fill="none" stroke="#63b8ff" d="M76.33,-54.84C68.26,-47.3 56.53,-36.35 46.78,-27.23"/>
<polygon fill="#63b8ff" stroke="#63b8ff" points="49.33,-24.83 39.63,-20.56 44.55,-29.94 49.33,-24.83"/>
</a>
</g>
</g>
<!-- Node5 -->
<g id="Node000005" class="node">
<title>Node5</title>
<g id="a_Node000005"><a target="_parent" xlink:href="http://en.cppreference.com/w/cpp/header/iosfwd.html" xlink:title=" ">
<polygon fill="white" stroke="#666666" points="219,-19.25 167,-19.25 167,0 219,0 219,-19.25"/>
<text text-anchor="middle" x="193" y="-5.75" font-family="ui-monospace,monospace" font-size="10.00">iosfwd</text>
</a>
</g>
</g>
<!-- Node3&#45;&gt;Node5 -->
<g id="edge4_Node000003_Node000005" class="edge">
<title>Node3&#45;&gt;Node5</title>
<g id="a_edge4_Node000003_Node000005"><a xlink:title=" ">
<path fill="none" stroke="#63b8ff" d="M104.15,-54.84C120.68,-46.62 145.34,-34.34 164.5,-24.81"/>
<polygon fill="#63b8ff" stroke="#63b8ff" points="166.01,-27.97 173.4,-20.38 162.89,-21.7 166.01,-27.97"/>
</a>
</g>
</g>
<!-- Node6&#45;&gt;Node5 -->
<g id="edge8_Node000006_Node000005" class="edge">
<title>Node6&#45;&gt;Node5</title>
<g id="a_edge8_Node000006_Node000005"><a xlink:title=" ">
<path fill="none" stroke="#63b8ff" d="M219.69,-110.09C245.2,-99.23 279.54,-79.4 266,-55.25 258.07,-41.11 243.63,-30.91 229.67,-23.87"/>
<polygon fill="#63b8ff" stroke="#63b8ff" points="231.13,-20.69 220.58,-19.71 228.22,-27.05 231.13,-20.69"/>
</a>
</g>
</g>
<!-- Node7 -->
<g id="Node000007" class="node">
<title>Node7</title>
<g id="a_Node000007"><a xlink:title=" ">
<polygon fill="#e0e0e0" stroke="#999999" points="257,-74.5 133,-74.5 133,-55.25 257,-55.25 257,-74.5"/>
<text text-anchor="middle" x="195" y="-61" font-family="ui-monospace,monospace" font-size="10.00">boost/qvm_lite.hpp</text>
</a>
</g>
</g>
<!-- Node6&#45;&gt;Node7 -->
<g id="edge7_Node000006_Node000007" class="edge">
<title>Node6&#45;&gt;Node7</title>
<g id="a_edge7_Node000006_Node000007"><a xlink:title=" ">
<path fill="none" stroke="#63b8ff" d="M195,-110.33C195,-103.82 195,-94.67 195,-86.37"/>
<polygon fill="#63b8ff" stroke="#63b8ff" points="198.5,-86.37 195,-76.37 191.5,-86.37 198.5,-86.37"/>
</a>
</g>
</g>
</g>
</svg>
