<?xml version="1.0" encoding="UTF-8" standalone="no"?>
<!DOCTYPE svg PUBLIC "-//W3C//DTD SVG 1.1//EN"
 "http://www.w3.org/Graphics/SVG/1.1/DTD/svg11.dtd">
<!-- Generated by graphviz version 5.0.0 (0)
 -->
<!-- Title: jngl/shapes.hpp Pages: 1 -->
<svg width="332pt" height="192pt"
 viewBox="0.00 0.00 332.00 192.00" xmlns="http://www.w3.org/2000/svg" xmlns:xlink="http://www.w3.org/1999/xlink">
<g id="graph0" class="graph" transform="scale(1 1) rotate(0) translate(4 188)">
<title>jngl/shapes.hpp</title>
<!-- Node1 -->
<g id="node1" class="node">
<title>Node1</title>
<g id="a_node1"><a xlink:title="Functions for drawing shapes.">
<polygon fill="#999999" stroke="#666666" points="153,-184 46,-184 46,-165 153,-165 153,-184"/>
<text text-anchor="middle" x="99.5" y="-172" font-family="ui-monospace,monospace" font-size="10.00">jngl/shapes.hpp</text>
</a>
</g>
</g>
<!-- Node2 -->
<g id="node2" class="node">
<title>Node2</title>
<g id="a_node2"><a xlink:href="Color_8hpp.html" target="_top" xlink:title="Contains jngl::Color class.">
<polygon fill="white" stroke="#666666" points="71,-129 0,-129 0,-110 71,-110 71,-129"/>
<text text-anchor="middle" x="35.5" y="-117" font-family="ui-monospace,monospace" font-size="10.00">Color.hpp</text>
</a>
</g>
</g>
<!-- Node1&#45;&gt;Node2 -->
<g id="edge1" class="edge">
<title>Node1&#45;&gt;Node2</title>
<path fill="none" stroke="#63b8ff" d="M89.22,-164.98C79.66,-157.07 65.22,-145.11 53.72,-135.58"/>
<polygon fill="#63b8ff" stroke="#63b8ff" points="55.9,-132.85 45.97,-129.17 51.44,-138.24 55.9,-132.85"/>
</g>
<!-- Node4 -->
<g id="node4" class="node">
<title>Node4</title>
<g id="a_node4"><a target="_parent" xlink:href="http://en.cppreference.com/w/cpp/header/cstdint.html" xlink:title=" ">
<polygon fill="white" stroke="#666666" points="97,-19 38,-19 38,0 97,0 97,-19"/>
<text text-anchor="middle" x="67.5" y="-7" font-family="ui-monospace,monospace" font-size="10.00">cstdint</text>
</a>
</g>
</g>
<!-- Node1&#45;&gt;Node4 -->
<g id="edge7" class="edge">
<title>Node1&#45;&gt;Node4</title>
<path fill="none" stroke="#63b8ff" d="M97.85,-164.87C94.1,-145.31 84.65,-96.11 76.5,-55 74.81,-46.49 72.91,-37.06 71.29,-29.09"/>
<polygon fill="#63b8ff" stroke="#63b8ff" points="74.67,-28.13 69.25,-19.03 67.81,-29.52 74.67,-28.13"/>
</g>
<!-- Node5 -->
<g id="node5" class="node">
<title>Node5</title>
<g id="a_node5"><a xlink:href="Vec2_8hpp.html" target="_top" xlink:title="Contains jngl::Vec2 class.">
<polygon fill="white" stroke="#666666" points="223,-129 158,-129 158,-110 223,-110 223,-129"/>
<text text-anchor="middle" x="190.5" y="-117" font-family="ui-monospace,monospace" font-size="10.00">Vec2.hpp</text>
</a>
</g>
</g>
<!-- Node1&#45;&gt;Node5 -->
<g id="edge4" class="edge">
<title>Node1&#45;&gt;Node5</title>
<path fill="none" stroke="#63b8ff" d="M114.12,-164.98C128.36,-156.69 150.25,-143.94 166.95,-134.22"/>
<polygon fill="#63b8ff" stroke="#63b8ff" points="168.73,-137.23 175.61,-129.17 165.21,-131.18 168.73,-137.23"/>
</g>
<!-- Node3 -->
<g id="node3" class="node">
<title>Node3</title>
<g id="a_node3"><a xlink:href="Rgb_8hpp.html" target="_top" xlink:title="Contains jngl::Rgb class.">
<polygon fill="white" stroke="#666666" points="68,-74 9,-74 9,-55 68,-55 68,-74"/>
<text text-anchor="middle" x="38.5" y="-62" font-family="ui-monospace,monospace" font-size="10.00">Rgb.hpp</text>
</a>
</g>
</g>
<!-- Node2&#45;&gt;Node3 -->
<g id="edge2" class="edge">
<title>Node2&#45;&gt;Node3</title>
<path fill="none" stroke="#63b8ff" d="M36,-109.75C36.39,-102.8 36.95,-92.85 37.45,-84.13"/>
<polygon fill="#63b8ff" stroke="#63b8ff" points="40.94,-84.27 38.01,-74.09 33.95,-83.88 40.94,-84.27"/>
</g>
<!-- Node3&#45;&gt;Node4 -->
<g id="edge3" class="edge">
<title>Node3&#45;&gt;Node4</title>
<path fill="none" stroke="#63b8ff" d="M43.29,-54.75C47.26,-47.49 53.03,-36.95 57.93,-27.98"/>
<polygon fill="#63b8ff" stroke="#63b8ff" points="61.07,-29.54 62.8,-19.09 54.93,-26.18 61.07,-29.54"/>
</g>
<!-- Node6 -->
<g id="node6" class="node">
<title>Node6</title>
<g id="a_node6"><a xlink:title=" ">
<polygon fill="#e0e0e0" stroke="#999999" points="253,-74 128,-74 128,-55 253,-55 253,-74"/>
<text text-anchor="middle" x="190.5" y="-62" font-family="ui-monospace,monospace" font-size="10.00">boost/qvm_lite.hpp</text>
</a>
</g>
</g>
<!-- Node5&#45;&gt;Node6 -->
<g id="edge5" class="edge">
<title>Node5&#45;&gt;Node6</title>
<path fill="none" stroke="#63b8ff" d="M190.5,-109.75C190.5,-102.8 190.5,-92.85 190.5,-84.13"/>
<polygon fill="#63b8ff" stroke="#63b8ff" points="194,-84.09 190.5,-74.09 187,-84.09 194,-84.09"/>
</g>
<!-- Node7 -->
<g id="node7" class="node">
<title>Node7</title>
<g id="a_node7"><a target="_parent" xlink:href="http://en.cppreference.com/w/cpp/header/iosfwd.html" xlink:title=" ">
<polygon fill="white" stroke="#666666" points="324,-74 271,-74 271,-55 324,-55 324,-74"/>
<text text-anchor="middle" x="297.5" y="-62" font-family="ui-monospace,monospace" font-size="10.00">iosfwd</text>
</a>
</g>
</g>
<!-- Node5&#45;&gt;Node7 -->
<g id="edge6" class="edge">
<title>Node5&#45;&gt;Node7</title>
<path fill="none" stroke="#63b8ff" d="M207.69,-109.98C224.75,-101.54 251.13,-88.47 270.9,-78.68"/>
<polygon fill="#63b8ff" stroke="#63b8ff" points="272.59,-81.75 280,-74.17 269.48,-75.47 272.59,-81.75"/>
</g>
</g>
</svg>
