<?xml version="1.0" encoding="UTF-8" standalone="no"?>
<!DOCTYPE svg PUBLIC "-//W3C//DTD SVG 1.1//EN"
 "http://www.w3.org/Graphics/SVG/1.1/DTD/svg11.dtd">
<!-- Generated by graphviz version 2.40.1 (0)
 -->
<!-- Title: jngl/shapes.hpp Pages: 1 -->
<svg width="276pt" height="140pt"
 viewBox="0.00 0.00 276.00 140.00" xmlns="http://www.w3.org/2000/svg" xmlns:xlink="http://www.w3.org/1999/xlink">
<g id="graph0" class="graph" transform="scale(1 1) rotate(0) translate(4 136)">
<title>jngl/shapes.hpp</title>
<polygon fill="#ffffff" stroke="transparent" points="-4,4 -4,-136 272,-136 272,4 -4,4"/>
<!-- Node0 -->
<g id="node1" class="node">
<title>Node0</title>
<g id="a_node1"><a xlink:title=" ">
<polygon fill="#bfbfbf" stroke="#000000" points="30,-112.5 30,-131.5 137,-131.5 137,-112.5 30,-112.5"/>
<text text-anchor="middle" x="83.5" y="-119.5" font-family="'Consolas',monospace" font-size="10.00" fill="#000000">jngl/shapes.hpp</text>
</a>
</g>
</g>
<!-- Node1 -->
<g id="node2" class="node">
<title>Node1</title>
<g id="a_node2"><a xlink:href="Color_8hpp.html" target="_top" xlink:title=" ">
<polygon fill="#ffffff" stroke="#000000" points="0,-56.5 0,-75.5 71,-75.5 71,-56.5 0,-56.5"/>
<text text-anchor="middle" x="35.5" y="-63.5" font-family="'Consolas',monospace" font-size="10.00" fill="#000000">Color.hpp</text>
</a>
</g>
</g>
<!-- Node0&#45;&gt;Node1 -->
<g id="edge1" class="edge">
<title>Node0&#45;&gt;Node1</title>
<path fill="none" stroke="#191970" d="M75.139,-112.2455C68.325,-104.2958 58.5319,-92.8706 50.3848,-83.3656"/>
<polygon fill="#191970" stroke="#191970" points="52.9305,-80.9575 43.7651,-75.6427 47.6157,-85.513 52.9305,-80.9575"/>
</g>
<!-- Node3 -->
<g id="node4" class="node">
<title>Node3</title>
<g id="a_node4"><a xlink:href="Vec2_8hpp.html" target="_top" xlink:title=" ">
<polygon fill="#ffffff" stroke="#000000" points="99,-56.5 99,-75.5 164,-75.5 164,-56.5 99,-56.5"/>
<text text-anchor="middle" x="131.5" y="-63.5" font-family="'Consolas',monospace" font-size="10.00" fill="#000000">Vec2.hpp</text>
</a>
</g>
</g>
<!-- Node0&#45;&gt;Node3 -->
<g id="edge3" class="edge">
<title>Node0&#45;&gt;Node3</title>
<path fill="none" stroke="#191970" d="M91.861,-112.2455C98.675,-104.2958 108.4681,-92.8706 116.6152,-83.3656"/>
<polygon fill="#191970" stroke="#191970" points="119.3843,-85.513 123.2349,-75.6427 114.0695,-80.9575 119.3843,-85.513"/>
</g>
<!-- Node2 -->
<g id="node3" class="node">
<title>Node2</title>
<g id="a_node3"><a xlink:href="dll_8hpp_source.html" target="_top" xlink:title=" ">
<polygon fill="#ffffff" stroke="#000000" points="1,-.5 1,-19.5 60,-19.5 60,-.5 1,-.5"/>
<text text-anchor="middle" x="30.5" y="-7.5" font-family="'Consolas',monospace" font-size="10.00" fill="#000000">dll.hpp</text>
</a>
</g>
</g>
<!-- Node1&#45;&gt;Node2 -->
<g id="edge2" class="edge">
<title>Node1&#45;&gt;Node2</title>
<path fill="none" stroke="#191970" d="M34.6291,-56.2455C33.9766,-48.9382 33.062,-38.6944 32.2593,-29.7046"/>
<polygon fill="#191970" stroke="#191970" points="35.7365,-29.2918 31.361,-19.6427 28.7642,-29.9143 35.7365,-29.2918"/>
</g>
<!-- Node3&#45;&gt;Node2 -->
<g id="edge4" class="edge">
<title>Node3&#45;&gt;Node2</title>
<path fill="none" stroke="#191970" d="M113.9071,-56.2455C98.121,-47.4928 74.7361,-34.527 56.7413,-24.5496"/>
<polygon fill="#191970" stroke="#191970" points="58.3341,-21.4308 47.8913,-19.6427 54.9397,-27.5528 58.3341,-21.4308"/>
</g>
<!-- Node4 -->
<g id="node5" class="node">
<title>Node4</title>
<g id="a_node5"><a xlink:title=" ">
<polygon fill="#ffffff" stroke="#bfbfbf" points="78,-.5 78,-19.5 197,-19.5 197,-.5 78,-.5"/>
<text text-anchor="middle" x="137.5" y="-7.5" font-family="'Consolas',monospace" font-size="10.00" fill="#000000">boost/version.hpp</text>
</a>
</g>
</g>
<!-- Node3&#45;&gt;Node4 -->
<g id="edge5" class="edge">
<title>Node3&#45;&gt;Node4</title>
<path fill="none" stroke="#191970" d="M132.5451,-56.2455C133.328,-48.9382 134.4256,-38.6944 135.3888,-29.7046"/>
<polygon fill="#191970" stroke="#191970" points="138.8815,-29.9587 136.4669,-19.6427 131.9214,-29.2129 138.8815,-29.9587"/>
</g>
<!-- Node5 -->
<g id="node6" class="node">
<title>Node5</title>
<g id="a_node6"><a doxygen="/w/doc/cppreference-doxygen-web.tag.xml:http://en.cppreference.com/w/" xlink:href="http://en.cppreference.com/w/cpp/header/iosfwd.html" xlink:title=" ">
<polygon fill="#ffffff" stroke="#000000" points="215,-.5 215,-19.5 268,-19.5 268,-.5 215,-.5"/>
<text text-anchor="middle" x="241.5" y="-7.5" font-family="'Consolas',monospace" font-size="10.00" fill="#000000">iosfwd</text>
</a>
</g>
</g>
<!-- Node3&#45;&gt;Node5 -->
<g id="edge6" class="edge">
<title>Node3&#45;&gt;Node5</title>
<path fill="none" stroke="#191970" d="M150.6605,-56.2455C168.0111,-47.4125 193.7901,-34.2887 213.4583,-24.2758"/>
<polygon fill="#191970" stroke="#191970" points="215.2353,-27.2986 222.559,-19.6427 212.0595,-21.0605 215.2353,-27.2986"/>
</g>
</g>
</svg>
