<?xml version="1.0" encoding="UTF-8" standalone="no"?>
<!DOCTYPE svg PUBLIC "-//W3C//DTD SVG 1.1//EN"
 "http://www.w3.org/Graphics/SVG/1.1/DTD/svg11.dtd">
<!-- Generated by graphviz version 2.40.1 (0)
 -->
<!-- Title: jngl/shapes.hpp Pages: 1 -->
<svg width="278pt" height="140pt"
 viewBox="0.00 0.00 278.00 140.00" xmlns="http://www.w3.org/2000/svg" xmlns:xlink="http://www.w3.org/1999/xlink">
<g id="graph0" class="graph" transform="scale(1 1) rotate(0) translate(4 136)">
<title>jngl/shapes.hpp</title>
<polygon fill="#ffffff" stroke="transparent" points="-4,4 -4,-136 274,-136 274,4 -4,4"/>
<!-- Node0 -->
<g id="node1" class="node">
<title>Node0</title>
<g id="a_node1"><a xlink:title=" ">
<polygon fill="#bfbfbf" stroke="#000000" points="0,-112.5 0,-131.5 107,-131.5 107,-112.5 0,-112.5"/>
<text text-anchor="middle" x="53.5" y="-119.5" font-family="'Consolas',monospace" font-size="10.00" fill="#000000">jngl/shapes.hpp</text>
</a>
</g>
</g>
<!-- Node1 -->
<g id="node2" class="node">
<title>Node1</title>
<g id="a_node2"><a xlink:href="dll_8hpp_source.html" target="_top" xlink:title=" ">
<polygon fill="#ffffff" stroke="#000000" points="3,-.5 3,-19.5 62,-19.5 62,-.5 3,-.5"/>
<text text-anchor="middle" x="32.5" y="-7.5" font-family="'Consolas',monospace" font-size="10.00" fill="#000000">dll.hpp</text>
</a>
</g>
</g>
<!-- Node0&#45;&gt;Node1 -->
<g id="edge1" class="edge">
<title>Node0&#45;&gt;Node1</title>
<path fill="none" stroke="#191970" d="M39.1263,-112.1853C28.4295,-103.9414 14.6591,-91.1035 8.5,-76 1.9913,-60.0391 9.9908,-41.5785 18.4593,-28.2468"/>
<polygon fill="#191970" stroke="#191970" points="21.4038,-30.1427 24.2246,-19.9303 15.6509,-26.1546 21.4038,-30.1427"/>
</g>
<!-- Node2 -->
<g id="node3" class="node">
<title>Node2</title>
<g id="a_node3"><a xlink:href="color_8hpp.html" target="_top" xlink:title=" ">
<polygon fill="#ffffff" stroke="#000000" points="18,-56.5 18,-75.5 89,-75.5 89,-56.5 18,-56.5"/>
<text text-anchor="middle" x="53.5" y="-63.5" font-family="'Consolas',monospace" font-size="10.00" fill="#000000">color.hpp</text>
</a>
</g>
</g>
<!-- Node0&#45;&gt;Node2 -->
<g id="edge2" class="edge">
<title>Node0&#45;&gt;Node2</title>
<path fill="none" stroke="#191970" d="M53.5,-112.2455C53.5,-104.9382 53.5,-94.6944 53.5,-85.7046"/>
<polygon fill="#191970" stroke="#191970" points="57.0001,-85.6426 53.5,-75.6427 50.0001,-85.6427 57.0001,-85.6426"/>
</g>
<!-- Node3 -->
<g id="node4" class="node">
<title>Node3</title>
<g id="a_node4"><a xlink:href="Vec2_8hpp.html" target="_top" xlink:title=" ">
<polygon fill="#ffffff" stroke="#000000" points="107,-56.5 107,-75.5 172,-75.5 172,-56.5 107,-56.5"/>
<text text-anchor="middle" x="139.5" y="-63.5" font-family="'Consolas',monospace" font-size="10.00" fill="#000000">Vec2.hpp</text>
</a>
</g>
</g>
<!-- Node0&#45;&gt;Node3 -->
<g id="edge4" class="edge">
<title>Node0&#45;&gt;Node3</title>
<path fill="none" stroke="#191970" d="M68.4801,-112.2455C81.6751,-103.6534 101.1051,-91.0014 116.3079,-81.1018"/>
<polygon fill="#191970" stroke="#191970" points="118.2215,-84.0325 124.6916,-75.6427 114.4017,-78.1665 118.2215,-84.0325"/>
</g>
<!-- Node2&#45;&gt;Node1 -->
<g id="edge3" class="edge">
<title>Node2&#45;&gt;Node1</title>
<path fill="none" stroke="#191970" d="M49.8421,-56.2455C47.0416,-48.7776 43.091,-38.2427 39.6676,-29.1137"/>
<polygon fill="#191970" stroke="#191970" points="42.9045,-27.777 36.116,-19.6427 36.3501,-30.2349 42.9045,-27.777"/>
</g>
<!-- Node3&#45;&gt;Node1 -->
<g id="edge5" class="edge">
<title>Node3&#45;&gt;Node1</title>
<path fill="none" stroke="#191970" d="M120.862,-56.2455C104.0614,-47.4527 79.1366,-34.4079 60.0382,-24.4125"/>
<polygon fill="#191970" stroke="#191970" points="61.4073,-21.1787 50.9244,-19.6427 58.1614,-27.3807 61.4073,-21.1787"/>
</g>
<!-- Node4 -->
<g id="node5" class="node">
<title>Node4</title>
<g id="a_node5"><a xlink:title=" ">
<polygon fill="#ffffff" stroke="#bfbfbf" points="80,-.5 80,-19.5 199,-19.5 199,-.5 80,-.5"/>
<text text-anchor="middle" x="139.5" y="-7.5" font-family="'Consolas',monospace" font-size="10.00" fill="#000000">boost/version.hpp</text>
</a>
</g>
</g>
<!-- Node3&#45;&gt;Node4 -->
<g id="edge6" class="edge">
<title>Node3&#45;&gt;Node4</title>
<path fill="none" stroke="#191970" d="M139.5,-56.2455C139.5,-48.9382 139.5,-38.6944 139.5,-29.7046"/>
<polygon fill="#191970" stroke="#191970" points="143.0001,-29.6426 139.5,-19.6427 136.0001,-29.6427 143.0001,-29.6426"/>
</g>
<!-- Node5 -->
<g id="node6" class="node">
<title>Node5</title>
<g id="a_node6"><a doxygen="/w/doc/cppreference-doxygen-web.tag.xml:http://en.cppreference.com/w/" xlink:href="http://en.cppreference.com/w/cpp/header/iosfwd.html" xlink:title=" ">
<polygon fill="#ffffff" stroke="#000000" points="217,-.5 217,-19.5 270,-19.5 270,-.5 217,-.5"/>
<text text-anchor="middle" x="243.5" y="-7.5" font-family="'Consolas',monospace" font-size="10.00" fill="#000000">iosfwd</text>
</a>
</g>
</g>
<!-- Node3&#45;&gt;Node5 -->
<g id="edge7" class="edge">
<title>Node3&#45;&gt;Node5</title>
<path fill="none" stroke="#191970" d="M157.6154,-56.2455C173.945,-47.4527 198.171,-34.4079 216.7339,-24.4125"/>
<polygon fill="#191970" stroke="#191970" points="218.4468,-27.4654 225.5922,-19.6427 215.1281,-21.3021 218.4468,-27.4654"/>
</g>
</g>
</svg>
