<?xml version="1.0" encoding="UTF-8" standalone="no"?>
<!DOCTYPE svg PUBLIC "-//W3C//DTD SVG 1.1//EN"
 "http://www.w3.org/Graphics/SVG/1.1/DTD/svg11.dtd">
<!-- Generated by graphviz version 12.1.0 (20240811.2233)
 -->
<!-- Title: jngl/Singleton.hpp Pages: 1 -->
<svg width="382pt" height="193pt"
 viewBox="0.00 0.00 382.00 193.00" xmlns="http://www.w3.org/2000/svg" xmlns:xlink="http://www.w3.org/1999/xlink">
<g id="graph0" class="graph" transform="scale(1 1) rotate(0) translate(4 189)">
<title>jngl/Singleton.hpp</title>
<!-- Node1 -->
<g id="Node000001" class="node">
<title>Node1</title>
<g id="a_Node000001"><a xlink:title="Contains jngl::Singleton base class.">
<polygon fill="#999999" stroke="#666666" points="258,-185 134,-185 134,-165.75 258,-165.75 258,-185"/>
<text text-anchor="middle" x="196" y="-171.5" font-family="ui-monospace,monospace" font-size="10.00">jngl/Singleton.hpp</text>
</a>
</g>
</g>
<!-- Node2 -->
<g id="Node000002" class="node">
<title>Node2</title>
<g id="a_Node000002"><a xlink:href="window_8hpp.html" target="_top" xlink:title="Functions related to the main window.">
<polygon fill="white" stroke="#666666" points="234,-129.75 158,-129.75 158,-110.5 234,-110.5 234,-129.75"/>
<text text-anchor="middle" x="196" y="-116.25" font-family="ui-monospace,monospace" font-size="10.00">window.hpp</text>
</a>
</g>
</g>
<!-- Node1&#45;&gt;Node2 -->
<g id="edge1_Node000001_Node000002" class="edge">
<title>Node1&#45;&gt;Node2</title>
<g id="a_edge1_Node000001_Node000002"><a xlink:title=" ">
<path fill="none" stroke="#63b8ff" d="M196,-165.58C196,-159.07 196,-149.92 196,-141.62"/>
<polygon fill="#63b8ff" stroke="#63b8ff" points="199.5,-141.62 196,-131.62 192.5,-141.62 199.5,-141.62"/>
</a>
</g>
</g>
<!-- Node3 -->
<g id="Node000003" class="node">
<title>Node3</title>
<g id="a_Node000003"><a xlink:href="Pixels_8hpp.html" target="_top" xlink:title="Contains jngl::Pixels class.">
<polygon fill="white" stroke="#666666" points="76,-74.5 0,-74.5 0,-55.25 76,-55.25 76,-74.5"/>
<text text-anchor="middle" x="38" y="-61" font-family="ui-monospace,monospace" font-size="10.00">Pixels.hpp</text>
</a>
</g>
</g>
<!-- Node2&#45;&gt;Node3 -->
<g id="edge2_Node000002_Node000003" class="edge">
<title>Node2&#45;&gt;Node3</title>
<g id="a_edge2_Node000002_Node000003"><a xlink:title=" ">
<path fill="none" stroke="#63b8ff" d="M169.2,-110.09C143.55,-101.45 104.61,-88.32 75.81,-78.62"/>
<polygon fill="#63b8ff" stroke="#63b8ff" points="76.96,-75.31 66.37,-75.44 74.73,-81.95 76.96,-75.31"/>
</a>
</g>
</g>
<!-- Node5 -->
<g id="Node000005" class="node">
<title>Node5</title>
<g id="a_Node000005"><a target="_parent" xlink:href="http://en.cppreference.com/w/cpp/header/array.html" xlink:title=" ">
<polygon fill="white" stroke="#666666" points="140,-74.5 94,-74.5 94,-55.25 140,-55.25 140,-74.5"/>
<text text-anchor="middle" x="117" y="-61" font-family="ui-monospace,monospace" font-size="10.00">array</text>
</a>
</g>
</g>
<!-- Node2&#45;&gt;Node5 -->
<g id="edge4_Node000002_Node000005" class="edge">
<title>Node2&#45;&gt;Node5</title>
<g id="a_edge4_Node000002_Node000005"><a xlink:title=" ">
<path fill="none" stroke="#63b8ff" d="M182.6,-110.09C170.91,-102.21 153.7,-90.61 139.84,-81.27"/>
<polygon fill="#63b8ff" stroke="#63b8ff" points="141.97,-78.49 131.72,-75.8 138.06,-84.29 141.97,-78.49"/>
</a>
</g>
</g>
<!-- Node6 -->
<g id="Node000006" class="node">
<title>Node6</title>
<g id="a_Node000006"><a target="_parent" xlink:href="http://en.cppreference.com/w/cpp/header/functional.html" xlink:title=" ">
<polygon fill="white" stroke="#666666" points="234,-74.5 158,-74.5 158,-55.25 234,-55.25 234,-74.5"/>
<text text-anchor="middle" x="196" y="-61" font-family="ui-monospace,monospace" font-size="10.00">functional</text>
</a>
</g>
</g>
<!-- Node2&#45;&gt;Node6 -->
<g id="edge5_Node000002_Node000006" class="edge">
<title>Node2&#45;&gt;Node6</title>
<g id="a_edge5_Node000002_Node000006"><a xlink:title=" ">
<path fill="none" stroke="#63b8ff" d="M196,-110.33C196,-103.82 196,-94.67 196,-86.37"/>
<polygon fill="#63b8ff" stroke="#63b8ff" points="199.5,-86.37 196,-76.37 192.5,-86.37 199.5,-86.37"/>
</a>
</g>
</g>
<!-- Node7 -->
<g id="Node000007" class="node">
<title>Node7</title>
<g id="a_Node000007"><a target="_parent" xlink:href="http://en.cppreference.com/w/cpp/header/string.html" xlink:title=" ">
<polygon fill="white" stroke="#666666" points="304,-74.5 252,-74.5 252,-55.25 304,-55.25 304,-74.5"/>
<text text-anchor="middle" x="278" y="-61" font-family="ui-monospace,monospace" font-size="10.00">string</text>
</a>
</g>
</g>
<!-- Node2&#45;&gt;Node7 -->
<g id="edge6_Node000002_Node000007" class="edge">
<title>Node2&#45;&gt;Node7</title>
<g id="a_edge6_Node000002_Node000007"><a xlink:title=" ">
<path fill="none" stroke="#63b8ff" d="M209.91,-110.09C222.16,-102.14 240.25,-90.39 254.71,-81"/>
<polygon fill="#63b8ff" stroke="#63b8ff" points="256.27,-84.16 262.75,-75.78 252.46,-78.29 256.27,-84.16"/>
</a>
</g>
</g>
<!-- Node8 -->
<g id="Node000008" class="node">
<title>Node8</title>
<g id="a_Node000008"><a target="_parent" xlink:href="http://en.cppreference.com/w/cpp/header/vector.html" xlink:title=" ">
<polygon fill="white" stroke="#666666" points="374,-74.5 322,-74.5 322,-55.25 374,-55.25 374,-74.5"/>
<text text-anchor="middle" x="348" y="-61" font-family="ui-monospace,monospace" font-size="10.00">vector</text>
</a>
</g>
</g>
<!-- Node2&#45;&gt;Node8 -->
<g id="edge7_Node000002_Node000008" class="edge">
<title>Node2&#45;&gt;Node8</title>
<g id="a_edge7_Node000002_Node000008"><a xlink:title=" ">
<path fill="none" stroke="#63b8ff" d="M221.78,-110.09C246.35,-101.49 283.59,-88.44 311.26,-78.75"/>
<polygon fill="#63b8ff" stroke="#63b8ff" points="312.38,-82.06 320.66,-75.45 310.07,-75.46 312.38,-82.06"/>
</a>
</g>
</g>
<!-- Node4 -->
<g id="Node000004" class="node">
<title>Node4</title>
<g id="a_Node000004"><a target="_parent" xlink:href="http://en.cppreference.com/w/cpp/header/cstdint.html" xlink:title=" ">
<polygon fill="white" stroke="#666666" points="67,-19.25 9,-19.25 9,0 67,0 67,-19.25"/>
<text text-anchor="middle" x="38" y="-5.75" font-family="ui-monospace,monospace" font-size="10.00">cstdint</text>
</a>
</g>
</g>
<!-- Node3&#45;&gt;Node4 -->
<g id="edge3_Node000003_Node000004" class="edge">
<title>Node3&#45;&gt;Node4</title>
<g id="a_edge3_Node000003_Node000004"><a xlink:title=" ">
<path fill="none" stroke="#63b8ff" d="M38,-55.08C38,-48.57 38,-39.42 38,-31.12"/>
<polygon fill="#63b8ff" stroke="#63b8ff" points="41.5,-31.12 38,-21.12 34.5,-31.12 41.5,-31.12"/>
</a>
</g>
</g>
</g>
</svg>
