<?xml version="1.0" encoding="UTF-8" standalone="no"?>
<!DOCTYPE svg PUBLIC "-//W3C//DTD SVG 1.1//EN"
 "http://www.w3.org/Graphics/SVG/1.1/DTD/svg11.dtd">
<!-- Generated by graphviz version 12.1.0 (20240811.2233)
 -->
<!-- Title: jngl/SoundFile.hpp Pages: 1 -->
<svg width="430pt" height="83pt"
 viewBox="0.00 0.00 430.00 82.50" xmlns="http://www.w3.org/2000/svg" xmlns:xlink="http://www.w3.org/1999/xlink">
<g id="graph0" class="graph" transform="scale(1 1) rotate(0) translate(4 78.5)">
<title>jngl/SoundFile.hpp</title>
<!-- Node1 -->
<g id="Node000001" class="node">
<title>Node1</title>
<g id="a_Node000001"><a xlink:title="Contains jngl::SoundFile class.">
<polygon fill="#999999" stroke="#666666" points="228,-74.5 104,-74.5 104,-55.25 228,-55.25 228,-74.5"/>
<text text-anchor="middle" x="166" y="-61" font-family="ui-monospace,monospace" font-size="10.00">jngl/SoundFile.hpp</text>
</a>
</g>
</g>
<!-- Node2 -->
<g id="Node000002" class="node">
<title>Node2</title>
<g id="a_Node000002"><a target="_parent" xlink:href="http://en.cppreference.com/w/cpp/header/future.html" xlink:title=" ">
<polygon fill="white" stroke="#666666" points="52,-19.25 0,-19.25 0,0 52,0 52,-19.25"/>
<text text-anchor="middle" x="26" y="-5.75" font-family="ui-monospace,monospace" font-size="10.00">future</text>
</a>
</g>
</g>
<!-- Node1&#45;&gt;Node2 -->
<g id="edge1_Node000001_Node000002" class="edge">
<title>Node1&#45;&gt;Node2</title>
<g id="a_edge1_Node000001_Node000002"><a xlink:title=" ">
<path fill="none" stroke="#63b8ff" d="M142.25,-54.84C119.83,-46.31 85.94,-33.42 60.53,-23.76"/>
<polygon fill="#63b8ff" stroke="#63b8ff" points="61.87,-20.52 51.28,-20.24 59.38,-27.07 61.87,-20.52"/>
</a>
</g>
</g>
<!-- Node3 -->
<g id="Node000003" class="node">
<title>Node3</title>
<g id="a_Node000003"><a target="_parent" xlink:href="http://en.cppreference.com/w/cpp/header/memory.html" xlink:title=" ">
<polygon fill="white" stroke="#666666" points="122,-19.25 70,-19.25 70,0 122,0 122,-19.25"/>
<text text-anchor="middle" x="96" y="-5.75" font-family="ui-monospace,monospace" font-size="10.00">memory</text>
</a>
</g>
</g>
<!-- Node1&#45;&gt;Node3 -->
<g id="edge2_Node000001_Node000003" class="edge">
<title>Node1&#45;&gt;Node3</title>
<g id="a_edge2_Node000001_Node000003"><a xlink:title=" ">
<path fill="none" stroke="#63b8ff" d="M154.13,-54.84C143.91,-47.07 128.93,-35.67 116.74,-26.4"/>
<polygon fill="#63b8ff" stroke="#63b8ff" points="118.98,-23.71 108.9,-20.44 114.74,-29.28 118.98,-23.71"/>
</a>
</g>
</g>
<!-- Node4 -->
<g id="Node000004" class="node">
<title>Node4</title>
<g id="a_Node000004"><a target="_parent" xlink:href="http://en.cppreference.com/w/cpp/header/string.html" xlink:title=" ">
<polygon fill="white" stroke="#666666" points="192,-19.25 140,-19.25 140,0 192,0 192,-19.25"/>
<text text-anchor="middle" x="166" y="-5.75" font-family="ui-monospace,monospace" font-size="10.00">string</text>
</a>
</g>
</g>
<!-- Node1&#45;&gt;Node4 -->
<g id="edge3_Node000001_Node000004" class="edge">
<title>Node1&#45;&gt;Node4</title>
<g id="a_edge3_Node000001_Node000004"><a xlink:title=" ">
<path fill="none" stroke="#63b8ff" d="M166,-55.08C166,-48.57 166,-39.42 166,-31.12"/>
<polygon fill="#63b8ff" stroke="#63b8ff" points="169.5,-31.12 166,-21.12 162.5,-31.12 169.5,-31.12"/>
</a>
</g>
</g>
<!-- Node5 -->
<g id="Node000005" class="node">
<title>Node5</title>
<g id="a_Node000005"><a target="_parent" xlink:href="http://en.cppreference.com/w/cpp/header/vector.html" xlink:title=" ">
<polygon fill="white" stroke="#666666" points="262,-19.25 210,-19.25 210,0 262,0 262,-19.25"/>
<text text-anchor="middle" x="236" y="-5.75" font-family="ui-monospace,monospace" font-size="10.00">vector</text>
</a>
</g>
</g>
<!-- Node1&#45;&gt;Node5 -->
<g id="edge4_Node000001_Node000005" class="edge">
<title>Node1&#45;&gt;Node5</title>
<g id="a_edge4_Node000001_Node000005"><a xlink:title=" ">
<path fill="none" stroke="#63b8ff" d="M177.87,-54.84C188.09,-47.07 203.07,-35.67 215.26,-26.4"/>
<polygon fill="#63b8ff" stroke="#63b8ff" points="217.26,-29.28 223.1,-20.44 213.02,-23.71 217.26,-29.28"/>
</a>
</g>
</g>
<!-- Node6 -->
<g id="Node000006" class="node">
<title>Node6</title>
<g id="a_Node000006"><a xlink:title=" ">
<polygon fill="#e0e0e0" stroke="#999999" points="422,-19.25 280,-19.25 280,0 422,0 422,-19.25"/>
<text text-anchor="middle" x="351" y="-5.75" font-family="ui-monospace,monospace" font-size="10.00">experimental/optional</text>
</a>
</g>
</g>
<!-- Node1&#45;&gt;Node6 -->
<g id="edge5_Node000001_Node000006" class="edge">
<title>Node1&#45;&gt;Node6</title>
<g id="a_edge5_Node000001_Node000006"><a xlink:title=" ">
<path fill="none" stroke="#63b8ff" d="M197.38,-54.84C227.95,-46.04 274.62,-32.61 308.51,-22.86"/>
<polygon fill="#63b8ff" stroke="#63b8ff" points="309.37,-26.25 318.01,-20.12 307.43,-19.52 309.37,-26.25"/>
</a>
</g>
</g>
</g>
</svg>
