<?xml version="1.0" encoding="UTF-8" standalone="no"?>
<!DOCTYPE svg PUBLIC "-//W3C//DTD SVG 1.1//EN"
 "http://www.w3.org/Graphics/SVG/1.1/DTD/svg11.dtd">
<!-- Generated by graphviz version 2.43.0 (0)
 -->
<!-- Title: jngl/SoundFile.hpp Pages: 1 -->
<svg width="203pt" height="84pt"
 viewBox="0.00 0.00 203.00 84.00" xmlns="http://www.w3.org/2000/svg" xmlns:xlink="http://www.w3.org/1999/xlink">
<g id="graph0" class="graph" transform="scale(1 1) rotate(0) translate(4 80)">
<title>jngl/SoundFile.hpp</title>
<polygon fill="white" stroke="transparent" points="-4,4 -4,-80 199,-80 199,4 -4,4"/>
<!-- Node1 -->
<g id="node1" class="node">
<title>Node1</title>
<g id="a_node1"><a xlink:title="Contains jngl::SoundFile class.">
<polygon fill="#bfbfbf" stroke="black" points="35,-56.5 35,-75.5 160,-75.5 160,-56.5 35,-56.5"/>
<text text-anchor="middle" x="97.5" y="-63.5" font-family="'Consolas',monospace" font-size="10.00">jngl/SoundFile.hpp</text>
</a>
</g>
</g>
<!-- Node2 -->
<g id="node2" class="node">
<title>Node2</title>
<g id="a_node2"><a target="_parent" xlink:href="http://en.cppreference.com/w/cpp/header/memory.html" xlink:title=" ">
<polygon fill="white" stroke="black" points="0,-0.5 0,-19.5 53,-19.5 53,-0.5 0,-0.5"/>
<text text-anchor="middle" x="26.5" y="-7.5" font-family="'Consolas',monospace" font-size="10.00">memory</text>
</a>
</g>
</g>
<!-- Node1&#45;&gt;Node2 -->
<g id="edge1" class="edge">
<title>Node1&#45;&gt;Node2</title>
<path fill="none" stroke="midnightblue" d="M86.09,-56.32C75.39,-48.18 59.16,-35.84 46.34,-26.09"/>
<polygon fill="midnightblue" stroke="midnightblue" points="48.19,-23.1 38.11,-19.83 43.96,-28.67 48.19,-23.1"/>
</g>
<!-- Node3 -->
<g id="node3" class="node">
<title>Node3</title>
<g id="a_node3"><a target="_parent" xlink:href="http://en.cppreference.com/w/cpp/header/string.html" xlink:title=" ">
<polygon fill="white" stroke="black" points="71,-0.5 71,-19.5 124,-19.5 124,-0.5 71,-0.5"/>
<text text-anchor="middle" x="97.5" y="-7.5" font-family="'Consolas',monospace" font-size="10.00">string</text>
</a>
</g>
</g>
<!-- Node1&#45;&gt;Node3 -->
<g id="edge2" class="edge">
<title>Node1&#45;&gt;Node3</title>
<path fill="none" stroke="midnightblue" d="M97.5,-56.08C97.5,-49.01 97.5,-38.86 97.5,-29.99"/>
<polygon fill="midnightblue" stroke="midnightblue" points="101,-29.75 97.5,-19.75 94,-29.75 101,-29.75"/>
</g>
<!-- Node4 -->
<g id="node4" class="node">
<title>Node4</title>
<g id="a_node4"><a target="_parent" xlink:href="http://en.cppreference.com/w/cpp/header/vector.html" xlink:title=" ">
<polygon fill="white" stroke="black" points="142,-0.5 142,-19.5 195,-19.5 195,-0.5 142,-0.5"/>
<text text-anchor="middle" x="168.5" y="-7.5" font-family="'Consolas',monospace" font-size="10.00">vector</text>
</a>
</g>
</g>
<!-- Node1&#45;&gt;Node4 -->
<g id="edge3" class="edge">
<title>Node1&#45;&gt;Node4</title>
<path fill="none" stroke="midnightblue" d="M108.91,-56.32C119.61,-48.18 135.84,-35.84 148.66,-26.09"/>
<polygon fill="midnightblue" stroke="midnightblue" points="151.04,-28.67 156.89,-19.83 146.81,-23.1 151.04,-28.67"/>
</g>
</g>
</svg>
