<?xml version="1.0" encoding="UTF-8" standalone="no"?>
<!DOCTYPE svg PUBLIC "-//W3C//DTD SVG 1.1//EN"
 "http://www.w3.org/Graphics/SVG/1.1/DTD/svg11.dtd">
<!-- Generated by graphviz version 2.42.4 (0)
 -->
<!-- Title: jngl/sprite.hpp Pages: 1 -->
<svg width="371pt" height="196pt"
 viewBox="0.00 0.00 371.00 196.00" xmlns="http://www.w3.org/2000/svg" xmlns:xlink="http://www.w3.org/1999/xlink">
<g id="graph0" class="graph" transform="scale(1 1) rotate(0) translate(4 192)">
<title>jngl/sprite.hpp</title>
<polygon fill="white" stroke="transparent" points="-4,4 -4,-192 367,-192 367,4 -4,4"/>
<!-- Node1 -->
<g id="node1" class="node">
<title>Node1</title>
<g id="a_node1"><a xlink:title="Contains Sprite class and related functions.">
<polygon fill="#bfbfbf" stroke="black" points="127,-168.5 127,-187.5 234,-187.5 234,-168.5 127,-168.5"/>
<text text-anchor="middle" x="180.5" y="-175.5" font-family="'Consolas',monospace" font-size="10.00">jngl/sprite.hpp</text>
</a>
</g>
</g>
<!-- Node2 -->
<g id="node2" class="node">
<title>Node2</title>
<g id="a_node2"><a xlink:href="Drawable_8hpp.html" target="_top" xlink:title="Contains Drawable class.">
<polygon fill="white" stroke="black" points="63,-112.5 63,-131.5 152,-131.5 152,-112.5 63,-112.5"/>
<text text-anchor="middle" x="107.5" y="-119.5" font-family="'Consolas',monospace" font-size="10.00">Drawable.hpp</text>
</a>
</g>
</g>
<!-- Node1&#45;&gt;Node2 -->
<g id="edge1" class="edge">
<title>Node1&#45;&gt;Node2</title>
<path fill="none" stroke="midnightblue" d="M168.77,-168.32C157.66,-160.11 140.76,-147.6 127.52,-137.81"/>
<polygon fill="midnightblue" stroke="midnightblue" points="129.56,-134.97 119.44,-131.83 125.4,-140.59 129.56,-134.97"/>
</g>
<!-- Node3 -->
<g id="node3" class="node">
<title>Node3</title>
<g id="a_node3"><a xlink:href="Vec2_8hpp.html" target="_top" xlink:title=" ">
<polygon fill="white" stroke="black" points="109,-56.5 109,-75.5 174,-75.5 174,-56.5 109,-56.5"/>
<text text-anchor="middle" x="141.5" y="-63.5" font-family="'Consolas',monospace" font-size="10.00">Vec2.hpp</text>
</a>
</g>
</g>
<!-- Node1&#45;&gt;Node3 -->
<g id="edge9" class="edge">
<title>Node1&#45;&gt;Node3</title>
<path fill="none" stroke="midnightblue" d="M178.18,-168.5C174.7,-155.99 167.77,-131.97 160.5,-112 157.2,-102.92 153.07,-93.01 149.51,-84.81"/>
<polygon fill="midnightblue" stroke="midnightblue" points="152.65,-83.25 145.4,-75.52 146.25,-86.09 152.65,-83.25"/>
</g>
<!-- Node6 -->
<g id="node6" class="node">
<title>Node6</title>
<g id="a_node6"><a xlink:href="ShaderProgram_8hpp.html" target="_top" xlink:title=" ">
<polygon fill="white" stroke="black" points="209,-112.5 209,-131.5 328,-131.5 328,-112.5 209,-112.5"/>
<text text-anchor="middle" x="268.5" y="-119.5" font-family="'Consolas',monospace" font-size="10.00">ShaderProgram.hpp</text>
</a>
</g>
</g>
<!-- Node1&#45;&gt;Node6 -->
<g id="edge5" class="edge">
<title>Node1&#45;&gt;Node6</title>
<path fill="none" stroke="midnightblue" d="M194.64,-168.32C208.37,-159.9 229.44,-146.97 245.56,-137.07"/>
<polygon fill="midnightblue" stroke="midnightblue" points="247.7,-139.87 254.4,-131.65 244.04,-133.9 247.7,-139.87"/>
</g>
<!-- Node2&#45;&gt;Node3 -->
<g id="edge2" class="edge">
<title>Node2&#45;&gt;Node3</title>
<path fill="none" stroke="midnightblue" d="M113.11,-112.08C117.87,-104.53 124.82,-93.49 130.65,-84.23"/>
<polygon fill="midnightblue" stroke="midnightblue" points="133.62,-86.08 135.99,-75.75 127.7,-82.35 133.62,-86.08"/>
</g>
<!-- Node4 -->
<g id="node4" class="node">
<title>Node4</title>
<g id="a_node4"><a xlink:title=" ">
<polygon fill="white" stroke="#bfbfbf" points="0,-0.5 0,-19.5 119,-19.5 119,-0.5 0,-0.5"/>
<text text-anchor="middle" x="59.5" y="-7.5" font-family="'Consolas',monospace" font-size="10.00">boost/version.hpp</text>
</a>
</g>
</g>
<!-- Node3&#45;&gt;Node4 -->
<g id="edge3" class="edge">
<title>Node3&#45;&gt;Node4</title>
<path fill="none" stroke="midnightblue" d="M128.33,-56.32C115.65,-47.98 96.27,-35.21 81.29,-25.35"/>
<polygon fill="midnightblue" stroke="midnightblue" points="82.92,-22.23 72.64,-19.65 79.07,-28.08 82.92,-22.23"/>
</g>
<!-- Node5 -->
<g id="node5" class="node">
<title>Node5</title>
<g id="a_node5"><a target="_parent" xlink:href="http://en.cppreference.com/w/cpp/header/iosfwd.html" target="_top" xlink:title=" ">
<polygon fill="white" stroke="black" points="137,-0.5 137,-19.5 190,-19.5 190,-0.5 137,-0.5"/>
<text text-anchor="middle" x="163.5" y="-7.5" font-family="'Consolas',monospace" font-size="10.00">iosfwd</text>
</a>
</g>
</g>
<!-- Node3&#45;&gt;Node5 -->
<g id="edge4" class="edge">
<title>Node3&#45;&gt;Node5</title>
<path fill="none" stroke="midnightblue" d="M145.13,-56.08C148.11,-48.77 152.43,-38.18 156.12,-29.1"/>
<polygon fill="midnightblue" stroke="midnightblue" points="159.4,-30.33 159.93,-19.75 152.92,-27.69 159.4,-30.33"/>
</g>
<!-- Node7 -->
<g id="node7" class="node">
<title>Node7</title>
<g id="a_node7"><a xlink:href="Finally_8hpp.html" target="_top" xlink:title=" ">
<polygon fill="white" stroke="black" points="209,-56.5 209,-75.5 292,-75.5 292,-56.5 209,-56.5"/>
<text text-anchor="middle" x="250.5" y="-63.5" font-family="'Consolas',monospace" font-size="10.00">Finally.hpp</text>
</a>
</g>
</g>
<!-- Node6&#45;&gt;Node7 -->
<g id="edge6" class="edge">
<title>Node6&#45;&gt;Node7</title>
<path fill="none" stroke="midnightblue" d="M265.53,-112.08C263.12,-104.85 259.64,-94.41 256.63,-85.4"/>
<polygon fill="midnightblue" stroke="midnightblue" points="259.9,-84.13 253.42,-75.75 253.26,-86.34 259.9,-84.13"/>
</g>
<!-- Node9 -->
<g id="node9" class="node">
<title>Node9</title>
<g id="a_node9"><a target="_parent" xlink:href="http://en.cppreference.com/w/cpp/header/memory.html" target="_top" xlink:title=" ">
<polygon fill="white" stroke="black" points="310,-56.5 310,-75.5 363,-75.5 363,-56.5 310,-56.5"/>
<text text-anchor="middle" x="336.5" y="-63.5" font-family="'Consolas',monospace" font-size="10.00">memory</text>
</a>
</g>
</g>
<!-- Node6&#45;&gt;Node9 -->
<g id="edge8" class="edge">
<title>Node6&#45;&gt;Node9</title>
<path fill="none" stroke="midnightblue" d="M279.43,-112.32C289.67,-104.18 305.22,-91.84 317.5,-82.09"/>
<polygon fill="midnightblue" stroke="midnightblue" points="319.72,-84.79 325.38,-75.83 315.37,-79.31 319.72,-84.79"/>
</g>
<!-- Node8 -->
<g id="node8" class="node">
<title>Node8</title>
<g id="a_node8"><a target="_parent" xlink:href="http://en.cppreference.com/w/cpp/header/functional.html" target="_top" xlink:title=" ">
<polygon fill="white" stroke="black" points="212,-0.5 212,-19.5 289,-19.5 289,-0.5 212,-0.5"/>
<text text-anchor="middle" x="250.5" y="-7.5" font-family="'Consolas',monospace" font-size="10.00">functional</text>
</a>
</g>
</g>
<!-- Node7&#45;&gt;Node8 -->
<g id="edge7" class="edge">
<title>Node7&#45;&gt;Node8</title>
<path fill="none" stroke="midnightblue" d="M250.5,-56.08C250.5,-49.01 250.5,-38.86 250.5,-29.99"/>
<polygon fill="midnightblue" stroke="midnightblue" points="254,-29.75 250.5,-19.75 247,-29.75 254,-29.75"/>
</g>
</g>
</svg>
