<?xml version="1.0" encoding="UTF-8" standalone="no"?>
<!DOCTYPE svg PUBLIC "-//W3C//DTD SVG 1.1//EN"
 "http://www.w3.org/Graphics/SVG/1.1/DTD/svg11.dtd">
<!-- Generated by graphviz version 5.0.0 (0)
 -->
<!-- Title: jngl/sprite.hpp Pages: 1 -->
<svg width="619pt" height="192pt"
 viewBox="0.00 0.00 619.00 192.00" xmlns="http://www.w3.org/2000/svg" xmlns:xlink="http://www.w3.org/1999/xlink">
<g id="graph0" class="graph" transform="scale(1 1) rotate(0) translate(4 188)">
<title>jngl/sprite.hpp</title>
<!-- Node1 -->
<g id="node1" class="node">
<title>Node1</title>
<g id="a_node1"><a xlink:title="Contains jngl::Sprite class and related functions.">
<polygon fill="#999999" stroke="#666666" points="380,-184 273,-184 273,-165 380,-165 380,-184"/>
<text text-anchor="middle" x="326.5" y="-172" font-family="ui-monospace,monospace" font-size="10.00">jngl/sprite.hpp</text>
</a>
</g>
</g>
<!-- Node2 -->
<g id="node2" class="node">
<title>Node2</title>
<g id="a_node2"><a xlink:href="Drawable_8hpp.html" target="_top" xlink:title="Contains jngl::Drawable class.">
<polygon fill="white" stroke="#666666" points="133,-129 44,-129 44,-110 133,-110 133,-129"/>
<text text-anchor="middle" x="88.5" y="-117" font-family="ui-monospace,monospace" font-size="10.00">Drawable.hpp</text>
</a>
</g>
</g>
<!-- Node1&#45;&gt;Node2 -->
<g id="edge1" class="edge">
<title>Node1&#45;&gt;Node2</title>
<path fill="none" stroke="#63b8ff" d="M288.26,-164.98C247.09,-155.82 181.51,-141.21 136.8,-131.26"/>
<polygon fill="#63b8ff" stroke="#63b8ff" points="137.56,-127.84 127.04,-129.08 136.04,-134.67 137.56,-127.84"/>
</g>
<!-- Node3 -->
<g id="node3" class="node">
<title>Node3</title>
<g id="a_node3"><a xlink:href="Vec2_8hpp.html" target="_top" xlink:title="Contains jngl::Vec2 class.">
<polygon fill="white" stroke="#666666" points="146,-74 81,-74 81,-55 146,-55 146,-74"/>
<text text-anchor="middle" x="113.5" y="-62" font-family="ui-monospace,monospace" font-size="10.00">Vec2.hpp</text>
</a>
</g>
</g>
<!-- Node1&#45;&gt;Node3 -->
<g id="edge12" class="edge">
<title>Node1&#45;&gt;Node3</title>
<path fill="none" stroke="#63b8ff" d="M279.54,-164.99C249.75,-158.22 211.19,-146.87 180.5,-129 159.4,-116.71 139.68,-96.56 127.17,-82.25"/>
<polygon fill="#63b8ff" stroke="#63b8ff" points="129.51,-79.59 120.37,-74.22 124.16,-84.11 129.51,-79.59"/>
</g>
<!-- Node6 -->
<g id="node6" class="node">
<title>Node6</title>
<g id="a_node6"><a xlink:href="Rgb_8hpp.html" target="_top" xlink:title="Contains jngl::Rgb class.">
<polygon fill="white" stroke="#666666" points="249,-129 190,-129 190,-110 249,-110 249,-129"/>
<text text-anchor="middle" x="219.5" y="-117" font-family="ui-monospace,monospace" font-size="10.00">Rgb.hpp</text>
</a>
</g>
</g>
<!-- Node1&#45;&gt;Node6 -->
<g id="edge5" class="edge">
<title>Node1&#45;&gt;Node6</title>
<path fill="none" stroke="#63b8ff" d="M309.31,-164.98C292.25,-156.54 265.87,-143.47 246.1,-133.68"/>
<polygon fill="#63b8ff" stroke="#63b8ff" points="247.52,-130.47 237,-129.17 244.41,-136.75 247.52,-130.47"/>
</g>
<!-- Node8 -->
<g id="node8" class="node">
<title>Node8</title>
<g id="a_node8"><a xlink:href="ShaderProgram_8hpp.html" target="_top" xlink:title="Contains jngl::ShaderProgram class.">
<polygon fill="white" stroke="#666666" points="386,-129 267,-129 267,-110 386,-110 386,-129"/>
<text text-anchor="middle" x="326.5" y="-117" font-family="ui-monospace,monospace" font-size="10.00">ShaderProgram.hpp</text>
</a>
</g>
</g>
<!-- Node1&#45;&gt;Node8 -->
<g id="edge7" class="edge">
<title>Node1&#45;&gt;Node8</title>
<path fill="none" stroke="#63b8ff" d="M326.5,-164.75C326.5,-157.8 326.5,-147.85 326.5,-139.13"/>
<polygon fill="#63b8ff" stroke="#63b8ff" points="330,-139.09 326.5,-129.09 323,-139.09 330,-139.09"/>
</g>
<!-- Node13 -->
<g id="node13" class="node">
<title>Node13</title>
<g id="a_node13"><a target="_parent" xlink:href="http://en.cppreference.com/w/cpp/header/future.html" xlink:title=" ">
<polygon fill="white" stroke="#666666" points="457,-129 404,-129 404,-110 457,-110 457,-129"/>
<text text-anchor="middle" x="430.5" y="-117" font-family="ui-monospace,monospace" font-size="10.00">future</text>
</a>
</g>
</g>
<!-- Node1&#45;&gt;Node13 -->
<g id="edge13" class="edge">
<title>Node1&#45;&gt;Node13</title>
<path fill="none" stroke="#63b8ff" d="M343.21,-164.98C359.71,-156.57 385.2,-143.59 404.38,-133.81"/>
<polygon fill="#63b8ff" stroke="#63b8ff" points="406.17,-136.83 413.49,-129.17 402.99,-130.59 406.17,-136.83"/>
</g>
<!-- Node14 -->
<g id="node14" class="node">
<title>Node14</title>
<g id="a_node14"><a target="_parent" xlink:href="http://en.cppreference.com/w/cpp/header/optional.html" xlink:title=" ">
<polygon fill="white" stroke="#666666" points="540,-129 475,-129 475,-110 540,-110 540,-129"/>
<text text-anchor="middle" x="507.5" y="-117" font-family="ui-monospace,monospace" font-size="10.00">optional</text>
</a>
</g>
</g>
<!-- Node1&#45;&gt;Node14 -->
<g id="edge14" class="edge">
<title>Node1&#45;&gt;Node14</title>
<path fill="none" stroke="#63b8ff" d="M355.58,-164.98C386.1,-156.05 434.26,-141.94 468.16,-132.02"/>
<polygon fill="#63b8ff" stroke="#63b8ff" points="469.58,-135.25 478.19,-129.08 467.61,-128.53 469.58,-135.25"/>
</g>
<!-- Node15 -->
<g id="node15" class="node">
<title>Node15</title>
<g id="a_node15"><a target="_parent" xlink:href="http://en.cppreference.com/w/cpp/header/vector.html" xlink:title=" ">
<polygon fill="white" stroke="#666666" points="611,-129 558,-129 558,-110 611,-110 611,-129"/>
<text text-anchor="middle" x="584.5" y="-117" font-family="ui-monospace,monospace" font-size="10.00">vector</text>
</a>
</g>
</g>
<!-- Node1&#45;&gt;Node15 -->
<g id="edge15" class="edge">
<title>Node1&#45;&gt;Node15</title>
<path fill="none" stroke="#63b8ff" d="M372.31,-164.93C415.27,-156.77 481.54,-143.85 547.6,-129.35"/>
<polygon fill="#63b8ff" stroke="#63b8ff" points="548.76,-132.68 557.77,-127.11 547.25,-125.85 548.76,-132.68"/>
</g>
<!-- Node2&#45;&gt;Node3 -->
<g id="edge2" class="edge">
<title>Node2&#45;&gt;Node3</title>
<path fill="none" stroke="#63b8ff" d="M92.63,-109.75C96.01,-102.57 100.92,-92.18 105.12,-83.27"/>
<polygon fill="#63b8ff" stroke="#63b8ff" points="108.35,-84.63 109.45,-74.09 102.02,-81.64 108.35,-84.63"/>
</g>
<!-- Node4 -->
<g id="node4" class="node">
<title>Node4</title>
<g id="a_node4"><a xlink:title=" ">
<polygon fill="#e0e0e0" stroke="#999999" points="125,-19 0,-19 0,0 125,0 125,-19"/>
<text text-anchor="middle" x="62.5" y="-7" font-family="ui-monospace,monospace" font-size="10.00">boost/qvm_lite.hpp</text>
</a>
</g>
</g>
<!-- Node3&#45;&gt;Node4 -->
<g id="edge3" class="edge">
<title>Node3&#45;&gt;Node4</title>
<path fill="none" stroke="#63b8ff" d="M105.08,-54.75C97.73,-47.11 86.87,-35.82 77.96,-26.56"/>
<polygon fill="#63b8ff" stroke="#63b8ff" points="80.22,-23.87 70.76,-19.09 75.18,-28.72 80.22,-23.87"/>
</g>
<!-- Node5 -->
<g id="node5" class="node">
<title>Node5</title>
<g id="a_node5"><a target="_parent" xlink:href="http://en.cppreference.com/w/cpp/header/iosfwd.html" xlink:title=" ">
<polygon fill="white" stroke="#666666" points="196,-19 143,-19 143,0 196,0 196,-19"/>
<text text-anchor="middle" x="169.5" y="-7" font-family="ui-monospace,monospace" font-size="10.00">iosfwd</text>
</a>
</g>
</g>
<!-- Node3&#45;&gt;Node5 -->
<g id="edge4" class="edge">
<title>Node3&#45;&gt;Node5</title>
<path fill="none" stroke="#63b8ff" d="M122.5,-54.98C130.69,-47.23 143.01,-35.58 152.97,-26.14"/>
<polygon fill="#63b8ff" stroke="#63b8ff" points="155.48,-28.59 160.34,-19.17 150.67,-23.5 155.48,-28.59"/>
</g>
<!-- Node7 -->
<g id="node7" class="node">
<title>Node7</title>
<g id="a_node7"><a target="_parent" xlink:href="http://en.cppreference.com/w/cpp/header/cstdint.html" xlink:title=" ">
<polygon fill="white" stroke="#666666" points="236,-74 177,-74 177,-55 236,-55 236,-74"/>
<text text-anchor="middle" x="206.5" y="-62" font-family="ui-monospace,monospace" font-size="10.00">cstdint</text>
</a>
</g>
</g>
<!-- Node6&#45;&gt;Node7 -->
<g id="edge6" class="edge">
<title>Node6&#45;&gt;Node7</title>
<path fill="none" stroke="#63b8ff" d="M217.35,-109.75C215.63,-102.72 213.15,-92.62 211,-83.84"/>
<polygon fill="#63b8ff" stroke="#63b8ff" points="214.39,-82.97 208.61,-74.09 207.59,-84.63 214.39,-82.97"/>
</g>
<!-- Node9 -->
<g id="node9" class="node">
<title>Node9</title>
<g id="a_node9"><a xlink:href="Finally_8hpp.html" target="_top" xlink:title="Contains jngl::Finally class.">
<polygon fill="white" stroke="#666666" points="337,-74 254,-74 254,-55 337,-55 337,-74"/>
<text text-anchor="middle" x="295.5" y="-62" font-family="ui-monospace,monospace" font-size="10.00">Finally.hpp</text>
</a>
</g>
</g>
<!-- Node8&#45;&gt;Node9 -->
<g id="edge8" class="edge">
<title>Node8&#45;&gt;Node9</title>
<path fill="none" stroke="#63b8ff" d="M321.38,-109.75C317.14,-102.49 310.97,-91.95 305.72,-82.98"/>
<polygon fill="#63b8ff" stroke="#63b8ff" points="308.59,-80.95 300.52,-74.09 302.55,-84.49 308.59,-80.95"/>
</g>
<!-- Node11 -->
<g id="node11" class="node">
<title>Node11</title>
<g id="a_node11"><a target="_parent" xlink:href="http://en.cppreference.com/w/cpp/header/memory.html" xlink:title=" ">
<polygon fill="white" stroke="#666666" points="408,-74 355,-74 355,-55 408,-55 408,-74"/>
<text text-anchor="middle" x="381.5" y="-62" font-family="ui-monospace,monospace" font-size="10.00">memory</text>
</a>
</g>
</g>
<!-- Node8&#45;&gt;Node11 -->
<g id="edge10" class="edge">
<title>Node8&#45;&gt;Node11</title>
<path fill="none" stroke="#63b8ff" d="M335.58,-109.75C343.59,-102.03 355.46,-90.6 365.12,-81.28"/>
<polygon fill="#63b8ff" stroke="#63b8ff" points="367.81,-83.55 372.59,-74.09 362.96,-78.51 367.81,-83.55"/>
</g>
<!-- Node12 -->
<g id="node12" class="node">
<title>Node12</title>
<g id="a_node12"><a target="_parent" xlink:href="http://en.cppreference.com/w/cpp/header/string.html" xlink:title=" ">
<polygon fill="white" stroke="#666666" points="479,-74 426,-74 426,-55 479,-55 479,-74"/>
<text text-anchor="middle" x="452.5" y="-62" font-family="ui-monospace,monospace" font-size="10.00">string</text>
</a>
</g>
</g>
<!-- Node8&#45;&gt;Node12 -->
<g id="edge11" class="edge">
<title>Node8&#45;&gt;Node12</title>
<path fill="none" stroke="#63b8ff" d="M346.74,-109.98C367.2,-101.38 399.03,-87.99 422.43,-78.15"/>
<polygon fill="#63b8ff" stroke="#63b8ff" points="424.03,-81.27 431.89,-74.17 421.31,-74.82 424.03,-81.27"/>
</g>
<!-- Node10 -->
<g id="node10" class="node">
<title>Node10</title>
<g id="a_node10"><a target="_parent" xlink:href="http://en.cppreference.com/w/cpp/header/functional.html" xlink:title=" ">
<polygon fill="white" stroke="#666666" points="334,-19 257,-19 257,0 334,0 334,-19"/>
<text text-anchor="middle" x="295.5" y="-7" font-family="ui-monospace,monospace" font-size="10.00">functional</text>
</a>
</g>
</g>
<!-- Node9&#45;&gt;Node10 -->
<g id="edge9" class="edge">
<title>Node9&#45;&gt;Node10</title>
<path fill="none" stroke="#63b8ff" d="M295.5,-54.75C295.5,-47.8 295.5,-37.85 295.5,-29.13"/>
<polygon fill="#63b8ff" stroke="#63b8ff" points="299,-29.09 295.5,-19.09 292,-29.09 299,-29.09"/>
</g>
</g>
</svg>
