<?xml version="1.0" encoding="UTF-8" standalone="no"?>
<!DOCTYPE svg PUBLIC "-//W3C//DTD SVG 1.1//EN"
 "http://www.w3.org/Graphics/SVG/1.1/DTD/svg11.dtd">
<!-- Generated by graphviz version 9.0.0 (20230911.1827)
 -->
<!-- Title: jngl/Sprite.hpp Pages: 1 -->
<svg width="733pt" height="193pt"
 viewBox="0.00 0.00 733.00 193.00" xmlns="http://www.w3.org/2000/svg" xmlns:xlink="http://www.w3.org/1999/xlink">
<g id="graph0" class="graph" transform="scale(1 1) rotate(0) translate(4 189)">
<title>jngl/Sprite.hpp</title>
<!-- Node1 -->
<g id="Node000001" class="node">
<title>Node1</title>
<g id="a_Node000001"><a xlink:title="Contains jngl::Sprite class and related functions.">
<polygon fill="#999999" stroke="#666666" points="397,-185 291,-185 291,-165.75 397,-165.75 397,-185"/>
<text text-anchor="middle" x="344" y="-171.5" font-family="ui-monospace,monospace" font-size="10.00">jngl/Sprite.hpp</text>
</a>
</g>
</g>
<!-- Node2 -->
<g id="Node000002" class="node">
<title>Node2</title>
<g id="a_Node000002"><a xlink:href="Drawable_8hpp.html" target="_top" xlink:title="Contains jngl::Drawable class.">
<polygon fill="white" stroke="#666666" points="109,-129.75 21,-129.75 21,-110.5 109,-110.5 109,-129.75"/>
<text text-anchor="middle" x="65" y="-116.25" font-family="ui-monospace,monospace" font-size="10.00">Drawable.hpp</text>
</a>
</g>
</g>
<!-- Node1&#45;&gt;Node2 -->
<g id="edge1_Node000001_Node000002" class="edge">
<title>Node1&#45;&gt;Node2</title>
<g id="a_edge1_Node000001_Node000002"><a xlink:title=" ">
<path fill="none" stroke="#63b8ff" d="M296.36,-165.28C247.59,-155.97 171.88,-141.52 120.45,-131.71"/>
<polygon fill="#63b8ff" stroke="#63b8ff" points="121.19,-128.29 110.71,-129.85 119.88,-135.16 121.19,-128.29"/>
</a>
</g>
</g>
<!-- Node3 -->
<g id="Node000003" class="node">
<title>Node3</title>
<g id="a_Node000003"><a xlink:href="Vec2_8hpp.html" target="_top" xlink:title="Contains jngl::Vec2 class.">
<polygon fill="white" stroke="#666666" points="100,-74.5 36,-74.5 36,-55.25 100,-55.25 100,-74.5"/>
<text text-anchor="middle" x="68" y="-61" font-family="ui-monospace,monospace" font-size="10.00">Vec2.hpp</text>
</a>
</g>
</g>
<!-- Node1&#45;&gt;Node3 -->
<g id="edge17_Node000001_Node000003" class="edge">
<title>Node1&#45;&gt;Node3</title>
<g id="a_edge17_Node000001_Node000003"><a xlink:title=" ">
<path fill="none" stroke="#63b8ff" d="M298.79,-165.31C265.27,-157.82 218.86,-145.81 180,-129.75 147.5,-116.31 112.7,-95.31 90.67,-81.09"/>
<polygon fill="#63b8ff" stroke="#63b8ff" points="92.78,-78.28 82.49,-75.73 88.94,-84.14 92.78,-78.28"/>
</a>
</g>
</g>
<!-- Node6 -->
<g id="Node000006" class="node">
<title>Node6</title>
<g id="a_Node000006"><a xlink:href="Finally_8hpp.html" target="_top" xlink:title="Contains jngl::Finally class.">
<polygon fill="white" stroke="#666666" points="503,-129.75 421,-129.75 421,-110.5 503,-110.5 503,-129.75"/>
<text text-anchor="middle" x="462" y="-116.25" font-family="ui-monospace,monospace" font-size="10.00">Finally.hpp</text>
</a>
</g>
</g>
<!-- Node1&#45;&gt;Node6 -->
<g id="edge5_Node000001_Node000006" class="edge">
<title>Node1&#45;&gt;Node6</title>
<g id="a_edge5_Node000001_Node000006"><a xlink:title=" ">
<path fill="none" stroke="#63b8ff" d="M364.02,-165.34C382.49,-157 410.21,-144.5 431.45,-134.91"/>
<polygon fill="#63b8ff" stroke="#63b8ff" points="432.83,-138.13 440.51,-130.83 429.95,-131.75 432.83,-138.13"/>
</a>
</g>
</g>
<!-- Node8 -->
<g id="Node000008" class="node">
<title>Node8</title>
<g id="a_Node000008"><a xlink:href="Rgb_8hpp.html" target="_top" xlink:title="Contains jngl::Rgb class.">
<polygon fill="white" stroke="#666666" points="213,-74.5 155,-74.5 155,-55.25 213,-55.25 213,-74.5"/>
<text text-anchor="middle" x="184" y="-61" font-family="ui-monospace,monospace" font-size="10.00">Rgb.hpp</text>
</a>
</g>
</g>
<!-- Node1&#45;&gt;Node8 -->
<g id="edge7_Node000001_Node000008" class="edge">
<title>Node1&#45;&gt;Node8</title>
<g id="a_edge7_Node000001_Node000008"><a xlink:title=" ">
<path fill="none" stroke="#63b8ff" d="M290.6,-172.3C257.94,-168.1 217.96,-157.16 194,-129.75 183.7,-117.98 181.65,-100.09 181.92,-86.24"/>
<polygon fill="#63b8ff" stroke="#63b8ff" points="185.4,-86.66 182.56,-76.46 178.42,-86.21 185.4,-86.66"/>
</a>
</g>
</g>
<!-- Node10 -->
<g id="Node000010" class="node">
<title>Node10</title>
<g id="a_Node000010"><a xlink:href="Rgba_8hpp.html" target="_top" xlink:title="Contains jngl::Rgba class.">
<polygon fill="white" stroke="#666666" points="267,-129.75 203,-129.75 203,-110.5 267,-110.5 267,-129.75"/>
<text text-anchor="middle" x="235" y="-116.25" font-family="ui-monospace,monospace" font-size="10.00">Rgba.hpp</text>
</a>
</g>
</g>
<!-- Node1&#45;&gt;Node10 -->
<g id="edge10_Node000001_Node000010" class="edge">
<title>Node1&#45;&gt;Node10</title>
<g id="a_edge10_Node000001_Node000010"><a xlink:title=" ">
<path fill="none" stroke="#63b8ff" d="M325.51,-165.34C308.6,-157.08 283.31,-144.73 263.76,-135.18"/>
<polygon fill="#63b8ff" stroke="#63b8ff" points="265.46,-132.11 254.94,-130.87 262.39,-138.4 265.46,-132.11"/>
</a>
</g>
</g>
<!-- Node11 -->
<g id="Node000011" class="node">
<title>Node11</title>
<g id="a_Node000011"><a xlink:href="ShaderProgram_8hpp.html" target="_top" xlink:title="Contains jngl::ShaderProgram class.">
<polygon fill="white" stroke="#666666" points="403,-129.75 285,-129.75 285,-110.5 403,-110.5 403,-129.75"/>
<text text-anchor="middle" x="344" y="-116.25" font-family="ui-monospace,monospace" font-size="10.00">ShaderProgram.hpp</text>
</a>
</g>
</g>
<!-- Node1&#45;&gt;Node11 -->
<g id="edge13_Node000001_Node000011" class="edge">
<title>Node1&#45;&gt;Node11</title>
<g id="a_edge13_Node000001_Node000011"><a xlink:title=" ">
<path fill="none" stroke="#63b8ff" d="M344,-165.58C344,-159.07 344,-149.92 344,-141.62"/>
<polygon fill="#63b8ff" stroke="#63b8ff" points="347.5,-141.62 344,-131.62 340.5,-141.62 347.5,-141.62"/>
</a>
</g>
</g>
<!-- Node14 -->
<g id="Node000014" class="node">
<title>Node14</title>
<g id="a_Node000014"><a target="_parent" xlink:href="http://en.cppreference.com/w/cpp/header/future.html" xlink:title=" ">
<polygon fill="white" stroke="#666666" points="573,-129.75 521,-129.75 521,-110.5 573,-110.5 573,-129.75"/>
<text text-anchor="middle" x="547" y="-116.25" font-family="ui-monospace,monospace" font-size="10.00">future</text>
</a>
</g>
</g>
<!-- Node1&#45;&gt;Node14 -->
<g id="edge18_Node000001_Node000014" class="edge">
<title>Node1&#45;&gt;Node14</title>
<g id="a_edge18_Node000001_Node000014"><a xlink:title=" ">
<path fill="none" stroke="#63b8ff" d="M378.44,-165.34C414.93,-155.77 472.36,-140.7 509.86,-130.87"/>
<polygon fill="#63b8ff" stroke="#63b8ff" points="510.56,-134.3 519.34,-128.38 508.78,-127.53 510.56,-134.3"/>
</a>
</g>
</g>
<!-- Node15 -->
<g id="Node000015" class="node">
<title>Node15</title>
<g id="a_Node000015"><a target="_parent" xlink:href="http://en.cppreference.com/w/cpp/header/optional.html" xlink:title=" ">
<polygon fill="white" stroke="#666666" points="655,-129.75 591,-129.75 591,-110.5 655,-110.5 655,-129.75"/>
<text text-anchor="middle" x="623" y="-116.25" font-family="ui-monospace,monospace" font-size="10.00">optional</text>
</a>
</g>
</g>
<!-- Node1&#45;&gt;Node15 -->
<g id="edge19_Node000001_Node000015" class="edge">
<title>Node1&#45;&gt;Node15</title>
<g id="a_edge19_Node000001_Node000015"><a xlink:title=" ">
<path fill="none" stroke="#63b8ff" d="M394.21,-165.29C439.97,-156.94 509.73,-144.02 579.58,-130.2"/>
<polygon fill="#63b8ff" stroke="#63b8ff" points="580.17,-133.65 589.3,-128.27 578.81,-126.78 580.17,-133.65"/>
</a>
</g>
</g>
<!-- Node16 -->
<g id="Node000016" class="node">
<title>Node16</title>
<g id="a_Node000016"><a target="_parent" xlink:href="http://en.cppreference.com/w/cpp/header/vector.html" xlink:title=" ">
<polygon fill="white" stroke="#666666" points="725,-129.75 673,-129.75 673,-110.5 725,-110.5 725,-129.75"/>
<text text-anchor="middle" x="699" y="-116.25" font-family="ui-monospace,monospace" font-size="10.00">vector</text>
</a>
</g>
</g>
<!-- Node1&#45;&gt;Node16 -->
<g id="edge20_Node000001_Node000016" class="edge">
<title>Node1&#45;&gt;Node16</title>
<g id="a_edge20_Node000001_Node000016"><a xlink:title=" ">
<path fill="none" stroke="#63b8ff" d="M397.22,-168.65C458.64,-161.67 562.9,-148.67 661.61,-130.04"/>
<polygon fill="#63b8ff" stroke="#63b8ff" points="662.04,-133.52 671.2,-128.2 660.72,-126.64 662.04,-133.52"/>
</a>
</g>
</g>
<!-- Node2&#45;&gt;Node3 -->
<g id="edge2_Node000002_Node000003" class="edge">
<title>Node2&#45;&gt;Node3</title>
<g id="a_edge2_Node000002_Node000003"><a xlink:title=" ">
<path fill="none" stroke="#63b8ff" d="M65.5,-110.33C65.87,-103.74 66.39,-94.46 66.86,-86.07"/>
<polygon fill="#63b8ff" stroke="#63b8ff" points="70.34,-86.55 67.41,-76.37 63.35,-86.16 70.34,-86.55"/>
</a>
</g>
</g>
<!-- Node4 -->
<g id="Node000004" class="node">
<title>Node4</title>
<g id="a_Node000004"><a xlink:title=" ">
<polygon fill="#e0e0e0" stroke="#999999" points="124,-19.25 0,-19.25 0,0 124,0 124,-19.25"/>
<text text-anchor="middle" x="62" y="-5.75" font-family="ui-monospace,monospace" font-size="10.00">boost/qvm_lite.hpp</text>
</a>
</g>
</g>
<!-- Node3&#45;&gt;Node4 -->
<g id="edge3_Node000003_Node000004" class="edge">
<title>Node3&#45;&gt;Node4</title>
<g id="a_edge3_Node000003_Node000004"><a xlink:title=" ">
<path fill="none" stroke="#63b8ff" d="M67.01,-55.08C66.27,-48.49 65.22,-39.21 64.28,-30.82"/>
<polygon fill="#63b8ff" stroke="#63b8ff" points="67.78,-30.66 63.18,-21.11 60.82,-31.44 67.78,-30.66"/>
</a>
</g>
</g>
<!-- Node5 -->
<g id="Node000005" class="node">
<title>Node5</title>
<g id="a_Node000005"><a target="_parent" xlink:href="http://en.cppreference.com/w/cpp/header/iosfwd.html" xlink:title=" ">
<polygon fill="white" stroke="#666666" points="194,-19.25 142,-19.25 142,0 194,0 194,-19.25"/>
<text text-anchor="middle" x="168" y="-5.75" font-family="ui-monospace,monospace" font-size="10.00">iosfwd</text>
</a>
</g>
</g>
<!-- Node3&#45;&gt;Node5 -->
<g id="edge4_Node000003_Node000005" class="edge">
<title>Node3&#45;&gt;Node5</title>
<g id="a_edge4_Node000003_Node000005"><a xlink:title=" ">
<path fill="none" stroke="#63b8ff" d="M84.96,-54.84C100.26,-46.69 123.03,-34.57 140.86,-25.08"/>
<polygon fill="#63b8ff" stroke="#63b8ff" points="142.44,-28.2 149.62,-20.41 139.15,-22.02 142.44,-28.2"/>
</a>
</g>
</g>
<!-- Node7 -->
<g id="Node000007" class="node">
<title>Node7</title>
<g id="a_Node000007"><a target="_parent" xlink:href="http://en.cppreference.com/w/cpp/header/functional.html" xlink:title=" ">
<polygon fill="white" stroke="#666666" points="500,-74.5 424,-74.5 424,-55.25 500,-55.25 500,-74.5"/>
<text text-anchor="middle" x="462" y="-61" font-family="ui-monospace,monospace" font-size="10.00">functional</text>
</a>
</g>
</g>
<!-- Node6&#45;&gt;Node7 -->
<g id="edge6_Node000006_Node000007" class="edge">
<title>Node6&#45;&gt;Node7</title>
<g id="a_edge6_Node000006_Node000007"><a xlink:title=" ">
<path fill="none" stroke="#63b8ff" d="M462,-110.33C462,-103.82 462,-94.67 462,-86.37"/>
<polygon fill="#63b8ff" stroke="#63b8ff" points="465.5,-86.37 462,-76.37 458.5,-86.37 465.5,-86.37"/>
</a>
</g>
</g>
<!-- Node8&#45;&gt;Node5 -->
<g id="edge9_Node000008_Node000005" class="edge">
<title>Node8&#45;&gt;Node5</title>
<g id="a_edge9_Node000008_Node000005"><a xlink:title=" ">
<path fill="none" stroke="#63b8ff" d="M181.36,-55.08C179.36,-48.42 176.52,-38.99 173.98,-30.53"/>
<polygon fill="#63b8ff" stroke="#63b8ff" points="177.36,-29.63 171.14,-21.06 170.66,-31.64 177.36,-29.63"/>
</a>
</g>
</g>
<!-- Node9 -->
<g id="Node000009" class="node">
<title>Node9</title>
<g id="a_Node000009"><a target="_parent" xlink:href="http://en.cppreference.com/w/cpp/header/cstdint.html" xlink:title=" ">
<polygon fill="white" stroke="#666666" points="270,-19.25 212,-19.25 212,0 270,0 270,-19.25"/>
<text text-anchor="middle" x="241" y="-5.75" font-family="ui-monospace,monospace" font-size="10.00">cstdint</text>
</a>
</g>
</g>
<!-- Node8&#45;&gt;Node9 -->
<g id="edge8_Node000008_Node000009" class="edge">
<title>Node8&#45;&gt;Node9</title>
<g id="a_edge8_Node000008_Node000009"><a xlink:title=" ">
<path fill="none" stroke="#63b8ff" d="M193.67,-54.84C201.74,-47.3 213.47,-36.35 223.22,-27.23"/>
<polygon fill="#63b8ff" stroke="#63b8ff" points="225.45,-29.94 230.37,-20.56 220.67,-24.83 225.45,-29.94"/>
</a>
</g>
</g>
<!-- Node10&#45;&gt;Node8 -->
<g id="edge11_Node000010_Node000008" class="edge">
<title>Node10&#45;&gt;Node8</title>
<g id="a_edge11_Node000010_Node000008"><a xlink:title=" ">
<path fill="none" stroke="#63b8ff" d="M226.58,-110.33C219.46,-102.9 209.06,-92.04 200.31,-82.91"/>
<polygon fill="#63b8ff" stroke="#63b8ff" points="203.1,-80.75 193.65,-75.95 198.04,-85.6 203.1,-80.75"/>
</a>
</g>
</g>
<!-- Node10&#45;&gt;Node9 -->
<g id="edge12_Node000010_Node000009" class="edge">
<title>Node10&#45;&gt;Node9</title>
<g id="a_edge12_Node000010_Node000009"><a xlink:title=" ">
<path fill="none" stroke="#63b8ff" d="M235.49,-110.25C236.44,-93 238.57,-54.58 239.88,-30.81"/>
<polygon fill="#63b8ff" stroke="#63b8ff" points="243.36,-31.32 240.42,-21.14 236.37,-30.93 243.36,-31.32"/>
</a>
</g>
</g>
<!-- Node11&#45;&gt;Node8 -->
<g id="edge14_Node000011_Node000008" class="edge">
<title>Node11&#45;&gt;Node8</title>
<g id="a_edge14_Node000011_Node000008"><a xlink:title=" ">
<path fill="none" stroke="#63b8ff" d="M316.86,-110.09C290.77,-101.41 251.1,-88.21 221.9,-78.49"/>
<polygon fill="#63b8ff" stroke="#63b8ff" points="223.3,-75.27 212.71,-75.43 221.09,-81.91 223.3,-75.27"/>
</a>
</g>
</g>
<!-- Node12 -->
<g id="Node000012" class="node">
<title>Node12</title>
<g id="a_Node000012"><a target="_parent" xlink:href="http://en.cppreference.com/w/cpp/header/memory.html" xlink:title=" ">
<polygon fill="white" stroke="#666666" points="327,-74.5 275,-74.5 275,-55.25 327,-55.25 327,-74.5"/>
<text text-anchor="middle" x="301" y="-61" font-family="ui-monospace,monospace" font-size="10.00">memory</text>
</a>
</g>
</g>
<!-- Node11&#45;&gt;Node12 -->
<g id="edge15_Node000011_Node000012" class="edge">
<title>Node11&#45;&gt;Node12</title>
<g id="a_edge15_Node000011_Node000012"><a xlink:title=" ">
<path fill="none" stroke="#63b8ff" d="M336.9,-110.33C331.08,-103.13 322.67,-92.71 315.44,-83.76"/>
<polygon fill="#63b8ff" stroke="#63b8ff" points="318.21,-81.62 309.21,-76.04 312.77,-86.02 318.21,-81.62"/>
</a>
</g>
</g>
<!-- Node13 -->
<g id="Node000013" class="node">
<title>Node13</title>
<g id="a_Node000013"><a target="_parent" xlink:href="http://en.cppreference.com/w/cpp/header/string.html" xlink:title=" ">
<polygon fill="white" stroke="#666666" points="397,-74.5 345,-74.5 345,-55.25 397,-55.25 397,-74.5"/>
<text text-anchor="middle" x="371" y="-61" font-family="ui-monospace,monospace" font-size="10.00">string</text>
</a>
</g>
</g>
<!-- Node11&#45;&gt;Node13 -->
<g id="edge16_Node000011_Node000013" class="edge">
<title>Node11&#45;&gt;Node13</title>
<g id="a_edge16_Node000011_Node000013"><a xlink:title=" ">
<path fill="none" stroke="#63b8ff" d="M348.46,-110.33C351.95,-103.44 356.95,-93.59 361.35,-84.91"/>
<polygon fill="#63b8ff" stroke="#63b8ff" points="364.36,-86.71 365.76,-76.21 358.12,-83.55 364.36,-86.71"/>
</a>
</g>
</g>
</g>
</svg>
