<?xml version="1.0" encoding="UTF-8" standalone="no"?>
<!DOCTYPE svg PUBLIC "-//W3C//DTD SVG 1.1//EN"
 "http://www.w3.org/Graphics/SVG/1.1/DTD/svg11.dtd">
<!-- Generated by graphviz version 5.0.0 (0)
 -->
<!-- Title: jngl/sprite.hpp Pages: 1 -->
<svg width="535pt" height="192pt"
 viewBox="0.00 0.00 535.00 192.00" xmlns="http://www.w3.org/2000/svg" xmlns:xlink="http://www.w3.org/1999/xlink">
<g id="graph0" class="graph" transform="scale(1 1) rotate(0) translate(4 188)">
<title>jngl/sprite.hpp</title>
<!-- Node1 -->
<g id="node1" class="node">
<title>Node1</title>
<g id="a_node1"><a xlink:title="Contains jngl::Sprite class and related functions.">
<polygon fill="#999999" stroke="#666666" points="379,-184 272,-184 272,-165 379,-165 379,-184"/>
<text text-anchor="middle" x="325.5" y="-172" font-family="ui-monospace,monospace" font-size="10.00">jngl/sprite.hpp</text>
</a>
</g>
</g>
<!-- Node2 -->
<g id="node2" class="node">
<title>Node2</title>
<g id="a_node2"><a xlink:href="Drawable_8hpp.html" target="_top" xlink:title="Contains jngl::Drawable class.">
<polygon fill="white" stroke="#666666" points="209,-129 120,-129 120,-110 209,-110 209,-129"/>
<text text-anchor="middle" x="164.5" y="-117" font-family="ui-monospace,monospace" font-size="10.00">Drawable.hpp</text>
</a>
</g>
</g>
<!-- Node1&#45;&gt;Node2 -->
<g id="edge1" class="edge">
<title>Node1&#45;&gt;Node2</title>
<path fill="none" stroke="#63b8ff" d="M299.63,-164.98C272.72,-156.13 230.38,-142.19 200.27,-132.28"/>
<polygon fill="#63b8ff" stroke="#63b8ff" points="201.16,-128.88 190.57,-129.08 198.97,-135.53 201.16,-128.88"/>
</g>
<!-- Node3 -->
<g id="node3" class="node">
<title>Node3</title>
<g id="a_node3"><a xlink:href="Vec2_8hpp.html" target="_top" xlink:title="Contains jngl::Vec2 class.">
<polygon fill="white" stroke="#666666" points="197,-74 132,-74 132,-55 197,-55 197,-74"/>
<text text-anchor="middle" x="164.5" y="-62" font-family="ui-monospace,monospace" font-size="10.00">Vec2.hpp</text>
</a>
</g>
</g>
<!-- Node1&#45;&gt;Node3 -->
<g id="edge10" class="edge">
<title>Node1&#45;&gt;Node3</title>
<path fill="none" stroke="#63b8ff" d="M311.93,-164.93C297.96,-156.06 275.59,-141.74 256.5,-129 231.67,-112.43 203.46,-92.84 184.9,-79.85"/>
<polygon fill="#63b8ff" stroke="#63b8ff" points="186.82,-76.92 176.62,-74.04 182.8,-82.65 186.82,-76.92"/>
</g>
<!-- Node6 -->
<g id="node6" class="node">
<title>Node6</title>
<g id="a_node6"><a xlink:href="ShaderProgram_8hpp.html" target="_top" xlink:title="Contains jngl::ShaderProgram class.">
<polygon fill="white" stroke="#666666" points="385,-129 266,-129 266,-110 385,-110 385,-129"/>
<text text-anchor="middle" x="325.5" y="-117" font-family="ui-monospace,monospace" font-size="10.00">ShaderProgram.hpp</text>
</a>
</g>
</g>
<!-- Node1&#45;&gt;Node6 -->
<g id="edge5" class="edge">
<title>Node1&#45;&gt;Node6</title>
<path fill="none" stroke="#63b8ff" d="M325.5,-164.75C325.5,-157.8 325.5,-147.85 325.5,-139.13"/>
<polygon fill="#63b8ff" stroke="#63b8ff" points="329,-139.09 325.5,-129.09 322,-139.09 329,-139.09"/>
</g>
<!-- Node11 -->
<g id="node11" class="node">
<title>Node11</title>
<g id="a_node11"><a target="_parent" xlink:href="http://en.cppreference.com/w/cpp/header/future.html" xlink:title=" ">
<polygon fill="white" stroke="#666666" points="456,-129 403,-129 403,-110 456,-110 456,-129"/>
<text text-anchor="middle" x="429.5" y="-117" font-family="ui-monospace,monospace" font-size="10.00">future</text>
</a>
</g>
</g>
<!-- Node1&#45;&gt;Node11 -->
<g id="edge11" class="edge">
<title>Node1&#45;&gt;Node11</title>
<path fill="none" stroke="#63b8ff" d="M342.21,-164.98C358.71,-156.57 384.2,-143.59 403.38,-133.81"/>
<polygon fill="#63b8ff" stroke="#63b8ff" points="405.17,-136.83 412.49,-129.17 401.99,-130.59 405.17,-136.83"/>
</g>
<!-- Node12 -->
<g id="node12" class="node">
<title>Node12</title>
<g id="a_node12"><a target="_parent" xlink:href="http://en.cppreference.com/w/cpp/header/vector.html" xlink:title=" ">
<polygon fill="white" stroke="#666666" points="527,-129 474,-129 474,-110 527,-110 527,-129"/>
<text text-anchor="middle" x="500.5" y="-117" font-family="ui-monospace,monospace" font-size="10.00">vector</text>
</a>
</g>
</g>
<!-- Node1&#45;&gt;Node12 -->
<g id="edge12" class="edge">
<title>Node1&#45;&gt;Node12</title>
<path fill="none" stroke="#63b8ff" d="M353.62,-164.98C383.65,-155.89 431.36,-141.44 464.21,-131.49"/>
<polygon fill="#63b8ff" stroke="#63b8ff" points="465.33,-134.81 473.89,-128.56 463.3,-128.11 465.33,-134.81"/>
</g>
<!-- Node2&#45;&gt;Node3 -->
<g id="edge2" class="edge">
<title>Node2&#45;&gt;Node3</title>
<path fill="none" stroke="#63b8ff" d="M164.5,-109.75C164.5,-102.8 164.5,-92.85 164.5,-84.13"/>
<polygon fill="#63b8ff" stroke="#63b8ff" points="168,-84.09 164.5,-74.09 161,-84.09 168,-84.09"/>
</g>
<!-- Node4 -->
<g id="node4" class="node">
<title>Node4</title>
<g id="a_node4"><a xlink:title=" ">
<polygon fill="#e0e0e0" stroke="#999999" points="125,-19 0,-19 0,0 125,0 125,-19"/>
<text text-anchor="middle" x="62.5" y="-7" font-family="ui-monospace,monospace" font-size="10.00">boost/qvm_lite.hpp</text>
</a>
</g>
</g>
<!-- Node3&#45;&gt;Node4 -->
<g id="edge3" class="edge">
<title>Node3&#45;&gt;Node4</title>
<path fill="none" stroke="#63b8ff" d="M148.11,-54.98C131.93,-46.57 106.93,-33.59 88.12,-23.81"/>
<polygon fill="#63b8ff" stroke="#63b8ff" points="89.67,-20.68 79.19,-19.17 86.45,-26.89 89.67,-20.68"/>
</g>
<!-- Node5 -->
<g id="node5" class="node">
<title>Node5</title>
<g id="a_node5"><a target="_parent" xlink:href="http://en.cppreference.com/w/cpp/header/iosfwd.html" xlink:title=" ">
<polygon fill="white" stroke="#666666" points="196,-19 143,-19 143,0 196,0 196,-19"/>
<text text-anchor="middle" x="169.5" y="-7" font-family="ui-monospace,monospace" font-size="10.00">iosfwd</text>
</a>
</g>
</g>
<!-- Node3&#45;&gt;Node5 -->
<g id="edge4" class="edge">
<title>Node3&#45;&gt;Node5</title>
<path fill="none" stroke="#63b8ff" d="M165.33,-54.75C165.98,-47.8 166.92,-37.85 167.74,-29.13"/>
<polygon fill="#63b8ff" stroke="#63b8ff" points="171.23,-29.37 168.69,-19.09 164.27,-28.72 171.23,-29.37"/>
</g>
<!-- Node7 -->
<g id="node7" class="node">
<title>Node7</title>
<g id="a_node7"><a xlink:href="Finally_8hpp.html" target="_top" xlink:title="Contains jngl::Finally class.">
<polygon fill="white" stroke="#666666" points="298,-74 215,-74 215,-55 298,-55 298,-74"/>
<text text-anchor="middle" x="256.5" y="-62" font-family="ui-monospace,monospace" font-size="10.00">Finally.hpp</text>
</a>
</g>
</g>
<!-- Node6&#45;&gt;Node7 -->
<g id="edge6" class="edge">
<title>Node6&#45;&gt;Node7</title>
<path fill="none" stroke="#63b8ff" d="M314.41,-109.98C304.01,-102 288.24,-89.88 275.78,-80.31"/>
<polygon fill="#63b8ff" stroke="#63b8ff" points="277.85,-77.49 267.79,-74.17 273.59,-83.04 277.85,-77.49"/>
</g>
<!-- Node9 -->
<g id="node9" class="node">
<title>Node9</title>
<g id="a_node9"><a target="_parent" xlink:href="http://en.cppreference.com/w/cpp/header/memory.html" xlink:title=" ">
<polygon fill="white" stroke="#666666" points="369,-74 316,-74 316,-55 369,-55 369,-74"/>
<text text-anchor="middle" x="342.5" y="-62" font-family="ui-monospace,monospace" font-size="10.00">memory</text>
</a>
</g>
</g>
<!-- Node6&#45;&gt;Node9 -->
<g id="edge8" class="edge">
<title>Node6&#45;&gt;Node9</title>
<path fill="none" stroke="#63b8ff" d="M328.31,-109.75C330.56,-102.72 333.8,-92.62 336.62,-83.84"/>
<polygon fill="#63b8ff" stroke="#63b8ff" points="340.02,-84.68 339.75,-74.09 333.36,-82.54 340.02,-84.68"/>
</g>
<!-- Node10 -->
<g id="node10" class="node">
<title>Node10</title>
<g id="a_node10"><a target="_parent" xlink:href="http://en.cppreference.com/w/cpp/header/string.html" xlink:title=" ">
<polygon fill="white" stroke="#666666" points="440,-74 387,-74 387,-55 440,-55 440,-74"/>
<text text-anchor="middle" x="413.5" y="-62" font-family="ui-monospace,monospace" font-size="10.00">string</text>
</a>
</g>
</g>
<!-- Node6&#45;&gt;Node10 -->
<g id="edge9" class="edge">
<title>Node6&#45;&gt;Node10</title>
<path fill="none" stroke="#63b8ff" d="M339.64,-109.98C353.29,-101.77 374.19,-89.18 390.28,-79.49"/>
<polygon fill="#63b8ff" stroke="#63b8ff" points="392.34,-82.33 399.1,-74.17 388.73,-76.33 392.34,-82.33"/>
</g>
<!-- Node8 -->
<g id="node8" class="node">
<title>Node8</title>
<g id="a_node8"><a target="_parent" xlink:href="http://en.cppreference.com/w/cpp/header/functional.html" xlink:title=" ">
<polygon fill="white" stroke="#666666" points="295,-19 218,-19 218,0 295,0 295,-19"/>
<text text-anchor="middle" x="256.5" y="-7" font-family="ui-monospace,monospace" font-size="10.00">functional</text>
</a>
</g>
</g>
<!-- Node7&#45;&gt;Node8 -->
<g id="edge7" class="edge">
<title>Node7&#45;&gt;Node8</title>
<path fill="none" stroke="#63b8ff" d="M256.5,-54.75C256.5,-47.8 256.5,-37.85 256.5,-29.13"/>
<polygon fill="#63b8ff" stroke="#63b8ff" points="260,-29.09 256.5,-19.09 253,-29.09 260,-29.09"/>
</g>
</g>
</svg>
