<?xml version="1.0" encoding="UTF-8" standalone="no"?>
<!DOCTYPE svg PUBLIC "-//W3C//DTD SVG 1.1//EN"
 "http://www.w3.org/Graphics/SVG/1.1/DTD/svg11.dtd">
<!-- Generated by graphviz version 2.42.4 (0)
 -->
<!-- Title: jngl/sprite.hpp Pages: 1 -->
<svg width="152pt" height="196pt"
 viewBox="0.00 0.00 152.00 196.00" xmlns="http://www.w3.org/2000/svg" xmlns:xlink="http://www.w3.org/1999/xlink">
<g id="graph0" class="graph" transform="scale(1 1) rotate(0) translate(4 192)">
<title>jngl/sprite.hpp</title>
<polygon fill="white" stroke="transparent" points="-4,4 -4,-192 148,-192 148,4 -4,4"/>
<!-- Node1 -->
<g id="node1" class="node">
<title>Node1</title>
<g id="a_node1"><a xlink:title="Contains jngl::Sprite class and related functions.">
<polygon fill="#bfbfbf" stroke="black" points="0,-168.5 0,-187.5 107,-187.5 107,-168.5 0,-168.5"/>
<text text-anchor="middle" x="53.5" y="-175.5" font-family="'Consolas',monospace" font-size="10.00">jngl/sprite.hpp</text>
</a>
</g>
</g>
<!-- Node2 -->
<g id="node2" class="node">
<title>Node2</title>
<g id="a_node2"><a xlink:href="all_8hpp.html" target="_top" xlink:title="Includes all JNGL headers except for init.hpp.">
<polygon fill="white" stroke="black" points="9,-56.5 9,-75.5 98,-75.5 98,-56.5 9,-56.5"/>
<text text-anchor="middle" x="53.5" y="-63.5" font-family="'Consolas',monospace" font-size="10.00">jngl/all.hpp</text>
</a>
</g>
</g>
<!-- Node1&#45;&gt;Node2 -->
<g id="edge1" class="edge">
<title>Node1&#45;&gt;Node2</title>
<path fill="none" stroke="midnightblue" d="M43.04,-159.52C36.54,-146.57 30.02,-128.38 33.5,-112 36.34,-98.62 43.44,-84.39 48.37,-75.59"/>
<polygon fill="midnightblue" stroke="midnightblue" points="39.97,-161.21 47.85,-168.3 46.11,-157.85 39.97,-161.21"/>
</g>
<!-- Node4 -->
<g id="node4" class="node">
<title>Node4</title>
<g id="a_node4"><a xlink:href="Video_8hpp.html" target="_top" xlink:title=" ">
<polygon fill="white" stroke="black" points="43,-112.5 43,-131.5 144,-131.5 144,-112.5 43,-112.5"/>
<text text-anchor="middle" x="93.5" y="-119.5" font-family="'Consolas',monospace" font-size="10.00">jngl/Video.hpp</text>
</a>
</g>
</g>
<!-- Node1&#45;&gt;Node4 -->
<g id="edge3" class="edge">
<title>Node1&#45;&gt;Node4</title>
<path fill="none" stroke="midnightblue" d="M66.2,-159.86C73.13,-150.5 81.41,-139.33 87.02,-131.75"/>
<polygon fill="midnightblue" stroke="midnightblue" points="63.25,-157.96 60.11,-168.08 68.87,-162.13 63.25,-157.96"/>
</g>
<!-- Node3 -->
<g id="node3" class="node">
<title>Node3</title>
<g id="a_node3"><a xlink:href="jngl_8hpp.html" target="_top" xlink:title="Includes jngl/all.hpp.">
<polygon fill="white" stroke="black" points="21,-0.5 21,-19.5 86,-19.5 86,-0.5 21,-0.5"/>
<text text-anchor="middle" x="53.5" y="-7.5" font-family="'Consolas',monospace" font-size="10.00">jngl.hpp</text>
</a>
</g>
</g>
<!-- Node2&#45;&gt;Node3 -->
<g id="edge2" class="edge">
<title>Node2&#45;&gt;Node3</title>
<path fill="none" stroke="midnightblue" d="M53.5,-45.8C53.5,-36.91 53.5,-26.78 53.5,-19.75"/>
<polygon fill="midnightblue" stroke="midnightblue" points="50,-46.08 53.5,-56.08 57,-46.08 50,-46.08"/>
</g>
<!-- Node4&#45;&gt;Node2 -->
<g id="edge4" class="edge">
<title>Node4&#45;&gt;Node2</title>
<path fill="none" stroke="midnightblue" d="M80.8,-103.86C73.87,-94.5 65.59,-83.33 59.98,-75.75"/>
<polygon fill="midnightblue" stroke="midnightblue" points="78.13,-106.13 86.89,-112.08 83.75,-101.96 78.13,-106.13"/>
</g>
</g>
</svg>
