<?xml version="1.0" encoding="UTF-8" standalone="no"?>
<!DOCTYPE svg PUBLIC "-//W3C//DTD SVG 1.1//EN"
 "http://www.w3.org/Graphics/SVG/1.1/DTD/svg11.dtd">
<!-- Generated by graphviz version 9.0.0 (20230911.1827)
 -->
<!-- Title: jngl/sprite.hpp Pages: 1 -->
<svg width="704pt" height="193pt"
 viewBox="0.00 0.00 704.00 193.00" xmlns="http://www.w3.org/2000/svg" xmlns:xlink="http://www.w3.org/1999/xlink">
<g id="graph0" class="graph" transform="scale(1 1) rotate(0) translate(4 189)">
<title>jngl/sprite.hpp</title>
<!-- Node1 -->
<g id="Node000001" class="node">
<title>Node1</title>
<g id="a_Node000001"><a xlink:title="Contains jngl::Sprite class and related functions.">
<polygon fill="#999999" stroke="#666666" points="413,-185 307,-185 307,-165.75 413,-165.75 413,-185"/>
<text text-anchor="middle" x="360" y="-171.5" font-family="ui-monospace,monospace" font-size="10.00">jngl/sprite.hpp</text>
</a>
</g>
</g>
<!-- Node2 -->
<g id="Node000002" class="node">
<title>Node2</title>
<g id="a_Node000002"><a xlink:href="Drawable_8hpp.html" target="_top" xlink:title="Contains jngl::Drawable class.">
<polygon fill="white" stroke="#666666" points="180,-129.75 92,-129.75 92,-110.5 180,-110.5 180,-129.75"/>
<text text-anchor="middle" x="136" y="-116.25" font-family="ui-monospace,monospace" font-size="10.00">Drawable.hpp</text>
</a>
</g>
</g>
<!-- Node1&#45;&gt;Node2 -->
<g id="edge1_Node000001_Node000002" class="edge">
<title>Node1&#45;&gt;Node2</title>
<g id="a_edge1_Node000001_Node000002"><a xlink:title=" ">
<path fill="none" stroke="#63b8ff" d="M321.75,-165.28C284.06,-156.32 226.31,-142.59 185.21,-132.82"/>
<polygon fill="#63b8ff" stroke="#63b8ff" points="186.11,-129.44 175.57,-130.53 184.49,-136.25 186.11,-129.44"/>
</a>
</g>
</g>
<!-- Node3 -->
<g id="Node000003" class="node">
<title>Node3</title>
<g id="a_Node000003"><a xlink:href="Vec2_8hpp.html" target="_top" xlink:title="Contains jngl::Vec2 class.">
<polygon fill="white" stroke="#666666" points="183,-74.5 119,-74.5 119,-55.25 183,-55.25 183,-74.5"/>
<text text-anchor="middle" x="151" y="-61" font-family="ui-monospace,monospace" font-size="10.00">Vec2.hpp</text>
</a>
</g>
</g>
<!-- Node1&#45;&gt;Node3 -->
<g id="edge15_Node000001_Node000003" class="edge">
<title>Node1&#45;&gt;Node3</title>
<g id="a_edge15_Node000001_Node000003"><a xlink:title=" ">
<path fill="none" stroke="#63b8ff" d="M333.6,-165.25C310.92,-157.05 277.61,-144.1 250,-129.75 222.18,-115.29 192.18,-95.25 172.59,-81.49"/>
<polygon fill="#63b8ff" stroke="#63b8ff" points="174.77,-78.75 164.59,-75.81 170.72,-84.45 174.77,-78.75"/>
</a>
</g>
</g>
<!-- Node6 -->
<g id="Node000006" class="node">
<title>Node6</title>
<g id="a_Node000006"><a xlink:href="Rgb_8hpp.html" target="_top" xlink:title="Contains jngl::Rgb class.">
<polygon fill="white" stroke="#666666" points="276,-74.5 218,-74.5 218,-55.25 276,-55.25 276,-74.5"/>
<text text-anchor="middle" x="247" y="-61" font-family="ui-monospace,monospace" font-size="10.00">Rgb.hpp</text>
</a>
</g>
</g>
<!-- Node1&#45;&gt;Node6 -->
<g id="edge5_Node000001_Node000006" class="edge">
<title>Node1&#45;&gt;Node6</title>
<g id="a_edge5_Node000001_Node000006"><a xlink:title=" ">
<path fill="none" stroke="#63b8ff" d="M323.81,-165.41C303.83,-158.7 280.08,-147.54 265,-129.75 254.62,-117.5 250.21,-99.66 248.34,-85.95"/>
<polygon fill="#63b8ff" stroke="#63b8ff" points="251.85,-85.91 247.39,-76.3 244.89,-86.59 251.85,-85.91"/>
</a>
</g>
</g>
<!-- Node8 -->
<g id="Node000008" class="node">
<title>Node8</title>
<g id="a_Node000008"><a xlink:href="Rgba_8hpp.html" target="_top" xlink:title="Contains jngl::Rgba class.">
<polygon fill="white" stroke="#666666" points="338,-129.75 274,-129.75 274,-110.5 338,-110.5 338,-129.75"/>
<text text-anchor="middle" x="306" y="-116.25" font-family="ui-monospace,monospace" font-size="10.00">Rgba.hpp</text>
</a>
</g>
</g>
<!-- Node1&#45;&gt;Node8 -->
<g id="edge7_Node000001_Node000008" class="edge">
<title>Node1&#45;&gt;Node8</title>
<g id="a_edge7_Node000001_Node000008"><a xlink:title=" ">
<path fill="none" stroke="#63b8ff" d="M351.08,-165.58C343.55,-158.15 332.53,-147.29 323.27,-138.16"/>
<polygon fill="#63b8ff" stroke="#63b8ff" points="325.77,-135.7 316.19,-131.17 320.85,-140.69 325.77,-135.7"/>
</a>
</g>
</g>
<!-- Node9 -->
<g id="Node000009" class="node">
<title>Node9</title>
<g id="a_Node000009"><a xlink:href="ShaderProgram_8hpp.html" target="_top" xlink:title="Contains jngl::ShaderProgram class.">
<polygon fill="white" stroke="#666666" points="474,-129.75 356,-129.75 356,-110.5 474,-110.5 474,-129.75"/>
<text text-anchor="middle" x="415" y="-116.25" font-family="ui-monospace,monospace" font-size="10.00">ShaderProgram.hpp</text>
</a>
</g>
</g>
<!-- Node1&#45;&gt;Node9 -->
<g id="edge10_Node000001_Node000009" class="edge">
<title>Node1&#45;&gt;Node9</title>
<g id="a_edge10_Node000001_Node000009"><a xlink:title=" ">
<path fill="none" stroke="#63b8ff" d="M369.08,-165.58C376.84,-158.07 388.21,-147.06 397.7,-137.88"/>
<polygon fill="#63b8ff" stroke="#63b8ff" points="399.88,-140.63 404.63,-131.16 395.01,-135.6 399.88,-140.63"/>
</a>
</g>
</g>
<!-- Node14 -->
<g id="Node000014" class="node">
<title>Node14</title>
<g id="a_Node000014"><a target="_parent" xlink:href="http://en.cppreference.com/w/cpp/header/future.html" xlink:title=" ">
<polygon fill="white" stroke="#666666" points="544,-129.75 492,-129.75 492,-110.5 544,-110.5 544,-129.75"/>
<text text-anchor="middle" x="518" y="-116.25" font-family="ui-monospace,monospace" font-size="10.00">future</text>
</a>
</g>
</g>
<!-- Node1&#45;&gt;Node14 -->
<g id="edge16_Node000001_Node000014" class="edge">
<title>Node1&#45;&gt;Node14</title>
<g id="a_edge16_Node000001_Node000014"><a xlink:title=" ">
<path fill="none" stroke="#63b8ff" d="M386.8,-165.34C412.61,-156.64 451.86,-143.42 480.71,-133.69"/>
<polygon fill="#63b8ff" stroke="#63b8ff" points="481.8,-137.02 490.16,-130.51 479.56,-130.39 481.8,-137.02"/>
</a>
</g>
</g>
<!-- Node15 -->
<g id="Node000015" class="node">
<title>Node15</title>
<g id="a_Node000015"><a target="_parent" xlink:href="http://en.cppreference.com/w/cpp/header/optional.html" xlink:title=" ">
<polygon fill="white" stroke="#666666" points="626,-129.75 562,-129.75 562,-110.5 626,-110.5 626,-129.75"/>
<text text-anchor="middle" x="594" y="-116.25" font-family="ui-monospace,monospace" font-size="10.00">optional</text>
</a>
</g>
</g>
<!-- Node1&#45;&gt;Node15 -->
<g id="edge17_Node000001_Node000015" class="edge">
<title>Node1&#45;&gt;Node15</title>
<g id="a_edge17_Node000001_Node000015"><a xlink:title=" ">
<path fill="none" stroke="#63b8ff" d="M399.96,-165.28C441.9,-155.74 507.61,-140.78 550.75,-130.97"/>
<polygon fill="#63b8ff" stroke="#63b8ff" points="551.29,-134.43 560.26,-128.8 549.73,-127.61 551.29,-134.43"/>
</a>
</g>
</g>
<!-- Node16 -->
<g id="Node000016" class="node">
<title>Node16</title>
<g id="a_Node000016"><a target="_parent" xlink:href="http://en.cppreference.com/w/cpp/header/vector.html" xlink:title=" ">
<polygon fill="white" stroke="#666666" points="696,-129.75 644,-129.75 644,-110.5 696,-110.5 696,-129.75"/>
<text text-anchor="middle" x="670" y="-116.25" font-family="ui-monospace,monospace" font-size="10.00">vector</text>
</a>
</g>
</g>
<!-- Node1&#45;&gt;Node16 -->
<g id="edge18_Node000001_Node000016" class="edge">
<title>Node1&#45;&gt;Node16</title>
<g id="a_edge18_Node000001_Node000016"><a xlink:title=" ">
<path fill="none" stroke="#63b8ff" d="M413.46,-167C466.61,-159.39 550.67,-146.55 632.42,-130.14"/>
<polygon fill="#63b8ff" stroke="#63b8ff" points="633.09,-133.57 642.2,-128.15 631.7,-126.71 633.09,-133.57"/>
</a>
</g>
</g>
<!-- Node2&#45;&gt;Node3 -->
<g id="edge2_Node000002_Node000003" class="edge">
<title>Node2&#45;&gt;Node3</title>
<g id="a_edge2_Node000002_Node000003"><a xlink:title=" ">
<path fill="none" stroke="#63b8ff" d="M138.48,-110.33C140.35,-103.67 143.01,-94.24 145.39,-85.78"/>
<polygon fill="#63b8ff" stroke="#63b8ff" points="148.72,-86.89 148.06,-76.32 141.98,-84.99 148.72,-86.89"/>
</a>
</g>
</g>
<!-- Node4 -->
<g id="Node000004" class="node">
<title>Node4</title>
<g id="a_Node000004"><a xlink:title=" ">
<polygon fill="#e0e0e0" stroke="#999999" points="124,-19.25 0,-19.25 0,0 124,0 124,-19.25"/>
<text text-anchor="middle" x="62" y="-5.75" font-family="ui-monospace,monospace" font-size="10.00">boost/qvm_lite.hpp</text>
</a>
</g>
</g>
<!-- Node3&#45;&gt;Node4 -->
<g id="edge3_Node000003_Node000004" class="edge">
<title>Node3&#45;&gt;Node4</title>
<g id="a_edge3_Node000003_Node000004"><a xlink:title=" ">
<path fill="none" stroke="#63b8ff" d="M135.9,-54.84C122.48,-46.81 102.59,-34.91 86.83,-25.48"/>
<polygon fill="#63b8ff" stroke="#63b8ff" points="88.85,-22.61 78.47,-20.48 85.25,-28.62 88.85,-22.61"/>
</a>
</g>
</g>
<!-- Node5 -->
<g id="Node000005" class="node">
<title>Node5</title>
<g id="a_Node000005"><a target="_parent" xlink:href="http://en.cppreference.com/w/cpp/header/iosfwd.html" xlink:title=" ">
<polygon fill="white" stroke="#666666" points="194,-19.25 142,-19.25 142,0 194,0 194,-19.25"/>
<text text-anchor="middle" x="168" y="-5.75" font-family="ui-monospace,monospace" font-size="10.00">iosfwd</text>
</a>
</g>
</g>
<!-- Node3&#45;&gt;Node5 -->
<g id="edge4_Node000003_Node000005" class="edge">
<title>Node3&#45;&gt;Node5</title>
<g id="a_edge4_Node000003_Node000005"><a xlink:title=" ">
<path fill="none" stroke="#63b8ff" d="M153.81,-55.08C155.94,-48.42 158.94,-38.99 161.64,-30.53"/>
<polygon fill="#63b8ff" stroke="#63b8ff" points="164.96,-31.64 164.67,-21.05 158.3,-29.51 164.96,-31.64"/>
</a>
</g>
</g>
<!-- Node7 -->
<g id="Node000007" class="node">
<title>Node7</title>
<g id="a_Node000007"><a target="_parent" xlink:href="http://en.cppreference.com/w/cpp/header/cstdint.html" xlink:title=" ">
<polygon fill="white" stroke="#666666" points="301,-19.25 243,-19.25 243,0 301,0 301,-19.25"/>
<text text-anchor="middle" x="272" y="-5.75" font-family="ui-monospace,monospace" font-size="10.00">cstdint</text>
</a>
</g>
</g>
<!-- Node6&#45;&gt;Node7 -->
<g id="edge6_Node000006_Node000007" class="edge">
<title>Node6&#45;&gt;Node7</title>
<g id="a_edge6_Node000006_Node000007"><a xlink:title=" ">
<path fill="none" stroke="#63b8ff" d="M251.13,-55.08C254.33,-48.26 258.89,-38.56 262.93,-29.95"/>
<polygon fill="#63b8ff" stroke="#63b8ff" points="266.06,-31.52 267.14,-20.98 259.72,-28.54 266.06,-31.52"/>
</a>
</g>
</g>
<!-- Node8&#45;&gt;Node6 -->
<g id="edge8_Node000008_Node000006" class="edge">
<title>Node8&#45;&gt;Node6</title>
<g id="a_edge8_Node000008_Node000006"><a xlink:title=" ">
<path fill="none" stroke="#63b8ff" d="M295.99,-110.09C287.63,-102.55 275.5,-91.6 265.4,-82.48"/>
<polygon fill="#63b8ff" stroke="#63b8ff" points="267.75,-79.89 257.98,-75.79 263.06,-85.09 267.75,-79.89"/>
</a>
</g>
</g>
<!-- Node8&#45;&gt;Node7 -->
<g id="edge9_Node000008_Node000007" class="edge">
<title>Node8&#45;&gt;Node7</title>
<g id="a_edge9_Node000008_Node000007"><a xlink:title=" ">
<path fill="none" stroke="#63b8ff" d="M303.22,-110.25C297.79,-92.92 285.66,-54.23 278.22,-30.49"/>
<polygon fill="#63b8ff" stroke="#63b8ff" points="281.6,-29.57 275.27,-21.07 274.92,-31.66 281.6,-29.57"/>
</a>
</g>
</g>
<!-- Node10 -->
<g id="Node000010" class="node">
<title>Node10</title>
<g id="a_Node000010"><a xlink:href="Finally_8hpp.html" target="_top" xlink:title="Contains jngl::Finally class.">
<polygon fill="white" stroke="#666666" points="414,-74.5 332,-74.5 332,-55.25 414,-55.25 414,-74.5"/>
<text text-anchor="middle" x="373" y="-61" font-family="ui-monospace,monospace" font-size="10.00">Finally.hpp</text>
</a>
</g>
</g>
<!-- Node9&#45;&gt;Node10 -->
<g id="edge11_Node000009_Node000010" class="edge">
<title>Node9&#45;&gt;Node10</title>
<g id="a_edge11_Node000009_Node000010"><a xlink:title=" ">
<path fill="none" stroke="#63b8ff" d="M408.06,-110.33C402.38,-103.13 394.16,-92.71 387.11,-83.76"/>
<polygon fill="#63b8ff" stroke="#63b8ff" points="389.96,-81.73 381.02,-76.05 384.47,-86.07 389.96,-81.73"/>
</a>
</g>
</g>
<!-- Node12 -->
<g id="Node000012" class="node">
<title>Node12</title>
<g id="a_Node000012"><a target="_parent" xlink:href="http://en.cppreference.com/w/cpp/header/memory.html" xlink:title=" ">
<polygon fill="white" stroke="#666666" points="484,-74.5 432,-74.5 432,-55.25 484,-55.25 484,-74.5"/>
<text text-anchor="middle" x="458" y="-61" font-family="ui-monospace,monospace" font-size="10.00">memory</text>
</a>
</g>
</g>
<!-- Node9&#45;&gt;Node12 -->
<g id="edge13_Node000009_Node000012" class="edge">
<title>Node9&#45;&gt;Node12</title>
<g id="a_edge13_Node000009_Node000012"><a xlink:title=" ">
<path fill="none" stroke="#63b8ff" d="M422.1,-110.33C427.92,-103.13 436.33,-92.71 443.56,-83.76"/>
<polygon fill="#63b8ff" stroke="#63b8ff" points="446.23,-86.02 449.79,-76.04 440.79,-81.62 446.23,-86.02"/>
</a>
</g>
</g>
<!-- Node13 -->
<g id="Node000013" class="node">
<title>Node13</title>
<g id="a_Node000013"><a target="_parent" xlink:href="http://en.cppreference.com/w/cpp/header/string.html" xlink:title=" ">
<polygon fill="white" stroke="#666666" points="554,-74.5 502,-74.5 502,-55.25 554,-55.25 554,-74.5"/>
<text text-anchor="middle" x="528" y="-61" font-family="ui-monospace,monospace" font-size="10.00">string</text>
</a>
</g>
</g>
<!-- Node9&#45;&gt;Node13 -->
<g id="edge14_Node000009_Node000013" class="edge">
<title>Node9&#45;&gt;Node13</title>
<g id="a_edge14_Node000009_Node000013"><a xlink:title=" ">
<path fill="none" stroke="#63b8ff" d="M434.17,-110.09C451.78,-101.79 478.16,-89.36 498.46,-79.79"/>
<polygon fill="#63b8ff" stroke="#63b8ff" points="499.81,-83.03 507.37,-75.6 496.83,-76.69 499.81,-83.03"/>
</a>
</g>
</g>
<!-- Node11 -->
<g id="Node000011" class="node">
<title>Node11</title>
<g id="a_Node000011"><a target="_parent" xlink:href="http://en.cppreference.com/w/cpp/header/functional.html" xlink:title=" ">
<polygon fill="white" stroke="#666666" points="411,-19.25 335,-19.25 335,0 411,0 411,-19.25"/>
<text text-anchor="middle" x="373" y="-5.75" font-family="ui-monospace,monospace" font-size="10.00">functional</text>
</a>
</g>
</g>
<!-- Node10&#45;&gt;Node11 -->
<g id="edge12_Node000010_Node000011" class="edge">
<title>Node10&#45;&gt;Node11</title>
<g id="a_edge12_Node000010_Node000011"><a xlink:title=" ">
<path fill="none" stroke="#63b8ff" d="M373,-55.08C373,-48.57 373,-39.42 373,-31.12"/>
<polygon fill="#63b8ff" stroke="#63b8ff" points="376.5,-31.12 373,-21.12 369.5,-31.12 376.5,-31.12"/>
</a>
</g>
</g>
</g>
</svg>
