<?xml version="1.0" encoding="UTF-8" standalone="no"?>
<!DOCTYPE svg PUBLIC "-//W3C//DTD SVG 1.1//EN"
 "http://www.w3.org/Graphics/SVG/1.1/DTD/svg11.dtd">
<!-- Generated by graphviz version 2.43.0 (0)
 -->
<!-- Title: jngl/sprite.hpp Pages: 1 -->
<svg width="458pt" height="196pt"
 viewBox="0.00 0.00 458.00 196.00" xmlns="http://www.w3.org/2000/svg" xmlns:xlink="http://www.w3.org/1999/xlink">
<g id="graph0" class="graph" transform="scale(1 1) rotate(0) translate(4 192)">
<title>jngl/sprite.hpp</title>
<polygon fill="white" stroke="transparent" points="-4,4 -4,-192 454,-192 454,4 -4,4"/>
<!-- Node1 -->
<g id="node1" class="node">
<title>Node1</title>
<g id="a_node1"><a xlink:title="Contains jngl::Sprite class and related functions.">
<polygon fill="#bfbfbf" stroke="black" points="178,-168.5 178,-187.5 285,-187.5 285,-168.5 178,-168.5"/>
<text text-anchor="middle" x="231.5" y="-175.5" font-family="'Consolas',monospace" font-size="10.00">jngl/sprite.hpp</text>
</a>
</g>
</g>
<!-- Node2 -->
<g id="node2" class="node">
<title>Node2</title>
<g id="a_node2"><a xlink:href="Color_8hpp.html" target="_top" xlink:title="Contains jngl::Color class.">
<polygon fill="white" stroke="black" points="25,-112.5 25,-131.5 96,-131.5 96,-112.5 25,-112.5"/>
<text text-anchor="middle" x="60.5" y="-119.5" font-family="'Consolas',monospace" font-size="10.00">Color.hpp</text>
</a>
</g>
</g>
<!-- Node1&#45;&gt;Node2 -->
<g id="edge1" class="edge">
<title>Node1&#45;&gt;Node2</title>
<path fill="none" stroke="midnightblue" d="M204.4,-168.44C175.51,-159.32 129.58,-144.81 97.39,-134.65"/>
<polygon fill="midnightblue" stroke="midnightblue" points="98.06,-131.19 87.47,-131.52 95.95,-137.87 98.06,-131.19"/>
</g>
<!-- Node3 -->
<g id="node3" class="node">
<title>Node3</title>
<g id="a_node3"><a xlink:href="Drawable_8hpp.html" target="_top" xlink:title="Contains jngl::Drawable class.">
<polygon fill="white" stroke="black" points="114,-112.5 114,-131.5 203,-131.5 203,-112.5 114,-112.5"/>
<text text-anchor="middle" x="158.5" y="-119.5" font-family="'Consolas',monospace" font-size="10.00">Drawable.hpp</text>
</a>
</g>
</g>
<!-- Node1&#45;&gt;Node3 -->
<g id="edge2" class="edge">
<title>Node1&#45;&gt;Node3</title>
<path fill="none" stroke="midnightblue" d="M219.77,-168.32C208.66,-160.11 191.76,-147.6 178.52,-137.81"/>
<polygon fill="midnightblue" stroke="midnightblue" points="180.56,-134.97 170.44,-131.83 176.4,-140.59 180.56,-134.97"/>
</g>
<!-- Node4 -->
<g id="node4" class="node">
<title>Node4</title>
<g id="a_node4"><a xlink:href="Vec2_8hpp.html" target="_top" xlink:title="Contains jngl::Vec2 class.">
<polygon fill="white" stroke="black" points="126,-56.5 126,-75.5 191,-75.5 191,-56.5 126,-56.5"/>
<text text-anchor="middle" x="158.5" y="-63.5" font-family="'Consolas',monospace" font-size="10.00">Vec2.hpp</text>
</a>
</g>
</g>
<!-- Node1&#45;&gt;Node4 -->
<g id="edge11" class="edge">
<title>Node1&#45;&gt;Node4</title>
<path fill="none" stroke="midnightblue" d="M230.42,-168.34C228.44,-155.23 223.32,-129.94 211.5,-112 203.61,-100.03 191.64,-89.48 181.07,-81.61"/>
<polygon fill="midnightblue" stroke="midnightblue" points="182.82,-78.57 172.64,-75.66 178.79,-84.29 182.82,-78.57"/>
</g>
<!-- Node7 -->
<g id="node7" class="node">
<title>Node7</title>
<g id="a_node7"><a xlink:href="ShaderProgram_8hpp.html" target="_top" xlink:title="Contains jngl::ShaderProgram class.">
<polygon fill="white" stroke="black" points="260,-112.5 260,-131.5 379,-131.5 379,-112.5 260,-112.5"/>
<text text-anchor="middle" x="319.5" y="-119.5" font-family="'Consolas',monospace" font-size="10.00">ShaderProgram.hpp</text>
</a>
</g>
</g>
<!-- Node1&#45;&gt;Node7 -->
<g id="edge6" class="edge">
<title>Node1&#45;&gt;Node7</title>
<path fill="none" stroke="midnightblue" d="M245.64,-168.32C259.37,-159.9 280.44,-146.97 296.56,-137.07"/>
<polygon fill="midnightblue" stroke="midnightblue" points="298.7,-139.87 305.4,-131.65 295.04,-133.9 298.7,-139.87"/>
</g>
<!-- Node12 -->
<g id="node12" class="node">
<title>Node12</title>
<g id="a_node12"><a target="_parent" xlink:href="http://en.cppreference.com/w/cpp/header/vector.html" xlink:title=" ">
<polygon fill="white" stroke="black" points="397,-112.5 397,-131.5 450,-131.5 450,-112.5 397,-112.5"/>
<text text-anchor="middle" x="423.5" y="-119.5" font-family="'Consolas',monospace" font-size="10.00">vector</text>
</a>
</g>
</g>
<!-- Node1&#45;&gt;Node12 -->
<g id="edge12" class="edge">
<title>Node1&#45;&gt;Node12</title>
<path fill="none" stroke="midnightblue" d="M261.92,-168.44C295.94,-158.87 351.01,-143.39 387.24,-133.2"/>
<polygon fill="midnightblue" stroke="midnightblue" points="388.25,-136.55 396.93,-130.47 386.36,-129.81 388.25,-136.55"/>
</g>
<!-- Node3&#45;&gt;Node4 -->
<g id="edge3" class="edge">
<title>Node3&#45;&gt;Node4</title>
<path fill="none" stroke="midnightblue" d="M158.5,-112.08C158.5,-105.01 158.5,-94.86 158.5,-85.99"/>
<polygon fill="midnightblue" stroke="midnightblue" points="162,-85.75 158.5,-75.75 155,-85.75 162,-85.75"/>
</g>
<!-- Node5 -->
<g id="node5" class="node">
<title>Node5</title>
<g id="a_node5"><a xlink:title=" ">
<polygon fill="white" stroke="#bfbfbf" points="0,-0.5 0,-19.5 119,-19.5 119,-0.5 0,-0.5"/>
<text text-anchor="middle" x="59.5" y="-7.5" font-family="'Consolas',monospace" font-size="10.00">boost/version.hpp</text>
</a>
</g>
</g>
<!-- Node4&#45;&gt;Node5 -->
<g id="edge4" class="edge">
<title>Node4&#45;&gt;Node5</title>
<path fill="none" stroke="midnightblue" d="M142.59,-56.32C126.86,-47.74 102.56,-34.49 84.29,-24.52"/>
<polygon fill="midnightblue" stroke="midnightblue" points="85.82,-21.37 75.37,-19.65 82.47,-27.52 85.82,-21.37"/>
</g>
<!-- Node6 -->
<g id="node6" class="node">
<title>Node6</title>
<g id="a_node6"><a target="_parent" xlink:href="http://en.cppreference.com/w/cpp/header/iosfwd.html" xlink:title=" ">
<polygon fill="white" stroke="black" points="137,-0.5 137,-19.5 190,-19.5 190,-0.5 137,-0.5"/>
<text text-anchor="middle" x="163.5" y="-7.5" font-family="'Consolas',monospace" font-size="10.00">iosfwd</text>
</a>
</g>
</g>
<!-- Node4&#45;&gt;Node6 -->
<g id="edge5" class="edge">
<title>Node4&#45;&gt;Node6</title>
<path fill="none" stroke="midnightblue" d="M159.33,-56.08C159.98,-49.01 160.92,-38.86 161.74,-29.99"/>
<polygon fill="midnightblue" stroke="midnightblue" points="165.25,-30.03 162.69,-19.75 158.28,-29.39 165.25,-30.03"/>
</g>
<!-- Node8 -->
<g id="node8" class="node">
<title>Node8</title>
<g id="a_node8"><a xlink:href="Finally_8hpp.html" target="_top" xlink:title="Contains jngl::Finally class.">
<polygon fill="white" stroke="black" points="209,-56.5 209,-75.5 292,-75.5 292,-56.5 209,-56.5"/>
<text text-anchor="middle" x="250.5" y="-63.5" font-family="'Consolas',monospace" font-size="10.00">Finally.hpp</text>
</a>
</g>
</g>
<!-- Node7&#45;&gt;Node8 -->
<g id="edge7" class="edge">
<title>Node7&#45;&gt;Node8</title>
<path fill="none" stroke="midnightblue" d="M308.41,-112.32C298.01,-104.18 282.24,-91.84 269.78,-82.09"/>
<polygon fill="midnightblue" stroke="midnightblue" points="271.82,-79.24 261.79,-75.83 267.51,-84.75 271.82,-79.24"/>
</g>
<!-- Node10 -->
<g id="node10" class="node">
<title>Node10</title>
<g id="a_node10"><a target="_parent" xlink:href="http://en.cppreference.com/w/cpp/header/memory.html" xlink:title=" ">
<polygon fill="white" stroke="black" points="310,-56.5 310,-75.5 363,-75.5 363,-56.5 310,-56.5"/>
<text text-anchor="middle" x="336.5" y="-63.5" font-family="'Consolas',monospace" font-size="10.00">memory</text>
</a>
</g>
</g>
<!-- Node7&#45;&gt;Node10 -->
<g id="edge9" class="edge">
<title>Node7&#45;&gt;Node10</title>
<path fill="none" stroke="midnightblue" d="M322.31,-112.08C324.58,-104.85 327.87,-94.41 330.71,-85.4"/>
<polygon fill="midnightblue" stroke="midnightblue" points="334.08,-86.34 333.75,-75.75 327.4,-84.24 334.08,-86.34"/>
</g>
<!-- Node11 -->
<g id="node11" class="node">
<title>Node11</title>
<g id="a_node11"><a target="_parent" xlink:href="http://en.cppreference.com/w/cpp/header/string.html" xlink:title=" ">
<polygon fill="white" stroke="black" points="381,-56.5 381,-75.5 434,-75.5 434,-56.5 381,-56.5"/>
<text text-anchor="middle" x="407.5" y="-63.5" font-family="'Consolas',monospace" font-size="10.00">string</text>
</a>
</g>
</g>
<!-- Node7&#45;&gt;Node11 -->
<g id="edge10" class="edge">
<title>Node7&#45;&gt;Node11</title>
<path fill="none" stroke="midnightblue" d="M333.64,-112.32C347.37,-103.9 368.44,-90.97 384.56,-81.07"/>
<polygon fill="midnightblue" stroke="midnightblue" points="386.7,-83.87 393.4,-75.65 383.04,-77.9 386.7,-83.87"/>
</g>
<!-- Node9 -->
<g id="node9" class="node">
<title>Node9</title>
<g id="a_node9"><a target="_parent" xlink:href="http://en.cppreference.com/w/cpp/header/functional.html" xlink:title=" ">
<polygon fill="white" stroke="black" points="212,-0.5 212,-19.5 289,-19.5 289,-0.5 212,-0.5"/>
<text text-anchor="middle" x="250.5" y="-7.5" font-family="'Consolas',monospace" font-size="10.00">functional</text>
</a>
</g>
</g>
<!-- Node8&#45;&gt;Node9 -->
<g id="edge8" class="edge">
<title>Node8&#45;&gt;Node9</title>
<path fill="none" stroke="midnightblue" d="M250.5,-56.08C250.5,-49.01 250.5,-38.86 250.5,-29.99"/>
<polygon fill="midnightblue" stroke="midnightblue" points="254,-29.75 250.5,-19.75 247,-29.75 254,-29.75"/>
</g>
</g>
</svg>
