<?xml version="1.0" encoding="UTF-8" standalone="no"?>
<!DOCTYPE svg PUBLIC "-//W3C//DTD SVG 1.1//EN"
 "http://www.w3.org/Graphics/SVG/1.1/DTD/svg11.dtd">
<!-- Generated by graphviz version 2.42.4 (0)
 -->
<!-- Title: jngl/sprite.hpp Pages: 1 -->
<svg width="458pt" height="196pt"
 viewBox="0.00 0.00 458.00 196.00" xmlns="http://www.w3.org/2000/svg" xmlns:xlink="http://www.w3.org/1999/xlink">
<g id="graph0" class="graph" transform="scale(1 1) rotate(0) translate(4 192)">
<title>jngl/sprite.hpp</title>
<polygon fill="white" stroke="transparent" points="-4,4 -4,-192 454,-192 454,4 -4,4"/>
<!-- Node1 -->
<g id="node1" class="node">
<title>Node1</title>
<g id="a_node1"><a xlink:title="Contains jngl::Sprite class and related functions.">
<polygon fill="#bfbfbf" stroke="black" points="222,-168.5 222,-187.5 329,-187.5 329,-168.5 222,-168.5"/>
<text text-anchor="middle" x="275.5" y="-175.5" font-family="'Consolas',monospace" font-size="10.00">jngl/sprite.hpp</text>
</a>
</g>
</g>
<!-- Node2 -->
<g id="node2" class="node">
<title>Node2</title>
<g id="a_node2"><a xlink:href="Drawable_8hpp.html" target="_top" xlink:title="Contains jngl::Drawable class.">
<polygon fill="white" stroke="black" points="114,-112.5 114,-131.5 203,-131.5 203,-112.5 114,-112.5"/>
<text text-anchor="middle" x="158.5" y="-119.5" font-family="'Consolas',monospace" font-size="10.00">Drawable.hpp</text>
</a>
</g>
</g>
<!-- Node1&#45;&gt;Node2 -->
<g id="edge1" class="edge">
<title>Node1&#45;&gt;Node2</title>
<path fill="none" stroke="midnightblue" d="M256.96,-168.44C237.88,-159.64 207.93,-145.81 186.06,-135.72"/>
<polygon fill="midnightblue" stroke="midnightblue" points="187.5,-132.53 176.95,-131.52 184.57,-138.88 187.5,-132.53"/>
</g>
<!-- Node3 -->
<g id="node3" class="node">
<title>Node3</title>
<g id="a_node3"><a xlink:href="Vec2_8hpp.html" target="_top" xlink:title="Contains jngl::Vec2 class.">
<polygon fill="white" stroke="black" points="126,-56.5 126,-75.5 191,-75.5 191,-56.5 126,-56.5"/>
<text text-anchor="middle" x="158.5" y="-63.5" font-family="'Consolas',monospace" font-size="10.00">Vec2.hpp</text>
</a>
</g>
</g>
<!-- Node1&#45;&gt;Node3 -->
<g id="edge10" class="edge">
<title>Node1&#45;&gt;Node3</title>
<path fill="none" stroke="midnightblue" d="M267.45,-168.34C255.54,-155.65 232.39,-131.4 211.5,-112 200.45,-101.73 187.55,-90.76 177.25,-82.22"/>
<polygon fill="midnightblue" stroke="midnightblue" points="179.25,-79.34 169.3,-75.69 174.8,-84.75 179.25,-79.34"/>
</g>
<!-- Node6 -->
<g id="node6" class="node">
<title>Node6</title>
<g id="a_node6"><a xlink:href="ShaderProgram_8hpp.html" target="_top" xlink:title="Contains jngl::ShaderProgram class.">
<polygon fill="white" stroke="black" points="260,-112.5 260,-131.5 379,-131.5 379,-112.5 260,-112.5"/>
<text text-anchor="middle" x="319.5" y="-119.5" font-family="'Consolas',monospace" font-size="10.00">ShaderProgram.hpp</text>
</a>
</g>
</g>
<!-- Node1&#45;&gt;Node6 -->
<g id="edge5" class="edge">
<title>Node1&#45;&gt;Node6</title>
<path fill="none" stroke="midnightblue" d="M282.77,-168.08C289.04,-160.38 298.29,-149.03 305.93,-139.65"/>
<polygon fill="midnightblue" stroke="midnightblue" points="308.77,-141.71 312.37,-131.75 303.34,-137.29 308.77,-141.71"/>
</g>
<!-- Node11 -->
<g id="node11" class="node">
<title>Node11</title>
<g id="a_node11"><a target="_parent" xlink:href="http://en.cppreference.com/w/cpp/header/vector.html" target="_top" xlink:title=" ">
<polygon fill="white" stroke="black" points="397,-112.5 397,-131.5 450,-131.5 450,-112.5 397,-112.5"/>
<text text-anchor="middle" x="423.5" y="-119.5" font-family="'Consolas',monospace" font-size="10.00">vector</text>
</a>
</g>
</g>
<!-- Node1&#45;&gt;Node11 -->
<g id="edge11" class="edge">
<title>Node1&#45;&gt;Node11</title>
<path fill="none" stroke="midnightblue" d="M298.95,-168.44C323.63,-159.44 362.69,-145.19 390.48,-135.05"/>
<polygon fill="midnightblue" stroke="midnightblue" points="391.96,-138.23 400.16,-131.52 389.56,-131.66 391.96,-138.23"/>
</g>
<!-- Node2&#45;&gt;Node3 -->
<g id="edge2" class="edge">
<title>Node2&#45;&gt;Node3</title>
<path fill="none" stroke="midnightblue" d="M158.5,-112.08C158.5,-105.01 158.5,-94.86 158.5,-85.99"/>
<polygon fill="midnightblue" stroke="midnightblue" points="162,-85.75 158.5,-75.75 155,-85.75 162,-85.75"/>
</g>
<!-- Node4 -->
<g id="node4" class="node">
<title>Node4</title>
<g id="a_node4"><a xlink:title=" ">
<polygon fill="white" stroke="#bfbfbf" points="0,-0.5 0,-19.5 119,-19.5 119,-0.5 0,-0.5"/>
<text text-anchor="middle" x="59.5" y="-7.5" font-family="'Consolas',monospace" font-size="10.00">boost/version.hpp</text>
</a>
</g>
</g>
<!-- Node3&#45;&gt;Node4 -->
<g id="edge3" class="edge">
<title>Node3&#45;&gt;Node4</title>
<path fill="none" stroke="midnightblue" d="M142.59,-56.32C126.86,-47.74 102.56,-34.49 84.29,-24.52"/>
<polygon fill="midnightblue" stroke="midnightblue" points="85.82,-21.37 75.37,-19.65 82.47,-27.52 85.82,-21.37"/>
</g>
<!-- Node5 -->
<g id="node5" class="node">
<title>Node5</title>
<g id="a_node5"><a target="_parent" xlink:href="http://en.cppreference.com/w/cpp/header/iosfwd.html" target="_top" xlink:title=" ">
<polygon fill="white" stroke="black" points="137,-0.5 137,-19.5 190,-19.5 190,-0.5 137,-0.5"/>
<text text-anchor="middle" x="163.5" y="-7.5" font-family="'Consolas',monospace" font-size="10.00">iosfwd</text>
</a>
</g>
</g>
<!-- Node3&#45;&gt;Node5 -->
<g id="edge4" class="edge">
<title>Node3&#45;&gt;Node5</title>
<path fill="none" stroke="midnightblue" d="M159.33,-56.08C159.98,-49.01 160.92,-38.86 161.74,-29.99"/>
<polygon fill="midnightblue" stroke="midnightblue" points="165.25,-30.03 162.69,-19.75 158.28,-29.39 165.25,-30.03"/>
</g>
<!-- Node7 -->
<g id="node7" class="node">
<title>Node7</title>
<g id="a_node7"><a xlink:href="Finally_8hpp.html" target="_top" xlink:title=" ">
<polygon fill="white" stroke="black" points="209,-56.5 209,-75.5 292,-75.5 292,-56.5 209,-56.5"/>
<text text-anchor="middle" x="250.5" y="-63.5" font-family="'Consolas',monospace" font-size="10.00">Finally.hpp</text>
</a>
</g>
</g>
<!-- Node6&#45;&gt;Node7 -->
<g id="edge6" class="edge">
<title>Node6&#45;&gt;Node7</title>
<path fill="none" stroke="midnightblue" d="M308.41,-112.32C298.01,-104.18 282.24,-91.84 269.78,-82.09"/>
<polygon fill="midnightblue" stroke="midnightblue" points="271.82,-79.24 261.79,-75.83 267.51,-84.75 271.82,-79.24"/>
</g>
<!-- Node9 -->
<g id="node9" class="node">
<title>Node9</title>
<g id="a_node9"><a target="_parent" xlink:href="http://en.cppreference.com/w/cpp/header/memory.html" target="_top" xlink:title=" ">
<polygon fill="white" stroke="black" points="310,-56.5 310,-75.5 363,-75.5 363,-56.5 310,-56.5"/>
<text text-anchor="middle" x="336.5" y="-63.5" font-family="'Consolas',monospace" font-size="10.00">memory</text>
</a>
</g>
</g>
<!-- Node6&#45;&gt;Node9 -->
<g id="edge8" class="edge">
<title>Node6&#45;&gt;Node9</title>
<path fill="none" stroke="midnightblue" d="M322.31,-112.08C324.58,-104.85 327.87,-94.41 330.71,-85.4"/>
<polygon fill="midnightblue" stroke="midnightblue" points="334.08,-86.34 333.75,-75.75 327.4,-84.24 334.08,-86.34"/>
</g>
<!-- Node10 -->
<g id="node10" class="node">
<title>Node10</title>
<g id="a_node10"><a target="_parent" xlink:href="http://en.cppreference.com/w/cpp/header/string.html" target="_top" xlink:title=" ">
<polygon fill="white" stroke="black" points="381,-56.5 381,-75.5 434,-75.5 434,-56.5 381,-56.5"/>
<text text-anchor="middle" x="407.5" y="-63.5" font-family="'Consolas',monospace" font-size="10.00">string</text>
</a>
</g>
</g>
<!-- Node6&#45;&gt;Node10 -->
<g id="edge9" class="edge">
<title>Node6&#45;&gt;Node10</title>
<path fill="none" stroke="midnightblue" d="M333.64,-112.32C347.37,-103.9 368.44,-90.97 384.56,-81.07"/>
<polygon fill="midnightblue" stroke="midnightblue" points="386.7,-83.87 393.4,-75.65 383.04,-77.9 386.7,-83.87"/>
</g>
<!-- Node8 -->
<g id="node8" class="node">
<title>Node8</title>
<g id="a_node8"><a target="_parent" xlink:href="http://en.cppreference.com/w/cpp/header/functional.html" target="_top" xlink:title=" ">
<polygon fill="white" stroke="black" points="212,-0.5 212,-19.5 289,-19.5 289,-0.5 212,-0.5"/>
<text text-anchor="middle" x="250.5" y="-7.5" font-family="'Consolas',monospace" font-size="10.00">functional</text>
</a>
</g>
</g>
<!-- Node7&#45;&gt;Node8 -->
<g id="edge7" class="edge">
<title>Node7&#45;&gt;Node8</title>
<path fill="none" stroke="midnightblue" d="M250.5,-56.08C250.5,-49.01 250.5,-38.86 250.5,-29.99"/>
<polygon fill="midnightblue" stroke="midnightblue" points="254,-29.75 250.5,-19.75 247,-29.75 254,-29.75"/>
</g>
</g>
</svg>
