<?xml version="1.0" encoding="UTF-8" standalone="no"?>
<!DOCTYPE svg PUBLIC "-//W3C//DTD SVG 1.1//EN"
 "http://www.w3.org/Graphics/SVG/1.1/DTD/svg11.dtd">
<!-- Generated by graphviz version 5.0.0 (0)
 -->
<!-- Title: jngl/sprite.hpp Pages: 1 -->
<svg width="712pt" height="192pt"
 viewBox="0.00 0.00 712.00 192.00" xmlns="http://www.w3.org/2000/svg" xmlns:xlink="http://www.w3.org/1999/xlink">
<g id="graph0" class="graph" transform="scale(1 1) rotate(0) translate(4 188)">
<title>jngl/sprite.hpp</title>
<!-- Node1 -->
<g id="node1" class="node">
<title>Node1</title>
<g id="a_node1"><a xlink:title="Contains jngl::Sprite class and related functions.">
<polygon fill="#999999" stroke="#666666" points="418,-184 311,-184 311,-165 418,-165 418,-184"/>
<text text-anchor="middle" x="364.5" y="-172" font-family="ui-monospace,monospace" font-size="10.00">jngl/sprite.hpp</text>
</a>
</g>
</g>
<!-- Node2 -->
<g id="node2" class="node">
<title>Node2</title>
<g id="a_node2"><a xlink:href="Drawable_8hpp.html" target="_top" xlink:title="Contains jngl::Drawable class.">
<polygon fill="white" stroke="#666666" points="182,-129 93,-129 93,-110 182,-110 182,-129"/>
<text text-anchor="middle" x="137.5" y="-117" font-family="ui-monospace,monospace" font-size="10.00">Drawable.hpp</text>
</a>
</g>
</g>
<!-- Node1&#45;&gt;Node2 -->
<g id="edge1" class="edge">
<title>Node1&#45;&gt;Node2</title>
<path fill="none" stroke="#63b8ff" d="M328.03,-164.98C288.93,-155.86 226.73,-141.33 184.11,-131.38"/>
<polygon fill="#63b8ff" stroke="#63b8ff" points="184.79,-127.95 174.26,-129.08 183.2,-134.76 184.79,-127.95"/>
</g>
<!-- Node3 -->
<g id="node3" class="node">
<title>Node3</title>
<g id="a_node3"><a xlink:href="Vec2_8hpp.html" target="_top" xlink:title="Contains jngl::Vec2 class.">
<polygon fill="white" stroke="#666666" points="185,-74 120,-74 120,-55 185,-55 185,-74"/>
<text text-anchor="middle" x="152.5" y="-62" font-family="ui-monospace,monospace" font-size="10.00">Vec2.hpp</text>
</a>
</g>
</g>
<!-- Node1&#45;&gt;Node3 -->
<g id="edge15" class="edge">
<title>Node1&#45;&gt;Node3</title>
<path fill="none" stroke="#63b8ff" d="M339.25,-164.85C316.37,-156.67 281.99,-143.52 253.5,-129 224.37,-114.16 192.77,-93.48 172.82,-79.8"/>
<polygon fill="#63b8ff" stroke="#63b8ff" points="174.73,-76.87 164.52,-74.06 170.75,-82.63 174.73,-76.87"/>
</g>
<!-- Node6 -->
<g id="node6" class="node">
<title>Node6</title>
<g id="a_node6"><a xlink:href="Rgb_8hpp.html" target="_top" xlink:title="Contains jngl::Rgb class.">
<polygon fill="white" stroke="#666666" points="279,-74 220,-74 220,-55 279,-55 279,-74"/>
<text text-anchor="middle" x="249.5" y="-62" font-family="ui-monospace,monospace" font-size="10.00">Rgb.hpp</text>
</a>
</g>
</g>
<!-- Node1&#45;&gt;Node6 -->
<g id="edge5" class="edge">
<title>Node1&#45;&gt;Node6</title>
<path fill="none" stroke="#63b8ff" d="M328.05,-164.91C307.56,-158.31 283.05,-147.15 267.5,-129 256.9,-116.63 252.52,-98.41 250.72,-84.66"/>
<polygon fill="#63b8ff" stroke="#63b8ff" points="254.18,-84 249.74,-74.38 247.21,-84.67 254.18,-84"/>
</g>
<!-- Node8 -->
<g id="node8" class="node">
<title>Node8</title>
<g id="a_node8"><a xlink:href="Rgba_8hpp.html" target="_top" xlink:title="Contains jngl::Rgba class.">
<polygon fill="white" stroke="#666666" points="342,-129 277,-129 277,-110 342,-110 342,-129"/>
<text text-anchor="middle" x="309.5" y="-117" font-family="ui-monospace,monospace" font-size="10.00">Rgba.hpp</text>
</a>
</g>
</g>
<!-- Node1&#45;&gt;Node8 -->
<g id="edge7" class="edge">
<title>Node1&#45;&gt;Node8</title>
<path fill="none" stroke="#63b8ff" d="M355.42,-164.75C347.41,-157.03 335.54,-145.6 325.88,-136.28"/>
<polygon fill="#63b8ff" stroke="#63b8ff" points="328.04,-133.51 318.41,-129.09 323.19,-138.55 328.04,-133.51"/>
</g>
<!-- Node9 -->
<g id="node9" class="node">
<title>Node9</title>
<g id="a_node9"><a xlink:href="ShaderProgram_8hpp.html" target="_top" xlink:title="Contains jngl::ShaderProgram class.">
<polygon fill="white" stroke="#666666" points="479,-129 360,-129 360,-110 479,-110 479,-129"/>
<text text-anchor="middle" x="419.5" y="-117" font-family="ui-monospace,monospace" font-size="10.00">ShaderProgram.hpp</text>
</a>
</g>
</g>
<!-- Node1&#45;&gt;Node9 -->
<g id="edge10" class="edge">
<title>Node1&#45;&gt;Node9</title>
<path fill="none" stroke="#63b8ff" d="M373.58,-164.75C381.59,-157.03 393.46,-145.6 403.12,-136.28"/>
<polygon fill="#63b8ff" stroke="#63b8ff" points="405.81,-138.55 410.59,-129.09 400.96,-133.51 405.81,-138.55"/>
</g>
<!-- Node14 -->
<g id="node14" class="node">
<title>Node14</title>
<g id="a_node14"><a target="_parent" xlink:href="http://en.cppreference.com/w/cpp/header/future.html" xlink:title=" ">
<polygon fill="white" stroke="#666666" points="550,-129 497,-129 497,-110 550,-110 550,-129"/>
<text text-anchor="middle" x="523.5" y="-117" font-family="ui-monospace,monospace" font-size="10.00">future</text>
</a>
</g>
</g>
<!-- Node1&#45;&gt;Node14 -->
<g id="edge16" class="edge">
<title>Node1&#45;&gt;Node14</title>
<path fill="none" stroke="#63b8ff" d="M390.05,-164.98C416.62,-156.13 458.44,-142.19 488.17,-132.28"/>
<polygon fill="#63b8ff" stroke="#63b8ff" points="489.37,-135.56 497.75,-129.08 487.16,-128.92 489.37,-135.56"/>
</g>
<!-- Node15 -->
<g id="node15" class="node">
<title>Node15</title>
<g id="a_node15"><a target="_parent" xlink:href="http://en.cppreference.com/w/cpp/header/optional.html" xlink:title=" ">
<polygon fill="white" stroke="#666666" points="633,-129 568,-129 568,-110 633,-110 633,-129"/>
<text text-anchor="middle" x="600.5" y="-117" font-family="ui-monospace,monospace" font-size="10.00">optional</text>
</a>
</g>
</g>
<!-- Node1&#45;&gt;Node15 -->
<g id="edge17" class="edge">
<title>Node1&#45;&gt;Node15</title>
<path fill="none" stroke="#63b8ff" d="M402.42,-164.98C444.97,-155.43 513.82,-139.97 558.12,-130.02"/>
<polygon fill="#63b8ff" stroke="#63b8ff" points="559,-133.41 567.99,-127.8 557.47,-126.58 559,-133.41"/>
</g>
<!-- Node16 -->
<g id="node16" class="node">
<title>Node16</title>
<g id="a_node16"><a target="_parent" xlink:href="http://en.cppreference.com/w/cpp/header/vector.html" xlink:title=" ">
<polygon fill="white" stroke="#666666" points="704,-129 651,-129 651,-110 704,-110 704,-129"/>
<text text-anchor="middle" x="677.5" y="-117" font-family="ui-monospace,monospace" font-size="10.00">vector</text>
</a>
</g>
</g>
<!-- Node1&#45;&gt;Node16 -->
<g id="edge18" class="edge">
<title>Node1&#45;&gt;Node16</title>
<path fill="none" stroke="#63b8ff" d="M418.02,-166.22C472.03,-158.59 558.01,-145.65 640.96,-129.19"/>
<polygon fill="#63b8ff" stroke="#63b8ff" points="641.68,-132.61 650.8,-127.22 640.3,-125.75 641.68,-132.61"/>
</g>
<!-- Node2&#45;&gt;Node3 -->
<g id="edge2" class="edge">
<title>Node2&#45;&gt;Node3</title>
<path fill="none" stroke="#63b8ff" d="M139.98,-109.75C141.96,-102.72 144.82,-92.62 147.31,-83.84"/>
<polygon fill="#63b8ff" stroke="#63b8ff" points="150.71,-84.66 150.07,-74.09 143.98,-82.76 150.71,-84.66"/>
</g>
<!-- Node4 -->
<g id="node4" class="node">
<title>Node4</title>
<g id="a_node4"><a xlink:title=" ">
<polygon fill="#e0e0e0" stroke="#999999" points="125,-19 0,-19 0,0 125,0 125,-19"/>
<text text-anchor="middle" x="62.5" y="-7" font-family="ui-monospace,monospace" font-size="10.00">boost/qvm_lite.hpp</text>
</a>
</g>
</g>
<!-- Node3&#45;&gt;Node4 -->
<g id="edge3" class="edge">
<title>Node3&#45;&gt;Node4</title>
<path fill="none" stroke="#63b8ff" d="M138.04,-54.98C124.08,-46.77 102.71,-34.18 86.25,-24.49"/>
<polygon fill="#63b8ff" stroke="#63b8ff" points="87.62,-21.23 77.22,-19.17 84.06,-27.26 87.62,-21.23"/>
</g>
<!-- Node5 -->
<g id="node5" class="node">
<title>Node5</title>
<g id="a_node5"><a target="_parent" xlink:href="http://en.cppreference.com/w/cpp/header/iosfwd.html" xlink:title=" ">
<polygon fill="white" stroke="#666666" points="196,-19 143,-19 143,0 196,0 196,-19"/>
<text text-anchor="middle" x="169.5" y="-7" font-family="ui-monospace,monospace" font-size="10.00">iosfwd</text>
</a>
</g>
</g>
<!-- Node3&#45;&gt;Node5 -->
<g id="edge4" class="edge">
<title>Node3&#45;&gt;Node5</title>
<path fill="none" stroke="#63b8ff" d="M155.31,-54.75C157.56,-47.72 160.8,-37.62 163.62,-28.84"/>
<polygon fill="#63b8ff" stroke="#63b8ff" points="167.02,-29.68 166.75,-19.09 160.36,-27.54 167.02,-29.68"/>
</g>
<!-- Node7 -->
<g id="node7" class="node">
<title>Node7</title>
<g id="a_node7"><a target="_parent" xlink:href="http://en.cppreference.com/w/cpp/header/cstdint.html" xlink:title=" ">
<polygon fill="white" stroke="#666666" points="305,-19 246,-19 246,0 305,0 305,-19"/>
<text text-anchor="middle" x="275.5" y="-7" font-family="ui-monospace,monospace" font-size="10.00">cstdint</text>
</a>
</g>
</g>
<!-- Node6&#45;&gt;Node7 -->
<g id="edge6" class="edge">
<title>Node6&#45;&gt;Node7</title>
<path fill="none" stroke="#63b8ff" d="M253.79,-54.75C257.31,-47.57 262.41,-37.18 266.78,-28.27"/>
<polygon fill="#63b8ff" stroke="#63b8ff" points="270.02,-29.61 271.29,-19.09 263.74,-26.53 270.02,-29.61"/>
</g>
<!-- Node8&#45;&gt;Node6 -->
<g id="edge8" class="edge">
<title>Node8&#45;&gt;Node6</title>
<path fill="none" stroke="#63b8ff" d="M299.86,-109.98C290.99,-102.15 277.63,-90.34 266.89,-80.86"/>
<polygon fill="#63b8ff" stroke="#63b8ff" points="269.13,-78.17 259.32,-74.17 264.49,-83.41 269.13,-78.17"/>
</g>
<!-- Node8&#45;&gt;Node7 -->
<g id="edge9" class="edge">
<title>Node8&#45;&gt;Node7</title>
<path fill="none" stroke="#63b8ff" d="M306.72,-109.66C301.19,-92.09 288.71,-52.45 281.31,-28.95"/>
<polygon fill="#63b8ff" stroke="#63b8ff" points="284.57,-27.65 278.23,-19.16 277.89,-29.75 284.57,-27.65"/>
</g>
<!-- Node10 -->
<g id="node10" class="node">
<title>Node10</title>
<g id="a_node10"><a xlink:href="Finally_8hpp.html" target="_top" xlink:title="Contains jngl::Finally class.">
<polygon fill="white" stroke="#666666" points="419,-74 336,-74 336,-55 419,-55 419,-74"/>
<text text-anchor="middle" x="377.5" y="-62" font-family="ui-monospace,monospace" font-size="10.00">Finally.hpp</text>
</a>
</g>
</g>
<!-- Node9&#45;&gt;Node10 -->
<g id="edge11" class="edge">
<title>Node9&#45;&gt;Node10</title>
<path fill="none" stroke="#63b8ff" d="M412.56,-109.75C406.63,-102.26 397.93,-91.28 390.68,-82.13"/>
<polygon fill="#63b8ff" stroke="#63b8ff" points="393.26,-79.75 384.31,-74.09 387.77,-84.1 393.26,-79.75"/>
</g>
<!-- Node12 -->
<g id="node12" class="node">
<title>Node12</title>
<g id="a_node12"><a target="_parent" xlink:href="http://en.cppreference.com/w/cpp/header/memory.html" xlink:title=" ">
<polygon fill="white" stroke="#666666" points="490,-74 437,-74 437,-55 490,-55 490,-74"/>
<text text-anchor="middle" x="463.5" y="-62" font-family="ui-monospace,monospace" font-size="10.00">memory</text>
</a>
</g>
</g>
<!-- Node9&#45;&gt;Node12 -->
<g id="edge13" class="edge">
<title>Node9&#45;&gt;Node12</title>
<path fill="none" stroke="#63b8ff" d="M426.77,-109.75C433.04,-102.18 442.29,-91.05 449.93,-81.84"/>
<polygon fill="#63b8ff" stroke="#63b8ff" points="452.67,-84.02 456.37,-74.09 447.29,-79.55 452.67,-84.02"/>
</g>
<!-- Node13 -->
<g id="node13" class="node">
<title>Node13</title>
<g id="a_node13"><a target="_parent" xlink:href="http://en.cppreference.com/w/cpp/header/string.html" xlink:title=" ">
<polygon fill="white" stroke="#666666" points="561,-74 508,-74 508,-55 561,-55 561,-74"/>
<text text-anchor="middle" x="534.5" y="-62" font-family="ui-monospace,monospace" font-size="10.00">string</text>
</a>
</g>
</g>
<!-- Node9&#45;&gt;Node13 -->
<g id="edge14" class="edge">
<title>Node9&#45;&gt;Node13</title>
<path fill="none" stroke="#63b8ff" d="M437.98,-109.98C456.48,-101.46 485.18,-88.23 506.48,-78.41"/>
<polygon fill="#63b8ff" stroke="#63b8ff" points="508.07,-81.53 515.69,-74.17 505.14,-75.18 508.07,-81.53"/>
</g>
<!-- Node11 -->
<g id="node11" class="node">
<title>Node11</title>
<g id="a_node11"><a target="_parent" xlink:href="http://en.cppreference.com/w/cpp/header/functional.html" xlink:title=" ">
<polygon fill="white" stroke="#666666" points="416,-19 339,-19 339,0 416,0 416,-19"/>
<text text-anchor="middle" x="377.5" y="-7" font-family="ui-monospace,monospace" font-size="10.00">functional</text>
</a>
</g>
</g>
<!-- Node10&#45;&gt;Node11 -->
<g id="edge12" class="edge">
<title>Node10&#45;&gt;Node11</title>
<path fill="none" stroke="#63b8ff" d="M377.5,-54.75C377.5,-47.8 377.5,-37.85 377.5,-29.13"/>
<polygon fill="#63b8ff" stroke="#63b8ff" points="381,-29.09 377.5,-19.09 374,-29.09 381,-29.09"/>
</g>
</g>
</svg>
