<?xml version="1.0" encoding="UTF-8" standalone="no"?>
<!DOCTYPE svg PUBLIC "-//W3C//DTD SVG 1.1//EN"
 "http://www.w3.org/Graphics/SVG/1.1/DTD/svg11.dtd">
<!-- Generated by graphviz version 5.0.0 (0)
 -->
<!-- Title: jngl/sprite.hpp Pages: 1 -->
<svg width="541pt" height="192pt"
 viewBox="0.00 0.00 541.00 192.00" xmlns="http://www.w3.org/2000/svg" xmlns:xlink="http://www.w3.org/1999/xlink">
<g id="graph0" class="graph" transform="scale(1 1) rotate(0) translate(4 188)">
<title>jngl/sprite.hpp</title>
<!-- Node1 -->
<g id="node1" class="node">
<title>Node1</title>
<g id="a_node1"><a xlink:title="Contains jngl::Sprite class and related functions.">
<polygon fill="#999999" stroke="#666666" points="341,-184 234,-184 234,-165 341,-165 341,-184"/>
<text text-anchor="middle" x="287.5" y="-172" font-family="ui-monospace,monospace" font-size="10.00">jngl/sprite.hpp</text>
</a>
</g>
</g>
<!-- Node2 -->
<g id="node2" class="node">
<title>Node2</title>
<g id="a_node2"><a xlink:href="Color_8hpp.html" target="_top" xlink:title="Contains jngl::Color class.">
<polygon fill="white" stroke="#666666" points="105,-129 34,-129 34,-110 105,-110 105,-129"/>
<text text-anchor="middle" x="69.5" y="-117" font-family="ui-monospace,monospace" font-size="10.00">Color.hpp</text>
</a>
</g>
</g>
<!-- Node1&#45;&gt;Node2 -->
<g id="edge1" class="edge">
<title>Node1&#45;&gt;Node2</title>
<path fill="none" stroke="#63b8ff" d="M252.47,-164.98C215,-155.87 155.45,-141.4 114.52,-131.45"/>
<polygon fill="#63b8ff" stroke="#63b8ff" points="115.34,-128.04 104.8,-129.08 113.69,-134.85 115.34,-128.04"/>
</g>
<!-- Node5 -->
<g id="node5" class="node">
<title>Node5</title>
<g id="a_node5"><a xlink:href="Drawable_8hpp.html" target="_top" xlink:title="Contains jngl::Drawable class.">
<polygon fill="white" stroke="#666666" points="215,-129 126,-129 126,-110 215,-110 215,-129"/>
<text text-anchor="middle" x="170.5" y="-117" font-family="ui-monospace,monospace" font-size="10.00">Drawable.hpp</text>
</a>
</g>
</g>
<!-- Node1&#45;&gt;Node5 -->
<g id="edge4" class="edge">
<title>Node1&#45;&gt;Node5</title>
<path fill="none" stroke="#63b8ff" d="M268.7,-164.98C249.88,-156.46 220.68,-143.23 199,-133.41"/>
<polygon fill="#63b8ff" stroke="#63b8ff" points="200.19,-130.11 189.64,-129.17 197.3,-136.48 200.19,-130.11"/>
</g>
<!-- Node6 -->
<g id="node6" class="node">
<title>Node6</title>
<g id="a_node6"><a xlink:href="Vec2_8hpp.html" target="_top" xlink:title="Contains jngl::Vec2 class.">
<polygon fill="white" stroke="#666666" points="204,-74 139,-74 139,-55 204,-55 204,-74"/>
<text text-anchor="middle" x="171.5" y="-62" font-family="ui-monospace,monospace" font-size="10.00">Vec2.hpp</text>
</a>
</g>
</g>
<!-- Node1&#45;&gt;Node6 -->
<g id="edge13" class="edge">
<title>Node1&#45;&gt;Node6</title>
<path fill="none" stroke="#63b8ff" d="M279,-164.67C266.93,-152.21 243.99,-128.88 223.5,-110 212.58,-99.93 199.92,-89.09 189.83,-80.62"/>
<polygon fill="#63b8ff" stroke="#63b8ff" points="191.98,-77.86 182.06,-74.14 187.5,-83.23 191.98,-77.86"/>
</g>
<!-- Node9 -->
<g id="node9" class="node">
<title>Node9</title>
<g id="a_node9"><a xlink:href="ShaderProgram_8hpp.html" target="_top" xlink:title="Contains jngl::ShaderProgram class.">
<polygon fill="white" stroke="#666666" points="391,-129 272,-129 272,-110 391,-110 391,-129"/>
<text text-anchor="middle" x="331.5" y="-117" font-family="ui-monospace,monospace" font-size="10.00">ShaderProgram.hpp</text>
</a>
</g>
</g>
<!-- Node1&#45;&gt;Node9 -->
<g id="edge8" class="edge">
<title>Node1&#45;&gt;Node9</title>
<path fill="none" stroke="#63b8ff" d="M294.77,-164.75C301.04,-157.18 310.29,-146.05 317.93,-136.84"/>
<polygon fill="#63b8ff" stroke="#63b8ff" points="320.67,-139.02 324.37,-129.09 315.29,-134.55 320.67,-139.02"/>
</g>
<!-- Node14 -->
<g id="node14" class="node">
<title>Node14</title>
<g id="a_node14"><a target="_parent" xlink:href="http://en.cppreference.com/w/cpp/header/future.html" xlink:title=" ">
<polygon fill="white" stroke="#666666" points="462,-129 409,-129 409,-110 462,-110 462,-129"/>
<text text-anchor="middle" x="435.5" y="-117" font-family="ui-monospace,monospace" font-size="10.00">future</text>
</a>
</g>
</g>
<!-- Node1&#45;&gt;Node14 -->
<g id="edge14" class="edge">
<title>Node1&#45;&gt;Node14</title>
<path fill="none" stroke="#63b8ff" d="M311.28,-164.98C335.73,-156.23 374.03,-142.51 401.65,-132.62"/>
<polygon fill="#63b8ff" stroke="#63b8ff" points="403.05,-135.84 411.29,-129.17 400.69,-129.25 403.05,-135.84"/>
</g>
<!-- Node15 -->
<g id="node15" class="node">
<title>Node15</title>
<g id="a_node15"><a target="_parent" xlink:href="http://en.cppreference.com/w/cpp/header/vector.html" xlink:title=" ">
<polygon fill="white" stroke="#666666" points="533,-129 480,-129 480,-110 533,-110 533,-129"/>
<text text-anchor="middle" x="506.5" y="-117" font-family="ui-monospace,monospace" font-size="10.00">vector</text>
</a>
</g>
</g>
<!-- Node1&#45;&gt;Node15 -->
<g id="edge15" class="edge">
<title>Node1&#45;&gt;Node15</title>
<path fill="none" stroke="#63b8ff" d="M322.78,-164.98C357.79,-156.52 413.27,-143.11 469.91,-129.38"/>
<polygon fill="#63b8ff" stroke="#63b8ff" points="470.85,-132.76 479.75,-127 469.2,-125.95 470.85,-132.76"/>
</g>
<!-- Node3 -->
<g id="node3" class="node">
<title>Node3</title>
<g id="a_node3"><a xlink:href="Rgb_8hpp.html" target="_top" xlink:title="Contains jngl::Rgb class.">
<polygon fill="white" stroke="#666666" points="93,-74 34,-74 34,-55 93,-55 93,-74"/>
<text text-anchor="middle" x="63.5" y="-62" font-family="ui-monospace,monospace" font-size="10.00">Rgb.hpp</text>
</a>
</g>
</g>
<!-- Node2&#45;&gt;Node3 -->
<g id="edge2" class="edge">
<title>Node2&#45;&gt;Node3</title>
<path fill="none" stroke="#63b8ff" d="M68.51,-109.75C67.72,-102.8 66.6,-92.85 65.61,-84.13"/>
<polygon fill="#63b8ff" stroke="#63b8ff" points="69.08,-83.63 64.47,-74.09 62.12,-84.42 69.08,-83.63"/>
</g>
<!-- Node4 -->
<g id="node4" class="node">
<title>Node4</title>
<g id="a_node4"><a target="_parent" xlink:href="http://en.cppreference.com/w/cpp/header/cstdint.html" xlink:title=" ">
<polygon fill="white" stroke="#666666" points="59,-19 0,-19 0,0 59,0 59,-19"/>
<text text-anchor="middle" x="29.5" y="-7" font-family="ui-monospace,monospace" font-size="10.00">cstdint</text>
</a>
</g>
</g>
<!-- Node3&#45;&gt;Node4 -->
<g id="edge3" class="edge">
<title>Node3&#45;&gt;Node4</title>
<path fill="none" stroke="#63b8ff" d="M57.89,-54.75C53.18,-47.42 46.33,-36.73 40.53,-27.7"/>
<polygon fill="#63b8ff" stroke="#63b8ff" points="43.36,-25.62 35.01,-19.09 37.46,-29.4 43.36,-25.62"/>
</g>
<!-- Node5&#45;&gt;Node6 -->
<g id="edge5" class="edge">
<title>Node5&#45;&gt;Node6</title>
<path fill="none" stroke="#63b8ff" d="M170.67,-109.75C170.8,-102.8 170.98,-92.85 171.15,-84.13"/>
<polygon fill="#63b8ff" stroke="#63b8ff" points="174.65,-84.15 171.34,-74.09 167.65,-84.02 174.65,-84.15"/>
</g>
<!-- Node7 -->
<g id="node7" class="node">
<title>Node7</title>
<g id="a_node7"><a xlink:title=" ">
<polygon fill="#e0e0e0" stroke="#999999" points="202,-19 77,-19 77,0 202,0 202,-19"/>
<text text-anchor="middle" x="139.5" y="-7" font-family="ui-monospace,monospace" font-size="10.00">boost/qvm_lite.hpp</text>
</a>
</g>
</g>
<!-- Node6&#45;&gt;Node7 -->
<g id="edge6" class="edge">
<title>Node6&#45;&gt;Node7</title>
<path fill="none" stroke="#63b8ff" d="M166.22,-54.75C161.79,-47.42 155.34,-36.73 149.88,-27.7"/>
<polygon fill="#63b8ff" stroke="#63b8ff" points="152.85,-25.84 144.69,-19.09 146.86,-29.46 152.85,-25.84"/>
</g>
<!-- Node8 -->
<g id="node8" class="node">
<title>Node8</title>
<g id="a_node8"><a target="_parent" xlink:href="http://en.cppreference.com/w/cpp/header/iosfwd.html" xlink:title=" ">
<polygon fill="white" stroke="#666666" points="273,-19 220,-19 220,0 273,0 273,-19"/>
<text text-anchor="middle" x="246.5" y="-7" font-family="ui-monospace,monospace" font-size="10.00">iosfwd</text>
</a>
</g>
</g>
<!-- Node6&#45;&gt;Node8 -->
<g id="edge7" class="edge">
<title>Node6&#45;&gt;Node8</title>
<path fill="none" stroke="#63b8ff" d="M183.55,-54.98C194.96,-46.92 212.33,-34.65 225.93,-25.03"/>
<polygon fill="#63b8ff" stroke="#63b8ff" points="228.08,-27.8 234.23,-19.17 224.04,-22.08 228.08,-27.8"/>
</g>
<!-- Node10 -->
<g id="node10" class="node">
<title>Node10</title>
<g id="a_node10"><a xlink:href="Finally_8hpp.html" target="_top" xlink:title="Contains jngl::Finally class.">
<polygon fill="white" stroke="#666666" points="339,-74 256,-74 256,-55 339,-55 339,-74"/>
<text text-anchor="middle" x="297.5" y="-62" font-family="ui-monospace,monospace" font-size="10.00">Finally.hpp</text>
</a>
</g>
</g>
<!-- Node9&#45;&gt;Node10 -->
<g id="edge9" class="edge">
<title>Node9&#45;&gt;Node10</title>
<path fill="none" stroke="#63b8ff" d="M325.89,-109.75C321.18,-102.42 314.33,-91.73 308.53,-82.7"/>
<polygon fill="#63b8ff" stroke="#63b8ff" points="311.36,-80.62 303.01,-74.09 305.46,-84.4 311.36,-80.62"/>
</g>
<!-- Node12 -->
<g id="node12" class="node">
<title>Node12</title>
<g id="a_node12"><a target="_parent" xlink:href="http://en.cppreference.com/w/cpp/header/memory.html" xlink:title=" ">
<polygon fill="white" stroke="#666666" points="410,-74 357,-74 357,-55 410,-55 410,-74"/>
<text text-anchor="middle" x="383.5" y="-62" font-family="ui-monospace,monospace" font-size="10.00">memory</text>
</a>
</g>
</g>
<!-- Node9&#45;&gt;Node12 -->
<g id="edge11" class="edge">
<title>Node9&#45;&gt;Node12</title>
<path fill="none" stroke="#63b8ff" d="M340.09,-109.75C347.66,-102.03 358.88,-90.6 368.01,-81.28"/>
<polygon fill="#63b8ff" stroke="#63b8ff" points="370.57,-83.68 375.07,-74.09 365.57,-78.78 370.57,-83.68"/>
</g>
<!-- Node13 -->
<g id="node13" class="node">
<title>Node13</title>
<g id="a_node13"><a target="_parent" xlink:href="http://en.cppreference.com/w/cpp/header/string.html" xlink:title=" ">
<polygon fill="white" stroke="#666666" points="481,-74 428,-74 428,-55 481,-55 481,-74"/>
<text text-anchor="middle" x="454.5" y="-62" font-family="ui-monospace,monospace" font-size="10.00">string</text>
</a>
</g>
</g>
<!-- Node9&#45;&gt;Node13 -->
<g id="edge12" class="edge">
<title>Node9&#45;&gt;Node13</title>
<path fill="none" stroke="#63b8ff" d="M351.26,-109.98C371.23,-101.38 402.3,-87.99 425.15,-78.15"/>
<polygon fill="#63b8ff" stroke="#63b8ff" points="426.58,-81.34 434.38,-74.17 423.81,-74.91 426.58,-81.34"/>
</g>
<!-- Node11 -->
<g id="node11" class="node">
<title>Node11</title>
<g id="a_node11"><a target="_parent" xlink:href="http://en.cppreference.com/w/cpp/header/functional.html" xlink:title=" ">
<polygon fill="white" stroke="#666666" points="368,-19 291,-19 291,0 368,0 368,-19"/>
<text text-anchor="middle" x="329.5" y="-7" font-family="ui-monospace,monospace" font-size="10.00">functional</text>
</a>
</g>
</g>
<!-- Node10&#45;&gt;Node11 -->
<g id="edge10" class="edge">
<title>Node10&#45;&gt;Node11</title>
<path fill="none" stroke="#63b8ff" d="M302.78,-54.75C307.21,-47.42 313.66,-36.73 319.12,-27.7"/>
<polygon fill="#63b8ff" stroke="#63b8ff" points="322.14,-29.46 324.31,-19.09 316.15,-25.84 322.14,-29.46"/>
</g>
</g>
</svg>
