<?xml version="1.0" encoding="UTF-8" standalone="no"?>
<!DOCTYPE svg PUBLIC "-//W3C//DTD SVG 1.1//EN"
 "http://www.w3.org/Graphics/SVG/1.1/DTD/svg11.dtd">
<!-- Generated by graphviz version 5.0.0 (0)
 -->
<!-- Title: jngl/sprite.hpp Pages: 1 -->
<svg width="458pt" height="192pt"
 viewBox="0.00 0.00 458.00 192.00" xmlns="http://www.w3.org/2000/svg" xmlns:xlink="http://www.w3.org/1999/xlink">
<g id="graph0" class="graph" transform="scale(1 1) rotate(0) translate(4 188)">
<title>jngl/sprite.hpp</title>
<!-- Node1 -->
<g id="node1" class="node">
<title>Node1</title>
<g id="a_node1"><a xlink:title="Contains jngl::Sprite class and related functions.">
<polygon fill="#999999" stroke="#666666" points="285,-184 178,-184 178,-165 285,-165 285,-184"/>
<text text-anchor="middle" x="231.5" y="-172" font-family="ui-monospace,monospace" font-size="10.00">jngl/sprite.hpp</text>
</a>
</g>
</g>
<!-- Node2 -->
<g id="node2" class="node">
<title>Node2</title>
<g id="a_node2"><a xlink:href="Color_8hpp.html" target="_top" xlink:title="Contains jngl::Color class.">
<polygon fill="white" stroke="#666666" points="96,-129 25,-129 25,-110 96,-110 96,-129"/>
<text text-anchor="middle" x="60.5" y="-117" font-family="ui-monospace,monospace" font-size="10.00">Color.hpp</text>
</a>
</g>
</g>
<!-- Node1&#45;&gt;Node2 -->
<g id="edge1" class="edge">
<title>Node1&#45;&gt;Node2</title>
<path fill="none" stroke="#63b8ff" d="M204.03,-164.98C175.32,-156.09 130.08,-142.07 98.08,-132.15"/>
<polygon fill="#63b8ff" stroke="#63b8ff" points="98.78,-128.7 88.19,-129.08 96.7,-135.39 98.78,-128.7"/>
</g>
<!-- Node3 -->
<g id="node3" class="node">
<title>Node3</title>
<g id="a_node3"><a xlink:href="Drawable_8hpp.html" target="_top" xlink:title="Contains jngl::Drawable class.">
<polygon fill="white" stroke="#666666" points="203,-129 114,-129 114,-110 203,-110 203,-129"/>
<text text-anchor="middle" x="158.5" y="-117" font-family="ui-monospace,monospace" font-size="10.00">Drawable.hpp</text>
</a>
</g>
</g>
<!-- Node1&#45;&gt;Node3 -->
<g id="edge2" class="edge">
<title>Node1&#45;&gt;Node3</title>
<path fill="none" stroke="#63b8ff" d="M219.77,-164.98C208.77,-157 192.08,-144.88 178.9,-135.31"/>
<polygon fill="#63b8ff" stroke="#63b8ff" points="180.59,-132.21 170.44,-129.17 176.48,-137.88 180.59,-132.21"/>
</g>
<!-- Node4 -->
<g id="node4" class="node">
<title>Node4</title>
<g id="a_node4"><a xlink:href="Vec2_8hpp.html" target="_top" xlink:title="Contains jngl::Vec2 class.">
<polygon fill="white" stroke="#666666" points="191,-74 126,-74 126,-55 191,-55 191,-74"/>
<text text-anchor="middle" x="158.5" y="-62" font-family="ui-monospace,monospace" font-size="10.00">Vec2.hpp</text>
</a>
</g>
</g>
<!-- Node1&#45;&gt;Node4 -->
<g id="edge11" class="edge">
<title>Node1&#45;&gt;Node4</title>
<path fill="none" stroke="#63b8ff" d="M230.31,-164.61C228.25,-151.67 223.05,-127.3 211.5,-110 203.58,-98.13 191.6,-87.7 181.04,-79.93"/>
<polygon fill="#63b8ff" stroke="#63b8ff" points="182.82,-76.9 172.61,-74.05 178.81,-82.64 182.82,-76.9"/>
</g>
<!-- Node7 -->
<g id="node7" class="node">
<title>Node7</title>
<g id="a_node7"><a xlink:href="ShaderProgram_8hpp.html" target="_top" xlink:title="Contains jngl::ShaderProgram class.">
<polygon fill="white" stroke="#666666" points="379,-129 260,-129 260,-110 379,-110 379,-129"/>
<text text-anchor="middle" x="319.5" y="-117" font-family="ui-monospace,monospace" font-size="10.00">ShaderProgram.hpp</text>
</a>
</g>
</g>
<!-- Node1&#45;&gt;Node7 -->
<g id="edge6" class="edge">
<title>Node1&#45;&gt;Node7</title>
<path fill="none" stroke="#63b8ff" d="M245.64,-164.98C259.29,-156.77 280.19,-144.18 296.28,-134.49"/>
<polygon fill="#63b8ff" stroke="#63b8ff" points="298.34,-137.33 305.1,-129.17 294.73,-131.33 298.34,-137.33"/>
</g>
<!-- Node12 -->
<g id="node12" class="node">
<title>Node12</title>
<g id="a_node12"><a target="_parent" xlink:href="http://en.cppreference.com/w/cpp/header/vector.html" xlink:title=" ">
<polygon fill="white" stroke="#666666" points="450,-129 397,-129 397,-110 450,-110 450,-129"/>
<text text-anchor="middle" x="423.5" y="-117" font-family="ui-monospace,monospace" font-size="10.00">vector</text>
</a>
</g>
</g>
<!-- Node1&#45;&gt;Node12 -->
<g id="edge12" class="edge">
<title>Node1&#45;&gt;Node12</title>
<path fill="none" stroke="#63b8ff" d="M262.35,-164.98C296.36,-155.6 351.02,-140.51 387.1,-130.55"/>
<polygon fill="#63b8ff" stroke="#63b8ff" points="388.05,-133.92 396.75,-127.88 386.18,-127.17 388.05,-133.92"/>
</g>
<!-- Node3&#45;&gt;Node4 -->
<g id="edge3" class="edge">
<title>Node3&#45;&gt;Node4</title>
<path fill="none" stroke="#63b8ff" d="M158.5,-109.75C158.5,-102.8 158.5,-92.85 158.5,-84.13"/>
<polygon fill="#63b8ff" stroke="#63b8ff" points="162,-84.09 158.5,-74.09 155,-84.09 162,-84.09"/>
</g>
<!-- Node5 -->
<g id="node5" class="node">
<title>Node5</title>
<g id="a_node5"><a xlink:title=" ">
<polygon fill="#e0e0e0" stroke="#999999" points="119,-19 0,-19 0,0 119,0 119,-19"/>
<text text-anchor="middle" x="59.5" y="-7" font-family="ui-monospace,monospace" font-size="10.00">boost/version.hpp</text>
</a>
</g>
</g>
<!-- Node4&#45;&gt;Node5 -->
<g id="edge4" class="edge">
<title>Node4&#45;&gt;Node5</title>
<path fill="none" stroke="#63b8ff" d="M142.59,-54.98C126.95,-46.61 102.84,-33.7 84.62,-23.95"/>
<polygon fill="#63b8ff" stroke="#63b8ff" points="86.16,-20.8 75.7,-19.17 82.86,-26.98 86.16,-20.8"/>
</g>
<!-- Node6 -->
<g id="node6" class="node">
<title>Node6</title>
<g id="a_node6"><a target="_parent" xlink:href="http://en.cppreference.com/w/cpp/header/iosfwd.html" xlink:title=" ">
<polygon fill="white" stroke="#666666" points="190,-19 137,-19 137,0 190,0 190,-19"/>
<text text-anchor="middle" x="163.5" y="-7" font-family="ui-monospace,monospace" font-size="10.00">iosfwd</text>
</a>
</g>
</g>
<!-- Node4&#45;&gt;Node6 -->
<g id="edge5" class="edge">
<title>Node4&#45;&gt;Node6</title>
<path fill="none" stroke="#63b8ff" d="M159.33,-54.75C159.98,-47.8 160.92,-37.85 161.74,-29.13"/>
<polygon fill="#63b8ff" stroke="#63b8ff" points="165.23,-29.37 162.69,-19.09 158.27,-28.72 165.23,-29.37"/>
</g>
<!-- Node8 -->
<g id="node8" class="node">
<title>Node8</title>
<g id="a_node8"><a xlink:href="Finally_8hpp.html" target="_top" xlink:title="Contains jngl::Finally class.">
<polygon fill="white" stroke="#666666" points="292,-74 209,-74 209,-55 292,-55 292,-74"/>
<text text-anchor="middle" x="250.5" y="-62" font-family="ui-monospace,monospace" font-size="10.00">Finally.hpp</text>
</a>
</g>
</g>
<!-- Node7&#45;&gt;Node8 -->
<g id="edge7" class="edge">
<title>Node7&#45;&gt;Node8</title>
<path fill="none" stroke="#63b8ff" d="M308.41,-109.98C298.01,-102 282.24,-89.88 269.78,-80.31"/>
<polygon fill="#63b8ff" stroke="#63b8ff" points="271.85,-77.49 261.79,-74.17 267.59,-83.04 271.85,-77.49"/>
</g>
<!-- Node10 -->
<g id="node10" class="node">
<title>Node10</title>
<g id="a_node10"><a target="_parent" xlink:href="http://en.cppreference.com/w/cpp/header/memory.html" xlink:title=" ">
<polygon fill="white" stroke="#666666" points="363,-74 310,-74 310,-55 363,-55 363,-74"/>
<text text-anchor="middle" x="336.5" y="-62" font-family="ui-monospace,monospace" font-size="10.00">memory</text>
</a>
</g>
</g>
<!-- Node7&#45;&gt;Node10 -->
<g id="edge9" class="edge">
<title>Node7&#45;&gt;Node10</title>
<path fill="none" stroke="#63b8ff" d="M322.31,-109.75C324.56,-102.72 327.8,-92.62 330.62,-83.84"/>
<polygon fill="#63b8ff" stroke="#63b8ff" points="334.02,-84.68 333.75,-74.09 327.36,-82.54 334.02,-84.68"/>
</g>
<!-- Node11 -->
<g id="node11" class="node">
<title>Node11</title>
<g id="a_node11"><a target="_parent" xlink:href="http://en.cppreference.com/w/cpp/header/string.html" xlink:title=" ">
<polygon fill="white" stroke="#666666" points="434,-74 381,-74 381,-55 434,-55 434,-74"/>
<text text-anchor="middle" x="407.5" y="-62" font-family="ui-monospace,monospace" font-size="10.00">string</text>
</a>
</g>
</g>
<!-- Node7&#45;&gt;Node11 -->
<g id="edge10" class="edge">
<title>Node7&#45;&gt;Node11</title>
<path fill="none" stroke="#63b8ff" d="M333.64,-109.98C347.29,-101.77 368.19,-89.18 384.28,-79.49"/>
<polygon fill="#63b8ff" stroke="#63b8ff" points="386.34,-82.33 393.1,-74.17 382.73,-76.33 386.34,-82.33"/>
</g>
<!-- Node9 -->
<g id="node9" class="node">
<title>Node9</title>
<g id="a_node9"><a target="_parent" xlink:href="http://en.cppreference.com/w/cpp/header/functional.html" xlink:title=" ">
<polygon fill="white" stroke="#666666" points="289,-19 212,-19 212,0 289,0 289,-19"/>
<text text-anchor="middle" x="250.5" y="-7" font-family="ui-monospace,monospace" font-size="10.00">functional</text>
</a>
</g>
</g>
<!-- Node8&#45;&gt;Node9 -->
<g id="edge8" class="edge">
<title>Node8&#45;&gt;Node9</title>
<path fill="none" stroke="#63b8ff" d="M250.5,-54.75C250.5,-47.8 250.5,-37.85 250.5,-29.13"/>
<polygon fill="#63b8ff" stroke="#63b8ff" points="254,-29.09 250.5,-19.09 247,-29.09 254,-29.09"/>
</g>
</g>
</svg>
