<?xml version="1.0" encoding="UTF-8" standalone="no"?>
<!DOCTYPE svg PUBLIC "-//W3C//DTD SVG 1.1//EN"
 "http://www.w3.org/Graphics/SVG/1.1/DTD/svg11.dtd">
<!-- Generated by graphviz version 5.0.0 (0)
 -->
<!-- Title: jngl/sprite.hpp Pages: 1 -->
<svg width="536pt" height="192pt"
 viewBox="0.00 0.00 536.00 192.00" xmlns="http://www.w3.org/2000/svg" xmlns:xlink="http://www.w3.org/1999/xlink">
<g id="graph0" class="graph" transform="scale(1 1) rotate(0) translate(4 188)">
<title>jngl/sprite.hpp</title>
<!-- Node1 -->
<g id="node1" class="node">
<title>Node1</title>
<g id="a_node1"><a xlink:title="Contains jngl::Sprite class and related functions.">
<polygon fill="#999999" stroke="#666666" points="326,-184 219,-184 219,-165 326,-165 326,-184"/>
<text text-anchor="middle" x="272.5" y="-172" font-family="ui-monospace,monospace" font-size="10.00">jngl/sprite.hpp</text>
</a>
</g>
</g>
<!-- Node2 -->
<g id="node2" class="node">
<title>Node2</title>
<g id="a_node2"><a xlink:href="Drawable_8hpp.html" target="_top" xlink:title="Contains jngl::Drawable class.">
<polygon fill="white" stroke="#666666" points="133,-129 44,-129 44,-110 133,-110 133,-129"/>
<text text-anchor="middle" x="88.5" y="-117" font-family="ui-monospace,monospace" font-size="10.00">Drawable.hpp</text>
</a>
</g>
</g>
<!-- Node1&#45;&gt;Node2 -->
<g id="edge1" class="edge">
<title>Node1&#45;&gt;Node2</title>
<path fill="none" stroke="#63b8ff" d="M242.94,-164.98C211.78,-156.01 162.53,-141.82 128.04,-131.89"/>
<polygon fill="#63b8ff" stroke="#63b8ff" points="128.87,-128.49 118.29,-129.08 126.93,-135.21 128.87,-128.49"/>
</g>
<!-- Node3 -->
<g id="node3" class="node">
<title>Node3</title>
<g id="a_node3"><a xlink:href="Vec2_8hpp.html" target="_top" xlink:title="Contains jngl::Vec2 class.">
<polygon fill="white" stroke="#666666" points="146,-74 81,-74 81,-55 146,-55 146,-74"/>
<text text-anchor="middle" x="113.5" y="-62" font-family="ui-monospace,monospace" font-size="10.00">Vec2.hpp</text>
</a>
</g>
</g>
<!-- Node1&#45;&gt;Node3 -->
<g id="edge12" class="edge">
<title>Node1&#45;&gt;Node3</title>
<path fill="none" stroke="#63b8ff" d="M249.89,-164.87C230.59,-156.97 202.54,-144.23 180.5,-129 160.63,-115.27 140.93,-95.7 128.09,-81.92"/>
<polygon fill="#63b8ff" stroke="#63b8ff" points="130.37,-79.22 121.04,-74.19 125.2,-83.94 130.37,-79.22"/>
</g>
<!-- Node6 -->
<g id="node6" class="node">
<title>Node6</title>
<g id="a_node6"><a xlink:href="Rgb_8hpp.html" target="_top" xlink:title="Contains jngl::Rgb class.">
<polygon fill="white" stroke="#666666" points="249,-129 190,-129 190,-110 249,-110 249,-129"/>
<text text-anchor="middle" x="219.5" y="-117" font-family="ui-monospace,monospace" font-size="10.00">Rgb.hpp</text>
</a>
</g>
</g>
<!-- Node1&#45;&gt;Node6 -->
<g id="edge5" class="edge">
<title>Node1&#45;&gt;Node6</title>
<path fill="none" stroke="#63b8ff" d="M263.75,-164.75C256.03,-157.03 244.6,-145.6 235.28,-136.28"/>
<polygon fill="#63b8ff" stroke="#63b8ff" points="237.64,-133.69 228.09,-129.09 232.69,-138.64 237.64,-133.69"/>
</g>
<!-- Node8 -->
<g id="node8" class="node">
<title>Node8</title>
<g id="a_node8"><a xlink:href="ShaderProgram_8hpp.html" target="_top" xlink:title="Contains jngl::ShaderProgram class.">
<polygon fill="white" stroke="#666666" points="386,-129 267,-129 267,-110 386,-110 386,-129"/>
<text text-anchor="middle" x="326.5" y="-117" font-family="ui-monospace,monospace" font-size="10.00">ShaderProgram.hpp</text>
</a>
</g>
</g>
<!-- Node1&#45;&gt;Node8 -->
<g id="edge7" class="edge">
<title>Node1&#45;&gt;Node8</title>
<path fill="none" stroke="#63b8ff" d="M281.42,-164.75C289.28,-157.03 300.93,-145.6 310.42,-136.28"/>
<polygon fill="#63b8ff" stroke="#63b8ff" points="313.06,-138.59 317.75,-129.09 308.16,-133.6 313.06,-138.59"/>
</g>
<!-- Node13 -->
<g id="node13" class="node">
<title>Node13</title>
<g id="a_node13"><a target="_parent" xlink:href="http://en.cppreference.com/w/cpp/header/future.html" xlink:title=" ">
<polygon fill="white" stroke="#666666" points="457,-129 404,-129 404,-110 457,-110 457,-129"/>
<text text-anchor="middle" x="430.5" y="-117" font-family="ui-monospace,monospace" font-size="10.00">future</text>
</a>
</g>
</g>
<!-- Node1&#45;&gt;Node13 -->
<g id="edge13" class="edge">
<title>Node1&#45;&gt;Node13</title>
<path fill="none" stroke="#63b8ff" d="M297.89,-164.98C324.3,-156.13 365.85,-142.19 395.39,-132.28"/>
<polygon fill="#63b8ff" stroke="#63b8ff" points="396.55,-135.58 404.92,-129.08 394.32,-128.94 396.55,-135.58"/>
</g>
<!-- Node14 -->
<g id="node14" class="node">
<title>Node14</title>
<g id="a_node14"><a target="_parent" xlink:href="http://en.cppreference.com/w/cpp/header/vector.html" xlink:title=" ">
<polygon fill="white" stroke="#666666" points="528,-129 475,-129 475,-110 528,-110 528,-129"/>
<text text-anchor="middle" x="501.5" y="-117" font-family="ui-monospace,monospace" font-size="10.00">vector</text>
</a>
</g>
</g>
<!-- Node1&#45;&gt;Node14 -->
<g id="edge14" class="edge">
<title>Node1&#45;&gt;Node14</title>
<path fill="none" stroke="#63b8ff" d="M310.45,-164.95C347.52,-156.56 405.8,-143.28 464.88,-129.36"/>
<polygon fill="#63b8ff" stroke="#63b8ff" points="465.83,-132.74 474.76,-127.03 464.22,-125.92 465.83,-132.74"/>
</g>
<!-- Node2&#45;&gt;Node3 -->
<g id="edge2" class="edge">
<title>Node2&#45;&gt;Node3</title>
<path fill="none" stroke="#63b8ff" d="M92.63,-109.75C96.01,-102.57 100.92,-92.18 105.12,-83.27"/>
<polygon fill="#63b8ff" stroke="#63b8ff" points="108.35,-84.63 109.45,-74.09 102.02,-81.64 108.35,-84.63"/>
</g>
<!-- Node4 -->
<g id="node4" class="node">
<title>Node4</title>
<g id="a_node4"><a xlink:title=" ">
<polygon fill="#e0e0e0" stroke="#999999" points="125,-19 0,-19 0,0 125,0 125,-19"/>
<text text-anchor="middle" x="62.5" y="-7" font-family="ui-monospace,monospace" font-size="10.00">boost/qvm_lite.hpp</text>
</a>
</g>
</g>
<!-- Node3&#45;&gt;Node4 -->
<g id="edge3" class="edge">
<title>Node3&#45;&gt;Node4</title>
<path fill="none" stroke="#63b8ff" d="M105.08,-54.75C97.73,-47.11 86.87,-35.82 77.96,-26.56"/>
<polygon fill="#63b8ff" stroke="#63b8ff" points="80.22,-23.87 70.76,-19.09 75.18,-28.72 80.22,-23.87"/>
</g>
<!-- Node5 -->
<g id="node5" class="node">
<title>Node5</title>
<g id="a_node5"><a target="_parent" xlink:href="http://en.cppreference.com/w/cpp/header/iosfwd.html" xlink:title=" ">
<polygon fill="white" stroke="#666666" points="196,-19 143,-19 143,0 196,0 196,-19"/>
<text text-anchor="middle" x="169.5" y="-7" font-family="ui-monospace,monospace" font-size="10.00">iosfwd</text>
</a>
</g>
</g>
<!-- Node3&#45;&gt;Node5 -->
<g id="edge4" class="edge">
<title>Node3&#45;&gt;Node5</title>
<path fill="none" stroke="#63b8ff" d="M122.5,-54.98C130.69,-47.23 143.01,-35.58 152.97,-26.14"/>
<polygon fill="#63b8ff" stroke="#63b8ff" points="155.48,-28.59 160.34,-19.17 150.67,-23.5 155.48,-28.59"/>
</g>
<!-- Node7 -->
<g id="node7" class="node">
<title>Node7</title>
<g id="a_node7"><a target="_parent" xlink:href="http://en.cppreference.com/w/cpp/header/cstdint.html" xlink:title=" ">
<polygon fill="white" stroke="#666666" points="236,-74 177,-74 177,-55 236,-55 236,-74"/>
<text text-anchor="middle" x="206.5" y="-62" font-family="ui-monospace,monospace" font-size="10.00">cstdint</text>
</a>
</g>
</g>
<!-- Node6&#45;&gt;Node7 -->
<g id="edge6" class="edge">
<title>Node6&#45;&gt;Node7</title>
<path fill="none" stroke="#63b8ff" d="M217.35,-109.75C215.63,-102.72 213.15,-92.62 211,-83.84"/>
<polygon fill="#63b8ff" stroke="#63b8ff" points="214.39,-82.97 208.61,-74.09 207.59,-84.63 214.39,-82.97"/>
</g>
<!-- Node9 -->
<g id="node9" class="node">
<title>Node9</title>
<g id="a_node9"><a xlink:href="Finally_8hpp.html" target="_top" xlink:title="Contains jngl::Finally class.">
<polygon fill="white" stroke="#666666" points="337,-74 254,-74 254,-55 337,-55 337,-74"/>
<text text-anchor="middle" x="295.5" y="-62" font-family="ui-monospace,monospace" font-size="10.00">Finally.hpp</text>
</a>
</g>
</g>
<!-- Node8&#45;&gt;Node9 -->
<g id="edge8" class="edge">
<title>Node8&#45;&gt;Node9</title>
<path fill="none" stroke="#63b8ff" d="M321.38,-109.75C317.14,-102.49 310.97,-91.95 305.72,-82.98"/>
<polygon fill="#63b8ff" stroke="#63b8ff" points="308.59,-80.95 300.52,-74.09 302.55,-84.49 308.59,-80.95"/>
</g>
<!-- Node11 -->
<g id="node11" class="node">
<title>Node11</title>
<g id="a_node11"><a target="_parent" xlink:href="http://en.cppreference.com/w/cpp/header/memory.html" xlink:title=" ">
<polygon fill="white" stroke="#666666" points="408,-74 355,-74 355,-55 408,-55 408,-74"/>
<text text-anchor="middle" x="381.5" y="-62" font-family="ui-monospace,monospace" font-size="10.00">memory</text>
</a>
</g>
</g>
<!-- Node8&#45;&gt;Node11 -->
<g id="edge10" class="edge">
<title>Node8&#45;&gt;Node11</title>
<path fill="none" stroke="#63b8ff" d="M335.58,-109.75C343.59,-102.03 355.46,-90.6 365.12,-81.28"/>
<polygon fill="#63b8ff" stroke="#63b8ff" points="367.81,-83.55 372.59,-74.09 362.96,-78.51 367.81,-83.55"/>
</g>
<!-- Node12 -->
<g id="node12" class="node">
<title>Node12</title>
<g id="a_node12"><a target="_parent" xlink:href="http://en.cppreference.com/w/cpp/header/string.html" xlink:title=" ">
<polygon fill="white" stroke="#666666" points="479,-74 426,-74 426,-55 479,-55 479,-74"/>
<text text-anchor="middle" x="452.5" y="-62" font-family="ui-monospace,monospace" font-size="10.00">string</text>
</a>
</g>
</g>
<!-- Node8&#45;&gt;Node12 -->
<g id="edge11" class="edge">
<title>Node8&#45;&gt;Node12</title>
<path fill="none" stroke="#63b8ff" d="M346.74,-109.98C367.2,-101.38 399.03,-87.99 422.43,-78.15"/>
<polygon fill="#63b8ff" stroke="#63b8ff" points="424.03,-81.27 431.89,-74.17 421.31,-74.82 424.03,-81.27"/>
</g>
<!-- Node10 -->
<g id="node10" class="node">
<title>Node10</title>
<g id="a_node10"><a target="_parent" xlink:href="http://en.cppreference.com/w/cpp/header/functional.html" xlink:title=" ">
<polygon fill="white" stroke="#666666" points="334,-19 257,-19 257,0 334,0 334,-19"/>
<text text-anchor="middle" x="295.5" y="-7" font-family="ui-monospace,monospace" font-size="10.00">functional</text>
</a>
</g>
</g>
<!-- Node9&#45;&gt;Node10 -->
<g id="edge9" class="edge">
<title>Node9&#45;&gt;Node10</title>
<path fill="none" stroke="#63b8ff" d="M295.5,-54.75C295.5,-47.8 295.5,-37.85 295.5,-29.13"/>
<polygon fill="#63b8ff" stroke="#63b8ff" points="299,-29.09 295.5,-19.09 292,-29.09 299,-29.09"/>
</g>
</g>
</svg>
