<?xml version="1.0" encoding="UTF-8" standalone="no"?>
<!DOCTYPE svg PUBLIC "-//W3C//DTD SVG 1.1//EN"
 "http://www.w3.org/Graphics/SVG/1.1/DTD/svg11.dtd">
<!-- Generated by graphviz version 9.0.0 (20230911.1827)
 -->
<!-- Title: jngl/sprite.hpp Pages: 1 -->
<svg width="745pt" height="193pt"
 viewBox="0.00 0.00 745.00 193.00" xmlns="http://www.w3.org/2000/svg" xmlns:xlink="http://www.w3.org/1999/xlink">
<g id="graph0" class="graph" transform="scale(1 1) rotate(0) translate(4 189)">
<title>jngl/sprite.hpp</title>
<!-- Node1 -->
<g id="Node000001" class="node">
<title>Node1</title>
<g id="a_Node000001"><a xlink:title="Contains jngl::Sprite class and related functions.">
<polygon fill="#999999" stroke="#666666" points="422,-185 316,-185 316,-165.75 422,-165.75 422,-185"/>
<text text-anchor="middle" x="369" y="-171.5" font-family="ui-monospace,monospace" font-size="10.00">jngl/sprite.hpp</text>
</a>
</g>
</g>
<!-- Node2 -->
<g id="Node000002" class="node">
<title>Node2</title>
<g id="a_Node000002"><a xlink:href="Drawable_8hpp.html" target="_top" xlink:title="Contains jngl::Drawable class.">
<polygon fill="white" stroke="#666666" points="159,-129.75 71,-129.75 71,-110.5 159,-110.5 159,-129.75"/>
<text text-anchor="middle" x="115" y="-116.25" font-family="ui-monospace,monospace" font-size="10.00">Drawable.hpp</text>
</a>
</g>
</g>
<!-- Node1&#45;&gt;Node2 -->
<g id="edge1_Node000001_Node000002" class="edge">
<title>Node1&#45;&gt;Node2</title>
<g id="a_edge1_Node000001_Node000002"><a xlink:title=" ">
<path fill="none" stroke="#63b8ff" d="M325.62,-165.28C282.43,-156.23 216,-142.3 169.32,-132.51"/>
<polygon fill="#63b8ff" stroke="#63b8ff" points="170.18,-129.12 159.68,-130.49 168.75,-135.97 170.18,-129.12"/>
</a>
</g>
</g>
<!-- Node3 -->
<g id="Node000003" class="node">
<title>Node3</title>
<g id="a_Node000003"><a xlink:href="Vec2_8hpp.html" target="_top" xlink:title="Contains jngl::Vec2 class.">
<polygon fill="white" stroke="#666666" points="111,-74.5 47,-74.5 47,-55.25 111,-55.25 111,-74.5"/>
<text text-anchor="middle" x="79" y="-61" font-family="ui-monospace,monospace" font-size="10.00">Vec2.hpp</text>
</a>
</g>
</g>
<!-- Node1&#45;&gt;Node3 -->
<g id="edge16_Node000001_Node000003" class="edge">
<title>Node1&#45;&gt;Node3</title>
<g id="a_edge16_Node000001_Node000003"><a xlink:title=" ">
<path fill="none" stroke="#63b8ff" d="M315.56,-174.64C236.49,-173.77 94.16,-166.92 62,-129.75 51.11,-117.16 58.02,-98.34 66.05,-84.38"/>
<polygon fill="#63b8ff" stroke="#63b8ff" points="68.89,-86.43 71.32,-76.12 62.99,-82.67 68.89,-86.43"/>
</a>
</g>
</g>
<!-- Node6 -->
<g id="Node000006" class="node">
<title>Node6</title>
<g id="a_Node000006"><a xlink:href="Finally_8hpp.html" target="_top" xlink:title="Contains jngl::Finally class.">
<polygon fill="white" stroke="#666666" points="259,-129.75 177,-129.75 177,-110.5 259,-110.5 259,-129.75"/>
<text text-anchor="middle" x="218" y="-116.25" font-family="ui-monospace,monospace" font-size="10.00">Finally.hpp</text>
</a>
</g>
</g>
<!-- Node1&#45;&gt;Node6 -->
<g id="edge5_Node000001_Node000006" class="edge">
<title>Node1&#45;&gt;Node6</title>
<g id="a_edge5_Node000001_Node000006"><a xlink:title=" ">
<path fill="none" stroke="#63b8ff" d="M343.38,-165.34C318.98,-156.74 281.99,-143.69 254.5,-134"/>
<polygon fill="#63b8ff" stroke="#63b8ff" points="255.76,-130.73 245.17,-130.71 253.43,-137.33 255.76,-130.73"/>
</a>
</g>
</g>
<!-- Node8 -->
<g id="Node000008" class="node">
<title>Node8</title>
<g id="a_Node000008"><a xlink:href="Rgb_8hpp.html" target="_top" xlink:title="Contains jngl::Rgb class.">
<polygon fill="white" stroke="#666666" points="397,-74.5 339,-74.5 339,-55.25 397,-55.25 397,-74.5"/>
<text text-anchor="middle" x="368" y="-61" font-family="ui-monospace,monospace" font-size="10.00">Rgb.hpp</text>
</a>
</g>
</g>
<!-- Node1&#45;&gt;Node8 -->
<g id="edge7_Node000001_Node000008" class="edge">
<title>Node1&#45;&gt;Node8</title>
<g id="a_edge7_Node000001_Node000008"><a xlink:title=" ">
<path fill="none" stroke="#63b8ff" d="M368.92,-165.5C368.76,-148.25 368.41,-109.83 368.19,-86.06"/>
<polygon fill="#63b8ff" stroke="#63b8ff" points="371.69,-86.36 368.1,-76.39 364.69,-86.42 371.69,-86.36"/>
</a>
</g>
</g>
<!-- Node10 -->
<g id="Node000010" class="node">
<title>Node10</title>
<g id="a_Node000010"><a xlink:href="Rgba_8hpp.html" target="_top" xlink:title="Contains jngl::Rgba class.">
<polygon fill="white" stroke="#666666" points="341,-129.75 277,-129.75 277,-110.5 341,-110.5 341,-129.75"/>
<text text-anchor="middle" x="309" y="-116.25" font-family="ui-monospace,monospace" font-size="10.00">Rgba.hpp</text>
</a>
</g>
</g>
<!-- Node1&#45;&gt;Node10 -->
<g id="edge9_Node000001_Node000010" class="edge">
<title>Node1&#45;&gt;Node10</title>
<g id="a_edge9_Node000001_Node000010"><a xlink:title=" ">
<path fill="none" stroke="#63b8ff" d="M358.82,-165.34C350.24,-157.72 337.73,-146.62 327.4,-137.45"/>
<polygon fill="#63b8ff" stroke="#63b8ff" points="329.96,-135.05 320.16,-131.03 325.32,-140.29 329.96,-135.05"/>
</a>
</g>
</g>
<!-- Node11 -->
<g id="Node000011" class="node">
<title>Node11</title>
<g id="a_Node000011"><a xlink:href="ShaderProgram_8hpp.html" target="_top" xlink:title="Contains jngl::ShaderProgram class.">
<polygon fill="white" stroke="#666666" points="515,-129.75 397,-129.75 397,-110.5 515,-110.5 515,-129.75"/>
<text text-anchor="middle" x="456" y="-116.25" font-family="ui-monospace,monospace" font-size="10.00">ShaderProgram.hpp</text>
</a>
</g>
</g>
<!-- Node1&#45;&gt;Node11 -->
<g id="edge12_Node000001_Node000011" class="edge">
<title>Node1&#45;&gt;Node11</title>
<g id="a_edge12_Node000001_Node000011"><a xlink:title=" ">
<path fill="none" stroke="#63b8ff" d="M383.76,-165.34C396.88,-157.31 416.32,-145.41 431.73,-135.98"/>
<polygon fill="#63b8ff" stroke="#63b8ff" points="433.18,-139.2 439.88,-130.99 429.52,-133.23 433.18,-139.2"/>
</a>
</g>
</g>
<!-- Node14 -->
<g id="Node000014" class="node">
<title>Node14</title>
<g id="a_Node000014"><a target="_parent" xlink:href="http://en.cppreference.com/w/cpp/header/future.html" xlink:title=" ">
<polygon fill="white" stroke="#666666" points="585,-129.75 533,-129.75 533,-110.5 585,-110.5 585,-129.75"/>
<text text-anchor="middle" x="559" y="-116.25" font-family="ui-monospace,monospace" font-size="10.00">future</text>
</a>
</g>
</g>
<!-- Node1&#45;&gt;Node14 -->
<g id="edge17_Node000001_Node000014" class="edge">
<title>Node1&#45;&gt;Node14</title>
<g id="a_edge17_Node000001_Node000014"><a xlink:title=" ">
<path fill="none" stroke="#63b8ff" d="M401.23,-165.34C434.67,-155.97 486.88,-141.34 521.99,-131.5"/>
<polygon fill="#63b8ff" stroke="#63b8ff" points="522.6,-134.96 531.28,-128.89 520.71,-128.22 522.6,-134.96"/>
</a>
</g>
</g>
<!-- Node15 -->
<g id="Node000015" class="node">
<title>Node15</title>
<g id="a_Node000015"><a target="_parent" xlink:href="http://en.cppreference.com/w/cpp/header/optional.html" xlink:title=" ">
<polygon fill="white" stroke="#666666" points="667,-129.75 603,-129.75 603,-110.5 667,-110.5 667,-129.75"/>
<text text-anchor="middle" x="635" y="-116.25" font-family="ui-monospace,monospace" font-size="10.00">optional</text>
</a>
</g>
</g>
<!-- Node1&#45;&gt;Node15 -->
<g id="edge18_Node000001_Node000015" class="edge">
<title>Node1&#45;&gt;Node15</title>
<g id="a_edge18_Node000001_Node000015"><a xlink:title=" ">
<path fill="none" stroke="#63b8ff" d="M415.57,-165.3C458.69,-156.86 524.91,-143.81 591.63,-130.22"/>
<polygon fill="#63b8ff" stroke="#63b8ff" points="592.2,-133.67 601.3,-128.24 590.8,-126.81 592.2,-133.67"/>
</a>
</g>
</g>
<!-- Node16 -->
<g id="Node000016" class="node">
<title>Node16</title>
<g id="a_Node000016"><a target="_parent" xlink:href="http://en.cppreference.com/w/cpp/header/vector.html" xlink:title=" ">
<polygon fill="white" stroke="#666666" points="737,-129.75 685,-129.75 685,-110.5 737,-110.5 737,-129.75"/>
<text text-anchor="middle" x="711" y="-116.25" font-family="ui-monospace,monospace" font-size="10.00">vector</text>
</a>
</g>
</g>
<!-- Node1&#45;&gt;Node16 -->
<g id="edge19_Node000001_Node000016" class="edge">
<title>Node1&#45;&gt;Node16</title>
<g id="a_edge19_Node000001_Node000016"><a xlink:title=" ">
<path fill="none" stroke="#63b8ff" d="M422.23,-168.23C481.33,-161.06 579.74,-148.06 673.57,-130.06"/>
<polygon fill="#63b8ff" stroke="#63b8ff" points="674.05,-133.53 683.2,-128.19 672.72,-126.66 674.05,-133.53"/>
</a>
</g>
</g>
<!-- Node2&#45;&gt;Node3 -->
<g id="edge2_Node000002_Node000003" class="edge">
<title>Node2&#45;&gt;Node3</title>
<g id="a_edge2_Node000002_Node000003"><a xlink:title=" ">
<path fill="none" stroke="#63b8ff" d="M109.06,-110.33C104.29,-103.28 97.44,-93.15 91.48,-84.33"/>
<polygon fill="#63b8ff" stroke="#63b8ff" points="94.42,-82.44 85.92,-76.11 88.62,-86.36 94.42,-82.44"/>
</a>
</g>
</g>
<!-- Node4 -->
<g id="Node000004" class="node">
<title>Node4</title>
<g id="a_Node000004"><a xlink:title=" ">
<polygon fill="#e0e0e0" stroke="#999999" points="194,-19.25 70,-19.25 70,0 194,0 194,-19.25"/>
<text text-anchor="middle" x="132" y="-5.75" font-family="ui-monospace,monospace" font-size="10.00">boost/qvm_lite.hpp</text>
</a>
</g>
</g>
<!-- Node3&#45;&gt;Node4 -->
<g id="edge3_Node000003_Node000004" class="edge">
<title>Node3&#45;&gt;Node4</title>
<g id="a_edge3_Node000003_Node000004"><a xlink:title=" ">
<path fill="none" stroke="#63b8ff" d="M87.75,-55.08C95.15,-47.65 105.96,-36.79 115.05,-27.66"/>
<polygon fill="#63b8ff" stroke="#63b8ff" points="117.42,-30.24 121.99,-20.68 112.46,-25.3 117.42,-30.24"/>
</a>
</g>
</g>
<!-- Node5 -->
<g id="Node000005" class="node">
<title>Node5</title>
<g id="a_Node000005"><a target="_parent" xlink:href="http://en.cppreference.com/w/cpp/header/iosfwd.html" xlink:title=" ">
<polygon fill="white" stroke="#666666" points="52,-19.25 0,-19.25 0,0 52,0 52,-19.25"/>
<text text-anchor="middle" x="26" y="-5.75" font-family="ui-monospace,monospace" font-size="10.00">iosfwd</text>
</a>
</g>
</g>
<!-- Node3&#45;&gt;Node5 -->
<g id="edge4_Node000003_Node000005" class="edge">
<title>Node3&#45;&gt;Node5</title>
<g id="a_edge4_Node000003_Node000005"><a xlink:title=" ">
<path fill="none" stroke="#63b8ff" d="M70.25,-55.08C62.85,-47.65 52.04,-36.79 42.95,-27.66"/>
<polygon fill="#63b8ff" stroke="#63b8ff" points="45.54,-25.3 36.01,-20.68 40.58,-30.24 45.54,-25.3"/>
</a>
</g>
</g>
<!-- Node7 -->
<g id="Node000007" class="node">
<title>Node7</title>
<g id="a_Node000007"><a target="_parent" xlink:href="http://en.cppreference.com/w/cpp/header/functional.html" xlink:title=" ">
<polygon fill="white" stroke="#666666" points="256,-74.5 180,-74.5 180,-55.25 256,-55.25 256,-74.5"/>
<text text-anchor="middle" x="218" y="-61" font-family="ui-monospace,monospace" font-size="10.00">functional</text>
</a>
</g>
</g>
<!-- Node6&#45;&gt;Node7 -->
<g id="edge6_Node000006_Node000007" class="edge">
<title>Node6&#45;&gt;Node7</title>
<g id="a_edge6_Node000006_Node000007"><a xlink:title=" ">
<path fill="none" stroke="#63b8ff" d="M218,-110.33C218,-103.82 218,-94.67 218,-86.37"/>
<polygon fill="#63b8ff" stroke="#63b8ff" points="221.5,-86.37 218,-76.37 214.5,-86.37 221.5,-86.37"/>
</a>
</g>
</g>
<!-- Node9 -->
<g id="Node000009" class="node">
<title>Node9</title>
<g id="a_Node000009"><a target="_parent" xlink:href="http://en.cppreference.com/w/cpp/header/cstdint.html" xlink:title=" ">
<polygon fill="white" stroke="#666666" points="368,-19.25 310,-19.25 310,0 368,0 368,-19.25"/>
<text text-anchor="middle" x="339" y="-5.75" font-family="ui-monospace,monospace" font-size="10.00">cstdint</text>
</a>
</g>
</g>
<!-- Node8&#45;&gt;Node9 -->
<g id="edge8_Node000008_Node000009" class="edge">
<title>Node8&#45;&gt;Node9</title>
<g id="a_edge8_Node000008_Node000009"><a xlink:title=" ">
<path fill="none" stroke="#63b8ff" d="M363.21,-55.08C359.46,-48.19 354.09,-38.34 349.37,-29.66"/>
<polygon fill="#63b8ff" stroke="#63b8ff" points="352.47,-28.05 344.62,-20.94 346.33,-31.39 352.47,-28.05"/>
</a>
</g>
</g>
<!-- Node10&#45;&gt;Node8 -->
<g id="edge10_Node000010_Node000008" class="edge">
<title>Node10&#45;&gt;Node8</title>
<g id="a_edge10_Node000010_Node000008"><a xlink:title=" ">
<path fill="none" stroke="#63b8ff" d="M319.01,-110.09C327.37,-102.55 339.5,-91.6 349.6,-82.48"/>
<polygon fill="#63b8ff" stroke="#63b8ff" points="351.94,-85.09 357.02,-75.79 347.25,-79.89 351.94,-85.09"/>
</a>
</g>
</g>
<!-- Node10&#45;&gt;Node9 -->
<g id="edge11_Node000010_Node000009" class="edge">
<title>Node10&#45;&gt;Node9</title>
<g id="a_edge11_Node000010_Node000009"><a xlink:title=" ">
<path fill="none" stroke="#63b8ff" d="M311.46,-110.25C316.25,-92.92 326.94,-54.23 333.51,-30.49"/>
<polygon fill="#63b8ff" stroke="#63b8ff" points="336.82,-31.66 336.11,-21.09 330.07,-29.79 336.82,-31.66"/>
</a>
</g>
</g>
<!-- Node11&#45;&gt;Node8 -->
<g id="edge13_Node000011_Node000008" class="edge">
<title>Node11&#45;&gt;Node8</title>
<g id="a_edge13_Node000011_Node000008"><a xlink:title=" ">
<path fill="none" stroke="#63b8ff" d="M441.07,-110.09C427.8,-102.06 408.13,-90.16 392.55,-80.73"/>
<polygon fill="#63b8ff" stroke="#63b8ff" points="394.66,-77.92 384.3,-75.74 391.04,-83.91 394.66,-77.92"/>
</a>
</g>
</g>
<!-- Node12 -->
<g id="Node000012" class="node">
<title>Node12</title>
<g id="a_Node000012"><a target="_parent" xlink:href="http://en.cppreference.com/w/cpp/header/memory.html" xlink:title=" ">
<polygon fill="white" stroke="#666666" points="475,-74.5 423,-74.5 423,-55.25 475,-55.25 475,-74.5"/>
<text text-anchor="middle" x="449" y="-61" font-family="ui-monospace,monospace" font-size="10.00">memory</text>
</a>
</g>
</g>
<!-- Node11&#45;&gt;Node12 -->
<g id="edge14_Node000011_Node000012" class="edge">
<title>Node11&#45;&gt;Node12</title>
<g id="a_edge14_Node000011_Node000012"><a xlink:title=" ">
<path fill="none" stroke="#63b8ff" d="M454.84,-110.33C453.98,-103.74 452.76,-94.46 451.66,-86.07"/>
<polygon fill="#63b8ff" stroke="#63b8ff" points="455.15,-85.82 450.38,-76.36 448.21,-86.73 455.15,-85.82"/>
</a>
</g>
</g>
<!-- Node13 -->
<g id="Node000013" class="node">
<title>Node13</title>
<g id="a_Node000013"><a target="_parent" xlink:href="http://en.cppreference.com/w/cpp/header/string.html" xlink:title=" ">
<polygon fill="white" stroke="#666666" points="545,-74.5 493,-74.5 493,-55.25 545,-55.25 545,-74.5"/>
<text text-anchor="middle" x="519" y="-61" font-family="ui-monospace,monospace" font-size="10.00">string</text>
</a>
</g>
</g>
<!-- Node11&#45;&gt;Node13 -->
<g id="edge15_Node000011_Node000013" class="edge">
<title>Node11&#45;&gt;Node13</title>
<g id="a_edge15_Node000011_Node000013"><a xlink:title=" ">
<path fill="none" stroke="#63b8ff" d="M466.69,-110.09C475.7,-102.47 488.83,-91.37 499.68,-82.2"/>
<polygon fill="#63b8ff" stroke="#63b8ff" points="501.94,-84.88 507.31,-75.75 497.42,-79.53 501.94,-84.88"/>
</a>
</g>
</g>
</g>
</svg>
