<?xml version="1.0" encoding="UTF-8" standalone="no"?>
<!DOCTYPE svg PUBLIC "-//W3C//DTD SVG 1.1//EN"
 "http://www.w3.org/Graphics/SVG/1.1/DTD/svg11.dtd">
<!-- Generated by graphviz version 12.1.0 (20240811.2233)
 -->
<!-- Title: AppParameters Pages: 1 -->
<svg width="376pt" height="285pt"
 viewBox="0.00 0.00 376.00 284.50" xmlns="http://www.w3.org/2000/svg" xmlns:xlink="http://www.w3.org/1999/xlink">
<g id="graph0" class="graph" transform="scale(1 1) rotate(0) translate(4 280.5)">
<title>AppParameters</title>
<!-- Node1 -->
<g id="Node000001" class="node">
<title>Node1</title>
<g id="a_Node000001"><a xlink:title="Parameters used to initialize the main window.">
<polygon fill="#999999" stroke="#666666" points="368,-156.88 274,-156.88 274,-137.62 368,-137.62 368,-156.88"/>
<text text-anchor="middle" x="321" y="-143.38" font-family="ui-monospace,monospace" font-size="10.00">AppParameters</text>
</a>
</g>
</g>
<!-- Node2 -->
<g id="Node000002" class="node">
<title>Node2</title>
<g id="a_Node000002"><a target="_parent" xlink:href="http://en.cppreference.com/w/cpp/utility/functional/function.html" xlink:title=" ">
<polygon fill="white" stroke="#bfbfbf" points="145,-276.5 3,-276.5 3,-246 145,-246 145,-276.5"/>
<text text-anchor="start" x="11" y="-263" font-family="ui-monospace,monospace" font-size="10.00">function&lt; std::shared</text>
<text text-anchor="middle" x="74" y="-251.75" font-family="ui-monospace,monospace" font-size="10.00">_ptr&lt; jngl::Work &gt;()&gt;</text>
</a>
</g>
</g>
<!-- Node2&#45;&gt;Node1 -->
<g id="edge1_Node000001_Node000002" class="edge">
<title>Node2&#45;&gt;Node1</title>
<g id="a_edge1_Node000001_Node000002"><a xlink:title=" ">
<path fill="none" stroke="#9a32cd" stroke-dasharray="5,2" d="M156.48,-255.71C189.21,-250.63 226.17,-241.09 256,-223.25 283.68,-206.7 305.07,-173.77 314.59,-157.23"/>
<polygon fill="#9a32cd" stroke="#9a32cd" points="156,-252.24 146.6,-257.11 156.99,-259.17 156,-252.24"/>
</a>
</g>
<text text-anchor="middle" x="211" y="-255.78" font-family="ui-monospace,monospace" font-size="10.00" fill="grey"> start</text>
</g>
<!-- Node3 -->
<g id="Node000003" class="node">
<title>Node3</title>
<g id="a_Node000003"><a target="_parent" xlink:href="http://en.cppreference.com/w/cpp/string/basic_string.html" xlink:title=" ">
<polygon fill="white" stroke="#bfbfbf" points="100,-227.88 48,-227.88 48,-208.62 100,-208.62 100,-227.88"/>
<text text-anchor="middle" x="74" y="-214.38" font-family="ui-monospace,monospace" font-size="10.00">string</text>
</a>
</g>
</g>
<!-- Node3&#45;&gt;Node1 -->
<g id="edge2_Node000001_Node000003" class="edge">
<title>Node3&#45;&gt;Node1</title>
<g id="a_edge2_Node000001_Node000003"><a xlink:title=" ">
<path fill="none" stroke="#9a32cd" stroke-dasharray="5,2" d="M111.69,-215.78C149.02,-212.34 208.05,-204.36 256,-186.25 274.99,-179.08 294.6,-166.16 307.02,-157.17"/>
<polygon fill="#9a32cd" stroke="#9a32cd" points="111.55,-212.27 101.88,-216.61 112.14,-219.25 111.55,-212.27"/>
</a>
</g>
<text text-anchor="middle" x="211" y="-210.22" font-family="ui-monospace,monospace" font-size="10.00" fill="grey"> displayName</text>
</g>
<!-- Node4 -->
<g id="Node000004" class="node">
<title>Node4</title>
<g id="a_Node000004"><a target="_parent" xlink:href="http://en.cppreference.com/w/cpp/utility/optional.html" xlink:title=" ">
<polygon fill="white" stroke="#bfbfbf" points="148,-190.88 0,-190.88 0,-171.62 148,-171.62 148,-190.88"/>
<text text-anchor="middle" x="74" y="-177.38" font-family="ui-monospace,monospace" font-size="10.00">optional&lt; jngl::Vec2 &gt;</text>
</a>
</g>
</g>
<!-- Node4&#45;&gt;Node1 -->
<g id="edge3_Node000001_Node000004" class="edge">
<title>Node4&#45;&gt;Node1</title>
<g id="a_edge3_Node000001_Node000004"><a xlink:title=" ">
<path fill="none" stroke="#9a32cd" stroke-dasharray="5,2" d="M159.29,-172.15C189.81,-168.55 224.52,-164.11 256,-159.25 261.7,-158.37 267.67,-157.37 273.57,-156.32"/>
<polygon fill="#9a32cd" stroke="#9a32cd" points="159.27,-168.62 149.75,-173.26 160.08,-175.58 159.27,-168.62"/>
</a>
</g>
<text text-anchor="middle" x="211" y="-172.97" font-family="ui-monospace,monospace" font-size="10.00" fill="grey"> screenSize</text>
</g>
<!-- Node5 -->
<g id="Node000005" class="node">
<title>Node5</title>
<g id="a_Node000005"><a target="_parent" xlink:href="http://en.cppreference.com/w/cpp/utility/optional.html" xlink:title=" ">
<polygon fill="white" stroke="#bfbfbf" points="130,-153.88 18,-153.88 18,-134.62 130,-134.62 130,-153.88"/>
<text text-anchor="middle" x="74" y="-140.38" font-family="ui-monospace,monospace" font-size="10.00">optional&lt; bool &gt;</text>
</a>
</g>
</g>
<!-- Node5&#45;&gt;Node1 -->
<g id="edge4_Node000001_Node000005" class="edge">
<title>Node5&#45;&gt;Node1</title>
<g id="a_edge4_Node000001_Node000005"><a xlink:title=" ">
<path fill="none" stroke="#9a32cd" stroke-dasharray="5,2" d="M141.76,-145.07C183.53,-145.58 236.31,-146.23 273.55,-146.68"/>
<polygon fill="#9a32cd" stroke="#9a32cd" points="141.84,-141.57 131.8,-144.95 141.76,-148.57 141.84,-141.57"/>
</a>
</g>
<text text-anchor="middle" x="211" y="-148.2" font-family="ui-monospace,monospace" font-size="10.00" fill="grey"> fullscreen</text>
</g>
<!-- Node6 -->
<g id="Node000006" class="node">
<title>Node6</title>
<g id="a_Node000006"><a target="_parent" xlink:href="http://en.cppreference.com/w/cpp/utility/optional.html" xlink:title=" ">
<polygon fill="white" stroke="#bfbfbf" points="139,-116.5 9,-116.5 9,-86 139,-86 139,-116.5"/>
<text text-anchor="start" x="17" y="-103" font-family="ui-monospace,monospace" font-size="10.00">optional&lt; std::pair</text>
<text text-anchor="middle" x="74" y="-91.75" font-family="ui-monospace,monospace" font-size="10.00">&lt; int, int &gt; &gt;</text>
</a>
</g>
</g>
<!-- Node6&#45;&gt;Node1 -->
<g id="edge5_Node000001_Node000006" class="edge">
<title>Node6&#45;&gt;Node1</title>
<g id="a_edge5_Node000001_Node000006"><a xlink:title=" ">
<path fill="none" stroke="#9a32cd" stroke-dasharray="5,2" d="M150.48,-103.12C183.33,-105.31 222,-109.79 256,-118.75 272.11,-123 289.31,-130.86 301.81,-137.25"/>
<polygon fill="#9a32cd" stroke="#9a32cd" points="150.83,-99.63 140.64,-102.52 150.41,-106.62 150.83,-99.63"/>
</a>
</g>
<text text-anchor="middle" x="211" y="-131.75" font-family="ui-monospace,monospace" font-size="10.00" fill="grey"> maxAspectRatio</text>
<text text-anchor="middle" x="211" y="-120.5" font-family="ui-monospace,monospace" font-size="10.00" fill="grey">minAspectRatio</text>
</g>
<!-- Node7 -->
<g id="Node000007" class="node">
<title>Node7</title>
<g id="a_Node000007"><a target="_parent" xlink:href="http://en.cppreference.com/w/cpp/utility/optional.html" xlink:title=" ">
<polygon fill="white" stroke="#bfbfbf" points="142,-67.88 6,-67.88 6,-48.62 142,-48.62 142,-67.88"/>
<text text-anchor="middle" x="74" y="-54.38" font-family="ui-monospace,monospace" font-size="10.00">optional&lt; uint32_t &gt;</text>
</a>
</g>
</g>
<!-- Node7&#45;&gt;Node1 -->
<g id="edge6_Node000001_Node000007" class="edge">
<title>Node7&#45;&gt;Node1</title>
<g id="a_edge6_Node000001_Node000007"><a xlink:title=" ">
<path fill="none" stroke="#9a32cd" stroke-dasharray="5,2" d="M153.68,-61.86C186.61,-65.8 224.47,-73.64 256,-89 279.77,-100.58 301.11,-123.77 312.12,-137.13"/>
<polygon fill="#9a32cd" stroke="#9a32cd" points="154.08,-58.38 143.77,-60.78 153.33,-65.34 154.08,-58.38"/>
</a>
</g>
<text text-anchor="middle" x="211" y="-90.75" font-family="ui-monospace,monospace" font-size="10.00" fill="grey"> steamAppId</text>
</g>
<!-- Node8 -->
<g id="Node000008" class="node">
<title>Node8</title>
<g id="a_Node000008"><a target="_parent" xlink:href="http://en.cppreference.com/w/cpp/utility/functional/function.html" xlink:title=" ">
<polygon fill="white" stroke="#bfbfbf" points="145,-30.5 3,-30.5 3,0 145,0 145,-30.5"/>
<text text-anchor="start" x="11" y="-17" font-family="ui-monospace,monospace" font-size="10.00">function&lt; double(int,</text>
<text text-anchor="middle" x="74" y="-5.75" font-family="ui-monospace,monospace" font-size="10.00"> int)&gt;</text>
</a>
</g>
</g>
<!-- Node8&#45;&gt;Node1 -->
<g id="edge7_Node000001_Node000008" class="edge">
<title>Node8&#45;&gt;Node1</title>
<g id="a_edge7_Node000001_Node000008"><a xlink:title=" ">
<path fill="none" stroke="#9a32cd" stroke-dasharray="5,2" d="M156.29,-16.65C189.5,-20.56 226.86,-29.54 256,-49 289.18,-71.16 309.07,-116.98 316.57,-137.24"/>
<polygon fill="#9a32cd" stroke="#9a32cd" points="157.01,-13.2 146.71,-15.66 156.3,-20.17 157.01,-13.2"/>
</a>
</g>
<text text-anchor="middle" x="211" y="-50.75" font-family="ui-monospace,monospace" font-size="10.00" fill="grey"> scaleFactor</text>
</g>
</g>
</svg>
