<?xml version="1.0" encoding="UTF-8" standalone="no"?>
<!DOCTYPE svg PUBLIC "-//W3C//DTD SVG 1.1//EN"
 "http://www.w3.org/Graphics/SVG/1.1/DTD/svg11.dtd">
<!-- Generated by graphviz version 9.0.0 (20230911.1827)
 -->
<!-- Title: AppParameters Pages: 1 -->
<svg width="376pt" height="236pt"
 viewBox="0.00 0.00 376.00 235.88" xmlns="http://www.w3.org/2000/svg" xmlns:xlink="http://www.w3.org/1999/xlink">
<g id="graph0" class="graph" transform="scale(1 1) rotate(0) translate(4 231.88)">
<title>AppParameters</title>
<!-- Node1 -->
<g id="Node000001" class="node">
<title>Node1</title>
<g id="a_Node000001"><a xlink:title="Parameters used to initialize the main window.">
<polygon fill="#999999" stroke="#666666" points="368,-125.25 274,-125.25 274,-106 368,-106 368,-125.25"/>
<text text-anchor="middle" x="321" y="-111.75" font-family="ui-monospace,monospace" font-size="10.00">AppParameters</text>
</a>
</g>
</g>
<!-- Node2 -->
<g id="Node000002" class="node">
<title>Node2</title>
<g id="a_Node000002"><a target="_parent" xlink:href="http://en.cppreference.com/w/cpp/utility/functional/function.html" xlink:title=" ">
<polygon fill="white" stroke="#bfbfbf" points="145,-227.88 3,-227.88 3,-197.38 145,-197.38 145,-227.88"/>
<text text-anchor="start" x="11" y="-214.38" font-family="ui-monospace,monospace" font-size="10.00">function&lt; std::shared</text>
<text text-anchor="middle" x="74" y="-203.12" font-family="ui-monospace,monospace" font-size="10.00">_ptr&lt; jngl::Work &gt;()&gt;</text>
</a>
</g>
</g>
<!-- Node2&#45;&gt;Node1 -->
<g id="edge1_Node000001_Node000002" class="edge">
<title>Node2&#45;&gt;Node1</title>
<g id="a_edge1_Node000001_Node000002"><a xlink:title=" ">
<path fill="none" stroke="#9a32cd" stroke-dasharray="5,2" d="M156.57,-204.32C188.83,-198.7 225.43,-189.32 256,-173.62 279.48,-161.57 300.92,-138.68 312.03,-125.55"/>
<polygon fill="#9a32cd" stroke="#9a32cd" points="156.15,-200.84 146.85,-205.9 157.28,-207.75 156.15,-200.84"/>
</a>
</g>
<text text-anchor="middle" x="211" y="-203.38" font-family="ui-monospace,monospace" font-size="10.00" fill="grey"> start</text>
</g>
<!-- Node3 -->
<g id="Node000003" class="node">
<title>Node3</title>
<g id="a_Node000003"><a target="_parent" xlink:href="http://en.cppreference.com/w/cpp/string/basic_string.html" xlink:title=" ">
<polygon fill="white" stroke="#bfbfbf" points="100,-179.25 48,-179.25 48,-160 100,-160 100,-179.25"/>
<text text-anchor="middle" x="74" y="-165.75" font-family="ui-monospace,monospace" font-size="10.00">string</text>
</a>
</g>
</g>
<!-- Node3&#45;&gt;Node1 -->
<g id="edge2_Node000001_Node000003" class="edge">
<title>Node3&#45;&gt;Node1</title>
<g id="a_edge2_Node000001_Node000003"><a xlink:title=" ">
<path fill="none" stroke="#9a32cd" stroke-dasharray="5,2" d="M111.43,-166.1C148.33,-162 206.82,-154.01 256,-140.62 270.16,-136.77 285.49,-130.85 297.59,-125.74"/>
<polygon fill="#9a32cd" stroke="#9a32cd" points="111.32,-162.59 101.75,-167.14 112.07,-169.55 111.32,-162.59"/>
</a>
</g>
<text text-anchor="middle" x="211" y="-160.38" font-family="ui-monospace,monospace" font-size="10.00" fill="grey"> displayName</text>
</g>
<!-- Node4 -->
<g id="Node000004" class="node">
<title>Node4</title>
<g id="a_Node000004"><a target="_parent" xlink:href="http://en.cppreference.com/w/cpp/utility/optional.html" xlink:title=" ">
<polygon fill="white" stroke="#bfbfbf" points="148,-142.25 0,-142.25 0,-123 148,-123 148,-142.25"/>
<text text-anchor="middle" x="74" y="-128.75" font-family="ui-monospace,monospace" font-size="10.00">optional&lt; jngl::Vec2 &gt;</text>
</a>
</g>
</g>
<!-- Node4&#45;&gt;Node1 -->
<g id="edge3_Node000001_Node000004" class="edge">
<title>Node4&#45;&gt;Node1</title>
<g id="a_edge3_Node000001_Node000004"><a xlink:title=" ">
<path fill="none" stroke="#9a32cd" stroke-dasharray="5,2" d="M159.35,-126.77C197.71,-124.11 241.6,-121.07 273.8,-118.83"/>
<polygon fill="#9a32cd" stroke="#9a32cd" points="159.42,-123.26 149.69,-127.44 159.9,-130.24 159.42,-123.26"/>
</a>
</g>
<text text-anchor="middle" x="211" y="-127.38" font-family="ui-monospace,monospace" font-size="10.00" fill="grey"> screenSize</text>
</g>
<!-- Node5 -->
<g id="Node000005" class="node">
<title>Node5</title>
<g id="a_Node000005"><a target="_parent" xlink:href="http://en.cppreference.com/w/cpp/utility/optional.html" xlink:title=" ">
<polygon fill="white" stroke="#bfbfbf" points="130,-105.25 18,-105.25 18,-86 130,-86 130,-105.25"/>
<text text-anchor="middle" x="74" y="-91.75" font-family="ui-monospace,monospace" font-size="10.00">optional&lt; bool &gt;</text>
</a>
</g>
</g>
<!-- Node5&#45;&gt;Node1 -->
<g id="edge4_Node000001_Node000005" class="edge">
<title>Node5&#45;&gt;Node1</title>
<g id="a_edge4_Node000001_Node000005"><a xlink:title=" ">
<path fill="none" stroke="#9a32cd" stroke-dasharray="5,2" d="M141.49,-96.84C175.78,-97.97 218.22,-100.16 256,-104.38 261.72,-105.01 267.7,-105.84 273.61,-106.76"/>
<polygon fill="#9a32cd" stroke="#9a32cd" points="141.81,-93.35 131.71,-96.54 141.6,-100.35 141.81,-93.35"/>
</a>
</g>
<text text-anchor="middle" x="211" y="-105.38" font-family="ui-monospace,monospace" font-size="10.00" fill="grey"> fullscreen</text>
</g>
<!-- Node6 -->
<g id="Node000006" class="node">
<title>Node6</title>
<g id="a_Node000006"><a target="_parent" xlink:href="http://en.cppreference.com/w/cpp/utility/optional.html" xlink:title=" ">
<polygon fill="white" stroke="#bfbfbf" points="139,-67.88 9,-67.88 9,-37.38 139,-37.38 139,-67.88"/>
<text text-anchor="start" x="17" y="-54.38" font-family="ui-monospace,monospace" font-size="10.00">optional&lt; std::pair</text>
<text text-anchor="middle" x="74" y="-43.12" font-family="ui-monospace,monospace" font-size="10.00">&lt; int, int &gt; &gt;</text>
</a>
</g>
</g>
<!-- Node6&#45;&gt;Node1 -->
<g id="edge5_Node000001_Node000006" class="edge">
<title>Node6&#45;&gt;Node1</title>
<g id="a_edge5_Node000001_Node000006"><a xlink:title=" ">
<path fill="none" stroke="#9a32cd" stroke-dasharray="5,2" d="M150.66,-51.92C183.85,-53.74 222.75,-58.81 256,-71.12 276.81,-78.83 297.22,-94.93 309.21,-105.5"/>
<polygon fill="#9a32cd" stroke="#9a32cd" points="150.83,-48.43 140.68,-51.48 150.52,-55.42 150.83,-48.43"/>
</a>
</g>
<text text-anchor="middle" x="211" y="-83.62" font-family="ui-monospace,monospace" font-size="10.00" fill="grey"> maxAspectRatio</text>
<text text-anchor="middle" x="211" y="-72.38" font-family="ui-monospace,monospace" font-size="10.00" fill="grey">minAspectRatio</text>
</g>
<!-- Node7 -->
<g id="Node000007" class="node">
<title>Node7</title>
<g id="a_Node000007"><a target="_parent" xlink:href="http://en.cppreference.com/w/cpp/utility/optional.html" xlink:title=" ">
<polygon fill="white" stroke="#bfbfbf" points="142,-19.25 6,-19.25 6,0 142,0 142,-19.25"/>
<text text-anchor="middle" x="74" y="-5.75" font-family="ui-monospace,monospace" font-size="10.00">optional&lt; uint32_t &gt;</text>
</a>
</g>
</g>
<!-- Node7&#45;&gt;Node1 -->
<g id="edge6_Node000001_Node000007" class="edge">
<title>Node7&#45;&gt;Node1</title>
<g id="a_edge6_Node000001_Node000007"><a xlink:title=" ">
<path fill="none" stroke="#9a32cd" stroke-dasharray="5,2" d="M153.56,-9.38C186.98,-12.29 225.24,-19.82 256,-37.38 284.81,-53.82 305.96,-88.63 315.06,-105.73"/>
<polygon fill="#9a32cd" stroke="#9a32cd" points="154.17,-5.91 143.94,-8.67 153.66,-12.9 154.17,-5.91"/>
</a>
</g>
<text text-anchor="middle" x="211" y="-39.38" font-family="ui-monospace,monospace" font-size="10.00" fill="grey"> steamAppId</text>
</g>
</g>
</svg>
