<?xml version="1.0" encoding="UTF-8" standalone="no"?>
<!DOCTYPE svg PUBLIC "-//W3C//DTD SVG 1.1//EN"
 "http://www.w3.org/Graphics/SVG/1.1/DTD/svg11.dtd">
<!-- Generated by graphviz version 5.0.0 (0)
 -->
<!-- Title: AppParameters Pages: 1 -->
<svg width="379pt" height="162pt"
 viewBox="0.00 0.00 379.00 162.00" xmlns="http://www.w3.org/2000/svg" xmlns:xlink="http://www.w3.org/1999/xlink">
<g id="graph0" class="graph" transform="scale(1 1) rotate(0) translate(4 158)">
<title>AppParameters</title>
<!-- Node1 -->
<g id="node1" class="node">
<title>Node1</title>
<g id="a_node1"><a xlink:title="Parameters used to initialize the main window.">
<polygon fill="#999999" stroke="#666666" points="371,-87.5 276,-87.5 276,-68.5 371,-68.5 371,-87.5"/>
<text text-anchor="middle" x="323.5" y="-75.5" font-family="ui-monospace,monospace" font-size="10.00">AppParameters</text>
</a>
</g>
</g>
<!-- Node2 -->
<g id="node2" class="node">
<title>Node2</title>
<g id="a_node2"><a target="_parent" xlink:href="http://en.cppreference.com/w/cpp/utility/functional/function.html" xlink:title=" ">
<polygon fill="white" stroke="#bfbfbf" points="146,-154 3,-154 3,-124 146,-124 146,-154"/>
<text text-anchor="start" x="11" y="-142" font-family="ui-monospace,monospace" font-size="10.00">function&lt; std::shared</text>
<text text-anchor="middle" x="74.5" y="-131" font-family="ui-monospace,monospace" font-size="10.00">_ptr&lt; jngl::Work &gt;()&gt;</text>
</a>
</g>
</g>
<!-- Node2&#45;&gt;Node1 -->
<g id="edge1" class="edge">
<title>Node2&#45;&gt;Node1</title>
<path fill="none" stroke="#9a32cd" stroke-dasharray="5,2" d="M156.23,-126.98C188.25,-121.32 225.19,-113.66 258,-104 272.94,-99.6 289.2,-93.03 301.66,-87.6"/>
<polygon fill="#9a32cd" stroke="#9a32cd" points="155.28,-123.6 146.02,-128.75 156.47,-130.5 155.28,-123.6"/>
<text text-anchor="middle" x="212.5" y="-127" font-family="ui-monospace,monospace" font-size="10.00"> start</text>
</g>
<!-- Node3 -->
<g id="node3" class="node">
<title>Node3</title>
<g id="a_node3"><a target="_parent" xlink:href="http://en.cppreference.com/w/cpp/string/basic_string.html" xlink:title=" ">
<polygon fill="white" stroke="#bfbfbf" points="101,-105.5 48,-105.5 48,-86.5 101,-86.5 101,-105.5"/>
<text text-anchor="middle" x="74.5" y="-93.5" font-family="ui-monospace,monospace" font-size="10.00">string</text>
</a>
</g>
</g>
<!-- Node3&#45;&gt;Node1 -->
<g id="edge2" class="edge">
<title>Node3&#45;&gt;Node1</title>
<path fill="none" stroke="#9a32cd" stroke-dasharray="5,2" d="M111.09,-93.41C154.45,-90.25 227.84,-84.9 275.73,-81.41"/>
<polygon fill="#9a32cd" stroke="#9a32cd" points="110.72,-89.92 101,-94.14 111.23,-96.91 110.72,-89.92"/>
<text text-anchor="middle" x="212.5" y="-92" font-family="ui-monospace,monospace" font-size="10.00"> displayName</text>
</g>
<!-- Node4 -->
<g id="node4" class="node">
<title>Node4</title>
<g id="a_node4"><a target="_parent" xlink:href="http://en.cppreference.com/w/cpp/utility/optional.html" xlink:title=" ">
<polygon fill="white" stroke="#bfbfbf" points="149,-68.5 0,-68.5 0,-49.5 149,-49.5 149,-68.5"/>
<text text-anchor="middle" x="74.5" y="-56.5" font-family="ui-monospace,monospace" font-size="10.00">optional&lt; jngl::Vec2 &gt;</text>
</a>
</g>
</g>
<!-- Node4&#45;&gt;Node1 -->
<g id="edge3" class="edge">
<title>Node4&#45;&gt;Node1</title>
<path fill="none" stroke="#9a32cd" stroke-dasharray="5,2" d="M159.69,-60.49C190.66,-61.62 225.98,-63.58 258,-67 263.76,-67.62 269.79,-68.42 275.74,-69.32"/>
<polygon fill="#9a32cd" stroke="#9a32cd" points="159.47,-56.98 149.36,-60.14 159.23,-63.98 159.47,-56.98"/>
<text text-anchor="middle" x="212.5" y="-70" font-family="ui-monospace,monospace" font-size="10.00"> screenSize</text>
</g>
<!-- Node5 -->
<g id="node5" class="node">
<title>Node5</title>
<g id="a_node5"><a target="_parent" xlink:href="http://en.cppreference.com/w/cpp/utility/optional.html" xlink:title=" ">
<polygon fill="white" stroke="#bfbfbf" points="140,-30 9,-30 9,0 140,0 140,-30"/>
<text text-anchor="start" x="17" y="-18" font-family="ui-monospace,monospace" font-size="10.00">optional&lt; std::pair</text>
<text text-anchor="middle" x="74.5" y="-7" font-family="ui-monospace,monospace" font-size="10.00">&lt; int, int &gt; &gt;</text>
</a>
</g>
</g>
<!-- Node5&#45;&gt;Node1 -->
<g id="edge4" class="edge">
<title>Node5&#45;&gt;Node1</title>
<path fill="none" stroke="#9a32cd" stroke-dasharray="5,2" d="M150.42,-14.53C184.17,-16.4 223.98,-21.54 258,-34 279.13,-41.74 299.98,-57.94 312.02,-68.38"/>
<polygon fill="#9a32cd" stroke="#9a32cd" points="150.31,-11.02 140.16,-14.06 149.99,-18.02 150.31,-11.02"/>
<text text-anchor="middle" x="212.5" y="-48" font-family="ui-monospace,monospace" font-size="10.00"> maxAspectRatio</text>
<text text-anchor="middle" x="212.5" y="-37" font-family="ui-monospace,monospace" font-size="10.00">minAspectRatio</text>
</g>
</g>
</svg>
