<?xml version="1.0" encoding="UTF-8" standalone="no"?>
<!DOCTYPE svg PUBLIC "-//W3C//DTD SVG 1.1//EN"
 "http://www.w3.org/Graphics/SVG/1.1/DTD/svg11.dtd">
<!-- Generated by graphviz version 2.43.0 (0)
 -->
<!-- Title: AppParameters Pages: 1 -->
<svg width="399pt" height="117pt"
 viewBox="0.00 0.00 398.50 117.00" xmlns="http://www.w3.org/2000/svg" xmlns:xlink="http://www.w3.org/1999/xlink">
<g id="graph0" class="graph" transform="scale(1 1) rotate(0) translate(4 113)">
<title>AppParameters</title>
<polygon fill="white" stroke="transparent" points="-4,4 -4,-113 394.5,-113 394.5,4 -4,4"/>
<!-- Node1 -->
<g id="node1" class="node">
<title>Node1</title>
<g id="a_node1"><a xlink:title="Parameters used to initialize the main window.">
<polygon fill="#bfbfbf" stroke="black" points="176,-0.5 176,-19.5 271,-19.5 271,-0.5 176,-0.5"/>
<text text-anchor="middle" x="223.5" y="-7.5" font-family="'Consolas',monospace" font-size="10.00">AppParameters</text>
</a>
</g>
</g>
<!-- Node2 -->
<g id="node2" class="node">
<title>Node2</title>
<g id="a_node2"><a target="_parent" xlink:href="http://en.cppreference.com/w/cpp/utility/optional.html" xlink:title=" ">
<polygon fill="white" stroke="black" points="0,-78.5 0,-108.5 131,-108.5 131,-78.5 0,-78.5"/>
<text text-anchor="start" x="8" y="-96.5" font-family="'Consolas',monospace" font-size="10.00">optional&lt; std::pair</text>
<text text-anchor="middle" x="65.5" y="-85.5" font-family="'Consolas',monospace" font-size="10.00">&lt; int, int &gt; &gt;</text>
</a>
</g>
</g>
<!-- Node2&#45;&gt;Node1 -->
<g id="edge1" class="edge">
<title>Node2&#45;&gt;Node1</title>
<path fill="none" stroke="#9a32cd" stroke-dasharray="5,2" d="M85.58,-71.07C97.17,-59.81 112.58,-46.6 128.5,-38 143.89,-29.69 162.1,-23.72 178.43,-19.54"/>
<polygon fill="#9a32cd" stroke="#9a32cd" points="82.78,-68.92 78.2,-78.48 87.74,-73.86 82.78,-68.92"/>
<text text-anchor="middle" x="174" y="-52" font-family="'Consolas',monospace" font-size="10.00"> maxAspectRatio</text>
<text text-anchor="middle" x="174" y="-41" font-family="'Consolas',monospace" font-size="10.00">minAspectRatio</text>
</g>
<!-- Node3 -->
<g id="node3" class="node">
<title>Node3</title>
<g id="a_node3"><a target="_parent" xlink:href="http://en.cppreference.com/w/cpp/utility/optional.html" xlink:title=" ">
<polygon fill="white" stroke="black" points="149,-84 149,-103 298,-103 298,-84 149,-84"/>
<text text-anchor="middle" x="223.5" y="-91" font-family="'Consolas',monospace" font-size="10.00">optional&lt; jngl::Vec2 &gt;</text>
</a>
</g>
</g>
<!-- Node3&#45;&gt;Node1 -->
<g id="edge2" class="edge">
<title>Node3&#45;&gt;Node1</title>
<path fill="none" stroke="#9a32cd" stroke-dasharray="5,2" d="M223.5,-73.38C223.5,-56.4 223.5,-32.37 223.5,-19.66"/>
<polygon fill="#9a32cd" stroke="#9a32cd" points="220,-73.78 223.5,-83.78 227,-73.78 220,-73.78"/>
<text text-anchor="middle" x="257" y="-46.5" font-family="'Consolas',monospace" font-size="10.00"> screenSize</text>
</g>
<!-- Node4 -->
<g id="node4" class="node">
<title>Node4</title>
<g id="a_node4"><a target="_parent" xlink:href="http://en.cppreference.com/w/cpp/string/basic_string.html" xlink:title=" ">
<polygon fill="white" stroke="black" points="316,-84 316,-103 369,-103 369,-84 316,-84"/>
<text text-anchor="middle" x="342.5" y="-91" font-family="'Consolas',monospace" font-size="10.00">string</text>
</a>
</g>
</g>
<!-- Node4&#45;&gt;Node1 -->
<g id="edge3" class="edge">
<title>Node4&#45;&gt;Node1</title>
<path fill="none" stroke="#9a32cd" stroke-dasharray="5,2" d="M331.15,-75.73C322.35,-63.82 309.2,-48.19 294.5,-38 282.79,-29.89 268.33,-23.81 255.52,-19.5"/>
<polygon fill="#9a32cd" stroke="#9a32cd" points="328.35,-77.83 336.98,-83.97 334.06,-73.78 328.35,-77.83"/>
<text text-anchor="middle" x="354" y="-46.5" font-family="'Consolas',monospace" font-size="10.00"> displayName</text>
</g>
</g>
</svg>
