<?xml version="1.0" encoding="UTF-8" standalone="no"?>
<!DOCTYPE svg PUBLIC "-//W3C//DTD SVG 1.1//EN"
 "http://www.w3.org/Graphics/SVG/1.1/DTD/svg11.dtd">
<!-- Generated by graphviz version 5.0.0 (0)
 -->
<!-- Title: AppParameters Pages: 1 -->
<svg width="379pt" height="200pt"
 viewBox="0.00 0.00 379.00 199.50" xmlns="http://www.w3.org/2000/svg" xmlns:xlink="http://www.w3.org/1999/xlink">
<g id="graph0" class="graph" transform="scale(1 1) rotate(0) translate(4 195.5)">
<title>AppParameters</title>
<!-- Node1 -->
<g id="node1" class="node">
<title>Node1</title>
<g id="a_node1"><a xlink:title="Parameters used to initialize the main window.">
<polygon fill="#999999" stroke="#666666" points="371,-107 276,-107 276,-88 371,-88 371,-107"/>
<text text-anchor="middle" x="323.5" y="-95" font-family="ui-monospace,monospace" font-size="10.00">AppParameters</text>
</a>
</g>
</g>
<!-- Node2 -->
<g id="node2" class="node">
<title>Node2</title>
<g id="a_node2"><a target="_parent" xlink:href="http://en.cppreference.com/w/cpp/utility/functional/function.html" xlink:title=" ">
<polygon fill="white" stroke="#bfbfbf" points="146,-191.5 3,-191.5 3,-161.5 146,-161.5 146,-191.5"/>
<text text-anchor="start" x="11" y="-179.5" font-family="ui-monospace,monospace" font-size="10.00">function&lt; std::shared</text>
<text text-anchor="middle" x="74.5" y="-168.5" font-family="ui-monospace,monospace" font-size="10.00">_ptr&lt; jngl::Work &gt;()&gt;</text>
</a>
</g>
</g>
<!-- Node2&#45;&gt;Node1 -->
<g id="edge1" class="edge">
<title>Node2&#45;&gt;Node1</title>
<path fill="none" stroke="#9a32cd" stroke-dasharray="5,2" d="M156.04,-166.17C188.5,-160.37 225.8,-151.58 258,-138.5 277.67,-130.51 297.95,-116.49 310.39,-107.1"/>
<polygon fill="#9a32cd" stroke="#9a32cd" points="155.4,-162.73 146.14,-167.88 156.59,-169.63 155.4,-162.73"/>
<text text-anchor="middle" x="212.5" y="-166.5" font-family="ui-monospace,monospace" font-size="10.00"> start</text>
</g>
<!-- Node3 -->
<g id="node3" class="node">
<title>Node3</title>
<g id="a_node3"><a target="_parent" xlink:href="http://en.cppreference.com/w/cpp/string/basic_string.html" xlink:title=" ">
<polygon fill="white" stroke="#bfbfbf" points="101,-143 48,-143 48,-124 101,-124 101,-143"/>
<text text-anchor="middle" x="74.5" y="-131" font-family="ui-monospace,monospace" font-size="10.00">string</text>
</a>
</g>
</g>
<!-- Node3&#45;&gt;Node1 -->
<g id="edge2" class="edge">
<title>Node3&#45;&gt;Node1</title>
<path fill="none" stroke="#9a32cd" stroke-dasharray="5,2" d="M111.56,-130.16C148.48,-126.51 207.45,-120.01 258,-111.5 265.57,-110.22 273.6,-108.66 281.32,-107.04"/>
<polygon fill="#9a32cd" stroke="#9a32cd" points="110.91,-126.71 101.3,-131.16 111.59,-133.67 110.91,-126.71"/>
<text text-anchor="middle" x="212.5" y="-126.5" font-family="ui-monospace,monospace" font-size="10.00"> displayName</text>
</g>
<!-- Node4 -->
<g id="node4" class="node">
<title>Node4</title>
<g id="a_node4"><a target="_parent" xlink:href="http://en.cppreference.com/w/cpp/utility/optional.html" xlink:title=" ">
<polygon fill="white" stroke="#bfbfbf" points="149,-106 0,-106 0,-87 149,-87 149,-106"/>
<text text-anchor="middle" x="74.5" y="-94" font-family="ui-monospace,monospace" font-size="10.00">optional&lt; jngl::Vec2 &gt;</text>
</a>
</g>
</g>
<!-- Node4&#45;&gt;Node1 -->
<g id="edge3" class="edge">
<title>Node4&#45;&gt;Node1</title>
<path fill="none" stroke="#9a32cd" stroke-dasharray="5,2" d="M159.55,-96.84C198.45,-97 243.18,-97.18 275.92,-97.31"/>
<polygon fill="#9a32cd" stroke="#9a32cd" points="159.29,-93.34 149.27,-96.8 159.26,-100.34 159.29,-93.34"/>
<text text-anchor="middle" x="212.5" y="-99.5" font-family="ui-monospace,monospace" font-size="10.00"> screenSize</text>
</g>
<!-- Node5 -->
<g id="node5" class="node">
<title>Node5</title>
<g id="a_node5"><a target="_parent" xlink:href="http://en.cppreference.com/w/cpp/utility/optional.html" xlink:title=" ">
<polygon fill="white" stroke="#bfbfbf" points="140,-67.5 9,-67.5 9,-37.5 140,-37.5 140,-67.5"/>
<text text-anchor="start" x="17" y="-55.5" font-family="ui-monospace,monospace" font-size="10.00">optional&lt; std::pair</text>
<text text-anchor="middle" x="74.5" y="-44.5" font-family="ui-monospace,monospace" font-size="10.00">&lt; int, int &gt; &gt;</text>
</a>
</g>
</g>
<!-- Node5&#45;&gt;Node1 -->
<g id="edge4" class="edge">
<title>Node5&#45;&gt;Node1</title>
<path fill="none" stroke="#9a32cd" stroke-dasharray="5,2" d="M150.22,-54.84C183.59,-57.17 223.17,-61.7 258,-70.5 274.01,-74.54 291.21,-81.91 303.82,-87.93"/>
<polygon fill="#9a32cd" stroke="#9a32cd" points="150.27,-51.34 140.07,-54.19 149.82,-58.32 150.27,-51.34"/>
<text text-anchor="middle" x="212.5" y="-84.5" font-family="ui-monospace,monospace" font-size="10.00"> maxAspectRatio</text>
<text text-anchor="middle" x="212.5" y="-73.5" font-family="ui-monospace,monospace" font-size="10.00">minAspectRatio</text>
</g>
<!-- Node6 -->
<g id="node6" class="node">
<title>Node6</title>
<g id="a_node6"><a target="_parent" xlink:href="http://en.cppreference.com/w/cpp/utility/optional.html" xlink:title=" ">
<polygon fill="white" stroke="#bfbfbf" points="143,-19 6,-19 6,0 143,0 143,-19"/>
<text text-anchor="middle" x="74.5" y="-7" font-family="ui-monospace,monospace" font-size="10.00">optional&lt; uint32_t &gt;</text>
</a>
</g>
</g>
<!-- Node6&#45;&gt;Node1 -->
<g id="edge5" class="edge">
<title>Node6&#45;&gt;Node1</title>
<path fill="none" stroke="#9a32cd" stroke-dasharray="5,2" d="M153.42,-13.21C186.91,-17.17 225.68,-25.05 258,-40.5 281.73,-51.85 303.32,-74.53 314.49,-87.6"/>
<polygon fill="#9a32cd" stroke="#9a32cd" points="153.54,-9.7 143.22,-12.1 152.78,-16.66 153.54,-9.7"/>
<text text-anchor="middle" x="212.5" y="-43.5" font-family="ui-monospace,monospace" font-size="10.00"> steamAppId</text>
</g>
</g>
</svg>
