<?xml version="1.0" encoding="UTF-8" standalone="no"?>
<!DOCTYPE svg PUBLIC "-//W3C//DTD SVG 1.1//EN"
 "http://www.w3.org/Graphics/SVG/1.1/DTD/svg11.dtd">
<!-- Generated by graphviz version 5.0.0 (0)
 -->
<!-- Title: Achievement Pages: 1 -->
<svg width="255pt" height="126pt"
 viewBox="0.00 0.00 254.50 126.00" xmlns="http://www.w3.org/2000/svg" xmlns:xlink="http://www.w3.org/1999/xlink">
<g id="graph0" class="graph" transform="scale(1 1) rotate(0) translate(4 122)">
<title>Achievement</title>
<!-- Node1 -->
<g id="node1" class="node">
<title>Node1</title>
<g id="a_node1"><a xlink:title="Unlockable Achievement (also called Trophy)">
<polygon fill="#999999" stroke="#666666" points="123,-19 40,-19 40,0 123,0 123,-19"/>
<text text-anchor="middle" x="81.5" y="-7" font-family="ui-monospace,monospace" font-size="10.00">Achievement</text>
</a>
</g>
</g>
<!-- Node2 -->
<g id="node2" class="node">
<title>Node2</title>
<g id="a_node2"><a target="_parent" xlink:href="http://en.cppreference.com/w/cpp/string/basic_string.html" xlink:title=" ">
<polygon fill="white" stroke="#bfbfbf" points="53,-118 0,-118 0,-99 53,-99 53,-118"/>
<text text-anchor="middle" x="26.5" y="-106" font-family="ui-monospace,monospace" font-size="10.00">string</text>
</a>
</g>
</g>
<!-- Node2&#45;&gt;Node1 -->
<g id="edge1" class="edge">
<title>Node2&#45;&gt;Node1</title>
<path fill="none" stroke="#9a32cd" stroke-dasharray="5,2" d="M26.69,-88.69C27.68,-73.54 31.06,-52.33 41.5,-37 46.66,-29.43 54.77,-23.47 62.34,-19.14"/>
<polygon fill="#9a32cd" stroke="#9a32cd" points="23.18,-88.76 26.31,-98.88 30.18,-89.02 23.18,-88.76"/>
<text text-anchor="middle" x="78" y="-73" font-family="ui-monospace,monospace" font-size="10.00"> description</text>
<text text-anchor="middle" x="78" y="-62" font-family="ui-monospace,monospace" font-size="10.00">icon</text>
<text text-anchor="middle" x="78" y="-51" font-family="ui-monospace,monospace" font-size="10.00">id</text>
<text text-anchor="middle" x="78" y="-40" font-family="ui-monospace,monospace" font-size="10.00">name</text>
</g>
<!-- Node3 -->
<g id="node3" class="node">
<title>Node3</title>
<g id="a_node3"><a target="_parent" xlink:href="http://en.cppreference.com/w/cpp/utility/functional/function.html" xlink:title=" ">
<polygon fill="white" stroke="#bfbfbf" points="202,-118 71,-118 71,-99 202,-99 202,-118"/>
<text text-anchor="middle" x="136.5" y="-106" font-family="ui-monospace,monospace" font-size="10.00">function&lt; int(int)&gt;</text>
</a>
</g>
</g>
<!-- Node3&#45;&gt;Node1 -->
<g id="edge2" class="edge">
<title>Node3&#45;&gt;Node1</title>
<path fill="none" stroke="#9a32cd" stroke-dasharray="5,2" d="M133.78,-88.88C130.89,-73.85 125.2,-52.7 114.5,-37 109.62,-29.84 102.22,-23.65 95.67,-19.05"/>
<polygon fill="#9a32cd" stroke="#9a32cd" points="130.37,-89.71 135.48,-98.99 137.27,-88.55 130.37,-89.71"/>
<text text-anchor="middle" x="189" y="-56.5" font-family="ui-monospace,monospace" font-size="10.00"> customDisplayValue</text>
</g>
</g>
</svg>
