<?xml version="1.0" encoding="UTF-8" standalone="no"?>
<!DOCTYPE svg PUBLIC "-//W3C//DTD SVG 1.1//EN"
 "http://www.w3.org/Graphics/SVG/1.1/DTD/svg11.dtd">
<!-- Generated by graphviz version 9.0.0 (20230911.1827)
 -->
<!-- Title: Achievement Pages: 1 -->
<svg width="252pt" height="128pt"
 viewBox="0.00 0.00 252.00 127.50" xmlns="http://www.w3.org/2000/svg" xmlns:xlink="http://www.w3.org/1999/xlink">
<g id="graph0" class="graph" transform="scale(1 1) rotate(0) translate(4 123.5)">
<title>Achievement</title>
<!-- Node1 -->
<g id="Node000001" class="node">
<title>Node1</title>
<g id="a_Node000001"><a xlink:title="Represents one unlockable Achievement (aka Trophy)">
<polygon fill="#999999" stroke="#666666" points="121,-19.25 39,-19.25 39,0 121,0 121,-19.25"/>
<text text-anchor="middle" x="80" y="-5.75" font-family="ui-monospace,monospace" font-size="10.00">Achievement</text>
</a>
</g>
</g>
<!-- Node2 -->
<g id="Node000002" class="node">
<title>Node2</title>
<g id="a_Node000002"><a target="_parent" xlink:href="http://en.cppreference.com/w/cpp/string/basic_string.html" xlink:title=" ">
<polygon fill="white" stroke="#bfbfbf" points="52,-119.5 0,-119.5 0,-100.25 52,-100.25 52,-119.5"/>
<text text-anchor="middle" x="26" y="-106" font-family="ui-monospace,monospace" font-size="10.00">string</text>
</a>
</g>
</g>
<!-- Node2&#45;&gt;Node1 -->
<g id="edge1_Node000001_Node000002" class="edge">
<title>Node2&#45;&gt;Node1</title>
<g id="a_edge1_Node000001_Node000002"><a xlink:title=" ">
<path fill="none" stroke="#9a32cd" stroke-dasharray="5,2" d="M26.23,-88.89C27.3,-73.6 30.74,-52.6 41,-37.25 45.92,-29.89 53.63,-24 60.9,-19.65"/>
<polygon fill="#9a32cd" stroke="#9a32cd" points="22.75,-88.51 25.86,-98.63 29.74,-88.77 22.75,-88.51"/>
</a>
</g>
<text text-anchor="middle" x="77" y="-72.75" font-family="ui-monospace,monospace" font-size="10.00" fill="grey"> description</text>
<text text-anchor="middle" x="77" y="-61.5" font-family="ui-monospace,monospace" font-size="10.00" fill="grey">icon</text>
<text text-anchor="middle" x="77" y="-50.25" font-family="ui-monospace,monospace" font-size="10.00" fill="grey">id</text>
<text text-anchor="middle" x="77" y="-39" font-family="ui-monospace,monospace" font-size="10.00" fill="grey">name</text>
</g>
<!-- Node3 -->
<g id="Node000003" class="node">
<title>Node3</title>
<g id="a_Node000003"><a target="_parent" xlink:href="http://en.cppreference.com/w/cpp/utility/functional/function.html" xlink:title=" ">
<polygon fill="white" stroke="#bfbfbf" points="200,-119.5 70,-119.5 70,-100.25 200,-100.25 200,-119.5"/>
<text text-anchor="middle" x="135" y="-106" font-family="ui-monospace,monospace" font-size="10.00">function&lt; int(int)&gt;</text>
</a>
</g>
</g>
<!-- Node3&#45;&gt;Node1 -->
<g id="edge2_Node000001_Node000003" class="edge">
<title>Node3&#45;&gt;Node1</title>
<g id="a_edge2_Node000001_Node000003"><a xlink:title=" ">
<path fill="none" stroke="#9a32cd" stroke-dasharray="5,2" d="M132.07,-88.57C129.13,-73.41 123.48,-52.74 113,-37.25 108.3,-30.3 101.24,-24.26 94.85,-19.7"/>
<polygon fill="#9a32cd" stroke="#9a32cd" points="128.59,-88.99 133.69,-98.28 135.49,-87.84 128.59,-88.99"/>
</a>
</g>
<text text-anchor="middle" x="187" y="-55.88" font-family="ui-monospace,monospace" font-size="10.00" fill="grey"> customDisplayValue</text>
</g>
</g>
</svg>
