<?xml version="1.0" encoding="UTF-8" standalone="no"?>
<!DOCTYPE svg PUBLIC "-//W3C//DTD SVG 1.1//EN"
 "http://www.w3.org/Graphics/SVG/1.1/DTD/svg11.dtd">
<!-- Generated by graphviz version 5.0.0 (0)
 -->
<!-- Title: AppParameters Pages: 1 -->
<svg width="379pt" height="236pt"
 viewBox="0.00 0.00 379.00 235.50" xmlns="http://www.w3.org/2000/svg" xmlns:xlink="http://www.w3.org/1999/xlink">
<g id="graph0" class="graph" transform="scale(1 1) rotate(0) translate(4 231.5)">
<title>AppParameters</title>
<!-- Node1 -->
<g id="node1" class="node">
<title>Node1</title>
<g id="a_node1"><a xlink:title="Parameters used to initialize the main window.">
<polygon fill="#999999" stroke="#666666" points="371,-124 276,-124 276,-105 371,-105 371,-124"/>
<text text-anchor="middle" x="323.5" y="-112" font-family="ui-monospace,monospace" font-size="10.00">AppParameters</text>
</a>
</g>
</g>
<!-- Node2 -->
<g id="node2" class="node">
<title>Node2</title>
<g id="a_node2"><a target="_parent" xlink:href="http://en.cppreference.com/w/cpp/utility/functional/function.html" xlink:title=" ">
<polygon fill="white" stroke="#bfbfbf" points="146,-227.5 3,-227.5 3,-197.5 146,-197.5 146,-227.5"/>
<text text-anchor="start" x="11" y="-215.5" font-family="ui-monospace,monospace" font-size="10.00">function&lt; std::shared</text>
<text text-anchor="middle" x="74.5" y="-204.5" font-family="ui-monospace,monospace" font-size="10.00">_ptr&lt; jngl::Work &gt;()&gt;</text>
</a>
</g>
</g>
<!-- Node2&#45;&gt;Node1 -->
<g id="edge1" class="edge">
<title>Node2&#45;&gt;Node1</title>
<path fill="none" stroke="#9a32cd" stroke-dasharray="5,2" d="M156.09,-204.65C189.03,-199.1 226.68,-189.64 258,-173.5 282.01,-161.13 303.82,-137.44 314.87,-124.15"/>
<polygon fill="#9a32cd" stroke="#9a32cd" points="155.36,-201.22 146.03,-206.25 156.46,-208.14 155.36,-201.22"/>
<text text-anchor="middle" x="212.5" y="-204.5" font-family="ui-monospace,monospace" font-size="10.00"> start</text>
</g>
<!-- Node3 -->
<g id="node3" class="node">
<title>Node3</title>
<g id="a_node3"><a target="_parent" xlink:href="http://en.cppreference.com/w/cpp/string/basic_string.html" xlink:title=" ">
<polygon fill="white" stroke="#bfbfbf" points="101,-179 48,-179 48,-160 101,-160 101,-179"/>
<text text-anchor="middle" x="74.5" y="-167" font-family="ui-monospace,monospace" font-size="10.00">string</text>
</a>
</g>
</g>
<!-- Node3&#45;&gt;Node1 -->
<g id="edge2" class="edge">
<title>Node3&#45;&gt;Node1</title>
<path fill="none" stroke="#9a32cd" stroke-dasharray="5,2" d="M111.61,-166.19C148.8,-162.22 208.2,-154.3 258,-140.5 273.24,-136.28 289.77,-129.57 302.29,-124.02"/>
<polygon fill="#9a32cd" stroke="#9a32cd" points="110.87,-162.75 101.28,-167.25 111.58,-169.71 110.87,-162.75"/>
<text text-anchor="middle" x="212.5" y="-161.5" font-family="ui-monospace,monospace" font-size="10.00"> displayName</text>
</g>
<!-- Node4 -->
<g id="node4" class="node">
<title>Node4</title>
<g id="a_node4"><a target="_parent" xlink:href="http://en.cppreference.com/w/cpp/utility/optional.html" xlink:title=" ">
<polygon fill="white" stroke="#bfbfbf" points="149,-142 0,-142 0,-123 149,-123 149,-142"/>
<text text-anchor="middle" x="74.5" y="-130" font-family="ui-monospace,monospace" font-size="10.00">optional&lt; jngl::Vec2 &gt;</text>
</a>
</g>
</g>
<!-- Node4&#45;&gt;Node1 -->
<g id="edge3" class="edge">
<title>Node4&#45;&gt;Node1</title>
<path fill="none" stroke="#9a32cd" stroke-dasharray="5,2" d="M159.55,-126.37C198.45,-123.54 243.18,-120.28 275.92,-117.89"/>
<polygon fill="#9a32cd" stroke="#9a32cd" points="158.99,-122.91 149.27,-127.12 159.5,-129.89 158.99,-122.91"/>
<text text-anchor="middle" x="212.5" y="-128.5" font-family="ui-monospace,monospace" font-size="10.00"> screenSize</text>
</g>
<!-- Node5 -->
<g id="node5" class="node">
<title>Node5</title>
<g id="a_node5"><a target="_parent" xlink:href="http://en.cppreference.com/w/cpp/utility/optional.html" xlink:title=" ">
<polygon fill="white" stroke="#bfbfbf" points="131,-105 18,-105 18,-86 131,-86 131,-105"/>
<text text-anchor="middle" x="74.5" y="-93" font-family="ui-monospace,monospace" font-size="10.00">optional&lt; bool &gt;</text>
</a>
</g>
</g>
<!-- Node5&#45;&gt;Node1 -->
<g id="edge4" class="edge">
<title>Node5&#45;&gt;Node1</title>
<path fill="none" stroke="#9a32cd" stroke-dasharray="5,2" d="M141.18,-96.39C175.98,-97.37 219.4,-99.38 258,-103.5 263.76,-104.12 269.79,-104.92 275.74,-105.82"/>
<polygon fill="#9a32cd" stroke="#9a32cd" points="141.23,-92.89 131.14,-96.14 141.05,-99.89 141.23,-92.89"/>
<text text-anchor="middle" x="212.5" y="-106.5" font-family="ui-monospace,monospace" font-size="10.00"> fullscreen</text>
</g>
<!-- Node6 -->
<g id="node6" class="node">
<title>Node6</title>
<g id="a_node6"><a target="_parent" xlink:href="http://en.cppreference.com/w/cpp/utility/optional.html" xlink:title=" ">
<polygon fill="white" stroke="#bfbfbf" points="140,-67.5 9,-67.5 9,-37.5 140,-37.5 140,-67.5"/>
<text text-anchor="start" x="17" y="-55.5" font-family="ui-monospace,monospace" font-size="10.00">optional&lt; std::pair</text>
<text text-anchor="middle" x="74.5" y="-44.5" font-family="ui-monospace,monospace" font-size="10.00">&lt; int, int &gt; &gt;</text>
</a>
</g>
</g>
<!-- Node6&#45;&gt;Node1 -->
<g id="edge5" class="edge">
<title>Node6&#45;&gt;Node1</title>
<path fill="none" stroke="#9a32cd" stroke-dasharray="5,2" d="M150.41,-51.54C184.15,-53.2 223.97,-58.14 258,-70.5 279.15,-78.18 299.99,-94.4 312.03,-104.86"/>
<polygon fill="#9a32cd" stroke="#9a32cd" points="150.28,-48.03 140.15,-51.13 150,-55.03 150.28,-48.03"/>
<text text-anchor="middle" x="212.5" y="-84.5" font-family="ui-monospace,monospace" font-size="10.00"> maxAspectRatio</text>
<text text-anchor="middle" x="212.5" y="-73.5" font-family="ui-monospace,monospace" font-size="10.00">minAspectRatio</text>
</g>
<!-- Node7 -->
<g id="node7" class="node">
<title>Node7</title>
<g id="a_node7"><a target="_parent" xlink:href="http://en.cppreference.com/w/cpp/utility/optional.html" xlink:title=" ">
<polygon fill="white" stroke="#bfbfbf" points="143,-19 6,-19 6,0 143,0 143,-19"/>
<text text-anchor="middle" x="74.5" y="-7" font-family="ui-monospace,monospace" font-size="10.00">optional&lt; uint32_t &gt;</text>
</a>
</g>
</g>
<!-- Node7&#45;&gt;Node1 -->
<g id="edge6" class="edge">
<title>Node7&#45;&gt;Node1</title>
<path fill="none" stroke="#9a32cd" stroke-dasharray="5,2" d="M153.74,-9.36C187.62,-12.27 226.61,-19.82 258,-37.5 286.72,-53.67 308.19,-87.93 317.46,-104.76"/>
<polygon fill="#9a32cd" stroke="#9a32cd" points="153.63,-5.84 143.4,-8.6 153.12,-12.82 153.63,-5.84"/>
<text text-anchor="middle" x="212.5" y="-40.5" font-family="ui-monospace,monospace" font-size="10.00"> steamAppId</text>
</g>
</g>
</svg>
