<?xml version="1.0" encoding="UTF-8" standalone="no"?>
<!DOCTYPE svg PUBLIC "-//W3C//DTD SVG 1.1//EN"
 "http://www.w3.org/Graphics/SVG/1.1/DTD/svg11.dtd">
<!-- Generated by graphviz version 12.1.0 (20240811.2233)
 -->
<!-- Title: AppParameters Pages: 1 -->
<svg width="376pt" height="236pt"
 viewBox="0.00 0.00 376.00 235.88" xmlns="http://www.w3.org/2000/svg" xmlns:xlink="http://www.w3.org/1999/xlink">
<g id="graph0" class="graph" transform="scale(1 1) rotate(0) translate(4 231.88)">
<title>AppParameters</title>
<!-- Node1 -->
<g id="Node000001" class="node">
<title>Node1</title>
<g id="a_Node000001"><a xlink:title="Parameters used to initialize the main window.">
<polygon fill="#999999" stroke="#666666" points="368,-125.25 274,-125.25 274,-106 368,-106 368,-125.25"/>
<text text-anchor="middle" x="321" y="-111.75" font-family="ui-monospace,monospace" font-size="10.00">AppParameters</text>
</a>
</g>
</g>
<!-- Node2 -->
<g id="Node000002" class="node">
<title>Node2</title>
<g id="a_Node000002"><a target="_parent" xlink:href="http://en.cppreference.com/w/cpp/utility/functional/function.html" xlink:title=" ">
<polygon fill="white" stroke="#bfbfbf" points="145,-227.88 3,-227.88 3,-197.38 145,-197.38 145,-227.88"/>
<text text-anchor="start" x="11" y="-214.38" font-family="ui-monospace,monospace" font-size="10.00">function&lt; std::shared</text>
<text text-anchor="middle" x="74" y="-203.12" font-family="ui-monospace,monospace" font-size="10.00">_ptr&lt; jngl::Work &gt;()&gt;</text>
</a>
</g>
</g>
<!-- Node2&#45;&gt;Node1 -->
<g id="edge1_Node000001_Node000002" class="edge">
<title>Node2&#45;&gt;Node1</title>
<g id="a_edge1_Node000001_Node000002"><a xlink:title=" ">
<path fill="none" stroke="#9a32cd" stroke-dasharray="5,2" d="M156.63,-204.97C188.9,-199.57 225.49,-190.35 256,-174.62 279.64,-162.44 301.03,-139.12 312.08,-125.74"/>
<polygon fill="#9a32cd" stroke="#9a32cd" points="156.24,-201.49 146.91,-206.49 157.33,-208.4 156.24,-201.49"/>
</a>
</g>
<text text-anchor="middle" x="211" y="-204.26" font-family="ui-monospace,monospace" font-size="10.00" fill="grey"> start</text>
</g>
<!-- Node3 -->
<g id="Node000003" class="node">
<title>Node3</title>
<g id="a_Node000003"><a target="_parent" xlink:href="http://en.cppreference.com/w/cpp/string/basic_string.html" xlink:title=" ">
<polygon fill="white" stroke="#bfbfbf" points="100,-179.25 48,-179.25 48,-160 100,-160 100,-179.25"/>
<text text-anchor="middle" x="74" y="-165.75" font-family="ui-monospace,monospace" font-size="10.00">string</text>
</a>
</g>
</g>
<!-- Node3&#45;&gt;Node1 -->
<g id="edge2_Node000001_Node000003" class="edge">
<title>Node3&#45;&gt;Node1</title>
<g id="a_edge2_Node000001_Node000003"><a xlink:title=" ">
<path fill="none" stroke="#9a32cd" stroke-dasharray="5,2" d="M111.47,-166.5C148.4,-162.74 206.91,-155.19 256,-141.62 270.68,-137.57 286.55,-131.14 298.81,-125.69"/>
<polygon fill="#9a32cd" stroke="#9a32cd" points="111.4,-162.99 101.78,-167.44 112.07,-169.95 111.4,-162.99"/>
</a>
</g>
<text text-anchor="middle" x="211" y="-161.24" font-family="ui-monospace,monospace" font-size="10.00" fill="grey"> displayName</text>
</g>
<!-- Node4 -->
<g id="Node000004" class="node">
<title>Node4</title>
<g id="a_Node000004"><a target="_parent" xlink:href="http://en.cppreference.com/w/cpp/utility/optional.html" xlink:title=" ">
<polygon fill="white" stroke="#bfbfbf" points="148,-142.25 0,-142.25 0,-123 148,-123 148,-142.25"/>
<text text-anchor="middle" x="74" y="-128.75" font-family="ui-monospace,monospace" font-size="10.00">optional&lt; jngl::Vec2 &gt;</text>
</a>
</g>
</g>
<!-- Node4&#45;&gt;Node1 -->
<g id="edge3_Node000001_Node000004" class="edge">
<title>Node4&#45;&gt;Node1</title>
<g id="a_edge3_Node000001_Node000004"><a xlink:title=" ">
<path fill="none" stroke="#9a32cd" stroke-dasharray="5,2" d="M159.35,-126.77C197.71,-124.11 241.6,-121.07 273.8,-118.83"/>
<polygon fill="#9a32cd" stroke="#9a32cd" points="159.42,-123.26 149.69,-127.44 159.9,-130.24 159.42,-123.26"/>
</a>
</g>
<text text-anchor="middle" x="211" y="-127.9" font-family="ui-monospace,monospace" font-size="10.00" fill="grey"> screenSize</text>
</g>
<!-- Node5 -->
<g id="Node000005" class="node">
<title>Node5</title>
<g id="a_Node000005"><a target="_parent" xlink:href="http://en.cppreference.com/w/cpp/utility/optional.html" xlink:title=" ">
<polygon fill="white" stroke="#bfbfbf" points="130,-105.25 18,-105.25 18,-86 130,-86 130,-105.25"/>
<text text-anchor="middle" x="74" y="-91.75" font-family="ui-monospace,monospace" font-size="10.00">optional&lt; bool &gt;</text>
</a>
</g>
</g>
<!-- Node5&#45;&gt;Node1 -->
<g id="edge4_Node000001_Node000005" class="edge">
<title>Node5&#45;&gt;Node1</title>
<g id="a_edge4_Node000001_Node000005"><a xlink:title=" ">
<path fill="none" stroke="#9a32cd" stroke-dasharray="5,2" d="M141.46,-97.53C175.74,-98.94 218.19,-101.34 256,-105.38 261.71,-105.98 267.68,-106.76 273.59,-107.6"/>
<polygon fill="#9a32cd" stroke="#9a32cd" points="141.81,-94.05 131.68,-97.15 141.54,-101.04 141.81,-94.05"/>
</a>
</g>
<text text-anchor="middle" x="211" y="-107.12" font-family="ui-monospace,monospace" font-size="10.00" fill="grey"> fullscreen</text>
</g>
<!-- Node6 -->
<g id="Node000006" class="node">
<title>Node6</title>
<g id="a_Node000006"><a target="_parent" xlink:href="http://en.cppreference.com/w/cpp/utility/optional.html" xlink:title=" ">
<polygon fill="white" stroke="#bfbfbf" points="139,-67.88 9,-67.88 9,-37.38 139,-37.38 139,-67.88"/>
<text text-anchor="start" x="17" y="-54.38" font-family="ui-monospace,monospace" font-size="10.00">optional&lt; std::pair</text>
<text text-anchor="middle" x="74" y="-43.12" font-family="ui-monospace,monospace" font-size="10.00">&lt; int, int &gt; &gt;</text>
</a>
</g>
</g>
<!-- Node6&#45;&gt;Node1 -->
<g id="edge5_Node000001_Node000006" class="edge">
<title>Node6&#45;&gt;Node1</title>
<g id="a_edge5_Node000001_Node000006"><a xlink:title=" ">
<path fill="none" stroke="#9a32cd" stroke-dasharray="5,2" d="M150.61,-52.59C183.79,-54.63 222.7,-59.89 256,-72.12 276.68,-79.72 297.13,-95.44 309.16,-105.75"/>
<polygon fill="#9a32cd" stroke="#9a32cd" points="150.81,-49.1 140.64,-52.07 150.44,-56.09 150.81,-49.1"/>
</a>
</g>
<text text-anchor="middle" x="211" y="-85.12" font-family="ui-monospace,monospace" font-size="10.00" fill="grey"> maxAspectRatio</text>
<text text-anchor="middle" x="211" y="-73.88" font-family="ui-monospace,monospace" font-size="10.00" fill="grey">minAspectRatio</text>
</g>
<!-- Node7 -->
<g id="Node000007" class="node">
<title>Node7</title>
<g id="a_Node000007"><a target="_parent" xlink:href="http://en.cppreference.com/w/cpp/utility/optional.html" xlink:title=" ">
<polygon fill="white" stroke="#bfbfbf" points="142,-19.25 6,-19.25 6,0 142,0 142,-19.25"/>
<text text-anchor="middle" x="74" y="-5.75" font-family="ui-monospace,monospace" font-size="10.00">optional&lt; uint32_t &gt;</text>
</a>
</g>
</g>
<!-- Node7&#45;&gt;Node1 -->
<g id="edge6_Node000001_Node000007" class="edge">
<title>Node7&#45;&gt;Node1</title>
<g id="a_edge6_Node000001_Node000007"><a xlink:title=" ">
<path fill="none" stroke="#9a32cd" stroke-dasharray="5,2" d="M153.53,-9.98C186.94,-13.1 225.21,-20.82 256,-38.38 284.44,-54.59 305.63,-88.65 314.87,-105.6"/>
<polygon fill="#9a32cd" stroke="#9a32cd" points="154.16,-6.51 143.91,-9.21 153.6,-13.49 154.16,-6.51"/>
</a>
</g>
<text text-anchor="middle" x="211" y="-40.12" font-family="ui-monospace,monospace" font-size="10.00" fill="grey"> steamAppId</text>
</g>
</g>
</svg>
