<?xml version="1.0" encoding="UTF-8" standalone="no"?>
<!DOCTYPE svg PUBLIC "-//W3C//DTD SVG 1.1//EN"
 "http://www.w3.org/Graphics/SVG/1.1/DTD/svg11.dtd">
<!-- Generated by graphviz version 2.42.4 (0)
 -->
<!-- Title: AppParameters Pages: 1 -->
<svg width="176pt" height="95pt"
 viewBox="0.00 0.00 175.50 95.00" xmlns="http://www.w3.org/2000/svg" xmlns:xlink="http://www.w3.org/1999/xlink">
<g id="graph0" class="graph" transform="scale(1 1) rotate(0) translate(4 91)">
<title>AppParameters</title>
<polygon fill="white" stroke="transparent" points="-4,4 -4,-91 171.5,-91 171.5,4 -4,4"/>
<!-- Node1 -->
<g id="node1" class="node">
<title>Node1</title>
<g id="a_node1"><a xlink:title=" ">
<polygon fill="#bfbfbf" stroke="black" points="18,-0.5 18,-19.5 113,-19.5 113,-0.5 18,-0.5"/>
<text text-anchor="middle" x="65.5" y="-7.5" font-family="'Consolas',monospace" font-size="10.00">AppParameters</text>
</a>
</g>
</g>
<!-- Node2 -->
<g id="node2" class="node">
<title>Node2</title>
<g id="a_node2"><a xlink:href="classjngl_1_1Vec2.html" target="_top" xlink:title="Two&#45;dimensional vector.">
<polygon fill="white" stroke="black" points="0,-67.5 0,-86.5 41,-86.5 41,-67.5 0,-67.5"/>
<text text-anchor="middle" x="20.5" y="-74.5" font-family="'Consolas',monospace" font-size="10.00">Vec2</text>
</a>
</g>
</g>
<!-- Node2&#45;&gt;Node1 -->
<g id="edge1" class="edge">
<title>Node2&#45;&gt;Node1</title>
<path fill="none" stroke="#9a32cd" stroke-dasharray="5,2" d="M17.49,-57.22C17.33,-50.76 18.2,-43.71 21.5,-38 26.16,-29.93 34.29,-23.96 42.31,-19.71"/>
<polygon fill="#9a32cd" stroke="#9a32cd" points="14.01,-57.61 18.48,-67.22 20.97,-56.92 14.01,-57.61"/>
<text text-anchor="middle" x="55" y="-41" font-family="'Consolas',monospace" font-size="10.00"> screenSize</text>
</g>
<!-- Node3 -->
<g id="node3" class="node">
<title>Node3</title>
<g id="a_node3"><a target="_parent" xlink:href="http://en.cppreference.com/w/cpp/string/basic_string.html" target="_top" xlink:title=" ">
<polygon fill="white" stroke="black" points="84,-67.5 84,-86.5 137,-86.5 137,-67.5 84,-67.5"/>
<text text-anchor="middle" x="110.5" y="-74.5" font-family="'Consolas',monospace" font-size="10.00">string</text>
</a>
</g>
</g>
<!-- Node3&#45;&gt;Node1 -->
<g id="edge2" class="edge">
<title>Node3&#45;&gt;Node1</title>
<path fill="none" stroke="#9a32cd" stroke-dasharray="5,2" d="M101.22,-58.47C97.52,-51.88 93.05,-44.44 88.5,-38 83.95,-31.56 78.2,-24.81 73.59,-19.67"/>
<polygon fill="#9a32cd" stroke="#9a32cd" points="98.17,-60.17 106.03,-67.28 104.31,-56.82 98.17,-60.17"/>
<text text-anchor="middle" x="131" y="-41" font-family="'Consolas',monospace" font-size="10.00"> displayName</text>
</g>
</g>
</svg>
