<?xml version="1.0" encoding="UTF-8" standalone="no"?>
<!DOCTYPE svg PUBLIC "-//W3C//DTD SVG 1.1//EN"
 "http://www.w3.org/Graphics/SVG/1.1/DTD/svg11.dtd">
<!-- Generated by graphviz version 2.42.4 (0)
 -->
<!-- Title: AppParameters Pages: 1 -->
<svg width="261pt" height="95pt"
 viewBox="0.00 0.00 260.50 95.00" xmlns="http://www.w3.org/2000/svg" xmlns:xlink="http://www.w3.org/1999/xlink">
<g id="graph0" class="graph" transform="scale(1 1) rotate(0) translate(4 91)">
<title>AppParameters</title>
<polygon fill="white" stroke="transparent" points="-4,4 -4,-91 256.5,-91 256.5,4 -4,4"/>
<!-- Node1 -->
<g id="node1" class="node">
<title>Node1</title>
<g id="a_node1"><a xlink:title=" ">
<polygon fill="#bfbfbf" stroke="black" points="86,-0.5 86,-19.5 181,-19.5 181,-0.5 86,-0.5"/>
<text text-anchor="middle" x="133.5" y="-7.5" font-family="'Consolas',monospace" font-size="10.00">AppParameters</text>
</a>
</g>
</g>
<!-- Node2 -->
<g id="node2" class="node">
<title>Node2</title>
<g id="a_node2"><a target="_parent" xlink:href="http://en.cppreference.com/w/cpp/utility/optional.html" target="_top" xlink:title=" ">
<polygon fill="white" stroke="black" points="0,-67.5 0,-86.5 149,-86.5 149,-67.5 0,-67.5"/>
<text text-anchor="middle" x="74.5" y="-74.5" font-family="'Consolas',monospace" font-size="10.00">optional&lt; jngl::Vec2 &gt;</text>
</a>
</g>
</g>
<!-- Node2&#45;&gt;Node1 -->
<g id="edge1" class="edge">
<title>Node2&#45;&gt;Node1</title>
<path fill="none" stroke="#9a32cd" stroke-dasharray="5,2" d="M87.13,-58.87C92.29,-52.17 98.47,-44.54 104.5,-38 110.47,-31.53 117.72,-24.78 123.48,-19.64"/>
<polygon fill="#9a32cd" stroke="#9a32cd" points="84.04,-57.15 80.81,-67.24 89.63,-61.37 84.04,-57.15"/>
<text text-anchor="middle" x="138" y="-41" font-family="'Consolas',monospace" font-size="10.00"> screenSize</text>
</g>
<!-- Node3 -->
<g id="node3" class="node">
<title>Node3</title>
<g id="a_node3"><a target="_parent" xlink:href="http://en.cppreference.com/w/cpp/string/basic_string.html" target="_top" xlink:title=" ">
<polygon fill="white" stroke="black" points="167,-67.5 167,-86.5 220,-86.5 220,-67.5 167,-67.5"/>
<text text-anchor="middle" x="193.5" y="-74.5" font-family="'Consolas',monospace" font-size="10.00">string</text>
</a>
</g>
</g>
<!-- Node3&#45;&gt;Node1 -->
<g id="edge2" class="edge">
<title>Node3&#45;&gt;Node1</title>
<path fill="none" stroke="#9a32cd" stroke-dasharray="5,2" d="M185.31,-58.33C181.66,-51.54 176.95,-43.98 171.5,-38 164.96,-30.82 156.2,-24.44 148.74,-19.69"/>
<polygon fill="#9a32cd" stroke="#9a32cd" points="182.27,-60.08 189.86,-67.47 188.54,-56.96 182.27,-60.08"/>
<text text-anchor="middle" x="216" y="-41" font-family="'Consolas',monospace" font-size="10.00"> displayName</text>
</g>
</g>
</svg>
