<?xml version="1.0" encoding="UTF-8" standalone="no"?>
<!DOCTYPE svg PUBLIC "-//W3C//DTD SVG 1.1//EN"
 "http://www.w3.org/Graphics/SVG/1.1/DTD/svg11.dtd">
<!-- Generated by graphviz version 2.38.0 (20140413.2041)
 -->
<!-- Title: jngl/text.hpp Pages: 1 -->
<svg width="368pt" height="140pt"
 viewBox="0.00 0.00 368.00 140.00" xmlns="http://www.w3.org/2000/svg" xmlns:xlink="http://www.w3.org/1999/xlink">
<g id="graph0" class="graph" transform="scale(1 1) rotate(0) translate(4 136)">
<title>jngl/text.hpp</title>
<polygon fill="white" stroke="none" points="-4,4 -4,-136 364,-136 364,4 -4,4"/>
<!-- Node1 -->
<g id="node1" class="node"><title>Node1</title>
<polygon fill="#bfbfbf" stroke="black" points="144,-112.5 144,-131.5 239,-131.5 239,-112.5 144,-112.5"/>
<text text-anchor="middle" x="191.5" y="-119.5" font-family="'Consolas',monospace" font-size="10.00">jngl/text.hpp</text>
</g>
<!-- Node2 -->
<g id="node2" class="node"><title>Node2</title>
<g id="a_node2"><a xlink:href="dll_8hpp_source.html" target="_top" xlink:title="dll.hpp">
<polygon fill="white" stroke="black" points="0,-0.5 0,-19.5 59,-19.5 59,-0.5 0,-0.5"/>
<text text-anchor="middle" x="29.5" y="-7.5" font-family="'Consolas',monospace" font-size="10.00">dll.hpp</text>
</a>
</g>
</g>
<!-- Node1&#45;&gt;Node2 -->
<g id="edge1" class="edge"><title>Node1&#45;&gt;Node2</title>
<path fill="none" stroke="midnightblue" d="M143.81,-117.123C113.077,-112.195 74.3562,-101.066 49.5,-76 37.4297,-63.828 32.6175,-44.5554 30.7131,-30.1514"/>
<polygon fill="midnightblue" stroke="midnightblue" points="34.166,-29.4917 29.7261,-19.872 27.198,-30.1608 34.166,-29.4917"/>
</g>
<!-- Node3 -->
<g id="node3" class="node"><title>Node3</title>
<g id="a_node3"><a xlink:href="drawable_8hpp_source.html" target="_top" xlink:title="drawable.hpp">
<polygon fill="white" stroke="black" points="58,-56.5 58,-75.5 147,-75.5 147,-56.5 58,-56.5"/>
<text text-anchor="middle" x="102.5" y="-63.5" font-family="'Consolas',monospace" font-size="10.00">drawable.hpp</text>
</a>
</g>
</g>
<!-- Node1&#45;&gt;Node3 -->
<g id="edge2" class="edge"><title>Node1&#45;&gt;Node3</title>
<path fill="none" stroke="midnightblue" d="M177.201,-112.324C163.317,-103.9 142.008,-90.9709 125.696,-81.0741"/>
<polygon fill="midnightblue" stroke="midnightblue" points="127.129,-77.8495 116.764,-75.6545 123.498,-83.8341 127.129,-77.8495"/>
</g>
<!-- Node5 -->
<g id="node5" class="node"><title>Node5</title>
<polygon fill="white" stroke="#bfbfbf" points="165,-56.5 165,-75.5 218,-75.5 218,-56.5 165,-56.5"/>
<text text-anchor="middle" x="191.5" y="-63.5" font-family="'Consolas',monospace" font-size="10.00">memory</text>
</g>
<!-- Node1&#45;&gt;Node5 -->
<g id="edge5" class="edge"><title>Node1&#45;&gt;Node5</title>
<path fill="none" stroke="midnightblue" d="M191.5,-112.083C191.5,-105.006 191.5,-94.8611 191.5,-85.9865"/>
<polygon fill="midnightblue" stroke="midnightblue" points="195,-85.751 191.5,-75.7511 188,-85.7511 195,-85.751"/>
</g>
<!-- Node6 -->
<g id="node6" class="node"><title>Node6</title>
<polygon fill="white" stroke="#bfbfbf" points="236,-56.5 236,-75.5 289,-75.5 289,-56.5 236,-56.5"/>
<text text-anchor="middle" x="262.5" y="-63.5" font-family="'Consolas',monospace" font-size="10.00">string</text>
</g>
<!-- Node1&#45;&gt;Node6 -->
<g id="edge6" class="edge"><title>Node1&#45;&gt;Node6</title>
<path fill="none" stroke="midnightblue" d="M202.907,-112.324C213.609,-104.185 229.841,-91.8395 242.663,-82.0874"/>
<polygon fill="midnightblue" stroke="midnightblue" points="245.044,-84.6734 250.885,-75.8339 240.807,-79.1018 245.044,-84.6734"/>
</g>
<!-- Node7 -->
<g id="node7" class="node"><title>Node7</title>
<polygon fill="white" stroke="#bfbfbf" points="307,-56.5 307,-75.5 360,-75.5 360,-56.5 307,-56.5"/>
<text text-anchor="middle" x="333.5" y="-63.5" font-family="'Consolas',monospace" font-size="10.00">vector</text>
</g>
<!-- Node1&#45;&gt;Node7 -->
<g id="edge7" class="edge"><title>Node1&#45;&gt;Node7</title>
<path fill="none" stroke="midnightblue" d="M214,-112.444C237.577,-103.478 274.822,-89.314 301.464,-79.1827"/>
<polygon fill="midnightblue" stroke="midnightblue" points="303.002,-82.3424 311.105,-75.5164 300.514,-75.7995 303.002,-82.3424"/>
</g>
<!-- Node3&#45;&gt;Node2 -->
<g id="edge4" class="edge"><title>Node3&#45;&gt;Node2</title>
<path fill="none" stroke="midnightblue" d="M90.7713,-56.324C79.6626,-48.1066 62.7578,-35.6017 49.5167,-25.8069"/>
<polygon fill="midnightblue" stroke="midnightblue" points="51.5631,-22.9671 41.4421,-19.8339 47.4001,-28.5948 51.5631,-22.9671"/>
</g>
<!-- Node4 -->
<g id="node4" class="node"><title>Node4</title>
<g id="a_node4"><a xlink:href="types_8hpp_source.html" target="_top" xlink:title="types.hpp">
<polygon fill="white" stroke="black" points="77,-0.5 77,-19.5 148,-19.5 148,-0.5 77,-0.5"/>
<text text-anchor="middle" x="112.5" y="-7.5" font-family="'Consolas',monospace" font-size="10.00">types.hpp</text>
</a>
</g>
</g>
<!-- Node3&#45;&gt;Node4 -->
<g id="edge3" class="edge"><title>Node3&#45;&gt;Node4</title>
<path fill="none" stroke="midnightblue" d="M104.151,-56.083C105.476,-48.9272 107.382,-38.6353 109.039,-29.6911"/>
<polygon fill="midnightblue" stroke="midnightblue" points="112.5,-30.2212 110.879,-19.7511 105.617,-28.9466 112.5,-30.2212"/>
</g>
</g>
</svg>
