<?xml version="1.0" encoding="UTF-8" standalone="no"?>
<!DOCTYPE svg PUBLIC "-//W3C//DTD SVG 1.1//EN"
 "http://www.w3.org/Graphics/SVG/1.1/DTD/svg11.dtd">
<!-- Generated by graphviz version 2.40.1 (20161225.0304)
 -->
<!-- Title: jngl/text.hpp Pages: 1 -->
<svg width="332pt" height="140pt"
 viewBox="0.00 0.00 332.00 140.00" xmlns="http://www.w3.org/2000/svg" xmlns:xlink="http://www.w3.org/1999/xlink">
<g id="graph0" class="graph" transform="scale(1 1) rotate(0) translate(4 136)">
<title>jngl/text.hpp</title>
<polygon fill="#ffffff" stroke="transparent" points="-4,4 -4,-136 328,-136 328,4 -4,4"/>
<!-- Node0 -->
<g id="node1" class="node">
<title>Node0</title>
<polygon fill="#bfbfbf" stroke="#000000" points="108,-112.5 108,-131.5 203,-131.5 203,-112.5 108,-112.5"/>
<text text-anchor="middle" x="155.5" y="-119.5" font-family="'Consolas',monospace" font-size="10.00" fill="#000000">jngl/text.hpp</text>
</g>
<!-- Node1 -->
<g id="node2" class="node">
<title>Node1</title>
<g id="a_node2"><a xlink:href="dll_8hpp_source.html" target="_top" xlink:title="dll.hpp">
<polygon fill="#ffffff" stroke="#000000" points="0,-.5 0,-19.5 59,-19.5 59,-.5 0,-.5"/>
<text text-anchor="middle" x="29.5" y="-7.5" font-family="'Consolas',monospace" font-size="10.00" fill="#000000">dll.hpp</text>
</a>
</g>
</g>
<!-- Node0&#45;&gt;Node1 -->
<g id="edge1" class="edge">
<title>Node0&#45;&gt;Node1</title>
<path fill="none" stroke="#191970" d="M107.7668,-112.7925C71.0958,-104.6352 24.8547,-91.6138 13.5,-76 3.4712,-62.2094 9.8803,-42.9361 17.3552,-28.7763"/>
<polygon fill="#191970" stroke="#191970" points="20.5044,-30.3235 22.5115,-19.9205 14.4551,-26.8012 20.5044,-30.3235"/>
</g>
<!-- Node2 -->
<g id="node3" class="node">
<title>Node2</title>
<g id="a_node3"><a xlink:href="drawable_8hpp_source.html" target="_top" xlink:title="drawable.hpp">
<polygon fill="#ffffff" stroke="#000000" points="22,-56.5 22,-75.5 111,-75.5 111,-56.5 22,-56.5"/>
<text text-anchor="middle" x="66.5" y="-63.5" font-family="'Consolas',monospace" font-size="10.00" fill="#000000">drawable.hpp</text>
</a>
</g>
</g>
<!-- Node0&#45;&gt;Node2 -->
<g id="edge2" class="edge">
<title>Node0&#45;&gt;Node2</title>
<path fill="none" stroke="#191970" d="M139.9974,-112.2455C126.342,-103.6534 106.2343,-91.0014 90.5011,-81.1018"/>
<polygon fill="#191970" stroke="#191970" points="92.1529,-78.006 81.825,-75.6427 88.4249,-83.9307 92.1529,-78.006"/>
</g>
<!-- Node3 -->
<g id="node4" class="node">
<title>Node3</title>
<g id="a_node4"><a doxygen="/home/travis/build/jhasse/jngl/doc/cppreference-doxygen-web.tag.xml:http://en.cppreference.com/w/" xlink:href="http://en.cppreference.com/w/cpp/header/memory.html" target="_top" xlink:title="memory">
<polygon fill="#ffffff" stroke="#000000" points="129,-56.5 129,-75.5 182,-75.5 182,-56.5 129,-56.5"/>
<text text-anchor="middle" x="155.5" y="-63.5" font-family="'Consolas',monospace" font-size="10.00" fill="#000000">memory</text>
</a>
</g>
</g>
<!-- Node0&#45;&gt;Node3 -->
<g id="edge4" class="edge">
<title>Node0&#45;&gt;Node3</title>
<path fill="none" stroke="#191970" d="M155.5,-112.2455C155.5,-104.9382 155.5,-94.6944 155.5,-85.7046"/>
<polygon fill="#191970" stroke="#191970" points="159.0001,-85.6426 155.5,-75.6427 152.0001,-85.6427 159.0001,-85.6426"/>
</g>
<!-- Node4 -->
<g id="node5" class="node">
<title>Node4</title>
<g id="a_node5"><a doxygen="/home/travis/build/jhasse/jngl/doc/cppreference-doxygen-web.tag.xml:http://en.cppreference.com/w/" xlink:href="http://en.cppreference.com/w/cpp/header/string.html" target="_top" xlink:title="string">
<polygon fill="#ffffff" stroke="#000000" points="200,-56.5 200,-75.5 253,-75.5 253,-56.5 200,-56.5"/>
<text text-anchor="middle" x="226.5" y="-63.5" font-family="'Consolas',monospace" font-size="10.00" fill="#000000">string</text>
</a>
</g>
</g>
<!-- Node0&#45;&gt;Node4 -->
<g id="edge5" class="edge">
<title>Node0&#45;&gt;Node4</title>
<path fill="none" stroke="#191970" d="M167.8673,-112.2455C178.4554,-103.8943 193.9064,-91.7076 206.2893,-81.9408"/>
<polygon fill="#191970" stroke="#191970" points="208.5903,-84.5837 214.2745,-75.6427 204.2553,-79.0875 208.5903,-84.5837"/>
</g>
<!-- Node5 -->
<g id="node6" class="node">
<title>Node5</title>
<g id="a_node6"><a doxygen="/home/travis/build/jhasse/jngl/doc/cppreference-doxygen-web.tag.xml:http://en.cppreference.com/w/" xlink:href="http://en.cppreference.com/w/cpp/header/vector.html" target="_top" xlink:title="vector">
<polygon fill="#ffffff" stroke="#000000" points="271,-56.5 271,-75.5 324,-75.5 324,-56.5 271,-56.5"/>
<text text-anchor="middle" x="297.5" y="-63.5" font-family="'Consolas',monospace" font-size="10.00" fill="#000000">vector</text>
</a>
</g>
</g>
<!-- Node0&#45;&gt;Node5 -->
<g id="edge6" class="edge">
<title>Node0&#45;&gt;Node5</title>
<path fill="none" stroke="#191970" d="M179.9107,-112.3733C203.1142,-103.2226 238.2038,-89.3844 264.0142,-79.2057"/>
<polygon fill="#191970" stroke="#191970" points="265.3892,-82.4258 273.4079,-75.5011 262.8211,-75.9139 265.3892,-82.4258"/>
</g>
<!-- Node2&#45;&gt;Node1 -->
<g id="edge3" class="edge">
<title>Node2&#45;&gt;Node1</title>
<path fill="none" stroke="#191970" d="M60.0551,-56.2455C54.9618,-48.5367 47.7092,-37.5598 41.548,-28.2348"/>
<polygon fill="#191970" stroke="#191970" points="44.3038,-26.0566 35.8711,-19.6427 38.4635,-29.9155 44.3038,-26.0566"/>
</g>
</g>
</svg>
