<?xml version="1.0" encoding="UTF-8" standalone="no"?>
<!DOCTYPE svg PUBLIC "-//W3C//DTD SVG 1.1//EN"
 "http://www.w3.org/Graphics/SVG/1.1/DTD/svg11.dtd">
<!-- Generated by graphviz version 2.42.4 (0)
 -->
<!-- Title: jngl/text.hpp Pages: 1 -->
<svg width="310pt" height="84pt"
 viewBox="0.00 0.00 310.00 84.00" xmlns="http://www.w3.org/2000/svg" xmlns:xlink="http://www.w3.org/1999/xlink">
<g id="graph0" class="graph" transform="scale(1 1) rotate(0) translate(4 80)">
<title>jngl/text.hpp</title>
<polygon fill="white" stroke="transparent" points="-4,4 -4,-80 306,-80 306,4 -4,4"/>
<!-- Node1 -->
<g id="node1" class="node">
<title>Node1</title>
<g id="a_node1"><a xlink:title=" ">
<polygon fill="#bfbfbf" stroke="black" points="121,-56.5 121,-75.5 216,-75.5 216,-56.5 121,-56.5"/>
<text text-anchor="middle" x="168.5" y="-63.5" font-family="'Consolas',monospace" font-size="10.00">jngl/text.hpp</text>
</a>
</g>
</g>
<!-- Node2 -->
<g id="node2" class="node">
<title>Node2</title>
<g id="a_node2"><a xlink:href="Drawable_8hpp.html" target="_top" xlink:title="Contains Drawable class.">
<polygon fill="white" stroke="black" points="0,-0.5 0,-19.5 89,-19.5 89,-0.5 0,-0.5"/>
<text text-anchor="middle" x="44.5" y="-7.5" font-family="'Consolas',monospace" font-size="10.00">Drawable.hpp</text>
</a>
</g>
</g>
<!-- Node1&#45;&gt;Node2 -->
<g id="edge1" class="edge">
<title>Node1&#45;&gt;Node2</title>
<path fill="none" stroke="midnightblue" d="M148.85,-56.44C128.54,-47.6 96.6,-33.69 73.4,-23.59"/>
<polygon fill="midnightblue" stroke="midnightblue" points="74.62,-20.3 64.06,-19.52 71.83,-26.72 74.62,-20.3"/>
</g>
<!-- Node3 -->
<g id="node3" class="node">
<title>Node3</title>
<g id="a_node3"><a xlink:href="http://en.cppreference.com/w/cpp/header/memory.html" xlink:title=" ">
<polygon fill="white" stroke="black" points="107,-0.5 107,-19.5 160,-19.5 160,-0.5 107,-0.5"/>
<text text-anchor="middle" x="133.5" y="-7.5" font-family="'Consolas',monospace" font-size="10.00">memory</text>
</a>
</g>
</g>
<!-- Node1&#45;&gt;Node3 -->
<g id="edge2" class="edge">
<title>Node1&#45;&gt;Node3</title>
<path fill="none" stroke="midnightblue" d="M162.72,-56.08C157.83,-48.53 150.67,-37.49 144.67,-28.23"/>
<polygon fill="midnightblue" stroke="midnightblue" points="147.55,-26.24 139.17,-19.75 141.67,-30.05 147.55,-26.24"/>
</g>
<!-- Node4 -->
<g id="node4" class="node">
<title>Node4</title>
<g id="a_node4"><a xlink:href="http://en.cppreference.com/w/cpp/header/string.html" xlink:title=" ">
<polygon fill="white" stroke="black" points="178,-0.5 178,-19.5 231,-19.5 231,-0.5 178,-0.5"/>
<text text-anchor="middle" x="204.5" y="-7.5" font-family="'Consolas',monospace" font-size="10.00">string</text>
</a>
</g>
</g>
<!-- Node1&#45;&gt;Node4 -->
<g id="edge3" class="edge">
<title>Node1&#45;&gt;Node4</title>
<path fill="none" stroke="midnightblue" d="M174.44,-56.08C179.48,-48.53 186.84,-37.49 193.01,-28.23"/>
<polygon fill="midnightblue" stroke="midnightblue" points="196.03,-30.01 198.67,-19.75 190.21,-26.13 196.03,-30.01"/>
</g>
<!-- Node5 -->
<g id="node5" class="node">
<title>Node5</title>
<g id="a_node5"><a xlink:href="http://en.cppreference.com/w/cpp/header/vector.html" xlink:title=" ">
<polygon fill="white" stroke="black" points="249,-0.5 249,-19.5 302,-19.5 302,-0.5 249,-0.5"/>
<text text-anchor="middle" x="275.5" y="-7.5" font-family="'Consolas',monospace" font-size="10.00">vector</text>
</a>
</g>
</g>
<!-- Node1&#45;&gt;Node5 -->
<g id="edge4" class="edge">
<title>Node1&#45;&gt;Node5</title>
<path fill="none" stroke="midnightblue" d="M185.69,-56.32C202.85,-47.66 229.45,-34.24 249.25,-24.25"/>
<polygon fill="midnightblue" stroke="midnightblue" points="251,-27.28 258.35,-19.65 247.85,-21.04 251,-27.28"/>
</g>
</g>
</svg>
