<?xml version="1.0" encoding="UTF-8" standalone="no"?>
<!DOCTYPE svg PUBLIC "-//W3C//DTD SVG 1.1//EN"
 "http://www.w3.org/Graphics/SVG/1.1/DTD/svg11.dtd">
<!-- Generated by graphviz version 9.0.0 (20230911.1827)
 -->
<!-- Title: jngl/text.hpp Pages: 1 -->
<svg width="377pt" height="193pt"
 viewBox="0.00 0.00 377.00 193.00" xmlns="http://www.w3.org/2000/svg" xmlns:xlink="http://www.w3.org/1999/xlink">
<g id="graph0" class="graph" transform="scale(1 1) rotate(0) translate(4 189)">
<title>jngl/text.hpp</title>
<!-- Node1 -->
<g id="Node000001" class="node">
<title>Node1</title>
<g id="a_Node000001"><a xlink:title=" ">
<polygon fill="#999999" stroke="#666666" points="285,-185 191,-185 191,-165.75 285,-165.75 285,-185"/>
<text text-anchor="middle" x="238" y="-171.5" font-family="ui-monospace,monospace" font-size="10.00">jngl/text.hpp</text>
</a>
</g>
</g>
<!-- Node2 -->
<g id="Node000002" class="node">
<title>Node2</title>
<g id="a_Node000002"><a xlink:href="Drawable_8hpp.html" target="_top" xlink:title="Contains jngl::Drawable class.">
<polygon fill="white" stroke="#666666" points="159,-129.75 71,-129.75 71,-110.5 159,-110.5 159,-129.75"/>
<text text-anchor="middle" x="115" y="-116.25" font-family="ui-monospace,monospace" font-size="10.00">Drawable.hpp</text>
</a>
</g>
</g>
<!-- Node1&#45;&gt;Node2 -->
<g id="edge1_Node000001_Node000002" class="edge">
<title>Node1&#45;&gt;Node2</title>
<g id="a_edge1_Node000001_Node000002"><a xlink:title=" ">
<path fill="none" stroke="#63b8ff" d="M217.13,-165.34C197.7,-156.93 168.46,-144.27 146.24,-134.65"/>
<polygon fill="#63b8ff" stroke="#63b8ff" points="147.92,-131.56 137.36,-130.8 145.14,-137.99 147.92,-131.56"/>
</a>
</g>
</g>
<!-- Node6 -->
<g id="Node000006" class="node">
<title>Node6</title>
<g id="a_Node000006"><a target="_parent" xlink:href="http://en.cppreference.com/w/cpp/header/memory.html" xlink:title=" ">
<polygon fill="white" stroke="#666666" points="229,-129.75 177,-129.75 177,-110.5 229,-110.5 229,-129.75"/>
<text text-anchor="middle" x="203" y="-116.25" font-family="ui-monospace,monospace" font-size="10.00">memory</text>
</a>
</g>
</g>
<!-- Node1&#45;&gt;Node6 -->
<g id="edge5_Node000001_Node000006" class="edge">
<title>Node1&#45;&gt;Node6</title>
<g id="a_edge5_Node000001_Node000006"><a xlink:title=" ">
<path fill="none" stroke="#63b8ff" d="M232.22,-165.58C227.59,-158.53 220.93,-148.4 215.13,-139.58"/>
<polygon fill="#63b8ff" stroke="#63b8ff" points="218.15,-137.81 209.74,-131.37 212.3,-141.65 218.15,-137.81"/>
</a>
</g>
</g>
<!-- Node7 -->
<g id="Node000007" class="node">
<title>Node7</title>
<g id="a_Node000007"><a target="_parent" xlink:href="http://en.cppreference.com/w/cpp/header/string.html" xlink:title=" ">
<polygon fill="white" stroke="#666666" points="299,-129.75 247,-129.75 247,-110.5 299,-110.5 299,-129.75"/>
<text text-anchor="middle" x="273" y="-116.25" font-family="ui-monospace,monospace" font-size="10.00">string</text>
</a>
</g>
</g>
<!-- Node1&#45;&gt;Node7 -->
<g id="edge6_Node000001_Node000007" class="edge">
<title>Node1&#45;&gt;Node7</title>
<g id="a_edge6_Node000001_Node000007"><a xlink:title=" ">
<path fill="none" stroke="#63b8ff" d="M243.78,-165.58C248.41,-158.53 255.07,-148.4 260.87,-139.58"/>
<polygon fill="#63b8ff" stroke="#63b8ff" points="263.7,-141.65 266.26,-131.37 257.85,-137.81 263.7,-141.65"/>
</a>
</g>
</g>
<!-- Node8 -->
<g id="Node000008" class="node">
<title>Node8</title>
<g id="a_Node000008"><a target="_parent" xlink:href="http://en.cppreference.com/w/cpp/header/vector.html" xlink:title=" ">
<polygon fill="white" stroke="#666666" points="369,-129.75 317,-129.75 317,-110.5 369,-110.5 369,-129.75"/>
<text text-anchor="middle" x="343" y="-116.25" font-family="ui-monospace,monospace" font-size="10.00">vector</text>
</a>
</g>
</g>
<!-- Node1&#45;&gt;Node8 -->
<g id="edge7_Node000001_Node000008" class="edge">
<title>Node1&#45;&gt;Node8</title>
<g id="a_edge7_Node000001_Node000008"><a xlink:title=" ">
<path fill="none" stroke="#63b8ff" d="M255.81,-165.34C272.03,-157.12 296.24,-144.84 315.03,-135.31"/>
<polygon fill="#63b8ff" stroke="#63b8ff" points="316.42,-138.53 323.75,-130.89 313.25,-132.29 316.42,-138.53"/>
</a>
</g>
</g>
<!-- Node3 -->
<g id="Node000003" class="node">
<title>Node3</title>
<g id="a_Node000003"><a xlink:href="Vec2_8hpp.html" target="_top" xlink:title="Contains jngl::Vec2 class.">
<polygon fill="white" stroke="#666666" points="147,-74.5 83,-74.5 83,-55.25 147,-55.25 147,-74.5"/>
<text text-anchor="middle" x="115" y="-61" font-family="ui-monospace,monospace" font-size="10.00">Vec2.hpp</text>
</a>
</g>
</g>
<!-- Node2&#45;&gt;Node3 -->
<g id="edge2_Node000002_Node000003" class="edge">
<title>Node2&#45;&gt;Node3</title>
<g id="a_edge2_Node000002_Node000003"><a xlink:title=" ">
<path fill="none" stroke="#63b8ff" d="M115,-110.33C115,-103.82 115,-94.67 115,-86.37"/>
<polygon fill="#63b8ff" stroke="#63b8ff" points="118.5,-86.37 115,-76.37 111.5,-86.37 118.5,-86.37"/>
</a>
</g>
</g>
<!-- Node4 -->
<g id="Node000004" class="node">
<title>Node4</title>
<g id="a_Node000004"><a xlink:title=" ">
<polygon fill="#e0e0e0" stroke="#999999" points="124,-19.25 0,-19.25 0,0 124,0 124,-19.25"/>
<text text-anchor="middle" x="62" y="-5.75" font-family="ui-monospace,monospace" font-size="10.00">boost/qvm_lite.hpp</text>
</a>
</g>
</g>
<!-- Node3&#45;&gt;Node4 -->
<g id="edge3_Node000003_Node000004" class="edge">
<title>Node3&#45;&gt;Node4</title>
<g id="a_edge3_Node000003_Node000004"><a xlink:title=" ">
<path fill="none" stroke="#63b8ff" d="M106.25,-55.08C98.85,-47.65 88.04,-36.79 78.95,-27.66"/>
<polygon fill="#63b8ff" stroke="#63b8ff" points="81.54,-25.3 72.01,-20.68 76.58,-30.24 81.54,-25.3"/>
</a>
</g>
</g>
<!-- Node5 -->
<g id="Node000005" class="node">
<title>Node5</title>
<g id="a_Node000005"><a target="_parent" xlink:href="http://en.cppreference.com/w/cpp/header/iosfwd.html" xlink:title=" ">
<polygon fill="white" stroke="#666666" points="194,-19.25 142,-19.25 142,0 194,0 194,-19.25"/>
<text text-anchor="middle" x="168" y="-5.75" font-family="ui-monospace,monospace" font-size="10.00">iosfwd</text>
</a>
</g>
</g>
<!-- Node3&#45;&gt;Node5 -->
<g id="edge4_Node000003_Node000005" class="edge">
<title>Node3&#45;&gt;Node5</title>
<g id="a_edge4_Node000003_Node000005"><a xlink:title=" ">
<path fill="none" stroke="#63b8ff" d="M123.75,-55.08C131.15,-47.65 141.96,-36.79 151.05,-27.66"/>
<polygon fill="#63b8ff" stroke="#63b8ff" points="153.42,-30.24 157.99,-20.68 148.46,-25.3 153.42,-30.24"/>
</a>
</g>
</g>
</g>
</svg>
