<?xml version="1.0" encoding="UTF-8" standalone="no"?>
<!DOCTYPE svg PUBLIC "-//W3C//DTD SVG 1.1//EN"
 "http://www.w3.org/Graphics/SVG/1.1/DTD/svg11.dtd">
<!-- Generated by graphviz version 2.40.1 (0)
 -->
<!-- Title: jngl/text.hpp Pages: 1 -->
<svg width="324pt" height="140pt"
 viewBox="0.00 0.00 324.00 140.00" xmlns="http://www.w3.org/2000/svg" xmlns:xlink="http://www.w3.org/1999/xlink">
<g id="graph0" class="graph" transform="scale(1 1) rotate(0) translate(4 136)">
<title>jngl/text.hpp</title>
<polygon fill="#ffffff" stroke="transparent" points="-4,4 -4,-136 320,-136 320,4 -4,4"/>
<!-- Node0 -->
<g id="node1" class="node">
<title>Node0</title>
<polygon fill="#bfbfbf" stroke="#000000" points="132.5,-112.5 132.5,-131.5 203.5,-131.5 203.5,-112.5 132.5,-112.5"/>
<text text-anchor="middle" x="168" y="-119.5" font-family="Lato" font-size="10.00" fill="#000000">jngl/text.hpp</text>
</g>
<!-- Node1 -->
<g id="node2" class="node">
<title>Node1</title>
<g id="a_node2"><a xlink:href="dll_8hpp_source.html" target="_top" xlink:title="dll.hpp">
<polygon fill="#ffffff" stroke="#000000" points="0,-.5 0,-19.5 44,-19.5 44,-.5 0,-.5"/>
<text text-anchor="middle" x="22" y="-7.5" font-family="Lato" font-size="10.00" fill="#000000">dll.hpp</text>
</a>
</g>
</g>
<!-- Node0&#45;&gt;Node1 -->
<g id="edge1" class="edge">
<title>Node0&#45;&gt;Node1</title>
<path fill="none" stroke="#191970" d="M132.2896,-117.717C104.0936,-112.5028 65.681,-101.041 42,-76 30.2,-63.5223 25.3444,-44.3072 23.3557,-29.8219"/>
<polygon fill="#191970" stroke="#191970" points="26.8354,-29.4442 22.3262,-19.8568 19.8724,-30.1635 26.8354,-29.4442"/>
</g>
<!-- Node2 -->
<g id="node3" class="node">
<title>Node2</title>
<g id="a_node3"><a xlink:href="drawable_8hpp_source.html" target="_top" xlink:title="drawable.hpp">
<polygon fill="#ffffff" stroke="#000000" points="50.5,-56.5 50.5,-75.5 123.5,-75.5 123.5,-56.5 50.5,-56.5"/>
<text text-anchor="middle" x="87" y="-63.5" font-family="Lato" font-size="10.00" fill="#000000">drawable.hpp</text>
</a>
</g>
</g>
<!-- Node0&#45;&gt;Node2 -->
<g id="edge2" class="edge">
<title>Node0&#45;&gt;Node2</title>
<path fill="none" stroke="#191970" d="M153.8909,-112.2455C141.5791,-103.7337 123.5042,-91.2375 109.2462,-81.3801"/>
<polygon fill="#191970" stroke="#191970" points="111.1634,-78.4506 100.9474,-75.6427 107.1826,-84.2085 111.1634,-78.4506"/>
</g>
<!-- Node4 -->
<g id="node5" class="node">
<title>Node4</title>
<polygon fill="#ffffff" stroke="#bfbfbf" points="141.5,-56.5 141.5,-75.5 194.5,-75.5 194.5,-56.5 141.5,-56.5"/>
<text text-anchor="middle" x="168" y="-63.5" font-family="Lato" font-size="10.00" fill="#000000">memory</text>
</g>
<!-- Node0&#45;&gt;Node4 -->
<g id="edge5" class="edge">
<title>Node0&#45;&gt;Node4</title>
<path fill="none" stroke="#191970" d="M168,-112.2455C168,-104.9382 168,-94.6944 168,-85.7046"/>
<polygon fill="#191970" stroke="#191970" points="171.5001,-85.6426 168,-75.6427 164.5001,-85.6427 171.5001,-85.6426"/>
</g>
<!-- Node5 -->
<g id="node6" class="node">
<title>Node5</title>
<polygon fill="#ffffff" stroke="#bfbfbf" points="212.5,-56.5 212.5,-75.5 253.5,-75.5 253.5,-56.5 212.5,-56.5"/>
<text text-anchor="middle" x="233" y="-63.5" font-family="Lato" font-size="10.00" fill="#000000">string</text>
</g>
<!-- Node0&#45;&gt;Node5 -->
<g id="edge6" class="edge">
<title>Node0&#45;&gt;Node5</title>
<path fill="none" stroke="#191970" d="M179.3221,-112.2455C188.9223,-103.9746 202.8892,-91.9416 214.1695,-82.2232"/>
<polygon fill="#191970" stroke="#191970" points="216.516,-84.8214 221.8076,-75.6427 211.947,-79.5182 216.516,-84.8214"/>
</g>
<!-- Node6 -->
<g id="node7" class="node">
<title>Node6</title>
<polygon fill="#ffffff" stroke="#bfbfbf" points="272,-56.5 272,-75.5 316,-75.5 316,-56.5 272,-56.5"/>
<text text-anchor="middle" x="294" y="-63.5" font-family="Lato" font-size="10.00" fill="#000000">vector</text>
</g>
<!-- Node0&#45;&gt;Node6 -->
<g id="edge7" class="edge">
<title>Node0&#45;&gt;Node6</title>
<path fill="none" stroke="#191970" d="M189.6602,-112.3733C209.9772,-103.3435 240.564,-89.7494 263.375,-79.6111"/>
<polygon fill="#191970" stroke="#191970" points="264.9059,-82.7609 272.6225,-75.5011 262.0628,-76.3642 264.9059,-82.7609"/>
</g>
<!-- Node2&#45;&gt;Node1 -->
<g id="edge4" class="edge">
<title>Node2&#45;&gt;Node1</title>
<path fill="none" stroke="#191970" d="M75.6779,-56.2455C66.0777,-47.9746 52.1108,-35.9416 40.8305,-26.2232"/>
<polygon fill="#191970" stroke="#191970" points="43.053,-23.5182 33.1924,-19.6427 38.484,-28.8214 43.053,-23.5182"/>
</g>
<!-- Node3 -->
<g id="node4" class="node">
<title>Node3</title>
<g id="a_node4"><a xlink:href="types_8hpp_source.html" target="_top" xlink:title="types.hpp">
<polygon fill="#ffffff" stroke="#000000" points="62.5,-.5 62.5,-19.5 121.5,-19.5 121.5,-.5 62.5,-.5"/>
<text text-anchor="middle" x="92" y="-7.5" font-family="Lato" font-size="10.00" fill="#000000">types.hpp</text>
</a>
</g>
</g>
<!-- Node2&#45;&gt;Node3 -->
<g id="edge3" class="edge">
<title>Node2&#45;&gt;Node3</title>
<path fill="none" stroke="#191970" d="M87.8709,-56.2455C88.5234,-48.9382 89.438,-38.6944 90.2407,-29.7046"/>
<polygon fill="#191970" stroke="#191970" points="93.7358,-29.9143 91.139,-19.6427 86.7635,-29.2918 93.7358,-29.9143"/>
</g>
</g>
</svg>
