<?xml version="1.0" encoding="UTF-8" standalone="no"?>
<!DOCTYPE svg PUBLIC "-//W3C//DTD SVG 1.1//EN"
 "http://www.w3.org/Graphics/SVG/1.1/DTD/svg11.dtd">
<!-- Generated by graphviz version 5.0.0 (0)
 -->
<!-- Title: jngl/text.hpp Pages: 1 -->
<svg width="377pt" height="192pt"
 viewBox="0.00 0.00 377.00 192.00" xmlns="http://www.w3.org/2000/svg" xmlns:xlink="http://www.w3.org/1999/xlink">
<g id="graph0" class="graph" transform="scale(1 1) rotate(0) translate(4 188)">
<title>jngl/text.hpp</title>
<!-- Node1 -->
<g id="node1" class="node">
<title>Node1</title>
<g id="a_node1"><a xlink:title=" ">
<polygon fill="#999999" stroke="#666666" points="283,-184 188,-184 188,-165 283,-165 283,-184"/>
<text text-anchor="middle" x="235.5" y="-172" font-family="ui-monospace,monospace" font-size="10.00">jngl/text.hpp</text>
</a>
</g>
</g>
<!-- Node2 -->
<g id="node2" class="node">
<title>Node2</title>
<g id="a_node2"><a xlink:href="Drawable_8hpp.html" target="_top" xlink:title="Contains jngl::Drawable class.">
<polygon fill="white" stroke="#666666" points="156,-129 67,-129 67,-110 156,-110 156,-129"/>
<text text-anchor="middle" x="111.5" y="-117" font-family="ui-monospace,monospace" font-size="10.00">Drawable.hpp</text>
</a>
</g>
</g>
<!-- Node1&#45;&gt;Node2 -->
<g id="edge1" class="edge">
<title>Node1&#45;&gt;Node2</title>
<path fill="none" stroke="#63b8ff" d="M215.58,-164.98C195.45,-156.38 164.12,-142.99 141.09,-133.15"/>
<polygon fill="#63b8ff" stroke="#63b8ff" points="142.36,-129.88 131.79,-129.17 139.6,-136.32 142.36,-129.88"/>
</g>
<!-- Node6 -->
<g id="node6" class="node">
<title>Node6</title>
<g id="a_node6"><a target="_parent" xlink:href="http://en.cppreference.com/w/cpp/header/memory.html" xlink:title=" ">
<polygon fill="white" stroke="#666666" points="227,-129 174,-129 174,-110 227,-110 227,-129"/>
<text text-anchor="middle" x="200.5" y="-117" font-family="ui-monospace,monospace" font-size="10.00">memory</text>
</a>
</g>
</g>
<!-- Node1&#45;&gt;Node6 -->
<g id="edge5" class="edge">
<title>Node1&#45;&gt;Node6</title>
<path fill="none" stroke="#63b8ff" d="M229.72,-164.75C224.88,-157.42 217.82,-146.73 211.86,-137.7"/>
<polygon fill="#63b8ff" stroke="#63b8ff" points="214.6,-135.5 206.17,-129.09 208.76,-139.36 214.6,-135.5"/>
</g>
<!-- Node7 -->
<g id="node7" class="node">
<title>Node7</title>
<g id="a_node7"><a target="_parent" xlink:href="http://en.cppreference.com/w/cpp/header/string.html" xlink:title=" ">
<polygon fill="white" stroke="#666666" points="298,-129 245,-129 245,-110 298,-110 298,-129"/>
<text text-anchor="middle" x="271.5" y="-117" font-family="ui-monospace,monospace" font-size="10.00">string</text>
</a>
</g>
</g>
<!-- Node1&#45;&gt;Node7 -->
<g id="edge6" class="edge">
<title>Node1&#45;&gt;Node7</title>
<path fill="none" stroke="#63b8ff" d="M241.44,-164.75C246.48,-157.34 253.84,-146.5 260.01,-137.41"/>
<polygon fill="#63b8ff" stroke="#63b8ff" points="262.94,-139.33 265.67,-129.09 257.15,-135.39 262.94,-139.33"/>
</g>
<!-- Node8 -->
<g id="node8" class="node">
<title>Node8</title>
<g id="a_node8"><a target="_parent" xlink:href="http://en.cppreference.com/w/cpp/header/vector.html" xlink:title=" ">
<polygon fill="white" stroke="#666666" points="369,-129 316,-129 316,-110 369,-110 369,-129"/>
<text text-anchor="middle" x="342.5" y="-117" font-family="ui-monospace,monospace" font-size="10.00">vector</text>
</a>
</g>
</g>
<!-- Node1&#45;&gt;Node8 -->
<g id="edge7" class="edge">
<title>Node1&#45;&gt;Node8</title>
<path fill="none" stroke="#63b8ff" d="M252.69,-164.98C269.75,-156.54 296.13,-143.47 315.9,-133.68"/>
<polygon fill="#63b8ff" stroke="#63b8ff" points="317.59,-136.75 325,-129.17 314.48,-130.47 317.59,-136.75"/>
</g>
<!-- Node3 -->
<g id="node3" class="node">
<title>Node3</title>
<g id="a_node3"><a xlink:href="Vec2_8hpp.html" target="_top" xlink:title="Contains jngl::Vec2 class.">
<polygon fill="white" stroke="#666666" points="144,-74 79,-74 79,-55 144,-55 144,-74"/>
<text text-anchor="middle" x="111.5" y="-62" font-family="ui-monospace,monospace" font-size="10.00">Vec2.hpp</text>
</a>
</g>
</g>
<!-- Node2&#45;&gt;Node3 -->
<g id="edge2" class="edge">
<title>Node2&#45;&gt;Node3</title>
<path fill="none" stroke="#63b8ff" d="M111.5,-109.75C111.5,-102.8 111.5,-92.85 111.5,-84.13"/>
<polygon fill="#63b8ff" stroke="#63b8ff" points="115,-84.09 111.5,-74.09 108,-84.09 115,-84.09"/>
</g>
<!-- Node4 -->
<g id="node4" class="node">
<title>Node4</title>
<g id="a_node4"><a xlink:title=" ">
<polygon fill="#e0e0e0" stroke="#999999" points="119,-19 0,-19 0,0 119,0 119,-19"/>
<text text-anchor="middle" x="59.5" y="-7" font-family="ui-monospace,monospace" font-size="10.00">boost/version.hpp</text>
</a>
</g>
</g>
<!-- Node3&#45;&gt;Node4 -->
<g id="edge3" class="edge">
<title>Node3&#45;&gt;Node4</title>
<path fill="none" stroke="#63b8ff" d="M102.91,-54.75C95.34,-47.03 84.12,-35.6 74.99,-26.28"/>
<polygon fill="#63b8ff" stroke="#63b8ff" points="77.43,-23.78 67.93,-19.09 72.43,-28.68 77.43,-23.78"/>
</g>
<!-- Node5 -->
<g id="node5" class="node">
<title>Node5</title>
<g id="a_node5"><a target="_parent" xlink:href="http://en.cppreference.com/w/cpp/header/iosfwd.html" xlink:title=" ">
<polygon fill="white" stroke="#666666" points="190,-19 137,-19 137,0 190,0 190,-19"/>
<text text-anchor="middle" x="163.5" y="-7" font-family="ui-monospace,monospace" font-size="10.00">iosfwd</text>
</a>
</g>
</g>
<!-- Node3&#45;&gt;Node5 -->
<g id="edge4" class="edge">
<title>Node3&#45;&gt;Node5</title>
<path fill="none" stroke="#63b8ff" d="M120.09,-54.75C127.66,-47.03 138.88,-35.6 148.01,-26.28"/>
<polygon fill="#63b8ff" stroke="#63b8ff" points="150.57,-28.68 155.07,-19.09 145.57,-23.78 150.57,-28.68"/>
</g>
</g>
</svg>
