<?xml version="1.0" encoding="UTF-8" standalone="no"?>
<!DOCTYPE svg PUBLIC "-//W3C//DTD SVG 1.1//EN"
 "http://www.w3.org/Graphics/SVG/1.1/DTD/svg11.dtd">
<!-- Generated by graphviz version 9.0.0 (20230911.1827)
 -->
<!-- Title: jngl/text.hpp Pages: 1 -->
<svg width="399pt" height="193pt"
 viewBox="0.00 0.00 399.00 193.00" xmlns="http://www.w3.org/2000/svg" xmlns:xlink="http://www.w3.org/1999/xlink">
<g id="graph0" class="graph" transform="scale(1 1) rotate(0) translate(4 189)">
<title>jngl/text.hpp</title>
<!-- Node1 -->
<g id="Node000001" class="node">
<title>Node1</title>
<g id="a_Node000001"><a xlink:title=" ">
<polygon fill="#999999" stroke="#666666" points="272,-185 178,-185 178,-165.75 272,-165.75 272,-185"/>
<text text-anchor="middle" x="225" y="-171.5" font-family="ui-monospace,monospace" font-size="10.00">jngl/text.hpp</text>
</a>
</g>
</g>
<!-- Node2 -->
<g id="Node000002" class="node">
<title>Node2</title>
<g id="a_Node000002"><a xlink:href="Drawable_8hpp.html" target="_top" xlink:title="Contains jngl::Drawable class.">
<polygon fill="white" stroke="#666666" points="99,-129.75 11,-129.75 11,-110.5 99,-110.5 99,-129.75"/>
<text text-anchor="middle" x="55" y="-116.25" font-family="ui-monospace,monospace" font-size="10.00">Drawable.hpp</text>
</a>
</g>
</g>
<!-- Node1&#45;&gt;Node2 -->
<g id="edge1_Node000001_Node000002" class="edge">
<title>Node1&#45;&gt;Node2</title>
<g id="a_edge1_Node000001_Node000002"><a xlink:title=" ">
<path fill="none" stroke="#63b8ff" d="M196.16,-165.34C168.32,-156.62 125.93,-143.34 94.86,-133.61"/>
<polygon fill="#63b8ff" stroke="#63b8ff" points="96.01,-130.3 85.42,-130.65 93.92,-136.98 96.01,-130.3"/>
</a>
</g>
</g>
<!-- Node6 -->
<g id="Node000006" class="node">
<title>Node6</title>
<g id="a_Node000006"><a xlink:href="Mat3_8hpp.html" target="_top" xlink:title="Contains jngl::Mat3 class.">
<polygon fill="white" stroke="#666666" points="181,-129.75 117,-129.75 117,-110.5 181,-110.5 181,-129.75"/>
<text text-anchor="middle" x="149" y="-116.25" font-family="ui-monospace,monospace" font-size="10.00">Mat3.hpp</text>
</a>
</g>
</g>
<!-- Node1&#45;&gt;Node6 -->
<g id="edge5_Node000001_Node000006" class="edge">
<title>Node1&#45;&gt;Node6</title>
<g id="a_edge5_Node000001_Node000006"><a xlink:title=" ">
<path fill="none" stroke="#63b8ff" d="M212.11,-165.34C200.97,-157.54 184.63,-146.09 171.36,-136.79"/>
<polygon fill="#63b8ff" stroke="#63b8ff" points="173.39,-133.94 163.2,-131.07 169.38,-139.68 173.39,-133.94"/>
</a>
</g>
</g>
<!-- Node8 -->
<g id="Node000008" class="node">
<title>Node8</title>
<g id="a_Node000008"><a target="_parent" xlink:href="http://en.cppreference.com/w/cpp/header/memory.html" xlink:title=" ">
<polygon fill="white" stroke="#666666" points="251,-129.75 199,-129.75 199,-110.5 251,-110.5 251,-129.75"/>
<text text-anchor="middle" x="225" y="-116.25" font-family="ui-monospace,monospace" font-size="10.00">memory</text>
</a>
</g>
</g>
<!-- Node1&#45;&gt;Node8 -->
<g id="edge8_Node000001_Node000008" class="edge">
<title>Node1&#45;&gt;Node8</title>
<g id="a_edge8_Node000001_Node000008"><a xlink:title=" ">
<path fill="none" stroke="#63b8ff" d="M225,-165.58C225,-159.07 225,-149.92 225,-141.62"/>
<polygon fill="#63b8ff" stroke="#63b8ff" points="228.5,-141.62 225,-131.62 221.5,-141.62 228.5,-141.62"/>
</a>
</g>
</g>
<!-- Node9 -->
<g id="Node000009" class="node">
<title>Node9</title>
<g id="a_Node000009"><a target="_parent" xlink:href="http://en.cppreference.com/w/cpp/header/string.html" xlink:title=" ">
<polygon fill="white" stroke="#666666" points="321,-129.75 269,-129.75 269,-110.5 321,-110.5 321,-129.75"/>
<text text-anchor="middle" x="295" y="-116.25" font-family="ui-monospace,monospace" font-size="10.00">string</text>
</a>
</g>
</g>
<!-- Node1&#45;&gt;Node9 -->
<g id="edge9_Node000001_Node000009" class="edge">
<title>Node1&#45;&gt;Node9</title>
<g id="a_edge9_Node000001_Node000009"><a xlink:title=" ">
<path fill="none" stroke="#63b8ff" d="M236.87,-165.34C247.09,-157.57 262.07,-146.17 274.26,-136.9"/>
<polygon fill="#63b8ff" stroke="#63b8ff" points="276.26,-139.78 282.1,-130.94 272.02,-134.21 276.26,-139.78"/>
</a>
</g>
</g>
<!-- Node10 -->
<g id="Node000010" class="node">
<title>Node10</title>
<g id="a_Node000010"><a target="_parent" xlink:href="http://en.cppreference.com/w/cpp/header/vector.html" xlink:title=" ">
<polygon fill="white" stroke="#666666" points="391,-129.75 339,-129.75 339,-110.5 391,-110.5 391,-129.75"/>
<text text-anchor="middle" x="365" y="-116.25" font-family="ui-monospace,monospace" font-size="10.00">vector</text>
</a>
</g>
</g>
<!-- Node1&#45;&gt;Node10 -->
<g id="edge10_Node000001_Node000010" class="edge">
<title>Node1&#45;&gt;Node10</title>
<g id="a_edge10_Node000001_Node000010"><a xlink:title=" ">
<path fill="none" stroke="#63b8ff" d="M248.75,-165.34C271.17,-156.81 305.06,-143.92 330.47,-134.26"/>
<polygon fill="#63b8ff" stroke="#63b8ff" points="331.62,-137.57 339.72,-130.74 329.13,-131.02 331.62,-137.57"/>
</a>
</g>
</g>
<!-- Node3 -->
<g id="Node000003" class="node">
<title>Node3</title>
<g id="a_Node000003"><a xlink:href="Vec2_8hpp.html" target="_top" xlink:title="Contains jngl::Vec2 class.">
<polygon fill="white" stroke="#666666" points="87,-74.5 23,-74.5 23,-55.25 87,-55.25 87,-74.5"/>
<text text-anchor="middle" x="55" y="-61" font-family="ui-monospace,monospace" font-size="10.00">Vec2.hpp</text>
</a>
</g>
</g>
<!-- Node2&#45;&gt;Node3 -->
<g id="edge2_Node000002_Node000003" class="edge">
<title>Node2&#45;&gt;Node3</title>
<g id="a_edge2_Node000002_Node000003"><a xlink:title=" ">
<path fill="none" stroke="#63b8ff" d="M55,-110.33C55,-103.82 55,-94.67 55,-86.37"/>
<polygon fill="#63b8ff" stroke="#63b8ff" points="58.5,-86.37 55,-76.37 51.5,-86.37 58.5,-86.37"/>
</a>
</g>
</g>
<!-- Node4 -->
<g id="Node000004" class="node">
<title>Node4</title>
<g id="a_Node000004"><a xlink:title=" ">
<polygon fill="#e0e0e0" stroke="#999999" points="194,-19.25 70,-19.25 70,0 194,0 194,-19.25"/>
<text text-anchor="middle" x="132" y="-5.75" font-family="ui-monospace,monospace" font-size="10.00">boost/qvm_lite.hpp</text>
</a>
</g>
</g>
<!-- Node3&#45;&gt;Node4 -->
<g id="edge3_Node000003_Node000004" class="edge">
<title>Node3&#45;&gt;Node4</title>
<g id="a_edge3_Node000003_Node000004"><a xlink:title=" ">
<path fill="none" stroke="#63b8ff" d="M68.06,-54.84C79.46,-46.96 96.23,-35.36 109.74,-26.02"/>
<polygon fill="#63b8ff" stroke="#63b8ff" points="111.4,-29.13 117.63,-20.56 107.41,-23.37 111.4,-29.13"/>
</a>
</g>
</g>
<!-- Node5 -->
<g id="Node000005" class="node">
<title>Node5</title>
<g id="a_Node000005"><a target="_parent" xlink:href="http://en.cppreference.com/w/cpp/header/iosfwd.html" xlink:title=" ">
<polygon fill="white" stroke="#666666" points="52,-19.25 0,-19.25 0,0 52,0 52,-19.25"/>
<text text-anchor="middle" x="26" y="-5.75" font-family="ui-monospace,monospace" font-size="10.00">iosfwd</text>
</a>
</g>
</g>
<!-- Node3&#45;&gt;Node5 -->
<g id="edge4_Node000003_Node000005" class="edge">
<title>Node3&#45;&gt;Node5</title>
<g id="a_edge4_Node000003_Node000005"><a xlink:title=" ">
<path fill="none" stroke="#63b8ff" d="M50.21,-55.08C46.46,-48.19 41.09,-38.34 36.37,-29.66"/>
<polygon fill="#63b8ff" stroke="#63b8ff" points="39.47,-28.05 31.62,-20.94 33.33,-31.39 39.47,-28.05"/>
</a>
</g>
</g>
<!-- Node6&#45;&gt;Node4 -->
<g id="edge6_Node000006_Node000004" class="edge">
<title>Node6&#45;&gt;Node4</title>
<g id="a_edge6_Node000006_Node000004"><a xlink:title=" ">
<path fill="none" stroke="#63b8ff" d="M147.61,-110.25C144.91,-93 138.89,-54.58 135.16,-30.81"/>
<polygon fill="#63b8ff" stroke="#63b8ff" points="138.65,-30.46 133.64,-21.12 131.73,-31.54 138.65,-30.46"/>
</a>
</g>
</g>
<!-- Node7 -->
<g id="Node000007" class="node">
<title>Node7</title>
<g id="a_Node000007"><a target="_parent" xlink:href="http://en.cppreference.com/w/cpp/header/initializer_list.html" xlink:title=" ">
<polygon fill="white" stroke="#666666" points="272,-74.5 160,-74.5 160,-55.25 272,-55.25 272,-74.5"/>
<text text-anchor="middle" x="216" y="-61" font-family="ui-monospace,monospace" font-size="10.00">initializer_list</text>
</a>
</g>
</g>
<!-- Node6&#45;&gt;Node7 -->
<g id="edge7_Node000006_Node000007" class="edge">
<title>Node6&#45;&gt;Node7</title>
<g id="a_edge7_Node000006_Node000007"><a xlink:title=" ">
<path fill="none" stroke="#63b8ff" d="M160.37,-110.09C170.05,-102.4 184.2,-91.15 195.81,-81.93"/>
<polygon fill="#63b8ff" stroke="#63b8ff" points="197.97,-84.68 203.62,-75.72 193.61,-79.2 197.97,-84.68"/>
</a>
</g>
</g>
</g>
</svg>
