<?xml version="1.0" encoding="UTF-8" standalone="no"?>
<!DOCTYPE svg PUBLIC "-//W3C//DTD SVG 1.1//EN"
 "http://www.w3.org/Graphics/SVG/1.1/DTD/svg11.dtd">
<!-- Generated by graphviz version 2.40.1 (0)
 -->
<!-- Title: jngl/text.hpp Pages: 1 -->
<svg width="333pt" height="140pt"
 viewBox="0.00 0.00 332.50 140.00" xmlns="http://www.w3.org/2000/svg" xmlns:xlink="http://www.w3.org/1999/xlink">
<g id="graph0" class="graph" transform="scale(1 1) rotate(0) translate(4 136)">
<title>jngl/text.hpp</title>
<polygon fill="#ffffff" stroke="transparent" points="-4,4 -4,-136 328.5,-136 328.5,4 -4,4"/>
<!-- Node0 -->
<g id="node1" class="node">
<title>Node0</title>
<polygon fill="#bfbfbf" stroke="#000000" points="136,-112.5 136,-131.5 211,-131.5 211,-112.5 136,-112.5"/>
<text text-anchor="middle" x="173.5" y="-119.5" font-family="Lato" font-size="10.00" fill="#000000">jngl/text.hpp</text>
</g>
<!-- Node1 -->
<g id="node2" class="node">
<title>Node1</title>
<g id="a_node2"><a xlink:href="dll_8hpp_source.html" target="_top" xlink:title="dll.hpp">
<polygon fill="#ffffff" stroke="#000000" points="0,-.5 0,-19.5 47,-19.5 47,-.5 0,-.5"/>
<text text-anchor="middle" x="23.5" y="-7.5" font-family="Lato" font-size="10.00" fill="#000000">dll.hpp</text>
</a>
</g>
</g>
<!-- Node0&#45;&gt;Node1 -->
<g id="edge1" class="edge">
<title>Node0&#45;&gt;Node1</title>
<path fill="none" stroke="#191970" d="M135.7902,-117.8724C106.7974,-112.7614 67.7253,-101.3626 43.5,-76 31.6381,-63.5812 26.7899,-44.359 24.8198,-29.856"/>
<polygon fill="#191970" stroke="#191970" points="28.2988,-29.4712 23.8057,-19.8763 21.3346,-30.1789 28.2988,-29.4712"/>
</g>
<!-- Node2 -->
<g id="node3" class="node">
<title>Node2</title>
<g id="a_node3"><a xlink:href="drawable_8hpp_source.html" target="_top" xlink:title="drawable.hpp">
<polygon fill="#ffffff" stroke="#000000" points="52,-56.5 52,-75.5 129,-75.5 129,-56.5 52,-56.5"/>
<text text-anchor="middle" x="90.5" y="-63.5" font-family="Lato" font-size="10.00" fill="#000000">drawable.hpp</text>
</a>
</g>
</g>
<!-- Node0&#45;&gt;Node2 -->
<g id="edge2" class="edge">
<title>Node0&#45;&gt;Node2</title>
<path fill="none" stroke="#191970" d="M159.0425,-112.2455C146.4268,-103.7337 127.9056,-91.2375 113.2955,-81.3801"/>
<polygon fill="#191970" stroke="#191970" points="115.0391,-78.3343 104.7918,-75.6427 111.1239,-84.1371 115.0391,-78.3343"/>
</g>
<!-- Node4 -->
<g id="node5" class="node">
<title>Node4</title>
<polygon fill="#ffffff" stroke="#bfbfbf" points="147,-56.5 147,-75.5 200,-75.5 200,-56.5 147,-56.5"/>
<text text-anchor="middle" x="173.5" y="-63.5" font-family="Lato" font-size="10.00" fill="#000000">memory</text>
</g>
<!-- Node0&#45;&gt;Node4 -->
<g id="edge5" class="edge">
<title>Node0&#45;&gt;Node4</title>
<path fill="none" stroke="#191970" d="M173.5,-112.2455C173.5,-104.9382 173.5,-94.6944 173.5,-85.7046"/>
<polygon fill="#191970" stroke="#191970" points="177.0001,-85.6426 173.5,-75.6427 170.0001,-85.6427 177.0001,-85.6426"/>
</g>
<!-- Node5 -->
<g id="node6" class="node">
<title>Node5</title>
<polygon fill="#ffffff" stroke="#bfbfbf" points="218.5,-56.5 218.5,-75.5 260.5,-75.5 260.5,-56.5 218.5,-56.5"/>
<text text-anchor="middle" x="239.5" y="-63.5" font-family="Lato" font-size="10.00" fill="#000000">string</text>
</g>
<!-- Node0&#45;&gt;Node5 -->
<g id="edge6" class="edge">
<title>Node0&#45;&gt;Node5</title>
<path fill="none" stroke="#191970" d="M184.9963,-112.2455C194.7442,-103.9746 208.9259,-91.9416 220.3798,-82.2232"/>
<polygon fill="#191970" stroke="#191970" points="222.7747,-84.7813 228.1354,-75.6427 218.2459,-79.4437 222.7747,-84.7813"/>
</g>
<!-- Node6 -->
<g id="node7" class="node">
<title>Node6</title>
<polygon fill="#ffffff" stroke="#bfbfbf" points="278.5,-56.5 278.5,-75.5 324.5,-75.5 324.5,-56.5 278.5,-56.5"/>
<text text-anchor="middle" x="301.5" y="-63.5" font-family="Lato" font-size="10.00" fill="#000000">vector</text>
</g>
<!-- Node0&#45;&gt;Node6 -->
<g id="edge7" class="edge">
<title>Node0&#45;&gt;Node6</title>
<path fill="none" stroke="#191970" d="M195.504,-112.3733C216.1435,-103.3435 247.2158,-89.7494 270.3889,-79.6111"/>
<polygon fill="#191970" stroke="#191970" points="272.0245,-82.7159 279.7831,-75.5011 269.2187,-76.3028 272.0245,-82.7159"/>
</g>
<!-- Node2&#45;&gt;Node1 -->
<g id="edge4" class="edge">
<title>Node2&#45;&gt;Node1</title>
<path fill="none" stroke="#191970" d="M78.8295,-56.2455C68.9339,-47.9746 54.5373,-35.9416 42.9099,-26.2232"/>
<polygon fill="#191970" stroke="#191970" points="44.9542,-23.3703 35.0368,-19.6427 40.465,-28.7413 44.9542,-23.3703"/>
</g>
<!-- Node3 -->
<g id="node4" class="node">
<title>Node3</title>
<g id="a_node4"><a xlink:href="types_8hpp_source.html" target="_top" xlink:title="types.hpp">
<polygon fill="#ffffff" stroke="#000000" points="65.5,-.5 65.5,-19.5 127.5,-19.5 127.5,-.5 65.5,-.5"/>
<text text-anchor="middle" x="96.5" y="-7.5" font-family="Lato" font-size="10.00" fill="#000000">types.hpp</text>
</a>
</g>
</g>
<!-- Node2&#45;&gt;Node3 -->
<g id="edge3" class="edge">
<title>Node2&#45;&gt;Node3</title>
<path fill="none" stroke="#191970" d="M91.5451,-56.2455C92.328,-48.9382 93.4256,-38.6944 94.3888,-29.7046"/>
<polygon fill="#191970" stroke="#191970" points="97.8815,-29.9587 95.4669,-19.6427 90.9214,-29.2129 97.8815,-29.9587"/>
</g>
</g>
</svg>
