<?xml version="1.0" encoding="UTF-8" standalone="no"?>
<!DOCTYPE svg PUBLIC "-//W3C//DTD SVG 1.1//EN"
 "http://www.w3.org/Graphics/SVG/1.1/DTD/svg11.dtd">
<!-- Generated by graphviz version 5.0.0 (0)
 -->
<!-- Title: jngl/TextLine.hpp Pages: 1 -->
<svg width="283pt" height="192pt"
 viewBox="0.00 0.00 283.00 192.00" xmlns="http://www.w3.org/2000/svg" xmlns:xlink="http://www.w3.org/1999/xlink">
<g id="graph0" class="graph" transform="scale(1 1) rotate(0) translate(4 188)">
<title>jngl/TextLine.hpp</title>
<!-- Node1 -->
<g id="node1" class="node">
<title>Node1</title>
<g id="a_node1"><a xlink:title="Contains jngl::TextLine class.">
<polygon fill="#999999" stroke="#666666" points="210,-184 91,-184 91,-165 210,-165 210,-184"/>
<text text-anchor="middle" x="150.5" y="-172" font-family="ui-monospace,monospace" font-size="10.00">jngl/TextLine.hpp</text>
</a>
</g>
</g>
<!-- Node2 -->
<g id="node2" class="node">
<title>Node2</title>
<g id="a_node2"><a xlink:href="Drawable_8hpp.html" target="_top" xlink:title="Contains jngl::Drawable class.">
<polygon fill="white" stroke="#666666" points="100,-129 11,-129 11,-110 100,-110 100,-129"/>
<text text-anchor="middle" x="55.5" y="-117" font-family="ui-monospace,monospace" font-size="10.00">Drawable.hpp</text>
</a>
</g>
</g>
<!-- Node1&#45;&gt;Node2 -->
<g id="edge1" class="edge">
<title>Node1&#45;&gt;Node2</title>
<path fill="none" stroke="#63b8ff" d="M135.24,-164.98C120.37,-156.69 97.52,-143.94 80.08,-134.22"/>
<polygon fill="#63b8ff" stroke="#63b8ff" points="81.48,-130.99 71.04,-129.17 78.07,-137.1 81.48,-130.99"/>
</g>
<!-- Node6 -->
<g id="node6" class="node">
<title>Node6</title>
<g id="a_node6"><a xlink:href="Mat3_8hpp.html" target="_top" xlink:title="Contains jngl::Mat3 class.">
<polygon fill="white" stroke="#666666" points="183,-129 118,-129 118,-110 183,-110 183,-129"/>
<text text-anchor="middle" x="150.5" y="-117" font-family="ui-monospace,monospace" font-size="10.00">Mat3.hpp</text>
</a>
</g>
</g>
<!-- Node1&#45;&gt;Node6 -->
<g id="edge5" class="edge">
<title>Node1&#45;&gt;Node6</title>
<path fill="none" stroke="#63b8ff" d="M150.5,-164.75C150.5,-157.8 150.5,-147.85 150.5,-139.13"/>
<polygon fill="#63b8ff" stroke="#63b8ff" points="154,-139.09 150.5,-129.09 147,-139.09 154,-139.09"/>
</g>
<!-- Node8 -->
<g id="node8" class="node">
<title>Node8</title>
<g id="a_node8"><a target="_parent" xlink:href="http://en.cppreference.com/w/cpp/header/memory.html" xlink:title=" ">
<polygon fill="white" stroke="#666666" points="254,-129 201,-129 201,-110 254,-110 254,-129"/>
<text text-anchor="middle" x="227.5" y="-117" font-family="ui-monospace,monospace" font-size="10.00">memory</text>
</a>
</g>
</g>
<!-- Node1&#45;&gt;Node8 -->
<g id="edge8" class="edge">
<title>Node1&#45;&gt;Node8</title>
<path fill="none" stroke="#63b8ff" d="M162.87,-164.98C174.59,-156.92 192.42,-144.65 206.39,-135.03"/>
<polygon fill="#63b8ff" stroke="#63b8ff" points="208.65,-137.72 214.9,-129.17 204.68,-131.96 208.65,-137.72"/>
</g>
<!-- Node3 -->
<g id="node3" class="node">
<title>Node3</title>
<g id="a_node3"><a xlink:href="Vec2_8hpp.html" target="_top" xlink:title="Contains jngl::Vec2 class.">
<polygon fill="white" stroke="#666666" points="88,-74 23,-74 23,-55 88,-55 88,-74"/>
<text text-anchor="middle" x="55.5" y="-62" font-family="ui-monospace,monospace" font-size="10.00">Vec2.hpp</text>
</a>
</g>
</g>
<!-- Node2&#45;&gt;Node3 -->
<g id="edge2" class="edge">
<title>Node2&#45;&gt;Node3</title>
<path fill="none" stroke="#63b8ff" d="M55.5,-109.75C55.5,-102.8 55.5,-92.85 55.5,-84.13"/>
<polygon fill="#63b8ff" stroke="#63b8ff" points="59,-84.09 55.5,-74.09 52,-84.09 59,-84.09"/>
</g>
<!-- Node4 -->
<g id="node4" class="node">
<title>Node4</title>
<g id="a_node4"><a xlink:title=" ">
<polygon fill="#e0e0e0" stroke="#999999" points="196,-19 71,-19 71,0 196,0 196,-19"/>
<text text-anchor="middle" x="133.5" y="-7" font-family="ui-monospace,monospace" font-size="10.00">boost/qvm_lite.hpp</text>
</a>
</g>
</g>
<!-- Node3&#45;&gt;Node4 -->
<g id="edge3" class="edge">
<title>Node3&#45;&gt;Node4</title>
<path fill="none" stroke="#63b8ff" d="M68.03,-54.98C79.9,-46.92 97.96,-34.65 112.11,-25.03"/>
<polygon fill="#63b8ff" stroke="#63b8ff" points="114.44,-27.69 120.74,-19.17 110.5,-21.9 114.44,-27.69"/>
</g>
<!-- Node5 -->
<g id="node5" class="node">
<title>Node5</title>
<g id="a_node5"><a target="_parent" xlink:href="http://en.cppreference.com/w/cpp/header/iosfwd.html" xlink:title=" ">
<polygon fill="white" stroke="#666666" points="53,-19 0,-19 0,0 53,0 53,-19"/>
<text text-anchor="middle" x="26.5" y="-7" font-family="ui-monospace,monospace" font-size="10.00">iosfwd</text>
</a>
</g>
</g>
<!-- Node3&#45;&gt;Node5 -->
<g id="edge4" class="edge">
<title>Node3&#45;&gt;Node5</title>
<path fill="none" stroke="#63b8ff" d="M50.71,-54.75C46.74,-47.49 40.97,-36.95 36.07,-27.98"/>
<polygon fill="#63b8ff" stroke="#63b8ff" points="39.07,-26.18 31.2,-19.09 32.93,-29.54 39.07,-26.18"/>
</g>
<!-- Node6&#45;&gt;Node4 -->
<g id="edge6" class="edge">
<title>Node6&#45;&gt;Node4</title>
<path fill="none" stroke="#63b8ff" d="M149.11,-109.66C146.36,-92.17 140.16,-52.8 136.46,-29.27"/>
<polygon fill="#63b8ff" stroke="#63b8ff" points="139.88,-28.49 134.86,-19.16 132.96,-29.58 139.88,-28.49"/>
</g>
<!-- Node7 -->
<g id="node7" class="node">
<title>Node7</title>
<g id="a_node7"><a target="_parent" xlink:href="http://en.cppreference.com/w/cpp/header/initializer_list.html" xlink:title=" ">
<polygon fill="white" stroke="#666666" points="275,-74 162,-74 162,-55 275,-55 275,-74"/>
<text text-anchor="middle" x="218.5" y="-62" font-family="ui-monospace,monospace" font-size="10.00">initializer_list</text>
</a>
</g>
</g>
<!-- Node6&#45;&gt;Node7 -->
<g id="edge7" class="edge">
<title>Node6&#45;&gt;Node7</title>
<path fill="none" stroke="#63b8ff" d="M161.43,-109.98C171.58,-102.07 186.92,-90.11 199.15,-80.58"/>
<polygon fill="#63b8ff" stroke="#63b8ff" points="201.64,-83.08 207.38,-74.17 197.34,-77.56 201.64,-83.08"/>
</g>
</g>
</svg>
