<?xml version="1.0" encoding="UTF-8" standalone="no"?>
<!DOCTYPE svg PUBLIC "-//W3C//DTD SVG 1.1//EN"
 "http://www.w3.org/Graphics/SVG/1.1/DTD/svg11.dtd">
<!-- Generated by graphviz version 2.40.1 (20161225.0304)
 -->
<!-- Title: jngl/text.hpp Pages: 1 -->
<svg width="368pt" height="140pt"
 viewBox="0.00 0.00 368.00 140.00" xmlns="http://www.w3.org/2000/svg" xmlns:xlink="http://www.w3.org/1999/xlink">
<g id="graph0" class="graph" transform="scale(1 1) rotate(0) translate(4 136)">
<title>jngl/text.hpp</title>
<polygon fill="#ffffff" stroke="transparent" points="-4,4 -4,-136 364,-136 364,4 -4,4"/>
<!-- Node0 -->
<g id="node1" class="node">
<title>Node0</title>
<polygon fill="#bfbfbf" stroke="#000000" points="144,-112.5 144,-131.5 239,-131.5 239,-112.5 144,-112.5"/>
<text text-anchor="middle" x="191.5" y="-119.5" font-family="'Consolas',monospace" font-size="10.00" fill="#000000">jngl/text.hpp</text>
</g>
<!-- Node1 -->
<g id="node2" class="node">
<title>Node1</title>
<g id="a_node2"><a xlink:href="dll_8hpp_source.html" target="_top" xlink:title="dll.hpp">
<polygon fill="#ffffff" stroke="#000000" points="0,-.5 0,-19.5 59,-19.5 59,-.5 0,-.5"/>
<text text-anchor="middle" x="29.5" y="-7.5" font-family="'Consolas',monospace" font-size="10.00" fill="#000000">dll.hpp</text>
</a>
</g>
</g>
<!-- Node0&#45;&gt;Node1 -->
<g id="edge1" class="edge">
<title>Node0&#45;&gt;Node1</title>
<path fill="none" stroke="#191970" d="M147.4217,-112.4392C111.0801,-103.7284 63.3384,-90.1044 49.5,-76 37.4726,-63.7414 32.6444,-44.4998 30.7238,-29.949"/>
<polygon fill="#191970" stroke="#191970" points="34.201,-29.5443 29.7508,-19.9295 27.2338,-30.221 34.201,-29.5443"/>
</g>
<!-- Node2 -->
<g id="node3" class="node">
<title>Node2</title>
<g id="a_node3"><a xlink:href="drawable_8hpp_source.html" target="_top" xlink:title="drawable.hpp">
<polygon fill="#ffffff" stroke="#000000" points="58,-56.5 58,-75.5 147,-75.5 147,-56.5 58,-56.5"/>
<text text-anchor="middle" x="102.5" y="-63.5" font-family="'Consolas',monospace" font-size="10.00" fill="#000000">drawable.hpp</text>
</a>
</g>
</g>
<!-- Node0&#45;&gt;Node2 -->
<g id="edge2" class="edge">
<title>Node0&#45;&gt;Node2</title>
<path fill="none" stroke="#191970" d="M175.9974,-112.2455C162.342,-103.6534 142.2343,-91.0014 126.5011,-81.1018"/>
<polygon fill="#191970" stroke="#191970" points="128.1529,-78.006 117.825,-75.6427 124.4249,-83.9307 128.1529,-78.006"/>
</g>
<!-- Node4 -->
<g id="node5" class="node">
<title>Node4</title>
<polygon fill="#ffffff" stroke="#bfbfbf" points="165,-56.5 165,-75.5 218,-75.5 218,-56.5 165,-56.5"/>
<text text-anchor="middle" x="191.5" y="-63.5" font-family="'Consolas',monospace" font-size="10.00" fill="#000000">memory</text>
</g>
<!-- Node0&#45;&gt;Node4 -->
<g id="edge5" class="edge">
<title>Node0&#45;&gt;Node4</title>
<path fill="none" stroke="#191970" d="M191.5,-112.2455C191.5,-104.9382 191.5,-94.6944 191.5,-85.7046"/>
<polygon fill="#191970" stroke="#191970" points="195.0001,-85.6426 191.5,-75.6427 188.0001,-85.6427 195.0001,-85.6426"/>
</g>
<!-- Node5 -->
<g id="node6" class="node">
<title>Node5</title>
<polygon fill="#ffffff" stroke="#bfbfbf" points="236,-56.5 236,-75.5 289,-75.5 289,-56.5 236,-56.5"/>
<text text-anchor="middle" x="262.5" y="-63.5" font-family="'Consolas',monospace" font-size="10.00" fill="#000000">string</text>
</g>
<!-- Node0&#45;&gt;Node5 -->
<g id="edge6" class="edge">
<title>Node0&#45;&gt;Node5</title>
<path fill="none" stroke="#191970" d="M203.8673,-112.2455C214.4554,-103.8943 229.9064,-91.7076 242.2893,-81.9408"/>
<polygon fill="#191970" stroke="#191970" points="244.5903,-84.5837 250.2745,-75.6427 240.2553,-79.0875 244.5903,-84.5837"/>
</g>
<!-- Node6 -->
<g id="node7" class="node">
<title>Node6</title>
<polygon fill="#ffffff" stroke="#bfbfbf" points="307,-56.5 307,-75.5 360,-75.5 360,-56.5 307,-56.5"/>
<text text-anchor="middle" x="333.5" y="-63.5" font-family="'Consolas',monospace" font-size="10.00" fill="#000000">vector</text>
</g>
<!-- Node0&#45;&gt;Node6 -->
<g id="edge7" class="edge">
<title>Node0&#45;&gt;Node6</title>
<path fill="none" stroke="#191970" d="M215.9107,-112.3733C239.1142,-103.2226 274.2038,-89.3844 300.0142,-79.2057"/>
<polygon fill="#191970" stroke="#191970" points="301.3892,-82.4258 309.4079,-75.5011 298.8211,-75.9139 301.3892,-82.4258"/>
</g>
<!-- Node2&#45;&gt;Node1 -->
<g id="edge4" class="edge">
<title>Node2&#45;&gt;Node1</title>
<path fill="none" stroke="#191970" d="M89.7844,-56.2455C78.898,-47.8943 63.0117,-35.7076 50.28,-25.9408"/>
<polygon fill="#191970" stroke="#191970" points="52.1346,-22.9523 42.0699,-19.6427 47.8739,-28.5063 52.1346,-22.9523"/>
</g>
<!-- Node3 -->
<g id="node4" class="node">
<title>Node3</title>
<g id="a_node4"><a xlink:href="types_8hpp_source.html" target="_top" xlink:title="types.hpp">
<polygon fill="#ffffff" stroke="#000000" points="77,-.5 77,-19.5 148,-19.5 148,-.5 77,-.5"/>
<text text-anchor="middle" x="112.5" y="-7.5" font-family="'Consolas',monospace" font-size="10.00" fill="#000000">types.hpp</text>
</a>
</g>
</g>
<!-- Node2&#45;&gt;Node3 -->
<g id="edge3" class="edge">
<title>Node2&#45;&gt;Node3</title>
<path fill="none" stroke="#191970" d="M104.2419,-56.2455C105.5467,-48.9382 107.376,-38.6944 108.9813,-29.7046"/>
<polygon fill="#191970" stroke="#191970" points="112.4656,-30.1022 110.7781,-19.6427 105.5746,-28.8717 112.4656,-30.1022"/>
</g>
</g>
</svg>
