<?xml version="1.0" encoding="UTF-8" standalone="no"?>
<!DOCTYPE svg PUBLIC "-//W3C//DTD SVG 1.1//EN"
 "http://www.w3.org/Graphics/SVG/1.1/DTD/svg11.dtd">
<!-- Generated by graphviz version 2.40.1 (0)
 -->
<!-- Title: jngl/text.hpp Pages: 1 -->
<svg width="312pt" height="143pt"
 viewBox="0.00 0.00 311.52 143.00" xmlns="http://www.w3.org/2000/svg" xmlns:xlink="http://www.w3.org/1999/xlink">
<g id="graph0" class="graph" transform="scale(1 1) rotate(0) translate(4 139)">
<title>jngl/text.hpp</title>
<polygon fill="#ffffff" stroke="transparent" points="-4,4 -4,-139 307.522,-139 307.522,4 -4,4"/>
<!-- Node0 -->
<g id="node1" class="node">
<title>Node0</title>
<polygon fill="#bfbfbf" stroke="#000000" points="129.612,-114.5 129.612,-134.5 196.446,-134.5 196.446,-114.5 129.612,-114.5"/>
<text text-anchor="middle" x="163.029" y="-121.5" font-family="Lato" font-size="10.00" fill="#000000">jngl/text.hpp</text>
</g>
<!-- Node1 -->
<g id="node2" class="node">
<title>Node1</title>
<g id="a_node2"><a xlink:href="dll_8hpp_source.html" target="_top" xlink:title="dll.hpp">
<polygon fill="#ffffff" stroke="#000000" points="0,-.5 0,-20.5 44.058,-20.5 44.058,-.5 0,-.5"/>
<text text-anchor="middle" x="22.029" y="-7.5" font-family="Lato" font-size="10.00" fill="#000000">dll.hpp</text>
</a>
</g>
</g>
<!-- Node0&#45;&gt;Node1 -->
<g id="edge1" class="edge">
<title>Node0&#45;&gt;Node1</title>
<path fill="none" stroke="#191970" d="M129.3992,-120.0933C101.9107,-114.7474 63.9679,-103.0964 41.029,-78 29.2478,-65.1107 24.7038,-45.4743 22.9856,-30.6981"/>
<polygon fill="#191970" stroke="#191970" points="26.4579,-30.2175 22.1494,-20.5383 19.4815,-30.7918 26.4579,-30.2175"/>
</g>
<!-- Node2 -->
<g id="node3" class="node">
<title>Node2</title>
<g id="a_node3"><a xlink:href="drawable_8hpp_source.html" target="_top" xlink:title="drawable.hpp">
<polygon fill="#ffffff" stroke="#000000" points="49.957,-57.5 49.957,-77.5 120.101,-77.5 120.101,-57.5 49.957,-57.5"/>
<text text-anchor="middle" x="85.029" y="-64.5" font-family="Lato" font-size="10.00" fill="#000000">drawable.hpp</text>
</a>
</g>
</g>
<!-- Node0&#45;&gt;Node2 -->
<g id="edge2" class="edge">
<title>Node0&#45;&gt;Node2</title>
<path fill="none" stroke="#191970" d="M149.0842,-114.3095C137.4378,-105.7987 120.6219,-93.5102 107.1418,-83.6594"/>
<polygon fill="#191970" stroke="#191970" points="108.9921,-80.6766 98.8531,-77.6022 104.862,-86.3283 108.9921,-80.6766"/>
</g>
<!-- Node4 -->
<g id="node5" class="node">
<title>Node4</title>
<polygon fill="#ffffff" stroke="#bfbfbf" points="138.366,-57.5 138.366,-77.5 187.692,-77.5 187.692,-57.5 138.366,-57.5"/>
<text text-anchor="middle" x="163.029" y="-64.5" font-family="Lato" font-size="10.00" fill="#000000">memory</text>
</g>
<!-- Node0&#45;&gt;Node4 -->
<g id="edge5" class="edge">
<title>Node0&#45;&gt;Node4</title>
<path fill="none" stroke="#191970" d="M163.029,-114.3095C163.029,-106.9335 163.029,-96.72 163.029,-87.715"/>
<polygon fill="#191970" stroke="#191970" points="166.5291,-87.6022 163.029,-77.6022 159.5291,-87.6023 166.5291,-87.6022"/>
</g>
<!-- Node5 -->
<g id="node6" class="node">
<title>Node5</title>
<polygon fill="#ffffff" stroke="#bfbfbf" points="205.641,-57.5 205.641,-77.5 244.417,-77.5 244.417,-57.5 205.641,-57.5"/>
<text text-anchor="middle" x="225.029" y="-64.5" font-family="Lato" font-size="10.00" fill="#000000">string</text>
</g>
<!-- Node0&#45;&gt;Node5 -->
<g id="edge6" class="edge">
<title>Node0&#45;&gt;Node5</title>
<path fill="none" stroke="#191970" d="M174.1134,-114.3095C183.1062,-106.0419 195.9768,-94.2093 206.5274,-84.5096"/>
<polygon fill="#191970" stroke="#191970" points="209.0477,-86.9469 214.0406,-77.6022 204.3101,-81.7937 209.0477,-86.9469"/>
</g>
<!-- Node6 -->
<g id="node7" class="node">
<title>Node6</title>
<polygon fill="#ffffff" stroke="#bfbfbf" points="262.536,-57.5 262.536,-77.5 303.522,-77.5 303.522,-57.5 262.536,-57.5"/>
<text text-anchor="middle" x="283.029" y="-64.5" font-family="Lato" font-size="10.00" fill="#000000">vector</text>
</g>
<!-- Node0&#45;&gt;Node6 -->
<g id="edge7" class="edge">
<title>Node0&#45;&gt;Node6</title>
<path fill="none" stroke="#191970" d="M184.2064,-114.4408C203.3446,-105.3501 231.7179,-91.8727 253.1589,-81.6883"/>
<polygon fill="#191970" stroke="#191970" points="254.9332,-84.7204 262.4642,-77.2683 251.9297,-78.3974 254.9332,-84.7204"/>
</g>
<!-- Node2&#45;&gt;Node1 -->
<g id="edge4" class="edge">
<title>Node2&#45;&gt;Node1</title>
<path fill="none" stroke="#191970" d="M73.7659,-57.3095C64.6279,-49.0419 51.5498,-37.2093 40.829,-27.5096"/>
<polygon fill="#191970" stroke="#191970" points="42.9582,-24.716 33.1946,-20.6022 38.2618,-29.9068 42.9582,-24.716"/>
</g>
<!-- Node3 -->
<g id="node4" class="node">
<title>Node3</title>
<g id="a_node4"><a xlink:href="types_8hpp_source.html" target="_top" xlink:title="types.hpp">
<polygon fill="#ffffff" stroke="#000000" points="61.7255,-.5 61.7255,-20.5 116.3325,-20.5 116.3325,-.5 61.7255,-.5"/>
<text text-anchor="middle" x="89.029" y="-7.5" font-family="Lato" font-size="10.00" fill="#000000">types.hpp</text>
</a>
</g>
</g>
<!-- Node2&#45;&gt;Node3 -->
<g id="edge3" class="edge">
<title>Node2&#45;&gt;Node3</title>
<path fill="none" stroke="#191970" d="M85.7441,-57.3095C86.2617,-49.9335 86.9785,-39.72 87.6104,-30.715"/>
<polygon fill="#191970" stroke="#191970" points="91.1114,-30.8227 88.3201,-20.6022 84.1285,-30.3327 91.1114,-30.8227"/>
</g>
</g>
</svg>
