<?xml version="1.0" encoding="UTF-8" standalone="no"?>
<!DOCTYPE svg PUBLIC "-//W3C//DTD SVG 1.1//EN"
 "http://www.w3.org/Graphics/SVG/1.1/DTD/svg11.dtd">
<!-- Generated by graphviz version 2.43.0 (0)
 -->
<!-- Title: jngl/TextLine.hpp Pages: 1 -->
<svg width="280pt" height="196pt"
 viewBox="0.00 0.00 280.00 196.00" xmlns="http://www.w3.org/2000/svg" xmlns:xlink="http://www.w3.org/1999/xlink">
<g id="graph0" class="graph" transform="scale(1 1) rotate(0) translate(4 192)">
<title>jngl/TextLine.hpp</title>
<polygon fill="white" stroke="transparent" points="-4,4 -4,-192 276,-192 276,4 -4,4"/>
<!-- Node1 -->
<g id="node1" class="node">
<title>Node1</title>
<g id="a_node1"><a xlink:title="Contains jngl::TextLine class.">
<polygon fill="#bfbfbf" stroke="black" points="88,-168.5 88,-187.5 207,-187.5 207,-168.5 88,-168.5"/>
<text text-anchor="middle" x="147.5" y="-175.5" font-family="'Consolas',monospace" font-size="10.00">jngl/TextLine.hpp</text>
</a>
</g>
</g>
<!-- Node2 -->
<g id="node2" class="node">
<title>Node2</title>
<g id="a_node2"><a xlink:href="Drawable_8hpp.html" target="_top" xlink:title="Contains jngl::Drawable class.">
<polygon fill="white" stroke="black" points="8,-112.5 8,-131.5 97,-131.5 97,-112.5 8,-112.5"/>
<text text-anchor="middle" x="52.5" y="-119.5" font-family="'Consolas',monospace" font-size="10.00">Drawable.hpp</text>
</a>
</g>
</g>
<!-- Node1&#45;&gt;Node2 -->
<g id="edge1" class="edge">
<title>Node1&#45;&gt;Node2</title>
<path fill="none" stroke="midnightblue" d="M132.24,-168.32C117.28,-159.82 94.25,-146.73 76.77,-136.8"/>
<polygon fill="midnightblue" stroke="midnightblue" points="78.15,-133.55 67.73,-131.65 74.69,-139.64 78.15,-133.55"/>
</g>
<!-- Node6 -->
<g id="node6" class="node">
<title>Node6</title>
<g id="a_node6"><a xlink:href="Mat3_8hpp.html" target="_top" xlink:title="Contains jngl::Mat3 class.">
<polygon fill="white" stroke="black" points="115,-112.5 115,-131.5 180,-131.5 180,-112.5 115,-112.5"/>
<text text-anchor="middle" x="147.5" y="-119.5" font-family="'Consolas',monospace" font-size="10.00">Mat3.hpp</text>
</a>
</g>
</g>
<!-- Node1&#45;&gt;Node6 -->
<g id="edge5" class="edge">
<title>Node1&#45;&gt;Node6</title>
<path fill="none" stroke="midnightblue" d="M147.5,-168.08C147.5,-161.01 147.5,-150.86 147.5,-141.99"/>
<polygon fill="midnightblue" stroke="midnightblue" points="151,-141.75 147.5,-131.75 144,-141.75 151,-141.75"/>
</g>
<!-- Node8 -->
<g id="node8" class="node">
<title>Node8</title>
<g id="a_node8"><a target="_parent" xlink:href="http://en.cppreference.com/w/cpp/header/memory.html" xlink:title=" ">
<polygon fill="white" stroke="black" points="198,-112.5 198,-131.5 251,-131.5 251,-112.5 198,-112.5"/>
<text text-anchor="middle" x="224.5" y="-119.5" font-family="'Consolas',monospace" font-size="10.00">memory</text>
</a>
</g>
</g>
<!-- Node1&#45;&gt;Node8 -->
<g id="edge8" class="edge">
<title>Node1&#45;&gt;Node8</title>
<path fill="none" stroke="midnightblue" d="M159.87,-168.32C171.66,-160.06 189.63,-147.45 203.64,-137.63"/>
<polygon fill="midnightblue" stroke="midnightblue" points="205.98,-140.26 212.16,-131.65 201.96,-134.53 205.98,-140.26"/>
</g>
<!-- Node3 -->
<g id="node3" class="node">
<title>Node3</title>
<g id="a_node3"><a xlink:href="Vec2_8hpp.html" target="_top" xlink:title="Contains jngl::Vec2 class.">
<polygon fill="white" stroke="black" points="20,-56.5 20,-75.5 85,-75.5 85,-56.5 20,-56.5"/>
<text text-anchor="middle" x="52.5" y="-63.5" font-family="'Consolas',monospace" font-size="10.00">Vec2.hpp</text>
</a>
</g>
</g>
<!-- Node2&#45;&gt;Node3 -->
<g id="edge2" class="edge">
<title>Node2&#45;&gt;Node3</title>
<path fill="none" stroke="midnightblue" d="M52.5,-112.08C52.5,-105.01 52.5,-94.86 52.5,-85.99"/>
<polygon fill="midnightblue" stroke="midnightblue" points="56,-85.75 52.5,-75.75 49,-85.75 56,-85.75"/>
</g>
<!-- Node4 -->
<g id="node4" class="node">
<title>Node4</title>
<g id="a_node4"><a xlink:title=" ">
<polygon fill="white" stroke="#bfbfbf" points="71,-0.5 71,-19.5 190,-19.5 190,-0.5 71,-0.5"/>
<text text-anchor="middle" x="130.5" y="-7.5" font-family="'Consolas',monospace" font-size="10.00">boost/version.hpp</text>
</a>
</g>
</g>
<!-- Node3&#45;&gt;Node4 -->
<g id="edge3" class="edge">
<title>Node3&#45;&gt;Node4</title>
<path fill="none" stroke="midnightblue" d="M65.03,-56.32C77.09,-47.98 95.53,-35.21 109.77,-25.35"/>
<polygon fill="midnightblue" stroke="midnightblue" points="111.77,-28.22 118,-19.65 107.78,-22.47 111.77,-28.22"/>
</g>
<!-- Node5 -->
<g id="node5" class="node">
<title>Node5</title>
<g id="a_node5"><a target="_parent" xlink:href="http://en.cppreference.com/w/cpp/header/iosfwd.html" xlink:title=" ">
<polygon fill="white" stroke="black" points="0,-0.5 0,-19.5 53,-19.5 53,-0.5 0,-0.5"/>
<text text-anchor="middle" x="26.5" y="-7.5" font-family="'Consolas',monospace" font-size="10.00">iosfwd</text>
</a>
</g>
</g>
<!-- Node3&#45;&gt;Node5 -->
<g id="edge4" class="edge">
<title>Node3&#45;&gt;Node5</title>
<path fill="none" stroke="midnightblue" d="M48.21,-56.08C44.65,-48.69 39.48,-37.95 35.08,-28.81"/>
<polygon fill="midnightblue" stroke="midnightblue" points="38.21,-27.24 30.71,-19.75 31.9,-30.28 38.21,-27.24"/>
</g>
<!-- Node6&#45;&gt;Node4 -->
<g id="edge6" class="edge">
<title>Node6&#45;&gt;Node4</title>
<path fill="none" stroke="midnightblue" d="M146.17,-112.37C143.42,-94.62 137.09,-53.67 133.37,-29.6"/>
<polygon fill="midnightblue" stroke="midnightblue" points="136.81,-28.94 131.83,-19.59 129.9,-30.01 136.81,-28.94"/>
</g>
<!-- Node7 -->
<g id="node7" class="node">
<title>Node7</title>
<g id="a_node7"><a target="_parent" xlink:href="http://en.cppreference.com/w/cpp/header/initializer_list.html" xlink:title=" ">
<polygon fill="white" stroke="black" points="159,-56.5 159,-75.5 272,-75.5 272,-56.5 159,-56.5"/>
<text text-anchor="middle" x="215.5" y="-63.5" font-family="'Consolas',monospace" font-size="10.00">initializer_list</text>
</a>
</g>
</g>
<!-- Node6&#45;&gt;Node7 -->
<g id="edge7" class="edge">
<title>Node6&#45;&gt;Node7</title>
<path fill="none" stroke="midnightblue" d="M158.43,-112.32C168.67,-104.18 184.22,-91.84 196.5,-82.09"/>
<polygon fill="midnightblue" stroke="midnightblue" points="198.72,-84.79 204.38,-75.83 194.37,-79.31 198.72,-84.79"/>
</g>
</g>
</svg>
