<?xml version="1.0" encoding="UTF-8" standalone="no"?>
<!DOCTYPE svg PUBLIC "-//W3C//DTD SVG 1.1//EN"
 "http://www.w3.org/Graphics/SVG/1.1/DTD/svg11.dtd">
<!-- Generated by graphviz version 2.44.0 (0)
 -->
<!-- Title: jngl/text.hpp Pages: 1 -->
<svg width="146pt" height="196pt"
 viewBox="0.00 0.00 146.00 196.00" xmlns="http://www.w3.org/2000/svg" xmlns:xlink="http://www.w3.org/1999/xlink">
<g id="graph0" class="graph" transform="scale(1 1) rotate(0) translate(4 192)">
<title>jngl/text.hpp</title>
<polygon fill="white" stroke="transparent" points="-4,4 -4,-192 142,-192 142,4 -4,4"/>
<!-- Node1 -->
<g id="node1" class="node">
<title>Node1</title>
<g id="a_node1"><a xlink:title=" ">
<polygon fill="#bfbfbf" stroke="black" points="0,-168.5 0,-187.5 95,-187.5 95,-168.5 0,-168.5"/>
<text text-anchor="middle" x="47.5" y="-175.5" font-family="'Consolas',monospace" font-size="10.00">jngl/text.hpp</text>
</a>
</g>
</g>
<!-- Node2 -->
<g id="node2" class="node">
<title>Node2</title>
<g id="a_node2"><a xlink:href="all_8hpp.html" target="_top" xlink:title="Includes all JNGL headers except for init.hpp.">
<polygon fill="white" stroke="black" points="3,-56.5 3,-75.5 92,-75.5 92,-56.5 3,-56.5"/>
<text text-anchor="middle" x="47.5" y="-63.5" font-family="'Consolas',monospace" font-size="10.00">jngl/all.hpp</text>
</a>
</g>
</g>
<!-- Node1&#45;&gt;Node2 -->
<g id="edge1" class="edge">
<title>Node1&#45;&gt;Node2</title>
<path fill="none" stroke="midnightblue" d="M37.04,-159.52C30.54,-146.57 24.02,-128.38 27.5,-112 30.34,-98.62 37.44,-84.39 42.37,-75.59"/>
<polygon fill="midnightblue" stroke="midnightblue" points="33.97,-161.21 41.85,-168.3 40.11,-157.85 33.97,-161.21"/>
</g>
<!-- Node4 -->
<g id="node4" class="node">
<title>Node4</title>
<g id="a_node4"><a xlink:href="Label_8hpp.html" target="_top" xlink:title="Contains jngl::Label class.">
<polygon fill="white" stroke="black" points="37,-112.5 37,-131.5 138,-131.5 138,-112.5 37,-112.5"/>
<text text-anchor="middle" x="87.5" y="-119.5" font-family="'Consolas',monospace" font-size="10.00">jngl/Label.hpp</text>
</a>
</g>
</g>
<!-- Node1&#45;&gt;Node4 -->
<g id="edge3" class="edge">
<title>Node1&#45;&gt;Node4</title>
<path fill="none" stroke="midnightblue" d="M60.2,-159.86C67.13,-150.5 75.41,-139.33 81.02,-131.75"/>
<polygon fill="midnightblue" stroke="midnightblue" points="57.25,-157.96 54.11,-168.08 62.87,-162.13 57.25,-157.96"/>
</g>
<!-- Node3 -->
<g id="node3" class="node">
<title>Node3</title>
<g id="a_node3"><a xlink:href="jngl_8hpp.html" target="_top" xlink:title="Includes jngl/all.hpp.">
<polygon fill="white" stroke="black" points="15,-0.5 15,-19.5 80,-19.5 80,-0.5 15,-0.5"/>
<text text-anchor="middle" x="47.5" y="-7.5" font-family="'Consolas',monospace" font-size="10.00">jngl.hpp</text>
</a>
</g>
</g>
<!-- Node2&#45;&gt;Node3 -->
<g id="edge2" class="edge">
<title>Node2&#45;&gt;Node3</title>
<path fill="none" stroke="midnightblue" d="M47.5,-45.8C47.5,-36.91 47.5,-26.78 47.5,-19.75"/>
<polygon fill="midnightblue" stroke="midnightblue" points="44,-46.08 47.5,-56.08 51,-46.08 44,-46.08"/>
</g>
<!-- Node4&#45;&gt;Node2 -->
<g id="edge4" class="edge">
<title>Node4&#45;&gt;Node2</title>
<path fill="none" stroke="midnightblue" d="M74.8,-103.86C67.87,-94.5 59.59,-83.33 53.98,-75.75"/>
<polygon fill="midnightblue" stroke="midnightblue" points="72.13,-106.13 80.89,-112.08 77.75,-101.96 72.13,-106.13"/>
</g>
</g>
</svg>
