<?xml version="1.0" encoding="UTF-8" standalone="no"?>
<!DOCTYPE svg PUBLIC "-//W3C//DTD SVG 1.1//EN"
 "http://www.w3.org/Graphics/SVG/1.1/DTD/svg11.dtd">
<!-- Generated by graphviz version 5.0.0 (0)
 -->
<!-- Title: jngl/TextLine.hpp Pages: 1 -->
<svg width="280pt" height="192pt"
 viewBox="0.00 0.00 280.00 192.00" xmlns="http://www.w3.org/2000/svg" xmlns:xlink="http://www.w3.org/1999/xlink">
<g id="graph0" class="graph" transform="scale(1 1) rotate(0) translate(4 188)">
<title>jngl/TextLine.hpp</title>
<!-- Node1 -->
<g id="node1" class="node">
<title>Node1</title>
<g id="a_node1"><a xlink:title="Contains jngl::TextLine class.">
<polygon fill="#999999" stroke="#666666" points="207,-184 88,-184 88,-165 207,-165 207,-184"/>
<text text-anchor="middle" x="147.5" y="-172" font-family="ui-monospace,monospace" font-size="10.00">jngl/TextLine.hpp</text>
</a>
</g>
</g>
<!-- Node2 -->
<g id="node2" class="node">
<title>Node2</title>
<g id="a_node2"><a xlink:href="Drawable_8hpp.html" target="_top" xlink:title="Contains jngl::Drawable class.">
<polygon fill="white" stroke="#666666" points="97,-129 8,-129 8,-110 97,-110 97,-129"/>
<text text-anchor="middle" x="52.5" y="-117" font-family="ui-monospace,monospace" font-size="10.00">Drawable.hpp</text>
</a>
</g>
</g>
<!-- Node1&#45;&gt;Node2 -->
<g id="edge1" class="edge">
<title>Node1&#45;&gt;Node2</title>
<path fill="none" stroke="#63b8ff" d="M132.24,-164.98C117.37,-156.69 94.52,-143.94 77.08,-134.22"/>
<polygon fill="#63b8ff" stroke="#63b8ff" points="78.48,-130.99 68.04,-129.17 75.07,-137.1 78.48,-130.99"/>
</g>
<!-- Node6 -->
<g id="node6" class="node">
<title>Node6</title>
<g id="a_node6"><a xlink:href="Mat3_8hpp.html" target="_top" xlink:title="Contains jngl::Mat3 class.">
<polygon fill="white" stroke="#666666" points="180,-129 115,-129 115,-110 180,-110 180,-129"/>
<text text-anchor="middle" x="147.5" y="-117" font-family="ui-monospace,monospace" font-size="10.00">Mat3.hpp</text>
</a>
</g>
</g>
<!-- Node1&#45;&gt;Node6 -->
<g id="edge5" class="edge">
<title>Node1&#45;&gt;Node6</title>
<path fill="none" stroke="#63b8ff" d="M147.5,-164.75C147.5,-157.8 147.5,-147.85 147.5,-139.13"/>
<polygon fill="#63b8ff" stroke="#63b8ff" points="151,-139.09 147.5,-129.09 144,-139.09 151,-139.09"/>
</g>
<!-- Node8 -->
<g id="node8" class="node">
<title>Node8</title>
<g id="a_node8"><a target="_parent" xlink:href="http://en.cppreference.com/w/cpp/header/memory.html" xlink:title=" ">
<polygon fill="white" stroke="#666666" points="251,-129 198,-129 198,-110 251,-110 251,-129"/>
<text text-anchor="middle" x="224.5" y="-117" font-family="ui-monospace,monospace" font-size="10.00">memory</text>
</a>
</g>
</g>
<!-- Node1&#45;&gt;Node8 -->
<g id="edge8" class="edge">
<title>Node1&#45;&gt;Node8</title>
<path fill="none" stroke="#63b8ff" d="M159.87,-164.98C171.59,-156.92 189.42,-144.65 203.39,-135.03"/>
<polygon fill="#63b8ff" stroke="#63b8ff" points="205.65,-137.72 211.9,-129.17 201.68,-131.96 205.65,-137.72"/>
</g>
<!-- Node3 -->
<g id="node3" class="node">
<title>Node3</title>
<g id="a_node3"><a xlink:href="Vec2_8hpp.html" target="_top" xlink:title="Contains jngl::Vec2 class.">
<polygon fill="white" stroke="#666666" points="85,-74 20,-74 20,-55 85,-55 85,-74"/>
<text text-anchor="middle" x="52.5" y="-62" font-family="ui-monospace,monospace" font-size="10.00">Vec2.hpp</text>
</a>
</g>
</g>
<!-- Node2&#45;&gt;Node3 -->
<g id="edge2" class="edge">
<title>Node2&#45;&gt;Node3</title>
<path fill="none" stroke="#63b8ff" d="M52.5,-109.75C52.5,-102.8 52.5,-92.85 52.5,-84.13"/>
<polygon fill="#63b8ff" stroke="#63b8ff" points="56,-84.09 52.5,-74.09 49,-84.09 56,-84.09"/>
</g>
<!-- Node4 -->
<g id="node4" class="node">
<title>Node4</title>
<g id="a_node4"><a xlink:title=" ">
<polygon fill="#e0e0e0" stroke="#999999" points="190,-19 71,-19 71,0 190,0 190,-19"/>
<text text-anchor="middle" x="130.5" y="-7" font-family="ui-monospace,monospace" font-size="10.00">boost/version.hpp</text>
</a>
</g>
</g>
<!-- Node3&#45;&gt;Node4 -->
<g id="edge3" class="edge">
<title>Node3&#45;&gt;Node4</title>
<path fill="none" stroke="#63b8ff" d="M65.03,-54.98C76.9,-46.92 94.96,-34.65 109.11,-25.03"/>
<polygon fill="#63b8ff" stroke="#63b8ff" points="111.44,-27.69 117.74,-19.17 107.5,-21.9 111.44,-27.69"/>
</g>
<!-- Node5 -->
<g id="node5" class="node">
<title>Node5</title>
<g id="a_node5"><a target="_parent" xlink:href="http://en.cppreference.com/w/cpp/header/iosfwd.html" xlink:title=" ">
<polygon fill="white" stroke="#666666" points="53,-19 0,-19 0,0 53,0 53,-19"/>
<text text-anchor="middle" x="26.5" y="-7" font-family="ui-monospace,monospace" font-size="10.00">iosfwd</text>
</a>
</g>
</g>
<!-- Node3&#45;&gt;Node5 -->
<g id="edge4" class="edge">
<title>Node3&#45;&gt;Node5</title>
<path fill="none" stroke="#63b8ff" d="M48.21,-54.75C44.69,-47.57 39.59,-37.18 35.22,-28.27"/>
<polygon fill="#63b8ff" stroke="#63b8ff" points="38.26,-26.53 30.71,-19.09 31.98,-29.61 38.26,-26.53"/>
</g>
<!-- Node6&#45;&gt;Node4 -->
<g id="edge6" class="edge">
<title>Node6&#45;&gt;Node4</title>
<path fill="none" stroke="#63b8ff" d="M146.11,-109.66C143.36,-92.17 137.16,-52.8 133.46,-29.27"/>
<polygon fill="#63b8ff" stroke="#63b8ff" points="136.88,-28.49 131.86,-19.16 129.96,-29.58 136.88,-28.49"/>
</g>
<!-- Node7 -->
<g id="node7" class="node">
<title>Node7</title>
<g id="a_node7"><a target="_parent" xlink:href="http://en.cppreference.com/w/cpp/header/initializer_list.html" xlink:title=" ">
<polygon fill="white" stroke="#666666" points="272,-74 159,-74 159,-55 272,-55 272,-74"/>
<text text-anchor="middle" x="215.5" y="-62" font-family="ui-monospace,monospace" font-size="10.00">initializer_list</text>
</a>
</g>
</g>
<!-- Node6&#45;&gt;Node7 -->
<g id="edge7" class="edge">
<title>Node6&#45;&gt;Node7</title>
<path fill="none" stroke="#63b8ff" d="M158.43,-109.98C168.58,-102.07 183.92,-90.11 196.15,-80.58"/>
<polygon fill="#63b8ff" stroke="#63b8ff" points="198.64,-83.08 204.38,-74.17 194.34,-77.56 198.64,-83.08"/>
</g>
</g>
</svg>
