<?xml version="1.0" encoding="UTF-8" standalone="no"?>
<!DOCTYPE svg PUBLIC "-//W3C//DTD SVG 1.1//EN"
 "http://www.w3.org/Graphics/SVG/1.1/DTD/svg11.dtd">
<!-- Generated by graphviz version 12.1.0 (20240811.2233)
 -->
<!-- Title: jngl/TextLine.hpp Pages: 1 -->
<svg width="156pt" height="138pt"
 viewBox="0.00 0.00 156.00 137.75" xmlns="http://www.w3.org/2000/svg" xmlns:xlink="http://www.w3.org/1999/xlink">
<g id="graph0" class="graph" transform="scale(1 1) rotate(0) translate(4 133.75)">
<title>jngl/TextLine.hpp</title>
<!-- Node1 -->
<g id="Node000001" class="node">
<title>Node1</title>
<g id="a_Node000001"><a xlink:title="Contains jngl::TextLine class.">
<polygon fill="#999999" stroke="#666666" points="118,-129.75 0,-129.75 0,-110.5 118,-110.5 118,-129.75"/>
<text text-anchor="middle" x="59" y="-116.25" font-family="ui-monospace,monospace" font-size="10.00">jngl/TextLine.hpp</text>
</a>
</g>
</g>
<!-- Node2 -->
<g id="Node000002" class="node">
<title>Node2</title>
<g id="a_Node000002"><a xlink:href="jngl_8hpp.html" target="_top" xlink:title="Includes all JNGL headers except for init.hpp.">
<polygon fill="white" stroke="#666666" points="91,-19.25 27,-19.25 27,0 91,0 91,-19.25"/>
<text text-anchor="middle" x="59" y="-5.75" font-family="ui-monospace,monospace" font-size="10.00">jngl.hpp</text>
</a>
</g>
</g>
<!-- Node1&#45;&gt;Node2 -->
<g id="edge1_Node000001_Node000002" class="edge">
<title>Node1&#45;&gt;Node2</title>
<g id="a_edge1_Node000001_Node000002"><a xlink:title=" ">
<path fill="none" stroke="#63b8ff" d="M47.77,-100.4C41.56,-87.8 35.69,-70.72 39,-55.25 41.81,-42.13 48.77,-28.21 53.68,-19.47"/>
<polygon fill="#63b8ff" stroke="#63b8ff" points="44.52,-101.74 52.38,-108.84 50.66,-98.39 44.52,-101.74"/>
</a>
</g>
</g>
<!-- Node3 -->
<g id="Node000003" class="node">
<title>Node3</title>
<g id="a_Node000003"><a xlink:href="Label_8hpp.html" target="_top" xlink:title="Contains jngl::Label class.">
<polygon fill="white" stroke="#666666" points="148,-74.5 48,-74.5 48,-55.25 148,-55.25 148,-74.5"/>
<text text-anchor="middle" x="98" y="-61" font-family="ui-monospace,monospace" font-size="10.00">jngl/Label.hpp</text>
</a>
</g>
</g>
<!-- Node1&#45;&gt;Node3 -->
<g id="edge2_Node000001_Node000003" class="edge">
<title>Node1&#45;&gt;Node3</title>
<g id="a_edge2_Node000001_Node000003"><a xlink:title=" ">
<path fill="none" stroke="#63b8ff" d="M72.14,-101.19C78.62,-92.34 86.16,-82.04 91.42,-74.86"/>
<polygon fill="#63b8ff" stroke="#63b8ff" points="69.42,-98.98 66.33,-109.11 75.07,-103.11 69.42,-98.98"/>
</a>
</g>
</g>
<!-- Node3&#45;&gt;Node2 -->
<g id="edge3_Node000003_Node000002" class="edge">
<title>Node3&#45;&gt;Node2</title>
<g id="a_edge3_Node000003_Node000002"><a xlink:title=" ">
<path fill="none" stroke="#63b8ff" d="M84.86,-45.94C78.38,-37.09 70.84,-26.79 65.58,-19.61"/>
<polygon fill="#63b8ff" stroke="#63b8ff" points="81.93,-47.86 90.67,-53.86 87.58,-43.73 81.93,-47.86"/>
</a>
</g>
</g>
</g>
</svg>
