<?xml version="1.0" encoding="UTF-8" standalone="no"?>
<!DOCTYPE svg PUBLIC "-//W3C//DTD SVG 1.1//EN"
 "http://www.w3.org/Graphics/SVG/1.1/DTD/svg11.dtd">
<!-- Generated by graphviz version 2.40.1 (0)
 -->
<!-- Title: jngl/text.hpp Pages: 1 -->
<svg width="310pt" height="84pt"
 viewBox="0.00 0.00 310.00 84.00" xmlns="http://www.w3.org/2000/svg" xmlns:xlink="http://www.w3.org/1999/xlink">
<g id="graph0" class="graph" transform="scale(1 1) rotate(0) translate(4 80)">
<title>jngl/text.hpp</title>
<polygon fill="#ffffff" stroke="transparent" points="-4,4 -4,-80 306,-80 306,4 -4,4"/>
<!-- Node0 -->
<g id="node1" class="node">
<title>Node0</title>
<g id="a_node1"><a xlink:title=" ">
<polygon fill="#bfbfbf" stroke="#000000" points="121,-56.5 121,-75.5 216,-75.5 216,-56.5 121,-56.5"/>
<text text-anchor="middle" x="168.5" y="-63.5" font-family="'Consolas',monospace" font-size="10.00" fill="#000000">jngl/text.hpp</text>
</a>
</g>
</g>
<!-- Node1 -->
<g id="node2" class="node">
<title>Node1</title>
<g id="a_node2"><a xlink:href="drawable_8hpp_source.html" target="_top" xlink:title=" ">
<polygon fill="#ffffff" stroke="#000000" points="0,-.5 0,-19.5 89,-19.5 89,-.5 0,-.5"/>
<text text-anchor="middle" x="44.5" y="-7.5" font-family="'Consolas',monospace" font-size="10.00" fill="#000000">drawable.hpp</text>
</a>
</g>
</g>
<!-- Node0&#45;&gt;Node1 -->
<g id="edge1" class="edge">
<title>Node0&#45;&gt;Node1</title>
<path fill="none" stroke="#191970" d="M147.1836,-56.3733C127.2784,-47.3838 97.3564,-33.8706 74.94,-23.7471"/>
<polygon fill="#191970" stroke="#191970" points="76.0925,-20.4272 65.5382,-19.5011 73.2113,-26.8068 76.0925,-20.4272"/>
</g>
<!-- Node2 -->
<g id="node3" class="node">
<title>Node2</title>
<g id="a_node3"><a doxygen="/w/doc/cppreference-doxygen-web.tag.xml:http://en.cppreference.com/w/" xlink:href="http://en.cppreference.com/w/cpp/header/memory.html" xlink:title=" ">
<polygon fill="#ffffff" stroke="#000000" points="107,-.5 107,-19.5 160,-19.5 160,-.5 107,-.5"/>
<text text-anchor="middle" x="133.5" y="-7.5" font-family="'Consolas',monospace" font-size="10.00" fill="#000000">memory</text>
</a>
</g>
</g>
<!-- Node0&#45;&gt;Node2 -->
<g id="edge2" class="edge">
<title>Node0&#45;&gt;Node2</title>
<path fill="none" stroke="#191970" d="M162.4035,-56.2455C157.5855,-48.5367 150.7249,-37.5598 144.8968,-28.2348"/>
<polygon fill="#191970" stroke="#191970" points="147.7947,-26.2677 139.5267,-19.6427 141.8587,-29.9777 147.7947,-26.2677"/>
</g>
<!-- Node3 -->
<g id="node4" class="node">
<title>Node3</title>
<g id="a_node4"><a doxygen="/w/doc/cppreference-doxygen-web.tag.xml:http://en.cppreference.com/w/" xlink:href="http://en.cppreference.com/w/cpp/header/string.html" xlink:title=" ">
<polygon fill="#ffffff" stroke="#000000" points="178,-.5 178,-19.5 231,-19.5 231,-.5 178,-.5"/>
<text text-anchor="middle" x="204.5" y="-7.5" font-family="'Consolas',monospace" font-size="10.00" fill="#000000">string</text>
</a>
</g>
</g>
<!-- Node0&#45;&gt;Node3 -->
<g id="edge3" class="edge">
<title>Node0&#45;&gt;Node3</title>
<path fill="none" stroke="#191970" d="M174.7707,-56.2455C179.7264,-48.5367 186.783,-37.5598 192.7776,-28.2348"/>
<polygon fill="#191970" stroke="#191970" points="195.8376,-29.9471 198.3011,-19.6427 189.9494,-26.1618 195.8376,-29.9471"/>
</g>
<!-- Node4 -->
<g id="node5" class="node">
<title>Node4</title>
<g id="a_node5"><a doxygen="/w/doc/cppreference-doxygen-web.tag.xml:http://en.cppreference.com/w/" xlink:href="http://en.cppreference.com/w/cpp/header/vector.html" xlink:title=" ">
<polygon fill="#ffffff" stroke="#000000" points="249,-.5 249,-19.5 302,-19.5 302,-.5 249,-.5"/>
<text text-anchor="middle" x="275.5" y="-7.5" font-family="'Consolas',monospace" font-size="10.00" fill="#000000">vector</text>
</a>
</g>
</g>
<!-- Node0&#45;&gt;Node4 -->
<g id="edge4" class="edge">
<title>Node0&#45;&gt;Node4</title>
<path fill="none" stroke="#191970" d="M187.138,-56.2455C203.9386,-47.4527 228.8634,-34.4079 247.9618,-24.4125"/>
<polygon fill="#191970" stroke="#191970" points="249.8386,-27.3807 257.0756,-19.6427 246.5927,-21.1787 249.8386,-27.3807"/>
</g>
</g>
</svg>
