<?xml version="1.0" encoding="UTF-8" standalone="no"?>
<!DOCTYPE svg PUBLIC "-//W3C//DTD SVG 1.1//EN"
 "http://www.w3.org/Graphics/SVG/1.1/DTD/svg11.dtd">
<!-- Generated by graphviz version 2.40.1 (0)
 -->
<!-- Title: jngl/text.hpp Pages: 1 -->
<svg width="75pt" height="143pt"
 viewBox="0.00 0.00 74.83 143.00" xmlns="http://www.w3.org/2000/svg" xmlns:xlink="http://www.w3.org/1999/xlink">
<g id="graph0" class="graph" transform="scale(1 1) rotate(0) translate(4 139)">
<title>jngl/text.hpp</title>
<polygon fill="#ffffff" stroke="transparent" points="-4,4 -4,-139 70.834,-139 70.834,4 -4,4"/>
<!-- Node7 -->
<g id="node1" class="node">
<title>Node7</title>
<polygon fill="#bfbfbf" stroke="#000000" points="0,-114.5 0,-134.5 66.834,-134.5 66.834,-114.5 0,-114.5"/>
<text text-anchor="middle" x="33.417" y="-121.5" font-family="Lato" font-size="10.00" fill="#000000">jngl/text.hpp</text>
</g>
<!-- Node8 -->
<g id="node2" class="node">
<title>Node8</title>
<g id="a_node2"><a xlink:href="all_8hpp.html" target="_top" xlink:title="Includes all JNGL headers. ">
<polygon fill="#ffffff" stroke="#000000" points="2.5,-57.5 2.5,-77.5 64.334,-77.5 64.334,-57.5 2.5,-57.5"/>
<text text-anchor="middle" x="33.417" y="-64.5" font-family="Lato" font-size="10.00" fill="#000000">jngl/all.hpp</text>
</a>
</g>
</g>
<!-- Node7&#45;&gt;Node8 -->
<g id="edge1" class="edge">
<title>Node7&#45;&gt;Node8</title>
<path fill="none" stroke="#191970" d="M33.417,-104.1771C33.417,-95.1625 33.417,-84.9556 33.417,-77.6022"/>
<polygon fill="#191970" stroke="#191970" points="29.9171,-104.3095 33.417,-114.3095 36.9171,-104.3096 29.9171,-104.3095"/>
</g>
<!-- Node9 -->
<g id="node3" class="node">
<title>Node9</title>
<g id="a_node3"><a xlink:href="jngl_8hpp_source.html" target="_top" xlink:title="jngl.hpp">
<polygon fill="#ffffff" stroke="#000000" points="8.888,-.5 8.888,-20.5 57.946,-20.5 57.946,-.5 8.888,-.5"/>
<text text-anchor="middle" x="33.417" y="-7.5" font-family="Lato" font-size="10.00" fill="#000000">jngl.hpp</text>
</a>
</g>
</g>
<!-- Node8&#45;&gt;Node9 -->
<g id="edge2" class="edge">
<title>Node8&#45;&gt;Node9</title>
<path fill="none" stroke="#191970" d="M33.417,-47.1771C33.417,-38.1625 33.417,-27.9556 33.417,-20.6022"/>
<polygon fill="#191970" stroke="#191970" points="29.9171,-47.3095 33.417,-57.3095 36.9171,-47.3096 29.9171,-47.3095"/>
</g>
</g>
</svg>
