<?xml version="1.0" encoding="UTF-8" standalone="no"?>
<!DOCTYPE svg PUBLIC "-//W3C//DTD SVG 1.1//EN"
 "http://www.w3.org/Graphics/SVG/1.1/DTD/svg11.dtd">
<!-- Generated by graphviz version 2.36.0 (20140111.2315)
 -->
<!-- Title: jngl/text.hpp Pages: 1 -->
<svg width="343pt" height="140pt"
 viewBox="0.00 0.00 343.00 140.00" xmlns="http://www.w3.org/2000/svg" xmlns:xlink="http://www.w3.org/1999/xlink">
<g id="graph0" class="graph" transform="scale(1 1) rotate(0) translate(4 136)">
<title>jngl/text.hpp</title>
<polygon fill="white" stroke="none" points="-4,4 -4,-136 339,-136 339,4 -4,4"/>
<!-- Node1 -->
<g id="node1" class="node"><title>Node1</title>
<polygon fill="#bfbfbf" stroke="black" points="141,-112.5 141,-131.5 217,-131.5 217,-112.5 141,-112.5"/>
<text text-anchor="middle" x="179" y="-119.5" font-family="Lato" font-size="10.00">jngl/text.hpp</text>
</g>
<!-- Node2 -->
<g id="node2" class="node"><title>Node2</title>
<g id="a_node2"><a xlink:href="dll_8hpp_source.html" target="_top" xlink:title="dll.hpp">
<polygon fill="white" stroke="black" points="0,-0.5 0,-19.5 48,-19.5 48,-0.5 0,-0.5"/>
<text text-anchor="middle" x="24" y="-7.5" font-family="Lato" font-size="10.00">dll.hpp</text>
</a>
</g>
</g>
<!-- Node1&#45;&gt;Node2 -->
<g id="edge1" class="edge"><title>Node1&#45;&gt;Node2</title>
<path fill="none" stroke="midnightblue" d="M140.766,-117.915C110.306,-113.457 68.6518,-102.57 43,-76 31.144,-63.7197 26.6247,-44.4616 24.9337,-30.0905"/>
<polygon fill="midnightblue" stroke="midnightblue" points="28.399,-29.5219 24.0978,-19.8394 21.4222,-30.0908 28.399,-29.5219"/>
</g>
<!-- Node3 -->
<g id="node3" class="node"><title>Node3</title>
<g id="a_node3"><a xlink:href="drawable_8hpp_source.html" target="_top" xlink:title="drawable.hpp">
<polygon fill="white" stroke="black" points="52,-56.5 52,-75.5 132,-75.5 132,-56.5 52,-56.5"/>
<text text-anchor="middle" x="92" y="-63.5" font-family="Lato" font-size="10.00">drawable.hpp</text>
</a>
</g>
</g>
<!-- Node1&#45;&gt;Node3 -->
<g id="edge2" class="edge"><title>Node1&#45;&gt;Node3</title>
<path fill="none" stroke="midnightblue" d="M165.022,-112.324C151.45,-103.9 130.62,-90.9709 114.675,-81.0741"/>
<polygon fill="midnightblue" stroke="midnightblue" points="116.286,-77.9544 105.943,-75.6545 112.594,-83.9019 116.286,-77.9544"/>
</g>
<!-- Node5 -->
<g id="node5" class="node"><title>Node5</title>
<polygon fill="white" stroke="#bfbfbf" points="150.5,-56.5 150.5,-75.5 207.5,-75.5 207.5,-56.5 150.5,-56.5"/>
<text text-anchor="middle" x="179" y="-63.5" font-family="Lato" font-size="10.00">memory</text>
</g>
<!-- Node1&#45;&gt;Node5 -->
<g id="edge5" class="edge"><title>Node1&#45;&gt;Node5</title>
<path fill="none" stroke="midnightblue" d="M179,-112.083C179,-105.006 179,-94.8611 179,-85.9865"/>
<polygon fill="midnightblue" stroke="midnightblue" points="182.5,-85.751 179,-75.7511 175.5,-85.7511 182.5,-85.751"/>
</g>
<!-- Node6 -->
<g id="node6" class="node"><title>Node6</title>
<polygon fill="white" stroke="#bfbfbf" points="226,-56.5 226,-75.5 270,-75.5 270,-56.5 226,-56.5"/>
<text text-anchor="middle" x="248" y="-63.5" font-family="Lato" font-size="10.00">string</text>
</g>
<!-- Node1&#45;&gt;Node6 -->
<g id="edge6" class="edge"><title>Node1&#45;&gt;Node6</title>
<path fill="none" stroke="midnightblue" d="M190.086,-112.324C200.486,-104.185 216.261,-91.8395 228.722,-82.0874"/>
<polygon fill="midnightblue" stroke="midnightblue" points="230.994,-84.7533 236.712,-75.8339 226.68,-79.2407 230.994,-84.7533"/>
</g>
<!-- Node7 -->
<g id="node7" class="node"><title>Node7</title>
<polygon fill="white" stroke="#bfbfbf" points="288.5,-56.5 288.5,-75.5 335.5,-75.5 335.5,-56.5 288.5,-56.5"/>
<text text-anchor="middle" x="312" y="-63.5" font-family="Lato" font-size="10.00">vector</text>
</g>
<!-- Node1&#45;&gt;Node7 -->
<g id="edge7" class="edge"><title>Node1&#45;&gt;Node7</title>
<path fill="none" stroke="midnightblue" d="M200.074,-112.444C222.06,-103.517 256.734,-89.4387 281.664,-79.3168"/>
<polygon fill="midnightblue" stroke="midnightblue" points="283.076,-82.5213 291.024,-75.5164 280.442,-76.0355 283.076,-82.5213"/>
</g>
<!-- Node3&#45;&gt;Node2 -->
<g id="edge4" class="edge"><title>Node3&#45;&gt;Node2</title>
<path fill="none" stroke="midnightblue" d="M81.0746,-56.324C70.8254,-48.1849 55.2794,-35.8395 42.999,-26.0874"/>
<polygon fill="midnightblue" stroke="midnightblue" points="45.1319,-23.3119 35.1242,-19.8339 40.7787,-28.7937 45.1319,-23.3119"/>
</g>
<!-- Node4 -->
<g id="node4" class="node"><title>Node4</title>
<g id="a_node4"><a xlink:href="types_8hpp_source.html" target="_top" xlink:title="types.hpp">
<polygon fill="white" stroke="black" points="66,-0.5 66,-19.5 130,-19.5 130,-0.5 66,-0.5"/>
<text text-anchor="middle" x="98" y="-7.5" font-family="Lato" font-size="10.00">types.hpp</text>
</a>
</g>
</g>
<!-- Node3&#45;&gt;Node4 -->
<g id="edge3" class="edge"><title>Node3&#45;&gt;Node4</title>
<path fill="none" stroke="midnightblue" d="M92.9908,-56.083C93.7859,-48.9272 94.9294,-38.6353 95.9232,-29.6911"/>
<polygon fill="midnightblue" stroke="midnightblue" points="99.4018,-30.0765 97.0277,-19.7511 92.4447,-29.3034 99.4018,-30.0765"/>
</g>
</g>
</svg>
