<?xml version="1.0" encoding="UTF-8" standalone="no"?>
<!DOCTYPE svg PUBLIC "-//W3C//DTD SVG 1.1//EN"
 "http://www.w3.org/Graphics/SVG/1.1/DTD/svg11.dtd">
<!-- Generated by graphviz version 5.0.0 (0)
 -->
<!-- Title: jngl/text.hpp Pages: 1 -->
<svg width="381pt" height="192pt"
 viewBox="0.00 0.00 381.00 192.00" xmlns="http://www.w3.org/2000/svg" xmlns:xlink="http://www.w3.org/1999/xlink">
<g id="graph0" class="graph" transform="scale(1 1) rotate(0) translate(4 188)">
<title>jngl/text.hpp</title>
<!-- Node1 -->
<g id="node1" class="node">
<title>Node1</title>
<g id="a_node1"><a xlink:title=" ">
<polygon fill="#999999" stroke="#666666" points="287,-184 192,-184 192,-165 287,-165 287,-184"/>
<text text-anchor="middle" x="239.5" y="-172" font-family="ui-monospace,monospace" font-size="10.00">jngl/text.hpp</text>
</a>
</g>
</g>
<!-- Node2 -->
<g id="node2" class="node">
<title>Node2</title>
<g id="a_node2"><a xlink:href="Drawable_8hpp.html" target="_top" xlink:title="Contains jngl::Drawable class.">
<polygon fill="white" stroke="#666666" points="160,-129 71,-129 71,-110 160,-110 160,-129"/>
<text text-anchor="middle" x="115.5" y="-117" font-family="ui-monospace,monospace" font-size="10.00">Drawable.hpp</text>
</a>
</g>
</g>
<!-- Node1&#45;&gt;Node2 -->
<g id="edge1" class="edge">
<title>Node1&#45;&gt;Node2</title>
<path fill="none" stroke="#63b8ff" d="M219.58,-164.98C199.45,-156.38 168.12,-142.99 145.09,-133.15"/>
<polygon fill="#63b8ff" stroke="#63b8ff" points="146.36,-129.88 135.79,-129.17 143.6,-136.32 146.36,-129.88"/>
</g>
<!-- Node6 -->
<g id="node6" class="node">
<title>Node6</title>
<g id="a_node6"><a target="_parent" xlink:href="http://en.cppreference.com/w/cpp/header/memory.html" xlink:title=" ">
<polygon fill="white" stroke="#666666" points="231,-129 178,-129 178,-110 231,-110 231,-129"/>
<text text-anchor="middle" x="204.5" y="-117" font-family="ui-monospace,monospace" font-size="10.00">memory</text>
</a>
</g>
</g>
<!-- Node1&#45;&gt;Node6 -->
<g id="edge5" class="edge">
<title>Node1&#45;&gt;Node6</title>
<path fill="none" stroke="#63b8ff" d="M233.72,-164.75C228.88,-157.42 221.82,-146.73 215.86,-137.7"/>
<polygon fill="#63b8ff" stroke="#63b8ff" points="218.6,-135.5 210.17,-129.09 212.76,-139.36 218.6,-135.5"/>
</g>
<!-- Node7 -->
<g id="node7" class="node">
<title>Node7</title>
<g id="a_node7"><a target="_parent" xlink:href="http://en.cppreference.com/w/cpp/header/string.html" xlink:title=" ">
<polygon fill="white" stroke="#666666" points="302,-129 249,-129 249,-110 302,-110 302,-129"/>
<text text-anchor="middle" x="275.5" y="-117" font-family="ui-monospace,monospace" font-size="10.00">string</text>
</a>
</g>
</g>
<!-- Node1&#45;&gt;Node7 -->
<g id="edge6" class="edge">
<title>Node1&#45;&gt;Node7</title>
<path fill="none" stroke="#63b8ff" d="M245.44,-164.75C250.48,-157.34 257.84,-146.5 264.01,-137.41"/>
<polygon fill="#63b8ff" stroke="#63b8ff" points="266.94,-139.33 269.67,-129.09 261.15,-135.39 266.94,-139.33"/>
</g>
<!-- Node8 -->
<g id="node8" class="node">
<title>Node8</title>
<g id="a_node8"><a target="_parent" xlink:href="http://en.cppreference.com/w/cpp/header/vector.html" xlink:title=" ">
<polygon fill="white" stroke="#666666" points="373,-129 320,-129 320,-110 373,-110 373,-129"/>
<text text-anchor="middle" x="346.5" y="-117" font-family="ui-monospace,monospace" font-size="10.00">vector</text>
</a>
</g>
</g>
<!-- Node1&#45;&gt;Node8 -->
<g id="edge7" class="edge">
<title>Node1&#45;&gt;Node8</title>
<path fill="none" stroke="#63b8ff" d="M256.69,-164.98C273.75,-156.54 300.13,-143.47 319.9,-133.68"/>
<polygon fill="#63b8ff" stroke="#63b8ff" points="321.59,-136.75 329,-129.17 318.48,-130.47 321.59,-136.75"/>
</g>
<!-- Node3 -->
<g id="node3" class="node">
<title>Node3</title>
<g id="a_node3"><a xlink:href="Vec2_8hpp.html" target="_top" xlink:title="Contains jngl::Vec2 class.">
<polygon fill="white" stroke="#666666" points="148,-74 83,-74 83,-55 148,-55 148,-74"/>
<text text-anchor="middle" x="115.5" y="-62" font-family="ui-monospace,monospace" font-size="10.00">Vec2.hpp</text>
</a>
</g>
</g>
<!-- Node2&#45;&gt;Node3 -->
<g id="edge2" class="edge">
<title>Node2&#45;&gt;Node3</title>
<path fill="none" stroke="#63b8ff" d="M115.5,-109.75C115.5,-102.8 115.5,-92.85 115.5,-84.13"/>
<polygon fill="#63b8ff" stroke="#63b8ff" points="119,-84.09 115.5,-74.09 112,-84.09 119,-84.09"/>
</g>
<!-- Node4 -->
<g id="node4" class="node">
<title>Node4</title>
<g id="a_node4"><a xlink:title=" ">
<polygon fill="#e0e0e0" stroke="#999999" points="125,-19 0,-19 0,0 125,0 125,-19"/>
<text text-anchor="middle" x="62.5" y="-7" font-family="ui-monospace,monospace" font-size="10.00">boost/qvm_lite.hpp</text>
</a>
</g>
</g>
<!-- Node3&#45;&gt;Node4 -->
<g id="edge3" class="edge">
<title>Node3&#45;&gt;Node4</title>
<path fill="none" stroke="#63b8ff" d="M106.75,-54.75C99.03,-47.03 87.6,-35.6 78.28,-26.28"/>
<polygon fill="#63b8ff" stroke="#63b8ff" points="80.64,-23.69 71.09,-19.09 75.69,-28.64 80.64,-23.69"/>
</g>
<!-- Node5 -->
<g id="node5" class="node">
<title>Node5</title>
<g id="a_node5"><a target="_parent" xlink:href="http://en.cppreference.com/w/cpp/header/iosfwd.html" xlink:title=" ">
<polygon fill="white" stroke="#666666" points="196,-19 143,-19 143,0 196,0 196,-19"/>
<text text-anchor="middle" x="169.5" y="-7" font-family="ui-monospace,monospace" font-size="10.00">iosfwd</text>
</a>
</g>
</g>
<!-- Node3&#45;&gt;Node5 -->
<g id="edge4" class="edge">
<title>Node3&#45;&gt;Node5</title>
<path fill="none" stroke="#63b8ff" d="M124.42,-54.75C132.28,-47.03 143.93,-35.6 153.42,-26.28"/>
<polygon fill="#63b8ff" stroke="#63b8ff" points="156.06,-28.59 160.75,-19.09 151.16,-23.6 156.06,-28.59"/>
</g>
</g>
</svg>
