<?xml version="1.0" encoding="UTF-8" standalone="no"?>
<!DOCTYPE svg PUBLIC "-//W3C//DTD SVG 1.1//EN"
 "http://www.w3.org/Graphics/SVG/1.1/DTD/svg11.dtd">
<!-- Generated by graphviz version 2.42.4 (0)
 -->
<!-- Title: jngl/text.hpp Pages: 1 -->
<svg width="377pt" height="196pt"
 viewBox="0.00 0.00 377.00 196.00" xmlns="http://www.w3.org/2000/svg" xmlns:xlink="http://www.w3.org/1999/xlink">
<g id="graph0" class="graph" transform="scale(1 1) rotate(0) translate(4 192)">
<title>jngl/text.hpp</title>
<polygon fill="white" stroke="transparent" points="-4,4 -4,-192 373,-192 373,4 -4,4"/>
<!-- Node1 -->
<g id="node1" class="node">
<title>Node1</title>
<g id="a_node1"><a xlink:title=" ">
<polygon fill="#bfbfbf" stroke="black" points="188,-168.5 188,-187.5 283,-187.5 283,-168.5 188,-168.5"/>
<text text-anchor="middle" x="235.5" y="-175.5" font-family="'Consolas',monospace" font-size="10.00">jngl/text.hpp</text>
</a>
</g>
</g>
<!-- Node2 -->
<g id="node2" class="node">
<title>Node2</title>
<g id="a_node2"><a xlink:href="Drawable_8hpp.html" target="_top" xlink:title="Contains Drawable class.">
<polygon fill="white" stroke="black" points="67,-112.5 67,-131.5 156,-131.5 156,-112.5 67,-112.5"/>
<text text-anchor="middle" x="111.5" y="-119.5" font-family="'Consolas',monospace" font-size="10.00">Drawable.hpp</text>
</a>
</g>
</g>
<!-- Node1&#45;&gt;Node2 -->
<g id="edge1" class="edge">
<title>Node1&#45;&gt;Node2</title>
<path fill="none" stroke="midnightblue" d="M215.85,-168.44C195.54,-159.6 163.6,-145.69 140.4,-135.59"/>
<polygon fill="midnightblue" stroke="midnightblue" points="141.62,-132.3 131.06,-131.52 138.83,-138.72 141.62,-132.3"/>
</g>
<!-- Node6 -->
<g id="node6" class="node">
<title>Node6</title>
<g id="a_node6"><a target="_parent" xlink:href="http://en.cppreference.com/w/cpp/header/memory.html" target="_top" xlink:title=" ">
<polygon fill="white" stroke="black" points="174,-112.5 174,-131.5 227,-131.5 227,-112.5 174,-112.5"/>
<text text-anchor="middle" x="200.5" y="-119.5" font-family="'Consolas',monospace" font-size="10.00">memory</text>
</a>
</g>
</g>
<!-- Node1&#45;&gt;Node6 -->
<g id="edge5" class="edge">
<title>Node1&#45;&gt;Node6</title>
<path fill="none" stroke="midnightblue" d="M229.72,-168.08C224.83,-160.53 217.67,-149.49 211.67,-140.23"/>
<polygon fill="midnightblue" stroke="midnightblue" points="214.55,-138.24 206.17,-131.75 208.67,-142.05 214.55,-138.24"/>
</g>
<!-- Node7 -->
<g id="node7" class="node">
<title>Node7</title>
<g id="a_node7"><a target="_parent" xlink:href="http://en.cppreference.com/w/cpp/header/string.html" target="_top" xlink:title=" ">
<polygon fill="white" stroke="black" points="245,-112.5 245,-131.5 298,-131.5 298,-112.5 245,-112.5"/>
<text text-anchor="middle" x="271.5" y="-119.5" font-family="'Consolas',monospace" font-size="10.00">string</text>
</a>
</g>
</g>
<!-- Node1&#45;&gt;Node7 -->
<g id="edge6" class="edge">
<title>Node1&#45;&gt;Node7</title>
<path fill="none" stroke="midnightblue" d="M241.44,-168.08C246.48,-160.53 253.84,-149.49 260.01,-140.23"/>
<polygon fill="midnightblue" stroke="midnightblue" points="263.03,-142.01 265.67,-131.75 257.21,-138.13 263.03,-142.01"/>
</g>
<!-- Node8 -->
<g id="node8" class="node">
<title>Node8</title>
<g id="a_node8"><a target="_parent" xlink:href="http://en.cppreference.com/w/cpp/header/vector.html" target="_top" xlink:title=" ">
<polygon fill="white" stroke="black" points="316,-112.5 316,-131.5 369,-131.5 369,-112.5 316,-112.5"/>
<text text-anchor="middle" x="342.5" y="-119.5" font-family="'Consolas',monospace" font-size="10.00">vector</text>
</a>
</g>
</g>
<!-- Node1&#45;&gt;Node8 -->
<g id="edge7" class="edge">
<title>Node1&#45;&gt;Node8</title>
<path fill="none" stroke="midnightblue" d="M252.69,-168.32C269.85,-159.66 296.45,-146.24 316.25,-136.25"/>
<polygon fill="midnightblue" stroke="midnightblue" points="318,-139.28 325.35,-131.65 314.85,-133.04 318,-139.28"/>
</g>
<!-- Node3 -->
<g id="node3" class="node">
<title>Node3</title>
<g id="a_node3"><a xlink:href="Vec2_8hpp.html" target="_top" xlink:title=" ">
<polygon fill="white" stroke="black" points="79,-56.5 79,-75.5 144,-75.5 144,-56.5 79,-56.5"/>
<text text-anchor="middle" x="111.5" y="-63.5" font-family="'Consolas',monospace" font-size="10.00">Vec2.hpp</text>
</a>
</g>
</g>
<!-- Node2&#45;&gt;Node3 -->
<g id="edge2" class="edge">
<title>Node2&#45;&gt;Node3</title>
<path fill="none" stroke="midnightblue" d="M111.5,-112.08C111.5,-105.01 111.5,-94.86 111.5,-85.99"/>
<polygon fill="midnightblue" stroke="midnightblue" points="115,-85.75 111.5,-75.75 108,-85.75 115,-85.75"/>
</g>
<!-- Node4 -->
<g id="node4" class="node">
<title>Node4</title>
<g id="a_node4"><a xlink:title=" ">
<polygon fill="white" stroke="#bfbfbf" points="0,-0.5 0,-19.5 119,-19.5 119,-0.5 0,-0.5"/>
<text text-anchor="middle" x="59.5" y="-7.5" font-family="'Consolas',monospace" font-size="10.00">boost/version.hpp</text>
</a>
</g>
</g>
<!-- Node3&#45;&gt;Node4 -->
<g id="edge3" class="edge">
<title>Node3&#45;&gt;Node4</title>
<path fill="none" stroke="midnightblue" d="M102.91,-56.08C95.34,-48.22 84.12,-36.57 74.99,-27.08"/>
<polygon fill="midnightblue" stroke="midnightblue" points="77.38,-24.53 67.93,-19.75 72.34,-29.38 77.38,-24.53"/>
</g>
<!-- Node5 -->
<g id="node5" class="node">
<title>Node5</title>
<g id="a_node5"><a target="_parent" xlink:href="http://en.cppreference.com/w/cpp/header/iosfwd.html" target="_top" xlink:title=" ">
<polygon fill="white" stroke="black" points="137,-0.5 137,-19.5 190,-19.5 190,-0.5 137,-0.5"/>
<text text-anchor="middle" x="163.5" y="-7.5" font-family="'Consolas',monospace" font-size="10.00">iosfwd</text>
</a>
</g>
</g>
<!-- Node3&#45;&gt;Node5 -->
<g id="edge4" class="edge">
<title>Node3&#45;&gt;Node5</title>
<path fill="none" stroke="midnightblue" d="M120.09,-56.08C127.66,-48.22 138.88,-36.57 148.01,-27.08"/>
<polygon fill="midnightblue" stroke="midnightblue" points="150.66,-29.38 155.07,-19.75 145.62,-24.53 150.66,-29.38"/>
</g>
</g>
</svg>
