<?xml version="1.0" encoding="UTF-8" standalone="no"?>
<!DOCTYPE svg PUBLIC "-//W3C//DTD SVG 1.1//EN"
 "http://www.w3.org/Graphics/SVG/1.1/DTD/svg11.dtd">
<!-- Generated by graphviz version 2.42.4 (0)
 -->
<!-- Title: jngl/Vec2.hpp Pages: 1 -->
<svg width="958pt" height="308pt"
 viewBox="0.00 0.00 958.00 308.00" xmlns="http://www.w3.org/2000/svg" xmlns:xlink="http://www.w3.org/1999/xlink">
<g id="graph0" class="graph" transform="scale(1 1) rotate(0) translate(4 304)">
<title>jngl/Vec2.hpp</title>
<polygon fill="white" stroke="transparent" points="-4,4 -4,-304 954,-304 954,4 -4,4"/>
<!-- Node1 -->
<g id="node1" class="node">
<title>Node1</title>
<g id="a_node1"><a xlink:title=" ">
<polygon fill="#bfbfbf" stroke="black" points="458,-280.5 458,-299.5 553,-299.5 553,-280.5 458,-280.5"/>
<text text-anchor="middle" x="505.5" y="-287.5" font-family="'Consolas',monospace" font-size="10.00">jngl/Vec2.hpp</text>
</a>
</g>
</g>
<!-- Node2 -->
<g id="node2" class="node">
<title>Node2</title>
<g id="a_node2"><a xlink:href="Drawable_8hpp.html" target="_top" xlink:title="Contains jngl::Drawable class.">
<polygon fill="white" stroke="black" points="114,-224.5 114,-243.5 233,-243.5 233,-224.5 114,-224.5"/>
<text text-anchor="middle" x="173.5" y="-231.5" font-family="'Consolas',monospace" font-size="10.00">jngl/Drawable.hpp</text>
</a>
</g>
</g>
<!-- Node1&#45;&gt;Node2 -->
<g id="edge1" class="edge">
<title>Node1&#45;&gt;Node2</title>
<path fill="none" stroke="midnightblue" d="M447.84,-279.62C385.29,-269.45 286.32,-253.35 225.91,-243.52"/>
<polygon fill="midnightblue" stroke="midnightblue" points="447.5,-283.11 457.93,-281.26 448.62,-276.2 447.5,-283.11"/>
</g>
<!-- Node5 -->
<g id="node5" class="node">
<title>Node5</title>
<g id="a_node5"><a xlink:href="sprite_8hpp.html" target="_top" xlink:title="Contains jngl::Sprite class and related functions.">
<polygon fill="white" stroke="black" points="0,-168.5 0,-187.5 107,-187.5 107,-168.5 0,-168.5"/>
<text text-anchor="middle" x="53.5" y="-175.5" font-family="'Consolas',monospace" font-size="10.00">jngl/sprite.hpp</text>
</a>
</g>
</g>
<!-- Node1&#45;&gt;Node5 -->
<g id="edge25" class="edge">
<title>Node1&#45;&gt;Node5</title>
<path fill="none" stroke="midnightblue" d="M447.68,-287.95C351.12,-285.3 161.99,-276.05 104.5,-244 80.95,-230.87 64.48,-201.97 57.4,-187.54"/>
<polygon fill="midnightblue" stroke="midnightblue" points="447.76,-291.45 457.85,-288.21 447.95,-284.45 447.76,-291.45"/>
</g>
<!-- Node9 -->
<g id="node9" class="node">
<title>Node9</title>
<g id="a_node9"><a xlink:href="font_8hpp.html" target="_top" xlink:title="Contains jngl::Font class and related functions.">
<polygon fill="white" stroke="black" points="398,-112.5 398,-131.5 493,-131.5 493,-112.5 398,-112.5"/>
<text text-anchor="middle" x="445.5" y="-119.5" font-family="'Consolas',monospace" font-size="10.00">jngl/font.hpp</text>
</a>
</g>
</g>
<!-- Node1&#45;&gt;Node9 -->
<g id="edge12" class="edge">
<title>Node1&#45;&gt;Node9</title>
<path fill="none" stroke="midnightblue" d="M498.78,-270.39C485.83,-234.59 457.91,-157.34 448.6,-131.57"/>
<polygon fill="midnightblue" stroke="midnightblue" points="495.58,-271.86 502.27,-280.08 502.17,-269.48 495.58,-271.86"/>
</g>
<!-- Node10 -->
<g id="node10" class="node">
<title>Node10</title>
<g id="a_node10"><a xlink:href="framebuffer_8hpp.html" target="_top" xlink:title="Contains jngl::FrameBuffer class.">
<polygon fill="white" stroke="black" points="511,-112.5 511,-131.5 642,-131.5 642,-112.5 511,-112.5"/>
<text text-anchor="middle" x="576.5" y="-119.5" font-family="'Consolas',monospace" font-size="10.00">jngl/framebuffer.hpp</text>
</a>
</g>
</g>
<!-- Node1&#45;&gt;Node10 -->
<g id="edge14" class="edge">
<title>Node1&#45;&gt;Node10</title>
<path fill="none" stroke="midnightblue" d="M513.26,-270.86C528.49,-235.25 561.76,-157.45 572.84,-131.57"/>
<polygon fill="midnightblue" stroke="midnightblue" points="510.03,-269.5 509.32,-280.08 516.47,-272.26 510.03,-269.5"/>
</g>
<!-- Node11 -->
<g id="node11" class="node">
<title>Node11</title>
<g id="a_node11"><a xlink:href="input_8hpp.html" target="_top" xlink:title="Input related functions.">
<polygon fill="white" stroke="black" points="611,-168.5 611,-187.5 712,-187.5 712,-168.5 611,-168.5"/>
<text text-anchor="middle" x="661.5" y="-175.5" font-family="'Consolas',monospace" font-size="10.00">jngl/input.hpp</text>
</a>
</g>
</g>
<!-- Node1&#45;&gt;Node11 -->
<g id="edge16" class="edge">
<title>Node1&#45;&gt;Node11</title>
<path fill="none" stroke="midnightblue" d="M526.18,-274.42C559.18,-251.15 622.71,-206.35 649.32,-187.59"/>
<polygon fill="midnightblue" stroke="midnightblue" points="523.9,-271.75 517.74,-280.37 527.93,-277.47 523.9,-271.75"/>
</g>
<!-- Node13 -->
<g id="node13" class="node">
<title>Node13</title>
<g id="a_node13"><a xlink:href="screen_8hpp.html" target="_top" xlink:title=" ">
<polygon fill="white" stroke="black" points="718,-224.5 718,-243.5 825,-243.5 825,-224.5 718,-224.5"/>
<text text-anchor="middle" x="771.5" y="-231.5" font-family="'Consolas',monospace" font-size="10.00">jngl/screen.hpp</text>
</a>
</g>
</g>
<!-- Node1&#45;&gt;Node13 -->
<g id="edge20" class="edge">
<title>Node1&#45;&gt;Node13</title>
<path fill="none" stroke="midnightblue" d="M557.67,-278.41C607.94,-268.2 683.03,-252.96 729.55,-243.52"/>
<polygon fill="midnightblue" stroke="midnightblue" points="556.75,-275.02 547.65,-280.44 558.14,-281.88 556.75,-275.02"/>
</g>
<!-- Node15 -->
<g id="node15" class="node">
<title>Node15</title>
<g id="a_node15"><a xlink:href="shapes_8hpp.html" target="_top" xlink:title="Functions for drawing shapes.">
<polygon fill="white" stroke="black" points="843,-224.5 843,-243.5 950,-243.5 950,-224.5 843,-224.5"/>
<text text-anchor="middle" x="896.5" y="-231.5" font-family="'Consolas',monospace" font-size="10.00">jngl/shapes.hpp</text>
</a>
</g>
</g>
<!-- Node1&#45;&gt;Node15 -->
<g id="edge23" class="edge">
<title>Node1&#45;&gt;Node15</title>
<path fill="none" stroke="midnightblue" d="M563.16,-281.19C628.68,-272.29 738.81,-257.26 833.5,-244 836.56,-243.57 839.71,-243.13 842.89,-242.68"/>
<polygon fill="midnightblue" stroke="midnightblue" points="562.48,-277.75 553.04,-282.56 563.42,-284.68 562.48,-277.75"/>
</g>
<!-- Node16 -->
<g id="node16" class="node">
<title>Node16</title>
<g id="a_node16"><a xlink:href="Widget_8hpp.html" target="_top" xlink:title="Contains jngl::Container class.">
<polygon fill="white" stroke="black" points="316,-168.5 316,-187.5 423,-187.5 423,-168.5 316,-168.5"/>
<text text-anchor="middle" x="369.5" y="-175.5" font-family="'Consolas',monospace" font-size="10.00">jngl/Widget.hpp</text>
</a>
</g>
</g>
<!-- Node1&#45;&gt;Node16 -->
<g id="edge26" class="edge">
<title>Node1&#45;&gt;Node16</title>
<path fill="none" stroke="midnightblue" d="M486.73,-273.82C457.76,-250.39 403.12,-206.19 380.12,-187.59"/>
<polygon fill="midnightblue" stroke="midnightblue" points="484.85,-276.8 494.83,-280.37 489.25,-271.36 484.85,-276.8"/>
</g>
<!-- Node3 -->
<g id="node3" class="node">
<title>Node3</title>
<g id="a_node3"><a xlink:href="all_8hpp.html" target="_top" xlink:title="Includes all JNGL headers except for init.hpp.">
<polygon fill="white" stroke="black" points="363,-56.5 363,-75.5 452,-75.5 452,-56.5 363,-56.5"/>
<text text-anchor="middle" x="407.5" y="-63.5" font-family="'Consolas',monospace" font-size="10.00">jngl/all.hpp</text>
</a>
</g>
</g>
<!-- Node2&#45;&gt;Node3 -->
<g id="edge2" class="edge">
<title>Node2&#45;&gt;Node3</title>
<path fill="none" stroke="midnightblue" d="M175.2,-214.09C178.74,-186.87 189.45,-137.14 221.5,-112 262.15,-80.11 322.04,-70.36 362.8,-67.62"/>
<polygon fill="midnightblue" stroke="midnightblue" points="171.7,-213.92 174.09,-224.24 178.66,-214.69 171.7,-213.92"/>
</g>
<!-- Node2&#45;&gt;Node5 -->
<g id="edge4" class="edge">
<title>Node2&#45;&gt;Node5</title>
<path fill="none" stroke="midnightblue" d="M145.13,-220.23C122.68,-210.13 91.96,-196.31 72.43,-187.52"/>
<polygon fill="midnightblue" stroke="midnightblue" points="143.93,-223.53 154.49,-224.44 146.8,-217.15 143.93,-223.53"/>
</g>
<!-- Node6 -->
<g id="node6" class="node">
<title>Node6</title>
<g id="a_node6"><a xlink:href="text_8hpp.html" target="_top" xlink:title=" ">
<polygon fill="white" stroke="black" points="202,-168.5 202,-187.5 297,-187.5 297,-168.5 202,-168.5"/>
<text text-anchor="middle" x="249.5" y="-175.5" font-family="'Consolas',monospace" font-size="10.00">jngl/text.hpp</text>
</a>
</g>
</g>
<!-- Node2&#45;&gt;Node6 -->
<g id="edge6" class="edge">
<title>Node2&#45;&gt;Node6</title>
<path fill="none" stroke="midnightblue" d="M194.08,-218.38C207.81,-208.62 225.43,-196.11 237.07,-187.83"/>
<polygon fill="midnightblue" stroke="midnightblue" points="191.84,-215.68 185.71,-224.32 195.89,-221.38 191.84,-215.68"/>
</g>
<!-- Node8 -->
<g id="node8" class="node">
<title>Node8</title>
<g id="a_node8"><a xlink:href="TextLine_8hpp.html" target="_top" xlink:title="Contains jngl::TextLine class.">
<polygon fill="white" stroke="black" points="26,-112.5 26,-131.5 145,-131.5 145,-112.5 26,-112.5"/>
<text text-anchor="middle" x="85.5" y="-119.5" font-family="'Consolas',monospace" font-size="10.00">jngl/TextLine.hpp</text>
</a>
</g>
</g>
<!-- Node2&#45;&gt;Node8 -->
<g id="edge10" class="edge">
<title>Node2&#45;&gt;Node8</title>
<path fill="none" stroke="midnightblue" d="M160.12,-216.27C141.1,-192.49 106.93,-149.79 92.37,-131.59"/>
<polygon fill="midnightblue" stroke="midnightblue" points="157.61,-218.75 166.59,-224.37 163.08,-214.37 157.61,-218.75"/>
</g>
<!-- Node4 -->
<g id="node4" class="node">
<title>Node4</title>
<g id="a_node4"><a xlink:href="jngl_8hpp.html" target="_top" xlink:title="Includes jngl/all.hpp.">
<polygon fill="white" stroke="black" points="375,-0.5 375,-19.5 440,-19.5 440,-0.5 375,-0.5"/>
<text text-anchor="middle" x="407.5" y="-7.5" font-family="'Consolas',monospace" font-size="10.00">jngl.hpp</text>
</a>
</g>
</g>
<!-- Node3&#45;&gt;Node4 -->
<g id="edge3" class="edge">
<title>Node3&#45;&gt;Node4</title>
<path fill="none" stroke="midnightblue" d="M407.5,-45.8C407.5,-36.91 407.5,-26.78 407.5,-19.75"/>
<polygon fill="midnightblue" stroke="midnightblue" points="404,-46.08 407.5,-56.08 411,-46.08 404,-46.08"/>
</g>
<!-- Node5&#45;&gt;Node3 -->
<g id="edge5" class="edge">
<title>Node5&#45;&gt;Node3</title>
<path fill="none" stroke="midnightblue" d="M34.76,-161.87C19.67,-147.91 3.03,-127.1 16.5,-112 39.24,-86.5 265.09,-73.38 362.82,-68.86"/>
<polygon fill="midnightblue" stroke="midnightblue" points="32.5,-164.55 42.33,-168.48 37.1,-159.27 32.5,-164.55"/>
</g>
<!-- Node6&#45;&gt;Node3 -->
<g id="edge7" class="edge">
<title>Node6&#45;&gt;Node3</title>
<path fill="none" stroke="midnightblue" d="M236.73,-159.76C227.98,-145.66 219.73,-125.86 230.5,-112 246.61,-91.29 315.86,-78.55 362.82,-72.13"/>
<polygon fill="midnightblue" stroke="midnightblue" points="233.86,-161.76 242.36,-168.08 239.66,-157.84 233.86,-161.76"/>
</g>
<!-- Node7 -->
<g id="node7" class="node">
<title>Node7</title>
<g id="a_node7"><a xlink:href="Label_8hpp.html" target="_top" xlink:title="Contains jngl::Label class.">
<polygon fill="white" stroke="black" points="240,-112.5 240,-131.5 341,-131.5 341,-112.5 240,-112.5"/>
<text text-anchor="middle" x="290.5" y="-119.5" font-family="'Consolas',monospace" font-size="10.00">jngl/Label.hpp</text>
</a>
</g>
</g>
<!-- Node6&#45;&gt;Node7 -->
<g id="edge8" class="edge">
<title>Node6&#45;&gt;Node7</title>
<path fill="none" stroke="midnightblue" d="M262.52,-159.86C269.62,-150.5 278.1,-139.33 283.86,-131.75"/>
<polygon fill="midnightblue" stroke="midnightblue" points="259.53,-158 256.27,-168.08 265.11,-162.24 259.53,-158"/>
</g>
<!-- Node7&#45;&gt;Node3 -->
<g id="edge9" class="edge">
<title>Node7&#45;&gt;Node3</title>
<path fill="none" stroke="midnightblue" d="M318.16,-108.23C340.05,-98.13 370,-84.31 389.05,-75.52"/>
<polygon fill="midnightblue" stroke="midnightblue" points="316.65,-105.08 309.04,-112.44 319.59,-111.43 316.65,-105.08"/>
</g>
<!-- Node8&#45;&gt;Node3 -->
<g id="edge11" class="edge">
<title>Node8&#45;&gt;Node3</title>
<path fill="none" stroke="midnightblue" d="M146.74,-110.73C209.86,-100.15 306.74,-83.9 362.94,-74.47"/>
<polygon fill="midnightblue" stroke="midnightblue" points="145.81,-107.34 136.52,-112.44 146.96,-114.24 145.81,-107.34"/>
</g>
<!-- Node9&#45;&gt;Node3 -->
<g id="edge13" class="edge">
<title>Node9&#45;&gt;Node3</title>
<path fill="none" stroke="midnightblue" d="M433.44,-103.86C426.86,-94.5 418.99,-83.33 413.66,-75.75"/>
<polygon fill="midnightblue" stroke="midnightblue" points="430.61,-105.92 439.23,-112.08 436.33,-101.89 430.61,-105.92"/>
</g>
<!-- Node10&#45;&gt;Node3 -->
<g id="edge15" class="edge">
<title>Node10&#45;&gt;Node3</title>
<path fill="none" stroke="midnightblue" d="M539.9,-109.3C508.05,-99.13 462.66,-84.62 434.15,-75.52"/>
<polygon fill="midnightblue" stroke="midnightblue" points="539.13,-112.73 549.72,-112.44 541.26,-106.07 539.13,-112.73"/>
</g>
<!-- Node11&#45;&gt;Node3 -->
<g id="edge17" class="edge">
<title>Node11&#45;&gt;Node3</title>
<path fill="none" stroke="midnightblue" d="M663.64,-158.13C664.17,-143.58 662.29,-123.97 650.5,-112 623.45,-84.52 514.58,-73.45 452.13,-69.29"/>
<polygon fill="midnightblue" stroke="midnightblue" points="660.12,-158.24 662.83,-168.48 667.1,-158.78 660.12,-158.24"/>
</g>
<!-- Node12 -->
<g id="node12" class="node">
<title>Node12</title>
<g id="a_node12"><a xlink:href="Controller_8hpp.html" target="_top" xlink:title=" ">
<polygon fill="white" stroke="black" points="699,-112.5 699,-131.5 830,-131.5 830,-112.5 699,-112.5"/>
<text text-anchor="middle" x="764.5" y="-119.5" font-family="'Consolas',monospace" font-size="10.00">jngl/Controller.hpp</text>
</a>
</g>
</g>
<!-- Node11&#45;&gt;Node12 -->
<g id="edge18" class="edge">
<title>Node11&#45;&gt;Node12</title>
<path fill="none" stroke="midnightblue" d="M687.08,-163.59C706.12,-153.61 731.56,-140.27 747.99,-131.65"/>
<polygon fill="midnightblue" stroke="midnightblue" points="685.28,-160.58 678.05,-168.32 688.53,-166.78 685.28,-160.58"/>
</g>
<!-- Node12&#45;&gt;Node3 -->
<g id="edge19" class="edge">
<title>Node12&#45;&gt;Node3</title>
<path fill="none" stroke="midnightblue" d="M697.65,-110.89C625.92,-100.04 514.01,-83.11 452.23,-73.77"/>
<polygon fill="midnightblue" stroke="midnightblue" points="697.52,-114.41 707.93,-112.44 698.57,-107.49 697.52,-114.41"/>
</g>
<!-- Node13&#45;&gt;Node3 -->
<g id="edge21" class="edge">
<title>Node13&#45;&gt;Node3</title>
<path fill="none" stroke="midnightblue" d="M799.8,-219.52C812.29,-212.04 825.84,-201.5 833.5,-188 850.2,-158.56 861.16,-137.15 838.5,-112 812.97,-83.67 557.54,-71.99 452.37,-68.35"/>
<polygon fill="midnightblue" stroke="midnightblue" points="798.03,-216.5 790.99,-224.42 801.43,-222.61 798.03,-216.5"/>
</g>
<!-- Node14 -->
<g id="node14" class="node">
<title>Node14</title>
<g id="a_node14"><a xlink:href="init_8hpp.html" target="_top" xlink:title="Include this file only once, as it defines the main function.">
<polygon fill="white" stroke="black" points="730,-168.5 730,-187.5 825,-187.5 825,-168.5 730,-168.5"/>
<text text-anchor="middle" x="777.5" y="-175.5" font-family="'Consolas',monospace" font-size="10.00">jngl/init.hpp</text>
</a>
</g>
</g>
<!-- Node13&#45;&gt;Node14 -->
<g id="edge22" class="edge">
<title>Node13&#45;&gt;Node14</title>
<path fill="none" stroke="midnightblue" d="M773.6,-214.1C774.6,-205.14 775.74,-194.86 776.53,-187.75"/>
<polygon fill="midnightblue" stroke="midnightblue" points="770.12,-213.76 772.49,-224.08 777.07,-214.53 770.12,-213.76"/>
</g>
<!-- Node15&#45;&gt;Node3 -->
<g id="edge24" class="edge">
<title>Node15&#45;&gt;Node3</title>
<path fill="none" stroke="midnightblue" d="M896.57,-214.07C895.56,-186.81 889.29,-137.05 858.5,-112 827.41,-86.7 560.12,-73.17 452.31,-68.7"/>
<polygon fill="midnightblue" stroke="midnightblue" points="893.08,-214.29 896.74,-224.23 900.08,-214.17 893.08,-214.29"/>
</g>
<!-- Node16&#45;&gt;Node3 -->
<g id="edge27" class="edge">
<title>Node16&#45;&gt;Node3</title>
<path fill="none" stroke="midnightblue" d="M374.22,-158.78C377.77,-145.65 382.96,-127.58 388.5,-112 393.11,-99.06 399.49,-84.47 403.56,-75.51"/>
<polygon fill="midnightblue" stroke="midnightblue" points="370.83,-157.92 371.65,-168.49 377.6,-159.71 370.83,-157.92"/>
</g>
<!-- Node16&#45;&gt;Node7 -->
<g id="edge28" class="edge">
<title>Node16&#45;&gt;Node7</title>
<path fill="none" stroke="midnightblue" d="M348.47,-162.62C334.03,-152.76 315.36,-139.99 303.16,-131.65"/>
<polygon fill="midnightblue" stroke="midnightblue" points="346.58,-165.57 356.81,-168.32 350.53,-159.79 346.58,-165.57"/>
</g>
</g>
</svg>
