<?xml version="1.0" encoding="UTF-8" standalone="no"?>
<!DOCTYPE svg PUBLIC "-//W3C//DTD SVG 1.1//EN"
 "http://www.w3.org/Graphics/SVG/1.1/DTD/svg11.dtd">
<!-- Generated by graphviz version 2.38.0 (20140413.2041)
 -->
<!-- Title: jngl/Vec2.hpp Pages: 1 -->
<svg width="275pt" height="84pt"
 viewBox="0.00 0.00 275.00 84.00" xmlns="http://www.w3.org/2000/svg" xmlns:xlink="http://www.w3.org/1999/xlink">
<g id="graph0" class="graph" transform="scale(1 1) rotate(0) translate(4 80)">
<title>jngl/Vec2.hpp</title>
<polygon fill="white" stroke="none" points="-4,4 -4,-80 271,-80 271,4 -4,4"/>
<!-- Node1 -->
<g id="node1" class="node"><title>Node1</title>
<polygon fill="#bfbfbf" stroke="black" points="89,-56.5 89,-75.5 184,-75.5 184,-56.5 89,-56.5"/>
<text text-anchor="middle" x="136.5" y="-63.5" font-family="'Consolas',monospace" font-size="10.00">jngl/Vec2.hpp</text>
</g>
<!-- Node2 -->
<g id="node2" class="node"><title>Node2</title>
<g id="a_node2"><a xlink:href="dll_8hpp_source.html" target="_top" xlink:title="dll.hpp">
<polygon fill="white" stroke="black" points="0,-0.5 0,-19.5 59,-19.5 59,-0.5 0,-0.5"/>
<text text-anchor="middle" x="29.5" y="-7.5" font-family="'Consolas',monospace" font-size="10.00">dll.hpp</text>
</a>
</g>
</g>
<!-- Node1&#45;&gt;Node2 -->
<g id="edge1" class="edge"><title>Node1&#45;&gt;Node2</title>
<path fill="none" stroke="midnightblue" d="M119.309,-56.324C102.149,-47.6641 75.5543,-34.2424 55.7527,-24.249"/>
<polygon fill="midnightblue" stroke="midnightblue" points="57.1532,-21.0354 46.6487,-19.6545 53.9993,-27.2847 57.1532,-21.0354"/>
</g>
<!-- Node3 -->
<g id="node3" class="node"><title>Node3</title>
<polygon fill="white" stroke="#bfbfbf" points="77,-0.5 77,-19.5 196,-19.5 196,-0.5 77,-0.5"/>
<text text-anchor="middle" x="136.5" y="-7.5" font-family="'Consolas',monospace" font-size="10.00">boost/version.hpp</text>
</g>
<!-- Node1&#45;&gt;Node3 -->
<g id="edge2" class="edge"><title>Node1&#45;&gt;Node3</title>
<path fill="none" stroke="midnightblue" d="M136.5,-56.083C136.5,-49.0059 136.5,-38.8611 136.5,-29.9865"/>
<polygon fill="midnightblue" stroke="midnightblue" points="140,-29.751 136.5,-19.7511 133,-29.7511 140,-29.751"/>
</g>
<!-- Node4 -->
<g id="node4" class="node"><title>Node4</title>
<polygon fill="white" stroke="#bfbfbf" points="214,-0.5 214,-19.5 267,-19.5 267,-0.5 214,-0.5"/>
<text text-anchor="middle" x="240.5" y="-7.5" font-family="'Consolas',monospace" font-size="10.00">iosfwd</text>
</g>
<!-- Node1&#45;&gt;Node4 -->
<g id="edge3" class="edge"><title>Node1&#45;&gt;Node4</title>
<path fill="none" stroke="midnightblue" d="M153.209,-56.324C169.812,-47.7034 195.502,-34.3643 214.72,-24.3855"/>
<polygon fill="midnightblue" stroke="midnightblue" points="216.57,-27.3689 223.832,-19.6545 213.344,-21.1565 216.57,-27.3689"/>
</g>
</g>
</svg>
