<?xml version="1.0" encoding="UTF-8" standalone="no"?>
<!DOCTYPE svg PUBLIC "-//W3C//DTD SVG 1.1//EN"
 "http://www.w3.org/Graphics/SVG/1.1/DTD/svg11.dtd">
<!-- Generated by graphviz version 2.44.0 (0)
 -->
<!-- Title: jngl/Vec2.hpp Pages: 1 -->
<svg width="969pt" height="308pt"
 viewBox="0.00 0.00 969.00 308.00" xmlns="http://www.w3.org/2000/svg" xmlns:xlink="http://www.w3.org/1999/xlink">
<g id="graph0" class="graph" transform="scale(1 1) rotate(0) translate(4 304)">
<title>jngl/Vec2.hpp</title>
<polygon fill="white" stroke="transparent" points="-4,4 -4,-304 965,-304 965,4 -4,4"/>
<!-- Node1 -->
<g id="node1" class="node">
<title>Node1</title>
<g id="a_node1"><a xlink:title="Contains jngl::Vec2 class.">
<polygon fill="#bfbfbf" stroke="black" points="521,-280.5 521,-299.5 616,-299.5 616,-280.5 521,-280.5"/>
<text text-anchor="middle" x="568.5" y="-287.5" font-family="'Consolas',monospace" font-size="10.00">jngl/Vec2.hpp</text>
</a>
</g>
</g>
<!-- Node2 -->
<g id="node2" class="node">
<title>Node2</title>
<g id="a_node2"><a xlink:href="Drawable_8hpp.html" target="_top" xlink:title="Contains jngl::Drawable class.">
<polygon fill="white" stroke="black" points="164,-224.5 164,-243.5 283,-243.5 283,-224.5 164,-224.5"/>
<text text-anchor="middle" x="223.5" y="-231.5" font-family="'Consolas',monospace" font-size="10.00">jngl/Drawable.hpp</text>
</a>
</g>
</g>
<!-- Node1&#45;&gt;Node2 -->
<g id="edge1" class="edge">
<title>Node1&#45;&gt;Node2</title>
<path fill="none" stroke="midnightblue" d="M510.84,-279.97C446.01,-269.83 341.52,-253.47 278.01,-243.53"/>
<polygon fill="midnightblue" stroke="midnightblue" points="510.47,-283.46 520.89,-281.55 511.55,-276.54 510.47,-283.46"/>
</g>
<!-- Node5 -->
<g id="node5" class="node">
<title>Node5</title>
<g id="a_node5"><a xlink:href="sprite_8hpp.html" target="_top" xlink:title="Contains jngl::Sprite class and related functions.">
<polygon fill="white" stroke="black" points="0,-168.5 0,-187.5 107,-187.5 107,-168.5 0,-168.5"/>
<text text-anchor="middle" x="53.5" y="-175.5" font-family="'Consolas',monospace" font-size="10.00">jngl/sprite.hpp</text>
</a>
</g>
</g>
<!-- Node1&#45;&gt;Node5 -->
<g id="edge26" class="edge">
<title>Node1&#45;&gt;Node5</title>
<path fill="none" stroke="midnightblue" d="M510.85,-286.01C413,-280.39 218.77,-266.74 154.5,-244 117.54,-230.92 80.4,-202 63.27,-187.55"/>
<polygon fill="midnightblue" stroke="midnightblue" points="510.68,-289.51 520.86,-286.58 511.08,-282.52 510.68,-289.51"/>
</g>
<!-- Node9 -->
<g id="node9" class="node">
<title>Node9</title>
<g id="a_node9"><a xlink:href="font_8hpp.html" target="_top" xlink:title="Contains jngl::Font class and related functions.">
<polygon fill="white" stroke="black" points="409,-112.5 409,-131.5 504,-131.5 504,-112.5 409,-112.5"/>
<text text-anchor="middle" x="456.5" y="-119.5" font-family="'Consolas',monospace" font-size="10.00">jngl/font.hpp</text>
</a>
</g>
</g>
<!-- Node1&#45;&gt;Node9 -->
<g id="edge13" class="edge">
<title>Node1&#45;&gt;Node9</title>
<path fill="none" stroke="midnightblue" d="M566.53,-270.28C563.01,-244.77 553.6,-198.72 529.5,-168 516.27,-151.13 494.83,-139 478.59,-131.62"/>
<polygon fill="midnightblue" stroke="midnightblue" points="563.09,-270.93 567.77,-280.44 570.03,-270.09 563.09,-270.93"/>
</g>
<!-- Node10 -->
<g id="node10" class="node">
<title>Node10</title>
<g id="a_node10"><a xlink:href="framebuffer_8hpp.html" target="_top" xlink:title="Contains jngl::FrameBuffer class.">
<polygon fill="white" stroke="black" points="522,-112.5 522,-131.5 653,-131.5 653,-112.5 522,-112.5"/>
<text text-anchor="middle" x="587.5" y="-119.5" font-family="'Consolas',monospace" font-size="10.00">jngl/framebuffer.hpp</text>
</a>
</g>
</g>
<!-- Node1&#45;&gt;Node10 -->
<g id="edge15" class="edge">
<title>Node1&#45;&gt;Node10</title>
<path fill="none" stroke="midnightblue" d="M570.68,-269.93C574.8,-233.92 583.58,-157.23 586.52,-131.57"/>
<polygon fill="midnightblue" stroke="midnightblue" points="567.18,-269.74 569.52,-280.08 574.14,-270.54 567.18,-269.74"/>
</g>
<!-- Node11 -->
<g id="node11" class="node">
<title>Node11</title>
<g id="a_node11"><a xlink:href="input_8hpp.html" target="_top" xlink:title="Input related functions.">
<polygon fill="white" stroke="black" points="622,-168.5 622,-187.5 723,-187.5 723,-168.5 622,-168.5"/>
<text text-anchor="middle" x="672.5" y="-175.5" font-family="'Consolas',monospace" font-size="10.00">jngl/input.hpp</text>
</a>
</g>
</g>
<!-- Node1&#45;&gt;Node11 -->
<g id="edge17" class="edge">
<title>Node1&#45;&gt;Node11</title>
<path fill="none" stroke="midnightblue" d="M583.73,-272.9C606.08,-249.25 647.02,-205.95 664.38,-187.59"/>
<polygon fill="midnightblue" stroke="midnightblue" points="580.99,-270.7 576.66,-280.37 586.07,-275.51 580.99,-270.7"/>
</g>
<!-- Node13 -->
<g id="node13" class="node">
<title>Node13</title>
<g id="a_node13"><a xlink:href="screen_8hpp.html" target="_top" xlink:title=" ">
<polygon fill="white" stroke="black" points="729,-224.5 729,-243.5 836,-243.5 836,-224.5 729,-224.5"/>
<text text-anchor="middle" x="782.5" y="-231.5" font-family="'Consolas',monospace" font-size="10.00">jngl/screen.hpp</text>
</a>
</g>
</g>
<!-- Node1&#45;&gt;Node13 -->
<g id="edge21" class="edge">
<title>Node1&#45;&gt;Node13</title>
<path fill="none" stroke="midnightblue" d="M612.26,-277.96C652.67,-267.76 711.87,-252.82 748.75,-243.52"/>
<polygon fill="midnightblue" stroke="midnightblue" points="611.25,-274.6 602.41,-280.44 612.96,-281.39 611.25,-274.6"/>
</g>
<!-- Node15 -->
<g id="node15" class="node">
<title>Node15</title>
<g id="a_node15"><a xlink:href="shapes_8hpp.html" target="_top" xlink:title="Functions for drawing shapes.">
<polygon fill="white" stroke="black" points="854,-224.5 854,-243.5 961,-243.5 961,-224.5 854,-224.5"/>
<text text-anchor="middle" x="907.5" y="-231.5" font-family="'Consolas',monospace" font-size="10.00">jngl/shapes.hpp</text>
</a>
</g>
</g>
<!-- Node1&#45;&gt;Node15 -->
<g id="edge24" class="edge">
<title>Node1&#45;&gt;Node15</title>
<path fill="none" stroke="midnightblue" d="M626.25,-279.8C690.06,-269.64 791.98,-253.4 854.02,-243.52"/>
<polygon fill="midnightblue" stroke="midnightblue" points="625.68,-276.35 616.35,-281.38 626.78,-283.26 625.68,-276.35"/>
</g>
<!-- Node16 -->
<g id="node16" class="node">
<title>Node16</title>
<g id="a_node16"><a xlink:href="Widget_8hpp.html" target="_top" xlink:title="Contains jngl::Container class.">
<polygon fill="white" stroke="black" points="414,-168.5 414,-187.5 521,-187.5 521,-168.5 414,-168.5"/>
<text text-anchor="middle" x="467.5" y="-175.5" font-family="'Consolas',monospace" font-size="10.00">jngl/Widget.hpp</text>
</a>
</g>
</g>
<!-- Node1&#45;&gt;Node16 -->
<g id="edge27" class="edge">
<title>Node1&#45;&gt;Node16</title>
<path fill="none" stroke="midnightblue" d="M553.71,-272.9C532,-249.25 492.24,-205.95 475.39,-187.59"/>
<polygon fill="midnightblue" stroke="midnightblue" points="551.23,-275.37 560.57,-280.37 556.39,-270.64 551.23,-275.37"/>
</g>
<!-- Node3 -->
<g id="node3" class="node">
<title>Node3</title>
<g id="a_node3"><a xlink:href="all_8hpp.html" target="_top" xlink:title="Includes all JNGL headers except for init.hpp.">
<polygon fill="white" stroke="black" points="374,-56.5 374,-75.5 463,-75.5 463,-56.5 374,-56.5"/>
<text text-anchor="middle" x="418.5" y="-63.5" font-family="'Consolas',monospace" font-size="10.00">jngl/all.hpp</text>
</a>
</g>
</g>
<!-- Node2&#45;&gt;Node3 -->
<g id="edge2" class="edge">
<title>Node2&#45;&gt;Node3</title>
<path fill="none" stroke="midnightblue" d="M191.85,-220C169.18,-208.54 144.31,-190.22 154.5,-168 191.62,-87.03 308.8,-70.11 373.87,-67.11"/>
<polygon fill="midnightblue" stroke="midnightblue" points="190.46,-223.22 200.99,-224.34 193.46,-216.89 190.46,-223.22"/>
</g>
<!-- Node2&#45;&gt;Node5 -->
<g id="edge4" class="edge">
<title>Node2&#45;&gt;Node5</title>
<path fill="none" stroke="midnightblue" d="M186.68,-221.3C154.65,-211.13 108.98,-196.62 80.31,-187.52"/>
<polygon fill="midnightblue" stroke="midnightblue" points="185.97,-224.75 196.56,-224.44 188.09,-218.08 185.97,-224.75"/>
</g>
<!-- Node6 -->
<g id="node6" class="node">
<title>Node6</title>
<g id="a_node6"><a xlink:href="text_8hpp.html" target="_top" xlink:title=" ">
<polygon fill="white" stroke="black" points="301,-168.5 301,-187.5 396,-187.5 396,-168.5 301,-168.5"/>
<text text-anchor="middle" x="348.5" y="-175.5" font-family="'Consolas',monospace" font-size="10.00">jngl/text.hpp</text>
</a>
</g>
</g>
<!-- Node2&#45;&gt;Node6 -->
<g id="edge6" class="edge">
<title>Node2&#45;&gt;Node6</title>
<path fill="none" stroke="midnightblue" d="M252.74,-220.37C276.15,-210.26 308.34,-196.35 328.79,-187.52"/>
<polygon fill="midnightblue" stroke="midnightblue" points="251.1,-217.26 243.31,-224.44 253.87,-223.69 251.1,-217.26"/>
</g>
<!-- Node8 -->
<g id="node8" class="node">
<title>Node8</title>
<g id="a_node8"><a xlink:href="TextLine_8hpp.html" target="_top" xlink:title="Contains jngl::TextLine class.">
<polygon fill="white" stroke="black" points="164,-168.5 164,-187.5 283,-187.5 283,-168.5 164,-168.5"/>
<text text-anchor="middle" x="223.5" y="-175.5" font-family="'Consolas',monospace" font-size="10.00">jngl/TextLine.hpp</text>
</a>
</g>
</g>
<!-- Node2&#45;&gt;Node8 -->
<g id="edge10" class="edge">
<title>Node2&#45;&gt;Node8</title>
<path fill="none" stroke="midnightblue" d="M223.5,-213.8C223.5,-204.91 223.5,-194.78 223.5,-187.75"/>
<polygon fill="midnightblue" stroke="midnightblue" points="220,-214.08 223.5,-224.08 227,-214.08 220,-214.08"/>
</g>
<!-- Node4 -->
<g id="node4" class="node">
<title>Node4</title>
<g id="a_node4"><a xlink:href="jngl_8hpp.html" target="_top" xlink:title="Includes jngl/all.hpp.">
<polygon fill="white" stroke="black" points="386,-0.5 386,-19.5 451,-19.5 451,-0.5 386,-0.5"/>
<text text-anchor="middle" x="418.5" y="-7.5" font-family="'Consolas',monospace" font-size="10.00">jngl.hpp</text>
</a>
</g>
</g>
<!-- Node3&#45;&gt;Node4 -->
<g id="edge3" class="edge">
<title>Node3&#45;&gt;Node4</title>
<path fill="none" stroke="midnightblue" d="M418.5,-45.8C418.5,-36.91 418.5,-26.78 418.5,-19.75"/>
<polygon fill="midnightblue" stroke="midnightblue" points="415,-46.08 418.5,-56.08 422,-46.08 415,-46.08"/>
</g>
<!-- Node5&#45;&gt;Node3 -->
<g id="edge5" class="edge">
<title>Node5&#45;&gt;Node3</title>
<path fill="none" stroke="midnightblue" d="M66.18,-159.98C78.52,-144.77 98.71,-123.2 121.5,-112 165.03,-90.62 302.09,-76.55 373.79,-70.46"/>
<polygon fill="midnightblue" stroke="midnightblue" points="63.25,-158.05 59.86,-168.08 68.77,-162.35 63.25,-158.05"/>
</g>
<!-- Node6&#45;&gt;Node3 -->
<g id="edge7" class="edge">
<title>Node6&#45;&gt;Node3</title>
<path fill="none" stroke="midnightblue" d="M297.75,-165.86C261.22,-155.43 221.6,-137.6 241.5,-112 257.61,-91.29 326.86,-78.55 373.82,-72.13"/>
<polygon fill="midnightblue" stroke="midnightblue" points="296.86,-169.25 307.43,-168.48 298.69,-162.49 296.86,-169.25"/>
</g>
<!-- Node7 -->
<g id="node7" class="node">
<title>Node7</title>
<g id="a_node7"><a xlink:href="Label_8hpp.html" target="_top" xlink:title="Contains jngl::Label class.">
<polygon fill="white" stroke="black" points="251,-112.5 251,-131.5 352,-131.5 352,-112.5 251,-112.5"/>
<text text-anchor="middle" x="301.5" y="-119.5" font-family="'Consolas',monospace" font-size="10.00">jngl/Label.hpp</text>
</a>
</g>
</g>
<!-- Node6&#45;&gt;Node7 -->
<g id="edge8" class="edge">
<title>Node6&#45;&gt;Node7</title>
<path fill="none" stroke="midnightblue" d="M334.08,-160.43C325.84,-150.97 315.85,-139.48 309.12,-131.75"/>
<polygon fill="midnightblue" stroke="midnightblue" points="331.53,-162.84 340.74,-168.08 336.81,-158.24 331.53,-162.84"/>
</g>
<!-- Node7&#45;&gt;Node3 -->
<g id="edge9" class="edge">
<title>Node7&#45;&gt;Node3</title>
<path fill="none" stroke="midnightblue" d="M329.16,-108.23C351.05,-98.13 381,-84.31 400.05,-75.52"/>
<polygon fill="midnightblue" stroke="midnightblue" points="327.65,-105.08 320.04,-112.44 330.59,-111.43 327.65,-105.08"/>
</g>
<!-- Node8&#45;&gt;Node3 -->
<g id="edge11" class="edge">
<title>Node8&#45;&gt;Node3</title>
<path fill="none" stroke="midnightblue" d="M220.86,-157.9C220,-143.52 221.4,-124.26 232.5,-112 251.17,-91.37 325.04,-78.47 373.88,-72.02"/>
<polygon fill="midnightblue" stroke="midnightblue" points="217.41,-158.56 221.9,-168.16 224.37,-157.85 217.41,-158.56"/>
</g>
<!-- Node8&#45;&gt;Node7 -->
<g id="edge12" class="edge">
<title>Node8&#45;&gt;Node7</title>
<path fill="none" stroke="midnightblue" d="M244.27,-162.62C258.52,-152.76 276.96,-139.99 289,-131.65"/>
<polygon fill="midnightblue" stroke="midnightblue" points="242.26,-159.75 236.03,-168.32 246.25,-165.51 242.26,-159.75"/>
</g>
<!-- Node9&#45;&gt;Node3 -->
<g id="edge14" class="edge">
<title>Node9&#45;&gt;Node3</title>
<path fill="none" stroke="midnightblue" d="M444.44,-103.86C437.86,-94.5 429.99,-83.33 424.66,-75.75"/>
<polygon fill="midnightblue" stroke="midnightblue" points="441.61,-105.92 450.23,-112.08 447.33,-101.89 441.61,-105.92"/>
</g>
<!-- Node10&#45;&gt;Node3 -->
<g id="edge16" class="edge">
<title>Node10&#45;&gt;Node3</title>
<path fill="none" stroke="midnightblue" d="M550.9,-109.3C519.05,-99.13 473.66,-84.62 445.15,-75.52"/>
<polygon fill="midnightblue" stroke="midnightblue" points="550.13,-112.73 560.72,-112.44 552.26,-106.07 550.13,-112.73"/>
</g>
<!-- Node11&#45;&gt;Node3 -->
<g id="edge18" class="edge">
<title>Node11&#45;&gt;Node3</title>
<path fill="none" stroke="midnightblue" d="M674.64,-158.13C675.17,-143.58 673.29,-123.97 661.5,-112 634.45,-84.52 525.58,-73.45 463.13,-69.29"/>
<polygon fill="midnightblue" stroke="midnightblue" points="671.12,-158.24 673.83,-168.48 678.1,-158.78 671.12,-158.24"/>
</g>
<!-- Node12 -->
<g id="node12" class="node">
<title>Node12</title>
<g id="a_node12"><a xlink:href="Controller_8hpp.html" target="_top" xlink:title="Contains jngl::Controller class.">
<polygon fill="white" stroke="black" points="710,-112.5 710,-131.5 841,-131.5 841,-112.5 710,-112.5"/>
<text text-anchor="middle" x="775.5" y="-119.5" font-family="'Consolas',monospace" font-size="10.00">jngl/Controller.hpp</text>
</a>
</g>
</g>
<!-- Node11&#45;&gt;Node12 -->
<g id="edge19" class="edge">
<title>Node11&#45;&gt;Node12</title>
<path fill="none" stroke="midnightblue" d="M698.08,-163.59C717.12,-153.61 742.56,-140.27 758.99,-131.65"/>
<polygon fill="midnightblue" stroke="midnightblue" points="696.28,-160.58 689.05,-168.32 699.53,-166.78 696.28,-160.58"/>
</g>
<!-- Node12&#45;&gt;Node3 -->
<g id="edge20" class="edge">
<title>Node12&#45;&gt;Node3</title>
<path fill="none" stroke="midnightblue" d="M708.65,-110.89C636.92,-100.04 525.01,-83.11 463.23,-73.77"/>
<polygon fill="midnightblue" stroke="midnightblue" points="708.52,-114.41 718.93,-112.44 709.57,-107.49 708.52,-114.41"/>
</g>
<!-- Node13&#45;&gt;Node3 -->
<g id="edge22" class="edge">
<title>Node13&#45;&gt;Node3</title>
<path fill="none" stroke="midnightblue" d="M810.8,-219.52C823.29,-212.04 836.84,-201.5 844.5,-188 861.2,-158.56 872.16,-137.15 849.5,-112 823.97,-83.67 568.54,-71.99 463.37,-68.35"/>
<polygon fill="midnightblue" stroke="midnightblue" points="809.03,-216.5 801.99,-224.42 812.43,-222.61 809.03,-216.5"/>
</g>
<!-- Node14 -->
<g id="node14" class="node">
<title>Node14</title>
<g id="a_node14"><a xlink:href="init_8hpp.html" target="_top" xlink:title="Include this file only once, as it defines the main function.">
<polygon fill="white" stroke="black" points="741,-168.5 741,-187.5 836,-187.5 836,-168.5 741,-168.5"/>
<text text-anchor="middle" x="788.5" y="-175.5" font-family="'Consolas',monospace" font-size="10.00">jngl/init.hpp</text>
</a>
</g>
</g>
<!-- Node13&#45;&gt;Node14 -->
<g id="edge23" class="edge">
<title>Node13&#45;&gt;Node14</title>
<path fill="none" stroke="midnightblue" d="M784.6,-214.1C785.6,-205.14 786.74,-194.86 787.53,-187.75"/>
<polygon fill="midnightblue" stroke="midnightblue" points="781.12,-213.76 783.49,-224.08 788.07,-214.53 781.12,-213.76"/>
</g>
<!-- Node15&#45;&gt;Node3 -->
<g id="edge25" class="edge">
<title>Node15&#45;&gt;Node3</title>
<path fill="none" stroke="midnightblue" d="M907.57,-214.07C906.56,-186.81 900.29,-137.05 869.5,-112 838.41,-86.7 571.12,-73.17 463.31,-68.7"/>
<polygon fill="midnightblue" stroke="midnightblue" points="904.08,-214.29 907.74,-224.23 911.08,-214.17 904.08,-214.29"/>
</g>
<!-- Node16&#45;&gt;Node3 -->
<g id="edge28" class="edge">
<title>Node16&#45;&gt;Node3</title>
<path fill="none" stroke="midnightblue" d="M434.91,-163.9C421.4,-156.65 407.12,-146.18 399.5,-132 389.48,-113.36 402.95,-88.8 411.82,-75.86"/>
<polygon fill="midnightblue" stroke="midnightblue" points="433.53,-167.12 444.05,-168.41 436.63,-160.84 433.53,-167.12"/>
</g>
<!-- Node16&#45;&gt;Node7 -->
<g id="edge29" class="edge">
<title>Node16&#45;&gt;Node7</title>
<path fill="none" stroke="midnightblue" d="M431.55,-165.3C400.27,-155.13 355.68,-140.62 327.68,-131.52"/>
<polygon fill="midnightblue" stroke="midnightblue" points="430.6,-168.68 441.2,-168.44 432.77,-162.02 430.6,-168.68"/>
</g>
</g>
</svg>
