<?xml version="1.0" encoding="UTF-8" standalone="no"?>
<!DOCTYPE svg PUBLIC "-//W3C//DTD SVG 1.1//EN"
 "http://www.w3.org/Graphics/SVG/1.1/DTD/svg11.dtd">
<!-- Generated by graphviz version 2.40.1 (0)
 -->
<!-- Title: jngl/Vec2.hpp Pages: 1 -->
<svg width="560pt" height="252pt"
 viewBox="0.00 0.00 559.50 252.00" xmlns="http://www.w3.org/2000/svg" xmlns:xlink="http://www.w3.org/1999/xlink">
<g id="graph0" class="graph" transform="scale(1 1) rotate(0) translate(4 248)">
<title>jngl/Vec2.hpp</title>
<polygon fill="#ffffff" stroke="transparent" points="-4,4 -4,-248 555.5,-248 555.5,4 -4,4"/>
<!-- Node4 -->
<g id="node1" class="node">
<title>Node4</title>
<polygon fill="#bfbfbf" stroke="#000000" points="221,-224.5 221,-243.5 301,-243.5 301,-224.5 221,-224.5"/>
<text text-anchor="middle" x="261" y="-231.5" font-family="Lato" font-size="10.00" fill="#000000">jngl/Vec2.hpp</text>
</g>
<!-- Node5 -->
<g id="node2" class="node">
<title>Node5</title>
<g id="a_node2"><a xlink:href="Vertex_8hpp_source.html" target="_top" xlink:title="jngl/Vertex.hpp">
<polygon fill="#ffffff" stroke="#000000" points="0,-112.5 0,-131.5 86,-131.5 86,-112.5 0,-112.5"/>
<text text-anchor="middle" x="43" y="-119.5" font-family="Lato" font-size="10.00" fill="#000000">jngl/Vertex.hpp</text>
</a>
</g>
</g>
<!-- Node4&#45;&gt;Node5 -->
<g id="edge1" class="edge">
<title>Node4&#45;&gt;Node5</title>
<path fill="none" stroke="#191970" d="M210.9271,-225.5527C179.713,-218.7358 139.6155,-207.0608 108,-188 82.9335,-172.8876 60.6553,-145.9046 49.8703,-131.5678"/>
<polygon fill="#191970" stroke="#191970" points="210.2231,-228.9812 220.7274,-227.5985 211.6536,-222.1289 210.2231,-228.9812"/>
</g>
<!-- Node8 -->
<g id="node5" class="node">
<title>Node8</title>
<g id="a_node5"><a xlink:href="input_8hpp.html" target="_top" xlink:title="jngl/input.hpp">
<polygon fill="#ffffff" stroke="#000000" points="117.5,-168.5 117.5,-187.5 196.5,-187.5 196.5,-168.5 117.5,-168.5"/>
<text text-anchor="middle" x="157" y="-175.5" font-family="Lato" font-size="10.00" fill="#000000">jngl/input.hpp</text>
</a>
</g>
</g>
<!-- Node4&#45;&gt;Node8 -->
<g id="edge4" class="edge">
<title>Node4&#45;&gt;Node8</title>
<path fill="none" stroke="#191970" d="M233.9971,-219.46C215.3864,-209.4388 191.1701,-196.3993 174.9078,-187.6427"/>
<polygon fill="#191970" stroke="#191970" points="232.4205,-222.5861 242.8846,-224.2455 235.7392,-216.4228 232.4205,-222.5861"/>
</g>
<!-- Node10 -->
<g id="node7" class="node">
<title>Node10</title>
<g id="a_node7"><a xlink:href="font_8hpp_source.html" target="_top" xlink:title="jngl/font.hpp">
<polygon fill="#ffffff" stroke="#000000" points="260.5,-112.5 260.5,-131.5 335.5,-131.5 335.5,-112.5 260.5,-112.5"/>
<text text-anchor="middle" x="298" y="-119.5" font-family="Lato" font-size="10.00" fill="#000000">jngl/font.hpp</text>
</a>
</g>
</g>
<!-- Node4&#45;&gt;Node10 -->
<g id="edge8" class="edge">
<title>Node4&#45;&gt;Node10</title>
<path fill="none" stroke="#191970" d="M249.645,-215.3596C242.9253,-201.7939 236.9745,-183.2137 244,-168 251.3833,-152.0115 267.3676,-139.5319 280.0401,-131.6299"/>
<polygon fill="#191970" stroke="#191970" points="246.6287,-217.1388 254.4993,-224.2314 252.7696,-213.7787 246.6287,-217.1388"/>
</g>
<!-- Node11 -->
<g id="node8" class="node">
<title>Node11</title>
<g id="a_node8"><a xlink:href="screen_8hpp.html" target="_top" xlink:title="jngl/screen.hpp">
<polygon fill="#ffffff" stroke="#000000" points="253,-168.5 253,-187.5 341,-187.5 341,-168.5 253,-168.5"/>
<text text-anchor="middle" x="297" y="-175.5" font-family="Lato" font-size="10.00" fill="#000000">jngl/screen.hpp</text>
</a>
</g>
</g>
<!-- Node4&#45;&gt;Node11 -->
<g id="edge10" class="edge">
<title>Node4&#45;&gt;Node11</title>
<path fill="none" stroke="#191970" d="M272.8096,-215.6296C278.8144,-206.2887 285.8659,-195.3197 290.8011,-187.6427"/>
<polygon fill="#191970" stroke="#191970" points="269.7342,-213.9411 267.2707,-224.2455 275.6225,-217.7264 269.7342,-213.9411"/>
</g>
<!-- Node12 -->
<g id="node9" class="node">
<title>Node12</title>
<g id="a_node9"><a xlink:href="shapes_8hpp_source.html" target="_top" xlink:title="jngl/shapes.hpp">
<polygon fill="#ffffff" stroke="#000000" points="359.5,-168.5 359.5,-187.5 448.5,-187.5 448.5,-168.5 359.5,-168.5"/>
<text text-anchor="middle" x="404" y="-175.5" font-family="Lato" font-size="10.00" fill="#000000">jngl/shapes.hpp</text>
</a>
</g>
</g>
<!-- Node4&#45;&gt;Node12 -->
<g id="edge12" class="edge">
<title>Node4&#45;&gt;Node12</title>
<path fill="none" stroke="#191970" d="M295.0798,-220.6541C321.1573,-210.4419 356.4815,-196.6086 379.7382,-187.5011"/>
<polygon fill="#191970" stroke="#191970" points="293.6178,-217.4677 285.5826,-224.3733 296.1703,-223.9858 293.6178,-217.4677"/>
</g>
<!-- Node13 -->
<g id="node10" class="node">
<title>Node13</title>
<g id="a_node10"><a xlink:href="sprite_8hpp_source.html" target="_top" xlink:title="jngl/sprite.hpp">
<polygon fill="#ffffff" stroke="#000000" points="466.5,-168.5 466.5,-187.5 549.5,-187.5 549.5,-168.5 466.5,-168.5"/>
<text text-anchor="middle" x="508" y="-175.5" font-family="Lato" font-size="10.00" fill="#000000">jngl/sprite.hpp</text>
</a>
</g>
</g>
<!-- Node4&#45;&gt;Node13 -->
<g id="edge14" class="edge">
<title>Node4&#45;&gt;Node13</title>
<path fill="none" stroke="#191970" d="M311.205,-222.6175C356.8144,-212.2769 423.322,-197.1983 466.1304,-187.4927"/>
<polygon fill="#191970" stroke="#191970" points="310.2131,-219.2535 301.2345,-224.878 311.7609,-226.0802 310.2131,-219.2535"/>
</g>
<!-- Node6 -->
<g id="node3" class="node">
<title>Node6</title>
<g id="a_node3"><a xlink:href="all_8hpp.html" target="_top" xlink:title="Includes all JNGL headers. ">
<polygon fill="#ffffff" stroke="#000000" points="298,-56.5 298,-75.5 364,-75.5 364,-56.5 298,-56.5"/>
<text text-anchor="middle" x="331" y="-63.5" font-family="Lato" font-size="10.00" fill="#000000">jngl/all.hpp</text>
</a>
</g>
</g>
<!-- Node5&#45;&gt;Node6 -->
<g id="edge2" class="edge">
<title>Node5&#45;&gt;Node6</title>
<path fill="none" stroke="#191970" d="M95.9934,-111.6957C154.9884,-100.2245 248.5142,-82.0389 297.9134,-72.4335"/>
<polygon fill="#191970" stroke="#191970" points="95.2646,-108.2718 86.1165,-113.6162 96.6007,-115.1431 95.2646,-108.2718"/>
</g>
<!-- Node7 -->
<g id="node4" class="node">
<title>Node7</title>
<g id="a_node4"><a xlink:href="jngl_8hpp_source.html" target="_top" xlink:title="jngl.hpp">
<polygon fill="#ffffff" stroke="#000000" points="305,-.5 305,-19.5 357,-19.5 357,-.5 305,-.5"/>
<text text-anchor="middle" x="331" y="-7.5" font-family="Lato" font-size="10.00" fill="#000000">jngl.hpp</text>
</a>
</g>
</g>
<!-- Node6&#45;&gt;Node7 -->
<g id="edge3" class="edge">
<title>Node6&#45;&gt;Node7</title>
<path fill="none" stroke="#191970" d="M331,-46.1575C331,-37.155 331,-26.9199 331,-19.6427"/>
<polygon fill="#191970" stroke="#191970" points="327.5001,-46.2455 331,-56.2455 334.5001,-46.2456 327.5001,-46.2455"/>
</g>
<!-- Node8&#45;&gt;Node6 -->
<g id="edge7" class="edge">
<title>Node8&#45;&gt;Node6</title>
<path fill="none" stroke="#191970" d="M141.6738,-160.0442C131.4737,-145.8218 121.8217,-126.073 133,-112 153.1938,-86.5769 246.6461,-73.9358 297.6157,-68.8362"/>
<polygon fill="#191970" stroke="#191970" points="139.0182,-162.3311 147.9143,-168.0853 144.5482,-158.0394 139.0182,-162.3311"/>
</g>
<!-- Node9 -->
<g id="node6" class="node">
<title>Node9</title>
<g id="a_node6"><a xlink:href="Controller_8hpp_source.html" target="_top" xlink:title="jngl/Controller.hpp">
<polygon fill="#ffffff" stroke="#000000" points="142,-112.5 142,-131.5 242,-131.5 242,-112.5 142,-112.5"/>
<text text-anchor="middle" x="192" y="-119.5" font-family="Lato" font-size="10.00" fill="#000000">jngl/Controller.hpp</text>
</a>
</g>
</g>
<!-- Node8&#45;&gt;Node9 -->
<g id="edge5" class="edge">
<title>Node8&#45;&gt;Node9</title>
<path fill="none" stroke="#191970" d="M168.4815,-159.6296C174.3196,-150.2887 181.1752,-139.3197 185.9733,-131.6427"/>
<polygon fill="#191970" stroke="#191970" points="165.4286,-157.9105 163.0965,-168.2455 171.3646,-161.6206 165.4286,-157.9105"/>
</g>
<!-- Node9&#45;&gt;Node6 -->
<g id="edge6" class="edge">
<title>Node9&#45;&gt;Node6</title>
<path fill="none" stroke="#191970" d="M225.4621,-108.5189C250.7769,-98.3201 284.9103,-84.5685 307.4169,-75.5011"/>
<polygon fill="#191970" stroke="#191970" points="223.8626,-105.3899 215.895,-112.3733 226.4784,-111.8827 223.8626,-105.3899"/>
</g>
<!-- Node10&#45;&gt;Node6 -->
<g id="edge9" class="edge">
<title>Node10&#45;&gt;Node6</title>
<path fill="none" stroke="#191970" d="M308.8254,-103.6296C314.3299,-94.2887 320.7937,-83.3197 325.3177,-75.6427"/>
<polygon fill="#191970" stroke="#191970" points="305.8097,-101.8532 303.7482,-112.2455 311.8405,-105.4071 305.8097,-101.8532"/>
</g>
<!-- Node11&#45;&gt;Node6 -->
<g id="edge11" class="edge">
<title>Node11&#45;&gt;Node6</title>
<path fill="none" stroke="#191970" d="M319.9497,-162.092C329.2686,-154.235 339.0022,-143.8847 344,-132 351.9677,-113.053 342.8353,-88.9628 336.3494,-75.7567"/>
<polygon fill="#191970" stroke="#191970" points="317.7043,-159.4049 311.9965,-168.3308 322.0248,-164.9126 317.7043,-159.4049"/>
</g>
<!-- Node12&#45;&gt;Node6 -->
<g id="edge13" class="edge">
<title>Node12&#45;&gt;Node6</title>
<path fill="none" stroke="#191970" d="M392.1979,-159.8927C376.5141,-135.8299 349.3708,-94.1853 337.2082,-75.5249"/>
<polygon fill="#191970" stroke="#191970" points="389.3835,-161.9845 397.7761,-168.4509 395.2478,-158.1622 389.3835,-161.9845"/>
</g>
<!-- Node13&#45;&gt;Node6 -->
<g id="edge15" class="edge">
<title>Node13&#45;&gt;Node6</title>
<path fill="none" stroke="#191970" d="M484.2632,-162.9801C447.2515,-139.5603 376.8478,-95.011 346.0527,-75.5249"/>
<polygon fill="#191970" stroke="#191970" points="482.5872,-166.0614 492.9091,-168.4509 486.3302,-160.1462 482.5872,-166.0614"/>
</g>
<!-- Node14 -->
<g id="node11" class="node">
<title>Node14</title>
<g id="a_node11"><a xlink:href="Video_8hpp_source.html" target="_top" xlink:title="jngl/Video.hpp">
<polygon fill="#ffffff" stroke="#000000" points="468.5,-112.5 468.5,-131.5 551.5,-131.5 551.5,-112.5 468.5,-112.5"/>
<text text-anchor="middle" x="510" y="-119.5" font-family="Lato" font-size="10.00" fill="#000000">jngl/Video.hpp</text>
</a>
</g>
</g>
<!-- Node13&#45;&gt;Node14 -->
<g id="edge16" class="edge">
<title>Node13&#45;&gt;Node14</title>
<path fill="none" stroke="#191970" d="M508.7087,-158.1575C509.0302,-149.155 509.3957,-138.9199 509.6556,-131.6427"/>
<polygon fill="#191970" stroke="#191970" points="505.2076,-158.127 508.3484,-168.2455 512.2032,-158.3769 505.2076,-158.127"/>
</g>
<!-- Node14&#45;&gt;Node6 -->
<g id="edge17" class="edge">
<title>Node14&#45;&gt;Node6</title>
<path fill="none" stroke="#191970" d="M469.4805,-109.3235C436.6534,-99.0536 391.1224,-84.8093 361.3697,-75.5011"/>
<polygon fill="#191970" stroke="#191970" points="468.6399,-112.7278 479.2288,-112.3733 470.73,-106.0471 468.6399,-112.7278"/>
</g>
</g>
</svg>
