<?xml version="1.0" encoding="UTF-8" standalone="no"?>
<!DOCTYPE svg PUBLIC "-//W3C//DTD SVG 1.1//EN"
 "http://www.w3.org/Graphics/SVG/1.1/DTD/svg11.dtd">
<!-- Generated by graphviz version 2.42.4 (0)
 -->
<!-- Title: jngl/Vec2.hpp Pages: 1 -->
<svg width="962pt" height="308pt"
 viewBox="0.00 0.00 962.00 308.00" xmlns="http://www.w3.org/2000/svg" xmlns:xlink="http://www.w3.org/1999/xlink">
<g id="graph0" class="graph" transform="scale(1 1) rotate(0) translate(4 304)">
<title>jngl/Vec2.hpp</title>
<polygon fill="white" stroke="transparent" points="-4,4 -4,-304 958,-304 958,4 -4,4"/>
<!-- Node1 -->
<g id="node1" class="node">
<title>Node1</title>
<g id="a_node1"><a xlink:title=" ">
<polygon fill="#bfbfbf" stroke="black" points="466,-280.5 466,-299.5 561,-299.5 561,-280.5 466,-280.5"/>
<text text-anchor="middle" x="513.5" y="-287.5" font-family="'Consolas',monospace" font-size="10.00">jngl/Vec2.hpp</text>
</a>
</g>
</g>
<!-- Node2 -->
<g id="node2" class="node">
<title>Node2</title>
<g id="a_node2"><a xlink:href="Drawable_8hpp.html" target="_top" xlink:title="Contains jngl::Drawable class.">
<polygon fill="white" stroke="black" points="105,-224.5 105,-243.5 224,-243.5 224,-224.5 105,-224.5"/>
<text text-anchor="middle" x="164.5" y="-231.5" font-family="'Consolas',monospace" font-size="10.00">jngl/Drawable.hpp</text>
</a>
</g>
</g>
<!-- Node1&#45;&gt;Node2 -->
<g id="edge1" class="edge">
<title>Node1&#45;&gt;Node2</title>
<path fill="none" stroke="midnightblue" d="M455.53,-280.03C389.92,-269.88 283.82,-253.46 219.47,-243.51"/>
<polygon fill="midnightblue" stroke="midnightblue" points="455.29,-283.53 465.7,-281.6 456.36,-276.62 455.29,-283.53"/>
</g>
<!-- Node5 -->
<g id="node5" class="node">
<title>Node5</title>
<g id="a_node5"><a xlink:href="sprite_8hpp.html" target="_top" xlink:title="Contains jngl::Sprite class and related functions.">
<polygon fill="white" stroke="black" points="190,-168.5 190,-187.5 297,-187.5 297,-168.5 190,-168.5"/>
<text text-anchor="middle" x="243.5" y="-175.5" font-family="'Consolas',monospace" font-size="10.00">jngl/sprite.hpp</text>
</a>
</g>
</g>
<!-- Node1&#45;&gt;Node5 -->
<g id="edge23" class="edge">
<title>Node1&#45;&gt;Node5</title>
<path fill="none" stroke="midnightblue" d="M482.04,-276.77C459.11,-267.8 427.32,-255.29 399.5,-244 350.56,-224.15 293.32,-200.08 263.64,-187.54"/>
<polygon fill="midnightblue" stroke="midnightblue" points="481.01,-280.12 491.6,-280.5 483.55,-273.6 481.01,-280.12"/>
</g>
<!-- Node8 -->
<g id="node8" class="node">
<title>Node8</title>
<g id="a_node8"><a xlink:href="font_8hpp.html" target="_top" xlink:title="Contains jngl::Font class and related functions.">
<polygon fill="white" stroke="black" points="310,-112.5 310,-131.5 405,-131.5 405,-112.5 310,-112.5"/>
<text text-anchor="middle" x="357.5" y="-119.5" font-family="'Consolas',monospace" font-size="10.00">jngl/font.hpp</text>
</a>
</g>
</g>
<!-- Node1&#45;&gt;Node8 -->
<g id="edge10" class="edge">
<title>Node1&#45;&gt;Node8</title>
<path fill="none" stroke="midnightblue" d="M498.14,-272.65C465.51,-237.94 390.3,-157.9 365.55,-131.57"/>
<polygon fill="midnightblue" stroke="midnightblue" points="495.71,-275.18 505.11,-280.08 500.82,-270.39 495.71,-275.18"/>
</g>
<!-- Node9 -->
<g id="node9" class="node">
<title>Node9</title>
<g id="a_node9"><a xlink:href="framebuffer_8hpp.html" target="_top" xlink:title="Contains jngl::FrameBuffer class.">
<polygon fill="white" stroke="black" points="423,-112.5 423,-131.5 554,-131.5 554,-112.5 423,-112.5"/>
<text text-anchor="middle" x="488.5" y="-119.5" font-family="'Consolas',monospace" font-size="10.00">jngl/framebuffer.hpp</text>
</a>
</g>
</g>
<!-- Node1&#45;&gt;Node9 -->
<g id="edge12" class="edge">
<title>Node1&#45;&gt;Node9</title>
<path fill="none" stroke="midnightblue" d="M510.63,-269.93C505.2,-233.92 493.66,-157.23 489.79,-131.57"/>
<polygon fill="midnightblue" stroke="midnightblue" points="507.21,-270.71 512.16,-280.08 514.13,-269.67 507.21,-270.71"/>
</g>
<!-- Node10 -->
<g id="node10" class="node">
<title>Node10</title>
<g id="a_node10"><a xlink:href="input_8hpp.html" target="_top" xlink:title="Input related functions.">
<polygon fill="white" stroke="black" points="581,-168.5 581,-187.5 682,-187.5 682,-168.5 581,-168.5"/>
<text text-anchor="middle" x="631.5" y="-175.5" font-family="'Consolas',monospace" font-size="10.00">jngl/input.hpp</text>
</a>
</g>
</g>
<!-- Node1&#45;&gt;Node10 -->
<g id="edge14" class="edge">
<title>Node1&#45;&gt;Node10</title>
<path fill="none" stroke="midnightblue" d="M530.11,-273.51C555.33,-250.01 602.42,-206.11 622.28,-187.59"/>
<polygon fill="midnightblue" stroke="midnightblue" points="527.69,-270.99 522.76,-280.37 532.46,-276.11 527.69,-270.99"/>
</g>
<!-- Node12 -->
<g id="node12" class="node">
<title>Node12</title>
<g id="a_node12"><a xlink:href="screen_8hpp.html" target="_top" xlink:title=" ">
<polygon fill="white" stroke="black" points="597,-224.5 597,-243.5 704,-243.5 704,-224.5 597,-224.5"/>
<text text-anchor="middle" x="650.5" y="-231.5" font-family="'Consolas',monospace" font-size="10.00">jngl/screen.hpp</text>
</a>
</g>
</g>
<!-- Node1&#45;&gt;Node12 -->
<g id="edge18" class="edge">
<title>Node1&#45;&gt;Node12</title>
<path fill="none" stroke="midnightblue" d="M544.52,-276.77C570.26,-266.63 606.19,-252.47 628.89,-243.52"/>
<polygon fill="midnightblue" stroke="midnightblue" points="543.23,-273.52 535.21,-280.44 545.79,-280.03 543.23,-273.52"/>
</g>
<!-- Node14 -->
<g id="node14" class="node">
<title>Node14</title>
<g id="a_node14"><a xlink:href="shapes_8hpp.html" target="_top" xlink:title="Functions for drawing shapes.">
<polygon fill="white" stroke="black" points="722,-224.5 722,-243.5 829,-243.5 829,-224.5 722,-224.5"/>
<text text-anchor="middle" x="775.5" y="-231.5" font-family="'Consolas',monospace" font-size="10.00">jngl/shapes.hpp</text>
</a>
</g>
</g>
<!-- Node1&#45;&gt;Node14 -->
<g id="edge21" class="edge">
<title>Node1&#45;&gt;Node14</title>
<path fill="none" stroke="midnightblue" d="M564.88,-278.41C614.4,-268.2 688.36,-252.96 734.18,-243.52"/>
<polygon fill="midnightblue" stroke="midnightblue" points="564.1,-275 555.01,-280.44 565.52,-281.85 564.1,-275"/>
</g>
<!-- Node15 -->
<g id="node15" class="node">
<title>Node15</title>
<g id="a_node15"><a xlink:href="Widget_8hpp_source.html" target="_top" xlink:title=" ">
<polygon fill="white" stroke="black" points="847,-224.5 847,-243.5 954,-243.5 954,-224.5 847,-224.5"/>
<text text-anchor="middle" x="900.5" y="-231.5" font-family="'Consolas',monospace" font-size="10.00">jngl/Widget.hpp</text>
</a>
</g>
</g>
<!-- Node1&#45;&gt;Node15 -->
<g id="edge24" class="edge">
<title>Node1&#45;&gt;Node15</title>
<path fill="none" stroke="midnightblue" d="M571.29,-281.04C636.1,-272.1 744.35,-257.12 837.5,-244 840.56,-243.57 843.71,-243.12 846.89,-242.67"/>
<polygon fill="midnightblue" stroke="midnightblue" points="570.7,-277.59 561.27,-282.42 571.65,-284.53 570.7,-277.59"/>
</g>
<!-- Node3 -->
<g id="node3" class="node">
<title>Node3</title>
<g id="a_node3"><a xlink:href="all_8hpp.html" target="_top" xlink:title="Includes all JNGL headers except for init.hpp.">
<polygon fill="white" stroke="black" points="444,-56.5 444,-75.5 533,-75.5 533,-56.5 444,-56.5"/>
<text text-anchor="middle" x="488.5" y="-63.5" font-family="'Consolas',monospace" font-size="10.00">jngl/all.hpp</text>
</a>
</g>
</g>
<!-- Node2&#45;&gt;Node3 -->
<g id="edge2" class="edge">
<title>Node2&#45;&gt;Node3</title>
<path fill="none" stroke="midnightblue" d="M153.57,-215.74C138.74,-189.92 116.89,-141.16 142.5,-112 162.11,-89.67 354.99,-75.13 443.96,-69.56"/>
<polygon fill="midnightblue" stroke="midnightblue" points="150.64,-217.66 158.79,-224.42 156.63,-214.05 150.64,-217.66"/>
</g>
<!-- Node2&#45;&gt;Node5 -->
<g id="edge4" class="edge">
<title>Node2&#45;&gt;Node5</title>
<path fill="none" stroke="midnightblue" d="M185.53,-218.62C199.97,-208.76 218.64,-195.99 230.84,-187.65"/>
<polygon fill="midnightblue" stroke="midnightblue" points="183.47,-215.79 177.19,-224.32 187.42,-221.57 183.47,-215.79"/>
</g>
<!-- Node7 -->
<g id="node7" class="node">
<title>Node7</title>
<g id="a_node7"><a xlink:href="text_8hpp.html" target="_top" xlink:title=" ">
<polygon fill="white" stroke="black" points="0,-168.5 0,-187.5 95,-187.5 95,-168.5 0,-168.5"/>
<text text-anchor="middle" x="47.5" y="-175.5" font-family="'Consolas',monospace" font-size="10.00">jngl/text.hpp</text>
</a>
</g>
</g>
<!-- Node2&#45;&gt;Node7 -->
<g id="edge8" class="edge">
<title>Node2&#45;&gt;Node7</title>
<path fill="none" stroke="midnightblue" d="M136.84,-220.23C114.95,-210.13 85,-196.31 65.95,-187.52"/>
<polygon fill="midnightblue" stroke="midnightblue" points="135.41,-223.43 145.96,-224.44 138.35,-217.08 135.41,-223.43"/>
</g>
<!-- Node4 -->
<g id="node4" class="node">
<title>Node4</title>
<g id="a_node4"><a xlink:href="jngl_8hpp.html" target="_top" xlink:title="Includes jngl/all.hpp.">
<polygon fill="white" stroke="black" points="456,-0.5 456,-19.5 521,-19.5 521,-0.5 456,-0.5"/>
<text text-anchor="middle" x="488.5" y="-7.5" font-family="'Consolas',monospace" font-size="10.00">jngl.hpp</text>
</a>
</g>
</g>
<!-- Node3&#45;&gt;Node4 -->
<g id="edge3" class="edge">
<title>Node3&#45;&gt;Node4</title>
<path fill="none" stroke="midnightblue" d="M488.5,-45.8C488.5,-36.91 488.5,-26.78 488.5,-19.75"/>
<polygon fill="midnightblue" stroke="midnightblue" points="485,-46.08 488.5,-56.08 492,-46.08 485,-46.08"/>
</g>
<!-- Node5&#45;&gt;Node3 -->
<g id="edge5" class="edge">
<title>Node5&#45;&gt;Node3</title>
<path fill="none" stroke="midnightblue" d="M254.29,-159.54C264.41,-144.65 280.89,-123.83 300.5,-112 344.75,-85.3 403.8,-74.44 443.82,-70.02"/>
<polygon fill="midnightblue" stroke="midnightblue" points="251.1,-158.02 248.59,-168.31 256.98,-161.83 251.1,-158.02"/>
</g>
<!-- Node6 -->
<g id="node6" class="node">
<title>Node6</title>
<g id="a_node6"><a xlink:href="Video_8hpp.html" target="_top" xlink:title=" ">
<polygon fill="white" stroke="black" points="152,-112.5 152,-131.5 253,-131.5 253,-112.5 152,-112.5"/>
<text text-anchor="middle" x="202.5" y="-119.5" font-family="'Consolas',monospace" font-size="10.00">jngl/Video.hpp</text>
</a>
</g>
</g>
<!-- Node5&#45;&gt;Node6 -->
<g id="edge6" class="edge">
<title>Node5&#45;&gt;Node6</title>
<path fill="none" stroke="midnightblue" d="M230.48,-159.86C223.38,-150.5 214.9,-139.33 209.14,-131.75"/>
<polygon fill="midnightblue" stroke="midnightblue" points="227.89,-162.24 236.73,-168.08 233.47,-158 227.89,-162.24"/>
</g>
<!-- Node6&#45;&gt;Node3 -->
<g id="edge7" class="edge">
<title>Node6&#45;&gt;Node3</title>
<path fill="none" stroke="midnightblue" d="M257.95,-110.53C312.17,-100.29 393.69,-84.9 443.87,-75.43"/>
<polygon fill="midnightblue" stroke="midnightblue" points="256.99,-107.15 247.82,-112.44 258.29,-114.03 256.99,-107.15"/>
</g>
<!-- Node7&#45;&gt;Node3 -->
<g id="edge9" class="edge">
<title>Node7&#45;&gt;Node3</title>
<path fill="none" stroke="midnightblue" d="M58.6,-159.88C69.55,-144.55 87.78,-122.86 109.5,-112 167.21,-83.15 356.45,-72.15 443.71,-68.54"/>
<polygon fill="midnightblue" stroke="midnightblue" points="55.49,-158.22 52.75,-168.45 61.28,-162.16 55.49,-158.22"/>
</g>
<!-- Node8&#45;&gt;Node3 -->
<g id="edge11" class="edge">
<title>Node8&#45;&gt;Node3</title>
<path fill="none" stroke="midnightblue" d="M387.82,-108.5C412.38,-98.38 446.32,-84.39 467.84,-75.52"/>
<polygon fill="midnightblue" stroke="midnightblue" points="386.17,-105.4 378.26,-112.44 388.84,-111.87 386.17,-105.4"/>
</g>
<!-- Node9&#45;&gt;Node3 -->
<g id="edge13" class="edge">
<title>Node9&#45;&gt;Node3</title>
<path fill="none" stroke="midnightblue" d="M488.5,-101.8C488.5,-92.91 488.5,-82.78 488.5,-75.75"/>
<polygon fill="midnightblue" stroke="midnightblue" points="485,-102.08 488.5,-112.08 492,-102.08 485,-102.08"/>
</g>
<!-- Node10&#45;&gt;Node3 -->
<g id="edge15" class="edge">
<title>Node10&#45;&gt;Node3</title>
<path fill="none" stroke="midnightblue" d="M667,-164.75C695.85,-152.87 729.12,-133.53 711.5,-112 689.43,-85.03 591.79,-73.86 533.27,-69.52"/>
<polygon fill="midnightblue" stroke="midnightblue" points="665.49,-161.58 657.46,-168.49 668.05,-168.1 665.49,-161.58"/>
</g>
<!-- Node11 -->
<g id="node11" class="node">
<title>Node11</title>
<g id="a_node11"><a xlink:href="Controller_8hpp.html" target="_top" xlink:title=" ">
<polygon fill="white" stroke="black" points="572,-112.5 572,-131.5 703,-131.5 703,-112.5 572,-112.5"/>
<text text-anchor="middle" x="637.5" y="-119.5" font-family="'Consolas',monospace" font-size="10.00">jngl/Controller.hpp</text>
</a>
</g>
</g>
<!-- Node10&#45;&gt;Node11 -->
<g id="edge16" class="edge">
<title>Node10&#45;&gt;Node11</title>
<path fill="none" stroke="midnightblue" d="M633.6,-158.1C634.6,-149.14 635.74,-138.86 636.53,-131.75"/>
<polygon fill="midnightblue" stroke="midnightblue" points="630.12,-157.76 632.49,-168.08 637.07,-158.53 630.12,-157.76"/>
</g>
<!-- Node11&#45;&gt;Node3 -->
<g id="edge17" class="edge">
<title>Node11&#45;&gt;Node3</title>
<path fill="none" stroke="midnightblue" d="M604.13,-108.91C576.12,-98.75 536.8,-84.51 512,-75.52"/>
<polygon fill="midnightblue" stroke="midnightblue" points="603.3,-112.33 613.89,-112.44 605.68,-105.75 603.3,-112.33"/>
</g>
<!-- Node12&#45;&gt;Node3 -->
<g id="edge19" class="edge">
<title>Node12&#45;&gt;Node3</title>
<path fill="none" stroke="midnightblue" d="M672.17,-218.31C704.35,-194.74 757.97,-147.51 728.5,-112 704.17,-82.68 595.68,-72.35 533.22,-68.8"/>
<polygon fill="midnightblue" stroke="midnightblue" points="669.87,-215.66 663.75,-224.31 673.93,-221.36 669.87,-215.66"/>
</g>
<!-- Node13 -->
<g id="node13" class="node">
<title>Node13</title>
<g id="a_node13"><a xlink:href="init_8hpp.html" target="_top" xlink:title="Include this file only once, as it defines the main function.">
<polygon fill="white" stroke="black" points="739,-168.5 739,-187.5 834,-187.5 834,-168.5 739,-168.5"/>
<text text-anchor="middle" x="786.5" y="-175.5" font-family="'Consolas',monospace" font-size="10.00">jngl/init.hpp</text>
</a>
</g>
</g>
<!-- Node12&#45;&gt;Node13 -->
<g id="edge20" class="edge">
<title>Node12&#45;&gt;Node13</title>
<path fill="none" stroke="midnightblue" d="M681.63,-220.64C707.16,-210.5 742.61,-196.43 765.05,-187.52"/>
<polygon fill="midnightblue" stroke="midnightblue" points="680.05,-217.5 672.05,-224.44 682.64,-224.01 680.05,-217.5"/>
</g>
<!-- Node14&#45;&gt;Node3 -->
<g id="edge22" class="edge">
<title>Node14&#45;&gt;Node3</title>
<path fill="none" stroke="midnightblue" d="M806.12,-219.93C829.09,-208.09 854.65,-189.27 842.5,-168 818.19,-125.44 793.5,-128.91 747.5,-112 675.32,-85.46 585.95,-74.36 533.29,-69.88"/>
<polygon fill="midnightblue" stroke="midnightblue" points="804.34,-216.9 796.87,-224.42 807.4,-223.2 804.34,-216.9"/>
</g>
<!-- Node15&#45;&gt;Node3 -->
<g id="edge25" class="edge">
<title>Node15&#45;&gt;Node3</title>
<path fill="none" stroke="midnightblue" d="M891.08,-215.3C874.99,-187.21 839.29,-133.44 791.5,-112 705.86,-73.57 594.28,-66.74 533.24,-66.21"/>
<polygon fill="midnightblue" stroke="midnightblue" points="888.19,-217.32 896.1,-224.37 894.32,-213.93 888.19,-217.32"/>
</g>
</g>
</svg>
