<?xml version="1.0" encoding="UTF-8" standalone="no"?>
<!DOCTYPE svg PUBLIC "-//W3C//DTD SVG 1.1//EN"
 "http://www.w3.org/Graphics/SVG/1.1/DTD/svg11.dtd">
<!-- Generated by graphviz version 2.42.4 (0)
 -->
<!-- Title: jngl/Vec2.hpp Pages: 1 -->
<svg width="782pt" height="308pt"
 viewBox="0.00 0.00 782.00 308.00" xmlns="http://www.w3.org/2000/svg" xmlns:xlink="http://www.w3.org/1999/xlink">
<g id="graph0" class="graph" transform="scale(1 1) rotate(0) translate(4 304)">
<title>jngl/Vec2.hpp</title>
<polygon fill="white" stroke="transparent" points="-4,4 -4,-304 778,-304 778,4 -4,4"/>
<!-- Node1 -->
<g id="node1" class="node">
<title>Node1</title>
<g id="a_node1"><a xlink:title=" ">
<polygon fill="#bfbfbf" stroke="black" points="428,-280.5 428,-299.5 523,-299.5 523,-280.5 428,-280.5"/>
<text text-anchor="middle" x="475.5" y="-287.5" font-family="'Consolas',monospace" font-size="10.00">jngl/Vec2.hpp</text>
</a>
</g>
</g>
<!-- Node2 -->
<g id="node2" class="node">
<title>Node2</title>
<g id="a_node2"><a xlink:href="input_8hpp.html" target="_top" xlink:title="Input related functions.">
<polygon fill="white" stroke="black" points="109,-168.5 109,-187.5 210,-187.5 210,-168.5 109,-168.5"/>
<text text-anchor="middle" x="159.5" y="-175.5" font-family="'Consolas',monospace" font-size="10.00">jngl/input.hpp</text>
</a>
</g>
</g>
<!-- Node1&#45;&gt;Node2 -->
<g id="edge1" class="edge">
<title>Node1&#45;&gt;Node2</title>
<path fill="none" stroke="midnightblue" d="M417.57,-283.89C371.38,-278.28 305.83,-266.84 252.5,-244 218.82,-229.58 184.99,-201.8 169,-187.69"/>
<polygon fill="midnightblue" stroke="midnightblue" points="417.36,-287.39 427.7,-285.06 418.17,-280.44 417.36,-287.39"/>
</g>
<!-- Node6 -->
<g id="node6" class="node">
<title>Node6</title>
<g id="a_node6"><a xlink:href="Drawable_8hpp.html" target="_top" xlink:title="Contains Drawable class.">
<polygon fill="white" stroke="black" points="262,-224.5 262,-243.5 381,-243.5 381,-224.5 262,-224.5"/>
<text text-anchor="middle" x="321.5" y="-231.5" font-family="'Consolas',monospace" font-size="10.00">jngl/Drawable.hpp</text>
</a>
</g>
</g>
<!-- Node1&#45;&gt;Node6 -->
<g id="edge6" class="edge">
<title>Node1&#45;&gt;Node6</title>
<path fill="none" stroke="midnightblue" d="M441.39,-277.04C412.41,-266.88 371.54,-252.55 345.79,-243.52"/>
<polygon fill="midnightblue" stroke="midnightblue" points="440.5,-280.44 451.1,-280.44 442.82,-273.83 440.5,-280.44"/>
</g>
<!-- Node7 -->
<g id="node7" class="node">
<title>Node7</title>
<g id="a_node7"><a xlink:href="sprite_8hpp_source.html" target="_top" xlink:title=" ">
<polygon fill="white" stroke="black" points="340,-168.5 340,-187.5 447,-187.5 447,-168.5 340,-168.5"/>
<text text-anchor="middle" x="393.5" y="-175.5" font-family="'Consolas',monospace" font-size="10.00">jngl/sprite.hpp</text>
</a>
</g>
</g>
<!-- Node1&#45;&gt;Node7 -->
<g id="edge14" class="edge">
<title>Node1&#45;&gt;Node7</title>
<path fill="none" stroke="midnightblue" d="M463.03,-272.27C445.3,-248.49 413.47,-205.79 399.9,-187.59"/>
<polygon fill="midnightblue" stroke="midnightblue" points="460.28,-274.44 469.07,-280.37 465.9,-270.26 460.28,-274.44"/>
</g>
<!-- Node10 -->
<g id="node10" class="node">
<title>Node10</title>
<g id="a_node10"><a xlink:href="font_8hpp.html" target="_top" xlink:title=" ">
<polygon fill="white" stroke="black" points="497,-112.5 497,-131.5 592,-131.5 592,-112.5 497,-112.5"/>
<text text-anchor="middle" x="544.5" y="-119.5" font-family="'Consolas',monospace" font-size="10.00">jngl/font.hpp</text>
</a>
</g>
</g>
<!-- Node1&#45;&gt;Node10 -->
<g id="edge15" class="edge">
<title>Node1&#45;&gt;Node10</title>
<path fill="none" stroke="midnightblue" d="M474.68,-270.25C474.39,-245.37 476.74,-200.76 494.5,-168 502.96,-152.4 519,-139.46 530.64,-131.52"/>
<polygon fill="midnightblue" stroke="midnightblue" points="471.18,-270.57 474.96,-280.47 478.18,-270.37 471.18,-270.57"/>
</g>
<!-- Node11 -->
<g id="node11" class="node">
<title>Node11</title>
<g id="a_node11"><a xlink:href="framebuffer_8hpp.html" target="_top" xlink:title="Contains FrameBuffer class.">
<polygon fill="white" stroke="black" points="504,-168.5 504,-187.5 635,-187.5 635,-168.5 504,-168.5"/>
<text text-anchor="middle" x="569.5" y="-175.5" font-family="'Consolas',monospace" font-size="10.00">jngl/framebuffer.hpp</text>
</a>
</g>
</g>
<!-- Node1&#45;&gt;Node11 -->
<g id="edge17" class="edge">
<title>Node1&#45;&gt;Node11</title>
<path fill="none" stroke="midnightblue" d="M489.53,-272.59C509.79,-248.87 546.54,-205.87 562.16,-187.59"/>
<polygon fill="midnightblue" stroke="midnightblue" points="486.71,-270.49 482.88,-280.37 492.03,-275.04 486.71,-270.49"/>
</g>
<!-- Node12 -->
<g id="node12" class="node">
<title>Node12</title>
<g id="a_node12"><a xlink:href="screen_8hpp.html" target="_top" xlink:title=" ">
<polygon fill="white" stroke="black" points="542,-224.5 542,-243.5 649,-243.5 649,-224.5 542,-224.5"/>
<text text-anchor="middle" x="595.5" y="-231.5" font-family="'Consolas',monospace" font-size="10.00">jngl/screen.hpp</text>
</a>
</g>
</g>
<!-- Node1&#45;&gt;Node12 -->
<g id="edge19" class="edge">
<title>Node1&#45;&gt;Node12</title>
<path fill="none" stroke="midnightblue" d="M503.87,-276.23C526.32,-266.13 557.04,-252.31 576.57,-243.52"/>
<polygon fill="midnightblue" stroke="midnightblue" points="502.2,-273.15 494.51,-280.44 505.07,-279.53 502.2,-273.15"/>
</g>
<!-- Node13 -->
<g id="node13" class="node">
<title>Node13</title>
<g id="a_node13"><a xlink:href="shapes_8hpp.html" target="_top" xlink:title="Functions for drawing shapes.">
<polygon fill="white" stroke="black" points="667,-224.5 667,-243.5 774,-243.5 774,-224.5 667,-224.5"/>
<text text-anchor="middle" x="720.5" y="-231.5" font-family="'Consolas',monospace" font-size="10.00">jngl/shapes.hpp</text>
</a>
</g>
</g>
<!-- Node1&#45;&gt;Node13 -->
<g id="edge21" class="edge">
<title>Node1&#45;&gt;Node13</title>
<path fill="none" stroke="midnightblue" d="M524.13,-278.28C570.43,-268.08 639.19,-252.92 681.86,-243.52"/>
<polygon fill="midnightblue" stroke="midnightblue" points="523.33,-274.87 514.32,-280.44 524.84,-281.71 523.33,-274.87"/>
</g>
<!-- Node3 -->
<g id="node3" class="node">
<title>Node3</title>
<g id="a_node3"><a xlink:href="Controller_8hpp.html" target="_top" xlink:title=" ">
<polygon fill="white" stroke="black" points="0,-112.5 0,-131.5 131,-131.5 131,-112.5 0,-112.5"/>
<text text-anchor="middle" x="65.5" y="-119.5" font-family="'Consolas',monospace" font-size="10.00">jngl/Controller.hpp</text>
</a>
</g>
</g>
<!-- Node2&#45;&gt;Node3 -->
<g id="edge2" class="edge">
<title>Node2&#45;&gt;Node3</title>
<path fill="none" stroke="midnightblue" d="M135.44,-163.18C118.14,-153.24 95.35,-140.15 80.57,-131.65"/>
<polygon fill="midnightblue" stroke="midnightblue" points="133.98,-166.38 144.4,-168.32 137.47,-160.31 133.98,-166.38"/>
</g>
<!-- Node4 -->
<g id="node4" class="node">
<title>Node4</title>
<g id="a_node4"><a xlink:href="all_8hpp.html" target="_top" xlink:title="Includes all JNGL headers.">
<polygon fill="white" stroke="black" points="344,-56.5 344,-75.5 433,-75.5 433,-56.5 344,-56.5"/>
<text text-anchor="middle" x="388.5" y="-63.5" font-family="'Consolas',monospace" font-size="10.00">jngl/all.hpp</text>
</a>
</g>
</g>
<!-- Node2&#45;&gt;Node4 -->
<g id="edge5" class="edge">
<title>Node2&#45;&gt;Node4</title>
<path fill="none" stroke="midnightblue" d="M160.02,-158.01C161.47,-143.39 165.86,-123.75 178.5,-112 202.06,-90.11 289.22,-77.29 343.57,-71.25"/>
<polygon fill="midnightblue" stroke="midnightblue" points="156.5,-158.22 159.39,-168.42 163.49,-158.65 156.5,-158.22"/>
</g>
<!-- Node3&#45;&gt;Node4 -->
<g id="edge3" class="edge">
<title>Node3&#45;&gt;Node4</title>
<path fill="none" stroke="midnightblue" d="M126.93,-110.73C190.24,-100.15 287.43,-83.9 343.8,-74.47"/>
<polygon fill="midnightblue" stroke="midnightblue" points="125.97,-107.34 116.68,-112.44 127.12,-114.25 125.97,-107.34"/>
</g>
<!-- Node5 -->
<g id="node5" class="node">
<title>Node5</title>
<g id="a_node5"><a xlink:href="jngl_8hpp_source.html" target="_top" xlink:title=" ">
<polygon fill="white" stroke="black" points="356,-0.5 356,-19.5 421,-19.5 421,-0.5 356,-0.5"/>
<text text-anchor="middle" x="388.5" y="-7.5" font-family="'Consolas',monospace" font-size="10.00">jngl.hpp</text>
</a>
</g>
</g>
<!-- Node4&#45;&gt;Node5 -->
<g id="edge4" class="edge">
<title>Node4&#45;&gt;Node5</title>
<path fill="none" stroke="midnightblue" d="M388.5,-45.8C388.5,-36.91 388.5,-26.78 388.5,-19.75"/>
<polygon fill="midnightblue" stroke="midnightblue" points="385,-46.08 388.5,-56.08 392,-46.08 385,-46.08"/>
</g>
<!-- Node6&#45;&gt;Node4 -->
<g id="edge7" class="edge">
<title>Node6&#45;&gt;Node4</title>
<path fill="none" stroke="midnightblue" d="M322.21,-214.13C323.16,-200.92 325.37,-183.01 330.5,-168 343.12,-131.07 369.68,-92.42 381.98,-75.63"/>
<polygon fill="midnightblue" stroke="midnightblue" points="318.7,-214.17 321.65,-224.35 325.69,-214.55 318.7,-214.17"/>
</g>
<!-- Node6&#45;&gt;Node7 -->
<g id="edge8" class="edge">
<title>Node6&#45;&gt;Node7</title>
<path fill="none" stroke="midnightblue" d="M341.37,-218.1C354.32,-208.38 370.8,-196.03 381.72,-187.83"/>
<polygon fill="midnightblue" stroke="midnightblue" points="338.97,-215.52 333.07,-224.32 343.17,-221.12 338.97,-215.52"/>
</g>
<!-- Node9 -->
<g id="node9" class="node">
<title>Node9</title>
<g id="a_node9"><a xlink:href="text_8hpp.html" target="_top" xlink:title=" ">
<polygon fill="white" stroke="black" points="188,-112.5 188,-131.5 283,-131.5 283,-112.5 188,-112.5"/>
<text text-anchor="middle" x="235.5" y="-119.5" font-family="'Consolas',monospace" font-size="10.00">jngl/text.hpp</text>
</a>
</g>
</g>
<!-- Node6&#45;&gt;Node9 -->
<g id="edge12" class="edge">
<title>Node6&#45;&gt;Node9</title>
<path fill="none" stroke="midnightblue" d="M308.42,-216.27C289.83,-192.49 256.44,-149.79 242.22,-131.59"/>
<polygon fill="midnightblue" stroke="midnightblue" points="305.84,-218.65 314.75,-224.37 311.35,-214.33 305.84,-218.65"/>
</g>
<!-- Node7&#45;&gt;Node4 -->
<g id="edge11" class="edge">
<title>Node7&#45;&gt;Node4</title>
<path fill="none" stroke="midnightblue" d="M381.26,-159.83C376.25,-151.79 371.05,-141.82 368.5,-132 363.23,-111.66 374.96,-88.18 382.59,-75.76"/>
<polygon fill="midnightblue" stroke="midnightblue" points="378.42,-161.89 386.87,-168.27 384.25,-158.01 378.42,-161.89"/>
</g>
<!-- Node8 -->
<g id="node8" class="node">
<title>Node8</title>
<g id="a_node8"><a xlink:href="Video_8hpp.html" target="_top" xlink:title=" ">
<polygon fill="white" stroke="black" points="378,-112.5 378,-131.5 479,-131.5 479,-112.5 378,-112.5"/>
<text text-anchor="middle" x="428.5" y="-119.5" font-family="'Consolas',monospace" font-size="10.00">jngl/Video.hpp</text>
</a>
</g>
</g>
<!-- Node7&#45;&gt;Node8 -->
<g id="edge9" class="edge">
<title>Node7&#45;&gt;Node8</title>
<path fill="none" stroke="midnightblue" d="M404.8,-159.57C410.82,-150.27 417.97,-139.25 422.83,-131.75"/>
<polygon fill="midnightblue" stroke="midnightblue" points="401.78,-157.79 399.28,-168.08 407.66,-161.6 401.78,-157.79"/>
</g>
<!-- Node8&#45;&gt;Node4 -->
<g id="edge10" class="edge">
<title>Node8&#45;&gt;Node4</title>
<path fill="none" stroke="midnightblue" d="M415.8,-103.86C408.87,-94.5 400.59,-83.33 394.98,-75.75"/>
<polygon fill="midnightblue" stroke="midnightblue" points="413.13,-106.13 421.89,-112.08 418.75,-101.96 413.13,-106.13"/>
</g>
<!-- Node9&#45;&gt;Node4 -->
<g id="edge13" class="edge">
<title>Node9&#45;&gt;Node4</title>
<path fill="none" stroke="midnightblue" d="M269.39,-109.04C298.18,-98.88 338.79,-84.55 364.37,-75.52"/>
<polygon fill="midnightblue" stroke="midnightblue" points="268.01,-105.81 259.74,-112.44 270.34,-112.42 268.01,-105.81"/>
</g>
<!-- Node10&#45;&gt;Node4 -->
<g id="edge16" class="edge">
<title>Node10&#45;&gt;Node4</title>
<path fill="none" stroke="midnightblue" d="M510.33,-109.17C480.96,-99 439.3,-84.59 413.1,-75.52"/>
<polygon fill="midnightblue" stroke="midnightblue" points="509.19,-112.48 519.78,-112.44 511.48,-105.86 509.19,-112.48"/>
</g>
<!-- Node11&#45;&gt;Node4 -->
<g id="edge18" class="edge">
<title>Node11&#45;&gt;Node4</title>
<path fill="none" stroke="midnightblue" d="M586.58,-160.88C599.27,-146.95 612.47,-126.78 600.5,-112 579.9,-86.56 489.36,-74.92 433.48,-70.06"/>
<polygon fill="midnightblue" stroke="midnightblue" points="583.84,-158.68 579.36,-168.28 588.85,-163.57 583.84,-158.68"/>
</g>
<!-- Node12&#45;&gt;Node4 -->
<g id="edge20" class="edge">
<title>Node12&#45;&gt;Node4</title>
<path fill="none" stroke="midnightblue" d="M618.14,-218.26C627.88,-210.54 638.23,-200.16 643.5,-188 657.69,-155.24 645.59,-134.03 617.5,-112 589.44,-90 491.73,-76.98 433.39,-70.99"/>
<polygon fill="midnightblue" stroke="midnightblue" points="615.86,-215.59 609.87,-224.33 620,-221.23 615.86,-215.59"/>
</g>
<!-- Node13&#45;&gt;Node4 -->
<g id="edge22" class="edge">
<title>Node13&#45;&gt;Node4</title>
<path fill="none" stroke="midnightblue" d="M714.19,-214.76C703.79,-187.64 680.35,-137.17 642.5,-112 608.89,-89.65 496.69,-76.47 433.23,-70.62"/>
<polygon fill="midnightblue" stroke="midnightblue" points="710.92,-216.03 717.64,-224.22 717.5,-213.62 710.92,-216.03"/>
</g>
</g>
</svg>
