<?xml version="1.0" encoding="UTF-8" standalone="no"?>
<!DOCTYPE svg PUBLIC "-//W3C//DTD SVG 1.1//EN"
 "http://www.w3.org/Graphics/SVG/1.1/DTD/svg11.dtd">
<!-- Generated by graphviz version 9.0.0 (20230911.1827)
 -->
<!-- Title: jngl/Vec2.hpp Pages: 1 -->
<svg width="1454pt" height="248pt"
 viewBox="0.00 0.00 1454.00 248.25" xmlns="http://www.w3.org/2000/svg" xmlns:xlink="http://www.w3.org/1999/xlink">
<g id="graph0" class="graph" transform="scale(1 1) rotate(0) translate(4 244.25)">
<title>jngl/Vec2.hpp</title>
<!-- Node1 -->
<g id="Node000001" class="node">
<title>Node1</title>
<g id="a_Node000001"><a xlink:title="Contains jngl::Vec2 class.">
<polygon fill="#999999" stroke="#666666" points="736,-240.25 642,-240.25 642,-221 736,-221 736,-240.25"/>
<text text-anchor="middle" x="689" y="-226.75" font-family="ui-monospace,monospace" font-size="10.00">jngl/Vec2.hpp</text>
</a>
</g>
</g>
<!-- Node2 -->
<g id="Node000002" class="node">
<title>Node2</title>
<g id="a_Node000002"><a xlink:href="AppParameters_8hpp.html" target="_top" xlink:title="Contains jngl::AppParameters struct.">
<polygon fill="white" stroke="#666666" points="148,-185 0,-185 0,-165.75 148,-165.75 148,-185"/>
<text text-anchor="middle" x="74" y="-171.5" font-family="ui-monospace,monospace" font-size="10.00">jngl/AppParameters.hpp</text>
</a>
</g>
</g>
<!-- Node1&#45;&gt;Node2 -->
<g id="edge1_Node000001_Node000002" class="edge">
<title>Node1&#45;&gt;Node2</title>
<g id="a_edge1_Node000001_Node000002"><a xlink:title=" ">
<path fill="none" stroke="#63b8ff" d="M630.07,-224.52C517.49,-214.77 272.06,-193.52 148.39,-182.82"/>
<polygon fill="#63b8ff" stroke="#63b8ff" points="629.74,-228.01 640,-225.38 630.34,-221.03 629.74,-228.01"/>
</a>
</g>
</g>
<!-- Node4 -->
<g id="Node000004" class="node">
<title>Node4</title>
<g id="a_Node000004"><a xlink:href="Drawable_8hpp.html" target="_top" xlink:title="Contains jngl::Drawable class.">
<polygon fill="white" stroke="#666666" points="381,-185 263,-185 263,-165.75 381,-165.75 381,-185"/>
<text text-anchor="middle" x="322" y="-171.5" font-family="ui-monospace,monospace" font-size="10.00">jngl/Drawable.hpp</text>
</a>
</g>
</g>
<!-- Node1&#45;&gt;Node4 -->
<g id="edge3_Node000001_Node000004" class="edge">
<title>Node1&#45;&gt;Node4</title>
<g id="a_edge3_Node000001_Node000004"><a xlink:title=" ">
<path fill="none" stroke="#63b8ff" d="M630.39,-221.12C562.16,-211.22 450.1,-194.96 381.5,-185.01"/>
<polygon fill="#63b8ff" stroke="#63b8ff" points="629.88,-224.58 640.27,-222.56 630.88,-217.66 629.88,-224.58"/>
</a>
</g>
</g>
<!-- Node6 -->
<g id="Node000006" class="node">
<title>Node6</title>
<g id="a_Node000006"><a xlink:href="Sprite_8hpp.html" target="_top" xlink:title="Contains jngl::Sprite class and related functions.">
<polygon fill="white" stroke="#666666" points="232,-129.75 126,-129.75 126,-110.5 232,-110.5 232,-129.75"/>
<text text-anchor="middle" x="179" y="-116.25" font-family="ui-monospace,monospace" font-size="10.00">jngl/Sprite.hpp</text>
</a>
</g>
</g>
<!-- Node1&#45;&gt;Node6 -->
<g id="edge15_Node000001_Node000006" class="edge">
<title>Node1&#45;&gt;Node6</title>
<g id="a_edge15_Node000001_Node000006"><a xlink:title=" ">
<path fill="none" stroke="#63b8ff" d="M630.28,-227.9C527.66,-224.19 320.3,-213.33 254,-185 224.75,-172.5 198.41,-144.44 186.19,-130.04"/>
<polygon fill="#63b8ff" stroke="#63b8ff" points="630.03,-231.4 640.15,-228.25 630.28,-224.4 630.03,-231.4"/>
</a>
</g>
</g>
<!-- Node9 -->
<g id="Node000009" class="node">
<title>Node9</title>
<g id="a_Node000009"><a xlink:href="FrameBuffer_8hpp.html" target="_top" xlink:title="Contains jngl::FrameBuffer class.">
<polygon fill="white" stroke="#666666" points="650,-74.5 520,-74.5 520,-55.25 650,-55.25 650,-74.5"/>
<text text-anchor="middle" x="585" y="-61" font-family="ui-monospace,monospace" font-size="10.00">jngl/FrameBuffer.hpp</text>
</a>
</g>
</g>
<!-- Node1&#45;&gt;Node9 -->
<g id="edge11_Node000001_Node000009" class="edge">
<title>Node1&#45;&gt;Node9</title>
<g id="a_edge11_Node000001_Node000009"><a xlink:title=" ">
<path fill="none" stroke="#63b8ff" d="M686.69,-209.57C682.92,-184.3 673.48,-140.53 651,-110.5 639.06,-94.55 619.67,-82.43 604.99,-74.87"/>
<polygon fill="#63b8ff" stroke="#63b8ff" points="683.18,-209.69 687.95,-219.15 690.12,-208.77 683.18,-209.69"/>
</a>
</g>
</g>
<!-- Node10 -->
<g id="Node000010" class="node">
<title>Node10</title>
<g id="a_Node000010"><a xlink:href="Rect_8hpp.html" target="_top" xlink:title="Contains jngl::Rect class.">
<polygon fill="white" stroke="#666666" points="762,-74.5 668,-74.5 668,-55.25 762,-55.25 762,-74.5"/>
<text text-anchor="middle" x="715" y="-61" font-family="ui-monospace,monospace" font-size="10.00">jngl/Rect.hpp</text>
</a>
</g>
</g>
<!-- Node1&#45;&gt;Node10 -->
<g id="edge13_Node000001_Node000010" class="edge">
<title>Node1&#45;&gt;Node10</title>
<g id="a_edge13_Node000001_Node000010"><a xlink:title=" ">
<path fill="none" stroke="#63b8ff" d="M692.2,-209.47C697.89,-173.61 709.57,-100.1 713.6,-74.72"/>
<polygon fill="#63b8ff" stroke="#63b8ff" points="688.75,-208.9 690.64,-219.33 695.66,-210 688.75,-208.9"/>
</a>
</g>
</g>
<!-- Node11 -->
<g id="Node000011" class="node">
<title>Node11</title>
<g id="a_Node000011"><a xlink:href="TextLine_8hpp.html" target="_top" xlink:title="Contains jngl::TextLine class.">
<polygon fill="white" stroke="#666666" points="518,-129.75 400,-129.75 400,-110.5 518,-110.5 518,-129.75"/>
<text text-anchor="middle" x="459" y="-116.25" font-family="ui-monospace,monospace" font-size="10.00">jngl/TextLine.hpp</text>
</a>
</g>
</g>
<!-- Node1&#45;&gt;Node11 -->
<g id="edge16_Node000001_Node000011" class="edge">
<title>Node1&#45;&gt;Node11</title>
<g id="a_edge16_Node000001_Node000011"><a xlink:title=" ">
<path fill="none" stroke="#63b8ff" d="M659.48,-215.7C611.67,-193.14 518.58,-149.23 478.32,-130.24"/>
<polygon fill="#63b8ff" stroke="#63b8ff" points="657.88,-218.81 668.42,-219.92 660.87,-212.48 657.88,-218.81"/>
</a>
</g>
</g>
<!-- Node12 -->
<g id="Node000012" class="node">
<title>Node12</title>
<g id="a_Node000012"><a xlink:href="Widget_8hpp.html" target="_top" xlink:title="Contains jngl::Container class.">
<polygon fill="white" stroke="#666666" points="642,-129.75 536,-129.75 536,-110.5 642,-110.5 642,-129.75"/>
<text text-anchor="middle" x="589" y="-116.25" font-family="ui-monospace,monospace" font-size="10.00">jngl/Widget.hpp</text>
</a>
</g>
</g>
<!-- Node1&#45;&gt;Node12 -->
<g id="edge19_Node000001_Node000012" class="edge">
<title>Node1&#45;&gt;Node12</title>
<g id="a_edge19_Node000001_Node000012"><a xlink:title=" ">
<path fill="none" stroke="#63b8ff" d="M673.19,-212.47C651.68,-189.13 613.95,-148.19 597.3,-130.13"/>
<polygon fill="#63b8ff" stroke="#63b8ff" points="670.44,-214.65 679.79,-219.63 675.59,-209.91 670.44,-214.65"/>
</a>
</g>
</g>
<!-- Node13 -->
<g id="Node000013" class="node">
<title>Node13</title>
<g id="a_Node000013"><a xlink:href="effects_8hpp.html" target="_top" xlink:title="Effects that can be applied to jngl::Widget.">
<polygon fill="white" stroke="#666666" points="842,-185 736,-185 736,-165.75 842,-165.75 842,-185"/>
<text text-anchor="middle" x="789" y="-171.5" font-family="ui-monospace,monospace" font-size="10.00">jngl/effects.hpp</text>
</a>
</g>
</g>
<!-- Node1&#45;&gt;Node13 -->
<g id="edge22_Node000001_Node000013" class="edge">
<title>Node1&#45;&gt;Node13</title>
<g id="a_edge22_Node000001_Node000013"><a xlink:title=" ">
<path fill="none" stroke="#63b8ff" d="M716.04,-215.23C733.85,-205.74 756.63,-193.61 771.95,-185.45"/>
<polygon fill="#63b8ff" stroke="#63b8ff" points="714.48,-212.09 707.3,-219.88 717.77,-218.27 714.48,-212.09"/>
</a>
</g>
</g>
<!-- Node14 -->
<g id="Node000014" class="node">
<title>Node14</title>
<g id="a_Node000014"><a xlink:href="font_8hpp.html" target="_top" xlink:title="Contains jngl::Font class and related functions.">
<polygon fill="white" stroke="#666666" points="917,-129.75 823,-129.75 823,-110.5 917,-110.5 917,-129.75"/>
<text text-anchor="middle" x="870" y="-116.25" font-family="ui-monospace,monospace" font-size="10.00">jngl/font.hpp</text>
</a>
</g>
</g>
<!-- Node1&#45;&gt;Node14 -->
<g id="edge24_Node000001_Node000014" class="edge">
<title>Node1&#45;&gt;Node14</title>
<g id="a_edge24_Node000001_Node000014"><a xlink:title=" ">
<path fill="none" stroke="#63b8ff" d="M747.49,-227.24C781.81,-222.83 823.67,-211.78 851,-185 866.21,-170.1 869.37,-143.62 869.94,-129.91"/>
<polygon fill="#63b8ff" stroke="#63b8ff" points="747.23,-223.75 737.68,-228.33 748.01,-230.71 747.23,-223.75"/>
</a>
</g>
</g>
<!-- Node16 -->
<g id="Node000016" class="node">
<title>Node16</title>
<g id="a_Node000016"><a xlink:href="input_8hpp.html" target="_top" xlink:title="Input related functions.">
<polygon fill="white" stroke="#666666" points="1214,-129.75 1114,-129.75 1114,-110.5 1214,-110.5 1214,-129.75"/>
<text text-anchor="middle" x="1164" y="-116.25" font-family="ui-monospace,monospace" font-size="10.00">jngl/input.hpp</text>
</a>
</g>
</g>
<!-- Node1&#45;&gt;Node16 -->
<g id="edge28_Node000001_Node000016" class="edge">
<title>Node1&#45;&gt;Node16</title>
<g id="a_edge28_Node000001_Node000016"><a xlink:title=" ">
<path fill="none" stroke="#63b8ff" d="M739.73,-218.04C834.8,-196.32 1037.98,-149.91 1124.1,-130.24"/>
<polygon fill="#63b8ff" stroke="#63b8ff" points="739.13,-214.58 730.16,-220.22 740.69,-221.41 739.13,-214.58"/>
</a>
</g>
</g>
<!-- Node19 -->
<g id="Node000019" class="node">
<title>Node19</title>
<g id="a_Node000019"><a xlink:href="screen_8hpp.html" target="_top" xlink:title=" ">
<polygon fill="white" stroke="#666666" points="1162,-185 1056,-185 1056,-165.75 1162,-165.75 1162,-185"/>
<text text-anchor="middle" x="1109" y="-171.5" font-family="ui-monospace,monospace" font-size="10.00">jngl/screen.hpp</text>
</a>
</g>
</g>
<!-- Node1&#45;&gt;Node19 -->
<g id="edge34_Node000001_Node000019" class="edge">
<title>Node1&#45;&gt;Node19</title>
<g id="a_edge34_Node000001_Node000019"><a xlink:title=" ">
<path fill="none" stroke="#63b8ff" d="M747.7,-222.18C829.52,-211.81 976.64,-193.16 1055.55,-183.15"/>
<polygon fill="#63b8ff" stroke="#63b8ff" points="747.34,-218.7 737.86,-223.43 748.23,-225.64 747.34,-218.7"/>
</a>
</g>
</g>
<!-- Node20 -->
<g id="Node000020" class="node">
<title>Node20</title>
<g id="a_Node000020"><a xlink:href="shapes_8hpp.html" target="_top" xlink:title="Functions for drawing shapes.">
<polygon fill="white" stroke="#666666" points="1446,-185 1340,-185 1340,-165.75 1446,-165.75 1446,-185"/>
<text text-anchor="middle" x="1393" y="-171.5" font-family="ui-monospace,monospace" font-size="10.00">jngl/shapes.hpp</text>
</a>
</g>
</g>
<!-- Node1&#45;&gt;Node20 -->
<g id="edge36_Node000001_Node000020" class="edge">
<title>Node1&#45;&gt;Node20</title>
<g id="a_edge36_Node000001_Node000020"><a xlink:title=" ">
<path fill="none" stroke="#63b8ff" d="M747.53,-225.2C881.87,-215.04 1210.69,-190.17 1339.76,-180.4"/>
<polygon fill="#63b8ff" stroke="#63b8ff" points="747.5,-221.69 737.79,-225.93 748.03,-228.67 747.5,-221.69"/>
</a>
</g>
</g>
<!-- Node3 -->
<g id="Node000003" class="node">
<title>Node3</title>
<g id="a_Node000003"><a xlink:href="init_8hpp.html" target="_top" xlink:title="Include this file only once, as it defines the main function.">
<polygon fill="white" stroke="#666666" points="108,-129.75 14,-129.75 14,-110.5 108,-110.5 108,-129.75"/>
<text text-anchor="middle" x="61" y="-116.25" font-family="ui-monospace,monospace" font-size="10.00">jngl/init.hpp</text>
</a>
</g>
</g>
<!-- Node2&#45;&gt;Node3 -->
<g id="edge2_Node000002_Node000003" class="edge">
<title>Node2&#45;&gt;Node3</title>
<g id="a_edge2_Node000002_Node000003"><a xlink:title=" ">
<path fill="none" stroke="#63b8ff" d="M69.13,-154.42C67.09,-146.05 64.81,-136.75 63.19,-130.11"/>
<polygon fill="#63b8ff" stroke="#63b8ff" points="65.72,-155.23 71.49,-164.11 72.52,-153.57 65.72,-155.23"/>
</a>
</g>
</g>
<!-- Node5 -->
<g id="Node000005" class="node">
<title>Node5</title>
<g id="a_Node000005"><a xlink:href="jngl_8hpp.html" target="_top" xlink:title="Includes all JNGL headers except for init.hpp.">
<polygon fill="white" stroke="#666666" points="784,-19.25 720,-19.25 720,0 784,0 784,-19.25"/>
<text text-anchor="middle" x="752" y="-5.75" font-family="ui-monospace,monospace" font-size="10.00">jngl.hpp</text>
</a>
</g>
</g>
<!-- Node4&#45;&gt;Node5 -->
<g id="edge4_Node000004_Node000005" class="edge">
<title>Node4&#45;&gt;Node5</title>
<g id="a_edge4_Node000004_Node000005"><a xlink:title=" ">
<path fill="none" stroke="#63b8ff" d="M299.78,-158.11C285.91,-145.82 271.92,-128.1 279,-110.5 291.69,-78.93 301.45,-70.23 332,-55.25 400.22,-21.79 633.25,-13.26 719.53,-11.22"/>
<polygon fill="#63b8ff" stroke="#63b8ff" points="297.52,-160.79 307.48,-164.4 301.94,-155.36 297.52,-160.79"/>
</a>
</g>
</g>
<!-- Node4&#45;&gt;Node6 -->
<g id="edge5_Node000004_Node000006" class="edge">
<title>Node4&#45;&gt;Node6</title>
<g id="a_edge5_Node000004_Node000006"><a xlink:title=" ">
<path fill="none" stroke="#63b8ff" d="M287.22,-161.42C261.25,-151.75 226.43,-138.79 203.38,-130.2"/>
<polygon fill="#63b8ff" stroke="#63b8ff" points="285.73,-164.6 296.32,-164.81 288.17,-158.04 285.73,-164.6"/>
</a>
</g>
</g>
<!-- Node7 -->
<g id="Node000007" class="node">
<title>Node7</title>
<g id="a_Node000007"><a xlink:href="text_8hpp.html" target="_top" xlink:title=" ">
<polygon fill="white" stroke="#666666" points="382,-129.75 288,-129.75 288,-110.5 382,-110.5 382,-129.75"/>
<text text-anchor="middle" x="335" y="-116.25" font-family="ui-monospace,monospace" font-size="10.00">jngl/text.hpp</text>
</a>
</g>
</g>
<!-- Node4&#45;&gt;Node7 -->
<g id="edge7_Node000004_Node000007" class="edge">
<title>Node4&#45;&gt;Node7</title>
<g id="a_edge7_Node000004_Node000007"><a xlink:title=" ">
<path fill="none" stroke="#63b8ff" d="M326.87,-154.42C328.91,-146.05 331.19,-136.75 332.81,-130.11"/>
<polygon fill="#63b8ff" stroke="#63b8ff" points="323.48,-153.57 324.51,-164.11 330.28,-155.23 323.48,-153.57"/>
</a>
</g>
</g>
<!-- Node6&#45;&gt;Node5 -->
<g id="edge6_Node000006_Node000005" class="edge">
<title>Node6&#45;&gt;Node5</title>
<g id="a_edge6_Node000006_Node000005"><a xlink:title=" ">
<path fill="none" stroke="#63b8ff" d="M192.03,-101.22C204.15,-86.1 223.66,-65.35 246,-55.25 331.17,-16.73 622.29,-11.4 719.84,-10.71"/>
<polygon fill="#63b8ff" stroke="#63b8ff" points="189.4,-98.9 186.1,-108.97 194.96,-103.16 189.4,-98.9"/>
</a>
</g>
</g>
<!-- Node7&#45;&gt;Node5 -->
<g id="edge8_Node000007_Node000005" class="edge">
<title>Node7&#45;&gt;Node5</title>
<g id="a_edge8_Node000007_Node000005"><a xlink:title=" ">
<path fill="none" stroke="#63b8ff" d="M332.68,-99.01C332.24,-84.74 334.34,-66.22 346,-55.25 373.08,-29.77 628.34,-16.09 719.69,-11.97"/>
<polygon fill="#63b8ff" stroke="#63b8ff" points="329.17,-98.97 333.43,-108.67 336.15,-98.43 329.17,-98.97"/>
</a>
</g>
</g>
<!-- Node8 -->
<g id="Node000008" class="node">
<title>Node8</title>
<g id="a_Node000008"><a xlink:href="Label_8hpp.html" target="_top" xlink:title="Contains jngl::Label class.">
<polygon fill="white" stroke="#666666" points="464,-74.5 364,-74.5 364,-55.25 464,-55.25 464,-74.5"/>
<text text-anchor="middle" x="414" y="-61" font-family="ui-monospace,monospace" font-size="10.00">jngl/Label.hpp</text>
</a>
</g>
</g>
<!-- Node7&#45;&gt;Node8 -->
<g id="edge9_Node000007_Node000008" class="edge">
<title>Node7&#45;&gt;Node8</title>
<g id="a_edge9_Node000007_Node000008"><a xlink:title=" ">
<path fill="none" stroke="#63b8ff" d="M357.76,-103.78C371.61,-94.45 388.82,-82.85 400.53,-74.95"/>
<polygon fill="#63b8ff" stroke="#63b8ff" points="355.99,-100.75 349.66,-109.25 359.9,-106.56 355.99,-100.75"/>
</a>
</g>
</g>
<!-- Node8&#45;&gt;Node5 -->
<g id="edge10_Node000008_Node000005" class="edge">
<title>Node8&#45;&gt;Node5</title>
<g id="a_edge10_Node000008_Node000005"><a xlink:title=" ">
<path fill="none" stroke="#63b8ff" d="M475.38,-54.2C547.3,-42.87 663.75,-24.53 719.82,-15.7"/>
<polygon fill="#63b8ff" stroke="#63b8ff" points="475.07,-50.71 465.73,-55.72 476.16,-57.63 475.07,-50.71"/>
</a>
</g>
</g>
<!-- Node9&#45;&gt;Node5 -->
<g id="edge12_Node000009_Node000005" class="edge">
<title>Node9&#45;&gt;Node5</title>
<g id="a_edge12_Node000009_Node000005"><a xlink:title=" ">
<path fill="none" stroke="#63b8ff" d="M624.01,-51.44C654.48,-41.72 696.13,-28.44 723.53,-19.7"/>
<polygon fill="#63b8ff" stroke="#63b8ff" points="623.24,-48.01 614.77,-54.38 625.36,-54.68 623.24,-48.01"/>
</a>
</g>
</g>
<!-- Node10&#45;&gt;Node5 -->
<g id="edge14_Node000010_Node000005" class="edge">
<title>Node10&#45;&gt;Node5</title>
<g id="a_edge14_Node000010_Node000005"><a xlink:title=" ">
<path fill="none" stroke="#63b8ff" d="M727.66,-45.65C733.77,-36.86 740.82,-26.71 745.76,-19.61"/>
<polygon fill="#63b8ff" stroke="#63b8ff" points="724.81,-43.63 721.97,-53.84 730.55,-47.62 724.81,-43.63"/>
</a>
</g>
</g>
<!-- Node11&#45;&gt;Node5 -->
<g id="edge17_Node000011_Node000005" class="edge">
<title>Node11&#45;&gt;Node5</title>
<g id="a_edge17_Node000011_Node000005"><a xlink:title=" ">
<path fill="none" stroke="#63b8ff" d="M407.4,-106.93C371.75,-96.15 334.2,-78.51 355,-55.25 379.18,-28.2 629.07,-15.56 719.54,-11.84"/>
<polygon fill="#63b8ff" stroke="#63b8ff" points="406.3,-110.26 416.88,-109.64 408.22,-103.53 406.3,-110.26"/>
</a>
</g>
</g>
<!-- Node11&#45;&gt;Node8 -->
<g id="edge18_Node000011_Node000008" class="edge">
<title>Node11&#45;&gt;Node8</title>
<g id="a_edge18_Node000011_Node000008"><a xlink:title=" ">
<path fill="none" stroke="#63b8ff" d="M444.32,-101.76C436.74,-92.78 427.79,-82.2 421.59,-74.86"/>
<polygon fill="#63b8ff" stroke="#63b8ff" points="441.46,-103.8 450.59,-109.18 446.81,-99.28 441.46,-103.8"/>
</a>
</g>
</g>
<!-- Node12&#45;&gt;Node5 -->
<g id="edge20_Node000012_Node000005" class="edge">
<title>Node12&#45;&gt;Node5</title>
<g id="a_edge20_Node000012_Node000005"><a xlink:title=" ">
<path fill="none" stroke="#63b8ff" d="M551.73,-105.9C524.17,-94.08 494.13,-75.53 511,-55.25 537.19,-23.76 660.26,-14.4 719.71,-11.69"/>
<polygon fill="#63b8ff" stroke="#63b8ff" points="550.08,-109.01 560.66,-109.52 552.71,-102.52 550.08,-109.01"/>
</a>
</g>
</g>
<!-- Node12&#45;&gt;Node8 -->
<g id="edge21_Node000012_Node000008" class="edge">
<title>Node12&#45;&gt;Node8</title>
<g id="a_edge21_Node000012_Node000008"><a xlink:title=" ">
<path fill="none" stroke="#63b8ff" d="M548.55,-106.82C516.57,-97.09 472.67,-83.73 443.83,-74.95"/>
<polygon fill="#63b8ff" stroke="#63b8ff" points="547.28,-110.09 557.87,-109.65 549.32,-103.39 547.28,-110.09"/>
</a>
</g>
</g>
<!-- Node13&#45;&gt;Node5 -->
<g id="edge23_Node000013_Node000005" class="edge">
<title>Node13&#45;&gt;Node5</title>
<g id="a_edge23_Node000013_Node000005"><a xlink:title=" ">
<path fill="none" stroke="#63b8ff" d="M787.51,-154.13C785.38,-130.16 780.63,-89.21 771,-55.25 767.37,-42.45 760.98,-28.45 756.63,-19.61"/>
<polygon fill="#63b8ff" stroke="#63b8ff" points="784.01,-154.35 788.31,-164.04 790.99,-153.79 784.01,-154.35"/>
</a>
</g>
</g>
<!-- Node14&#45;&gt;Node5 -->
<g id="edge25_Node000014_Node000005" class="edge">
<title>Node14&#45;&gt;Node5</title>
<g id="a_edge25_Node000014_Node000005"><a xlink:title=" ">
<path fill="none" stroke="#63b8ff" d="M853.07,-102.2C839.89,-89.15 821.04,-70.79 804,-55.25 790.11,-42.59 773.56,-28.56 762.92,-19.67"/>
<polygon fill="#63b8ff" stroke="#63b8ff" points="850.56,-104.64 860.12,-109.21 855.5,-99.67 850.56,-104.64"/>
</a>
</g>
</g>
<!-- Node15 -->
<g id="Node000015" class="node">
<title>Node15</title>
<g id="a_Node000015"><a xlink:href="OutlinedFont_8hpp.html" target="_top" xlink:title="Contains jngl::OutlinedFont class.">
<polygon fill="white" stroke="#666666" points="998,-74.5 856,-74.5 856,-55.25 998,-55.25 998,-74.5"/>
<text text-anchor="middle" x="927" y="-61" font-family="ui-monospace,monospace" font-size="10.00">jngl/OutlinedFont.hpp</text>
</a>
</g>
</g>
<!-- Node14&#45;&gt;Node15 -->
<g id="edge26_Node000014_Node000015" class="edge">
<title>Node14&#45;&gt;Node15</title>
<g id="a_edge26_Node000014_Node000015"><a xlink:title=" ">
<path fill="none" stroke="#63b8ff" d="M887.95,-102.36C897.73,-93.22 909.44,-82.28 917.47,-74.77"/>
<polygon fill="#63b8ff" stroke="#63b8ff" points="885.69,-99.67 880.78,-109.06 890.47,-104.79 885.69,-99.67"/>
</a>
</g>
</g>
<!-- Node15&#45;&gt;Node5 -->
<g id="edge27_Node000015_Node000005" class="edge">
<title>Node15&#45;&gt;Node5</title>
<g id="a_edge27_Node000015_Node000005"><a xlink:title=" ">
<path fill="none" stroke="#63b8ff" d="M886.55,-51.57C854.57,-41.84 810.67,-28.48 781.83,-19.7"/>
<polygon fill="#63b8ff" stroke="#63b8ff" points="885.28,-54.84 895.87,-54.4 887.32,-48.14 885.28,-54.84"/>
</a>
</g>
</g>
<!-- Node16&#45;&gt;Node5 -->
<g id="edge29_Node000016_Node000005" class="edge">
<title>Node16&#45;&gt;Node5</title>
<g id="a_edge29_Node000016_Node000005"><a xlink:title=" ">
<path fill="none" stroke="#63b8ff" d="M1225.55,-115.74C1289.6,-110.06 1375.81,-94.97 1339,-55.25 1301.14,-14.4 902.09,-10.76 784.46,-10.58"/>
<polygon fill="#63b8ff" stroke="#63b8ff" points="1225.47,-112.24 1215.79,-116.54 1226.04,-119.21 1225.47,-112.24"/>
</a>
</g>
</g>
<!-- Node17 -->
<g id="Node000017" class="node">
<title>Node17</title>
<g id="a_Node000017"><a xlink:href="Controller_8hpp.html" target="_top" xlink:title="Contains jngl::Controller class.">
<polygon fill="white" stroke="#666666" points="1146,-74.5 1016,-74.5 1016,-55.25 1146,-55.25 1146,-74.5"/>
<text text-anchor="middle" x="1081" y="-61" font-family="ui-monospace,monospace" font-size="10.00">jngl/Controller.hpp</text>
</a>
</g>
</g>
<!-- Node16&#45;&gt;Node17 -->
<g id="edge30_Node000016_Node000017" class="edge">
<title>Node16&#45;&gt;Node17</title>
<g id="a_edge30_Node000016_Node000017"><a xlink:title=" ">
<path fill="none" stroke="#63b8ff" d="M1140.51,-104.05C1125.89,-94.67 1107.57,-82.92 1095.15,-74.95"/>
<polygon fill="#63b8ff" stroke="#63b8ff" points="1138.34,-106.82 1148.65,-109.27 1142.12,-100.93 1138.34,-106.82"/>
</a>
</g>
</g>
<!-- Node18 -->
<g id="Node000018" class="node">
<title>Node18</title>
<g id="a_Node000018"><a xlink:href="KeyboardShortcut_8hpp.html" target="_top" xlink:title="Contains jngl::KeyboardShortcut class.">
<polygon fill="white" stroke="#666666" points="1330,-74.5 1164,-74.5 1164,-55.25 1330,-55.25 1330,-74.5"/>
<text text-anchor="middle" x="1247" y="-61" font-family="ui-monospace,monospace" font-size="10.00">jngl/KeyboardShortcut.hpp</text>
</a>
</g>
</g>
<!-- Node16&#45;&gt;Node18 -->
<g id="edge32_Node000016_Node000018" class="edge">
<title>Node16&#45;&gt;Node18</title>
<g id="a_edge32_Node000016_Node000018"><a xlink:title=" ">
<path fill="none" stroke="#63b8ff" d="M1187.49,-104.05C1202.11,-94.67 1220.43,-82.92 1232.85,-74.95"/>
<polygon fill="#63b8ff" stroke="#63b8ff" points="1185.88,-100.93 1179.35,-109.27 1189.66,-106.82 1185.88,-100.93"/>
</a>
</g>
</g>
<!-- Node17&#45;&gt;Node5 -->
<g id="edge31_Node000017_Node000005" class="edge">
<title>Node17&#45;&gt;Node5</title>
<g id="a_edge31_Node000017_Node000005"><a xlink:title=" ">
<path fill="none" stroke="#63b8ff" d="M1013.5,-52.95C943.64,-41.64 837.46,-24.46 784.47,-15.88"/>
<polygon fill="#63b8ff" stroke="#63b8ff" points="1012.89,-56.4 1023.32,-54.54 1014.01,-49.49 1012.89,-56.4"/>
</a>
</g>
</g>
<!-- Node18&#45;&gt;Node5 -->
<g id="edge33_Node000018_Node000005" class="edge">
<title>Node18&#45;&gt;Node5</title>
<g id="a_edge33_Node000018_Node000005"><a xlink:title=" ">
<path fill="none" stroke="#63b8ff" d="M1152.24,-53.68C1039.66,-41.57 857.84,-22.01 784.36,-14.11"/>
<polygon fill="#63b8ff" stroke="#63b8ff" points="1151.77,-57.15 1162.08,-54.74 1152.52,-50.19 1151.77,-57.15"/>
</a>
</g>
</g>
<!-- Node19&#45;&gt;Node5 -->
<g id="edge35_Node000019_Node000005" class="edge">
<title>Node19&#45;&gt;Node5</title>
<g id="a_edge35_Node000019_Node000005"><a xlink:title=" ">
<path fill="none" stroke="#63b8ff" d="M1173.42,-166.32C1265.21,-152.42 1416.29,-119.08 1357,-55.25 1317.8,-13.05 903.85,-10.39 784.21,-10.5"/>
<polygon fill="#63b8ff" stroke="#63b8ff" points="1173.15,-162.83 1163.77,-167.74 1174.17,-169.75 1173.15,-162.83"/>
</a>
</g>
</g>
<!-- Node20&#45;&gt;Node5 -->
<g id="edge37_Node000020_Node000005" class="edge">
<title>Node20&#45;&gt;Node5</title>
<g id="a_edge37_Node000020_Node000005"><a xlink:title=" ">
<path fill="none" stroke="#63b8ff" d="M1396.87,-154.53C1400.82,-127.74 1403.05,-80.46 1376,-55.25 1332.45,-14.66 905.79,-10.86 784.19,-10.61"/>
<polygon fill="#63b8ff" stroke="#63b8ff" points="1393.48,-153.61 1395.23,-164.06 1400.38,-154.8 1393.48,-153.61"/>
</a>
</g>
</g>
</g>
</svg>
