<?xml version="1.0" encoding="UTF-8" standalone="no"?>
<!DOCTYPE svg PUBLIC "-//W3C//DTD SVG 1.1//EN"
 "http://www.w3.org/Graphics/SVG/1.1/DTD/svg11.dtd">
<!-- Generated by graphviz version 9.0.0 (20230911.1827)
 -->
<!-- Title: jngl/Vec2.hpp Pages: 1 -->
<svg width="1244pt" height="248pt"
 viewBox="0.00 0.00 1244.00 248.25" xmlns="http://www.w3.org/2000/svg" xmlns:xlink="http://www.w3.org/1999/xlink">
<g id="graph0" class="graph" transform="scale(1 1) rotate(0) translate(4 244.25)">
<title>jngl/Vec2.hpp</title>
<!-- Node1 -->
<g id="Node000001" class="node">
<title>Node1</title>
<g id="a_Node000001"><a xlink:title="Contains jngl::Vec2 class.">
<polygon fill="#999999" stroke="#666666" points="741,-240.25 647,-240.25 647,-221 741,-221 741,-240.25"/>
<text text-anchor="middle" x="694" y="-226.75" font-family="ui-monospace,monospace" font-size="10.00">jngl/Vec2.hpp</text>
</a>
</g>
</g>
<!-- Node2 -->
<g id="Node000002" class="node">
<title>Node2</title>
<g id="a_Node000002"><a xlink:href="AppParameters_8hpp.html" target="_top" xlink:title="Contains jngl::AppParameters struct.">
<polygon fill="white" stroke="#666666" points="183,-185 35,-185 35,-165.75 183,-165.75 183,-185"/>
<text text-anchor="middle" x="109" y="-171.5" font-family="ui-monospace,monospace" font-size="10.00">jngl/AppParameters.hpp</text>
</a>
</g>
</g>
<!-- Node1&#45;&gt;Node2 -->
<g id="edge1_Node000001_Node000002" class="edge">
<title>Node1&#45;&gt;Node2</title>
<g id="a_edge1_Node000001_Node000002"><a xlink:title=" ">
<path fill="none" stroke="#63b8ff" d="M635.41,-224.29C528.33,-214.55 301.26,-193.88 183.43,-183.15"/>
<polygon fill="#63b8ff" stroke="#63b8ff" points="634.84,-227.75 645.12,-225.18 635.47,-220.78 634.84,-227.75"/>
</a>
</g>
</g>
<!-- Node4 -->
<g id="Node000004" class="node">
<title>Node4</title>
<g id="a_Node000004"><a xlink:href="Drawable_8hpp.html" target="_top" xlink:title="Contains jngl::Drawable class.">
<polygon fill="white" stroke="#666666" points="380,-185 262,-185 262,-165.75 380,-165.75 380,-185"/>
<text text-anchor="middle" x="321" y="-171.5" font-family="ui-monospace,monospace" font-size="10.00">jngl/Drawable.hpp</text>
</a>
</g>
</g>
<!-- Node1&#45;&gt;Node4 -->
<g id="edge3_Node000001_Node000004" class="edge">
<title>Node1&#45;&gt;Node4</title>
<g id="a_edge3_Node000001_Node000004"><a xlink:title=" ">
<path fill="none" stroke="#63b8ff" d="M635.59,-221.29C566.02,-211.35 450.47,-194.86 380.46,-184.86"/>
<polygon fill="#63b8ff" stroke="#63b8ff" points="634.87,-224.72 645.26,-222.67 635.86,-217.79 634.87,-224.72"/>
</a>
</g>
</g>
<!-- Node8 -->
<g id="Node000008" class="node">
<title>Node8</title>
<g id="a_Node000008"><a xlink:href="sprite_8hpp.html" target="_top" xlink:title="Contains jngl::Sprite class and related functions.">
<polygon fill="white" stroke="#666666" points="628,-129.75 522,-129.75 522,-110.5 628,-110.5 628,-129.75"/>
<text text-anchor="middle" x="575" y="-116.25" font-family="ui-monospace,monospace" font-size="10.00">jngl/sprite.hpp</text>
</a>
</g>
</g>
<!-- Node1&#45;&gt;Node8 -->
<g id="edge35_Node000001_Node000008" class="edge">
<title>Node1&#45;&gt;Node8</title>
<g id="a_edge35_Node000001_Node000008"><a xlink:title=" ">
<path fill="none" stroke="#63b8ff" d="M674.46,-213.28C664.62,-204.93 652.56,-194.56 642,-185 620.79,-165.81 596.68,-142.42 583.96,-129.96"/>
<polygon fill="#63b8ff" stroke="#63b8ff" points="672.04,-215.81 681.94,-219.58 676.55,-210.46 672.04,-215.81"/>
</a>
</g>
</g>
<!-- Node10 -->
<g id="Node000010" class="node">
<title>Node10</title>
<g id="a_Node000010"><a xlink:href="FrameBuffer_8hpp.html" target="_top" xlink:title="Contains jngl::FrameBuffer class.">
<polygon fill="white" stroke="#666666" points="612,-74.5 482,-74.5 482,-55.25 612,-55.25 612,-74.5"/>
<text text-anchor="middle" x="547" y="-61" font-family="ui-monospace,monospace" font-size="10.00">jngl/FrameBuffer.hpp</text>
</a>
</g>
</g>
<!-- Node1&#45;&gt;Node10 -->
<g id="edge14_Node000001_Node000010" class="edge">
<title>Node1&#45;&gt;Node10</title>
<g id="a_edge14_Node000001_Node000010"><a xlink:title=" ">
<path fill="none" stroke="#63b8ff" d="M688.88,-209.73C681.36,-183.96 665.08,-138.98 637,-110.5 620.35,-93.61 595.99,-82.07 576.81,-74.97"/>
<polygon fill="#63b8ff" stroke="#63b8ff" points="685.46,-210.5 691.48,-219.22 692.22,-208.65 685.46,-210.5"/>
</a>
</g>
</g>
<!-- Node11 -->
<g id="Node000011" class="node">
<title>Node11</title>
<g id="a_Node000011"><a xlink:href="Rect_8hpp.html" target="_top" xlink:title="Contains jngl::Rect class.">
<polygon fill="white" stroke="#666666" points="724,-74.5 630,-74.5 630,-55.25 724,-55.25 724,-74.5"/>
<text text-anchor="middle" x="677" y="-61" font-family="ui-monospace,monospace" font-size="10.00">jngl/Rect.hpp</text>
</a>
</g>
</g>
<!-- Node1&#45;&gt;Node11 -->
<g id="edge16_Node000001_Node000011" class="edge">
<title>Node1&#45;&gt;Node11</title>
<g id="a_edge16_Node000001_Node000011"><a xlink:title=" ">
<path fill="none" stroke="#63b8ff" d="M691.91,-209.47C688.18,-173.61 680.55,-100.1 677.92,-74.72"/>
<polygon fill="#63b8ff" stroke="#63b8ff" points="688.42,-209.73 692.93,-219.32 695.38,-209.01 688.42,-209.73"/>
</a>
</g>
</g>
<!-- Node12 -->
<g id="Node000012" class="node">
<title>Node12</title>
<g id="a_Node000012"><a xlink:href="Widget_8hpp.html" target="_top" xlink:title="Contains jngl::Container class.">
<polygon fill="white" stroke="#666666" points="504,-129.75 398,-129.75 398,-110.5 504,-110.5 504,-129.75"/>
<text text-anchor="middle" x="451" y="-116.25" font-family="ui-monospace,monospace" font-size="10.00">jngl/Widget.hpp</text>
</a>
</g>
</g>
<!-- Node1&#45;&gt;Node12 -->
<g id="edge18_Node000001_Node000012" class="edge">
<title>Node1&#45;&gt;Node12</title>
<g id="a_edge18_Node000001_Node000012"><a xlink:title=" ">
<path fill="none" stroke="#63b8ff" d="M663.45,-215.98C613.13,-193.52 514.13,-149.31 471.41,-130.24"/>
<polygon fill="#63b8ff" stroke="#63b8ff" points="661.76,-219.06 672.32,-219.94 664.61,-212.67 661.76,-219.06"/>
</a>
</g>
</g>
<!-- Node13 -->
<g id="Node000013" class="node">
<title>Node13</title>
<g id="a_Node000013"><a xlink:href="effects_8hpp.html" target="_top" xlink:title="Effects that can be applied to jngl::Widget.">
<polygon fill="white" stroke="#666666" points="828,-185 722,-185 722,-165.75 828,-165.75 828,-185"/>
<text text-anchor="middle" x="775" y="-171.5" font-family="ui-monospace,monospace" font-size="10.00">jngl/effects.hpp</text>
</a>
</g>
</g>
<!-- Node1&#45;&gt;Node13 -->
<g id="edge21_Node000001_Node000013" class="edge">
<title>Node1&#45;&gt;Node13</title>
<g id="a_edge21_Node000001_Node000013"><a xlink:title=" ">
<path fill="none" stroke="#63b8ff" d="M717.34,-214.28C731.54,-204.95 749.19,-193.35 761.19,-185.45"/>
<polygon fill="#63b8ff" stroke="#63b8ff" points="715.44,-211.34 709.01,-219.76 719.28,-217.19 715.44,-211.34"/>
</a>
</g>
</g>
<!-- Node14 -->
<g id="Node000014" class="node">
<title>Node14</title>
<g id="a_Node000014"><a xlink:href="font_8hpp.html" target="_top" xlink:title="Contains jngl::Font class and related functions.">
<polygon fill="white" stroke="#666666" points="903,-129.75 809,-129.75 809,-110.5 903,-110.5 903,-129.75"/>
<text text-anchor="middle" x="856" y="-116.25" font-family="ui-monospace,monospace" font-size="10.00">jngl/font.hpp</text>
</a>
</g>
</g>
<!-- Node1&#45;&gt;Node14 -->
<g id="edge23_Node000001_Node000014" class="edge">
<title>Node1&#45;&gt;Node14</title>
<g id="a_edge23_Node000001_Node000014"><a xlink:title=" ">
<path fill="none" stroke="#63b8ff" d="M752.64,-224.22C781.53,-218.67 814.83,-207.47 837,-185 851.95,-169.85 855.23,-143.48 855.88,-129.84"/>
<polygon fill="#63b8ff" stroke="#63b8ff" points="752.16,-220.76 742.9,-225.9 753.35,-227.65 752.16,-220.76"/>
</a>
</g>
</g>
<!-- Node16 -->
<g id="Node000016" class="node">
<title>Node16</title>
<g id="a_Node000016"><a xlink:href="input_8hpp.html" target="_top" xlink:title="Input related functions.">
<polygon fill="white" stroke="#666666" points="1038,-129.75 938,-129.75 938,-110.5 1038,-110.5 1038,-129.75"/>
<text text-anchor="middle" x="988" y="-116.25" font-family="ui-monospace,monospace" font-size="10.00">jngl/input.hpp</text>
</a>
</g>
</g>
<!-- Node1&#45;&gt;Node16 -->
<g id="edge27_Node000001_Node000016" class="edge">
<title>Node1&#45;&gt;Node16</title>
<g id="a_edge27_Node000001_Node000016"><a xlink:title=" ">
<path fill="none" stroke="#63b8ff" d="M745.88,-217.89C778.05,-209.99 819.97,-198.55 856,-185 899.13,-168.78 947.26,-143.56 971.76,-130.18"/>
<polygon fill="#63b8ff" stroke="#63b8ff" points="745.3,-214.43 736.4,-220.18 746.94,-221.23 745.3,-214.43"/>
</a>
</g>
</g>
<!-- Node18 -->
<g id="Node000018" class="node">
<title>Node18</title>
<g id="a_Node000018"><a xlink:href="screen_8hpp.html" target="_top" xlink:title=" ">
<polygon fill="white" stroke="#666666" points="1064,-185 958,-185 958,-165.75 1064,-165.75 1064,-185"/>
<text text-anchor="middle" x="1011" y="-171.5" font-family="ui-monospace,monospace" font-size="10.00">jngl/screen.hpp</text>
</a>
</g>
</g>
<!-- Node1&#45;&gt;Node18 -->
<g id="edge31_Node000001_Node000018" class="edge">
<title>Node1&#45;&gt;Node18</title>
<g id="a_edge31_Node000001_Node000018"><a xlink:title=" ">
<path fill="none" stroke="#63b8ff" d="M752.77,-219.75C811.48,-209.89 900.93,-194.86 957.65,-185.34"/>
<polygon fill="#63b8ff" stroke="#63b8ff" points="752.23,-216.29 742.95,-221.4 753.39,-223.2 752.23,-216.29"/>
</a>
</g>
</g>
<!-- Node19 -->
<g id="Node000019" class="node">
<title>Node19</title>
<g id="a_Node000019"><a xlink:href="shapes_8hpp.html" target="_top" xlink:title="Functions for drawing shapes.">
<polygon fill="white" stroke="#666666" points="1236,-185 1130,-185 1130,-165.75 1236,-165.75 1236,-185"/>
<text text-anchor="middle" x="1183" y="-171.5" font-family="ui-monospace,monospace" font-size="10.00">jngl/shapes.hpp</text>
</a>
</g>
</g>
<!-- Node1&#45;&gt;Node19 -->
<g id="edge33_Node000001_Node000019" class="edge">
<title>Node1&#45;&gt;Node19</title>
<g id="a_edge33_Node000001_Node000019"><a xlink:title=" ">
<path fill="none" stroke="#63b8ff" d="M752.55,-223.25C848.42,-212.81 1037.44,-192.23 1129.75,-182.17"/>
<polygon fill="#63b8ff" stroke="#63b8ff" points="752.4,-219.74 742.84,-224.31 753.16,-226.7 752.4,-219.74"/>
</a>
</g>
</g>
<!-- Node3 -->
<g id="Node000003" class="node">
<title>Node3</title>
<g id="a_Node000003"><a xlink:href="init_8hpp.html" target="_top" xlink:title="Include this file only once, as it defines the main function.">
<polygon fill="white" stroke="#666666" points="94,-129.75 0,-129.75 0,-110.5 94,-110.5 94,-129.75"/>
<text text-anchor="middle" x="47" y="-116.25" font-family="ui-monospace,monospace" font-size="10.00">jngl/init.hpp</text>
</a>
</g>
</g>
<!-- Node2&#45;&gt;Node3 -->
<g id="edge2_Node000002_Node000003" class="edge">
<title>Node2&#45;&gt;Node3</title>
<g id="a_edge2_Node000002_Node000003"><a xlink:title=" ">
<path fill="none" stroke="#63b8ff" d="M89.8,-157.89C79.1,-148.69 66.19,-137.6 57.36,-130.02"/>
<polygon fill="#63b8ff" stroke="#63b8ff" points="87.47,-160.5 97.33,-164.36 92.03,-155.19 87.47,-160.5"/>
</a>
</g>
</g>
<!-- Node5 -->
<g id="Node000005" class="node">
<title>Node5</title>
<g id="a_Node000005"><a xlink:href="jngl_8hpp.html" target="_top" xlink:title="Includes all JNGL headers except for init.hpp.">
<polygon fill="white" stroke="#666666" points="709,-19.25 645,-19.25 645,0 709,0 709,-19.25"/>
<text text-anchor="middle" x="677" y="-5.75" font-family="ui-monospace,monospace" font-size="10.00">jngl.hpp</text>
</a>
</g>
</g>
<!-- Node4&#45;&gt;Node5 -->
<g id="edge4_Node000004_Node000005" class="edge">
<title>Node4&#45;&gt;Node5</title>
<g id="a_edge4_Node000004_Node000005"><a xlink:title=" ">
<path fill="none" stroke="#63b8ff" d="M250.52,-165.87C206.13,-158.89 154.72,-147.28 141,-129.75 135.73,-123.01 137.12,-118.12 141,-110.5 159.95,-73.29 177.96,-70.06 217,-55.25 295.58,-25.43 553.61,-14.53 644.76,-11.56"/>
<polygon fill="#63b8ff" stroke="#63b8ff" points="249.72,-169.29 260.13,-167.31 250.76,-162.36 249.72,-169.29"/>
</a>
</g>
</g>
<!-- Node6 -->
<g id="Node000006" class="node">
<title>Node6</title>
<g id="a_Node000006"><a xlink:href="TextLine_8hpp.html" target="_top" xlink:title="Contains jngl::TextLine class.">
<polygon fill="white" stroke="#666666" points="380,-129.75 262,-129.75 262,-110.5 380,-110.5 380,-129.75"/>
<text text-anchor="middle" x="321" y="-116.25" font-family="ui-monospace,monospace" font-size="10.00">jngl/TextLine.hpp</text>
</a>
</g>
</g>
<!-- Node4&#45;&gt;Node6 -->
<g id="edge5_Node000004_Node000006" class="edge">
<title>Node4&#45;&gt;Node6</title>
<g id="a_edge5_Node000004_Node000006"><a xlink:title=" ">
<path fill="none" stroke="#63b8ff" d="M321,-154.13C321,-145.84 321,-136.67 321,-130.11"/>
<polygon fill="#63b8ff" stroke="#63b8ff" points="317.5,-154.07 321,-164.07 324.5,-154.07 317.5,-154.07"/>
</a>
</g>
</g>
<!-- Node4&#45;&gt;Node8 -->
<g id="edge9_Node000004_Node000008" class="edge">
<title>Node4&#45;&gt;Node8</title>
<g id="a_edge9_Node000004_Node000008"><a xlink:title=" ">
<path fill="none" stroke="#63b8ff" d="M375.51,-162.95C422.25,-153.15 488.67,-139.22 531.8,-130.18"/>
<polygon fill="#63b8ff" stroke="#63b8ff" points="374.93,-159.49 365.86,-164.97 376.36,-166.34 374.93,-159.49"/>
</a>
</g>
</g>
<!-- Node9 -->
<g id="Node000009" class="node">
<title>Node9</title>
<g id="a_Node000009"><a xlink:href="text_8hpp.html" target="_top" xlink:title=" ">
<polygon fill="white" stroke="#666666" points="244,-129.75 150,-129.75 150,-110.5 244,-110.5 244,-129.75"/>
<text text-anchor="middle" x="197" y="-116.25" font-family="ui-monospace,monospace" font-size="10.00">jngl/text.hpp</text>
</a>
</g>
</g>
<!-- Node4&#45;&gt;Node9 -->
<g id="edge11_Node000004_Node000009" class="edge">
<title>Node4&#45;&gt;Node9</title>
<g id="a_edge11_Node000004_Node000009"><a xlink:title=" ">
<path fill="none" stroke="#63b8ff" d="M289.63,-160.9C267.25,-151.29 237.77,-138.63 218.14,-130.2"/>
<polygon fill="#63b8ff" stroke="#63b8ff" points="288,-164.01 298.57,-164.74 290.77,-157.58 288,-164.01"/>
</a>
</g>
</g>
<!-- Node6&#45;&gt;Node5 -->
<g id="edge6_Node000006_Node000005" class="edge">
<title>Node6&#45;&gt;Node5</title>
<g id="a_edge6_Node000006_Node000005"><a xlink:title=" ">
<path fill="none" stroke="#63b8ff" d="M345.36,-104.33C370.3,-89.81 410.6,-68.03 448,-55.25 516.03,-32 599.82,-19.54 644.8,-14.08"/>
<polygon fill="#63b8ff" stroke="#63b8ff" points="343.79,-101.19 336.97,-109.3 347.36,-107.22 343.79,-101.19"/>
</a>
</g>
</g>
<!-- Node7 -->
<g id="Node000007" class="node">
<title>Node7</title>
<g id="a_Node000007"><a xlink:href="Label_8hpp.html" target="_top" xlink:title="Contains jngl::Label class.">
<polygon fill="white" stroke="#666666" points="350,-74.5 250,-74.5 250,-55.25 350,-55.25 350,-74.5"/>
<text text-anchor="middle" x="300" y="-61" font-family="ui-monospace,monospace" font-size="10.00">jngl/Label.hpp</text>
</a>
</g>
</g>
<!-- Node6&#45;&gt;Node7 -->
<g id="edge7_Node000006_Node000007" class="edge">
<title>Node6&#45;&gt;Node7</title>
<g id="a_edge7_Node000006_Node000007"><a xlink:title=" ">
<path fill="none" stroke="#63b8ff" d="M313.36,-99.75C310,-91.24 306.22,-81.65 303.54,-74.86"/>
<polygon fill="#63b8ff" stroke="#63b8ff" points="310.05,-100.91 316.98,-108.92 316.56,-98.34 310.05,-100.91"/>
</a>
</g>
</g>
<!-- Node7&#45;&gt;Node5 -->
<g id="edge8_Node000007_Node000005" class="edge">
<title>Node7&#45;&gt;Node5</title>
<g id="a_edge8_Node000007_Node000005"><a xlink:title=" ">
<path fill="none" stroke="#63b8ff" d="M361.47,-55.19C442.38,-43.76 581.69,-24.09 644.56,-15.21"/>
<polygon fill="#63b8ff" stroke="#63b8ff" points="361.36,-51.67 351.95,-56.54 362.34,-58.6 361.36,-51.67"/>
</a>
</g>
</g>
<!-- Node8&#45;&gt;Node5 -->
<g id="edge10_Node000008_Node000005" class="edge">
<title>Node8&#45;&gt;Node5</title>
<g id="a_edge10_Node000008_Node000005"><a xlink:title=" ">
<path fill="none" stroke="#63b8ff" d="M523.58,-106.88C489.38,-96.27 453.97,-78.9 473,-55.25 494.2,-28.91 592.78,-17.27 644.74,-12.88"/>
<polygon fill="#63b8ff" stroke="#63b8ff" points="522.54,-110.23 533.12,-109.67 524.5,-103.51 522.54,-110.23"/>
</a>
</g>
</g>
<!-- Node9&#45;&gt;Node5 -->
<g id="edge12_Node000009_Node000005" class="edge">
<title>Node9&#45;&gt;Node5</title>
<g id="a_edge12_Node000009_Node000005"><a xlink:title=" ">
<path fill="none" stroke="#63b8ff" d="M204.7,-100.1C211.79,-85.23 223.83,-65.42 241,-55.25 309.25,-14.82 555.54,-10.65 644.59,-10.49"/>
<polygon fill="#63b8ff" stroke="#63b8ff" points="201.66,-98.32 200.84,-108.89 208.07,-101.14 201.66,-98.32"/>
</a>
</g>
</g>
<!-- Node9&#45;&gt;Node7 -->
<g id="edge13_Node000009_Node000007" class="edge">
<title>Node9&#45;&gt;Node7</title>
<g id="a_edge13_Node000009_Node000007"><a xlink:title=" ">
<path fill="none" stroke="#63b8ff" d="M224.59,-104.86C242.98,-95.36 266.58,-83.15 282.44,-74.95"/>
<polygon fill="#63b8ff" stroke="#63b8ff" points="223.09,-101.7 215.82,-109.4 226.31,-107.91 223.09,-101.7"/>
</a>
</g>
</g>
<!-- Node10&#45;&gt;Node5 -->
<g id="edge15_Node000010_Node000005" class="edge">
<title>Node10&#45;&gt;Node5</title>
<g id="a_edge15_Node000010_Node000005"><a xlink:title=" ">
<path fill="none" stroke="#63b8ff" d="M579.57,-50.53C603.07,-40.91 634.17,-28.17 654.84,-19.7"/>
<polygon fill="#63b8ff" stroke="#63b8ff" points="578.38,-47.24 570.45,-54.27 581.03,-53.72 578.38,-47.24"/>
</a>
</g>
</g>
<!-- Node11&#45;&gt;Node5 -->
<g id="edge17_Node000011_Node000005" class="edge">
<title>Node11&#45;&gt;Node5</title>
<g id="a_edge17_Node000011_Node000005"><a xlink:title=" ">
<path fill="none" stroke="#63b8ff" d="M677,-43.63C677,-35.34 677,-26.17 677,-19.61"/>
<polygon fill="#63b8ff" stroke="#63b8ff" points="673.5,-43.57 677,-53.57 680.5,-43.57 673.5,-43.57"/>
</a>
</g>
</g>
<!-- Node12&#45;&gt;Node5 -->
<g id="edge19_Node000012_Node000005" class="edge">
<title>Node12&#45;&gt;Node5</title>
<g id="a_edge19_Node000012_Node000005"><a xlink:title=" ">
<path fill="none" stroke="#63b8ff" d="M449.35,-98.88C449.36,-84.8 451.87,-66.6 463,-55.25 487.91,-29.84 591.13,-17.71 644.58,-13.04"/>
<polygon fill="#63b8ff" stroke="#63b8ff" points="445.85,-98.98 449.8,-108.82 452.84,-98.67 445.85,-98.98"/>
</a>
</g>
</g>
<!-- Node12&#45;&gt;Node7 -->
<g id="edge20_Node000012_Node000007" class="edge">
<title>Node12&#45;&gt;Node7</title>
<g id="a_edge20_Node000012_Node000007"><a xlink:title=" ">
<path fill="none" stroke="#63b8ff" d="M414.64,-106.3C387.19,-96.62 350.19,-83.57 325.74,-74.95"/>
<polygon fill="#63b8ff" stroke="#63b8ff" points="413.36,-109.56 423.96,-109.59 415.69,-102.96 413.36,-109.56"/>
</a>
</g>
</g>
<!-- Node13&#45;&gt;Node5 -->
<g id="edge22_Node000013_Node000005" class="edge">
<title>Node13&#45;&gt;Node5</title>
<g id="a_edge22_Node000013_Node000005"><a xlink:title=" ">
<path fill="none" stroke="#63b8ff" d="M771.47,-154.25C766.31,-129.2 754.87,-85.98 733,-55.25 722.33,-40.26 705.28,-27.69 692.8,-19.75"/>
<polygon fill="#63b8ff" stroke="#63b8ff" points="768.02,-154.87 773.33,-164.04 774.9,-153.56 768.02,-154.87"/>
</a>
</g>
</g>
<!-- Node14&#45;&gt;Node5 -->
<g id="edge24_Node000014_Node000005" class="edge">
<title>Node14&#45;&gt;Node5</title>
<g id="a_edge24_Node000014_Node000005"><a xlink:title=" ">
<path fill="none" stroke="#63b8ff" d="M835.53,-103.23C817.67,-89.7 790.81,-70.15 766,-55.25 743.18,-41.54 715.61,-28.18 697.26,-19.7"/>
<polygon fill="#63b8ff" stroke="#63b8ff" points="833.18,-105.84 843.25,-109.14 837.43,-100.28 833.18,-105.84"/>
</a>
</g>
</g>
<!-- Node15 -->
<g id="Node000015" class="node">
<title>Node15</title>
<g id="a_Node000015"><a xlink:href="OutlinedFont_8hpp.html" target="_top" xlink:title="Contains jngl::OutlinedFont class.">
<polygon fill="white" stroke="#666666" points="960,-74.5 818,-74.5 818,-55.25 960,-55.25 960,-74.5"/>
<text text-anchor="middle" x="889" y="-61" font-family="ui-monospace,monospace" font-size="10.00">jngl/OutlinedFont.hpp</text>
</a>
</g>
</g>
<!-- Node14&#45;&gt;Node15 -->
<g id="edge25_Node000014_Node000015" class="edge">
<title>Node14&#45;&gt;Node15</title>
<g id="a_edge25_Node000014_Node000015"><a xlink:title=" ">
<path fill="none" stroke="#63b8ff" d="M867.47,-100.62C872.88,-91.89 879.08,-81.89 883.43,-74.86"/>
<polygon fill="#63b8ff" stroke="#63b8ff" points="864.54,-98.7 862.25,-109.05 870.49,-102.39 864.54,-98.7"/>
</a>
</g>
</g>
<!-- Node15&#45;&gt;Node5 -->
<g id="edge26_Node000015_Node000005" class="edge">
<title>Node15&#45;&gt;Node5</title>
<g id="a_edge26_Node000015_Node000005"><a xlink:title=" ">
<path fill="none" stroke="#63b8ff" d="M841.88,-52.04C801.58,-41.92 744.64,-27.61 709.31,-18.74"/>
<polygon fill="#63b8ff" stroke="#63b8ff" points="841.02,-55.43 851.57,-54.47 842.72,-48.64 841.02,-55.43"/>
</a>
</g>
</g>
<!-- Node16&#45;&gt;Node5 -->
<g id="edge28_Node000016_Node000005" class="edge">
<title>Node16&#45;&gt;Node5</title>
<g id="a_edge28_Node000016_Node000005"><a xlink:title=" ">
<path fill="none" stroke="#63b8ff" d="M987.43,-98.92C985.9,-84.6 981.41,-66.07 969,-55.25 930.72,-21.9 776.98,-13.44 709.28,-11.32"/>
<polygon fill="#63b8ff" stroke="#63b8ff" points="983.92,-98.86 988.05,-108.62 990.91,-98.41 983.92,-98.86"/>
</a>
</g>
</g>
<!-- Node17 -->
<g id="Node000017" class="node">
<title>Node17</title>
<g id="a_Node000017"><a xlink:href="Controller_8hpp.html" target="_top" xlink:title="Contains jngl::Controller class.">
<polygon fill="white" stroke="#666666" points="1146,-74.5 1016,-74.5 1016,-55.25 1146,-55.25 1146,-74.5"/>
<text text-anchor="middle" x="1081" y="-61" font-family="ui-monospace,monospace" font-size="10.00">jngl/Controller.hpp</text>
</a>
</g>
</g>
<!-- Node16&#45;&gt;Node17 -->
<g id="edge29_Node000016_Node000017" class="edge">
<title>Node16&#45;&gt;Node17</title>
<g id="a_edge29_Node000016_Node000017"><a xlink:title=" ">
<path fill="none" stroke="#63b8ff" d="M1013.38,-104.59C1029.91,-95.13 1050.96,-83.08 1065.15,-74.95"/>
<polygon fill="#63b8ff" stroke="#63b8ff" points="1012.03,-101.33 1005.09,-109.34 1015.51,-107.41 1012.03,-101.33"/>
</a>
</g>
</g>
<!-- Node17&#45;&gt;Node5 -->
<g id="edge30_Node000017_Node000005" class="edge">
<title>Node17&#45;&gt;Node5</title>
<g id="a_edge30_Node000017_Node000005"><a xlink:title=" ">
<path fill="none" stroke="#63b8ff" d="M1004.27,-53.76C915.35,-42.04 772.93,-23.27 709.41,-14.9"/>
<polygon fill="#63b8ff" stroke="#63b8ff" points="1003.77,-57.23 1014.14,-55.06 1004.68,-50.29 1003.77,-57.23"/>
</a>
</g>
</g>
<!-- Node18&#45;&gt;Node5 -->
<g id="edge32_Node000018_Node000005" class="edge">
<title>Node18&#45;&gt;Node5</title>
<g id="a_edge32_Node000018_Node000005"><a xlink:title=" ">
<path fill="none" stroke="#63b8ff" d="M1049.37,-161.48C1104.41,-141.07 1194.94,-99.1 1155,-55.25 1125.01,-22.33 811.86,-13.27 709.31,-11.18"/>
<polygon fill="#63b8ff" stroke="#63b8ff" points="1048.53,-158.07 1040.31,-164.76 1050.91,-164.65 1048.53,-158.07"/>
</a>
</g>
</g>
<!-- Node19&#45;&gt;Node5 -->
<g id="edge34_Node000019_Node000005" class="edge">
<title>Node19&#45;&gt;Node5</title>
<g id="a_edge34_Node000019_Node000005"><a xlink:title=" ">
<path fill="none" stroke="#63b8ff" d="M1188.21,-154.39C1193.82,-127.8 1198.77,-81.17 1173,-55.25 1140.31,-22.37 814.18,-13.26 709.3,-11.17"/>
<polygon fill="#63b8ff" stroke="#63b8ff" points="1184.87,-153.33 1185.97,-163.87 1191.68,-154.94 1184.87,-153.33"/>
</a>
</g>
</g>
</g>
</svg>
