<?xml version="1.0" encoding="UTF-8" standalone="no"?>
<!DOCTYPE svg PUBLIC "-//W3C//DTD SVG 1.1//EN"
 "http://www.w3.org/Graphics/SVG/1.1/DTD/svg11.dtd">
<!-- Generated by graphviz version 2.42.4 (0)
 -->
<!-- Title: jngl/Vec2.hpp Pages: 1 -->
<svg width="999pt" height="308pt"
 viewBox="0.00 0.00 999.00 308.00" xmlns="http://www.w3.org/2000/svg" xmlns:xlink="http://www.w3.org/1999/xlink">
<g id="graph0" class="graph" transform="scale(1 1) rotate(0) translate(4 304)">
<title>jngl/Vec2.hpp</title>
<polygon fill="white" stroke="transparent" points="-4,4 -4,-304 995,-304 995,4 -4,4"/>
<!-- Node1 -->
<g id="node1" class="node">
<title>Node1</title>
<g id="a_node1"><a xlink:title=" ">
<polygon fill="#bfbfbf" stroke="black" points="542,-280.5 542,-299.5 637,-299.5 637,-280.5 542,-280.5"/>
<text text-anchor="middle" x="589.5" y="-287.5" font-family="'Consolas',monospace" font-size="10.00">jngl/Vec2.hpp</text>
</a>
</g>
</g>
<!-- Node2 -->
<g id="node2" class="node">
<title>Node2</title>
<g id="a_node2"><a xlink:href="Drawable_8hpp.html" target="_top" xlink:title="Contains jngl::Drawable class.">
<polygon fill="white" stroke="black" points="213,-224.5 213,-243.5 332,-243.5 332,-224.5 213,-224.5"/>
<text text-anchor="middle" x="272.5" y="-231.5" font-family="'Consolas',monospace" font-size="10.00">jngl/Drawable.hpp</text>
</a>
</g>
</g>
<!-- Node1&#45;&gt;Node2 -->
<g id="edge1" class="edge">
<title>Node1&#45;&gt;Node2</title>
<path fill="none" stroke="midnightblue" d="M531.65,-279.15C471.81,-268.95 379.31,-253.2 322.52,-243.52"/>
<polygon fill="midnightblue" stroke="midnightblue" points="531.25,-282.63 541.7,-280.86 532.43,-275.73 531.25,-282.63"/>
</g>
<!-- Node5 -->
<g id="node5" class="node">
<title>Node5</title>
<g id="a_node5"><a xlink:href="sprite_8hpp.html" target="_top" xlink:title="Contains jngl::Sprite class and related functions.">
<polygon fill="white" stroke="black" points="0,-168.5 0,-187.5 107,-187.5 107,-168.5 0,-168.5"/>
<text text-anchor="middle" x="53.5" y="-175.5" font-family="'Consolas',monospace" font-size="10.00">jngl/sprite.hpp</text>
</a>
</g>
</g>
<!-- Node1&#45;&gt;Node5 -->
<g id="edge26" class="edge">
<title>Node1&#45;&gt;Node5</title>
<path fill="none" stroke="midnightblue" d="M531.35,-287.5C454.93,-284.34 317.07,-274.51 203.5,-244 152.24,-230.23 95.83,-201.89 69.15,-187.62"/>
<polygon fill="midnightblue" stroke="midnightblue" points="531.59,-291.01 541.72,-287.9 531.86,-284.02 531.59,-291.01"/>
</g>
<!-- Node10 -->
<g id="node10" class="node">
<title>Node10</title>
<g id="a_node10"><a xlink:href="font_8hpp.html" target="_top" xlink:title="Contains jngl::Font class and related functions.">
<polygon fill="white" stroke="black" points="497,-112.5 497,-131.5 592,-131.5 592,-112.5 497,-112.5"/>
<text text-anchor="middle" x="544.5" y="-119.5" font-family="'Consolas',monospace" font-size="10.00">jngl/font.hpp</text>
</a>
</g>
</g>
<!-- Node1&#45;&gt;Node10 -->
<g id="edge13" class="edge">
<title>Node1&#45;&gt;Node10</title>
<path fill="none" stroke="midnightblue" d="M576.63,-272.09C571.11,-264 565.1,-253.93 561.5,-244 546.88,-203.72 544.75,-151.67 544.5,-131.5"/>
<polygon fill="midnightblue" stroke="midnightblue" points="573.83,-274.2 582.51,-280.27 579.52,-270.11 573.83,-274.2"/>
</g>
<!-- Node11 -->
<g id="node11" class="node">
<title>Node11</title>
<g id="a_node11"><a xlink:href="framebuffer_8hpp.html" target="_top" xlink:title="Contains jngl::FrameBuffer class.">
<polygon fill="white" stroke="black" points="571,-224.5 571,-243.5 702,-243.5 702,-224.5 571,-224.5"/>
<text text-anchor="middle" x="636.5" y="-231.5" font-family="'Consolas',monospace" font-size="10.00">jngl/framebuffer.hpp</text>
</a>
</g>
</g>
<!-- Node1&#45;&gt;Node11 -->
<g id="edge15" class="edge">
<title>Node1&#45;&gt;Node11</title>
<path fill="none" stroke="midnightblue" d="M603.92,-272.43C612.16,-262.97 622.15,-251.48 628.88,-243.75"/>
<polygon fill="midnightblue" stroke="midnightblue" points="601.19,-270.24 597.26,-280.08 606.47,-274.84 601.19,-270.24"/>
</g>
<!-- Node12 -->
<g id="node12" class="node">
<title>Node12</title>
<g id="a_node12"><a xlink:href="input_8hpp.html" target="_top" xlink:title="Input related functions.">
<polygon fill="white" stroke="black" points="649,-168.5 649,-187.5 750,-187.5 750,-168.5 649,-168.5"/>
<text text-anchor="middle" x="699.5" y="-175.5" font-family="'Consolas',monospace" font-size="10.00">jngl/input.hpp</text>
</a>
</g>
</g>
<!-- Node1&#45;&gt;Node12 -->
<g id="edge17" class="edge">
<title>Node1&#45;&gt;Node12</title>
<path fill="none" stroke="midnightblue" d="M647.13,-282.01C670.83,-275.98 696.06,-264.77 710.5,-244 722.39,-226.9 711.81,-201.26 704.71,-187.87"/>
<polygon fill="midnightblue" stroke="midnightblue" points="646.08,-278.66 637.11,-284.29 647.64,-285.49 646.08,-278.66"/>
</g>
<!-- Node14 -->
<g id="node14" class="node">
<title>Node14</title>
<g id="a_node14"><a xlink:href="screen_8hpp.html" target="_top" xlink:title=" ">
<polygon fill="white" stroke="black" points="759,-224.5 759,-243.5 866,-243.5 866,-224.5 759,-224.5"/>
<text text-anchor="middle" x="812.5" y="-231.5" font-family="'Consolas',monospace" font-size="10.00">jngl/screen.hpp</text>
</a>
</g>
</g>
<!-- Node1&#45;&gt;Node14 -->
<g id="edge21" class="edge">
<title>Node1&#45;&gt;Node14</title>
<path fill="none" stroke="midnightblue" d="M634.56,-278.09C676.69,-267.89 738.74,-252.86 777.33,-243.52"/>
<polygon fill="midnightblue" stroke="midnightblue" points="633.73,-274.69 624.84,-280.44 635.38,-281.49 633.73,-274.69"/>
</g>
<!-- Node16 -->
<g id="node16" class="node">
<title>Node16</title>
<g id="a_node16"><a xlink:href="shapes_8hpp.html" target="_top" xlink:title="Functions for drawing shapes.">
<polygon fill="white" stroke="black" points="884,-224.5 884,-243.5 991,-243.5 991,-224.5 884,-224.5"/>
<text text-anchor="middle" x="937.5" y="-231.5" font-family="'Consolas',monospace" font-size="10.00">jngl/shapes.hpp</text>
</a>
</g>
</g>
<!-- Node1&#45;&gt;Node16 -->
<g id="edge24" class="edge">
<title>Node1&#45;&gt;Node16</title>
<path fill="none" stroke="midnightblue" d="M647.36,-280.02C713.19,-269.81 819.84,-253.26 883.86,-243.32"/>
<polygon fill="midnightblue" stroke="midnightblue" points="646.5,-276.61 637.16,-281.6 647.58,-283.53 646.5,-276.61"/>
</g>
<!-- Node17 -->
<g id="node17" class="node">
<title>Node17</title>
<g id="a_node17"><a xlink:href="Widget_8hpp_source.html" target="_top" xlink:title=" ">
<polygon fill="white" stroke="black" points="414,-168.5 414,-187.5 521,-187.5 521,-168.5 414,-168.5"/>
<text text-anchor="middle" x="467.5" y="-175.5" font-family="'Consolas',monospace" font-size="10.00">jngl/Widget.hpp</text>
</a>
</g>
</g>
<!-- Node1&#45;&gt;Node17 -->
<g id="edge27" class="edge">
<title>Node1&#45;&gt;Node17</title>
<path fill="none" stroke="midnightblue" d="M567.85,-274.47C555.85,-266.07 540.89,-255 528.5,-244 507.67,-225.5 485.98,-200.88 474.93,-187.89"/>
<polygon fill="midnightblue" stroke="midnightblue" points="566.14,-277.55 576.36,-280.34 570.11,-271.78 566.14,-277.55"/>
</g>
<!-- Node3 -->
<g id="node3" class="node">
<title>Node3</title>
<g id="a_node3"><a xlink:href="all_8hpp.html" target="_top" xlink:title="Includes all JNGL headers except for init.hpp.">
<polygon fill="white" stroke="black" points="462,-56.5 462,-75.5 551,-75.5 551,-56.5 462,-56.5"/>
<text text-anchor="middle" x="506.5" y="-63.5" font-family="'Consolas',monospace" font-size="10.00">jngl/all.hpp</text>
</a>
</g>
</g>
<!-- Node2&#45;&gt;Node3 -->
<g id="edge2" class="edge">
<title>Node2&#45;&gt;Node3</title>
<path fill="none" stroke="midnightblue" d="M274.2,-214.09C277.74,-186.87 288.45,-137.14 320.5,-112 361.15,-80.11 421.04,-70.36 461.8,-67.62"/>
<polygon fill="midnightblue" stroke="midnightblue" points="270.7,-213.92 273.09,-224.24 277.66,-214.69 270.7,-213.92"/>
</g>
<!-- Node2&#45;&gt;Node5 -->
<g id="edge4" class="edge">
<title>Node2&#45;&gt;Node5</title>
<path fill="none" stroke="midnightblue" d="M227.99,-222.02C186.62,-211.82 125.86,-196.84 88.04,-187.52"/>
<polygon fill="midnightblue" stroke="midnightblue" points="227.25,-225.45 237.8,-224.44 228.93,-218.65 227.25,-225.45"/>
</g>
<!-- Node7 -->
<g id="node7" class="node">
<title>Node7</title>
<g id="a_node7"><a xlink:href="text_8hpp.html" target="_top" xlink:title=" ">
<polygon fill="white" stroke="black" points="301,-168.5 301,-187.5 396,-187.5 396,-168.5 301,-168.5"/>
<text text-anchor="middle" x="348.5" y="-175.5" font-family="'Consolas',monospace" font-size="10.00">jngl/text.hpp</text>
</a>
</g>
</g>
<!-- Node2&#45;&gt;Node7 -->
<g id="edge8" class="edge">
<title>Node2&#45;&gt;Node7</title>
<path fill="none" stroke="midnightblue" d="M293.08,-218.38C306.81,-208.62 324.43,-196.11 336.07,-187.83"/>
<polygon fill="midnightblue" stroke="midnightblue" points="290.84,-215.68 284.71,-224.32 294.89,-221.38 290.84,-215.68"/>
</g>
<!-- Node9 -->
<g id="node9" class="node">
<title>Node9</title>
<g id="a_node9"><a xlink:href="TextLine_8hpp.html" target="_top" xlink:title="Contains jngl::TextLine class.">
<polygon fill="white" stroke="black" points="125,-168.5 125,-187.5 244,-187.5 244,-168.5 125,-168.5"/>
<text text-anchor="middle" x="184.5" y="-175.5" font-family="'Consolas',monospace" font-size="10.00">jngl/TextLine.hpp</text>
</a>
</g>
</g>
<!-- Node2&#45;&gt;Node9 -->
<g id="edge12" class="edge">
<title>Node2&#45;&gt;Node9</title>
<path fill="none" stroke="midnightblue" d="M249.52,-218.9C233.39,-209 212.32,-196.07 198.6,-187.65"/>
<polygon fill="midnightblue" stroke="midnightblue" points="248.01,-222.08 258.36,-224.32 251.67,-216.11 248.01,-222.08"/>
</g>
<!-- Node4 -->
<g id="node4" class="node">
<title>Node4</title>
<g id="a_node4"><a xlink:href="jngl_8hpp.html" target="_top" xlink:title="Includes jngl/all.hpp.">
<polygon fill="white" stroke="black" points="474,-0.5 474,-19.5 539,-19.5 539,-0.5 474,-0.5"/>
<text text-anchor="middle" x="506.5" y="-7.5" font-family="'Consolas',monospace" font-size="10.00">jngl.hpp</text>
</a>
</g>
</g>
<!-- Node3&#45;&gt;Node4 -->
<g id="edge3" class="edge">
<title>Node3&#45;&gt;Node4</title>
<path fill="none" stroke="midnightblue" d="M506.5,-45.8C506.5,-36.91 506.5,-26.78 506.5,-19.75"/>
<polygon fill="midnightblue" stroke="midnightblue" points="503,-46.08 506.5,-56.08 510,-46.08 503,-46.08"/>
</g>
<!-- Node5&#45;&gt;Node3 -->
<g id="edge5" class="edge">
<title>Node5&#45;&gt;Node3</title>
<path fill="none" stroke="midnightblue" d="M86.77,-165C127.02,-150.83 197.03,-127.26 258.5,-112 328.79,-94.56 411.85,-80.86 461.79,-73.35"/>
<polygon fill="midnightblue" stroke="midnightblue" points="85.46,-161.76 77.2,-168.39 87.8,-168.35 85.46,-161.76"/>
</g>
<!-- Node6 -->
<g id="node6" class="node">
<title>Node6</title>
<g id="a_node6"><a xlink:href="Video_8hpp.html" target="_top" xlink:title=" ">
<polygon fill="white" stroke="black" points="29,-112.5 29,-131.5 130,-131.5 130,-112.5 29,-112.5"/>
<text text-anchor="middle" x="79.5" y="-119.5" font-family="'Consolas',monospace" font-size="10.00">jngl/Video.hpp</text>
</a>
</g>
</g>
<!-- Node5&#45;&gt;Node6 -->
<g id="edge6" class="edge">
<title>Node5&#45;&gt;Node6</title>
<path fill="none" stroke="midnightblue" d="M62.17,-158.98C66.59,-149.82 71.75,-139.09 75.29,-131.75"/>
<polygon fill="midnightblue" stroke="midnightblue" points="58.98,-157.55 57.79,-168.08 65.29,-160.59 58.98,-157.55"/>
</g>
<!-- Node6&#45;&gt;Node3 -->
<g id="edge7" class="edge">
<title>Node6&#45;&gt;Node3</title>
<path fill="none" stroke="midnightblue" d="M140.13,-113.33C226.94,-102.35 384.68,-82.41 461.73,-72.66"/>
<polygon fill="midnightblue" stroke="midnightblue" points="139.64,-109.87 130.16,-114.59 140.52,-116.81 139.64,-109.87"/>
</g>
<!-- Node7&#45;&gt;Node3 -->
<g id="edge9" class="edge">
<title>Node7&#45;&gt;Node3</title>
<path fill="none" stroke="midnightblue" d="M335.73,-159.76C326.98,-145.66 318.73,-125.86 329.5,-112 345.61,-91.29 414.86,-78.55 461.82,-72.13"/>
<polygon fill="midnightblue" stroke="midnightblue" points="332.86,-161.76 341.36,-168.08 338.66,-157.84 332.86,-161.76"/>
</g>
<!-- Node8 -->
<g id="node8" class="node">
<title>Node8</title>
<g id="a_node8"><a xlink:href="Label_8hpp_source.html" target="_top" xlink:title=" ">
<polygon fill="white" stroke="black" points="339,-112.5 339,-131.5 440,-131.5 440,-112.5 339,-112.5"/>
<text text-anchor="middle" x="389.5" y="-119.5" font-family="'Consolas',monospace" font-size="10.00">jngl/Label.hpp</text>
</a>
</g>
</g>
<!-- Node7&#45;&gt;Node8 -->
<g id="edge10" class="edge">
<title>Node7&#45;&gt;Node8</title>
<path fill="none" stroke="midnightblue" d="M361.52,-159.86C368.62,-150.5 377.1,-139.33 382.86,-131.75"/>
<polygon fill="midnightblue" stroke="midnightblue" points="358.53,-158 355.27,-168.08 364.11,-162.24 358.53,-158"/>
</g>
<!-- Node8&#45;&gt;Node3 -->
<g id="edge11" class="edge">
<title>Node8&#45;&gt;Node3</title>
<path fill="none" stroke="midnightblue" d="M417.16,-108.23C439.05,-98.13 469,-84.31 488.05,-75.52"/>
<polygon fill="midnightblue" stroke="midnightblue" points="415.65,-105.08 408.04,-112.44 418.59,-111.43 415.65,-105.08"/>
</g>
<!-- Node10&#45;&gt;Node3 -->
<g id="edge14" class="edge">
<title>Node10&#45;&gt;Node3</title>
<path fill="none" stroke="midnightblue" d="M532.44,-103.86C525.86,-94.5 517.99,-83.33 512.66,-75.75"/>
<polygon fill="midnightblue" stroke="midnightblue" points="529.61,-105.92 538.23,-112.08 535.33,-101.89 529.61,-105.92"/>
</g>
<!-- Node11&#45;&gt;Node3 -->
<g id="edge16" class="edge">
<title>Node11&#45;&gt;Node3</title>
<path fill="none" stroke="midnightblue" d="M635.55,-214.28C633.32,-188.42 625.79,-141.62 600.5,-112 584.87,-93.7 560.11,-82.27 539.93,-75.51"/>
<polygon fill="midnightblue" stroke="midnightblue" points="632.06,-214.52 636.24,-224.26 639.05,-214.04 632.06,-214.52"/>
</g>
<!-- Node12&#45;&gt;Node3 -->
<g id="edge18" class="edge">
<title>Node12&#45;&gt;Node3</title>
<path fill="none" stroke="midnightblue" d="M686.29,-160.04C674.19,-145.51 655.08,-124.95 634.5,-112 606.59,-94.43 570.93,-82.62 544.33,-75.53"/>
<polygon fill="midnightblue" stroke="midnightblue" points="683.86,-162.6 692.86,-168.18 689.3,-158.2 683.86,-162.6"/>
</g>
<!-- Node13 -->
<g id="node13" class="node">
<title>Node13</title>
<g id="a_node13"><a xlink:href="Controller_8hpp.html" target="_top" xlink:title=" ">
<polygon fill="white" stroke="black" points="687,-112.5 687,-131.5 818,-131.5 818,-112.5 687,-112.5"/>
<text text-anchor="middle" x="752.5" y="-119.5" font-family="'Consolas',monospace" font-size="10.00">jngl/Controller.hpp</text>
</a>
</g>
</g>
<!-- Node12&#45;&gt;Node13 -->
<g id="edge19" class="edge">
<title>Node12&#45;&gt;Node13</title>
<path fill="none" stroke="midnightblue" d="M715.48,-160.72C724.82,-151.2 736.25,-139.56 743.91,-131.75"/>
<polygon fill="midnightblue" stroke="midnightblue" points="712.76,-158.49 708.25,-168.08 717.75,-163.4 712.76,-158.49"/>
</g>
<!-- Node13&#45;&gt;Node3 -->
<g id="edge20" class="edge">
<title>Node13&#45;&gt;Node3</title>
<path fill="none" stroke="midnightblue" d="M703.67,-110.28C657.18,-100.08 588.14,-84.92 545.3,-75.52"/>
<polygon fill="midnightblue" stroke="midnightblue" points="703,-113.72 713.52,-112.44 704.5,-106.88 703,-113.72"/>
</g>
<!-- Node14&#45;&gt;Node3 -->
<g id="edge22" class="edge">
<title>Node14&#45;&gt;Node3</title>
<path fill="none" stroke="midnightblue" d="M840.33,-219.27C852.24,-211.81 864.9,-201.34 871.5,-188 888.91,-152.82 860.63,-131.4 826.5,-112 780.35,-85.77 627.55,-73.73 551.01,-69.23"/>
<polygon fill="midnightblue" stroke="midnightblue" points="838.38,-216.36 831.48,-224.4 841.89,-222.41 838.38,-216.36"/>
</g>
<!-- Node15 -->
<g id="node15" class="node">
<title>Node15</title>
<g id="a_node15"><a xlink:href="init_8hpp.html" target="_top" xlink:title="Include this file only once, as it defines the main function.">
<polygon fill="white" stroke="black" points="768,-168.5 768,-187.5 863,-187.5 863,-168.5 768,-168.5"/>
<text text-anchor="middle" x="815.5" y="-175.5" font-family="'Consolas',monospace" font-size="10.00">jngl/init.hpp</text>
</a>
</g>
</g>
<!-- Node14&#45;&gt;Node15 -->
<g id="edge23" class="edge">
<title>Node14&#45;&gt;Node15</title>
<path fill="none" stroke="midnightblue" d="M813.57,-213.8C814.06,-204.91 814.62,-194.78 815.01,-187.75"/>
<polygon fill="midnightblue" stroke="midnightblue" points="810.06,-213.9 813,-224.08 817.04,-214.29 810.06,-213.9"/>
</g>
<!-- Node16&#45;&gt;Node3 -->
<g id="edge25" class="edge">
<title>Node16&#45;&gt;Node3</title>
<path fill="none" stroke="midnightblue" d="M930.9,-214.92C919.89,-187.57 894.99,-136.31 855.5,-112 805.42,-81.18 633.32,-71.27 551.02,-68.24"/>
<polygon fill="midnightblue" stroke="midnightblue" points="927.7,-216.35 934.55,-224.42 934.23,-213.83 927.7,-216.35"/>
</g>
<!-- Node17&#45;&gt;Node3 -->
<g id="edge28" class="edge">
<title>Node17&#45;&gt;Node3</title>
<path fill="none" stroke="midnightblue" d="M472.57,-158.8C476.35,-145.68 481.82,-127.6 487.5,-112 492.2,-99.09 498.56,-84.5 502.6,-75.52"/>
<polygon fill="midnightblue" stroke="midnightblue" points="469.18,-157.92 469.82,-168.5 475.91,-159.83 469.18,-157.92"/>
</g>
<!-- Node17&#45;&gt;Node8 -->
<g id="edge29" class="edge">
<title>Node17&#45;&gt;Node8</title>
<path fill="none" stroke="midnightblue" d="M446.73,-162.62C432.48,-152.76 414.04,-139.99 402,-131.65"/>
<polygon fill="midnightblue" stroke="midnightblue" points="444.75,-165.51 454.97,-168.32 448.74,-159.75 444.75,-165.51"/>
</g>
</g>
</svg>
