<?xml version="1.0" encoding="UTF-8" standalone="no"?>
<!DOCTYPE svg PUBLIC "-//W3C//DTD SVG 1.1//EN"
 "http://www.w3.org/Graphics/SVG/1.1/DTD/svg11.dtd">
<!-- Generated by graphviz version 9.0.0 (20230911.1827)
 -->
<!-- Title: jngl/Vec2.hpp Pages: 1 -->
<svg width="1528pt" height="248pt"
 viewBox="0.00 0.00 1528.00 248.25" xmlns="http://www.w3.org/2000/svg" xmlns:xlink="http://www.w3.org/1999/xlink">
<g id="graph0" class="graph" transform="scale(1 1) rotate(0) translate(4 244.25)">
<title>jngl/Vec2.hpp</title>
<!-- Node1 -->
<g id="Node000001" class="node">
<title>Node1</title>
<g id="a_Node000001"><a xlink:title="Contains jngl::Vec2 class.">
<polygon fill="#999999" stroke="#666666" points="755,-240.25 661,-240.25 661,-221 755,-221 755,-240.25"/>
<text text-anchor="middle" x="708" y="-226.75" font-family="ui-monospace,monospace" font-size="10.00">jngl/Vec2.hpp</text>
</a>
</g>
</g>
<!-- Node2 -->
<g id="Node000002" class="node">
<title>Node2</title>
<g id="a_Node000002"><a xlink:href="AppParameters_8hpp.html" target="_top" xlink:title="Contains jngl::AppParameters struct.">
<polygon fill="white" stroke="#666666" points="148,-185 0,-185 0,-165.75 148,-165.75 148,-185"/>
<text text-anchor="middle" x="74" y="-171.5" font-family="ui-monospace,monospace" font-size="10.00">jngl/AppParameters.hpp</text>
</a>
</g>
</g>
<!-- Node1&#45;&gt;Node2 -->
<g id="edge1_Node000001_Node000002" class="edge">
<title>Node1&#45;&gt;Node2</title>
<g id="a_edge1_Node000001_Node000002"><a xlink:title=" ">
<path fill="none" stroke="#63b8ff" d="M649.18,-224.68C533.3,-214.95 275.71,-193.32 148.3,-182.62"/>
<polygon fill="#63b8ff" stroke="#63b8ff" points="648.84,-228.17 659.1,-225.52 649.43,-221.19 648.84,-228.17"/>
</a>
</g>
</g>
<!-- Node4 -->
<g id="Node000004" class="node">
<title>Node4</title>
<g id="a_Node000004"><a xlink:href="Drawable_8hpp.html" target="_top" xlink:title="Contains jngl::Drawable class.">
<polygon fill="white" stroke="#666666" points="381,-185 263,-185 263,-165.75 381,-165.75 381,-185"/>
<text text-anchor="middle" x="322" y="-171.5" font-family="ui-monospace,monospace" font-size="10.00">jngl/Drawable.hpp</text>
</a>
</g>
</g>
<!-- Node1&#45;&gt;Node4 -->
<g id="edge3_Node000001_Node000004" class="edge">
<title>Node1&#45;&gt;Node4</title>
<g id="a_edge3_Node000001_Node000004"><a xlink:title=" ">
<path fill="none" stroke="#63b8ff" d="M649.49,-221.55C577.03,-211.56 454.3,-194.63 381.43,-184.57"/>
<polygon fill="#63b8ff" stroke="#63b8ff" points="648.78,-224.99 659.17,-222.89 649.74,-218.05 648.78,-224.99"/>
</a>
</g>
</g>
<!-- Node6 -->
<g id="Node000006" class="node">
<title>Node6</title>
<g id="a_Node000006"><a xlink:href="Sprite_8hpp.html" target="_top" xlink:title="Contains jngl::Sprite class and related functions.">
<polygon fill="white" stroke="#666666" points="232,-129.75 126,-129.75 126,-110.5 232,-110.5 232,-129.75"/>
<text text-anchor="middle" x="179" y="-116.25" font-family="ui-monospace,monospace" font-size="10.00">jngl/Sprite.hpp</text>
</a>
</g>
</g>
<!-- Node1&#45;&gt;Node6 -->
<g id="edge17_Node000001_Node000006" class="edge">
<title>Node1&#45;&gt;Node6</title>
<g id="a_edge17_Node000001_Node000006"><a xlink:title=" ">
<path fill="none" stroke="#63b8ff" d="M649.07,-228.19C542.82,-224.89 323.73,-214.62 254,-185 224.72,-172.56 198.4,-144.48 186.19,-130.05"/>
<polygon fill="#63b8ff" stroke="#63b8ff" points="648.91,-231.69 659.01,-228.49 649.12,-224.69 648.91,-231.69"/>
</a>
</g>
</g>
<!-- Node9 -->
<g id="Node000009" class="node">
<title>Node9</title>
<g id="a_Node000009"><a xlink:href="FrameBuffer_8hpp.html" target="_top" xlink:title="Contains jngl::FrameBuffer class.">
<polygon fill="white" stroke="#666666" points="650,-74.5 520,-74.5 520,-55.25 650,-55.25 650,-74.5"/>
<text text-anchor="middle" x="585" y="-61" font-family="ui-monospace,monospace" font-size="10.00">jngl/FrameBuffer.hpp</text>
</a>
</g>
</g>
<!-- Node1&#45;&gt;Node9 -->
<g id="edge11_Node000001_Node000009" class="edge">
<title>Node1&#45;&gt;Node9</title>
<g id="a_edge11_Node000001_Node000009"><a xlink:title=" ">
<path fill="none" stroke="#63b8ff" d="M702.16,-209.91C693.94,-184.69 676.98,-140.65 651,-110.5 637.73,-95.1 617.94,-82.67 603.49,-74.88"/>
<polygon fill="#63b8ff" stroke="#63b8ff" points="698.74,-210.69 705.05,-219.2 705.42,-208.61 698.74,-210.69"/>
</a>
</g>
</g>
<!-- Node10 -->
<g id="Node000010" class="node">
<title>Node10</title>
<g id="a_Node000010"><a xlink:href="MouseInfo_8hpp.html" target="_top" xlink:title="Contains jngl::MouseInfo class.">
<polygon fill="white" stroke="#666666" points="792,-74.5 668,-74.5 668,-55.25 792,-55.25 792,-74.5"/>
<text text-anchor="middle" x="730" y="-61" font-family="ui-monospace,monospace" font-size="10.00">jngl/MouseInfo.hpp</text>
</a>
</g>
</g>
<!-- Node1&#45;&gt;Node10 -->
<g id="edge13_Node000001_Node000010" class="edge">
<title>Node1&#45;&gt;Node10</title>
<g id="a_edge13_Node000001_Node000010"><a xlink:title=" ">
<path fill="none" stroke="#63b8ff" d="M710.71,-209.47C715.53,-173.61 725.4,-100.1 728.81,-74.72"/>
<polygon fill="#63b8ff" stroke="#63b8ff" points="707.25,-208.94 709.38,-219.32 714.18,-209.88 707.25,-208.94"/>
</a>
</g>
</g>
<!-- Node11 -->
<g id="Node000011" class="node">
<title>Node11</title>
<g id="a_Node000011"><a xlink:href="Rect_8hpp.html" target="_top" xlink:title="Contains jngl::Rect class.">
<polygon fill="white" stroke="#666666" points="830,-185 736,-185 736,-165.75 830,-165.75 830,-185"/>
<text text-anchor="middle" x="783" y="-171.5" font-family="ui-monospace,monospace" font-size="10.00">jngl/Rect.hpp</text>
</a>
</g>
</g>
<!-- Node1&#45;&gt;Node11 -->
<g id="edge15_Node000001_Node000011" class="edge">
<title>Node1&#45;&gt;Node11</title>
<g id="a_edge15_Node000001_Node000011"><a xlink:title=" ">
<path fill="none" stroke="#63b8ff" d="M729.99,-214.01C743.07,-204.72 759.21,-193.27 770.21,-185.45"/>
<polygon fill="#63b8ff" stroke="#63b8ff" points="728.08,-211.07 721.96,-219.72 732.14,-216.78 728.08,-211.07"/>
</a>
</g>
</g>
<!-- Node12 -->
<g id="Node000012" class="node">
<title>Node12</title>
<g id="a_Node000012"><a xlink:href="TextLine_8hpp.html" target="_top" xlink:title="Contains jngl::TextLine class.">
<polygon fill="white" stroke="#666666" points="518,-129.75 400,-129.75 400,-110.5 518,-110.5 518,-129.75"/>
<text text-anchor="middle" x="459" y="-116.25" font-family="ui-monospace,monospace" font-size="10.00">jngl/TextLine.hpp</text>
</a>
</g>
</g>
<!-- Node1&#45;&gt;Node12 -->
<g id="edge18_Node000001_Node000012" class="edge">
<title>Node1&#45;&gt;Node12</title>
<g id="a_edge18_Node000001_Node000012"><a xlink:title=" ">
<path fill="none" stroke="#63b8ff" d="M676.7,-215.98C625.13,-193.52 523.69,-149.31 479.92,-130.24"/>
<polygon fill="#63b8ff" stroke="#63b8ff" points="675.25,-219.17 685.81,-219.96 678.04,-212.75 675.25,-219.17"/>
</a>
</g>
</g>
<!-- Node13 -->
<g id="Node000013" class="node">
<title>Node13</title>
<g id="a_Node000013"><a xlink:href="Widget_8hpp.html" target="_top" xlink:title="Contains jngl::Container class.">
<polygon fill="white" stroke="#666666" points="642,-129.75 536,-129.75 536,-110.5 642,-110.5 642,-129.75"/>
<text text-anchor="middle" x="589" y="-116.25" font-family="ui-monospace,monospace" font-size="10.00">jngl/Widget.hpp</text>
</a>
</g>
</g>
<!-- Node1&#45;&gt;Node13 -->
<g id="edge21_Node000001_Node000013" class="edge">
<title>Node1&#45;&gt;Node13</title>
<g id="a_edge21_Node000001_Node000013"><a xlink:title=" ">
<path fill="none" stroke="#63b8ff" d="M688.46,-213.28C678.62,-204.93 666.56,-194.56 656,-185 634.79,-165.81 610.68,-142.42 597.96,-129.96"/>
<polygon fill="#63b8ff" stroke="#63b8ff" points="686.04,-215.81 695.94,-219.58 690.55,-210.46 686.04,-215.81"/>
</a>
</g>
</g>
<!-- Node14 -->
<g id="Node000014" class="node">
<title>Node14</title>
<g id="a_Node000014"><a xlink:href="effects_8hpp.html" target="_top" xlink:title="Effects that can be applied to jngl::Widget.">
<polygon fill="white" stroke="#666666" points="954,-185 848,-185 848,-165.75 954,-165.75 954,-185"/>
<text text-anchor="middle" x="901" y="-171.5" font-family="ui-monospace,monospace" font-size="10.00">jngl/effects.hpp</text>
</a>
</g>
</g>
<!-- Node1&#45;&gt;Node14 -->
<g id="edge24_Node000001_Node000014" class="edge">
<title>Node1&#45;&gt;Node14</title>
<g id="a_edge24_Node000001_Node000014"><a xlink:title=" ">
<path fill="none" stroke="#63b8ff" d="M751.69,-217.57C787.03,-207.82 836.02,-194.3 868.1,-185.45"/>
<polygon fill="#63b8ff" stroke="#63b8ff" points="750.91,-214.16 742.2,-220.19 752.77,-220.9 750.91,-214.16"/>
</a>
</g>
</g>
<!-- Node15 -->
<g id="Node000015" class="node">
<title>Node15</title>
<g id="a_Node000015"><a xlink:href="font_8hpp.html" target="_top" xlink:title="Contains jngl::Font class and related functions.">
<polygon fill="white" stroke="#666666" points="1029,-129.75 935,-129.75 935,-110.5 1029,-110.5 1029,-129.75"/>
<text text-anchor="middle" x="982" y="-116.25" font-family="ui-monospace,monospace" font-size="10.00">jngl/font.hpp</text>
</a>
</g>
</g>
<!-- Node1&#45;&gt;Node15 -->
<g id="edge26_Node000001_Node000015" class="edge">
<title>Node1&#45;&gt;Node15</title>
<g id="a_edge26_Node000001_Node000015"><a xlink:title=" ">
<path fill="none" stroke="#63b8ff" d="M766.54,-226.41C832.62,-221.61 934.64,-210.25 963,-185 978.9,-170.84 981.76,-144.04 982.11,-130.08"/>
<polygon fill="#63b8ff" stroke="#63b8ff" points="766.69,-222.89 756.96,-227.08 767.18,-229.88 766.69,-222.89"/>
</a>
</g>
</g>
<!-- Node17 -->
<g id="Node000017" class="node">
<title>Node17</title>
<g id="a_Node000017"><a xlink:href="input_8hpp.html" target="_top" xlink:title="Input related functions.">
<polygon fill="white" stroke="#666666" points="1282,-129.75 1182,-129.75 1182,-110.5 1282,-110.5 1282,-129.75"/>
<text text-anchor="middle" x="1232" y="-116.25" font-family="ui-monospace,monospace" font-size="10.00">jngl/input.hpp</text>
</a>
</g>
</g>
<!-- Node1&#45;&gt;Node17 -->
<g id="edge30_Node000001_Node000017" class="edge">
<title>Node1&#45;&gt;Node17</title>
<g id="a_edge30_Node000001_Node000017"><a xlink:title=" ">
<path fill="none" stroke="#63b8ff" d="M766.54,-221.69C822.4,-213.75 908.81,-200.5 983,-185 1061.85,-168.52 1153.3,-143.53 1200.38,-130.22"/>
<polygon fill="#63b8ff" stroke="#63b8ff" points="766.35,-218.18 756.94,-223.04 767.33,-225.11 766.35,-218.18"/>
</a>
</g>
</g>
<!-- Node20 -->
<g id="Node000020" class="node">
<title>Node20</title>
<g id="a_Node000020"><a xlink:href="screen_8hpp.html" target="_top" xlink:title=" ">
<polygon fill="white" stroke="#666666" points="1258,-185 1152,-185 1152,-165.75 1258,-165.75 1258,-185"/>
<text text-anchor="middle" x="1205" y="-171.5" font-family="ui-monospace,monospace" font-size="10.00">jngl/screen.hpp</text>
</a>
</g>
</g>
<!-- Node1&#45;&gt;Node20 -->
<g id="edge36_Node000001_Node000020" class="edge">
<title>Node1&#45;&gt;Node20</title>
<g id="a_edge36_Node000001_Node000020"><a xlink:title=" ">
<path fill="none" stroke="#63b8ff" d="M766.6,-223.35C864.06,-212.9 1058.01,-192.12 1151.78,-182.08"/>
<polygon fill="#63b8ff" stroke="#63b8ff" points="766.28,-219.86 756.71,-224.41 767.03,-226.82 766.28,-219.86"/>
</a>
</g>
</g>
<!-- Node21 -->
<g id="Node000021" class="node">
<title>Node21</title>
<g id="a_Node000021"><a xlink:href="shapes_8hpp.html" target="_top" xlink:title="Functions for drawing shapes.">
<polygon fill="white" stroke="#666666" points="1520,-185 1414,-185 1414,-165.75 1520,-165.75 1520,-185"/>
<text text-anchor="middle" x="1467" y="-171.5" font-family="ui-monospace,monospace" font-size="10.00">jngl/shapes.hpp</text>
</a>
</g>
</g>
<!-- Node1&#45;&gt;Node21 -->
<g id="edge38_Node000001_Node000021" class="edge">
<title>Node1&#45;&gt;Node21</title>
<g id="a_edge38_Node000001_Node000021"><a xlink:title=" ">
<path fill="none" stroke="#63b8ff" d="M766.61,-225.51C909.83,-215.47 1275.85,-189.79 1413.54,-180.13"/>
<polygon fill="#63b8ff" stroke="#63b8ff" points="766.72,-222 756.99,-226.19 767.21,-228.98 766.72,-222"/>
</a>
</g>
</g>
<!-- Node3 -->
<g id="Node000003" class="node">
<title>Node3</title>
<g id="a_Node000003"><a xlink:href="init_8hpp.html" target="_top" xlink:title="Include this file only once, as it defines the main function.">
<polygon fill="white" stroke="#666666" points="108,-129.75 14,-129.75 14,-110.5 108,-110.5 108,-129.75"/>
<text text-anchor="middle" x="61" y="-116.25" font-family="ui-monospace,monospace" font-size="10.00">jngl/init.hpp</text>
</a>
</g>
</g>
<!-- Node2&#45;&gt;Node3 -->
<g id="edge2_Node000002_Node000003" class="edge">
<title>Node2&#45;&gt;Node3</title>
<g id="a_edge2_Node000002_Node000003"><a xlink:title=" ">
<path fill="none" stroke="#63b8ff" d="M69.13,-154.42C67.09,-146.05 64.81,-136.75 63.19,-130.11"/>
<polygon fill="#63b8ff" stroke="#63b8ff" points="65.72,-155.23 71.49,-164.11 72.52,-153.57 65.72,-155.23"/>
</a>
</g>
</g>
<!-- Node5 -->
<g id="Node000005" class="node">
<title>Node5</title>
<g id="a_Node000005"><a xlink:href="jngl_8hpp.html" target="_top" xlink:title="Includes all JNGL headers except for init.hpp.">
<polygon fill="white" stroke="#666666" points="852,-19.25 788,-19.25 788,0 852,0 852,-19.25"/>
<text text-anchor="middle" x="820" y="-5.75" font-family="ui-monospace,monospace" font-size="10.00">jngl.hpp</text>
</a>
</g>
</g>
<!-- Node4&#45;&gt;Node5 -->
<g id="edge4_Node000004_Node000005" class="edge">
<title>Node4&#45;&gt;Node5</title>
<g id="a_edge4_Node000004_Node000005"><a xlink:title=" ">
<path fill="none" stroke="#63b8ff" d="M300.35,-158.13C292.01,-150.54 283.43,-140.74 279,-129.75 265.71,-96.8 278.42,-74.94 308,-55.25 347.88,-28.71 681.15,-15.29 787.51,-11.66"/>
<polygon fill="#63b8ff" stroke="#63b8ff" points="298.02,-160.74 307.93,-164.48 302.52,-155.38 298.02,-160.74"/>
</a>
</g>
</g>
<!-- Node4&#45;&gt;Node6 -->
<g id="edge5_Node000004_Node000006" class="edge">
<title>Node4&#45;&gt;Node6</title>
<g id="a_edge5_Node000004_Node000006"><a xlink:title=" ">
<path fill="none" stroke="#63b8ff" d="M287.22,-161.42C261.25,-151.75 226.43,-138.79 203.38,-130.2"/>
<polygon fill="#63b8ff" stroke="#63b8ff" points="285.73,-164.6 296.32,-164.81 288.17,-158.04 285.73,-164.6"/>
</a>
</g>
</g>
<!-- Node7 -->
<g id="Node000007" class="node">
<title>Node7</title>
<g id="a_Node000007"><a xlink:href="text_8hpp.html" target="_top" xlink:title=" ">
<polygon fill="white" stroke="#666666" points="382,-129.75 288,-129.75 288,-110.5 382,-110.5 382,-129.75"/>
<text text-anchor="middle" x="335" y="-116.25" font-family="ui-monospace,monospace" font-size="10.00">jngl/text.hpp</text>
</a>
</g>
</g>
<!-- Node4&#45;&gt;Node7 -->
<g id="edge7_Node000004_Node000007" class="edge">
<title>Node4&#45;&gt;Node7</title>
<g id="a_edge7_Node000004_Node000007"><a xlink:title=" ">
<path fill="none" stroke="#63b8ff" d="M326.87,-154.42C328.91,-146.05 331.19,-136.75 332.81,-130.11"/>
<polygon fill="#63b8ff" stroke="#63b8ff" points="323.48,-153.57 324.51,-164.11 330.28,-155.23 323.48,-153.57"/>
</a>
</g>
</g>
<!-- Node6&#45;&gt;Node5 -->
<g id="edge6_Node000006_Node000005" class="edge">
<title>Node6&#45;&gt;Node5</title>
<g id="a_edge6_Node000006_Node000005"><a xlink:title=" ">
<path fill="none" stroke="#63b8ff" d="M192,-101.16C204.11,-86.01 223.61,-65.24 246,-55.25 344.02,-11.53 681.51,-9.76 787.73,-10.32"/>
<polygon fill="#63b8ff" stroke="#63b8ff" points="189.36,-98.86 186.08,-108.94 194.93,-103.1 189.36,-98.86"/>
</a>
</g>
</g>
<!-- Node7&#45;&gt;Node5 -->
<g id="edge8_Node000007_Node000005" class="edge">
<title>Node7&#45;&gt;Node5</title>
<g id="a_edge8_Node000007_Node000005"><a xlink:title=" ">
<path fill="none" stroke="#63b8ff" d="M321.67,-100.88C313.14,-86.81 305.61,-67.7 317,-55.25 348.78,-20.53 681.2,-12.66 787.5,-11.02"/>
<polygon fill="#63b8ff" stroke="#63b8ff" points="318.51,-102.44 326.97,-108.82 324.33,-98.56 318.51,-102.44"/>
</a>
</g>
</g>
<!-- Node8 -->
<g id="Node000008" class="node">
<title>Node8</title>
<g id="a_Node000008"><a xlink:href="Label_8hpp.html" target="_top" xlink:title="Contains jngl::Label class.">
<polygon fill="white" stroke="#666666" points="426,-74.5 326,-74.5 326,-55.25 426,-55.25 426,-74.5"/>
<text text-anchor="middle" x="376" y="-61" font-family="ui-monospace,monospace" font-size="10.00">jngl/Label.hpp</text>
</a>
</g>
</g>
<!-- Node7&#45;&gt;Node8 -->
<g id="edge9_Node000007_Node000008" class="edge">
<title>Node7&#45;&gt;Node8</title>
<g id="a_edge9_Node000007_Node000008"><a xlink:title=" ">
<path fill="none" stroke="#63b8ff" d="M348.59,-101.47C355.46,-92.56 363.49,-82.12 369.08,-74.86"/>
<polygon fill="#63b8ff" stroke="#63b8ff" points="346.02,-99.07 342.69,-109.13 351.57,-103.34 346.02,-99.07"/>
</a>
</g>
</g>
<!-- Node8&#45;&gt;Node5 -->
<g id="edge10_Node000008_Node000005" class="edge">
<title>Node8&#45;&gt;Node5</title>
<g id="a_edge10_Node000008_Node000005"><a xlink:title=" ">
<path fill="none" stroke="#63b8ff" d="M437.48,-55.57C438.33,-55.46 439.17,-55.36 440,-55.25 568.68,-39.03 722.12,-21.59 787.7,-14.23"/>
<polygon fill="#63b8ff" stroke="#63b8ff" points="437.27,-52.07 427.8,-56.82 438.17,-59.01 437.27,-52.07"/>
</a>
</g>
</g>
<!-- Node9&#45;&gt;Node5 -->
<g id="edge12_Node000009_Node000005" class="edge">
<title>Node9&#45;&gt;Node5</title>
<g id="a_edge12_Node000009_Node000005"><a xlink:title=" ">
<path fill="none" stroke="#63b8ff" d="M636.08,-52.3C682.13,-41.86 748.46,-26.84 787.6,-17.97"/>
<polygon fill="#63b8ff" stroke="#63b8ff" points="635.59,-48.82 626.61,-54.45 637.13,-55.65 635.59,-48.82"/>
</a>
</g>
</g>
<!-- Node10&#45;&gt;Node5 -->
<g id="edge14_Node000010_Node000005" class="edge">
<title>Node10&#45;&gt;Node5</title>
<g id="a_edge14_Node000010_Node000005"><a xlink:title=" ">
<path fill="none" stroke="#63b8ff" d="M755.02,-49.07C770.94,-39.65 791.06,-27.75 804.66,-19.7"/>
<polygon fill="#63b8ff" stroke="#63b8ff" points="753.39,-45.97 746.57,-54.07 756.96,-51.99 753.39,-45.97"/>
</a>
</g>
</g>
<!-- Node11&#45;&gt;Node5 -->
<g id="edge16_Node000011_Node000005" class="edge">
<title>Node11&#45;&gt;Node5</title>
<g id="a_edge16_Node000011_Node000005"><a xlink:title=" ">
<path fill="none" stroke="#63b8ff" d="M787.45,-154.69C795.51,-119 812.24,-44.96 818,-19.47"/>
<polygon fill="#63b8ff" stroke="#63b8ff" points="784.11,-153.57 785.32,-164.09 790.94,-155.11 784.11,-153.57"/>
</a>
</g>
</g>
<!-- Node12&#45;&gt;Node5 -->
<g id="edge19_Node000012_Node000005" class="edge">
<title>Node12&#45;&gt;Node5</title>
<g id="a_edge19_Node000012_Node000005"><a xlink:title=" ">
<path fill="none" stroke="#63b8ff" d="M466.72,-99.84C473.67,-85.12 485.37,-65.65 502,-55.25 549.21,-25.73 716.35,-15.11 787.53,-11.87"/>
<polygon fill="#63b8ff" stroke="#63b8ff" points="463.53,-98.41 462.76,-108.98 469.95,-101.19 463.53,-98.41"/>
</a>
</g>
</g>
<!-- Node12&#45;&gt;Node8 -->
<g id="edge20_Node000012_Node000008" class="edge">
<title>Node12&#45;&gt;Node8</title>
<g id="a_edge20_Node000012_Node000008"><a xlink:title=" ">
<path fill="none" stroke="#63b8ff" d="M435.51,-104.05C420.89,-94.67 402.57,-82.92 390.15,-74.95"/>
<polygon fill="#63b8ff" stroke="#63b8ff" points="433.34,-106.82 443.65,-109.27 437.12,-100.93 433.34,-106.82"/>
</a>
</g>
</g>
<!-- Node13&#45;&gt;Node5 -->
<g id="edge22_Node000013_Node000005" class="edge">
<title>Node13&#45;&gt;Node5</title>
<g id="a_edge22_Node000013_Node000005"><a xlink:title=" ">
<path fill="none" stroke="#63b8ff" d="M551.77,-105.83C524.02,-93.91 493.68,-75.25 511,-55.25 546.57,-14.17 715.97,-10.07 787.74,-10.22"/>
<polygon fill="#63b8ff" stroke="#63b8ff" points="550.19,-108.97 560.77,-109.49 552.82,-102.48 550.19,-108.97"/>
</a>
</g>
</g>
<!-- Node13&#45;&gt;Node8 -->
<g id="edge23_Node000013_Node000008" class="edge">
<title>Node13&#45;&gt;Node8</title>
<g id="a_edge23_Node000013_Node000008"><a xlink:title=" ">
<path fill="none" stroke="#63b8ff" d="M541.79,-107.32C502.72,-97.55 448.02,-83.88 412.31,-74.95"/>
<polygon fill="#63b8ff" stroke="#63b8ff" points="540.85,-110.69 551.4,-109.72 542.55,-103.9 540.85,-110.69"/>
</a>
</g>
</g>
<!-- Node14&#45;&gt;Node5 -->
<g id="edge25_Node000014_Node000005" class="edge">
<title>Node14&#45;&gt;Node5</title>
<g id="a_edge25_Node000014_Node000005"><a xlink:title=" ">
<path fill="none" stroke="#63b8ff" d="M891.72,-155.62C874.25,-120.3 837.09,-45.18 824.38,-19.47"/>
<polygon fill="#63b8ff" stroke="#63b8ff" points="888.4,-156.8 895.97,-164.21 894.68,-153.7 888.4,-156.8"/>
</a>
</g>
</g>
<!-- Node15&#45;&gt;Node5 -->
<g id="edge27_Node000015_Node000005" class="edge">
<title>Node15&#45;&gt;Node5</title>
<g id="a_edge27_Node000015_Node000005"><a xlink:title=" ">
<path fill="none" stroke="#63b8ff" d="M1009.39,-104.23C1029.44,-91.41 1050.92,-72.33 1037,-55.25 1014.03,-27.08 906.7,-16.18 852.09,-12.41"/>
<polygon fill="#63b8ff" stroke="#63b8ff" points="1007.59,-101.23 1000.82,-109.38 1011.2,-107.23 1007.59,-101.23"/>
</a>
</g>
</g>
<!-- Node16 -->
<g id="Node000016" class="node">
<title>Node16</title>
<g id="a_Node000016"><a xlink:href="OutlinedFont_8hpp.html" target="_top" xlink:title="Contains jngl::OutlinedFont class.">
<polygon fill="white" stroke="#666666" points="1028,-74.5 886,-74.5 886,-55.25 1028,-55.25 1028,-74.5"/>
<text text-anchor="middle" x="957" y="-61" font-family="ui-monospace,monospace" font-size="10.00">jngl/OutlinedFont.hpp</text>
</a>
</g>
</g>
<!-- Node15&#45;&gt;Node16 -->
<g id="edge28_Node000015_Node000016" class="edge">
<title>Node15&#45;&gt;Node16</title>
<g id="a_edge28_Node000015_Node000016"><a xlink:title=" ">
<path fill="none" stroke="#63b8ff" d="M973.04,-100.04C969.01,-91.46 964.44,-81.73 961.22,-74.86"/>
<polygon fill="#63b8ff" stroke="#63b8ff" points="969.81,-101.4 977.23,-108.96 976.15,-98.42 969.81,-101.4"/>
</a>
</g>
</g>
<!-- Node16&#45;&gt;Node5 -->
<g id="edge29_Node000016_Node000005" class="edge">
<title>Node16&#45;&gt;Node5</title>
<g id="a_edge29_Node000016_Node000005"><a xlink:title=" ">
<path fill="none" stroke="#63b8ff" d="M923.34,-50.79C898.51,-41.14 865.34,-28.25 843.35,-19.7"/>
<polygon fill="#63b8ff" stroke="#63b8ff" points="921.76,-53.93 932.35,-54.29 924.3,-47.41 921.76,-53.93"/>
</a>
</g>
</g>
<!-- Node17&#45;&gt;Node5 -->
<g id="edge31_Node000017_Node000005" class="edge">
<title>Node17&#45;&gt;Node5</title>
<g id="a_edge31_Node000017_Node000005"><a xlink:title=" ">
<path fill="none" stroke="#63b8ff" d="M1293.55,-115.74C1357.6,-110.06 1443.81,-94.97 1407,-55.25 1369.14,-14.4 970.09,-10.76 852.46,-10.58"/>
<polygon fill="#63b8ff" stroke="#63b8ff" points="1293.47,-112.24 1283.79,-116.54 1294.04,-119.21 1293.47,-112.24"/>
</a>
</g>
</g>
<!-- Node18 -->
<g id="Node000018" class="node">
<title>Node18</title>
<g id="a_Node000018"><a xlink:href="Controller_8hpp.html" target="_top" xlink:title="Contains jngl::Controller class.">
<polygon fill="white" stroke="#666666" points="1214,-74.5 1084,-74.5 1084,-55.25 1214,-55.25 1214,-74.5"/>
<text text-anchor="middle" x="1149" y="-61" font-family="ui-monospace,monospace" font-size="10.00">jngl/Controller.hpp</text>
</a>
</g>
</g>
<!-- Node17&#45;&gt;Node18 -->
<g id="edge32_Node000017_Node000018" class="edge">
<title>Node17&#45;&gt;Node18</title>
<g id="a_edge32_Node000017_Node000018"><a xlink:title=" ">
<path fill="none" stroke="#63b8ff" d="M1208.51,-104.05C1193.89,-94.67 1175.57,-82.92 1163.15,-74.95"/>
<polygon fill="#63b8ff" stroke="#63b8ff" points="1206.34,-106.82 1216.65,-109.27 1210.12,-100.93 1206.34,-106.82"/>
</a>
</g>
</g>
<!-- Node19 -->
<g id="Node000019" class="node">
<title>Node19</title>
<g id="a_Node000019"><a xlink:href="KeyboardShortcut_8hpp.html" target="_top" xlink:title="Contains jngl::KeyboardShortcut class.">
<polygon fill="white" stroke="#666666" points="1398,-74.5 1232,-74.5 1232,-55.25 1398,-55.25 1398,-74.5"/>
<text text-anchor="middle" x="1315" y="-61" font-family="ui-monospace,monospace" font-size="10.00">jngl/KeyboardShortcut.hpp</text>
</a>
</g>
</g>
<!-- Node17&#45;&gt;Node19 -->
<g id="edge34_Node000017_Node000019" class="edge">
<title>Node17&#45;&gt;Node19</title>
<g id="a_edge34_Node000017_Node000019"><a xlink:title=" ">
<path fill="none" stroke="#63b8ff" d="M1255.49,-104.05C1270.11,-94.67 1288.43,-82.92 1300.85,-74.95"/>
<polygon fill="#63b8ff" stroke="#63b8ff" points="1253.88,-100.93 1247.35,-109.27 1257.66,-106.82 1253.88,-100.93"/>
</a>
</g>
</g>
<!-- Node18&#45;&gt;Node5 -->
<g id="edge33_Node000018_Node000005" class="edge">
<title>Node18&#45;&gt;Node5</title>
<g id="a_edge33_Node000018_Node000005"><a xlink:title=" ">
<path fill="none" stroke="#63b8ff" d="M1081.5,-52.95C1011.64,-41.64 905.46,-24.46 852.47,-15.88"/>
<polygon fill="#63b8ff" stroke="#63b8ff" points="1080.89,-56.4 1091.32,-54.54 1082.01,-49.49 1080.89,-56.4"/>
</a>
</g>
</g>
<!-- Node19&#45;&gt;Node5 -->
<g id="edge35_Node000019_Node000005" class="edge">
<title>Node19&#45;&gt;Node5</title>
<g id="a_edge35_Node000019_Node000005"><a xlink:title=" ">
<path fill="none" stroke="#63b8ff" d="M1220.24,-53.68C1107.66,-41.57 925.84,-22.01 852.36,-14.11"/>
<polygon fill="#63b8ff" stroke="#63b8ff" points="1219.77,-57.15 1230.08,-54.74 1220.52,-50.19 1219.77,-57.15"/>
</a>
</g>
</g>
<!-- Node20&#45;&gt;Node5 -->
<g id="edge37_Node000020_Node000005" class="edge">
<title>Node20&#45;&gt;Node5</title>
<g id="a_edge37_Node000020_Node000005"><a xlink:title=" ">
<path fill="none" stroke="#63b8ff" d="M1269.64,-163.48C1351.89,-147.03 1477.37,-111.63 1425,-55.25 1385.8,-13.05 971.85,-10.39 852.21,-10.5"/>
<polygon fill="#63b8ff" stroke="#63b8ff" points="1268.97,-160.05 1259.83,-165.39 1270.31,-166.92 1268.97,-160.05"/>
</a>
</g>
</g>
<!-- Node21&#45;&gt;Node5 -->
<g id="edge39_Node000021_Node000005" class="edge">
<title>Node21&#45;&gt;Node5</title>
<g id="a_edge39_Node000021_Node000005"><a xlink:title=" ">
<path fill="none" stroke="#63b8ff" d="M1469.75,-154.4C1472.21,-127.45 1471.88,-79.99 1444,-55.25 1399.47,-15.74 973.51,-11.17 852.13,-10.68"/>
<polygon fill="#63b8ff" stroke="#63b8ff" points="1466.31,-153.65 1468.64,-163.98 1473.27,-154.45 1466.31,-153.65"/>
</a>
</g>
</g>
</g>
</svg>
