<?xml version="1.0" encoding="UTF-8" standalone="no"?>
<!DOCTYPE svg PUBLIC "-//W3C//DTD SVG 1.1//EN"
 "http://www.w3.org/Graphics/SVG/1.1/DTD/svg11.dtd">
<!-- Generated by graphviz version 2.40.1 (20161225.0304)
 -->
<!-- Title: jngl/Vec2.hpp Pages: 1 -->
<svg width="275pt" height="84pt"
 viewBox="0.00 0.00 275.00 84.00" xmlns="http://www.w3.org/2000/svg" xmlns:xlink="http://www.w3.org/1999/xlink">
<g id="graph0" class="graph" transform="scale(1 1) rotate(0) translate(4 80)">
<title>jngl/Vec2.hpp</title>
<polygon fill="#ffffff" stroke="transparent" points="-4,4 -4,-80 271,-80 271,4 -4,4"/>
<!-- Node0 -->
<g id="node1" class="node">
<title>Node0</title>
<polygon fill="#bfbfbf" stroke="#000000" points="89,-56.5 89,-75.5 184,-75.5 184,-56.5 89,-56.5"/>
<text text-anchor="middle" x="136.5" y="-63.5" font-family="'Consolas',monospace" font-size="10.00" fill="#000000">jngl/Vec2.hpp</text>
</g>
<!-- Node1 -->
<g id="node2" class="node">
<title>Node1</title>
<g id="a_node2"><a xlink:href="dll_8hpp_source.html" target="_top" xlink:title="dll.hpp">
<polygon fill="#ffffff" stroke="#000000" points="0,-.5 0,-19.5 59,-19.5 59,-.5 0,-.5"/>
<text text-anchor="middle" x="29.5" y="-7.5" font-family="'Consolas',monospace" font-size="10.00" fill="#000000">dll.hpp</text>
</a>
</g>
</g>
<!-- Node0&#45;&gt;Node1 -->
<g id="edge1" class="edge">
<title>Node0&#45;&gt;Node1</title>
<path fill="none" stroke="#191970" d="M117.862,-56.2455C101.0614,-47.4527 76.1366,-34.4079 57.0382,-24.4125"/>
<polygon fill="#191970" stroke="#191970" points="58.4073,-21.1787 47.9244,-19.6427 55.1614,-27.3807 58.4073,-21.1787"/>
</g>
<!-- Node2 -->
<g id="node3" class="node">
<title>Node2</title>
<polygon fill="#ffffff" stroke="#bfbfbf" points="77,-.5 77,-19.5 196,-19.5 196,-.5 77,-.5"/>
<text text-anchor="middle" x="136.5" y="-7.5" font-family="'Consolas',monospace" font-size="10.00" fill="#000000">boost/version.hpp</text>
</g>
<!-- Node0&#45;&gt;Node2 -->
<g id="edge2" class="edge">
<title>Node0&#45;&gt;Node2</title>
<path fill="none" stroke="#191970" d="M136.5,-56.2455C136.5,-48.9382 136.5,-38.6944 136.5,-29.7046"/>
<polygon fill="#191970" stroke="#191970" points="140.0001,-29.6426 136.5,-19.6427 133.0001,-29.6427 140.0001,-29.6426"/>
</g>
<!-- Node3 -->
<g id="node4" class="node">
<title>Node3</title>
<g id="a_node4"><a doxygen="/home/travis/build/jhasse/jngl/doc/cppreference-doxygen-web.tag.xml:http://en.cppreference.com/w/" xlink:href="http://en.cppreference.com/w/cpp/header/iosfwd.html" target="_top" xlink:title="iosfwd">
<polygon fill="#ffffff" stroke="#000000" points="214,-.5 214,-19.5 267,-19.5 267,-.5 214,-.5"/>
<text text-anchor="middle" x="240.5" y="-7.5" font-family="'Consolas',monospace" font-size="10.00" fill="#000000">iosfwd</text>
</a>
</g>
</g>
<!-- Node0&#45;&gt;Node3 -->
<g id="edge3" class="edge">
<title>Node0&#45;&gt;Node3</title>
<path fill="none" stroke="#191970" d="M154.6154,-56.2455C170.945,-47.4527 195.171,-34.4079 213.7339,-24.4125"/>
<polygon fill="#191970" stroke="#191970" points="215.4468,-27.4654 222.5922,-19.6427 212.1281,-21.3021 215.4468,-27.4654"/>
</g>
</g>
</svg>
