<?xml version="1.0" encoding="UTF-8" standalone="no"?>
<!DOCTYPE svg PUBLIC "-//W3C//DTD SVG 1.1//EN"
 "http://www.w3.org/Graphics/SVG/1.1/DTD/svg11.dtd">
<!-- Generated by graphviz version 2.42.4 (0)
 -->
<!-- Title: jngl/Vec2.hpp Pages: 1 -->
<svg width="756pt" height="308pt"
 viewBox="0.00 0.00 756.00 308.00" xmlns="http://www.w3.org/2000/svg" xmlns:xlink="http://www.w3.org/1999/xlink">
<g id="graph0" class="graph" transform="scale(1 1) rotate(0) translate(4 304)">
<title>jngl/Vec2.hpp</title>
<polygon fill="white" stroke="transparent" points="-4,4 -4,-304 752,-304 752,4 -4,4"/>
<!-- Node1 -->
<g id="node1" class="node">
<title>Node1</title>
<g id="a_node1"><a xlink:title=" ">
<polygon fill="#bfbfbf" stroke="black" points="384,-280.5 384,-299.5 479,-299.5 479,-280.5 384,-280.5"/>
<text text-anchor="middle" x="431.5" y="-287.5" font-family="'Consolas',monospace" font-size="10.00">jngl/Vec2.hpp</text>
</a>
</g>
</g>
<!-- Node2 -->
<g id="node2" class="node">
<title>Node2</title>
<g id="a_node2"><a xlink:href="Drawable_8hpp.html" target="_top" xlink:title="Contains jngl::Drawable class.">
<polygon fill="white" stroke="black" points="87,-224.5 87,-243.5 206,-243.5 206,-224.5 87,-224.5"/>
<text text-anchor="middle" x="146.5" y="-231.5" font-family="'Consolas',monospace" font-size="10.00">jngl/Drawable.hpp</text>
</a>
</g>
</g>
<!-- Node1&#45;&gt;Node2 -->
<g id="edge1" class="edge">
<title>Node1&#45;&gt;Node2</title>
<path fill="none" stroke="midnightblue" d="M376.28,-278.54C322.42,-268.33 241.5,-253 191.45,-243.52"/>
<polygon fill="midnightblue" stroke="midnightblue" points="375.86,-282.02 386.34,-280.44 377.17,-275.14 375.86,-282.02"/>
</g>
<!-- Node5 -->
<g id="node5" class="node">
<title>Node5</title>
<g id="a_node5"><a xlink:href="sprite_8hpp.html" target="_top" xlink:title="Contains jngl::Sprite class and related functions.">
<polygon fill="white" stroke="black" points="172,-168.5 172,-187.5 279,-187.5 279,-168.5 172,-168.5"/>
<text text-anchor="middle" x="225.5" y="-175.5" font-family="'Consolas',monospace" font-size="10.00">jngl/sprite.hpp</text>
</a>
</g>
</g>
<!-- Node1&#45;&gt;Node5 -->
<g id="edge22" class="edge">
<title>Node1&#45;&gt;Node5</title>
<path fill="none" stroke="midnightblue" d="M397.86,-276.89C376.15,-268.62 347.59,-256.85 323.5,-244 290.54,-226.41 254.62,-200.75 236.82,-187.55"/>
<polygon fill="midnightblue" stroke="midnightblue" points="396.71,-280.2 407.3,-280.44 399.17,-273.64 396.71,-280.2"/>
</g>
<!-- Node8 -->
<g id="node8" class="node">
<title>Node8</title>
<g id="a_node8"><a xlink:href="font_8hpp.html" target="_top" xlink:title="Contains jngl::Font class and related functions.">
<polygon fill="white" stroke="black" points="309,-112.5 309,-131.5 404,-131.5 404,-112.5 309,-112.5"/>
<text text-anchor="middle" x="356.5" y="-119.5" font-family="'Consolas',monospace" font-size="10.00">jngl/font.hpp</text>
</a>
</g>
</g>
<!-- Node1&#45;&gt;Node8 -->
<g id="edge10" class="edge">
<title>Node1&#45;&gt;Node8</title>
<path fill="none" stroke="midnightblue" d="M414.8,-273.46C396.42,-255.11 367.96,-222.66 356.5,-188 350.12,-168.71 352.71,-144.41 354.81,-131.69"/>
<polygon fill="midnightblue" stroke="midnightblue" points="412.37,-275.98 421.98,-280.43 417.24,-270.96 412.37,-275.98"/>
</g>
<!-- Node9 -->
<g id="node9" class="node">
<title>Node9</title>
<g id="a_node9"><a xlink:href="framebuffer_8hpp.html" target="_top" xlink:title="Contains jngl::FrameBuffer class.">
<polygon fill="white" stroke="black" points="366,-168.5 366,-187.5 497,-187.5 497,-168.5 366,-168.5"/>
<text text-anchor="middle" x="431.5" y="-175.5" font-family="'Consolas',monospace" font-size="10.00">jngl/framebuffer.hpp</text>
</a>
</g>
</g>
<!-- Node1&#45;&gt;Node9 -->
<g id="edge12" class="edge">
<title>Node1&#45;&gt;Node9</title>
<path fill="none" stroke="midnightblue" d="M431.5,-270.35C431.5,-246.25 431.5,-205.31 431.5,-187.59"/>
<polygon fill="midnightblue" stroke="midnightblue" points="428,-270.37 431.5,-280.37 435,-270.37 428,-270.37"/>
</g>
<!-- Node10 -->
<g id="node10" class="node">
<title>Node10</title>
<g id="a_node10"><a xlink:href="input_8hpp.html" target="_top" xlink:title="Input related functions.">
<polygon fill="white" stroke="black" points="515,-168.5 515,-187.5 616,-187.5 616,-168.5 515,-168.5"/>
<text text-anchor="middle" x="565.5" y="-175.5" font-family="'Consolas',monospace" font-size="10.00">jngl/input.hpp</text>
</a>
</g>
</g>
<!-- Node1&#45;&gt;Node10 -->
<g id="edge14" class="edge">
<title>Node1&#45;&gt;Node10</title>
<path fill="none" stroke="midnightblue" d="M448.08,-273.1C462.4,-259.61 483.81,-239.95 503.5,-224 520.03,-210.6 540.12,-196.37 552.86,-187.59"/>
<polygon fill="midnightblue" stroke="midnightblue" points="445.39,-270.84 440.54,-280.26 450.2,-275.91 445.39,-270.84"/>
</g>
<!-- Node12 -->
<g id="node12" class="node">
<title>Node12</title>
<g id="a_node12"><a xlink:href="screen_8hpp.html" target="_top" xlink:title=" ">
<polygon fill="white" stroke="black" points="513,-224.5 513,-243.5 620,-243.5 620,-224.5 513,-224.5"/>
<text text-anchor="middle" x="566.5" y="-231.5" font-family="'Consolas',monospace" font-size="10.00">jngl/screen.hpp</text>
</a>
</g>
</g>
<!-- Node1&#45;&gt;Node12 -->
<g id="edge18" class="edge">
<title>Node1&#45;&gt;Node12</title>
<path fill="none" stroke="midnightblue" d="M462.41,-276.64C487.74,-266.5 522.93,-252.43 545.21,-243.52"/>
<polygon fill="midnightblue" stroke="midnightblue" points="460.88,-273.48 452.89,-280.44 463.48,-279.98 460.88,-273.48"/>
</g>
<!-- Node13 -->
<g id="node13" class="node">
<title>Node13</title>
<g id="a_node13"><a xlink:href="shapes_8hpp.html" target="_top" xlink:title="Functions for drawing shapes.">
<polygon fill="white" stroke="black" points="641,-224.5 641,-243.5 748,-243.5 748,-224.5 641,-224.5"/>
<text text-anchor="middle" x="694.5" y="-231.5" font-family="'Consolas',monospace" font-size="10.00">jngl/shapes.hpp</text>
</a>
</g>
</g>
<!-- Node1&#45;&gt;Node13 -->
<g id="edge20" class="edge">
<title>Node1&#45;&gt;Node13</title>
<path fill="none" stroke="midnightblue" d="M483.08,-278.41C532.78,-268.2 607.03,-252.96 653.02,-243.52"/>
<polygon fill="midnightblue" stroke="midnightblue" points="482.26,-275 473.17,-280.44 483.67,-281.86 482.26,-275"/>
</g>
<!-- Node3 -->
<g id="node3" class="node">
<title>Node3</title>
<g id="a_node3"><a xlink:href="all_8hpp.html" target="_top" xlink:title="Includes all JNGL headers.">
<polygon fill="white" stroke="black" points="350,-56.5 350,-75.5 439,-75.5 439,-56.5 350,-56.5"/>
<text text-anchor="middle" x="394.5" y="-63.5" font-family="'Consolas',monospace" font-size="10.00">jngl/all.hpp</text>
</a>
</g>
</g>
<!-- Node2&#45;&gt;Node3 -->
<g id="edge2" class="edge">
<title>Node2&#45;&gt;Node3</title>
<path fill="none" stroke="midnightblue" d="M144.71,-213.89C143.34,-187.19 145.21,-138.97 172.5,-112 197.04,-87.74 292.27,-75.6 349.73,-70.35"/>
<polygon fill="midnightblue" stroke="midnightblue" points="141.24,-214.47 145.45,-224.19 148.22,-213.97 141.24,-214.47"/>
</g>
<!-- Node2&#45;&gt;Node5 -->
<g id="edge4" class="edge">
<title>Node2&#45;&gt;Node5</title>
<path fill="none" stroke="midnightblue" d="M167.53,-218.62C181.97,-208.76 200.64,-195.99 212.84,-187.65"/>
<polygon fill="midnightblue" stroke="midnightblue" points="165.47,-215.79 159.19,-224.32 169.42,-221.57 165.47,-215.79"/>
</g>
<!-- Node7 -->
<g id="node7" class="node">
<title>Node7</title>
<g id="a_node7"><a xlink:href="text_8hpp.html" target="_top" xlink:title=" ">
<polygon fill="white" stroke="black" points="0,-112.5 0,-131.5 95,-131.5 95,-112.5 0,-112.5"/>
<text text-anchor="middle" x="47.5" y="-119.5" font-family="'Consolas',monospace" font-size="10.00">jngl/text.hpp</text>
</a>
</g>
</g>
<!-- Node2&#45;&gt;Node7 -->
<g id="edge8" class="edge">
<title>Node2&#45;&gt;Node7</title>
<path fill="none" stroke="midnightblue" d="M132.01,-216.9C110.72,-193.25 71.75,-149.95 55.23,-131.59"/>
<polygon fill="midnightblue" stroke="midnightblue" points="129.44,-219.28 138.73,-224.37 134.64,-214.59 129.44,-219.28"/>
</g>
<!-- Node4 -->
<g id="node4" class="node">
<title>Node4</title>
<g id="a_node4"><a xlink:href="jngl_8hpp_source.html" target="_top" xlink:title=" ">
<polygon fill="white" stroke="black" points="362,-0.5 362,-19.5 427,-19.5 427,-0.5 362,-0.5"/>
<text text-anchor="middle" x="394.5" y="-7.5" font-family="'Consolas',monospace" font-size="10.00">jngl.hpp</text>
</a>
</g>
</g>
<!-- Node3&#45;&gt;Node4 -->
<g id="edge3" class="edge">
<title>Node3&#45;&gt;Node4</title>
<path fill="none" stroke="midnightblue" d="M394.5,-45.8C394.5,-36.91 394.5,-26.78 394.5,-19.75"/>
<polygon fill="midnightblue" stroke="midnightblue" points="391,-46.08 394.5,-56.08 398,-46.08 391,-46.08"/>
</g>
<!-- Node5&#45;&gt;Node3 -->
<g id="edge5" class="edge">
<title>Node5&#45;&gt;Node3</title>
<path fill="none" stroke="midnightblue" d="M203.94,-162.49C186.56,-149.01 167.05,-128.58 180.5,-112 201.37,-86.28 293.22,-74.72 349.59,-69.96"/>
<polygon fill="midnightblue" stroke="midnightblue" points="202.01,-165.41 212.14,-168.5 206.15,-159.77 202.01,-165.41"/>
</g>
<!-- Node6 -->
<g id="node6" class="node">
<title>Node6</title>
<g id="a_node6"><a xlink:href="Video_8hpp.html" target="_top" xlink:title=" ">
<polygon fill="white" stroke="black" points="190,-112.5 190,-131.5 291,-131.5 291,-112.5 190,-112.5"/>
<text text-anchor="middle" x="240.5" y="-119.5" font-family="'Consolas',monospace" font-size="10.00">jngl/Video.hpp</text>
</a>
</g>
</g>
<!-- Node5&#45;&gt;Node6 -->
<g id="edge6" class="edge">
<title>Node5&#45;&gt;Node6</title>
<path fill="none" stroke="midnightblue" d="M230.67,-158.4C233.18,-149.36 236.07,-138.94 238.07,-131.75"/>
<polygon fill="midnightblue" stroke="midnightblue" points="227.28,-157.51 227.98,-168.08 234.03,-159.38 227.28,-157.51"/>
</g>
<!-- Node6&#45;&gt;Node3 -->
<g id="edge7" class="edge">
<title>Node6&#45;&gt;Node3</title>
<path fill="none" stroke="midnightblue" d="M274.61,-109.04C303.59,-98.88 344.46,-84.55 370.21,-75.52"/>
<polygon fill="midnightblue" stroke="midnightblue" points="273.18,-105.83 264.9,-112.44 275.5,-112.44 273.18,-105.83"/>
</g>
<!-- Node7&#45;&gt;Node3 -->
<g id="edge9" class="edge">
<title>Node7&#45;&gt;Node3</title>
<path fill="none" stroke="midnightblue" d="M105.24,-112.01C173.98,-101.32 287.3,-83.68 349.75,-73.96"/>
<polygon fill="midnightblue" stroke="midnightblue" points="104.36,-108.61 95.02,-113.6 105.44,-115.53 104.36,-108.61"/>
</g>
<!-- Node8&#45;&gt;Node3 -->
<g id="edge11" class="edge">
<title>Node8&#45;&gt;Node3</title>
<path fill="none" stroke="midnightblue" d="M368.56,-103.86C375.14,-94.5 383.01,-83.33 388.34,-75.75"/>
<polygon fill="midnightblue" stroke="midnightblue" points="365.67,-101.89 362.77,-112.08 371.39,-105.92 365.67,-101.89"/>
</g>
<!-- Node9&#45;&gt;Node3 -->
<g id="edge13" class="edge">
<title>Node9&#45;&gt;Node3</title>
<path fill="none" stroke="midnightblue" d="M426.57,-158.38C422.98,-145.3 417.84,-127.45 412.5,-112 408.05,-99.12 402.02,-84.52 398.2,-75.53"/>
<polygon fill="midnightblue" stroke="midnightblue" points="423.2,-159.34 429.19,-168.08 429.96,-157.52 423.2,-159.34"/>
</g>
<!-- Node10&#45;&gt;Node3 -->
<g id="edge15" class="edge">
<title>Node10&#45;&gt;Node3</title>
<path fill="none" stroke="midnightblue" d="M541.75,-163.47C526.64,-154.74 506.74,-142.99 489.5,-132 459.16,-112.67 424.52,-88.39 406.63,-75.67"/>
<polygon fill="midnightblue" stroke="midnightblue" points="540.06,-166.54 550.47,-168.49 543.55,-160.47 540.06,-166.54"/>
</g>
<!-- Node11 -->
<g id="node11" class="node">
<title>Node11</title>
<g id="a_node11"><a xlink:href="Controller_8hpp.html" target="_top" xlink:title=" ">
<polygon fill="white" stroke="black" points="499,-112.5 499,-131.5 630,-131.5 630,-112.5 499,-112.5"/>
<text text-anchor="middle" x="564.5" y="-119.5" font-family="'Consolas',monospace" font-size="10.00">jngl/Controller.hpp</text>
</a>
</g>
</g>
<!-- Node10&#45;&gt;Node11 -->
<g id="edge16" class="edge">
<title>Node10&#45;&gt;Node11</title>
<path fill="none" stroke="midnightblue" d="M565.14,-157.8C564.98,-148.91 564.79,-138.78 564.66,-131.75"/>
<polygon fill="midnightblue" stroke="midnightblue" points="561.65,-158.15 565.33,-168.08 568.65,-158.02 561.65,-158.15"/>
</g>
<!-- Node11&#45;&gt;Node3 -->
<g id="edge17" class="edge">
<title>Node11&#45;&gt;Node3</title>
<path fill="none" stroke="midnightblue" d="M527.68,-109.3C495.65,-99.13 449.98,-84.62 421.31,-75.52"/>
<polygon fill="midnightblue" stroke="midnightblue" points="526.97,-112.75 537.56,-112.44 529.09,-106.08 526.97,-112.75"/>
</g>
<!-- Node12&#45;&gt;Node3 -->
<g id="edge19" class="edge">
<title>Node12&#45;&gt;Node3</title>
<path fill="none" stroke="midnightblue" d="M591.28,-219.15C602.98,-211.41 616.18,-200.76 624.5,-188 643.26,-159.23 660.47,-138.4 638.5,-112 613.63,-82.12 502.53,-72.01 439.16,-68.64"/>
<polygon fill="midnightblue" stroke="midnightblue" points="589.36,-216.22 582.73,-224.48 593.06,-222.16 589.36,-216.22"/>
</g>
<!-- Node13&#45;&gt;Node3 -->
<g id="edge21" class="edge">
<title>Node13&#45;&gt;Node3</title>
<path fill="none" stroke="midnightblue" d="M694.51,-214.36C693.43,-187.47 687.22,-138.16 657.5,-112 625.77,-84.07 505.62,-73.09 439.24,-69.09"/>
<polygon fill="midnightblue" stroke="midnightblue" points="691.01,-214.45 694.7,-224.38 698.01,-214.31 691.01,-214.45"/>
</g>
</g>
</svg>
