<?xml version="1.0" encoding="UTF-8" standalone="no"?>
<!DOCTYPE svg PUBLIC "-//W3C//DTD SVG 1.1//EN"
 "http://www.w3.org/Graphics/SVG/1.1/DTD/svg11.dtd">
<!-- Generated by graphviz version 5.0.0 (0)
 -->
<!-- Title: jngl/Vec2.hpp Pages: 1 -->
<svg width="1236pt" height="247pt"
 viewBox="0.00 0.00 1236.00 247.00" xmlns="http://www.w3.org/2000/svg" xmlns:xlink="http://www.w3.org/1999/xlink">
<g id="graph0" class="graph" transform="scale(1 1) rotate(0) translate(4 243)">
<title>jngl/Vec2.hpp</title>
<!-- Node1 -->
<g id="node1" class="node">
<title>Node1</title>
<g id="a_node1"><a xlink:title="Contains jngl::Vec2 class.">
<polygon fill="#999999" stroke="#666666" points="759,-239 664,-239 664,-220 759,-220 759,-239"/>
<text text-anchor="middle" x="711.5" y="-227" font-family="ui-monospace,monospace" font-size="10.00">jngl/Vec2.hpp</text>
</a>
</g>
</g>
<!-- Node2 -->
<g id="node2" class="node">
<title>Node2</title>
<g id="a_node2"><a xlink:href="AppParameters_8hpp.html" target="_top" xlink:title="Contains jngl::AppParameters struct.">
<polygon fill="white" stroke="#666666" points="187,-184 38,-184 38,-165 187,-165 187,-184"/>
<text text-anchor="middle" x="112.5" y="-172" font-family="ui-monospace,monospace" font-size="10.00">jngl/AppParameters.hpp</text>
</a>
</g>
</g>
<!-- Node1&#45;&gt;Node2 -->
<g id="edge1" class="edge">
<title>Node1&#45;&gt;Node2</title>
<path fill="none" stroke="#63b8ff" d="M653.84,-223.4C544.7,-213.74 308.06,-192.8 187.04,-182.1"/>
<polygon fill="#63b8ff" stroke="#63b8ff" points="653.73,-226.9 664,-224.3 654.34,-219.93 653.73,-226.9"/>
</g>
<!-- Node4 -->
<g id="node4" class="node">
<title>Node4</title>
<g id="a_node4"><a xlink:href="Drawable_8hpp.html" target="_top" xlink:title="Contains jngl::Drawable class.">
<polygon fill="white" stroke="#666666" points="558,-184 439,-184 439,-165 558,-165 558,-184"/>
<text text-anchor="middle" x="498.5" y="-172" font-family="ui-monospace,monospace" font-size="10.00">jngl/Drawable.hpp</text>
</a>
</g>
</g>
<!-- Node1&#45;&gt;Node4 -->
<g id="edge3" class="edge">
<title>Node1&#45;&gt;Node4</title>
<path fill="none" stroke="#63b8ff" d="M667.55,-217.56C627.66,-207.64 569.63,-193.2 532.99,-184.08"/>
<polygon fill="#63b8ff" stroke="#63b8ff" points="666.73,-220.97 677.28,-219.98 668.42,-214.17 666.73,-220.97"/>
</g>
<!-- Node8 -->
<g id="node8" class="node">
<title>Node8</title>
<g id="a_node8"><a xlink:href="sprite_8hpp.html" target="_top" xlink:title="Contains jngl::Sprite class and related functions.">
<polygon fill="white" stroke="#666666" points="634,-129 527,-129 527,-110 634,-110 634,-129"/>
<text text-anchor="middle" x="580.5" y="-117" font-family="ui-monospace,monospace" font-size="10.00">jngl/sprite.hpp</text>
</a>
</g>
</g>
<!-- Node1&#45;&gt;Node8 -->
<g id="edge33" class="edge">
<title>Node1&#45;&gt;Node8</title>
<path fill="none" stroke="#63b8ff" d="M691.87,-213.53C680.79,-205 666.76,-194.04 654.5,-184 631.18,-164.91 604.52,-141.67 590.43,-129.28"/>
<polygon fill="#63b8ff" stroke="#63b8ff" points="689.96,-216.48 700.02,-219.79 694.22,-210.92 689.96,-216.48"/>
</g>
<!-- Node10 -->
<g id="node10" class="node">
<title>Node10</title>
<g id="a_node10"><a xlink:href="FrameBuffer_8hpp.html" target="_top" xlink:title="Contains jngl::FrameBuffer class.">
<polygon fill="white" stroke="#666666" points="646,-74 515,-74 515,-55 646,-55 646,-74"/>
<text text-anchor="middle" x="580.5" y="-62" font-family="ui-monospace,monospace" font-size="10.00">jngl/FrameBuffer.hpp</text>
</a>
</g>
</g>
<!-- Node1&#45;&gt;Node10 -->
<g id="edge14" class="edge">
<title>Node1&#45;&gt;Node10</title>
<path fill="none" stroke="#63b8ff" d="M704.06,-210.78C693.13,-186.21 670.94,-141.29 642.5,-110 628.86,-95 609.38,-82.03 595.91,-74.03"/>
<polygon fill="#63b8ff" stroke="#63b8ff" points="700.85,-212.18 708.03,-219.96 707.27,-209.4 700.85,-212.18"/>
</g>
<!-- Node11 -->
<g id="node11" class="node">
<title>Node11</title>
<g id="a_node11"><a xlink:href="Rect_8hpp.html" target="_top" xlink:title="Contains jngl::Rect class.">
<polygon fill="white" stroke="#666666" points="759,-74 664,-74 664,-55 759,-55 759,-74"/>
<text text-anchor="middle" x="711.5" y="-62" font-family="ui-monospace,monospace" font-size="10.00">jngl/Rect.hpp</text>
</a>
</g>
</g>
<!-- Node1&#45;&gt;Node11 -->
<g id="edge16" class="edge">
<title>Node1&#45;&gt;Node11</title>
<path fill="none" stroke="#63b8ff" d="M711.5,-209.37C711.5,-174.03 711.5,-99.79 711.5,-74.31"/>
<polygon fill="#63b8ff" stroke="#63b8ff" points="708,-209.74 711.5,-219.74 715,-209.74 708,-209.74"/>
</g>
<!-- Node12 -->
<g id="node12" class="node">
<title>Node12</title>
<g id="a_node12"><a xlink:href="Widget_8hpp.html" target="_top" xlink:title="Contains jngl::Container class.">
<polygon fill="white" stroke="#666666" points="220,-129 113,-129 113,-110 220,-110 220,-129"/>
<text text-anchor="middle" x="166.5" y="-117" font-family="ui-monospace,monospace" font-size="10.00">jngl/Widget.hpp</text>
</a>
</g>
</g>
<!-- Node1&#45;&gt;Node12 -->
<g id="edge18" class="edge">
<title>Node1&#45;&gt;Node12</title>
<path fill="none" stroke="#63b8ff" d="M653.96,-220.8C596.8,-212.83 506.77,-199.4 429.5,-184 345.43,-167.25 247.57,-142.11 198.3,-129.05"/>
<polygon fill="#63b8ff" stroke="#63b8ff" points="653.51,-224.27 663.89,-222.18 654.47,-217.34 653.51,-224.27"/>
</g>
<!-- Node13 -->
<g id="node13" class="node">
<title>Node13</title>
<g id="a_node13"><a xlink:href="effects_8hpp.html" target="_top" xlink:title="Effects that can be applied to jngl::Widget.">
<polygon fill="white" stroke="#666666" points="884,-74 777,-74 777,-55 884,-55 884,-74"/>
<text text-anchor="middle" x="830.5" y="-62" font-family="ui-monospace,monospace" font-size="10.00">jngl/effects.hpp</text>
</a>
</g>
</g>
<!-- Node1&#45;&gt;Node13 -->
<g id="edge21" class="edge">
<title>Node1&#45;&gt;Node13</title>
<path fill="none" stroke="#63b8ff" d="M723.83,-211.62C748.9,-177.28 805.06,-100.34 824.07,-74.31"/>
<polygon fill="#63b8ff" stroke="#63b8ff" points="720.97,-209.6 717.9,-219.74 726.62,-213.72 720.97,-209.6"/>
</g>
<!-- Node14 -->
<g id="node14" class="node">
<title>Node14</title>
<g id="a_node14"><a xlink:href="font_8hpp.html" target="_top" xlink:title="Contains jngl::Font class and related functions.">
<polygon fill="white" stroke="#666666" points="880,-184 785,-184 785,-165 880,-165 880,-184"/>
<text text-anchor="middle" x="832.5" y="-172" font-family="ui-monospace,monospace" font-size="10.00">jngl/font.hpp</text>
</a>
</g>
</g>
<!-- Node1&#45;&gt;Node14 -->
<g id="edge23" class="edge">
<title>Node1&#45;&gt;Node14</title>
<path fill="none" stroke="#63b8ff" d="M740.27,-215.9C762.62,-206.11 793.02,-192.79 812.71,-184.17"/>
<polygon fill="#63b8ff" stroke="#63b8ff" points="738.7,-212.77 730.94,-219.98 741.5,-219.18 738.7,-212.77"/>
</g>
<!-- Node15 -->
<g id="node15" class="node">
<title>Node15</title>
<g id="a_node15"><a xlink:href="input_8hpp.html" target="_top" xlink:title="Input related functions.">
<polygon fill="white" stroke="#666666" points="1042,-129 941,-129 941,-110 1042,-110 1042,-129"/>
<text text-anchor="middle" x="991.5" y="-117" font-family="ui-monospace,monospace" font-size="10.00">jngl/input.hpp</text>
</a>
</g>
</g>
<!-- Node1&#45;&gt;Node15 -->
<g id="edge25" class="edge">
<title>Node1&#45;&gt;Node15</title>
<path fill="none" stroke="#63b8ff" d="M769.49,-218.59C804.76,-211.43 850.24,-200.15 888.5,-184 924.11,-168.97 961.74,-142.74 980.09,-129.18"/>
<polygon fill="#63b8ff" stroke="#63b8ff" points="768.49,-215.22 759.35,-220.59 769.84,-222.08 768.49,-215.22"/>
</g>
<!-- Node17 -->
<g id="node17" class="node">
<title>Node17</title>
<g id="a_node17"><a xlink:href="screen_8hpp.html" target="_top" xlink:title=" ">
<polygon fill="white" stroke="#666666" points="1095,-184 988,-184 988,-165 1095,-165 1095,-184"/>
<text text-anchor="middle" x="1041.5" y="-172" font-family="ui-monospace,monospace" font-size="10.00">jngl/screen.hpp</text>
</a>
</g>
</g>
<!-- Node1&#45;&gt;Node17 -->
<g id="edge29" class="edge">
<title>Node1&#45;&gt;Node17</title>
<path fill="none" stroke="#63b8ff" d="M769.12,-219.25C830.96,-209.31 928.38,-193.67 988.42,-184.03"/>
<polygon fill="#63b8ff" stroke="#63b8ff" points="768.45,-215.81 759.13,-220.85 769.56,-222.72 768.45,-215.81"/>
</g>
<!-- Node18 -->
<g id="node18" class="node">
<title>Node18</title>
<g id="a_node18"><a xlink:href="shapes_8hpp.html" target="_top" xlink:title="Functions for drawing shapes.">
<polygon fill="white" stroke="#666666" points="1228,-184 1121,-184 1121,-165 1228,-165 1228,-184"/>
<text text-anchor="middle" x="1174.5" y="-172" font-family="ui-monospace,monospace" font-size="10.00">jngl/shapes.hpp</text>
</a>
</g>
</g>
<!-- Node1&#45;&gt;Node18 -->
<g id="edge31" class="edge">
<title>Node1&#45;&gt;Node18</title>
<path fill="none" stroke="#63b8ff" d="M769.56,-222.02C846.09,-213.46 984.92,-197.83 1103.5,-184 1109.05,-183.35 1114.84,-182.67 1120.62,-181.99"/>
<polygon fill="#63b8ff" stroke="#63b8ff" points="768.73,-218.59 759.18,-223.18 769.51,-225.55 768.73,-218.59"/>
</g>
<!-- Node3 -->
<g id="node3" class="node">
<title>Node3</title>
<g id="a_node3"><a xlink:href="init_8hpp.html" target="_top" xlink:title="Include this file only once, as it defines the main function.">
<polygon fill="white" stroke="#666666" points="95,-129 0,-129 0,-110 95,-110 95,-129"/>
<text text-anchor="middle" x="47.5" y="-117" font-family="ui-monospace,monospace" font-size="10.00">jngl/init.hpp</text>
</a>
</g>
</g>
<!-- Node2&#45;&gt;Node3 -->
<g id="edge2" class="edge">
<title>Node2&#45;&gt;Node3</title>
<path fill="none" stroke="#63b8ff" d="M94.23,-158.6C82.58,-149.11 67.9,-137.13 58.13,-129.17"/>
<polygon fill="#63b8ff" stroke="#63b8ff" points="92.09,-161.38 102.06,-164.98 96.52,-155.95 92.09,-161.38"/>
</g>
<!-- Node5 -->
<g id="node5" class="node">
<title>Node5</title>
<g id="a_node5"><a xlink:href="jngl_8hpp.html" target="_top" xlink:title="Includes all JNGL headers except for init.hpp.">
<polygon fill="white" stroke="#666666" points="678,-19 613,-19 613,0 678,0 678,-19"/>
<text text-anchor="middle" x="645.5" y="-7" font-family="ui-monospace,monospace" font-size="10.00">jngl.hpp</text>
</a>
</g>
</g>
<!-- Node4&#45;&gt;Node5 -->
<g id="edge4" class="edge">
<title>Node4&#45;&gt;Node5</title>
<path fill="none" stroke="#63b8ff" d="M492.15,-155.26C484.64,-130.05 475.69,-84.34 497.5,-55 523.92,-19.47 577.76,-11.26 612.71,-9.9"/>
<polygon fill="#63b8ff" stroke="#63b8ff" points="488.89,-156.54 495.29,-164.99 495.55,-154.4 488.89,-156.54"/>
</g>
<!-- Node6 -->
<g id="node6" class="node">
<title>Node6</title>
<g id="a_node6"><a xlink:href="TextLine_8hpp.html" target="_top" xlink:title="Contains jngl::TextLine class.">
<polygon fill="white" stroke="#666666" points="470,-129 351,-129 351,-110 470,-110 470,-129"/>
<text text-anchor="middle" x="410.5" y="-117" font-family="ui-monospace,monospace" font-size="10.00">jngl/TextLine.hpp</text>
</a>
</g>
</g>
<!-- Node4&#45;&gt;Node6 -->
<g id="edge5" class="edge">
<title>Node4&#45;&gt;Node6</title>
<path fill="none" stroke="#63b8ff" d="M475.58,-159.7C459.55,-150.04 438.63,-137.44 424.9,-129.17"/>
<polygon fill="#63b8ff" stroke="#63b8ff" points="473.99,-162.82 484.36,-164.98 477.6,-156.83 473.99,-162.82"/>
</g>
<!-- Node4&#45;&gt;Node8 -->
<g id="edge9" class="edge">
<title>Node4&#45;&gt;Node8</title>
<path fill="none" stroke="#63b8ff" d="M520.28,-159.42C535.16,-149.81 554.41,-137.37 567.09,-129.17"/>
<polygon fill="#63b8ff" stroke="#63b8ff" points="518.17,-156.62 511.67,-164.98 521.97,-162.5 518.17,-156.62"/>
</g>
<!-- Node9 -->
<g id="node9" class="node">
<title>Node9</title>
<g id="a_node9"><a xlink:href="text_8hpp.html" target="_top" xlink:title=" ">
<polygon fill="white" stroke="#666666" points="333,-129 238,-129 238,-110 333,-110 333,-129"/>
<text text-anchor="middle" x="285.5" y="-117" font-family="ui-monospace,monospace" font-size="10.00">jngl/text.hpp</text>
</a>
</g>
</g>
<!-- Node4&#45;&gt;Node9 -->
<g id="edge11" class="edge">
<title>Node4&#45;&gt;Node9</title>
<path fill="none" stroke="#63b8ff" d="M454.55,-162.56C414.66,-152.64 356.63,-138.2 319.99,-129.08"/>
<polygon fill="#63b8ff" stroke="#63b8ff" points="453.73,-165.97 464.28,-164.98 455.42,-159.17 453.73,-165.97"/>
</g>
<!-- Node6&#45;&gt;Node5 -->
<g id="edge6" class="edge">
<title>Node6&#45;&gt;Node5</title>
<path fill="none" stroke="#63b8ff" d="M412.79,-99.37C415.53,-85.07 421.51,-66.14 434.5,-55 460.93,-32.34 560.34,-19.12 612.73,-13.58"/>
<polygon fill="#63b8ff" stroke="#63b8ff" points="409.28,-99.19 411.22,-109.61 416.2,-100.25 409.28,-99.19"/>
</g>
<!-- Node7 -->
<g id="node7" class="node">
<title>Node7</title>
<g id="a_node7"><a xlink:href="Label_8hpp.html" target="_top" xlink:title="Contains jngl::Label class.">
<polygon fill="white" stroke="#666666" points="382,-74 281,-74 281,-55 382,-55 382,-74"/>
<text text-anchor="middle" x="331.5" y="-62" font-family="ui-monospace,monospace" font-size="10.00">jngl/Label.hpp</text>
</a>
</g>
</g>
<!-- Node6&#45;&gt;Node7 -->
<g id="edge7" class="edge">
<title>Node6&#45;&gt;Node7</title>
<path fill="none" stroke="#63b8ff" d="M389.11,-104.15C374.83,-94.57 356.53,-82.29 344.42,-74.17"/>
<polygon fill="#63b8ff" stroke="#63b8ff" points="387.55,-107.32 397.81,-109.98 391.45,-101.51 387.55,-107.32"/>
</g>
<!-- Node7&#45;&gt;Node5 -->
<g id="edge8" class="edge">
<title>Node7&#45;&gt;Node5</title>
<path fill="none" stroke="#63b8ff" d="M392.2,-53.25C458.1,-42.13 560.9,-24.78 612.95,-15.99"/>
<polygon fill="#63b8ff" stroke="#63b8ff" points="391.23,-49.87 381.95,-54.98 392.39,-56.77 391.23,-49.87"/>
</g>
<!-- Node8&#45;&gt;Node5 -->
<g id="edge10" class="edge">
<title>Node8&#45;&gt;Node5</title>
<path fill="none" stroke="#63b8ff" d="M546,-106.01C519.62,-94.46 490.16,-75.97 505.5,-55 529.97,-21.55 579.78,-12.64 612.91,-10.59"/>
<polygon fill="#63b8ff" stroke="#63b8ff" points="544.91,-109.34 555.49,-109.94 547.59,-102.88 544.91,-109.34"/>
</g>
<!-- Node9&#45;&gt;Node5 -->
<g id="edge12" class="edge">
<title>Node9&#45;&gt;Node5</title>
<path fill="none" stroke="#63b8ff" d="M274.43,-101.23C266.95,-87.16 260.29,-67.62 271.5,-55 294.02,-29.64 525.75,-16.15 612.74,-11.96"/>
<polygon fill="#63b8ff" stroke="#63b8ff" points="271.46,-103.08 279.53,-109.94 277.5,-99.54 271.46,-103.08"/>
</g>
<!-- Node9&#45;&gt;Node7 -->
<g id="edge13" class="edge">
<title>Node9&#45;&gt;Node7</title>
<path fill="none" stroke="#63b8ff" d="M299.86,-101.96C307.87,-92.72 317.53,-81.6 324.05,-74.09"/>
<polygon fill="#63b8ff" stroke="#63b8ff" points="297.01,-99.9 293.1,-109.75 302.29,-104.49 297.01,-99.9"/>
</g>
<!-- Node10&#45;&gt;Node5 -->
<g id="edge15" class="edge">
<title>Node10&#45;&gt;Node5</title>
<path fill="none" stroke="#63b8ff" d="M598.77,-48.6C610.42,-39.11 625.1,-27.13 634.87,-19.17"/>
<polygon fill="#63b8ff" stroke="#63b8ff" points="596.48,-45.95 590.94,-54.98 600.91,-51.38 596.48,-45.95"/>
</g>
<!-- Node11&#45;&gt;Node5 -->
<g id="edge17" class="edge">
<title>Node11&#45;&gt;Node5</title>
<path fill="none" stroke="#63b8ff" d="M692.95,-48.6C681.12,-39.11 666.21,-27.13 656.3,-19.17"/>
<polygon fill="#63b8ff" stroke="#63b8ff" points="690.91,-51.45 700.9,-54.98 695.29,-45.99 690.91,-51.45"/>
</g>
<!-- Node12&#45;&gt;Node5 -->
<g id="edge19" class="edge">
<title>Node12&#45;&gt;Node5</title>
<path fill="none" stroke="#63b8ff" d="M183.96,-103.23C202.21,-88.22 232.33,-66.01 262.5,-55 326.72,-31.56 532.27,-17.19 612.75,-12.35"/>
<polygon fill="#63b8ff" stroke="#63b8ff" points="181.4,-100.82 176.01,-109.94 185.91,-106.17 181.4,-100.82"/>
</g>
<!-- Node12&#45;&gt;Node7 -->
<g id="edge20" class="edge">
<title>Node12&#45;&gt;Node7</title>
<path fill="none" stroke="#63b8ff" d="M202.93,-106.8C233.72,-96.91 277.12,-82.97 304.78,-74.08"/>
<polygon fill="#63b8ff" stroke="#63b8ff" points="201.46,-103.59 193.01,-109.98 203.6,-110.26 201.46,-103.59"/>
</g>
<!-- Node13&#45;&gt;Node5 -->
<g id="edge22" class="edge">
<title>Node13&#45;&gt;Node5</title>
<path fill="none" stroke="#63b8ff" d="M791,-52.18C756.4,-42.27 706.87,-28.08 675.46,-19.08"/>
<polygon fill="#63b8ff" stroke="#63b8ff" points="790.2,-55.6 800.78,-54.98 792.13,-48.87 790.2,-55.6"/>
</g>
<!-- Node14&#45;&gt;Node5 -->
<g id="edge24" class="edge">
<title>Node14&#45;&gt;Node5</title>
<path fill="none" stroke="#63b8ff" d="M850.54,-158.37C876.83,-134.51 919.71,-87.55 892.5,-55 865.53,-22.74 738.84,-13.83 678.11,-11.4"/>
<polygon fill="#63b8ff" stroke="#63b8ff" points="848.21,-155.75 843.01,-164.98 852.83,-161.01 848.21,-155.75"/>
</g>
<!-- Node15&#45;&gt;Node5 -->
<g id="edge26" class="edge">
<title>Node15&#45;&gt;Node5</title>
<path fill="none" stroke="#63b8ff" d="M979.11,-101.49C967.33,-86.68 948.22,-65.91 926.5,-55 883.46,-33.39 742.95,-18.88 678.43,-13.19"/>
<polygon fill="#63b8ff" stroke="#63b8ff" points="976.61,-103.98 985.46,-109.81 982.17,-99.73 976.61,-103.98"/>
</g>
<!-- Node16 -->
<g id="node16" class="node">
<title>Node16</title>
<g id="a_node16"><a xlink:href="Controller_8hpp.html" target="_top" xlink:title="Contains jngl::Controller class.">
<polygon fill="white" stroke="#666666" points="1110,-74 979,-74 979,-55 1110,-55 1110,-74"/>
<text text-anchor="middle" x="1044.5" y="-62" font-family="ui-monospace,monospace" font-size="10.00">jngl/Controller.hpp</text>
</a>
</g>
</g>
<!-- Node15&#45;&gt;Node16 -->
<g id="edge27" class="edge">
<title>Node15&#45;&gt;Node16</title>
<path fill="none" stroke="#63b8ff" d="M1007.48,-102.52C1016.82,-93.18 1028.25,-81.75 1035.91,-74.09"/>
<polygon fill="#63b8ff" stroke="#63b8ff" points="1004.85,-100.2 1000.25,-109.75 1009.8,-105.15 1004.85,-100.2"/>
</g>
<!-- Node16&#45;&gt;Node5 -->
<g id="edge28" class="edge">
<title>Node16&#45;&gt;Node5</title>
<path fill="none" stroke="#63b8ff" d="M970.27,-53.64C882.83,-42.03 741.48,-23.25 678.09,-14.83"/>
<polygon fill="#63b8ff" stroke="#63b8ff" points="970.02,-57.14 980.39,-54.98 970.94,-50.2 970.02,-57.14"/>
</g>
<!-- Node17&#45;&gt;Node5 -->
<g id="edge30" class="edge">
<title>Node17&#45;&gt;Node5</title>
<path fill="none" stroke="#63b8ff" d="M1063.22,-158.82C1095.45,-135.32 1149,-88.5 1118.5,-55 1088.9,-22.48 780.4,-13.26 678.19,-11.09"/>
<polygon fill="#63b8ff" stroke="#63b8ff" points="1060.92,-156.16 1054.79,-164.8 1064.97,-161.87 1060.92,-156.16"/>
</g>
<!-- Node18&#45;&gt;Node5 -->
<g id="edge32" class="edge">
<title>Node18&#45;&gt;Node5</title>
<path fill="none" stroke="#63b8ff" d="M1174.63,-154.56C1173.68,-127.75 1167.59,-79.29 1137.5,-55 1101.8,-26.18 781.98,-14.45 678,-11.37"/>
<polygon fill="#63b8ff" stroke="#63b8ff" points="1171.13,-154.95 1174.77,-164.9 1178.13,-154.85 1171.13,-154.95"/>
</g>
</g>
</svg>
