<?xml version="1.0" encoding="UTF-8" standalone="no"?>
<!DOCTYPE svg PUBLIC "-//W3C//DTD SVG 1.1//EN"
 "http://www.w3.org/Graphics/SVG/1.1/DTD/svg11.dtd">
<!-- Generated by graphviz version 2.42.4 (0)
 -->
<!-- Title: jngl/Vec2.hpp Pages: 1 -->
<svg width="715pt" height="252pt"
 viewBox="0.00 0.00 715.00 252.00" xmlns="http://www.w3.org/2000/svg" xmlns:xlink="http://www.w3.org/1999/xlink">
<g id="graph0" class="graph" transform="scale(1 1) rotate(0) translate(4 248)">
<title>jngl/Vec2.hpp</title>
<polygon fill="white" stroke="transparent" points="-4,4 -4,-248 711,-248 711,4 -4,4"/>
<!-- Node1 -->
<g id="node1" class="node">
<title>Node1</title>
<g id="a_node1"><a xlink:title=" ">
<polygon fill="#bfbfbf" stroke="black" points="365,-224.5 365,-243.5 460,-243.5 460,-224.5 365,-224.5"/>
<text text-anchor="middle" x="412.5" y="-231.5" font-family="'Consolas',monospace" font-size="10.00">jngl/Vec2.hpp</text>
</a>
</g>
</g>
<!-- Node2 -->
<g id="node2" class="node">
<title>Node2</title>
<g id="a_node2"><a xlink:href="input_8hpp.html" target="_top" xlink:title="Input related functions.">
<polygon fill="white" stroke="black" points="106,-168.5 106,-187.5 207,-187.5 207,-168.5 106,-168.5"/>
<text text-anchor="middle" x="156.5" y="-175.5" font-family="'Consolas',monospace" font-size="10.00">jngl/input.hpp</text>
</a>
</g>
</g>
<!-- Node1&#45;&gt;Node2 -->
<g id="edge1" class="edge">
<title>Node1&#45;&gt;Node2</title>
<path fill="none" stroke="midnightblue" d="M361.99,-222.35C313.61,-212.14 241.55,-196.94 196.87,-187.52"/>
<polygon fill="midnightblue" stroke="midnightblue" points="361.43,-225.8 371.94,-224.44 362.87,-218.95 361.43,-225.8"/>
</g>
<!-- Node6 -->
<g id="node6" class="node">
<title>Node6</title>
<g id="a_node6"><a xlink:href="sprite_8hpp_source.html" target="_top" xlink:title=" ">
<polygon fill="white" stroke="black" points="225,-168.5 225,-187.5 332,-187.5 332,-168.5 225,-168.5"/>
<text text-anchor="middle" x="278.5" y="-175.5" font-family="'Consolas',monospace" font-size="10.00">jngl/sprite.hpp</text>
</a>
</g>
</g>
<!-- Node1&#45;&gt;Node6 -->
<g id="edge6" class="edge">
<title>Node1&#45;&gt;Node6</title>
<path fill="none" stroke="midnightblue" d="M381.82,-220.64C356.68,-210.5 321.75,-196.43 299.63,-187.52"/>
<polygon fill="midnightblue" stroke="midnightblue" points="380.68,-223.95 391.27,-224.44 383.3,-217.46 380.68,-223.95"/>
</g>
<!-- Node8 -->
<g id="node8" class="node">
<title>Node8</title>
<g id="a_node8"><a xlink:href="font_8hpp.html" target="_top" xlink:title=" ">
<polygon fill="white" stroke="black" points="345,-112.5 345,-131.5 440,-131.5 440,-112.5 345,-112.5"/>
<text text-anchor="middle" x="392.5" y="-119.5" font-family="'Consolas',monospace" font-size="10.00">jngl/font.hpp</text>
</a>
</g>
</g>
<!-- Node1&#45;&gt;Node8 -->
<g id="edge10" class="edge">
<title>Node1&#45;&gt;Node8</title>
<path fill="none" stroke="midnightblue" d="M409.11,-214.35C404.73,-190.25 397.28,-149.31 394.06,-131.59"/>
<polygon fill="midnightblue" stroke="midnightblue" points="405.7,-215.16 410.93,-224.37 412.59,-213.9 405.7,-215.16"/>
</g>
<!-- Node9 -->
<g id="node9" class="node">
<title>Node9</title>
<g id="a_node9"><a xlink:href="framebuffer_8hpp.html" target="_top" xlink:title="Contains FrameBuffer class.">
<polygon fill="white" stroke="black" points="458,-112.5 458,-131.5 589,-131.5 589,-112.5 458,-112.5"/>
<text text-anchor="middle" x="523.5" y="-119.5" font-family="'Consolas',monospace" font-size="10.00">jngl/framebuffer.hpp</text>
</a>
</g>
</g>
<!-- Node1&#45;&gt;Node9 -->
<g id="edge12" class="edge">
<title>Node1&#45;&gt;Node9</title>
<path fill="none" stroke="midnightblue" d="M424.31,-216C434.24,-202.3 449.22,-182.94 464.5,-168 478.87,-153.96 497.64,-140.32 510.11,-131.81"/>
<polygon fill="midnightblue" stroke="midnightblue" points="421.25,-214.27 418.31,-224.45 426.95,-218.33 421.25,-214.27"/>
</g>
<!-- Node10 -->
<g id="node10" class="node">
<title>Node10</title>
<g id="a_node10"><a xlink:href="screen_8hpp.html" target="_top" xlink:title=" ">
<polygon fill="white" stroke="black" points="473,-168.5 473,-187.5 580,-187.5 580,-168.5 473,-168.5"/>
<text text-anchor="middle" x="526.5" y="-175.5" font-family="'Consolas',monospace" font-size="10.00">jngl/screen.hpp</text>
</a>
</g>
</g>
<!-- Node1&#45;&gt;Node10 -->
<g id="edge14" class="edge">
<title>Node1&#45;&gt;Node10</title>
<path fill="none" stroke="midnightblue" d="M439.74,-220.1C461.04,-210.01 490.04,-196.27 508.52,-187.52"/>
<polygon fill="midnightblue" stroke="midnightblue" points="438.1,-217 430.56,-224.44 441.1,-223.33 438.1,-217"/>
</g>
<!-- Node11 -->
<g id="node11" class="node">
<title>Node11</title>
<g id="a_node11"><a xlink:href="shapes_8hpp.html" target="_top" xlink:title="Functions for drawing shapes.">
<polygon fill="white" stroke="black" points="600,-168.5 600,-187.5 707,-187.5 707,-168.5 600,-168.5"/>
<text text-anchor="middle" x="653.5" y="-175.5" font-family="'Consolas',monospace" font-size="10.00">jngl/shapes.hpp</text>
</a>
</g>
</g>
<!-- Node1&#45;&gt;Node11 -->
<g id="edge16" class="edge">
<title>Node1&#45;&gt;Node11</title>
<path fill="none" stroke="midnightblue" d="M460.62,-222.22C506.16,-212.01 573.61,-196.9 615.49,-187.52"/>
<polygon fill="midnightblue" stroke="midnightblue" points="459.68,-218.84 450.69,-224.44 461.21,-225.67 459.68,-218.84"/>
</g>
<!-- Node3 -->
<g id="node3" class="node">
<title>Node3</title>
<g id="a_node3"><a xlink:href="Controller_8hpp.html" target="_top" xlink:title=" ">
<polygon fill="white" stroke="black" points="0,-112.5 0,-131.5 131,-131.5 131,-112.5 0,-112.5"/>
<text text-anchor="middle" x="65.5" y="-119.5" font-family="'Consolas',monospace" font-size="10.00">jngl/Controller.hpp</text>
</a>
</g>
</g>
<!-- Node2&#45;&gt;Node3 -->
<g id="edge2" class="edge">
<title>Node2&#45;&gt;Node3</title>
<path fill="none" stroke="midnightblue" d="M133.21,-163.18C116.46,-153.24 94.4,-140.15 80.08,-131.65"/>
<polygon fill="midnightblue" stroke="midnightblue" points="131.49,-166.23 141.88,-168.32 135.07,-160.21 131.49,-166.23"/>
</g>
<!-- Node4 -->
<g id="node4" class="node">
<title>Node4</title>
<g id="a_node4"><a xlink:href="all_8hpp.html" target="_top" xlink:title="Includes all JNGL headers.">
<polygon fill="white" stroke="black" points="290,-56.5 290,-75.5 379,-75.5 379,-56.5 290,-56.5"/>
<text text-anchor="middle" x="334.5" y="-63.5" font-family="'Consolas',monospace" font-size="10.00">jngl/all.hpp</text>
</a>
</g>
</g>
<!-- Node2&#45;&gt;Node4 -->
<g id="edge5" class="edge">
<title>Node2&#45;&gt;Node4</title>
<path fill="none" stroke="midnightblue" d="M166.89,-159.56C176.35,-145.02 191.56,-124.7 209.5,-112 235.01,-93.94 268.53,-82.39 294.44,-75.52"/>
<polygon fill="midnightblue" stroke="midnightblue" points="163.86,-157.81 161.53,-168.14 169.8,-161.51 163.86,-157.81"/>
</g>
<!-- Node3&#45;&gt;Node4 -->
<g id="edge3" class="edge">
<title>Node3&#45;&gt;Node4</title>
<path fill="none" stroke="midnightblue" d="M117.94,-110.47C168.78,-100.27 244.94,-84.98 292.08,-75.52"/>
<polygon fill="midnightblue" stroke="midnightblue" points="117.24,-107.04 108.12,-112.44 118.62,-113.91 117.24,-107.04"/>
</g>
<!-- Node5 -->
<g id="node5" class="node">
<title>Node5</title>
<g id="a_node5"><a xlink:href="jngl_8hpp_source.html" target="_top" xlink:title=" ">
<polygon fill="white" stroke="black" points="302,-0.5 302,-19.5 367,-19.5 367,-0.5 302,-0.5"/>
<text text-anchor="middle" x="334.5" y="-7.5" font-family="'Consolas',monospace" font-size="10.00">jngl.hpp</text>
</a>
</g>
</g>
<!-- Node4&#45;&gt;Node5 -->
<g id="edge4" class="edge">
<title>Node4&#45;&gt;Node5</title>
<path fill="none" stroke="midnightblue" d="M334.5,-45.8C334.5,-36.91 334.5,-26.78 334.5,-19.75"/>
<polygon fill="midnightblue" stroke="midnightblue" points="331,-46.08 334.5,-56.08 338,-46.08 331,-46.08"/>
</g>
<!-- Node6&#45;&gt;Node4 -->
<g id="edge9" class="edge">
<title>Node6&#45;&gt;Node4</title>
<path fill="none" stroke="midnightblue" d="M250.37,-163.41C228.54,-150.96 204.08,-131.53 217.5,-112 233.7,-88.41 264.13,-77.18 289.89,-71.84"/>
<polygon fill="midnightblue" stroke="midnightblue" points="248.98,-166.64 259.44,-168.3 252.3,-160.47 248.98,-166.64"/>
</g>
<!-- Node7 -->
<g id="node7" class="node">
<title>Node7</title>
<g id="a_node7"><a xlink:href="Video_8hpp.html" target="_top" xlink:title=" ">
<polygon fill="white" stroke="black" points="226,-112.5 226,-131.5 327,-131.5 327,-112.5 226,-112.5"/>
<text text-anchor="middle" x="276.5" y="-119.5" font-family="'Consolas',monospace" font-size="10.00">jngl/Video.hpp</text>
</a>
</g>
</g>
<!-- Node6&#45;&gt;Node7 -->
<g id="edge7" class="edge">
<title>Node6&#45;&gt;Node7</title>
<path fill="none" stroke="midnightblue" d="M277.79,-157.8C277.46,-148.91 277.08,-138.78 276.82,-131.75"/>
<polygon fill="midnightblue" stroke="midnightblue" points="274.3,-158.22 278.17,-168.08 281.3,-157.96 274.3,-158.22"/>
</g>
<!-- Node7&#45;&gt;Node4 -->
<g id="edge8" class="edge">
<title>Node7&#45;&gt;Node4</title>
<path fill="none" stroke="midnightblue" d="M293.41,-105.25C303.7,-95.67 316.47,-83.79 325.01,-75.83"/>
<polygon fill="midnightblue" stroke="midnightblue" points="290.75,-102.95 285.82,-112.32 295.52,-108.07 290.75,-102.95"/>
</g>
<!-- Node8&#45;&gt;Node4 -->
<g id="edge11" class="edge">
<title>Node8&#45;&gt;Node4</title>
<path fill="none" stroke="midnightblue" d="M375.59,-105.25C365.3,-95.67 352.53,-83.79 343.99,-75.83"/>
<polygon fill="midnightblue" stroke="midnightblue" points="373.48,-108.07 383.18,-112.32 378.25,-102.95 373.48,-108.07"/>
</g>
<!-- Node9&#45;&gt;Node4 -->
<g id="edge13" class="edge">
<title>Node9&#45;&gt;Node4</title>
<path fill="none" stroke="midnightblue" d="M483.49,-109.57C447.83,-99.38 396.46,-84.7 364.31,-75.52"/>
<polygon fill="midnightblue" stroke="midnightblue" points="482.98,-113.06 493.55,-112.44 484.9,-106.33 482.98,-113.06"/>
</g>
<!-- Node10&#45;&gt;Node4 -->
<g id="edge15" class="edge">
<title>Node10&#45;&gt;Node4</title>
<path fill="none" stroke="midnightblue" d="M558.7,-164.15C585.06,-151.79 615.43,-132.06 598.5,-112 570.95,-79.36 446.94,-70.39 379.13,-67.93"/>
<polygon fill="midnightblue" stroke="midnightblue" points="556.98,-161.09 549.27,-168.36 559.83,-167.48 556.98,-161.09"/>
</g>
<!-- Node11&#45;&gt;Node4 -->
<g id="edge17" class="edge">
<title>Node11&#45;&gt;Node4</title>
<path fill="none" stroke="midnightblue" d="M647.35,-158.39C641.38,-143.39 630.81,-123.04 614.5,-112 576.88,-86.55 448.05,-74.41 379.02,-69.61"/>
<polygon fill="midnightblue" stroke="midnightblue" points="644.19,-159.95 650.89,-168.15 650.77,-157.56 644.19,-159.95"/>
</g>
</g>
</svg>
