<?xml version="1.0" encoding="UTF-8" standalone="no"?>
<!DOCTYPE svg PUBLIC "-//W3C//DTD SVG 1.1//EN"
 "http://www.w3.org/Graphics/SVG/1.1/DTD/svg11.dtd">
<!-- Generated by graphviz version 2.43.0 (0)
 -->
<!-- Title: jngl/Vec2.hpp Pages: 1 -->
<svg width="1050pt" height="308pt"
 viewBox="0.00 0.00 1049.64 308.00" xmlns="http://www.w3.org/2000/svg" xmlns:xlink="http://www.w3.org/1999/xlink">
<g id="graph0" class="graph" transform="scale(1 1) rotate(0) translate(4 304)">
<title>jngl/Vec2.hpp</title>
<polygon fill="white" stroke="transparent" points="-4,4 -4,-304 1045.64,-304 1045.64,4 -4,4"/>
<!-- Node1 -->
<g id="node1" class="node">
<title>Node1</title>
<g id="a_node1"><a xlink:title="Contains jngl::Vec2 class.">
<polygon fill="#bfbfbf" stroke="black" points="599,-280.5 599,-299.5 694,-299.5 694,-280.5 599,-280.5"/>
<text text-anchor="middle" x="646.5" y="-287.5" font-family="'Consolas',monospace" font-size="10.00">jngl/Vec2.hpp</text>
</a>
</g>
</g>
<!-- Node2 -->
<g id="node2" class="node">
<title>Node2</title>
<g id="a_node2"><a xlink:href="AppParameters_8hpp.html" target="_top" xlink:title="Contains jngl::AppParameters struct.">
<polygon fill="white" stroke="black" points="0,-224.5 0,-243.5 149,-243.5 149,-224.5 0,-224.5"/>
<text text-anchor="middle" x="74.5" y="-231.5" font-family="'Consolas',monospace" font-size="10.00">jngl/AppParameters.hpp</text>
</a>
</g>
</g>
<!-- Node1&#45;&gt;Node2 -->
<g id="edge1" class="edge">
<title>Node1&#45;&gt;Node2</title>
<path fill="none" stroke="midnightblue" d="M588.77,-283.99C497.26,-275.99 313.31,-259.62 157.5,-244 154.76,-243.73 151.97,-243.44 149.15,-243.15"/>
<polygon fill="midnightblue" stroke="midnightblue" points="588.66,-287.5 598.93,-284.88 589.27,-280.52 588.66,-287.5"/>
</g>
<!-- Node4 -->
<g id="node4" class="node">
<title>Node4</title>
<g id="a_node4"><a xlink:href="Drawable_8hpp.html" target="_top" xlink:title="Contains jngl::Drawable class.">
<polygon fill="white" stroke="black" points="343,-224.5 343,-243.5 462,-243.5 462,-224.5 343,-224.5"/>
<text text-anchor="middle" x="402.5" y="-231.5" font-family="'Consolas',monospace" font-size="10.00">jngl/Drawable.hpp</text>
</a>
</g>
</g>
<!-- Node1&#45;&gt;Node4 -->
<g id="edge3" class="edge">
<title>Node1&#45;&gt;Node4</title>
<path fill="none" stroke="midnightblue" d="M598.07,-278.28C551.96,-268.08 483.47,-252.92 440.98,-243.52"/>
<polygon fill="midnightblue" stroke="midnightblue" points="597.32,-281.7 607.84,-280.44 598.83,-274.87 597.32,-281.7"/>
</g>
<!-- Node7 -->
<g id="node7" class="node">
<title>Node7</title>
<g id="a_node7"><a xlink:href="sprite_8hpp.html" target="_top" xlink:title="Contains jngl::Sprite class and related functions.">
<polygon fill="white" stroke="black" points="179,-168.5 179,-187.5 286,-187.5 286,-168.5 179,-168.5"/>
<text text-anchor="middle" x="232.5" y="-175.5" font-family="'Consolas',monospace" font-size="10.00">jngl/sprite.hpp</text>
</a>
</g>
</g>
<!-- Node1&#45;&gt;Node7 -->
<g id="edge28" class="edge">
<title>Node1&#45;&gt;Node7</title>
<path fill="none" stroke="midnightblue" d="M588.48,-288.01C524.24,-285.25 418.52,-275.74 333.5,-244 296.97,-230.36 259.92,-201.97 242.6,-187.65"/>
<polygon fill="midnightblue" stroke="midnightblue" points="588.69,-291.52 598.82,-288.41 588.96,-284.52 588.69,-291.52"/>
</g>
<!-- Node11 -->
<g id="node11" class="node">
<title>Node11</title>
<g id="a_node11"><a xlink:href="font_8hpp.html" target="_top" xlink:title="Contains jngl::Font class and related functions.">
<polygon fill="white" stroke="black" points="585,-112.5 585,-131.5 680,-131.5 680,-112.5 585,-112.5"/>
<text text-anchor="middle" x="632.5" y="-119.5" font-family="'Consolas',monospace" font-size="10.00">jngl/font.hpp</text>
</a>
</g>
</g>
<!-- Node1&#45;&gt;Node11 -->
<g id="edge15" class="edge">
<title>Node1&#45;&gt;Node11</title>
<path fill="none" stroke="midnightblue" d="M664.64,-273.63C689.74,-250.42 729.7,-205.19 708.5,-168 698.25,-150.02 677.67,-138.49 660.52,-131.6"/>
<polygon fill="midnightblue" stroke="midnightblue" points="662.24,-271.08 657.11,-280.35 666.9,-276.3 662.24,-271.08"/>
</g>
<!-- Node12 -->
<g id="node12" class="node">
<title>Node12</title>
<g id="a_node12"><a xlink:href="framebuffer_8hpp.html" target="_top" xlink:title="Contains jngl::FrameBuffer class.">
<polygon fill="white" stroke="black" points="698,-112.5 698,-131.5 835,-131.5 835,-112.5 698,-112.5"/>
<text text-anchor="middle" x="766.5" y="-119.5" font-family="'Consolas',monospace" font-size="10.00">jngl/framebuffer.hpp</text>
</a>
</g>
</g>
<!-- Node1&#45;&gt;Node12 -->
<g id="edge17" class="edge">
<title>Node1&#45;&gt;Node12</title>
<path fill="none" stroke="midnightblue" d="M673.65,-275.52C687.05,-267.79 702.62,-257.02 713.5,-244 743.5,-208.1 759.34,-152.58 764.54,-131.51"/>
<polygon fill="midnightblue" stroke="midnightblue" points="671.89,-272.5 664.81,-280.38 675.26,-278.63 671.89,-272.5"/>
</g>
<!-- Node13 -->
<g id="node13" class="node">
<title>Node13</title>
<g id="a_node13"><a xlink:href="input_8hpp.html" target="_top" xlink:title="Input related functions.">
<polygon fill="white" stroke="black" points="813,-168.5 813,-187.5 914,-187.5 914,-168.5 813,-168.5"/>
<text text-anchor="middle" x="863.5" y="-175.5" font-family="'Consolas',monospace" font-size="10.00">jngl/input.hpp</text>
</a>
</g>
</g>
<!-- Node1&#45;&gt;Node13 -->
<g id="edge19" class="edge">
<title>Node1&#45;&gt;Node13</title>
<path fill="none" stroke="midnightblue" d="M692.4,-277.78C719.05,-270.25 752.72,-258.97 780.5,-244 810.15,-228.03 840.05,-201.44 854.53,-187.74"/>
<polygon fill="midnightblue" stroke="midnightblue" points="691.28,-274.45 682.56,-280.48 693.13,-281.2 691.28,-274.45"/>
</g>
<!-- Node15 -->
<g id="node15" class="node">
<title>Node15</title>
<g id="a_node15"><a xlink:href="screen_8hpp.html" target="_top" xlink:title=" ">
<polygon fill="white" stroke="black" points="167,-224.5 167,-243.5 274,-243.5 274,-224.5 167,-224.5"/>
<text text-anchor="middle" x="220.5" y="-231.5" font-family="'Consolas',monospace" font-size="10.00">jngl/screen.hpp</text>
</a>
</g>
</g>
<!-- Node1&#45;&gt;Node15 -->
<g id="edge23" class="edge">
<title>Node1&#45;&gt;Node15</title>
<path fill="none" stroke="midnightblue" d="M588.88,-281.7C506.11,-271.2 354.67,-252.01 274.15,-241.8"/>
<polygon fill="midnightblue" stroke="midnightblue" points="588.51,-285.18 598.87,-282.96 589.39,-278.23 588.51,-285.18"/>
</g>
<!-- Node16 -->
<g id="node16" class="node">
<title>Node16</title>
<g id="a_node16"><a xlink:href="shapes_8hpp.html" target="_top" xlink:title="Functions for drawing shapes.">
<polygon fill="white" stroke="black" points="930,-224.5 930,-243.5 1037,-243.5 1037,-224.5 930,-224.5"/>
<text text-anchor="middle" x="983.5" y="-231.5" font-family="'Consolas',monospace" font-size="10.00">jngl/shapes.hpp</text>
</a>
</g>
</g>
<!-- Node1&#45;&gt;Node16 -->
<g id="edge26" class="edge">
<title>Node1&#45;&gt;Node16</title>
<path fill="none" stroke="midnightblue" d="M704.3,-279.74C767.76,-269.57 868.79,-253.38 930.34,-243.52"/>
<polygon fill="midnightblue" stroke="midnightblue" points="703.39,-276.34 694.07,-281.38 704.5,-283.25 703.39,-276.34"/>
</g>
<!-- Node17 -->
<g id="node17" class="node">
<title>Node17</title>
<g id="a_node17"><a xlink:href="Widget_8hpp.html" target="_top" xlink:title="Contains jngl::Container class.">
<polygon fill="white" stroke="black" points="593,-168.5 593,-187.5 700,-187.5 700,-168.5 593,-168.5"/>
<text text-anchor="middle" x="646.5" y="-175.5" font-family="'Consolas',monospace" font-size="10.00">jngl/Widget.hpp</text>
</a>
</g>
</g>
<!-- Node1&#45;&gt;Node17 -->
<g id="edge29" class="edge">
<title>Node1&#45;&gt;Node17</title>
<path fill="none" stroke="midnightblue" d="M646.5,-270.35C646.5,-246.25 646.5,-205.31 646.5,-187.59"/>
<polygon fill="midnightblue" stroke="midnightblue" points="643,-270.37 646.5,-280.37 650,-270.37 643,-270.37"/>
</g>
<!-- Node3 -->
<g id="node3" class="node">
<title>Node3</title>
<g id="a_node3"><a xlink:href="init_8hpp.html" target="_top" xlink:title="Include this file only once, as it defines the main function.">
<polygon fill="white" stroke="black" points="27,-168.5 27,-187.5 122,-187.5 122,-168.5 27,-168.5"/>
<text text-anchor="middle" x="74.5" y="-175.5" font-family="'Consolas',monospace" font-size="10.00">jngl/init.hpp</text>
</a>
</g>
</g>
<!-- Node2&#45;&gt;Node3 -->
<g id="edge2" class="edge">
<title>Node2&#45;&gt;Node3</title>
<path fill="none" stroke="midnightblue" d="M74.5,-213.8C74.5,-204.91 74.5,-194.78 74.5,-187.75"/>
<polygon fill="midnightblue" stroke="midnightblue" points="71,-214.08 74.5,-224.08 78,-214.08 71,-214.08"/>
</g>
<!-- Node5 -->
<g id="node5" class="node">
<title>Node5</title>
<g id="a_node5"><a xlink:href="all_8hpp.html" target="_top" xlink:title="Includes all JNGL headers except for init.hpp.">
<polygon fill="white" stroke="black" points="472,-56.5 472,-75.5 561,-75.5 561,-56.5 472,-56.5"/>
<text text-anchor="middle" x="516.5" y="-63.5" font-family="'Consolas',monospace" font-size="10.00">jngl/all.hpp</text>
</a>
</g>
</g>
<!-- Node4&#45;&gt;Node5 -->
<g id="edge4" class="edge">
<title>Node4&#45;&gt;Node5</title>
<path fill="none" stroke="midnightblue" d="M370.89,-220.02C348.25,-208.57 323.4,-190.26 333.5,-168 358.24,-113.47 427.11,-87.28 472.95,-75.54"/>
<polygon fill="midnightblue" stroke="midnightblue" points="369.49,-223.23 380.03,-224.36 372.49,-216.91 369.49,-223.23"/>
</g>
<!-- Node4&#45;&gt;Node7 -->
<g id="edge6" class="edge">
<title>Node4&#45;&gt;Node7</title>
<path fill="none" stroke="midnightblue" d="M365.68,-221.3C333.65,-211.13 287.98,-196.62 259.31,-187.52"/>
<polygon fill="midnightblue" stroke="midnightblue" points="364.97,-224.75 375.56,-224.44 367.09,-218.08 364.97,-224.75"/>
</g>
<!-- Node8 -->
<g id="node8" class="node">
<title>Node8</title>
<g id="a_node8"><a xlink:href="text_8hpp.html" target="_top" xlink:title=" ">
<polygon fill="white" stroke="black" points="480,-168.5 480,-187.5 575,-187.5 575,-168.5 480,-168.5"/>
<text text-anchor="middle" x="527.5" y="-175.5" font-family="'Consolas',monospace" font-size="10.00">jngl/text.hpp</text>
</a>
</g>
</g>
<!-- Node4&#45;&gt;Node8 -->
<g id="edge8" class="edge">
<title>Node4&#45;&gt;Node8</title>
<path fill="none" stroke="midnightblue" d="M431.74,-220.37C455.15,-210.26 487.34,-196.35 507.79,-187.52"/>
<polygon fill="midnightblue" stroke="midnightblue" points="430.1,-217.26 422.31,-224.44 432.87,-223.69 430.1,-217.26"/>
</g>
<!-- Node10 -->
<g id="node10" class="node">
<title>Node10</title>
<g id="a_node10"><a xlink:href="TextLine_8hpp.html" target="_top" xlink:title="Contains jngl::TextLine class.">
<polygon fill="white" stroke="black" points="343,-168.5 343,-187.5 462,-187.5 462,-168.5 343,-168.5"/>
<text text-anchor="middle" x="402.5" y="-175.5" font-family="'Consolas',monospace" font-size="10.00">jngl/TextLine.hpp</text>
</a>
</g>
</g>
<!-- Node4&#45;&gt;Node10 -->
<g id="edge12" class="edge">
<title>Node4&#45;&gt;Node10</title>
<path fill="none" stroke="midnightblue" d="M402.5,-213.8C402.5,-204.91 402.5,-194.78 402.5,-187.75"/>
<polygon fill="midnightblue" stroke="midnightblue" points="399,-214.08 402.5,-224.08 406,-214.08 399,-214.08"/>
</g>
<!-- Node6 -->
<g id="node6" class="node">
<title>Node6</title>
<g id="a_node6"><a xlink:href="jngl_8hpp.html" target="_top" xlink:title="Includes jngl/all.hpp.">
<polygon fill="white" stroke="black" points="484,-0.5 484,-19.5 549,-19.5 549,-0.5 484,-0.5"/>
<text text-anchor="middle" x="516.5" y="-7.5" font-family="'Consolas',monospace" font-size="10.00">jngl.hpp</text>
</a>
</g>
</g>
<!-- Node5&#45;&gt;Node6 -->
<g id="edge5" class="edge">
<title>Node5&#45;&gt;Node6</title>
<path fill="none" stroke="midnightblue" d="M516.5,-45.8C516.5,-36.91 516.5,-26.78 516.5,-19.75"/>
<polygon fill="midnightblue" stroke="midnightblue" points="513,-46.08 516.5,-56.08 520,-46.08 513,-46.08"/>
</g>
<!-- Node7&#45;&gt;Node5 -->
<g id="edge7" class="edge">
<title>Node7&#45;&gt;Node5</title>
<path fill="none" stroke="midnightblue" d="M245.32,-160.27C257.77,-145.26 278.03,-123.82 300.5,-112 355.08,-83.3 426.44,-72.9 471.89,-69.13"/>
<polygon fill="midnightblue" stroke="midnightblue" points="242.46,-158.25 238.94,-168.25 247.92,-162.63 242.46,-158.25"/>
</g>
<!-- Node8&#45;&gt;Node5 -->
<g id="edge9" class="edge">
<title>Node8&#45;&gt;Node5</title>
<path fill="none" stroke="midnightblue" d="M470.1,-167.17C450.02,-160.67 429.51,-149.89 417.5,-132 398.88,-104.26 443.79,-85.55 479.08,-75.58"/>
<polygon fill="midnightblue" stroke="midnightblue" points="469.31,-170.58 479.89,-170.02 471.27,-163.86 469.31,-170.58"/>
</g>
<!-- Node9 -->
<g id="node9" class="node">
<title>Node9</title>
<g id="a_node9"><a xlink:href="Label_8hpp.html" target="_top" xlink:title="Contains jngl::Label class.">
<polygon fill="white" stroke="black" points="427,-112.5 427,-131.5 528,-131.5 528,-112.5 427,-112.5"/>
<text text-anchor="middle" x="477.5" y="-119.5" font-family="'Consolas',monospace" font-size="10.00">jngl/Label.hpp</text>
</a>
</g>
</g>
<!-- Node8&#45;&gt;Node9 -->
<g id="edge10" class="edge">
<title>Node8&#45;&gt;Node9</title>
<path fill="none" stroke="midnightblue" d="M512.42,-160.72C503.61,-151.2 492.83,-139.56 485.6,-131.75"/>
<polygon fill="midnightblue" stroke="midnightblue" points="509.88,-163.12 519.24,-168.08 515.02,-158.37 509.88,-163.12"/>
</g>
<!-- Node9&#45;&gt;Node5 -->
<g id="edge11" class="edge">
<title>Node9&#45;&gt;Node5</title>
<path fill="none" stroke="midnightblue" d="M489.88,-103.86C496.64,-94.5 504.71,-83.33 510.18,-75.75"/>
<polygon fill="midnightblue" stroke="midnightblue" points="486.96,-101.93 483.94,-112.08 492.63,-106.03 486.96,-101.93"/>
</g>
<!-- Node10&#45;&gt;Node5 -->
<g id="edge13" class="edge">
<title>Node10&#45;&gt;Node5</title>
<path fill="none" stroke="midnightblue" d="M399.77,-158.44C398.73,-144.35 399.66,-125.22 409.5,-112 424.3,-92.12 449.58,-80.95 471.85,-74.72"/>
<polygon fill="midnightblue" stroke="midnightblue" points="396.3,-158.89 400.89,-168.44 403.25,-158.11 396.3,-158.89"/>
</g>
<!-- Node10&#45;&gt;Node9 -->
<g id="edge14" class="edge">
<title>Node10&#45;&gt;Node9</title>
<path fill="none" stroke="midnightblue" d="M422.81,-162.38C436.36,-152.62 453.74,-140.11 465.23,-131.83"/>
<polygon fill="midnightblue" stroke="midnightblue" points="420.62,-159.64 414.55,-168.32 424.71,-165.32 420.62,-159.64"/>
</g>
<!-- Node11&#45;&gt;Node5 -->
<g id="edge16" class="edge">
<title>Node11&#45;&gt;Node5</title>
<path fill="none" stroke="midnightblue" d="M604.78,-108.1C583.11,-98.01 553.6,-84.27 534.79,-75.52"/>
<polygon fill="midnightblue" stroke="midnightblue" points="603.58,-111.4 614.12,-112.44 606.53,-105.05 603.58,-111.4"/>
</g>
<!-- Node12&#45;&gt;Node5 -->
<g id="edge18" class="edge">
<title>Node12&#45;&gt;Node5</title>
<path fill="none" stroke="midnightblue" d="M716.88,-110.28C669.63,-100.08 599.46,-84.92 555.93,-75.52"/>
<polygon fill="midnightblue" stroke="midnightblue" points="716.37,-113.75 726.89,-112.44 717.85,-106.91 716.37,-113.75"/>
</g>
<!-- Node13&#45;&gt;Node5 -->
<g id="edge20" class="edge">
<title>Node13&#45;&gt;Node5</title>
<path fill="none" stroke="midnightblue" d="M862.94,-158.16C861.43,-143.33 856.83,-123.33 843.5,-112 801.86,-76.6 640.72,-68.97 561.29,-67.38"/>
<polygon fill="midnightblue" stroke="midnightblue" points="859.46,-158.51 863.58,-168.27 866.44,-158.07 859.46,-158.51"/>
</g>
<!-- Node14 -->
<g id="node14" class="node">
<title>Node14</title>
<g id="a_node14"><a xlink:href="Controller_8hpp.html" target="_top" xlink:title="Contains jngl::Controller class.">
<polygon fill="white" stroke="black" points="892,-112.5 892,-131.5 1023,-131.5 1023,-112.5 892,-112.5"/>
<text text-anchor="middle" x="957.5" y="-119.5" font-family="'Consolas',monospace" font-size="10.00">jngl/Controller.hpp</text>
</a>
</g>
</g>
<!-- Node13&#45;&gt;Node14 -->
<g id="edge21" class="edge">
<title>Node13&#45;&gt;Node14</title>
<path fill="none" stroke="midnightblue" d="M887.56,-163.18C904.86,-153.24 927.65,-140.15 942.43,-131.65"/>
<polygon fill="midnightblue" stroke="midnightblue" points="885.53,-160.31 878.6,-168.32 889.02,-166.38 885.53,-160.31"/>
</g>
<!-- Node14&#45;&gt;Node5 -->
<g id="edge22" class="edge">
<title>Node14&#45;&gt;Node5</title>
<path fill="none" stroke="midnightblue" d="M881.84,-111.74C789.56,-100.44 636.58,-81.7 561.24,-72.48"/>
<polygon fill="midnightblue" stroke="midnightblue" points="881.6,-115.23 891.95,-112.97 882.45,-108.28 881.6,-115.23"/>
</g>
<!-- Node15&#45;&gt;Node3 -->
<g id="edge25" class="edge">
<title>Node15&#45;&gt;Node3</title>
<path fill="none" stroke="midnightblue" d="M187.8,-220.91C160.35,-210.75 121.83,-196.51 97.53,-187.52"/>
<polygon fill="midnightblue" stroke="midnightblue" points="186.77,-224.26 197.37,-224.44 189.2,-217.69 186.77,-224.26"/>
</g>
<!-- Node15&#45;&gt;Node5 -->
<g id="edge24" class="edge">
<title>Node15&#45;&gt;Node5</title>
<path fill="none" stroke="midnightblue" d="M196.36,-218.66C178.32,-206.01 158.53,-186.72 169.5,-168 195.26,-124.05 221.57,-129.24 269.5,-112 337.58,-87.51 421.23,-75.86 471.63,-70.69"/>
<polygon fill="midnightblue" stroke="midnightblue" points="194.66,-221.73 204.93,-224.31 198.51,-215.88 194.66,-221.73"/>
</g>
<!-- Node16&#45;&gt;Node5 -->
<g id="edge27" class="edge">
<title>Node16&#45;&gt;Node5</title>
<path fill="none" stroke="midnightblue" d="M999.39,-216.98C1022.47,-191.79 1059.61,-142.67 1031.5,-112 1000.01,-77.63 680.46,-69.41 561.13,-67.53"/>
<polygon fill="midnightblue" stroke="midnightblue" points="996.83,-214.59 992.49,-224.26 1001.91,-219.41 996.83,-214.59"/>
</g>
<!-- Node17&#45;&gt;Node5 -->
<g id="edge30" class="edge">
<title>Node17&#45;&gt;Node5</title>
<path fill="none" stroke="midnightblue" d="M621.71,-163.51C607.54,-155.27 589.79,-144.02 575.5,-132 554.27,-114.15 533.41,-88.82 523.12,-75.68"/>
<polygon fill="midnightblue" stroke="midnightblue" points="620.01,-166.57 630.44,-168.47 623.47,-160.49 620.01,-166.57"/>
</g>
<!-- Node17&#45;&gt;Node9 -->
<g id="edge31" class="edge">
<title>Node17&#45;&gt;Node9</title>
<path fill="none" stroke="midnightblue" d="M609.9,-165.3C578.05,-155.13 532.66,-140.62 504.15,-131.52"/>
<polygon fill="midnightblue" stroke="midnightblue" points="609.13,-168.73 619.72,-168.44 611.26,-162.07 609.13,-168.73"/>
</g>
</g>
</svg>
