<?xml version="1.0" encoding="UTF-8" standalone="no"?>
<!DOCTYPE svg PUBLIC "-//W3C//DTD SVG 1.1//EN"
 "http://www.w3.org/Graphics/SVG/1.1/DTD/svg11.dtd">
<!-- Generated by graphviz version 2.40.1 (0)
 -->
<!-- Title: jngl/Vec2.hpp Pages: 1 -->
<svg width="229pt" height="84pt"
 viewBox="0.00 0.00 228.50 84.00" xmlns="http://www.w3.org/2000/svg" xmlns:xlink="http://www.w3.org/1999/xlink">
<g id="graph0" class="graph" transform="scale(1 1) rotate(0) translate(4 80)">
<title>jngl/Vec2.hpp</title>
<polygon fill="#ffffff" stroke="transparent" points="-4,4 -4,-80 224.5,-80 224.5,4 -4,4"/>
<!-- Node0 -->
<g id="node1" class="node">
<title>Node0</title>
<polygon fill="#bfbfbf" stroke="#000000" points="72,-56.5 72,-75.5 148,-75.5 148,-56.5 72,-56.5"/>
<text text-anchor="middle" x="110" y="-63.5" font-family="Lato" font-size="10.00" fill="#000000">jngl/Vec2.hpp</text>
</g>
<!-- Node1 -->
<g id="node2" class="node">
<title>Node1</title>
<g id="a_node2"><a xlink:href="dll_8hpp_source.html" target="_top" xlink:title="dll.hpp">
<polygon fill="#ffffff" stroke="#000000" points="0,-.5 0,-19.5 44,-19.5 44,-.5 0,-.5"/>
<text text-anchor="middle" x="22" y="-7.5" font-family="Lato" font-size="10.00" fill="#000000">dll.hpp</text>
</a>
</g>
</g>
<!-- Node0&#45;&gt;Node1 -->
<g id="edge1" class="edge">
<title>Node0&#45;&gt;Node1</title>
<path fill="none" stroke="#191970" d="M94.6716,-56.2455C81.1697,-47.6534 61.2878,-35.0014 45.7314,-25.1018"/>
<polygon fill="#191970" stroke="#191970" points="47.4685,-22.0587 37.1528,-19.6427 43.7103,-27.9643 47.4685,-22.0587"/>
</g>
<!-- Node2 -->
<g id="node3" class="node">
<title>Node2</title>
<polygon fill="#ffffff" stroke="#bfbfbf" points="62.5,-.5 62.5,-19.5 157.5,-19.5 157.5,-.5 62.5,-.5"/>
<text text-anchor="middle" x="110" y="-7.5" font-family="Lato" font-size="10.00" fill="#000000">boost/version.hpp</text>
</g>
<!-- Node0&#45;&gt;Node2 -->
<g id="edge2" class="edge">
<title>Node0&#45;&gt;Node2</title>
<path fill="none" stroke="#191970" d="M110,-56.2455C110,-48.9382 110,-38.6944 110,-29.7046"/>
<polygon fill="#191970" stroke="#191970" points="113.5001,-29.6426 110,-19.6427 106.5001,-29.6427 113.5001,-29.6426"/>
</g>
<!-- Node3 -->
<g id="node4" class="node">
<title>Node3</title>
<polygon fill="#ffffff" stroke="#bfbfbf" points="175.5,-.5 175.5,-19.5 220.5,-19.5 220.5,-.5 175.5,-.5"/>
<text text-anchor="middle" x="198" y="-7.5" font-family="Lato" font-size="10.00" fill="#000000">iosfwd</text>
</g>
<!-- Node0&#45;&gt;Node3 -->
<g id="edge3" class="edge">
<title>Node0&#45;&gt;Node3</title>
<path fill="none" stroke="#191970" d="M125.3284,-56.2455C138.8303,-47.6534 158.7122,-35.0014 174.2686,-25.1018"/>
<polygon fill="#191970" stroke="#191970" points="176.2897,-27.9643 182.8472,-19.6427 172.5315,-22.0587 176.2897,-27.9643"/>
</g>
</g>
</svg>
