<?xml version="1.0" encoding="UTF-8" standalone="no"?>
<!DOCTYPE svg PUBLIC "-//W3C//DTD SVG 1.1//EN"
 "http://www.w3.org/Graphics/SVG/1.1/DTD/svg11.dtd">
<!-- Generated by graphviz version 5.0.0 (0)
 -->
<!-- Title: jngl/Vec2.hpp Pages: 1 -->
<svg width="1155pt" height="247pt"
 viewBox="0.00 0.00 1155.00 247.00" xmlns="http://www.w3.org/2000/svg" xmlns:xlink="http://www.w3.org/1999/xlink">
<g id="graph0" class="graph" transform="scale(1 1) rotate(0) translate(4 243)">
<title>jngl/Vec2.hpp</title>
<!-- Node1 -->
<g id="node1" class="node">
<title>Node1</title>
<g id="a_node1"><a xlink:title="Contains jngl::Vec2 class.">
<polygon fill="#999999" stroke="#666666" points="754,-239 659,-239 659,-220 754,-220 754,-239"/>
<text text-anchor="middle" x="706.5" y="-227" font-family="ui-monospace,monospace" font-size="10.00">jngl/Vec2.hpp</text>
</a>
</g>
</g>
<!-- Node2 -->
<g id="node2" class="node">
<title>Node2</title>
<g id="a_node2"><a xlink:href="AppParameters_8hpp.html" target="_top" xlink:title="Contains jngl::AppParameters struct.">
<polygon fill="white" stroke="#666666" points="149,-184 0,-184 0,-165 149,-165 149,-184"/>
<text text-anchor="middle" x="74.5" y="-172" font-family="ui-monospace,monospace" font-size="10.00">jngl/AppParameters.hpp</text>
</a>
</g>
</g>
<!-- Node1&#45;&gt;Node2 -->
<g id="edge1" class="edge">
<title>Node1&#45;&gt;Node2</title>
<path fill="none" stroke="#63b8ff" d="M648.53,-224.21C548.35,-216.7 336.38,-200.41 157.5,-184 154.76,-183.75 151.97,-183.49 149.15,-183.22"/>
<polygon fill="#63b8ff" stroke="#63b8ff" points="648.5,-227.71 658.74,-224.97 649.03,-220.73 648.5,-227.71"/>
</g>
<!-- Node4 -->
<g id="node4" class="node">
<title>Node4</title>
<g id="a_node4"><a xlink:href="Drawable_8hpp.html" target="_top" xlink:title="Contains jngl::Drawable class.">
<polygon fill="white" stroke="#666666" points="461,-184 342,-184 342,-165 461,-165 461,-184"/>
<text text-anchor="middle" x="401.5" y="-172" font-family="ui-monospace,monospace" font-size="10.00">jngl/Drawable.hpp</text>
</a>
</g>
</g>
<!-- Node1&#45;&gt;Node4 -->
<g id="edge3" class="edge">
<title>Node1&#45;&gt;Node4</title>
<path fill="none" stroke="#63b8ff" d="M648.86,-218.48C591.58,-208.53 504.68,-193.43 450.59,-184.03"/>
<polygon fill="#63b8ff" stroke="#63b8ff" points="648.39,-221.95 658.84,-220.22 649.59,-215.06 648.39,-221.95"/>
</g>
<!-- Node8 -->
<g id="node8" class="node">
<title>Node8</title>
<g id="a_node8"><a xlink:href="sprite_8hpp.html" target="_top" xlink:title="Contains jngl::Sprite class and related functions.">
<polygon fill="white" stroke="#666666" points="699,-129 592,-129 592,-110 699,-110 699,-129"/>
<text text-anchor="middle" x="645.5" y="-117" font-family="ui-monospace,monospace" font-size="10.00">jngl/sprite.hpp</text>
</a>
</g>
</g>
<!-- Node1&#45;&gt;Node8 -->
<g id="edge32" class="edge">
<title>Node1&#45;&gt;Node8</title>
<path fill="none" stroke="#63b8ff" d="M696.48,-210.76C683.22,-187.28 660.36,-146.81 650.39,-129.16"/>
<polygon fill="#63b8ff" stroke="#63b8ff" points="693.54,-212.68 701.51,-219.66 699.64,-209.23 693.54,-212.68"/>
</g>
<!-- Node10 -->
<g id="node10" class="node">
<title>Node10</title>
<g id="a_node10"><a xlink:href="FrameBuffer_8hpp.html" target="_top" xlink:title="Contains jngl::FrameBuffer class.">
<polygon fill="white" stroke="#666666" points="676,-74 545,-74 545,-55 676,-55 676,-74"/>
<text text-anchor="middle" x="610.5" y="-62" font-family="ui-monospace,monospace" font-size="10.00">jngl/FrameBuffer.hpp</text>
</a>
</g>
</g>
<!-- Node1&#45;&gt;Node10 -->
<g id="edge14" class="edge">
<title>Node1&#45;&gt;Node10</title>
<path fill="none" stroke="#63b8ff" d="M712.36,-210.3C719.17,-185.48 727.14,-140.62 707.5,-110 695.55,-91.36 673.62,-80.43 653.63,-74.07"/>
<polygon fill="#63b8ff" stroke="#63b8ff" points="709.01,-209.3 709.51,-219.89 715.72,-211.3 709.01,-209.3"/>
</g>
<!-- Node11 -->
<g id="node11" class="node">
<title>Node11</title>
<g id="a_node11"><a xlink:href="Widget_8hpp.html" target="_top" xlink:title="Contains jngl::Container class.">
<polygon fill="white" stroke="#666666" points="574,-129 467,-129 467,-110 574,-110 574,-129"/>
<text text-anchor="middle" x="520.5" y="-117" font-family="ui-monospace,monospace" font-size="10.00">jngl/Widget.hpp</text>
</a>
</g>
</g>
<!-- Node1&#45;&gt;Node11 -->
<g id="edge16" class="edge">
<title>Node1&#45;&gt;Node11</title>
<path fill="none" stroke="#63b8ff" d="M682.51,-214.57C643.45,-191.89 567.23,-147.64 535.22,-129.05"/>
<polygon fill="#63b8ff" stroke="#63b8ff" points="681.19,-217.85 691.59,-219.84 684.7,-211.8 681.19,-217.85"/>
</g>
<!-- Node12 -->
<g id="node12" class="node">
<title>Node12</title>
<g id="a_node12"><a xlink:href="effects_8hpp.html" target="_top" xlink:title="Effects that can be applied to jngl::Widget.">
<polygon fill="white" stroke="#666666" points="801,-74 694,-74 694,-55 801,-55 801,-74"/>
<text text-anchor="middle" x="747.5" y="-62" font-family="ui-monospace,monospace" font-size="10.00">jngl/effects.hpp</text>
</a>
</g>
</g>
<!-- Node1&#45;&gt;Node12 -->
<g id="edge19" class="edge">
<title>Node1&#45;&gt;Node12</title>
<path fill="none" stroke="#63b8ff" d="M723.18,-212.36C730.16,-204.52 737.56,-194.52 741.5,-184 756.03,-145.23 751.44,-94.29 748.8,-74.19"/>
<polygon fill="#63b8ff" stroke="#63b8ff" points="720.56,-210.03 716.21,-219.69 725.64,-214.85 720.56,-210.03"/>
</g>
<!-- Node13 -->
<g id="node13" class="node">
<title>Node13</title>
<g id="a_node13"><a xlink:href="font_8hpp.html" target="_top" xlink:title="Contains jngl::Font class and related functions.">
<polygon fill="white" stroke="#666666" points="914,-74 819,-74 819,-55 914,-55 914,-74"/>
<text text-anchor="middle" x="866.5" y="-62" font-family="ui-monospace,monospace" font-size="10.00">jngl/font.hpp</text>
</a>
</g>
</g>
<!-- Node1&#45;&gt;Node13 -->
<g id="edge21" class="edge">
<title>Node1&#45;&gt;Node13</title>
<path fill="none" stroke="#63b8ff" d="M725.42,-213.27C735.5,-204.92 747.97,-194.21 758.5,-184 798.68,-145.06 842.34,-94.22 859.25,-74.17"/>
<polygon fill="#63b8ff" stroke="#63b8ff" points="723.12,-210.63 717.6,-219.67 727.55,-216.05 723.12,-210.63"/>
</g>
<!-- Node14 -->
<g id="node14" class="node">
<title>Node14</title>
<g id="a_node14"><a xlink:href="input_8hpp.html" target="_top" xlink:title="Input related functions.">
<polygon fill="white" stroke="#666666" points="1048,-129 947,-129 947,-110 1048,-110 1048,-129"/>
<text text-anchor="middle" x="997.5" y="-117" font-family="ui-monospace,monospace" font-size="10.00">jngl/input.hpp</text>
</a>
</g>
</g>
<!-- Node1&#45;&gt;Node14 -->
<g id="edge23" class="edge">
<title>Node1&#45;&gt;Node14</title>
<path fill="none" stroke="#63b8ff" d="M746.45,-216.99C774.87,-208.54 813.82,-196.41 847.5,-184 895.53,-166.3 950.63,-141.89 978.79,-129.1"/>
<polygon fill="#63b8ff" stroke="#63b8ff" points="745.09,-213.75 736.49,-219.93 747.07,-220.46 745.09,-213.75"/>
</g>
<!-- Node16 -->
<g id="node16" class="node">
<title>Node16</title>
<g id="a_node16"><a xlink:href="screen_8hpp.html" target="_top" xlink:title=" ">
<polygon fill="white" stroke="#666666" points="274,-184 167,-184 167,-165 274,-165 274,-184"/>
<text text-anchor="middle" x="220.5" y="-172" font-family="ui-monospace,monospace" font-size="10.00">jngl/screen.hpp</text>
</a>
</g>
</g>
<!-- Node1&#45;&gt;Node16 -->
<g id="edge27" class="edge">
<title>Node1&#45;&gt;Node16</title>
<path fill="none" stroke="#63b8ff" d="M648.57,-222.18C553.68,-211.83 366.46,-191.42 274.32,-181.37"/>
<polygon fill="#63b8ff" stroke="#63b8ff" points="648.25,-225.67 658.57,-223.27 649.01,-218.71 648.25,-225.67"/>
</g>
<!-- Node17 -->
<g id="node17" class="node">
<title>Node17</title>
<g id="a_node17"><a xlink:href="shapes_8hpp.html" target="_top" xlink:title="Functions for drawing shapes.">
<polygon fill="white" stroke="#666666" points="1147,-184 1040,-184 1040,-165 1147,-165 1147,-184"/>
<text text-anchor="middle" x="1093.5" y="-172" font-family="ui-monospace,monospace" font-size="10.00">jngl/shapes.hpp</text>
</a>
</g>
</g>
<!-- Node1&#45;&gt;Node17 -->
<g id="edge30" class="edge">
<title>Node1&#45;&gt;Node17</title>
<path fill="none" stroke="#63b8ff" d="M764.49,-220.56C839.05,-210.35 967.5,-192.76 1039.87,-182.84"/>
<polygon fill="#63b8ff" stroke="#63b8ff" points="763.77,-217.12 754.34,-221.95 764.72,-224.06 763.77,-217.12"/>
</g>
<!-- Node3 -->
<g id="node3" class="node">
<title>Node3</title>
<g id="a_node3"><a xlink:href="init_8hpp.html" target="_top" xlink:title="Include this file only once, as it defines the main function.">
<polygon fill="white" stroke="#666666" points="122,-129 27,-129 27,-110 122,-110 122,-129"/>
<text text-anchor="middle" x="74.5" y="-117" font-family="ui-monospace,monospace" font-size="10.00">jngl/init.hpp</text>
</a>
</g>
</g>
<!-- Node2&#45;&gt;Node3 -->
<g id="edge2" class="edge">
<title>Node2&#45;&gt;Node3</title>
<path fill="none" stroke="#63b8ff" d="M74.5,-154.66C74.5,-145.93 74.5,-135.99 74.5,-129.09"/>
<polygon fill="#63b8ff" stroke="#63b8ff" points="71,-154.75 74.5,-164.75 78,-154.75 71,-154.75"/>
</g>
<!-- Node5 -->
<g id="node5" class="node">
<title>Node5</title>
<g id="a_node5"><a xlink:href="jngl_8hpp.html" target="_top" xlink:title="Includes all JNGL headers except for init.hpp.">
<polygon fill="white" stroke="#666666" points="549,-19 484,-19 484,0 549,0 549,-19"/>
<text text-anchor="middle" x="516.5" y="-7" font-family="ui-monospace,monospace" font-size="10.00">jngl.hpp</text>
</a>
</g>
</g>
<!-- Node4&#45;&gt;Node5 -->
<g id="edge4" class="edge">
<title>Node4&#45;&gt;Node5</title>
<path fill="none" stroke="#63b8ff" d="M331.57,-166.58C282.51,-160.12 223.01,-148.47 207.5,-129 202.24,-122.4 203.23,-117.29 207.5,-110 232.74,-66.9 258.75,-72.58 305.5,-55 366.3,-32.14 441.6,-19.83 483.83,-14.26"/>
<polygon fill="#63b8ff" stroke="#63b8ff" points="331.18,-170.06 341.54,-167.85 332.06,-163.12 331.18,-170.06"/>
</g>
<!-- Node6 -->
<g id="node6" class="node">
<title>Node6</title>
<g id="a_node6"><a xlink:href="TextLine_8hpp.html" target="_top" xlink:title="Contains jngl::TextLine class.">
<polygon fill="white" stroke="#666666" points="336,-129 217,-129 217,-110 336,-110 336,-129"/>
<text text-anchor="middle" x="276.5" y="-117" font-family="ui-monospace,monospace" font-size="10.00">jngl/TextLine.hpp</text>
</a>
</g>
</g>
<!-- Node4&#45;&gt;Node6 -->
<g id="edge5" class="edge">
<title>Node4&#45;&gt;Node6</title>
<path fill="none" stroke="#63b8ff" d="M372.09,-161.03C348.97,-151.23 317.37,-137.83 296.95,-129.17"/>
<polygon fill="#63b8ff" stroke="#63b8ff" points="370.84,-164.3 381.42,-164.98 373.58,-157.86 370.84,-164.3"/>
</g>
<!-- Node4&#45;&gt;Node8 -->
<g id="edge9" class="edge">
<title>Node4&#45;&gt;Node8</title>
<path fill="none" stroke="#63b8ff" d="M450.69,-162.82C496.42,-152.88 563.66,-138.28 605.99,-129.08"/>
<polygon fill="#63b8ff" stroke="#63b8ff" points="449.73,-159.44 440.7,-164.98 451.22,-166.28 449.73,-159.44"/>
</g>
<!-- Node9 -->
<g id="node9" class="node">
<title>Node9</title>
<g id="a_node9"><a xlink:href="text_8hpp.html" target="_top" xlink:title=" ">
<polygon fill="white" stroke="#666666" points="449,-129 354,-129 354,-110 449,-110 449,-129"/>
<text text-anchor="middle" x="401.5" y="-117" font-family="ui-monospace,monospace" font-size="10.00">jngl/text.hpp</text>
</a>
</g>
</g>
<!-- Node4&#45;&gt;Node9 -->
<g id="edge11" class="edge">
<title>Node4&#45;&gt;Node9</title>
<path fill="none" stroke="#63b8ff" d="M401.5,-154.66C401.5,-145.93 401.5,-135.99 401.5,-129.09"/>
<polygon fill="#63b8ff" stroke="#63b8ff" points="398,-154.75 401.5,-164.75 405,-154.75 398,-154.75"/>
</g>
<!-- Node6&#45;&gt;Node5 -->
<g id="edge6" class="edge">
<title>Node6&#45;&gt;Node5</title>
<path fill="none" stroke="#63b8ff" d="M287.18,-100.97C296.94,-86.47 312.69,-66.44 331.5,-55 379.34,-25.9 444.93,-15.83 483.79,-12.34"/>
<polygon fill="#63b8ff" stroke="#63b8ff" points="284.12,-99.26 281.66,-109.57 290.01,-103.04 284.12,-99.26"/>
</g>
<!-- Node7 -->
<g id="node7" class="node">
<title>Node7</title>
<g id="a_node7"><a xlink:href="Label_8hpp.html" target="_top" xlink:title="Contains jngl::Label class.">
<polygon fill="white" stroke="#666666" points="450,-74 349,-74 349,-55 450,-55 450,-74"/>
<text text-anchor="middle" x="399.5" y="-62" font-family="ui-monospace,monospace" font-size="10.00">jngl/Label.hpp</text>
</a>
</g>
</g>
<!-- Node6&#45;&gt;Node7 -->
<g id="edge7" class="edge">
<title>Node6&#45;&gt;Node7</title>
<path fill="none" stroke="#63b8ff" d="M305.75,-105.9C328.47,-96.11 359.37,-82.79 379.38,-74.17"/>
<polygon fill="#63b8ff" stroke="#63b8ff" points="304.06,-102.81 296.26,-109.98 306.83,-109.24 304.06,-102.81"/>
</g>
<!-- Node7&#45;&gt;Node5 -->
<g id="edge8" class="edge">
<title>Node7&#45;&gt;Node5</title>
<path fill="none" stroke="#63b8ff" d="M427.61,-50.77C449.19,-40.99 478.41,-27.75 497.36,-19.17"/>
<polygon fill="#63b8ff" stroke="#63b8ff" points="425.96,-47.67 418.3,-54.98 428.85,-54.05 425.96,-47.67"/>
</g>
<!-- Node8&#45;&gt;Node5 -->
<g id="edge10" class="edge">
<title>Node8&#45;&gt;Node5</title>
<path fill="none" stroke="#63b8ff" d="M590.95,-106.98C571.12,-100.32 550.04,-89.97 535.5,-74 521.25,-58.34 517.67,-32.39 516.78,-19.03"/>
<polygon fill="#63b8ff" stroke="#63b8ff" points="589.96,-110.34 600.54,-109.96 592.03,-103.65 589.96,-110.34"/>
</g>
<!-- Node9&#45;&gt;Node5 -->
<g id="edge12" class="edge">
<title>Node9&#45;&gt;Node5</title>
<path fill="none" stroke="#63b8ff" d="M372.78,-105.16C350.25,-92.84 324.93,-73.69 339.5,-55 357.08,-32.45 437.86,-19.58 483.98,-13.94"/>
<polygon fill="#63b8ff" stroke="#63b8ff" points="371.34,-108.35 381.83,-109.84 374.56,-102.13 371.34,-108.35"/>
</g>
<!-- Node9&#45;&gt;Node7 -->
<g id="edge13" class="edge">
<title>Node9&#45;&gt;Node7</title>
<path fill="none" stroke="#63b8ff" d="M400.79,-99.66C400.46,-90.93 400.08,-80.99 399.82,-74.09"/>
<polygon fill="#63b8ff" stroke="#63b8ff" points="397.3,-99.89 401.17,-109.75 404.29,-99.62 397.3,-99.89"/>
</g>
<!-- Node10&#45;&gt;Node5 -->
<g id="edge15" class="edge">
<title>Node10&#45;&gt;Node5</title>
<path fill="none" stroke="#63b8ff" d="M586.5,-49.97C569.31,-40.28 546.69,-27.52 531.88,-19.17"/>
<polygon fill="#63b8ff" stroke="#63b8ff" points="584.97,-53.12 595.4,-54.98 588.41,-47.02 584.97,-53.12"/>
</g>
<!-- Node11&#45;&gt;Node5 -->
<g id="edge17" class="edge">
<title>Node11&#45;&gt;Node5</title>
<path fill="none" stroke="#63b8ff" d="M511.56,-100.9C507.98,-92.91 504.29,-83.2 502.5,-74 498.66,-54.28 506.93,-31.28 512.32,-19.1"/>
<polygon fill="#63b8ff" stroke="#63b8ff" points="508.41,-102.43 515.88,-109.94 514.73,-99.41 508.41,-102.43"/>
</g>
<!-- Node11&#45;&gt;Node7 -->
<g id="edge18" class="edge">
<title>Node11&#45;&gt;Node7</title>
<path fill="none" stroke="#63b8ff" d="M491.73,-105.9C469.38,-96.11 438.98,-82.79 419.29,-74.17"/>
<polygon fill="#63b8ff" stroke="#63b8ff" points="490.5,-109.18 501.06,-109.98 493.3,-102.77 490.5,-109.18"/>
</g>
<!-- Node12&#45;&gt;Node5 -->
<g id="edge20" class="edge">
<title>Node12&#45;&gt;Node5</title>
<path fill="none" stroke="#63b8ff" d="M700.55,-52.73C655.47,-42.38 588.55,-27.03 549.04,-17.97"/>
<polygon fill="#63b8ff" stroke="#63b8ff" points="699.86,-56.16 710.39,-54.98 701.42,-49.34 699.86,-56.16"/>
</g>
<!-- Node13&#45;&gt;Node5 -->
<g id="edge22" class="edge">
<title>Node13&#45;&gt;Node5</title>
<path fill="none" stroke="#63b8ff" d="M808.84,-54.77C734.78,-43.55 608.73,-24.47 549.33,-15.47"/>
<polygon fill="#63b8ff" stroke="#63b8ff" points="808.52,-58.26 818.93,-56.3 809.57,-51.34 808.52,-58.26"/>
</g>
<!-- Node14&#45;&gt;Node5 -->
<g id="edge24" class="edge">
<title>Node14&#45;&gt;Node5</title>
<path fill="none" stroke="#63b8ff" d="M1030.47,-106.01C1057.8,-93.88 1089.47,-74.47 1071.5,-55 1035.97,-16.51 662.75,-11.3 549.13,-10.6"/>
<polygon fill="#63b8ff" stroke="#63b8ff" points="1028.92,-102.87 1021.07,-109.99 1031.65,-109.31 1028.92,-102.87"/>
</g>
<!-- Node15 -->
<g id="node15" class="node">
<title>Node15</title>
<g id="a_node15"><a xlink:href="Controller_8hpp.html" target="_top" xlink:title="Contains jngl::Controller class.">
<polygon fill="white" stroke="#666666" points="1063,-74 932,-74 932,-55 1063,-55 1063,-74"/>
<text text-anchor="middle" x="997.5" y="-62" font-family="ui-monospace,monospace" font-size="10.00">jngl/Controller.hpp</text>
</a>
</g>
</g>
<!-- Node14&#45;&gt;Node15 -->
<g id="edge25" class="edge">
<title>Node14&#45;&gt;Node15</title>
<path fill="none" stroke="#63b8ff" d="M997.5,-99.66C997.5,-90.93 997.5,-80.99 997.5,-74.09"/>
<polygon fill="#63b8ff" stroke="#63b8ff" points="994,-99.75 997.5,-109.75 1001,-99.75 994,-99.75"/>
</g>
<!-- Node15&#45;&gt;Node5 -->
<g id="edge26" class="edge">
<title>Node15&#45;&gt;Node5</title>
<path fill="none" stroke="#63b8ff" d="M921.65,-54.91C776.28,-38.72 616.54,-21.35 549.13,-14.04"/>
<polygon fill="#63b8ff" stroke="#63b8ff" points="921.33,-58.39 931.65,-56.02 922.1,-51.44 921.33,-58.39"/>
</g>
<!-- Node16&#45;&gt;Node3 -->
<g id="edge29" class="edge">
<title>Node16&#45;&gt;Node3</title>
<path fill="none" stroke="#63b8ff" d="M187.58,-161.55C160.47,-151.71 122.67,-137.98 98.38,-129.17"/>
<polygon fill="#63b8ff" stroke="#63b8ff" points="186.45,-164.86 197.04,-164.98 188.84,-158.28 186.45,-164.86"/>
</g>
<!-- Node16&#45;&gt;Node5 -->
<g id="edge28" class="edge">
<title>Node16&#45;&gt;Node5</title>
<path fill="none" stroke="#63b8ff" d="M208.93,-156.13C201.88,-143.32 195.16,-125.5 200.5,-110 210.61,-80.66 216.8,-70.8 243.5,-55 283.69,-31.21 420.4,-17.88 483.76,-12.85"/>
<polygon fill="#63b8ff" stroke="#63b8ff" points="206.02,-158.08 214.2,-164.82 212.01,-154.46 206.02,-158.08"/>
</g>
<!-- Node17&#45;&gt;Node5 -->
<g id="edge31" class="edge">
<title>Node17&#45;&gt;Node5</title>
<path fill="none" stroke="#63b8ff" d="M1099.32,-155.15C1106.31,-129.09 1114.15,-81.58 1088.5,-55 1050.93,-16.07 665.19,-11.17 549.27,-10.57"/>
<polygon fill="#63b8ff" stroke="#63b8ff" points="1095.92,-154.3 1096.47,-164.88 1102.64,-156.26 1095.92,-154.3"/>
</g>
</g>
</svg>
