<?xml version="1.0" encoding="UTF-8" standalone="no"?>
<!DOCTYPE svg PUBLIC "-//W3C//DTD SVG 1.1//EN"
 "http://www.w3.org/Graphics/SVG/1.1/DTD/svg11.dtd">
<!-- Generated by graphviz version 5.0.0 (0)
 -->
<!-- Title: jngl/Vec2.hpp Pages: 1 -->
<svg width="1156pt" height="247pt"
 viewBox="0.00 0.00 1156.00 247.00" xmlns="http://www.w3.org/2000/svg" xmlns:xlink="http://www.w3.org/1999/xlink">
<g id="graph0" class="graph" transform="scale(1 1) rotate(0) translate(4 243)">
<title>jngl/Vec2.hpp</title>
<!-- Node1 -->
<g id="node1" class="node">
<title>Node1</title>
<g id="a_node1"><a xlink:title="Contains jngl::Vec2 class.">
<polygon fill="#999999" stroke="#666666" points="729,-239 634,-239 634,-220 729,-220 729,-239"/>
<text text-anchor="middle" x="681.5" y="-227" font-family="ui-monospace,monospace" font-size="10.00">jngl/Vec2.hpp</text>
</a>
</g>
</g>
<!-- Node2 -->
<g id="node2" class="node">
<title>Node2</title>
<g id="a_node2"><a xlink:href="AppParameters_8hpp.html" target="_top" xlink:title="Contains jngl::AppParameters struct.">
<polygon fill="white" stroke="#666666" points="191,-184 42,-184 42,-165 191,-165 191,-184"/>
<text text-anchor="middle" x="116.5" y="-172" font-family="ui-monospace,monospace" font-size="10.00">jngl/AppParameters.hpp</text>
</a>
</g>
</g>
<!-- Node1&#45;&gt;Node2 -->
<g id="edge1" class="edge">
<title>Node1&#45;&gt;Node2</title>
<path fill="none" stroke="#63b8ff" d="M623.6,-223.07C520.47,-213.39 305.14,-193.2 191.09,-182.5"/>
<polygon fill="#63b8ff" stroke="#63b8ff" points="623.53,-226.58 633.82,-224.03 624.19,-219.61 623.53,-226.58"/>
</g>
<!-- Node4 -->
<g id="node4" class="node">
<title>Node4</title>
<g id="a_node4"><a xlink:href="Drawable_8hpp.html" target="_top" xlink:title="Contains jngl::Drawable class.">
<polygon fill="white" stroke="#666666" points="396,-184 277,-184 277,-165 396,-165 396,-184"/>
<text text-anchor="middle" x="336.5" y="-172" font-family="ui-monospace,monospace" font-size="10.00">jngl/Drawable.hpp</text>
</a>
</g>
</g>
<!-- Node1&#45;&gt;Node4 -->
<g id="edge3" class="edge">
<title>Node1&#45;&gt;Node4</title>
<path fill="none" stroke="#63b8ff" d="M623.88,-219.65C559.35,-209.74 455.49,-193.78 391.88,-184.01"/>
<polygon fill="#63b8ff" stroke="#63b8ff" points="623.48,-223.13 633.89,-221.19 624.54,-216.21 623.48,-223.13"/>
</g>
<!-- Node8 -->
<g id="node8" class="node">
<title>Node8</title>
<g id="a_node8"><a xlink:href="sprite_8hpp.html" target="_top" xlink:title="Contains jngl::Sprite class and related functions.">
<polygon fill="white" stroke="#666666" points="634,-129 527,-129 527,-110 634,-110 634,-129"/>
<text text-anchor="middle" x="580.5" y="-117" font-family="ui-monospace,monospace" font-size="10.00">jngl/sprite.hpp</text>
</a>
</g>
</g>
<!-- Node1&#45;&gt;Node8 -->
<g id="edge31" class="edge">
<title>Node1&#45;&gt;Node8</title>
<path fill="none" stroke="#63b8ff" d="M666.35,-212.3C644.65,-189.1 605.48,-147.21 588.6,-129.16"/>
<polygon fill="#63b8ff" stroke="#63b8ff" points="663.85,-214.75 673.23,-219.66 668.96,-209.97 663.85,-214.75"/>
</g>
<!-- Node10 -->
<g id="node10" class="node">
<title>Node10</title>
<g id="a_node10"><a xlink:href="FrameBuffer_8hpp.html" target="_top" xlink:title="Contains jngl::FrameBuffer class.">
<polygon fill="white" stroke="#666666" points="611,-74 480,-74 480,-55 611,-55 611,-74"/>
<text text-anchor="middle" x="545.5" y="-62" font-family="ui-monospace,monospace" font-size="10.00">jngl/FrameBuffer.hpp</text>
</a>
</g>
</g>
<!-- Node1&#45;&gt;Node10 -->
<g id="edge14" class="edge">
<title>Node1&#45;&gt;Node10</title>
<path fill="none" stroke="#63b8ff" d="M679.94,-209.74C676.9,-184.24 668.03,-138.57 642.5,-110 626.33,-91.9 601.31,-80.67 580.73,-74.02"/>
<polygon fill="#63b8ff" stroke="#63b8ff" points="676.48,-210.3 680.97,-219.9 683.45,-209.59 676.48,-210.3"/>
</g>
<!-- Node11 -->
<g id="node11" class="node">
<title>Node11</title>
<g id="a_node11"><a xlink:href="Widget_8hpp.html" target="_top" xlink:title="Contains jngl::Container class.">
<polygon fill="white" stroke="#666666" points="509,-129 402,-129 402,-110 509,-110 509,-129"/>
<text text-anchor="middle" x="455.5" y="-117" font-family="ui-monospace,monospace" font-size="10.00">jngl/Widget.hpp</text>
</a>
</g>
</g>
<!-- Node1&#45;&gt;Node11 -->
<g id="edge16" class="edge">
<title>Node1&#45;&gt;Node11</title>
<path fill="none" stroke="#63b8ff" d="M654.14,-215.43C607.25,-193.02 512.78,-147.87 473.39,-129.05"/>
<polygon fill="#63b8ff" stroke="#63b8ff" points="652.86,-218.69 663.39,-219.84 655.87,-212.37 652.86,-218.69"/>
</g>
<!-- Node12 -->
<g id="node12" class="node">
<title>Node12</title>
<g id="a_node12"><a xlink:href="effects_8hpp.html" target="_top" xlink:title="Effects that can be applied to jngl::Widget.">
<polygon fill="white" stroke="#666666" points="736,-74 629,-74 629,-55 736,-55 736,-74"/>
<text text-anchor="middle" x="682.5" y="-62" font-family="ui-monospace,monospace" font-size="10.00">jngl/effects.hpp</text>
</a>
</g>
</g>
<!-- Node1&#45;&gt;Node12 -->
<g id="edge19" class="edge">
<title>Node1&#45;&gt;Node12</title>
<path fill="none" stroke="#63b8ff" d="M681.62,-209.37C681.83,-174.03 682.29,-99.79 682.45,-74.31"/>
<polygon fill="#63b8ff" stroke="#63b8ff" points="678.12,-209.72 681.55,-219.74 685.12,-209.76 678.12,-209.72"/>
</g>
<!-- Node13 -->
<g id="node13" class="node">
<title>Node13</title>
<g id="a_node13"><a xlink:href="font_8hpp.html" target="_top" xlink:title="Contains jngl::Font class and related functions.">
<polygon fill="white" stroke="#666666" points="849,-74 754,-74 754,-55 849,-55 849,-74"/>
<text text-anchor="middle" x="801.5" y="-62" font-family="ui-monospace,monospace" font-size="10.00">jngl/font.hpp</text>
</a>
</g>
</g>
<!-- Node1&#45;&gt;Node13 -->
<g id="edge21" class="edge">
<title>Node1&#45;&gt;Node13</title>
<path fill="none" stroke="#63b8ff" d="M693.93,-211.62C719.21,-177.28 775.85,-100.34 795.02,-74.31"/>
<polygon fill="#63b8ff" stroke="#63b8ff" points="691.06,-209.61 687.95,-219.74 696.7,-213.76 691.06,-209.61"/>
</g>
<!-- Node14 -->
<g id="node14" class="node">
<title>Node14</title>
<g id="a_node14"><a xlink:href="input_8hpp.html" target="_top" xlink:title="Input related functions.">
<polygon fill="white" stroke="#666666" points="983,-129 882,-129 882,-110 983,-110 983,-129"/>
<text text-anchor="middle" x="932.5" y="-117" font-family="ui-monospace,monospace" font-size="10.00">jngl/input.hpp</text>
</a>
</g>
</g>
<!-- Node1&#45;&gt;Node14 -->
<g id="edge23" class="edge">
<title>Node1&#45;&gt;Node14</title>
<path fill="none" stroke="#63b8ff" d="M710.91,-215.84C762.65,-193.58 868.61,-147.99 912.64,-129.05"/>
<polygon fill="#63b8ff" stroke="#63b8ff" points="709.42,-212.68 701.62,-219.84 712.19,-219.11 709.42,-212.68"/>
</g>
<!-- Node16 -->
<g id="node16" class="node">
<title>Node16</title>
<g id="a_node16"><a xlink:href="screen_8hpp.html" target="_top" xlink:title=" ">
<polygon fill="white" stroke="#666666" points="994,-184 887,-184 887,-165 994,-165 994,-184"/>
<text text-anchor="middle" x="940.5" y="-172" font-family="ui-monospace,monospace" font-size="10.00">jngl/screen.hpp</text>
</a>
</g>
</g>
<!-- Node1&#45;&gt;Node16 -->
<g id="edge27" class="edge">
<title>Node1&#45;&gt;Node16</title>
<path fill="none" stroke="#63b8ff" d="M733.1,-217.94C781.65,-208.01 853.44,-193.31 898.56,-184.08"/>
<polygon fill="#63b8ff" stroke="#63b8ff" points="732.21,-214.55 723.11,-219.98 733.61,-221.41 732.21,-214.55"/>
</g>
<!-- Node17 -->
<g id="node17" class="node">
<title>Node17</title>
<g id="a_node17"><a xlink:href="shapes_8hpp.html" target="_top" xlink:title="Functions for drawing shapes.">
<polygon fill="white" stroke="#666666" points="1148,-184 1041,-184 1041,-165 1148,-165 1148,-184"/>
<text text-anchor="middle" x="1094.5" y="-172" font-family="ui-monospace,monospace" font-size="10.00">jngl/shapes.hpp</text>
</a>
</g>
</g>
<!-- Node1&#45;&gt;Node17 -->
<g id="edge29" class="edge">
<title>Node1&#45;&gt;Node17</title>
<path fill="none" stroke="#63b8ff" d="M739.2,-221.1C819.31,-210.81 963.14,-192.36 1040.97,-182.37"/>
<polygon fill="#63b8ff" stroke="#63b8ff" points="738.75,-217.62 729.28,-222.37 739.64,-224.57 738.75,-217.62"/>
</g>
<!-- Node3 -->
<g id="node3" class="node">
<title>Node3</title>
<g id="a_node3"><a xlink:href="init_8hpp.html" target="_top" xlink:title="Include this file only once, as it defines the main function.">
<polygon fill="white" stroke="#666666" points="95,-129 0,-129 0,-110 95,-110 95,-129"/>
<text text-anchor="middle" x="47.5" y="-117" font-family="ui-monospace,monospace" font-size="10.00">jngl/init.hpp</text>
</a>
</g>
</g>
<!-- Node2&#45;&gt;Node3 -->
<g id="edge2" class="edge">
<title>Node2&#45;&gt;Node3</title>
<path fill="none" stroke="#63b8ff" d="M97.46,-158.88C85.04,-149.34 69.26,-137.21 58.79,-129.17"/>
<polygon fill="#63b8ff" stroke="#63b8ff" points="95.35,-161.67 105.41,-164.98 99.62,-156.12 95.35,-161.67"/>
</g>
<!-- Node5 -->
<g id="node5" class="node">
<title>Node5</title>
<g id="a_node5"><a xlink:href="jngl_8hpp.html" target="_top" xlink:title="Includes all JNGL headers except for init.hpp.">
<polygon fill="white" stroke="#666666" points="578,-19 513,-19 513,0 578,0 578,-19"/>
<text text-anchor="middle" x="545.5" y="-7" font-family="ui-monospace,monospace" font-size="10.00">jngl.hpp</text>
</a>
</g>
</g>
<!-- Node4&#45;&gt;Node5 -->
<g id="edge4" class="edge">
<title>Node4&#45;&gt;Node5</title>
<path fill="none" stroke="#63b8ff" d="M266.57,-166.58C217.51,-160.12 158.01,-148.47 142.5,-129 137.24,-122.4 138.25,-117.3 142.5,-110 167.45,-67.18 192.62,-71.06 239.5,-55 335.23,-22.2 455.89,-13.58 512.86,-11.31"/>
<polygon fill="#63b8ff" stroke="#63b8ff" points="266.18,-170.06 276.54,-167.85 267.06,-163.12 266.18,-170.06"/>
</g>
<!-- Node6 -->
<g id="node6" class="node">
<title>Node6</title>
<g id="a_node6"><a xlink:href="TextLine_8hpp.html" target="_top" xlink:title="Contains jngl::TextLine class.">
<polygon fill="white" stroke="#666666" points="271,-129 152,-129 152,-110 271,-110 271,-129"/>
<text text-anchor="middle" x="211.5" y="-117" font-family="ui-monospace,monospace" font-size="10.00">jngl/TextLine.hpp</text>
</a>
</g>
</g>
<!-- Node4&#45;&gt;Node6 -->
<g id="edge5" class="edge">
<title>Node4&#45;&gt;Node6</title>
<path fill="none" stroke="#63b8ff" d="M307.09,-161.03C283.97,-151.23 252.37,-137.83 231.95,-129.17"/>
<polygon fill="#63b8ff" stroke="#63b8ff" points="305.84,-164.3 316.42,-164.98 308.58,-157.86 305.84,-164.3"/>
</g>
<!-- Node4&#45;&gt;Node8 -->
<g id="edge9" class="edge">
<title>Node4&#45;&gt;Node8</title>
<path fill="none" stroke="#63b8ff" d="M385.69,-162.82C431.42,-152.88 498.66,-138.28 540.99,-129.08"/>
<polygon fill="#63b8ff" stroke="#63b8ff" points="384.73,-159.44 375.7,-164.98 386.22,-166.28 384.73,-159.44"/>
</g>
<!-- Node9 -->
<g id="node9" class="node">
<title>Node9</title>
<g id="a_node9"><a xlink:href="text_8hpp.html" target="_top" xlink:title=" ">
<polygon fill="white" stroke="#666666" points="384,-129 289,-129 289,-110 384,-110 384,-129"/>
<text text-anchor="middle" x="336.5" y="-117" font-family="ui-monospace,monospace" font-size="10.00">jngl/text.hpp</text>
</a>
</g>
</g>
<!-- Node4&#45;&gt;Node9 -->
<g id="edge11" class="edge">
<title>Node4&#45;&gt;Node9</title>
<path fill="none" stroke="#63b8ff" d="M336.5,-154.66C336.5,-145.93 336.5,-135.99 336.5,-129.09"/>
<polygon fill="#63b8ff" stroke="#63b8ff" points="333,-154.75 336.5,-164.75 340,-154.75 333,-154.75"/>
</g>
<!-- Node6&#45;&gt;Node5 -->
<g id="edge6" class="edge">
<title>Node6&#45;&gt;Node5</title>
<path fill="none" stroke="#63b8ff" d="M221.65,-101.08C231.25,-86.3 247.05,-65.82 266.5,-55 308.29,-31.75 448.3,-18.1 512.65,-12.92"/>
<polygon fill="#63b8ff" stroke="#63b8ff" points="218.54,-99.46 216.27,-109.81 224.5,-103.14 218.54,-99.46"/>
</g>
<!-- Node7 -->
<g id="node7" class="node">
<title>Node7</title>
<g id="a_node7"><a xlink:href="Label_8hpp.html" target="_top" xlink:title="Contains jngl::Label class.">
<polygon fill="white" stroke="#666666" points="385,-74 284,-74 284,-55 385,-55 385,-74"/>
<text text-anchor="middle" x="334.5" y="-62" font-family="ui-monospace,monospace" font-size="10.00">jngl/Label.hpp</text>
</a>
</g>
</g>
<!-- Node6&#45;&gt;Node7 -->
<g id="edge7" class="edge">
<title>Node6&#45;&gt;Node7</title>
<path fill="none" stroke="#63b8ff" d="M240.75,-105.9C263.47,-96.11 294.37,-82.79 314.38,-74.17"/>
<polygon fill="#63b8ff" stroke="#63b8ff" points="239.06,-102.81 231.26,-109.98 241.83,-109.24 239.06,-102.81"/>
</g>
<!-- Node7&#45;&gt;Node5 -->
<g id="edge8" class="edge">
<title>Node7&#45;&gt;Node5</title>
<path fill="none" stroke="#63b8ff" d="M378.16,-52.53C418.18,-42.48 476.56,-27.82 512.72,-18.73"/>
<polygon fill="#63b8ff" stroke="#63b8ff" points="377.25,-49.15 368.4,-54.98 378.95,-55.94 377.25,-49.15"/>
</g>
<!-- Node8&#45;&gt;Node5 -->
<g id="edge10" class="edge">
<title>Node8&#45;&gt;Node5</title>
<path fill="none" stroke="#63b8ff" d="M517.16,-106.9C499.07,-100.34 481.34,-90.07 470.5,-74 454.29,-49.95 492.68,-29.84 520.31,-19.04"/>
<polygon fill="#63b8ff" stroke="#63b8ff" points="516.32,-110.31 526.91,-110.09 518.49,-103.66 516.32,-110.31"/>
</g>
<!-- Node9&#45;&gt;Node5 -->
<g id="edge12" class="edge">
<title>Node9&#45;&gt;Node5</title>
<path fill="none" stroke="#63b8ff" d="M307.81,-105.07C284.93,-92.56 259.07,-73.17 274.5,-55 304.74,-19.38 447.53,-12.22 512.8,-10.82"/>
<polygon fill="#63b8ff" stroke="#63b8ff" points="306.49,-108.33 316.98,-109.83 309.71,-102.12 306.49,-108.33"/>
</g>
<!-- Node9&#45;&gt;Node7 -->
<g id="edge13" class="edge">
<title>Node9&#45;&gt;Node7</title>
<path fill="none" stroke="#63b8ff" d="M335.79,-99.66C335.46,-90.93 335.08,-80.99 334.82,-74.09"/>
<polygon fill="#63b8ff" stroke="#63b8ff" points="332.3,-99.89 336.17,-109.75 339.29,-99.62 332.3,-99.89"/>
</g>
<!-- Node10&#45;&gt;Node5 -->
<g id="edge15" class="edge">
<title>Node10&#45;&gt;Node5</title>
<path fill="none" stroke="#63b8ff" d="M545.5,-44.66C545.5,-35.93 545.5,-25.99 545.5,-19.09"/>
<polygon fill="#63b8ff" stroke="#63b8ff" points="542,-44.75 545.5,-54.75 549,-44.75 542,-44.75"/>
</g>
<!-- Node11&#45;&gt;Node5 -->
<g id="edge17" class="edge">
<title>Node11&#45;&gt;Node5</title>
<path fill="none" stroke="#63b8ff" d="M453.55,-99.74C453.11,-86.19 454.59,-68.04 463.5,-55 475.65,-37.21 497.31,-25.9 515.32,-19.13"/>
<polygon fill="#63b8ff" stroke="#63b8ff" points="450.07,-100.1 454.26,-109.84 457.05,-99.62 450.07,-100.1"/>
</g>
<!-- Node11&#45;&gt;Node7 -->
<g id="edge18" class="edge">
<title>Node11&#45;&gt;Node7</title>
<path fill="none" stroke="#63b8ff" d="M426.73,-105.9C404.38,-96.11 373.98,-82.79 354.29,-74.17"/>
<polygon fill="#63b8ff" stroke="#63b8ff" points="425.5,-109.18 436.06,-109.98 428.3,-102.77 425.5,-109.18"/>
</g>
<!-- Node12&#45;&gt;Node5 -->
<g id="edge20" class="edge">
<title>Node12&#45;&gt;Node5</title>
<path fill="none" stroke="#63b8ff" d="M650.94,-51.29C625.55,-41.47 590.5,-27.91 567.91,-19.17"/>
<polygon fill="#63b8ff" stroke="#63b8ff" points="649.9,-54.64 660.49,-54.98 652.42,-48.11 649.9,-54.64"/>
</g>
<!-- Node13&#45;&gt;Node5 -->
<g id="edge22" class="edge">
<title>Node13&#45;&gt;Node5</title>
<path fill="none" stroke="#63b8ff" d="M750.47,-52.94C699.13,-42.31 621.5,-26.24 578,-17.23"/>
<polygon fill="#63b8ff" stroke="#63b8ff" points="749.87,-56.38 760.37,-54.98 751.29,-49.53 749.87,-56.38"/>
</g>
<!-- Node14&#45;&gt;Node5 -->
<g id="edge24" class="edge">
<title>Node14&#45;&gt;Node5</title>
<path fill="none" stroke="#63b8ff" d="M965.86,-105.87C993.03,-93.77 1024.21,-74.51 1006.5,-55 977.75,-23.34 678.39,-13.57 578.07,-11.17"/>
<polygon fill="#63b8ff" stroke="#63b8ff" points="964.35,-102.71 956.51,-109.84 967.08,-109.16 964.35,-102.71"/>
</g>
<!-- Node15 -->
<g id="node15" class="node">
<title>Node15</title>
<g id="a_node15"><a xlink:href="Controller_8hpp.html" target="_top" xlink:title="Contains jngl::Controller class.">
<polygon fill="white" stroke="#666666" points="998,-74 867,-74 867,-55 998,-55 998,-74"/>
<text text-anchor="middle" x="932.5" y="-62" font-family="ui-monospace,monospace" font-size="10.00">jngl/Controller.hpp</text>
</a>
</g>
</g>
<!-- Node14&#45;&gt;Node15 -->
<g id="edge25" class="edge">
<title>Node14&#45;&gt;Node15</title>
<path fill="none" stroke="#63b8ff" d="M932.5,-99.66C932.5,-90.93 932.5,-80.99 932.5,-74.09"/>
<polygon fill="#63b8ff" stroke="#63b8ff" points="929,-99.75 932.5,-109.75 936,-99.75 929,-99.75"/>
</g>
<!-- Node15&#45;&gt;Node5 -->
<g id="edge26" class="edge">
<title>Node15&#45;&gt;Node5</title>
<path fill="none" stroke="#63b8ff" d="M860.31,-53.61C776.05,-42.07 640.36,-23.49 578.34,-15"/>
<polygon fill="#63b8ff" stroke="#63b8ff" points="859.94,-57.1 870.32,-54.98 860.89,-50.16 859.94,-57.1"/>
</g>
<!-- Node16&#45;&gt;Node5 -->
<g id="edge28" class="edge">
<title>Node16&#45;&gt;Node5</title>
<path fill="none" stroke="#63b8ff" d="M963.1,-159.3C997.25,-136.15 1054.87,-89.43 1023.5,-55 993.54,-22.12 681.09,-13.13 578.17,-11.05"/>
<polygon fill="#63b8ff" stroke="#63b8ff" points="961,-156.49 954.58,-164.91 964.86,-162.33 961,-156.49"/>
</g>
<!-- Node17&#45;&gt;Node5 -->
<g id="edge30" class="edge">
<title>Node17&#45;&gt;Node5</title>
<path fill="none" stroke="#63b8ff" d="M1092.17,-154.72C1087.74,-127.74 1075.38,-78.64 1042.5,-55 1004.87,-27.95 682.85,-15.03 578.2,-11.52"/>
<polygon fill="#63b8ff" stroke="#63b8ff" points="1088.73,-155.4 1093.62,-164.8 1095.66,-154.4 1088.73,-155.4"/>
</g>
</g>
</svg>
