<?xml version="1.0" encoding="UTF-8" standalone="no"?>
<!DOCTYPE svg PUBLIC "-//W3C//DTD SVG 1.1//EN"
 "http://www.w3.org/Graphics/SVG/1.1/DTD/svg11.dtd">
<!-- Generated by graphviz version 2.40.1 (0)
 -->
<!-- Title: jngl/Vec2.hpp Pages: 1 -->
<svg width="547pt" height="252pt"
 viewBox="0.00 0.00 547.00 252.00" xmlns="http://www.w3.org/2000/svg" xmlns:xlink="http://www.w3.org/1999/xlink">
<g id="graph0" class="graph" transform="scale(1 1) rotate(0) translate(4 248)">
<title>jngl/Vec2.hpp</title>
<polygon fill="#ffffff" stroke="transparent" points="-4,4 -4,-248 543,-248 543,4 -4,4"/>
<!-- Node4 -->
<g id="node1" class="node">
<title>Node4</title>
<polygon fill="#bfbfbf" stroke="#000000" points="222.5,-224.5 222.5,-243.5 298.5,-243.5 298.5,-224.5 222.5,-224.5"/>
<text text-anchor="middle" x="260.5" y="-231.5" font-family="Lato" font-size="10.00" fill="#000000">jngl/Vec2.hpp</text>
</g>
<!-- Node5 -->
<g id="node2" class="node">
<title>Node5</title>
<g id="a_node2"><a xlink:href="Vertex_8hpp_source.html" target="_top" xlink:title="jngl/Vertex.hpp">
<polygon fill="#ffffff" stroke="#000000" points="0,-112.5 0,-131.5 83,-131.5 83,-112.5 0,-112.5"/>
<text text-anchor="middle" x="41.5" y="-119.5" font-family="Lato" font-size="10.00" fill="#000000">jngl/Vertex.hpp</text>
</a>
</g>
</g>
<!-- Node4&#45;&gt;Node5 -->
<g id="edge1" class="edge">
<title>Node4&#45;&gt;Node5</title>
<path fill="none" stroke="#191970" d="M212.5614,-224.8387C182.4454,-217.7293 143.5616,-205.997 112.5,-188 85.9974,-172.6445 61.2925,-145.7641 49.2245,-131.5069"/>
<polygon fill="#191970" stroke="#191970" points="211.8879,-228.2748 222.4145,-227.0748 213.4372,-221.4484 211.8879,-228.2748"/>
</g>
<!-- Node8 -->
<g id="node5" class="node">
<title>Node8</title>
<g id="a_node5"><a xlink:href="input_8hpp.html" target="_top" xlink:title="jngl/input.hpp">
<polygon fill="#ffffff" stroke="#000000" points="121.5,-168.5 121.5,-187.5 197.5,-187.5 197.5,-168.5 121.5,-168.5"/>
<text text-anchor="middle" x="159.5" y="-175.5" font-family="Lato" font-size="10.00" fill="#000000">jngl/input.hpp</text>
</a>
</g>
</g>
<!-- Node4&#45;&gt;Node8 -->
<g id="edge4" class="edge">
<title>Node4&#45;&gt;Node8</title>
<path fill="none" stroke="#191970" d="M234.0281,-219.3225C215.9875,-209.3198 192.6123,-196.3593 176.8913,-187.6427"/>
<polygon fill="#191970" stroke="#191970" points="232.4643,-222.4574 242.9071,-224.2455 235.8587,-216.3354 232.4643,-222.4574"/>
</g>
<!-- Node10 -->
<g id="node7" class="node">
<title>Node10</title>
<g id="a_node7"><a xlink:href="font_8hpp_source.html" target="_top" xlink:title="jngl/font.hpp">
<polygon fill="#ffffff" stroke="#000000" points="255.5,-112.5 255.5,-131.5 327.5,-131.5 327.5,-112.5 255.5,-112.5"/>
<text text-anchor="middle" x="291.5" y="-119.5" font-family="Lato" font-size="10.00" fill="#000000">jngl/font.hpp</text>
</a>
</g>
</g>
<!-- Node4&#45;&gt;Node10 -->
<g id="edge8" class="edge">
<title>Node4&#45;&gt;Node10</title>
<path fill="none" stroke="#191970" d="M249.7136,-215.0715C243.5057,-201.5934 238.09,-183.2428 244.5,-168 250.9619,-152.6339 265.3402,-139.8329 276.5035,-131.6692"/>
<polygon fill="#191970" stroke="#191970" points="246.7623,-216.9875 254.4324,-224.2964 252.9943,-213.7996 246.7623,-216.9875"/>
</g>
<!-- Node11 -->
<g id="node8" class="node">
<title>Node11</title>
<g id="a_node8"><a xlink:href="screen_8hpp.html" target="_top" xlink:title="jngl/screen.hpp">
<polygon fill="#ffffff" stroke="#000000" points="254,-168.5 254,-187.5 337,-187.5 337,-168.5 254,-168.5"/>
<text text-anchor="middle" x="295.5" y="-175.5" font-family="Lato" font-size="10.00" fill="#000000">jngl/screen.hpp</text>
</a>
</g>
</g>
<!-- Node4&#45;&gt;Node11 -->
<g id="edge10" class="edge">
<title>Node4&#45;&gt;Node11</title>
<path fill="none" stroke="#191970" d="M271.9815,-215.6296C277.8196,-206.2887 284.6752,-195.3197 289.4733,-187.6427"/>
<polygon fill="#191970" stroke="#191970" points="268.9286,-213.9105 266.5965,-224.2455 274.8646,-217.6206 268.9286,-213.9105"/>
</g>
<!-- Node12 -->
<g id="node9" class="node">
<title>Node12</title>
<g id="a_node9"><a xlink:href="shapes_8hpp_source.html" target="_top" xlink:title="jngl/shapes.hpp">
<polygon fill="#ffffff" stroke="#000000" points="355,-168.5 355,-187.5 438,-187.5 438,-168.5 355,-168.5"/>
<text text-anchor="middle" x="396.5" y="-175.5" font-family="Lato" font-size="10.00" fill="#000000">jngl/shapes.hpp</text>
</a>
</g>
</g>
<!-- Node4&#45;&gt;Node12 -->
<g id="edge12" class="edge">
<title>Node4&#45;&gt;Node12</title>
<path fill="none" stroke="#191970" d="M293.2399,-220.5189C318.0083,-210.3201 351.405,-196.5685 373.4258,-187.5011"/>
<polygon fill="#191970" stroke="#191970" points="291.7934,-217.3293 283.8792,-224.3733 294.4587,-223.8021 291.7934,-217.3293"/>
</g>
<!-- Node13 -->
<g id="node10" class="node">
<title>Node13</title>
<g id="a_node10"><a xlink:href="sprite_8hpp_source.html" target="_top" xlink:title="jngl/sprite.hpp">
<polygon fill="#ffffff" stroke="#000000" points="456,-168.5 456,-187.5 535,-187.5 535,-168.5 456,-168.5"/>
<text text-anchor="middle" x="495.5" y="-175.5" font-family="Lato" font-size="10.00" fill="#000000">jngl/sprite.hpp</text>
</a>
</g>
</g>
<!-- Node4&#45;&gt;Node13 -->
<g id="edge14" class="edge">
<title>Node4&#45;&gt;Node13</title>
<path fill="none" stroke="#191970" d="M308.2998,-222.6094C351.8,-212.2434 415.2603,-197.121 455.967,-187.4206"/>
<polygon fill="#191970" stroke="#191970" points="307.4343,-219.2176 298.518,-224.9404 309.057,-226.0269 307.4343,-219.2176"/>
</g>
<!-- Node6 -->
<g id="node3" class="node">
<title>Node6</title>
<g id="a_node3"><a xlink:href="all_8hpp.html" target="_top" xlink:title="Includes all JNGL headers. ">
<polygon fill="#ffffff" stroke="#000000" points="292.5,-56.5 292.5,-75.5 354.5,-75.5 354.5,-56.5 292.5,-56.5"/>
<text text-anchor="middle" x="323.5" y="-63.5" font-family="Lato" font-size="10.00" fill="#000000">jngl/all.hpp</text>
</a>
</g>
</g>
<!-- Node5&#45;&gt;Node6 -->
<g id="edge2" class="edge">
<title>Node5&#45;&gt;Node6</title>
<path fill="none" stroke="#191970" d="M93.2017,-111.733C151.3931,-100.1773 244.0682,-81.7737 292.1927,-72.217"/>
<polygon fill="#191970" stroke="#191970" points="92.2368,-108.3562 83.1101,-113.737 93.6003,-115.2221 92.2368,-108.3562"/>
</g>
<!-- Node7 -->
<g id="node4" class="node">
<title>Node7</title>
<g id="a_node4"><a xlink:href="jngl_8hpp_source.html" target="_top" xlink:title="jngl.hpp">
<polygon fill="#ffffff" stroke="#000000" points="298.5,-.5 298.5,-19.5 348.5,-19.5 348.5,-.5 298.5,-.5"/>
<text text-anchor="middle" x="323.5" y="-7.5" font-family="Lato" font-size="10.00" fill="#000000">jngl.hpp</text>
</a>
</g>
</g>
<!-- Node6&#45;&gt;Node7 -->
<g id="edge3" class="edge">
<title>Node6&#45;&gt;Node7</title>
<path fill="none" stroke="#191970" d="M323.5,-46.1575C323.5,-37.155 323.5,-26.9199 323.5,-19.6427"/>
<polygon fill="#191970" stroke="#191970" points="320.0001,-46.2455 323.5,-56.2455 327.0001,-46.2456 320.0001,-46.2455"/>
</g>
<!-- Node8&#45;&gt;Node6 -->
<g id="edge7" class="edge">
<title>Node8&#45;&gt;Node6</title>
<path fill="none" stroke="#191970" d="M142.431,-160.6607C130.6311,-146.538 118.9587,-126.6154 130.5,-112 150.2995,-86.9268 242.7416,-74.0374 292.1553,-68.8398"/>
<polygon fill="#191970" stroke="#191970" points="139.934,-163.1185 149.2188,-168.2218 145.1429,-158.4423 139.934,-163.1185"/>
</g>
<!-- Node9 -->
<g id="node6" class="node">
<title>Node9</title>
<g id="a_node6"><a xlink:href="Controller_8hpp_source.html" target="_top" xlink:title="jngl/Controller.hpp">
<polygon fill="#ffffff" stroke="#000000" points="140,-112.5 140,-131.5 237,-131.5 237,-112.5 140,-112.5"/>
<text text-anchor="middle" x="188.5" y="-119.5" font-family="Lato" font-size="10.00" fill="#000000">jngl/Controller.hpp</text>
</a>
</g>
</g>
<!-- Node8&#45;&gt;Node9 -->
<g id="edge5" class="edge">
<title>Node8&#45;&gt;Node9</title>
<path fill="none" stroke="#191970" d="M169.1647,-159.3372C173.9687,-150.0605 179.5723,-139.2398 183.5065,-131.6427"/>
<polygon fill="#191970" stroke="#191970" points="166.042,-157.7561 164.5514,-168.2455 172.258,-160.9751 166.042,-157.7561"/>
</g>
<!-- Node9&#45;&gt;Node6 -->
<g id="edge6" class="edge">
<title>Node9&#45;&gt;Node6</title>
<path fill="none" stroke="#191970" d="M220.9991,-108.5189C245.5854,-98.3201 278.7366,-84.5685 300.5955,-75.5011"/>
<polygon fill="#191970" stroke="#191970" points="219.6031,-105.3087 211.7073,-112.3733 222.2852,-111.7745 219.6031,-105.3087"/>
</g>
<!-- Node10&#45;&gt;Node6 -->
<g id="edge9" class="edge">
<title>Node10&#45;&gt;Node6</title>
<path fill="none" stroke="#191970" d="M302.1645,-103.3372C307.4654,-94.0605 313.6487,-83.2398 317.9899,-75.6427"/>
<polygon fill="#191970" stroke="#191970" points="298.9966,-101.8266 297.074,-112.2455 305.0743,-105.2996 298.9966,-101.8266"/>
</g>
<!-- Node11&#45;&gt;Node6 -->
<g id="edge11" class="edge">
<title>Node11&#45;&gt;Node6</title>
<path fill="none" stroke="#191970" d="M315.9912,-161.1249C324.0029,-153.2186 332.2725,-143.0966 336.5,-132 343.8175,-112.7925 334.9289,-88.8 328.6589,-75.6804"/>
<polygon fill="#191970" stroke="#191970" points="313.2297,-158.9084 308.2248,-168.2466 317.9607,-164.0677 313.2297,-158.9084"/>
</g>
<!-- Node12&#45;&gt;Node6 -->
<g id="edge13" class="edge">
<title>Node12&#45;&gt;Node6</title>
<path fill="none" stroke="#191970" d="M384.6979,-159.8927C369.0141,-135.8299 341.8708,-94.1853 329.7082,-75.5249"/>
<polygon fill="#191970" stroke="#191970" points="381.8835,-161.9845 390.2761,-168.4509 387.7478,-158.1622 381.8835,-161.9845"/>
</g>
<!-- Node13&#45;&gt;Node6 -->
<g id="edge15" class="edge">
<title>Node13&#45;&gt;Node6</title>
<path fill="none" stroke="#191970" d="M472.4337,-162.9801C436.4676,-139.5603 368.0526,-95.011 338.1275,-75.5249"/>
<polygon fill="#191970" stroke="#191970" points="470.5455,-165.9272 480.8354,-168.4509 474.3653,-160.0612 470.5455,-165.9272"/>
</g>
<!-- Node14 -->
<g id="node11" class="node">
<title>Node14</title>
<g id="a_node11"><a xlink:href="Video_8hpp_source.html" target="_top" xlink:title="jngl/Video.hpp">
<polygon fill="#ffffff" stroke="#000000" points="460,-112.5 460,-131.5 539,-131.5 539,-112.5 460,-112.5"/>
<text text-anchor="middle" x="499.5" y="-119.5" font-family="Lato" font-size="10.00" fill="#000000">jngl/Video.hpp</text>
</a>
</g>
</g>
<!-- Node13&#45;&gt;Node14 -->
<g id="edge16" class="edge">
<title>Node13&#45;&gt;Node14</title>
<path fill="none" stroke="#191970" d="M496.9173,-158.1575C497.5604,-149.155 498.2914,-138.9199 498.8112,-131.6427"/>
<polygon fill="#191970" stroke="#191970" points="493.4182,-158.0216 496.1967,-168.2455 500.4004,-158.5204 493.4182,-158.0216"/>
</g>
<!-- Node14&#45;&gt;Node6 -->
<g id="edge17" class="edge">
<title>Node14&#45;&gt;Node6</title>
<path fill="none" stroke="#191970" d="M459.6596,-109.3235C427.3827,-99.0536 382.6148,-84.8093 353.3607,-75.5011"/>
<polygon fill="#191970" stroke="#191970" points="458.654,-112.6764 469.2445,-112.3733 460.7765,-106.0059 458.654,-112.6764"/>
</g>
</g>
</svg>
