<?xml version="1.0" encoding="UTF-8" standalone="no"?>
<!DOCTYPE svg PUBLIC "-//W3C//DTD SVG 1.1//EN"
 "http://www.w3.org/Graphics/SVG/1.1/DTD/svg11.dtd">
<!-- Generated by graphviz version 12.1.0 (20240811.2233)
 -->
<!-- Title: jngl/Vec2.hpp Pages: 1 -->
<svg width="1669pt" height="248pt"
 viewBox="0.00 0.00 1669.00 248.25" xmlns="http://www.w3.org/2000/svg" xmlns:xlink="http://www.w3.org/1999/xlink">
<g id="graph0" class="graph" transform="scale(1 1) rotate(0) translate(4 244.25)">
<title>jngl/Vec2.hpp</title>
<!-- Node1 -->
<g id="Node000001" class="node">
<title>Node1</title>
<g id="a_Node000001"><a xlink:title="Contains jngl::Vec2 class.">
<polygon fill="#999999" stroke="#666666" points="850,-240.25 756,-240.25 756,-221 850,-221 850,-240.25"/>
<text text-anchor="middle" x="803" y="-226.75" font-family="ui-monospace,monospace" font-size="10.00">jngl/Vec2.hpp</text>
</a>
</g>
</g>
<!-- Node2 -->
<g id="Node000002" class="node">
<title>Node2</title>
<g id="a_Node000002"><a xlink:href="AppParameters_8hpp.html" target="_top" xlink:title="Contains jngl::AppParameters struct.">
<polygon fill="white" stroke="#666666" points="148,-185 0,-185 0,-165.75 148,-165.75 148,-185"/>
<text text-anchor="middle" x="74" y="-171.5" font-family="ui-monospace,monospace" font-size="10.00">jngl/AppParameters.hpp</text>
</a>
</g>
</g>
<!-- Node1&#45;&gt;Node2 -->
<g id="edge1_Node000001_Node000002" class="edge">
<title>Node1&#45;&gt;Node2</title>
<g id="a_edge1_Node000001_Node000002"><a xlink:title=" ">
<path fill="none" stroke="#63b8ff" d="M744.33,-225.34C612.64,-215.72 293.75,-192.43 148.41,-181.81"/>
<polygon fill="#63b8ff" stroke="#63b8ff" points="743.99,-228.82 754.22,-226.06 744.5,-221.84 743.99,-228.82"/>
</a>
</g>
</g>
<!-- Node5 -->
<g id="Node000005" class="node">
<title>Node5</title>
<g id="a_Node000005"><a xlink:href="Drawable_8hpp.html" target="_top" xlink:title="Contains jngl::Drawable class.">
<polygon fill="white" stroke="#666666" points="390,-185 272,-185 272,-165.75 390,-165.75 390,-185"/>
<text text-anchor="middle" x="331" y="-171.5" font-family="ui-monospace,monospace" font-size="10.00">jngl/Drawable.hpp</text>
</a>
</g>
</g>
<!-- Node1&#45;&gt;Node5 -->
<g id="edge4_Node000001_Node000005" class="edge">
<title>Node1&#45;&gt;Node5</title>
<g id="a_edge4_Node000001_Node000005"><a xlink:title=" ">
<path fill="none" stroke="#63b8ff" d="M744.16,-222.99C653.56,-212.77 480.9,-193.29 390.13,-183.05"/>
<polygon fill="#63b8ff" stroke="#63b8ff" points="743.75,-226.46 754.08,-224.11 744.53,-219.51 743.75,-226.46"/>
</a>
</g>
</g>
<!-- Node6 -->
<g id="Node000006" class="node">
<title>Node6</title>
<g id="a_Node000006"><a xlink:href="Sprite_8hpp.html" target="_top" xlink:title="Contains jngl::Sprite class and related functions.">
<polygon fill="white" stroke="#666666" points="245,-129.75 139,-129.75 139,-110.5 245,-110.5 245,-129.75"/>
<text text-anchor="middle" x="192" y="-116.25" font-family="ui-monospace,monospace" font-size="10.00">jngl/Sprite.hpp</text>
</a>
</g>
</g>
<!-- Node1&#45;&gt;Node6 -->
<g id="edge18_Node000001_Node000006" class="edge">
<title>Node1&#45;&gt;Node6</title>
<g id="a_edge18_Node000001_Node000006"><a xlink:title=" ">
<path fill="none" stroke="#63b8ff" d="M744.44,-229.47C623.05,-228.38 348.24,-221.8 263,-185 234.69,-172.78 210.04,-144.6 198.67,-130.1"/>
<polygon fill="#63b8ff" stroke="#63b8ff" points="744.15,-232.96 754.18,-229.54 744.21,-225.96 744.15,-232.96"/>
</a>
</g>
</g>
<!-- Node9 -->
<g id="Node000009" class="node">
<title>Node9</title>
<g id="a_Node000009"><a xlink:href="FrameBuffer_8hpp.html" target="_top" xlink:title="Contains jngl::FrameBuffer class.">
<polygon fill="white" stroke="#666666" points="663,-74.5 533,-74.5 533,-55.25 663,-55.25 663,-74.5"/>
<text text-anchor="middle" x="598" y="-61" font-family="ui-monospace,monospace" font-size="10.00">jngl/FrameBuffer.hpp</text>
</a>
</g>
</g>
<!-- Node1&#45;&gt;Node9 -->
<g id="edge12_Node000001_Node000009" class="edge">
<title>Node1&#45;&gt;Node9</title>
<g id="a_edge12_Node000001_Node000009"><a xlink:title=" ">
<path fill="none" stroke="#63b8ff" d="M784.73,-212.79C758.68,-189.06 709.01,-144.83 664,-110.5 646.84,-97.42 626.09,-83.71 612.49,-74.99"/>
<polygon fill="#63b8ff" stroke="#63b8ff" points="782.36,-215.36 792.1,-219.53 787.08,-210.2 782.36,-215.36"/>
</a>
</g>
</g>
<!-- Node10 -->
<g id="Node000010" class="node">
<title>Node10</title>
<g id="a_Node000010"><a xlink:href="MouseInfo_8hpp.html" target="_top" xlink:title="Contains jngl::MouseInfo class.">
<polygon fill="white" stroke="#666666" points="805,-74.5 681,-74.5 681,-55.25 805,-55.25 805,-74.5"/>
<text text-anchor="middle" x="743" y="-61" font-family="ui-monospace,monospace" font-size="10.00">jngl/MouseInfo.hpp</text>
</a>
</g>
</g>
<!-- Node1&#45;&gt;Node10 -->
<g id="edge14_Node000001_Node000010" class="edge">
<title>Node1&#45;&gt;Node10</title>
<g id="a_edge14_Node000001_Node000010"><a xlink:title=" ">
<path fill="none" stroke="#63b8ff" d="M795.96,-210.41C782.95,-174.9 755.62,-100.32 746.24,-74.72"/>
<polygon fill="#63b8ff" stroke="#63b8ff" points="792.53,-211.21 799.25,-219.4 799.1,-208.81 792.53,-211.21"/>
</a>
</g>
</g>
<!-- Node11 -->
<g id="Node000011" class="node">
<title>Node11</title>
<g id="a_Node000011"><a xlink:href="Rect_8hpp.html" target="_top" xlink:title="Contains jngl::Rect class.">
<polygon fill="white" stroke="#666666" points="917,-74.5 823,-74.5 823,-55.25 917,-55.25 917,-74.5"/>
<text text-anchor="middle" x="870" y="-61" font-family="ui-monospace,monospace" font-size="10.00">jngl/Rect.hpp</text>
</a>
</g>
</g>
<!-- Node1&#45;&gt;Node11 -->
<g id="edge16_Node000001_Node000011" class="edge">
<title>Node1&#45;&gt;Node11</title>
<g id="a_edge16_Node000001_Node000011"><a xlink:title=" ">
<path fill="none" stroke="#63b8ff" d="M810.86,-210.41C825.39,-174.9 855.91,-100.32 866.38,-74.72"/>
<polygon fill="#63b8ff" stroke="#63b8ff" points="807.72,-208.84 807.18,-219.42 814.2,-211.49 807.72,-208.84"/>
</a>
</g>
</g>
<!-- Node12 -->
<g id="Node000012" class="node">
<title>Node12</title>
<g id="a_Node000012"><a xlink:href="TextLine_8hpp.html" target="_top" xlink:title="Contains jngl::TextLine class.">
<polygon fill="white" stroke="#666666" points="531,-129.75 413,-129.75 413,-110.5 531,-110.5 531,-129.75"/>
<text text-anchor="middle" x="472" y="-116.25" font-family="ui-monospace,monospace" font-size="10.00">jngl/TextLine.hpp</text>
</a>
</g>
</g>
<!-- Node1&#45;&gt;Node12 -->
<g id="edge19_Node000001_Node000012" class="edge">
<title>Node1&#45;&gt;Node12</title>
<g id="a_edge19_Node000001_Node000012"><a xlink:title=" ">
<path fill="none" stroke="#63b8ff" d="M764.2,-217.02C736.76,-208.1 699.12,-195.85 666,-185 606.69,-165.58 537.24,-142.67 499.62,-130.25"/>
<polygon fill="#63b8ff" stroke="#63b8ff" points="762.88,-220.28 773.48,-220.04 765.05,-213.62 762.88,-220.28"/>
</a>
</g>
</g>
<!-- Node13 -->
<g id="Node000013" class="node">
<title>Node13</title>
<g id="a_Node000013"><a xlink:href="Widget_8hpp.html" target="_top" xlink:title="Contains jngl::Container class.">
<polygon fill="white" stroke="#666666" points="655,-129.75 549,-129.75 549,-110.5 655,-110.5 655,-129.75"/>
<text text-anchor="middle" x="602" y="-116.25" font-family="ui-monospace,monospace" font-size="10.00">jngl/Widget.hpp</text>
</a>
</g>
</g>
<!-- Node1&#45;&gt;Node13 -->
<g id="edge22_Node000001_Node000013" class="edge">
<title>Node1&#45;&gt;Node13</title>
<g id="a_edge22_Node000001_Node000013"><a xlink:title=" ">
<path fill="none" stroke="#63b8ff" d="M768.86,-216.3C748.73,-208.05 722.98,-196.8 701,-185 668.56,-167.58 632.8,-143.08 614.42,-130.07"/>
<polygon fill="#63b8ff" stroke="#63b8ff" points="767.42,-219.49 778,-219.99 770.04,-213 767.42,-219.49"/>
</a>
</g>
</g>
<!-- Node14 -->
<g id="Node000014" class="node">
<title>Node14</title>
<g id="a_Node000014"><a xlink:href="effects_8hpp.html" target="_top" xlink:title="Effects that can be applied to jngl::Widget.">
<polygon fill="white" stroke="#666666" points="988,-185 882,-185 882,-165.75 988,-165.75 988,-185"/>
<text text-anchor="middle" x="935" y="-171.5" font-family="ui-monospace,monospace" font-size="10.00">jngl/effects.hpp</text>
</a>
</g>
</g>
<!-- Node1&#45;&gt;Node14 -->
<g id="edge25_Node000001_Node000014" class="edge">
<title>Node1&#45;&gt;Node14</title>
<g id="a_edge25_Node000001_Node000014"><a xlink:title=" ">
<path fill="none" stroke="#63b8ff" d="M835.75,-216.41C859.65,-206.77 891.41,-193.96 912.5,-185.45"/>
<polygon fill="#63b8ff" stroke="#63b8ff" points="834.76,-213.04 826.8,-220.03 837.38,-219.53 834.76,-213.04"/>
</a>
</g>
</g>
<!-- Node15 -->
<g id="Node000015" class="node">
<title>Node15</title>
<g id="a_Node000015"><a xlink:href="font_8hpp.html" target="_top" xlink:title="Contains jngl::Font class and related functions.">
<polygon fill="white" stroke="#666666" points="1091,-129.75 997,-129.75 997,-110.5 1091,-110.5 1091,-129.75"/>
<text text-anchor="middle" x="1044" y="-116.25" font-family="ui-monospace,monospace" font-size="10.00">jngl/font.hpp</text>
</a>
</g>
</g>
<!-- Node1&#45;&gt;Node15 -->
<g id="edge27_Node000001_Node000015" class="edge">
<title>Node1&#45;&gt;Node15</title>
<g id="a_edge27_Node000001_Node000015"><a xlink:title=" ">
<path fill="none" stroke="#63b8ff" d="M861.88,-226.76C902.68,-222.35 956.69,-211.48 997,-185 1018.17,-171.09 1033.19,-144.18 1039.96,-130.14"/>
<polygon fill="#63b8ff" stroke="#63b8ff" points="861.6,-223.27 851.99,-227.72 862.28,-230.24 861.6,-223.27"/>
</a>
</g>
</g>
<!-- Node17 -->
<g id="Node000017" class="node">
<title>Node17</title>
<g id="a_Node000017"><a xlink:href="input_8hpp.html" target="_top" xlink:title="Input related functions.">
<polygon fill="white" stroke="#666666" points="1360,-129.75 1260,-129.75 1260,-110.5 1360,-110.5 1360,-129.75"/>
<text text-anchor="middle" x="1310" y="-116.25" font-family="ui-monospace,monospace" font-size="10.00">jngl/input.hpp</text>
</a>
</g>
</g>
<!-- Node1&#45;&gt;Node17 -->
<g id="edge31_Node000001_Node000017" class="edge">
<title>Node1&#45;&gt;Node17</title>
<g id="a_edge31_Node000001_Node000017"><a xlink:title=" ">
<path fill="none" stroke="#63b8ff" d="M859.61,-218.29C903.65,-209.41 966.25,-196.65 1021,-185 1109.96,-166.07 1214.06,-142.78 1269.84,-130.21"/>
<polygon fill="#63b8ff" stroke="#63b8ff" points="859.15,-214.81 850.04,-220.22 860.53,-221.67 859.15,-214.81"/>
</a>
</g>
</g>
<!-- Node20 -->
<g id="Node000020" class="node">
<title>Node20</title>
<g id="a_Node000020"><a xlink:href="log_8hpp.html" target="_top" xlink:title="Logging functions.">
<polygon fill="white" stroke="#666666" points="1276,-185 1188,-185 1188,-165.75 1276,-165.75 1276,-185"/>
<text text-anchor="middle" x="1232" y="-171.5" font-family="ui-monospace,monospace" font-size="10.00">jngl/log.hpp</text>
</a>
</g>
</g>
<!-- Node1&#45;&gt;Node20 -->
<g id="edge37_Node000001_Node000020" class="edge">
<title>Node1&#45;&gt;Node20</title>
<g id="a_edge37_Node000001_Node000020"><a xlink:title=" ">
<path fill="none" stroke="#63b8ff" d="M861.38,-222.38C948.28,-211.59 1109.77,-191.55 1187.69,-181.88"/>
<polygon fill="#63b8ff" stroke="#63b8ff" points="861.13,-218.88 851.64,-223.59 861.99,-225.83 861.13,-218.88"/>
</a>
</g>
</g>
<!-- Node21 -->
<g id="Node000021" class="node">
<title>Node21</title>
<g id="a_Node000021"><a xlink:href="screen_8hpp.html" target="_top" xlink:title=" ">
<polygon fill="white" stroke="#666666" points="1517,-185 1411,-185 1411,-165.75 1517,-165.75 1517,-185"/>
<text text-anchor="middle" x="1464" y="-171.5" font-family="ui-monospace,monospace" font-size="10.00">jngl/screen.hpp</text>
</a>
</g>
</g>
<!-- Node1&#45;&gt;Node21 -->
<g id="edge39_Node000001_Node000021" class="edge">
<title>Node1&#45;&gt;Node21</title>
<g id="a_edge39_Node000001_Node000021"><a xlink:title=" ">
<path fill="none" stroke="#63b8ff" d="M861.68,-224.9C988.99,-214.64 1288.89,-190.48 1410.94,-180.65"/>
<polygon fill="#63b8ff" stroke="#63b8ff" points="861.47,-221.4 851.78,-225.7 862.03,-228.38 861.47,-221.4"/>
</a>
</g>
</g>
<!-- Node22 -->
<g id="Node000022" class="node">
<title>Node22</title>
<g id="a_Node000022"><a xlink:href="shapes_8hpp.html" target="_top" xlink:title="Functions for drawing shapes.">
<polygon fill="white" stroke="#666666" points="1661,-185 1555,-185 1555,-165.75 1661,-165.75 1661,-185"/>
<text text-anchor="middle" x="1608" y="-171.5" font-family="ui-monospace,monospace" font-size="10.00">jngl/shapes.hpp</text>
</a>
</g>
</g>
<!-- Node1&#45;&gt;Node22 -->
<g id="edge41_Node000001_Node000022" class="edge">
<title>Node1&#45;&gt;Node22</title>
<g id="a_edge41_Node000001_Node000022"><a xlink:title=" ">
<path fill="none" stroke="#63b8ff" d="M861.81,-226.86C985.08,-220.86 1279.54,-205.56 1526,-185 1535.27,-184.23 1545.12,-183.29 1554.66,-182.32"/>
<polygon fill="#63b8ff" stroke="#63b8ff" points="861.75,-223.36 851.93,-227.33 862.09,-230.35 861.75,-223.36"/>
</a>
</g>
</g>
<!-- Node3 -->
<g id="Node000003" class="node">
<title>Node3</title>
<g id="a_Node000003"><a xlink:href="jngl_8hpp.html" target="_top" xlink:title="Includes all JNGL headers except for init.hpp.">
<polygon fill="white" stroke="#666666" points="902,-19.25 838,-19.25 838,0 902,0 902,-19.25"/>
<text text-anchor="middle" x="870" y="-5.75" font-family="ui-monospace,monospace" font-size="10.00">jngl.hpp</text>
</a>
</g>
</g>
<!-- Node2&#45;&gt;Node3 -->
<g id="edge2_Node000002_Node000003" class="edge">
<title>Node2&#45;&gt;Node3</title>
<g id="a_edge2_Node000002_Node000003"><a xlink:title=" ">
<path fill="none" stroke="#63b8ff" d="M46.08,-159.53C25.96,-146.86 4.52,-127.99 18,-110.5 76.92,-34.07 132.77,-70.94 228,-55.25 459.5,-17.1 743.21,-11.51 837.69,-10.73"/>
<polygon fill="#63b8ff" stroke="#63b8ff" points="44.3,-162.54 54.69,-164.61 47.86,-156.51 44.3,-162.54"/>
</a>
</g>
</g>
<!-- Node4 -->
<g id="Node000004" class="node">
<title>Node4</title>
<g id="a_Node000004"><a xlink:href="init_8hpp.html" target="_top" xlink:title="Include this file only once, as it defines the main function.">
<polygon fill="white" stroke="#666666" points="121,-129.75 27,-129.75 27,-110.5 121,-110.5 121,-129.75"/>
<text text-anchor="middle" x="74" y="-116.25" font-family="ui-monospace,monospace" font-size="10.00">jngl/init.hpp</text>
</a>
</g>
</g>
<!-- Node2&#45;&gt;Node4 -->
<g id="edge3_Node000002_Node000004" class="edge">
<title>Node2&#45;&gt;Node4</title>
<g id="a_edge3_Node000002_Node000004"><a xlink:title=" ">
<path fill="none" stroke="#63b8ff" d="M74,-154.13C74,-145.84 74,-136.67 74,-130.11"/>
<polygon fill="#63b8ff" stroke="#63b8ff" points="70.5,-154.07 74,-164.07 77.5,-154.07 70.5,-154.07"/>
</a>
</g>
</g>
<!-- Node5&#45;&gt;Node3 -->
<g id="edge5_Node000005_Node000003" class="edge">
<title>Node5&#45;&gt;Node3</title>
<g id="a_edge5_Node000005_Node000003"><a xlink:title=" ">
<path fill="none" stroke="#63b8ff" d="M311.63,-158.06C303.97,-150.36 296.04,-140.5 292,-129.75 279.57,-96.63 290.63,-74.97 320,-55.25 363.05,-26.34 726.65,-14.41 837.83,-11.42"/>
<polygon fill="#63b8ff" stroke="#63b8ff" points="308.83,-160.24 318.53,-164.48 313.59,-155.11 308.83,-160.24"/>
</a>
</g>
</g>
<!-- Node5&#45;&gt;Node6 -->
<g id="edge6_Node000005_Node000006" class="edge">
<title>Node5&#45;&gt;Node6</title>
<g id="a_edge6_Node000005_Node000006"><a xlink:title=" ">
<path fill="none" stroke="#63b8ff" d="M296.85,-161.29C271.65,-151.64 238,-138.75 215.7,-130.2"/>
<polygon fill="#63b8ff" stroke="#63b8ff" points="295.42,-164.49 306.01,-164.8 297.92,-157.95 295.42,-164.49"/>
</a>
</g>
</g>
<!-- Node7 -->
<g id="Node000007" class="node">
<title>Node7</title>
<g id="a_Node000007"><a xlink:href="text_8hpp.html" target="_top" xlink:title=" ">
<polygon fill="white" stroke="#666666" points="395,-129.75 301,-129.75 301,-110.5 395,-110.5 395,-129.75"/>
<text text-anchor="middle" x="348" y="-116.25" font-family="ui-monospace,monospace" font-size="10.00">jngl/text.hpp</text>
</a>
</g>
</g>
<!-- Node5&#45;&gt;Node7 -->
<g id="edge8_Node000005_Node000007" class="edge">
<title>Node5&#45;&gt;Node7</title>
<g id="a_edge8_Node000005_Node000007"><a xlink:title=" ">
<path fill="none" stroke="#63b8ff" d="M337.28,-154.71C339.97,-146.27 342.99,-136.83 345.13,-130.11"/>
<polygon fill="#63b8ff" stroke="#63b8ff" points="333.97,-153.55 334.27,-164.14 340.64,-155.68 333.97,-153.55"/>
</a>
</g>
</g>
<!-- Node6&#45;&gt;Node3 -->
<g id="edge7_Node000006_Node000003" class="edge">
<title>Node6&#45;&gt;Node3</title>
<g id="a_edge7_Node000006_Node000003"><a xlink:title=" ">
<path fill="none" stroke="#63b8ff" d="M204.99,-101.14C217.09,-85.97 236.58,-65.19 259,-55.25 364.01,-8.7 726.8,-8.94 837.6,-10.14"/>
<polygon fill="#63b8ff" stroke="#63b8ff" points="202.34,-98.84 199.08,-108.92 207.91,-103.08 202.34,-98.84"/>
</a>
</g>
</g>
<!-- Node7&#45;&gt;Node3 -->
<g id="edge9_Node000007_Node000003" class="edge">
<title>Node7&#45;&gt;Node3</title>
<g id="a_edge9_Node000007_Node000003"><a xlink:title=" ">
<path fill="none" stroke="#63b8ff" d="M334.65,-100.86C326.11,-86.78 318.57,-67.66 330,-55.25 364.49,-17.79 726.86,-11.77 837.86,-10.81"/>
<polygon fill="#63b8ff" stroke="#63b8ff" points="331.49,-102.43 339.96,-108.81 337.31,-98.55 331.49,-102.43"/>
</a>
</g>
</g>
<!-- Node8 -->
<g id="Node000008" class="node">
<title>Node8</title>
<g id="a_Node000008"><a xlink:href="Label_8hpp.html" target="_top" xlink:title="Contains jngl::Label class.">
<polygon fill="white" stroke="#666666" points="439,-74.5 339,-74.5 339,-55.25 439,-55.25 439,-74.5"/>
<text text-anchor="middle" x="389" y="-61" font-family="ui-monospace,monospace" font-size="10.00">jngl/Label.hpp</text>
</a>
</g>
</g>
<!-- Node7&#45;&gt;Node8 -->
<g id="edge10_Node000007_Node000008" class="edge">
<title>Node7&#45;&gt;Node8</title>
<g id="a_edge10_Node000007_Node000008"><a xlink:title=" ">
<path fill="none" stroke="#63b8ff" d="M361.59,-101.47C368.46,-92.56 376.49,-82.12 382.08,-74.86"/>
<polygon fill="#63b8ff" stroke="#63b8ff" points="359.02,-99.07 355.69,-109.13 364.57,-103.34 359.02,-99.07"/>
</a>
</g>
</g>
<!-- Node8&#45;&gt;Node3 -->
<g id="edge11_Node000008_Node000003" class="edge">
<title>Node8&#45;&gt;Node3</title>
<g id="a_edge11_Node000008_Node000003"><a xlink:title=" ">
<path fill="none" stroke="#63b8ff" d="M450.48,-55.56C451.32,-55.45 452.17,-55.35 453,-55.25 596.12,-37.95 767.3,-20.72 837.52,-13.8"/>
<polygon fill="#63b8ff" stroke="#63b8ff" points="450.28,-52.05 440.79,-56.78 451.15,-59 450.28,-52.05"/>
</a>
</g>
</g>
<!-- Node9&#45;&gt;Node3 -->
<g id="edge13_Node000009_Node000003" class="edge">
<title>Node9&#45;&gt;Node3</title>
<g id="a_edge13_Node000009_Node000003"><a xlink:title=" ">
<path fill="none" stroke="#63b8ff" d="M655.52,-52.61C711,-41.75 792.97,-25.71 837.81,-16.93"/>
<polygon fill="#63b8ff" stroke="#63b8ff" points="655.08,-49.13 645.93,-54.49 656.42,-56 655.08,-49.13"/>
</a>
</g>
</g>
<!-- Node10&#45;&gt;Node3 -->
<g id="edge15_Node000010_Node000003" class="edge">
<title>Node10&#45;&gt;Node3</title>
<g id="a_edge15_Node000010_Node000003"><a xlink:title=" ">
<path fill="none" stroke="#63b8ff" d="M775.13,-50.4C798.05,-40.79 828.25,-28.13 848.35,-19.7"/>
<polygon fill="#63b8ff" stroke="#63b8ff" points="773.81,-47.16 765.94,-54.26 776.52,-53.62 773.81,-47.16"/>
</a>
</g>
</g>
<!-- Node11&#45;&gt;Node3 -->
<g id="edge17_Node000011_Node000003" class="edge">
<title>Node11&#45;&gt;Node3</title>
<g id="a_edge17_Node000011_Node000003"><a xlink:title=" ">
<path fill="none" stroke="#63b8ff" d="M870,-43.63C870,-35.34 870,-26.17 870,-19.61"/>
<polygon fill="#63b8ff" stroke="#63b8ff" points="866.5,-43.57 870,-53.57 873.5,-43.57 866.5,-43.57"/>
</a>
</g>
</g>
<!-- Node12&#45;&gt;Node3 -->
<g id="edge20_Node000012_Node000003" class="edge">
<title>Node12&#45;&gt;Node3</title>
<g id="a_edge20_Node000012_Node000003"><a xlink:title=" ">
<path fill="none" stroke="#63b8ff" d="M479.68,-99.78C486.61,-85.02 498.29,-65.53 515,-55.25 568.7,-22.21 760.46,-13.51 837.56,-11.32"/>
<polygon fill="#63b8ff" stroke="#63b8ff" points="476.47,-98.37 475.74,-108.94 482.9,-101.14 476.47,-98.37"/>
</a>
</g>
</g>
<!-- Node12&#45;&gt;Node8 -->
<g id="edge21_Node000012_Node000008" class="edge">
<title>Node12&#45;&gt;Node8</title>
<g id="a_edge21_Node000012_Node000008"><a xlink:title=" ">
<path fill="none" stroke="#63b8ff" d="M448.51,-104.05C433.89,-94.67 415.57,-82.92 403.15,-74.95"/>
<polygon fill="#63b8ff" stroke="#63b8ff" points="446.34,-106.82 456.65,-109.27 450.12,-100.93 446.34,-106.82"/>
</a>
</g>
</g>
<!-- Node13&#45;&gt;Node3 -->
<g id="edge23_Node000013_Node000003" class="edge">
<title>Node13&#45;&gt;Node3</title>
<g id="a_edge23_Node000013_Node000003"><a xlink:title=" ">
<path fill="none" stroke="#63b8ff" d="M564.69,-105.76C536.9,-93.8 506.53,-75.12 524,-55.25 544.57,-31.85 755.58,-17.24 837.62,-12.4"/>
<polygon fill="#63b8ff" stroke="#63b8ff" points="563.13,-108.91 573.71,-109.44 565.77,-102.42 563.13,-108.91"/>
</a>
</g>
</g>
<!-- Node13&#45;&gt;Node8 -->
<g id="edge24_Node000013_Node000008" class="edge">
<title>Node13&#45;&gt;Node8</title>
<g id="a_edge24_Node000013_Node000008"><a xlink:title=" ">
<path fill="none" stroke="#63b8ff" d="M554.79,-107.32C515.72,-97.55 461.02,-83.88 425.31,-74.95"/>
<polygon fill="#63b8ff" stroke="#63b8ff" points="553.85,-110.69 564.4,-109.72 555.55,-103.9 553.85,-110.69"/>
</a>
</g>
</g>
<!-- Node14&#45;&gt;Node3 -->
<g id="edge26_Node000014_Node000003" class="edge">
<title>Node14&#45;&gt;Node3</title>
<g id="a_edge26_Node000014_Node000003"><a xlink:title=" ">
<path fill="none" stroke="#63b8ff" d="M938.16,-154.14C941.03,-129.3 942.6,-86.63 926,-55.25 917.63,-39.43 900.96,-27.29 887.97,-19.69"/>
<polygon fill="#63b8ff" stroke="#63b8ff" points="934.72,-153.46 936.84,-163.84 941.66,-154.41 934.72,-153.46"/>
</a>
</g>
</g>
<!-- Node15&#45;&gt;Node3 -->
<g id="edge28_Node000015_Node000003" class="edge">
<title>Node15&#45;&gt;Node3</title>
<g id="a_edge28_Node000015_Node000003"><a xlink:title=" ">
<path fill="none" stroke="#63b8ff" d="M1082.44,-105.91C1110.61,-94.16 1141.18,-75.71 1124,-55.25 1096,-21.9 963.93,-13.47 902.09,-11.34"/>
<polygon fill="#63b8ff" stroke="#63b8ff" points="1081.29,-102.6 1073.27,-109.52 1083.86,-109.11 1081.29,-102.6"/>
</a>
</g>
</g>
<!-- Node16 -->
<g id="Node000016" class="node">
<title>Node16</title>
<g id="a_Node000016"><a xlink:href="OutlinedFont_8hpp.html" target="_top" xlink:title="Contains jngl::OutlinedFont class.">
<polygon fill="white" stroke="#666666" points="1115,-74.5 973,-74.5 973,-55.25 1115,-55.25 1115,-74.5"/>
<text text-anchor="middle" x="1044" y="-61" font-family="ui-monospace,monospace" font-size="10.00">jngl/OutlinedFont.hpp</text>
</a>
</g>
</g>
<!-- Node15&#45;&gt;Node16 -->
<g id="edge29_Node000015_Node000016" class="edge">
<title>Node15&#45;&gt;Node16</title>
<g id="a_edge29_Node000015_Node000016"><a xlink:title=" ">
<path fill="none" stroke="#63b8ff" d="M1044,-98.88C1044,-90.59 1044,-81.42 1044,-74.86"/>
<polygon fill="#63b8ff" stroke="#63b8ff" points="1040.5,-98.82 1044,-108.82 1047.5,-98.82 1040.5,-98.82"/>
</a>
</g>
</g>
<!-- Node16&#45;&gt;Node3 -->
<g id="edge30_Node000016_Node000003" class="edge">
<title>Node16&#45;&gt;Node3</title>
<g id="a_edge30_Node000016_Node000003"><a xlink:title=" ">
<path fill="none" stroke="#63b8ff" d="M1003.78,-51.57C971.99,-41.84 928.33,-28.48 899.66,-19.7"/>
<polygon fill="#63b8ff" stroke="#63b8ff" points="1002.45,-54.82 1013.04,-54.4 1004.5,-48.13 1002.45,-54.82"/>
</a>
</g>
</g>
<!-- Node17&#45;&gt;Node3 -->
<g id="edge32_Node000017_Node000003" class="edge">
<title>Node17&#45;&gt;Node3</title>
<g id="a_edge32_Node000017_Node000003"><a xlink:title=" ">
<path fill="none" stroke="#63b8ff" d="M1329.88,-102.73C1344.2,-88.99 1358.9,-69.41 1346,-55.25 1316.14,-22.46 1004.29,-13.31 902.18,-11.19"/>
<polygon fill="#63b8ff" stroke="#63b8ff" points="1327.95,-99.76 1322.84,-109.05 1332.62,-104.98 1327.95,-99.76"/>
</a>
</g>
</g>
<!-- Node18 -->
<g id="Node000018" class="node">
<title>Node18</title>
<g id="a_Node000018"><a xlink:href="Controller_8hpp.html" target="_top" xlink:title="Contains jngl::Controller class.">
<polygon fill="white" stroke="#666666" points="1523,-74.5 1393,-74.5 1393,-55.25 1523,-55.25 1523,-74.5"/>
<text text-anchor="middle" x="1458" y="-61" font-family="ui-monospace,monospace" font-size="10.00">jngl/Controller.hpp</text>
</a>
</g>
</g>
<!-- Node17&#45;&gt;Node18 -->
<g id="edge33_Node000017_Node000018" class="edge">
<title>Node17&#45;&gt;Node18</title>
<g id="a_edge33_Node000017_Node000018"><a xlink:title=" ">
<path fill="none" stroke="#63b8ff" d="M1345.64,-106.3C1372.55,-96.62 1408.81,-83.57 1432.77,-74.95"/>
<polygon fill="#63b8ff" stroke="#63b8ff" points="1344.75,-102.9 1336.53,-109.58 1347.12,-109.49 1344.75,-102.9"/>
</a>
</g>
</g>
<!-- Node19 -->
<g id="Node000019" class="node">
<title>Node19</title>
<g id="a_Node000019"><a xlink:href="KeyboardShortcut_8hpp.html" target="_top" xlink:title="Contains jngl::KeyboardShortcut class.">
<polygon fill="white" stroke="#666666" points="1337,-74.5 1171,-74.5 1171,-55.25 1337,-55.25 1337,-74.5"/>
<text text-anchor="middle" x="1254" y="-61" font-family="ui-monospace,monospace" font-size="10.00">jngl/KeyboardShortcut.hpp</text>
</a>
</g>
</g>
<!-- Node17&#45;&gt;Node19 -->
<g id="edge35_Node000017_Node000019" class="edge">
<title>Node17&#45;&gt;Node19</title>
<g id="a_edge35_Node000017_Node000019"><a xlink:title=" ">
<path fill="none" stroke="#63b8ff" d="M1292.37,-102.36C1282.76,-93.22 1271.25,-82.28 1263.36,-74.77"/>
<polygon fill="#63b8ff" stroke="#63b8ff" points="1289.74,-104.69 1299.4,-109.05 1294.57,-99.62 1289.74,-104.69"/>
</a>
</g>
</g>
<!-- Node18&#45;&gt;Node3 -->
<g id="edge34_Node000018_Node000003" class="edge">
<title>Node18&#45;&gt;Node3</title>
<g id="a_edge34_Node000018_Node000003"><a xlink:title=" ">
<path fill="none" stroke="#63b8ff" d="M1381.56,-55.5C1380.7,-55.42 1379.85,-55.33 1379,-55.25 1199.13,-37.55 983.15,-19.76 902.48,-13.23"/>
<polygon fill="#63b8ff" stroke="#63b8ff" points="1381.11,-58.98 1391.41,-56.5 1381.81,-52.01 1381.11,-58.98"/>
</a>
</g>
</g>
<!-- Node19&#45;&gt;Node3 -->
<g id="edge36_Node000019_Node000003" class="edge">
<title>Node19&#45;&gt;Node3</title>
<g id="a_edge36_Node000019_Node000003"><a xlink:title=" ">
<path fill="none" stroke="#63b8ff" d="M1177.15,-53.22C1093.15,-41.57 962.54,-23.46 902.36,-15.11"/>
<polygon fill="#63b8ff" stroke="#63b8ff" points="1176.54,-56.67 1186.93,-54.57 1177.5,-49.73 1176.54,-56.67"/>
</a>
</g>
</g>
<!-- Node20&#45;&gt;Node3 -->
<g id="edge38_Node000020_Node000003" class="edge">
<title>Node20&#45;&gt;Node3</title>
<g id="a_edge38_Node000020_Node000003"><a xlink:title=" ">
<path fill="none" stroke="#63b8ff" d="M1287.79,-170.9C1393.63,-162.39 1606.6,-135.05 1532,-55.25 1488.64,-8.86 1028.84,-9.28 902.16,-10.29"/>
<polygon fill="#63b8ff" stroke="#63b8ff" points="1287.57,-167.4 1277.87,-171.66 1288.11,-174.38 1287.57,-167.4"/>
</a>
</g>
</g>
<!-- Node21&#45;&gt;Node3 -->
<g id="edge40_Node000021_Node000003" class="edge">
<title>Node21&#45;&gt;Node3</title>
<g id="a_edge40_Node000021_Node000003"><a xlink:title=" ">
<path fill="none" stroke="#63b8ff" d="M1495.73,-160.24C1509.18,-152.86 1524.01,-142.64 1534,-129.75 1554.86,-102.82 1575.29,-80.11 1552,-55.25 1507.18,-7.4 1031.48,-8.91 902.24,-10.22"/>
<polygon fill="#63b8ff" stroke="#63b8ff" points="1494.46,-156.96 1487.17,-164.64 1497.66,-163.18 1494.46,-156.96"/>
</a>
</g>
</g>
<!-- Node22&#45;&gt;Node3 -->
<g id="edge42_Node000022_Node000003" class="edge">
<title>Node22&#45;&gt;Node3</title>
<g id="a_edge42_Node000022_Node000003"><a xlink:title=" ">
<path fill="none" stroke="#63b8ff" d="M1608.21,-154.1C1607.28,-126.81 1601.12,-78.95 1571,-55.25 1517.99,-13.54 1033,-10.59 902.31,-10.56"/>
<polygon fill="#63b8ff" stroke="#63b8ff" points="1604.71,-153.87 1608.32,-163.83 1611.71,-153.79 1604.71,-153.87"/>
</a>
</g>
</g>
</g>
</svg>
