<?xml version="1.0" encoding="UTF-8" standalone="no"?>
<!DOCTYPE svg PUBLIC "-//W3C//DTD SVG 1.1//EN"
 "http://www.w3.org/Graphics/SVG/1.1/DTD/svg11.dtd">
<!-- Generated by graphviz version 2.44.0 (0)
 -->
<!-- Title: jngl/Vec2.hpp Pages: 1 -->
<svg width="1021pt" height="308pt"
 viewBox="0.00 0.00 1021.00 308.00" xmlns="http://www.w3.org/2000/svg" xmlns:xlink="http://www.w3.org/1999/xlink">
<g id="graph0" class="graph" transform="scale(1 1) rotate(0) translate(4 304)">
<title>jngl/Vec2.hpp</title>
<polygon fill="white" stroke="transparent" points="-4,4 -4,-304 1017,-304 1017,4 -4,4"/>
<!-- Node1 -->
<g id="node1" class="node">
<title>Node1</title>
<g id="a_node1"><a xlink:title="Contains jngl::Vec2 class.">
<polygon fill="#bfbfbf" stroke="black" points="521,-280.5 521,-299.5 616,-299.5 616,-280.5 521,-280.5"/>
<text text-anchor="middle" x="568.5" y="-287.5" font-family="'Consolas',monospace" font-size="10.00">jngl/Vec2.hpp</text>
</a>
</g>
</g>
<!-- Node2 -->
<g id="node2" class="node">
<title>Node2</title>
<g id="a_node2"><a xlink:href="Drawable_8hpp.html" target="_top" xlink:title="Contains jngl::Drawable class.">
<polygon fill="white" stroke="black" points="133,-224.5 133,-243.5 252,-243.5 252,-224.5 133,-224.5"/>
<text text-anchor="middle" x="192.5" y="-231.5" font-family="'Consolas',monospace" font-size="10.00">jngl/Drawable.hpp</text>
</a>
</g>
</g>
<!-- Node1&#45;&gt;Node2 -->
<g id="edge1" class="edge">
<title>Node1&#45;&gt;Node2</title>
<path fill="none" stroke="midnightblue" d="M510.88,-280.72C440.69,-270.64 322.73,-253.7 251.79,-243.51"/>
<polygon fill="midnightblue" stroke="midnightblue" points="510.48,-284.2 520.88,-282.16 511.48,-277.27 510.48,-284.2"/>
</g>
<!-- Node5 -->
<g id="node5" class="node">
<title>Node5</title>
<g id="a_node5"><a xlink:href="sprite_8hpp.html" target="_top" xlink:title="Contains jngl::Sprite class and related functions.">
<polygon fill="white" stroke="black" points="0,-168.5 0,-187.5 107,-187.5 107,-168.5 0,-168.5"/>
<text text-anchor="middle" x="53.5" y="-175.5" font-family="'Consolas',monospace" font-size="10.00">jngl/sprite.hpp</text>
</a>
</g>
</g>
<!-- Node1&#45;&gt;Node5 -->
<g id="edge25" class="edge">
<title>Node1&#45;&gt;Node5</title>
<path fill="none" stroke="midnightblue" d="M510.69,-287.7C406.37,-284.6 191.21,-274.61 123.5,-244 95.09,-231.16 70.66,-202.12 59.68,-187.6"/>
<polygon fill="midnightblue" stroke="midnightblue" points="510.64,-291.2 520.73,-287.98 510.84,-284.2 510.64,-291.2"/>
</g>
<!-- Node9 -->
<g id="node9" class="node">
<title>Node9</title>
<g id="a_node9"><a xlink:href="font_8hpp.html" target="_top" xlink:title="Contains jngl::Font class and related functions.">
<polygon fill="white" stroke="black" points="461,-112.5 461,-131.5 556,-131.5 556,-112.5 461,-112.5"/>
<text text-anchor="middle" x="508.5" y="-119.5" font-family="'Consolas',monospace" font-size="10.00">jngl/font.hpp</text>
</a>
</g>
</g>
<!-- Node1&#45;&gt;Node9 -->
<g id="edge12" class="edge">
<title>Node1&#45;&gt;Node9</title>
<path fill="none" stroke="midnightblue" d="M561.78,-270.39C548.83,-234.59 520.91,-157.34 511.6,-131.57"/>
<polygon fill="midnightblue" stroke="midnightblue" points="558.58,-271.86 565.27,-280.08 565.17,-269.48 558.58,-271.86"/>
</g>
<!-- Node10 -->
<g id="node10" class="node">
<title>Node10</title>
<g id="a_node10"><a xlink:href="framebuffer_8hpp.html" target="_top" xlink:title="Contains jngl::FrameBuffer class.">
<polygon fill="white" stroke="black" points="574,-112.5 574,-131.5 705,-131.5 705,-112.5 574,-112.5"/>
<text text-anchor="middle" x="639.5" y="-119.5" font-family="'Consolas',monospace" font-size="10.00">jngl/framebuffer.hpp</text>
</a>
</g>
</g>
<!-- Node1&#45;&gt;Node10 -->
<g id="edge14" class="edge">
<title>Node1&#45;&gt;Node10</title>
<path fill="none" stroke="midnightblue" d="M576.26,-270.86C591.49,-235.25 624.76,-157.45 635.84,-131.57"/>
<polygon fill="midnightblue" stroke="midnightblue" points="573.03,-269.5 572.32,-280.08 579.47,-272.26 573.03,-269.5"/>
</g>
<!-- Node11 -->
<g id="node11" class="node">
<title>Node11</title>
<g id="a_node11"><a xlink:href="input_8hpp.html" target="_top" xlink:title="Input related functions.">
<polygon fill="white" stroke="black" points="674,-168.5 674,-187.5 775,-187.5 775,-168.5 674,-168.5"/>
<text text-anchor="middle" x="724.5" y="-175.5" font-family="'Consolas',monospace" font-size="10.00">jngl/input.hpp</text>
</a>
</g>
</g>
<!-- Node1&#45;&gt;Node11 -->
<g id="edge16" class="edge">
<title>Node1&#45;&gt;Node11</title>
<path fill="none" stroke="midnightblue" d="M589.18,-274.42C622.18,-251.15 685.71,-206.35 712.32,-187.59"/>
<polygon fill="midnightblue" stroke="midnightblue" points="586.9,-271.75 580.74,-280.37 590.93,-277.47 586.9,-271.75"/>
</g>
<!-- Node13 -->
<g id="node13" class="node">
<title>Node13</title>
<g id="a_node13"><a xlink:href="screen_8hpp.html" target="_top" xlink:title=" ">
<polygon fill="white" stroke="black" points="781,-224.5 781,-243.5 888,-243.5 888,-224.5 781,-224.5"/>
<text text-anchor="middle" x="834.5" y="-231.5" font-family="'Consolas',monospace" font-size="10.00">jngl/screen.hpp</text>
</a>
</g>
</g>
<!-- Node1&#45;&gt;Node13 -->
<g id="edge20" class="edge">
<title>Node1&#45;&gt;Node13</title>
<path fill="none" stroke="midnightblue" d="M620.67,-278.41C670.94,-268.2 746.03,-252.96 792.55,-243.52"/>
<polygon fill="midnightblue" stroke="midnightblue" points="619.75,-275.02 610.65,-280.44 621.14,-281.88 619.75,-275.02"/>
</g>
<!-- Node15 -->
<g id="node15" class="node">
<title>Node15</title>
<g id="a_node15"><a xlink:href="shapes_8hpp.html" target="_top" xlink:title="Functions for drawing shapes.">
<polygon fill="white" stroke="black" points="906,-224.5 906,-243.5 1013,-243.5 1013,-224.5 906,-224.5"/>
<text text-anchor="middle" x="959.5" y="-231.5" font-family="'Consolas',monospace" font-size="10.00">jngl/shapes.hpp</text>
</a>
</g>
</g>
<!-- Node1&#45;&gt;Node15 -->
<g id="edge23" class="edge">
<title>Node1&#45;&gt;Node15</title>
<path fill="none" stroke="midnightblue" d="M626.16,-281.19C691.68,-272.29 801.81,-257.26 896.5,-244 899.56,-243.57 902.71,-243.13 905.89,-242.68"/>
<polygon fill="midnightblue" stroke="midnightblue" points="625.48,-277.75 616.04,-282.56 626.42,-284.68 625.48,-277.75"/>
</g>
<!-- Node16 -->
<g id="node16" class="node">
<title>Node16</title>
<g id="a_node16"><a xlink:href="Widget_8hpp.html" target="_top" xlink:title="Contains jngl::Container class.">
<polygon fill="white" stroke="black" points="379,-168.5 379,-187.5 486,-187.5 486,-168.5 379,-168.5"/>
<text text-anchor="middle" x="432.5" y="-175.5" font-family="'Consolas',monospace" font-size="10.00">jngl/Widget.hpp</text>
</a>
</g>
</g>
<!-- Node1&#45;&gt;Node16 -->
<g id="edge26" class="edge">
<title>Node1&#45;&gt;Node16</title>
<path fill="none" stroke="midnightblue" d="M549.73,-273.82C520.76,-250.39 466.12,-206.19 443.12,-187.59"/>
<polygon fill="midnightblue" stroke="midnightblue" points="547.85,-276.8 557.83,-280.37 552.25,-271.36 547.85,-276.8"/>
</g>
<!-- Node3 -->
<g id="node3" class="node">
<title>Node3</title>
<g id="a_node3"><a xlink:href="all_8hpp.html" target="_top" xlink:title="Includes all JNGL headers except for init.hpp.">
<polygon fill="white" stroke="black" points="426,-56.5 426,-75.5 515,-75.5 515,-56.5 426,-56.5"/>
<text text-anchor="middle" x="470.5" y="-63.5" font-family="'Consolas',monospace" font-size="10.00">jngl/all.hpp</text>
</a>
</g>
</g>
<!-- Node2&#45;&gt;Node3 -->
<g id="edge2" class="edge">
<title>Node2&#45;&gt;Node3</title>
<path fill="none" stroke="midnightblue" d="M176.15,-217.2C152.37,-192.33 113.91,-143.62 141.5,-112 177.89,-70.3 344.76,-65.84 425.92,-66.21"/>
<polygon fill="midnightblue" stroke="midnightblue" points="173.74,-219.74 183.26,-224.39 178.72,-214.82 173.74,-219.74"/>
</g>
<!-- Node2&#45;&gt;Node5 -->
<g id="edge4" class="edge">
<title>Node2&#45;&gt;Node5</title>
<path fill="none" stroke="midnightblue" d="M161.02,-220.77C134.91,-210.63 98.46,-196.47 75.42,-187.52"/>
<polygon fill="midnightblue" stroke="midnightblue" points="159.89,-224.08 170.48,-224.44 162.42,-217.56 159.89,-224.08"/>
</g>
<!-- Node6 -->
<g id="node6" class="node">
<title>Node6</title>
<g id="a_node6"><a xlink:href="text_8hpp.html" target="_top" xlink:title=" ">
<polygon fill="white" stroke="black" points="151,-112.5 151,-131.5 246,-131.5 246,-112.5 151,-112.5"/>
<text text-anchor="middle" x="198.5" y="-119.5" font-family="'Consolas',monospace" font-size="10.00">jngl/text.hpp</text>
</a>
</g>
</g>
<!-- Node2&#45;&gt;Node6 -->
<g id="edge6" class="edge">
<title>Node2&#45;&gt;Node6</title>
<path fill="none" stroke="midnightblue" d="M193.52,-214.35C194.83,-190.25 197.07,-149.31 198.03,-131.59"/>
<polygon fill="midnightblue" stroke="midnightblue" points="190.02,-214.19 192.97,-224.37 197.01,-214.57 190.02,-214.19"/>
</g>
<!-- Node7 -->
<g id="node7" class="node">
<title>Node7</title>
<g id="a_node7"><a xlink:href="TextLine_8hpp.html" target="_top" xlink:title="Contains jngl::TextLine class.">
<polygon fill="white" stroke="black" points="221,-168.5 221,-187.5 340,-187.5 340,-168.5 221,-168.5"/>
<text text-anchor="middle" x="280.5" y="-175.5" font-family="'Consolas',monospace" font-size="10.00">jngl/TextLine.hpp</text>
</a>
</g>
</g>
<!-- Node2&#45;&gt;Node7 -->
<g id="edge8" class="edge">
<title>Node2&#45;&gt;Node7</title>
<path fill="none" stroke="midnightblue" d="M215.48,-218.9C231.61,-209 252.68,-196.07 266.4,-187.65"/>
<polygon fill="midnightblue" stroke="midnightblue" points="213.33,-216.11 206.64,-224.32 216.99,-222.08 213.33,-216.11"/>
</g>
<!-- Node4 -->
<g id="node4" class="node">
<title>Node4</title>
<g id="a_node4"><a xlink:href="jngl_8hpp.html" target="_top" xlink:title="Includes jngl/all.hpp.">
<polygon fill="white" stroke="black" points="438,-0.5 438,-19.5 503,-19.5 503,-0.5 438,-0.5"/>
<text text-anchor="middle" x="470.5" y="-7.5" font-family="'Consolas',monospace" font-size="10.00">jngl.hpp</text>
</a>
</g>
</g>
<!-- Node3&#45;&gt;Node4 -->
<g id="edge3" class="edge">
<title>Node3&#45;&gt;Node4</title>
<path fill="none" stroke="midnightblue" d="M470.5,-45.8C470.5,-36.91 470.5,-26.78 470.5,-19.75"/>
<polygon fill="midnightblue" stroke="midnightblue" points="467,-46.08 470.5,-56.08 474,-46.08 467,-46.08"/>
</g>
<!-- Node5&#45;&gt;Node3 -->
<g id="edge5" class="edge">
<title>Node5&#45;&gt;Node3</title>
<path fill="none" stroke="midnightblue" d="M63.16,-159.49C72.6,-144.22 88.45,-122.85 108.5,-112 162.39,-82.83 341.63,-72.05 425.94,-68.52"/>
<polygon fill="midnightblue" stroke="midnightblue" points="59.93,-158.08 57.91,-168.48 65.98,-161.61 59.93,-158.08"/>
</g>
<!-- Node6&#45;&gt;Node3 -->
<g id="edge7" class="edge">
<title>Node6&#45;&gt;Node3</title>
<path fill="none" stroke="midnightblue" d="M251.52,-110.47C302.93,-100.27 379.94,-84.98 427.6,-75.52"/>
<polygon fill="midnightblue" stroke="midnightblue" points="250.73,-107.06 241.6,-112.44 252.09,-113.93 250.73,-107.06"/>
</g>
<!-- Node7&#45;&gt;Node3 -->
<g id="edge9" class="edge">
<title>Node7&#45;&gt;Node3</title>
<path fill="none" stroke="midnightblue" d="M279.23,-157.82C279.36,-143.4 281.99,-124.12 293.5,-112 311.46,-93.09 379.42,-79.9 425.71,-72.89"/>
<polygon fill="midnightblue" stroke="midnightblue" points="275.74,-158.22 279.55,-168.11 282.74,-158.01 275.74,-158.22"/>
</g>
<!-- Node8 -->
<g id="node8" class="node">
<title>Node8</title>
<g id="a_node8"><a xlink:href="Label_8hpp.html" target="_top" xlink:title="Contains jngl::Label class.">
<polygon fill="white" stroke="black" points="303,-112.5 303,-131.5 404,-131.5 404,-112.5 303,-112.5"/>
<text text-anchor="middle" x="353.5" y="-119.5" font-family="'Consolas',monospace" font-size="10.00">jngl/Label.hpp</text>
</a>
</g>
</g>
<!-- Node7&#45;&gt;Node8 -->
<g id="edge10" class="edge">
<title>Node7&#45;&gt;Node8</title>
<path fill="none" stroke="midnightblue" d="M300.64,-162.1C313.78,-152.38 330.48,-140.03 341.56,-131.83"/>
<polygon fill="midnightblue" stroke="midnightblue" points="298.19,-159.56 292.23,-168.32 302.35,-165.19 298.19,-159.56"/>
</g>
<!-- Node8&#45;&gt;Node3 -->
<g id="edge11" class="edge">
<title>Node8&#45;&gt;Node3</title>
<path fill="none" stroke="midnightblue" d="M381.16,-108.23C403.05,-98.13 433,-84.31 452.05,-75.52"/>
<polygon fill="midnightblue" stroke="midnightblue" points="379.65,-105.08 372.04,-112.44 382.59,-111.43 379.65,-105.08"/>
</g>
<!-- Node9&#45;&gt;Node3 -->
<g id="edge13" class="edge">
<title>Node9&#45;&gt;Node3</title>
<path fill="none" stroke="midnightblue" d="M496.44,-103.86C489.86,-94.5 481.99,-83.33 476.66,-75.75"/>
<polygon fill="midnightblue" stroke="midnightblue" points="493.61,-105.92 502.23,-112.08 499.33,-101.89 493.61,-105.92"/>
</g>
<!-- Node10&#45;&gt;Node3 -->
<g id="edge15" class="edge">
<title>Node10&#45;&gt;Node3</title>
<path fill="none" stroke="midnightblue" d="M602.9,-109.3C571.05,-99.13 525.66,-84.62 497.15,-75.52"/>
<polygon fill="midnightblue" stroke="midnightblue" points="602.13,-112.73 612.72,-112.44 604.26,-106.07 602.13,-112.73"/>
</g>
<!-- Node11&#45;&gt;Node3 -->
<g id="edge17" class="edge">
<title>Node11&#45;&gt;Node3</title>
<path fill="none" stroke="midnightblue" d="M726.64,-158.13C727.17,-143.58 725.29,-123.97 713.5,-112 686.45,-84.52 577.58,-73.45 515.13,-69.29"/>
<polygon fill="midnightblue" stroke="midnightblue" points="723.12,-158.24 725.83,-168.48 730.1,-158.78 723.12,-158.24"/>
</g>
<!-- Node12 -->
<g id="node12" class="node">
<title>Node12</title>
<g id="a_node12"><a xlink:href="Controller_8hpp.html" target="_top" xlink:title="Contains jngl::Controller class.">
<polygon fill="white" stroke="black" points="762,-112.5 762,-131.5 893,-131.5 893,-112.5 762,-112.5"/>
<text text-anchor="middle" x="827.5" y="-119.5" font-family="'Consolas',monospace" font-size="10.00">jngl/Controller.hpp</text>
</a>
</g>
</g>
<!-- Node11&#45;&gt;Node12 -->
<g id="edge18" class="edge">
<title>Node11&#45;&gt;Node12</title>
<path fill="none" stroke="midnightblue" d="M750.08,-163.59C769.12,-153.61 794.56,-140.27 810.99,-131.65"/>
<polygon fill="midnightblue" stroke="midnightblue" points="748.28,-160.58 741.05,-168.32 751.53,-166.78 748.28,-160.58"/>
</g>
<!-- Node12&#45;&gt;Node3 -->
<g id="edge19" class="edge">
<title>Node12&#45;&gt;Node3</title>
<path fill="none" stroke="midnightblue" d="M760.65,-110.89C688.92,-100.04 577.01,-83.11 515.23,-73.77"/>
<polygon fill="midnightblue" stroke="midnightblue" points="760.52,-114.41 770.93,-112.44 761.57,-107.49 760.52,-114.41"/>
</g>
<!-- Node13&#45;&gt;Node3 -->
<g id="edge21" class="edge">
<title>Node13&#45;&gt;Node3</title>
<path fill="none" stroke="midnightblue" d="M862.8,-219.52C875.29,-212.04 888.84,-201.5 896.5,-188 913.2,-158.56 924.16,-137.15 901.5,-112 875.97,-83.67 620.54,-71.99 515.37,-68.35"/>
<polygon fill="midnightblue" stroke="midnightblue" points="861.03,-216.5 853.99,-224.42 864.43,-222.61 861.03,-216.5"/>
</g>
<!-- Node14 -->
<g id="node14" class="node">
<title>Node14</title>
<g id="a_node14"><a xlink:href="init_8hpp.html" target="_top" xlink:title="Include this file only once, as it defines the main function.">
<polygon fill="white" stroke="black" points="793,-168.5 793,-187.5 888,-187.5 888,-168.5 793,-168.5"/>
<text text-anchor="middle" x="840.5" y="-175.5" font-family="'Consolas',monospace" font-size="10.00">jngl/init.hpp</text>
</a>
</g>
</g>
<!-- Node13&#45;&gt;Node14 -->
<g id="edge22" class="edge">
<title>Node13&#45;&gt;Node14</title>
<path fill="none" stroke="midnightblue" d="M836.6,-214.1C837.6,-205.14 838.74,-194.86 839.53,-187.75"/>
<polygon fill="midnightblue" stroke="midnightblue" points="833.12,-213.76 835.49,-224.08 840.07,-214.53 833.12,-213.76"/>
</g>
<!-- Node15&#45;&gt;Node3 -->
<g id="edge24" class="edge">
<title>Node15&#45;&gt;Node3</title>
<path fill="none" stroke="midnightblue" d="M959.57,-214.07C958.56,-186.81 952.29,-137.05 921.5,-112 890.41,-86.7 623.12,-73.17 515.31,-68.7"/>
<polygon fill="midnightblue" stroke="midnightblue" points="956.08,-214.29 959.74,-224.23 963.08,-214.17 956.08,-214.29"/>
</g>
<!-- Node16&#45;&gt;Node3 -->
<g id="edge27" class="edge">
<title>Node16&#45;&gt;Node3</title>
<path fill="none" stroke="midnightblue" d="M437.22,-158.78C440.77,-145.65 445.96,-127.58 451.5,-112 456.11,-99.06 462.49,-84.47 466.56,-75.51"/>
<polygon fill="midnightblue" stroke="midnightblue" points="433.83,-157.92 434.65,-168.49 440.6,-159.71 433.83,-157.92"/>
</g>
<!-- Node16&#45;&gt;Node8 -->
<g id="edge28" class="edge">
<title>Node16&#45;&gt;Node8</title>
<path fill="none" stroke="midnightblue" d="M411.47,-162.62C397.03,-152.76 378.36,-139.99 366.16,-131.65"/>
<polygon fill="midnightblue" stroke="midnightblue" points="409.58,-165.57 419.81,-168.32 413.53,-159.79 409.58,-165.57"/>
</g>
</g>
</svg>
