<?xml version="1.0" encoding="UTF-8" standalone="no"?>
<!DOCTYPE svg PUBLIC "-//W3C//DTD SVG 1.1//EN"
 "http://www.w3.org/Graphics/SVG/1.1/DTD/svg11.dtd">
<!-- Generated by graphviz version 2.42.4 (0)
 -->
<!-- Title: jngl/Vec2.hpp Pages: 1 -->
<svg width="1008pt" height="308pt"
 viewBox="0.00 0.00 1008.21 308.00" xmlns="http://www.w3.org/2000/svg" xmlns:xlink="http://www.w3.org/1999/xlink">
<g id="graph0" class="graph" transform="scale(1 1) rotate(0) translate(4 304)">
<title>jngl/Vec2.hpp</title>
<polygon fill="white" stroke="transparent" points="-4,4 -4,-304 1004.21,-304 1004.21,4 -4,4"/>
<!-- Node1 -->
<g id="node1" class="node">
<title>Node1</title>
<g id="a_node1"><a xlink:title=" ">
<polygon fill="#bfbfbf" stroke="black" points="551.21,-280.5 551.21,-299.5 646.21,-299.5 646.21,-280.5 551.21,-280.5"/>
<text text-anchor="middle" x="598.71" y="-287.5" font-family="'Consolas',monospace" font-size="10.00">jngl/Vec2.hpp</text>
</a>
</g>
</g>
<!-- Node2 -->
<g id="node2" class="node">
<title>Node2</title>
<g id="a_node2"><a xlink:href="Drawable_8hpp.html" target="_top" xlink:title="Contains jngl::Drawable class.">
<polygon fill="white" stroke="black" points="217.21,-224.5 217.21,-243.5 336.21,-243.5 336.21,-224.5 217.21,-224.5"/>
<text text-anchor="middle" x="276.71" y="-231.5" font-family="'Consolas',monospace" font-size="10.00">jngl/Drawable.hpp</text>
</a>
</g>
</g>
<!-- Node1&#45;&gt;Node2 -->
<g id="edge1" class="edge">
<title>Node1&#45;&gt;Node2</title>
<path fill="none" stroke="midnightblue" d="M541.02,-279.32C480.3,-269.14 385.64,-253.27 327.61,-243.54"/>
<polygon fill="midnightblue" stroke="midnightblue" points="540.76,-282.83 551.2,-281.03 541.92,-275.93 540.76,-282.83"/>
</g>
<!-- Node5 -->
<g id="node5" class="node">
<title>Node5</title>
<g id="a_node5"><a xlink:href="sprite_8hpp.html" target="_top" xlink:title="Contains jngl::Sprite class and related functions.">
<polygon fill="white" stroke="black" points="36.21,-168.5 36.21,-187.5 143.21,-187.5 143.21,-168.5 36.21,-168.5"/>
<text text-anchor="middle" x="89.71" y="-175.5" font-family="'Consolas',monospace" font-size="10.00">jngl/sprite.hpp</text>
</a>
</g>
</g>
<!-- Node1&#45;&gt;Node5 -->
<g id="edge27" class="edge">
<title>Node1&#45;&gt;Node5</title>
<path fill="none" stroke="midnightblue" d="M541.08,-289.27C463.5,-288.1 322.03,-280.5 207.71,-244 166.05,-230.7 122.29,-202.15 101.73,-187.72"/>
<polygon fill="midnightblue" stroke="midnightblue" points="541.09,-292.77 551.14,-289.39 541.18,-285.77 541.09,-292.77"/>
</g>
<!-- Node10 -->
<g id="node10" class="node">
<title>Node10</title>
<g id="a_node10"><a xlink:href="font_8hpp.html" target="_top" xlink:title="Contains jngl::Font class and related functions.">
<polygon fill="white" stroke="black" points="506.21,-112.5 506.21,-131.5 601.21,-131.5 601.21,-112.5 506.21,-112.5"/>
<text text-anchor="middle" x="553.71" y="-119.5" font-family="'Consolas',monospace" font-size="10.00">jngl/font.hpp</text>
</a>
</g>
</g>
<!-- Node1&#45;&gt;Node10 -->
<g id="edge14" class="edge">
<title>Node1&#45;&gt;Node10</title>
<path fill="none" stroke="midnightblue" d="M585.84,-272.09C580.32,-264 574.32,-253.93 570.71,-244 556.1,-203.72 553.96,-151.67 553.71,-131.5"/>
<polygon fill="midnightblue" stroke="midnightblue" points="583.04,-274.2 591.72,-280.27 588.73,-270.11 583.04,-274.2"/>
</g>
<!-- Node11 -->
<g id="node11" class="node">
<title>Node11</title>
<g id="a_node11"><a xlink:href="framebuffer_8hpp.html" target="_top" xlink:title="Contains jngl::FrameBuffer class.">
<polygon fill="white" stroke="black" points="580.21,-224.5 580.21,-243.5 711.21,-243.5 711.21,-224.5 580.21,-224.5"/>
<text text-anchor="middle" x="645.71" y="-231.5" font-family="'Consolas',monospace" font-size="10.00">jngl/framebuffer.hpp</text>
</a>
</g>
</g>
<!-- Node1&#45;&gt;Node11 -->
<g id="edge16" class="edge">
<title>Node1&#45;&gt;Node11</title>
<path fill="none" stroke="midnightblue" d="M613.13,-272.43C621.37,-262.97 631.37,-251.48 638.1,-243.75"/>
<polygon fill="midnightblue" stroke="midnightblue" points="610.4,-270.24 606.47,-280.08 615.68,-274.84 610.4,-270.24"/>
</g>
<!-- Node12 -->
<g id="node12" class="node">
<title>Node12</title>
<g id="a_node12"><a xlink:href="input_8hpp.html" target="_top" xlink:title="Input related functions.">
<polygon fill="white" stroke="black" points="663.21,-168.5 663.21,-187.5 764.21,-187.5 764.21,-168.5 663.21,-168.5"/>
<text text-anchor="middle" x="713.71" y="-175.5" font-family="'Consolas',monospace" font-size="10.00">jngl/input.hpp</text>
</a>
</g>
</g>
<!-- Node1&#45;&gt;Node12 -->
<g id="edge18" class="edge">
<title>Node1&#45;&gt;Node12</title>
<path fill="none" stroke="midnightblue" d="M656.35,-282.01C680.04,-275.98 705.27,-264.77 719.71,-244 731.48,-227.06 723.48,-201.36 717.88,-187.91"/>
<polygon fill="midnightblue" stroke="midnightblue" points="655.29,-278.66 646.32,-284.29 656.85,-285.49 655.29,-278.66"/>
</g>
<!-- Node14 -->
<g id="node14" class="node">
<title>Node14</title>
<g id="a_node14"><a xlink:href="screen_8hpp.html" target="_top" xlink:title=" ">
<polygon fill="white" stroke="black" points="768.21,-224.5 768.21,-243.5 875.21,-243.5 875.21,-224.5 768.21,-224.5"/>
<text text-anchor="middle" x="821.71" y="-231.5" font-family="'Consolas',monospace" font-size="10.00">jngl/screen.hpp</text>
</a>
</g>
</g>
<!-- Node1&#45;&gt;Node14 -->
<g id="edge22" class="edge">
<title>Node1&#45;&gt;Node14</title>
<path fill="none" stroke="midnightblue" d="M643.77,-278.09C685.9,-267.89 747.95,-252.86 786.54,-243.52"/>
<polygon fill="midnightblue" stroke="midnightblue" points="642.94,-274.69 634.05,-280.44 644.59,-281.49 642.94,-274.69"/>
</g>
<!-- Node16 -->
<g id="node16" class="node">
<title>Node16</title>
<g id="a_node16"><a xlink:href="shapes_8hpp.html" target="_top" xlink:title="Functions for drawing shapes.">
<polygon fill="white" stroke="black" points="893.21,-224.5 893.21,-243.5 1000.21,-243.5 1000.21,-224.5 893.21,-224.5"/>
<text text-anchor="middle" x="946.71" y="-231.5" font-family="'Consolas',monospace" font-size="10.00">jngl/shapes.hpp</text>
</a>
</g>
</g>
<!-- Node1&#45;&gt;Node16 -->
<g id="edge25" class="edge">
<title>Node1&#45;&gt;Node16</title>
<path fill="none" stroke="midnightblue" d="M656.57,-280.02C722.4,-269.81 829.05,-253.26 893.07,-243.32"/>
<polygon fill="midnightblue" stroke="midnightblue" points="655.72,-276.61 646.37,-281.6 656.79,-283.53 655.72,-276.61"/>
</g>
<!-- Node17 -->
<g id="node17" class="node">
<title>Node17</title>
<g id="a_node17"><a xlink:href="Widget_8hpp_source.html" target="_top" xlink:title=" ">
<polygon fill="white" stroke="black" points="418.21,-168.5 418.21,-187.5 525.21,-187.5 525.21,-168.5 418.21,-168.5"/>
<text text-anchor="middle" x="471.71" y="-175.5" font-family="'Consolas',monospace" font-size="10.00">jngl/Widget.hpp</text>
</a>
</g>
</g>
<!-- Node1&#45;&gt;Node17 -->
<g id="edge28" class="edge">
<title>Node1&#45;&gt;Node17</title>
<path fill="none" stroke="midnightblue" d="M577.23,-274.28C565.27,-265.82 550.31,-254.76 537.71,-244 515.7,-225.2 492.01,-200.7 479.89,-187.82"/>
<polygon fill="midnightblue" stroke="midnightblue" points="575.49,-277.34 585.69,-280.2 579.5,-271.6 575.49,-277.34"/>
</g>
<!-- Node3 -->
<g id="node3" class="node">
<title>Node3</title>
<g id="a_node3"><a xlink:href="all_8hpp.html" target="_top" xlink:title="Includes all JNGL headers except for init.hpp.">
<polygon fill="white" stroke="black" points="433.21,-56.5 433.21,-75.5 522.21,-75.5 522.21,-56.5 433.21,-56.5"/>
<text text-anchor="middle" x="477.71" y="-63.5" font-family="'Consolas',monospace" font-size="10.00">jngl/all.hpp</text>
</a>
</g>
</g>
<!-- Node2&#45;&gt;Node3 -->
<g id="edge2" class="edge">
<title>Node2&#45;&gt;Node3</title>
<path fill="none" stroke="midnightblue" d="M279.31,-214.15C284.11,-186.99 297.06,-137.35 329.71,-112 359.62,-88.78 401.48,-77.49 433.05,-72.03"/>
<polygon fill="midnightblue" stroke="midnightblue" points="275.81,-213.85 277.72,-224.27 282.73,-214.94 275.81,-213.85"/>
</g>
<!-- Node2&#45;&gt;Node5 -->
<g id="edge4" class="edge">
<title>Node2&#45;&gt;Node5</title>
<path fill="none" stroke="midnightblue" d="M237.12,-221.57C201.85,-211.38 151.02,-196.7 119.2,-187.52"/>
<polygon fill="midnightblue" stroke="midnightblue" points="236.5,-225.03 247.08,-224.44 238.44,-218.31 236.5,-225.03"/>
</g>
<!-- Node7 -->
<g id="node7" class="node">
<title>Node7</title>
<g id="a_node7"><a xlink:href="text_8hpp.html" target="_top" xlink:title=" ">
<polygon fill="white" stroke="black" points="305.21,-168.5 305.21,-187.5 400.21,-187.5 400.21,-168.5 305.21,-168.5"/>
<text text-anchor="middle" x="352.71" y="-175.5" font-family="'Consolas',monospace" font-size="10.00">jngl/text.hpp</text>
</a>
</g>
</g>
<!-- Node2&#45;&gt;Node7 -->
<g id="edge8" class="edge">
<title>Node2&#45;&gt;Node7</title>
<path fill="none" stroke="midnightblue" d="M297.29,-218.38C311.02,-208.62 328.64,-196.11 340.28,-187.83"/>
<polygon fill="midnightblue" stroke="midnightblue" points="295.05,-215.68 288.92,-224.32 299.1,-221.38 295.05,-215.68"/>
</g>
<!-- Node9 -->
<g id="node9" class="node">
<title>Node9</title>
<g id="a_node9"><a xlink:href="TextLine_8hpp.html" target="_top" xlink:title="Contains jngl::TextLine class.">
<polygon fill="white" stroke="black" points="134.21,-112.5 134.21,-131.5 253.21,-131.5 253.21,-112.5 134.21,-112.5"/>
<text text-anchor="middle" x="193.71" y="-119.5" font-family="'Consolas',monospace" font-size="10.00">jngl/TextLine.hpp</text>
</a>
</g>
</g>
<!-- Node2&#45;&gt;Node9 -->
<g id="edge12" class="edge">
<title>Node2&#45;&gt;Node9</title>
<path fill="none" stroke="midnightblue" d="M264.09,-216.27C246.15,-192.49 213.93,-149.79 200.19,-131.59"/>
<polygon fill="midnightblue" stroke="midnightblue" points="261.38,-218.49 270.2,-224.37 266.97,-214.28 261.38,-218.49"/>
</g>
<!-- Node4 -->
<g id="node4" class="node">
<title>Node4</title>
<g id="a_node4"><a xlink:href="jngl_8hpp.html" target="_top" xlink:title="Includes jngl/all.hpp.">
<polygon fill="white" stroke="black" points="445.21,-0.5 445.21,-19.5 510.21,-19.5 510.21,-0.5 445.21,-0.5"/>
<text text-anchor="middle" x="477.71" y="-7.5" font-family="'Consolas',monospace" font-size="10.00">jngl.hpp</text>
</a>
</g>
</g>
<!-- Node3&#45;&gt;Node4 -->
<g id="edge3" class="edge">
<title>Node3&#45;&gt;Node4</title>
<path fill="none" stroke="midnightblue" d="M477.71,-45.8C477.71,-36.91 477.71,-26.78 477.71,-19.75"/>
<polygon fill="midnightblue" stroke="midnightblue" points="474.21,-46.08 477.71,-56.08 481.21,-46.08 474.21,-46.08"/>
</g>
<!-- Node5&#45;&gt;Node3 -->
<g id="edge5" class="edge">
<title>Node5&#45;&gt;Node3</title>
<path fill="none" stroke="midnightblue" d="M52.74,-164.86C22.04,-152.9 -13.71,-133.36 5.71,-112 34.16,-80.71 321.08,-70.66 433.18,-67.91"/>
<polygon fill="midnightblue" stroke="midnightblue" points="51.86,-168.27 62.46,-168.47 54.3,-161.71 51.86,-168.27"/>
</g>
<!-- Node6 -->
<g id="node6" class="node">
<title>Node6</title>
<g id="a_node6"><a xlink:href="Video_8hpp.html" target="_top" xlink:title=" ">
<polygon fill="white" stroke="black" points="15.21,-112.5 15.21,-131.5 116.21,-131.5 116.21,-112.5 15.21,-112.5"/>
<text text-anchor="middle" x="65.71" y="-119.5" font-family="'Consolas',monospace" font-size="10.00">jngl/Video.hpp</text>
</a>
</g>
</g>
<!-- Node5&#45;&gt;Node6 -->
<g id="edge6" class="edge">
<title>Node5&#45;&gt;Node6</title>
<path fill="none" stroke="midnightblue" d="M81.57,-158.69C77.53,-149.59 72.83,-139.01 69.6,-131.75"/>
<polygon fill="midnightblue" stroke="midnightblue" points="78.49,-160.37 85.75,-168.08 84.89,-157.52 78.49,-160.37"/>
</g>
<!-- Node6&#45;&gt;Node3 -->
<g id="edge7" class="edge">
<title>Node6&#45;&gt;Node3</title>
<path fill="none" stroke="midnightblue" d="M126.39,-111.79C242.8,-95.59 367.96,-80.19 433.09,-72.33"/>
<polygon fill="midnightblue" stroke="midnightblue" points="125.65,-108.36 116.23,-113.21 126.62,-115.29 125.65,-108.36"/>
</g>
<!-- Node7&#45;&gt;Node3 -->
<g id="edge9" class="edge">
<title>Node7&#45;&gt;Node3</title>
<path fill="none" stroke="midnightblue" d="M341.75,-158.99C334.78,-144.97 328.77,-125.67 338.71,-112 360.12,-82.56 401.21,-71.99 433.18,-68.38"/>
<polygon fill="midnightblue" stroke="midnightblue" points="338.89,-161.04 346.78,-168.11 345.02,-157.66 338.89,-161.04"/>
</g>
<!-- Node8 -->
<g id="node8" class="node">
<title>Node8</title>
<g id="a_node8"><a xlink:href="Label_8hpp_source.html" target="_top" xlink:title=" ">
<polygon fill="white" stroke="black" points="348.21,-112.5 348.21,-131.5 449.21,-131.5 449.21,-112.5 348.21,-112.5"/>
<text text-anchor="middle" x="398.71" y="-119.5" font-family="'Consolas',monospace" font-size="10.00">jngl/Label.hpp</text>
</a>
</g>
</g>
<!-- Node7&#45;&gt;Node8 -->
<g id="edge10" class="edge">
<title>Node7&#45;&gt;Node8</title>
<path fill="none" stroke="midnightblue" d="M366.83,-160.43C374.89,-150.97 384.67,-139.48 391.26,-131.75"/>
<polygon fill="midnightblue" stroke="midnightblue" points="364.13,-158.2 360.31,-168.08 369.46,-162.74 364.13,-158.2"/>
</g>
<!-- Node8&#45;&gt;Node3 -->
<g id="edge11" class="edge">
<title>Node8&#45;&gt;Node3</title>
<path fill="none" stroke="midnightblue" d="M419.75,-106.62C434.18,-96.76 452.85,-83.99 465.05,-75.65"/>
<polygon fill="midnightblue" stroke="midnightblue" points="417.69,-103.79 411.4,-112.32 421.64,-109.57 417.69,-103.79"/>
</g>
<!-- Node9&#45;&gt;Node3 -->
<g id="edge13" class="edge">
<title>Node9&#45;&gt;Node3</title>
<path fill="none" stroke="midnightblue" d="M248.74,-110.54C302.41,-100.33 383.05,-85 432.92,-75.52"/>
<polygon fill="midnightblue" stroke="midnightblue" points="247.88,-107.14 238.71,-112.44 249.19,-114.01 247.88,-107.14"/>
</g>
<!-- Node10&#45;&gt;Node3 -->
<g id="edge15" class="edge">
<title>Node10&#45;&gt;Node3</title>
<path fill="none" stroke="midnightblue" d="M533.14,-106.38C519.4,-96.62 501.79,-84.11 490.14,-75.83"/>
<polygon fill="midnightblue" stroke="midnightblue" points="531.32,-109.38 541.5,-112.32 535.38,-103.68 531.32,-109.38"/>
</g>
<!-- Node11&#45;&gt;Node3 -->
<g id="edge17" class="edge">
<title>Node11&#45;&gt;Node3</title>
<path fill="none" stroke="midnightblue" d="M645.27,-214.23C643.64,-187.94 636.84,-140.21 609.71,-112 586.89,-88.26 551.06,-77.05 522.49,-71.75"/>
<polygon fill="midnightblue" stroke="midnightblue" points="641.78,-214.52 645.7,-224.36 648.77,-214.22 641.78,-214.52"/>
</g>
<!-- Node12&#45;&gt;Node3 -->
<g id="edge19" class="edge">
<title>Node12&#45;&gt;Node3</title>
<path fill="none" stroke="midnightblue" d="M750.99,-164.85C781.42,-153.01 816.54,-133.66 797.71,-112 762.56,-71.56 601.73,-66.42 522.33,-66.41"/>
<polygon fill="midnightblue" stroke="midnightblue" points="749.51,-161.67 741.35,-168.43 751.95,-168.23 749.51,-161.67"/>
</g>
<!-- Node13 -->
<g id="node13" class="node">
<title>Node13</title>
<g id="a_node13"><a xlink:href="Controller_8hpp.html" target="_top" xlink:title=" ">
<polygon fill="white" stroke="black" points="658.21,-112.5 658.21,-131.5 789.21,-131.5 789.21,-112.5 658.21,-112.5"/>
<text text-anchor="middle" x="723.71" y="-119.5" font-family="'Consolas',monospace" font-size="10.00">jngl/Controller.hpp</text>
</a>
</g>
</g>
<!-- Node12&#45;&gt;Node13 -->
<g id="edge20" class="edge">
<title>Node12&#45;&gt;Node13</title>
<path fill="none" stroke="midnightblue" d="M717.21,-158.1C718.87,-149.14 720.78,-138.86 722.09,-131.75"/>
<polygon fill="midnightblue" stroke="midnightblue" points="713.74,-157.61 715.36,-168.08 720.63,-158.89 713.74,-157.61"/>
</g>
<!-- Node13&#45;&gt;Node3 -->
<g id="edge21" class="edge">
<title>Node13&#45;&gt;Node3</title>
<path fill="none" stroke="midnightblue" d="M674.88,-110.28C628.4,-100.08 559.35,-84.92 516.51,-75.52"/>
<polygon fill="midnightblue" stroke="midnightblue" points="674.21,-113.72 684.73,-112.44 675.72,-106.88 674.21,-113.72"/>
</g>
<!-- Node14&#45;&gt;Node3 -->
<g id="edge23" class="edge">
<title>Node14&#45;&gt;Node3</title>
<path fill="none" stroke="midnightblue" d="M851.03,-219.7C872.44,-207.92 896.05,-189.32 885.71,-168 868.18,-131.84 851.72,-127.66 814.71,-112 762.93,-90.09 601.6,-75.87 522.44,-70.03"/>
<polygon fill="midnightblue" stroke="midnightblue" points="849.38,-216.62 842.1,-224.32 852.59,-222.84 849.38,-216.62"/>
</g>
<!-- Node15 -->
<g id="node15" class="node">
<title>Node15</title>
<g id="a_node15"><a xlink:href="init_8hpp.html" target="_top" xlink:title="Include this file only once, as it defines the main function.">
<polygon fill="white" stroke="black" points="782.21,-168.5 782.21,-187.5 877.21,-187.5 877.21,-168.5 782.21,-168.5"/>
<text text-anchor="middle" x="829.71" y="-175.5" font-family="'Consolas',monospace" font-size="10.00">jngl/init.hpp</text>
</a>
</g>
</g>
<!-- Node14&#45;&gt;Node15 -->
<g id="edge24" class="edge">
<title>Node14&#45;&gt;Node15</title>
<path fill="none" stroke="midnightblue" d="M824.51,-214.1C825.84,-205.14 827.36,-194.86 828.42,-187.75"/>
<polygon fill="midnightblue" stroke="midnightblue" points="821.04,-213.68 823.03,-224.08 827.96,-214.7 821.04,-213.68"/>
</g>
<!-- Node16&#45;&gt;Node3 -->
<g id="edge26" class="edge">
<title>Node16&#45;&gt;Node3</title>
<path fill="none" stroke="midnightblue" d="M938.38,-214.8C924.5,-186.91 893.74,-134.44 849.71,-112 793.42,-83.31 608.37,-72.25 522.38,-68.58"/>
<polygon fill="midnightblue" stroke="midnightblue" points="935.39,-216.67 942.87,-224.18 941.71,-213.65 935.39,-216.67"/>
</g>
<!-- Node17&#45;&gt;Node3 -->
<g id="edge29" class="edge">
<title>Node17&#45;&gt;Node3</title>
<path fill="none" stroke="midnightblue" d="M472.73,-158.35C474.04,-134.25 476.28,-93.31 477.24,-75.59"/>
<polygon fill="midnightblue" stroke="midnightblue" points="469.23,-158.19 472.18,-168.37 476.22,-158.57 469.23,-158.19"/>
</g>
<!-- Node17&#45;&gt;Node8 -->
<g id="edge30" class="edge">
<title>Node17&#45;&gt;Node8</title>
<path fill="none" stroke="midnightblue" d="M451.57,-162.1C438.43,-152.38 421.73,-140.03 410.65,-131.83"/>
<polygon fill="midnightblue" stroke="midnightblue" points="449.86,-165.19 459.98,-168.32 454.03,-159.56 449.86,-165.19"/>
</g>
</g>
</svg>
