<?xml version="1.0" encoding="UTF-8" standalone="no"?>
<!DOCTYPE svg PUBLIC "-//W3C//DTD SVG 1.1//EN"
 "http://www.w3.org/Graphics/SVG/1.1/DTD/svg11.dtd">
<!-- Generated by graphviz version 2.38.0 (20140413.2041)
 -->
<!-- Title: jngl/Vec2.hpp Pages: 1 -->
<svg width="660pt" height="252pt"
 viewBox="0.00 0.00 660.00 252.00" xmlns="http://www.w3.org/2000/svg" xmlns:xlink="http://www.w3.org/1999/xlink">
<g id="graph0" class="graph" transform="scale(1 1) rotate(0) translate(4 248)">
<title>jngl/Vec2.hpp</title>
<polygon fill="white" stroke="none" points="-4,4 -4,-248 656,-248 656,4 -4,4"/>
<!-- Node1 -->
<g id="node1" class="node"><title>Node1</title>
<polygon fill="#bfbfbf" stroke="black" points="260,-224.5 260,-243.5 355,-243.5 355,-224.5 260,-224.5"/>
<text text-anchor="middle" x="307.5" y="-231.5" font-family="'Consolas',monospace" font-size="10.00">jngl/Vec2.hpp</text>
</g>
<!-- Node2 -->
<g id="node2" class="node"><title>Node2</title>
<g id="a_node2"><a xlink:href="Vertex_8hpp_source.html" target="_top" xlink:title="jngl/Vertex.hpp">
<polygon fill="white" stroke="black" points="0,-112.5 0,-131.5 107,-131.5 107,-112.5 0,-112.5"/>
<text text-anchor="middle" x="53.5" y="-119.5" font-family="'Consolas',monospace" font-size="10.00">jngl/Vertex.hpp</text>
</a>
</g>
</g>
<!-- Node1&#45;&gt;Node2 -->
<g id="edge1" class="edge"><title>Node1&#45;&gt;Node2</title>
<path fill="none" stroke="midnightblue" d="M249.797,-225.723C213.191,-219.416 165.703,-208.028 127.5,-188 99.331,-173.232 73.031,-145.611 60.7543,-131.61"/>
<polygon fill="midnightblue" stroke="midnightblue" points="249.381,-229.202 259.816,-227.37 250.516,-222.294 249.381,-229.202"/>
</g>
<!-- Node5 -->
<g id="node5" class="node"><title>Node5</title>
<g id="a_node5"><a xlink:href="input_8hpp.html" target="_top" xlink:title="jngl/input.hpp">
<polygon fill="white" stroke="black" points="137,-168.5 137,-187.5 238,-187.5 238,-168.5 137,-168.5"/>
<text text-anchor="middle" x="187.5" y="-175.5" font-family="'Consolas',monospace" font-size="10.00">jngl/input.hpp</text>
</a>
</g>
</g>
<!-- Node1&#45;&gt;Node5 -->
<g id="edge4" class="edge"><title>Node1&#45;&gt;Node5</title>
<path fill="none" stroke="midnightblue" d="M279.127,-220.232C256.68,-210.131 225.965,-196.309 206.425,-187.516"/>
<polygon fill="midnightblue" stroke="midnightblue" points="277.93,-223.532 288.486,-224.444 280.803,-217.148 277.93,-223.532"/>
</g>
<!-- Node7 -->
<g id="node7" class="node"><title>Node7</title>
<g id="a_node7"><a xlink:href="font_8hpp.html" target="_top" xlink:title="jngl/font.hpp">
<polygon fill="white" stroke="black" points="313,-112.5 313,-131.5 408,-131.5 408,-112.5 313,-112.5"/>
<text text-anchor="middle" x="360.5" y="-119.5" font-family="'Consolas',monospace" font-size="10.00">jngl/font.hpp</text>
</a>
</g>
</g>
<!-- Node1&#45;&gt;Node7 -->
<g id="edge8" class="edge"><title>Node1&#45;&gt;Node7</title>
<path fill="none" stroke="midnightblue" d="M294.103,-215.764C285.32,-202.214 276.915,-183.162 285.5,-168 295.675,-150.029 316.206,-138.452 333.218,-131.547"/>
<polygon fill="midnightblue" stroke="midnightblue" points="291.406,-218.01 300.041,-224.149 297.118,-213.965 291.406,-218.01"/>
</g>
<!-- Node8 -->
<g id="node8" class="node"><title>Node8</title>
<g id="a_node8"><a xlink:href="screen_8hpp.html" target="_top" xlink:title="jngl/screen.hpp">
<polygon fill="white" stroke="black" points="295,-168.5 295,-187.5 402,-187.5 402,-168.5 295,-168.5"/>
<text text-anchor="middle" x="348.5" y="-175.5" font-family="'Consolas',monospace" font-size="10.00">jngl/screen.hpp</text>
</a>
</g>
</g>
<!-- Node1&#45;&gt;Node8 -->
<g id="edge10" class="edge"><title>Node1&#45;&gt;Node8</title>
<path fill="none" stroke="midnightblue" d="M320.517,-215.855C327.617,-206.505 336.104,-195.327 341.856,-187.751"/>
<polygon fill="midnightblue" stroke="midnightblue" points="317.53,-214.002 314.27,-224.083 323.105,-218.235 317.53,-214.002"/>
</g>
<!-- Node9 -->
<g id="node9" class="node"><title>Node9</title>
<g id="a_node9"><a xlink:href="shapes_8hpp.html" target="_top" xlink:title="jngl/shapes.hpp">
<polygon fill="white" stroke="black" points="420,-168.5 420,-187.5 527,-187.5 527,-168.5 420,-168.5"/>
<text text-anchor="middle" x="473.5" y="-175.5" font-family="'Consolas',monospace" font-size="10.00">jngl/shapes.hpp</text>
</a>
</g>
</g>
<!-- Node1&#45;&gt;Node9 -->
<g id="edge12" class="edge"><title>Node1&#45;&gt;Node9</title>
<path fill="none" stroke="midnightblue" d="M343.453,-221.304C374.732,-211.129 419.321,-196.625 447.32,-187.516"/>
<polygon fill="midnightblue" stroke="midnightblue" points="342.23,-218.022 333.803,-224.444 344.395,-224.678 342.23,-218.022"/>
</g>
<!-- Node10 -->
<g id="node10" class="node"><title>Node10</title>
<g id="a_node10"><a xlink:href="sprite_8hpp_source.html" target="_top" xlink:title="jngl/sprite.hpp">
<polygon fill="white" stroke="black" points="545,-168.5 545,-187.5 652,-187.5 652,-168.5 545,-168.5"/>
<text text-anchor="middle" x="598.5" y="-175.5" font-family="'Consolas',monospace" font-size="10.00">jngl/sprite.hpp</text>
</a>
</g>
</g>
<!-- Node1&#45;&gt;Node10 -->
<g id="edge14" class="edge"><title>Node1&#45;&gt;Node10</title>
<path fill="none" stroke="midnightblue" d="M363.541,-222.601C418.536,-212.395 501.398,-197.019 552.606,-187.516"/>
<polygon fill="midnightblue" stroke="midnightblue" points="362.803,-219.178 353.61,-224.444 364.081,-226.06 362.803,-219.178"/>
</g>
<!-- Node3 -->
<g id="node3" class="node"><title>Node3</title>
<g id="a_node3"><a xlink:href="all_8hpp.html" target="_top" xlink:title="Includes all JNGL headers. ">
<polygon fill="white" stroke="black" points="354,-56.5 354,-75.5 443,-75.5 443,-56.5 354,-56.5"/>
<text text-anchor="middle" x="398.5" y="-63.5" font-family="'Consolas',monospace" font-size="10.00">jngl/all.hpp</text>
</a>
</g>
</g>
<!-- Node2&#45;&gt;Node3 -->
<g id="edge2" class="edge"><title>Node2&#45;&gt;Node3</title>
<path fill="none" stroke="midnightblue" d="M117.298,-111.014C186.057,-100.252 293.704,-83.4028 353.91,-73.9793"/>
<polygon fill="midnightblue" stroke="midnightblue" points="116.366,-107.617 107.028,-112.622 117.449,-114.533 116.366,-107.617"/>
</g>
<!-- Node4 -->
<g id="node4" class="node"><title>Node4</title>
<g id="a_node4"><a xlink:href="jngl_8hpp_source.html" target="_top" xlink:title="jngl.hpp">
<polygon fill="white" stroke="black" points="366,-0.5 366,-19.5 431,-19.5 431,-0.5 366,-0.5"/>
<text text-anchor="middle" x="398.5" y="-7.5" font-family="'Consolas',monospace" font-size="10.00">jngl.hpp</text>
</a>
</g>
</g>
<!-- Node3&#45;&gt;Node4 -->
<g id="edge3" class="edge"><title>Node3&#45;&gt;Node4</title>
<path fill="none" stroke="midnightblue" d="M398.5,-45.8045C398.5,-36.9102 398.5,-26.7798 398.5,-19.7511"/>
<polygon fill="midnightblue" stroke="midnightblue" points="395,-46.083 398.5,-56.083 402,-46.083 395,-46.083"/>
</g>
<!-- Node5&#45;&gt;Node3 -->
<g id="edge7" class="edge"><title>Node5&#45;&gt;Node3</title>
<path fill="none" stroke="midnightblue" d="M169.904,-161.281C156.424,-147.342 142.066,-126.937 154.5,-112 179.372,-82.1218 290.471,-72.0054 353.84,-68.6371"/>
<polygon fill="midnightblue" stroke="midnightblue" points="167.512,-163.836 177.128,-168.284 172.384,-158.81 167.512,-163.836"/>
</g>
<!-- Node6 -->
<g id="node6" class="node"><title>Node6</title>
<g id="a_node6"><a xlink:href="Controller_8hpp_source.html" target="_top" xlink:title="jngl/Controller.hpp">
<polygon fill="white" stroke="black" points="164,-112.5 164,-131.5 295,-131.5 295,-112.5 164,-112.5"/>
<text text-anchor="middle" x="229.5" y="-119.5" font-family="'Consolas',monospace" font-size="10.00">jngl/Controller.hpp</text>
</a>
</g>
</g>
<!-- Node5&#45;&gt;Node6 -->
<g id="edge5" class="edge"><title>Node5&#45;&gt;Node6</title>
<path fill="none" stroke="midnightblue" d="M200.61,-160.144C207.928,-150.736 216.741,-139.405 222.694,-131.751"/>
<polygon fill="midnightblue" stroke="midnightblue" points="197.812,-158.041 194.435,-168.083 203.338,-162.338 197.812,-158.041"/>
</g>
<!-- Node6&#45;&gt;Node3 -->
<g id="edge6" class="edge"><title>Node6&#45;&gt;Node3</title>
<path fill="none" stroke="midnightblue" d="M266.103,-109.304C297.947,-99.1294 343.342,-84.6246 371.847,-75.5164"/>
<polygon fill="midnightblue" stroke="midnightblue" points="264.739,-106.066 256.279,-112.444 266.869,-112.734 264.739,-106.066"/>
</g>
<!-- Node7&#45;&gt;Node3 -->
<g id="edge9" class="edge"><title>Node7&#45;&gt;Node3</title>
<path fill="none" stroke="midnightblue" d="M372.565,-103.855C379.145,-94.5048 387.011,-83.3265 392.342,-75.7511"/>
<polygon fill="midnightblue" stroke="midnightblue" points="369.668,-101.891 366.775,-112.083 375.392,-105.919 369.668,-101.891"/>
</g>
<!-- Node8&#45;&gt;Node3 -->
<g id="edge11" class="edge"><title>Node8&#45;&gt;Node3</title>
<path fill="none" stroke="midnightblue" d="M381.094,-163.897C394.603,-156.648 408.878,-146.185 416.5,-132 426.477,-113.434 413.525,-88.8414 404.955,-75.8759"/>
<polygon fill="midnightblue" stroke="midnightblue" points="379.372,-160.844 371.954,-168.408 382.47,-167.121 379.372,-160.844"/>
</g>
<!-- Node9&#45;&gt;Node3 -->
<g id="edge13" class="edge"><title>Node9&#45;&gt;Node3</title>
<path fill="none" stroke="midnightblue" d="M463.239,-159.869C455.169,-146.613 443.49,-127.896 432.5,-112 423.591,-99.1131 412.537,-84.7567 405.499,-75.8016"/>
<polygon fill="midnightblue" stroke="midnightblue" points="460.249,-161.689 468.416,-168.438 466.241,-158.069 460.249,-161.689"/>
</g>
<!-- Node10&#45;&gt;Node3 -->
<g id="edge15" class="edge"><title>Node10&#45;&gt;Node3</title>
<path fill="none" stroke="midnightblue" d="M573.857,-163.446C532.131,-140.497 448.738,-94.6307 414.121,-75.5914"/>
<polygon fill="midnightblue" stroke="midnightblue" points="572.357,-166.616 582.806,-168.368 575.731,-160.482 572.357,-166.616"/>
</g>
<!-- Node11 -->
<g id="node11" class="node"><title>Node11</title>
<g id="a_node11"><a xlink:href="Video_8hpp_source.html" target="_top" xlink:title="jngl/Video.hpp">
<polygon fill="white" stroke="black" points="547,-112.5 547,-131.5 648,-131.5 648,-112.5 547,-112.5"/>
<text text-anchor="middle" x="597.5" y="-119.5" font-family="'Consolas',monospace" font-size="10.00">jngl/Video.hpp</text>
</a>
</g>
</g>
<!-- Node10&#45;&gt;Node11 -->
<g id="edge16" class="edge"><title>Node10&#45;&gt;Node11</title>
<path fill="none" stroke="midnightblue" d="M598.145,-157.805C597.98,-148.91 597.792,-138.78 597.662,-131.751"/>
<polygon fill="midnightblue" stroke="midnightblue" points="594.65,-158.15 598.335,-168.083 601.649,-158.02 594.65,-158.15"/>
</g>
<!-- Node11&#45;&gt;Node3 -->
<g id="edge17" class="edge"><title>Node11&#45;&gt;Node3</title>
<path fill="none" stroke="midnightblue" d="M555.852,-109.699C518.294,-99.507 463.886,-84.7429 429.885,-75.5164"/>
<polygon fill="midnightblue" stroke="midnightblue" points="555.4,-113.202 565.968,-112.444 557.233,-106.447 555.4,-113.202"/>
</g>
</g>
</svg>
