<?xml version="1.0" encoding="UTF-8" standalone="no"?>
<!DOCTYPE svg PUBLIC "-//W3C//DTD SVG 1.1//EN"
 "http://www.w3.org/Graphics/SVG/1.1/DTD/svg11.dtd">
<!-- Generated by graphviz version 2.38.0 (20140413.2041)
 -->
<!-- Title: jngl/Vec2.hpp Pages: 1 -->
<svg width="566pt" height="252pt"
 viewBox="0.00 0.00 566.00 252.00" xmlns="http://www.w3.org/2000/svg" xmlns:xlink="http://www.w3.org/1999/xlink">
<g id="graph0" class="graph" transform="scale(1 1) rotate(0) translate(4 248)">
<title>jngl/Vec2.hpp</title>
<polygon fill="white" stroke="none" points="-4,4 -4,-248 562,-248 562,4 -4,4"/>
<!-- Node1 -->
<g id="node1" class="node"><title>Node1</title>
<polygon fill="#bfbfbf" stroke="black" points="223,-224.5 223,-243.5 303,-243.5 303,-224.5 223,-224.5"/>
<text text-anchor="middle" x="263" y="-231.5" font-family="Lato" font-size="10.00">jngl/Vec2.hpp</text>
</g>
<!-- Node2 -->
<g id="node2" class="node"><title>Node2</title>
<g id="a_node2"><a xlink:href="Vertex_8hpp_source.html" target="_top" xlink:title="jngl/Vertex.hpp">
<polygon fill="white" stroke="black" points="0,-112.5 0,-131.5 88,-131.5 88,-112.5 0,-112.5"/>
<text text-anchor="middle" x="44" y="-119.5" font-family="Lato" font-size="10.00">jngl/Vertex.hpp</text>
</a>
</g>
</g>
<!-- Node1&#45;&gt;Node2 -->
<g id="edge1" class="edge"><title>Node1&#45;&gt;Node2</title>
<path fill="none" stroke="midnightblue" d="M212.915,-225.186C181.202,-218.663 140.246,-207.235 108,-188 82.7026,-172.91 60.3803,-145.434 50.0643,-131.537"/>
<polygon fill="midnightblue" stroke="midnightblue" points="212.377,-228.648 222.863,-227.136 213.723,-221.778 212.377,-228.648"/>
</g>
<!-- Node5 -->
<g id="node5" class="node"><title>Node5</title>
<g id="a_node5"><a xlink:href="input_8hpp.html" target="_top" xlink:title="jngl/input.hpp">
<polygon fill="white" stroke="black" points="117.5,-168.5 117.5,-187.5 198.5,-187.5 198.5,-168.5 117.5,-168.5"/>
<text text-anchor="middle" x="158" y="-175.5" font-family="Lato" font-size="10.00">jngl/input.hpp</text>
</a>
</g>
</g>
<!-- Node1&#45;&gt;Node5 -->
<g id="edge4" class="edge"><title>Node1&#45;&gt;Node5</title>
<path fill="none" stroke="midnightblue" d="M237.19,-219.726C217.747,-209.727 191.652,-196.307 174.828,-187.655"/>
<polygon fill="midnightblue" stroke="midnightblue" points="235.636,-222.863 246.13,-224.324 238.838,-216.638 235.636,-222.863"/>
</g>
<!-- Node7 -->
<g id="node7" class="node"><title>Node7</title>
<g id="a_node7"><a xlink:href="font_8hpp.html" target="_top" xlink:title="jngl/font.hpp">
<polygon fill="white" stroke="black" points="266,-112.5 266,-131.5 342,-131.5 342,-112.5 266,-112.5"/>
<text text-anchor="middle" x="304" y="-119.5" font-family="Lato" font-size="10.00">jngl/font.hpp</text>
</a>
</g>
</g>
<!-- Node1&#45;&gt;Node7 -->
<g id="edge8" class="edge"><title>Node1&#45;&gt;Node7</title>
<path fill="none" stroke="midnightblue" d="M251.965,-215.46C244.988,-201.984 238.568,-183.173 246,-168 254.185,-151.29 271.899,-139.003 285.611,-131.529"/>
<polygon fill="midnightblue" stroke="midnightblue" points="248.956,-217.25 256.953,-224.201 255.036,-213.781 248.956,-217.25"/>
</g>
<!-- Node8 -->
<g id="node8" class="node"><title>Node8</title>
<g id="a_node8"><a xlink:href="screen_8hpp.html" target="_top" xlink:title="jngl/screen.hpp">
<polygon fill="white" stroke="black" points="255.5,-168.5 255.5,-187.5 344.5,-187.5 344.5,-168.5 255.5,-168.5"/>
<text text-anchor="middle" x="300" y="-175.5" font-family="Lato" font-size="10.00">jngl/screen.hpp</text>
</a>
</g>
</g>
<!-- Node1&#45;&gt;Node8 -->
<g id="edge10" class="edge"><title>Node1&#45;&gt;Node8</title>
<path fill="none" stroke="midnightblue" d="M274.946,-215.566C281.312,-206.275 288.867,-195.248 294.004,-187.751"/>
<polygon fill="midnightblue" stroke="midnightblue" points="271.875,-213.855 269.11,-224.083 277.649,-217.812 271.875,-213.855"/>
</g>
<!-- Node9 -->
<g id="node9" class="node"><title>Node9</title>
<g id="a_node9"><a xlink:href="shapes_8hpp_source.html" target="_top" xlink:title="jngl/shapes.hpp">
<polygon fill="white" stroke="black" points="363,-168.5 363,-187.5 455,-187.5 455,-168.5 363,-168.5"/>
<text text-anchor="middle" x="409" y="-175.5" font-family="Lato" font-size="10.00">jngl/shapes.hpp</text>
</a>
</g>
</g>
<!-- Node1&#45;&gt;Node9 -->
<g id="edge12" class="edge"><title>Node1&#45;&gt;Node9</title>
<path fill="none" stroke="midnightblue" d="M295.699,-220.906C323.148,-210.754 361.668,-196.506 385.974,-187.516"/>
<polygon fill="midnightblue" stroke="midnightblue" points="294.299,-217.692 286.134,-224.444 296.727,-224.257 294.299,-217.692"/>
</g>
<!-- Node10 -->
<g id="node10" class="node"><title>Node10</title>
<g id="a_node10"><a xlink:href="sprite_8hpp_source.html" target="_top" xlink:title="jngl/sprite.hpp">
<polygon fill="white" stroke="black" points="473,-168.5 473,-187.5 557,-187.5 557,-168.5 473,-168.5"/>
<text text-anchor="middle" x="515" y="-175.5" font-family="Lato" font-size="10.00">jngl/sprite.hpp</text>
</a>
</g>
</g>
<!-- Node1&#45;&gt;Node10 -->
<g id="edge14" class="edge"><title>Node1&#45;&gt;Node10</title>
<path fill="none" stroke="midnightblue" d="M312.721,-222.346C360.344,-212.141 431.28,-196.94 475.257,-187.516"/>
<polygon fill="midnightblue" stroke="midnightblue" points="311.975,-218.926 302.93,-224.444 313.442,-225.77 311.975,-218.926"/>
</g>
<!-- Node3 -->
<g id="node3" class="node"><title>Node3</title>
<g id="a_node3"><a xlink:href="all_8hpp.html" target="_top" xlink:title="Includes all JNGL headers. ">
<polygon fill="white" stroke="black" points="303,-56.5 303,-75.5 371,-75.5 371,-56.5 303,-56.5"/>
<text text-anchor="middle" x="337" y="-63.5" font-family="Lato" font-size="10.00">jngl/all.hpp</text>
</a>
</g>
</g>
<!-- Node2&#45;&gt;Node3 -->
<g id="edge2" class="edge"><title>Node2&#45;&gt;Node3</title>
<path fill="none" stroke="midnightblue" d="M98.2135,-111.008C158.109,-99.9697 252.722,-82.5324 302.986,-73.2687"/>
<polygon fill="midnightblue" stroke="midnightblue" points="97.3823,-107.603 88.1823,-112.857 98.6511,-114.487 97.3823,-107.603"/>
</g>
<!-- Node4 -->
<g id="node4" class="node"><title>Node4</title>
<g id="a_node4"><a xlink:href="jngl_8hpp_source.html" target="_top" xlink:title="jngl.hpp">
<polygon fill="white" stroke="black" points="310,-0.5 310,-19.5 364,-19.5 364,-0.5 310,-0.5"/>
<text text-anchor="middle" x="337" y="-7.5" font-family="Lato" font-size="10.00">jngl.hpp</text>
</a>
</g>
</g>
<!-- Node3&#45;&gt;Node4 -->
<g id="edge3" class="edge"><title>Node3&#45;&gt;Node4</title>
<path fill="none" stroke="midnightblue" d="M337,-45.8045C337,-36.9102 337,-26.7798 337,-19.7511"/>
<polygon fill="midnightblue" stroke="midnightblue" points="333.5,-46.083 337,-56.083 340.5,-46.083 333.5,-46.083"/>
</g>
<!-- Node5&#45;&gt;Node3 -->
<g id="edge7" class="edge"><title>Node5&#45;&gt;Node3</title>
<path fill="none" stroke="midnightblue" d="M143.517,-159.803C133.504,-145.731 123.821,-125.943 135,-112 155.677,-86.2105 250.984,-74.2463 302.959,-69.5565"/>
<polygon fill="midnightblue" stroke="midnightblue" points="141.047,-162.331 149.93,-168.107 146.588,-158.053 141.047,-162.331"/>
</g>
<!-- Node6 -->
<g id="node6" class="node"><title>Node6</title>
<g id="a_node6"><a xlink:href="Controller_8hpp_source.html" target="_top" xlink:title="jngl/Controller.hpp">
<polygon fill="white" stroke="black" points="144.5,-112.5 144.5,-131.5 247.5,-131.5 247.5,-112.5 144.5,-112.5"/>
<text text-anchor="middle" x="196" y="-119.5" font-family="Lato" font-size="10.00">jngl/Controller.hpp</text>
</a>
</g>
</g>
<!-- Node5&#45;&gt;Node6 -->
<g id="edge5" class="edge"><title>Node5&#45;&gt;Node6</title>
<path fill="none" stroke="midnightblue" d="M170.065,-159.855C176.645,-150.505 184.511,-139.327 189.842,-131.751"/>
<polygon fill="midnightblue" stroke="midnightblue" points="167.168,-157.891 164.275,-168.083 172.892,-161.919 167.168,-157.891"/>
</g>
<!-- Node6&#45;&gt;Node3 -->
<g id="edge6" class="edge"><title>Node6&#45;&gt;Node3</title>
<path fill="none" stroke="midnightblue" d="M227.929,-108.772C254.414,-98.6287 291.392,-84.4669 314.763,-75.5164"/>
<polygon fill="midnightblue" stroke="midnightblue" points="226.429,-105.599 218.342,-112.444 228.932,-112.136 226.429,-105.599"/>
</g>
<!-- Node7&#45;&gt;Node3 -->
<g id="edge9" class="edge"><title>Node7&#45;&gt;Node3</title>
<path fill="none" stroke="midnightblue" d="M314.832,-103.275C320.472,-94.0454 327.118,-83.1703 331.652,-75.7511"/>
<polygon fill="midnightblue" stroke="midnightblue" points="311.677,-101.725 309.449,-112.083 317.65,-105.375 311.677,-101.725"/>
</g>
<!-- Node8&#45;&gt;Node3 -->
<g id="edge11" class="edge"><title>Node8&#45;&gt;Node3</title>
<path fill="none" stroke="midnightblue" d="M324.121,-162.473C334.437,-154.828 345.384,-144.445 351,-132 359.547,-113.061 349.153,-88.6198 342.229,-75.7772"/>
<polygon fill="midnightblue" stroke="midnightblue" points="321.994,-159.688 315.734,-168.236 325.958,-165.457 321.994,-159.688"/>
</g>
<!-- Node9&#45;&gt;Node3 -->
<g id="edge13" class="edge"><title>Node9&#45;&gt;Node3</title>
<path fill="none" stroke="midnightblue" d="M397.878,-159.64C389.451,-146.522 377.56,-128.088 367,-112 358.653,-99.2836 348.857,-84.6411 342.788,-75.6025"/>
<polygon fill="midnightblue" stroke="midnightblue" points="394.988,-161.616 403.334,-168.143 400.879,-157.836 394.988,-161.616"/>
</g>
<!-- Node10&#45;&gt;Node3 -->
<g id="edge15" class="edge"><title>Node10&#45;&gt;Node3</title>
<path fill="none" stroke="midnightblue" d="M492.36,-163.009C454.996,-139.919 381.517,-94.5104 350.902,-75.5914"/>
<polygon fill="midnightblue" stroke="midnightblue" points="490.686,-166.089 501.033,-168.368 494.366,-160.134 490.686,-166.089"/>
</g>
<!-- Node11 -->
<g id="node11" class="node"><title>Node11</title>
<g id="a_node11"><a xlink:href="Video_8hpp_source.html" target="_top" xlink:title="jngl/Video.hpp">
<polygon fill="white" stroke="black" points="474,-112.5 474,-131.5 558,-131.5 558,-112.5 474,-112.5"/>
<text text-anchor="middle" x="516" y="-119.5" font-family="Lato" font-size="10.00">jngl/Video.hpp</text>
</a>
</g>
</g>
<!-- Node10&#45;&gt;Node11 -->
<g id="edge16" class="edge"><title>Node10&#45;&gt;Node11</title>
<path fill="none" stroke="midnightblue" d="M515.355,-157.805C515.52,-148.91 515.708,-138.78 515.838,-131.751"/>
<polygon fill="midnightblue" stroke="midnightblue" points="511.851,-158.02 515.165,-168.083 518.85,-158.15 511.851,-158.02"/>
</g>
<!-- Node11&#45;&gt;Node3 -->
<g id="edge17" class="edge"><title>Node11&#45;&gt;Node3</title>
<path fill="none" stroke="midnightblue" d="M477.669,-109.436C443.92,-99.2551 395.553,-84.664 365.23,-75.5164"/>
<polygon fill="midnightblue" stroke="midnightblue" points="477.052,-112.906 487.637,-112.444 479.074,-106.204 477.052,-112.906"/>
</g>
</g>
</svg>
