<?xml version="1.0" encoding="UTF-8" standalone="no"?>
<!DOCTYPE svg PUBLIC "-//W3C//DTD SVG 1.1//EN"
 "http://www.w3.org/Graphics/SVG/1.1/DTD/svg11.dtd">
<!-- Generated by graphviz version 5.0.0 (0)
 -->
<!-- Title: jngl/Vec2.hpp Pages: 1 -->
<svg width="1155pt" height="302pt"
 viewBox="0.00 0.00 1155.00 302.00" xmlns="http://www.w3.org/2000/svg" xmlns:xlink="http://www.w3.org/1999/xlink">
<g id="graph0" class="graph" transform="scale(1 1) rotate(0) translate(4 298)">
<title>jngl/Vec2.hpp</title>
<!-- Node1 -->
<g id="node1" class="node">
<title>Node1</title>
<g id="a_node1"><a xlink:title="Contains jngl::Vec2 class.">
<polygon fill="#999999" stroke="#666666" points="754,-294 659,-294 659,-275 754,-275 754,-294"/>
<text text-anchor="middle" x="706.5" y="-282" font-family="ui-monospace,monospace" font-size="10.00">jngl/Vec2.hpp</text>
</a>
</g>
</g>
<!-- Node2 -->
<g id="node2" class="node">
<title>Node2</title>
<g id="a_node2"><a xlink:href="AppParameters_8hpp.html" target="_top" xlink:title="Contains jngl::AppParameters struct.">
<polygon fill="white" stroke="#666666" points="149,-239 0,-239 0,-220 149,-220 149,-239"/>
<text text-anchor="middle" x="74.5" y="-227" font-family="ui-monospace,monospace" font-size="10.00">jngl/AppParameters.hpp</text>
</a>
</g>
</g>
<!-- Node1&#45;&gt;Node2 -->
<g id="edge1" class="edge">
<title>Node1&#45;&gt;Node2</title>
<path fill="none" stroke="#63b8ff" d="M648.53,-279.21C548.35,-271.7 336.38,-255.41 157.5,-239 154.76,-238.75 151.97,-238.49 149.15,-238.22"/>
<polygon fill="#63b8ff" stroke="#63b8ff" points="648.5,-282.71 658.74,-279.97 649.03,-275.73 648.5,-282.71"/>
</g>
<!-- Node4 -->
<g id="node4" class="node">
<title>Node4</title>
<g id="a_node4"><a xlink:href="Drawable_8hpp.html" target="_top" xlink:title="Contains jngl::Drawable class.">
<polygon fill="white" stroke="#666666" points="461,-239 342,-239 342,-220 461,-220 461,-239"/>
<text text-anchor="middle" x="401.5" y="-227" font-family="ui-monospace,monospace" font-size="10.00">jngl/Drawable.hpp</text>
</a>
</g>
</g>
<!-- Node1&#45;&gt;Node4 -->
<g id="edge3" class="edge">
<title>Node1&#45;&gt;Node4</title>
<path fill="none" stroke="#63b8ff" d="M648.86,-273.48C591.58,-263.53 504.68,-248.43 450.59,-239.03"/>
<polygon fill="#63b8ff" stroke="#63b8ff" points="648.39,-276.95 658.84,-275.22 649.59,-270.06 648.39,-276.95"/>
</g>
<!-- Node9 -->
<g id="node9" class="node">
<title>Node9</title>
<g id="a_node9"><a xlink:href="sprite_8hpp.html" target="_top" xlink:title="Contains jngl::Sprite class and related functions.">
<polygon fill="white" stroke="#666666" points="699,-184 592,-184 592,-165 699,-165 699,-184"/>
<text text-anchor="middle" x="645.5" y="-172" font-family="ui-monospace,monospace" font-size="10.00">jngl/sprite.hpp</text>
</a>
</g>
</g>
<!-- Node1&#45;&gt;Node9 -->
<g id="edge33" class="edge">
<title>Node1&#45;&gt;Node9</title>
<path fill="none" stroke="#63b8ff" d="M696.48,-265.76C683.22,-242.28 660.36,-201.81 650.39,-184.16"/>
<polygon fill="#63b8ff" stroke="#63b8ff" points="693.54,-267.68 701.51,-274.66 699.64,-264.23 693.54,-267.68"/>
</g>
<!-- Node11 -->
<g id="node11" class="node">
<title>Node11</title>
<g id="a_node11"><a xlink:href="FrameBuffer_8hpp.html" target="_top" xlink:title="Contains jngl::FrameBuffer class.">
<polygon fill="white" stroke="#666666" points="676,-129 545,-129 545,-110 676,-110 676,-129"/>
<text text-anchor="middle" x="610.5" y="-117" font-family="ui-monospace,monospace" font-size="10.00">jngl/FrameBuffer.hpp</text>
</a>
</g>
</g>
<!-- Node1&#45;&gt;Node11 -->
<g id="edge15" class="edge">
<title>Node1&#45;&gt;Node11</title>
<path fill="none" stroke="#63b8ff" d="M712.36,-265.3C719.17,-240.48 727.14,-195.62 707.5,-165 695.55,-146.36 673.62,-135.43 653.63,-129.07"/>
<polygon fill="#63b8ff" stroke="#63b8ff" points="709.01,-264.3 709.51,-274.89 715.72,-266.3 709.01,-264.3"/>
</g>
<!-- Node12 -->
<g id="node12" class="node">
<title>Node12</title>
<g id="a_node12"><a xlink:href="Widget_8hpp.html" target="_top" xlink:title="Contains jngl::Container class.">
<polygon fill="white" stroke="#666666" points="574,-184 467,-184 467,-165 574,-165 574,-184"/>
<text text-anchor="middle" x="520.5" y="-172" font-family="ui-monospace,monospace" font-size="10.00">jngl/Widget.hpp</text>
</a>
</g>
</g>
<!-- Node1&#45;&gt;Node12 -->
<g id="edge17" class="edge">
<title>Node1&#45;&gt;Node12</title>
<path fill="none" stroke="#63b8ff" d="M682.51,-269.57C643.45,-246.89 567.23,-202.64 535.22,-184.05"/>
<polygon fill="#63b8ff" stroke="#63b8ff" points="681.19,-272.85 691.59,-274.84 684.7,-266.8 681.19,-272.85"/>
</g>
<!-- Node13 -->
<g id="node13" class="node">
<title>Node13</title>
<g id="a_node13"><a xlink:href="effects_8hpp.html" target="_top" xlink:title="Effects that can be applied to jngl::Widget.">
<polygon fill="white" stroke="#666666" points="801,-129 694,-129 694,-110 801,-110 801,-129"/>
<text text-anchor="middle" x="747.5" y="-117" font-family="ui-monospace,monospace" font-size="10.00">jngl/effects.hpp</text>
</a>
</g>
</g>
<!-- Node1&#45;&gt;Node13 -->
<g id="edge20" class="edge">
<title>Node1&#45;&gt;Node13</title>
<path fill="none" stroke="#63b8ff" d="M723.18,-267.36C730.16,-259.52 737.56,-249.52 741.5,-239 756.03,-200.23 751.44,-149.29 748.8,-129.19"/>
<polygon fill="#63b8ff" stroke="#63b8ff" points="720.56,-265.03 716.21,-274.69 725.64,-269.85 720.56,-265.03"/>
</g>
<!-- Node14 -->
<g id="node14" class="node">
<title>Node14</title>
<g id="a_node14"><a xlink:href="font_8hpp.html" target="_top" xlink:title="Contains jngl::Font class and related functions.">
<polygon fill="white" stroke="#666666" points="914,-129 819,-129 819,-110 914,-110 914,-129"/>
<text text-anchor="middle" x="866.5" y="-117" font-family="ui-monospace,monospace" font-size="10.00">jngl/font.hpp</text>
</a>
</g>
</g>
<!-- Node1&#45;&gt;Node14 -->
<g id="edge22" class="edge">
<title>Node1&#45;&gt;Node14</title>
<path fill="none" stroke="#63b8ff" d="M725.42,-268.27C735.5,-259.92 747.97,-249.21 758.5,-239 798.68,-200.06 842.34,-149.22 859.25,-129.17"/>
<polygon fill="#63b8ff" stroke="#63b8ff" points="723.12,-265.63 717.6,-274.67 727.55,-271.05 723.12,-265.63"/>
</g>
<!-- Node15 -->
<g id="node15" class="node">
<title>Node15</title>
<g id="a_node15"><a xlink:href="input_8hpp.html" target="_top" xlink:title="Input related functions.">
<polygon fill="white" stroke="#666666" points="1048,-184 947,-184 947,-165 1048,-165 1048,-184"/>
<text text-anchor="middle" x="997.5" y="-172" font-family="ui-monospace,monospace" font-size="10.00">jngl/input.hpp</text>
</a>
</g>
</g>
<!-- Node1&#45;&gt;Node15 -->
<g id="edge24" class="edge">
<title>Node1&#45;&gt;Node15</title>
<path fill="none" stroke="#63b8ff" d="M746.45,-271.99C774.87,-263.54 813.82,-251.41 847.5,-239 895.53,-221.3 950.63,-196.89 978.79,-184.1"/>
<polygon fill="#63b8ff" stroke="#63b8ff" points="745.09,-268.75 736.49,-274.93 747.07,-275.46 745.09,-268.75"/>
</g>
<!-- Node17 -->
<g id="node17" class="node">
<title>Node17</title>
<g id="a_node17"><a xlink:href="screen_8hpp.html" target="_top" xlink:title=" ">
<polygon fill="white" stroke="#666666" points="274,-239 167,-239 167,-220 274,-220 274,-239"/>
<text text-anchor="middle" x="220.5" y="-227" font-family="ui-monospace,monospace" font-size="10.00">jngl/screen.hpp</text>
</a>
</g>
</g>
<!-- Node1&#45;&gt;Node17 -->
<g id="edge28" class="edge">
<title>Node1&#45;&gt;Node17</title>
<path fill="none" stroke="#63b8ff" d="M648.57,-277.18C553.68,-266.83 366.46,-246.42 274.32,-236.37"/>
<polygon fill="#63b8ff" stroke="#63b8ff" points="648.25,-280.67 658.57,-278.27 649.01,-273.71 648.25,-280.67"/>
</g>
<!-- Node18 -->
<g id="node18" class="node">
<title>Node18</title>
<g id="a_node18"><a xlink:href="shapes_8hpp.html" target="_top" xlink:title="Functions for drawing shapes.">
<polygon fill="white" stroke="#666666" points="1147,-239 1040,-239 1040,-220 1147,-220 1147,-239"/>
<text text-anchor="middle" x="1093.5" y="-227" font-family="ui-monospace,monospace" font-size="10.00">jngl/shapes.hpp</text>
</a>
</g>
</g>
<!-- Node1&#45;&gt;Node18 -->
<g id="edge31" class="edge">
<title>Node1&#45;&gt;Node18</title>
<path fill="none" stroke="#63b8ff" d="M764.49,-275.56C839.05,-265.35 967.5,-247.76 1039.87,-237.84"/>
<polygon fill="#63b8ff" stroke="#63b8ff" points="763.77,-272.12 754.34,-276.95 764.72,-279.06 763.77,-272.12"/>
</g>
<!-- Node3 -->
<g id="node3" class="node">
<title>Node3</title>
<g id="a_node3"><a xlink:href="init_8hpp.html" target="_top" xlink:title="Include this file only once, as it defines the main function.">
<polygon fill="white" stroke="#666666" points="122,-184 27,-184 27,-165 122,-165 122,-184"/>
<text text-anchor="middle" x="74.5" y="-172" font-family="ui-monospace,monospace" font-size="10.00">jngl/init.hpp</text>
</a>
</g>
</g>
<!-- Node2&#45;&gt;Node3 -->
<g id="edge2" class="edge">
<title>Node2&#45;&gt;Node3</title>
<path fill="none" stroke="#63b8ff" d="M74.5,-209.66C74.5,-200.93 74.5,-190.99 74.5,-184.09"/>
<polygon fill="#63b8ff" stroke="#63b8ff" points="71,-209.75 74.5,-219.75 78,-209.75 71,-209.75"/>
</g>
<!-- Node5 -->
<g id="node5" class="node">
<title>Node5</title>
<g id="a_node5"><a xlink:href="TextLine_8hpp.html" target="_top" xlink:title="Contains jngl::TextLine class.">
<polygon fill="white" stroke="#666666" points="336,-184 217,-184 217,-165 336,-165 336,-184"/>
<text text-anchor="middle" x="276.5" y="-172" font-family="ui-monospace,monospace" font-size="10.00">jngl/TextLine.hpp</text>
</a>
</g>
</g>
<!-- Node4&#45;&gt;Node5 -->
<g id="edge4" class="edge">
<title>Node4&#45;&gt;Node5</title>
<path fill="none" stroke="#63b8ff" d="M372.09,-216.03C348.97,-206.23 317.37,-192.83 296.95,-184.17"/>
<polygon fill="#63b8ff" stroke="#63b8ff" points="370.84,-219.3 381.42,-219.98 373.58,-212.86 370.84,-219.3"/>
</g>
<!-- Node7 -->
<g id="node7" class="node">
<title>Node7</title>
<g id="a_node7"><a xlink:href="all_8hpp.html" target="_top" xlink:title="Includes all JNGL headers except for init.hpp.">
<polygon fill="white" stroke="#666666" points="561,-74 472,-74 472,-55 561,-55 561,-74"/>
<text text-anchor="middle" x="516.5" y="-62" font-family="ui-monospace,monospace" font-size="10.00">jngl/all.hpp</text>
</a>
</g>
</g>
<!-- Node4&#45;&gt;Node7 -->
<g id="edge9" class="edge">
<title>Node4&#45;&gt;Node7</title>
<path fill="none" stroke="#63b8ff" d="M331.57,-221.58C282.51,-215.12 223.01,-203.47 207.5,-184 202.24,-177.4 203.23,-172.29 207.5,-165 232.74,-121.9 258.75,-127.58 305.5,-110 360.87,-89.18 428.26,-77.11 471.75,-70.92"/>
<polygon fill="#63b8ff" stroke="#63b8ff" points="331.18,-225.06 341.54,-222.85 332.06,-218.12 331.18,-225.06"/>
</g>
<!-- Node4&#45;&gt;Node9 -->
<g id="edge10" class="edge">
<title>Node4&#45;&gt;Node9</title>
<path fill="none" stroke="#63b8ff" d="M450.69,-217.82C496.42,-207.88 563.66,-193.28 605.99,-184.08"/>
<polygon fill="#63b8ff" stroke="#63b8ff" points="449.73,-214.44 440.7,-219.98 451.22,-221.28 449.73,-214.44"/>
</g>
<!-- Node10 -->
<g id="node10" class="node">
<title>Node10</title>
<g id="a_node10"><a xlink:href="text_8hpp.html" target="_top" xlink:title=" ">
<polygon fill="white" stroke="#666666" points="449,-184 354,-184 354,-165 449,-165 449,-184"/>
<text text-anchor="middle" x="401.5" y="-172" font-family="ui-monospace,monospace" font-size="10.00">jngl/text.hpp</text>
</a>
</g>
</g>
<!-- Node4&#45;&gt;Node10 -->
<g id="edge12" class="edge">
<title>Node4&#45;&gt;Node10</title>
<path fill="none" stroke="#63b8ff" d="M401.5,-209.66C401.5,-200.93 401.5,-190.99 401.5,-184.09"/>
<polygon fill="#63b8ff" stroke="#63b8ff" points="398,-209.75 401.5,-219.75 405,-209.75 398,-209.75"/>
</g>
<!-- Node6 -->
<g id="node6" class="node">
<title>Node6</title>
<g id="a_node6"><a xlink:href="Label_8hpp.html" target="_top" xlink:title="Contains jngl::Label class.">
<polygon fill="white" stroke="#666666" points="450,-129 349,-129 349,-110 450,-110 450,-129"/>
<text text-anchor="middle" x="399.5" y="-117" font-family="ui-monospace,monospace" font-size="10.00">jngl/Label.hpp</text>
</a>
</g>
</g>
<!-- Node5&#45;&gt;Node6 -->
<g id="edge5" class="edge">
<title>Node5&#45;&gt;Node6</title>
<path fill="none" stroke="#63b8ff" d="M305.75,-160.9C328.47,-151.11 359.37,-137.79 379.38,-129.17"/>
<polygon fill="#63b8ff" stroke="#63b8ff" points="304.06,-157.81 296.26,-164.98 306.83,-164.24 304.06,-157.81"/>
</g>
<!-- Node5&#45;&gt;Node7 -->
<g id="edge8" class="edge">
<title>Node5&#45;&gt;Node7</title>
<path fill="none" stroke="#63b8ff" d="M287.18,-155.97C296.94,-141.47 312.69,-121.44 331.5,-110 374.68,-83.73 432.33,-72.97 471.72,-68.56"/>
<polygon fill="#63b8ff" stroke="#63b8ff" points="284.12,-154.26 281.66,-164.57 290.01,-158.04 284.12,-154.26"/>
</g>
<!-- Node6&#45;&gt;Node7 -->
<g id="edge6" class="edge">
<title>Node6&#45;&gt;Node7</title>
<path fill="none" stroke="#63b8ff" d="M427.61,-105.77C449.19,-95.99 478.41,-82.75 497.36,-74.17"/>
<polygon fill="#63b8ff" stroke="#63b8ff" points="425.96,-102.67 418.3,-109.98 428.85,-109.05 425.96,-102.67"/>
</g>
<!-- Node8 -->
<g id="node8" class="node">
<title>Node8</title>
<g id="a_node8"><a xlink:href="jngl_8hpp.html" target="_top" xlink:title="Includes jngl/all.hpp.">
<polygon fill="white" stroke="#666666" points="549,-19 484,-19 484,0 549,0 549,-19"/>
<text text-anchor="middle" x="516.5" y="-7" font-family="ui-monospace,monospace" font-size="10.00">jngl.hpp</text>
</a>
</g>
</g>
<!-- Node7&#45;&gt;Node8 -->
<g id="edge7" class="edge">
<title>Node7&#45;&gt;Node8</title>
<path fill="none" stroke="#63b8ff" d="M516.5,-44.66C516.5,-35.93 516.5,-25.99 516.5,-19.09"/>
<polygon fill="#63b8ff" stroke="#63b8ff" points="513,-44.75 516.5,-54.75 520,-44.75 513,-44.75"/>
</g>
<!-- Node9&#45;&gt;Node7 -->
<g id="edge11" class="edge">
<title>Node9&#45;&gt;Node7</title>
<path fill="none" stroke="#63b8ff" d="M590.95,-161.98C571.12,-155.32 550.04,-144.97 535.5,-129 521.25,-113.34 517.67,-87.39 516.78,-74.03"/>
<polygon fill="#63b8ff" stroke="#63b8ff" points="589.96,-165.34 600.54,-164.96 592.03,-158.65 589.96,-165.34"/>
</g>
<!-- Node10&#45;&gt;Node6 -->
<g id="edge13" class="edge">
<title>Node10&#45;&gt;Node6</title>
<path fill="none" stroke="#63b8ff" d="M400.79,-154.66C400.46,-145.93 400.08,-135.99 399.82,-129.09"/>
<polygon fill="#63b8ff" stroke="#63b8ff" points="397.3,-154.89 401.17,-164.75 404.29,-154.62 397.3,-154.89"/>
</g>
<!-- Node10&#45;&gt;Node7 -->
<g id="edge14" class="edge">
<title>Node10&#45;&gt;Node7</title>
<path fill="none" stroke="#63b8ff" d="M372.78,-160.16C350.25,-147.84 324.93,-128.69 339.5,-110 355.62,-89.32 424.87,-76.78 471.82,-70.5"/>
<polygon fill="#63b8ff" stroke="#63b8ff" points="371.34,-163.35 381.83,-164.84 374.56,-157.13 371.34,-163.35"/>
</g>
<!-- Node11&#45;&gt;Node7 -->
<g id="edge16" class="edge">
<title>Node11&#45;&gt;Node7</title>
<path fill="none" stroke="#63b8ff" d="M586.5,-104.97C569.31,-95.28 546.69,-82.52 531.88,-74.17"/>
<polygon fill="#63b8ff" stroke="#63b8ff" points="584.97,-108.12 595.4,-109.98 588.41,-102.02 584.97,-108.12"/>
</g>
<!-- Node12&#45;&gt;Node6 -->
<g id="edge18" class="edge">
<title>Node12&#45;&gt;Node6</title>
<path fill="none" stroke="#63b8ff" d="M491.73,-160.9C469.38,-151.11 438.98,-137.79 419.29,-129.17"/>
<polygon fill="#63b8ff" stroke="#63b8ff" points="490.5,-164.18 501.06,-164.98 493.3,-157.77 490.5,-164.18"/>
</g>
<!-- Node12&#45;&gt;Node7 -->
<g id="edge19" class="edge">
<title>Node12&#45;&gt;Node7</title>
<path fill="none" stroke="#63b8ff" d="M511.56,-155.9C507.98,-147.91 504.29,-138.2 502.5,-129 498.66,-109.28 506.93,-86.28 512.32,-74.1"/>
<polygon fill="#63b8ff" stroke="#63b8ff" points="508.41,-157.43 515.88,-164.94 514.73,-154.41 508.41,-157.43"/>
</g>
<!-- Node13&#45;&gt;Node7 -->
<g id="edge21" class="edge">
<title>Node13&#45;&gt;Node7</title>
<path fill="none" stroke="#63b8ff" d="M700.39,-107.69C657.11,-97.76 593.81,-83.24 553.91,-74.08"/>
<polygon fill="#63b8ff" stroke="#63b8ff" points="699.86,-111.16 710.39,-109.98 701.42,-104.34 699.86,-111.16"/>
</g>
<!-- Node14&#45;&gt;Node7 -->
<g id="edge23" class="edge">
<title>Node14&#45;&gt;Node7</title>
<path fill="none" stroke="#63b8ff" d="M809.04,-109.8C739.62,-99.29 624.32,-81.83 561.19,-72.27"/>
<polygon fill="#63b8ff" stroke="#63b8ff" points="808.52,-113.26 818.93,-111.3 809.57,-106.34 808.52,-113.26"/>
</g>
<!-- Node15&#45;&gt;Node7 -->
<g id="edge27" class="edge">
<title>Node15&#45;&gt;Node7</title>
<path fill="none" stroke="#63b8ff" d="M1030.47,-161.01C1057.8,-148.88 1089.47,-129.47 1071.5,-110 1037.16,-72.8 687.34,-66.68 561.38,-65.69"/>
<polygon fill="#63b8ff" stroke="#63b8ff" points="1028.92,-157.87 1021.07,-164.99 1031.65,-164.31 1028.92,-157.87"/>
</g>
<!-- Node16 -->
<g id="node16" class="node">
<title>Node16</title>
<g id="a_node16"><a xlink:href="Controller_8hpp.html" target="_top" xlink:title="Contains jngl::Controller class.">
<polygon fill="white" stroke="#666666" points="1063,-129 932,-129 932,-110 1063,-110 1063,-129"/>
<text text-anchor="middle" x="997.5" y="-117" font-family="ui-monospace,monospace" font-size="10.00">jngl/Controller.hpp</text>
</a>
</g>
</g>
<!-- Node15&#45;&gt;Node16 -->
<g id="edge25" class="edge">
<title>Node15&#45;&gt;Node16</title>
<path fill="none" stroke="#63b8ff" d="M997.5,-154.66C997.5,-145.93 997.5,-135.99 997.5,-129.09"/>
<polygon fill="#63b8ff" stroke="#63b8ff" points="994,-154.75 997.5,-164.75 1001,-154.75 994,-154.75"/>
</g>
<!-- Node16&#45;&gt;Node7 -->
<g id="edge26" class="edge">
<title>Node16&#45;&gt;Node7</title>
<path fill="none" stroke="#63b8ff" d="M921.34,-109.87C783.72,-94.55 634.25,-78.27 561.26,-70.35"/>
<polygon fill="#63b8ff" stroke="#63b8ff" points="921.33,-113.39 931.65,-111.02 922.1,-106.44 921.33,-113.39"/>
</g>
<!-- Node17&#45;&gt;Node3 -->
<g id="edge30" class="edge">
<title>Node17&#45;&gt;Node3</title>
<path fill="none" stroke="#63b8ff" d="M187.58,-216.55C160.47,-206.71 122.67,-192.98 98.38,-184.17"/>
<polygon fill="#63b8ff" stroke="#63b8ff" points="186.45,-219.86 197.04,-219.98 188.84,-213.28 186.45,-219.86"/>
</g>
<!-- Node17&#45;&gt;Node7 -->
<g id="edge29" class="edge">
<title>Node17&#45;&gt;Node7</title>
<path fill="none" stroke="#63b8ff" d="M208.93,-211.13C201.88,-198.32 195.16,-180.5 200.5,-165 210.61,-135.66 216.8,-125.8 243.5,-110 281.31,-87.62 404.57,-74.5 471.79,-68.83"/>
<polygon fill="#63b8ff" stroke="#63b8ff" points="206.02,-213.08 214.2,-219.82 212.01,-209.46 206.02,-213.08"/>
</g>
<!-- Node18&#45;&gt;Node7 -->
<g id="edge32" class="edge">
<title>Node18&#45;&gt;Node7</title>
<path fill="none" stroke="#63b8ff" d="M1099.32,-210.15C1106.31,-184.09 1114.15,-136.58 1088.5,-110 1052.14,-72.33 689.68,-66.52 561.29,-65.65"/>
<polygon fill="#63b8ff" stroke="#63b8ff" points="1095.92,-209.3 1096.47,-219.88 1102.64,-211.26 1095.92,-209.3"/>
</g>
</g>
</svg>
