<?xml version="1.0" encoding="UTF-8" standalone="no"?>
<!DOCTYPE svg PUBLIC "-//W3C//DTD SVG 1.1//EN"
 "http://www.w3.org/Graphics/SVG/1.1/DTD/svg11.dtd">
<!-- Generated by graphviz version 2.42.4 (0)
 -->
<!-- Title: jngl/Vec2.hpp Pages: 1 -->
<svg width="787pt" height="308pt"
 viewBox="0.00 0.00 786.68 308.00" xmlns="http://www.w3.org/2000/svg" xmlns:xlink="http://www.w3.org/1999/xlink">
<g id="graph0" class="graph" transform="scale(1 1) rotate(0) translate(4 304)">
<title>jngl/Vec2.hpp</title>
<polygon fill="white" stroke="transparent" points="-4,4 -4,-304 782.68,-304 782.68,4 -4,4"/>
<!-- Node1 -->
<g id="node1" class="node">
<title>Node1</title>
<g id="a_node1"><a xlink:title=" ">
<polygon fill="#bfbfbf" stroke="black" points="357.68,-280.5 357.68,-299.5 452.68,-299.5 452.68,-280.5 357.68,-280.5"/>
<text text-anchor="middle" x="405.18" y="-287.5" font-family="'Consolas',monospace" font-size="10.00">jngl/Vec2.hpp</text>
</a>
</g>
</g>
<!-- Node2 -->
<g id="node2" class="node">
<title>Node2</title>
<g id="a_node2"><a xlink:href="Drawable_8hpp.html" target="_top" xlink:title="Contains jngl::Drawable class.">
<polygon fill="white" stroke="black" points="60.68,-224.5 60.68,-243.5 179.68,-243.5 179.68,-224.5 60.68,-224.5"/>
<text text-anchor="middle" x="120.18" y="-231.5" font-family="'Consolas',monospace" font-size="10.00">jngl/Drawable.hpp</text>
</a>
</g>
</g>
<!-- Node1&#45;&gt;Node2 -->
<g id="edge1" class="edge">
<title>Node1&#45;&gt;Node2</title>
<path fill="none" stroke="midnightblue" d="M349.96,-278.54C296.1,-268.33 215.18,-253 165.13,-243.52"/>
<polygon fill="midnightblue" stroke="midnightblue" points="349.55,-282.02 360.02,-280.44 350.85,-275.14 349.55,-282.02"/>
</g>
<!-- Node5 -->
<g id="node5" class="node">
<title>Node5</title>
<g id="a_node5"><a xlink:href="sprite_8hpp.html" target="_top" xlink:title="Contains jngl::Sprite class and related functions.">
<polygon fill="white" stroke="black" points="125.68,-168.5 125.68,-187.5 232.68,-187.5 232.68,-168.5 125.68,-168.5"/>
<text text-anchor="middle" x="179.18" y="-175.5" font-family="'Consolas',monospace" font-size="10.00">jngl/sprite.hpp</text>
</a>
</g>
</g>
<!-- Node1&#45;&gt;Node5 -->
<g id="edge23" class="edge">
<title>Node1&#45;&gt;Node5</title>
<path fill="none" stroke="midnightblue" d="M378.22,-275.88C331.38,-253.08 236.2,-206.75 196.84,-187.59"/>
<polygon fill="midnightblue" stroke="midnightblue" points="376.93,-279.14 387.45,-280.37 379.99,-272.85 376.93,-279.14"/>
</g>
<!-- Node8 -->
<g id="node8" class="node">
<title>Node8</title>
<g id="a_node8"><a xlink:href="font_8hpp.html" target="_top" xlink:title="Contains jngl::Font class and related functions.">
<polygon fill="white" stroke="black" points="226.68,-112.5 226.68,-131.5 321.68,-131.5 321.68,-112.5 226.68,-112.5"/>
<text text-anchor="middle" x="274.18" y="-119.5" font-family="'Consolas',monospace" font-size="10.00">jngl/font.hpp</text>
</a>
</g>
</g>
<!-- Node1&#45;&gt;Node8 -->
<g id="edge10" class="edge">
<title>Node1&#45;&gt;Node8</title>
<path fill="none" stroke="midnightblue" d="M391.93,-272.21C364.36,-237.26 301.64,-157.79 280.95,-131.57"/>
<polygon fill="midnightblue" stroke="midnightblue" points="389.2,-274.39 398.14,-280.08 394.69,-270.06 389.2,-274.39"/>
</g>
<!-- Node9 -->
<g id="node9" class="node">
<title>Node9</title>
<g id="a_node9"><a xlink:href="framebuffer_8hpp.html" target="_top" xlink:title="Contains jngl::FrameBuffer class.">
<polygon fill="white" stroke="black" points="339.68,-112.5 339.68,-131.5 470.68,-131.5 470.68,-112.5 339.68,-112.5"/>
<text text-anchor="middle" x="405.18" y="-119.5" font-family="'Consolas',monospace" font-size="10.00">jngl/framebuffer.hpp</text>
</a>
</g>
</g>
<!-- Node1&#45;&gt;Node9 -->
<g id="edge12" class="edge">
<title>Node1&#45;&gt;Node9</title>
<path fill="none" stroke="midnightblue" d="M405.18,-269.93C405.18,-233.92 405.18,-157.23 405.18,-131.57"/>
<polygon fill="midnightblue" stroke="midnightblue" points="401.68,-270.08 405.18,-280.08 408.68,-270.08 401.68,-270.08"/>
</g>
<!-- Node10 -->
<g id="node10" class="node">
<title>Node10</title>
<g id="a_node10"><a xlink:href="input_8hpp.html" target="_top" xlink:title="Input related functions.">
<polygon fill="white" stroke="black" points="439.68,-168.5 439.68,-187.5 540.68,-187.5 540.68,-168.5 439.68,-168.5"/>
<text text-anchor="middle" x="490.18" y="-175.5" font-family="'Consolas',monospace" font-size="10.00">jngl/input.hpp</text>
</a>
</g>
</g>
<!-- Node1&#45;&gt;Node10 -->
<g id="edge14" class="edge">
<title>Node1&#45;&gt;Node10</title>
<path fill="none" stroke="midnightblue" d="M418.11,-272.27C436.48,-248.49 469.48,-205.79 483.55,-187.59"/>
<polygon fill="midnightblue" stroke="midnightblue" points="415.2,-270.32 411.85,-280.37 420.74,-274.6 415.2,-270.32"/>
</g>
<!-- Node12 -->
<g id="node12" class="node">
<title>Node12</title>
<g id="a_node12"><a xlink:href="screen_8hpp.html" target="_top" xlink:title=" ">
<polygon fill="white" stroke="black" points="546.68,-224.5 546.68,-243.5 653.68,-243.5 653.68,-224.5 546.68,-224.5"/>
<text text-anchor="middle" x="600.18" y="-231.5" font-family="'Consolas',monospace" font-size="10.00">jngl/screen.hpp</text>
</a>
</g>
</g>
<!-- Node1&#45;&gt;Node12 -->
<g id="edge18" class="edge">
<title>Node1&#45;&gt;Node12</title>
<path fill="none" stroke="midnightblue" d="M445.99,-277.7C482.8,-267.51 536.11,-252.74 569.43,-243.52"/>
<polygon fill="midnightblue" stroke="midnightblue" points="444.79,-274.4 436.08,-280.44 446.65,-281.15 444.79,-274.4"/>
</g>
<!-- Node14 -->
<g id="node14" class="node">
<title>Node14</title>
<g id="a_node14"><a xlink:href="shapes_8hpp.html" target="_top" xlink:title="Functions for drawing shapes.">
<polygon fill="white" stroke="black" points="671.68,-224.5 671.68,-243.5 778.68,-243.5 778.68,-224.5 671.68,-224.5"/>
<text text-anchor="middle" x="725.18" y="-231.5" font-family="'Consolas',monospace" font-size="10.00">jngl/shapes.hpp</text>
</a>
</g>
</g>
<!-- Node1&#45;&gt;Node14 -->
<g id="edge21" class="edge">
<title>Node1&#45;&gt;Node14</title>
<path fill="none" stroke="midnightblue" d="M462.88,-279.26C523.28,-269.07 617.17,-253.23 674.72,-243.52"/>
<polygon fill="midnightblue" stroke="midnightblue" points="462.02,-275.86 452.75,-280.97 463.19,-282.76 462.02,-275.86"/>
</g>
<!-- Node3 -->
<g id="node3" class="node">
<title>Node3</title>
<g id="a_node3"><a xlink:href="all_8hpp.html" target="_top" xlink:title="Includes all JNGL headers except for init.hpp.">
<polygon fill="white" stroke="black" points="294.68,-56.5 294.68,-75.5 383.68,-75.5 383.68,-56.5 294.68,-56.5"/>
<text text-anchor="middle" x="339.18" y="-63.5" font-family="'Consolas',monospace" font-size="10.00">jngl/all.hpp</text>
</a>
</g>
</g>
<!-- Node2&#45;&gt;Node3 -->
<g id="edge2" class="edge">
<title>Node2&#45;&gt;Node3</title>
<path fill="none" stroke="midnightblue" d="M56.3,-221.86C22.35,-212.53 -9.94,-196.07 3.18,-168 19.62,-132.84 34.92,-128.21 70.18,-112 143.75,-78.17 239.06,-69.46 294.24,-67.4"/>
<polygon fill="midnightblue" stroke="midnightblue" points="55.81,-225.35 66.37,-224.42 57.54,-218.57 55.81,-225.35"/>
</g>
<!-- Node2&#45;&gt;Node5 -->
<g id="edge4" class="edge">
<title>Node2&#45;&gt;Node5</title>
<path fill="none" stroke="midnightblue" d="M137.08,-217.54C147.6,-207.91 160.75,-195.87 169.53,-187.83"/>
<polygon fill="midnightblue" stroke="midnightblue" points="134.68,-214.99 129.66,-224.32 139.4,-220.15 134.68,-214.99"/>
</g>
<!-- Node7 -->
<g id="node7" class="node">
<title>Node7</title>
<g id="a_node7"><a xlink:href="text_8hpp.html" target="_top" xlink:title=" ">
<polygon fill="white" stroke="black" points="12.68,-168.5 12.68,-187.5 107.68,-187.5 107.68,-168.5 12.68,-168.5"/>
<text text-anchor="middle" x="60.18" y="-175.5" font-family="'Consolas',monospace" font-size="10.00">jngl/text.hpp</text>
</a>
</g>
</g>
<!-- Node2&#45;&gt;Node7 -->
<g id="edge8" class="edge">
<title>Node2&#45;&gt;Node7</title>
<path fill="none" stroke="midnightblue" d="M103,-217.54C92.3,-207.91 78.93,-195.87 70,-187.83"/>
<polygon fill="midnightblue" stroke="midnightblue" points="100.77,-220.24 110.54,-224.32 105.45,-215.03 100.77,-220.24"/>
</g>
<!-- Node4 -->
<g id="node4" class="node">
<title>Node4</title>
<g id="a_node4"><a xlink:href="jngl_8hpp_source.html" target="_top" xlink:title=" ">
<polygon fill="white" stroke="black" points="306.68,-0.5 306.68,-19.5 371.68,-19.5 371.68,-0.5 306.68,-0.5"/>
<text text-anchor="middle" x="339.18" y="-7.5" font-family="'Consolas',monospace" font-size="10.00">jngl.hpp</text>
</a>
</g>
</g>
<!-- Node3&#45;&gt;Node4 -->
<g id="edge3" class="edge">
<title>Node3&#45;&gt;Node4</title>
<path fill="none" stroke="midnightblue" d="M339.18,-45.8C339.18,-36.91 339.18,-26.78 339.18,-19.75"/>
<polygon fill="midnightblue" stroke="midnightblue" points="335.68,-46.08 339.18,-56.08 342.68,-46.08 335.68,-46.08"/>
</g>
<!-- Node5&#45;&gt;Node3 -->
<g id="edge5" class="edge">
<title>Node5&#45;&gt;Node3</title>
<path fill="none" stroke="midnightblue" d="M143.21,-164.77C113.97,-152.9 80.28,-133.56 98.18,-112 122.66,-82.53 231.86,-72.26 294.55,-68.75"/>
<polygon fill="midnightblue" stroke="midnightblue" points="142.29,-168.16 152.88,-168.5 144.81,-161.63 142.29,-168.16"/>
</g>
<!-- Node6 -->
<g id="node6" class="node">
<title>Node6</title>
<g id="a_node6"><a xlink:href="Video_8hpp.html" target="_top" xlink:title=" ">
<polygon fill="white" stroke="black" points="107.68,-112.5 107.68,-131.5 208.68,-131.5 208.68,-112.5 107.68,-112.5"/>
<text text-anchor="middle" x="158.18" y="-119.5" font-family="'Consolas',monospace" font-size="10.00">jngl/Video.hpp</text>
</a>
</g>
</g>
<!-- Node5&#45;&gt;Node6 -->
<g id="edge6" class="edge">
<title>Node5&#45;&gt;Node6</title>
<path fill="none" stroke="midnightblue" d="M172.06,-158.69C168.52,-149.59 164.41,-139.01 161.59,-131.75"/>
<polygon fill="midnightblue" stroke="midnightblue" points="168.83,-160.03 175.72,-168.08 175.35,-157.49 168.83,-160.03"/>
</g>
<!-- Node6&#45;&gt;Node3 -->
<g id="edge7" class="edge">
<title>Node6&#45;&gt;Node3</title>
<path fill="none" stroke="midnightblue" d="M196.5,-109.57C230.65,-99.38 279.84,-84.7 310.64,-75.52"/>
<polygon fill="midnightblue" stroke="midnightblue" points="195.45,-106.23 186.86,-112.44 197.45,-112.94 195.45,-106.23"/>
</g>
<!-- Node7&#45;&gt;Node3 -->
<g id="edge9" class="edge">
<title>Node7&#45;&gt;Node3</title>
<path fill="none" stroke="midnightblue" d="M63.61,-158.14C67.32,-143.3 74.77,-123.3 89.18,-112 120.43,-87.52 231.33,-75.22 294.43,-70.07"/>
<polygon fill="midnightblue" stroke="midnightblue" points="60.12,-157.75 61.44,-168.26 66.96,-159.21 60.12,-157.75"/>
</g>
<!-- Node8&#45;&gt;Node3 -->
<g id="edge11" class="edge">
<title>Node8&#45;&gt;Node3</title>
<path fill="none" stroke="midnightblue" d="M292.46,-105.82C304.1,-96.15 318.78,-83.95 328.55,-75.83"/>
<polygon fill="midnightblue" stroke="midnightblue" points="290.08,-103.24 284.63,-112.32 294.56,-108.63 290.08,-103.24"/>
</g>
<!-- Node9&#45;&gt;Node3 -->
<g id="edge13" class="edge">
<title>Node9&#45;&gt;Node3</title>
<path fill="none" stroke="midnightblue" d="M386.63,-105.82C374.81,-96.15 359.9,-83.95 349.98,-75.83"/>
<polygon fill="midnightblue" stroke="midnightblue" points="384.62,-108.7 394.58,-112.32 389.06,-103.28 384.62,-108.7"/>
</g>
<!-- Node10&#45;&gt;Node3 -->
<g id="edge15" class="edge">
<title>Node10&#45;&gt;Node3</title>
<path fill="none" stroke="midnightblue" d="M491.9,-158.07C492.14,-143.78 490.06,-124.56 479.18,-112 455.53,-84.69 415.26,-73.82 383.96,-69.56"/>
<polygon fill="midnightblue" stroke="midnightblue" points="488.39,-158.07 491.33,-168.25 495.38,-158.45 488.39,-158.07"/>
</g>
<!-- Node11 -->
<g id="node11" class="node">
<title>Node11</title>
<g id="a_node11"><a xlink:href="Controller_8hpp.html" target="_top" xlink:title=" ">
<polygon fill="white" stroke="black" points="527.68,-112.5 527.68,-131.5 658.68,-131.5 658.68,-112.5 527.68,-112.5"/>
<text text-anchor="middle" x="593.18" y="-119.5" font-family="'Consolas',monospace" font-size="10.00">jngl/Controller.hpp</text>
</a>
</g>
</g>
<!-- Node10&#45;&gt;Node11 -->
<g id="edge16" class="edge">
<title>Node10&#45;&gt;Node11</title>
<path fill="none" stroke="midnightblue" d="M515.76,-163.59C534.81,-153.61 560.25,-140.27 576.68,-131.65"/>
<polygon fill="midnightblue" stroke="midnightblue" points="513.96,-160.58 506.73,-168.32 517.21,-166.78 513.96,-160.58"/>
</g>
<!-- Node11&#45;&gt;Node3 -->
<g id="edge17" class="edge">
<title>Node11&#45;&gt;Node3</title>
<path fill="none" stroke="midnightblue" d="M543.07,-110.35C495.07,-100.14 423.57,-84.94 379.24,-75.52"/>
<polygon fill="midnightblue" stroke="midnightblue" points="542.43,-113.79 552.94,-112.44 543.88,-106.94 542.43,-113.79"/>
</g>
<!-- Node12&#45;&gt;Node3 -->
<g id="edge19" class="edge">
<title>Node12&#45;&gt;Node3</title>
<path fill="none" stroke="midnightblue" d="M628.48,-219.52C640.97,-212.04 654.53,-201.5 662.18,-188 678.89,-158.56 689.43,-137.51 667.18,-112 630.96,-70.47 464.98,-65.91 383.95,-66.23"/>
<polygon fill="midnightblue" stroke="midnightblue" points="626.71,-216.5 619.68,-224.42 630.12,-222.61 626.71,-216.5"/>
</g>
<!-- Node13 -->
<g id="node13" class="node">
<title>Node13</title>
<g id="a_node13"><a xlink:href="init_8hpp.html" target="_top" xlink:title="Include this file only once, as it defines the main function.">
<polygon fill="white" stroke="black" points="558.68,-168.5 558.68,-187.5 653.68,-187.5 653.68,-168.5 558.68,-168.5"/>
<text text-anchor="middle" x="606.18" y="-175.5" font-family="'Consolas',monospace" font-size="10.00">jngl/init.hpp</text>
</a>
</g>
</g>
<!-- Node12&#45;&gt;Node13 -->
<g id="edge20" class="edge">
<title>Node12&#45;&gt;Node13</title>
<path fill="none" stroke="midnightblue" d="M602.28,-214.1C603.28,-205.14 604.42,-194.86 605.21,-187.75"/>
<polygon fill="midnightblue" stroke="midnightblue" points="598.8,-213.76 601.17,-224.08 605.76,-214.53 598.8,-213.76"/>
</g>
<!-- Node14&#45;&gt;Node3 -->
<g id="edge22" class="edge">
<title>Node14&#45;&gt;Node3</title>
<path fill="none" stroke="midnightblue" d="M725.16,-214.18C724.02,-187.07 717.6,-137.49 687.18,-112 642.13,-74.24 467.21,-67.84 383.85,-66.97"/>
<polygon fill="midnightblue" stroke="midnightblue" points="721.66,-214.37 725.38,-224.29 728.66,-214.22 721.66,-214.37"/>
</g>
</g>
</svg>
