<?xml version="1.0" encoding="UTF-8" standalone="no"?>
<!DOCTYPE svg PUBLIC "-//W3C//DTD SVG 1.1//EN"
 "http://www.w3.org/Graphics/SVG/1.1/DTD/svg11.dtd">
<!-- Generated by graphviz version 2.40.1 (0)
 -->
<!-- Title: jngl/Vec2.hpp Pages: 1 -->
<svg width="715pt" height="252pt"
 viewBox="0.00 0.00 715.00 252.00" xmlns="http://www.w3.org/2000/svg" xmlns:xlink="http://www.w3.org/1999/xlink">
<g id="graph0" class="graph" transform="scale(1 1) rotate(0) translate(4 248)">
<title>jngl/Vec2.hpp</title>
<polygon fill="#ffffff" stroke="transparent" points="-4,4 -4,-248 711,-248 711,4 -4,4"/>
<!-- Node3 -->
<g id="node1" class="node">
<title>Node3</title>
<g id="a_node1"><a xlink:title=" ">
<polygon fill="#bfbfbf" stroke="#000000" points="365,-224.5 365,-243.5 460,-243.5 460,-224.5 365,-224.5"/>
<text text-anchor="middle" x="412.5" y="-231.5" font-family="'Consolas',monospace" font-size="10.00" fill="#000000">jngl/Vec2.hpp</text>
</a>
</g>
</g>
<!-- Node4 -->
<g id="node2" class="node">
<title>Node4</title>
<g id="a_node2"><a xlink:href="input_8hpp.html" target="_top" xlink:title=" ">
<polygon fill="#ffffff" stroke="#000000" points="106,-168.5 106,-187.5 207,-187.5 207,-168.5 106,-168.5"/>
<text text-anchor="middle" x="156.5" y="-175.5" font-family="'Consolas',monospace" font-size="10.00" fill="#000000">jngl/input.hpp</text>
</a>
</g>
</g>
<!-- Node3&#45;&gt;Node4 -->
<g id="edge1" class="edge">
<title>Node3&#45;&gt;Node4</title>
<path fill="none" stroke="#191970" d="M358.7513,-222.2425C311.5911,-211.9262 243.8759,-197.1135 200.0368,-187.5237"/>
<polygon fill="#191970" stroke="#191970" points="358.2659,-225.719 368.7829,-224.4369 359.7619,-218.8807 358.2659,-225.719"/>
</g>
<!-- Node8 -->
<g id="node6" class="node">
<title>Node8</title>
<g id="a_node6"><a xlink:href="sprite_8hpp_source.html" target="_top" xlink:title=" ">
<polygon fill="#ffffff" stroke="#000000" points="225,-168.5 225,-187.5 332,-187.5 332,-168.5 225,-168.5"/>
<text text-anchor="middle" x="278.5" y="-175.5" font-family="'Consolas',monospace" font-size="10.00" fill="#000000">jngl/sprite.hpp</text>
</a>
</g>
</g>
<!-- Node3&#45;&gt;Node8 -->
<g id="edge6" class="edge">
<title>Node3&#45;&gt;Node8</title>
<path fill="none" stroke="#191970" d="M379.9172,-220.3833C355.5464,-210.1985 322.8358,-196.5284 301.2348,-187.5011"/>
<polygon fill="#191970" stroke="#191970" points="378.8883,-223.7466 389.4646,-224.3733 381.5875,-217.2879 378.8883,-223.7466"/>
</g>
<!-- Node10 -->
<g id="node8" class="node">
<title>Node10</title>
<g id="a_node8"><a xlink:href="font_8hpp.html" target="_top" xlink:title=" ">
<polygon fill="#ffffff" stroke="#000000" points="345,-112.5 345,-131.5 440,-131.5 440,-112.5 345,-112.5"/>
<text text-anchor="middle" x="392.5" y="-119.5" font-family="'Consolas',monospace" font-size="10.00" fill="#000000">jngl/font.hpp</text>
</a>
</g>
</g>
<!-- Node3&#45;&gt;Node10 -->
<g id="edge10" class="edge">
<title>Node3&#45;&gt;Node10</title>
<path fill="none" stroke="#191970" d="M409.0355,-214.5987C404.7077,-190.363 397.4741,-149.8551 394.2009,-131.5249"/>
<polygon fill="#191970" stroke="#191970" points="405.5913,-215.222 410.7948,-224.4509 412.4823,-213.9914 405.5913,-215.222"/>
</g>
<!-- Node11 -->
<g id="node9" class="node">
<title>Node11</title>
<g id="a_node9"><a xlink:href="framebuffer_8hpp_source.html" target="_top" xlink:title=" ">
<polygon fill="#ffffff" stroke="#000000" points="458,-112.5 458,-131.5 589,-131.5 589,-112.5 458,-112.5"/>
<text text-anchor="middle" x="523.5" y="-119.5" font-family="'Consolas',monospace" font-size="10.00" fill="#000000">jngl/framebuffer.hpp</text>
</a>
</g>
</g>
<!-- Node3&#45;&gt;Node11 -->
<g id="edge12" class="edge">
<title>Node3&#45;&gt;Node11</title>
<path fill="none" stroke="#191970" d="M424.6859,-216.2397C434.6086,-202.38 449.4004,-183.023 464.5,-168 478.4954,-154.0756 496.6711,-140.4697 509.129,-131.7129"/>
<polygon fill="#191970" stroke="#191970" points="421.8002,-214.2587 418.914,-224.4529 427.5274,-218.2836 421.8002,-214.2587"/>
</g>
<!-- Node12 -->
<g id="node10" class="node">
<title>Node12</title>
<g id="a_node10"><a xlink:href="screen_8hpp.html" target="_top" xlink:title=" ">
<polygon fill="#ffffff" stroke="#000000" points="473,-168.5 473,-187.5 580,-187.5 580,-168.5 473,-168.5"/>
<text text-anchor="middle" x="526.5" y="-175.5" font-family="'Consolas',monospace" font-size="10.00" fill="#000000">jngl/screen.hpp</text>
</a>
</g>
</g>
<!-- Node3&#45;&gt;Node12 -->
<g id="edge14" class="edge">
<title>Node3&#45;&gt;Node12</title>
<path fill="none" stroke="#191970" d="M441.3321,-219.8368C461.9395,-209.7139 489.1082,-196.3679 507.1584,-187.5011"/>
<polygon fill="#191970" stroke="#191970" points="439.5297,-216.8227 432.0973,-224.3733 442.616,-223.1056 439.5297,-216.8227"/>
</g>
<!-- Node13 -->
<g id="node11" class="node">
<title>Node13</title>
<g id="a_node11"><a xlink:href="shapes_8hpp.html" target="_top" xlink:title=" ">
<polygon fill="#ffffff" stroke="#000000" points="600,-168.5 600,-187.5 707,-187.5 707,-168.5 600,-168.5"/>
<text text-anchor="middle" x="653.5" y="-175.5" font-family="'Consolas',monospace" font-size="10.00" fill="#000000">jngl/shapes.hpp</text>
</a>
</g>
</g>
<!-- Node3&#45;&gt;Node13 -->
<g id="edge16" class="edge">
<title>Node3&#45;&gt;Node13</title>
<path fill="none" stroke="#191970" d="M463.6588,-222.1125C508.0304,-211.8021 571.4168,-197.0733 612.5142,-187.5237"/>
<polygon fill="#191970" stroke="#191970" points="462.6038,-218.7643 453.6555,-224.4369 464.1882,-225.5826 462.6038,-218.7643"/>
</g>
<!-- Node5 -->
<g id="node3" class="node">
<title>Node5</title>
<g id="a_node3"><a xlink:href="Controller_8hpp.html" target="_top" xlink:title=" ">
<polygon fill="#ffffff" stroke="#000000" points="0,-112.5 0,-131.5 131,-131.5 131,-112.5 0,-112.5"/>
<text text-anchor="middle" x="65.5" y="-119.5" font-family="'Consolas',monospace" font-size="10.00" fill="#000000">jngl/Controller.hpp</text>
</a>
</g>
</g>
<!-- Node4&#45;&gt;Node5 -->
<g id="edge2" class="edge">
<title>Node4&#45;&gt;Node5</title>
<path fill="none" stroke="#191970" d="M131.7496,-162.769C115.6242,-152.8456 95.074,-140.1994 81.1693,-131.6427"/>
<polygon fill="#191970" stroke="#191970" points="130.2981,-165.9853 140.649,-168.2455 133.9668,-160.0237 130.2981,-165.9853"/>
</g>
<!-- Node6 -->
<g id="node4" class="node">
<title>Node6</title>
<g id="a_node4"><a xlink:href="all_8hpp.html" target="_top" xlink:title="Includes all JNGL headers.">
<polygon fill="#ffffff" stroke="#000000" points="290,-56.5 290,-75.5 379,-75.5 379,-56.5 290,-56.5"/>
<text text-anchor="middle" x="334.5" y="-63.5" font-family="'Consolas',monospace" font-size="10.00" fill="#000000">jngl/all.hpp</text>
</a>
</g>
</g>
<!-- Node4&#45;&gt;Node6 -->
<g id="edge5" class="edge">
<title>Node4&#45;&gt;Node6</title>
<path fill="none" stroke="#191970" d="M167.4774,-159.3487C176.9563,-144.6794 191.8829,-124.6681 209.5,-112 234.0943,-94.3148 266.2499,-82.6839 291.7881,-75.5421"/>
<polygon fill="#191970" stroke="#191970" points="164.3551,-157.7427 162.0616,-168.0863 170.3049,-161.4306 164.3551,-157.7427"/>
</g>
<!-- Node5&#45;&gt;Node6 -->
<g id="edge3" class="edge">
<title>Node5&#45;&gt;Node6</title>
<path fill="none" stroke="#191970" d="M121.4181,-110.3591C171.3171,-99.9712 243.4411,-84.9565 289.6482,-75.3372"/>
<polygon fill="#191970" stroke="#191970" points="120.5139,-106.9722 111.4371,-112.4369 121.9406,-113.8253 120.5139,-106.9722"/>
</g>
<!-- Node7 -->
<g id="node5" class="node">
<title>Node7</title>
<g id="a_node5"><a xlink:href="jngl_8hpp_source.html" target="_top" xlink:title=" ">
<polygon fill="#ffffff" stroke="#000000" points="302,-.5 302,-19.5 367,-19.5 367,-.5 302,-.5"/>
<text text-anchor="middle" x="334.5" y="-7.5" font-family="'Consolas',monospace" font-size="10.00" fill="#000000">jngl.hpp</text>
</a>
</g>
</g>
<!-- Node6&#45;&gt;Node7 -->
<g id="edge4" class="edge">
<title>Node6&#45;&gt;Node7</title>
<path fill="none" stroke="#191970" d="M334.5,-46.1575C334.5,-37.155 334.5,-26.9199 334.5,-19.6427"/>
<polygon fill="#191970" stroke="#191970" points="331.0001,-46.2455 334.5,-56.2455 338.0001,-46.2456 331.0001,-46.2455"/>
</g>
<!-- Node8&#45;&gt;Node6 -->
<g id="edge9" class="edge">
<title>Node8&#45;&gt;Node6</title>
<path fill="none" stroke="#191970" d="M248.8466,-163.2768C227.4136,-150.5797 204.3547,-131.2931 217.5,-112 226.9323,-98.1565 267.1184,-84.3759 297.7865,-75.56"/>
<polygon fill="#191970" stroke="#191970" points="247.3859,-166.4701 257.8223,-168.2958 250.8023,-160.3603 247.3859,-166.4701"/>
</g>
<!-- Node9 -->
<g id="node7" class="node">
<title>Node9</title>
<g id="a_node7"><a xlink:href="Video_8hpp.html" target="_top" xlink:title=" ">
<polygon fill="#ffffff" stroke="#000000" points="226,-112.5 226,-131.5 327,-131.5 327,-112.5 226,-112.5"/>
<text text-anchor="middle" x="276.5" y="-119.5" font-family="'Consolas',monospace" font-size="10.00" fill="#000000">jngl/Video.hpp</text>
</a>
</g>
</g>
<!-- Node8&#45;&gt;Node9 -->
<g id="edge7" class="edge">
<title>Node8&#45;&gt;Node9</title>
<path fill="none" stroke="#191970" d="M277.7913,-158.1575C277.4698,-149.155 277.1043,-138.9199 276.8444,-131.6427"/>
<polygon fill="#191970" stroke="#191970" points="274.2968,-158.3769 278.1516,-168.2455 281.2924,-158.127 274.2968,-158.3769"/>
</g>
<!-- Node9&#45;&gt;Node6 -->
<g id="edge8" class="edge">
<title>Node9&#45;&gt;Node6</title>
<path fill="none" stroke="#191970" d="M294.0293,-105.0751C304.0083,-95.4402 316.1476,-83.7196 324.5129,-75.6427"/>
<polygon fill="#191970" stroke="#191970" points="291.3658,-102.7817 286.6028,-112.2455 296.228,-107.8175 291.3658,-102.7817"/>
</g>
<!-- Node10&#45;&gt;Node6 -->
<g id="edge11" class="edge">
<title>Node10&#45;&gt;Node6</title>
<path fill="none" stroke="#191970" d="M374.9707,-105.0751C364.9917,-95.4402 352.8524,-83.7196 344.4871,-75.6427"/>
<polygon fill="#191970" stroke="#191970" points="372.772,-107.8175 382.3972,-112.2455 377.6342,-102.7817 372.772,-107.8175"/>
</g>
<!-- Node11&#45;&gt;Node6 -->
<g id="edge13" class="edge">
<title>Node11&#45;&gt;Node6</title>
<path fill="none" stroke="#191970" d="M481.1643,-109.4561C446.4706,-99.1765 398.1166,-84.8494 366.5663,-75.5011"/>
<polygon fill="#191970" stroke="#191970" points="480.4274,-112.8881 491.0097,-112.3733 482.4161,-106.1765 480.4274,-112.8881"/>
</g>
<!-- Node12&#45;&gt;Node6 -->
<g id="edge15" class="edge">
<title>Node12&#45;&gt;Node6</title>
<path fill="none" stroke="#191970" d="M560.5548,-164.0141C586.4832,-151.3729 615.1201,-131.7664 598.5,-112 570.9917,-79.2841 446.9604,-69.8343 379.1416,-67.1062"/>
<polygon fill="#191970" stroke="#191970" points="558.8147,-160.9629 551.2137,-168.3436 561.7584,-167.3139 558.8147,-160.9629"/>
</g>
<!-- Node13&#45;&gt;Node6 -->
<g id="edge17" class="edge">
<title>Node13&#45;&gt;Node6</title>
<path fill="none" stroke="#191970" d="M647.1986,-158.5712C641.2346,-143.4086 630.744,-123.1121 614.5,-112 576.9917,-86.3414 448.1125,-73.7743 379.0472,-68.7559"/>
<polygon fill="#191970" stroke="#191970" points="643.9387,-159.8491 650.6193,-168.0722 650.5248,-157.4778 643.9387,-159.8491"/>
</g>
</g>
</svg>
