<?xml version="1.0" encoding="UTF-8" standalone="no"?>
<!DOCTYPE svg PUBLIC "-//W3C//DTD SVG 1.1//EN"
 "http://www.w3.org/Graphics/SVG/1.1/DTD/svg11.dtd">
<!-- Generated by graphviz version 2.44.0 (0)
 -->
<!-- Title: jngl/Vec2.hpp Pages: 1 -->
<svg width="1047pt" height="308pt"
 viewBox="0.00 0.00 1046.71 308.00" xmlns="http://www.w3.org/2000/svg" xmlns:xlink="http://www.w3.org/1999/xlink">
<g id="graph0" class="graph" transform="scale(1 1) rotate(0) translate(4 304)">
<title>jngl/Vec2.hpp</title>
<polygon fill="white" stroke="transparent" points="-4,4 -4,-304 1042.71,-304 1042.71,4 -4,4"/>
<!-- Node1 -->
<g id="node1" class="node">
<title>Node1</title>
<g id="a_node1"><a xlink:title="Contains jngl::Vec2 class.">
<polygon fill="#bfbfbf" stroke="black" points="599,-280.5 599,-299.5 694,-299.5 694,-280.5 599,-280.5"/>
<text text-anchor="middle" x="646.5" y="-287.5" font-family="'Consolas',monospace" font-size="10.00">jngl/Vec2.hpp</text>
</a>
</g>
</g>
<!-- Node2 -->
<g id="node2" class="node">
<title>Node2</title>
<g id="a_node2"><a xlink:href="AppParameters_8hpp.html" target="_top" xlink:title="Contains jngl::AppParameters struct.">
<polygon fill="white" stroke="black" points="0,-224.5 0,-243.5 149,-243.5 149,-224.5 0,-224.5"/>
<text text-anchor="middle" x="74.5" y="-231.5" font-family="'Consolas',monospace" font-size="10.00">jngl/AppParameters.hpp</text>
</a>
</g>
</g>
<!-- Node1&#45;&gt;Node2 -->
<g id="edge1" class="edge">
<title>Node1&#45;&gt;Node2</title>
<path fill="none" stroke="midnightblue" d="M588.77,-283.99C497.26,-275.99 313.31,-259.62 157.5,-244 154.76,-243.73 151.97,-243.44 149.15,-243.15"/>
<polygon fill="midnightblue" stroke="midnightblue" points="588.66,-287.5 598.93,-284.88 589.27,-280.52 588.66,-287.5"/>
</g>
<!-- Node4 -->
<g id="node4" class="node">
<title>Node4</title>
<g id="a_node4"><a xlink:href="Drawable_8hpp.html" target="_top" xlink:title="Contains jngl::Drawable class.">
<polygon fill="white" stroke="black" points="343,-224.5 343,-243.5 462,-243.5 462,-224.5 343,-224.5"/>
<text text-anchor="middle" x="402.5" y="-231.5" font-family="'Consolas',monospace" font-size="10.00">jngl/Drawable.hpp</text>
</a>
</g>
</g>
<!-- Node1&#45;&gt;Node4 -->
<g id="edge3" class="edge">
<title>Node1&#45;&gt;Node4</title>
<path fill="none" stroke="midnightblue" d="M598.07,-278.28C551.96,-268.08 483.47,-252.92 440.98,-243.52"/>
<polygon fill="midnightblue" stroke="midnightblue" points="597.32,-281.7 607.84,-280.44 598.83,-274.87 597.32,-281.7"/>
</g>
<!-- Node7 -->
<g id="node7" class="node">
<title>Node7</title>
<g id="a_node7"><a xlink:href="sprite_8hpp.html" target="_top" xlink:title="Contains jngl::Sprite class and related functions.">
<polygon fill="white" stroke="black" points="179,-168.5 179,-187.5 286,-187.5 286,-168.5 179,-168.5"/>
<text text-anchor="middle" x="232.5" y="-175.5" font-family="'Consolas',monospace" font-size="10.00">jngl/sprite.hpp</text>
</a>
</g>
</g>
<!-- Node1&#45;&gt;Node7 -->
<g id="edge28" class="edge">
<title>Node1&#45;&gt;Node7</title>
<path fill="none" stroke="midnightblue" d="M588.48,-288.01C524.24,-285.25 418.52,-275.74 333.5,-244 296.97,-230.36 259.92,-201.97 242.6,-187.65"/>
<polygon fill="midnightblue" stroke="midnightblue" points="588.69,-291.52 598.82,-288.41 588.96,-284.52 588.69,-291.52"/>
</g>
<!-- Node11 -->
<g id="node11" class="node">
<title>Node11</title>
<g id="a_node11"><a xlink:href="font_8hpp.html" target="_top" xlink:title="Contains jngl::Font class and related functions.">
<polygon fill="white" stroke="black" points="588,-112.5 588,-131.5 683,-131.5 683,-112.5 588,-112.5"/>
<text text-anchor="middle" x="635.5" y="-119.5" font-family="'Consolas',monospace" font-size="10.00">jngl/font.hpp</text>
</a>
</g>
</g>
<!-- Node1&#45;&gt;Node11 -->
<g id="edge15" class="edge">
<title>Node1&#45;&gt;Node11</title>
<path fill="none" stroke="midnightblue" d="M664.56,-273.68C689.55,-250.53 729.37,-205.38 708.5,-168 698.56,-150.19 678.35,-138.56 661.71,-131.59"/>
<polygon fill="midnightblue" stroke="midnightblue" points="662.18,-271.11 657.06,-280.38 666.85,-276.32 662.18,-271.11"/>
</g>
<!-- Node12 -->
<g id="node12" class="node">
<title>Node12</title>
<g id="a_node12"><a xlink:href="framebuffer_8hpp.html" target="_top" xlink:title="Contains jngl::FrameBuffer class.">
<polygon fill="white" stroke="black" points="701,-112.5 701,-131.5 832,-131.5 832,-112.5 701,-112.5"/>
<text text-anchor="middle" x="766.5" y="-119.5" font-family="'Consolas',monospace" font-size="10.00">jngl/framebuffer.hpp</text>
</a>
</g>
</g>
<!-- Node1&#45;&gt;Node12 -->
<g id="edge17" class="edge">
<title>Node1&#45;&gt;Node12</title>
<path fill="none" stroke="midnightblue" d="M673.65,-275.52C687.05,-267.79 702.62,-257.02 713.5,-244 743.5,-208.1 759.34,-152.58 764.54,-131.51"/>
<polygon fill="midnightblue" stroke="midnightblue" points="671.89,-272.5 664.81,-280.38 675.26,-278.63 671.89,-272.5"/>
</g>
<!-- Node13 -->
<g id="node13" class="node">
<title>Node13</title>
<g id="a_node13"><a xlink:href="input_8hpp.html" target="_top" xlink:title="Input related functions.">
<polygon fill="white" stroke="black" points="810,-168.5 810,-187.5 911,-187.5 911,-168.5 810,-168.5"/>
<text text-anchor="middle" x="860.5" y="-175.5" font-family="'Consolas',monospace" font-size="10.00">jngl/input.hpp</text>
</a>
</g>
</g>
<!-- Node1&#45;&gt;Node13 -->
<g id="edge19" class="edge">
<title>Node1&#45;&gt;Node13</title>
<path fill="none" stroke="midnightblue" d="M693.06,-277.81C719.64,-270.34 753.05,-259.11 780.5,-244 809.35,-228.12 838.05,-201.49 851.92,-187.76"/>
<polygon fill="midnightblue" stroke="midnightblue" points="691.96,-274.48 683.23,-280.48 693.79,-281.23 691.96,-274.48"/>
</g>
<!-- Node15 -->
<g id="node15" class="node">
<title>Node15</title>
<g id="a_node15"><a xlink:href="screen_8hpp.html" target="_top" xlink:title=" ">
<polygon fill="white" stroke="black" points="167,-224.5 167,-243.5 274,-243.5 274,-224.5 167,-224.5"/>
<text text-anchor="middle" x="220.5" y="-231.5" font-family="'Consolas',monospace" font-size="10.00">jngl/screen.hpp</text>
</a>
</g>
</g>
<!-- Node1&#45;&gt;Node15 -->
<g id="edge23" class="edge">
<title>Node1&#45;&gt;Node15</title>
<path fill="none" stroke="midnightblue" d="M588.88,-281.7C506.11,-271.2 354.67,-252.01 274.15,-241.8"/>
<polygon fill="midnightblue" stroke="midnightblue" points="588.51,-285.18 598.87,-282.96 589.39,-278.23 588.51,-285.18"/>
</g>
<!-- Node16 -->
<g id="node16" class="node">
<title>Node16</title>
<g id="a_node16"><a xlink:href="shapes_8hpp.html" target="_top" xlink:title="Functions for drawing shapes.">
<polygon fill="white" stroke="black" points="928,-224.5 928,-243.5 1035,-243.5 1035,-224.5 928,-224.5"/>
<text text-anchor="middle" x="981.5" y="-231.5" font-family="'Consolas',monospace" font-size="10.00">jngl/shapes.hpp</text>
</a>
</g>
</g>
<!-- Node1&#45;&gt;Node16 -->
<g id="edge26" class="edge">
<title>Node1&#45;&gt;Node16</title>
<path fill="none" stroke="midnightblue" d="M704.31,-279.68C767.36,-269.52 867.41,-253.39 928.5,-243.54"/>
<polygon fill="midnightblue" stroke="midnightblue" points="703.46,-276.27 694.14,-281.32 704.57,-283.18 703.46,-276.27"/>
</g>
<!-- Node17 -->
<g id="node17" class="node">
<title>Node17</title>
<g id="a_node17"><a xlink:href="Widget_8hpp.html" target="_top" xlink:title="Contains jngl::Container class.">
<polygon fill="white" stroke="black" points="593,-168.5 593,-187.5 700,-187.5 700,-168.5 593,-168.5"/>
<text text-anchor="middle" x="646.5" y="-175.5" font-family="'Consolas',monospace" font-size="10.00">jngl/Widget.hpp</text>
</a>
</g>
</g>
<!-- Node1&#45;&gt;Node17 -->
<g id="edge29" class="edge">
<title>Node1&#45;&gt;Node17</title>
<path fill="none" stroke="midnightblue" d="M646.5,-270.35C646.5,-246.25 646.5,-205.31 646.5,-187.59"/>
<polygon fill="midnightblue" stroke="midnightblue" points="643,-270.37 646.5,-280.37 650,-270.37 643,-270.37"/>
</g>
<!-- Node3 -->
<g id="node3" class="node">
<title>Node3</title>
<g id="a_node3"><a xlink:href="init_8hpp.html" target="_top" xlink:title="Include this file only once, as it defines the main function.">
<polygon fill="white" stroke="black" points="27,-168.5 27,-187.5 122,-187.5 122,-168.5 27,-168.5"/>
<text text-anchor="middle" x="74.5" y="-175.5" font-family="'Consolas',monospace" font-size="10.00">jngl/init.hpp</text>
</a>
</g>
</g>
<!-- Node2&#45;&gt;Node3 -->
<g id="edge2" class="edge">
<title>Node2&#45;&gt;Node3</title>
<path fill="none" stroke="midnightblue" d="M74.5,-213.8C74.5,-204.91 74.5,-194.78 74.5,-187.75"/>
<polygon fill="midnightblue" stroke="midnightblue" points="71,-214.08 74.5,-224.08 78,-214.08 71,-214.08"/>
</g>
<!-- Node5 -->
<g id="node5" class="node">
<title>Node5</title>
<g id="a_node5"><a xlink:href="all_8hpp.html" target="_top" xlink:title="Includes all JNGL headers except for init.hpp.">
<polygon fill="white" stroke="black" points="475,-56.5 475,-75.5 564,-75.5 564,-56.5 475,-56.5"/>
<text text-anchor="middle" x="519.5" y="-63.5" font-family="'Consolas',monospace" font-size="10.00">jngl/all.hpp</text>
</a>
</g>
</g>
<!-- Node4&#45;&gt;Node5 -->
<g id="edge4" class="edge">
<title>Node4&#45;&gt;Node5</title>
<path fill="none" stroke="midnightblue" d="M370.76,-219.96C348.04,-208.47 323.15,-190.14 333.5,-168 359.02,-113.41 428.18,-87.31 474.59,-75.61"/>
<polygon fill="midnightblue" stroke="midnightblue" points="369.39,-223.19 379.93,-224.31 372.39,-216.86 369.39,-223.19"/>
</g>
<!-- Node4&#45;&gt;Node7 -->
<g id="edge6" class="edge">
<title>Node4&#45;&gt;Node7</title>
<path fill="none" stroke="midnightblue" d="M365.68,-221.3C333.65,-211.13 287.98,-196.62 259.31,-187.52"/>
<polygon fill="midnightblue" stroke="midnightblue" points="364.97,-224.75 375.56,-224.44 367.09,-218.08 364.97,-224.75"/>
</g>
<!-- Node8 -->
<g id="node8" class="node">
<title>Node8</title>
<g id="a_node8"><a xlink:href="text_8hpp.html" target="_top" xlink:title=" ">
<polygon fill="white" stroke="black" points="480,-168.5 480,-187.5 575,-187.5 575,-168.5 480,-168.5"/>
<text text-anchor="middle" x="527.5" y="-175.5" font-family="'Consolas',monospace" font-size="10.00">jngl/text.hpp</text>
</a>
</g>
</g>
<!-- Node4&#45;&gt;Node8 -->
<g id="edge8" class="edge">
<title>Node4&#45;&gt;Node8</title>
<path fill="none" stroke="midnightblue" d="M431.74,-220.37C455.15,-210.26 487.34,-196.35 507.79,-187.52"/>
<polygon fill="midnightblue" stroke="midnightblue" points="430.1,-217.26 422.31,-224.44 432.87,-223.69 430.1,-217.26"/>
</g>
<!-- Node10 -->
<g id="node10" class="node">
<title>Node10</title>
<g id="a_node10"><a xlink:href="TextLine_8hpp.html" target="_top" xlink:title="Contains jngl::TextLine class.">
<polygon fill="white" stroke="black" points="343,-168.5 343,-187.5 462,-187.5 462,-168.5 343,-168.5"/>
<text text-anchor="middle" x="402.5" y="-175.5" font-family="'Consolas',monospace" font-size="10.00">jngl/TextLine.hpp</text>
</a>
</g>
</g>
<!-- Node4&#45;&gt;Node10 -->
<g id="edge12" class="edge">
<title>Node4&#45;&gt;Node10</title>
<path fill="none" stroke="midnightblue" d="M402.5,-213.8C402.5,-204.91 402.5,-194.78 402.5,-187.75"/>
<polygon fill="midnightblue" stroke="midnightblue" points="399,-214.08 402.5,-224.08 406,-214.08 399,-214.08"/>
</g>
<!-- Node6 -->
<g id="node6" class="node">
<title>Node6</title>
<g id="a_node6"><a xlink:href="jngl_8hpp.html" target="_top" xlink:title="Includes jngl/all.hpp.">
<polygon fill="white" stroke="black" points="487,-0.5 487,-19.5 552,-19.5 552,-0.5 487,-0.5"/>
<text text-anchor="middle" x="519.5" y="-7.5" font-family="'Consolas',monospace" font-size="10.00">jngl.hpp</text>
</a>
</g>
</g>
<!-- Node5&#45;&gt;Node6 -->
<g id="edge5" class="edge">
<title>Node5&#45;&gt;Node6</title>
<path fill="none" stroke="midnightblue" d="M519.5,-45.8C519.5,-36.91 519.5,-26.78 519.5,-19.75"/>
<polygon fill="midnightblue" stroke="midnightblue" points="516,-46.08 519.5,-56.08 523,-46.08 516,-46.08"/>
</g>
<!-- Node7&#45;&gt;Node5 -->
<g id="edge7" class="edge">
<title>Node7&#45;&gt;Node5</title>
<path fill="none" stroke="midnightblue" d="M245.32,-160.26C257.75,-145.23 278.01,-123.79 300.5,-112 356.02,-82.9 428.65,-72.61 474.7,-68.97"/>
<polygon fill="midnightblue" stroke="midnightblue" points="242.45,-158.24 238.94,-168.24 247.91,-162.61 242.45,-158.24"/>
</g>
<!-- Node8&#45;&gt;Node5 -->
<g id="edge9" class="edge">
<title>Node8&#45;&gt;Node5</title>
<path fill="none" stroke="midnightblue" d="M470.16,-166.29C451.1,-159.7 431.85,-149.09 420.5,-132 402.01,-104.17 446.89,-85.48 482.13,-75.54"/>
<polygon fill="midnightblue" stroke="midnightblue" points="469.18,-169.65 479.77,-169.29 471.27,-162.97 469.18,-169.65"/>
</g>
<!-- Node9 -->
<g id="node9" class="node">
<title>Node9</title>
<g id="a_node9"><a xlink:href="Label_8hpp.html" target="_top" xlink:title="Contains jngl::Label class.">
<polygon fill="white" stroke="black" points="430,-112.5 430,-131.5 531,-131.5 531,-112.5 430,-112.5"/>
<text text-anchor="middle" x="480.5" y="-119.5" font-family="'Consolas',monospace" font-size="10.00">jngl/Label.hpp</text>
</a>
</g>
</g>
<!-- Node8&#45;&gt;Node9 -->
<g id="edge10" class="edge">
<title>Node8&#45;&gt;Node9</title>
<path fill="none" stroke="midnightblue" d="M513.08,-160.43C504.84,-150.97 494.85,-139.48 488.12,-131.75"/>
<polygon fill="midnightblue" stroke="midnightblue" points="510.53,-162.84 519.74,-168.08 515.81,-158.24 510.53,-162.84"/>
</g>
<!-- Node9&#45;&gt;Node5 -->
<g id="edge11" class="edge">
<title>Node9&#45;&gt;Node5</title>
<path fill="none" stroke="midnightblue" d="M492.88,-103.86C499.64,-94.5 507.71,-83.33 513.18,-75.75"/>
<polygon fill="midnightblue" stroke="midnightblue" points="489.96,-101.93 486.94,-112.08 495.63,-106.03 489.96,-101.93"/>
</g>
<!-- Node10&#45;&gt;Node5 -->
<g id="edge13" class="edge">
<title>Node10&#45;&gt;Node5</title>
<path fill="none" stroke="midnightblue" d="M400.77,-158.35C400.45,-144.22 402.3,-125.07 412.5,-112 427.69,-92.54 452.84,-81.4 474.94,-75.07"/>
<polygon fill="midnightblue" stroke="midnightblue" points="397.28,-158.62 401.36,-168.4 404.26,-158.21 397.28,-158.62"/>
</g>
<!-- Node10&#45;&gt;Node9 -->
<g id="edge14" class="edge">
<title>Node10&#45;&gt;Node9</title>
<path fill="none" stroke="midnightblue" d="M423.27,-162.62C437.52,-152.76 455.96,-139.99 468,-131.65"/>
<polygon fill="midnightblue" stroke="midnightblue" points="421.26,-159.75 415.03,-168.32 425.25,-165.51 421.26,-159.75"/>
</g>
<!-- Node11&#45;&gt;Node5 -->
<g id="edge16" class="edge">
<title>Node11&#45;&gt;Node5</title>
<path fill="none" stroke="midnightblue" d="M607.78,-108.1C586.11,-98.01 556.6,-84.27 537.79,-75.52"/>
<polygon fill="midnightblue" stroke="midnightblue" points="606.58,-111.4 617.12,-112.44 609.53,-105.05 606.58,-111.4"/>
</g>
<!-- Node12&#45;&gt;Node5 -->
<g id="edge18" class="edge">
<title>Node12&#45;&gt;Node5</title>
<path fill="none" stroke="midnightblue" d="M717.47,-110.28C670.8,-100.08 601.47,-84.92 558.45,-75.52"/>
<polygon fill="midnightblue" stroke="midnightblue" points="716.85,-113.73 727.36,-112.44 718.34,-106.89 716.85,-113.73"/>
</g>
<!-- Node13&#45;&gt;Node5 -->
<g id="edge20" class="edge">
<title>Node13&#45;&gt;Node5</title>
<path fill="none" stroke="midnightblue" d="M859.93,-158.17C858.42,-143.35 853.82,-123.35 840.5,-112 799.76,-77.28 642.29,-69.31 564.08,-67.51"/>
<polygon fill="midnightblue" stroke="midnightblue" points="856.45,-158.52 860.58,-168.27 863.43,-158.07 856.45,-158.52"/>
</g>
<!-- Node14 -->
<g id="node14" class="node">
<title>Node14</title>
<g id="a_node14"><a xlink:href="Controller_8hpp.html" target="_top" xlink:title="Contains jngl::Controller class.">
<polygon fill="white" stroke="black" points="889,-112.5 889,-131.5 1020,-131.5 1020,-112.5 889,-112.5"/>
<text text-anchor="middle" x="954.5" y="-119.5" font-family="'Consolas',monospace" font-size="10.00">jngl/Controller.hpp</text>
</a>
</g>
</g>
<!-- Node13&#45;&gt;Node14 -->
<g id="edge21" class="edge">
<title>Node13&#45;&gt;Node14</title>
<path fill="none" stroke="midnightblue" d="M884.56,-163.18C901.86,-153.24 924.65,-140.15 939.43,-131.65"/>
<polygon fill="midnightblue" stroke="midnightblue" points="882.53,-160.31 875.6,-168.32 886.02,-166.38 882.53,-160.31"/>
</g>
<!-- Node14&#45;&gt;Node5 -->
<g id="edge22" class="edge">
<title>Node14&#45;&gt;Node5</title>
<path fill="none" stroke="midnightblue" d="M878.93,-111.62C787.97,-100.33 638.23,-81.74 564.03,-72.53"/>
<polygon fill="midnightblue" stroke="midnightblue" points="878.55,-115.1 888.91,-112.86 879.41,-108.15 878.55,-115.1"/>
</g>
<!-- Node15&#45;&gt;Node3 -->
<g id="edge25" class="edge">
<title>Node15&#45;&gt;Node3</title>
<path fill="none" stroke="midnightblue" d="M187.8,-220.91C160.35,-210.75 121.83,-196.51 97.53,-187.52"/>
<polygon fill="midnightblue" stroke="midnightblue" points="186.77,-224.26 197.37,-224.44 189.2,-217.69 186.77,-224.26"/>
</g>
<!-- Node15&#45;&gt;Node5 -->
<g id="edge24" class="edge">
<title>Node15&#45;&gt;Node5</title>
<path fill="none" stroke="midnightblue" d="M196.36,-218.66C178.32,-206.01 158.53,-186.72 169.5,-168 195.26,-124.05 221.55,-129.19 269.5,-112 338.83,-87.14 424.09,-75.57 475,-70.52"/>
<polygon fill="midnightblue" stroke="midnightblue" points="194.66,-221.73 204.93,-224.31 198.51,-215.88 194.66,-221.73"/>
</g>
<!-- Node16&#45;&gt;Node5 -->
<g id="edge27" class="edge">
<title>Node16&#45;&gt;Node5</title>
<path fill="none" stroke="midnightblue" d="M997.47,-216.63C1020.25,-191.33 1056.39,-142.47 1028.5,-112 997.43,-78.06 682.32,-69.57 564.04,-67.58"/>
<polygon fill="midnightblue" stroke="midnightblue" points="994.63,-214.55 990.37,-224.25 999.75,-219.32 994.63,-214.55"/>
</g>
<!-- Node17&#45;&gt;Node5 -->
<g id="edge30" class="edge">
<title>Node17&#45;&gt;Node5</title>
<path fill="none" stroke="midnightblue" d="M622.42,-163.11C608.92,-154.83 592.12,-143.68 578.5,-132 557.45,-113.94 536.51,-88.7 526.16,-75.63"/>
<polygon fill="midnightblue" stroke="midnightblue" points="620.77,-166.2 631.15,-168.35 624.38,-160.2 620.77,-166.2"/>
</g>
<!-- Node17&#45;&gt;Node9 -->
<g id="edge31" class="edge">
<title>Node17&#45;&gt;Node9</title>
<path fill="none" stroke="midnightblue" d="M610.55,-165.3C579.27,-155.13 534.68,-140.62 506.68,-131.52"/>
<polygon fill="midnightblue" stroke="midnightblue" points="609.6,-168.68 620.2,-168.44 611.77,-162.02 609.6,-168.68"/>
</g>
</g>
</svg>
