<?xml version="1.0" encoding="UTF-8" standalone="no"?>
<!DOCTYPE svg PUBLIC "-//W3C//DTD SVG 1.1//EN"
 "http://www.w3.org/Graphics/SVG/1.1/DTD/svg11.dtd">
<!-- Generated by graphviz version 12.1.0 (20240811.2233)
 -->
<!-- Title: jngl/Vec2.hpp Pages: 1 -->
<svg width="1734pt" height="248pt"
 viewBox="0.00 0.00 1734.00 248.25" xmlns="http://www.w3.org/2000/svg" xmlns:xlink="http://www.w3.org/1999/xlink">
<g id="graph0" class="graph" transform="scale(1 1) rotate(0) translate(4 244.25)">
<title>jngl/Vec2.hpp</title>
<!-- Node1 -->
<g id="Node000001" class="node">
<title>Node1</title>
<g id="a_Node000001"><a xlink:title="Contains jngl::Vec2 class.">
<polygon fill="#999999" stroke="#666666" points="919,-240.25 825,-240.25 825,-221 919,-221 919,-240.25"/>
<text text-anchor="middle" x="872" y="-226.75" font-family="ui-monospace,monospace" font-size="10.00">jngl/Vec2.hpp</text>
</a>
</g>
</g>
<!-- Node2 -->
<g id="Node000002" class="node">
<title>Node2</title>
<g id="a_Node000002"><a xlink:href="AppParameters_8hpp.html" target="_top" xlink:title="Contains jngl::AppParameters struct.">
<polygon fill="white" stroke="#666666" points="196,-185 48,-185 48,-165.75 196,-165.75 196,-185"/>
<text text-anchor="middle" x="122" y="-171.5" font-family="ui-monospace,monospace" font-size="10.00">jngl/AppParameters.hpp</text>
</a>
</g>
</g>
<!-- Node1&#45;&gt;Node2 -->
<g id="edge1_Node000001_Node000002" class="edge">
<title>Node1&#45;&gt;Node2</title>
<g id="a_edge1_Node000001_Node000002"><a xlink:title=" ">
<path fill="none" stroke="#63b8ff" d="M813.37,-225.66C700.97,-218.04 447.37,-200.68 234,-185 221.84,-184.11 208.95,-183.14 196.4,-182.18"/>
<polygon fill="#63b8ff" stroke="#63b8ff" points="813.05,-229.15 823.26,-226.33 813.52,-222.16 813.05,-229.15"/>
</a>
</g>
</g>
<!-- Node5 -->
<g id="Node000005" class="node">
<title>Node5</title>
<g id="a_Node000005"><a xlink:href="Drawable_8hpp.html" target="_top" xlink:title="Contains jngl::Drawable class.">
<polygon fill="white" stroke="#666666" points="406,-185 288,-185 288,-165.75 406,-165.75 406,-185"/>
<text text-anchor="middle" x="347" y="-171.5" font-family="ui-monospace,monospace" font-size="10.00">jngl/Drawable.hpp</text>
</a>
</g>
</g>
<!-- Node1&#45;&gt;Node5 -->
<g id="edge4_Node000001_Node000005" class="edge">
<title>Node1&#45;&gt;Node5</title>
<g id="a_edge4_Node000001_Node000005"><a xlink:title=" ">
<path fill="none" stroke="#63b8ff" d="M813.8,-223.72C713.2,-213.52 507.88,-192.69 406.44,-182.4"/>
<polygon fill="#63b8ff" stroke="#63b8ff" points="813.14,-227.17 823.44,-224.7 813.85,-220.21 813.14,-227.17"/>
</a>
</g>
</g>
<!-- Node6 -->
<g id="Node000006" class="node">
<title>Node6</title>
<g id="a_Node000006"><a xlink:href="Sprite_8hpp.html" target="_top" xlink:title="Contains jngl::Sprite class and related functions.">
<polygon fill="white" stroke="#666666" points="256,-129.75 150,-129.75 150,-110.5 256,-110.5 256,-129.75"/>
<text text-anchor="middle" x="203" y="-116.25" font-family="ui-monospace,monospace" font-size="10.00">jngl/Sprite.hpp</text>
</a>
</g>
</g>
<!-- Node1&#45;&gt;Node6 -->
<g id="edge18_Node000001_Node000006" class="edge">
<title>Node1&#45;&gt;Node6</title>
<g id="a_edge18_Node000001_Node000006"><a xlink:title=" ">
<path fill="none" stroke="#63b8ff" d="M813.42,-229.75C683.41,-229.3 374.71,-224.01 279,-185 249.31,-172.9 222.64,-144.66 210.28,-130.13"/>
<polygon fill="#63b8ff" stroke="#63b8ff" points="813.17,-233.25 823.18,-229.77 813.18,-226.25 813.17,-233.25"/>
</a>
</g>
</g>
<!-- Node9 -->
<g id="Node000009" class="node">
<title>Node9</title>
<g id="a_Node000009"><a xlink:href="FrameBuffer_8hpp.html" target="_top" xlink:title="Contains jngl::FrameBuffer class.">
<polygon fill="white" stroke="#666666" points="674,-74.5 544,-74.5 544,-55.25 674,-55.25 674,-74.5"/>
<text text-anchor="middle" x="609" y="-61" font-family="ui-monospace,monospace" font-size="10.00">jngl/FrameBuffer.hpp</text>
</a>
</g>
</g>
<!-- Node1&#45;&gt;Node9 -->
<g id="edge12_Node000001_Node000009" class="edge">
<title>Node1&#45;&gt;Node9</title>
<g id="a_edge12_Node000001_Node000009"><a xlink:title=" ">
<path fill="none" stroke="#63b8ff" d="M847.78,-214.55C794.12,-181.13 666.52,-101.69 623.47,-74.88"/>
<polygon fill="#63b8ff" stroke="#63b8ff" points="845.86,-217.47 856.2,-219.79 849.56,-211.53 845.86,-217.47"/>
</a>
</g>
</g>
<!-- Node10 -->
<g id="Node000010" class="node">
<title>Node10</title>
<g id="a_Node000010"><a xlink:href="MouseInfo_8hpp.html" target="_top" xlink:title="Contains jngl::MouseInfo class.">
<polygon fill="white" stroke="#666666" points="816,-74.5 692,-74.5 692,-55.25 816,-55.25 816,-74.5"/>
<text text-anchor="middle" x="754" y="-61" font-family="ui-monospace,monospace" font-size="10.00">jngl/MouseInfo.hpp</text>
</a>
</g>
</g>
<!-- Node1&#45;&gt;Node10 -->
<g id="edge14_Node000001_Node000010" class="edge">
<title>Node1&#45;&gt;Node10</title>
<g id="a_edge14_Node000001_Node000010"><a xlink:title=" ">
<path fill="none" stroke="#63b8ff" d="M859.14,-211.77C833.97,-176.86 779.06,-100.66 760.38,-74.72"/>
<polygon fill="#63b8ff" stroke="#63b8ff" points="856.09,-213.53 864.77,-219.59 861.76,-209.43 856.09,-213.53"/>
</a>
</g>
</g>
<!-- Node11 -->
<g id="Node000011" class="node">
<title>Node11</title>
<g id="a_Node000011"><a xlink:href="Rect_8hpp.html" target="_top" xlink:title="Contains jngl::Rect class.">
<polygon fill="white" stroke="#666666" points="928,-74.5 834,-74.5 834,-55.25 928,-55.25 928,-74.5"/>
<text text-anchor="middle" x="881" y="-61" font-family="ui-monospace,monospace" font-size="10.00">jngl/Rect.hpp</text>
</a>
</g>
</g>
<!-- Node1&#45;&gt;Node11 -->
<g id="edge16_Node000001_Node000011" class="edge">
<title>Node1&#45;&gt;Node11</title>
<g id="a_edge16_Node000001_Node000011"><a xlink:title=" ">
<path fill="none" stroke="#63b8ff" d="M873.11,-209.47C875.08,-173.61 879.12,-100.1 880.51,-74.72"/>
<polygon fill="#63b8ff" stroke="#63b8ff" points="869.62,-209.13 872.57,-219.31 876.61,-209.52 869.62,-209.13"/>
</a>
</g>
</g>
<!-- Node12 -->
<g id="Node000012" class="node">
<title>Node12</title>
<g id="a_Node000012"><a xlink:href="TextLine_8hpp.html" target="_top" xlink:title="Contains jngl::TextLine class.">
<polygon fill="white" stroke="#666666" points="542,-129.75 424,-129.75 424,-110.5 542,-110.5 542,-129.75"/>
<text text-anchor="middle" x="483" y="-116.25" font-family="ui-monospace,monospace" font-size="10.00">jngl/TextLine.hpp</text>
</a>
</g>
</g>
<!-- Node1&#45;&gt;Node12 -->
<g id="edge19_Node000001_Node000012" class="edge">
<title>Node1&#45;&gt;Node12</title>
<g id="a_edge19_Node000001_Node000012"><a xlink:title=" ">
<path fill="none" stroke="#63b8ff" d="M819.29,-218C781.91,-209.51 730.66,-197.37 686,-185 622.26,-167.35 548.41,-143.15 509.75,-130.19"/>
<polygon fill="#63b8ff" stroke="#63b8ff" points="818.42,-221.4 828.94,-220.18 819.96,-214.57 818.42,-221.4"/>
</a>
</g>
</g>
<!-- Node13 -->
<g id="Node000013" class="node">
<title>Node13</title>
<g id="a_Node000013"><a xlink:href="Widget_8hpp.html" target="_top" xlink:title="Contains jngl::Container class.">
<polygon fill="white" stroke="#666666" points="666,-129.75 560,-129.75 560,-110.5 666,-110.5 666,-129.75"/>
<text text-anchor="middle" x="613" y="-116.25" font-family="ui-monospace,monospace" font-size="10.00">jngl/Widget.hpp</text>
</a>
</g>
</g>
<!-- Node1&#45;&gt;Node13 -->
<g id="edge22_Node000001_Node000013" class="edge">
<title>Node1&#45;&gt;Node13</title>
<g id="a_edge22_Node000001_Node000013"><a xlink:title=" ">
<path fill="none" stroke="#63b8ff" d="M825.21,-217.59C796.86,-209.67 760.26,-198.32 729,-185 690.72,-168.68 648.58,-143.51 627.18,-130.16"/>
<polygon fill="#63b8ff" stroke="#63b8ff" points="824,-220.89 834.57,-220.16 825.85,-214.14 824,-220.89"/>
</a>
</g>
</g>
<!-- Node14 -->
<g id="Node000014" class="node">
<title>Node14</title>
<g id="a_Node000014"><a xlink:href="effects_8hpp.html" target="_top" xlink:title="Effects that can be applied to jngl::Widget.">
<polygon fill="white" stroke="#666666" points="1006,-185 900,-185 900,-165.75 1006,-165.75 1006,-185"/>
<text text-anchor="middle" x="953" y="-171.5" font-family="ui-monospace,monospace" font-size="10.00">jngl/effects.hpp</text>
</a>
</g>
</g>
<!-- Node1&#45;&gt;Node14 -->
<g id="edge25_Node000001_Node000014" class="edge">
<title>Node1&#45;&gt;Node14</title>
<g id="a_edge25_Node000001_Node000014"><a xlink:title=" ">
<path fill="none" stroke="#63b8ff" d="M895.34,-214.28C909.54,-204.95 927.19,-193.35 939.19,-185.45"/>
<polygon fill="#63b8ff" stroke="#63b8ff" points="893.44,-211.34 887.01,-219.76 897.28,-217.19 893.44,-211.34"/>
</a>
</g>
</g>
<!-- Node15 -->
<g id="Node000015" class="node">
<title>Node15</title>
<g id="a_Node000015"><a xlink:href="font_8hpp.html" target="_top" xlink:title="Contains jngl::Font class and related functions.">
<polygon fill="white" stroke="#666666" points="1081,-129.75 987,-129.75 987,-110.5 1081,-110.5 1081,-129.75"/>
<text text-anchor="middle" x="1034" y="-116.25" font-family="ui-monospace,monospace" font-size="10.00">jngl/font.hpp</text>
</a>
</g>
</g>
<!-- Node1&#45;&gt;Node15 -->
<g id="edge27_Node000001_Node000015" class="edge">
<title>Node1&#45;&gt;Node15</title>
<g id="a_edge27_Node000001_Node000015"><a xlink:title=" ">
<path fill="none" stroke="#63b8ff" d="M930.64,-224.22C959.53,-218.67 992.83,-207.47 1015,-185 1029.95,-169.85 1033.23,-143.48 1033.88,-129.84"/>
<polygon fill="#63b8ff" stroke="#63b8ff" points="930.16,-220.76 920.9,-225.9 931.35,-227.65 930.16,-220.76"/>
</a>
</g>
</g>
<!-- Node17 -->
<g id="Node000017" class="node">
<title>Node17</title>
<g id="a_Node000017"><a xlink:href="input_8hpp.html" target="_top" xlink:title="Input related functions.">
<polygon fill="white" stroke="#666666" points="1289,-129.75 1189,-129.75 1189,-110.5 1289,-110.5 1289,-129.75"/>
<text text-anchor="middle" x="1239" y="-116.25" font-family="ui-monospace,monospace" font-size="10.00">jngl/input.hpp</text>
</a>
</g>
</g>
<!-- Node1&#45;&gt;Node17 -->
<g id="edge31_Node000001_Node000017" class="edge">
<title>Node1&#45;&gt;Node17</title>
<g id="a_edge31_Node000001_Node000017"><a xlink:title=" ">
<path fill="none" stroke="#63b8ff" d="M917.48,-217.65C950.25,-208.9 995.46,-196.6 1035,-185 1098.21,-166.46 1171.84,-142.92 1211.05,-130.23"/>
<polygon fill="#63b8ff" stroke="#63b8ff" points="916.67,-214.24 907.91,-220.19 918.47,-221 916.67,-214.24"/>
</a>
</g>
</g>
<!-- Node20 -->
<g id="Node000020" class="node">
<title>Node20</title>
<g id="a_Node000020"><a xlink:href="log_8hpp.html" target="_top" xlink:title="Logging functions.">
<polygon fill="white" stroke="#666666" points="1215,-185 1127,-185 1127,-165.75 1215,-165.75 1215,-185"/>
<text text-anchor="middle" x="1171" y="-171.5" font-family="ui-monospace,monospace" font-size="10.00">jngl/log.hpp</text>
</a>
</g>
</g>
<!-- Node1&#45;&gt;Node20 -->
<g id="edge37_Node000001_Node000020" class="edge">
<title>Node1&#45;&gt;Node20</title>
<g id="a_edge37_Node000001_Node000020"><a xlink:title=" ">
<path fill="none" stroke="#63b8ff" d="M930.49,-219.21C988.06,-208.96 1074.7,-193.52 1126.77,-184.25"/>
<polygon fill="#63b8ff" stroke="#63b8ff" points="930.1,-215.72 920.87,-220.92 931.33,-222.61 930.1,-215.72"/>
</a>
</g>
</g>
<!-- Node21 -->
<g id="Node000021" class="node">
<title>Node21</title>
<g id="a_Node000021"><a xlink:href="positioning_8hpp.html" target="_top" xlink:title="Useful functions to position elements on the screen.">
<polygon fill="white" stroke="#666666" points="1404,-185 1268,-185 1268,-165.75 1404,-165.75 1404,-185"/>
<text text-anchor="middle" x="1336" y="-171.5" font-family="ui-monospace,monospace" font-size="10.00">jngl/positioning.hpp</text>
</a>
</g>
</g>
<!-- Node1&#45;&gt;Node21 -->
<g id="edge39_Node000001_Node000021" class="edge">
<title>Node1&#45;&gt;Node21</title>
<g id="a_edge39_Node000001_Node000021"><a xlink:title=" ">
<path fill="none" stroke="#63b8ff" d="M930.86,-222.87C1016.87,-213 1176.57,-194.67 1267.66,-184.22"/>
<polygon fill="#63b8ff" stroke="#63b8ff" points="930.51,-219.39 920.98,-224 931.31,-226.34 930.51,-219.39"/>
</a>
</g>
</g>
<!-- Node22 -->
<g id="Node000022" class="node">
<title>Node22</title>
<g id="a_Node000022"><a xlink:href="screen_8hpp.html" target="_top" xlink:title=" ">
<polygon fill="white" stroke="#666666" points="1599,-185 1493,-185 1493,-165.75 1599,-165.75 1599,-185"/>
<text text-anchor="middle" x="1546" y="-171.5" font-family="ui-monospace,monospace" font-size="10.00">jngl/screen.hpp</text>
</a>
</g>
</g>
<!-- Node1&#45;&gt;Node22 -->
<g id="edge41_Node000001_Node000022" class="edge">
<title>Node1&#45;&gt;Node22</title>
<g id="a_edge41_Node000001_Node000022"><a xlink:title=" ">
<path fill="none" stroke="#63b8ff" d="M930.61,-224.99C1059.98,-214.77 1368.32,-190.41 1492.66,-180.59"/>
<polygon fill="#63b8ff" stroke="#63b8ff" points="930.6,-221.48 920.9,-225.76 931.15,-228.46 930.6,-221.48"/>
</a>
</g>
</g>
<!-- Node23 -->
<g id="Node000023" class="node">
<title>Node23</title>
<g id="a_Node000023"><a xlink:href="shapes_8hpp.html" target="_top" xlink:title="Functions for drawing shapes.">
<polygon fill="white" stroke="#666666" points="1726,-185 1620,-185 1620,-165.75 1726,-165.75 1726,-185"/>
<text text-anchor="middle" x="1673" y="-171.5" font-family="ui-monospace,monospace" font-size="10.00">jngl/shapes.hpp</text>
</a>
</g>
</g>
<!-- Node1&#45;&gt;Node23 -->
<g id="edge43_Node000001_Node000023" class="edge">
<title>Node1&#45;&gt;Node23</title>
<g id="a_edge43_Node000001_Node000023"><a xlink:title=" ">
<path fill="none" stroke="#63b8ff" d="M930.62,-227.49C1055.42,-222.64 1356.55,-209.27 1608,-185 1611.85,-184.63 1615.83,-184.2 1619.83,-183.74"/>
<polygon fill="#63b8ff" stroke="#63b8ff" points="930.82,-223.98 920.96,-227.86 931.09,-230.98 930.82,-223.98"/>
</a>
</g>
</g>
<!-- Node3 -->
<g id="Node000003" class="node">
<title>Node3</title>
<g id="a_Node000003"><a xlink:href="jngl_8hpp.html" target="_top" xlink:title="Includes all JNGL headers except for init.hpp.">
<polygon fill="white" stroke="#666666" points="950,-19.25 886,-19.25 886,0 950,0 950,-19.25"/>
<text text-anchor="middle" x="918" y="-5.75" font-family="ui-monospace,monospace" font-size="10.00">jngl.hpp</text>
</a>
</g>
</g>
<!-- Node2&#45;&gt;Node3 -->
<g id="edge2_Node000002_Node000003" class="edge">
<title>Node2&#45;&gt;Node3</title>
<g id="a_edge2_Node000002_Node000003"><a xlink:title=" ">
<path fill="none" stroke="#63b8ff" d="M123.98,-154.52C126.21,-140.91 130.95,-123.1 141,-110.5 172.18,-71.41 191.08,-69.52 239,-55.25 362.41,-18.49 768.02,-11.98 885.72,-10.85"/>
<polygon fill="#63b8ff" stroke="#63b8ff" points="120.55,-153.71 122.75,-164.07 127.5,-154.6 120.55,-153.71"/>
</a>
</g>
</g>
<!-- Node4 -->
<g id="Node000004" class="node">
<title>Node4</title>
<g id="a_Node000004"><a xlink:href="init_8hpp.html" target="_top" xlink:title="Include this file only once, as it defines the main function.">
<polygon fill="white" stroke="#666666" points="94,-129.75 0,-129.75 0,-110.5 94,-110.5 94,-129.75"/>
<text text-anchor="middle" x="47" y="-116.25" font-family="ui-monospace,monospace" font-size="10.00">jngl/init.hpp</text>
</a>
</g>
</g>
<!-- Node2&#45;&gt;Node4 -->
<g id="edge3_Node000002_Node000004" class="edge">
<title>Node2&#45;&gt;Node4</title>
<g id="a_edge3_Node000002_Node000004"><a xlink:title=" ">
<path fill="none" stroke="#63b8ff" d="M100.01,-158.76C86.93,-149.47 70.79,-138.02 59.79,-130.2"/>
<polygon fill="#63b8ff" stroke="#63b8ff" points="97.86,-161.53 108.04,-164.47 101.92,-155.82 97.86,-161.53"/>
</a>
</g>
</g>
<!-- Node5&#45;&gt;Node3 -->
<g id="edge5_Node000005_Node000003" class="edge">
<title>Node5&#45;&gt;Node3</title>
<g id="a_edge5_Node000005_Node000003"><a xlink:title=" ">
<path fill="none" stroke="#63b8ff" d="M325.13,-158.47C316.52,-150.86 307.6,-140.96 303,-129.75 289.58,-97.02 301.58,-74.89 331,-55.25 377.27,-24.35 769.52,-13.73 885.7,-11.25"/>
<polygon fill="#63b8ff" stroke="#63b8ff" points="322.66,-160.97 332.63,-164.57 327.08,-155.54 322.66,-160.97"/>
</a>
</g>
</g>
<!-- Node5&#45;&gt;Node6 -->
<g id="edge6_Node000005_Node000006" class="edge">
<title>Node5&#45;&gt;Node6</title>
<g id="a_edge6_Node000005_Node000006"><a xlink:title=" ">
<path fill="none" stroke="#63b8ff" d="M311.97,-161.42C285.83,-151.75 250.76,-138.79 227.55,-130.2"/>
<polygon fill="#63b8ff" stroke="#63b8ff" points="310.56,-164.63 321.15,-164.82 312.99,-158.07 310.56,-164.63"/>
</a>
</g>
</g>
<!-- Node7 -->
<g id="Node000007" class="node">
<title>Node7</title>
<g id="a_Node000007"><a xlink:href="text_8hpp.html" target="_top" xlink:title=" ">
<polygon fill="white" stroke="#666666" points="406,-129.75 312,-129.75 312,-110.5 406,-110.5 406,-129.75"/>
<text text-anchor="middle" x="359" y="-116.25" font-family="ui-monospace,monospace" font-size="10.00">jngl/text.hpp</text>
</a>
</g>
</g>
<!-- Node5&#45;&gt;Node7 -->
<g id="edge8_Node000005_Node000007" class="edge">
<title>Node5&#45;&gt;Node7</title>
<g id="a_edge8_Node000005_Node000007"><a xlink:title=" ">
<path fill="none" stroke="#63b8ff" d="M351.5,-154.42C353.38,-146.05 355.48,-136.75 356.98,-130.11"/>
<polygon fill="#63b8ff" stroke="#63b8ff" points="348.1,-153.58 349.31,-164.11 354.93,-155.12 348.1,-153.58"/>
</a>
</g>
</g>
<!-- Node6&#45;&gt;Node3 -->
<g id="edge7_Node000006_Node000003" class="edge">
<title>Node6&#45;&gt;Node3</title>
<g id="a_edge7_Node000006_Node000003"><a xlink:title=" ">
<path fill="none" stroke="#63b8ff" d="M215.98,-101.12C228.07,-85.93 247.56,-65.14 270,-55.25 326.62,-30.29 762.54,-15.33 885.69,-11.57"/>
<polygon fill="#63b8ff" stroke="#63b8ff" points="213.33,-98.83 210.07,-108.91 218.9,-103.06 213.33,-98.83"/>
</a>
</g>
</g>
<!-- Node7&#45;&gt;Node3 -->
<g id="edge9_Node000007_Node000003" class="edge">
<title>Node7&#45;&gt;Node3</title>
<g id="a_edge9_Node000007_Node000003"><a xlink:title=" ">
<path fill="none" stroke="#63b8ff" d="M345.64,-100.85C337.08,-86.75 329.54,-67.63 341,-55.25 378.15,-15.11 769.56,-10.97 885.69,-10.63"/>
<polygon fill="#63b8ff" stroke="#63b8ff" points="342.48,-102.43 350.95,-108.8 348.3,-98.54 342.48,-102.43"/>
</a>
</g>
</g>
<!-- Node8 -->
<g id="Node000008" class="node">
<title>Node8</title>
<g id="a_Node000008"><a xlink:href="Label_8hpp.html" target="_top" xlink:title="Contains jngl::Label class.">
<polygon fill="white" stroke="#666666" points="450,-74.5 350,-74.5 350,-55.25 450,-55.25 450,-74.5"/>
<text text-anchor="middle" x="400" y="-61" font-family="ui-monospace,monospace" font-size="10.00">jngl/Label.hpp</text>
</a>
</g>
</g>
<!-- Node7&#45;&gt;Node8 -->
<g id="edge10_Node000007_Node000008" class="edge">
<title>Node7&#45;&gt;Node8</title>
<g id="a_edge10_Node000007_Node000008"><a xlink:title=" ">
<path fill="none" stroke="#63b8ff" d="M372.59,-101.47C379.46,-92.56 387.49,-82.12 393.08,-74.86"/>
<polygon fill="#63b8ff" stroke="#63b8ff" points="370.02,-99.07 366.69,-109.13 375.57,-103.34 370.02,-99.07"/>
</a>
</g>
</g>
<!-- Node8&#45;&gt;Node3 -->
<g id="edge11_Node000008_Node000003" class="edge">
<title>Node8&#45;&gt;Node3</title>
<g id="a_edge11_Node000008_Node000003"><a xlink:title=" ">
<path fill="none" stroke="#63b8ff" d="M461.48,-55.55C462.32,-55.45 463.16,-55.35 464,-55.25 621.92,-36.85 811.35,-19.87 885.76,-13.39"/>
<polygon fill="#63b8ff" stroke="#63b8ff" points="461.29,-52.04 451.79,-56.74 462.14,-58.99 461.29,-52.04"/>
</a>
</g>
</g>
<!-- Node9&#45;&gt;Node3 -->
<g id="edge13_Node000009_Node000003" class="edge">
<title>Node9&#45;&gt;Node3</title>
<g id="a_edge13_Node000009_Node000003"><a xlink:title=" ">
<path fill="none" stroke="#63b8ff" d="M673.08,-52.83C737.97,-41.65 835.68,-24.81 885.81,-16.17"/>
<polygon fill="#63b8ff" stroke="#63b8ff" points="672.52,-49.38 663.26,-54.52 673.71,-56.28 672.52,-49.38"/>
</a>
</g>
</g>
<!-- Node10&#45;&gt;Node3 -->
<g id="edge15_Node000010_Node000003" class="edge">
<title>Node10&#45;&gt;Node3</title>
<g id="a_edge15_Node000010_Node000003"><a xlink:title=" ">
<path fill="none" stroke="#63b8ff" d="M792.7,-51.31C822.59,-41.6 863.25,-28.4 890.04,-19.7"/>
<polygon fill="#63b8ff" stroke="#63b8ff" points="791.69,-47.96 783.26,-54.37 793.85,-54.62 791.69,-47.96"/>
</a>
</g>
</g>
<!-- Node11&#45;&gt;Node3 -->
<g id="edge17_Node000011_Node000003" class="edge">
<title>Node11&#45;&gt;Node3</title>
<g id="a_edge17_Node000011_Node000003"><a xlink:title=" ">
<path fill="none" stroke="#63b8ff" d="M893.66,-45.65C899.77,-36.86 906.82,-26.71 911.76,-19.61"/>
<polygon fill="#63b8ff" stroke="#63b8ff" points="890.81,-43.63 887.97,-53.84 896.55,-47.62 890.81,-43.63"/>
</a>
</g>
</g>
<!-- Node12&#45;&gt;Node3 -->
<g id="edge20_Node000012_Node000003" class="edge">
<title>Node12&#45;&gt;Node3</title>
<g id="a_edge20_Node000012_Node000003"><a xlink:title=" ">
<path fill="none" stroke="#63b8ff" d="M490.65,-99.72C497.56,-84.94 509.23,-65.44 526,-55.25 586.23,-18.67 802.86,-12.06 885.58,-10.88"/>
<polygon fill="#63b8ff" stroke="#63b8ff" points="487.43,-98.34 486.72,-108.91 493.87,-101.1 487.43,-98.34"/>
</a>
</g>
</g>
<!-- Node12&#45;&gt;Node8 -->
<g id="edge21_Node000012_Node000008" class="edge">
<title>Node12&#45;&gt;Node8</title>
<g id="a_edge21_Node000012_Node000008"><a xlink:title=" ">
<path fill="none" stroke="#63b8ff" d="M459.51,-104.05C444.89,-94.67 426.57,-82.92 414.15,-74.95"/>
<polygon fill="#63b8ff" stroke="#63b8ff" points="457.34,-106.82 467.65,-109.27 461.12,-100.93 457.34,-106.82"/>
</a>
</g>
</g>
<!-- Node13&#45;&gt;Node3 -->
<g id="edge23_Node000013_Node000003" class="edge">
<title>Node13&#45;&gt;Node3</title>
<g id="a_edge23_Node000013_Node000003"><a xlink:title=" ">
<path fill="none" stroke="#63b8ff" d="M575.88,-105.82C547.97,-93.82 517.35,-75.07 535,-55.25 558.2,-29.19 797.67,-15.98 885.73,-11.97"/>
<polygon fill="#63b8ff" stroke="#63b8ff" points="574.35,-108.97 584.93,-109.5 576.99,-102.49 574.35,-108.97"/>
</a>
</g>
</g>
<!-- Node13&#45;&gt;Node8 -->
<g id="edge24_Node000013_Node000008" class="edge">
<title>Node13&#45;&gt;Node8</title>
<g id="a_edge24_Node000013_Node000008"><a xlink:title=" ">
<path fill="none" stroke="#63b8ff" d="M565.79,-107.32C526.72,-97.55 472.02,-83.88 436.31,-74.95"/>
<polygon fill="#63b8ff" stroke="#63b8ff" points="564.85,-110.69 575.4,-109.72 566.55,-103.9 564.85,-110.69"/>
</a>
</g>
</g>
<!-- Node14&#45;&gt;Node3 -->
<g id="edge26_Node000014_Node000003" class="edge">
<title>Node14&#45;&gt;Node3</title>
<g id="a_edge26_Node000014_Node000003"><a xlink:title=" ">
<path fill="none" stroke="#63b8ff" d="M951.94,-154.13C950.31,-130.16 946.33,-89.21 937,-55.25 933.48,-42.42 927.07,-28.43 922.67,-19.6"/>
<polygon fill="#63b8ff" stroke="#63b8ff" points="948.44,-154.26 952.53,-164.03 955.43,-153.84 948.44,-154.26"/>
</a>
</g>
</g>
<!-- Node15&#45;&gt;Node3 -->
<g id="edge28_Node000015_Node000003" class="edge">
<title>Node15&#45;&gt;Node3</title>
<g id="a_edge28_Node000015_Node000003"><a xlink:title=" ">
<path fill="none" stroke="#63b8ff" d="M1017.66,-102.13C1004.92,-89.06 986.66,-70.67 970,-55.25 956.21,-42.48 939.63,-28.48 928.96,-19.62"/>
<polygon fill="#63b8ff" stroke="#63b8ff" points="1014.98,-104.4 1024.45,-109.15 1020.01,-99.53 1014.98,-104.4"/>
</a>
</g>
</g>
<!-- Node16 -->
<g id="Node000016" class="node">
<title>Node16</title>
<g id="a_Node000016"><a xlink:href="OutlinedFont_8hpp.html" target="_top" xlink:title="Contains jngl::OutlinedFont class.">
<polygon fill="white" stroke="#666666" points="1164,-74.5 1022,-74.5 1022,-55.25 1164,-55.25 1164,-74.5"/>
<text text-anchor="middle" x="1093" y="-61" font-family="ui-monospace,monospace" font-size="10.00">jngl/OutlinedFont.hpp</text>
</a>
</g>
</g>
<!-- Node15&#45;&gt;Node16 -->
<g id="edge29_Node000015_Node000016" class="edge">
<title>Node15&#45;&gt;Node16</title>
<g id="a_edge29_Node000015_Node000016"><a xlink:title=" ">
<path fill="none" stroke="#63b8ff" d="M1052.27,-102.64C1062.46,-93.44 1074.74,-82.35 1083.14,-74.77"/>
<polygon fill="#63b8ff" stroke="#63b8ff" points="1050.21,-99.78 1045.13,-109.08 1054.9,-104.98 1050.21,-99.78"/>
</a>
</g>
</g>
<!-- Node16&#45;&gt;Node3 -->
<g id="edge30_Node000016_Node000003" class="edge">
<title>Node16&#45;&gt;Node3</title>
<g id="a_edge30_Node000016_Node000003"><a xlink:title=" ">
<path fill="none" stroke="#63b8ff" d="M1052.55,-51.57C1020.57,-41.84 976.67,-28.48 947.83,-19.7"/>
<polygon fill="#63b8ff" stroke="#63b8ff" points="1051.28,-54.84 1061.87,-54.4 1053.32,-48.14 1051.28,-54.84"/>
</a>
</g>
</g>
<!-- Node17&#45;&gt;Node3 -->
<g id="edge32_Node000017_Node000003" class="edge">
<title>Node17&#45;&gt;Node3</title>
<g id="a_edge32_Node000017_Node000003"><a xlink:title=" ">
<path fill="none" stroke="#63b8ff" d="M1226,-101.68C1213.96,-86.86 1194.68,-66.29 1173,-55.25 1099.51,-17.82 1000.36,-11.12 950.09,-10.33"/>
<polygon fill="#63b8ff" stroke="#63b8ff" points="1222.98,-103.5 1231.89,-109.24 1228.5,-99.2 1222.98,-103.5"/>
</a>
</g>
</g>
<!-- Node18 -->
<g id="Node000018" class="node">
<title>Node18</title>
<g id="a_Node000018"><a xlink:href="Controller_8hpp.html" target="_top" xlink:title="Contains jngl::Controller class.">
<polygon fill="white" stroke="#666666" points="1350,-74.5 1220,-74.5 1220,-55.25 1350,-55.25 1350,-74.5"/>
<text text-anchor="middle" x="1285" y="-61" font-family="ui-monospace,monospace" font-size="10.00">jngl/Controller.hpp</text>
</a>
</g>
</g>
<!-- Node17&#45;&gt;Node18 -->
<g id="edge33_Node000017_Node000018" class="edge">
<title>Node17&#45;&gt;Node18</title>
<g id="a_edge33_Node000017_Node000018"><a xlink:title=" ">
<path fill="none" stroke="#63b8ff" d="M1254,-101.76C1261.76,-92.78 1270.9,-82.2 1277.24,-74.86"/>
<polygon fill="#63b8ff" stroke="#63b8ff" points="1251.47,-99.33 1247.59,-109.19 1256.77,-103.91 1251.47,-99.33"/>
</a>
</g>
</g>
<!-- Node19 -->
<g id="Node000019" class="node">
<title>Node19</title>
<g id="a_Node000019"><a xlink:href="KeyboardShortcut_8hpp.html" target="_top" xlink:title="Contains jngl::KeyboardShortcut class.">
<polygon fill="white" stroke="#666666" points="1534,-74.5 1368,-74.5 1368,-55.25 1534,-55.25 1534,-74.5"/>
<text text-anchor="middle" x="1451" y="-61" font-family="ui-monospace,monospace" font-size="10.00">jngl/KeyboardShortcut.hpp</text>
</a>
</g>
</g>
<!-- Node17&#45;&gt;Node19 -->
<g id="edge35_Node000017_Node000019" class="edge">
<title>Node17&#45;&gt;Node19</title>
<g id="a_edge35_Node000017_Node000019"><a xlink:title=" ">
<path fill="none" stroke="#63b8ff" d="M1285.99,-107.32C1324.88,-97.55 1379.32,-83.88 1414.86,-74.95"/>
<polygon fill="#63b8ff" stroke="#63b8ff" points="1285.28,-103.89 1276.43,-109.72 1286.98,-110.68 1285.28,-103.89"/>
</a>
</g>
</g>
<!-- Node18&#45;&gt;Node3 -->
<g id="edge34_Node000018_Node000003" class="edge">
<title>Node18&#45;&gt;Node3</title>
<g id="a_edge34_Node000018_Node000003"><a xlink:title=" ">
<path fill="none" stroke="#63b8ff" d="M1211.39,-53.19C1131.76,-41.64 1008.42,-23.74 950.34,-15.32"/>
<polygon fill="#63b8ff" stroke="#63b8ff" points="1210.43,-56.59 1220.83,-54.56 1211.44,-49.66 1210.43,-56.59"/>
</a>
</g>
</g>
<!-- Node19&#45;&gt;Node3 -->
<g id="edge36_Node000019_Node000003" class="edge">
<title>Node19&#45;&gt;Node3</title>
<g id="a_edge36_Node000019_Node000003"><a xlink:title=" ">
<path fill="none" stroke="#63b8ff" d="M1356.57,-54.44C1234.88,-42.28 1029.56,-21.77 950.44,-13.87"/>
<polygon fill="#63b8ff" stroke="#63b8ff" points="1355.91,-57.89 1366.21,-55.4 1356.61,-50.93 1355.91,-57.89"/>
</a>
</g>
</g>
<!-- Node20&#45;&gt;Node3 -->
<g id="edge38_Node000020_Node000003" class="edge">
<title>Node20&#45;&gt;Node3</title>
<g id="a_edge38_Node000020_Node000003"><a xlink:title=" ">
<path fill="none" stroke="#63b8ff" d="M1226.76,-166.35C1341.32,-148.75 1588.74,-104.37 1543,-55.25 1502.37,-11.61 1072.9,-9.99 950.43,-10.42"/>
<polygon fill="#63b8ff" stroke="#63b8ff" points="1226.3,-162.88 1216.94,-167.85 1227.35,-169.8 1226.3,-162.88"/>
</a>
</g>
</g>
<!-- Node21&#45;&gt;Node3 -->
<g id="edge40_Node000021_Node000003" class="edge">
<title>Node21&#45;&gt;Node3</title>
<g id="a_edge40_Node000021_Node000003"><a xlink:title=" ">
<path fill="none" stroke="#63b8ff" d="M1404.59,-163.13C1488.32,-146.66 1612.64,-111.68 1560,-55.25 1518.13,-10.37 1075.09,-9.66 950.45,-10.36"/>
<polygon fill="#63b8ff" stroke="#63b8ff" points="1403.98,-159.68 1394.81,-165 1405.29,-166.56 1403.98,-159.68"/>
</a>
</g>
</g>
<!-- Node22&#45;&gt;Node3 -->
<g id="edge42_Node000022_Node000003" class="edge">
<title>Node22&#45;&gt;Node3</title>
<g id="a_edge42_Node000022_Node000003"><a xlink:title=" ">
<path fill="none" stroke="#63b8ff" d="M1560.22,-156.23C1578.58,-130.48 1605.26,-83.35 1579,-55.25 1535.7,-8.93 1076.61,-9.3 950.11,-10.29"/>
<polygon fill="#63b8ff" stroke="#63b8ff" points="1557.56,-153.94 1554.39,-164.05 1563.17,-158.13 1557.56,-153.94"/>
</a>
</g>
</g>
<!-- Node23&#45;&gt;Node3 -->
<g id="edge44_Node000023_Node000003" class="edge">
<title>Node23&#45;&gt;Node3</title>
<g id="a_edge44_Node000023_Node000003"><a xlink:title=" ">
<path fill="none" stroke="#63b8ff" d="M1667,-154.81C1657.38,-127.2 1635.68,-77.69 1598,-55.25 1541.97,-21.87 1077.98,-12.89 950.37,-11.04"/>
<polygon fill="#63b8ff" stroke="#63b8ff" points="1663.58,-155.61 1670.01,-164.03 1670.23,-153.43 1663.58,-155.61"/>
</a>
</g>
</g>
</g>
</svg>
