<?xml version="1.0" encoding="UTF-8" standalone="no"?>
<!DOCTYPE svg PUBLIC "-//W3C//DTD SVG 1.1//EN"
 "http://www.w3.org/Graphics/SVG/1.1/DTD/svg11.dtd">
<!-- Generated by graphviz version 5.0.0 (0)
 -->
<!-- Title: jngl/Vec2.hpp Pages: 1 -->
<svg width="1012pt" height="302pt"
 viewBox="0.00 0.00 1012.00 302.00" xmlns="http://www.w3.org/2000/svg" xmlns:xlink="http://www.w3.org/1999/xlink">
<g id="graph0" class="graph" transform="scale(1 1) rotate(0) translate(4 298)">
<title>jngl/Vec2.hpp</title>
<!-- Node1 -->
<g id="node1" class="node">
<title>Node1</title>
<g id="a_node1"><a xlink:title="Contains jngl::Vec2 class.">
<polygon fill="#999999" stroke="#666666" points="693,-294 598,-294 598,-275 693,-275 693,-294"/>
<text text-anchor="middle" x="645.5" y="-282" font-family="ui-monospace,monospace" font-size="10.00">jngl/Vec2.hpp</text>
</a>
</g>
</g>
<!-- Node2 -->
<g id="node2" class="node">
<title>Node2</title>
<g id="a_node2"><a xlink:href="AppParameters_8hpp.html" target="_top" xlink:title="Contains jngl::AppParameters struct.">
<polygon fill="white" stroke="#666666" points="149,-239 0,-239 0,-220 149,-220 149,-239"/>
<text text-anchor="middle" x="74.5" y="-227" font-family="ui-monospace,monospace" font-size="10.00">jngl/AppParameters.hpp</text>
</a>
</g>
</g>
<!-- Node1&#45;&gt;Node2 -->
<g id="edge1" class="edge">
<title>Node1&#45;&gt;Node2</title>
<path fill="none" stroke="#63b8ff" d="M587.53,-278.42C496.11,-270.37 312.83,-254.03 157.5,-239 154.76,-238.73 151.97,-238.46 149.15,-238.18"/>
<polygon fill="#63b8ff" stroke="#63b8ff" points="587.42,-281.93 597.69,-279.32 588.03,-274.95 587.42,-281.93"/>
</g>
<!-- Node4 -->
<g id="node4" class="node">
<title>Node4</title>
<g id="a_node4"><a xlink:href="Drawable_8hpp.html" target="_top" xlink:title="Contains jngl::Drawable class.">
<polygon fill="white" stroke="#666666" points="449,-239 330,-239 330,-220 449,-220 449,-239"/>
<text text-anchor="middle" x="389.5" y="-227" font-family="ui-monospace,monospace" font-size="10.00">jngl/Drawable.hpp</text>
</a>
</g>
</g>
<!-- Node1&#45;&gt;Node4 -->
<g id="edge3" class="edge">
<title>Node1&#45;&gt;Node4</title>
<path fill="none" stroke="#63b8ff" d="M594.5,-272.94C546.51,-263.01 475.55,-248.31 430.95,-239.08"/>
<polygon fill="#63b8ff" stroke="#63b8ff" points="593.87,-276.38 604.37,-274.98 595.29,-269.53 593.87,-276.38"/>
</g>
<!-- Node9 -->
<g id="node9" class="node">
<title>Node9</title>
<g id="a_node9"><a xlink:href="sprite_8hpp.html" target="_top" xlink:title="Contains jngl::Sprite class and related functions.">
<polygon fill="white" stroke="#666666" points="699,-184 592,-184 592,-165 699,-165 699,-184"/>
<text text-anchor="middle" x="645.5" y="-172" font-family="ui-monospace,monospace" font-size="10.00">jngl/sprite.hpp</text>
</a>
</g>
</g>
<!-- Node1&#45;&gt;Node9 -->
<g id="edge31" class="edge">
<title>Node1&#45;&gt;Node9</title>
<path fill="none" stroke="#63b8ff" d="M645.5,-264.48C645.5,-240.84 645.5,-201.5 645.5,-184.16"/>
<polygon fill="#63b8ff" stroke="#63b8ff" points="642,-264.66 645.5,-274.66 649,-264.66 642,-264.66"/>
</g>
<!-- Node11 -->
<g id="node11" class="node">
<title>Node11</title>
<g id="a_node11"><a xlink:href="Widget_8hpp.html" target="_top" xlink:title="Contains jngl::Container class.">
<polygon fill="white" stroke="#666666" points="574,-184 467,-184 467,-165 574,-165 574,-184"/>
<text text-anchor="middle" x="520.5" y="-172" font-family="ui-monospace,monospace" font-size="10.00">jngl/Widget.hpp</text>
</a>
</g>
</g>
<!-- Node1&#45;&gt;Node11 -->
<g id="edge15" class="edge">
<title>Node1&#45;&gt;Node11</title>
<path fill="none" stroke="#63b8ff" d="M627.45,-267.91C600.75,-244.83 551.59,-202.37 530.52,-184.16"/>
<polygon fill="#63b8ff" stroke="#63b8ff" points="625.42,-270.77 635.27,-274.66 629.99,-265.48 625.42,-270.77"/>
</g>
<!-- Node12 -->
<g id="node12" class="node">
<title>Node12</title>
<g id="a_node12"><a xlink:href="font_8hpp.html" target="_top" xlink:title="Contains jngl::Font class and related functions.">
<polygon fill="white" stroke="#666666" points="648,-129 553,-129 553,-110 648,-110 648,-129"/>
<text text-anchor="middle" x="600.5" y="-117" font-family="ui-monospace,monospace" font-size="10.00">jngl/font.hpp</text>
</a>
</g>
</g>
<!-- Node1&#45;&gt;Node12 -->
<g id="edge18" class="edge">
<title>Node1&#45;&gt;Node12</title>
<path fill="none" stroke="#63b8ff" d="M664.19,-268.09C690.01,-244.91 730.87,-200.03 707.5,-165 694.21,-145.08 670.16,-134.07 648.22,-127.98"/>
<polygon fill="#63b8ff" stroke="#63b8ff" points="661.7,-265.62 656.44,-274.82 666.29,-270.91 661.7,-265.62"/>
</g>
<!-- Node13 -->
<g id="node13" class="node">
<title>Node13</title>
<g id="a_node13"><a xlink:href="framebuffer_8hpp.html" target="_top" xlink:title="Contains jngl::FrameBuffer class.">
<polygon fill="white" stroke="#666666" points="797,-129 666,-129 666,-110 797,-110 797,-129"/>
<text text-anchor="middle" x="731.5" y="-117" font-family="ui-monospace,monospace" font-size="10.00">jngl/framebuffer.hpp</text>
</a>
</g>
</g>
<!-- Node1&#45;&gt;Node13 -->
<g id="edge20" class="edge">
<title>Node1&#45;&gt;Node13</title>
<path fill="none" stroke="#63b8ff" d="M675.05,-270.25C688.37,-262.85 703.16,-252.41 712.5,-239 736.67,-204.29 734.46,-150.12 732.5,-129.17"/>
<polygon fill="#63b8ff" stroke="#63b8ff" points="673.41,-267.15 666.15,-274.88 676.64,-273.36 673.41,-267.15"/>
</g>
<!-- Node14 -->
<g id="node14" class="node">
<title>Node14</title>
<g id="a_node14"><a xlink:href="input_8hpp.html" target="_top" xlink:title="Input related functions.">
<polygon fill="white" stroke="#666666" points="895,-184 794,-184 794,-165 895,-165 895,-184"/>
<text text-anchor="middle" x="844.5" y="-172" font-family="ui-monospace,monospace" font-size="10.00">jngl/input.hpp</text>
</a>
</g>
</g>
<!-- Node1&#45;&gt;Node14 -->
<g id="edge22" class="edge">
<title>Node1&#45;&gt;Node14</title>
<path fill="none" stroke="#63b8ff" d="M696.26,-272.46C722.37,-265.38 753.98,-254.55 779.5,-239 804.29,-223.9 827.02,-197.7 837.85,-184.16"/>
<polygon fill="#63b8ff" stroke="#63b8ff" points="695.35,-269.09 686.55,-274.99 697.11,-275.86 695.35,-269.09"/>
</g>
<!-- Node16 -->
<g id="node16" class="node">
<title>Node16</title>
<g id="a_node16"><a xlink:href="screen_8hpp.html" target="_top" xlink:title=" ">
<polygon fill="white" stroke="#666666" points="274,-239 167,-239 167,-220 274,-220 274,-239"/>
<text text-anchor="middle" x="220.5" y="-227" font-family="ui-monospace,monospace" font-size="10.00">jngl/screen.hpp</text>
</a>
</g>
</g>
<!-- Node1&#45;&gt;Node16 -->
<g id="edge26" class="edge">
<title>Node1&#45;&gt;Node16</title>
<path fill="none" stroke="#63b8ff" d="M588.02,-276.33C505.44,-266.03 354.35,-247.19 274.03,-237.17"/>
<polygon fill="#63b8ff" stroke="#63b8ff" points="587.63,-279.81 597.98,-277.57 588.49,-272.86 587.63,-279.81"/>
</g>
<!-- Node17 -->
<g id="node17" class="node">
<title>Node17</title>
<g id="a_node17"><a xlink:href="shapes_8hpp.html" target="_top" xlink:title="Functions for drawing shapes.">
<polygon fill="white" stroke="#666666" points="1004,-239 897,-239 897,-220 1004,-220 1004,-239"/>
<text text-anchor="middle" x="950.5" y="-227" font-family="ui-monospace,monospace" font-size="10.00">jngl/shapes.hpp</text>
</a>
</g>
</g>
<!-- Node1&#45;&gt;Node17 -->
<g id="edge29" class="edge">
<title>Node1&#45;&gt;Node17</title>
<path fill="none" stroke="#63b8ff" d="M703.14,-273.48C760.42,-263.53 847.32,-248.43 901.41,-239.03"/>
<polygon fill="#63b8ff" stroke="#63b8ff" points="702.41,-270.06 693.16,-275.22 703.61,-276.95 702.41,-270.06"/>
</g>
<!-- Node3 -->
<g id="node3" class="node">
<title>Node3</title>
<g id="a_node3"><a xlink:href="init_8hpp.html" target="_top" xlink:title="Include this file only once, as it defines the main function.">
<polygon fill="white" stroke="#666666" points="122,-184 27,-184 27,-165 122,-165 122,-184"/>
<text text-anchor="middle" x="74.5" y="-172" font-family="ui-monospace,monospace" font-size="10.00">jngl/init.hpp</text>
</a>
</g>
</g>
<!-- Node2&#45;&gt;Node3 -->
<g id="edge2" class="edge">
<title>Node2&#45;&gt;Node3</title>
<path fill="none" stroke="#63b8ff" d="M74.5,-209.66C74.5,-200.93 74.5,-190.99 74.5,-184.09"/>
<polygon fill="#63b8ff" stroke="#63b8ff" points="71,-209.75 74.5,-219.75 78,-209.75 71,-209.75"/>
</g>
<!-- Node5 -->
<g id="node5" class="node">
<title>Node5</title>
<g id="a_node5"><a xlink:href="TextLine_8hpp.html" target="_top" xlink:title="Contains jngl::TextLine class.">
<polygon fill="white" stroke="#666666" points="449,-184 330,-184 330,-165 449,-165 449,-184"/>
<text text-anchor="middle" x="389.5" y="-172" font-family="ui-monospace,monospace" font-size="10.00">jngl/TextLine.hpp</text>
</a>
</g>
</g>
<!-- Node4&#45;&gt;Node5 -->
<g id="edge4" class="edge">
<title>Node4&#45;&gt;Node5</title>
<path fill="none" stroke="#63b8ff" d="M389.5,-209.66C389.5,-200.93 389.5,-190.99 389.5,-184.09"/>
<polygon fill="#63b8ff" stroke="#63b8ff" points="386,-209.75 389.5,-219.75 393,-209.75 386,-209.75"/>
</g>
<!-- Node7 -->
<g id="node7" class="node">
<title>Node7</title>
<g id="a_node7"><a xlink:href="all_8hpp.html" target="_top" xlink:title="Includes all JNGL headers except for init.hpp.">
<polygon fill="white" stroke="#666666" points="550,-74 461,-74 461,-55 550,-55 550,-74"/>
<text text-anchor="middle" x="505.5" y="-62" font-family="ui-monospace,monospace" font-size="10.00">jngl/all.hpp</text>
</a>
</g>
</g>
<!-- Node4&#45;&gt;Node7 -->
<g id="edge9" class="edge">
<title>Node4&#45;&gt;Node7</title>
<path fill="none" stroke="#63b8ff" d="M319.84,-220.39C274.61,-213.53 221.55,-201.9 207.5,-184 202.29,-177.36 203.17,-172.25 207.5,-165 233.99,-120.62 384.55,-87.42 460.98,-73.17"/>
<polygon fill="#63b8ff" stroke="#63b8ff" points="319.55,-223.88 329.95,-221.87 320.56,-216.96 319.55,-223.88"/>
</g>
<!-- Node4&#45;&gt;Node9 -->
<g id="edge10" class="edge">
<title>Node4&#45;&gt;Node9</title>
<path fill="none" stroke="#63b8ff" d="M440.5,-217.94C488.49,-208.01 559.45,-193.31 604.05,-184.08"/>
<polygon fill="#63b8ff" stroke="#63b8ff" points="439.71,-214.53 430.63,-219.98 441.13,-221.38 439.71,-214.53"/>
</g>
<!-- Node10 -->
<g id="node10" class="node">
<title>Node10</title>
<g id="a_node10"><a xlink:href="text_8hpp.html" target="_top" xlink:title=" ">
<polygon fill="white" stroke="#666666" points="312,-184 217,-184 217,-165 312,-165 312,-184"/>
<text text-anchor="middle" x="264.5" y="-172" font-family="ui-monospace,monospace" font-size="10.00">jngl/text.hpp</text>
</a>
</g>
</g>
<!-- Node4&#45;&gt;Node10 -->
<g id="edge12" class="edge">
<title>Node4&#45;&gt;Node10</title>
<path fill="none" stroke="#63b8ff" d="M360.09,-216.03C336.97,-206.23 305.37,-192.83 284.95,-184.17"/>
<polygon fill="#63b8ff" stroke="#63b8ff" points="358.84,-219.3 369.42,-219.98 361.58,-212.86 358.84,-219.3"/>
</g>
<!-- Node6 -->
<g id="node6" class="node">
<title>Node6</title>
<g id="a_node6"><a xlink:href="Label_8hpp.html" target="_top" xlink:title="Contains jngl::Label class.">
<polygon fill="white" stroke="#666666" points="458,-129 357,-129 357,-110 458,-110 458,-129"/>
<text text-anchor="middle" x="407.5" y="-117" font-family="ui-monospace,monospace" font-size="10.00">jngl/Label.hpp</text>
</a>
</g>
</g>
<!-- Node5&#45;&gt;Node6 -->
<g id="edge5" class="edge">
<title>Node5&#45;&gt;Node6</title>
<path fill="none" stroke="#63b8ff" d="M395.7,-155.24C398.71,-146.37 402.19,-136.14 404.58,-129.09"/>
<polygon fill="#63b8ff" stroke="#63b8ff" points="392.37,-154.15 392.47,-164.75 399,-156.4 392.37,-154.15"/>
</g>
<!-- Node5&#45;&gt;Node7 -->
<g id="edge8" class="edge">
<title>Node5&#45;&gt;Node7</title>
<path fill="none" stroke="#63b8ff" d="M368.47,-158.62C352.55,-145.51 335.34,-126.06 347.5,-110 361.22,-91.88 419.18,-79.07 460.92,-71.98"/>
<polygon fill="#63b8ff" stroke="#63b8ff" points="366.46,-161.49 376.51,-164.84 370.74,-155.95 366.46,-161.49"/>
</g>
<!-- Node6&#45;&gt;Node7 -->
<g id="edge6" class="edge">
<title>Node6&#45;&gt;Node7</title>
<path fill="none" stroke="#63b8ff" d="M432.53,-104.97C450.44,-95.28 474.03,-82.52 489.47,-74.17"/>
<polygon fill="#63b8ff" stroke="#63b8ff" points="430.38,-102.15 423.25,-109.98 433.71,-108.31 430.38,-102.15"/>
</g>
<!-- Node8 -->
<g id="node8" class="node">
<title>Node8</title>
<g id="a_node8"><a xlink:href="jngl_8hpp.html" target="_top" xlink:title="Includes jngl/all.hpp.">
<polygon fill="white" stroke="#666666" points="538,-19 473,-19 473,0 538,0 538,-19"/>
<text text-anchor="middle" x="505.5" y="-7" font-family="ui-monospace,monospace" font-size="10.00">jngl.hpp</text>
</a>
</g>
</g>
<!-- Node7&#45;&gt;Node8 -->
<g id="edge7" class="edge">
<title>Node7&#45;&gt;Node8</title>
<path fill="none" stroke="#63b8ff" d="M505.5,-44.66C505.5,-35.93 505.5,-25.99 505.5,-19.09"/>
<polygon fill="#63b8ff" stroke="#63b8ff" points="502,-44.75 505.5,-54.75 509,-44.75 502,-44.75"/>
</g>
<!-- Node9&#45;&gt;Node7 -->
<g id="edge11" class="edge">
<title>Node9&#45;&gt;Node7</title>
<path fill="none" stroke="#63b8ff" d="M603.05,-161.63C583.31,-154.54 560.5,-143.96 543.5,-129 525.75,-113.39 513.89,-87.41 508.61,-74.04"/>
<polygon fill="#63b8ff" stroke="#63b8ff" points="602.16,-165.02 612.75,-164.93 604.41,-158.39 602.16,-165.02"/>
</g>
<!-- Node10&#45;&gt;Node6 -->
<g id="edge13" class="edge">
<title>Node10&#45;&gt;Node6</title>
<path fill="none" stroke="#63b8ff" d="M297.09,-161.42C323.62,-151.59 360.43,-137.95 384.11,-129.17"/>
<polygon fill="#63b8ff" stroke="#63b8ff" points="295.64,-158.23 287.48,-164.98 298.07,-164.79 295.64,-158.23"/>
</g>
<!-- Node10&#45;&gt;Node7 -->
<g id="edge14" class="edge">
<title>Node10&#45;&gt;Node7</title>
<path fill="none" stroke="#63b8ff" d="M279.3,-157.44C293.45,-143.02 316.03,-122.28 339.5,-110 377.96,-89.87 426.33,-78.24 460.91,-71.96"/>
<polygon fill="#63b8ff" stroke="#63b8ff" points="276.74,-155.06 272.36,-164.71 281.8,-159.9 276.74,-155.06"/>
</g>
<!-- Node11&#45;&gt;Node6 -->
<g id="edge16" class="edge">
<title>Node11&#45;&gt;Node6</title>
<path fill="none" stroke="#63b8ff" d="M493.07,-160.63C472.25,-150.87 444.2,-137.71 425.99,-129.17"/>
<polygon fill="#63b8ff" stroke="#63b8ff" points="491.8,-163.91 502.34,-164.98 494.78,-157.57 491.8,-163.91"/>
</g>
<!-- Node11&#45;&gt;Node7 -->
<g id="edge17" class="edge">
<title>Node11&#45;&gt;Node7</title>
<path fill="none" stroke="#63b8ff" d="M515.72,-154.99C513.83,-147.04 511.8,-137.61 510.5,-129 507.56,-109.54 506.29,-86.44 505.79,-74.17"/>
<polygon fill="#63b8ff" stroke="#63b8ff" points="512.33,-155.84 518.13,-164.7 519.12,-154.16 512.33,-155.84"/>
</g>
<!-- Node12&#45;&gt;Node7 -->
<g id="edge19" class="edge">
<title>Node12&#45;&gt;Node7</title>
<path fill="none" stroke="#63b8ff" d="M576.24,-104.97C558.87,-95.28 536.01,-82.52 521.04,-74.17"/>
<polygon fill="#63b8ff" stroke="#63b8ff" points="574.8,-108.17 585.24,-109.98 578.21,-102.06 574.8,-108.17"/>
</g>
<!-- Node13&#45;&gt;Node7 -->
<g id="edge21" class="edge">
<title>Node13&#45;&gt;Node7</title>
<path fill="none" stroke="#63b8ff" d="M685.41,-107.69C643.06,-97.76 581.14,-83.24 542.1,-74.08"/>
<polygon fill="#63b8ff" stroke="#63b8ff" points="684.65,-111.11 695.19,-109.98 686.25,-104.29 684.65,-111.11"/>
</g>
<!-- Node14&#45;&gt;Node7 -->
<g id="edge25" class="edge">
<title>Node14&#45;&gt;Node7</title>
<path fill="none" stroke="#63b8ff" d="M838.27,-155.26C832.25,-140.57 821.66,-120.67 805.5,-110 764.42,-82.87 623.28,-71.63 550.18,-67.54"/>
<polygon fill="#63b8ff" stroke="#63b8ff" points="835.07,-156.69 841.85,-164.83 841.62,-154.24 835.07,-156.69"/>
</g>
<!-- Node15 -->
<g id="node15" class="node">
<title>Node15</title>
<g id="a_node15"><a xlink:href="Controller_8hpp.html" target="_top" xlink:title="Contains jngl::Controller class.">
<polygon fill="white" stroke="#666666" points="985,-129 854,-129 854,-110 985,-110 985,-129"/>
<text text-anchor="middle" x="919.5" y="-117" font-family="ui-monospace,monospace" font-size="10.00">jngl/Controller.hpp</text>
</a>
</g>
</g>
<!-- Node14&#45;&gt;Node15 -->
<g id="edge23" class="edge">
<title>Node14&#45;&gt;Node15</title>
<path fill="none" stroke="#63b8ff" d="M864.81,-159.15C878.36,-149.57 895.74,-137.29 907.23,-129.17"/>
<polygon fill="#63b8ff" stroke="#63b8ff" points="862.7,-156.36 856.55,-164.98 866.74,-162.07 862.7,-156.36"/>
</g>
<!-- Node15&#45;&gt;Node7 -->
<g id="edge24" class="edge">
<title>Node15&#45;&gt;Node7</title>
<path fill="none" stroke="#63b8ff" d="M843.94,-108.83C757.97,-97.82 620.42,-80.21 550.08,-71.21"/>
<polygon fill="#63b8ff" stroke="#63b8ff" points="843.54,-112.3 853.9,-110.1 844.43,-105.36 843.54,-112.3"/>
</g>
<!-- Node16&#45;&gt;Node3 -->
<g id="edge28" class="edge">
<title>Node16&#45;&gt;Node3</title>
<path fill="none" stroke="#63b8ff" d="M187.58,-216.55C160.47,-206.71 122.67,-192.98 98.38,-184.17"/>
<polygon fill="#63b8ff" stroke="#63b8ff" points="186.45,-219.86 197.04,-219.98 188.84,-213.28 186.45,-219.86"/>
</g>
<!-- Node16&#45;&gt;Node7 -->
<g id="edge27" class="edge">
<title>Node16&#45;&gt;Node7</title>
<path fill="none" stroke="#63b8ff" d="M208.25,-210.87C200.87,-197.93 194.03,-180.06 200.5,-165 214.53,-132.36 226.8,-126.04 258.5,-110 323.62,-77.04 409.26,-68.16 460.7,-65.96"/>
<polygon fill="#63b8ff" stroke="#63b8ff" points="205.51,-213.07 213.8,-219.67 211.43,-209.34 205.51,-213.07"/>
</g>
<!-- Node17&#45;&gt;Node7 -->
<g id="edge30" class="edge">
<title>Node17&#45;&gt;Node7</title>
<path fill="none" stroke="#63b8ff" d="M965.48,-212.42C986.82,-187.57 1020.54,-139.62 993.5,-110 963.92,-77.6 665.25,-68.52 550.28,-66.22"/>
<polygon fill="#63b8ff" stroke="#63b8ff" points="962.86,-210.1 958.83,-219.9 968.09,-214.76 962.86,-210.1"/>
</g>
</g>
</svg>
