<?xml version="1.0" encoding="UTF-8" standalone="no"?>
<!DOCTYPE svg PUBLIC "-//W3C//DTD SVG 1.1//EN"
 "http://www.w3.org/Graphics/SVG/1.1/DTD/svg11.dtd">
<!-- Generated by graphviz version 2.38.0 (20140413.2041)
 -->
<!-- Title: jngl/Vec2.hpp Pages: 1 -->
<svg width="240pt" height="84pt"
 viewBox="0.00 0.00 240.00 84.00" xmlns="http://www.w3.org/2000/svg" xmlns:xlink="http://www.w3.org/1999/xlink">
<g id="graph0" class="graph" transform="scale(1 1) rotate(0) translate(4 80)">
<title>jngl/Vec2.hpp</title>
<polygon fill="white" stroke="none" points="-4,4 -4,-80 236,-80 236,4 -4,4"/>
<!-- Node1 -->
<g id="node1" class="node"><title>Node1</title>
<polygon fill="#bfbfbf" stroke="black" points="77,-56.5 77,-75.5 157,-75.5 157,-56.5 77,-56.5"/>
<text text-anchor="middle" x="117" y="-63.5" font-family="Lato" font-size="10.00">jngl/Vec2.hpp</text>
</g>
<!-- Node2 -->
<g id="node2" class="node"><title>Node2</title>
<g id="a_node2"><a xlink:href="dll_8hpp_source.html" target="_top" xlink:title="dll.hpp">
<polygon fill="white" stroke="black" points="0,-0.5 0,-19.5 48,-19.5 48,-0.5 0,-0.5"/>
<text text-anchor="middle" x="24" y="-7.5" font-family="Lato" font-size="10.00">dll.hpp</text>
</a>
</g>
</g>
<!-- Node1&#45;&gt;Node2 -->
<g id="edge1" class="edge"><title>Node1&#45;&gt;Node2</title>
<path fill="none" stroke="midnightblue" d="M102.058,-56.324C87.4148,-47.8215 64.8663,-34.7288 47.7623,-24.7975"/>
<polygon fill="midnightblue" stroke="midnightblue" points="49.3104,-21.6491 38.905,-19.6545 45.7954,-27.7027 49.3104,-21.6491"/>
</g>
<!-- Node3 -->
<g id="node3" class="node"><title>Node3</title>
<polygon fill="white" stroke="#bfbfbf" points="66,-0.5 66,-19.5 168,-19.5 168,-0.5 66,-0.5"/>
<text text-anchor="middle" x="117" y="-7.5" font-family="Lato" font-size="10.00">boost/version.hpp</text>
</g>
<!-- Node1&#45;&gt;Node3 -->
<g id="edge2" class="edge"><title>Node1&#45;&gt;Node3</title>
<path fill="none" stroke="midnightblue" d="M117,-56.083C117,-49.0059 117,-38.8611 117,-29.9865"/>
<polygon fill="midnightblue" stroke="midnightblue" points="120.5,-29.751 117,-19.7511 113.5,-29.7511 120.5,-29.751"/>
</g>
<!-- Node4 -->
<g id="node4" class="node"><title>Node4</title>
<polygon fill="white" stroke="#bfbfbf" points="186,-0.5 186,-19.5 232,-19.5 232,-0.5 186,-0.5"/>
<text text-anchor="middle" x="209" y="-7.5" font-family="Lato" font-size="10.00">iosfwd</text>
</g>
<!-- Node1&#45;&gt;Node4 -->
<g id="edge3" class="edge"><title>Node1&#45;&gt;Node4</title>
<path fill="none" stroke="midnightblue" d="M131.781,-56.324C146.267,-47.8215 168.573,-34.7288 185.493,-24.7975"/>
<polygon fill="midnightblue" stroke="midnightblue" points="187.403,-27.735 194.255,-19.6545 183.859,-21.6981 187.403,-27.735"/>
</g>
</g>
</svg>
