<?xml version="1.0" encoding="UTF-8" standalone="no"?>
<!DOCTYPE svg PUBLIC "-//W3C//DTD SVG 1.1//EN"
 "http://www.w3.org/Graphics/SVG/1.1/DTD/svg11.dtd">
<!-- Generated by graphviz version 2.40.1 (20161225.0304)
 -->
<!-- Title: jngl/Vec2.hpp Pages: 1 -->
<svg width="612pt" height="252pt"
 viewBox="0.00 0.00 612.00 252.00" xmlns="http://www.w3.org/2000/svg" xmlns:xlink="http://www.w3.org/1999/xlink">
<g id="graph0" class="graph" transform="scale(1 1) rotate(0) translate(4 248)">
<title>jngl/Vec2.hpp</title>
<polygon fill="#ffffff" stroke="transparent" points="-4,4 -4,-248 608,-248 608,4 -4,4"/>
<!-- Node4 -->
<g id="node1" class="node">
<title>Node4</title>
<polygon fill="#bfbfbf" stroke="#000000" points="281,-224.5 281,-243.5 376,-243.5 376,-224.5 281,-224.5"/>
<text text-anchor="middle" x="328.5" y="-231.5" font-family="'Consolas',monospace" font-size="10.00" fill="#000000">jngl/Vec2.hpp</text>
</g>
<!-- Node5 -->
<g id="node2" class="node">
<title>Node5</title>
<g id="a_node2"><a xlink:href="input_8hpp.html" target="_top" xlink:title="jngl/input.hpp">
<polygon fill="#ffffff" stroke="#000000" points="109,-168.5 109,-187.5 210,-187.5 210,-168.5 109,-168.5"/>
<text text-anchor="middle" x="159.5" y="-175.5" font-family="'Consolas',monospace" font-size="10.00" fill="#000000">jngl/input.hpp</text>
</a>
</g>
</g>
<!-- Node4&#45;&gt;Node5 -->
<g id="edge1" class="edge">
<title>Node4&#45;&gt;Node5</title>
<path fill="none" stroke="#191970" d="M289.8427,-221.1905C258.8807,-210.9309 216.1426,-196.7691 188.173,-187.5011"/>
<polygon fill="#191970" stroke="#191970" points="288.8545,-224.5501 299.4479,-224.3733 291.0563,-217.9054 288.8545,-224.5501"/>
</g>
<!-- Node9 -->
<g id="node6" class="node">
<title>Node9</title>
<g id="a_node6"><a xlink:href="font_8hpp.html" target="_top" xlink:title="jngl/font.hpp">
<polygon fill="#ffffff" stroke="#000000" points="188,-112.5 188,-131.5 283,-131.5 283,-112.5 188,-112.5"/>
<text text-anchor="middle" x="235.5" y="-119.5" font-family="'Consolas',monospace" font-size="10.00" fill="#000000">jngl/font.hpp</text>
</a>
</g>
</g>
<!-- Node4&#45;&gt;Node9 -->
<g id="edge6" class="edge">
<title>Node4&#45;&gt;Node9</title>
<path fill="none" stroke="#191970" d="M313.9915,-216.5274C294.0973,-192.5688 259.041,-150.3505 243.4091,-131.5249"/>
<polygon fill="#191970" stroke="#191970" points="311.4898,-218.9934 320.5709,-224.4509 316.8752,-214.5215 311.4898,-218.9934"/>
</g>
<!-- Node10 -->
<g id="node7" class="node">
<title>Node10</title>
<g id="a_node7"><a xlink:href="screen_8hpp.html" target="_top" xlink:title="jngl/screen.hpp">
<polygon fill="#ffffff" stroke="#000000" points="301,-112.5 301,-131.5 408,-131.5 408,-112.5 301,-112.5"/>
<text text-anchor="middle" x="354.5" y="-119.5" font-family="'Consolas',monospace" font-size="10.00" fill="#000000">jngl/screen.hpp</text>
</a>
</g>
</g>
<!-- Node4&#45;&gt;Node10 -->
<g id="edge8" class="edge">
<title>Node4&#45;&gt;Node10</title>
<path fill="none" stroke="#191970" d="M333.0039,-214.5987C338.63,-190.363 348.0336,-149.8551 352.2889,-131.5249"/>
<polygon fill="#191970" stroke="#191970" points="329.5688,-213.9185 330.7167,-224.4509 336.3875,-215.5014 329.5688,-213.9185"/>
</g>
<!-- Node11 -->
<g id="node8" class="node">
<title>Node11</title>
<g id="a_node8"><a xlink:href="shapes_8hpp.html" target="_top" xlink:title="jngl/shapes.hpp">
<polygon fill="#ffffff" stroke="#000000" points="357,-168.5 357,-187.5 464,-187.5 464,-168.5 357,-168.5"/>
<text text-anchor="middle" x="410.5" y="-175.5" font-family="'Consolas',monospace" font-size="10.00" fill="#000000">jngl/shapes.hpp</text>
</a>
</g>
</g>
<!-- Node4&#45;&gt;Node11 -->
<g id="edge10" class="edge">
<title>Node4&#45;&gt;Node11</title>
<path fill="none" stroke="#191970" d="M351.211,-218.49C365.6788,-208.6096 383.968,-196.1194 396.3804,-187.6427"/>
<polygon fill="#191970" stroke="#191970" points="349.0675,-215.7156 342.7833,-224.2455 353.0152,-221.4962 349.0675,-215.7156"/>
</g>
<!-- Node12 -->
<g id="node9" class="node">
<title>Node12</title>
<g id="a_node9"><a xlink:href="sprite_8hpp_source.html" target="_top" xlink:title="jngl/sprite.hpp">
<polygon fill="#ffffff" stroke="#000000" points="482,-168.5 482,-187.5 589,-187.5 589,-168.5 482,-168.5"/>
<text text-anchor="middle" x="535.5" y="-175.5" font-family="'Consolas',monospace" font-size="10.00" fill="#000000">jngl/sprite.hpp</text>
</a>
</g>
</g>
<!-- Node4&#45;&gt;Node12 -->
<g id="edge12" class="edge">
<title>Node4&#45;&gt;Node12</title>
<path fill="none" stroke="#191970" d="M373.8925,-221.7199C411.955,-211.4228 465.528,-196.9296 500.3798,-187.5011"/>
<polygon fill="#191970" stroke="#191970" points="372.8235,-218.3832 364.0846,-224.3733 374.6516,-225.1403 372.8235,-218.3832"/>
</g>
<!-- Node6 -->
<g id="node3" class="node">
<title>Node6</title>
<g id="a_node3"><a xlink:href="Controller_8hpp_source.html" target="_top" xlink:title="jngl/Controller.hpp">
<polygon fill="#ffffff" stroke="#000000" points="0,-112.5 0,-131.5 131,-131.5 131,-112.5 0,-112.5"/>
<text text-anchor="middle" x="65.5" y="-119.5" font-family="'Consolas',monospace" font-size="10.00" fill="#000000">jngl/Controller.hpp</text>
</a>
</g>
</g>
<!-- Node5&#45;&gt;Node6 -->
<g id="edge2" class="edge">
<title>Node5&#45;&gt;Node6</title>
<path fill="none" stroke="#191970" d="M134.3995,-163.0465C117.674,-153.0824 96.1832,-140.2794 81.6859,-131.6427"/>
<polygon fill="#191970" stroke="#191970" points="132.7441,-166.1343 143.1264,-168.2455 136.3268,-160.1206 132.7441,-166.1343"/>
</g>
<!-- Node7 -->
<g id="node4" class="node">
<title>Node7</title>
<g id="a_node4"><a xlink:href="all_8hpp.html" target="_top" xlink:title="Includes all JNGL headers. ">
<polygon fill="#ffffff" stroke="#000000" points="310,-56.5 310,-75.5 399,-75.5 399,-56.5 310,-56.5"/>
<text text-anchor="middle" x="354.5" y="-63.5" font-family="'Consolas',monospace" font-size="10.00" fill="#000000">jngl/all.hpp</text>
</a>
</g>
</g>
<!-- Node5&#45;&gt;Node7 -->
<g id="edge5" class="edge">
<title>Node5&#45;&gt;Node7</title>
<path fill="none" stroke="#191970" d="M160.1378,-158.3548C161.671,-143.6525 166.1221,-124.0764 178.5,-112 197.0364,-93.915 264.0535,-80.123 309.8281,-72.5457"/>
<polygon fill="#191970" stroke="#191970" points="156.6384,-158.2282 159.4513,-168.4428 163.6223,-158.7035 156.6384,-158.2282"/>
</g>
<!-- Node6&#45;&gt;Node7 -->
<g id="edge3" class="edge">
<title>Node6&#45;&gt;Node7</title>
<path fill="none" stroke="#191970" d="M124.7824,-110.5128C179.6207,-99.8866 259.9366,-84.3237 309.6268,-74.6951"/>
<polygon fill="#191970" stroke="#191970" points="124.004,-107.0984 114.8525,-112.4369 125.3357,-113.9706 124.004,-107.0984"/>
</g>
<!-- Node8 -->
<g id="node5" class="node">
<title>Node8</title>
<g id="a_node5"><a xlink:href="jngl_8hpp_source.html" target="_top" xlink:title="jngl.hpp">
<polygon fill="#ffffff" stroke="#000000" points="322,-.5 322,-19.5 387,-19.5 387,-.5 322,-.5"/>
<text text-anchor="middle" x="354.5" y="-7.5" font-family="'Consolas',monospace" font-size="10.00" fill="#000000">jngl.hpp</text>
</a>
</g>
</g>
<!-- Node7&#45;&gt;Node8 -->
<g id="edge4" class="edge">
<title>Node7&#45;&gt;Node8</title>
<path fill="none" stroke="#191970" d="M354.5,-46.1575C354.5,-37.155 354.5,-26.9199 354.5,-19.6427"/>
<polygon fill="#191970" stroke="#191970" points="351.0001,-46.2455 354.5,-56.2455 358.0001,-46.2456 351.0001,-46.2455"/>
</g>
<!-- Node9&#45;&gt;Node7 -->
<g id="edge7" class="edge">
<title>Node9&#45;&gt;Node7</title>
<path fill="none" stroke="#191970" d="M265.0144,-108.1109C286.5938,-97.9559 315.2976,-84.4482 334.3101,-75.5011"/>
<polygon fill="#191970" stroke="#191970" points="263.5147,-104.9484 255.9568,-112.3733 266.4953,-111.2821 263.5147,-104.9484"/>
</g>
<!-- Node10&#45;&gt;Node7 -->
<g id="edge9" class="edge">
<title>Node10&#45;&gt;Node7</title>
<path fill="none" stroke="#191970" d="M354.5,-102.1575C354.5,-93.155 354.5,-82.9199 354.5,-75.6427"/>
<polygon fill="#191970" stroke="#191970" points="351.0001,-102.2455 354.5,-112.2455 358.0001,-102.2456 351.0001,-102.2455"/>
</g>
<!-- Node11&#45;&gt;Node7 -->
<g id="edge11" class="edge">
<title>Node11&#45;&gt;Node7</title>
<path fill="none" stroke="#191970" d="M417.5033,-158.6229C421.2516,-144.8975 423.7644,-126.4351 416.5,-112 408.1252,-95.3584 390.5664,-83.227 376.2658,-75.6143"/>
<polygon fill="#191970" stroke="#191970" points="414.0746,-157.8574 414.3956,-168.4474 420.7486,-159.9686 414.0746,-157.8574"/>
</g>
<!-- Node12&#45;&gt;Node7 -->
<g id="edge13" class="edge">
<title>Node12&#45;&gt;Node7</title>
<path fill="none" stroke="#191970" d="M512.7315,-162.8304C492.1882,-149.2484 461.0545,-128.924 433.5,-112 412.4029,-99.0422 387.6822,-84.7951 371.5883,-75.6419"/>
<polygon fill="#191970" stroke="#191970" points="510.8411,-165.7764 521.11,-168.3843 514.7087,-159.9419 510.8411,-165.7764"/>
</g>
<!-- Node13 -->
<g id="node10" class="node">
<title>Node13</title>
<g id="a_node10"><a xlink:href="Video_8hpp_source.html" target="_top" xlink:title="jngl/Video.hpp">
<polygon fill="#ffffff" stroke="#000000" points="503,-112.5 503,-131.5 604,-131.5 604,-112.5 503,-112.5"/>
<text text-anchor="middle" x="553.5" y="-119.5" font-family="'Consolas',monospace" font-size="10.00" fill="#000000">jngl/Video.hpp</text>
</a>
</g>
</g>
<!-- Node12&#45;&gt;Node13 -->
<g id="edge14" class="edge">
<title>Node12&#45;&gt;Node13</title>
<path fill="none" stroke="#191970" d="M541.7827,-158.4538C544.6992,-149.3803 548.0358,-138.9998 550.4006,-131.6427"/>
<polygon fill="#191970" stroke="#191970" points="538.3634,-157.6542 538.6354,-168.2455 545.0276,-159.7963 538.3634,-157.6542"/>
</g>
<!-- Node13&#45;&gt;Node7 -->
<g id="edge15" class="edge">
<title>Node13&#45;&gt;Node7</title>
<path fill="none" stroke="#191970" d="M509.3938,-109.5882C472.8323,-99.2996 421.6252,-84.8895 388.2629,-75.5011"/>
<polygon fill="#191970" stroke="#191970" points="508.7164,-113.0335 519.2907,-112.3733 510.6127,-106.2952 508.7164,-113.0335"/>
</g>
</g>
</svg>
