<?xml version="1.0" encoding="UTF-8" standalone="no"?>
<!DOCTYPE svg PUBLIC "-//W3C//DTD SVG 1.1//EN"
 "http://www.w3.org/Graphics/SVG/1.1/DTD/svg11.dtd">
<!-- Generated by graphviz version 2.42.4 (0)
 -->
<!-- Title: jngl/Vec2.hpp Pages: 1 -->
<svg width="896pt" height="308pt"
 viewBox="0.00 0.00 895.88 308.00" xmlns="http://www.w3.org/2000/svg" xmlns:xlink="http://www.w3.org/1999/xlink">
<g id="graph0" class="graph" transform="scale(1 1) rotate(0) translate(4 304)">
<title>jngl/Vec2.hpp</title>
<polygon fill="white" stroke="transparent" points="-4,4 -4,-304 891.88,-304 891.88,4 -4,4"/>
<!-- Node1 -->
<g id="node1" class="node">
<title>Node1</title>
<g id="a_node1"><a xlink:title=" ">
<polygon fill="#bfbfbf" stroke="black" points="393.88,-280.5 393.88,-299.5 488.88,-299.5 488.88,-280.5 393.88,-280.5"/>
<text text-anchor="middle" x="441.38" y="-287.5" font-family="'Consolas',monospace" font-size="10.00">jngl/Vec2.hpp</text>
</a>
</g>
</g>
<!-- Node2 -->
<g id="node2" class="node">
<title>Node2</title>
<g id="a_node2"><a xlink:href="Drawable_8hpp.html" target="_top" xlink:title="Contains jngl::Drawable class.">
<polygon fill="white" stroke="black" points="74.88,-224.5 74.88,-243.5 193.88,-243.5 193.88,-224.5 74.88,-224.5"/>
<text text-anchor="middle" x="134.38" y="-231.5" font-family="'Consolas',monospace" font-size="10.00">jngl/Drawable.hpp</text>
</a>
</g>
</g>
<!-- Node1&#45;&gt;Node2 -->
<g id="edge1" class="edge">
<title>Node1&#45;&gt;Node2</title>
<path fill="none" stroke="midnightblue" d="M383.65,-278.85C325.67,-268.65 237.35,-253.11 182.88,-243.53"/>
<polygon fill="midnightblue" stroke="midnightblue" points="383.29,-282.34 393.75,-280.62 384.51,-275.44 383.29,-282.34"/>
</g>
<!-- Node5 -->
<g id="node5" class="node">
<title>Node5</title>
<g id="a_node5"><a xlink:href="sprite_8hpp.html" target="_top" xlink:title="Contains jngl::Sprite class and related functions.">
<polygon fill="white" stroke="black" points="20.88,-168.5 20.88,-187.5 127.88,-187.5 127.88,-168.5 20.88,-168.5"/>
<text text-anchor="middle" x="74.38" y="-175.5" font-family="'Consolas',monospace" font-size="10.00">jngl/sprite.hpp</text>
</a>
</g>
</g>
<!-- Node1&#45;&gt;Node5 -->
<g id="edge25" class="edge">
<title>Node1&#45;&gt;Node5</title>
<path fill="none" stroke="midnightblue" d="M403.05,-277.51C329.08,-255.34 168.22,-207.13 102.85,-187.53"/>
<polygon fill="midnightblue" stroke="midnightblue" points="402.3,-280.94 412.89,-280.46 404.31,-274.24 402.3,-280.94"/>
</g>
<!-- Node9 -->
<g id="node9" class="node">
<title>Node9</title>
<g id="a_node9"><a xlink:href="font_8hpp.html" target="_top" xlink:title="Contains jngl::Font class and related functions.">
<polygon fill="white" stroke="black" points="346.88,-112.5 346.88,-131.5 441.88,-131.5 441.88,-112.5 346.88,-112.5"/>
<text text-anchor="middle" x="394.38" y="-119.5" font-family="'Consolas',monospace" font-size="10.00">jngl/font.hpp</text>
</a>
</g>
</g>
<!-- Node1&#45;&gt;Node9 -->
<g id="edge12" class="edge">
<title>Node1&#45;&gt;Node9</title>
<path fill="none" stroke="midnightblue" d="M428.58,-272.07C423.07,-263.97 417.06,-253.9 413.38,-244 398.4,-203.74 395.23,-151.68 394.56,-131.51"/>
<polygon fill="midnightblue" stroke="midnightblue" points="425.78,-274.16 434.44,-280.26 431.47,-270.09 425.78,-274.16"/>
</g>
<!-- Node10 -->
<g id="node10" class="node">
<title>Node10</title>
<g id="a_node10"><a xlink:href="framebuffer_8hpp.html" target="_top" xlink:title="Contains jngl::FrameBuffer class.">
<polygon fill="white" stroke="black" points="422.88,-224.5 422.88,-243.5 553.88,-243.5 553.88,-224.5 422.88,-224.5"/>
<text text-anchor="middle" x="488.38" y="-231.5" font-family="'Consolas',monospace" font-size="10.00">jngl/framebuffer.hpp</text>
</a>
</g>
</g>
<!-- Node1&#45;&gt;Node10 -->
<g id="edge14" class="edge">
<title>Node1&#45;&gt;Node10</title>
<path fill="none" stroke="midnightblue" d="M455.8,-272.43C464.04,-262.97 474.03,-251.48 480.76,-243.75"/>
<polygon fill="midnightblue" stroke="midnightblue" points="453.07,-270.24 449.14,-280.08 458.35,-274.84 453.07,-270.24"/>
</g>
<!-- Node11 -->
<g id="node11" class="node">
<title>Node11</title>
<g id="a_node11"><a xlink:href="input_8hpp.html" target="_top" xlink:title="Input related functions.">
<polygon fill="white" stroke="black" points="531.88,-168.5 531.88,-187.5 632.88,-187.5 632.88,-168.5 531.88,-168.5"/>
<text text-anchor="middle" x="582.38" y="-175.5" font-family="'Consolas',monospace" font-size="10.00">jngl/input.hpp</text>
</a>
</g>
</g>
<!-- Node1&#45;&gt;Node11 -->
<g id="edge16" class="edge">
<title>Node1&#45;&gt;Node11</title>
<path fill="none" stroke="midnightblue" d="M498.73,-279.08C521.24,-272.54 545.63,-261.75 562.38,-244 577.29,-228.2 581.1,-201.53 582.06,-187.78"/>
<polygon fill="midnightblue" stroke="midnightblue" points="497.65,-275.74 488.9,-281.71 499.46,-282.51 497.65,-275.74"/>
</g>
<!-- Node13 -->
<g id="node13" class="node">
<title>Node13</title>
<g id="a_node13"><a xlink:href="screen_8hpp.html" target="_top" xlink:title=" ">
<polygon fill="white" stroke="black" points="642.88,-224.5 642.88,-243.5 749.88,-243.5 749.88,-224.5 642.88,-224.5"/>
<text text-anchor="middle" x="696.38" y="-231.5" font-family="'Consolas',monospace" font-size="10.00">jngl/screen.hpp</text>
</a>
</g>
</g>
<!-- Node1&#45;&gt;Node13 -->
<g id="edge20" class="edge">
<title>Node1&#45;&gt;Node13</title>
<path fill="none" stroke="midnightblue" d="M491.69,-278.35C539.88,-268.14 611.66,-252.94 656.16,-243.52"/>
<polygon fill="midnightblue" stroke="midnightblue" points="490.84,-274.95 481.79,-280.44 492.29,-281.8 490.84,-274.95"/>
</g>
<!-- Node15 -->
<g id="node15" class="node">
<title>Node15</title>
<g id="a_node15"><a xlink:href="shapes_8hpp.html" target="_top" xlink:title="Functions for drawing shapes.">
<polygon fill="white" stroke="black" points="780.88,-224.5 780.88,-243.5 887.88,-243.5 887.88,-224.5 780.88,-224.5"/>
<text text-anchor="middle" x="834.38" y="-231.5" font-family="'Consolas',monospace" font-size="10.00">jngl/shapes.hpp</text>
</a>
</g>
</g>
<!-- Node1&#45;&gt;Node15 -->
<g id="edge23" class="edge">
<title>Node1&#45;&gt;Node15</title>
<path fill="none" stroke="midnightblue" d="M499.5,-281.01C575.34,-270.59 707.03,-252.5 780.64,-242.38"/>
<polygon fill="midnightblue" stroke="midnightblue" points="498.61,-277.6 489.18,-282.43 499.56,-284.54 498.61,-277.6"/>
</g>
<!-- Node16 -->
<g id="node16" class="node">
<title>Node16</title>
<g id="a_node16"><a xlink:href="Widget_8hpp_source.html" target="_top" xlink:title=" ">
<polygon fill="white" stroke="black" points="258.88,-168.5 258.88,-187.5 365.88,-187.5 365.88,-168.5 258.88,-168.5"/>
<text text-anchor="middle" x="312.38" y="-175.5" font-family="'Consolas',monospace" font-size="10.00">jngl/Widget.hpp</text>
</a>
</g>
</g>
<!-- Node1&#45;&gt;Node16 -->
<g id="edge26" class="edge">
<title>Node1&#45;&gt;Node16</title>
<path fill="none" stroke="midnightblue" d="M420.41,-274.53C408.4,-266 393.22,-254.8 380.38,-244 357.88,-225.08 333.4,-200.63 320.85,-187.78"/>
<polygon fill="midnightblue" stroke="midnightblue" points="418.68,-277.6 428.88,-280.48 422.71,-271.87 418.68,-277.6"/>
</g>
<!-- Node3 -->
<g id="node3" class="node">
<title>Node3</title>
<g id="a_node3"><a xlink:href="all_8hpp.html" target="_top" xlink:title="Includes all JNGL headers except for init.hpp.">
<polygon fill="white" stroke="black" points="311.88,-56.5 311.88,-75.5 400.88,-75.5 400.88,-56.5 311.88,-56.5"/>
<text text-anchor="middle" x="356.38" y="-63.5" font-family="'Consolas',monospace" font-size="10.00">jngl/all.hpp</text>
</a>
</g>
</g>
<!-- Node2&#45;&gt;Node3 -->
<g id="edge2" class="edge">
<title>Node2&#45;&gt;Node3</title>
<path fill="none" stroke="midnightblue" d="M64.84,-223.17C44.23,-216.65 23.86,-205.86 11.38,-188 2.32,-175.04 -9.02,-136.63 13.38,-112 33.16,-90.26 223.24,-75.45 311.61,-69.69"/>
<polygon fill="midnightblue" stroke="midnightblue" points="64.04,-226.58 74.62,-225.95 65.96,-219.85 64.04,-226.58"/>
</g>
<!-- Node2&#45;&gt;Node5 -->
<g id="edge4" class="edge">
<title>Node2&#45;&gt;Node5</title>
<path fill="none" stroke="midnightblue" d="M117.2,-217.54C106.5,-207.91 93.12,-195.87 84.2,-187.83"/>
<polygon fill="midnightblue" stroke="midnightblue" points="114.97,-220.24 124.74,-224.32 119.65,-215.03 114.97,-220.24"/>
</g>
<!-- Node7 -->
<g id="node7" class="node">
<title>Node7</title>
<g id="a_node7"><a xlink:href="text_8hpp.html" target="_top" xlink:title=" ">
<polygon fill="white" stroke="black" points="145.88,-168.5 145.88,-187.5 240.88,-187.5 240.88,-168.5 145.88,-168.5"/>
<text text-anchor="middle" x="193.38" y="-175.5" font-family="'Consolas',monospace" font-size="10.00">jngl/text.hpp</text>
</a>
</g>
</g>
<!-- Node2&#45;&gt;Node7 -->
<g id="edge8" class="edge">
<title>Node2&#45;&gt;Node7</title>
<path fill="none" stroke="midnightblue" d="M151.27,-217.54C161.79,-207.91 174.95,-195.87 183.73,-187.83"/>
<polygon fill="midnightblue" stroke="midnightblue" points="148.87,-214.99 143.86,-224.32 153.6,-220.15 148.87,-214.99"/>
</g>
<!-- Node4 -->
<g id="node4" class="node">
<title>Node4</title>
<g id="a_node4"><a xlink:href="jngl_8hpp.html" target="_top" xlink:title="Includes jngl/all.hpp.">
<polygon fill="white" stroke="black" points="323.88,-0.5 323.88,-19.5 388.88,-19.5 388.88,-0.5 323.88,-0.5"/>
<text text-anchor="middle" x="356.38" y="-7.5" font-family="'Consolas',monospace" font-size="10.00">jngl.hpp</text>
</a>
</g>
</g>
<!-- Node3&#45;&gt;Node4 -->
<g id="edge3" class="edge">
<title>Node3&#45;&gt;Node4</title>
<path fill="none" stroke="midnightblue" d="M356.38,-45.8C356.38,-36.91 356.38,-26.78 356.38,-19.75"/>
<polygon fill="midnightblue" stroke="midnightblue" points="352.88,-46.08 356.38,-56.08 359.88,-46.08 352.88,-46.08"/>
</g>
<!-- Node5&#45;&gt;Node3 -->
<g id="edge5" class="edge">
<title>Node5&#45;&gt;Node3</title>
<path fill="none" stroke="midnightblue" d="M49.9,-163.02C29.61,-149.7 6.35,-129.18 21.38,-112 58.57,-69.49 229.25,-65.46 311.63,-66.09"/>
<polygon fill="midnightblue" stroke="midnightblue" points="48.24,-166.11 58.58,-168.43 51.94,-160.17 48.24,-166.11"/>
</g>
<!-- Node6 -->
<g id="node6" class="node">
<title>Node6</title>
<g id="a_node6"><a xlink:href="Video_8hpp.html" target="_top" xlink:title=" ">
<polygon fill="white" stroke="black" points="30.88,-112.5 30.88,-131.5 131.88,-131.5 131.88,-112.5 30.88,-112.5"/>
<text text-anchor="middle" x="81.38" y="-119.5" font-family="'Consolas',monospace" font-size="10.00">jngl/Video.hpp</text>
</a>
</g>
</g>
<!-- Node5&#45;&gt;Node6 -->
<g id="edge6" class="edge">
<title>Node5&#45;&gt;Node6</title>
<path fill="none" stroke="midnightblue" d="M76.83,-158.1C77.99,-149.14 79.32,-138.86 80.25,-131.75"/>
<polygon fill="midnightblue" stroke="midnightblue" points="73.35,-157.72 75.54,-168.08 80.29,-158.62 73.35,-157.72"/>
</g>
<!-- Node6&#45;&gt;Node3 -->
<g id="edge7" class="edge">
<title>Node6&#45;&gt;Node3</title>
<path fill="none" stroke="midnightblue" d="M134.99,-110.47C186.96,-100.27 264.82,-84.98 313.01,-75.52"/>
<polygon fill="midnightblue" stroke="midnightblue" points="134.09,-107.08 124.95,-112.44 135.44,-113.95 134.09,-107.08"/>
</g>
<!-- Node7&#45;&gt;Node3 -->
<g id="edge9" class="edge">
<title>Node7&#45;&gt;Node3</title>
<path fill="none" stroke="midnightblue" d="M182.63,-159.68C175.34,-145.5 168.79,-125.62 179.38,-112 195.49,-91.29 264.74,-78.55 311.7,-72.13"/>
<polygon fill="midnightblue" stroke="midnightblue" points="179.61,-161.47 187.59,-168.45 185.71,-158.02 179.61,-161.47"/>
</g>
<!-- Node8 -->
<g id="node8" class="node">
<title>Node8</title>
<g id="a_node8"><a xlink:href="Label_8hpp_source.html" target="_top" xlink:title=" ">
<polygon fill="white" stroke="black" points="188.88,-112.5 188.88,-131.5 289.88,-131.5 289.88,-112.5 188.88,-112.5"/>
<text text-anchor="middle" x="239.38" y="-119.5" font-family="'Consolas',monospace" font-size="10.00">jngl/Label.hpp</text>
</a>
</g>
</g>
<!-- Node7&#45;&gt;Node8 -->
<g id="edge10" class="edge">
<title>Node7&#45;&gt;Node8</title>
<path fill="none" stroke="midnightblue" d="M207.49,-160.43C215.56,-150.97 225.34,-139.48 231.93,-131.75"/>
<polygon fill="midnightblue" stroke="midnightblue" points="204.8,-158.2 200.98,-168.08 210.13,-162.74 204.8,-158.2"/>
</g>
<!-- Node8&#45;&gt;Node3 -->
<g id="edge11" class="edge">
<title>Node8&#45;&gt;Node3</title>
<path fill="none" stroke="midnightblue" d="M267.04,-108.23C288.93,-98.13 318.88,-84.31 337.93,-75.52"/>
<polygon fill="midnightblue" stroke="midnightblue" points="265.53,-105.08 257.92,-112.44 268.47,-111.43 265.53,-105.08"/>
</g>
<!-- Node9&#45;&gt;Node3 -->
<g id="edge13" class="edge">
<title>Node9&#45;&gt;Node3</title>
<path fill="none" stroke="midnightblue" d="M382.32,-103.86C375.74,-94.5 367.87,-83.33 362.54,-75.75"/>
<polygon fill="midnightblue" stroke="midnightblue" points="379.49,-105.92 388.11,-112.08 385.21,-101.89 379.49,-105.92"/>
</g>
<!-- Node10&#45;&gt;Node3 -->
<g id="edge15" class="edge">
<title>Node10&#45;&gt;Node3</title>
<path fill="none" stroke="midnightblue" d="M487.08,-214.26C484.37,-188.39 476.01,-141.56 450.38,-112 434.62,-93.82 409.86,-82.38 389.71,-75.59"/>
<polygon fill="midnightblue" stroke="midnightblue" points="483.6,-214.59 487.96,-224.25 490.57,-213.99 483.6,-214.59"/>
</g>
<!-- Node11&#45;&gt;Node3 -->
<g id="edge17" class="edge">
<title>Node11&#45;&gt;Node3</title>
<path fill="none" stroke="midnightblue" d="M563.29,-162.26C544.15,-147.99 513.41,-126.45 484.38,-112 452.54,-96.15 413.73,-83.34 387.25,-75.5"/>
<polygon fill="midnightblue" stroke="midnightblue" points="561.38,-165.2 571.47,-168.44 565.6,-159.62 561.38,-165.2"/>
</g>
<!-- Node12 -->
<g id="node12" class="node">
<title>Node12</title>
<g id="a_node12"><a xlink:href="Controller_8hpp.html" target="_top" xlink:title=" ">
<polygon fill="white" stroke="black" points="536.88,-112.5 536.88,-131.5 667.88,-131.5 667.88,-112.5 536.88,-112.5"/>
<text text-anchor="middle" x="602.38" y="-119.5" font-family="'Consolas',monospace" font-size="10.00">jngl/Controller.hpp</text>
</a>
</g>
</g>
<!-- Node11&#45;&gt;Node12 -->
<g id="edge18" class="edge">
<title>Node11&#45;&gt;Node12</title>
<path fill="none" stroke="midnightblue" d="M589.16,-158.69C592.53,-149.59 596.45,-139.01 599.14,-131.75"/>
<polygon fill="midnightblue" stroke="midnightblue" points="585.87,-157.49 585.68,-168.08 592.44,-159.92 585.87,-157.49"/>
</g>
<!-- Node12&#45;&gt;Node3 -->
<g id="edge19" class="edge">
<title>Node12&#45;&gt;Node3</title>
<path fill="none" stroke="midnightblue" d="M553.55,-110.28C507.06,-100.08 438.02,-84.92 395.18,-75.52"/>
<polygon fill="midnightblue" stroke="midnightblue" points="552.88,-113.72 563.4,-112.44 554.38,-106.88 552.88,-113.72"/>
</g>
<!-- Node13&#45;&gt;Node3 -->
<g id="edge21" class="edge">
<title>Node13&#45;&gt;Node3</title>
<path fill="none" stroke="midnightblue" d="M699.38,-214.53C702.55,-187.85 703.84,-138.81 676.38,-112 638.14,-74.67 479.61,-67.98 401,-67"/>
<polygon fill="midnightblue" stroke="midnightblue" points="695.91,-214.07 697.98,-224.46 702.84,-215.05 695.91,-214.07"/>
</g>
<!-- Node14 -->
<g id="node14" class="node">
<title>Node14</title>
<g id="a_node14"><a xlink:href="init_8hpp.html" target="_top" xlink:title="Include this file only once, as it defines the main function.">
<polygon fill="white" stroke="black" points="724.88,-168.5 724.88,-187.5 819.88,-187.5 819.88,-168.5 724.88,-168.5"/>
<text text-anchor="middle" x="772.38" y="-175.5" font-family="'Consolas',monospace" font-size="10.00">jngl/init.hpp</text>
</a>
</g>
</g>
<!-- Node13&#45;&gt;Node14 -->
<g id="edge22" class="edge">
<title>Node13&#45;&gt;Node14</title>
<path fill="none" stroke="midnightblue" d="M716.96,-218.38C730.69,-208.62 748.31,-196.11 759.95,-187.83"/>
<polygon fill="midnightblue" stroke="midnightblue" points="714.72,-215.68 708.59,-224.32 718.77,-221.38 714.72,-215.68"/>
</g>
<!-- Node15&#45;&gt;Node3 -->
<g id="edge24" class="edge">
<title>Node15&#45;&gt;Node3</title>
<path fill="none" stroke="midnightblue" d="M837.43,-214.48C838.7,-200.42 838.07,-181.3 828.38,-168 791.11,-116.82 758.45,-128.74 697.38,-112 593.58,-83.54 466.9,-72.85 401.01,-69.01"/>
<polygon fill="midnightblue" stroke="midnightblue" points="833.95,-214.1 836.14,-224.47 840.89,-215 833.95,-214.1"/>
</g>
<!-- Node16&#45;&gt;Node3 -->
<g id="edge27" class="edge">
<title>Node16&#45;&gt;Node3</title>
<path fill="none" stroke="midnightblue" d="M319.33,-158.46C324.26,-145.43 331.09,-127.59 337.38,-112 342.52,-99.26 348.76,-84.62 352.65,-75.59"/>
<polygon fill="midnightblue" stroke="midnightblue" points="315.93,-157.54 315.69,-168.13 322.49,-160.01 315.93,-157.54"/>
</g>
<!-- Node16&#45;&gt;Node8 -->
<g id="edge28" class="edge">
<title>Node16&#45;&gt;Node8</title>
<path fill="none" stroke="midnightblue" d="M292.24,-162.1C279.1,-152.38 262.4,-140.03 251.32,-131.83"/>
<polygon fill="midnightblue" stroke="midnightblue" points="290.53,-165.19 300.65,-168.32 294.69,-159.56 290.53,-165.19"/>
</g>
</g>
</svg>
