<?xml version="1.0" encoding="UTF-8" standalone="no"?>
<!DOCTYPE svg PUBLIC "-//W3C//DTD SVG 1.1//EN"
 "http://www.w3.org/Graphics/SVG/1.1/DTD/svg11.dtd">
<!-- Generated by graphviz version 9.0.0 (20230911.1827)
 -->
<!-- Title: jngl/Vec2.hpp Pages: 1 -->
<svg width="1654pt" height="248pt"
 viewBox="0.00 0.00 1654.00 248.25" xmlns="http://www.w3.org/2000/svg" xmlns:xlink="http://www.w3.org/1999/xlink">
<g id="graph0" class="graph" transform="scale(1 1) rotate(0) translate(4 244.25)">
<title>jngl/Vec2.hpp</title>
<!-- Node1 -->
<g id="Node000001" class="node">
<title>Node1</title>
<g id="a_Node000001"><a xlink:title="Contains jngl::Vec2 class.">
<polygon fill="#999999" stroke="#666666" points="801,-240.25 707,-240.25 707,-221 801,-221 801,-240.25"/>
<text text-anchor="middle" x="754" y="-226.75" font-family="ui-monospace,monospace" font-size="10.00">jngl/Vec2.hpp</text>
</a>
</g>
</g>
<!-- Node2 -->
<g id="Node000002" class="node">
<title>Node2</title>
<g id="a_Node000002"><a xlink:href="AppParameters_8hpp.html" target="_top" xlink:title="Contains jngl::AppParameters struct.">
<polygon fill="white" stroke="#666666" points="148,-185 0,-185 0,-165.75 148,-165.75 148,-185"/>
<text text-anchor="middle" x="74" y="-171.5" font-family="ui-monospace,monospace" font-size="10.00">jngl/AppParameters.hpp</text>
</a>
</g>
</g>
<!-- Node1&#45;&gt;Node2 -->
<g id="edge1_Node000001_Node000002" class="edge">
<title>Node1&#45;&gt;Node2</title>
<g id="a_edge1_Node000001_Node000002"><a xlink:title=" ">
<path fill="none" stroke="#63b8ff" d="M695.28,-225.03C571.64,-215.34 284.7,-192.87 148.43,-182.2"/>
<polygon fill="#63b8ff" stroke="#63b8ff" points="694.97,-228.51 705.21,-225.8 695.52,-221.53 694.97,-228.51"/>
</a>
</g>
</g>
<!-- Node4 -->
<g id="Node000004" class="node">
<title>Node4</title>
<g id="a_Node000004"><a xlink:href="Drawable_8hpp.html" target="_top" xlink:title="Contains jngl::Drawable class.">
<polygon fill="white" stroke="#666666" points="381,-185 263,-185 263,-165.75 381,-165.75 381,-185"/>
<text text-anchor="middle" x="322" y="-171.5" font-family="ui-monospace,monospace" font-size="10.00">jngl/Drawable.hpp</text>
</a>
</g>
</g>
<!-- Node1&#45;&gt;Node4 -->
<g id="edge3_Node000001_Node000004" class="edge">
<title>Node1&#45;&gt;Node4</title>
<g id="a_edge3_Node000001_Node000004"><a xlink:title=" ">
<path fill="none" stroke="#63b8ff" d="M695.12,-222.37C612.71,-212.21 463.84,-193.86 381.24,-183.68"/>
<polygon fill="#63b8ff" stroke="#63b8ff" points="694.68,-225.84 705.03,-223.59 695.53,-218.89 694.68,-225.84"/>
</a>
</g>
</g>
<!-- Node6 -->
<g id="Node000006" class="node">
<title>Node6</title>
<g id="a_Node000006"><a xlink:href="Sprite_8hpp.html" target="_top" xlink:title="Contains jngl::Sprite class and related functions.">
<polygon fill="white" stroke="#666666" points="232,-129.75 126,-129.75 126,-110.5 232,-110.5 232,-129.75"/>
<text text-anchor="middle" x="179" y="-116.25" font-family="ui-monospace,monospace" font-size="10.00">jngl/Sprite.hpp</text>
</a>
</g>
</g>
<!-- Node1&#45;&gt;Node6 -->
<g id="edge17_Node000001_Node000006" class="edge">
<title>Node1&#45;&gt;Node6</title>
<g id="a_edge17_Node000001_Node000006"><a xlink:title=" ">
<path fill="none" stroke="#63b8ff" d="M695.37,-228.82C580.96,-226.54 332.28,-217.84 254,-185 224.67,-172.69 198.37,-144.55 186.18,-130.08"/>
<polygon fill="#63b8ff" stroke="#63b8ff" points="695.1,-232.32 705.16,-229.01 695.23,-225.32 695.1,-232.32"/>
</a>
</g>
</g>
<!-- Node9 -->
<g id="Node000009" class="node">
<title>Node9</title>
<g id="a_Node000009"><a xlink:href="FrameBuffer_8hpp.html" target="_top" xlink:title="Contains jngl::FrameBuffer class.">
<polygon fill="white" stroke="#666666" points="650,-74.5 520,-74.5 520,-55.25 650,-55.25 650,-74.5"/>
<text text-anchor="middle" x="585" y="-61" font-family="ui-monospace,monospace" font-size="10.00">jngl/FrameBuffer.hpp</text>
</a>
</g>
</g>
<!-- Node1&#45;&gt;Node9 -->
<g id="edge11_Node000001_Node000009" class="edge">
<title>Node1&#45;&gt;Node9</title>
<g id="a_edge11_Node000001_Node000009"><a xlink:title=" ">
<path fill="none" stroke="#63b8ff" d="M740.61,-211.3C722.12,-186.71 686.95,-142.43 651,-110.5 635.18,-96.45 614.69,-83.25 600.77,-74.91"/>
<polygon fill="#63b8ff" stroke="#63b8ff" points="737.8,-213.39 746.57,-219.33 743.42,-209.21 737.8,-213.39"/>
</a>
</g>
</g>
<!-- Node10 -->
<g id="Node000010" class="node">
<title>Node10</title>
<g id="a_Node000010"><a xlink:href="MouseInfo_8hpp.html" target="_top" xlink:title="Contains jngl::MouseInfo class.">
<polygon fill="white" stroke="#666666" points="792,-74.5 668,-74.5 668,-55.25 792,-55.25 792,-74.5"/>
<text text-anchor="middle" x="730" y="-61" font-family="ui-monospace,monospace" font-size="10.00">jngl/MouseInfo.hpp</text>
</a>
</g>
</g>
<!-- Node1&#45;&gt;Node10 -->
<g id="edge13_Node000001_Node000010" class="edge">
<title>Node1&#45;&gt;Node10</title>
<g id="a_edge13_Node000001_Node000010"><a xlink:title=" ">
<path fill="none" stroke="#63b8ff" d="M751.05,-209.47C745.79,-173.61 735.02,-100.1 731.3,-74.72"/>
<polygon fill="#63b8ff" stroke="#63b8ff" points="747.58,-209.94 752.49,-219.32 754.5,-208.92 747.58,-209.94"/>
</a>
</g>
</g>
<!-- Node11 -->
<g id="Node000011" class="node">
<title>Node11</title>
<g id="a_Node000011"><a xlink:href="Rect_8hpp.html" target="_top" xlink:title="Contains jngl::Rect class.">
<polygon fill="white" stroke="#666666" points="904,-74.5 810,-74.5 810,-55.25 904,-55.25 904,-74.5"/>
<text text-anchor="middle" x="857" y="-61" font-family="ui-monospace,monospace" font-size="10.00">jngl/Rect.hpp</text>
</a>
</g>
</g>
<!-- Node1&#45;&gt;Node11 -->
<g id="edge15_Node000001_Node000011" class="edge">
<title>Node1&#45;&gt;Node11</title>
<g id="a_edge15_Node000001_Node000011"><a xlink:title=" ">
<path fill="none" stroke="#63b8ff" d="M765.51,-211.32C787.6,-176.2 835.19,-100.55 851.43,-74.72"/>
<polygon fill="#63b8ff" stroke="#63b8ff" points="762.71,-209.21 760.34,-219.54 768.63,-212.94 762.71,-209.21"/>
</a>
</g>
</g>
<!-- Node12 -->
<g id="Node000012" class="node">
<title>Node12</title>
<g id="a_Node000012"><a xlink:href="TextLine_8hpp.html" target="_top" xlink:title="Contains jngl::TextLine class.">
<polygon fill="white" stroke="#666666" points="518,-129.75 400,-129.75 400,-110.5 518,-110.5 518,-129.75"/>
<text text-anchor="middle" x="459" y="-116.25" font-family="ui-monospace,monospace" font-size="10.00">jngl/TextLine.hpp</text>
</a>
</g>
</g>
<!-- Node1&#45;&gt;Node12 -->
<g id="edge18_Node000001_Node000012" class="edge">
<title>Node1&#45;&gt;Node12</title>
<g id="a_edge18_Node000001_Node000012"><a xlink:title=" ">
<path fill="none" stroke="#63b8ff" d="M718.81,-216.68C658.35,-194.44 536.18,-149.51 483.78,-130.24"/>
<polygon fill="#63b8ff" stroke="#63b8ff" points="717.34,-219.87 727.94,-220.04 719.76,-213.3 717.34,-219.87"/>
</a>
</g>
</g>
<!-- Node13 -->
<g id="Node000013" class="node">
<title>Node13</title>
<g id="a_Node000013"><a xlink:href="Widget_8hpp.html" target="_top" xlink:title="Contains jngl::Container class.">
<polygon fill="white" stroke="#666666" points="642,-129.75 536,-129.75 536,-110.5 642,-110.5 642,-129.75"/>
<text text-anchor="middle" x="589" y="-116.25" font-family="ui-monospace,monospace" font-size="10.00">jngl/Widget.hpp</text>
</a>
</g>
</g>
<!-- Node1&#45;&gt;Node13 -->
<g id="edge21_Node000001_Node000013" class="edge">
<title>Node1&#45;&gt;Node13</title>
<g id="a_edge21_Node000001_Node000013"><a xlink:title=" ">
<path fill="none" stroke="#63b8ff" d="M725.4,-215.47C709.35,-207.18 689.16,-196.17 672,-185 644.72,-167.24 615.01,-143.09 599.61,-130.16"/>
<polygon fill="#63b8ff" stroke="#63b8ff" points="723.43,-218.4 733.93,-219.82 726.61,-212.16 723.43,-218.4"/>
</a>
</g>
</g>
<!-- Node14 -->
<g id="Node000014" class="node">
<title>Node14</title>
<g id="a_Node000014"><a xlink:href="effects_8hpp.html" target="_top" xlink:title="Effects that can be applied to jngl::Widget.">
<polygon fill="white" stroke="#666666" points="964,-185 858,-185 858,-165.75 964,-165.75 964,-185"/>
<text text-anchor="middle" x="911" y="-171.5" font-family="ui-monospace,monospace" font-size="10.00">jngl/effects.hpp</text>
</a>
</g>
</g>
<!-- Node1&#45;&gt;Node14 -->
<g id="edge24_Node000001_Node000014" class="edge">
<title>Node1&#45;&gt;Node14</title>
<g id="a_edge24_Node000001_Node000014"><a xlink:title=" ">
<path fill="none" stroke="#63b8ff" d="M791.43,-216.93C820.01,-207.24 858.7,-194.11 884.24,-185.45"/>
<polygon fill="#63b8ff" stroke="#63b8ff" points="790.41,-213.58 782.07,-220.11 792.66,-220.21 790.41,-213.58"/>
</a>
</g>
</g>
<!-- Node15 -->
<g id="Node000015" class="node">
<title>Node15</title>
<g id="a_Node000015"><a xlink:href="font_8hpp.html" target="_top" xlink:title="Contains jngl::Font class and related functions.">
<polygon fill="white" stroke="#666666" points="1054,-129.75 960,-129.75 960,-110.5 1054,-110.5 1054,-129.75"/>
<text text-anchor="middle" x="1007" y="-116.25" font-family="ui-monospace,monospace" font-size="10.00">jngl/font.hpp</text>
</a>
</g>
</g>
<!-- Node1&#45;&gt;Node15 -->
<g id="edge26_Node000001_Node000015" class="edge">
<title>Node1&#45;&gt;Node15</title>
<g id="a_edge26_Node000001_Node000015"><a xlink:title=" ">
<path fill="none" stroke="#63b8ff" d="M812.33,-223.4C868.35,-216.43 948.06,-203.62 973,-185 991.52,-171.17 1000.98,-144.22 1004.84,-130.16"/>
<polygon fill="#63b8ff" stroke="#63b8ff" points="812.13,-219.9 802.62,-224.57 812.97,-226.85 812.13,-219.9"/>
</a>
</g>
</g>
<!-- Node17 -->
<g id="Node000017" class="node">
<title>Node17</title>
<g id="a_Node000017"><a xlink:href="input_8hpp.html" target="_top" xlink:title="Input related functions.">
<polygon fill="white" stroke="#666666" points="1265,-129.75 1165,-129.75 1165,-110.5 1265,-110.5 1265,-129.75"/>
<text text-anchor="middle" x="1215" y="-116.25" font-family="ui-monospace,monospace" font-size="10.00">jngl/input.hpp</text>
</a>
</g>
</g>
<!-- Node1&#45;&gt;Node17 -->
<g id="edge30_Node000001_Node000017" class="edge">
<title>Node1&#45;&gt;Node17</title>
<g id="a_edge30_Node000001_Node000017"><a xlink:title=" ">
<path fill="none" stroke="#63b8ff" d="M812.73,-220.43C861.74,-212.35 933.29,-199.63 995,-185 1064.85,-168.44 1145.57,-143.48 1187.11,-130.19"/>
<polygon fill="#63b8ff" stroke="#63b8ff" points="812.19,-216.97 802.89,-222.04 813.32,-223.88 812.19,-216.97"/>
</a>
</g>
</g>
<!-- Node20 -->
<g id="Node000020" class="node">
<title>Node20</title>
<g id="a_Node000020"><a xlink:href="log_8hpp.html" target="_top" xlink:title="Logging functions.">
<polygon fill="white" stroke="#666666" points="1247,-185 1159,-185 1159,-165.75 1247,-165.75 1247,-185"/>
<text text-anchor="middle" x="1203" y="-171.5" font-family="ui-monospace,monospace" font-size="10.00">jngl/log.hpp</text>
</a>
</g>
</g>
<!-- Node1&#45;&gt;Node20 -->
<g id="edge36_Node000001_Node000020" class="edge">
<title>Node1&#45;&gt;Node20</title>
<g id="a_edge36_Node000001_Node000020"><a xlink:title=" ">
<path fill="none" stroke="#63b8ff" d="M812.42,-222.7C903.48,-211.9 1077.27,-191.29 1158.76,-181.62"/>
<polygon fill="#63b8ff" stroke="#63b8ff" points="812.22,-219.2 802.71,-223.85 813.05,-226.15 812.22,-219.2"/>
</a>
</g>
</g>
<!-- Node21 -->
<g id="Node000021" class="node">
<title>Node21</title>
<g id="a_Node000021"><a xlink:href="screen_8hpp.html" target="_top" xlink:title=" ">
<polygon fill="white" stroke="#666666" points="1500,-185 1394,-185 1394,-165.75 1500,-165.75 1500,-185"/>
<text text-anchor="middle" x="1447" y="-171.5" font-family="ui-monospace,monospace" font-size="10.00">jngl/screen.hpp</text>
</a>
</g>
</g>
<!-- Node1&#45;&gt;Node21 -->
<g id="edge38_Node000001_Node000021" class="edge">
<title>Node1&#45;&gt;Node21</title>
<g id="a_edge38_Node000001_Node000021"><a xlink:title=" ">
<path fill="none" stroke="#63b8ff" d="M812.45,-225.13C944.95,-214.95 1266.47,-190.25 1393.8,-180.46"/>
<polygon fill="#63b8ff" stroke="#63b8ff" points="812.57,-221.61 802.87,-225.87 813.11,-228.59 812.57,-221.61"/>
</a>
</g>
</g>
<!-- Node22 -->
<g id="Node000022" class="node">
<title>Node22</title>
<g id="a_Node000022"><a xlink:href="shapes_8hpp.html" target="_top" xlink:title="Functions for drawing shapes.">
<polygon fill="white" stroke="#666666" points="1646,-185 1540,-185 1540,-165.75 1646,-165.75 1646,-185"/>
<text text-anchor="middle" x="1593" y="-171.5" font-family="ui-monospace,monospace" font-size="10.00">jngl/shapes.hpp</text>
</a>
</g>
</g>
<!-- Node1&#45;&gt;Node22 -->
<g id="edge40_Node000001_Node000022" class="edge">
<title>Node1&#45;&gt;Node22</title>
<g id="a_edge40_Node000001_Node000022"><a xlink:title=" ">
<path fill="none" stroke="#63b8ff" d="M812.67,-227.02C939.72,-221.2 1249.77,-205.96 1509,-185 1518.94,-184.2 1529.52,-183.21 1539.71,-182.2"/>
<polygon fill="#63b8ff" stroke="#63b8ff" points="812.65,-223.52 802.82,-227.47 812.97,-230.51 812.65,-223.52"/>
</a>
</g>
</g>
<!-- Node3 -->
<g id="Node000003" class="node">
<title>Node3</title>
<g id="a_Node000003"><a xlink:href="init_8hpp.html" target="_top" xlink:title="Include this file only once, as it defines the main function.">
<polygon fill="white" stroke="#666666" points="108,-129.75 14,-129.75 14,-110.5 108,-110.5 108,-129.75"/>
<text text-anchor="middle" x="61" y="-116.25" font-family="ui-monospace,monospace" font-size="10.00">jngl/init.hpp</text>
</a>
</g>
</g>
<!-- Node2&#45;&gt;Node3 -->
<g id="edge2_Node000002_Node000003" class="edge">
<title>Node2&#45;&gt;Node3</title>
<g id="a_edge2_Node000002_Node000003"><a xlink:title=" ">
<path fill="none" stroke="#63b8ff" d="M69.13,-154.42C67.09,-146.05 64.81,-136.75 63.19,-130.11"/>
<polygon fill="#63b8ff" stroke="#63b8ff" points="65.72,-155.23 71.49,-164.11 72.52,-153.57 65.72,-155.23"/>
</a>
</g>
</g>
<!-- Node5 -->
<g id="Node000005" class="node">
<title>Node5</title>
<g id="a_Node000005"><a xlink:href="jngl_8hpp.html" target="_top" xlink:title="Includes all JNGL headers except for init.hpp.">
<polygon fill="white" stroke="#666666" points="926,-19.25 862,-19.25 862,0 926,0 926,-19.25"/>
<text text-anchor="middle" x="894" y="-5.75" font-family="ui-monospace,monospace" font-size="10.00">jngl.hpp</text>
</a>
</g>
</g>
<!-- Node4&#45;&gt;Node5 -->
<g id="edge4_Node000004_Node000005" class="edge">
<title>Node4&#45;&gt;Node5</title>
<g id="a_edge4_Node000004_Node000005"><a xlink:title=" ">
<path fill="none" stroke="#63b8ff" d="M299.83,-158.13C285.98,-145.85 272.01,-128.14 279,-110.5 291.43,-79.15 300.6,-69.84 331,-55.25 425.7,-9.81 756.23,-9.17 861.52,-10.17"/>
<polygon fill="#63b8ff" stroke="#63b8ff" points="297.55,-160.79 307.51,-164.41 301.98,-155.37 297.55,-160.79"/>
</a>
</g>
</g>
<!-- Node4&#45;&gt;Node6 -->
<g id="edge5_Node000004_Node000006" class="edge">
<title>Node4&#45;&gt;Node6</title>
<g id="a_edge5_Node000004_Node000006"><a xlink:title=" ">
<path fill="none" stroke="#63b8ff" d="M287.22,-161.42C261.25,-151.75 226.43,-138.79 203.38,-130.2"/>
<polygon fill="#63b8ff" stroke="#63b8ff" points="285.73,-164.6 296.32,-164.81 288.17,-158.04 285.73,-164.6"/>
</a>
</g>
</g>
<!-- Node7 -->
<g id="Node000007" class="node">
<title>Node7</title>
<g id="a_Node000007"><a xlink:href="text_8hpp.html" target="_top" xlink:title=" ">
<polygon fill="white" stroke="#666666" points="382,-129.75 288,-129.75 288,-110.5 382,-110.5 382,-129.75"/>
<text text-anchor="middle" x="335" y="-116.25" font-family="ui-monospace,monospace" font-size="10.00">jngl/text.hpp</text>
</a>
</g>
</g>
<!-- Node4&#45;&gt;Node7 -->
<g id="edge7_Node000004_Node000007" class="edge">
<title>Node4&#45;&gt;Node7</title>
<g id="a_edge7_Node000004_Node000007"><a xlink:title=" ">
<path fill="none" stroke="#63b8ff" d="M326.87,-154.42C328.91,-146.05 331.19,-136.75 332.81,-130.11"/>
<polygon fill="#63b8ff" stroke="#63b8ff" points="323.48,-153.57 324.51,-164.11 330.28,-155.23 323.48,-153.57"/>
</a>
</g>
</g>
<!-- Node6&#45;&gt;Node5 -->
<g id="edge6_Node000006_Node000005" class="edge">
<title>Node6&#45;&gt;Node5</title>
<g id="a_edge6_Node000006_Node000005"><a xlink:title=" ">
<path fill="none" stroke="#63b8ff" d="M191.98,-101.12C204.07,-85.93 223.56,-65.14 246,-55.25 302.62,-30.29 738.54,-15.33 861.69,-11.57"/>
<polygon fill="#63b8ff" stroke="#63b8ff" points="189.33,-98.83 186.07,-108.91 194.9,-103.06 189.33,-98.83"/>
</a>
</g>
</g>
<!-- Node7&#45;&gt;Node5 -->
<g id="edge8_Node000007_Node000005" class="edge">
<title>Node7&#45;&gt;Node5</title>
<g id="a_edge8_Node000007_Node000005"><a xlink:title=" ">
<path fill="none" stroke="#63b8ff" d="M332.24,-98.95C331.51,-84.64 333.29,-66.12 345,-55.25 382.93,-20.03 749.36,-12.47 861.53,-10.97"/>
<polygon fill="#63b8ff" stroke="#63b8ff" points="328.73,-99.03 333.19,-108.64 335.7,-98.34 328.73,-99.03"/>
</a>
</g>
</g>
<!-- Node8 -->
<g id="Node000008" class="node">
<title>Node8</title>
<g id="a_Node000008"><a xlink:href="Label_8hpp.html" target="_top" xlink:title="Contains jngl::Label class.">
<polygon fill="white" stroke="#666666" points="464,-74.5 364,-74.5 364,-55.25 464,-55.25 464,-74.5"/>
<text text-anchor="middle" x="414" y="-61" font-family="ui-monospace,monospace" font-size="10.00">jngl/Label.hpp</text>
</a>
</g>
</g>
<!-- Node7&#45;&gt;Node8 -->
<g id="edge9_Node000007_Node000008" class="edge">
<title>Node7&#45;&gt;Node8</title>
<g id="a_edge9_Node000007_Node000008"><a xlink:title=" ">
<path fill="none" stroke="#63b8ff" d="M357.76,-103.78C371.61,-94.45 388.82,-82.85 400.53,-74.95"/>
<polygon fill="#63b8ff" stroke="#63b8ff" points="355.99,-100.75 349.66,-109.25 359.9,-106.56 355.99,-100.75"/>
</a>
</g>
</g>
<!-- Node8&#45;&gt;Node5 -->
<g id="edge10_Node000008_Node000005" class="edge">
<title>Node8&#45;&gt;Node5</title>
<g id="a_edge10_Node000008_Node000005"><a xlink:title=" ">
<path fill="none" stroke="#63b8ff" d="M475.48,-55.56C476.32,-55.45 477.17,-55.35 478,-55.25 620.78,-37.97 791.55,-20.73 861.6,-13.8"/>
<polygon fill="#63b8ff" stroke="#63b8ff" points="475.28,-52.05 465.79,-56.78 476.15,-59 475.28,-52.05"/>
</a>
</g>
</g>
<!-- Node9&#45;&gt;Node5 -->
<g id="edge12_Node000009_Node000005" class="edge">
<title>Node9&#45;&gt;Node5</title>
<g id="a_edge12_Node000009_Node000005"><a xlink:title=" ">
<path fill="none" stroke="#63b8ff" d="M649.08,-52.83C713.97,-41.65 811.68,-24.81 861.81,-16.17"/>
<polygon fill="#63b8ff" stroke="#63b8ff" points="648.52,-49.38 639.26,-54.52 649.71,-56.28 648.52,-49.38"/>
</a>
</g>
</g>
<!-- Node10&#45;&gt;Node5 -->
<g id="edge14_Node000010_Node000005" class="edge">
<title>Node10&#45;&gt;Node5</title>
<g id="a_edge14_Node000010_Node000005"><a xlink:title=" ">
<path fill="none" stroke="#63b8ff" d="M768.7,-51.31C798.59,-41.6 839.25,-28.4 866.04,-19.7"/>
<polygon fill="#63b8ff" stroke="#63b8ff" points="767.69,-47.96 759.26,-54.37 769.85,-54.62 767.69,-47.96"/>
</a>
</g>
</g>
<!-- Node11&#45;&gt;Node5 -->
<g id="edge16_Node000011_Node000005" class="edge">
<title>Node11&#45;&gt;Node5</title>
<g id="a_edge16_Node000011_Node000005"><a xlink:title=" ">
<path fill="none" stroke="#63b8ff" d="M869.66,-45.65C875.77,-36.86 882.82,-26.71 887.76,-19.61"/>
<polygon fill="#63b8ff" stroke="#63b8ff" points="866.81,-43.63 863.97,-53.84 872.55,-47.62 866.81,-43.63"/>
</a>
</g>
</g>
<!-- Node12&#45;&gt;Node5 -->
<g id="edge19_Node000012_Node000005" class="edge">
<title>Node12&#45;&gt;Node5</title>
<g id="a_edge19_Node000012_Node000005"><a xlink:title=" ">
<path fill="none" stroke="#63b8ff" d="M407.54,-106.87C371.69,-96 333.8,-78.28 355,-55.25 389.38,-17.9 750.29,-11.81 861.54,-10.82"/>
<polygon fill="#63b8ff" stroke="#63b8ff" points="406.5,-110.21 417.08,-109.6 408.43,-103.48 406.5,-110.21"/>
</a>
</g>
</g>
<!-- Node12&#45;&gt;Node8 -->
<g id="edge20_Node000012_Node000008" class="edge">
<title>Node12&#45;&gt;Node8</title>
<g id="a_edge20_Node000012_Node000008"><a xlink:title=" ">
<path fill="none" stroke="#63b8ff" d="M444.32,-101.76C436.74,-92.78 427.79,-82.2 421.59,-74.86"/>
<polygon fill="#63b8ff" stroke="#63b8ff" points="441.46,-103.8 450.59,-109.18 446.81,-99.28 441.46,-103.8"/>
</a>
</g>
</g>
<!-- Node13&#45;&gt;Node5 -->
<g id="edge22_Node000013_Node000005" class="edge">
<title>Node13&#45;&gt;Node5</title>
<g id="a_edge22_Node000013_Node000005"><a xlink:title=" ">
<path fill="none" stroke="#63b8ff" d="M551.88,-105.82C523.97,-93.82 493.35,-75.07 511,-55.25 534.2,-29.19 773.67,-15.98 861.73,-11.97"/>
<polygon fill="#63b8ff" stroke="#63b8ff" points="550.35,-108.97 560.93,-109.5 552.99,-102.49 550.35,-108.97"/>
</a>
</g>
</g>
<!-- Node13&#45;&gt;Node8 -->
<g id="edge23_Node000013_Node000008" class="edge">
<title>Node13&#45;&gt;Node8</title>
<g id="a_edge23_Node000013_Node000008"><a xlink:title=" ">
<path fill="none" stroke="#63b8ff" d="M548.55,-106.82C516.57,-97.09 472.67,-83.73 443.83,-74.95"/>
<polygon fill="#63b8ff" stroke="#63b8ff" points="547.28,-110.09 557.87,-109.65 549.32,-103.39 547.28,-110.09"/>
</a>
</g>
</g>
<!-- Node14&#45;&gt;Node5 -->
<g id="edge25_Node000014_Node000005" class="edge">
<title>Node14&#45;&gt;Node5</title>
<g id="a_edge25_Node000014_Node000005"><a xlink:title=" ">
<path fill="none" stroke="#63b8ff" d="M913.97,-154.18C916.89,-130.29 919.97,-89.44 913,-55.25 910.34,-42.21 903.73,-28.27 899.05,-19.51"/>
<polygon fill="#63b8ff" stroke="#63b8ff" points="910.55,-153.41 912.68,-163.79 917.48,-154.34 910.55,-153.41"/>
</a>
</g>
</g>
<!-- Node15&#45;&gt;Node5 -->
<g id="edge27_Node000015_Node000005" class="edge">
<title>Node15&#45;&gt;Node5</title>
<g id="a_edge27_Node000015_Node000005"><a xlink:title=" ">
<path fill="none" stroke="#63b8ff" d="M991.55,-102.04C979.47,-88.91 962.09,-70.51 946,-55.25 932.36,-42.32 915.75,-28.35 905.03,-19.55"/>
<polygon fill="#63b8ff" stroke="#63b8ff" points="988.63,-104.04 997.96,-109.06 993.8,-99.32 988.63,-104.04"/>
</a>
</g>
</g>
<!-- Node16 -->
<g id="Node000016" class="node">
<title>Node16</title>
<g id="a_Node000016"><a xlink:href="OutlinedFont_8hpp.html" target="_top" xlink:title="Contains jngl::OutlinedFont class.">
<polygon fill="white" stroke="#666666" points="1140,-74.5 998,-74.5 998,-55.25 1140,-55.25 1140,-74.5"/>
<text text-anchor="middle" x="1069" y="-61" font-family="ui-monospace,monospace" font-size="10.00">jngl/OutlinedFont.hpp</text>
</a>
</g>
</g>
<!-- Node15&#45;&gt;Node16 -->
<g id="edge28_Node000015_Node000016" class="edge">
<title>Node15&#45;&gt;Node16</title>
<g id="a_edge28_Node000015_Node000016"><a xlink:title=" ">
<path fill="none" stroke="#63b8ff" d="M1026.2,-102.64C1036.9,-93.44 1049.81,-82.35 1058.64,-74.77"/>
<polygon fill="#63b8ff" stroke="#63b8ff" points="1023.97,-99.94 1018.67,-109.11 1028.53,-105.25 1023.97,-99.94"/>
</a>
</g>
</g>
<!-- Node16&#45;&gt;Node5 -->
<g id="edge29_Node000016_Node000005" class="edge">
<title>Node16&#45;&gt;Node5</title>
<g id="a_edge29_Node000016_Node000005"><a xlink:title=" ">
<path fill="none" stroke="#63b8ff" d="M1028.55,-51.57C996.57,-41.84 952.67,-28.48 923.83,-19.7"/>
<polygon fill="#63b8ff" stroke="#63b8ff" points="1027.28,-54.84 1037.87,-54.4 1029.32,-48.14 1027.28,-54.84"/>
</a>
</g>
</g>
<!-- Node17&#45;&gt;Node5 -->
<g id="edge31_Node000017_Node000005" class="edge">
<title>Node17&#45;&gt;Node5</title>
<g id="a_edge31_Node000017_Node000005"><a xlink:title=" ">
<path fill="none" stroke="#63b8ff" d="M1202,-101.68C1189.96,-86.86 1170.68,-66.29 1149,-55.25 1075.51,-17.82 976.36,-11.12 926.09,-10.33"/>
<polygon fill="#63b8ff" stroke="#63b8ff" points="1198.98,-103.5 1207.89,-109.24 1204.5,-99.2 1198.98,-103.5"/>
</a>
</g>
</g>
<!-- Node18 -->
<g id="Node000018" class="node">
<title>Node18</title>
<g id="a_Node000018"><a xlink:href="Controller_8hpp.html" target="_top" xlink:title="Contains jngl::Controller class.">
<polygon fill="white" stroke="#666666" points="1326,-74.5 1196,-74.5 1196,-55.25 1326,-55.25 1326,-74.5"/>
<text text-anchor="middle" x="1261" y="-61" font-family="ui-monospace,monospace" font-size="10.00">jngl/Controller.hpp</text>
</a>
</g>
</g>
<!-- Node17&#45;&gt;Node18 -->
<g id="edge32_Node000017_Node000018" class="edge">
<title>Node17&#45;&gt;Node18</title>
<g id="a_edge32_Node000017_Node000018"><a xlink:title=" ">
<path fill="none" stroke="#63b8ff" d="M1230,-101.76C1237.76,-92.78 1246.9,-82.2 1253.24,-74.86"/>
<polygon fill="#63b8ff" stroke="#63b8ff" points="1227.47,-99.33 1223.59,-109.19 1232.77,-103.91 1227.47,-99.33"/>
</a>
</g>
</g>
<!-- Node19 -->
<g id="Node000019" class="node">
<title>Node19</title>
<g id="a_Node000019"><a xlink:href="KeyboardShortcut_8hpp.html" target="_top" xlink:title="Contains jngl::KeyboardShortcut class.">
<polygon fill="white" stroke="#666666" points="1510,-74.5 1344,-74.5 1344,-55.25 1510,-55.25 1510,-74.5"/>
<text text-anchor="middle" x="1427" y="-61" font-family="ui-monospace,monospace" font-size="10.00">jngl/KeyboardShortcut.hpp</text>
</a>
</g>
</g>
<!-- Node17&#45;&gt;Node19 -->
<g id="edge34_Node000017_Node000019" class="edge">
<title>Node17&#45;&gt;Node19</title>
<g id="a_edge34_Node000017_Node000019"><a xlink:title=" ">
<path fill="none" stroke="#63b8ff" d="M1261.99,-107.32C1300.88,-97.55 1355.32,-83.88 1390.86,-74.95"/>
<polygon fill="#63b8ff" stroke="#63b8ff" points="1261.28,-103.89 1252.43,-109.72 1262.98,-110.68 1261.28,-103.89"/>
</a>
</g>
</g>
<!-- Node18&#45;&gt;Node5 -->
<g id="edge33_Node000018_Node000005" class="edge">
<title>Node18&#45;&gt;Node5</title>
<g id="a_edge33_Node000018_Node000005"><a xlink:title=" ">
<path fill="none" stroke="#63b8ff" d="M1187.39,-53.19C1107.76,-41.64 984.42,-23.74 926.34,-15.32"/>
<polygon fill="#63b8ff" stroke="#63b8ff" points="1186.43,-56.59 1196.83,-54.56 1187.44,-49.66 1186.43,-56.59"/>
</a>
</g>
</g>
<!-- Node19&#45;&gt;Node5 -->
<g id="edge35_Node000019_Node000005" class="edge">
<title>Node19&#45;&gt;Node5</title>
<g id="a_edge35_Node000019_Node000005"><a xlink:title=" ">
<path fill="none" stroke="#63b8ff" d="M1332.57,-54.44C1210.88,-42.28 1005.56,-21.77 926.44,-13.87"/>
<polygon fill="#63b8ff" stroke="#63b8ff" points="1331.91,-57.89 1342.21,-55.4 1332.61,-50.93 1331.91,-57.89"/>
</a>
</g>
</g>
<!-- Node20&#45;&gt;Node5 -->
<g id="edge37_Node000020_Node000005" class="edge">
<title>Node20&#45;&gt;Node5</title>
<g id="a_edge37_Node000020_Node000005"><a xlink:title=" ">
<path fill="none" stroke="#63b8ff" d="M1258.52,-171.76C1368.65,-164.7 1597.62,-139.69 1519,-55.25 1478.37,-11.61 1048.9,-9.99 926.43,-10.42"/>
<polygon fill="#63b8ff" stroke="#63b8ff" points="1258.57,-168.25 1248.8,-172.35 1259,-175.23 1258.57,-168.25"/>
</a>
</g>
</g>
<!-- Node21&#45;&gt;Node5 -->
<g id="edge39_Node000021_Node000005" class="edge">
<title>Node21&#45;&gt;Node5</title>
<g id="a_edge39_Node000021_Node000005"><a xlink:title=" ">
<path fill="none" stroke="#63b8ff" d="M1482.47,-160.56C1496.89,-153.34 1512.57,-143.16 1523,-129.75 1543.79,-103.01 1562.11,-80.01 1539,-55.25 1496.88,-10.11 1050.8,-9.6 926.18,-10.35"/>
<polygon fill="#63b8ff" stroke="#63b8ff" points="1481.26,-157.26 1473.67,-164.66 1484.21,-163.61 1481.26,-157.26"/>
</a>
</g>
</g>
<!-- Node22&#45;&gt;Node5 -->
<g id="edge41_Node000022_Node000005" class="edge">
<title>Node22&#45;&gt;Node5</title>
<g id="a_edge41_Node000022_Node000005"><a xlink:title=" ">
<path fill="none" stroke="#63b8ff" d="M1593.56,-154.15C1593.1,-126.92 1587.76,-79.12 1558,-55.25 1508.38,-15.44 1052.64,-11.1 926.33,-10.66"/>
<polygon fill="#63b8ff" stroke="#63b8ff" points="1590.06,-153.83 1593.5,-163.85 1597.06,-153.88 1590.06,-153.83"/>
</a>
</g>
</g>
</g>
</svg>
