<?xml version="1.0" encoding="UTF-8" standalone="no"?>
<!DOCTYPE svg PUBLIC "-//W3C//DTD SVG 1.1//EN"
 "http://www.w3.org/Graphics/SVG/1.1/DTD/svg11.dtd">
<!-- Generated by graphviz version 9.0.0 (20230911.1827)
 -->
<!-- Title: jngl/Vec2.hpp Pages: 1 -->
<svg width="1302pt" height="248pt"
 viewBox="0.00 0.00 1302.00 248.25" xmlns="http://www.w3.org/2000/svg" xmlns:xlink="http://www.w3.org/1999/xlink">
<g id="graph0" class="graph" transform="scale(1 1) rotate(0) translate(4 244.25)">
<title>jngl/Vec2.hpp</title>
<!-- Node1 -->
<g id="Node000001" class="node">
<title>Node1</title>
<g id="a_Node000001"><a xlink:title="Contains jngl::Vec2 class.">
<polygon fill="#999999" stroke="#666666" points="736,-240.25 642,-240.25 642,-221 736,-221 736,-240.25"/>
<text text-anchor="middle" x="689" y="-226.75" font-family="ui-monospace,monospace" font-size="10.00">jngl/Vec2.hpp</text>
</a>
</g>
</g>
<!-- Node2 -->
<g id="Node000002" class="node">
<title>Node2</title>
<g id="a_Node000002"><a xlink:href="AppParameters_8hpp.html" target="_top" xlink:title="Contains jngl::AppParameters struct.">
<polygon fill="white" stroke="#666666" points="148,-185 0,-185 0,-165.75 148,-165.75 148,-185"/>
<text text-anchor="middle" x="74" y="-171.5" font-family="ui-monospace,monospace" font-size="10.00">jngl/AppParameters.hpp</text>
</a>
</g>
</g>
<!-- Node1&#45;&gt;Node2 -->
<g id="edge1_Node000001_Node000002" class="edge">
<title>Node1&#45;&gt;Node2</title>
<g id="a_edge1_Node000001_Node000002"><a xlink:title=" ">
<path fill="none" stroke="#63b8ff" d="M630.07,-224.52C517.49,-214.77 272.06,-193.52 148.39,-182.82"/>
<polygon fill="#63b8ff" stroke="#63b8ff" points="629.74,-228.01 640,-225.38 630.34,-221.03 629.74,-228.01"/>
</a>
</g>
</g>
<!-- Node4 -->
<g id="Node000004" class="node">
<title>Node4</title>
<g id="a_Node000004"><a xlink:href="Drawable_8hpp.html" target="_top" xlink:title="Contains jngl::Drawable class.">
<polygon fill="white" stroke="#666666" points="381,-185 263,-185 263,-165.75 381,-165.75 381,-185"/>
<text text-anchor="middle" x="322" y="-171.5" font-family="ui-monospace,monospace" font-size="10.00">jngl/Drawable.hpp</text>
</a>
</g>
</g>
<!-- Node1&#45;&gt;Node4 -->
<g id="edge3_Node000001_Node000004" class="edge">
<title>Node1&#45;&gt;Node4</title>
<g id="a_edge3_Node000001_Node000004"><a xlink:title=" ">
<path fill="none" stroke="#63b8ff" d="M630.39,-221.12C562.16,-211.22 450.1,-194.96 381.5,-185.01"/>
<polygon fill="#63b8ff" stroke="#63b8ff" points="629.88,-224.58 640.27,-222.56 630.88,-217.66 629.88,-224.58"/>
</a>
</g>
</g>
<!-- Node6 -->
<g id="Node000006" class="node">
<title>Node6</title>
<g id="a_Node000006"><a xlink:href="Sprite_8hpp.html" target="_top" xlink:title="Contains jngl::Sprite class and related functions.">
<polygon fill="white" stroke="#666666" points="232,-129.75 126,-129.75 126,-110.5 232,-110.5 232,-129.75"/>
<text text-anchor="middle" x="179" y="-116.25" font-family="ui-monospace,monospace" font-size="10.00">jngl/Sprite.hpp</text>
</a>
</g>
</g>
<!-- Node1&#45;&gt;Node6 -->
<g id="edge15_Node000001_Node000006" class="edge">
<title>Node1&#45;&gt;Node6</title>
<g id="a_edge15_Node000001_Node000006"><a xlink:title=" ">
<path fill="none" stroke="#63b8ff" d="M630.28,-227.9C527.66,-224.19 320.3,-213.33 254,-185 224.75,-172.5 198.41,-144.44 186.19,-130.04"/>
<polygon fill="#63b8ff" stroke="#63b8ff" points="630.03,-231.4 640.15,-228.25 630.28,-224.4 630.03,-231.4"/>
</a>
</g>
</g>
<!-- Node9 -->
<g id="Node000009" class="node">
<title>Node9</title>
<g id="a_Node000009"><a xlink:href="FrameBuffer_8hpp.html" target="_top" xlink:title="Contains jngl::FrameBuffer class.">
<polygon fill="white" stroke="#666666" points="650,-74.5 520,-74.5 520,-55.25 650,-55.25 650,-74.5"/>
<text text-anchor="middle" x="585" y="-61" font-family="ui-monospace,monospace" font-size="10.00">jngl/FrameBuffer.hpp</text>
</a>
</g>
</g>
<!-- Node1&#45;&gt;Node9 -->
<g id="edge11_Node000001_Node000009" class="edge">
<title>Node1&#45;&gt;Node9</title>
<g id="a_edge11_Node000001_Node000009"><a xlink:title=" ">
<path fill="none" stroke="#63b8ff" d="M686.69,-209.57C682.92,-184.3 673.48,-140.53 651,-110.5 639.06,-94.55 619.67,-82.43 604.99,-74.87"/>
<polygon fill="#63b8ff" stroke="#63b8ff" points="683.18,-209.69 687.95,-219.15 690.12,-208.77 683.18,-209.69"/>
</a>
</g>
</g>
<!-- Node10 -->
<g id="Node000010" class="node">
<title>Node10</title>
<g id="a_Node000010"><a xlink:href="Rect_8hpp.html" target="_top" xlink:title="Contains jngl::Rect class.">
<polygon fill="white" stroke="#666666" points="762,-74.5 668,-74.5 668,-55.25 762,-55.25 762,-74.5"/>
<text text-anchor="middle" x="715" y="-61" font-family="ui-monospace,monospace" font-size="10.00">jngl/Rect.hpp</text>
</a>
</g>
</g>
<!-- Node1&#45;&gt;Node10 -->
<g id="edge13_Node000001_Node000010" class="edge">
<title>Node1&#45;&gt;Node10</title>
<g id="a_edge13_Node000001_Node000010"><a xlink:title=" ">
<path fill="none" stroke="#63b8ff" d="M692.2,-209.47C697.89,-173.61 709.57,-100.1 713.6,-74.72"/>
<polygon fill="#63b8ff" stroke="#63b8ff" points="688.75,-208.9 690.64,-219.33 695.66,-210 688.75,-208.9"/>
</a>
</g>
</g>
<!-- Node11 -->
<g id="Node000011" class="node">
<title>Node11</title>
<g id="a_Node000011"><a xlink:href="TextLine_8hpp.html" target="_top" xlink:title="Contains jngl::TextLine class.">
<polygon fill="white" stroke="#666666" points="518,-129.75 400,-129.75 400,-110.5 518,-110.5 518,-129.75"/>
<text text-anchor="middle" x="459" y="-116.25" font-family="ui-monospace,monospace" font-size="10.00">jngl/TextLine.hpp</text>
</a>
</g>
</g>
<!-- Node1&#45;&gt;Node11 -->
<g id="edge16_Node000001_Node000011" class="edge">
<title>Node1&#45;&gt;Node11</title>
<g id="a_edge16_Node000001_Node000011"><a xlink:title=" ">
<path fill="none" stroke="#63b8ff" d="M659.48,-215.7C611.67,-193.14 518.58,-149.23 478.32,-130.24"/>
<polygon fill="#63b8ff" stroke="#63b8ff" points="657.88,-218.81 668.42,-219.92 660.87,-212.48 657.88,-218.81"/>
</a>
</g>
</g>
<!-- Node12 -->
<g id="Node000012" class="node">
<title>Node12</title>
<g id="a_Node000012"><a xlink:href="Widget_8hpp.html" target="_top" xlink:title="Contains jngl::Container class.">
<polygon fill="white" stroke="#666666" points="642,-129.75 536,-129.75 536,-110.5 642,-110.5 642,-129.75"/>
<text text-anchor="middle" x="589" y="-116.25" font-family="ui-monospace,monospace" font-size="10.00">jngl/Widget.hpp</text>
</a>
</g>
</g>
<!-- Node1&#45;&gt;Node12 -->
<g id="edge19_Node000001_Node000012" class="edge">
<title>Node1&#45;&gt;Node12</title>
<g id="a_edge19_Node000001_Node000012"><a xlink:title=" ">
<path fill="none" stroke="#63b8ff" d="M673.19,-212.47C651.68,-189.13 613.95,-148.19 597.3,-130.13"/>
<polygon fill="#63b8ff" stroke="#63b8ff" points="670.44,-214.65 679.79,-219.63 675.59,-209.91 670.44,-214.65"/>
</a>
</g>
</g>
<!-- Node13 -->
<g id="Node000013" class="node">
<title>Node13</title>
<g id="a_Node000013"><a xlink:href="effects_8hpp.html" target="_top" xlink:title="Effects that can be applied to jngl::Widget.">
<polygon fill="white" stroke="#666666" points="843,-185 737,-185 737,-165.75 843,-165.75 843,-185"/>
<text text-anchor="middle" x="790" y="-171.5" font-family="ui-monospace,monospace" font-size="10.00">jngl/effects.hpp</text>
</a>
</g>
</g>
<!-- Node1&#45;&gt;Node13 -->
<g id="edge22_Node000001_Node000013" class="edge">
<title>Node1&#45;&gt;Node13</title>
<g id="a_edge22_Node000001_Node000013"><a xlink:title=" ">
<path fill="none" stroke="#63b8ff" d="M716.31,-215.23C734.3,-205.74 757.3,-193.61 772.78,-185.45"/>
<polygon fill="#63b8ff" stroke="#63b8ff" points="714.69,-212.13 707.47,-219.89 717.95,-218.32 714.69,-212.13"/>
</a>
</g>
</g>
<!-- Node14 -->
<g id="Node000014" class="node">
<title>Node14</title>
<g id="a_Node000014"><a xlink:href="font_8hpp.html" target="_top" xlink:title="Contains jngl::Font class and related functions.">
<polygon fill="white" stroke="#666666" points="936,-129.75 842,-129.75 842,-110.5 936,-110.5 936,-129.75"/>
<text text-anchor="middle" x="889" y="-116.25" font-family="ui-monospace,monospace" font-size="10.00">jngl/font.hpp</text>
</a>
</g>
</g>
<!-- Node1&#45;&gt;Node14 -->
<g id="edge24_Node000001_Node000014" class="edge">
<title>Node1&#45;&gt;Node14</title>
<g id="a_edge24_Node000001_Node000014"><a xlink:title=" ">
<path fill="none" stroke="#63b8ff" d="M747.47,-224.62C780.91,-219.24 822.04,-208.09 852,-185 870.68,-170.61 881.62,-143.91 886.3,-130.03"/>
<polygon fill="#63b8ff" stroke="#63b8ff" points="747.33,-221.1 737.94,-226.01 748.35,-228.03 747.33,-221.1"/>
</a>
</g>
</g>
<!-- Node16 -->
<g id="Node000016" class="node">
<title>Node16</title>
<g id="a_Node000016"><a xlink:href="input_8hpp.html" target="_top" xlink:title="Input related functions.">
<polygon fill="white" stroke="#666666" points="1131,-129.75 1031,-129.75 1031,-110.5 1131,-110.5 1131,-129.75"/>
<text text-anchor="middle" x="1081" y="-116.25" font-family="ui-monospace,monospace" font-size="10.00">jngl/input.hpp</text>
</a>
</g>
</g>
<!-- Node1&#45;&gt;Node16 -->
<g id="edge28_Node000001_Node000016" class="edge">
<title>Node1&#45;&gt;Node16</title>
<g id="a_edge28_Node000001_Node000016"><a xlink:title=" ">
<path fill="none" stroke="#63b8ff" d="M741.04,-217.99C778.24,-209.45 829.39,-197.25 874,-185 938.92,-167.17 1014.26,-143.05 1053.7,-130.15"/>
<polygon fill="#63b8ff" stroke="#63b8ff" points="740.42,-214.54 731.45,-220.18 741.97,-221.37 740.42,-214.54"/>
</a>
</g>
</g>
<!-- Node18 -->
<g id="Node000018" class="node">
<title>Node18</title>
<g id="a_Node000018"><a xlink:href="screen_8hpp.html" target="_top" xlink:title=" ">
<polygon fill="white" stroke="#666666" points="1102,-185 996,-185 996,-165.75 1102,-165.75 1102,-185"/>
<text text-anchor="middle" x="1049" y="-171.5" font-family="ui-monospace,monospace" font-size="10.00">jngl/screen.hpp</text>
</a>
</g>
</g>
<!-- Node1&#45;&gt;Node18 -->
<g id="edge32_Node000001_Node000018" class="edge">
<title>Node1&#45;&gt;Node18</title>
<g id="a_edge32_Node000001_Node000018"><a xlink:title=" ">
<path fill="none" stroke="#63b8ff" d="M747.48,-220.97C816.18,-210.81 929.18,-194.1 995.6,-184.27"/>
<polygon fill="#63b8ff" stroke="#63b8ff" points="747.31,-217.46 737.93,-222.39 748.34,-224.39 747.31,-217.46"/>
</a>
</g>
</g>
<!-- Node19 -->
<g id="Node000019" class="node">
<title>Node19</title>
<g id="a_Node000019"><a xlink:href="shapes_8hpp.html" target="_top" xlink:title="Functions for drawing shapes.">
<polygon fill="white" stroke="#666666" points="1294,-185 1188,-185 1188,-165.75 1294,-165.75 1294,-185"/>
<text text-anchor="middle" x="1241" y="-171.5" font-family="ui-monospace,monospace" font-size="10.00">jngl/shapes.hpp</text>
</a>
</g>
</g>
<!-- Node1&#45;&gt;Node19 -->
<g id="edge34_Node000001_Node000019" class="edge">
<title>Node1&#45;&gt;Node19</title>
<g id="a_edge34_Node000001_Node000019"><a xlink:title=" ">
<path fill="none" stroke="#63b8ff" d="M747.35,-224C855.09,-213.6 1083.74,-191.55 1187.63,-181.52"/>
<polygon fill="#63b8ff" stroke="#63b8ff" points="747.19,-220.5 737.57,-224.94 747.86,-227.46 747.19,-220.5"/>
</a>
</g>
</g>
<!-- Node3 -->
<g id="Node000003" class="node">
<title>Node3</title>
<g id="a_Node000003"><a xlink:href="init_8hpp.html" target="_top" xlink:title="Include this file only once, as it defines the main function.">
<polygon fill="white" stroke="#666666" points="108,-129.75 14,-129.75 14,-110.5 108,-110.5 108,-129.75"/>
<text text-anchor="middle" x="61" y="-116.25" font-family="ui-monospace,monospace" font-size="10.00">jngl/init.hpp</text>
</a>
</g>
</g>
<!-- Node2&#45;&gt;Node3 -->
<g id="edge2_Node000002_Node000003" class="edge">
<title>Node2&#45;&gt;Node3</title>
<g id="a_edge2_Node000002_Node000003"><a xlink:title=" ">
<path fill="none" stroke="#63b8ff" d="M69.13,-154.42C67.09,-146.05 64.81,-136.75 63.19,-130.11"/>
<polygon fill="#63b8ff" stroke="#63b8ff" points="65.72,-155.23 71.49,-164.11 72.52,-153.57 65.72,-155.23"/>
</a>
</g>
</g>
<!-- Node5 -->
<g id="Node000005" class="node">
<title>Node5</title>
<g id="a_Node000005"><a xlink:href="jngl_8hpp.html" target="_top" xlink:title="Includes all JNGL headers except for init.hpp.">
<polygon fill="white" stroke="#666666" points="747,-19.25 683,-19.25 683,0 747,0 747,-19.25"/>
<text text-anchor="middle" x="715" y="-5.75" font-family="ui-monospace,monospace" font-size="10.00">jngl.hpp</text>
</a>
</g>
</g>
<!-- Node4&#45;&gt;Node5 -->
<g id="edge4_Node000004_Node000005" class="edge">
<title>Node4&#45;&gt;Node5</title>
<g id="a_edge4_Node000004_Node000005"><a xlink:title=" ">
<path fill="none" stroke="#63b8ff" d="M300.35,-158.13C292.01,-150.54 283.43,-140.74 279,-129.75 265.71,-96.8 278.64,-75.26 308,-55.25 368.79,-13.81 597.38,-10.21 682.66,-10.35"/>
<polygon fill="#63b8ff" stroke="#63b8ff" points="298.02,-160.74 307.93,-164.48 302.52,-155.38 298.02,-160.74"/>
</a>
</g>
</g>
<!-- Node4&#45;&gt;Node6 -->
<g id="edge5_Node000004_Node000006" class="edge">
<title>Node4&#45;&gt;Node6</title>
<g id="a_edge5_Node000004_Node000006"><a xlink:title=" ">
<path fill="none" stroke="#63b8ff" d="M287.22,-161.42C261.25,-151.75 226.43,-138.79 203.38,-130.2"/>
<polygon fill="#63b8ff" stroke="#63b8ff" points="285.73,-164.6 296.32,-164.81 288.17,-158.04 285.73,-164.6"/>
</a>
</g>
</g>
<!-- Node7 -->
<g id="Node000007" class="node">
<title>Node7</title>
<g id="a_Node000007"><a xlink:href="text_8hpp.html" target="_top" xlink:title=" ">
<polygon fill="white" stroke="#666666" points="382,-129.75 288,-129.75 288,-110.5 382,-110.5 382,-129.75"/>
<text text-anchor="middle" x="335" y="-116.25" font-family="ui-monospace,monospace" font-size="10.00">jngl/text.hpp</text>
</a>
</g>
</g>
<!-- Node4&#45;&gt;Node7 -->
<g id="edge7_Node000004_Node000007" class="edge">
<title>Node4&#45;&gt;Node7</title>
<g id="a_edge7_Node000004_Node000007"><a xlink:title=" ">
<path fill="none" stroke="#63b8ff" d="M326.87,-154.42C328.91,-146.05 331.19,-136.75 332.81,-130.11"/>
<polygon fill="#63b8ff" stroke="#63b8ff" points="323.48,-153.57 324.51,-164.11 330.28,-155.23 323.48,-153.57"/>
</a>
</g>
</g>
<!-- Node6&#45;&gt;Node5 -->
<g id="edge6_Node000006_Node000005" class="edge">
<title>Node6&#45;&gt;Node5</title>
<g id="a_edge6_Node000006_Node000005"><a xlink:title=" ">
<path fill="none" stroke="#63b8ff" d="M192.05,-101.26C204.18,-86.17 223.69,-65.43 246,-55.25 324.13,-19.59 589.67,-12.41 682.58,-10.98"/>
<polygon fill="#63b8ff" stroke="#63b8ff" points="189.42,-98.93 186.11,-108.99 194.98,-103.19 189.42,-98.93"/>
</a>
</g>
</g>
<!-- Node7&#45;&gt;Node5 -->
<g id="edge8_Node000007_Node000005" class="edge">
<title>Node7&#45;&gt;Node5</title>
<g id="a_edge8_Node000007_Node000005"><a xlink:title=" ">
<path fill="none" stroke="#63b8ff" d="M321.51,-100.55C313.12,-86.55 305.86,-67.71 317,-55.25 341.27,-28.1 592.36,-15.5 682.78,-11.82"/>
<polygon fill="#63b8ff" stroke="#63b8ff" points="318.57,-102.46 327.02,-108.86 324.41,-98.59 318.57,-102.46"/>
</a>
</g>
</g>
<!-- Node8 -->
<g id="Node000008" class="node">
<title>Node8</title>
<g id="a_Node000008"><a xlink:href="Label_8hpp.html" target="_top" xlink:title="Contains jngl::Label class.">
<polygon fill="white" stroke="#666666" points="426,-74.5 326,-74.5 326,-55.25 426,-55.25 426,-74.5"/>
<text text-anchor="middle" x="376" y="-61" font-family="ui-monospace,monospace" font-size="10.00">jngl/Label.hpp</text>
</a>
</g>
</g>
<!-- Node7&#45;&gt;Node8 -->
<g id="edge9_Node000007_Node000008" class="edge">
<title>Node7&#45;&gt;Node8</title>
<g id="a_edge9_Node000007_Node000008"><a xlink:title=" ">
<path fill="none" stroke="#63b8ff" d="M348.59,-101.47C355.46,-92.56 363.49,-82.12 369.08,-74.86"/>
<polygon fill="#63b8ff" stroke="#63b8ff" points="346.02,-99.07 342.69,-109.13 351.57,-103.34 346.02,-99.07"/>
</a>
</g>
</g>
<!-- Node8&#45;&gt;Node5 -->
<g id="edge10_Node000008_Node000005" class="edge">
<title>Node8&#45;&gt;Node5</title>
<g id="a_edge10_Node000008_Node000005"><a xlink:title=" ">
<path fill="none" stroke="#63b8ff" d="M437.56,-54.2C509.7,-42.87 626.49,-24.53 682.72,-15.7"/>
<polygon fill="#63b8ff" stroke="#63b8ff" points="437.22,-50.72 427.88,-55.73 438.3,-57.63 437.22,-50.72"/>
</a>
</g>
</g>
<!-- Node9&#45;&gt;Node5 -->
<g id="edge12_Node000009_Node000005" class="edge">
<title>Node9&#45;&gt;Node5</title>
<g id="a_edge12_Node000009_Node000005"><a xlink:title=" ">
<path fill="none" stroke="#63b8ff" d="M617.57,-50.53C641.07,-40.91 672.17,-28.17 692.84,-19.7"/>
<polygon fill="#63b8ff" stroke="#63b8ff" points="616.38,-47.24 608.45,-54.27 619.03,-53.72 616.38,-47.24"/>
</a>
</g>
</g>
<!-- Node10&#45;&gt;Node5 -->
<g id="edge14_Node000010_Node000005" class="edge">
<title>Node10&#45;&gt;Node5</title>
<g id="a_edge14_Node000010_Node000005"><a xlink:title=" ">
<path fill="none" stroke="#63b8ff" d="M715,-43.63C715,-35.34 715,-26.17 715,-19.61"/>
<polygon fill="#63b8ff" stroke="#63b8ff" points="711.5,-43.57 715,-53.57 718.5,-43.57 711.5,-43.57"/>
</a>
</g>
</g>
<!-- Node11&#45;&gt;Node5 -->
<g id="edge17_Node000011_Node000005" class="edge">
<title>Node11&#45;&gt;Node5</title>
<g id="a_edge17_Node000011_Node000005"><a xlink:title=" ">
<path fill="none" stroke="#63b8ff" d="M467.14,-99.67C474.23,-85.18 485.9,-66.09 502,-55.25 557.48,-17.91 638.06,-10.87 682.52,-10.08"/>
<polygon fill="#63b8ff" stroke="#63b8ff" points="464,-98.13 463.07,-108.69 470.38,-101.02 464,-98.13"/>
</a>
</g>
</g>
<!-- Node11&#45;&gt;Node8 -->
<g id="edge18_Node000011_Node000008" class="edge">
<title>Node11&#45;&gt;Node8</title>
<g id="a_edge18_Node000011_Node000008"><a xlink:title=" ">
<path fill="none" stroke="#63b8ff" d="M435.51,-104.05C420.89,-94.67 402.57,-82.92 390.15,-74.95"/>
<polygon fill="#63b8ff" stroke="#63b8ff" points="433.34,-106.82 443.65,-109.27 437.12,-100.93 433.34,-106.82"/>
</a>
</g>
</g>
<!-- Node12&#45;&gt;Node5 -->
<g id="edge20_Node000012_Node000005" class="edge">
<title>Node12&#45;&gt;Node5</title>
<g id="a_edge20_Node000012_Node000005"><a xlink:title=" ">
<path fill="none" stroke="#63b8ff" d="M551.29,-105.77C524,-94.03 494.58,-75.65 511,-55.25 532.2,-28.91 630.78,-17.27 682.74,-12.88"/>
<polygon fill="#63b8ff" stroke="#63b8ff" points="549.95,-109.01 560.53,-109.52 552.58,-102.52 549.95,-109.01"/>
</a>
</g>
</g>
<!-- Node12&#45;&gt;Node8 -->
<g id="edge21_Node000012_Node000008" class="edge">
<title>Node12&#45;&gt;Node8</title>
<g id="a_edge21_Node000012_Node000008"><a xlink:title=" ">
<path fill="none" stroke="#63b8ff" d="M541.79,-107.32C502.72,-97.55 448.02,-83.88 412.31,-74.95"/>
<polygon fill="#63b8ff" stroke="#63b8ff" points="540.85,-110.69 551.4,-109.72 542.55,-103.9 540.85,-110.69"/>
</a>
</g>
</g>
<!-- Node13&#45;&gt;Node5 -->
<g id="edge23_Node000013_Node000005" class="edge">
<title>Node13&#45;&gt;Node5</title>
<g id="a_edge23_Node000013_Node000005"><a xlink:title=" ">
<path fill="none" stroke="#63b8ff" d="M791.07,-154C791.46,-129.03 789.06,-86.21 771,-55.25 761.92,-39.68 745.16,-27.43 732.33,-19.74"/>
<polygon fill="#63b8ff" stroke="#63b8ff" points="787.58,-153.65 790.74,-163.76 794.58,-153.89 787.58,-153.65"/>
</a>
</g>
</g>
<!-- Node14&#45;&gt;Node5 -->
<g id="edge25_Node000014_Node000005" class="edge">
<title>Node14&#45;&gt;Node5</title>
<g id="a_edge25_Node000014_Node000005"><a xlink:title=" ">
<path fill="none" stroke="#63b8ff" d="M927.44,-105.91C955.61,-94.16 986.18,-75.71 969,-55.25 941,-21.9 808.93,-13.47 747.09,-11.34"/>
<polygon fill="#63b8ff" stroke="#63b8ff" points="926.29,-102.6 918.27,-109.52 928.86,-109.11 926.29,-102.6"/>
</a>
</g>
</g>
<!-- Node15 -->
<g id="Node000015" class="node">
<title>Node15</title>
<g id="a_Node000015"><a xlink:href="OutlinedFont_8hpp.html" target="_top" xlink:title="Contains jngl::OutlinedFont class.">
<polygon fill="white" stroke="#666666" points="960,-74.5 818,-74.5 818,-55.25 960,-55.25 960,-74.5"/>
<text text-anchor="middle" x="889" y="-61" font-family="ui-monospace,monospace" font-size="10.00">jngl/OutlinedFont.hpp</text>
</a>
</g>
</g>
<!-- Node14&#45;&gt;Node15 -->
<g id="edge26_Node000014_Node000015" class="edge">
<title>Node14&#45;&gt;Node15</title>
<g id="a_edge26_Node000014_Node000015"><a xlink:title=" ">
<path fill="none" stroke="#63b8ff" d="M889,-98.88C889,-90.59 889,-81.42 889,-74.86"/>
<polygon fill="#63b8ff" stroke="#63b8ff" points="885.5,-98.82 889,-108.82 892.5,-98.82 885.5,-98.82"/>
</a>
</g>
</g>
<!-- Node15&#45;&gt;Node5 -->
<g id="edge27_Node000015_Node000005" class="edge">
<title>Node15&#45;&gt;Node5</title>
<g id="a_edge27_Node000015_Node000005"><a xlink:title=" ">
<path fill="none" stroke="#63b8ff" d="M848.78,-51.57C816.99,-41.84 773.33,-28.48 744.66,-19.7"/>
<polygon fill="#63b8ff" stroke="#63b8ff" points="847.45,-54.82 858.04,-54.4 849.5,-48.13 847.45,-54.82"/>
</a>
</g>
</g>
<!-- Node16&#45;&gt;Node5 -->
<g id="edge29_Node000016_Node000005" class="edge">
<title>Node16&#45;&gt;Node5</title>
<g id="a_edge29_Node000016_Node000005"><a xlink:title=" ">
<path fill="none" stroke="#63b8ff" d="M1116.36,-105.5C1143.03,-93.28 1172.28,-74.37 1155,-55.25 1127.75,-25.09 844.54,-14.29 747.45,-11.46"/>
<polygon fill="#63b8ff" stroke="#63b8ff" points="1115.16,-102.21 1107.38,-109.4 1117.95,-108.63 1115.16,-102.21"/>
</a>
</g>
</g>
<!-- Node17 -->
<g id="Node000017" class="node">
<title>Node17</title>
<g id="a_Node000017"><a xlink:href="Controller_8hpp.html" target="_top" xlink:title="Contains jngl::Controller class.">
<polygon fill="white" stroke="#666666" points="1146,-74.5 1016,-74.5 1016,-55.25 1146,-55.25 1146,-74.5"/>
<text text-anchor="middle" x="1081" y="-61" font-family="ui-monospace,monospace" font-size="10.00">jngl/Controller.hpp</text>
</a>
</g>
</g>
<!-- Node16&#45;&gt;Node17 -->
<g id="edge30_Node000016_Node000017" class="edge">
<title>Node16&#45;&gt;Node17</title>
<g id="a_edge30_Node000016_Node000017"><a xlink:title=" ">
<path fill="none" stroke="#63b8ff" d="M1081,-98.88C1081,-90.59 1081,-81.42 1081,-74.86"/>
<polygon fill="#63b8ff" stroke="#63b8ff" points="1077.5,-98.82 1081,-108.82 1084.5,-98.82 1077.5,-98.82"/>
</a>
</g>
</g>
<!-- Node17&#45;&gt;Node5 -->
<g id="edge31_Node000017_Node000005" class="edge">
<title>Node17&#45;&gt;Node5</title>
<g id="a_edge31_Node000017_Node000005"><a xlink:title=" ">
<path fill="none" stroke="#63b8ff" d="M1007.11,-53.12C927.68,-41.57 805.05,-23.73 747.25,-15.32"/>
<polygon fill="#63b8ff" stroke="#63b8ff" points="1006.6,-56.59 1017,-54.56 1007.61,-49.66 1006.6,-56.59"/>
</a>
</g>
</g>
<!-- Node18&#45;&gt;Node5 -->
<g id="edge33_Node000018_Node000005" class="edge">
<title>Node18&#45;&gt;Node5</title>
<g id="a_edge33_Node000018_Node000005"><a xlink:title=" ">
<path fill="none" stroke="#63b8ff" d="M1088.36,-161.19C1105.69,-153.94 1125.39,-143.57 1140,-129.75 1166.05,-105.1 1195.09,-81.82 1171,-55.25 1142.58,-23.91 846.46,-13.84 747.21,-11.33"/>
<polygon fill="#63b8ff" stroke="#63b8ff" points="1087.36,-157.83 1079.34,-164.75 1089.93,-164.34 1087.36,-157.83"/>
</a>
</g>
</g>
<!-- Node19&#45;&gt;Node5 -->
<g id="edge35_Node000019_Node000005" class="edge">
<title>Node19&#45;&gt;Node5</title>
<g id="a_edge35_Node000019_Node000005"><a xlink:title=" ">
<path fill="none" stroke="#63b8ff" d="M1238.44,-154.02C1233.82,-126.64 1221.35,-78.67 1189,-55.25 1153.3,-29.41 848.17,-15.66 747.25,-11.78"/>
<polygon fill="#63b8ff" stroke="#63b8ff" points="1234.96,-154.42 1239.87,-163.81 1241.89,-153.41 1234.96,-154.42"/>
</a>
</g>
</g>
</g>
</svg>
