<?xml version="1.0" encoding="UTF-8" standalone="no"?>
<!DOCTYPE svg PUBLIC "-//W3C//DTD SVG 1.1//EN"
 "http://www.w3.org/Graphics/SVG/1.1/DTD/svg11.dtd">
<!-- Generated by graphviz version 2.40.1 (20161225.0304)
 -->
<!-- Title: jngl/Vec2.hpp Pages: 1 -->
<svg width="683pt" height="252pt"
 viewBox="0.00 0.00 683.00 252.00" xmlns="http://www.w3.org/2000/svg" xmlns:xlink="http://www.w3.org/1999/xlink">
<g id="graph0" class="graph" transform="scale(1 1) rotate(0) translate(4 248)">
<title>jngl/Vec2.hpp</title>
<polygon fill="#ffffff" stroke="transparent" points="-4,4 -4,-248 679,-248 679,4 -4,4"/>
<!-- Node4 -->
<g id="node1" class="node">
<title>Node4</title>
<polygon fill="#bfbfbf" stroke="#000000" points="283,-224.5 283,-243.5 378,-243.5 378,-224.5 283,-224.5"/>
<text text-anchor="middle" x="330.5" y="-231.5" font-family="'Consolas',monospace" font-size="10.00" fill="#000000">jngl/Vec2.hpp</text>
</g>
<!-- Node5 -->
<g id="node2" class="node">
<title>Node5</title>
<g id="a_node2"><a xlink:href="input_8hpp.html" target="_top" xlink:title="jngl/input.hpp">
<polygon fill="#ffffff" stroke="#000000" points="109,-168.5 109,-187.5 210,-187.5 210,-168.5 109,-168.5"/>
<text text-anchor="middle" x="159.5" y="-175.5" font-family="'Consolas',monospace" font-size="10.00" fill="#000000">jngl/input.hpp</text>
</a>
</g>
</g>
<!-- Node4&#45;&gt;Node5 -->
<g id="edge1" class="edge">
<title>Node4&#45;&gt;Node5</title>
<path fill="none" stroke="#191970" d="M291.3852,-221.1905C260.0568,-210.9309 216.8129,-196.7691 188.5124,-187.5011"/>
<polygon fill="#191970" stroke="#191970" points="290.5114,-224.5872 301.1041,-224.3733 292.69,-217.9348 290.5114,-224.5872"/>
</g>
<!-- Node9 -->
<g id="node6" class="node">
<title>Node9</title>
<g id="a_node6"><a xlink:href="font_8hpp.html" target="_top" xlink:title="jngl/font.hpp">
<polygon fill="#ffffff" stroke="#000000" points="188,-112.5 188,-131.5 283,-131.5 283,-112.5 188,-112.5"/>
<text text-anchor="middle" x="235.5" y="-119.5" font-family="'Consolas',monospace" font-size="10.00" fill="#000000">jngl/font.hpp</text>
</a>
</g>
</g>
<!-- Node4&#45;&gt;Node9 -->
<g id="edge6" class="edge">
<title>Node4&#45;&gt;Node9</title>
<path fill="none" stroke="#191970" d="M315.6795,-216.5274C295.3575,-192.5688 259.5473,-150.3505 243.5791,-131.5249"/>
<polygon fill="#191970" stroke="#191970" points="313.2626,-219.0888 322.4004,-224.4509 318.6009,-214.5608 313.2626,-219.0888"/>
</g>
<!-- Node10 -->
<g id="node7" class="node">
<title>Node10</title>
<g id="a_node7"><a xlink:href="framebuffer_8hpp_source.html" target="_top" xlink:title="jngl/framebuffer.hpp">
<polygon fill="#ffffff" stroke="#000000" points="301,-112.5 301,-131.5 438,-131.5 438,-112.5 301,-112.5"/>
<text text-anchor="middle" x="369.5" y="-119.5" font-family="'Consolas',monospace" font-size="10.00" fill="#000000">jngl/framebuffer.hpp</text>
</a>
</g>
</g>
<!-- Node4&#45;&gt;Node10 -->
<g id="edge8" class="edge">
<title>Node4&#45;&gt;Node10</title>
<path fill="none" stroke="#191970" d="M316.9217,-215.81C308.5635,-202.2407 300.7961,-183.4584 308.5,-168 316.7828,-151.3801 334.2497,-139.1809 348.3784,-131.5378"/>
<polygon fill="#191970" stroke="#191970" points="314.1291,-217.929 322.6196,-224.2663 319.9342,-214.0174 314.1291,-217.929"/>
</g>
<!-- Node11 -->
<g id="node8" class="node">
<title>Node11</title>
<g id="a_node8"><a xlink:href="screen_8hpp.html" target="_top" xlink:title="jngl/screen.hpp">
<polygon fill="#ffffff" stroke="#000000" points="318,-168.5 318,-187.5 425,-187.5 425,-168.5 318,-168.5"/>
<text text-anchor="middle" x="371.5" y="-175.5" font-family="'Consolas',monospace" font-size="10.00" fill="#000000">jngl/screen.hpp</text>
</a>
</g>
</g>
<!-- Node4&#45;&gt;Node11 -->
<g id="edge10" class="edge">
<title>Node4&#45;&gt;Node11</title>
<path fill="none" stroke="#191970" d="M343.7364,-215.9209C350.6211,-206.5176 358.7609,-195.3997 364.4402,-187.6427"/>
<polygon fill="#191970" stroke="#191970" points="340.7251,-214.1093 337.6417,-224.2455 346.3731,-218.2445 340.7251,-214.1093"/>
</g>
<!-- Node12 -->
<g id="node9" class="node">
<title>Node12</title>
<g id="a_node9"><a xlink:href="shapes_8hpp.html" target="_top" xlink:title="jngl/shapes.hpp">
<polygon fill="#ffffff" stroke="#000000" points="443,-168.5 443,-187.5 550,-187.5 550,-168.5 443,-168.5"/>
<text text-anchor="middle" x="496.5" y="-175.5" font-family="'Consolas',monospace" font-size="10.00" fill="#000000">jngl/shapes.hpp</text>
</a>
</g>
</g>
<!-- Node4&#45;&gt;Node12 -->
<g id="edge12" class="edge">
<title>Node4&#45;&gt;Node12</title>
<path fill="none" stroke="#191970" d="M368.8667,-221.057C399.2466,-210.8084 440.9819,-196.729 468.336,-187.5011"/>
<polygon fill="#191970" stroke="#191970" points="367.393,-217.8603 359.0364,-224.3733 369.6306,-224.4931 367.393,-217.8603"/>
</g>
<!-- Node13 -->
<g id="node10" class="node">
<title>Node13</title>
<g id="a_node10"><a xlink:href="sprite_8hpp_source.html" target="_top" xlink:title="jngl/sprite.hpp">
<polygon fill="#ffffff" stroke="#000000" points="568,-168.5 568,-187.5 675,-187.5 675,-168.5 568,-168.5"/>
<text text-anchor="middle" x="621.5" y="-175.5" font-family="'Consolas',monospace" font-size="10.00" fill="#000000">jngl/sprite.hpp</text>
</a>
</g>
</g>
<!-- Node4&#45;&gt;Node13 -->
<g id="edge14" class="edge">
<title>Node4&#45;&gt;Node13</title>
<path fill="none" stroke="#191970" d="M388.2662,-222.8835C441.8998,-212.5622 520.9153,-197.3565 571.7976,-187.5647"/>
<polygon fill="#191970" stroke="#191970" points="387.3853,-219.4887 378.2269,-224.8154 388.7081,-226.3626 387.3853,-219.4887"/>
</g>
<!-- Node6 -->
<g id="node3" class="node">
<title>Node6</title>
<g id="a_node3"><a xlink:href="Controller_8hpp_source.html" target="_top" xlink:title="jngl/Controller.hpp">
<polygon fill="#ffffff" stroke="#000000" points="0,-112.5 0,-131.5 131,-131.5 131,-112.5 0,-112.5"/>
<text text-anchor="middle" x="65.5" y="-119.5" font-family="'Consolas',monospace" font-size="10.00" fill="#000000">jngl/Controller.hpp</text>
</a>
</g>
</g>
<!-- Node5&#45;&gt;Node6 -->
<g id="edge2" class="edge">
<title>Node5&#45;&gt;Node6</title>
<path fill="none" stroke="#191970" d="M134.3995,-163.0465C117.674,-153.0824 96.1832,-140.2794 81.6859,-131.6427"/>
<polygon fill="#191970" stroke="#191970" points="132.7441,-166.1343 143.1264,-168.2455 136.3268,-160.1206 132.7441,-166.1343"/>
</g>
<!-- Node7 -->
<g id="node4" class="node">
<title>Node7</title>
<g id="a_node4"><a xlink:href="all_8hpp.html" target="_top" xlink:title="Includes all JNGL headers. ">
<polygon fill="#ffffff" stroke="#000000" points="373,-56.5 373,-75.5 462,-75.5 462,-56.5 373,-56.5"/>
<text text-anchor="middle" x="417.5" y="-63.5" font-family="'Consolas',monospace" font-size="10.00" fill="#000000">jngl/all.hpp</text>
</a>
</g>
</g>
<!-- Node5&#45;&gt;Node7 -->
<g id="edge5" class="edge">
<title>Node5&#45;&gt;Node7</title>
<path fill="none" stroke="#191970" d="M159.9187,-158.1227C161.3339,-143.2955 165.7333,-123.6646 178.5,-112 206.3802,-86.5266 311.8487,-74.1994 372.9619,-69.0794"/>
<polygon fill="#191970" stroke="#191970" points="156.4126,-158.1277 159.329,-168.3132 163.4009,-158.5322 156.4126,-158.1277"/>
</g>
<!-- Node6&#45;&gt;Node7 -->
<g id="edge3" class="edge">
<title>Node6&#45;&gt;Node7</title>
<path fill="none" stroke="#191970" d="M135.7646,-110.8215C206.4274,-99.5797 313.2237,-82.5894 372.9806,-73.0826"/>
<polygon fill="#191970" stroke="#191970" points="134.9369,-107.4091 125.611,-112.4369 136.0367,-114.3222 134.9369,-107.4091"/>
</g>
<!-- Node8 -->
<g id="node5" class="node">
<title>Node8</title>
<g id="a_node5"><a xlink:href="jngl_8hpp_source.html" target="_top" xlink:title="jngl.hpp">
<polygon fill="#ffffff" stroke="#000000" points="385,-.5 385,-19.5 450,-19.5 450,-.5 385,-.5"/>
<text text-anchor="middle" x="417.5" y="-7.5" font-family="'Consolas',monospace" font-size="10.00" fill="#000000">jngl.hpp</text>
</a>
</g>
</g>
<!-- Node7&#45;&gt;Node8 -->
<g id="edge4" class="edge">
<title>Node7&#45;&gt;Node8</title>
<path fill="none" stroke="#191970" d="M417.5,-46.1575C417.5,-37.155 417.5,-26.9199 417.5,-19.6427"/>
<polygon fill="#191970" stroke="#191970" points="414.0001,-46.2455 417.5,-56.2455 421.0001,-46.2456 414.0001,-46.2455"/>
</g>
<!-- Node9&#45;&gt;Node7 -->
<g id="edge7" class="edge">
<title>Node9&#45;&gt;Node7</title>
<path fill="none" stroke="#191970" d="M276.6986,-109.3235C310.0758,-99.0536 356.3699,-84.8093 386.6214,-75.5011"/>
<polygon fill="#191970" stroke="#191970" points="275.3154,-106.0871 266.7869,-112.3733 277.374,-112.7776 275.3154,-106.0871"/>
</g>
<!-- Node10&#45;&gt;Node7 -->
<g id="edge9" class="edge">
<title>Node10&#45;&gt;Node7</title>
<path fill="none" stroke="#191970" d="M384.4997,-104.5004C392.6622,-94.9775 402.4489,-83.5596 409.2349,-75.6427"/>
<polygon fill="#191970" stroke="#191970" points="381.7115,-102.3752 377.861,-112.2455 387.0263,-106.9307 381.7115,-102.3752"/>
</g>
<!-- Node11&#45;&gt;Node7 -->
<g id="edge11" class="edge">
<title>Node11&#45;&gt;Node7</title>
<path fill="none" stroke="#191970" d="M409.5271,-164.1435C423.7585,-156.8855 438.4211,-146.4324 446.5,-132 457.2594,-112.779 439.5176,-88.7915 427.3782,-75.6765"/>
<polygon fill="#191970" stroke="#191970" points="407.8814,-161.0494 400.3108,-168.4613 410.8511,-167.3882 407.8814,-161.0494"/>
</g>
<!-- Node12&#45;&gt;Node7 -->
<g id="edge13" class="edge">
<title>Node12&#45;&gt;Node7</title>
<path fill="none" stroke="#191970" d="M488.4205,-158.7137C482.2703,-145.0659 473.0778,-126.6595 462.5,-112 452.5635,-98.2292 438.5623,-84.5944 428.8263,-75.7889"/>
<polygon fill="#191970" stroke="#191970" points="485.2994,-160.3129 492.5031,-168.0819 491.7165,-157.5163 485.2994,-160.3129"/>
</g>
<!-- Node13&#45;&gt;Node7 -->
<g id="edge15" class="edge">
<title>Node13&#45;&gt;Node7</title>
<path fill="none" stroke="#191970" d="M595.2185,-163.5709C552.8634,-140.3171 470.6423,-95.1761 434.8489,-75.5249"/>
<polygon fill="#191970" stroke="#191970" points="593.6569,-166.7063 604.1071,-168.4509 597.0257,-160.5703 593.6569,-166.7063"/>
</g>
<!-- Node14 -->
<g id="node11" class="node">
<title>Node14</title>
<g id="a_node11"><a xlink:href="Video_8hpp_source.html" target="_top" xlink:title="jngl/Video.hpp">
<polygon fill="#ffffff" stroke="#000000" points="571,-112.5 571,-131.5 672,-131.5 672,-112.5 571,-112.5"/>
<text text-anchor="middle" x="621.5" y="-119.5" font-family="'Consolas',monospace" font-size="10.00" fill="#000000">jngl/Video.hpp</text>
</a>
</g>
</g>
<!-- Node13&#45;&gt;Node14 -->
<g id="edge16" class="edge">
<title>Node13&#45;&gt;Node14</title>
<path fill="none" stroke="#191970" d="M621.5,-158.1575C621.5,-149.155 621.5,-138.9199 621.5,-131.6427"/>
<polygon fill="#191970" stroke="#191970" points="618.0001,-158.2455 621.5,-168.2455 625.0001,-158.2456 618.0001,-158.2455"/>
</g>
<!-- Node14&#45;&gt;Node7 -->
<g id="edge17" class="edge">
<title>Node14&#45;&gt;Node7</title>
<path fill="none" stroke="#191970" d="M576.7653,-109.7199C539.2545,-99.4228 486.4579,-84.9296 452.1112,-75.5011"/>
<polygon fill="#191970" stroke="#191970" points="575.8613,-113.1012 586.4311,-112.3733 577.7144,-106.3509 575.8613,-113.1012"/>
</g>
</g>
</svg>
