<?xml version="1.0" encoding="UTF-8" standalone="no"?>
<!DOCTYPE svg PUBLIC "-//W3C//DTD SVG 1.1//EN"
 "http://www.w3.org/Graphics/SVG/1.1/DTD/svg11.dtd">
<!-- Generated by graphviz version 2.40.1 (0)
 -->
<!-- Title: jngl/Vec2.hpp Pages: 1 -->
<svg width="219pt" height="86pt"
 viewBox="0.00 0.00 218.64 86.00" xmlns="http://www.w3.org/2000/svg" xmlns:xlink="http://www.w3.org/1999/xlink">
<g id="graph0" class="graph" transform="scale(1 1) rotate(0) translate(4 82)">
<title>jngl/Vec2.hpp</title>
<polygon fill="#ffffff" stroke="transparent" points="-4,4 -4,-82 214.637,-82 214.637,4 -4,4"/>
<!-- Node0 -->
<g id="node1" class="node">
<title>Node0</title>
<polygon fill="#bfbfbf" stroke="#000000" points="69.562,-57.5 69.562,-77.5 142.496,-77.5 142.496,-57.5 69.562,-57.5"/>
<text text-anchor="middle" x="106.029" y="-64.5" font-family="Lato" font-size="10.00" fill="#000000">jngl/Vec2.hpp</text>
</g>
<!-- Node1 -->
<g id="node2" class="node">
<title>Node1</title>
<g id="a_node2"><a xlink:href="dll_8hpp_source.html" target="_top" xlink:title="dll.hpp">
<polygon fill="#ffffff" stroke="#000000" points="0,-.5 0,-20.5 44.058,-20.5 44.058,-.5 0,-.5"/>
<text text-anchor="middle" x="22.029" y="-7.5" font-family="Lato" font-size="10.00" fill="#000000">dll.hpp</text>
</a>
</g>
</g>
<!-- Node0&#45;&gt;Node1 -->
<g id="edge1" class="edge">
<title>Node0&#45;&gt;Node1</title>
<path fill="none" stroke="#191970" d="M91.0115,-57.3095C78.3498,-48.7177 60.0143,-36.2758 45.429,-26.3786"/>
<polygon fill="#191970" stroke="#191970" points="47.1565,-23.3211 36.9165,-20.6022 43.226,-29.1135 47.1565,-23.3211"/>
</g>
<!-- Node2 -->
<g id="node3" class="node">
<title>Node2</title>
<polygon fill="#ffffff" stroke="#bfbfbf" points="62.3375,-.5 62.3375,-20.5 149.7205,-20.5 149.7205,-.5 62.3375,-.5"/>
<text text-anchor="middle" x="106.029" y="-7.5" font-family="Lato" font-size="10.00" fill="#000000">boost/version.hpp</text>
</g>
<!-- Node0&#45;&gt;Node2 -->
<g id="edge2" class="edge">
<title>Node0&#45;&gt;Node2</title>
<path fill="none" stroke="#191970" d="M106.029,-57.3095C106.029,-49.9335 106.029,-39.72 106.029,-30.715"/>
<polygon fill="#191970" stroke="#191970" points="109.5291,-30.6022 106.029,-20.6022 102.5291,-30.6023 109.5291,-30.6022"/>
</g>
<!-- Node3 -->
<g id="node4" class="node">
<title>Node3</title>
<polygon fill="#ffffff" stroke="#bfbfbf" points="167.421,-.5 167.421,-20.5 210.637,-20.5 210.637,-.5 167.421,-.5"/>
<text text-anchor="middle" x="189.029" y="-7.5" font-family="Lato" font-size="10.00" fill="#000000">iosfwd</text>
</g>
<!-- Node0&#45;&gt;Node3 -->
<g id="edge3" class="edge">
<title>Node0&#45;&gt;Node3</title>
<path fill="none" stroke="#191970" d="M120.8677,-57.3095C133.3787,-48.7177 151.4959,-36.2758 165.9075,-26.3786"/>
<polygon fill="#191970" stroke="#191970" points="168.0568,-29.1485 174.3187,-20.6022 164.094,-23.3782 168.0568,-29.1485"/>
</g>
</g>
</svg>
