<?xml version="1.0" encoding="UTF-8" standalone="no"?>
<!DOCTYPE svg PUBLIC "-//W3C//DTD SVG 1.1//EN"
 "http://www.w3.org/Graphics/SVG/1.1/DTD/svg11.dtd">
<!-- Generated by graphviz version 9.0.0 (20230911.1827)
 -->
<!-- Title: jngl/Vec2.hpp Pages: 1 -->
<svg width="1226pt" height="248pt"
 viewBox="0.00 0.00 1226.00 248.25" xmlns="http://www.w3.org/2000/svg" xmlns:xlink="http://www.w3.org/1999/xlink">
<g id="graph0" class="graph" transform="scale(1 1) rotate(0) translate(4 244.25)">
<title>jngl/Vec2.hpp</title>
<!-- Node1 -->
<g id="Node000001" class="node">
<title>Node1</title>
<g id="a_Node000001"><a xlink:title="Contains jngl::Vec2 class.">
<polygon fill="#999999" stroke="#666666" points="753,-240.25 659,-240.25 659,-221 753,-221 753,-240.25"/>
<text text-anchor="middle" x="706" y="-226.75" font-family="ui-monospace,monospace" font-size="10.00">jngl/Vec2.hpp</text>
</a>
</g>
</g>
<!-- Node2 -->
<g id="Node000002" class="node">
<title>Node2</title>
<g id="a_Node000002"><a xlink:href="AppParameters_8hpp.html" target="_top" xlink:title="Contains jngl::AppParameters struct.">
<polygon fill="white" stroke="#666666" points="190,-185 42,-185 42,-165.75 190,-165.75 190,-185"/>
<text text-anchor="middle" x="116" y="-171.5" font-family="ui-monospace,monospace" font-size="10.00">jngl/AppParameters.hpp</text>
</a>
</g>
</g>
<!-- Node1&#45;&gt;Node2 -->
<g id="edge1_Node000001_Node000002" class="edge">
<title>Node1&#45;&gt;Node2</title>
<g id="a_edge1_Node000001_Node000002"><a xlink:title=" ">
<path fill="none" stroke="#63b8ff" d="M647.4,-224.34C539.37,-214.59 309.02,-193.8 190.24,-183.08"/>
<polygon fill="#63b8ff" stroke="#63b8ff" points="646.93,-227.81 657.21,-225.22 647.56,-220.84 646.93,-227.81"/>
</a>
</g>
</g>
<!-- Node4 -->
<g id="Node000004" class="node">
<title>Node4</title>
<g id="a_Node000004"><a xlink:href="Drawable_8hpp.html" target="_top" xlink:title="Contains jngl::Drawable class.">
<polygon fill="white" stroke="#666666" points="553,-185 435,-185 435,-165.75 553,-165.75 553,-185"/>
<text text-anchor="middle" x="494" y="-171.5" font-family="ui-monospace,monospace" font-size="10.00">jngl/Drawable.hpp</text>
</a>
</g>
</g>
<!-- Node1&#45;&gt;Node4 -->
<g id="edge3_Node000001_Node000004" class="edge">
<title>Node1&#45;&gt;Node4</title>
<g id="a_edge3_Node000001_Node000004"><a xlink:title=" ">
<path fill="none" stroke="#63b8ff" d="M659.01,-217.82C620.12,-208.05 565.68,-194.38 530.14,-185.45"/>
<polygon fill="#63b8ff" stroke="#63b8ff" points="658.02,-221.18 668.57,-220.22 659.72,-214.39 658.02,-221.18"/>
</a>
</g>
</g>
<!-- Node8 -->
<g id="Node000008" class="node">
<title>Node8</title>
<g id="a_Node000008"><a xlink:href="sprite_8hpp.html" target="_top" xlink:title="Contains jngl::Sprite class and related functions.">
<polygon fill="white" stroke="#666666" points="628,-129.75 522,-129.75 522,-110.5 628,-110.5 628,-129.75"/>
<text text-anchor="middle" x="575" y="-116.25" font-family="ui-monospace,monospace" font-size="10.00">jngl/sprite.hpp</text>
</a>
</g>
</g>
<!-- Node1&#45;&gt;Node8 -->
<g id="edge33_Node000001_Node000008" class="edge">
<title>Node1&#45;&gt;Node8</title>
<g id="a_edge33_Node000001_Node000008"><a xlink:title=" ">
<path fill="none" stroke="#63b8ff" d="M684.87,-213.87C673.76,-205.47 660,-194.85 648,-185 624.83,-165.98 598.59,-142.53 584.75,-130"/>
<polygon fill="#63b8ff" stroke="#63b8ff" points="682.52,-216.49 692.62,-219.7 686.73,-210.89 682.52,-216.49"/>
</a>
</g>
</g>
<!-- Node10 -->
<g id="Node000010" class="node">
<title>Node10</title>
<g id="a_Node000010"><a xlink:href="FrameBuffer_8hpp.html" target="_top" xlink:title="Contains jngl::FrameBuffer class.">
<polygon fill="white" stroke="#666666" points="641,-74.5 511,-74.5 511,-55.25 641,-55.25 641,-74.5"/>
<text text-anchor="middle" x="576" y="-61" font-family="ui-monospace,monospace" font-size="10.00">jngl/FrameBuffer.hpp</text>
</a>
</g>
</g>
<!-- Node1&#45;&gt;Node10 -->
<g id="edge14_Node000001_Node000010" class="edge">
<title>Node1&#45;&gt;Node10</title>
<g id="a_edge14_Node000001_Node000010"><a xlink:title=" ">
<path fill="none" stroke="#63b8ff" d="M697.93,-210.47C686.78,-185.54 664.86,-141.5 637,-110.5 623.84,-95.86 605.16,-83.06 591.95,-74.96"/>
<polygon fill="#63b8ff" stroke="#63b8ff" points="694.59,-211.59 701.79,-219.36 701.02,-208.8 694.59,-211.59"/>
</a>
</g>
</g>
<!-- Node11 -->
<g id="Node000011" class="node">
<title>Node11</title>
<g id="a_Node000011"><a xlink:href="Rect_8hpp.html" target="_top" xlink:title="Contains jngl::Rect class.">
<polygon fill="white" stroke="#666666" points="753,-74.5 659,-74.5 659,-55.25 753,-55.25 753,-74.5"/>
<text text-anchor="middle" x="706" y="-61" font-family="ui-monospace,monospace" font-size="10.00">jngl/Rect.hpp</text>
</a>
</g>
</g>
<!-- Node1&#45;&gt;Node11 -->
<g id="edge16_Node000001_Node000011" class="edge">
<title>Node1&#45;&gt;Node11</title>
<g id="a_edge16_Node000001_Node000011"><a xlink:title=" ">
<path fill="none" stroke="#63b8ff" d="M706,-209.47C706,-173.61 706,-100.1 706,-74.72"/>
<polygon fill="#63b8ff" stroke="#63b8ff" points="702.5,-209.31 706,-219.31 709.5,-209.31 702.5,-209.31"/>
</a>
</g>
</g>
<!-- Node12 -->
<g id="Node000012" class="node">
<title>Node12</title>
<g id="a_Node000012"><a xlink:href="Widget_8hpp.html" target="_top" xlink:title="Contains jngl::Container class.">
<polygon fill="white" stroke="#666666" points="218,-129.75 112,-129.75 112,-110.5 218,-110.5 218,-129.75"/>
<text text-anchor="middle" x="165" y="-116.25" font-family="ui-monospace,monospace" font-size="10.00">jngl/Widget.hpp</text>
</a>
</g>
</g>
<!-- Node1&#45;&gt;Node12 -->
<g id="edge18_Node000001_Node000012" class="edge">
<title>Node1&#45;&gt;Node12</title>
<g id="a_edge18_Node000001_Node000012"><a xlink:title=" ">
<path fill="none" stroke="#63b8ff" d="M647.45,-221.72C590.62,-213.71 502.07,-200.34 426,-185 343.46,-168.35 247.56,-143.43 198.18,-130.17"/>
<polygon fill="#63b8ff" stroke="#63b8ff" points="646.84,-225.17 657.22,-223.09 647.81,-218.24 646.84,-225.17"/>
</a>
</g>
</g>
<!-- Node13 -->
<g id="Node000013" class="node">
<title>Node13</title>
<g id="a_Node000013"><a xlink:href="effects_8hpp.html" target="_top" xlink:title="Effects that can be applied to jngl::Widget.">
<polygon fill="white" stroke="#666666" points="877,-74.5 771,-74.5 771,-55.25 877,-55.25 877,-74.5"/>
<text text-anchor="middle" x="824" y="-61" font-family="ui-monospace,monospace" font-size="10.00">jngl/effects.hpp</text>
</a>
</g>
</g>
<!-- Node1&#45;&gt;Node13 -->
<g id="edge21_Node000001_Node000013" class="edge">
<title>Node1&#45;&gt;Node13</title>
<g id="a_edge21_Node000001_Node000013"><a xlink:title=" ">
<path fill="none" stroke="#63b8ff" d="M718.86,-211.77C744.03,-176.86 798.94,-100.66 817.62,-74.72"/>
<polygon fill="#63b8ff" stroke="#63b8ff" points="716.24,-209.43 713.23,-219.59 721.91,-213.53 716.24,-209.43"/>
</a>
</g>
</g>
<!-- Node14 -->
<g id="Node000014" class="node">
<title>Node14</title>
<g id="a_Node000014"><a xlink:href="font_8hpp.html" target="_top" xlink:title="Contains jngl::Font class and related functions.">
<polygon fill="white" stroke="#666666" points="878,-185 784,-185 784,-165.75 878,-165.75 878,-185"/>
<text text-anchor="middle" x="831" y="-171.5" font-family="ui-monospace,monospace" font-size="10.00">jngl/font.hpp</text>
</a>
</g>
</g>
<!-- Node1&#45;&gt;Node14 -->
<g id="edge23_Node000001_Node000014" class="edge">
<title>Node1&#45;&gt;Node14</title>
<g id="a_edge23_Node000001_Node000014"><a xlink:title=" ">
<path fill="none" stroke="#63b8ff" d="M737.63,-216.15C760.18,-206.54 789.9,-193.88 809.69,-185.45"/>
<polygon fill="#63b8ff" stroke="#63b8ff" points="736.43,-212.86 728.6,-220 739.17,-219.3 736.43,-212.86"/>
</a>
</g>
</g>
<!-- Node15 -->
<g id="Node000015" class="node">
<title>Node15</title>
<g id="a_Node000015"><a xlink:href="input_8hpp.html" target="_top" xlink:title="Input related functions.">
<polygon fill="white" stroke="#666666" points="1033,-129.75 933,-129.75 933,-110.5 1033,-110.5 1033,-129.75"/>
<text text-anchor="middle" x="983" y="-116.25" font-family="ui-monospace,monospace" font-size="10.00">jngl/input.hpp</text>
</a>
</g>
</g>
<!-- Node1&#45;&gt;Node15 -->
<g id="edge25_Node000001_Node000015" class="edge">
<title>Node1&#45;&gt;Node15</title>
<g id="a_edge25_Node000001_Node000015"><a xlink:title=" ">
<path fill="none" stroke="#63b8ff" d="M764.1,-220.59C800.45,-213.66 847.67,-202.3 887,-185 920.53,-170.25 955.18,-143.95 972.21,-130.15"/>
<polygon fill="#63b8ff" stroke="#63b8ff" points="763.88,-217.07 754.68,-222.32 765.15,-223.95 763.88,-217.07"/>
</a>
</g>
</g>
<!-- Node17 -->
<g id="Node000017" class="node">
<title>Node17</title>
<g id="a_Node000017"><a xlink:href="screen_8hpp.html" target="_top" xlink:title=" ">
<polygon fill="white" stroke="#666666" points="1091,-185 985,-185 985,-165.75 1091,-165.75 1091,-185"/>
<text text-anchor="middle" x="1038" y="-171.5" font-family="ui-monospace,monospace" font-size="10.00">jngl/screen.hpp</text>
</a>
</g>
</g>
<!-- Node1&#45;&gt;Node17 -->
<g id="edge29_Node000001_Node000017" class="edge">
<title>Node1&#45;&gt;Node17</title>
<g id="a_edge29_Node000001_Node000017"><a xlink:title=" ">
<path fill="none" stroke="#63b8ff" d="M764.41,-220.26C826.66,-210.27 924.38,-194.6 984.63,-184.94"/>
<polygon fill="#63b8ff" stroke="#63b8ff" points="764.03,-216.77 754.71,-221.81 765.14,-223.68 764.03,-216.77"/>
</a>
</g>
</g>
<!-- Node18 -->
<g id="Node000018" class="node">
<title>Node18</title>
<g id="a_Node000018"><a xlink:href="shapes_8hpp.html" target="_top" xlink:title="Functions for drawing shapes.">
<polygon fill="white" stroke="#666666" points="1218,-185 1112,-185 1112,-165.75 1218,-165.75 1218,-185"/>
<text text-anchor="middle" x="1165" y="-171.5" font-family="ui-monospace,monospace" font-size="10.00">jngl/shapes.hpp</text>
</a>
</g>
</g>
<!-- Node1&#45;&gt;Node18 -->
<g id="edge31_Node000001_Node000018" class="edge">
<title>Node1&#45;&gt;Node18</title>
<g id="a_edge31_Node000001_Node000018"><a xlink:title=" ">
<path fill="none" stroke="#63b8ff" d="M764.7,-223.33C841.72,-214.99 981.07,-199.62 1100,-185 1103.84,-184.53 1107.81,-184.03 1111.8,-183.52"/>
<polygon fill="#63b8ff" stroke="#63b8ff" points="764.41,-219.84 754.85,-224.4 765.16,-226.8 764.41,-219.84"/>
</a>
</g>
</g>
<!-- Node3 -->
<g id="Node000003" class="node">
<title>Node3</title>
<g id="a_Node000003"><a xlink:href="init_8hpp.html" target="_top" xlink:title="Include this file only once, as it defines the main function.">
<polygon fill="white" stroke="#666666" points="94,-129.75 0,-129.75 0,-110.5 94,-110.5 94,-129.75"/>
<text text-anchor="middle" x="47" y="-116.25" font-family="ui-monospace,monospace" font-size="10.00">jngl/init.hpp</text>
</a>
</g>
</g>
<!-- Node2&#45;&gt;Node3 -->
<g id="edge2_Node000002_Node000003" class="edge">
<title>Node2&#45;&gt;Node3</title>
<g id="a_edge2_Node000002_Node000003"><a xlink:title=" ">
<path fill="none" stroke="#63b8ff" d="M95.35,-158.44C83.3,-149.14 68.55,-137.76 58.53,-130.02"/>
<polygon fill="#63b8ff" stroke="#63b8ff" points="93.04,-161.08 103.1,-164.42 97.32,-155.54 93.04,-161.08"/>
</a>
</g>
</g>
<!-- Node5 -->
<g id="Node000005" class="node">
<title>Node5</title>
<g id="a_Node000005"><a xlink:href="jngl_8hpp.html" target="_top" xlink:title="Includes all JNGL headers except for init.hpp.">
<polygon fill="white" stroke="#666666" points="673,-19.25 609,-19.25 609,0 673,0 673,-19.25"/>
<text text-anchor="middle" x="641" y="-5.75" font-family="ui-monospace,monospace" font-size="10.00">jngl.hpp</text>
</a>
</g>
</g>
<!-- Node4&#45;&gt;Node5 -->
<g id="edge4_Node000004_Node000005" class="edge">
<title>Node4&#45;&gt;Node5</title>
<g id="a_edge4_Node000004_Node000005"><a xlink:title=" ">
<path fill="none" stroke="#63b8ff" d="M487.21,-154.63C479.76,-129.02 471.48,-84.21 493,-55.25 519.49,-19.6 573.58,-11.39 608.52,-10.05"/>
<polygon fill="#63b8ff" stroke="#63b8ff" points="483.84,-155.59 490.21,-164.06 490.51,-153.47 483.84,-155.59"/>
</a>
</g>
</g>
<!-- Node6 -->
<g id="Node000006" class="node">
<title>Node6</title>
<g id="a_Node000006"><a xlink:href="TextLine_8hpp.html" target="_top" xlink:title="Contains jngl::TextLine class.">
<polygon fill="white" stroke="#666666" points="466,-129.75 348,-129.75 348,-110.5 466,-110.5 466,-129.75"/>
<text text-anchor="middle" x="407" y="-116.25" font-family="ui-monospace,monospace" font-size="10.00">jngl/TextLine.hpp</text>
</a>
</g>
</g>
<!-- Node4&#45;&gt;Node6 -->
<g id="edge5_Node000004_Node000006" class="edge">
<title>Node4&#45;&gt;Node6</title>
<g id="a_edge5_Node000004_Node000006"><a xlink:title=" ">
<path fill="none" stroke="#63b8ff" d="M469.82,-159.57C454.42,-150.15 434.98,-138.25 421.83,-130.2"/>
<polygon fill="#63b8ff" stroke="#63b8ff" points="467.59,-162.32 477.95,-164.55 471.25,-156.35 467.59,-162.32"/>
</a>
</g>
</g>
<!-- Node4&#45;&gt;Node8 -->
<g id="edge9_Node000004_Node000008" class="edge">
<title>Node4&#45;&gt;Node8</title>
<g id="a_edge9_Node000004_Node000008"><a xlink:title=" ">
<path fill="none" stroke="#63b8ff" d="M517.34,-159.03C531.54,-149.7 549.19,-138.1 561.19,-130.2"/>
<polygon fill="#63b8ff" stroke="#63b8ff" points="515.44,-156.09 509.01,-164.51 519.28,-161.94 515.44,-156.09"/>
</a>
</g>
</g>
<!-- Node9 -->
<g id="Node000009" class="node">
<title>Node9</title>
<g id="a_Node000009"><a xlink:href="text_8hpp.html" target="_top" xlink:title=" ">
<polygon fill="white" stroke="#666666" points="330,-129.75 236,-129.75 236,-110.5 330,-110.5 330,-129.75"/>
<text text-anchor="middle" x="283" y="-116.25" font-family="ui-monospace,monospace" font-size="10.00">jngl/text.hpp</text>
</a>
</g>
</g>
<!-- Node4&#45;&gt;Node9 -->
<g id="edge11_Node000004_Node000009" class="edge">
<title>Node4&#45;&gt;Node9</title>
<g id="a_edge11_Node000004_Node000009"><a xlink:title=" ">
<path fill="none" stroke="#63b8ff" d="M447.23,-162.57C408.53,-152.8 354.35,-139.13 318.97,-130.2"/>
<polygon fill="#63b8ff" stroke="#63b8ff" points="446.19,-165.92 456.74,-164.97 447.9,-159.13 446.19,-165.92"/>
</a>
</g>
</g>
<!-- Node6&#45;&gt;Node5 -->
<g id="edge6_Node000006_Node000005" class="edge">
<title>Node6&#45;&gt;Node5</title>
<g id="a_edge6_Node000006_Node000005"><a xlink:title=" ">
<path fill="none" stroke="#63b8ff" d="M409.43,-99.03C412.23,-84.75 418.22,-66.24 431,-55.25 457.35,-32.58 556.76,-19.26 608.8,-13.69"/>
<polygon fill="#63b8ff" stroke="#63b8ff" points="406.01,-98.27 407.94,-108.69 412.93,-99.34 406.01,-98.27"/>
</a>
</g>
</g>
<!-- Node7 -->
<g id="Node000007" class="node">
<title>Node7</title>
<g id="a_Node000007"><a xlink:href="Label_8hpp.html" target="_top" xlink:title="Contains jngl::Label class.">
<polygon fill="white" stroke="#666666" points="379,-74.5 279,-74.5 279,-55.25 379,-55.25 379,-74.5"/>
<text text-anchor="middle" x="329" y="-61" font-family="ui-monospace,monospace" font-size="10.00">jngl/Label.hpp</text>
</a>
</g>
</g>
<!-- Node6&#45;&gt;Node7 -->
<g id="edge7_Node000006_Node000007" class="edge">
<title>Node6&#45;&gt;Node7</title>
<g id="a_edge7_Node000006_Node000007"><a xlink:title=" ">
<path fill="none" stroke="#63b8ff" d="M384.53,-103.78C370.85,-94.45 353.86,-82.85 342.3,-74.95"/>
<polygon fill="#63b8ff" stroke="#63b8ff" points="382.29,-106.49 392.52,-109.24 386.23,-100.71 382.29,-106.49"/>
</a>
</g>
</g>
<!-- Node7&#45;&gt;Node5 -->
<g id="edge8_Node000007_Node000005" class="edge">
<title>Node7&#45;&gt;Node5</title>
<g id="a_edge8_Node000007_Node000005"><a xlink:title=" ">
<path fill="none" stroke="#63b8ff" d="M390.48,-53.38C456.04,-42.19 557.35,-24.9 608.74,-16.13"/>
<polygon fill="#63b8ff" stroke="#63b8ff" points="390.24,-49.87 380.97,-55.01 391.41,-56.77 390.24,-49.87"/>
</a>
</g>
</g>
<!-- Node8&#45;&gt;Node5 -->
<g id="edge10_Node000008_Node000005" class="edge">
<title>Node8&#45;&gt;Node5</title>
<g id="a_edge10_Node000008_Node000005"><a xlink:title=" ">
<path fill="none" stroke="#63b8ff" d="M539.86,-105.7C514.52,-93.94 487.17,-75.58 502,-55.25 526.27,-21.97 575.73,-12.96 608.63,-10.82"/>
<polygon fill="#63b8ff" stroke="#63b8ff" points="538.16,-108.77 548.72,-109.57 540.96,-102.36 538.16,-108.77"/>
</a>
</g>
</g>
<!-- Node9&#45;&gt;Node5 -->
<g id="edge12_Node000009_Node000005" class="edge">
<title>Node9&#45;&gt;Node5</title>
<g id="a_edge12_Node000009_Node000005"><a xlink:title=" ">
<path fill="none" stroke="#63b8ff" d="M271.45,-100.03C264.62,-86.03 259.22,-67.41 270,-55.25 292.33,-30.07 522.2,-16.39 608.5,-12.11"/>
<polygon fill="#63b8ff" stroke="#63b8ff" points="268.34,-101.65 276.22,-108.73 274.48,-98.28 268.34,-101.65"/>
</a>
</g>
</g>
<!-- Node9&#45;&gt;Node7 -->
<g id="edge13_Node000009_Node000007" class="edge">
<title>Node9&#45;&gt;Node7</title>
<g id="a_edge13_Node000009_Node000007"><a xlink:title=" ">
<path fill="none" stroke="#63b8ff" d="M298,-101.76C305.76,-92.78 314.9,-82.2 321.24,-74.86"/>
<polygon fill="#63b8ff" stroke="#63b8ff" points="295.47,-99.33 291.59,-109.19 300.77,-103.91 295.47,-99.33"/>
</a>
</g>
</g>
<!-- Node10&#45;&gt;Node5 -->
<g id="edge15_Node000010_Node000005" class="edge">
<title>Node10&#45;&gt;Node5</title>
<g id="a_edge15_Node000010_Node000005"><a xlink:title=" ">
<path fill="none" stroke="#63b8ff" d="M595.79,-47.66C607.08,-38.42 620.79,-27.18 630.14,-19.52"/>
<polygon fill="#63b8ff" stroke="#63b8ff" points="593.71,-44.84 588.2,-53.88 598.15,-50.25 593.71,-44.84"/>
</a>
</g>
</g>
<!-- Node11&#45;&gt;Node5 -->
<g id="edge17_Node000011_Node000005" class="edge">
<title>Node11&#45;&gt;Node5</title>
<g id="a_edge17_Node000011_Node000005"><a xlink:title=" ">
<path fill="none" stroke="#63b8ff" d="M686.21,-47.66C674.92,-38.42 661.21,-27.18 651.86,-19.52"/>
<polygon fill="#63b8ff" stroke="#63b8ff" points="683.85,-50.25 693.8,-53.88 688.29,-44.84 683.85,-50.25"/>
</a>
</g>
</g>
<!-- Node12&#45;&gt;Node5 -->
<g id="edge19_Node000012_Node000005" class="edge">
<title>Node12&#45;&gt;Node5</title>
<g id="a_edge19_Node000012_Node000005"><a xlink:title=" ">
<path fill="none" stroke="#63b8ff" d="M183.32,-102.87C201.43,-87.79 230.63,-66.11 260,-55.25 323.87,-31.63 528.82,-17.27 608.7,-12.45"/>
<polygon fill="#63b8ff" stroke="#63b8ff" points="181.39,-99.91 176.06,-109.07 185.94,-105.23 181.39,-99.91"/>
</a>
</g>
</g>
<!-- Node12&#45;&gt;Node7 -->
<g id="edge20_Node000012_Node000007" class="edge">
<title>Node12&#45;&gt;Node7</title>
<g id="a_edge20_Node000012_Node000007"><a xlink:title=" ">
<path fill="none" stroke="#63b8ff" d="M203.7,-106.56C233.59,-96.85 274.25,-83.65 301.04,-74.95"/>
<polygon fill="#63b8ff" stroke="#63b8ff" points="202.69,-103.21 194.26,-109.62 204.85,-109.87 202.69,-103.21"/>
</a>
</g>
</g>
<!-- Node13&#45;&gt;Node5 -->
<g id="edge22_Node000013_Node000005" class="edge">
<title>Node13&#45;&gt;Node5</title>
<g id="a_edge22_Node000013_Node000005"><a xlink:title=" ">
<path fill="none" stroke="#63b8ff" d="M782.13,-51.69C748.66,-41.95 702.48,-28.52 672.2,-19.7"/>
<polygon fill="#63b8ff" stroke="#63b8ff" points="780.92,-54.99 791.5,-54.42 782.88,-48.26 780.92,-54.99"/>
</a>
</g>
</g>
<!-- Node14&#45;&gt;Node5 -->
<g id="edge24_Node000014_Node000005" class="edge">
<title>Node14&#45;&gt;Node5</title>
<g id="a_edge24_Node000014_Node000005"><a xlink:title=" ">
<path fill="none" stroke="#63b8ff" d="M849.32,-157.72C874.11,-133.19 912.37,-86.86 886,-55.25 859.27,-23.21 733.59,-14.12 673.35,-11.58"/>
<polygon fill="#63b8ff" stroke="#63b8ff" points="847.16,-154.95 842.34,-164.38 851.99,-160.01 847.16,-154.95"/>
</a>
</g>
</g>
<!-- Node15&#45;&gt;Node5 -->
<g id="edge26_Node000015_Node000005" class="edge">
<title>Node15&#45;&gt;Node5</title>
<g id="a_edge26_Node000015_Node000005"><a xlink:title=" ">
<path fill="none" stroke="#63b8ff" d="M970.22,-101.18C958.62,-86.34 940.13,-66.03 919,-55.25 876.44,-33.53 736.75,-18.96 673.11,-13.29"/>
<polygon fill="#63b8ff" stroke="#63b8ff" points="967.4,-103.26 976.19,-109.17 973.01,-99.07 967.4,-103.26"/>
</a>
</g>
</g>
<!-- Node16 -->
<g id="Node000016" class="node">
<title>Node16</title>
<g id="a_Node000016"><a xlink:href="Controller_8hpp.html" target="_top" xlink:title="Contains jngl::Controller class.">
<polygon fill="white" stroke="#666666" points="1101,-74.5 971,-74.5 971,-55.25 1101,-55.25 1101,-74.5"/>
<text text-anchor="middle" x="1036" y="-61" font-family="ui-monospace,monospace" font-size="10.00">jngl/Controller.hpp</text>
</a>
</g>
</g>
<!-- Node15&#45;&gt;Node16 -->
<g id="edge27_Node000015_Node000016" class="edge">
<title>Node15&#45;&gt;Node16</title>
<g id="a_edge27_Node000015_Node000016"><a xlink:title=" ">
<path fill="none" stroke="#63b8ff" d="M999.72,-102.32C1008.78,-93.23 1019.6,-82.35 1027.06,-74.86"/>
<polygon fill="#63b8ff" stroke="#63b8ff" points="997.39,-99.7 992.82,-109.26 1002.35,-104.64 997.39,-99.7"/>
</a>
</g>
</g>
<!-- Node16&#45;&gt;Node5 -->
<g id="edge28_Node000016_Node000005" class="edge">
<title>Node16&#45;&gt;Node5</title>
<g id="a_edge28_Node000016_Node000005"><a xlink:title=" ">
<path fill="none" stroke="#63b8ff" d="M959.4,-53.55C872.6,-41.85 735.17,-23.32 673.19,-14.97"/>
<polygon fill="#63b8ff" stroke="#63b8ff" points="958.9,-57.01 969.27,-54.88 959.83,-50.07 958.9,-57.01"/>
</a>
</g>
</g>
<!-- Node17&#45;&gt;Node5 -->
<g id="edge30_Node000017_Node000005" class="edge">
<title>Node17&#45;&gt;Node5</title>
<g id="a_edge30_Node000017_Node000005"><a xlink:title=" ">
<path fill="none" stroke="#63b8ff" d="M1059.45,-158.85C1090.14,-134.81 1139.76,-87.98 1110,-55.25 1080.66,-22.99 774.76,-13.51 673.41,-11.24"/>
<polygon fill="#63b8ff" stroke="#63b8ff" points="1057.7,-155.78 1051.85,-164.62 1061.93,-161.36 1057.7,-155.78"/>
</a>
</g>
</g>
<!-- Node18&#45;&gt;Node5 -->
<g id="edge32_Node000018_Node000005" class="edge">
<title>Node18&#45;&gt;Node5</title>
<g id="a_edge32_Node000018_Node000005"><a xlink:title=" ">
<path fill="none" stroke="#63b8ff" d="M1165.12,-154.22C1164.07,-127.07 1157.79,-79.36 1128,-55.25 1092.69,-26.67 776.1,-14.69 673.17,-11.53"/>
<polygon fill="#63b8ff" stroke="#63b8ff" points="1161.61,-153.94 1165.26,-163.89 1168.61,-153.83 1161.61,-153.94"/>
</a>
</g>
</g>
</g>
</svg>
