<?xml version="1.0" encoding="UTF-8" standalone="no"?>
<!DOCTYPE svg PUBLIC "-//W3C//DTD SVG 1.1//EN"
 "http://www.w3.org/Graphics/SVG/1.1/DTD/svg11.dtd">
<!-- Generated by graphviz version 2.40.1 (0)
 -->
<!-- Title: jngl/Vec2.hpp Pages: 1 -->
<svg width="530pt" height="257pt"
 viewBox="0.00 0.00 529.66 257.00" xmlns="http://www.w3.org/2000/svg" xmlns:xlink="http://www.w3.org/1999/xlink">
<g id="graph0" class="graph" transform="scale(1 1) rotate(0) translate(4 253)">
<title>jngl/Vec2.hpp</title>
<polygon fill="#ffffff" stroke="transparent" points="-4,4 -4,-253 525.658,-253 525.658,4 -4,4"/>
<!-- Node4 -->
<g id="node1" class="node">
<title>Node4</title>
<polygon fill="#bfbfbf" stroke="#000000" points="218.054,-228.5 218.054,-248.5 290.988,-248.5 290.988,-228.5 218.054,-228.5"/>
<text text-anchor="middle" x="254.521" y="-235.5" font-family="Lato" font-size="10.00" fill="#000000">jngl/Vec2.hpp</text>
</g>
<!-- Node5 -->
<g id="node2" class="node">
<title>Node5</title>
<g id="a_node2"><a xlink:href="Vertex_8hpp_source.html" target="_top" xlink:title="jngl/Vertex.hpp">
<polygon fill="#ffffff" stroke="#000000" points="0,-114.5 0,-134.5 79.042,-134.5 79.042,-114.5 0,-114.5"/>
<text text-anchor="middle" x="39.521" y="-121.5" font-family="Lato" font-size="10.00" fill="#000000">jngl/Vertex.hpp</text>
</a>
</g>
</g>
<!-- Node4&#45;&gt;Node5 -->
<g id="edge1" class="edge">
<title>Node4&#45;&gt;Node5</title>
<path fill="none" stroke="#191970" d="M208.1729,-228.692C179.3404,-221.3214 142.229,-209.461 112.521,-192 85.7349,-176.2564 60.5267,-149.2813 47.9201,-134.6523"/>
<polygon fill="#191970" stroke="#191970" points="207.4534,-232.1193 218.0003,-231.1137 209.1282,-225.3226 207.4534,-232.1193"/>
</g>
<!-- Node8 -->
<g id="node5" class="node">
<title>Node8</title>
<g id="a_node5"><a xlink:href="input_8hpp.html" target="_top" xlink:title="jngl/input.hpp">
<polygon fill="#ffffff" stroke="#000000" points="121.3235,-171.5 121.3235,-191.5 193.7185,-191.5 193.7185,-171.5 121.3235,-171.5"/>
<text text-anchor="middle" x="157.521" y="-178.5" font-family="Lato" font-size="10.00" fill="#000000">jngl/input.hpp</text>
</a>
</g>
</g>
<!-- Node4&#45;&gt;Node8 -->
<g id="edge4" class="edge">
<title>Node4&#45;&gt;Node8</title>
<path fill="none" stroke="#191970" d="M228.2765,-223.078C211.2551,-213.0757 189.5638,-200.3293 174.7125,-191.6022"/>
<polygon fill="#191970" stroke="#191970" points="226.7845,-226.2608 237.1793,-228.3095 230.3309,-220.2256 226.7845,-226.2608"/>
</g>
<!-- Node10 -->
<g id="node7" class="node">
<title>Node10</title>
<g id="a_node7"><a xlink:href="font_8hpp_source.html" target="_top" xlink:title="jngl/font.hpp">
<polygon fill="#ffffff" stroke="#000000" points="245.5485,-114.5 245.5485,-134.5 313.4935,-134.5 313.4935,-114.5 245.5485,-114.5"/>
<text text-anchor="middle" x="279.521" y="-121.5" font-family="Lato" font-size="10.00" fill="#000000">jngl/font.hpp</text>
</a>
</g>
</g>
<!-- Node4&#45;&gt;Node10 -->
<g id="edge8" class="edge">
<title>Node4&#45;&gt;Node10</title>
<path fill="none" stroke="#191970" d="M244.8168,-218.7844C239.4265,-205.0979 234.8471,-186.5945 240.521,-171 245.8528,-156.3459 258.0546,-143.094 267.4009,-134.5208"/>
<polygon fill="#191970" stroke="#191970" points="241.7177,-220.4323 248.9404,-228.1836 248.1279,-217.62 241.7177,-220.4323"/>
</g>
<!-- Node11 -->
<g id="node8" class="node">
<title>Node11</title>
<g id="a_node8"><a xlink:href="screen_8hpp.html" target="_top" xlink:title="jngl/screen.hpp">
<polygon fill="#ffffff" stroke="#000000" points="249.835,-171.5 249.835,-191.5 327.207,-191.5 327.207,-171.5 249.835,-171.5"/>
<text text-anchor="middle" x="288.521" y="-178.5" font-family="Lato" font-size="10.00" fill="#000000">jngl/screen.hpp</text>
</a>
</g>
</g>
<!-- Node4&#45;&gt;Node11 -->
<g id="edge10" class="edge">
<title>Node4&#45;&gt;Node11</title>
<path fill="none" stroke="#191970" d="M265.7639,-219.6515C271.3464,-210.2928 277.8679,-199.3596 282.4951,-191.6022"/>
<polygon fill="#191970" stroke="#191970" points="262.7165,-217.9283 260.5995,-228.3095 268.7282,-221.5143 262.7165,-217.9283"/>
</g>
<!-- Node12 -->
<g id="node9" class="node">
<title>Node12</title>
<g id="a_node9"><a xlink:href="shapes_8hpp_source.html" target="_top" xlink:title="jngl/shapes.hpp">
<polygon fill="#ffffff" stroke="#000000" points="345.2745,-171.5 345.2745,-191.5 423.7675,-191.5 423.7675,-171.5 345.2745,-171.5"/>
<text text-anchor="middle" x="384.521" y="-178.5" font-family="Lato" font-size="10.00" fill="#000000">jngl/shapes.hpp</text>
</a>
</g>
</g>
<!-- Node4&#45;&gt;Node12 -->
<g id="edge12" class="edge">
<title>Node4&#45;&gt;Node12</title>
<path fill="none" stroke="#191970" d="M286.8774,-224.313C310.0279,-214.1624 340.6398,-200.7402 361.3709,-191.6504"/>
<polygon fill="#191970" stroke="#191970" points="285.216,-221.2197 277.4631,-228.4408 288.027,-227.6305 285.216,-221.2197"/>
</g>
<!-- Node13 -->
<g id="node10" class="node">
<title>Node13</title>
<g id="a_node10"><a xlink:href="sprite_8hpp_source.html" target="_top" xlink:title="jngl/sprite.hpp">
<polygon fill="#ffffff" stroke="#000000" points="441.495,-171.5 441.495,-191.5 515.547,-191.5 515.547,-171.5 441.495,-171.5"/>
<text text-anchor="middle" x="478.521" y="-178.5" font-family="Lato" font-size="10.00" fill="#000000">jngl/sprite.hpp</text>
</a>
</g>
</g>
<!-- Node4&#45;&gt;Node13 -->
<g id="edge14" class="edge">
<title>Node4&#45;&gt;Node13</title>
<path fill="none" stroke="#191970" d="M300.897,-226.699C342.5019,-216.112 402.7723,-200.7753 441.3021,-190.9709"/>
<polygon fill="#191970" stroke="#191970" points="299.837,-223.3571 291.009,-229.2151 301.5633,-230.1409 299.837,-223.3571"/>
</g>
<!-- Node6 -->
<g id="node3" class="node">
<title>Node6</title>
<g id="a_node3"><a xlink:href="all_8hpp.html" target="_top" xlink:title="Includes all JNGL headers. ">
<polygon fill="#ffffff" stroke="#000000" points="279.604,-57.5 279.604,-77.5 341.438,-77.5 341.438,-57.5 279.604,-57.5"/>
<text text-anchor="middle" x="310.521" y="-64.5" font-family="Lato" font-size="10.00" fill="#000000">jngl/all.hpp</text>
</a>
</g>
</g>
<!-- Node5&#45;&gt;Node6 -->
<g id="edge2" class="edge">
<title>Node5&#45;&gt;Node6</title>
<path fill="none" stroke="#191970" d="M89.1952,-114.0519C144.7683,-102.3631 233.0779,-83.7888 279.5669,-74.0106"/>
<polygon fill="#191970" stroke="#191970" points="88.2824,-110.6672 79.217,-116.1507 89.7233,-117.5174 88.2824,-110.6672"/>
</g>
<!-- Node7 -->
<g id="node4" class="node">
<title>Node7</title>
<g id="a_node4"><a xlink:href="jngl_8hpp_source.html" target="_top" xlink:title="jngl.hpp">
<polygon fill="#ffffff" stroke="#000000" points="285.992,-.5 285.992,-20.5 335.05,-20.5 335.05,-.5 285.992,-.5"/>
<text text-anchor="middle" x="310.521" y="-7.5" font-family="Lato" font-size="10.00" fill="#000000">jngl.hpp</text>
</a>
</g>
</g>
<!-- Node6&#45;&gt;Node7 -->
<g id="edge3" class="edge">
<title>Node6&#45;&gt;Node7</title>
<path fill="none" stroke="#191970" d="M310.521,-47.1771C310.521,-38.1625 310.521,-27.9556 310.521,-20.6022"/>
<polygon fill="#191970" stroke="#191970" points="307.0211,-47.3095 310.521,-57.3095 314.0211,-47.3096 307.0211,-47.3095"/>
</g>
<!-- Node8&#45;&gt;Node6 -->
<g id="edge7" class="edge">
<title>Node8&#45;&gt;Node6</title>
<path fill="none" stroke="#191970" d="M139.1438,-163.3804C126.8448,-149.027 114.8642,-128.9692 126.521,-114 145.1453,-90.0834 232.0519,-76.525 279.4636,-70.7902"/>
<polygon fill="#191970" stroke="#191970" points="136.8964,-166.1066 146.2457,-171.0907 142.0451,-161.3641 136.8964,-166.1066"/>
</g>
<!-- Node9 -->
<g id="node6" class="node">
<title>Node9</title>
<g id="a_node6"><a xlink:href="Controller_8hpp_source.html" target="_top" xlink:title="jngl/Controller.hpp">
<polygon fill="#ffffff" stroke="#000000" points="135.051,-114.5 135.051,-134.5 227.991,-134.5 227.991,-114.5 135.051,-114.5"/>
<text text-anchor="middle" x="181.521" y="-121.5" font-family="Lato" font-size="10.00" fill="#000000">jngl/Controller.hpp</text>
</a>
</g>
</g>
<!-- Node8&#45;&gt;Node9 -->
<g id="edge5" class="edge">
<title>Node8&#45;&gt;Node9</title>
<path fill="none" stroke="#191970" d="M165.7043,-162.0646C169.589,-152.8386 174.0692,-142.198 177.2674,-134.6022"/>
<polygon fill="#191970" stroke="#191970" points="162.4666,-160.735 161.8117,-171.3095 168.9181,-163.4514 162.4666,-160.735"/>
</g>
<!-- Node9&#45;&gt;Node6 -->
<g id="edge6" class="edge">
<title>Node9&#45;&gt;Node6</title>
<path fill="none" stroke="#191970" d="M213.6285,-110.313C236.6009,-100.1624 266.9774,-86.7402 287.549,-77.6504"/>
<polygon fill="#191970" stroke="#191970" points="212.0189,-107.1977 204.2867,-114.4408 214.8481,-113.6005 212.0189,-107.1977"/>
</g>
<!-- Node10&#45;&gt;Node6 -->
<g id="edge9" class="edge">
<title>Node10&#45;&gt;Node6</title>
<path fill="none" stroke="#191970" d="M289.9313,-105.3586C294.9855,-96.0653 300.8518,-85.2788 305.0268,-77.6022"/>
<polygon fill="#191970" stroke="#191970" points="286.7663,-103.8525 285.0632,-114.3095 292.9156,-107.1969 286.7663,-103.8525"/>
</g>
<!-- Node11&#45;&gt;Node6 -->
<g id="edge11" class="edge">
<title>Node11&#45;&gt;Node6</title>
<path fill="none" stroke="#191970" d="M305.7789,-163.5475C312.3672,-155.4846 319.1106,-145.4424 322.521,-135 328.9507,-115.313 321.0963,-91.2047 315.4049,-77.7802"/>
<polygon fill="#191970" stroke="#191970" points="303.0637,-161.3355 299.1156,-171.1672 308.3331,-165.9435 303.0637,-161.3355"/>
</g>
<!-- Node12&#45;&gt;Node6 -->
<g id="edge13" class="edge">
<title>Node12&#45;&gt;Node6</title>
<path fill="none" stroke="#191970" d="M372.3203,-162.7043C356.5429,-138.3986 329.6171,-96.9183 317.1797,-77.7579"/>
<polygon fill="#191970" stroke="#191970" points="369.5735,-164.9011 377.954,-171.3833 375.445,-161.0898 369.5735,-164.9011"/>
</g>
<!-- Node13&#45;&gt;Node6 -->
<g id="edge15" class="edge">
<title>Node13&#45;&gt;Node6</title>
<path fill="none" stroke="#191970" d="M454.9772,-165.5238C419.9239,-141.7377 354.9988,-97.6814 325.638,-77.7579"/>
<polygon fill="#191970" stroke="#191970" points="453.3721,-168.6644 463.6121,-171.3833 457.3026,-162.872 453.3721,-168.6644"/>
</g>
<!-- Node14 -->
<g id="node11" class="node">
<title>Node14</title>
<g id="a_node11"><a xlink:href="Video_8hpp_source.html" target="_top" xlink:title="jngl/Video.hpp">
<polygon fill="#ffffff" stroke="#000000" points="445.384,-114.5 445.384,-134.5 521.658,-134.5 521.658,-114.5 445.384,-114.5"/>
<text text-anchor="middle" x="483.521" y="-121.5" font-family="Lato" font-size="10.00" fill="#000000">jngl/Video.hpp</text>
</a>
</g>
</g>
<!-- Node13&#45;&gt;Node14 -->
<g id="edge16" class="edge">
<title>Node13&#45;&gt;Node14</title>
<path fill="none" stroke="#191970" d="M480.3037,-161.1771C481.0945,-152.1625 481.9898,-141.9556 482.6348,-134.6022"/>
<polygon fill="#191970" stroke="#191970" points="476.8022,-161.0419 479.4149,-171.3095 483.7754,-161.6537 476.8022,-161.0419"/>
</g>
<!-- Node14&#45;&gt;Node6 -->
<g id="edge17" class="edge">
<title>Node14&#45;&gt;Node6</title>
<path fill="none" stroke="#191970" d="M443.2894,-111.2445C412.0783,-100.9611 369.4789,-86.9255 341.037,-77.5544"/>
<polygon fill="#191970" stroke="#191970" points="442.3973,-114.6356 452.9903,-114.4408 444.5878,-107.9872 442.3973,-114.6356"/>
</g>
</g>
</svg>
