<?xml version="1.0" encoding="UTF-8" standalone="no"?>
<!DOCTYPE svg PUBLIC "-//W3C//DTD SVG 1.1//EN"
 "http://www.w3.org/Graphics/SVG/1.1/DTD/svg11.dtd">
<!-- Generated by graphviz version 2.38.0 (20140413.2041)
 -->
<!-- Title: jngl/Vec2.hpp Pages: 1 -->
<svg width="612pt" height="252pt"
 viewBox="0.00 0.00 612.00 252.00" xmlns="http://www.w3.org/2000/svg" xmlns:xlink="http://www.w3.org/1999/xlink">
<g id="graph0" class="graph" transform="scale(1 1) rotate(0) translate(4 248)">
<title>jngl/Vec2.hpp</title>
<polygon fill="white" stroke="none" points="-4,4 -4,-248 608,-248 608,4 -4,4"/>
<!-- Node1 -->
<g id="node1" class="node"><title>Node1</title>
<polygon fill="#bfbfbf" stroke="black" points="281,-224.5 281,-243.5 376,-243.5 376,-224.5 281,-224.5"/>
<text text-anchor="middle" x="328.5" y="-231.5" font-family="'Consolas',monospace" font-size="10.00">jngl/Vec2.hpp</text>
</g>
<!-- Node2 -->
<g id="node2" class="node"><title>Node2</title>
<g id="a_node2"><a xlink:href="input_8hpp.html" target="_top" xlink:title="jngl/input.hpp">
<polygon fill="white" stroke="black" points="109,-168.5 109,-187.5 210,-187.5 210,-168.5 109,-168.5"/>
<text text-anchor="middle" x="159.5" y="-175.5" font-family="'Consolas',monospace" font-size="10.00">jngl/input.hpp</text>
</a>
</g>
</g>
<!-- Node1&#45;&gt;Node2 -->
<g id="edge1" class="edge"><title>Node1&#45;&gt;Node2</title>
<path fill="none" stroke="midnightblue" d="M291.897,-221.304C260.053,-211.129 214.658,-196.625 186.153,-187.516"/>
<polygon fill="midnightblue" stroke="midnightblue" points="291.131,-224.734 301.721,-224.444 293.261,-218.066 291.131,-224.734"/>
</g>
<!-- Node6 -->
<g id="node6" class="node"><title>Node6</title>
<g id="a_node6"><a xlink:href="font_8hpp.html" target="_top" xlink:title="jngl/font.hpp">
<polygon fill="white" stroke="black" points="188,-112.5 188,-131.5 283,-131.5 283,-112.5 188,-112.5"/>
<text text-anchor="middle" x="235.5" y="-119.5" font-family="'Consolas',monospace" font-size="10.00">jngl/font.hpp</text>
</a>
</g>
</g>
<!-- Node1&#45;&gt;Node6 -->
<g id="edge6" class="edge"><title>Node1&#45;&gt;Node6</title>
<path fill="none" stroke="midnightblue" d="M314.622,-216.586C294.573,-192.871 258.217,-149.869 242.764,-131.591"/>
<polygon fill="midnightblue" stroke="midnightblue" points="312.073,-218.992 321.202,-224.368 317.419,-214.472 312.073,-218.992"/>
</g>
<!-- Node7 -->
<g id="node7" class="node"><title>Node7</title>
<g id="a_node7"><a xlink:href="screen_8hpp.html" target="_top" xlink:title="jngl/screen.hpp">
<polygon fill="white" stroke="black" points="301,-112.5 301,-131.5 408,-131.5 408,-112.5 301,-112.5"/>
<text text-anchor="middle" x="354.5" y="-119.5" font-family="'Consolas',monospace" font-size="10.00">jngl/screen.hpp</text>
</a>
</g>
</g>
<!-- Node1&#45;&gt;Node7 -->
<g id="edge8" class="edge"><title>Node1&#45;&gt;Node7</title>
<path fill="none" stroke="midnightblue" d="M332.909,-214.348C338.604,-190.254 348.282,-149.308 352.469,-131.591"/>
<polygon fill="midnightblue" stroke="midnightblue" points="329.434,-213.832 330.54,-224.368 336.247,-215.442 329.434,-213.832"/>
</g>
<!-- Node8 -->
<g id="node8" class="node"><title>Node8</title>
<g id="a_node8"><a xlink:href="shapes_8hpp.html" target="_top" xlink:title="jngl/shapes.hpp">
<polygon fill="white" stroke="black" points="357,-168.5 357,-187.5 464,-187.5 464,-168.5 357,-168.5"/>
<text text-anchor="middle" x="410.5" y="-175.5" font-family="'Consolas',monospace" font-size="10.00">jngl/shapes.hpp</text>
</a>
</g>
</g>
<!-- Node1&#45;&gt;Node8 -->
<g id="edge10" class="edge"><title>Node1&#45;&gt;Node8</title>
<path fill="none" stroke="midnightblue" d="M350.333,-218.622C365.313,-208.757 384.697,-195.992 397.358,-187.655"/>
<polygon fill="midnightblue" stroke="midnightblue" points="348.101,-215.901 341.675,-224.324 351.951,-221.747 348.101,-215.901"/>
</g>
<!-- Node9 -->
<g id="node9" class="node"><title>Node9</title>
<g id="a_node9"><a xlink:href="sprite_8hpp_source.html" target="_top" xlink:title="jngl/sprite.hpp">
<polygon fill="white" stroke="black" points="482,-168.5 482,-187.5 589,-187.5 589,-168.5 482,-168.5"/>
<text text-anchor="middle" x="535.5" y="-175.5" font-family="'Consolas',monospace" font-size="10.00">jngl/sprite.hpp</text>
</a>
</g>
</g>
<!-- Node1&#45;&gt;Node9 -->
<g id="edge12" class="edge"><title>Node1&#45;&gt;Node9</title>
<path fill="none" stroke="midnightblue" d="M371.322,-221.829C410.406,-211.633 467.335,-196.782 502.854,-187.516"/>
<polygon fill="midnightblue" stroke="midnightblue" points="370.092,-218.533 361.3,-224.444 371.859,-225.306 370.092,-218.533"/>
</g>
<!-- Node3 -->
<g id="node3" class="node"><title>Node3</title>
<g id="a_node3"><a xlink:href="Controller_8hpp_source.html" target="_top" xlink:title="jngl/Controller.hpp">
<polygon fill="white" stroke="black" points="0,-112.5 0,-131.5 131,-131.5 131,-112.5 0,-112.5"/>
<text text-anchor="middle" x="65.5" y="-119.5" font-family="'Consolas',monospace" font-size="10.00">jngl/Controller.hpp</text>
</a>
</g>
</g>
<!-- Node2&#45;&gt;Node3 -->
<g id="edge2" class="edge"><title>Node2&#45;&gt;Node3</title>
<path fill="none" stroke="midnightblue" d="M135.438,-163.177C118.141,-153.241 95.3523,-140.149 80.5652,-131.655"/>
<polygon fill="midnightblue" stroke="midnightblue" points="133.983,-166.378 144.397,-168.324 137.47,-160.308 133.983,-166.378"/>
</g>
<!-- Node4 -->
<g id="node4" class="node"><title>Node4</title>
<g id="a_node4"><a xlink:href="all_8hpp.html" target="_top" xlink:title="Includes all JNGL headers. ">
<polygon fill="white" stroke="black" points="310,-56.5 310,-75.5 399,-75.5 399,-56.5 310,-56.5"/>
<text text-anchor="middle" x="354.5" y="-63.5" font-family="'Consolas',monospace" font-size="10.00">jngl/all.hpp</text>
</a>
</g>
</g>
<!-- Node2&#45;&gt;Node4 -->
<g id="edge5" class="edge"><title>Node2&#45;&gt;Node4</title>
<path fill="none" stroke="midnightblue" d="M160.149,-158.146C161.667,-143.598 166.093,-123.992 178.5,-112 213.537,-78.1367 270.388,-68.757 309.961,-66.6426"/>
<polygon fill="midnightblue" stroke="midnightblue" points="156.632,-158.276 159.458,-168.487 163.617,-158.742 156.632,-158.276"/>
</g>
<!-- Node3&#45;&gt;Node4 -->
<g id="edge3" class="edge"><title>Node3&#45;&gt;Node4</title>
<path fill="none" stroke="midnightblue" d="M121.215,-110.59C176.175,-100.32 259.114,-84.8231 309.871,-75.339"/>
<polygon fill="midnightblue" stroke="midnightblue" points="120.48,-107.166 111.293,-112.444 121.766,-114.047 120.48,-107.166"/>
</g>
<!-- Node5 -->
<g id="node5" class="node"><title>Node5</title>
<g id="a_node5"><a xlink:href="jngl_8hpp_source.html" target="_top" xlink:title="jngl.hpp">
<polygon fill="white" stroke="black" points="322,-0.5 322,-19.5 387,-19.5 387,-0.5 322,-0.5"/>
<text text-anchor="middle" x="354.5" y="-7.5" font-family="'Consolas',monospace" font-size="10.00">jngl.hpp</text>
</a>
</g>
</g>
<!-- Node4&#45;&gt;Node5 -->
<g id="edge4" class="edge"><title>Node4&#45;&gt;Node5</title>
<path fill="none" stroke="midnightblue" d="M354.5,-45.8045C354.5,-36.9102 354.5,-26.7798 354.5,-19.7511"/>
<polygon fill="midnightblue" stroke="midnightblue" points="351,-46.083 354.5,-56.083 358,-46.083 351,-46.083"/>
</g>
<!-- Node6&#45;&gt;Node4 -->
<g id="edge7" class="edge"><title>Node6&#45;&gt;Node4</title>
<path fill="none" stroke="midnightblue" d="M263.637,-108.232C285.896,-98.1312 316.356,-84.3091 335.732,-75.5164"/>
<polygon fill="midnightblue" stroke="midnightblue" points="262.016,-105.124 254.356,-112.444 264.909,-111.498 262.016,-105.124"/>
</g>
<!-- Node7&#45;&gt;Node4 -->
<g id="edge9" class="edge"><title>Node7&#45;&gt;Node4</title>
<path fill="none" stroke="midnightblue" d="M354.5,-101.805C354.5,-92.9102 354.5,-82.7798 354.5,-75.7511"/>
<polygon fill="midnightblue" stroke="midnightblue" points="351,-102.083 354.5,-112.083 358,-102.083 351,-102.083"/>
</g>
<!-- Node8&#45;&gt;Node4 -->
<g id="edge11" class="edge"><title>Node8&#45;&gt;Node4</title>
<path fill="none" stroke="midnightblue" d="M417.228,-158.799C421.102,-145.186 423.892,-126.499 416.5,-112 407.801,-94.9372 389.271,-82.8318 374.723,-75.5055"/>
<polygon fill="midnightblue" stroke="midnightblue" points="413.853,-157.86 414.063,-168.452 420.505,-160.041 413.853,-157.86"/>
</g>
<!-- Node9&#45;&gt;Node4 -->
<g id="edge13" class="edge"><title>Node9&#45;&gt;Node4</title>
<path fill="none" stroke="midnightblue" d="M513.846,-162.761C493.331,-149.376 461.57,-128.924 433.5,-112 411.737,-98.8784 386.101,-84.4628 370.072,-75.5707"/>
<polygon fill="midnightblue" stroke="midnightblue" points="512.143,-165.829 522.427,-168.375 515.975,-159.971 512.143,-165.829"/>
</g>
<!-- Node10 -->
<g id="node10" class="node"><title>Node10</title>
<g id="a_node10"><a xlink:href="Video_8hpp_source.html" target="_top" xlink:title="jngl/Video.hpp">
<polygon fill="white" stroke="black" points="503,-112.5 503,-131.5 604,-131.5 604,-112.5 503,-112.5"/>
<text text-anchor="middle" x="553.5" y="-119.5" font-family="'Consolas',monospace" font-size="10.00">jngl/Video.hpp</text>
</a>
</g>
</g>
<!-- Node9&#45;&gt;Node10 -->
<g id="edge14" class="edge"><title>Node9&#45;&gt;Node10</title>
<path fill="none" stroke="midnightblue" d="M541.701,-158.396C544.713,-149.362 548.188,-138.936 550.583,-131.751"/>
<polygon fill="midnightblue" stroke="midnightblue" points="538.314,-157.489 538.472,-168.083 544.955,-159.703 538.314,-157.489"/>
</g>
<!-- Node10&#45;&gt;Node4 -->
<g id="edge15" class="edge"><title>Node10&#45;&gt;Node4</title>
<path fill="none" stroke="midnightblue" d="M511.852,-109.699C474.294,-99.507 419.886,-84.7429 385.885,-75.5164"/>
<polygon fill="midnightblue" stroke="midnightblue" points="511.4,-113.202 521.968,-112.444 513.233,-106.447 511.4,-113.202"/>
</g>
</g>
</svg>
