<?xml version="1.0" encoding="UTF-8" standalone="no"?>
<!DOCTYPE svg PUBLIC "-//W3C//DTD SVG 1.1//EN"
 "http://www.w3.org/Graphics/SVG/1.1/DTD/svg11.dtd">
<!-- Generated by graphviz version 9.0.0 (20230911.1827)
 -->
<!-- Title: jngl/Vertex.hpp Pages: 1 -->
<svg width="173pt" height="138pt"
 viewBox="0.00 0.00 173.00 137.75" xmlns="http://www.w3.org/2000/svg" xmlns:xlink="http://www.w3.org/1999/xlink">
<g id="graph0" class="graph" transform="scale(1 1) rotate(0) translate(4 133.75)">
<title>jngl/Vertex.hpp</title>
<!-- Node1 -->
<g id="Node000001" class="node">
<title>Node1</title>
<g id="a_Node000001"><a xlink:title=" ">
<polygon fill="#999999" stroke="#666666" points="106,-129.75 0,-129.75 0,-110.5 106,-110.5 106,-129.75"/>
<text text-anchor="middle" x="53" y="-116.25" font-family="ui-monospace,monospace" font-size="10.00">jngl/Vertex.hpp</text>
</a>
</g>
</g>
<!-- Node2 -->
<g id="Node000002" class="node">
<title>Node2</title>
<g id="a_Node000002"><a xlink:href="jngl_8hpp.html" target="_top" xlink:title="Includes all JNGL headers except for init.hpp.">
<polygon fill="white" stroke="#666666" points="85,-19.25 21,-19.25 21,0 85,0 85,-19.25"/>
<text text-anchor="middle" x="53" y="-5.75" font-family="ui-monospace,monospace" font-size="10.00">jngl.hpp</text>
</a>
</g>
</g>
<!-- Node1&#45;&gt;Node2 -->
<g id="edge1_Node000001_Node000002" class="edge">
<title>Node1&#45;&gt;Node2</title>
<g id="a_edge1_Node000001_Node000002"><a xlink:title=" ">
<path fill="none" stroke="#63b8ff" d="M38.89,-100.91C33.77,-93.2 28.61,-83.85 26,-74.5 20.31,-54.09 35.2,-31.55 45.07,-19.46"/>
<polygon fill="#63b8ff" stroke="#63b8ff" points="36.04,-102.94 44.71,-109.02 41.72,-98.85 36.04,-102.94"/>
</a>
</g>
</g>
<!-- Node3 -->
<g id="Node000003" class="node">
<title>Node3</title>
<g id="a_Node000003"><a xlink:href="FrameBuffer_8hpp.html" target="_top" xlink:title="Contains jngl::FrameBuffer class.">
<polygon fill="white" stroke="#666666" points="165,-74.5 35,-74.5 35,-55.25 165,-55.25 165,-74.5"/>
<text text-anchor="middle" x="100" y="-61" font-family="ui-monospace,monospace" font-size="10.00">jngl/FrameBuffer.hpp</text>
</a>
</g>
</g>
<!-- Node1&#45;&gt;Node3 -->
<g id="edge2_Node000001_Node000003" class="edge">
<title>Node1&#45;&gt;Node3</title>
<g id="a_edge2_Node000001_Node000003"><a xlink:title=" ">
<path fill="none" stroke="#63b8ff" d="M68.33,-101.76C76.25,-92.78 85.6,-82.2 92.07,-74.86"/>
<polygon fill="#63b8ff" stroke="#63b8ff" points="65.76,-99.38 61.76,-109.2 71,-104.02 65.76,-99.38"/>
</a>
</g>
</g>
<!-- Node3&#45;&gt;Node2 -->
<g id="edge3_Node000003_Node000002" class="edge">
<title>Node3&#45;&gt;Node2</title>
<g id="a_edge3_Node000003_Node000002"><a xlink:title=" ">
<path fill="none" stroke="#63b8ff" d="M84.67,-46.51C76.75,-37.53 67.4,-26.95 60.93,-19.61"/>
<polygon fill="#63b8ff" stroke="#63b8ff" points="82,-48.77 91.24,-53.95 87.24,-44.13 82,-48.77"/>
</a>
</g>
</g>
</g>
</svg>
