<?xml version="1.0" encoding="UTF-8" standalone="no"?>
<!DOCTYPE svg PUBLIC "-//W3C//DTD SVG 1.1//EN"
 "http://www.w3.org/Graphics/SVG/1.1/DTD/svg11.dtd">
<!-- Generated by graphviz version 2.42.4 (0)
 -->
<!-- Title: jngl/Vertex.hpp Pages: 1 -->
<svg width="174pt" height="196pt"
 viewBox="0.00 0.00 174.00 196.00" xmlns="http://www.w3.org/2000/svg" xmlns:xlink="http://www.w3.org/1999/xlink">
<g id="graph0" class="graph" transform="scale(1 1) rotate(0) translate(4 192)">
<title>jngl/Vertex.hpp</title>
<polygon fill="white" stroke="transparent" points="-4,4 -4,-192 170,-192 170,4 -4,4"/>
<!-- Node1 -->
<g id="node1" class="node">
<title>Node1</title>
<g id="a_node1"><a xlink:title=" ">
<polygon fill="#bfbfbf" stroke="black" points="0,-168.5 0,-187.5 107,-187.5 107,-168.5 0,-168.5"/>
<text text-anchor="middle" x="53.5" y="-175.5" font-family="'Consolas',monospace" font-size="10.00">jngl/Vertex.hpp</text>
</a>
</g>
</g>
<!-- Node2 -->
<g id="node2" class="node">
<title>Node2</title>
<g id="a_node2"><a xlink:href="all_8hpp.html" target="_top" xlink:title="Includes all JNGL headers.">
<polygon fill="white" stroke="black" points="9,-56.5 9,-75.5 98,-75.5 98,-56.5 9,-56.5"/>
<text text-anchor="middle" x="53.5" y="-63.5" font-family="'Consolas',monospace" font-size="10.00">jngl/all.hpp</text>
</a>
</g>
</g>
<!-- Node1&#45;&gt;Node2 -->
<g id="edge1" class="edge">
<title>Node1&#45;&gt;Node2</title>
<path fill="none" stroke="midnightblue" d="M39.44,-160.5C30.19,-147.61 20.62,-129.09 25.5,-112 29.49,-98.02 39.22,-84.16 46.09,-75.59"/>
<polygon fill="midnightblue" stroke="midnightblue" points="36.71,-162.69 45.61,-168.43 42.23,-158.39 36.71,-162.69"/>
</g>
<!-- Node4 -->
<g id="node4" class="node">
<title>Node4</title>
<g id="a_node4"><a xlink:href="framebuffer_8hpp_source.html" target="_top" xlink:title=" ">
<polygon fill="white" stroke="black" points="35,-112.5 35,-131.5 166,-131.5 166,-112.5 35,-112.5"/>
<text text-anchor="middle" x="100.5" y="-119.5" font-family="'Consolas',monospace" font-size="10.00">jngl/framebuffer.hpp</text>
</a>
</g>
</g>
<!-- Node1&#45;&gt;Node4 -->
<g id="edge3" class="edge">
<title>Node1&#45;&gt;Node4</title>
<path fill="none" stroke="midnightblue" d="M67.92,-160.43C76.16,-150.97 86.15,-139.48 92.88,-131.75"/>
<polygon fill="midnightblue" stroke="midnightblue" points="65.19,-158.24 61.26,-168.08 70.47,-162.84 65.19,-158.24"/>
</g>
<!-- Node3 -->
<g id="node3" class="node">
<title>Node3</title>
<g id="a_node3"><a xlink:href="jngl_8hpp_source.html" target="_top" xlink:title=" ">
<polygon fill="white" stroke="black" points="21,-0.5 21,-19.5 86,-19.5 86,-0.5 21,-0.5"/>
<text text-anchor="middle" x="53.5" y="-7.5" font-family="'Consolas',monospace" font-size="10.00">jngl.hpp</text>
</a>
</g>
</g>
<!-- Node2&#45;&gt;Node3 -->
<g id="edge2" class="edge">
<title>Node2&#45;&gt;Node3</title>
<path fill="none" stroke="midnightblue" d="M53.5,-45.8C53.5,-36.91 53.5,-26.78 53.5,-19.75"/>
<polygon fill="midnightblue" stroke="midnightblue" points="50,-46.08 53.5,-56.08 57,-46.08 50,-46.08"/>
</g>
<!-- Node4&#45;&gt;Node2 -->
<g id="edge4" class="edge">
<title>Node4&#45;&gt;Node2</title>
<path fill="none" stroke="midnightblue" d="M86.08,-104.43C77.84,-94.97 67.85,-83.48 61.12,-75.75"/>
<polygon fill="midnightblue" stroke="midnightblue" points="83.53,-106.84 92.74,-112.08 88.81,-102.24 83.53,-106.84"/>
</g>
</g>
</svg>
