<?xml version="1.0" encoding="UTF-8" standalone="no"?>
<!DOCTYPE svg PUBLIC "-//W3C//DTD SVG 1.1//EN"
 "http://www.w3.org/Graphics/SVG/1.1/DTD/svg11.dtd">
<!-- Generated by graphviz version 5.0.0 (0)
 -->
<!-- Title: jngl/Vertex.hpp Pages: 1 -->
<svg width="174pt" height="137pt"
 viewBox="0.00 0.00 174.00 137.00" xmlns="http://www.w3.org/2000/svg" xmlns:xlink="http://www.w3.org/1999/xlink">
<g id="graph0" class="graph" transform="scale(1 1) rotate(0) translate(4 133)">
<title>jngl/Vertex.hpp</title>
<!-- Node1 -->
<g id="node1" class="node">
<title>Node1</title>
<g id="a_node1"><a xlink:title=" ">
<polygon fill="#999999" stroke="#666666" points="107,-129 0,-129 0,-110 107,-110 107,-129"/>
<text text-anchor="middle" x="53.5" y="-117" font-family="ui-monospace,monospace" font-size="10.00">jngl/Vertex.hpp</text>
</a>
</g>
</g>
<!-- Node2 -->
<g id="node2" class="node">
<title>Node2</title>
<g id="a_node2"><a xlink:href="jngl_8hpp.html" target="_top" xlink:title="Includes all JNGL headers except for init.hpp.">
<polygon fill="white" stroke="#666666" points="86,-19 21,-19 21,0 86,0 86,-19"/>
<text text-anchor="middle" x="53.5" y="-7" font-family="ui-monospace,monospace" font-size="10.00">jngl.hpp</text>
</a>
</g>
</g>
<!-- Node1&#45;&gt;Node2 -->
<g id="edge1" class="edge">
<title>Node1&#45;&gt;Node2</title>
<path fill="none" stroke="#63b8ff" d="M38.9,-101.62C29.84,-89.08 20.77,-71.4 25.5,-55 29.45,-41.32 38.98,-27.79 45.83,-19.3"/>
<polygon fill="#63b8ff" stroke="#63b8ff" points="36.35,-104.05 45.28,-109.74 41.85,-99.72 36.35,-104.05"/>
</g>
<!-- Node3 -->
<g id="node3" class="node">
<title>Node3</title>
<g id="a_node3"><a xlink:href="FrameBuffer_8hpp.html" target="_top" xlink:title="Contains jngl::FrameBuffer class.">
<polygon fill="white" stroke="#666666" points="166,-74 35,-74 35,-55 166,-55 166,-74"/>
<text text-anchor="middle" x="100.5" y="-62" font-family="ui-monospace,monospace" font-size="10.00">jngl/FrameBuffer.hpp</text>
</a>
</g>
</g>
<!-- Node1&#45;&gt;Node3 -->
<g id="edge2" class="edge">
<title>Node1&#45;&gt;Node3</title>
<path fill="none" stroke="#63b8ff" d="M67.92,-102.24C76.16,-92.95 86.15,-81.68 92.88,-74.09"/>
<polygon fill="#63b8ff" stroke="#63b8ff" points="65.28,-99.94 61.26,-109.75 70.51,-104.59 65.28,-99.94"/>
</g>
<!-- Node3&#45;&gt;Node2 -->
<g id="edge3" class="edge">
<title>Node3&#45;&gt;Node2</title>
<path fill="none" stroke="#63b8ff" d="M86.08,-47.24C77.84,-37.95 67.85,-26.68 61.12,-19.09"/>
<polygon fill="#63b8ff" stroke="#63b8ff" points="83.49,-49.59 92.74,-54.75 88.72,-44.94 83.49,-49.59"/>
</g>
</g>
</svg>
