<?xml version="1.0" encoding="UTF-8" standalone="no"?>
<!DOCTYPE svg PUBLIC "-//W3C//DTD SVG 1.1//EN"
 "http://www.w3.org/Graphics/SVG/1.1/DTD/svg11.dtd">
<!-- Generated by graphviz version 2.40.1 (0)
 -->
<!-- Title: jngl/Vertex.hpp Pages: 1 -->
<svg width="174pt" height="196pt"
 viewBox="0.00 0.00 174.00 196.00" xmlns="http://www.w3.org/2000/svg" xmlns:xlink="http://www.w3.org/1999/xlink">
<g id="graph0" class="graph" transform="scale(1 1) rotate(0) translate(4 192)">
<title>jngl/Vertex.hpp</title>
<polygon fill="#ffffff" stroke="transparent" points="-4,4 -4,-192 170,-192 170,4 -4,4"/>
<!-- Node1 -->
<g id="node1" class="node">
<title>Node1</title>
<g id="a_node1"><a xlink:title=" ">
<polygon fill="#bfbfbf" stroke="#000000" points="0,-168.5 0,-187.5 107,-187.5 107,-168.5 0,-168.5"/>
<text text-anchor="middle" x="53.5" y="-175.5" font-family="'Consolas',monospace" font-size="10.00" fill="#000000">jngl/Vertex.hpp</text>
</a>
</g>
</g>
<!-- Node2 -->
<g id="node2" class="node">
<title>Node2</title>
<g id="a_node2"><a xlink:href="all_8hpp.html" target="_top" xlink:title="Includes all JNGL headers.">
<polygon fill="#ffffff" stroke="#000000" points="9,-56.5 9,-75.5 98,-75.5 98,-56.5 9,-56.5"/>
<text text-anchor="middle" x="53.5" y="-63.5" font-family="'Consolas',monospace" font-size="10.00" fill="#000000">jngl/all.hpp</text>
</a>
</g>
</g>
<!-- Node1&#45;&gt;Node2 -->
<g id="edge1" class="edge">
<title>Node1&#45;&gt;Node2</title>
<path fill="none" stroke="#191970" d="M38.8288,-160.344C29.7846,-147.3011 20.7489,-128.9432 25.5,-112 29.3369,-98.3169 38.4886,-84.6657 45.2911,-75.8323"/>
<polygon fill="#191970" stroke="#191970" points="36.1128,-162.5557 44.9221,-168.4418 41.7062,-158.3469 36.1128,-162.5557"/>
</g>
<!-- Node4 -->
<g id="node4" class="node">
<title>Node4</title>
<g id="a_node4"><a xlink:href="framebuffer_8hpp_source.html" target="_top" xlink:title=" ">
<polygon fill="#ffffff" stroke="#000000" points="35,-112.5 35,-131.5 166,-131.5 166,-112.5 35,-112.5"/>
<text text-anchor="middle" x="100.5" y="-119.5" font-family="'Consolas',monospace" font-size="10.00" fill="#000000">jngl/framebuffer.hpp</text>
</a>
</g>
</g>
<!-- Node1&#45;&gt;Node4 -->
<g id="edge3" class="edge">
<title>Node1&#45;&gt;Node4</title>
<path fill="none" stroke="#191970" d="M68.1872,-160.5004C76.1796,-150.9775 85.7625,-139.5596 92.407,-131.6427"/>
<polygon fill="#191970" stroke="#191970" points="65.4346,-158.3357 61.6868,-168.2455 70.7964,-162.8358 65.4346,-158.3357"/>
</g>
<!-- Node3 -->
<g id="node3" class="node">
<title>Node3</title>
<g id="a_node3"><a xlink:href="jngl_8hpp_source.html" target="_top" xlink:title=" ">
<polygon fill="#ffffff" stroke="#000000" points="21,-.5 21,-19.5 86,-19.5 86,-.5 21,-.5"/>
<text text-anchor="middle" x="53.5" y="-7.5" font-family="'Consolas',monospace" font-size="10.00" fill="#000000">jngl.hpp</text>
</a>
</g>
</g>
<!-- Node2&#45;&gt;Node3 -->
<g id="edge2" class="edge">
<title>Node2&#45;&gt;Node3</title>
<path fill="none" stroke="#191970" d="M53.5,-46.1575C53.5,-37.155 53.5,-26.9199 53.5,-19.6427"/>
<polygon fill="#191970" stroke="#191970" points="50.0001,-46.2455 53.5,-56.2455 57.0001,-46.2456 50.0001,-46.2455"/>
</g>
<!-- Node4&#45;&gt;Node2 -->
<g id="edge4" class="edge">
<title>Node4&#45;&gt;Node2</title>
<path fill="none" stroke="#191970" d="M85.8128,-104.5004C77.8204,-94.9775 68.2375,-83.5596 61.593,-75.6427"/>
<polygon fill="#191970" stroke="#191970" points="83.2036,-106.8358 92.3132,-112.2455 88.5654,-102.3357 83.2036,-106.8358"/>
</g>
</g>
</svg>
