<?xml version="1.0" encoding="UTF-8" standalone="no"?>
<!DOCTYPE svg PUBLIC "-//W3C//DTD SVG 1.1//EN"
 "http://www.w3.org/Graphics/SVG/1.1/DTD/svg11.dtd">
<!-- Generated by graphviz version 2.40.1 (0)
 -->
<!-- Title: jngl/Video.hpp Pages: 1 -->
<svg width="439pt" height="252pt"
 viewBox="0.00 0.00 439.00 252.00" xmlns="http://www.w3.org/2000/svg" xmlns:xlink="http://www.w3.org/1999/xlink">
<g id="graph0" class="graph" transform="scale(1 1) rotate(0) translate(4 248)">
<title>jngl/Video.hpp</title>
<polygon fill="#ffffff" stroke="transparent" points="-4,4 -4,-248 435,-248 435,4 -4,4"/>
<!-- Node0 -->
<g id="node1" class="node">
<title>Node0</title>
<g id="a_node1"><a xlink:title=" ">
<polygon fill="#bfbfbf" stroke="#000000" points="299,-224.5 299,-243.5 400,-243.5 400,-224.5 299,-224.5"/>
<text text-anchor="middle" x="349.5" y="-231.5" font-family="'Consolas',monospace" font-size="10.00" fill="#000000">jngl/Video.hpp</text>
</a>
</g>
</g>
<!-- Node1 -->
<g id="node2" class="node">
<title>Node1</title>
<g id="a_node2"><a xlink:href="sprite_8hpp_source.html" target="_top" xlink:title=" ">
<polygon fill="#ffffff" stroke="#000000" points="168,-168.5 168,-187.5 245,-187.5 245,-168.5 168,-168.5"/>
<text text-anchor="middle" x="206.5" y="-175.5" font-family="'Consolas',monospace" font-size="10.00" fill="#000000">sprite.hpp</text>
</a>
</g>
</g>
<!-- Node0&#45;&gt;Node1 -->
<g id="edge1" class="edge">
<title>Node0&#45;&gt;Node1</title>
<path fill="none" stroke="#191970" d="M324.9174,-224.3733C301.5504,-215.2226 266.2138,-201.3844 240.2216,-191.2057"/>
<polygon fill="#191970" stroke="#191970" points="241.3495,-187.8886 230.7618,-187.5011 238.797,-194.4066 241.3495,-187.8886"/>
</g>
<!-- Node6 -->
<g id="node7" class="node">
<title>Node6</title>
<g id="a_node7"><a doxygen="/w/doc/cppreference-doxygen-web.tag.xml:http://en.cppreference.com/w/" xlink:href="http://en.cppreference.com/w/cpp/header/memory.html" xlink:title=" ">
<polygon fill="#ffffff" stroke="#000000" points="322,-56.5 322,-75.5 375,-75.5 375,-56.5 322,-56.5"/>
<text text-anchor="middle" x="348.5" y="-63.5" font-family="'Consolas',monospace" font-size="10.00" fill="#000000">memory</text>
</a>
</g>
</g>
<!-- Node0&#45;&gt;Node6 -->
<g id="edge10" class="edge">
<title>Node0&#45;&gt;Node6</title>
<path fill="none" stroke="#191970" d="M349.4434,-224.4862C349.2853,-197.9293 348.8367,-122.5651 348.62,-86.1655"/>
<polygon fill="#191970" stroke="#191970" points="352.1181,-85.8068 348.5585,-75.8279 345.1182,-85.8486 352.1181,-85.8068"/>
</g>
<!-- Node10 -->
<g id="node11" class="node">
<title>Node10</title>
<g id="a_node11"><a doxygen="/w/doc/cppreference-doxygen-web.tag.xml:http://en.cppreference.com/w/" xlink:href="http://en.cppreference.com/w/cpp/header/string.html" xlink:title=" ">
<polygon fill="#ffffff" stroke="#000000" points="378,-168.5 378,-187.5 431,-187.5 431,-168.5 378,-168.5"/>
<text text-anchor="middle" x="404.5" y="-175.5" font-family="'Consolas',monospace" font-size="10.00" fill="#000000">string</text>
</a>
</g>
</g>
<!-- Node0&#45;&gt;Node10 -->
<g id="edge11" class="edge">
<title>Node0&#45;&gt;Node10</title>
<path fill="none" stroke="#191970" d="M359.0803,-224.2455C367.0458,-216.1352 378.5641,-204.4075 388.0079,-194.7919"/>
<polygon fill="#191970" stroke="#191970" points="390.5195,-197.2297 395.0295,-187.6427 385.5253,-192.3247 390.5195,-197.2297"/>
</g>
<!-- Node2 -->
<g id="node3" class="node">
<title>Node2</title>
<g id="a_node3"><a xlink:href="Drawable_8hpp.html" target="_top" xlink:title="Contains Drawable class.">
<polygon fill="#ffffff" stroke="#000000" points="12,-112.5 12,-131.5 101,-131.5 101,-112.5 12,-112.5"/>
<text text-anchor="middle" x="56.5" y="-119.5" font-family="'Consolas',monospace" font-size="10.00" fill="#000000">Drawable.hpp</text>
</a>
</g>
</g>
<!-- Node1&#45;&gt;Node2 -->
<g id="edge2" class="edge">
<title>Node1&#45;&gt;Node2</title>
<path fill="none" stroke="#191970" d="M180.7141,-168.3733C156.0953,-159.1822 118.81,-145.2624 91.5125,-135.0713"/>
<polygon fill="#191970" stroke="#191970" points="92.542,-131.7198 81.9494,-131.5011 90.0937,-138.2777 92.542,-131.7198"/>
</g>
<!-- Node3 -->
<g id="node4" class="node">
<title>Node3</title>
<g id="a_node4"><a xlink:href="ShaderProgram_8hpp.html" target="_top" xlink:title=" ">
<polygon fill="#ffffff" stroke="#000000" points="202,-112.5 202,-131.5 321,-131.5 321,-112.5 202,-112.5"/>
<text text-anchor="middle" x="261.5" y="-119.5" font-family="'Consolas',monospace" font-size="10.00" fill="#000000">ShaderProgram.hpp</text>
</a>
</g>
</g>
<!-- Node1&#45;&gt;Node3 -->
<g id="edge3" class="edge">
<title>Node1&#45;&gt;Node3</title>
<path fill="none" stroke="#191970" d="M216.0803,-168.2455C224.0458,-160.1352 235.5641,-148.4075 245.0079,-138.7919"/>
<polygon fill="#191970" stroke="#191970" points="247.5195,-141.2297 252.0295,-131.6427 242.5253,-136.3247 247.5195,-141.2297"/>
</g>
<!-- Node7 -->
<g id="node8" class="node">
<title>Node7</title>
<g id="a_node8"><a xlink:href="Vec2_8hpp.html" target="_top" xlink:title=" ">
<polygon fill="#ffffff" stroke="#000000" points="119,-112.5 119,-131.5 184,-131.5 184,-112.5 119,-112.5"/>
<text text-anchor="middle" x="151.5" y="-119.5" font-family="'Consolas',monospace" font-size="10.00" fill="#000000">Vec2.hpp</text>
</a>
</g>
</g>
<!-- Node1&#45;&gt;Node7 -->
<g id="edge7" class="edge">
<title>Node1&#45;&gt;Node7</title>
<path fill="none" stroke="#191970" d="M196.9197,-168.2455C188.9542,-160.1352 177.4359,-148.4075 167.9921,-138.7919"/>
<polygon fill="#191970" stroke="#191970" points="170.4747,-136.3247 160.9705,-131.6427 165.4805,-141.2297 170.4747,-136.3247"/>
</g>
<!-- Node4 -->
<g id="node5" class="node">
<title>Node4</title>
<g id="a_node5"><a xlink:href="Finally_8hpp.html" target="_top" xlink:title=" ">
<polygon fill="#ffffff" stroke="#000000" points="220,-56.5 220,-75.5 303,-75.5 303,-56.5 220,-56.5"/>
<text text-anchor="middle" x="261.5" y="-63.5" font-family="'Consolas',monospace" font-size="10.00" fill="#000000">Finally.hpp</text>
</a>
</g>
</g>
<!-- Node3&#45;&gt;Node4 -->
<g id="edge4" class="edge">
<title>Node3&#45;&gt;Node4</title>
<path fill="none" stroke="#191970" d="M261.5,-112.2455C261.5,-104.9382 261.5,-94.6944 261.5,-85.7046"/>
<polygon fill="#191970" stroke="#191970" points="265.0001,-85.6426 261.5,-75.6427 258.0001,-85.6427 265.0001,-85.6426"/>
</g>
<!-- Node3&#45;&gt;Node6 -->
<g id="edge6" class="edge">
<title>Node3&#45;&gt;Node6</title>
<path fill="none" stroke="#191970" d="M276.6542,-112.2455C290.0027,-103.6534 309.6586,-91.0014 325.0383,-81.1018"/>
<polygon fill="#191970" stroke="#191970" points="327.0051,-83.9982 333.5194,-75.6427 323.2164,-78.1121 327.0051,-83.9982"/>
</g>
<!-- Node5 -->
<g id="node6" class="node">
<title>Node5</title>
<g id="a_node6"><a doxygen="/w/doc/cppreference-doxygen-web.tag.xml:http://en.cppreference.com/w/" xlink:href="http://en.cppreference.com/w/cpp/header/functional.html" xlink:title=" ">
<polygon fill="#ffffff" stroke="#000000" points="223,-.5 223,-19.5 300,-19.5 300,-.5 223,-.5"/>
<text text-anchor="middle" x="261.5" y="-7.5" font-family="'Consolas',monospace" font-size="10.00" fill="#000000">functional</text>
</a>
</g>
</g>
<!-- Node4&#45;&gt;Node5 -->
<g id="edge5" class="edge">
<title>Node4&#45;&gt;Node5</title>
<path fill="none" stroke="#191970" d="M261.5,-56.2455C261.5,-48.9382 261.5,-38.6944 261.5,-29.7046"/>
<polygon fill="#191970" stroke="#191970" points="265.0001,-29.6426 261.5,-19.6427 258.0001,-29.6427 265.0001,-29.6426"/>
</g>
<!-- Node8 -->
<g id="node9" class="node">
<title>Node8</title>
<g id="a_node9"><a xlink:title=" ">
<polygon fill="#ffffff" stroke="#bfbfbf" points="0,-56.5 0,-75.5 119,-75.5 119,-56.5 0,-56.5"/>
<text text-anchor="middle" x="59.5" y="-63.5" font-family="'Consolas',monospace" font-size="10.00" fill="#000000">boost/version.hpp</text>
</a>
</g>
</g>
<!-- Node7&#45;&gt;Node8 -->
<g id="edge8" class="edge">
<title>Node7&#45;&gt;Node8</title>
<path fill="none" stroke="#191970" d="M135.4748,-112.2455C121.3592,-103.6534 100.5737,-91.0014 84.3101,-81.1018"/>
<polygon fill="#191970" stroke="#191970" points="85.7034,-77.8525 75.3415,-75.6427 82.0637,-83.8319 85.7034,-77.8525"/>
</g>
<!-- Node9 -->
<g id="node10" class="node">
<title>Node9</title>
<g id="a_node10"><a doxygen="/w/doc/cppreference-doxygen-web.tag.xml:http://en.cppreference.com/w/" xlink:href="http://en.cppreference.com/w/cpp/header/iosfwd.html" xlink:title=" ">
<polygon fill="#ffffff" stroke="#000000" points="137,-56.5 137,-75.5 190,-75.5 190,-56.5 137,-56.5"/>
<text text-anchor="middle" x="163.5" y="-63.5" font-family="'Consolas',monospace" font-size="10.00" fill="#000000">iosfwd</text>
</a>
</g>
</g>
<!-- Node7&#45;&gt;Node9 -->
<g id="edge9" class="edge">
<title>Node7&#45;&gt;Node9</title>
<path fill="none" stroke="#191970" d="M153.5902,-112.2455C155.1561,-104.9382 157.3512,-94.6944 159.2776,-85.7046"/>
<polygon fill="#191970" stroke="#191970" points="162.7607,-86.1541 161.4337,-75.6427 155.916,-84.6873 162.7607,-86.1541"/>
</g>
</g>
</svg>
