<?xml version="1.0" encoding="UTF-8" standalone="no"?>
<!DOCTYPE svg PUBLIC "-//W3C//DTD SVG 1.1//EN"
 "http://www.w3.org/Graphics/SVG/1.1/DTD/svg11.dtd">
<!-- Generated by graphviz version 12.1.0 (20240811.2233)
 -->
<!-- Title: jngl/Video.hpp Pages: 1 -->
<svg width="130pt" height="83pt"
 viewBox="0.00 0.00 130.00 82.50" xmlns="http://www.w3.org/2000/svg" xmlns:xlink="http://www.w3.org/1999/xlink">
<g id="graph0" class="graph" transform="scale(1 1) rotate(0) translate(4 78.5)">
<title>jngl/Video.hpp</title>
<!-- Node1 -->
<g id="Node000001" class="node">
<title>Node1</title>
<g id="a_Node000001"><a xlink:title=" ">
<polygon fill="#999999" stroke="#666666" points="111,-74.5 11,-74.5 11,-55.25 111,-55.25 111,-74.5"/>
<text text-anchor="middle" x="61" y="-61" font-family="ui-monospace,monospace" font-size="10.00">jngl/Video.hpp</text>
</a>
</g>
</g>
<!-- Node2 -->
<g id="Node000002" class="node">
<title>Node2</title>
<g id="a_Node000002"><a target="_parent" xlink:href="http://en.cppreference.com/w/cpp/header/memory.html" xlink:title=" ">
<polygon fill="white" stroke="#666666" points="52,-19.25 0,-19.25 0,0 52,0 52,-19.25"/>
<text text-anchor="middle" x="26" y="-5.75" font-family="ui-monospace,monospace" font-size="10.00">memory</text>
</a>
</g>
</g>
<!-- Node1&#45;&gt;Node2 -->
<g id="edge1_Node000001_Node000002" class="edge">
<title>Node1&#45;&gt;Node2</title>
<g id="a_edge1_Node000001_Node000002"><a xlink:title=" ">
<path fill="none" stroke="#63b8ff" d="M55.22,-55.08C50.59,-48.03 43.93,-37.9 38.13,-29.08"/>
<polygon fill="#63b8ff" stroke="#63b8ff" points="41.15,-27.31 32.74,-20.87 35.3,-31.15 41.15,-27.31"/>
</a>
</g>
</g>
<!-- Node3 -->
<g id="Node000003" class="node">
<title>Node3</title>
<g id="a_Node000003"><a target="_parent" xlink:href="http://en.cppreference.com/w/cpp/header/string.html" xlink:title=" ">
<polygon fill="white" stroke="#666666" points="122,-19.25 70,-19.25 70,0 122,0 122,-19.25"/>
<text text-anchor="middle" x="96" y="-5.75" font-family="ui-monospace,monospace" font-size="10.00">string</text>
</a>
</g>
</g>
<!-- Node1&#45;&gt;Node3 -->
<g id="edge2_Node000001_Node000003" class="edge">
<title>Node1&#45;&gt;Node3</title>
<g id="a_edge2_Node000001_Node000003"><a xlink:title=" ">
<path fill="none" stroke="#63b8ff" d="M66.78,-55.08C71.41,-48.03 78.07,-37.9 83.87,-29.08"/>
<polygon fill="#63b8ff" stroke="#63b8ff" points="86.7,-31.15 89.26,-20.87 80.85,-27.31 86.7,-31.15"/>
</a>
</g>
</g>
</g>
</svg>
