<?xml version="1.0" encoding="UTF-8" standalone="no"?>
<!DOCTYPE svg PUBLIC "-//W3C//DTD SVG 1.1//EN"
 "http://www.w3.org/Graphics/SVG/1.1/DTD/svg11.dtd">
<!-- Generated by graphviz version 2.40.1 (0)
 -->
<!-- Title: jngl/Video.hpp Pages: 1 -->
<svg width="643pt" height="252pt"
 viewBox="0.00 0.00 643.00 252.00" xmlns="http://www.w3.org/2000/svg" xmlns:xlink="http://www.w3.org/1999/xlink">
<g id="graph0" class="graph" transform="scale(1 1) rotate(0) translate(4 248)">
<title>jngl/Video.hpp</title>
<polygon fill="#ffffff" stroke="transparent" points="-4,4 -4,-248 639,-248 639,4 -4,4"/>
<!-- Node0 -->
<g id="node1" class="node">
<title>Node0</title>
<g id="a_node1"><a xlink:title=" ">
<polygon fill="#bfbfbf" stroke="#000000" points="534,-224.5 534,-243.5 635,-243.5 635,-224.5 534,-224.5"/>
<text text-anchor="middle" x="584.5" y="-231.5" font-family="'Consolas',monospace" font-size="10.00" fill="#000000">jngl/Video.hpp</text>
</a>
</g>
</g>
<!-- Node1 -->
<g id="node2" class="node">
<title>Node1</title>
<g id="a_node2"><a xlink:href="sprite_8hpp_source.html" target="_top" xlink:title=" ">
<polygon fill="#ffffff" stroke="#000000" points="351,-168.5 351,-187.5 428,-187.5 428,-168.5 351,-168.5"/>
<text text-anchor="middle" x="389.5" y="-175.5" font-family="'Consolas',monospace" font-size="10.00" fill="#000000">sprite.hpp</text>
</a>
</g>
</g>
<!-- Node0&#45;&gt;Node1 -->
<g id="edge1" class="edge">
<title>Node0&#45;&gt;Node1</title>
<path fill="none" stroke="#191970" d="M550.9783,-224.3733C518.1317,-214.9404 467.9405,-200.5265 432.2422,-190.2747"/>
<polygon fill="#191970" stroke="#191970" points="433.1619,-186.8974 422.5843,-187.5011 431.2297,-193.6255 433.1619,-186.8974"/>
</g>
<!-- Node5 -->
<g id="node6" class="node">
<title>Node5</title>
<g id="a_node6"><a doxygen="/w/doc/cppreference-doxygen-web.tag.xml:http://en.cppreference.com/w/" xlink:href="http://en.cppreference.com/w/cpp/header/memory.html" xlink:title=" ">
<polygon fill="#ffffff" stroke="#000000" points="503,-56.5 503,-75.5 556,-75.5 556,-56.5 503,-56.5"/>
<text text-anchor="middle" x="529.5" y="-63.5" font-family="'Consolas',monospace" font-size="10.00" fill="#000000">memory</text>
</a>
</g>
</g>
<!-- Node0&#45;&gt;Node5 -->
<g id="edge15" class="edge">
<title>Node0&#45;&gt;Node5</title>
<path fill="none" stroke="#191970" d="M592.0938,-224.4367C608.2014,-202.9086 642.5028,-149.5902 619.5,-112 607.8253,-92.9216 585.4642,-81.4378 565.9528,-74.7156"/>
<polygon fill="#191970" stroke="#191970" points="566.9622,-71.3641 556.3727,-71.7025 564.8619,-78.0416 566.9622,-71.3641"/>
</g>
<!-- Node11 -->
<g id="node12" class="node">
<title>Node11</title>
<g id="a_node12"><a doxygen="/w/doc/cppreference-doxygen-web.tag.xml:http://en.cppreference.com/w/" xlink:href="http://en.cppreference.com/w/cpp/header/string.html" xlink:title=" ">
<polygon fill="#ffffff" stroke="#000000" points="558,-112.5 558,-131.5 611,-131.5 611,-112.5 558,-112.5"/>
<text text-anchor="middle" x="584.5" y="-119.5" font-family="'Consolas',monospace" font-size="10.00" fill="#000000">string</text>
</a>
</g>
</g>
<!-- Node0&#45;&gt;Node11 -->
<g id="edge16" class="edge">
<title>Node0&#45;&gt;Node11</title>
<path fill="none" stroke="#191970" d="M584.5,-224.4509C584.5,-206.184 584.5,-165.9553 584.5,-141.6976"/>
<polygon fill="#191970" stroke="#191970" points="588.0001,-141.5249 584.5,-131.5249 581.0001,-141.5249 588.0001,-141.5249"/>
</g>
<!-- Node2 -->
<g id="node3" class="node">
<title>Node2</title>
<g id="a_node3"><a xlink:href="ShaderProgram_8hpp.html" target="_top" xlink:title=" ">
<polygon fill="#ffffff" stroke="#000000" points="382,-112.5 382,-131.5 501,-131.5 501,-112.5 382,-112.5"/>
<text text-anchor="middle" x="441.5" y="-119.5" font-family="'Consolas',monospace" font-size="10.00" fill="#000000">ShaderProgram.hpp</text>
</a>
</g>
</g>
<!-- Node1&#45;&gt;Node2 -->
<g id="edge2" class="edge">
<title>Node1&#45;&gt;Node2</title>
<path fill="none" stroke="#191970" d="M398.5577,-168.2455C406.0142,-160.2155 416.7634,-148.6394 425.6417,-139.0781"/>
<polygon fill="#191970" stroke="#191970" points="428.3063,-141.3522 432.5461,-131.6427 423.1768,-136.589 428.3063,-141.3522"/>
</g>
<!-- Node1&#45;&gt;Node5 -->
<g id="edge11" class="edge">
<title>Node1&#45;&gt;Node5</title>
<path fill="none" stroke="#191970" d="M428.262,-172.247C454.5682,-166.3966 488.2959,-154.7844 509.5,-132 521.085,-119.5515 525.9714,-100.6004 528.026,-86.1939"/>
<polygon fill="#191970" stroke="#191970" points="531.5516,-86.1424 529.1405,-75.8256 524.5917,-85.3942 531.5516,-86.1424"/>
</g>
<!-- Node6 -->
<g id="node7" class="node">
<title>Node6</title>
<g id="a_node7"><a xlink:href="Vec2_8hpp.html" target="_top" xlink:title=" ">
<polygon fill="#ffffff" stroke="#000000" points="82,-112.5 82,-131.5 147,-131.5 147,-112.5 82,-112.5"/>
<text text-anchor="middle" x="114.5" y="-119.5" font-family="'Consolas',monospace" font-size="10.00" fill="#000000">Vec2.hpp</text>
</a>
</g>
</g>
<!-- Node1&#45;&gt;Node6 -->
<g id="edge6" class="edge">
<title>Node1&#45;&gt;Node6</title>
<path fill="none" stroke="#191970" d="M350.8811,-170.9609C306.3959,-162.7306 230.88,-148.3869 157.0711,-132.2818"/>
<polygon fill="#191970" stroke="#191970" points="157.6607,-128.828 147.1428,-130.1023 156.1597,-135.6652 157.6607,-128.828"/>
</g>
<!-- Node9 -->
<g id="node10" class="node">
<title>Node9</title>
<g id="a_node10"><a xlink:href="drawable_8hpp_source.html" target="_top" xlink:title=" ">
<polygon fill="#ffffff" stroke="#000000" points="165,-112.5 165,-131.5 254,-131.5 254,-112.5 165,-112.5"/>
<text text-anchor="middle" x="209.5" y="-119.5" font-family="'Consolas',monospace" font-size="10.00" fill="#000000">drawable.hpp</text>
</a>
</g>
</g>
<!-- Node1&#45;&gt;Node9 -->
<g id="edge9" class="edge">
<title>Node1&#45;&gt;Node9</title>
<path fill="none" stroke="#191970" d="M358.5569,-168.3733C328.4961,-159.021 282.6974,-144.7725 249.8022,-134.5385"/>
<polygon fill="#191970" stroke="#191970" points="250.6277,-131.1299 240.0393,-131.5011 248.5481,-137.8139 250.6277,-131.1299"/>
</g>
<!-- Node10 -->
<g id="node11" class="node">
<title>Node10</title>
<g id="a_node11"><a xlink:href="dll_8hpp_source.html" target="_top" xlink:title=" ">
<polygon fill="#ffffff" stroke="#000000" points="238,-56.5 238,-75.5 297,-75.5 297,-56.5 238,-56.5"/>
<text text-anchor="middle" x="267.5" y="-63.5" font-family="'Consolas',monospace" font-size="10.00" fill="#000000">dll.hpp</text>
</a>
</g>
</g>
<!-- Node1&#45;&gt;Node10 -->
<g id="edge14" class="edge">
<title>Node1&#45;&gt;Node10</title>
<path fill="none" stroke="#191970" d="M361.336,-168.444C342.5333,-160.9211 318.2718,-148.8722 301.5,-132 288.4659,-118.8879 279.364,-99.7493 273.8797,-85.4539"/>
<polygon fill="#191970" stroke="#191970" points="277.0387,-83.8918 270.3858,-75.6463 270.4447,-86.241 277.0387,-83.8918"/>
</g>
<!-- Node1&#45;&gt;Node11 -->
<g id="edge12" class="edge">
<title>Node1&#45;&gt;Node11</title>
<path fill="none" stroke="#191970" d="M423.0217,-168.3733C457.8093,-158.383 512.0518,-142.8056 547.9277,-132.5028"/>
<polygon fill="#191970" stroke="#191970" points="549.3332,-135.7407 557.9786,-129.6164 547.401,-129.0127 549.3332,-135.7407"/>
</g>
<!-- Node12 -->
<g id="node13" class="node">
<title>Node12</title>
<g id="a_node13"><a doxygen="/w/doc/cppreference-doxygen-web.tag.xml:http://en.cppreference.com/w/" xlink:href="http://en.cppreference.com/w/cpp/header/vector.html" xlink:title=" ">
<polygon fill="#ffffff" stroke="#000000" points="311,-112.5 311,-131.5 364,-131.5 364,-112.5 311,-112.5"/>
<text text-anchor="middle" x="337.5" y="-119.5" font-family="'Consolas',monospace" font-size="10.00" fill="#000000">vector</text>
</a>
</g>
</g>
<!-- Node1&#45;&gt;Node12 -->
<g id="edge13" class="edge">
<title>Node1&#45;&gt;Node12</title>
<path fill="none" stroke="#191970" d="M380.4423,-168.2455C372.9858,-160.2155 362.2366,-148.6394 353.3583,-139.0781"/>
<polygon fill="#191970" stroke="#191970" points="355.8232,-136.589 346.4539,-131.6427 350.6937,-141.3522 355.8232,-136.589"/>
</g>
<!-- Node3 -->
<g id="node4" class="node">
<title>Node3</title>
<g id="a_node4"><a xlink:href="Finally_8hpp.html" target="_top" xlink:title=" ">
<polygon fill="#ffffff" stroke="#000000" points="400,-56.5 400,-75.5 483,-75.5 483,-56.5 400,-56.5"/>
<text text-anchor="middle" x="441.5" y="-63.5" font-family="'Consolas',monospace" font-size="10.00" fill="#000000">Finally.hpp</text>
</a>
</g>
</g>
<!-- Node2&#45;&gt;Node3 -->
<g id="edge3" class="edge">
<title>Node2&#45;&gt;Node3</title>
<path fill="none" stroke="#191970" d="M441.5,-112.2455C441.5,-104.9382 441.5,-94.6944 441.5,-85.7046"/>
<polygon fill="#191970" stroke="#191970" points="445.0001,-85.6426 441.5,-75.6427 438.0001,-85.6427 445.0001,-85.6426"/>
</g>
<!-- Node2&#45;&gt;Node5 -->
<g id="edge5" class="edge">
<title>Node2&#45;&gt;Node5</title>
<path fill="none" stroke="#191970" d="M456.8284,-112.2455C470.3303,-103.6534 490.2122,-91.0014 505.7686,-81.1018"/>
<polygon fill="#191970" stroke="#191970" points="507.7897,-83.9643 514.3472,-75.6427 504.0315,-78.0587 507.7897,-83.9643"/>
</g>
<!-- Node4 -->
<g id="node5" class="node">
<title>Node4</title>
<g id="a_node5"><a doxygen="/w/doc/cppreference-doxygen-web.tag.xml:http://en.cppreference.com/w/" xlink:href="http://en.cppreference.com/w/cpp/header/functional.html" xlink:title=" ">
<polygon fill="#ffffff" stroke="#000000" points="403,-.5 403,-19.5 480,-19.5 480,-.5 403,-.5"/>
<text text-anchor="middle" x="441.5" y="-7.5" font-family="'Consolas',monospace" font-size="10.00" fill="#000000">functional</text>
</a>
</g>
</g>
<!-- Node3&#45;&gt;Node4 -->
<g id="edge4" class="edge">
<title>Node3&#45;&gt;Node4</title>
<path fill="none" stroke="#191970" d="M441.5,-56.2455C441.5,-48.9382 441.5,-38.6944 441.5,-29.7046"/>
<polygon fill="#191970" stroke="#191970" points="445.0001,-29.6426 441.5,-19.6427 438.0001,-29.6427 445.0001,-29.6426"/>
</g>
<!-- Node7 -->
<g id="node8" class="node">
<title>Node7</title>
<g id="a_node8"><a xlink:title=" ">
<polygon fill="#ffffff" stroke="#bfbfbf" points="71,-56.5 71,-75.5 190,-75.5 190,-56.5 71,-56.5"/>
<text text-anchor="middle" x="130.5" y="-63.5" font-family="'Consolas',monospace" font-size="10.00" fill="#000000">boost/version.hpp</text>
</a>
</g>
</g>
<!-- Node6&#45;&gt;Node7 -->
<g id="edge7" class="edge">
<title>Node6&#45;&gt;Node7</title>
<path fill="none" stroke="#191970" d="M117.287,-112.2455C119.3977,-104.8579 122.366,-94.4689 124.9547,-85.4087"/>
<polygon fill="#191970" stroke="#191970" points="128.363,-86.2195 127.745,-75.6427 121.6323,-84.2964 128.363,-86.2195"/>
</g>
<!-- Node8 -->
<g id="node9" class="node">
<title>Node8</title>
<g id="a_node9"><a doxygen="/w/doc/cppreference-doxygen-web.tag.xml:http://en.cppreference.com/w/" xlink:href="http://en.cppreference.com/w/cpp/header/iosfwd.html" xlink:title=" ">
<polygon fill="#ffffff" stroke="#000000" points="0,-56.5 0,-75.5 53,-75.5 53,-56.5 0,-56.5"/>
<text text-anchor="middle" x="26.5" y="-63.5" font-family="'Consolas',monospace" font-size="10.00" fill="#000000">iosfwd</text>
</a>
</g>
</g>
<!-- Node6&#45;&gt;Node8 -->
<g id="edge8" class="edge">
<title>Node6&#45;&gt;Node8</title>
<path fill="none" stroke="#191970" d="M99.1716,-112.2455C85.6697,-103.6534 65.7878,-91.0014 50.2314,-81.1018"/>
<polygon fill="#191970" stroke="#191970" points="51.9685,-78.0587 41.6528,-75.6427 48.2103,-83.9643 51.9685,-78.0587"/>
</g>
<!-- Node9&#45;&gt;Node10 -->
<g id="edge10" class="edge">
<title>Node9&#45;&gt;Node10</title>
<path fill="none" stroke="#191970" d="M219.6028,-112.2455C228.0028,-104.1352 240.1494,-92.4075 250.1084,-82.7919"/>
<polygon fill="#191970" stroke="#191970" points="252.75,-85.1066 257.5129,-75.6427 247.8878,-80.0707 252.75,-85.1066"/>
</g>
</g>
</svg>
