<?xml version="1.0" encoding="UTF-8" standalone="no"?>
<!DOCTYPE svg PUBLIC "-//W3C//DTD SVG 1.1//EN"
 "http://www.w3.org/Graphics/SVG/1.1/DTD/svg11.dtd">
<!-- Generated by graphviz version 2.40.1 (0)
 -->
<!-- Title: jngl/Video.hpp Pages: 1 -->
<svg width="678pt" height="252pt"
 viewBox="0.00 0.00 678.00 252.00" xmlns="http://www.w3.org/2000/svg" xmlns:xlink="http://www.w3.org/1999/xlink">
<g id="graph0" class="graph" transform="scale(1 1) rotate(0) translate(4 248)">
<title>jngl/Video.hpp</title>
<polygon fill="#ffffff" stroke="transparent" points="-4,4 -4,-248 674,-248 674,4 -4,4"/>
<!-- Node0 -->
<g id="node1" class="node">
<title>Node0</title>
<g id="a_node1"><a xlink:title=" ">
<polygon fill="#bfbfbf" stroke="#000000" points="569,-224.5 569,-243.5 670,-243.5 670,-224.5 569,-224.5"/>
<text text-anchor="middle" x="619.5" y="-231.5" font-family="'Consolas',monospace" font-size="10.00" fill="#000000">jngl/Video.hpp</text>
</a>
</g>
</g>
<!-- Node1 -->
<g id="node2" class="node">
<title>Node1</title>
<g id="a_node2"><a xlink:href="sprite_8hpp_source.html" target="_top" xlink:title=" ">
<polygon fill="#ffffff" stroke="#000000" points="385,-168.5 385,-187.5 462,-187.5 462,-168.5 385,-168.5"/>
<text text-anchor="middle" x="423.5" y="-175.5" font-family="'Consolas',monospace" font-size="10.00" fill="#000000">sprite.hpp</text>
</a>
</g>
</g>
<!-- Node0&#45;&gt;Node1 -->
<g id="edge1" class="edge">
<title>Node0&#45;&gt;Node1</title>
<path fill="none" stroke="#191970" d="M585.8064,-224.3733C552.7913,-214.9404 502.3427,-200.5265 466.4614,-190.2747"/>
<polygon fill="#191970" stroke="#191970" points="467.3307,-186.8831 456.7539,-187.5011 465.4076,-193.6137 467.3307,-186.8831"/>
</g>
<!-- Node5 -->
<g id="node6" class="node">
<title>Node5</title>
<g id="a_node6"><a doxygen="/w/doc/cppreference-doxygen-web.tag.xml:http://en.cppreference.com/w/" xlink:href="http://en.cppreference.com/w/cpp/header/memory.html" xlink:title=" ">
<polygon fill="#ffffff" stroke="#000000" points="538,-56.5 538,-75.5 591,-75.5 591,-56.5 538,-56.5"/>
<text text-anchor="middle" x="564.5" y="-63.5" font-family="'Consolas',monospace" font-size="10.00" fill="#000000">memory</text>
</a>
</g>
</g>
<!-- Node0&#45;&gt;Node5 -->
<g id="edge14" class="edge">
<title>Node0&#45;&gt;Node5</title>
<path fill="none" stroke="#191970" d="M627.2358,-224.4411C643.65,-202.9223 678.6375,-149.6214 655.5,-112 643.6,-92.6507 620.7658,-81.1415 600.9488,-74.4742"/>
<polygon fill="#191970" stroke="#191970" points="601.817,-71.0797 591.2303,-71.4951 599.7654,-77.7723 601.817,-71.0797"/>
</g>
<!-- Node10 -->
<g id="node11" class="node">
<title>Node10</title>
<g id="a_node11"><a doxygen="/w/doc/cppreference-doxygen-web.tag.xml:http://en.cppreference.com/w/" xlink:href="http://en.cppreference.com/w/cpp/header/string.html" xlink:title=" ">
<polygon fill="#ffffff" stroke="#000000" points="593,-112.5 593,-131.5 646,-131.5 646,-112.5 593,-112.5"/>
<text text-anchor="middle" x="619.5" y="-119.5" font-family="'Consolas',monospace" font-size="10.00" fill="#000000">string</text>
</a>
</g>
</g>
<!-- Node0&#45;&gt;Node10 -->
<g id="edge15" class="edge">
<title>Node0&#45;&gt;Node10</title>
<path fill="none" stroke="#191970" d="M619.5,-224.4509C619.5,-206.184 619.5,-165.9553 619.5,-141.6976"/>
<polygon fill="#191970" stroke="#191970" points="623.0001,-141.5249 619.5,-131.5249 616.0001,-141.5249 623.0001,-141.5249"/>
</g>
<!-- Node2 -->
<g id="node3" class="node">
<title>Node2</title>
<g id="a_node3"><a xlink:href="ShaderProgram_8hpp.html" target="_top" xlink:title=" ">
<polygon fill="#ffffff" stroke="#000000" points="417,-112.5 417,-131.5 536,-131.5 536,-112.5 417,-112.5"/>
<text text-anchor="middle" x="476.5" y="-119.5" font-family="'Consolas',monospace" font-size="10.00" fill="#000000">ShaderProgram.hpp</text>
</a>
</g>
</g>
<!-- Node1&#45;&gt;Node2 -->
<g id="edge2" class="edge">
<title>Node1&#45;&gt;Node2</title>
<path fill="none" stroke="#191970" d="M432.7319,-168.2455C440.3317,-160.2155 451.2877,-148.6394 460.3368,-139.0781"/>
<polygon fill="#191970" stroke="#191970" points="463.0421,-141.3115 467.3739,-131.6427 457.958,-136.4998 463.0421,-141.3115"/>
</g>
<!-- Node1&#45;&gt;Node5 -->
<g id="edge10" class="edge">
<title>Node1&#45;&gt;Node5</title>
<path fill="none" stroke="#191970" d="M462.0101,-172.4556C488.6139,-166.6862 522.9567,-155.0848 544.5,-132 556.2171,-119.4445 561.0827,-100.2387 563.0962,-85.7767"/>
<polygon fill="#191970" stroke="#191970" points="566.5769,-86.1432 564.1463,-75.831 559.6156,-85.4082 566.5769,-86.1432"/>
</g>
<!-- Node6 -->
<g id="node7" class="node">
<title>Node6</title>
<g id="a_node7"><a xlink:href="Vec2_8hpp.html" target="_top" xlink:title=" ">
<polygon fill="#ffffff" stroke="#000000" points="79,-112.5 79,-131.5 144,-131.5 144,-112.5 79,-112.5"/>
<text text-anchor="middle" x="111.5" y="-119.5" font-family="'Consolas',monospace" font-size="10.00" fill="#000000">Vec2.hpp</text>
</a>
</g>
</g>
<!-- Node1&#45;&gt;Node6 -->
<g id="edge6" class="edge">
<title>Node1&#45;&gt;Node6</title>
<path fill="none" stroke="#191970" d="M384.7438,-172.3084C333.9043,-164.6478 241.7231,-150.0906 153.9738,-132.2046"/>
<polygon fill="#191970" stroke="#191970" points="154.6265,-128.7656 144.1264,-130.1792 153.2162,-135.6221 154.6265,-128.7656"/>
</g>
<!-- Node9 -->
<g id="node10" class="node">
<title>Node9</title>
<g id="a_node10"><a xlink:href="drawable_8hpp_source.html" target="_top" xlink:title=" ">
<polygon fill="#ffffff" stroke="#000000" points="162,-112.5 162,-131.5 251,-131.5 251,-112.5 162,-112.5"/>
<text text-anchor="middle" x="206.5" y="-119.5" font-family="'Consolas',monospace" font-size="10.00" fill="#000000">drawable.hpp</text>
</a>
</g>
</g>
<!-- Node1&#45;&gt;Node9 -->
<g id="edge9" class="edge">
<title>Node1&#45;&gt;Node9</title>
<path fill="none" stroke="#191970" d="M386.1964,-168.3733C349.3315,-158.8598 292.834,-144.2797 253.0494,-134.0127"/>
<polygon fill="#191970" stroke="#191970" points="253.8742,-130.611 243.3169,-131.5011 252.125,-137.3889 253.8742,-130.611"/>
</g>
<!-- Node1&#45;&gt;Node10 -->
<g id="edge11" class="edge">
<title>Node1&#45;&gt;Node10</title>
<path fill="none" stroke="#191970" d="M457.1936,-168.3733C492.3097,-158.3401 547.1486,-142.6718 583.2034,-132.3704"/>
<polygon fill="#191970" stroke="#191970" points="584.1889,-135.729 592.8426,-129.6164 582.2658,-128.9983 584.1889,-135.729"/>
</g>
<!-- Node11 -->
<g id="node12" class="node">
<title>Node11</title>
<g id="a_node12"><a doxygen="/w/doc/cppreference-doxygen-web.tag.xml:http://en.cppreference.com/w/" xlink:href="http://en.cppreference.com/w/cpp/header/vector.html" xlink:title=" ">
<polygon fill="#ffffff" stroke="#000000" points="269,-112.5 269,-131.5 322,-131.5 322,-112.5 269,-112.5"/>
<text text-anchor="middle" x="295.5" y="-119.5" font-family="'Consolas',monospace" font-size="10.00" fill="#000000">vector</text>
</a>
</g>
</g>
<!-- Node1&#45;&gt;Node11 -->
<g id="edge12" class="edge">
<title>Node1&#45;&gt;Node11</title>
<path fill="none" stroke="#191970" d="M401.496,-168.3733C380.8565,-159.3435 349.7842,-145.7494 326.6111,-135.6111"/>
<polygon fill="#191970" stroke="#191970" points="327.7813,-132.3028 317.2169,-131.5011 324.9755,-138.7159 327.7813,-132.3028"/>
</g>
<!-- Node12 -->
<g id="node13" class="node">
<title>Node12</title>
<g id="a_node13"><a xlink:href="dll_8hpp_source.html" target="_top" xlink:title=" ">
<polygon fill="#ffffff" stroke="#000000" points="340,-112.5 340,-131.5 399,-131.5 399,-112.5 340,-112.5"/>
<text text-anchor="middle" x="369.5" y="-119.5" font-family="'Consolas',monospace" font-size="10.00" fill="#000000">dll.hpp</text>
</a>
</g>
</g>
<!-- Node1&#45;&gt;Node12 -->
<g id="edge13" class="edge">
<title>Node1&#45;&gt;Node12</title>
<path fill="none" stroke="#191970" d="M414.0939,-168.2455C406.3507,-160.2155 395.188,-148.6394 385.9682,-139.0781"/>
<polygon fill="#191970" stroke="#191970" points="388.2591,-136.4117 378.7983,-131.6427 383.2202,-141.2706 388.2591,-136.4117"/>
</g>
<!-- Node3 -->
<g id="node4" class="node">
<title>Node3</title>
<g id="a_node4"><a xlink:href="Finally_8hpp.html" target="_top" xlink:title=" ">
<polygon fill="#ffffff" stroke="#000000" points="435,-56.5 435,-75.5 518,-75.5 518,-56.5 435,-56.5"/>
<text text-anchor="middle" x="476.5" y="-63.5" font-family="'Consolas',monospace" font-size="10.00" fill="#000000">Finally.hpp</text>
</a>
</g>
</g>
<!-- Node2&#45;&gt;Node3 -->
<g id="edge3" class="edge">
<title>Node2&#45;&gt;Node3</title>
<path fill="none" stroke="#191970" d="M476.5,-112.2455C476.5,-104.9382 476.5,-94.6944 476.5,-85.7046"/>
<polygon fill="#191970" stroke="#191970" points="480.0001,-85.6426 476.5,-75.6427 473.0001,-85.6427 480.0001,-85.6426"/>
</g>
<!-- Node2&#45;&gt;Node5 -->
<g id="edge5" class="edge">
<title>Node2&#45;&gt;Node5</title>
<path fill="none" stroke="#191970" d="M491.8284,-112.2455C505.3303,-103.6534 525.2122,-91.0014 540.7686,-81.1018"/>
<polygon fill="#191970" stroke="#191970" points="542.7897,-83.9643 549.3472,-75.6427 539.0315,-78.0587 542.7897,-83.9643"/>
</g>
<!-- Node4 -->
<g id="node5" class="node">
<title>Node4</title>
<g id="a_node5"><a doxygen="/w/doc/cppreference-doxygen-web.tag.xml:http://en.cppreference.com/w/" xlink:href="http://en.cppreference.com/w/cpp/header/functional.html" xlink:title=" ">
<polygon fill="#ffffff" stroke="#000000" points="438,-.5 438,-19.5 515,-19.5 515,-.5 438,-.5"/>
<text text-anchor="middle" x="476.5" y="-7.5" font-family="'Consolas',monospace" font-size="10.00" fill="#000000">functional</text>
</a>
</g>
</g>
<!-- Node3&#45;&gt;Node4 -->
<g id="edge4" class="edge">
<title>Node3&#45;&gt;Node4</title>
<path fill="none" stroke="#191970" d="M476.5,-56.2455C476.5,-48.9382 476.5,-38.6944 476.5,-29.7046"/>
<polygon fill="#191970" stroke="#191970" points="480.0001,-29.6426 476.5,-19.6427 473.0001,-29.6427 480.0001,-29.6426"/>
</g>
<!-- Node7 -->
<g id="node8" class="node">
<title>Node7</title>
<g id="a_node8"><a xlink:title=" ">
<polygon fill="#ffffff" stroke="#bfbfbf" points="0,-56.5 0,-75.5 119,-75.5 119,-56.5 0,-56.5"/>
<text text-anchor="middle" x="59.5" y="-63.5" font-family="'Consolas',monospace" font-size="10.00" fill="#000000">boost/version.hpp</text>
</a>
</g>
</g>
<!-- Node6&#45;&gt;Node7 -->
<g id="edge7" class="edge">
<title>Node6&#45;&gt;Node7</title>
<path fill="none" stroke="#191970" d="M102.4423,-112.2455C94.9858,-104.2155 84.2366,-92.6394 75.3583,-83.0781"/>
<polygon fill="#191970" stroke="#191970" points="77.8232,-80.589 68.4539,-75.6427 72.6937,-85.3522 77.8232,-80.589"/>
</g>
<!-- Node8 -->
<g id="node9" class="node">
<title>Node8</title>
<g id="a_node9"><a doxygen="/w/doc/cppreference-doxygen-web.tag.xml:http://en.cppreference.com/w/" xlink:href="http://en.cppreference.com/w/cpp/header/iosfwd.html" xlink:title=" ">
<polygon fill="#ffffff" stroke="#000000" points="137,-56.5 137,-75.5 190,-75.5 190,-56.5 137,-56.5"/>
<text text-anchor="middle" x="163.5" y="-63.5" font-family="'Consolas',monospace" font-size="10.00" fill="#000000">iosfwd</text>
</a>
</g>
</g>
<!-- Node6&#45;&gt;Node8 -->
<g id="edge8" class="edge">
<title>Node6&#45;&gt;Node8</title>
<path fill="none" stroke="#191970" d="M120.5577,-112.2455C128.0142,-104.2155 138.7634,-92.6394 147.6417,-83.0781"/>
<polygon fill="#191970" stroke="#191970" points="150.3063,-85.3522 154.5461,-75.6427 145.1768,-80.589 150.3063,-85.3522"/>
</g>
</g>
</svg>
