<?xml version="1.0" encoding="UTF-8" standalone="no"?>
<!DOCTYPE svg PUBLIC "-//W3C//DTD SVG 1.1//EN"
 "http://www.w3.org/Graphics/SVG/1.1/DTD/svg11.dtd">
<!-- Generated by graphviz version 2.40.1 (0)
 -->
<!-- Title: jngl/Video.hpp Pages: 1 -->
<svg width="506pt" height="252pt"
 viewBox="0.00 0.00 506.00 252.00" xmlns="http://www.w3.org/2000/svg" xmlns:xlink="http://www.w3.org/1999/xlink">
<g id="graph0" class="graph" transform="scale(1 1) rotate(0) translate(4 248)">
<title>jngl/Video.hpp</title>
<polygon fill="#ffffff" stroke="transparent" points="-4,4 -4,-248 502,-248 502,4 -4,4"/>
<!-- Node0 -->
<g id="node1" class="node">
<title>Node0</title>
<g id="a_node1"><a xlink:title=" ">
<polygon fill="#bfbfbf" stroke="#000000" points="366,-224.5 366,-243.5 467,-243.5 467,-224.5 366,-224.5"/>
<text text-anchor="middle" x="416.5" y="-231.5" font-family="'Consolas',monospace" font-size="10.00" fill="#000000">jngl/Video.hpp</text>
</a>
</g>
</g>
<!-- Node1 -->
<g id="node2" class="node">
<title>Node1</title>
<g id="a_node2"><a xlink:href="sprite_8hpp_source.html" target="_top" xlink:title=" ">
<polygon fill="#ffffff" stroke="#000000" points="229,-168.5 229,-187.5 306,-187.5 306,-168.5 229,-168.5"/>
<text text-anchor="middle" x="267.5" y="-175.5" font-family="'Consolas',monospace" font-size="10.00" fill="#000000">sprite.hpp</text>
</a>
</g>
</g>
<!-- Node0&#45;&gt;Node1 -->
<g id="edge1" class="edge">
<title>Node0&#45;&gt;Node1</title>
<path fill="none" stroke="#191970" d="M390.886,-224.3733C366.4313,-215.1822 329.3946,-201.2624 302.2791,-191.0713"/>
<polygon fill="#191970" stroke="#191970" points="303.3719,-187.7431 292.7798,-187.5011 300.9091,-194.2956 303.3719,-187.7431"/>
</g>
<!-- Node5 -->
<g id="node6" class="node">
<title>Node5</title>
<g id="a_node6"><a doxygen="/w/doc/cppreference-doxygen-web.tag.xml:http://en.cppreference.com/w/" xlink:href="http://en.cppreference.com/w/cpp/header/memory.html" xlink:title=" ">
<polygon fill="#ffffff" stroke="#000000" points="389,-56.5 389,-75.5 442,-75.5 442,-56.5 389,-56.5"/>
<text text-anchor="middle" x="415.5" y="-63.5" font-family="'Consolas',monospace" font-size="10.00" fill="#000000">memory</text>
</a>
</g>
</g>
<!-- Node0&#45;&gt;Node5 -->
<g id="edge10" class="edge">
<title>Node0&#45;&gt;Node5</title>
<path fill="none" stroke="#191970" d="M416.4434,-224.4862C416.2853,-197.9293 415.8367,-122.5651 415.62,-86.1655"/>
<polygon fill="#191970" stroke="#191970" points="419.1181,-85.8068 415.5585,-75.8279 412.1182,-85.8486 419.1181,-85.8068"/>
</g>
<!-- Node10 -->
<g id="node11" class="node">
<title>Node10</title>
<g id="a_node11"><a doxygen="/w/doc/cppreference-doxygen-web.tag.xml:http://en.cppreference.com/w/" xlink:href="http://en.cppreference.com/w/cpp/header/string.html" xlink:title=" ">
<polygon fill="#ffffff" stroke="#000000" points="445,-168.5 445,-187.5 498,-187.5 498,-168.5 445,-168.5"/>
<text text-anchor="middle" x="471.5" y="-175.5" font-family="'Consolas',monospace" font-size="10.00" fill="#000000">string</text>
</a>
</g>
</g>
<!-- Node0&#45;&gt;Node10 -->
<g id="edge11" class="edge">
<title>Node0&#45;&gt;Node10</title>
<path fill="none" stroke="#191970" d="M426.0803,-224.2455C434.0458,-216.1352 445.5641,-204.4075 455.0079,-194.7919"/>
<polygon fill="#191970" stroke="#191970" points="457.5195,-197.2297 462.0295,-187.6427 452.5253,-192.3247 457.5195,-197.2297"/>
</g>
<!-- Node2 -->
<g id="node3" class="node">
<title>Node2</title>
<g id="a_node3"><a xlink:href="ShaderProgram_8hpp.html" target="_top" xlink:title=" ">
<polygon fill="#ffffff" stroke="#000000" points="269,-112.5 269,-131.5 388,-131.5 388,-112.5 269,-112.5"/>
<text text-anchor="middle" x="328.5" y="-119.5" font-family="'Consolas',monospace" font-size="10.00" fill="#000000">ShaderProgram.hpp</text>
</a>
</g>
</g>
<!-- Node1&#45;&gt;Node2 -->
<g id="edge2" class="edge">
<title>Node1&#45;&gt;Node2</title>
<path fill="none" stroke="#191970" d="M278.1254,-168.2455C287.0473,-160.0549 299.988,-148.1749 310.5192,-138.5069"/>
<polygon fill="#191970" stroke="#191970" points="312.9968,-140.9837 317.9964,-131.6427 308.2629,-135.8271 312.9968,-140.9837"/>
</g>
<!-- Node6 -->
<g id="node7" class="node">
<title>Node6</title>
<g id="a_node7"><a xlink:href="Vec2_8hpp.html" target="_top" xlink:title=" ">
<polygon fill="#ffffff" stroke="#000000" points="79,-112.5 79,-131.5 144,-131.5 144,-112.5 79,-112.5"/>
<text text-anchor="middle" x="111.5" y="-119.5" font-family="'Consolas',monospace" font-size="10.00" fill="#000000">Vec2.hpp</text>
</a>
</g>
</g>
<!-- Node1&#45;&gt;Node6 -->
<g id="edge6" class="edge">
<title>Node1&#45;&gt;Node6</title>
<path fill="none" stroke="#191970" d="M240.6826,-168.3733C214.9668,-159.1419 175.962,-145.1402 147.5401,-134.9375"/>
<polygon fill="#191970" stroke="#191970" points="148.5619,-131.5857 137.9674,-131.5011 146.1968,-138.174 148.5619,-131.5857"/>
</g>
<!-- Node9 -->
<g id="node10" class="node">
<title>Node9</title>
<g id="a_node10"><a xlink:href="Drawable_8hpp_source.html" target="_top" xlink:title=" ">
<polygon fill="#ffffff" stroke="#000000" points="162,-112.5 162,-131.5 251,-131.5 251,-112.5 162,-112.5"/>
<text text-anchor="middle" x="206.5" y="-119.5" font-family="'Consolas',monospace" font-size="10.00" fill="#000000">Drawable.hpp</text>
</a>
</g>
</g>
<!-- Node1&#45;&gt;Node9 -->
<g id="edge9" class="edge">
<title>Node1&#45;&gt;Node9</title>
<path fill="none" stroke="#191970" d="M256.8746,-168.2455C247.9527,-160.0549 235.012,-148.1749 224.4808,-138.5069"/>
<polygon fill="#191970" stroke="#191970" points="226.7371,-135.8271 217.0036,-131.6427 222.0032,-140.9837 226.7371,-135.8271"/>
</g>
<!-- Node3 -->
<g id="node4" class="node">
<title>Node3</title>
<g id="a_node4"><a xlink:href="Finally_8hpp.html" target="_top" xlink:title=" ">
<polygon fill="#ffffff" stroke="#000000" points="287,-56.5 287,-75.5 370,-75.5 370,-56.5 287,-56.5"/>
<text text-anchor="middle" x="328.5" y="-63.5" font-family="'Consolas',monospace" font-size="10.00" fill="#000000">Finally.hpp</text>
</a>
</g>
</g>
<!-- Node2&#45;&gt;Node3 -->
<g id="edge3" class="edge">
<title>Node2&#45;&gt;Node3</title>
<path fill="none" stroke="#191970" d="M328.5,-112.2455C328.5,-104.9382 328.5,-94.6944 328.5,-85.7046"/>
<polygon fill="#191970" stroke="#191970" points="332.0001,-85.6426 328.5,-75.6427 325.0001,-85.6427 332.0001,-85.6426"/>
</g>
<!-- Node2&#45;&gt;Node5 -->
<g id="edge5" class="edge">
<title>Node2&#45;&gt;Node5</title>
<path fill="none" stroke="#191970" d="M343.6542,-112.2455C357.0027,-103.6534 376.6586,-91.0014 392.0383,-81.1018"/>
<polygon fill="#191970" stroke="#191970" points="394.0051,-83.9982 400.5194,-75.6427 390.2164,-78.1121 394.0051,-83.9982"/>
</g>
<!-- Node4 -->
<g id="node5" class="node">
<title>Node4</title>
<g id="a_node5"><a doxygen="/w/doc/cppreference-doxygen-web.tag.xml:http://en.cppreference.com/w/" xlink:href="http://en.cppreference.com/w/cpp/header/functional.html" xlink:title=" ">
<polygon fill="#ffffff" stroke="#000000" points="290,-.5 290,-19.5 367,-19.5 367,-.5 290,-.5"/>
<text text-anchor="middle" x="328.5" y="-7.5" font-family="'Consolas',monospace" font-size="10.00" fill="#000000">functional</text>
</a>
</g>
</g>
<!-- Node3&#45;&gt;Node4 -->
<g id="edge4" class="edge">
<title>Node3&#45;&gt;Node4</title>
<path fill="none" stroke="#191970" d="M328.5,-56.2455C328.5,-48.9382 328.5,-38.6944 328.5,-29.7046"/>
<polygon fill="#191970" stroke="#191970" points="332.0001,-29.6426 328.5,-19.6427 325.0001,-29.6427 332.0001,-29.6426"/>
</g>
<!-- Node7 -->
<g id="node8" class="node">
<title>Node7</title>
<g id="a_node8"><a xlink:title=" ">
<polygon fill="#ffffff" stroke="#bfbfbf" points="0,-56.5 0,-75.5 119,-75.5 119,-56.5 0,-56.5"/>
<text text-anchor="middle" x="59.5" y="-63.5" font-family="'Consolas',monospace" font-size="10.00" fill="#000000">boost/version.hpp</text>
</a>
</g>
</g>
<!-- Node6&#45;&gt;Node7 -->
<g id="edge7" class="edge">
<title>Node6&#45;&gt;Node7</title>
<path fill="none" stroke="#191970" d="M102.4423,-112.2455C94.9858,-104.2155 84.2366,-92.6394 75.3583,-83.0781"/>
<polygon fill="#191970" stroke="#191970" points="77.8232,-80.589 68.4539,-75.6427 72.6937,-85.3522 77.8232,-80.589"/>
</g>
<!-- Node8 -->
<g id="node9" class="node">
<title>Node8</title>
<g id="a_node9"><a doxygen="/w/doc/cppreference-doxygen-web.tag.xml:http://en.cppreference.com/w/" xlink:href="http://en.cppreference.com/w/cpp/header/iosfwd.html" xlink:title=" ">
<polygon fill="#ffffff" stroke="#000000" points="137,-56.5 137,-75.5 190,-75.5 190,-56.5 137,-56.5"/>
<text text-anchor="middle" x="163.5" y="-63.5" font-family="'Consolas',monospace" font-size="10.00" fill="#000000">iosfwd</text>
</a>
</g>
</g>
<!-- Node6&#45;&gt;Node8 -->
<g id="edge8" class="edge">
<title>Node6&#45;&gt;Node8</title>
<path fill="none" stroke="#191970" d="M120.5577,-112.2455C128.0142,-104.2155 138.7634,-92.6394 147.6417,-83.0781"/>
<polygon fill="#191970" stroke="#191970" points="150.3063,-85.3522 154.5461,-75.6427 145.1768,-80.589 150.3063,-85.3522"/>
</g>
</g>
</svg>
