<?xml version="1.0" encoding="UTF-8" standalone="no"?>
<!DOCTYPE svg PUBLIC "-//W3C//DTD SVG 1.1//EN"
 "http://www.w3.org/Graphics/SVG/1.1/DTD/svg11.dtd">
<!-- Generated by graphviz version 2.40.1 (0)
 -->
<!-- Title: jngl/Video.hpp Pages: 1 -->
<svg width="537pt" height="252pt"
 viewBox="0.00 0.00 536.60 252.00" xmlns="http://www.w3.org/2000/svg" xmlns:xlink="http://www.w3.org/1999/xlink">
<g id="graph0" class="graph" transform="scale(1 1) rotate(0) translate(4 248)">
<title>jngl/Video.hpp</title>
<polygon fill="#ffffff" stroke="transparent" points="-4,4 -4,-248 532.5978,-248 532.5978,4 -4,4"/>
<!-- Node0 -->
<g id="node1" class="node">
<title>Node0</title>
<g id="a_node1"><a xlink:title=" ">
<polygon fill="#bfbfbf" stroke="#000000" points="427.5978,-224.5 427.5978,-243.5 528.5978,-243.5 528.5978,-224.5 427.5978,-224.5"/>
<text text-anchor="middle" x="478.0978" y="-231.5" font-family="'Consolas',monospace" font-size="10.00" fill="#000000">jngl/Video.hpp</text>
</a>
</g>
</g>
<!-- Node1 -->
<g id="node2" class="node">
<title>Node1</title>
<g id="a_node2"><a xlink:href="sprite_8hpp_source.html" target="_top" xlink:title=" ">
<polygon fill="#ffffff" stroke="#000000" points="244.5978,-168.5 244.5978,-187.5 321.5978,-187.5 321.5978,-168.5 244.5978,-168.5"/>
<text text-anchor="middle" x="283.0978" y="-175.5" font-family="'Consolas',monospace" font-size="10.00" fill="#000000">sprite.hpp</text>
</a>
</g>
</g>
<!-- Node0&#45;&gt;Node1 -->
<g id="edge1" class="edge">
<title>Node0&#45;&gt;Node1</title>
<path fill="none" stroke="#191970" d="M444.5761,-224.3733C411.7295,-214.9404 361.5383,-200.5265 325.8401,-190.2747"/>
<polygon fill="#191970" stroke="#191970" points="326.7597,-186.8974 316.1821,-187.5011 324.8275,-193.6255 326.7597,-186.8974"/>
</g>
<!-- Node5 -->
<g id="node6" class="node">
<title>Node5</title>
<g id="a_node6"><a doxygen="/w/doc/cppreference-doxygen-web.tag.xml:http://en.cppreference.com/w/" xlink:href="http://en.cppreference.com/w/cpp/header/memory.html" xlink:title=" ">
<polygon fill="#ffffff" stroke="#000000" points="396.5978,-56.5 396.5978,-75.5 449.5978,-75.5 449.5978,-56.5 396.5978,-56.5"/>
<text text-anchor="middle" x="423.0978" y="-63.5" font-family="'Consolas',monospace" font-size="10.00" fill="#000000">memory</text>
</a>
</g>
</g>
<!-- Node0&#45;&gt;Node5 -->
<g id="edge16" class="edge">
<title>Node0&#45;&gt;Node5</title>
<path fill="none" stroke="#191970" d="M485.8336,-224.4411C502.2478,-202.9223 537.2353,-149.6214 514.0978,-112 502.1979,-92.6507 479.3636,-81.1415 459.5467,-74.4742"/>
<polygon fill="#191970" stroke="#191970" points="460.4148,-71.0797 449.8281,-71.4951 458.3632,-77.7723 460.4148,-71.0797"/>
</g>
<!-- Node11 -->
<g id="node12" class="node">
<title>Node11</title>
<g id="a_node12"><a doxygen="/w/doc/cppreference-doxygen-web.tag.xml:http://en.cppreference.com/w/" xlink:href="http://en.cppreference.com/w/cpp/header/string.html" xlink:title=" ">
<polygon fill="#ffffff" stroke="#000000" points="451.5978,-112.5 451.5978,-131.5 504.5978,-131.5 504.5978,-112.5 451.5978,-112.5"/>
<text text-anchor="middle" x="478.0978" y="-119.5" font-family="'Consolas',monospace" font-size="10.00" fill="#000000">string</text>
</a>
</g>
</g>
<!-- Node0&#45;&gt;Node11 -->
<g id="edge17" class="edge">
<title>Node0&#45;&gt;Node11</title>
<path fill="none" stroke="#191970" d="M478.0978,-224.4509C478.0978,-206.184 478.0978,-165.9553 478.0978,-141.6976"/>
<polygon fill="#191970" stroke="#191970" points="481.5979,-141.5249 478.0978,-131.5249 474.5979,-141.5249 481.5979,-141.5249"/>
</g>
<!-- Node2 -->
<g id="node3" class="node">
<title>Node2</title>
<g id="a_node3"><a xlink:href="ShaderProgram_8hpp.html" target="_top" xlink:title=" ">
<polygon fill="#ffffff" stroke="#000000" points="275.5978,-112.5 275.5978,-131.5 394.5978,-131.5 394.5978,-112.5 275.5978,-112.5"/>
<text text-anchor="middle" x="335.0978" y="-119.5" font-family="'Consolas',monospace" font-size="10.00" fill="#000000">ShaderProgram.hpp</text>
</a>
</g>
</g>
<!-- Node1&#45;&gt;Node2 -->
<g id="edge2" class="edge">
<title>Node1&#45;&gt;Node2</title>
<path fill="none" stroke="#191970" d="M292.1555,-168.2455C299.612,-160.2155 310.3613,-148.6394 319.2396,-139.0781"/>
<polygon fill="#191970" stroke="#191970" points="321.9042,-141.3522 326.1439,-131.6427 316.7746,-136.589 321.9042,-141.3522"/>
</g>
<!-- Node1&#45;&gt;Node5 -->
<g id="edge12" class="edge">
<title>Node1&#45;&gt;Node5</title>
<path fill="none" stroke="#191970" d="M321.8598,-172.247C348.166,-166.3966 381.8938,-154.7844 403.0978,-132 414.6829,-119.5515 419.5692,-100.6004 421.6238,-86.1939"/>
<polygon fill="#191970" stroke="#191970" points="425.1494,-86.1424 422.7383,-75.8256 418.1895,-85.3942 425.1494,-86.1424"/>
</g>
<!-- Node6 -->
<g id="node7" class="node">
<title>Node6</title>
<g id="a_node7"><a xlink:href="Vec2_8hpp.html" target="_top" xlink:title=" ">
<polygon fill="#ffffff" stroke="#000000" points="121.5978,-112.5 121.5978,-131.5 186.5978,-131.5 186.5978,-112.5 121.5978,-112.5"/>
<text text-anchor="middle" x="154.0978" y="-119.5" font-family="'Consolas',monospace" font-size="10.00" fill="#000000">Vec2.hpp</text>
</a>
</g>
</g>
<!-- Node1&#45;&gt;Node6 -->
<g id="edge6" class="edge">
<title>Node1&#45;&gt;Node6</title>
<path fill="none" stroke="#191970" d="M260.9219,-168.3733C240.1212,-159.3435 208.8062,-145.7494 185.452,-135.6111"/>
<polygon fill="#191970" stroke="#191970" points="186.5511,-132.2727 175.9844,-131.5011 183.7636,-138.6938 186.5511,-132.2727"/>
</g>
<!-- Node7 -->
<g id="node8" class="node">
<title>Node7</title>
<g id="a_node8"><a xlink:href="dll_8hpp_source.html" target="_top" xlink:title=" ">
<polygon fill="#ffffff" stroke="#000000" points="9.5978,-56.5 9.5978,-75.5 68.5978,-75.5 68.5978,-56.5 9.5978,-56.5"/>
<text text-anchor="middle" x="39.0978" y="-63.5" font-family="'Consolas',monospace" font-size="10.00" fill="#000000">dll.hpp</text>
</a>
</g>
</g>
<!-- Node1&#45;&gt;Node7 -->
<g id="edge15" class="edge">
<title>Node1&#45;&gt;Node7</title>
<path fill="none" stroke="#191970" d="M244.4974,-174.3686C171.7903,-167.1374 20.4247,-150.0714 5.0978,-132 -7.4938,-117.1536 6.6059,-96.853 20.2856,-82.7012"/>
<polygon fill="#191970" stroke="#191970" points="22.9243,-85.0179 27.67,-75.5454 18.0529,-79.991 22.9243,-85.0179"/>
</g>
<!-- Node10 -->
<g id="node11" class="node">
<title>Node10</title>
<g id="a_node11"><a xlink:href="drawable_8hpp_source.html" target="_top" xlink:title=" ">
<polygon fill="#ffffff" stroke="#000000" points="14.5978,-112.5 14.5978,-131.5 103.5978,-131.5 103.5978,-112.5 14.5978,-112.5"/>
<text text-anchor="middle" x="59.0978" y="-119.5" font-family="'Consolas',monospace" font-size="10.00" fill="#000000">drawable.hpp</text>
</a>
</g>
</g>
<!-- Node1&#45;&gt;Node10 -->
<g id="edge10" class="edge">
<title>Node1&#45;&gt;Node10</title>
<path fill="none" stroke="#191970" d="M244.8454,-168.4369C206.7511,-158.9133 148.1666,-144.2672 106.9991,-133.9753"/>
<polygon fill="#191970" stroke="#191970" points="107.7428,-130.5536 97.1925,-131.5237 106.045,-137.3446 107.7428,-130.5536"/>
</g>
<!-- Node1&#45;&gt;Node11 -->
<g id="edge13" class="edge">
<title>Node1&#45;&gt;Node11</title>
<path fill="none" stroke="#191970" d="M316.6195,-168.3733C351.4071,-158.383 405.6496,-142.8056 441.5255,-132.5028"/>
<polygon fill="#191970" stroke="#191970" points="442.9311,-135.7407 451.5765,-129.6164 440.9989,-129.0127 442.9311,-135.7407"/>
</g>
<!-- Node12 -->
<g id="node13" class="node">
<title>Node12</title>
<g id="a_node13"><a doxygen="/w/doc/cppreference-doxygen-web.tag.xml:http://en.cppreference.com/w/" xlink:href="http://en.cppreference.com/w/cpp/header/vector.html" xlink:title=" ">
<polygon fill="#ffffff" stroke="#000000" points="204.5978,-112.5 204.5978,-131.5 257.5978,-131.5 257.5978,-112.5 204.5978,-112.5"/>
<text text-anchor="middle" x="231.0978" y="-119.5" font-family="'Consolas',monospace" font-size="10.00" fill="#000000">vector</text>
</a>
</g>
</g>
<!-- Node1&#45;&gt;Node12 -->
<g id="edge14" class="edge">
<title>Node1&#45;&gt;Node12</title>
<path fill="none" stroke="#191970" d="M274.0401,-168.2455C266.5837,-160.2155 255.8344,-148.6394 246.9561,-139.0781"/>
<polygon fill="#191970" stroke="#191970" points="249.4211,-136.589 240.0517,-131.6427 244.2915,-141.3522 249.4211,-136.589"/>
</g>
<!-- Node3 -->
<g id="node4" class="node">
<title>Node3</title>
<g id="a_node4"><a xlink:href="Finally_8hpp.html" target="_top" xlink:title=" ">
<polygon fill="#ffffff" stroke="#000000" points="294.5978,-56.5 294.5978,-75.5 377.5978,-75.5 377.5978,-56.5 294.5978,-56.5"/>
<text text-anchor="middle" x="336.0978" y="-63.5" font-family="'Consolas',monospace" font-size="10.00" fill="#000000">Finally.hpp</text>
</a>
</g>
</g>
<!-- Node2&#45;&gt;Node3 -->
<g id="edge3" class="edge">
<title>Node2&#45;&gt;Node3</title>
<path fill="none" stroke="#191970" d="M335.272,-112.2455C335.4025,-104.9382 335.5854,-94.6944 335.746,-85.7046"/>
<polygon fill="#191970" stroke="#191970" points="339.2464,-85.7036 335.9256,-75.6427 332.2476,-85.5786 339.2464,-85.7036"/>
</g>
<!-- Node2&#45;&gt;Node5 -->
<g id="edge5" class="edge">
<title>Node2&#45;&gt;Node5</title>
<path fill="none" stroke="#191970" d="M350.4263,-112.2455C363.9282,-103.6534 383.81,-91.0014 399.3664,-81.1018"/>
<polygon fill="#191970" stroke="#191970" points="401.3875,-83.9643 407.9451,-75.6427 397.6294,-78.0587 401.3875,-83.9643"/>
</g>
<!-- Node4 -->
<g id="node5" class="node">
<title>Node4</title>
<g id="a_node5"><a doxygen="/w/doc/cppreference-doxygen-web.tag.xml:http://en.cppreference.com/w/" xlink:href="http://en.cppreference.com/w/cpp/header/functional.html" xlink:title=" ">
<polygon fill="#ffffff" stroke="#000000" points="297.5978,-.5 297.5978,-19.5 374.5978,-19.5 374.5978,-.5 297.5978,-.5"/>
<text text-anchor="middle" x="336.0978" y="-7.5" font-family="'Consolas',monospace" font-size="10.00" fill="#000000">functional</text>
</a>
</g>
</g>
<!-- Node3&#45;&gt;Node4 -->
<g id="edge4" class="edge">
<title>Node3&#45;&gt;Node4</title>
<path fill="none" stroke="#191970" d="M336.0978,-56.2455C336.0978,-48.9382 336.0978,-38.6944 336.0978,-29.7046"/>
<polygon fill="#191970" stroke="#191970" points="339.5979,-29.6426 336.0978,-19.6427 332.5979,-29.6427 339.5979,-29.6426"/>
</g>
<!-- Node6&#45;&gt;Node7 -->
<g id="edge7" class="edge">
<title>Node6&#45;&gt;Node7</title>
<path fill="none" stroke="#191970" d="M134.3286,-112.3733C115.9509,-103.4241 88.3666,-89.9917 67.6086,-79.8835"/>
<polygon fill="#191970" stroke="#191970" points="69.1321,-76.7325 58.6091,-75.5011 66.0674,-83.026 69.1321,-76.7325"/>
</g>
<!-- Node8 -->
<g id="node9" class="node">
<title>Node8</title>
<g id="a_node9"><a xlink:title=" ">
<polygon fill="#ffffff" stroke="#bfbfbf" points="157.5978,-56.5 157.5978,-75.5 276.5978,-75.5 276.5978,-56.5 157.5978,-56.5"/>
<text text-anchor="middle" x="217.0978" y="-63.5" font-family="'Consolas',monospace" font-size="10.00" fill="#000000">boost/version.hpp</text>
</a>
</g>
</g>
<!-- Node6&#45;&gt;Node8 -->
<g id="edge8" class="edge">
<title>Node6&#45;&gt;Node8</title>
<path fill="none" stroke="#191970" d="M165.0716,-112.2455C174.286,-104.0549 187.651,-92.1749 198.5275,-82.5069"/>
<polygon fill="#191970" stroke="#191970" points="201.101,-84.9023 206.2498,-75.6427 196.4504,-79.6704 201.101,-84.9023"/>
</g>
<!-- Node9 -->
<g id="node10" class="node">
<title>Node9</title>
<g id="a_node10"><a doxygen="/w/doc/cppreference-doxygen-web.tag.xml:http://en.cppreference.com/w/" xlink:href="http://en.cppreference.com/w/cpp/header/iosfwd.html" xlink:title=" ">
<polygon fill="#ffffff" stroke="#000000" points="86.5978,-56.5 86.5978,-75.5 139.5978,-75.5 139.5978,-56.5 86.5978,-56.5"/>
<text text-anchor="middle" x="113.0978" y="-63.5" font-family="'Consolas',monospace" font-size="10.00" fill="#000000">iosfwd</text>
</a>
</g>
</g>
<!-- Node6&#45;&gt;Node9 -->
<g id="edge9" class="edge">
<title>Node6&#45;&gt;Node9</title>
<path fill="none" stroke="#191970" d="M146.9562,-112.2455C141.2534,-104.4564 133.1079,-93.3308 126.2354,-83.9439"/>
<polygon fill="#191970" stroke="#191970" points="128.8891,-81.6437 120.1577,-75.6427 123.2411,-85.7789 128.8891,-81.6437"/>
</g>
<!-- Node10&#45;&gt;Node7 -->
<g id="edge11" class="edge">
<title>Node10&#45;&gt;Node7</title>
<path fill="none" stroke="#191970" d="M55.6141,-112.2455C52.947,-104.7776 49.1845,-94.2427 45.9242,-85.1137"/>
<polygon fill="#191970" stroke="#191970" points="49.2012,-83.8829 42.5416,-75.6427 42.609,-86.2373 49.2012,-83.8829"/>
</g>
</g>
</svg>
