<?xml version="1.0" encoding="UTF-8" standalone="no"?>
<!DOCTYPE svg PUBLIC "-//W3C//DTD SVG 1.1//EN"
 "http://www.w3.org/Graphics/SVG/1.1/DTD/svg11.dtd">
<!-- Generated by graphviz version 2.42.4 (0)
 -->
<!-- Title: jngl/Video.hpp Pages: 1 -->
<svg width="468pt" height="252pt"
 viewBox="0.00 0.00 468.00 252.00" xmlns="http://www.w3.org/2000/svg" xmlns:xlink="http://www.w3.org/1999/xlink">
<g id="graph0" class="graph" transform="scale(1 1) rotate(0) translate(4 248)">
<title>jngl/Video.hpp</title>
<polygon fill="white" stroke="transparent" points="-4,4 -4,-248 464,-248 464,4 -4,4"/>
<!-- Node1 -->
<g id="node1" class="node">
<title>Node1</title>
<g id="a_node1"><a xlink:title=" ">
<polygon fill="#bfbfbf" stroke="black" points="345,-224.5 345,-243.5 446,-243.5 446,-224.5 345,-224.5"/>
<text text-anchor="middle" x="395.5" y="-231.5" font-family="'Consolas',monospace" font-size="10.00">jngl/Video.hpp</text>
</a>
</g>
</g>
<!-- Node2 -->
<g id="node2" class="node">
<title>Node2</title>
<g id="a_node2"><a xlink:href="sprite_8hpp.html" target="_top" xlink:title="Contains jngl::Sprite class and related functions.">
<polygon fill="white" stroke="black" points="165,-168.5 165,-187.5 242,-187.5 242,-168.5 165,-168.5"/>
<text text-anchor="middle" x="203.5" y="-175.5" font-family="'Consolas',monospace" font-size="10.00">sprite.hpp</text>
</a>
</g>
</g>
<!-- Node1&#45;&gt;Node2 -->
<g id="edge1" class="edge">
<title>Node1&#45;&gt;Node2</title>
<path fill="none" stroke="midnightblue" d="M365.08,-224.44C332.22,-215.2 279.72,-200.44 243.53,-190.26"/>
<polygon fill="midnightblue" stroke="midnightblue" points="244.35,-186.85 233.78,-187.52 242.46,-193.59 244.35,-186.85"/>
</g>
<!-- Node10 -->
<g id="node10" class="node">
<title>Node10</title>
<g id="a_node10"><a target="_parent" xlink:href="http://en.cppreference.com/w/cpp/header/memory.html" target="_top" xlink:title=" ">
<polygon fill="white" stroke="black" points="336,-56.5 336,-75.5 389,-75.5 389,-56.5 336,-56.5"/>
<text text-anchor="middle" x="362.5" y="-63.5" font-family="'Consolas',monospace" font-size="10.00">memory</text>
</a>
</g>
</g>
<!-- Node1&#45;&gt;Node10 -->
<g id="edge13" class="edge">
<title>Node1&#45;&gt;Node10</title>
<path fill="none" stroke="midnightblue" d="M394.44,-224.42C391.89,-204.53 384.94,-153.74 375.5,-112 373.48,-103.07 370.72,-93.28 368.26,-85.13"/>
<polygon fill="midnightblue" stroke="midnightblue" points="371.6,-84.06 365.3,-75.55 364.91,-86.14 371.6,-84.06"/>
</g>
<!-- Node11 -->
<g id="node11" class="node">
<title>Node11</title>
<g id="a_node11"><a target="_parent" xlink:href="http://en.cppreference.com/w/cpp/header/string.html" target="_top" xlink:title=" ">
<polygon fill="white" stroke="black" points="407,-56.5 407,-75.5 460,-75.5 460,-56.5 407,-56.5"/>
<text text-anchor="middle" x="433.5" y="-63.5" font-family="'Consolas',monospace" font-size="10.00">string</text>
</a>
</g>
</g>
<!-- Node1&#45;&gt;Node11 -->
<g id="edge14" class="edge">
<title>Node1&#45;&gt;Node11</title>
<path fill="none" stroke="midnightblue" d="M397.54,-224.08C403.52,-197.95 421.09,-121.21 429.25,-85.58"/>
<polygon fill="midnightblue" stroke="midnightblue" points="432.72,-86.1 431.54,-75.57 425.9,-84.53 432.72,-86.1"/>
</g>
<!-- Node3 -->
<g id="node3" class="node">
<title>Node3</title>
<g id="a_node3"><a xlink:href="Drawable_8hpp.html" target="_top" xlink:title="Contains jngl::Drawable class.">
<polygon fill="white" stroke="black" points="70,-112.5 70,-131.5 159,-131.5 159,-112.5 70,-112.5"/>
<text text-anchor="middle" x="114.5" y="-119.5" font-family="'Consolas',monospace" font-size="10.00">Drawable.hpp</text>
</a>
</g>
</g>
<!-- Node2&#45;&gt;Node3 -->
<g id="edge2" class="edge">
<title>Node2&#45;&gt;Node3</title>
<path fill="none" stroke="midnightblue" d="M189.2,-168.32C175.32,-159.9 154.01,-146.97 137.7,-137.07"/>
<polygon fill="midnightblue" stroke="midnightblue" points="139.13,-133.85 128.76,-131.65 135.5,-139.83 139.13,-133.85"/>
</g>
<!-- Node4 -->
<g id="node4" class="node">
<title>Node4</title>
<g id="a_node4"><a xlink:href="Vec2_8hpp.html" target="_top" xlink:title=" ">
<polygon fill="white" stroke="black" points="39,-56.5 39,-75.5 104,-75.5 104,-56.5 39,-56.5"/>
<text text-anchor="middle" x="71.5" y="-63.5" font-family="'Consolas',monospace" font-size="10.00">Vec2.hpp</text>
</a>
</g>
</g>
<!-- Node2&#45;&gt;Node4 -->
<g id="edge11" class="edge">
<title>Node2&#45;&gt;Node4</title>
<path fill="none" stroke="midnightblue" d="M164.78,-176.65C131.14,-174.04 84.21,-164.32 60.5,-132 50.48,-118.34 55.73,-98.74 61.94,-84.63"/>
<polygon fill="midnightblue" stroke="midnightblue" points="65.15,-86.02 66.42,-75.5 58.87,-82.94 65.15,-86.02"/>
</g>
<!-- Node7 -->
<g id="node7" class="node">
<title>Node7</title>
<g id="a_node7"><a xlink:href="ShaderProgram_8hpp.html" target="_top" xlink:title="Contains jngl::ShaderProgram class.">
<polygon fill="white" stroke="black" points="248,-112.5 248,-131.5 367,-131.5 367,-112.5 248,-112.5"/>
<text text-anchor="middle" x="307.5" y="-119.5" font-family="'Consolas',monospace" font-size="10.00">ShaderProgram.hpp</text>
</a>
</g>
</g>
<!-- Node2&#45;&gt;Node7 -->
<g id="edge6" class="edge">
<title>Node2&#45;&gt;Node7</title>
<path fill="none" stroke="midnightblue" d="M220.21,-168.32C236.81,-159.7 262.5,-146.36 281.72,-136.39"/>
<polygon fill="midnightblue" stroke="midnightblue" points="283.57,-139.37 290.83,-131.65 280.34,-133.16 283.57,-139.37"/>
</g>
<!-- Node12 -->
<g id="node12" class="node">
<title>Node12</title>
<g id="a_node12"><a target="_parent" xlink:href="http://en.cppreference.com/w/cpp/header/vector.html" target="_top" xlink:title=" ">
<polygon fill="white" stroke="black" points="177,-112.5 177,-131.5 230,-131.5 230,-112.5 177,-112.5"/>
<text text-anchor="middle" x="203.5" y="-119.5" font-family="'Consolas',monospace" font-size="10.00">vector</text>
</a>
</g>
</g>
<!-- Node2&#45;&gt;Node12 -->
<g id="edge12" class="edge">
<title>Node2&#45;&gt;Node12</title>
<path fill="none" stroke="midnightblue" d="M203.5,-168.08C203.5,-161.01 203.5,-150.86 203.5,-141.99"/>
<polygon fill="midnightblue" stroke="midnightblue" points="207,-141.75 203.5,-131.75 200,-141.75 207,-141.75"/>
</g>
<!-- Node3&#45;&gt;Node4 -->
<g id="edge3" class="edge">
<title>Node3&#45;&gt;Node4</title>
<path fill="none" stroke="midnightblue" d="M107.4,-112.08C101.26,-104.38 92.23,-93.03 84.76,-83.65"/>
<polygon fill="midnightblue" stroke="midnightblue" points="87.44,-81.39 78.47,-75.75 81.96,-85.75 87.44,-81.39"/>
</g>
<!-- Node5 -->
<g id="node5" class="node">
<title>Node5</title>
<g id="a_node5"><a xlink:title=" ">
<polygon fill="white" stroke="#bfbfbf" points="0,-0.5 0,-19.5 119,-19.5 119,-0.5 0,-0.5"/>
<text text-anchor="middle" x="59.5" y="-7.5" font-family="'Consolas',monospace" font-size="10.00">boost/version.hpp</text>
</a>
</g>
</g>
<!-- Node4&#45;&gt;Node5 -->
<g id="edge4" class="edge">
<title>Node4&#45;&gt;Node5</title>
<path fill="none" stroke="midnightblue" d="M69.52,-56.08C67.93,-48.93 65.64,-38.64 63.65,-29.69"/>
<polygon fill="midnightblue" stroke="midnightblue" points="67.03,-28.75 61.44,-19.75 60.2,-30.27 67.03,-28.75"/>
</g>
<!-- Node6 -->
<g id="node6" class="node">
<title>Node6</title>
<g id="a_node6"><a target="_parent" xlink:href="http://en.cppreference.com/w/cpp/header/iosfwd.html" target="_top" xlink:title=" ">
<polygon fill="white" stroke="black" points="137,-0.5 137,-19.5 190,-19.5 190,-0.5 137,-0.5"/>
<text text-anchor="middle" x="163.5" y="-7.5" font-family="'Consolas',monospace" font-size="10.00">iosfwd</text>
</a>
</g>
</g>
<!-- Node4&#45;&gt;Node6 -->
<g id="edge5" class="edge">
<title>Node4&#45;&gt;Node6</title>
<path fill="none" stroke="midnightblue" d="M86.28,-56.32C100.77,-47.82 123.07,-34.73 139.99,-24.8"/>
<polygon fill="midnightblue" stroke="midnightblue" points="141.9,-27.74 148.76,-19.65 138.36,-21.7 141.9,-27.74"/>
</g>
<!-- Node8 -->
<g id="node8" class="node">
<title>Node8</title>
<g id="a_node8"><a xlink:href="Finally_8hpp.html" target="_top" xlink:title=" ">
<polygon fill="white" stroke="black" points="235,-56.5 235,-75.5 318,-75.5 318,-56.5 235,-56.5"/>
<text text-anchor="middle" x="276.5" y="-63.5" font-family="'Consolas',monospace" font-size="10.00">Finally.hpp</text>
</a>
</g>
</g>
<!-- Node7&#45;&gt;Node8 -->
<g id="edge7" class="edge">
<title>Node7&#45;&gt;Node8</title>
<path fill="none" stroke="midnightblue" d="M302.38,-112.08C298.09,-104.61 291.84,-93.72 286.56,-84.52"/>
<polygon fill="midnightblue" stroke="midnightblue" points="289.54,-82.68 281.52,-75.75 283.47,-86.17 289.54,-82.68"/>
</g>
<!-- Node7&#45;&gt;Node10 -->
<g id="edge9" class="edge">
<title>Node7&#45;&gt;Node10</title>
<path fill="none" stroke="midnightblue" d="M316.58,-112.08C324.67,-104.14 336.7,-92.34 346.41,-82.8"/>
<polygon fill="midnightblue" stroke="midnightblue" points="348.9,-85.25 353.59,-75.75 344,-80.26 348.9,-85.25"/>
</g>
<!-- Node7&#45;&gt;Node11 -->
<g id="edge10" class="edge">
<title>Node7&#45;&gt;Node11</title>
<path fill="none" stroke="midnightblue" d="M327.47,-112.44C348.11,-103.6 380.56,-89.69 404.13,-79.59"/>
<polygon fill="midnightblue" stroke="midnightblue" points="405.82,-82.67 413.63,-75.52 403.06,-76.24 405.82,-82.67"/>
</g>
<!-- Node9 -->
<g id="node9" class="node">
<title>Node9</title>
<g id="a_node9"><a target="_parent" xlink:href="http://en.cppreference.com/w/cpp/header/functional.html" target="_top" xlink:title=" ">
<polygon fill="white" stroke="black" points="238,-0.5 238,-19.5 315,-19.5 315,-0.5 238,-0.5"/>
<text text-anchor="middle" x="276.5" y="-7.5" font-family="'Consolas',monospace" font-size="10.00">functional</text>
</a>
</g>
</g>
<!-- Node8&#45;&gt;Node9 -->
<g id="edge8" class="edge">
<title>Node8&#45;&gt;Node9</title>
<path fill="none" stroke="midnightblue" d="M276.5,-56.08C276.5,-49.01 276.5,-38.86 276.5,-29.99"/>
<polygon fill="midnightblue" stroke="midnightblue" points="280,-29.75 276.5,-19.75 273,-29.75 280,-29.75"/>
</g>
</g>
</svg>
