<?xml version="1.0" encoding="UTF-8" standalone="no"?>
<!DOCTYPE svg PUBLIC "-//W3C//DTD SVG 1.1//EN"
 "http://www.w3.org/Graphics/SVG/1.1/DTD/svg11.dtd">
<!-- Generated by graphviz version 2.42.4 (0)
 -->
<!-- Title: jngl/Video.hpp Pages: 1 -->
<svg width="446pt" height="252pt"
 viewBox="0.00 0.00 446.00 252.00" xmlns="http://www.w3.org/2000/svg" xmlns:xlink="http://www.w3.org/1999/xlink">
<g id="graph0" class="graph" transform="scale(1 1) rotate(0) translate(4 248)">
<title>jngl/Video.hpp</title>
<polygon fill="white" stroke="transparent" points="-4,4 -4,-248 442,-248 442,4 -4,4"/>
<!-- Node1 -->
<g id="node1" class="node">
<title>Node1</title>
<g id="a_node1"><a xlink:title=" ">
<polygon fill="#bfbfbf" stroke="black" points="306,-224.5 306,-243.5 407,-243.5 407,-224.5 306,-224.5"/>
<text text-anchor="middle" x="356.5" y="-231.5" font-family="'Consolas',monospace" font-size="10.00">jngl/Video.hpp</text>
</a>
</g>
</g>
<!-- Node2 -->
<g id="node2" class="node">
<title>Node2</title>
<g id="a_node2"><a xlink:href="sprite_8hpp_source.html" target="_top" xlink:title=" ">
<polygon fill="white" stroke="black" points="186,-168.5 186,-187.5 263,-187.5 263,-168.5 186,-168.5"/>
<text text-anchor="middle" x="224.5" y="-175.5" font-family="'Consolas',monospace" font-size="10.00">sprite.hpp</text>
</a>
</g>
</g>
<!-- Node1&#45;&gt;Node2 -->
<g id="edge1" class="edge">
<title>Node1&#45;&gt;Node2</title>
<path fill="none" stroke="midnightblue" d="M335.58,-224.44C313.76,-215.52 279.35,-201.44 254.61,-191.32"/>
<polygon fill="midnightblue" stroke="midnightblue" points="255.9,-188.06 245.32,-187.52 253.25,-194.54 255.9,-188.06"/>
</g>
<!-- Node10 -->
<g id="node10" class="node">
<title>Node10</title>
<g id="a_node10"><a target="_parent" xlink:href="http://en.cppreference.com/w/cpp/header/memory.html" target="_top" xlink:title=" ">
<polygon fill="white" stroke="black" points="329,-56.5 329,-75.5 382,-75.5 382,-56.5 329,-56.5"/>
<text text-anchor="middle" x="355.5" y="-63.5" font-family="'Consolas',monospace" font-size="10.00">memory</text>
</a>
</g>
</g>
<!-- Node1&#45;&gt;Node10 -->
<g id="edge11" class="edge">
<title>Node1&#45;&gt;Node10</title>
<path fill="none" stroke="midnightblue" d="M356.45,-224.08C356.29,-197.95 355.83,-121.21 355.61,-85.58"/>
<polygon fill="midnightblue" stroke="midnightblue" points="359.11,-85.55 355.55,-75.57 352.11,-85.59 359.11,-85.55"/>
</g>
<!-- Node11 -->
<g id="node11" class="node">
<title>Node11</title>
<g id="a_node11"><a target="_parent" xlink:href="http://en.cppreference.com/w/cpp/header/string.html" target="_top" xlink:title=" ">
<polygon fill="white" stroke="black" points="385,-168.5 385,-187.5 438,-187.5 438,-168.5 385,-168.5"/>
<text text-anchor="middle" x="411.5" y="-175.5" font-family="'Consolas',monospace" font-size="10.00">string</text>
</a>
</g>
</g>
<!-- Node1&#45;&gt;Node11 -->
<g id="edge12" class="edge">
<title>Node1&#45;&gt;Node11</title>
<path fill="none" stroke="midnightblue" d="M365.58,-224.08C373.67,-216.14 385.7,-204.34 395.41,-194.8"/>
<polygon fill="midnightblue" stroke="midnightblue" points="397.9,-197.25 402.59,-187.75 393,-192.26 397.9,-197.25"/>
</g>
<!-- Node3 -->
<g id="node3" class="node">
<title>Node3</title>
<g id="a_node3"><a xlink:href="Drawable_8hpp.html" target="_top" xlink:title="Contains Drawable class.">
<polygon fill="white" stroke="black" points="63,-112.5 63,-131.5 152,-131.5 152,-112.5 63,-112.5"/>
<text text-anchor="middle" x="107.5" y="-119.5" font-family="'Consolas',monospace" font-size="10.00">Drawable.hpp</text>
</a>
</g>
</g>
<!-- Node2&#45;&gt;Node3 -->
<g id="edge2" class="edge">
<title>Node2&#45;&gt;Node3</title>
<path fill="none" stroke="midnightblue" d="M205.96,-168.44C186.88,-159.64 156.93,-145.81 135.06,-135.72"/>
<polygon fill="midnightblue" stroke="midnightblue" points="136.5,-132.53 125.95,-131.52 133.57,-138.88 136.5,-132.53"/>
</g>
<!-- Node4 -->
<g id="node4" class="node">
<title>Node4</title>
<g id="a_node4"><a xlink:href="Vec2_8hpp.html" target="_top" xlink:title=" ">
<polygon fill="white" stroke="black" points="109,-56.5 109,-75.5 174,-75.5 174,-56.5 109,-56.5"/>
<text text-anchor="middle" x="141.5" y="-63.5" font-family="'Consolas',monospace" font-size="10.00">Vec2.hpp</text>
</a>
</g>
</g>
<!-- Node2&#45;&gt;Node4 -->
<g id="edge10" class="edge">
<title>Node2&#45;&gt;Node4</title>
<path fill="none" stroke="midnightblue" d="M217.99,-168.37C204.23,-150.14 172,-107.43 154.08,-83.68"/>
<polygon fill="midnightblue" stroke="midnightblue" points="156.8,-81.47 147.98,-75.59 151.21,-85.68 156.8,-81.47"/>
</g>
<!-- Node7 -->
<g id="node7" class="node">
<title>Node7</title>
<g id="a_node7"><a xlink:href="ShaderProgram_8hpp.html" target="_top" xlink:title=" ">
<polygon fill="white" stroke="black" points="209,-112.5 209,-131.5 328,-131.5 328,-112.5 209,-112.5"/>
<text text-anchor="middle" x="268.5" y="-119.5" font-family="'Consolas',monospace" font-size="10.00">ShaderProgram.hpp</text>
</a>
</g>
</g>
<!-- Node2&#45;&gt;Node7 -->
<g id="edge6" class="edge">
<title>Node2&#45;&gt;Node7</title>
<path fill="none" stroke="midnightblue" d="M231.77,-168.08C238.04,-160.38 247.29,-149.03 254.93,-139.65"/>
<polygon fill="midnightblue" stroke="midnightblue" points="257.77,-141.71 261.37,-131.75 252.34,-137.29 257.77,-141.71"/>
</g>
<!-- Node3&#45;&gt;Node4 -->
<g id="edge3" class="edge">
<title>Node3&#45;&gt;Node4</title>
<path fill="none" stroke="midnightblue" d="M113.11,-112.08C117.87,-104.53 124.82,-93.49 130.65,-84.23"/>
<polygon fill="midnightblue" stroke="midnightblue" points="133.62,-86.08 135.99,-75.75 127.7,-82.35 133.62,-86.08"/>
</g>
<!-- Node5 -->
<g id="node5" class="node">
<title>Node5</title>
<g id="a_node5"><a xlink:title=" ">
<polygon fill="white" stroke="#bfbfbf" points="0,-0.5 0,-19.5 119,-19.5 119,-0.5 0,-0.5"/>
<text text-anchor="middle" x="59.5" y="-7.5" font-family="'Consolas',monospace" font-size="10.00">boost/version.hpp</text>
</a>
</g>
</g>
<!-- Node4&#45;&gt;Node5 -->
<g id="edge4" class="edge">
<title>Node4&#45;&gt;Node5</title>
<path fill="none" stroke="midnightblue" d="M128.33,-56.32C115.65,-47.98 96.27,-35.21 81.29,-25.35"/>
<polygon fill="midnightblue" stroke="midnightblue" points="82.92,-22.23 72.64,-19.65 79.07,-28.08 82.92,-22.23"/>
</g>
<!-- Node6 -->
<g id="node6" class="node">
<title>Node6</title>
<g id="a_node6"><a target="_parent" xlink:href="http://en.cppreference.com/w/cpp/header/iosfwd.html" target="_top" xlink:title=" ">
<polygon fill="white" stroke="black" points="137,-0.5 137,-19.5 190,-19.5 190,-0.5 137,-0.5"/>
<text text-anchor="middle" x="163.5" y="-7.5" font-family="'Consolas',monospace" font-size="10.00">iosfwd</text>
</a>
</g>
</g>
<!-- Node4&#45;&gt;Node6 -->
<g id="edge5" class="edge">
<title>Node4&#45;&gt;Node6</title>
<path fill="none" stroke="midnightblue" d="M145.13,-56.08C148.11,-48.77 152.43,-38.18 156.12,-29.1"/>
<polygon fill="midnightblue" stroke="midnightblue" points="159.4,-30.33 159.93,-19.75 152.92,-27.69 159.4,-30.33"/>
</g>
<!-- Node8 -->
<g id="node8" class="node">
<title>Node8</title>
<g id="a_node8"><a xlink:href="Finally_8hpp.html" target="_top" xlink:title=" ">
<polygon fill="white" stroke="black" points="227,-56.5 227,-75.5 310,-75.5 310,-56.5 227,-56.5"/>
<text text-anchor="middle" x="268.5" y="-63.5" font-family="'Consolas',monospace" font-size="10.00">Finally.hpp</text>
</a>
</g>
</g>
<!-- Node7&#45;&gt;Node8 -->
<g id="edge7" class="edge">
<title>Node7&#45;&gt;Node8</title>
<path fill="none" stroke="midnightblue" d="M268.5,-112.08C268.5,-105.01 268.5,-94.86 268.5,-85.99"/>
<polygon fill="midnightblue" stroke="midnightblue" points="272,-85.75 268.5,-75.75 265,-85.75 272,-85.75"/>
</g>
<!-- Node7&#45;&gt;Node10 -->
<g id="edge9" class="edge">
<title>Node7&#45;&gt;Node10</title>
<path fill="none" stroke="midnightblue" d="M282.48,-112.32C296.05,-103.9 316.88,-90.97 332.82,-81.07"/>
<polygon fill="midnightblue" stroke="midnightblue" points="334.91,-83.9 341.56,-75.65 331.21,-77.95 334.91,-83.9"/>
</g>
<!-- Node9 -->
<g id="node9" class="node">
<title>Node9</title>
<g id="a_node9"><a target="_parent" xlink:href="http://en.cppreference.com/w/cpp/header/functional.html" target="_top" xlink:title=" ">
<polygon fill="white" stroke="black" points="230,-0.5 230,-19.5 307,-19.5 307,-0.5 230,-0.5"/>
<text text-anchor="middle" x="268.5" y="-7.5" font-family="'Consolas',monospace" font-size="10.00">functional</text>
</a>
</g>
</g>
<!-- Node8&#45;&gt;Node9 -->
<g id="edge8" class="edge">
<title>Node8&#45;&gt;Node9</title>
<path fill="none" stroke="midnightblue" d="M268.5,-56.08C268.5,-49.01 268.5,-38.86 268.5,-29.99"/>
<polygon fill="midnightblue" stroke="midnightblue" points="272,-29.75 268.5,-19.75 265,-29.75 272,-29.75"/>
</g>
</g>
</svg>
