<?xml version="1.0" encoding="UTF-8" standalone="no"?>
<!DOCTYPE svg PUBLIC "-//W3C//DTD SVG 1.1//EN"
 "http://www.w3.org/Graphics/SVG/1.1/DTD/svg11.dtd">
<!-- Generated by graphviz version 2.42.4 (0)
 -->
<!-- Title: jngl/Video.hpp Pages: 1 -->
<svg width="439pt" height="252pt"
 viewBox="0.00 0.00 439.00 252.00" xmlns="http://www.w3.org/2000/svg" xmlns:xlink="http://www.w3.org/1999/xlink">
<g id="graph0" class="graph" transform="scale(1 1) rotate(0) translate(4 248)">
<title>jngl/Video.hpp</title>
<polygon fill="white" stroke="transparent" points="-4,4 -4,-248 435,-248 435,4 -4,4"/>
<!-- Node1 -->
<g id="node1" class="node">
<title>Node1</title>
<g id="a_node1"><a xlink:title=" ">
<polygon fill="#bfbfbf" stroke="black" points="299,-224.5 299,-243.5 400,-243.5 400,-224.5 299,-224.5"/>
<text text-anchor="middle" x="349.5" y="-231.5" font-family="'Consolas',monospace" font-size="10.00">jngl/Video.hpp</text>
</a>
</g>
</g>
<!-- Node2 -->
<g id="node2" class="node">
<title>Node2</title>
<g id="a_node2"><a xlink:href="sprite_8hpp_source.html" target="_top" xlink:title=" ">
<polygon fill="white" stroke="black" points="168,-168.5 168,-187.5 245,-187.5 245,-168.5 168,-168.5"/>
<text text-anchor="middle" x="206.5" y="-175.5" font-family="'Consolas',monospace" font-size="10.00">sprite.hpp</text>
</a>
</g>
</g>
<!-- Node1&#45;&gt;Node2 -->
<g id="edge1" class="edge">
<title>Node1&#45;&gt;Node2</title>
<path fill="none" stroke="midnightblue" d="M326.84,-224.44C303.1,-215.48 265.59,-201.31 238.76,-191.18"/>
<polygon fill="midnightblue" stroke="midnightblue" points="239.64,-187.77 229.05,-187.52 237.17,-194.32 239.64,-187.77"/>
</g>
<!-- Node7 -->
<g id="node7" class="node">
<title>Node7</title>
<g id="a_node7"><a xlink:href="http://en.cppreference.com/w/cpp/header/memory.html" xlink:title=" ">
<polygon fill="white" stroke="black" points="322,-56.5 322,-75.5 375,-75.5 375,-56.5 322,-56.5"/>
<text text-anchor="middle" x="348.5" y="-63.5" font-family="'Consolas',monospace" font-size="10.00">memory</text>
</a>
</g>
</g>
<!-- Node1&#45;&gt;Node7 -->
<g id="edge10" class="edge">
<title>Node1&#45;&gt;Node7</title>
<path fill="none" stroke="midnightblue" d="M349.45,-224.08C349.29,-197.95 348.83,-121.21 348.61,-85.58"/>
<polygon fill="midnightblue" stroke="midnightblue" points="352.11,-85.55 348.55,-75.57 345.11,-85.59 352.11,-85.55"/>
</g>
<!-- Node11 -->
<g id="node11" class="node">
<title>Node11</title>
<g id="a_node11"><a xlink:href="http://en.cppreference.com/w/cpp/header/string.html" xlink:title=" ">
<polygon fill="white" stroke="black" points="378,-168.5 378,-187.5 431,-187.5 431,-168.5 378,-168.5"/>
<text text-anchor="middle" x="404.5" y="-175.5" font-family="'Consolas',monospace" font-size="10.00">string</text>
</a>
</g>
</g>
<!-- Node1&#45;&gt;Node11 -->
<g id="edge11" class="edge">
<title>Node1&#45;&gt;Node11</title>
<path fill="none" stroke="midnightblue" d="M358.58,-224.08C366.67,-216.14 378.7,-204.34 388.41,-194.8"/>
<polygon fill="midnightblue" stroke="midnightblue" points="390.9,-197.25 395.59,-187.75 386,-192.26 390.9,-197.25"/>
</g>
<!-- Node3 -->
<g id="node3" class="node">
<title>Node3</title>
<g id="a_node3"><a xlink:href="Drawable_8hpp.html" target="_top" xlink:title="Contains Drawable class.">
<polygon fill="white" stroke="black" points="12,-112.5 12,-131.5 101,-131.5 101,-112.5 12,-112.5"/>
<text text-anchor="middle" x="56.5" y="-119.5" font-family="'Consolas',monospace" font-size="10.00">Drawable.hpp</text>
</a>
</g>
</g>
<!-- Node2&#45;&gt;Node3 -->
<g id="edge2" class="edge">
<title>Node2&#45;&gt;Node3</title>
<path fill="none" stroke="midnightblue" d="M182.73,-168.44C157.61,-159.4 117.79,-145.06 89.6,-134.92"/>
<polygon fill="midnightblue" stroke="midnightblue" points="90.75,-131.61 80.16,-131.52 88.38,-138.2 90.75,-131.61"/>
</g>
<!-- Node4 -->
<g id="node4" class="node">
<title>Node4</title>
<g id="a_node4"><a xlink:href="ShaderProgram_8hpp.html" target="_top" xlink:title=" ">
<polygon fill="white" stroke="black" points="202,-112.5 202,-131.5 321,-131.5 321,-112.5 202,-112.5"/>
<text text-anchor="middle" x="261.5" y="-119.5" font-family="'Consolas',monospace" font-size="10.00">ShaderProgram.hpp</text>
</a>
</g>
</g>
<!-- Node2&#45;&gt;Node4 -->
<g id="edge3" class="edge">
<title>Node2&#45;&gt;Node4</title>
<path fill="none" stroke="midnightblue" d="M215.58,-168.08C223.67,-160.14 235.7,-148.34 245.41,-138.8"/>
<polygon fill="midnightblue" stroke="midnightblue" points="247.9,-141.25 252.59,-131.75 243,-136.26 247.9,-141.25"/>
</g>
<!-- Node8 -->
<g id="node8" class="node">
<title>Node8</title>
<g id="a_node8"><a xlink:href="Vec2_8hpp.html" target="_top" xlink:title=" ">
<polygon fill="white" stroke="black" points="119,-112.5 119,-131.5 184,-131.5 184,-112.5 119,-112.5"/>
<text text-anchor="middle" x="151.5" y="-119.5" font-family="'Consolas',monospace" font-size="10.00">Vec2.hpp</text>
</a>
</g>
</g>
<!-- Node2&#45;&gt;Node8 -->
<g id="edge7" class="edge">
<title>Node2&#45;&gt;Node8</title>
<path fill="none" stroke="midnightblue" d="M197.42,-168.08C189.33,-160.14 177.3,-148.34 167.59,-138.8"/>
<polygon fill="midnightblue" stroke="midnightblue" points="170,-136.26 160.41,-131.75 165.1,-141.25 170,-136.26"/>
</g>
<!-- Node5 -->
<g id="node5" class="node">
<title>Node5</title>
<g id="a_node5"><a xlink:href="Finally_8hpp.html" target="_top" xlink:title=" ">
<polygon fill="white" stroke="black" points="220,-56.5 220,-75.5 303,-75.5 303,-56.5 220,-56.5"/>
<text text-anchor="middle" x="261.5" y="-63.5" font-family="'Consolas',monospace" font-size="10.00">Finally.hpp</text>
</a>
</g>
</g>
<!-- Node4&#45;&gt;Node5 -->
<g id="edge4" class="edge">
<title>Node4&#45;&gt;Node5</title>
<path fill="none" stroke="midnightblue" d="M261.5,-112.08C261.5,-105.01 261.5,-94.86 261.5,-85.99"/>
<polygon fill="midnightblue" stroke="midnightblue" points="265,-85.75 261.5,-75.75 258,-85.75 265,-85.75"/>
</g>
<!-- Node4&#45;&gt;Node7 -->
<g id="edge6" class="edge">
<title>Node4&#45;&gt;Node7</title>
<path fill="none" stroke="midnightblue" d="M275.48,-112.32C289.05,-103.9 309.88,-90.97 325.82,-81.07"/>
<polygon fill="midnightblue" stroke="midnightblue" points="327.91,-83.9 334.56,-75.65 324.21,-77.95 327.91,-83.9"/>
</g>
<!-- Node6 -->
<g id="node6" class="node">
<title>Node6</title>
<g id="a_node6"><a xlink:href="http://en.cppreference.com/w/cpp/header/functional.html" xlink:title=" ">
<polygon fill="white" stroke="black" points="223,-0.5 223,-19.5 300,-19.5 300,-0.5 223,-0.5"/>
<text text-anchor="middle" x="261.5" y="-7.5" font-family="'Consolas',monospace" font-size="10.00">functional</text>
</a>
</g>
</g>
<!-- Node5&#45;&gt;Node6 -->
<g id="edge5" class="edge">
<title>Node5&#45;&gt;Node6</title>
<path fill="none" stroke="midnightblue" d="M261.5,-56.08C261.5,-49.01 261.5,-38.86 261.5,-29.99"/>
<polygon fill="midnightblue" stroke="midnightblue" points="265,-29.75 261.5,-19.75 258,-29.75 265,-29.75"/>
</g>
<!-- Node9 -->
<g id="node9" class="node">
<title>Node9</title>
<g id="a_node9"><a xlink:title=" ">
<polygon fill="white" stroke="#bfbfbf" points="0,-56.5 0,-75.5 119,-75.5 119,-56.5 0,-56.5"/>
<text text-anchor="middle" x="59.5" y="-63.5" font-family="'Consolas',monospace" font-size="10.00">boost/version.hpp</text>
</a>
</g>
</g>
<!-- Node8&#45;&gt;Node9 -->
<g id="edge8" class="edge">
<title>Node8&#45;&gt;Node9</title>
<path fill="none" stroke="midnightblue" d="M136.72,-112.32C122.23,-103.82 99.93,-90.73 83.01,-80.8"/>
<polygon fill="midnightblue" stroke="midnightblue" points="84.64,-77.7 74.24,-75.65 81.1,-83.74 84.64,-77.7"/>
</g>
<!-- Node10 -->
<g id="node10" class="node">
<title>Node10</title>
<g id="a_node10"><a xlink:href="http://en.cppreference.com/w/cpp/header/iosfwd.html" xlink:title=" ">
<polygon fill="white" stroke="black" points="137,-56.5 137,-75.5 190,-75.5 190,-56.5 137,-56.5"/>
<text text-anchor="middle" x="163.5" y="-63.5" font-family="'Consolas',monospace" font-size="10.00">iosfwd</text>
</a>
</g>
</g>
<!-- Node8&#45;&gt;Node10 -->
<g id="edge9" class="edge">
<title>Node8&#45;&gt;Node10</title>
<path fill="none" stroke="midnightblue" d="M153.48,-112.08C155.07,-104.93 157.36,-94.64 159.35,-85.69"/>
<polygon fill="midnightblue" stroke="midnightblue" points="162.8,-86.27 161.56,-75.75 155.97,-84.75 162.8,-86.27"/>
</g>
</g>
</svg>
