<?xml version="1.0" encoding="UTF-8" standalone="no"?>
<!DOCTYPE svg PUBLIC "-//W3C//DTD SVG 1.1//EN"
 "http://www.w3.org/Graphics/SVG/1.1/DTD/svg11.dtd">
<!-- Generated by graphviz version 5.0.0 (0)
 -->
<!-- Title: jngl/Widget.hpp Pages: 1 -->
<svg width="351pt" height="137pt"
 viewBox="0.00 0.00 351.00 137.00" xmlns="http://www.w3.org/2000/svg" xmlns:xlink="http://www.w3.org/1999/xlink">
<g id="graph0" class="graph" transform="scale(1 1) rotate(0) translate(4 133)">
<title>jngl/Widget.hpp</title>
<!-- Node1 -->
<g id="node1" class="node">
<title>Node1</title>
<g id="a_node1"><a xlink:title="Contains jngl::Container class.">
<polygon fill="#999999" stroke="#666666" points="277,-129 170,-129 170,-110 277,-110 277,-129"/>
<text text-anchor="middle" x="223.5" y="-117" font-family="ui-monospace,monospace" font-size="10.00">jngl/Widget.hpp</text>
</a>
</g>
</g>
<!-- Node2 -->
<g id="node2" class="node">
<title>Node2</title>
<g id="a_node2"><a xlink:href="Vec2_8hpp.html" target="_top" xlink:title="Contains jngl::Vec2 class.">
<polygon fill="white" stroke="#666666" points="148,-74 83,-74 83,-55 148,-55 148,-74"/>
<text text-anchor="middle" x="115.5" y="-62" font-family="ui-monospace,monospace" font-size="10.00">Vec2.hpp</text>
</a>
</g>
</g>
<!-- Node1&#45;&gt;Node2 -->
<g id="edge1" class="edge">
<title>Node1&#45;&gt;Node2</title>
<path fill="none" stroke="#63b8ff" d="M206.15,-109.98C188.93,-101.54 162.3,-88.47 142.35,-78.68"/>
<polygon fill="#63b8ff" stroke="#63b8ff" points="143.69,-75.43 133.17,-74.17 140.6,-81.72 143.69,-75.43"/>
</g>
<!-- Node5 -->
<g id="node5" class="node">
<title>Node5</title>
<g id="a_node5"><a target="_parent" xlink:href="http://en.cppreference.com/w/cpp/header/memory.html" xlink:title=" ">
<polygon fill="white" stroke="#666666" points="219,-74 166,-74 166,-55 219,-55 219,-74"/>
<text text-anchor="middle" x="192.5" y="-62" font-family="ui-monospace,monospace" font-size="10.00">memory</text>
</a>
</g>
</g>
<!-- Node1&#45;&gt;Node5 -->
<g id="edge4" class="edge">
<title>Node1&#45;&gt;Node5</title>
<path fill="none" stroke="#63b8ff" d="M218.38,-109.75C214.14,-102.49 207.97,-91.95 202.72,-82.98"/>
<polygon fill="#63b8ff" stroke="#63b8ff" points="205.59,-80.95 197.52,-74.09 199.55,-84.49 205.59,-80.95"/>
</g>
<!-- Node6 -->
<g id="node6" class="node">
<title>Node6</title>
<g id="a_node6"><a target="_parent" xlink:href="http://en.cppreference.com/w/cpp/header/set.html" xlink:title=" ">
<polygon fill="white" stroke="#666666" points="272,-74 237,-74 237,-55 272,-55 272,-74"/>
<text text-anchor="middle" x="254.5" y="-62" font-family="ui-monospace,monospace" font-size="10.00">set</text>
</a>
</g>
</g>
<!-- Node1&#45;&gt;Node6 -->
<g id="edge5" class="edge">
<title>Node1&#45;&gt;Node6</title>
<path fill="none" stroke="#63b8ff" d="M228.62,-109.75C232.86,-102.49 239.03,-91.95 244.28,-82.98"/>
<polygon fill="#63b8ff" stroke="#63b8ff" points="247.45,-84.49 249.48,-74.09 241.41,-80.95 247.45,-84.49"/>
</g>
<!-- Node7 -->
<g id="node7" class="node">
<title>Node7</title>
<g id="a_node7"><a target="_parent" xlink:href="http://en.cppreference.com/w/cpp/header/vector.html" xlink:title=" ">
<polygon fill="white" stroke="#666666" points="343,-74 290,-74 290,-55 343,-55 343,-74"/>
<text text-anchor="middle" x="316.5" y="-62" font-family="ui-monospace,monospace" font-size="10.00">vector</text>
</a>
</g>
</g>
<!-- Node1&#45;&gt;Node7 -->
<g id="edge6" class="edge">
<title>Node1&#45;&gt;Node7</title>
<path fill="none" stroke="#63b8ff" d="M238.44,-109.98C253,-101.69 275.37,-88.94 292.43,-79.22"/>
<polygon fill="#63b8ff" stroke="#63b8ff" points="294.33,-82.16 301.29,-74.17 290.86,-76.08 294.33,-82.16"/>
</g>
<!-- Node3 -->
<g id="node3" class="node">
<title>Node3</title>
<g id="a_node3"><a xlink:title=" ">
<polygon fill="#e0e0e0" stroke="#999999" points="125,-19 0,-19 0,0 125,0 125,-19"/>
<text text-anchor="middle" x="62.5" y="-7" font-family="ui-monospace,monospace" font-size="10.00">boost/qvm_lite.hpp</text>
</a>
</g>
</g>
<!-- Node2&#45;&gt;Node3 -->
<g id="edge2" class="edge">
<title>Node2&#45;&gt;Node3</title>
<path fill="none" stroke="#63b8ff" d="M106.75,-54.75C99.03,-47.03 87.6,-35.6 78.28,-26.28"/>
<polygon fill="#63b8ff" stroke="#63b8ff" points="80.64,-23.69 71.09,-19.09 75.69,-28.64 80.64,-23.69"/>
</g>
<!-- Node4 -->
<g id="node4" class="node">
<title>Node4</title>
<g id="a_node4"><a target="_parent" xlink:href="http://en.cppreference.com/w/cpp/header/iosfwd.html" xlink:title=" ">
<polygon fill="white" stroke="#666666" points="196,-19 143,-19 143,0 196,0 196,-19"/>
<text text-anchor="middle" x="169.5" y="-7" font-family="ui-monospace,monospace" font-size="10.00">iosfwd</text>
</a>
</g>
</g>
<!-- Node2&#45;&gt;Node4 -->
<g id="edge3" class="edge">
<title>Node2&#45;&gt;Node4</title>
<path fill="none" stroke="#63b8ff" d="M124.42,-54.75C132.28,-47.03 143.93,-35.6 153.42,-26.28"/>
<polygon fill="#63b8ff" stroke="#63b8ff" points="156.06,-28.59 160.75,-19.09 151.16,-23.6 156.06,-28.59"/>
</g>
</g>
</svg>
