<?xml version="1.0" encoding="UTF-8" standalone="no"?>
<!DOCTYPE svg PUBLIC "-//W3C//DTD SVG 1.1//EN"
 "http://www.w3.org/Graphics/SVG/1.1/DTD/svg11.dtd">
<!-- Generated by graphviz version 9.0.0 (20230911.1827)
 -->
<!-- Title: jngl/Widget.hpp Pages: 1 -->
<svg width="347pt" height="138pt"
 viewBox="0.00 0.00 347.00 137.75" xmlns="http://www.w3.org/2000/svg" xmlns:xlink="http://www.w3.org/1999/xlink">
<g id="graph0" class="graph" transform="scale(1 1) rotate(0) translate(4 133.75)">
<title>jngl/Widget.hpp</title>
<!-- Node1 -->
<g id="Node000001" class="node">
<title>Node1</title>
<g id="a_Node000001"><a xlink:title="Contains jngl::Container class.">
<polygon fill="#999999" stroke="#666666" points="274,-129.75 168,-129.75 168,-110.5 274,-110.5 274,-129.75"/>
<text text-anchor="middle" x="221" y="-116.25" font-family="ui-monospace,monospace" font-size="10.00">jngl/Widget.hpp</text>
</a>
</g>
</g>
<!-- Node2 -->
<g id="Node000002" class="node">
<title>Node2</title>
<g id="a_Node000002"><a xlink:href="Vec2_8hpp.html" target="_top" xlink:title="Contains jngl::Vec2 class.">
<polygon fill="white" stroke="#666666" points="147,-74.5 83,-74.5 83,-55.25 147,-55.25 147,-74.5"/>
<text text-anchor="middle" x="115" y="-61" font-family="ui-monospace,monospace" font-size="10.00">Vec2.hpp</text>
</a>
</g>
</g>
<!-- Node1&#45;&gt;Node2 -->
<g id="edge1_Node000001_Node000002" class="edge">
<title>Node1&#45;&gt;Node2</title>
<g id="a_edge1_Node000001_Node000002"><a xlink:title=" ">
<path fill="none" stroke="#63b8ff" d="M203.02,-110.09C186.65,-101.87 162.21,-89.59 143.24,-80.06"/>
<polygon fill="#63b8ff" stroke="#63b8ff" points="144.93,-76.99 134.42,-75.63 141.79,-83.25 144.93,-76.99"/>
</a>
</g>
</g>
<!-- Node5 -->
<g id="Node000005" class="node">
<title>Node5</title>
<g id="a_Node000005"><a target="_parent" xlink:href="http://en.cppreference.com/w/cpp/header/memory.html" xlink:title=" ">
<polygon fill="white" stroke="#666666" points="217,-74.5 165,-74.5 165,-55.25 217,-55.25 217,-74.5"/>
<text text-anchor="middle" x="191" y="-61" font-family="ui-monospace,monospace" font-size="10.00">memory</text>
</a>
</g>
</g>
<!-- Node1&#45;&gt;Node5 -->
<g id="edge4_Node000001_Node000005" class="edge">
<title>Node1&#45;&gt;Node5</title>
<g id="a_edge4_Node000001_Node000005"><a xlink:title=" ">
<path fill="none" stroke="#63b8ff" d="M216.05,-110.33C212.12,-103.36 206.49,-93.37 201.56,-84.62"/>
<polygon fill="#63b8ff" stroke="#63b8ff" points="204.76,-83.17 196.8,-76.18 198.66,-86.61 204.76,-83.17"/>
</a>
</g>
</g>
<!-- Node6 -->
<g id="Node000006" class="node">
<title>Node6</title>
<g id="a_Node000006"><a target="_parent" xlink:href="http://en.cppreference.com/w/cpp/header/set.html" xlink:title=" ">
<polygon fill="white" stroke="#666666" points="269,-74.5 235,-74.5 235,-55.25 269,-55.25 269,-74.5"/>
<text text-anchor="middle" x="252" y="-61" font-family="ui-monospace,monospace" font-size="10.00">set</text>
</a>
</g>
</g>
<!-- Node1&#45;&gt;Node6 -->
<g id="edge5_Node000001_Node000006" class="edge">
<title>Node1&#45;&gt;Node6</title>
<g id="a_edge5_Node000001_Node000006"><a xlink:title=" ">
<path fill="none" stroke="#63b8ff" d="M226.12,-110.33C230.18,-103.36 235.99,-93.37 241.09,-84.62"/>
<polygon fill="#63b8ff" stroke="#63b8ff" points="244,-86.57 246.01,-76.17 237.95,-83.05 244,-86.57"/>
</a>
</g>
</g>
<!-- Node7 -->
<g id="Node000007" class="node">
<title>Node7</title>
<g id="a_Node000007"><a target="_parent" xlink:href="http://en.cppreference.com/w/cpp/header/vector.html" xlink:title=" ">
<polygon fill="white" stroke="#666666" points="339,-74.5 287,-74.5 287,-55.25 339,-55.25 339,-74.5"/>
<text text-anchor="middle" x="313" y="-61" font-family="ui-monospace,monospace" font-size="10.00">vector</text>
</a>
</g>
</g>
<!-- Node1&#45;&gt;Node7 -->
<g id="edge6_Node000001_Node000007" class="edge">
<title>Node1&#45;&gt;Node7</title>
<g id="a_edge6_Node000001_Node000007"><a xlink:title=" ">
<path fill="none" stroke="#63b8ff" d="M236.61,-110.09C250.62,-101.98 271.43,-89.93 287.8,-80.46"/>
<polygon fill="#63b8ff" stroke="#63b8ff" points="289.11,-83.75 296.01,-75.71 285.6,-77.69 289.11,-83.75"/>
</a>
</g>
</g>
<!-- Node3 -->
<g id="Node000003" class="node">
<title>Node3</title>
<g id="a_Node000003"><a xlink:title=" ">
<polygon fill="#e0e0e0" stroke="#999999" points="124,-19.25 0,-19.25 0,0 124,0 124,-19.25"/>
<text text-anchor="middle" x="62" y="-5.75" font-family="ui-monospace,monospace" font-size="10.00">boost/qvm_lite.hpp</text>
</a>
</g>
</g>
<!-- Node2&#45;&gt;Node3 -->
<g id="edge2_Node000002_Node000003" class="edge">
<title>Node2&#45;&gt;Node3</title>
<g id="a_edge2_Node000002_Node000003"><a xlink:title=" ">
<path fill="none" stroke="#63b8ff" d="M106.25,-55.08C98.85,-47.65 88.04,-36.79 78.95,-27.66"/>
<polygon fill="#63b8ff" stroke="#63b8ff" points="81.54,-25.3 72.01,-20.68 76.58,-30.24 81.54,-25.3"/>
</a>
</g>
</g>
<!-- Node4 -->
<g id="Node000004" class="node">
<title>Node4</title>
<g id="a_Node000004"><a target="_parent" xlink:href="http://en.cppreference.com/w/cpp/header/iosfwd.html" xlink:title=" ">
<polygon fill="white" stroke="#666666" points="194,-19.25 142,-19.25 142,0 194,0 194,-19.25"/>
<text text-anchor="middle" x="168" y="-5.75" font-family="ui-monospace,monospace" font-size="10.00">iosfwd</text>
</a>
</g>
</g>
<!-- Node2&#45;&gt;Node4 -->
<g id="edge3_Node000002_Node000004" class="edge">
<title>Node2&#45;&gt;Node4</title>
<g id="a_edge3_Node000002_Node000004"><a xlink:title=" ">
<path fill="none" stroke="#63b8ff" d="M123.75,-55.08C131.15,-47.65 141.96,-36.79 151.05,-27.66"/>
<polygon fill="#63b8ff" stroke="#63b8ff" points="153.42,-30.24 157.99,-20.68 148.46,-25.3 153.42,-30.24"/>
</a>
</g>
</g>
</g>
</svg>
