<?xml version="1.0" encoding="UTF-8" standalone="no"?>
<!DOCTYPE svg PUBLIC "-//W3C//DTD SVG 1.1//EN"
 "http://www.w3.org/Graphics/SVG/1.1/DTD/svg11.dtd">
<!-- Generated by graphviz version 9.0.0 (20230911.1827)
 -->
<!-- Title: jngl/Widget.hpp Pages: 1 -->
<svg width="465pt" height="138pt"
 viewBox="0.00 0.00 465.00 137.75" xmlns="http://www.w3.org/2000/svg" xmlns:xlink="http://www.w3.org/1999/xlink">
<g id="graph0" class="graph" transform="scale(1 1) rotate(0) translate(4 133.75)">
<title>jngl/Widget.hpp</title>
<!-- Node1 -->
<g id="Node000001" class="node">
<title>Node1</title>
<g id="a_Node000001"><a xlink:title="Contains jngl::Container class.">
<polygon fill="#999999" stroke="#666666" points="362,-129.75 256,-129.75 256,-110.5 362,-110.5 362,-129.75"/>
<text text-anchor="middle" x="309" y="-116.25" font-family="ui-monospace,monospace" font-size="10.00">jngl/Widget.hpp</text>
</a>
</g>
</g>
<!-- Node2 -->
<g id="Node000002" class="node">
<title>Node2</title>
<g id="a_Node000002"><a xlink:href="Mat3_8hpp.html" target="_top" xlink:title="Contains jngl::Mat3 class.">
<polygon fill="white" stroke="#666666" points="183,-74.5 119,-74.5 119,-55.25 183,-55.25 183,-74.5"/>
<text text-anchor="middle" x="151" y="-61" font-family="ui-monospace,monospace" font-size="10.00">Mat3.hpp</text>
</a>
</g>
</g>
<!-- Node1&#45;&gt;Node2 -->
<g id="edge1_Node000001_Node000002" class="edge">
<title>Node1&#45;&gt;Node2</title>
<g id="a_edge1_Node000001_Node000002"><a xlink:title=" ">
<path fill="none" stroke="#63b8ff" d="M282.2,-110.09C256.55,-101.45 217.61,-88.32 188.81,-78.62"/>
<polygon fill="#63b8ff" stroke="#63b8ff" points="189.96,-75.31 179.37,-75.44 187.73,-81.95 189.96,-75.31"/>
</a>
</g>
</g>
<!-- Node5 -->
<g id="Node000005" class="node">
<title>Node5</title>
<g id="a_Node000005"><a xlink:href="Vec2_8hpp.html" target="_top" xlink:title="Contains jngl::Vec2 class.">
<polygon fill="white" stroke="#666666" points="265,-74.5 201,-74.5 201,-55.25 265,-55.25 265,-74.5"/>
<text text-anchor="middle" x="233" y="-61" font-family="ui-monospace,monospace" font-size="10.00">Vec2.hpp</text>
</a>
</g>
</g>
<!-- Node1&#45;&gt;Node5 -->
<g id="edge4_Node000001_Node000005" class="edge">
<title>Node1&#45;&gt;Node5</title>
<g id="a_edge4_Node000001_Node000005"><a xlink:title=" ">
<path fill="none" stroke="#63b8ff" d="M296.11,-110.09C284.97,-102.29 268.63,-90.84 255.36,-81.54"/>
<polygon fill="#63b8ff" stroke="#63b8ff" points="257.39,-78.69 247.2,-75.82 253.38,-84.43 257.39,-78.69"/>
</a>
</g>
</g>
<!-- Node7 -->
<g id="Node000007" class="node">
<title>Node7</title>
<g id="a_Node000007"><a target="_parent" xlink:href="http://en.cppreference.com/w/cpp/header/memory.html" xlink:title=" ">
<polygon fill="white" stroke="#666666" points="335,-74.5 283,-74.5 283,-55.25 335,-55.25 335,-74.5"/>
<text text-anchor="middle" x="309" y="-61" font-family="ui-monospace,monospace" font-size="10.00">memory</text>
</a>
</g>
</g>
<!-- Node1&#45;&gt;Node7 -->
<g id="edge7_Node000001_Node000007" class="edge">
<title>Node1&#45;&gt;Node7</title>
<g id="a_edge7_Node000001_Node000007"><a xlink:title=" ">
<path fill="none" stroke="#63b8ff" d="M309,-110.33C309,-103.82 309,-94.67 309,-86.37"/>
<polygon fill="#63b8ff" stroke="#63b8ff" points="312.5,-86.37 309,-76.37 305.5,-86.37 312.5,-86.37"/>
</a>
</g>
</g>
<!-- Node8 -->
<g id="Node000008" class="node">
<title>Node8</title>
<g id="a_Node000008"><a target="_parent" xlink:href="http://en.cppreference.com/w/cpp/header/set.html" xlink:title=" ">
<polygon fill="white" stroke="#666666" points="387,-74.5 353,-74.5 353,-55.25 387,-55.25 387,-74.5"/>
<text text-anchor="middle" x="370" y="-61" font-family="ui-monospace,monospace" font-size="10.00">set</text>
</a>
</g>
</g>
<!-- Node1&#45;&gt;Node8 -->
<g id="edge8_Node000001_Node000008" class="edge">
<title>Node1&#45;&gt;Node8</title>
<g id="a_edge8_Node000001_Node000008"><a xlink:title=" ">
<path fill="none" stroke="#63b8ff" d="M319.35,-110.09C328.08,-102.47 340.79,-91.37 351.3,-82.2"/>
<polygon fill="#63b8ff" stroke="#63b8ff" points="353.43,-84.98 358.66,-75.77 348.83,-79.71 353.43,-84.98"/>
</a>
</g>
</g>
<!-- Node9 -->
<g id="Node000009" class="node">
<title>Node9</title>
<g id="a_Node000009"><a target="_parent" xlink:href="http://en.cppreference.com/w/cpp/header/vector.html" xlink:title=" ">
<polygon fill="white" stroke="#666666" points="457,-74.5 405,-74.5 405,-55.25 457,-55.25 457,-74.5"/>
<text text-anchor="middle" x="431" y="-61" font-family="ui-monospace,monospace" font-size="10.00">vector</text>
</a>
</g>
</g>
<!-- Node1&#45;&gt;Node9 -->
<g id="edge9_Node000001_Node000009" class="edge">
<title>Node1&#45;&gt;Node9</title>
<g id="a_edge9_Node000001_Node000009"><a xlink:title=" ">
<path fill="none" stroke="#63b8ff" d="M329.7,-110.09C348.89,-101.72 377.71,-89.13 399.72,-79.53"/>
<polygon fill="#63b8ff" stroke="#63b8ff" points="401.05,-82.77 408.82,-75.56 398.25,-76.35 401.05,-82.77"/>
</a>
</g>
</g>
<!-- Node3 -->
<g id="Node000003" class="node">
<title>Node3</title>
<g id="a_Node000003"><a xlink:title=" ">
<polygon fill="#e0e0e0" stroke="#999999" points="254,-19.25 130,-19.25 130,0 254,0 254,-19.25"/>
<text text-anchor="middle" x="192" y="-5.75" font-family="ui-monospace,monospace" font-size="10.00">boost/qvm_lite.hpp</text>
</a>
</g>
</g>
<!-- Node2&#45;&gt;Node3 -->
<g id="edge2_Node000002_Node000003" class="edge">
<title>Node2&#45;&gt;Node3</title>
<g id="a_edge2_Node000002_Node000003"><a xlink:title=" ">
<path fill="none" stroke="#63b8ff" d="M157.77,-55.08C163.32,-47.88 171.34,-37.46 178.23,-28.51"/>
<polygon fill="#63b8ff" stroke="#63b8ff" points="180.83,-30.87 184.16,-20.81 175.29,-26.6 180.83,-30.87"/>
</a>
</g>
</g>
<!-- Node4 -->
<g id="Node000004" class="node">
<title>Node4</title>
<g id="a_Node000004"><a target="_parent" xlink:href="http://en.cppreference.com/w/cpp/header/initializer_list.html" xlink:title=" ">
<polygon fill="white" stroke="#666666" points="112,-19.25 0,-19.25 0,0 112,0 112,-19.25"/>
<text text-anchor="middle" x="56" y="-5.75" font-family="ui-monospace,monospace" font-size="10.00">initializer_list</text>
</a>
</g>
</g>
<!-- Node2&#45;&gt;Node4 -->
<g id="edge3_Node000002_Node000004" class="edge">
<title>Node2&#45;&gt;Node4</title>
<g id="a_edge3_Node000002_Node000004"><a xlink:title=" ">
<path fill="none" stroke="#63b8ff" d="M134.88,-54.84C120.42,-46.73 98.92,-34.68 82.02,-25.21"/>
<polygon fill="#63b8ff" stroke="#63b8ff" points="83.95,-22.28 73.51,-20.44 80.53,-28.39 83.95,-22.28"/>
</a>
</g>
</g>
<!-- Node5&#45;&gt;Node3 -->
<g id="edge5_Node000005_Node000003" class="edge">
<title>Node5&#45;&gt;Node3</title>
<g id="a_edge5_Node000005_Node000003"><a xlink:title=" ">
<path fill="none" stroke="#63b8ff" d="M226.23,-55.08C220.68,-47.88 212.66,-37.46 205.77,-28.51"/>
<polygon fill="#63b8ff" stroke="#63b8ff" points="208.71,-26.6 199.84,-20.81 203.17,-30.87 208.71,-26.6"/>
</a>
</g>
</g>
<!-- Node6 -->
<g id="Node000006" class="node">
<title>Node6</title>
<g id="a_Node000006"><a target="_parent" xlink:href="http://en.cppreference.com/w/cpp/header/iosfwd.html" xlink:title=" ">
<polygon fill="white" stroke="#666666" points="324,-19.25 272,-19.25 272,0 324,0 324,-19.25"/>
<text text-anchor="middle" x="298" y="-5.75" font-family="ui-monospace,monospace" font-size="10.00">iosfwd</text>
</a>
</g>
</g>
<!-- Node5&#45;&gt;Node6 -->
<g id="edge6_Node000005_Node000006" class="edge">
<title>Node5&#45;&gt;Node6</title>
<g id="a_edge6_Node000005_Node000006"><a xlink:title=" ">
<path fill="none" stroke="#63b8ff" d="M244.03,-54.84C253.42,-47.15 267.15,-35.9 278.41,-26.68"/>
<polygon fill="#63b8ff" stroke="#63b8ff" points="280.45,-29.53 285.97,-20.48 276.01,-24.11 280.45,-29.53"/>
</a>
</g>
</g>
</g>
</svg>
