<?xml version="1.0" encoding="UTF-8" standalone="no"?>
<!DOCTYPE svg PUBLIC "-//W3C//DTD SVG 1.1//EN"
 "http://www.w3.org/Graphics/SVG/1.1/DTD/svg11.dtd">
<!-- Generated by graphviz version 5.0.0 (0)
 -->
<!-- Title: jngl/Widget.hpp Pages: 1 -->
<svg width="347pt" height="137pt"
 viewBox="0.00 0.00 347.00 137.00" xmlns="http://www.w3.org/2000/svg" xmlns:xlink="http://www.w3.org/1999/xlink">
<g id="graph0" class="graph" transform="scale(1 1) rotate(0) translate(4 133)">
<title>jngl/Widget.hpp</title>
<!-- Node1 -->
<g id="node1" class="node">
<title>Node1</title>
<g id="a_node1"><a xlink:title="Contains jngl::Container class.">
<polygon fill="#999999" stroke="#666666" points="273,-129 166,-129 166,-110 273,-110 273,-129"/>
<text text-anchor="middle" x="219.5" y="-117" font-family="ui-monospace,monospace" font-size="10.00">jngl/Widget.hpp</text>
</a>
</g>
</g>
<!-- Node2 -->
<g id="node2" class="node">
<title>Node2</title>
<g id="a_node2"><a xlink:href="Vec2_8hpp.html" target="_top" xlink:title="Contains jngl::Vec2 class.">
<polygon fill="white" stroke="#666666" points="144,-74 79,-74 79,-55 144,-55 144,-74"/>
<text text-anchor="middle" x="111.5" y="-62" font-family="ui-monospace,monospace" font-size="10.00">Vec2.hpp</text>
</a>
</g>
</g>
<!-- Node1&#45;&gt;Node2 -->
<g id="edge1" class="edge">
<title>Node1&#45;&gt;Node2</title>
<path fill="none" stroke="#63b8ff" d="M202.15,-109.98C184.93,-101.54 158.3,-88.47 138.35,-78.68"/>
<polygon fill="#63b8ff" stroke="#63b8ff" points="139.69,-75.43 129.17,-74.17 136.6,-81.72 139.69,-75.43"/>
</g>
<!-- Node5 -->
<g id="node5" class="node">
<title>Node5</title>
<g id="a_node5"><a target="_parent" xlink:href="http://en.cppreference.com/w/cpp/header/memory.html" xlink:title=" ">
<polygon fill="white" stroke="#666666" points="215,-74 162,-74 162,-55 215,-55 215,-74"/>
<text text-anchor="middle" x="188.5" y="-62" font-family="ui-monospace,monospace" font-size="10.00">memory</text>
</a>
</g>
</g>
<!-- Node1&#45;&gt;Node5 -->
<g id="edge4" class="edge">
<title>Node1&#45;&gt;Node5</title>
<path fill="none" stroke="#63b8ff" d="M214.38,-109.75C210.14,-102.49 203.97,-91.95 198.72,-82.98"/>
<polygon fill="#63b8ff" stroke="#63b8ff" points="201.59,-80.95 193.52,-74.09 195.55,-84.49 201.59,-80.95"/>
</g>
<!-- Node6 -->
<g id="node6" class="node">
<title>Node6</title>
<g id="a_node6"><a target="_parent" xlink:href="http://en.cppreference.com/w/cpp/header/set.html" xlink:title=" ">
<polygon fill="white" stroke="#666666" points="268,-74 233,-74 233,-55 268,-55 268,-74"/>
<text text-anchor="middle" x="250.5" y="-62" font-family="ui-monospace,monospace" font-size="10.00">set</text>
</a>
</g>
</g>
<!-- Node1&#45;&gt;Node6 -->
<g id="edge5" class="edge">
<title>Node1&#45;&gt;Node6</title>
<path fill="none" stroke="#63b8ff" d="M224.62,-109.75C228.86,-102.49 235.03,-91.95 240.28,-82.98"/>
<polygon fill="#63b8ff" stroke="#63b8ff" points="243.45,-84.49 245.48,-74.09 237.41,-80.95 243.45,-84.49"/>
</g>
<!-- Node7 -->
<g id="node7" class="node">
<title>Node7</title>
<g id="a_node7"><a target="_parent" xlink:href="http://en.cppreference.com/w/cpp/header/vector.html" xlink:title=" ">
<polygon fill="white" stroke="#666666" points="339,-74 286,-74 286,-55 339,-55 339,-74"/>
<text text-anchor="middle" x="312.5" y="-62" font-family="ui-monospace,monospace" font-size="10.00">vector</text>
</a>
</g>
</g>
<!-- Node1&#45;&gt;Node7 -->
<g id="edge6" class="edge">
<title>Node1&#45;&gt;Node7</title>
<path fill="none" stroke="#63b8ff" d="M234.44,-109.98C249,-101.69 271.37,-88.94 288.43,-79.22"/>
<polygon fill="#63b8ff" stroke="#63b8ff" points="290.33,-82.16 297.29,-74.17 286.86,-76.08 290.33,-82.16"/>
</g>
<!-- Node3 -->
<g id="node3" class="node">
<title>Node3</title>
<g id="a_node3"><a xlink:title=" ">
<polygon fill="#e0e0e0" stroke="#999999" points="119,-19 0,-19 0,0 119,0 119,-19"/>
<text text-anchor="middle" x="59.5" y="-7" font-family="ui-monospace,monospace" font-size="10.00">boost/version.hpp</text>
</a>
</g>
</g>
<!-- Node2&#45;&gt;Node3 -->
<g id="edge2" class="edge">
<title>Node2&#45;&gt;Node3</title>
<path fill="none" stroke="#63b8ff" d="M102.91,-54.75C95.34,-47.03 84.12,-35.6 74.99,-26.28"/>
<polygon fill="#63b8ff" stroke="#63b8ff" points="77.43,-23.78 67.93,-19.09 72.43,-28.68 77.43,-23.78"/>
</g>
<!-- Node4 -->
<g id="node4" class="node">
<title>Node4</title>
<g id="a_node4"><a target="_parent" xlink:href="http://en.cppreference.com/w/cpp/header/iosfwd.html" xlink:title=" ">
<polygon fill="white" stroke="#666666" points="190,-19 137,-19 137,0 190,0 190,-19"/>
<text text-anchor="middle" x="163.5" y="-7" font-family="ui-monospace,monospace" font-size="10.00">iosfwd</text>
</a>
</g>
</g>
<!-- Node2&#45;&gt;Node4 -->
<g id="edge3" class="edge">
<title>Node2&#45;&gt;Node4</title>
<path fill="none" stroke="#63b8ff" d="M120.09,-54.75C127.66,-47.03 138.88,-35.6 148.01,-26.28"/>
<polygon fill="#63b8ff" stroke="#63b8ff" points="150.57,-28.68 155.07,-19.09 145.57,-23.78 150.57,-28.68"/>
</g>
</g>
</svg>
