<?xml version="1.0" encoding="UTF-8" standalone="no"?>
<!DOCTYPE svg PUBLIC "-//W3C//DTD SVG 1.1//EN"
 "http://www.w3.org/Graphics/SVG/1.1/DTD/svg11.dtd">
<!-- Generated by graphviz version 5.0.0 (0)
 -->
<!-- Title: jngl/Widget.hpp Pages: 1 -->
<svg width="152pt" height="137pt"
 viewBox="0.00 0.00 152.00 137.00" xmlns="http://www.w3.org/2000/svg" xmlns:xlink="http://www.w3.org/1999/xlink">
<g id="graph0" class="graph" transform="scale(1 1) rotate(0) translate(4 133)">
<title>jngl/Widget.hpp</title>
<!-- Node1 -->
<g id="node1" class="node">
<title>Node1</title>
<g id="a_node1"><a xlink:title="Contains jngl::Container class.">
<polygon fill="#999999" stroke="#666666" points="107,-129 0,-129 0,-110 107,-110 107,-129"/>
<text text-anchor="middle" x="53.5" y="-117" font-family="ui-monospace,monospace" font-size="10.00">jngl/Widget.hpp</text>
</a>
</g>
</g>
<!-- Node2 -->
<g id="node2" class="node">
<title>Node2</title>
<g id="a_node2"><a xlink:href="jngl_8hpp.html" target="_top" xlink:title="Includes all JNGL headers except for init.hpp.">
<polygon fill="white" stroke="#666666" points="86,-19 21,-19 21,0 86,0 86,-19"/>
<text text-anchor="middle" x="53.5" y="-7" font-family="ui-monospace,monospace" font-size="10.00">jngl.hpp</text>
</a>
</g>
</g>
<!-- Node1&#45;&gt;Node2 -->
<g id="edge1" class="edge">
<title>Node1&#45;&gt;Node2</title>
<path fill="none" stroke="#63b8ff" d="M42.66,-100.64C36.31,-88.05 30.14,-70.69 33.5,-55 36.31,-41.91 43.27,-28.03 48.18,-19.32"/>
<polygon fill="#63b8ff" stroke="#63b8ff" points="39.71,-102.54 47.61,-109.6 45.84,-99.15 39.71,-102.54"/>
</g>
<!-- Node3 -->
<g id="node3" class="node">
<title>Node3</title>
<g id="a_node3"><a xlink:href="Label_8hpp.html" target="_top" xlink:title="Contains jngl::Label class.">
<polygon fill="white" stroke="#666666" points="144,-74 43,-74 43,-55 144,-55 144,-74"/>
<text text-anchor="middle" x="93.5" y="-62" font-family="ui-monospace,monospace" font-size="10.00">jngl/Label.hpp</text>
</a>
</g>
</g>
<!-- Node1&#45;&gt;Node3 -->
<g id="edge2" class="edge">
<title>Node1&#45;&gt;Node3</title>
<path fill="none" stroke="#63b8ff" d="M66.2,-101.67C73.13,-92.5 81.41,-81.52 87.02,-74.09"/>
<polygon fill="#63b8ff" stroke="#63b8ff" points="63.34,-99.66 60.11,-109.75 68.92,-103.87 63.34,-99.66"/>
</g>
<!-- Node3&#45;&gt;Node2 -->
<g id="edge3" class="edge">
<title>Node3&#45;&gt;Node2</title>
<path fill="none" stroke="#63b8ff" d="M80.8,-46.67C73.87,-37.5 65.59,-26.52 59.98,-19.09"/>
<polygon fill="#63b8ff" stroke="#63b8ff" points="78.08,-48.87 86.89,-54.75 83.66,-44.66 78.08,-48.87"/>
</g>
</g>
</svg>
