<?xml version="1.0" encoding="UTF-8" standalone="no"?>
<!DOCTYPE svg PUBLIC "-//W3C//DTD SVG 1.1//EN"
 "http://www.w3.org/Graphics/SVG/1.1/DTD/svg11.dtd">
<!-- Generated by graphviz version 2.38.0 (20140413.2041)
 -->
<!-- Title: jngl/window.hpp Pages: 1 -->
<svg width="118pt" height="84pt"
 viewBox="0.00 0.00 118.00 84.00" xmlns="http://www.w3.org/2000/svg" xmlns:xlink="http://www.w3.org/1999/xlink">
<g id="graph0" class="graph" transform="scale(1 1) rotate(0) translate(4 80)">
<title>jngl/window.hpp</title>
<polygon fill="white" stroke="none" points="-4,4 -4,-80 114,-80 114,4 -4,4"/>
<!-- Node1 -->
<g id="node1" class="node"><title>Node1</title>
<polygon fill="#bfbfbf" stroke="black" points="9,-56.5 9,-75.5 99,-75.5 99,-56.5 9,-56.5"/>
<text text-anchor="middle" x="54" y="-63.5" font-family="Lato" font-size="10.00">jngl/window.hpp</text>
</g>
<!-- Node2 -->
<g id="node2" class="node"><title>Node2</title>
<polygon fill="white" stroke="#bfbfbf" points="0,-0.5 0,-19.5 44,-19.5 44,-0.5 0,-0.5"/>
<text text-anchor="middle" x="22" y="-7.5" font-family="Lato" font-size="10.00">string</text>
</g>
<!-- Node1&#45;&gt;Node2 -->
<g id="edge1" class="edge"><title>Node1&#45;&gt;Node2</title>
<path fill="none" stroke="midnightblue" d="M48.7159,-56.083C44.289,-48.6127 37.8367,-37.7244 32.3821,-28.5199"/>
<polygon fill="midnightblue" stroke="midnightblue" points="35.2949,-26.5697 27.1858,-19.7511 29.2729,-30.1383 35.2949,-26.5697"/>
</g>
<!-- Node3 -->
<g id="node3" class="node"><title>Node3</title>
<g id="a_node3"><a xlink:href="dll_8hpp_source.html" target="_top" xlink:title="dll.hpp">
<polygon fill="white" stroke="black" points="62,-0.5 62,-19.5 110,-19.5 110,-0.5 62,-0.5"/>
<text text-anchor="middle" x="86" y="-7.5" font-family="Lato" font-size="10.00">dll.hpp</text>
</a>
</g>
</g>
<!-- Node1&#45;&gt;Node3 -->
<g id="edge2" class="edge"><title>Node1&#45;&gt;Node3</title>
<path fill="none" stroke="midnightblue" d="M59.2841,-56.083C63.711,-48.6127 70.1633,-37.7244 75.6179,-28.5199"/>
<polygon fill="midnightblue" stroke="midnightblue" points="78.7271,-30.1383 80.8142,-19.7511 72.7051,-26.5697 78.7271,-30.1383"/>
</g>
</g>
</svg>
