<?xml version="1.0" encoding="UTF-8" standalone="no"?>
<!DOCTYPE svg PUBLIC "-//W3C//DTD SVG 1.1//EN"
 "http://www.w3.org/Graphics/SVG/1.1/DTD/svg11.dtd">
<!-- Generated by graphviz version 12.1.0 (20240811.2233)
 -->
<!-- Title: jngl/window.hpp Pages: 1 -->
<svg width="256pt" height="138pt"
 viewBox="0.00 0.00 256.19 137.75" xmlns="http://www.w3.org/2000/svg" xmlns:xlink="http://www.w3.org/1999/xlink">
<g id="graph0" class="graph" transform="scale(1 1) rotate(0) translate(4 133.75)">
<title>jngl/window.hpp</title>
<!-- Node1 -->
<g id="Node000001" class="node">
<title>Node1</title>
<g id="a_Node000001"><a xlink:title="Functions related to the main window.">
<polygon fill="#999999" stroke="#666666" points="127.19,-129.75 21.19,-129.75 21.19,-110.5 127.19,-110.5 127.19,-129.75"/>
<text text-anchor="middle" x="74.19" y="-116.25" font-family="ui-monospace,monospace" font-size="10.00">jngl/window.hpp</text>
</a>
</g>
</g>
<!-- Node2 -->
<g id="Node000002" class="node">
<title>Node2</title>
<g id="a_Node000002"><a xlink:href="jngl_8hpp.html" target="_top" xlink:title="Includes all JNGL headers except for init.hpp.">
<polygon fill="white" stroke="#666666" points="106.19,-19.25 42.19,-19.25 42.19,0 106.19,0 106.19,-19.25"/>
<text text-anchor="middle" x="74.19" y="-5.75" font-family="ui-monospace,monospace" font-size="10.00">jngl.hpp</text>
</a>
</g>
</g>
<!-- Node1&#45;&gt;Node2 -->
<g id="edge1_Node000001_Node000002" class="edge">
<title>Node1&#45;&gt;Node2</title>
<g id="a_edge1_Node000001_Node000002"><a xlink:title=" ">
<path fill="none" stroke="#63b8ff" d="M37.61,-105.18C24.31,-98.13 10.71,-88.11 3.19,-74.5 -10.2,-50.26 24.09,-30.47 49.56,-19.63"/>
<polygon fill="#63b8ff" stroke="#63b8ff" points="35.72,-108.16 46.25,-109.36 38.77,-101.86 35.72,-108.16"/>
</a>
</g>
</g>
<!-- Node3 -->
<g id="Node000003" class="node">
<title>Node3</title>
<g id="a_Node000003"><a xlink:href="Singleton_8hpp.html" target="_top" xlink:title="Contains jngl::Singleton base class.">
<polygon fill="white" stroke="#666666" points="136.19,-74.5 12.19,-74.5 12.19,-55.25 136.19,-55.25 136.19,-74.5"/>
<text text-anchor="middle" x="74.19" y="-61" font-family="ui-monospace,monospace" font-size="10.00">jngl/Singleton.hpp</text>
</a>
</g>
</g>
<!-- Node1&#45;&gt;Node3 -->
<g id="edge2_Node000001_Node000003" class="edge">
<title>Node1&#45;&gt;Node3</title>
<g id="a_edge2_Node000001_Node000003"><a xlink:title=" ">
<path fill="none" stroke="#63b8ff" d="M74.19,-98.88C74.19,-90.59 74.19,-81.42 74.19,-74.86"/>
<polygon fill="#63b8ff" stroke="#63b8ff" points="70.69,-98.82 74.19,-108.82 77.69,-98.82 70.69,-98.82"/>
</a>
</g>
</g>
<!-- Node4 -->
<g id="Node000004" class="node">
<title>Node4</title>
<g id="a_Node000004"><a xlink:href="main_8hpp.html" target="_top" xlink:title="Defines macros for the main entry point.">
<polygon fill="white" stroke="#666666" points="248.19,-74.5 154.19,-74.5 154.19,-55.25 248.19,-55.25 248.19,-74.5"/>
<text text-anchor="middle" x="201.19" y="-61" font-family="ui-monospace,monospace" font-size="10.00">jngl/main.hpp</text>
</a>
</g>
</g>
<!-- Node1&#45;&gt;Node4 -->
<g id="edge4_Node000001_Node000004" class="edge">
<title>Node1&#45;&gt;Node4</title>
<g id="a_edge4_Node000001_Node000004"><a xlink:title=" ">
<path fill="none" stroke="#63b8ff" d="M106.32,-105.65C129.24,-96.04 159.44,-83.38 179.54,-74.95"/>
<polygon fill="#63b8ff" stroke="#63b8ff" points="105,-102.41 97.13,-109.51 107.71,-108.87 105,-102.41"/>
</a>
</g>
</g>
<!-- Node3&#45;&gt;Node2 -->
<g id="edge3_Node000003_Node000002" class="edge">
<title>Node3&#45;&gt;Node2</title>
<g id="a_edge3_Node000003_Node000002"><a xlink:title=" ">
<path fill="none" stroke="#63b8ff" d="M74.19,-43.63C74.19,-35.34 74.19,-26.17 74.19,-19.61"/>
<polygon fill="#63b8ff" stroke="#63b8ff" points="70.69,-43.57 74.19,-53.57 77.69,-43.57 70.69,-43.57"/>
</a>
</g>
</g>
<!-- Node4&#45;&gt;Node2 -->
<g id="edge5_Node000004_Node000002" class="edge">
<title>Node4&#45;&gt;Node2</title>
<g id="a_edge5_Node000004_Node000002"><a xlink:title=" ">
<path fill="none" stroke="#63b8ff" d="M169.06,-50.4C146.14,-40.79 115.95,-28.13 95.84,-19.7"/>
<polygon fill="#63b8ff" stroke="#63b8ff" points="167.68,-53.62 178.25,-54.26 170.38,-47.16 167.68,-53.62"/>
</a>
</g>
</g>
<!-- Node5 -->
<g id="Node000005" class="node">
<title>Node5</title>
<g id="a_Node000005"><a xlink:href="init_8hpp.html" target="_top" xlink:title="Include this file only once, as it defines the main function.">
<polygon fill="white" stroke="#666666" points="248.19,-19.25 154.19,-19.25 154.19,0 248.19,0 248.19,-19.25"/>
<text text-anchor="middle" x="201.19" y="-5.75" font-family="ui-monospace,monospace" font-size="10.00">jngl/init.hpp</text>
</a>
</g>
</g>
<!-- Node4&#45;&gt;Node5 -->
<g id="edge6_Node000004_Node000005" class="edge">
<title>Node4&#45;&gt;Node5</title>
<g id="a_edge6_Node000004_Node000005"><a xlink:title=" ">
<path fill="none" stroke="#63b8ff" d="M201.19,-43.63C201.19,-35.34 201.19,-26.17 201.19,-19.61"/>
<polygon fill="#63b8ff" stroke="#63b8ff" points="197.69,-43.57 201.19,-53.57 204.69,-43.57 197.69,-43.57"/>
</a>
</g>
</g>
</g>
</svg>
