<?xml version="1.0" encoding="UTF-8" standalone="no"?>
<!DOCTYPE svg PUBLIC "-//W3C//DTD SVG 1.1//EN"
 "http://www.w3.org/Graphics/SVG/1.1/DTD/svg11.dtd">
<!-- Generated by graphviz version 2.42.4 (0)
 -->
<!-- Title: jngl/window.hpp Pages: 1 -->
<svg width="210pt" height="196pt"
 viewBox="0.00 0.00 210.00 196.00" xmlns="http://www.w3.org/2000/svg" xmlns:xlink="http://www.w3.org/1999/xlink">
<g id="graph0" class="graph" transform="scale(1 1) rotate(0) translate(4 192)">
<title>jngl/window.hpp</title>
<polygon fill="white" stroke="transparent" points="-4,4 -4,-192 206,-192 206,4 -4,4"/>
<!-- Node1 -->
<g id="node1" class="node">
<title>Node1</title>
<g id="a_node1"><a xlink:title="Functions related to the main window.">
<polygon fill="#bfbfbf" stroke="black" points="29,-168.5 29,-187.5 136,-187.5 136,-168.5 29,-168.5"/>
<text text-anchor="middle" x="82.5" y="-175.5" font-family="'Consolas',monospace" font-size="10.00">jngl/window.hpp</text>
</a>
</g>
</g>
<!-- Node2 -->
<g id="node2" class="node">
<title>Node2</title>
<g id="a_node2"><a xlink:href="all_8hpp.html" target="_top" xlink:title="Includes all JNGL headers except for init.hpp.">
<polygon fill="white" stroke="black" points="0,-56.5 0,-75.5 89,-75.5 89,-56.5 0,-56.5"/>
<text text-anchor="middle" x="44.5" y="-63.5" font-family="'Consolas',monospace" font-size="10.00">jngl/all.hpp</text>
</a>
</g>
</g>
<!-- Node1&#45;&gt;Node2 -->
<g id="edge1" class="edge">
<title>Node1&#45;&gt;Node2</title>
<path fill="none" stroke="midnightblue" d="M74.97,-159.15C71.61,-150.94 67.69,-141.04 64.5,-132 57.5,-112.18 50.57,-88.5 46.99,-75.91"/>
<polygon fill="midnightblue" stroke="midnightblue" points="71.77,-160.56 78.84,-168.45 78.23,-157.88 71.77,-160.56"/>
</g>
<!-- Node4 -->
<g id="node4" class="node">
<title>Node4</title>
<g id="a_node4"><a xlink:href="main_8hpp_source.html" target="_top" xlink:title=" ">
<polygon fill="white" stroke="black" points="73,-112.5 73,-131.5 168,-131.5 168,-112.5 73,-112.5"/>
<text text-anchor="middle" x="120.5" y="-119.5" font-family="'Consolas',monospace" font-size="10.00">jngl/main.hpp</text>
</a>
</g>
</g>
<!-- Node1&#45;&gt;Node4 -->
<g id="edge3" class="edge">
<title>Node1&#45;&gt;Node4</title>
<path fill="none" stroke="midnightblue" d="M94.56,-159.86C101.14,-150.5 109.01,-139.33 114.34,-131.75"/>
<polygon fill="midnightblue" stroke="midnightblue" points="91.67,-157.89 88.77,-168.08 97.39,-161.92 91.67,-157.89"/>
</g>
<!-- Node3 -->
<g id="node3" class="node">
<title>Node3</title>
<g id="a_node3"><a xlink:href="jngl_8hpp_source.html" target="_top" xlink:title=" ">
<polygon fill="white" stroke="black" points="12,-0.5 12,-19.5 77,-19.5 77,-0.5 12,-0.5"/>
<text text-anchor="middle" x="44.5" y="-7.5" font-family="'Consolas',monospace" font-size="10.00">jngl.hpp</text>
</a>
</g>
</g>
<!-- Node2&#45;&gt;Node3 -->
<g id="edge2" class="edge">
<title>Node2&#45;&gt;Node3</title>
<path fill="none" stroke="midnightblue" d="M44.5,-45.8C44.5,-36.91 44.5,-26.78 44.5,-19.75"/>
<polygon fill="midnightblue" stroke="midnightblue" points="41,-46.08 44.5,-56.08 48,-46.08 41,-46.08"/>
</g>
<!-- Node4&#45;&gt;Node2 -->
<g id="edge4" class="edge">
<title>Node4&#45;&gt;Node2</title>
<path fill="none" stroke="midnightblue" d="M99.92,-106.38C86.19,-96.62 68.57,-84.11 56.93,-75.83"/>
<polygon fill="midnightblue" stroke="midnightblue" points="98.11,-109.38 108.29,-112.32 102.16,-103.68 98.11,-109.38"/>
</g>
<!-- Node5 -->
<g id="node5" class="node">
<title>Node5</title>
<g id="a_node5"><a xlink:href="init_8hpp.html" target="_top" xlink:title="Include this file only once, as it defines the main function.">
<polygon fill="white" stroke="black" points="107,-56.5 107,-75.5 202,-75.5 202,-56.5 107,-56.5"/>
<text text-anchor="middle" x="154.5" y="-63.5" font-family="'Consolas',monospace" font-size="10.00">jngl/init.hpp</text>
</a>
</g>
</g>
<!-- Node4&#45;&gt;Node5 -->
<g id="edge5" class="edge">
<title>Node4&#45;&gt;Node5</title>
<path fill="none" stroke="midnightblue" d="M131.48,-103.57C137.33,-94.27 144.27,-83.25 148.99,-75.75"/>
<polygon fill="midnightblue" stroke="midnightblue" points="128.48,-101.76 126.11,-112.08 134.4,-105.49 128.48,-101.76"/>
</g>
</g>
</svg>
