<?xml version="1.0" encoding="UTF-8" standalone="no"?>
<!DOCTYPE svg PUBLIC "-//W3C//DTD SVG 1.1//EN"
 "http://www.w3.org/Graphics/SVG/1.1/DTD/svg11.dtd">
<!-- Generated by graphviz version 5.0.0 (0)
 -->
<!-- Title: jngl/window.hpp Pages: 1 -->
<svg width="302pt" height="192pt"
 viewBox="0.00 0.00 302.00 192.00" xmlns="http://www.w3.org/2000/svg" xmlns:xlink="http://www.w3.org/1999/xlink">
<g id="graph0" class="graph" transform="scale(1 1) rotate(0) translate(4 188)">
<title>jngl/window.hpp</title>
<!-- Node1 -->
<g id="node1" class="node">
<title>Node1</title>
<g id="a_node1"><a xlink:title="Functions related to the main window.">
<polygon fill="#999999" stroke="#666666" points="207,-184 100,-184 100,-165 207,-165 207,-184"/>
<text text-anchor="middle" x="153.5" y="-172" font-family="ui-monospace,monospace" font-size="10.00">jngl/window.hpp</text>
</a>
</g>
</g>
<!-- Node2 -->
<g id="node2" class="node">
<title>Node2</title>
<g id="a_node2"><a xlink:href="Singleton_8hpp.html" target="_top" xlink:title="Contains jngl::Singleton base class.">
<polygon fill="white" stroke="#666666" points="125,-129 0,-129 0,-110 125,-110 125,-129"/>
<text text-anchor="middle" x="62.5" y="-117" font-family="ui-monospace,monospace" font-size="10.00">jngl/Singleton.hpp</text>
</a>
</g>
</g>
<!-- Node1&#45;&gt;Node2 -->
<g id="edge1" class="edge">
<title>Node1&#45;&gt;Node2</title>
<path fill="none" stroke="#63b8ff" d="M129.8,-159.7C113.22,-150.04 91.59,-137.44 77.39,-129.17"/>
<polygon fill="#63b8ff" stroke="#63b8ff" points="128.48,-162.98 138.88,-164.98 132,-156.93 128.48,-162.98"/>
</g>
<!-- Node3 -->
<g id="node3" class="node">
<title>Node3</title>
<g id="a_node3"><a xlink:href="all_8hpp.html" target="_top" xlink:title="Includes all JNGL headers except for init.hpp.">
<polygon fill="white" stroke="#666666" points="181,-74 92,-74 92,-55 181,-55 181,-74"/>
<text text-anchor="middle" x="136.5" y="-62" font-family="ui-monospace,monospace" font-size="10.00">jngl/all.hpp</text>
</a>
</g>
</g>
<!-- Node1&#45;&gt;Node3 -->
<g id="edge4" class="edge">
<title>Node1&#45;&gt;Node3</title>
<path fill="none" stroke="#63b8ff" d="M150.51,-154.48C146.79,-130.84 140.59,-91.5 137.86,-74.16"/>
<polygon fill="#63b8ff" stroke="#63b8ff" points="147.1,-155.33 152.11,-164.66 154.01,-154.24 147.1,-155.33"/>
</g>
<!-- Node5 -->
<g id="node5" class="node">
<title>Node5</title>
<g id="a_node5"><a xlink:href="main_8hpp.html" target="_top" xlink:title="Defines macros for the main entry point.">
<polygon fill="white" stroke="#666666" points="277,-129 182,-129 182,-110 277,-110 277,-129"/>
<text text-anchor="middle" x="229.5" y="-117" font-family="ui-monospace,monospace" font-size="10.00">jngl/main.hpp</text>
</a>
</g>
</g>
<!-- Node1&#45;&gt;Node5 -->
<g id="edge5" class="edge">
<title>Node1&#45;&gt;Node5</title>
<path fill="none" stroke="#63b8ff" d="M174.08,-159.15C187.81,-149.57 205.43,-137.29 217.07,-129.17"/>
<polygon fill="#63b8ff" stroke="#63b8ff" points="171.91,-156.39 165.71,-164.98 175.92,-162.14 171.91,-156.39"/>
</g>
<!-- Node2&#45;&gt;Node3 -->
<g id="edge2" class="edge">
<title>Node2&#45;&gt;Node3</title>
<path fill="none" stroke="#63b8ff" d="M82.53,-104.15C95.91,-94.57 113.06,-82.29 124.39,-74.17"/>
<polygon fill="#63b8ff" stroke="#63b8ff" points="80.48,-101.32 74.39,-109.98 84.56,-107.01 80.48,-101.32"/>
</g>
<!-- Node4 -->
<g id="node4" class="node">
<title>Node4</title>
<g id="a_node4"><a xlink:href="jngl_8hpp.html" target="_top" xlink:title="Includes jngl/all.hpp.">
<polygon fill="white" stroke="#666666" points="169,-19 104,-19 104,0 169,0 169,-19"/>
<text text-anchor="middle" x="136.5" y="-7" font-family="ui-monospace,monospace" font-size="10.00">jngl.hpp</text>
</a>
</g>
</g>
<!-- Node3&#45;&gt;Node4 -->
<g id="edge3" class="edge">
<title>Node3&#45;&gt;Node4</title>
<path fill="none" stroke="#63b8ff" d="M136.5,-44.66C136.5,-35.93 136.5,-25.99 136.5,-19.09"/>
<polygon fill="#63b8ff" stroke="#63b8ff" points="133,-44.75 136.5,-54.75 140,-44.75 133,-44.75"/>
</g>
<!-- Node5&#45;&gt;Node3 -->
<g id="edge6" class="edge">
<title>Node5&#45;&gt;Node3</title>
<path fill="none" stroke="#63b8ff" d="M205.75,-104.97C188.75,-95.28 166.37,-82.52 151.71,-74.17"/>
<polygon fill="#63b8ff" stroke="#63b8ff" points="204.14,-108.07 214.56,-109.98 207.6,-101.99 204.14,-108.07"/>
</g>
<!-- Node6 -->
<g id="node6" class="node">
<title>Node6</title>
<g id="a_node6"><a xlink:href="init_8hpp.html" target="_top" xlink:title="Include this file only once, as it defines the main function.">
<polygon fill="white" stroke="#666666" points="294,-74 199,-74 199,-55 294,-55 294,-74"/>
<text text-anchor="middle" x="246.5" y="-62" font-family="ui-monospace,monospace" font-size="10.00">jngl/init.hpp</text>
</a>
</g>
</g>
<!-- Node5&#45;&gt;Node6 -->
<g id="edge7" class="edge">
<title>Node5&#45;&gt;Node6</title>
<path fill="none" stroke="#63b8ff" d="M235.45,-99.95C238.27,-91.15 241.51,-81.06 243.75,-74.09"/>
<polygon fill="#63b8ff" stroke="#63b8ff" points="232.03,-99.16 232.31,-109.75 238.69,-101.29 232.03,-99.16"/>
</g>
</g>
</svg>
