<?xml version="1.0" encoding="UTF-8" standalone="no"?>
<!DOCTYPE svg PUBLIC "-//W3C//DTD SVG 1.1//EN"
 "http://www.w3.org/Graphics/SVG/1.1/DTD/svg11.dtd">
<!-- Generated by graphviz version 5.0.0 (0)
 -->
<!-- Title: jngl/window.hpp Pages: 1 -->
<svg width="246pt" height="137pt"
 viewBox="0.00 0.00 246.00 137.00" xmlns="http://www.w3.org/2000/svg" xmlns:xlink="http://www.w3.org/1999/xlink">
<g id="graph0" class="graph" transform="scale(1 1) rotate(0) translate(4 133)">
<title>jngl/window.hpp</title>
<!-- Node1 -->
<g id="node1" class="node">
<title>Node1</title>
<g id="a_node1"><a xlink:title="Functions related to the main window.">
<polygon fill="#999999" stroke="#666666" points="180,-129 73,-129 73,-110 180,-110 180,-129"/>
<text text-anchor="middle" x="126.5" y="-117" font-family="ui-monospace,monospace" font-size="10.00">jngl/window.hpp</text>
</a>
</g>
</g>
<!-- Node2 -->
<g id="node2" class="node">
<title>Node2</title>
<g id="a_node2"><a xlink:href="Singleton_8hpp.html" target="_top" xlink:title="Contains jngl::Singleton base class.">
<polygon fill="white" stroke="#666666" points="125,-74 0,-74 0,-55 125,-55 125,-74"/>
<text text-anchor="middle" x="62.5" y="-62" font-family="ui-monospace,monospace" font-size="10.00">jngl/Singleton.hpp</text>
</a>
</g>
</g>
<!-- Node1&#45;&gt;Node2 -->
<g id="edge1" class="edge">
<title>Node1&#45;&gt;Node2</title>
<path fill="none" stroke="#63b8ff" d="M108.51,-103.6C97.04,-94.11 82.59,-82.13 72.97,-74.17"/>
<polygon fill="#63b8ff" stroke="#63b8ff" points="106.28,-106.3 116.22,-109.98 110.75,-100.91 106.28,-106.3"/>
</g>
<!-- Node4 -->
<g id="node4" class="node">
<title>Node4</title>
<g id="a_node4"><a xlink:href="main_8hpp.html" target="_top" xlink:title="Defines macros for the main entry point.">
<polygon fill="white" stroke="#666666" points="238,-74 143,-74 143,-55 238,-55 238,-74"/>
<text text-anchor="middle" x="190.5" y="-62" font-family="ui-monospace,monospace" font-size="10.00">jngl/main.hpp</text>
</a>
</g>
</g>
<!-- Node1&#45;&gt;Node4 -->
<g id="edge3" class="edge">
<title>Node1&#45;&gt;Node4</title>
<path fill="none" stroke="#63b8ff" d="M144.49,-103.6C155.96,-94.11 170.41,-82.13 180.03,-74.17"/>
<polygon fill="#63b8ff" stroke="#63b8ff" points="142.25,-100.91 136.78,-109.98 146.72,-106.3 142.25,-100.91"/>
</g>
<!-- Node3 -->
<g id="node3" class="node">
<title>Node3</title>
<g id="a_node3"><a xlink:href="jngl_8hpp.html" target="_top" xlink:title="Includes all JNGL headers except for init.hpp.">
<polygon fill="white" stroke="#666666" points="95,-19 30,-19 30,0 95,0 95,-19"/>
<text text-anchor="middle" x="62.5" y="-7" font-family="ui-monospace,monospace" font-size="10.00">jngl.hpp</text>
</a>
</g>
</g>
<!-- Node2&#45;&gt;Node3 -->
<g id="edge2" class="edge">
<title>Node2&#45;&gt;Node3</title>
<path fill="none" stroke="#63b8ff" d="M62.5,-44.66C62.5,-35.93 62.5,-25.99 62.5,-19.09"/>
<polygon fill="#63b8ff" stroke="#63b8ff" points="59,-44.75 62.5,-54.75 66,-44.75 59,-44.75"/>
</g>
<!-- Node5 -->
<g id="node5" class="node">
<title>Node5</title>
<g id="a_node5"><a xlink:href="init_8hpp.html" target="_top" xlink:title="Include this file only once, as it defines the main function.">
<polygon fill="white" stroke="#666666" points="238,-19 143,-19 143,0 238,0 238,-19"/>
<text text-anchor="middle" x="190.5" y="-7" font-family="ui-monospace,monospace" font-size="10.00">jngl/init.hpp</text>
</a>
</g>
</g>
<!-- Node4&#45;&gt;Node5 -->
<g id="edge4" class="edge">
<title>Node4&#45;&gt;Node5</title>
<path fill="none" stroke="#63b8ff" d="M190.5,-44.66C190.5,-35.93 190.5,-25.99 190.5,-19.09"/>
<polygon fill="#63b8ff" stroke="#63b8ff" points="187,-44.75 190.5,-54.75 194,-44.75 187,-44.75"/>
</g>
</g>
</svg>
