<?xml version="1.0" encoding="UTF-8" standalone="no"?>
<!DOCTYPE svg PUBLIC "-//W3C//DTD SVG 1.1//EN"
 "http://www.w3.org/Graphics/SVG/1.1/DTD/svg11.dtd">
<!-- Generated by graphviz version 2.38.0 (20140413.2041)
 -->
<!-- Title: jngl/window.hpp Pages: 1 -->
<svg width="128pt" height="196pt"
 viewBox="0.00 0.00 127.50 196.00" xmlns="http://www.w3.org/2000/svg" xmlns:xlink="http://www.w3.org/1999/xlink">
<g id="graph0" class="graph" transform="scale(1 1) rotate(0) translate(4 192)">
<title>jngl/window.hpp</title>
<polygon fill="white" stroke="none" points="-4,4 -4,-192 123.5,-192 123.5,4 -4,4"/>
<!-- Node1 -->
<g id="node1" class="node"><title>Node1</title>
<polygon fill="#bfbfbf" stroke="black" points="29.5,-168.5 29.5,-187.5 119.5,-187.5 119.5,-168.5 29.5,-168.5"/>
<text text-anchor="middle" x="74.5" y="-175.5" font-family="Lato" font-size="10.00">jngl/window.hpp</text>
</g>
<!-- Node2 -->
<g id="node2" class="node"><title>Node2</title>
<g id="a_node2"><a xlink:href="main_8hpp_source.html" target="_top" xlink:title="jngl/main.hpp">
<polygon fill="white" stroke="black" points="0,-112.5 0,-131.5 81,-131.5 81,-112.5 0,-112.5"/>
<text text-anchor="middle" x="40.5" y="-119.5" font-family="Lato" font-size="10.00">jngl/main.hpp</text>
</a>
</g>
</g>
<!-- Node1&#45;&gt;Node2 -->
<g id="edge1" class="edge"><title>Node1&#45;&gt;Node2</title>
<path fill="none" stroke="midnightblue" d="M63.5228,-159.566C57.673,-150.275 50.7305,-139.248 46.0099,-131.751"/>
<polygon fill="midnightblue" stroke="midnightblue" points="60.5956,-161.486 68.8856,-168.083 66.5192,-157.756 60.5956,-161.486"/>
</g>
<!-- Node3 -->
<g id="node3" class="node"><title>Node3</title>
<g id="a_node3"><a xlink:href="all_8hpp.html" target="_top" xlink:title="Includes all JNGL headers. ">
<polygon fill="white" stroke="black" points="40.5,-56.5 40.5,-75.5 108.5,-75.5 108.5,-56.5 40.5,-56.5"/>
<text text-anchor="middle" x="74.5" y="-63.5" font-family="Lato" font-size="10.00">jngl/all.hpp</text>
</a>
</g>
</g>
<!-- Node1&#45;&gt;Node3 -->
<g id="edge4" class="edge"><title>Node1&#45;&gt;Node3</title>
<path fill="none" stroke="midnightblue" d="M83.0319,-159.059C88.1884,-146.086 93.2745,-128.085 90.5,-112 88.245,-98.9264 82.5587,-84.6167 78.6112,-75.7229"/>
<polygon fill="midnightblue" stroke="midnightblue" points="79.8123,-157.686 79.0302,-168.252 86.2306,-160.48 79.8123,-157.686"/>
</g>
<!-- Node2&#45;&gt;Node3 -->
<g id="edge2" class="edge"><title>Node2&#45;&gt;Node3</title>
<path fill="none" stroke="midnightblue" d="M51.4772,-103.566C57.327,-94.2747 64.2695,-83.2484 68.9901,-75.7511"/>
<polygon fill="midnightblue" stroke="midnightblue" points="48.4808,-101.756 46.1144,-112.083 54.4044,-105.486 48.4808,-101.756"/>
</g>
<!-- Node4 -->
<g id="node4" class="node"><title>Node4</title>
<g id="a_node4"><a xlink:href="jngl_8hpp_source.html" target="_top" xlink:title="jngl.hpp">
<polygon fill="white" stroke="black" points="47.5,-0.5 47.5,-19.5 101.5,-19.5 101.5,-0.5 47.5,-0.5"/>
<text text-anchor="middle" x="74.5" y="-7.5" font-family="Lato" font-size="10.00">jngl.hpp</text>
</a>
</g>
</g>
<!-- Node3&#45;&gt;Node4 -->
<g id="edge3" class="edge"><title>Node3&#45;&gt;Node4</title>
<path fill="none" stroke="midnightblue" d="M74.5,-45.8045C74.5,-36.9102 74.5,-26.7798 74.5,-19.7511"/>
<polygon fill="midnightblue" stroke="midnightblue" points="71.0001,-46.083 74.5,-56.083 78.0001,-46.083 71.0001,-46.083"/>
</g>
</g>
</svg>
