<?xml version="1.0" encoding="UTF-8" standalone="no"?>
<!DOCTYPE svg PUBLIC "-//W3C//DTD SVG 1.1//EN"
 "http://www.w3.org/Graphics/SVG/1.1/DTD/svg11.dtd">
<!-- Generated by graphviz version 2.43.0 (0)
 -->
<!-- Title: jngl/window.hpp Pages: 1 -->
<svg width="292pt" height="140pt"
 viewBox="0.00 0.00 292.00 140.00" xmlns="http://www.w3.org/2000/svg" xmlns:xlink="http://www.w3.org/1999/xlink">
<g id="graph0" class="graph" transform="scale(1 1) rotate(0) translate(4 136)">
<title>jngl/window.hpp</title>
<polygon fill="white" stroke="transparent" points="-4,4 -4,-136 288,-136 288,4 -4,4"/>
<!-- Node1 -->
<g id="node1" class="node">
<title>Node1</title>
<g id="a_node1"><a xlink:title="Functions related to the main window.">
<polygon fill="#bfbfbf" stroke="black" points="99,-112.5 99,-131.5 206,-131.5 206,-112.5 99,-112.5"/>
<text text-anchor="middle" x="152.5" y="-119.5" font-family="'Consolas',monospace" font-size="10.00">jngl/window.hpp</text>
</a>
</g>
</g>
<!-- Node2 -->
<g id="node2" class="node">
<title>Node2</title>
<g id="a_node2"><a xlink:href="Pixels_8hpp.html" target="_top" xlink:title="Contains jngl::Pixels class.">
<polygon fill="white" stroke="black" points="0,-56.5 0,-75.5 77,-75.5 77,-56.5 0,-56.5"/>
<text text-anchor="middle" x="38.5" y="-63.5" font-family="'Consolas',monospace" font-size="10.00">Pixels.hpp</text>
</a>
</g>
</g>
<!-- Node1&#45;&gt;Node2 -->
<g id="edge1" class="edge">
<title>Node1&#45;&gt;Node2</title>
<path fill="none" stroke="midnightblue" d="M134.44,-112.44C115.93,-103.68 86.92,-89.94 65.64,-79.86"/>
<polygon fill="midnightblue" stroke="midnightblue" points="67.01,-76.63 56.48,-75.52 64.02,-82.96 67.01,-76.63"/>
</g>
<!-- Node4 -->
<g id="node4" class="node">
<title>Node4</title>
<g id="a_node4"><a target="_parent" xlink:href="http://en.cppreference.com/w/cpp/header/array.html" xlink:title=" ">
<polygon fill="white" stroke="black" points="95,-56.5 95,-75.5 142,-75.5 142,-56.5 95,-56.5"/>
<text text-anchor="middle" x="118.5" y="-63.5" font-family="'Consolas',monospace" font-size="10.00">array</text>
</a>
</g>
</g>
<!-- Node1&#45;&gt;Node4 -->
<g id="edge3" class="edge">
<title>Node1&#45;&gt;Node4</title>
<path fill="none" stroke="midnightblue" d="M146.89,-112.08C142.13,-104.53 135.18,-93.49 129.35,-84.23"/>
<polygon fill="midnightblue" stroke="midnightblue" points="132.3,-82.35 124.01,-75.75 126.38,-86.08 132.3,-82.35"/>
</g>
<!-- Node5 -->
<g id="node5" class="node">
<title>Node5</title>
<g id="a_node5"><a target="_parent" xlink:href="http://en.cppreference.com/w/cpp/header/string.html" xlink:title=" ">
<polygon fill="white" stroke="black" points="160,-56.5 160,-75.5 213,-75.5 213,-56.5 160,-56.5"/>
<text text-anchor="middle" x="186.5" y="-63.5" font-family="'Consolas',monospace" font-size="10.00">string</text>
</a>
</g>
</g>
<!-- Node1&#45;&gt;Node5 -->
<g id="edge4" class="edge">
<title>Node1&#45;&gt;Node5</title>
<path fill="none" stroke="midnightblue" d="M158.11,-112.08C162.87,-104.53 169.82,-93.49 175.65,-84.23"/>
<polygon fill="midnightblue" stroke="midnightblue" points="178.62,-86.08 180.99,-75.75 172.7,-82.35 178.62,-86.08"/>
</g>
<!-- Node6 -->
<g id="node6" class="node">
<title>Node6</title>
<g id="a_node6"><a target="_parent" xlink:href="http://en.cppreference.com/w/cpp/header/vector.html" xlink:title=" ">
<polygon fill="white" stroke="black" points="231,-56.5 231,-75.5 284,-75.5 284,-56.5 231,-56.5"/>
<text text-anchor="middle" x="257.5" y="-63.5" font-family="'Consolas',monospace" font-size="10.00">vector</text>
</a>
</g>
</g>
<!-- Node1&#45;&gt;Node6 -->
<g id="edge5" class="edge">
<title>Node1&#45;&gt;Node6</title>
<path fill="none" stroke="midnightblue" d="M169.37,-112.32C186.21,-103.66 212.31,-90.24 231.74,-80.25"/>
<polygon fill="midnightblue" stroke="midnightblue" points="233.38,-83.34 240.67,-75.65 230.18,-77.12 233.38,-83.34"/>
</g>
<!-- Node3 -->
<g id="node3" class="node">
<title>Node3</title>
<g id="a_node3"><a target="_parent" xlink:href="http://en.cppreference.com/w/cpp/header/cstdint.html" xlink:title=" ">
<polygon fill="white" stroke="black" points="9,-0.5 9,-19.5 68,-19.5 68,-0.5 9,-0.5"/>
<text text-anchor="middle" x="38.5" y="-7.5" font-family="'Consolas',monospace" font-size="10.00">cstdint</text>
</a>
</g>
</g>
<!-- Node2&#45;&gt;Node3 -->
<g id="edge2" class="edge">
<title>Node2&#45;&gt;Node3</title>
<path fill="none" stroke="midnightblue" d="M38.5,-56.08C38.5,-49.01 38.5,-38.86 38.5,-29.99"/>
<polygon fill="midnightblue" stroke="midnightblue" points="42,-29.75 38.5,-19.75 35,-29.75 42,-29.75"/>
</g>
</g>
</svg>
