<?xml version="1.0" encoding="UTF-8" standalone="no"?>
<!DOCTYPE svg PUBLIC "-//W3C//DTD SVG 1.1//EN"
 "http://www.w3.org/Graphics/SVG/1.1/DTD/svg11.dtd">
<!-- Generated by graphviz version 2.40.1 (20161225.0304)
 -->
<!-- Title: jngl/window.hpp Pages: 1 -->
<svg width="138pt" height="84pt"
 viewBox="0.00 0.00 138.00 84.00" xmlns="http://www.w3.org/2000/svg" xmlns:xlink="http://www.w3.org/1999/xlink">
<g id="graph0" class="graph" transform="scale(1 1) rotate(0) translate(4 80)">
<title>jngl/window.hpp</title>
<polygon fill="#ffffff" stroke="transparent" points="-4,4 -4,-80 134,-80 134,4 -4,4"/>
<!-- Node0 -->
<g id="node1" class="node">
<title>Node0</title>
<polygon fill="#bfbfbf" stroke="#000000" points="10,-56.5 10,-75.5 117,-75.5 117,-56.5 10,-56.5"/>
<text text-anchor="middle" x="63.5" y="-63.5" font-family="'Consolas',monospace" font-size="10.00" fill="#000000">jngl/window.hpp</text>
</g>
<!-- Node1 -->
<g id="node2" class="node">
<title>Node1</title>
<g id="a_node2"><a doxygen="/home/travis/build/jhasse/jngl/doc/cppreference-doxygen-web.tag.xml:http://en.cppreference.com/w/" xlink:href="http://en.cppreference.com/w/cpp/header/string.html" target="_top" xlink:title="string">
<polygon fill="#ffffff" stroke="#000000" points="0,-.5 0,-19.5 53,-19.5 53,-.5 0,-.5"/>
<text text-anchor="middle" x="26.5" y="-7.5" font-family="'Consolas',monospace" font-size="10.00" fill="#000000">string</text>
</a>
</g>
</g>
<!-- Node0&#45;&gt;Node1 -->
<g id="edge1" class="edge">
<title>Node0&#45;&gt;Node1</title>
<path fill="none" stroke="#191970" d="M57.0551,-56.2455C51.9618,-48.5367 44.7092,-37.5598 38.548,-28.2348"/>
<polygon fill="#191970" stroke="#191970" points="41.3038,-26.0566 32.8711,-19.6427 35.4635,-29.9155 41.3038,-26.0566"/>
</g>
<!-- Node2 -->
<g id="node3" class="node">
<title>Node2</title>
<g id="a_node3"><a xlink:href="dll_8hpp_source.html" target="_top" xlink:title="dll.hpp">
<polygon fill="#ffffff" stroke="#000000" points="71,-.5 71,-19.5 130,-19.5 130,-.5 71,-.5"/>
<text text-anchor="middle" x="100.5" y="-7.5" font-family="'Consolas',monospace" font-size="10.00" fill="#000000">dll.hpp</text>
</a>
</g>
</g>
<!-- Node0&#45;&gt;Node2 -->
<g id="edge2" class="edge">
<title>Node0&#45;&gt;Node2</title>
<path fill="none" stroke="#191970" d="M69.9449,-56.2455C75.0382,-48.5367 82.2908,-37.5598 88.452,-28.2348"/>
<polygon fill="#191970" stroke="#191970" points="91.5365,-29.9155 94.1289,-19.6427 85.6962,-26.0566 91.5365,-29.9155"/>
</g>
</g>
</svg>
