<?xml version="1.0" encoding="UTF-8" standalone="no"?>
<!DOCTYPE svg PUBLIC "-//W3C//DTD SVG 1.1//EN"
 "http://www.w3.org/Graphics/SVG/1.1/DTD/svg11.dtd">
<!-- Generated by graphviz version 2.40.1 (0)
 -->
<!-- Title: jngl/window.hpp Pages: 1 -->
<svg width="108pt" height="86pt"
 viewBox="0.00 0.00 108.42 86.00" xmlns="http://www.w3.org/2000/svg" xmlns:xlink="http://www.w3.org/1999/xlink">
<g id="graph0" class="graph" transform="scale(1 1) rotate(0) translate(4 82)">
<title>jngl/window.hpp</title>
<polygon fill="#ffffff" stroke="transparent" points="-4,4 -4,-82 104.417,-82 104.417,4 -4,4"/>
<!-- Node0 -->
<g id="node1" class="node">
<title>Node0</title>
<polygon fill="#bfbfbf" stroke="#000000" points="6.361,-57.5 6.361,-77.5 90.415,-77.5 90.415,-57.5 6.361,-57.5"/>
<text text-anchor="middle" x="48.388" y="-64.5" font-family="Lato" font-size="10.00" fill="#000000">jngl/window.hpp</text>
</g>
<!-- Node1 -->
<g id="node2" class="node">
<title>Node1</title>
<polygon fill="#ffffff" stroke="#bfbfbf" points="0,-.5 0,-20.5 38.776,-20.5 38.776,-.5 0,-.5"/>
<text text-anchor="middle" x="19.388" y="-7.5" font-family="Lato" font-size="10.00" fill="#000000">string</text>
</g>
<!-- Node0&#45;&gt;Node1 -->
<g id="edge1" class="edge">
<title>Node0&#45;&gt;Node1</title>
<path fill="none" stroke="#191970" d="M43.2034,-57.3095C39.2857,-49.6093 33.7947,-38.8166 29.0724,-29.5349"/>
<polygon fill="#191970" stroke="#191970" points="32.1818,-27.9279 24.5277,-20.6022 25.9429,-31.1021 32.1818,-27.9279"/>
</g>
<!-- Node2 -->
<g id="node3" class="node">
<title>Node2</title>
<g id="a_node3"><a xlink:href="dll_8hpp_source.html" target="_top" xlink:title="dll.hpp">
<polygon fill="#ffffff" stroke="#000000" points="56.359,-.5 56.359,-20.5 100.417,-20.5 100.417,-.5 56.359,-.5"/>
<text text-anchor="middle" x="78.388" y="-7.5" font-family="Lato" font-size="10.00" fill="#000000">dll.hpp</text>
</a>
</g>
</g>
<!-- Node0&#45;&gt;Node2 -->
<g id="edge2" class="edge">
<title>Node0&#45;&gt;Node2</title>
<path fill="none" stroke="#191970" d="M53.7514,-57.3095C57.8042,-49.6093 63.4845,-38.8166 68.3697,-29.5349"/>
<polygon fill="#191970" stroke="#191970" points="71.5107,-31.0816 73.071,-20.6022 65.3163,-27.8213 71.5107,-31.0816"/>
</g>
</g>
</svg>
