<?xml version="1.0" encoding="UTF-8" standalone="no"?>
<!DOCTYPE svg PUBLIC "-//W3C//DTD SVG 1.1//EN"
 "http://www.w3.org/Graphics/SVG/1.1/DTD/svg11.dtd">
<!-- Generated by graphviz version 2.40.1 (0)
 -->
<!-- Title: jngl/window.hpp Pages: 1 -->
<svg width="112pt" height="84pt"
 viewBox="0.00 0.00 111.50 84.00" xmlns="http://www.w3.org/2000/svg" xmlns:xlink="http://www.w3.org/1999/xlink">
<g id="graph0" class="graph" transform="scale(1 1) rotate(0) translate(4 80)">
<title>jngl/window.hpp</title>
<polygon fill="#ffffff" stroke="transparent" points="-4,4 -4,-80 107.5,-80 107.5,4 -4,4"/>
<!-- Node0 -->
<g id="node1" class="node">
<title>Node0</title>
<polygon fill="#bfbfbf" stroke="#000000" points="7,-56.5 7,-75.5 94,-75.5 94,-56.5 7,-56.5"/>
<text text-anchor="middle" x="50.5" y="-63.5" font-family="Lato" font-size="10.00" fill="#000000">jngl/window.hpp</text>
</g>
<!-- Node1 -->
<g id="node2" class="node">
<title>Node1</title>
<polygon fill="#ffffff" stroke="#bfbfbf" points="0,-.5 0,-19.5 41,-19.5 41,-.5 0,-.5"/>
<text text-anchor="middle" x="20.5" y="-7.5" font-family="Lato" font-size="10.00" fill="#000000">string</text>
</g>
<!-- Node0&#45;&gt;Node1 -->
<g id="edge1" class="edge">
<title>Node0&#45;&gt;Node1</title>
<path fill="none" stroke="#191970" d="M45.2744,-56.2455C41.1877,-48.617 35.3865,-37.7881 30.425,-28.5267"/>
<polygon fill="#191970" stroke="#191970" points="33.4732,-26.8047 25.6657,-19.6427 27.3028,-30.1103 33.4732,-26.8047"/>
</g>
<!-- Node2 -->
<g id="node3" class="node">
<title>Node2</title>
<g id="a_node3"><a xlink:href="dll_8hpp_source.html" target="_top" xlink:title="dll.hpp">
<polygon fill="#ffffff" stroke="#000000" points="59.5,-.5 59.5,-19.5 103.5,-19.5 103.5,-.5 59.5,-.5"/>
<text text-anchor="middle" x="81.5" y="-7.5" font-family="Lato" font-size="10.00" fill="#000000">dll.hpp</text>
</a>
</g>
</g>
<!-- Node0&#45;&gt;Node2 -->
<g id="edge2" class="edge">
<title>Node0&#45;&gt;Node2</title>
<path fill="none" stroke="#191970" d="M55.8998,-56.2455C60.1227,-48.617 66.1173,-37.7881 71.2441,-28.5267"/>
<polygon fill="#191970" stroke="#191970" points="74.381,-30.0867 76.1621,-19.6427 68.2568,-26.6965 74.381,-30.0867"/>
</g>
</g>
</svg>
