<?xml version="1.0" encoding="UTF-8" standalone="no"?>
<!DOCTYPE svg PUBLIC "-//W3C//DTD SVG 1.1//EN"
 "http://www.w3.org/Graphics/SVG/1.1/DTD/svg11.dtd">
<!-- Generated by graphviz version 5.0.0 (0)
 -->
<!-- Title: jngl/window.hpp Pages: 1 -->
<svg width="259pt" height="137pt"
 viewBox="0.00 0.00 258.72 137.00" xmlns="http://www.w3.org/2000/svg" xmlns:xlink="http://www.w3.org/1999/xlink">
<g id="graph0" class="graph" transform="scale(1 1) rotate(0) translate(4 133)">
<title>jngl/window.hpp</title>
<!-- Node1 -->
<g id="node1" class="node">
<title>Node1</title>
<g id="a_node1"><a xlink:title="Functions related to the main window.">
<polygon fill="#999999" stroke="#666666" points="128.72,-129 21.72,-129 21.72,-110 128.72,-110 128.72,-129"/>
<text text-anchor="middle" x="75.22" y="-117" font-family="ui-monospace,monospace" font-size="10.00">jngl/window.hpp</text>
</a>
</g>
</g>
<!-- Node2 -->
<g id="node2" class="node">
<title>Node2</title>
<g id="a_node2"><a xlink:href="jngl_8hpp.html" target="_top" xlink:title="Includes all JNGL headers except for init.hpp.">
<polygon fill="white" stroke="#666666" points="107.72,-19 42.72,-19 42.72,0 107.72,0 107.72,-19"/>
<text text-anchor="middle" x="75.22" y="-7" font-family="ui-monospace,monospace" font-size="10.00">jngl.hpp</text>
</a>
</g>
</g>
<!-- Node1&#45;&gt;Node2 -->
<g id="edge1" class="edge">
<title>Node1&#45;&gt;Node2</title>
<path fill="none" stroke="#63b8ff" d="M40.26,-105.82C26.12,-98.76 11.27,-88.42 3.22,-74 -10.41,-49.54 24.86,-29.84 50.72,-19.18"/>
<polygon fill="#63b8ff" stroke="#63b8ff" points="38.82,-109.01 49.37,-109.99 41.74,-102.64 38.82,-109.01"/>
</g>
<!-- Node3 -->
<g id="node3" class="node">
<title>Node3</title>
<g id="a_node3"><a xlink:href="Singleton_8hpp.html" target="_top" xlink:title="Contains jngl::Singleton base class.">
<polygon fill="white" stroke="#666666" points="137.72,-74 12.72,-74 12.72,-55 137.72,-55 137.72,-74"/>
<text text-anchor="middle" x="75.22" y="-62" font-family="ui-monospace,monospace" font-size="10.00">jngl/Singleton.hpp</text>
</a>
</g>
</g>
<!-- Node1&#45;&gt;Node3 -->
<g id="edge2" class="edge">
<title>Node1&#45;&gt;Node3</title>
<path fill="none" stroke="#63b8ff" d="M75.22,-99.66C75.22,-90.93 75.22,-80.99 75.22,-74.09"/>
<polygon fill="#63b8ff" stroke="#63b8ff" points="71.72,-99.75 75.22,-109.75 78.72,-99.75 71.72,-99.75"/>
</g>
<!-- Node4 -->
<g id="node4" class="node">
<title>Node4</title>
<g id="a_node4"><a xlink:href="main_8hpp.html" target="_top" xlink:title="Defines macros for the main entry point.">
<polygon fill="white" stroke="#666666" points="250.72,-74 155.72,-74 155.72,-55 250.72,-55 250.72,-74"/>
<text text-anchor="middle" x="203.22" y="-62" font-family="ui-monospace,monospace" font-size="10.00">jngl/main.hpp</text>
</a>
</g>
</g>
<!-- Node1&#45;&gt;Node4 -->
<g id="edge4" class="edge">
<title>Node1&#45;&gt;Node4</title>
<path fill="none" stroke="#63b8ff" d="M105.34,-106.03C129.01,-96.23 161.37,-82.83 182.29,-74.17"/>
<polygon fill="#63b8ff" stroke="#63b8ff" points="103.69,-102.93 95.79,-109.98 106.37,-109.39 103.69,-102.93"/>
</g>
<!-- Node3&#45;&gt;Node2 -->
<g id="edge3" class="edge">
<title>Node3&#45;&gt;Node2</title>
<path fill="none" stroke="#63b8ff" d="M75.22,-44.66C75.22,-35.93 75.22,-25.99 75.22,-19.09"/>
<polygon fill="#63b8ff" stroke="#63b8ff" points="71.72,-44.75 75.22,-54.75 78.72,-44.75 71.72,-44.75"/>
</g>
<!-- Node4&#45;&gt;Node2 -->
<g id="edge5" class="edge">
<title>Node4&#45;&gt;Node2</title>
<path fill="none" stroke="#63b8ff" d="M173.11,-51.03C149.44,-41.23 117.08,-27.83 96.16,-19.17"/>
<polygon fill="#63b8ff" stroke="#63b8ff" points="172.08,-54.39 182.66,-54.98 174.76,-47.93 172.08,-54.39"/>
</g>
<!-- Node5 -->
<g id="node5" class="node">
<title>Node5</title>
<g id="a_node5"><a xlink:href="init_8hpp.html" target="_top" xlink:title="Include this file only once, as it defines the main function.">
<polygon fill="white" stroke="#666666" points="250.72,-19 155.72,-19 155.72,0 250.72,0 250.72,-19"/>
<text text-anchor="middle" x="203.22" y="-7" font-family="ui-monospace,monospace" font-size="10.00">jngl/init.hpp</text>
</a>
</g>
</g>
<!-- Node4&#45;&gt;Node5 -->
<g id="edge6" class="edge">
<title>Node4&#45;&gt;Node5</title>
<path fill="none" stroke="#63b8ff" d="M203.22,-44.66C203.22,-35.93 203.22,-25.99 203.22,-19.09"/>
<polygon fill="#63b8ff" stroke="#63b8ff" points="199.72,-44.75 203.22,-54.75 206.72,-44.75 199.72,-44.75"/>
</g>
</g>
</svg>
