<?xml version="1.0" encoding="UTF-8" standalone="no"?>
<!DOCTYPE svg PUBLIC "-//W3C//DTD SVG 1.1//EN"
 "http://www.w3.org/Graphics/SVG/1.1/DTD/svg11.dtd">
<!-- Generated by graphviz version 2.38.0 (20140413.2041)
 -->
<!-- Title: jngl/work.hpp Pages: 1 -->
<svg width="159pt" height="140pt"
 viewBox="0.00 0.00 159.00 140.00" xmlns="http://www.w3.org/2000/svg" xmlns:xlink="http://www.w3.org/1999/xlink">
<g id="graph0" class="graph" transform="scale(1 1) rotate(0) translate(4 136)">
<title>jngl/work.hpp</title>
<polygon fill="white" stroke="none" points="-4,4 -4,-136 155,-136 155,4 -4,4"/>
<!-- Node1 -->
<g id="node1" class="node"><title>Node1</title>
<polygon fill="#bfbfbf" stroke="black" points="30,-112.5 30,-131.5 125,-131.5 125,-112.5 30,-112.5"/>
<text text-anchor="middle" x="77.5" y="-119.5" font-family="'Consolas',monospace" font-size="10.00">jngl/work.hpp</text>
</g>
<!-- Node2 -->
<g id="node2" class="node"><title>Node2</title>
<g id="a_node2"><a xlink:href="dll_8hpp_source.html" target="_top" xlink:title="dll.hpp">
<polygon fill="white" stroke="black" points="0,-0.5 0,-19.5 59,-19.5 59,-0.5 0,-0.5"/>
<text text-anchor="middle" x="29.5" y="-7.5" font-family="'Consolas',monospace" font-size="10.00">dll.hpp</text>
</a>
</g>
</g>
<!-- Node1&#45;&gt;Node2 -->
<g id="edge1" class="edge"><title>Node1&#45;&gt;Node2</title>
<path fill="none" stroke="midnightblue" d="M67.346,-112.488C58.1869,-104.185 45.1621,-90.6873 38.5,-76 31.9483,-61.5561 29.8609,-43.5987 29.3198,-30.221"/>
<polygon fill="midnightblue" stroke="midnightblue" points="32.814,-29.7951 29.1689,-19.8471 25.8148,-29.897 32.814,-29.7951"/>
</g>
<!-- Node3 -->
<g id="node3" class="node"><title>Node3</title>
<g id="a_node3"><a xlink:href="job_8hpp.html" target="_top" xlink:title="job.hpp">
<polygon fill="white" stroke="black" points="48,-56.5 48,-75.5 107,-75.5 107,-56.5 48,-56.5"/>
<text text-anchor="middle" x="77.5" y="-63.5" font-family="'Consolas',monospace" font-size="10.00">job.hpp</text>
</a>
</g>
</g>
<!-- Node1&#45;&gt;Node3 -->
<g id="edge2" class="edge"><title>Node1&#45;&gt;Node3</title>
<path fill="none" stroke="midnightblue" d="M77.5,-112.083C77.5,-105.006 77.5,-94.8611 77.5,-85.9865"/>
<polygon fill="midnightblue" stroke="midnightblue" points="81.0001,-85.751 77.5,-75.7511 74.0001,-85.7511 81.0001,-85.751"/>
</g>
<!-- Node4 -->
<g id="node4" class="node"><title>Node4</title>
<polygon fill="white" stroke="#bfbfbf" points="98,-0.5 98,-19.5 151,-19.5 151,-0.5 98,-0.5"/>
<text text-anchor="middle" x="124.5" y="-7.5" font-family="'Consolas',monospace" font-size="10.00">memory</text>
</g>
<!-- Node1&#45;&gt;Node4 -->
<g id="edge5" class="edge"><title>Node1&#45;&gt;Node4</title>
<path fill="none" stroke="midnightblue" d="M87.3914,-112.434C96.3141,-104.092 109.004,-90.569 115.5,-76 121.959,-61.5144 124.054,-43.5607 124.622,-30.1949"/>
<polygon fill="midnightblue" stroke="midnightblue" points="128.128,-29.8912 124.799,-19.8328 121.129,-29.7716 128.128,-29.8912"/>
</g>
<!-- Node3&#45;&gt;Node2 -->
<g id="edge4" class="edge"><title>Node3&#45;&gt;Node2</title>
<path fill="none" stroke="midnightblue" d="M69.5738,-56.083C62.6539,-48.2982 52.4346,-36.8015 44.048,-27.3665"/>
<polygon fill="midnightblue" stroke="midnightblue" points="46.5383,-24.8999 37.2787,-19.7511 41.3065,-29.5505 46.5383,-24.8999"/>
</g>
<!-- Node3&#45;&gt;Node4 -->
<g id="edge3" class="edge"><title>Node3&#45;&gt;Node4</title>
<path fill="none" stroke="midnightblue" d="M85.2611,-56.083C92.0368,-48.2982 102.043,-36.8015 110.255,-27.3665"/>
<polygon fill="midnightblue" stroke="midnightblue" points="112.958,-29.592 116.883,-19.7511 107.678,-24.9963 112.958,-29.592"/>
</g>
</g>
</svg>
