<?xml version="1.0" encoding="UTF-8" standalone="no"?>
<!DOCTYPE svg PUBLIC "-//W3C//DTD SVG 1.1//EN"
 "http://www.w3.org/Graphics/SVG/1.1/DTD/svg11.dtd">
<!-- Generated by graphviz version 2.40.1 (0)
 -->
<!-- Title: jngl/work.hpp Pages: 1 -->
<svg width="86pt" height="140pt"
 viewBox="0.00 0.00 86.00 140.00" xmlns="http://www.w3.org/2000/svg" xmlns:xlink="http://www.w3.org/1999/xlink">
<g id="graph0" class="graph" transform="scale(1 1) rotate(0) translate(4 136)">
<title>jngl/work.hpp</title>
<polygon fill="#ffffff" stroke="transparent" points="-4,4 -4,-136 82,-136 82,4 -4,4"/>
<!-- Node3 -->
<g id="node1" class="node">
<title>Node3</title>
<polygon fill="#bfbfbf" stroke="#000000" points="0,-112.5 0,-131.5 78,-131.5 78,-112.5 0,-112.5"/>
<text text-anchor="middle" x="39" y="-119.5" font-family="Lato" font-size="10.00" fill="#000000">jngl/work.hpp</text>
</g>
<!-- Node4 -->
<g id="node2" class="node">
<title>Node4</title>
<g id="a_node2"><a xlink:href="all_8hpp.html" target="_top" xlink:title="Includes all JNGL headers. ">
<polygon fill="#ffffff" stroke="#000000" points="6,-56.5 6,-75.5 72,-75.5 72,-56.5 6,-56.5"/>
<text text-anchor="middle" x="39" y="-63.5" font-family="Lato" font-size="10.00" fill="#000000">jngl/all.hpp</text>
</a>
</g>
</g>
<!-- Node3&#45;&gt;Node4 -->
<g id="edge1" class="edge">
<title>Node3&#45;&gt;Node4</title>
<path fill="none" stroke="#191970" d="M39,-102.1575C39,-93.155 39,-82.9199 39,-75.6427"/>
<polygon fill="#191970" stroke="#191970" points="35.5001,-102.2455 39,-112.2455 42.5001,-102.2456 35.5001,-102.2455"/>
</g>
<!-- Node5 -->
<g id="node3" class="node">
<title>Node5</title>
<g id="a_node3"><a xlink:href="jngl_8hpp_source.html" target="_top" xlink:title="jngl.hpp">
<polygon fill="#ffffff" stroke="#000000" points="13,-.5 13,-19.5 65,-19.5 65,-.5 13,-.5"/>
<text text-anchor="middle" x="39" y="-7.5" font-family="Lato" font-size="10.00" fill="#000000">jngl.hpp</text>
</a>
</g>
</g>
<!-- Node4&#45;&gt;Node5 -->
<g id="edge2" class="edge">
<title>Node4&#45;&gt;Node5</title>
<path fill="none" stroke="#191970" d="M39,-46.1575C39,-37.155 39,-26.9199 39,-19.6427"/>
<polygon fill="#191970" stroke="#191970" points="35.5001,-46.2455 39,-56.2455 42.5001,-46.2456 35.5001,-46.2455"/>
</g>
</g>
</svg>
