<?xml version="1.0" encoding="UTF-8" standalone="no"?>
<!DOCTYPE svg PUBLIC "-//W3C//DTD SVG 1.1//EN"
 "http://www.w3.org/Graphics/SVG/1.1/DTD/svg11.dtd">
<!-- Generated by graphviz version 2.44.0 (0)
 -->
<!-- Title: jngl/work.hpp Pages: 1 -->
<svg width="114pt" height="140pt"
 viewBox="0.00 0.00 114.00 140.00" xmlns="http://www.w3.org/2000/svg" xmlns:xlink="http://www.w3.org/1999/xlink">
<g id="graph0" class="graph" transform="scale(1 1) rotate(0) translate(4 136)">
<title>jngl/work.hpp</title>
<polygon fill="white" stroke="transparent" points="-4,4 -4,-136 110,-136 110,4 -4,4"/>
<!-- Node1 -->
<g id="node1" class="node">
<title>Node1</title>
<g id="a_node1"><a xlink:title=" ">
<polygon fill="#bfbfbf" stroke="black" points="11,-112.5 11,-131.5 106,-131.5 106,-112.5 11,-112.5"/>
<text text-anchor="middle" x="58.5" y="-119.5" font-family="'Consolas',monospace" font-size="10.00">jngl/work.hpp</text>
</a>
</g>
</g>
<!-- Node2 -->
<g id="node2" class="node">
<title>Node2</title>
<g id="a_node2"><a xlink:href="job_8hpp.html" target="_top" xlink:title="Contains jngl::Job class and related functions.">
<polygon fill="white" stroke="black" points="0,-56.5 0,-75.5 59,-75.5 59,-56.5 0,-56.5"/>
<text text-anchor="middle" x="29.5" y="-63.5" font-family="'Consolas',monospace" font-size="10.00">job.hpp</text>
</a>
</g>
</g>
<!-- Node1&#45;&gt;Node2 -->
<g id="edge1" class="edge">
<title>Node1&#45;&gt;Node2</title>
<path fill="none" stroke="midnightblue" d="M53.71,-112.08C49.74,-104.69 43.97,-93.95 39.07,-84.81"/>
<polygon fill="midnightblue" stroke="midnightblue" points="42.01,-82.91 34.2,-75.75 35.85,-86.22 42.01,-82.91"/>
</g>
<!-- Node3 -->
<g id="node3" class="node">
<title>Node3</title>
<g id="a_node3"><a target="_parent" xlink:href="http://en.cppreference.com/w/cpp/header/memory.html" xlink:title=" ">
<polygon fill="white" stroke="black" points="32,-0.5 32,-19.5 85,-19.5 85,-0.5 32,-0.5"/>
<text text-anchor="middle" x="58.5" y="-7.5" font-family="'Consolas',monospace" font-size="10.00">memory</text>
</a>
</g>
</g>
<!-- Node1&#45;&gt;Node3 -->
<g id="edge3" class="edge">
<title>Node1&#45;&gt;Node3</title>
<path fill="none" stroke="midnightblue" d="M61.34,-112.2C65.02,-99.74 70.72,-76.2 68.5,-56 67.53,-47.14 65.51,-37.47 63.54,-29.38"/>
<polygon fill="midnightblue" stroke="midnightblue" points="66.88,-28.33 60.98,-19.53 60.11,-30.09 66.88,-28.33"/>
</g>
<!-- Node2&#45;&gt;Node3 -->
<g id="edge2" class="edge">
<title>Node2&#45;&gt;Node3</title>
<path fill="none" stroke="midnightblue" d="M34.29,-56.08C38.26,-48.69 44.03,-37.95 48.93,-28.81"/>
<polygon fill="midnightblue" stroke="midnightblue" points="52.15,-30.22 53.8,-19.75 45.99,-26.91 52.15,-30.22"/>
</g>
</g>
</svg>
