<?xml version="1.0" encoding="UTF-8" standalone="no"?>
<!DOCTYPE svg PUBLIC "-//W3C//DTD SVG 1.1//EN"
 "http://www.w3.org/Graphics/SVG/1.1/DTD/svg11.dtd">
<!-- Generated by graphviz version 2.36.0 (20140111.2315)
 -->
<!-- Title: jngl/work.hpp Pages: 1 -->
<svg width="86pt" height="140pt"
 viewBox="0.00 0.00 86.00 140.00" xmlns="http://www.w3.org/2000/svg" xmlns:xlink="http://www.w3.org/1999/xlink">
<g id="graph0" class="graph" transform="scale(1 1) rotate(0) translate(4 136)">
<title>jngl/work.hpp</title>
<polygon fill="white" stroke="none" points="-4,4 -4,-136 82,-136 82,4 -4,4"/>
<!-- Node1 -->
<g id="node1" class="node"><title>Node1</title>
<polygon fill="#bfbfbf" stroke="black" points="-0.5,-112.5 -0.5,-131.5 78.5,-131.5 78.5,-112.5 -0.5,-112.5"/>
<text text-anchor="middle" x="39" y="-119.5" font-family="Lato" font-size="10.00">jngl/work.hpp</text>
</g>
<!-- Node2 -->
<g id="node2" class="node"><title>Node2</title>
<g id="a_node2"><a xlink:href="all_8hpp.html" target="_top" xlink:title="Includes all JNGL headers. ">
<polygon fill="white" stroke="black" points="5,-56.5 5,-75.5 73,-75.5 73,-56.5 5,-56.5"/>
<text text-anchor="middle" x="39" y="-63.5" font-family="Lato" font-size="10.00">jngl/all.hpp</text>
</a>
</g>
</g>
<!-- Node1&#45;&gt;Node2 -->
<g id="edge1" class="edge"><title>Node1&#45;&gt;Node2</title>
<path fill="none" stroke="midnightblue" d="M39,-101.805C39,-92.9102 39,-82.7798 39,-75.7511"/>
<polygon fill="midnightblue" stroke="midnightblue" points="35.5001,-102.083 39,-112.083 42.5001,-102.083 35.5001,-102.083"/>
</g>
<!-- Node3 -->
<g id="node3" class="node"><title>Node3</title>
<g id="a_node3"><a xlink:href="jngl_8hpp_source.html" target="_top" xlink:title="jngl.hpp">
<polygon fill="white" stroke="black" points="12,-0.5 12,-19.5 66,-19.5 66,-0.5 12,-0.5"/>
<text text-anchor="middle" x="39" y="-7.5" font-family="Lato" font-size="10.00">jngl.hpp</text>
</a>
</g>
</g>
<!-- Node2&#45;&gt;Node3 -->
<g id="edge2" class="edge"><title>Node2&#45;&gt;Node3</title>
<path fill="none" stroke="midnightblue" d="M39,-45.8045C39,-36.9102 39,-26.7798 39,-19.7511"/>
<polygon fill="midnightblue" stroke="midnightblue" points="35.5001,-46.083 39,-56.083 42.5001,-46.083 35.5001,-46.083"/>
</g>
</g>
</svg>
