<?xml version="1.0" encoding="UTF-8" standalone="no"?>
<!DOCTYPE svg PUBLIC "-//W3C//DTD SVG 1.1//EN"
 "http://www.w3.org/Graphics/SVG/1.1/DTD/svg11.dtd">
<!-- Generated by graphviz version 2.40.1 (0)
 -->
<!-- Title: jngl/work.hpp Pages: 1 -->
<svg width="120pt" height="86pt"
 viewBox="0.00 0.00 119.69 86.00" xmlns="http://www.w3.org/2000/svg" xmlns:xlink="http://www.w3.org/1999/xlink">
<g id="graph0" class="graph" transform="scale(1 1) rotate(0) translate(4 82)">
<title>jngl/work.hpp</title>
<polygon fill="#ffffff" stroke="transparent" points="-4,4 -4,-82 115.692,-82 115.692,4 -4,4"/>
<!-- Node0 -->
<g id="node1" class="node">
<title>Node0</title>
<polygon fill="#bfbfbf" stroke="#000000" points="17.8365,-57.5 17.8365,-77.5 90.2215,-77.5 90.2215,-57.5 17.8365,-57.5"/>
<text text-anchor="middle" x="54.029" y="-64.5" font-family="Lato" font-size="10.00" fill="#000000">jngl/work.hpp</text>
</g>
<!-- Node1 -->
<g id="node2" class="node">
<title>Node1</title>
<g id="a_node2"><a xlink:href="dll_8hpp_source.html" target="_top" xlink:title="dll.hpp">
<polygon fill="#ffffff" stroke="#000000" points="0,-.5 0,-20.5 44.058,-20.5 44.058,-.5 0,-.5"/>
<text text-anchor="middle" x="22.029" y="-7.5" font-family="Lato" font-size="10.00" fill="#000000">dll.hpp</text>
</a>
</g>
</g>
<!-- Node0&#45;&gt;Node1 -->
<g id="edge1" class="edge">
<title>Node0&#45;&gt;Node1</title>
<path fill="none" stroke="#191970" d="M48.308,-57.3095C43.9851,-49.6093 37.926,-38.8166 32.7152,-29.5349"/>
<polygon fill="#191970" stroke="#191970" points="35.6478,-27.6087 27.7004,-20.6022 29.5439,-31.0355 35.6478,-27.6087"/>
</g>
<!-- Node2 -->
<g id="node3" class="node">
<title>Node2</title>
<polygon fill="#ffffff" stroke="#bfbfbf" points="62.366,-.5 62.366,-20.5 111.692,-20.5 111.692,-.5 62.366,-.5"/>
<text text-anchor="middle" x="87.029" y="-7.5" font-family="Lato" font-size="10.00" fill="#000000">memory</text>
</g>
<!-- Node0&#45;&gt;Node2 -->
<g id="edge2" class="edge">
<title>Node0&#45;&gt;Node2</title>
<path fill="none" stroke="#191970" d="M59.9287,-57.3095C64.3868,-49.6093 70.6352,-38.8166 76.0088,-29.5349"/>
<polygon fill="#191970" stroke="#191970" points="79.1989,-31.0102 81.1803,-20.6022 73.1409,-27.5029 79.1989,-31.0102"/>
</g>
</g>
</svg>
