<?xml version="1.0" encoding="UTF-8" standalone="no"?>
<!DOCTYPE svg PUBLIC "-//W3C//DTD SVG 1.1//EN"
 "http://www.w3.org/Graphics/SVG/1.1/DTD/svg11.dtd">
<!-- Generated by graphviz version 9.0.0 (20230911.1827)
 -->
<!-- Title: jngl/work.hpp Pages: 1 -->
<svg width="154pt" height="138pt"
 viewBox="0.00 0.00 154.00 137.75" xmlns="http://www.w3.org/2000/svg" xmlns:xlink="http://www.w3.org/1999/xlink">
<g id="graph0" class="graph" transform="scale(1 1) rotate(0) translate(4 133.75)">
<title>jngl/work.hpp</title>
<!-- Node1 -->
<g id="Node000001" class="node">
<title>Node1</title>
<g id="a_Node000001"><a xlink:title=" ">
<polygon fill="#999999" stroke="#666666" points="138,-129.75 44,-129.75 44,-110.5 138,-110.5 138,-129.75"/>
<text text-anchor="middle" x="91" y="-116.25" font-family="ui-monospace,monospace" font-size="10.00">jngl/work.hpp</text>
</a>
</g>
</g>
<!-- Node2 -->
<g id="Node000002" class="node">
<title>Node2</title>
<g id="a_Node000002"><a xlink:href="job_8hpp.html" target="_top" xlink:title="Contains jngl::Job class and related functions.">
<polygon fill="white" stroke="#666666" points="92,-74.5 34,-74.5 34,-55.25 92,-55.25 92,-74.5"/>
<text text-anchor="middle" x="63" y="-61" font-family="ui-monospace,monospace" font-size="10.00">job.hpp</text>
</a>
</g>
</g>
<!-- Node1&#45;&gt;Node2 -->
<g id="edge1_Node000001_Node000002" class="edge">
<title>Node1&#45;&gt;Node2</title>
<g id="a_edge1_Node000001_Node000002"><a xlink:title=" ">
<path fill="none" stroke="#63b8ff" d="M86.38,-110.33C82.75,-103.44 77.57,-93.59 73.01,-84.91"/>
<polygon fill="#63b8ff" stroke="#63b8ff" points="76.18,-83.42 68.43,-76.2 69.98,-86.68 76.18,-83.42"/>
</a>
</g>
</g>
<!-- Node4 -->
<g id="Node000004" class="node">
<title>Node4</title>
<g id="a_Node000004"><a target="_parent" xlink:href="http://en.cppreference.com/w/cpp/header/memory.html" xlink:title=" ">
<polygon fill="white" stroke="#666666" points="146,-19.25 94,-19.25 94,0 146,0 146,-19.25"/>
<text text-anchor="middle" x="120" y="-5.75" font-family="ui-monospace,monospace" font-size="10.00">memory</text>
</a>
</g>
</g>
<!-- Node1&#45;&gt;Node4 -->
<g id="edge4_Node000001_Node000004" class="edge">
<title>Node1&#45;&gt;Node4</title>
<g id="a_edge4_Node000001_Node000004"><a xlink:title=" ">
<path fill="none" stroke="#63b8ff" d="M93.37,-110.25C98,-92.92 108.35,-54.23 114.69,-30.49"/>
<polygon fill="#63b8ff" stroke="#63b8ff" points="118,-31.65 117.2,-21.09 111.24,-29.85 118,-31.65"/>
</a>
</g>
</g>
<!-- Node3 -->
<g id="Node000003" class="node">
<title>Node3</title>
<g id="a_Node000003"><a target="_parent" xlink:href="http://en.cppreference.com/w/cpp/header/functional.html" xlink:title=" ">
<polygon fill="white" stroke="#666666" points="76,-19.25 0,-19.25 0,0 76,0 76,-19.25"/>
<text text-anchor="middle" x="38" y="-5.75" font-family="ui-monospace,monospace" font-size="10.00">functional</text>
</a>
</g>
</g>
<!-- Node2&#45;&gt;Node3 -->
<g id="edge2_Node000002_Node000003" class="edge">
<title>Node2&#45;&gt;Node3</title>
<g id="a_edge2_Node000002_Node000003"><a xlink:title=" ">
<path fill="none" stroke="#63b8ff" d="M58.87,-55.08C55.67,-48.26 51.11,-38.56 47.07,-29.95"/>
<polygon fill="#63b8ff" stroke="#63b8ff" points="50.28,-28.54 42.86,-20.98 43.94,-31.52 50.28,-28.54"/>
</a>
</g>
</g>
<!-- Node2&#45;&gt;Node4 -->
<g id="edge3_Node000002_Node000004" class="edge">
<title>Node2&#45;&gt;Node4</title>
<g id="a_edge3_Node000002_Node000004"><a xlink:title=" ">
<path fill="none" stroke="#63b8ff" d="M72.67,-54.84C80.74,-47.3 92.47,-36.35 102.22,-27.23"/>
<polygon fill="#63b8ff" stroke="#63b8ff" points="104.45,-29.94 109.37,-20.56 99.67,-24.83 104.45,-29.94"/>
</a>
</g>
</g>
</g>
</svg>
