<?xml version="1.0" encoding="UTF-8" standalone="no"?>
<!DOCTYPE svg PUBLIC "-//W3C//DTD SVG 1.1//EN"
 "http://www.w3.org/Graphics/SVG/1.1/DTD/svg11.dtd">
<!-- Generated by graphviz version 5.0.0 (0)
 -->
<!-- Title: jngl/work.hpp Pages: 1 -->
<svg width="114pt" height="137pt"
 viewBox="0.00 0.00 114.00 137.00" xmlns="http://www.w3.org/2000/svg" xmlns:xlink="http://www.w3.org/1999/xlink">
<g id="graph0" class="graph" transform="scale(1 1) rotate(0) translate(4 133)">
<title>jngl/work.hpp</title>
<!-- Node1 -->
<g id="node1" class="node">
<title>Node1</title>
<g id="a_node1"><a xlink:title=" ">
<polygon fill="#999999" stroke="#666666" points="106,-129 11,-129 11,-110 106,-110 106,-129"/>
<text text-anchor="middle" x="58.5" y="-117" font-family="ui-monospace,monospace" font-size="10.00">jngl/work.hpp</text>
</a>
</g>
</g>
<!-- Node2 -->
<g id="node2" class="node">
<title>Node2</title>
<g id="a_node2"><a xlink:href="job_8hpp.html" target="_top" xlink:title="Contains jngl::Job class and related functions.">
<polygon fill="white" stroke="#666666" points="59,-74 0,-74 0,-55 59,-55 59,-74"/>
<text text-anchor="middle" x="29.5" y="-62" font-family="ui-monospace,monospace" font-size="10.00">job.hpp</text>
</a>
</g>
</g>
<!-- Node1&#45;&gt;Node2 -->
<g id="edge1" class="edge">
<title>Node1&#45;&gt;Node2</title>
<path fill="none" stroke="#63b8ff" d="M53.71,-109.75C49.74,-102.49 43.97,-91.95 39.07,-82.98"/>
<polygon fill="#63b8ff" stroke="#63b8ff" points="42.07,-81.18 34.2,-74.09 35.93,-84.54 42.07,-81.18"/>
</g>
<!-- Node3 -->
<g id="node3" class="node">
<title>Node3</title>
<g id="a_node3"><a target="_parent" xlink:href="http://en.cppreference.com/w/cpp/header/memory.html" xlink:title=" ">
<polygon fill="white" stroke="#666666" points="85,-19 32,-19 32,0 85,0 85,-19"/>
<text text-anchor="middle" x="58.5" y="-7" font-family="ui-monospace,monospace" font-size="10.00">memory</text>
</a>
</g>
</g>
<!-- Node1&#45;&gt;Node3 -->
<g id="edge3" class="edge">
<title>Node1&#45;&gt;Node3</title>
<path fill="none" stroke="#63b8ff" d="M61.33,-109.91C65,-97.73 70.69,-74.74 68.5,-55 67.54,-46.34 65.56,-36.91 63.61,-28.97"/>
<polygon fill="#63b8ff" stroke="#63b8ff" points="66.99,-28.06 61.07,-19.27 60.22,-29.83 66.99,-28.06"/>
</g>
<!-- Node2&#45;&gt;Node3 -->
<g id="edge2" class="edge">
<title>Node2&#45;&gt;Node3</title>
<path fill="none" stroke="#63b8ff" d="M34.29,-54.75C38.26,-47.49 44.03,-36.95 48.93,-27.98"/>
<polygon fill="#63b8ff" stroke="#63b8ff" points="52.07,-29.54 53.8,-19.09 45.93,-26.18 52.07,-29.54"/>
</g>
</g>
</svg>
