<?xml version="1.0" encoding="UTF-8" standalone="no"?>
<!DOCTYPE svg PUBLIC "-//W3C//DTD SVG 1.1//EN"
 "http://www.w3.org/Graphics/SVG/1.1/DTD/svg11.dtd">
<!-- Generated by graphviz version 2.40.1 (0)
 -->
<!-- Title: jngl/work.hpp Pages: 1 -->
<svg width="124pt" height="84pt"
 viewBox="0.00 0.00 123.50 84.00" xmlns="http://www.w3.org/2000/svg" xmlns:xlink="http://www.w3.org/1999/xlink">
<g id="graph0" class="graph" transform="scale(1 1) rotate(0) translate(4 80)">
<title>jngl/work.hpp</title>
<polygon fill="#ffffff" stroke="transparent" points="-4,4 -4,-80 119.5,-80 119.5,4 -4,4"/>
<!-- Node0 -->
<g id="node1" class="node">
<title>Node0</title>
<polygon fill="#bfbfbf" stroke="#000000" points="17,-56.5 17,-75.5 93,-75.5 93,-56.5 17,-56.5"/>
<text text-anchor="middle" x="55" y="-63.5" font-family="Lato" font-size="10.00" fill="#000000">jngl/work.hpp</text>
</g>
<!-- Node1 -->
<g id="node2" class="node">
<title>Node1</title>
<g id="a_node2"><a xlink:href="dll_8hpp_source.html" target="_top" xlink:title="dll.hpp">
<polygon fill="#ffffff" stroke="#000000" points="0,-.5 0,-19.5 44,-19.5 44,-.5 0,-.5"/>
<text text-anchor="middle" x="22" y="-7.5" font-family="Lato" font-size="10.00" fill="#000000">dll.hpp</text>
</a>
</g>
</g>
<!-- Node0&#45;&gt;Node1 -->
<g id="edge1" class="edge">
<title>Node0&#45;&gt;Node1</title>
<path fill="none" stroke="#191970" d="M49.2518,-56.2455C44.7565,-48.617 38.3752,-37.7881 32.9175,-28.5267"/>
<polygon fill="#191970" stroke="#191970" points="35.7747,-26.4811 27.6823,-19.6427 29.7439,-30.035 35.7747,-26.4811"/>
</g>
<!-- Node2 -->
<g id="node3" class="node">
<title>Node2</title>
<polygon fill="#ffffff" stroke="#bfbfbf" points="62.5,-.5 62.5,-19.5 115.5,-19.5 115.5,-.5 62.5,-.5"/>
<text text-anchor="middle" x="89" y="-7.5" font-family="Lato" font-size="10.00" fill="#000000">memory</text>
</g>
<!-- Node0&#45;&gt;Node2 -->
<g id="edge2" class="edge">
<title>Node0&#45;&gt;Node2</title>
<path fill="none" stroke="#191970" d="M60.9223,-56.2455C65.6027,-48.5367 72.2673,-37.5598 77.9289,-28.2348"/>
<polygon fill="#191970" stroke="#191970" points="80.9475,-30.007 83.1455,-19.6427 74.9639,-26.3741 80.9475,-30.007"/>
</g>
</g>
</svg>
