<?xml version="1.0" encoding="UTF-8" standalone="no"?>
<!DOCTYPE svg PUBLIC "-//W3C//DTD SVG 1.1//EN"
 "http://www.w3.org/Graphics/SVG/1.1/DTD/svg11.dtd">
<!-- Generated by graphviz version 2.40.1 (20161225.0304)
 -->
<!-- Title: jngl/work.hpp Pages: 1 -->
<svg width="148pt" height="140pt"
 viewBox="0.00 0.00 148.00 140.00" xmlns="http://www.w3.org/2000/svg" xmlns:xlink="http://www.w3.org/1999/xlink">
<g id="graph0" class="graph" transform="scale(1 1) rotate(0) translate(4 136)">
<title>jngl/work.hpp</title>
<polygon fill="#ffffff" stroke="transparent" points="-4,4 -4,-136 144,-136 144,4 -4,4"/>
<!-- Node0 -->
<g id="node1" class="node">
<title>Node0</title>
<polygon fill="#bfbfbf" stroke="#000000" points="19,-112.5 19,-131.5 114,-131.5 114,-112.5 19,-112.5"/>
<text text-anchor="middle" x="66.5" y="-119.5" font-family="'Consolas',monospace" font-size="10.00" fill="#000000">jngl/work.hpp</text>
</g>
<!-- Node1 -->
<g id="node2" class="node">
<title>Node1</title>
<g id="a_node2"><a xlink:href="dll_8hpp_source.html" target="_top" xlink:title="dll.hpp">
<polygon fill="#ffffff" stroke="#000000" points="0,-.5 0,-19.5 59,-19.5 59,-.5 0,-.5"/>
<text text-anchor="middle" x="29.5" y="-7.5" font-family="'Consolas',monospace" font-size="10.00" fill="#000000">dll.hpp</text>
</a>
</g>
</g>
<!-- Node0&#45;&gt;Node1 -->
<g id="edge1" class="edge">
<title>Node0&#45;&gt;Node1</title>
<path fill="none" stroke="#191970" d="M54.76,-112.4549C45.369,-104.0029 32.9091,-90.7442 27.5,-76 22.0712,-61.2019 23.0511,-43.2601 25.1215,-29.8207"/>
<polygon fill="#191970" stroke="#191970" points="28.6053,-30.2309 27.0003,-19.7583 21.7242,-28.946 28.6053,-30.2309"/>
</g>
<!-- Node2 -->
<g id="node3" class="node">
<title>Node2</title>
<g id="a_node3"><a xlink:href="job_8hpp.html" target="_top" xlink:title="job.hpp">
<polygon fill="#ffffff" stroke="#000000" points="37,-56.5 37,-75.5 96,-75.5 96,-56.5 37,-56.5"/>
<text text-anchor="middle" x="66.5" y="-63.5" font-family="'Consolas',monospace" font-size="10.00" fill="#000000">job.hpp</text>
</a>
</g>
</g>
<!-- Node0&#45;&gt;Node2 -->
<g id="edge2" class="edge">
<title>Node0&#45;&gt;Node2</title>
<path fill="none" stroke="#191970" d="M66.5,-112.2455C66.5,-104.9382 66.5,-94.6944 66.5,-85.7046"/>
<polygon fill="#191970" stroke="#191970" points="70.0001,-85.6426 66.5,-75.6427 63.0001,-85.6427 70.0001,-85.6426"/>
</g>
<!-- Node3 -->
<g id="node4" class="node">
<title>Node3</title>
<polygon fill="#ffffff" stroke="#bfbfbf" points="87,-.5 87,-19.5 140,-19.5 140,-.5 87,-.5"/>
<text text-anchor="middle" x="113.5" y="-7.5" font-family="'Consolas',monospace" font-size="10.00" fill="#000000">memory</text>
</g>
<!-- Node0&#45;&gt;Node3 -->
<g id="edge5" class="edge">
<title>Node0&#45;&gt;Node3</title>
<path fill="none" stroke="#191970" d="M77.788,-112.2734C86.9032,-103.7107 99.2121,-90.3914 105.5,-76 111.8542,-61.457 113.6905,-43.4963 114.029,-29.9846"/>
<polygon fill="#191970" stroke="#191970" points="117.5291,-29.8534 114.0273,-19.854 110.5291,-29.8546 117.5291,-29.8534"/>
</g>
<!-- Node2&#45;&gt;Node1 -->
<g id="edge4" class="edge">
<title>Node2&#45;&gt;Node1</title>
<path fill="none" stroke="#191970" d="M60.0551,-56.2455C54.9618,-48.5367 47.7092,-37.5598 41.548,-28.2348"/>
<polygon fill="#191970" stroke="#191970" points="44.3038,-26.0566 35.8711,-19.6427 38.4635,-29.9155 44.3038,-26.0566"/>
</g>
<!-- Node2&#45;&gt;Node3 -->
<g id="edge3" class="edge">
<title>Node2&#45;&gt;Node3</title>
<path fill="none" stroke="#191970" d="M74.6868,-56.2455C81.3589,-48.2958 90.9479,-36.8706 98.9253,-27.3656"/>
<polygon fill="#191970" stroke="#191970" points="101.6592,-29.5525 105.407,-19.6427 96.2974,-25.0524 101.6592,-29.5525"/>
</g>
</g>
</svg>
