<?xml version="1.0" encoding="UTF-8" standalone="no"?>
<!DOCTYPE svg PUBLIC "-//W3C//DTD SVG 1.1//EN"
 "http://www.w3.org/Graphics/SVG/1.1/DTD/svg11.dtd">
<!-- Generated by graphviz version 9.0.0 (20230911.1827)
 -->
<!-- Title: jngl/work.hpp Pages: 1 -->
<svg width="330pt" height="193pt"
 viewBox="0.00 0.00 330.00 193.00" xmlns="http://www.w3.org/2000/svg" xmlns:xlink="http://www.w3.org/1999/xlink">
<g id="graph0" class="graph" transform="scale(1 1) rotate(0) translate(4 189)">
<title>jngl/work.hpp</title>
<!-- Node1 -->
<g id="Node000001" class="node">
<title>Node1</title>
<g id="a_Node000001"><a xlink:title=" ">
<polygon fill="#999999" stroke="#666666" points="94,-185 0,-185 0,-165.75 94,-165.75 94,-185"/>
<text text-anchor="middle" x="47" y="-171.5" font-family="ui-monospace,monospace" font-size="10.00">jngl/work.hpp</text>
</a>
</g>
</g>
<!-- Node2 -->
<g id="Node000002" class="node">
<title>Node2</title>
<g id="a_Node000002"><a xlink:href="jngl_8hpp.html" target="_top" xlink:title="Includes all JNGL headers except for init.hpp.">
<polygon fill="white" stroke="#666666" points="115,-19.25 51,-19.25 51,0 115,0 115,-19.25"/>
<text text-anchor="middle" x="83" y="-5.75" font-family="ui-monospace,monospace" font-size="10.00">jngl.hpp</text>
</a>
</g>
</g>
<!-- Node1&#45;&gt;Node2 -->
<g id="edge1_Node000001_Node000002" class="edge">
<title>Node1&#45;&gt;Node2</title>
<g id="a_edge1_Node000001_Node000002"><a xlink:title=" ">
<path fill="none" stroke="#63b8ff" d="M45.35,-154.06C44.8,-146.44 44.27,-137.7 44,-129.75 42.87,-95.99 46.49,-86.63 59,-55.25 64.15,-42.34 72.08,-28.37 77.4,-19.56"/>
<polygon fill="#63b8ff" stroke="#63b8ff" points="41.85,-154.28 46.11,-163.98 48.83,-153.75 41.85,-154.28"/>
</a>
</g>
</g>
<!-- Node3 -->
<g id="Node000003" class="node">
<title>Node3</title>
<g id="a_Node000003"><a xlink:href="Scene_8hpp.html" target="_top" xlink:title="Contains jngl::Scene class and related functions.">
<polygon fill="white" stroke="#666666" points="153,-129.75 53,-129.75 53,-110.5 153,-110.5 153,-129.75"/>
<text text-anchor="middle" x="103" y="-116.25" font-family="ui-monospace,monospace" font-size="10.00">jngl/Scene.hpp</text>
</a>
</g>
</g>
<!-- Node1&#45;&gt;Node3 -->
<g id="edge2_Node000001_Node000003" class="edge">
<title>Node1&#45;&gt;Node3</title>
<g id="a_edge2_Node000001_Node000003"><a xlink:title=" ">
<path fill="none" stroke="#63b8ff" d="M64.63,-157.61C74.24,-148.47 85.75,-137.53 93.64,-130.02"/>
<polygon fill="#63b8ff" stroke="#63b8ff" points="62.43,-154.87 57.6,-164.3 67.26,-159.94 62.43,-154.87"/>
</a>
</g>
</g>
<!-- Node3&#45;&gt;Node2 -->
<g id="edge3_Node000003_Node000002" class="edge">
<title>Node3&#45;&gt;Node2</title>
<g id="a_edge3_Node000003_Node000002"><a xlink:title=" ">
<path fill="none" stroke="#63b8ff" d="M83.64,-102.23C76.32,-94.59 68.84,-84.93 65,-74.5 57.92,-55.25 69.39,-31.89 77.03,-19.44"/>
<polygon fill="#63b8ff" stroke="#63b8ff" points="81.2,-104.74 90.84,-109.15 86.06,-99.7 81.2,-104.74"/>
</a>
</g>
</g>
<!-- Node4 -->
<g id="Node000004" class="node">
<title>Node4</title>
<g id="a_Node000004"><a xlink:href="Fade_8hpp.html" target="_top" xlink:title="Contains jngl::Fade class.">
<polygon fill="white" stroke="#666666" points="168,-74.5 74,-74.5 74,-55.25 168,-55.25 168,-74.5"/>
<text text-anchor="middle" x="121" y="-61" font-family="ui-monospace,monospace" font-size="10.00">jngl/Fade.hpp</text>
</a>
</g>
</g>
<!-- Node3&#45;&gt;Node4 -->
<g id="edge4_Node000003_Node000004" class="edge">
<title>Node3&#45;&gt;Node4</title>
<g id="a_edge4_Node000003_Node000004"><a xlink:title=" ">
<path fill="none" stroke="#63b8ff" d="M109.65,-99.46C112.5,-91.02 115.69,-81.58 117.96,-74.86"/>
<polygon fill="#63b8ff" stroke="#63b8ff" points="106.34,-98.3 106.46,-108.9 112.98,-100.55 106.34,-98.3"/>
</a>
</g>
</g>
<!-- Node5 -->
<g id="Node000005" class="node">
<title>Node5</title>
<g id="a_Node000005"><a xlink:href="WorkFactory_8hpp.html" target="_top" xlink:title=" ">
<polygon fill="white" stroke="#666666" points="322,-74.5 186,-74.5 186,-55.25 322,-55.25 322,-74.5"/>
<text text-anchor="middle" x="254" y="-61" font-family="ui-monospace,monospace" font-size="10.00">jngl/WorkFactory.hpp</text>
</a>
</g>
</g>
<!-- Node3&#45;&gt;Node5 -->
<g id="edge6_Node000003_Node000005" class="edge">
<title>Node3&#45;&gt;Node5</title>
<g id="a_edge6_Node000003_Node000005"><a xlink:title=" ">
<path fill="none" stroke="#63b8ff" d="M139.36,-106.3C166.81,-96.62 203.81,-83.57 228.26,-74.95"/>
<polygon fill="#63b8ff" stroke="#63b8ff" points="138.31,-102.96 130.04,-109.59 140.64,-109.56 138.31,-102.96"/>
</a>
</g>
</g>
<!-- Node4&#45;&gt;Node2 -->
<g id="edge5_Node000004_Node000002" class="edge">
<title>Node4&#45;&gt;Node2</title>
<g id="a_edge5_Node000004_Node000002"><a xlink:title=" ">
<path fill="none" stroke="#63b8ff" d="M108.2,-45.94C101.88,-37.09 94.54,-26.79 89.41,-19.61"/>
<polygon fill="#63b8ff" stroke="#63b8ff" points="105.19,-47.74 113.85,-53.85 110.89,-43.68 105.19,-47.74"/>
</a>
</g>
</g>
<!-- Node5&#45;&gt;Node2 -->
<g id="edge7_Node000005_Node000002" class="edge">
<title>Node5&#45;&gt;Node2</title>
<g id="a_edge7_Node000005_Node000002"><a xlink:title=" ">
<path fill="none" stroke="#63b8ff" d="M214.06,-51.44C182.85,-41.72 140.21,-28.44 112.15,-19.7"/>
<polygon fill="#63b8ff" stroke="#63b8ff" points="212.96,-54.76 223.55,-54.39 215.04,-48.08 212.96,-54.76"/>
</a>
</g>
</g>
</g>
</svg>
