<?xml version="1.0" encoding="UTF-8" standalone="no"?>
<!DOCTYPE svg PUBLIC "-//W3C//DTD SVG 1.1//EN"
 "http://www.w3.org/Graphics/SVG/1.1/DTD/svg11.dtd">
<!-- Generated by graphviz version 2.38.0 (20140413.2041)
 -->
<!-- Title: jngl/work.hpp Pages: 1 -->
<svg width="150pt" height="140pt"
 viewBox="0.00 0.00 149.50 140.00" xmlns="http://www.w3.org/2000/svg" xmlns:xlink="http://www.w3.org/1999/xlink">
<g id="graph0" class="graph" transform="scale(1 1) rotate(0) translate(4 136)">
<title>jngl/work.hpp</title>
<polygon fill="white" stroke="none" points="-4,4 -4,-136 145.5,-136 145.5,4 -4,4"/>
<!-- Node1 -->
<g id="node1" class="node"><title>Node1</title>
<polygon fill="#bfbfbf" stroke="black" points="29.5,-112.5 29.5,-131.5 108.5,-131.5 108.5,-112.5 29.5,-112.5"/>
<text text-anchor="middle" x="69" y="-119.5" font-family="Lato" font-size="10.00">jngl/work.hpp</text>
</g>
<!-- Node2 -->
<g id="node2" class="node"><title>Node2</title>
<g id="a_node2"><a xlink:href="dll_8hpp_source.html" target="_top" xlink:title="dll.hpp">
<polygon fill="white" stroke="black" points="0,-0.5 0,-19.5 48,-19.5 48,-0.5 0,-0.5"/>
<text text-anchor="middle" x="24" y="-7.5" font-family="Lato" font-size="10.00">dll.hpp</text>
</a>
</g>
</g>
<!-- Node1&#45;&gt;Node2 -->
<g id="edge1" class="edge"><title>Node1&#45;&gt;Node2</title>
<path fill="none" stroke="midnightblue" d="M59.9474,-112.256C51.7701,-103.788 40.1098,-90.1796 34,-76 27.71,-61.4022 25.3039,-43.4583 24.4175,-30.1249"/>
<polygon fill="midnightblue" stroke="midnightblue" points="27.8997,-29.6338 23.9705,-19.7945 20.9062,-29.9365 27.8997,-29.6338"/>
</g>
<!-- Node3 -->
<g id="node3" class="node"><title>Node3</title>
<g id="a_node3"><a xlink:href="job_8hpp.html" target="_top" xlink:title="job.hpp">
<polygon fill="white" stroke="black" points="43,-56.5 43,-75.5 95,-75.5 95,-56.5 43,-56.5"/>
<text text-anchor="middle" x="69" y="-63.5" font-family="Lato" font-size="10.00">job.hpp</text>
</a>
</g>
</g>
<!-- Node1&#45;&gt;Node3 -->
<g id="edge2" class="edge"><title>Node1&#45;&gt;Node3</title>
<path fill="none" stroke="midnightblue" d="M69,-112.083C69,-105.006 69,-94.8611 69,-85.9865"/>
<polygon fill="midnightblue" stroke="midnightblue" points="72.5001,-85.751 69,-75.7511 65.5001,-85.7511 72.5001,-85.751"/>
</g>
<!-- Node4 -->
<g id="node4" class="node"><title>Node4</title>
<polygon fill="white" stroke="#bfbfbf" points="84.5,-0.5 84.5,-19.5 141.5,-19.5 141.5,-0.5 84.5,-0.5"/>
<text text-anchor="middle" x="113" y="-7.5" font-family="Lato" font-size="10.00">memory</text>
</g>
<!-- Node1&#45;&gt;Node4 -->
<g id="edge5" class="edge"><title>Node1&#45;&gt;Node4</title>
<path fill="none" stroke="midnightblue" d="M78.1015,-112.277C86.3135,-103.824 97.9972,-90.2252 104,-76 110.166,-61.3874 112.288,-43.4448 112.94,-30.1157"/>
<polygon fill="midnightblue" stroke="midnightblue" points="116.447,-29.8743 113.199,-19.7894 109.449,-29.6983 116.447,-29.8743"/>
</g>
<!-- Node3&#45;&gt;Node2 -->
<g id="edge4" class="edge"><title>Node3&#45;&gt;Node2</title>
<path fill="none" stroke="midnightblue" d="M61.5692,-56.083C55.1473,-48.3768 45.6944,-37.0333 37.8775,-27.6531"/>
<polygon fill="midnightblue" stroke="midnightblue" points="40.3832,-25.1927 31.2926,-19.7511 35.0057,-29.674 40.3832,-25.1927"/>
</g>
<!-- Node3&#45;&gt;Node4 -->
<g id="edge3" class="edge"><title>Node3&#45;&gt;Node4</title>
<path fill="none" stroke="midnightblue" d="M76.2657,-56.083C82.5448,-48.3768 91.7876,-37.0333 99.4308,-27.6531"/>
<polygon fill="midnightblue" stroke="midnightblue" points="102.266,-29.7143 105.869,-19.7511 96.8394,-25.2926 102.266,-29.7143"/>
</g>
</g>
</svg>
