<?xml version="1.0" encoding="UTF-8" standalone="no"?>
<!DOCTYPE svg PUBLIC "-//W3C//DTD SVG 1.1//EN"
 "http://www.w3.org/Graphics/SVG/1.1/DTD/svg11.dtd">
<!-- Generated by graphviz version 2.40.1 (0)
 -->
<!-- Title: jngl/work.hpp Pages: 1 -->
<svg width="84pt" height="140pt"
 viewBox="0.00 0.00 84.00 140.00" xmlns="http://www.w3.org/2000/svg" xmlns:xlink="http://www.w3.org/1999/xlink">
<g id="graph0" class="graph" transform="scale(1 1) rotate(0) translate(4 136)">
<title>jngl/work.hpp</title>
<polygon fill="#ffffff" stroke="transparent" points="-4,4 -4,-136 80,-136 80,4 -4,4"/>
<!-- Node3 -->
<g id="node1" class="node">
<title>Node3</title>
<polygon fill="#bfbfbf" stroke="#000000" points="0,-112.5 0,-131.5 76,-131.5 76,-112.5 0,-112.5"/>
<text text-anchor="middle" x="38" y="-119.5" font-family="Lato" font-size="10.00" fill="#000000">jngl/work.hpp</text>
</g>
<!-- Node4 -->
<g id="node2" class="node">
<title>Node4</title>
<g id="a_node2"><a xlink:href="all_8hpp.html" target="_top" xlink:title="Includes all JNGL headers. ">
<polygon fill="#ffffff" stroke="#000000" points="7,-56.5 7,-75.5 69,-75.5 69,-56.5 7,-56.5"/>
<text text-anchor="middle" x="38" y="-63.5" font-family="Lato" font-size="10.00" fill="#000000">jngl/all.hpp</text>
</a>
</g>
</g>
<!-- Node3&#45;&gt;Node4 -->
<g id="edge1" class="edge">
<title>Node3&#45;&gt;Node4</title>
<path fill="none" stroke="#191970" d="M38,-102.1575C38,-93.155 38,-82.9199 38,-75.6427"/>
<polygon fill="#191970" stroke="#191970" points="34.5001,-102.2455 38,-112.2455 41.5001,-102.2456 34.5001,-102.2455"/>
</g>
<!-- Node5 -->
<g id="node3" class="node">
<title>Node5</title>
<g id="a_node3"><a xlink:href="jngl_8hpp_source.html" target="_top" xlink:title="jngl.hpp">
<polygon fill="#ffffff" stroke="#000000" points="13,-.5 13,-19.5 63,-19.5 63,-.5 13,-.5"/>
<text text-anchor="middle" x="38" y="-7.5" font-family="Lato" font-size="10.00" fill="#000000">jngl.hpp</text>
</a>
</g>
</g>
<!-- Node4&#45;&gt;Node5 -->
<g id="edge2" class="edge">
<title>Node4&#45;&gt;Node5</title>
<path fill="none" stroke="#191970" d="M38,-46.1575C38,-37.155 38,-26.9199 38,-19.6427"/>
<polygon fill="#191970" stroke="#191970" points="34.5001,-46.2455 38,-56.2455 41.5001,-46.2456 34.5001,-46.2455"/>
</g>
</g>
</svg>
