<?xml version="1.0" encoding="UTF-8" standalone="no"?>
<!DOCTYPE svg PUBLIC "-//W3C//DTD SVG 1.1//EN"
 "http://www.w3.org/Graphics/SVG/1.1/DTD/svg11.dtd">
<!-- Generated by graphviz version 9.0.0 (20230911.1827)
 -->
<!-- Title: jngl/work.hpp Pages: 1 -->
<svg width="171pt" height="138pt"
 viewBox="0.00 0.00 171.00 137.75" xmlns="http://www.w3.org/2000/svg" xmlns:xlink="http://www.w3.org/1999/xlink">
<g id="graph0" class="graph" transform="scale(1 1) rotate(0) translate(4 133.75)">
<title>jngl/work.hpp</title>
<!-- Node1 -->
<g id="Node000001" class="node">
<title>Node1</title>
<g id="a_Node000001"><a xlink:title=" ">
<polygon fill="#999999" stroke="#666666" points="94,-129.75 0,-129.75 0,-110.5 94,-110.5 94,-129.75"/>
<text text-anchor="middle" x="47" y="-116.25" font-family="ui-monospace,monospace" font-size="10.00">jngl/work.hpp</text>
</a>
</g>
</g>
<!-- Node2 -->
<g id="Node000002" class="node">
<title>Node2</title>
<g id="a_Node000002"><a xlink:href="jngl_8hpp.html" target="_top" xlink:title="Includes all JNGL headers except for init.hpp.">
<polygon fill="white" stroke="#666666" points="79,-19.25 15,-19.25 15,0 79,0 79,-19.25"/>
<text text-anchor="middle" x="47" y="-5.75" font-family="ui-monospace,monospace" font-size="10.00">jngl.hpp</text>
</a>
</g>
</g>
<!-- Node1&#45;&gt;Node2 -->
<g id="edge1_Node000001_Node000002" class="edge">
<title>Node1&#45;&gt;Node2</title>
<g id="a_edge1_Node000001_Node000002"><a xlink:title=" ">
<path fill="none" stroke="#63b8ff" d="M31.83,-101.02C26.34,-93.34 20.81,-83.99 18,-74.5 11.91,-53.95 27.9,-31.46 38.49,-19.42"/>
<polygon fill="#63b8ff" stroke="#63b8ff" points="28.97,-103.05 37.86,-108.82 34.51,-98.76 28.97,-103.05"/>
</a>
</g>
</g>
<!-- Node3 -->
<g id="Node000003" class="node">
<title>Node3</title>
<g id="a_Node000003"><a xlink:href="WorkFactory_8hpp.html" target="_top" xlink:title=" ">
<polygon fill="white" stroke="#666666" points="163,-74.5 27,-74.5 27,-55.25 163,-55.25 163,-74.5"/>
<text text-anchor="middle" x="95" y="-61" font-family="ui-monospace,monospace" font-size="10.00">jngl/WorkFactory.hpp</text>
</a>
</g>
</g>
<!-- Node1&#45;&gt;Node3 -->
<g id="edge2_Node000001_Node000003" class="edge">
<title>Node1&#45;&gt;Node3</title>
<g id="a_edge2_Node000001_Node000003"><a xlink:title=" ">
<path fill="none" stroke="#63b8ff" d="M62.4,-102.04C70.55,-93 80.22,-82.27 86.9,-74.86"/>
<polygon fill="#63b8ff" stroke="#63b8ff" points="60.04,-99.44 55.94,-109.21 65.23,-104.12 60.04,-99.44"/>
</a>
</g>
</g>
<!-- Node3&#45;&gt;Node2 -->
<g id="edge3_Node000003_Node000002" class="edge">
<title>Node3&#45;&gt;Node2</title>
<g id="a_edge3_Node000003_Node000002"><a xlink:title=" ">
<path fill="none" stroke="#63b8ff" d="M79.6,-46.79C71.45,-37.75 61.78,-27.02 55.1,-19.61"/>
<polygon fill="#63b8ff" stroke="#63b8ff" points="76.77,-48.87 86.06,-53.96 81.96,-44.19 76.77,-48.87"/>
</a>
</g>
</g>
</g>
</svg>
