<?xml version="1.0" encoding="UTF-8" standalone="no"?>
<!DOCTYPE svg PUBLIC "-//W3C//DTD SVG 1.1//EN"
 "http://www.w3.org/Graphics/SVG/1.1/DTD/svg11.dtd">
<!-- Generated by graphviz version 2.40.1 (0)
 -->
<!-- Title: jngl/work.hpp Pages: 1 -->
<svg width="114pt" height="140pt"
 viewBox="0.00 0.00 114.00 140.00" xmlns="http://www.w3.org/2000/svg" xmlns:xlink="http://www.w3.org/1999/xlink">
<g id="graph0" class="graph" transform="scale(1 1) rotate(0) translate(4 136)">
<title>jngl/work.hpp</title>
<polygon fill="#ffffff" stroke="transparent" points="-4,4 -4,-136 110,-136 110,4 -4,4"/>
<!-- Node0 -->
<g id="node1" class="node">
<title>Node0</title>
<g id="a_node1"><a xlink:title=" ">
<polygon fill="#bfbfbf" stroke="#000000" points="11,-112.5 11,-131.5 106,-131.5 106,-112.5 11,-112.5"/>
<text text-anchor="middle" x="58.5" y="-119.5" font-family="'Consolas',monospace" font-size="10.00" fill="#000000">jngl/work.hpp</text>
</a>
</g>
</g>
<!-- Node1 -->
<g id="node2" class="node">
<title>Node1</title>
<g id="a_node2"><a xlink:href="job_8hpp.html" target="_top" xlink:title=" ">
<polygon fill="#ffffff" stroke="#000000" points="0,-56.5 0,-75.5 59,-75.5 59,-56.5 0,-56.5"/>
<text text-anchor="middle" x="29.5" y="-63.5" font-family="'Consolas',monospace" font-size="10.00" fill="#000000">job.hpp</text>
</a>
</g>
</g>
<!-- Node0&#45;&gt;Node1 -->
<g id="edge1" class="edge">
<title>Node0&#45;&gt;Node1</title>
<path fill="none" stroke="#191970" d="M53.4486,-112.2455C49.4981,-104.617 43.8903,-93.7881 39.0942,-84.5267"/>
<polygon fill="#191970" stroke="#191970" points="42.2001,-82.9131 34.4935,-75.6427 35.9841,-86.1321 42.2001,-82.9131"/>
</g>
<!-- Node2 -->
<g id="node3" class="node">
<title>Node2</title>
<g id="a_node3"><a doxygen="/w/doc/cppreference-doxygen-web.tag.xml:http://en.cppreference.com/w/" xlink:href="http://en.cppreference.com/w/cpp/header/memory.html" xlink:title=" ">
<polygon fill="#ffffff" stroke="#000000" points="32,-.5 32,-19.5 85,-19.5 85,-.5 32,-.5"/>
<text text-anchor="middle" x="58.5" y="-7.5" font-family="'Consolas',monospace" font-size="10.00" fill="#000000">memory</text>
</a>
</g>
</g>
<!-- Node0&#45;&gt;Node2 -->
<g id="edge3" class="edge">
<title>Node0&#45;&gt;Node2</title>
<path fill="none" stroke="#191970" d="M61.5838,-112.1945C65.2603,-99.3347 70.6542,-76.0497 68.5,-56 67.5637,-47.285 65.6567,-37.7985 63.7568,-29.7166"/>
<polygon fill="#191970" stroke="#191970" points="67.0899,-28.6187 61.2621,-19.7707 60.3002,-30.3218 67.0899,-28.6187"/>
</g>
<!-- Node1&#45;&gt;Node2 -->
<g id="edge2" class="edge">
<title>Node1&#45;&gt;Node2</title>
<path fill="none" stroke="#191970" d="M34.5514,-56.2455C38.5019,-48.617 44.1097,-37.7881 48.9058,-28.5267"/>
<polygon fill="#191970" stroke="#191970" points="52.0159,-30.1321 53.5065,-19.6427 45.7999,-26.9131 52.0159,-30.1321"/>
</g>
</g>
</svg>
