<?xml version="1.0" encoding="UTF-8" standalone="no"?>
<!DOCTYPE svg PUBLIC "-//W3C//DTD SVG 1.1//EN"
 "http://www.w3.org/Graphics/SVG/1.1/DTD/svg11.dtd">
<!-- Generated by graphviz version 2.40.1 (0)
 -->
<!-- Title: jngl/work.hpp Pages: 1 -->
<svg width="170pt" height="140pt"
 viewBox="0.00 0.00 170.00 140.00" xmlns="http://www.w3.org/2000/svg" xmlns:xlink="http://www.w3.org/1999/xlink">
<g id="graph0" class="graph" transform="scale(1 1) rotate(0) translate(4 136)">
<title>jngl/work.hpp</title>
<polygon fill="#ffffff" stroke="transparent" points="-4,4 -4,-136 166,-136 166,4 -4,4"/>
<!-- Node0 -->
<g id="node1" class="node">
<title>Node0</title>
<g id="a_node1"><a xlink:title=" ">
<polygon fill="#bfbfbf" stroke="#000000" points="59,-112.5 59,-131.5 154,-131.5 154,-112.5 59,-112.5"/>
<text text-anchor="middle" x="106.5" y="-119.5" font-family="'Consolas',monospace" font-size="10.00" fill="#000000">jngl/work.hpp</text>
</a>
</g>
</g>
<!-- Node1 -->
<g id="node2" class="node">
<title>Node1</title>
<g id="a_node2"><a xlink:href="dll_8hpp_source.html" target="_top" xlink:title=" ">
<polygon fill="#ffffff" stroke="#000000" points="0,-56.5 0,-75.5 59,-75.5 59,-56.5 0,-56.5"/>
<text text-anchor="middle" x="29.5" y="-63.5" font-family="'Consolas',monospace" font-size="10.00" fill="#000000">dll.hpp</text>
</a>
</g>
</g>
<!-- Node0&#45;&gt;Node1 -->
<g id="edge1" class="edge">
<title>Node0&#45;&gt;Node1</title>
<path fill="none" stroke="#191970" d="M93.0876,-112.2455C81.4943,-103.814 64.5252,-91.4729 51.0322,-81.6598"/>
<polygon fill="#191970" stroke="#191970" points="52.9047,-78.6938 42.7587,-75.6427 48.7874,-84.355 52.9047,-78.6938"/>
</g>
<!-- Node2 -->
<g id="node3" class="node">
<title>Node2</title>
<g id="a_node3"><a xlink:href="job_8hpp.html" target="_top" xlink:title=" ">
<polygon fill="#ffffff" stroke="#000000" points="77,-56.5 77,-75.5 136,-75.5 136,-56.5 77,-56.5"/>
<text text-anchor="middle" x="106.5" y="-63.5" font-family="'Consolas',monospace" font-size="10.00" fill="#000000">job.hpp</text>
</a>
</g>
</g>
<!-- Node0&#45;&gt;Node2 -->
<g id="edge2" class="edge">
<title>Node0&#45;&gt;Node2</title>
<path fill="none" stroke="#191970" d="M106.5,-112.2455C106.5,-104.9382 106.5,-94.6944 106.5,-85.7046"/>
<polygon fill="#191970" stroke="#191970" points="110.0001,-85.6426 106.5,-75.6427 103.0001,-85.6427 110.0001,-85.6426"/>
</g>
<!-- Node3 -->
<g id="node4" class="node">
<title>Node3</title>
<g id="a_node4"><a doxygen="/w/doc/cppreference-doxygen-web.tag.xml:http://en.cppreference.com/w/" xlink:href="http://en.cppreference.com/w/cpp/header/memory.html" xlink:title=" ">
<polygon fill="#ffffff" stroke="#000000" points="109,-.5 109,-19.5 162,-19.5 162,-.5 109,-.5"/>
<text text-anchor="middle" x="135.5" y="-7.5" font-family="'Consolas',monospace" font-size="10.00" fill="#000000">memory</text>
</a>
</g>
</g>
<!-- Node0&#45;&gt;Node3 -->
<g id="edge4" class="edge">
<title>Node0&#45;&gt;Node3</title>
<path fill="none" stroke="#191970" d="M118.24,-112.4549C127.631,-104.0029 140.0909,-90.7442 145.5,-76 151.0431,-60.8903 147.6293,-42.7512 143.3453,-29.3161"/>
<polygon fill="#191970" stroke="#191970" points="146.5617,-27.9177 139.8774,-19.6976 139.9766,-30.292 146.5617,-27.9177"/>
</g>
<!-- Node2&#45;&gt;Node3 -->
<g id="edge3" class="edge">
<title>Node2&#45;&gt;Node3</title>
<path fill="none" stroke="#191970" d="M111.5514,-56.2455C115.5019,-48.617 121.1097,-37.7881 125.9058,-28.5267"/>
<polygon fill="#191970" stroke="#191970" points="129.0159,-30.1321 130.5065,-19.6427 122.7999,-26.9131 129.0159,-30.1321"/>
</g>
</g>
</svg>
