<?xml version="1.0" encoding="UTF-8" standalone="no"?>
<!DOCTYPE svg PUBLIC "-//W3C//DTD SVG 1.1//EN"
 "http://www.w3.org/Graphics/SVG/1.1/DTD/svg11.dtd">
<!-- Generated by graphviz version 2.40.1 (0)
 -->
<!-- Title: jngl/work.hpp Pages: 1 -->
<svg width="80pt" height="143pt"
 viewBox="0.00 0.00 80.39 143.00" xmlns="http://www.w3.org/2000/svg" xmlns:xlink="http://www.w3.org/1999/xlink">
<g id="graph0" class="graph" transform="scale(1 1) rotate(0) translate(4 139)">
<title>jngl/work.hpp</title>
<polygon fill="#ffffff" stroke="transparent" points="-4,4 -4,-139 76.385,-139 76.385,4 -4,4"/>
<!-- Node3 -->
<g id="node1" class="node">
<title>Node3</title>
<polygon fill="#bfbfbf" stroke="#000000" points="0,-114.5 0,-134.5 72.385,-134.5 72.385,-114.5 0,-114.5"/>
<text text-anchor="middle" x="36.1925" y="-121.5" font-family="Lato" font-size="10.00" fill="#000000">jngl/work.hpp</text>
</g>
<!-- Node4 -->
<g id="node2" class="node">
<title>Node4</title>
<g id="a_node2"><a xlink:href="all_8hpp.html" target="_top" xlink:title="Includes all JNGL headers. ">
<polygon fill="#ffffff" stroke="#000000" points="5.2755,-57.5 5.2755,-77.5 67.1095,-77.5 67.1095,-57.5 5.2755,-57.5"/>
<text text-anchor="middle" x="36.1925" y="-64.5" font-family="Lato" font-size="10.00" fill="#000000">jngl/all.hpp</text>
</a>
</g>
</g>
<!-- Node3&#45;&gt;Node4 -->
<g id="edge1" class="edge">
<title>Node3&#45;&gt;Node4</title>
<path fill="none" stroke="#191970" d="M36.1925,-104.1771C36.1925,-95.1625 36.1925,-84.9556 36.1925,-77.6022"/>
<polygon fill="#191970" stroke="#191970" points="32.6926,-104.3095 36.1925,-114.3095 39.6926,-104.3096 32.6926,-104.3095"/>
</g>
<!-- Node5 -->
<g id="node3" class="node">
<title>Node5</title>
<g id="a_node3"><a xlink:href="jngl_8hpp_source.html" target="_top" xlink:title="jngl.hpp">
<polygon fill="#ffffff" stroke="#000000" points="11.6635,-.5 11.6635,-20.5 60.7215,-20.5 60.7215,-.5 11.6635,-.5"/>
<text text-anchor="middle" x="36.1925" y="-7.5" font-family="Lato" font-size="10.00" fill="#000000">jngl.hpp</text>
</a>
</g>
</g>
<!-- Node4&#45;&gt;Node5 -->
<g id="edge2" class="edge">
<title>Node4&#45;&gt;Node5</title>
<path fill="none" stroke="#191970" d="M36.1925,-47.1771C36.1925,-38.1625 36.1925,-27.9556 36.1925,-20.6022"/>
<polygon fill="#191970" stroke="#191970" points="32.6926,-47.3095 36.1925,-57.3095 39.6926,-47.3096 32.6926,-47.3095"/>
</g>
</g>
</svg>
