<?xml version="1.0" encoding="UTF-8" standalone="no"?>
<!DOCTYPE svg PUBLIC "-//W3C//DTD SVG 1.1//EN"
 "http://www.w3.org/Graphics/SVG/1.1/DTD/svg11.dtd">
<!-- Generated by graphviz version 2.40.1 (0)
 -->
<!-- Title: jngl/all.hpp Pages: 1 -->
<svg width="1575pt" height="308pt"
 viewBox="0.00 0.00 1574.63 308.00" xmlns="http://www.w3.org/2000/svg" xmlns:xlink="http://www.w3.org/1999/xlink">
<g id="graph0" class="graph" transform="scale(1 1) rotate(0) translate(4 304)">
<title>jngl/all.hpp</title>
<polygon fill="#ffffff" stroke="transparent" points="-4,4 -4,-304 1570.6334,-304 1570.6334,4 -4,4"/>
<!-- Node0 -->
<g id="node1" class="node">
<title>Node0</title>
<polygon fill="#bfbfbf" stroke="#000000" points="788.6334,-280.5 788.6334,-299.5 854.6334,-299.5 854.6334,-280.5 788.6334,-280.5"/>
<text text-anchor="middle" x="821.6334" y="-287.5" font-family="Helvetica,sans-Serif" font-size="10.00" fill="#000000">jngl/all.hpp</text>
</g>
<!-- Node1 -->
<g id="node2" class="node">
<title>Node1</title>
<g id="a_node2"><a xlink:href="Shader_8hpp_source.html" target="_top" xlink:title="Shader.hpp">
<polygon fill="#ffffff" stroke="#000000" points="1344.6334,-112.5 1344.6334,-131.5 1412.6334,-131.5 1412.6334,-112.5 1344.6334,-112.5"/>
<text text-anchor="middle" x="1378.6334" y="-119.5" font-family="Helvetica,sans-Serif" font-size="10.00" fill="#000000">Shader.hpp</text>
</a>
</g>
</g>
<!-- Node0&#45;&gt;Node1 -->
<g id="edge1" class="edge">
<title>Node0&#45;&gt;Node1</title>
<path fill="none" stroke="#191970" d="M854.8103,-288.4277C959.4275,-283.2635 1277.8917,-265.8929 1318.6334,-244 1346.7588,-228.8865 1349.7398,-216.7476 1363.6334,-188 1370.6639,-173.4529 1374.4694,-155.4924 1376.4861,-141.982"/>
<polygon fill="#191970" stroke="#191970" points="1379.9845,-142.2177 1377.7908,-131.8524 1373.0419,-141.3233 1379.9845,-142.2177"/>
</g>
<!-- Node4 -->
<g id="node5" class="node">
<title>Node4</title>
<g id="a_node5"><a xlink:href="ShaderProgram_8hpp_source.html" target="_top" xlink:title="ShaderProgram.hpp">
<polygon fill="#ffffff" stroke="#000000" points="381.1334,-112.5 381.1334,-131.5 488.1334,-131.5 488.1334,-112.5 381.1334,-112.5"/>
<text text-anchor="middle" x="434.6334" y="-119.5" font-family="Helvetica,sans-Serif" font-size="10.00" fill="#000000">ShaderProgram.hpp</text>
</a>
</g>
</g>
<!-- Node0&#45;&gt;Node4 -->
<g id="edge4" class="edge">
<title>Node0&#45;&gt;Node4</title>
<path fill="none" stroke="#191970" d="M788.2648,-286.4423C725.0711,-279.3713 590.4266,-262.6171 547.6334,-244 510.1368,-227.6872 501.9222,-218.4536 474.6334,-188 461.8261,-173.7075 450.8284,-154.7472 443.6246,-140.8168"/>
<polygon fill="#191970" stroke="#191970" points="446.6734,-139.0875 439.0781,-131.7009 440.4092,-142.2118 446.6734,-139.0875"/>
</g>
<!-- Node7 -->
<g id="node8" class="node">
<title>Node7</title>
<g id="a_node8"><a xlink:href="Vertex_8hpp_source.html" target="_top" xlink:title="Vertex.hpp">
<polygon fill="#ffffff" stroke="#000000" points="224.6334,-224.5 224.6334,-243.5 290.6334,-243.5 290.6334,-224.5 224.6334,-224.5"/>
<text text-anchor="middle" x="257.6334" y="-231.5" font-family="Helvetica,sans-Serif" font-size="10.00" fill="#000000">Vertex.hpp</text>
</a>
</g>
</g>
<!-- Node0&#45;&gt;Node7 -->
<g id="edge9" class="edge">
<title>Node0&#45;&gt;Node7</title>
<path fill="none" stroke="#191970" d="M788.5044,-288.444C706.2437,-284.2788 486.1961,-271.2902 304.6334,-244 303.3572,-243.8082 302.0637,-243.603 300.7596,-243.3869"/>
<polygon fill="#191970" stroke="#191970" points="301.1306,-239.8971 290.6659,-241.5523 299.8788,-246.7842 301.1306,-239.8971"/>
</g>
<!-- Node11 -->
<g id="node12" class="node">
<title>Node11</title>
<g id="a_node12"><a xlink:href="color_8hpp_source.html" target="_top" xlink:title="color.hpp">
<polygon fill="#ffffff" stroke="#000000" points="16.1334,-112.5 16.1334,-131.5 75.1334,-131.5 75.1334,-112.5 16.1334,-112.5"/>
<text text-anchor="middle" x="45.6334" y="-119.5" font-family="Helvetica,sans-Serif" font-size="10.00" fill="#000000">color.hpp</text>
</a>
</g>
</g>
<!-- Node0&#45;&gt;Node11 -->
<g id="edge14" class="edge">
<title>Node0&#45;&gt;Node11</title>
<path fill="none" stroke="#191970" d="M788.59,-289.6805C671.9198,-288.2458 279.9163,-280.7387 160.6334,-244 113.4264,-229.4604 94.9774,-226.9761 64.6334,-188 54.2298,-174.6369 49.5218,-155.7861 47.3918,-141.6501"/>
<polygon fill="#191970" stroke="#191970" points="50.8427,-141.0311 46.1767,-131.5191 43.8925,-141.8648 50.8427,-141.0311"/>
</g>
<!-- Node12 -->
<g id="node13" class="node">
<title>Node12</title>
<g id="a_node13"><a xlink:href="Controller_8hpp_source.html" target="_top" xlink:title="Controller.hpp">
<polygon fill="#ffffff" stroke="#000000" points="595.6334,-224.5 595.6334,-243.5 675.6334,-243.5 675.6334,-224.5 595.6334,-224.5"/>
<text text-anchor="middle" x="635.6334" y="-231.5" font-family="Helvetica,sans-Serif" font-size="10.00" fill="#000000">Controller.hpp</text>
</a>
</g>
</g>
<!-- Node0&#45;&gt;Node12 -->
<g id="edge16" class="edge">
<title>Node0&#45;&gt;Node12</title>
<path fill="none" stroke="#191970" d="M789.6588,-280.3733C758.4621,-270.9807 710.8624,-256.6496 676.8402,-246.4064"/>
<polygon fill="#191970" stroke="#191970" points="677.7751,-243.0327 667.1907,-243.5011 675.757,-249.7355 677.7751,-243.0327"/>
</g>
<!-- Node13 -->
<g id="node14" class="node">
<title>Node13</title>
<g id="a_node14"><a xlink:href="input_8hpp.html" target="_top" xlink:title="input.hpp">
<polygon fill="#ffffff" stroke="#000000" points="564.1334,-168.5 564.1334,-187.5 623.1334,-187.5 623.1334,-168.5 564.1334,-168.5"/>
<text text-anchor="middle" x="593.6334" y="-175.5" font-family="Helvetica,sans-Serif" font-size="10.00" fill="#000000">input.hpp</text>
</a>
</g>
</g>
<!-- Node0&#45;&gt;Node13 -->
<g id="edge38" class="edge">
<title>Node0&#45;&gt;Node13</title>
<path fill="none" stroke="#191970" d="M788.2962,-288.5109C729.6422,-285.1163 611.8008,-274.5715 586.6334,-244 576.0258,-231.1148 579.6626,-211.6821 584.8206,-197.2359"/>
<polygon fill="#191970" stroke="#191970" points="588.1475,-198.3454 588.6634,-187.7631 581.661,-195.7139 588.1475,-198.3454"/>
</g>
<!-- Node15 -->
<g id="node16" class="node">
<title>Node15</title>
<g id="a_node16"><a xlink:href="debug_8hpp_source.html" target="_top" xlink:title="debug.hpp">
<polygon fill="#ffffff" stroke="#000000" points="975.1334,-224.5 975.1334,-243.5 1040.1334,-243.5 1040.1334,-224.5 975.1334,-224.5"/>
<text text-anchor="middle" x="1007.6334" y="-231.5" font-family="Helvetica,sans-Serif" font-size="10.00" fill="#000000">debug.hpp</text>
</a>
</g>
</g>
<!-- Node0&#45;&gt;Node15 -->
<g id="edge22" class="edge">
<title>Node0&#45;&gt;Node15</title>
<path fill="none" stroke="#191970" d="M853.6079,-280.3733C884.8047,-270.9807 932.4043,-256.6496 966.4266,-246.4064"/>
<polygon fill="#191970" stroke="#191970" points="967.5097,-249.7355 976.0761,-243.5011 965.4916,-243.0327 967.5097,-249.7355"/>
</g>
<!-- Node16 -->
<g id="node17" class="node">
<title>Node16</title>
<g id="a_node17"><a xlink:href="message_8hpp_source.html" target="_top" xlink:title="message.hpp">
<polygon fill="#ffffff" stroke="#000000" points="1140.6334,-168.5 1140.6334,-187.5 1218.6334,-187.5 1218.6334,-168.5 1140.6334,-168.5"/>
<text text-anchor="middle" x="1179.6334" y="-175.5" font-family="Helvetica,sans-Serif" font-size="10.00" fill="#000000">message.hpp</text>
</a>
</g>
</g>
<!-- Node0&#45;&gt;Node16 -->
<g id="edge53" class="edge">
<title>Node0&#45;&gt;Node16</title>
<path fill="none" stroke="#191970" d="M854.7746,-287.8435C903.8259,-283.7915 997.9924,-272.6912 1072.6334,-244 1105.2553,-231.4605 1138.9301,-208.7861 1159.5779,-193.5612"/>
<polygon fill="#191970" stroke="#191970" points="1161.6952,-196.3482 1167.5883,-187.5436 1157.4908,-190.7515 1161.6952,-196.3482"/>
</g>
<!-- Node19 -->
<g id="node20" class="node">
<title>Node19</title>
<g id="a_node20"><a xlink:href="drawable_8hpp_source.html" target="_top" xlink:title="drawable.hpp">
<polygon fill="#ffffff" stroke="#000000" points="286.1334,-112.5 286.1334,-131.5 363.1334,-131.5 363.1334,-112.5 286.1334,-112.5"/>
<text text-anchor="middle" x="324.6334" y="-119.5" font-family="Helvetica,sans-Serif" font-size="10.00" fill="#000000">drawable.hpp</text>
</a>
</g>
</g>
<!-- Node0&#45;&gt;Node19 -->
<g id="edge27" class="edge">
<title>Node0&#45;&gt;Node19</title>
<path fill="none" stroke="#191970" d="M788.2767,-287.9925C735.7857,-284.0445 631.269,-272.9717 547.6334,-244 469.0732,-216.7865 385.3685,-163.5539 346.6381,-137.3367"/>
<polygon fill="#191970" stroke="#191970" points="348.4468,-134.3336 338.2161,-131.5796 344.4964,-140.1124 348.4468,-134.3336"/>
</g>
<!-- Node20 -->
<g id="node21" class="node">
<title>Node20</title>
<g id="a_node21"><a xlink:href="types_8hpp_source.html" target="_top" xlink:title="types.hpp">
<polygon fill="#ffffff" stroke="#000000" points="353.6334,-56.5 353.6334,-75.5 415.6334,-75.5 415.6334,-56.5 353.6334,-56.5"/>
<text text-anchor="middle" x="384.6334" y="-63.5" font-family="Helvetica,sans-Serif" font-size="10.00" fill="#000000">types.hpp</text>
</a>
</g>
</g>
<!-- Node0&#45;&gt;Node20 -->
<g id="edge83" class="edge">
<title>Node0&#45;&gt;Node20</title>
<path fill="none" stroke="#191970" d="M788.3005,-288.8122C728.8222,-285.917 601.0372,-276.1664 498.6334,-244 393.2003,-210.882 334.5639,-226.1116 276.6334,-132 271.9738,-124.4303 271.7318,-119.4153 276.6334,-112 284.5654,-100.0001 316.5888,-87.2471 343.7227,-78.2204"/>
<polygon fill="#191970" stroke="#191970" points="345.0095,-81.4827 353.4445,-75.0717 342.8525,-74.8233 345.0095,-81.4827"/>
</g>
<!-- Node21 -->
<g id="node22" class="node">
<title>Node21</title>
<g id="a_node22"><a xlink:href="font_8hpp_source.html" target="_top" xlink:title="font.hpp">
<polygon fill="#ffffff" stroke="#000000" points="680.1334,-168.5 680.1334,-187.5 735.1334,-187.5 735.1334,-168.5 680.1334,-168.5"/>
<text text-anchor="middle" x="707.6334" y="-175.5" font-family="Helvetica,sans-Serif" font-size="10.00" fill="#000000">font.hpp</text>
</a>
</g>
</g>
<!-- Node0&#45;&gt;Node21 -->
<g id="edge30" class="edge">
<title>Node0&#45;&gt;Node21</title>
<path fill="none" stroke="#191970" d="M814.0245,-280.1197C803.5457,-266.7735 783.7868,-242.5251 764.6334,-224 753.5262,-213.2573 740.1208,-202.3487 729.1014,-193.8522"/>
<polygon fill="#191970" stroke="#191970" points="730.9476,-190.8596 720.8652,-187.6045 726.7171,-196.4366 730.9476,-190.8596"/>
</g>
<!-- Node22 -->
<g id="node23" class="node">
<title>Node22</title>
<g id="a_node23"><a xlink:href="framebuffer_8hpp_source.html" target="_top" xlink:title="framebuffer.hpp">
<polygon fill="#ffffff" stroke="#000000" points="1341.1334,-56.5 1341.1334,-75.5 1430.1334,-75.5 1430.1334,-56.5 1341.1334,-56.5"/>
<text text-anchor="middle" x="1385.6334" y="-63.5" font-family="Helvetica,sans-Serif" font-size="10.00" fill="#000000">framebuffer.hpp</text>
</a>
</g>
</g>
<!-- Node0&#45;&gt;Node22 -->
<g id="edge36" class="edge">
<title>Node0&#45;&gt;Node22</title>
<path fill="none" stroke="#191970" d="M854.7711,-288.736C963.2716,-284.3724 1303.358,-268.8312 1345.6334,-244 1397.5037,-213.533 1403.9652,-189.5031 1421.6334,-132 1424.2441,-123.5031 1424.5308,-120.4034 1421.6334,-112 1417.9146,-101.2144 1410.512,-91.0249 1403.3815,-82.9904"/>
<polygon fill="#191970" stroke="#191970" points="1405.9125,-80.5729 1396.4882,-75.7321 1400.8367,-85.3934 1405.9125,-80.5729"/>
</g>
<!-- Node23 -->
<g id="node24" class="node">
<title>Node23</title>
<g id="a_node24"><a xlink:href="job_8hpp_source.html" target="_top" xlink:title="job.hpp">
<polygon fill="#ffffff" stroke="#000000" points="1162.6334,-112.5 1162.6334,-131.5 1212.6334,-131.5 1212.6334,-112.5 1162.6334,-112.5"/>
<text text-anchor="middle" x="1187.6334" y="-119.5" font-family="Helvetica,sans-Serif" font-size="10.00" fill="#000000">job.hpp</text>
</a>
</g>
</g>
<!-- Node0&#45;&gt;Node23 -->
<g id="edge39" class="edge">
<title>Node0&#45;&gt;Node23</title>
<path fill="none" stroke="#191970" d="M854.8189,-287.3108C944.3843,-279.2431 1187.0317,-251.7525 1227.6334,-188 1238.2607,-171.3131 1223.3216,-151.9189 1208.7731,-138.4918"/>
<polygon fill="#191970" stroke="#191970" points="1210.7552,-135.5794 1200.8957,-131.7012 1206.1848,-140.8815 1210.7552,-135.5794"/>
</g>
<!-- Node24 -->
<g id="node25" class="node">
<title>Node24</title>
<g id="a_node25"><a xlink:href="main_8hpp_source.html" target="_top" xlink:title="main.hpp">
<polygon fill="#ffffff" stroke="#000000" points="850.1334,-224.5 850.1334,-243.5 907.1334,-243.5 907.1334,-224.5 850.1334,-224.5"/>
<text text-anchor="middle" x="878.6334" y="-231.5" font-family="Helvetica,sans-Serif" font-size="10.00" fill="#000000">main.hpp</text>
</a>
</g>
</g>
<!-- Node0&#45;&gt;Node24 -->
<g id="edge42" class="edge">
<title>Node0&#45;&gt;Node24</title>
<path fill="none" stroke="#191970" d="M831.562,-280.2455C839.8172,-272.1352 851.7543,-260.4075 861.5416,-250.7919"/>
<polygon fill="#191970" stroke="#191970" points="864.138,-253.1476 868.8185,-243.6427 859.2322,-248.1542 864.138,-253.1476"/>
</g>
<!-- Node25 -->
<g id="node26" class="node">
<title>Node25</title>
<g id="a_node26"><a xlink:href="other_8hpp.html" target="_top" xlink:title="other.hpp">
<polygon fill="#ffffff" stroke="#000000" points="792.1334,-168.5 792.1334,-187.5 851.1334,-187.5 851.1334,-168.5 792.1334,-168.5"/>
<text text-anchor="middle" x="821.6334" y="-175.5" font-family="Helvetica,sans-Serif" font-size="10.00" fill="#000000">other.hpp</text>
</a>
</g>
</g>
<!-- Node0&#45;&gt;Node25 -->
<g id="edge54" class="edge">
<title>Node0&#45;&gt;Node25</title>
<path fill="none" stroke="#191970" d="M821.6334,-280.4509C821.6334,-262.184 821.6334,-221.9553 821.6334,-197.6976"/>
<polygon fill="#191970" stroke="#191970" points="825.1335,-197.5249 821.6334,-187.5249 818.1335,-197.5249 825.1335,-197.5249"/>
</g>
<!-- Node26 -->
<g id="node27" class="node">
<title>Node26</title>
<g id="a_node27"><a xlink:href="window_8hpp.html" target="_top" xlink:title="Functions related to the main window. ">
<polygon fill="#ffffff" stroke="#000000" points="1052.6334,-168.5 1052.6334,-187.5 1122.6334,-187.5 1122.6334,-168.5 1052.6334,-168.5"/>
<text text-anchor="middle" x="1087.6334" y="-175.5" font-family="Helvetica,sans-Serif" font-size="10.00" fill="#000000">window.hpp</text>
</a>
</g>
</g>
<!-- Node0&#45;&gt;Node26 -->
<g id="edge88" class="edge">
<title>Node0&#45;&gt;Node26</title>
<path fill="none" stroke="#191970" d="M854.6552,-286.6264C909.8505,-280.4511 1017.8377,-265.9162 1048.6334,-244 1064.6684,-232.5884 1075.1915,-212.3385 1081.2201,-197.2686"/>
<polygon fill="#191970" stroke="#191970" points="1084.5225,-198.4289 1084.6882,-187.8354 1077.9525,-196.0134 1084.5225,-198.4289"/>
</g>
<!-- Node27 -->
<g id="node28" class="node">
<title>Node27</title>
<g id="a_node28"><a xlink:href="matrix_8hpp_source.html" target="_top" xlink:title="matrix.hpp">
<polygon fill="#ffffff" stroke="#000000" points="1448.6334,-56.5 1448.6334,-75.5 1512.6334,-75.5 1512.6334,-56.5 1448.6334,-56.5"/>
<text text-anchor="middle" x="1480.6334" y="-63.5" font-family="Helvetica,sans-Serif" font-size="10.00" fill="#000000">matrix.hpp</text>
</a>
</g>
</g>
<!-- Node0&#45;&gt;Node27 -->
<g id="edge51" class="edge">
<title>Node0&#45;&gt;Node27</title>
<path fill="none" stroke="#191970" d="M854.9329,-288.7361C967.3855,-284.262 1328.6164,-268.1361 1374.6334,-244 1436.8054,-211.3905 1465.7929,-125.0271 1476.056,-85.8386"/>
<polygon fill="#191970" stroke="#191970" points="1479.5072,-86.4626 1478.5142,-75.9144 1472.7125,-84.7795 1479.5072,-86.4626"/>
</g>
<!-- Node28 -->
<g id="node29" class="node">
<title>Node28</title>
<g id="a_node29"><a xlink:href="screen_8hpp.html" target="_top" xlink:title="screen.hpp">
<polygon fill="#ffffff" stroke="#000000" points="161.6334,-168.5 161.6334,-187.5 229.6334,-187.5 229.6334,-168.5 161.6334,-168.5"/>
<text text-anchor="middle" x="195.6334" y="-175.5" font-family="Helvetica,sans-Serif" font-size="10.00" fill="#000000">screen.hpp</text>
</a>
</g>
</g>
<!-- Node0&#45;&gt;Node28 -->
<g id="edge55" class="edge">
<title>Node0&#45;&gt;Node28</title>
<path fill="none" stroke="#191970" d="M788.5049,-289.639C668.3949,-288.0406 260.485,-279.9859 215.6334,-244 202.0895,-233.1333 197.4725,-213.3962 196.0147,-198.3271"/>
<polygon fill="#191970" stroke="#191970" points="199.4859,-197.7214 195.4202,-187.9378 192.4973,-198.1214 199.4859,-197.7214"/>
</g>
<!-- Node29 -->
<g id="node30" class="node">
<title>Node29</title>
<g id="a_node30"><a xlink:href="shapes_8hpp_source.html" target="_top" xlink:title="shapes.hpp">
<polygon fill="#ffffff" stroke="#000000" points="74.1334,-168.5 74.1334,-187.5 143.1334,-187.5 143.1334,-168.5 74.1334,-168.5"/>
<text text-anchor="middle" x="108.6334" y="-175.5" font-family="Helvetica,sans-Serif" font-size="10.00" fill="#000000">shapes.hpp</text>
</a>
</g>
</g>
<!-- Node0&#45;&gt;Node29 -->
<g id="edge59" class="edge">
<title>Node0&#45;&gt;Node29</title>
<path fill="none" stroke="#191970" d="M788.6097,-288.6296C667.8186,-283.471 254.1553,-264.4703 198.6334,-244 169.8864,-233.4013 142.315,-210.7152 125.4345,-194.9175"/>
<polygon fill="#191970" stroke="#191970" points="127.6773,-192.2182 118.0482,-187.7988 122.8197,-197.2584 127.6773,-192.2182"/>
</g>
<!-- Node30 -->
<g id="node31" class="node">
<title>Node30</title>
<g id="a_node31"><a xlink:href="sound_8hpp_source.html" target="_top" xlink:title="sound.hpp">
<polygon fill="#ffffff" stroke="#000000" points="1274.6334,-168.5 1274.6334,-187.5 1338.6334,-187.5 1338.6334,-168.5 1274.6334,-168.5"/>
<text text-anchor="middle" x="1306.6334" y="-175.5" font-family="Helvetica,sans-Serif" font-size="10.00" fill="#000000">sound.hpp</text>
</a>
</g>
</g>
<!-- Node0&#45;&gt;Node30 -->
<g id="edge63" class="edge">
<title>Node0&#45;&gt;Node30</title>
<path fill="none" stroke="#191970" d="M854.6731,-288.1203C950.8192,-282.4312 1225.8635,-264.5246 1260.6334,-244 1278.7875,-233.2836 1291.5252,-212.2606 1298.9226,-196.8098"/>
<polygon fill="#191970" stroke="#191970" points="1302.1419,-198.1841 1303.0158,-187.6254 1295.7481,-195.3345 1302.1419,-198.1841"/>
</g>
<!-- Node31 -->
<g id="node32" class="node">
<title>Node31</title>
<g id="a_node32"><a xlink:href="sprite_8hpp_source.html" target="_top" xlink:title="sprite.hpp">
<polygon fill="#ffffff" stroke="#000000" points="483.6334,-168.5 483.6334,-187.5 545.6334,-187.5 545.6334,-168.5 483.6334,-168.5"/>
<text text-anchor="middle" x="514.6334" y="-175.5" font-family="Helvetica,sans-Serif" font-size="10.00" fill="#000000">sprite.hpp</text>
</a>
</g>
</g>
<!-- Node0&#45;&gt;Node31 -->
<g id="edge66" class="edge">
<title>Node0&#45;&gt;Node31</title>
<path fill="none" stroke="#191970" d="M788.3668,-286.3425C730.1826,-279.5231 612.6923,-263.7514 576.6334,-244 555.852,-232.6169 538.05,-211.7603 526.9224,-196.5308"/>
<polygon fill="#191970" stroke="#191970" points="529.4909,-194.0966 520.8895,-187.9105 523.7558,-198.1102 529.4909,-194.0966"/>
</g>
<!-- Node32 -->
<g id="node33" class="node">
<title>Node32</title>
<g id="a_node33"><a xlink:href="text_8hpp.html" target="_top" xlink:title="text.hpp">
<polygon fill="#ffffff" stroke="#000000" points="908.1334,-168.5 908.1334,-187.5 963.1334,-187.5 963.1334,-168.5 908.1334,-168.5"/>
<text text-anchor="middle" x="935.6334" y="-175.5" font-family="Helvetica,sans-Serif" font-size="10.00" fill="#000000">text.hpp</text>
</a>
</g>
</g>
<!-- Node0&#45;&gt;Node32 -->
<g id="edge75" class="edge">
<title>Node0&#45;&gt;Node32</title>
<path fill="none" stroke="#191970" d="M855.0364,-281.093C875.2145,-274.1015 899.9747,-262.4044 915.6334,-244 926.6529,-231.0482 931.6012,-212.1523 933.8231,-197.8947"/>
<polygon fill="#191970" stroke="#191970" points="937.3353,-198.0099 935.0844,-187.6569 930.3878,-197.1539 937.3353,-198.0099"/>
</g>
<!-- Node33 -->
<g id="node34" class="node">
<title>Node33</title>
<g id="a_node34"><a xlink:href="time_8hpp_source.html" target="_top" xlink:title="time.hpp">
<polygon fill="#ffffff" stroke="#000000" points="1510.6334,-224.5 1510.6334,-243.5 1566.6334,-243.5 1566.6334,-224.5 1510.6334,-224.5"/>
<text text-anchor="middle" x="1538.6334" y="-231.5" font-family="Helvetica,sans-Serif" font-size="10.00" fill="#000000">time.hpp</text>
</a>
</g>
</g>
<!-- Node0&#45;&gt;Node33 -->
<g id="edge81" class="edge">
<title>Node0&#45;&gt;Node33</title>
<path fill="none" stroke="#191970" d="M854.7409,-289.5528C952.9035,-287.8382 1250.7285,-279.8306 1494.6334,-244 1496.5516,-243.7182 1498.5102,-243.3974 1500.4834,-243.0478"/>
<polygon fill="#191970" stroke="#191970" points="1501.2157,-246.471 1510.3523,-241.1069 1499.8648,-239.6025 1501.2157,-246.471"/>
</g>
<!-- Node34 -->
<g id="node35" class="node">
<title>Node34</title>
<g id="a_node35"><a xlink:href="Video_8hpp_source.html" target="_top" xlink:title="Video.hpp">
<polygon fill="#ffffff" stroke="#000000" points="693.6334,-224.5 693.6334,-243.5 755.6334,-243.5 755.6334,-224.5 693.6334,-224.5"/>
<text text-anchor="middle" x="724.6334" y="-231.5" font-family="Helvetica,sans-Serif" font-size="10.00" fill="#000000">Video.hpp</text>
</a>
</g>
</g>
<!-- Node0&#45;&gt;Node34 -->
<g id="edge84" class="edge">
<title>Node0&#45;&gt;Node34</title>
<path fill="none" stroke="#191970" d="M804.7373,-280.2455C789.7154,-271.5731 767.529,-258.7645 750.3123,-248.825"/>
<polygon fill="#191970" stroke="#191970" points="751.7462,-245.6114 741.3359,-243.6427 748.2463,-251.6737 751.7462,-245.6114"/>
</g>
<!-- Node35 -->
<g id="node36" class="node">
<title>Node35</title>
<g id="a_node36"><a xlink:href="work_8hpp.html" target="_top" xlink:title="work.hpp">
<polygon fill="#ffffff" stroke="#000000" points="1268.6334,-112.5 1268.6334,-131.5 1326.6334,-131.5 1326.6334,-112.5 1268.6334,-112.5"/>
<text text-anchor="middle" x="1297.6334" y="-119.5" font-family="Helvetica,sans-Serif" font-size="10.00" fill="#000000">work.hpp</text>
</a>
</g>
</g>
<!-- Node0&#45;&gt;Node35 -->
<g id="edge89" class="edge">
<title>Node0&#45;&gt;Node35</title>
<path fill="none" stroke="#191970" d="M854.6553,-289.3877C947.3419,-287.2535 1208.1865,-278.28 1285.6334,-244 1319.5876,-228.971 1332.5569,-221.9333 1347.6334,-188 1356.1326,-168.8704 1338.7852,-150.1488 1322.2452,-137.5605"/>
<polygon fill="#191970" stroke="#191970" points="1323.9895,-134.5064 1313.8106,-131.567 1319.9348,-140.2125 1323.9895,-134.5064"/>
</g>
<!-- Node2 -->
<g id="node3" class="node">
<title>Node2</title>
<g id="a_node3"><a xlink:href="dll_8hpp_source.html" target="_top" xlink:title="dll.hpp">
<polygon fill="#ffffff" stroke="#000000" points="948.1334,-.5 948.1334,-19.5 995.1334,-19.5 995.1334,-.5 948.1334,-.5"/>
<text text-anchor="middle" x="971.6334" y="-7.5" font-family="Helvetica,sans-Serif" font-size="10.00" fill="#000000">dll.hpp</text>
</a>
</g>
</g>
<!-- Node1&#45;&gt;Node2 -->
<g id="edge2" class="edge">
<title>Node1&#45;&gt;Node2</title>
<path fill="none" stroke="#191970" d="M1367.157,-112.3006C1349.0111,-97.5349 1312.0074,-69.6921 1275.6334,-56 1226.6726,-37.5699 1074.4642,-20.3947 1005.821,-13.3577"/>
<polygon fill="#191970" stroke="#191970" points="1005.8523,-9.843 995.5503,-12.3167 1005.1463,-16.8073 1005.8523,-9.843"/>
</g>
<!-- Node3 -->
<g id="node4" class="node">
<title>Node3</title>
<polygon fill="#ffffff" stroke="#bfbfbf" points="765.1334,-56.5 765.1334,-75.5 818.1334,-75.5 818.1334,-56.5 765.1334,-56.5"/>
<text text-anchor="middle" x="791.6334" y="-63.5" font-family="Helvetica,sans-Serif" font-size="10.00" fill="#000000">memory</text>
</g>
<!-- Node1&#45;&gt;Node3 -->
<g id="edge3" class="edge">
<title>Node1&#45;&gt;Node3</title>
<path fill="none" stroke="#191970" d="M1344.4532,-113.5827C1341.4806,-112.9931 1338.5103,-112.4537 1335.6334,-112 1146.2528,-82.1317 916.513,-70.7448 828.4294,-67.281"/>
<polygon fill="#191970" stroke="#191970" points="828.5285,-63.7823 818.4019,-66.8972 828.2607,-70.7772 828.5285,-63.7823"/>
</g>
<!-- Node4&#45;&gt;Node3 -->
<g id="edge8" class="edge">
<title>Node4&#45;&gt;Node3</title>
<path fill="none" stroke="#191970" d="M488.4664,-113.5556C561.9036,-102.036 691.5707,-81.6961 754.8392,-71.7716"/>
<polygon fill="#191970" stroke="#191970" points="755.4304,-75.2218 764.7672,-70.2143 754.3456,-68.3063 755.4304,-75.2218"/>
</g>
<!-- Node5 -->
<g id="node6" class="node">
<title>Node5</title>
<g id="a_node6"><a xlink:href="Finally_8hpp_source.html" target="_top" xlink:title="Finally.hpp">
<polygon fill="#ffffff" stroke="#000000" points="471.6334,-56.5 471.6334,-75.5 533.6334,-75.5 533.6334,-56.5 471.6334,-56.5"/>
<text text-anchor="middle" x="502.6334" y="-63.5" font-family="Helvetica,sans-Serif" font-size="10.00" fill="#000000">Finally.hpp</text>
</a>
</g>
</g>
<!-- Node4&#45;&gt;Node5 -->
<g id="edge5" class="edge">
<title>Node4&#45;&gt;Node5</title>
<path fill="none" stroke="#191970" d="M446.4781,-112.2455C456.5213,-103.9746 471.1328,-91.9416 482.9337,-82.2232"/>
<polygon fill="#191970" stroke="#191970" points="485.4301,-84.7015 490.9244,-75.6427 480.9801,-79.298 485.4301,-84.7015"/>
</g>
<!-- Node5&#45;&gt;Node2 -->
<g id="edge6" class="edge">
<title>Node5&#45;&gt;Node2</title>
<path fill="none" stroke="#191970" d="M534.0185,-58.5609C538.5706,-57.6175 543.2113,-56.7289 547.6334,-56 691.825,-32.2318 865.7049,-17.7706 937.789,-12.3932"/>
<polygon fill="#191970" stroke="#191970" points="938.3515,-15.8614 948.0677,-11.6369 937.8378,-8.8803 938.3515,-15.8614"/>
</g>
<!-- Node6 -->
<g id="node7" class="node">
<title>Node6</title>
<polygon fill="#ffffff" stroke="#bfbfbf" points="471.6334,-.5 471.6334,-19.5 533.6334,-19.5 533.6334,-.5 471.6334,-.5"/>
<text text-anchor="middle" x="502.6334" y="-7.5" font-family="Helvetica,sans-Serif" font-size="10.00" fill="#000000">functional</text>
</g>
<!-- Node5&#45;&gt;Node6 -->
<g id="edge7" class="edge">
<title>Node5&#45;&gt;Node6</title>
<path fill="none" stroke="#191970" d="M502.6334,-56.2455C502.6334,-48.9382 502.6334,-38.6944 502.6334,-29.7046"/>
<polygon fill="#191970" stroke="#191970" points="506.1335,-29.6426 502.6334,-19.6427 499.1335,-29.6427 506.1335,-29.6426"/>
</g>
<!-- Node8 -->
<g id="node9" class="node">
<title>Node8</title>
<g id="a_node9"><a xlink:href="Vec2_8hpp.html" target="_top" xlink:title="Vec2.hpp">
<polygon fill="#ffffff" stroke="#000000" points="169.6334,-112.5 169.6334,-131.5 229.6334,-131.5 229.6334,-112.5 169.6334,-112.5"/>
<text text-anchor="middle" x="199.6334" y="-119.5" font-family="Helvetica,sans-Serif" font-size="10.00" fill="#000000">Vec2.hpp</text>
</a>
</g>
</g>
<!-- Node7&#45;&gt;Node8 -->
<g id="edge10" class="edge">
<title>Node7&#45;&gt;Node8</title>
<path fill="none" stroke="#191970" d="M256.1297,-224.112C253.807,-210.7571 248.5424,-186.4989 238.6334,-168 232.9975,-157.4785 224.6472,-147.2058 217.1177,-139.0467"/>
<polygon fill="#191970" stroke="#191970" points="219.4546,-136.428 209.9927,-131.6612 214.4168,-141.2882 219.4546,-136.428"/>
</g>
<!-- Node8&#45;&gt;Node2 -->
<g id="edge11" class="edge">
<title>Node8&#45;&gt;Node2</title>
<path fill="none" stroke="#191970" d="M186.7302,-112.3788C169.858,-98.6847 144.2714,-73.3163 160.6334,-56 187.7379,-27.3146 787.6754,-13.621 937.8098,-10.6361"/>
<polygon fill="#191970" stroke="#191970" points="937.8986,-14.1351 947.8281,-10.4396 937.7613,-7.1365 937.8986,-14.1351"/>
</g>
<!-- Node9 -->
<g id="node10" class="node">
<title>Node9</title>
<polygon fill="#ffffff" stroke="#bfbfbf" points="235.6334,-56.5 235.6334,-75.5 335.6334,-75.5 335.6334,-56.5 235.6334,-56.5"/>
<text text-anchor="middle" x="285.6334" y="-63.5" font-family="Helvetica,sans-Serif" font-size="10.00" fill="#000000">boost/version.hpp</text>
</g>
<!-- Node8&#45;&gt;Node9 -->
<g id="edge12" class="edge">
<title>Node8&#45;&gt;Node9</title>
<path fill="none" stroke="#191970" d="M214.6134,-112.2455C227.8085,-103.6534 247.2384,-91.0014 262.4413,-81.1018"/>
<polygon fill="#191970" stroke="#191970" points="264.3548,-84.0325 270.825,-75.6427 260.5351,-78.1665 264.3548,-84.0325"/>
</g>
<!-- Node10 -->
<g id="node11" class="node">
<title>Node10</title>
<polygon fill="#ffffff" stroke="#bfbfbf" points="170.1334,-56.5 170.1334,-75.5 217.1334,-75.5 217.1334,-56.5 170.1334,-56.5"/>
<text text-anchor="middle" x="193.6334" y="-63.5" font-family="Helvetica,sans-Serif" font-size="10.00" fill="#000000">iosfwd</text>
</g>
<!-- Node8&#45;&gt;Node10 -->
<g id="edge13" class="edge">
<title>Node8&#45;&gt;Node10</title>
<path fill="none" stroke="#191970" d="M198.5882,-112.2455C197.8053,-104.9382 196.7078,-94.6944 195.7446,-85.7046"/>
<polygon fill="#191970" stroke="#191970" points="199.212,-85.2129 194.6665,-75.6427 192.2518,-85.9587 199.212,-85.2129"/>
</g>
<!-- Node11&#45;&gt;Node2 -->
<g id="edge15" class="edge">
<title>Node11&#45;&gt;Node2</title>
<path fill="none" stroke="#191970" d="M48.8912,-112.249C54.5157,-97.1463 67.6117,-68.5343 89.6334,-56 127.1256,-34.6601 780.4893,-15.2862 937.7788,-10.9172"/>
<polygon fill="#191970" stroke="#191970" points="937.9221,-14.4147 947.8217,-10.64 937.7289,-7.4174 937.9221,-14.4147"/>
</g>
<!-- Node12&#45;&gt;Node13 -->
<g id="edge17" class="edge">
<title>Node12&#45;&gt;Node13</title>
<path fill="none" stroke="#191970" d="M628.3175,-224.2455C622.4155,-216.3761 613.9591,-205.101 606.874,-195.6542"/>
<polygon fill="#191970" stroke="#191970" points="609.6654,-193.5427 600.8654,-187.6427 604.0654,-197.7427 609.6654,-193.5427"/>
</g>
<!-- Node13&#45;&gt;Node2 -->
<g id="edge18" class="edge">
<title>Node13&#45;&gt;Node2</title>
<path fill="none" stroke="#191970" d="M601.0869,-168.1284C611.8297,-154.3582 632.787,-129.1486 654.6334,-112 695.0076,-80.3079 707.5612,-73.9872 755.6334,-56 817.8351,-32.726 894.7529,-19.8876 937.9942,-14.0183"/>
<polygon fill="#191970" stroke="#191970" points="938.5175,-17.4797 947.9763,-12.7067 937.6055,-10.5394 938.5175,-17.4797"/>
</g>
<!-- Node13&#45;&gt;Node3 -->
<g id="edge21" class="edge">
<title>Node13&#45;&gt;Node3</title>
<path fill="none" stroke="#191970" d="M605.5957,-168.4444C622.982,-154.8303 656.5574,-129.5583 687.6334,-112 709.8917,-99.4238 736.2419,-87.8007 756.8494,-79.3843"/>
<polygon fill="#191970" stroke="#191970" points="758.1975,-82.6146 766.1691,-75.6358 755.5854,-76.1203 758.1975,-82.6146"/>
</g>
<!-- Node13&#45;&gt;Node8 -->
<g id="edge19" class="edge">
<title>Node13&#45;&gt;Node8</title>
<path fill="none" stroke="#191970" d="M563.9074,-169.979C560.7878,-169.2569 557.6536,-168.5805 554.6334,-168 432.2856,-144.4839 400.186,-148.0227 276.6334,-132 264.7428,-130.458 251.8197,-128.7803 240.0169,-127.2474"/>
<polygon fill="#191970" stroke="#191970" points="240.3548,-123.762 229.9872,-125.9447 239.453,-130.7037 240.3548,-123.762"/>
</g>
<!-- Node14 -->
<g id="node15" class="node">
<title>Node14</title>
<polygon fill="#ffffff" stroke="#bfbfbf" points="696.6334,-112.5 696.6334,-131.5 742.6334,-131.5 742.6334,-112.5 696.6334,-112.5"/>
<text text-anchor="middle" x="719.6334" y="-119.5" font-family="Helvetica,sans-Serif" font-size="10.00" fill="#000000">vector</text>
</g>
<!-- Node13&#45;&gt;Node14 -->
<g id="edge20" class="edge">
<title>Node13&#45;&gt;Node14</title>
<path fill="none" stroke="#191970" d="M615.2935,-168.3733C635.6105,-159.3435 666.1973,-145.7494 689.0084,-135.6111"/>
<polygon fill="#191970" stroke="#191970" points="690.5392,-138.7609 698.2558,-131.5011 687.6962,-132.3642 690.5392,-138.7609"/>
</g>
<!-- Node15&#45;&gt;Node16 -->
<g id="edge23" class="edge">
<title>Node15&#45;&gt;Node16</title>
<path fill="none" stroke="#191970" d="M1037.2012,-224.3733C1065.8022,-215.0613 1109.3122,-200.8953 1140.7152,-190.671"/>
<polygon fill="#191970" stroke="#191970" points="1142.0262,-193.9251 1150.4513,-187.5011 1139.8591,-187.269 1142.0262,-193.9251"/>
</g>
<!-- Node18 -->
<g id="node19" class="node">
<title>Node18</title>
<polygon fill="#ffffff" stroke="#bfbfbf" points="981.1334,-168.5 981.1334,-187.5 1034.1334,-187.5 1034.1334,-168.5 981.1334,-168.5"/>
<text text-anchor="middle" x="1007.6334" y="-175.5" font-family="Helvetica,sans-Serif" font-size="10.00" fill="#000000">sstream</text>
</g>
<!-- Node15&#45;&gt;Node18 -->
<g id="edge26" class="edge">
<title>Node15&#45;&gt;Node18</title>
<path fill="none" stroke="#191970" d="M1007.6334,-224.2455C1007.6334,-216.9382 1007.6334,-206.6944 1007.6334,-197.7046"/>
<polygon fill="#191970" stroke="#191970" points="1011.1335,-197.6426 1007.6334,-187.6427 1004.1335,-197.6427 1011.1335,-197.6426"/>
</g>
<!-- Node16&#45;&gt;Node2 -->
<g id="edge24" class="edge">
<title>Node16&#45;&gt;Node2</title>
<path fill="none" stroke="#191970" d="M1170.4077,-168.488C1149.3796,-147.0651 1095.8256,-93.9478 1045.6334,-56 1030.4889,-44.55 1012.4074,-33.2706 997.9089,-24.7465"/>
<polygon fill="#191970" stroke="#191970" points="999.3735,-21.5502 988.9655,-19.5688 995.8662,-27.6082 999.3735,-21.5502"/>
</g>
<!-- Node17 -->
<g id="node18" class="node">
<title>Node17</title>
<polygon fill="#ffffff" stroke="#bfbfbf" points="912.6334,-112.5 912.6334,-131.5 954.6334,-131.5 954.6334,-112.5 912.6334,-112.5"/>
<text text-anchor="middle" x="933.6334" y="-119.5" font-family="Helvetica,sans-Serif" font-size="10.00" fill="#000000">string</text>
</g>
<!-- Node16&#45;&gt;Node17 -->
<g id="edge25" class="edge">
<title>Node16&#45;&gt;Node17</title>
<path fill="none" stroke="#191970" d="M1140.3819,-169.0647C1091.6562,-157.9727 1009.538,-139.2791 964.8643,-129.1095"/>
<polygon fill="#191970" stroke="#191970" points="965.4059,-125.6433 954.8785,-126.8363 963.8521,-132.4687 965.4059,-125.6433"/>
</g>
<!-- Node19&#45;&gt;Node2 -->
<g id="edge29" class="edge">
<title>Node19&#45;&gt;Node2</title>
<path fill="none" stroke="#191970" d="M346.2475,-112.458C366.6078,-103.3754 397.8919,-89.1761 424.6334,-76 441.7533,-67.5646 444.3304,-61.4081 462.6334,-56 552.3275,-29.4974 839.481,-15.4494 938.047,-11.3162"/>
<polygon fill="#191970" stroke="#191970" points="938.2042,-14.8128 948.0516,-10.9038 937.9158,-7.8187 938.2042,-14.8128"/>
</g>
<!-- Node19&#45;&gt;Node20 -->
<g id="edge28" class="edge">
<title>Node19&#45;&gt;Node20</title>
<path fill="none" stroke="#191970" d="M335.0846,-112.2455C343.8602,-104.0549 356.5888,-92.1749 366.9474,-82.5069"/>
<polygon fill="#191970" stroke="#191970" points="369.3795,-85.0246 374.3019,-75.6427 364.6032,-79.9072 369.3795,-85.0246"/>
</g>
<!-- Node21&#45;&gt;Node2 -->
<g id="edge32" class="edge">
<title>Node21&#45;&gt;Node2</title>
<path fill="none" stroke="#191970" d="M730.0886,-168.4609C749.7092,-159.8154 778.7159,-146.2752 802.6334,-132 832.4068,-114.2296 912.3077,-54.6988 950.6029,-25.8878"/>
<polygon fill="#191970" stroke="#191970" points="953.0832,-28.4013 958.9636,-19.5882 948.8707,-22.8106 953.0832,-28.4013"/>
</g>
<!-- Node21&#45;&gt;Node3 -->
<g id="edge34" class="edge">
<title>Node21&#45;&gt;Node3</title>
<path fill="none" stroke="#191970" d="M735.3875,-168.7543C752.5137,-161.5337 773.3073,-149.71 784.6334,-132 793.3528,-118.3659 794.6115,-99.8256 793.9715,-85.8667"/>
<polygon fill="#191970" stroke="#191970" points="797.4549,-85.5194 793.1574,-75.8353 790.4779,-86.0857 797.4549,-85.5194"/>
</g>
<!-- Node21&#45;&gt;Node8 -->
<g id="edge33" class="edge">
<title>Node21&#45;&gt;Node8</title>
<path fill="none" stroke="#191970" d="M679.8633,-174.1444C665.4816,-172.1988 647.6281,-169.8629 631.6334,-168 474.1112,-149.6538 434.1709,-150.2139 276.6334,-132 264.7226,-130.6229 251.7933,-128.9956 239.991,-127.4581"/>
<polygon fill="#191970" stroke="#191970" points="240.3346,-123.9733 229.9634,-126.1387 239.4213,-130.9134 240.3346,-123.9733"/>
</g>
<!-- Node21&#45;&gt;Node11 -->
<g id="edge31" class="edge">
<title>Node21&#45;&gt;Node11</title>
<path fill="none" stroke="#191970" d="M679.8815,-173.979C665.5046,-171.9896 647.65,-169.6646 631.6334,-168 422.8142,-146.2979 369.8802,-149.0939 160.6334,-132 135.6307,-129.9575 107.5837,-127.5215 85.4474,-125.5652"/>
<polygon fill="#191970" stroke="#191970" points="85.6806,-122.0722 75.4105,-124.6753 85.0623,-129.0449 85.6806,-122.0722"/>
</g>
<!-- Node21&#45;&gt;Node17 -->
<g id="edge35" class="edge">
<title>Node21&#45;&gt;Node17</title>
<path fill="none" stroke="#191970" d="M735.3454,-171.1333C777.684,-160.6423 858.2128,-140.6883 902.5067,-129.7128"/>
<polygon fill="#191970" stroke="#191970" points="903.558,-133.0582 912.4226,-127.2558 901.8744,-126.2637 903.558,-133.0582"/>
</g>
<!-- Node22&#45;&gt;Node2 -->
<g id="edge37" class="edge">
<title>Node22&#45;&gt;Node2</title>
<path fill="none" stroke="#191970" d="M1340.8848,-58.2269C1336.0784,-57.4483 1331.2571,-56.6911 1326.6334,-56 1208.9748,-38.4128 1068.7814,-21.4071 1005.542,-13.9469"/>
<polygon fill="#191970" stroke="#191970" points="1005.6987,-10.4413 995.3584,-12.7497 1004.8814,-17.3934 1005.6987,-10.4413"/>
</g>
<!-- Node23&#45;&gt;Node2 -->
<g id="edge41" class="edge">
<title>Node23&#45;&gt;Node2</title>
<path fill="none" stroke="#191970" d="M1184.5908,-112.2977C1179.53,-97.7852 1167.9801,-70.5759 1148.6334,-56 1126.2134,-39.1087 1050.3197,-23.6054 1005.5194,-15.6314"/>
<polygon fill="#191970" stroke="#191970" points="1005.8408,-12.1346 995.3877,-13.8619 1004.6364,-19.0303 1005.8408,-12.1346"/>
</g>
<!-- Node23&#45;&gt;Node3 -->
<g id="edge40" class="edge">
<title>Node23&#45;&gt;Node3</title>
<path fill="none" stroke="#191970" d="M1162.5614,-118.4545C1094.7919,-108.8709 907.7241,-82.4169 828.1857,-71.169"/>
<polygon fill="#191970" stroke="#191970" points="828.5348,-67.6836 818.1432,-69.7489 827.5546,-74.6147 828.5348,-67.6836"/>
</g>
<!-- Node24&#45;&gt;Node5 -->
<g id="edge43" class="edge">
<title>Node24&#45;&gt;Node5</title>
<path fill="none" stroke="#191970" d="M879.2935,-224.4352C880.7034,-210.5823 885.0885,-184.7628 898.6334,-168 922.599,-138.3407 989.223,-140.2701 963.6334,-112 935.719,-81.1617 651.9074,-70.1257 543.9823,-67.0252"/>
<polygon fill="#191970" stroke="#191970" points="543.8954,-63.5215 533.8018,-66.7414 543.7003,-70.5188 543.8954,-63.5215"/>
</g>
<!-- Node24&#45;&gt;Node25 -->
<g id="edge44" class="edge">
<title>Node24&#45;&gt;Node25</title>
<path fill="none" stroke="#191970" d="M868.7047,-224.2455C860.4496,-216.1352 848.5124,-204.4075 838.7251,-194.7919"/>
<polygon fill="#191970" stroke="#191970" points="841.0345,-192.1542 831.4482,-187.6427 836.1287,-197.1476 841.0345,-192.1542"/>
</g>
<!-- Node24&#45;&gt;Node26 -->
<g id="edge48" class="edge">
<title>Node24&#45;&gt;Node26</title>
<path fill="none" stroke="#191970" d="M907.2557,-226.3309C942.1646,-216.9773 1001.5838,-201.0563 1042.6329,-190.0575"/>
<polygon fill="#191970" stroke="#191970" points="1043.6346,-193.4127 1052.388,-187.4437 1041.8229,-186.6512 1043.6346,-193.4127"/>
</g>
<!-- Node25&#45;&gt;Node2 -->
<g id="edge47" class="edge">
<title>Node25&#45;&gt;Node2</title>
<path fill="none" stroke="#191970" d="M830.1278,-168.4862C854.4552,-141.2396 924.6537,-62.6172 956.0891,-27.4096"/>
<polygon fill="#191970" stroke="#191970" points="958.8091,-29.6184 962.8585,-19.8279 953.5875,-24.9562 958.8091,-29.6184"/>
</g>
<!-- Node25&#45;&gt;Node14 -->
<g id="edge46" class="edge">
<title>Node25&#45;&gt;Node14</title>
<path fill="none" stroke="#191970" d="M803.8663,-168.2455C787.9239,-159.4928 764.3075,-146.527 746.1345,-136.5496"/>
<polygon fill="#191970" stroke="#191970" points="747.647,-133.3873 737.1968,-131.6427 744.2782,-139.5233 747.647,-133.3873"/>
</g>
<!-- Node25&#45;&gt;Node17 -->
<g id="edge45" class="edge">
<title>Node25&#45;&gt;Node17</title>
<path fill="none" stroke="#191970" d="M840.8869,-168.3733C858.7045,-159.4644 885.408,-146.1127 905.5928,-136.0203"/>
<polygon fill="#191970" stroke="#191970" points="907.2521,-139.1038 914.6311,-131.5011 904.1216,-132.8428 907.2521,-139.1038"/>
</g>
<!-- Node26&#45;&gt;Node2 -->
<g id="edge50" class="edge">
<title>Node26&#45;&gt;Node2</title>
<path fill="none" stroke="#191970" d="M1084.1387,-168.4205C1075.9781,-146.8594 1054.1021,-93.4776 1024.6334,-56 1015.8081,-44.7763 1003.9566,-34.189 993.6988,-26.0074"/>
<polygon fill="#191970" stroke="#191970" points="995.6171,-23.0672 985.5584,-19.7395 991.3465,-28.6135 995.6171,-23.0672"/>
</g>
<!-- Node26&#45;&gt;Node17 -->
<g id="edge49" class="edge">
<title>Node26&#45;&gt;Node17</title>
<path fill="none" stroke="#191970" d="M1061.1598,-168.3733C1034.2351,-158.5825 992.5535,-143.4255 964.2304,-133.1262"/>
<polygon fill="#191970" stroke="#191970" points="965.4095,-129.8308 954.8154,-129.7026 963.0172,-136.4093 965.4095,-129.8308"/>
</g>
<!-- Node27&#45;&gt;Node2 -->
<g id="edge52" class="edge">
<title>Node27&#45;&gt;Node2</title>
<path fill="none" stroke="#191970" d="M1448.6211,-57.9056C1445.2614,-57.1978 1441.8861,-56.5448 1438.6334,-56 1277.8633,-29.0703 1083.1205,-16.1358 1005.7245,-11.7705"/>
<polygon fill="#191970" stroke="#191970" points="1005.7761,-8.2681 995.5981,-11.2109 1005.3897,-15.2574 1005.7761,-8.2681"/>
</g>
<!-- Node28&#45;&gt;Node2 -->
<g id="edge56" class="edge">
<title>Node28&#45;&gt;Node2</title>
<path fill="none" stroke="#191970" d="M182.374,-168.3538C172.1293,-160.0277 158.7064,-146.9963 152.6334,-132 139.9536,-100.6893 128.4254,-80.5464 151.6334,-56 179.0766,-26.9741 786.9597,-13.5142 937.9298,-10.612"/>
<polygon fill="#191970" stroke="#191970" points="938.0639,-14.1102 947.9958,-10.4212 937.9312,-7.1114 938.0639,-14.1102"/>
</g>
<!-- Node28&#45;&gt;Node8 -->
<g id="edge58" class="edge">
<title>Node28&#45;&gt;Node8</title>
<path fill="none" stroke="#191970" d="M196.3301,-168.2455C196.8521,-160.9382 197.5838,-150.6944 198.2259,-141.7046"/>
<polygon fill="#191970" stroke="#191970" points="201.7231,-141.8667 198.9446,-131.6427 194.7409,-141.3679 201.7231,-141.8667"/>
</g>
<!-- Node28&#45;&gt;Node20 -->
<g id="edge57" class="edge">
<title>Node28&#45;&gt;Node20</title>
<path fill="none" stroke="#191970" d="M183.779,-168.3162C168.6126,-154.7692 145.9596,-129.8229 160.6334,-112 211.6318,-50.0566 259.6039,-90.8168 343.3792,-75.9862"/>
<polygon fill="#191970" stroke="#191970" points="344.1085,-79.4097 353.2269,-74.0148 342.7344,-72.5459 344.1085,-79.4097"/>
</g>
<!-- Node29&#45;&gt;Node2 -->
<g id="edge60" class="edge">
<title>Node29&#45;&gt;Node2</title>
<path fill="none" stroke="#191970" d="M73.8743,-172.2961C50.5127,-166.4597 21.3908,-154.844 6.6334,-132 -19.6374,-91.3338 43.8977,-65.3187 65.6334,-56 106.4032,-38.5209 777.2772,-16.1749 937.4775,-11.0704"/>
<polygon fill="#191970" stroke="#191970" points="937.8137,-14.5616 947.6976,-10.7461 937.5916,-7.5651 937.8137,-14.5616"/>
</g>
<!-- Node29&#45;&gt;Node8 -->
<g id="edge62" class="edge">
<title>Node29&#45;&gt;Node8</title>
<path fill="none" stroke="#191970" d="M124.4844,-168.2455C138.4466,-159.6534 159.0062,-147.0014 175.0929,-137.1018"/>
<polygon fill="#191970" stroke="#191970" points="177.2818,-139.8645 183.964,-131.6427 173.6131,-133.9029 177.2818,-139.8645"/>
</g>
<!-- Node29&#45;&gt;Node11 -->
<g id="edge61" class="edge">
<title>Node29&#45;&gt;Node11</title>
<path fill="none" stroke="#191970" d="M97.6596,-168.2455C88.4452,-160.0549 75.0802,-148.1749 64.2037,-138.5069"/>
<polygon fill="#191970" stroke="#191970" points="66.2808,-135.6704 56.4814,-131.6427 61.6302,-140.9023 66.2808,-135.6704"/>
</g>
<!-- Node30&#45;&gt;Node2 -->
<g id="edge64" class="edge">
<title>Node30&#45;&gt;Node2</title>
<path fill="none" stroke="#191970" d="M1296.6264,-168.3397C1268.0639,-140.8457 1187.2706,-63.6532 1172.6334,-56 1118.353,-27.6189 1046.8392,-16.6268 1005.3778,-12.4576"/>
<polygon fill="#191970" stroke="#191970" points="1005.5459,-8.9582 995.2647,-11.5169 1004.8975,-15.9281 1005.5459,-8.9582"/>
</g>
<!-- Node30&#45;&gt;Node17 -->
<g id="edge65" class="edge">
<title>Node30&#45;&gt;Node17</title>
<path fill="none" stroke="#191970" d="M1274.5088,-173.177C1203.7458,-162.5531 1035.1572,-137.2422 965.0511,-126.7169"/>
<polygon fill="#191970" stroke="#191970" points="965.4684,-123.2404 955.0596,-125.2168 964.429,-130.1628 965.4684,-123.2404"/>
</g>
<!-- Node31&#45;&gt;Node2 -->
<g id="edge74" class="edge">
<title>Node31&#45;&gt;Node2</title>
<path fill="none" stroke="#191970" d="M527.4749,-168.4658C545.3593,-155.3078 578.9211,-131.0494 608.6334,-112 650.2163,-85.34 658.2216,-72.907 704.6334,-56 785.0924,-26.6901 886.1425,-15.804 937.8083,-11.9605"/>
<polygon fill="#191970" stroke="#191970" points="938.3273,-15.4328 948.0585,-11.2431 937.8385,-8.4499 938.3273,-15.4328"/>
</g>
<!-- Node31&#45;&gt;Node3 -->
<g id="edge71" class="edge">
<title>Node31&#45;&gt;Node3</title>
<path fill="none" stroke="#191970" d="M533.3443,-168.3211C559.9058,-154.7799 610.2547,-129.8405 654.6334,-112 688.2206,-98.4977 727.4656,-85.6036 755.3221,-76.921"/>
<polygon fill="#191970" stroke="#191970" points="756.5169,-80.2152 765.0382,-73.9194 754.4506,-73.5271 756.5169,-80.2152"/>
</g>
<!-- Node31&#45;&gt;Node4 -->
<g id="edge68" class="edge">
<title>Node31&#45;&gt;Node4</title>
<path fill="none" stroke="#191970" d="M500.6984,-168.2455C488.5387,-159.7337 470.6869,-147.2375 456.6049,-137.3801"/>
<polygon fill="#191970" stroke="#191970" points="458.6081,-134.51 448.4086,-131.6427 454.5938,-140.2447 458.6081,-134.51"/>
</g>
<!-- Node31&#45;&gt;Node5 -->
<g id="edge67" class="edge">
<title>Node31&#45;&gt;Node5</title>
<path fill="none" stroke="#191970" d="M513.6103,-168.4509C511.6531,-150.184 507.3429,-109.9553 504.7438,-85.6976"/>
<polygon fill="#191970" stroke="#191970" points="508.1994,-85.0951 503.6539,-75.5249 501.2392,-85.8409 508.1994,-85.0951"/>
</g>
<!-- Node31&#45;&gt;Node8 -->
<g id="edge69" class="edge">
<title>Node31&#45;&gt;Node8</title>
<path fill="none" stroke="#191970" d="M483.5679,-172.4772C426.2265,-162.2832 303.8084,-140.52 240.0797,-129.1905"/>
<polygon fill="#191970" stroke="#191970" points="240.4616,-125.7036 230.0033,-127.3991 239.2363,-132.5955 240.4616,-125.7036"/>
</g>
<!-- Node31&#45;&gt;Node14 -->
<g id="edge73" class="edge">
<title>Node31&#45;&gt;Node14</title>
<path fill="none" stroke="#191970" d="M545.7685,-169.4948C583.8118,-159.1025 647.8934,-141.5973 686.7253,-130.9895"/>
<polygon fill="#191970" stroke="#191970" points="687.7698,-134.3325 696.494,-128.321 685.9251,-127.5799 687.7698,-134.3325"/>
</g>
<!-- Node31&#45;&gt;Node17 -->
<g id="edge72" class="edge">
<title>Node31&#45;&gt;Node17</title>
<path fill="none" stroke="#191970" d="M545.9956,-169.7683C548.9056,-169.1229 551.8178,-168.5207 554.6334,-168 682.7421,-144.3067 837.555,-129.879 902.5421,-124.4563"/>
<polygon fill="#191970" stroke="#191970" points="902.8608,-127.942 912.5403,-123.6343 902.2871,-120.9655 902.8608,-127.942"/>
</g>
<!-- Node31&#45;&gt;Node19 -->
<g id="edge70" class="edge">
<title>Node31&#45;&gt;Node19</title>
<path fill="none" stroke="#191970" d="M483.2587,-168.7527C451.5054,-159.3939 402.2008,-144.862 366.9928,-134.4849"/>
<polygon fill="#191970" stroke="#191970" points="367.5905,-131.0122 357.0089,-131.5423 365.6115,-137.7267 367.5905,-131.0122"/>
</g>
<!-- Node32&#45;&gt;Node2 -->
<g id="edge76" class="edge">
<title>Node32&#45;&gt;Node2</title>
<path fill="none" stroke="#191970" d="M963.2136,-169.6973C981.0475,-162.7338 1002.8727,-150.8385 1013.6334,-132 1033.325,-97.5261 1005.6197,-52.3105 986.707,-27.7503"/>
<polygon fill="#191970" stroke="#191970" points="989.2301,-25.3023 980.241,-19.6945 983.7711,-29.684 989.2301,-25.3023"/>
</g>
<!-- Node32&#45;&gt;Node3 -->
<g id="edge78" class="edge">
<title>Node32&#45;&gt;Node3</title>
<path fill="none" stroke="#191970" d="M956.0315,-168.3308C979.714,-155.8054 1013.5018,-133.073 996.6334,-112 975.9583,-86.1716 881.6461,-73.8497 828.4397,-68.8619"/>
<polygon fill="#191970" stroke="#191970" points="828.653,-65.3671 818.3805,-67.9603 828.0281,-72.3391 828.653,-65.3671"/>
</g>
<!-- Node32&#45;&gt;Node14 -->
<g id="edge80" class="edge">
<title>Node32&#45;&gt;Node14</title>
<path fill="none" stroke="#191970" d="M907.8373,-170.7936C868.0481,-160.4779 794.9852,-141.5357 752.5463,-130.533"/>
<polygon fill="#191970" stroke="#191970" points="753.2675,-127.1043 742.7092,-127.9826 751.5107,-133.8803 753.2675,-127.1043"/>
</g>
<!-- Node32&#45;&gt;Node17 -->
<g id="edge79" class="edge">
<title>Node32&#45;&gt;Node17</title>
<path fill="none" stroke="#191970" d="M935.285,-168.2455C935.024,-160.9382 934.6582,-150.6944 934.3371,-141.7046"/>
<polygon fill="#191970" stroke="#191970" points="937.8325,-141.5113 933.9777,-131.6427 930.837,-141.7613 937.8325,-141.5113"/>
</g>
<!-- Node32&#45;&gt;Node19 -->
<g id="edge77" class="edge">
<title>Node32&#45;&gt;Node19</title>
<path fill="none" stroke="#191970" d="M907.8834,-173.9613C893.5069,-171.9673 875.6522,-169.6434 859.6334,-168 646.5653,-146.1414 588.6766,-162.1979 373.3295,-132.0813"/>
<polygon fill="#191970" stroke="#191970" points="373.6795,-128.596 363.2876,-130.6597 372.6982,-135.5269 373.6795,-128.596"/>
</g>
<!-- Node33&#45;&gt;Node2 -->
<g id="edge82" class="edge">
<title>Node33&#45;&gt;Node2</title>
<path fill="none" stroke="#191970" d="M1541.4478,-224.1325C1549.3825,-193.9731 1568.4426,-102.2613 1521.6334,-56 1484.867,-19.6641 1119.2949,-11.901 1005.3583,-10.3588"/>
<polygon fill="#191970" stroke="#191970" points="1005.1812,-6.8563 995.1372,-10.2282 1005.0917,-13.8557 1005.1812,-6.8563"/>
</g>
<!-- Node34&#45;&gt;Node3 -->
<g id="edge86" class="edge">
<title>Node34&#45;&gt;Node3</title>
<path fill="none" stroke="#191970" d="M706.8838,-224.4579C686.2442,-212.0666 656.6768,-189.4758 670.6334,-168 692.1005,-134.9672 722.0697,-158.0382 751.6334,-132 766.1969,-119.1731 777.0855,-99.7328 783.7955,-85.2689"/>
<polygon fill="#191970" stroke="#191970" points="787.1435,-86.3474 787.9357,-75.7823 780.7279,-83.5475 787.1435,-86.3474"/>
</g>
<!-- Node34&#45;&gt;Node17 -->
<g id="edge87" class="edge">
<title>Node34&#45;&gt;Node17</title>
<path fill="none" stroke="#191970" d="M730.5219,-224.4155C739.8297,-210.057 759.3017,-183.0461 782.6334,-168 819.879,-143.9812 870.3259,-131.9516 902.4319,-126.3486"/>
<polygon fill="#191970" stroke="#191970" points="903.269,-129.7582 912.5713,-124.6868 902.1368,-122.8504 903.269,-129.7582"/>
</g>
<!-- Node34&#45;&gt;Node31 -->
<g id="edge85" class="edge">
<title>Node34&#45;&gt;Node31</title>
<path fill="none" stroke="#191970" d="M693.1942,-225.6162C656.5924,-215.8557 596.0246,-199.7043 555.7258,-188.958"/>
<polygon fill="#191970" stroke="#191970" points="556.5082,-185.5444 545.944,-186.3495 554.7045,-192.308 556.5082,-185.5444"/>
</g>
<!-- Node35&#45;&gt;Node2 -->
<g id="edge90" class="edge">
<title>Node35&#45;&gt;Node2</title>
<path fill="none" stroke="#191970" d="M1293.5674,-112.0403C1286.9469,-97.1916 1272.3557,-69.5491 1250.6334,-56 1210.1905,-30.7741 1070.5666,-17.3501 1005.5006,-12.3382"/>
<polygon fill="#191970" stroke="#191970" points="1005.5905,-8.8353 995.357,-11.5788 1005.0678,-15.8157 1005.5905,-8.8353"/>
</g>
<!-- Node35&#45;&gt;Node3 -->
<g id="edge91" class="edge">
<title>Node35&#45;&gt;Node3</title>
<path fill="none" stroke="#191970" d="M1268.4214,-117.9879C1254.2977,-116.0911 1237.0944,-113.8439 1221.6334,-112 1076.3241,-94.6704 903.0141,-77.0633 828.5783,-69.6474"/>
<polygon fill="#191970" stroke="#191970" points="828.6257,-66.1349 818.3285,-68.6284 827.9332,-73.1006 828.6257,-66.1349"/>
</g>
</g>
</svg>
