<?xml version="1.0" encoding="UTF-8" standalone="no"?>
<!DOCTYPE svg PUBLIC "-//W3C//DTD SVG 1.1//EN"
 "http://www.w3.org/Graphics/SVG/1.1/DTD/svg11.dtd">
<!-- Generated by graphviz version 2.40.1 (0)
 -->
<!-- Title: Drawable Pages: 1 -->
<svg width="162pt" height="84pt"
 viewBox="0.00 0.00 161.50 84.00" xmlns="http://www.w3.org/2000/svg" xmlns:xlink="http://www.w3.org/1999/xlink">
<g id="graph0" class="graph" transform="scale(1 1) rotate(0) translate(4 80)">
<title>Drawable</title>
<polygon fill="#ffffff" stroke="transparent" points="-4,4 -4,-80 157.5,-80 157.5,4 -4,4"/>
<!-- Node0 -->
<g id="node1" class="node">
<title>Node0</title>
<polygon fill="#bfbfbf" stroke="#000000" points="46,-56.5 46,-75.5 105,-75.5 105,-56.5 46,-56.5"/>
<text text-anchor="middle" x="75.5" y="-63.5" font-family="Helvetica,sans-Serif" font-size="10.00" fill="#000000">Drawable</text>
</g>
<!-- Node1 -->
<g id="node2" class="node">
<title>Node1</title>
<polygon fill="#ffffff" stroke="#bfbfbf" points="0,-.5 0,-19.5 35,-19.5 35,-.5 0,-.5"/>
<text text-anchor="middle" x="17.5" y="-7.5" font-family="Helvetica,sans-Serif" font-size="10.00" fill="#000000">Line</text>
</g>
<!-- Node0&#45;&gt;Node1 -->
<g id="edge1" class="edge">
<title>Node0&#45;&gt;Node1</title>
<path fill="none" stroke="#191970" d="M57.9707,-49.0751C47.9917,-39.4402 35.8524,-27.7196 27.4871,-19.6427"/>
<polygon fill="#191970" stroke="#191970" points="55.772,-51.8175 65.3972,-56.2455 60.6342,-46.7817 55.772,-51.8175"/>
</g>
<!-- Node2 -->
<g id="node3" class="node">
<title>Node2</title>
<g id="a_node3"><a xlink:href="classjngl_1_1Sprite.html" target="_top" xlink:title="Sprite">
<polygon fill="#ffffff" stroke="#000000" points="53.5,-.5 53.5,-19.5 97.5,-19.5 97.5,-.5 53.5,-.5"/>
<text text-anchor="middle" x="75.5" y="-7.5" font-family="Helvetica,sans-Serif" font-size="10.00" fill="#000000">Sprite</text>
</a>
</g>
</g>
<!-- Node0&#45;&gt;Node2 -->
<g id="edge2" class="edge">
<title>Node0&#45;&gt;Node2</title>
<path fill="none" stroke="#191970" d="M75.5,-46.1575C75.5,-37.155 75.5,-26.9199 75.5,-19.6427"/>
<polygon fill="#191970" stroke="#191970" points="72.0001,-46.2455 75.5,-56.2455 79.0001,-46.2456 72.0001,-46.2455"/>
</g>
<!-- Node3 -->
<g id="node4" class="node">
<title>Node3</title>
<g id="a_node4"><a xlink:href="classjngl_1_1Text.html" target="_top" xlink:title="Text">
<polygon fill="#ffffff" stroke="#000000" points="115.5,-.5 115.5,-19.5 153.5,-19.5 153.5,-.5 115.5,-.5"/>
<text text-anchor="middle" x="134.5" y="-7.5" font-family="Helvetica,sans-Serif" font-size="10.00" fill="#000000">Text</text>
</a>
</g>
</g>
<!-- Node0&#45;&gt;Node3 -->
<g id="edge3" class="edge">
<title>Node0&#45;&gt;Node3</title>
<path fill="none" stroke="#191970" d="M93.0307,-49.3607C103.2377,-39.6727 115.7469,-27.7995 124.3408,-19.6427"/>
<polygon fill="#191970" stroke="#191970" points="90.6206,-46.8227 85.777,-56.2455 95.4396,-51.8998 90.6206,-46.8227"/>
</g>
</g>
</svg>
