<?xml version="1.0" encoding="UTF-8" standalone="no"?>
<!DOCTYPE svg PUBLIC "-//W3C//DTD SVG 1.1//EN"
 "http://www.w3.org/Graphics/SVG/1.1/DTD/svg11.dtd">
<!-- Generated by graphviz version 2.40.1 (0)
 -->
<!-- Title: Graph Legend Pages: 1 -->
<svg width="523pt" height="159pt"
 viewBox="0.00 0.00 522.50 159.00" xmlns="http://www.w3.org/2000/svg" xmlns:xlink="http://www.w3.org/1999/xlink">
<g id="graph0" class="graph" transform="scale(1 1) rotate(0) translate(4 155)">
<title>Graph Legend</title>
<polygon fill="#ffffff" stroke="transparent" points="-4,4 -4,-155 518.5,-155 518.5,4 -4,4"/>
<!-- Node9 -->
<g id="node1" class="node">
<title>Node9</title>
<polygon fill="#bfbfbf" stroke="#000000" points="302,-19 246,-19 246,0 302,0 302,-19"/>
<text text-anchor="middle" x="274" y="-7" font-family="Helvetica,sans-Serif" font-size="10.00" fill="#000000">Inherited</text>
</g>
<!-- Node10 -->
<g id="node2" class="node">
<title>Node10</title>
<g id="a_node2"><a xlink:href="$classPublicBase.html" xlink:title="PublicBase">
<polygon fill="none" stroke="#000000" points="68,-85 0,-85 0,-66 68,-66 68,-85"/>
<text text-anchor="middle" x="34" y="-73" font-family="Helvetica,sans-Serif" font-size="10.00" fill="#000000">PublicBase</text>
</a>
</g>
</g>
<!-- Node10&#45;&gt;Node9 -->
<g id="edge1" class="edge">
<title>Node10&#45;&gt;Node9</title>
<path fill="none" stroke="#191970" d="M77.8183,-63.45C126.7788,-49.9858 204.5879,-28.5883 245.9684,-17.2087"/>
<polygon fill="#191970" stroke="#191970" points="76.8453,-60.0875 68.1313,-66.1139 78.7014,-66.837 76.8453,-60.0875"/>
</g>
<!-- Node11 -->
<g id="node3" class="node">
<title>Node11</title>
<g id="a_node3"><a xlink:href="$classTruncated.html" xlink:title="Truncated">
<polygon fill="none" stroke="#ff0000" points="66,-151 2,-151 2,-132 66,-132 66,-151"/>
<text text-anchor="middle" x="34" y="-139" font-family="Helvetica,sans-Serif" font-size="10.00" fill="#000000">Truncated</text>
</a>
</g>
</g>
<!-- Node11&#45;&gt;Node10 -->
<g id="edge2" class="edge">
<title>Node11&#45;&gt;Node10</title>
<path fill="none" stroke="#191970" d="M34,-121.732C34,-109.6966 34,-94.847 34,-85.2785"/>
<polygon fill="#191970" stroke="#191970" points="30.5001,-121.7614 34,-131.7615 37.5001,-121.7615 30.5001,-121.7614"/>
</g>
<!-- Node13 -->
<g id="node4" class="node">
<title>Node13</title>
<g id="a_node4"><a xlink:href="$classProtectedBase.html" xlink:title="ProtectedBase">
<polygon fill="none" stroke="#000000" points="172,-85 86,-85 86,-66 172,-66 172,-85"/>
<text text-anchor="middle" x="129" y="-73" font-family="Helvetica,sans-Serif" font-size="10.00" fill="#000000">ProtectedBase</text>
</a>
</g>
</g>
<!-- Node13&#45;&gt;Node9 -->
<g id="edge3" class="edge">
<title>Node13&#45;&gt;Node9</title>
<path fill="none" stroke="#006400" d="M159.413,-61.6568C187.4346,-48.9022 228.2875,-30.3071 252.8903,-19.1085"/>
<polygon fill="#006400" stroke="#006400" points="157.7358,-58.5747 150.0842,-65.903 160.6358,-64.9458 157.7358,-58.5747"/>
</g>
<!-- Node14 -->
<g id="node5" class="node">
<title>Node14</title>
<g id="a_node5"><a xlink:href="$classPrivateBase.html" xlink:title="PrivateBase">
<polygon fill="none" stroke="#000000" points="261.5,-85 190.5,-85 190.5,-66 261.5,-66 261.5,-85"/>
<text text-anchor="middle" x="226" y="-73" font-family="Helvetica,sans-Serif" font-size="10.00" fill="#000000">PrivateBase</text>
</a>
</g>
</g>
<!-- Node14&#45;&gt;Node9 -->
<g id="edge4" class="edge">
<title>Node14&#45;&gt;Node9</title>
<path fill="none" stroke="#8b1a1a" d="M239.0538,-57.5511C248.0177,-45.2256 259.5744,-29.3352 266.8884,-19.2785"/>
<polygon fill="#8b1a1a" stroke="#8b1a1a" points="236.1337,-55.6155 233.0826,-65.7615 241.7949,-59.7327 236.1337,-55.6155"/>
</g>
<!-- Node15 -->
<g id="node6" class="node">
<title>Node15</title>
<polygon fill="none" stroke="#bfbfbf" points="366.5,-85 279.5,-85 279.5,-66 366.5,-66 366.5,-85"/>
<text text-anchor="middle" x="323" y="-73" font-family="Helvetica,sans-Serif" font-size="10.00" fill="#000000">Undocumented</text>
</g>
<!-- Node15&#45;&gt;Node9 -->
<g id="edge5" class="edge">
<title>Node15&#45;&gt;Node9</title>
<path fill="none" stroke="#191970" d="M309.6743,-57.5511C300.5236,-45.2256 288.7261,-29.3352 281.2598,-19.2785"/>
<polygon fill="#191970" stroke="#191970" points="306.9986,-59.8187 315.7699,-65.7615 312.619,-55.646 306.9986,-59.8187"/>
</g>
<!-- Node16 -->
<g id="node7" class="node">
<title>Node16</title>
<g id="a_node7"><a xlink:href="$classTempl.html" xlink:title="Templ&lt; int &gt;">
<polygon fill="none" stroke="#000000" points="455.5,-85 384.5,-85 384.5,-66 455.5,-66 455.5,-85"/>
<text text-anchor="middle" x="420" y="-73" font-family="Helvetica,sans-Serif" font-size="10.00" fill="#000000">Templ&lt; int &gt;</text>
</a>
</g>
</g>
<!-- Node16&#45;&gt;Node9 -->
<g id="edge6" class="edge">
<title>Node16&#45;&gt;Node9</title>
<path fill="none" stroke="#191970" d="M389.3772,-61.6568C361.1624,-48.9022 320.0277,-30.3071 295.2553,-19.1085"/>
<polygon fill="#191970" stroke="#191970" points="388.2164,-64.973 398.7703,-65.903 391.0999,-58.5945 388.2164,-64.973"/>
</g>
<!-- Node17 -->
<g id="node8" class="node">
<title>Node17</title>
<g id="a_node8"><a xlink:href="$classTempl.html" xlink:title="Templ&lt; T &gt;">
<polygon fill="none" stroke="#000000" points="453.5,-151 386.5,-151 386.5,-132 453.5,-132 453.5,-151"/>
<text text-anchor="middle" x="420" y="-139" font-family="Helvetica,sans-Serif" font-size="10.00" fill="#000000">Templ&lt; T &gt;</text>
</a>
</g>
</g>
<!-- Node17&#45;&gt;Node16 -->
<g id="edge7" class="edge">
<title>Node17&#45;&gt;Node16</title>
<path fill="none" stroke="#ffa500" stroke-dasharray="5,2" d="M420,-121.732C420,-109.6966 420,-94.847 420,-85.2785"/>
<polygon fill="#ffa500" stroke="#ffa500" points="416.5001,-121.7614 420,-131.7615 423.5001,-121.7615 416.5001,-121.7614"/>
<text text-anchor="middle" x="433.5" y="-106" font-family="Helvetica,sans-Serif" font-size="10.00" fill="#000000">&lt; int &gt;</text>
</g>
<!-- Node18 -->
<g id="node9" class="node">
<title>Node18</title>
<g id="a_node9"><a xlink:href="$classUsed.html" xlink:title="Used">
<polygon fill="none" stroke="#000000" points="514.5,-85 473.5,-85 473.5,-66 514.5,-66 514.5,-85"/>
<text text-anchor="middle" x="494" y="-73" font-family="Helvetica,sans-Serif" font-size="10.00" fill="#000000">Used</text>
</a>
</g>
</g>
<!-- Node18&#45;&gt;Node9 -->
<g id="edge8" class="edge">
<title>Node18&#45;&gt;Node9</title>
<path fill="none" stroke="#9a32cd" stroke-dasharray="5,2" d="M463.7459,-65.6647C400.8401,-46.1419 337.7504,-27.7928 302.2325,-17.5745"/>
<polygon fill="#9a32cd" stroke="#9a32cd" points="462.84,-69.0483 473.4285,-68.6796 464.9212,-62.3648 462.84,-69.0483"/>
<text text-anchor="middle" x="432.5" y="-40" font-family="Helvetica,sans-Serif" font-size="10.00" fill="#000000">m_usedClass</text>
</g>
</g>
</svg>
