<?xml version="1.0" encoding="UTF-8" standalone="no"?>
<!DOCTYPE svg PUBLIC "-//W3C//DTD SVG 1.1//EN"
 "http://www.w3.org/Graphics/SVG/1.1/DTD/svg11.dtd">
<!-- Generated by graphviz version 2.40.1 (0)
 -->
<!-- Title: Graphical Class Hierarchy Pages: 1 -->
<svg width="147pt" height="66pt"
 viewBox="0.00 0.00 147.00 66.00" xmlns="http://www.w3.org/2000/svg" xmlns:xlink="http://www.w3.org/1999/xlink">
<g id="graph0" class="graph" transform="scale(1 1) rotate(0) translate(4 62)">
<title>Graphical Class Hierarchy</title>
<polygon fill="#ffffff" stroke="transparent" points="-4,4 -4,-62 143,-62 143,4 -4,4"/>
<!-- Node0 -->
<g id="node1" class="node">
<title>Node0</title>
<g id="a_node1"><a xlink:href="classjngl_1_1Drawable.html" target="_top" xlink:title="Drawable">
<polygon fill="#ffffff" stroke="#000000" points="0,-19.5 0,-38.5 59,-38.5 59,-19.5 0,-19.5"/>
<text text-anchor="middle" x="29.5" y="-26.5" font-family="Helvetica,sans-Serif" font-size="10.00" fill="#000000">Drawable</text>
</a>
</g>
</g>
<!-- Node1 -->
<g id="node2" class="node">
<title>Node1</title>
<g id="a_node2"><a xlink:href="classjngl_1_1Sprite.html" target="_top" xlink:title="Sprite">
<polygon fill="#ffffff" stroke="#000000" points="95,-38.5 95,-57.5 139,-57.5 139,-38.5 95,-38.5"/>
<text text-anchor="middle" x="117" y="-45.5" font-family="Helvetica,sans-Serif" font-size="10.00" fill="#000000">Sprite</text>
</a>
</g>
</g>
<!-- Node0&#45;&gt;Node1 -->
<g id="edge1" class="edge">
<title>Node0&#45;&gt;Node1</title>
<path fill="none" stroke="#191970" d="M68.9811,-37.573C77.8717,-39.5036 86.9997,-41.4857 94.8777,-43.1963"/>
<polygon fill="#191970" stroke="#191970" points="69.6385,-34.1343 59.1235,-35.4325 68.1531,-40.9749 69.6385,-34.1343"/>
</g>
<!-- Node2 -->
<g id="node3" class="node">
<title>Node2</title>
<g id="a_node3"><a xlink:href="classjngl_1_1Text.html" target="_top" xlink:title="Text">
<polygon fill="#ffffff" stroke="#000000" points="98,-.5 98,-19.5 136,-19.5 136,-.5 98,-.5"/>
<text text-anchor="middle" x="117" y="-7.5" font-family="Helvetica,sans-Serif" font-size="10.00" fill="#000000">Text</text>
</a>
</g>
</g>
<!-- Node0&#45;&gt;Node2 -->
<g id="edge2" class="edge">
<title>Node0&#45;&gt;Node2</title>
<path fill="none" stroke="#191970" d="M68.9763,-20.428C79.0091,-18.2495 89.3445,-16.0052 97.8451,-14.1594"/>
<polygon fill="#191970" stroke="#191970" points="68.1531,-17.0251 59.1235,-22.5675 69.6385,-23.8657 68.1531,-17.0251"/>
</g>
</g>
</svg>
