<?xml version="1.0" encoding="UTF-8" standalone="no"?>
<svg
   xmlns:dc="http://purl.org/dc/elements/1.1/"
   xmlns:cc="http://creativecommons.org/ns#"
   xmlns:rdf="http://www.w3.org/1999/02/22-rdf-syntax-ns#"
   xmlns:svg="http://www.w3.org/2000/svg"
   xmlns="http://www.w3.org/2000/svg"
   xmlns:xlink="http://www.w3.org/1999/xlink"
   xmlns:sodipodi="http://sodipodi.sourceforge.net/DTD/sodipodi-0.dtd"
   xmlns:inkscape="http://www.inkscape.org/namespaces/inkscape"
   width="123.09966mm"
   height="46.223068mm"
   viewBox="0 0 123.09966 46.223068"
   version="1.1"
   id="svg80"
   inkscape:version="1.0.2 (e86c8708, 2021-01-15)"
   sodipodi:docname="jngl.svg">
  <defs
     id="defs74">
    <linearGradient
       inkscape:collect="always"
       xlink:href="#linearGradient1068"
       id="linearGradient1070"
       x1="527.49084"
       y1="190.59569"
       x2="775.50549"
       y2="534.54059"
       gradientUnits="userSpaceOnUse"
       gradientTransform="matrix(0.0571147,0,0,0.0571147,8.0136714,66.518777)" />
    <linearGradient
       inkscape:collect="always"
       id="linearGradient1068">
      <stop
         style="stop-color:#dc79b2;stop-opacity:1;"
         offset="0"
         id="stop1064" />
      <stop
         style="stop-color:#cc3a8e;stop-opacity:1"
         offset="1"
         id="stop1066" />
    </linearGradient>
  </defs>
  <sodipodi:namedview
     id="base"
     pagecolor="#ffffff"
     bordercolor="#666666"
     borderopacity="1.0"
     inkscape:pageopacity="0.0"
     inkscape:pageshadow="2"
     inkscape:zoom="0.35"
     inkscape:cx="333.68656"
     inkscape:cy="233.06496"
     inkscape:document-units="mm"
     inkscape:current-layer="layer1"
     inkscape:document-rotation="0"
     showgrid="false"
     fit-margin-left="1"
     fit-margin-top="1"
     fit-margin-bottom="1"
     fit-margin-right="8"
     inkscape:window-width="1248"
     inkscape:window-height="943"
     inkscape:window-x="0"
     inkscape:window-y="25"
     inkscape:window-maximized="0" />
  <metadata
     id="metadata77">
    <rdf:RDF>
      <cc:Work
         rdf:about="">
        <dc:format>image/svg+xml</dc:format>
        <dc:type
           rdf:resource="http://purl.org/dc/dcmitype/StillImage" />
        <dc:title></dc:title>
      </cc:Work>
    </rdf:RDF>
  </metadata>
  <g
     inkscape:label="Ebene 1"
     inkscape:groupmode="layer"
     id="layer1"
     transform="translate(-17.545431,-86.501562)">
    <circle
       style="fill:#ffffff;fill-opacity:0.7;stroke-width:0.264583"
       id="path1"
       cx="40.66"
       cy="109.6"
       r="22.04" />
    <path
       inkscape:connector-curvature="0"
       style="vector-effect:none;fill:url(#linearGradient1070);fill-opacity:1;stroke:none;stroke-width:0.481;stroke-linecap:butt;stroke-linejoin:miter;stroke-miterlimit:4;stroke-dasharray:none;stroke-dashoffset:0;stroke-opacity:1"
       d="m 40.656961,89.296659 a 20.316515,20.316515 0 0 0 -1.87664,0.09393 v 1.652087 a 18.684667,18.684667 0 0 1 1.87664,-0.11423 18.684667,18.684667 0 0 1 18.65866,17.950304 h 1.62119 A 20.316515,20.316515 0 0 0 40.656961,89.296661 Z"
       id="path897-7-0" />
    <path
       inkscape:connector-curvature="0"
       style="vector-effect:none;fill:#2d77c9;fill-opacity:1;stroke:none;stroke-width:0.481;stroke-linecap:butt;stroke-linejoin:miter;stroke-miterlimit:4;stroke-dasharray:none;stroke-dashoffset:0;stroke-opacity:1"
       d="m 40.656961,87.501562 a 22.111547,22.111547 0 0 0 -22.11153,22.111528 22.111547,22.111547 0 0 0 22.11153,22.11154 22.111547,22.111547 0 0 0 22.11153,-22.11154 22.111547,22.111547 0 0 0 -0.844,-6.03006 l -5.02152,5.02152 c -2.18277,2.18277 -4.53523,3.74775 -6.53718,4.48886 a 9.3884592,4.5265786 45 0 0 -3.97728,-8.94681 9.3884592,4.5265786 45 0 0 -9.05558,-3.94628 c 0.72523,-2.023505 2.30743,-4.419102 4.52701,-6.638688 l 5.12526,-5.125152 a 22.111547,22.111547 0 0 0 -6.32824,-0.934918 z m -1.8096,13.457878 c 0.0504,-4.3e-4 0.10141,-6e-5 0.15305,0.001 1.97129,0.0534 4.61811,1.49241 6.84986,3.72417 3.27636,3.27636 4.65181,7.21296 3.07215,8.79265 -0.73686,0.73063 -2.02982,0.84788 -3.6115,0.32752 -0.18692,0.25608 -0.40149,0.50712 -0.64589,0.75152 -0.73803,0.73803 -1.37361,-0.22521 -4.00171,3.09345 -0.88781,1.1211 -2.50384,1.6181 -3.82144,2.3465 -1.6464,0.91018 0.1329,-1.11054 -4.67995,2.09172 -1.25896,0.83766 -4.97807,2.05072 -4.62094,1.29423 1.51746,-3.21435 0.47122,-6.01587 2.92948,-8.45186 3.38578,-3.35511 1.60731,-2.85928 2.47199,-4.1735 1.31545,-1.99935 2.61872,-3.69297 3.42443,-4.49868 0.18327,-0.18327 0.37028,-0.34974 0.56032,-0.50053 -0.73117,-1.81386 -0.68374,-3.32279 0.1303,-4.14517 0.42278,-0.42279 1.0343,-0.6456 1.78985,-0.65336 z m 0.12985,0.92231 c -0.6786,2.2e-4 -1.24924,0.19069 -1.65119,0.59268 -0.65398,0.65814 -0.76632,1.80814 -0.31436,3.21738 0.95415,-0.72993 1.98288,-1.06276 3.00834,-1.06298 0.053,-2e-5 0.10591,0.001 0.15885,0.003 -0.47745,0.20948 -0.94185,0.52699 -1.37934,0.96448 -0.63279,0.63279 -1.65639,1.96294 -2.68953,3.5332 -0.67911,1.03217 0.71769,0.64279 -1.94145,3.27784 -1.93068,1.91319 -1.10887,4.11342 -2.30065,6.63791 -0.28049,0.59414 2.64035,-0.35857 3.62913,-1.01646 3.77993,-2.515 2.38259,-0.92789 3.67564,-1.64272 1.03482,-0.57208 2.30392,-0.96246 3.0012,-1.84295 2.06407,-2.60642 2.56334,-1.84986 3.14298,-2.42949 0.44404,-0.44405 0.7643,-0.91587 0.97363,-1.40088 0.0399,1.0029 -0.23498,2.01349 -0.88483,2.95893 1.15576,0.25937 2.08799,0.0971 2.65516,-0.46228 1.42939,-1.42918 0.18493,-4.99102 -2.77954,-7.95545 -2.13064,-2.1306 -4.56985,-3.37276 -6.30404,-3.37211 z m 2.39647,3.36821 c 1.04189,0.003 2.07824,0.5058 2.93617,1.36372 1.57439,1.5744 1.95166,3.74977 0.24407,5.45736 -0.50707,0.50707 -0.94386,-0.15474 -2.74953,2.1254 -0.60999,0.77027 -1.72022,1.11169 -2.62549,1.61215 -1.13118,0.62535 0.0914,-0.76303 -3.21538,1.43713 -0.86499,0.57552 -3.42037,1.40905 -3.175,0.88929 1.04259,-2.20846 0.32375,-4.13328 2.01273,-5.80696 2.32625,-2.30518 1.1044,-1.96449 1.6985,-2.86745 0.9038,-1.37368 1.79917,-2.53742 2.35274,-3.09099 0.74707,-0.74707 1.58371,-1.09512 2.42035,-1.11843 0.0336,-8.6e-4 0.0672,-0.001 0.10084,-0.001 z"
       id="path897-6" />
    <g
       aria-label="JNGL"
       id="text1074"
       style="font-style:normal;font-variant:normal;font-weight:normal;font-stretch:normal;font-size:24.3418px;line-height:1.25;font-family:Lato;-inkscape-font-specification:Lato;font-variant-ligatures:normal;font-variant-caps:normal;font-variant-numeric:normal;font-variant-east-asian:normal;letter-spacing:0px;word-spacing:0px;fill:#2d77c9;fill-opacity:1;stroke:none;stroke-width:1.22568">
      <path
         d="m 79.54238,108.05082 q 0,1.5494 -0.380999,2.79399 -0.380998,1.2446 -1.142995,2.12089 -0.749297,0.8763 -1.879593,1.3462 -1.130295,0.4699 -2.62889,0.4699 -0.685797,0 -1.346194,-0.0889 -0.660398,-0.0762 -1.384295,-0.254 0.0381,-0.508 0.0889,-1.016 0.0508,-0.508 0.0889,-1.01599 0.0381,-0.2794 0.2159,-0.4445 0.190499,-0.1778 0.533398,-0.1778 0.215899,0 0.558797,0.0889 0.355599,0.0889 0.888997,0.0889 0.723897,0 1.282695,-0.2032 0.558798,-0.2159 0.927096,-0.6731 0.380999,-0.4572 0.571498,-1.18109 0.190499,-0.7366 0.190499,-1.778 V 96.21447 h 3.416287 z"
         style="font-style:normal;font-variant:normal;font-weight:bold;font-stretch:normal;font-size:25.3999px;font-family:Lato;-inkscape-font-specification:'Lato Bold';font-variant-ligatures:normal;font-variant-caps:normal;font-variant-numeric:normal;font-variant-east-asian:normal;fill:#2d77c9;fill-opacity:1;stroke-width:1.22568"
         id="path180" />
      <path
         d="m 98.939966,96.21447 v 18.36413 h -1.752593 q -0.406398,0 -0.685797,-0.127 -0.266699,-0.1397 -0.520698,-0.4572 l -9.588463,-12.24275 q 0.0762,0.8382 0.0762,1.54939 V 114.5786 H 83.458727 V 96.21447 h 1.790693 q 0.215899,0 0.368298,0.0254 0.1651,0.0127 0.279399,0.0762 0.127,0.0508 0.241299,0.165099 0.1143,0.1016 0.253999,0.279399 l 9.626563,12.293552 q -0.0381,-0.4445 -0.0635,-0.8763 -0.0254,-0.4318 -0.0254,-0.80009 V 96.21447 Z"
         style="font-style:normal;font-variant:normal;font-weight:bold;font-stretch:normal;font-size:25.3999px;font-family:Lato;-inkscape-font-specification:'Lato Bold';font-variant-ligatures:normal;font-variant-caps:normal;font-variant-numeric:normal;font-variant-east-asian:normal;fill:#2d77c9;fill-opacity:1;stroke-width:1.22568"
         id="path182" />
      <path
         d="m 118.1927,105.37113 v 7.42947 q -1.397,1.0287 -2.98449,1.5113 -1.5748,0.4699 -3.37819,0.4699 -2.24789,0 -4.07668,-0.6985 -1.8161,-0.6985 -3.11149,-1.94309 -1.2827,-1.2446 -1.98119,-2.97179 -0.6985,-1.72719 -0.6985,-3.77189 0,-2.07009 0.6731,-3.79728 0.67309,-1.727194 1.90499,-2.971789 1.24459,-1.244596 3.00989,-1.930393 1.76529,-0.685797 3.96238,-0.685797 1.1176,0 2.08279,0.177799 0.9779,0.177799 1.8034,0.495298 0.83819,0.304799 1.52399,0.749297 0.6858,0.444498 1.2573,0.977896 l -0.9779,1.549394 q -0.2286,0.368295 -0.5969,0.457195 -0.3683,0.0762 -0.8001,-0.1905 -0.41909,-0.241295 -0.83819,-0.482594 -0.4191,-0.241299 -0.9398,-0.419098 -0.508,-0.177799 -1.15569,-0.292099 -0.635,-0.1143 -1.4732,-0.1143 -1.35889,0 -2.46379,0.457199 -1.09219,0.457198 -1.86689,1.308092 -0.7747,0.8509 -1.1938,2.04469 -0.41909,1.1938 -0.41909,2.66699 0,1.5748 0.44449,2.81939 0.4572,1.2319 1.27,2.09549 0.8255,0.8509 1.98119,1.3081 1.1557,0.4445 2.57809,0.4445 1.016,0 1.81609,-0.2159 0.8001,-0.2159 1.5621,-0.5842 v -3.32739 h -2.31139 q -0.3302,0 -0.5207,-0.1778 -0.1778,-0.19049 -0.1778,-0.45719 v -1.9304 z"
         style="font-style:normal;font-variant:normal;font-weight:bold;font-stretch:normal;font-size:25.3999px;font-family:Lato;-inkscape-font-specification:'Lato Bold';font-variant-ligatures:normal;font-variant-caps:normal;font-variant-numeric:normal;font-variant-east-asian:normal;fill:#2d77c9;fill-opacity:1;stroke-width:1.22568"
         id="path184" />
      <path
         d="m 132.26583,111.75921 v 2.81939 H 121.50897 V 96.21447 h 3.41628 v 15.54474 z"
         style="font-style:normal;font-variant:normal;font-weight:bold;font-stretch:normal;font-size:25.3999px;font-family:Lato;-inkscape-font-specification:'Lato Bold';font-variant-ligatures:normal;font-variant-caps:normal;font-variant-numeric:normal;font-variant-east-asian:normal;fill:#2d77c9;fill-opacity:1;stroke-width:1.22568"
         id="path186" />
    </g>
    <g
       aria-label="Just a Neat Game Library"
       id="text1074-6"
       style="font-style:normal;font-variant:normal;font-weight:normal;font-stretch:normal;font-size:5.65057px;line-height:1.25;font-family:Lato;-inkscape-font-specification:Lato;font-variant-ligatures:normal;font-variant-caps:normal;font-variant-numeric:normal;font-variant-east-asian:normal;letter-spacing:0px;word-spacing:0px;fill:#cc3a8e;fill-opacity:1;stroke:none;stroke-width:1.22568">
      <path
         d="m 72.33708,119.80327 q 0,0.33904 -0.08476,0.60744 -0.08193,0.2684 -0.2458,0.45487 -0.161041,0.18364 -0.398365,0.28253 -0.237324,0.0989 -0.54528,0.0989 -0.279704,0 -0.570708,-0.0791 0.0057,-0.0819 0.01413,-0.16104 0.0085,-0.0819 0.01413,-0.16105 0.0057,-0.048 0.0339,-0.0763 0.03108,-0.0311 0.09323,-0.0311 0.05085,0 0.132788,0.0254 0.08476,0.0254 0.226023,0.0254 0.186469,0 0.333384,-0.0565 0.146914,-0.0565 0.245799,-0.17517 0.09888,-0.11866 0.14974,-0.3023 0.05368,-0.18647 0.05368,-0.44075 v -2.66141 h 0.548105 z"
         style="font-style:normal;font-variant:normal;font-weight:normal;font-stretch:normal;font-size:5.65057px;font-family:Lato;-inkscape-font-specification:Lato;font-variant-ligatures:normal;font-variant-caps:normal;font-variant-numeric:normal;font-variant-east-asian:normal;fill:#cc3a8e;fill-opacity:1;stroke-width:1.22568"
         id="path189" />
      <path
         d="m 75.48277,118.33978 v 2.86201 h -0.29948 q -0.107361,0 -0.135614,-0.10454 l -0.03955,-0.30795 q -0.186469,0.20624 -0.418142,0.33338 -0.231673,0.12431 -0.531154,0.12431 -0.234498,0 -0.415316,-0.0763 -0.177993,-0.0791 -0.299481,-0.22037 -0.121487,-0.14126 -0.183643,-0.34186 -0.05933,-0.2006 -0.05933,-0.44357 v -1.82513 h 0.502901 v 1.82513 q 0,0.32491 0.146914,0.5029 0.14974,0.17799 0.454871,0.17799 0.223198,0 0.415317,-0.10453 0.194945,-0.10736 0.358811,-0.29383 v -2.10766 z"
         style="font-style:normal;font-variant:normal;font-weight:normal;font-stretch:normal;font-size:5.65057px;font-family:Lato;-inkscape-font-specification:Lato;font-variant-ligatures:normal;font-variant-caps:normal;font-variant-numeric:normal;font-variant-east-asian:normal;fill:#cc3a8e;fill-opacity:1;stroke-width:1.22568"
         id="path191" />
      <path
         d="m 77.941563,118.8116 q -0.0339,0.0622 -0.104536,0.0622 -0.04238,0 -0.09606,-0.0311 -0.05368,-0.0311 -0.132788,-0.0678 -0.07628,-0.0396 -0.183643,-0.0706 -0.107361,-0.0339 -0.254276,-0.0339 -0.127138,0 -0.228848,0.0339 -0.10171,0.0311 -0.175168,0.0876 -0.07063,0.0565 -0.110186,0.13279 -0.03673,0.0735 -0.03673,0.16104 0,0.11019 0.06216,0.18364 0.06498,0.0735 0.169517,0.12714 0.104535,0.0537 0.237324,0.0961 0.132788,0.0396 0.271227,0.0876 0.141264,0.0452 0.274053,0.10171 0.132788,0.0565 0.237324,0.14126 0.104535,0.0848 0.166691,0.20907 0.06498,0.12149 0.06498,0.29383 0,0.19777 -0.07063,0.36729 -0.07063,0.16669 -0.209071,0.291 -0.138439,0.12149 -0.339035,0.19212 -0.200595,0.0706 -0.463346,0.0706 -0.29948,0 -0.542455,-0.0961 -0.242974,-0.0989 -0.412492,-0.25145 l 0.118662,-0.19212 q 0.0226,-0.0367 0.05368,-0.0565 0.03108,-0.0198 0.07911,-0.0198 0.05085,0 0.107361,0.0396 0.05651,0.0395 0.135613,0.0876 0.08193,0.048 0.19777,0.0876 0.115837,0.0396 0.288179,0.0396 0.146915,0 0.257101,-0.0367 0.110186,-0.0396 0.183644,-0.10454 0.07346,-0.065 0.107361,-0.14974 0.03673,-0.0847 0.03673,-0.18081 0,-0.11867 -0.06498,-0.19495 -0.06216,-0.0791 -0.166692,-0.13279 -0.104536,-0.0565 -0.240149,-0.0961 -0.132789,-0.0424 -0.274053,-0.0876 -0.138439,-0.0452 -0.274053,-0.10171 -0.132788,-0.0593 -0.237323,-0.14692 -0.104536,-0.0876 -0.169518,-0.21472 -0.06216,-0.12996 -0.06216,-0.3136 0,-0.16387 0.06781,-0.31361 0.06781,-0.15257 0.19777,-0.26558 0.129963,-0.11583 0.319257,-0.18364 0.189294,-0.0678 0.432269,-0.0678 0.282528,0 0.505726,0.0904 0.226023,0.0876 0.389889,0.24298 z"
         style="font-style:normal;font-variant:normal;font-weight:normal;font-stretch:normal;font-size:5.65057px;font-family:Lato;-inkscape-font-specification:Lato;font-variant-ligatures:normal;font-variant-caps:normal;font-variant-numeric:normal;font-variant-east-asian:normal;fill:#cc3a8e;fill-opacity:1;stroke-width:1.22568"
         id="path193" />
      <path
         d="m 79.60336,121.24699 q -0.339034,0 -0.522678,-0.18929 -0.180818,-0.18929 -0.180818,-0.54528 v -1.75168 h -0.344685 q -0.0452,0 -0.07628,-0.0254 -0.03108,-0.0283 -0.03108,-0.0848 v -0.2006 l 0.468998,-0.0593 0.115836,-0.88431 q 0.0085,-0.0424 0.03673,-0.0678 0.03108,-0.0282 0.07911,-0.0282 h 0.254276 v 0.98602 h 0.827808 v 0.36446 h -0.827808 v 1.71778 q 0,0.18082 0.08758,0.2684 0.08758,0.0876 0.226022,0.0876 0.07911,0 0.135614,-0.0198 0.05933,-0.0226 0.10171,-0.048 0.04238,-0.0254 0.07063,-0.0452 0.03108,-0.0226 0.05368,-0.0226 0.03955,0 0.07063,0.048 l 0.146915,0.24015 q -0.129963,0.12149 -0.313607,0.19212 -0.183643,0.0678 -0.378588,0.0678 z"
         style="font-style:normal;font-variant:normal;font-weight:normal;font-stretch:normal;font-size:5.65057px;font-family:Lato;-inkscape-font-specification:Lato;font-variant-ligatures:normal;font-variant-caps:normal;font-variant-numeric:normal;font-variant-east-asian:normal;fill:#cc3a8e;fill-opacity:1;stroke-width:1.22568"
         id="path195" />
      <path
         d="m 83.752203,119.91346 q -0.34751,0.0113 -0.59331,0.0565 -0.242974,0.0424 -0.398365,0.11301 -0.152565,0.0706 -0.223198,0.16669 -0.06781,0.0961 -0.06781,0.21472 0,0.11301 0.03673,0.19495 0.03673,0.0819 0.09888,0.13561 0.06498,0.0508 0.14974,0.0763 0.08758,0.0226 0.186469,0.0226 0.132789,0 0.242975,-0.0254 0.110186,-0.0283 0.206245,-0.0791 0.09888,-0.0509 0.186469,-0.12149 0.09041,-0.0706 0.175168,-0.16104 z m -1.624539,-1.16967 q 0.237324,-0.22885 0.511377,-0.34186 0.274052,-0.11301 0.607436,-0.11301 0.240149,0 0.426618,0.0791 0.186469,0.0791 0.313607,0.22037 0.127137,0.14127 0.192119,0.34186 0.06498,0.2006 0.06498,0.44075 v 1.83078 h -0.223198 q -0.07346,0 -0.113011,-0.0226 -0.03955,-0.0254 -0.06216,-0.0961 l -0.05651,-0.27123 q -0.113012,0.10454 -0.220373,0.18647 -0.10736,0.0791 -0.226022,0.13561 -0.118662,0.0537 -0.254276,0.0819 -0.132788,0.0311 -0.296655,0.0311 -0.166692,0 -0.313607,-0.0452 -0.146914,-0.048 -0.257101,-0.14126 -0.10736,-0.0932 -0.172342,-0.2345 -0.06216,-0.14409 -0.06216,-0.33904 0,-0.16951 0.09323,-0.32491 0.09324,-0.15821 0.302306,-0.2797 0.209071,-0.12149 0.54528,-0.19777 0.336209,-0.0791 0.824983,-0.0904 v -0.22319 q 0,-0.33339 -0.14409,-0.50291 -0.144089,-0.17234 -0.420967,-0.17234 -0.186469,0 -0.313607,0.048 -0.124312,0.0452 -0.217547,0.10454 -0.09041,0.0565 -0.158216,0.10453 -0.06498,0.0452 -0.129963,0.0452 -0.05085,0 -0.08758,-0.0254 -0.03673,-0.0282 -0.06216,-0.0678 z"
         style="font-style:normal;font-variant:normal;font-weight:normal;font-stretch:normal;font-size:5.65057px;font-family:Lato;-inkscape-font-specification:Lato;font-variant-ligatures:normal;font-variant-caps:normal;font-variant-numeric:normal;font-variant-east-asian:normal;fill:#cc3a8e;fill-opacity:1;stroke-width:1.22568"
         id="path197" />
      <path
         d="m 89.848903,117.15316 v 4.04863 H 89.57485 q -0.06498,0 -0.110186,-0.0226 -0.04238,-0.0226 -0.08476,-0.0763 l -2.342161,-3.0513 q 0.0057,0.0706 0.0085,0.13844 0.0028,0.0678 0.0028,0.12713 v 2.88462 h -0.480298 v -4.04863 h 0.282528 q 0.03673,0 0.06216,0.006 0.02543,0.003 0.0452,0.0141 0.01978,0.008 0.03955,0.0283 0.01978,0.017 0.04238,0.0452 l 2.342162,3.04848 q -0.0057,-0.0735 -0.0113,-0.14126 -0.0028,-0.0706 -0.0028,-0.13279 v -2.86766 z"
         style="font-style:normal;font-variant:normal;font-weight:normal;font-stretch:normal;font-size:5.65057px;font-family:Lato;-inkscape-font-specification:Lato;font-variant-ligatures:normal;font-variant-caps:normal;font-variant-numeric:normal;font-variant-east-asian:normal;fill:#cc3a8e;fill-opacity:1;stroke-width:1.22568"
         id="path199" />
      <path
         d="m 92.592519,119.45859 q 0,-0.17517 -0.05086,-0.31926 -0.04803,-0.14691 -0.144089,-0.25145 -0.09323,-0.10736 -0.228848,-0.16387 -0.135614,-0.0593 -0.307956,-0.0593 -0.361637,0 -0.573533,0.2119 -0.209071,0.20907 -0.259926,0.58201 z m 0.406841,1.34201 q -0.09323,0.11301 -0.223198,0.19777 -0.129963,0.0819 -0.279703,0.13561 -0.146915,0.0537 -0.305131,0.0791 -0.158216,0.0282 -0.313606,0.0282 -0.296655,0 -0.548106,-0.0989 -0.248625,-0.10171 -0.432268,-0.29383 -0.180819,-0.19495 -0.282529,-0.4803 -0.10171,-0.28535 -0.10171,-0.65547 0,-0.29948 0.09041,-0.5594 0.09323,-0.25993 0.265577,-0.44922 0.172342,-0.19212 0.420967,-0.29948 0.248625,-0.11019 0.559407,-0.11019 0.257101,0 0.474648,0.0876 0.220372,0.0847 0.378588,0.24862 0.161041,0.16104 0.25145,0.40119 0.09041,0.23732 0.09041,0.54246 0,0.11866 -0.02543,0.15821 -0.02543,0.0396 -0.09606,0.0396 h -1.912718 q 0.0085,0.27122 0.07346,0.47182 0.06781,0.20059 0.186469,0.33621 0.118662,0.13279 0.282529,0.20059 0.163866,0.065 0.367287,0.065 0.189294,0 0.324908,-0.0424 0.138439,-0.0452 0.237323,-0.0961 0.09888,-0.0508 0.163867,-0.0932 0.06781,-0.0452 0.115837,-0.0452 0.06216,0 0.09606,0.048 z"
         style="font-style:normal;font-variant:normal;font-weight:normal;font-stretch:normal;font-size:5.65057px;font-family:Lato;-inkscape-font-specification:Lato;font-variant-ligatures:normal;font-variant-caps:normal;font-variant-numeric:normal;font-variant-east-asian:normal;fill:#cc3a8e;fill-opacity:1;stroke-width:1.22568"
         id="path201" />
      <path
         d="m 95.20785,119.91346 q -0.34751,0.0113 -0.593309,0.0565 -0.242975,0.0424 -0.398366,0.11301 -0.152565,0.0706 -0.223197,0.16669 -0.06781,0.0961 -0.06781,0.21472 0,0.11301 0.03673,0.19495 0.03673,0.0819 0.09888,0.13561 0.06498,0.0508 0.14974,0.0763 0.08758,0.0226 0.186469,0.0226 0.132788,0 0.242974,-0.0254 0.110186,-0.0283 0.206246,-0.0791 0.09888,-0.0509 0.186469,-0.12149 0.09041,-0.0706 0.175167,-0.16104 z m -1.624538,-1.16967 q 0.237323,-0.22885 0.511376,-0.34186 0.274053,-0.11301 0.607436,-0.11301 0.24015,0 0.426618,0.0791 0.186469,0.0791 0.313607,0.22037 0.127138,0.14127 0.192119,0.34186 0.06498,0.2006 0.06498,0.44075 v 1.83078 h -0.223198 q -0.07346,0 -0.113011,-0.0226 -0.03955,-0.0254 -0.06216,-0.0961 l -0.05651,-0.27123 q -0.113011,0.10454 -0.220372,0.18647 -0.107361,0.0791 -0.226023,0.13561 -0.118662,0.0537 -0.254276,0.0819 -0.132788,0.0311 -0.296654,0.0311 -0.166692,0 -0.313607,-0.0452 -0.146915,-0.048 -0.257101,-0.14126 -0.107361,-0.0932 -0.172342,-0.2345 -0.06216,-0.14409 -0.06216,-0.33904 0,-0.16951 0.09323,-0.32491 0.09323,-0.15821 0.302305,-0.2797 0.209071,-0.12149 0.54528,-0.19777 0.336209,-0.0791 0.824983,-0.0904 v -0.22319 q 0,-0.33339 -0.144089,-0.50291 -0.14409,-0.17234 -0.420968,-0.17234 -0.186468,0 -0.313606,0.048 -0.124313,0.0452 -0.217547,0.10454 -0.09041,0.0565 -0.158216,0.10453 -0.06498,0.0452 -0.129963,0.0452 -0.05085,0 -0.08758,-0.0254 -0.03673,-0.0282 -0.06216,-0.0678 z"
         style="font-style:normal;font-variant:normal;font-weight:normal;font-stretch:normal;font-size:5.65057px;font-family:Lato;-inkscape-font-specification:Lato;font-variant-ligatures:normal;font-variant-caps:normal;font-variant-numeric:normal;font-variant-east-asian:normal;fill:#cc3a8e;fill-opacity:1;stroke-width:1.22568"
         id="path203" />
      <path
         d="m 97.305536,121.24699 q -0.339034,0 -0.522678,-0.18929 -0.180818,-0.18929 -0.180818,-0.54528 v -1.75168 h -0.344685 q -0.0452,0 -0.07628,-0.0254 -0.03108,-0.0283 -0.03108,-0.0848 v -0.2006 l 0.468998,-0.0593 0.115836,-0.88431 q 0.0085,-0.0424 0.03673,-0.0678 0.03108,-0.0282 0.07911,-0.0282 h 0.254276 v 0.98602 h 0.827808 v 0.36446 h -0.827808 v 1.71778 q 0,0.18082 0.08758,0.2684 0.08758,0.0876 0.226022,0.0876 0.07911,0 0.135614,-0.0198 0.05933,-0.0226 0.10171,-0.048 0.04238,-0.0254 0.07063,-0.0452 0.03108,-0.0226 0.05368,-0.0226 0.03955,0 0.07063,0.048 l 0.146915,0.24015 q -0.129963,0.12149 -0.313607,0.19212 -0.183643,0.0678 -0.378588,0.0678 z"
         style="font-style:normal;font-variant:normal;font-weight:normal;font-stretch:normal;font-size:5.65057px;font-family:Lato;-inkscape-font-specification:Lato;font-variant-ligatures:normal;font-variant-caps:normal;font-variant-numeric:normal;font-variant-east-asian:normal;fill:#cc3a8e;fill-opacity:1;stroke-width:1.22568"
         id="path205" />
      <path
         d="m 103.31059,119.25517 v 1.55391 q -0.30513,0.22037 -0.65264,0.33055 -0.34468,0.10736 -0.75718,0.10736 -0.48877,0 -0.88148,-0.14974 -0.39272,-0.15256 -0.67242,-0.42379 -0.27688,-0.27405 -0.426621,-0.65546 -0.14974,-0.38142 -0.14974,-0.83911 0,-0.46335 0.14409,-0.84476 0.146911,-0.38142 0.415321,-0.65265 0.2684,-0.27405 0.65264,-0.42379 0.38424,-0.14974 0.85888,-0.14974 0.24015,0 0.4464,0.0367 0.20624,0.0339 0.38141,0.10171 0.17517,0.065 0.32491,0.16104 0.14974,0.0932 0.2797,0.2119 l -0.15539,0.24862 q -0.0367,0.0565 -0.0961,0.0735 -0.0565,0.0141 -0.12714,-0.0282 -0.0678,-0.0396 -0.15539,-0.0961 -0.0876,-0.0565 -0.21472,-0.10736 -0.12431,-0.0537 -0.29665,-0.0904 -0.16952,-0.0367 -0.40402,-0.0367 -0.34186,0 -0.61874,0.11301 -0.27687,0.11019 -0.47182,0.31926 -0.19494,0.20624 -0.29948,0.5029 -0.10453,0.29383 -0.10453,0.66112 0,0.38141 0.10736,0.68371 0.11018,0.29948 0.31078,0.51138 0.20342,0.20907 0.4916,0.31926 0.28818,0.11018 0.64699,0.11018 0.28253,0 0.50007,-0.0622 0.22038,-0.065 0.42945,-0.17799 v -0.88997 h -0.63004 q -0.0537,0 -0.0876,-0.0311 -0.0311,-0.0311 -0.0311,-0.0763 v -0.31078 z"
         style="font-style:normal;font-variant:normal;font-weight:normal;font-stretch:normal;font-size:5.65057px;font-family:Lato;-inkscape-font-specification:Lato;font-variant-ligatures:normal;font-variant-caps:normal;font-variant-numeric:normal;font-variant-east-asian:normal;fill:#cc3a8e;fill-opacity:1;stroke-width:1.22568"
         id="path207" />
      <path
         d="m 105.55987,119.91346 q -0.34751,0.0113 -0.59331,0.0565 -0.24297,0.0424 -0.39836,0.11301 -0.15257,0.0706 -0.2232,0.16669 -0.0678,0.0961 -0.0678,0.21472 0,0.11301 0.0367,0.19495 0.0367,0.0819 0.0989,0.13561 0.065,0.0508 0.14975,0.0763 0.0876,0.0226 0.18646,0.0226 0.13279,0 0.24298,-0.0254 0.11018,-0.0283 0.20624,-0.0791 0.0989,-0.0509 0.18647,-0.12149 0.0904,-0.0706 0.17517,-0.16104 z m -1.62454,-1.16967 q 0.23733,-0.22885 0.51138,-0.34186 0.27405,-0.11301 0.60743,-0.11301 0.24015,0 0.42662,0.0791 0.18647,0.0791 0.31361,0.22037 0.12714,0.14127 0.19212,0.34186 0.065,0.2006 0.065,0.44075 v 1.83078 h -0.2232 q -0.0735,0 -0.11301,-0.0226 -0.0396,-0.0254 -0.0622,-0.0961 l -0.0565,-0.27123 q -0.11301,0.10454 -0.22037,0.18647 -0.10736,0.0791 -0.22603,0.13561 -0.11866,0.0537 -0.25427,0.0819 -0.13279,0.0311 -0.29666,0.0311 -0.16669,0 -0.3136,-0.0452 -0.14692,-0.048 -0.2571,-0.14126 -0.10736,-0.0932 -0.17235,-0.2345 -0.0621,-0.14409 -0.0621,-0.33904 0,-0.16951 0.0932,-0.32491 0.0932,-0.15821 0.30231,-0.2797 0.20907,-0.12149 0.54528,-0.19777 0.33621,-0.0791 0.82498,-0.0904 v -0.22319 q 0,-0.33339 -0.14409,-0.50291 -0.14409,-0.17234 -0.42097,-0.17234 -0.18647,0 -0.3136,0.048 -0.12432,0.0452 -0.21755,0.10454 -0.0904,0.0565 -0.15822,0.10453 -0.065,0.0452 -0.12996,0.0452 -0.0508,0 -0.0876,-0.0254 -0.0367,-0.0282 -0.0622,-0.0678 z"
         style="font-style:normal;font-variant:normal;font-weight:normal;font-stretch:normal;font-size:5.65057px;font-family:Lato;-inkscape-font-specification:Lato;font-variant-ligatures:normal;font-variant-caps:normal;font-variant-numeric:normal;font-variant-east-asian:normal;fill:#cc3a8e;fill-opacity:1;stroke-width:1.22568"
         id="path209" />
      <path
         d="m 106.812,121.20179 v -2.86201 h 0.30231 q 0.10736,0 0.13278,0.10453 l 0.0367,0.29383 q 0.15822,-0.19494 0.35599,-0.31926 0.19777,-0.12431 0.4577,-0.12431 0.28817,0 0.46617,0.16104 0.18082,0.16104 0.25992,0.4351 0.0622,-0.15539 0.15822,-0.26841 0.0989,-0.11301 0.22037,-0.18646 0.12149,-0.0735 0.2571,-0.10736 0.13844,-0.0339 0.27971,-0.0339 0.22602,0 0.40119,0.0735 0.17799,0.0706 0.29948,0.20907 0.12431,0.13844 0.18929,0.34186 0.065,0.20059 0.065,0.46052 v 1.82231 h -0.50572 v -1.82231 q 0,-0.33621 -0.14692,-0.50855 -0.14691,-0.17517 -0.42379,-0.17517 -0.12431,0 -0.23733,0.0452 -0.11018,0.0424 -0.19494,0.12713 -0.0848,0.0848 -0.13561,0.21473 -0.048,0.12713 -0.048,0.29665 v 1.82231 h -0.50573 v -1.82231 q 0,-0.34468 -0.13844,-0.5142 -0.13844,-0.16952 -0.40401,-0.16952 -0.18647,0 -0.34469,0.10171 -0.15822,0.0989 -0.291,0.27123 v 2.13309 z"
         style="font-style:normal;font-variant:normal;font-weight:normal;font-stretch:normal;font-size:5.65057px;font-family:Lato;-inkscape-font-specification:Lato;font-variant-ligatures:normal;font-variant-caps:normal;font-variant-numeric:normal;font-variant-east-asian:normal;fill:#cc3a8e;fill-opacity:1;stroke-width:1.22568"
         id="path211" />
      <path
         d="m 113.37381,119.45859 q 0,-0.17517 -0.0509,-0.31926 -0.048,-0.14691 -0.14409,-0.25145 -0.0932,-0.10736 -0.22885,-0.16387 -0.13561,-0.0593 -0.30795,-0.0593 -0.36164,0 -0.57354,0.2119 -0.20907,0.20907 -0.25992,0.58201 z m 0.40685,1.34201 q -0.0932,0.11301 -0.2232,0.19777 -0.12997,0.0819 -0.27971,0.13561 -0.14691,0.0537 -0.30513,0.0791 -0.15821,0.0282 -0.3136,0.0282 -0.29666,0 -0.54811,-0.0989 -0.24862,-0.10171 -0.43227,-0.29383 -0.18081,-0.19495 -0.28253,-0.4803 -0.10171,-0.28535 -0.10171,-0.65547 0,-0.29948 0.0904,-0.5594 0.0932,-0.25993 0.26558,-0.44922 0.17234,-0.19212 0.42097,-0.29948 0.24862,-0.11019 0.5594,-0.11019 0.25711,0 0.47465,0.0876 0.22037,0.0847 0.37859,0.24862 0.16104,0.16104 0.25145,0.40119 0.0904,0.23732 0.0904,0.54246 0,0.11866 -0.0254,0.15821 -0.0254,0.0396 -0.0961,0.0396 h -1.91272 q 0.008,0.27122 0.0735,0.47182 0.0678,0.20059 0.18647,0.33621 0.11866,0.13279 0.28253,0.20059 0.16387,0.065 0.36729,0.065 0.18929,0 0.3249,-0.0424 0.13844,-0.0452 0.23733,-0.0961 0.0989,-0.0508 0.16386,-0.0932 0.0678,-0.0452 0.11584,-0.0452 0.0622,0 0.0961,0.048 z"
         style="font-style:normal;font-variant:normal;font-weight:normal;font-stretch:normal;font-size:5.65057px;font-family:Lato;-inkscape-font-specification:Lato;font-variant-ligatures:normal;font-variant-caps:normal;font-variant-numeric:normal;font-variant-east-asian:normal;fill:#cc3a8e;fill-opacity:1;stroke-width:1.22568"
         id="path213" />
      <path
         d="m 118.29943,120.74127 v 0.46052 h -2.29695 v -4.04863 h 0.54528 v 3.58811 z"
         style="font-style:normal;font-variant:normal;font-weight:normal;font-stretch:normal;font-size:5.65057px;font-family:Lato;-inkscape-font-specification:Lato;font-variant-ligatures:normal;font-variant-caps:normal;font-variant-numeric:normal;font-variant-east-asian:normal;fill:#cc3a8e;fill-opacity:1;stroke-width:1.22568"
         id="path215" />
      <path
         d="m 119.31751,118.33978 v 2.86201 h -0.5029 v -2.86201 z m 0.10736,-0.89844 q 0,0.0735 -0.0311,0.13843 -0.0282,0.0622 -0.0791,0.11302 -0.048,0.048 -0.11583,0.0763 -0.065,0.0282 -0.13844,0.0282 -0.0735,0 -0.13844,-0.0282 -0.0622,-0.0282 -0.11019,-0.0763 -0.048,-0.0509 -0.0763,-0.11302 -0.0282,-0.065 -0.0282,-0.13843 0,-0.0735 0.0282,-0.13844 0.0282,-0.0678 0.0763,-0.11584 0.048,-0.0509 0.11019,-0.0791 0.065,-0.0282 0.13844,-0.0282 0.0734,0 0.13844,0.0282 0.0678,0.0282 0.11583,0.0791 0.0509,0.048 0.0791,0.11584 0.0311,0.065 0.0311,0.13844 z"
         style="font-style:normal;font-variant:normal;font-weight:normal;font-stretch:normal;font-size:5.65057px;font-family:Lato;-inkscape-font-specification:Lato;font-variant-ligatures:normal;font-variant-caps:normal;font-variant-numeric:normal;font-variant-east-asian:normal;fill:#cc3a8e;fill-opacity:1;stroke-width:1.22568"
         id="path217" />
      <path
         d="m 120.64954,120.51242 q 0.13844,0.18647 0.30231,0.26275 0.16669,0.0763 0.36446,0.0763 0.40401,0 0.61873,-0.28535 0.21473,-0.28535 0.21473,-0.85041 0,-0.5255 -0.19212,-0.7713 -0.1893,-0.24863 -0.54246,-0.24863 -0.2458,0 -0.42944,0.11301 -0.18082,0.11301 -0.33621,0.31926 z m 0,-1.76015 q 0.18082,-0.20907 0.40684,-0.33339 0.22885,-0.12431 0.5255,-0.12431 0.25145,0 0.45205,0.0961 0.20342,0.0961 0.34468,0.2797 0.14127,0.18082 0.21473,0.44075 0.0763,0.25993 0.0763,0.58483 0,0.34751 -0.0848,0.63287 -0.0848,0.28535 -0.2458,0.48877 -0.15822,0.2006 -0.38706,0.31361 -0.22885,0.11018 -0.51421,0.11018 -0.28252,0 -0.47747,-0.10453 -0.19212,-0.10736 -0.33621,-0.30231 l -0.0254,0.25993 q -0.0226,0.10736 -0.12997,0.10736 h -0.32491 v -4.16164 h 0.50573 z"
         style="font-style:normal;font-variant:normal;font-weight:normal;font-stretch:normal;font-size:5.65057px;font-family:Lato;-inkscape-font-specification:Lato;font-variant-ligatures:normal;font-variant-caps:normal;font-variant-numeric:normal;font-variant-east-asian:normal;fill:#cc3a8e;fill-opacity:1;stroke-width:1.22568"
         id="path219" />
      <path
         d="m 123.7887,118.91331 q 0.13561,-0.29383 0.33338,-0.4577 0.19777,-0.16669 0.48313,-0.16669 0.0904,0 0.17234,0.0198 0.0848,0.0198 0.14974,0.0622 l -0.0367,0.37577 q -0.0169,0.0706 -0.0848,0.0706 -0.0396,0 -0.11583,-0.017 -0.0763,-0.0169 -0.17235,-0.0169 -0.13561,0 -0.24297,0.0396 -0.10454,0.0395 -0.1893,0.11866 -0.0819,0.0763 -0.14974,0.19212 -0.065,0.11301 -0.11866,0.25993 v 1.80818 h -0.50572 v -2.86201 h 0.28818 q 0.0819,0 0.11301,0.0311 0.0311,0.0311 0.0424,0.10737 z"
         style="font-style:normal;font-variant:normal;font-weight:normal;font-stretch:normal;font-size:5.65057px;font-family:Lato;-inkscape-font-specification:Lato;font-variant-ligatures:normal;font-variant-caps:normal;font-variant-numeric:normal;font-variant-east-asian:normal;fill:#cc3a8e;fill-opacity:1;stroke-width:1.22568"
         id="path221" />
      <path
         d="m 126.87091,119.91346 q -0.34751,0.0113 -0.59331,0.0565 -0.24298,0.0424 -0.39837,0.11301 -0.15256,0.0706 -0.2232,0.16669 -0.0678,0.0961 -0.0678,0.21472 0,0.11301 0.0367,0.19495 0.0367,0.0819 0.0989,0.13561 0.065,0.0508 0.14974,0.0763 0.0876,0.0226 0.18647,0.0226 0.13279,0 0.24297,-0.0254 0.11019,-0.0283 0.20625,-0.0791 0.0989,-0.0509 0.18647,-0.12149 0.0904,-0.0706 0.17517,-0.16104 z m -1.62454,-1.16967 q 0.23732,-0.22885 0.51137,-0.34186 0.27406,-0.11301 0.60744,-0.11301 0.24015,0 0.42662,0.0791 0.18647,0.0791 0.3136,0.22037 0.12714,0.14127 0.19212,0.34186 0.065,0.2006 0.065,0.44075 v 1.83078 h -0.2232 q -0.0735,0 -0.11301,-0.0226 -0.0396,-0.0254 -0.0622,-0.0961 l -0.0565,-0.27123 q -0.11301,0.10454 -0.22037,0.18647 -0.10736,0.0791 -0.22602,0.13561 -0.11866,0.0537 -0.25428,0.0819 -0.13278,0.0311 -0.29665,0.0311 -0.16669,0 -0.31361,-0.0452 -0.14691,-0.048 -0.2571,-0.14126 -0.10736,-0.0932 -0.17234,-0.2345 -0.0622,-0.14409 -0.0622,-0.33904 0,-0.16951 0.0932,-0.32491 0.0932,-0.15821 0.3023,-0.2797 0.20907,-0.12149 0.54528,-0.19777 0.33621,-0.0791 0.82499,-0.0904 v -0.22319 q 0,-0.33339 -0.14409,-0.50291 -0.14409,-0.17234 -0.42097,-0.17234 -0.18647,0 -0.31361,0.048 -0.12431,0.0452 -0.21754,0.10454 -0.0904,0.0565 -0.15822,0.10453 -0.065,0.0452 -0.12996,0.0452 -0.0509,0 -0.0876,-0.0254 -0.0367,-0.0282 -0.0621,-0.0678 z"
         style="font-style:normal;font-variant:normal;font-weight:normal;font-stretch:normal;font-size:5.65057px;font-family:Lato;-inkscape-font-specification:Lato;font-variant-ligatures:normal;font-variant-caps:normal;font-variant-numeric:normal;font-variant-east-asian:normal;fill:#cc3a8e;fill-opacity:1;stroke-width:1.22568"
         id="path223" />
      <path
         d="m 128.60051,118.91331 q 0.13562,-0.29383 0.33339,-0.4577 0.19777,-0.16669 0.48312,-0.16669 0.0904,0 0.17234,0.0198 0.0848,0.0198 0.14974,0.0622 l -0.0367,0.37577 q -0.017,0.0706 -0.0848,0.0706 -0.0396,0 -0.11584,-0.017 -0.0763,-0.0169 -0.17234,-0.0169 -0.13562,0 -0.24298,0.0396 -0.10453,0.0395 -0.18929,0.11866 -0.0819,0.0763 -0.14974,0.19212 -0.065,0.11301 -0.11866,0.25993 v 1.80818 h -0.50573 v -2.86201 h 0.28818 q 0.0819,0 0.11301,0.0311 0.0311,0.0311 0.0424,0.10737 z"
         style="font-style:normal;font-variant:normal;font-weight:normal;font-stretch:normal;font-size:5.65057px;font-family:Lato;-inkscape-font-specification:Lato;font-variant-ligatures:normal;font-variant-caps:normal;font-variant-numeric:normal;font-variant-east-asian:normal;fill:#cc3a8e;fill-opacity:1;stroke-width:1.22568"
         id="path225" />
      <path
         d="m 132.64508,118.33978 -1.59628,3.70677 q -0.0254,0.0565 -0.065,0.0904 -0.0367,0.0339 -0.11584,0.0339 h -0.37294 l 0.52268,-1.13576 -1.18097,-2.69532 h 0.43509 q 0.065,0 0.10172,0.0339 0.0395,0.0311 0.0537,0.0706 l 0.76565,1.80253 q 0.0452,0.11867 0.0763,0.24863 0.0395,-0.13279 0.0848,-0.25145 l 0.74305,-1.79971 q 0.017,-0.0452 0.0565,-0.0735 0.0424,-0.0311 0.0932,-0.0311 z"
         style="font-style:normal;font-variant:normal;font-weight:normal;font-stretch:normal;font-size:5.65057px;font-family:Lato;-inkscape-font-specification:Lato;font-variant-ligatures:normal;font-variant-caps:normal;font-variant-numeric:normal;font-variant-east-asian:normal;fill:#cc3a8e;fill-opacity:1;stroke-width:1.22568"
         id="path227" />
    </g>
  </g>
</svg>
