<?xml version="1.0" encoding="UTF-8" standalone="no"?>
<!DOCTYPE svg PUBLIC "-//W3C//DTD SVG 1.1//EN"
 "http://www.w3.org/Graphics/SVG/1.1/DTD/svg11.dtd">
<!-- Generated by graphviz version 2.40.1 (0)
 -->
<!-- Title: jngl/other.hpp Pages: 1 -->
<svg width="158pt" height="196pt"
 viewBox="0.00 0.00 157.50 196.00" xmlns="http://www.w3.org/2000/svg" xmlns:xlink="http://www.w3.org/1999/xlink">
<g id="graph0" class="graph" transform="scale(1 1) rotate(0) translate(4 192)">
<title>jngl/other.hpp</title>
<polygon fill="#ffffff" stroke="transparent" points="-4,4 -4,-192 153.5,-192 153.5,4 -4,4"/>
<!-- Node4 -->
<g id="node1" class="node">
<title>Node4</title>
<polygon fill="#bfbfbf" stroke="#000000" points="41.5,-168.5 41.5,-187.5 121.5,-187.5 121.5,-168.5 41.5,-168.5"/>
<text text-anchor="middle" x="81.5" y="-175.5" font-family="Helvetica,sans-Serif" font-size="10.00" fill="#000000">jngl/other.hpp</text>
</g>
<!-- Node5 -->
<g id="node2" class="node">
<title>Node5</title>
<g id="a_node2"><a xlink:href="main_8hpp_source.html" target="_top" xlink:title="jngl/main.hpp">
<polygon fill="#ffffff" stroke="#000000" points="10,-112.5 10,-131.5 87,-131.5 87,-112.5 10,-112.5"/>
<text text-anchor="middle" x="48.5" y="-119.5" font-family="Helvetica,sans-Serif" font-size="10.00" fill="#000000">jngl/main.hpp</text>
</a>
</g>
</g>
<!-- Node4&#45;&gt;Node5 -->
<g id="edge1" class="edge">
<title>Node4&#45;&gt;Node5</title>
<path fill="none" stroke="#191970" d="M70.6746,-159.6296C65.1701,-150.2887 58.7063,-139.3197 54.1823,-131.6427"/>
<polygon fill="#191970" stroke="#191970" points="67.6595,-161.4071 75.7518,-168.2455 73.6903,-157.8532 67.6595,-161.4071"/>
</g>
<!-- Node6 -->
<g id="node3" class="node">
<title>Node6</title>
<g id="a_node3"><a xlink:href="all_8hpp.html" target="_top" xlink:title="Includes all JNGL headers. ">
<polygon fill="#ffffff" stroke="#000000" points="48.5,-56.5 48.5,-75.5 114.5,-75.5 114.5,-56.5 48.5,-56.5"/>
<text text-anchor="middle" x="81.5" y="-63.5" font-family="Helvetica,sans-Serif" font-size="10.00" fill="#000000">jngl/all.hpp</text>
</a>
</g>
</g>
<!-- Node4&#45;&gt;Node6 -->
<g id="edge5" class="edge">
<title>Node4&#45;&gt;Node6</title>
<path fill="none" stroke="#191970" d="M89.2784,-158.7421C92.1588,-150.6297 95.0699,-140.9984 96.5,-132 99.7091,-111.8075 91.6262,-88.5738 86.1188,-75.7615"/>
<polygon fill="#191970" stroke="#191970" points="85.908,-157.7593 85.6368,-168.3507 92.4537,-160.2401 85.908,-157.7593"/>
</g>
<!-- Node5&#45;&gt;Node6 -->
<g id="edge2" class="edge">
<title>Node5&#45;&gt;Node6</title>
<path fill="none" stroke="#191970" d="M59.3254,-103.6296C64.8299,-94.2887 71.2937,-83.3197 75.8177,-75.6427"/>
<polygon fill="#191970" stroke="#191970" points="56.3097,-101.8532 54.2482,-112.2455 62.3405,-105.4071 56.3097,-101.8532"/>
</g>
<!-- Node7 -->
<g id="node4" class="node">
<title>Node7</title>
<g id="a_node4"><a xlink:href="work_8cpp_source.html" target="_top" xlink:title="jngl/work.cpp">
<polygon fill="#ffffff" stroke="#000000" points="0,-.5 0,-19.5 79,-19.5 79,-.5 0,-.5"/>
<text text-anchor="middle" x="39.5" y="-7.5" font-family="Helvetica,sans-Serif" font-size="10.00" fill="#000000">jngl/work.cpp</text>
</a>
</g>
</g>
<!-- Node6&#45;&gt;Node7 -->
<g id="edge3" class="edge">
<title>Node6&#45;&gt;Node7</title>
<path fill="none" stroke="#191970" d="M68.1584,-48.2112C61.0604,-38.7472 52.6097,-27.4797 46.732,-19.6427"/>
<polygon fill="#191970" stroke="#191970" points="65.3841,-50.3455 74.1842,-56.2455 70.9841,-46.1455 65.3841,-50.3455"/>
</g>
<!-- Node8 -->
<g id="node5" class="node">
<title>Node8</title>
<g id="a_node5"><a xlink:href="jngl_8hpp_source.html" target="_top" xlink:title="jngl.hpp">
<polygon fill="#ffffff" stroke="#000000" points="97.5,-.5 97.5,-19.5 149.5,-19.5 149.5,-.5 97.5,-.5"/>
<text text-anchor="middle" x="123.5" y="-7.5" font-family="Helvetica,sans-Serif" font-size="10.00" fill="#000000">jngl.hpp</text>
</a>
</g>
</g>
<!-- Node6&#45;&gt;Node8 -->
<g id="edge4" class="edge">
<title>Node6&#45;&gt;Node8</title>
<path fill="none" stroke="#191970" d="M94.8416,-48.2112C101.9396,-38.7472 110.3903,-27.4797 116.268,-19.6427"/>
<polygon fill="#191970" stroke="#191970" points="92.0159,-46.1455 88.8158,-56.2455 97.6159,-50.3455 92.0159,-46.1455"/>
</g>
</g>
</svg>
