<?xml version="1.0" encoding="UTF-8" standalone="no"?>
<!DOCTYPE svg PUBLIC "-//W3C//DTD SVG 1.1//EN"
 "http://www.w3.org/Graphics/SVG/1.1/DTD/svg11.dtd">
<!-- Generated by graphviz version 2.40.1 (0)
 -->
<!-- Title: jngl/text.hpp Pages: 1 -->
<svg width="217pt" height="140pt"
 viewBox="0.00 0.00 216.50 140.00" xmlns="http://www.w3.org/2000/svg" xmlns:xlink="http://www.w3.org/1999/xlink">
<g id="graph0" class="graph" transform="scale(1 1) rotate(0) translate(4 136)">
<title>jngl/text.hpp</title>
<polygon fill="#ffffff" stroke="transparent" points="-4,4 -4,-136 212.5,-136 212.5,4 -4,4"/>
<!-- Node7 -->
<g id="node1" class="node">
<title>Node7</title>
<polygon fill="#bfbfbf" stroke="#000000" points="88,-112.5 88,-131.5 163,-131.5 163,-112.5 88,-112.5"/>
<text text-anchor="middle" x="125.5" y="-119.5" font-family="Helvetica,sans-Serif" font-size="10.00" fill="#000000">jngl/text.hpp</text>
</g>
<!-- Node8 -->
<g id="node2" class="node">
<title>Node8</title>
<g id="a_node2"><a xlink:href="all_8hpp.html" target="_top" xlink:title="Includes all JNGL headers. ">
<polygon fill="#ffffff" stroke="#000000" points="48.5,-56.5 48.5,-75.5 114.5,-75.5 114.5,-56.5 48.5,-56.5"/>
<text text-anchor="middle" x="81.5" y="-63.5" font-family="Helvetica,sans-Serif" font-size="10.00" fill="#000000">jngl/all.hpp</text>
</a>
</g>
</g>
<!-- Node7&#45;&gt;Node8 -->
<g id="edge1" class="edge">
<title>Node7&#45;&gt;Node8</title>
<path fill="none" stroke="#191970" d="M111.5231,-104.2112C104.0871,-94.7472 95.234,-83.4797 89.0764,-75.6427"/>
<polygon fill="#191970" stroke="#191970" points="108.9054,-106.5447 117.8358,-112.2455 114.4097,-102.22 108.9054,-106.5447"/>
</g>
<!-- Node11 -->
<g id="node5" class="node">
<title>Node11</title>
<g id="a_node5"><a xlink:href="text_8cpp_source.html" target="_top" xlink:title="jngl/text.cpp">
<polygon fill="#ffffff" stroke="#000000" points="132.5,-56.5 132.5,-75.5 208.5,-75.5 208.5,-56.5 132.5,-56.5"/>
<text text-anchor="middle" x="170.5" y="-63.5" font-family="Helvetica,sans-Serif" font-size="10.00" fill="#000000">jngl/text.cpp</text>
</a>
</g>
</g>
<!-- Node7&#45;&gt;Node11 -->
<g id="edge4" class="edge">
<title>Node7&#45;&gt;Node11</title>
<path fill="none" stroke="#191970" d="M139.7946,-104.2112C147.3996,-94.7472 156.4538,-83.4797 162.7514,-75.6427"/>
<polygon fill="#191970" stroke="#191970" points="136.8741,-102.2581 133.3384,-112.2455 142.3306,-106.6428 136.8741,-102.2581"/>
</g>
<!-- Node9 -->
<g id="node3" class="node">
<title>Node9</title>
<g id="a_node3"><a xlink:href="work_8cpp_source.html" target="_top" xlink:title="jngl/work.cpp">
<polygon fill="#ffffff" stroke="#000000" points="0,-.5 0,-19.5 79,-19.5 79,-.5 0,-.5"/>
<text text-anchor="middle" x="39.5" y="-7.5" font-family="Helvetica,sans-Serif" font-size="10.00" fill="#000000">jngl/work.cpp</text>
</a>
</g>
</g>
<!-- Node8&#45;&gt;Node9 -->
<g id="edge2" class="edge">
<title>Node8&#45;&gt;Node9</title>
<path fill="none" stroke="#191970" d="M68.1584,-48.2112C61.0604,-38.7472 52.6097,-27.4797 46.732,-19.6427"/>
<polygon fill="#191970" stroke="#191970" points="65.3841,-50.3455 74.1842,-56.2455 70.9841,-46.1455 65.3841,-50.3455"/>
</g>
<!-- Node10 -->
<g id="node4" class="node">
<title>Node10</title>
<g id="a_node4"><a xlink:href="jngl_8hpp_source.html" target="_top" xlink:title="jngl.hpp">
<polygon fill="#ffffff" stroke="#000000" points="97.5,-.5 97.5,-19.5 149.5,-19.5 149.5,-.5 97.5,-.5"/>
<text text-anchor="middle" x="123.5" y="-7.5" font-family="Helvetica,sans-Serif" font-size="10.00" fill="#000000">jngl.hpp</text>
</a>
</g>
</g>
<!-- Node8&#45;&gt;Node10 -->
<g id="edge3" class="edge">
<title>Node8&#45;&gt;Node10</title>
<path fill="none" stroke="#191970" d="M94.8416,-48.2112C101.9396,-38.7472 110.3903,-27.4797 116.268,-19.6427"/>
<polygon fill="#191970" stroke="#191970" points="92.0159,-46.1455 88.8158,-56.2455 97.6159,-50.3455 92.0159,-46.1455"/>
</g>
</g>
</svg>
