<?xml version="1.0" encoding="UTF-8" standalone="no"?>
<!DOCTYPE svg PUBLIC "-//W3C//DTD SVG 1.1//EN"
 "http://www.w3.org/Graphics/SVG/1.1/DTD/svg11.dtd">
<!-- Generated by graphviz version 2.40.1 (0)
 -->
<!-- Title: jngl/Vec2.hpp Pages: 1 -->
<svg width="239pt" height="84pt"
 viewBox="0.00 0.00 239.00 84.00" xmlns="http://www.w3.org/2000/svg" xmlns:xlink="http://www.w3.org/1999/xlink">
<g id="graph0" class="graph" transform="scale(1 1) rotate(0) translate(4 80)">
<title>jngl/Vec2.hpp</title>
<polygon fill="#ffffff" stroke="transparent" points="-4,4 -4,-80 235,-80 235,4 -4,4"/>
<!-- Node0 -->
<g id="node1" class="node">
<title>Node0</title>
<polygon fill="#bfbfbf" stroke="#000000" points="75.5,-56.5 75.5,-75.5 155.5,-75.5 155.5,-56.5 75.5,-56.5"/>
<text text-anchor="middle" x="115.5" y="-63.5" font-family="Helvetica,sans-Serif" font-size="10.00" fill="#000000">jngl/Vec2.hpp</text>
</g>
<!-- Node1 -->
<g id="node2" class="node">
<title>Node1</title>
<g id="a_node2"><a xlink:href="dll_8hpp_source.html" target="_top" xlink:title="dll.hpp">
<polygon fill="#ffffff" stroke="#000000" points="0,-.5 0,-19.5 47,-19.5 47,-.5 0,-.5"/>
<text text-anchor="middle" x="23.5" y="-7.5" font-family="Helvetica,sans-Serif" font-size="10.00" fill="#000000">dll.hpp</text>
</a>
</g>
</g>
<!-- Node0&#45;&gt;Node1 -->
<g id="edge1" class="edge">
<title>Node0&#45;&gt;Node1</title>
<path fill="none" stroke="#191970" d="M99.4748,-56.2455C85.3592,-47.6534 64.5737,-35.0014 48.3101,-25.1018"/>
<polygon fill="#191970" stroke="#191970" points="49.7034,-21.8525 39.3415,-19.6427 46.0637,-27.8319 49.7034,-21.8525"/>
</g>
<!-- Node2 -->
<g id="node3" class="node">
<title>Node2</title>
<polygon fill="#ffffff" stroke="#bfbfbf" points="65.5,-.5 65.5,-19.5 165.5,-19.5 165.5,-.5 65.5,-.5"/>
<text text-anchor="middle" x="115.5" y="-7.5" font-family="Helvetica,sans-Serif" font-size="10.00" fill="#000000">boost/version.hpp</text>
</g>
<!-- Node0&#45;&gt;Node2 -->
<g id="edge2" class="edge">
<title>Node0&#45;&gt;Node2</title>
<path fill="none" stroke="#191970" d="M115.5,-56.2455C115.5,-48.9382 115.5,-38.6944 115.5,-29.7046"/>
<polygon fill="#191970" stroke="#191970" points="119.0001,-29.6426 115.5,-19.6427 112.0001,-29.6427 119.0001,-29.6426"/>
</g>
<!-- Node3 -->
<g id="node4" class="node">
<title>Node3</title>
<polygon fill="#ffffff" stroke="#bfbfbf" points="184,-.5 184,-19.5 231,-19.5 231,-.5 184,-.5"/>
<text text-anchor="middle" x="207.5" y="-7.5" font-family="Helvetica,sans-Serif" font-size="10.00" fill="#000000">iosfwd</text>
</g>
<!-- Node0&#45;&gt;Node3 -->
<g id="edge3" class="edge">
<title>Node0&#45;&gt;Node3</title>
<path fill="none" stroke="#191970" d="M131.5252,-56.2455C145.6408,-47.6534 166.4263,-35.0014 182.6899,-25.1018"/>
<polygon fill="#191970" stroke="#191970" points="184.9363,-27.8319 191.6585,-19.6427 181.2966,-21.8525 184.9363,-27.8319"/>
</g>
</g>
</svg>
