<?xml version="1.0" encoding="UTF-8" standalone="no"?>
<!DOCTYPE svg PUBLIC "-//W3C//DTD SVG 1.1//EN"
 "http://www.w3.org/Graphics/SVG/1.1/DTD/svg11.dtd">
<!-- Generated by graphviz version 2.40.1 (0)
 -->
<!-- Title: jngl/Vec2.hpp Pages: 1 -->
<svg width="1060pt" height="252pt"
 viewBox="0.00 0.00 1060.00 252.00" xmlns="http://www.w3.org/2000/svg" xmlns:xlink="http://www.w3.org/1999/xlink">
<g id="graph0" class="graph" transform="scale(1 1) rotate(0) translate(4 248)">
<title>jngl/Vec2.hpp</title>
<polygon fill="#ffffff" stroke="transparent" points="-4,4 -4,-248 1056,-248 1056,4 -4,4"/>
<!-- Node4 -->
<g id="node1" class="node">
<title>Node4</title>
<polygon fill="#bfbfbf" stroke="#000000" points="614.5,-224.5 614.5,-243.5 694.5,-243.5 694.5,-224.5 614.5,-224.5"/>
<text text-anchor="middle" x="654.5" y="-231.5" font-family="Helvetica,sans-Serif" font-size="10.00" fill="#000000">jngl/Vec2.hpp</text>
</g>
<!-- Node5 -->
<g id="node2" class="node">
<title>Node5</title>
<g id="a_node2"><a xlink:href="Vertex_8hpp_source.html" target="_top" xlink:title="jngl/Vertex.hpp">
<polygon fill="#ffffff" stroke="#000000" points="611.5,-168.5 611.5,-187.5 697.5,-187.5 697.5,-168.5 611.5,-168.5"/>
<text text-anchor="middle" x="654.5" y="-175.5" font-family="Helvetica,sans-Serif" font-size="10.00" fill="#000000">jngl/Vertex.hpp</text>
</a>
</g>
</g>
<!-- Node4&#45;&gt;Node5 -->
<g id="edge1" class="edge">
<title>Node4&#45;&gt;Node5</title>
<path fill="none" stroke="#191970" d="M654.5,-214.1575C654.5,-205.155 654.5,-194.9199 654.5,-187.6427"/>
<polygon fill="#191970" stroke="#191970" points="651.0001,-214.2455 654.5,-224.2455 658.0001,-214.2456 651.0001,-214.2455"/>
</g>
<!-- Node9 -->
<g id="node6" class="node">
<title>Node9</title>
<g id="a_node6"><a xlink:href="input_8hpp.html" target="_top" xlink:title="jngl/input.hpp">
<polygon fill="#ffffff" stroke="#000000" points="89,-168.5 89,-187.5 168,-187.5 168,-168.5 89,-168.5"/>
<text text-anchor="middle" x="128.5" y="-175.5" font-family="Helvetica,sans-Serif" font-size="10.00" fill="#000000">jngl/input.hpp</text>
</a>
</g>
</g>
<!-- Node4&#45;&gt;Node9 -->
<g id="edge5" class="edge">
<title>Node4&#45;&gt;Node9</title>
<path fill="none" stroke="#191970" d="M604.1467,-228.6392C499.9882,-217.5501 262.7216,-192.2898 168.3186,-182.2392"/>
<polygon fill="#191970" stroke="#191970" points="603.7847,-232.1203 614.0991,-229.6988 604.5258,-225.1597 603.7847,-232.1203"/>
</g>
<!-- Node12 -->
<g id="node9" class="node">
<title>Node12</title>
<g id="a_node9"><a xlink:href="font_8hpp_source.html" target="_top" xlink:title="jngl/font.hpp">
<polygon fill="#ffffff" stroke="#000000" points="256,-168.5 256,-187.5 331,-187.5 331,-168.5 256,-168.5"/>
<text text-anchor="middle" x="293.5" y="-175.5" font-family="Helvetica,sans-Serif" font-size="10.00" fill="#000000">jngl/font.hpp</text>
</a>
</g>
</g>
<!-- Node4&#45;&gt;Node12 -->
<g id="edge10" class="edge">
<title>Node4&#45;&gt;Node12</title>
<path fill="none" stroke="#191970" d="M604.5887,-226.2575C531.4448,-214.9111 396.7388,-194.0149 331.2401,-183.8544"/>
<polygon fill="#191970" stroke="#191970" points="604.069,-229.7187 614.4874,-227.7931 605.1421,-222.8014 604.069,-229.7187"/>
</g>
<!-- Node15 -->
<g id="node12" class="node">
<title>Node15</title>
<g id="a_node12"><a xlink:href="screen_8hpp.html" target="_top" xlink:title="jngl/screen.hpp">
<polygon fill="#ffffff" stroke="#000000" points="502.5,-168.5 502.5,-187.5 590.5,-187.5 590.5,-168.5 502.5,-168.5"/>
<text text-anchor="middle" x="546.5" y="-175.5" font-family="Helvetica,sans-Serif" font-size="10.00" fill="#000000">jngl/screen.hpp</text>
</a>
</g>
</g>
<!-- Node4&#45;&gt;Node15 -->
<g id="edge14" class="edge">
<title>Node4&#45;&gt;Node15</title>
<path fill="none" stroke="#191970" d="M626.7229,-219.5971C607.3618,-209.558 582.0615,-196.4393 565.0966,-187.6427"/>
<polygon fill="#191970" stroke="#191970" points="625.1992,-222.7495 635.6878,-224.2455 628.4214,-216.5352 625.1992,-222.7495"/>
</g>
<!-- Node19 -->
<g id="node16" class="node">
<title>Node19</title>
<g id="a_node16"><a xlink:href="shapes_8hpp_source.html" target="_top" xlink:title="jngl/shapes.hpp">
<polygon fill="#ffffff" stroke="#000000" points="733,-168.5 733,-187.5 822,-187.5 822,-168.5 733,-168.5"/>
<text text-anchor="middle" x="777.5" y="-175.5" font-family="Helvetica,sans-Serif" font-size="10.00" fill="#000000">jngl/shapes.hpp</text>
</a>
</g>
</g>
<!-- Node4&#45;&gt;Node19 -->
<g id="edge20" class="edge">
<title>Node4&#45;&gt;Node19</title>
<path fill="none" stroke="#191970" d="M685.0065,-220.1109C707.3112,-209.9559 736.9799,-196.4482 756.6315,-187.5011"/>
<polygon fill="#191970" stroke="#191970" points="683.2953,-217.0442 675.6445,-224.3733 686.1959,-223.415 683.2953,-217.0442"/>
</g>
<!-- Node21 -->
<g id="node18" class="node">
<title>Node21</title>
<g id="a_node18"><a xlink:href="sprite_8hpp_source.html" target="_top" xlink:title="jngl/sprite.hpp">
<polygon fill="#ffffff" stroke="#000000" points="840,-168.5 840,-187.5 923,-187.5 923,-168.5 840,-168.5"/>
<text text-anchor="middle" x="881.5" y="-175.5" font-family="Helvetica,sans-Serif" font-size="10.00" fill="#000000">jngl/sprite.hpp</text>
</a>
</g>
</g>
<!-- Node4&#45;&gt;Node21 -->
<g id="edge23" class="edge">
<title>Node4&#45;&gt;Node21</title>
<path fill="none" stroke="#191970" d="M703.2158,-221.982C744.9833,-211.6781 804.3481,-197.0331 842.8951,-187.5237"/>
<polygon fill="#191970" stroke="#191970" points="702.1354,-218.6435 693.2648,-224.4369 703.812,-225.4398 702.1354,-218.6435"/>
</g>
<!-- Node24 -->
<g id="node21" class="node">
<title>Node24</title>
<g id="a_node21"><a xlink:href="Vec2_8cpp_source.html" target="_top" xlink:title="jngl/Vec2.cpp">
<polygon fill="#ffffff" stroke="#000000" points="941,-168.5 941,-187.5 1022,-187.5 1022,-168.5 941,-168.5"/>
<text text-anchor="middle" x="981.5" y="-175.5" font-family="Helvetica,sans-Serif" font-size="10.00" fill="#000000">jngl/Vec2.cpp</text>
</a>
</g>
</g>
<!-- Node4&#45;&gt;Node24 -->
<g id="edge29" class="edge">
<title>Node4&#45;&gt;Node24</title>
<path fill="none" stroke="#191970" d="M704.6003,-226.287C760.3388,-217.5717 853.0201,-202.6806 932.5,-188 935.2321,-187.4954 938.0468,-186.9606 940.8808,-186.4112"/>
<polygon fill="#191970" stroke="#191970" points="703.9754,-222.842 694.6341,-227.841 705.054,-229.7584 703.9754,-222.842"/>
</g>
<!-- Node6 -->
<g id="node3" class="node">
<title>Node6</title>
<g id="a_node3"><a xlink:href="all_8hpp.html" target="_top" xlink:title="Includes all JNGL headers. ">
<polygon fill="#ffffff" stroke="#000000" points="602.5,-56.5 602.5,-75.5 668.5,-75.5 668.5,-56.5 602.5,-56.5"/>
<text text-anchor="middle" x="635.5" y="-63.5" font-family="Helvetica,sans-Serif" font-size="10.00" fill="#000000">jngl/all.hpp</text>
</a>
</g>
</g>
<!-- Node5&#45;&gt;Node6 -->
<g id="edge2" class="edge">
<title>Node5&#45;&gt;Node6</title>
<path fill="none" stroke="#191970" d="M651.153,-158.2702C647.0355,-133.9985 640.2114,-93.7725 637.1158,-75.5249"/>
<polygon fill="#191970" stroke="#191970" points="647.7568,-159.1772 652.8801,-168.4509 654.6582,-158.0064 647.7568,-159.1772"/>
</g>
<!-- Node7 -->
<g id="node4" class="node">
<title>Node7</title>
<g id="a_node4"><a xlink:href="work_8cpp_source.html" target="_top" xlink:title="jngl/work.cpp">
<polygon fill="#ffffff" stroke="#000000" points="554,-.5 554,-19.5 633,-19.5 633,-.5 554,-.5"/>
<text text-anchor="middle" x="593.5" y="-7.5" font-family="Helvetica,sans-Serif" font-size="10.00" fill="#000000">jngl/work.cpp</text>
</a>
</g>
</g>
<!-- Node6&#45;&gt;Node7 -->
<g id="edge3" class="edge">
<title>Node6&#45;&gt;Node7</title>
<path fill="none" stroke="#191970" d="M622.1584,-48.2112C615.0604,-38.7472 606.6097,-27.4797 600.732,-19.6427"/>
<polygon fill="#191970" stroke="#191970" points="619.3841,-50.3455 628.1842,-56.2455 624.9841,-46.1455 619.3841,-50.3455"/>
</g>
<!-- Node8 -->
<g id="node5" class="node">
<title>Node8</title>
<g id="a_node5"><a xlink:href="jngl_8hpp_source.html" target="_top" xlink:title="jngl.hpp">
<polygon fill="#ffffff" stroke="#000000" points="651.5,-.5 651.5,-19.5 703.5,-19.5 703.5,-.5 651.5,-.5"/>
<text text-anchor="middle" x="677.5" y="-7.5" font-family="Helvetica,sans-Serif" font-size="10.00" fill="#000000">jngl.hpp</text>
</a>
</g>
</g>
<!-- Node6&#45;&gt;Node8 -->
<g id="edge4" class="edge">
<title>Node6&#45;&gt;Node8</title>
<path fill="none" stroke="#191970" d="M648.8416,-48.2112C655.9396,-38.7472 664.3903,-27.4797 670.268,-19.6427"/>
<polygon fill="#191970" stroke="#191970" points="646.0159,-46.1455 642.8158,-56.2455 651.6159,-50.3455 646.0159,-46.1455"/>
</g>
<!-- Node9&#45;&gt;Node6 -->
<g id="edge9" class="edge">
<title>Node9&#45;&gt;Node6</title>
<path fill="none" stroke="#191970" d="M128.611,-157.7692C129.8607,-142.7519 134.1875,-123.0375 147.5,-112 182.4249,-83.0434 497.7886,-70.4095 602.1412,-66.9974"/>
<polygon fill="#191970" stroke="#191970" points="125.0988,-157.9722 128.1572,-168.116 132.0921,-158.2789 125.0988,-157.9722"/>
</g>
<!-- Node10 -->
<g id="node7" class="node">
<title>Node10</title>
<g id="a_node7"><a xlink:href="Controller_8hpp_source.html" target="_top" xlink:title="jngl/Controller.hpp">
<polygon fill="#ffffff" stroke="#000000" points=".5,-112.5 .5,-131.5 100.5,-131.5 100.5,-112.5 .5,-112.5"/>
<text text-anchor="middle" x="50.5" y="-119.5" font-family="Helvetica,sans-Serif" font-size="10.00" fill="#000000">jngl/Controller.hpp</text>
</a>
</g>
</g>
<!-- Node9&#45;&gt;Node10 -->
<g id="edge6" class="edge">
<title>Node9&#45;&gt;Node10</title>
<path fill="none" stroke="#191970" d="M106.5064,-162.2097C92.8071,-152.3743 75.6264,-140.0394 63.9309,-131.6427"/>
<polygon fill="#191970" stroke="#191970" points="104.7489,-165.2566 114.9134,-168.2455 108.8314,-159.5703 104.7489,-165.2566"/>
</g>
<!-- Node10&#45;&gt;Node6 -->
<g id="edge7" class="edge">
<title>Node10&#45;&gt;Node6</title>
<path fill="none" stroke="#191970" d="M110.6964,-112.4768C111.9751,-112.3126 113.2442,-112.1534 114.5,-112 298.147,-89.5708 519.495,-73.7054 602.1997,-68.1635"/>
<polygon fill="#191970" stroke="#191970" points="110.2046,-109.0114 100.7643,-113.8208 111.1433,-115.9482 110.2046,-109.0114"/>
</g>
<!-- Node11 -->
<g id="node8" class="node">
<title>Node11</title>
<g id="a_node8"><a xlink:href="Controller_8cpp_source.html" target="_top" xlink:title="jngl/Controller.cpp">
<polygon fill="#ffffff" stroke="#000000" points="0,-56.5 0,-75.5 101,-75.5 101,-56.5 0,-56.5"/>
<text text-anchor="middle" x="50.5" y="-63.5" font-family="Helvetica,sans-Serif" font-size="10.00" fill="#000000">jngl/Controller.cpp</text>
</a>
</g>
</g>
<!-- Node10&#45;&gt;Node11 -->
<g id="edge8" class="edge">
<title>Node10&#45;&gt;Node11</title>
<path fill="none" stroke="#191970" d="M50.5,-102.1575C50.5,-93.155 50.5,-82.9199 50.5,-75.6427"/>
<polygon fill="#191970" stroke="#191970" points="47.0001,-102.2455 50.5,-112.2455 54.0001,-102.2456 47.0001,-102.2455"/>
</g>
<!-- Node12&#45;&gt;Node6 -->
<g id="edge11" class="edge">
<title>Node12&#45;&gt;Node6</title>
<path fill="none" stroke="#191970" d="M281.7506,-159.1038C274.3713,-144.5721 268.1895,-124.866 279.5,-112 300.6903,-87.8955 518.2953,-72.7982 602.4889,-67.8203"/>
<polygon fill="#191970" stroke="#191970" points="278.9037,-161.1827 286.8503,-168.19 285.0079,-157.7565 278.9037,-161.1827"/>
</g>
<!-- Node13 -->
<g id="node10" class="node">
<title>Node13</title>
<g id="a_node10"><a xlink:href="font_8cpp_source.html" target="_top" xlink:title="jngl/font.cpp">
<polygon fill="#ffffff" stroke="#000000" points="156.5,-112.5 156.5,-131.5 232.5,-131.5 232.5,-112.5 156.5,-112.5"/>
<text text-anchor="middle" x="194.5" y="-119.5" font-family="Helvetica,sans-Serif" font-size="10.00" fill="#000000">jngl/font.cpp</text>
</a>
</g>
</g>
<!-- Node12&#45;&gt;Node13 -->
<g id="edge12" class="edge">
<title>Node12&#45;&gt;Node13</title>
<path fill="none" stroke="#191970" d="M267.0643,-163.0465C249.4492,-153.0824 226.8153,-140.2794 211.5469,-131.6427"/>
<polygon fill="#191970" stroke="#191970" points="265.8283,-166.3684 276.2555,-168.2455 269.2747,-160.2756 265.8283,-166.3684"/>
</g>
<!-- Node14 -->
<g id="node11" class="node">
<title>Node14</title>
<g id="a_node11"><a xlink:href="text_8cpp_source.html" target="_top" xlink:title="jngl/text.cpp">
<polygon fill="#ffffff" stroke="#000000" points="288.5,-112.5 288.5,-131.5 364.5,-131.5 364.5,-112.5 288.5,-112.5"/>
<text text-anchor="middle" x="326.5" y="-119.5" font-family="Helvetica,sans-Serif" font-size="10.00" fill="#000000">jngl/text.cpp</text>
</a>
</g>
</g>
<!-- Node12&#45;&gt;Node14 -->
<g id="edge13" class="edge">
<title>Node12&#45;&gt;Node14</title>
<path fill="none" stroke="#191970" d="M304.3254,-159.6296C309.8299,-150.2887 316.2937,-139.3197 320.8177,-131.6427"/>
<polygon fill="#191970" stroke="#191970" points="301.3097,-157.8532 299.2482,-168.2455 307.3405,-161.4071 301.3097,-157.8532"/>
</g>
<!-- Node15&#45;&gt;Node6 -->
<g id="edge15" class="edge">
<title>Node15&#45;&gt;Node6</title>
<path fill="none" stroke="#191970" d="M566.898,-161.6497C576.5207,-153.3592 587.7766,-142.7793 596.5,-132 611.4034,-113.5844 624.4367,-88.8697 630.9953,-75.5187"/>
<polygon fill="#191970" stroke="#191970" points="564.3852,-159.1888 558.9668,-168.2933 568.8802,-164.5549 564.3852,-159.1888"/>
</g>
<!-- Node15&#45;&gt;Node14 -->
<g id="edge19" class="edge">
<title>Node15&#45;&gt;Node14</title>
<path fill="none" stroke="#191970" d="M498.7722,-165.8511C458.2888,-155.5462 401.024,-140.9697 363.8258,-131.5011"/>
<polygon fill="#191970" stroke="#191970" points="498.1263,-169.2982 508.6807,-168.3733 499.8531,-162.5145 498.1263,-169.2982"/>
</g>
<!-- Node16 -->
<g id="node13" class="node">
<title>Node16</title>
<g id="a_node13"><a xlink:href="drawable_8cpp_source.html" target="_top" xlink:title="jngl/drawable.cpp">
<polygon fill="#ffffff" stroke="#000000" points="382.5,-112.5 382.5,-131.5 480.5,-131.5 480.5,-112.5 382.5,-112.5"/>
<text text-anchor="middle" x="431.5" y="-119.5" font-family="Helvetica,sans-Serif" font-size="10.00" fill="#000000">jngl/drawable.cpp</text>
</a>
</g>
</g>
<!-- Node15&#45;&gt;Node16 -->
<g id="edge16" class="edge">
<title>Node15&#45;&gt;Node16</title>
<path fill="none" stroke="#191970" d="M517.6967,-163.9741C496.875,-153.8348 469.3022,-140.408 451.0112,-131.5011"/>
<polygon fill="#191970" stroke="#191970" points="516.2078,-167.1419 526.7308,-168.3733 519.2724,-160.8484 516.2078,-167.1419"/>
</g>
<!-- Node17 -->
<g id="node14" class="node">
<title>Node17</title>
<g id="a_node14"><a xlink:href="screen_8cpp_source.html" target="_top" xlink:title="jngl/screen.cpp">
<polygon fill="#ffffff" stroke="#000000" points="499,-112.5 499,-131.5 588,-131.5 588,-112.5 499,-112.5"/>
<text text-anchor="middle" x="543.5" y="-119.5" font-family="Helvetica,sans-Serif" font-size="10.00" fill="#000000">jngl/screen.cpp</text>
</a>
</g>
</g>
<!-- Node15&#45;&gt;Node17 -->
<g id="edge17" class="edge">
<title>Node15&#45;&gt;Node17</title>
<path fill="none" stroke="#191970" d="M545.437,-158.1575C544.9547,-149.155 544.4064,-138.9199 544.0166,-131.6427"/>
<polygon fill="#191970" stroke="#191970" points="541.9474,-158.4471 545.9774,-168.2455 548.9374,-158.0726 541.9474,-158.4471"/>
</g>
<!-- Node18 -->
<g id="node15" class="node">
<title>Node18</title>
<g id="a_node15"><a xlink:href="sprite_8cpp_source.html" target="_top" xlink:title="jngl/sprite.cpp">
<polygon fill="#ffffff" stroke="#000000" points="683,-112.5 683,-131.5 766,-131.5 766,-112.5 683,-112.5"/>
<text text-anchor="middle" x="724.5" y="-119.5" font-family="Helvetica,sans-Serif" font-size="10.00" fill="#000000">jngl/sprite.cpp</text>
</a>
</g>
</g>
<!-- Node15&#45;&gt;Node18 -->
<g id="edge18" class="edge">
<title>Node15&#45;&gt;Node18</title>
<path fill="none" stroke="#191970" d="M586.7931,-165.3235C619.4368,-155.0536 664.7134,-140.8093 694.3,-131.5011"/>
<polygon fill="#191970" stroke="#191970" points="585.588,-162.0335 577.0993,-168.3733 587.6887,-168.7108 585.588,-162.0335"/>
</g>
<!-- Node19&#45;&gt;Node6 -->
<g id="edge21" class="edge">
<title>Node19&#45;&gt;Node6</title>
<path fill="none" stroke="#191970" d="M782.0948,-158.1255C784.1824,-143.878 784.3373,-124.9858 774.5,-112 761.5683,-94.9296 705.4408,-80.4021 668.5832,-72.4655"/>
<polygon fill="#191970" stroke="#191970" points="778.5796,-157.8782 780.1601,-168.3545 785.4576,-159.1791 778.5796,-157.8782"/>
</g>
<!-- Node20 -->
<g id="node17" class="node">
<title>Node20</title>
<g id="a_node17"><a xlink:href="shapes_8cpp_source.html" target="_top" xlink:title="jngl/shapes.cpp">
<polygon fill="#ffffff" stroke="#000000" points="822.5,-112.5 822.5,-131.5 912.5,-131.5 912.5,-112.5 822.5,-112.5"/>
<text text-anchor="middle" x="867.5" y="-119.5" font-family="Helvetica,sans-Serif" font-size="10.00" fill="#000000">jngl/shapes.cpp</text>
</a>
</g>
</g>
<!-- Node19&#45;&gt;Node20 -->
<g id="edge22" class="edge">
<title>Node19&#45;&gt;Node20</title>
<path fill="none" stroke="#191970" d="M801.9784,-162.769C817.9266,-152.8456 838.251,-140.1994 852.0028,-131.6427"/>
<polygon fill="#191970" stroke="#191970" points="799.8183,-159.9908 793.1768,-168.2455 803.5165,-165.9342 799.8183,-159.9908"/>
</g>
<!-- Node21&#45;&gt;Node6 -->
<g id="edge24" class="edge">
<title>Node21&#45;&gt;Node6</title>
<path fill="none" stroke="#191970" d="M902.6107,-161.7312C918.2216,-147.75 934.6712,-127.459 921.5,-112 905.233,-92.9076 740.6308,-75.6365 668.7667,-68.943"/>
<polygon fill="#191970" stroke="#191970" points="900.0777,-159.2886 894.6849,-168.4083 904.5878,-164.6421 900.0777,-159.2886"/>
</g>
<!-- Node21&#45;&gt;Node18 -->
<g id="edge28" class="edge">
<title>Node21&#45;&gt;Node18</title>
<path fill="none" stroke="#191970" d="M844.8381,-164.9231C816.1376,-154.686 776.8956,-140.6889 751.1371,-131.5011"/>
<polygon fill="#191970" stroke="#191970" points="843.9161,-168.3102 854.5107,-168.3733 846.2678,-161.7171 843.9161,-168.3102"/>
</g>
<!-- Node22 -->
<g id="node19" class="node">
<title>Node22</title>
<g id="a_node19"><a xlink:href="Video_8hpp_source.html" target="_top" xlink:title="jngl/Video.hpp">
<polygon fill="#ffffff" stroke="#000000" points="969,-112.5 969,-131.5 1052,-131.5 1052,-112.5 969,-112.5"/>
<text text-anchor="middle" x="1010.5" y="-119.5" font-family="Helvetica,sans-Serif" font-size="10.00" fill="#000000">jngl/Video.hpp</text>
</a>
</g>
</g>
<!-- Node21&#45;&gt;Node22 -->
<g id="edge25" class="edge">
<title>Node21&#45;&gt;Node22</title>
<path fill="none" stroke="#191970" d="M912.8671,-164.3833C936.3284,-154.1985 967.8185,-140.5284 988.6135,-131.5011"/>
<polygon fill="#191970" stroke="#191970" points="911.4551,-161.1806 903.6759,-168.3733 914.2426,-167.6017 911.4551,-161.1806"/>
</g>
<!-- Node22&#45;&gt;Node6 -->
<g id="edge26" class="edge">
<title>Node22&#45;&gt;Node6</title>
<path fill="none" stroke="#191970" d="M958.9426,-112.7263C957.4459,-112.4786 955.9625,-112.236 954.5,-112 850.3718,-95.2 726.6335,-78.2004 668.6202,-70.4037"/>
<polygon fill="#191970" stroke="#191970" points="958.4925,-116.1999 968.9365,-114.4182 959.661,-109.2981 958.4925,-116.1999"/>
</g>
<!-- Node23 -->
<g id="node20" class="node">
<title>Node23</title>
<g id="a_node20"><a xlink:href="Video_8cpp_source.html" target="_top" xlink:title="jngl/Video.cpp">
<polygon fill="#ffffff" stroke="#000000" points="969,-56.5 969,-75.5 1052,-75.5 1052,-56.5 969,-56.5"/>
<text text-anchor="middle" x="1010.5" y="-63.5" font-family="Helvetica,sans-Serif" font-size="10.00" fill="#000000">jngl/Video.cpp</text>
</a>
</g>
</g>
<!-- Node22&#45;&gt;Node23 -->
<g id="edge27" class="edge">
<title>Node22&#45;&gt;Node23</title>
<path fill="none" stroke="#191970" d="M1010.5,-102.1575C1010.5,-93.155 1010.5,-82.9199 1010.5,-75.6427"/>
<polygon fill="#191970" stroke="#191970" points="1007.0001,-102.2455 1010.5,-112.2455 1014.0001,-102.2456 1007.0001,-102.2455"/>
</g>
</g>
</svg>
