<?xml version="1.0" encoding="UTF-8" standalone="no"?>
<!DOCTYPE svg PUBLIC "-//W3C//DTD SVG 1.1//EN"
 "http://www.w3.org/Graphics/SVG/1.1/DTD/svg11.dtd">
<!-- Generated by graphviz version 2.40.1 (0)
 -->
<!-- Title: jngl/window.hpp Pages: 1 -->
<svg width="116pt" height="84pt"
 viewBox="0.00 0.00 115.50 84.00" xmlns="http://www.w3.org/2000/svg" xmlns:xlink="http://www.w3.org/1999/xlink">
<g id="graph0" class="graph" transform="scale(1 1) rotate(0) translate(4 80)">
<title>jngl/window.hpp</title>
<polygon fill="#ffffff" stroke="transparent" points="-4,4 -4,-80 111.5,-80 111.5,4 -4,4"/>
<!-- Node0 -->
<g id="node1" class="node">
<title>Node0</title>
<polygon fill="#bfbfbf" stroke="#000000" points="7,-56.5 7,-75.5 97,-75.5 97,-56.5 7,-56.5"/>
<text text-anchor="middle" x="52" y="-63.5" font-family="Helvetica,sans-Serif" font-size="10.00" fill="#000000">jngl/window.hpp</text>
</g>
<!-- Node1 -->
<g id="node2" class="node">
<title>Node1</title>
<polygon fill="#ffffff" stroke="#bfbfbf" points="0,-.5 0,-19.5 42,-19.5 42,-.5 0,-.5"/>
<text text-anchor="middle" x="21" y="-7.5" font-family="Helvetica,sans-Serif" font-size="10.00" fill="#000000">string</text>
</g>
<!-- Node0&#45;&gt;Node1 -->
<g id="edge1" class="edge">
<title>Node0&#45;&gt;Node1</title>
<path fill="none" stroke="#191970" d="M46.6002,-56.2455C42.3773,-48.617 36.3827,-37.7881 31.2559,-28.5267"/>
<polygon fill="#191970" stroke="#191970" points="34.2432,-26.6965 26.3379,-19.6427 28.119,-30.0867 34.2432,-26.6965"/>
</g>
<!-- Node2 -->
<g id="node3" class="node">
<title>Node2</title>
<g id="a_node3"><a xlink:href="dll_8hpp_source.html" target="_top" xlink:title="dll.hpp">
<polygon fill="#ffffff" stroke="#000000" points="60.5,-.5 60.5,-19.5 107.5,-19.5 107.5,-.5 60.5,-.5"/>
<text text-anchor="middle" x="84" y="-7.5" font-family="Helvetica,sans-Serif" font-size="10.00" fill="#000000">dll.hpp</text>
</a>
</g>
</g>
<!-- Node0&#45;&gt;Node2 -->
<g id="edge2" class="edge">
<title>Node0&#45;&gt;Node2</title>
<path fill="none" stroke="#191970" d="M57.574,-56.2455C61.9331,-48.617 68.1211,-37.7881 73.4133,-28.5267"/>
<polygon fill="#191970" stroke="#191970" points="76.5673,-30.0616 78.4899,-19.6427 70.4896,-26.5886 76.5673,-30.0616"/>
</g>
</g>
</svg>
